<?xml version="1.0" encoding="utf-8" standalone="no"?>
<!DOCTYPE svg PUBLIC "-//W3C//DTD SVG 1.1//EN"
  "http://www.w3.org/Graphics/SVG/1.1/DTD/svg11.dtd">
<svg xmlns:xlink="http://www.w3.org/1999/xlink" width="460.8pt" height="345.6pt" viewBox="0 0 460.8 345.6" xmlns="http://www.w3.org/2000/svg" version="1.1">
 <metadata>
  <rdf:RDF xmlns:dc="http://purl.org/dc/elements/1.1/" xmlns:cc="http://creativecommons.org/ns#" xmlns:rdf="http://www.w3.org/1999/02/22-rdf-syntax-ns#">
   <cc:Work>
    <dc:type rdf:resource="http://purl.org/dc/dcmitype/StillImage"/>
    <dc:date>2022-12-23T15:22:51.353077</dc:date>
    <dc:format>image/svg+xml</dc:format>
    <dc:creator>
     <cc:Agent>
      <dc:title>Matplotlib v3.5.3, https://matplotlib.org/</dc:title>
     </cc:Agent>
    </dc:creator>
   </cc:Work>
  </rdf:RDF>
 </metadata>
 <defs>
  <style type="text/css">*{stroke-linejoin: round; stroke-linecap: butt}</style>
 </defs>
 <g id="figure_1">
  <g id="patch_1">
   <path d="M 0 345.6 
L 460.8 345.6 
L 460.8 0 
L 0 0 
z
" style="fill: #ffffff"/>
  </g>
  <g id="axes_1">
   <g id="patch_2">
    <path d="M 57.6 307.584 
L 414.72 307.584 
L 414.72 41.472 
L 57.6 41.472 
z
" style="fill: #e5e5e5"/>
   </g>
   <g id="matplotlib.axis_1">
    <g id="xtick_1">
     <g id="line2d_1">
      <path d="M 103.104 307.584 
L 103.104 41.472 
" clip-path="url(#p06fe2b73cf)" style="fill: none; stroke: #ffffff; stroke-width: 0.8; stroke-linecap: square"/>
     </g>
     <g id="line2d_2">
      <defs>
       <path id="m42a075d211" d="M 0 0 
L 0 3.5 
" style="stroke: #555555; stroke-width: 0.8"/>
      </defs>
      <g>
       <use xlink:href="#m42a075d211" x="103.104" y="307.584" style="fill: #555555; stroke: #555555; stroke-width: 0.8"/>
      </g>
     </g>
     <g id="text_1">
      <!-- 0.0 -->
      <g style="fill: #555555" transform="translate(95.152438 322.182437)scale(0.1 -0.1)">
       <defs>
        <path id="DejaVuSans-30" d="M 2034 4250 
Q 1547 4250 1301 3770 
Q 1056 3291 1056 2328 
Q 1056 1369 1301 889 
Q 1547 409 2034 409 
Q 2525 409 2770 889 
Q 3016 1369 3016 2328 
Q 3016 3291 2770 3770 
Q 2525 4250 2034 4250 
z
M 2034 4750 
Q 2819 4750 3233 4129 
Q 3647 3509 3647 2328 
Q 3647 1150 3233 529 
Q 2819 -91 2034 -91 
Q 1250 -91 836 529 
Q 422 1150 422 2328 
Q 422 3509 836 4129 
Q 1250 4750 2034 4750 
z
" transform="scale(0.015625)"/>
        <path id="DejaVuSans-2e" d="M 684 794 
L 1344 794 
L 1344 0 
L 684 0 
L 684 794 
z
" transform="scale(0.015625)"/>
       </defs>
       <use xlink:href="#DejaVuSans-30"/>
       <use xlink:href="#DejaVuSans-2e" x="63.623047"/>
       <use xlink:href="#DejaVuSans-30" x="95.410156"/>
      </g>
     </g>
    </g>
    <g id="xtick_2">
     <g id="line2d_3">
      <path d="M 156.3264 307.584 
L 156.3264 41.472 
" clip-path="url(#p06fe2b73cf)" style="fill: none; stroke: #ffffff; stroke-width: 0.8; stroke-linecap: square"/>
     </g>
     <g id="line2d_4">
      <g>
       <use xlink:href="#m42a075d211" x="156.3264" y="307.584" style="fill: #555555; stroke: #555555; stroke-width: 0.8"/>
      </g>
     </g>
     <g id="text_2">
      <!-- 0.2 -->
      <g style="fill: #555555" transform="translate(148.374838 322.182437)scale(0.1 -0.1)">
       <defs>
        <path id="DejaVuSans-32" d="M 1228 531 
L 3431 531 
L 3431 0 
L 469 0 
L 469 531 
Q 828 903 1448 1529 
Q 2069 2156 2228 2338 
Q 2531 2678 2651 2914 
Q 2772 3150 2772 3378 
Q 2772 3750 2511 3984 
Q 2250 4219 1831 4219 
Q 1534 4219 1204 4116 
Q 875 4013 500 3803 
L 500 4441 
Q 881 4594 1212 4672 
Q 1544 4750 1819 4750 
Q 2544 4750 2975 4387 
Q 3406 4025 3406 3419 
Q 3406 3131 3298 2873 
Q 3191 2616 2906 2266 
Q 2828 2175 2409 1742 
Q 1991 1309 1228 531 
z
" transform="scale(0.015625)"/>
       </defs>
       <use xlink:href="#DejaVuSans-30"/>
       <use xlink:href="#DejaVuSans-2e" x="63.623047"/>
       <use xlink:href="#DejaVuSans-32" x="95.410156"/>
      </g>
     </g>
    </g>
    <g id="xtick_3">
     <g id="line2d_5">
      <path d="M 209.5488 307.584 
L 209.5488 41.472 
" clip-path="url(#p06fe2b73cf)" style="fill: none; stroke: #ffffff; stroke-width: 0.8; stroke-linecap: square"/>
     </g>
     <g id="line2d_6">
      <g>
       <use xlink:href="#m42a075d211" x="209.5488" y="307.584" style="fill: #555555; stroke: #555555; stroke-width: 0.8"/>
      </g>
     </g>
     <g id="text_3">
      <!-- 0.4 -->
      <g style="fill: #555555" transform="translate(201.597238 322.182437)scale(0.1 -0.1)">
       <defs>
        <path id="DejaVuSans-34" d="M 2419 4116 
L 825 1625 
L 2419 1625 
L 2419 4116 
z
M 2253 4666 
L 3047 4666 
L 3047 1625 
L 3713 1625 
L 3713 1100 
L 3047 1100 
L 3047 0 
L 2419 0 
L 2419 1100 
L 313 1100 
L 313 1709 
L 2253 4666 
z
" transform="scale(0.015625)"/>
       </defs>
       <use xlink:href="#DejaVuSans-30"/>
       <use xlink:href="#DejaVuSans-2e" x="63.623047"/>
       <use xlink:href="#DejaVuSans-34" x="95.410156"/>
      </g>
     </g>
    </g>
    <g id="xtick_4">
     <g id="line2d_7">
      <path d="M 262.7712 307.584 
L 262.7712 41.472 
" clip-path="url(#p06fe2b73cf)" style="fill: none; stroke: #ffffff; stroke-width: 0.8; stroke-linecap: square"/>
     </g>
     <g id="line2d_8">
      <g>
       <use xlink:href="#m42a075d211" x="262.7712" y="307.584" style="fill: #555555; stroke: #555555; stroke-width: 0.8"/>
      </g>
     </g>
     <g id="text_4">
      <!-- 0.6 -->
      <g style="fill: #555555" transform="translate(254.819638 322.182437)scale(0.1 -0.1)">
       <defs>
        <path id="DejaVuSans-36" d="M 2113 2584 
Q 1688 2584 1439 2293 
Q 1191 2003 1191 1497 
Q 1191 994 1439 701 
Q 1688 409 2113 409 
Q 2538 409 2786 701 
Q 3034 994 3034 1497 
Q 3034 2003 2786 2293 
Q 2538 2584 2113 2584 
z
M 3366 4563 
L 3366 3988 
Q 3128 4100 2886 4159 
Q 2644 4219 2406 4219 
Q 1781 4219 1451 3797 
Q 1122 3375 1075 2522 
Q 1259 2794 1537 2939 
Q 1816 3084 2150 3084 
Q 2853 3084 3261 2657 
Q 3669 2231 3669 1497 
Q 3669 778 3244 343 
Q 2819 -91 2113 -91 
Q 1303 -91 875 529 
Q 447 1150 447 2328 
Q 447 3434 972 4092 
Q 1497 4750 2381 4750 
Q 2619 4750 2861 4703 
Q 3103 4656 3366 4563 
z
" transform="scale(0.015625)"/>
       </defs>
       <use xlink:href="#DejaVuSans-30"/>
       <use xlink:href="#DejaVuSans-2e" x="63.623047"/>
       <use xlink:href="#DejaVuSans-36" x="95.410156"/>
      </g>
     </g>
    </g>
    <g id="xtick_5">
     <g id="line2d_9">
      <path d="M 315.9936 307.584 
L 315.9936 41.472 
" clip-path="url(#p06fe2b73cf)" style="fill: none; stroke: #ffffff; stroke-width: 0.8; stroke-linecap: square"/>
     </g>
     <g id="line2d_10">
      <g>
       <use xlink:href="#m42a075d211" x="315.9936" y="307.584" style="fill: #555555; stroke: #555555; stroke-width: 0.8"/>
      </g>
     </g>
     <g id="text_5">
      <!-- 0.8 -->
      <g style="fill: #555555" transform="translate(308.042037 322.182437)scale(0.1 -0.1)">
       <defs>
        <path id="DejaVuSans-38" d="M 2034 2216 
Q 1584 2216 1326 1975 
Q 1069 1734 1069 1313 
Q 1069 891 1326 650 
Q 1584 409 2034 409 
Q 2484 409 2743 651 
Q 3003 894 3003 1313 
Q 3003 1734 2745 1975 
Q 2488 2216 2034 2216 
z
M 1403 2484 
Q 997 2584 770 2862 
Q 544 3141 544 3541 
Q 544 4100 942 4425 
Q 1341 4750 2034 4750 
Q 2731 4750 3128 4425 
Q 3525 4100 3525 3541 
Q 3525 3141 3298 2862 
Q 3072 2584 2669 2484 
Q 3125 2378 3379 2068 
Q 3634 1759 3634 1313 
Q 3634 634 3220 271 
Q 2806 -91 2034 -91 
Q 1263 -91 848 271 
Q 434 634 434 1313 
Q 434 1759 690 2068 
Q 947 2378 1403 2484 
z
M 1172 3481 
Q 1172 3119 1398 2916 
Q 1625 2713 2034 2713 
Q 2441 2713 2670 2916 
Q 2900 3119 2900 3481 
Q 2900 3844 2670 4047 
Q 2441 4250 2034 4250 
Q 1625 4250 1398 4047 
Q 1172 3844 1172 3481 
z
" transform="scale(0.015625)"/>
       </defs>
       <use xlink:href="#DejaVuSans-30"/>
       <use xlink:href="#DejaVuSans-2e" x="63.623047"/>
       <use xlink:href="#DejaVuSans-38" x="95.410156"/>
      </g>
     </g>
    </g>
    <g id="xtick_6">
     <g id="line2d_11">
      <path d="M 369.216 307.584 
L 369.216 41.472 
" clip-path="url(#p06fe2b73cf)" style="fill: none; stroke: #ffffff; stroke-width: 0.8; stroke-linecap: square"/>
     </g>
     <g id="line2d_12">
      <g>
       <use xlink:href="#m42a075d211" x="369.216" y="307.584" style="fill: #555555; stroke: #555555; stroke-width: 0.8"/>
      </g>
     </g>
     <g id="text_6">
      <!-- 1.0 -->
      <g style="fill: #555555" transform="translate(361.264438 322.182437)scale(0.1 -0.1)">
       <defs>
        <path id="DejaVuSans-31" d="M 794 531 
L 1825 531 
L 1825 4091 
L 703 3866 
L 703 4441 
L 1819 4666 
L 2450 4666 
L 2450 531 
L 3481 531 
L 3481 0 
L 794 0 
L 794 531 
z
" transform="scale(0.015625)"/>
       </defs>
       <use xlink:href="#DejaVuSans-31"/>
       <use xlink:href="#DejaVuSans-2e" x="63.623047"/>
       <use xlink:href="#DejaVuSans-30" x="95.410156"/>
      </g>
     </g>
    </g>
    <g id="text_7">
     <!-- Predicted probability -->
     <g style="fill: #555555" transform="translate(174.077812 337.38025)scale(0.12 -0.12)">
      <defs>
       <path id="DejaVuSans-50" d="M 1259 4147 
L 1259 2394 
L 2053 2394 
Q 2494 2394 2734 2622 
Q 2975 2850 2975 3272 
Q 2975 3691 2734 3919 
Q 2494 4147 2053 4147 
L 1259 4147 
z
M 628 4666 
L 2053 4666 
Q 2838 4666 3239 4311 
Q 3641 3956 3641 3272 
Q 3641 2581 3239 2228 
Q 2838 1875 2053 1875 
L 1259 1875 
L 1259 0 
L 628 0 
L 628 4666 
z
" transform="scale(0.015625)"/>
       <path id="DejaVuSans-72" d="M 2631 2963 
Q 2534 3019 2420 3045 
Q 2306 3072 2169 3072 
Q 1681 3072 1420 2755 
Q 1159 2438 1159 1844 
L 1159 0 
L 581 0 
L 581 3500 
L 1159 3500 
L 1159 2956 
Q 1341 3275 1631 3429 
Q 1922 3584 2338 3584 
Q 2397 3584 2469 3576 
Q 2541 3569 2628 3553 
L 2631 2963 
z
" transform="scale(0.015625)"/>
       <path id="DejaVuSans-65" d="M 3597 1894 
L 3597 1613 
L 953 1613 
Q 991 1019 1311 708 
Q 1631 397 2203 397 
Q 2534 397 2845 478 
Q 3156 559 3463 722 
L 3463 178 
Q 3153 47 2828 -22 
Q 2503 -91 2169 -91 
Q 1331 -91 842 396 
Q 353 884 353 1716 
Q 353 2575 817 3079 
Q 1281 3584 2069 3584 
Q 2775 3584 3186 3129 
Q 3597 2675 3597 1894 
z
M 3022 2063 
Q 3016 2534 2758 2815 
Q 2500 3097 2075 3097 
Q 1594 3097 1305 2825 
Q 1016 2553 972 2059 
L 3022 2063 
z
" transform="scale(0.015625)"/>
       <path id="DejaVuSans-64" d="M 2906 2969 
L 2906 4863 
L 3481 4863 
L 3481 0 
L 2906 0 
L 2906 525 
Q 2725 213 2448 61 
Q 2172 -91 1784 -91 
Q 1150 -91 751 415 
Q 353 922 353 1747 
Q 353 2572 751 3078 
Q 1150 3584 1784 3584 
Q 2172 3584 2448 3432 
Q 2725 3281 2906 2969 
z
M 947 1747 
Q 947 1113 1208 752 
Q 1469 391 1925 391 
Q 2381 391 2643 752 
Q 2906 1113 2906 1747 
Q 2906 2381 2643 2742 
Q 2381 3103 1925 3103 
Q 1469 3103 1208 2742 
Q 947 2381 947 1747 
z
" transform="scale(0.015625)"/>
       <path id="DejaVuSans-69" d="M 603 3500 
L 1178 3500 
L 1178 0 
L 603 0 
L 603 3500 
z
M 603 4863 
L 1178 4863 
L 1178 4134 
L 603 4134 
L 603 4863 
z
" transform="scale(0.015625)"/>
       <path id="DejaVuSans-63" d="M 3122 3366 
L 3122 2828 
Q 2878 2963 2633 3030 
Q 2388 3097 2138 3097 
Q 1578 3097 1268 2742 
Q 959 2388 959 1747 
Q 959 1106 1268 751 
Q 1578 397 2138 397 
Q 2388 397 2633 464 
Q 2878 531 3122 666 
L 3122 134 
Q 2881 22 2623 -34 
Q 2366 -91 2075 -91 
Q 1284 -91 818 406 
Q 353 903 353 1747 
Q 353 2603 823 3093 
Q 1294 3584 2113 3584 
Q 2378 3584 2631 3529 
Q 2884 3475 3122 3366 
z
" transform="scale(0.015625)"/>
       <path id="DejaVuSans-74" d="M 1172 4494 
L 1172 3500 
L 2356 3500 
L 2356 3053 
L 1172 3053 
L 1172 1153 
Q 1172 725 1289 603 
Q 1406 481 1766 481 
L 2356 481 
L 2356 0 
L 1766 0 
Q 1100 0 847 248 
Q 594 497 594 1153 
L 594 3053 
L 172 3053 
L 172 3500 
L 594 3500 
L 594 4494 
L 1172 4494 
z
" transform="scale(0.015625)"/>
       <path id="DejaVuSans-20" transform="scale(0.015625)"/>
       <path id="DejaVuSans-70" d="M 1159 525 
L 1159 -1331 
L 581 -1331 
L 581 3500 
L 1159 3500 
L 1159 2969 
Q 1341 3281 1617 3432 
Q 1894 3584 2278 3584 
Q 2916 3584 3314 3078 
Q 3713 2572 3713 1747 
Q 3713 922 3314 415 
Q 2916 -91 2278 -91 
Q 1894 -91 1617 61 
Q 1341 213 1159 525 
z
M 3116 1747 
Q 3116 2381 2855 2742 
Q 2594 3103 2138 3103 
Q 1681 3103 1420 2742 
Q 1159 2381 1159 1747 
Q 1159 1113 1420 752 
Q 1681 391 2138 391 
Q 2594 391 2855 752 
Q 3116 1113 3116 1747 
z
" transform="scale(0.015625)"/>
       <path id="DejaVuSans-6f" d="M 1959 3097 
Q 1497 3097 1228 2736 
Q 959 2375 959 1747 
Q 959 1119 1226 758 
Q 1494 397 1959 397 
Q 2419 397 2687 759 
Q 2956 1122 2956 1747 
Q 2956 2369 2687 2733 
Q 2419 3097 1959 3097 
z
M 1959 3584 
Q 2709 3584 3137 3096 
Q 3566 2609 3566 1747 
Q 3566 888 3137 398 
Q 2709 -91 1959 -91 
Q 1206 -91 779 398 
Q 353 888 353 1747 
Q 353 2609 779 3096 
Q 1206 3584 1959 3584 
z
" transform="scale(0.015625)"/>
       <path id="DejaVuSans-62" d="M 3116 1747 
Q 3116 2381 2855 2742 
Q 2594 3103 2138 3103 
Q 1681 3103 1420 2742 
Q 1159 2381 1159 1747 
Q 1159 1113 1420 752 
Q 1681 391 2138 391 
Q 2594 391 2855 752 
Q 3116 1113 3116 1747 
z
M 1159 2969 
Q 1341 3281 1617 3432 
Q 1894 3584 2278 3584 
Q 2916 3584 3314 3078 
Q 3713 2572 3713 1747 
Q 3713 922 3314 415 
Q 2916 -91 2278 -91 
Q 1894 -91 1617 61 
Q 1341 213 1159 525 
L 1159 0 
L 581 0 
L 581 4863 
L 1159 4863 
L 1159 2969 
z
" transform="scale(0.015625)"/>
       <path id="DejaVuSans-61" d="M 2194 1759 
Q 1497 1759 1228 1600 
Q 959 1441 959 1056 
Q 959 750 1161 570 
Q 1363 391 1709 391 
Q 2188 391 2477 730 
Q 2766 1069 2766 1631 
L 2766 1759 
L 2194 1759 
z
M 3341 1997 
L 3341 0 
L 2766 0 
L 2766 531 
Q 2569 213 2275 61 
Q 1981 -91 1556 -91 
Q 1019 -91 701 211 
Q 384 513 384 1019 
Q 384 1609 779 1909 
Q 1175 2209 1959 2209 
L 2766 2209 
L 2766 2266 
Q 2766 2663 2505 2880 
Q 2244 3097 1772 3097 
Q 1472 3097 1187 3025 
Q 903 2953 641 2809 
L 641 3341 
Q 956 3463 1253 3523 
Q 1550 3584 1831 3584 
Q 2591 3584 2966 3190 
Q 3341 2797 3341 1997 
z
" transform="scale(0.015625)"/>
       <path id="DejaVuSans-6c" d="M 603 4863 
L 1178 4863 
L 1178 0 
L 603 0 
L 603 4863 
z
" transform="scale(0.015625)"/>
       <path id="DejaVuSans-79" d="M 2059 -325 
Q 1816 -950 1584 -1140 
Q 1353 -1331 966 -1331 
L 506 -1331 
L 506 -850 
L 844 -850 
Q 1081 -850 1212 -737 
Q 1344 -625 1503 -206 
L 1606 56 
L 191 3500 
L 800 3500 
L 1894 763 
L 2988 3500 
L 3597 3500 
L 2059 -325 
z
" transform="scale(0.015625)"/>
      </defs>
      <use xlink:href="#DejaVuSans-50"/>
      <use xlink:href="#DejaVuSans-72" x="58.552734"/>
      <use xlink:href="#DejaVuSans-65" x="97.416016"/>
      <use xlink:href="#DejaVuSans-64" x="158.939453"/>
      <use xlink:href="#DejaVuSans-69" x="222.416016"/>
      <use xlink:href="#DejaVuSans-63" x="250.199219"/>
      <use xlink:href="#DejaVuSans-74" x="305.179688"/>
      <use xlink:href="#DejaVuSans-65" x="344.388672"/>
      <use xlink:href="#DejaVuSans-64" x="405.912109"/>
      <use xlink:href="#DejaVuSans-20" x="469.388672"/>
      <use xlink:href="#DejaVuSans-70" x="501.175781"/>
      <use xlink:href="#DejaVuSans-72" x="564.652344"/>
      <use xlink:href="#DejaVuSans-6f" x="603.515625"/>
      <use xlink:href="#DejaVuSans-62" x="664.697266"/>
      <use xlink:href="#DejaVuSans-61" x="728.173828"/>
      <use xlink:href="#DejaVuSans-62" x="789.453125"/>
      <use xlink:href="#DejaVuSans-69" x="852.929688"/>
      <use xlink:href="#DejaVuSans-6c" x="880.712891"/>
      <use xlink:href="#DejaVuSans-69" x="908.496094"/>
      <use xlink:href="#DejaVuSans-74" x="936.279297"/>
      <use xlink:href="#DejaVuSans-79" x="975.488281"/>
     </g>
    </g>
   </g>
   <g id="matplotlib.axis_2">
    <g id="ytick_1">
     <g id="line2d_13">
      <path d="M 57.6 307.584 
L 414.72 307.584 
" clip-path="url(#p06fe2b73cf)" style="fill: none; stroke: #ffffff; stroke-width: 0.8; stroke-linecap: square"/>
     </g>
     <g id="line2d_14">
      <defs>
       <path id="m860f4e9792" d="M 0 0 
L -3.5 0 
" style="stroke: #555555; stroke-width: 0.8"/>
      </defs>
      <g>
       <use xlink:href="#m860f4e9792" x="57.6" y="307.584" style="fill: #555555; stroke: #555555; stroke-width: 0.8"/>
      </g>
     </g>
     <g id="text_8">
      <!-- 0.0 -->
      <g style="fill: #555555" transform="translate(34.696875 311.383219)scale(0.1 -0.1)">
       <use xlink:href="#DejaVuSans-30"/>
       <use xlink:href="#DejaVuSans-2e" x="63.623047"/>
       <use xlink:href="#DejaVuSans-30" x="95.410156"/>
      </g>
     </g>
    </g>
    <g id="ytick_2">
     <g id="line2d_15">
      <path d="M 57.6 254.3616 
L 414.72 254.3616 
" clip-path="url(#p06fe2b73cf)" style="fill: none; stroke: #ffffff; stroke-width: 0.8; stroke-linecap: square"/>
     </g>
     <g id="line2d_16">
      <g>
       <use xlink:href="#m860f4e9792" x="57.6" y="254.3616" style="fill: #555555; stroke: #555555; stroke-width: 0.8"/>
      </g>
     </g>
     <g id="text_9">
      <!-- 0.2 -->
      <g style="fill: #555555" transform="translate(34.696875 258.160819)scale(0.1 -0.1)">
       <use xlink:href="#DejaVuSans-30"/>
       <use xlink:href="#DejaVuSans-2e" x="63.623047"/>
       <use xlink:href="#DejaVuSans-32" x="95.410156"/>
      </g>
     </g>
    </g>
    <g id="ytick_3">
     <g id="line2d_17">
      <path d="M 57.6 201.1392 
L 414.72 201.1392 
" clip-path="url(#p06fe2b73cf)" style="fill: none; stroke: #ffffff; stroke-width: 0.8; stroke-linecap: square"/>
     </g>
     <g id="line2d_18">
      <g>
       <use xlink:href="#m860f4e9792" x="57.6" y="201.1392" style="fill: #555555; stroke: #555555; stroke-width: 0.8"/>
      </g>
     </g>
     <g id="text_10">
      <!-- 0.4 -->
      <g style="fill: #555555" transform="translate(34.696875 204.938419)scale(0.1 -0.1)">
       <use xlink:href="#DejaVuSans-30"/>
       <use xlink:href="#DejaVuSans-2e" x="63.623047"/>
       <use xlink:href="#DejaVuSans-34" x="95.410156"/>
      </g>
     </g>
    </g>
    <g id="ytick_4">
     <g id="line2d_19">
      <path d="M 57.6 147.9168 
L 414.72 147.9168 
" clip-path="url(#p06fe2b73cf)" style="fill: none; stroke: #ffffff; stroke-width: 0.8; stroke-linecap: square"/>
     </g>
     <g id="line2d_20">
      <g>
       <use xlink:href="#m860f4e9792" x="57.6" y="147.9168" style="fill: #555555; stroke: #555555; stroke-width: 0.8"/>
      </g>
     </g>
     <g id="text_11">
      <!-- 0.6 -->
      <g style="fill: #555555" transform="translate(34.696875 151.716019)scale(0.1 -0.1)">
       <use xlink:href="#DejaVuSans-30"/>
       <use xlink:href="#DejaVuSans-2e" x="63.623047"/>
       <use xlink:href="#DejaVuSans-36" x="95.410156"/>
      </g>
     </g>
    </g>
    <g id="ytick_5">
     <g id="line2d_21">
      <path d="M 57.6 94.6944 
L 414.72 94.6944 
" clip-path="url(#p06fe2b73cf)" style="fill: none; stroke: #ffffff; stroke-width: 0.8; stroke-linecap: square"/>
     </g>
     <g id="line2d_22">
      <g>
       <use xlink:href="#m860f4e9792" x="57.6" y="94.6944" style="fill: #555555; stroke: #555555; stroke-width: 0.8"/>
      </g>
     </g>
     <g id="text_12">
      <!-- 0.8 -->
      <g style="fill: #555555" transform="translate(34.696875 98.493619)scale(0.1 -0.1)">
       <use xlink:href="#DejaVuSans-30"/>
       <use xlink:href="#DejaVuSans-2e" x="63.623047"/>
       <use xlink:href="#DejaVuSans-38" x="95.410156"/>
      </g>
     </g>
    </g>
    <g id="ytick_6">
     <g id="line2d_23">
      <path d="M 57.6 41.472 
L 414.72 41.472 
" clip-path="url(#p06fe2b73cf)" style="fill: none; stroke: #ffffff; stroke-width: 0.8; stroke-linecap: square"/>
     </g>
     <g id="line2d_24">
      <g>
       <use xlink:href="#m860f4e9792" x="57.6" y="41.472" style="fill: #555555; stroke: #555555; stroke-width: 0.8"/>
      </g>
     </g>
     <g id="text_13">
      <!-- 1.0 -->
      <g style="fill: #555555" transform="translate(34.696875 45.271219)scale(0.1 -0.1)">
       <use xlink:href="#DejaVuSans-31"/>
       <use xlink:href="#DejaVuSans-2e" x="63.623047"/>
       <use xlink:href="#DejaVuSans-30" x="95.410156"/>
      </g>
     </g>
    </g>
    <g id="text_14">
     <!-- Observed probability -->
     <g style="fill: #555555" transform="translate(28.20125 237.31425)rotate(-90)scale(0.12 -0.12)">
      <defs>
       <path id="DejaVuSans-4f" d="M 2522 4238 
Q 1834 4238 1429 3725 
Q 1025 3213 1025 2328 
Q 1025 1447 1429 934 
Q 1834 422 2522 422 
Q 3209 422 3611 934 
Q 4013 1447 4013 2328 
Q 4013 3213 3611 3725 
Q 3209 4238 2522 4238 
z
M 2522 4750 
Q 3503 4750 4090 4092 
Q 4678 3434 4678 2328 
Q 4678 1225 4090 567 
Q 3503 -91 2522 -91 
Q 1538 -91 948 565 
Q 359 1222 359 2328 
Q 359 3434 948 4092 
Q 1538 4750 2522 4750 
z
" transform="scale(0.015625)"/>
       <path id="DejaVuSans-73" d="M 2834 3397 
L 2834 2853 
Q 2591 2978 2328 3040 
Q 2066 3103 1784 3103 
Q 1356 3103 1142 2972 
Q 928 2841 928 2578 
Q 928 2378 1081 2264 
Q 1234 2150 1697 2047 
L 1894 2003 
Q 2506 1872 2764 1633 
Q 3022 1394 3022 966 
Q 3022 478 2636 193 
Q 2250 -91 1575 -91 
Q 1294 -91 989 -36 
Q 684 19 347 128 
L 347 722 
Q 666 556 975 473 
Q 1284 391 1588 391 
Q 1994 391 2212 530 
Q 2431 669 2431 922 
Q 2431 1156 2273 1281 
Q 2116 1406 1581 1522 
L 1381 1569 
Q 847 1681 609 1914 
Q 372 2147 372 2553 
Q 372 3047 722 3315 
Q 1072 3584 1716 3584 
Q 2034 3584 2315 3537 
Q 2597 3491 2834 3397 
z
" transform="scale(0.015625)"/>
       <path id="DejaVuSans-76" d="M 191 3500 
L 800 3500 
L 1894 563 
L 2988 3500 
L 3597 3500 
L 2284 0 
L 1503 0 
L 191 3500 
z
" transform="scale(0.015625)"/>
      </defs>
      <use xlink:href="#DejaVuSans-4f"/>
      <use xlink:href="#DejaVuSans-62" x="78.710938"/>
      <use xlink:href="#DejaVuSans-73" x="142.1875"/>
      <use xlink:href="#DejaVuSans-65" x="194.287109"/>
      <use xlink:href="#DejaVuSans-72" x="255.810547"/>
      <use xlink:href="#DejaVuSans-76" x="296.923828"/>
      <use xlink:href="#DejaVuSans-65" x="356.103516"/>
      <use xlink:href="#DejaVuSans-64" x="417.626953"/>
      <use xlink:href="#DejaVuSans-20" x="481.103516"/>
      <use xlink:href="#DejaVuSans-70" x="512.890625"/>
      <use xlink:href="#DejaVuSans-72" x="576.367188"/>
      <use xlink:href="#DejaVuSans-6f" x="615.230469"/>
      <use xlink:href="#DejaVuSans-62" x="676.412109"/>
      <use xlink:href="#DejaVuSans-61" x="739.888672"/>
      <use xlink:href="#DejaVuSans-62" x="801.167969"/>
      <use xlink:href="#DejaVuSans-69" x="864.644531"/>
      <use xlink:href="#DejaVuSans-6c" x="892.427734"/>
      <use xlink:href="#DejaVuSans-69" x="920.210938"/>
      <use xlink:href="#DejaVuSans-74" x="947.994141"/>
      <use xlink:href="#DejaVuSans-79" x="987.203125"/>
     </g>
    </g>
   </g>
   <g id="line2d_25">
    <path d="M 103.483404 307.317888 
L 103.513455 307.051776 
L 104.44391 306.25344 
L 104.497307 305.987328 
L 106.104534 305.455104 
L 107.782123 305.188992 
L 107.829419 304.92288 
L 110.18243 304.656768 
L 112.628647 303.060096 
L 112.925079 302.793984 
L 114.595607 302.527872 
L 115.554979 302.26176 
L 121.877765 301.197312 
L 122.817985 300.9312 
L 122.913445 300.665088 
L 123.467711 300.132864 
L 125.022491 299.866752 
L 126.96221 298.536192 
L 127.817956 298.003968 
L 128.869924 297.737856 
L 130.395006 296.93952 
L 130.957987 296.407296 
L 132.786727 295.60896 
L 133.032274 295.342848 
L 133.143611 294.810624 
L 133.494703 294.544512 
L 135.476317 294.012288 
L 135.816415 293.213952 
L 136.622631 292.94784 
L 136.659146 292.681728 
L 137.558958 291.883392 
L 137.658838 291.61728 
L 137.877404 291.351168 
L 140.184514 290.552832 
L 140.594544 290.28672 
L 140.724759 290.020608 
L 141.382433 289.754496 
L 142.011323 289.222272 
L 142.281672 288.95616 
L 144.234719 288.423936 
L 145.224379 287.6256 
L 145.542667 287.359488 
L 146.446596 286.827264 
L 146.559982 286.561152 
L 147.322405 286.29504 
L 147.322963 286.028928 
L 147.884377 285.762816 
L 147.977693 285.496704 
L 148.292371 285.230592 
L 149.149281 284.96448 
L 149.368724 284.698368 
L 150.360457 284.432256 
L 150.41702 284.166144 
L 151.414728 283.900032 
L 151.862641 283.63392 
L 152.599949 283.367808 
L 152.713793 283.101696 
L 153.409437 282.569472 
L 157.144368 281.238912 
L 157.683956 280.9728 
L 158.484568 280.706688 
L 160.042888 279.110016 
L 160.499253 278.843904 
L 160.513991 278.577792 
L 162.536039 278.31168 
L 162.655119 278.045568 
L 163.784963 276.98112 
L 165.754166 276.448896 
L 166.270124 276.182784 
L 166.400584 275.916672 
L 167.378392 275.65056 
L 167.438764 275.384448 
L 167.759445 275.118336 
L 168.654331 274.852224 
L 169.140625 274.586112 
L 169.905605 274.32 
L 169.954429 274.053888 
L 170.32282 273.787776 
L 171.37456 273.521664 
L 171.427302 272.98944 
L 172.046458 272.723328 
L 172.141623 272.191104 
L 172.272251 271.924992 
L 172.876316 271.65888 
L 174.651449 271.392768 
L 175.266415 271.126656 
L 178.003022 270.860544 
L 178.813044 270.32832 
L 179.258735 269.529984 
L 179.990882 269.263872 
L 180.244026 268.99776 
L 180.69576 268.731648 
L 181.521618 268.465536 
L 181.67731 268.199424 
L 182.176471 267.933312 
L 183.673567 267.401088 
L 183.749412 267.134976 
L 185.65723 266.868864 
L 185.978385 266.33664 
L 186.312411 266.070528 
L 188.566167 265.538304 
L 188.739457 264.739968 
L 189.060281 264.473856 
L 189.178905 264.207744 
L 190.045351 263.941632 
L 190.111127 263.67552 
L 190.624553 263.409408 
L 190.818385 263.143296 
L 191.835216 262.877184 
L 193.426828 262.611072 
L 193.664574 262.34496 
L 195.82969 261.280512 
L 195.926332 261.0144 
L 196.92321 260.748288 
L 197.082768 260.216064 
L 197.098164 259.949952 
L 197.59619 259.68384 
L 198.752463 259.417728 
L 198.894828 259.151616 
L 199.757857 258.619392 
L 199.823215 258.35328 
L 200.512995 257.821056 
L 202.642862 257.554944 
L 202.707339 257.288832 
L 203.156941 256.756608 
L 203.860923 256.490496 
L 205.065542 256.224384 
L 205.648709 255.958272 
L 205.967386 255.426048 
L 206.158941 254.893824 
L 208.283037 254.3616 
L 208.345295 254.095488 
L 209.142083 253.563264 
L 210.015669 253.297152 
L 210.564742 252.232704 
L 211.994895 251.70048 
L 212.827828 251.168256 
L 212.974555 250.902144 
L 214.327968 250.36992 
L 215.171155 248.773248 
L 216.242255 248.507136 
L 216.541617 248.241024 
L 217.598099 247.974912 
L 217.635127 247.7088 
L 218.51901 247.442688 
L 218.639873 247.176576 
L 219.130211 246.644352 
L 219.198024 246.37824 
L 221.129604 245.846016 
L 222.31315 245.579904 
L 222.590885 245.313792 
L 223.282151 245.04768 
L 223.87953 244.515456 
L 224.390491 244.249344 
L 224.604827 243.983232 
L 225.021591 243.71712 
L 225.048664 243.451008 
L 225.318667 243.184896 
L 225.400484 242.918784 
L 226.032238 242.652672 
L 226.744362 242.120448 
L 226.794901 241.854336 
L 227.36772 241.588224 
L 228.25801 241.322112 
L 228.311227 240.789888 
L 228.477615 240.523776 
L 228.638079 239.991552 
L 229.587654 239.193216 
L 230.932722 238.660992 
L 231.211566 238.39488 
L 231.887868 238.128768 
L 232.104446 237.330432 
L 232.369591 236.798208 
L 232.890052 236.532096 
L 232.938339 236.265984 
L 233.574574 235.999872 
L 233.82479 235.73376 
L 233.873807 235.467648 
L 234.519661 235.201536 
L 234.56337 234.935424 
L 236.795545 234.137088 
L 236.942063 233.870976 
L 238.058039 232.806528 
L 238.180507 232.274304 
L 239.496017 232.008192 
L 240.243909 231.209856 
L 240.596185 230.943744 
L 240.690945 230.677632 
L 242.077279 230.145408 
L 242.08461 229.879296 
L 242.22876 229.613184 
L 242.969191 229.347072 
L 242.985644 229.08096 
L 245.011331 228.282624 
L 245.240524 227.484288 
L 245.861031 226.952064 
L 245.876025 226.685952 
L 246.005448 226.41984 
L 247.537412 225.887616 
L 247.979948 225.355392 
L 248.352094 225.08928 
L 249.410319 224.823168 
L 249.431373 224.557056 
L 250.160361 224.290944 
L 250.823325 223.75872 
L 252.100609 223.492608 
L 252.125 223.226496 
L 252.456352 222.960384 
L 254.138563 222.694272 
L 254.535634 222.162048 
L 254.897277 221.629824 
L 254.919595 221.363712 
L 256.325519 220.831488 
L 256.327816 220.565376 
L 256.455246 220.299264 
L 257.231222 219.500928 
L 257.397685 218.968704 
L 257.565707 218.170368 
L 257.681546 217.372032 
L 258.294566 216.573696 
L 259.388199 216.307584 
L 259.52422 216.041472 
L 259.921136 215.77536 
L 260.071074 215.243136 
L 260.458003 214.977024 
L 260.506555 214.710912 
L 260.769386 214.4448 
L 260.777649 214.178688 
L 261.241702 213.912576 
L 261.457098 213.646464 
L 262.021748 213.380352 
L 262.205038 213.11424 
L 262.239785 212.582016 
L 263.580217 212.315904 
L 263.830001 212.049792 
L 263.89312 211.78368 
L 265.031649 210.985344 
L 265.369116 210.719232 
L 265.494763 210.45312 
L 266.235439 210.187008 
L 266.337161 209.920896 
L 266.569996 209.654784 
L 266.602332 209.388672 
L 266.890875 209.12256 
L 267.585928 208.856448 
L 267.868982 208.590336 
L 268.099745 208.058112 
L 268.341347 207.792 
L 268.407739 207.259776 
L 268.654773 206.993664 
L 269.804279 206.46144 
L 269.838528 206.195328 
L 270.251335 205.663104 
L 270.835047 205.396992 
L 271.034695 205.13088 
L 271.492985 204.864768 
L 271.992201 204.066432 
L 272.616786 203.80032 
L 272.663186 203.534208 
L 273.246997 203.268096 
L 273.261074 203.001984 
L 273.746607 202.46976 
L 273.78995 202.203648 
L 274.238623 201.937536 
L 274.934843 201.671424 
L 276.062844 200.074752 
L 277.905488 199.542528 
L 278.072794 199.276416 
L 278.488533 199.010304 
L 278.671634 198.744192 
L 279.178124 198.47808 
L 279.231362 198.211968 
L 279.414535 197.945856 
L 279.886448 197.679744 
L 280.684936 197.413632 
L 280.873299 197.14752 
L 281.332161 196.881408 
L 281.473191 196.615296 
L 281.915706 196.083072 
L 282.293985 195.550848 
L 282.432421 195.018624 
L 283.290225 194.220288 
L 283.404746 193.688064 
L 283.709597 193.15584 
L 284.943992 192.623616 
L 285.123337 192.357504 
L 285.72077 192.091392 
L 286.125879 191.559168 
L 286.190839 191.293056 
L 287.102379 191.026944 
L 287.147062 190.760832 
L 287.352442 190.49472 
L 288.885871 189.962496 
L 289.607962 188.631936 
L 289.903255 188.365824 
L 290.162897 187.567488 
L 290.44312 187.301376 
L 290.473678 187.035264 
L 290.8197 186.769152 
L 290.872881 186.50304 
L 291.086571 186.236928 
L 292.636165 185.704704 
L 292.844469 185.17248 
L 293.304098 184.640256 
L 294.502951 184.374144 
L 294.901985 184.108032 
L 295.040188 183.575808 
L 295.597081 183.043584 
L 295.612149 182.777472 
L 296.105126 182.51136 
L 296.35878 182.245248 
L 296.404851 181.446912 
L 296.707224 181.1808 
L 296.901742 180.648576 
L 297.166637 180.382464 
L 297.272346 179.85024 
L 298.038776 179.584128 
L 298.084144 179.318016 
L 298.397826 178.785792 
L 298.469761 178.51968 
L 298.930778 177.987456 
L 299.213406 177.455232 
L 299.810563 177.18912 
L 299.867151 176.923008 
L 300.287509 176.656896 
L 300.537737 176.124672 
L 301.420144 175.85856 
L 302.081714 174.528 
L 302.493152 173.995776 
L 302.591492 173.19744 
L 303.708323 172.931328 
L 304.289502 172.132992 
L 304.498303 171.86688 
L 304.537808 171.600768 
L 304.711606 171.334656 
L 305.393891 171.068544 
L 305.912467 170.270208 
L 306.344219 169.737984 
L 306.356821 169.471872 
L 307.207608 169.20576 
L 307.345555 168.939648 
L 307.659939 168.673536 
L 307.764005 168.407424 
L 308.236231 168.141312 
L 308.506095 167.076864 
L 308.651291 166.810752 
L 308.668452 166.54464 
L 309.720596 166.278528 
L 310.286033 165.21408 
L 310.552861 164.947968 
L 310.763518 164.415744 
L 311.19589 163.617408 
L 311.630872 163.351296 
L 311.638393 163.085184 
L 312.14718 162.55296 
L 312.209806 161.754624 
L 312.425614 161.488512 
L 312.988073 158.827392 
L 313.007823 158.56128 
L 313.237565 158.295168 
L 313.283789 158.029056 
L 314.019539 156.964608 
L 314.06341 156.432384 
L 314.69132 154.835712 
L 314.900241 154.037376 
L 315.357861 153.23904 
L 315.481201 152.972928 
L 315.995366 152.440704 
L 316.232938 151.90848 
L 316.361691 151.110144 
L 316.82717 150.311808 
L 316.974241 149.24736 
L 317.213345 148.981248 
L 317.608163 148.715136 
L 317.856142 148.182912 
L 317.987339 147.650688 
L 318.31463 147.384576 
L 318.607105 146.320128 
L 319.278195 146.054016 
L 319.287128 145.787904 
L 319.708128 145.521792 
L 320.010496 144.989568 
L 320.246099 144.191232 
L 320.773986 143.659008 
L 320.853041 143.392896 
L 321.489525 143.126784 
L 321.593237 142.59456 
L 321.748549 141.796224 
L 321.838178 141.530112 
L 322.098362 141.264 
L 322.24834 140.731776 
L 322.398117 140.199552 
L 322.969573 139.135104 
L 324.006446 138.070656 
L 324.02188 137.804544 
L 324.28647 137.538432 
L 324.377879 136.740096 
L 324.574559 136.473984 
L 324.785075 135.675648 
L 325.149536 134.345088 
L 325.374007 133.812864 
L 325.514784 133.546752 
L 326.290566 132.748416 
L 326.460523 131.683968 
L 327.22634 131.417856 
L 328.339606 129.555072 
L 328.730999 127.9584 
L 329.053734 127.692288 
L 329.091938 127.426176 
L 329.290543 127.160064 
L 329.301967 126.893952 
L 329.47129 126.62784 
L 329.690714 124.765056 
L 330.094043 124.498944 
L 330.118727 124.232832 
L 330.403899 123.96672 
L 330.497644 123.700608 
L 330.724218 123.434496 
L 331.0059 122.370048 
L 331.446432 121.3056 
L 331.832218 121.039488 
L 331.842592 120.773376 
L 332.110292 120.507264 
L 332.301177 119.176704 
L 333.019367 118.910592 
L 333.389694 117.846144 
L 333.485297 117.31392 
L 333.995063 117.047808 
L 334.102111 116.515584 
L 334.428997 116.249472 
L 334.628122 115.451136 
L 335.152562 115.185024 
L 335.275784 114.386688 
L 335.914575 113.854464 
L 336.747221 111.99168 
L 336.996424 111.725568 
L 337.3025 110.128896 
L 337.748222 109.064448 
L 338.014325 107.733888 
L 338.259601 107.467776 
L 338.329081 106.935552 
L 338.543645 106.66944 
L 338.569684 106.403328 
L 338.90837 105.871104 
L 339.356102 105.604992 
L 339.376097 105.33888 
L 339.951182 104.274432 
L 340.196061 102.943872 
L 340.850001 102.67776 
L 341.003661 102.411648 
L 341.071557 101.879424 
L 341.636568 101.613312 
L 341.663549 101.3472 
L 342.67023 99.484416 
L 342.682156 99.218304 
L 342.916414 98.68608 
L 343.088191 98.153856 
L 343.331462 97.887744 
L 343.512456 97.35552 
L 343.777534 97.089408 
L 343.838722 96.557184 
L 344.415611 95.758848 
L 344.419547 95.492736 
L 344.568691 95.226624 
L 344.590077 94.960512 
L 344.838477 94.428288 
L 344.929863 93.896064 
L 344.967234 93.36384 
L 345.136701 93.097728 
L 345.493515 92.831616 
L 345.495705 92.565504 
L 346.055127 91.234944 
L 346.109287 90.968832 
L 346.392108 90.70272 
L 346.453849 90.170496 
L 346.907548 89.904384 
L 347.192548 88.573824 
L 347.204376 88.307712 
L 347.699649 87.243264 
L 347.804514 86.71104 
L 348.194796 85.912704 
L 348.337025 84.848256 
L 348.639666 83.783808 
L 348.702329 83.251584 
L 349.05571 82.453248 
L 349.615154 81.921024 
L 349.873982 81.654912 
L 350.815342 81.3888 
L 350.83444 81.122688 
L 351.251442 80.590464 
L 351.36423 79.792128 
L 351.536711 79.526016 
L 351.892881 79.259904 
L 352.116722 77.663232 
L 352.447187 77.131008 
L 353.141867 76.864896 
L 353.307028 76.598784 
L 353.360161 76.06656 
L 353.553147 75.800448 
L 353.56055 75.534336 
L 353.904766 74.736 
L 354.232152 74.203776 
L 354.501219 73.671552 
L 354.663771 72.873216 
L 355.55146 71.542656 
L 355.916029 71.010432 
L 356.321655 70.74432 
L 356.451499 70.212096 
L 357.041821 69.945984 
L 357.569066 68.881536 
L 358.345018 68.349312 
L 358.527777 67.817088 
L 358.576701 67.550976 
L 359.823783 67.018752 
L 359.943814 66.486528 
L 361.386238 65.688192 
L 361.608886 65.42208 
L 362.511787 65.155968 
L 362.631453 64.889856 
L 363.843991 64.09152 
L 364.40592 63.825408 
L 365.435225 63.559296 
L 365.514726 63.293184 
L 365.825619 63.027072 
L 366.246324 62.228736 
L 366.478808 61.962624 
L 366.97791 61.696512 
L 367.287683 61.164288 
L 367.311338 60.898176 
L 367.796263 60.632064 
L 367.877168 60.09984 
L 368.256722 59.833728 
L 368.475777 59.035392 
L 368.669488 58.76928 
L 368.792655 57.43872 
L 369.191984 53.713152 
L 369.21548 48.1248 
L 369.216 41.472 
L 369.216 41.472 
" clip-path="url(#p06fe2b73cf)" style="fill: none; stroke: #ff7f0e; stroke-width: 1.5; stroke-linecap: square"/>
   </g>
   <g id="line2d_26">
    <path d="M 103.104 307.584 
L 369.216 41.472 
" clip-path="url(#p06fe2b73cf)" style="fill: none; stroke-dasharray: 5.55,2.4; stroke-dashoffset: 0; stroke: #000000; stroke-opacity: 0.5; stroke-width: 1.5"/>
   </g>
   <g id="patch_3">
    <path d="M 57.6 307.584 
L 57.6 41.472 
" style="fill: none; stroke: #ffffff; stroke-linejoin: miter; stroke-linecap: square"/>
   </g>
   <g id="patch_4">
    <path d="M 414.72 307.584 
L 414.72 41.472 
" style="fill: none; stroke: #ffffff; stroke-linejoin: miter; stroke-linecap: square"/>
   </g>
   <g id="patch_5">
    <path d="M 57.6 307.584 
L 414.72 307.584 
" style="fill: none; stroke: #ffffff; stroke-linejoin: miter; stroke-linecap: square"/>
   </g>
   <g id="patch_6">
    <path d="M 57.6 41.472 
L 414.72 41.472 
" style="fill: none; stroke: #ffffff; stroke-linejoin: miter; stroke-linecap: square"/>
   </g>
   <g id="text_15">
    <!-- Calibration curve -->
    <g transform="translate(174.5235 35.472)scale(0.144 -0.144)">
     <defs>
      <path id="DejaVuSans-43" d="M 4122 4306 
L 4122 3641 
Q 3803 3938 3442 4084 
Q 3081 4231 2675 4231 
Q 1875 4231 1450 3742 
Q 1025 3253 1025 2328 
Q 1025 1406 1450 917 
Q 1875 428 2675 428 
Q 3081 428 3442 575 
Q 3803 722 4122 1019 
L 4122 359 
Q 3791 134 3420 21 
Q 3050 -91 2638 -91 
Q 1578 -91 968 557 
Q 359 1206 359 2328 
Q 359 3453 968 4101 
Q 1578 4750 2638 4750 
Q 3056 4750 3426 4639 
Q 3797 4528 4122 4306 
z
" transform="scale(0.015625)"/>
      <path id="DejaVuSans-6e" d="M 3513 2113 
L 3513 0 
L 2938 0 
L 2938 2094 
Q 2938 2591 2744 2837 
Q 2550 3084 2163 3084 
Q 1697 3084 1428 2787 
Q 1159 2491 1159 1978 
L 1159 0 
L 581 0 
L 581 3500 
L 1159 3500 
L 1159 2956 
Q 1366 3272 1645 3428 
Q 1925 3584 2291 3584 
Q 2894 3584 3203 3211 
Q 3513 2838 3513 2113 
z
" transform="scale(0.015625)"/>
      <path id="DejaVuSans-75" d="M 544 1381 
L 544 3500 
L 1119 3500 
L 1119 1403 
Q 1119 906 1312 657 
Q 1506 409 1894 409 
Q 2359 409 2629 706 
Q 2900 1003 2900 1516 
L 2900 3500 
L 3475 3500 
L 3475 0 
L 2900 0 
L 2900 538 
Q 2691 219 2414 64 
Q 2138 -91 1772 -91 
Q 1169 -91 856 284 
Q 544 659 544 1381 
z
M 1991 3584 
L 1991 3584 
z
" transform="scale(0.015625)"/>
     </defs>
     <use xlink:href="#DejaVuSans-43"/>
     <use xlink:href="#DejaVuSans-61" x="69.824219"/>
     <use xlink:href="#DejaVuSans-6c" x="131.103516"/>
     <use xlink:href="#DejaVuSans-69" x="158.886719"/>
     <use xlink:href="#DejaVuSans-62" x="186.669922"/>
     <use xlink:href="#DejaVuSans-72" x="250.146484"/>
     <use xlink:href="#DejaVuSans-61" x="291.259766"/>
     <use xlink:href="#DejaVuSans-74" x="352.539062"/>
     <use xlink:href="#DejaVuSans-69" x="391.748047"/>
     <use xlink:href="#DejaVuSans-6f" x="419.53125"/>
     <use xlink:href="#DejaVuSans-6e" x="480.712891"/>
     <use xlink:href="#DejaVuSans-20" x="544.091797"/>
     <use xlink:href="#DejaVuSans-63" x="575.878906"/>
     <use xlink:href="#DejaVuSans-75" x="630.859375"/>
     <use xlink:href="#DejaVuSans-72" x="694.238281"/>
     <use xlink:href="#DejaVuSans-76" x="735.351562"/>
     <use xlink:href="#DejaVuSans-65" x="794.53125"/>
    </g>
   </g>
   <g id="legend_1">
    <g id="patch_7">
     <path d="M 64.6 78.82825 
L 182.20625 78.82825 
Q 184.20625 78.82825 184.20625 76.82825 
L 184.20625 48.472 
Q 184.20625 46.472 182.20625 46.472 
L 64.6 46.472 
Q 62.6 46.472 62.6 48.472 
L 62.6 76.82825 
Q 62.6 78.82825 64.6 78.82825 
z
" style="fill: #e5e5e5; opacity: 0.8; stroke: #cccccc; stroke-width: 0.5; stroke-linejoin: miter"/>
    </g>
    <g id="line2d_27">
     <path d="M 66.6 54.570437 
L 76.6 54.570437 
L 86.6 54.570437 
" style="fill: none; stroke: #ff7f0e; stroke-width: 1.5; stroke-linecap: square"/>
    </g>
    <g id="text_16">
     <!-- Calibration curve -->
     <g transform="translate(94.6 58.070437)scale(0.1 -0.1)">
      <use xlink:href="#DejaVuSans-43"/>
      <use xlink:href="#DejaVuSans-61" x="69.824219"/>
      <use xlink:href="#DejaVuSans-6c" x="131.103516"/>
      <use xlink:href="#DejaVuSans-69" x="158.886719"/>
      <use xlink:href="#DejaVuSans-62" x="186.669922"/>
      <use xlink:href="#DejaVuSans-72" x="250.146484"/>
      <use xlink:href="#DejaVuSans-61" x="291.259766"/>
      <use xlink:href="#DejaVuSans-74" x="352.539062"/>
      <use xlink:href="#DejaVuSans-69" x="391.748047"/>
      <use xlink:href="#DejaVuSans-6f" x="419.53125"/>
      <use xlink:href="#DejaVuSans-6e" x="480.712891"/>
      <use xlink:href="#DejaVuSans-20" x="544.091797"/>
      <use xlink:href="#DejaVuSans-63" x="575.878906"/>
      <use xlink:href="#DejaVuSans-75" x="630.859375"/>
      <use xlink:href="#DejaVuSans-72" x="694.238281"/>
      <use xlink:href="#DejaVuSans-76" x="735.351562"/>
      <use xlink:href="#DejaVuSans-65" x="794.53125"/>
     </g>
    </g>
    <g id="line2d_28">
     <path d="M 66.6 69.248562 
L 76.6 69.248562 
L 86.6 69.248562 
" style="fill: none; stroke-dasharray: 5.55,2.4; stroke-dashoffset: 0; stroke: #000000; stroke-opacity: 0.5; stroke-width: 1.5"/>
    </g>
    <g id="text_17">
     <!-- Ideal curve -->
     <g transform="translate(94.6 72.748562)scale(0.1 -0.1)">
      <defs>
       <path id="DejaVuSans-49" d="M 628 4666 
L 1259 4666 
L 1259 0 
L 628 0 
L 628 4666 
z
" transform="scale(0.015625)"/>
      </defs>
      <use xlink:href="#DejaVuSans-49"/>
      <use xlink:href="#DejaVuSans-64" x="29.492188"/>
      <use xlink:href="#DejaVuSans-65" x="92.96875"/>
      <use xlink:href="#DejaVuSans-61" x="154.492188"/>
      <use xlink:href="#DejaVuSans-6c" x="215.771484"/>
      <use xlink:href="#DejaVuSans-20" x="243.554688"/>
      <use xlink:href="#DejaVuSans-63" x="275.341797"/>
      <use xlink:href="#DejaVuSans-75" x="330.322266"/>
      <use xlink:href="#DejaVuSans-72" x="393.701172"/>
      <use xlink:href="#DejaVuSans-76" x="434.814453"/>
      <use xlink:href="#DejaVuSans-65" x="493.994141"/>
     </g>
    </g>
   </g>
  </g>
 </g>
 <defs>
  <clipPath id="p06fe2b73cf">
   <rect x="57.6" y="41.472" width="357.12" height="266.112"/>
  </clipPath>
 </defs>
</svg>
