<?xml version="1.0" encoding="utf-8" standalone="no"?>
<!DOCTYPE svg PUBLIC "-//W3C//DTD SVG 1.1//EN"
  "http://www.w3.org/Graphics/SVG/1.1/DTD/svg11.dtd">
<svg xmlns:xlink="http://www.w3.org/1999/xlink" width="360pt" height="360pt" viewBox="0 0 360 360" xmlns="http://www.w3.org/2000/svg" version="1.1">
 <metadata>
  <rdf:RDF xmlns:dc="http://purl.org/dc/elements/1.1/" xmlns:cc="http://creativecommons.org/ns#" xmlns:rdf="http://www.w3.org/1999/02/22-rdf-syntax-ns#">
   <cc:Work>
    <dc:type rdf:resource="http://purl.org/dc/dcmitype/StillImage"/>
    <dc:date>2022-11-10T20:04:51.263805</dc:date>
    <dc:format>image/svg+xml</dc:format>
    <dc:creator>
     <cc:Agent>
      <dc:title>Matplotlib v3.5.3, https://matplotlib.org/</dc:title>
     </cc:Agent>
    </dc:creator>
   </cc:Work>
  </rdf:RDF>
 </metadata>
 <defs>
  <style type="text/css">*{stroke-linejoin: round; stroke-linecap: butt}</style>
 </defs>
 <g id="figure_1">
  <g id="patch_1">
   <path d="M 0 360 
L 360 360 
L 360 0 
L 0 0 
z
" style="fill: #ffffff"/>
  </g>
  <g id="axes_1">
   <g id="patch_2">
    <path d="M 45 320.4 
L 324 320.4 
L 324 43.2 
L 45 43.2 
z
" style="fill: #ffffff"/>
   </g>
   <g id="matplotlib.axis_1">
    <g id="xtick_1">
     <g id="line2d_1">
      <defs>
       <path id="m7d3f1f8372" d="M 0 0 
L 0 3.5 
" style="stroke: #000000; stroke-width: 0.8"/>
      </defs>
      <g>
       <use xlink:href="#m7d3f1f8372" x="83.045455" y="320.4" style="stroke: #000000; stroke-width: 0.8"/>
      </g>
     </g>
     <g id="text_1">
      <!-- −2 -->
      <g transform="translate(75.674361 334.998438)scale(0.1 -0.1)">
       <defs>
        <path id="DejaVuSans-2212" d="M 678 2272 
L 4684 2272 
L 4684 1741 
L 678 1741 
L 678 2272 
z
" transform="scale(0.015625)"/>
        <path id="DejaVuSans-32" d="M 1228 531 
L 3431 531 
L 3431 0 
L 469 0 
L 469 531 
Q 828 903 1448 1529 
Q 2069 2156 2228 2338 
Q 2531 2678 2651 2914 
Q 2772 3150 2772 3378 
Q 2772 3750 2511 3984 
Q 2250 4219 1831 4219 
Q 1534 4219 1204 4116 
Q 875 4013 500 3803 
L 500 4441 
Q 881 4594 1212 4672 
Q 1544 4750 1819 4750 
Q 2544 4750 2975 4387 
Q 3406 4025 3406 3419 
Q 3406 3131 3298 2873 
Q 3191 2616 2906 2266 
Q 2828 2175 2409 1742 
Q 1991 1309 1228 531 
z
" transform="scale(0.015625)"/>
       </defs>
       <use xlink:href="#DejaVuSans-2212"/>
       <use xlink:href="#DejaVuSans-32" x="83.789062"/>
      </g>
     </g>
    </g>
    <g id="xtick_2">
     <g id="line2d_2">
      <g>
       <use xlink:href="#m7d3f1f8372" x="133.772727" y="320.4" style="stroke: #000000; stroke-width: 0.8"/>
      </g>
     </g>
     <g id="text_2">
      <!-- −1 -->
      <g transform="translate(126.401634 334.998438)scale(0.1 -0.1)">
       <defs>
        <path id="DejaVuSans-31" d="M 794 531 
L 1825 531 
L 1825 4091 
L 703 3866 
L 703 4441 
L 1819 4666 
L 2450 4666 
L 2450 531 
L 3481 531 
L 3481 0 
L 794 0 
L 794 531 
z
" transform="scale(0.015625)"/>
       </defs>
       <use xlink:href="#DejaVuSans-2212"/>
       <use xlink:href="#DejaVuSans-31" x="83.789062"/>
      </g>
     </g>
    </g>
    <g id="xtick_3">
     <g id="line2d_3">
      <g>
       <use xlink:href="#m7d3f1f8372" x="184.5" y="320.4" style="stroke: #000000; stroke-width: 0.8"/>
      </g>
     </g>
     <g id="text_3">
      <!-- 0 -->
      <g transform="translate(181.31875 334.998438)scale(0.1 -0.1)">
       <defs>
        <path id="DejaVuSans-30" d="M 2034 4250 
Q 1547 4250 1301 3770 
Q 1056 3291 1056 2328 
Q 1056 1369 1301 889 
Q 1547 409 2034 409 
Q 2525 409 2770 889 
Q 3016 1369 3016 2328 
Q 3016 3291 2770 3770 
Q 2525 4250 2034 4250 
z
M 2034 4750 
Q 2819 4750 3233 4129 
Q 3647 3509 3647 2328 
Q 3647 1150 3233 529 
Q 2819 -91 2034 -91 
Q 1250 -91 836 529 
Q 422 1150 422 2328 
Q 422 3509 836 4129 
Q 1250 4750 2034 4750 
z
" transform="scale(0.015625)"/>
       </defs>
       <use xlink:href="#DejaVuSans-30"/>
      </g>
     </g>
    </g>
    <g id="xtick_4">
     <g id="line2d_4">
      <g>
       <use xlink:href="#m7d3f1f8372" x="235.227273" y="320.4" style="stroke: #000000; stroke-width: 0.8"/>
      </g>
     </g>
     <g id="text_4">
      <!-- 1 -->
      <g transform="translate(232.046023 334.998438)scale(0.1 -0.1)">
       <use xlink:href="#DejaVuSans-31"/>
      </g>
     </g>
    </g>
    <g id="xtick_5">
     <g id="line2d_5">
      <g>
       <use xlink:href="#m7d3f1f8372" x="285.954545" y="320.4" style="stroke: #000000; stroke-width: 0.8"/>
      </g>
     </g>
     <g id="text_5">
      <!-- 2 -->
      <g transform="translate(282.773295 334.998438)scale(0.1 -0.1)">
       <use xlink:href="#DejaVuSans-32"/>
      </g>
     </g>
    </g>
   </g>
   <g id="matplotlib.axis_2">
    <g id="ytick_1">
     <g id="line2d_6">
      <defs>
       <path id="m84a342b865" d="M 0 0 
L -3.5 0 
" style="stroke: #000000; stroke-width: 0.8"/>
      </defs>
      <g>
       <use xlink:href="#m84a342b865" x="45" y="297.95682" style="stroke: #000000; stroke-width: 0.8"/>
      </g>
     </g>
     <g id="text_6">
      <!-- −0.4 -->
      <g transform="translate(13.717187 301.756039)scale(0.1 -0.1)">
       <defs>
        <path id="DejaVuSans-2e" d="M 684 794 
L 1344 794 
L 1344 0 
L 684 0 
L 684 794 
z
" transform="scale(0.015625)"/>
        <path id="DejaVuSans-34" d="M 2419 4116 
L 825 1625 
L 2419 1625 
L 2419 4116 
z
M 2253 4666 
L 3047 4666 
L 3047 1625 
L 3713 1625 
L 3713 1100 
L 3047 1100 
L 3047 0 
L 2419 0 
L 2419 1100 
L 313 1100 
L 313 1709 
L 2253 4666 
z
" transform="scale(0.015625)"/>
       </defs>
       <use xlink:href="#DejaVuSans-2212"/>
       <use xlink:href="#DejaVuSans-30" x="83.789062"/>
       <use xlink:href="#DejaVuSans-2e" x="147.412109"/>
       <use xlink:href="#DejaVuSans-34" x="179.199219"/>
      </g>
     </g>
    </g>
    <g id="ytick_2">
     <g id="line2d_7">
      <g>
       <use xlink:href="#m84a342b865" x="45" y="261.654658" style="stroke: #000000; stroke-width: 0.8"/>
      </g>
     </g>
     <g id="text_7">
      <!-- −0.2 -->
      <g transform="translate(13.717187 265.453877)scale(0.1 -0.1)">
       <use xlink:href="#DejaVuSans-2212"/>
       <use xlink:href="#DejaVuSans-30" x="83.789062"/>
       <use xlink:href="#DejaVuSans-2e" x="147.412109"/>
       <use xlink:href="#DejaVuSans-32" x="179.199219"/>
      </g>
     </g>
    </g>
    <g id="ytick_3">
     <g id="line2d_8">
      <g>
       <use xlink:href="#m84a342b865" x="45" y="225.352496" style="stroke: #000000; stroke-width: 0.8"/>
      </g>
     </g>
     <g id="text_8">
      <!-- 0.0 -->
      <g transform="translate(22.096875 229.151715)scale(0.1 -0.1)">
       <use xlink:href="#DejaVuSans-30"/>
       <use xlink:href="#DejaVuSans-2e" x="63.623047"/>
       <use xlink:href="#DejaVuSans-30" x="95.410156"/>
      </g>
     </g>
    </g>
    <g id="ytick_4">
     <g id="line2d_9">
      <g>
       <use xlink:href="#m84a342b865" x="45" y="189.050334" style="stroke: #000000; stroke-width: 0.8"/>
      </g>
     </g>
     <g id="text_9">
      <!-- 0.2 -->
      <g transform="translate(22.096875 192.849552)scale(0.1 -0.1)">
       <use xlink:href="#DejaVuSans-30"/>
       <use xlink:href="#DejaVuSans-2e" x="63.623047"/>
       <use xlink:href="#DejaVuSans-32" x="95.410156"/>
      </g>
     </g>
    </g>
    <g id="ytick_5">
     <g id="line2d_10">
      <g>
       <use xlink:href="#m84a342b865" x="45" y="152.748171" style="stroke: #000000; stroke-width: 0.8"/>
      </g>
     </g>
     <g id="text_10">
      <!-- 0.4 -->
      <g transform="translate(22.096875 156.54739)scale(0.1 -0.1)">
       <use xlink:href="#DejaVuSans-30"/>
       <use xlink:href="#DejaVuSans-2e" x="63.623047"/>
       <use xlink:href="#DejaVuSans-34" x="95.410156"/>
      </g>
     </g>
    </g>
    <g id="ytick_6">
     <g id="line2d_11">
      <g>
       <use xlink:href="#m84a342b865" x="45" y="116.446009" style="stroke: #000000; stroke-width: 0.8"/>
      </g>
     </g>
     <g id="text_11">
      <!-- 0.6 -->
      <g transform="translate(22.096875 120.245228)scale(0.1 -0.1)">
       <defs>
        <path id="DejaVuSans-36" d="M 2113 2584 
Q 1688 2584 1439 2293 
Q 1191 2003 1191 1497 
Q 1191 994 1439 701 
Q 1688 409 2113 409 
Q 2538 409 2786 701 
Q 3034 994 3034 1497 
Q 3034 2003 2786 2293 
Q 2538 2584 2113 2584 
z
M 3366 4563 
L 3366 3988 
Q 3128 4100 2886 4159 
Q 2644 4219 2406 4219 
Q 1781 4219 1451 3797 
Q 1122 3375 1075 2522 
Q 1259 2794 1537 2939 
Q 1816 3084 2150 3084 
Q 2853 3084 3261 2657 
Q 3669 2231 3669 1497 
Q 3669 778 3244 343 
Q 2819 -91 2113 -91 
Q 1303 -91 875 529 
Q 447 1150 447 2328 
Q 447 3434 972 4092 
Q 1497 4750 2381 4750 
Q 2619 4750 2861 4703 
Q 3103 4656 3366 4563 
z
" transform="scale(0.015625)"/>
       </defs>
       <use xlink:href="#DejaVuSans-30"/>
       <use xlink:href="#DejaVuSans-2e" x="63.623047"/>
       <use xlink:href="#DejaVuSans-36" x="95.410156"/>
      </g>
     </g>
    </g>
    <g id="ytick_7">
     <g id="line2d_12">
      <g>
       <use xlink:href="#m84a342b865" x="45" y="80.143847" style="stroke: #000000; stroke-width: 0.8"/>
      </g>
     </g>
     <g id="text_12">
      <!-- 0.8 -->
      <g transform="translate(22.096875 83.943066)scale(0.1 -0.1)">
       <defs>
        <path id="DejaVuSans-38" d="M 2034 2216 
Q 1584 2216 1326 1975 
Q 1069 1734 1069 1313 
Q 1069 891 1326 650 
Q 1584 409 2034 409 
Q 2484 409 2743 651 
Q 3003 894 3003 1313 
Q 3003 1734 2745 1975 
Q 2488 2216 2034 2216 
z
M 1403 2484 
Q 997 2584 770 2862 
Q 544 3141 544 3541 
Q 544 4100 942 4425 
Q 1341 4750 2034 4750 
Q 2731 4750 3128 4425 
Q 3525 4100 3525 3541 
Q 3525 3141 3298 2862 
Q 3072 2584 2669 2484 
Q 3125 2378 3379 2068 
Q 3634 1759 3634 1313 
Q 3634 634 3220 271 
Q 2806 -91 2034 -91 
Q 1263 -91 848 271 
Q 434 634 434 1313 
Q 434 1759 690 2068 
Q 947 2378 1403 2484 
z
M 1172 3481 
Q 1172 3119 1398 2916 
Q 1625 2713 2034 2713 
Q 2441 2713 2670 2916 
Q 2900 3119 2900 3481 
Q 2900 3844 2670 4047 
Q 2441 4250 2034 4250 
Q 1625 4250 1398 4047 
Q 1172 3844 1172 3481 
z
" transform="scale(0.015625)"/>
       </defs>
       <use xlink:href="#DejaVuSans-30"/>
       <use xlink:href="#DejaVuSans-2e" x="63.623047"/>
       <use xlink:href="#DejaVuSans-38" x="95.410156"/>
      </g>
     </g>
    </g>
    <g id="ytick_8">
     <g id="line2d_13">
      <g>
       <use xlink:href="#m84a342b865" x="45" y="43.841685" style="stroke: #000000; stroke-width: 0.8"/>
      </g>
     </g>
     <g id="text_13">
      <!-- 1.0 -->
      <g transform="translate(22.096875 47.640903)scale(0.1 -0.1)">
       <use xlink:href="#DejaVuSans-31"/>
       <use xlink:href="#DejaVuSans-2e" x="63.623047"/>
       <use xlink:href="#DejaVuSans-30" x="95.410156"/>
      </g>
     </g>
    </g>
   </g>
   <g id="line2d_14">
    <path d="M 57.681818 231.697838 
L 60.852273 231.345904 
L 64.022727 230.806379 
L 67.193182 230.006188 
L 70.363636 228.85499 
L 73.534091 227.253889 
L 76.704545 225.113794 
L 79.875 222.396908 
L 83.045455 219.174697 
L 86.215909 215.675863 
L 89.386364 212.277773 
L 92.556818 209.40094 
L 95.727273 207.336277 
L 98.897727 206.131024 
L 102.068182 205.609333 
L 105.238636 205.500365 
L 108.409091 205.559281 
L 111.579545 205.622965 
L 114.75 205.606659 
L 117.920455 205.478996 
L 121.090909 205.238038 
L 124.261364 204.898377 
L 127.431818 204.486142 
L 130.602273 204.038855 
L 133.772727 203.608964 
L 136.943182 203.266049 
L 140.113636 203.095041 
L 143.284091 203.18843 
L 146.454545 203.632203 
L 149.625 204.48484 
L 152.795455 205.758054 
L 155.965909 207.406995 
L 159.136364 209.33528 
L 162.306818 211.415371 
L 165.477273 213.515294 
L 168.647727 215.520964 
L 171.818182 217.348006 
L 174.988636 218.941803 
L 178.159091 220.273099 
L 181.329545 221.33294 
L 184.5 222.130495 
L 187.670455 222.693557 
L 190.840909 223.067563 
L 194.011364 223.310817 
L 197.181818 223.485004 
L 200.352273 223.643925 
L 203.522727 223.825254 
L 206.693182 224.048195 
L 209.863636 224.317587 
L 213.034091 224.631768 
L 216.204545 224.990314 
L 219.375 225.398853 
L 222.545455 225.871478 
L 225.715909 226.429642 
L 228.886364 227.100889 
L 232.056818 227.9171 
L 235.227273 228.913554 
L 238.397727 230.127312 
L 241.568182 231.59753 
L 244.738636 233.363813 
L 247.909091 235.465135 
L 251.079545 237.935944 
L 254.25 240.802542 
L 257.420455 244.076268 
L 260.590909 247.745948 
L 263.761364 251.770748 
L 266.931818 256.074189 
L 270.102273 260.542269 
L 273.272727 265.029234 
L 276.443182 269.371312 
L 279.613636 273.404766 
L 282.784091 276.987774 
L 285.954545 280.017305 
L 289.125 282.441255 
L 292.295455 284.259486 
L 295.465909 285.512538 
L 298.636364 286.274118 
L 301.806818 286.631886 
L 304.977273 286.677273 
L 308.147727 286.493993 
L 311.318182 286.15589 
" clip-path="url(#p2938a48c25)" style="fill: none; stroke: #1f77b4; stroke-width: 1.5; stroke-linecap: square"/>
   </g>
   <g id="line2d_15">
    <path d="M 57.681818 203.827562 
L 60.852273 203.393578 
L 64.022727 202.664592 
L 67.193182 201.547624 
L 70.363636 199.940994 
L 73.534091 197.761732 
L 76.704545 194.998145 
L 79.875 191.791184 
L 83.045455 188.528294 
L 86.215909 185.881031 
L 89.386364 184.680219 
L 92.556818 185.588439 
L 95.727273 188.725259 
L 98.897727 193.542859 
L 102.068182 199.090131 
L 105.238636 204.452059 
L 108.409091 209.041232 
L 111.579545 212.638884 
L 114.75 215.278485 
L 117.920455 217.111291 
L 121.090909 218.311062 
L 124.261364 219.028882 
L 127.431818 219.379596 
L 130.602273 219.444951 
L 133.772727 219.283888 
L 136.943182 218.944694 
L 140.113636 218.475345 
L 143.284091 217.932756 
L 146.454545 217.385173 
L 149.625 216.908861 
L 152.795455 216.575297 
L 155.965909 216.43804 
L 159.136364 216.519238 
L 162.306818 216.80586 
L 165.477273 217.256595 
L 168.647727 217.813616 
L 171.818182 218.41676 
L 174.988636 219.011845 
L 178.159091 219.553946 
L 181.329545 220.00543 
L 184.5 220.332785 
L 187.670455 220.505254 
L 190.840909 220.496627 
L 194.011364 220.290941 
L 197.181818 219.889369 
L 200.352273 219.315743 
L 203.522727 218.616544 
L 206.693182 217.855463 
L 209.863636 217.104116 
L 213.034091 216.431527 
L 216.204545 215.89639 
L 219.375 215.542976 
L 222.545455 215.401175 
L 225.715909 215.490102 
L 228.886364 215.822934 
L 232.056818 216.41143 
L 235.227273 217.270268 
L 238.397727 218.420497 
L 241.568182 219.890628 
L 244.738636 221.717583 
L 247.909091 223.944578 
L 251.079545 226.617743 
L 254.25 229.779914 
L 257.420455 233.459564 
L 260.590909 237.658937 
L 263.761364 242.336332 
L 266.931818 247.391037 
L 270.102273 252.65279 
L 273.272727 257.883575 
L 276.443182 262.800699 
L 279.613636 267.114925 
L 282.784091 270.582993 
L 285.954545 273.056865 
L 289.125 274.505904 
L 292.295455 275.015828 
L 295.465909 274.758045 
L 298.636364 273.943356 
L 301.806818 272.78371 
L 304.977273 271.461936 
L 308.147727 270.116448 
L 311.318182 268.841515 
" clip-path="url(#p2938a48c25)" style="fill: none; stroke: #ff7f0e; stroke-width: 1.5; stroke-linecap: square"/>
   </g>
   <g id="line2d_16">
    <path d="M 57.681818 209.468573 
L 60.852273 209.626771 
L 64.022727 209.844655 
L 67.193182 210.147645 
L 70.363636 210.568993 
L 73.534091 211.152269 
L 76.704545 211.946365 
L 79.875 212.997394 
L 83.045455 214.33279 
L 86.215909 215.936138 
L 89.386364 217.730768 
L 92.556818 219.586901 
L 95.727273 221.361147 
L 98.897727 222.952231 
L 102.068182 224.330726 
L 105.238636 225.5308 
L 108.409091 226.6195 
L 111.579545 227.669001 
L 114.75 228.740383 
L 117.920455 229.877578 
L 121.090909 231.105219 
L 124.261364 232.425781 
L 127.431818 233.814934 
L 130.602273 235.215686 
L 133.772727 236.533608 
L 136.943182 237.634971 
L 140.113636 238.35769 
L 143.284091 238.53235 
L 146.454545 238.020253 
L 149.625 236.756975 
L 152.795455 234.787076 
L 155.965909 232.269145 
L 159.136364 229.442096 
L 162.306818 226.559434 
L 165.477273 223.821431 
L 168.647727 221.328694 
L 171.818182 219.075479 
L 174.988636 216.975232 
L 178.159091 214.905924 
L 181.329545 212.758836 
L 184.5 210.478028 
L 187.670455 208.082558 
L 190.840909 205.667113 
L 194.011364 203.380111 
L 197.181818 201.385999 
L 200.352273 199.824284 
L 203.522727 198.777669 
L 206.693182 198.25878 
L 209.863636 198.21516 
L 213.034091 198.546911 
L 216.204545 199.128456 
L 219.375 199.82733 
L 222.545455 200.517372 
L 225.715909 201.08484 
L 228.886364 201.429054 
L 232.056818 201.461112 
L 235.227273 201.099406 
L 238.397727 200.268049 
L 241.568182 198.893764 
L 244.738636 196.907365 
L 247.909091 194.247857 
L 251.079545 190.87162 
L 254.25 186.765056 
L 257.420455 181.963391 
L 260.590909 176.573421 
L 263.761364 170.7925 
L 266.931818 164.923245 
L 270.102273 159.369227 
L 273.272727 154.605437 
L 276.443182 151.118276 
L 279.613636 149.325802 
L 282.784091 149.497658 
L 285.954545 151.697683 
L 289.125 155.77199 
L 292.295455 161.39016 
L 295.465909 168.113934 
L 298.636364 175.478325 
L 301.806818 183.056878 
L 304.977273 190.505154 
L 308.147727 197.573817 
L 311.318182 204.105447 
" clip-path="url(#p2938a48c25)" style="fill: none; stroke: #2ca02c; stroke-width: 1.5; stroke-linecap: square"/>
   </g>
   <g id="line2d_17">
    <path d="M 57.681818 211.015631 
L 60.852273 211.160933 
L 64.022727 211.367911 
L 67.193182 211.660947 
L 70.363636 212.072775 
L 73.534091 212.641337 
L 76.704545 213.409381 
L 79.875 214.415923 
L 83.045455 215.6813 
L 86.215909 217.190653 
L 89.386364 218.878219 
L 92.556818 220.630231 
L 95.727273 222.309487 
L 98.897727 223.790478 
L 102.068182 224.98873 
L 105.238636 225.867137 
L 108.409091 226.425885 
L 111.579545 226.686733 
L 114.75 226.679688 
L 117.920455 226.436912 
L 121.090909 225.989962 
L 124.261364 225.370308 
L 127.431818 224.614379 
L 130.602273 223.767832 
L 133.772727 222.889606 
L 136.943182 222.054388 
L 140.113636 221.349187 
L 143.284091 220.863722 
L 146.454545 220.674461 
L 149.625 220.824 
L 152.795455 221.306916 
L 155.965909 222.067194 
L 159.136364 223.013903 
L 162.306818 224.050707 
L 165.477273 225.105633 
L 168.647727 226.151711 
L 171.818182 227.209011 
L 174.988636 228.332857 
L 178.159091 229.592337 
L 181.329545 231.047127 
L 184.5 232.728261 
L 187.670455 234.62566 
L 190.840909 236.684701 
L 194.011364 238.81266 
L 197.181818 240.893027 
L 200.352273 242.804954 
L 203.522727 244.442613 
L 206.693182 245.730457 
L 209.863636 246.63098 
L 213.034091 247.145223 
L 216.204545 247.306736 
L 219.375 247.171734 
L 222.545455 246.808102 
L 225.715909 246.285632 
L 228.886364 245.668004 
L 232.056818 245.008 
L 235.227273 244.344317 
L 238.397727 243.700429 
L 241.568182 243.084765 
L 244.738636 242.491146 
L 247.909091 241.899171 
L 251.079545 241.278201 
L 254.25 240.588588 
L 257.420455 239.788181 
L 260.590909 238.83984 
L 263.761364 237.719869 
L 266.931818 236.427955 
L 270.102273 234.994635 
L 273.272727 233.482396 
L 276.443182 231.977082 
L 279.613636 230.574089 
L 282.784091 229.356281 
L 285.954545 228.375726 
L 289.125 227.642292 
L 292.295455 227.127451 
L 295.465909 226.774807 
L 298.636364 226.517508 
L 301.806818 226.293999 
L 304.977273 226.058614 
L 308.147727 225.782205 
L 311.318182 225.456565 
" clip-path="url(#p2938a48c25)" style="fill: none; stroke: #d62728; stroke-width: 1.5; stroke-linecap: square"/>
   </g>
   <g id="line2d_18">
    <path d="M 57.681818 230.5059 
L 60.852273 230.90696 
L 64.022727 231.462566 
L 67.193182 232.220295 
L 70.363636 233.230624 
L 73.534091 234.530111 
L 76.704545 236.115283 
L 79.875 237.897928 
L 83.045455 239.660455 
L 86.215909 241.045699 
L 89.386364 241.631118 
L 92.556818 241.105452 
L 95.727273 239.453961 
L 98.897727 236.997656 
L 102.068182 234.243553 
L 105.238636 231.659483 
L 108.409091 229.533589 
L 111.579545 227.966997 
L 114.75 226.936831 
L 117.920455 226.364901 
L 121.090909 226.163757 
L 124.261364 226.25789 
L 127.431818 226.587485 
L 130.602273 227.10429 
L 133.772727 227.762693 
L 136.943182 228.512658 
L 140.113636 229.292241 
L 143.284091 230.026368 
L 146.454545 230.631213 
L 149.625 231.025431 
L 152.795455 231.149204 
L 155.965909 230.980312 
L 159.136364 230.545839 
L 162.306818 229.921511 
L 165.477273 229.218974 
L 168.647727 228.567677 
L 171.818182 228.096354 
L 174.988636 227.918624 
L 178.159091 228.123262 
L 181.329545 228.766565 
L 184.5 229.866064 
L 187.670455 231.395297 
L 190.840909 233.282426 
L 194.011364 235.415205 
L 197.181818 237.65396 
L 200.352273 239.850943 
L 203.522727 241.87224 
L 206.693182 243.617398 
L 209.863636 245.031992 
L 213.034091 246.11163 
L 216.204545 246.897047 
L 219.375 247.463324 
L 222.545455 247.906652 
L 225.715909 248.330575 
L 228.886364 248.835601 
L 232.056818 249.510994 
L 235.227273 250.430937 
L 238.397727 251.651965 
L 241.568182 253.212369 
L 244.738636 255.131761 
L 247.909091 257.410599 
L 251.079545 260.028978 
L 254.25 262.944045 
L 257.420455 266.087771 
L 260.590909 269.362259 
L 263.761364 272.640468 
L 266.931818 275.764218 
L 270.102273 278.551822 
L 273.272727 280.811307 
L 276.443182 282.363324 
L 279.613636 283.066639 
L 282.784091 282.846591 
L 285.954545 281.709206 
L 289.125 279.744669 
L 292.295455 277.106557 
L 295.465909 273.986009 
L 298.636364 270.581712 
L 301.806818 267.072376 
L 304.977273 263.60552 
L 308.147727 260.290128 
L 311.318182 257.197969 
" clip-path="url(#p2938a48c25)" style="fill: none; stroke: #9467bd; stroke-width: 1.5; stroke-linecap: square"/>
   </g>
   <g id="line2d_19">
    <path d="M 57.681818 241.458163 
L 60.852273 240.904045 
L 64.022727 240.308868 
L 67.193182 239.658843 
L 70.363636 238.941525 
L 73.534091 238.152707 
L 76.704545 237.30984 
L 79.875 236.473622 
L 83.045455 235.768577 
L 86.215909 235.385755 
L 89.386364 235.541275 
L 92.556818 236.37948 
L 95.727273 237.87713 
L 98.897727 239.820131 
L 102.068182 241.895189 
L 105.238636 243.819047 
L 108.409091 245.419091 
L 111.579545 246.640397 
L 114.75 247.50821 
L 117.920455 248.085073 
L 121.090909 248.439759 
L 124.261364 248.633859 
L 127.431818 248.715831 
L 130.602273 248.722072 
L 133.772727 248.680969 
L 136.943182 248.616401 
L 140.113636 248.552025 
L 143.284091 248.513336 
L 146.454545 248.529201 
L 149.625 248.62854 
L 152.795455 248.835315 
L 155.965909 249.161366 
L 159.136364 249.600107 
L 162.306818 250.124399 
L 165.477273 250.687411 
L 168.647727 251.225716 
L 171.818182 251.662812 
L 174.988636 251.911021 
L 178.159091 251.873294 
L 181.329545 251.447497 
L 184.5 250.534965 
L 187.670455 249.055681 
L 190.840909 246.967442 
L 194.011364 244.284745 
L 197.181818 241.090104 
L 200.352273 237.529946 
L 203.522727 233.794015 
L 206.693182 230.082451 
L 209.863636 226.569733 
L 213.034091 223.377253 
L 216.204545 220.559634 
L 219.375 218.107225 
L 222.545455 215.95891 
L 225.715909 214.021027 
L 228.886364 212.185018 
L 232.056818 210.343073 
L 235.227273 208.397741 
L 238.397727 206.268809 
L 241.568182 203.895639 
L 244.738636 201.239161 
L 247.909091 198.281398 
L 251.079545 195.025121 
L 254.25 191.493169 
L 257.420455 187.726656 
L 260.590909 183.782263 
L 263.761364 179.728209 
L 266.931818 175.641041 
L 270.102273 171.598205 
L 273.272727 167.676384 
L 276.443182 163.947226 
L 279.613636 160.478777 
L 282.784091 157.333995 
L 285.954545 154.573257 
L 289.125 152.250053 
L 292.295455 150.405095 
L 295.465909 149.061614 
L 298.636364 148.220614 
L 301.806818 147.860354 
L 304.977273 147.937246 
L 308.147727 148.395828 
L 311.318182 149.168349 
" clip-path="url(#p2938a48c25)" style="fill: none; stroke: #8c564b; stroke-width: 1.5; stroke-linecap: square"/>
   </g>
   <g id="line2d_20">
    <path d="M 57.681818 221.856026 
L 60.852273 221.754571 
L 64.022727 221.600458 
L 67.193182 221.372716 
L 70.363636 221.046955 
L 73.534091 220.599841 
L 76.704545 220.017255 
L 79.875 219.314152 
L 83.045455 218.556138 
L 86.215909 217.874109 
L 89.386364 217.447578 
L 92.556818 217.439828 
L 95.727273 217.912215 
L 98.897727 218.783756 
L 102.068182 219.869449 
L 105.238636 220.967393 
L 108.409091 221.930335 
L 111.579545 222.686255 
L 114.75 223.225001 
L 117.920455 223.571032 
L 121.090909 223.765599 
L 124.261364 223.853414 
L 127.431818 223.879041 
L 130.602273 223.884762 
L 133.772727 223.910909 
L 136.943182 223.992873 
L 140.113636 224.15803 
L 143.284091 224.419847 
L 146.454545 224.771011 
L 149.625 225.180679 
L 152.795455 225.597903 
L 155.965909 225.964719 
L 159.136364 226.235161 
L 162.306818 226.39503 
L 165.477273 226.473962 
L 168.647727 226.544783 
L 171.818182 226.709502 
L 174.988636 227.079078 
L 178.159091 227.748431 
L 181.329545 228.774397 
L 184.5 230.158293 
L 187.670455 231.836729 
L 190.840909 233.683666 
L 194.011364 235.524778 
L 197.181818 237.162458 
L 200.352273 238.405973 
L 203.522727 239.099554 
L 206.693182 239.141603 
L 209.863636 238.491195 
L 213.034091 237.162679 
L 216.204545 235.211393 
L 219.375 232.71519 
L 222.545455 229.756237 
L 225.715909 226.406143 
L 228.886364 222.715604 
L 232.056818 218.709102 
L 235.227273 214.383529 
L 238.397727 209.709302 
L 241.568182 204.634872 
L 244.738636 199.091222 
L 247.909091 192.999184 
L 251.079545 186.276362 
L 254.25 178.847707 
L 257.420455 170.656702 
L 260.590909 161.680401 
L 263.761364 151.94496 
L 266.931818 141.542678 
L 270.102273 130.644994 
L 273.272727 119.505158 
L 276.443182 108.448238 
L 279.613636 97.840362 
L 282.784091 88.047763 
L 285.954545 79.383201 
L 289.125 72.068768 
L 292.295455 66.211647 
L 295.465909 61.802873 
L 298.636364 58.739241 
L 301.806818 56.852219 
L 304.977273 55.941736 
L 308.147727 55.8 
L 311.318182 56.23324 
" clip-path="url(#p2938a48c25)" style="fill: none; stroke: #e377c2; stroke-width: 1.5; stroke-linecap: square"/>
   </g>
   <g id="line2d_21">
    <path d="M 57.681818 277.763276 
L 60.852273 277.28065 
L 64.022727 276.591045 
L 67.193182 275.613165 
L 70.363636 274.242559 
L 73.534091 272.354369 
L 76.704545 269.817784 
L 79.875 266.522216 
L 83.045455 262.42757 
L 86.215909 257.613679 
L 89.386364 252.308862 
L 92.556818 246.857746 
L 95.727273 241.62713 
L 98.897727 236.903575 
L 102.068182 232.832554 
L 105.238636 229.424214 
L 108.409091 226.595872 
L 111.579545 224.217603 
L 114.75 222.150642 
L 117.920455 220.267376 
L 121.090909 218.463392 
L 124.261364 216.664825 
L 127.431818 214.831076 
L 130.602273 212.962533 
L 133.772727 211.104549 
L 136.943182 209.351889 
L 140.113636 207.845485 
L 143.284091 206.757191 
L 146.454545 206.2605 
L 149.625 206.487199 
L 152.795455 207.484272 
L 155.965909 209.185188 
L 159.136364 211.4148 
L 162.306818 213.925829 
L 165.477273 216.454526 
L 168.647727 218.775112 
L 171.818182 220.7325 
L 174.988636 222.251885 
L 178.159091 223.328266 
L 181.329545 224.006503 
L 184.5 224.360571 
L 187.670455 224.476737 
L 190.840909 224.442059 
L 194.011364 224.338503 
L 197.181818 224.240184 
L 200.352273 224.212112 
L 203.522727 224.308577 
L 206.693182 224.57092 
L 209.863636 225.025748 
L 213.034091 225.684402 
L 216.204545 226.544729 
L 219.375 227.595606 
L 222.545455 228.821962 
L 225.715909 230.2108 
L 228.886364 231.755261 
L 232.056818 233.457323 
L 235.227273 235.328808 
L 238.397727 237.39146 
L 241.568182 239.673959 
L 244.738636 242.209335 
L 247.909091 245.030676 
L 251.079545 248.164726 
L 254.25 251.625411 
L 257.420455 255.404422 
L 260.590909 259.462025 
L 263.761364 263.717569 
L 266.931818 268.04386 
L 270.102273 272.268558 
L 273.272727 276.183074 
L 276.443182 279.564608 
L 279.613636 282.207013 
L 282.784091 283.950983 
L 285.954545 284.71149 
L 289.125 284.487669 
L 292.295455 283.356585 
L 295.465909 281.453984 
L 298.636364 278.947395 
L 301.806818 276.012759 
L 304.977273 272.811787 
L 308.147727 269.482547 
L 311.318182 266.133851 
" clip-path="url(#p2938a48c25)" style="fill: none; stroke: #7f7f7f; stroke-width: 1.5; stroke-linecap: square"/>
   </g>
   <g id="line2d_22">
    <path d="M 57.681818 219.00698 
L 60.852273 219.578027 
L 64.022727 220.373034 
L 67.193182 221.466062 
L 70.363636 222.936928 
L 73.534091 224.852226 
L 76.704545 227.224148 
L 79.875 229.947777 
L 83.045455 232.729443 
L 86.215909 235.060859 
L 89.386364 236.318179 
L 92.556818 236.011573 
L 95.727273 234.063732 
L 98.897727 230.892991 
L 102.068182 227.211622 
L 105.238636 223.703706 
L 108.409091 220.814951 
L 111.579545 218.723166 
L 114.75 217.419586 
L 117.920455 216.80464 
L 121.090909 216.754094 
L 124.261364 217.148127 
L 127.431818 217.878107 
L 130.602273 218.839958 
L 133.772727 219.922289 
L 136.943182 220.997426 
L 140.113636 221.917309 
L 143.284091 222.521695 
L 146.454545 222.656827 
L 149.625 222.206567 
L 152.795455 221.122735 
L 155.965909 219.442661 
L 159.136364 217.283571 
L 162.306818 214.812329 
L 165.477273 212.205884 
L 168.647727 209.618006 
L 171.818182 207.166308 
L 174.988636 204.937727 
L 178.159091 203.005202 
L 181.329545 201.442702 
L 184.5 200.329771 
L 187.670455 199.742083 
L 190.840909 199.732802 
L 194.011364 200.311734 
L 197.181818 201.432542 
L 200.352273 202.993828 
L 203.522727 204.854898 
L 206.693182 206.859449 
L 209.863636 208.860513 
L 213.034091 210.738109 
L 216.204545 212.408338 
L 219.375 213.823336 
L 222.545455 214.965044 
L 225.715909 215.836739 
L 228.886364 216.453805 
L 232.056818 216.836655 
L 235.227273 217.005768 
L 238.397727 216.977431 
L 241.568182 216.763191 
L 244.738636 216.369678 
L 247.909091 215.800552 
L 251.079545 215.05945 
L 254.25 214.156055 
L 257.420455 213.113824 
L 260.590909 211.978533 
L 263.761364 210.828269 
L 266.931818 209.778872 
L 270.102273 208.982048 
L 273.272727 208.61263 
L 276.443182 208.843358 
L 279.613636 209.808749 
L 282.784091 211.570722 
L 285.954545 214.095487 
L 289.125 217.25616 
L 292.295455 220.85215 
L 295.465909 224.648766 
L 298.636364 228.418517 
L 301.806818 231.972097 
L 304.977273 235.174522 
L 308.147727 237.950597 
L 311.318182 240.275152 
" clip-path="url(#p2938a48c25)" style="fill: none; stroke: #bcbd22; stroke-width: 1.5; stroke-linecap: square"/>
   </g>
   <g id="line2d_23">
    <path d="M 57.681818 206.92501 
L 60.852273 207.57352 
L 64.022727 208.50545 
L 67.193182 209.831473 
L 70.363636 211.688618 
L 73.534091 214.226478 
L 76.704545 217.572965 
L 79.875 221.767854 
L 83.045455 226.665695 
L 86.215909 231.861173 
L 89.386364 236.710969 
L 92.556818 240.524369 
L 95.727273 242.858622 
L 98.897727 243.710257 
L 102.068182 243.453672 
L 105.238636 242.600754 
L 108.409091 241.585224 
L 111.579545 240.672958 
L 114.75 239.979476 
L 117.920455 239.52716 
L 121.090909 239.294078 
L 124.261364 239.243497 
L 127.431818 239.338366 
L 130.602273 239.54402 
L 133.772727 239.827484 
L 136.943182 240.153608 
L 140.113636 240.482606 
L 143.284091 240.769263 
L 146.454545 240.964116 
L 149.625 241.021867 
L 152.795455 240.908187 
L 155.965909 240.609339 
L 159.136364 240.134965 
L 162.306818 239.514489 
L 165.477273 238.78525 
L 168.647727 237.978681 
L 171.818182 237.108228 
L 174.988636 236.164888 
L 178.159091 235.121199 
L 181.329545 233.942964 
L 184.5 232.605726 
L 187.670455 231.111404 
L 190.840909 229.50056 
L 194.011364 227.855464 
L 197.181818 226.292311 
L 200.352273 224.943252 
L 203.522727 223.933595 
L 206.693182 223.360243 
L 209.863636 223.277935 
L 213.034091 223.695458 
L 216.204545 224.581923 
L 219.375 225.879384 
L 222.545455 227.518026 
L 225.715909 229.429459 
L 228.886364 231.55879 
L 232.056818 233.870171 
L 235.227273 236.350631 
L 238.397727 239.009705 
L 241.568182 241.878243 
L 244.738636 245.003897 
L 247.909091 248.445809 
L 251.079545 252.266815 
L 254.25 256.522472 
L 257.420455 261.24818 
L 260.590909 266.441332 
L 263.761364 272.046035 
L 266.931818 277.937863 
L 270.102273 283.920413 
L 273.272727 289.735764 
L 276.443182 295.090837 
L 279.613636 299.703837 
L 282.784091 303.3502 
L 285.954545 305.904739 
L 289.125 307.356201 
L 292.295455 307.8 
L 295.465909 307.41239 
L 298.636364 306.404173 
L 301.806818 304.988682 
L 304.977273 303.35117 
L 308.147727 301.639397 
L 311.318182 299.956982 
" clip-path="url(#p2938a48c25)" style="fill: none; stroke: #17becf; stroke-width: 1.5; stroke-linecap: square"/>
   </g>
   <g id="patch_3">
    <path d="M 45 320.4 
L 45 43.2 
" style="fill: none; stroke: #000000; stroke-width: 0.8; stroke-linejoin: miter; stroke-linecap: square"/>
   </g>
   <g id="patch_4">
    <path d="M 324 320.4 
L 324 43.2 
" style="fill: none; stroke: #000000; stroke-width: 0.8; stroke-linejoin: miter; stroke-linecap: square"/>
   </g>
   <g id="patch_5">
    <path d="M 45 320.4 
L 324 320.4 
" style="fill: none; stroke: #000000; stroke-width: 0.8; stroke-linejoin: miter; stroke-linecap: square"/>
   </g>
   <g id="patch_6">
    <path d="M 45 43.2 
L 324 43.2 
" style="fill: none; stroke: #000000; stroke-width: 0.8; stroke-linejoin: miter; stroke-linecap: square"/>
   </g>
   <g id="text_14">
    <!-- Single Draw Deviation -->
    <g transform="translate(117.87 37.2)scale(0.12 -0.12)">
     <defs>
      <path id="DejaVuSans-53" d="M 3425 4513 
L 3425 3897 
Q 3066 4069 2747 4153 
Q 2428 4238 2131 4238 
Q 1616 4238 1336 4038 
Q 1056 3838 1056 3469 
Q 1056 3159 1242 3001 
Q 1428 2844 1947 2747 
L 2328 2669 
Q 3034 2534 3370 2195 
Q 3706 1856 3706 1288 
Q 3706 609 3251 259 
Q 2797 -91 1919 -91 
Q 1588 -91 1214 -16 
Q 841 59 441 206 
L 441 856 
Q 825 641 1194 531 
Q 1563 422 1919 422 
Q 2459 422 2753 634 
Q 3047 847 3047 1241 
Q 3047 1584 2836 1778 
Q 2625 1972 2144 2069 
L 1759 2144 
Q 1053 2284 737 2584 
Q 422 2884 422 3419 
Q 422 4038 858 4394 
Q 1294 4750 2059 4750 
Q 2388 4750 2728 4690 
Q 3069 4631 3425 4513 
z
" transform="scale(0.015625)"/>
      <path id="DejaVuSans-69" d="M 603 3500 
L 1178 3500 
L 1178 0 
L 603 0 
L 603 3500 
z
M 603 4863 
L 1178 4863 
L 1178 4134 
L 603 4134 
L 603 4863 
z
" transform="scale(0.015625)"/>
      <path id="DejaVuSans-6e" d="M 3513 2113 
L 3513 0 
L 2938 0 
L 2938 2094 
Q 2938 2591 2744 2837 
Q 2550 3084 2163 3084 
Q 1697 3084 1428 2787 
Q 1159 2491 1159 1978 
L 1159 0 
L 581 0 
L 581 3500 
L 1159 3500 
L 1159 2956 
Q 1366 3272 1645 3428 
Q 1925 3584 2291 3584 
Q 2894 3584 3203 3211 
Q 3513 2838 3513 2113 
z
" transform="scale(0.015625)"/>
      <path id="DejaVuSans-67" d="M 2906 1791 
Q 2906 2416 2648 2759 
Q 2391 3103 1925 3103 
Q 1463 3103 1205 2759 
Q 947 2416 947 1791 
Q 947 1169 1205 825 
Q 1463 481 1925 481 
Q 2391 481 2648 825 
Q 2906 1169 2906 1791 
z
M 3481 434 
Q 3481 -459 3084 -895 
Q 2688 -1331 1869 -1331 
Q 1566 -1331 1297 -1286 
Q 1028 -1241 775 -1147 
L 775 -588 
Q 1028 -725 1275 -790 
Q 1522 -856 1778 -856 
Q 2344 -856 2625 -561 
Q 2906 -266 2906 331 
L 2906 616 
Q 2728 306 2450 153 
Q 2172 0 1784 0 
Q 1141 0 747 490 
Q 353 981 353 1791 
Q 353 2603 747 3093 
Q 1141 3584 1784 3584 
Q 2172 3584 2450 3431 
Q 2728 3278 2906 2969 
L 2906 3500 
L 3481 3500 
L 3481 434 
z
" transform="scale(0.015625)"/>
      <path id="DejaVuSans-6c" d="M 603 4863 
L 1178 4863 
L 1178 0 
L 603 0 
L 603 4863 
z
" transform="scale(0.015625)"/>
      <path id="DejaVuSans-65" d="M 3597 1894 
L 3597 1613 
L 953 1613 
Q 991 1019 1311 708 
Q 1631 397 2203 397 
Q 2534 397 2845 478 
Q 3156 559 3463 722 
L 3463 178 
Q 3153 47 2828 -22 
Q 2503 -91 2169 -91 
Q 1331 -91 842 396 
Q 353 884 353 1716 
Q 353 2575 817 3079 
Q 1281 3584 2069 3584 
Q 2775 3584 3186 3129 
Q 3597 2675 3597 1894 
z
M 3022 2063 
Q 3016 2534 2758 2815 
Q 2500 3097 2075 3097 
Q 1594 3097 1305 2825 
Q 1016 2553 972 2059 
L 3022 2063 
z
" transform="scale(0.015625)"/>
      <path id="DejaVuSans-20" transform="scale(0.015625)"/>
      <path id="DejaVuSans-44" d="M 1259 4147 
L 1259 519 
L 2022 519 
Q 2988 519 3436 956 
Q 3884 1394 3884 2338 
Q 3884 3275 3436 3711 
Q 2988 4147 2022 4147 
L 1259 4147 
z
M 628 4666 
L 1925 4666 
Q 3281 4666 3915 4102 
Q 4550 3538 4550 2338 
Q 4550 1131 3912 565 
Q 3275 0 1925 0 
L 628 0 
L 628 4666 
z
" transform="scale(0.015625)"/>
      <path id="DejaVuSans-72" d="M 2631 2963 
Q 2534 3019 2420 3045 
Q 2306 3072 2169 3072 
Q 1681 3072 1420 2755 
Q 1159 2438 1159 1844 
L 1159 0 
L 581 0 
L 581 3500 
L 1159 3500 
L 1159 2956 
Q 1341 3275 1631 3429 
Q 1922 3584 2338 3584 
Q 2397 3584 2469 3576 
Q 2541 3569 2628 3553 
L 2631 2963 
z
" transform="scale(0.015625)"/>
      <path id="DejaVuSans-61" d="M 2194 1759 
Q 1497 1759 1228 1600 
Q 959 1441 959 1056 
Q 959 750 1161 570 
Q 1363 391 1709 391 
Q 2188 391 2477 730 
Q 2766 1069 2766 1631 
L 2766 1759 
L 2194 1759 
z
M 3341 1997 
L 3341 0 
L 2766 0 
L 2766 531 
Q 2569 213 2275 61 
Q 1981 -91 1556 -91 
Q 1019 -91 701 211 
Q 384 513 384 1019 
Q 384 1609 779 1909 
Q 1175 2209 1959 2209 
L 2766 2209 
L 2766 2266 
Q 2766 2663 2505 2880 
Q 2244 3097 1772 3097 
Q 1472 3097 1187 3025 
Q 903 2953 641 2809 
L 641 3341 
Q 956 3463 1253 3523 
Q 1550 3584 1831 3584 
Q 2591 3584 2966 3190 
Q 3341 2797 3341 1997 
z
" transform="scale(0.015625)"/>
      <path id="DejaVuSans-77" d="M 269 3500 
L 844 3500 
L 1563 769 
L 2278 3500 
L 2956 3500 
L 3675 769 
L 4391 3500 
L 4966 3500 
L 4050 0 
L 3372 0 
L 2619 2869 
L 1863 0 
L 1184 0 
L 269 3500 
z
" transform="scale(0.015625)"/>
      <path id="DejaVuSans-76" d="M 191 3500 
L 800 3500 
L 1894 563 
L 2988 3500 
L 3597 3500 
L 2284 0 
L 1503 0 
L 191 3500 
z
" transform="scale(0.015625)"/>
      <path id="DejaVuSans-74" d="M 1172 4494 
L 1172 3500 
L 2356 3500 
L 2356 3053 
L 1172 3053 
L 1172 1153 
Q 1172 725 1289 603 
Q 1406 481 1766 481 
L 2356 481 
L 2356 0 
L 1766 0 
Q 1100 0 847 248 
Q 594 497 594 1153 
L 594 3053 
L 172 3053 
L 172 3500 
L 594 3500 
L 594 4494 
L 1172 4494 
z
" transform="scale(0.015625)"/>
      <path id="DejaVuSans-6f" d="M 1959 3097 
Q 1497 3097 1228 2736 
Q 959 2375 959 1747 
Q 959 1119 1226 758 
Q 1494 397 1959 397 
Q 2419 397 2687 759 
Q 2956 1122 2956 1747 
Q 2956 2369 2687 2733 
Q 2419 3097 1959 3097 
z
M 1959 3584 
Q 2709 3584 3137 3096 
Q 3566 2609 3566 1747 
Q 3566 888 3137 398 
Q 2709 -91 1959 -91 
Q 1206 -91 779 398 
Q 353 888 353 1747 
Q 353 2609 779 3096 
Q 1206 3584 1959 3584 
z
" transform="scale(0.015625)"/>
     </defs>
     <use xlink:href="#DejaVuSans-53"/>
     <use xlink:href="#DejaVuSans-69" x="63.476562"/>
     <use xlink:href="#DejaVuSans-6e" x="91.259766"/>
     <use xlink:href="#DejaVuSans-67" x="154.638672"/>
     <use xlink:href="#DejaVuSans-6c" x="218.115234"/>
     <use xlink:href="#DejaVuSans-65" x="245.898438"/>
     <use xlink:href="#DejaVuSans-20" x="307.421875"/>
     <use xlink:href="#DejaVuSans-44" x="339.208984"/>
     <use xlink:href="#DejaVuSans-72" x="416.210938"/>
     <use xlink:href="#DejaVuSans-61" x="457.324219"/>
     <use xlink:href="#DejaVuSans-77" x="518.603516"/>
     <use xlink:href="#DejaVuSans-20" x="600.390625"/>
     <use xlink:href="#DejaVuSans-44" x="632.177734"/>
     <use xlink:href="#DejaVuSans-65" x="709.179688"/>
     <use xlink:href="#DejaVuSans-76" x="770.703125"/>
     <use xlink:href="#DejaVuSans-69" x="829.882812"/>
     <use xlink:href="#DejaVuSans-61" x="857.666016"/>
     <use xlink:href="#DejaVuSans-74" x="918.945312"/>
     <use xlink:href="#DejaVuSans-69" x="958.154297"/>
     <use xlink:href="#DejaVuSans-6f" x="985.9375"/>
     <use xlink:href="#DejaVuSans-6e" x="1047.119141"/>
    </g>
   </g>
   <g id="legend_1">
    <g id="patch_7">
     <path d="M 52 197.98125 
L 211.935938 197.98125 
Q 213.935938 197.98125 213.935938 195.98125 
L 213.935938 50.2 
Q 213.935938 48.2 211.935938 48.2 
L 52 48.2 
Q 50 48.2 50 50.2 
L 50 195.98125 
Q 50 197.98125 52 197.98125 
z
" style="fill: #ffffff; opacity: 0.8; stroke: #cccccc; stroke-linejoin: miter"/>
    </g>
    <g id="line2d_24">
     <path d="M 54 56.298437 
L 64 56.298437 
L 74 56.298437 
" style="fill: none; stroke: #1f77b4; stroke-width: 1.5; stroke-linecap: square"/>
    </g>
    <g id="text_15">
     <!-- Deviation from average 0 -->
     <g transform="translate(82 59.798437)scale(0.1 -0.1)">
      <defs>
       <path id="DejaVuSans-66" d="M 2375 4863 
L 2375 4384 
L 1825 4384 
Q 1516 4384 1395 4259 
Q 1275 4134 1275 3809 
L 1275 3500 
L 2222 3500 
L 2222 3053 
L 1275 3053 
L 1275 0 
L 697 0 
L 697 3053 
L 147 3053 
L 147 3500 
L 697 3500 
L 697 3744 
Q 697 4328 969 4595 
Q 1241 4863 1831 4863 
L 2375 4863 
z
" transform="scale(0.015625)"/>
       <path id="DejaVuSans-6d" d="M 3328 2828 
Q 3544 3216 3844 3400 
Q 4144 3584 4550 3584 
Q 5097 3584 5394 3201 
Q 5691 2819 5691 2113 
L 5691 0 
L 5113 0 
L 5113 2094 
Q 5113 2597 4934 2840 
Q 4756 3084 4391 3084 
Q 3944 3084 3684 2787 
Q 3425 2491 3425 1978 
L 3425 0 
L 2847 0 
L 2847 2094 
Q 2847 2600 2669 2842 
Q 2491 3084 2119 3084 
Q 1678 3084 1418 2786 
Q 1159 2488 1159 1978 
L 1159 0 
L 581 0 
L 581 3500 
L 1159 3500 
L 1159 2956 
Q 1356 3278 1631 3431 
Q 1906 3584 2284 3584 
Q 2666 3584 2933 3390 
Q 3200 3197 3328 2828 
z
" transform="scale(0.015625)"/>
      </defs>
      <use xlink:href="#DejaVuSans-44"/>
      <use xlink:href="#DejaVuSans-65" x="77.001953"/>
      <use xlink:href="#DejaVuSans-76" x="138.525391"/>
      <use xlink:href="#DejaVuSans-69" x="197.705078"/>
      <use xlink:href="#DejaVuSans-61" x="225.488281"/>
      <use xlink:href="#DejaVuSans-74" x="286.767578"/>
      <use xlink:href="#DejaVuSans-69" x="325.976562"/>
      <use xlink:href="#DejaVuSans-6f" x="353.759766"/>
      <use xlink:href="#DejaVuSans-6e" x="414.941406"/>
      <use xlink:href="#DejaVuSans-20" x="478.320312"/>
      <use xlink:href="#DejaVuSans-66" x="510.107422"/>
      <use xlink:href="#DejaVuSans-72" x="545.3125"/>
      <use xlink:href="#DejaVuSans-6f" x="584.175781"/>
      <use xlink:href="#DejaVuSans-6d" x="645.357422"/>
      <use xlink:href="#DejaVuSans-20" x="742.769531"/>
      <use xlink:href="#DejaVuSans-61" x="774.556641"/>
      <use xlink:href="#DejaVuSans-76" x="835.835938"/>
      <use xlink:href="#DejaVuSans-65" x="895.015625"/>
      <use xlink:href="#DejaVuSans-72" x="956.539062"/>
      <use xlink:href="#DejaVuSans-61" x="997.652344"/>
      <use xlink:href="#DejaVuSans-67" x="1058.931641"/>
      <use xlink:href="#DejaVuSans-65" x="1122.408203"/>
      <use xlink:href="#DejaVuSans-20" x="1183.931641"/>
      <use xlink:href="#DejaVuSans-30" x="1215.71875"/>
     </g>
    </g>
    <g id="line2d_25">
     <path d="M 54 70.976562 
L 64 70.976562 
L 74 70.976562 
" style="fill: none; stroke: #ff7f0e; stroke-width: 1.5; stroke-linecap: square"/>
    </g>
    <g id="text_16">
     <!-- Deviation from average 1 -->
     <g transform="translate(82 74.476562)scale(0.1 -0.1)">
      <use xlink:href="#DejaVuSans-44"/>
      <use xlink:href="#DejaVuSans-65" x="77.001953"/>
      <use xlink:href="#DejaVuSans-76" x="138.525391"/>
      <use xlink:href="#DejaVuSans-69" x="197.705078"/>
      <use xlink:href="#DejaVuSans-61" x="225.488281"/>
      <use xlink:href="#DejaVuSans-74" x="286.767578"/>
      <use xlink:href="#DejaVuSans-69" x="325.976562"/>
      <use xlink:href="#DejaVuSans-6f" x="353.759766"/>
      <use xlink:href="#DejaVuSans-6e" x="414.941406"/>
      <use xlink:href="#DejaVuSans-20" x="478.320312"/>
      <use xlink:href="#DejaVuSans-66" x="510.107422"/>
      <use xlink:href="#DejaVuSans-72" x="545.3125"/>
      <use xlink:href="#DejaVuSans-6f" x="584.175781"/>
      <use xlink:href="#DejaVuSans-6d" x="645.357422"/>
      <use xlink:href="#DejaVuSans-20" x="742.769531"/>
      <use xlink:href="#DejaVuSans-61" x="774.556641"/>
      <use xlink:href="#DejaVuSans-76" x="835.835938"/>
      <use xlink:href="#DejaVuSans-65" x="895.015625"/>
      <use xlink:href="#DejaVuSans-72" x="956.539062"/>
      <use xlink:href="#DejaVuSans-61" x="997.652344"/>
      <use xlink:href="#DejaVuSans-67" x="1058.931641"/>
      <use xlink:href="#DejaVuSans-65" x="1122.408203"/>
      <use xlink:href="#DejaVuSans-20" x="1183.931641"/>
      <use xlink:href="#DejaVuSans-31" x="1215.71875"/>
     </g>
    </g>
    <g id="line2d_26">
     <path d="M 54 85.654688 
L 64 85.654688 
L 74 85.654688 
" style="fill: none; stroke: #2ca02c; stroke-width: 1.5; stroke-linecap: square"/>
    </g>
    <g id="text_17">
     <!-- Deviation from average 2 -->
     <g transform="translate(82 89.154688)scale(0.1 -0.1)">
      <use xlink:href="#DejaVuSans-44"/>
      <use xlink:href="#DejaVuSans-65" x="77.001953"/>
      <use xlink:href="#DejaVuSans-76" x="138.525391"/>
      <use xlink:href="#DejaVuSans-69" x="197.705078"/>
      <use xlink:href="#DejaVuSans-61" x="225.488281"/>
      <use xlink:href="#DejaVuSans-74" x="286.767578"/>
      <use xlink:href="#DejaVuSans-69" x="325.976562"/>
      <use xlink:href="#DejaVuSans-6f" x="353.759766"/>
      <use xlink:href="#DejaVuSans-6e" x="414.941406"/>
      <use xlink:href="#DejaVuSans-20" x="478.320312"/>
      <use xlink:href="#DejaVuSans-66" x="510.107422"/>
      <use xlink:href="#DejaVuSans-72" x="545.3125"/>
      <use xlink:href="#DejaVuSans-6f" x="584.175781"/>
      <use xlink:href="#DejaVuSans-6d" x="645.357422"/>
      <use xlink:href="#DejaVuSans-20" x="742.769531"/>
      <use xlink:href="#DejaVuSans-61" x="774.556641"/>
      <use xlink:href="#DejaVuSans-76" x="835.835938"/>
      <use xlink:href="#DejaVuSans-65" x="895.015625"/>
      <use xlink:href="#DejaVuSans-72" x="956.539062"/>
      <use xlink:href="#DejaVuSans-61" x="997.652344"/>
      <use xlink:href="#DejaVuSans-67" x="1058.931641"/>
      <use xlink:href="#DejaVuSans-65" x="1122.408203"/>
      <use xlink:href="#DejaVuSans-20" x="1183.931641"/>
      <use xlink:href="#DejaVuSans-32" x="1215.71875"/>
     </g>
    </g>
    <g id="line2d_27">
     <path d="M 54 100.332812 
L 64 100.332812 
L 74 100.332812 
" style="fill: none; stroke: #d62728; stroke-width: 1.5; stroke-linecap: square"/>
    </g>
    <g id="text_18">
     <!-- Deviation from average 3 -->
     <g transform="translate(82 103.832812)scale(0.1 -0.1)">
      <defs>
       <path id="DejaVuSans-33" d="M 2597 2516 
Q 3050 2419 3304 2112 
Q 3559 1806 3559 1356 
Q 3559 666 3084 287 
Q 2609 -91 1734 -91 
Q 1441 -91 1130 -33 
Q 819 25 488 141 
L 488 750 
Q 750 597 1062 519 
Q 1375 441 1716 441 
Q 2309 441 2620 675 
Q 2931 909 2931 1356 
Q 2931 1769 2642 2001 
Q 2353 2234 1838 2234 
L 1294 2234 
L 1294 2753 
L 1863 2753 
Q 2328 2753 2575 2939 
Q 2822 3125 2822 3475 
Q 2822 3834 2567 4026 
Q 2313 4219 1838 4219 
Q 1578 4219 1281 4162 
Q 984 4106 628 3988 
L 628 4550 
Q 988 4650 1302 4700 
Q 1616 4750 1894 4750 
Q 2613 4750 3031 4423 
Q 3450 4097 3450 3541 
Q 3450 3153 3228 2886 
Q 3006 2619 2597 2516 
z
" transform="scale(0.015625)"/>
      </defs>
      <use xlink:href="#DejaVuSans-44"/>
      <use xlink:href="#DejaVuSans-65" x="77.001953"/>
      <use xlink:href="#DejaVuSans-76" x="138.525391"/>
      <use xlink:href="#DejaVuSans-69" x="197.705078"/>
      <use xlink:href="#DejaVuSans-61" x="225.488281"/>
      <use xlink:href="#DejaVuSans-74" x="286.767578"/>
      <use xlink:href="#DejaVuSans-69" x="325.976562"/>
      <use xlink:href="#DejaVuSans-6f" x="353.759766"/>
      <use xlink:href="#DejaVuSans-6e" x="414.941406"/>
      <use xlink:href="#DejaVuSans-20" x="478.320312"/>
      <use xlink:href="#DejaVuSans-66" x="510.107422"/>
      <use xlink:href="#DejaVuSans-72" x="545.3125"/>
      <use xlink:href="#DejaVuSans-6f" x="584.175781"/>
      <use xlink:href="#DejaVuSans-6d" x="645.357422"/>
      <use xlink:href="#DejaVuSans-20" x="742.769531"/>
      <use xlink:href="#DejaVuSans-61" x="774.556641"/>
      <use xlink:href="#DejaVuSans-76" x="835.835938"/>
      <use xlink:href="#DejaVuSans-65" x="895.015625"/>
      <use xlink:href="#DejaVuSans-72" x="956.539062"/>
      <use xlink:href="#DejaVuSans-61" x="997.652344"/>
      <use xlink:href="#DejaVuSans-67" x="1058.931641"/>
      <use xlink:href="#DejaVuSans-65" x="1122.408203"/>
      <use xlink:href="#DejaVuSans-20" x="1183.931641"/>
      <use xlink:href="#DejaVuSans-33" x="1215.71875"/>
     </g>
    </g>
    <g id="line2d_28">
     <path d="M 54 115.010938 
L 64 115.010938 
L 74 115.010938 
" style="fill: none; stroke: #9467bd; stroke-width: 1.5; stroke-linecap: square"/>
    </g>
    <g id="text_19">
     <!-- Deviation from average 4 -->
     <g transform="translate(82 118.510938)scale(0.1 -0.1)">
      <use xlink:href="#DejaVuSans-44"/>
      <use xlink:href="#DejaVuSans-65" x="77.001953"/>
      <use xlink:href="#DejaVuSans-76" x="138.525391"/>
      <use xlink:href="#DejaVuSans-69" x="197.705078"/>
      <use xlink:href="#DejaVuSans-61" x="225.488281"/>
      <use xlink:href="#DejaVuSans-74" x="286.767578"/>
      <use xlink:href="#DejaVuSans-69" x="325.976562"/>
      <use xlink:href="#DejaVuSans-6f" x="353.759766"/>
      <use xlink:href="#DejaVuSans-6e" x="414.941406"/>
      <use xlink:href="#DejaVuSans-20" x="478.320312"/>
      <use xlink:href="#DejaVuSans-66" x="510.107422"/>
      <use xlink:href="#DejaVuSans-72" x="545.3125"/>
      <use xlink:href="#DejaVuSans-6f" x="584.175781"/>
      <use xlink:href="#DejaVuSans-6d" x="645.357422"/>
      <use xlink:href="#DejaVuSans-20" x="742.769531"/>
      <use xlink:href="#DejaVuSans-61" x="774.556641"/>
      <use xlink:href="#DejaVuSans-76" x="835.835938"/>
      <use xlink:href="#DejaVuSans-65" x="895.015625"/>
      <use xlink:href="#DejaVuSans-72" x="956.539062"/>
      <use xlink:href="#DejaVuSans-61" x="997.652344"/>
      <use xlink:href="#DejaVuSans-67" x="1058.931641"/>
      <use xlink:href="#DejaVuSans-65" x="1122.408203"/>
      <use xlink:href="#DejaVuSans-20" x="1183.931641"/>
      <use xlink:href="#DejaVuSans-34" x="1215.71875"/>
     </g>
    </g>
    <g id="line2d_29">
     <path d="M 54 129.689062 
L 64 129.689062 
L 74 129.689062 
" style="fill: none; stroke: #8c564b; stroke-width: 1.5; stroke-linecap: square"/>
    </g>
    <g id="text_20">
     <!-- Deviation from average 5 -->
     <g transform="translate(82 133.189062)scale(0.1 -0.1)">
      <defs>
       <path id="DejaVuSans-35" d="M 691 4666 
L 3169 4666 
L 3169 4134 
L 1269 4134 
L 1269 2991 
Q 1406 3038 1543 3061 
Q 1681 3084 1819 3084 
Q 2600 3084 3056 2656 
Q 3513 2228 3513 1497 
Q 3513 744 3044 326 
Q 2575 -91 1722 -91 
Q 1428 -91 1123 -41 
Q 819 9 494 109 
L 494 744 
Q 775 591 1075 516 
Q 1375 441 1709 441 
Q 2250 441 2565 725 
Q 2881 1009 2881 1497 
Q 2881 1984 2565 2268 
Q 2250 2553 1709 2553 
Q 1456 2553 1204 2497 
Q 953 2441 691 2322 
L 691 4666 
z
" transform="scale(0.015625)"/>
      </defs>
      <use xlink:href="#DejaVuSans-44"/>
      <use xlink:href="#DejaVuSans-65" x="77.001953"/>
      <use xlink:href="#DejaVuSans-76" x="138.525391"/>
      <use xlink:href="#DejaVuSans-69" x="197.705078"/>
      <use xlink:href="#DejaVuSans-61" x="225.488281"/>
      <use xlink:href="#DejaVuSans-74" x="286.767578"/>
      <use xlink:href="#DejaVuSans-69" x="325.976562"/>
      <use xlink:href="#DejaVuSans-6f" x="353.759766"/>
      <use xlink:href="#DejaVuSans-6e" x="414.941406"/>
      <use xlink:href="#DejaVuSans-20" x="478.320312"/>
      <use xlink:href="#DejaVuSans-66" x="510.107422"/>
      <use xlink:href="#DejaVuSans-72" x="545.3125"/>
      <use xlink:href="#DejaVuSans-6f" x="584.175781"/>
      <use xlink:href="#DejaVuSans-6d" x="645.357422"/>
      <use xlink:href="#DejaVuSans-20" x="742.769531"/>
      <use xlink:href="#DejaVuSans-61" x="774.556641"/>
      <use xlink:href="#DejaVuSans-76" x="835.835938"/>
      <use xlink:href="#DejaVuSans-65" x="895.015625"/>
      <use xlink:href="#DejaVuSans-72" x="956.539062"/>
      <use xlink:href="#DejaVuSans-61" x="997.652344"/>
      <use xlink:href="#DejaVuSans-67" x="1058.931641"/>
      <use xlink:href="#DejaVuSans-65" x="1122.408203"/>
      <use xlink:href="#DejaVuSans-20" x="1183.931641"/>
      <use xlink:href="#DejaVuSans-35" x="1215.71875"/>
     </g>
    </g>
    <g id="line2d_30">
     <path d="M 54 144.367188 
L 64 144.367188 
L 74 144.367188 
" style="fill: none; stroke: #e377c2; stroke-width: 1.5; stroke-linecap: square"/>
    </g>
    <g id="text_21">
     <!-- Deviation from average 6 -->
     <g transform="translate(82 147.867188)scale(0.1 -0.1)">
      <use xlink:href="#DejaVuSans-44"/>
      <use xlink:href="#DejaVuSans-65" x="77.001953"/>
      <use xlink:href="#DejaVuSans-76" x="138.525391"/>
      <use xlink:href="#DejaVuSans-69" x="197.705078"/>
      <use xlink:href="#DejaVuSans-61" x="225.488281"/>
      <use xlink:href="#DejaVuSans-74" x="286.767578"/>
      <use xlink:href="#DejaVuSans-69" x="325.976562"/>
      <use xlink:href="#DejaVuSans-6f" x="353.759766"/>
      <use xlink:href="#DejaVuSans-6e" x="414.941406"/>
      <use xlink:href="#DejaVuSans-20" x="478.320312"/>
      <use xlink:href="#DejaVuSans-66" x="510.107422"/>
      <use xlink:href="#DejaVuSans-72" x="545.3125"/>
      <use xlink:href="#DejaVuSans-6f" x="584.175781"/>
      <use xlink:href="#DejaVuSans-6d" x="645.357422"/>
      <use xlink:href="#DejaVuSans-20" x="742.769531"/>
      <use xlink:href="#DejaVuSans-61" x="774.556641"/>
      <use xlink:href="#DejaVuSans-76" x="835.835938"/>
      <use xlink:href="#DejaVuSans-65" x="895.015625"/>
      <use xlink:href="#DejaVuSans-72" x="956.539062"/>
      <use xlink:href="#DejaVuSans-61" x="997.652344"/>
      <use xlink:href="#DejaVuSans-67" x="1058.931641"/>
      <use xlink:href="#DejaVuSans-65" x="1122.408203"/>
      <use xlink:href="#DejaVuSans-20" x="1183.931641"/>
      <use xlink:href="#DejaVuSans-36" x="1215.71875"/>
     </g>
    </g>
    <g id="line2d_31">
     <path d="M 54 159.045312 
L 64 159.045312 
L 74 159.045312 
" style="fill: none; stroke: #7f7f7f; stroke-width: 1.5; stroke-linecap: square"/>
    </g>
    <g id="text_22">
     <!-- Deviation from average 7 -->
     <g transform="translate(82 162.545312)scale(0.1 -0.1)">
      <defs>
       <path id="DejaVuSans-37" d="M 525 4666 
L 3525 4666 
L 3525 4397 
L 1831 0 
L 1172 0 
L 2766 4134 
L 525 4134 
L 525 4666 
z
" transform="scale(0.015625)"/>
      </defs>
      <use xlink:href="#DejaVuSans-44"/>
      <use xlink:href="#DejaVuSans-65" x="77.001953"/>
      <use xlink:href="#DejaVuSans-76" x="138.525391"/>
      <use xlink:href="#DejaVuSans-69" x="197.705078"/>
      <use xlink:href="#DejaVuSans-61" x="225.488281"/>
      <use xlink:href="#DejaVuSans-74" x="286.767578"/>
      <use xlink:href="#DejaVuSans-69" x="325.976562"/>
      <use xlink:href="#DejaVuSans-6f" x="353.759766"/>
      <use xlink:href="#DejaVuSans-6e" x="414.941406"/>
      <use xlink:href="#DejaVuSans-20" x="478.320312"/>
      <use xlink:href="#DejaVuSans-66" x="510.107422"/>
      <use xlink:href="#DejaVuSans-72" x="545.3125"/>
      <use xlink:href="#DejaVuSans-6f" x="584.175781"/>
      <use xlink:href="#DejaVuSans-6d" x="645.357422"/>
      <use xlink:href="#DejaVuSans-20" x="742.769531"/>
      <use xlink:href="#DejaVuSans-61" x="774.556641"/>
      <use xlink:href="#DejaVuSans-76" x="835.835938"/>
      <use xlink:href="#DejaVuSans-65" x="895.015625"/>
      <use xlink:href="#DejaVuSans-72" x="956.539062"/>
      <use xlink:href="#DejaVuSans-61" x="997.652344"/>
      <use xlink:href="#DejaVuSans-67" x="1058.931641"/>
      <use xlink:href="#DejaVuSans-65" x="1122.408203"/>
      <use xlink:href="#DejaVuSans-20" x="1183.931641"/>
      <use xlink:href="#DejaVuSans-37" x="1215.71875"/>
     </g>
    </g>
    <g id="line2d_32">
     <path d="M 54 173.723437 
L 64 173.723437 
L 74 173.723437 
" style="fill: none; stroke: #bcbd22; stroke-width: 1.5; stroke-linecap: square"/>
    </g>
    <g id="text_23">
     <!-- Deviation from average 8 -->
     <g transform="translate(82 177.223437)scale(0.1 -0.1)">
      <use xlink:href="#DejaVuSans-44"/>
      <use xlink:href="#DejaVuSans-65" x="77.001953"/>
      <use xlink:href="#DejaVuSans-76" x="138.525391"/>
      <use xlink:href="#DejaVuSans-69" x="197.705078"/>
      <use xlink:href="#DejaVuSans-61" x="225.488281"/>
      <use xlink:href="#DejaVuSans-74" x="286.767578"/>
      <use xlink:href="#DejaVuSans-69" x="325.976562"/>
      <use xlink:href="#DejaVuSans-6f" x="353.759766"/>
      <use xlink:href="#DejaVuSans-6e" x="414.941406"/>
      <use xlink:href="#DejaVuSans-20" x="478.320312"/>
      <use xlink:href="#DejaVuSans-66" x="510.107422"/>
      <use xlink:href="#DejaVuSans-72" x="545.3125"/>
      <use xlink:href="#DejaVuSans-6f" x="584.175781"/>
      <use xlink:href="#DejaVuSans-6d" x="645.357422"/>
      <use xlink:href="#DejaVuSans-20" x="742.769531"/>
      <use xlink:href="#DejaVuSans-61" x="774.556641"/>
      <use xlink:href="#DejaVuSans-76" x="835.835938"/>
      <use xlink:href="#DejaVuSans-65" x="895.015625"/>
      <use xlink:href="#DejaVuSans-72" x="956.539062"/>
      <use xlink:href="#DejaVuSans-61" x="997.652344"/>
      <use xlink:href="#DejaVuSans-67" x="1058.931641"/>
      <use xlink:href="#DejaVuSans-65" x="1122.408203"/>
      <use xlink:href="#DejaVuSans-20" x="1183.931641"/>
      <use xlink:href="#DejaVuSans-38" x="1215.71875"/>
     </g>
    </g>
    <g id="line2d_33">
     <path d="M 54 188.401562 
L 64 188.401562 
L 74 188.401562 
" style="fill: none; stroke: #17becf; stroke-width: 1.5; stroke-linecap: square"/>
    </g>
    <g id="text_24">
     <!-- Deviation from average 9 -->
     <g transform="translate(82 191.901562)scale(0.1 -0.1)">
      <defs>
       <path id="DejaVuSans-39" d="M 703 97 
L 703 672 
Q 941 559 1184 500 
Q 1428 441 1663 441 
Q 2288 441 2617 861 
Q 2947 1281 2994 2138 
Q 2813 1869 2534 1725 
Q 2256 1581 1919 1581 
Q 1219 1581 811 2004 
Q 403 2428 403 3163 
Q 403 3881 828 4315 
Q 1253 4750 1959 4750 
Q 2769 4750 3195 4129 
Q 3622 3509 3622 2328 
Q 3622 1225 3098 567 
Q 2575 -91 1691 -91 
Q 1453 -91 1209 -44 
Q 966 3 703 97 
z
M 1959 2075 
Q 2384 2075 2632 2365 
Q 2881 2656 2881 3163 
Q 2881 3666 2632 3958 
Q 2384 4250 1959 4250 
Q 1534 4250 1286 3958 
Q 1038 3666 1038 3163 
Q 1038 2656 1286 2365 
Q 1534 2075 1959 2075 
z
" transform="scale(0.015625)"/>
      </defs>
      <use xlink:href="#DejaVuSans-44"/>
      <use xlink:href="#DejaVuSans-65" x="77.001953"/>
      <use xlink:href="#DejaVuSans-76" x="138.525391"/>
      <use xlink:href="#DejaVuSans-69" x="197.705078"/>
      <use xlink:href="#DejaVuSans-61" x="225.488281"/>
      <use xlink:href="#DejaVuSans-74" x="286.767578"/>
      <use xlink:href="#DejaVuSans-69" x="325.976562"/>
      <use xlink:href="#DejaVuSans-6f" x="353.759766"/>
      <use xlink:href="#DejaVuSans-6e" x="414.941406"/>
      <use xlink:href="#DejaVuSans-20" x="478.320312"/>
      <use xlink:href="#DejaVuSans-66" x="510.107422"/>
      <use xlink:href="#DejaVuSans-72" x="545.3125"/>
      <use xlink:href="#DejaVuSans-6f" x="584.175781"/>
      <use xlink:href="#DejaVuSans-6d" x="645.357422"/>
      <use xlink:href="#DejaVuSans-20" x="742.769531"/>
      <use xlink:href="#DejaVuSans-61" x="774.556641"/>
      <use xlink:href="#DejaVuSans-76" x="835.835938"/>
      <use xlink:href="#DejaVuSans-65" x="895.015625"/>
      <use xlink:href="#DejaVuSans-72" x="956.539062"/>
      <use xlink:href="#DejaVuSans-61" x="997.652344"/>
      <use xlink:href="#DejaVuSans-67" x="1058.931641"/>
      <use xlink:href="#DejaVuSans-65" x="1122.408203"/>
      <use xlink:href="#DejaVuSans-20" x="1183.931641"/>
      <use xlink:href="#DejaVuSans-39" x="1215.71875"/>
     </g>
    </g>
   </g>
  </g>
 </g>
 <defs>
  <clipPath id="p2938a48c25">
   <rect x="45" y="43.2" width="279" height="277.2"/>
  </clipPath>
 </defs>
</svg>
