<?xml version="1.0" encoding="utf-8" standalone="no"?>
<!DOCTYPE svg PUBLIC "-//W3C//DTD SVG 1.1//EN"
  "http://www.w3.org/Graphics/SVG/1.1/DTD/svg11.dtd">
<svg xmlns:xlink="http://www.w3.org/1999/xlink" width="360pt" height="360pt" viewBox="0 0 360 360" xmlns="http://www.w3.org/2000/svg" version="1.1">
 <metadata>
  <rdf:RDF xmlns:dc="http://purl.org/dc/elements/1.1/" xmlns:cc="http://creativecommons.org/ns#" xmlns:rdf="http://www.w3.org/1999/02/22-rdf-syntax-ns#">
   <cc:Work>
    <dc:type rdf:resource="http://purl.org/dc/dcmitype/StillImage"/>
    <dc:date>2022-11-10T20:04:50.222815</dc:date>
    <dc:format>image/svg+xml</dc:format>
    <dc:creator>
     <cc:Agent>
      <dc:title>Matplotlib v3.5.3, https://matplotlib.org/</dc:title>
     </cc:Agent>
    </dc:creator>
   </cc:Work>
  </rdf:RDF>
 </metadata>
 <defs>
  <style type="text/css">*{stroke-linejoin: round; stroke-linecap: butt}</style>
 </defs>
 <g id="figure_1">
  <g id="patch_1">
   <path d="M 0 360 
L 360 360 
L 360 0 
L 0 0 
z
" style="fill: #ffffff"/>
  </g>
  <g id="axes_1">
   <g id="patch_2">
    <path d="M 45 320.4 
L 324 320.4 
L 324 43.2 
L 45 43.2 
z
" style="fill: #ffffff"/>
   </g>
   <g id="matplotlib.axis_1">
    <g id="xtick_1">
     <g id="line2d_1">
      <defs>
       <path id="m493f57454f" d="M 0 0 
L 0 3.5 
" style="stroke: #000000; stroke-width: 0.8"/>
      </defs>
      <g>
       <use xlink:href="#m493f57454f" x="83.045455" y="320.4" style="stroke: #000000; stroke-width: 0.8"/>
      </g>
     </g>
     <g id="text_1">
      <!-- −2 -->
      <g transform="translate(75.674361 334.998438)scale(0.1 -0.1)">
       <defs>
        <path id="DejaVuSans-2212" d="M 678 2272 
L 4684 2272 
L 4684 1741 
L 678 1741 
L 678 2272 
z
" transform="scale(0.015625)"/>
        <path id="DejaVuSans-32" d="M 1228 531 
L 3431 531 
L 3431 0 
L 469 0 
L 469 531 
Q 828 903 1448 1529 
Q 2069 2156 2228 2338 
Q 2531 2678 2651 2914 
Q 2772 3150 2772 3378 
Q 2772 3750 2511 3984 
Q 2250 4219 1831 4219 
Q 1534 4219 1204 4116 
Q 875 4013 500 3803 
L 500 4441 
Q 881 4594 1212 4672 
Q 1544 4750 1819 4750 
Q 2544 4750 2975 4387 
Q 3406 4025 3406 3419 
Q 3406 3131 3298 2873 
Q 3191 2616 2906 2266 
Q 2828 2175 2409 1742 
Q 1991 1309 1228 531 
z
" transform="scale(0.015625)"/>
       </defs>
       <use xlink:href="#DejaVuSans-2212"/>
       <use xlink:href="#DejaVuSans-32" x="83.789062"/>
      </g>
     </g>
    </g>
    <g id="xtick_2">
     <g id="line2d_2">
      <g>
       <use xlink:href="#m493f57454f" x="133.772727" y="320.4" style="stroke: #000000; stroke-width: 0.8"/>
      </g>
     </g>
     <g id="text_2">
      <!-- −1 -->
      <g transform="translate(126.401634 334.998438)scale(0.1 -0.1)">
       <defs>
        <path id="DejaVuSans-31" d="M 794 531 
L 1825 531 
L 1825 4091 
L 703 3866 
L 703 4441 
L 1819 4666 
L 2450 4666 
L 2450 531 
L 3481 531 
L 3481 0 
L 794 0 
L 794 531 
z
" transform="scale(0.015625)"/>
       </defs>
       <use xlink:href="#DejaVuSans-2212"/>
       <use xlink:href="#DejaVuSans-31" x="83.789062"/>
      </g>
     </g>
    </g>
    <g id="xtick_3">
     <g id="line2d_3">
      <g>
       <use xlink:href="#m493f57454f" x="184.5" y="320.4" style="stroke: #000000; stroke-width: 0.8"/>
      </g>
     </g>
     <g id="text_3">
      <!-- 0 -->
      <g transform="translate(181.31875 334.998438)scale(0.1 -0.1)">
       <defs>
        <path id="DejaVuSans-30" d="M 2034 4250 
Q 1547 4250 1301 3770 
Q 1056 3291 1056 2328 
Q 1056 1369 1301 889 
Q 1547 409 2034 409 
Q 2525 409 2770 889 
Q 3016 1369 3016 2328 
Q 3016 3291 2770 3770 
Q 2525 4250 2034 4250 
z
M 2034 4750 
Q 2819 4750 3233 4129 
Q 3647 3509 3647 2328 
Q 3647 1150 3233 529 
Q 2819 -91 2034 -91 
Q 1250 -91 836 529 
Q 422 1150 422 2328 
Q 422 3509 836 4129 
Q 1250 4750 2034 4750 
z
" transform="scale(0.015625)"/>
       </defs>
       <use xlink:href="#DejaVuSans-30"/>
      </g>
     </g>
    </g>
    <g id="xtick_4">
     <g id="line2d_4">
      <g>
       <use xlink:href="#m493f57454f" x="235.227273" y="320.4" style="stroke: #000000; stroke-width: 0.8"/>
      </g>
     </g>
     <g id="text_4">
      <!-- 1 -->
      <g transform="translate(232.046023 334.998438)scale(0.1 -0.1)">
       <use xlink:href="#DejaVuSans-31"/>
      </g>
     </g>
    </g>
    <g id="xtick_5">
     <g id="line2d_5">
      <g>
       <use xlink:href="#m493f57454f" x="285.954545" y="320.4" style="stroke: #000000; stroke-width: 0.8"/>
      </g>
     </g>
     <g id="text_5">
      <!-- 2 -->
      <g transform="translate(282.773295 334.998438)scale(0.1 -0.1)">
       <use xlink:href="#DejaVuSans-32"/>
      </g>
     </g>
    </g>
   </g>
   <g id="matplotlib.axis_2">
    <g id="ytick_1">
     <g id="line2d_6">
      <defs>
       <path id="ma166182800" d="M 0 0 
L -3.5 0 
" style="stroke: #000000; stroke-width: 0.8"/>
      </defs>
      <g>
       <use xlink:href="#ma166182800" x="45" y="310.715298" style="stroke: #000000; stroke-width: 0.8"/>
      </g>
     </g>
     <g id="text_6">
      <!-- $\mathdefault{10^{-4}}$ -->
      <g transform="translate(14.5 314.514517)scale(0.1 -0.1)">
       <defs>
        <path id="DejaVuSans-34" d="M 2419 4116 
L 825 1625 
L 2419 1625 
L 2419 4116 
z
M 2253 4666 
L 3047 4666 
L 3047 1625 
L 3713 1625 
L 3713 1100 
L 3047 1100 
L 3047 0 
L 2419 0 
L 2419 1100 
L 313 1100 
L 313 1709 
L 2253 4666 
z
" transform="scale(0.015625)"/>
       </defs>
       <use xlink:href="#DejaVuSans-31" transform="translate(0 0.684375)"/>
       <use xlink:href="#DejaVuSans-30" transform="translate(63.623047 0.684375)"/>
       <use xlink:href="#DejaVuSans-2212" transform="translate(128.203125 38.965625)scale(0.7)"/>
       <use xlink:href="#DejaVuSans-34" transform="translate(186.855469 38.965625)scale(0.7)"/>
      </g>
     </g>
    </g>
    <g id="ytick_2">
     <g id="line2d_7">
      <g>
       <use xlink:href="#ma166182800" x="45" y="262.075425" style="stroke: #000000; stroke-width: 0.8"/>
      </g>
     </g>
     <g id="text_7">
      <!-- $\mathdefault{10^{-3}}$ -->
      <g transform="translate(14.5 265.874643)scale(0.1 -0.1)">
       <defs>
        <path id="DejaVuSans-33" d="M 2597 2516 
Q 3050 2419 3304 2112 
Q 3559 1806 3559 1356 
Q 3559 666 3084 287 
Q 2609 -91 1734 -91 
Q 1441 -91 1130 -33 
Q 819 25 488 141 
L 488 750 
Q 750 597 1062 519 
Q 1375 441 1716 441 
Q 2309 441 2620 675 
Q 2931 909 2931 1356 
Q 2931 1769 2642 2001 
Q 2353 2234 1838 2234 
L 1294 2234 
L 1294 2753 
L 1863 2753 
Q 2328 2753 2575 2939 
Q 2822 3125 2822 3475 
Q 2822 3834 2567 4026 
Q 2313 4219 1838 4219 
Q 1578 4219 1281 4162 
Q 984 4106 628 3988 
L 628 4550 
Q 988 4650 1302 4700 
Q 1616 4750 1894 4750 
Q 2613 4750 3031 4423 
Q 3450 4097 3450 3541 
Q 3450 3153 3228 2886 
Q 3006 2619 2597 2516 
z
" transform="scale(0.015625)"/>
       </defs>
       <use xlink:href="#DejaVuSans-31" transform="translate(0 0.765625)"/>
       <use xlink:href="#DejaVuSans-30" transform="translate(63.623047 0.765625)"/>
       <use xlink:href="#DejaVuSans-2212" transform="translate(128.203125 39.046875)scale(0.7)"/>
       <use xlink:href="#DejaVuSans-33" transform="translate(186.855469 39.046875)scale(0.7)"/>
      </g>
     </g>
    </g>
    <g id="ytick_3">
     <g id="line2d_8">
      <g>
       <use xlink:href="#ma166182800" x="45" y="213.435551" style="stroke: #000000; stroke-width: 0.8"/>
      </g>
     </g>
     <g id="text_8">
      <!-- $\mathdefault{10^{-2}}$ -->
      <g transform="translate(14.5 217.23477)scale(0.1 -0.1)">
       <use xlink:href="#DejaVuSans-31" transform="translate(0 0.765625)"/>
       <use xlink:href="#DejaVuSans-30" transform="translate(63.623047 0.765625)"/>
       <use xlink:href="#DejaVuSans-2212" transform="translate(128.203125 39.046875)scale(0.7)"/>
       <use xlink:href="#DejaVuSans-32" transform="translate(186.855469 39.046875)scale(0.7)"/>
      </g>
     </g>
    </g>
    <g id="ytick_4">
     <g id="line2d_9">
      <g>
       <use xlink:href="#ma166182800" x="45" y="164.795677" style="stroke: #000000; stroke-width: 0.8"/>
      </g>
     </g>
     <g id="text_9">
      <!-- $\mathdefault{10^{-1}}$ -->
      <g transform="translate(14.5 168.594896)scale(0.1 -0.1)">
       <use xlink:href="#DejaVuSans-31" transform="translate(0 0.684375)"/>
       <use xlink:href="#DejaVuSans-30" transform="translate(63.623047 0.684375)"/>
       <use xlink:href="#DejaVuSans-2212" transform="translate(128.203125 38.965625)scale(0.7)"/>
       <use xlink:href="#DejaVuSans-31" transform="translate(186.855469 38.965625)scale(0.7)"/>
      </g>
     </g>
    </g>
    <g id="ytick_5">
     <g id="line2d_10">
      <g>
       <use xlink:href="#ma166182800" x="45" y="116.155803" style="stroke: #000000; stroke-width: 0.8"/>
      </g>
     </g>
     <g id="text_10">
      <!-- $\mathdefault{10^{0}}$ -->
      <g transform="translate(20.4 119.955022)scale(0.1 -0.1)">
       <use xlink:href="#DejaVuSans-31" transform="translate(0 0.765625)"/>
       <use xlink:href="#DejaVuSans-30" transform="translate(63.623047 0.765625)"/>
       <use xlink:href="#DejaVuSans-30" transform="translate(128.203125 39.046875)scale(0.7)"/>
      </g>
     </g>
    </g>
    <g id="ytick_6">
     <g id="line2d_11">
      <g>
       <use xlink:href="#ma166182800" x="45" y="67.51593" style="stroke: #000000; stroke-width: 0.8"/>
      </g>
     </g>
     <g id="text_11">
      <!-- $\mathdefault{10^{1}}$ -->
      <g transform="translate(20.4 71.315148)scale(0.1 -0.1)">
       <use xlink:href="#DejaVuSans-31" transform="translate(0 0.684375)"/>
       <use xlink:href="#DejaVuSans-30" transform="translate(63.623047 0.684375)"/>
       <use xlink:href="#DejaVuSans-31" transform="translate(128.203125 38.965625)scale(0.7)"/>
      </g>
     </g>
    </g>
    <g id="ytick_7">
     <g id="line2d_12">
      <defs>
       <path id="m449be0c5ed" d="M 0 0 
L -2 0 
" style="stroke: #000000; stroke-width: 0.6"/>
      </defs>
      <g>
       <use xlink:href="#m449be0c5ed" x="45" y="318.24971" style="stroke: #000000; stroke-width: 0.6"/>
      </g>
     </g>
    </g>
    <g id="ytick_8">
     <g id="line2d_13">
      <g>
       <use xlink:href="#m449be0c5ed" x="45" y="315.428989" style="stroke: #000000; stroke-width: 0.6"/>
      </g>
     </g>
    </g>
    <g id="ytick_9">
     <g id="line2d_14">
      <g>
       <use xlink:href="#m449be0c5ed" x="45" y="312.940937" style="stroke: #000000; stroke-width: 0.6"/>
      </g>
     </g>
    </g>
    <g id="ytick_10">
     <g id="line2d_15">
      <g>
       <use xlink:href="#m449be0c5ed" x="45" y="296.073237" style="stroke: #000000; stroke-width: 0.6"/>
      </g>
     </g>
    </g>
    <g id="ytick_11">
     <g id="line2d_16">
      <g>
       <use xlink:href="#m449be0c5ed" x="45" y="287.508181" style="stroke: #000000; stroke-width: 0.6"/>
      </g>
     </g>
    </g>
    <g id="ytick_12">
     <g id="line2d_17">
      <g>
       <use xlink:href="#m449be0c5ed" x="45" y="281.431176" style="stroke: #000000; stroke-width: 0.6"/>
      </g>
     </g>
    </g>
    <g id="ytick_13">
     <g id="line2d_18">
      <g>
       <use xlink:href="#m449be0c5ed" x="45" y="276.717486" style="stroke: #000000; stroke-width: 0.6"/>
      </g>
     </g>
    </g>
    <g id="ytick_14">
     <g id="line2d_19">
      <g>
       <use xlink:href="#m449be0c5ed" x="45" y="272.86612" style="stroke: #000000; stroke-width: 0.6"/>
      </g>
     </g>
    </g>
    <g id="ytick_15">
     <g id="line2d_20">
      <g>
       <use xlink:href="#m449be0c5ed" x="45" y="269.609836" style="stroke: #000000; stroke-width: 0.6"/>
      </g>
     </g>
    </g>
    <g id="ytick_16">
     <g id="line2d_21">
      <g>
       <use xlink:href="#m449be0c5ed" x="45" y="266.789115" style="stroke: #000000; stroke-width: 0.6"/>
      </g>
     </g>
    </g>
    <g id="ytick_17">
     <g id="line2d_22">
      <g>
       <use xlink:href="#m449be0c5ed" x="45" y="264.301063" style="stroke: #000000; stroke-width: 0.6"/>
      </g>
     </g>
    </g>
    <g id="ytick_18">
     <g id="line2d_23">
      <g>
       <use xlink:href="#m449be0c5ed" x="45" y="247.433364" style="stroke: #000000; stroke-width: 0.6"/>
      </g>
     </g>
    </g>
    <g id="ytick_19">
     <g id="line2d_24">
      <g>
       <use xlink:href="#m449be0c5ed" x="45" y="238.868307" style="stroke: #000000; stroke-width: 0.6"/>
      </g>
     </g>
    </g>
    <g id="ytick_20">
     <g id="line2d_25">
      <g>
       <use xlink:href="#m449be0c5ed" x="45" y="232.791303" style="stroke: #000000; stroke-width: 0.6"/>
      </g>
     </g>
    </g>
    <g id="ytick_21">
     <g id="line2d_26">
      <g>
       <use xlink:href="#m449be0c5ed" x="45" y="228.077612" style="stroke: #000000; stroke-width: 0.6"/>
      </g>
     </g>
    </g>
    <g id="ytick_22">
     <g id="line2d_27">
      <g>
       <use xlink:href="#m449be0c5ed" x="45" y="224.226246" style="stroke: #000000; stroke-width: 0.6"/>
      </g>
     </g>
    </g>
    <g id="ytick_23">
     <g id="line2d_28">
      <g>
       <use xlink:href="#m449be0c5ed" x="45" y="220.969963" style="stroke: #000000; stroke-width: 0.6"/>
      </g>
     </g>
    </g>
    <g id="ytick_24">
     <g id="line2d_29">
      <g>
       <use xlink:href="#m449be0c5ed" x="45" y="218.149242" style="stroke: #000000; stroke-width: 0.6"/>
      </g>
     </g>
    </g>
    <g id="ytick_25">
     <g id="line2d_30">
      <g>
       <use xlink:href="#m449be0c5ed" x="45" y="215.661189" style="stroke: #000000; stroke-width: 0.6"/>
      </g>
     </g>
    </g>
    <g id="ytick_26">
     <g id="line2d_31">
      <g>
       <use xlink:href="#m449be0c5ed" x="45" y="198.79349" style="stroke: #000000; stroke-width: 0.6"/>
      </g>
     </g>
    </g>
    <g id="ytick_27">
     <g id="line2d_32">
      <g>
       <use xlink:href="#m449be0c5ed" x="45" y="190.228433" style="stroke: #000000; stroke-width: 0.6"/>
      </g>
     </g>
    </g>
    <g id="ytick_28">
     <g id="line2d_33">
      <g>
       <use xlink:href="#m449be0c5ed" x="45" y="184.151429" style="stroke: #000000; stroke-width: 0.6"/>
      </g>
     </g>
    </g>
    <g id="ytick_29">
     <g id="line2d_34">
      <g>
       <use xlink:href="#m449be0c5ed" x="45" y="179.437738" style="stroke: #000000; stroke-width: 0.6"/>
      </g>
     </g>
    </g>
    <g id="ytick_30">
     <g id="line2d_35">
      <g>
       <use xlink:href="#m449be0c5ed" x="45" y="175.586372" style="stroke: #000000; stroke-width: 0.6"/>
      </g>
     </g>
    </g>
    <g id="ytick_31">
     <g id="line2d_36">
      <g>
       <use xlink:href="#m449be0c5ed" x="45" y="172.330089" style="stroke: #000000; stroke-width: 0.6"/>
      </g>
     </g>
    </g>
    <g id="ytick_32">
     <g id="line2d_37">
      <g>
       <use xlink:href="#m449be0c5ed" x="45" y="169.509368" style="stroke: #000000; stroke-width: 0.6"/>
      </g>
     </g>
    </g>
    <g id="ytick_33">
     <g id="line2d_38">
      <g>
       <use xlink:href="#m449be0c5ed" x="45" y="167.021316" style="stroke: #000000; stroke-width: 0.6"/>
      </g>
     </g>
    </g>
    <g id="ytick_34">
     <g id="line2d_39">
      <g>
       <use xlink:href="#m449be0c5ed" x="45" y="150.153616" style="stroke: #000000; stroke-width: 0.6"/>
      </g>
     </g>
    </g>
    <g id="ytick_35">
     <g id="line2d_40">
      <g>
       <use xlink:href="#m449be0c5ed" x="45" y="141.588559" style="stroke: #000000; stroke-width: 0.6"/>
      </g>
     </g>
    </g>
    <g id="ytick_36">
     <g id="line2d_41">
      <g>
       <use xlink:href="#m449be0c5ed" x="45" y="135.511555" style="stroke: #000000; stroke-width: 0.6"/>
      </g>
     </g>
    </g>
    <g id="ytick_37">
     <g id="line2d_42">
      <g>
       <use xlink:href="#m449be0c5ed" x="45" y="130.797864" style="stroke: #000000; stroke-width: 0.6"/>
      </g>
     </g>
    </g>
    <g id="ytick_38">
     <g id="line2d_43">
      <g>
       <use xlink:href="#m449be0c5ed" x="45" y="126.946498" style="stroke: #000000; stroke-width: 0.6"/>
      </g>
     </g>
    </g>
    <g id="ytick_39">
     <g id="line2d_44">
      <g>
       <use xlink:href="#m449be0c5ed" x="45" y="123.690215" style="stroke: #000000; stroke-width: 0.6"/>
      </g>
     </g>
    </g>
    <g id="ytick_40">
     <g id="line2d_45">
      <g>
       <use xlink:href="#m449be0c5ed" x="45" y="120.869494" style="stroke: #000000; stroke-width: 0.6"/>
      </g>
     </g>
    </g>
    <g id="ytick_41">
     <g id="line2d_46">
      <g>
       <use xlink:href="#m449be0c5ed" x="45" y="118.381442" style="stroke: #000000; stroke-width: 0.6"/>
      </g>
     </g>
    </g>
    <g id="ytick_42">
     <g id="line2d_47">
      <g>
       <use xlink:href="#m449be0c5ed" x="45" y="101.513742" style="stroke: #000000; stroke-width: 0.6"/>
      </g>
     </g>
    </g>
    <g id="ytick_43">
     <g id="line2d_48">
      <g>
       <use xlink:href="#m449be0c5ed" x="45" y="92.948686" style="stroke: #000000; stroke-width: 0.6"/>
      </g>
     </g>
    </g>
    <g id="ytick_44">
     <g id="line2d_49">
      <g>
       <use xlink:href="#m449be0c5ed" x="45" y="86.871681" style="stroke: #000000; stroke-width: 0.6"/>
      </g>
     </g>
    </g>
    <g id="ytick_45">
     <g id="line2d_50">
      <g>
       <use xlink:href="#m449be0c5ed" x="45" y="82.157991" style="stroke: #000000; stroke-width: 0.6"/>
      </g>
     </g>
    </g>
    <g id="ytick_46">
     <g id="line2d_51">
      <g>
       <use xlink:href="#m449be0c5ed" x="45" y="78.306625" style="stroke: #000000; stroke-width: 0.6"/>
      </g>
     </g>
    </g>
    <g id="ytick_47">
     <g id="line2d_52">
      <g>
       <use xlink:href="#m449be0c5ed" x="45" y="75.050341" style="stroke: #000000; stroke-width: 0.6"/>
      </g>
     </g>
    </g>
    <g id="ytick_48">
     <g id="line2d_53">
      <g>
       <use xlink:href="#m449be0c5ed" x="45" y="72.22962" style="stroke: #000000; stroke-width: 0.6"/>
      </g>
     </g>
    </g>
    <g id="ytick_49">
     <g id="line2d_54">
      <g>
       <use xlink:href="#m449be0c5ed" x="45" y="69.741568" style="stroke: #000000; stroke-width: 0.6"/>
      </g>
     </g>
    </g>
    <g id="ytick_50">
     <g id="line2d_55">
      <g>
       <use xlink:href="#m449be0c5ed" x="45" y="52.873869" style="stroke: #000000; stroke-width: 0.6"/>
      </g>
     </g>
    </g>
    <g id="ytick_51">
     <g id="line2d_56">
      <g>
       <use xlink:href="#m449be0c5ed" x="45" y="44.308812" style="stroke: #000000; stroke-width: 0.6"/>
      </g>
     </g>
    </g>
   </g>
   <g id="line2d_57">
    <path d="M 83.045455 116.612812 
L 84.062545 122.889149 
L 84.571087 126.204929 
L 85.588177 134.566922 
L 86.605262 145.386774 
L 87.11381 152.602292 
L 87.622352 164.176537 
L 88.1309 179.170453 
L 88.639442 222.023634 
L 89.147985 178.780318 
L 89.656533 165.581747 
L 90.165075 159.136742 
L 90.673617 154.267984 
L 91.690701 149.129806 
L 92.199249 147.232286 
L 92.707792 146.419898 
L 93.216334 145.342926 
L 94.233424 144.700607 
L 94.741966 145.159657 
L 95.250514 144.775103 
L 96.776147 146.483405 
L 97.284689 147.63686 
L 97.793237 148.083483 
L 98.301779 150.122208 
L 98.810322 150.395117 
L 99.318864 152.61577 
L 100.335954 154.855259 
L 100.844496 157.103674 
L 101.353038 158.436568 
L 101.861587 160.733245 
L 102.878671 163.32539 
L 103.387219 165.774631 
L 103.895761 167.002497 
L 104.912852 172.219842 
L 105.421394 173.520881 
L 105.929942 173.496156 
L 106.438484 176.69427 
L 106.947026 177.257938 
L 107.455574 179.013493 
L 107.964117 177.615522 
L 108.472665 177.443689 
L 108.981207 178.990227 
L 109.489749 178.342607 
L 109.998297 181.707236 
L 110.506839 180.212632 
L 111.015382 180.041813 
L 111.523924 179.25197 
L 112.032466 177.907059 
L 112.541014 178.756347 
L 113.049556 175.179141 
L 113.558098 175.764641 
L 114.066646 173.733132 
L 114.575189 174.60174 
L 115.083731 172.808103 
L 115.592273 173.117453 
L 116.100815 171.681122 
L 116.609363 172.621324 
L 117.117905 170.033164 
L 118.134996 169.183444 
L 118.643538 170.870479 
L 119.15208 169.823347 
L 119.660628 170.489124 
L 120.16917 168.05183 
L 120.677719 167.825247 
L 121.694803 168.414472 
L 122.203351 170.050737 
L 122.711893 170.321569 
L 123.220435 171.428049 
L 123.728984 170.07342 
L 124.237526 170.456889 
L 124.746074 172.980338 
L 125.254616 172.424673 
L 125.763158 175.077257 
L 126.271706 174.817114 
L 126.780249 177.639228 
L 127.288791 176.598879 
L 127.797333 178.775999 
L 128.305875 182.585235 
L 128.814423 184.753094 
L 129.322965 186.168829 
L 130.340056 197.247695 
L 130.848598 195.587362 
L 131.35714 202.266033 
L 131.865688 231.246397 
L 132.37423 227.603432 
L 132.882779 289.880984 
L 133.391321 241.451402 
L 133.899866 213.349524 
L 134.408408 199.331695 
L 134.916953 195.990978 
L 135.425495 194.081652 
L 135.934037 187.753541 
L 136.442583 186.966257 
L 136.951125 184.794045 
L 137.45967 181.809925 
L 137.968215 180.644445 
L 138.476757 178.483858 
L 138.985302 174.189943 
L 139.493845 174.438502 
L 140.002393 173.277787 
L 140.510938 174.432668 
L 142.03657 170.996684 
L 142.545113 172.171142 
L 143.053658 171.292301 
L 143.5622 171.43431 
L 144.070742 170.599616 
L 144.579287 171.263059 
L 145.087829 171.083674 
L 145.596375 172.355047 
L 147.122007 173.798396 
L 147.630549 175.518887 
L 148.139097 173.866501 
L 148.647643 176.927278 
L 149.156185 176.422544 
L 149.66473 179.154477 
L 150.173275 183.977281 
L 150.681817 182.527851 
L 151.190362 188.039607 
L 151.698904 192.128523 
L 152.715998 207.655689 
L 153.22454 206.784364 
L 154.24163 245.557991 
L 154.750172 213.458348 
L 155.258718 217.291954 
L 155.76726 196.901096 
L 158.30998 182.394863 
L 158.818522 176.464548 
L 159.327067 176.408673 
L 159.835611 173.485051 
L 160.344157 172.454202 
L 160.852701 170.196766 
L 161.361246 171.295226 
L 161.86979 168.028187 
L 162.378333 168.674471 
L 162.886877 167.600604 
L 163.395422 166.839069 
L 163.903966 165.257754 
L 164.412507 166.339172 
L 164.92105 165.13713 
L 165.429595 164.6956 
L 165.938139 163.411694 
L 166.446683 164.557162 
L 166.955226 163.870291 
L 167.463772 163.537013 
L 167.972315 164.942472 
L 168.989406 163.805339 
L 169.497951 164.117959 
L 170.006494 164.937036 
L 170.515038 166.024536 
L 171.023582 165.623017 
L 171.532127 165.837759 
L 172.040671 166.735721 
L 172.549211 166.981013 
L 173.057756 169.158526 
L 173.566299 170.670549 
L 174.074844 169.359801 
L 174.583387 172.092528 
L 175.091932 173.796964 
L 175.600476 174.630331 
L 176.10902 175.186225 
L 176.617566 178.469539 
L 177.634655 182.107194 
L 178.143199 182.997429 
L 178.651743 185.17107 
L 179.160287 189.070386 
L 179.668831 191.257392 
L 180.177375 194.338603 
L 181.194466 213.092654 
L 181.70301 211.944811 
L 182.211554 220.221437 
L 182.720098 246.464747 
L 183.228642 255.75158 
L 183.737186 222.54213 
L 184.24573 213.086863 
L 184.754271 219.506008 
L 185.771359 196.593745 
L 186.279903 196.234492 
L 186.788447 196.031203 
L 187.296991 196.581804 
L 187.805536 194.853149 
L 188.31408 194.615387 
L 189.33117 188.102124 
L 189.839714 186.603823 
L 190.348259 186.719123 
L 190.856803 190.852394 
L 191.365347 189.725894 
L 191.873891 188.295747 
L 192.382435 185.129767 
L 192.890976 187.881186 
L 193.39952 189.725796 
L 193.908064 188.169181 
L 194.416608 191.789328 
L 194.925152 194.010893 
L 195.433696 190.009835 
L 195.942241 196.270529 
L 196.450784 197.002737 
L 196.959331 204.066268 
L 197.467875 197.245729 
L 197.97642 199.409177 
L 198.484963 205.183737 
L 198.993507 222.026215 
L 199.502051 244.672949 
L 200.010596 307.8 
L 200.51914 229.064332 
L 201.027686 293.106453 
L 202.044775 223.634344 
L 202.553319 211.60726 
L 203.570406 196.019832 
L 204.587495 189.859647 
L 205.096036 192.296363 
L 205.604579 186.93168 
L 206.113124 185.835306 
L 206.621668 183.088153 
L 207.130212 182.482788 
L 207.638755 179.862825 
L 208.147301 178.703756 
L 208.655844 179.540599 
L 209.164391 177.155841 
L 209.672935 177.885859 
L 210.181478 175.219038 
L 210.690023 173.725068 
L 211.198569 173.894328 
L 211.707111 172.740505 
L 212.215656 172.419571 
L 212.724198 170.954348 
L 213.23274 172.709452 
L 213.741285 170.467538 
L 214.249828 171.825427 
L 214.758373 171.449376 
L 215.266918 171.581105 
L 215.77546 169.355322 
L 216.284005 171.269237 
L 216.792547 169.558954 
L 217.301096 170.694263 
L 217.809641 171.550316 
L 218.318183 170.135746 
L 218.826728 170.476987 
L 219.335273 170.38664 
L 219.843815 169.834411 
L 220.35236 172.028238 
L 220.860903 170.324749 
L 221.369445 173.160087 
L 221.87799 173.938855 
L 222.386532 174.932954 
L 222.895077 173.699136 
L 223.403622 173.520988 
L 223.912165 176.166552 
L 224.42071 177.811201 
L 224.929252 176.000999 
L 225.4378 178.642476 
L 225.946345 179.208413 
L 226.454887 181.853516 
L 226.963433 182.58237 
L 227.98052 187.137911 
L 228.489065 187.610472 
L 228.997607 197.707083 
L 229.506149 202.462782 
L 230.014695 201.573074 
L 231.031782 213.376125 
L 231.540327 218.113031 
L 232.048869 233.780873 
L 232.557414 219.505224 
L 233.065957 219.426695 
L 234.08305 199.640983 
L 235.100137 192.203081 
L 235.608679 187.745957 
L 237.134312 181.735854 
L 237.64286 180.479995 
L 238.151402 175.519749 
L 238.65995 176.219212 
L 239.168493 173.67812 
L 239.677035 173.381781 
L 240.694125 169.370952 
L 241.202667 169.070305 
L 241.711209 169.944627 
L 242.219751 167.541957 
L 242.7283 166.220914 
L 243.236842 166.392774 
L 244.253932 164.601694 
L 244.762474 165.414206 
L 245.271016 164.687281 
L 245.779559 165.375854 
L 246.288101 164.647414 
L 246.796649 163.550517 
L 247.305191 163.721492 
L 247.813733 164.920342 
L 248.322281 165.198474 
L 248.830824 165.252751 
L 249.339366 165.857742 
L 249.84792 165.987789 
L 250.356462 165.868072 
L 250.86501 165.408585 
L 251.373552 166.640855 
L 251.882095 168.586086 
L 252.390643 169.646785 
L 252.899185 169.084651 
L 253.407727 172.15384 
L 253.916269 172.825508 
L 254.424811 173.702644 
L 254.93336 177.577948 
L 255.441902 179.607438 
L 255.950444 182.892314 
L 256.458992 187.600596 
L 256.967534 194.584584 
L 257.476076 206.624185 
L 257.984618 227.743358 
L 258.493161 237.877443 
L 259.001709 225.462943 
L 259.510251 195.531659 
L 260.018793 186.903628 
L 260.527341 183.247355 
L 261.035883 178.154561 
L 263.070064 163.078878 
L 263.578606 161.692883 
L 264.087148 159.89645 
L 265.104239 155.143289 
L 265.612781 154.465939 
L 266.121329 152.095306 
L 267.138419 149.138341 
L 267.646962 148.429965 
L 269.172594 145.538157 
L 269.681136 144.357557 
L 270.189678 143.604242 
L 271.206769 143.211068 
L 271.715311 142.677337 
L 272.223853 141.955911 
L 272.732401 141.928993 
L 273.240943 141.639603 
L 273.749486 141.780278 
L 274.766576 142.680024 
L 275.275124 143.302872 
L 275.783666 143.340427 
L 276.292208 144.903072 
L 276.800757 145.537218 
L 278.326383 151.918167 
L 279.343473 159.134142 
L 279.852015 166.093552 
L 280.360558 179.050883 
L 280.869106 208.717026 
L 281.88619 168.350705 
L 282.394738 156.802085 
L 283.411829 143.745541 
L 284.937461 130.810011 
L 285.954545 124.341622 
L 285.954545 124.341622 
" clip-path="url(#p637cea22dc)" style="fill: none; stroke: #1f77b4; stroke-width: 1.5; stroke-linecap: square"/>
   </g>
   <g id="line2d_58">
    <path d="M 57.681818 55.8 
L 60.852273 59.859047 
L 64.022727 64.488122 
L 67.193182 69.667034 
L 70.363636 75.662481 
L 73.534091 82.82303 
L 76.704545 91.420849 
L 79.875 102.117829 
L 83.045455 117.082092 
L 86.215909 139.879869 
L 89.386364 165.826013 
L 92.556818 144.260683 
L 95.727273 149.088031 
L 98.897727 152.376049 
L 102.068182 167.608595 
L 105.238636 166.311777 
L 108.409091 174.111128 
L 111.579545 194.929138 
L 114.75 168.07144 
L 117.920455 165.938471 
L 121.090909 173.650377 
L 124.261364 172.161804 
L 127.431818 173.462395 
L 130.602273 187.974127 
L 133.772727 169.398765 
L 136.943182 168.876586 
L 140.113636 166.744788 
L 143.284091 173.659953 
L 146.454545 167.019668 
L 149.625 164.457145 
L 152.795455 169.190103 
L 155.965909 205.97167 
L 159.136364 187.024195 
L 162.306818 204.996429 
L 165.477273 165.345326 
L 168.647727 193.073809 
L 171.818182 174.250706 
L 174.988636 198.309648 
L 178.159091 240.298618 
L 181.329545 183.580665 
L 184.5 182.763553 
L 187.670455 163.120555 
L 190.840909 171.142137 
L 194.011364 163.349537 
L 197.181818 164.889582 
L 200.352273 233.058038 
L 203.522727 187.247008 
L 206.693182 203.469258 
L 209.863636 220.205853 
L 213.034091 164.660722 
L 216.204545 171.100135 
L 219.375 161.222687 
L 222.545455 164.85271 
L 225.715909 189.903369 
L 228.886364 257.766399 
L 232.056818 192.793362 
L 235.227273 186.808262 
L 238.397727 159.674855 
L 241.568182 161.450484 
L 244.738636 164.369882 
L 247.909091 157.757022 
L 251.079545 156.059628 
L 254.25 158.15352 
L 257.420455 180.986232 
L 260.590909 181.105143 
L 263.761364 174.070432 
L 266.931818 156.34795 
L 270.102273 151.255322 
L 273.272727 158.951457 
L 276.443182 167.889509 
L 279.613636 171.394254 
L 282.784091 137.472987 
L 285.954545 119.014293 
L 289.125 106.682135 
L 292.295455 96.326169 
L 295.465909 87.260225 
L 298.636364 80.049747 
L 301.806818 73.554202 
L 304.977273 67.752417 
L 308.147727 62.566007 
L 311.318182 57.913372 
" clip-path="url(#p637cea22dc)" style="fill: none; stroke: #ff7f0e; stroke-width: 1.5; stroke-linecap: square"/>
   </g>
   <g id="patch_3">
    <path d="M 45 320.4 
L 45 43.2 
" style="fill: none; stroke: #000000; stroke-width: 0.8; stroke-linejoin: miter; stroke-linecap: square"/>
   </g>
   <g id="patch_4">
    <path d="M 324 320.4 
L 324 43.2 
" style="fill: none; stroke: #000000; stroke-width: 0.8; stroke-linejoin: miter; stroke-linecap: square"/>
   </g>
   <g id="patch_5">
    <path d="M 45 320.4 
L 324 320.4 
" style="fill: none; stroke: #000000; stroke-width: 0.8; stroke-linejoin: miter; stroke-linecap: square"/>
   </g>
   <g id="patch_6">
    <path d="M 45 43.2 
L 324 43.2 
" style="fill: none; stroke: #000000; stroke-width: 0.8; stroke-linejoin: miter; stroke-linecap: square"/>
   </g>
   <g id="text_12">
    <!-- Prediction Error -->
    <g transform="translate(138.166875 37.2)scale(0.12 -0.12)">
     <defs>
      <path id="DejaVuSans-50" d="M 1259 4147 
L 1259 2394 
L 2053 2394 
Q 2494 2394 2734 2622 
Q 2975 2850 2975 3272 
Q 2975 3691 2734 3919 
Q 2494 4147 2053 4147 
L 1259 4147 
z
M 628 4666 
L 2053 4666 
Q 2838 4666 3239 4311 
Q 3641 3956 3641 3272 
Q 3641 2581 3239 2228 
Q 2838 1875 2053 1875 
L 1259 1875 
L 1259 0 
L 628 0 
L 628 4666 
z
" transform="scale(0.015625)"/>
      <path id="DejaVuSans-72" d="M 2631 2963 
Q 2534 3019 2420 3045 
Q 2306 3072 2169 3072 
Q 1681 3072 1420 2755 
Q 1159 2438 1159 1844 
L 1159 0 
L 581 0 
L 581 3500 
L 1159 3500 
L 1159 2956 
Q 1341 3275 1631 3429 
Q 1922 3584 2338 3584 
Q 2397 3584 2469 3576 
Q 2541 3569 2628 3553 
L 2631 2963 
z
" transform="scale(0.015625)"/>
      <path id="DejaVuSans-65" d="M 3597 1894 
L 3597 1613 
L 953 1613 
Q 991 1019 1311 708 
Q 1631 397 2203 397 
Q 2534 397 2845 478 
Q 3156 559 3463 722 
L 3463 178 
Q 3153 47 2828 -22 
Q 2503 -91 2169 -91 
Q 1331 -91 842 396 
Q 353 884 353 1716 
Q 353 2575 817 3079 
Q 1281 3584 2069 3584 
Q 2775 3584 3186 3129 
Q 3597 2675 3597 1894 
z
M 3022 2063 
Q 3016 2534 2758 2815 
Q 2500 3097 2075 3097 
Q 1594 3097 1305 2825 
Q 1016 2553 972 2059 
L 3022 2063 
z
" transform="scale(0.015625)"/>
      <path id="DejaVuSans-64" d="M 2906 2969 
L 2906 4863 
L 3481 4863 
L 3481 0 
L 2906 0 
L 2906 525 
Q 2725 213 2448 61 
Q 2172 -91 1784 -91 
Q 1150 -91 751 415 
Q 353 922 353 1747 
Q 353 2572 751 3078 
Q 1150 3584 1784 3584 
Q 2172 3584 2448 3432 
Q 2725 3281 2906 2969 
z
M 947 1747 
Q 947 1113 1208 752 
Q 1469 391 1925 391 
Q 2381 391 2643 752 
Q 2906 1113 2906 1747 
Q 2906 2381 2643 2742 
Q 2381 3103 1925 3103 
Q 1469 3103 1208 2742 
Q 947 2381 947 1747 
z
" transform="scale(0.015625)"/>
      <path id="DejaVuSans-69" d="M 603 3500 
L 1178 3500 
L 1178 0 
L 603 0 
L 603 3500 
z
M 603 4863 
L 1178 4863 
L 1178 4134 
L 603 4134 
L 603 4863 
z
" transform="scale(0.015625)"/>
      <path id="DejaVuSans-63" d="M 3122 3366 
L 3122 2828 
Q 2878 2963 2633 3030 
Q 2388 3097 2138 3097 
Q 1578 3097 1268 2742 
Q 959 2388 959 1747 
Q 959 1106 1268 751 
Q 1578 397 2138 397 
Q 2388 397 2633 464 
Q 2878 531 3122 666 
L 3122 134 
Q 2881 22 2623 -34 
Q 2366 -91 2075 -91 
Q 1284 -91 818 406 
Q 353 903 353 1747 
Q 353 2603 823 3093 
Q 1294 3584 2113 3584 
Q 2378 3584 2631 3529 
Q 2884 3475 3122 3366 
z
" transform="scale(0.015625)"/>
      <path id="DejaVuSans-74" d="M 1172 4494 
L 1172 3500 
L 2356 3500 
L 2356 3053 
L 1172 3053 
L 1172 1153 
Q 1172 725 1289 603 
Q 1406 481 1766 481 
L 2356 481 
L 2356 0 
L 1766 0 
Q 1100 0 847 248 
Q 594 497 594 1153 
L 594 3053 
L 172 3053 
L 172 3500 
L 594 3500 
L 594 4494 
L 1172 4494 
z
" transform="scale(0.015625)"/>
      <path id="DejaVuSans-6f" d="M 1959 3097 
Q 1497 3097 1228 2736 
Q 959 2375 959 1747 
Q 959 1119 1226 758 
Q 1494 397 1959 397 
Q 2419 397 2687 759 
Q 2956 1122 2956 1747 
Q 2956 2369 2687 2733 
Q 2419 3097 1959 3097 
z
M 1959 3584 
Q 2709 3584 3137 3096 
Q 3566 2609 3566 1747 
Q 3566 888 3137 398 
Q 2709 -91 1959 -91 
Q 1206 -91 779 398 
Q 353 888 353 1747 
Q 353 2609 779 3096 
Q 1206 3584 1959 3584 
z
" transform="scale(0.015625)"/>
      <path id="DejaVuSans-6e" d="M 3513 2113 
L 3513 0 
L 2938 0 
L 2938 2094 
Q 2938 2591 2744 2837 
Q 2550 3084 2163 3084 
Q 1697 3084 1428 2787 
Q 1159 2491 1159 1978 
L 1159 0 
L 581 0 
L 581 3500 
L 1159 3500 
L 1159 2956 
Q 1366 3272 1645 3428 
Q 1925 3584 2291 3584 
Q 2894 3584 3203 3211 
Q 3513 2838 3513 2113 
z
" transform="scale(0.015625)"/>
      <path id="DejaVuSans-20" transform="scale(0.015625)"/>
      <path id="DejaVuSans-45" d="M 628 4666 
L 3578 4666 
L 3578 4134 
L 1259 4134 
L 1259 2753 
L 3481 2753 
L 3481 2222 
L 1259 2222 
L 1259 531 
L 3634 531 
L 3634 0 
L 628 0 
L 628 4666 
z
" transform="scale(0.015625)"/>
     </defs>
     <use xlink:href="#DejaVuSans-50"/>
     <use xlink:href="#DejaVuSans-72" x="58.552734"/>
     <use xlink:href="#DejaVuSans-65" x="97.416016"/>
     <use xlink:href="#DejaVuSans-64" x="158.939453"/>
     <use xlink:href="#DejaVuSans-69" x="222.416016"/>
     <use xlink:href="#DejaVuSans-63" x="250.199219"/>
     <use xlink:href="#DejaVuSans-74" x="305.179688"/>
     <use xlink:href="#DejaVuSans-69" x="344.388672"/>
     <use xlink:href="#DejaVuSans-6f" x="372.171875"/>
     <use xlink:href="#DejaVuSans-6e" x="433.353516"/>
     <use xlink:href="#DejaVuSans-20" x="496.732422"/>
     <use xlink:href="#DejaVuSans-45" x="528.519531"/>
     <use xlink:href="#DejaVuSans-72" x="591.703125"/>
     <use xlink:href="#DejaVuSans-72" x="631.066406"/>
     <use xlink:href="#DejaVuSans-6f" x="669.929688"/>
     <use xlink:href="#DejaVuSans-72" x="731.111328"/>
    </g>
   </g>
   <g id="legend_1">
    <g id="patch_7">
     <path d="M 234.342187 315.4 
L 317 315.4 
Q 319 315.4 319 313.4 
L 319 285.04375 
Q 319 283.04375 317 283.04375 
L 234.342187 283.04375 
Q 232.342187 283.04375 232.342187 285.04375 
L 232.342187 313.4 
Q 232.342187 315.4 234.342187 315.4 
z
" style="fill: #ffffff; opacity: 0.8; stroke: #cccccc; stroke-linejoin: miter"/>
    </g>
    <g id="line2d_59">
     <path d="M 236.342187 291.142187 
L 246.342187 291.142187 
L 256.342188 291.142187 
" style="fill: none; stroke: #1f77b4; stroke-width: 1.5; stroke-linecap: square"/>
    </g>
    <g id="text_13">
     <!-- train error -->
     <g transform="translate(264.342188 294.642187)scale(0.1 -0.1)">
      <defs>
       <path id="DejaVuSans-61" d="M 2194 1759 
Q 1497 1759 1228 1600 
Q 959 1441 959 1056 
Q 959 750 1161 570 
Q 1363 391 1709 391 
Q 2188 391 2477 730 
Q 2766 1069 2766 1631 
L 2766 1759 
L 2194 1759 
z
M 3341 1997 
L 3341 0 
L 2766 0 
L 2766 531 
Q 2569 213 2275 61 
Q 1981 -91 1556 -91 
Q 1019 -91 701 211 
Q 384 513 384 1019 
Q 384 1609 779 1909 
Q 1175 2209 1959 2209 
L 2766 2209 
L 2766 2266 
Q 2766 2663 2505 2880 
Q 2244 3097 1772 3097 
Q 1472 3097 1187 3025 
Q 903 2953 641 2809 
L 641 3341 
Q 956 3463 1253 3523 
Q 1550 3584 1831 3584 
Q 2591 3584 2966 3190 
Q 3341 2797 3341 1997 
z
" transform="scale(0.015625)"/>
      </defs>
      <use xlink:href="#DejaVuSans-74"/>
      <use xlink:href="#DejaVuSans-72" x="39.208984"/>
      <use xlink:href="#DejaVuSans-61" x="80.322266"/>
      <use xlink:href="#DejaVuSans-69" x="141.601562"/>
      <use xlink:href="#DejaVuSans-6e" x="169.384766"/>
      <use xlink:href="#DejaVuSans-20" x="232.763672"/>
      <use xlink:href="#DejaVuSans-65" x="264.550781"/>
      <use xlink:href="#DejaVuSans-72" x="326.074219"/>
      <use xlink:href="#DejaVuSans-72" x="365.4375"/>
      <use xlink:href="#DejaVuSans-6f" x="404.300781"/>
      <use xlink:href="#DejaVuSans-72" x="465.482422"/>
     </g>
    </g>
    <g id="line2d_60">
     <path d="M 236.342187 305.820312 
L 246.342187 305.820312 
L 256.342188 305.820312 
" style="fill: none; stroke: #ff7f0e; stroke-width: 1.5; stroke-linecap: square"/>
    </g>
    <g id="text_14">
     <!-- test error -->
     <g transform="translate(264.342188 309.320312)scale(0.1 -0.1)">
      <defs>
       <path id="DejaVuSans-73" d="M 2834 3397 
L 2834 2853 
Q 2591 2978 2328 3040 
Q 2066 3103 1784 3103 
Q 1356 3103 1142 2972 
Q 928 2841 928 2578 
Q 928 2378 1081 2264 
Q 1234 2150 1697 2047 
L 1894 2003 
Q 2506 1872 2764 1633 
Q 3022 1394 3022 966 
Q 3022 478 2636 193 
Q 2250 -91 1575 -91 
Q 1294 -91 989 -36 
Q 684 19 347 128 
L 347 722 
Q 666 556 975 473 
Q 1284 391 1588 391 
Q 1994 391 2212 530 
Q 2431 669 2431 922 
Q 2431 1156 2273 1281 
Q 2116 1406 1581 1522 
L 1381 1569 
Q 847 1681 609 1914 
Q 372 2147 372 2553 
Q 372 3047 722 3315 
Q 1072 3584 1716 3584 
Q 2034 3584 2315 3537 
Q 2597 3491 2834 3397 
z
" transform="scale(0.015625)"/>
      </defs>
      <use xlink:href="#DejaVuSans-74"/>
      <use xlink:href="#DejaVuSans-65" x="39.208984"/>
      <use xlink:href="#DejaVuSans-73" x="100.732422"/>
      <use xlink:href="#DejaVuSans-74" x="152.832031"/>
      <use xlink:href="#DejaVuSans-20" x="192.041016"/>
      <use xlink:href="#DejaVuSans-65" x="223.828125"/>
      <use xlink:href="#DejaVuSans-72" x="285.351562"/>
      <use xlink:href="#DejaVuSans-72" x="324.714844"/>
      <use xlink:href="#DejaVuSans-6f" x="363.578125"/>
      <use xlink:href="#DejaVuSans-72" x="424.759766"/>
     </g>
    </g>
   </g>
  </g>
 </g>
 <defs>
  <clipPath id="p637cea22dc">
   <rect x="45" y="43.2" width="279" height="277.2"/>
  </clipPath>
 </defs>
</svg>
