<?xml version="1.0" encoding="utf-8" standalone="no"?>
<!DOCTYPE svg PUBLIC "-//W3C//DTD SVG 1.1//EN"
  "http://www.w3.org/Graphics/SVG/1.1/DTD/svg11.dtd">
<svg xmlns:xlink="http://www.w3.org/1999/xlink" width="360pt" height="360pt" viewBox="0 0 360 360" xmlns="http://www.w3.org/2000/svg" version="1.1">
 <metadata>
  <rdf:RDF xmlns:dc="http://purl.org/dc/elements/1.1/" xmlns:cc="http://creativecommons.org/ns#" xmlns:rdf="http://www.w3.org/1999/02/22-rdf-syntax-ns#">
   <cc:Work>
    <dc:type rdf:resource="http://purl.org/dc/dcmitype/StillImage"/>
    <dc:date>2022-11-10T20:04:51.023814</dc:date>
    <dc:format>image/svg+xml</dc:format>
    <dc:creator>
     <cc:Agent>
      <dc:title>Matplotlib v3.5.3, https://matplotlib.org/</dc:title>
     </cc:Agent>
    </dc:creator>
   </cc:Work>
  </rdf:RDF>
 </metadata>
 <defs>
  <style type="text/css">*{stroke-linejoin: round; stroke-linecap: butt}</style>
 </defs>
 <g id="figure_1">
  <g id="patch_1">
   <path d="M 0 360 
L 360 360 
L 360 0 
L 0 0 
z
" style="fill: #ffffff"/>
  </g>
  <g id="axes_1">
   <g id="patch_2">
    <path d="M 45 320.4 
L 324 320.4 
L 324 43.2 
L 45 43.2 
z
" style="fill: #ffffff"/>
   </g>
   <g id="matplotlib.axis_1">
    <g id="xtick_1">
     <g id="line2d_1">
      <defs>
       <path id="mf3a79a308d" d="M 0 0 
L 0 3.5 
" style="stroke: #000000; stroke-width: 0.8"/>
      </defs>
      <g>
       <use xlink:href="#mf3a79a308d" x="83.045455" y="320.4" style="stroke: #000000; stroke-width: 0.8"/>
      </g>
     </g>
     <g id="text_1">
      <!-- −2 -->
      <g transform="translate(75.674361 334.998438)scale(0.1 -0.1)">
       <defs>
        <path id="DejaVuSans-2212" d="M 678 2272 
L 4684 2272 
L 4684 1741 
L 678 1741 
L 678 2272 
z
" transform="scale(0.015625)"/>
        <path id="DejaVuSans-32" d="M 1228 531 
L 3431 531 
L 3431 0 
L 469 0 
L 469 531 
Q 828 903 1448 1529 
Q 2069 2156 2228 2338 
Q 2531 2678 2651 2914 
Q 2772 3150 2772 3378 
Q 2772 3750 2511 3984 
Q 2250 4219 1831 4219 
Q 1534 4219 1204 4116 
Q 875 4013 500 3803 
L 500 4441 
Q 881 4594 1212 4672 
Q 1544 4750 1819 4750 
Q 2544 4750 2975 4387 
Q 3406 4025 3406 3419 
Q 3406 3131 3298 2873 
Q 3191 2616 2906 2266 
Q 2828 2175 2409 1742 
Q 1991 1309 1228 531 
z
" transform="scale(0.015625)"/>
       </defs>
       <use xlink:href="#DejaVuSans-2212"/>
       <use xlink:href="#DejaVuSans-32" x="83.789062"/>
      </g>
     </g>
    </g>
    <g id="xtick_2">
     <g id="line2d_2">
      <g>
       <use xlink:href="#mf3a79a308d" x="133.772727" y="320.4" style="stroke: #000000; stroke-width: 0.8"/>
      </g>
     </g>
     <g id="text_2">
      <!-- −1 -->
      <g transform="translate(126.401634 334.998438)scale(0.1 -0.1)">
       <defs>
        <path id="DejaVuSans-31" d="M 794 531 
L 1825 531 
L 1825 4091 
L 703 3866 
L 703 4441 
L 1819 4666 
L 2450 4666 
L 2450 531 
L 3481 531 
L 3481 0 
L 794 0 
L 794 531 
z
" transform="scale(0.015625)"/>
       </defs>
       <use xlink:href="#DejaVuSans-2212"/>
       <use xlink:href="#DejaVuSans-31" x="83.789062"/>
      </g>
     </g>
    </g>
    <g id="xtick_3">
     <g id="line2d_3">
      <g>
       <use xlink:href="#mf3a79a308d" x="184.5" y="320.4" style="stroke: #000000; stroke-width: 0.8"/>
      </g>
     </g>
     <g id="text_3">
      <!-- 0 -->
      <g transform="translate(181.31875 334.998438)scale(0.1 -0.1)">
       <defs>
        <path id="DejaVuSans-30" d="M 2034 4250 
Q 1547 4250 1301 3770 
Q 1056 3291 1056 2328 
Q 1056 1369 1301 889 
Q 1547 409 2034 409 
Q 2525 409 2770 889 
Q 3016 1369 3016 2328 
Q 3016 3291 2770 3770 
Q 2525 4250 2034 4250 
z
M 2034 4750 
Q 2819 4750 3233 4129 
Q 3647 3509 3647 2328 
Q 3647 1150 3233 529 
Q 2819 -91 2034 -91 
Q 1250 -91 836 529 
Q 422 1150 422 2328 
Q 422 3509 836 4129 
Q 1250 4750 2034 4750 
z
" transform="scale(0.015625)"/>
       </defs>
       <use xlink:href="#DejaVuSans-30"/>
      </g>
     </g>
    </g>
    <g id="xtick_4">
     <g id="line2d_4">
      <g>
       <use xlink:href="#mf3a79a308d" x="235.227273" y="320.4" style="stroke: #000000; stroke-width: 0.8"/>
      </g>
     </g>
     <g id="text_4">
      <!-- 1 -->
      <g transform="translate(232.046023 334.998438)scale(0.1 -0.1)">
       <use xlink:href="#DejaVuSans-31"/>
      </g>
     </g>
    </g>
    <g id="xtick_5">
     <g id="line2d_5">
      <g>
       <use xlink:href="#mf3a79a308d" x="285.954545" y="320.4" style="stroke: #000000; stroke-width: 0.8"/>
      </g>
     </g>
     <g id="text_5">
      <!-- 2 -->
      <g transform="translate(282.773295 334.998438)scale(0.1 -0.1)">
       <use xlink:href="#DejaVuSans-32"/>
      </g>
     </g>
    </g>
   </g>
   <g id="matplotlib.axis_2">
    <g id="ytick_1">
     <g id="line2d_6">
      <defs>
       <path id="md32d9b10ba" d="M 0 0 
L -3.5 0 
" style="stroke: #000000; stroke-width: 0.8"/>
      </defs>
      <g>
       <use xlink:href="#md32d9b10ba" x="45" y="281.080321" style="stroke: #000000; stroke-width: 0.8"/>
      </g>
     </g>
     <g id="text_6">
      <!-- 0 -->
      <g transform="translate(31.6375 284.87954)scale(0.1 -0.1)">
       <use xlink:href="#DejaVuSans-30"/>
      </g>
     </g>
    </g>
    <g id="ytick_2">
     <g id="line2d_7">
      <g>
       <use xlink:href="#md32d9b10ba" x="45" y="231.391513" style="stroke: #000000; stroke-width: 0.8"/>
      </g>
     </g>
     <g id="text_7">
      <!-- 10 -->
      <g transform="translate(25.275 235.190731)scale(0.1 -0.1)">
       <use xlink:href="#DejaVuSans-31"/>
       <use xlink:href="#DejaVuSans-30" x="63.623047"/>
      </g>
     </g>
    </g>
    <g id="ytick_3">
     <g id="line2d_8">
      <g>
       <use xlink:href="#md32d9b10ba" x="45" y="181.702704" style="stroke: #000000; stroke-width: 0.8"/>
      </g>
     </g>
     <g id="text_8">
      <!-- 20 -->
      <g transform="translate(25.275 185.501923)scale(0.1 -0.1)">
       <use xlink:href="#DejaVuSans-32"/>
       <use xlink:href="#DejaVuSans-30" x="63.623047"/>
      </g>
     </g>
    </g>
    <g id="ytick_4">
     <g id="line2d_9">
      <g>
       <use xlink:href="#md32d9b10ba" x="45" y="132.013895" style="stroke: #000000; stroke-width: 0.8"/>
      </g>
     </g>
     <g id="text_9">
      <!-- 30 -->
      <g transform="translate(25.275 135.813114)scale(0.1 -0.1)">
       <defs>
        <path id="DejaVuSans-33" d="M 2597 2516 
Q 3050 2419 3304 2112 
Q 3559 1806 3559 1356 
Q 3559 666 3084 287 
Q 2609 -91 1734 -91 
Q 1441 -91 1130 -33 
Q 819 25 488 141 
L 488 750 
Q 750 597 1062 519 
Q 1375 441 1716 441 
Q 2309 441 2620 675 
Q 2931 909 2931 1356 
Q 2931 1769 2642 2001 
Q 2353 2234 1838 2234 
L 1294 2234 
L 1294 2753 
L 1863 2753 
Q 2328 2753 2575 2939 
Q 2822 3125 2822 3475 
Q 2822 3834 2567 4026 
Q 2313 4219 1838 4219 
Q 1578 4219 1281 4162 
Q 984 4106 628 3988 
L 628 4550 
Q 988 4650 1302 4700 
Q 1616 4750 1894 4750 
Q 2613 4750 3031 4423 
Q 3450 4097 3450 3541 
Q 3450 3153 3228 2886 
Q 3006 2619 2597 2516 
z
" transform="scale(0.015625)"/>
       </defs>
       <use xlink:href="#DejaVuSans-33"/>
       <use xlink:href="#DejaVuSans-30" x="63.623047"/>
      </g>
     </g>
    </g>
    <g id="ytick_5">
     <g id="line2d_10">
      <g>
       <use xlink:href="#md32d9b10ba" x="45" y="82.325086" style="stroke: #000000; stroke-width: 0.8"/>
      </g>
     </g>
     <g id="text_10">
      <!-- 40 -->
      <g transform="translate(25.275 86.124305)scale(0.1 -0.1)">
       <defs>
        <path id="DejaVuSans-34" d="M 2419 4116 
L 825 1625 
L 2419 1625 
L 2419 4116 
z
M 2253 4666 
L 3047 4666 
L 3047 1625 
L 3713 1625 
L 3713 1100 
L 3047 1100 
L 3047 0 
L 2419 0 
L 2419 1100 
L 313 1100 
L 313 1709 
L 2253 4666 
z
" transform="scale(0.015625)"/>
       </defs>
       <use xlink:href="#DejaVuSans-34"/>
       <use xlink:href="#DejaVuSans-30" x="63.623047"/>
      </g>
     </g>
    </g>
   </g>
   <g id="line2d_11">
    <path d="M 57.681818 180.219445 
L 60.852273 195.589883 
L 64.022727 210.000441 
L 67.193182 222.996452 
L 70.363636 234.849352 
L 73.534091 245.653271 
L 76.704545 255.226085 
L 79.875 263.66235 
L 83.045455 271.268849 
L 86.215909 277.771128 
L 89.386364 283.791151 
L 92.556818 288.906138 
L 95.727273 292.935685 
L 98.897727 296.774998 
L 102.068182 299.748802 
L 105.238636 302.534197 
L 108.409091 304.473432 
L 111.579545 305.753273 
L 114.75 307.04012 
L 117.920455 307.66531 
L 121.090909 307.780647 
L 124.261364 307.8 
L 127.431818 307.546077 
L 130.602273 306.607048 
L 133.772727 305.724935 
L 136.943182 304.860486 
L 140.113636 303.754065 
L 143.284091 302.611296 
L 146.454545 301.026928 
L 149.625 299.336105 
L 152.795455 297.673703 
L 155.965909 296.161443 
L 159.136364 294.532412 
L 162.306818 292.580342 
L 165.477273 291.195321 
L 168.647727 289.125032 
L 171.818182 287.678953 
L 174.988636 285.903391 
L 178.159091 284.311394 
L 181.329545 282.62231 
L 184.5 281.155401 
L 187.670455 279.36623 
L 190.840909 278.057655 
L 194.011364 276.396606 
L 197.181818 274.921492 
L 200.352273 273.87534 
L 203.522727 272.545399 
L 206.693182 270.7806 
L 209.863636 269.3951 
L 213.034091 268.369778 
L 216.204545 266.754553 
L 219.375 265.483296 
L 222.545455 263.873205 
L 225.715909 261.961026 
L 228.886364 260.167005 
L 232.056818 258.264865 
L 235.227273 256.303536 
L 238.397727 253.730847 
L 241.568182 251.424399 
L 244.738636 248.850271 
L 247.909091 245.6717 
L 251.079545 242.226676 
L 254.25 238.465473 
L 257.420455 234.592591 
L 260.590909 229.745622 
L 263.761364 224.902084 
L 266.931818 219.388045 
L 270.102273 213.147375 
L 273.272727 205.977541 
L 276.443182 198.535588 
L 279.613636 190.329828 
L 282.784091 181.430627 
L 285.954545 171.577252 
L 289.125 161.093678 
L 292.295455 149.540467 
L 295.465909 136.609879 
L 298.636364 123.11713 
L 301.806818 108.269967 
L 304.977273 92.088654 
L 308.147727 74.589055 
L 311.318182 55.8 
" clip-path="url(#pb1531cc2f3)" style="fill: none; stroke: #1f77b4; stroke-width: 1.5; stroke-linecap: square"/>
   </g>
   <g id="line2d_12">
    <path d="M 57.681818 266.915732 
L 60.852273 267.150705 
L 64.022727 267.496395 
L 67.193182 268.001843 
L 70.363636 268.733934 
L 73.534091 269.779744 
L 76.704545 271.244292 
L 79.875 273.239036 
L 83.045455 275.855434 
L 86.215909 279.122482 
L 89.386364 282.959995 
L 92.556818 287.155924 
L 95.727273 291.397296 
L 98.897727 295.354274 
L 102.068182 298.773393 
L 105.238636 301.528267 
L 108.409091 303.611892 
L 111.579545 305.093848 
L 114.75 306.074063 
L 117.920455 306.650549 
L 121.090909 306.903264 
L 124.261364 306.889462 
L 127.431818 306.64519 
L 130.602273 306.189439 
L 133.772727 305.529301 
L 136.943182 304.665465 
L 140.113636 303.597856 
L 143.284091 302.331151 
L 146.454545 300.879566 
L 149.625 299.269765 
L 152.795455 297.540867 
L 155.965909 295.74093 
L 159.136364 293.920456 
L 162.306818 292.124721 
L 165.477273 290.38715 
L 168.647727 288.725611 
L 171.818182 287.142237 
L 174.988636 285.626217 
L 178.159091 284.158414 
L 181.329545 282.716472 
L 184.5 281.27945 
L 187.670455 279.831336 
L 190.840909 278.363048 
L 194.011364 276.872811 
L 197.181818 275.365053 
L 200.352273 273.848194 
L 203.522727 272.331928 
L 206.693182 270.82454 
L 209.863636 269.330706 
L 213.034091 267.849975 
L 216.204545 266.375963 
L 219.375 264.896106 
L 222.545455 263.391864 
L 225.715909 261.839135 
L 228.886364 260.208774 
L 232.056818 258.467093 
L 235.227273 256.576286 
L 238.397727 254.494755 
L 241.568182 252.177505 
L 244.738636 249.576588 
L 247.909091 246.64191 
L 251.079545 243.32254 
L 254.25 239.568902 
L 257.420455 235.33604 
L 260.590909 230.588233 
L 263.761364 225.304973 
L 266.931818 219.487852 
L 270.102273 213.167424 
L 273.272727 206.40844 
L 276.443182 199.311416 
L 279.613636 192.008842 
L 282.784091 184.65546 
L 285.954545 177.413712 
L 289.125 170.437397 
L 292.295455 163.857076 
L 295.465909 157.770053 
L 298.636364 152.236774 
L 301.806818 147.282498 
L 304.977273 142.903064 
L 308.147727 139.072313 
L 311.318182 135.749777 
" clip-path="url(#pb1531cc2f3)" style="fill: none; stroke: #ff7f0e; stroke-width: 1.5; stroke-linecap: square"/>
   </g>
   <g id="line2d_13">
    <path d="M 57.681818 266.15278 
L 60.852273 266.385507 
L 64.022727 266.72601 
L 67.193182 267.222787 
L 70.363636 267.942409 
L 73.534091 268.972393 
L 76.704545 270.419872 
L 79.875 272.4012 
L 83.045455 275.016485 
L 86.215909 278.306845 
L 89.386364 282.204509 
L 92.556818 286.504054 
L 95.727273 290.887817 
L 98.897727 295.009671 
L 102.068182 298.594929 
L 105.238636 301.49957 
L 108.409091 303.707211 
L 111.579545 305.28591 
L 114.75 306.338831 
L 117.920455 306.968985 
L 121.090909 307.261139 
L 124.261364 307.276287 
L 127.431818 307.0529 
L 130.602273 306.611182 
L 133.772727 305.958404 
L 136.943182 305.09467 
L 140.113636 304.018894 
L 143.284091 302.734779 
L 146.454545 301.256055 
L 149.625 299.609875 
L 152.795455 297.83699 
L 155.965909 295.988156 
L 159.136364 294.117118 
L 162.306818 292.272286 
L 165.477273 290.489569 
L 168.647727 288.788373 
L 171.818182 287.171494 
L 174.988636 285.628134 
L 178.159091 284.138727 
L 181.329545 282.680132 
L 184.5 281.230238 
L 187.670455 279.771431 
L 190.840909 278.292668 
L 194.011364 276.790142 
L 197.181818 275.266622 
L 200.352273 273.72971 
L 203.522727 272.189339 
L 206.693182 270.655013 
L 209.863636 269.133236 
L 213.034091 267.625493 
L 216.204545 266.127016 
L 219.375 264.6263 
L 222.545455 263.105238 
L 225.715909 261.539664 
L 228.886364 259.900039 
L 232.056818 258.152124 
L 235.227273 256.257549 
L 238.397727 254.174279 
L 241.568182 251.857027 
L 244.738636 249.257771 
L 247.909091 246.326533 
L 251.079545 243.012703 
L 254.25 239.267156 
L 257.420455 235.045406 
L 260.590909 230.3121 
L 263.761364 225.046705 
L 266.931818 219.250149 
L 270.102273 212.951449 
L 273.272727 206.212827 
L 276.443182 199.131545 
L 279.613636 191.836657 
L 282.784091 184.480128 
L 285.954545 177.223169 
L 289.125 170.220166 
L 292.295455 163.60403 
L 295.465909 157.475647 
L 298.636364 151.899218 
L 301.806818 146.903403 
L 304.977273 142.486542 
L 308.147727 138.623975 
L 311.318182 135.275794 
" clip-path="url(#pb1531cc2f3)" style="fill: none; stroke: #2ca02c; stroke-width: 1.5; stroke-linecap: square"/>
   </g>
   <g id="line2d_14">
    <path d="M 57.681818 266.307203 
L 60.852273 266.556141 
L 64.022727 266.922565 
L 67.193182 267.458213 
L 70.363636 268.233352 
L 73.534091 269.338961 
L 76.704545 270.883832 
L 79.875 272.981723 
L 83.045455 275.722887 
L 86.215909 279.129607 
L 89.386364 283.109271 
L 92.556818 287.434766 
L 95.727273 291.781229 
L 98.897727 295.814756 
L 102.068182 299.285894 
L 105.238636 302.076603 
L 108.409091 304.188419 
L 111.579545 305.697361 
L 114.75 306.707352 
L 117.920455 307.318463 
L 121.090909 307.611381 
L 124.261364 307.643028 
L 127.431818 307.448069 
L 130.602273 307.042908 
L 133.772727 306.430617 
L 136.943182 305.606319 
L 140.113636 304.563176 
L 143.284091 303.298696 
L 146.454545 301.820943 
L 149.625 300.153219 
L 152.795455 298.33554 
L 155.965909 296.421534 
L 159.136364 294.470883 
L 162.306818 292.539292 
L 165.477273 290.669282 
L 168.647727 288.884599 
L 171.818182 287.189526 
L 174.988636 285.572382 
L 178.159091 284.011487 
L 181.329545 282.481755 
L 184.5 280.960463 
L 187.670455 279.431358 
L 190.840909 277.886708 
L 194.011364 276.327206 
L 197.181818 274.76009 
L 200.352273 273.196128 
L 203.522727 271.646247 
L 206.693182 270.118552 
L 209.863636 268.616149 
L 213.034091 267.135899 
L 216.204545 265.667991 
L 219.375 264.196082 
L 222.545455 262.697792 
L 225.715909 261.145318 
L 228.886364 259.506005 
L 232.056818 257.742857 
L 235.227273 255.81487 
L 238.397727 253.677354 
L 241.568182 251.282236 
L 244.738636 248.578588 
L 247.909091 245.513582 
L 251.079545 242.034148 
L 254.25 238.089619 
L 257.420455 233.635692 
L 260.590909 228.639876 
L 263.761364 223.088183 
L 266.931818 216.992583 
L 270.102273 210.3978 
L 273.272727 203.385575 
L 276.443182 196.074225 
L 279.613636 188.612165 
L 282.784091 181.165402 
L 285.954545 173.900946 
L 289.125 166.96981 
L 292.295455 160.493513 
L 295.465909 154.556251 
L 298.636364 149.203726 
L 301.806818 144.44712 
L 304.977273 140.27034 
L 308.147727 136.638112 
L 311.318182 133.503636 
" clip-path="url(#pb1531cc2f3)" style="fill: none; stroke: #d62728; stroke-width: 1.5; stroke-linecap: square"/>
   </g>
   <g id="line2d_15">
    <path d="M 57.681818 266.349554 
L 60.852273 266.598139 
L 64.022727 266.964265 
L 67.193182 267.49964 
L 70.363636 268.274518 
L 73.534091 269.379724 
L 76.704545 270.923882 
L 79.875 273.020555 
L 83.045455 275.759802 
L 86.215909 279.16395 
L 89.386364 283.140683 
L 92.556818 287.463327 
L 95.727273 291.807189 
L 98.897727 295.837703 
L 102.068182 299.303907 
L 105.238636 302.08581 
L 108.409091 304.183118 
L 111.579545 305.670471 
L 114.75 306.65094 
L 117.920455 307.224275 
L 121.090909 307.47135 
L 124.261364 307.449884 
L 127.431818 307.196203 
L 130.602273 306.729522 
L 133.772727 306.057111 
L 136.943182 305.179798 
L 140.113636 304.097566 
L 143.284091 302.815015 
L 146.454545 301.3461 
L 149.625 299.717052 
L 152.795455 297.966519 
L 155.965909 296.142255 
L 159.136364 294.29491 
L 162.306818 292.470615 
L 165.477273 290.704437 
L 168.647727 289.016629 
L 171.818182 287.412183 
L 174.988636 285.883298 
L 178.159091 284.413529 
L 181.329545 282.982399 
L 184.5 281.569566 
L 187.670455 280.157979 
L 190.840909 278.735818 
L 194.011364 277.297176 
L 197.181818 275.8416 
L 200.352273 274.37273 
L 203.522727 272.896331 
L 206.693182 271.418095 
L 209.863636 269.941538 
L 213.034091 268.466284 
L 216.204545 266.986878 
L 219.375 265.492141 
L 222.545455 263.965007 
L 225.715909 262.382695 
L 228.886364 260.717051 
L 232.056818 258.934959 
L 235.227273 256.998705 
L 238.397727 254.866321 
L 241.568182 252.49197 
L 244.738636 249.826449 
L 247.909091 246.818042 
L 251.079545 243.414034 
L 254.25 239.563045 
L 257.420455 235.218653 
L 260.590909 230.344427 
L 263.761364 224.920328 
L 266.931818 218.950033 
L 270.102273 212.468054 
L 273.272727 205.544841 
L 276.443182 198.287745 
L 279.613636 190.836347 
L 282.784091 183.351542 
L 285.954545 176.000017 
L 289.125 168.937269 
L 292.295455 162.293079 
L 295.465909 156.1621 
L 298.636364 150.60093 
L 301.806818 145.630741 
L 304.977273 141.24362 
L 308.147727 137.41032 
L 311.318182 134.088126 
" clip-path="url(#pb1531cc2f3)" style="fill: none; stroke: #9467bd; stroke-width: 1.5; stroke-linecap: square"/>
   </g>
   <g id="line2d_16">
    <path d="M 57.681818 266.883103 
L 60.852273 267.138689 
L 64.022727 267.514358 
L 67.193182 268.062455 
L 70.363636 268.853717 
L 73.534091 269.978932 
L 76.704545 271.545459 
L 79.875 273.663378 
L 83.045455 276.416235 
L 86.215909 279.816985 
L 89.386364 283.763547 
L 92.556818 288.023839 
L 95.727273 292.276522 
L 98.897727 296.199252 
L 102.068182 299.557258 
L 105.238636 302.244376 
L 108.409091 304.268192 
L 111.579545 305.705519 
L 114.75 306.657979 
L 117.920455 307.222303 
L 121.090909 307.476108 
L 124.261364 307.474182 
L 127.431818 307.250217 
L 130.602273 306.820858 
L 133.772727 306.190512 
L 136.943182 305.356594 
L 140.113636 304.315008 
L 143.284091 303.065843 
L 146.454545 301.618667 
L 149.625 299.996317 
L 152.795455 298.235953 
L 155.965909 296.386252 
L 159.136364 294.501098 
L 162.306818 292.631329 
L 165.477273 290.817041 
L 168.647727 289.082767 
L 171.818182 287.436474 
L 174.988636 285.871959 
L 178.159091 284.373313 
L 181.329545 282.919969 
L 184.5 281.491213 
L 187.670455 280.069547 
L 190.840909 278.642681 
L 194.011364 277.20417 
L 197.181818 275.75293 
L 200.352273 274.291863 
L 203.522727 272.825967 
L 206.693182 271.360249 
L 209.863636 269.897765 
L 213.034091 268.437989 
L 216.204545 266.975662 
L 219.375 265.500123 
L 222.545455 263.99508 
L 225.715909 262.438676 
L 228.886364 260.803765 
L 232.056818 259.058229 
L 235.227273 257.165327 
L 238.397727 255.083995 
L 241.568182 252.769214 
L 244.738636 250.172488 
L 247.909091 247.242669 
L 251.079545 243.927339 
L 254.25 240.175028 
L 257.420455 235.938607 
L 260.590909 231.179982 
L 263.761364 225.876284 
L 266.931818 220.026869 
L 270.102273 213.660438 
L 273.272727 206.840476 
L 276.443182 199.667074 
L 279.613636 192.273337 
L 282.784091 184.815846 
L 285.954545 177.460028 
L 289.125 170.363578 
L 292.295455 163.661264 
L 295.465909 157.454513 
L 298.636364 151.807193 
L 301.806818 146.747054 
L 304.977273 142.271471 
L 308.147727 138.354979 
L 311.318182 134.957051 
" clip-path="url(#pb1531cc2f3)" style="fill: none; stroke: #8c564b; stroke-width: 1.5; stroke-linecap: square"/>
   </g>
   <g id="line2d_17">
    <path d="M 57.681818 266.742028 
L 60.852273 266.986635 
L 64.022727 267.347094 
L 67.193182 267.874448 
L 70.363636 268.638052 
L 73.534091 269.727694 
L 76.704545 271.250826 
L 79.875 273.319945 
L 83.045455 276.024552 
L 86.215909 279.387381 
L 89.386364 283.317917 
L 92.556818 287.5926 
L 95.727273 291.890492 
L 98.897727 295.880464 
L 102.068182 299.313865 
L 105.238636 302.071722 
L 108.409091 304.153734 
L 111.579545 305.633946 
L 114.75 306.614608 
L 117.920455 307.194589 
L 121.090909 307.4539 
L 124.261364 307.449396 
L 127.431818 307.216409 
L 130.602273 306.772902 
L 133.772727 306.124533 
L 136.943182 305.270084 
L 140.113636 304.207157 
L 143.284091 302.937895 
L 146.454545 301.474162 
L 149.625 299.84102 
L 152.795455 298.077267 
L 155.965909 296.23219 
L 159.136364 294.35893 
L 162.306818 292.506252 
L 165.477273 290.711195 
L 168.647727 288.994751 
L 171.818182 287.36136 
L 174.988636 285.80171 
L 178.159091 284.297463 
L 181.329545 282.826508 
L 184.5 281.367653 
L 187.670455 279.904125 
L 190.840909 278.425598 
L 194.011364 276.928702 
L 197.181818 275.416176 
L 200.352273 273.894966 
L 203.522727 272.373736 
L 206.693182 270.860245 
L 209.863636 269.359037 
L 213.034091 267.869705 
L 216.204545 266.385878 
L 219.375 264.894837 
L 222.545455 263.377657 
L 225.715909 261.809648 
L 228.886364 260.160912 
L 232.056818 258.396887 
L 235.227273 256.478801 
L 238.397727 254.364044 
L 241.568182 252.006547 
L 244.738636 249.357277 
L 247.909091 246.365075 
L 251.079545 242.978066 
L 254.25 239.145955 
L 257.420455 234.823474 
L 260.590909 229.975209 
L 263.761364 224.58177 
L 266.931818 218.646841 
L 270.102273 212.2041 
L 273.272727 205.322284 
L 276.443182 198.106396 
L 279.613636 190.693405 
L 282.784091 183.241938 
L 285.954545 175.917256 
L 289.125 168.874585 
L 292.295455 162.24449 
L 295.465909 156.123164 
L 298.636364 150.569038 
L 301.806818 145.604967 
L 304.977273 141.22429 
L 308.147727 137.398557 
L 311.318182 134.085277 
" clip-path="url(#pb1531cc2f3)" style="fill: none; stroke: #e377c2; stroke-width: 1.5; stroke-linecap: square"/>
   </g>
   <g id="patch_3">
    <path d="M 45 320.4 
L 45 43.2 
" style="fill: none; stroke: #000000; stroke-width: 0.8; stroke-linejoin: miter; stroke-linecap: square"/>
   </g>
   <g id="patch_4">
    <path d="M 324 320.4 
L 324 43.2 
" style="fill: none; stroke: #000000; stroke-width: 0.8; stroke-linejoin: miter; stroke-linecap: square"/>
   </g>
   <g id="patch_5">
    <path d="M 45 320.4 
L 324 320.4 
" style="fill: none; stroke: #000000; stroke-width: 0.8; stroke-linejoin: miter; stroke-linecap: square"/>
   </g>
   <g id="patch_6">
    <path d="M 45 43.2 
L 324 43.2 
" style="fill: none; stroke: #000000; stroke-width: 0.8; stroke-linejoin: miter; stroke-linecap: square"/>
   </g>
   <g id="text_11">
    <!-- Prediction Curves -->
    <g transform="translate(131.961563 37.2)scale(0.12 -0.12)">
     <defs>
      <path id="DejaVuSans-50" d="M 1259 4147 
L 1259 2394 
L 2053 2394 
Q 2494 2394 2734 2622 
Q 2975 2850 2975 3272 
Q 2975 3691 2734 3919 
Q 2494 4147 2053 4147 
L 1259 4147 
z
M 628 4666 
L 2053 4666 
Q 2838 4666 3239 4311 
Q 3641 3956 3641 3272 
Q 3641 2581 3239 2228 
Q 2838 1875 2053 1875 
L 1259 1875 
L 1259 0 
L 628 0 
L 628 4666 
z
" transform="scale(0.015625)"/>
      <path id="DejaVuSans-72" d="M 2631 2963 
Q 2534 3019 2420 3045 
Q 2306 3072 2169 3072 
Q 1681 3072 1420 2755 
Q 1159 2438 1159 1844 
L 1159 0 
L 581 0 
L 581 3500 
L 1159 3500 
L 1159 2956 
Q 1341 3275 1631 3429 
Q 1922 3584 2338 3584 
Q 2397 3584 2469 3576 
Q 2541 3569 2628 3553 
L 2631 2963 
z
" transform="scale(0.015625)"/>
      <path id="DejaVuSans-65" d="M 3597 1894 
L 3597 1613 
L 953 1613 
Q 991 1019 1311 708 
Q 1631 397 2203 397 
Q 2534 397 2845 478 
Q 3156 559 3463 722 
L 3463 178 
Q 3153 47 2828 -22 
Q 2503 -91 2169 -91 
Q 1331 -91 842 396 
Q 353 884 353 1716 
Q 353 2575 817 3079 
Q 1281 3584 2069 3584 
Q 2775 3584 3186 3129 
Q 3597 2675 3597 1894 
z
M 3022 2063 
Q 3016 2534 2758 2815 
Q 2500 3097 2075 3097 
Q 1594 3097 1305 2825 
Q 1016 2553 972 2059 
L 3022 2063 
z
" transform="scale(0.015625)"/>
      <path id="DejaVuSans-64" d="M 2906 2969 
L 2906 4863 
L 3481 4863 
L 3481 0 
L 2906 0 
L 2906 525 
Q 2725 213 2448 61 
Q 2172 -91 1784 -91 
Q 1150 -91 751 415 
Q 353 922 353 1747 
Q 353 2572 751 3078 
Q 1150 3584 1784 3584 
Q 2172 3584 2448 3432 
Q 2725 3281 2906 2969 
z
M 947 1747 
Q 947 1113 1208 752 
Q 1469 391 1925 391 
Q 2381 391 2643 752 
Q 2906 1113 2906 1747 
Q 2906 2381 2643 2742 
Q 2381 3103 1925 3103 
Q 1469 3103 1208 2742 
Q 947 2381 947 1747 
z
" transform="scale(0.015625)"/>
      <path id="DejaVuSans-69" d="M 603 3500 
L 1178 3500 
L 1178 0 
L 603 0 
L 603 3500 
z
M 603 4863 
L 1178 4863 
L 1178 4134 
L 603 4134 
L 603 4863 
z
" transform="scale(0.015625)"/>
      <path id="DejaVuSans-63" d="M 3122 3366 
L 3122 2828 
Q 2878 2963 2633 3030 
Q 2388 3097 2138 3097 
Q 1578 3097 1268 2742 
Q 959 2388 959 1747 
Q 959 1106 1268 751 
Q 1578 397 2138 397 
Q 2388 397 2633 464 
Q 2878 531 3122 666 
L 3122 134 
Q 2881 22 2623 -34 
Q 2366 -91 2075 -91 
Q 1284 -91 818 406 
Q 353 903 353 1747 
Q 353 2603 823 3093 
Q 1294 3584 2113 3584 
Q 2378 3584 2631 3529 
Q 2884 3475 3122 3366 
z
" transform="scale(0.015625)"/>
      <path id="DejaVuSans-74" d="M 1172 4494 
L 1172 3500 
L 2356 3500 
L 2356 3053 
L 1172 3053 
L 1172 1153 
Q 1172 725 1289 603 
Q 1406 481 1766 481 
L 2356 481 
L 2356 0 
L 1766 0 
Q 1100 0 847 248 
Q 594 497 594 1153 
L 594 3053 
L 172 3053 
L 172 3500 
L 594 3500 
L 594 4494 
L 1172 4494 
z
" transform="scale(0.015625)"/>
      <path id="DejaVuSans-6f" d="M 1959 3097 
Q 1497 3097 1228 2736 
Q 959 2375 959 1747 
Q 959 1119 1226 758 
Q 1494 397 1959 397 
Q 2419 397 2687 759 
Q 2956 1122 2956 1747 
Q 2956 2369 2687 2733 
Q 2419 3097 1959 3097 
z
M 1959 3584 
Q 2709 3584 3137 3096 
Q 3566 2609 3566 1747 
Q 3566 888 3137 398 
Q 2709 -91 1959 -91 
Q 1206 -91 779 398 
Q 353 888 353 1747 
Q 353 2609 779 3096 
Q 1206 3584 1959 3584 
z
" transform="scale(0.015625)"/>
      <path id="DejaVuSans-6e" d="M 3513 2113 
L 3513 0 
L 2938 0 
L 2938 2094 
Q 2938 2591 2744 2837 
Q 2550 3084 2163 3084 
Q 1697 3084 1428 2787 
Q 1159 2491 1159 1978 
L 1159 0 
L 581 0 
L 581 3500 
L 1159 3500 
L 1159 2956 
Q 1366 3272 1645 3428 
Q 1925 3584 2291 3584 
Q 2894 3584 3203 3211 
Q 3513 2838 3513 2113 
z
" transform="scale(0.015625)"/>
      <path id="DejaVuSans-20" transform="scale(0.015625)"/>
      <path id="DejaVuSans-43" d="M 4122 4306 
L 4122 3641 
Q 3803 3938 3442 4084 
Q 3081 4231 2675 4231 
Q 1875 4231 1450 3742 
Q 1025 3253 1025 2328 
Q 1025 1406 1450 917 
Q 1875 428 2675 428 
Q 3081 428 3442 575 
Q 3803 722 4122 1019 
L 4122 359 
Q 3791 134 3420 21 
Q 3050 -91 2638 -91 
Q 1578 -91 968 557 
Q 359 1206 359 2328 
Q 359 3453 968 4101 
Q 1578 4750 2638 4750 
Q 3056 4750 3426 4639 
Q 3797 4528 4122 4306 
z
" transform="scale(0.015625)"/>
      <path id="DejaVuSans-75" d="M 544 1381 
L 544 3500 
L 1119 3500 
L 1119 1403 
Q 1119 906 1312 657 
Q 1506 409 1894 409 
Q 2359 409 2629 706 
Q 2900 1003 2900 1516 
L 2900 3500 
L 3475 3500 
L 3475 0 
L 2900 0 
L 2900 538 
Q 2691 219 2414 64 
Q 2138 -91 1772 -91 
Q 1169 -91 856 284 
Q 544 659 544 1381 
z
M 1991 3584 
L 1991 3584 
z
" transform="scale(0.015625)"/>
      <path id="DejaVuSans-76" d="M 191 3500 
L 800 3500 
L 1894 563 
L 2988 3500 
L 3597 3500 
L 2284 0 
L 1503 0 
L 191 3500 
z
" transform="scale(0.015625)"/>
      <path id="DejaVuSans-73" d="M 2834 3397 
L 2834 2853 
Q 2591 2978 2328 3040 
Q 2066 3103 1784 3103 
Q 1356 3103 1142 2972 
Q 928 2841 928 2578 
Q 928 2378 1081 2264 
Q 1234 2150 1697 2047 
L 1894 2003 
Q 2506 1872 2764 1633 
Q 3022 1394 3022 966 
Q 3022 478 2636 193 
Q 2250 -91 1575 -91 
Q 1294 -91 989 -36 
Q 684 19 347 128 
L 347 722 
Q 666 556 975 473 
Q 1284 391 1588 391 
Q 1994 391 2212 530 
Q 2431 669 2431 922 
Q 2431 1156 2273 1281 
Q 2116 1406 1581 1522 
L 1381 1569 
Q 847 1681 609 1914 
Q 372 2147 372 2553 
Q 372 3047 722 3315 
Q 1072 3584 1716 3584 
Q 2034 3584 2315 3537 
Q 2597 3491 2834 3397 
z
" transform="scale(0.015625)"/>
     </defs>
     <use xlink:href="#DejaVuSans-50"/>
     <use xlink:href="#DejaVuSans-72" x="58.552734"/>
     <use xlink:href="#DejaVuSans-65" x="97.416016"/>
     <use xlink:href="#DejaVuSans-64" x="158.939453"/>
     <use xlink:href="#DejaVuSans-69" x="222.416016"/>
     <use xlink:href="#DejaVuSans-63" x="250.199219"/>
     <use xlink:href="#DejaVuSans-74" x="305.179688"/>
     <use xlink:href="#DejaVuSans-69" x="344.388672"/>
     <use xlink:href="#DejaVuSans-6f" x="372.171875"/>
     <use xlink:href="#DejaVuSans-6e" x="433.353516"/>
     <use xlink:href="#DejaVuSans-20" x="496.732422"/>
     <use xlink:href="#DejaVuSans-43" x="528.519531"/>
     <use xlink:href="#DejaVuSans-75" x="598.34375"/>
     <use xlink:href="#DejaVuSans-72" x="661.722656"/>
     <use xlink:href="#DejaVuSans-76" x="702.835938"/>
     <use xlink:href="#DejaVuSans-65" x="762.015625"/>
     <use xlink:href="#DejaVuSans-73" x="823.539062"/>
    </g>
   </g>
   <g id="legend_1">
    <g id="patch_7">
     <path d="M 52 153.946875 
L 195.94375 153.946875 
Q 197.94375 153.946875 197.94375 151.946875 
L 197.94375 50.2 
Q 197.94375 48.2 195.94375 48.2 
L 52 48.2 
Q 50 48.2 50 50.2 
L 50 151.946875 
Q 50 153.946875 52 153.946875 
z
" style="fill: #ffffff; opacity: 0.8; stroke: #cccccc; stroke-linejoin: miter"/>
    </g>
    <g id="line2d_18">
     <path d="M 54 56.298437 
L 64 56.298437 
L 74 56.298437 
" style="fill: none; stroke: #1f77b4; stroke-width: 1.5; stroke-linecap: square"/>
    </g>
    <g id="text_12">
     <!-- Function with noise -->
     <g transform="translate(82 59.798437)scale(0.1 -0.1)">
      <defs>
       <path id="DejaVuSans-46" d="M 628 4666 
L 3309 4666 
L 3309 4134 
L 1259 4134 
L 1259 2759 
L 3109 2759 
L 3109 2228 
L 1259 2228 
L 1259 0 
L 628 0 
L 628 4666 
z
" transform="scale(0.015625)"/>
       <path id="DejaVuSans-77" d="M 269 3500 
L 844 3500 
L 1563 769 
L 2278 3500 
L 2956 3500 
L 3675 769 
L 4391 3500 
L 4966 3500 
L 4050 0 
L 3372 0 
L 2619 2869 
L 1863 0 
L 1184 0 
L 269 3500 
z
" transform="scale(0.015625)"/>
       <path id="DejaVuSans-68" d="M 3513 2113 
L 3513 0 
L 2938 0 
L 2938 2094 
Q 2938 2591 2744 2837 
Q 2550 3084 2163 3084 
Q 1697 3084 1428 2787 
Q 1159 2491 1159 1978 
L 1159 0 
L 581 0 
L 581 4863 
L 1159 4863 
L 1159 2956 
Q 1366 3272 1645 3428 
Q 1925 3584 2291 3584 
Q 2894 3584 3203 3211 
Q 3513 2838 3513 2113 
z
" transform="scale(0.015625)"/>
      </defs>
      <use xlink:href="#DejaVuSans-46"/>
      <use xlink:href="#DejaVuSans-75" x="52.019531"/>
      <use xlink:href="#DejaVuSans-6e" x="115.398438"/>
      <use xlink:href="#DejaVuSans-63" x="178.777344"/>
      <use xlink:href="#DejaVuSans-74" x="233.757812"/>
      <use xlink:href="#DejaVuSans-69" x="272.966797"/>
      <use xlink:href="#DejaVuSans-6f" x="300.75"/>
      <use xlink:href="#DejaVuSans-6e" x="361.931641"/>
      <use xlink:href="#DejaVuSans-20" x="425.310547"/>
      <use xlink:href="#DejaVuSans-77" x="457.097656"/>
      <use xlink:href="#DejaVuSans-69" x="538.884766"/>
      <use xlink:href="#DejaVuSans-74" x="566.667969"/>
      <use xlink:href="#DejaVuSans-68" x="605.876953"/>
      <use xlink:href="#DejaVuSans-20" x="669.255859"/>
      <use xlink:href="#DejaVuSans-6e" x="701.042969"/>
      <use xlink:href="#DejaVuSans-6f" x="764.421875"/>
      <use xlink:href="#DejaVuSans-69" x="825.603516"/>
      <use xlink:href="#DejaVuSans-73" x="853.386719"/>
      <use xlink:href="#DejaVuSans-65" x="905.486328"/>
     </g>
    </g>
    <g id="line2d_19">
     <path d="M 54 70.976562 
L 64 70.976562 
L 74 70.976562 
" style="fill: none; stroke: #ff7f0e; stroke-width: 1.5; stroke-linecap: square"/>
    </g>
    <g id="text_13">
     <!-- Prediction 1 -->
     <g transform="translate(82 74.476562)scale(0.1 -0.1)">
      <use xlink:href="#DejaVuSans-50"/>
      <use xlink:href="#DejaVuSans-72" x="58.552734"/>
      <use xlink:href="#DejaVuSans-65" x="97.416016"/>
      <use xlink:href="#DejaVuSans-64" x="158.939453"/>
      <use xlink:href="#DejaVuSans-69" x="222.416016"/>
      <use xlink:href="#DejaVuSans-63" x="250.199219"/>
      <use xlink:href="#DejaVuSans-74" x="305.179688"/>
      <use xlink:href="#DejaVuSans-69" x="344.388672"/>
      <use xlink:href="#DejaVuSans-6f" x="372.171875"/>
      <use xlink:href="#DejaVuSans-6e" x="433.353516"/>
      <use xlink:href="#DejaVuSans-20" x="496.732422"/>
      <use xlink:href="#DejaVuSans-31" x="528.519531"/>
     </g>
    </g>
    <g id="line2d_20">
     <path d="M 54 85.654687 
L 64 85.654687 
L 74 85.654687 
" style="fill: none; stroke: #2ca02c; stroke-width: 1.5; stroke-linecap: square"/>
    </g>
    <g id="text_14">
     <!-- Prediction 2 -->
     <g transform="translate(82 89.154687)scale(0.1 -0.1)">
      <use xlink:href="#DejaVuSans-50"/>
      <use xlink:href="#DejaVuSans-72" x="58.552734"/>
      <use xlink:href="#DejaVuSans-65" x="97.416016"/>
      <use xlink:href="#DejaVuSans-64" x="158.939453"/>
      <use xlink:href="#DejaVuSans-69" x="222.416016"/>
      <use xlink:href="#DejaVuSans-63" x="250.199219"/>
      <use xlink:href="#DejaVuSans-74" x="305.179688"/>
      <use xlink:href="#DejaVuSans-69" x="344.388672"/>
      <use xlink:href="#DejaVuSans-6f" x="372.171875"/>
      <use xlink:href="#DejaVuSans-6e" x="433.353516"/>
      <use xlink:href="#DejaVuSans-20" x="496.732422"/>
      <use xlink:href="#DejaVuSans-32" x="528.519531"/>
     </g>
    </g>
    <g id="line2d_21">
     <path d="M 54 100.332812 
L 64 100.332812 
L 74 100.332812 
" style="fill: none; stroke: #d62728; stroke-width: 1.5; stroke-linecap: square"/>
    </g>
    <g id="text_15">
     <!-- Prediction 3 -->
     <g transform="translate(82 103.832812)scale(0.1 -0.1)">
      <use xlink:href="#DejaVuSans-50"/>
      <use xlink:href="#DejaVuSans-72" x="58.552734"/>
      <use xlink:href="#DejaVuSans-65" x="97.416016"/>
      <use xlink:href="#DejaVuSans-64" x="158.939453"/>
      <use xlink:href="#DejaVuSans-69" x="222.416016"/>
      <use xlink:href="#DejaVuSans-63" x="250.199219"/>
      <use xlink:href="#DejaVuSans-74" x="305.179688"/>
      <use xlink:href="#DejaVuSans-69" x="344.388672"/>
      <use xlink:href="#DejaVuSans-6f" x="372.171875"/>
      <use xlink:href="#DejaVuSans-6e" x="433.353516"/>
      <use xlink:href="#DejaVuSans-20" x="496.732422"/>
      <use xlink:href="#DejaVuSans-33" x="528.519531"/>
     </g>
    </g>
    <g id="line2d_22">
     <path d="M 54 115.010937 
L 64 115.010937 
L 74 115.010937 
" style="fill: none; stroke: #9467bd; stroke-width: 1.5; stroke-linecap: square"/>
    </g>
    <g id="text_16">
     <!-- Prediction 4 -->
     <g transform="translate(82 118.510937)scale(0.1 -0.1)">
      <use xlink:href="#DejaVuSans-50"/>
      <use xlink:href="#DejaVuSans-72" x="58.552734"/>
      <use xlink:href="#DejaVuSans-65" x="97.416016"/>
      <use xlink:href="#DejaVuSans-64" x="158.939453"/>
      <use xlink:href="#DejaVuSans-69" x="222.416016"/>
      <use xlink:href="#DejaVuSans-63" x="250.199219"/>
      <use xlink:href="#DejaVuSans-74" x="305.179688"/>
      <use xlink:href="#DejaVuSans-69" x="344.388672"/>
      <use xlink:href="#DejaVuSans-6f" x="372.171875"/>
      <use xlink:href="#DejaVuSans-6e" x="433.353516"/>
      <use xlink:href="#DejaVuSans-20" x="496.732422"/>
      <use xlink:href="#DejaVuSans-34" x="528.519531"/>
     </g>
    </g>
    <g id="line2d_23">
     <path d="M 54 129.689062 
L 64 129.689062 
L 74 129.689062 
" style="fill: none; stroke: #8c564b; stroke-width: 1.5; stroke-linecap: square"/>
    </g>
    <g id="text_17">
     <!-- Prediction 5 -->
     <g transform="translate(82 133.189062)scale(0.1 -0.1)">
      <defs>
       <path id="DejaVuSans-35" d="M 691 4666 
L 3169 4666 
L 3169 4134 
L 1269 4134 
L 1269 2991 
Q 1406 3038 1543 3061 
Q 1681 3084 1819 3084 
Q 2600 3084 3056 2656 
Q 3513 2228 3513 1497 
Q 3513 744 3044 326 
Q 2575 -91 1722 -91 
Q 1428 -91 1123 -41 
Q 819 9 494 109 
L 494 744 
Q 775 591 1075 516 
Q 1375 441 1709 441 
Q 2250 441 2565 725 
Q 2881 1009 2881 1497 
Q 2881 1984 2565 2268 
Q 2250 2553 1709 2553 
Q 1456 2553 1204 2497 
Q 953 2441 691 2322 
L 691 4666 
z
" transform="scale(0.015625)"/>
      </defs>
      <use xlink:href="#DejaVuSans-50"/>
      <use xlink:href="#DejaVuSans-72" x="58.552734"/>
      <use xlink:href="#DejaVuSans-65" x="97.416016"/>
      <use xlink:href="#DejaVuSans-64" x="158.939453"/>
      <use xlink:href="#DejaVuSans-69" x="222.416016"/>
      <use xlink:href="#DejaVuSans-63" x="250.199219"/>
      <use xlink:href="#DejaVuSans-74" x="305.179688"/>
      <use xlink:href="#DejaVuSans-69" x="344.388672"/>
      <use xlink:href="#DejaVuSans-6f" x="372.171875"/>
      <use xlink:href="#DejaVuSans-6e" x="433.353516"/>
      <use xlink:href="#DejaVuSans-20" x="496.732422"/>
      <use xlink:href="#DejaVuSans-35" x="528.519531"/>
     </g>
    </g>
    <g id="line2d_24">
     <path d="M 54 144.367187 
L 64 144.367187 
L 74 144.367187 
" style="fill: none; stroke: #e377c2; stroke-width: 1.5; stroke-linecap: square"/>
    </g>
    <g id="text_18">
     <!-- Average of Predictions -->
     <g transform="translate(82 147.867187)scale(0.1 -0.1)">
      <defs>
       <path id="DejaVuSans-41" d="M 2188 4044 
L 1331 1722 
L 3047 1722 
L 2188 4044 
z
M 1831 4666 
L 2547 4666 
L 4325 0 
L 3669 0 
L 3244 1197 
L 1141 1197 
L 716 0 
L 50 0 
L 1831 4666 
z
" transform="scale(0.015625)"/>
       <path id="DejaVuSans-61" d="M 2194 1759 
Q 1497 1759 1228 1600 
Q 959 1441 959 1056 
Q 959 750 1161 570 
Q 1363 391 1709 391 
Q 2188 391 2477 730 
Q 2766 1069 2766 1631 
L 2766 1759 
L 2194 1759 
z
M 3341 1997 
L 3341 0 
L 2766 0 
L 2766 531 
Q 2569 213 2275 61 
Q 1981 -91 1556 -91 
Q 1019 -91 701 211 
Q 384 513 384 1019 
Q 384 1609 779 1909 
Q 1175 2209 1959 2209 
L 2766 2209 
L 2766 2266 
Q 2766 2663 2505 2880 
Q 2244 3097 1772 3097 
Q 1472 3097 1187 3025 
Q 903 2953 641 2809 
L 641 3341 
Q 956 3463 1253 3523 
Q 1550 3584 1831 3584 
Q 2591 3584 2966 3190 
Q 3341 2797 3341 1997 
z
" transform="scale(0.015625)"/>
       <path id="DejaVuSans-67" d="M 2906 1791 
Q 2906 2416 2648 2759 
Q 2391 3103 1925 3103 
Q 1463 3103 1205 2759 
Q 947 2416 947 1791 
Q 947 1169 1205 825 
Q 1463 481 1925 481 
Q 2391 481 2648 825 
Q 2906 1169 2906 1791 
z
M 3481 434 
Q 3481 -459 3084 -895 
Q 2688 -1331 1869 -1331 
Q 1566 -1331 1297 -1286 
Q 1028 -1241 775 -1147 
L 775 -588 
Q 1028 -725 1275 -790 
Q 1522 -856 1778 -856 
Q 2344 -856 2625 -561 
Q 2906 -266 2906 331 
L 2906 616 
Q 2728 306 2450 153 
Q 2172 0 1784 0 
Q 1141 0 747 490 
Q 353 981 353 1791 
Q 353 2603 747 3093 
Q 1141 3584 1784 3584 
Q 2172 3584 2450 3431 
Q 2728 3278 2906 2969 
L 2906 3500 
L 3481 3500 
L 3481 434 
z
" transform="scale(0.015625)"/>
       <path id="DejaVuSans-66" d="M 2375 4863 
L 2375 4384 
L 1825 4384 
Q 1516 4384 1395 4259 
Q 1275 4134 1275 3809 
L 1275 3500 
L 2222 3500 
L 2222 3053 
L 1275 3053 
L 1275 0 
L 697 0 
L 697 3053 
L 147 3053 
L 147 3500 
L 697 3500 
L 697 3744 
Q 697 4328 969 4595 
Q 1241 4863 1831 4863 
L 2375 4863 
z
" transform="scale(0.015625)"/>
      </defs>
      <use xlink:href="#DejaVuSans-41"/>
      <use xlink:href="#DejaVuSans-76" x="62.533203"/>
      <use xlink:href="#DejaVuSans-65" x="121.712891"/>
      <use xlink:href="#DejaVuSans-72" x="183.236328"/>
      <use xlink:href="#DejaVuSans-61" x="224.349609"/>
      <use xlink:href="#DejaVuSans-67" x="285.628906"/>
      <use xlink:href="#DejaVuSans-65" x="349.105469"/>
      <use xlink:href="#DejaVuSans-20" x="410.628906"/>
      <use xlink:href="#DejaVuSans-6f" x="442.416016"/>
      <use xlink:href="#DejaVuSans-66" x="503.597656"/>
      <use xlink:href="#DejaVuSans-20" x="538.802734"/>
      <use xlink:href="#DejaVuSans-50" x="570.589844"/>
      <use xlink:href="#DejaVuSans-72" x="629.142578"/>
      <use xlink:href="#DejaVuSans-65" x="668.005859"/>
      <use xlink:href="#DejaVuSans-64" x="729.529297"/>
      <use xlink:href="#DejaVuSans-69" x="793.005859"/>
      <use xlink:href="#DejaVuSans-63" x="820.789062"/>
      <use xlink:href="#DejaVuSans-74" x="875.769531"/>
      <use xlink:href="#DejaVuSans-69" x="914.978516"/>
      <use xlink:href="#DejaVuSans-6f" x="942.761719"/>
      <use xlink:href="#DejaVuSans-6e" x="1003.943359"/>
      <use xlink:href="#DejaVuSans-73" x="1067.322266"/>
     </g>
    </g>
   </g>
  </g>
 </g>
 <defs>
  <clipPath id="pb1531cc2f3">
   <rect x="45" y="43.2" width="279" height="277.2"/>
  </clipPath>
 </defs>
</svg>
