<?xml version="1.0" encoding="utf-8" standalone="no"?>
<!DOCTYPE svg PUBLIC "-//W3C//DTD SVG 1.1//EN"
  "http://www.w3.org/Graphics/SVG/1.1/DTD/svg11.dtd">
<svg xmlns:xlink="http://www.w3.org/1999/xlink" width="360pt" height="360pt" viewBox="0 0 360 360" xmlns="http://www.w3.org/2000/svg" version="1.1">
 <metadata>
  <rdf:RDF xmlns:dc="http://purl.org/dc/elements/1.1/" xmlns:cc="http://creativecommons.org/ns#" xmlns:rdf="http://www.w3.org/1999/02/22-rdf-syntax-ns#">
   <cc:Work>
    <dc:type rdf:resource="http://purl.org/dc/dcmitype/StillImage"/>
    <dc:date>2022-12-19T08:13:08.667145</dc:date>
    <dc:format>image/svg+xml</dc:format>
    <dc:creator>
     <cc:Agent>
      <dc:title>Matplotlib v3.5.3, https://matplotlib.org/</dc:title>
     </cc:Agent>
    </dc:creator>
   </cc:Work>
  </rdf:RDF>
 </metadata>
 <defs>
  <style type="text/css">*{stroke-linejoin: round; stroke-linecap: butt}</style>
 </defs>
 <g id="figure_1">
  <g id="patch_1">
   <path d="M 0 360 
L 360 360 
L 360 0 
L 0 0 
z
" style="fill: #ffffff"/>
  </g>
  <g id="axes_1">
   <g id="patch_2">
    <path d="M 45 320.4 
L 324 320.4 
L 324 43.2 
L 45 43.2 
z
" style="fill: #ffffff"/>
   </g>
   <g id="matplotlib.axis_1">
    <g id="xtick_1">
     <g id="line2d_1">
      <defs>
       <path id="m1a2f7e064a" d="M 0 0 
L 0 3.5 
" style="stroke: #000000; stroke-width: 0.8"/>
      </defs>
      <g>
       <use xlink:href="#m1a2f7e064a" x="83.045455" y="320.4" style="stroke: #000000; stroke-width: 0.8"/>
      </g>
     </g>
     <g id="text_1">
      <!-- −2 -->
      <g transform="translate(75.674361 334.998438)scale(0.1 -0.1)">
       <defs>
        <path id="DejaVuSans-2212" d="M 678 2272 
L 4684 2272 
L 4684 1741 
L 678 1741 
L 678 2272 
z
" transform="scale(0.015625)"/>
        <path id="DejaVuSans-32" d="M 1228 531 
L 3431 531 
L 3431 0 
L 469 0 
L 469 531 
Q 828 903 1448 1529 
Q 2069 2156 2228 2338 
Q 2531 2678 2651 2914 
Q 2772 3150 2772 3378 
Q 2772 3750 2511 3984 
Q 2250 4219 1831 4219 
Q 1534 4219 1204 4116 
Q 875 4013 500 3803 
L 500 4441 
Q 881 4594 1212 4672 
Q 1544 4750 1819 4750 
Q 2544 4750 2975 4387 
Q 3406 4025 3406 3419 
Q 3406 3131 3298 2873 
Q 3191 2616 2906 2266 
Q 2828 2175 2409 1742 
Q 1991 1309 1228 531 
z
" transform="scale(0.015625)"/>
       </defs>
       <use xlink:href="#DejaVuSans-2212"/>
       <use xlink:href="#DejaVuSans-32" x="83.789062"/>
      </g>
     </g>
    </g>
    <g id="xtick_2">
     <g id="line2d_2">
      <g>
       <use xlink:href="#m1a2f7e064a" x="133.772727" y="320.4" style="stroke: #000000; stroke-width: 0.8"/>
      </g>
     </g>
     <g id="text_2">
      <!-- −1 -->
      <g transform="translate(126.401634 334.998438)scale(0.1 -0.1)">
       <defs>
        <path id="DejaVuSans-31" d="M 794 531 
L 1825 531 
L 1825 4091 
L 703 3866 
L 703 4441 
L 1819 4666 
L 2450 4666 
L 2450 531 
L 3481 531 
L 3481 0 
L 794 0 
L 794 531 
z
" transform="scale(0.015625)"/>
       </defs>
       <use xlink:href="#DejaVuSans-2212"/>
       <use xlink:href="#DejaVuSans-31" x="83.789062"/>
      </g>
     </g>
    </g>
    <g id="xtick_3">
     <g id="line2d_3">
      <g>
       <use xlink:href="#m1a2f7e064a" x="184.5" y="320.4" style="stroke: #000000; stroke-width: 0.8"/>
      </g>
     </g>
     <g id="text_3">
      <!-- 0 -->
      <g transform="translate(181.31875 334.998438)scale(0.1 -0.1)">
       <defs>
        <path id="DejaVuSans-30" d="M 2034 4250 
Q 1547 4250 1301 3770 
Q 1056 3291 1056 2328 
Q 1056 1369 1301 889 
Q 1547 409 2034 409 
Q 2525 409 2770 889 
Q 3016 1369 3016 2328 
Q 3016 3291 2770 3770 
Q 2525 4250 2034 4250 
z
M 2034 4750 
Q 2819 4750 3233 4129 
Q 3647 3509 3647 2328 
Q 3647 1150 3233 529 
Q 2819 -91 2034 -91 
Q 1250 -91 836 529 
Q 422 1150 422 2328 
Q 422 3509 836 4129 
Q 1250 4750 2034 4750 
z
" transform="scale(0.015625)"/>
       </defs>
       <use xlink:href="#DejaVuSans-30"/>
      </g>
     </g>
    </g>
    <g id="xtick_4">
     <g id="line2d_4">
      <g>
       <use xlink:href="#m1a2f7e064a" x="235.227273" y="320.4" style="stroke: #000000; stroke-width: 0.8"/>
      </g>
     </g>
     <g id="text_4">
      <!-- 1 -->
      <g transform="translate(232.046023 334.998438)scale(0.1 -0.1)">
       <use xlink:href="#DejaVuSans-31"/>
      </g>
     </g>
    </g>
    <g id="xtick_5">
     <g id="line2d_5">
      <g>
       <use xlink:href="#m1a2f7e064a" x="285.954545" y="320.4" style="stroke: #000000; stroke-width: 0.8"/>
      </g>
     </g>
     <g id="text_5">
      <!-- 2 -->
      <g transform="translate(282.773295 334.998438)scale(0.1 -0.1)">
       <use xlink:href="#DejaVuSans-32"/>
      </g>
     </g>
    </g>
   </g>
   <g id="matplotlib.axis_2">
    <g id="ytick_1">
     <g id="line2d_6">
      <defs>
       <path id="m9b270129d0" d="M 0 0 
L -3.5 0 
" style="stroke: #000000; stroke-width: 0.8"/>
      </defs>
      <g>
       <use xlink:href="#m9b270129d0" x="45" y="312.142733" style="stroke: #000000; stroke-width: 0.8"/>
      </g>
     </g>
     <g id="text_6">
      <!-- −0.10 -->
      <g transform="translate(7.354687 315.941952)scale(0.1 -0.1)">
       <defs>
        <path id="DejaVuSans-2e" d="M 684 794 
L 1344 794 
L 1344 0 
L 684 0 
L 684 794 
z
" transform="scale(0.015625)"/>
       </defs>
       <use xlink:href="#DejaVuSans-2212"/>
       <use xlink:href="#DejaVuSans-30" x="83.789062"/>
       <use xlink:href="#DejaVuSans-2e" x="147.412109"/>
       <use xlink:href="#DejaVuSans-31" x="179.199219"/>
       <use xlink:href="#DejaVuSans-30" x="242.822266"/>
      </g>
     </g>
    </g>
    <g id="ytick_2">
     <g id="line2d_7">
      <g>
       <use xlink:href="#m9b270129d0" x="45" y="259.762987" style="stroke: #000000; stroke-width: 0.8"/>
      </g>
     </g>
     <g id="text_7">
      <!-- −0.05 -->
      <g transform="translate(7.354687 263.562206)scale(0.1 -0.1)">
       <defs>
        <path id="DejaVuSans-35" d="M 691 4666 
L 3169 4666 
L 3169 4134 
L 1269 4134 
L 1269 2991 
Q 1406 3038 1543 3061 
Q 1681 3084 1819 3084 
Q 2600 3084 3056 2656 
Q 3513 2228 3513 1497 
Q 3513 744 3044 326 
Q 2575 -91 1722 -91 
Q 1428 -91 1123 -41 
Q 819 9 494 109 
L 494 744 
Q 775 591 1075 516 
Q 1375 441 1709 441 
Q 2250 441 2565 725 
Q 2881 1009 2881 1497 
Q 2881 1984 2565 2268 
Q 2250 2553 1709 2553 
Q 1456 2553 1204 2497 
Q 953 2441 691 2322 
L 691 4666 
z
" transform="scale(0.015625)"/>
       </defs>
       <use xlink:href="#DejaVuSans-2212"/>
       <use xlink:href="#DejaVuSans-30" x="83.789062"/>
       <use xlink:href="#DejaVuSans-2e" x="147.412109"/>
       <use xlink:href="#DejaVuSans-30" x="179.199219"/>
       <use xlink:href="#DejaVuSans-35" x="242.822266"/>
      </g>
     </g>
    </g>
    <g id="ytick_3">
     <g id="line2d_8">
      <g>
       <use xlink:href="#m9b270129d0" x="45" y="207.383241" style="stroke: #000000; stroke-width: 0.8"/>
      </g>
     </g>
     <g id="text_8">
      <!-- 0.00 -->
      <g transform="translate(15.734375 211.18246)scale(0.1 -0.1)">
       <use xlink:href="#DejaVuSans-30"/>
       <use xlink:href="#DejaVuSans-2e" x="63.623047"/>
       <use xlink:href="#DejaVuSans-30" x="95.410156"/>
       <use xlink:href="#DejaVuSans-30" x="159.033203"/>
      </g>
     </g>
    </g>
    <g id="ytick_4">
     <g id="line2d_9">
      <g>
       <use xlink:href="#m9b270129d0" x="45" y="155.003495" style="stroke: #000000; stroke-width: 0.8"/>
      </g>
     </g>
     <g id="text_9">
      <!-- 0.05 -->
      <g transform="translate(15.734375 158.802714)scale(0.1 -0.1)">
       <use xlink:href="#DejaVuSans-30"/>
       <use xlink:href="#DejaVuSans-2e" x="63.623047"/>
       <use xlink:href="#DejaVuSans-30" x="95.410156"/>
       <use xlink:href="#DejaVuSans-35" x="159.033203"/>
      </g>
     </g>
    </g>
    <g id="ytick_5">
     <g id="line2d_10">
      <g>
       <use xlink:href="#m9b270129d0" x="45" y="102.623749" style="stroke: #000000; stroke-width: 0.8"/>
      </g>
     </g>
     <g id="text_10">
      <!-- 0.10 -->
      <g transform="translate(15.734375 106.422968)scale(0.1 -0.1)">
       <use xlink:href="#DejaVuSans-30"/>
       <use xlink:href="#DejaVuSans-2e" x="63.623047"/>
       <use xlink:href="#DejaVuSans-31" x="95.410156"/>
       <use xlink:href="#DejaVuSans-30" x="159.033203"/>
      </g>
     </g>
    </g>
    <g id="ytick_6">
     <g id="line2d_11">
      <g>
       <use xlink:href="#m9b270129d0" x="45" y="50.244003" style="stroke: #000000; stroke-width: 0.8"/>
      </g>
     </g>
     <g id="text_11">
      <!-- 0.15 -->
      <g transform="translate(15.734375 54.043222)scale(0.1 -0.1)">
       <use xlink:href="#DejaVuSans-30"/>
       <use xlink:href="#DejaVuSans-2e" x="63.623047"/>
       <use xlink:href="#DejaVuSans-31" x="95.410156"/>
       <use xlink:href="#DejaVuSans-35" x="159.033203"/>
      </g>
     </g>
    </g>
   </g>
   <g id="line2d_12">
    <path d="M 57.681818 164.713252 
L 60.860219 165.587733 
L 63.402942 166.533048 
L 65.945664 167.76864 
L 67.852697 168.927405 
L 69.759743 170.319402 
L 71.666776 171.969806 
L 73.573821 173.896152 
L 75.480866 176.107032 
L 77.387899 178.584911 
L 79.930622 182.252626 
L 83.109022 187.259512 
L 90.101501 198.486348 
L 92.644224 202.102736 
L 94.551263 204.475364 
L 96.458302 206.485482 
L 98.365347 208.082336 
L 99.636709 208.904516 
L 100.90807 209.529081 
L 102.179425 209.966272 
L 103.450781 210.228477 
L 105.35782 210.332329 
L 107.264859 210.152548 
L 109.807588 209.618548 
L 114.893027 208.182043 
L 118.707106 207.227637 
L 122.521184 206.522148 
L 132.056391 204.936982 
L 134.599111 204.163357 
L 136.50615 203.388182 
L 138.413193 202.417192 
L 140.320232 201.243841 
L 142.862951 199.37579 
L 145.405671 197.224255 
L 153.669511 189.876237 
L 155.576557 188.526451 
L 157.483596 187.451258 
L 159.390635 186.700461 
L 160.661995 186.396945 
L 161.933355 186.254478 
L 163.204716 186.273161 
L 165.111749 186.590614 
L 167.018788 187.219375 
L 168.925829 188.111239 
L 171.468555 189.601868 
L 175.28264 192.191818 
L 181.639433 196.530455 
L 185.453519 198.822259 
L 188.631919 200.492894 
L 191.810325 201.941063 
L 194.98873 203.1694 
L 198.167131 204.181003 
L 201.345524 204.982902 
L 204.523924 205.588547 
L 208.33801 206.084882 
L 212.787769 206.40728 
L 217.873208 206.541454 
L 225.501368 206.500618 
L 236.307931 206.22038 
L 249.657211 205.599012 
L 256.014012 205.426973 
L 261.735129 205.499206 
L 268.091936 205.826999 
L 273.813059 206.335123 
L 277.627138 206.878314 
L 280.805538 207.572864 
L 283.348261 208.36632 
L 285.890984 209.431123 
L 288.433701 210.805436 
L 290.976411 212.519631 
L 293.519146 214.548331 
L 296.061857 216.852173 
L 299.875935 220.660407 
L 306.868426 227.781338 
L 310.046826 230.677826 
L 311.318182 231.731239 
L 311.318182 231.731239 
" clip-path="url(#p434a1f3060)" style="fill: none; stroke: #1f77b4; stroke-width: 1.5; stroke-linecap: square"/>
   </g>
   <g id="line2d_13">
    <path d="M 57.681818 268.714354 
L 60.224541 268.127004 
L 62.767264 267.324156 
L 65.309987 266.232628 
L 67.21702 265.179914 
L 69.124053 263.888573 
L 71.031098 262.329883 
L 72.938143 260.483512 
L 74.845188 258.352158 
L 77.387899 255.108246 
L 80.566299 250.584608 
L 88.194462 239.508256 
L 91.372862 235.348102 
L 94.551263 231.504302 
L 98.365347 227.254132 
L 102.179425 223.374465 
L 105.35782 220.440863 
L 108.536226 217.789795 
L 111.714627 215.397286 
L 115.528705 212.79807 
L 121.249829 209.232359 
L 127.606623 205.528128 
L 131.420714 203.530899 
L 134.599111 202.13076 
L 137.141831 201.259726 
L 139.684551 200.6468 
L 142.227271 200.302073 
L 144.769991 200.209359 
L 147.31271 200.328698 
L 150.491111 200.702648 
L 154.305195 201.37302 
L 159.390635 202.495419 
L 174.64696 206.070371 
L 178.46104 206.562834 
L 181.639433 206.763621 
L 185.453519 206.772063 
L 189.903285 206.546175 
L 201.981204 205.780817 
L 206.430969 205.800823 
L 210.88073 206.072294 
L 215.330489 206.584564 
L 220.415928 207.409167 
L 228.044088 208.926895 
L 237.579292 210.814028 
L 242.664732 211.605437 
L 247.114494 212.076945 
L 250.928572 212.265719 
L 254.74265 212.216515 
L 257.921051 211.969046 
L 261.099451 211.520866 
L 264.277852 210.860585 
L 267.456258 209.975913 
L 270.634659 208.850667 
L 273.177376 207.750497 
L 275.720098 206.44492 
L 278.262815 204.894172 
L 280.805538 203.063087 
L 283.348261 200.917297 
L 285.890984 198.439417 
L 288.433701 195.637641 
L 291.612101 191.747884 
L 296.061857 185.861197 
L 301.14729 179.210026 
L 303.690025 176.206638 
L 306.232736 173.546929 
L 308.139781 171.832135 
L 310.046826 170.378297 
L 311.318182 169.561461 
L 311.318182 169.561461 
" clip-path="url(#p434a1f3060)" style="fill: none; stroke: #ff7f0e; stroke-width: 1.5; stroke-linecap: square"/>
   </g>
   <g id="line2d_14">
    <path d="M 57.681818 214.230878 
L 59.588863 213.354649 
L 61.495896 212.252431 
L 63.402942 210.888009 
L 65.309987 209.218023 
L 67.21702 207.215698 
L 69.124053 204.873342 
L 71.666776 201.294343 
L 77.387899 192.801597 
L 78.659254 191.256594 
L 79.930622 189.982137 
L 81.201977 189.032976 
L 82.473333 188.441006 
L 83.7447 188.208786 
L 85.016061 188.32394 
L 86.287423 188.745321 
L 87.558784 189.42436 
L 89.465823 190.799122 
L 92.00854 193.005606 
L 99.636709 199.825519 
L 103.450781 202.902337 
L 106.629181 205.234553 
L 109.171904 206.8933 
L 111.714627 208.323411 
L 114.257344 209.494264 
L 116.800067 210.398767 
L 119.342783 211.045661 
L 121.885506 211.455427 
L 124.428223 211.661584 
L 127.606623 211.682864 
L 131.420714 211.471962 
L 140.955909 210.831911 
L 144.13431 210.884712 
L 147.31271 211.159305 
L 150.491111 211.648147 
L 154.940876 212.599206 
L 161.297675 213.990653 
L 163.840395 214.353513 
L 166.383109 214.509617 
L 168.925829 214.416105 
L 171.468555 214.054968 
L 174.011274 213.434199 
L 176.554 212.580923 
L 179.732393 211.248172 
L 183.546474 209.379921 
L 199.438491 201.203079 
L 203.888245 199.299674 
L 208.973691 197.388351 
L 214.694811 195.489455 
L 224.86569 192.400597 
L 245.843132 186.015802 
L 255.378334 182.916554 
L 265.549213 179.329913 
L 274.448737 176.009223 
L 277.627138 174.630514 
L 280.169854 173.342121 
L 282.712583 171.802762 
L 284.619622 170.457023 
L 287.162333 168.354792 
L 289.705056 165.893497 
L 292.247779 163.107106 
L 295.426179 159.272897 
L 304.961381 147.436382 
L 308.139781 143.958239 
L 311.318182 140.82837 
L 311.318182 140.82837 
" clip-path="url(#p434a1f3060)" style="fill: none; stroke: #2ca02c; stroke-width: 1.5; stroke-linecap: square"/>
   </g>
   <g id="line2d_15">
    <path d="M 57.681818 191.32433 
L 62.767264 191.725954 
L 66.581342 192.207353 
L 71.031098 193.017794 
L 80.566299 194.944715 
L 83.109022 195.188836 
L 86.287423 195.268212 
L 93.915579 195.315792 
L 97.09398 195.651428 
L 100.272386 196.240676 
L 104.086458 197.188638 
L 113.621666 199.688048 
L 118.071428 200.584458 
L 130.78503 202.911829 
L 133.327753 203.678411 
L 135.87047 204.679423 
L 138.413193 205.958875 
L 140.955909 207.534 
L 143.498632 209.378473 
L 147.31271 212.485063 
L 151.762469 216.092085 
L 154.305195 217.823364 
L 156.212234 218.838263 
L 158.119276 219.54705 
L 159.390635 219.833931 
L 160.661995 219.964509 
L 161.933355 219.94143 
L 163.840395 219.633569 
L 165.747428 219.036578 
L 167.654469 218.218544 
L 170.832874 216.576332 
L 174.64696 214.608375 
L 177.18968 213.545046 
L 179.09672 212.949428 
L 181.003753 212.54773 
L 182.910794 212.342821 
L 184.817839 212.324464 
L 187.360559 212.555073 
L 189.903285 213.019613 
L 193.717365 213.99947 
L 202.616884 216.462626 
L 206.430969 217.220129 
L 209.60937 217.63479 
L 212.787769 217.847816 
L 216.60185 217.852112 
L 220.415928 217.609864 
L 224.230009 217.142801 
L 228.044088 216.452847 
L 231.858169 215.514826 
L 235.036569 214.50612 
L 238.214976 213.242454 
L 240.757693 212.009509 
L 243.300416 210.543781 
L 245.843132 208.806458 
L 248.385855 206.757427 
L 250.928572 204.355127 
L 253.471295 201.5538 
L 256.014012 198.305642 
L 257.921051 195.547425 
L 259.82809 192.487991 
L 261.735129 189.108555 
L 264.277852 184.067676 
L 266.820575 178.378704 
L 269.363297 172.012866 
L 271.906014 164.964367 
L 274.448737 157.256785 
L 277.627138 146.78659 
L 281.441222 133.27944 
L 290.976411 98.772156 
L 293.519146 90.414583 
L 296.061857 82.785728 
L 297.96889 77.612772 
L 299.875935 72.962727 
L 301.78298 68.843185 
L 303.690025 65.258542 
L 305.597058 62.192014 
L 307.504104 59.618824 
L 309.411149 57.503205 
L 311.318182 55.8 
L 311.318182 55.8 
" clip-path="url(#p434a1f3060)" style="fill: none; stroke: #d62728; stroke-width: 1.5; stroke-linecap: square"/>
   </g>
   <g id="line2d_16">
    <path d="M 57.681818 183.60506 
L 59.588863 184.44772 
L 61.495896 185.536451 
L 63.402942 186.919955 
L 65.309987 188.65478 
L 67.21702 190.786084 
L 69.124053 193.350133 
L 71.031098 196.348675 
L 72.938143 199.730908 
L 76.116544 205.902078 
L 79.294932 211.948516 
L 81.201977 215.074338 
L 82.473333 216.824674 
L 83.7447 218.269259 
L 85.016061 219.389722 
L 86.287423 220.196866 
L 87.558784 220.712059 
L 88.83014 220.968868 
L 90.101501 221.011753 
L 92.00854 220.780345 
L 94.551263 220.14419 
L 99.636709 218.759287 
L 102.179425 218.325943 
L 104.722142 218.134223 
L 107.264859 218.164544 
L 110.443266 218.432943 
L 115.528705 219.139132 
L 128.242307 221.184166 
L 132.692069 222.080577 
L 136.50615 223.052267 
L 140.320232 224.260785 
L 144.769991 225.952751 
L 154.305195 229.748696 
L 156.847915 230.50249 
L 159.390635 231.032943 
L 161.933355 231.301292 
L 164.476068 231.29275 
L 167.018788 231.018856 
L 169.561514 230.511731 
L 172.739914 229.623163 
L 176.554 228.308944 
L 183.546474 225.614218 
L 191.174644 222.75015 
L 195.62441 221.290916 
L 200.074164 220.077728 
L 203.888245 219.269972 
L 207.702329 218.693874 
L 211.51641 218.35594 
L 215.330489 218.258631 
L 219.14457 218.403521 
L 222.958648 218.791008 
L 226.772729 219.419494 
L 230.586807 220.28296 
L 234.400889 221.367944 
L 238.850654 222.880028 
L 244.571771 225.112537 
L 256.014012 229.708234 
L 260.463774 231.213624 
L 264.913529 232.483534 
L 276.991454 235.686135 
L 279.534177 236.670813 
L 282.076899 237.911451 
L 283.983945 239.059176 
L 285.890984 240.416106 
L 287.798011 242.009214 
L 289.705056 243.844495 
L 292.247779 246.674844 
L 294.790502 249.924201 
L 297.333212 253.527227 
L 300.511613 258.416048 
L 305.597058 266.740453 
L 311.318182 276.281517 
L 311.318182 276.281517 
" clip-path="url(#p434a1f3060)" style="fill: none; stroke: #9467bd; stroke-width: 1.5; stroke-linecap: square"/>
   </g>
   <g id="line2d_17">
    <path d="M 57.681818 205.294247 
L 60.224541 204.698405 
L 62.767264 203.874077 
L 64.674309 203.069881 
L 66.581342 202.075612 
L 68.488375 200.866394 
L 70.39542 199.433936 
L 72.938143 197.189787 
L 76.116544 193.990733 
L 79.930622 190.104523 
L 81.837655 188.393425 
L 83.7447 186.955959 
L 85.651745 185.840766 
L 87.558784 185.056201 
L 89.465823 184.582944 
L 91.372862 184.385079 
L 93.279902 184.420995 
L 95.186941 184.662319 
L 97.729663 185.257062 
L 100.272386 186.11416 
L 103.450781 187.468292 
L 107.900543 189.657242 
L 114.893027 193.090177 
L 119.978467 195.303754 
L 125.699584 197.548002 
L 132.692069 200.039718 
L 137.777512 201.634825 
L 142.227271 202.826209 
L 147.31271 203.931074 
L 151.126789 204.548446 
L 154.305195 204.87549 
L 157.483596 204.977344 
L 160.661995 204.829183 
L 163.840395 204.44779 
L 175.28264 202.774657 
L 177.82536 202.729574 
L 180.368073 202.877186 
L 183.546474 203.31635 
L 187.360559 204.134459 
L 200.074164 207.197665 
L 203.252564 207.646307 
L 206.430969 207.883622 
L 209.60937 207.902155 
L 212.787769 207.706813 
L 215.966169 207.313082 
L 219.780251 206.607642 
L 223.594329 205.68648 
L 228.044088 204.395139 
L 233.765208 202.494819 
L 248.385855 197.476619 
L 252.199933 196.453177 
L 256.014012 195.688094 
L 259.192412 195.283173 
L 262.370813 195.088955 
L 266.184897 195.098346 
L 278.262815 195.419046 
L 280.805538 195.192458 
L 283.348261 194.76306 
L 285.890984 194.11147 
L 288.433701 193.223901 
L 290.976411 192.124731 
L 294.154824 190.511641 
L 299.240257 187.60876 
L 308.139781 182.510135 
L 311.318182 180.77496 
L 311.318182 180.77496 
" clip-path="url(#p434a1f3060)" style="fill: none; stroke: #8c564b; stroke-width: 1.5; stroke-linecap: square"/>
   </g>
   <g id="line2d_18">
    <path d="M 57.681818 244.158351 
L 60.860219 243.577195 
L 63.402942 242.91002 
L 65.945664 242.01311 
L 68.488375 240.834963 
L 70.39542 239.748181 
L 72.938143 238.016053 
L 75.480866 235.97996 
L 78.659254 233.11814 
L 91.372862 221.223829 
L 94.551263 218.619618 
L 97.09398 216.793129 
L 99.636709 215.280545 
L 101.543748 214.384434 
L 103.450781 213.699226 
L 105.35782 213.216129 
L 107.900543 212.841529 
L 110.443266 212.707805 
L 114.257344 212.788179 
L 131.420714 213.55651 
L 137.777512 213.452257 
L 144.13431 213.112625 
L 154.305195 212.295041 
L 161.933355 211.481853 
L 167.654469 210.649632 
L 175.28264 209.278566 
L 185.453519 207.473157 
L 191.174644 206.702054 
L 196.26009 206.231357 
L 201.981204 205.940792 
L 208.33801 205.850851 
L 224.230009 205.746724 
L 229.315449 205.422228 
L 234.400889 204.874391 
L 245.843132 203.472953 
L 248.385855 203.391579 
L 250.928572 203.524904 
L 252.835611 203.805991 
L 254.74265 204.279947 
L 256.649689 204.975696 
L 258.556734 205.92171 
L 260.463774 207.145164 
L 262.370813 208.66524 
L 264.277852 210.497924 
L 266.184897 212.647911 
L 268.091936 215.111304 
L 270.634659 218.857296 
L 273.177376 223.056163 
L 276.991454 229.905549 
L 281.441222 237.907455 
L 283.983945 241.972448 
L 285.890984 244.560225 
L 287.162333 246.002074 
L 288.433701 247.185366 
L 289.705056 248.092517 
L 290.976411 248.695752 
L 292.247779 248.988677 
L 293.519146 248.966098 
L 294.790502 248.637406 
L 296.061857 248.001002 
L 297.333212 247.077267 
L 298.60458 245.883385 
L 299.875935 244.44813 
L 301.78298 241.88513 
L 303.690025 238.923903 
L 306.232736 234.517829 
L 310.046826 227.324966 
L 311.318182 224.861672 
L 311.318182 224.861672 
" clip-path="url(#p434a1f3060)" style="fill: none; stroke: #e377c2; stroke-width: 1.5; stroke-linecap: square"/>
   </g>
   <g id="line2d_19">
    <path d="M 57.681818 169.621655 
L 69.759743 169.768418 
L 72.302453 170.037915 
L 74.209498 170.420407 
L 76.116544 171.039727 
L 78.023577 171.95974 
L 79.930622 173.238818 
L 81.837655 174.899313 
L 83.7447 176.918984 
L 86.287423 180.055209 
L 94.551263 190.80167 
L 96.458302 192.832768 
L 98.365347 194.571989 
L 100.272386 196.002399 
L 102.179425 197.123799 
L 104.086458 197.958917 
L 105.993504 198.541222 
L 107.900543 198.915571 
L 110.443266 199.168984 
L 113.621666 199.238469 
L 121.885506 199.040554 
L 133.327753 198.714559 
L 136.50615 198.385867 
L 139.684551 197.81695 
L 142.227271 197.160015 
L 145.405671 196.103305 
L 154.940876 192.637401 
L 156.847915 192.248315 
L 158.754957 192.073779 
L 160.661995 192.13657 
L 162.569035 192.443582 
L 164.476068 192.981129 
L 167.018788 193.990034 
L 170.832874 195.850741 
L 174.64696 197.680478 
L 177.18968 198.675971 
L 179.732393 199.410258 
L 182.275114 199.868029 
L 184.817839 200.073687 
L 187.996239 200.057177 
L 193.081685 199.718819 
L 198.167131 199.456052 
L 201.345524 199.500411 
L 204.523924 199.761754 
L 207.702329 200.248897 
L 210.88073 200.945095 
L 214.694811 202.009848 
L 219.780251 203.704361 
L 228.044088 206.764421 
L 237.579292 210.244561 
L 243.300416 212.107816 
L 247.750171 213.35385 
L 252.199933 214.358409 
L 256.014012 214.990017 
L 259.82809 215.394538 
L 263.642174 215.589056 
L 269.998975 215.647701 
L 273.813059 215.760296 
L 276.355776 216.004767 
L 278.898499 216.483119 
L 280.805538 217.04799 
L 282.712583 217.821665 
L 284.619622 218.83172 
L 286.526655 220.085545 
L 288.433701 221.593333 
L 290.976411 223.942933 
L 294.154824 227.287201 
L 301.14729 234.845922 
L 303.690025 237.177538 
L 305.597058 238.662748 
L 307.504104 239.893995 
L 309.411149 240.855494 
L 311.318182 241.550044 
L 311.318182 241.550044 
" clip-path="url(#p434a1f3060)" style="fill: none; stroke: #7f7f7f; stroke-width: 1.5; stroke-linecap: square"/>
   </g>
   <g id="line2d_20">
    <path d="M 57.681818 225.651683 
L 61.495896 226.052008 
L 65.309987 226.676673 
L 69.759743 227.6622 
L 73.573821 228.470043 
L 75.480866 228.687789 
L 77.387899 228.667009 
L 78.659254 228.476737 
L 79.930622 228.118422 
L 81.201977 227.58762 
L 83.109022 226.468293 
L 85.016061 225.018575 
L 87.558784 222.747902 
L 92.644224 218.096008 
L 95.186941 216.099628 
L 97.729663 214.403017 
L 100.272386 212.974755 
L 103.450781 211.479805 
L 106.629181 210.218386 
L 110.443266 208.939334 
L 114.257344 207.879776 
L 118.707106 206.895448 
L 123.156868 206.143602 
L 128.877991 205.428821 
L 144.769991 203.651136 
L 155.576557 202.172921 
L 159.390635 201.925952 
L 162.569035 201.933944 
L 165.747428 202.154138 
L 169.561514 202.685541 
L 174.011274 203.574933 
L 184.817839 205.896983 
L 188.631919 206.446319 
L 192.446005 206.765107 
L 196.26009 206.857646 
L 200.709844 206.737771 
L 210.245049 206.15619 
L 215.966169 205.938869 
L 220.415928 205.965519 
L 224.86569 206.219406 
L 228.679768 206.651327 
L 232.493847 207.308261 
L 236.307931 208.211515 
L 240.122015 209.37043 
L 243.936093 210.78011 
L 247.750171 212.422722 
L 252.199933 214.59219 
L 256.649689 217.004431 
L 261.099451 219.666238 
L 264.913529 222.188176 
L 268.72762 224.99185 
L 272.541698 228.107932 
L 276.355776 231.518238 
L 287.162333 241.482307 
L 289.705056 243.436877 
L 291.612101 244.694299 
L 293.519146 245.733126 
L 295.426179 246.531179 
L 297.333212 247.081264 
L 299.240257 247.376787 
L 301.14729 247.430137 
L 303.054336 247.252104 
L 304.961381 246.879253 
L 307.504104 246.132152 
L 310.682504 244.911695 
L 311.318182 244.643147 
L 311.318182 244.643147 
" clip-path="url(#p434a1f3060)" style="fill: none; stroke: #bcbd22; stroke-width: 1.5; stroke-linecap: square"/>
   </g>
   <g id="line2d_21">
    <path d="M 57.681818 206.518601 
L 60.224541 207.090665 
L 62.767264 207.878827 
L 65.309987 208.935787 
L 67.852697 210.300659 
L 70.39542 211.973193 
L 73.573821 214.392227 
L 77.387899 217.29316 
L 79.294932 218.475653 
L 81.201977 219.328105 
L 82.473333 219.676254 
L 83.7447 219.842286 
L 85.016061 219.832058 
L 86.923101 219.521873 
L 88.83014 218.935522 
L 91.372862 217.894947 
L 100.272386 214.050997 
L 104.086458 212.762553 
L 107.264859 211.919892 
L 110.443266 211.304619 
L 113.621666 210.920029 
L 116.800067 210.74844 
L 120.614145 210.782707 
L 125.063907 211.069988 
L 139.684551 212.234448 
L 143.498632 212.184844 
L 147.31271 211.899112 
L 151.126789 211.373554 
L 154.940876 210.610069 
L 159.390635 209.453153 
L 170.832874 206.235516 
L 174.011274 205.652986 
L 177.18968 205.301016 
L 180.368073 205.175534 
L 184.182154 205.282134 
L 188.631919 205.664301 
L 196.895771 206.679126 
L 203.252564 207.367568 
L 208.33801 207.719601 
L 213.42345 207.868861 
L 219.780251 207.819008 
L 232.493847 207.634456 
L 236.307931 207.824378 
L 239.486331 208.161962 
L 242.664732 208.701656 
L 245.843132 209.467839 
L 249.021533 210.474496 
L 252.199933 211.720879 
L 255.378334 213.190203 
L 259.192412 215.214507 
L 263.00649 217.478687 
L 267.456258 220.395155 
L 271.270337 223.179847 
L 274.448737 225.808586 
L 276.991454 228.223124 
L 278.898499 230.280198 
L 280.805538 232.601424 
L 282.712583 235.241352 
L 284.619622 238.241542 
L 286.526655 241.635364 
L 288.433701 245.45099 
L 290.340734 249.681628 
L 292.883456 255.936371 
L 295.426179 262.785956 
L 299.240257 273.808034 
L 306.232736 294.305837 
L 309.411149 302.953339 
L 311.318182 307.8 
L 311.318182 307.8 
" clip-path="url(#p434a1f3060)" style="fill: none; stroke: #17becf; stroke-width: 1.5; stroke-linecap: square"/>
   </g>
   <g id="patch_3">
    <path d="M 45 320.4 
L 45 43.2 
" style="fill: none; stroke: #000000; stroke-width: 0.8; stroke-linejoin: miter; stroke-linecap: square"/>
   </g>
   <g id="patch_4">
    <path d="M 324 320.4 
L 324 43.2 
" style="fill: none; stroke: #000000; stroke-width: 0.8; stroke-linejoin: miter; stroke-linecap: square"/>
   </g>
   <g id="patch_5">
    <path d="M 45 320.4 
L 324 320.4 
" style="fill: none; stroke: #000000; stroke-width: 0.8; stroke-linejoin: miter; stroke-linecap: square"/>
   </g>
   <g id="patch_6">
    <path d="M 45 43.2 
L 324 43.2 
" style="fill: none; stroke: #000000; stroke-width: 0.8; stroke-linejoin: miter; stroke-linecap: square"/>
   </g>
   <g id="text_12">
    <!-- Deviation from average for single draw -->
    <g transform="translate(66.87 37.2)scale(0.12 -0.12)">
     <defs>
      <path id="DejaVuSans-44" d="M 1259 4147 
L 1259 519 
L 2022 519 
Q 2988 519 3436 956 
Q 3884 1394 3884 2338 
Q 3884 3275 3436 3711 
Q 2988 4147 2022 4147 
L 1259 4147 
z
M 628 4666 
L 1925 4666 
Q 3281 4666 3915 4102 
Q 4550 3538 4550 2338 
Q 4550 1131 3912 565 
Q 3275 0 1925 0 
L 628 0 
L 628 4666 
z
" transform="scale(0.015625)"/>
      <path id="DejaVuSans-65" d="M 3597 1894 
L 3597 1613 
L 953 1613 
Q 991 1019 1311 708 
Q 1631 397 2203 397 
Q 2534 397 2845 478 
Q 3156 559 3463 722 
L 3463 178 
Q 3153 47 2828 -22 
Q 2503 -91 2169 -91 
Q 1331 -91 842 396 
Q 353 884 353 1716 
Q 353 2575 817 3079 
Q 1281 3584 2069 3584 
Q 2775 3584 3186 3129 
Q 3597 2675 3597 1894 
z
M 3022 2063 
Q 3016 2534 2758 2815 
Q 2500 3097 2075 3097 
Q 1594 3097 1305 2825 
Q 1016 2553 972 2059 
L 3022 2063 
z
" transform="scale(0.015625)"/>
      <path id="DejaVuSans-76" d="M 191 3500 
L 800 3500 
L 1894 563 
L 2988 3500 
L 3597 3500 
L 2284 0 
L 1503 0 
L 191 3500 
z
" transform="scale(0.015625)"/>
      <path id="DejaVuSans-69" d="M 603 3500 
L 1178 3500 
L 1178 0 
L 603 0 
L 603 3500 
z
M 603 4863 
L 1178 4863 
L 1178 4134 
L 603 4134 
L 603 4863 
z
" transform="scale(0.015625)"/>
      <path id="DejaVuSans-61" d="M 2194 1759 
Q 1497 1759 1228 1600 
Q 959 1441 959 1056 
Q 959 750 1161 570 
Q 1363 391 1709 391 
Q 2188 391 2477 730 
Q 2766 1069 2766 1631 
L 2766 1759 
L 2194 1759 
z
M 3341 1997 
L 3341 0 
L 2766 0 
L 2766 531 
Q 2569 213 2275 61 
Q 1981 -91 1556 -91 
Q 1019 -91 701 211 
Q 384 513 384 1019 
Q 384 1609 779 1909 
Q 1175 2209 1959 2209 
L 2766 2209 
L 2766 2266 
Q 2766 2663 2505 2880 
Q 2244 3097 1772 3097 
Q 1472 3097 1187 3025 
Q 903 2953 641 2809 
L 641 3341 
Q 956 3463 1253 3523 
Q 1550 3584 1831 3584 
Q 2591 3584 2966 3190 
Q 3341 2797 3341 1997 
z
" transform="scale(0.015625)"/>
      <path id="DejaVuSans-74" d="M 1172 4494 
L 1172 3500 
L 2356 3500 
L 2356 3053 
L 1172 3053 
L 1172 1153 
Q 1172 725 1289 603 
Q 1406 481 1766 481 
L 2356 481 
L 2356 0 
L 1766 0 
Q 1100 0 847 248 
Q 594 497 594 1153 
L 594 3053 
L 172 3053 
L 172 3500 
L 594 3500 
L 594 4494 
L 1172 4494 
z
" transform="scale(0.015625)"/>
      <path id="DejaVuSans-6f" d="M 1959 3097 
Q 1497 3097 1228 2736 
Q 959 2375 959 1747 
Q 959 1119 1226 758 
Q 1494 397 1959 397 
Q 2419 397 2687 759 
Q 2956 1122 2956 1747 
Q 2956 2369 2687 2733 
Q 2419 3097 1959 3097 
z
M 1959 3584 
Q 2709 3584 3137 3096 
Q 3566 2609 3566 1747 
Q 3566 888 3137 398 
Q 2709 -91 1959 -91 
Q 1206 -91 779 398 
Q 353 888 353 1747 
Q 353 2609 779 3096 
Q 1206 3584 1959 3584 
z
" transform="scale(0.015625)"/>
      <path id="DejaVuSans-6e" d="M 3513 2113 
L 3513 0 
L 2938 0 
L 2938 2094 
Q 2938 2591 2744 2837 
Q 2550 3084 2163 3084 
Q 1697 3084 1428 2787 
Q 1159 2491 1159 1978 
L 1159 0 
L 581 0 
L 581 3500 
L 1159 3500 
L 1159 2956 
Q 1366 3272 1645 3428 
Q 1925 3584 2291 3584 
Q 2894 3584 3203 3211 
Q 3513 2838 3513 2113 
z
" transform="scale(0.015625)"/>
      <path id="DejaVuSans-20" transform="scale(0.015625)"/>
      <path id="DejaVuSans-66" d="M 2375 4863 
L 2375 4384 
L 1825 4384 
Q 1516 4384 1395 4259 
Q 1275 4134 1275 3809 
L 1275 3500 
L 2222 3500 
L 2222 3053 
L 1275 3053 
L 1275 0 
L 697 0 
L 697 3053 
L 147 3053 
L 147 3500 
L 697 3500 
L 697 3744 
Q 697 4328 969 4595 
Q 1241 4863 1831 4863 
L 2375 4863 
z
" transform="scale(0.015625)"/>
      <path id="DejaVuSans-72" d="M 2631 2963 
Q 2534 3019 2420 3045 
Q 2306 3072 2169 3072 
Q 1681 3072 1420 2755 
Q 1159 2438 1159 1844 
L 1159 0 
L 581 0 
L 581 3500 
L 1159 3500 
L 1159 2956 
Q 1341 3275 1631 3429 
Q 1922 3584 2338 3584 
Q 2397 3584 2469 3576 
Q 2541 3569 2628 3553 
L 2631 2963 
z
" transform="scale(0.015625)"/>
      <path id="DejaVuSans-6d" d="M 3328 2828 
Q 3544 3216 3844 3400 
Q 4144 3584 4550 3584 
Q 5097 3584 5394 3201 
Q 5691 2819 5691 2113 
L 5691 0 
L 5113 0 
L 5113 2094 
Q 5113 2597 4934 2840 
Q 4756 3084 4391 3084 
Q 3944 3084 3684 2787 
Q 3425 2491 3425 1978 
L 3425 0 
L 2847 0 
L 2847 2094 
Q 2847 2600 2669 2842 
Q 2491 3084 2119 3084 
Q 1678 3084 1418 2786 
Q 1159 2488 1159 1978 
L 1159 0 
L 581 0 
L 581 3500 
L 1159 3500 
L 1159 2956 
Q 1356 3278 1631 3431 
Q 1906 3584 2284 3584 
Q 2666 3584 2933 3390 
Q 3200 3197 3328 2828 
z
" transform="scale(0.015625)"/>
      <path id="DejaVuSans-67" d="M 2906 1791 
Q 2906 2416 2648 2759 
Q 2391 3103 1925 3103 
Q 1463 3103 1205 2759 
Q 947 2416 947 1791 
Q 947 1169 1205 825 
Q 1463 481 1925 481 
Q 2391 481 2648 825 
Q 2906 1169 2906 1791 
z
M 3481 434 
Q 3481 -459 3084 -895 
Q 2688 -1331 1869 -1331 
Q 1566 -1331 1297 -1286 
Q 1028 -1241 775 -1147 
L 775 -588 
Q 1028 -725 1275 -790 
Q 1522 -856 1778 -856 
Q 2344 -856 2625 -561 
Q 2906 -266 2906 331 
L 2906 616 
Q 2728 306 2450 153 
Q 2172 0 1784 0 
Q 1141 0 747 490 
Q 353 981 353 1791 
Q 353 2603 747 3093 
Q 1141 3584 1784 3584 
Q 2172 3584 2450 3431 
Q 2728 3278 2906 2969 
L 2906 3500 
L 3481 3500 
L 3481 434 
z
" transform="scale(0.015625)"/>
      <path id="DejaVuSans-73" d="M 2834 3397 
L 2834 2853 
Q 2591 2978 2328 3040 
Q 2066 3103 1784 3103 
Q 1356 3103 1142 2972 
Q 928 2841 928 2578 
Q 928 2378 1081 2264 
Q 1234 2150 1697 2047 
L 1894 2003 
Q 2506 1872 2764 1633 
Q 3022 1394 3022 966 
Q 3022 478 2636 193 
Q 2250 -91 1575 -91 
Q 1294 -91 989 -36 
Q 684 19 347 128 
L 347 722 
Q 666 556 975 473 
Q 1284 391 1588 391 
Q 1994 391 2212 530 
Q 2431 669 2431 922 
Q 2431 1156 2273 1281 
Q 2116 1406 1581 1522 
L 1381 1569 
Q 847 1681 609 1914 
Q 372 2147 372 2553 
Q 372 3047 722 3315 
Q 1072 3584 1716 3584 
Q 2034 3584 2315 3537 
Q 2597 3491 2834 3397 
z
" transform="scale(0.015625)"/>
      <path id="DejaVuSans-6c" d="M 603 4863 
L 1178 4863 
L 1178 0 
L 603 0 
L 603 4863 
z
" transform="scale(0.015625)"/>
      <path id="DejaVuSans-64" d="M 2906 2969 
L 2906 4863 
L 3481 4863 
L 3481 0 
L 2906 0 
L 2906 525 
Q 2725 213 2448 61 
Q 2172 -91 1784 -91 
Q 1150 -91 751 415 
Q 353 922 353 1747 
Q 353 2572 751 3078 
Q 1150 3584 1784 3584 
Q 2172 3584 2448 3432 
Q 2725 3281 2906 2969 
z
M 947 1747 
Q 947 1113 1208 752 
Q 1469 391 1925 391 
Q 2381 391 2643 752 
Q 2906 1113 2906 1747 
Q 2906 2381 2643 2742 
Q 2381 3103 1925 3103 
Q 1469 3103 1208 2742 
Q 947 2381 947 1747 
z
" transform="scale(0.015625)"/>
      <path id="DejaVuSans-77" d="M 269 3500 
L 844 3500 
L 1563 769 
L 2278 3500 
L 2956 3500 
L 3675 769 
L 4391 3500 
L 4966 3500 
L 4050 0 
L 3372 0 
L 2619 2869 
L 1863 0 
L 1184 0 
L 269 3500 
z
" transform="scale(0.015625)"/>
     </defs>
     <use xlink:href="#DejaVuSans-44"/>
     <use xlink:href="#DejaVuSans-65" x="77.001953"/>
     <use xlink:href="#DejaVuSans-76" x="138.525391"/>
     <use xlink:href="#DejaVuSans-69" x="197.705078"/>
     <use xlink:href="#DejaVuSans-61" x="225.488281"/>
     <use xlink:href="#DejaVuSans-74" x="286.767578"/>
     <use xlink:href="#DejaVuSans-69" x="325.976562"/>
     <use xlink:href="#DejaVuSans-6f" x="353.759766"/>
     <use xlink:href="#DejaVuSans-6e" x="414.941406"/>
     <use xlink:href="#DejaVuSans-20" x="478.320312"/>
     <use xlink:href="#DejaVuSans-66" x="510.107422"/>
     <use xlink:href="#DejaVuSans-72" x="545.3125"/>
     <use xlink:href="#DejaVuSans-6f" x="584.175781"/>
     <use xlink:href="#DejaVuSans-6d" x="645.357422"/>
     <use xlink:href="#DejaVuSans-20" x="742.769531"/>
     <use xlink:href="#DejaVuSans-61" x="774.556641"/>
     <use xlink:href="#DejaVuSans-76" x="835.835938"/>
     <use xlink:href="#DejaVuSans-65" x="895.015625"/>
     <use xlink:href="#DejaVuSans-72" x="956.539062"/>
     <use xlink:href="#DejaVuSans-61" x="997.652344"/>
     <use xlink:href="#DejaVuSans-67" x="1058.931641"/>
     <use xlink:href="#DejaVuSans-65" x="1122.408203"/>
     <use xlink:href="#DejaVuSans-20" x="1183.931641"/>
     <use xlink:href="#DejaVuSans-66" x="1215.71875"/>
     <use xlink:href="#DejaVuSans-6f" x="1250.923828"/>
     <use xlink:href="#DejaVuSans-72" x="1312.105469"/>
     <use xlink:href="#DejaVuSans-20" x="1353.21875"/>
     <use xlink:href="#DejaVuSans-73" x="1385.005859"/>
     <use xlink:href="#DejaVuSans-69" x="1437.105469"/>
     <use xlink:href="#DejaVuSans-6e" x="1464.888672"/>
     <use xlink:href="#DejaVuSans-67" x="1528.267578"/>
     <use xlink:href="#DejaVuSans-6c" x="1591.744141"/>
     <use xlink:href="#DejaVuSans-65" x="1619.527344"/>
     <use xlink:href="#DejaVuSans-20" x="1681.050781"/>
     <use xlink:href="#DejaVuSans-64" x="1712.837891"/>
     <use xlink:href="#DejaVuSans-72" x="1776.314453"/>
     <use xlink:href="#DejaVuSans-61" x="1817.427734"/>
     <use xlink:href="#DejaVuSans-77" x="1878.707031"/>
    </g>
   </g>
  </g>
 </g>
 <defs>
  <clipPath id="p434a1f3060">
   <rect x="45" y="43.2" width="279" height="277.2"/>
  </clipPath>
 </defs>
</svg>
