<?xml version="1.0" encoding="utf-8" standalone="no"?>
<!DOCTYPE svg PUBLIC "-//W3C//DTD SVG 1.1//EN"
  "http://www.w3.org/Graphics/SVG/1.1/DTD/svg11.dtd">
<svg xmlns:xlink="http://www.w3.org/1999/xlink" width="360pt" height="360pt" viewBox="0 0 360 360" xmlns="http://www.w3.org/2000/svg" version="1.1">
 <metadata>
  <rdf:RDF xmlns:dc="http://purl.org/dc/elements/1.1/" xmlns:cc="http://creativecommons.org/ns#" xmlns:rdf="http://www.w3.org/1999/02/22-rdf-syntax-ns#">
   <cc:Work>
    <dc:type rdf:resource="http://purl.org/dc/dcmitype/StillImage"/>
    <dc:date>2022-12-19T08:13:08.437087</dc:date>
    <dc:format>image/svg+xml</dc:format>
    <dc:creator>
     <cc:Agent>
      <dc:title>Matplotlib v3.5.3, https://matplotlib.org/</dc:title>
     </cc:Agent>
    </dc:creator>
   </cc:Work>
  </rdf:RDF>
 </metadata>
 <defs>
  <style type="text/css">*{stroke-linejoin: round; stroke-linecap: butt}</style>
 </defs>
 <g id="figure_1">
  <g id="patch_1">
   <path d="M 0 360 
L 360 360 
L 360 0 
L 0 0 
z
" style="fill: #ffffff"/>
  </g>
  <g id="axes_1">
   <g id="patch_2">
    <path d="M 45 320.4 
L 324 320.4 
L 324 43.2 
L 45 43.2 
z
" style="fill: #ffffff"/>
   </g>
   <g id="matplotlib.axis_1">
    <g id="xtick_1">
     <g id="line2d_1">
      <defs>
       <path id="m69a8053b83" d="M 0 0 
L 0 3.5 
" style="stroke: #000000; stroke-width: 0.8"/>
      </defs>
      <g>
       <use xlink:href="#m69a8053b83" x="83.045455" y="320.4" style="stroke: #000000; stroke-width: 0.8"/>
      </g>
     </g>
     <g id="text_1">
      <!-- −2 -->
      <g transform="translate(75.674361 334.998438)scale(0.1 -0.1)">
       <defs>
        <path id="DejaVuSans-2212" d="M 678 2272 
L 4684 2272 
L 4684 1741 
L 678 1741 
L 678 2272 
z
" transform="scale(0.015625)"/>
        <path id="DejaVuSans-32" d="M 1228 531 
L 3431 531 
L 3431 0 
L 469 0 
L 469 531 
Q 828 903 1448 1529 
Q 2069 2156 2228 2338 
Q 2531 2678 2651 2914 
Q 2772 3150 2772 3378 
Q 2772 3750 2511 3984 
Q 2250 4219 1831 4219 
Q 1534 4219 1204 4116 
Q 875 4013 500 3803 
L 500 4441 
Q 881 4594 1212 4672 
Q 1544 4750 1819 4750 
Q 2544 4750 2975 4387 
Q 3406 4025 3406 3419 
Q 3406 3131 3298 2873 
Q 3191 2616 2906 2266 
Q 2828 2175 2409 1742 
Q 1991 1309 1228 531 
z
" transform="scale(0.015625)"/>
       </defs>
       <use xlink:href="#DejaVuSans-2212"/>
       <use xlink:href="#DejaVuSans-32" x="83.789062"/>
      </g>
     </g>
    </g>
    <g id="xtick_2">
     <g id="line2d_2">
      <g>
       <use xlink:href="#m69a8053b83" x="133.772727" y="320.4" style="stroke: #000000; stroke-width: 0.8"/>
      </g>
     </g>
     <g id="text_2">
      <!-- −1 -->
      <g transform="translate(126.401634 334.998438)scale(0.1 -0.1)">
       <defs>
        <path id="DejaVuSans-31" d="M 794 531 
L 1825 531 
L 1825 4091 
L 703 3866 
L 703 4441 
L 1819 4666 
L 2450 4666 
L 2450 531 
L 3481 531 
L 3481 0 
L 794 0 
L 794 531 
z
" transform="scale(0.015625)"/>
       </defs>
       <use xlink:href="#DejaVuSans-2212"/>
       <use xlink:href="#DejaVuSans-31" x="83.789062"/>
      </g>
     </g>
    </g>
    <g id="xtick_3">
     <g id="line2d_3">
      <g>
       <use xlink:href="#m69a8053b83" x="184.5" y="320.4" style="stroke: #000000; stroke-width: 0.8"/>
      </g>
     </g>
     <g id="text_3">
      <!-- 0 -->
      <g transform="translate(181.31875 334.998438)scale(0.1 -0.1)">
       <defs>
        <path id="DejaVuSans-30" d="M 2034 4250 
Q 1547 4250 1301 3770 
Q 1056 3291 1056 2328 
Q 1056 1369 1301 889 
Q 1547 409 2034 409 
Q 2525 409 2770 889 
Q 3016 1369 3016 2328 
Q 3016 3291 2770 3770 
Q 2525 4250 2034 4250 
z
M 2034 4750 
Q 2819 4750 3233 4129 
Q 3647 3509 3647 2328 
Q 3647 1150 3233 529 
Q 2819 -91 2034 -91 
Q 1250 -91 836 529 
Q 422 1150 422 2328 
Q 422 3509 836 4129 
Q 1250 4750 2034 4750 
z
" transform="scale(0.015625)"/>
       </defs>
       <use xlink:href="#DejaVuSans-30"/>
      </g>
     </g>
    </g>
    <g id="xtick_4">
     <g id="line2d_4">
      <g>
       <use xlink:href="#m69a8053b83" x="235.227273" y="320.4" style="stroke: #000000; stroke-width: 0.8"/>
      </g>
     </g>
     <g id="text_4">
      <!-- 1 -->
      <g transform="translate(232.046023 334.998438)scale(0.1 -0.1)">
       <use xlink:href="#DejaVuSans-31"/>
      </g>
     </g>
    </g>
    <g id="xtick_5">
     <g id="line2d_5">
      <g>
       <use xlink:href="#m69a8053b83" x="285.954545" y="320.4" style="stroke: #000000; stroke-width: 0.8"/>
      </g>
     </g>
     <g id="text_5">
      <!-- 2 -->
      <g transform="translate(282.773295 334.998438)scale(0.1 -0.1)">
       <use xlink:href="#DejaVuSans-32"/>
      </g>
     </g>
    </g>
   </g>
   <g id="matplotlib.axis_2">
    <g id="ytick_1">
     <g id="line2d_6">
      <defs>
       <path id="mccf2c8e322" d="M 0 0 
L -3.5 0 
" style="stroke: #000000; stroke-width: 0.8"/>
      </defs>
      <g>
       <use xlink:href="#mccf2c8e322" x="45" y="280.910998" style="stroke: #000000; stroke-width: 0.8"/>
      </g>
     </g>
     <g id="text_6">
      <!-- 0 -->
      <g transform="translate(31.6375 284.710217)scale(0.1 -0.1)">
       <use xlink:href="#DejaVuSans-30"/>
      </g>
     </g>
    </g>
    <g id="ytick_2">
     <g id="line2d_7">
      <g>
       <use xlink:href="#mccf2c8e322" x="45" y="231.185721" style="stroke: #000000; stroke-width: 0.8"/>
      </g>
     </g>
     <g id="text_7">
      <!-- 10 -->
      <g transform="translate(25.275 234.98494)scale(0.1 -0.1)">
       <use xlink:href="#DejaVuSans-31"/>
       <use xlink:href="#DejaVuSans-30" x="63.623047"/>
      </g>
     </g>
    </g>
    <g id="ytick_3">
     <g id="line2d_8">
      <g>
       <use xlink:href="#mccf2c8e322" x="45" y="181.460444" style="stroke: #000000; stroke-width: 0.8"/>
      </g>
     </g>
     <g id="text_8">
      <!-- 20 -->
      <g transform="translate(25.275 185.259663)scale(0.1 -0.1)">
       <use xlink:href="#DejaVuSans-32"/>
       <use xlink:href="#DejaVuSans-30" x="63.623047"/>
      </g>
     </g>
    </g>
    <g id="ytick_4">
     <g id="line2d_9">
      <g>
       <use xlink:href="#mccf2c8e322" x="45" y="131.735167" style="stroke: #000000; stroke-width: 0.8"/>
      </g>
     </g>
     <g id="text_9">
      <!-- 30 -->
      <g transform="translate(25.275 135.534386)scale(0.1 -0.1)">
       <defs>
        <path id="DejaVuSans-33" d="M 2597 2516 
Q 3050 2419 3304 2112 
Q 3559 1806 3559 1356 
Q 3559 666 3084 287 
Q 2609 -91 1734 -91 
Q 1441 -91 1130 -33 
Q 819 25 488 141 
L 488 750 
Q 750 597 1062 519 
Q 1375 441 1716 441 
Q 2309 441 2620 675 
Q 2931 909 2931 1356 
Q 2931 1769 2642 2001 
Q 2353 2234 1838 2234 
L 1294 2234 
L 1294 2753 
L 1863 2753 
Q 2328 2753 2575 2939 
Q 2822 3125 2822 3475 
Q 2822 3834 2567 4026 
Q 2313 4219 1838 4219 
Q 1578 4219 1281 4162 
Q 984 4106 628 3988 
L 628 4550 
Q 988 4650 1302 4700 
Q 1616 4750 1894 4750 
Q 2613 4750 3031 4423 
Q 3450 4097 3450 3541 
Q 3450 3153 3228 2886 
Q 3006 2619 2597 2516 
z
" transform="scale(0.015625)"/>
       </defs>
       <use xlink:href="#DejaVuSans-33"/>
       <use xlink:href="#DejaVuSans-30" x="63.623047"/>
      </g>
     </g>
    </g>
    <g id="ytick_5">
     <g id="line2d_10">
      <g>
       <use xlink:href="#mccf2c8e322" x="45" y="82.00989" style="stroke: #000000; stroke-width: 0.8"/>
      </g>
     </g>
     <g id="text_10">
      <!-- 40 -->
      <g transform="translate(25.275 85.809108)scale(0.1 -0.1)">
       <defs>
        <path id="DejaVuSans-34" d="M 2419 4116 
L 825 1625 
L 2419 1625 
L 2419 4116 
z
M 2253 4666 
L 3047 4666 
L 3047 1625 
L 3713 1625 
L 3713 1100 
L 3047 1100 
L 3047 0 
L 2419 0 
L 2419 1100 
L 313 1100 
L 313 1709 
L 2253 4666 
z
" transform="scale(0.015625)"/>
       </defs>
       <use xlink:href="#DejaVuSans-34"/>
       <use xlink:href="#DejaVuSans-30" x="63.623047"/>
      </g>
     </g>
    </g>
   </g>
   <g id="line2d_11">
    <path d="M 57.681818 179.792461 
L 58.953174 186.465019 
L 65.309987 215.376202 
L 71.031098 237.014087 
L 72.302453 241.385111 
L 72.938143 243.176938 
L 74.845188 249.463712 
L 75.480866 251.195624 
L 76.116544 253.257724 
L 76.752221 254.815762 
L 78.023577 258.546171 
L 78.659254 260.411608 
L 80.566299 264.977999 
L 81.201977 266.789389 
L 82.473333 269.688704 
L 83.109022 271.309243 
L 83.7447 272.325865 
L 85.016061 275.18618 
L 86.287423 277.93469 
L 88.194462 281.381708 
L 88.83014 282.698644 
L 89.465823 283.447026 
L 90.737185 285.966316 
L 91.372862 286.94725 
L 92.00854 287.573114 
L 92.644224 288.775172 
L 95.186941 292.526422 
L 95.822624 293.330307 
L 96.458302 293.775842 
L 97.729663 295.181774 
L 98.365347 296.308394 
L 99.001025 296.678825 
L 99.636709 297.626532 
L 100.272386 297.958997 
L 104.722142 301.980961 
L 105.35782 302.234964 
L 105.993504 302.853106 
L 106.629181 303.186462 
L 107.264859 303.787255 
L 107.900543 304.00428 
L 109.171904 304.700896 
L 110.443266 305.442007 
L 111.714627 305.584742 
L 112.350305 305.756747 
L 112.985988 306.057792 
L 113.621666 306.53439 
L 114.257344 306.837313 
L 114.893027 306.666611 
L 115.528705 306.775027 
L 116.164389 307.265443 
L 116.800067 307.085054 
L 117.435744 307.071081 
L 118.707106 307.601104 
L 119.342783 307.311037 
L 119.978467 307.458374 
L 120.614145 307.435965 
L 121.249829 307.791514 
L 121.885506 307.488442 
L 122.521184 307.8 
L 123.156868 307.368773 
L 123.792545 307.692606 
L 124.428223 307.398065 
L 125.063907 307.447133 
L 126.970946 307.175186 
L 128.242307 307.312348 
L 128.877991 307.058791 
L 129.513669 306.644024 
L 130.149352 306.770403 
L 130.78503 306.483722 
L 131.420714 306.501771 
L 132.056391 306.06262 
L 133.327753 305.814796 
L 133.963431 305.844293 
L 134.599111 305.727263 
L 135.234792 305.314139 
L 135.87047 305.26148 
L 136.50615 304.69627 
L 137.141831 304.917855 
L 137.777512 304.339462 
L 138.413193 303.967955 
L 140.320232 303.714583 
L 140.955909 302.978034 
L 142.227271 302.917313 
L 142.862951 302.165942 
L 143.498632 302.234184 
L 144.13431 301.867676 
L 144.769991 301.335225 
L 145.405671 301.44365 
L 146.041349 301.151717 
L 146.67703 300.636073 
L 147.31271 300.406822 
L 147.948391 300.00984 
L 148.584072 299.965894 
L 149.219749 299.437061 
L 150.491111 298.932224 
L 151.126789 298.716346 
L 151.762469 298.033069 
L 152.39815 297.79086 
L 153.033831 297.720623 
L 153.669511 296.982751 
L 155.576557 296.324062 
L 156.847915 295.262897 
L 157.483596 294.992215 
L 158.119276 295.015582 
L 158.754957 294.253201 
L 159.390635 294.118247 
L 161.297675 292.893709 
L 161.933355 292.954582 
L 162.569035 292.197869 
L 163.204716 292.239064 
L 163.840395 291.706097 
L 164.476068 291.553009 
L 165.747428 290.700052 
L 167.654469 289.635669 
L 168.29015 289.066486 
L 169.561514 288.487436 
L 170.197195 288.185512 
L 170.832874 287.751849 
L 171.468555 287.615991 
L 172.739914 286.876613 
L 173.375594 286.807805 
L 174.011274 286.455553 
L 174.64696 285.890248 
L 175.28264 285.684675 
L 175.91832 285.259883 
L 176.554 284.981586 
L 177.82536 284.105236 
L 178.46104 284.022764 
L 179.09672 283.415935 
L 179.732393 283.094945 
L 180.368073 283.159746 
L 182.910794 281.791566 
L 184.182154 281.127441 
L 185.453519 280.524399 
L 186.089199 280.226909 
L 186.724879 279.586167 
L 187.360559 279.61688 
L 187.996239 279.398934 
L 188.631919 278.815265 
L 189.2676 278.632181 
L 189.903285 278.128158 
L 191.174644 277.495775 
L 191.810325 277.611243 
L 192.446005 276.975655 
L 193.081685 276.634493 
L 193.717365 276.674884 
L 194.353045 276.033778 
L 194.98873 275.787342 
L 195.62441 275.683576 
L 196.26009 275.280109 
L 197.53145 275.047322 
L 198.167131 274.484316 
L 198.802811 274.190613 
L 199.438491 274.145613 
L 200.074164 273.581676 
L 200.709844 273.634457 
L 201.345524 272.928519 
L 201.981204 272.622673 
L 203.252564 272.462593 
L 203.888245 271.907641 
L 205.159609 271.405604 
L 206.430969 270.728515 
L 207.06665 270.746742 
L 209.60937 269.32364 
L 210.245049 269.374226 
L 211.51641 268.633524 
L 212.152088 268.462605 
L 212.787769 267.942447 
L 214.05913 267.768269 
L 214.694811 267.276327 
L 215.330489 267.07131 
L 215.966169 266.641634 
L 216.60185 266.399895 
L 217.237528 266.320639 
L 217.873208 265.819997 
L 219.14457 265.241717 
L 219.780251 264.632689 
L 220.415928 264.605124 
L 221.051609 264.077766 
L 221.68729 263.85921 
L 222.322967 263.810511 
L 223.594329 262.743145 
L 224.230009 262.780176 
L 224.86569 262.442429 
L 225.501368 261.69816 
L 226.137049 261.396995 
L 226.772729 261.385966 
L 227.408407 260.743195 
L 228.679768 260.413394 
L 229.315449 259.779097 
L 229.95113 259.34121 
L 230.586807 259.11392 
L 231.222488 258.564475 
L 231.858169 258.468807 
L 232.493847 257.682541 
L 233.765208 256.894299 
L 234.400889 256.56675 
L 235.036569 256.096979 
L 235.672253 255.920992 
L 236.943615 254.86515 
L 238.214976 254.091547 
L 238.850654 253.260633 
L 239.486331 252.769895 
L 240.122015 252.66573 
L 240.757693 251.852424 
L 243.300416 249.567126 
L 243.936093 249.316237 
L 244.571771 248.488546 
L 245.207455 247.876706 
L 245.843132 247.718125 
L 246.47881 247.075177 
L 247.750171 245.486796 
L 248.385855 245.100185 
L 249.657211 243.645055 
L 250.292894 242.895078 
L 250.928572 242.390724 
L 251.56425 241.4015 
L 252.199933 240.646179 
L 252.835611 240.238698 
L 254.106973 238.528178 
L 256.014012 236.028546 
L 256.649689 235.315133 
L 257.285373 234.17512 
L 257.921051 233.615088 
L 261.099451 229.021545 
L 262.370813 226.825811 
L 263.00649 225.783007 
L 263.642174 224.973983 
L 264.277852 223.926124 
L 265.549213 221.262864 
L 266.184897 220.556408 
L 266.820575 219.080663 
L 267.456258 218.169607 
L 269.363297 214.096996 
L 269.998975 213.184929 
L 270.634659 211.541824 
L 273.813059 204.825984 
L 275.084415 201.77183 
L 278.898499 192.450778 
L 282.712583 181.371158 
L 283.983945 177.876566 
L 284.619622 175.579468 
L 286.526655 169.813983 
L 287.162333 167.48477 
L 287.798011 165.63629 
L 289.069378 160.876041 
L 289.705056 158.959872 
L 291.612101 151.526726 
L 294.790502 139.489263 
L 296.697535 131.002719 
L 297.333212 128.49154 
L 299.240257 119.775561 
L 299.875935 117.264903 
L 300.511613 113.829181 
L 301.14729 111.214138 
L 302.418658 104.804524 
L 303.054336 101.837271 
L 304.325703 95.16348 
L 305.597058 88.496119 
L 310.682504 59.622608 
L 311.318182 55.8 
L 311.318182 55.8 
" clip-path="url(#p28bd45f3ac)" style="fill: none; stroke: #1f77b4; stroke-width: 1.5; stroke-linecap: square"/>
   </g>
   <g id="line2d_12">
    <path d="M 57.681818 243.823185 
L 60.224541 244.457948 
L 62.767264 245.349839 
L 64.674309 246.240599 
L 66.581342 247.370171 
L 68.488375 248.786377 
L 70.39542 250.536693 
L 72.302453 252.661955 
L 74.209498 255.18788 
L 76.116544 258.115278 
L 78.023577 261.411694 
L 80.566299 266.256452 
L 88.83014 282.4938 
L 91.372862 286.784338 
L 93.915579 290.569168 
L 96.458302 293.867314 
L 99.001025 296.72363 
L 101.543748 299.182175 
L 104.086458 301.275754 
L 106.629181 303.027133 
L 109.171904 304.454701 
L 111.714627 305.577379 
L 114.257344 306.416519 
L 116.800067 306.995192 
L 119.342783 307.336228 
L 121.885506 307.460396 
L 124.428223 307.385421 
L 127.606623 307.034044 
L 130.78503 306.419843 
L 133.963431 305.568462 
L 137.777512 304.276506 
L 141.59159 302.748656 
L 146.67703 300.454406 
L 153.033831 297.323236 
L 160.661995 293.294414 
L 177.82536 284.066994 
L 185.453519 280.305359 
L 194.98873 275.854906 
L 206.430969 270.773715 
L 218.508889 265.404326 
L 224.230009 262.607954 
L 228.679768 260.195833 
L 232.493847 257.901665 
L 236.307931 255.348263 
L 240.122015 252.488482 
L 243.300416 249.837755 
L 246.47881 246.915315 
L 249.657211 243.693948 
L 252.835611 240.144502 
L 256.014012 236.233574 
L 259.192412 231.920651 
L 262.370813 227.155481 
L 264.913529 222.977146 
L 267.456258 218.435528 
L 269.998975 213.494915 
L 272.541698 208.123154 
L 275.084415 202.29794 
L 278.262815 194.373224 
L 281.441222 185.780473 
L 285.2553 174.769534 
L 296.061857 143.009786 
L 299.240257 134.674294 
L 301.78298 128.613157 
L 304.325703 123.149637 
L 306.868426 118.300493 
L 309.411149 114.053715 
L 311.318182 111.244437 
L 311.318182 111.244437 
" clip-path="url(#p28bd45f3ac)" style="fill: none; stroke: #ff7f0e; stroke-width: 1.5; stroke-linecap: square"/>
   </g>
   <g id="line2d_13">
    <path d="M 57.681818 243.620647 
L 60.224541 244.258618 
L 62.767264 245.154704 
L 64.674309 246.04944 
L 66.581342 247.183855 
L 68.488375 248.605919 
L 70.39542 250.363245 
L 72.302453 252.496762 
L 74.209498 255.032276 
L 76.116544 257.970592 
L 78.023577 261.279173 
L 80.566299 266.141777 
L 88.83014 282.442306 
L 91.372862 286.75095 
L 93.915579 290.551793 
L 96.458302 293.863053 
L 99.001025 296.729013 
L 101.543748 299.193508 
L 104.086458 301.289598 
L 106.629181 303.040692 
L 109.171904 304.466054 
L 111.714627 305.585512 
L 114.257344 306.421164 
L 116.800067 306.996579 
L 119.342783 307.334847 
L 121.885506 307.456792 
L 124.428223 307.379993 
L 127.606623 307.026483 
L 130.78503 306.409626 
L 133.963431 305.554224 
L 137.777512 304.254574 
L 141.59159 302.71527 
L 146.67703 300.40073 
L 153.033831 297.242512 
L 160.661995 293.1948 
L 176.554 284.64941 
L 184.182154 280.873445 
L 193.717365 276.413256 
L 205.159609 271.320753 
L 219.14457 265.10246 
L 224.86569 262.274039 
L 229.315449 259.824921 
L 233.129527 257.490366 
L 236.943615 254.888536 
L 240.122015 252.482211 
L 243.300416 249.830756 
L 246.47881 246.907555 
L 249.657211 243.685479 
L 252.835611 240.135499 
L 256.014012 236.224288 
L 259.192412 231.911416 
L 262.370813 227.146642 
L 264.913529 222.968846 
L 267.456258 218.427941 
L 269.998975 213.488201 
L 272.541698 208.11753 
L 275.084415 202.293697 
L 278.262815 194.371386 
L 281.441222 185.782213 
L 285.2553 174.777861 
L 296.061857 143.054731 
L 299.240257 134.734202 
L 301.78298 128.685571 
L 304.325703 123.234511 
L 306.868426 118.397315 
L 309.411149 114.161664 
L 311.318182 111.360008 
L 311.318182 111.360008 
" clip-path="url(#p28bd45f3ac)" style="fill: none; stroke: #2ca02c; stroke-width: 1.5; stroke-linecap: square"/>
   </g>
   <g id="line2d_14">
    <path d="M 57.681818 244.1143 
L 60.224541 244.746275 
L 62.767264 245.634356 
L 64.674309 246.521379 
L 66.581342 247.646298 
L 68.488375 249.056767 
L 70.39542 250.800108 
L 72.302453 252.917075 
L 74.209498 255.433343 
L 76.116544 258.349764 
L 78.023577 261.634088 
L 80.566299 266.461512 
L 88.83014 282.642212 
L 91.372862 286.917076 
L 93.915579 290.687203 
L 96.458302 293.971505 
L 99.001025 296.81476 
L 101.543748 299.261026 
L 104.086458 301.343149 
L 106.629181 303.083919 
L 109.171904 304.501734 
L 111.714627 305.615419 
L 114.257344 306.446205 
L 116.800067 307.017015 
L 119.342783 307.350513 
L 121.885506 307.467365 
L 124.428223 307.385235 
L 127.606623 307.025238 
L 130.78503 306.403041 
L 133.963431 305.544742 
L 137.777512 304.246591 
L 142.227271 302.442095 
L 147.31271 300.119003 
L 153.669511 296.968662 
L 161.297675 292.927559 
L 177.18968 284.386685 
L 184.817839 280.607972 
L 194.353045 276.139136 
L 205.159609 271.321144 
L 219.14457 265.105471 
L 224.86569 262.2824 
L 229.315449 259.838043 
L 233.129527 257.507673 
L 236.943615 254.909921 
L 240.122015 252.506778 
L 243.300416 249.858184 
L 246.47881 246.937348 
L 249.657211 243.716944 
L 252.835611 240.167712 
L 256.014012 236.25616 
L 259.192412 231.94169 
L 262.370813 227.173991 
L 264.913529 222.992898 
L 267.456258 218.447835 
L 269.998975 213.503044 
L 272.541698 208.126293 
L 275.084415 202.295138 
L 278.262815 194.361409 
L 281.441222 185.757563 
L 285.2553 174.730173 
L 296.061857 142.907629 
L 299.240257 134.552093 
L 301.78298 128.475739 
L 304.325703 122.998341 
L 306.868426 118.137046 
L 309.411149 113.880225 
L 311.318182 111.064912 
L 311.318182 111.064912 
" clip-path="url(#p28bd45f3ac)" style="fill: none; stroke: #d62728; stroke-width: 1.5; stroke-linecap: square"/>
   </g>
   <g id="line2d_15">
    <path d="M 57.681818 243.855688 
L 60.224541 244.48467 
L 62.767264 245.368782 
L 64.674309 246.252116 
L 66.581342 247.372715 
L 68.488375 248.778349 
L 70.39542 250.516561 
L 72.302453 252.628516 
L 74.209498 255.140551 
L 76.116544 258.054381 
L 78.023577 261.338669 
L 80.566299 266.171405 
L 88.83014 282.412733 
L 91.372862 286.713372 
L 93.915579 290.509237 
L 96.458302 293.818358 
L 99.001025 296.685202 
L 101.543748 299.153757 
L 104.086458 301.256791 
L 106.629181 303.016934 
L 109.171904 304.452375 
L 111.714627 305.581842 
L 114.257344 306.426539 
L 116.800067 307.009506 
L 119.342783 307.353612 
L 121.885506 307.479726 
L 124.428223 307.405729 
L 126.970946 307.146597 
L 130.149352 306.58236 
L 133.327753 305.775019 
L 136.50615 304.754022 
L 140.320232 303.296499 
L 144.769991 301.358805 
L 150.491111 298.624061 
L 157.483596 295.031206 
L 167.018788 289.843448 
L 176.554 284.741944 
L 184.182154 280.925457 
L 193.717365 276.419312 
L 204.523924 271.567257 
L 219.14457 265.043451 
L 224.86569 262.207067 
L 229.315449 259.752005 
L 233.129527 257.41246 
L 236.943615 254.805749 
L 240.122015 252.39545 
L 243.300416 249.740083 
L 246.47881 246.812946 
L 249.657211 243.586788 
L 252.835611 240.032423 
L 256.014012 236.116409 
L 259.192412 231.798253 
L 262.370813 227.027737 
L 264.913529 222.845075 
L 267.456258 218.299106 
L 269.998975 213.354083 
L 272.541698 207.977797 
L 275.084415 202.14779 
L 278.262815 194.216317 
L 281.441222 185.615412 
L 285.2553 174.59192 
L 296.061857 142.777627 
L 299.240257 134.422963 
L 301.78298 128.346648 
L 304.325703 122.868586 
L 306.868426 118.005839 
L 309.411149 113.746515 
L 311.318182 110.928527 
L 311.318182 110.928527 
" clip-path="url(#p28bd45f3ac)" style="fill: none; stroke: #9467bd; stroke-width: 1.5; stroke-linecap: square"/>
   </g>
   <g id="patch_3">
    <path d="M 45 320.4 
L 45 43.2 
" style="fill: none; stroke: #000000; stroke-width: 0.8; stroke-linejoin: miter; stroke-linecap: square"/>
   </g>
   <g id="patch_4">
    <path d="M 324 320.4 
L 324 43.2 
" style="fill: none; stroke: #000000; stroke-width: 0.8; stroke-linejoin: miter; stroke-linecap: square"/>
   </g>
   <g id="patch_5">
    <path d="M 45 320.4 
L 324 320.4 
" style="fill: none; stroke: #000000; stroke-width: 0.8; stroke-linejoin: miter; stroke-linecap: square"/>
   </g>
   <g id="patch_6">
    <path d="M 45 43.2 
L 324 43.2 
" style="fill: none; stroke: #000000; stroke-width: 0.8; stroke-linejoin: miter; stroke-linecap: square"/>
   </g>
   <g id="text_11">
    <!-- Prediction Curves -->
    <g transform="translate(131.961563 37.2)scale(0.12 -0.12)">
     <defs>
      <path id="DejaVuSans-50" d="M 1259 4147 
L 1259 2394 
L 2053 2394 
Q 2494 2394 2734 2622 
Q 2975 2850 2975 3272 
Q 2975 3691 2734 3919 
Q 2494 4147 2053 4147 
L 1259 4147 
z
M 628 4666 
L 2053 4666 
Q 2838 4666 3239 4311 
Q 3641 3956 3641 3272 
Q 3641 2581 3239 2228 
Q 2838 1875 2053 1875 
L 1259 1875 
L 1259 0 
L 628 0 
L 628 4666 
z
" transform="scale(0.015625)"/>
      <path id="DejaVuSans-72" d="M 2631 2963 
Q 2534 3019 2420 3045 
Q 2306 3072 2169 3072 
Q 1681 3072 1420 2755 
Q 1159 2438 1159 1844 
L 1159 0 
L 581 0 
L 581 3500 
L 1159 3500 
L 1159 2956 
Q 1341 3275 1631 3429 
Q 1922 3584 2338 3584 
Q 2397 3584 2469 3576 
Q 2541 3569 2628 3553 
L 2631 2963 
z
" transform="scale(0.015625)"/>
      <path id="DejaVuSans-65" d="M 3597 1894 
L 3597 1613 
L 953 1613 
Q 991 1019 1311 708 
Q 1631 397 2203 397 
Q 2534 397 2845 478 
Q 3156 559 3463 722 
L 3463 178 
Q 3153 47 2828 -22 
Q 2503 -91 2169 -91 
Q 1331 -91 842 396 
Q 353 884 353 1716 
Q 353 2575 817 3079 
Q 1281 3584 2069 3584 
Q 2775 3584 3186 3129 
Q 3597 2675 3597 1894 
z
M 3022 2063 
Q 3016 2534 2758 2815 
Q 2500 3097 2075 3097 
Q 1594 3097 1305 2825 
Q 1016 2553 972 2059 
L 3022 2063 
z
" transform="scale(0.015625)"/>
      <path id="DejaVuSans-64" d="M 2906 2969 
L 2906 4863 
L 3481 4863 
L 3481 0 
L 2906 0 
L 2906 525 
Q 2725 213 2448 61 
Q 2172 -91 1784 -91 
Q 1150 -91 751 415 
Q 353 922 353 1747 
Q 353 2572 751 3078 
Q 1150 3584 1784 3584 
Q 2172 3584 2448 3432 
Q 2725 3281 2906 2969 
z
M 947 1747 
Q 947 1113 1208 752 
Q 1469 391 1925 391 
Q 2381 391 2643 752 
Q 2906 1113 2906 1747 
Q 2906 2381 2643 2742 
Q 2381 3103 1925 3103 
Q 1469 3103 1208 2742 
Q 947 2381 947 1747 
z
" transform="scale(0.015625)"/>
      <path id="DejaVuSans-69" d="M 603 3500 
L 1178 3500 
L 1178 0 
L 603 0 
L 603 3500 
z
M 603 4863 
L 1178 4863 
L 1178 4134 
L 603 4134 
L 603 4863 
z
" transform="scale(0.015625)"/>
      <path id="DejaVuSans-63" d="M 3122 3366 
L 3122 2828 
Q 2878 2963 2633 3030 
Q 2388 3097 2138 3097 
Q 1578 3097 1268 2742 
Q 959 2388 959 1747 
Q 959 1106 1268 751 
Q 1578 397 2138 397 
Q 2388 397 2633 464 
Q 2878 531 3122 666 
L 3122 134 
Q 2881 22 2623 -34 
Q 2366 -91 2075 -91 
Q 1284 -91 818 406 
Q 353 903 353 1747 
Q 353 2603 823 3093 
Q 1294 3584 2113 3584 
Q 2378 3584 2631 3529 
Q 2884 3475 3122 3366 
z
" transform="scale(0.015625)"/>
      <path id="DejaVuSans-74" d="M 1172 4494 
L 1172 3500 
L 2356 3500 
L 2356 3053 
L 1172 3053 
L 1172 1153 
Q 1172 725 1289 603 
Q 1406 481 1766 481 
L 2356 481 
L 2356 0 
L 1766 0 
Q 1100 0 847 248 
Q 594 497 594 1153 
L 594 3053 
L 172 3053 
L 172 3500 
L 594 3500 
L 594 4494 
L 1172 4494 
z
" transform="scale(0.015625)"/>
      <path id="DejaVuSans-6f" d="M 1959 3097 
Q 1497 3097 1228 2736 
Q 959 2375 959 1747 
Q 959 1119 1226 758 
Q 1494 397 1959 397 
Q 2419 397 2687 759 
Q 2956 1122 2956 1747 
Q 2956 2369 2687 2733 
Q 2419 3097 1959 3097 
z
M 1959 3584 
Q 2709 3584 3137 3096 
Q 3566 2609 3566 1747 
Q 3566 888 3137 398 
Q 2709 -91 1959 -91 
Q 1206 -91 779 398 
Q 353 888 353 1747 
Q 353 2609 779 3096 
Q 1206 3584 1959 3584 
z
" transform="scale(0.015625)"/>
      <path id="DejaVuSans-6e" d="M 3513 2113 
L 3513 0 
L 2938 0 
L 2938 2094 
Q 2938 2591 2744 2837 
Q 2550 3084 2163 3084 
Q 1697 3084 1428 2787 
Q 1159 2491 1159 1978 
L 1159 0 
L 581 0 
L 581 3500 
L 1159 3500 
L 1159 2956 
Q 1366 3272 1645 3428 
Q 1925 3584 2291 3584 
Q 2894 3584 3203 3211 
Q 3513 2838 3513 2113 
z
" transform="scale(0.015625)"/>
      <path id="DejaVuSans-20" transform="scale(0.015625)"/>
      <path id="DejaVuSans-43" d="M 4122 4306 
L 4122 3641 
Q 3803 3938 3442 4084 
Q 3081 4231 2675 4231 
Q 1875 4231 1450 3742 
Q 1025 3253 1025 2328 
Q 1025 1406 1450 917 
Q 1875 428 2675 428 
Q 3081 428 3442 575 
Q 3803 722 4122 1019 
L 4122 359 
Q 3791 134 3420 21 
Q 3050 -91 2638 -91 
Q 1578 -91 968 557 
Q 359 1206 359 2328 
Q 359 3453 968 4101 
Q 1578 4750 2638 4750 
Q 3056 4750 3426 4639 
Q 3797 4528 4122 4306 
z
" transform="scale(0.015625)"/>
      <path id="DejaVuSans-75" d="M 544 1381 
L 544 3500 
L 1119 3500 
L 1119 1403 
Q 1119 906 1312 657 
Q 1506 409 1894 409 
Q 2359 409 2629 706 
Q 2900 1003 2900 1516 
L 2900 3500 
L 3475 3500 
L 3475 0 
L 2900 0 
L 2900 538 
Q 2691 219 2414 64 
Q 2138 -91 1772 -91 
Q 1169 -91 856 284 
Q 544 659 544 1381 
z
M 1991 3584 
L 1991 3584 
z
" transform="scale(0.015625)"/>
      <path id="DejaVuSans-76" d="M 191 3500 
L 800 3500 
L 1894 563 
L 2988 3500 
L 3597 3500 
L 2284 0 
L 1503 0 
L 191 3500 
z
" transform="scale(0.015625)"/>
      <path id="DejaVuSans-73" d="M 2834 3397 
L 2834 2853 
Q 2591 2978 2328 3040 
Q 2066 3103 1784 3103 
Q 1356 3103 1142 2972 
Q 928 2841 928 2578 
Q 928 2378 1081 2264 
Q 1234 2150 1697 2047 
L 1894 2003 
Q 2506 1872 2764 1633 
Q 3022 1394 3022 966 
Q 3022 478 2636 193 
Q 2250 -91 1575 -91 
Q 1294 -91 989 -36 
Q 684 19 347 128 
L 347 722 
Q 666 556 975 473 
Q 1284 391 1588 391 
Q 1994 391 2212 530 
Q 2431 669 2431 922 
Q 2431 1156 2273 1281 
Q 2116 1406 1581 1522 
L 1381 1569 
Q 847 1681 609 1914 
Q 372 2147 372 2553 
Q 372 3047 722 3315 
Q 1072 3584 1716 3584 
Q 2034 3584 2315 3537 
Q 2597 3491 2834 3397 
z
" transform="scale(0.015625)"/>
     </defs>
     <use xlink:href="#DejaVuSans-50"/>
     <use xlink:href="#DejaVuSans-72" x="58.552734"/>
     <use xlink:href="#DejaVuSans-65" x="97.416016"/>
     <use xlink:href="#DejaVuSans-64" x="158.939453"/>
     <use xlink:href="#DejaVuSans-69" x="222.416016"/>
     <use xlink:href="#DejaVuSans-63" x="250.199219"/>
     <use xlink:href="#DejaVuSans-74" x="305.179688"/>
     <use xlink:href="#DejaVuSans-69" x="344.388672"/>
     <use xlink:href="#DejaVuSans-6f" x="372.171875"/>
     <use xlink:href="#DejaVuSans-6e" x="433.353516"/>
     <use xlink:href="#DejaVuSans-20" x="496.732422"/>
     <use xlink:href="#DejaVuSans-43" x="528.519531"/>
     <use xlink:href="#DejaVuSans-75" x="598.34375"/>
     <use xlink:href="#DejaVuSans-72" x="661.722656"/>
     <use xlink:href="#DejaVuSans-76" x="702.835938"/>
     <use xlink:href="#DejaVuSans-65" x="762.015625"/>
     <use xlink:href="#DejaVuSans-73" x="823.539062"/>
    </g>
   </g>
   <g id="legend_1">
    <g id="patch_7">
     <path d="M 52 124.590625 
L 195.94375 124.590625 
Q 197.94375 124.590625 197.94375 122.590625 
L 197.94375 50.2 
Q 197.94375 48.2 195.94375 48.2 
L 52 48.2 
Q 50 48.2 50 50.2 
L 50 122.590625 
Q 50 124.590625 52 124.590625 
z
" style="fill: #ffffff; opacity: 0.8; stroke: #cccccc; stroke-linejoin: miter"/>
    </g>
    <g id="line2d_16">
     <path d="M 54 56.298437 
L 64 56.298437 
L 74 56.298437 
" style="fill: none; stroke: #1f77b4; stroke-width: 1.5; stroke-linecap: square"/>
    </g>
    <g id="text_12">
     <!-- Function with noise -->
     <g transform="translate(82 59.798437)scale(0.1 -0.1)">
      <defs>
       <path id="DejaVuSans-46" d="M 628 4666 
L 3309 4666 
L 3309 4134 
L 1259 4134 
L 1259 2759 
L 3109 2759 
L 3109 2228 
L 1259 2228 
L 1259 0 
L 628 0 
L 628 4666 
z
" transform="scale(0.015625)"/>
       <path id="DejaVuSans-77" d="M 269 3500 
L 844 3500 
L 1563 769 
L 2278 3500 
L 2956 3500 
L 3675 769 
L 4391 3500 
L 4966 3500 
L 4050 0 
L 3372 0 
L 2619 2869 
L 1863 0 
L 1184 0 
L 269 3500 
z
" transform="scale(0.015625)"/>
       <path id="DejaVuSans-68" d="M 3513 2113 
L 3513 0 
L 2938 0 
L 2938 2094 
Q 2938 2591 2744 2837 
Q 2550 3084 2163 3084 
Q 1697 3084 1428 2787 
Q 1159 2491 1159 1978 
L 1159 0 
L 581 0 
L 581 4863 
L 1159 4863 
L 1159 2956 
Q 1366 3272 1645 3428 
Q 1925 3584 2291 3584 
Q 2894 3584 3203 3211 
Q 3513 2838 3513 2113 
z
" transform="scale(0.015625)"/>
      </defs>
      <use xlink:href="#DejaVuSans-46"/>
      <use xlink:href="#DejaVuSans-75" x="52.019531"/>
      <use xlink:href="#DejaVuSans-6e" x="115.398438"/>
      <use xlink:href="#DejaVuSans-63" x="178.777344"/>
      <use xlink:href="#DejaVuSans-74" x="233.757812"/>
      <use xlink:href="#DejaVuSans-69" x="272.966797"/>
      <use xlink:href="#DejaVuSans-6f" x="300.75"/>
      <use xlink:href="#DejaVuSans-6e" x="361.931641"/>
      <use xlink:href="#DejaVuSans-20" x="425.310547"/>
      <use xlink:href="#DejaVuSans-77" x="457.097656"/>
      <use xlink:href="#DejaVuSans-69" x="538.884766"/>
      <use xlink:href="#DejaVuSans-74" x="566.667969"/>
      <use xlink:href="#DejaVuSans-68" x="605.876953"/>
      <use xlink:href="#DejaVuSans-20" x="669.255859"/>
      <use xlink:href="#DejaVuSans-6e" x="701.042969"/>
      <use xlink:href="#DejaVuSans-6f" x="764.421875"/>
      <use xlink:href="#DejaVuSans-69" x="825.603516"/>
      <use xlink:href="#DejaVuSans-73" x="853.386719"/>
      <use xlink:href="#DejaVuSans-65" x="905.486328"/>
     </g>
    </g>
    <g id="line2d_17">
     <path d="M 54 70.976562 
L 64 70.976562 
L 74 70.976562 
" style="fill: none; stroke: #ff7f0e; stroke-width: 1.5; stroke-linecap: square"/>
    </g>
    <g id="text_13">
     <!-- Average of Predictions -->
     <g transform="translate(82 74.476562)scale(0.1 -0.1)">
      <defs>
       <path id="DejaVuSans-41" d="M 2188 4044 
L 1331 1722 
L 3047 1722 
L 2188 4044 
z
M 1831 4666 
L 2547 4666 
L 4325 0 
L 3669 0 
L 3244 1197 
L 1141 1197 
L 716 0 
L 50 0 
L 1831 4666 
z
" transform="scale(0.015625)"/>
       <path id="DejaVuSans-61" d="M 2194 1759 
Q 1497 1759 1228 1600 
Q 959 1441 959 1056 
Q 959 750 1161 570 
Q 1363 391 1709 391 
Q 2188 391 2477 730 
Q 2766 1069 2766 1631 
L 2766 1759 
L 2194 1759 
z
M 3341 1997 
L 3341 0 
L 2766 0 
L 2766 531 
Q 2569 213 2275 61 
Q 1981 -91 1556 -91 
Q 1019 -91 701 211 
Q 384 513 384 1019 
Q 384 1609 779 1909 
Q 1175 2209 1959 2209 
L 2766 2209 
L 2766 2266 
Q 2766 2663 2505 2880 
Q 2244 3097 1772 3097 
Q 1472 3097 1187 3025 
Q 903 2953 641 2809 
L 641 3341 
Q 956 3463 1253 3523 
Q 1550 3584 1831 3584 
Q 2591 3584 2966 3190 
Q 3341 2797 3341 1997 
z
" transform="scale(0.015625)"/>
       <path id="DejaVuSans-67" d="M 2906 1791 
Q 2906 2416 2648 2759 
Q 2391 3103 1925 3103 
Q 1463 3103 1205 2759 
Q 947 2416 947 1791 
Q 947 1169 1205 825 
Q 1463 481 1925 481 
Q 2391 481 2648 825 
Q 2906 1169 2906 1791 
z
M 3481 434 
Q 3481 -459 3084 -895 
Q 2688 -1331 1869 -1331 
Q 1566 -1331 1297 -1286 
Q 1028 -1241 775 -1147 
L 775 -588 
Q 1028 -725 1275 -790 
Q 1522 -856 1778 -856 
Q 2344 -856 2625 -561 
Q 2906 -266 2906 331 
L 2906 616 
Q 2728 306 2450 153 
Q 2172 0 1784 0 
Q 1141 0 747 490 
Q 353 981 353 1791 
Q 353 2603 747 3093 
Q 1141 3584 1784 3584 
Q 2172 3584 2450 3431 
Q 2728 3278 2906 2969 
L 2906 3500 
L 3481 3500 
L 3481 434 
z
" transform="scale(0.015625)"/>
       <path id="DejaVuSans-66" d="M 2375 4863 
L 2375 4384 
L 1825 4384 
Q 1516 4384 1395 4259 
Q 1275 4134 1275 3809 
L 1275 3500 
L 2222 3500 
L 2222 3053 
L 1275 3053 
L 1275 0 
L 697 0 
L 697 3053 
L 147 3053 
L 147 3500 
L 697 3500 
L 697 3744 
Q 697 4328 969 4595 
Q 1241 4863 1831 4863 
L 2375 4863 
z
" transform="scale(0.015625)"/>
      </defs>
      <use xlink:href="#DejaVuSans-41"/>
      <use xlink:href="#DejaVuSans-76" x="62.533203"/>
      <use xlink:href="#DejaVuSans-65" x="121.712891"/>
      <use xlink:href="#DejaVuSans-72" x="183.236328"/>
      <use xlink:href="#DejaVuSans-61" x="224.349609"/>
      <use xlink:href="#DejaVuSans-67" x="285.628906"/>
      <use xlink:href="#DejaVuSans-65" x="349.105469"/>
      <use xlink:href="#DejaVuSans-20" x="410.628906"/>
      <use xlink:href="#DejaVuSans-6f" x="442.416016"/>
      <use xlink:href="#DejaVuSans-66" x="503.597656"/>
      <use xlink:href="#DejaVuSans-20" x="538.802734"/>
      <use xlink:href="#DejaVuSans-50" x="570.589844"/>
      <use xlink:href="#DejaVuSans-72" x="629.142578"/>
      <use xlink:href="#DejaVuSans-65" x="668.005859"/>
      <use xlink:href="#DejaVuSans-64" x="729.529297"/>
      <use xlink:href="#DejaVuSans-69" x="793.005859"/>
      <use xlink:href="#DejaVuSans-63" x="820.789062"/>
      <use xlink:href="#DejaVuSans-74" x="875.769531"/>
      <use xlink:href="#DejaVuSans-69" x="914.978516"/>
      <use xlink:href="#DejaVuSans-6f" x="942.761719"/>
      <use xlink:href="#DejaVuSans-6e" x="1003.943359"/>
      <use xlink:href="#DejaVuSans-73" x="1067.322266"/>
     </g>
    </g>
    <g id="line2d_18">
     <path d="M 54 85.654687 
L 64 85.654687 
L 74 85.654687 
" style="fill: none; stroke: #2ca02c; stroke-width: 1.5; stroke-linecap: square"/>
    </g>
    <g id="text_14">
     <!-- Prediction 1 -->
     <g transform="translate(82 89.154687)scale(0.1 -0.1)">
      <use xlink:href="#DejaVuSans-50"/>
      <use xlink:href="#DejaVuSans-72" x="58.552734"/>
      <use xlink:href="#DejaVuSans-65" x="97.416016"/>
      <use xlink:href="#DejaVuSans-64" x="158.939453"/>
      <use xlink:href="#DejaVuSans-69" x="222.416016"/>
      <use xlink:href="#DejaVuSans-63" x="250.199219"/>
      <use xlink:href="#DejaVuSans-74" x="305.179688"/>
      <use xlink:href="#DejaVuSans-69" x="344.388672"/>
      <use xlink:href="#DejaVuSans-6f" x="372.171875"/>
      <use xlink:href="#DejaVuSans-6e" x="433.353516"/>
      <use xlink:href="#DejaVuSans-20" x="496.732422"/>
      <use xlink:href="#DejaVuSans-31" x="528.519531"/>
     </g>
    </g>
    <g id="line2d_19">
     <path d="M 54 100.332812 
L 64 100.332812 
L 74 100.332812 
" style="fill: none; stroke: #d62728; stroke-width: 1.5; stroke-linecap: square"/>
    </g>
    <g id="text_15">
     <!-- Prediction 2 -->
     <g transform="translate(82 103.832812)scale(0.1 -0.1)">
      <use xlink:href="#DejaVuSans-50"/>
      <use xlink:href="#DejaVuSans-72" x="58.552734"/>
      <use xlink:href="#DejaVuSans-65" x="97.416016"/>
      <use xlink:href="#DejaVuSans-64" x="158.939453"/>
      <use xlink:href="#DejaVuSans-69" x="222.416016"/>
      <use xlink:href="#DejaVuSans-63" x="250.199219"/>
      <use xlink:href="#DejaVuSans-74" x="305.179688"/>
      <use xlink:href="#DejaVuSans-69" x="344.388672"/>
      <use xlink:href="#DejaVuSans-6f" x="372.171875"/>
      <use xlink:href="#DejaVuSans-6e" x="433.353516"/>
      <use xlink:href="#DejaVuSans-20" x="496.732422"/>
      <use xlink:href="#DejaVuSans-32" x="528.519531"/>
     </g>
    </g>
    <g id="line2d_20">
     <path d="M 54 115.010937 
L 64 115.010937 
L 74 115.010937 
" style="fill: none; stroke: #9467bd; stroke-width: 1.5; stroke-linecap: square"/>
    </g>
    <g id="text_16">
     <!-- Prediction 3 -->
     <g transform="translate(82 118.510937)scale(0.1 -0.1)">
      <use xlink:href="#DejaVuSans-50"/>
      <use xlink:href="#DejaVuSans-72" x="58.552734"/>
      <use xlink:href="#DejaVuSans-65" x="97.416016"/>
      <use xlink:href="#DejaVuSans-64" x="158.939453"/>
      <use xlink:href="#DejaVuSans-69" x="222.416016"/>
      <use xlink:href="#DejaVuSans-63" x="250.199219"/>
      <use xlink:href="#DejaVuSans-74" x="305.179688"/>
      <use xlink:href="#DejaVuSans-69" x="344.388672"/>
      <use xlink:href="#DejaVuSans-6f" x="372.171875"/>
      <use xlink:href="#DejaVuSans-6e" x="433.353516"/>
      <use xlink:href="#DejaVuSans-20" x="496.732422"/>
      <use xlink:href="#DejaVuSans-33" x="528.519531"/>
     </g>
    </g>
   </g>
  </g>
 </g>
 <defs>
  <clipPath id="p28bd45f3ac">
   <rect x="45" y="43.2" width="279" height="277.2"/>
  </clipPath>
 </defs>
</svg>
