<?xml version="1.0" encoding="utf-8" standalone="no"?>
<!DOCTYPE svg PUBLIC "-//W3C//DTD SVG 1.1//EN"
  "http://www.w3.org/Graphics/SVG/1.1/DTD/svg11.dtd">
<svg xmlns:xlink="http://www.w3.org/1999/xlink" width="360pt" height="360pt" viewBox="0 0 360 360" xmlns="http://www.w3.org/2000/svg" version="1.1">
 <metadata>
  <rdf:RDF xmlns:dc="http://purl.org/dc/elements/1.1/" xmlns:cc="http://creativecommons.org/ns#" xmlns:rdf="http://www.w3.org/1999/02/22-rdf-syntax-ns#">
   <cc:Work>
    <dc:type rdf:resource="http://purl.org/dc/dcmitype/StillImage"/>
    <dc:date>2022-12-19T08:13:07.646086</dc:date>
    <dc:format>image/svg+xml</dc:format>
    <dc:creator>
     <cc:Agent>
      <dc:title>Matplotlib v3.5.3, https://matplotlib.org/</dc:title>
     </cc:Agent>
    </dc:creator>
   </cc:Work>
  </rdf:RDF>
 </metadata>
 <defs>
  <style type="text/css">*{stroke-linejoin: round; stroke-linecap: butt}</style>
 </defs>
 <g id="figure_1">
  <g id="patch_1">
   <path d="M 0 360 
L 360 360 
L 360 0 
L 0 0 
z
" style="fill: #ffffff"/>
  </g>
  <g id="axes_1">
   <g id="patch_2">
    <path d="M 45 320.4 
L 324 320.4 
L 324 43.2 
L 45 43.2 
z
" style="fill: #ffffff"/>
   </g>
   <g id="matplotlib.axis_1">
    <g id="xtick_1">
     <g id="line2d_1">
      <defs>
       <path id="m5f7d755c60" d="M 0 0 
L 0 3.5 
" style="stroke: #000000; stroke-width: 0.8"/>
      </defs>
      <g>
       <use xlink:href="#m5f7d755c60" x="83.045455" y="320.4" style="stroke: #000000; stroke-width: 0.8"/>
      </g>
     </g>
     <g id="text_1">
      <!-- −2 -->
      <g transform="translate(75.674361 334.998438)scale(0.1 -0.1)">
       <defs>
        <path id="DejaVuSans-2212" d="M 678 2272 
L 4684 2272 
L 4684 1741 
L 678 1741 
L 678 2272 
z
" transform="scale(0.015625)"/>
        <path id="DejaVuSans-32" d="M 1228 531 
L 3431 531 
L 3431 0 
L 469 0 
L 469 531 
Q 828 903 1448 1529 
Q 2069 2156 2228 2338 
Q 2531 2678 2651 2914 
Q 2772 3150 2772 3378 
Q 2772 3750 2511 3984 
Q 2250 4219 1831 4219 
Q 1534 4219 1204 4116 
Q 875 4013 500 3803 
L 500 4441 
Q 881 4594 1212 4672 
Q 1544 4750 1819 4750 
Q 2544 4750 2975 4387 
Q 3406 4025 3406 3419 
Q 3406 3131 3298 2873 
Q 3191 2616 2906 2266 
Q 2828 2175 2409 1742 
Q 1991 1309 1228 531 
z
" transform="scale(0.015625)"/>
       </defs>
       <use xlink:href="#DejaVuSans-2212"/>
       <use xlink:href="#DejaVuSans-32" x="83.789062"/>
      </g>
     </g>
    </g>
    <g id="xtick_2">
     <g id="line2d_2">
      <g>
       <use xlink:href="#m5f7d755c60" x="133.772727" y="320.4" style="stroke: #000000; stroke-width: 0.8"/>
      </g>
     </g>
     <g id="text_2">
      <!-- −1 -->
      <g transform="translate(126.401634 334.998438)scale(0.1 -0.1)">
       <defs>
        <path id="DejaVuSans-31" d="M 794 531 
L 1825 531 
L 1825 4091 
L 703 3866 
L 703 4441 
L 1819 4666 
L 2450 4666 
L 2450 531 
L 3481 531 
L 3481 0 
L 794 0 
L 794 531 
z
" transform="scale(0.015625)"/>
       </defs>
       <use xlink:href="#DejaVuSans-2212"/>
       <use xlink:href="#DejaVuSans-31" x="83.789062"/>
      </g>
     </g>
    </g>
    <g id="xtick_3">
     <g id="line2d_3">
      <g>
       <use xlink:href="#m5f7d755c60" x="184.5" y="320.4" style="stroke: #000000; stroke-width: 0.8"/>
      </g>
     </g>
     <g id="text_3">
      <!-- 0 -->
      <g transform="translate(181.31875 334.998438)scale(0.1 -0.1)">
       <defs>
        <path id="DejaVuSans-30" d="M 2034 4250 
Q 1547 4250 1301 3770 
Q 1056 3291 1056 2328 
Q 1056 1369 1301 889 
Q 1547 409 2034 409 
Q 2525 409 2770 889 
Q 3016 1369 3016 2328 
Q 3016 3291 2770 3770 
Q 2525 4250 2034 4250 
z
M 2034 4750 
Q 2819 4750 3233 4129 
Q 3647 3509 3647 2328 
Q 3647 1150 3233 529 
Q 2819 -91 2034 -91 
Q 1250 -91 836 529 
Q 422 1150 422 2328 
Q 422 3509 836 4129 
Q 1250 4750 2034 4750 
z
" transform="scale(0.015625)"/>
       </defs>
       <use xlink:href="#DejaVuSans-30"/>
      </g>
     </g>
    </g>
    <g id="xtick_4">
     <g id="line2d_4">
      <g>
       <use xlink:href="#m5f7d755c60" x="235.227273" y="320.4" style="stroke: #000000; stroke-width: 0.8"/>
      </g>
     </g>
     <g id="text_4">
      <!-- 1 -->
      <g transform="translate(232.046023 334.998438)scale(0.1 -0.1)">
       <use xlink:href="#DejaVuSans-31"/>
      </g>
     </g>
    </g>
    <g id="xtick_5">
     <g id="line2d_5">
      <g>
       <use xlink:href="#m5f7d755c60" x="285.954545" y="320.4" style="stroke: #000000; stroke-width: 0.8"/>
      </g>
     </g>
     <g id="text_5">
      <!-- 2 -->
      <g transform="translate(282.773295 334.998438)scale(0.1 -0.1)">
       <use xlink:href="#DejaVuSans-32"/>
      </g>
     </g>
    </g>
   </g>
   <g id="matplotlib.axis_2">
    <g id="ytick_1">
     <g id="line2d_6">
      <defs>
       <path id="m96c0ac1e21" d="M 0 0 
L -3.5 0 
" style="stroke: #000000; stroke-width: 0.8"/>
      </defs>
      <g>
       <use xlink:href="#m96c0ac1e21" x="45" y="269.811978" style="stroke: #000000; stroke-width: 0.8"/>
      </g>
     </g>
     <g id="text_6">
      <!-- $\mathdefault{10^{-3}}$ -->
      <g transform="translate(14.5 273.611197)scale(0.1 -0.1)">
       <defs>
        <path id="DejaVuSans-33" d="M 2597 2516 
Q 3050 2419 3304 2112 
Q 3559 1806 3559 1356 
Q 3559 666 3084 287 
Q 2609 -91 1734 -91 
Q 1441 -91 1130 -33 
Q 819 25 488 141 
L 488 750 
Q 750 597 1062 519 
Q 1375 441 1716 441 
Q 2309 441 2620 675 
Q 2931 909 2931 1356 
Q 2931 1769 2642 2001 
Q 2353 2234 1838 2234 
L 1294 2234 
L 1294 2753 
L 1863 2753 
Q 2328 2753 2575 2939 
Q 2822 3125 2822 3475 
Q 2822 3834 2567 4026 
Q 2313 4219 1838 4219 
Q 1578 4219 1281 4162 
Q 984 4106 628 3988 
L 628 4550 
Q 988 4650 1302 4700 
Q 1616 4750 1894 4750 
Q 2613 4750 3031 4423 
Q 3450 4097 3450 3541 
Q 3450 3153 3228 2886 
Q 3006 2619 2597 2516 
z
" transform="scale(0.015625)"/>
       </defs>
       <use xlink:href="#DejaVuSans-31" transform="translate(0 0.765625)"/>
       <use xlink:href="#DejaVuSans-30" transform="translate(63.623047 0.765625)"/>
       <use xlink:href="#DejaVuSans-2212" transform="translate(128.203125 39.046875)scale(0.7)"/>
       <use xlink:href="#DejaVuSans-33" transform="translate(186.855469 39.046875)scale(0.7)"/>
      </g>
     </g>
    </g>
    <g id="ytick_2">
     <g id="line2d_7">
      <g>
       <use xlink:href="#m96c0ac1e21" x="45" y="217.738545" style="stroke: #000000; stroke-width: 0.8"/>
      </g>
     </g>
     <g id="text_7">
      <!-- $\mathdefault{10^{-2}}$ -->
      <g transform="translate(14.5 221.537764)scale(0.1 -0.1)">
       <use xlink:href="#DejaVuSans-31" transform="translate(0 0.765625)"/>
       <use xlink:href="#DejaVuSans-30" transform="translate(63.623047 0.765625)"/>
       <use xlink:href="#DejaVuSans-2212" transform="translate(128.203125 39.046875)scale(0.7)"/>
       <use xlink:href="#DejaVuSans-32" transform="translate(186.855469 39.046875)scale(0.7)"/>
      </g>
     </g>
    </g>
    <g id="ytick_3">
     <g id="line2d_8">
      <g>
       <use xlink:href="#m96c0ac1e21" x="45" y="165.665112" style="stroke: #000000; stroke-width: 0.8"/>
      </g>
     </g>
     <g id="text_8">
      <!-- $\mathdefault{10^{-1}}$ -->
      <g transform="translate(14.5 169.464331)scale(0.1 -0.1)">
       <use xlink:href="#DejaVuSans-31" transform="translate(0 0.684375)"/>
       <use xlink:href="#DejaVuSans-30" transform="translate(63.623047 0.684375)"/>
       <use xlink:href="#DejaVuSans-2212" transform="translate(128.203125 38.965625)scale(0.7)"/>
       <use xlink:href="#DejaVuSans-31" transform="translate(186.855469 38.965625)scale(0.7)"/>
      </g>
     </g>
    </g>
    <g id="ytick_4">
     <g id="line2d_9">
      <g>
       <use xlink:href="#m96c0ac1e21" x="45" y="113.591679" style="stroke: #000000; stroke-width: 0.8"/>
      </g>
     </g>
     <g id="text_9">
      <!-- $\mathdefault{10^{0}}$ -->
      <g transform="translate(20.4 117.390898)scale(0.1 -0.1)">
       <use xlink:href="#DejaVuSans-31" transform="translate(0 0.765625)"/>
       <use xlink:href="#DejaVuSans-30" transform="translate(63.623047 0.765625)"/>
       <use xlink:href="#DejaVuSans-30" transform="translate(128.203125 39.046875)scale(0.7)"/>
      </g>
     </g>
    </g>
    <g id="ytick_5">
     <g id="line2d_10">
      <g>
       <use xlink:href="#m96c0ac1e21" x="45" y="61.518246" style="stroke: #000000; stroke-width: 0.8"/>
      </g>
     </g>
     <g id="text_10">
      <!-- $\mathdefault{10^{1}}$ -->
      <g transform="translate(20.4 65.317465)scale(0.1 -0.1)">
       <use xlink:href="#DejaVuSans-31" transform="translate(0 0.684375)"/>
       <use xlink:href="#DejaVuSans-30" transform="translate(63.623047 0.684375)"/>
       <use xlink:href="#DejaVuSans-31" transform="translate(128.203125 38.965625)scale(0.7)"/>
      </g>
     </g>
    </g>
    <g id="ytick_6">
     <g id="line2d_11">
      <defs>
       <path id="m6585ea9c03" d="M 0 0 
L -2 0 
" style="stroke: #000000; stroke-width: 0.6"/>
      </defs>
      <g>
       <use xlink:href="#m6585ea9c03" x="45" y="306.209746" style="stroke: #000000; stroke-width: 0.6"/>
      </g>
     </g>
    </g>
    <g id="ytick_7">
     <g id="line2d_12">
      <g>
       <use xlink:href="#m6585ea9c03" x="45" y="297.040069" style="stroke: #000000; stroke-width: 0.6"/>
      </g>
     </g>
    </g>
    <g id="ytick_8">
     <g id="line2d_13">
      <g>
       <use xlink:href="#m6585ea9c03" x="45" y="290.53408" style="stroke: #000000; stroke-width: 0.6"/>
      </g>
     </g>
    </g>
    <g id="ytick_9">
     <g id="line2d_14">
      <g>
       <use xlink:href="#m6585ea9c03" x="45" y="285.487643" style="stroke: #000000; stroke-width: 0.6"/>
      </g>
     </g>
    </g>
    <g id="ytick_10">
     <g id="line2d_15">
      <g>
       <use xlink:href="#m6585ea9c03" x="45" y="281.364404" style="stroke: #000000; stroke-width: 0.6"/>
      </g>
     </g>
    </g>
    <g id="ytick_11">
     <g id="line2d_16">
      <g>
       <use xlink:href="#m6585ea9c03" x="45" y="277.878255" style="stroke: #000000; stroke-width: 0.6"/>
      </g>
     </g>
    </g>
    <g id="ytick_12">
     <g id="line2d_17">
      <g>
       <use xlink:href="#m6585ea9c03" x="45" y="274.858415" style="stroke: #000000; stroke-width: 0.6"/>
      </g>
     </g>
    </g>
    <g id="ytick_13">
     <g id="line2d_18">
      <g>
       <use xlink:href="#m6585ea9c03" x="45" y="272.194728" style="stroke: #000000; stroke-width: 0.6"/>
      </g>
     </g>
    </g>
    <g id="ytick_14">
     <g id="line2d_19">
      <g>
       <use xlink:href="#m6585ea9c03" x="45" y="254.136313" style="stroke: #000000; stroke-width: 0.6"/>
      </g>
     </g>
    </g>
    <g id="ytick_15">
     <g id="line2d_20">
      <g>
       <use xlink:href="#m6585ea9c03" x="45" y="244.966636" style="stroke: #000000; stroke-width: 0.6"/>
      </g>
     </g>
    </g>
    <g id="ytick_16">
     <g id="line2d_21">
      <g>
       <use xlink:href="#m6585ea9c03" x="45" y="238.460647" style="stroke: #000000; stroke-width: 0.6"/>
      </g>
     </g>
    </g>
    <g id="ytick_17">
     <g id="line2d_22">
      <g>
       <use xlink:href="#m6585ea9c03" x="45" y="233.41421" style="stroke: #000000; stroke-width: 0.6"/>
      </g>
     </g>
    </g>
    <g id="ytick_18">
     <g id="line2d_23">
      <g>
       <use xlink:href="#m6585ea9c03" x="45" y="229.290971" style="stroke: #000000; stroke-width: 0.6"/>
      </g>
     </g>
    </g>
    <g id="ytick_19">
     <g id="line2d_24">
      <g>
       <use xlink:href="#m6585ea9c03" x="45" y="225.804822" style="stroke: #000000; stroke-width: 0.6"/>
      </g>
     </g>
    </g>
    <g id="ytick_20">
     <g id="line2d_25">
      <g>
       <use xlink:href="#m6585ea9c03" x="45" y="222.784982" style="stroke: #000000; stroke-width: 0.6"/>
      </g>
     </g>
    </g>
    <g id="ytick_21">
     <g id="line2d_26">
      <g>
       <use xlink:href="#m6585ea9c03" x="45" y="220.121295" style="stroke: #000000; stroke-width: 0.6"/>
      </g>
     </g>
    </g>
    <g id="ytick_22">
     <g id="line2d_27">
      <g>
       <use xlink:href="#m6585ea9c03" x="45" y="202.06288" style="stroke: #000000; stroke-width: 0.6"/>
      </g>
     </g>
    </g>
    <g id="ytick_23">
     <g id="line2d_28">
      <g>
       <use xlink:href="#m6585ea9c03" x="45" y="192.893203" style="stroke: #000000; stroke-width: 0.6"/>
      </g>
     </g>
    </g>
    <g id="ytick_24">
     <g id="line2d_29">
      <g>
       <use xlink:href="#m6585ea9c03" x="45" y="186.387214" style="stroke: #000000; stroke-width: 0.6"/>
      </g>
     </g>
    </g>
    <g id="ytick_25">
     <g id="line2d_30">
      <g>
       <use xlink:href="#m6585ea9c03" x="45" y="181.340777" style="stroke: #000000; stroke-width: 0.6"/>
      </g>
     </g>
    </g>
    <g id="ytick_26">
     <g id="line2d_31">
      <g>
       <use xlink:href="#m6585ea9c03" x="45" y="177.217538" style="stroke: #000000; stroke-width: 0.6"/>
      </g>
     </g>
    </g>
    <g id="ytick_27">
     <g id="line2d_32">
      <g>
       <use xlink:href="#m6585ea9c03" x="45" y="173.731389" style="stroke: #000000; stroke-width: 0.6"/>
      </g>
     </g>
    </g>
    <g id="ytick_28">
     <g id="line2d_33">
      <g>
       <use xlink:href="#m6585ea9c03" x="45" y="170.711549" style="stroke: #000000; stroke-width: 0.6"/>
      </g>
     </g>
    </g>
    <g id="ytick_29">
     <g id="line2d_34">
      <g>
       <use xlink:href="#m6585ea9c03" x="45" y="168.047862" style="stroke: #000000; stroke-width: 0.6"/>
      </g>
     </g>
    </g>
    <g id="ytick_30">
     <g id="line2d_35">
      <g>
       <use xlink:href="#m6585ea9c03" x="45" y="149.989447" style="stroke: #000000; stroke-width: 0.6"/>
      </g>
     </g>
    </g>
    <g id="ytick_31">
     <g id="line2d_36">
      <g>
       <use xlink:href="#m6585ea9c03" x="45" y="140.81977" style="stroke: #000000; stroke-width: 0.6"/>
      </g>
     </g>
    </g>
    <g id="ytick_32">
     <g id="line2d_37">
      <g>
       <use xlink:href="#m6585ea9c03" x="45" y="134.313781" style="stroke: #000000; stroke-width: 0.6"/>
      </g>
     </g>
    </g>
    <g id="ytick_33">
     <g id="line2d_38">
      <g>
       <use xlink:href="#m6585ea9c03" x="45" y="129.267344" style="stroke: #000000; stroke-width: 0.6"/>
      </g>
     </g>
    </g>
    <g id="ytick_34">
     <g id="line2d_39">
      <g>
       <use xlink:href="#m6585ea9c03" x="45" y="125.144105" style="stroke: #000000; stroke-width: 0.6"/>
      </g>
     </g>
    </g>
    <g id="ytick_35">
     <g id="line2d_40">
      <g>
       <use xlink:href="#m6585ea9c03" x="45" y="121.657956" style="stroke: #000000; stroke-width: 0.6"/>
      </g>
     </g>
    </g>
    <g id="ytick_36">
     <g id="line2d_41">
      <g>
       <use xlink:href="#m6585ea9c03" x="45" y="118.638116" style="stroke: #000000; stroke-width: 0.6"/>
      </g>
     </g>
    </g>
    <g id="ytick_37">
     <g id="line2d_42">
      <g>
       <use xlink:href="#m6585ea9c03" x="45" y="115.974429" style="stroke: #000000; stroke-width: 0.6"/>
      </g>
     </g>
    </g>
    <g id="ytick_38">
     <g id="line2d_43">
      <g>
       <use xlink:href="#m6585ea9c03" x="45" y="97.916014" style="stroke: #000000; stroke-width: 0.6"/>
      </g>
     </g>
    </g>
    <g id="ytick_39">
     <g id="line2d_44">
      <g>
       <use xlink:href="#m6585ea9c03" x="45" y="88.746337" style="stroke: #000000; stroke-width: 0.6"/>
      </g>
     </g>
    </g>
    <g id="ytick_40">
     <g id="line2d_45">
      <g>
       <use xlink:href="#m6585ea9c03" x="45" y="82.240349" style="stroke: #000000; stroke-width: 0.6"/>
      </g>
     </g>
    </g>
    <g id="ytick_41">
     <g id="line2d_46">
      <g>
       <use xlink:href="#m6585ea9c03" x="45" y="77.193911" style="stroke: #000000; stroke-width: 0.6"/>
      </g>
     </g>
    </g>
    <g id="ytick_42">
     <g id="line2d_47">
      <g>
       <use xlink:href="#m6585ea9c03" x="45" y="73.070672" style="stroke: #000000; stroke-width: 0.6"/>
      </g>
     </g>
    </g>
    <g id="ytick_43">
     <g id="line2d_48">
      <g>
       <use xlink:href="#m6585ea9c03" x="45" y="69.584523" style="stroke: #000000; stroke-width: 0.6"/>
      </g>
     </g>
    </g>
    <g id="ytick_44">
     <g id="line2d_49">
      <g>
       <use xlink:href="#m6585ea9c03" x="45" y="66.564683" style="stroke: #000000; stroke-width: 0.6"/>
      </g>
     </g>
    </g>
    <g id="ytick_45">
     <g id="line2d_50">
      <g>
       <use xlink:href="#m6585ea9c03" x="45" y="63.900996" style="stroke: #000000; stroke-width: 0.6"/>
      </g>
     </g>
    </g>
    <g id="ytick_46">
     <g id="line2d_51">
      <g>
       <use xlink:href="#m6585ea9c03" x="45" y="45.842581" style="stroke: #000000; stroke-width: 0.6"/>
      </g>
     </g>
    </g>
   </g>
   <g id="line2d_52">
    <path d="M 83.045455 177.396649 
L 83.654791 189.19359 
L 84.264127 205.990231 
L 84.670351 225.167049 
L 84.873463 244.055347 
L 85.076575 285.346301 
L 85.279687 240.162532 
L 85.685912 220.181366 
L 86.092136 212.016601 
L 86.49836 207.65304 
L 86.904584 205.237276 
L 87.310808 204.033681 
L 87.717032 203.674142 
L 87.920145 203.739578 
L 88.326369 204.268831 
L 88.732593 205.2374 
L 89.341929 207.331528 
L 90.357496 211.935298 
L 91.77928 218.6384 
L 92.388616 220.665932 
L 92.794841 221.474467 
L 93.201065 221.775915 
L 93.404177 221.728652 
L 93.810401 221.258863 
L 94.216625 220.329439 
L 94.825961 218.264025 
L 95.841522 213.8018 
L 97.872649 204.713804 
L 99.091321 200.3004 
L 100.106882 197.334788 
L 101.122442 194.962236 
L 102.138002 193.099613 
L 103.153563 191.662142 
L 104.169123 190.563529 
L 105.387796 189.584734 
L 106.80958 188.760252 
L 108.637589 187.970152 
L 113.512285 186.217973 
L 115.94963 185.536063 
L 117.777645 185.267333 
L 119.402541 185.26995 
L 121.027438 185.522385 
L 122.652335 186.009021 
L 124.683456 186.86008 
L 128.136361 188.348723 
L 129.558146 188.706242 
L 130.776818 188.785658 
L 131.995491 188.615468 
L 133.214163 188.183559 
L 134.432842 187.509873 
L 136.057738 186.314052 
L 142.151107 181.442784 
L 143.572891 180.765593 
L 144.791564 180.424551 
L 146.010236 180.321572 
L 147.228909 180.460794 
L 148.447581 180.836024 
L 149.869366 181.547833 
L 151.494269 182.659687 
L 153.931614 184.670031 
L 156.165846 186.446827 
L 157.587631 187.310465 
L 158.806303 187.784321 
L 159.821864 187.959095 
L 160.837426 187.927703 
L 162.056103 187.635745 
L 163.477887 187.010516 
L 165.509008 185.805858 
L 168.352577 184.127818 
L 169.774362 183.519366 
L 171.196147 183.160046 
L 172.414825 183.084242 
L 173.633498 183.240995 
L 174.852171 183.638863 
L 176.070843 184.279484 
L 177.289515 185.158036 
L 178.7113 186.468083 
L 180.336197 188.303478 
L 182.164211 190.716051 
L 188.663804 199.689311 
L 189.882477 200.862055 
L 191.101149 201.714877 
L 192.116709 202.161545 
L 193.13227 202.369655 
L 194.14783 202.356336 
L 195.366502 202.090376 
L 196.788287 201.521891 
L 199.225638 200.229475 
L 201.662983 199.005259 
L 203.28788 198.440674 
L 204.709666 198.199999 
L 205.928337 198.222942 
L 207.147009 198.48826 
L 208.365688 199.024413 
L 209.381248 199.700437 
L 210.396809 200.607141 
L 211.412369 201.769526 
L 212.427929 203.218625 
L 213.44349 204.995423 
L 214.45905 207.155554 
L 215.474611 209.776994 
L 216.490171 212.974239 
L 217.505731 216.927205 
L 218.521292 221.940232 
L 219.33374 227.087287 
L 220.146195 233.864816 
L 220.755531 240.778928 
L 221.364867 250.779033 
L 221.771091 261.208122 
L 222.177315 280.966962 
L 222.380427 307.8 
L 222.58354 302.488449 
L 222.989764 268.191367 
L 223.395988 255.255996 
L 224.005324 244.036883 
L 224.61466 236.728388 
L 225.427109 229.851816 
L 226.239557 224.810354 
L 227.255117 220.061665 
L 228.270678 216.455817 
L 229.286244 213.650492 
L 230.301805 211.453889 
L 231.317365 209.742212 
L 232.332926 208.432314 
L 233.348486 207.465225 
L 234.364046 206.797089 
L 235.379607 206.393686 
L 236.395167 206.223894 
L 237.410734 206.262814 
L 238.629406 206.543783 
L 240.051191 207.127476 
L 242.488536 208.458769 
L 244.113432 209.249604 
L 245.128993 209.542363 
L 245.941441 209.596918 
L 246.753889 209.444031 
L 247.566338 209.048168 
L 248.378786 208.380422 
L 249.191234 207.42842 
L 250.206795 205.842731 
L 251.425467 203.408211 
L 252.847252 199.985071 
L 254.878379 194.438652 
L 259.143739 182.644066 
L 261.174859 177.731781 
L 262.799756 174.311798 
L 264.424653 171.403058 
L 265.846437 169.30721 
L 267.06511 167.860699 
L 268.283782 166.748294 
L 269.299343 166.082366 
L 270.314903 165.657004 
L 271.330463 165.470678 
L 272.346024 165.517598 
L 273.36159 165.781509 
L 274.580263 166.340877 
L 278.23628 168.268211 
L 278.845617 168.29034 
L 279.454953 168.10344 
L 280.064289 167.656637 
L 280.673625 166.904246 
L 281.282968 165.813248 
L 282.095416 163.807862 
L 282.907864 161.187385 
L 283.923425 157.159952 
L 285.345209 150.509022 
L 285.954545 147.436668 
L 285.954545 147.436668 
" clip-path="url(#p752d3c761e)" style="fill: none; stroke: #1f77b4; stroke-width: 1.5; stroke-linecap: square"/>
   </g>
   <g id="line2d_53">
    <path d="M 57.681818 55.8 
L 61.495896 63.155294 
L 64.038619 68.749449 
L 65.945664 73.605152 
L 67.21702 77.018233 
L 67.852697 79.192761 
L 69.124053 82.855134 
L 69.759743 84.978363 
L 70.39542 87.723289 
L 71.031098 89.880848 
L 72.302453 95.073827 
L 72.938143 97.162838 
L 73.573821 100.415828 
L 74.209498 103.026316 
L 74.845188 106.996528 
L 75.480866 109.722011 
L 76.116544 114.120723 
L 76.752221 116.564685 
L 77.387899 121.959793 
L 78.023577 126.056666 
L 78.659254 132.344602 
L 79.294932 135.186836 
L 79.930622 137.323437 
L 80.566299 144.309393 
L 81.201977 156.878751 
L 81.837655 160.384102 
L 82.473333 170.503267 
L 83.109022 209.128498 
L 83.7447 173.793143 
L 84.380384 211.492104 
L 85.016061 218.243946 
L 85.651745 193.000797 
L 86.287423 187.199341 
L 86.923101 218.114181 
L 87.558784 285.379547 
L 88.194462 224.908819 
L 88.83014 185.721311 
L 89.465823 190.501483 
L 90.101501 201.525274 
L 90.737185 185.42379 
L 91.372862 190.901124 
L 92.00854 185.717287 
L 92.644224 225.448641 
L 93.915579 194.813362 
L 94.551263 201.657951 
L 95.186941 181.222037 
L 95.822624 181.745249 
L 96.458302 203.95408 
L 97.09398 192.723266 
L 97.729663 190.48225 
L 98.365347 180.329789 
L 99.001025 220.09539 
L 99.636709 180.994203 
L 100.272386 221.943803 
L 100.90807 211.855096 
L 101.543748 209.898965 
L 102.179425 217.384836 
L 102.815109 236.875951 
L 103.450781 195.266491 
L 104.086458 229.791098 
L 104.722142 182.517051 
L 105.35782 221.596214 
L 105.993504 182.832007 
L 106.629181 191.404104 
L 107.264859 172.132542 
L 107.900543 183.69767 
L 108.536226 177.746973 
L 109.171904 181.563019 
L 109.807588 175.44423 
L 110.443266 171.209687 
L 111.078949 192.630731 
L 111.714627 260.936286 
L 112.350305 215.006004 
L 112.985988 231.698339 
L 113.621666 176.918286 
L 114.257344 169.440822 
L 114.893027 206.449324 
L 115.528705 223.778957 
L 116.164389 171.056902 
L 116.800067 204.355964 
L 117.435744 228.578562 
L 118.071428 190.689535 
L 118.707106 175.003421 
L 119.342783 233.11737 
L 119.978467 209.519483 
L 120.614145 250.411358 
L 121.249829 174.073489 
L 121.885506 230.690176 
L 122.521184 174.242328 
L 123.156868 207.544719 
L 123.792545 179.42339 
L 124.428223 248.705718 
L 125.063907 199.827636 
L 125.699584 204.124193 
L 126.335268 187.188144 
L 126.970946 218.044623 
L 127.606623 181.005166 
L 128.242307 171.693315 
L 128.877991 182.114574 
L 129.513669 216.96172 
L 130.149352 185.388733 
L 130.78503 212.073967 
L 131.420714 182.70137 
L 132.056391 220.722648 
L 132.692069 271.916509 
L 133.327753 214.085134 
L 133.963431 178.992497 
L 134.599111 173.286185 
L 135.234792 193.36417 
L 135.87047 176.687805 
L 136.50615 222.469896 
L 137.141831 170.146673 
L 137.777512 212.40323 
L 138.413193 210.493116 
L 139.04887 213.413407 
L 139.684551 200.770117 
L 140.320232 168.714932 
L 140.955909 223.326582 
L 141.59159 181.44064 
L 142.227271 168.349082 
L 142.862951 227.45192 
L 143.498632 175.81341 
L 144.13431 182.474969 
L 144.769991 262.786319 
L 145.405671 170.911004 
L 146.041349 170.683039 
L 146.67703 188.436836 
L 147.31271 180.827494 
L 147.948391 191.023983 
L 148.584072 169.194908 
L 149.219749 185.551023 
L 149.85543 175.575606 
L 150.491111 175.046927 
L 151.126789 168.983024 
L 151.762469 211.608123 
L 152.39815 193.652684 
L 153.033831 170.735173 
L 153.669511 244.798875 
L 154.305195 201.378457 
L 154.940876 196.562546 
L 155.576557 176.006468 
L 156.212234 196.43657 
L 156.847915 207.624838 
L 157.483596 251.044358 
L 158.119276 173.559311 
L 158.754957 209.608733 
L 159.390635 195.024498 
L 160.026315 225.382619 
L 160.661995 224.207526 
L 161.297675 215.525683 
L 161.933355 173.418104 
L 162.569035 215.046272 
L 163.204716 174.687799 
L 163.840395 192.812097 
L 164.476068 173.867262 
L 165.111749 183.007797 
L 165.747428 187.171657 
L 166.383109 184.624299 
L 167.018788 183.199466 
L 167.654469 189.351023 
L 168.29015 219.00419 
L 168.925829 214.396236 
L 169.561514 211.161879 
L 170.197195 199.9544 
L 170.832874 239.764501 
L 171.468555 183.623016 
L 172.104235 186.840034 
L 172.739914 190.697999 
L 173.375594 168.816774 
L 174.011274 169.724085 
L 174.64696 188.185865 
L 175.28264 176.370957 
L 175.91832 184.658327 
L 176.554 179.957102 
L 177.18968 190.590557 
L 177.82536 223.677033 
L 178.46104 178.800751 
L 179.09672 259.00898 
L 179.732393 253.739621 
L 180.368073 172.235862 
L 181.003753 172.486988 
L 181.639433 172.254729 
L 182.275114 176.996748 
L 182.910794 180.637469 
L 183.546474 189.517279 
L 184.182154 185.170657 
L 184.817839 179.456965 
L 185.453519 184.206005 
L 186.089199 183.523117 
L 186.724879 199.379141 
L 187.360559 184.047946 
L 187.996239 176.841824 
L 188.631919 239.132783 
L 189.2676 195.187113 
L 190.538964 223.77526 
L 191.810325 177.249583 
L 192.446005 220.45741 
L 193.081685 203.666616 
L 193.717365 182.194145 
L 194.353045 199.588915 
L 194.98873 210.805494 
L 195.62441 198.276774 
L 196.26009 289.181181 
L 196.895771 185.076331 
L 197.53145 174.084929 
L 198.167131 211.662854 
L 198.802811 215.097477 
L 199.438491 177.50354 
L 200.074164 247.081624 
L 200.709844 173.702375 
L 201.345524 208.148181 
L 201.981204 201.690387 
L 202.616884 208.915883 
L 203.252564 177.215291 
L 203.888245 235.810046 
L 204.523924 201.562583 
L 205.159609 207.907161 
L 205.79529 212.488118 
L 206.430969 219.896636 
L 207.06665 181.19352 
L 207.702329 186.466108 
L 208.33801 209.060104 
L 208.973691 199.415215 
L 209.60937 212.069854 
L 210.245049 179.94217 
L 211.51641 206.739297 
L 212.152088 187.481163 
L 212.787769 217.509764 
L 213.42345 204.957059 
L 214.05913 174.28886 
L 214.694811 195.73508 
L 215.330489 184.953289 
L 215.966169 210.241957 
L 216.60185 198.509676 
L 217.237528 175.078682 
L 217.873208 197.756743 
L 218.508889 203.735949 
L 219.14457 195.101453 
L 219.780251 189.531152 
L 220.415928 201.287045 
L 221.051609 198.246078 
L 221.68729 232.178605 
L 222.322967 182.271221 
L 222.958648 224.916603 
L 223.594329 187.397337 
L 224.230009 189.64428 
L 224.86569 190.716796 
L 225.501368 181.610835 
L 226.137049 185.408888 
L 226.772729 196.813863 
L 227.408407 190.211432 
L 228.044088 257.185849 
L 228.679768 184.359286 
L 229.315449 217.451179 
L 229.95113 198.626026 
L 230.586807 225.21105 
L 231.222488 196.289938 
L 232.493847 184.197368 
L 233.129527 180.269028 
L 233.765208 187.737239 
L 234.400889 203.439305 
L 235.036569 195.295214 
L 235.672253 196.505627 
L 236.307931 255.833256 
L 237.579292 205.344992 
L 238.850654 184.310144 
L 239.486331 184.264274 
L 240.122015 188.993744 
L 240.757693 196.645096 
L 241.39337 193.217908 
L 242.029054 178.593314 
L 242.664732 187.770832 
L 243.300416 179.423093 
L 243.936093 222.449301 
L 244.571771 184.696396 
L 245.207455 181.96048 
L 246.47881 191.328607 
L 247.114494 204.136778 
L 247.750171 188.97303 
L 248.385855 206.977755 
L 249.021533 208.934561 
L 249.657211 218.119952 
L 250.292894 198.539856 
L 250.928572 208.312367 
L 251.56425 185.79686 
L 252.199933 182.521709 
L 252.835611 203.29058 
L 253.471295 204.468968 
L 254.106973 202.532525 
L 255.378334 173.549024 
L 256.014012 185.701066 
L 256.649689 204.453501 
L 257.285373 171.504436 
L 257.921051 206.440357 
L 258.556734 197.6281 
L 259.192412 183.340264 
L 259.82809 223.000081 
L 260.463774 179.102095 
L 261.099451 202.408452 
L 261.735129 176.226874 
L 262.370813 174.960097 
L 263.00649 172.970437 
L 263.642174 195.070046 
L 264.277852 196.311502 
L 264.913529 165.653555 
L 265.549213 160.883062 
L 266.184897 186.53687 
L 266.820575 164.381018 
L 267.456258 179.819903 
L 268.091936 166.568233 
L 268.72762 157.765164 
L 269.363297 158.842628 
L 269.998975 176.352458 
L 270.634659 159.549547 
L 271.270337 160.247566 
L 271.906014 165.37006 
L 272.541698 156.513344 
L 273.177376 170.349879 
L 273.813059 168.326047 
L 274.448737 172.354679 
L 275.084415 164.389354 
L 275.720098 163.366615 
L 276.355776 165.594739 
L 276.991454 174.648716 
L 277.627138 173.039868 
L 278.262815 163.200799 
L 278.898499 180.810107 
L 279.534177 168.377806 
L 280.169854 166.117478 
L 280.805538 169.878892 
L 281.441222 160.191183 
L 282.076899 161.449666 
L 282.712583 154.620286 
L 283.348261 158.554879 
L 283.983945 160.313892 
L 284.619622 148.432184 
L 285.2553 148.792245 
L 285.890984 147.904537 
L 286.526655 146.271553 
L 287.162333 139.267219 
L 287.798011 140.134574 
L 288.433701 132.975458 
L 289.069378 129.366973 
L 289.705056 129.302112 
L 290.340734 125.558071 
L 290.976411 122.513672 
L 291.612101 117.26651 
L 292.247779 114.53689 
L 292.883456 112.718627 
L 293.519146 109.196515 
L 294.154824 107.75531 
L 294.790502 105.678318 
L 295.426179 102.203901 
L 297.96889 92.902314 
L 299.240257 88.774932 
L 299.875935 87.389104 
L 300.511613 84.824741 
L 301.14729 83.443403 
L 301.78298 81.105571 
L 303.054336 78.023024 
L 303.690025 76.063292 
L 308.139781 65.398368 
L 311.318182 59.056174 
L 311.318182 59.056174 
" clip-path="url(#p752d3c761e)" style="fill: none; stroke: #ff7f0e; stroke-width: 1.5; stroke-linecap: square"/>
   </g>
   <g id="patch_3">
    <path d="M 45 320.4 
L 45 43.2 
" style="fill: none; stroke: #000000; stroke-width: 0.8; stroke-linejoin: miter; stroke-linecap: square"/>
   </g>
   <g id="patch_4">
    <path d="M 324 320.4 
L 324 43.2 
" style="fill: none; stroke: #000000; stroke-width: 0.8; stroke-linejoin: miter; stroke-linecap: square"/>
   </g>
   <g id="patch_5">
    <path d="M 45 320.4 
L 324 320.4 
" style="fill: none; stroke: #000000; stroke-width: 0.8; stroke-linejoin: miter; stroke-linecap: square"/>
   </g>
   <g id="patch_6">
    <path d="M 45 43.2 
L 324 43.2 
" style="fill: none; stroke: #000000; stroke-width: 0.8; stroke-linejoin: miter; stroke-linecap: square"/>
   </g>
   <g id="text_11">
    <!-- Prediction Error -->
    <g transform="translate(138.166875 37.2)scale(0.12 -0.12)">
     <defs>
      <path id="DejaVuSans-50" d="M 1259 4147 
L 1259 2394 
L 2053 2394 
Q 2494 2394 2734 2622 
Q 2975 2850 2975 3272 
Q 2975 3691 2734 3919 
Q 2494 4147 2053 4147 
L 1259 4147 
z
M 628 4666 
L 2053 4666 
Q 2838 4666 3239 4311 
Q 3641 3956 3641 3272 
Q 3641 2581 3239 2228 
Q 2838 1875 2053 1875 
L 1259 1875 
L 1259 0 
L 628 0 
L 628 4666 
z
" transform="scale(0.015625)"/>
      <path id="DejaVuSans-72" d="M 2631 2963 
Q 2534 3019 2420 3045 
Q 2306 3072 2169 3072 
Q 1681 3072 1420 2755 
Q 1159 2438 1159 1844 
L 1159 0 
L 581 0 
L 581 3500 
L 1159 3500 
L 1159 2956 
Q 1341 3275 1631 3429 
Q 1922 3584 2338 3584 
Q 2397 3584 2469 3576 
Q 2541 3569 2628 3553 
L 2631 2963 
z
" transform="scale(0.015625)"/>
      <path id="DejaVuSans-65" d="M 3597 1894 
L 3597 1613 
L 953 1613 
Q 991 1019 1311 708 
Q 1631 397 2203 397 
Q 2534 397 2845 478 
Q 3156 559 3463 722 
L 3463 178 
Q 3153 47 2828 -22 
Q 2503 -91 2169 -91 
Q 1331 -91 842 396 
Q 353 884 353 1716 
Q 353 2575 817 3079 
Q 1281 3584 2069 3584 
Q 2775 3584 3186 3129 
Q 3597 2675 3597 1894 
z
M 3022 2063 
Q 3016 2534 2758 2815 
Q 2500 3097 2075 3097 
Q 1594 3097 1305 2825 
Q 1016 2553 972 2059 
L 3022 2063 
z
" transform="scale(0.015625)"/>
      <path id="DejaVuSans-64" d="M 2906 2969 
L 2906 4863 
L 3481 4863 
L 3481 0 
L 2906 0 
L 2906 525 
Q 2725 213 2448 61 
Q 2172 -91 1784 -91 
Q 1150 -91 751 415 
Q 353 922 353 1747 
Q 353 2572 751 3078 
Q 1150 3584 1784 3584 
Q 2172 3584 2448 3432 
Q 2725 3281 2906 2969 
z
M 947 1747 
Q 947 1113 1208 752 
Q 1469 391 1925 391 
Q 2381 391 2643 752 
Q 2906 1113 2906 1747 
Q 2906 2381 2643 2742 
Q 2381 3103 1925 3103 
Q 1469 3103 1208 2742 
Q 947 2381 947 1747 
z
" transform="scale(0.015625)"/>
      <path id="DejaVuSans-69" d="M 603 3500 
L 1178 3500 
L 1178 0 
L 603 0 
L 603 3500 
z
M 603 4863 
L 1178 4863 
L 1178 4134 
L 603 4134 
L 603 4863 
z
" transform="scale(0.015625)"/>
      <path id="DejaVuSans-63" d="M 3122 3366 
L 3122 2828 
Q 2878 2963 2633 3030 
Q 2388 3097 2138 3097 
Q 1578 3097 1268 2742 
Q 959 2388 959 1747 
Q 959 1106 1268 751 
Q 1578 397 2138 397 
Q 2388 397 2633 464 
Q 2878 531 3122 666 
L 3122 134 
Q 2881 22 2623 -34 
Q 2366 -91 2075 -91 
Q 1284 -91 818 406 
Q 353 903 353 1747 
Q 353 2603 823 3093 
Q 1294 3584 2113 3584 
Q 2378 3584 2631 3529 
Q 2884 3475 3122 3366 
z
" transform="scale(0.015625)"/>
      <path id="DejaVuSans-74" d="M 1172 4494 
L 1172 3500 
L 2356 3500 
L 2356 3053 
L 1172 3053 
L 1172 1153 
Q 1172 725 1289 603 
Q 1406 481 1766 481 
L 2356 481 
L 2356 0 
L 1766 0 
Q 1100 0 847 248 
Q 594 497 594 1153 
L 594 3053 
L 172 3053 
L 172 3500 
L 594 3500 
L 594 4494 
L 1172 4494 
z
" transform="scale(0.015625)"/>
      <path id="DejaVuSans-6f" d="M 1959 3097 
Q 1497 3097 1228 2736 
Q 959 2375 959 1747 
Q 959 1119 1226 758 
Q 1494 397 1959 397 
Q 2419 397 2687 759 
Q 2956 1122 2956 1747 
Q 2956 2369 2687 2733 
Q 2419 3097 1959 3097 
z
M 1959 3584 
Q 2709 3584 3137 3096 
Q 3566 2609 3566 1747 
Q 3566 888 3137 398 
Q 2709 -91 1959 -91 
Q 1206 -91 779 398 
Q 353 888 353 1747 
Q 353 2609 779 3096 
Q 1206 3584 1959 3584 
z
" transform="scale(0.015625)"/>
      <path id="DejaVuSans-6e" d="M 3513 2113 
L 3513 0 
L 2938 0 
L 2938 2094 
Q 2938 2591 2744 2837 
Q 2550 3084 2163 3084 
Q 1697 3084 1428 2787 
Q 1159 2491 1159 1978 
L 1159 0 
L 581 0 
L 581 3500 
L 1159 3500 
L 1159 2956 
Q 1366 3272 1645 3428 
Q 1925 3584 2291 3584 
Q 2894 3584 3203 3211 
Q 3513 2838 3513 2113 
z
" transform="scale(0.015625)"/>
      <path id="DejaVuSans-20" transform="scale(0.015625)"/>
      <path id="DejaVuSans-45" d="M 628 4666 
L 3578 4666 
L 3578 4134 
L 1259 4134 
L 1259 2753 
L 3481 2753 
L 3481 2222 
L 1259 2222 
L 1259 531 
L 3634 531 
L 3634 0 
L 628 0 
L 628 4666 
z
" transform="scale(0.015625)"/>
     </defs>
     <use xlink:href="#DejaVuSans-50"/>
     <use xlink:href="#DejaVuSans-72" x="58.552734"/>
     <use xlink:href="#DejaVuSans-65" x="97.416016"/>
     <use xlink:href="#DejaVuSans-64" x="158.939453"/>
     <use xlink:href="#DejaVuSans-69" x="222.416016"/>
     <use xlink:href="#DejaVuSans-63" x="250.199219"/>
     <use xlink:href="#DejaVuSans-74" x="305.179688"/>
     <use xlink:href="#DejaVuSans-69" x="344.388672"/>
     <use xlink:href="#DejaVuSans-6f" x="372.171875"/>
     <use xlink:href="#DejaVuSans-6e" x="433.353516"/>
     <use xlink:href="#DejaVuSans-20" x="496.732422"/>
     <use xlink:href="#DejaVuSans-45" x="528.519531"/>
     <use xlink:href="#DejaVuSans-72" x="591.703125"/>
     <use xlink:href="#DejaVuSans-72" x="631.066406"/>
     <use xlink:href="#DejaVuSans-6f" x="669.929688"/>
     <use xlink:href="#DejaVuSans-72" x="731.111328"/>
    </g>
   </g>
   <g id="legend_1">
    <g id="patch_7">
     <path d="M 234.342187 315.4 
L 317 315.4 
Q 319 315.4 319 313.4 
L 319 285.04375 
Q 319 283.04375 317 283.04375 
L 234.342187 283.04375 
Q 232.342187 283.04375 232.342187 285.04375 
L 232.342187 313.4 
Q 232.342187 315.4 234.342187 315.4 
z
" style="fill: #ffffff; opacity: 0.8; stroke: #cccccc; stroke-linejoin: miter"/>
    </g>
    <g id="line2d_54">
     <path d="M 236.342187 291.142187 
L 246.342187 291.142187 
L 256.342188 291.142187 
" style="fill: none; stroke: #1f77b4; stroke-width: 1.5; stroke-linecap: square"/>
    </g>
    <g id="text_12">
     <!-- train error -->
     <g transform="translate(264.342188 294.642187)scale(0.1 -0.1)">
      <defs>
       <path id="DejaVuSans-61" d="M 2194 1759 
Q 1497 1759 1228 1600 
Q 959 1441 959 1056 
Q 959 750 1161 570 
Q 1363 391 1709 391 
Q 2188 391 2477 730 
Q 2766 1069 2766 1631 
L 2766 1759 
L 2194 1759 
z
M 3341 1997 
L 3341 0 
L 2766 0 
L 2766 531 
Q 2569 213 2275 61 
Q 1981 -91 1556 -91 
Q 1019 -91 701 211 
Q 384 513 384 1019 
Q 384 1609 779 1909 
Q 1175 2209 1959 2209 
L 2766 2209 
L 2766 2266 
Q 2766 2663 2505 2880 
Q 2244 3097 1772 3097 
Q 1472 3097 1187 3025 
Q 903 2953 641 2809 
L 641 3341 
Q 956 3463 1253 3523 
Q 1550 3584 1831 3584 
Q 2591 3584 2966 3190 
Q 3341 2797 3341 1997 
z
" transform="scale(0.015625)"/>
      </defs>
      <use xlink:href="#DejaVuSans-74"/>
      <use xlink:href="#DejaVuSans-72" x="39.208984"/>
      <use xlink:href="#DejaVuSans-61" x="80.322266"/>
      <use xlink:href="#DejaVuSans-69" x="141.601562"/>
      <use xlink:href="#DejaVuSans-6e" x="169.384766"/>
      <use xlink:href="#DejaVuSans-20" x="232.763672"/>
      <use xlink:href="#DejaVuSans-65" x="264.550781"/>
      <use xlink:href="#DejaVuSans-72" x="326.074219"/>
      <use xlink:href="#DejaVuSans-72" x="365.4375"/>
      <use xlink:href="#DejaVuSans-6f" x="404.300781"/>
      <use xlink:href="#DejaVuSans-72" x="465.482422"/>
     </g>
    </g>
    <g id="line2d_55">
     <path d="M 236.342187 305.820312 
L 246.342187 305.820312 
L 256.342188 305.820312 
" style="fill: none; stroke: #ff7f0e; stroke-width: 1.5; stroke-linecap: square"/>
    </g>
    <g id="text_13">
     <!-- test error -->
     <g transform="translate(264.342188 309.320312)scale(0.1 -0.1)">
      <defs>
       <path id="DejaVuSans-73" d="M 2834 3397 
L 2834 2853 
Q 2591 2978 2328 3040 
Q 2066 3103 1784 3103 
Q 1356 3103 1142 2972 
Q 928 2841 928 2578 
Q 928 2378 1081 2264 
Q 1234 2150 1697 2047 
L 1894 2003 
Q 2506 1872 2764 1633 
Q 3022 1394 3022 966 
Q 3022 478 2636 193 
Q 2250 -91 1575 -91 
Q 1294 -91 989 -36 
Q 684 19 347 128 
L 347 722 
Q 666 556 975 473 
Q 1284 391 1588 391 
Q 1994 391 2212 530 
Q 2431 669 2431 922 
Q 2431 1156 2273 1281 
Q 2116 1406 1581 1522 
L 1381 1569 
Q 847 1681 609 1914 
Q 372 2147 372 2553 
Q 372 3047 722 3315 
Q 1072 3584 1716 3584 
Q 2034 3584 2315 3537 
Q 2597 3491 2834 3397 
z
" transform="scale(0.015625)"/>
      </defs>
      <use xlink:href="#DejaVuSans-74"/>
      <use xlink:href="#DejaVuSans-65" x="39.208984"/>
      <use xlink:href="#DejaVuSans-73" x="100.732422"/>
      <use xlink:href="#DejaVuSans-74" x="152.832031"/>
      <use xlink:href="#DejaVuSans-20" x="192.041016"/>
      <use xlink:href="#DejaVuSans-65" x="223.828125"/>
      <use xlink:href="#DejaVuSans-72" x="285.351562"/>
      <use xlink:href="#DejaVuSans-72" x="324.714844"/>
      <use xlink:href="#DejaVuSans-6f" x="363.578125"/>
      <use xlink:href="#DejaVuSans-72" x="424.759766"/>
     </g>
    </g>
   </g>
  </g>
 </g>
 <defs>
  <clipPath id="p752d3c761e">
   <rect x="45" y="43.2" width="279" height="277.2"/>
  </clipPath>
 </defs>
</svg>
