<?xml version="1.0" encoding="utf-8" standalone="no"?>
<!DOCTYPE svg PUBLIC "-//W3C//DTD SVG 1.1//EN"
  "http://www.w3.org/Graphics/SVG/1.1/DTD/svg11.dtd">
<svg xmlns:xlink="http://www.w3.org/1999/xlink" width="360pt" height="360pt" viewBox="0 0 360 360" xmlns="http://www.w3.org/2000/svg" version="1.1">
 <metadata>
  <rdf:RDF xmlns:dc="http://purl.org/dc/elements/1.1/" xmlns:cc="http://creativecommons.org/ns#" xmlns:rdf="http://www.w3.org/1999/02/22-rdf-syntax-ns#">
   <cc:Work>
    <dc:type rdf:resource="http://purl.org/dc/dcmitype/StillImage"/>
    <dc:date>2022-11-10T22:46:11.338593</dc:date>
    <dc:format>image/svg+xml</dc:format>
    <dc:creator>
     <cc:Agent>
      <dc:title>Matplotlib v3.5.3, https://matplotlib.org/</dc:title>
     </cc:Agent>
    </dc:creator>
   </cc:Work>
  </rdf:RDF>
 </metadata>
 <defs>
  <style type="text/css">*{stroke-linejoin: round; stroke-linecap: butt}</style>
 </defs>
 <g id="figure_1">
  <g id="patch_1">
   <path d="M 0 360 
L 360 360 
L 360 0 
L 0 0 
z
" style="fill: #ffffff"/>
  </g>
  <g id="axes_1">
   <g id="patch_2">
    <path d="M 45 320.4 
L 324 320.4 
L 324 43.2 
L 45 43.2 
z
" style="fill: #ffffff"/>
   </g>
   <g id="matplotlib.axis_1">
    <g id="xtick_1">
     <g id="line2d_1">
      <defs>
       <path id="m12ac557ccb" d="M 0 0 
L 0 3.5 
" style="stroke: #000000; stroke-width: 0.8"/>
      </defs>
      <g>
       <use xlink:href="#m12ac557ccb" x="83.045455" y="320.4" style="stroke: #000000; stroke-width: 0.8"/>
      </g>
     </g>
     <g id="text_1">
      <!-- −2 -->
      <g transform="translate(75.674361 334.998438)scale(0.1 -0.1)">
       <defs>
        <path id="DejaVuSans-2212" d="M 678 2272 
L 4684 2272 
L 4684 1741 
L 678 1741 
L 678 2272 
z
" transform="scale(0.015625)"/>
        <path id="DejaVuSans-32" d="M 1228 531 
L 3431 531 
L 3431 0 
L 469 0 
L 469 531 
Q 828 903 1448 1529 
Q 2069 2156 2228 2338 
Q 2531 2678 2651 2914 
Q 2772 3150 2772 3378 
Q 2772 3750 2511 3984 
Q 2250 4219 1831 4219 
Q 1534 4219 1204 4116 
Q 875 4013 500 3803 
L 500 4441 
Q 881 4594 1212 4672 
Q 1544 4750 1819 4750 
Q 2544 4750 2975 4387 
Q 3406 4025 3406 3419 
Q 3406 3131 3298 2873 
Q 3191 2616 2906 2266 
Q 2828 2175 2409 1742 
Q 1991 1309 1228 531 
z
" transform="scale(0.015625)"/>
       </defs>
       <use xlink:href="#DejaVuSans-2212"/>
       <use xlink:href="#DejaVuSans-32" x="83.789062"/>
      </g>
     </g>
    </g>
    <g id="xtick_2">
     <g id="line2d_2">
      <g>
       <use xlink:href="#m12ac557ccb" x="133.772727" y="320.4" style="stroke: #000000; stroke-width: 0.8"/>
      </g>
     </g>
     <g id="text_2">
      <!-- −1 -->
      <g transform="translate(126.401634 334.998438)scale(0.1 -0.1)">
       <defs>
        <path id="DejaVuSans-31" d="M 794 531 
L 1825 531 
L 1825 4091 
L 703 3866 
L 703 4441 
L 1819 4666 
L 2450 4666 
L 2450 531 
L 3481 531 
L 3481 0 
L 794 0 
L 794 531 
z
" transform="scale(0.015625)"/>
       </defs>
       <use xlink:href="#DejaVuSans-2212"/>
       <use xlink:href="#DejaVuSans-31" x="83.789062"/>
      </g>
     </g>
    </g>
    <g id="xtick_3">
     <g id="line2d_3">
      <g>
       <use xlink:href="#m12ac557ccb" x="184.5" y="320.4" style="stroke: #000000; stroke-width: 0.8"/>
      </g>
     </g>
     <g id="text_3">
      <!-- 0 -->
      <g transform="translate(181.31875 334.998438)scale(0.1 -0.1)">
       <defs>
        <path id="DejaVuSans-30" d="M 2034 4250 
Q 1547 4250 1301 3770 
Q 1056 3291 1056 2328 
Q 1056 1369 1301 889 
Q 1547 409 2034 409 
Q 2525 409 2770 889 
Q 3016 1369 3016 2328 
Q 3016 3291 2770 3770 
Q 2525 4250 2034 4250 
z
M 2034 4750 
Q 2819 4750 3233 4129 
Q 3647 3509 3647 2328 
Q 3647 1150 3233 529 
Q 2819 -91 2034 -91 
Q 1250 -91 836 529 
Q 422 1150 422 2328 
Q 422 3509 836 4129 
Q 1250 4750 2034 4750 
z
" transform="scale(0.015625)"/>
       </defs>
       <use xlink:href="#DejaVuSans-30"/>
      </g>
     </g>
    </g>
    <g id="xtick_4">
     <g id="line2d_4">
      <g>
       <use xlink:href="#m12ac557ccb" x="235.227273" y="320.4" style="stroke: #000000; stroke-width: 0.8"/>
      </g>
     </g>
     <g id="text_4">
      <!-- 1 -->
      <g transform="translate(232.046023 334.998438)scale(0.1 -0.1)">
       <use xlink:href="#DejaVuSans-31"/>
      </g>
     </g>
    </g>
    <g id="xtick_5">
     <g id="line2d_5">
      <g>
       <use xlink:href="#m12ac557ccb" x="285.954545" y="320.4" style="stroke: #000000; stroke-width: 0.8"/>
      </g>
     </g>
     <g id="text_5">
      <!-- 2 -->
      <g transform="translate(282.773295 334.998438)scale(0.1 -0.1)">
       <use xlink:href="#DejaVuSans-32"/>
      </g>
     </g>
    </g>
   </g>
   <g id="matplotlib.axis_2">
    <g id="ytick_1">
     <g id="line2d_6">
      <defs>
       <path id="mcce8dad123" d="M 0 0 
L -3.5 0 
" style="stroke: #000000; stroke-width: 0.8"/>
      </defs>
      <g>
       <use xlink:href="#mcce8dad123" x="45" y="319.742227" style="stroke: #000000; stroke-width: 0.8"/>
      </g>
     </g>
     <g id="text_6">
      <!-- −0.3 -->
      <g transform="translate(13.717187 323.541446)scale(0.1 -0.1)">
       <defs>
        <path id="DejaVuSans-2e" d="M 684 794 
L 1344 794 
L 1344 0 
L 684 0 
L 684 794 
z
" transform="scale(0.015625)"/>
        <path id="DejaVuSans-33" d="M 2597 2516 
Q 3050 2419 3304 2112 
Q 3559 1806 3559 1356 
Q 3559 666 3084 287 
Q 2609 -91 1734 -91 
Q 1441 -91 1130 -33 
Q 819 25 488 141 
L 488 750 
Q 750 597 1062 519 
Q 1375 441 1716 441 
Q 2309 441 2620 675 
Q 2931 909 2931 1356 
Q 2931 1769 2642 2001 
Q 2353 2234 1838 2234 
L 1294 2234 
L 1294 2753 
L 1863 2753 
Q 2328 2753 2575 2939 
Q 2822 3125 2822 3475 
Q 2822 3834 2567 4026 
Q 2313 4219 1838 4219 
Q 1578 4219 1281 4162 
Q 984 4106 628 3988 
L 628 4550 
Q 988 4650 1302 4700 
Q 1616 4750 1894 4750 
Q 2613 4750 3031 4423 
Q 3450 4097 3450 3541 
Q 3450 3153 3228 2886 
Q 3006 2619 2597 2516 
z
" transform="scale(0.015625)"/>
       </defs>
       <use xlink:href="#DejaVuSans-2212"/>
       <use xlink:href="#DejaVuSans-30" x="83.789062"/>
       <use xlink:href="#DejaVuSans-2e" x="147.412109"/>
       <use xlink:href="#DejaVuSans-33" x="179.199219"/>
      </g>
     </g>
    </g>
    <g id="ytick_2">
     <g id="line2d_7">
      <g>
       <use xlink:href="#mcce8dad123" x="45" y="275.130183" style="stroke: #000000; stroke-width: 0.8"/>
      </g>
     </g>
     <g id="text_7">
      <!-- −0.2 -->
      <g transform="translate(13.717187 278.929402)scale(0.1 -0.1)">
       <use xlink:href="#DejaVuSans-2212"/>
       <use xlink:href="#DejaVuSans-30" x="83.789062"/>
       <use xlink:href="#DejaVuSans-2e" x="147.412109"/>
       <use xlink:href="#DejaVuSans-32" x="179.199219"/>
      </g>
     </g>
    </g>
    <g id="ytick_3">
     <g id="line2d_8">
      <g>
       <use xlink:href="#mcce8dad123" x="45" y="230.518139" style="stroke: #000000; stroke-width: 0.8"/>
      </g>
     </g>
     <g id="text_8">
      <!-- −0.1 -->
      <g transform="translate(13.717187 234.317358)scale(0.1 -0.1)">
       <use xlink:href="#DejaVuSans-2212"/>
       <use xlink:href="#DejaVuSans-30" x="83.789062"/>
       <use xlink:href="#DejaVuSans-2e" x="147.412109"/>
       <use xlink:href="#DejaVuSans-31" x="179.199219"/>
      </g>
     </g>
    </g>
    <g id="ytick_4">
     <g id="line2d_9">
      <g>
       <use xlink:href="#mcce8dad123" x="45" y="185.906095" style="stroke: #000000; stroke-width: 0.8"/>
      </g>
     </g>
     <g id="text_9">
      <!-- 0.0 -->
      <g transform="translate(22.096875 189.705314)scale(0.1 -0.1)">
       <use xlink:href="#DejaVuSans-30"/>
       <use xlink:href="#DejaVuSans-2e" x="63.623047"/>
       <use xlink:href="#DejaVuSans-30" x="95.410156"/>
      </g>
     </g>
    </g>
    <g id="ytick_5">
     <g id="line2d_10">
      <g>
       <use xlink:href="#mcce8dad123" x="45" y="141.294051" style="stroke: #000000; stroke-width: 0.8"/>
      </g>
     </g>
     <g id="text_10">
      <!-- 0.1 -->
      <g transform="translate(22.096875 145.09327)scale(0.1 -0.1)">
       <use xlink:href="#DejaVuSans-30"/>
       <use xlink:href="#DejaVuSans-2e" x="63.623047"/>
       <use xlink:href="#DejaVuSans-31" x="95.410156"/>
      </g>
     </g>
    </g>
    <g id="ytick_6">
     <g id="line2d_11">
      <g>
       <use xlink:href="#mcce8dad123" x="45" y="96.682007" style="stroke: #000000; stroke-width: 0.8"/>
      </g>
     </g>
     <g id="text_11">
      <!-- 0.2 -->
      <g transform="translate(22.096875 100.481226)scale(0.1 -0.1)">
       <use xlink:href="#DejaVuSans-30"/>
       <use xlink:href="#DejaVuSans-2e" x="63.623047"/>
       <use xlink:href="#DejaVuSans-32" x="95.410156"/>
      </g>
     </g>
    </g>
    <g id="ytick_7">
     <g id="line2d_12">
      <g>
       <use xlink:href="#mcce8dad123" x="45" y="52.069963" style="stroke: #000000; stroke-width: 0.8"/>
      </g>
     </g>
     <g id="text_12">
      <!-- 0.3 -->
      <g transform="translate(22.096875 55.869182)scale(0.1 -0.1)">
       <use xlink:href="#DejaVuSans-30"/>
       <use xlink:href="#DejaVuSans-2e" x="63.623047"/>
       <use xlink:href="#DejaVuSans-33" x="95.410156"/>
      </g>
     </g>
    </g>
   </g>
   <g id="line2d_13">
    <path d="M 57.681818 168.231902 
L 60.860219 168.309334 
L 63.402942 168.543631 
L 65.945664 168.990273 
L 67.852697 169.508794 
L 69.759743 170.222684 
L 71.666776 171.168744 
L 73.573821 172.380776 
L 75.480866 173.884648 
L 77.387899 175.688699 
L 79.294932 177.772295 
L 81.837655 180.876872 
L 86.287423 186.404844 
L 88.194462 188.414963 
L 90.101501 190.018689 
L 91.372862 190.829572 
L 92.644224 191.429089 
L 93.915579 191.830914 
L 95.186941 192.056256 
L 97.09398 192.125326 
L 99.001025 191.96577 
L 102.179425 191.447206 
L 107.900543 190.500311 
L 111.714627 190.143866 
L 114.893027 190.056757 
L 118.071428 190.161892 
L 121.249829 190.455928 
L 125.063907 191.044522 
L 129.513669 191.990646 
L 135.87047 193.396892 
L 138.413193 193.742342 
L 140.320232 193.825805 
L 142.227271 193.712283 
L 144.13431 193.370176 
L 146.041349 192.784741 
L 147.948391 191.963042 
L 150.491111 190.557606 
L 154.305195 188.073747 
L 158.119276 185.653474 
L 160.661995 184.316388 
L 162.569035 183.516834 
L 164.476068 182.901864 
L 167.018788 182.355629 
L 169.561514 182.083267 
L 172.104235 182.03201 
L 175.28264 182.204899 
L 179.09672 182.671677 
L 182.910794 183.373992 
L 186.724879 184.324198 
L 189.903285 185.345794 
L 193.081685 186.621381 
L 196.26009 188.185968 
L 199.438491 190.046562 
L 203.252564 192.600488 
L 209.60937 196.944322 
L 212.152088 198.33079 
L 214.05913 199.096654 
L 215.966169 199.566514 
L 217.237528 199.696631 
L 218.508889 199.673596 
L 219.780251 199.497628 
L 221.68729 198.959573 
L 223.594329 198.12787 
L 225.501368 197.059269 
L 228.044088 195.383556 
L 236.307931 189.712794 
L 238.850654 188.290343 
L 241.39337 187.106954 
L 243.936093 186.172903 
L 246.47881 185.487912 
L 249.021533 185.049556 
L 251.56425 184.859953 
L 254.106973 184.927914 
L 256.649689 185.272962 
L 258.556734 185.729891 
L 260.463774 186.37189 
L 262.370813 187.211661 
L 264.277852 188.258107 
L 266.820575 189.96902 
L 269.363297 191.982131 
L 274.448737 196.182698 
L 276.355776 197.407771 
L 277.627138 197.987903 
L 278.898499 198.326852 
L 280.169854 198.393893 
L 281.441222 198.174305 
L 282.712583 197.668686 
L 283.983945 196.899646 
L 285.2553 195.901447 
L 287.162333 194.085505 
L 295.426179 185.614894 
L 297.333212 184.109171 
L 299.240257 182.828406 
L 301.78298 181.426516 
L 304.325703 180.297979 
L 307.504104 179.144574 
L 311.318182 177.967727 
L 311.318182 177.967727 
" clip-path="url(#pd8e57998ad)" style="fill: none; stroke: #1f77b4; stroke-width: 1.5; stroke-linecap: square"/>
   </g>
   <g id="line2d_14">
    <path d="M 57.681818 188.101649 
L 64.038619 188.193866 
L 67.852697 188.424036 
L 71.031098 188.811752 
L 73.573821 189.326168 
L 76.116544 190.104386 
L 78.023577 190.91628 
L 79.930622 191.96815 
L 81.837655 193.296501 
L 83.7447 194.921606 
L 85.651745 196.839742 
L 88.194462 199.782126 
L 96.458302 209.906122 
L 98.365347 211.801177 
L 100.272386 213.419763 
L 102.179425 214.760601 
L 104.086458 215.844763 
L 105.993504 216.702052 
L 108.536226 217.554023 
L 111.078949 218.146674 
L 114.257344 218.62828 
L 118.071428 218.959942 
L 123.792545 219.186597 
L 130.78503 219.236774 
L 135.234792 219.090405 
L 138.413193 218.790471 
L 140.955909 218.34751 
L 143.498632 217.64649 
L 145.405671 216.908264 
L 147.31271 215.961146 
L 149.219749 214.791648 
L 151.126789 213.400971 
L 153.669511 211.23571 
L 156.847915 208.154553 
L 165.111749 199.830522 
L 168.29015 197.064685 
L 170.832874 195.133716 
L 173.375594 193.455248 
L 175.91832 192.009044 
L 179.09672 190.477741 
L 182.910794 188.943951 
L 187.996239 187.190771 
L 196.26009 184.366512 
L 200.709844 182.596952 
L 206.430969 180.036754 
L 211.51641 177.810333 
L 214.05913 176.896884 
L 216.60185 176.221107 
L 218.508889 175.906827 
L 220.415928 175.772596 
L 222.322967 175.81854 
L 224.86569 176.137486 
L 227.408407 176.697846 
L 230.586807 177.627409 
L 249.657211 183.671682 
L 256.014012 185.680057 
L 260.463774 187.317859 
L 264.277852 188.974969 
L 266.820575 190.278299 
L 269.363297 191.830058 
L 271.270337 193.235637 
L 273.177376 194.935088 
L 275.084415 197.021374 
L 276.991454 199.589343 
L 278.898499 202.708811 
L 280.805538 206.39709 
L 282.712583 210.60088 
L 285.2553 216.766117 
L 290.340734 229.215337 
L 292.247779 233.333302 
L 294.154824 236.953721 
L 296.061857 240.029559 
L 297.96889 242.559646 
L 299.875935 244.576573 
L 301.78298 246.133542 
L 303.690025 247.291605 
L 305.597058 248.113582 
L 307.504104 248.659439 
L 309.411149 248.982443 
L 311.318182 249.129097 
L 311.318182 249.129097 
" clip-path="url(#pd8e57998ad)" style="fill: none; stroke: #ff7f0e; stroke-width: 1.5; stroke-linecap: square"/>
   </g>
   <g id="line2d_15">
    <path d="M 57.681818 182.555861 
L 60.224541 182.103285 
L 62.767264 181.413263 
L 64.674309 180.686609 
L 66.581342 179.729019 
L 68.488375 178.484078 
L 70.39542 176.889138 
L 72.302453 174.87704 
L 74.209498 172.384839 
L 76.116544 169.359694 
L 78.023577 165.778991 
L 79.930622 161.663515 
L 82.473333 155.494948 
L 88.83014 139.400687 
L 90.737185 135.296155 
L 92.644224 131.809425 
L 93.915579 129.848972 
L 95.186941 128.171366 
L 96.458302 126.755336 
L 97.729663 125.571916 
L 99.636709 124.161899 
L 101.543748 123.092117 
L 103.450781 122.263647 
L 105.993504 121.394993 
L 111.714627 119.790007 
L 115.528705 118.602722 
L 118.707106 117.362073 
L 121.249829 116.13248 
L 123.792545 114.644829 
L 126.335268 112.868507 
L 128.877991 110.79575 
L 132.056391 107.840432 
L 138.413193 101.664024 
L 140.320232 100.186338 
L 141.59159 99.431988 
L 142.862951 98.919311 
L 144.13431 98.69691 
L 145.405671 98.808805 
L 146.67703 99.292205 
L 147.948391 100.174777 
L 149.219749 101.471309 
L 150.491111 103.182811 
L 151.762469 105.295589 
L 153.033831 107.781196 
L 154.940876 112.115137 
L 156.847915 117.01101 
L 160.661995 127.642325 
L 164.476068 138.076976 
L 167.018788 144.352198 
L 168.925829 148.569031 
L 170.832874 152.335928 
L 172.739914 155.657365 
L 174.64696 158.558257 
L 176.554 161.076918 
L 178.46104 163.259274 
L 180.368073 165.154407 
L 182.910794 167.319766 
L 185.453519 169.175366 
L 188.631919 171.219176 
L 196.895771 176.335681 
L 200.074164 178.650649 
L 202.616884 180.761893 
L 205.159609 183.129075 
L 208.33801 186.421309 
L 217.873208 196.735392 
L 219.780251 198.405808 
L 221.68729 199.812767 
L 223.594329 200.930014 
L 225.501368 201.753511 
L 227.408407 202.300979 
L 229.315449 202.606567 
L 231.222488 202.715233 
L 233.765208 202.641159 
L 238.214976 202.225884 
L 242.664732 201.855314 
L 245.843132 201.793825 
L 249.021533 201.981386 
L 251.56425 202.346149 
L 254.106973 202.931143 
L 256.649689 203.768972 
L 259.192412 204.901229 
L 261.099451 205.974564 
L 263.00649 207.268384 
L 264.913529 208.809771 
L 266.820575 210.622506 
L 268.72762 212.724069 
L 270.634659 215.116525 
L 273.177376 218.718582 
L 276.355776 223.680541 
L 280.805538 230.629013 
L 283.348261 234.119168 
L 285.2553 236.374849 
L 287.162333 238.303536 
L 289.069378 239.930705 
L 290.976411 241.30309 
L 293.519146 242.833256 
L 296.697535 244.427409 
L 300.511613 246.078126 
L 305.597058 248.045934 
L 311.318182 250.033186 
L 311.318182 250.033186 
" clip-path="url(#pd8e57998ad)" style="fill: none; stroke: #2ca02c; stroke-width: 1.5; stroke-linecap: square"/>
   </g>
   <g id="line2d_16">
    <path d="M 57.681818 228.506552 
L 62.767264 227.968524 
L 66.581342 227.33664 
L 69.759743 226.571462 
L 72.302453 225.748528 
L 74.845188 224.699742 
L 77.387899 223.414383 
L 80.566299 221.529475 
L 85.651745 218.442787 
L 87.558784 217.523648 
L 89.465823 216.853208 
L 91.372862 216.468895 
L 93.279902 216.368962 
L 95.186941 216.514414 
L 97.729663 216.987058 
L 101.543748 218.001776 
L 115.528705 222.131593 
L 118.707106 223.34597 
L 121.885506 224.83159 
L 124.428223 226.265294 
L 126.970946 227.945262 
L 129.513669 229.877076 
L 132.692069 232.600216 
L 139.684551 238.79079 
L 141.59159 240.104181 
L 142.862951 240.775009 
L 144.13431 241.238281 
L 145.405671 241.459038 
L 146.67703 241.407483 
L 147.948391 241.060601 
L 149.219749 240.404833 
L 150.491111 239.437386 
L 151.762469 238.166718 
L 153.033831 236.612962 
L 154.940876 233.820343 
L 156.847915 230.597417 
L 160.026315 224.708342 
L 163.840395 217.668631 
L 166.383109 213.424945 
L 168.29015 210.590334 
L 170.197195 208.081205 
L 172.104235 205.895171 
L 174.011274 204.012592 
L 175.91832 202.402902 
L 177.82536 201.029434 
L 180.368073 199.498564 
L 182.910794 198.227854 
L 186.724879 196.62563 
L 195.62441 193.058393 
L 198.802811 191.475602 
L 201.345524 189.993643 
L 203.888245 188.29306 
L 207.06665 185.859632 
L 210.88073 182.578333 
L 217.873208 176.436309 
L 220.415928 174.517269 
L 222.958648 172.906501 
L 224.86569 171.923289 
L 226.772729 171.132019 
L 229.315449 170.348461 
L 231.858169 169.819681 
L 235.036569 169.404188 
L 246.47881 168.178225 
L 249.657211 167.458868 
L 252.199933 166.642753 
L 254.74265 165.551158 
L 256.649689 164.510613 
L 258.556734 163.242434 
L 260.463774 161.708717 
L 262.370813 159.866694 
L 264.277852 157.672832 
L 266.184897 155.084409 
L 268.091936 152.067568 
L 269.998975 148.60044 
L 271.906014 144.687392 
L 274.448737 138.840381 
L 277.627138 130.80261 
L 283.348261 116.144287 
L 285.890984 110.340982 
L 287.798011 106.473779 
L 289.705056 103.068279 
L 291.612101 100.132819 
L 293.519146 97.650616 
L 295.426179 95.592527 
L 297.333212 93.920026 
L 299.240257 92.591186 
L 301.14729 91.56363 
L 303.054336 90.796261 
L 304.961381 90.250744 
L 307.504104 89.806975 
L 310.046826 89.619392 
L 311.318182 89.601438 
L 311.318182 89.601438 
" clip-path="url(#pd8e57998ad)" style="fill: none; stroke: #d62728; stroke-width: 1.5; stroke-linecap: square"/>
   </g>
   <g id="line2d_17">
    <path d="M 57.681818 179.815727 
L 60.860219 180.496665 
L 63.402942 181.285754 
L 65.309987 182.070206 
L 67.21702 183.064554 
L 69.124053 184.313218 
L 71.031098 185.863784 
L 72.938143 187.760796 
L 74.845188 190.03825 
L 76.752221 192.704567 
L 78.659254 195.730968 
L 81.837655 201.323747 
L 85.016061 206.919419 
L 86.923101 209.852198 
L 88.194462 211.499438 
L 89.465823 212.849264 
L 90.737185 213.878394 
L 92.00854 214.585412 
L 93.279902 214.988471 
L 94.551263 215.122404 
L 95.822624 215.032091 
L 97.729663 214.583671 
L 100.272386 213.650066 
L 106.629181 211.14934 
L 109.807588 210.166797 
L 113.621666 209.217049 
L 120.614145 207.766715 
L 136.50615 204.6491 
L 139.04887 204.427556 
L 141.59159 204.415271 
L 144.13431 204.649483 
L 146.67703 205.135649 
L 149.219749 205.837366 
L 154.305195 207.550986 
L 157.483596 208.52879 
L 160.026315 209.12012 
L 162.569035 209.497903 
L 165.111749 209.663925 
L 168.29015 209.623969 
L 172.739914 209.281245 
L 181.003753 208.564063 
L 184.817839 208.468201 
L 187.996239 208.589997 
L 191.174644 208.944746 
L 193.717365 209.429478 
L 196.26009 210.120973 
L 198.802811 211.042293 
L 201.345524 212.207986 
L 203.888245 213.615447 
L 207.06665 215.665343 
L 215.330489 221.239674 
L 217.237528 222.197969 
L 219.14457 222.899635 
L 221.051609 223.302688 
L 222.958648 223.387476 
L 224.86569 223.158114 
L 226.772729 222.641262 
L 228.679768 221.87995 
L 231.222488 220.578275 
L 235.036569 218.27998 
L 241.39337 214.388103 
L 245.207455 212.331811 
L 249.021533 210.559435 
L 252.835611 209.072826 
L 256.014012 208.05788 
L 259.192412 207.275048 
L 261.735129 206.854232 
L 264.277852 206.663495 
L 266.184897 206.703419 
L 268.091936 206.926407 
L 269.998975 207.351568 
L 271.906014 207.9909 
L 273.813059 208.842953 
L 276.355776 210.279604 
L 279.534177 212.416312 
L 284.619622 215.918018 
L 287.162333 217.348032 
L 289.069378 218.173858 
L 290.976411 218.758517 
L 292.883456 219.100198 
L 294.790502 219.214582 
L 296.697535 219.13015 
L 299.240257 218.772854 
L 302.418658 218.064027 
L 311.318182 215.693123 
L 311.318182 215.693123 
" clip-path="url(#pd8e57998ad)" style="fill: none; stroke: #9467bd; stroke-width: 1.5; stroke-linecap: square"/>
   </g>
   <g id="line2d_18">
    <path d="M 57.681818 103.456165 
L 61.495896 103.218485 
L 64.674309 102.789245 
L 67.21702 102.236878 
L 69.759743 101.453852 
L 72.302453 100.415001 
L 75.480866 98.797618 
L 79.294932 96.783584 
L 81.201977 96.076438 
L 82.473333 95.862094 
L 83.7447 95.943441 
L 85.016061 96.395081 
L 86.287423 97.282737 
L 87.558784 98.653187 
L 88.83014 100.528374 
L 90.101501 102.894087 
L 91.372862 105.708431 
L 93.279902 110.602897 
L 96.458302 119.702751 
L 99.636709 128.596614 
L 101.543748 133.341188 
L 103.450781 137.484994 
L 105.35782 140.996917 
L 107.264859 143.904361 
L 109.171904 146.267075 
L 111.078949 148.159875 
L 112.985988 149.659477 
L 114.893027 150.836423 
L 116.800067 151.752031 
L 118.707106 152.457528 
L 121.249829 153.140988 
L 123.792545 153.596702 
L 126.970946 153.924737 
L 130.78503 154.054835 
L 135.234792 153.964945 
L 142.227271 153.782346 
L 144.769991 153.917082 
L 147.31271 154.283323 
L 149.219749 154.751183 
L 151.126789 155.404332 
L 153.033831 156.2456 
L 155.576557 157.634841 
L 158.754957 159.69723 
L 168.29015 166.219245 
L 171.468555 168.031694 
L 174.64696 169.582185 
L 177.82536 170.896948 
L 181.639433 172.235861 
L 187.996239 174.170641 
L 193.717365 175.963909 
L 197.53145 177.36572 
L 201.345524 179.018004 
L 205.159609 180.928948 
L 214.694811 185.903412 
L 217.237528 186.867025 
L 219.14457 187.383299 
L 221.051609 187.700092 
L 222.958648 187.813545 
L 224.86569 187.736123 
L 227.408407 187.382183 
L 230.586807 186.663326 
L 238.850654 184.612934 
L 242.029054 184.129949 
L 244.571771 183.948886 
L 247.114494 183.975009 
L 249.657211 184.230675 
L 252.199933 184.743889 
L 254.106973 185.321458 
L 256.014012 186.089689 
L 257.921051 187.077834 
L 259.82809 188.322329 
L 261.735129 189.863848 
L 263.642174 191.746597 
L 265.549213 194.011127 
L 267.456258 196.685563 
L 269.363297 199.771974 
L 271.906014 204.456178 
L 279.534177 219.260052 
L 281.441222 222.127343 
L 282.712583 223.710063 
L 283.983945 225.034042 
L 285.2553 226.12716 
L 287.162333 227.437238 
L 292.883456 230.872712 
L 294.790502 232.421938 
L 296.697535 234.328417 
L 298.60458 236.602658 
L 300.511613 239.2179 
L 303.054336 243.139284 
L 306.232736 248.51387 
L 311.318182 257.482878 
L 311.318182 257.482878 
" clip-path="url(#pd8e57998ad)" style="fill: none; stroke: #8c564b; stroke-width: 1.5; stroke-linecap: square"/>
   </g>
   <g id="line2d_19">
    <path d="M 57.681818 143.326911 
L 60.860219 144.013806 
L 63.402942 144.807149 
L 65.309987 145.595855 
L 67.21702 146.598075 
L 69.124053 147.863544 
L 71.031098 149.447933 
L 72.938143 151.410466 
L 74.845188 153.806408 
L 76.752221 156.677794 
L 78.659254 160.043919 
L 80.566299 163.885191 
L 83.109022 169.612094 
L 90.101501 186.064311 
L 92.00854 189.902934 
L 93.915579 193.237145 
L 95.822624 196.048138 
L 97.729663 198.36506 
L 99.636709 200.246033 
L 101.543748 201.764285 
L 103.450781 202.990916 
L 105.35782 203.990323 
L 107.900543 205.062737 
L 111.078949 206.128408 
L 116.800067 207.724175 
L 121.885506 209.230207 
L 125.063907 210.379367 
L 128.242307 211.76909 
L 131.420714 213.436257 
L 134.599111 215.367319 
L 142.862951 220.608455 
L 144.769991 221.484539 
L 146.67703 222.067852 
L 147.948391 222.257625 
L 149.219749 222.267799 
L 150.491111 222.087388 
L 151.762469 221.711502 
L 153.033831 221.142139 
L 154.305195 220.388331 
L 156.212234 218.947219 
L 158.119276 217.200327 
L 160.661995 214.551381 
L 168.29015 206.351752 
L 170.832874 204.0057 
L 173.375594 201.954774 
L 175.91832 200.195489 
L 178.46104 198.699772 
L 181.639433 197.136651 
L 184.817839 195.828373 
L 189.2676 194.255303 
L 201.981204 189.923215 
L 210.245049 186.961978 
L 213.42345 186.065385 
L 215.966169 185.549414 
L 218.508889 185.245188 
L 221.051609 185.151838 
L 224.230009 185.282011 
L 229.315449 185.784237 
L 233.765208 186.164245 
L 236.943615 186.244421 
L 240.122015 186.096651 
L 242.664732 185.786623 
L 245.207455 185.283279 
L 247.750171 184.561178 
L 250.292894 183.583039 
L 252.199933 182.651402 
L 254.106973 181.518328 
L 256.014012 180.147591 
L 257.921051 178.494574 
L 259.82809 176.505408 
L 261.735129 174.115789 
L 263.642174 171.253774 
L 265.549213 167.84137 
L 267.456258 163.800313 
L 269.363297 159.063882 
L 271.270337 153.588068 
L 273.177376 147.3698 
L 275.084415 140.466358 
L 277.627138 130.416936 
L 285.2553 99.489193 
L 287.162333 92.769897 
L 289.069378 86.740178 
L 290.976411 81.428262 
L 292.883456 76.812558 
L 294.790502 72.840459 
L 296.697535 69.443872 
L 298.60458 66.549702 
L 300.511613 64.089921 
L 302.418658 62.002752 
L 304.325703 60.234545 
L 306.232736 58.739012 
L 308.139781 57.476202 
L 310.682504 56.09803 
L 311.318182 55.8 
L 311.318182 55.8 
" clip-path="url(#pd8e57998ad)" style="fill: none; stroke: #e377c2; stroke-width: 1.5; stroke-linecap: square"/>
   </g>
   <g id="line2d_20">
    <path d="M 57.681818 289.89738 
L 59.588863 289.033135 
L 61.495896 287.889175 
L 63.402942 286.3896 
L 64.674309 285.148446 
L 65.945664 283.67895 
L 67.21702 281.945929 
L 68.488375 279.913069 
L 69.759743 277.541016 
L 71.031098 274.791246 
L 72.302453 271.624765 
L 73.573821 268.007005 
L 74.845188 263.910823 
L 76.752221 256.841486 
L 78.659254 248.685476 
L 80.566299 239.5853 
L 83.7447 223.1479 
L 86.923101 206.983046 
L 88.83014 198.395999 
L 90.101501 193.385091 
L 91.372862 189.023415 
L 92.644224 185.329786 
L 93.915579 182.286448 
L 95.186941 179.843344 
L 96.458302 177.928178 
L 97.729663 176.462044 
L 99.001025 175.360555 
L 100.272386 174.548513 
L 101.543748 173.95826 
L 103.450781 173.371075 
L 105.35782 173.02323 
L 107.900543 172.780354 
L 111.714627 172.681362 
L 116.164389 172.823631 
L 119.978467 173.163318 
L 123.156868 173.637322 
L 126.335268 174.333098 
L 128.877991 175.087587 
L 131.420714 176.050851 
L 133.963431 177.25017 
L 136.50615 178.70135 
L 139.04887 180.398654 
L 142.227271 182.805594 
L 149.85543 188.787339 
L 152.39815 190.384494 
L 154.305195 191.33094 
L 156.212234 192.035018 
L 158.119276 192.492747 
L 160.026315 192.717342 
L 161.933355 192.735192 
L 164.476068 192.497332 
L 167.654469 191.902066 
L 172.104235 190.770296 
L 180.368073 188.371676 
L 185.453519 186.698949 
L 189.2676 185.193753 
L 192.446005 183.671225 
L 194.98873 182.221808 
L 197.53145 180.529739 
L 200.074164 178.573535 
L 202.616884 176.352359 
L 205.79529 173.250616 
L 215.330489 163.5709 
L 217.237528 162.015828 
L 219.14457 160.715522 
L 221.051609 159.696922 
L 222.958648 158.965796 
L 224.86569 158.50738 
L 226.772729 158.290686 
L 228.679768 158.273227 
L 231.222488 158.479412 
L 235.036569 159.069628 
L 243.936093 160.570221 
L 248.385855 161.06496 
L 252.199933 161.280389 
L 255.378334 161.268447 
L 258.556734 161.017445 
L 261.099451 160.583477 
L 263.642174 159.877437 
L 265.549213 159.130606 
L 267.456258 158.170684 
L 269.363297 156.981791 
L 271.270337 155.565842 
L 273.813059 153.369919 
L 282.712583 145.220892 
L 284.619622 143.881915 
L 287.162333 142.407357 
L 290.340734 140.91861 
L 297.96889 137.555144 
L 301.78298 135.556235 
L 306.868426 132.602247 
L 311.318182 129.959967 
L 311.318182 129.959967 
" clip-path="url(#pd8e57998ad)" style="fill: none; stroke: #7f7f7f; stroke-width: 1.5; stroke-linecap: square"/>
   </g>
   <g id="line2d_21">
    <path d="M 57.681818 218.236315 
L 60.860219 218.646665 
L 63.402942 219.165165 
L 65.945664 219.915367 
L 67.852697 220.669165 
L 69.759743 221.622372 
L 71.666776 222.802857 
L 73.573821 224.231445 
L 75.480866 225.912944 
L 78.023577 228.504255 
L 84.380384 235.341975 
L 85.651745 236.397993 
L 86.923101 237.226309 
L 88.194462 237.789918 
L 89.465823 238.066856 
L 90.737185 238.05405 
L 92.00854 237.767316 
L 93.279902 237.239642 
L 95.186941 236.095118 
L 97.729663 234.179239 
L 102.179425 230.713303 
L 104.722142 229.007484 
L 107.264859 227.564787 
L 110.443266 226.068099 
L 114.893027 224.286254 
L 119.978467 222.204717 
L 123.156868 220.630055 
L 125.699584 219.110627 
L 128.242307 217.294829 
L 130.78503 215.134125 
L 133.327753 212.601833 
L 135.87047 209.706949 
L 139.04887 205.676236 
L 145.405671 197.400684 
L 147.31271 195.277985 
L 149.219749 193.501897 
L 150.491111 192.549447 
L 151.762469 191.800385 
L 153.033831 191.26224 
L 154.305195 190.934816 
L 155.576557 190.810198 
L 156.847915 190.87433 
L 158.119276 191.107577 
L 160.026315 191.722844 
L 161.933355 192.57921 
L 165.111749 194.312282 
L 170.832874 197.529179 
L 174.011274 199.056643 
L 177.18968 200.320272 
L 180.368073 201.327403 
L 183.546474 202.108866 
L 187.360559 202.79797 
L 191.174644 203.260659 
L 194.98873 203.522488 
L 198.802811 203.589835 
L 203.252564 203.431872 
L 213.42345 202.843706 
L 215.966169 203.026543 
L 217.873208 203.368666 
L 219.780251 203.922425 
L 221.68729 204.705297 
L 223.594329 205.717404 
L 225.501368 206.940987 
L 228.044088 208.841478 
L 231.858169 212.03965 
L 237.579292 216.854394 
L 240.757693 219.235306 
L 243.936093 221.317551 
L 247.114494 223.109774 
L 250.928572 224.962412 
L 259.82809 229.085863 
L 262.370813 230.597744 
L 264.277852 231.963174 
L 266.184897 233.596315 
L 268.091936 235.564992 
L 269.998975 237.938385 
L 271.906014 240.778349 
L 273.813059 244.131245 
L 275.720098 248.013058 
L 277.627138 252.396612 
L 280.169854 258.882759 
L 288.433701 280.897781 
L 290.340734 285.269275 
L 292.247779 289.178555 
L 294.154824 292.609647 
L 296.061857 295.579547 
L 297.96889 298.123675 
L 299.875935 300.288872 
L 301.78298 302.123662 
L 303.690025 303.674419 
L 305.597058 304.983114 
L 308.139781 306.414638 
L 310.682504 307.553875 
L 311.318182 307.8 
L 311.318182 307.8 
" clip-path="url(#pd8e57998ad)" style="fill: none; stroke: #bcbd22; stroke-width: 1.5; stroke-linecap: square"/>
   </g>
   <g id="line2d_22">
    <path d="M 57.681818 156.932492 
L 60.860219 157.736812 
L 63.402942 158.63269 
L 65.309987 159.500955 
L 67.21702 160.578693 
L 69.124053 161.905215 
L 71.031098 163.517684 
L 72.938143 165.440224 
L 74.845188 167.674919 
L 77.387899 171.06572 
L 81.837655 177.242009 
L 83.109022 178.727863 
L 84.380384 179.926217 
L 85.651745 180.743982 
L 86.287423 180.986267 
L 86.923101 181.106 
L 87.558784 181.096949 
L 88.194462 180.955485 
L 88.83014 180.679047 
L 90.101501 179.72686 
L 91.372862 178.269012 
L 92.644224 176.368244 
L 94.551263 172.884061 
L 97.729663 166.256449 
L 100.272386 161.064798 
L 102.179425 157.577642 
L 104.086458 154.556389 
L 105.993504 152.02744 
L 107.900543 149.968356 
L 109.807588 148.329084 
L 111.714627 147.048979 
L 113.621666 146.066598 
L 115.528705 145.32557 
L 118.071428 144.630432 
L 120.614145 144.187407 
L 123.792545 143.886521 
L 127.606623 143.782896 
L 132.056391 143.908262 
L 136.50615 144.241283 
L 140.955909 144.775333 
L 145.405671 145.53797 
L 149.219749 146.3982 
L 153.669511 147.633028 
L 167.654469 151.76121 
L 172.104235 152.683716 
L 176.554 153.35435 
L 181.003753 153.806243 
L 186.089199 154.092658 
L 191.174644 154.142412 
L 195.62441 153.965775 
L 199.438491 153.619384 
L 203.252564 153.075369 
L 207.702329 152.222394 
L 214.694811 150.825507 
L 217.873208 150.447795 
L 220.415928 150.372564 
L 222.958648 150.532534 
L 225.501368 150.924143 
L 228.679768 151.685157 
L 233.129527 153.052206 
L 239.486331 155.030528 
L 243.300416 155.989628 
L 246.47881 156.591369 
L 249.657211 156.988189 
L 252.835611 157.154456 
L 255.378334 157.095465 
L 257.921051 156.831806 
L 260.463774 156.320506 
L 262.370813 155.742613 
L 264.277852 154.971946 
L 266.184897 153.988015 
L 268.091936 152.779246 
L 269.998975 151.350573 
L 272.541698 149.159146 
L 278.898499 143.444826 
L 280.805538 142.098286 
L 282.712583 141.056765 
L 284.619622 140.317252 
L 286.526655 139.819344 
L 294.154824 138.187006 
L 296.061857 137.437804 
L 297.96889 136.473215 
L 299.875935 135.300729 
L 302.418658 133.454281 
L 305.597058 130.804961 
L 310.682504 126.179174 
L 311.318182 125.593537 
L 311.318182 125.593537 
" clip-path="url(#pd8e57998ad)" style="fill: none; stroke: #17becf; stroke-width: 1.5; stroke-linecap: square"/>
   </g>
   <g id="patch_3">
    <path d="M 45 320.4 
L 45 43.2 
" style="fill: none; stroke: #000000; stroke-width: 0.8; stroke-linejoin: miter; stroke-linecap: square"/>
   </g>
   <g id="patch_4">
    <path d="M 324 320.4 
L 324 43.2 
" style="fill: none; stroke: #000000; stroke-width: 0.8; stroke-linejoin: miter; stroke-linecap: square"/>
   </g>
   <g id="patch_5">
    <path d="M 45 320.4 
L 324 320.4 
" style="fill: none; stroke: #000000; stroke-width: 0.8; stroke-linejoin: miter; stroke-linecap: square"/>
   </g>
   <g id="patch_6">
    <path d="M 45 43.2 
L 324 43.2 
" style="fill: none; stroke: #000000; stroke-width: 0.8; stroke-linejoin: miter; stroke-linecap: square"/>
   </g>
   <g id="text_13">
    <!-- Single Draw Deviation -->
    <g transform="translate(117.87 37.2)scale(0.12 -0.12)">
     <defs>
      <path id="DejaVuSans-53" d="M 3425 4513 
L 3425 3897 
Q 3066 4069 2747 4153 
Q 2428 4238 2131 4238 
Q 1616 4238 1336 4038 
Q 1056 3838 1056 3469 
Q 1056 3159 1242 3001 
Q 1428 2844 1947 2747 
L 2328 2669 
Q 3034 2534 3370 2195 
Q 3706 1856 3706 1288 
Q 3706 609 3251 259 
Q 2797 -91 1919 -91 
Q 1588 -91 1214 -16 
Q 841 59 441 206 
L 441 856 
Q 825 641 1194 531 
Q 1563 422 1919 422 
Q 2459 422 2753 634 
Q 3047 847 3047 1241 
Q 3047 1584 2836 1778 
Q 2625 1972 2144 2069 
L 1759 2144 
Q 1053 2284 737 2584 
Q 422 2884 422 3419 
Q 422 4038 858 4394 
Q 1294 4750 2059 4750 
Q 2388 4750 2728 4690 
Q 3069 4631 3425 4513 
z
" transform="scale(0.015625)"/>
      <path id="DejaVuSans-69" d="M 603 3500 
L 1178 3500 
L 1178 0 
L 603 0 
L 603 3500 
z
M 603 4863 
L 1178 4863 
L 1178 4134 
L 603 4134 
L 603 4863 
z
" transform="scale(0.015625)"/>
      <path id="DejaVuSans-6e" d="M 3513 2113 
L 3513 0 
L 2938 0 
L 2938 2094 
Q 2938 2591 2744 2837 
Q 2550 3084 2163 3084 
Q 1697 3084 1428 2787 
Q 1159 2491 1159 1978 
L 1159 0 
L 581 0 
L 581 3500 
L 1159 3500 
L 1159 2956 
Q 1366 3272 1645 3428 
Q 1925 3584 2291 3584 
Q 2894 3584 3203 3211 
Q 3513 2838 3513 2113 
z
" transform="scale(0.015625)"/>
      <path id="DejaVuSans-67" d="M 2906 1791 
Q 2906 2416 2648 2759 
Q 2391 3103 1925 3103 
Q 1463 3103 1205 2759 
Q 947 2416 947 1791 
Q 947 1169 1205 825 
Q 1463 481 1925 481 
Q 2391 481 2648 825 
Q 2906 1169 2906 1791 
z
M 3481 434 
Q 3481 -459 3084 -895 
Q 2688 -1331 1869 -1331 
Q 1566 -1331 1297 -1286 
Q 1028 -1241 775 -1147 
L 775 -588 
Q 1028 -725 1275 -790 
Q 1522 -856 1778 -856 
Q 2344 -856 2625 -561 
Q 2906 -266 2906 331 
L 2906 616 
Q 2728 306 2450 153 
Q 2172 0 1784 0 
Q 1141 0 747 490 
Q 353 981 353 1791 
Q 353 2603 747 3093 
Q 1141 3584 1784 3584 
Q 2172 3584 2450 3431 
Q 2728 3278 2906 2969 
L 2906 3500 
L 3481 3500 
L 3481 434 
z
" transform="scale(0.015625)"/>
      <path id="DejaVuSans-6c" d="M 603 4863 
L 1178 4863 
L 1178 0 
L 603 0 
L 603 4863 
z
" transform="scale(0.015625)"/>
      <path id="DejaVuSans-65" d="M 3597 1894 
L 3597 1613 
L 953 1613 
Q 991 1019 1311 708 
Q 1631 397 2203 397 
Q 2534 397 2845 478 
Q 3156 559 3463 722 
L 3463 178 
Q 3153 47 2828 -22 
Q 2503 -91 2169 -91 
Q 1331 -91 842 396 
Q 353 884 353 1716 
Q 353 2575 817 3079 
Q 1281 3584 2069 3584 
Q 2775 3584 3186 3129 
Q 3597 2675 3597 1894 
z
M 3022 2063 
Q 3016 2534 2758 2815 
Q 2500 3097 2075 3097 
Q 1594 3097 1305 2825 
Q 1016 2553 972 2059 
L 3022 2063 
z
" transform="scale(0.015625)"/>
      <path id="DejaVuSans-20" transform="scale(0.015625)"/>
      <path id="DejaVuSans-44" d="M 1259 4147 
L 1259 519 
L 2022 519 
Q 2988 519 3436 956 
Q 3884 1394 3884 2338 
Q 3884 3275 3436 3711 
Q 2988 4147 2022 4147 
L 1259 4147 
z
M 628 4666 
L 1925 4666 
Q 3281 4666 3915 4102 
Q 4550 3538 4550 2338 
Q 4550 1131 3912 565 
Q 3275 0 1925 0 
L 628 0 
L 628 4666 
z
" transform="scale(0.015625)"/>
      <path id="DejaVuSans-72" d="M 2631 2963 
Q 2534 3019 2420 3045 
Q 2306 3072 2169 3072 
Q 1681 3072 1420 2755 
Q 1159 2438 1159 1844 
L 1159 0 
L 581 0 
L 581 3500 
L 1159 3500 
L 1159 2956 
Q 1341 3275 1631 3429 
Q 1922 3584 2338 3584 
Q 2397 3584 2469 3576 
Q 2541 3569 2628 3553 
L 2631 2963 
z
" transform="scale(0.015625)"/>
      <path id="DejaVuSans-61" d="M 2194 1759 
Q 1497 1759 1228 1600 
Q 959 1441 959 1056 
Q 959 750 1161 570 
Q 1363 391 1709 391 
Q 2188 391 2477 730 
Q 2766 1069 2766 1631 
L 2766 1759 
L 2194 1759 
z
M 3341 1997 
L 3341 0 
L 2766 0 
L 2766 531 
Q 2569 213 2275 61 
Q 1981 -91 1556 -91 
Q 1019 -91 701 211 
Q 384 513 384 1019 
Q 384 1609 779 1909 
Q 1175 2209 1959 2209 
L 2766 2209 
L 2766 2266 
Q 2766 2663 2505 2880 
Q 2244 3097 1772 3097 
Q 1472 3097 1187 3025 
Q 903 2953 641 2809 
L 641 3341 
Q 956 3463 1253 3523 
Q 1550 3584 1831 3584 
Q 2591 3584 2966 3190 
Q 3341 2797 3341 1997 
z
" transform="scale(0.015625)"/>
      <path id="DejaVuSans-77" d="M 269 3500 
L 844 3500 
L 1563 769 
L 2278 3500 
L 2956 3500 
L 3675 769 
L 4391 3500 
L 4966 3500 
L 4050 0 
L 3372 0 
L 2619 2869 
L 1863 0 
L 1184 0 
L 269 3500 
z
" transform="scale(0.015625)"/>
      <path id="DejaVuSans-76" d="M 191 3500 
L 800 3500 
L 1894 563 
L 2988 3500 
L 3597 3500 
L 2284 0 
L 1503 0 
L 191 3500 
z
" transform="scale(0.015625)"/>
      <path id="DejaVuSans-74" d="M 1172 4494 
L 1172 3500 
L 2356 3500 
L 2356 3053 
L 1172 3053 
L 1172 1153 
Q 1172 725 1289 603 
Q 1406 481 1766 481 
L 2356 481 
L 2356 0 
L 1766 0 
Q 1100 0 847 248 
Q 594 497 594 1153 
L 594 3053 
L 172 3053 
L 172 3500 
L 594 3500 
L 594 4494 
L 1172 4494 
z
" transform="scale(0.015625)"/>
      <path id="DejaVuSans-6f" d="M 1959 3097 
Q 1497 3097 1228 2736 
Q 959 2375 959 1747 
Q 959 1119 1226 758 
Q 1494 397 1959 397 
Q 2419 397 2687 759 
Q 2956 1122 2956 1747 
Q 2956 2369 2687 2733 
Q 2419 3097 1959 3097 
z
M 1959 3584 
Q 2709 3584 3137 3096 
Q 3566 2609 3566 1747 
Q 3566 888 3137 398 
Q 2709 -91 1959 -91 
Q 1206 -91 779 398 
Q 353 888 353 1747 
Q 353 2609 779 3096 
Q 1206 3584 1959 3584 
z
" transform="scale(0.015625)"/>
     </defs>
     <use xlink:href="#DejaVuSans-53"/>
     <use xlink:href="#DejaVuSans-69" x="63.476562"/>
     <use xlink:href="#DejaVuSans-6e" x="91.259766"/>
     <use xlink:href="#DejaVuSans-67" x="154.638672"/>
     <use xlink:href="#DejaVuSans-6c" x="218.115234"/>
     <use xlink:href="#DejaVuSans-65" x="245.898438"/>
     <use xlink:href="#DejaVuSans-20" x="307.421875"/>
     <use xlink:href="#DejaVuSans-44" x="339.208984"/>
     <use xlink:href="#DejaVuSans-72" x="416.210938"/>
     <use xlink:href="#DejaVuSans-61" x="457.324219"/>
     <use xlink:href="#DejaVuSans-77" x="518.603516"/>
     <use xlink:href="#DejaVuSans-20" x="600.390625"/>
     <use xlink:href="#DejaVuSans-44" x="632.177734"/>
     <use xlink:href="#DejaVuSans-65" x="709.179688"/>
     <use xlink:href="#DejaVuSans-76" x="770.703125"/>
     <use xlink:href="#DejaVuSans-69" x="829.882812"/>
     <use xlink:href="#DejaVuSans-61" x="857.666016"/>
     <use xlink:href="#DejaVuSans-74" x="918.945312"/>
     <use xlink:href="#DejaVuSans-69" x="958.154297"/>
     <use xlink:href="#DejaVuSans-6f" x="985.9375"/>
     <use xlink:href="#DejaVuSans-6e" x="1047.119141"/>
    </g>
   </g>
   <g id="legend_1">
    <g id="patch_7">
     <path d="M 52 197.98125 
L 211.935938 197.98125 
Q 213.935938 197.98125 213.935938 195.98125 
L 213.935938 50.2 
Q 213.935938 48.2 211.935938 48.2 
L 52 48.2 
Q 50 48.2 50 50.2 
L 50 195.98125 
Q 50 197.98125 52 197.98125 
z
" style="fill: #ffffff; opacity: 0.8; stroke: #cccccc; stroke-linejoin: miter"/>
    </g>
    <g id="line2d_23">
     <path d="M 54 56.298437 
L 64 56.298437 
L 74 56.298437 
" style="fill: none; stroke: #1f77b4; stroke-width: 1.5; stroke-linecap: square"/>
    </g>
    <g id="text_14">
     <!-- Deviation from average 0 -->
     <g transform="translate(82 59.798437)scale(0.1 -0.1)">
      <defs>
       <path id="DejaVuSans-66" d="M 2375 4863 
L 2375 4384 
L 1825 4384 
Q 1516 4384 1395 4259 
Q 1275 4134 1275 3809 
L 1275 3500 
L 2222 3500 
L 2222 3053 
L 1275 3053 
L 1275 0 
L 697 0 
L 697 3053 
L 147 3053 
L 147 3500 
L 697 3500 
L 697 3744 
Q 697 4328 969 4595 
Q 1241 4863 1831 4863 
L 2375 4863 
z
" transform="scale(0.015625)"/>
       <path id="DejaVuSans-6d" d="M 3328 2828 
Q 3544 3216 3844 3400 
Q 4144 3584 4550 3584 
Q 5097 3584 5394 3201 
Q 5691 2819 5691 2113 
L 5691 0 
L 5113 0 
L 5113 2094 
Q 5113 2597 4934 2840 
Q 4756 3084 4391 3084 
Q 3944 3084 3684 2787 
Q 3425 2491 3425 1978 
L 3425 0 
L 2847 0 
L 2847 2094 
Q 2847 2600 2669 2842 
Q 2491 3084 2119 3084 
Q 1678 3084 1418 2786 
Q 1159 2488 1159 1978 
L 1159 0 
L 581 0 
L 581 3500 
L 1159 3500 
L 1159 2956 
Q 1356 3278 1631 3431 
Q 1906 3584 2284 3584 
Q 2666 3584 2933 3390 
Q 3200 3197 3328 2828 
z
" transform="scale(0.015625)"/>
      </defs>
      <use xlink:href="#DejaVuSans-44"/>
      <use xlink:href="#DejaVuSans-65" x="77.001953"/>
      <use xlink:href="#DejaVuSans-76" x="138.525391"/>
      <use xlink:href="#DejaVuSans-69" x="197.705078"/>
      <use xlink:href="#DejaVuSans-61" x="225.488281"/>
      <use xlink:href="#DejaVuSans-74" x="286.767578"/>
      <use xlink:href="#DejaVuSans-69" x="325.976562"/>
      <use xlink:href="#DejaVuSans-6f" x="353.759766"/>
      <use xlink:href="#DejaVuSans-6e" x="414.941406"/>
      <use xlink:href="#DejaVuSans-20" x="478.320312"/>
      <use xlink:href="#DejaVuSans-66" x="510.107422"/>
      <use xlink:href="#DejaVuSans-72" x="545.3125"/>
      <use xlink:href="#DejaVuSans-6f" x="584.175781"/>
      <use xlink:href="#DejaVuSans-6d" x="645.357422"/>
      <use xlink:href="#DejaVuSans-20" x="742.769531"/>
      <use xlink:href="#DejaVuSans-61" x="774.556641"/>
      <use xlink:href="#DejaVuSans-76" x="835.835938"/>
      <use xlink:href="#DejaVuSans-65" x="895.015625"/>
      <use xlink:href="#DejaVuSans-72" x="956.539062"/>
      <use xlink:href="#DejaVuSans-61" x="997.652344"/>
      <use xlink:href="#DejaVuSans-67" x="1058.931641"/>
      <use xlink:href="#DejaVuSans-65" x="1122.408203"/>
      <use xlink:href="#DejaVuSans-20" x="1183.931641"/>
      <use xlink:href="#DejaVuSans-30" x="1215.71875"/>
     </g>
    </g>
    <g id="line2d_24">
     <path d="M 54 70.976562 
L 64 70.976562 
L 74 70.976562 
" style="fill: none; stroke: #ff7f0e; stroke-width: 1.5; stroke-linecap: square"/>
    </g>
    <g id="text_15">
     <!-- Deviation from average 1 -->
     <g transform="translate(82 74.476562)scale(0.1 -0.1)">
      <use xlink:href="#DejaVuSans-44"/>
      <use xlink:href="#DejaVuSans-65" x="77.001953"/>
      <use xlink:href="#DejaVuSans-76" x="138.525391"/>
      <use xlink:href="#DejaVuSans-69" x="197.705078"/>
      <use xlink:href="#DejaVuSans-61" x="225.488281"/>
      <use xlink:href="#DejaVuSans-74" x="286.767578"/>
      <use xlink:href="#DejaVuSans-69" x="325.976562"/>
      <use xlink:href="#DejaVuSans-6f" x="353.759766"/>
      <use xlink:href="#DejaVuSans-6e" x="414.941406"/>
      <use xlink:href="#DejaVuSans-20" x="478.320312"/>
      <use xlink:href="#DejaVuSans-66" x="510.107422"/>
      <use xlink:href="#DejaVuSans-72" x="545.3125"/>
      <use xlink:href="#DejaVuSans-6f" x="584.175781"/>
      <use xlink:href="#DejaVuSans-6d" x="645.357422"/>
      <use xlink:href="#DejaVuSans-20" x="742.769531"/>
      <use xlink:href="#DejaVuSans-61" x="774.556641"/>
      <use xlink:href="#DejaVuSans-76" x="835.835938"/>
      <use xlink:href="#DejaVuSans-65" x="895.015625"/>
      <use xlink:href="#DejaVuSans-72" x="956.539062"/>
      <use xlink:href="#DejaVuSans-61" x="997.652344"/>
      <use xlink:href="#DejaVuSans-67" x="1058.931641"/>
      <use xlink:href="#DejaVuSans-65" x="1122.408203"/>
      <use xlink:href="#DejaVuSans-20" x="1183.931641"/>
      <use xlink:href="#DejaVuSans-31" x="1215.71875"/>
     </g>
    </g>
    <g id="line2d_25">
     <path d="M 54 85.654688 
L 64 85.654688 
L 74 85.654688 
" style="fill: none; stroke: #2ca02c; stroke-width: 1.5; stroke-linecap: square"/>
    </g>
    <g id="text_16">
     <!-- Deviation from average 2 -->
     <g transform="translate(82 89.154688)scale(0.1 -0.1)">
      <use xlink:href="#DejaVuSans-44"/>
      <use xlink:href="#DejaVuSans-65" x="77.001953"/>
      <use xlink:href="#DejaVuSans-76" x="138.525391"/>
      <use xlink:href="#DejaVuSans-69" x="197.705078"/>
      <use xlink:href="#DejaVuSans-61" x="225.488281"/>
      <use xlink:href="#DejaVuSans-74" x="286.767578"/>
      <use xlink:href="#DejaVuSans-69" x="325.976562"/>
      <use xlink:href="#DejaVuSans-6f" x="353.759766"/>
      <use xlink:href="#DejaVuSans-6e" x="414.941406"/>
      <use xlink:href="#DejaVuSans-20" x="478.320312"/>
      <use xlink:href="#DejaVuSans-66" x="510.107422"/>
      <use xlink:href="#DejaVuSans-72" x="545.3125"/>
      <use xlink:href="#DejaVuSans-6f" x="584.175781"/>
      <use xlink:href="#DejaVuSans-6d" x="645.357422"/>
      <use xlink:href="#DejaVuSans-20" x="742.769531"/>
      <use xlink:href="#DejaVuSans-61" x="774.556641"/>
      <use xlink:href="#DejaVuSans-76" x="835.835938"/>
      <use xlink:href="#DejaVuSans-65" x="895.015625"/>
      <use xlink:href="#DejaVuSans-72" x="956.539062"/>
      <use xlink:href="#DejaVuSans-61" x="997.652344"/>
      <use xlink:href="#DejaVuSans-67" x="1058.931641"/>
      <use xlink:href="#DejaVuSans-65" x="1122.408203"/>
      <use xlink:href="#DejaVuSans-20" x="1183.931641"/>
      <use xlink:href="#DejaVuSans-32" x="1215.71875"/>
     </g>
    </g>
    <g id="line2d_26">
     <path d="M 54 100.332812 
L 64 100.332812 
L 74 100.332812 
" style="fill: none; stroke: #d62728; stroke-width: 1.5; stroke-linecap: square"/>
    </g>
    <g id="text_17">
     <!-- Deviation from average 3 -->
     <g transform="translate(82 103.832812)scale(0.1 -0.1)">
      <use xlink:href="#DejaVuSans-44"/>
      <use xlink:href="#DejaVuSans-65" x="77.001953"/>
      <use xlink:href="#DejaVuSans-76" x="138.525391"/>
      <use xlink:href="#DejaVuSans-69" x="197.705078"/>
      <use xlink:href="#DejaVuSans-61" x="225.488281"/>
      <use xlink:href="#DejaVuSans-74" x="286.767578"/>
      <use xlink:href="#DejaVuSans-69" x="325.976562"/>
      <use xlink:href="#DejaVuSans-6f" x="353.759766"/>
      <use xlink:href="#DejaVuSans-6e" x="414.941406"/>
      <use xlink:href="#DejaVuSans-20" x="478.320312"/>
      <use xlink:href="#DejaVuSans-66" x="510.107422"/>
      <use xlink:href="#DejaVuSans-72" x="545.3125"/>
      <use xlink:href="#DejaVuSans-6f" x="584.175781"/>
      <use xlink:href="#DejaVuSans-6d" x="645.357422"/>
      <use xlink:href="#DejaVuSans-20" x="742.769531"/>
      <use xlink:href="#DejaVuSans-61" x="774.556641"/>
      <use xlink:href="#DejaVuSans-76" x="835.835938"/>
      <use xlink:href="#DejaVuSans-65" x="895.015625"/>
      <use xlink:href="#DejaVuSans-72" x="956.539062"/>
      <use xlink:href="#DejaVuSans-61" x="997.652344"/>
      <use xlink:href="#DejaVuSans-67" x="1058.931641"/>
      <use xlink:href="#DejaVuSans-65" x="1122.408203"/>
      <use xlink:href="#DejaVuSans-20" x="1183.931641"/>
      <use xlink:href="#DejaVuSans-33" x="1215.71875"/>
     </g>
    </g>
    <g id="line2d_27">
     <path d="M 54 115.010938 
L 64 115.010938 
L 74 115.010938 
" style="fill: none; stroke: #9467bd; stroke-width: 1.5; stroke-linecap: square"/>
    </g>
    <g id="text_18">
     <!-- Deviation from average 4 -->
     <g transform="translate(82 118.510938)scale(0.1 -0.1)">
      <defs>
       <path id="DejaVuSans-34" d="M 2419 4116 
L 825 1625 
L 2419 1625 
L 2419 4116 
z
M 2253 4666 
L 3047 4666 
L 3047 1625 
L 3713 1625 
L 3713 1100 
L 3047 1100 
L 3047 0 
L 2419 0 
L 2419 1100 
L 313 1100 
L 313 1709 
L 2253 4666 
z
" transform="scale(0.015625)"/>
      </defs>
      <use xlink:href="#DejaVuSans-44"/>
      <use xlink:href="#DejaVuSans-65" x="77.001953"/>
      <use xlink:href="#DejaVuSans-76" x="138.525391"/>
      <use xlink:href="#DejaVuSans-69" x="197.705078"/>
      <use xlink:href="#DejaVuSans-61" x="225.488281"/>
      <use xlink:href="#DejaVuSans-74" x="286.767578"/>
      <use xlink:href="#DejaVuSans-69" x="325.976562"/>
      <use xlink:href="#DejaVuSans-6f" x="353.759766"/>
      <use xlink:href="#DejaVuSans-6e" x="414.941406"/>
      <use xlink:href="#DejaVuSans-20" x="478.320312"/>
      <use xlink:href="#DejaVuSans-66" x="510.107422"/>
      <use xlink:href="#DejaVuSans-72" x="545.3125"/>
      <use xlink:href="#DejaVuSans-6f" x="584.175781"/>
      <use xlink:href="#DejaVuSans-6d" x="645.357422"/>
      <use xlink:href="#DejaVuSans-20" x="742.769531"/>
      <use xlink:href="#DejaVuSans-61" x="774.556641"/>
      <use xlink:href="#DejaVuSans-76" x="835.835938"/>
      <use xlink:href="#DejaVuSans-65" x="895.015625"/>
      <use xlink:href="#DejaVuSans-72" x="956.539062"/>
      <use xlink:href="#DejaVuSans-61" x="997.652344"/>
      <use xlink:href="#DejaVuSans-67" x="1058.931641"/>
      <use xlink:href="#DejaVuSans-65" x="1122.408203"/>
      <use xlink:href="#DejaVuSans-20" x="1183.931641"/>
      <use xlink:href="#DejaVuSans-34" x="1215.71875"/>
     </g>
    </g>
    <g id="line2d_28">
     <path d="M 54 129.689062 
L 64 129.689062 
L 74 129.689062 
" style="fill: none; stroke: #8c564b; stroke-width: 1.5; stroke-linecap: square"/>
    </g>
    <g id="text_19">
     <!-- Deviation from average 5 -->
     <g transform="translate(82 133.189062)scale(0.1 -0.1)">
      <defs>
       <path id="DejaVuSans-35" d="M 691 4666 
L 3169 4666 
L 3169 4134 
L 1269 4134 
L 1269 2991 
Q 1406 3038 1543 3061 
Q 1681 3084 1819 3084 
Q 2600 3084 3056 2656 
Q 3513 2228 3513 1497 
Q 3513 744 3044 326 
Q 2575 -91 1722 -91 
Q 1428 -91 1123 -41 
Q 819 9 494 109 
L 494 744 
Q 775 591 1075 516 
Q 1375 441 1709 441 
Q 2250 441 2565 725 
Q 2881 1009 2881 1497 
Q 2881 1984 2565 2268 
Q 2250 2553 1709 2553 
Q 1456 2553 1204 2497 
Q 953 2441 691 2322 
L 691 4666 
z
" transform="scale(0.015625)"/>
      </defs>
      <use xlink:href="#DejaVuSans-44"/>
      <use xlink:href="#DejaVuSans-65" x="77.001953"/>
      <use xlink:href="#DejaVuSans-76" x="138.525391"/>
      <use xlink:href="#DejaVuSans-69" x="197.705078"/>
      <use xlink:href="#DejaVuSans-61" x="225.488281"/>
      <use xlink:href="#DejaVuSans-74" x="286.767578"/>
      <use xlink:href="#DejaVuSans-69" x="325.976562"/>
      <use xlink:href="#DejaVuSans-6f" x="353.759766"/>
      <use xlink:href="#DejaVuSans-6e" x="414.941406"/>
      <use xlink:href="#DejaVuSans-20" x="478.320312"/>
      <use xlink:href="#DejaVuSans-66" x="510.107422"/>
      <use xlink:href="#DejaVuSans-72" x="545.3125"/>
      <use xlink:href="#DejaVuSans-6f" x="584.175781"/>
      <use xlink:href="#DejaVuSans-6d" x="645.357422"/>
      <use xlink:href="#DejaVuSans-20" x="742.769531"/>
      <use xlink:href="#DejaVuSans-61" x="774.556641"/>
      <use xlink:href="#DejaVuSans-76" x="835.835938"/>
      <use xlink:href="#DejaVuSans-65" x="895.015625"/>
      <use xlink:href="#DejaVuSans-72" x="956.539062"/>
      <use xlink:href="#DejaVuSans-61" x="997.652344"/>
      <use xlink:href="#DejaVuSans-67" x="1058.931641"/>
      <use xlink:href="#DejaVuSans-65" x="1122.408203"/>
      <use xlink:href="#DejaVuSans-20" x="1183.931641"/>
      <use xlink:href="#DejaVuSans-35" x="1215.71875"/>
     </g>
    </g>
    <g id="line2d_29">
     <path d="M 54 144.367188 
L 64 144.367188 
L 74 144.367188 
" style="fill: none; stroke: #e377c2; stroke-width: 1.5; stroke-linecap: square"/>
    </g>
    <g id="text_20">
     <!-- Deviation from average 6 -->
     <g transform="translate(82 147.867188)scale(0.1 -0.1)">
      <defs>
       <path id="DejaVuSans-36" d="M 2113 2584 
Q 1688 2584 1439 2293 
Q 1191 2003 1191 1497 
Q 1191 994 1439 701 
Q 1688 409 2113 409 
Q 2538 409 2786 701 
Q 3034 994 3034 1497 
Q 3034 2003 2786 2293 
Q 2538 2584 2113 2584 
z
M 3366 4563 
L 3366 3988 
Q 3128 4100 2886 4159 
Q 2644 4219 2406 4219 
Q 1781 4219 1451 3797 
Q 1122 3375 1075 2522 
Q 1259 2794 1537 2939 
Q 1816 3084 2150 3084 
Q 2853 3084 3261 2657 
Q 3669 2231 3669 1497 
Q 3669 778 3244 343 
Q 2819 -91 2113 -91 
Q 1303 -91 875 529 
Q 447 1150 447 2328 
Q 447 3434 972 4092 
Q 1497 4750 2381 4750 
Q 2619 4750 2861 4703 
Q 3103 4656 3366 4563 
z
" transform="scale(0.015625)"/>
      </defs>
      <use xlink:href="#DejaVuSans-44"/>
      <use xlink:href="#DejaVuSans-65" x="77.001953"/>
      <use xlink:href="#DejaVuSans-76" x="138.525391"/>
      <use xlink:href="#DejaVuSans-69" x="197.705078"/>
      <use xlink:href="#DejaVuSans-61" x="225.488281"/>
      <use xlink:href="#DejaVuSans-74" x="286.767578"/>
      <use xlink:href="#DejaVuSans-69" x="325.976562"/>
      <use xlink:href="#DejaVuSans-6f" x="353.759766"/>
      <use xlink:href="#DejaVuSans-6e" x="414.941406"/>
      <use xlink:href="#DejaVuSans-20" x="478.320312"/>
      <use xlink:href="#DejaVuSans-66" x="510.107422"/>
      <use xlink:href="#DejaVuSans-72" x="545.3125"/>
      <use xlink:href="#DejaVuSans-6f" x="584.175781"/>
      <use xlink:href="#DejaVuSans-6d" x="645.357422"/>
      <use xlink:href="#DejaVuSans-20" x="742.769531"/>
      <use xlink:href="#DejaVuSans-61" x="774.556641"/>
      <use xlink:href="#DejaVuSans-76" x="835.835938"/>
      <use xlink:href="#DejaVuSans-65" x="895.015625"/>
      <use xlink:href="#DejaVuSans-72" x="956.539062"/>
      <use xlink:href="#DejaVuSans-61" x="997.652344"/>
      <use xlink:href="#DejaVuSans-67" x="1058.931641"/>
      <use xlink:href="#DejaVuSans-65" x="1122.408203"/>
      <use xlink:href="#DejaVuSans-20" x="1183.931641"/>
      <use xlink:href="#DejaVuSans-36" x="1215.71875"/>
     </g>
    </g>
    <g id="line2d_30">
     <path d="M 54 159.045312 
L 64 159.045312 
L 74 159.045312 
" style="fill: none; stroke: #7f7f7f; stroke-width: 1.5; stroke-linecap: square"/>
    </g>
    <g id="text_21">
     <!-- Deviation from average 7 -->
     <g transform="translate(82 162.545312)scale(0.1 -0.1)">
      <defs>
       <path id="DejaVuSans-37" d="M 525 4666 
L 3525 4666 
L 3525 4397 
L 1831 0 
L 1172 0 
L 2766 4134 
L 525 4134 
L 525 4666 
z
" transform="scale(0.015625)"/>
      </defs>
      <use xlink:href="#DejaVuSans-44"/>
      <use xlink:href="#DejaVuSans-65" x="77.001953"/>
      <use xlink:href="#DejaVuSans-76" x="138.525391"/>
      <use xlink:href="#DejaVuSans-69" x="197.705078"/>
      <use xlink:href="#DejaVuSans-61" x="225.488281"/>
      <use xlink:href="#DejaVuSans-74" x="286.767578"/>
      <use xlink:href="#DejaVuSans-69" x="325.976562"/>
      <use xlink:href="#DejaVuSans-6f" x="353.759766"/>
      <use xlink:href="#DejaVuSans-6e" x="414.941406"/>
      <use xlink:href="#DejaVuSans-20" x="478.320312"/>
      <use xlink:href="#DejaVuSans-66" x="510.107422"/>
      <use xlink:href="#DejaVuSans-72" x="545.3125"/>
      <use xlink:href="#DejaVuSans-6f" x="584.175781"/>
      <use xlink:href="#DejaVuSans-6d" x="645.357422"/>
      <use xlink:href="#DejaVuSans-20" x="742.769531"/>
      <use xlink:href="#DejaVuSans-61" x="774.556641"/>
      <use xlink:href="#DejaVuSans-76" x="835.835938"/>
      <use xlink:href="#DejaVuSans-65" x="895.015625"/>
      <use xlink:href="#DejaVuSans-72" x="956.539062"/>
      <use xlink:href="#DejaVuSans-61" x="997.652344"/>
      <use xlink:href="#DejaVuSans-67" x="1058.931641"/>
      <use xlink:href="#DejaVuSans-65" x="1122.408203"/>
      <use xlink:href="#DejaVuSans-20" x="1183.931641"/>
      <use xlink:href="#DejaVuSans-37" x="1215.71875"/>
     </g>
    </g>
    <g id="line2d_31">
     <path d="M 54 173.723437 
L 64 173.723437 
L 74 173.723437 
" style="fill: none; stroke: #bcbd22; stroke-width: 1.5; stroke-linecap: square"/>
    </g>
    <g id="text_22">
     <!-- Deviation from average 8 -->
     <g transform="translate(82 177.223437)scale(0.1 -0.1)">
      <defs>
       <path id="DejaVuSans-38" d="M 2034 2216 
Q 1584 2216 1326 1975 
Q 1069 1734 1069 1313 
Q 1069 891 1326 650 
Q 1584 409 2034 409 
Q 2484 409 2743 651 
Q 3003 894 3003 1313 
Q 3003 1734 2745 1975 
Q 2488 2216 2034 2216 
z
M 1403 2484 
Q 997 2584 770 2862 
Q 544 3141 544 3541 
Q 544 4100 942 4425 
Q 1341 4750 2034 4750 
Q 2731 4750 3128 4425 
Q 3525 4100 3525 3541 
Q 3525 3141 3298 2862 
Q 3072 2584 2669 2484 
Q 3125 2378 3379 2068 
Q 3634 1759 3634 1313 
Q 3634 634 3220 271 
Q 2806 -91 2034 -91 
Q 1263 -91 848 271 
Q 434 634 434 1313 
Q 434 1759 690 2068 
Q 947 2378 1403 2484 
z
M 1172 3481 
Q 1172 3119 1398 2916 
Q 1625 2713 2034 2713 
Q 2441 2713 2670 2916 
Q 2900 3119 2900 3481 
Q 2900 3844 2670 4047 
Q 2441 4250 2034 4250 
Q 1625 4250 1398 4047 
Q 1172 3844 1172 3481 
z
" transform="scale(0.015625)"/>
      </defs>
      <use xlink:href="#DejaVuSans-44"/>
      <use xlink:href="#DejaVuSans-65" x="77.001953"/>
      <use xlink:href="#DejaVuSans-76" x="138.525391"/>
      <use xlink:href="#DejaVuSans-69" x="197.705078"/>
      <use xlink:href="#DejaVuSans-61" x="225.488281"/>
      <use xlink:href="#DejaVuSans-74" x="286.767578"/>
      <use xlink:href="#DejaVuSans-69" x="325.976562"/>
      <use xlink:href="#DejaVuSans-6f" x="353.759766"/>
      <use xlink:href="#DejaVuSans-6e" x="414.941406"/>
      <use xlink:href="#DejaVuSans-20" x="478.320312"/>
      <use xlink:href="#DejaVuSans-66" x="510.107422"/>
      <use xlink:href="#DejaVuSans-72" x="545.3125"/>
      <use xlink:href="#DejaVuSans-6f" x="584.175781"/>
      <use xlink:href="#DejaVuSans-6d" x="645.357422"/>
      <use xlink:href="#DejaVuSans-20" x="742.769531"/>
      <use xlink:href="#DejaVuSans-61" x="774.556641"/>
      <use xlink:href="#DejaVuSans-76" x="835.835938"/>
      <use xlink:href="#DejaVuSans-65" x="895.015625"/>
      <use xlink:href="#DejaVuSans-72" x="956.539062"/>
      <use xlink:href="#DejaVuSans-61" x="997.652344"/>
      <use xlink:href="#DejaVuSans-67" x="1058.931641"/>
      <use xlink:href="#DejaVuSans-65" x="1122.408203"/>
      <use xlink:href="#DejaVuSans-20" x="1183.931641"/>
      <use xlink:href="#DejaVuSans-38" x="1215.71875"/>
     </g>
    </g>
    <g id="line2d_32">
     <path d="M 54 188.401562 
L 64 188.401562 
L 74 188.401562 
" style="fill: none; stroke: #17becf; stroke-width: 1.5; stroke-linecap: square"/>
    </g>
    <g id="text_23">
     <!-- Deviation from average 9 -->
     <g transform="translate(82 191.901562)scale(0.1 -0.1)">
      <defs>
       <path id="DejaVuSans-39" d="M 703 97 
L 703 672 
Q 941 559 1184 500 
Q 1428 441 1663 441 
Q 2288 441 2617 861 
Q 2947 1281 2994 2138 
Q 2813 1869 2534 1725 
Q 2256 1581 1919 1581 
Q 1219 1581 811 2004 
Q 403 2428 403 3163 
Q 403 3881 828 4315 
Q 1253 4750 1959 4750 
Q 2769 4750 3195 4129 
Q 3622 3509 3622 2328 
Q 3622 1225 3098 567 
Q 2575 -91 1691 -91 
Q 1453 -91 1209 -44 
Q 966 3 703 97 
z
M 1959 2075 
Q 2384 2075 2632 2365 
Q 2881 2656 2881 3163 
Q 2881 3666 2632 3958 
Q 2384 4250 1959 4250 
Q 1534 4250 1286 3958 
Q 1038 3666 1038 3163 
Q 1038 2656 1286 2365 
Q 1534 2075 1959 2075 
z
" transform="scale(0.015625)"/>
      </defs>
      <use xlink:href="#DejaVuSans-44"/>
      <use xlink:href="#DejaVuSans-65" x="77.001953"/>
      <use xlink:href="#DejaVuSans-76" x="138.525391"/>
      <use xlink:href="#DejaVuSans-69" x="197.705078"/>
      <use xlink:href="#DejaVuSans-61" x="225.488281"/>
      <use xlink:href="#DejaVuSans-74" x="286.767578"/>
      <use xlink:href="#DejaVuSans-69" x="325.976562"/>
      <use xlink:href="#DejaVuSans-6f" x="353.759766"/>
      <use xlink:href="#DejaVuSans-6e" x="414.941406"/>
      <use xlink:href="#DejaVuSans-20" x="478.320312"/>
      <use xlink:href="#DejaVuSans-66" x="510.107422"/>
      <use xlink:href="#DejaVuSans-72" x="545.3125"/>
      <use xlink:href="#DejaVuSans-6f" x="584.175781"/>
      <use xlink:href="#DejaVuSans-6d" x="645.357422"/>
      <use xlink:href="#DejaVuSans-20" x="742.769531"/>
      <use xlink:href="#DejaVuSans-61" x="774.556641"/>
      <use xlink:href="#DejaVuSans-76" x="835.835938"/>
      <use xlink:href="#DejaVuSans-65" x="895.015625"/>
      <use xlink:href="#DejaVuSans-72" x="956.539062"/>
      <use xlink:href="#DejaVuSans-61" x="997.652344"/>
      <use xlink:href="#DejaVuSans-67" x="1058.931641"/>
      <use xlink:href="#DejaVuSans-65" x="1122.408203"/>
      <use xlink:href="#DejaVuSans-20" x="1183.931641"/>
      <use xlink:href="#DejaVuSans-39" x="1215.71875"/>
     </g>
    </g>
   </g>
  </g>
 </g>
 <defs>
  <clipPath id="pd8e57998ad">
   <rect x="45" y="43.2" width="279" height="277.2"/>
  </clipPath>
 </defs>
</svg>
