<?xml version="1.0" encoding="utf-8" standalone="no"?>
<!DOCTYPE svg PUBLIC "-//W3C//DTD SVG 1.1//EN"
  "http://www.w3.org/Graphics/SVG/1.1/DTD/svg11.dtd">
<svg xmlns:xlink="http://www.w3.org/1999/xlink" width="360pt" height="360pt" viewBox="0 0 360 360" xmlns="http://www.w3.org/2000/svg" version="1.1">
 <metadata>
  <rdf:RDF xmlns:dc="http://purl.org/dc/elements/1.1/" xmlns:cc="http://creativecommons.org/ns#" xmlns:rdf="http://www.w3.org/1999/02/22-rdf-syntax-ns#">
   <cc:Work>
    <dc:type rdf:resource="http://purl.org/dc/dcmitype/StillImage"/>
    <dc:date>2022-11-10T22:46:09.329592</dc:date>
    <dc:format>image/svg+xml</dc:format>
    <dc:creator>
     <cc:Agent>
      <dc:title>Matplotlib v3.5.3, https://matplotlib.org/</dc:title>
     </cc:Agent>
    </dc:creator>
   </cc:Work>
  </rdf:RDF>
 </metadata>
 <defs>
  <style type="text/css">*{stroke-linejoin: round; stroke-linecap: butt}</style>
 </defs>
 <g id="figure_1">
  <g id="patch_1">
   <path d="M 0 360 
L 360 360 
L 360 0 
L 0 0 
z
" style="fill: #ffffff"/>
  </g>
  <g id="axes_1">
   <g id="patch_2">
    <path d="M 45 320.4 
L 324 320.4 
L 324 43.2 
L 45 43.2 
z
" style="fill: #ffffff"/>
   </g>
   <g id="matplotlib.axis_1">
    <g id="xtick_1">
     <g id="line2d_1">
      <defs>
       <path id="m2eeb4d35d1" d="M 0 0 
L 0 3.5 
" style="stroke: #000000; stroke-width: 0.8"/>
      </defs>
      <g>
       <use xlink:href="#m2eeb4d35d1" x="83.045455" y="320.4" style="stroke: #000000; stroke-width: 0.8"/>
      </g>
     </g>
     <g id="text_1">
      <!-- −2 -->
      <g transform="translate(75.674361 334.998438)scale(0.1 -0.1)">
       <defs>
        <path id="DejaVuSans-2212" d="M 678 2272 
L 4684 2272 
L 4684 1741 
L 678 1741 
L 678 2272 
z
" transform="scale(0.015625)"/>
        <path id="DejaVuSans-32" d="M 1228 531 
L 3431 531 
L 3431 0 
L 469 0 
L 469 531 
Q 828 903 1448 1529 
Q 2069 2156 2228 2338 
Q 2531 2678 2651 2914 
Q 2772 3150 2772 3378 
Q 2772 3750 2511 3984 
Q 2250 4219 1831 4219 
Q 1534 4219 1204 4116 
Q 875 4013 500 3803 
L 500 4441 
Q 881 4594 1212 4672 
Q 1544 4750 1819 4750 
Q 2544 4750 2975 4387 
Q 3406 4025 3406 3419 
Q 3406 3131 3298 2873 
Q 3191 2616 2906 2266 
Q 2828 2175 2409 1742 
Q 1991 1309 1228 531 
z
" transform="scale(0.015625)"/>
       </defs>
       <use xlink:href="#DejaVuSans-2212"/>
       <use xlink:href="#DejaVuSans-32" x="83.789062"/>
      </g>
     </g>
    </g>
    <g id="xtick_2">
     <g id="line2d_2">
      <g>
       <use xlink:href="#m2eeb4d35d1" x="133.772727" y="320.4" style="stroke: #000000; stroke-width: 0.8"/>
      </g>
     </g>
     <g id="text_2">
      <!-- −1 -->
      <g transform="translate(126.401634 334.998438)scale(0.1 -0.1)">
       <defs>
        <path id="DejaVuSans-31" d="M 794 531 
L 1825 531 
L 1825 4091 
L 703 3866 
L 703 4441 
L 1819 4666 
L 2450 4666 
L 2450 531 
L 3481 531 
L 3481 0 
L 794 0 
L 794 531 
z
" transform="scale(0.015625)"/>
       </defs>
       <use xlink:href="#DejaVuSans-2212"/>
       <use xlink:href="#DejaVuSans-31" x="83.789062"/>
      </g>
     </g>
    </g>
    <g id="xtick_3">
     <g id="line2d_3">
      <g>
       <use xlink:href="#m2eeb4d35d1" x="184.5" y="320.4" style="stroke: #000000; stroke-width: 0.8"/>
      </g>
     </g>
     <g id="text_3">
      <!-- 0 -->
      <g transform="translate(181.31875 334.998438)scale(0.1 -0.1)">
       <defs>
        <path id="DejaVuSans-30" d="M 2034 4250 
Q 1547 4250 1301 3770 
Q 1056 3291 1056 2328 
Q 1056 1369 1301 889 
Q 1547 409 2034 409 
Q 2525 409 2770 889 
Q 3016 1369 3016 2328 
Q 3016 3291 2770 3770 
Q 2525 4250 2034 4250 
z
M 2034 4750 
Q 2819 4750 3233 4129 
Q 3647 3509 3647 2328 
Q 3647 1150 3233 529 
Q 2819 -91 2034 -91 
Q 1250 -91 836 529 
Q 422 1150 422 2328 
Q 422 3509 836 4129 
Q 1250 4750 2034 4750 
z
" transform="scale(0.015625)"/>
       </defs>
       <use xlink:href="#DejaVuSans-30"/>
      </g>
     </g>
    </g>
    <g id="xtick_4">
     <g id="line2d_4">
      <g>
       <use xlink:href="#m2eeb4d35d1" x="235.227273" y="320.4" style="stroke: #000000; stroke-width: 0.8"/>
      </g>
     </g>
     <g id="text_4">
      <!-- 1 -->
      <g transform="translate(232.046023 334.998438)scale(0.1 -0.1)">
       <use xlink:href="#DejaVuSans-31"/>
      </g>
     </g>
    </g>
    <g id="xtick_5">
     <g id="line2d_5">
      <g>
       <use xlink:href="#m2eeb4d35d1" x="285.954545" y="320.4" style="stroke: #000000; stroke-width: 0.8"/>
      </g>
     </g>
     <g id="text_5">
      <!-- 2 -->
      <g transform="translate(282.773295 334.998438)scale(0.1 -0.1)">
       <use xlink:href="#DejaVuSans-32"/>
      </g>
     </g>
    </g>
   </g>
   <g id="matplotlib.axis_2">
    <g id="ytick_1">
     <g id="line2d_6">
      <defs>
       <path id="md1589e5989" d="M 0 0 
L -3.5 0 
" style="stroke: #000000; stroke-width: 0.8"/>
      </defs>
      <g>
       <use xlink:href="#md1589e5989" x="45" y="309.344575" style="stroke: #000000; stroke-width: 0.8"/>
      </g>
     </g>
     <g id="text_6">
      <!-- $\mathdefault{10^{-4}}$ -->
      <g transform="translate(14.5 313.143793)scale(0.1 -0.1)">
       <defs>
        <path id="DejaVuSans-34" d="M 2419 4116 
L 825 1625 
L 2419 1625 
L 2419 4116 
z
M 2253 4666 
L 3047 4666 
L 3047 1625 
L 3713 1625 
L 3713 1100 
L 3047 1100 
L 3047 0 
L 2419 0 
L 2419 1100 
L 313 1100 
L 313 1709 
L 2253 4666 
z
" transform="scale(0.015625)"/>
       </defs>
       <use xlink:href="#DejaVuSans-31" transform="translate(0 0.684375)"/>
       <use xlink:href="#DejaVuSans-30" transform="translate(63.623047 0.684375)"/>
       <use xlink:href="#DejaVuSans-2212" transform="translate(128.203125 38.965625)scale(0.7)"/>
       <use xlink:href="#DejaVuSans-34" transform="translate(186.855469 38.965625)scale(0.7)"/>
      </g>
     </g>
    </g>
    <g id="ytick_2">
     <g id="line2d_7">
      <g>
       <use xlink:href="#md1589e5989" x="45" y="260.034956" style="stroke: #000000; stroke-width: 0.8"/>
      </g>
     </g>
     <g id="text_7">
      <!-- $\mathdefault{10^{-3}}$ -->
      <g transform="translate(14.5 263.834174)scale(0.1 -0.1)">
       <defs>
        <path id="DejaVuSans-33" d="M 2597 2516 
Q 3050 2419 3304 2112 
Q 3559 1806 3559 1356 
Q 3559 666 3084 287 
Q 2609 -91 1734 -91 
Q 1441 -91 1130 -33 
Q 819 25 488 141 
L 488 750 
Q 750 597 1062 519 
Q 1375 441 1716 441 
Q 2309 441 2620 675 
Q 2931 909 2931 1356 
Q 2931 1769 2642 2001 
Q 2353 2234 1838 2234 
L 1294 2234 
L 1294 2753 
L 1863 2753 
Q 2328 2753 2575 2939 
Q 2822 3125 2822 3475 
Q 2822 3834 2567 4026 
Q 2313 4219 1838 4219 
Q 1578 4219 1281 4162 
Q 984 4106 628 3988 
L 628 4550 
Q 988 4650 1302 4700 
Q 1616 4750 1894 4750 
Q 2613 4750 3031 4423 
Q 3450 4097 3450 3541 
Q 3450 3153 3228 2886 
Q 3006 2619 2597 2516 
z
" transform="scale(0.015625)"/>
       </defs>
       <use xlink:href="#DejaVuSans-31" transform="translate(0 0.765625)"/>
       <use xlink:href="#DejaVuSans-30" transform="translate(63.623047 0.765625)"/>
       <use xlink:href="#DejaVuSans-2212" transform="translate(128.203125 39.046875)scale(0.7)"/>
       <use xlink:href="#DejaVuSans-33" transform="translate(186.855469 39.046875)scale(0.7)"/>
      </g>
     </g>
    </g>
    <g id="ytick_3">
     <g id="line2d_8">
      <g>
       <use xlink:href="#md1589e5989" x="45" y="210.725336" style="stroke: #000000; stroke-width: 0.8"/>
      </g>
     </g>
     <g id="text_8">
      <!-- $\mathdefault{10^{-2}}$ -->
      <g transform="translate(14.5 214.524555)scale(0.1 -0.1)">
       <use xlink:href="#DejaVuSans-31" transform="translate(0 0.765625)"/>
       <use xlink:href="#DejaVuSans-30" transform="translate(63.623047 0.765625)"/>
       <use xlink:href="#DejaVuSans-2212" transform="translate(128.203125 39.046875)scale(0.7)"/>
       <use xlink:href="#DejaVuSans-32" transform="translate(186.855469 39.046875)scale(0.7)"/>
      </g>
     </g>
    </g>
    <g id="ytick_4">
     <g id="line2d_9">
      <g>
       <use xlink:href="#md1589e5989" x="45" y="161.415717" style="stroke: #000000; stroke-width: 0.8"/>
      </g>
     </g>
     <g id="text_9">
      <!-- $\mathdefault{10^{-1}}$ -->
      <g transform="translate(14.5 165.214936)scale(0.1 -0.1)">
       <use xlink:href="#DejaVuSans-31" transform="translate(0 0.684375)"/>
       <use xlink:href="#DejaVuSans-30" transform="translate(63.623047 0.684375)"/>
       <use xlink:href="#DejaVuSans-2212" transform="translate(128.203125 38.965625)scale(0.7)"/>
       <use xlink:href="#DejaVuSans-31" transform="translate(186.855469 38.965625)scale(0.7)"/>
      </g>
     </g>
    </g>
    <g id="ytick_5">
     <g id="line2d_10">
      <g>
       <use xlink:href="#md1589e5989" x="45" y="112.106098" style="stroke: #000000; stroke-width: 0.8"/>
      </g>
     </g>
     <g id="text_10">
      <!-- $\mathdefault{10^{0}}$ -->
      <g transform="translate(20.4 115.905317)scale(0.1 -0.1)">
       <use xlink:href="#DejaVuSans-31" transform="translate(0 0.765625)"/>
       <use xlink:href="#DejaVuSans-30" transform="translate(63.623047 0.765625)"/>
       <use xlink:href="#DejaVuSans-30" transform="translate(128.203125 39.046875)scale(0.7)"/>
      </g>
     </g>
    </g>
    <g id="ytick_6">
     <g id="line2d_11">
      <g>
       <use xlink:href="#md1589e5989" x="45" y="62.796479" style="stroke: #000000; stroke-width: 0.8"/>
      </g>
     </g>
     <g id="text_11">
      <!-- $\mathdefault{10^{1}}$ -->
      <g transform="translate(20.4 66.595698)scale(0.1 -0.1)">
       <use xlink:href="#DejaVuSans-31" transform="translate(0 0.684375)"/>
       <use xlink:href="#DejaVuSans-30" transform="translate(63.623047 0.684375)"/>
       <use xlink:href="#DejaVuSans-31" transform="translate(128.203125 38.965625)scale(0.7)"/>
      </g>
     </g>
    </g>
    <g id="ytick_7">
     <g id="line2d_12">
      <defs>
       <path id="m94be9a02c0" d="M 0 0 
L -2 0 
" style="stroke: #000000; stroke-width: 0.6"/>
      </defs>
      <g>
       <use xlink:href="#m94be9a02c0" x="45" y="320.283852" style="stroke: #000000; stroke-width: 0.6"/>
      </g>
     </g>
    </g>
    <g id="ytick_8">
     <g id="line2d_13">
      <g>
       <use xlink:href="#m94be9a02c0" x="45" y="316.982731" style="stroke: #000000; stroke-width: 0.6"/>
      </g>
     </g>
    </g>
    <g id="ytick_9">
     <g id="line2d_14">
      <g>
       <use xlink:href="#m94be9a02c0" x="45" y="314.12317" style="stroke: #000000; stroke-width: 0.6"/>
      </g>
     </g>
    </g>
    <g id="ytick_10">
     <g id="line2d_15">
      <g>
       <use xlink:href="#m94be9a02c0" x="45" y="311.600859" style="stroke: #000000; stroke-width: 0.6"/>
      </g>
     </g>
    </g>
    <g id="ytick_11">
     <g id="line2d_16">
      <g>
       <use xlink:href="#m94be9a02c0" x="45" y="294.5009" style="stroke: #000000; stroke-width: 0.6"/>
      </g>
     </g>
    </g>
    <g id="ytick_12">
     <g id="line2d_17">
      <g>
       <use xlink:href="#m94be9a02c0" x="45" y="285.817907" style="stroke: #000000; stroke-width: 0.6"/>
      </g>
     </g>
    </g>
    <g id="ytick_13">
     <g id="line2d_18">
      <g>
       <use xlink:href="#m94be9a02c0" x="45" y="279.657226" style="stroke: #000000; stroke-width: 0.6"/>
      </g>
     </g>
    </g>
    <g id="ytick_14">
     <g id="line2d_19">
      <g>
       <use xlink:href="#m94be9a02c0" x="45" y="274.87863" style="stroke: #000000; stroke-width: 0.6"/>
      </g>
     </g>
    </g>
    <g id="ytick_15">
     <g id="line2d_20">
      <g>
       <use xlink:href="#m94be9a02c0" x="45" y="270.974233" style="stroke: #000000; stroke-width: 0.6"/>
      </g>
     </g>
    </g>
    <g id="ytick_16">
     <g id="line2d_21">
      <g>
       <use xlink:href="#m94be9a02c0" x="45" y="267.673112" style="stroke: #000000; stroke-width: 0.6"/>
      </g>
     </g>
    </g>
    <g id="ytick_17">
     <g id="line2d_22">
      <g>
       <use xlink:href="#m94be9a02c0" x="45" y="264.813551" style="stroke: #000000; stroke-width: 0.6"/>
      </g>
     </g>
    </g>
    <g id="ytick_18">
     <g id="line2d_23">
      <g>
       <use xlink:href="#m94be9a02c0" x="45" y="262.29124" style="stroke: #000000; stroke-width: 0.6"/>
      </g>
     </g>
    </g>
    <g id="ytick_19">
     <g id="line2d_24">
      <g>
       <use xlink:href="#m94be9a02c0" x="45" y="245.191281" style="stroke: #000000; stroke-width: 0.6"/>
      </g>
     </g>
    </g>
    <g id="ytick_20">
     <g id="line2d_25">
      <g>
       <use xlink:href="#m94be9a02c0" x="45" y="236.508288" style="stroke: #000000; stroke-width: 0.6"/>
      </g>
     </g>
    </g>
    <g id="ytick_21">
     <g id="line2d_26">
      <g>
       <use xlink:href="#m94be9a02c0" x="45" y="230.347607" style="stroke: #000000; stroke-width: 0.6"/>
      </g>
     </g>
    </g>
    <g id="ytick_22">
     <g id="line2d_27">
      <g>
       <use xlink:href="#m94be9a02c0" x="45" y="225.569011" style="stroke: #000000; stroke-width: 0.6"/>
      </g>
     </g>
    </g>
    <g id="ytick_23">
     <g id="line2d_28">
      <g>
       <use xlink:href="#m94be9a02c0" x="45" y="221.664614" style="stroke: #000000; stroke-width: 0.6"/>
      </g>
     </g>
    </g>
    <g id="ytick_24">
     <g id="line2d_29">
      <g>
       <use xlink:href="#m94be9a02c0" x="45" y="218.363493" style="stroke: #000000; stroke-width: 0.6"/>
      </g>
     </g>
    </g>
    <g id="ytick_25">
     <g id="line2d_30">
      <g>
       <use xlink:href="#m94be9a02c0" x="45" y="215.503932" style="stroke: #000000; stroke-width: 0.6"/>
      </g>
     </g>
    </g>
    <g id="ytick_26">
     <g id="line2d_31">
      <g>
       <use xlink:href="#m94be9a02c0" x="45" y="212.981621" style="stroke: #000000; stroke-width: 0.6"/>
      </g>
     </g>
    </g>
    <g id="ytick_27">
     <g id="line2d_32">
      <g>
       <use xlink:href="#m94be9a02c0" x="45" y="195.881662" style="stroke: #000000; stroke-width: 0.6"/>
      </g>
     </g>
    </g>
    <g id="ytick_28">
     <g id="line2d_33">
      <g>
       <use xlink:href="#m94be9a02c0" x="45" y="187.198669" style="stroke: #000000; stroke-width: 0.6"/>
      </g>
     </g>
    </g>
    <g id="ytick_29">
     <g id="line2d_34">
      <g>
       <use xlink:href="#m94be9a02c0" x="45" y="181.037987" style="stroke: #000000; stroke-width: 0.6"/>
      </g>
     </g>
    </g>
    <g id="ytick_30">
     <g id="line2d_35">
      <g>
       <use xlink:href="#m94be9a02c0" x="45" y="176.259392" style="stroke: #000000; stroke-width: 0.6"/>
      </g>
     </g>
    </g>
    <g id="ytick_31">
     <g id="line2d_36">
      <g>
       <use xlink:href="#m94be9a02c0" x="45" y="172.354995" style="stroke: #000000; stroke-width: 0.6"/>
      </g>
     </g>
    </g>
    <g id="ytick_32">
     <g id="line2d_37">
      <g>
       <use xlink:href="#m94be9a02c0" x="45" y="169.053874" style="stroke: #000000; stroke-width: 0.6"/>
      </g>
     </g>
    </g>
    <g id="ytick_33">
     <g id="line2d_38">
      <g>
       <use xlink:href="#m94be9a02c0" x="45" y="166.194313" style="stroke: #000000; stroke-width: 0.6"/>
      </g>
     </g>
    </g>
    <g id="ytick_34">
     <g id="line2d_39">
      <g>
       <use xlink:href="#m94be9a02c0" x="45" y="163.672002" style="stroke: #000000; stroke-width: 0.6"/>
      </g>
     </g>
    </g>
    <g id="ytick_35">
     <g id="line2d_40">
      <g>
       <use xlink:href="#m94be9a02c0" x="45" y="146.572043" style="stroke: #000000; stroke-width: 0.6"/>
      </g>
     </g>
    </g>
    <g id="ytick_36">
     <g id="line2d_41">
      <g>
       <use xlink:href="#m94be9a02c0" x="45" y="137.88905" style="stroke: #000000; stroke-width: 0.6"/>
      </g>
     </g>
    </g>
    <g id="ytick_37">
     <g id="line2d_42">
      <g>
       <use xlink:href="#m94be9a02c0" x="45" y="131.728368" style="stroke: #000000; stroke-width: 0.6"/>
      </g>
     </g>
    </g>
    <g id="ytick_38">
     <g id="line2d_43">
      <g>
       <use xlink:href="#m94be9a02c0" x="45" y="126.949773" style="stroke: #000000; stroke-width: 0.6"/>
      </g>
     </g>
    </g>
    <g id="ytick_39">
     <g id="line2d_44">
      <g>
       <use xlink:href="#m94be9a02c0" x="45" y="123.045375" style="stroke: #000000; stroke-width: 0.6"/>
      </g>
     </g>
    </g>
    <g id="ytick_40">
     <g id="line2d_45">
      <g>
       <use xlink:href="#m94be9a02c0" x="45" y="119.744255" style="stroke: #000000; stroke-width: 0.6"/>
      </g>
     </g>
    </g>
    <g id="ytick_41">
     <g id="line2d_46">
      <g>
       <use xlink:href="#m94be9a02c0" x="45" y="116.884694" style="stroke: #000000; stroke-width: 0.6"/>
      </g>
     </g>
    </g>
    <g id="ytick_42">
     <g id="line2d_47">
      <g>
       <use xlink:href="#m94be9a02c0" x="45" y="114.362383" style="stroke: #000000; stroke-width: 0.6"/>
      </g>
     </g>
    </g>
    <g id="ytick_43">
     <g id="line2d_48">
      <g>
       <use xlink:href="#m94be9a02c0" x="45" y="97.262424" style="stroke: #000000; stroke-width: 0.6"/>
      </g>
     </g>
    </g>
    <g id="ytick_44">
     <g id="line2d_49">
      <g>
       <use xlink:href="#m94be9a02c0" x="45" y="88.579431" style="stroke: #000000; stroke-width: 0.6"/>
      </g>
     </g>
    </g>
    <g id="ytick_45">
     <g id="line2d_50">
      <g>
       <use xlink:href="#m94be9a02c0" x="45" y="82.418749" style="stroke: #000000; stroke-width: 0.6"/>
      </g>
     </g>
    </g>
    <g id="ytick_46">
     <g id="line2d_51">
      <g>
       <use xlink:href="#m94be9a02c0" x="45" y="77.640153" style="stroke: #000000; stroke-width: 0.6"/>
      </g>
     </g>
    </g>
    <g id="ytick_47">
     <g id="line2d_52">
      <g>
       <use xlink:href="#m94be9a02c0" x="45" y="73.735756" style="stroke: #000000; stroke-width: 0.6"/>
      </g>
     </g>
    </g>
    <g id="ytick_48">
     <g id="line2d_53">
      <g>
       <use xlink:href="#m94be9a02c0" x="45" y="70.434636" style="stroke: #000000; stroke-width: 0.6"/>
      </g>
     </g>
    </g>
    <g id="ytick_49">
     <g id="line2d_54">
      <g>
       <use xlink:href="#m94be9a02c0" x="45" y="67.575075" style="stroke: #000000; stroke-width: 0.6"/>
      </g>
     </g>
    </g>
    <g id="ytick_50">
     <g id="line2d_55">
      <g>
       <use xlink:href="#m94be9a02c0" x="45" y="65.052763" style="stroke: #000000; stroke-width: 0.6"/>
      </g>
     </g>
    </g>
    <g id="ytick_51">
     <g id="line2d_56">
      <g>
       <use xlink:href="#m94be9a02c0" x="45" y="47.952805" style="stroke: #000000; stroke-width: 0.6"/>
      </g>
     </g>
    </g>
   </g>
   <g id="line2d_57">
    <path d="M 83.045455 186.681281 
L 93.724882 168.528569 
L 104.404309 153.342819 
L 115.083731 174.892539 
L 125.763158 159.00217 
L 136.442586 250.515784 
L 147.122007 187.728726 
L 157.801434 179.405297 
L 168.480862 186.13631 
L 179.160288 184.716331 
L 189.839714 178.556433 
L 200.519138 188.667432 
L 211.198566 183.232774 
L 221.877993 173.733804 
L 232.557414 169.406901 
L 243.236842 180.960675 
L 253.916269 179.505476 
L 264.595691 163.297629 
L 275.275118 175.954077 
L 285.954545 204.226251 
" clip-path="url(#p915b720876)" style="fill: none; stroke: #1f77b4; stroke-width: 1.5; stroke-linecap: square"/>
   </g>
   <g id="line2d_58">
    <path d="M 57.681818 55.8 
L 59.588863 58.518735 
L 60.860219 60.614331 
L 62.767264 63.753793 
L 63.402942 65.007728 
L 64.038619 65.939027 
L 64.674309 67.360438 
L 65.309987 68.376241 
L 68.488375 75.192792 
L 72.302453 85.377209 
L 72.938143 87.480227 
L 73.573821 89.978985 
L 74.209498 91.832884 
L 75.480866 96.768208 
L 76.752221 103.422443 
L 77.387899 106.234688 
L 78.023577 110.145811 
L 78.659254 112.342964 
L 80.566299 127.3304 
L 81.201977 134.864485 
L 81.837655 140.102729 
L 82.473333 162.584327 
L 83.109022 178.219546 
L 83.7447 170.206882 
L 84.380384 166.491703 
L 85.016061 151.132307 
L 85.651745 150.325744 
L 86.287423 144.367987 
L 86.923101 147.892926 
L 87.558784 140.274831 
L 88.194462 140.171718 
L 88.83014 140.65987 
L 89.465823 149.251527 
L 90.101501 147.989626 
L 90.737185 155.177729 
L 91.372862 146.801095 
L 92.00854 149.021555 
L 92.644224 154.450761 
L 93.279902 160.862484 
L 93.915579 197.837528 
L 94.551263 212.123739 
L 95.186941 171.684779 
L 95.822624 193.956711 
L 96.458302 181.582376 
L 97.09398 157.033447 
L 97.729663 162.170069 
L 98.365347 150.696053 
L 99.001025 154.545613 
L 99.636709 147.612471 
L 100.272386 155.396548 
L 100.90807 152.352416 
L 101.543748 146.884417 
L 102.179425 147.243469 
L 102.815109 150.112986 
L 103.450781 145.642172 
L 104.086458 145.746978 
L 104.722142 155.699966 
L 105.35782 155.544381 
L 105.993504 147.222185 
L 106.629181 157.478197 
L 107.264859 159.930797 
L 107.900543 171.107016 
L 108.536226 169.10379 
L 109.171904 162.057584 
L 109.807588 171.036628 
L 110.443266 195.997082 
L 111.078949 179.386437 
L 111.714627 221.428462 
L 112.350305 188.712734 
L 112.985988 190.058211 
L 113.621666 174.169229 
L 114.257344 174.128668 
L 114.893027 201.682357 
L 115.528705 183.381544 
L 116.164389 181.228118 
L 116.800067 159.260792 
L 117.435744 160.4127 
L 118.071428 162.360706 
L 118.707106 166.9108 
L 119.342783 155.087557 
L 119.978467 158.204988 
L 120.614145 156.151854 
L 121.249829 161.382077 
L 121.885506 157.449735 
L 122.521184 160.217785 
L 123.156868 154.855119 
L 123.792545 154.969285 
L 124.428223 156.127125 
L 125.063907 158.753969 
L 125.699584 155.446761 
L 126.335268 177.744131 
L 126.970946 162.79239 
L 127.606623 183.567374 
L 128.242307 173.381845 
L 128.877991 159.595955 
L 129.513669 190.848544 
L 130.149352 170.086721 
L 130.78503 170.674708 
L 131.420714 166.242052 
L 132.056391 166.066042 
L 132.692069 213.333794 
L 133.327753 189.884536 
L 133.963431 207.768817 
L 134.599111 180.204717 
L 135.234792 179.087813 
L 136.50615 207.259631 
L 137.141831 182.606942 
L 137.777512 172.906497 
L 138.413193 166.598964 
L 139.04887 163.993172 
L 139.684551 215.764826 
L 140.320232 170.973781 
L 140.955909 185.046073 
L 141.59159 175.484936 
L 142.227271 193.938676 
L 142.862951 160.123047 
L 143.498632 191.374457 
L 144.13431 164.114043 
L 144.769991 166.618853 
L 145.405671 167.319685 
L 146.041349 186.615947 
L 146.67703 161.214301 
L 147.31271 171.109457 
L 147.948391 173.963205 
L 148.584072 253.668979 
L 149.219749 171.586432 
L 149.85543 187.803856 
L 150.491111 213.105714 
L 151.126789 169.121505 
L 151.762469 185.282065 
L 152.39815 208.188508 
L 153.033831 203.251073 
L 153.669511 233.155975 
L 154.305195 188.159919 
L 154.940876 199.386488 
L 155.576557 182.428943 
L 156.212234 186.802059 
L 156.847915 174.23424 
L 157.483596 232.711622 
L 158.119276 203.709819 
L 158.754957 167.610045 
L 159.390635 197.288371 
L 160.026315 219.727105 
L 160.661995 191.189291 
L 161.297675 175.075042 
L 161.933355 211.800982 
L 162.569035 212.042596 
L 163.204716 199.919296 
L 163.840395 179.416131 
L 164.476068 177.933847 
L 165.111749 190.390285 
L 165.747428 182.246575 
L 166.383109 180.374683 
L 167.018788 214.010917 
L 167.654469 192.989526 
L 168.29015 194.40434 
L 168.925829 192.143267 
L 169.561514 216.020121 
L 170.197195 217.584958 
L 172.104235 183.1959 
L 172.739914 227.434905 
L 173.375594 172.144409 
L 174.011274 179.719133 
L 174.64696 191.036815 
L 175.28264 247.316347 
L 175.91832 223.077796 
L 176.554 227.814058 
L 177.18968 188.778816 
L 177.82536 170.739996 
L 178.46104 165.381841 
L 179.09672 166.896598 
L 179.732393 205.170032 
L 180.368073 187.486445 
L 181.003753 174.629986 
L 181.639433 158.981204 
L 182.275114 168.33967 
L 182.910794 174.894215 
L 183.546474 164.239505 
L 184.182154 177.020785 
L 184.817839 183.968082 
L 185.453519 160.719635 
L 186.089199 179.365493 
L 186.724879 174.315087 
L 187.360559 204.380838 
L 187.996239 162.583037 
L 188.631919 162.113078 
L 189.2676 167.727758 
L 189.903285 197.681814 
L 190.538964 271.353976 
L 191.810325 166.269686 
L 192.446005 171.551174 
L 193.081685 167.295275 
L 193.717365 174.012013 
L 194.353045 182.56795 
L 194.98873 196.754189 
L 195.62441 192.571379 
L 196.26009 184.99877 
L 196.895771 179.836176 
L 197.53145 196.116217 
L 198.167131 186.948706 
L 198.802811 194.918279 
L 199.438491 178.714113 
L 200.074164 187.390371 
L 200.709844 172.19611 
L 201.345524 171.534676 
L 201.981204 199.049835 
L 202.616884 175.187183 
L 203.252564 209.914358 
L 203.888245 172.184792 
L 204.523924 165.172613 
L 205.159609 172.925498 
L 205.79529 167.361127 
L 206.430969 169.592019 
L 207.06665 161.093569 
L 207.702329 189.953175 
L 208.33801 163.892943 
L 208.973691 188.286903 
L 209.60937 187.344883 
L 210.245049 201.945998 
L 210.88073 164.418751 
L 211.51641 211.029471 
L 212.152088 170.245622 
L 212.787769 195.567344 
L 213.42345 206.32514 
L 214.05913 182.629618 
L 214.694811 190.679225 
L 215.330489 186.277121 
L 215.966169 173.846378 
L 216.60185 201.188306 
L 217.237528 175.41545 
L 217.873208 184.020008 
L 219.14457 171.159659 
L 219.780251 209.669133 
L 220.415928 205.499376 
L 221.051609 178.328378 
L 221.68729 169.874699 
L 222.322967 226.771747 
L 222.958648 181.786241 
L 223.594329 191.505852 
L 224.230009 174.527195 
L 224.86569 182.386412 
L 226.137049 175.485236 
L 226.772729 193.742328 
L 227.408407 159.000666 
L 228.044088 158.70287 
L 228.679768 171.041281 
L 229.315449 170.519625 
L 229.95113 176.49191 
L 230.586807 192.975596 
L 231.222488 199.355199 
L 231.858169 165.85435 
L 232.493847 185.992023 
L 233.129527 192.856198 
L 233.765208 177.677703 
L 234.400889 187.824113 
L 235.036569 191.694774 
L 235.672253 183.013816 
L 236.307931 197.723463 
L 236.943615 223.134753 
L 237.579292 217.064252 
L 238.214976 186.759328 
L 238.850654 178.278358 
L 239.486331 192.955428 
L 240.122015 230.938063 
L 240.757693 185.138401 
L 241.39337 198.413239 
L 242.029054 197.138135 
L 242.664732 209.978916 
L 243.300416 165.661008 
L 243.936093 192.20393 
L 244.571771 271.237361 
L 245.207455 181.649586 
L 245.843132 193.893709 
L 246.47881 212.899173 
L 247.114494 169.599478 
L 247.750171 175.502057 
L 248.385855 161.881096 
L 249.021533 167.974353 
L 249.657211 190.448303 
L 250.292894 183.341651 
L 250.928572 163.391384 
L 251.56425 162.094703 
L 252.199933 164.291672 
L 252.835611 161.77424 
L 253.471295 165.516092 
L 254.106973 175.986582 
L 254.74265 246.659848 
L 255.378334 200.051409 
L 256.014012 174.134821 
L 256.649689 176.646799 
L 257.285373 191.486132 
L 257.921051 188.354341 
L 258.556734 206.773243 
L 259.192412 175.493515 
L 259.82809 202.793333 
L 260.463774 179.999631 
L 261.099451 175.089059 
L 261.735129 174.28341 
L 262.370813 176.06529 
L 263.00649 181.103282 
L 263.642174 175.409067 
L 264.277852 168.197092 
L 264.913529 152.148766 
L 265.549213 164.445811 
L 266.184897 165.874371 
L 266.820575 155.91417 
L 267.456258 155.508012 
L 268.091936 153.534805 
L 268.72762 152.396971 
L 269.363297 154.587453 
L 269.998975 174.816114 
L 270.634659 161.67344 
L 271.270337 158.625208 
L 271.906014 170.230162 
L 272.541698 189.666331 
L 273.177376 164.302122 
L 273.813059 236.941628 
L 274.448737 190.048629 
L 275.084415 171.1915 
L 275.720098 182.604191 
L 276.355776 181.793796 
L 276.991454 168.821234 
L 277.627138 163.16778 
L 278.262815 151.531644 
L 278.898499 148.363405 
L 279.534177 152.733974 
L 280.169854 158.381616 
L 280.805538 154.605163 
L 281.441222 147.048442 
L 282.076899 150.421939 
L 282.712583 148.27872 
L 283.348261 152.523372 
L 283.983945 163.819151 
L 284.619622 185.077314 
L 285.2553 187.918051 
L 285.890984 307.8 
L 286.526655 152.887694 
L 287.162333 151.182975 
L 287.798011 137.305293 
L 288.433701 129.81823 
L 289.069378 126.364328 
L 289.705056 120.05953 
L 290.340734 118.381822 
L 291.612101 109.179233 
L 292.247779 106.637025 
L 294.154824 97.574703 
L 295.426179 92.978853 
L 296.697535 89.088743 
L 297.96889 84.792719 
L 299.240257 81.383425 
L 299.875935 79.480793 
L 303.690025 70.916464 
L 306.868426 64.634367 
L 310.682504 58.526141 
L 311.318182 57.563555 
L 311.318182 57.563555 
" clip-path="url(#p915b720876)" style="fill: none; stroke: #ff7f0e; stroke-width: 1.5; stroke-linecap: square"/>
   </g>
   <g id="patch_3">
    <path d="M 45 320.4 
L 45 43.2 
" style="fill: none; stroke: #000000; stroke-width: 0.8; stroke-linejoin: miter; stroke-linecap: square"/>
   </g>
   <g id="patch_4">
    <path d="M 324 320.4 
L 324 43.2 
" style="fill: none; stroke: #000000; stroke-width: 0.8; stroke-linejoin: miter; stroke-linecap: square"/>
   </g>
   <g id="patch_5">
    <path d="M 45 320.4 
L 324 320.4 
" style="fill: none; stroke: #000000; stroke-width: 0.8; stroke-linejoin: miter; stroke-linecap: square"/>
   </g>
   <g id="patch_6">
    <path d="M 45 43.2 
L 324 43.2 
" style="fill: none; stroke: #000000; stroke-width: 0.8; stroke-linejoin: miter; stroke-linecap: square"/>
   </g>
   <g id="text_12">
    <!-- Prediction Error -->
    <g transform="translate(138.166875 37.2)scale(0.12 -0.12)">
     <defs>
      <path id="DejaVuSans-50" d="M 1259 4147 
L 1259 2394 
L 2053 2394 
Q 2494 2394 2734 2622 
Q 2975 2850 2975 3272 
Q 2975 3691 2734 3919 
Q 2494 4147 2053 4147 
L 1259 4147 
z
M 628 4666 
L 2053 4666 
Q 2838 4666 3239 4311 
Q 3641 3956 3641 3272 
Q 3641 2581 3239 2228 
Q 2838 1875 2053 1875 
L 1259 1875 
L 1259 0 
L 628 0 
L 628 4666 
z
" transform="scale(0.015625)"/>
      <path id="DejaVuSans-72" d="M 2631 2963 
Q 2534 3019 2420 3045 
Q 2306 3072 2169 3072 
Q 1681 3072 1420 2755 
Q 1159 2438 1159 1844 
L 1159 0 
L 581 0 
L 581 3500 
L 1159 3500 
L 1159 2956 
Q 1341 3275 1631 3429 
Q 1922 3584 2338 3584 
Q 2397 3584 2469 3576 
Q 2541 3569 2628 3553 
L 2631 2963 
z
" transform="scale(0.015625)"/>
      <path id="DejaVuSans-65" d="M 3597 1894 
L 3597 1613 
L 953 1613 
Q 991 1019 1311 708 
Q 1631 397 2203 397 
Q 2534 397 2845 478 
Q 3156 559 3463 722 
L 3463 178 
Q 3153 47 2828 -22 
Q 2503 -91 2169 -91 
Q 1331 -91 842 396 
Q 353 884 353 1716 
Q 353 2575 817 3079 
Q 1281 3584 2069 3584 
Q 2775 3584 3186 3129 
Q 3597 2675 3597 1894 
z
M 3022 2063 
Q 3016 2534 2758 2815 
Q 2500 3097 2075 3097 
Q 1594 3097 1305 2825 
Q 1016 2553 972 2059 
L 3022 2063 
z
" transform="scale(0.015625)"/>
      <path id="DejaVuSans-64" d="M 2906 2969 
L 2906 4863 
L 3481 4863 
L 3481 0 
L 2906 0 
L 2906 525 
Q 2725 213 2448 61 
Q 2172 -91 1784 -91 
Q 1150 -91 751 415 
Q 353 922 353 1747 
Q 353 2572 751 3078 
Q 1150 3584 1784 3584 
Q 2172 3584 2448 3432 
Q 2725 3281 2906 2969 
z
M 947 1747 
Q 947 1113 1208 752 
Q 1469 391 1925 391 
Q 2381 391 2643 752 
Q 2906 1113 2906 1747 
Q 2906 2381 2643 2742 
Q 2381 3103 1925 3103 
Q 1469 3103 1208 2742 
Q 947 2381 947 1747 
z
" transform="scale(0.015625)"/>
      <path id="DejaVuSans-69" d="M 603 3500 
L 1178 3500 
L 1178 0 
L 603 0 
L 603 3500 
z
M 603 4863 
L 1178 4863 
L 1178 4134 
L 603 4134 
L 603 4863 
z
" transform="scale(0.015625)"/>
      <path id="DejaVuSans-63" d="M 3122 3366 
L 3122 2828 
Q 2878 2963 2633 3030 
Q 2388 3097 2138 3097 
Q 1578 3097 1268 2742 
Q 959 2388 959 1747 
Q 959 1106 1268 751 
Q 1578 397 2138 397 
Q 2388 397 2633 464 
Q 2878 531 3122 666 
L 3122 134 
Q 2881 22 2623 -34 
Q 2366 -91 2075 -91 
Q 1284 -91 818 406 
Q 353 903 353 1747 
Q 353 2603 823 3093 
Q 1294 3584 2113 3584 
Q 2378 3584 2631 3529 
Q 2884 3475 3122 3366 
z
" transform="scale(0.015625)"/>
      <path id="DejaVuSans-74" d="M 1172 4494 
L 1172 3500 
L 2356 3500 
L 2356 3053 
L 1172 3053 
L 1172 1153 
Q 1172 725 1289 603 
Q 1406 481 1766 481 
L 2356 481 
L 2356 0 
L 1766 0 
Q 1100 0 847 248 
Q 594 497 594 1153 
L 594 3053 
L 172 3053 
L 172 3500 
L 594 3500 
L 594 4494 
L 1172 4494 
z
" transform="scale(0.015625)"/>
      <path id="DejaVuSans-6f" d="M 1959 3097 
Q 1497 3097 1228 2736 
Q 959 2375 959 1747 
Q 959 1119 1226 758 
Q 1494 397 1959 397 
Q 2419 397 2687 759 
Q 2956 1122 2956 1747 
Q 2956 2369 2687 2733 
Q 2419 3097 1959 3097 
z
M 1959 3584 
Q 2709 3584 3137 3096 
Q 3566 2609 3566 1747 
Q 3566 888 3137 398 
Q 2709 -91 1959 -91 
Q 1206 -91 779 398 
Q 353 888 353 1747 
Q 353 2609 779 3096 
Q 1206 3584 1959 3584 
z
" transform="scale(0.015625)"/>
      <path id="DejaVuSans-6e" d="M 3513 2113 
L 3513 0 
L 2938 0 
L 2938 2094 
Q 2938 2591 2744 2837 
Q 2550 3084 2163 3084 
Q 1697 3084 1428 2787 
Q 1159 2491 1159 1978 
L 1159 0 
L 581 0 
L 581 3500 
L 1159 3500 
L 1159 2956 
Q 1366 3272 1645 3428 
Q 1925 3584 2291 3584 
Q 2894 3584 3203 3211 
Q 3513 2838 3513 2113 
z
" transform="scale(0.015625)"/>
      <path id="DejaVuSans-20" transform="scale(0.015625)"/>
      <path id="DejaVuSans-45" d="M 628 4666 
L 3578 4666 
L 3578 4134 
L 1259 4134 
L 1259 2753 
L 3481 2753 
L 3481 2222 
L 1259 2222 
L 1259 531 
L 3634 531 
L 3634 0 
L 628 0 
L 628 4666 
z
" transform="scale(0.015625)"/>
     </defs>
     <use xlink:href="#DejaVuSans-50"/>
     <use xlink:href="#DejaVuSans-72" x="58.552734"/>
     <use xlink:href="#DejaVuSans-65" x="97.416016"/>
     <use xlink:href="#DejaVuSans-64" x="158.939453"/>
     <use xlink:href="#DejaVuSans-69" x="222.416016"/>
     <use xlink:href="#DejaVuSans-63" x="250.199219"/>
     <use xlink:href="#DejaVuSans-74" x="305.179688"/>
     <use xlink:href="#DejaVuSans-69" x="344.388672"/>
     <use xlink:href="#DejaVuSans-6f" x="372.171875"/>
     <use xlink:href="#DejaVuSans-6e" x="433.353516"/>
     <use xlink:href="#DejaVuSans-20" x="496.732422"/>
     <use xlink:href="#DejaVuSans-45" x="528.519531"/>
     <use xlink:href="#DejaVuSans-72" x="591.703125"/>
     <use xlink:href="#DejaVuSans-72" x="631.066406"/>
     <use xlink:href="#DejaVuSans-6f" x="669.929688"/>
     <use xlink:href="#DejaVuSans-72" x="731.111328"/>
    </g>
   </g>
   <g id="legend_1">
    <g id="patch_7">
     <path d="M 52 315.4 
L 134.657813 315.4 
Q 136.657813 315.4 136.657813 313.4 
L 136.657813 285.04375 
Q 136.657813 283.04375 134.657813 283.04375 
L 52 283.04375 
Q 50 283.04375 50 285.04375 
L 50 313.4 
Q 50 315.4 52 315.4 
z
" style="fill: #ffffff; opacity: 0.8; stroke: #cccccc; stroke-linejoin: miter"/>
    </g>
    <g id="line2d_59">
     <path d="M 54 291.142187 
L 64 291.142187 
L 74 291.142187 
" style="fill: none; stroke: #1f77b4; stroke-width: 1.5; stroke-linecap: square"/>
    </g>
    <g id="text_13">
     <!-- train error -->
     <g transform="translate(82 294.642187)scale(0.1 -0.1)">
      <defs>
       <path id="DejaVuSans-61" d="M 2194 1759 
Q 1497 1759 1228 1600 
Q 959 1441 959 1056 
Q 959 750 1161 570 
Q 1363 391 1709 391 
Q 2188 391 2477 730 
Q 2766 1069 2766 1631 
L 2766 1759 
L 2194 1759 
z
M 3341 1997 
L 3341 0 
L 2766 0 
L 2766 531 
Q 2569 213 2275 61 
Q 1981 -91 1556 -91 
Q 1019 -91 701 211 
Q 384 513 384 1019 
Q 384 1609 779 1909 
Q 1175 2209 1959 2209 
L 2766 2209 
L 2766 2266 
Q 2766 2663 2505 2880 
Q 2244 3097 1772 3097 
Q 1472 3097 1187 3025 
Q 903 2953 641 2809 
L 641 3341 
Q 956 3463 1253 3523 
Q 1550 3584 1831 3584 
Q 2591 3584 2966 3190 
Q 3341 2797 3341 1997 
z
" transform="scale(0.015625)"/>
      </defs>
      <use xlink:href="#DejaVuSans-74"/>
      <use xlink:href="#DejaVuSans-72" x="39.208984"/>
      <use xlink:href="#DejaVuSans-61" x="80.322266"/>
      <use xlink:href="#DejaVuSans-69" x="141.601562"/>
      <use xlink:href="#DejaVuSans-6e" x="169.384766"/>
      <use xlink:href="#DejaVuSans-20" x="232.763672"/>
      <use xlink:href="#DejaVuSans-65" x="264.550781"/>
      <use xlink:href="#DejaVuSans-72" x="326.074219"/>
      <use xlink:href="#DejaVuSans-72" x="365.4375"/>
      <use xlink:href="#DejaVuSans-6f" x="404.300781"/>
      <use xlink:href="#DejaVuSans-72" x="465.482422"/>
     </g>
    </g>
    <g id="line2d_60">
     <path d="M 54 305.820312 
L 64 305.820312 
L 74 305.820312 
" style="fill: none; stroke: #ff7f0e; stroke-width: 1.5; stroke-linecap: square"/>
    </g>
    <g id="text_14">
     <!-- test error -->
     <g transform="translate(82 309.320312)scale(0.1 -0.1)">
      <defs>
       <path id="DejaVuSans-73" d="M 2834 3397 
L 2834 2853 
Q 2591 2978 2328 3040 
Q 2066 3103 1784 3103 
Q 1356 3103 1142 2972 
Q 928 2841 928 2578 
Q 928 2378 1081 2264 
Q 1234 2150 1697 2047 
L 1894 2003 
Q 2506 1872 2764 1633 
Q 3022 1394 3022 966 
Q 3022 478 2636 193 
Q 2250 -91 1575 -91 
Q 1294 -91 989 -36 
Q 684 19 347 128 
L 347 722 
Q 666 556 975 473 
Q 1284 391 1588 391 
Q 1994 391 2212 530 
Q 2431 669 2431 922 
Q 2431 1156 2273 1281 
Q 2116 1406 1581 1522 
L 1381 1569 
Q 847 1681 609 1914 
Q 372 2147 372 2553 
Q 372 3047 722 3315 
Q 1072 3584 1716 3584 
Q 2034 3584 2315 3537 
Q 2597 3491 2834 3397 
z
" transform="scale(0.015625)"/>
      </defs>
      <use xlink:href="#DejaVuSans-74"/>
      <use xlink:href="#DejaVuSans-65" x="39.208984"/>
      <use xlink:href="#DejaVuSans-73" x="100.732422"/>
      <use xlink:href="#DejaVuSans-74" x="152.832031"/>
      <use xlink:href="#DejaVuSans-20" x="192.041016"/>
      <use xlink:href="#DejaVuSans-65" x="223.828125"/>
      <use xlink:href="#DejaVuSans-72" x="285.351562"/>
      <use xlink:href="#DejaVuSans-72" x="324.714844"/>
      <use xlink:href="#DejaVuSans-6f" x="363.578125"/>
      <use xlink:href="#DejaVuSans-72" x="424.759766"/>
     </g>
    </g>
   </g>
  </g>
 </g>
 <defs>
  <clipPath id="p915b720876">
   <rect x="45" y="43.2" width="279" height="277.2"/>
  </clipPath>
 </defs>
</svg>
