<?xml version="1.0" encoding="utf-8" standalone="no"?>
<!DOCTYPE svg PUBLIC "-//W3C//DTD SVG 1.1//EN"
  "http://www.w3.org/Graphics/SVG/1.1/DTD/svg11.dtd">
<svg xmlns:xlink="http://www.w3.org/1999/xlink" width="360pt" height="360pt" viewBox="0 0 360 360" xmlns="http://www.w3.org/2000/svg" version="1.1">
 <metadata>
  <rdf:RDF xmlns:dc="http://purl.org/dc/elements/1.1/" xmlns:cc="http://creativecommons.org/ns#" xmlns:rdf="http://www.w3.org/1999/02/22-rdf-syntax-ns#">
   <cc:Work>
    <dc:type rdf:resource="http://purl.org/dc/dcmitype/StillImage"/>
    <dc:date>2022-11-15T19:56:57.480357</dc:date>
    <dc:format>image/svg+xml</dc:format>
    <dc:creator>
     <cc:Agent>
      <dc:title>Matplotlib v3.5.3, https://matplotlib.org/</dc:title>
     </cc:Agent>
    </dc:creator>
   </cc:Work>
  </rdf:RDF>
 </metadata>
 <defs>
  <style type="text/css">*{stroke-linejoin: round; stroke-linecap: butt}</style>
 </defs>
 <g id="figure_1">
  <g id="patch_1">
   <path d="M 0 360 
L 360 360 
L 360 0 
L 0 0 
z
" style="fill: #ffffff"/>
  </g>
  <g id="patch_2">
   <path d="M 45.9 320.4 
L 323.1 320.4 
L 323.1 43.2 
L 45.9 43.2 
z
" style="fill: #ffffff"/>
  </g>
  <g id="pane3d_1">
   <g id="patch_3">
    <path d="M 66.830512 252.051364 
L 158.371005 175.320307 
L 157.098504 64.660407 
L 61.177327 134.659314 
" style="fill: #f2f2f2; opacity: 0.5; stroke: #f2f2f2; stroke-linejoin: miter"/>
   </g>
  </g>
  <g id="pane3d_2">
   <g id="patch_4">
    <path d="M 158.371005 175.320307 
L 305.260834 218.015381 
L 310.502814 103.543928 
L 157.098504 64.660407 
" style="fill: #e6e6e6; opacity: 0.5; stroke: #e6e6e6; stroke-linejoin: miter"/>
   </g>
  </g>
  <g id="pane3d_3">
   <g id="patch_5">
    <path d="M 66.830512 252.051364 
L 222.540905 302.906378 
L 305.260834 218.015381 
L 158.371005 175.320307 
" style="fill: #ececec; opacity: 0.5; stroke: #ececec; stroke-linejoin: miter"/>
   </g>
  </g>
  <g id="axis3d_1">
   <g id="line2d_1">
    <path d="M 66.830512 252.051364 
L 222.540905 302.906378 
" style="fill: none; stroke: #000000; stroke-width: 0.8; stroke-linecap: square"/>
   </g>
   <g id="Line3DCollection_1">
    <path d="M 89.295647 259.388477 
L 179.643744 181.503453 
L 179.2746 70.281401 
" style="fill: none; stroke: #b0b0b0; stroke-width: 0.8"/>
    <path d="M 115.721231 268.019072 
L 204.632006 188.766554 
L 205.341311 76.888553 
" style="fill: none; stroke: #b0b0b0; stroke-width: 0.8"/>
    <path d="M 142.63321 276.808525 
L 230.041717 196.152154 
L 231.86686 83.612006 
" style="fill: none; stroke: #b0b0b0; stroke-width: 0.8"/>
    <path d="M 170.045136 285.76126 
L 255.883631 203.663378 
L 258.863468 90.454859 
" style="fill: none; stroke: #b0b0b0; stroke-width: 0.8"/>
    <path d="M 197.971073 294.881871 
L 282.16887 211.303459 
L 286.343796 97.420321 
" style="fill: none; stroke: #b0b0b0; stroke-width: 0.8"/>
   </g>
   <g id="xtick_1">
    <g id="line2d_2">
     <path d="M 90.082682 258.710009 
L 87.718184 260.748336 
" style="fill: none; stroke: #000000; stroke-width: 0.8; stroke-linecap: square"/>
    </g>
    <g id="text_1">
     <!-- −2 -->
     <g transform="translate(74.409205 282.781779)scale(0.1 -0.1)">
      <defs>
       <path id="DejaVuSans-2212" d="M 678 2272 
L 4684 2272 
L 4684 1741 
L 678 1741 
L 678 2272 
z
" transform="scale(0.015625)"/>
       <path id="DejaVuSans-32" d="M 1228 531 
L 3431 531 
L 3431 0 
L 469 0 
L 469 531 
Q 828 903 1448 1529 
Q 2069 2156 2228 2338 
Q 2531 2678 2651 2914 
Q 2772 3150 2772 3378 
Q 2772 3750 2511 3984 
Q 2250 4219 1831 4219 
Q 1534 4219 1204 4116 
Q 875 4013 500 3803 
L 500 4441 
Q 881 4594 1212 4672 
Q 1544 4750 1819 4750 
Q 2544 4750 2975 4387 
Q 3406 4025 3406 3419 
Q 3406 3131 3298 2873 
Q 3191 2616 2906 2266 
Q 2828 2175 2409 1742 
Q 1991 1309 1228 531 
z
" transform="scale(0.015625)"/>
      </defs>
      <use xlink:href="#DejaVuSans-2212"/>
      <use xlink:href="#DejaVuSans-32" x="83.789062"/>
     </g>
    </g>
   </g>
   <g id="xtick_2">
    <g id="line2d_3">
     <path d="M 116.496322 267.328179 
L 114.167679 269.403864 
" style="fill: none; stroke: #000000; stroke-width: 0.8; stroke-linecap: square"/>
    </g>
    <g id="text_2">
     <!-- −1 -->
     <g transform="translate(100.86159 291.588149)scale(0.1 -0.1)">
      <defs>
       <path id="DejaVuSans-31" d="M 794 531 
L 1825 531 
L 1825 4091 
L 703 3866 
L 703 4441 
L 1819 4666 
L 2450 4666 
L 2450 531 
L 3481 531 
L 3481 0 
L 794 0 
L 794 531 
z
" transform="scale(0.015625)"/>
      </defs>
      <use xlink:href="#DejaVuSans-2212"/>
      <use xlink:href="#DejaVuSans-31" x="83.789062"/>
     </g>
    </g>
   </g>
   <g id="xtick_3">
    <g id="line2d_4">
     <path d="M 143.395781 276.104861 
L 141.10472 278.218942 
" style="fill: none; stroke: #000000; stroke-width: 0.8; stroke-linecap: square"/>
    </g>
    <g id="text_3">
     <!-- 0 -->
     <g transform="translate(131.992483 300.557202)scale(0.1 -0.1)">
      <defs>
       <path id="DejaVuSans-30" d="M 2034 4250 
Q 1547 4250 1301 3770 
Q 1056 3291 1056 2328 
Q 1056 1369 1301 889 
Q 1547 409 2034 409 
Q 2525 409 2770 889 
Q 3016 1369 3016 2328 
Q 3016 3291 2770 3770 
Q 2525 4250 2034 4250 
z
M 2034 4750 
Q 2819 4750 3233 4129 
Q 3647 3509 3647 2328 
Q 3647 1150 3233 529 
Q 2819 -91 2034 -91 
Q 1250 -91 836 529 
Q 422 1150 422 2328 
Q 422 3509 836 4129 
Q 1250 4750 2034 4750 
z
" transform="scale(0.015625)"/>
      </defs>
      <use xlink:href="#DejaVuSans-30"/>
     </g>
    </g>
   </g>
   <g id="xtick_4">
    <g id="line2d_5">
     <path d="M 170.794587 285.044468 
L 168.542914 287.198019 
" style="fill: none; stroke: #000000; stroke-width: 0.8; stroke-linecap: square"/>
    </g>
    <g id="text_4">
     <!-- 1 -->
     <g transform="translate(159.435865 309.693489)scale(0.1 -0.1)">
      <use xlink:href="#DejaVuSans-31"/>
     </g>
    </g>
   </g>
   <g id="xtick_5">
    <g id="line2d_6">
     <path d="M 198.706776 294.15158 
L 196.496377 296.345718 
" style="fill: none; stroke: #000000; stroke-width: 0.8; stroke-linecap: square"/>
    </g>
    <g id="text_5">
     <!-- 2 -->
     <g transform="translate(187.39576 319.00173)scale(0.1 -0.1)">
      <use xlink:href="#DejaVuSans-32"/>
     </g>
    </g>
   </g>
  </g>
  <g id="axis3d_2">
   <g id="line2d_7">
    <path d="M 305.260834 218.015381 
L 222.540905 302.906378 
" style="fill: none; stroke: #000000; stroke-width: 0.8; stroke-linecap: square"/>
   </g>
   <g id="Line3DCollection_2">
    <path d="M 76.781389 123.272179 
L 81.674657 239.608707 
L 236.004406 289.089513 
" style="fill: none; stroke: #b0b0b0; stroke-width: 0.8"/>
    <path d="M 94.298573 110.488937 
L 98.360589 225.622227 
L 251.115362 273.581956 
" style="fill: none; stroke: #b0b0b0; stroke-width: 0.8"/>
    <path d="M 111.271645 98.102762 
L 114.550307 212.051685 
L 265.753695 258.559425 
" style="fill: none; stroke: #b0b0b0; stroke-width: 0.8"/>
    <path d="M 127.72557 86.095437 
L 130.265621 198.878797 
L 279.941236 243.999517 
" style="fill: none; stroke: #b0b0b0; stroke-width: 0.8"/>
    <path d="M 143.683806 74.449843 
L 145.527081 186.086339 
L 293.698494 229.881186 
" style="fill: none; stroke: #b0b0b0; stroke-width: 0.8"/>
   </g>
   <g id="xtick_6">
    <g id="line2d_8">
     <path d="M 234.704397 288.672708 
L 238.607761 289.924194 
" style="fill: none; stroke: #000000; stroke-width: 0.8; stroke-linecap: square"/>
    </g>
    <g id="text_6">
     <!-- −2 -->
     <g transform="translate(241.414026 309.997986)scale(0.1 -0.1)">
      <use xlink:href="#DejaVuSans-2212"/>
      <use xlink:href="#DejaVuSans-32" x="83.789062"/>
     </g>
    </g>
   </g>
   <g id="xtick_7">
    <g id="line2d_9">
     <path d="M 249.829647 273.178285 
L 253.690038 274.390315 
" style="fill: none; stroke: #000000; stroke-width: 0.8; stroke-linecap: square"/>
    </g>
    <g id="text_7">
     <!-- −1 -->
     <g transform="translate(256.330301 294.270153)scale(0.1 -0.1)">
      <use xlink:href="#DejaVuSans-2212"/>
      <use xlink:href="#DejaVuSans-31" x="83.789062"/>
     </g>
    </g>
   </g>
   <g id="xtick_8">
    <g id="line2d_10">
     <path d="M 264.482022 258.168279 
L 268.300199 259.342689 
" style="fill: none; stroke: #000000; stroke-width: 0.8; stroke-linecap: square"/>
    </g>
    <g id="text_8">
     <!-- 0 -->
     <g transform="translate(274.969628 279.034509)scale(0.1 -0.1)">
      <use xlink:href="#DejaVuSans-30"/>
     </g>
    </g>
   </g>
   <g id="xtick_9">
    <g id="line2d_11">
     <path d="M 278.683358 243.620322 
L 282.460069 244.758837 
" style="fill: none; stroke: #000000; stroke-width: 0.8; stroke-linecap: square"/>
    </g>
    <g id="text_9">
     <!-- 1 -->
     <g transform="translate(288.973894 264.268306)scale(0.1 -0.1)">
      <use xlink:href="#DejaVuSans-31"/>
     </g>
    </g>
   </g>
   <g id="xtick_10">
    <g id="line2d_12">
     <path d="M 292.454165 229.513401 
L 296.190151 230.617642 
" style="fill: none; stroke: #000000; stroke-width: 0.8; stroke-linecap: square"/>
    </g>
    <g id="text_10">
     <!-- 2 -->
     <g transform="translate(302.553208 249.950176)scale(0.1 -0.1)">
      <use xlink:href="#DejaVuSans-32"/>
     </g>
    </g>
   </g>
  </g>
  <g id="axis3d_3">
   <g id="line2d_13">
    <path d="M 305.260834 218.015381 
L 310.502814 103.543928 
" style="fill: none; stroke: #000000; stroke-width: 0.8; stroke-linecap: square"/>
   </g>
   <g id="Line3DCollection_3">
    <path d="M 306.080106 200.124575 
L 158.17177 157.994383 
L 65.948228 233.730181 
" style="fill: none; stroke: #b0b0b0; stroke-width: 0.8"/>
    <path d="M 306.821164 183.941755 
L 157.99167 142.332371 
L 65.149774 217.149757 
" style="fill: none; stroke: #b0b0b0; stroke-width: 0.8"/>
    <path d="M 307.571602 167.5541 
L 157.809399 126.481643 
L 64.340825 200.351412 
" style="fill: none; stroke: #b0b0b0; stroke-width: 0.8"/>
    <path d="M 308.3316 150.957696 
L 157.624919 110.438768 
L 63.521174 183.330818 
" style="fill: none; stroke: #b0b0b0; stroke-width: 0.8"/>
    <path d="M 309.101341 134.148528 
L 157.438188 94.20023 
L 62.690606 166.083538 
" style="fill: none; stroke: #b0b0b0; stroke-width: 0.8"/>
    <path d="M 309.881013 117.122479 
L 157.249167 77.762429 
L 61.848902 148.605011 
" style="fill: none; stroke: #b0b0b0; stroke-width: 0.8"/>
   </g>
   <g id="xtick_11">
    <g id="line2d_14">
     <path d="M 304.838341 199.770871 
L 308.56661 200.83283 
" style="fill: none; stroke: #000000; stroke-width: 0.8; stroke-linecap: square"/>
    </g>
    <g id="text_11">
     <!-- 1 -->
     <g transform="translate(321.274721 205.151375)scale(0.1 -0.1)">
      <use xlink:href="#DejaVuSans-31"/>
     </g>
    </g>
   </g>
   <g id="xtick_12">
    <g id="line2d_15">
     <path d="M 305.571296 183.59232 
L 309.323914 184.641468 
" style="fill: none; stroke: #000000; stroke-width: 0.8; stroke-linecap: square"/>
    </g>
    <g id="text_12">
     <!-- 2 -->
     <g transform="translate(322.128846 188.999634)scale(0.1 -0.1)">
      <use xlink:href="#DejaVuSans-32"/>
     </g>
    </g>
   </g>
   <g id="xtick_13">
    <g id="line2d_16">
     <path d="M 306.313524 167.209071 
L 310.090811 168.244996 
" style="fill: none; stroke: #000000; stroke-width: 0.8; stroke-linecap: square"/>
    </g>
    <g id="text_13">
     <!-- 3 -->
     <g transform="translate(322.993751 172.64405)scale(0.1 -0.1)">
      <defs>
       <path id="DejaVuSans-33" d="M 2597 2516 
Q 3050 2419 3304 2112 
Q 3559 1806 3559 1356 
Q 3559 666 3084 287 
Q 2609 -91 1734 -91 
Q 1441 -91 1130 -33 
Q 819 25 488 141 
L 488 750 
Q 750 597 1062 519 
Q 1375 441 1716 441 
Q 2309 441 2620 675 
Q 2931 909 2931 1356 
Q 2931 1769 2642 2001 
Q 2353 2234 1838 2234 
L 1294 2234 
L 1294 2753 
L 1863 2753 
Q 2328 2753 2575 2939 
Q 2822 3125 2822 3475 
Q 2822 3834 2567 4026 
Q 2313 4219 1838 4219 
Q 1578 4219 1281 4162 
Q 984 4106 628 3988 
L 628 4550 
Q 988 4650 1302 4700 
Q 1616 4750 1894 4750 
Q 2613 4750 3031 4423 
Q 3450 4097 3450 3541 
Q 3450 3153 3228 2886 
Q 3006 2619 2597 2516 
z
" transform="scale(0.015625)"/>
      </defs>
      <use xlink:href="#DejaVuSans-33"/>
     </g>
    </g>
   </g>
   <g id="xtick_14">
    <g id="line2d_17">
     <path d="M 307.065203 150.617213 
L 310.867485 151.639493 
" style="fill: none; stroke: #000000; stroke-width: 0.8; stroke-linecap: square"/>
    </g>
    <g id="text_14">
     <!-- 4 -->
     <g transform="translate(323.86964 156.080741)scale(0.1 -0.1)">
      <defs>
       <path id="DejaVuSans-34" d="M 2419 4116 
L 825 1625 
L 2419 1625 
L 2419 4116 
z
M 2253 4666 
L 3047 4666 
L 3047 1625 
L 3713 1625 
L 3713 1100 
L 3047 1100 
L 3047 0 
L 2419 0 
L 2419 1100 
L 313 1100 
L 313 1709 
L 2253 4666 
z
" transform="scale(0.015625)"/>
      </defs>
      <use xlink:href="#DejaVuSans-34"/>
     </g>
    </g>
   </g>
   <g id="xtick_15">
    <g id="line2d_18">
     <path d="M 307.826515 133.812737 
L 311.654124 134.820935 
" style="fill: none; stroke: #000000; stroke-width: 0.8; stroke-linecap: square"/>
    </g>
    <g id="text_15">
     <!-- 5 -->
     <g transform="translate(324.756725 139.305724)scale(0.1 -0.1)">
      <defs>
       <path id="DejaVuSans-35" d="M 691 4666 
L 3169 4666 
L 3169 4134 
L 1269 4134 
L 1269 2991 
Q 1406 3038 1543 3061 
Q 1681 3084 1819 3084 
Q 2600 3084 3056 2656 
Q 3513 2228 3513 1497 
Q 3513 744 3044 326 
Q 2575 -91 1722 -91 
Q 1428 -91 1123 -41 
Q 819 9 494 109 
L 494 744 
Q 775 591 1075 516 
Q 1375 441 1709 441 
Q 2250 441 2565 725 
Q 2881 1009 2881 1497 
Q 2881 1984 2565 2268 
Q 2250 2553 1709 2553 
Q 1456 2553 1204 2497 
Q 953 2441 691 2322 
L 691 4666 
z
" transform="scale(0.015625)"/>
      </defs>
      <use xlink:href="#DejaVuSans-35"/>
     </g>
    </g>
   </g>
   <g id="xtick_16">
    <g id="line2d_19">
     <path d="M 308.597645 116.791529 
L 312.450921 117.785196 
" style="fill: none; stroke: #000000; stroke-width: 0.8; stroke-linecap: square"/>
    </g>
    <g id="text_16">
     <!-- 6 -->
     <g transform="translate(325.655222 122.314914)scale(0.1 -0.1)">
      <defs>
       <path id="DejaVuSans-36" d="M 2113 2584 
Q 1688 2584 1439 2293 
Q 1191 2003 1191 1497 
Q 1191 994 1439 701 
Q 1688 409 2113 409 
Q 2538 409 2786 701 
Q 3034 994 3034 1497 
Q 3034 2003 2786 2293 
Q 2538 2584 2113 2584 
z
M 3366 4563 
L 3366 3988 
Q 3128 4100 2886 4159 
Q 2644 4219 2406 4219 
Q 1781 4219 1451 3797 
Q 1122 3375 1075 2522 
Q 1259 2794 1537 2939 
Q 1816 3084 2150 3084 
Q 2853 3084 3261 2657 
Q 3669 2231 3669 1497 
Q 3669 778 3244 343 
Q 2819 -91 2113 -91 
Q 1303 -91 875 529 
Q 447 1150 447 2328 
Q 447 3434 972 4092 
Q 1497 4750 2381 4750 
Q 2619 4750 2861 4703 
Q 3103 4656 3366 4563 
z
" transform="scale(0.015625)"/>
      </defs>
      <use xlink:href="#DejaVuSans-36"/>
     </g>
    </g>
   </g>
  </g>
  <g id="axes_1">
   <g id="Poly3DCollection_1">
    <path d="M 157.255724 116.511609 
L 161.309682 118.588982 
L 167.981234 121.484874 
L 163.963732 119.936513 
z
" clip-path="url(#p7720683422)" style="fill: #f24633; fill-opacity: 0.7"/>
    <path d="M 224.702767 196.741405 
L 228.425025 194.182484 
L 235.259368 195.30752 
L 231.530141 199.445265 
z
" clip-path="url(#p7720683422)" style="fill: #fff4ef; fill-opacity: 0.7"/>
    <path d="M 218.053224 180.921618 
L 221.814314 178.485673 
L 228.425025 194.182484 
L 224.702767 196.741405 
z
" clip-path="url(#p7720683422)" style="fill: #fee8de; fill-opacity: 0.7"/>
    <path d="M 163.963732 119.936513 
L 167.981234 121.484874 
L 174.678447 124.618582 
L 170.696054 123.698345 
z
" clip-path="url(#p7720683422)" style="fill: #f34a36; fill-opacity: 0.7"/>
    <path d="M 170.696054 123.698345 
L 174.678447 124.618582 
L 181.400351 128.230467 
L 177.451186 128.011529 
z
" clip-path="url(#p7720683422)" style="fill: #f5523a; fill-opacity: 0.7"/>
    <path d="M 211.347413 166.672233 
L 215.147046 164.227064 
L 221.814314 178.485673 
L 218.053224 180.921618 
z
" clip-path="url(#p7720683422)" style="fill: #fdc7b2; fill-opacity: 0.7"/>
    <path d="M 220.942168 199.84704 
L 224.702767 196.741405 
L 231.530141 199.445265 
L 227.780729 203.156029 
z
" clip-path="url(#p7720683422)" style="fill: #fff4ee; fill-opacity: 0.7"/>
    <path d="M 231.530141 199.445265 
L 235.259368 195.30752 
L 242.324527 187.088935 
L 238.5985 191.189626 
z
" clip-path="url(#p7720683422)" style="fill: #ffebe2; fill-opacity: 0.7"/>
    <path d="M 177.451186 128.011529 
L 181.400351 128.230467 
L 188.143501 132.556939 
L 184.225383 133.076242 
z
" clip-path="url(#p7720683422)" style="fill: #f75c41; fill-opacity: 0.7"/>
    <path d="M 214.253634 183.996952 
L 218.053224 180.921618 
L 224.702767 196.741405 
L 220.942168 199.84704 
z
" clip-path="url(#p7720683422)" style="fill: #fee7dc; fill-opacity: 0.7"/>
    <path d="M 204.58997 155.288602 
L 208.422625 152.995645 
L 215.147046 164.227064 
L 211.347413 166.672233 
z
" clip-path="url(#p7720683422)" style="fill: #fca588; fill-opacity: 0.7"/>
    <path d="M 184.225383 133.076242 
L 188.143501 132.556939 
L 194.901943 137.854678 
L 191.012793 139.095171 
z
" clip-path="url(#p7720683422)" style="fill: #fa6849; fill-opacity: 0.7"/>
    <path d="M 153.144795 113.718387 
L 157.255724 116.511609 
L 163.963732 119.936513 
L 159.894213 117.798771 
z
" clip-path="url(#p7720683422)" style="fill: #e83429; fill-opacity: 0.7"/>
    <path d="M 197.805143 146.341287 
L 201.666527 144.475271 
L 208.422625 152.995645 
L 204.58997 155.288602 
z
" clip-path="url(#p7720683422)" style="fill: #fc8a6a; fill-opacity: 0.7"/>
    <path d="M 191.012793 139.095171 
L 194.901943 137.854678 
L 201.666527 144.475271 
L 197.805143 146.341287 
z
" clip-path="url(#p7720683422)" style="fill: #fb7656; fill-opacity: 0.7"/>
    <path d="M 159.894213 117.798771 
L 163.963732 119.936513 
L 170.696054 123.698345 
L 166.666758 122.377057 
z
" clip-path="url(#p7720683422)" style="fill: #ee3a2c; fill-opacity: 0.7"/>
    <path d="M 207.510624 169.765982 
L 211.347413 166.672233 
L 218.053224 180.921618 
L 214.253634 183.996952 
z
" clip-path="url(#p7720683422)" style="fill: #fdc5ae; fill-opacity: 0.7"/>
    <path d="M 217.144496 203.55562 
L 220.942168 199.84704 
L 227.780729 203.156029 
L 224.010213 206.342105 
z
" clip-path="url(#p7720683422)" style="fill: #fff4ee; fill-opacity: 0.7"/>
    <path d="M 227.780729 203.156029 
L 231.530141 199.445265 
L 238.5985 191.189626 
L 234.853181 194.868712 
z
" clip-path="url(#p7720683422)" style="fill: #ffece3; fill-opacity: 0.7"/>
    <path d="M 166.666758 122.377057 
L 170.696054 123.698345 
L 177.451186 128.011529 
L 173.459666 127.610848 
z
" clip-path="url(#p7720683422)" style="fill: #f14331; fill-opacity: 0.7"/>
    <path d="M 210.417774 187.721238 
L 214.253634 183.996952 
L 220.942168 199.84704 
L 217.144496 203.55562 
z
" clip-path="url(#p7720683422)" style="fill: #fee7dc; fill-opacity: 0.7"/>
    <path d="M 200.721574 158.143429 
L 204.58997 155.288602 
L 211.347413 166.672233 
L 207.510624 169.765982 
z
" clip-path="url(#p7720683422)" style="fill: #fca285; fill-opacity: 0.7"/>
    <path d="M 173.459666 127.610848 
L 177.451186 128.011529 
L 184.225383 133.076242 
L 180.268447 133.635989 
z
" clip-path="url(#p7720683422)" style="fill: #f4503a; fill-opacity: 0.7"/>
    <path d="M 238.5985 191.189626 
L 242.324527 187.088935 
L 249.432803 180.688727 
L 245.708784 184.950939 
z
" clip-path="url(#p7720683422)" style="fill: #fed8c7; fill-opacity: 0.7"/>
    <path d="M 180.268447 133.635989 
L 184.225383 133.076242 
L 191.012793 139.095171 
L 187.087153 140.580787 
z
" clip-path="url(#p7720683422)" style="fill: #f85f43; fill-opacity: 0.7"/>
    <path d="M 193.90831 148.628462 
L 197.805143 146.341287 
L 204.58997 155.288602 
L 200.721574 158.143429 
z
" clip-path="url(#p7720683422)" style="fill: #fc8666; fill-opacity: 0.7"/>
    <path d="M 187.087153 140.580787 
L 191.012793 139.095171 
L 197.805143 146.341287 
L 193.90831 148.628462 
z
" clip-path="url(#p7720683422)" style="fill: #fb7151; fill-opacity: 0.7"/>
    <path d="M 203.639283 173.468655 
L 207.510624 169.765982 
L 214.253634 183.996952 
L 210.417774 187.721238 
z
" clip-path="url(#p7720683422)" style="fill: #fdc5ae; fill-opacity: 0.7"/>
    <path d="M 213.312078 207.852915 
L 217.144496 203.55562 
L 224.010213 206.342105 
L 220.216404 208.957909 
z
" clip-path="url(#p7720683422)" style="fill: #fff4ee; fill-opacity: 0.7"/>
    <path d="M 148.977286 110.510744 
L 153.144795 113.718387 
L 159.894213 117.798771 
L 155.771215 115.23269 
z
" clip-path="url(#p7720683422)" style="fill: #d72322; fill-opacity: 0.7"/>
    <path d="M 224.010213 206.342105 
L 227.780729 203.156029 
L 234.853181 194.868712 
L 231.088855 197.973838 
z
" clip-path="url(#p7720683422)" style="fill: #ffece3; fill-opacity: 0.7"/>
    <path d="M 206.548627 192.013345 
L 210.417774 187.721238 
L 217.144496 203.55562 
L 213.312078 207.852915 
z
" clip-path="url(#p7720683422)" style="fill: #fee8dd; fill-opacity: 0.7"/>
    <path d="M 155.771215 115.23269 
L 159.894213 117.798771 
L 166.666758 122.377057 
L 162.588455 120.697464 
z
" clip-path="url(#p7720683422)" style="fill: #e02c26; fill-opacity: 0.7"/>
    <path d="M 196.81968 161.482445 
L 200.721574 158.143429 
L 207.510624 169.765982 
L 203.639283 173.468655 
z
" clip-path="url(#p7720683422)" style="fill: #fca285; fill-opacity: 0.7"/>
    <path d="M 234.853181 194.868712 
L 238.5985 191.189626 
L 245.708784 184.950939 
L 241.967654 188.762418 
z
" clip-path="url(#p7720683422)" style="fill: #fed9c9; fill-opacity: 0.7"/>
    <path d="M 162.588455 120.697464 
L 166.666758 122.377057 
L 173.459666 127.610848 
L 169.424025 126.98693 
z
" clip-path="url(#p7720683422)" style="fill: #ea362a; fill-opacity: 0.7"/>
    <path d="M 189.977444 151.234547 
L 193.90831 148.628462 
L 200.721574 158.143429 
L 196.81968 161.482445 
z
" clip-path="url(#p7720683422)" style="fill: #fc8565; fill-opacity: 0.7"/>
    <path d="M 169.424025 126.98693 
L 173.459666 127.610848 
L 180.268447 133.635989 
L 176.271862 134.145515 
z
" clip-path="url(#p7720683422)" style="fill: #f14432; fill-opacity: 0.7"/>
    <path d="M 183.125348 142.202679 
L 187.087153 140.580787 
L 193.90831 148.628462 
L 189.977444 151.234547 
z
" clip-path="url(#p7720683422)" style="fill: #fb6d4d; fill-opacity: 0.7"/>
    <path d="M 176.271862 134.145515 
L 180.268447 133.635989 
L 187.087153 140.580787 
L 183.125348 142.202679 
z
" clip-path="url(#p7720683422)" style="fill: #f6583e; fill-opacity: 0.7"/>
    <path d="M 199.736268 177.636904 
L 203.639283 173.468655 
L 210.417774 187.721238 
L 206.548627 192.013345 
z
" clip-path="url(#p7720683422)" style="fill: #fdc6b0; fill-opacity: 0.7"/>
    <path d="M 245.708784 184.950939 
L 249.432803 180.688727 
L 256.589278 175.382521 
L 252.866933 179.863172 
z
" clip-path="url(#p7720683422)" style="fill: #fcc1a8; fill-opacity: 0.7"/>
    <path d="M 202.64916 196.714206 
L 206.548627 192.013345 
L 213.312078 207.852915 
L 209.44772 212.660731 
z
" clip-path="url(#p7720683422)" style="fill: #feeae0; fill-opacity: 0.7"/>
    <path d="M 209.44772 212.660731 
L 213.312078 207.852915 
L 220.216404 208.957909 
L 216.396222 211.007917 
z
" clip-path="url(#p7720683422)" style="fill: #fff4ee; fill-opacity: 0.7"/>
    <path d="M 220.216404 208.957909 
L 224.010213 206.342105 
L 231.088855 197.973838 
L 227.304327 200.388741 
z
" clip-path="url(#p7720683422)" style="fill: #feeae1; fill-opacity: 0.7"/>
    <path d="M 192.886299 165.123025 
L 196.81968 161.482445 
L 203.639283 173.468655 
L 199.736268 177.636904 
z
" clip-path="url(#p7720683422)" style="fill: #fca285; fill-opacity: 0.7"/>
    <path d="M 231.088855 197.973838 
L 234.853181 194.868712 
L 241.967654 188.762418 
L 238.21128 191.905054 
z
" clip-path="url(#p7720683422)" style="fill: #fed9c9; fill-opacity: 0.7"/>
    <path d="M 144.758557 107.384225 
L 148.977286 110.510744 
L 155.771215 115.23269 
L 151.596975 112.59979 
z
" clip-path="url(#p7720683422)" style="fill: #c5171c; fill-opacity: 0.7"/>
    <path d="M 186.013303 153.966765 
L 189.977444 151.234547 
L 196.81968 161.482445 
L 192.886299 165.123025 
z
" clip-path="url(#p7720683422)" style="fill: #fc8464; fill-opacity: 0.7"/>
    <path d="M 195.803863 182.045446 
L 199.736268 177.636904 
L 206.548627 192.013345 
L 202.64916 196.714206 
z
" clip-path="url(#p7720683422)" style="fill: #fdcab5; fill-opacity: 0.7"/>
    <path d="M 151.596975 112.59979 
L 155.771215 115.23269 
L 162.588455 120.697464 
L 158.460981 118.855793 
z
" clip-path="url(#p7720683422)" style="fill: #d01d1f; fill-opacity: 0.7"/>
    <path d="M 241.967654 188.762418 
L 245.708784 184.950939 
L 252.866933 179.863172 
L 249.130728 183.83298 
z
" clip-path="url(#p7720683422)" style="fill: #fcc3ab; fill-opacity: 0.7"/>
    <path d="M 198.721526 201.642343 
L 202.64916 196.714206 
L 209.44772 212.660731 
L 205.554006 217.873042 
z
" clip-path="url(#p7720683422)" style="fill: #ffece4; fill-opacity: 0.7"/>
    <path d="M 179.126865 143.796808 
L 183.125348 142.202679 
L 189.977444 151.234547 
L 186.013303 153.966765 
z
" clip-path="url(#p7720683422)" style="fill: #fb694a; fill-opacity: 0.7"/>
    <path d="M 158.460981 118.855793 
L 162.588455 120.697464 
L 169.424025 126.98693 
L 165.342895 126.177045 
z
" clip-path="url(#p7720683422)" style="fill: #dc2924; fill-opacity: 0.7"/>
    <path d="M 172.234255 134.517522 
L 176.271862 134.145515 
L 183.125348 142.202679 
L 179.126865 143.796808 
z
" clip-path="url(#p7720683422)" style="fill: #f44f39; fill-opacity: 0.7"/>
    <path d="M 205.554006 217.873042 
L 209.44772 212.660731 
L 216.396222 211.007917 
L 212.546194 212.535196 
z
" clip-path="url(#p7720683422)" style="fill: #fff4ee; fill-opacity: 0.7"/>
    <path d="M 165.342895 126.177045 
L 169.424025 126.98693 
L 176.271862 134.145515 
L 172.234255 134.517522 
z
" clip-path="url(#p7720683422)" style="fill: #ec382b; fill-opacity: 0.7"/>
    <path d="M 252.866933 179.863172 
L 256.589278 175.382521 
L 263.800494 170.661261 
L 260.082449 175.266767 
z
" clip-path="url(#p7720683422)" style="fill: #fcaa8d; fill-opacity: 0.7"/>
    <path d="M 216.396222 211.007917 
L 220.216404 208.957909 
L 227.304327 200.388741 
L 223.497133 202.034168 
z
" clip-path="url(#p7720683422)" style="fill: #fee8de; fill-opacity: 0.7"/>
    <path d="M 188.922368 168.817249 
L 192.886299 165.123025 
L 199.736268 177.636904 
L 195.803863 182.045446 
z
" clip-path="url(#p7720683422)" style="fill: #fca588; fill-opacity: 0.7"/>
    <path d="M 227.304327 200.388741 
L 231.088855 197.973838 
L 238.21128 191.905054 
L 234.439956 194.175338 
z
" clip-path="url(#p7720683422)" style="fill: #fdd7c6; fill-opacity: 0.7"/>
    <path d="M 191.843044 186.457093 
L 195.803863 182.045446 
L 202.64916 196.714206 
L 198.721526 201.642343 
z
" clip-path="url(#p7720683422)" style="fill: #fdcdb9; fill-opacity: 0.7"/>
    <path d="M 182.015412 156.609927 
L 186.013303 153.966765 
L 192.886299 165.123025 
L 188.922368 168.817249 
z
" clip-path="url(#p7720683422)" style="fill: #fc8464; fill-opacity: 0.7"/>
    <path d="M 194.766567 206.705143 
L 198.721526 201.642343 
L 205.554006 217.873042 
L 201.632659 223.431925 
z
" clip-path="url(#p7720683422)" style="fill: #ffefe8; fill-opacity: 0.7"/>
    <path d="M 238.21128 191.905054 
L 241.967654 188.762418 
L 249.130728 183.83298 
L 245.384579 186.997438 
z
" clip-path="url(#p7720683422)" style="fill: #fcc3ab; fill-opacity: 0.7"/>
    <path d="M 175.090376 145.240947 
L 179.126865 143.796808 
L 186.013303 153.966765 
L 182.015412 156.609927 
z
" clip-path="url(#p7720683422)" style="fill: #fa6547; fill-opacity: 0.7"/>
    <path d="M 201.632659 223.431925 
L 205.554006 217.873042 
L 212.546194 212.535196 
L 208.662739 213.620596 
z
" clip-path="url(#p7720683422)" style="fill: #fff3ed; fill-opacity: 0.7"/>
    <path d="M 249.130728 183.83298 
L 252.866933 179.863172 
L 260.082449 175.266767 
L 256.355011 179.258011 
z
" clip-path="url(#p7720683422)" style="fill: #fcad90; fill-opacity: 0.7"/>
    <path d="M 140.497483 104.85953 
L 144.758557 107.384225 
L 151.596975 112.59979 
L 147.377862 110.38761 
z
" clip-path="url(#p7720683422)" style="fill: #b51318; fill-opacity: 0.7"/>
    <path d="M 184.927366 172.341545 
L 188.922368 168.817249 
L 195.803863 182.045446 
L 191.843044 186.457093 
z
" clip-path="url(#p7720683422)" style="fill: #fca689; fill-opacity: 0.7"/>
    <path d="M 168.154535 134.777119 
L 172.234255 134.517522 
L 179.126865 143.796808 
L 175.090376 145.240947 
z
" clip-path="url(#p7720683422)" style="fill: #f24633; fill-opacity: 0.7"/>
    <path d="M 147.377862 110.38761 
L 151.596975 112.59979 
L 158.460981 118.855793 
L 154.287578 117.224031 
z
" clip-path="url(#p7720683422)" style="fill: #c1161b; fill-opacity: 0.7"/>
    <path d="M 260.082449 175.266767 
L 263.800494 170.661261 
L 271.072399 166.206814 
L 267.365059 170.729587 
z
" clip-path="url(#p7720683422)" style="fill: #fc9576; fill-opacity: 0.7"/>
    <path d="M 161.216784 125.384424 
L 165.342895 126.177045 
L 172.234255 134.517522 
L 168.154535 134.777119 
z
" clip-path="url(#p7720683422)" style="fill: #e22e27; fill-opacity: 0.7"/>
    <path d="M 154.287578 117.224031 
L 158.460981 118.855793 
L 165.342895 126.177045 
L 161.216784 125.384424 
z
" clip-path="url(#p7720683422)" style="fill: #d01d1f; fill-opacity: 0.7"/>
    <path d="M 212.546194 212.535196 
L 216.396222 211.007917 
L 223.497133 202.034168 
L 219.663605 202.885687 
z
" clip-path="url(#p7720683422)" style="fill: #fee5d9; fill-opacity: 0.7"/>
    <path d="M 187.853347 190.728689 
L 191.843044 186.457093 
L 198.721526 201.642343 
L 194.766567 206.705143 
z
" clip-path="url(#p7720683422)" style="fill: #fdd1be; fill-opacity: 0.7"/>
    <path d="M 190.784361 212.01076 
L 194.766567 206.705143 
L 201.632659 223.431925 
L 197.692519 227.272081 
z
" clip-path="url(#p7720683422)" style="fill: #fff1ea; fill-opacity: 0.7"/>
    <path d="M 177.982322 159.03468 
L 182.015412 156.609927 
L 188.922368 168.817249 
L 184.927366 172.341545 
z
" clip-path="url(#p7720683422)" style="fill: #fc8262; fill-opacity: 0.7"/>
    <path d="M 223.497133 202.034168 
L 227.304327 200.388741 
L 234.439956 194.175338 
L 230.652282 195.395406 
z
" clip-path="url(#p7720683422)" style="fill: #fdd2bf; fill-opacity: 0.7"/>
    <path d="M 234.439956 194.175338 
L 238.21128 191.905054 
L 245.384579 186.997438 
L 241.630767 189.056908 
z
" clip-path="url(#p7720683422)" style="fill: #fcc1a8; fill-opacity: 0.7"/>
    <path d="M 245.384579 186.997438 
L 249.130728 183.83298 
L 256.355011 179.258011 
L 252.624619 182.254872 
z
" clip-path="url(#p7720683422)" style="fill: #fcae92; fill-opacity: 0.7"/>
    <path d="M 197.692519 227.272081 
L 201.632659 223.431925 
L 208.662739 213.620596 
L 204.74183 214.480052 
z
" clip-path="url(#p7720683422)" style="fill: #fff2eb; fill-opacity: 0.7"/>
    <path d="M 171.014739 146.557282 
L 175.090376 145.240947 
L 182.015412 156.609927 
L 177.982322 159.03468 
z
" clip-path="url(#p7720683422)" style="fill: #f96044; fill-opacity: 0.7"/>
    <path d="M 180.899715 175.592598 
L 184.927366 172.341545 
L 191.843044 186.457093 
L 187.853347 190.728689 
z
" clip-path="url(#p7720683422)" style="fill: #fca78b; fill-opacity: 0.7"/>
    <path d="M 256.355011 179.258011 
L 260.082449 175.266767 
L 267.365059 170.729587 
L 263.654468 174.477298 
z
" clip-path="url(#p7720683422)" style="fill: #fc9879; fill-opacity: 0.7"/>
    <path d="M 183.833604 194.835226 
L 187.853347 190.728689 
L 194.766567 206.705143 
L 190.784361 212.01076 
z
" clip-path="url(#p7720683422)" style="fill: #fdd4c2; fill-opacity: 0.7"/>
    <path d="M 164.03328 135.1152 
L 168.154535 134.777119 
L 175.090376 145.240947 
L 171.014739 146.557282 
z
" clip-path="url(#p7720683422)" style="fill: #f03d2d; fill-opacity: 0.7"/>
    <path d="M 186.775659 217.646016 
L 190.784361 212.01076 
L 197.692519 227.272081 
L 193.727508 228.298136 
z
" clip-path="url(#p7720683422)" style="fill: #fff2eb; fill-opacity: 0.7"/>
    <path d="M 267.365059 170.729587 
L 271.072399 166.206814 
L 278.410981 161.800895 
L 274.725078 165.945699 
z
" clip-path="url(#p7720683422)" style="fill: #fc8060; fill-opacity: 0.7"/>
    <path d="M 136.202672 103.272628 
L 140.497483 104.85953 
L 147.377862 110.38761 
L 143.121953 109.001709 
z
" clip-path="url(#p7720683422)" style="fill: #a50f15; fill-opacity: 0.7"/>
    <path d="M 157.048976 124.941015 
L 161.216784 125.384424 
L 168.154535 134.777119 
L 164.03328 135.1152 
z
" clip-path="url(#p7720683422)" style="fill: #d92523; fill-opacity: 0.7"/>
    <path d="M 208.662739 213.620596 
L 212.546194 212.535196 
L 219.663605 202.885687 
L 215.798325 203.060226 
z
" clip-path="url(#p7720683422)" style="fill: #fee1d3; fill-opacity: 0.7"/>
    <path d="M 143.121953 109.001709 
L 147.377862 110.38761 
L 154.287578 117.224031 
L 150.07435 116.210642 
z
" clip-path="url(#p7720683422)" style="fill: #b21218; fill-opacity: 0.7"/>
    <path d="M 173.912588 161.263922 
L 177.982322 159.03468 
L 184.927366 172.341545 
L 180.899715 175.592598 
z
" clip-path="url(#p7720683422)" style="fill: #fc8060; fill-opacity: 0.7"/>
    <path d="M 150.07435 116.210642 
L 154.287578 117.224031 
L 161.216784 125.384424 
L 157.048976 124.941015 
z
" clip-path="url(#p7720683422)" style="fill: #c4161c; fill-opacity: 0.7"/>
    <path d="M 219.663605 202.885687 
L 223.497133 202.034168 
L 230.652282 195.395406 
L 226.84427 195.484614 
z
" clip-path="url(#p7720683422)" style="fill: #fdcab5; fill-opacity: 0.7"/>
    <path d="M 230.652282 195.395406 
L 234.439956 194.175338 
L 241.630767 189.056908 
L 237.868866 189.756848 
z
" clip-path="url(#p7720683422)" style="fill: #fcbba1; fill-opacity: 0.7"/>
    <path d="M 241.630767 189.056908 
L 245.384579 186.997438 
L 252.624619 182.254872 
L 248.895419 183.879974 
z
" clip-path="url(#p7720683422)" style="fill: #fcaa8d; fill-opacity: 0.7"/>
    <path d="M 176.837627 178.57342 
L 180.899715 175.592598 
L 187.853347 190.728689 
L 183.833604 194.835226 
z
" clip-path="url(#p7720683422)" style="fill: #fca98c; fill-opacity: 0.7"/>
    <path d="M 179.781851 198.563697 
L 183.833604 194.835226 
L 190.784361 212.01076 
L 186.775659 217.646016 
z
" clip-path="url(#p7720683422)" style="fill: #fed8c7; fill-opacity: 0.7"/>
    <path d="M 166.900077 147.909646 
L 171.014739 146.557282 
L 177.982322 159.03468 
L 173.912588 161.263922 
z
" clip-path="url(#p7720683422)" style="fill: #f75b40; fill-opacity: 0.7"/>
    <path d="M 252.624619 182.254872 
L 256.355011 179.258011 
L 263.654468 174.477298 
L 259.949531 176.994747 
z
" clip-path="url(#p7720683422)" style="fill: #fc9777; fill-opacity: 0.7"/>
    <path d="M 193.727508 228.298136 
L 197.692519 227.272081 
L 204.74183 214.480052 
L 200.778119 215.860648 
z
" clip-path="url(#p7720683422)" style="fill: #ffeee7; fill-opacity: 0.7"/>
    <path d="M 263.654468 174.477298 
L 267.365059 170.729587 
L 274.725078 165.945699 
L 271.04398 169.097637 
z
" clip-path="url(#p7720683422)" style="fill: #fc8161; fill-opacity: 0.7"/>
    <path d="M 182.735354 220.722816 
L 186.775659 217.646016 
L 193.727508 228.298136 
L 189.720531 232.200247 
z
" clip-path="url(#p7720683422)" style="fill: #fff1ea; fill-opacity: 0.7"/>
    <path d="M 159.872973 135.790327 
L 164.03328 135.1152 
L 171.014739 146.557282 
L 166.900077 147.909646 
z
" clip-path="url(#p7720683422)" style="fill: #ea362a; fill-opacity: 0.7"/>
    <path d="M 274.725078 165.945699 
L 278.410981 161.800895 
L 285.822989 157.268355 
L 282.173852 160.674412 
z
" clip-path="url(#p7720683422)" style="fill: #fb6b4b; fill-opacity: 0.7"/>
    <path d="M 169.805448 163.402237 
L 173.912588 161.263922 
L 180.899715 175.592598 
L 176.837627 178.57342 
z
" clip-path="url(#p7720683422)" style="fill: #fb7d5d; fill-opacity: 0.7"/>
    <path d="M 152.844179 125.128673 
L 157.048976 124.941015 
L 164.03328 135.1152 
L 159.872973 135.790327 
z
" clip-path="url(#p7720683422)" style="fill: #d01d1f; fill-opacity: 0.7"/>
    <path d="M 204.74183 214.480052 
L 208.662739 213.620596 
L 215.798325 203.060226 
L 211.893193 203.03292 
z
" clip-path="url(#p7720683422)" style="fill: #fed8c7; fill-opacity: 0.7"/>
    <path d="M 131.879579 102.705436 
L 136.202672 103.272628 
L 143.121953 109.001709 
L 138.835477 108.606487 
z
" clip-path="url(#p7720683422)" style="fill: #920a13; fill-opacity: 0.7"/>
    <path d="M 145.827344 116.056943 
L 150.07435 116.210642 
L 157.048976 124.941015 
L 152.844179 125.128673 
z
" clip-path="url(#p7720683422)" style="fill: #b91419; fill-opacity: 0.7"/>
    <path d="M 138.835477 108.606487 
L 143.121953 109.001709 
L 150.07435 116.210642 
L 145.827344 116.056943 
z
" clip-path="url(#p7720683422)" style="fill: #a60f15; fill-opacity: 0.7"/>
    <path d="M 172.739024 181.242039 
L 176.837627 178.57342 
L 183.833604 194.835226 
L 179.781851 198.563697 
z
" clip-path="url(#p7720683422)" style="fill: #fca78b; fill-opacity: 0.7"/>
    <path d="M 175.692366 201.215079 
L 179.781851 198.563697 
L 186.775659 217.646016 
L 182.735354 220.722816 
z
" clip-path="url(#p7720683422)" style="fill: #fed8c7; fill-opacity: 0.7"/>
    <path d="M 215.798325 203.060226 
L 219.663605 202.885687 
L 226.84427 195.484614 
L 223.007305 194.661295 
z
" clip-path="url(#p7720683422)" style="fill: #fcc1a8; fill-opacity: 0.7"/>
    <path d="M 237.868866 189.756848 
L 241.630767 189.056908 
L 248.895419 183.879974 
L 245.166085 183.900623 
z
" clip-path="url(#p7720683422)" style="fill: #fca285; fill-opacity: 0.7"/>
    <path d="M 226.84427 195.484614 
L 230.652282 195.395406 
L 237.868866 189.756848 
L 234.09298 189.061386 
z
" clip-path="url(#p7720683422)" style="fill: #fcb095; fill-opacity: 0.7"/>
    <path d="M 189.720531 232.200247 
L 193.727508 228.298136 
L 200.778119 215.860648 
L 196.768114 219.342261 
z
" clip-path="url(#p7720683422)" style="fill: #ffece4; fill-opacity: 0.7"/>
    <path d="M 162.747512 149.461225 
L 166.900077 147.909646 
L 173.912588 161.263922 
L 169.805448 163.402237 
z
" clip-path="url(#p7720683422)" style="fill: #f6553c; fill-opacity: 0.7"/>
    <path d="M 248.895419 183.879974 
L 252.624619 182.254872 
L 259.949531 176.994747 
L 256.254319 177.909954 
z
" clip-path="url(#p7720683422)" style="fill: #fc9373; fill-opacity: 0.7"/>
    <path d="M 178.651505 221.448061 
L 182.735354 220.722816 
L 189.720531 232.200247 
L 185.684822 239.15187 
z
" clip-path="url(#p7720683422)" style="fill: #fff1ea; fill-opacity: 0.7"/>
    <path d="M 259.949531 176.994747 
L 263.654468 174.477298 
L 271.04398 169.097637 
L 267.377224 170.792767 
z
" clip-path="url(#p7720683422)" style="fill: #fc8060; fill-opacity: 0.7"/>
    <path d="M 271.04398 169.097637 
L 274.725078 165.945699 
L 282.173852 160.674412 
L 278.538327 162.855711 
z
" clip-path="url(#p7720683422)" style="fill: #fb6b4b; fill-opacity: 0.7"/>
    <path d="M 155.67636 136.949648 
L 159.872973 135.790327 
L 166.900077 147.909646 
L 162.747512 149.461225 
z
" clip-path="url(#p7720683422)" style="fill: #e32f27; fill-opacity: 0.7"/>
    <path d="M 165.660354 165.505143 
L 169.805448 163.402237 
L 176.837627 178.57342 
L 172.739024 181.242039 
z
" clip-path="url(#p7720683422)" style="fill: #fb7b5b; fill-opacity: 0.7"/>
    <path d="M 282.173852 160.674412 
L 285.822989 157.268355 
L 293.316471 152.450728 
L 289.723059 154.737112 
z
" clip-path="url(#p7720683422)" style="fill: #f4503a; fill-opacity: 0.7"/>
    <path d="M 148.605887 126.026362 
L 152.844179 125.128673 
L 159.872973 135.790327 
L 155.67636 136.949648 
z
" clip-path="url(#p7720683422)" style="fill: #c9181d; fill-opacity: 0.7"/>
    <path d="M 168.601555 183.560623 
L 172.739024 181.242039 
L 179.781851 198.563697 
L 175.692366 201.215079 
z
" clip-path="url(#p7720683422)" style="fill: #fca689; fill-opacity: 0.7"/>
    <path d="M 200.778119 215.860648 
L 204.74183 214.480052 
L 211.893193 203.03292 
L 207.938372 203.876089 
z
" clip-path="url(#p7720683422)" style="fill: #fdd0bc; fill-opacity: 0.7"/>
    <path d="M 185.684822 239.15187 
L 189.720531 232.200247 
L 196.768114 219.342261 
L 192.720175 225.466123 
z
" clip-path="url(#p7720683422)" style="fill: #ffefe8; fill-opacity: 0.7"/>
    <path d="M 127.530344 103.067205 
L 131.879579 102.705436 
L 138.835477 108.606487 
L 134.52123 109.139911 
z
" clip-path="url(#p7720683422)" style="fill: #820711; fill-opacity: 0.7"/>
    <path d="M 141.549945 116.761712 
L 145.827344 116.056943 
L 152.844179 125.128673 
L 148.605887 126.026362 
z
" clip-path="url(#p7720683422)" style="fill: #b11218; fill-opacity: 0.7"/>
    <path d="M 171.562126 203.207939 
L 175.692366 201.215079 
L 182.735354 220.722816 
L 178.651505 221.448061 
z
" clip-path="url(#p7720683422)" style="fill: #fdd3c1; fill-opacity: 0.7"/>
    <path d="M 134.52123 109.139911 
L 138.835477 108.606487 
L 145.827344 116.056943 
L 141.549945 116.761712 
z
" clip-path="url(#p7720683422)" style="fill: #9a0c14; fill-opacity: 0.7"/>
    <path d="M 158.557848 151.254931 
L 162.747512 149.461225 
L 169.805448 163.402237 
L 165.660354 165.505143 
z
" clip-path="url(#p7720683422)" style="fill: #f44f39; fill-opacity: 0.7"/>
    <path d="M 174.528441 222.856701 
L 178.651505 221.448061 
L 185.684822 239.15187 
L 181.610758 240.062582 
z
" clip-path="url(#p7720683422)" style="fill: #ffefe8; fill-opacity: 0.7"/>
    <path d="M 211.893193 203.03292 
L 215.798325 203.060226 
L 223.007305 194.661295 
L 219.126879 193.735274 
z
" clip-path="url(#p7720683422)" style="fill: #fcb499; fill-opacity: 0.7"/>
    <path d="M 245.166085 183.900623 
L 248.895419 183.879974 
L 256.254319 177.909954 
L 252.561898 177.203879 
z
" clip-path="url(#p7720683422)" style="fill: #fc8969; fill-opacity: 0.7"/>
    <path d="M 234.09298 189.061386 
L 237.868866 189.756848 
L 245.166085 183.900623 
L 241.424785 182.523893 
z
" clip-path="url(#p7720683422)" style="fill: #fc9576; fill-opacity: 0.7"/>
    <path d="M 256.254319 177.909954 
L 259.949531 176.994747 
L 267.377224 170.792767 
L 263.723723 170.84051 
z
" clip-path="url(#p7720683422)" style="fill: #fb7858; fill-opacity: 0.7"/>
    <path d="M 223.007305 194.661295 
L 226.84427 195.484614 
L 234.09298 189.061386 
L 230.288244 187.464157 
z
" clip-path="url(#p7720683422)" style="fill: #fca285; fill-opacity: 0.7"/>
    <path d="M 267.377224 170.792767 
L 271.04398 169.097637 
L 278.538327 162.855711 
L 274.921379 163.496415 
z
" clip-path="url(#p7720683422)" style="fill: #fa6547; fill-opacity: 0.7"/>
    <path d="M 161.477104 167.629368 
L 165.660354 165.505143 
L 172.739024 181.242039 
L 168.601555 183.560623 
z
" clip-path="url(#p7720683422)" style="fill: #fb7757; fill-opacity: 0.7"/>
    <path d="M 151.444742 138.567081 
L 155.67636 136.949648 
L 162.747512 149.461225 
L 158.557848 151.254931 
z
" clip-path="url(#p7720683422)" style="fill: #de2b25; fill-opacity: 0.7"/>
    <path d="M 181.610758 240.062582 
L 185.684822 239.15187 
L 192.720175 225.466123 
L 188.64655 233.385479 
z
" clip-path="url(#p7720683422)" style="fill: #fff2eb; fill-opacity: 0.7"/>
    <path d="M 278.538327 162.855711 
L 282.173852 160.674412 
L 289.723059 154.737112 
L 286.148574 155.668962 
z
" clip-path="url(#p7720683422)" style="fill: #f34c37; fill-opacity: 0.7"/>
    <path d="M 164.426729 185.942709 
L 168.601555 183.560623 
L 175.692366 201.215079 
L 171.562126 203.207939 
z
" clip-path="url(#p7720683422)" style="fill: #fca285; fill-opacity: 0.7"/>
    <path d="M 196.768114 219.342261 
L 200.778119 215.860648 
L 207.938372 203.876089 
L 203.928749 206.973845 
z
" clip-path="url(#p7720683422)" style="fill: #fdcbb6; fill-opacity: 0.7"/>
    <path d="M 144.335156 127.531962 
L 148.605887 126.026362 
L 155.67636 136.949648 
L 151.444742 138.567081 
z
" clip-path="url(#p7720683422)" style="fill: #c3161b; fill-opacity: 0.7"/>
    <path d="M 123.155209 104.210255 
L 127.530344 103.067205 
L 134.52123 109.139911 
L 130.179414 110.435669 
z
" clip-path="url(#p7720683422)" style="fill: #77040f; fill-opacity: 0.7"/>
    <path d="M 167.397468 205.793167 
L 171.562126 203.207939 
L 178.651505 221.448061 
L 174.528441 222.856701 
z
" clip-path="url(#p7720683422)" style="fill: #fdcdb9; fill-opacity: 0.7"/>
    <path d="M 137.242693 118.172145 
L 141.549945 116.761712 
L 148.605887 126.026362 
L 144.335156 127.531962 
z
" clip-path="url(#p7720683422)" style="fill: #ab1016; fill-opacity: 0.7"/>
    <path d="M 130.179414 110.435669 
L 134.52123 109.139911 
L 141.549945 116.761712 
L 137.242693 118.172145 
z
" clip-path="url(#p7720683422)" style="fill: #8e0912; fill-opacity: 0.7"/>
    <path d="M 154.331589 153.288643 
L 158.557848 151.254931 
L 165.660354 165.505143 
L 161.477104 167.629368 
z
" clip-path="url(#p7720683422)" style="fill: #f34a36; fill-opacity: 0.7"/>
    <path d="M 170.365636 224.497992 
L 174.528441 222.856701 
L 181.610758 240.062582 
L 177.489987 239.997493 
z
" clip-path="url(#p7720683422)" style="fill: #feeae1; fill-opacity: 0.7"/>
    <path d="M 177.489987 239.997493 
L 181.610758 240.062582 
L 188.64655 233.385479 
L 184.554522 242.420247 
z
" clip-path="url(#p7720683422)" style="fill: #fff3ed; fill-opacity: 0.7"/>
    <path d="M 207.938372 203.876089 
L 211.893193 203.03292 
L 219.126879 193.735274 
L 215.186915 194.130045 
z
" clip-path="url(#p7720683422)" style="fill: #fca98c; fill-opacity: 0.7"/>
    <path d="M 252.561898 177.203879 
L 256.254319 177.909954 
L 263.723723 170.84051 
L 260.06477 169.643979 
z
" clip-path="url(#p7720683422)" style="fill: #fb6d4d; fill-opacity: 0.7"/>
    <path d="M 241.424785 182.523893 
L 245.166085 183.900623 
L 252.561898 177.203879 
L 248.849804 175.511978 
z
" clip-path="url(#p7720683422)" style="fill: #fb7b5b; fill-opacity: 0.7"/>
    <path d="M 157.258639 170.065856 
L 161.477104 167.629368 
L 168.601555 183.560623 
L 164.426729 185.942709 
z
" clip-path="url(#p7720683422)" style="fill: #fb7353; fill-opacity: 0.7"/>
    <path d="M 147.178451 140.563076 
L 151.444742 138.567081 
L 158.557848 151.254931 
L 154.331589 153.288643 
z
" clip-path="url(#p7720683422)" style="fill: #da2723; fill-opacity: 0.7"/>
    <path d="M 230.288244 187.464157 
L 234.09298 189.061386 
L 241.424785 182.523893 
L 237.647308 180.661654 
z
" clip-path="url(#p7720683422)" style="fill: #fc8666; fill-opacity: 0.7"/>
    <path d="M 263.723723 170.84051 
L 267.377224 170.792767 
L 274.921379 163.496415 
L 271.309332 162.807413 
z
" clip-path="url(#p7720683422)" style="fill: #f7593f; fill-opacity: 0.7"/>
    <path d="M 219.126879 193.735274 
L 223.007305 194.661295 
L 230.288244 187.464157 
L 226.432002 186.176576 
z
" clip-path="url(#p7720683422)" style="fill: #fc9373; fill-opacity: 0.7"/>
    <path d="M 192.720175 225.466123 
L 196.768114 219.342261 
L 203.928749 206.973845 
L 199.87133 212.971429 
z
" clip-path="url(#p7720683422)" style="fill: #fdcebb; fill-opacity: 0.7"/>
    <path d="M 274.921379 163.496415 
L 278.538327 162.855711 
L 286.148574 155.668962 
L 282.584974 155.301077 
z
" clip-path="url(#p7720683422)" style="fill: #f14331; fill-opacity: 0.7"/>
    <path d="M 160.222283 189.130565 
L 164.426729 185.942709 
L 171.562126 203.207939 
L 167.397468 205.793167 
z
" clip-path="url(#p7720683422)" style="fill: #fc9e80; fill-opacity: 0.7"/>
    <path d="M 140.031817 129.509856 
L 144.335156 127.531962 
L 151.444742 138.567081 
L 147.178451 140.563076 
z
" clip-path="url(#p7720683422)" style="fill: #be151a; fill-opacity: 0.7"/>
    <path d="M 118.75391 106.002019 
L 123.155209 104.210255 
L 130.179414 110.435669 
L 125.809417 112.336213 
z
" clip-path="url(#p7720683422)" style="fill: #6f020e; fill-opacity: 0.7"/>
    <path d="M 163.201371 209.043314 
L 167.397468 205.793167 
L 174.528441 222.856701 
L 170.365636 224.497992 
z
" clip-path="url(#p7720683422)" style="fill: #fdc9b3; fill-opacity: 0.7"/>
    <path d="M 132.905021 120.127114 
L 137.242693 118.172145 
L 144.335156 127.531962 
L 140.031817 129.509856 
z
" clip-path="url(#p7720683422)" style="fill: #a60f15; fill-opacity: 0.7"/>
    <path d="M 125.809417 112.336213 
L 130.179414 110.435669 
L 137.242693 118.172145 
L 132.905021 120.127114 
z
" clip-path="url(#p7720683422)" style="fill: #860811; fill-opacity: 0.7"/>
    <path d="M 150.071488 155.714589 
L 154.331589 153.288643 
L 161.477104 167.629368 
L 157.258639 170.065856 
z
" clip-path="url(#p7720683422)" style="fill: #f24633; fill-opacity: 0.7"/>
    <path d="M 188.64655 233.385479 
L 192.720175 225.466123 
L 199.87133 212.971429 
L 195.780881 221.35064 
z
" clip-path="url(#p7720683422)" style="fill: #fed8c7; fill-opacity: 0.7"/>
    <path d="M 173.320018 239.472693 
L 177.489987 239.997493 
L 184.554522 242.420247 
L 180.447382 251.974601 
z
" clip-path="url(#p7720683422)" style="fill: #fff4ef; fill-opacity: 0.7"/>
    <path d="M 203.928749 206.973845 
L 207.938372 203.876089 
L 215.186915 194.130045 
L 211.180517 197.221332 
z
" clip-path="url(#p7720683422)" style="fill: #fca285; fill-opacity: 0.7"/>
    <path d="M 153.013397 173.370687 
L 157.258639 170.065856 
L 164.426729 185.942709 
L 160.222283 189.130565 
z
" clip-path="url(#p7720683422)" style="fill: #fb7151; fill-opacity: 0.7"/>
    <path d="M 166.158698 225.812011 
L 170.365636 224.497992 
L 177.489987 239.997493 
L 173.320018 239.472693 
z
" clip-path="url(#p7720683422)" style="fill: #fee5d9; fill-opacity: 0.7"/>
    <path d="M 142.879476 142.982733 
L 147.178451 140.563076 
L 154.331589 153.288643 
L 150.071488 155.714589 
z
" clip-path="url(#p7720683422)" style="fill: #d72322; fill-opacity: 0.7"/>
    <path d="M 155.995187 193.412592 
L 160.222283 189.130565 
L 167.397468 205.793167 
L 163.201371 209.043314 
z
" clip-path="url(#p7720683422)" style="fill: #fc9d7f; fill-opacity: 0.7"/>
    <path d="M 184.554522 242.420247 
L 188.64655 233.385479 
L 195.780881 221.35064 
L 191.669787 231.106272 
z
" clip-path="url(#p7720683422)" style="fill: #fee4d8; fill-opacity: 0.7"/>
    <path d="M 248.849804 175.511978 
L 252.561898 177.203879 
L 260.06477 169.643979 
L 256.36739 168.234575 
z
" clip-path="url(#p7720683422)" style="fill: #f75c41; fill-opacity: 0.7"/>
    <path d="M 260.06477 169.643979 
L 263.723723 170.84051 
L 271.309332 162.807413 
L 267.669863 161.64643 
z
" clip-path="url(#p7720683422)" style="fill: #f34a36; fill-opacity: 0.7"/>
    <path d="M 237.647308 180.661654 
L 241.424785 182.523893 
L 248.849804 175.511978 
L 245.086191 174.060923 
z
" clip-path="url(#p7720683422)" style="fill: #fb6b4b; fill-opacity: 0.7"/>
    <path d="M 215.186915 194.130045 
L 219.126879 193.735274 
L 226.432002 186.176576 
L 222.504254 186.756158 
z
" clip-path="url(#p7720683422)" style="fill: #fc8666; fill-opacity: 0.7"/>
    <path d="M 135.697048 131.934686 
L 140.031817 129.509856 
L 147.178451 140.563076 
L 142.879476 142.982733 
z
" clip-path="url(#p7720683422)" style="fill: #bb141a; fill-opacity: 0.7"/>
    <path d="M 226.432002 186.176576 
L 230.288244 187.464157 
L 237.647308 180.661654 
L 233.805581 179.745612 
z
" clip-path="url(#p7720683422)" style="fill: #fb7656; fill-opacity: 0.7"/>
    <path d="M 271.309332 162.807413 
L 274.921379 163.496415 
L 282.584974 155.301077 
L 279.00194 154.336075 
z
" clip-path="url(#p7720683422)" style="fill: #eb372a; fill-opacity: 0.7"/>
    <path d="M 114.326561 108.353382 
L 118.75391 106.002019 
L 125.809417 112.336213 
L 121.411403 114.754286 
z
" clip-path="url(#p7720683422)" style="fill: #69000d; fill-opacity: 0.7"/>
    <path d="M 128.537458 122.559187 
L 132.905021 120.127114 
L 140.031817 129.509856 
L 135.697048 131.934686 
z
" clip-path="url(#p7720683422)" style="fill: #a10e15; fill-opacity: 0.7"/>
    <path d="M 158.969271 212.324004 
L 163.201371 209.043314 
L 170.365636 224.497992 
L 166.158698 225.812011 
z
" clip-path="url(#p7720683422)" style="fill: #fdc5ae; fill-opacity: 0.7"/>
    <path d="M 121.411403 114.754286 
L 125.809417 112.336213 
L 132.905021 120.127114 
L 128.537458 122.559187 
z
" clip-path="url(#p7720683422)" style="fill: #820711; fill-opacity: 0.7"/>
    <path d="M 145.78546 158.939907 
L 150.071488 155.714589 
L 157.258639 170.065856 
L 153.013397 173.370687 
z
" clip-path="url(#p7720683422)" style="fill: #f14331; fill-opacity: 0.7"/>
    <path d="M 180.447382 251.974601 
L 184.554522 242.420247 
L 191.669787 231.106272 
L 187.544186 241.330034 
z
" clip-path="url(#p7720683422)" style="fill: #ffeee6; fill-opacity: 0.7"/>
    <path d="M 199.87133 212.971429 
L 203.928749 206.973845 
L 211.180517 197.221332 
L 207.116551 203.423413 
z
" clip-path="url(#p7720683422)" style="fill: #fca588; fill-opacity: 0.7"/>
    <path d="M 169.100308 238.8238 
L 173.320018 239.472693 
L 180.447382 251.974601 
L 176.281343 252.339159 
z
" clip-path="url(#p7720683422)" style="fill: #fff1ea; fill-opacity: 0.7"/>
    <path d="M 148.752229 178.013611 
L 153.013397 173.370687 
L 160.222283 189.130565 
L 155.995187 193.412592 
z
" clip-path="url(#p7720683422)" style="fill: #fb7252; fill-opacity: 0.7"/>
    <path d="M 138.554453 146.099344 
L 142.879476 142.982733 
L 150.071488 155.714589 
L 145.78546 158.939907 
z
" clip-path="url(#p7720683422)" style="fill: #d52221; fill-opacity: 0.7"/>
    <path d="M 151.74407 198.346826 
L 155.995187 193.412592 
L 163.201371 209.043314 
L 158.969271 212.324004 
z
" clip-path="url(#p7720683422)" style="fill: #fc9e80; fill-opacity: 0.7"/>
    <path d="M 176.281343 252.339159 
L 180.447382 251.974601 
L 187.544186 241.330034 
L 183.404881 251.368307 
z
" clip-path="url(#p7720683422)" style="fill: #fff4ee; fill-opacity: 0.7"/>
    <path d="M 161.905071 226.77776 
L 166.158698 225.812011 
L 173.320018 239.472693 
L 169.100308 238.8238 
z
" clip-path="url(#p7720683422)" style="fill: #fedfd0; fill-opacity: 0.7"/>
    <path d="M 131.335968 134.970051 
L 135.697048 131.934686 
L 142.879476 142.982733 
L 138.554453 146.099344 
z
" clip-path="url(#p7720683422)" style="fill: #b81419; fill-opacity: 0.7"/>
    <path d="M 195.780881 221.35064 
L 199.87133 212.971429 
L 207.116551 203.423413 
L 203.013122 212.048334 
z
" clip-path="url(#p7720683422)" style="fill: #fcb095; fill-opacity: 0.7"/>
    <path d="M 211.180517 197.221332 
L 215.186915 194.130045 
L 222.504254 186.756158 
L 218.500193 190.27946 
z
" clip-path="url(#p7720683422)" style="fill: #fc8161; fill-opacity: 0.7"/>
    <path d="M 109.87456 111.237531 
L 114.326561 108.353382 
L 121.411403 114.754286 
L 116.987726 117.704356 
z
" clip-path="url(#p7720683422)" style="fill: #67000d; fill-opacity: 0.7"/>
    <path d="M 141.486407 163.49642 
L 145.78546 158.939907 
L 153.013397 173.370687 
L 148.752229 178.013611 
z
" clip-path="url(#p7720683422)" style="fill: #f14432; fill-opacity: 0.7"/>
    <path d="M 124.143646 125.54638 
L 128.537458 122.559187 
L 135.697048 131.934686 
L 131.335968 134.970051 
z
" clip-path="url(#p7720683422)" style="fill: #9d0d14; fill-opacity: 0.7"/>
    <path d="M 116.987726 117.704356 
L 121.411403 114.754286 
L 128.537458 122.559187 
L 124.143646 125.54638 
z
" clip-path="url(#p7720683422)" style="fill: #7e0610; fill-opacity: 0.7"/>
    <path d="M 154.695244 215.218224 
L 158.969271 212.324004 
L 166.158698 225.812011 
L 161.905071 226.77776 
z
" clip-path="url(#p7720683422)" style="fill: #fcc1a8; fill-opacity: 0.7"/>
    <path d="M 245.086191 174.060923 
L 248.849804 175.511978 
L 256.36739 168.234575 
L 252.60118 167.776313 
z
" clip-path="url(#p7720683422)" style="fill: #f34a36; fill-opacity: 0.7"/>
    <path d="M 222.504254 186.756158 
L 226.432002 186.176576 
L 233.805581 179.745612 
L 229.882517 181.056173 
z
" clip-path="url(#p7720683422)" style="fill: #fb6b4b; fill-opacity: 0.7"/>
    <path d="M 256.36739 168.234575 
L 260.06477 169.643979 
L 267.669863 161.64643 
L 263.968592 161.106245 
z
" clip-path="url(#p7720683422)" style="fill: #ee3a2c; fill-opacity: 0.7"/>
    <path d="M 233.805581 179.745612 
L 237.647308 180.661654 
L 245.086191 174.060923 
L 241.245965 174.095786 
z
" clip-path="url(#p7720683422)" style="fill: #f75b40; fill-opacity: 0.7"/>
    <path d="M 144.4804 183.941756 
L 148.752229 178.013611 
L 155.995187 193.412592 
L 151.74407 198.346826 
z
" clip-path="url(#p7720683422)" style="fill: #fb7656; fill-opacity: 0.7"/>
    <path d="M 267.669863 161.64643 
L 271.309332 162.807413 
L 279.00194 154.336075 
L 275.361914 153.807857 
z
" clip-path="url(#p7720683422)" style="fill: #de2b25; fill-opacity: 0.7"/>
    <path d="M 191.669787 231.106272 
L 195.780881 221.35064 
L 203.013122 212.048334 
L 198.88611 221.964591 
z
" clip-path="url(#p7720683422)" style="fill: #fcc2aa; fill-opacity: 0.7"/>
    <path d="M 134.216101 150.390822 
L 138.554453 146.099344 
L 145.78546 158.939907 
L 141.486407 163.49642 
z
" clip-path="url(#p7720683422)" style="fill: #d52221; fill-opacity: 0.7"/>
    <path d="M 147.460725 203.242368 
L 151.74407 198.346826 
L 158.969271 212.324004 
L 154.695244 215.218224 
z
" clip-path="url(#p7720683422)" style="fill: #fca082; fill-opacity: 0.7"/>
    <path d="M 172.059049 251.148492 
L 176.281343 252.339159 
L 183.404881 251.368307 
L 179.249136 260.779133 
z
" clip-path="url(#p7720683422)" style="fill: #fff5f0; fill-opacity: 0.7"/>
    <path d="M 164.834037 238.553258 
L 169.100308 238.8238 
L 176.281343 252.339159 
L 172.059049 251.148492 
z
" clip-path="url(#p7720683422)" style="fill: #feeae1; fill-opacity: 0.7"/>
    <path d="M 137.186708 169.701349 
L 141.486407 163.49642 
L 148.752229 178.013611 
L 144.4804 183.941756 
z
" clip-path="url(#p7720683422)" style="fill: #f34a36; fill-opacity: 0.7"/>
    <path d="M 207.116551 203.423413 
L 211.180517 197.221332 
L 218.500193 190.27946 
L 214.432134 196.811866 
z
" clip-path="url(#p7720683422)" style="fill: #fc8565; fill-opacity: 0.7"/>
    <path d="M 187.544186 241.330034 
L 191.669787 231.106272 
L 198.88611 221.964591 
L 194.743922 232.207639 
z
" clip-path="url(#p7720683422)" style="fill: #fdd4c2; fill-opacity: 0.7"/>
    <path d="M 126.959629 138.985534 
L 131.335968 134.970051 
L 138.554453 146.099344 
L 134.216101 150.390822 
z
" clip-path="url(#p7720683422)" style="fill: #b91419; fill-opacity: 0.7"/>
    <path d="M 105.402291 114.727978 
L 109.87456 111.237531 
L 116.987726 117.704356 
L 112.544766 121.337086 
z
" clip-path="url(#p7720683422)" style="fill: #67000d; fill-opacity: 0.7"/>
    <path d="M 119.732323 129.341608 
L 124.143646 125.54638 
L 131.335968 134.970051 
L 126.959629 138.985534 
z
" clip-path="url(#p7720683422)" style="fill: #9d0d14; fill-opacity: 0.7"/>
    <path d="M 140.19231 190.530056 
L 144.4804 183.941756 
L 151.74407 198.346826 
L 147.460725 203.242368 
z
" clip-path="url(#p7720683422)" style="fill: #fb7c5c; fill-opacity: 0.7"/>
    <path d="M 157.607158 227.802801 
L 161.905071 226.77776 
L 169.100308 238.8238 
L 164.834037 238.553258 
z
" clip-path="url(#p7720683422)" style="fill: #fdd4c2; fill-opacity: 0.7"/>
    <path d="M 112.544766 121.337086 
L 116.987726 117.704356 
L 124.143646 125.54638 
L 119.732323 129.341608 
z
" clip-path="url(#p7720683422)" style="fill: #7e0610; fill-opacity: 0.7"/>
    <path d="M 183.404881 251.368307 
L 187.544186 241.330034 
L 194.743922 232.207639 
L 190.588492 242.153287 
z
" clip-path="url(#p7720683422)" style="fill: #fee3d7; fill-opacity: 0.7"/>
    <path d="M 218.500193 190.27946 
L 222.504254 186.756158 
L 229.882517 181.056173 
L 225.878981 185.180197 
z
" clip-path="url(#p7720683422)" style="fill: #fa6648; fill-opacity: 0.7"/>
    <path d="M 129.881126 156.364654 
L 134.216101 150.390822 
L 141.486407 163.49642 
L 137.186708 169.701349 
z
" clip-path="url(#p7720683422)" style="fill: #db2824; fill-opacity: 0.7"/>
    <path d="M 150.378737 217.864165 
L 154.695244 215.218224 
L 161.905071 226.77776 
L 157.607158 227.802801 
z
" clip-path="url(#p7720683422)" style="fill: #fcbba1; fill-opacity: 0.7"/>
    <path d="M 203.013122 212.048334 
L 207.116551 203.423413 
L 214.432134 196.811866 
L 210.320431 205.565331 
z
" clip-path="url(#p7720683422)" style="fill: #fc9070; fill-opacity: 0.7"/>
    <path d="M 229.882517 181.056173 
L 233.805581 179.745612 
L 241.245965 174.095786 
L 237.321187 176.348227 
z
" clip-path="url(#p7720683422)" style="fill: #f44f39; fill-opacity: 0.7"/>
    <path d="M 241.245965 174.095786 
L 245.086191 174.060923 
L 252.60118 167.776313 
L 248.752587 168.999934 
z
" clip-path="url(#p7720683422)" style="fill: #f03d2d; fill-opacity: 0.7"/>
    <path d="M 132.889178 177.315211 
L 137.186708 169.701349 
L 144.4804 183.941756 
L 140.19231 190.530056 
z
" clip-path="url(#p7720683422)" style="fill: #f6563d; fill-opacity: 0.7"/>
    <path d="M 252.60118 167.776313 
L 256.36739 168.234575 
L 263.968592 161.106245 
L 260.187537 161.91056 
z
" clip-path="url(#p7720683422)" style="fill: #e32f27; fill-opacity: 0.7"/>
    <path d="M 143.139132 207.798533 
L 147.460725 203.242368 
L 154.695244 215.218224 
L 150.378737 217.864165 
z
" clip-path="url(#p7720683422)" style="fill: #fca082; fill-opacity: 0.7"/>
    <path d="M 263.968592 161.106245 
L 267.669863 161.64643 
L 275.361914 153.807857 
L 271.642463 154.457021 
z
" clip-path="url(#p7720683422)" style="fill: #d42121; fill-opacity: 0.7"/>
    <path d="M 179.249136 260.779133 
L 183.404881 251.368307 
L 190.588492 242.153287 
L 186.417848 251.433639 
z
" clip-path="url(#p7720683422)" style="fill: #ffede5; fill-opacity: 0.7"/>
    <path d="M 122.585481 144.503202 
L 126.959629 138.985534 
L 134.216101 150.390822 
L 129.881126 156.364654 
z
" clip-path="url(#p7720683422)" style="fill: #bd151a; fill-opacity: 0.7"/>
    <path d="M 167.792262 250.924476 
L 172.059049 251.148492 
L 179.249136 260.779133 
L 175.048588 264.819639 
z
" clip-path="url(#p7720683422)" style="fill: #fff4ee; fill-opacity: 0.7"/>
    <path d="M 135.876851 197.088039 
L 140.19231 190.530056 
L 147.460725 203.242368 
L 143.139132 207.798533 
z
" clip-path="url(#p7720683422)" style="fill: #fc8262; fill-opacity: 0.7"/>
    <path d="M 100.919657 119.048892 
L 105.402291 114.727978 
L 112.544766 121.337086 
L 108.095331 125.979314 
z
" clip-path="url(#p7720683422)" style="fill: #69000d; fill-opacity: 0.7"/>
    <path d="M 115.319173 134.384163 
L 119.732323 129.341608 
L 126.959629 138.985534 
L 122.585481 144.503202 
z
" clip-path="url(#p7720683422)" style="fill: #a30f15; fill-opacity: 0.7"/>
    <path d="M 198.88611 221.964591 
L 203.013122 212.048334 
L 210.320431 205.565331 
L 206.182913 215.442956 
z
" clip-path="url(#p7720683422)" style="fill: #fca285; fill-opacity: 0.7"/>
    <path d="M 108.095331 125.979314 
L 112.544766 121.337086 
L 119.732323 129.341608 
L 115.319173 134.384163 
z
" clip-path="url(#p7720683422)" style="fill: #820711; fill-opacity: 0.7"/>
    <path d="M 125.562511 164.223035 
L 129.881126 156.364654 
L 137.186708 169.701349 
L 132.889178 177.315211 
z
" clip-path="url(#p7720683422)" style="fill: #e43027; fill-opacity: 0.7"/>
    <path d="M 160.527372 239.126883 
L 164.834037 238.553258 
L 172.059049 251.148492 
L 167.792262 250.924476 
z
" clip-path="url(#p7720683422)" style="fill: #fee3d7; fill-opacity: 0.7"/>
    <path d="M 214.432134 196.811866 
L 218.500193 190.27946 
L 225.878981 185.180197 
L 221.809372 191.957816 
z
" clip-path="url(#p7720683422)" style="fill: #fb6c4c; fill-opacity: 0.7"/>
    <path d="M 128.58359 185.597204 
L 132.889178 177.315211 
L 140.19231 190.530056 
L 135.876851 197.088039 
z
" clip-path="url(#p7720683422)" style="fill: #f96346; fill-opacity: 0.7"/>
    <path d="M 175.048588 264.819639 
L 179.249136 260.779133 
L 186.417848 251.433639 
L 182.227864 259.825429 
z
" clip-path="url(#p7720683422)" style="fill: #fff4ee; fill-opacity: 0.7"/>
    <path d="M 194.743922 232.207639 
L 198.88611 221.964591 
L 206.182913 215.442956 
L 202.029717 225.51355 
z
" clip-path="url(#p7720683422)" style="fill: #fcb79c; fill-opacity: 0.7"/>
    <path d="M 153.271636 229.406514 
L 157.607158 227.802801 
L 164.834037 238.553258 
L 160.527372 239.126883 
z
" clip-path="url(#p7720683422)" style="fill: #fdccb8; fill-opacity: 0.7"/>
    <path d="M 118.233538 152.001968 
L 122.585481 144.503202 
L 129.881126 156.364654 
L 125.562511 164.223035 
z
" clip-path="url(#p7720683422)" style="fill: #c7171c; fill-opacity: 0.7"/>
    <path d="M 146.02562 220.734285 
L 150.378737 217.864165 
L 157.607158 227.802801 
L 153.271636 229.406514 
z
" clip-path="url(#p7720683422)" style="fill: #fcb69b; fill-opacity: 0.7"/>
    <path d="M 225.878981 185.180197 
L 229.882517 181.056173 
L 237.321187 176.348227 
L 233.318211 180.98944 
z
" clip-path="url(#p7720683422)" style="fill: #f44d38; fill-opacity: 0.7"/>
    <path d="M 121.259191 173.561241 
L 125.562511 164.223035 
L 132.889178 177.315211 
L 128.58359 185.597204 
z
" clip-path="url(#p7720683422)" style="fill: #f03d2d; fill-opacity: 0.7"/>
    <path d="M 138.781278 212.238014 
L 143.139132 207.798533 
L 150.378737 217.864165 
L 146.02562 220.734285 
z
" clip-path="url(#p7720683422)" style="fill: #fc9e80; fill-opacity: 0.7"/>
    <path d="M 110.926386 141.227963 
L 115.319173 134.384163 
L 122.585481 144.503202 
L 118.233538 152.001968 
z
" clip-path="url(#p7720683422)" style="fill: #ac1117; fill-opacity: 0.7"/>
    <path d="M 131.528179 203.378624 
L 135.876851 197.088039 
L 143.139132 207.798533 
L 138.781278 212.238014 
z
" clip-path="url(#p7720683422)" style="fill: #fc8767; fill-opacity: 0.7"/>
    <path d="M 237.321187 176.348227 
L 241.245965 174.095786 
L 248.752587 168.999934 
L 244.823664 172.12174 
z
" clip-path="url(#p7720683422)" style="fill: #eb372a; fill-opacity: 0.7"/>
    <path d="M 96.444107 124.595119 
L 100.919657 119.048892 
L 108.095331 125.979314 
L 103.660095 132.130089 
z
" clip-path="url(#p7720683422)" style="fill: #71020e; fill-opacity: 0.7"/>
    <path d="M 210.320431 205.565331 
L 214.432134 196.811866 
L 221.809372 191.957816 
L 217.693453 200.697662 
z
" clip-path="url(#p7720683422)" style="fill: #fb7858; fill-opacity: 0.7"/>
    <path d="M 190.588492 242.153287 
L 194.743922 232.207639 
L 202.029717 225.51355 
L 197.863778 235.184869 
z
" clip-path="url(#p7720683422)" style="fill: #fdc9b3; fill-opacity: 0.7"/>
    <path d="M 103.660095 132.130089 
L 108.095331 125.979314 
L 115.319173 134.384163 
L 110.926386 141.227963 
z
" clip-path="url(#p7720683422)" style="fill: #8e0912; fill-opacity: 0.7"/>
    <path d="M 248.752587 168.999934 
L 252.60118 167.776313 
L 260.187537 161.91056 
L 256.3269 164.249053 
z
" clip-path="url(#p7720683422)" style="fill: #dc2924; fill-opacity: 0.7"/>
    <path d="M 124.255524 193.840568 
L 128.58359 185.597204 
L 135.876851 197.088039 
L 131.528179 203.378624 
z
" clip-path="url(#p7720683422)" style="fill: #fb7050; fill-opacity: 0.7"/>
    <path d="M 260.187537 161.91056 
L 263.968592 161.106245 
L 271.642463 154.457021 
L 267.842373 156.466363 
z
" clip-path="url(#p7720683422)" style="fill: #cc191e; fill-opacity: 0.7"/>
    <path d="M 113.91567 161.551405 
L 118.233538 152.001968 
L 125.562511 164.223035 
L 121.259191 173.561241 
z
" clip-path="url(#p7720683422)" style="fill: #d42121; fill-opacity: 0.7"/>
    <path d="M 163.487607 251.928753 
L 167.792262 250.924476 
L 175.048588 264.819639 
L 170.788902 265.405554 
z
" clip-path="url(#p7720683422)" style="fill: #ffefe8; fill-opacity: 0.7"/>
    <path d="M 116.954596 183.507343 
L 121.259191 173.561241 
L 128.58359 185.597204 
L 124.255524 193.840568 
z
" clip-path="url(#p7720683422)" style="fill: #f4503a; fill-opacity: 0.7"/>
    <path d="M 170.788902 265.405554 
L 175.048588 264.819639 
L 182.227864 259.825429 
L 178.013204 267.1967 
z
" clip-path="url(#p7720683422)" style="fill: #fff5f0; fill-opacity: 0.7"/>
    <path d="M 106.575795 150.286231 
L 110.926386 141.227963 
L 118.233538 152.001968 
L 113.91567 161.551405 
z
" clip-path="url(#p7720683422)" style="fill: #b91419; fill-opacity: 0.7"/>
    <path d="M 186.417848 251.433639 
L 190.588492 242.153287 
L 197.863778 235.184869 
L 193.683565 244.139294 
z
" clip-path="url(#p7720683422)" style="fill: #fed9c9; fill-opacity: 0.7"/>
    <path d="M 206.182913 215.442956 
L 210.320431 205.565331 
L 217.693453 200.697662 
L 213.549293 210.46634 
z
" clip-path="url(#p7720683422)" style="fill: #fc8a6a; fill-opacity: 0.7"/>
    <path d="M 221.809372 191.957816 
L 225.878981 185.180197 
L 233.318211 180.98944 
L 229.250558 187.818044 
z
" clip-path="url(#p7720683422)" style="fill: #f6553c; fill-opacity: 0.7"/>
    <path d="M 109.623895 172.540656 
L 113.91567 161.551405 
L 121.259191 173.561241 
L 116.954596 183.507343 
z
" clip-path="url(#p7720683422)" style="fill: #e63328; fill-opacity: 0.7"/>
    <path d="M 156.187941 240.870362 
L 160.527372 239.126883 
L 167.792262 250.924476 
L 163.487607 251.928753 
z
" clip-path="url(#p7720683422)" style="fill: #fedccd; fill-opacity: 0.7"/>
    <path d="M 99.264725 140.328799 
L 103.660095 132.130089 
L 110.926386 141.227963 
L 106.575795 150.286231 
z
" clip-path="url(#p7720683422)" style="fill: #a10e15; fill-opacity: 0.7"/>
    <path d="M 92.000036 131.872849 
L 96.444107 124.595119 
L 103.660095 132.130089 
L 99.264725 140.328799 
z
" clip-path="url(#p7720683422)" style="fill: #800610; fill-opacity: 0.7"/>
    <path d="M 127.149351 209.608808 
L 131.528179 203.378624 
L 138.781278 212.238014 
L 134.395167 216.997267 
z
" clip-path="url(#p7720683422)" style="fill: #fc8d6d; fill-opacity: 0.7"/>
    <path d="M 119.897816 201.797178 
L 124.255524 193.840568 
L 131.528179 203.378624 
L 127.149351 209.608808 
z
" clip-path="url(#p7720683422)" style="fill: #fb7a5a; fill-opacity: 0.7"/>
    <path d="M 148.907036 231.996483 
L 153.271636 229.406514 
L 160.527372 239.126883 
L 156.187941 240.870362 
z
" clip-path="url(#p7720683422)" style="fill: #fdc5ae; fill-opacity: 0.7"/>
    <path d="M 134.395167 216.997267 
L 138.781278 212.238014 
L 146.02562 220.734285 
L 141.644978 224.299119 
z
" clip-path="url(#p7720683422)" style="fill: #fca082; fill-opacity: 0.7"/>
    <path d="M 112.629127 193.292173 
L 116.954596 183.507343 
L 124.255524 193.840568 
L 119.897816 201.797178 
z
" clip-path="url(#p7720683422)" style="fill: #f96346; fill-opacity: 0.7"/>
    <path d="M 141.644978 224.299119 
L 146.02562 220.734285 
L 153.271636 229.406514 
L 148.907036 231.996483 
z
" clip-path="url(#p7720683422)" style="fill: #fcb296; fill-opacity: 0.7"/>
    <path d="M 102.274466 161.42806 
L 106.575795 150.286231 
L 113.91567 161.551405 
L 109.623895 172.540656 
z
" clip-path="url(#p7720683422)" style="fill: #cc191e; fill-opacity: 0.7"/>
    <path d="M 202.029717 225.51355 
L 206.182913 215.442956 
L 213.549293 210.46634 
L 209.388665 220.398263 
z
" clip-path="url(#p7720683422)" style="fill: #fc9d7f; fill-opacity: 0.7"/>
    <path d="M 233.318211 180.98944 
L 237.321187 176.348227 
L 244.823664 172.12174 
L 240.823221 177.095654 
z
" clip-path="url(#p7720683422)" style="fill: #ec382b; fill-opacity: 0.7"/>
    <path d="M 105.332424 183.931937 
L 109.623895 172.540656 
L 116.954596 183.507343 
L 112.629127 193.292173 
z
" clip-path="url(#p7720683422)" style="fill: #f24734; fill-opacity: 0.7"/>
    <path d="M 182.227864 259.825429 
L 186.417848 251.433639 
L 193.683565 244.139294 
L 189.485318 252.212739 
z
" clip-path="url(#p7720683422)" style="fill: #fee4d8; fill-opacity: 0.7"/>
    <path d="M 94.929137 150.84006 
L 99.264725 140.328799 
L 106.575795 150.286231 
L 102.274466 161.42806 
z
" clip-path="url(#p7720683422)" style="fill: #b51318; fill-opacity: 0.7"/>
    <path d="M 244.823664 172.12174 
L 248.752587 168.999934 
L 256.3269 164.249053 
L 252.394961 168.033477 
z
" clip-path="url(#p7720683422)" style="fill: #d92523; fill-opacity: 0.7"/>
    <path d="M 98.003408 173.791627 
L 102.274466 161.42806 
L 109.623895 172.540656 
L 105.332424 183.931937 
z
" clip-path="url(#p7720683422)" style="fill: #e22e27; fill-opacity: 0.7"/>
    <path d="M 87.612981 141.319571 
L 92.000036 131.872849 
L 99.264725 140.328799 
L 94.929137 150.84006 
z
" clip-path="url(#p7720683422)" style="fill: #9a0c14; fill-opacity: 0.7"/>
    <path d="M 217.693453 200.697662 
L 221.809372 191.957816 
L 229.250558 187.818044 
L 225.134611 196.362022 
z
" clip-path="url(#p7720683422)" style="fill: #f96346; fill-opacity: 0.7"/>
    <path d="M 256.3269 164.249053 
L 260.187537 161.91056 
L 267.842373 156.466363 
L 263.971423 159.678823 
z
" clip-path="url(#p7720683422)" style="fill: #c8171c; fill-opacity: 0.7"/>
    <path d="M 90.650846 163.271864 
L 94.929137 150.84006 
L 102.274466 161.42806 
L 98.003408 173.791627 
z
" clip-path="url(#p7720683422)" style="fill: #cb181d; fill-opacity: 0.7"/>
    <path d="M 101.014799 194.884843 
L 105.332424 183.931937 
L 112.629127 193.292173 
L 108.27227 202.614512 
z
" clip-path="url(#p7720683422)" style="fill: #f96044; fill-opacity: 0.7"/>
    <path d="M 197.863778 235.184869 
L 202.029717 225.51355 
L 209.388665 220.398263 
L 205.216065 229.898925 
z
" clip-path="url(#p7720683422)" style="fill: #fcaf93; fill-opacity: 0.7"/>
    <path d="M 108.27227 202.614512 
L 112.629127 193.292173 
L 119.897816 201.797178 
L 115.512042 209.589979 
z
" clip-path="url(#p7720683422)" style="fill: #fb7353; fill-opacity: 0.7"/>
    <path d="M 93.725654 186.188121 
L 98.003408 173.791627 
L 105.332424 183.931937 
L 101.014799 194.884843 
z
" clip-path="url(#p7720683422)" style="fill: #f24734; fill-opacity: 0.7"/>
    <path d="M 166.492452 267.237685 
L 170.788902 265.405554 
L 178.013204 267.1967 
L 173.768038 273.505623 
z
" clip-path="url(#p7720683422)" style="fill: #fff5f0; fill-opacity: 0.7"/>
    <path d="M 159.151851 254.269992 
L 163.487607 251.928753 
L 170.788902 265.405554 
L 166.492452 267.237685 
z
" clip-path="url(#p7720683422)" style="fill: #ffebe2; fill-opacity: 0.7"/>
    <path d="M 115.512042 209.589979 
L 119.897816 201.797178 
L 127.149351 209.608808 
L 122.747685 216.096004 
z
" clip-path="url(#p7720683422)" style="fill: #fc8464; fill-opacity: 0.7"/>
    <path d="M 83.296345 152.985354 
L 87.612981 141.319571 
L 94.929137 150.84006 
L 90.650846 163.271864 
z
" clip-path="url(#p7720683422)" style="fill: #b31218; fill-opacity: 0.7"/>
    <path d="M 86.397121 176.527193 
L 90.650846 163.271864 
L 98.003408 173.791627 
L 93.725654 186.188121 
z
" clip-path="url(#p7720683422)" style="fill: #e43027; fill-opacity: 0.7"/>
    <path d="M 122.747685 216.096004 
L 127.149351 209.608808 
L 134.395167 216.997267 
L 129.989583 222.412782 
z
" clip-path="url(#p7720683422)" style="fill: #fc9373; fill-opacity: 0.7"/>
    <path d="M 178.013204 267.1967 
L 182.227864 259.825429 
L 189.485318 252.212739 
L 185.264183 259.32308 
z
" clip-path="url(#p7720683422)" style="fill: #feeae0; fill-opacity: 0.7"/>
    <path d="M 79.03489 166.221711 
L 83.296345 152.985354 
L 90.650846 163.271864 
L 86.397121 176.527193 
z
" clip-path="url(#p7720683422)" style="fill: #ce1a1e; fill-opacity: 0.7"/>
    <path d="M 213.549293 210.46634 
L 217.693453 200.697662 
L 225.134611 196.362022 
L 220.986851 205.927497 
z
" clip-path="url(#p7720683422)" style="fill: #fb7555; fill-opacity: 0.7"/>
    <path d="M 229.250558 187.818044 
L 233.318211 180.98944 
L 240.823221 177.095654 
L 236.761544 183.791635 
z
" clip-path="url(#p7720683422)" style="fill: #f03f2e; fill-opacity: 0.7"/>
    <path d="M 129.989583 222.412782 
L 134.395167 216.997267 
L 141.644978 224.299119 
L 137.245312 228.834066 
z
" clip-path="url(#p7720683422)" style="fill: #fca183; fill-opacity: 0.7"/>
    <path d="M 151.823067 243.925029 
L 156.187941 240.870362 
L 163.487607 251.928753 
L 159.151851 254.269992 
z
" clip-path="url(#p7720683422)" style="fill: #fed8c7; fill-opacity: 0.7"/>
    <path d="M 137.245312 228.834066 
L 141.644978 224.299119 
L 148.907036 231.996483 
L 144.521227 235.772785 
z
" clip-path="url(#p7720683422)" style="fill: #fcb095; fill-opacity: 0.7"/>
    <path d="M 193.683565 244.139294 
L 197.863778 235.184869 
L 205.216065 229.898925 
L 201.030712 238.654336 
z
" clip-path="url(#p7720683422)" style="fill: #fcc1a8; fill-opacity: 0.7"/>
    <path d="M 144.521227 235.772785 
L 148.907036 231.996483 
L 156.187941 240.870362 
L 151.823067 243.925029 
z
" clip-path="url(#p7720683422)" style="fill: #fcc2aa; fill-opacity: 0.7"/>
    <path d="M 240.823221 177.095654 
L 244.823664 172.12174 
L 252.394961 168.033477 
L 248.399896 173.163298 
z
" clip-path="url(#p7720683422)" style="fill: #db2824; fill-opacity: 0.7"/>
    <path d="M 209.388665 220.398263 
L 213.549293 210.46634 
L 220.986851 205.927497 
L 216.820342 215.749751 
z
" clip-path="url(#p7720683422)" style="fill: #fc8767; fill-opacity: 0.7"/>
    <path d="M 252.394961 168.033477 
L 256.3269 164.249053 
L 263.971423 159.678823 
L 260.039577 163.901798 
z
" clip-path="url(#p7720683422)" style="fill: #c8171c; fill-opacity: 0.7"/>
    <path d="M 225.134611 196.362022 
L 229.250558 187.818044 
L 236.761544 183.791635 
L 232.650063 191.977083 
z
" clip-path="url(#p7720683422)" style="fill: #f34c37; fill-opacity: 0.7"/>
    <path d="M 173.768038 273.505623 
L 178.013204 267.1967 
L 185.264183 259.32308 
L 181.014841 265.458173 
z
" clip-path="url(#p7720683422)" style="fill: #ffeee7; fill-opacity: 0.7"/>
    <path d="M 189.485318 252.212739 
L 193.683565 244.139294 
L 201.030712 238.654336 
L 196.82909 246.529644 
z
" clip-path="url(#p7720683422)" style="fill: #fdcdb9; fill-opacity: 0.7"/>
    <path d="M 205.216065 229.898925 
L 209.388665 220.398263 
L 216.820342 215.749751 
L 212.641952 225.211745 
z
" clip-path="url(#p7720683422)" style="fill: #fc997a; fill-opacity: 0.7"/>
    <path d="M 236.761544 183.791635 
L 240.823221 177.095654 
L 248.399896 173.163298 
L 244.347892 179.608194 
z
" clip-path="url(#p7720683422)" style="fill: #e12d26; fill-opacity: 0.7"/>
    <path d="M 220.986851 205.927497 
L 225.134611 196.362022 
L 232.650063 191.977083 
L 228.50203 201.221312 
z
" clip-path="url(#p7720683422)" style="fill: #f85f43; fill-opacity: 0.7"/>
    <path d="M 185.264183 259.32308 
L 189.485318 252.212739 
L 196.82909 246.529644 
L 192.606544 253.479891 
z
" clip-path="url(#p7720683422)" style="fill: #fed8c7; fill-opacity: 0.7"/>
    <path d="M 201.030712 238.654336 
L 205.216065 229.898925 
L 212.641952 225.211745 
L 208.452513 233.955492 
z
" clip-path="url(#p7720683422)" style="fill: #fcaa8d; fill-opacity: 0.7"/>
    <path d="M 248.399896 173.163298 
L 252.394961 168.033477 
L 260.039577 163.901798 
L 256.052719 169.059578 
z
" clip-path="url(#p7720683422)" style="fill: #ca181d; fill-opacity: 0.7"/>
    <path d="M 216.820342 215.749751 
L 220.986851 205.927497 
L 228.50203 201.221312 
L 224.330777 210.907169 
z
" clip-path="url(#p7720683422)" style="fill: #fb7252; fill-opacity: 0.7"/>
    <path d="M 232.650063 191.977083 
L 236.761544 183.791635 
L 244.347892 179.608194 
L 240.245176 187.332825 
z
" clip-path="url(#p7720683422)" style="fill: #eb372a; fill-opacity: 0.7"/>
    <path d="M 196.82909 246.529644 
L 201.030712 238.654336 
L 208.452513 233.955492 
L 204.249111 241.83773 
z
" clip-path="url(#p7720683422)" style="fill: #fcb89e; fill-opacity: 0.7"/>
    <path d="M 212.641952 225.211745 
L 216.820342 215.749751 
L 224.330777 210.907169 
L 220.145908 220.410915 
z
" clip-path="url(#p7720683422)" style="fill: #fc8464; fill-opacity: 0.7"/>
    <path d="M 181.014841 265.458173 
L 185.264183 259.32308 
L 192.606544 253.479891 
L 188.357998 259.518614 
z
" clip-path="url(#p7720683422)" style="fill: #fedfd0; fill-opacity: 0.7"/>
    <path d="M 244.347892 179.608194 
L 248.399896 173.163298 
L 256.052719 169.059578 
L 252.013252 175.203562 
z
" clip-path="url(#p7720683422)" style="fill: #d01d1f; fill-opacity: 0.7"/>
    <path d="M 228.50203 201.221312 
L 232.650063 191.977083 
L 240.245176 187.332825 
L 236.100697 196.150259 
z
" clip-path="url(#p7720683422)" style="fill: #f24633; fill-opacity: 0.7"/>
    <path d="M 208.452513 233.955492 
L 212.641952 225.211745 
L 220.145908 220.410915 
L 215.950997 229.298166 
z
" clip-path="url(#p7720683422)" style="fill: #fc9474; fill-opacity: 0.7"/>
    <path d="M 192.606544 253.479891 
L 196.82909 246.529644 
L 204.249111 241.83773 
L 200.027242 248.834484 
z
" clip-path="url(#p7720683422)" style="fill: #fcc2aa; fill-opacity: 0.7"/>
    <path d="M 224.330777 210.907169 
L 228.50203 201.221312 
L 236.100697 196.150259 
L 231.926473 205.632475 
z
" clip-path="url(#p7720683422)" style="fill: #f7593f; fill-opacity: 0.7"/>
    <path d="M 240.245176 187.332825 
L 244.347892 179.608194 
L 252.013252 175.203562 
L 247.92286 182.433567 
z
" clip-path="url(#p7720683422)" style="fill: #d92523; fill-opacity: 0.7"/>
    <path d="M 204.249111 241.83773 
L 208.452513 233.955492 
L 215.950997 229.298166 
L 211.744556 237.373349 
z
" clip-path="url(#p7720683422)" style="fill: #fca285; fill-opacity: 0.7"/>
    <path d="M 220.145908 220.410915 
L 224.330777 210.907169 
L 231.926473 205.632475 
L 227.734277 215.199563 
z
" clip-path="url(#p7720683422)" style="fill: #fb6d4d; fill-opacity: 0.7"/>
    <path d="M 188.357998 259.518614 
L 192.606544 253.479891 
L 200.027242 248.834484 
L 195.781948 254.983094 
z
" clip-path="url(#p7720683422)" style="fill: #fdc9b3; fill-opacity: 0.7"/>
    <path d="M 236.100697 196.150259 
L 240.245176 187.332825 
L 247.92286 182.433567 
L 243.785874 190.758731 
z
" clip-path="url(#p7720683422)" style="fill: #e43027; fill-opacity: 0.7"/>
    <path d="M 215.950997 229.298166 
L 220.145908 220.410915 
L 227.734277 215.199563 
L 223.531298 224.340337 
z
" clip-path="url(#p7720683422)" style="fill: #fb7d5d; fill-opacity: 0.7"/>
    <path d="M 200.027242 248.834484 
L 204.249111 241.83773 
L 211.744556 237.373349 
L 207.522474 244.607004 
z
" clip-path="url(#p7720683422)" style="fill: #fcad90; fill-opacity: 0.7"/>
    <path d="M 231.926473 205.632475 
L 236.100697 196.150259 
L 243.785874 190.758731 
L 239.611402 199.957124 
z
" clip-path="url(#p7720683422)" style="fill: #f03f2e; fill-opacity: 0.7"/>
    <path d="M 211.744556 237.373349 
L 215.950997 229.298166 
L 223.531298 224.340337 
L 219.318705 232.766489 
z
" clip-path="url(#p7720683422)" style="fill: #fc8d6d; fill-opacity: 0.7"/>
    <path d="M 195.781948 254.983094 
L 200.027242 248.834484 
L 207.522474 244.607004 
L 203.279838 251.053611 
z
" clip-path="url(#p7720683422)" style="fill: #fcb69b; fill-opacity: 0.7"/>
    <path d="M 227.734277 215.199563 
L 231.926473 205.632475 
L 239.611402 199.957124 
L 235.41186 209.557506 
z
" clip-path="url(#p7720683422)" style="fill: #f5533b; fill-opacity: 0.7"/>
    <path d="M 207.522474 244.607004 
L 211.744556 237.373349 
L 219.318705 232.766489 
L 215.093453 240.404828 
z
" clip-path="url(#p7720683422)" style="fill: #fc9879; fill-opacity: 0.7"/>
    <path d="M 223.531298 224.340337 
L 227.734277 215.199563 
L 235.41186 209.557506 
L 231.198084 219.010473 
z
" clip-path="url(#p7720683422)" style="fill: #fa6648; fill-opacity: 0.7"/>
    <path d="M 219.318705 232.766489 
L 223.531298 224.340337 
L 231.198084 219.010473 
L 226.975171 227.914855 
z
" clip-path="url(#p7720683422)" style="fill: #fb7656; fill-opacity: 0.7"/>
    <path d="M 203.279838 251.053611 
L 207.522474 244.607004 
L 215.093453 240.404828 
L 210.850786 247.309378 
z
" clip-path="url(#p7720683422)" style="fill: #fca285; fill-opacity: 0.7"/>
    <path d="M 215.093453 240.404828 
L 219.318705 232.766489 
L 226.975171 227.914855 
L 222.742337 236.109644 
z
" clip-path="url(#p7720683422)" style="fill: #fc8464; fill-opacity: 0.7"/>
    <path d="M 210.850786 247.309378 
L 215.093453 240.404828 
L 222.742337 236.109644 
L 218.495473 243.617841 
z
" clip-path="url(#p7720683422)" style="fill: #fc8e6e; fill-opacity: 0.7"/>
   </g>
  </g>
 </g>
 <defs>
  <clipPath id="p7720683422">
   <rect x="45.9" y="43.2" width="277.2" height="277.2"/>
  </clipPath>
 </defs>
</svg>
