<?xml version="1.0" encoding="utf-8" standalone="no"?>
<!DOCTYPE svg PUBLIC "-//W3C//DTD SVG 1.1//EN"
  "http://www.w3.org/Graphics/SVG/1.1/DTD/svg11.dtd">
<svg xmlns:xlink="http://www.w3.org/1999/xlink" width="360pt" height="360pt" viewBox="0 0 360 360" xmlns="http://www.w3.org/2000/svg" version="1.1">
 <metadata>
  <rdf:RDF xmlns:dc="http://purl.org/dc/elements/1.1/" xmlns:cc="http://creativecommons.org/ns#" xmlns:rdf="http://www.w3.org/1999/02/22-rdf-syntax-ns#">
   <cc:Work>
    <dc:type rdf:resource="http://purl.org/dc/dcmitype/StillImage"/>
    <dc:date>2022-12-19T10:52:46.739505</dc:date>
    <dc:format>image/svg+xml</dc:format>
    <dc:creator>
     <cc:Agent>
      <dc:title>Matplotlib v3.5.3, https://matplotlib.org/</dc:title>
     </cc:Agent>
    </dc:creator>
   </cc:Work>
  </rdf:RDF>
 </metadata>
 <defs>
  <style type="text/css">*{stroke-linejoin: round; stroke-linecap: butt}</style>
 </defs>
 <g id="figure_1">
  <g id="patch_1">
   <path d="M 0 360 
L 360 360 
L 360 0 
L 0 0 
z
" style="fill: #ffffff"/>
  </g>
  <g id="axes_1">
   <g id="patch_2">
    <path d="M 45 320.4 
L 324 320.4 
L 324 43.2 
L 45 43.2 
z
" style="fill: #ffffff"/>
   </g>
   <g id="patch_3">
    <path d="M 57.681818 320.4 
L 63.021535 320.4 
L 63.021535 320.4 
L 57.681818 320.4 
z
" clip-path="url(#p64e1734f2e)" style="fill: #1f77b4"/>
   </g>
   <g id="patch_4">
    <path d="M 124.428222 320.4 
L 129.767939 320.4 
L 129.767939 56.4 
L 124.428222 56.4 
z
" clip-path="url(#p64e1734f2e)" style="fill: #1f77b4"/>
   </g>
   <g id="patch_5">
    <path d="M 191.174626 320.4 
L 196.514343 320.4 
L 196.514343 320.4 
L 191.174626 320.4 
z
" clip-path="url(#p64e1734f2e)" style="fill: #1f77b4"/>
   </g>
   <g id="patch_6">
    <path d="M 257.92105 320.4 
L 263.260768 320.4 
L 263.260768 320.4 
L 257.92105 320.4 
z
" clip-path="url(#p64e1734f2e)" style="fill: #1f77b4"/>
   </g>
   <g id="patch_7">
    <path d="M 63.021535 320.4 
L 68.361253 320.4 
L 68.361253 320.4 
L 63.021535 320.4 
z
" clip-path="url(#p64e1734f2e)" style="fill: #ff7f0e"/>
   </g>
   <g id="patch_8">
    <path d="M 129.767939 320.4 
L 135.107657 320.4 
L 135.107657 56.4 
L 129.767939 56.4 
z
" clip-path="url(#p64e1734f2e)" style="fill: #ff7f0e"/>
   </g>
   <g id="patch_9">
    <path d="M 196.514343 320.4 
L 201.85406 320.4 
L 201.85406 320.4 
L 196.514343 320.4 
z
" clip-path="url(#p64e1734f2e)" style="fill: #ff7f0e"/>
   </g>
   <g id="patch_10">
    <path d="M 263.260726 320.4 
L 268.600444 320.4 
L 268.600444 320.4 
L 263.260726 320.4 
z
" clip-path="url(#p64e1734f2e)" style="fill: #ff7f0e"/>
   </g>
   <g id="patch_11">
    <path d="M 68.361253 320.4 
L 73.70096 320.4 
L 73.70096 320.4 
L 68.361253 320.4 
z
" clip-path="url(#p64e1734f2e)" style="fill: #2ca02c"/>
   </g>
   <g id="patch_12">
    <path d="M 135.107657 320.4 
L 140.447353 320.4 
L 140.447353 56.4 
L 135.107657 56.4 
z
" clip-path="url(#p64e1734f2e)" style="fill: #2ca02c"/>
   </g>
   <g id="patch_13">
    <path d="M 201.85406 320.4 
L 207.193757 320.4 
L 207.193757 320.4 
L 201.85406 320.4 
z
" clip-path="url(#p64e1734f2e)" style="fill: #2ca02c"/>
   </g>
   <g id="patch_14">
    <path d="M 268.600485 320.4 
L 273.940202 320.4 
L 273.940202 320.4 
L 268.600485 320.4 
z
" clip-path="url(#p64e1734f2e)" style="fill: #2ca02c"/>
   </g>
   <g id="patch_15">
    <path d="M 73.700949 320.4 
L 79.040667 320.4 
L 79.040667 56.4 
L 73.700949 56.4 
z
" clip-path="url(#p64e1734f2e)" style="fill: #d62728"/>
   </g>
   <g id="patch_16">
    <path d="M 140.447353 320.4 
L 145.78707 320.4 
L 145.78707 320.4 
L 140.447353 320.4 
z
" clip-path="url(#p64e1734f2e)" style="fill: #d62728"/>
   </g>
   <g id="patch_17">
    <path d="M 207.193757 320.4 
L 212.533474 320.4 
L 212.533474 320.4 
L 207.193757 320.4 
z
" clip-path="url(#p64e1734f2e)" style="fill: #d62728"/>
   </g>
   <g id="patch_18">
    <path d="M 273.940161 320.4 
L 279.279878 320.4 
L 279.279878 320.4 
L 273.940161 320.4 
z
" clip-path="url(#p64e1734f2e)" style="fill: #d62728"/>
   </g>
   <g id="patch_19">
    <path d="M 79.040667 320.4 
L 84.380384 320.4 
L 84.380384 320.4 
L 79.040667 320.4 
z
" clip-path="url(#p64e1734f2e)" style="fill: #9467bd"/>
   </g>
   <g id="patch_20">
    <path d="M 145.78707 320.4 
L 151.126788 320.4 
L 151.126788 56.4 
L 145.78707 56.4 
z
" clip-path="url(#p64e1734f2e)" style="fill: #9467bd"/>
   </g>
   <g id="patch_21">
    <path d="M 212.533474 320.4 
L 217.873192 320.4 
L 217.873192 320.4 
L 212.533474 320.4 
z
" clip-path="url(#p64e1734f2e)" style="fill: #9467bd"/>
   </g>
   <g id="patch_22">
    <path d="M 279.279837 320.4 
L 284.619554 320.4 
L 284.619554 320.4 
L 279.279837 320.4 
z
" clip-path="url(#p64e1734f2e)" style="fill: #9467bd"/>
   </g>
   <g id="patch_23">
    <path d="M 84.380384 320.4 
L 89.720101 320.4 
L 89.720101 56.4 
L 84.380384 56.4 
z
" clip-path="url(#p64e1734f2e)" style="fill: #8c564b"/>
   </g>
   <g id="patch_24">
    <path d="M 151.126788 320.4 
L 156.466505 320.4 
L 156.466505 320.4 
L 151.126788 320.4 
z
" clip-path="url(#p64e1734f2e)" style="fill: #8c564b"/>
   </g>
   <g id="patch_25">
    <path d="M 217.873192 320.4 
L 223.212909 320.4 
L 223.212909 320.4 
L 217.873192 320.4 
z
" clip-path="url(#p64e1734f2e)" style="fill: #8c564b"/>
   </g>
   <g id="patch_26">
    <path d="M 284.619596 320.4 
L 289.959313 320.4 
L 289.959313 320.4 
L 284.619596 320.4 
z
" clip-path="url(#p64e1734f2e)" style="fill: #8c564b"/>
   </g>
   <g id="patch_27">
    <path d="M 89.72008 320.4 
L 95.059798 320.4 
L 95.059798 320.4 
L 89.72008 320.4 
z
" clip-path="url(#p64e1734f2e)" style="fill: #e377c2"/>
   </g>
   <g id="patch_28">
    <path d="M 156.466484 320.4 
L 161.806202 320.4 
L 161.806202 56.4 
L 156.466484 56.4 
z
" clip-path="url(#p64e1734f2e)" style="fill: #e377c2"/>
   </g>
   <g id="patch_29">
    <path d="M 223.212888 320.4 
L 228.552606 320.4 
L 228.552606 320.4 
L 223.212888 320.4 
z
" clip-path="url(#p64e1734f2e)" style="fill: #e377c2"/>
   </g>
   <g id="patch_30">
    <path d="M 289.959271 320.4 
L 295.298989 320.4 
L 295.298989 320.4 
L 289.959271 320.4 
z
" clip-path="url(#p64e1734f2e)" style="fill: #e377c2"/>
   </g>
   <g id="patch_31">
    <path d="M 95.059798 320.4 
L 100.399515 320.4 
L 100.399515 320.4 
L 95.059798 320.4 
z
" clip-path="url(#p64e1734f2e)" style="fill: #7f7f7f"/>
   </g>
   <g id="patch_32">
    <path d="M 161.806202 320.4 
L 167.145919 320.4 
L 167.145919 320.4 
L 161.806202 320.4 
z
" clip-path="url(#p64e1734f2e)" style="fill: #7f7f7f"/>
   </g>
   <g id="patch_33">
    <path d="M 228.552606 320.4 
L 233.892323 320.4 
L 233.892323 320.4 
L 228.552606 320.4 
z
" clip-path="url(#p64e1734f2e)" style="fill: #7f7f7f"/>
   </g>
   <g id="patch_34">
    <path d="M 295.29903 320.4 
L 300.638747 320.4 
L 300.638747 56.4 
L 295.29903 56.4 
z
" clip-path="url(#p64e1734f2e)" style="fill: #7f7f7f"/>
   </g>
   <g id="patch_35">
    <path d="M 100.399515 320.4 
L 105.739232 320.4 
L 105.739232 320.4 
L 100.399515 320.4 
z
" clip-path="url(#p64e1734f2e)" style="fill: #bcbd22"/>
   </g>
   <g id="patch_36">
    <path d="M 167.145919 320.4 
L 172.485636 320.4 
L 172.485636 320.4 
L 167.145919 320.4 
z
" clip-path="url(#p64e1734f2e)" style="fill: #bcbd22"/>
   </g>
   <g id="patch_37">
    <path d="M 233.892323 320.4 
L 239.23204 320.4 
L 239.23204 56.4 
L 233.892323 56.4 
z
" clip-path="url(#p64e1734f2e)" style="fill: #bcbd22"/>
   </g>
   <g id="patch_38">
    <path d="M 300.638706 320.4 
L 305.978423 320.4 
L 305.978423 320.4 
L 300.638706 320.4 
z
" clip-path="url(#p64e1734f2e)" style="fill: #bcbd22"/>
   </g>
   <g id="patch_39">
    <path d="M 105.739232 320.4 
L 111.07895 320.4 
L 111.07895 320.4 
L 105.739232 320.4 
z
" clip-path="url(#p64e1734f2e)" style="fill: #17becf"/>
   </g>
   <g id="patch_40">
    <path d="M 172.485636 320.4 
L 177.825353 320.4 
L 177.825353 320.4 
L 172.485636 320.4 
z
" clip-path="url(#p64e1734f2e)" style="fill: #17becf"/>
   </g>
   <g id="patch_41">
    <path d="M 239.23204 320.4 
L 244.571757 320.4 
L 244.571757 56.4 
L 239.23204 56.4 
z
" clip-path="url(#p64e1734f2e)" style="fill: #17becf"/>
   </g>
   <g id="patch_42">
    <path d="M 305.978465 320.4 
L 311.318182 320.4 
L 311.318182 320.4 
L 305.978465 320.4 
z
" clip-path="url(#p64e1734f2e)" style="fill: #17becf"/>
   </g>
   <g id="matplotlib.axis_1">
    <g id="xtick_1">
     <g id="line2d_1">
      <defs>
       <path id="m21b65c1b9a" d="M 0 0 
L 0 3.5 
" style="stroke: #000000; stroke-width: 0.8"/>
      </defs>
      <g>
       <use xlink:href="#m21b65c1b9a" x="79.69814" y="320.4" style="stroke: #000000; stroke-width: 0.8"/>
      </g>
     </g>
     <g id="text_1">
      <!-- $\mathdefault{0.008}$ -->
      <g transform="translate(68.351765 334.49832)scale(0.1 -0.1)">
       <defs>
        <path id="CMR17-30" d="M 2688 2038 
C 2688 2430 2682 3099 2413 3613 
C 2176 4063 1798 4224 1466 4224 
C 1158 4224 768 4082 525 3620 
C 269 3137 243 2539 243 2038 
C 243 1671 250 1112 448 623 
C 723 -39 1216 -128 1466 -128 
C 1760 -128 2208 -7 2470 604 
C 2662 1048 2688 1568 2688 2038 
z
M 1466 -26 
C 1056 -26 813 328 723 816 
C 653 1196 653 1749 653 2109 
C 653 2604 653 3015 736 3407 
C 858 3954 1216 4121 1466 4121 
C 1728 4121 2067 3947 2189 3420 
C 2272 3054 2278 2623 2278 2109 
C 2278 1691 2278 1176 2202 797 
C 2067 96 1690 -26 1466 -26 
z
" transform="scale(0.015625)"/>
        <path id="CMMI12-3a" d="M 1178 307 
C 1178 492 1024 620 870 620 
C 685 620 557 467 557 313 
C 557 128 710 0 864 0 
C 1050 0 1178 153 1178 307 
z
" transform="scale(0.015625)"/>
        <path id="CMR17-38" d="M 1741 2289 
C 2144 2494 2554 2803 2554 3298 
C 2554 3884 1990 4224 1472 4224 
C 890 4224 378 3800 378 3215 
C 378 3054 416 2777 666 2533 
C 730 2469 998 2276 1171 2154 
C 883 2006 211 1652 211 945 
C 211 282 838 -128 1459 -128 
C 2144 -128 2720 366 2720 1022 
C 2720 1607 2330 1877 2074 2051 
L 1741 2289 
z
M 902 2855 
C 851 2887 595 3086 595 3388 
C 595 3781 998 4076 1459 4076 
C 1965 4076 2336 3716 2336 3298 
C 2336 2700 1670 2359 1638 2359 
C 1632 2359 1626 2359 1574 2398 
L 902 2855 
z
M 2080 1536 
C 2176 1466 2483 1253 2483 861 
C 2483 385 2010 25 1472 25 
C 890 25 448 443 448 951 
C 448 1459 838 1884 1280 2083 
L 2080 1536 
z
" transform="scale(0.015625)"/>
       </defs>
       <use xlink:href="#CMR17-30" transform="scale(0.996264)"/>
       <use xlink:href="#CMMI12-3a" transform="translate(45.690477 0)scale(0.996264)"/>
       <use xlink:href="#CMR17-30" transform="translate(72.787654 0)scale(0.996264)"/>
       <use xlink:href="#CMR17-30" transform="translate(118.478131 0)scale(0.996264)"/>
       <use xlink:href="#CMR17-38" transform="translate(164.168608 0)scale(0.996264)"/>
      </g>
     </g>
    </g>
    <g id="xtick_2">
     <g id="line2d_2">
      <g>
       <use xlink:href="#m21b65c1b9a" x="124.013506" y="320.4" style="stroke: #000000; stroke-width: 0.8"/>
      </g>
     </g>
     <g id="text_2">
      <!-- $\mathdefault{0.010}$ -->
      <g transform="translate(112.667132 334.49832)scale(0.1 -0.1)">
       <defs>
        <path id="CMR17-31" d="M 1702 4083 
C 1702 4217 1696 4224 1606 4224 
C 1357 3927 979 3833 621 3820 
C 602 3820 570 3820 563 3808 
C 557 3795 557 3782 557 3648 
C 755 3648 1088 3686 1344 3839 
L 1344 467 
C 1344 243 1331 166 781 166 
L 589 166 
L 589 0 
C 896 6 1216 12 1523 12 
C 1830 12 2150 6 2458 0 
L 2458 166 
L 2266 166 
C 1715 166 1702 236 1702 467 
L 1702 4083 
z
" transform="scale(0.015625)"/>
       </defs>
       <use xlink:href="#CMR17-30" transform="scale(0.996264)"/>
       <use xlink:href="#CMMI12-3a" transform="translate(45.690477 0)scale(0.996264)"/>
       <use xlink:href="#CMR17-30" transform="translate(72.787654 0)scale(0.996264)"/>
       <use xlink:href="#CMR17-31" transform="translate(118.478131 0)scale(0.996264)"/>
       <use xlink:href="#CMR17-30" transform="translate(164.168608 0)scale(0.996264)"/>
      </g>
     </g>
    </g>
    <g id="xtick_3">
     <g id="line2d_3">
      <g>
       <use xlink:href="#m21b65c1b9a" x="168.328872" y="320.4" style="stroke: #000000; stroke-width: 0.8"/>
      </g>
     </g>
     <g id="text_3">
      <!-- $\mathdefault{0.012}$ -->
      <g transform="translate(156.982498 334.49832)scale(0.1 -0.1)">
       <defs>
        <path id="CMR17-32" d="M 2669 990 
L 2554 990 
C 2490 537 2438 460 2413 422 
C 2381 371 1920 371 1830 371 
L 602 371 
C 832 620 1280 1073 1824 1596 
C 2214 1966 2669 2400 2669 3033 
C 2669 3788 2067 4224 1395 4224 
C 691 4224 262 3603 262 3027 
C 262 2777 448 2745 525 2745 
C 589 2745 781 2783 781 3007 
C 781 3206 614 3264 525 3264 
C 486 3264 448 3257 422 3244 
C 544 3788 915 4057 1306 4057 
C 1862 4057 2227 3616 2227 3033 
C 2227 2477 1901 1998 1536 1583 
L 262 147 
L 262 0 
L 2515 0 
L 2669 990 
z
" transform="scale(0.015625)"/>
       </defs>
       <use xlink:href="#CMR17-30" transform="scale(0.996264)"/>
       <use xlink:href="#CMMI12-3a" transform="translate(45.690477 0)scale(0.996264)"/>
       <use xlink:href="#CMR17-30" transform="translate(72.787654 0)scale(0.996264)"/>
       <use xlink:href="#CMR17-31" transform="translate(118.478131 0)scale(0.996264)"/>
       <use xlink:href="#CMR17-32" transform="translate(164.168608 0)scale(0.996264)"/>
      </g>
     </g>
    </g>
    <g id="xtick_4">
     <g id="line2d_4">
      <g>
       <use xlink:href="#m21b65c1b9a" x="212.644239" y="320.4" style="stroke: #000000; stroke-width: 0.8"/>
      </g>
     </g>
     <g id="text_4">
      <!-- $\mathdefault{0.014}$ -->
      <g transform="translate(201.297864 334.49832)scale(0.1 -0.1)">
       <defs>
        <path id="CMR17-34" d="M 2150 4147 
C 2150 4281 2144 4288 2029 4288 
L 128 1254 
L 128 1088 
L 1779 1088 
L 1779 460 
C 1779 230 1766 166 1318 166 
L 1197 166 
L 1197 0 
C 1402 12 1747 12 1965 12 
C 2182 12 2528 12 2733 0 
L 2733 166 
L 2611 166 
C 2163 166 2150 230 2150 460 
L 2150 1088 
L 2803 1088 
L 2803 1254 
L 2150 1254 
L 2150 4147 
z
M 1798 3723 
L 1798 1254 
L 256 1254 
L 1798 3723 
z
" transform="scale(0.015625)"/>
       </defs>
       <use xlink:href="#CMR17-30" transform="scale(0.996264)"/>
       <use xlink:href="#CMMI12-3a" transform="translate(45.690477 0)scale(0.996264)"/>
       <use xlink:href="#CMR17-30" transform="translate(72.787654 0)scale(0.996264)"/>
       <use xlink:href="#CMR17-31" transform="translate(118.478131 0)scale(0.996264)"/>
       <use xlink:href="#CMR17-34" transform="translate(164.168608 0)scale(0.996264)"/>
      </g>
     </g>
    </g>
    <g id="xtick_5">
     <g id="line2d_5">
      <g>
       <use xlink:href="#m21b65c1b9a" x="256.959605" y="320.4" style="stroke: #000000; stroke-width: 0.8"/>
      </g>
     </g>
     <g id="text_5">
      <!-- $\mathdefault{0.016}$ -->
      <g transform="translate(245.61323 334.49832)scale(0.1 -0.1)">
       <defs>
        <path id="CMR17-36" d="M 678 2198 
C 678 3712 1395 4076 1811 4076 
C 1946 4076 2272 4049 2400 3782 
C 2298 3782 2106 3782 2106 3558 
C 2106 3385 2246 3328 2336 3328 
C 2394 3328 2566 3353 2566 3571 
C 2566 3987 2246 4224 1805 4224 
C 1043 4224 243 3411 243 2011 
C 243 257 966 -128 1478 -128 
C 2099 -128 2688 431 2688 1295 
C 2688 2101 2170 2688 1517 2688 
C 1126 2688 838 2430 678 1979 
L 678 2198 
z
M 1478 25 
C 691 25 691 1212 691 1450 
C 691 1914 909 2585 1504 2585 
C 1613 2585 1926 2585 2138 2140 
C 2253 1889 2253 1624 2253 1302 
C 2253 954 2253 696 2118 438 
C 1978 173 1773 25 1478 25 
z
" transform="scale(0.015625)"/>
       </defs>
       <use xlink:href="#CMR17-30" transform="scale(0.996264)"/>
       <use xlink:href="#CMMI12-3a" transform="translate(45.690477 0)scale(0.996264)"/>
       <use xlink:href="#CMR17-30" transform="translate(72.787654 0)scale(0.996264)"/>
       <use xlink:href="#CMR17-31" transform="translate(118.478131 0)scale(0.996264)"/>
       <use xlink:href="#CMR17-36" transform="translate(164.168608 0)scale(0.996264)"/>
      </g>
     </g>
    </g>
    <g id="xtick_6">
     <g id="line2d_6">
      <g>
       <use xlink:href="#m21b65c1b9a" x="301.274971" y="320.4" style="stroke: #000000; stroke-width: 0.8"/>
      </g>
     </g>
     <g id="text_6">
      <!-- $\mathdefault{0.018}$ -->
      <g transform="translate(289.928596 334.49832)scale(0.1 -0.1)">
       <use xlink:href="#CMR17-30" transform="scale(0.996264)"/>
       <use xlink:href="#CMMI12-3a" transform="translate(45.690477 0)scale(0.996264)"/>
       <use xlink:href="#CMR17-30" transform="translate(72.787654 0)scale(0.996264)"/>
       <use xlink:href="#CMR17-31" transform="translate(118.478131 0)scale(0.996264)"/>
       <use xlink:href="#CMR17-38" transform="translate(164.168608 0)scale(0.996264)"/>
      </g>
     </g>
    </g>
   </g>
   <g id="matplotlib.axis_2">
    <g id="ytick_1">
     <g id="line2d_7">
      <defs>
       <path id="meba124de5f" d="M 0 0 
L -3.5 0 
" style="stroke: #000000; stroke-width: 0.8"/>
      </defs>
      <g>
       <use xlink:href="#meba124de5f" x="45" y="320.4" style="stroke: #000000; stroke-width: 0.8"/>
      </g>
     </g>
     <g id="text_7">
      <!-- $\mathdefault{0.0}$ -->
      <g transform="translate(25.269921 323.94916)scale(0.1 -0.1)">
       <use xlink:href="#CMR17-30" transform="scale(0.996264)"/>
       <use xlink:href="#CMMI12-3a" transform="translate(45.690477 0)scale(0.996264)"/>
       <use xlink:href="#CMR17-30" transform="translate(72.787654 0)scale(0.996264)"/>
      </g>
     </g>
    </g>
    <g id="ytick_2">
     <g id="line2d_8">
      <g>
       <use xlink:href="#meba124de5f" x="45" y="267.6" style="stroke: #000000; stroke-width: 0.8"/>
      </g>
     </g>
     <g id="text_8">
      <!-- $\mathdefault{0.2}$ -->
      <g transform="translate(25.269921 271.14916)scale(0.1 -0.1)">
       <use xlink:href="#CMR17-30" transform="scale(0.996264)"/>
       <use xlink:href="#CMMI12-3a" transform="translate(45.690477 0)scale(0.996264)"/>
       <use xlink:href="#CMR17-32" transform="translate(72.787654 0)scale(0.996264)"/>
      </g>
     </g>
    </g>
    <g id="ytick_3">
     <g id="line2d_9">
      <g>
       <use xlink:href="#meba124de5f" x="45" y="214.8" style="stroke: #000000; stroke-width: 0.8"/>
      </g>
     </g>
     <g id="text_9">
      <!-- $\mathdefault{0.4}$ -->
      <g transform="translate(25.269921 218.34916)scale(0.1 -0.1)">
       <use xlink:href="#CMR17-30" transform="scale(0.996264)"/>
       <use xlink:href="#CMMI12-3a" transform="translate(45.690477 0)scale(0.996264)"/>
       <use xlink:href="#CMR17-34" transform="translate(72.787654 0)scale(0.996264)"/>
      </g>
     </g>
    </g>
    <g id="ytick_4">
     <g id="line2d_10">
      <g>
       <use xlink:href="#meba124de5f" x="45" y="162" style="stroke: #000000; stroke-width: 0.8"/>
      </g>
     </g>
     <g id="text_10">
      <!-- $\mathdefault{0.6}$ -->
      <g transform="translate(25.269921 165.54916)scale(0.1 -0.1)">
       <use xlink:href="#CMR17-30" transform="scale(0.996264)"/>
       <use xlink:href="#CMMI12-3a" transform="translate(45.690477 0)scale(0.996264)"/>
       <use xlink:href="#CMR17-36" transform="translate(72.787654 0)scale(0.996264)"/>
      </g>
     </g>
    </g>
    <g id="ytick_5">
     <g id="line2d_11">
      <g>
       <use xlink:href="#meba124de5f" x="45" y="109.2" style="stroke: #000000; stroke-width: 0.8"/>
      </g>
     </g>
     <g id="text_11">
      <!-- $\mathdefault{0.8}$ -->
      <g transform="translate(25.269921 112.74916)scale(0.1 -0.1)">
       <use xlink:href="#CMR17-30" transform="scale(0.996264)"/>
       <use xlink:href="#CMMI12-3a" transform="translate(45.690477 0)scale(0.996264)"/>
       <use xlink:href="#CMR17-38" transform="translate(72.787654 0)scale(0.996264)"/>
      </g>
     </g>
    </g>
    <g id="ytick_6">
     <g id="line2d_12">
      <g>
       <use xlink:href="#meba124de5f" x="45" y="56.4" style="stroke: #000000; stroke-width: 0.8"/>
      </g>
     </g>
     <g id="text_12">
      <!-- $\mathdefault{1.0}$ -->
      <g transform="translate(25.269921 59.94916)scale(0.1 -0.1)">
       <use xlink:href="#CMR17-31" transform="scale(0.996264)"/>
       <use xlink:href="#CMMI12-3a" transform="translate(45.690477 0)scale(0.996264)"/>
       <use xlink:href="#CMR17-30" transform="translate(72.787654 0)scale(0.996264)"/>
      </g>
     </g>
    </g>
   </g>
   <g id="patch_43">
    <path d="M 45 320.4 
L 45 43.2 
" style="fill: none; stroke: #000000; stroke-width: 0.8; stroke-linejoin: miter; stroke-linecap: square"/>
   </g>
   <g id="patch_44">
    <path d="M 324 320.4 
L 324 43.2 
" style="fill: none; stroke: #000000; stroke-width: 0.8; stroke-linejoin: miter; stroke-linecap: square"/>
   </g>
   <g id="patch_45">
    <path d="M 45 320.4 
L 324 320.4 
" style="fill: none; stroke: #000000; stroke-width: 0.8; stroke-linejoin: miter; stroke-linecap: square"/>
   </g>
   <g id="patch_46">
    <path d="M 45 43.2 
L 324 43.2 
" style="fill: none; stroke: #000000; stroke-width: 0.8; stroke-linejoin: miter; stroke-linecap: square"/>
   </g>
   <g id="text_13">
    <!-- Histogram of sigma of last layer -->
    <g transform="translate(101.209404 37.2)scale(0.12 -0.12)">
     <defs>
      <path id="NimbusSanL-Regu-48" d="M 3526 2112 
L 3526 0 
L 4122 0 
L 4122 4672 
L 3526 4672 
L 3526 2636 
L 1126 2636 
L 1126 4672 
L 531 4672 
L 531 0 
L 1133 0 
L 1133 2112 
L 3526 2112 
z
" transform="scale(0.015625)"/>
      <path id="NimbusSanL-Regu-69" d="M 960 3358 
L 429 3358 
L 429 0 
L 960 0 
L 960 3358 
z
M 960 4672 
L 422 4672 
L 422 3999 
L 960 3999 
L 960 4672 
z
" transform="scale(0.015625)"/>
      <path id="NimbusSanL-Regu-73" d="M 2803 2428 
C 2797 3084 2362 3456 1587 3456 
C 806 3456 301 3052 301 2434 
C 301 1912 570 1663 1363 1472 
L 1862 1351 
C 2234 1262 2381 1129 2381 887 
C 2381 574 2067 364 1600 364 
C 1312 364 1069 447 934 587 
C 851 683 813 778 781 1014 
L 218 1014 
C 243 243 678 -128 1555 -128 
C 2400 -128 2938 288 2938 931 
C 2938 1428 2656 1702 1990 1861 
L 1478 1982 
C 1043 2084 858 2224 858 2459 
C 858 2765 1133 2963 1568 2963 
C 1997 2963 2227 2778 2240 2428 
L 2803 2428 
z
" transform="scale(0.015625)"/>
      <path id="NimbusSanL-Regu-74" d="M 1626 3328 
L 1075 3328 
L 1075 4249 
L 544 4249 
L 544 3328 
L 90 3328 
L 90 2892 
L 544 2892 
L 544 402 
C 544 64 774 -128 1190 -128 
C 1318 -128 1446 -116 1626 -84 
L 1626 364 
C 1555 345 1472 339 1370 339 
C 1139 339 1075 402 1075 634 
L 1075 2892 
L 1626 2892 
L 1626 3328 
z
" transform="scale(0.015625)"/>
      <path id="NimbusSanL-Regu-6f" d="M 1741 3456 
C 800 3456 230 2784 230 1663 
C 230 543 794 -128 1747 -128 
C 2688 -128 3264 543 3264 1638 
C 3264 2791 2707 3456 1741 3456 
z
M 1747 2963 
C 2349 2963 2707 2472 2707 1644 
C 2707 861 2336 364 1747 364 
C 1152 364 787 855 787 1663 
C 787 2466 1152 2963 1747 2963 
z
" transform="scale(0.015625)"/>
      <path id="NimbusSanL-Regu-67" d="M 2637 3359 
L 2637 2873 
C 2368 3270 2042 3456 1613 3456 
C 762 3456 186 2714 186 1632 
C 186 1084 333 638 608 320 
C 858 38 1216 -128 1568 -128 
C 1990 -128 2285 51 2586 473 
L 2586 300 
C 2586 -155 2528 -441 2394 -634 
C 2253 -841 1978 -960 1651 -960 
C 1408 -960 1190 -894 1043 -774 
C 922 -674 870 -581 838 -375 
L 294 -375 
C 352 -1031 845 -1408 1632 -1408 
C 2131 -1408 2560 -1248 2778 -980 
C 3034 -661 3130 -222 3130 568 
L 3130 3359 
L 2637 3359 
z
M 1670 2963 
C 2246 2963 2586 2479 2586 1644 
C 2586 848 2240 364 1677 364 
C 1094 364 742 855 742 1663 
C 742 2466 1101 2963 1670 2963 
z
" transform="scale(0.015625)"/>
      <path id="NimbusSanL-Regu-72" d="M 442 3328 
L 442 0 
L 979 0 
L 979 1727 
C 979 2203 1101 2514 1357 2698 
C 1523 2819 1683 2857 2054 2863 
L 2054 3404 
C 1965 3449 1920 3456 1850 3456 
C 1504 3456 1242 3251 934 2750 
L 934 3328 
L 442 3328 
z
" transform="scale(0.015625)"/>
      <path id="NimbusSanL-Regu-61" d="M 3424 332 
C 3366 320 3341 320 3309 320 
C 3123 320 3021 415 3021 581 
L 3021 2542 
C 3021 3135 2586 3456 1760 3456 
C 1274 3456 870 3315 646 3065 
C 493 2893 429 2702 416 2370 
L 954 2370 
C 998 2778 1242 2963 1741 2963 
C 2221 2963 2490 2784 2490 2466 
L 2490 2326 
C 2490 2103 2355 2007 1933 1956 
C 1178 1861 1062 1835 858 1753 
C 467 1593 269 1294 269 861 
C 269 256 691 -128 1370 -128 
C 1792 -128 2131 19 2509 364 
C 2547 25 2714 -128 3059 -128 
C 3168 -128 3251 -116 3424 -71 
L 3424 332 
z
M 2490 1071 
C 2490 893 2438 785 2278 638 
C 2061 441 1798 339 1485 339 
C 1069 339 826 536 826 874 
C 826 1224 1062 1402 1632 1485 
C 2195 1562 2310 1587 2490 1670 
L 2490 1071 
z
" transform="scale(0.015625)"/>
      <path id="NimbusSanL-Regu-6d" d="M 448 3328 
L 448 0 
L 986 0 
L 986 2089 
C 986 2597 1338 2988 1773 2988 
C 2170 2988 2394 2744 2394 2315 
L 2394 0 
L 2931 0 
L 2931 2109 
C 2931 2597 3283 2988 3718 2988 
C 4109 2988 4339 2738 4339 2315 
L 4339 0 
L 4877 0 
L 4877 2520 
C 4877 3123 4531 3456 3904 3456 
C 3456 3456 3187 3321 2874 2943 
C 2675 3302 2406 3456 1971 3456 
C 1523 3456 1229 3289 941 2886 
L 941 3328 
L 448 3328 
z
" transform="scale(0.015625)"/>
      <path id="NimbusSanL-Regu-66" d="M 1651 3328 
L 1094 3328 
L 1094 3860 
C 1094 4087 1222 4204 1466 4204 
C 1510 4204 1530 4204 1651 4198 
L 1651 4639 
C 1530 4665 1459 4672 1350 4672 
C 858 4672 563 4390 563 3905 
L 563 3328 
L 115 3328 
L 115 2892 
L 563 2892 
L 563 0 
L 1094 0 
L 1094 2892 
L 1651 2892 
L 1651 3328 
z
" transform="scale(0.015625)"/>
      <path id="NimbusSanL-Regu-6c" d="M 973 4672 
L 435 4672 
L 435 0 
L 973 0 
L 973 4672 
z
" transform="scale(0.015625)"/>
      <path id="NimbusSanL-Regu-79" d="M 2483 3328 
L 1555 724 
L 698 3328 
L 128 3328 
L 1261 -29 
L 1056 -558 
C 973 -794 851 -884 627 -884 
C 550 -884 461 -871 346 -845 
L 346 -1325 
C 454 -1383 563 -1408 704 -1408 
C 877 -1408 1062 -1351 1203 -1248 
C 1370 -1127 1466 -986 1568 -718 
L 3059 3328 
L 2483 3328 
z
" transform="scale(0.015625)"/>
      <path id="NimbusSanL-Regu-65" d="M 3283 1484 
C 3283 1998 3245 2311 3149 2565 
C 2931 3123 2419 3456 1792 3456 
C 858 3456 256 2734 256 1619 
C 256 545 838 -128 1779 -128 
C 2547 -128 3078 307 3213 1018 
L 2675 1018 
C 2528 588 2227 364 1798 364 
C 1459 364 1171 514 992 787 
C 864 974 819 1161 813 1484 
L 3283 1484 
z
M 826 1920 
C 870 2552 1248 2963 1786 2963 
C 2310 2963 2714 2519 2714 1959 
C 2714 1946 2714 1933 2707 1920 
L 826 1920 
z
" transform="scale(0.015625)"/>
     </defs>
     <use xlink:href="#NimbusSanL-Regu-48" transform="scale(0.996264)"/>
     <use xlink:href="#NimbusSanL-Regu-69" transform="translate(71.929985 0)scale(0.996264)"/>
     <use xlink:href="#NimbusSanL-Regu-73" transform="translate(94.046769 0)scale(0.996264)"/>
     <use xlink:href="#NimbusSanL-Regu-74" transform="translate(143.85997 0)scale(0.996264)"/>
     <use xlink:href="#NimbusSanL-Regu-6f" transform="translate(171.555139 0)scale(0.996264)"/>
     <use xlink:href="#NimbusSanL-Regu-67" transform="translate(226.946816 0)scale(0.996264)"/>
     <use xlink:href="#NimbusSanL-Regu-72" transform="translate(281.342396 0)scale(0.996264)"/>
     <use xlink:href="#NimbusSanL-Regu-61" transform="translate(313.521529 0)scale(0.996264)"/>
     <use xlink:href="#NimbusSanL-Regu-6d" transform="translate(368.913206 0)scale(0.996264)"/>
     <use xlink:href="#NimbusSanL-Regu-6f" transform="translate(479.596806 0)scale(0.996264)"/>
     <use xlink:href="#NimbusSanL-Regu-66" transform="translate(534.988483 0)scale(0.996264)"/>
     <use xlink:href="#NimbusSanL-Regu-73" transform="translate(590.378822 0)scale(0.996264)"/>
     <use xlink:href="#NimbusSanL-Regu-69" transform="translate(640.192023 0)scale(0.996264)"/>
     <use xlink:href="#NimbusSanL-Regu-67" transform="translate(662.308807 0)scale(0.996264)"/>
     <use xlink:href="#NimbusSanL-Regu-6d" transform="translate(717.700484 0)scale(0.996264)"/>
     <use xlink:href="#NimbusSanL-Regu-61" transform="translate(800.688914 0)scale(0.996264)"/>
     <use xlink:href="#NimbusSanL-Regu-6f" transform="translate(883.775761 0)scale(0.996264)"/>
     <use xlink:href="#NimbusSanL-Regu-66" transform="translate(939.167438 0)scale(0.996264)"/>
     <use xlink:href="#NimbusSanL-Regu-6c" transform="translate(994.557777 0)scale(0.996264)"/>
     <use xlink:href="#NimbusSanL-Regu-61" transform="translate(1016.674561 0)scale(0.996264)"/>
     <use xlink:href="#NimbusSanL-Regu-73" transform="translate(1072.066238 0)scale(0.996264)"/>
     <use xlink:href="#NimbusSanL-Regu-74" transform="translate(1121.879439 0)scale(0.996264)"/>
     <use xlink:href="#NimbusSanL-Regu-6c" transform="translate(1177.269778 0)scale(0.996264)"/>
     <use xlink:href="#NimbusSanL-Regu-61" transform="translate(1199.386562 0)scale(0.996264)"/>
     <use xlink:href="#NimbusSanL-Regu-79" transform="translate(1251.790131 0)scale(0.996264)"/>
     <use xlink:href="#NimbusSanL-Regu-65" transform="translate(1299.611321 0)scale(0.996264)"/>
     <use xlink:href="#NimbusSanL-Regu-72" transform="translate(1355.002998 0)scale(0.996264)"/>
    </g>
   </g>
  </g>
 </g>
 <defs>
  <clipPath id="p64e1734f2e">
   <rect x="45" y="43.2" width="279" height="277.2"/>
  </clipPath>
 </defs>
</svg>
