<?xml version="1.0" encoding="utf-8" standalone="no"?>
<!DOCTYPE svg PUBLIC "-//W3C//DTD SVG 1.1//EN"
  "http://www.w3.org/Graphics/SVG/1.1/DTD/svg11.dtd">
<svg xmlns:xlink="http://www.w3.org/1999/xlink" width="360pt" height="360pt" viewBox="0 0 360 360" xmlns="http://www.w3.org/2000/svg" version="1.1">
 <metadata>
  <rdf:RDF xmlns:dc="http://purl.org/dc/elements/1.1/" xmlns:cc="http://creativecommons.org/ns#" xmlns:rdf="http://www.w3.org/1999/02/22-rdf-syntax-ns#">
   <cc:Work>
    <dc:type rdf:resource="http://purl.org/dc/dcmitype/StillImage"/>
    <dc:date>2022-11-15T21:29:13.278023</dc:date>
    <dc:format>image/svg+xml</dc:format>
    <dc:creator>
     <cc:Agent>
      <dc:title>Matplotlib v3.5.3, https://matplotlib.org/</dc:title>
     </cc:Agent>
    </dc:creator>
   </cc:Work>
  </rdf:RDF>
 </metadata>
 <defs>
  <style type="text/css">*{stroke-linejoin: round; stroke-linecap: butt}</style>
 </defs>
 <g id="figure_1">
  <g id="patch_1">
   <path d="M 0 360 
L 360 360 
L 360 0 
L 0 0 
z
" style="fill: #ffffff"/>
  </g>
  <g id="axes_1">
   <g id="patch_2">
    <path d="M 45 320.4 
L 324 320.4 
L 324 43.2 
L 45 43.2 
z
" style="fill: #ffffff"/>
   </g>
   <g id="matplotlib.axis_1">
    <g id="xtick_1">
     <g id="line2d_1">
      <defs>
       <path id="m9a512ef914" d="M 0 0 
L 0 3.5 
" style="stroke: #000000; stroke-width: 0.8"/>
      </defs>
      <g>
       <use xlink:href="#m9a512ef914" x="83.045455" y="320.4" style="stroke: #000000; stroke-width: 0.8"/>
      </g>
     </g>
     <g id="text_1">
      <!-- −2 -->
      <g transform="translate(75.674361 334.998438)scale(0.1 -0.1)">
       <defs>
        <path id="DejaVuSans-2212" d="M 678 2272 
L 4684 2272 
L 4684 1741 
L 678 1741 
L 678 2272 
z
" transform="scale(0.015625)"/>
        <path id="DejaVuSans-32" d="M 1228 531 
L 3431 531 
L 3431 0 
L 469 0 
L 469 531 
Q 828 903 1448 1529 
Q 2069 2156 2228 2338 
Q 2531 2678 2651 2914 
Q 2772 3150 2772 3378 
Q 2772 3750 2511 3984 
Q 2250 4219 1831 4219 
Q 1534 4219 1204 4116 
Q 875 4013 500 3803 
L 500 4441 
Q 881 4594 1212 4672 
Q 1544 4750 1819 4750 
Q 2544 4750 2975 4387 
Q 3406 4025 3406 3419 
Q 3406 3131 3298 2873 
Q 3191 2616 2906 2266 
Q 2828 2175 2409 1742 
Q 1991 1309 1228 531 
z
" transform="scale(0.015625)"/>
       </defs>
       <use xlink:href="#DejaVuSans-2212"/>
       <use xlink:href="#DejaVuSans-32" x="83.789062"/>
      </g>
     </g>
    </g>
    <g id="xtick_2">
     <g id="line2d_2">
      <g>
       <use xlink:href="#m9a512ef914" x="133.772727" y="320.4" style="stroke: #000000; stroke-width: 0.8"/>
      </g>
     </g>
     <g id="text_2">
      <!-- −1 -->
      <g transform="translate(126.401634 334.998438)scale(0.1 -0.1)">
       <defs>
        <path id="DejaVuSans-31" d="M 794 531 
L 1825 531 
L 1825 4091 
L 703 3866 
L 703 4441 
L 1819 4666 
L 2450 4666 
L 2450 531 
L 3481 531 
L 3481 0 
L 794 0 
L 794 531 
z
" transform="scale(0.015625)"/>
       </defs>
       <use xlink:href="#DejaVuSans-2212"/>
       <use xlink:href="#DejaVuSans-31" x="83.789062"/>
      </g>
     </g>
    </g>
    <g id="xtick_3">
     <g id="line2d_3">
      <g>
       <use xlink:href="#m9a512ef914" x="184.5" y="320.4" style="stroke: #000000; stroke-width: 0.8"/>
      </g>
     </g>
     <g id="text_3">
      <!-- 0 -->
      <g transform="translate(181.31875 334.998438)scale(0.1 -0.1)">
       <defs>
        <path id="DejaVuSans-30" d="M 2034 4250 
Q 1547 4250 1301 3770 
Q 1056 3291 1056 2328 
Q 1056 1369 1301 889 
Q 1547 409 2034 409 
Q 2525 409 2770 889 
Q 3016 1369 3016 2328 
Q 3016 3291 2770 3770 
Q 2525 4250 2034 4250 
z
M 2034 4750 
Q 2819 4750 3233 4129 
Q 3647 3509 3647 2328 
Q 3647 1150 3233 529 
Q 2819 -91 2034 -91 
Q 1250 -91 836 529 
Q 422 1150 422 2328 
Q 422 3509 836 4129 
Q 1250 4750 2034 4750 
z
" transform="scale(0.015625)"/>
       </defs>
       <use xlink:href="#DejaVuSans-30"/>
      </g>
     </g>
    </g>
    <g id="xtick_4">
     <g id="line2d_4">
      <g>
       <use xlink:href="#m9a512ef914" x="235.227273" y="320.4" style="stroke: #000000; stroke-width: 0.8"/>
      </g>
     </g>
     <g id="text_4">
      <!-- 1 -->
      <g transform="translate(232.046023 334.998438)scale(0.1 -0.1)">
       <use xlink:href="#DejaVuSans-31"/>
      </g>
     </g>
    </g>
    <g id="xtick_5">
     <g id="line2d_5">
      <g>
       <use xlink:href="#m9a512ef914" x="285.954545" y="320.4" style="stroke: #000000; stroke-width: 0.8"/>
      </g>
     </g>
     <g id="text_5">
      <!-- 2 -->
      <g transform="translate(282.773295 334.998438)scale(0.1 -0.1)">
       <use xlink:href="#DejaVuSans-32"/>
      </g>
     </g>
    </g>
   </g>
   <g id="matplotlib.axis_2">
    <g id="ytick_1">
     <g id="line2d_6">
      <defs>
       <path id="m07f3a10c46" d="M 0 0 
L -3.5 0 
" style="stroke: #000000; stroke-width: 0.8"/>
      </defs>
      <g>
       <use xlink:href="#m07f3a10c46" x="45" y="291.6749" style="stroke: #000000; stroke-width: 0.8"/>
      </g>
     </g>
     <g id="text_6">
      <!-- −0.015 -->
      <g transform="translate(0.992188 295.474118)scale(0.1 -0.1)">
       <defs>
        <path id="DejaVuSans-2e" d="M 684 794 
L 1344 794 
L 1344 0 
L 684 0 
L 684 794 
z
" transform="scale(0.015625)"/>
        <path id="DejaVuSans-35" d="M 691 4666 
L 3169 4666 
L 3169 4134 
L 1269 4134 
L 1269 2991 
Q 1406 3038 1543 3061 
Q 1681 3084 1819 3084 
Q 2600 3084 3056 2656 
Q 3513 2228 3513 1497 
Q 3513 744 3044 326 
Q 2575 -91 1722 -91 
Q 1428 -91 1123 -41 
Q 819 9 494 109 
L 494 744 
Q 775 591 1075 516 
Q 1375 441 1709 441 
Q 2250 441 2565 725 
Q 2881 1009 2881 1497 
Q 2881 1984 2565 2268 
Q 2250 2553 1709 2553 
Q 1456 2553 1204 2497 
Q 953 2441 691 2322 
L 691 4666 
z
" transform="scale(0.015625)"/>
       </defs>
       <use xlink:href="#DejaVuSans-2212"/>
       <use xlink:href="#DejaVuSans-30" x="83.789062"/>
       <use xlink:href="#DejaVuSans-2e" x="147.412109"/>
       <use xlink:href="#DejaVuSans-30" x="179.199219"/>
       <use xlink:href="#DejaVuSans-31" x="242.822266"/>
       <use xlink:href="#DejaVuSans-35" x="306.445312"/>
      </g>
     </g>
    </g>
    <g id="ytick_2">
     <g id="line2d_7">
      <g>
       <use xlink:href="#m07f3a10c46" x="45" y="258.598495" style="stroke: #000000; stroke-width: 0.8"/>
      </g>
     </g>
     <g id="text_7">
      <!-- −0.010 -->
      <g transform="translate(0.992188 262.397714)scale(0.1 -0.1)">
       <use xlink:href="#DejaVuSans-2212"/>
       <use xlink:href="#DejaVuSans-30" x="83.789062"/>
       <use xlink:href="#DejaVuSans-2e" x="147.412109"/>
       <use xlink:href="#DejaVuSans-30" x="179.199219"/>
       <use xlink:href="#DejaVuSans-31" x="242.822266"/>
       <use xlink:href="#DejaVuSans-30" x="306.445312"/>
      </g>
     </g>
    </g>
    <g id="ytick_3">
     <g id="line2d_8">
      <g>
       <use xlink:href="#m07f3a10c46" x="45" y="225.522091" style="stroke: #000000; stroke-width: 0.8"/>
      </g>
     </g>
     <g id="text_8">
      <!-- −0.005 -->
      <g transform="translate(0.992188 229.321309)scale(0.1 -0.1)">
       <use xlink:href="#DejaVuSans-2212"/>
       <use xlink:href="#DejaVuSans-30" x="83.789062"/>
       <use xlink:href="#DejaVuSans-2e" x="147.412109"/>
       <use xlink:href="#DejaVuSans-30" x="179.199219"/>
       <use xlink:href="#DejaVuSans-30" x="242.822266"/>
       <use xlink:href="#DejaVuSans-35" x="306.445312"/>
      </g>
     </g>
    </g>
    <g id="ytick_4">
     <g id="line2d_9">
      <g>
       <use xlink:href="#m07f3a10c46" x="45" y="192.445686" style="stroke: #000000; stroke-width: 0.8"/>
      </g>
     </g>
     <g id="text_9">
      <!-- 0.000 -->
      <g transform="translate(9.371875 196.244905)scale(0.1 -0.1)">
       <use xlink:href="#DejaVuSans-30"/>
       <use xlink:href="#DejaVuSans-2e" x="63.623047"/>
       <use xlink:href="#DejaVuSans-30" x="95.410156"/>
       <use xlink:href="#DejaVuSans-30" x="159.033203"/>
       <use xlink:href="#DejaVuSans-30" x="222.65625"/>
      </g>
     </g>
    </g>
    <g id="ytick_5">
     <g id="line2d_10">
      <g>
       <use xlink:href="#m07f3a10c46" x="45" y="159.369282" style="stroke: #000000; stroke-width: 0.8"/>
      </g>
     </g>
     <g id="text_10">
      <!-- 0.005 -->
      <g transform="translate(9.371875 163.1685)scale(0.1 -0.1)">
       <use xlink:href="#DejaVuSans-30"/>
       <use xlink:href="#DejaVuSans-2e" x="63.623047"/>
       <use xlink:href="#DejaVuSans-30" x="95.410156"/>
       <use xlink:href="#DejaVuSans-30" x="159.033203"/>
       <use xlink:href="#DejaVuSans-35" x="222.65625"/>
      </g>
     </g>
    </g>
    <g id="ytick_6">
     <g id="line2d_11">
      <g>
       <use xlink:href="#m07f3a10c46" x="45" y="126.292877" style="stroke: #000000; stroke-width: 0.8"/>
      </g>
     </g>
     <g id="text_11">
      <!-- 0.010 -->
      <g transform="translate(9.371875 130.092096)scale(0.1 -0.1)">
       <use xlink:href="#DejaVuSans-30"/>
       <use xlink:href="#DejaVuSans-2e" x="63.623047"/>
       <use xlink:href="#DejaVuSans-30" x="95.410156"/>
       <use xlink:href="#DejaVuSans-31" x="159.033203"/>
       <use xlink:href="#DejaVuSans-30" x="222.65625"/>
      </g>
     </g>
    </g>
    <g id="ytick_7">
     <g id="line2d_12">
      <g>
       <use xlink:href="#m07f3a10c46" x="45" y="93.216473" style="stroke: #000000; stroke-width: 0.8"/>
      </g>
     </g>
     <g id="text_12">
      <!-- 0.015 -->
      <g transform="translate(9.371875 97.015692)scale(0.1 -0.1)">
       <use xlink:href="#DejaVuSans-30"/>
       <use xlink:href="#DejaVuSans-2e" x="63.623047"/>
       <use xlink:href="#DejaVuSans-30" x="95.410156"/>
       <use xlink:href="#DejaVuSans-31" x="159.033203"/>
       <use xlink:href="#DejaVuSans-35" x="222.65625"/>
      </g>
     </g>
    </g>
    <g id="ytick_8">
     <g id="line2d_13">
      <g>
       <use xlink:href="#m07f3a10c46" x="45" y="60.140068" style="stroke: #000000; stroke-width: 0.8"/>
      </g>
     </g>
     <g id="text_13">
      <!-- 0.020 -->
      <g transform="translate(9.371875 63.939287)scale(0.1 -0.1)">
       <use xlink:href="#DejaVuSans-30"/>
       <use xlink:href="#DejaVuSans-2e" x="63.623047"/>
       <use xlink:href="#DejaVuSans-30" x="95.410156"/>
       <use xlink:href="#DejaVuSans-32" x="159.033203"/>
       <use xlink:href="#DejaVuSans-30" x="222.65625"/>
      </g>
     </g>
    </g>
   </g>
   <g id="line2d_14">
    <path d="M 57.681818 241.875318 
L 59.588863 236.547517 
L 62.131574 228.658333 
L 64.674309 220.001365 
L 73.573821 188.090705 
L 75.480866 182.321917 
L 77.387899 177.389679 
L 78.659254 174.688872 
L 79.930622 172.467535 
L 81.201977 170.796958 
L 82.473333 169.63235 
L 83.109022 169.253505 
L 84.380384 168.882861 
L 85.651745 168.976232 
L 86.923101 169.527939 
L 88.194462 170.445557 
L 89.465823 171.677355 
L 91.372862 173.998213 
L 93.915579 177.621765 
L 98.365347 184.237552 
L 100.90807 187.624917 
L 102.815109 189.836948 
L 104.722142 191.729516 
L 106.629181 193.277386 
L 108.536226 194.494634 
L 110.443266 195.396875 
L 112.350305 195.998697 
L 114.257344 196.333025 
L 116.164389 196.419693 
L 118.071428 196.285946 
L 119.978467 195.95284 
L 121.885506 195.435911 
L 124.428223 194.497631 
L 126.970946 193.301163 
L 130.149352 191.497312 
L 133.963431 189.031824 
L 139.684551 185.319279 
L 142.227271 183.991114 
L 144.13431 183.256766 
L 146.041349 182.804108 
L 147.31271 182.67943 
L 148.584072 182.712078 
L 149.85543 182.897637 
L 151.126789 183.248013 
L 152.39815 183.747435 
L 154.305195 184.771515 
L 156.212234 186.085643 
L 158.119276 187.644395 
L 160.661995 189.988675 
L 165.111749 194.510525 
L 171.468555 200.996153 
L 175.91832 205.222118 
L 181.003753 209.723779 
L 186.089199 213.922301 
L 189.2676 216.213981 
L 191.174644 217.313294 
L 192.446005 217.866262 
L 193.717365 218.220187 
L 194.98873 218.337847 
L 196.26009 218.176026 
L 197.53145 217.697186 
L 198.802811 216.869311 
L 200.074164 215.68057 
L 201.345524 214.131123 
L 202.616884 212.226253 
L 203.888245 209.995138 
L 205.79529 206.122309 
L 208.33801 200.236492 
L 216.60185 180.291619 
L 218.508889 176.449152 
L 220.415928 173.156104 
L 221.68729 171.311719 
L 222.958648 169.774811 
L 224.230009 168.553975 
L 225.501368 167.657491 
L 226.772729 167.092062 
L 228.044088 166.839079 
L 229.315449 166.90122 
L 230.586807 167.243001 
L 231.858169 167.850856 
L 233.129527 168.692138 
L 235.036569 170.323087 
L 236.943615 172.312417 
L 239.486331 175.325668 
L 244.571771 181.871073 
L 249.657211 188.294717 
L 254.74265 194.318855 
L 266.184897 207.739023 
L 270.634659 212.903032 
L 272.541698 214.836174 
L 274.448737 216.435382 
L 275.720098 217.21878 
L 276.991454 217.75574 
L 278.262815 217.956991 
L 278.898499 217.946739 
L 280.169854 217.592499 
L 281.441222 216.818879 
L 282.712583 215.620203 
L 283.983945 213.950257 
L 285.2553 211.820399 
L 286.526655 209.260593 
L 287.798011 206.293869 
L 289.705056 201.177098 
L 292.247779 193.385701 
L 296.061857 180.766161 
L 299.875935 168.425472 
L 302.418658 160.932482 
L 304.961381 154.261532 
L 307.504104 148.457414 
L 309.411149 144.676537 
L 311.318182 141.348001 
L 311.318182 141.348001 
" clip-path="url(#p638a4a5608)" style="fill: none; stroke: #1f77b4; stroke-width: 1.5; stroke-linecap: square"/>
   </g>
   <g id="line2d_15">
    <path d="M 57.681818 143.823584 
L 62.767264 142.185813 
L 71.666776 138.806176 
L 76.116544 136.77789 
L 79.294932 135.030345 
L 81.837655 133.381219 
L 84.380384 131.503082 
L 87.558784 128.804798 
L 91.372862 125.201041 
L 97.729663 118.980186 
L 101.543748 115.566245 
L 104.722142 113.05139 
L 107.264859 111.288626 
L 109.807588 109.761772 
L 112.350305 108.463377 
L 114.893027 107.385554 
L 117.435744 106.539462 
L 119.978467 105.923563 
L 122.521184 105.556468 
L 125.063907 105.457893 
L 126.970946 105.576972 
L 128.877991 105.881215 
L 130.78503 106.374407 
L 132.692069 107.071769 
L 134.599111 107.961865 
L 137.141831 109.434187 
L 139.684551 111.165762 
L 147.31271 116.545611 
L 149.219749 117.5704 
L 151.126789 118.348357 
L 153.033831 118.833742 
L 154.940876 119.01244 
L 156.847915 118.885554 
L 158.754957 118.464676 
L 160.661995 117.784979 
L 162.569035 116.869411 
L 165.111749 115.32927 
L 167.654469 113.474791 
L 170.197195 111.320801 
L 172.739914 108.84096 
L 175.28264 105.950888 
L 177.18968 103.451963 
L 179.09672 100.583183 
L 181.003753 97.288716 
L 182.910794 93.495536 
L 184.817839 89.170995 
L 186.724879 84.320141 
L 189.2676 77.198267 
L 193.081685 66.286684 
L 194.98873 61.569104 
L 196.26009 59.03201 
L 197.53145 57.149457 
L 198.167131 56.49334 
L 198.802811 56.042417 
L 199.438491 55.809779 
L 200.074164 55.8 
L 200.709844 56.023332 
L 201.345524 56.485454 
L 201.981204 57.166885 
L 202.616884 58.084346 
L 203.888245 60.564345 
L 205.159609 63.852346 
L 206.430969 67.831005 
L 208.33801 74.820235 
L 210.88073 85.314332 
L 215.966169 106.674353 
L 217.873208 113.876742 
L 219.780251 120.324438 
L 221.68729 125.900019 
L 222.958648 129.101037 
L 224.230009 131.875263 
L 225.501368 134.227824 
L 226.772729 136.157535 
L 228.044088 137.689948 
L 229.315449 138.838785 
L 230.586807 139.634801 
L 231.858169 140.103862 
L 233.129527 140.289026 
L 234.400889 140.207011 
L 235.672253 139.910615 
L 236.943615 139.426886 
L 238.850654 138.420155 
L 240.757693 137.158864 
L 243.300416 135.219374 
L 247.114494 131.9973 
L 251.56425 127.971166 
L 255.378334 124.215681 
L 257.921051 121.468544 
L 260.463774 118.428637 
L 263.00649 115.043165 
L 265.549213 111.29249 
L 268.72762 106.151351 
L 274.448737 96.708896 
L 276.355776 94.047361 
L 277.627138 92.55556 
L 278.898499 91.372814 
L 280.169854 90.548566 
L 281.441222 90.15663 
L 282.076899 90.123509 
L 282.712583 90.207101 
L 283.983945 90.738935 
L 285.2553 91.754024 
L 286.526655 93.279183 
L 287.798011 95.277502 
L 289.069378 97.70293 
L 290.976411 102.063588 
L 292.883456 107.092667 
L 296.061857 116.387772 
L 301.14729 131.421698 
L 303.690025 138.26551 
L 306.232736 144.401472 
L 308.139781 148.51167 
L 310.046826 152.205486 
L 311.318182 154.419884 
L 311.318182 154.419884 
" clip-path="url(#p638a4a5608)" style="fill: none; stroke: #ff7f0e; stroke-width: 1.5; stroke-linecap: square"/>
   </g>
   <g id="line2d_16">
    <path d="M 57.681818 85.246158 
L 64.674309 81.73719 
L 66.581342 80.995903 
L 68.488375 80.5076 
L 70.39542 80.366914 
L 72.302453 80.661536 
L 73.573821 81.156147 
L 74.845188 81.903743 
L 76.116544 82.906846 
L 77.387899 84.195738 
L 79.294932 86.69214 
L 81.201977 89.794819 
L 83.109022 93.452991 
L 85.651745 99.039769 
L 88.83014 106.65862 
L 93.915579 118.830627 
L 96.458302 124.338703 
L 99.001025 129.227766 
L 100.90807 132.448735 
L 102.815109 135.284552 
L 104.722142 137.743337 
L 106.629181 139.854269 
L 108.536226 141.652717 
L 110.443266 143.168885 
L 112.350305 144.435106 
L 114.257344 145.494949 
L 116.800067 146.629196 
L 119.342783 147.507306 
L 121.885506 148.169417 
L 124.428223 148.641948 
L 126.970946 148.926475 
L 129.513669 148.995557 
L 132.056391 148.80022 
L 133.963431 148.446374 
L 135.87047 147.886624 
L 137.777512 147.103817 
L 139.684551 146.078002 
L 141.59159 144.81679 
L 144.13431 142.791184 
L 146.67703 140.471982 
L 154.305195 133.205558 
L 156.212234 131.683869 
L 158.119276 130.402074 
L 160.026315 129.398498 
L 161.933355 128.682447 
L 163.840395 128.283256 
L 165.111749 128.196115 
L 167.018788 128.333805 
L 168.925829 128.800027 
L 170.832874 129.593204 
L 172.739914 130.738887 
L 174.64696 132.236128 
L 176.554 134.108114 
L 178.46104 136.376609 
L 180.368073 139.064956 
L 182.275114 142.190032 
L 184.182154 145.742846 
L 186.724879 151.084842 
L 190.538964 159.910729 
L 193.081685 165.656963 
L 194.98873 169.440522 
L 196.26009 171.537259 
L 197.53145 173.200265 
L 198.802811 174.373864 
L 199.438491 174.762645 
L 200.074164 175.011528 
L 200.709844 175.126034 
L 201.345524 175.099221 
L 201.981204 174.936848 
L 202.616884 174.647746 
L 203.888245 173.696533 
L 205.159609 172.304964 
L 206.430969 170.536286 
L 208.33801 167.380139 
L 211.51641 161.420667 
L 214.694811 155.562451 
L 216.60185 152.464188 
L 218.508889 149.848786 
L 219.780251 148.42867 
L 221.051609 147.289139 
L 222.322967 146.448172 
L 223.594329 145.917285 
L 224.86569 145.698842 
L 226.137049 145.791266 
L 227.408407 146.181152 
L 228.679768 146.8573 
L 229.95113 147.792267 
L 231.858169 149.631763 
L 233.765208 151.901046 
L 236.307931 155.396726 
L 240.757693 162.096066 
L 245.207455 168.620651 
L 248.385855 172.816018 
L 250.928572 175.822173 
L 254.106973 179.146292 
L 257.285373 182.059431 
L 260.463774 184.653934 
L 264.277852 187.466802 
L 268.72762 190.451428 
L 271.906014 192.326331 
L 274.448737 193.56984 
L 276.355776 194.274851 
L 278.262815 194.712131 
L 279.534177 194.84714 
L 281.441222 194.734843 
L 282.712583 194.438328 
L 283.983945 193.985985 
L 285.2553 193.345009 
L 287.162333 192.055801 
L 289.069378 190.401627 
L 290.976411 188.469235 
L 293.519146 185.574431 
L 303.690025 173.557069 
L 306.232736 171.037325 
L 309.411149 168.290463 
L 311.318182 166.829339 
L 311.318182 166.829339 
" clip-path="url(#p638a4a5608)" style="fill: none; stroke: #2ca02c; stroke-width: 1.5; stroke-linecap: square"/>
   </g>
   <g id="line2d_17">
    <path d="M 57.681818 256.278362 
L 59.588863 259.467472 
L 62.131574 264.195936 
L 65.945664 272.038434 
L 70.39542 281.176765 
L 72.302453 284.61949 
L 74.209498 287.477387 
L 75.480866 288.950497 
L 76.752221 290.034984 
L 77.387899 290.421715 
L 78.659254 290.81854 
L 79.294932 290.845668 
L 79.930622 290.754821 
L 80.566299 290.52171 
L 81.837655 289.713865 
L 83.109022 288.395636 
L 84.380384 286.62128 
L 85.651745 284.449783 
L 86.923101 281.861272 
L 88.83014 277.416391 
L 91.372862 270.684087 
L 100.272386 246.092412 
L 102.815109 240.036257 
L 104.722142 235.945694 
L 106.629181 232.278533 
L 108.536226 229.014151 
L 110.443266 226.153967 
L 112.350305 223.675112 
L 114.257344 221.558068 
L 116.164389 219.785209 
L 118.071428 218.325821 
L 119.978467 217.151276 
L 121.885506 216.240833 
L 123.792545 215.563187 
L 125.699584 215.080089 
L 128.242307 214.682869 
L 132.056391 214.395424 
L 136.50615 214.063185 
L 139.04887 213.658395 
L 141.59159 212.989936 
L 144.13431 212.012384 
L 146.67703 210.734926 
L 149.219749 209.221045 
L 153.669511 206.241624 
L 160.026315 202.023308 
L 165.747428 198.571514 
L 171.468555 195.065859 
L 175.28264 192.470882 
L 180.368073 188.695682 
L 184.182154 185.971848 
L 186.089199 184.814967 
L 187.996239 183.898768 
L 189.2676 183.463302 
L 190.538964 183.184767 
L 191.810325 183.069946 
L 193.081685 183.130038 
L 194.98873 183.509987 
L 196.895771 184.165 
L 202.616884 186.33563 
L 204.523924 186.65391 
L 205.79529 186.681669 
L 207.702329 186.447769 
L 209.60937 185.921377 
L 212.152088 184.910467 
L 218.508889 182.161791 
L 221.051609 181.364671 
L 223.594329 180.834257 
L 226.137049 180.569444 
L 228.679768 180.520393 
L 231.858169 180.706661 
L 235.672253 181.150605 
L 240.757693 181.94599 
L 248.385855 183.35412 
L 256.649689 185.15864 
L 261.099451 186.358736 
L 264.913529 187.653543 
L 267.456258 188.742762 
L 269.363297 189.728358 
L 271.270337 190.924116 
L 273.177376 192.372031 
L 275.084415 194.14063 
L 276.991454 196.291545 
L 278.898499 198.886206 
L 280.805538 201.966963 
L 282.712583 205.543435 
L 284.619622 209.636284 
L 286.526655 214.187785 
L 289.069378 220.797539 
L 299.240257 248.396749 
L 301.78298 254.270264 
L 303.690025 258.202553 
L 305.597058 261.731709 
L 307.504104 264.848899 
L 309.411149 267.566109 
L 311.318182 269.94075 
L 311.318182 269.94075 
" clip-path="url(#p638a4a5608)" style="fill: none; stroke: #d62728; stroke-width: 1.5; stroke-linecap: square"/>
   </g>
   <g id="line2d_18">
    <path d="M 57.681818 191.13976 
L 71.031098 192.904969 
L 72.938143 193.371191 
L 74.845188 193.986301 
L 76.752221 194.841146 
L 78.659254 195.927526 
L 80.566299 197.302534 
L 81.837655 198.381027 
L 83.7447 200.253486 
L 85.651745 202.435077 
L 87.558784 204.88921 
L 90.737185 209.545279 
L 93.915579 214.729476 
L 98.365347 222.471388 
L 106.629181 237.048792 
L 111.078949 244.4561 
L 114.893027 250.389233 
L 118.071428 254.986394 
L 121.249829 259.237043 
L 124.428223 263.125013 
L 127.606623 266.644784 
L 130.78503 269.78713 
L 133.327753 272.006338 
L 135.87047 273.934551 
L 137.777512 275.161499 
L 139.684551 276.167914 
L 141.59159 276.912907 
L 143.498632 277.372032 
L 145.405671 277.509091 
L 146.67703 277.410516 
L 147.948391 277.152327 
L 149.219749 276.736497 
L 151.126789 275.821323 
L 153.033831 274.576513 
L 154.940876 273.039211 
L 156.847915 271.253892 
L 160.026315 267.895311 
L 168.925829 258.063089 
L 171.468555 255.640816 
L 174.011274 253.527991 
L 176.554 251.740859 
L 179.09672 250.255289 
L 183.546474 248.062342 
L 186.089199 246.68481 
L 187.996239 245.36327 
L 189.2676 244.268531 
L 190.538964 242.938 
L 191.810325 241.353224 
L 193.081685 239.471775 
L 194.353045 237.297912 
L 196.26009 233.504101 
L 198.167131 229.184765 
L 205.159609 212.649891 
L 207.06665 208.959781 
L 208.973691 205.856471 
L 210.88073 203.298006 
L 212.787769 201.1825 
L 215.330489 198.833646 
L 222.322967 192.824334 
L 225.501368 189.597213 
L 229.315449 185.279612 
L 236.943615 176.536963 
L 240.122015 173.334604 
L 243.300416 170.504623 
L 246.47881 168.004752 
L 250.292894 165.303314 
L 256.649689 160.884653 
L 259.82809 158.382101 
L 262.370813 156.098622 
L 264.913529 153.492053 
L 267.456258 150.533372 
L 269.998975 147.19703 
L 273.177376 142.570178 
L 282.076899 129.143582 
L 283.983945 126.737082 
L 285.890984 124.655801 
L 287.798011 122.963774 
L 289.705056 121.625988 
L 291.612101 120.691021 
L 293.519146 120.069917 
L 295.426179 119.742173 
L 297.96889 119.649434 
L 299.875935 119.765516 
L 303.054336 120.16865 
L 311.318182 121.506751 
L 311.318182 121.506751 
" clip-path="url(#p638a4a5608)" style="fill: none; stroke: #9467bd; stroke-width: 1.5; stroke-linecap: square"/>
   </g>
   <g id="line2d_19">
    <path d="M 57.681818 171.001995 
L 59.588863 176.437047 
L 62.131574 184.477642 
L 65.309987 195.603252 
L 73.573821 225.451558 
L 75.480866 231.183755 
L 76.752221 234.507874 
L 78.023577 237.337066 
L 79.294932 239.65272 
L 80.566299 241.404364 
L 81.837655 242.602725 
L 82.473333 242.991349 
L 83.7447 243.34275 
L 84.380384 243.301743 
L 85.651745 242.87779 
L 86.923101 241.975313 
L 88.194462 240.645413 
L 89.465823 238.951494 
L 91.372862 235.920893 
L 93.279902 232.439605 
L 102.179425 215.483893 
L 104.722142 211.383079 
L 107.264859 207.791544 
L 109.171904 205.422621 
L 111.714627 202.66527 
L 114.257344 200.31547 
L 116.800067 198.31029 
L 119.342783 196.59153 
L 122.521184 194.766387 
L 125.699584 193.212129 
L 129.513669 191.613237 
L 134.599111 189.73999 
L 142.227271 186.884498 
L 146.041349 185.180958 
L 150.491111 182.880287 
L 160.661995 177.444369 
L 163.204716 176.383461 
L 165.747428 175.552983 
L 168.29015 174.978407 
L 170.832874 174.666594 
L 173.375594 174.619751 
L 175.91832 174.803337 
L 179.09672 175.333278 
L 182.275114 176.11573 
L 185.453519 177.09344 
L 188.631919 178.285808 
L 191.174644 179.446947 
L 193.717365 180.888513 
L 195.62441 182.219044 
L 197.53145 183.777008 
L 200.074164 186.225462 
L 202.616884 188.997165 
L 208.33801 195.40551 
L 210.245049 197.26685 
L 212.152088 198.868739 
L 214.05913 200.166543 
L 215.966169 201.15687 
L 217.873208 201.827262 
L 219.780251 202.186155 
L 221.68729 202.265173 
L 223.594329 202.087895 
L 225.501368 201.695959 
L 228.044088 200.9154 
L 231.222488 199.685653 
L 236.943615 197.408128 
L 239.486331 196.612428 
L 242.029054 196.081855 
L 243.936093 195.897165 
L 245.843132 195.933598 
L 247.750171 196.217337 
L 249.657211 196.785605 
L 251.56425 197.671048 
L 253.471295 198.908524 
L 254.74265 199.950268 
L 256.649689 201.866771 
L 258.556734 204.246774 
L 260.463774 207.135427 
L 262.370813 210.567427 
L 264.277852 214.578971 
L 266.184897 219.180075 
L 268.091936 224.375312 
L 270.634659 232.182008 
L 273.177376 240.812755 
L 277.627138 257.089677 
L 281.441222 270.781401 
L 283.983945 279.013154 
L 285.890984 284.477226 
L 287.798011 289.226508 
L 289.705056 293.260685 
L 291.612101 296.552629 
L 292.883456 298.385658 
L 294.790502 300.631284 
L 296.061857 301.857719 
L 297.96889 303.305594 
L 299.875935 304.431088 
L 301.78298 305.308646 
L 304.325703 306.195666 
L 308.139781 307.159654 
L 311.318182 307.8 
L 311.318182 307.8 
" clip-path="url(#p638a4a5608)" style="fill: none; stroke: #8c564b; stroke-width: 1.5; stroke-linecap: square"/>
   </g>
   <g id="line2d_20">
    <path d="M 57.681818 250.102024 
L 59.588863 247.657355 
L 61.495896 244.933205 
L 64.038619 240.905021 
L 67.21702 235.222664 
L 70.39542 228.977559 
L 81.201977 206.993833 
L 83.7447 202.53728 
L 86.287423 198.569977 
L 88.83014 195.061009 
L 91.372862 191.976783 
L 93.915579 189.256024 
L 96.458302 186.756626 
L 101.543748 182.241046 
L 117.435744 168.45741 
L 124.428223 161.934639 
L 130.78503 156.030368 
L 133.327753 153.924089 
L 135.234792 152.56572 
L 137.141831 151.489198 
L 138.413193 150.973413 
L 139.684551 150.647956 
L 140.955909 150.547133 
L 142.227271 150.688412 
L 143.498632 151.100141 
L 144.769991 151.794427 
L 146.041349 152.78436 
L 147.31271 154.07759 
L 148.584072 155.664575 
L 149.85543 157.537744 
L 151.762469 160.843409 
L 153.669511 164.668843 
L 156.212234 170.386924 
L 160.026315 179.721617 
L 165.747428 193.818604 
L 169.561514 202.54418 
L 173.375594 210.602125 
L 179.732393 223.264092 
L 183.546474 231.143655 
L 186.724879 238.217581 
L 193.717365 254.171807 
L 194.98873 256.595341 
L 196.26009 258.669998 
L 197.53145 260.304614 
L 198.802811 261.426165 
L 199.438491 261.770784 
L 200.074164 261.975506 
L 200.709844 262.026923 
L 201.345524 261.929136 
L 201.981204 261.680805 
L 202.616884 261.292339 
L 203.888245 260.082464 
L 205.159609 258.358894 
L 206.430969 256.195125 
L 208.33801 252.293749 
L 210.88073 246.345474 
L 215.330489 235.683484 
L 217.237528 231.571787 
L 219.14457 227.951548 
L 221.051609 224.92552 
L 222.322967 223.261253 
L 223.594329 221.900755 
L 224.86569 220.830621 
L 226.137049 220.063468 
L 227.408407 219.571695 
L 228.679768 219.350413 
L 229.95113 219.375333 
L 231.222488 219.623112 
L 232.493847 220.061733 
L 234.400889 221.021463 
L 236.307931 222.260792 
L 238.850654 224.172838 
L 245.843132 229.617984 
L 248.385855 231.292503 
L 250.928572 232.678867 
L 252.835611 233.509108 
L 254.74265 234.140937 
L 256.649689 234.554362 
L 258.556734 234.74205 
L 260.463774 234.678173 
L 262.370813 234.348537 
L 264.277852 233.724673 
L 265.549213 233.134798 
L 267.456258 231.954259 
L 269.363297 230.391091 
L 271.270337 228.421397 
L 273.177376 226.002003 
L 275.084415 223.119423 
L 276.991454 219.7651 
L 278.898499 215.943688 
L 281.441222 210.200924 
L 284.619622 202.179254 
L 294.154824 177.217448 
L 296.697535 171.483358 
L 299.240257 166.451441 
L 301.78298 162.148823 
L 303.690025 159.387451 
L 305.597058 156.998931 
L 307.504104 154.955503 
L 309.411149 153.218684 
L 311.318182 151.75756 
L 311.318182 151.75756 
" clip-path="url(#p638a4a5608)" style="fill: none; stroke: #e377c2; stroke-width: 1.5; stroke-linecap: square"/>
   </g>
   <g id="line2d_21">
    <path d="M 57.681818 227.686774 
L 59.588863 223.210664 
L 62.131574 216.526465 
L 64.674309 209.169115 
L 68.488375 197.321776 
L 72.302453 185.615123 
L 74.209498 180.347255 
L 76.116544 175.747492 
L 77.387899 173.17223 
L 78.659254 171.001364 
L 79.930622 169.322586 
L 81.201977 168.118863 
L 81.837655 167.688601 
L 82.473333 167.40218 
L 83.7447 167.192097 
L 85.016061 167.455805 
L 86.287423 168.136212 
L 87.558784 169.228585 
L 88.83014 170.645862 
L 90.737185 173.26639 
L 93.279902 177.379348 
L 99.636709 188.101706 
L 101.543748 190.899118 
L 103.450781 193.354196 
L 105.35782 195.413475 
L 107.264859 197.053927 
L 108.536226 197.914805 
L 109.807588 198.58291 
L 111.078949 199.053863 
L 112.350305 199.336459 
L 113.621666 199.428292 
L 114.893027 199.329559 
L 116.164389 199.052838 
L 118.071428 198.290575 
L 119.342783 197.563088 
L 121.249829 196.161425 
L 123.156868 194.403866 
L 125.063907 192.334335 
L 127.606623 189.180318 
L 132.056391 183.056343 
L 135.234792 178.838027 
L 137.141831 176.648392 
L 138.413193 175.404726 
L 139.684551 174.382933 
L 140.955909 173.612192 
L 142.227271 173.111942 
L 143.498632 172.902647 
L 144.769991 172.984977 
L 146.041349 173.363743 
L 147.31271 174.028456 
L 148.584072 174.94986 
L 149.85543 176.103822 
L 151.762469 178.188731 
L 154.305195 181.408912 
L 160.026315 188.866257 
L 161.933355 191.001005 
L 163.840395 192.82252 
L 165.747428 194.285457 
L 167.018788 195.049614 
L 168.29015 195.631918 
L 169.561514 196.035052 
L 170.832874 196.249079 
L 172.104235 196.270844 
L 173.375594 196.096563 
L 174.64696 195.718664 
L 175.91832 195.13983 
L 177.18968 194.336874 
L 178.46104 193.304278 
L 179.732393 192.027529 
L 181.003753 190.504737 
L 182.275114 188.711296 
L 184.182154 185.515246 
L 186.089199 181.705506 
L 187.996239 177.330494 
L 190.538964 170.810798 
L 194.98873 159.149254 
L 196.895771 154.940164 
L 198.167131 152.67924 
L 199.438491 150.949991 
L 200.709844 149.829229 
L 201.345524 149.50117 
L 201.981204 149.340374 
L 202.616884 149.330437 
L 203.252564 149.485004 
L 203.888245 149.792401 
L 204.523924 150.239381 
L 205.79529 151.551774 
L 207.06665 153.345136 
L 208.33801 155.538477 
L 210.245049 159.377633 
L 213.42345 166.575449 
L 217.237528 175.229262 
L 219.780251 180.401787 
L 221.68729 183.78032 
L 223.594329 186.659667 
L 224.86569 188.281823 
L 226.137049 189.645475 
L 227.408407 190.760875 
L 228.679768 191.621557 
L 229.95113 192.255278 
L 231.222488 192.660778 
L 232.493847 192.856509 
L 233.765208 192.8737 
L 235.672253 192.5956 
L 237.579292 192.039635 
L 240.122015 191.019813 
L 246.47881 188.246612 
L 249.021533 187.481667 
L 250.928572 187.159129 
L 252.835611 187.109289 
L 254.106973 187.25313 
L 255.378334 187.553115 
L 256.649689 188.026789 
L 257.921051 188.679595 
L 259.192412 189.534598 
L 260.463774 190.6 
L 261.735129 191.890628 
L 263.00649 193.414524 
L 264.913529 196.170455 
L 266.820575 199.495678 
L 268.72762 203.39319 
L 270.634659 207.833104 
L 273.177376 214.479725 
L 276.991454 225.345254 
L 280.169854 234.222558 
L 282.076899 239.021206 
L 283.983945 243.100176 
L 285.2553 245.35495 
L 286.526655 247.170314 
L 287.798011 248.553523 
L 289.069378 249.47745 
L 290.340734 249.955975 
L 290.976411 250.040198 
L 292.247779 249.896987 
L 293.519146 249.394489 
L 294.790502 248.548792 
L 296.061857 247.45358 
L 297.333212 246.147653 
L 299.240257 243.867014 
L 303.054336 238.825002 
L 306.232736 234.668118 
L 309.411149 230.930771 
L 311.318182 228.958633 
L 311.318182 228.958633 
" clip-path="url(#p638a4a5608)" style="fill: none; stroke: #7f7f7f; stroke-width: 1.5; stroke-linecap: square"/>
   </g>
   <g id="line2d_22">
    <path d="M 57.681818 139.319084 
L 60.224541 142.053328 
L 63.402942 145.855656 
L 66.581342 150.014432 
L 76.116544 162.921654 
L 79.294932 166.583926 
L 81.837655 169.108086 
L 84.380384 171.204508 
L 86.923101 172.980442 
L 90.101501 174.859368 
L 97.729663 179.032694 
L 100.272386 180.655323 
L 102.815109 182.502547 
L 105.35782 184.625781 
L 107.900543 187.057754 
L 110.443266 189.82579 
L 112.985988 192.954848 
L 115.528705 196.489248 
L 118.071428 200.447404 
L 120.614145 204.848597 
L 123.156868 209.691723 
L 126.335268 216.309757 
L 130.78503 226.279118 
L 134.599111 234.721112 
L 136.50615 238.56153 
L 138.413193 241.941521 
L 139.684551 243.857274 
L 140.955909 245.449582 
L 142.227271 246.68347 
L 143.498632 247.514342 
L 144.769991 247.942869 
L 146.041349 247.935219 
L 147.31271 247.499043 
L 148.584072 246.653976 
L 149.85543 245.414529 
L 151.126789 243.813901 
L 152.39815 241.90493 
L 154.305195 238.554629 
L 156.847915 233.451816 
L 165.111749 216.204597 
L 167.654469 211.642056 
L 169.561514 208.58685 
L 171.468555 205.85513 
L 173.375594 203.445159 
L 175.28264 201.339116 
L 177.18968 199.51839 
L 179.09672 197.953959 
L 181.003753 196.621536 
L 183.546474 195.156942 
L 186.089199 193.998643 
L 188.631919 193.093011 
L 191.174644 192.415128 
L 193.717365 191.968779 
L 195.62441 191.813581 
L 197.53145 191.84481 
L 199.438491 192.083915 
L 201.345524 192.557707 
L 203.252564 193.27021 
L 205.159609 194.199342 
L 207.702329 195.708728 
L 211.51641 198.299289 
L 217.237528 202.159658 
L 219.780251 203.653351 
L 222.322967 204.933726 
L 224.86569 205.973736 
L 227.408407 206.758869 
L 229.95113 207.29433 
L 232.493847 207.595892 
L 235.672253 207.701289 
L 238.850654 207.571958 
L 243.300416 207.172294 
L 255.378334 205.915734 
L 259.82809 205.712866 
L 263.00649 205.766018 
L 265.549213 205.962301 
L 268.72762 206.470713 
L 271.270337 207.100334 
L 274.448737 208.159783 
L 282.712583 211.14567 
L 284.619622 211.522622 
L 286.526655 211.645329 
L 287.798011 211.54281 
L 289.069378 211.327995 
L 290.976411 210.748845 
L 292.247779 210.20187 
L 294.154824 209.146404 
L 296.697535 207.449961 
L 300.511613 204.53213 
L 304.961381 201.098238 
L 308.139781 198.91917 
L 310.682504 197.422717 
L 311.318182 197.080148 
L 311.318182 197.080148 
" clip-path="url(#p638a4a5608)" style="fill: none; stroke: #bcbd22; stroke-width: 1.5; stroke-linecap: square"/>
   </g>
   <g id="line2d_23">
    <path d="M 57.681818 217.983804 
L 60.224541 221.986121 
L 62.767264 226.484312 
L 65.945664 232.671376 
L 72.302453 245.277667 
L 74.209498 248.615034 
L 76.116544 251.510153 
L 77.387899 253.15234 
L 78.659254 254.523878 
L 79.930622 255.58313 
L 81.201977 256.366686 
L 82.473333 256.84868 
L 83.7447 257.026589 
L 84.380384 257.045515 
L 85.651745 256.817136 
L 86.923101 256.397283 
L 88.194462 255.736119 
L 90.101501 254.483029 
L 92.644224 252.406401 
L 100.90807 245.164542 
L 103.450781 243.312192 
L 105.993504 241.727337 
L 108.536226 240.413012 
L 111.078949 239.34201 
L 114.257344 238.297742 
L 118.071428 237.367427 
L 122.521184 236.573383 
L 128.242307 235.800079 
L 132.056391 235.414846 
L 135.234792 235.246401 
L 137.777512 235.273962 
L 140.320232 235.510188 
L 142.862951 235.998294 
L 145.405671 236.769863 
L 147.948391 237.823121 
L 150.491111 239.113197 
L 154.305195 241.345101 
L 160.661995 245.108866 
L 163.840395 246.696718 
L 166.383109 247.752263 
L 169.561514 248.792588 
L 172.739914 249.543496 
L 181.639433 251.342772 
L 183.546474 252.073176 
L 185.453519 253.132112 
L 186.724879 254.066922 
L 187.996239 255.223961 
L 189.2676 256.627516 
L 190.538964 258.293676 
L 192.446005 261.298569 
L 194.353045 264.86747 
L 196.895771 270.243377 
L 201.345524 279.798878 
L 203.252564 283.297515 
L 204.523924 285.296308 
L 205.79529 287.003791 
L 207.06665 288.411527 
L 208.33801 289.534734 
L 209.60937 290.402591 
L 210.88073 291.041123 
L 212.152088 291.493308 
L 214.05913 291.872389 
L 215.966169 291.976327 
L 217.873208 291.862059 
L 219.780251 291.555371 
L 221.68729 291.049246 
L 223.594329 290.3231 
L 225.501368 289.358639 
L 227.408407 288.143875 
L 229.315449 286.667137 
L 231.222488 284.936784 
L 233.765208 282.276038 
L 236.307931 279.268898 
L 239.486331 275.147817 
L 243.300416 269.821277 
L 247.114494 264.143494 
L 250.292894 259.074512 
L 252.835611 254.678366 
L 255.378334 249.852747 
L 257.921051 244.448017 
L 259.82809 239.925221 
L 261.735129 234.918381 
L 263.642174 229.374266 
L 265.549213 223.248083 
L 267.456258 216.536284 
L 269.998975 206.730243 
L 273.177376 193.412198 
L 278.262815 171.87419 
L 280.169854 164.664624 
L 281.441222 160.37699 
L 282.712583 156.62324 
L 283.983945 153.44864 
L 285.2553 150.943406 
L 286.526655 149.099653 
L 287.162333 148.43975 
L 287.798011 147.965642 
L 288.433701 147.664395 
L 289.069378 147.511091 
L 289.705056 147.523709 
L 290.340734 147.705718 
L 290.976411 148.017059 
L 292.247779 149.075679 
L 293.519146 150.639321 
L 294.790502 152.585278 
L 296.697535 156.127682 
L 299.240257 161.499014 
L 304.961381 173.888282 
L 307.504104 178.746076 
L 310.046826 182.96731 
L 311.318182 184.815795 
L 311.318182 184.815795 
" clip-path="url(#p638a4a5608)" style="fill: none; stroke: #17becf; stroke-width: 1.5; stroke-linecap: square"/>
   </g>
   <g id="patch_3">
    <path d="M 45 320.4 
L 45 43.2 
" style="fill: none; stroke: #000000; stroke-width: 0.8; stroke-linejoin: miter; stroke-linecap: square"/>
   </g>
   <g id="patch_4">
    <path d="M 324 320.4 
L 324 43.2 
" style="fill: none; stroke: #000000; stroke-width: 0.8; stroke-linejoin: miter; stroke-linecap: square"/>
   </g>
   <g id="patch_5">
    <path d="M 45 320.4 
L 324 320.4 
" style="fill: none; stroke: #000000; stroke-width: 0.8; stroke-linejoin: miter; stroke-linecap: square"/>
   </g>
   <g id="patch_6">
    <path d="M 45 43.2 
L 324 43.2 
" style="fill: none; stroke: #000000; stroke-width: 0.8; stroke-linejoin: miter; stroke-linecap: square"/>
   </g>
   <g id="text_14">
    <!-- Deviation from average for single draw -->
    <g transform="translate(66.87 37.2)scale(0.12 -0.12)">
     <defs>
      <path id="DejaVuSans-44" d="M 1259 4147 
L 1259 519 
L 2022 519 
Q 2988 519 3436 956 
Q 3884 1394 3884 2338 
Q 3884 3275 3436 3711 
Q 2988 4147 2022 4147 
L 1259 4147 
z
M 628 4666 
L 1925 4666 
Q 3281 4666 3915 4102 
Q 4550 3538 4550 2338 
Q 4550 1131 3912 565 
Q 3275 0 1925 0 
L 628 0 
L 628 4666 
z
" transform="scale(0.015625)"/>
      <path id="DejaVuSans-65" d="M 3597 1894 
L 3597 1613 
L 953 1613 
Q 991 1019 1311 708 
Q 1631 397 2203 397 
Q 2534 397 2845 478 
Q 3156 559 3463 722 
L 3463 178 
Q 3153 47 2828 -22 
Q 2503 -91 2169 -91 
Q 1331 -91 842 396 
Q 353 884 353 1716 
Q 353 2575 817 3079 
Q 1281 3584 2069 3584 
Q 2775 3584 3186 3129 
Q 3597 2675 3597 1894 
z
M 3022 2063 
Q 3016 2534 2758 2815 
Q 2500 3097 2075 3097 
Q 1594 3097 1305 2825 
Q 1016 2553 972 2059 
L 3022 2063 
z
" transform="scale(0.015625)"/>
      <path id="DejaVuSans-76" d="M 191 3500 
L 800 3500 
L 1894 563 
L 2988 3500 
L 3597 3500 
L 2284 0 
L 1503 0 
L 191 3500 
z
" transform="scale(0.015625)"/>
      <path id="DejaVuSans-69" d="M 603 3500 
L 1178 3500 
L 1178 0 
L 603 0 
L 603 3500 
z
M 603 4863 
L 1178 4863 
L 1178 4134 
L 603 4134 
L 603 4863 
z
" transform="scale(0.015625)"/>
      <path id="DejaVuSans-61" d="M 2194 1759 
Q 1497 1759 1228 1600 
Q 959 1441 959 1056 
Q 959 750 1161 570 
Q 1363 391 1709 391 
Q 2188 391 2477 730 
Q 2766 1069 2766 1631 
L 2766 1759 
L 2194 1759 
z
M 3341 1997 
L 3341 0 
L 2766 0 
L 2766 531 
Q 2569 213 2275 61 
Q 1981 -91 1556 -91 
Q 1019 -91 701 211 
Q 384 513 384 1019 
Q 384 1609 779 1909 
Q 1175 2209 1959 2209 
L 2766 2209 
L 2766 2266 
Q 2766 2663 2505 2880 
Q 2244 3097 1772 3097 
Q 1472 3097 1187 3025 
Q 903 2953 641 2809 
L 641 3341 
Q 956 3463 1253 3523 
Q 1550 3584 1831 3584 
Q 2591 3584 2966 3190 
Q 3341 2797 3341 1997 
z
" transform="scale(0.015625)"/>
      <path id="DejaVuSans-74" d="M 1172 4494 
L 1172 3500 
L 2356 3500 
L 2356 3053 
L 1172 3053 
L 1172 1153 
Q 1172 725 1289 603 
Q 1406 481 1766 481 
L 2356 481 
L 2356 0 
L 1766 0 
Q 1100 0 847 248 
Q 594 497 594 1153 
L 594 3053 
L 172 3053 
L 172 3500 
L 594 3500 
L 594 4494 
L 1172 4494 
z
" transform="scale(0.015625)"/>
      <path id="DejaVuSans-6f" d="M 1959 3097 
Q 1497 3097 1228 2736 
Q 959 2375 959 1747 
Q 959 1119 1226 758 
Q 1494 397 1959 397 
Q 2419 397 2687 759 
Q 2956 1122 2956 1747 
Q 2956 2369 2687 2733 
Q 2419 3097 1959 3097 
z
M 1959 3584 
Q 2709 3584 3137 3096 
Q 3566 2609 3566 1747 
Q 3566 888 3137 398 
Q 2709 -91 1959 -91 
Q 1206 -91 779 398 
Q 353 888 353 1747 
Q 353 2609 779 3096 
Q 1206 3584 1959 3584 
z
" transform="scale(0.015625)"/>
      <path id="DejaVuSans-6e" d="M 3513 2113 
L 3513 0 
L 2938 0 
L 2938 2094 
Q 2938 2591 2744 2837 
Q 2550 3084 2163 3084 
Q 1697 3084 1428 2787 
Q 1159 2491 1159 1978 
L 1159 0 
L 581 0 
L 581 3500 
L 1159 3500 
L 1159 2956 
Q 1366 3272 1645 3428 
Q 1925 3584 2291 3584 
Q 2894 3584 3203 3211 
Q 3513 2838 3513 2113 
z
" transform="scale(0.015625)"/>
      <path id="DejaVuSans-20" transform="scale(0.015625)"/>
      <path id="DejaVuSans-66" d="M 2375 4863 
L 2375 4384 
L 1825 4384 
Q 1516 4384 1395 4259 
Q 1275 4134 1275 3809 
L 1275 3500 
L 2222 3500 
L 2222 3053 
L 1275 3053 
L 1275 0 
L 697 0 
L 697 3053 
L 147 3053 
L 147 3500 
L 697 3500 
L 697 3744 
Q 697 4328 969 4595 
Q 1241 4863 1831 4863 
L 2375 4863 
z
" transform="scale(0.015625)"/>
      <path id="DejaVuSans-72" d="M 2631 2963 
Q 2534 3019 2420 3045 
Q 2306 3072 2169 3072 
Q 1681 3072 1420 2755 
Q 1159 2438 1159 1844 
L 1159 0 
L 581 0 
L 581 3500 
L 1159 3500 
L 1159 2956 
Q 1341 3275 1631 3429 
Q 1922 3584 2338 3584 
Q 2397 3584 2469 3576 
Q 2541 3569 2628 3553 
L 2631 2963 
z
" transform="scale(0.015625)"/>
      <path id="DejaVuSans-6d" d="M 3328 2828 
Q 3544 3216 3844 3400 
Q 4144 3584 4550 3584 
Q 5097 3584 5394 3201 
Q 5691 2819 5691 2113 
L 5691 0 
L 5113 0 
L 5113 2094 
Q 5113 2597 4934 2840 
Q 4756 3084 4391 3084 
Q 3944 3084 3684 2787 
Q 3425 2491 3425 1978 
L 3425 0 
L 2847 0 
L 2847 2094 
Q 2847 2600 2669 2842 
Q 2491 3084 2119 3084 
Q 1678 3084 1418 2786 
Q 1159 2488 1159 1978 
L 1159 0 
L 581 0 
L 581 3500 
L 1159 3500 
L 1159 2956 
Q 1356 3278 1631 3431 
Q 1906 3584 2284 3584 
Q 2666 3584 2933 3390 
Q 3200 3197 3328 2828 
z
" transform="scale(0.015625)"/>
      <path id="DejaVuSans-67" d="M 2906 1791 
Q 2906 2416 2648 2759 
Q 2391 3103 1925 3103 
Q 1463 3103 1205 2759 
Q 947 2416 947 1791 
Q 947 1169 1205 825 
Q 1463 481 1925 481 
Q 2391 481 2648 825 
Q 2906 1169 2906 1791 
z
M 3481 434 
Q 3481 -459 3084 -895 
Q 2688 -1331 1869 -1331 
Q 1566 -1331 1297 -1286 
Q 1028 -1241 775 -1147 
L 775 -588 
Q 1028 -725 1275 -790 
Q 1522 -856 1778 -856 
Q 2344 -856 2625 -561 
Q 2906 -266 2906 331 
L 2906 616 
Q 2728 306 2450 153 
Q 2172 0 1784 0 
Q 1141 0 747 490 
Q 353 981 353 1791 
Q 353 2603 747 3093 
Q 1141 3584 1784 3584 
Q 2172 3584 2450 3431 
Q 2728 3278 2906 2969 
L 2906 3500 
L 3481 3500 
L 3481 434 
z
" transform="scale(0.015625)"/>
      <path id="DejaVuSans-73" d="M 2834 3397 
L 2834 2853 
Q 2591 2978 2328 3040 
Q 2066 3103 1784 3103 
Q 1356 3103 1142 2972 
Q 928 2841 928 2578 
Q 928 2378 1081 2264 
Q 1234 2150 1697 2047 
L 1894 2003 
Q 2506 1872 2764 1633 
Q 3022 1394 3022 966 
Q 3022 478 2636 193 
Q 2250 -91 1575 -91 
Q 1294 -91 989 -36 
Q 684 19 347 128 
L 347 722 
Q 666 556 975 473 
Q 1284 391 1588 391 
Q 1994 391 2212 530 
Q 2431 669 2431 922 
Q 2431 1156 2273 1281 
Q 2116 1406 1581 1522 
L 1381 1569 
Q 847 1681 609 1914 
Q 372 2147 372 2553 
Q 372 3047 722 3315 
Q 1072 3584 1716 3584 
Q 2034 3584 2315 3537 
Q 2597 3491 2834 3397 
z
" transform="scale(0.015625)"/>
      <path id="DejaVuSans-6c" d="M 603 4863 
L 1178 4863 
L 1178 0 
L 603 0 
L 603 4863 
z
" transform="scale(0.015625)"/>
      <path id="DejaVuSans-64" d="M 2906 2969 
L 2906 4863 
L 3481 4863 
L 3481 0 
L 2906 0 
L 2906 525 
Q 2725 213 2448 61 
Q 2172 -91 1784 -91 
Q 1150 -91 751 415 
Q 353 922 353 1747 
Q 353 2572 751 3078 
Q 1150 3584 1784 3584 
Q 2172 3584 2448 3432 
Q 2725 3281 2906 2969 
z
M 947 1747 
Q 947 1113 1208 752 
Q 1469 391 1925 391 
Q 2381 391 2643 752 
Q 2906 1113 2906 1747 
Q 2906 2381 2643 2742 
Q 2381 3103 1925 3103 
Q 1469 3103 1208 2742 
Q 947 2381 947 1747 
z
" transform="scale(0.015625)"/>
      <path id="DejaVuSans-77" d="M 269 3500 
L 844 3500 
L 1563 769 
L 2278 3500 
L 2956 3500 
L 3675 769 
L 4391 3500 
L 4966 3500 
L 4050 0 
L 3372 0 
L 2619 2869 
L 1863 0 
L 1184 0 
L 269 3500 
z
" transform="scale(0.015625)"/>
     </defs>
     <use xlink:href="#DejaVuSans-44"/>
     <use xlink:href="#DejaVuSans-65" x="77.001953"/>
     <use xlink:href="#DejaVuSans-76" x="138.525391"/>
     <use xlink:href="#DejaVuSans-69" x="197.705078"/>
     <use xlink:href="#DejaVuSans-61" x="225.488281"/>
     <use xlink:href="#DejaVuSans-74" x="286.767578"/>
     <use xlink:href="#DejaVuSans-69" x="325.976562"/>
     <use xlink:href="#DejaVuSans-6f" x="353.759766"/>
     <use xlink:href="#DejaVuSans-6e" x="414.941406"/>
     <use xlink:href="#DejaVuSans-20" x="478.320312"/>
     <use xlink:href="#DejaVuSans-66" x="510.107422"/>
     <use xlink:href="#DejaVuSans-72" x="545.3125"/>
     <use xlink:href="#DejaVuSans-6f" x="584.175781"/>
     <use xlink:href="#DejaVuSans-6d" x="645.357422"/>
     <use xlink:href="#DejaVuSans-20" x="742.769531"/>
     <use xlink:href="#DejaVuSans-61" x="774.556641"/>
     <use xlink:href="#DejaVuSans-76" x="835.835938"/>
     <use xlink:href="#DejaVuSans-65" x="895.015625"/>
     <use xlink:href="#DejaVuSans-72" x="956.539062"/>
     <use xlink:href="#DejaVuSans-61" x="997.652344"/>
     <use xlink:href="#DejaVuSans-67" x="1058.931641"/>
     <use xlink:href="#DejaVuSans-65" x="1122.408203"/>
     <use xlink:href="#DejaVuSans-20" x="1183.931641"/>
     <use xlink:href="#DejaVuSans-66" x="1215.71875"/>
     <use xlink:href="#DejaVuSans-6f" x="1250.923828"/>
     <use xlink:href="#DejaVuSans-72" x="1312.105469"/>
     <use xlink:href="#DejaVuSans-20" x="1353.21875"/>
     <use xlink:href="#DejaVuSans-73" x="1385.005859"/>
     <use xlink:href="#DejaVuSans-69" x="1437.105469"/>
     <use xlink:href="#DejaVuSans-6e" x="1464.888672"/>
     <use xlink:href="#DejaVuSans-67" x="1528.267578"/>
     <use xlink:href="#DejaVuSans-6c" x="1591.744141"/>
     <use xlink:href="#DejaVuSans-65" x="1619.527344"/>
     <use xlink:href="#DejaVuSans-20" x="1681.050781"/>
     <use xlink:href="#DejaVuSans-64" x="1712.837891"/>
     <use xlink:href="#DejaVuSans-72" x="1776.314453"/>
     <use xlink:href="#DejaVuSans-61" x="1817.427734"/>
     <use xlink:href="#DejaVuSans-77" x="1878.707031"/>
    </g>
   </g>
  </g>
 </g>
 <defs>
  <clipPath id="p638a4a5608">
   <rect x="45" y="43.2" width="279" height="277.2"/>
  </clipPath>
 </defs>
</svg>
