<?xml version="1.0" encoding="utf-8" standalone="no"?>
<!DOCTYPE svg PUBLIC "-//W3C//DTD SVG 1.1//EN"
  "http://www.w3.org/Graphics/SVG/1.1/DTD/svg11.dtd">
<svg xmlns:xlink="http://www.w3.org/1999/xlink" width="360pt" height="360pt" viewBox="0 0 360 360" xmlns="http://www.w3.org/2000/svg" version="1.1">
 <metadata>
  <rdf:RDF xmlns:dc="http://purl.org/dc/elements/1.1/" xmlns:cc="http://creativecommons.org/ns#" xmlns:rdf="http://www.w3.org/1999/02/22-rdf-syntax-ns#">
   <cc:Work>
    <dc:type rdf:resource="http://purl.org/dc/dcmitype/StillImage"/>
    <dc:date>2022-11-15T21:29:13.029974</dc:date>
    <dc:format>image/svg+xml</dc:format>
    <dc:creator>
     <cc:Agent>
      <dc:title>Matplotlib v3.5.3, https://matplotlib.org/</dc:title>
     </cc:Agent>
    </dc:creator>
   </cc:Work>
  </rdf:RDF>
 </metadata>
 <defs>
  <style type="text/css">*{stroke-linejoin: round; stroke-linecap: butt}</style>
 </defs>
 <g id="figure_1">
  <g id="patch_1">
   <path d="M 0 360 
L 360 360 
L 360 0 
L 0 0 
z
" style="fill: #ffffff"/>
  </g>
  <g id="axes_1">
   <g id="patch_2">
    <path d="M 45 320.4 
L 324 320.4 
L 324 43.2 
L 45 43.2 
z
" style="fill: #ffffff"/>
   </g>
   <g id="matplotlib.axis_1">
    <g id="xtick_1">
     <g id="line2d_1">
      <defs>
       <path id="mcc2329ea80" d="M 0 0 
L 0 3.5 
" style="stroke: #000000; stroke-width: 0.8"/>
      </defs>
      <g>
       <use xlink:href="#mcc2329ea80" x="83.045455" y="320.4" style="stroke: #000000; stroke-width: 0.8"/>
      </g>
     </g>
     <g id="text_1">
      <!-- −2 -->
      <g transform="translate(75.674361 334.998438)scale(0.1 -0.1)">
       <defs>
        <path id="DejaVuSans-2212" d="M 678 2272 
L 4684 2272 
L 4684 1741 
L 678 1741 
L 678 2272 
z
" transform="scale(0.015625)"/>
        <path id="DejaVuSans-32" d="M 1228 531 
L 3431 531 
L 3431 0 
L 469 0 
L 469 531 
Q 828 903 1448 1529 
Q 2069 2156 2228 2338 
Q 2531 2678 2651 2914 
Q 2772 3150 2772 3378 
Q 2772 3750 2511 3984 
Q 2250 4219 1831 4219 
Q 1534 4219 1204 4116 
Q 875 4013 500 3803 
L 500 4441 
Q 881 4594 1212 4672 
Q 1544 4750 1819 4750 
Q 2544 4750 2975 4387 
Q 3406 4025 3406 3419 
Q 3406 3131 3298 2873 
Q 3191 2616 2906 2266 
Q 2828 2175 2409 1742 
Q 1991 1309 1228 531 
z
" transform="scale(0.015625)"/>
       </defs>
       <use xlink:href="#DejaVuSans-2212"/>
       <use xlink:href="#DejaVuSans-32" x="83.789062"/>
      </g>
     </g>
    </g>
    <g id="xtick_2">
     <g id="line2d_2">
      <g>
       <use xlink:href="#mcc2329ea80" x="133.772727" y="320.4" style="stroke: #000000; stroke-width: 0.8"/>
      </g>
     </g>
     <g id="text_2">
      <!-- −1 -->
      <g transform="translate(126.401634 334.998438)scale(0.1 -0.1)">
       <defs>
        <path id="DejaVuSans-31" d="M 794 531 
L 1825 531 
L 1825 4091 
L 703 3866 
L 703 4441 
L 1819 4666 
L 2450 4666 
L 2450 531 
L 3481 531 
L 3481 0 
L 794 0 
L 794 531 
z
" transform="scale(0.015625)"/>
       </defs>
       <use xlink:href="#DejaVuSans-2212"/>
       <use xlink:href="#DejaVuSans-31" x="83.789062"/>
      </g>
     </g>
    </g>
    <g id="xtick_3">
     <g id="line2d_3">
      <g>
       <use xlink:href="#mcc2329ea80" x="184.5" y="320.4" style="stroke: #000000; stroke-width: 0.8"/>
      </g>
     </g>
     <g id="text_3">
      <!-- 0 -->
      <g transform="translate(181.31875 334.998438)scale(0.1 -0.1)">
       <defs>
        <path id="DejaVuSans-30" d="M 2034 4250 
Q 1547 4250 1301 3770 
Q 1056 3291 1056 2328 
Q 1056 1369 1301 889 
Q 1547 409 2034 409 
Q 2525 409 2770 889 
Q 3016 1369 3016 2328 
Q 3016 3291 2770 3770 
Q 2525 4250 2034 4250 
z
M 2034 4750 
Q 2819 4750 3233 4129 
Q 3647 3509 3647 2328 
Q 3647 1150 3233 529 
Q 2819 -91 2034 -91 
Q 1250 -91 836 529 
Q 422 1150 422 2328 
Q 422 3509 836 4129 
Q 1250 4750 2034 4750 
z
" transform="scale(0.015625)"/>
       </defs>
       <use xlink:href="#DejaVuSans-30"/>
      </g>
     </g>
    </g>
    <g id="xtick_4">
     <g id="line2d_4">
      <g>
       <use xlink:href="#mcc2329ea80" x="235.227273" y="320.4" style="stroke: #000000; stroke-width: 0.8"/>
      </g>
     </g>
     <g id="text_4">
      <!-- 1 -->
      <g transform="translate(232.046023 334.998438)scale(0.1 -0.1)">
       <use xlink:href="#DejaVuSans-31"/>
      </g>
     </g>
    </g>
    <g id="xtick_5">
     <g id="line2d_5">
      <g>
       <use xlink:href="#mcc2329ea80" x="285.954545" y="320.4" style="stroke: #000000; stroke-width: 0.8"/>
      </g>
     </g>
     <g id="text_5">
      <!-- 2 -->
      <g transform="translate(282.773295 334.998438)scale(0.1 -0.1)">
       <use xlink:href="#DejaVuSans-32"/>
      </g>
     </g>
    </g>
   </g>
   <g id="matplotlib.axis_2">
    <g id="ytick_1">
     <g id="line2d_6">
      <defs>
       <path id="m9bdc687f79" d="M 0 0 
L -3.5 0 
" style="stroke: #000000; stroke-width: 0.8"/>
      </defs>
      <g>
       <use xlink:href="#m9bdc687f79" x="45" y="293.839324" style="stroke: #000000; stroke-width: 0.8"/>
      </g>
     </g>
     <g id="text_6">
      <!-- 0 -->
      <g transform="translate(31.6375 297.638543)scale(0.1 -0.1)">
       <use xlink:href="#DejaVuSans-30"/>
      </g>
     </g>
    </g>
    <g id="ytick_2">
     <g id="line2d_7">
      <g>
       <use xlink:href="#m9bdc687f79" x="45" y="237.994322" style="stroke: #000000; stroke-width: 0.8"/>
      </g>
     </g>
     <g id="text_7">
      <!-- 5 -->
      <g transform="translate(31.6375 241.79354)scale(0.1 -0.1)">
       <defs>
        <path id="DejaVuSans-35" d="M 691 4666 
L 3169 4666 
L 3169 4134 
L 1269 4134 
L 1269 2991 
Q 1406 3038 1543 3061 
Q 1681 3084 1819 3084 
Q 2600 3084 3056 2656 
Q 3513 2228 3513 1497 
Q 3513 744 3044 326 
Q 2575 -91 1722 -91 
Q 1428 -91 1123 -41 
Q 819 9 494 109 
L 494 744 
Q 775 591 1075 516 
Q 1375 441 1709 441 
Q 2250 441 2565 725 
Q 2881 1009 2881 1497 
Q 2881 1984 2565 2268 
Q 2250 2553 1709 2553 
Q 1456 2553 1204 2497 
Q 953 2441 691 2322 
L 691 4666 
z
" transform="scale(0.015625)"/>
       </defs>
       <use xlink:href="#DejaVuSans-35"/>
      </g>
     </g>
    </g>
    <g id="ytick_3">
     <g id="line2d_8">
      <g>
       <use xlink:href="#m9bdc687f79" x="45" y="182.149319" style="stroke: #000000; stroke-width: 0.8"/>
      </g>
     </g>
     <g id="text_8">
      <!-- 10 -->
      <g transform="translate(25.275 185.948538)scale(0.1 -0.1)">
       <use xlink:href="#DejaVuSans-31"/>
       <use xlink:href="#DejaVuSans-30" x="63.623047"/>
      </g>
     </g>
    </g>
    <g id="ytick_4">
     <g id="line2d_9">
      <g>
       <use xlink:href="#m9bdc687f79" x="45" y="126.304316" style="stroke: #000000; stroke-width: 0.8"/>
      </g>
     </g>
     <g id="text_9">
      <!-- 15 -->
      <g transform="translate(25.275 130.103535)scale(0.1 -0.1)">
       <use xlink:href="#DejaVuSans-31"/>
       <use xlink:href="#DejaVuSans-35" x="63.623047"/>
      </g>
     </g>
    </g>
    <g id="ytick_5">
     <g id="line2d_10">
      <g>
       <use xlink:href="#m9bdc687f79" x="45" y="70.459313" style="stroke: #000000; stroke-width: 0.8"/>
      </g>
     </g>
     <g id="text_10">
      <!-- 20 -->
      <g transform="translate(25.275 74.258532)scale(0.1 -0.1)">
       <use xlink:href="#DejaVuSans-32"/>
       <use xlink:href="#DejaVuSans-30" x="63.623047"/>
      </g>
     </g>
    </g>
   </g>
   <g id="line2d_11">
    <path d="M 57.681818 55.8 
L 60.224541 81.438716 
L 62.767264 105.224523 
L 65.309987 127.239249 
L 67.852697 147.563056 
L 70.39542 166.27451 
L 72.938143 183.450347 
L 75.480866 199.165658 
L 78.023577 213.493771 
L 80.566299 226.506519 
L 83.109022 238.273873 
L 85.651745 248.86414 
L 88.194462 258.343927 
L 90.737185 266.778217 
L 93.279902 274.230218 
L 95.186941 279.21171 
L 97.09398 283.700673 
L 99.001025 287.721936 
L 100.90807 291.299746 
L 102.815109 294.457841 
L 104.722142 297.21943 
L 106.629181 299.607187 
L 108.536226 301.643238 
L 110.443266 303.34918 
L 112.350305 304.746062 
L 114.257344 305.854429 
L 116.164389 306.694256 
L 118.071428 307.284996 
L 119.978467 307.645573 
L 121.885506 307.794357 
L 123.792545 307.749219 
L 126.335268 307.417198 
L 128.877991 306.810675 
L 131.420714 305.967509 
L 134.599111 304.635723 
L 137.777512 303.05751 
L 141.59159 300.926498 
L 147.31271 297.451616 
L 156.847915 291.640673 
L 161.297675 289.191435 
L 165.111749 287.326723 
L 168.925829 285.729454 
L 172.104235 284.63128 
L 175.28264 283.764431 
L 178.46104 283.142953 
L 181.639433 282.776762 
L 184.817839 282.671639 
L 187.996239 282.82924 
L 191.174644 283.247084 
L 194.353045 283.918562 
L 197.53145 284.832932 
L 200.709844 285.975318 
L 204.523924 287.620119 
L 208.33801 289.524993 
L 212.787769 292.009849 
L 219.14457 295.869122 
L 228.044088 301.295667 
L 231.858169 303.389792 
L 235.036569 304.923877 
L 238.214976 306.19848 
L 240.757693 306.985936 
L 243.300416 307.527452 
L 245.207455 307.749219 
L 247.114494 307.794357 
L 249.021533 307.645573 
L 250.928572 307.284996 
L 252.835611 306.694256 
L 254.74265 305.854431 
L 256.649689 304.746072 
L 258.556734 303.34918 
L 260.463774 301.643238 
L 262.370813 299.607192 
L 264.277852 297.219436 
L 266.184897 294.457836 
L 268.091936 291.29973 
L 269.998975 287.721936 
L 271.906014 283.700684 
L 273.813059 279.21171 
L 275.720098 274.230218 
L 277.627138 268.730866 
L 279.534177 262.687773 
L 282.076899 253.738723 
L 284.619622 243.711924 
L 287.162333 232.541603 
L 289.705056 220.160206 
L 292.247779 206.498596 
L 294.790502 191.485905 
L 297.333212 175.049694 
L 299.875935 157.115528 
L 302.418658 137.607569 
L 304.961381 116.448166 
L 307.504104 93.558008 
L 310.046826 68.856079 
L 311.318182 55.8 
L 311.318182 55.8 
" clip-path="url(#pc79fb5e925)" style="fill: none; stroke: #1f77b4; stroke-width: 1.5; stroke-linecap: square"/>
   </g>
   <g id="line2d_12">
    <path d="M 57.681818 161.857286 
L 59.588863 164.815876 
L 61.495896 168.21927 
L 63.402942 172.10537 
L 65.309987 176.505122 
L 67.21702 181.438725 
L 69.124053 186.911693 
L 71.666776 195.022257 
L 74.209498 203.973527 
L 77.387899 216.084557 
L 87.558784 255.924531 
L 90.101501 264.705286 
L 92.644224 272.614152 
L 94.551263 277.922859 
L 96.458302 282.685791 
L 98.365347 286.911417 
L 100.272386 290.621624 
L 102.179425 293.847697 
L 104.086458 296.626572 
L 105.993504 298.997789 
L 107.900543 301.000937 
L 109.807588 302.67395 
L 111.714627 304.051776 
L 113.621666 305.165682 
L 115.528705 306.042821 
L 117.435744 306.706155 
L 119.342783 307.174553 
L 121.249829 307.463053 
L 123.792545 307.587556 
L 126.335268 307.432388 
L 128.877991 307.010891 
L 131.420714 306.333164 
L 133.963431 305.4097 
L 136.50615 304.255173 
L 139.684551 302.521923 
L 142.862951 300.528408 
L 147.948391 297.025779 
L 154.305195 292.678234 
L 158.119276 290.352716 
L 161.297675 288.652604 
L 164.476068 287.183243 
L 167.654469 285.93871 
L 170.832874 284.904513 
L 174.64696 283.921335 
L 178.46104 283.209638 
L 181.639433 282.831983 
L 184.817839 282.671208 
L 187.996239 282.755854 
L 190.538964 283.019389 
L 193.081685 283.466875 
L 196.26009 284.28249 
L 199.438491 285.357046 
L 203.252564 286.924977 
L 207.06665 288.729282 
L 211.51641 291.089027 
L 215.966169 293.711871 
L 221.68729 297.376458 
L 228.044088 301.422272 
L 231.222488 303.226285 
L 234.400889 304.775331 
L 236.943615 305.789572 
L 239.486331 306.578664 
L 242.029054 307.124852 
L 244.571771 307.412129 
L 247.114494 307.422528 
L 249.021533 307.234786 
L 250.928572 306.865223 
L 252.835611 306.29737 
L 254.74265 305.510799 
L 256.649689 304.480792 
L 258.556734 303.178212 
L 260.463774 301.569744 
L 262.370813 299.618495 
L 264.277852 297.285178 
L 266.184897 294.52998 
L 268.091936 291.315247 
L 269.998975 287.608924 
L 271.906014 283.388819 
L 273.813059 278.647306 
L 275.720098 273.395986 
L 278.262815 265.664852 
L 281.441222 255.056976 
L 292.247779 217.848913 
L 294.790502 210.387727 
L 296.697535 205.35605 
L 298.60458 200.834168 
L 300.511613 196.822045 
L 302.418658 193.302311 
L 304.325703 190.245088 
L 306.232736 187.612459 
L 308.139781 185.36221 
L 310.046826 183.450947 
L 311.318182 182.344109 
L 311.318182 182.344109 
" clip-path="url(#pc79fb5e925)" style="fill: none; stroke: #ff7f0e; stroke-width: 1.5; stroke-linecap: square"/>
   </g>
   <g id="line2d_13">
    <path d="M 57.681818 161.940741 
L 59.588863 164.890336 
L 61.495896 168.283869 
L 63.402942 172.159321 
L 65.309987 176.547776 
L 67.21702 181.469684 
L 69.124053 186.930775 
L 71.666776 195.025812 
L 74.209498 203.962793 
L 77.387899 216.059137 
L 87.558784 255.886525 
L 90.101501 264.671442 
L 92.644224 272.585983 
L 94.551263 277.899461 
L 96.458302 282.667243 
L 98.365347 286.897559 
L 100.272386 290.612139 
L 102.179425 293.84211 
L 104.086458 296.624363 
L 105.993504 298.998382 
L 107.900543 301.003767 
L 109.807588 302.678476 
L 111.714627 304.057492 
L 113.621666 305.172101 
L 115.528705 306.04953 
L 117.435744 306.712752 
L 119.342783 307.180702 
L 121.249829 307.468429 
L 123.792545 307.591462 
L 126.335268 307.434375 
L 128.877991 307.010573 
L 131.420714 306.330226 
L 133.963431 305.403936 
L 136.50615 304.246529 
L 139.684551 302.509891 
L 142.862951 300.513679 
L 147.948391 297.009283 
L 154.305195 292.665277 
L 158.119276 290.34461 
L 161.297675 288.649512 
L 164.476068 287.185618 
L 167.654469 285.946646 
L 170.832874 284.917889 
L 174.64696 283.940917 
L 178.46104 283.235074 
L 181.639433 282.862071 
L 184.817839 282.705756 
L 187.996239 282.794527 
L 190.538964 283.060814 
L 193.081685 283.51014 
L 196.26009 284.325932 
L 199.438491 285.397357 
L 203.252564 286.956557 
L 207.06665 288.747543 
L 211.51641 291.088833 
L 215.966169 293.693692 
L 221.68729 297.340776 
L 228.044088 301.379038 
L 231.858169 303.517188 
L 235.036569 305.011513 
L 237.579292 305.975931 
L 240.122015 306.711048 
L 242.664732 307.199546 
L 245.207455 307.425021 
L 247.750171 307.368288 
L 249.657211 307.125531 
L 251.56425 306.695766 
L 253.471295 306.061277 
L 255.378334 305.200261 
L 257.285373 304.086555 
L 259.192412 302.689629 
L 261.099451 300.974898 
L 263.00649 298.904531 
L 264.913529 296.438839 
L 266.820575 293.5383 
L 268.72762 290.166673 
L 270.634659 286.294567 
L 272.541698 281.903914 
L 274.448737 276.992809 
L 276.991454 269.670741 
L 279.534177 261.570996 
L 282.712583 250.65096 
L 290.340734 223.954979 
L 292.883456 215.905818 
L 295.426179 208.638548 
L 297.333212 203.764865 
L 299.240257 199.403487 
L 301.14729 195.548315 
L 303.054336 192.177449 
L 304.961381 189.257934 
L 306.868426 186.750081 
L 308.775471 184.610986 
L 310.682504 182.797362 
L 311.318182 182.257837 
L 311.318182 182.257837 
" clip-path="url(#pc79fb5e925)" style="fill: none; stroke: #2ca02c; stroke-width: 1.5; stroke-linecap: square"/>
   </g>
   <g id="line2d_14">
    <path d="M 57.681818 161.775194 
L 59.588863 164.73281 
L 61.495896 168.13513 
L 63.402942 172.020116 
L 65.309987 176.418743 
L 67.21702 181.351131 
L 69.124053 186.822853 
L 71.666776 194.931694 
L 74.209498 203.881074 
L 77.387899 215.989444 
L 87.558784 255.817082 
L 90.101501 264.593842 
L 92.644224 272.498505 
L 94.551263 277.804016 
L 96.458302 282.563807 
L 98.365347 286.786389 
L 100.272386 290.493663 
L 102.179425 293.717002 
L 104.086458 296.493329 
L 105.993504 298.862209 
L 107.900543 300.863235 
L 109.807588 302.534349 
L 111.714627 303.910492 
L 113.621666 305.022934 
L 115.528705 305.898819 
L 117.435744 306.561114 
L 119.342783 307.028696 
L 121.249829 307.316604 
L 123.792545 307.440713 
L 126.335268 307.28562 
L 128.877991 306.864739 
L 131.420714 306.188202 
L 133.963431 305.266525 
L 136.50615 304.114352 
L 139.684551 302.384693 
L 142.862951 300.395117 
L 147.948391 296.898257 
L 154.305195 292.554206 
L 158.119276 290.228096 
L 161.297675 288.526076 
L 164.476068 287.053747 
L 167.654469 285.805378 
L 170.832874 284.766553 
L 174.64696 283.776597 
L 178.46104 283.05623 
L 181.639433 282.669287 
L 184.817839 282.496843 
L 187.996239 282.567412 
L 190.538964 282.818558 
L 193.081685 283.253873 
L 196.26009 284.057239 
L 199.438491 285.126355 
L 202.616884 286.418816 
L 206.430969 288.203737 
L 210.88073 290.554651 
L 215.330489 293.172981 
L 221.051609 296.845641 
L 228.044088 301.329824 
L 231.222488 303.137577 
L 234.400889 304.687133 
L 236.943615 305.700057 
L 239.486331 306.48678 
L 242.029054 307.029921 
L 244.571771 307.313751 
L 247.114494 307.320469 
L 249.021533 307.129867 
L 250.928572 306.75736 
L 252.835611 306.186467 
L 254.74265 305.39671 
L 256.649689 304.363333 
L 258.556734 303.057144 
L 260.463774 301.444776 
L 262.370813 299.489296 
L 264.277852 297.151405 
L 266.184897 294.391278 
L 268.091936 291.171345 
L 269.998975 287.459605 
L 271.906014 283.234071 
L 273.813059 278.48731 
L 275.720098 273.231255 
L 278.262815 265.495143 
L 281.441222 254.884275 
L 291.612101 219.687244 
L 294.154824 212.037241 
L 296.697535 205.230875 
L 298.60458 200.71866 
L 300.511613 196.715963 
L 302.418658 193.2052 
L 304.325703 190.156321 
L 306.232736 187.531343 
L 308.139781 185.288033 
L 310.046826 183.383007 
L 311.318182 182.279907 
L 311.318182 182.279907 
" clip-path="url(#pc79fb5e925)" style="fill: none; stroke: #d62728; stroke-width: 1.5; stroke-linecap: square"/>
   </g>
   <g id="line2d_15">
    <path d="M 57.681818 161.676294 
L 59.588863 164.633196 
L 61.495896 168.034909 
L 63.402942 171.919405 
L 65.309987 176.317734 
L 67.21702 181.25024 
L 69.124053 186.722579 
L 71.666776 194.833295 
L 74.209498 203.786222 
L 77.387899 215.901792 
L 87.558784 255.774449 
L 90.101501 264.56569 
L 92.644224 272.484914 
L 94.551263 277.800978 
L 96.458302 282.570802 
L 98.365347 286.802724 
L 100.272386 290.518585 
L 102.179425 293.749665 
L 104.086458 296.5329 
L 105.993504 298.907878 
L 107.900543 300.914228 
L 109.807588 302.589946 
L 111.714627 303.970046 
L 113.621666 305.08585 
L 115.528705 305.964562 
L 117.435744 306.629207 
L 119.342783 307.098681 
L 121.249829 307.388054 
L 123.792545 307.513431 
L 126.335268 307.358827 
L 128.877991 306.937538 
L 131.420714 306.259599 
L 133.963431 305.335413 
L 136.50615 304.179545 
L 139.684551 302.443637 
L 142.862951 300.446362 
L 147.948391 296.935948 
L 154.305195 292.578215 
L 158.119276 290.247964 
L 161.297675 288.545296 
L 164.476068 287.074805 
L 167.654469 285.830665 
L 170.832874 284.798396 
L 174.64696 283.81968 
L 177.82536 283.213186 
L 181.003753 282.802525 
L 184.182154 282.605854 
L 187.360559 282.650423 
L 189.903285 282.879017 
L 192.446005 283.290048 
L 195.62441 284.060448 
L 198.802811 285.092941 
L 202.616884 286.615618 
L 206.430969 288.37714 
L 210.88073 290.685193 
L 215.330489 293.257979 
L 220.415928 296.47091 
L 228.679768 301.72294 
L 231.858169 303.486427 
L 235.036569 304.983269 
L 237.579292 305.949322 
L 240.122015 306.685733 
L 242.664732 307.175184 
L 245.207455 307.401259 
L 247.750171 307.344784 
L 249.657211 307.101995 
L 251.56425 306.672001 
L 253.471295 306.037091 
L 255.378334 305.175442 
L 257.285373 304.06091 
L 259.192412 302.662945 
L 261.099451 300.946995 
L 263.00649 298.875216 
L 264.913529 296.407934 
L 266.820575 293.505742 
L 268.72762 290.132397 
L 270.634659 286.258611 
L 272.541698 281.866468 
L 274.448737 276.954203 
L 276.991454 269.631394 
L 279.534177 261.532235 
L 282.712583 250.615198 
L 290.340734 223.937824 
L 292.883456 215.897355 
L 295.426179 208.639171 
L 297.333212 203.772204 
L 299.240257 199.417281 
L 301.14729 195.568169 
L 303.054336 192.202864 
L 304.961381 189.288344 
L 306.868426 186.784901 
L 308.775471 184.649662 
L 310.682504 182.839361 
L 311.318182 182.300859 
L 311.318182 182.300859 
" clip-path="url(#pc79fb5e925)" style="fill: none; stroke: #9467bd; stroke-width: 1.5; stroke-linecap: square"/>
   </g>
   <g id="patch_3">
    <path d="M 45 320.4 
L 45 43.2 
" style="fill: none; stroke: #000000; stroke-width: 0.8; stroke-linejoin: miter; stroke-linecap: square"/>
   </g>
   <g id="patch_4">
    <path d="M 324 320.4 
L 324 43.2 
" style="fill: none; stroke: #000000; stroke-width: 0.8; stroke-linejoin: miter; stroke-linecap: square"/>
   </g>
   <g id="patch_5">
    <path d="M 45 320.4 
L 324 320.4 
" style="fill: none; stroke: #000000; stroke-width: 0.8; stroke-linejoin: miter; stroke-linecap: square"/>
   </g>
   <g id="patch_6">
    <path d="M 45 43.2 
L 324 43.2 
" style="fill: none; stroke: #000000; stroke-width: 0.8; stroke-linejoin: miter; stroke-linecap: square"/>
   </g>
   <g id="text_11">
    <!-- Prediction Curves -->
    <g transform="translate(131.961563 37.2)scale(0.12 -0.12)">
     <defs>
      <path id="DejaVuSans-50" d="M 1259 4147 
L 1259 2394 
L 2053 2394 
Q 2494 2394 2734 2622 
Q 2975 2850 2975 3272 
Q 2975 3691 2734 3919 
Q 2494 4147 2053 4147 
L 1259 4147 
z
M 628 4666 
L 2053 4666 
Q 2838 4666 3239 4311 
Q 3641 3956 3641 3272 
Q 3641 2581 3239 2228 
Q 2838 1875 2053 1875 
L 1259 1875 
L 1259 0 
L 628 0 
L 628 4666 
z
" transform="scale(0.015625)"/>
      <path id="DejaVuSans-72" d="M 2631 2963 
Q 2534 3019 2420 3045 
Q 2306 3072 2169 3072 
Q 1681 3072 1420 2755 
Q 1159 2438 1159 1844 
L 1159 0 
L 581 0 
L 581 3500 
L 1159 3500 
L 1159 2956 
Q 1341 3275 1631 3429 
Q 1922 3584 2338 3584 
Q 2397 3584 2469 3576 
Q 2541 3569 2628 3553 
L 2631 2963 
z
" transform="scale(0.015625)"/>
      <path id="DejaVuSans-65" d="M 3597 1894 
L 3597 1613 
L 953 1613 
Q 991 1019 1311 708 
Q 1631 397 2203 397 
Q 2534 397 2845 478 
Q 3156 559 3463 722 
L 3463 178 
Q 3153 47 2828 -22 
Q 2503 -91 2169 -91 
Q 1331 -91 842 396 
Q 353 884 353 1716 
Q 353 2575 817 3079 
Q 1281 3584 2069 3584 
Q 2775 3584 3186 3129 
Q 3597 2675 3597 1894 
z
M 3022 2063 
Q 3016 2534 2758 2815 
Q 2500 3097 2075 3097 
Q 1594 3097 1305 2825 
Q 1016 2553 972 2059 
L 3022 2063 
z
" transform="scale(0.015625)"/>
      <path id="DejaVuSans-64" d="M 2906 2969 
L 2906 4863 
L 3481 4863 
L 3481 0 
L 2906 0 
L 2906 525 
Q 2725 213 2448 61 
Q 2172 -91 1784 -91 
Q 1150 -91 751 415 
Q 353 922 353 1747 
Q 353 2572 751 3078 
Q 1150 3584 1784 3584 
Q 2172 3584 2448 3432 
Q 2725 3281 2906 2969 
z
M 947 1747 
Q 947 1113 1208 752 
Q 1469 391 1925 391 
Q 2381 391 2643 752 
Q 2906 1113 2906 1747 
Q 2906 2381 2643 2742 
Q 2381 3103 1925 3103 
Q 1469 3103 1208 2742 
Q 947 2381 947 1747 
z
" transform="scale(0.015625)"/>
      <path id="DejaVuSans-69" d="M 603 3500 
L 1178 3500 
L 1178 0 
L 603 0 
L 603 3500 
z
M 603 4863 
L 1178 4863 
L 1178 4134 
L 603 4134 
L 603 4863 
z
" transform="scale(0.015625)"/>
      <path id="DejaVuSans-63" d="M 3122 3366 
L 3122 2828 
Q 2878 2963 2633 3030 
Q 2388 3097 2138 3097 
Q 1578 3097 1268 2742 
Q 959 2388 959 1747 
Q 959 1106 1268 751 
Q 1578 397 2138 397 
Q 2388 397 2633 464 
Q 2878 531 3122 666 
L 3122 134 
Q 2881 22 2623 -34 
Q 2366 -91 2075 -91 
Q 1284 -91 818 406 
Q 353 903 353 1747 
Q 353 2603 823 3093 
Q 1294 3584 2113 3584 
Q 2378 3584 2631 3529 
Q 2884 3475 3122 3366 
z
" transform="scale(0.015625)"/>
      <path id="DejaVuSans-74" d="M 1172 4494 
L 1172 3500 
L 2356 3500 
L 2356 3053 
L 1172 3053 
L 1172 1153 
Q 1172 725 1289 603 
Q 1406 481 1766 481 
L 2356 481 
L 2356 0 
L 1766 0 
Q 1100 0 847 248 
Q 594 497 594 1153 
L 594 3053 
L 172 3053 
L 172 3500 
L 594 3500 
L 594 4494 
L 1172 4494 
z
" transform="scale(0.015625)"/>
      <path id="DejaVuSans-6f" d="M 1959 3097 
Q 1497 3097 1228 2736 
Q 959 2375 959 1747 
Q 959 1119 1226 758 
Q 1494 397 1959 397 
Q 2419 397 2687 759 
Q 2956 1122 2956 1747 
Q 2956 2369 2687 2733 
Q 2419 3097 1959 3097 
z
M 1959 3584 
Q 2709 3584 3137 3096 
Q 3566 2609 3566 1747 
Q 3566 888 3137 398 
Q 2709 -91 1959 -91 
Q 1206 -91 779 398 
Q 353 888 353 1747 
Q 353 2609 779 3096 
Q 1206 3584 1959 3584 
z
" transform="scale(0.015625)"/>
      <path id="DejaVuSans-6e" d="M 3513 2113 
L 3513 0 
L 2938 0 
L 2938 2094 
Q 2938 2591 2744 2837 
Q 2550 3084 2163 3084 
Q 1697 3084 1428 2787 
Q 1159 2491 1159 1978 
L 1159 0 
L 581 0 
L 581 3500 
L 1159 3500 
L 1159 2956 
Q 1366 3272 1645 3428 
Q 1925 3584 2291 3584 
Q 2894 3584 3203 3211 
Q 3513 2838 3513 2113 
z
" transform="scale(0.015625)"/>
      <path id="DejaVuSans-20" transform="scale(0.015625)"/>
      <path id="DejaVuSans-43" d="M 4122 4306 
L 4122 3641 
Q 3803 3938 3442 4084 
Q 3081 4231 2675 4231 
Q 1875 4231 1450 3742 
Q 1025 3253 1025 2328 
Q 1025 1406 1450 917 
Q 1875 428 2675 428 
Q 3081 428 3442 575 
Q 3803 722 4122 1019 
L 4122 359 
Q 3791 134 3420 21 
Q 3050 -91 2638 -91 
Q 1578 -91 968 557 
Q 359 1206 359 2328 
Q 359 3453 968 4101 
Q 1578 4750 2638 4750 
Q 3056 4750 3426 4639 
Q 3797 4528 4122 4306 
z
" transform="scale(0.015625)"/>
      <path id="DejaVuSans-75" d="M 544 1381 
L 544 3500 
L 1119 3500 
L 1119 1403 
Q 1119 906 1312 657 
Q 1506 409 1894 409 
Q 2359 409 2629 706 
Q 2900 1003 2900 1516 
L 2900 3500 
L 3475 3500 
L 3475 0 
L 2900 0 
L 2900 538 
Q 2691 219 2414 64 
Q 2138 -91 1772 -91 
Q 1169 -91 856 284 
Q 544 659 544 1381 
z
M 1991 3584 
L 1991 3584 
z
" transform="scale(0.015625)"/>
      <path id="DejaVuSans-76" d="M 191 3500 
L 800 3500 
L 1894 563 
L 2988 3500 
L 3597 3500 
L 2284 0 
L 1503 0 
L 191 3500 
z
" transform="scale(0.015625)"/>
      <path id="DejaVuSans-73" d="M 2834 3397 
L 2834 2853 
Q 2591 2978 2328 3040 
Q 2066 3103 1784 3103 
Q 1356 3103 1142 2972 
Q 928 2841 928 2578 
Q 928 2378 1081 2264 
Q 1234 2150 1697 2047 
L 1894 2003 
Q 2506 1872 2764 1633 
Q 3022 1394 3022 966 
Q 3022 478 2636 193 
Q 2250 -91 1575 -91 
Q 1294 -91 989 -36 
Q 684 19 347 128 
L 347 722 
Q 666 556 975 473 
Q 1284 391 1588 391 
Q 1994 391 2212 530 
Q 2431 669 2431 922 
Q 2431 1156 2273 1281 
Q 2116 1406 1581 1522 
L 1381 1569 
Q 847 1681 609 1914 
Q 372 2147 372 2553 
Q 372 3047 722 3315 
Q 1072 3584 1716 3584 
Q 2034 3584 2315 3537 
Q 2597 3491 2834 3397 
z
" transform="scale(0.015625)"/>
     </defs>
     <use xlink:href="#DejaVuSans-50"/>
     <use xlink:href="#DejaVuSans-72" x="58.552734"/>
     <use xlink:href="#DejaVuSans-65" x="97.416016"/>
     <use xlink:href="#DejaVuSans-64" x="158.939453"/>
     <use xlink:href="#DejaVuSans-69" x="222.416016"/>
     <use xlink:href="#DejaVuSans-63" x="250.199219"/>
     <use xlink:href="#DejaVuSans-74" x="305.179688"/>
     <use xlink:href="#DejaVuSans-69" x="344.388672"/>
     <use xlink:href="#DejaVuSans-6f" x="372.171875"/>
     <use xlink:href="#DejaVuSans-6e" x="433.353516"/>
     <use xlink:href="#DejaVuSans-20" x="496.732422"/>
     <use xlink:href="#DejaVuSans-43" x="528.519531"/>
     <use xlink:href="#DejaVuSans-75" x="598.34375"/>
     <use xlink:href="#DejaVuSans-72" x="661.722656"/>
     <use xlink:href="#DejaVuSans-76" x="702.835938"/>
     <use xlink:href="#DejaVuSans-65" x="762.015625"/>
     <use xlink:href="#DejaVuSans-73" x="823.539062"/>
    </g>
   </g>
   <g id="legend_1">
    <g id="patch_7">
     <path d="M 112.528125 124.590625 
L 256.471875 124.590625 
Q 258.471875 124.590625 258.471875 122.590625 
L 258.471875 50.2 
Q 258.471875 48.2 256.471875 48.2 
L 112.528125 48.2 
Q 110.528125 48.2 110.528125 50.2 
L 110.528125 122.590625 
Q 110.528125 124.590625 112.528125 124.590625 
z
" style="fill: #ffffff; opacity: 0.8; stroke: #cccccc; stroke-linejoin: miter"/>
    </g>
    <g id="line2d_16">
     <path d="M 114.528125 56.298437 
L 124.528125 56.298437 
L 134.528125 56.298437 
" style="fill: none; stroke: #1f77b4; stroke-width: 1.5; stroke-linecap: square"/>
    </g>
    <g id="text_12">
     <!-- Function with noise -->
     <g transform="translate(142.528125 59.798437)scale(0.1 -0.1)">
      <defs>
       <path id="DejaVuSans-46" d="M 628 4666 
L 3309 4666 
L 3309 4134 
L 1259 4134 
L 1259 2759 
L 3109 2759 
L 3109 2228 
L 1259 2228 
L 1259 0 
L 628 0 
L 628 4666 
z
" transform="scale(0.015625)"/>
       <path id="DejaVuSans-77" d="M 269 3500 
L 844 3500 
L 1563 769 
L 2278 3500 
L 2956 3500 
L 3675 769 
L 4391 3500 
L 4966 3500 
L 4050 0 
L 3372 0 
L 2619 2869 
L 1863 0 
L 1184 0 
L 269 3500 
z
" transform="scale(0.015625)"/>
       <path id="DejaVuSans-68" d="M 3513 2113 
L 3513 0 
L 2938 0 
L 2938 2094 
Q 2938 2591 2744 2837 
Q 2550 3084 2163 3084 
Q 1697 3084 1428 2787 
Q 1159 2491 1159 1978 
L 1159 0 
L 581 0 
L 581 4863 
L 1159 4863 
L 1159 2956 
Q 1366 3272 1645 3428 
Q 1925 3584 2291 3584 
Q 2894 3584 3203 3211 
Q 3513 2838 3513 2113 
z
" transform="scale(0.015625)"/>
      </defs>
      <use xlink:href="#DejaVuSans-46"/>
      <use xlink:href="#DejaVuSans-75" x="52.019531"/>
      <use xlink:href="#DejaVuSans-6e" x="115.398438"/>
      <use xlink:href="#DejaVuSans-63" x="178.777344"/>
      <use xlink:href="#DejaVuSans-74" x="233.757812"/>
      <use xlink:href="#DejaVuSans-69" x="272.966797"/>
      <use xlink:href="#DejaVuSans-6f" x="300.75"/>
      <use xlink:href="#DejaVuSans-6e" x="361.931641"/>
      <use xlink:href="#DejaVuSans-20" x="425.310547"/>
      <use xlink:href="#DejaVuSans-77" x="457.097656"/>
      <use xlink:href="#DejaVuSans-69" x="538.884766"/>
      <use xlink:href="#DejaVuSans-74" x="566.667969"/>
      <use xlink:href="#DejaVuSans-68" x="605.876953"/>
      <use xlink:href="#DejaVuSans-20" x="669.255859"/>
      <use xlink:href="#DejaVuSans-6e" x="701.042969"/>
      <use xlink:href="#DejaVuSans-6f" x="764.421875"/>
      <use xlink:href="#DejaVuSans-69" x="825.603516"/>
      <use xlink:href="#DejaVuSans-73" x="853.386719"/>
      <use xlink:href="#DejaVuSans-65" x="905.486328"/>
     </g>
    </g>
    <g id="line2d_17">
     <path d="M 114.528125 70.976562 
L 124.528125 70.976562 
L 134.528125 70.976562 
" style="fill: none; stroke: #ff7f0e; stroke-width: 1.5; stroke-linecap: square"/>
    </g>
    <g id="text_13">
     <!-- Average of Predictions -->
     <g transform="translate(142.528125 74.476562)scale(0.1 -0.1)">
      <defs>
       <path id="DejaVuSans-41" d="M 2188 4044 
L 1331 1722 
L 3047 1722 
L 2188 4044 
z
M 1831 4666 
L 2547 4666 
L 4325 0 
L 3669 0 
L 3244 1197 
L 1141 1197 
L 716 0 
L 50 0 
L 1831 4666 
z
" transform="scale(0.015625)"/>
       <path id="DejaVuSans-61" d="M 2194 1759 
Q 1497 1759 1228 1600 
Q 959 1441 959 1056 
Q 959 750 1161 570 
Q 1363 391 1709 391 
Q 2188 391 2477 730 
Q 2766 1069 2766 1631 
L 2766 1759 
L 2194 1759 
z
M 3341 1997 
L 3341 0 
L 2766 0 
L 2766 531 
Q 2569 213 2275 61 
Q 1981 -91 1556 -91 
Q 1019 -91 701 211 
Q 384 513 384 1019 
Q 384 1609 779 1909 
Q 1175 2209 1959 2209 
L 2766 2209 
L 2766 2266 
Q 2766 2663 2505 2880 
Q 2244 3097 1772 3097 
Q 1472 3097 1187 3025 
Q 903 2953 641 2809 
L 641 3341 
Q 956 3463 1253 3523 
Q 1550 3584 1831 3584 
Q 2591 3584 2966 3190 
Q 3341 2797 3341 1997 
z
" transform="scale(0.015625)"/>
       <path id="DejaVuSans-67" d="M 2906 1791 
Q 2906 2416 2648 2759 
Q 2391 3103 1925 3103 
Q 1463 3103 1205 2759 
Q 947 2416 947 1791 
Q 947 1169 1205 825 
Q 1463 481 1925 481 
Q 2391 481 2648 825 
Q 2906 1169 2906 1791 
z
M 3481 434 
Q 3481 -459 3084 -895 
Q 2688 -1331 1869 -1331 
Q 1566 -1331 1297 -1286 
Q 1028 -1241 775 -1147 
L 775 -588 
Q 1028 -725 1275 -790 
Q 1522 -856 1778 -856 
Q 2344 -856 2625 -561 
Q 2906 -266 2906 331 
L 2906 616 
Q 2728 306 2450 153 
Q 2172 0 1784 0 
Q 1141 0 747 490 
Q 353 981 353 1791 
Q 353 2603 747 3093 
Q 1141 3584 1784 3584 
Q 2172 3584 2450 3431 
Q 2728 3278 2906 2969 
L 2906 3500 
L 3481 3500 
L 3481 434 
z
" transform="scale(0.015625)"/>
       <path id="DejaVuSans-66" d="M 2375 4863 
L 2375 4384 
L 1825 4384 
Q 1516 4384 1395 4259 
Q 1275 4134 1275 3809 
L 1275 3500 
L 2222 3500 
L 2222 3053 
L 1275 3053 
L 1275 0 
L 697 0 
L 697 3053 
L 147 3053 
L 147 3500 
L 697 3500 
L 697 3744 
Q 697 4328 969 4595 
Q 1241 4863 1831 4863 
L 2375 4863 
z
" transform="scale(0.015625)"/>
      </defs>
      <use xlink:href="#DejaVuSans-41"/>
      <use xlink:href="#DejaVuSans-76" x="62.533203"/>
      <use xlink:href="#DejaVuSans-65" x="121.712891"/>
      <use xlink:href="#DejaVuSans-72" x="183.236328"/>
      <use xlink:href="#DejaVuSans-61" x="224.349609"/>
      <use xlink:href="#DejaVuSans-67" x="285.628906"/>
      <use xlink:href="#DejaVuSans-65" x="349.105469"/>
      <use xlink:href="#DejaVuSans-20" x="410.628906"/>
      <use xlink:href="#DejaVuSans-6f" x="442.416016"/>
      <use xlink:href="#DejaVuSans-66" x="503.597656"/>
      <use xlink:href="#DejaVuSans-20" x="538.802734"/>
      <use xlink:href="#DejaVuSans-50" x="570.589844"/>
      <use xlink:href="#DejaVuSans-72" x="629.142578"/>
      <use xlink:href="#DejaVuSans-65" x="668.005859"/>
      <use xlink:href="#DejaVuSans-64" x="729.529297"/>
      <use xlink:href="#DejaVuSans-69" x="793.005859"/>
      <use xlink:href="#DejaVuSans-63" x="820.789062"/>
      <use xlink:href="#DejaVuSans-74" x="875.769531"/>
      <use xlink:href="#DejaVuSans-69" x="914.978516"/>
      <use xlink:href="#DejaVuSans-6f" x="942.761719"/>
      <use xlink:href="#DejaVuSans-6e" x="1003.943359"/>
      <use xlink:href="#DejaVuSans-73" x="1067.322266"/>
     </g>
    </g>
    <g id="line2d_18">
     <path d="M 114.528125 85.654687 
L 124.528125 85.654687 
L 134.528125 85.654687 
" style="fill: none; stroke: #2ca02c; stroke-width: 1.5; stroke-linecap: square"/>
    </g>
    <g id="text_14">
     <!-- Prediction 1 -->
     <g transform="translate(142.528125 89.154687)scale(0.1 -0.1)">
      <use xlink:href="#DejaVuSans-50"/>
      <use xlink:href="#DejaVuSans-72" x="58.552734"/>
      <use xlink:href="#DejaVuSans-65" x="97.416016"/>
      <use xlink:href="#DejaVuSans-64" x="158.939453"/>
      <use xlink:href="#DejaVuSans-69" x="222.416016"/>
      <use xlink:href="#DejaVuSans-63" x="250.199219"/>
      <use xlink:href="#DejaVuSans-74" x="305.179688"/>
      <use xlink:href="#DejaVuSans-69" x="344.388672"/>
      <use xlink:href="#DejaVuSans-6f" x="372.171875"/>
      <use xlink:href="#DejaVuSans-6e" x="433.353516"/>
      <use xlink:href="#DejaVuSans-20" x="496.732422"/>
      <use xlink:href="#DejaVuSans-31" x="528.519531"/>
     </g>
    </g>
    <g id="line2d_19">
     <path d="M 114.528125 100.332812 
L 124.528125 100.332812 
L 134.528125 100.332812 
" style="fill: none; stroke: #d62728; stroke-width: 1.5; stroke-linecap: square"/>
    </g>
    <g id="text_15">
     <!-- Prediction 2 -->
     <g transform="translate(142.528125 103.832812)scale(0.1 -0.1)">
      <use xlink:href="#DejaVuSans-50"/>
      <use xlink:href="#DejaVuSans-72" x="58.552734"/>
      <use xlink:href="#DejaVuSans-65" x="97.416016"/>
      <use xlink:href="#DejaVuSans-64" x="158.939453"/>
      <use xlink:href="#DejaVuSans-69" x="222.416016"/>
      <use xlink:href="#DejaVuSans-63" x="250.199219"/>
      <use xlink:href="#DejaVuSans-74" x="305.179688"/>
      <use xlink:href="#DejaVuSans-69" x="344.388672"/>
      <use xlink:href="#DejaVuSans-6f" x="372.171875"/>
      <use xlink:href="#DejaVuSans-6e" x="433.353516"/>
      <use xlink:href="#DejaVuSans-20" x="496.732422"/>
      <use xlink:href="#DejaVuSans-32" x="528.519531"/>
     </g>
    </g>
    <g id="line2d_20">
     <path d="M 114.528125 115.010937 
L 124.528125 115.010937 
L 134.528125 115.010937 
" style="fill: none; stroke: #9467bd; stroke-width: 1.5; stroke-linecap: square"/>
    </g>
    <g id="text_16">
     <!-- Prediction 3 -->
     <g transform="translate(142.528125 118.510937)scale(0.1 -0.1)">
      <defs>
       <path id="DejaVuSans-33" d="M 2597 2516 
Q 3050 2419 3304 2112 
Q 3559 1806 3559 1356 
Q 3559 666 3084 287 
Q 2609 -91 1734 -91 
Q 1441 -91 1130 -33 
Q 819 25 488 141 
L 488 750 
Q 750 597 1062 519 
Q 1375 441 1716 441 
Q 2309 441 2620 675 
Q 2931 909 2931 1356 
Q 2931 1769 2642 2001 
Q 2353 2234 1838 2234 
L 1294 2234 
L 1294 2753 
L 1863 2753 
Q 2328 2753 2575 2939 
Q 2822 3125 2822 3475 
Q 2822 3834 2567 4026 
Q 2313 4219 1838 4219 
Q 1578 4219 1281 4162 
Q 984 4106 628 3988 
L 628 4550 
Q 988 4650 1302 4700 
Q 1616 4750 1894 4750 
Q 2613 4750 3031 4423 
Q 3450 4097 3450 3541 
Q 3450 3153 3228 2886 
Q 3006 2619 2597 2516 
z
" transform="scale(0.015625)"/>
      </defs>
      <use xlink:href="#DejaVuSans-50"/>
      <use xlink:href="#DejaVuSans-72" x="58.552734"/>
      <use xlink:href="#DejaVuSans-65" x="97.416016"/>
      <use xlink:href="#DejaVuSans-64" x="158.939453"/>
      <use xlink:href="#DejaVuSans-69" x="222.416016"/>
      <use xlink:href="#DejaVuSans-63" x="250.199219"/>
      <use xlink:href="#DejaVuSans-74" x="305.179688"/>
      <use xlink:href="#DejaVuSans-69" x="344.388672"/>
      <use xlink:href="#DejaVuSans-6f" x="372.171875"/>
      <use xlink:href="#DejaVuSans-6e" x="433.353516"/>
      <use xlink:href="#DejaVuSans-20" x="496.732422"/>
      <use xlink:href="#DejaVuSans-33" x="528.519531"/>
     </g>
    </g>
   </g>
  </g>
 </g>
 <defs>
  <clipPath id="pc79fb5e925">
   <rect x="45" y="43.2" width="279" height="277.2"/>
  </clipPath>
 </defs>
</svg>
