<?xml version="1.0" encoding="utf-8" standalone="no"?>
<!DOCTYPE svg PUBLIC "-//W3C//DTD SVG 1.1//EN"
  "http://www.w3.org/Graphics/SVG/1.1/DTD/svg11.dtd">
<svg xmlns:xlink="http://www.w3.org/1999/xlink" width="360pt" height="360pt" viewBox="0 0 360 360" xmlns="http://www.w3.org/2000/svg" version="1.1">
 <metadata>
  <rdf:RDF xmlns:dc="http://purl.org/dc/elements/1.1/" xmlns:cc="http://creativecommons.org/ns#" xmlns:rdf="http://www.w3.org/1999/02/22-rdf-syntax-ns#">
   <cc:Work>
    <dc:type rdf:resource="http://purl.org/dc/dcmitype/StillImage"/>
    <dc:date>2022-11-15T21:29:12.146976</dc:date>
    <dc:format>image/svg+xml</dc:format>
    <dc:creator>
     <cc:Agent>
      <dc:title>Matplotlib v3.5.3, https://matplotlib.org/</dc:title>
     </cc:Agent>
    </dc:creator>
   </cc:Work>
  </rdf:RDF>
 </metadata>
 <defs>
  <style type="text/css">*{stroke-linejoin: round; stroke-linecap: butt}</style>
 </defs>
 <g id="figure_1">
  <g id="patch_1">
   <path d="M 0 360 
L 360 360 
L 360 0 
L 0 0 
z
" style="fill: #ffffff"/>
  </g>
  <g id="axes_1">
   <g id="patch_2">
    <path d="M 45 320.4 
L 324 320.4 
L 324 43.2 
L 45 43.2 
z
" style="fill: #ffffff"/>
   </g>
   <g id="matplotlib.axis_1">
    <g id="xtick_1">
     <g id="line2d_1">
      <defs>
       <path id="me726e91bf6" d="M 0 0 
L 0 3.5 
" style="stroke: #000000; stroke-width: 0.8"/>
      </defs>
      <g>
       <use xlink:href="#me726e91bf6" x="83.045455" y="320.4" style="stroke: #000000; stroke-width: 0.8"/>
      </g>
     </g>
     <g id="text_1">
      <!-- −2 -->
      <g transform="translate(75.674361 334.998438)scale(0.1 -0.1)">
       <defs>
        <path id="DejaVuSans-2212" d="M 678 2272 
L 4684 2272 
L 4684 1741 
L 678 1741 
L 678 2272 
z
" transform="scale(0.015625)"/>
        <path id="DejaVuSans-32" d="M 1228 531 
L 3431 531 
L 3431 0 
L 469 0 
L 469 531 
Q 828 903 1448 1529 
Q 2069 2156 2228 2338 
Q 2531 2678 2651 2914 
Q 2772 3150 2772 3378 
Q 2772 3750 2511 3984 
Q 2250 4219 1831 4219 
Q 1534 4219 1204 4116 
Q 875 4013 500 3803 
L 500 4441 
Q 881 4594 1212 4672 
Q 1544 4750 1819 4750 
Q 2544 4750 2975 4387 
Q 3406 4025 3406 3419 
Q 3406 3131 3298 2873 
Q 3191 2616 2906 2266 
Q 2828 2175 2409 1742 
Q 1991 1309 1228 531 
z
" transform="scale(0.015625)"/>
       </defs>
       <use xlink:href="#DejaVuSans-2212"/>
       <use xlink:href="#DejaVuSans-32" x="83.789062"/>
      </g>
     </g>
    </g>
    <g id="xtick_2">
     <g id="line2d_2">
      <g>
       <use xlink:href="#me726e91bf6" x="133.772727" y="320.4" style="stroke: #000000; stroke-width: 0.8"/>
      </g>
     </g>
     <g id="text_2">
      <!-- −1 -->
      <g transform="translate(126.401634 334.998438)scale(0.1 -0.1)">
       <defs>
        <path id="DejaVuSans-31" d="M 794 531 
L 1825 531 
L 1825 4091 
L 703 3866 
L 703 4441 
L 1819 4666 
L 2450 4666 
L 2450 531 
L 3481 531 
L 3481 0 
L 794 0 
L 794 531 
z
" transform="scale(0.015625)"/>
       </defs>
       <use xlink:href="#DejaVuSans-2212"/>
       <use xlink:href="#DejaVuSans-31" x="83.789062"/>
      </g>
     </g>
    </g>
    <g id="xtick_3">
     <g id="line2d_3">
      <g>
       <use xlink:href="#me726e91bf6" x="184.5" y="320.4" style="stroke: #000000; stroke-width: 0.8"/>
      </g>
     </g>
     <g id="text_3">
      <!-- 0 -->
      <g transform="translate(181.31875 334.998438)scale(0.1 -0.1)">
       <defs>
        <path id="DejaVuSans-30" d="M 2034 4250 
Q 1547 4250 1301 3770 
Q 1056 3291 1056 2328 
Q 1056 1369 1301 889 
Q 1547 409 2034 409 
Q 2525 409 2770 889 
Q 3016 1369 3016 2328 
Q 3016 3291 2770 3770 
Q 2525 4250 2034 4250 
z
M 2034 4750 
Q 2819 4750 3233 4129 
Q 3647 3509 3647 2328 
Q 3647 1150 3233 529 
Q 2819 -91 2034 -91 
Q 1250 -91 836 529 
Q 422 1150 422 2328 
Q 422 3509 836 4129 
Q 1250 4750 2034 4750 
z
" transform="scale(0.015625)"/>
       </defs>
       <use xlink:href="#DejaVuSans-30"/>
      </g>
     </g>
    </g>
    <g id="xtick_4">
     <g id="line2d_4">
      <g>
       <use xlink:href="#me726e91bf6" x="235.227273" y="320.4" style="stroke: #000000; stroke-width: 0.8"/>
      </g>
     </g>
     <g id="text_4">
      <!-- 1 -->
      <g transform="translate(232.046023 334.998438)scale(0.1 -0.1)">
       <use xlink:href="#DejaVuSans-31"/>
      </g>
     </g>
    </g>
    <g id="xtick_5">
     <g id="line2d_5">
      <g>
       <use xlink:href="#me726e91bf6" x="285.954545" y="320.4" style="stroke: #000000; stroke-width: 0.8"/>
      </g>
     </g>
     <g id="text_5">
      <!-- 2 -->
      <g transform="translate(282.773295 334.998438)scale(0.1 -0.1)">
       <use xlink:href="#DejaVuSans-32"/>
      </g>
     </g>
    </g>
   </g>
   <g id="matplotlib.axis_2">
    <g id="ytick_1">
     <g id="line2d_6">
      <defs>
       <path id="m13fa840f99" d="M 0 0 
L -3.5 0 
" style="stroke: #000000; stroke-width: 0.8"/>
      </defs>
      <g>
       <use xlink:href="#m13fa840f99" x="45" y="284.190947" style="stroke: #000000; stroke-width: 0.8"/>
      </g>
     </g>
     <g id="text_6">
      <!-- $\mathdefault{10^{-4}}$ -->
      <g transform="translate(14.5 287.990165)scale(0.1 -0.1)">
       <defs>
        <path id="DejaVuSans-34" d="M 2419 4116 
L 825 1625 
L 2419 1625 
L 2419 4116 
z
M 2253 4666 
L 3047 4666 
L 3047 1625 
L 3713 1625 
L 3713 1100 
L 3047 1100 
L 3047 0 
L 2419 0 
L 2419 1100 
L 313 1100 
L 313 1709 
L 2253 4666 
z
" transform="scale(0.015625)"/>
       </defs>
       <use xlink:href="#DejaVuSans-31" transform="translate(0 0.684375)"/>
       <use xlink:href="#DejaVuSans-30" transform="translate(63.623047 0.684375)"/>
       <use xlink:href="#DejaVuSans-2212" transform="translate(128.203125 38.965625)scale(0.7)"/>
       <use xlink:href="#DejaVuSans-34" transform="translate(186.855469 38.965625)scale(0.7)"/>
      </g>
     </g>
    </g>
    <g id="ytick_2">
     <g id="line2d_7">
      <g>
       <use xlink:href="#m13fa840f99" x="45" y="239.002846" style="stroke: #000000; stroke-width: 0.8"/>
      </g>
     </g>
     <g id="text_7">
      <!-- $\mathdefault{10^{-3}}$ -->
      <g transform="translate(14.5 242.802065)scale(0.1 -0.1)">
       <defs>
        <path id="DejaVuSans-33" d="M 2597 2516 
Q 3050 2419 3304 2112 
Q 3559 1806 3559 1356 
Q 3559 666 3084 287 
Q 2609 -91 1734 -91 
Q 1441 -91 1130 -33 
Q 819 25 488 141 
L 488 750 
Q 750 597 1062 519 
Q 1375 441 1716 441 
Q 2309 441 2620 675 
Q 2931 909 2931 1356 
Q 2931 1769 2642 2001 
Q 2353 2234 1838 2234 
L 1294 2234 
L 1294 2753 
L 1863 2753 
Q 2328 2753 2575 2939 
Q 2822 3125 2822 3475 
Q 2822 3834 2567 4026 
Q 2313 4219 1838 4219 
Q 1578 4219 1281 4162 
Q 984 4106 628 3988 
L 628 4550 
Q 988 4650 1302 4700 
Q 1616 4750 1894 4750 
Q 2613 4750 3031 4423 
Q 3450 4097 3450 3541 
Q 3450 3153 3228 2886 
Q 3006 2619 2597 2516 
z
" transform="scale(0.015625)"/>
       </defs>
       <use xlink:href="#DejaVuSans-31" transform="translate(0 0.765625)"/>
       <use xlink:href="#DejaVuSans-30" transform="translate(63.623047 0.765625)"/>
       <use xlink:href="#DejaVuSans-2212" transform="translate(128.203125 39.046875)scale(0.7)"/>
       <use xlink:href="#DejaVuSans-33" transform="translate(186.855469 39.046875)scale(0.7)"/>
      </g>
     </g>
    </g>
    <g id="ytick_3">
     <g id="line2d_8">
      <g>
       <use xlink:href="#m13fa840f99" x="45" y="193.814745" style="stroke: #000000; stroke-width: 0.8"/>
      </g>
     </g>
     <g id="text_8">
      <!-- $\mathdefault{10^{-2}}$ -->
      <g transform="translate(14.5 197.613964)scale(0.1 -0.1)">
       <use xlink:href="#DejaVuSans-31" transform="translate(0 0.765625)"/>
       <use xlink:href="#DejaVuSans-30" transform="translate(63.623047 0.765625)"/>
       <use xlink:href="#DejaVuSans-2212" transform="translate(128.203125 39.046875)scale(0.7)"/>
       <use xlink:href="#DejaVuSans-32" transform="translate(186.855469 39.046875)scale(0.7)"/>
      </g>
     </g>
    </g>
    <g id="ytick_4">
     <g id="line2d_9">
      <g>
       <use xlink:href="#m13fa840f99" x="45" y="148.626644" style="stroke: #000000; stroke-width: 0.8"/>
      </g>
     </g>
     <g id="text_9">
      <!-- $\mathdefault{10^{-1}}$ -->
      <g transform="translate(14.5 152.425863)scale(0.1 -0.1)">
       <use xlink:href="#DejaVuSans-31" transform="translate(0 0.684375)"/>
       <use xlink:href="#DejaVuSans-30" transform="translate(63.623047 0.684375)"/>
       <use xlink:href="#DejaVuSans-2212" transform="translate(128.203125 38.965625)scale(0.7)"/>
       <use xlink:href="#DejaVuSans-31" transform="translate(186.855469 38.965625)scale(0.7)"/>
      </g>
     </g>
    </g>
    <g id="ytick_5">
     <g id="line2d_10">
      <g>
       <use xlink:href="#m13fa840f99" x="45" y="103.438544" style="stroke: #000000; stroke-width: 0.8"/>
      </g>
     </g>
     <g id="text_10">
      <!-- $\mathdefault{10^{0}}$ -->
      <g transform="translate(20.4 107.237763)scale(0.1 -0.1)">
       <use xlink:href="#DejaVuSans-31" transform="translate(0 0.765625)"/>
       <use xlink:href="#DejaVuSans-30" transform="translate(63.623047 0.765625)"/>
       <use xlink:href="#DejaVuSans-30" transform="translate(128.203125 39.046875)scale(0.7)"/>
      </g>
     </g>
    </g>
    <g id="ytick_6">
     <g id="line2d_11">
      <g>
       <use xlink:href="#m13fa840f99" x="45" y="58.250443" style="stroke: #000000; stroke-width: 0.8"/>
      </g>
     </g>
     <g id="text_11">
      <!-- $\mathdefault{10^{1}}$ -->
      <g transform="translate(20.4 62.049662)scale(0.1 -0.1)">
       <use xlink:href="#DejaVuSans-31" transform="translate(0 0.684375)"/>
       <use xlink:href="#DejaVuSans-30" transform="translate(63.623047 0.684375)"/>
       <use xlink:href="#DejaVuSans-31" transform="translate(128.203125 38.965625)scale(0.7)"/>
      </g>
     </g>
    </g>
    <g id="ytick_7">
     <g id="line2d_12">
      <defs>
       <path id="mb656a6233c" d="M 0 0 
L -2 0 
" style="stroke: #000000; stroke-width: 0.6"/>
      </defs>
      <g>
       <use xlink:href="#mb656a6233c" x="45" y="315.776074" style="stroke: #000000; stroke-width: 0.6"/>
      </g>
     </g>
    </g>
    <g id="ytick_8">
     <g id="line2d_13">
      <g>
       <use xlink:href="#mb656a6233c" x="45" y="307.818844" style="stroke: #000000; stroke-width: 0.6"/>
      </g>
     </g>
    </g>
    <g id="ytick_9">
     <g id="line2d_14">
      <g>
       <use xlink:href="#mb656a6233c" x="45" y="302.1731" style="stroke: #000000; stroke-width: 0.6"/>
      </g>
     </g>
    </g>
    <g id="ytick_10">
     <g id="line2d_15">
      <g>
       <use xlink:href="#mb656a6233c" x="45" y="297.79392" style="stroke: #000000; stroke-width: 0.6"/>
      </g>
     </g>
    </g>
    <g id="ytick_11">
     <g id="line2d_16">
      <g>
       <use xlink:href="#mb656a6233c" x="45" y="294.21587" style="stroke: #000000; stroke-width: 0.6"/>
      </g>
     </g>
    </g>
    <g id="ytick_12">
     <g id="line2d_17">
      <g>
       <use xlink:href="#mb656a6233c" x="45" y="291.190672" style="stroke: #000000; stroke-width: 0.6"/>
      </g>
     </g>
    </g>
    <g id="ytick_13">
     <g id="line2d_18">
      <g>
       <use xlink:href="#mb656a6233c" x="45" y="288.570126" style="stroke: #000000; stroke-width: 0.6"/>
      </g>
     </g>
    </g>
    <g id="ytick_14">
     <g id="line2d_19">
      <g>
       <use xlink:href="#mb656a6233c" x="45" y="286.258641" style="stroke: #000000; stroke-width: 0.6"/>
      </g>
     </g>
    </g>
    <g id="ytick_15">
     <g id="line2d_20">
      <g>
       <use xlink:href="#mb656a6233c" x="45" y="270.587973" style="stroke: #000000; stroke-width: 0.6"/>
      </g>
     </g>
    </g>
    <g id="ytick_16">
     <g id="line2d_21">
      <g>
       <use xlink:href="#mb656a6233c" x="45" y="262.630743" style="stroke: #000000; stroke-width: 0.6"/>
      </g>
     </g>
    </g>
    <g id="ytick_17">
     <g id="line2d_22">
      <g>
       <use xlink:href="#mb656a6233c" x="45" y="256.984999" style="stroke: #000000; stroke-width: 0.6"/>
      </g>
     </g>
    </g>
    <g id="ytick_18">
     <g id="line2d_23">
      <g>
       <use xlink:href="#mb656a6233c" x="45" y="252.60582" style="stroke: #000000; stroke-width: 0.6"/>
      </g>
     </g>
    </g>
    <g id="ytick_19">
     <g id="line2d_24">
      <g>
       <use xlink:href="#mb656a6233c" x="45" y="249.02777" style="stroke: #000000; stroke-width: 0.6"/>
      </g>
     </g>
    </g>
    <g id="ytick_20">
     <g id="line2d_25">
      <g>
       <use xlink:href="#mb656a6233c" x="45" y="246.002571" style="stroke: #000000; stroke-width: 0.6"/>
      </g>
     </g>
    </g>
    <g id="ytick_21">
     <g id="line2d_26">
      <g>
       <use xlink:href="#mb656a6233c" x="45" y="243.382025" style="stroke: #000000; stroke-width: 0.6"/>
      </g>
     </g>
    </g>
    <g id="ytick_22">
     <g id="line2d_27">
      <g>
       <use xlink:href="#mb656a6233c" x="45" y="241.07054" style="stroke: #000000; stroke-width: 0.6"/>
      </g>
     </g>
    </g>
    <g id="ytick_23">
     <g id="line2d_28">
      <g>
       <use xlink:href="#mb656a6233c" x="45" y="225.399872" style="stroke: #000000; stroke-width: 0.6"/>
      </g>
     </g>
    </g>
    <g id="ytick_24">
     <g id="line2d_29">
      <g>
       <use xlink:href="#mb656a6233c" x="45" y="217.442643" style="stroke: #000000; stroke-width: 0.6"/>
      </g>
     </g>
    </g>
    <g id="ytick_25">
     <g id="line2d_30">
      <g>
       <use xlink:href="#mb656a6233c" x="45" y="211.796898" style="stroke: #000000; stroke-width: 0.6"/>
      </g>
     </g>
    </g>
    <g id="ytick_26">
     <g id="line2d_31">
      <g>
       <use xlink:href="#mb656a6233c" x="45" y="207.417719" style="stroke: #000000; stroke-width: 0.6"/>
      </g>
     </g>
    </g>
    <g id="ytick_27">
     <g id="line2d_32">
      <g>
       <use xlink:href="#mb656a6233c" x="45" y="203.839669" style="stroke: #000000; stroke-width: 0.6"/>
      </g>
     </g>
    </g>
    <g id="ytick_28">
     <g id="line2d_33">
      <g>
       <use xlink:href="#mb656a6233c" x="45" y="200.814471" style="stroke: #000000; stroke-width: 0.6"/>
      </g>
     </g>
    </g>
    <g id="ytick_29">
     <g id="line2d_34">
      <g>
       <use xlink:href="#mb656a6233c" x="45" y="198.193925" style="stroke: #000000; stroke-width: 0.6"/>
      </g>
     </g>
    </g>
    <g id="ytick_30">
     <g id="line2d_35">
      <g>
       <use xlink:href="#mb656a6233c" x="45" y="195.882439" style="stroke: #000000; stroke-width: 0.6"/>
      </g>
     </g>
    </g>
    <g id="ytick_31">
     <g id="line2d_36">
      <g>
       <use xlink:href="#mb656a6233c" x="45" y="180.211771" style="stroke: #000000; stroke-width: 0.6"/>
      </g>
     </g>
    </g>
    <g id="ytick_32">
     <g id="line2d_37">
      <g>
       <use xlink:href="#mb656a6233c" x="45" y="172.254542" style="stroke: #000000; stroke-width: 0.6"/>
      </g>
     </g>
    </g>
    <g id="ytick_33">
     <g id="line2d_38">
      <g>
       <use xlink:href="#mb656a6233c" x="45" y="166.608798" style="stroke: #000000; stroke-width: 0.6"/>
      </g>
     </g>
    </g>
    <g id="ytick_34">
     <g id="line2d_39">
      <g>
       <use xlink:href="#mb656a6233c" x="45" y="162.229618" style="stroke: #000000; stroke-width: 0.6"/>
      </g>
     </g>
    </g>
    <g id="ytick_35">
     <g id="line2d_40">
      <g>
       <use xlink:href="#mb656a6233c" x="45" y="158.651568" style="stroke: #000000; stroke-width: 0.6"/>
      </g>
     </g>
    </g>
    <g id="ytick_36">
     <g id="line2d_41">
      <g>
       <use xlink:href="#mb656a6233c" x="45" y="155.62637" style="stroke: #000000; stroke-width: 0.6"/>
      </g>
     </g>
    </g>
    <g id="ytick_37">
     <g id="line2d_42">
      <g>
       <use xlink:href="#mb656a6233c" x="45" y="153.005824" style="stroke: #000000; stroke-width: 0.6"/>
      </g>
     </g>
    </g>
    <g id="ytick_38">
     <g id="line2d_43">
      <g>
       <use xlink:href="#mb656a6233c" x="45" y="150.694339" style="stroke: #000000; stroke-width: 0.6"/>
      </g>
     </g>
    </g>
    <g id="ytick_39">
     <g id="line2d_44">
      <g>
       <use xlink:href="#mb656a6233c" x="45" y="135.023671" style="stroke: #000000; stroke-width: 0.6"/>
      </g>
     </g>
    </g>
    <g id="ytick_40">
     <g id="line2d_45">
      <g>
       <use xlink:href="#mb656a6233c" x="45" y="127.066441" style="stroke: #000000; stroke-width: 0.6"/>
      </g>
     </g>
    </g>
    <g id="ytick_41">
     <g id="line2d_46">
      <g>
       <use xlink:href="#mb656a6233c" x="45" y="121.420697" style="stroke: #000000; stroke-width: 0.6"/>
      </g>
     </g>
    </g>
    <g id="ytick_42">
     <g id="line2d_47">
      <g>
       <use xlink:href="#mb656a6233c" x="45" y="117.041518" style="stroke: #000000; stroke-width: 0.6"/>
      </g>
     </g>
    </g>
    <g id="ytick_43">
     <g id="line2d_48">
      <g>
       <use xlink:href="#mb656a6233c" x="45" y="113.463467" style="stroke: #000000; stroke-width: 0.6"/>
      </g>
     </g>
    </g>
    <g id="ytick_44">
     <g id="line2d_49">
      <g>
       <use xlink:href="#mb656a6233c" x="45" y="110.438269" style="stroke: #000000; stroke-width: 0.6"/>
      </g>
     </g>
    </g>
    <g id="ytick_45">
     <g id="line2d_50">
      <g>
       <use xlink:href="#mb656a6233c" x="45" y="107.817723" style="stroke: #000000; stroke-width: 0.6"/>
      </g>
     </g>
    </g>
    <g id="ytick_46">
     <g id="line2d_51">
      <g>
       <use xlink:href="#mb656a6233c" x="45" y="105.506238" style="stroke: #000000; stroke-width: 0.6"/>
      </g>
     </g>
    </g>
    <g id="ytick_47">
     <g id="line2d_52">
      <g>
       <use xlink:href="#mb656a6233c" x="45" y="89.83557" style="stroke: #000000; stroke-width: 0.6"/>
      </g>
     </g>
    </g>
    <g id="ytick_48">
     <g id="line2d_53">
      <g>
       <use xlink:href="#mb656a6233c" x="45" y="81.87834" style="stroke: #000000; stroke-width: 0.6"/>
      </g>
     </g>
    </g>
    <g id="ytick_49">
     <g id="line2d_54">
      <g>
       <use xlink:href="#mb656a6233c" x="45" y="76.232596" style="stroke: #000000; stroke-width: 0.6"/>
      </g>
     </g>
    </g>
    <g id="ytick_50">
     <g id="line2d_55">
      <g>
       <use xlink:href="#mb656a6233c" x="45" y="71.853417" style="stroke: #000000; stroke-width: 0.6"/>
      </g>
     </g>
    </g>
    <g id="ytick_51">
     <g id="line2d_56">
      <g>
       <use xlink:href="#mb656a6233c" x="45" y="68.275367" style="stroke: #000000; stroke-width: 0.6"/>
      </g>
     </g>
    </g>
    <g id="ytick_52">
     <g id="line2d_57">
      <g>
       <use xlink:href="#mb656a6233c" x="45" y="65.250168" style="stroke: #000000; stroke-width: 0.6"/>
      </g>
     </g>
    </g>
    <g id="ytick_53">
     <g id="line2d_58">
      <g>
       <use xlink:href="#mb656a6233c" x="45" y="62.629623" style="stroke: #000000; stroke-width: 0.6"/>
      </g>
     </g>
    </g>
    <g id="ytick_54">
     <g id="line2d_59">
      <g>
       <use xlink:href="#mb656a6233c" x="45" y="60.318137" style="stroke: #000000; stroke-width: 0.6"/>
      </g>
     </g>
    </g>
    <g id="ytick_55">
     <g id="line2d_60">
      <g>
       <use xlink:href="#mb656a6233c" x="45" y="44.647469" style="stroke: #000000; stroke-width: 0.6"/>
      </g>
     </g>
    </g>
   </g>
   <g id="line2d_61">
    <path d="M 83.045455 142.507752 
L 85.095043 151.318837 
L 87.144626 167.087593 
L 89.194215 153.294471 
L 91.243804 179.138722 
L 93.293387 167.738814 
L 95.342976 183.619528 
L 97.392564 148.757481 
L 99.442147 143.351532 
L 101.491736 169.273837 
L 103.541319 145.701998 
L 105.590908 169.06477 
L 107.640497 153.87532 
L 109.690079 219.195693 
L 111.739668 175.060819 
L 113.789251 164.502554 
L 115.83884 165.43718 
L 117.888429 180.45092 
L 119.938012 153.774736 
L 121.9876 215.753448 
L 124.037189 159.537537 
L 126.086772 193.410576 
L 128.136361 175.306813 
L 130.18595 149.840158 
L 132.235539 166.365308 
L 134.285124 307.8 
L 136.334713 178.647339 
L 138.384299 192.169482 
L 140.433885 160.869184 
L 142.483471 157.458067 
L 144.53306 146.233259 
L 146.582646 153.843503 
L 148.632231 155.494752 
L 150.681817 210.090745 
L 152.731406 156.857871 
L 154.780992 180.972236 
L 156.830578 170.584172 
L 158.880164 171.842582 
L 160.929752 167.852589 
L 162.979338 154.206511 
L 165.028924 194.28175 
L 167.078511 160.272198 
L 169.128097 177.505485 
L 171.177685 153.313834 
L 173.227271 160.460086 
L 175.276858 166.072389 
L 177.326445 157.405102 
L 179.376031 175.445265 
L 181.425623 159.403924 
L 183.47521 159.908245 
L 185.524796 149.094148 
L 187.574383 166.155894 
L 189.62397 152.466881 
L 191.673556 154.451511 
L 193.723144 180.008094 
L 195.77273 170.211576 
L 197.822315 175.921943 
L 199.871903 201.300091 
L 201.921489 154.443875 
L 203.971076 154.315356 
L 206.020662 232.832548 
L 208.070249 154.168917 
L 210.119836 179.280913 
L 212.169422 163.549128 
L 214.219008 183.459089 
L 216.268594 169.664204 
L 218.318183 155.13104 
L 220.367769 156.68484 
L 222.417354 158.249601 
L 224.46694 160.281288 
L 226.516529 148.620825 
L 228.566115 163.125889 
L 230.615701 146.238681 
L 232.665287 156.741164 
L 234.714876 151.617451 
L 236.764461 155.480627 
L 238.81405 156.439989 
L 240.863633 171.094261 
L 242.913222 182.136776 
L 244.962805 159.577877 
L 247.012394 152.0726 
L 249.061982 147.813758 
L 251.111565 184.196719 
L 253.161154 154.401603 
L 255.210743 170.774463 
L 257.260326 164.781674 
L 259.309915 163.656477 
L 261.359503 153.201487 
L 263.409092 164.341751 
L 265.458681 167.100553 
L 267.508264 174.563515 
L 269.557853 172.141093 
L 271.607442 167.971024 
L 273.657024 178.201105 
L 275.706613 141.464689 
L 277.756202 141.166693 
L 279.805785 196.69342 
L 281.855374 145.948119 
L 283.904957 160.329708 
L 285.954545 212.831812 
" clip-path="url(#pb0b16b0f11)" style="fill: none; stroke: #1f77b4; stroke-width: 1.5; stroke-linecap: square"/>
   </g>
   <g id="line2d_62">
    <path d="M 57.681818 59.265992 
L 60.224541 63.734565 
L 62.767264 68.714906 
L 65.309987 74.313373 
L 67.21702 78.998801 
L 69.124053 84.181764 
L 71.031098 89.955876 
L 72.938143 96.444432 
L 74.845188 103.818025 
L 76.752221 112.328333 
L 78.023577 118.823365 
L 79.294932 126.187978 
L 80.566299 134.726392 
L 81.837655 144.986761 
L 83.109022 158.153675 
L 83.7447 166.715129 
L 84.380384 177.924057 
L 85.016061 195.601813 
L 85.651745 245.938593 
L 86.287423 199.556975 
L 86.923101 190.945835 
L 87.558784 188.029987 
L 88.194462 188.080716 
L 88.83014 190.541405 
L 89.465823 195.856741 
L 90.101501 206.380519 
L 90.737185 241.948604 
L 91.372862 211.86711 
L 92.00854 195.761439 
L 92.644224 186.978538 
L 93.279902 181.055004 
L 93.915579 176.718798 
L 94.551263 173.424215 
L 95.186941 170.882354 
L 95.822624 168.923331 
L 96.458302 167.439281 
L 97.09398 166.358051 
L 97.729663 165.630555 
L 98.365347 165.223689 
L 99.001025 165.115259 
L 99.636709 165.292755 
L 100.272386 165.752546 
L 100.90807 166.497769 
L 101.543748 167.541929 
L 102.179425 168.90802 
L 102.815109 170.633579 
L 103.450781 172.77724 
L 104.086458 175.428427 
L 104.722142 178.732176 
L 105.35782 182.935121 
L 105.993504 188.509428 
L 106.629181 196.523445 
L 107.264859 210.448228 
L 107.900543 280.445617 
L 108.536226 209.690029 
L 109.171904 196.626646 
L 109.807588 189.109214 
L 110.443266 183.93463 
L 111.078949 180.083702 
L 111.714627 177.10284 
L 112.350305 174.748276 
L 112.985988 172.874934 
L 113.621666 171.393061 
L 114.257344 170.240603 
L 114.893027 169.376551 
L 115.528705 168.772801 
L 116.164389 168.410087 
L 116.800067 168.277356 
L 117.435744 168.369355 
L 118.071428 168.687165 
L 118.707106 169.236877 
L 119.342783 170.031868 
L 119.978467 171.09274 
L 120.614145 172.452406 
L 121.249829 174.156112 
L 121.885506 176.274105 
L 122.521184 178.911259 
L 123.156868 182.240233 
L 123.792545 186.557764 
L 124.428223 192.453766 
L 125.063907 201.376722 
L 125.699584 219.054146 
L 126.335268 232.967972 
L 126.970946 205.440424 
L 127.606623 194.397268 
L 128.242307 187.418409 
L 128.877991 182.360284 
L 129.513669 178.440116 
L 130.78503 172.696355 
L 132.056391 168.737255 
L 133.327753 165.982696 
L 134.599111 164.153952 
L 135.234792 163.538731 
L 135.87047 163.108048 
L 136.50615 162.855612 
L 137.141831 162.778382 
L 137.777512 162.876571 
L 138.413193 163.153006 
L 139.04887 163.613851 
L 139.684551 164.268979 
L 140.320232 165.132641 
L 140.955909 166.225082 
L 141.59159 167.573701 
L 142.227271 169.216703 
L 142.862951 171.208316 
L 143.498632 173.628182 
L 144.13431 176.597341 
L 144.769991 180.312358 
L 145.405671 185.125825 
L 146.041349 191.763398 
L 146.67703 202.16291 
L 147.31271 226.288778 
L 147.948391 219.322943 
L 148.584072 199.896832 
L 149.219749 190.443074 
L 149.85543 184.221061 
L 150.491111 179.644618 
L 151.126789 176.081915 
L 151.762469 173.216736 
L 153.033831 168.921426 
L 154.305195 165.958649 
L 155.576557 163.952271 
L 156.212234 163.240474 
L 156.847915 162.699177 
L 157.483596 162.315893 
L 158.119276 162.080913 
L 158.754957 161.986683 
L 159.390635 162.027875 
L 160.026315 162.2006 
L 160.661995 162.502087 
L 161.933355 163.488995 
L 163.204716 164.994783 
L 164.476068 167.047705 
L 165.747428 169.702587 
L 167.018788 173.052135 
L 168.29015 177.250126 
L 169.561514 182.56248 
L 170.832874 189.493417 
L 171.468555 193.872036 
L 172.104235 199.188511 
L 172.739914 205.967125 
L 173.375594 215.425882 
L 174.011274 231.805759 
L 174.64696 266.330844 
L 175.28264 228.143141 
L 175.91832 217.308329 
L 176.554 211.374855 
L 177.18968 207.676854 
L 177.82536 205.327941 
L 178.46104 203.936174 
L 179.09672 203.310161 
L 179.732393 203.359144 
L 180.368073 204.061372 
L 181.003753 205.450982 
L 181.639433 207.638346 
L 182.275114 210.842571 
L 182.910794 215.51531 
L 183.546474 222.719553 
L 184.182154 235.924499 
L 184.817839 302.863208 
L 185.453519 233.698626 
L 186.089199 220.085791 
L 186.724879 212.037095 
L 187.360559 206.366877 
L 187.996239 202.05709 
L 188.631919 198.649975 
L 189.2676 195.89914 
L 189.903285 193.658607 
L 190.538964 191.83192 
L 191.174644 190.354616 
L 191.810325 189.180109 
L 192.446005 188.272648 
L 193.081685 187.605937 
L 193.717365 187.158223 
L 194.353045 186.910432 
L 194.98873 186.846456 
L 195.62441 186.950807 
L 196.26009 187.206445 
L 197.53145 188.10446 
L 198.802811 189.374992 
L 201.345524 192.089904 
L 201.981204 192.588102 
L 202.616884 192.937243 
L 203.252564 193.106994 
L 203.888245 193.076936 
L 204.523924 192.840256 
L 205.159609 192.403572 
L 206.430969 191.018402 
L 207.702329 189.176174 
L 210.245049 185.294914 
L 211.51641 183.727301 
L 212.787769 182.624975 
L 213.42345 182.284092 
L 214.05913 182.101164 
L 214.694811 182.088469 
L 215.330489 182.259927 
L 215.966169 182.631127 
L 216.60185 183.221399 
L 217.237528 184.053326 
L 217.873208 185.157344 
L 218.508889 186.573473 
L 219.14457 188.357002 
L 219.780251 190.58697 
L 220.415928 193.382418 
L 221.051609 196.935926 
L 221.68729 201.588706 
L 222.322967 208.03459 
L 222.958648 218.082252 
L 223.594329 240.392999 
L 224.230009 238.179009 
L 224.86569 217.501822 
L 225.501368 207.881693 
L 226.137049 201.69849 
L 226.772729 197.266873 
L 227.408407 193.926099 
L 228.044088 191.354925 
L 228.679768 189.372697 
L 229.315449 187.871589 
L 229.95113 186.785697 
L 230.586807 186.073695 
L 231.222488 185.712827 
L 231.858169 185.695866 
L 232.493847 186.029056 
L 233.129527 186.73269 
L 233.765208 187.847029 
L 234.400889 189.43623 
L 235.036569 191.607291 
L 235.672253 194.536041 
L 236.307931 198.543068 
L 236.943615 204.272272 
L 237.579292 213.387651 
L 238.214976 233.249857 
L 238.850654 236.255549 
L 239.486331 213.026428 
L 240.122015 202.41299 
L 240.757693 195.439282 
L 241.39337 190.256278 
L 242.029054 186.163588 
L 243.300416 180.021081 
L 244.571771 175.641918 
L 245.843132 172.464998 
L 247.114494 170.211692 
L 248.385855 168.732367 
L 249.021533 168.256252 
L 249.657211 167.948897 
L 250.292894 167.807361 
L 250.928572 167.831585 
L 251.56425 168.023381 
L 252.199933 168.387969 
L 252.835611 168.931835 
L 253.471295 169.665349 
L 254.106973 170.601621 
L 254.74265 171.759333 
L 255.378334 173.161804 
L 256.014012 174.840575 
L 256.649689 176.838027 
L 257.285373 179.212004 
L 257.921051 182.044281 
L 258.556734 185.459436 
L 259.192412 189.649347 
L 259.82809 194.950251 
L 260.463774 202.028235 
L 261.099451 212.558409 
L 261.735129 233.897273 
L 262.370813 238.768335 
L 263.00649 217.31933 
L 263.642174 208.78408 
L 264.277852 204.215652 
L 264.913529 201.882935 
L 265.549213 201.277665 
L 266.184897 202.391918 
L 266.820575 205.725956 
L 267.456258 212.955043 
L 268.091936 232.550405 
L 268.72762 228.411866 
L 269.363297 205.362295 
L 269.998975 193.583876 
L 270.634659 185.348533 
L 271.270337 178.932317 
L 272.541698 169.203405 
L 273.813059 162.021479 
L 275.084415 156.558807 
L 276.355776 152.467253 
L 276.991454 150.892473 
L 277.627138 149.629061 
L 278.262815 148.688851 
L 278.898499 148.096078 
L 279.534177 147.890487 
L 280.169854 148.136314 
L 280.805538 148.935658 
L 281.441222 150.455814 
L 282.076899 152.993424 
L 282.712583 157.140887 
L 283.348261 164.363603 
L 283.983945 180.527668 
L 284.619622 191.545445 
L 285.2553 162.86774 
L 285.890984 150.184685 
L 286.526655 141.51677 
L 287.798011 129.113356 
L 289.069378 119.896085 
L 290.340734 112.396521 
L 291.612101 106.006143 
L 293.519146 97.848002 
L 295.426179 90.915942 
L 297.333212 84.888693 
L 299.240257 79.565955 
L 301.14729 74.811053 
L 303.054336 70.524368 
L 305.597058 65.408608 
L 308.139781 60.855362 
L 310.682504 56.761458 
L 311.318182 55.8 
L 311.318182 55.8 
" clip-path="url(#pb0b16b0f11)" style="fill: none; stroke: #ff7f0e; stroke-width: 1.5; stroke-linecap: square"/>
   </g>
   <g id="patch_3">
    <path d="M 45 320.4 
L 45 43.2 
" style="fill: none; stroke: #000000; stroke-width: 0.8; stroke-linejoin: miter; stroke-linecap: square"/>
   </g>
   <g id="patch_4">
    <path d="M 324 320.4 
L 324 43.2 
" style="fill: none; stroke: #000000; stroke-width: 0.8; stroke-linejoin: miter; stroke-linecap: square"/>
   </g>
   <g id="patch_5">
    <path d="M 45 320.4 
L 324 320.4 
" style="fill: none; stroke: #000000; stroke-width: 0.8; stroke-linejoin: miter; stroke-linecap: square"/>
   </g>
   <g id="patch_6">
    <path d="M 45 43.2 
L 324 43.2 
" style="fill: none; stroke: #000000; stroke-width: 0.8; stroke-linejoin: miter; stroke-linecap: square"/>
   </g>
   <g id="text_12">
    <!-- Prediction Error -->
    <g transform="translate(138.166875 37.2)scale(0.12 -0.12)">
     <defs>
      <path id="DejaVuSans-50" d="M 1259 4147 
L 1259 2394 
L 2053 2394 
Q 2494 2394 2734 2622 
Q 2975 2850 2975 3272 
Q 2975 3691 2734 3919 
Q 2494 4147 2053 4147 
L 1259 4147 
z
M 628 4666 
L 2053 4666 
Q 2838 4666 3239 4311 
Q 3641 3956 3641 3272 
Q 3641 2581 3239 2228 
Q 2838 1875 2053 1875 
L 1259 1875 
L 1259 0 
L 628 0 
L 628 4666 
z
" transform="scale(0.015625)"/>
      <path id="DejaVuSans-72" d="M 2631 2963 
Q 2534 3019 2420 3045 
Q 2306 3072 2169 3072 
Q 1681 3072 1420 2755 
Q 1159 2438 1159 1844 
L 1159 0 
L 581 0 
L 581 3500 
L 1159 3500 
L 1159 2956 
Q 1341 3275 1631 3429 
Q 1922 3584 2338 3584 
Q 2397 3584 2469 3576 
Q 2541 3569 2628 3553 
L 2631 2963 
z
" transform="scale(0.015625)"/>
      <path id="DejaVuSans-65" d="M 3597 1894 
L 3597 1613 
L 953 1613 
Q 991 1019 1311 708 
Q 1631 397 2203 397 
Q 2534 397 2845 478 
Q 3156 559 3463 722 
L 3463 178 
Q 3153 47 2828 -22 
Q 2503 -91 2169 -91 
Q 1331 -91 842 396 
Q 353 884 353 1716 
Q 353 2575 817 3079 
Q 1281 3584 2069 3584 
Q 2775 3584 3186 3129 
Q 3597 2675 3597 1894 
z
M 3022 2063 
Q 3016 2534 2758 2815 
Q 2500 3097 2075 3097 
Q 1594 3097 1305 2825 
Q 1016 2553 972 2059 
L 3022 2063 
z
" transform="scale(0.015625)"/>
      <path id="DejaVuSans-64" d="M 2906 2969 
L 2906 4863 
L 3481 4863 
L 3481 0 
L 2906 0 
L 2906 525 
Q 2725 213 2448 61 
Q 2172 -91 1784 -91 
Q 1150 -91 751 415 
Q 353 922 353 1747 
Q 353 2572 751 3078 
Q 1150 3584 1784 3584 
Q 2172 3584 2448 3432 
Q 2725 3281 2906 2969 
z
M 947 1747 
Q 947 1113 1208 752 
Q 1469 391 1925 391 
Q 2381 391 2643 752 
Q 2906 1113 2906 1747 
Q 2906 2381 2643 2742 
Q 2381 3103 1925 3103 
Q 1469 3103 1208 2742 
Q 947 2381 947 1747 
z
" transform="scale(0.015625)"/>
      <path id="DejaVuSans-69" d="M 603 3500 
L 1178 3500 
L 1178 0 
L 603 0 
L 603 3500 
z
M 603 4863 
L 1178 4863 
L 1178 4134 
L 603 4134 
L 603 4863 
z
" transform="scale(0.015625)"/>
      <path id="DejaVuSans-63" d="M 3122 3366 
L 3122 2828 
Q 2878 2963 2633 3030 
Q 2388 3097 2138 3097 
Q 1578 3097 1268 2742 
Q 959 2388 959 1747 
Q 959 1106 1268 751 
Q 1578 397 2138 397 
Q 2388 397 2633 464 
Q 2878 531 3122 666 
L 3122 134 
Q 2881 22 2623 -34 
Q 2366 -91 2075 -91 
Q 1284 -91 818 406 
Q 353 903 353 1747 
Q 353 2603 823 3093 
Q 1294 3584 2113 3584 
Q 2378 3584 2631 3529 
Q 2884 3475 3122 3366 
z
" transform="scale(0.015625)"/>
      <path id="DejaVuSans-74" d="M 1172 4494 
L 1172 3500 
L 2356 3500 
L 2356 3053 
L 1172 3053 
L 1172 1153 
Q 1172 725 1289 603 
Q 1406 481 1766 481 
L 2356 481 
L 2356 0 
L 1766 0 
Q 1100 0 847 248 
Q 594 497 594 1153 
L 594 3053 
L 172 3053 
L 172 3500 
L 594 3500 
L 594 4494 
L 1172 4494 
z
" transform="scale(0.015625)"/>
      <path id="DejaVuSans-6f" d="M 1959 3097 
Q 1497 3097 1228 2736 
Q 959 2375 959 1747 
Q 959 1119 1226 758 
Q 1494 397 1959 397 
Q 2419 397 2687 759 
Q 2956 1122 2956 1747 
Q 2956 2369 2687 2733 
Q 2419 3097 1959 3097 
z
M 1959 3584 
Q 2709 3584 3137 3096 
Q 3566 2609 3566 1747 
Q 3566 888 3137 398 
Q 2709 -91 1959 -91 
Q 1206 -91 779 398 
Q 353 888 353 1747 
Q 353 2609 779 3096 
Q 1206 3584 1959 3584 
z
" transform="scale(0.015625)"/>
      <path id="DejaVuSans-6e" d="M 3513 2113 
L 3513 0 
L 2938 0 
L 2938 2094 
Q 2938 2591 2744 2837 
Q 2550 3084 2163 3084 
Q 1697 3084 1428 2787 
Q 1159 2491 1159 1978 
L 1159 0 
L 581 0 
L 581 3500 
L 1159 3500 
L 1159 2956 
Q 1366 3272 1645 3428 
Q 1925 3584 2291 3584 
Q 2894 3584 3203 3211 
Q 3513 2838 3513 2113 
z
" transform="scale(0.015625)"/>
      <path id="DejaVuSans-20" transform="scale(0.015625)"/>
      <path id="DejaVuSans-45" d="M 628 4666 
L 3578 4666 
L 3578 4134 
L 1259 4134 
L 1259 2753 
L 3481 2753 
L 3481 2222 
L 1259 2222 
L 1259 531 
L 3634 531 
L 3634 0 
L 628 0 
L 628 4666 
z
" transform="scale(0.015625)"/>
     </defs>
     <use xlink:href="#DejaVuSans-50"/>
     <use xlink:href="#DejaVuSans-72" x="58.552734"/>
     <use xlink:href="#DejaVuSans-65" x="97.416016"/>
     <use xlink:href="#DejaVuSans-64" x="158.939453"/>
     <use xlink:href="#DejaVuSans-69" x="222.416016"/>
     <use xlink:href="#DejaVuSans-63" x="250.199219"/>
     <use xlink:href="#DejaVuSans-74" x="305.179688"/>
     <use xlink:href="#DejaVuSans-69" x="344.388672"/>
     <use xlink:href="#DejaVuSans-6f" x="372.171875"/>
     <use xlink:href="#DejaVuSans-6e" x="433.353516"/>
     <use xlink:href="#DejaVuSans-20" x="496.732422"/>
     <use xlink:href="#DejaVuSans-45" x="528.519531"/>
     <use xlink:href="#DejaVuSans-72" x="591.703125"/>
     <use xlink:href="#DejaVuSans-72" x="631.066406"/>
     <use xlink:href="#DejaVuSans-6f" x="669.929688"/>
     <use xlink:href="#DejaVuSans-72" x="731.111328"/>
    </g>
   </g>
   <g id="legend_1">
    <g id="patch_7">
     <path d="M 234.342187 315.4 
L 317 315.4 
Q 319 315.4 319 313.4 
L 319 285.04375 
Q 319 283.04375 317 283.04375 
L 234.342187 283.04375 
Q 232.342187 283.04375 232.342187 285.04375 
L 232.342187 313.4 
Q 232.342187 315.4 234.342187 315.4 
z
" style="fill: #ffffff; opacity: 0.8; stroke: #cccccc; stroke-linejoin: miter"/>
    </g>
    <g id="line2d_63">
     <path d="M 236.342187 291.142187 
L 246.342187 291.142187 
L 256.342188 291.142187 
" style="fill: none; stroke: #1f77b4; stroke-width: 1.5; stroke-linecap: square"/>
    </g>
    <g id="text_13">
     <!-- train error -->
     <g transform="translate(264.342188 294.642187)scale(0.1 -0.1)">
      <defs>
       <path id="DejaVuSans-61" d="M 2194 1759 
Q 1497 1759 1228 1600 
Q 959 1441 959 1056 
Q 959 750 1161 570 
Q 1363 391 1709 391 
Q 2188 391 2477 730 
Q 2766 1069 2766 1631 
L 2766 1759 
L 2194 1759 
z
M 3341 1997 
L 3341 0 
L 2766 0 
L 2766 531 
Q 2569 213 2275 61 
Q 1981 -91 1556 -91 
Q 1019 -91 701 211 
Q 384 513 384 1019 
Q 384 1609 779 1909 
Q 1175 2209 1959 2209 
L 2766 2209 
L 2766 2266 
Q 2766 2663 2505 2880 
Q 2244 3097 1772 3097 
Q 1472 3097 1187 3025 
Q 903 2953 641 2809 
L 641 3341 
Q 956 3463 1253 3523 
Q 1550 3584 1831 3584 
Q 2591 3584 2966 3190 
Q 3341 2797 3341 1997 
z
" transform="scale(0.015625)"/>
      </defs>
      <use xlink:href="#DejaVuSans-74"/>
      <use xlink:href="#DejaVuSans-72" x="39.208984"/>
      <use xlink:href="#DejaVuSans-61" x="80.322266"/>
      <use xlink:href="#DejaVuSans-69" x="141.601562"/>
      <use xlink:href="#DejaVuSans-6e" x="169.384766"/>
      <use xlink:href="#DejaVuSans-20" x="232.763672"/>
      <use xlink:href="#DejaVuSans-65" x="264.550781"/>
      <use xlink:href="#DejaVuSans-72" x="326.074219"/>
      <use xlink:href="#DejaVuSans-72" x="365.4375"/>
      <use xlink:href="#DejaVuSans-6f" x="404.300781"/>
      <use xlink:href="#DejaVuSans-72" x="465.482422"/>
     </g>
    </g>
    <g id="line2d_64">
     <path d="M 236.342187 305.820312 
L 246.342187 305.820312 
L 256.342188 305.820312 
" style="fill: none; stroke: #ff7f0e; stroke-width: 1.5; stroke-linecap: square"/>
    </g>
    <g id="text_14">
     <!-- test error -->
     <g transform="translate(264.342188 309.320312)scale(0.1 -0.1)">
      <defs>
       <path id="DejaVuSans-73" d="M 2834 3397 
L 2834 2853 
Q 2591 2978 2328 3040 
Q 2066 3103 1784 3103 
Q 1356 3103 1142 2972 
Q 928 2841 928 2578 
Q 928 2378 1081 2264 
Q 1234 2150 1697 2047 
L 1894 2003 
Q 2506 1872 2764 1633 
Q 3022 1394 3022 966 
Q 3022 478 2636 193 
Q 2250 -91 1575 -91 
Q 1294 -91 989 -36 
Q 684 19 347 128 
L 347 722 
Q 666 556 975 473 
Q 1284 391 1588 391 
Q 1994 391 2212 530 
Q 2431 669 2431 922 
Q 2431 1156 2273 1281 
Q 2116 1406 1581 1522 
L 1381 1569 
Q 847 1681 609 1914 
Q 372 2147 372 2553 
Q 372 3047 722 3315 
Q 1072 3584 1716 3584 
Q 2034 3584 2315 3537 
Q 2597 3491 2834 3397 
z
" transform="scale(0.015625)"/>
      </defs>
      <use xlink:href="#DejaVuSans-74"/>
      <use xlink:href="#DejaVuSans-65" x="39.208984"/>
      <use xlink:href="#DejaVuSans-73" x="100.732422"/>
      <use xlink:href="#DejaVuSans-74" x="152.832031"/>
      <use xlink:href="#DejaVuSans-20" x="192.041016"/>
      <use xlink:href="#DejaVuSans-65" x="223.828125"/>
      <use xlink:href="#DejaVuSans-72" x="285.351562"/>
      <use xlink:href="#DejaVuSans-72" x="324.714844"/>
      <use xlink:href="#DejaVuSans-6f" x="363.578125"/>
      <use xlink:href="#DejaVuSans-72" x="424.759766"/>
     </g>
    </g>
   </g>
  </g>
 </g>
 <defs>
  <clipPath id="pb0b16b0f11">
   <rect x="45" y="43.2" width="279" height="277.2"/>
  </clipPath>
 </defs>
</svg>
