<?xml version="1.0" encoding="utf-8" standalone="no"?>
<!DOCTYPE svg PUBLIC "-//W3C//DTD SVG 1.1//EN"
  "http://www.w3.org/Graphics/SVG/1.1/DTD/svg11.dtd">
<svg xmlns:xlink="http://www.w3.org/1999/xlink" width="360pt" height="360pt" viewBox="0 0 360 360" xmlns="http://www.w3.org/2000/svg" version="1.1">
 <metadata>
  <rdf:RDF xmlns:dc="http://purl.org/dc/elements/1.1/" xmlns:cc="http://creativecommons.org/ns#" xmlns:rdf="http://www.w3.org/1999/02/22-rdf-syntax-ns#">
   <cc:Work>
    <dc:type rdf:resource="http://purl.org/dc/dcmitype/StillImage"/>
    <dc:date>2022-11-16T09:47:44.952793</dc:date>
    <dc:format>image/svg+xml</dc:format>
    <dc:creator>
     <cc:Agent>
      <dc:title>Matplotlib v3.5.3, https://matplotlib.org/</dc:title>
     </cc:Agent>
    </dc:creator>
   </cc:Work>
  </rdf:RDF>
 </metadata>
 <defs>
  <style type="text/css">*{stroke-linejoin: round; stroke-linecap: butt}</style>
 </defs>
 <g id="figure_1">
  <g id="patch_1">
   <path d="M 0 360 
L 360 360 
L 360 0 
L 0 0 
z
" style="fill: #ffffff"/>
  </g>
  <g id="axes_1">
   <g id="patch_2">
    <path d="M 45 320.4 
L 324 320.4 
L 324 43.2 
L 45 43.2 
z
" style="fill: #ffffff"/>
   </g>
   <g id="matplotlib.axis_1">
    <g id="xtick_1">
     <g id="line2d_1">
      <defs>
       <path id="m179ab06ee2" d="M 0 0 
L 0 3.5 
" style="stroke: #000000; stroke-width: 0.8"/>
      </defs>
      <g>
       <use xlink:href="#m179ab06ee2" x="83.045455" y="320.4" style="stroke: #000000; stroke-width: 0.8"/>
      </g>
     </g>
     <g id="text_1">
      <!-- −2 -->
      <g transform="translate(75.674361 334.998438)scale(0.1 -0.1)">
       <defs>
        <path id="DejaVuSans-2212" d="M 678 2272 
L 4684 2272 
L 4684 1741 
L 678 1741 
L 678 2272 
z
" transform="scale(0.015625)"/>
        <path id="DejaVuSans-32" d="M 1228 531 
L 3431 531 
L 3431 0 
L 469 0 
L 469 531 
Q 828 903 1448 1529 
Q 2069 2156 2228 2338 
Q 2531 2678 2651 2914 
Q 2772 3150 2772 3378 
Q 2772 3750 2511 3984 
Q 2250 4219 1831 4219 
Q 1534 4219 1204 4116 
Q 875 4013 500 3803 
L 500 4441 
Q 881 4594 1212 4672 
Q 1544 4750 1819 4750 
Q 2544 4750 2975 4387 
Q 3406 4025 3406 3419 
Q 3406 3131 3298 2873 
Q 3191 2616 2906 2266 
Q 2828 2175 2409 1742 
Q 1991 1309 1228 531 
z
" transform="scale(0.015625)"/>
       </defs>
       <use xlink:href="#DejaVuSans-2212"/>
       <use xlink:href="#DejaVuSans-32" x="83.789062"/>
      </g>
     </g>
    </g>
    <g id="xtick_2">
     <g id="line2d_2">
      <g>
       <use xlink:href="#m179ab06ee2" x="133.772727" y="320.4" style="stroke: #000000; stroke-width: 0.8"/>
      </g>
     </g>
     <g id="text_2">
      <!-- −1 -->
      <g transform="translate(126.401634 334.998438)scale(0.1 -0.1)">
       <defs>
        <path id="DejaVuSans-31" d="M 794 531 
L 1825 531 
L 1825 4091 
L 703 3866 
L 703 4441 
L 1819 4666 
L 2450 4666 
L 2450 531 
L 3481 531 
L 3481 0 
L 794 0 
L 794 531 
z
" transform="scale(0.015625)"/>
       </defs>
       <use xlink:href="#DejaVuSans-2212"/>
       <use xlink:href="#DejaVuSans-31" x="83.789062"/>
      </g>
     </g>
    </g>
    <g id="xtick_3">
     <g id="line2d_3">
      <g>
       <use xlink:href="#m179ab06ee2" x="184.5" y="320.4" style="stroke: #000000; stroke-width: 0.8"/>
      </g>
     </g>
     <g id="text_3">
      <!-- 0 -->
      <g transform="translate(181.31875 334.998438)scale(0.1 -0.1)">
       <defs>
        <path id="DejaVuSans-30" d="M 2034 4250 
Q 1547 4250 1301 3770 
Q 1056 3291 1056 2328 
Q 1056 1369 1301 889 
Q 1547 409 2034 409 
Q 2525 409 2770 889 
Q 3016 1369 3016 2328 
Q 3016 3291 2770 3770 
Q 2525 4250 2034 4250 
z
M 2034 4750 
Q 2819 4750 3233 4129 
Q 3647 3509 3647 2328 
Q 3647 1150 3233 529 
Q 2819 -91 2034 -91 
Q 1250 -91 836 529 
Q 422 1150 422 2328 
Q 422 3509 836 4129 
Q 1250 4750 2034 4750 
z
" transform="scale(0.015625)"/>
       </defs>
       <use xlink:href="#DejaVuSans-30"/>
      </g>
     </g>
    </g>
    <g id="xtick_4">
     <g id="line2d_4">
      <g>
       <use xlink:href="#m179ab06ee2" x="235.227273" y="320.4" style="stroke: #000000; stroke-width: 0.8"/>
      </g>
     </g>
     <g id="text_4">
      <!-- 1 -->
      <g transform="translate(232.046023 334.998438)scale(0.1 -0.1)">
       <use xlink:href="#DejaVuSans-31"/>
      </g>
     </g>
    </g>
    <g id="xtick_5">
     <g id="line2d_5">
      <g>
       <use xlink:href="#m179ab06ee2" x="285.954545" y="320.4" style="stroke: #000000; stroke-width: 0.8"/>
      </g>
     </g>
     <g id="text_5">
      <!-- 2 -->
      <g transform="translate(282.773295 334.998438)scale(0.1 -0.1)">
       <use xlink:href="#DejaVuSans-32"/>
      </g>
     </g>
    </g>
   </g>
   <g id="matplotlib.axis_2">
    <g id="ytick_1">
     <g id="line2d_6">
      <defs>
       <path id="m47a7ef6cb6" d="M 0 0 
L -3.5 0 
" style="stroke: #000000; stroke-width: 0.8"/>
      </defs>
      <g>
       <use xlink:href="#m47a7ef6cb6" x="45" y="266.633585" style="stroke: #000000; stroke-width: 0.8"/>
      </g>
     </g>
     <g id="text_6">
      <!-- −0.10 -->
      <g transform="translate(7.354687 270.432804)scale(0.1 -0.1)">
       <defs>
        <path id="DejaVuSans-2e" d="M 684 794 
L 1344 794 
L 1344 0 
L 684 0 
L 684 794 
z
" transform="scale(0.015625)"/>
       </defs>
       <use xlink:href="#DejaVuSans-2212"/>
       <use xlink:href="#DejaVuSans-30" x="83.789062"/>
       <use xlink:href="#DejaVuSans-2e" x="147.412109"/>
       <use xlink:href="#DejaVuSans-31" x="179.199219"/>
       <use xlink:href="#DejaVuSans-30" x="242.822266"/>
      </g>
     </g>
    </g>
    <g id="ytick_2">
     <g id="line2d_7">
      <g>
       <use xlink:href="#m47a7ef6cb6" x="45" y="212.012846" style="stroke: #000000; stroke-width: 0.8"/>
      </g>
     </g>
     <g id="text_7">
      <!-- −0.05 -->
      <g transform="translate(7.354687 215.812065)scale(0.1 -0.1)">
       <defs>
        <path id="DejaVuSans-35" d="M 691 4666 
L 3169 4666 
L 3169 4134 
L 1269 4134 
L 1269 2991 
Q 1406 3038 1543 3061 
Q 1681 3084 1819 3084 
Q 2600 3084 3056 2656 
Q 3513 2228 3513 1497 
Q 3513 744 3044 326 
Q 2575 -91 1722 -91 
Q 1428 -91 1123 -41 
Q 819 9 494 109 
L 494 744 
Q 775 591 1075 516 
Q 1375 441 1709 441 
Q 2250 441 2565 725 
Q 2881 1009 2881 1497 
Q 2881 1984 2565 2268 
Q 2250 2553 1709 2553 
Q 1456 2553 1204 2497 
Q 953 2441 691 2322 
L 691 4666 
z
" transform="scale(0.015625)"/>
       </defs>
       <use xlink:href="#DejaVuSans-2212"/>
       <use xlink:href="#DejaVuSans-30" x="83.789062"/>
       <use xlink:href="#DejaVuSans-2e" x="147.412109"/>
       <use xlink:href="#DejaVuSans-30" x="179.199219"/>
       <use xlink:href="#DejaVuSans-35" x="242.822266"/>
      </g>
     </g>
    </g>
    <g id="ytick_3">
     <g id="line2d_8">
      <g>
       <use xlink:href="#m47a7ef6cb6" x="45" y="157.392107" style="stroke: #000000; stroke-width: 0.8"/>
      </g>
     </g>
     <g id="text_8">
      <!-- 0.00 -->
      <g transform="translate(15.734375 161.191326)scale(0.1 -0.1)">
       <use xlink:href="#DejaVuSans-30"/>
       <use xlink:href="#DejaVuSans-2e" x="63.623047"/>
       <use xlink:href="#DejaVuSans-30" x="95.410156"/>
       <use xlink:href="#DejaVuSans-30" x="159.033203"/>
      </g>
     </g>
    </g>
    <g id="ytick_4">
     <g id="line2d_9">
      <g>
       <use xlink:href="#m47a7ef6cb6" x="45" y="102.771368" style="stroke: #000000; stroke-width: 0.8"/>
      </g>
     </g>
     <g id="text_9">
      <!-- 0.05 -->
      <g transform="translate(15.734375 106.570587)scale(0.1 -0.1)">
       <use xlink:href="#DejaVuSans-30"/>
       <use xlink:href="#DejaVuSans-2e" x="63.623047"/>
       <use xlink:href="#DejaVuSans-30" x="95.410156"/>
       <use xlink:href="#DejaVuSans-35" x="159.033203"/>
      </g>
     </g>
    </g>
    <g id="ytick_5">
     <g id="line2d_10">
      <g>
       <use xlink:href="#m47a7ef6cb6" x="45" y="48.15063" style="stroke: #000000; stroke-width: 0.8"/>
      </g>
     </g>
     <g id="text_10">
      <!-- 0.10 -->
      <g transform="translate(15.734375 51.949848)scale(0.1 -0.1)">
       <use xlink:href="#DejaVuSans-30"/>
       <use xlink:href="#DejaVuSans-2e" x="63.623047"/>
       <use xlink:href="#DejaVuSans-31" x="95.410156"/>
       <use xlink:href="#DejaVuSans-30" x="159.033203"/>
      </g>
     </g>
    </g>
   </g>
   <g id="line2d_11">
    <path d="M 57.681818 271.780533 
L 62.131574 260.817693 
L 69.759743 241.276554 
L 78.659254 217.893956 
L 89.465823 189.068485 
L 92.644224 181.480712 
L 95.186941 176.027447 
L 97.729663 171.199344 
L 99.636709 168.004692 
L 101.543748 165.170922 
L 103.450781 162.679934 
L 105.35782 160.506592 
L 107.264859 158.620347 
L 109.171904 156.986584 
L 111.714627 155.138364 
L 114.257344 153.599406 
L 116.800067 152.299386 
L 119.978467 150.921855 
L 123.792545 149.532396 
L 127.606623 148.359268 
L 131.420714 147.391585 
L 134.599111 146.766448 
L 137.777512 146.351496 
L 140.955909 146.181681 
L 144.13431 146.285497 
L 147.31271 146.663934 
L 150.491111 147.300218 
L 153.669511 148.162575 
L 157.483596 149.441394 
L 161.933355 151.186474 
L 168.925829 154.229569 
L 176.554 157.490298 
L 181.639433 159.420403 
L 186.089199 160.895473 
L 190.538964 162.131109 
L 194.353045 162.954528 
L 198.167131 163.519553 
L 201.345524 163.774483 
L 205.159609 163.826469 
L 208.973691 163.629437 
L 213.42345 163.149789 
L 218.508889 162.371402 
L 225.501368 161.066798 
L 244.571771 157.364552 
L 248.385855 156.890477 
L 251.56425 156.681178 
L 254.74265 156.701076 
L 257.285373 156.920273 
L 259.82809 157.348247 
L 262.370813 158.009274 
L 264.913529 158.91596 
L 267.456258 160.073721 
L 269.998975 161.479016 
L 272.541698 163.110695 
L 275.720098 165.421321 
L 280.169854 168.990763 
L 286.526655 174.130835 
L 289.705056 176.40406 
L 292.247779 177.973023 
L 294.790502 179.286326 
L 297.333212 180.334593 
L 299.875935 181.125534 
L 302.418658 181.700612 
L 305.597058 182.16755 
L 309.411149 182.475508 
L 311.318182 182.56302 
L 311.318182 182.56302 
" clip-path="url(#p24df002dc8)" style="fill: none; stroke: #1f77b4; stroke-width: 1.5; stroke-linecap: square"/>
   </g>
   <g id="line2d_12">
    <path d="M 57.681818 165.221294 
L 60.224541 167.109258 
L 62.131574 168.285355 
L 64.038619 169.25632 
L 65.945664 170.023924 
L 67.852697 170.589678 
L 69.759743 170.953477 
L 71.666776 171.12423 
L 73.573821 171.103081 
L 75.480866 170.904252 
L 78.023577 170.388765 
L 80.566299 169.635642 
L 83.7447 168.46103 
L 97.729663 162.988856 
L 102.179425 161.656071 
L 106.629181 160.562329 
L 111.078949 159.693826 
L 115.528705 159.044884 
L 119.978467 158.628629 
L 123.792545 158.47215 
L 127.606623 158.515333 
L 131.420714 158.757188 
L 135.87047 159.251057 
L 147.31271 160.663749 
L 150.491111 160.794756 
L 153.669511 160.7049 
L 156.847915 160.364854 
L 160.026315 159.769982 
L 163.204716 158.944766 
L 167.654469 157.528819 
L 176.554 154.623763 
L 191.810325 150.025731 
L 202.616884 146.360442 
L 205.79529 145.542845 
L 208.973691 144.932371 
L 212.152088 144.532447 
L 215.966169 144.295722 
L 220.415928 144.266109 
L 228.044088 144.490671 
L 236.307931 144.657933 
L 241.39337 144.542657 
L 245.843132 144.214956 
L 249.657211 143.711242 
L 253.471295 142.958588 
L 257.285373 141.93074 
L 260.463774 140.85424 
L 264.277852 139.312364 
L 268.091936 137.525768 
L 272.541698 135.179825 
L 276.991454 132.60333 
L 282.076899 129.41894 
L 287.798011 125.561333 
L 294.154824 120.974461 
L 306.868426 111.622569 
L 311.318182 108.678003 
L 311.318182 108.678003 
" clip-path="url(#p24df002dc8)" style="fill: none; stroke: #ff7f0e; stroke-width: 1.5; stroke-linecap: square"/>
   </g>
   <g id="line2d_13">
    <path d="M 57.681818 83.833176 
L 59.588863 84.660059 
L 61.495896 85.761562 
L 63.402942 87.17915 
L 65.309987 88.946057 
L 67.21702 91.08593 
L 69.124053 93.598614 
L 71.031098 96.463274 
L 73.573821 100.740937 
L 77.387899 107.737927 
L 81.837655 115.861398 
L 85.016061 121.14399 
L 87.558784 124.962112 
L 90.101501 128.437426 
L 93.279902 132.37731 
L 96.458302 135.948835 
L 99.636709 139.206517 
L 102.815109 142.151812 
L 105.993504 144.769875 
L 108.536226 146.608718 
L 111.078949 148.208414 
L 113.621666 149.565682 
L 116.164389 150.683594 
L 118.707106 151.572985 
L 121.249829 152.247243 
L 123.792545 152.7271 
L 126.970946 153.086107 
L 130.149352 153.222948 
L 133.963431 153.172473 
L 149.219749 152.648183 
L 153.669511 152.868421 
L 159.390635 153.410109 
L 167.654469 154.225767 
L 172.739914 154.467909 
L 184.817839 154.83176 
L 188.631919 155.29194 
L 192.446005 156.007831 
L 197.53145 157.249666 
L 205.159609 159.148361 
L 208.973691 159.871115 
L 212.787769 160.366417 
L 216.60185 160.629525 
L 220.415928 160.677709 
L 224.230009 160.523912 
L 228.044088 160.15842 
L 231.858169 159.547816 
L 235.036569 158.807456 
L 238.214976 157.816488 
L 240.757693 156.816352 
L 243.300416 155.613585 
L 245.843132 154.196518 
L 248.385855 152.557598 
L 250.928572 150.692657 
L 253.471295 148.598936 
L 256.649689 145.658329 
L 259.82809 142.348297 
L 263.00649 138.650504 
L 265.549213 135.387457 
L 268.091936 131.830204 
L 270.634659 127.955095 
L 273.813059 122.630728 
L 276.991454 116.759515 
L 280.169854 110.374483 
L 283.983945 102.163578 
L 293.519146 81.176357 
L 296.697535 74.889672 
L 299.240257 70.353848 
L 301.78298 66.324969 
L 303.690025 63.653148 
L 305.597058 61.276159 
L 307.504104 59.18921 
L 309.411149 57.366879 
L 311.318182 55.8 
L 311.318182 55.8 
" clip-path="url(#p24df002dc8)" style="fill: none; stroke: #2ca02c; stroke-width: 1.5; stroke-linecap: square"/>
   </g>
   <g id="line2d_14">
    <path d="M 57.681818 73.318208 
L 60.224541 77.681508 
L 62.767264 82.533833 
L 65.945664 89.146292 
L 70.39542 99.059459 
L 79.294932 119.126737 
L 83.109022 127.0575 
L 85.651745 131.913288 
L 88.194462 136.328913 
L 90.737185 140.25507 
L 92.644224 142.855683 
L 94.551263 145.161178 
L 96.458302 147.174576 
L 98.365347 148.908926 
L 100.272386 150.378761 
L 102.179425 151.609136 
L 104.086458 152.621408 
L 106.629181 153.681188 
L 109.171904 154.464367 
L 111.714627 155.026891 
L 114.893027 155.497111 
L 118.707106 155.81679 
L 123.156868 155.958007 
L 128.877991 155.89628 
L 135.87047 155.578164 
L 147.948391 154.754562 
L 154.305195 154.42009 
L 158.119276 154.441291 
L 161.297675 154.698253 
L 163.840395 155.103203 
L 166.383109 155.695706 
L 169.561514 156.662425 
L 179.732393 160.050853 
L 182.275114 160.598688 
L 184.817839 160.934671 
L 187.360559 161.050325 
L 189.903285 160.954999 
L 193.081685 160.577227 
L 196.895771 159.836723 
L 203.252564 158.284846 
L 208.973691 156.980359 
L 212.787769 156.313003 
L 216.60185 155.855441 
L 220.415928 155.624941 
L 224.230009 155.636791 
L 227.408407 155.849138 
L 230.586807 156.268101 
L 233.765208 156.918606 
L 236.943615 157.825968 
L 240.122015 159.00842 
L 243.300416 160.473619 
L 246.47881 162.219949 
L 249.657211 164.222877 
L 253.471295 166.928505 
L 257.921051 170.422416 
L 263.00649 174.741856 
L 268.72762 179.892554 
L 275.720098 186.499179 
L 282.712583 193.440953 
L 287.798011 198.785845 
L 292.883456 204.45328 
L 305.597058 218.922533 
L 308.775471 222.107548 
L 311.318182 224.410361 
L 311.318182 224.410361 
" clip-path="url(#p24df002dc8)" style="fill: none; stroke: #d62728; stroke-width: 1.5; stroke-linecap: square"/>
   </g>
   <g id="line2d_15">
    <path d="M 57.681818 97.082889 
L 61.495896 95.868141 
L 66.581342 94.213854 
L 68.488375 93.789005 
L 70.39542 93.613929 
L 71.666776 93.688731 
L 72.938143 93.958872 
L 74.209498 94.457845 
L 75.480866 95.213781 
L 76.752221 96.251526 
L 78.023577 97.583061 
L 79.294932 99.214923 
L 80.566299 101.131302 
L 82.473333 104.500639 
L 84.380384 108.346265 
L 87.558784 115.37253 
L 92.00854 125.180553 
L 94.551263 130.201077 
L 96.458302 133.562574 
L 98.365347 136.555428 
L 100.272386 139.195213 
L 102.179425 141.51011 
L 104.086458 143.541532 
L 106.629181 145.88586 
L 109.171904 147.911916 
L 112.350305 150.145656 
L 117.435744 153.374323 
L 129.513669 160.731675 
L 132.692069 162.44024 
L 135.234792 163.596074 
L 137.777512 164.495102 
L 139.684551 164.972198 
L 141.59159 165.268488 
L 143.498632 165.38491 
L 146.041349 165.278698 
L 148.584072 164.915732 
L 151.762469 164.179746 
L 154.940876 163.200187 
L 158.119276 162.001951 
L 161.297675 160.546181 
L 163.840395 159.157659 
L 167.018788 157.132932 
L 171.468555 153.929164 
L 175.28264 151.231923 
L 177.82536 149.702132 
L 179.732393 148.785784 
L 181.639433 148.110276 
L 183.546474 147.69983 
L 185.453519 147.562519 
L 187.360559 147.693436 
L 189.2676 148.074373 
L 191.174644 148.674063 
L 193.717365 149.747438 
L 196.895771 151.370861 
L 203.252564 154.698813 
L 205.79529 155.783165 
L 208.33801 156.625207 
L 210.88073 157.197888 
L 213.42345 157.496939 
L 215.966169 157.540747 
L 218.508889 157.358743 
L 221.68729 156.870735 
L 224.86569 156.161263 
L 229.315449 154.916251 
L 235.672253 152.852273 
L 250.928572 147.730277 
L 255.378334 146.489588 
L 259.192412 145.626137 
L 263.00649 144.983654 
L 266.820575 144.577349 
L 270.634659 144.407326 
L 275.084415 144.489212 
L 279.534177 144.846865 
L 283.983945 145.454864 
L 289.069378 146.387074 
L 303.054336 149.149532 
L 308.139781 149.792744 
L 311.318182 150.050279 
L 311.318182 150.050279 
" clip-path="url(#p24df002dc8)" style="fill: none; stroke: #9467bd; stroke-width: 1.5; stroke-linecap: square"/>
   </g>
   <g id="line2d_16">
    <path d="M 57.681818 108.768848 
L 62.767264 116.638457 
L 65.945664 121.104792 
L 68.488375 124.297829 
L 71.031098 127.093468 
L 73.573821 129.506295 
L 76.116544 131.597673 
L 79.930622 134.367032 
L 86.923101 139.349114 
L 97.09398 146.83651 
L 100.272386 148.809798 
L 103.450781 150.47854 
L 106.629181 151.841355 
L 109.807588 152.935461 
L 113.621666 153.982947 
L 118.707106 155.097942 
L 127.606623 156.761449 
L 138.413193 158.574768 
L 144.769991 159.396181 
L 150.491111 159.897499 
L 156.847915 160.218741 
L 174.64696 160.960456 
L 182.275114 161.283156 
L 186.724879 161.260835 
L 191.174644 161.010371 
L 195.62441 160.53519 
L 201.345524 159.695675 
L 212.152088 158.068918 
L 217.237528 157.54369 
L 221.68729 157.303345 
L 225.501368 157.310299 
L 228.679768 157.507071 
L 231.858169 157.913741 
L 235.036569 158.563672 
L 238.214976 159.483901 
L 241.39337 160.680262 
L 244.571771 162.143845 
L 247.750171 163.838033 
L 252.199933 166.487716 
L 268.091936 176.263312 
L 273.813059 179.74993 
L 277.627138 182.355075 
L 280.805538 184.826035 
L 283.983945 187.620998 
L 287.162333 190.752047 
L 290.976411 194.870105 
L 303.690025 209.035359 
L 306.868426 212.077855 
L 310.046826 214.775304 
L 311.318182 215.750853 
L 311.318182 215.750853 
" clip-path="url(#p24df002dc8)" style="fill: none; stroke: #8c564b; stroke-width: 1.5; stroke-linecap: square"/>
   </g>
   <g id="line2d_17">
    <path d="M 57.681818 186.720042 
L 64.038619 186.713895 
L 68.488375 186.481781 
L 72.302453 186.06063 
L 76.116544 185.375797 
L 79.294932 184.581445 
L 83.109022 183.347163 
L 86.923101 181.838729 
L 91.372862 179.825722 
L 104.722142 173.629986 
L 109.171904 171.897459 
L 113.621666 170.387776 
L 118.707106 168.892 
L 124.428223 167.445866 
L 129.513669 166.382441 
L 133.963431 165.688232 
L 137.777512 165.318651 
L 141.59159 165.181497 
L 145.405671 165.257549 
L 150.491111 165.600095 
L 165.747428 166.844925 
L 168.925829 166.80966 
L 171.468555 166.588693 
L 174.011274 166.152071 
L 176.554 165.470026 
L 179.09672 164.531747 
L 181.639433 163.343331 
L 184.817839 161.552072 
L 188.631919 159.088027 
L 195.62441 154.461059 
L 198.802811 152.680036 
L 201.345524 151.528292 
L 203.888245 150.661989 
L 206.430969 150.094217 
L 208.973691 149.813502 
L 211.51641 149.785868 
L 214.05913 149.963496 
L 217.873208 150.489505 
L 228.044088 152.097952 
L 231.222488 152.34658 
L 234.400889 152.387418 
L 237.579292 152.205779 
L 240.757693 151.809423 
L 244.571771 151.09391 
L 249.657211 149.878745 
L 257.921051 147.877692 
L 263.00649 146.908915 
L 269.998975 145.84773 
L 282.712583 144.153021 
L 285.2553 144.107181 
L 287.162333 144.249909 
L 289.069378 144.584746 
L 290.976411 145.138363 
L 292.883456 145.939096 
L 294.790502 146.99028 
L 296.697535 148.280872 
L 298.60458 149.80337 
L 301.14729 152.121184 
L 304.325703 155.352664 
L 311.318182 162.747834 
L 311.318182 162.747834 
" clip-path="url(#p24df002dc8)" style="fill: none; stroke: #e377c2; stroke-width: 1.5; stroke-linecap: square"/>
   </g>
   <g id="line2d_18">
    <path d="M 57.681818 307.8 
L 60.860219 304.067723 
L 63.402942 300.7654 
L 65.945664 297.047396 
L 67.852697 293.879831 
L 69.759743 290.288407 
L 71.666776 286.185142 
L 73.573821 281.475337 
L 75.480866 276.100806 
L 77.387899 270.03389 
L 79.294932 263.303837 
L 81.837655 253.472244 
L 86.287423 235.056309 
L 89.465823 222.195373 
L 92.00854 212.746071 
L 93.915579 206.343614 
L 95.822624 200.603956 
L 97.729663 195.547176 
L 99.636709 191.159654 
L 101.543748 187.40701 
L 103.450781 184.236502 
L 105.35782 181.588617 
L 107.264859 179.397643 
L 109.171904 177.598753 
L 111.078949 176.134076 
L 112.985988 174.945321 
L 114.893027 173.986076 
L 117.435744 172.990003 
L 119.978467 172.243496 
L 123.156868 171.565331 
L 126.970946 171.003119 
L 132.056391 170.509928 
L 139.684551 170.020278 
L 153.033831 169.155108 
L 158.119276 168.563518 
L 162.569035 167.822897 
L 168.29015 166.611014 
L 178.46104 164.397015 
L 185.453519 163.13325 
L 191.810325 162.175816 
L 196.895771 161.637878 
L 200.709844 161.441888 
L 204.523924 161.454611 
L 208.33801 161.670161 
L 212.787769 162.135928 
L 218.508889 162.962368 
L 231.858169 165.209521 
L 246.47881 167.745699 
L 251.56425 168.872414 
L 255.378334 169.919848 
L 259.192412 171.211898 
L 262.370813 172.521659 
L 265.549213 174.087496 
L 268.72762 175.940976 
L 271.906014 178.095748 
L 275.084415 180.530557 
L 280.169854 184.799157 
L 284.619622 188.473405 
L 287.162333 190.310321 
L 289.705056 191.810316 
L 291.612101 192.661681 
L 293.519146 193.239468 
L 295.426179 193.531382 
L 297.333212 193.54055 
L 299.240257 193.274681 
L 301.14729 192.760028 
L 303.054336 192.032429 
L 305.597058 190.797887 
L 308.775471 188.986391 
L 311.318182 187.426179 
L 311.318182 187.426179 
" clip-path="url(#p24df002dc8)" style="fill: none; stroke: #7f7f7f; stroke-width: 1.5; stroke-linecap: square"/>
   </g>
   <g id="line2d_19">
    <path d="M 57.681818 90.561171 
L 62.767264 93.795777 
L 65.945664 96.026391 
L 68.488375 98.025517 
L 71.031098 100.314837 
L 72.938143 102.282396 
L 74.845188 104.4953 
L 77.387899 107.868153 
L 79.930622 111.690781 
L 83.109022 116.952744 
L 90.737185 129.8534 
L 93.279902 133.647794 
L 95.822624 137.008875 
L 97.729663 139.225999 
L 99.636709 141.179961 
L 101.543748 142.879098 
L 103.450781 144.34177 
L 105.35782 145.584777 
L 107.900543 146.935898 
L 110.443266 147.985936 
L 112.985988 148.779273 
L 115.528705 149.357633 
L 118.707106 149.833687 
L 121.885506 150.091691 
L 125.699584 150.190246 
L 132.056391 150.085283 
L 138.413193 150.052779 
L 142.227271 150.233637 
L 146.67703 150.682187 
L 160.661995 152.409296 
L 164.476068 152.485973 
L 168.29015 152.332515 
L 178.46104 151.749467 
L 181.639433 151.856096 
L 184.817839 152.20393 
L 187.996239 152.799258 
L 191.174644 153.611321 
L 195.62441 154.995376 
L 203.888245 157.624391 
L 207.702329 158.589041 
L 211.51641 159.319712 
L 215.966169 159.903047 
L 221.68729 160.384232 
L 229.95113 161.06297 
L 234.400889 161.643882 
L 238.850654 162.465399 
L 243.300416 163.527158 
L 251.56425 165.815749 
L 256.014012 166.891104 
L 259.192412 167.43326 
L 261.735129 167.676731 
L 264.277852 167.718299 
L 266.820575 167.536712 
L 269.363297 167.113842 
L 271.906014 166.440001 
L 274.448737 165.504457 
L 276.991454 164.29721 
L 279.534177 162.807633 
L 282.076899 161.029476 
L 284.619622 158.956903 
L 287.162333 156.591165 
L 289.705056 153.951016 
L 292.883456 150.310522 
L 297.333212 144.76102 
L 305.597058 134.348566 
L 308.775471 130.724325 
L 311.318182 128.084801 
L 311.318182 128.084801 
" clip-path="url(#p24df002dc8)" style="fill: none; stroke: #bcbd22; stroke-width: 1.5; stroke-linecap: square"/>
   </g>
   <g id="line2d_20">
    <path d="M 57.681818 188.834912 
L 68.488375 175.833462 
L 71.666776 172.321267 
L 74.845188 169.166047 
L 77.387899 166.98346 
L 79.930622 165.146987 
L 81.837655 164.002561 
L 84.380384 162.77604 
L 86.923101 161.84331 
L 90.101501 160.997831 
L 93.915579 160.273566 
L 111.714627 157.257923 
L 121.249829 155.232023 
L 129.513669 153.28379 
L 140.320232 150.479504 
L 149.219749 148.23821 
L 153.033831 147.479513 
L 156.212234 147.080657 
L 158.754957 147.001324 
L 160.661995 147.123423 
L 162.569035 147.426121 
L 164.476068 147.923636 
L 166.383109 148.61636 
L 168.925829 149.823503 
L 171.468555 151.292869 
L 175.91832 154.207249 
L 180.368073 157.086936 
L 183.546474 158.886503 
L 186.089199 160.106564 
L 188.631919 161.110437 
L 191.174644 161.894606 
L 193.717365 162.468824 
L 196.26009 162.84829 
L 199.438491 163.085054 
L 203.252564 163.09891 
L 208.973691 162.817609 
L 217.237528 162.420393 
L 222.958648 162.401797 
L 237.579292 162.541556 
L 241.39337 162.27579 
L 245.207455 161.780723 
L 249.021533 161.04229 
L 252.835611 160.080493 
L 257.285373 158.733018 
L 265.549213 155.919408 
L 271.270337 154.083638 
L 275.084415 153.090378 
L 278.262815 152.483942 
L 281.441222 152.133894 
L 283.983945 152.059926 
L 287.162333 152.228074 
L 290.340734 152.666258 
L 293.519146 153.327806 
L 298.60458 154.6957 
L 311.318182 158.409745 
L 311.318182 158.409745 
" clip-path="url(#p24df002dc8)" style="fill: none; stroke: #17becf; stroke-width: 1.5; stroke-linecap: square"/>
   </g>
   <g id="patch_3">
    <path d="M 45 320.4 
L 45 43.2 
" style="fill: none; stroke: #000000; stroke-width: 0.8; stroke-linejoin: miter; stroke-linecap: square"/>
   </g>
   <g id="patch_4">
    <path d="M 324 320.4 
L 324 43.2 
" style="fill: none; stroke: #000000; stroke-width: 0.8; stroke-linejoin: miter; stroke-linecap: square"/>
   </g>
   <g id="patch_5">
    <path d="M 45 320.4 
L 324 320.4 
" style="fill: none; stroke: #000000; stroke-width: 0.8; stroke-linejoin: miter; stroke-linecap: square"/>
   </g>
   <g id="patch_6">
    <path d="M 45 43.2 
L 324 43.2 
" style="fill: none; stroke: #000000; stroke-width: 0.8; stroke-linejoin: miter; stroke-linecap: square"/>
   </g>
   <g id="text_11">
    <!-- Deviation from average for single draw -->
    <g transform="translate(66.87 37.2)scale(0.12 -0.12)">
     <defs>
      <path id="DejaVuSans-44" d="M 1259 4147 
L 1259 519 
L 2022 519 
Q 2988 519 3436 956 
Q 3884 1394 3884 2338 
Q 3884 3275 3436 3711 
Q 2988 4147 2022 4147 
L 1259 4147 
z
M 628 4666 
L 1925 4666 
Q 3281 4666 3915 4102 
Q 4550 3538 4550 2338 
Q 4550 1131 3912 565 
Q 3275 0 1925 0 
L 628 0 
L 628 4666 
z
" transform="scale(0.015625)"/>
      <path id="DejaVuSans-65" d="M 3597 1894 
L 3597 1613 
L 953 1613 
Q 991 1019 1311 708 
Q 1631 397 2203 397 
Q 2534 397 2845 478 
Q 3156 559 3463 722 
L 3463 178 
Q 3153 47 2828 -22 
Q 2503 -91 2169 -91 
Q 1331 -91 842 396 
Q 353 884 353 1716 
Q 353 2575 817 3079 
Q 1281 3584 2069 3584 
Q 2775 3584 3186 3129 
Q 3597 2675 3597 1894 
z
M 3022 2063 
Q 3016 2534 2758 2815 
Q 2500 3097 2075 3097 
Q 1594 3097 1305 2825 
Q 1016 2553 972 2059 
L 3022 2063 
z
" transform="scale(0.015625)"/>
      <path id="DejaVuSans-76" d="M 191 3500 
L 800 3500 
L 1894 563 
L 2988 3500 
L 3597 3500 
L 2284 0 
L 1503 0 
L 191 3500 
z
" transform="scale(0.015625)"/>
      <path id="DejaVuSans-69" d="M 603 3500 
L 1178 3500 
L 1178 0 
L 603 0 
L 603 3500 
z
M 603 4863 
L 1178 4863 
L 1178 4134 
L 603 4134 
L 603 4863 
z
" transform="scale(0.015625)"/>
      <path id="DejaVuSans-61" d="M 2194 1759 
Q 1497 1759 1228 1600 
Q 959 1441 959 1056 
Q 959 750 1161 570 
Q 1363 391 1709 391 
Q 2188 391 2477 730 
Q 2766 1069 2766 1631 
L 2766 1759 
L 2194 1759 
z
M 3341 1997 
L 3341 0 
L 2766 0 
L 2766 531 
Q 2569 213 2275 61 
Q 1981 -91 1556 -91 
Q 1019 -91 701 211 
Q 384 513 384 1019 
Q 384 1609 779 1909 
Q 1175 2209 1959 2209 
L 2766 2209 
L 2766 2266 
Q 2766 2663 2505 2880 
Q 2244 3097 1772 3097 
Q 1472 3097 1187 3025 
Q 903 2953 641 2809 
L 641 3341 
Q 956 3463 1253 3523 
Q 1550 3584 1831 3584 
Q 2591 3584 2966 3190 
Q 3341 2797 3341 1997 
z
" transform="scale(0.015625)"/>
      <path id="DejaVuSans-74" d="M 1172 4494 
L 1172 3500 
L 2356 3500 
L 2356 3053 
L 1172 3053 
L 1172 1153 
Q 1172 725 1289 603 
Q 1406 481 1766 481 
L 2356 481 
L 2356 0 
L 1766 0 
Q 1100 0 847 248 
Q 594 497 594 1153 
L 594 3053 
L 172 3053 
L 172 3500 
L 594 3500 
L 594 4494 
L 1172 4494 
z
" transform="scale(0.015625)"/>
      <path id="DejaVuSans-6f" d="M 1959 3097 
Q 1497 3097 1228 2736 
Q 959 2375 959 1747 
Q 959 1119 1226 758 
Q 1494 397 1959 397 
Q 2419 397 2687 759 
Q 2956 1122 2956 1747 
Q 2956 2369 2687 2733 
Q 2419 3097 1959 3097 
z
M 1959 3584 
Q 2709 3584 3137 3096 
Q 3566 2609 3566 1747 
Q 3566 888 3137 398 
Q 2709 -91 1959 -91 
Q 1206 -91 779 398 
Q 353 888 353 1747 
Q 353 2609 779 3096 
Q 1206 3584 1959 3584 
z
" transform="scale(0.015625)"/>
      <path id="DejaVuSans-6e" d="M 3513 2113 
L 3513 0 
L 2938 0 
L 2938 2094 
Q 2938 2591 2744 2837 
Q 2550 3084 2163 3084 
Q 1697 3084 1428 2787 
Q 1159 2491 1159 1978 
L 1159 0 
L 581 0 
L 581 3500 
L 1159 3500 
L 1159 2956 
Q 1366 3272 1645 3428 
Q 1925 3584 2291 3584 
Q 2894 3584 3203 3211 
Q 3513 2838 3513 2113 
z
" transform="scale(0.015625)"/>
      <path id="DejaVuSans-20" transform="scale(0.015625)"/>
      <path id="DejaVuSans-66" d="M 2375 4863 
L 2375 4384 
L 1825 4384 
Q 1516 4384 1395 4259 
Q 1275 4134 1275 3809 
L 1275 3500 
L 2222 3500 
L 2222 3053 
L 1275 3053 
L 1275 0 
L 697 0 
L 697 3053 
L 147 3053 
L 147 3500 
L 697 3500 
L 697 3744 
Q 697 4328 969 4595 
Q 1241 4863 1831 4863 
L 2375 4863 
z
" transform="scale(0.015625)"/>
      <path id="DejaVuSans-72" d="M 2631 2963 
Q 2534 3019 2420 3045 
Q 2306 3072 2169 3072 
Q 1681 3072 1420 2755 
Q 1159 2438 1159 1844 
L 1159 0 
L 581 0 
L 581 3500 
L 1159 3500 
L 1159 2956 
Q 1341 3275 1631 3429 
Q 1922 3584 2338 3584 
Q 2397 3584 2469 3576 
Q 2541 3569 2628 3553 
L 2631 2963 
z
" transform="scale(0.015625)"/>
      <path id="DejaVuSans-6d" d="M 3328 2828 
Q 3544 3216 3844 3400 
Q 4144 3584 4550 3584 
Q 5097 3584 5394 3201 
Q 5691 2819 5691 2113 
L 5691 0 
L 5113 0 
L 5113 2094 
Q 5113 2597 4934 2840 
Q 4756 3084 4391 3084 
Q 3944 3084 3684 2787 
Q 3425 2491 3425 1978 
L 3425 0 
L 2847 0 
L 2847 2094 
Q 2847 2600 2669 2842 
Q 2491 3084 2119 3084 
Q 1678 3084 1418 2786 
Q 1159 2488 1159 1978 
L 1159 0 
L 581 0 
L 581 3500 
L 1159 3500 
L 1159 2956 
Q 1356 3278 1631 3431 
Q 1906 3584 2284 3584 
Q 2666 3584 2933 3390 
Q 3200 3197 3328 2828 
z
" transform="scale(0.015625)"/>
      <path id="DejaVuSans-67" d="M 2906 1791 
Q 2906 2416 2648 2759 
Q 2391 3103 1925 3103 
Q 1463 3103 1205 2759 
Q 947 2416 947 1791 
Q 947 1169 1205 825 
Q 1463 481 1925 481 
Q 2391 481 2648 825 
Q 2906 1169 2906 1791 
z
M 3481 434 
Q 3481 -459 3084 -895 
Q 2688 -1331 1869 -1331 
Q 1566 -1331 1297 -1286 
Q 1028 -1241 775 -1147 
L 775 -588 
Q 1028 -725 1275 -790 
Q 1522 -856 1778 -856 
Q 2344 -856 2625 -561 
Q 2906 -266 2906 331 
L 2906 616 
Q 2728 306 2450 153 
Q 2172 0 1784 0 
Q 1141 0 747 490 
Q 353 981 353 1791 
Q 353 2603 747 3093 
Q 1141 3584 1784 3584 
Q 2172 3584 2450 3431 
Q 2728 3278 2906 2969 
L 2906 3500 
L 3481 3500 
L 3481 434 
z
" transform="scale(0.015625)"/>
      <path id="DejaVuSans-73" d="M 2834 3397 
L 2834 2853 
Q 2591 2978 2328 3040 
Q 2066 3103 1784 3103 
Q 1356 3103 1142 2972 
Q 928 2841 928 2578 
Q 928 2378 1081 2264 
Q 1234 2150 1697 2047 
L 1894 2003 
Q 2506 1872 2764 1633 
Q 3022 1394 3022 966 
Q 3022 478 2636 193 
Q 2250 -91 1575 -91 
Q 1294 -91 989 -36 
Q 684 19 347 128 
L 347 722 
Q 666 556 975 473 
Q 1284 391 1588 391 
Q 1994 391 2212 530 
Q 2431 669 2431 922 
Q 2431 1156 2273 1281 
Q 2116 1406 1581 1522 
L 1381 1569 
Q 847 1681 609 1914 
Q 372 2147 372 2553 
Q 372 3047 722 3315 
Q 1072 3584 1716 3584 
Q 2034 3584 2315 3537 
Q 2597 3491 2834 3397 
z
" transform="scale(0.015625)"/>
      <path id="DejaVuSans-6c" d="M 603 4863 
L 1178 4863 
L 1178 0 
L 603 0 
L 603 4863 
z
" transform="scale(0.015625)"/>
      <path id="DejaVuSans-64" d="M 2906 2969 
L 2906 4863 
L 3481 4863 
L 3481 0 
L 2906 0 
L 2906 525 
Q 2725 213 2448 61 
Q 2172 -91 1784 -91 
Q 1150 -91 751 415 
Q 353 922 353 1747 
Q 353 2572 751 3078 
Q 1150 3584 1784 3584 
Q 2172 3584 2448 3432 
Q 2725 3281 2906 2969 
z
M 947 1747 
Q 947 1113 1208 752 
Q 1469 391 1925 391 
Q 2381 391 2643 752 
Q 2906 1113 2906 1747 
Q 2906 2381 2643 2742 
Q 2381 3103 1925 3103 
Q 1469 3103 1208 2742 
Q 947 2381 947 1747 
z
" transform="scale(0.015625)"/>
      <path id="DejaVuSans-77" d="M 269 3500 
L 844 3500 
L 1563 769 
L 2278 3500 
L 2956 3500 
L 3675 769 
L 4391 3500 
L 4966 3500 
L 4050 0 
L 3372 0 
L 2619 2869 
L 1863 0 
L 1184 0 
L 269 3500 
z
" transform="scale(0.015625)"/>
     </defs>
     <use xlink:href="#DejaVuSans-44"/>
     <use xlink:href="#DejaVuSans-65" x="77.001953"/>
     <use xlink:href="#DejaVuSans-76" x="138.525391"/>
     <use xlink:href="#DejaVuSans-69" x="197.705078"/>
     <use xlink:href="#DejaVuSans-61" x="225.488281"/>
     <use xlink:href="#DejaVuSans-74" x="286.767578"/>
     <use xlink:href="#DejaVuSans-69" x="325.976562"/>
     <use xlink:href="#DejaVuSans-6f" x="353.759766"/>
     <use xlink:href="#DejaVuSans-6e" x="414.941406"/>
     <use xlink:href="#DejaVuSans-20" x="478.320312"/>
     <use xlink:href="#DejaVuSans-66" x="510.107422"/>
     <use xlink:href="#DejaVuSans-72" x="545.3125"/>
     <use xlink:href="#DejaVuSans-6f" x="584.175781"/>
     <use xlink:href="#DejaVuSans-6d" x="645.357422"/>
     <use xlink:href="#DejaVuSans-20" x="742.769531"/>
     <use xlink:href="#DejaVuSans-61" x="774.556641"/>
     <use xlink:href="#DejaVuSans-76" x="835.835938"/>
     <use xlink:href="#DejaVuSans-65" x="895.015625"/>
     <use xlink:href="#DejaVuSans-72" x="956.539062"/>
     <use xlink:href="#DejaVuSans-61" x="997.652344"/>
     <use xlink:href="#DejaVuSans-67" x="1058.931641"/>
     <use xlink:href="#DejaVuSans-65" x="1122.408203"/>
     <use xlink:href="#DejaVuSans-20" x="1183.931641"/>
     <use xlink:href="#DejaVuSans-66" x="1215.71875"/>
     <use xlink:href="#DejaVuSans-6f" x="1250.923828"/>
     <use xlink:href="#DejaVuSans-72" x="1312.105469"/>
     <use xlink:href="#DejaVuSans-20" x="1353.21875"/>
     <use xlink:href="#DejaVuSans-73" x="1385.005859"/>
     <use xlink:href="#DejaVuSans-69" x="1437.105469"/>
     <use xlink:href="#DejaVuSans-6e" x="1464.888672"/>
     <use xlink:href="#DejaVuSans-67" x="1528.267578"/>
     <use xlink:href="#DejaVuSans-6c" x="1591.744141"/>
     <use xlink:href="#DejaVuSans-65" x="1619.527344"/>
     <use xlink:href="#DejaVuSans-20" x="1681.050781"/>
     <use xlink:href="#DejaVuSans-64" x="1712.837891"/>
     <use xlink:href="#DejaVuSans-72" x="1776.314453"/>
     <use xlink:href="#DejaVuSans-61" x="1817.427734"/>
     <use xlink:href="#DejaVuSans-77" x="1878.707031"/>
    </g>
   </g>
  </g>
 </g>
 <defs>
  <clipPath id="p24df002dc8">
   <rect x="45" y="43.2" width="279" height="277.2"/>
  </clipPath>
 </defs>
</svg>
