<?xml version="1.0" encoding="utf-8" standalone="no"?>
<!DOCTYPE svg PUBLIC "-//W3C//DTD SVG 1.1//EN"
  "http://www.w3.org/Graphics/SVG/1.1/DTD/svg11.dtd">
<svg xmlns:xlink="http://www.w3.org/1999/xlink" width="360pt" height="360pt" viewBox="0 0 360 360" xmlns="http://www.w3.org/2000/svg" version="1.1">
 <metadata>
  <rdf:RDF xmlns:dc="http://purl.org/dc/elements/1.1/" xmlns:cc="http://creativecommons.org/ns#" xmlns:rdf="http://www.w3.org/1999/02/22-rdf-syntax-ns#">
   <cc:Work>
    <dc:type rdf:resource="http://purl.org/dc/dcmitype/StillImage"/>
    <dc:date>2022-11-16T09:47:44.737790</dc:date>
    <dc:format>image/svg+xml</dc:format>
    <dc:creator>
     <cc:Agent>
      <dc:title>Matplotlib v3.5.3, https://matplotlib.org/</dc:title>
     </cc:Agent>
    </dc:creator>
   </cc:Work>
  </rdf:RDF>
 </metadata>
 <defs>
  <style type="text/css">*{stroke-linejoin: round; stroke-linecap: butt}</style>
 </defs>
 <g id="figure_1">
  <g id="patch_1">
   <path d="M 0 360 
L 360 360 
L 360 0 
L 0 0 
z
" style="fill: #ffffff"/>
  </g>
  <g id="axes_1">
   <g id="patch_2">
    <path d="M 45 320.4 
L 324 320.4 
L 324 43.2 
L 45 43.2 
z
" style="fill: #ffffff"/>
   </g>
   <g id="matplotlib.axis_1">
    <g id="xtick_1">
     <g id="line2d_1">
      <defs>
       <path id="mc8aac0392e" d="M 0 0 
L 0 3.5 
" style="stroke: #000000; stroke-width: 0.8"/>
      </defs>
      <g>
       <use xlink:href="#mc8aac0392e" x="83.045455" y="320.4" style="stroke: #000000; stroke-width: 0.8"/>
      </g>
     </g>
     <g id="text_1">
      <!-- −2 -->
      <g transform="translate(75.674361 334.998438)scale(0.1 -0.1)">
       <defs>
        <path id="DejaVuSans-2212" d="M 678 2272 
L 4684 2272 
L 4684 1741 
L 678 1741 
L 678 2272 
z
" transform="scale(0.015625)"/>
        <path id="DejaVuSans-32" d="M 1228 531 
L 3431 531 
L 3431 0 
L 469 0 
L 469 531 
Q 828 903 1448 1529 
Q 2069 2156 2228 2338 
Q 2531 2678 2651 2914 
Q 2772 3150 2772 3378 
Q 2772 3750 2511 3984 
Q 2250 4219 1831 4219 
Q 1534 4219 1204 4116 
Q 875 4013 500 3803 
L 500 4441 
Q 881 4594 1212 4672 
Q 1544 4750 1819 4750 
Q 2544 4750 2975 4387 
Q 3406 4025 3406 3419 
Q 3406 3131 3298 2873 
Q 3191 2616 2906 2266 
Q 2828 2175 2409 1742 
Q 1991 1309 1228 531 
z
" transform="scale(0.015625)"/>
       </defs>
       <use xlink:href="#DejaVuSans-2212"/>
       <use xlink:href="#DejaVuSans-32" x="83.789062"/>
      </g>
     </g>
    </g>
    <g id="xtick_2">
     <g id="line2d_2">
      <g>
       <use xlink:href="#mc8aac0392e" x="133.772727" y="320.4" style="stroke: #000000; stroke-width: 0.8"/>
      </g>
     </g>
     <g id="text_2">
      <!-- −1 -->
      <g transform="translate(126.401634 334.998438)scale(0.1 -0.1)">
       <defs>
        <path id="DejaVuSans-31" d="M 794 531 
L 1825 531 
L 1825 4091 
L 703 3866 
L 703 4441 
L 1819 4666 
L 2450 4666 
L 2450 531 
L 3481 531 
L 3481 0 
L 794 0 
L 794 531 
z
" transform="scale(0.015625)"/>
       </defs>
       <use xlink:href="#DejaVuSans-2212"/>
       <use xlink:href="#DejaVuSans-31" x="83.789062"/>
      </g>
     </g>
    </g>
    <g id="xtick_3">
     <g id="line2d_3">
      <g>
       <use xlink:href="#mc8aac0392e" x="184.5" y="320.4" style="stroke: #000000; stroke-width: 0.8"/>
      </g>
     </g>
     <g id="text_3">
      <!-- 0 -->
      <g transform="translate(181.31875 334.998438)scale(0.1 -0.1)">
       <defs>
        <path id="DejaVuSans-30" d="M 2034 4250 
Q 1547 4250 1301 3770 
Q 1056 3291 1056 2328 
Q 1056 1369 1301 889 
Q 1547 409 2034 409 
Q 2525 409 2770 889 
Q 3016 1369 3016 2328 
Q 3016 3291 2770 3770 
Q 2525 4250 2034 4250 
z
M 2034 4750 
Q 2819 4750 3233 4129 
Q 3647 3509 3647 2328 
Q 3647 1150 3233 529 
Q 2819 -91 2034 -91 
Q 1250 -91 836 529 
Q 422 1150 422 2328 
Q 422 3509 836 4129 
Q 1250 4750 2034 4750 
z
" transform="scale(0.015625)"/>
       </defs>
       <use xlink:href="#DejaVuSans-30"/>
      </g>
     </g>
    </g>
    <g id="xtick_4">
     <g id="line2d_4">
      <g>
       <use xlink:href="#mc8aac0392e" x="235.227273" y="320.4" style="stroke: #000000; stroke-width: 0.8"/>
      </g>
     </g>
     <g id="text_4">
      <!-- 1 -->
      <g transform="translate(232.046023 334.998438)scale(0.1 -0.1)">
       <use xlink:href="#DejaVuSans-31"/>
      </g>
     </g>
    </g>
    <g id="xtick_5">
     <g id="line2d_5">
      <g>
       <use xlink:href="#mc8aac0392e" x="285.954545" y="320.4" style="stroke: #000000; stroke-width: 0.8"/>
      </g>
     </g>
     <g id="text_5">
      <!-- 2 -->
      <g transform="translate(282.773295 334.998438)scale(0.1 -0.1)">
       <use xlink:href="#DejaVuSans-32"/>
      </g>
     </g>
    </g>
   </g>
   <g id="matplotlib.axis_2">
    <g id="ytick_1">
     <g id="line2d_6">
      <defs>
       <path id="mffe5216235" d="M 0 0 
L -3.5 0 
" style="stroke: #000000; stroke-width: 0.8"/>
      </defs>
      <g>
       <use xlink:href="#mffe5216235" x="45" y="280.877915" style="stroke: #000000; stroke-width: 0.8"/>
      </g>
     </g>
     <g id="text_6">
      <!-- 0 -->
      <g transform="translate(31.6375 284.677134)scale(0.1 -0.1)">
       <use xlink:href="#DejaVuSans-30"/>
      </g>
     </g>
    </g>
    <g id="ytick_2">
     <g id="line2d_7">
      <g>
       <use xlink:href="#mffe5216235" x="45" y="231.182366" style="stroke: #000000; stroke-width: 0.8"/>
      </g>
     </g>
     <g id="text_7">
      <!-- 10 -->
      <g transform="translate(25.275 234.981584)scale(0.1 -0.1)">
       <use xlink:href="#DejaVuSans-31"/>
       <use xlink:href="#DejaVuSans-30" x="63.623047"/>
      </g>
     </g>
    </g>
    <g id="ytick_3">
     <g id="line2d_8">
      <g>
       <use xlink:href="#mffe5216235" x="45" y="181.486816" style="stroke: #000000; stroke-width: 0.8"/>
      </g>
     </g>
     <g id="text_8">
      <!-- 20 -->
      <g transform="translate(25.275 185.286035)scale(0.1 -0.1)">
       <use xlink:href="#DejaVuSans-32"/>
       <use xlink:href="#DejaVuSans-30" x="63.623047"/>
      </g>
     </g>
    </g>
    <g id="ytick_4">
     <g id="line2d_9">
      <g>
       <use xlink:href="#mffe5216235" x="45" y="131.791267" style="stroke: #000000; stroke-width: 0.8"/>
      </g>
     </g>
     <g id="text_9">
      <!-- 30 -->
      <g transform="translate(25.275 135.590486)scale(0.1 -0.1)">
       <defs>
        <path id="DejaVuSans-33" d="M 2597 2516 
Q 3050 2419 3304 2112 
Q 3559 1806 3559 1356 
Q 3559 666 3084 287 
Q 2609 -91 1734 -91 
Q 1441 -91 1130 -33 
Q 819 25 488 141 
L 488 750 
Q 750 597 1062 519 
Q 1375 441 1716 441 
Q 2309 441 2620 675 
Q 2931 909 2931 1356 
Q 2931 1769 2642 2001 
Q 2353 2234 1838 2234 
L 1294 2234 
L 1294 2753 
L 1863 2753 
Q 2328 2753 2575 2939 
Q 2822 3125 2822 3475 
Q 2822 3834 2567 4026 
Q 2313 4219 1838 4219 
Q 1578 4219 1281 4162 
Q 984 4106 628 3988 
L 628 4550 
Q 988 4650 1302 4700 
Q 1616 4750 1894 4750 
Q 2613 4750 3031 4423 
Q 3450 4097 3450 3541 
Q 3450 3153 3228 2886 
Q 3006 2619 2597 2516 
z
" transform="scale(0.015625)"/>
       </defs>
       <use xlink:href="#DejaVuSans-33"/>
       <use xlink:href="#DejaVuSans-30" x="63.623047"/>
      </g>
     </g>
    </g>
    <g id="ytick_5">
     <g id="line2d_10">
      <g>
       <use xlink:href="#mffe5216235" x="45" y="82.095718" style="stroke: #000000; stroke-width: 0.8"/>
      </g>
     </g>
     <g id="text_10">
      <!-- 40 -->
      <g transform="translate(25.275 85.894937)scale(0.1 -0.1)">
       <defs>
        <path id="DejaVuSans-34" d="M 2419 4116 
L 825 1625 
L 2419 1625 
L 2419 4116 
z
M 2253 4666 
L 3047 4666 
L 3047 1625 
L 3713 1625 
L 3713 1100 
L 3047 1100 
L 3047 0 
L 2419 0 
L 2419 1100 
L 313 1100 
L 313 1709 
L 2253 4666 
z
" transform="scale(0.015625)"/>
       </defs>
       <use xlink:href="#DejaVuSans-34"/>
       <use xlink:href="#DejaVuSans-30" x="63.623047"/>
      </g>
     </g>
    </g>
   </g>
   <g id="line2d_11">
    <path d="M 57.681818 180.076124 
L 63.402942 207.280321 
L 64.038619 209.628041 
L 65.945664 218.065891 
L 69.759743 232.574015 
L 74.845188 249.499689 
L 75.480866 251.009723 
L 76.116544 253.140192 
L 76.752221 254.708702 
L 78.023577 258.67456 
L 78.659254 260.003238 
L 79.930622 263.575412 
L 81.201977 266.879202 
L 81.837655 268.08094 
L 82.473333 269.689363 
L 83.109022 270.985119 
L 83.7447 272.69666 
L 84.380384 273.683783 
L 85.016061 275.391244 
L 88.194462 281.177723 
L 88.83014 282.741763 
L 89.465823 283.59114 
L 90.101501 284.838162 
L 90.737185 285.805268 
L 91.372862 286.980325 
L 92.00854 287.554326 
L 92.644224 288.919769 
L 93.279902 289.532187 
L 95.186941 292.411458 
L 95.822624 292.866483 
L 97.729663 295.596254 
L 98.365347 295.982411 
L 99.636709 297.54349 
L 100.272386 297.850525 
L 101.543748 299.397649 
L 102.815109 300.374318 
L 103.450781 300.740572 
L 104.722142 301.988158 
L 105.35782 302.382419 
L 105.993504 302.912675 
L 106.629181 303.047272 
L 107.264859 303.331893 
L 107.900543 304.126346 
L 108.536226 304.183106 
L 109.171904 304.44141 
L 110.443266 305.259253 
L 111.078949 305.313803 
L 112.350305 305.842199 
L 112.985988 306.198339 
L 113.621666 306.422988 
L 114.257344 306.5164 
L 115.528705 306.939753 
L 116.164389 306.844453 
L 116.800067 306.911879 
L 117.435744 307.25704 
L 118.707106 307.398742 
L 119.978467 307.455787 
L 120.614145 307.481934 
L 121.249829 307.8 
L 121.885506 307.675765 
L 122.521184 307.371863 
L 124.428223 307.64868 
L 126.335268 307.393457 
L 127.606623 306.975543 
L 128.242307 306.91455 
L 128.877991 307.134249 
L 130.149352 306.695656 
L 130.78503 306.273088 
L 131.420714 306.325576 
L 132.056391 306.265244 
L 132.692069 305.929024 
L 133.327753 305.94918 
L 133.963431 305.830121 
L 134.599111 305.294945 
L 135.234792 305.388805 
L 135.87047 305.117877 
L 136.50615 305.10045 
L 137.141831 304.465339 
L 138.413193 304.078241 
L 139.04887 304.101277 
L 139.684551 303.926514 
L 140.320232 303.630604 
L 140.955909 302.985478 
L 141.59159 302.788101 
L 142.227271 302.429798 
L 146.041349 301.163149 
L 146.67703 300.529887 
L 147.31271 300.450818 
L 147.948391 300.07258 
L 148.584072 299.856019 
L 149.219749 299.445612 
L 149.85543 299.259564 
L 150.491111 298.928572 
L 151.126789 298.362679 
L 151.762469 298.195344 
L 152.39815 297.642156 
L 153.033831 297.547129 
L 153.669511 297.319515 
L 154.305195 296.849004 
L 154.940876 296.591776 
L 155.576557 296.211895 
L 156.212234 296.03549 
L 156.847915 295.32163 
L 157.483596 295.294132 
L 158.119276 294.655645 
L 159.390635 293.919007 
L 160.026315 293.943959 
L 160.661995 293.230878 
L 161.297675 293.182759 
L 162.569035 292.142271 
L 163.204716 292.065493 
L 164.476068 291.397144 
L 165.111749 291.20226 
L 165.747428 290.53058 
L 166.383109 290.551814 
L 167.018788 289.806577 
L 168.29015 289.038643 
L 168.925829 288.989508 
L 169.561514 288.793 
L 170.197195 288.191667 
L 170.832874 287.769776 
L 171.468555 287.814745 
L 172.104235 287.285166 
L 172.739914 287.040051 
L 173.375594 286.576224 
L 174.011274 286.341296 
L 175.28264 285.630402 
L 175.91832 285.45577 
L 176.554 284.685175 
L 177.18968 284.35149 
L 177.82536 284.270885 
L 179.09672 283.681759 
L 180.368073 283.176417 
L 181.003753 282.52163 
L 181.639433 282.431287 
L 182.275114 282.137015 
L 182.910794 281.680616 
L 184.182154 281.114188 
L 184.817839 280.714439 
L 187.360559 279.694696 
L 187.996239 278.980494 
L 188.631919 278.986164 
L 189.2676 278.520266 
L 189.903285 278.373177 
L 191.810325 277.283678 
L 192.446005 277.319993 
L 193.081685 276.713877 
L 193.717365 276.285761 
L 194.353045 276.166636 
L 195.62441 275.411368 
L 196.26009 275.40827 
L 196.895771 275.033538 
L 197.53145 274.973727 
L 199.438491 273.826799 
L 200.074164 273.83072 
L 201.981204 273.080385 
L 203.252564 272.340106 
L 203.888245 271.833175 
L 205.79529 271.367614 
L 206.430969 270.767088 
L 207.06665 270.797759 
L 208.33801 269.93721 
L 208.973691 269.892438 
L 210.245049 269.239159 
L 213.42345 267.933741 
L 214.05913 267.273403 
L 214.694811 267.344494 
L 215.330489 267.100661 
L 215.966169 266.580997 
L 218.508889 265.310647 
L 219.14457 265.391097 
L 220.415928 264.377054 
L 221.68729 264.044296 
L 222.322967 263.341019 
L 222.958648 263.347223 
L 224.230009 262.819419 
L 225.501368 261.809676 
L 228.044088 260.744356 
L 229.315449 259.550745 
L 229.95113 259.257951 
L 230.586807 259.164008 
L 231.222488 258.663446 
L 231.858169 258.419839 
L 233.129527 257.382595 
L 234.400889 256.384503 
L 235.036569 256.388695 
L 235.672253 255.556929 
L 236.307931 255.452844 
L 237.579292 254.151519 
L 238.214976 253.887479 
L 238.850654 253.185145 
L 239.486331 253.133979 
L 240.757693 251.770855 
L 241.39337 251.451872 
L 242.664732 250.434287 
L 243.300416 249.609938 
L 245.843132 247.671943 
L 247.114494 246.16945 
L 247.750171 245.725293 
L 248.385855 245.034587 
L 249.021533 244.138459 
L 249.657211 243.614096 
L 250.928572 242.308303 
L 251.56425 241.757208 
L 252.835611 240.1763 
L 253.471295 239.423499 
L 254.106973 238.443707 
L 255.378334 237.017636 
L 256.014012 235.858257 
L 256.649689 235.1663 
L 257.285373 234.216001 
L 257.921051 233.636015 
L 260.463774 229.984474 
L 261.735129 227.950844 
L 262.370813 227.035142 
L 263.642174 224.564986 
L 265.549213 221.708692 
L 268.091936 216.813616 
L 268.72762 215.647639 
L 269.363297 214.153895 
L 269.998975 213.208549 
L 270.634659 211.546871 
L 271.270337 210.468136 
L 275.720098 200.106221 
L 276.355776 198.510941 
L 276.991454 197.291415 
L 277.627138 195.742552 
L 278.898499 192.058002 
L 279.534177 190.742078 
L 280.169854 188.839898 
L 280.805538 187.302295 
L 283.983945 177.815887 
L 284.619622 175.555678 
L 285.890984 171.89964 
L 290.976411 154.289089 
L 292.247779 149.153742 
L 295.426179 136.814064 
L 296.697535 131.431618 
L 298.60458 122.855769 
L 302.418658 105.028213 
L 304.961381 91.62334 
L 306.868426 81.520609 
L 309.411149 67.024987 
L 311.318182 55.8 
L 311.318182 55.8 
" clip-path="url(#p1d4fe39075)" style="fill: none; stroke: #1f77b4; stroke-width: 1.5; stroke-linecap: square"/>
   </g>
   <g id="line2d_12">
    <path d="M 57.681818 230.502664 
L 60.224541 232.55618 
L 62.131574 234.350081 
L 64.038619 236.39001 
L 65.945664 238.699253 
L 67.852697 241.296014 
L 69.759743 244.190186 
L 72.302453 248.506066 
L 74.845188 253.298081 
L 78.023577 259.798666 
L 86.923101 278.381169 
L 89.465823 283.089339 
L 92.00854 287.34093 
L 94.551263 291.107704 
L 97.09398 294.394936 
L 99.636709 297.227783 
L 102.179425 299.640073 
L 104.722142 301.667354 
L 107.264859 303.343379 
L 109.807588 304.698968 
L 112.350305 305.761809 
L 114.893027 306.556594 
L 117.435744 307.105003 
L 119.978467 307.425735 
L 122.521184 307.534659 
L 125.063907 307.4453 
L 127.606623 307.169663 
L 130.78503 306.580926 
L 133.963431 305.744283 
L 137.141831 304.689889 
L 140.955909 303.188678 
L 145.405671 301.200012 
L 151.762469 298.098268 
L 160.026315 293.809283 
L 171.468555 287.560581 
L 179.09672 283.533525 
L 186.089199 280.111758 
L 196.895771 275.124278 
L 212.787769 268.046314 
L 220.415928 264.553422 
L 225.501368 261.997525 
L 229.95113 259.504067 
L 233.765208 257.113692 
L 237.579292 254.44089 
L 240.757693 251.966423 
L 243.936093 249.241109 
L 247.114494 246.239782 
L 250.292894 242.935072 
L 253.471295 239.295477 
L 256.649689 235.283147 
L 259.82809 230.851759 
L 262.370813 226.967681 
L 264.913529 222.747101 
L 267.456258 218.155052 
L 269.998975 213.157033 
L 272.541698 207.722794 
L 275.084415 201.831733 
L 278.262815 193.819847 
L 281.441222 185.127543 
L 285.2553 173.954682 
L 292.883456 150.547285 
L 296.697535 139.241692 
L 299.875935 130.472504 
L 302.418658 124.03021 
L 304.961381 118.170496 
L 307.504104 112.926611 
L 310.046826 108.302448 
L 311.318182 106.217252 
L 311.318182 106.217252 
" clip-path="url(#p1d4fe39075)" style="fill: none; stroke: #ff7f0e; stroke-width: 1.5; stroke-linecap: square"/>
   </g>
   <g id="line2d_13">
    <path d="M 57.681818 231.023034 
L 60.224541 233.048347 
L 62.131574 234.820579 
L 64.038619 236.838527 
L 65.945664 239.125579 
L 67.852697 241.70002 
L 69.759743 244.571788 
L 72.302453 248.857637 
L 74.845188 253.619401 
L 78.023577 260.081645 
L 86.923101 278.555015 
L 89.465823 283.23344 
L 92.00854 287.457126 
L 94.551263 291.19842 
L 97.09398 294.462963 
L 99.636709 297.276061 
L 102.179425 299.671518 
L 104.722142 301.684665 
L 107.264859 303.348966 
L 109.807588 304.694869 
L 112.350305 305.749689 
L 114.893027 306.53777 
L 117.435744 307.08049 
L 119.978467 307.396301 
L 122.521184 307.500889 
L 125.063907 307.407663 
L 127.606623 307.128571 
L 130.78503 306.536095 
L 133.963431 305.696448 
L 137.141831 304.639959 
L 140.955909 303.13768 
L 146.041349 300.851196 
L 153.033831 297.412073 
L 161.297675 293.09794 
L 181.639433 282.270405 
L 189.2676 278.641111 
L 202.616884 272.579047 
L 221.68729 263.957821 
L 226.772729 261.329015 
L 230.586807 259.135377 
L 234.400889 256.697467 
L 238.214976 253.969832 
L 241.39337 251.444462 
L 244.571771 248.663635 
L 247.750171 245.602059 
L 250.928572 242.231935 
L 254.106973 238.520925 
L 257.285373 234.429892 
L 260.463774 229.910896 
L 263.00649 225.949161 
L 265.549213 221.643431 
L 268.091936 216.958592 
L 270.634659 211.860729 
L 273.177376 206.321387 
L 275.720098 200.323083 
L 278.898499 192.181443 
L 282.076899 183.375537 
L 285.890984 172.10709 
L 297.96889 135.753713 
L 301.14729 127.291267 
L 303.690025 121.136271 
L 306.232736 115.583721 
L 308.775471 110.651758 
L 311.318182 106.331758 
L 311.318182 106.331758 
" clip-path="url(#p1d4fe39075)" style="fill: none; stroke: #2ca02c; stroke-width: 1.5; stroke-linecap: square"/>
   </g>
   <g id="line2d_14">
    <path d="M 57.681818 230.53828 
L 60.224541 232.600385 
L 62.131574 234.399636 
L 64.038619 236.443982 
L 65.945664 238.756717 
L 67.852697 241.356051 
L 69.759743 244.251879 
L 72.302453 248.568595 
L 74.845188 253.359941 
L 78.023577 259.85779 
L 86.923101 278.425579 
L 89.465823 283.128908 
L 92.00854 287.375822 
L 94.551263 291.138186 
L 97.09398 294.421357 
L 99.636709 297.250506 
L 102.179425 299.659471 
L 104.722142 301.683781 
L 107.264859 303.357175 
L 109.807588 304.710469 
L 112.350305 305.771332 
L 114.893027 306.564474 
L 117.435744 307.111576 
L 119.978467 307.43136 
L 122.521184 307.539711 
L 125.063907 307.450175 
L 127.606623 307.174772 
L 130.78503 306.586896 
L 133.963431 305.75167 
L 137.141831 304.699118 
L 140.955909 303.200336 
L 145.405671 301.214151 
L 151.762469 298.113712 
L 160.026315 293.820101 
L 170.832874 287.903223 
L 178.46104 283.842167 
L 185.453519 280.389549 
L 195.62441 275.661998 
L 210.245049 269.114001 
L 219.780251 264.796723 
L 224.86569 262.272783 
L 229.315449 259.819695 
L 233.129527 257.472444 
L 236.943615 254.849898 
L 240.122015 252.422372 
L 243.300416 249.748469 
L 246.47881 246.803142 
L 249.657211 243.559487 
L 252.835611 239.986897 
L 256.014012 236.048887 
L 259.192412 231.700934 
L 262.370813 226.889095 
L 264.913529 222.663569 
L 267.456258 218.066099 
L 269.998975 213.062222 
L 272.541698 207.621747 
L 275.084415 201.724107 
L 278.262815 193.703557 
L 281.441222 185.002172 
L 285.2553 173.817839 
L 292.883456 150.385885 
L 296.697535 139.0674 
L 299.875935 130.28739 
L 302.418658 123.836499 
L 304.961381 117.968384 
L 307.504104 112.716403 
L 310.046826 108.084516 
L 311.318182 105.995644 
L 311.318182 105.995644 
" clip-path="url(#p1d4fe39075)" style="fill: none; stroke: #d62728; stroke-width: 1.5; stroke-linecap: square"/>
   </g>
   <g id="line2d_15">
    <path d="M 57.681818 230.168034 
L 60.224541 232.22683 
L 62.131574 234.026209 
L 64.038619 236.073105 
L 65.945664 238.39094 
L 67.852697 240.997997 
L 69.759743 243.904158 
L 72.302453 248.23836 
L 74.845188 253.050763 
L 78.023577 259.578193 
L 86.923101 278.229455 
L 89.465823 282.953811 
L 92.00854 287.22019 
L 94.551263 291.000593 
L 97.09398 294.300463 
L 99.636709 297.145054 
L 102.179425 299.568182 
L 104.722142 301.605357 
L 107.264859 303.290277 
L 109.807588 304.653689 
L 112.350305 305.723258 
L 114.893027 306.523668 
L 117.435744 307.076633 
L 119.978467 307.400912 
L 122.521184 307.51245 
L 125.063907 307.424867 
L 127.606623 307.150272 
L 130.78503 306.561988 
L 133.963431 305.725088 
L 137.141831 304.670007 
L 140.955909 303.167827 
L 145.405671 301.178395 
L 151.762469 298.077134 
L 160.026315 293.791489 
L 171.468555 287.547103 
L 179.09672 283.520637 
L 186.089199 280.100675 
L 196.26009 275.41059 
L 211.51641 268.622703 
L 220.415928 264.568368 
L 225.501368 262.01133 
L 229.95113 259.515418 
L 233.765208 257.121605 
L 237.579292 254.44382 
L 240.757693 251.963803 
L 243.936093 249.231502 
L 247.114494 246.221649 
L 250.292894 242.906812 
L 253.471295 239.255475 
L 256.649689 235.229769 
L 259.82809 230.783323 
L 262.370813 226.885934 
L 264.913529 222.650829 
L 267.456258 218.042943 
L 269.998975 213.027672 
L 272.541698 207.574648 
L 275.084415 201.663211 
L 278.262815 193.623651 
L 281.441222 184.901452 
L 285.2553 173.690588 
L 298.60458 133.501883 
L 301.14729 126.771949 
L 303.690025 120.598261 
L 306.232736 115.030147 
L 308.775471 110.085426 
L 311.318182 105.755094 
L 311.318182 105.755094 
" clip-path="url(#p1d4fe39075)" style="fill: none; stroke: #9467bd; stroke-width: 1.5; stroke-linecap: square"/>
   </g>
   <g id="patch_3">
    <path d="M 45 320.4 
L 45 43.2 
" style="fill: none; stroke: #000000; stroke-width: 0.8; stroke-linejoin: miter; stroke-linecap: square"/>
   </g>
   <g id="patch_4">
    <path d="M 324 320.4 
L 324 43.2 
" style="fill: none; stroke: #000000; stroke-width: 0.8; stroke-linejoin: miter; stroke-linecap: square"/>
   </g>
   <g id="patch_5">
    <path d="M 45 320.4 
L 324 320.4 
" style="fill: none; stroke: #000000; stroke-width: 0.8; stroke-linejoin: miter; stroke-linecap: square"/>
   </g>
   <g id="patch_6">
    <path d="M 45 43.2 
L 324 43.2 
" style="fill: none; stroke: #000000; stroke-width: 0.8; stroke-linejoin: miter; stroke-linecap: square"/>
   </g>
   <g id="text_11">
    <!-- Prediction Curves -->
    <g transform="translate(131.961563 37.2)scale(0.12 -0.12)">
     <defs>
      <path id="DejaVuSans-50" d="M 1259 4147 
L 1259 2394 
L 2053 2394 
Q 2494 2394 2734 2622 
Q 2975 2850 2975 3272 
Q 2975 3691 2734 3919 
Q 2494 4147 2053 4147 
L 1259 4147 
z
M 628 4666 
L 2053 4666 
Q 2838 4666 3239 4311 
Q 3641 3956 3641 3272 
Q 3641 2581 3239 2228 
Q 2838 1875 2053 1875 
L 1259 1875 
L 1259 0 
L 628 0 
L 628 4666 
z
" transform="scale(0.015625)"/>
      <path id="DejaVuSans-72" d="M 2631 2963 
Q 2534 3019 2420 3045 
Q 2306 3072 2169 3072 
Q 1681 3072 1420 2755 
Q 1159 2438 1159 1844 
L 1159 0 
L 581 0 
L 581 3500 
L 1159 3500 
L 1159 2956 
Q 1341 3275 1631 3429 
Q 1922 3584 2338 3584 
Q 2397 3584 2469 3576 
Q 2541 3569 2628 3553 
L 2631 2963 
z
" transform="scale(0.015625)"/>
      <path id="DejaVuSans-65" d="M 3597 1894 
L 3597 1613 
L 953 1613 
Q 991 1019 1311 708 
Q 1631 397 2203 397 
Q 2534 397 2845 478 
Q 3156 559 3463 722 
L 3463 178 
Q 3153 47 2828 -22 
Q 2503 -91 2169 -91 
Q 1331 -91 842 396 
Q 353 884 353 1716 
Q 353 2575 817 3079 
Q 1281 3584 2069 3584 
Q 2775 3584 3186 3129 
Q 3597 2675 3597 1894 
z
M 3022 2063 
Q 3016 2534 2758 2815 
Q 2500 3097 2075 3097 
Q 1594 3097 1305 2825 
Q 1016 2553 972 2059 
L 3022 2063 
z
" transform="scale(0.015625)"/>
      <path id="DejaVuSans-64" d="M 2906 2969 
L 2906 4863 
L 3481 4863 
L 3481 0 
L 2906 0 
L 2906 525 
Q 2725 213 2448 61 
Q 2172 -91 1784 -91 
Q 1150 -91 751 415 
Q 353 922 353 1747 
Q 353 2572 751 3078 
Q 1150 3584 1784 3584 
Q 2172 3584 2448 3432 
Q 2725 3281 2906 2969 
z
M 947 1747 
Q 947 1113 1208 752 
Q 1469 391 1925 391 
Q 2381 391 2643 752 
Q 2906 1113 2906 1747 
Q 2906 2381 2643 2742 
Q 2381 3103 1925 3103 
Q 1469 3103 1208 2742 
Q 947 2381 947 1747 
z
" transform="scale(0.015625)"/>
      <path id="DejaVuSans-69" d="M 603 3500 
L 1178 3500 
L 1178 0 
L 603 0 
L 603 3500 
z
M 603 4863 
L 1178 4863 
L 1178 4134 
L 603 4134 
L 603 4863 
z
" transform="scale(0.015625)"/>
      <path id="DejaVuSans-63" d="M 3122 3366 
L 3122 2828 
Q 2878 2963 2633 3030 
Q 2388 3097 2138 3097 
Q 1578 3097 1268 2742 
Q 959 2388 959 1747 
Q 959 1106 1268 751 
Q 1578 397 2138 397 
Q 2388 397 2633 464 
Q 2878 531 3122 666 
L 3122 134 
Q 2881 22 2623 -34 
Q 2366 -91 2075 -91 
Q 1284 -91 818 406 
Q 353 903 353 1747 
Q 353 2603 823 3093 
Q 1294 3584 2113 3584 
Q 2378 3584 2631 3529 
Q 2884 3475 3122 3366 
z
" transform="scale(0.015625)"/>
      <path id="DejaVuSans-74" d="M 1172 4494 
L 1172 3500 
L 2356 3500 
L 2356 3053 
L 1172 3053 
L 1172 1153 
Q 1172 725 1289 603 
Q 1406 481 1766 481 
L 2356 481 
L 2356 0 
L 1766 0 
Q 1100 0 847 248 
Q 594 497 594 1153 
L 594 3053 
L 172 3053 
L 172 3500 
L 594 3500 
L 594 4494 
L 1172 4494 
z
" transform="scale(0.015625)"/>
      <path id="DejaVuSans-6f" d="M 1959 3097 
Q 1497 3097 1228 2736 
Q 959 2375 959 1747 
Q 959 1119 1226 758 
Q 1494 397 1959 397 
Q 2419 397 2687 759 
Q 2956 1122 2956 1747 
Q 2956 2369 2687 2733 
Q 2419 3097 1959 3097 
z
M 1959 3584 
Q 2709 3584 3137 3096 
Q 3566 2609 3566 1747 
Q 3566 888 3137 398 
Q 2709 -91 1959 -91 
Q 1206 -91 779 398 
Q 353 888 353 1747 
Q 353 2609 779 3096 
Q 1206 3584 1959 3584 
z
" transform="scale(0.015625)"/>
      <path id="DejaVuSans-6e" d="M 3513 2113 
L 3513 0 
L 2938 0 
L 2938 2094 
Q 2938 2591 2744 2837 
Q 2550 3084 2163 3084 
Q 1697 3084 1428 2787 
Q 1159 2491 1159 1978 
L 1159 0 
L 581 0 
L 581 3500 
L 1159 3500 
L 1159 2956 
Q 1366 3272 1645 3428 
Q 1925 3584 2291 3584 
Q 2894 3584 3203 3211 
Q 3513 2838 3513 2113 
z
" transform="scale(0.015625)"/>
      <path id="DejaVuSans-20" transform="scale(0.015625)"/>
      <path id="DejaVuSans-43" d="M 4122 4306 
L 4122 3641 
Q 3803 3938 3442 4084 
Q 3081 4231 2675 4231 
Q 1875 4231 1450 3742 
Q 1025 3253 1025 2328 
Q 1025 1406 1450 917 
Q 1875 428 2675 428 
Q 3081 428 3442 575 
Q 3803 722 4122 1019 
L 4122 359 
Q 3791 134 3420 21 
Q 3050 -91 2638 -91 
Q 1578 -91 968 557 
Q 359 1206 359 2328 
Q 359 3453 968 4101 
Q 1578 4750 2638 4750 
Q 3056 4750 3426 4639 
Q 3797 4528 4122 4306 
z
" transform="scale(0.015625)"/>
      <path id="DejaVuSans-75" d="M 544 1381 
L 544 3500 
L 1119 3500 
L 1119 1403 
Q 1119 906 1312 657 
Q 1506 409 1894 409 
Q 2359 409 2629 706 
Q 2900 1003 2900 1516 
L 2900 3500 
L 3475 3500 
L 3475 0 
L 2900 0 
L 2900 538 
Q 2691 219 2414 64 
Q 2138 -91 1772 -91 
Q 1169 -91 856 284 
Q 544 659 544 1381 
z
M 1991 3584 
L 1991 3584 
z
" transform="scale(0.015625)"/>
      <path id="DejaVuSans-76" d="M 191 3500 
L 800 3500 
L 1894 563 
L 2988 3500 
L 3597 3500 
L 2284 0 
L 1503 0 
L 191 3500 
z
" transform="scale(0.015625)"/>
      <path id="DejaVuSans-73" d="M 2834 3397 
L 2834 2853 
Q 2591 2978 2328 3040 
Q 2066 3103 1784 3103 
Q 1356 3103 1142 2972 
Q 928 2841 928 2578 
Q 928 2378 1081 2264 
Q 1234 2150 1697 2047 
L 1894 2003 
Q 2506 1872 2764 1633 
Q 3022 1394 3022 966 
Q 3022 478 2636 193 
Q 2250 -91 1575 -91 
Q 1294 -91 989 -36 
Q 684 19 347 128 
L 347 722 
Q 666 556 975 473 
Q 1284 391 1588 391 
Q 1994 391 2212 530 
Q 2431 669 2431 922 
Q 2431 1156 2273 1281 
Q 2116 1406 1581 1522 
L 1381 1569 
Q 847 1681 609 1914 
Q 372 2147 372 2553 
Q 372 3047 722 3315 
Q 1072 3584 1716 3584 
Q 2034 3584 2315 3537 
Q 2597 3491 2834 3397 
z
" transform="scale(0.015625)"/>
     </defs>
     <use xlink:href="#DejaVuSans-50"/>
     <use xlink:href="#DejaVuSans-72" x="58.552734"/>
     <use xlink:href="#DejaVuSans-65" x="97.416016"/>
     <use xlink:href="#DejaVuSans-64" x="158.939453"/>
     <use xlink:href="#DejaVuSans-69" x="222.416016"/>
     <use xlink:href="#DejaVuSans-63" x="250.199219"/>
     <use xlink:href="#DejaVuSans-74" x="305.179688"/>
     <use xlink:href="#DejaVuSans-69" x="344.388672"/>
     <use xlink:href="#DejaVuSans-6f" x="372.171875"/>
     <use xlink:href="#DejaVuSans-6e" x="433.353516"/>
     <use xlink:href="#DejaVuSans-20" x="496.732422"/>
     <use xlink:href="#DejaVuSans-43" x="528.519531"/>
     <use xlink:href="#DejaVuSans-75" x="598.34375"/>
     <use xlink:href="#DejaVuSans-72" x="661.722656"/>
     <use xlink:href="#DejaVuSans-76" x="702.835938"/>
     <use xlink:href="#DejaVuSans-65" x="762.015625"/>
     <use xlink:href="#DejaVuSans-73" x="823.539062"/>
    </g>
   </g>
   <g id="legend_1">
    <g id="patch_7">
     <path d="M 52 124.590625 
L 195.94375 124.590625 
Q 197.94375 124.590625 197.94375 122.590625 
L 197.94375 50.2 
Q 197.94375 48.2 195.94375 48.2 
L 52 48.2 
Q 50 48.2 50 50.2 
L 50 122.590625 
Q 50 124.590625 52 124.590625 
z
" style="fill: #ffffff; opacity: 0.8; stroke: #cccccc; stroke-linejoin: miter"/>
    </g>
    <g id="line2d_16">
     <path d="M 54 56.298437 
L 64 56.298437 
L 74 56.298437 
" style="fill: none; stroke: #1f77b4; stroke-width: 1.5; stroke-linecap: square"/>
    </g>
    <g id="text_12">
     <!-- Function with noise -->
     <g transform="translate(82 59.798437)scale(0.1 -0.1)">
      <defs>
       <path id="DejaVuSans-46" d="M 628 4666 
L 3309 4666 
L 3309 4134 
L 1259 4134 
L 1259 2759 
L 3109 2759 
L 3109 2228 
L 1259 2228 
L 1259 0 
L 628 0 
L 628 4666 
z
" transform="scale(0.015625)"/>
       <path id="DejaVuSans-77" d="M 269 3500 
L 844 3500 
L 1563 769 
L 2278 3500 
L 2956 3500 
L 3675 769 
L 4391 3500 
L 4966 3500 
L 4050 0 
L 3372 0 
L 2619 2869 
L 1863 0 
L 1184 0 
L 269 3500 
z
" transform="scale(0.015625)"/>
       <path id="DejaVuSans-68" d="M 3513 2113 
L 3513 0 
L 2938 0 
L 2938 2094 
Q 2938 2591 2744 2837 
Q 2550 3084 2163 3084 
Q 1697 3084 1428 2787 
Q 1159 2491 1159 1978 
L 1159 0 
L 581 0 
L 581 4863 
L 1159 4863 
L 1159 2956 
Q 1366 3272 1645 3428 
Q 1925 3584 2291 3584 
Q 2894 3584 3203 3211 
Q 3513 2838 3513 2113 
z
" transform="scale(0.015625)"/>
      </defs>
      <use xlink:href="#DejaVuSans-46"/>
      <use xlink:href="#DejaVuSans-75" x="52.019531"/>
      <use xlink:href="#DejaVuSans-6e" x="115.398438"/>
      <use xlink:href="#DejaVuSans-63" x="178.777344"/>
      <use xlink:href="#DejaVuSans-74" x="233.757812"/>
      <use xlink:href="#DejaVuSans-69" x="272.966797"/>
      <use xlink:href="#DejaVuSans-6f" x="300.75"/>
      <use xlink:href="#DejaVuSans-6e" x="361.931641"/>
      <use xlink:href="#DejaVuSans-20" x="425.310547"/>
      <use xlink:href="#DejaVuSans-77" x="457.097656"/>
      <use xlink:href="#DejaVuSans-69" x="538.884766"/>
      <use xlink:href="#DejaVuSans-74" x="566.667969"/>
      <use xlink:href="#DejaVuSans-68" x="605.876953"/>
      <use xlink:href="#DejaVuSans-20" x="669.255859"/>
      <use xlink:href="#DejaVuSans-6e" x="701.042969"/>
      <use xlink:href="#DejaVuSans-6f" x="764.421875"/>
      <use xlink:href="#DejaVuSans-69" x="825.603516"/>
      <use xlink:href="#DejaVuSans-73" x="853.386719"/>
      <use xlink:href="#DejaVuSans-65" x="905.486328"/>
     </g>
    </g>
    <g id="line2d_17">
     <path d="M 54 70.976562 
L 64 70.976562 
L 74 70.976562 
" style="fill: none; stroke: #ff7f0e; stroke-width: 1.5; stroke-linecap: square"/>
    </g>
    <g id="text_13">
     <!-- Average of Predictions -->
     <g transform="translate(82 74.476562)scale(0.1 -0.1)">
      <defs>
       <path id="DejaVuSans-41" d="M 2188 4044 
L 1331 1722 
L 3047 1722 
L 2188 4044 
z
M 1831 4666 
L 2547 4666 
L 4325 0 
L 3669 0 
L 3244 1197 
L 1141 1197 
L 716 0 
L 50 0 
L 1831 4666 
z
" transform="scale(0.015625)"/>
       <path id="DejaVuSans-61" d="M 2194 1759 
Q 1497 1759 1228 1600 
Q 959 1441 959 1056 
Q 959 750 1161 570 
Q 1363 391 1709 391 
Q 2188 391 2477 730 
Q 2766 1069 2766 1631 
L 2766 1759 
L 2194 1759 
z
M 3341 1997 
L 3341 0 
L 2766 0 
L 2766 531 
Q 2569 213 2275 61 
Q 1981 -91 1556 -91 
Q 1019 -91 701 211 
Q 384 513 384 1019 
Q 384 1609 779 1909 
Q 1175 2209 1959 2209 
L 2766 2209 
L 2766 2266 
Q 2766 2663 2505 2880 
Q 2244 3097 1772 3097 
Q 1472 3097 1187 3025 
Q 903 2953 641 2809 
L 641 3341 
Q 956 3463 1253 3523 
Q 1550 3584 1831 3584 
Q 2591 3584 2966 3190 
Q 3341 2797 3341 1997 
z
" transform="scale(0.015625)"/>
       <path id="DejaVuSans-67" d="M 2906 1791 
Q 2906 2416 2648 2759 
Q 2391 3103 1925 3103 
Q 1463 3103 1205 2759 
Q 947 2416 947 1791 
Q 947 1169 1205 825 
Q 1463 481 1925 481 
Q 2391 481 2648 825 
Q 2906 1169 2906 1791 
z
M 3481 434 
Q 3481 -459 3084 -895 
Q 2688 -1331 1869 -1331 
Q 1566 -1331 1297 -1286 
Q 1028 -1241 775 -1147 
L 775 -588 
Q 1028 -725 1275 -790 
Q 1522 -856 1778 -856 
Q 2344 -856 2625 -561 
Q 2906 -266 2906 331 
L 2906 616 
Q 2728 306 2450 153 
Q 2172 0 1784 0 
Q 1141 0 747 490 
Q 353 981 353 1791 
Q 353 2603 747 3093 
Q 1141 3584 1784 3584 
Q 2172 3584 2450 3431 
Q 2728 3278 2906 2969 
L 2906 3500 
L 3481 3500 
L 3481 434 
z
" transform="scale(0.015625)"/>
       <path id="DejaVuSans-66" d="M 2375 4863 
L 2375 4384 
L 1825 4384 
Q 1516 4384 1395 4259 
Q 1275 4134 1275 3809 
L 1275 3500 
L 2222 3500 
L 2222 3053 
L 1275 3053 
L 1275 0 
L 697 0 
L 697 3053 
L 147 3053 
L 147 3500 
L 697 3500 
L 697 3744 
Q 697 4328 969 4595 
Q 1241 4863 1831 4863 
L 2375 4863 
z
" transform="scale(0.015625)"/>
      </defs>
      <use xlink:href="#DejaVuSans-41"/>
      <use xlink:href="#DejaVuSans-76" x="62.533203"/>
      <use xlink:href="#DejaVuSans-65" x="121.712891"/>
      <use xlink:href="#DejaVuSans-72" x="183.236328"/>
      <use xlink:href="#DejaVuSans-61" x="224.349609"/>
      <use xlink:href="#DejaVuSans-67" x="285.628906"/>
      <use xlink:href="#DejaVuSans-65" x="349.105469"/>
      <use xlink:href="#DejaVuSans-20" x="410.628906"/>
      <use xlink:href="#DejaVuSans-6f" x="442.416016"/>
      <use xlink:href="#DejaVuSans-66" x="503.597656"/>
      <use xlink:href="#DejaVuSans-20" x="538.802734"/>
      <use xlink:href="#DejaVuSans-50" x="570.589844"/>
      <use xlink:href="#DejaVuSans-72" x="629.142578"/>
      <use xlink:href="#DejaVuSans-65" x="668.005859"/>
      <use xlink:href="#DejaVuSans-64" x="729.529297"/>
      <use xlink:href="#DejaVuSans-69" x="793.005859"/>
      <use xlink:href="#DejaVuSans-63" x="820.789062"/>
      <use xlink:href="#DejaVuSans-74" x="875.769531"/>
      <use xlink:href="#DejaVuSans-69" x="914.978516"/>
      <use xlink:href="#DejaVuSans-6f" x="942.761719"/>
      <use xlink:href="#DejaVuSans-6e" x="1003.943359"/>
      <use xlink:href="#DejaVuSans-73" x="1067.322266"/>
     </g>
    </g>
    <g id="line2d_18">
     <path d="M 54 85.654687 
L 64 85.654687 
L 74 85.654687 
" style="fill: none; stroke: #2ca02c; stroke-width: 1.5; stroke-linecap: square"/>
    </g>
    <g id="text_14">
     <!-- Prediction 1 -->
     <g transform="translate(82 89.154687)scale(0.1 -0.1)">
      <use xlink:href="#DejaVuSans-50"/>
      <use xlink:href="#DejaVuSans-72" x="58.552734"/>
      <use xlink:href="#DejaVuSans-65" x="97.416016"/>
      <use xlink:href="#DejaVuSans-64" x="158.939453"/>
      <use xlink:href="#DejaVuSans-69" x="222.416016"/>
      <use xlink:href="#DejaVuSans-63" x="250.199219"/>
      <use xlink:href="#DejaVuSans-74" x="305.179688"/>
      <use xlink:href="#DejaVuSans-69" x="344.388672"/>
      <use xlink:href="#DejaVuSans-6f" x="372.171875"/>
      <use xlink:href="#DejaVuSans-6e" x="433.353516"/>
      <use xlink:href="#DejaVuSans-20" x="496.732422"/>
      <use xlink:href="#DejaVuSans-31" x="528.519531"/>
     </g>
    </g>
    <g id="line2d_19">
     <path d="M 54 100.332812 
L 64 100.332812 
L 74 100.332812 
" style="fill: none; stroke: #d62728; stroke-width: 1.5; stroke-linecap: square"/>
    </g>
    <g id="text_15">
     <!-- Prediction 2 -->
     <g transform="translate(82 103.832812)scale(0.1 -0.1)">
      <use xlink:href="#DejaVuSans-50"/>
      <use xlink:href="#DejaVuSans-72" x="58.552734"/>
      <use xlink:href="#DejaVuSans-65" x="97.416016"/>
      <use xlink:href="#DejaVuSans-64" x="158.939453"/>
      <use xlink:href="#DejaVuSans-69" x="222.416016"/>
      <use xlink:href="#DejaVuSans-63" x="250.199219"/>
      <use xlink:href="#DejaVuSans-74" x="305.179688"/>
      <use xlink:href="#DejaVuSans-69" x="344.388672"/>
      <use xlink:href="#DejaVuSans-6f" x="372.171875"/>
      <use xlink:href="#DejaVuSans-6e" x="433.353516"/>
      <use xlink:href="#DejaVuSans-20" x="496.732422"/>
      <use xlink:href="#DejaVuSans-32" x="528.519531"/>
     </g>
    </g>
    <g id="line2d_20">
     <path d="M 54 115.010937 
L 64 115.010937 
L 74 115.010937 
" style="fill: none; stroke: #9467bd; stroke-width: 1.5; stroke-linecap: square"/>
    </g>
    <g id="text_16">
     <!-- Prediction 3 -->
     <g transform="translate(82 118.510937)scale(0.1 -0.1)">
      <use xlink:href="#DejaVuSans-50"/>
      <use xlink:href="#DejaVuSans-72" x="58.552734"/>
      <use xlink:href="#DejaVuSans-65" x="97.416016"/>
      <use xlink:href="#DejaVuSans-64" x="158.939453"/>
      <use xlink:href="#DejaVuSans-69" x="222.416016"/>
      <use xlink:href="#DejaVuSans-63" x="250.199219"/>
      <use xlink:href="#DejaVuSans-74" x="305.179688"/>
      <use xlink:href="#DejaVuSans-69" x="344.388672"/>
      <use xlink:href="#DejaVuSans-6f" x="372.171875"/>
      <use xlink:href="#DejaVuSans-6e" x="433.353516"/>
      <use xlink:href="#DejaVuSans-20" x="496.732422"/>
      <use xlink:href="#DejaVuSans-33" x="528.519531"/>
     </g>
    </g>
   </g>
  </g>
 </g>
 <defs>
  <clipPath id="p1d4fe39075">
   <rect x="45" y="43.2" width="279" height="277.2"/>
  </clipPath>
 </defs>
</svg>
