<?xml version="1.0" encoding="utf-8" standalone="no"?>
<!DOCTYPE svg PUBLIC "-//W3C//DTD SVG 1.1//EN"
  "http://www.w3.org/Graphics/SVG/1.1/DTD/svg11.dtd">
<svg xmlns:xlink="http://www.w3.org/1999/xlink" width="360pt" height="360pt" viewBox="0 0 360 360" xmlns="http://www.w3.org/2000/svg" version="1.1">
 <metadata>
  <rdf:RDF xmlns:dc="http://purl.org/dc/elements/1.1/" xmlns:cc="http://creativecommons.org/ns#" xmlns:rdf="http://www.w3.org/1999/02/22-rdf-syntax-ns#">
   <cc:Work>
    <dc:type rdf:resource="http://purl.org/dc/dcmitype/StillImage"/>
    <dc:date>2022-11-16T09:47:43.904267</dc:date>
    <dc:format>image/svg+xml</dc:format>
    <dc:creator>
     <cc:Agent>
      <dc:title>Matplotlib v3.5.3, https://matplotlib.org/</dc:title>
     </cc:Agent>
    </dc:creator>
   </cc:Work>
  </rdf:RDF>
 </metadata>
 <defs>
  <style type="text/css">*{stroke-linejoin: round; stroke-linecap: butt}</style>
 </defs>
 <g id="figure_1">
  <g id="patch_1">
   <path d="M 0 360 
L 360 360 
L 360 0 
L 0 0 
z
" style="fill: #ffffff"/>
  </g>
  <g id="axes_1">
   <g id="patch_2">
    <path d="M 45 320.4 
L 324 320.4 
L 324 43.2 
L 45 43.2 
z
" style="fill: #ffffff"/>
   </g>
   <g id="matplotlib.axis_1">
    <g id="xtick_1">
     <g id="line2d_1">
      <defs>
       <path id="mdb0c4c3a45" d="M 0 0 
L 0 3.5 
" style="stroke: #000000; stroke-width: 0.8"/>
      </defs>
      <g>
       <use xlink:href="#mdb0c4c3a45" x="83.045455" y="320.4" style="stroke: #000000; stroke-width: 0.8"/>
      </g>
     </g>
     <g id="text_1">
      <!-- −2 -->
      <g transform="translate(75.674361 334.998438)scale(0.1 -0.1)">
       <defs>
        <path id="DejaVuSans-2212" d="M 678 2272 
L 4684 2272 
L 4684 1741 
L 678 1741 
L 678 2272 
z
" transform="scale(0.015625)"/>
        <path id="DejaVuSans-32" d="M 1228 531 
L 3431 531 
L 3431 0 
L 469 0 
L 469 531 
Q 828 903 1448 1529 
Q 2069 2156 2228 2338 
Q 2531 2678 2651 2914 
Q 2772 3150 2772 3378 
Q 2772 3750 2511 3984 
Q 2250 4219 1831 4219 
Q 1534 4219 1204 4116 
Q 875 4013 500 3803 
L 500 4441 
Q 881 4594 1212 4672 
Q 1544 4750 1819 4750 
Q 2544 4750 2975 4387 
Q 3406 4025 3406 3419 
Q 3406 3131 3298 2873 
Q 3191 2616 2906 2266 
Q 2828 2175 2409 1742 
Q 1991 1309 1228 531 
z
" transform="scale(0.015625)"/>
       </defs>
       <use xlink:href="#DejaVuSans-2212"/>
       <use xlink:href="#DejaVuSans-32" x="83.789062"/>
      </g>
     </g>
    </g>
    <g id="xtick_2">
     <g id="line2d_2">
      <g>
       <use xlink:href="#mdb0c4c3a45" x="133.772727" y="320.4" style="stroke: #000000; stroke-width: 0.8"/>
      </g>
     </g>
     <g id="text_2">
      <!-- −1 -->
      <g transform="translate(126.401634 334.998438)scale(0.1 -0.1)">
       <defs>
        <path id="DejaVuSans-31" d="M 794 531 
L 1825 531 
L 1825 4091 
L 703 3866 
L 703 4441 
L 1819 4666 
L 2450 4666 
L 2450 531 
L 3481 531 
L 3481 0 
L 794 0 
L 794 531 
z
" transform="scale(0.015625)"/>
       </defs>
       <use xlink:href="#DejaVuSans-2212"/>
       <use xlink:href="#DejaVuSans-31" x="83.789062"/>
      </g>
     </g>
    </g>
    <g id="xtick_3">
     <g id="line2d_3">
      <g>
       <use xlink:href="#mdb0c4c3a45" x="184.5" y="320.4" style="stroke: #000000; stroke-width: 0.8"/>
      </g>
     </g>
     <g id="text_3">
      <!-- 0 -->
      <g transform="translate(181.31875 334.998438)scale(0.1 -0.1)">
       <defs>
        <path id="DejaVuSans-30" d="M 2034 4250 
Q 1547 4250 1301 3770 
Q 1056 3291 1056 2328 
Q 1056 1369 1301 889 
Q 1547 409 2034 409 
Q 2525 409 2770 889 
Q 3016 1369 3016 2328 
Q 3016 3291 2770 3770 
Q 2525 4250 2034 4250 
z
M 2034 4750 
Q 2819 4750 3233 4129 
Q 3647 3509 3647 2328 
Q 3647 1150 3233 529 
Q 2819 -91 2034 -91 
Q 1250 -91 836 529 
Q 422 1150 422 2328 
Q 422 3509 836 4129 
Q 1250 4750 2034 4750 
z
" transform="scale(0.015625)"/>
       </defs>
       <use xlink:href="#DejaVuSans-30"/>
      </g>
     </g>
    </g>
    <g id="xtick_4">
     <g id="line2d_4">
      <g>
       <use xlink:href="#mdb0c4c3a45" x="235.227273" y="320.4" style="stroke: #000000; stroke-width: 0.8"/>
      </g>
     </g>
     <g id="text_4">
      <!-- 1 -->
      <g transform="translate(232.046023 334.998438)scale(0.1 -0.1)">
       <use xlink:href="#DejaVuSans-31"/>
      </g>
     </g>
    </g>
    <g id="xtick_5">
     <g id="line2d_5">
      <g>
       <use xlink:href="#mdb0c4c3a45" x="285.954545" y="320.4" style="stroke: #000000; stroke-width: 0.8"/>
      </g>
     </g>
     <g id="text_5">
      <!-- 2 -->
      <g transform="translate(282.773295 334.998438)scale(0.1 -0.1)">
       <use xlink:href="#DejaVuSans-32"/>
      </g>
     </g>
    </g>
   </g>
   <g id="matplotlib.axis_2">
    <g id="ytick_1">
     <g id="line2d_6">
      <defs>
       <path id="mab628de219" d="M 0 0 
L -3.5 0 
" style="stroke: #000000; stroke-width: 0.8"/>
      </defs>
      <g>
       <use xlink:href="#mab628de219" x="45" y="286.153578" style="stroke: #000000; stroke-width: 0.8"/>
      </g>
     </g>
     <g id="text_6">
      <!-- $\mathdefault{10^{-4}}$ -->
      <g transform="translate(14.5 289.952796)scale(0.1 -0.1)">
       <defs>
        <path id="DejaVuSans-34" d="M 2419 4116 
L 825 1625 
L 2419 1625 
L 2419 4116 
z
M 2253 4666 
L 3047 4666 
L 3047 1625 
L 3713 1625 
L 3713 1100 
L 3047 1100 
L 3047 0 
L 2419 0 
L 2419 1100 
L 313 1100 
L 313 1709 
L 2253 4666 
z
" transform="scale(0.015625)"/>
       </defs>
       <use xlink:href="#DejaVuSans-31" transform="translate(0 0.684375)"/>
       <use xlink:href="#DejaVuSans-30" transform="translate(63.623047 0.684375)"/>
       <use xlink:href="#DejaVuSans-2212" transform="translate(128.203125 38.965625)scale(0.7)"/>
       <use xlink:href="#DejaVuSans-34" transform="translate(186.855469 38.965625)scale(0.7)"/>
      </g>
     </g>
    </g>
    <g id="ytick_2">
     <g id="line2d_7">
      <g>
       <use xlink:href="#mab628de219" x="45" y="240.141221" style="stroke: #000000; stroke-width: 0.8"/>
      </g>
     </g>
     <g id="text_7">
      <!-- $\mathdefault{10^{-3}}$ -->
      <g transform="translate(14.5 243.94044)scale(0.1 -0.1)">
       <defs>
        <path id="DejaVuSans-33" d="M 2597 2516 
Q 3050 2419 3304 2112 
Q 3559 1806 3559 1356 
Q 3559 666 3084 287 
Q 2609 -91 1734 -91 
Q 1441 -91 1130 -33 
Q 819 25 488 141 
L 488 750 
Q 750 597 1062 519 
Q 1375 441 1716 441 
Q 2309 441 2620 675 
Q 2931 909 2931 1356 
Q 2931 1769 2642 2001 
Q 2353 2234 1838 2234 
L 1294 2234 
L 1294 2753 
L 1863 2753 
Q 2328 2753 2575 2939 
Q 2822 3125 2822 3475 
Q 2822 3834 2567 4026 
Q 2313 4219 1838 4219 
Q 1578 4219 1281 4162 
Q 984 4106 628 3988 
L 628 4550 
Q 988 4650 1302 4700 
Q 1616 4750 1894 4750 
Q 2613 4750 3031 4423 
Q 3450 4097 3450 3541 
Q 3450 3153 3228 2886 
Q 3006 2619 2597 2516 
z
" transform="scale(0.015625)"/>
       </defs>
       <use xlink:href="#DejaVuSans-31" transform="translate(0 0.765625)"/>
       <use xlink:href="#DejaVuSans-30" transform="translate(63.623047 0.765625)"/>
       <use xlink:href="#DejaVuSans-2212" transform="translate(128.203125 39.046875)scale(0.7)"/>
       <use xlink:href="#DejaVuSans-33" transform="translate(186.855469 39.046875)scale(0.7)"/>
      </g>
     </g>
    </g>
    <g id="ytick_3">
     <g id="line2d_8">
      <g>
       <use xlink:href="#mab628de219" x="45" y="194.128865" style="stroke: #000000; stroke-width: 0.8"/>
      </g>
     </g>
     <g id="text_8">
      <!-- $\mathdefault{10^{-2}}$ -->
      <g transform="translate(14.5 197.928083)scale(0.1 -0.1)">
       <use xlink:href="#DejaVuSans-31" transform="translate(0 0.765625)"/>
       <use xlink:href="#DejaVuSans-30" transform="translate(63.623047 0.765625)"/>
       <use xlink:href="#DejaVuSans-2212" transform="translate(128.203125 39.046875)scale(0.7)"/>
       <use xlink:href="#DejaVuSans-32" transform="translate(186.855469 39.046875)scale(0.7)"/>
      </g>
     </g>
    </g>
    <g id="ytick_4">
     <g id="line2d_9">
      <g>
       <use xlink:href="#mab628de219" x="45" y="148.116508" style="stroke: #000000; stroke-width: 0.8"/>
      </g>
     </g>
     <g id="text_9">
      <!-- $\mathdefault{10^{-1}}$ -->
      <g transform="translate(14.5 151.915727)scale(0.1 -0.1)">
       <use xlink:href="#DejaVuSans-31" transform="translate(0 0.684375)"/>
       <use xlink:href="#DejaVuSans-30" transform="translate(63.623047 0.684375)"/>
       <use xlink:href="#DejaVuSans-2212" transform="translate(128.203125 38.965625)scale(0.7)"/>
       <use xlink:href="#DejaVuSans-31" transform="translate(186.855469 38.965625)scale(0.7)"/>
      </g>
     </g>
    </g>
    <g id="ytick_5">
     <g id="line2d_10">
      <g>
       <use xlink:href="#mab628de219" x="45" y="102.104152" style="stroke: #000000; stroke-width: 0.8"/>
      </g>
     </g>
     <g id="text_10">
      <!-- $\mathdefault{10^{0}}$ -->
      <g transform="translate(20.4 105.903371)scale(0.1 -0.1)">
       <use xlink:href="#DejaVuSans-31" transform="translate(0 0.765625)"/>
       <use xlink:href="#DejaVuSans-30" transform="translate(63.623047 0.765625)"/>
       <use xlink:href="#DejaVuSans-30" transform="translate(128.203125 39.046875)scale(0.7)"/>
      </g>
     </g>
    </g>
    <g id="ytick_6">
     <g id="line2d_11">
      <g>
       <use xlink:href="#mab628de219" x="45" y="56.091795" style="stroke: #000000; stroke-width: 0.8"/>
      </g>
     </g>
     <g id="text_11">
      <!-- $\mathdefault{10^{1}}$ -->
      <g transform="translate(20.4 59.891014)scale(0.1 -0.1)">
       <use xlink:href="#DejaVuSans-31" transform="translate(0 0.684375)"/>
       <use xlink:href="#DejaVuSans-30" transform="translate(63.623047 0.684375)"/>
       <use xlink:href="#DejaVuSans-31" transform="translate(128.203125 38.965625)scale(0.7)"/>
      </g>
     </g>
    </g>
    <g id="ytick_7">
     <g id="line2d_12">
      <defs>
       <path id="m6bcbd3345f" d="M 0 0 
L -2 0 
" style="stroke: #000000; stroke-width: 0.6"/>
      </defs>
      <g>
       <use xlink:href="#m6bcbd3345f" x="45" y="318.314835" style="stroke: #000000; stroke-width: 0.6"/>
      </g>
     </g>
    </g>
    <g id="ytick_8">
     <g id="line2d_13">
      <g>
       <use xlink:href="#m6bcbd3345f" x="45" y="310.212461" style="stroke: #000000; stroke-width: 0.6"/>
      </g>
     </g>
    </g>
    <g id="ytick_9">
     <g id="line2d_14">
      <g>
       <use xlink:href="#m6bcbd3345f" x="45" y="304.463735" style="stroke: #000000; stroke-width: 0.6"/>
      </g>
     </g>
    </g>
    <g id="ytick_10">
     <g id="line2d_15">
      <g>
       <use xlink:href="#m6bcbd3345f" x="45" y="300.004677" style="stroke: #000000; stroke-width: 0.6"/>
      </g>
     </g>
    </g>
    <g id="ytick_11">
     <g id="line2d_16">
      <g>
       <use xlink:href="#m6bcbd3345f" x="45" y="296.361361" style="stroke: #000000; stroke-width: 0.6"/>
      </g>
     </g>
    </g>
    <g id="ytick_12">
     <g id="line2d_17">
      <g>
       <use xlink:href="#m6bcbd3345f" x="45" y="293.280982" style="stroke: #000000; stroke-width: 0.6"/>
      </g>
     </g>
    </g>
    <g id="ytick_13">
     <g id="line2d_18">
      <g>
       <use xlink:href="#m6bcbd3345f" x="45" y="290.612636" style="stroke: #000000; stroke-width: 0.6"/>
      </g>
     </g>
    </g>
    <g id="ytick_14">
     <g id="line2d_19">
      <g>
       <use xlink:href="#m6bcbd3345f" x="45" y="288.258988" style="stroke: #000000; stroke-width: 0.6"/>
      </g>
     </g>
    </g>
    <g id="ytick_15">
     <g id="line2d_20">
      <g>
       <use xlink:href="#m6bcbd3345f" x="45" y="272.302478" style="stroke: #000000; stroke-width: 0.6"/>
      </g>
     </g>
    </g>
    <g id="ytick_16">
     <g id="line2d_21">
      <g>
       <use xlink:href="#m6bcbd3345f" x="45" y="264.200104" style="stroke: #000000; stroke-width: 0.6"/>
      </g>
     </g>
    </g>
    <g id="ytick_17">
     <g id="line2d_22">
      <g>
       <use xlink:href="#m6bcbd3345f" x="45" y="258.451379" style="stroke: #000000; stroke-width: 0.6"/>
      </g>
     </g>
    </g>
    <g id="ytick_18">
     <g id="line2d_23">
      <g>
       <use xlink:href="#m6bcbd3345f" x="45" y="253.992321" style="stroke: #000000; stroke-width: 0.6"/>
      </g>
     </g>
    </g>
    <g id="ytick_19">
     <g id="line2d_24">
      <g>
       <use xlink:href="#m6bcbd3345f" x="45" y="250.349005" style="stroke: #000000; stroke-width: 0.6"/>
      </g>
     </g>
    </g>
    <g id="ytick_20">
     <g id="line2d_25">
      <g>
       <use xlink:href="#m6bcbd3345f" x="45" y="247.268625" style="stroke: #000000; stroke-width: 0.6"/>
      </g>
     </g>
    </g>
    <g id="ytick_21">
     <g id="line2d_26">
      <g>
       <use xlink:href="#m6bcbd3345f" x="45" y="244.600279" style="stroke: #000000; stroke-width: 0.6"/>
      </g>
     </g>
    </g>
    <g id="ytick_22">
     <g id="line2d_27">
      <g>
       <use xlink:href="#m6bcbd3345f" x="45" y="242.246631" style="stroke: #000000; stroke-width: 0.6"/>
      </g>
     </g>
    </g>
    <g id="ytick_23">
     <g id="line2d_28">
      <g>
       <use xlink:href="#m6bcbd3345f" x="45" y="226.290122" style="stroke: #000000; stroke-width: 0.6"/>
      </g>
     </g>
    </g>
    <g id="ytick_24">
     <g id="line2d_29">
      <g>
       <use xlink:href="#m6bcbd3345f" x="45" y="218.187748" style="stroke: #000000; stroke-width: 0.6"/>
      </g>
     </g>
    </g>
    <g id="ytick_25">
     <g id="line2d_30">
      <g>
       <use xlink:href="#m6bcbd3345f" x="45" y="212.439022" style="stroke: #000000; stroke-width: 0.6"/>
      </g>
     </g>
    </g>
    <g id="ytick_26">
     <g id="line2d_31">
      <g>
       <use xlink:href="#m6bcbd3345f" x="45" y="207.979964" style="stroke: #000000; stroke-width: 0.6"/>
      </g>
     </g>
    </g>
    <g id="ytick_27">
     <g id="line2d_32">
      <g>
       <use xlink:href="#m6bcbd3345f" x="45" y="204.336648" style="stroke: #000000; stroke-width: 0.6"/>
      </g>
     </g>
    </g>
    <g id="ytick_28">
     <g id="line2d_33">
      <g>
       <use xlink:href="#m6bcbd3345f" x="45" y="201.256269" style="stroke: #000000; stroke-width: 0.6"/>
      </g>
     </g>
    </g>
    <g id="ytick_29">
     <g id="line2d_34">
      <g>
       <use xlink:href="#m6bcbd3345f" x="45" y="198.587923" style="stroke: #000000; stroke-width: 0.6"/>
      </g>
     </g>
    </g>
    <g id="ytick_30">
     <g id="line2d_35">
      <g>
       <use xlink:href="#m6bcbd3345f" x="45" y="196.234275" style="stroke: #000000; stroke-width: 0.6"/>
      </g>
     </g>
    </g>
    <g id="ytick_31">
     <g id="line2d_36">
      <g>
       <use xlink:href="#m6bcbd3345f" x="45" y="180.277765" style="stroke: #000000; stroke-width: 0.6"/>
      </g>
     </g>
    </g>
    <g id="ytick_32">
     <g id="line2d_37">
      <g>
       <use xlink:href="#m6bcbd3345f" x="45" y="172.175391" style="stroke: #000000; stroke-width: 0.6"/>
      </g>
     </g>
    </g>
    <g id="ytick_33">
     <g id="line2d_38">
      <g>
       <use xlink:href="#m6bcbd3345f" x="45" y="166.426666" style="stroke: #000000; stroke-width: 0.6"/>
      </g>
     </g>
    </g>
    <g id="ytick_34">
     <g id="line2d_39">
      <g>
       <use xlink:href="#m6bcbd3345f" x="45" y="161.967608" style="stroke: #000000; stroke-width: 0.6"/>
      </g>
     </g>
    </g>
    <g id="ytick_35">
     <g id="line2d_40">
      <g>
       <use xlink:href="#m6bcbd3345f" x="45" y="158.324292" style="stroke: #000000; stroke-width: 0.6"/>
      </g>
     </g>
    </g>
    <g id="ytick_36">
     <g id="line2d_41">
      <g>
       <use xlink:href="#m6bcbd3345f" x="45" y="155.243912" style="stroke: #000000; stroke-width: 0.6"/>
      </g>
     </g>
    </g>
    <g id="ytick_37">
     <g id="line2d_42">
      <g>
       <use xlink:href="#m6bcbd3345f" x="45" y="152.575566" style="stroke: #000000; stroke-width: 0.6"/>
      </g>
     </g>
    </g>
    <g id="ytick_38">
     <g id="line2d_43">
      <g>
       <use xlink:href="#m6bcbd3345f" x="45" y="150.221918" style="stroke: #000000; stroke-width: 0.6"/>
      </g>
     </g>
    </g>
    <g id="ytick_39">
     <g id="line2d_44">
      <g>
       <use xlink:href="#m6bcbd3345f" x="45" y="134.265409" style="stroke: #000000; stroke-width: 0.6"/>
      </g>
     </g>
    </g>
    <g id="ytick_40">
     <g id="line2d_45">
      <g>
       <use xlink:href="#m6bcbd3345f" x="45" y="126.163035" style="stroke: #000000; stroke-width: 0.6"/>
      </g>
     </g>
    </g>
    <g id="ytick_41">
     <g id="line2d_46">
      <g>
       <use xlink:href="#m6bcbd3345f" x="45" y="120.414309" style="stroke: #000000; stroke-width: 0.6"/>
      </g>
     </g>
    </g>
    <g id="ytick_42">
     <g id="line2d_47">
      <g>
       <use xlink:href="#m6bcbd3345f" x="45" y="115.955251" style="stroke: #000000; stroke-width: 0.6"/>
      </g>
     </g>
    </g>
    <g id="ytick_43">
     <g id="line2d_48">
      <g>
       <use xlink:href="#m6bcbd3345f" x="45" y="112.311936" style="stroke: #000000; stroke-width: 0.6"/>
      </g>
     </g>
    </g>
    <g id="ytick_44">
     <g id="line2d_49">
      <g>
       <use xlink:href="#m6bcbd3345f" x="45" y="109.231556" style="stroke: #000000; stroke-width: 0.6"/>
      </g>
     </g>
    </g>
    <g id="ytick_45">
     <g id="line2d_50">
      <g>
       <use xlink:href="#m6bcbd3345f" x="45" y="106.56321" style="stroke: #000000; stroke-width: 0.6"/>
      </g>
     </g>
    </g>
    <g id="ytick_46">
     <g id="line2d_51">
      <g>
       <use xlink:href="#m6bcbd3345f" x="45" y="104.209562" style="stroke: #000000; stroke-width: 0.6"/>
      </g>
     </g>
    </g>
    <g id="ytick_47">
     <g id="line2d_52">
      <g>
       <use xlink:href="#m6bcbd3345f" x="45" y="88.253052" style="stroke: #000000; stroke-width: 0.6"/>
      </g>
     </g>
    </g>
    <g id="ytick_48">
     <g id="line2d_53">
      <g>
       <use xlink:href="#m6bcbd3345f" x="45" y="80.150679" style="stroke: #000000; stroke-width: 0.6"/>
      </g>
     </g>
    </g>
    <g id="ytick_49">
     <g id="line2d_54">
      <g>
       <use xlink:href="#m6bcbd3345f" x="45" y="74.401953" style="stroke: #000000; stroke-width: 0.6"/>
      </g>
     </g>
    </g>
    <g id="ytick_50">
     <g id="line2d_55">
      <g>
       <use xlink:href="#m6bcbd3345f" x="45" y="69.942895" style="stroke: #000000; stroke-width: 0.6"/>
      </g>
     </g>
    </g>
    <g id="ytick_51">
     <g id="line2d_56">
      <g>
       <use xlink:href="#m6bcbd3345f" x="45" y="66.299579" style="stroke: #000000; stroke-width: 0.6"/>
      </g>
     </g>
    </g>
    <g id="ytick_52">
     <g id="line2d_57">
      <g>
       <use xlink:href="#m6bcbd3345f" x="45" y="63.2192" style="stroke: #000000; stroke-width: 0.6"/>
      </g>
     </g>
    </g>
    <g id="ytick_53">
     <g id="line2d_58">
      <g>
       <use xlink:href="#m6bcbd3345f" x="45" y="60.550853" style="stroke: #000000; stroke-width: 0.6"/>
      </g>
     </g>
    </g>
    <g id="ytick_54">
     <g id="line2d_59">
      <g>
       <use xlink:href="#m6bcbd3345f" x="45" y="58.197205" style="stroke: #000000; stroke-width: 0.6"/>
      </g>
     </g>
    </g>
   </g>
   <g id="line2d_60">
    <path d="M 83.045455 150.893268 
L 85.095043 143.836442 
L 87.144626 142.310829 
L 89.194215 145.333076 
L 91.243804 147.936072 
L 93.293387 152.808711 
L 95.342976 156.347126 
L 97.392564 162.287485 
L 99.442147 166.205292 
L 101.491736 164.214006 
L 103.541319 169.01065 
L 105.590908 167.313935 
L 107.640497 168.800103 
L 109.690079 167.376864 
L 111.739668 169.047811 
L 113.789251 168.748155 
L 115.83884 174.234132 
L 117.888429 175.955701 
L 119.938012 178.90152 
L 121.9876 192.940057 
L 124.037189 201.844401 
L 126.086772 227.455972 
L 128.136361 203.203283 
L 130.18595 184.745658 
L 132.235539 192.185669 
L 134.285124 189.20351 
L 136.334713 190.84386 
L 138.384299 202.208688 
L 140.433885 205.434432 
L 142.483471 210.785206 
L 144.53306 236.558204 
L 146.582646 194.018325 
L 148.632231 221.527813 
L 150.681817 211.817653 
L 152.731406 215.953991 
L 154.780992 205.041442 
L 156.830578 197.837482 
L 158.880164 184.883014 
L 160.929752 185.509872 
L 162.979338 186.842325 
L 165.028924 184.2601 
L 167.078511 192.412997 
L 169.128097 193.585584 
L 171.177685 198.427022 
L 173.227271 223.508873 
L 175.276858 204.905567 
L 177.326445 224.688675 
L 179.376031 213.754294 
L 181.425623 307.8 
L 183.47521 223.040623 
L 185.524796 257.412083 
L 187.574383 203.347497 
L 189.62397 200.272508 
L 191.673556 183.50876 
L 193.723144 186.57804 
L 195.77273 187.45601 
L 197.822315 192.35711 
L 199.871903 204.990222 
L 201.921489 204.515491 
L 203.971076 206.980323 
L 206.020662 210.049323 
L 208.070249 193.468669 
L 210.119836 203.687703 
L 212.169422 196.483104 
L 214.219008 213.876023 
L 216.268594 216.666237 
L 218.318183 204.837424 
L 220.367769 217.516753 
L 222.417354 199.900459 
L 224.46694 191.275081 
L 226.516529 178.078576 
L 228.566115 178.574056 
L 230.615701 175.05016 
L 232.665287 183.788162 
L 234.714876 186.861226 
L 236.764461 189.317551 
L 238.81405 194.829661 
L 240.863633 192.471715 
L 242.913222 203.376897 
L 244.962805 209.552347 
L 247.012394 206.457629 
L 249.061982 197.813348 
L 251.111565 219.516551 
L 253.161154 203.471875 
L 255.210743 228.116259 
L 257.260326 223.665555 
L 259.309915 190.146386 
L 261.359503 190.79493 
L 263.409092 181.267924 
L 265.458681 174.084668 
L 267.508264 173.490485 
L 269.557853 177.416879 
L 271.607442 180.23362 
L 273.657024 196.890077 
L 275.706613 188.596288 
L 277.756202 174.093616 
L 279.805785 172.067995 
L 281.855374 169.485811 
L 283.904957 194.036764 
L 285.954545 163.584119 
" clip-path="url(#pb477779378)" style="fill: none; stroke: #1f77b4; stroke-width: 1.5; stroke-linecap: square"/>
   </g>
   <g id="line2d_61">
    <path d="M 57.681818 55.8 
L 58.953174 58.034356 
L 62.131574 64.421377 
L 63.402942 67.272149 
L 64.038619 68.459891 
L 67.852697 78.752239 
L 69.124053 82.930035 
L 71.666776 91.915452 
L 74.845188 107.474611 
L 75.480866 108.825706 
L 76.116544 114.274005 
L 76.752221 116.34371 
L 77.387899 122.07769 
L 78.023577 131.805594 
L 78.659254 131.515639 
L 79.930622 159.462694 
L 80.566299 189.738531 
L 81.201977 158.361117 
L 81.837655 173.395575 
L 82.473333 152.679161 
L 83.109022 155.30481 
L 83.7447 140.559826 
L 84.380384 152.783674 
L 85.016061 138.645552 
L 86.287423 144.52243 
L 86.923101 147.354958 
L 87.558784 150.87972 
L 88.194462 153.018822 
L 88.83014 138.886614 
L 89.465823 147.922644 
L 90.101501 143.020413 
L 90.737185 146.817161 
L 91.372862 142.529737 
L 92.00854 165.00906 
L 92.644224 144.638572 
L 93.279902 162.088557 
L 93.915579 160.687314 
L 94.551263 162.168967 
L 95.186941 150.6522 
L 95.822624 191.573353 
L 96.458302 165.428429 
L 97.09398 164.8492 
L 97.729663 150.022381 
L 98.365347 177.144591 
L 99.001025 162.038378 
L 99.636709 157.182465 
L 100.272386 214.028267 
L 100.90807 174.256819 
L 101.543748 156.715071 
L 102.179425 157.640678 
L 102.815109 167.048693 
L 103.450781 198.017826 
L 104.086458 162.44651 
L 104.722142 156.862399 
L 105.35782 160.72751 
L 105.993504 154.261434 
L 106.629181 181.885848 
L 107.264859 223.39953 
L 107.900543 151.710131 
L 108.536226 175.908899 
L 109.171904 192.892976 
L 109.807588 174.067621 
L 110.443266 160.445167 
L 111.078949 194.642151 
L 111.714627 195.915993 
L 112.350305 184.517523 
L 112.985988 164.989897 
L 113.621666 163.36422 
L 114.257344 174.216359 
L 114.893027 166.336344 
L 115.528705 164.063055 
L 116.164389 216.892978 
L 116.800067 185.108741 
L 117.435744 171.783711 
L 118.071428 169.039285 
L 118.707106 178.997677 
L 119.342783 177.40722 
L 120.614145 226.830017 
L 121.249829 158.591106 
L 121.885506 172.152999 
L 122.521184 170.417463 
L 123.156868 189.876923 
L 123.792545 200.242014 
L 124.428223 170.377479 
L 125.063907 171.442085 
L 125.699584 164.869947 
L 126.335268 189.258844 
L 127.606623 166.900908 
L 128.242307 170.958382 
L 128.877991 169.711511 
L 129.513669 181.818269 
L 130.149352 208.920422 
L 130.78503 157.686818 
L 131.420714 178.807947 
L 132.056391 227.778768 
L 132.692069 168.6469 
L 133.327753 213.246984 
L 133.963431 183.207404 
L 134.599111 161.465355 
L 135.234792 197.464989 
L 135.87047 214.753155 
L 136.50615 167.978957 
L 137.141831 163.990974 
L 137.777512 162.59254 
L 138.413193 173.882654 
L 139.04887 174.360012 
L 139.684551 165.076721 
L 140.320232 168.799298 
L 140.955909 165.98749 
L 141.59159 174.933541 
L 142.227271 165.095522 
L 142.862951 175.434609 
L 143.498632 192.892618 
L 144.13431 213.935883 
L 144.769991 165.296684 
L 145.405671 162.751157 
L 146.041349 160.884989 
L 146.67703 187.624043 
L 147.31271 171.14366 
L 147.948391 183.137081 
L 148.584072 168.487017 
L 149.219749 184.418398 
L 149.85543 165.458409 
L 150.491111 166.969327 
L 151.126789 192.15336 
L 151.762469 180.748764 
L 152.39815 174.125877 
L 153.033831 181.775961 
L 153.669511 167.479151 
L 154.305195 196.760307 
L 154.940876 177.658213 
L 155.576557 189.744345 
L 156.212234 164.820779 
L 156.847915 169.905284 
L 157.483596 173.664141 
L 158.119276 170.063198 
L 158.754957 170.855304 
L 159.390635 163.589968 
L 160.026315 174.206899 
L 160.661995 162.816349 
L 161.297675 191.959829 
L 161.933355 171.273483 
L 162.569035 158.347654 
L 163.204716 204.793018 
L 163.840395 190.039717 
L 164.476068 247.535932 
L 165.111749 172.048354 
L 166.383109 166.484691 
L 167.018788 166.595745 
L 167.654469 164.170455 
L 168.29015 160.690183 
L 168.925829 200.666544 
L 169.561514 167.462334 
L 170.197195 189.136116 
L 170.832874 173.757931 
L 171.468555 161.515493 
L 172.104235 187.198773 
L 172.739914 169.611762 
L 173.375594 194.65193 
L 174.011274 171.461874 
L 174.64696 173.63359 
L 175.28264 176.52052 
L 175.91832 159.551744 
L 176.554 171.10767 
L 177.18968 170.729092 
L 177.82536 182.821626 
L 178.46104 185.529334 
L 179.732393 160.376766 
L 180.368073 159.330695 
L 181.003753 192.352587 
L 181.639433 169.539516 
L 182.275114 167.488654 
L 182.910794 197.147802 
L 183.546474 180.098328 
L 184.182154 181.854493 
L 184.817839 251.763109 
L 185.453519 193.382554 
L 186.089199 185.083498 
L 186.724879 179.102606 
L 187.360559 168.10796 
L 187.996239 163.217331 
L 188.631919 187.513401 
L 189.2676 180.003054 
L 189.903285 195.175801 
L 190.538964 189.464702 
L 191.174644 159.790517 
L 191.810325 170.508049 
L 192.446005 169.990391 
L 193.081685 172.275425 
L 193.717365 159.188448 
L 194.353045 177.484872 
L 194.98873 164.947992 
L 195.62441 158.859603 
L 196.26009 242.277218 
L 196.895771 182.097391 
L 197.53145 173.800849 
L 198.167131 211.994394 
L 198.802811 165.319062 
L 199.438491 172.273869 
L 200.074164 173.199221 
L 200.709844 167.412138 
L 201.345524 170.097176 
L 201.981204 162.125341 
L 202.616884 166.438343 
L 203.252564 186.20817 
L 203.888245 172.054502 
L 204.523924 213.455557 
L 205.159609 164.734718 
L 205.79529 163.431068 
L 206.430969 182.656702 
L 207.06665 164.08725 
L 207.702329 186.735118 
L 208.33801 185.711075 
L 208.973691 170.768395 
L 209.60937 186.469477 
L 210.245049 187.968959 
L 212.152088 160.747347 
L 212.787769 162.573908 
L 213.42345 169.52932 
L 214.05913 165.667221 
L 214.694811 172.142532 
L 215.330489 167.176929 
L 215.966169 198.057918 
L 216.60185 192.212315 
L 217.237528 175.167502 
L 217.873208 167.60459 
L 218.508889 172.940718 
L 219.14457 163.12756 
L 219.780251 198.034444 
L 220.415928 168.81744 
L 221.051609 226.322564 
L 221.68729 178.890138 
L 222.322967 159.321186 
L 222.958648 198.756473 
L 224.230009 171.048104 
L 224.86569 183.807992 
L 225.501368 167.557181 
L 226.137049 173.738568 
L 226.772729 173.913883 
L 227.408407 180.815507 
L 228.044088 173.90446 
L 228.679768 179.610472 
L 229.315449 156.452666 
L 229.95113 162.158459 
L 230.586807 198.148537 
L 231.222488 186.601431 
L 231.858169 185.001819 
L 232.493847 217.073599 
L 233.129527 172.335271 
L 233.765208 162.963475 
L 234.400889 157.902438 
L 235.036569 174.552262 
L 235.672253 161.183058 
L 236.307931 182.9578 
L 236.943615 168.7496 
L 237.579292 158.92311 
L 238.214976 185.273477 
L 238.850654 158.572703 
L 239.486331 172.181446 
L 240.122015 199.395264 
L 240.757693 166.752513 
L 241.39337 226.869704 
L 242.029054 221.623583 
L 242.664732 186.89583 
L 243.300416 166.557343 
L 243.936093 173.107229 
L 244.571771 181.284202 
L 245.207455 174.919835 
L 245.843132 166.624354 
L 246.47881 206.020953 
L 247.114494 187.18857 
L 247.750171 176.306102 
L 248.385855 184.958656 
L 249.021533 171.167081 
L 249.657211 231.580595 
L 250.292894 266.473179 
L 250.928572 186.376041 
L 251.56425 163.011567 
L 252.199933 162.471764 
L 252.835611 175.79273 
L 253.471295 175.219255 
L 254.106973 184.497211 
L 254.74265 189.184083 
L 255.378334 184.102872 
L 256.014012 161.118645 
L 256.649689 177.044323 
L 257.285373 164.763247 
L 257.921051 186.657933 
L 258.556734 196.662285 
L 259.192412 170.881336 
L 259.82809 182.812808 
L 260.463774 186.163971 
L 261.099451 182.990788 
L 261.735129 214.332614 
L 263.00649 159.90159 
L 263.642174 155.900743 
L 264.913529 178.614039 
L 265.549213 186.335356 
L 266.184897 187.20103 
L 266.820575 163.81819 
L 267.456258 159.502941 
L 268.72762 189.970416 
L 269.363297 158.710141 
L 269.998975 193.409892 
L 270.634659 158.6399 
L 271.270337 205.675638 
L 271.906014 177.592961 
L 272.541698 196.45204 
L 273.177376 179.189046 
L 273.813059 211.786157 
L 274.448737 165.002581 
L 275.084415 247.375172 
L 275.720098 168.372705 
L 276.355776 166.145952 
L 276.991454 168.238192 
L 277.627138 160.777112 
L 278.262815 180.770043 
L 278.898499 185.792121 
L 279.534177 156.79566 
L 280.169854 170.88884 
L 280.805538 153.16815 
L 281.441222 155.84851 
L 282.076899 187.338125 
L 282.712583 208.445305 
L 283.348261 252.847554 
L 283.983945 189.538213 
L 284.619622 157.785493 
L 285.890984 174.379686 
L 286.526655 152.366812 
L 287.162333 143.152124 
L 287.798011 137.28435 
L 288.433701 138.279839 
L 289.069378 128.343553 
L 289.705056 127.305733 
L 290.340734 124.02764 
L 290.976411 119.295745 
L 291.612101 112.902318 
L 294.154824 101.917688 
L 294.790502 100.156748 
L 295.426179 97.945811 
L 296.061857 94.727939 
L 296.697535 93.070192 
L 299.875935 82.442945 
L 303.054336 73.355137 
L 303.690025 71.911204 
L 304.961381 68.620936 
L 310.046826 58.000994 
L 311.318182 55.803681 
L 311.318182 55.803681 
" clip-path="url(#pb477779378)" style="fill: none; stroke: #ff7f0e; stroke-width: 1.5; stroke-linecap: square"/>
   </g>
   <g id="patch_3">
    <path d="M 45 320.4 
L 45 43.2 
" style="fill: none; stroke: #000000; stroke-width: 0.8; stroke-linejoin: miter; stroke-linecap: square"/>
   </g>
   <g id="patch_4">
    <path d="M 324 320.4 
L 324 43.2 
" style="fill: none; stroke: #000000; stroke-width: 0.8; stroke-linejoin: miter; stroke-linecap: square"/>
   </g>
   <g id="patch_5">
    <path d="M 45 320.4 
L 324 320.4 
" style="fill: none; stroke: #000000; stroke-width: 0.8; stroke-linejoin: miter; stroke-linecap: square"/>
   </g>
   <g id="patch_6">
    <path d="M 45 43.2 
L 324 43.2 
" style="fill: none; stroke: #000000; stroke-width: 0.8; stroke-linejoin: miter; stroke-linecap: square"/>
   </g>
   <g id="text_12">
    <!-- Prediction Error -->
    <g transform="translate(138.166875 37.2)scale(0.12 -0.12)">
     <defs>
      <path id="DejaVuSans-50" d="M 1259 4147 
L 1259 2394 
L 2053 2394 
Q 2494 2394 2734 2622 
Q 2975 2850 2975 3272 
Q 2975 3691 2734 3919 
Q 2494 4147 2053 4147 
L 1259 4147 
z
M 628 4666 
L 2053 4666 
Q 2838 4666 3239 4311 
Q 3641 3956 3641 3272 
Q 3641 2581 3239 2228 
Q 2838 1875 2053 1875 
L 1259 1875 
L 1259 0 
L 628 0 
L 628 4666 
z
" transform="scale(0.015625)"/>
      <path id="DejaVuSans-72" d="M 2631 2963 
Q 2534 3019 2420 3045 
Q 2306 3072 2169 3072 
Q 1681 3072 1420 2755 
Q 1159 2438 1159 1844 
L 1159 0 
L 581 0 
L 581 3500 
L 1159 3500 
L 1159 2956 
Q 1341 3275 1631 3429 
Q 1922 3584 2338 3584 
Q 2397 3584 2469 3576 
Q 2541 3569 2628 3553 
L 2631 2963 
z
" transform="scale(0.015625)"/>
      <path id="DejaVuSans-65" d="M 3597 1894 
L 3597 1613 
L 953 1613 
Q 991 1019 1311 708 
Q 1631 397 2203 397 
Q 2534 397 2845 478 
Q 3156 559 3463 722 
L 3463 178 
Q 3153 47 2828 -22 
Q 2503 -91 2169 -91 
Q 1331 -91 842 396 
Q 353 884 353 1716 
Q 353 2575 817 3079 
Q 1281 3584 2069 3584 
Q 2775 3584 3186 3129 
Q 3597 2675 3597 1894 
z
M 3022 2063 
Q 3016 2534 2758 2815 
Q 2500 3097 2075 3097 
Q 1594 3097 1305 2825 
Q 1016 2553 972 2059 
L 3022 2063 
z
" transform="scale(0.015625)"/>
      <path id="DejaVuSans-64" d="M 2906 2969 
L 2906 4863 
L 3481 4863 
L 3481 0 
L 2906 0 
L 2906 525 
Q 2725 213 2448 61 
Q 2172 -91 1784 -91 
Q 1150 -91 751 415 
Q 353 922 353 1747 
Q 353 2572 751 3078 
Q 1150 3584 1784 3584 
Q 2172 3584 2448 3432 
Q 2725 3281 2906 2969 
z
M 947 1747 
Q 947 1113 1208 752 
Q 1469 391 1925 391 
Q 2381 391 2643 752 
Q 2906 1113 2906 1747 
Q 2906 2381 2643 2742 
Q 2381 3103 1925 3103 
Q 1469 3103 1208 2742 
Q 947 2381 947 1747 
z
" transform="scale(0.015625)"/>
      <path id="DejaVuSans-69" d="M 603 3500 
L 1178 3500 
L 1178 0 
L 603 0 
L 603 3500 
z
M 603 4863 
L 1178 4863 
L 1178 4134 
L 603 4134 
L 603 4863 
z
" transform="scale(0.015625)"/>
      <path id="DejaVuSans-63" d="M 3122 3366 
L 3122 2828 
Q 2878 2963 2633 3030 
Q 2388 3097 2138 3097 
Q 1578 3097 1268 2742 
Q 959 2388 959 1747 
Q 959 1106 1268 751 
Q 1578 397 2138 397 
Q 2388 397 2633 464 
Q 2878 531 3122 666 
L 3122 134 
Q 2881 22 2623 -34 
Q 2366 -91 2075 -91 
Q 1284 -91 818 406 
Q 353 903 353 1747 
Q 353 2603 823 3093 
Q 1294 3584 2113 3584 
Q 2378 3584 2631 3529 
Q 2884 3475 3122 3366 
z
" transform="scale(0.015625)"/>
      <path id="DejaVuSans-74" d="M 1172 4494 
L 1172 3500 
L 2356 3500 
L 2356 3053 
L 1172 3053 
L 1172 1153 
Q 1172 725 1289 603 
Q 1406 481 1766 481 
L 2356 481 
L 2356 0 
L 1766 0 
Q 1100 0 847 248 
Q 594 497 594 1153 
L 594 3053 
L 172 3053 
L 172 3500 
L 594 3500 
L 594 4494 
L 1172 4494 
z
" transform="scale(0.015625)"/>
      <path id="DejaVuSans-6f" d="M 1959 3097 
Q 1497 3097 1228 2736 
Q 959 2375 959 1747 
Q 959 1119 1226 758 
Q 1494 397 1959 397 
Q 2419 397 2687 759 
Q 2956 1122 2956 1747 
Q 2956 2369 2687 2733 
Q 2419 3097 1959 3097 
z
M 1959 3584 
Q 2709 3584 3137 3096 
Q 3566 2609 3566 1747 
Q 3566 888 3137 398 
Q 2709 -91 1959 -91 
Q 1206 -91 779 398 
Q 353 888 353 1747 
Q 353 2609 779 3096 
Q 1206 3584 1959 3584 
z
" transform="scale(0.015625)"/>
      <path id="DejaVuSans-6e" d="M 3513 2113 
L 3513 0 
L 2938 0 
L 2938 2094 
Q 2938 2591 2744 2837 
Q 2550 3084 2163 3084 
Q 1697 3084 1428 2787 
Q 1159 2491 1159 1978 
L 1159 0 
L 581 0 
L 581 3500 
L 1159 3500 
L 1159 2956 
Q 1366 3272 1645 3428 
Q 1925 3584 2291 3584 
Q 2894 3584 3203 3211 
Q 3513 2838 3513 2113 
z
" transform="scale(0.015625)"/>
      <path id="DejaVuSans-20" transform="scale(0.015625)"/>
      <path id="DejaVuSans-45" d="M 628 4666 
L 3578 4666 
L 3578 4134 
L 1259 4134 
L 1259 2753 
L 3481 2753 
L 3481 2222 
L 1259 2222 
L 1259 531 
L 3634 531 
L 3634 0 
L 628 0 
L 628 4666 
z
" transform="scale(0.015625)"/>
     </defs>
     <use xlink:href="#DejaVuSans-50"/>
     <use xlink:href="#DejaVuSans-72" x="58.552734"/>
     <use xlink:href="#DejaVuSans-65" x="97.416016"/>
     <use xlink:href="#DejaVuSans-64" x="158.939453"/>
     <use xlink:href="#DejaVuSans-69" x="222.416016"/>
     <use xlink:href="#DejaVuSans-63" x="250.199219"/>
     <use xlink:href="#DejaVuSans-74" x="305.179688"/>
     <use xlink:href="#DejaVuSans-69" x="344.388672"/>
     <use xlink:href="#DejaVuSans-6f" x="372.171875"/>
     <use xlink:href="#DejaVuSans-6e" x="433.353516"/>
     <use xlink:href="#DejaVuSans-20" x="496.732422"/>
     <use xlink:href="#DejaVuSans-45" x="528.519531"/>
     <use xlink:href="#DejaVuSans-72" x="591.703125"/>
     <use xlink:href="#DejaVuSans-72" x="631.066406"/>
     <use xlink:href="#DejaVuSans-6f" x="669.929688"/>
     <use xlink:href="#DejaVuSans-72" x="731.111328"/>
    </g>
   </g>
   <g id="legend_1">
    <g id="patch_7">
     <path d="M 52 315.4 
L 134.657813 315.4 
Q 136.657813 315.4 136.657813 313.4 
L 136.657813 285.04375 
Q 136.657813 283.04375 134.657813 283.04375 
L 52 283.04375 
Q 50 283.04375 50 285.04375 
L 50 313.4 
Q 50 315.4 52 315.4 
z
" style="fill: #ffffff; opacity: 0.8; stroke: #cccccc; stroke-linejoin: miter"/>
    </g>
    <g id="line2d_62">
     <path d="M 54 291.142187 
L 64 291.142187 
L 74 291.142187 
" style="fill: none; stroke: #1f77b4; stroke-width: 1.5; stroke-linecap: square"/>
    </g>
    <g id="text_13">
     <!-- train error -->
     <g transform="translate(82 294.642187)scale(0.1 -0.1)">
      <defs>
       <path id="DejaVuSans-61" d="M 2194 1759 
Q 1497 1759 1228 1600 
Q 959 1441 959 1056 
Q 959 750 1161 570 
Q 1363 391 1709 391 
Q 2188 391 2477 730 
Q 2766 1069 2766 1631 
L 2766 1759 
L 2194 1759 
z
M 3341 1997 
L 3341 0 
L 2766 0 
L 2766 531 
Q 2569 213 2275 61 
Q 1981 -91 1556 -91 
Q 1019 -91 701 211 
Q 384 513 384 1019 
Q 384 1609 779 1909 
Q 1175 2209 1959 2209 
L 2766 2209 
L 2766 2266 
Q 2766 2663 2505 2880 
Q 2244 3097 1772 3097 
Q 1472 3097 1187 3025 
Q 903 2953 641 2809 
L 641 3341 
Q 956 3463 1253 3523 
Q 1550 3584 1831 3584 
Q 2591 3584 2966 3190 
Q 3341 2797 3341 1997 
z
" transform="scale(0.015625)"/>
      </defs>
      <use xlink:href="#DejaVuSans-74"/>
      <use xlink:href="#DejaVuSans-72" x="39.208984"/>
      <use xlink:href="#DejaVuSans-61" x="80.322266"/>
      <use xlink:href="#DejaVuSans-69" x="141.601562"/>
      <use xlink:href="#DejaVuSans-6e" x="169.384766"/>
      <use xlink:href="#DejaVuSans-20" x="232.763672"/>
      <use xlink:href="#DejaVuSans-65" x="264.550781"/>
      <use xlink:href="#DejaVuSans-72" x="326.074219"/>
      <use xlink:href="#DejaVuSans-72" x="365.4375"/>
      <use xlink:href="#DejaVuSans-6f" x="404.300781"/>
      <use xlink:href="#DejaVuSans-72" x="465.482422"/>
     </g>
    </g>
    <g id="line2d_63">
     <path d="M 54 305.820312 
L 64 305.820312 
L 74 305.820312 
" style="fill: none; stroke: #ff7f0e; stroke-width: 1.5; stroke-linecap: square"/>
    </g>
    <g id="text_14">
     <!-- test error -->
     <g transform="translate(82 309.320312)scale(0.1 -0.1)">
      <defs>
       <path id="DejaVuSans-73" d="M 2834 3397 
L 2834 2853 
Q 2591 2978 2328 3040 
Q 2066 3103 1784 3103 
Q 1356 3103 1142 2972 
Q 928 2841 928 2578 
Q 928 2378 1081 2264 
Q 1234 2150 1697 2047 
L 1894 2003 
Q 2506 1872 2764 1633 
Q 3022 1394 3022 966 
Q 3022 478 2636 193 
Q 2250 -91 1575 -91 
Q 1294 -91 989 -36 
Q 684 19 347 128 
L 347 722 
Q 666 556 975 473 
Q 1284 391 1588 391 
Q 1994 391 2212 530 
Q 2431 669 2431 922 
Q 2431 1156 2273 1281 
Q 2116 1406 1581 1522 
L 1381 1569 
Q 847 1681 609 1914 
Q 372 2147 372 2553 
Q 372 3047 722 3315 
Q 1072 3584 1716 3584 
Q 2034 3584 2315 3537 
Q 2597 3491 2834 3397 
z
" transform="scale(0.015625)"/>
      </defs>
      <use xlink:href="#DejaVuSans-74"/>
      <use xlink:href="#DejaVuSans-65" x="39.208984"/>
      <use xlink:href="#DejaVuSans-73" x="100.732422"/>
      <use xlink:href="#DejaVuSans-74" x="152.832031"/>
      <use xlink:href="#DejaVuSans-20" x="192.041016"/>
      <use xlink:href="#DejaVuSans-65" x="223.828125"/>
      <use xlink:href="#DejaVuSans-72" x="285.351562"/>
      <use xlink:href="#DejaVuSans-72" x="324.714844"/>
      <use xlink:href="#DejaVuSans-6f" x="363.578125"/>
      <use xlink:href="#DejaVuSans-72" x="424.759766"/>
     </g>
    </g>
   </g>
  </g>
 </g>
 <defs>
  <clipPath id="pb477779378">
   <rect x="45" y="43.2" width="279" height="277.2"/>
  </clipPath>
 </defs>
</svg>
