<?xml version="1.0" encoding="utf-8" standalone="no"?>
<!DOCTYPE svg PUBLIC "-//W3C//DTD SVG 1.1//EN"
  "http://www.w3.org/Graphics/SVG/1.1/DTD/svg11.dtd">
<svg xmlns:xlink="http://www.w3.org/1999/xlink" width="360pt" height="360pt" viewBox="0 0 360 360" xmlns="http://www.w3.org/2000/svg" version="1.1">
 <metadata>
  <rdf:RDF xmlns:dc="http://purl.org/dc/elements/1.1/" xmlns:cc="http://creativecommons.org/ns#" xmlns:rdf="http://www.w3.org/1999/02/22-rdf-syntax-ns#">
   <cc:Work>
    <dc:type rdf:resource="http://purl.org/dc/dcmitype/StillImage"/>
    <dc:date>2022-11-15T19:53:58.316521</dc:date>
    <dc:format>image/svg+xml</dc:format>
    <dc:creator>
     <cc:Agent>
      <dc:title>Matplotlib v3.5.3, https://matplotlib.org/</dc:title>
     </cc:Agent>
    </dc:creator>
   </cc:Work>
  </rdf:RDF>
 </metadata>
 <defs>
  <style type="text/css">*{stroke-linejoin: round; stroke-linecap: butt}</style>
 </defs>
 <g id="figure_1">
  <g id="patch_1">
   <path d="M 0 360 
L 360 360 
L 360 0 
L 0 0 
z
" style="fill: #ffffff"/>
  </g>
  <g id="patch_2">
   <path d="M 45.9 320.4 
L 323.1 320.4 
L 323.1 43.2 
L 45.9 43.2 
z
" style="fill: #ffffff"/>
  </g>
  <g id="pane3d_1">
   <g id="patch_3">
    <path d="M 66.830512 252.051364 
L 158.371005 175.320307 
L 157.098504 64.660407 
L 61.177327 134.659314 
" style="fill: #f2f2f2; opacity: 0.5; stroke: #f2f2f2; stroke-linejoin: miter"/>
   </g>
  </g>
  <g id="pane3d_2">
   <g id="patch_4">
    <path d="M 158.371005 175.320307 
L 305.260834 218.015381 
L 310.502814 103.543928 
L 157.098504 64.660407 
" style="fill: #e6e6e6; opacity: 0.5; stroke: #e6e6e6; stroke-linejoin: miter"/>
   </g>
  </g>
  <g id="pane3d_3">
   <g id="patch_5">
    <path d="M 66.830512 252.051364 
L 222.540905 302.906378 
L 305.260834 218.015381 
L 158.371005 175.320307 
" style="fill: #ececec; opacity: 0.5; stroke: #ececec; stroke-linejoin: miter"/>
   </g>
  </g>
  <g id="axis3d_1">
   <g id="line2d_1">
    <path d="M 66.830512 252.051364 
L 222.540905 302.906378 
" style="fill: none; stroke: #000000; stroke-width: 0.8; stroke-linecap: square"/>
   </g>
   <g id="Line3DCollection_1">
    <path d="M 89.295647 259.388477 
L 179.643744 181.503453 
L 179.2746 70.281401 
" style="fill: none; stroke: #b0b0b0; stroke-width: 0.8"/>
    <path d="M 115.721231 268.019072 
L 204.632006 188.766554 
L 205.341311 76.888553 
" style="fill: none; stroke: #b0b0b0; stroke-width: 0.8"/>
    <path d="M 142.63321 276.808525 
L 230.041717 196.152154 
L 231.86686 83.612006 
" style="fill: none; stroke: #b0b0b0; stroke-width: 0.8"/>
    <path d="M 170.045136 285.76126 
L 255.883631 203.663378 
L 258.863468 90.454859 
" style="fill: none; stroke: #b0b0b0; stroke-width: 0.8"/>
    <path d="M 197.971073 294.881871 
L 282.16887 211.303459 
L 286.343796 97.420321 
" style="fill: none; stroke: #b0b0b0; stroke-width: 0.8"/>
   </g>
   <g id="xtick_1">
    <g id="line2d_2">
     <path d="M 90.082682 258.710009 
L 87.718184 260.748336 
" style="fill: none; stroke: #000000; stroke-width: 0.8; stroke-linecap: square"/>
    </g>
    <g id="text_1">
     <!-- −2 -->
     <g transform="translate(74.409205 282.781779)scale(0.1 -0.1)">
      <defs>
       <path id="DejaVuSans-2212" d="M 678 2272 
L 4684 2272 
L 4684 1741 
L 678 1741 
L 678 2272 
z
" transform="scale(0.015625)"/>
       <path id="DejaVuSans-32" d="M 1228 531 
L 3431 531 
L 3431 0 
L 469 0 
L 469 531 
Q 828 903 1448 1529 
Q 2069 2156 2228 2338 
Q 2531 2678 2651 2914 
Q 2772 3150 2772 3378 
Q 2772 3750 2511 3984 
Q 2250 4219 1831 4219 
Q 1534 4219 1204 4116 
Q 875 4013 500 3803 
L 500 4441 
Q 881 4594 1212 4672 
Q 1544 4750 1819 4750 
Q 2544 4750 2975 4387 
Q 3406 4025 3406 3419 
Q 3406 3131 3298 2873 
Q 3191 2616 2906 2266 
Q 2828 2175 2409 1742 
Q 1991 1309 1228 531 
z
" transform="scale(0.015625)"/>
      </defs>
      <use xlink:href="#DejaVuSans-2212"/>
      <use xlink:href="#DejaVuSans-32" x="83.789062"/>
     </g>
    </g>
   </g>
   <g id="xtick_2">
    <g id="line2d_3">
     <path d="M 116.496322 267.328179 
L 114.167679 269.403864 
" style="fill: none; stroke: #000000; stroke-width: 0.8; stroke-linecap: square"/>
    </g>
    <g id="text_2">
     <!-- −1 -->
     <g transform="translate(100.86159 291.588149)scale(0.1 -0.1)">
      <defs>
       <path id="DejaVuSans-31" d="M 794 531 
L 1825 531 
L 1825 4091 
L 703 3866 
L 703 4441 
L 1819 4666 
L 2450 4666 
L 2450 531 
L 3481 531 
L 3481 0 
L 794 0 
L 794 531 
z
" transform="scale(0.015625)"/>
      </defs>
      <use xlink:href="#DejaVuSans-2212"/>
      <use xlink:href="#DejaVuSans-31" x="83.789062"/>
     </g>
    </g>
   </g>
   <g id="xtick_3">
    <g id="line2d_4">
     <path d="M 143.395781 276.104861 
L 141.10472 278.218942 
" style="fill: none; stroke: #000000; stroke-width: 0.8; stroke-linecap: square"/>
    </g>
    <g id="text_3">
     <!-- 0 -->
     <g transform="translate(131.992483 300.557202)scale(0.1 -0.1)">
      <defs>
       <path id="DejaVuSans-30" d="M 2034 4250 
Q 1547 4250 1301 3770 
Q 1056 3291 1056 2328 
Q 1056 1369 1301 889 
Q 1547 409 2034 409 
Q 2525 409 2770 889 
Q 3016 1369 3016 2328 
Q 3016 3291 2770 3770 
Q 2525 4250 2034 4250 
z
M 2034 4750 
Q 2819 4750 3233 4129 
Q 3647 3509 3647 2328 
Q 3647 1150 3233 529 
Q 2819 -91 2034 -91 
Q 1250 -91 836 529 
Q 422 1150 422 2328 
Q 422 3509 836 4129 
Q 1250 4750 2034 4750 
z
" transform="scale(0.015625)"/>
      </defs>
      <use xlink:href="#DejaVuSans-30"/>
     </g>
    </g>
   </g>
   <g id="xtick_4">
    <g id="line2d_5">
     <path d="M 170.794587 285.044468 
L 168.542914 287.198019 
" style="fill: none; stroke: #000000; stroke-width: 0.8; stroke-linecap: square"/>
    </g>
    <g id="text_4">
     <!-- 1 -->
     <g transform="translate(159.435865 309.693489)scale(0.1 -0.1)">
      <use xlink:href="#DejaVuSans-31"/>
     </g>
    </g>
   </g>
   <g id="xtick_5">
    <g id="line2d_6">
     <path d="M 198.706776 294.15158 
L 196.496377 296.345718 
" style="fill: none; stroke: #000000; stroke-width: 0.8; stroke-linecap: square"/>
    </g>
    <g id="text_5">
     <!-- 2 -->
     <g transform="translate(187.39576 319.00173)scale(0.1 -0.1)">
      <use xlink:href="#DejaVuSans-32"/>
     </g>
    </g>
   </g>
  </g>
  <g id="axis3d_2">
   <g id="line2d_7">
    <path d="M 305.260834 218.015381 
L 222.540905 302.906378 
" style="fill: none; stroke: #000000; stroke-width: 0.8; stroke-linecap: square"/>
   </g>
   <g id="Line3DCollection_2">
    <path d="M 76.781389 123.272179 
L 81.674657 239.608707 
L 236.004406 289.089513 
" style="fill: none; stroke: #b0b0b0; stroke-width: 0.8"/>
    <path d="M 94.298573 110.488937 
L 98.360589 225.622227 
L 251.115362 273.581956 
" style="fill: none; stroke: #b0b0b0; stroke-width: 0.8"/>
    <path d="M 111.271645 98.102762 
L 114.550307 212.051685 
L 265.753695 258.559425 
" style="fill: none; stroke: #b0b0b0; stroke-width: 0.8"/>
    <path d="M 127.72557 86.095437 
L 130.265621 198.878797 
L 279.941236 243.999517 
" style="fill: none; stroke: #b0b0b0; stroke-width: 0.8"/>
    <path d="M 143.683806 74.449843 
L 145.527081 186.086339 
L 293.698494 229.881186 
" style="fill: none; stroke: #b0b0b0; stroke-width: 0.8"/>
   </g>
   <g id="xtick_6">
    <g id="line2d_8">
     <path d="M 234.704397 288.672708 
L 238.607761 289.924194 
" style="fill: none; stroke: #000000; stroke-width: 0.8; stroke-linecap: square"/>
    </g>
    <g id="text_6">
     <!-- −2 -->
     <g transform="translate(241.414026 309.997986)scale(0.1 -0.1)">
      <use xlink:href="#DejaVuSans-2212"/>
      <use xlink:href="#DejaVuSans-32" x="83.789062"/>
     </g>
    </g>
   </g>
   <g id="xtick_7">
    <g id="line2d_9">
     <path d="M 249.829647 273.178285 
L 253.690038 274.390315 
" style="fill: none; stroke: #000000; stroke-width: 0.8; stroke-linecap: square"/>
    </g>
    <g id="text_7">
     <!-- −1 -->
     <g transform="translate(256.330301 294.270153)scale(0.1 -0.1)">
      <use xlink:href="#DejaVuSans-2212"/>
      <use xlink:href="#DejaVuSans-31" x="83.789062"/>
     </g>
    </g>
   </g>
   <g id="xtick_8">
    <g id="line2d_10">
     <path d="M 264.482022 258.168279 
L 268.300199 259.342689 
" style="fill: none; stroke: #000000; stroke-width: 0.8; stroke-linecap: square"/>
    </g>
    <g id="text_8">
     <!-- 0 -->
     <g transform="translate(274.969628 279.034509)scale(0.1 -0.1)">
      <use xlink:href="#DejaVuSans-30"/>
     </g>
    </g>
   </g>
   <g id="xtick_9">
    <g id="line2d_11">
     <path d="M 278.683358 243.620322 
L 282.460069 244.758837 
" style="fill: none; stroke: #000000; stroke-width: 0.8; stroke-linecap: square"/>
    </g>
    <g id="text_9">
     <!-- 1 -->
     <g transform="translate(288.973894 264.268306)scale(0.1 -0.1)">
      <use xlink:href="#DejaVuSans-31"/>
     </g>
    </g>
   </g>
   <g id="xtick_10">
    <g id="line2d_12">
     <path d="M 292.454165 229.513401 
L 296.190151 230.617642 
" style="fill: none; stroke: #000000; stroke-width: 0.8; stroke-linecap: square"/>
    </g>
    <g id="text_10">
     <!-- 2 -->
     <g transform="translate(302.553208 249.950176)scale(0.1 -0.1)">
      <use xlink:href="#DejaVuSans-32"/>
     </g>
    </g>
   </g>
  </g>
  <g id="axis3d_3">
   <g id="line2d_13">
    <path d="M 305.260834 218.015381 
L 310.502814 103.543928 
" style="fill: none; stroke: #000000; stroke-width: 0.8; stroke-linecap: square"/>
   </g>
   <g id="Line3DCollection_3">
    <path d="M 305.931022 203.380176 
L 158.208015 161.146341 
L 66.108813 237.064816 
" style="fill: none; stroke: #b0b0b0; stroke-width: 0.8"/>
    <path d="M 306.506477 190.813714 
L 158.068135 148.982029 
L 65.48888 224.191522 
" style="fill: none; stroke: #b0b0b0; stroke-width: 0.8"/>
    <path d="M 307.087587 178.123753 
L 157.926947 136.703893 
L 64.862623 211.186879 
" style="fill: none; stroke: #b0b0b0; stroke-width: 0.8"/>
    <path d="M 307.674437 165.308464 
L 157.784431 124.310329 
L 64.229943 198.048866 
" style="fill: none; stroke: #b0b0b0; stroke-width: 0.8"/>
    <path d="M 308.267111 152.365981 
L 157.640568 111.799702 
L 63.590741 184.775422 
" style="fill: none; stroke: #b0b0b0; stroke-width: 0.8"/>
    <path d="M 308.865696 139.294402 
L 157.495341 99.170345 
L 62.944915 171.364441 
" style="fill: none; stroke: #b0b0b0; stroke-width: 0.8"/>
    <path d="M 309.470282 126.091784 
L 157.348728 86.42056 
L 62.292363 157.813774 
" style="fill: none; stroke: #b0b0b0; stroke-width: 0.8"/>
    <path d="M 310.08096 112.756147 
L 157.200711 73.548616 
L 61.632979 144.121229 
" style="fill: none; stroke: #b0b0b0; stroke-width: 0.8"/>
   </g>
   <g id="xtick_11">
    <g id="line2d_14">
     <path d="M 304.690887 203.025623 
L 308.414259 204.090131 
" style="fill: none; stroke: #000000; stroke-width: 0.8; stroke-linecap: square"/>
    </g>
    <g id="text_11">
     <!-- 20 -->
     <g transform="translate(317.921637 208.400796)scale(0.1 -0.1)">
      <use xlink:href="#DejaVuSans-32"/>
      <use xlink:href="#DejaVuSans-30" x="63.623047"/>
     </g>
    </g>
   </g>
   <g id="xtick_12">
    <g id="line2d_15">
     <path d="M 305.26005 190.462456 
L 309.002327 191.517074 
" style="fill: none; stroke: #000000; stroke-width: 0.8; stroke-linecap: square"/>
    </g>
    <g id="text_12">
     <!-- 40 -->
     <g transform="translate(318.584899 195.858323)scale(0.1 -0.1)">
      <defs>
       <path id="DejaVuSans-34" d="M 2419 4116 
L 825 1625 
L 2419 1625 
L 2419 4116 
z
M 2253 4666 
L 3047 4666 
L 3047 1625 
L 3713 1625 
L 3713 1100 
L 3047 1100 
L 3047 0 
L 2419 0 
L 2419 1100 
L 313 1100 
L 313 1709 
L 2253 4666 
z
" transform="scale(0.015625)"/>
      </defs>
      <use xlink:href="#DejaVuSans-34"/>
      <use xlink:href="#DejaVuSans-30" x="63.623047"/>
     </g>
    </g>
   </g>
   <g id="xtick_13">
    <g id="line2d_16">
     <path d="M 305.834805 177.775873 
L 309.596179 178.820355 
" style="fill: none; stroke: #000000; stroke-width: 0.8; stroke-linecap: square"/>
    </g>
    <g id="text_13">
     <!-- 60 -->
     <g transform="translate(319.254661 183.192948)scale(0.1 -0.1)">
      <defs>
       <path id="DejaVuSans-36" d="M 2113 2584 
Q 1688 2584 1439 2293 
Q 1191 2003 1191 1497 
Q 1191 994 1439 701 
Q 1688 409 2113 409 
Q 2538 409 2786 701 
Q 3034 994 3034 1497 
Q 3034 2003 2786 2293 
Q 2538 2584 2113 2584 
z
M 3366 4563 
L 3366 3988 
Q 3128 4100 2886 4159 
Q 2644 4219 2406 4219 
Q 1781 4219 1451 3797 
Q 1122 3375 1075 2522 
Q 1259 2794 1537 2939 
Q 1816 3084 2150 3084 
Q 2853 3084 3261 2657 
Q 3669 2231 3669 1497 
Q 3669 778 3244 343 
Q 2819 -91 2113 -91 
Q 1303 -91 875 529 
Q 447 1150 447 2328 
Q 447 3434 972 4092 
Q 1497 4750 2381 4750 
Q 2619 4750 2861 4703 
Q 3103 4656 3366 4563 
z
" transform="scale(0.015625)"/>
      </defs>
      <use xlink:href="#DejaVuSans-36"/>
      <use xlink:href="#DejaVuSans-30" x="63.623047"/>
     </g>
    </g>
   </g>
   <g id="xtick_14">
    <g id="line2d_17">
     <path d="M 306.415233 164.964045 
L 310.195901 165.998139 
" style="fill: none; stroke: #000000; stroke-width: 0.8; stroke-linecap: square"/>
    </g>
    <g id="text_14">
     <!-- 80 -->
     <g transform="translate(319.931018 170.402856)scale(0.1 -0.1)">
      <defs>
       <path id="DejaVuSans-38" d="M 2034 2216 
Q 1584 2216 1326 1975 
Q 1069 1734 1069 1313 
Q 1069 891 1326 650 
Q 1584 409 2034 409 
Q 2484 409 2743 651 
Q 3003 894 3003 1313 
Q 3003 1734 2745 1975 
Q 2488 2216 2034 2216 
z
M 1403 2484 
Q 997 2584 770 2862 
Q 544 3141 544 3541 
Q 544 4100 942 4425 
Q 1341 4750 2034 4750 
Q 2731 4750 3128 4425 
Q 3525 4100 3525 3541 
Q 3525 3141 3298 2862 
Q 3072 2584 2669 2484 
Q 3125 2378 3379 2068 
Q 3634 1759 3634 1313 
Q 3634 634 3220 271 
Q 2806 -91 2034 -91 
Q 1263 -91 848 271 
Q 434 634 434 1313 
Q 434 1759 690 2068 
Q 947 2378 1403 2484 
z
M 1172 3481 
Q 1172 3119 1398 2916 
Q 1625 2713 2034 2713 
Q 2441 2713 2670 2916 
Q 2900 3119 2900 3481 
Q 2900 3844 2670 4047 
Q 2441 4250 2034 4250 
Q 1625 4250 1398 4047 
Q 1172 3844 1172 3481 
z
" transform="scale(0.015625)"/>
      </defs>
      <use xlink:href="#DejaVuSans-38"/>
      <use xlink:href="#DejaVuSans-30" x="63.623047"/>
     </g>
    </g>
   </g>
   <g id="xtick_15">
    <g id="line2d_18">
     <path d="M 307.00142 152.025109 
L 310.80158 153.048557 
" style="fill: none; stroke: #000000; stroke-width: 0.8; stroke-linecap: square"/>
    </g>
    <g id="text_15">
     <!-- 100 -->
     <g transform="translate(317.432818 157.486194)scale(0.1 -0.1)">
      <use xlink:href="#DejaVuSans-31"/>
      <use xlink:href="#DejaVuSans-30" x="63.623047"/>
      <use xlink:href="#DejaVuSans-30" x="127.246094"/>
     </g>
    </g>
   </g>
   <g id="xtick_16">
    <g id="line2d_19">
     <path d="M 307.593451 138.957165 
L 311.413305 139.969702 
" style="fill: none; stroke: #000000; stroke-width: 0.8; stroke-linecap: square"/>
    </g>
    <g id="text_16">
     <!-- 120 -->
     <g transform="translate(318.122661 144.441075)scale(0.1 -0.1)">
      <use xlink:href="#DejaVuSans-31"/>
      <use xlink:href="#DejaVuSans-32" x="63.623047"/>
      <use xlink:href="#DejaVuSans-30" x="127.246094"/>
     </g>
    </g>
   </g>
   <g id="xtick_17">
    <g id="line2d_20">
     <path d="M 308.191415 125.758273 
L 312.031168 126.759628 
" style="fill: none; stroke: #000000; stroke-width: 0.8; stroke-linecap: square"/>
    </g>
    <g id="text_17">
     <!-- 140 -->
     <g transform="translate(318.819399 131.265574)scale(0.1 -0.1)">
      <use xlink:href="#DejaVuSans-31"/>
      <use xlink:href="#DejaVuSans-34" x="63.623047"/>
      <use xlink:href="#DejaVuSans-30" x="127.246094"/>
     </g>
    </g>
   </g>
   <g id="xtick_18">
    <g id="line2d_21">
     <path d="M 308.795401 112.426454 
L 312.655261 113.41635 
" style="fill: none; stroke: #000000; stroke-width: 0.8; stroke-linecap: square"/>
    </g>
    <g id="text_18">
     <!-- 160 -->
     <g transform="translate(319.523135 117.957725)scale(0.1 -0.1)">
      <use xlink:href="#DejaVuSans-31"/>
      <use xlink:href="#DejaVuSans-36" x="63.623047"/>
      <use xlink:href="#DejaVuSans-30" x="127.246094"/>
     </g>
    </g>
   </g>
  </g>
  <g id="axes_1">
   <g id="Poly3DCollection_1">
    <path d="M 158.027297 182.659007 
L 161.914918 178.238645 
L 168.436726 181.090563 
L 164.56393 185.52186 
z
" clip-path="url(#pc219b95575)" style="fill: #fff4ee; fill-opacity: 0.7"/>
    <path d="M 164.56393 185.52186 
L 168.436726 181.090563 
L 174.982363 183.950144 
L 171.111916 186.483849 
z
" clip-path="url(#pc219b95575)" style="fill: #fff4ef; fill-opacity: 0.7"/>
    <path d="M 154.108912 186.769164 
L 158.027297 182.659007 
L 164.56393 185.52186 
L 160.640758 187.722742 
z
" clip-path="url(#pc219b95575)" style="fill: #fff4ef; fill-opacity: 0.7"/>
    <path d="M 171.111916 186.483849 
L 174.982363 183.950144 
L 181.547989 185.276788 
L 177.693784 187.461457 
z
" clip-path="url(#pc219b95575)" style="fill: #fff4ee; fill-opacity: 0.7"/>
    <path d="M 160.640758 187.722742 
L 164.56393 185.52186 
L 171.111916 186.483849 
L 167.206566 188.691008 
z
" clip-path="url(#pc219b95575)" style="fill: #fff4ee; fill-opacity: 0.7"/>
    <path d="M 177.693784 187.461457 
L 181.547989 185.276788 
L 188.145584 186.264293 
L 184.309718 188.457934 
z
" clip-path="url(#pc219b95575)" style="fill: #fff2eb; fill-opacity: 0.7"/>
    <path d="M 150.153544 190.272922 
L 154.108912 186.769164 
L 160.640758 187.722742 
L 156.699423 191.207417 
z
" clip-path="url(#pc219b95575)" style="fill: #fff4ef; fill-opacity: 0.7"/>
    <path d="M 167.206566 188.691008 
L 171.111916 186.483849 
L 177.693784 187.461457 
L 173.806548 189.678517 
z
" clip-path="url(#pc219b95575)" style="fill: #fff1ea; fill-opacity: 0.7"/>
    <path d="M 184.309718 188.457934 
L 188.145584 186.264293 
L 194.777142 187.270028 
L 190.959876 189.475132 
z
" clip-path="url(#pc219b95575)" style="fill: #fff0e8; fill-opacity: 0.7"/>
    <path d="M 156.699423 191.207417 
L 160.640758 187.722742 
L 167.206566 188.691008 
L 163.27968 192.160433 
z
" clip-path="url(#pc219b95575)" style="fill: #fff2ec; fill-opacity: 0.7"/>
    <path d="M 173.806548 189.678517 
L 177.693784 187.461457 
L 184.309718 188.457934 
L 180.440867 190.688183 
z
" clip-path="url(#pc219b95575)" style="fill: #ffefe8; fill-opacity: 0.7"/>
    <path d="M 146.165443 193.631507 
L 150.153544 190.272922 
L 156.699423 191.207417 
L 152.727546 194.679441 
z
" clip-path="url(#pc219b95575)" style="fill: #fff4ef; fill-opacity: 0.7"/>
    <path d="M 190.959876 189.475132 
L 194.777142 187.270028 
L 201.44282 188.29531 
L 197.644407 190.513545 
z
" clip-path="url(#pc219b95575)" style="fill: #ffeee6; fill-opacity: 0.7"/>
    <path d="M 163.27968 192.160433 
L 167.206566 188.691008 
L 173.806548 189.678517 
L 169.89451 193.136499 
z
" clip-path="url(#pc219b95575)" style="fill: #fff0e9; fill-opacity: 0.7"/>
    <path d="M 180.440867 190.688183 
L 184.309718 188.457934 
L 190.959876 189.475132 
L 187.109662 191.721114 
z
" clip-path="url(#pc219b95575)" style="fill: #ffede5; fill-opacity: 0.7"/>
    <path d="M 152.727546 194.679441 
L 156.699423 191.207417 
L 163.27968 192.160433 
L 159.323161 195.694145 
z
" clip-path="url(#pc219b95575)" style="fill: #fff2ec; fill-opacity: 0.7"/>
    <path d="M 197.644407 190.513545 
L 201.44282 188.29531 
L 208.142766 189.340588 
L 204.363454 191.572631 
z
" clip-path="url(#pc219b95575)" style="fill: #ffece3; fill-opacity: 0.7"/>
    <path d="M 142.14588 196.981552 
L 146.165443 193.631507 
L 152.727546 194.679441 
L 148.72465 198.143296 
z
" clip-path="url(#pc219b95575)" style="fill: #fff4ef; fill-opacity: 0.7"/>
    <path d="M 169.89451 193.136499 
L 173.806548 189.678517 
L 180.440867 190.688183 
L 176.544052 194.138112 
z
" clip-path="url(#pc219b95575)" style="fill: #ffeee7; fill-opacity: 0.7"/>
    <path d="M 187.109662 191.721114 
L 190.959876 189.475132 
L 197.644407 190.513545 
L 193.813066 192.776761 
z
" clip-path="url(#pc219b95575)" style="fill: #ffebe2; fill-opacity: 0.7"/>
    <path d="M 159.323161 195.694145 
L 163.27968 192.160433 
L 169.89451 193.136499 
L 165.953286 196.726212 
z
" clip-path="url(#pc219b95575)" style="fill: #fff0e9; fill-opacity: 0.7"/>
    <path d="M 204.363454 191.572631 
L 208.142766 189.340588 
L 214.87713 190.405736 
L 211.117173 192.651247 
z
" clip-path="url(#pc219b95575)" style="fill: #feeae0; fill-opacity: 0.7"/>
    <path d="M 148.72465 198.143296 
L 152.727546 194.679441 
L 159.323161 195.694145 
L 155.335346 199.176536 
z
" clip-path="url(#pc219b95575)" style="fill: #fff3ed; fill-opacity: 0.7"/>
    <path d="M 176.544052 194.138112 
L 180.440867 190.688183 
L 187.109662 191.721114 
L 183.228423 195.165583 
z
" clip-path="url(#pc219b95575)" style="fill: #ffece3; fill-opacity: 0.7"/>
    <path d="M 193.813066 192.776761 
L 197.644407 190.513545 
L 204.363454 191.572631 
L 200.551221 193.85327 
z
" clip-path="url(#pc219b95575)" style="fill: #fee9df; fill-opacity: 0.7"/>
    <path d="M 138.094725 200.343269 
L 142.14588 196.981552 
L 148.72465 198.143296 
L 144.69108 201.649918 
z
" clip-path="url(#pc219b95575)" style="fill: #fff5f0; fill-opacity: 0.7"/>
    <path d="M 165.953286 196.726212 
L 169.89451 193.136499 
L 176.544052 194.138112 
L 172.617948 197.751907 
z
" clip-path="url(#pc219b95575)" style="fill: #ffeee7; fill-opacity: 0.7"/>
    <path d="M 211.117173 192.651247 
L 214.87713 190.405736 
L 221.646015 191.495184 
L 217.905744 193.748225 
z
" clip-path="url(#pc219b95575)" style="fill: #fee8dd; fill-opacity: 0.7"/>
    <path d="M 155.335346 199.176536 
L 159.323161 195.694145 
L 165.953286 196.726212 
L 161.980898 200.24153 
z
" clip-path="url(#pc219b95575)" style="fill: #fff0e9; fill-opacity: 0.7"/>
    <path d="M 183.228423 195.165583 
L 187.109662 191.721114 
L 193.813066 192.776761 
L 189.94774 196.217102 
z
" clip-path="url(#pc219b95575)" style="fill: #feeae0; fill-opacity: 0.7"/>
    <path d="M 200.551221 193.85327 
L 204.363454 191.572631 
L 211.117173 192.651247 
L 207.324292 194.94813 
z
" clip-path="url(#pc219b95575)" style="fill: #fee7dc; fill-opacity: 0.7"/>
    <path d="M 144.69108 201.649918 
L 148.72465 198.143296 
L 155.335346 199.176536 
L 151.316888 202.703263 
z
" clip-path="url(#pc219b95575)" style="fill: #fff3ed; fill-opacity: 0.7"/>
    <path d="M 172.617948 197.751907 
L 176.544052 194.138112 
L 183.228423 195.165583 
L 179.317637 198.80649 
z
" clip-path="url(#pc219b95575)" style="fill: #ffece4; fill-opacity: 0.7"/>
    <path d="M 217.905744 193.748225 
L 221.646015 191.495184 
L 228.454496 192.290725 
L 224.729656 194.841013 
z
" clip-path="url(#pc219b95575)" style="fill: #fee6da; fill-opacity: 0.7"/>
    <path d="M 134.011533 203.716543 
L 138.094725 200.343269 
L 144.69108 201.649918 
L 140.626544 205.199035 
z
" clip-path="url(#pc219b95575)" style="fill: #fff5f0; fill-opacity: 0.7"/>
    <path d="M 161.980898 200.24153 
L 165.953286 196.726212 
L 172.617948 197.751907 
L 168.661386 201.340256 
z
" clip-path="url(#pc219b95575)" style="fill: #ffeee7; fill-opacity: 0.7"/>
    <path d="M 189.94774 196.217102 
L 193.813066 192.776761 
L 200.551221 193.85327 
L 196.702139 197.289196 
z
" clip-path="url(#pc219b95575)" style="fill: #fee8dd; fill-opacity: 0.7"/>
    <path d="M 207.324292 194.94813 
L 211.117173 192.651247 
L 217.905744 193.748225 
L 214.13248 196.059009 
z
" clip-path="url(#pc219b95575)" style="fill: #fee6da; fill-opacity: 0.7"/>
    <path d="M 151.316888 202.703263 
L 155.335346 199.176536 
L 161.980898 200.24153 
L 157.977821 203.792681 
z
" clip-path="url(#pc219b95575)" style="fill: #fff1ea; fill-opacity: 0.7"/>
    <path d="M 179.317637 198.80649 
L 183.228423 195.165583 
L 189.94774 196.217102 
L 186.052443 199.886823 
z
" clip-path="url(#pc219b95575)" style="fill: #feeae1; fill-opacity: 0.7"/>
    <path d="M 224.729656 194.841013 
L 228.454496 192.290725 
L 235.303645 192.879545 
L 231.598014 195.409181 
z
" clip-path="url(#pc219b95575)" style="fill: #fee3d7; fill-opacity: 0.7"/>
    <path d="M 140.626544 205.199035 
L 144.69108 201.649918 
L 151.316888 202.703263 
L 147.267483 206.272767 
z
" clip-path="url(#pc219b95575)" style="fill: #fff3ed; fill-opacity: 0.7"/>
    <path d="M 168.661386 201.340256 
L 172.617948 197.751907 
L 179.317637 198.80649 
L 175.376859 202.471622 
z
" clip-path="url(#pc219b95575)" style="fill: #ffece4; fill-opacity: 0.7"/>
    <path d="M 196.702139 197.289196 
L 200.551221 193.85327 
L 207.324292 194.94813 
L 203.491801 198.377532 
z
" clip-path="url(#pc219b95575)" style="fill: #fee7db; fill-opacity: 0.7"/>
    <path d="M 214.13248 196.059009 
L 217.905744 193.748225 
L 224.729656 194.841013 
L 220.975996 197.184531 
z
" clip-path="url(#pc219b95575)" style="fill: #fee4d8; fill-opacity: 0.7"/>
    <path d="M 129.895859 207.101846 
L 134.011533 203.716543 
L 140.626544 205.199035 
L 136.530726 208.789805 
z
" clip-path="url(#pc219b95575)" style="fill: #fff5f0; fill-opacity: 0.7"/>
    <path d="M 157.977821 203.792681 
L 161.980898 200.24153 
L 168.661386 201.340256 
L 164.67393 204.920212 
z
" clip-path="url(#pc219b95575)" style="fill: #ffefe8; fill-opacity: 0.7"/>
    <path d="M 186.052443 199.886823 
L 189.94774 196.217102 
L 196.702139 197.289196 
L 192.822492 200.987484 
z
" clip-path="url(#pc219b95575)" style="fill: #fee8de; fill-opacity: 0.7"/>
    <path d="M 231.598014 195.409181 
L 235.303645 192.879545 
L 242.188377 193.600092 
L 238.488704 196.820118 
z
" clip-path="url(#pc219b95575)" style="fill: #fee1d3; fill-opacity: 0.7"/>
    <path d="M 147.267483 206.272767 
L 151.316888 202.703263 
L 157.977821 203.792681 
L 153.943825 207.386526 
z
" clip-path="url(#pc219b95575)" style="fill: #fff1ea; fill-opacity: 0.7"/>
    <path d="M 175.376859 202.471622 
L 179.317637 198.80649 
L 186.052443 199.886823 
L 182.127335 203.615603 
z
" clip-path="url(#pc219b95575)" style="fill: #ffebe2; fill-opacity: 0.7"/>
    <path d="M 203.491801 198.377532 
L 207.324292 194.94813 
L 214.13248 196.059009 
L 210.31498 199.708773 
z
" clip-path="url(#pc219b95575)" style="fill: #fee5d8; fill-opacity: 0.7"/>
    <path d="M 220.975996 197.184531 
L 224.729656 194.841013 
L 231.598014 195.409181 
L 227.835129 199.619455 
z
" clip-path="url(#pc219b95575)" style="fill: #fee2d5; fill-opacity: 0.7"/>
    <path d="M 136.530726 208.789805 
L 140.626544 205.199035 
L 147.267483 206.272767 
L 143.186793 209.882834 
z
" clip-path="url(#pc219b95575)" style="fill: #fff3ed; fill-opacity: 0.7"/>
    <path d="M 164.67393 204.920212 
L 168.661386 201.340256 
L 175.376859 202.471622 
L 171.408482 206.580294 
z
" clip-path="url(#pc219b95575)" style="fill: #ffede5; fill-opacity: 0.7"/>
    <path d="M 192.822492 200.987484 
L 196.702139 197.289196 
L 203.491801 198.377532 
L 199.623351 203.145138 
z
" clip-path="url(#pc219b95575)" style="fill: #fee7dc; fill-opacity: 0.7"/>
    <path d="M 238.488704 196.820118 
L 242.188377 193.600092 
L 249.112873 194.244894 
L 245.383451 199.605337 
z
" clip-path="url(#pc219b95575)" style="fill: #fedfd0; fill-opacity: 0.7"/>
    <path d="M 153.943825 207.386526 
L 157.977821 203.792681 
L 164.67393 204.920212 
L 160.669663 209.850057 
z
" clip-path="url(#pc219b95575)" style="fill: #fff0e8; fill-opacity: 0.7"/>
    <path d="M 182.127335 203.615603 
L 186.052443 199.886823 
L 192.822492 200.987484 
L 188.912554 206.605471 
z
" clip-path="url(#pc219b95575)" style="fill: #feeae0; fill-opacity: 0.7"/>
    <path d="M 210.31498 199.708773 
L 214.13248 196.059009 
L 220.975996 197.184531 
L 217.150798 202.995205 
z
" clip-path="url(#pc219b95575)" style="fill: #fee4d8; fill-opacity: 0.7"/>
    <path d="M 125.747258 210.499834 
L 129.895859 207.101846 
L 136.530726 208.789805 
L 132.410325 212.743493 
z
" clip-path="url(#pc219b95575)" style="fill: #fff5f0; fill-opacity: 0.7"/>
    <path d="M 227.835129 199.619455 
L 231.598014 195.409181 
L 238.488704 196.820118 
L 234.719512 202.263724 
z
" clip-path="url(#pc219b95575)" style="fill: #fee2d5; fill-opacity: 0.7"/>
    <path d="M 171.408482 206.580294 
L 175.376859 202.471622 
L 182.127335 203.615603 
L 178.18221 209.949037 
z
" clip-path="url(#pc219b95575)" style="fill: #ffede5; fill-opacity: 0.7"/>
    <path d="M 199.623351 203.145138 
L 203.491801 198.377532 
L 210.31498 199.708773 
L 206.446312 206.443339 
z
" clip-path="url(#pc219b95575)" style="fill: #fee7dc; fill-opacity: 0.7"/>
    <path d="M 143.186793 209.882834 
L 147.267483 206.272767 
L 153.943825 207.386526 
L 149.910278 213.137964 
z
" clip-path="url(#pc219b95575)" style="fill: #fff2ec; fill-opacity: 0.7"/>
    <path d="M 245.383451 199.605337 
L 249.112873 194.244894 
L 256.020462 197.004921 
L 252.304961 202.417005 
z
" clip-path="url(#pc219b95575)" style="fill: #fee0d2; fill-opacity: 0.7"/>
    <path d="M 188.912554 206.605471 
L 192.822492 200.987484 
L 199.623351 203.145138 
L 195.72254 209.927559 
z
" clip-path="url(#pc219b95575)" style="fill: #feeae1; fill-opacity: 0.7"/>
    <path d="M 217.150798 202.995205 
L 220.975996 197.184531 
L 227.835129 199.619455 
L 224.011841 206.225243 
z
" clip-path="url(#pc219b95575)" style="fill: #fee5d9; fill-opacity: 0.7"/>
    <path d="M 160.669663 209.850057 
L 164.67393 204.920212 
L 171.408482 206.580294 
L 167.431094 213.221469 
z
" clip-path="url(#pc219b95575)" style="fill: #fff0e9; fill-opacity: 0.7"/>
    <path d="M 132.410325 212.743493 
L 136.530726 208.789805 
L 143.186793 209.882834 
L 139.074915 213.554758 
z
" clip-path="url(#pc219b95575)" style="fill: #fff4ee; fill-opacity: 0.7"/>
    <path d="M 178.18221 209.949037 
L 182.127335 203.615603 
L 188.912554 206.605471 
L 184.979683 213.345531 
z
" clip-path="url(#pc219b95575)" style="fill: #ffeee7; fill-opacity: 0.7"/>
    <path d="M 206.446312 206.443339 
L 210.31498 199.708773 
L 217.150798 202.995205 
L 213.293713 209.732514 
z
" clip-path="url(#pc219b95575)" style="fill: #fee8de; fill-opacity: 0.7"/>
    <path d="M 234.719512 202.263724 
L 238.488704 196.820118 
L 245.383451 199.605337 
L 241.628868 205.06148 
z
" clip-path="url(#pc219b95575)" style="fill: #fee3d6; fill-opacity: 0.7"/>
    <path d="M 149.910278 213.137964 
L 153.943825 207.386526 
L 160.669663 209.850057 
L 156.635925 214.622383 
z
" clip-path="url(#pc219b95575)" style="fill: #fff2ec; fill-opacity: 0.7"/>
    <path d="M 252.304961 202.417005 
L 256.020462 197.004921 
L 262.953856 199.825755 
L 259.253245 205.255942 
z
" clip-path="url(#pc219b95575)" style="fill: #fee2d5; fill-opacity: 0.7"/>
    <path d="M 195.72254 209.927559 
L 199.623351 203.145138 
L 206.446312 206.443339 
L 202.556692 213.25597 
z
" clip-path="url(#pc219b95575)" style="fill: #ffede5; fill-opacity: 0.7"/>
    <path d="M 224.011841 206.225243 
L 227.835129 199.619455 
L 234.719512 202.263724 
L 230.908233 208.831292 
z
" clip-path="url(#pc219b95575)" style="fill: #fee7db; fill-opacity: 0.7"/>
    <path d="M 167.431094 213.221469 
L 171.408482 206.580294 
L 178.18221 209.949037 
L 174.210666 215.58456 
z
" clip-path="url(#pc219b95575)" style="fill: #fff2eb; fill-opacity: 0.7"/>
    <path d="M 121.524278 212.337309 
L 125.747258 210.499834 
L 132.410325 212.743493 
L 128.175651 213.182858 
z
" clip-path="url(#pc219b95575)" style="fill: #fff2ec; fill-opacity: 0.7"/>
    <path d="M 213.293713 209.732514 
L 217.150798 202.995205 
L 224.011841 206.225243 
L 220.167149 212.908704 
z
" clip-path="url(#pc219b95575)" style="fill: #ffebe2; fill-opacity: 0.7"/>
    <path d="M 184.979683 213.345531 
L 188.912554 206.605471 
L 195.72254 209.927559 
L 191.801176 216.565988 
z
" clip-path="url(#pc219b95575)" style="fill: #fff1ea; fill-opacity: 0.7"/>
    <path d="M 139.074915 213.554758 
L 143.186793 209.882834 
L 149.910278 213.137964 
L 145.77572 214.331383 
z
" clip-path="url(#pc219b95575)" style="fill: #fff2ec; fill-opacity: 0.7"/>
    <path d="M 241.628868 205.06148 
L 245.383451 199.605337 
L 252.304961 202.417005 
L 248.56519 207.885843 
z
" clip-path="url(#pc219b95575)" style="fill: #fee4d8; fill-opacity: 0.7"/>
    <path d="M 156.635925 214.622383 
L 160.669663 209.850057 
L 167.431094 213.221469 
L 163.387595 215.32751 
z
" clip-path="url(#pc219b95575)" style="fill: #fff2ec; fill-opacity: 0.7"/>
    <path d="M 202.556692 213.25597 
L 206.446312 206.443339 
L 213.293713 209.732514 
L 209.416095 216.48021 
z
" clip-path="url(#pc219b95575)" style="fill: #fff0e8; fill-opacity: 0.7"/>
    <path d="M 259.253245 205.255942 
L 262.953856 199.825755 
L 269.913953 202.671045 
L 266.228329 208.12188 
z
" clip-path="url(#pc219b95575)" style="fill: #fee3d7; fill-opacity: 0.7"/>
    <path d="M 230.908233 208.831292 
L 234.719512 202.263724 
L 241.628868 205.06148 
L 237.831593 211.521236 
z
" clip-path="url(#pc219b95575)" style="fill: #fee8dd; fill-opacity: 0.7"/>
    <path d="M 174.210666 215.58456 
L 178.18221 209.949037 
L 184.979683 213.345531 
L 181.014718 216.258993 
z
" clip-path="url(#pc219b95575)" style="fill: #fff2ec; fill-opacity: 0.7"/>
    <path d="M 220.167149 212.908704 
L 224.011841 206.225243 
L 230.908233 208.831292 
L 227.069975 215.826413 
z
" clip-path="url(#pc219b95575)" style="fill: #ffede5; fill-opacity: 0.7"/>
    <path d="M 191.801176 216.565988 
L 195.72254 209.927559 
L 202.556692 213.25597 
L 198.657527 217.35352 
z
" clip-path="url(#pc219b95575)" style="fill: #fff2ec; fill-opacity: 0.7"/>
    <path d="M 128.175651 213.182858 
L 132.410325 212.743493 
L 139.074915 213.554758 
L 134.876693 214.654416 
z
" clip-path="url(#pc219b95575)" style="fill: #fff1ea; fill-opacity: 0.7"/>
    <path d="M 248.56519 207.885843 
L 252.304961 202.417005 
L 259.253245 205.255942 
L 255.528456 210.738944 
z
" clip-path="url(#pc219b95575)" style="fill: #fee6da; fill-opacity: 0.7"/>
    <path d="M 145.77572 214.331383 
L 149.910278 213.137964 
L 156.635925 214.622383 
L 152.513307 215.070146 
z
" clip-path="url(#pc219b95575)" style="fill: #fff2eb; fill-opacity: 0.7"/>
    <path d="M 209.416095 216.48021 
L 213.293713 209.732514 
L 220.167149 212.908704 
L 216.309627 218.889985 
z
" clip-path="url(#pc219b95575)" style="fill: #fff2eb; fill-opacity: 0.7"/>
    <path d="M 266.228329 208.12188 
L 269.913953 202.671045 
L 276.89951 205.57881 
L 273.230319 211.013194 
z
" clip-path="url(#pc219b95575)" style="fill: #fee5d9; fill-opacity: 0.7"/>
    <path d="M 163.387595 215.32751 
L 167.431094 213.221469 
L 174.210666 215.58456 
L 170.177089 216.001259 
z
" clip-path="url(#pc219b95575)" style="fill: #fff2eb; fill-opacity: 0.7"/>
    <path d="M 237.831593 211.521236 
L 241.628868 205.06148 
L 248.56519 207.885843 
L 244.780806 214.326623 
z
" clip-path="url(#pc219b95575)" style="fill: #fee9df; fill-opacity: 0.7"/>
    <path d="M 181.014718 216.258993 
L 184.979683 213.345531 
L 191.801176 216.565988 
L 187.85733 216.93453 
z
" clip-path="url(#pc219b95575)" style="fill: #fff2ec; fill-opacity: 0.7"/>
    <path d="M 227.069975 215.826413 
L 230.908233 208.831292 
L 237.831593 211.521236 
L 234.005084 218.455554 
z
" clip-path="url(#pc219b95575)" style="fill: #ffeee7; fill-opacity: 0.7"/>
    <path d="M 117.267855 214.393986 
L 121.524278 212.337309 
L 128.175651 213.182858 
L 123.96976 216.521476 
z
" clip-path="url(#pc219b95575)" style="fill: #ffefe8; fill-opacity: 0.7"/>
    <path d="M 255.528456 210.738944 
L 259.253245 205.255942 
L 266.228329 208.12188 
L 262.51865 213.621617 
z
" clip-path="url(#pc219b95575)" style="fill: #fee8dd; fill-opacity: 0.7"/>
    <path d="M 198.657527 217.35352 
L 202.556692 213.25597 
L 209.416095 216.48021 
L 205.551205 218.286637 
z
" clip-path="url(#pc219b95575)" style="fill: #fff2ec; fill-opacity: 0.7"/>
    <path d="M 134.876693 214.654416 
L 139.074915 213.554758 
L 145.77572 214.331383 
L 141.62204 216.709417 
z
" clip-path="url(#pc219b95575)" style="fill: #ffefe8; fill-opacity: 0.7"/>
    <path d="M 273.230319 211.013194 
L 276.89951 205.57881 
L 283.908898 208.585381 
L 280.256664 214.001865 
z
" clip-path="url(#pc219b95575)" style="fill: #fee7dc; fill-opacity: 0.7"/>
    <path d="M 216.309627 218.889985 
L 220.167149 212.908704 
L 227.069975 215.826413 
L 223.252952 219.845133 
z
" clip-path="url(#pc219b95575)" style="fill: #fff2ec; fill-opacity: 0.7"/>
    <path d="M 244.780806 214.326623 
L 248.56519 207.885843 
L 255.528456 210.738944 
L 251.7573 217.162105 
z
" clip-path="url(#pc219b95575)" style="fill: #ffebe2; fill-opacity: 0.7"/>
    <path d="M 152.513307 215.070146 
L 156.635925 214.622383 
L 163.387595 215.32751 
L 159.299063 216.719437 
z
" clip-path="url(#pc219b95575)" style="fill: #fff0e8; fill-opacity: 0.7"/>
    <path d="M 170.177089 216.001259 
L 174.210666 215.58456 
L 181.014718 216.258993 
L 177.005048 216.65224 
z
" clip-path="url(#pc219b95575)" style="fill: #fff0e8; fill-opacity: 0.7"/>
    <path d="M 234.005084 218.455554 
L 237.831593 211.521236 
L 244.780806 214.326623 
L 240.966028 221.235753 
z
" clip-path="url(#pc219b95575)" style="fill: #fff0e8; fill-opacity: 0.7"/>
    <path d="M 262.51865 213.621617 
L 266.228329 208.12188 
L 273.230319 211.013194 
L 269.535832 216.533003 
z
" clip-path="url(#pc219b95575)" style="fill: #fee9df; fill-opacity: 0.7"/>
    <path d="M 187.85733 216.93453 
L 191.801176 216.565988 
L 198.657527 217.35352 
L 194.73845 217.772567 
z
" clip-path="url(#pc219b95575)" style="fill: #fff1ea; fill-opacity: 0.7"/>
    <path d="M 123.96976 216.521476 
L 128.175651 213.182858 
L 134.876693 214.654416 
L 130.701376 218.626435 
z
" clip-path="url(#pc219b95575)" style="fill: #ffeee7; fill-opacity: 0.7"/>
    <path d="M 205.551205 218.286637 
L 209.416095 216.48021 
L 216.309627 218.889985 
L 212.482472 219.250293 
z
" clip-path="url(#pc219b95575)" style="fill: #fff2eb; fill-opacity: 0.7"/>
    <path d="M 280.256664 214.001865 
L 283.908898 208.585381 
L 290.944929 211.606285 
L 287.308126 217.053687 
z
" clip-path="url(#pc219b95575)" style="fill: #fee9df; fill-opacity: 0.7"/>
    <path d="M 251.7573 217.162105 
L 255.528456 210.738944 
L 262.51865 213.621617 
L 258.761018 220.029794 
z
" clip-path="url(#pc219b95575)" style="fill: #ffece4; fill-opacity: 0.7"/>
    <path d="M 141.62204 216.709417 
L 145.77572 214.331383 
L 152.513307 215.070146 
L 148.397774 218.73158 
z
" clip-path="url(#pc219b95575)" style="fill: #ffeee6; fill-opacity: 0.7"/>
    <path d="M 223.252952 219.845133 
L 227.069975 215.826413 
L 234.005084 218.455554 
L 230.22532 221.350865 
z
" clip-path="url(#pc219b95575)" style="fill: #fff2ec; fill-opacity: 0.7"/>
    <path d="M 159.299063 216.719437 
L 163.387595 215.32751 
L 170.177089 216.001259 
L 166.120728 218.661685 
z
" clip-path="url(#pc219b95575)" style="fill: #ffeee6; fill-opacity: 0.7"/>
    <path d="M 240.966028 221.235753 
L 244.780806 214.326623 
L 251.7573 217.162105 
L 247.9575 223.924619 
z
" clip-path="url(#pc219b95575)" style="fill: #fff2eb; fill-opacity: 0.7"/>
    <path d="M 269.535832 216.533003 
L 273.230319 211.013194 
L 280.256664 214.001865 
L 276.580105 219.470382 
z
" clip-path="url(#pc219b95575)" style="fill: #ffebe2; fill-opacity: 0.7"/>
    <path d="M 113.027726 218.342861 
L 117.267855 214.393986 
L 123.96976 216.521476 
L 119.745792 220.490631 
z
" clip-path="url(#pc219b95575)" style="fill: #ffeee7; fill-opacity: 0.7"/>
    <path d="M 177.005048 216.65224 
L 181.014718 216.258993 
L 187.85733 216.93453 
L 183.874311 218.623387 
z
" clip-path="url(#pc219b95575)" style="fill: #ffeee6; fill-opacity: 0.7"/>
    <path d="M 130.701376 218.626435 
L 134.876693 214.654416 
L 141.62204 216.709417 
L 137.463049 220.703312 
z
" clip-path="url(#pc219b95575)" style="fill: #ffeee6; fill-opacity: 0.7"/>
    <path d="M 194.73845 217.772567 
L 198.657527 217.35352 
L 205.551205 218.286637 
L 201.656313 218.926338 
z
" clip-path="url(#pc219b95575)" style="fill: #ffeee7; fill-opacity: 0.7"/>
    <path d="M 258.761018 220.029794 
L 262.51865 213.621617 
L 269.535832 216.533003 
L 265.791973 222.92969 
z
" clip-path="url(#pc219b95575)" style="fill: #ffeee7; fill-opacity: 0.7"/>
    <path d="M 212.482472 219.250293 
L 216.309627 218.889985 
L 223.252952 219.845133 
L 219.451575 220.232929 
z
" clip-path="url(#pc219b95575)" style="fill: #fff0e9; fill-opacity: 0.7"/>
    <path d="M 230.22532 221.350865 
L 234.005084 218.455554 
L 240.966028 221.235753 
L 237.233468 222.838199 
z
" clip-path="url(#pc219b95575)" style="fill: #fff2ec; fill-opacity: 0.7"/>
    <path d="M 148.397774 218.73158 
L 152.513307 215.070146 
L 159.299063 216.719437 
L 155.204447 220.72078 
z
" clip-path="url(#pc219b95575)" style="fill: #ffede5; fill-opacity: 0.7"/>
    <path d="M 276.580105 219.470382 
L 280.256664 214.001865 
L 287.308126 217.053687 
L 283.647558 222.539386 
z
" clip-path="url(#pc219b95575)" style="fill: #ffede5; fill-opacity: 0.7"/>
    <path d="M 247.9575 223.924619 
L 251.7573 217.162105 
L 258.761018 220.029794 
L 255.014108 225.240273 
z
" clip-path="url(#pc219b95575)" style="fill: #fff2ec; fill-opacity: 0.7"/>
    <path d="M 119.745792 220.490631 
L 123.96976 216.521476 
L 130.701376 218.626435 
L 126.49375 222.618509 
z
" clip-path="url(#pc219b95575)" style="fill: #ffeee7; fill-opacity: 0.7"/>
    <path d="M 166.120728 218.661685 
L 170.177089 216.001259 
L 177.005048 216.65224 
L 172.974526 220.607684 
z
" clip-path="url(#pc219b95575)" style="fill: #ffece3; fill-opacity: 0.7"/>
    <path d="M 183.874311 218.623387 
L 187.85733 216.93453 
L 194.73845 217.772567 
L 190.775731 220.718683 
z
" clip-path="url(#pc219b95575)" style="fill: #ffece3; fill-opacity: 0.7"/>
    <path d="M 265.791973 222.92969 
L 269.535832 216.533003 
L 276.580105 219.470382 
L 272.850225 225.859527 
z
" clip-path="url(#pc219b95575)" style="fill: #fff0e9; fill-opacity: 0.7"/>
    <path d="M 137.463049 220.703312 
L 141.62204 216.709417 
L 148.397774 218.73158 
L 144.255242 222.749381 
z
" clip-path="url(#pc219b95575)" style="fill: #ffeee6; fill-opacity: 0.7"/>
    <path d="M 201.656313 218.926338 
L 205.551205 218.286637 
L 212.482472 219.250293 
L 208.6027 221.147869 
z
" clip-path="url(#pc219b95575)" style="fill: #ffece4; fill-opacity: 0.7"/>
    <path d="M 237.233468 222.838199 
L 240.966028 221.235753 
L 247.9575 223.924619 
L 244.280024 224.209484 
z
" clip-path="url(#pc219b95575)" style="fill: #fff2ec; fill-opacity: 0.7"/>
    <path d="M 219.451575 220.232929 
L 223.252952 219.845133 
L 230.22532 221.350865 
L 226.446933 222.021266 
z
" clip-path="url(#pc219b95575)" style="fill: #ffeee7; fill-opacity: 0.7"/>
    <path d="M 108.75454 222.307339 
L 113.027726 218.342861 
L 119.745792 220.490631 
L 115.48888 224.476068 
z
" clip-path="url(#pc219b95575)" style="fill: #ffefe8; fill-opacity: 0.7"/>
    <path d="M 155.204447 220.72078 
L 159.299063 216.719437 
L 166.120728 218.661685 
L 162.04265 222.679938 
z
" clip-path="url(#pc219b95575)" style="fill: #ffece4; fill-opacity: 0.7"/>
    <path d="M 255.014108 225.240273 
L 258.761018 220.029794 
L 265.791973 222.92969 
L 262.108364 226.538246 
z
" clip-path="url(#pc219b95575)" style="fill: #fff2ec; fill-opacity: 0.7"/>
    <path d="M 126.49375 222.618509 
L 130.701376 218.626435 
L 137.463049 220.703312 
L 133.271928 224.721321 
z
" clip-path="url(#pc219b95575)" style="fill: #ffeee7; fill-opacity: 0.7"/>
    <path d="M 172.974526 220.607684 
L 177.005048 216.65224 
L 183.874311 218.623387 
L 179.861041 222.653057 
z
" clip-path="url(#pc219b95575)" style="fill: #ffebe2; fill-opacity: 0.7"/>
    <path d="M 272.850225 225.859527 
L 276.580105 219.470382 
L 283.647558 222.539386 
L 279.940046 228.700978 
z
" clip-path="url(#pc219b95575)" style="fill: #fff2eb; fill-opacity: 0.7"/>
    <path d="M 144.255242 222.749381 
L 148.397774 218.73158 
L 155.204447 220.72078 
L 151.078502 224.765138 
z
" clip-path="url(#pc219b95575)" style="fill: #ffeee6; fill-opacity: 0.7"/>
    <path d="M 190.775731 220.718683 
L 194.73845 217.772567 
L 201.656313 218.926338 
L 197.708732 222.902368 
z
" clip-path="url(#pc219b95575)" style="fill: #ffebe2; fill-opacity: 0.7"/>
    <path d="M 208.6027 221.147869 
L 212.482472 219.250293 
L 219.451575 220.232929 
L 215.579983 223.42858 
z
" clip-path="url(#pc219b95575)" style="fill: #ffece3; fill-opacity: 0.7"/>
    <path d="M 244.280024 224.209484 
L 247.9575 223.924619 
L 255.014108 225.240273 
L 251.342982 226.405497 
z
" clip-path="url(#pc219b95575)" style="fill: #fff2eb; fill-opacity: 0.7"/>
    <path d="M 226.446933 222.021266 
L 230.22532 221.350865 
L 237.233468 222.838199 
L 233.457825 224.863205 
z
" clip-path="url(#pc219b95575)" style="fill: #ffeee7; fill-opacity: 0.7"/>
    <path d="M 115.48888 224.476068 
L 119.745792 220.490631 
L 126.49375 222.618509 
L 122.253322 226.628424 
z
" clip-path="url(#pc219b95575)" style="fill: #ffefe8; fill-opacity: 0.7"/>
    <path d="M 162.04265 222.679938 
L 166.120728 218.661685 
L 172.974526 220.607684 
L 168.91384 224.729805 
z
" clip-path="url(#pc219b95575)" style="fill: #ffece4; fill-opacity: 0.7"/>
    <path d="M 262.108364 226.538246 
L 265.791973 222.92969 
L 272.850225 225.859527 
L 269.240697 227.820436 
z
" clip-path="url(#pc219b95575)" style="fill: #fff2ec; fill-opacity: 0.7"/>
    <path d="M 133.271928 224.721321 
L 137.463049 220.703312 
L 144.255242 222.749381 
L 140.080771 226.796821 
z
" clip-path="url(#pc219b95575)" style="fill: #ffeee7; fill-opacity: 0.7"/>
    <path d="M 179.861041 222.653057 
L 183.874311 218.623387 
L 190.775731 220.718683 
L 186.779722 224.706946 
z
" clip-path="url(#pc219b95575)" style="fill: #ffebe2; fill-opacity: 0.7"/>
    <path d="M 104.447833 226.287394 
L 108.75454 222.307339 
L 115.48888 224.476068 
L 111.198531 228.476738 
z
" clip-path="url(#pc219b95575)" style="fill: #fff0e8; fill-opacity: 0.7"/>
    <path d="M 151.078502 224.765138 
L 155.204447 220.72078 
L 162.04265 222.679938 
L 157.934138 226.814828 
z
" clip-path="url(#pc219b95575)" style="fill: #ffede5; fill-opacity: 0.7"/>
    <path d="M 197.708732 222.902368 
L 201.656313 218.926338 
L 208.6027 221.147869 
L 204.672885 225.174849 
z
" clip-path="url(#pc219b95575)" style="fill: #feeae1; fill-opacity: 0.7"/>
    <path d="M 215.579983 223.42858 
L 219.451575 220.232929 
L 226.446933 222.021266 
L 222.588395 225.736777 
z
" clip-path="url(#pc219b95575)" style="fill: #ffebe2; fill-opacity: 0.7"/>
    <path d="M 233.457825 224.863205 
L 237.233468 222.838199 
L 244.280024 224.209484 
L 240.499814 227.587207 
z
" clip-path="url(#pc219b95575)" style="fill: #ffeee7; fill-opacity: 0.7"/>
    <path d="M 122.253322 226.628424 
L 126.49375 222.618509 
L 133.271928 224.721321 
L 129.048171 228.759589 
z
" clip-path="url(#pc219b95575)" style="fill: #ffefe8; fill-opacity: 0.7"/>
    <path d="M 251.342982 226.405497 
L 255.014108 225.240273 
L 262.108364 226.538246 
L 258.42742 229.003484 
z
" clip-path="url(#pc219b95575)" style="fill: #fff1ea; fill-opacity: 0.7"/>
    <path d="M 168.91384 224.729805 
L 172.974526 220.607684 
L 179.861041 222.653057 
L 175.817202 226.792644 
z
" clip-path="url(#pc219b95575)" style="fill: #ffece3; fill-opacity: 0.7"/>
    <path d="M 269.240697 227.820436 
L 272.850225 225.859527 
L 279.940046 228.700978 
L 276.371785 230.235603 
z
" clip-path="url(#pc219b95575)" style="fill: #fff3ed; fill-opacity: 0.7"/>
    <path d="M 140.080771 226.796821 
L 144.255242 222.749381 
L 151.078502 224.765138 
L 146.920904 228.851584 
z
" clip-path="url(#pc219b95575)" style="fill: #ffeee7; fill-opacity: 0.7"/>
    <path d="M 186.779722 224.706946 
L 190.775731 220.718683 
L 197.708732 222.902368 
L 193.730502 226.908232 
z
" clip-path="url(#pc219b95575)" style="fill: #ffebe2; fill-opacity: 0.7"/>
    <path d="M 111.198531 228.476738 
L 115.48888 224.476068 
L 122.253322 226.628424 
L 117.979573 230.653752 
z
" clip-path="url(#pc219b95575)" style="fill: #fff0e9; fill-opacity: 0.7"/>
    <path d="M 204.672885 225.174849 
L 208.6027 221.147869 
L 215.579983 223.42858 
L 211.668255 227.482074 
z
" clip-path="url(#pc219b95575)" style="fill: #ffebe2; fill-opacity: 0.7"/>
    <path d="M 157.934138 226.814828 
L 162.04265 222.679938 
L 168.91384 224.729805 
L 164.822458 228.929038 
z
" clip-path="url(#pc219b95575)" style="fill: #ffede5; fill-opacity: 0.7"/>
    <path d="M 222.588395 225.736777 
L 226.446933 222.021266 
L 233.457825 224.863205 
L 229.620037 228.562972 
z
" clip-path="url(#pc219b95575)" style="fill: #ffece3; fill-opacity: 0.7"/>
    <path d="M 240.499814 227.587207 
L 244.280024 224.209484 
L 251.342982 226.405497 
L 247.572819 230.25048 
z
" clip-path="url(#pc219b95575)" style="fill: #ffeee7; fill-opacity: 0.7"/>
    <path d="M 129.048171 228.759589 
L 133.271928 224.721321 
L 140.080771 226.796821 
L 135.873847 230.867659 
z
" clip-path="url(#pc219b95575)" style="fill: #ffefe8; fill-opacity: 0.7"/>
    <path d="M 258.42742 229.003484 
L 262.108364 226.538246 
L 269.240697 227.820436 
L 265.542934 231.585631 
z
" clip-path="url(#pc219b95575)" style="fill: #fff1ea; fill-opacity: 0.7"/>
    <path d="M 175.817202 226.792644 
L 179.861041 222.653057 
L 186.779722 224.706946 
L 182.75293 228.864115 
z
" clip-path="url(#pc219b95575)" style="fill: #ffece3; fill-opacity: 0.7"/>
    <path d="M 146.920904 228.851584 
L 151.078502 224.765138 
L 157.934138 226.814828 
L 153.794646 231.022112 
z
" clip-path="url(#pc219b95575)" style="fill: #ffeee7; fill-opacity: 0.7"/>
    <path d="M 100.107149 230.283593 
L 104.447833 226.287394 
L 111.198531 228.476738 
L 106.874255 232.492176 
z
" clip-path="url(#pc219b95575)" style="fill: #fff0e9; fill-opacity: 0.7"/>
    <path d="M 193.730502 226.908232 
L 197.708732 222.902368 
L 204.672885 225.174849 
L 200.712471 229.25757 
z
" clip-path="url(#pc219b95575)" style="fill: #ffebe2; fill-opacity: 0.7"/>
    <path d="M 211.668255 227.482074 
L 215.579983 223.42858 
L 222.588395 225.736777 
L 218.695263 229.78962 
z
" clip-path="url(#pc219b95575)" style="fill: #ffebe2; fill-opacity: 0.7"/>
    <path d="M 117.979573 230.653752 
L 122.253322 226.628424 
L 129.048171 228.759589 
L 124.791232 232.813852 
z
" clip-path="url(#pc219b95575)" style="fill: #fff0e9; fill-opacity: 0.7"/>
    <path d="M 164.822458 228.929038 
L 168.91384 224.729805 
L 175.817202 226.792644 
L 171.742817 231.04303 
z
" clip-path="url(#pc219b95575)" style="fill: #ffede5; fill-opacity: 0.7"/>
    <path d="M 229.620037 228.562972 
L 233.457825 224.863205 
L 240.499814 227.587207 
L 236.680352 231.408992 
z
" clip-path="url(#pc219b95575)" style="fill: #ffede5; fill-opacity: 0.7"/>
    <path d="M 247.572819 230.25048 
L 251.342982 226.405497 
L 258.42742 229.003484 
L 254.676637 232.892015 
z
" clip-path="url(#pc219b95575)" style="fill: #ffefe8; fill-opacity: 0.7"/>
    <path d="M 135.873847 230.867659 
L 140.080771 226.796821 
L 146.920904 228.851584 
L 142.732521 233.046693 
z
" clip-path="url(#pc219b95575)" style="fill: #ffefe8; fill-opacity: 0.7"/>
    <path d="M 265.542934 231.585631 
L 269.240697 227.820436 
L 276.371785 230.235603 
L 272.689797 234.156476 
z
" clip-path="url(#pc219b95575)" style="fill: #fff1ea; fill-opacity: 0.7"/>
    <path d="M 182.75293 228.864115 
L 186.779722 224.706946 
L 193.730502 226.908232 
L 189.721179 231.083404 
z
" clip-path="url(#pc219b95575)" style="fill: #ffece3; fill-opacity: 0.7"/>
    <path d="M 106.874255 232.492176 
L 111.198531 228.476738 
L 117.979573 230.653752 
L 113.671976 234.692692 
z
" clip-path="url(#pc219b95575)" style="fill: #fff1ea; fill-opacity: 0.7"/>
    <path d="M 153.794646 231.022112 
L 157.934138 226.814828 
L 164.822458 228.929038 
L 160.699995 233.182642 
z
" clip-path="url(#pc219b95575)" style="fill: #ffeee7; fill-opacity: 0.7"/>
    <path d="M 200.712471 229.25757 
L 204.672885 225.174849 
L 211.668255 227.482074 
L 207.725769 231.616404 
z
" clip-path="url(#pc219b95575)" style="fill: #ffece3; fill-opacity: 0.7"/>
    <path d="M 218.695263 229.78962 
L 222.588395 225.736777 
L 229.620037 228.562972 
L 225.75119 232.302246 
z
" clip-path="url(#pc219b95575)" style="fill: #ffece4; fill-opacity: 0.7"/>
    <path d="M 124.791232 232.813852 
L 129.048171 228.759589 
L 135.873847 230.867659 
L 131.634736 234.992889 
z
" clip-path="url(#pc219b95575)" style="fill: #fff0e9; fill-opacity: 0.7"/>
    <path d="M 236.680352 231.408992 
L 240.499814 227.587207 
L 247.572819 230.25048 
L 243.773132 234.106111 
z
" clip-path="url(#pc219b95575)" style="fill: #ffeee7; fill-opacity: 0.7"/>
    <path d="M 171.742817 231.04303 
L 175.817202 226.792644 
L 182.75293 228.864115 
L 178.695658 233.191461 
z
" clip-path="url(#pc219b95575)" style="fill: #ffede5; fill-opacity: 0.7"/>
    <path d="M 254.676637 232.892015 
L 258.42742 229.003484 
L 265.542934 231.585631 
L 261.812046 235.500926 
z
" clip-path="url(#pc219b95575)" style="fill: #fff0e9; fill-opacity: 0.7"/>
    <path d="M 142.732521 233.046693 
L 146.920904 228.851584 
L 153.794646 231.022112 
L 149.623358 235.259407 
z
" clip-path="url(#pc219b95575)" style="fill: #ffefe8; fill-opacity: 0.7"/>
    <path d="M 95.732059 234.297436 
L 100.107149 230.283593 
L 106.874255 232.492176 
L 102.51558 236.523003 
z
" clip-path="url(#pc219b95575)" style="fill: #fff1ea; fill-opacity: 0.7"/>
    <path d="M 189.721179 231.083404 
L 193.730502 226.908232 
L 200.712471 229.25757 
L 196.721035 233.451171 
z
" clip-path="url(#pc219b95575)" style="fill: #ffece4; fill-opacity: 0.7"/>
    <path d="M 207.725769 231.616404 
L 211.668255 227.482074 
L 218.695263 229.78962 
L 214.770847 233.962259 
z
" clip-path="url(#pc219b95575)" style="fill: #ffece4; fill-opacity: 0.7"/>
    <path d="M 113.671976 234.692692 
L 117.979573 230.653752 
L 124.791232 232.813852 
L 120.500549 236.880644 
z
" clip-path="url(#pc219b95575)" style="fill: #fff1ea; fill-opacity: 0.7"/>
    <path d="M 160.699995 233.182642 
L 164.822458 228.929038 
L 171.742817 231.04303 
L 167.637475 235.350479 
z
" clip-path="url(#pc219b95575)" style="fill: #ffeee7; fill-opacity: 0.7"/>
    <path d="M 225.75119 232.302246 
L 229.620037 228.562972 
L 236.680352 231.408992 
L 232.831635 235.189453 
z
" clip-path="url(#pc219b95575)" style="fill: #ffeee6; fill-opacity: 0.7"/>
    <path d="M 243.773132 234.106111 
L 247.572819 230.25048 
L 254.676637 232.892015 
L 250.896899 236.777404 
z
" clip-path="url(#pc219b95575)" style="fill: #fff0e8; fill-opacity: 0.7"/>
    <path d="M 131.634736 234.992889 
L 135.873847 230.867659 
L 142.732521 233.046693 
L 138.511575 237.259187 
z
" clip-path="url(#pc219b95575)" style="fill: #fff0e9; fill-opacity: 0.7"/>
    <path d="M 178.695658 233.191461 
L 182.75293 228.864115 
L 189.721179 231.083404 
L 185.681059 235.429164 
z
" clip-path="url(#pc219b95575)" style="fill: #ffede5; fill-opacity: 0.7"/>
    <path d="M 261.812046 235.500926 
L 265.542934 231.585631 
L 272.689797 234.156476 
L 268.979096 238.093575 
z
" clip-path="url(#pc219b95575)" style="fill: #fff1ea; fill-opacity: 0.7"/>
    <path d="M 149.623358 235.259407 
L 153.794646 231.022112 
L 160.699995 233.182642 
L 156.545888 237.466108 
z
" clip-path="url(#pc219b95575)" style="fill: #fff0e8; fill-opacity: 0.7"/>
    <path d="M 196.721035 233.451171 
L 200.712471 229.25757 
L 207.725769 231.616404 
L 203.752419 235.828556 
z
" clip-path="url(#pc219b95575)" style="fill: #ffede5; fill-opacity: 0.7"/>
    <path d="M 102.51558 236.523003 
L 106.874255 232.492176 
L 113.671976 234.692692 
L 109.330017 238.74476 
z
" clip-path="url(#pc219b95575)" style="fill: #fff2eb; fill-opacity: 0.7"/>
    <path d="M 214.770847 233.962259 
L 218.695263 229.78962 
L 225.75119 232.302246 
L 221.848257 236.285185 
z
" clip-path="url(#pc219b95575)" style="fill: #ffece4; fill-opacity: 0.7"/>
    <path d="M 120.500549 236.880644 
L 124.791232 232.813852 
L 131.634736 234.992889 
L 127.363329 239.179196 
z
" clip-path="url(#pc219b95575)" style="fill: #fff1ea; fill-opacity: 0.7"/>
    <path d="M 167.637475 235.350479 
L 171.742817 231.04303 
L 178.695658 233.191461 
L 174.607472 237.550729 
z
" clip-path="url(#pc219b95575)" style="fill: #ffeee7; fill-opacity: 0.7"/>
    <path d="M 232.831635 235.189453 
L 236.680352 231.408992 
L 243.773132 234.106111 
L 239.943287 237.981709 
z
" clip-path="url(#pc219b95575)" style="fill: #ffefe8; fill-opacity: 0.7"/>
    <path d="M 250.896899 236.777404 
L 254.676637 232.892015 
L 261.812046 235.500926 
L 258.052097 239.424988 
z
" clip-path="url(#pc219b95575)" style="fill: #fff1ea; fill-opacity: 0.7"/>
    <path d="M 138.511575 237.259187 
L 142.732521 233.046693 
L 149.623358 235.259407 
L 145.419663 239.513076 
z
" clip-path="url(#pc219b95575)" style="fill: #fff0e9; fill-opacity: 0.7"/>
    <path d="M 185.681059 235.429164 
L 189.721179 231.083404 
L 196.721035 233.451171 
L 192.698592 237.756547 
z
" clip-path="url(#pc219b95575)" style="fill: #ffeee6; fill-opacity: 0.7"/>
    <path d="M 91.322175 238.331589 
L 95.732059 234.297436 
L 102.51558 236.523003 
L 98.122078 240.571246 
z
" clip-path="url(#pc219b95575)" style="fill: #fff2eb; fill-opacity: 0.7"/>
    <path d="M 203.752419 235.828556 
L 207.725769 231.616404 
L 214.770847 233.962259 
L 210.815753 238.193035 
z
" clip-path="url(#pc219b95575)" style="fill: #ffede5; fill-opacity: 0.7"/>
    <path d="M 156.545888 237.466108 
L 160.699995 233.182642 
L 167.637475 235.350479 
L 163.500598 239.680798 
z
" clip-path="url(#pc219b95575)" style="fill: #fff0e8; fill-opacity: 0.7"/>
    <path d="M 109.330017 238.74476 
L 113.671976 234.692692 
L 120.500549 236.880644 
L 116.177564 241.028403 
z
" clip-path="url(#pc219b95575)" style="fill: #fff2eb; fill-opacity: 0.7"/>
    <path d="M 221.848257 236.285185 
L 225.75119 232.302246 
L 232.831635 235.189453 
L 228.950506 239.08254 
z
" clip-path="url(#pc219b95575)" style="fill: #ffeee6; fill-opacity: 0.7"/>
    <path d="M 239.943287 237.981709 
L 243.773132 234.106111 
L 250.896899 236.777404 
L 247.087213 240.680807 
z
" clip-path="url(#pc219b95575)" style="fill: #fff0e8; fill-opacity: 0.7"/>
    <path d="M 127.363329 239.179196 
L 131.634736 234.992889 
L 138.511575 237.259187 
L 134.257447 241.481458 
z
" clip-path="url(#pc219b95575)" style="fill: #fff1ea; fill-opacity: 0.7"/>
    <path d="M 174.607472 237.550729 
L 178.695658 233.191461 
L 185.681059 235.429164 
L 181.610089 239.80706 
z
" clip-path="url(#pc219b95575)" style="fill: #ffeee7; fill-opacity: 0.7"/>
    <path d="M 258.052097 239.424988 
L 261.812046 235.500926 
L 268.979096 238.093575 
L 265.239286 242.046845 
z
" clip-path="url(#pc219b95575)" style="fill: #fff2eb; fill-opacity: 0.7"/>
    <path d="M 145.419663 239.513076 
L 149.623358 235.259407 
L 156.545888 237.466108 
L 152.359513 241.762417 
z
" clip-path="url(#pc219b95575)" style="fill: #fff0e9; fill-opacity: 0.7"/>
    <path d="M 192.698592 237.756547 
L 196.721035 233.451171 
L 203.752419 235.828556 
L 199.748065 240.119208 
z
" clip-path="url(#pc219b95575)" style="fill: #ffeee6; fill-opacity: 0.7"/>
    <path d="M 98.122078 240.571246 
L 102.51558 236.523003 
L 109.330017 238.74476 
L 104.953722 242.826336 
z
" clip-path="url(#pc219b95575)" style="fill: #fff2ec; fill-opacity: 0.7"/>
    <path d="M 210.815753 238.193035 
L 214.770847 233.962259 
L 221.848257 236.285185 
L 217.911573 240.534636 
z
" clip-path="url(#pc219b95575)" style="fill: #ffeee6; fill-opacity: 0.7"/>
    <path d="M 163.500598 239.680798 
L 167.637475 235.350479 
L 174.607472 237.550729 
L 170.487851 241.919681 
z
" clip-path="url(#pc219b95575)" style="fill: #fff0e8; fill-opacity: 0.7"/>
    <path d="M 116.177564 241.028403 
L 120.500549 236.880644 
L 127.363329 239.179196 
L 123.058022 243.373971 
z
" clip-path="url(#pc219b95575)" style="fill: #fff2eb; fill-opacity: 0.7"/>
    <path d="M 228.950506 239.08254 
L 232.831635 235.189453 
L 239.943287 237.981709 
L 236.081787 241.935048 
z
" clip-path="url(#pc219b95575)" style="fill: #ffefe8; fill-opacity: 0.7"/>
    <path d="M 247.087213 240.680807 
L 250.896899 236.777404 
L 258.052097 239.424988 
L 254.26276 243.353259 
z
" clip-path="url(#pc219b95575)" style="fill: #fff1ea; fill-opacity: 0.7"/>
    <path d="M 134.257447 241.481458 
L 138.511575 237.259187 
L 145.419663 239.513076 
L 141.182922 243.773582 
z
" clip-path="url(#pc219b95575)" style="fill: #fff2eb; fill-opacity: 0.7"/>
    <path d="M 181.610089 239.80706 
L 185.681059 235.429164 
L 192.698592 237.756547 
L 188.645172 242.119741 
z
" clip-path="url(#pc219b95575)" style="fill: #ffeee7; fill-opacity: 0.7"/>
    <path d="M 86.877174 242.389957 
L 91.322175 238.331589 
L 98.122078 240.571246 
L 93.693385 244.640467 
z
" clip-path="url(#pc219b95575)" style="fill: #fff2ec; fill-opacity: 0.7"/>
    <path d="M 199.748065 240.119208 
L 203.752419 235.828556 
L 210.815753 238.193035 
L 206.829743 242.482494 
z
" clip-path="url(#pc219b95575)" style="fill: #ffeee7; fill-opacity: 0.7"/>
    <path d="M 152.359513 241.762417 
L 156.545888 237.466108 
L 163.500598 239.680798 
L 159.331583 244.01745 
z
" clip-path="url(#pc219b95575)" style="fill: #fff0e9; fill-opacity: 0.7"/>
    <path d="M 104.953722 242.826336 
L 109.330017 238.74476 
L 116.177564 241.028403 
L 111.820548 245.20492 
z
" clip-path="url(#pc219b95575)" style="fill: #fff2ec; fill-opacity: 0.7"/>
    <path d="M 217.911573 240.534636 
L 221.848257 236.285185 
L 228.950506 239.08254 
L 225.037629 243.042651 
z
" clip-path="url(#pc219b95575)" style="fill: #ffeee7; fill-opacity: 0.7"/>
    <path d="M 170.487851 241.919681 
L 174.607472 237.550729 
L 181.610089 239.80706 
L 177.507808 244.194827 
z
" clip-path="url(#pc219b95575)" style="fill: #fff0e8; fill-opacity: 0.7"/>
    <path d="M 123.058022 243.373971 
L 127.363329 239.179196 
L 134.257447 241.481458 
L 129.969523 245.709036 
z
" clip-path="url(#pc219b95575)" style="fill: #fff2ec; fill-opacity: 0.7"/>
    <path d="M 236.081787 241.935048 
L 239.943287 237.981709 
L 247.087213 240.680807 
L 243.246913 244.61394 
z
" clip-path="url(#pc219b95575)" style="fill: #fff0e9; fill-opacity: 0.7"/>
    <path d="M 254.26276 243.353259 
L 258.052097 239.424988 
L 265.239286 242.046845 
L 261.470294 246.004561 
z
" clip-path="url(#pc219b95575)" style="fill: #fff2ec; fill-opacity: 0.7"/>
    <path d="M 141.182922 243.773582 
L 145.419663 239.513076 
L 152.359513 241.762417 
L 148.140229 246.061288 
z
" clip-path="url(#pc219b95575)" style="fill: #fff2eb; fill-opacity: 0.7"/>
    <path d="M 188.645172 242.119741 
L 192.698592 237.756547 
L 199.748065 240.119208 
L 195.712632 244.46547 
z
" clip-path="url(#pc219b95575)" style="fill: #ffefe8; fill-opacity: 0.7"/>
    <path d="M 93.693385 244.640467 
L 98.122078 240.571246 
L 104.953722 242.826336 
L 100.544766 246.998088 
z
" clip-path="url(#pc219b95575)" style="fill: #fff3ed; fill-opacity: 0.7"/>
    <path d="M 206.829743 242.482494 
L 210.815753 238.193035 
L 217.911573 240.534636 
L 213.94411 244.82956 
z
" clip-path="url(#pc219b95575)" style="fill: #ffeee7; fill-opacity: 0.7"/>
    <path d="M 159.331583 244.01745 
L 163.500598 239.680798 
L 170.487851 241.919681 
L 166.336232 246.28858 
z
" clip-path="url(#pc219b95575)" style="fill: #fff1ea; fill-opacity: 0.7"/>
    <path d="M 111.820548 245.20492 
L 116.177564 241.028403 
L 123.058022 243.373971 
L 118.718271 247.576728 
z
" clip-path="url(#pc219b95575)" style="fill: #fff2ec; fill-opacity: 0.7"/>
    <path d="M 225.037629 243.042651 
L 228.950506 239.08254 
L 236.081787 241.935048 
L 232.189367 245.91491 
z
" clip-path="url(#pc219b95575)" style="fill: #fff0e8; fill-opacity: 0.7"/>
    <path d="M 243.246913 244.61394 
L 247.087213 240.680807 
L 254.26276 243.353259 
L 250.44321 247.300029 
z
" clip-path="url(#pc219b95575)" style="fill: #fff2eb; fill-opacity: 0.7"/>
    <path d="M 177.507808 244.194827 
L 181.610089 239.80706 
L 188.645172 242.119741 
L 184.560482 246.506421 
z
" clip-path="url(#pc219b95575)" style="fill: #fff0e8; fill-opacity: 0.7"/>
    <path d="M 129.969523 245.709036 
L 134.257447 241.481458 
L 141.182922 243.773582 
L 136.912502 248.035623 
z
" clip-path="url(#pc219b95575)" style="fill: #fff2ec; fill-opacity: 0.7"/>
    <path d="M 82.396798 246.477611 
L 86.877174 242.389957 
L 93.693385 244.640467 
L 89.231082 248.783432 
z
" clip-path="url(#pc219b95575)" style="fill: #fff3ed; fill-opacity: 0.7"/>
    <path d="M 195.712632 244.46547 
L 199.748065 240.119208 
L 206.829743 242.482494 
L 202.812649 246.819226 
z
" clip-path="url(#pc219b95575)" style="fill: #fff0e8; fill-opacity: 0.7"/>
    <path d="M 148.140229 246.061288 
L 152.359513 241.762417 
L 159.331583 244.01745 
L 155.129804 248.351649 
z
" clip-path="url(#pc219b95575)" style="fill: #fff2eb; fill-opacity: 0.7"/>
    <path d="M 100.544766 246.998088 
L 104.953722 242.826336 
L 111.820548 245.20492 
L 107.428603 249.395609 
z
" clip-path="url(#pc219b95575)" style="fill: #fff3ed; fill-opacity: 0.7"/>
    <path d="M 213.94411 244.82956 
L 217.911573 240.534636 
L 225.037629 243.042651 
L 221.091734 247.151359 
z
" clip-path="url(#pc219b95575)" style="fill: #ffefe8; fill-opacity: 0.7"/>
    <path d="M 166.336232 246.28858 
L 170.487851 241.919681 
L 177.507808 244.194827 
L 173.373682 248.582718 
z
" clip-path="url(#pc219b95575)" style="fill: #fff1ea; fill-opacity: 0.7"/>
    <path d="M 118.718271 247.576728 
L 123.058022 243.373971 
L 129.969523 245.709036 
L 125.647228 249.940765 
z
" clip-path="url(#pc219b95575)" style="fill: #fff3ed; fill-opacity: 0.7"/>
    <path d="M 232.189367 245.91491 
L 236.081787 241.935048 
L 243.246913 244.61394 
L 239.373175 248.697823 
z
" clip-path="url(#pc219b95575)" style="fill: #fff1ea; fill-opacity: 0.7"/>
    <path d="M 250.44321 247.300029 
L 254.26276 243.353259 
L 261.470294 246.004561 
L 257.671491 249.972514 
z
" clip-path="url(#pc219b95575)" style="fill: #fff2ec; fill-opacity: 0.7"/>
    <path d="M 184.560482 246.506421 
L 188.645172 242.119741 
L 195.712632 244.46547 
L 191.6459 248.842672 
z
" clip-path="url(#pc219b95575)" style="fill: #fff0e9; fill-opacity: 0.7"/>
    <path d="M 136.912502 248.035623 
L 141.182922 243.773582 
L 148.140229 246.061288 
L 143.8874 250.357479 
z
" clip-path="url(#pc219b95575)" style="fill: #fff2ec; fill-opacity: 0.7"/>
    <path d="M 89.231082 248.783432 
L 93.693385 244.640467 
L 100.544766 246.998088 
L 96.100579 251.192669 
z
" clip-path="url(#pc219b95575)" style="fill: #fff4ee; fill-opacity: 0.7"/>
    <path d="M 202.812649 246.819226 
L 206.829743 242.482494 
L 213.94411 244.82956 
L 209.945625 249.163605 
z
" clip-path="url(#pc219b95575)" style="fill: #fff0e8; fill-opacity: 0.7"/>
    <path d="M 155.129804 248.351649 
L 159.331583 244.01745 
L 166.336232 246.28858 
L 162.152014 250.651376 
z
" clip-path="url(#pc219b95575)" style="fill: #fff2eb; fill-opacity: 0.7"/>
    <path d="M 107.428603 249.395609 
L 111.820548 245.20492 
L 118.718271 247.576728 
L 114.343603 251.789718 
z
" clip-path="url(#pc219b95575)" style="fill: #fff4ee; fill-opacity: 0.7"/>
    <path d="M 221.091734 247.151359 
L 225.037629 243.042651 
L 232.189367 245.91491 
L 228.265613 249.922715 
z
" clip-path="url(#pc219b95575)" style="fill: #fff0e8; fill-opacity: 0.7"/>
    <path d="M 173.373682 248.582718 
L 177.507808 244.194827 
L 184.560482 246.506421 
L 180.444058 250.89999 
z
" clip-path="url(#pc219b95575)" style="fill: #fff1ea; fill-opacity: 0.7"/>
    <path d="M 239.373175 248.697823 
L 243.246913 244.61394 
L 250.44321 247.300029 
L 246.590723 251.3649 
z
" clip-path="url(#pc219b95575)" style="fill: #fff2eb; fill-opacity: 0.7"/>
    <path d="M 125.647228 249.940765 
L 129.969523 245.709036 
L 136.912502 248.035623 
L 132.607808 252.297771 
z
" clip-path="url(#pc219b95575)" style="fill: #fff3ed; fill-opacity: 0.7"/>
    <path d="M 191.6459 248.842672 
L 195.712632 244.46547 
L 202.812649 246.819226 
L 198.764239 251.187485 
z
" clip-path="url(#pc219b95575)" style="fill: #fff0e9; fill-opacity: 0.7"/>
    <path d="M 143.8874 250.357479 
L 148.140229 246.061288 
L 155.129804 248.351649 
L 150.894633 252.679216 
z
" clip-path="url(#pc219b95575)" style="fill: #fff3ed; fill-opacity: 0.7"/>
    <path d="M 96.100579 251.192669 
L 100.544766 246.998088 
L 107.428603 249.395609 
L 103.001372 253.605294 
z
" clip-path="url(#pc219b95575)" style="fill: #fff4ee; fill-opacity: 0.7"/>
    <path d="M 209.945625 249.163605 
L 213.94411 244.82956 
L 221.091734 247.151359 
L 217.112082 251.488013 
z
" clip-path="url(#pc219b95575)" style="fill: #fff0e8; fill-opacity: 0.7"/>
    <path d="M 162.152014 250.651376 
L 166.336232 246.28858 
L 173.373682 248.582718 
L 169.207129 252.964674 
z
" clip-path="url(#pc219b95575)" style="fill: #fff2ec; fill-opacity: 0.7"/>
    <path d="M 114.343603 251.789718 
L 118.718271 247.576728 
L 125.647228 249.940765 
L 121.290055 254.178653 
z
" clip-path="url(#pc219b95575)" style="fill: #fff4ee; fill-opacity: 0.7"/>
    <path d="M 228.265613 249.922715 
L 232.189367 245.91491 
L 239.373175 248.697823 
L 235.469045 252.779041 
z
" clip-path="url(#pc219b95575)" style="fill: #fff1ea; fill-opacity: 0.7"/>
    <path d="M 246.590723 251.3649 
L 250.44321 247.300029 
L 257.671491 249.972514 
L 253.840893 254.009411 
z
" clip-path="url(#pc219b95575)" style="fill: #fff3ed; fill-opacity: 0.7"/>
    <path d="M 180.444058 250.89999 
L 184.560482 246.506421 
L 191.6459 248.842672 
L 187.547485 253.233693 
z
" clip-path="url(#pc219b95575)" style="fill: #fff2eb; fill-opacity: 0.7"/>
    <path d="M 132.607808 252.297771 
L 136.912502 248.035623 
L 143.8874 250.357479 
L 139.600418 254.649822 
z
" clip-path="url(#pc219b95575)" style="fill: #fff4ee; fill-opacity: 0.7"/>
    <path d="M 198.764239 251.187485 
L 202.812649 246.819226 
L 209.945625 249.163605 
L 205.915852 253.526802 
z
" clip-path="url(#pc219b95575)" style="fill: #fff1ea; fill-opacity: 0.7"/>
    <path d="M 150.894633 252.679216 
L 155.129804 248.351649 
L 162.152014 250.651376 
L 157.934575 255.005098 
z
" clip-path="url(#pc219b95575)" style="fill: #fff3ed; fill-opacity: 0.7"/>
    <path d="M 103.001372 253.605294 
L 107.428603 249.395609 
L 114.343603 251.789718 
L 109.933623 256.017708 
z
" clip-path="url(#pc219b95575)" style="fill: #fff4ef; fill-opacity: 0.7"/>
    <path d="M 217.112082 251.488013 
L 221.091734 247.151359 
L 228.265613 249.922715 
L 224.310161 253.956267 
z
" clip-path="url(#pc219b95575)" style="fill: #fff0e9; fill-opacity: 0.7"/>
    <path d="M 169.207129 252.964674 
L 173.373682 248.582718 
L 180.444058 250.89999 
L 176.295356 255.291632 
z
" clip-path="url(#pc219b95575)" style="fill: #fff2ec; fill-opacity: 0.7"/>
    <path d="M 121.290055 254.178653 
L 125.647228 249.940765 
L 132.607808 252.297771 
L 128.268308 256.562054 
z
" clip-path="url(#pc219b95575)" style="fill: #fff4ef; fill-opacity: 0.7"/>
    <path d="M 235.469045 252.779041 
L 239.373175 248.697823 
L 246.590723 251.3649 
L 242.706594 255.488917 
z
" clip-path="url(#pc219b95575)" style="fill: #fff2ec; fill-opacity: 0.7"/>
    <path d="M 187.547485 253.233693 
L 191.6459 248.842672 
L 198.764239 251.187485 
L 194.684172 255.573516 
z
" clip-path="url(#pc219b95575)" style="fill: #fff2eb; fill-opacity: 0.7"/>
    <path d="M 139.600418 254.649822 
L 143.8874 250.357479 
L 150.894633 252.679216 
L 146.625457 256.999662 
z
" clip-path="url(#pc219b95575)" style="fill: #fff4ee; fill-opacity: 0.7"/>
    <path d="M 205.915852 253.526802 
L 209.945625 249.163605 
L 217.112082 251.488013 
L 213.101208 255.85074 
z
" clip-path="url(#pc219b95575)" style="fill: #fff1ea; fill-opacity: 0.7"/>
    <path d="M 157.934575 255.005098 
L 162.152014 250.651376 
L 169.207129 252.964674 
L 165.007536 257.337726 
z
" clip-path="url(#pc219b95575)" style="fill: #fff3ed; fill-opacity: 0.7"/>
    <path d="M 109.933623 256.017708 
L 114.343603 251.789718 
L 121.290055 254.178653 
L 116.897579 258.427528 
z
" clip-path="url(#pc219b95575)" style="fill: #fff4ef; fill-opacity: 0.7"/>
    <path d="M 224.310161 253.956267 
L 228.265613 249.922715 
L 235.469045 252.779041 
L 231.534571 256.82393 
z
" clip-path="url(#pc219b95575)" style="fill: #fff2eb; fill-opacity: 0.7"/>
    <path d="M 176.295356 255.291632 
L 180.444058 250.89999 
L 187.547485 253.233693 
L 183.416898 257.62819 
z
" clip-path="url(#pc219b95575)" style="fill: #fff2ec; fill-opacity: 0.7"/>
    <path d="M 242.706594 255.488917 
L 246.590723 251.3649 
L 253.840893 254.009411 
L 249.977409 258.151399 
z
" clip-path="url(#pc219b95575)" style="fill: #fff3ed; fill-opacity: 0.7"/>
    <path d="M 128.268308 256.562054 
L 132.607808 252.297771 
L 139.600418 254.649822 
L 135.278734 258.940655 
z
" clip-path="url(#pc219b95575)" style="fill: #fff4ef; fill-opacity: 0.7"/>
    <path d="M 194.684172 255.573516 
L 198.764239 251.187485 
L 205.915852 253.526802 
L 201.854455 257.909198 
z
" clip-path="url(#pc219b95575)" style="fill: #fff2eb; fill-opacity: 0.7"/>
    <path d="M 146.625457 256.999662 
L 150.894633 252.679216 
L 157.934575 255.005098 
L 153.683303 259.349865 
z
" clip-path="url(#pc219b95575)" style="fill: #fff4ee; fill-opacity: 0.7"/>
    <path d="M 213.101208 255.85074 
L 217.112082 251.488013 
L 224.310161 253.956267 
L 220.320832 258.153703 
z
" clip-path="url(#pc219b95575)" style="fill: #fff1ea; fill-opacity: 0.7"/>
    <path d="M 165.007536 257.337726 
L 169.207129 252.964674 
L 176.295356 255.291632 
L 172.113785 259.677161 
z
" clip-path="url(#pc219b95575)" style="fill: #fff4ee; fill-opacity: 0.7"/>
    <path d="M 116.897579 258.427528 
L 121.290055 254.178653 
L 128.268308 256.562054 
L 123.893548 260.833515 
z
" clip-path="url(#pc219b95575)" style="fill: #fff5f0; fill-opacity: 0.7"/>
    <path d="M 231.534571 256.82393 
L 235.469045 252.779041 
L 242.706594 255.488917 
L 238.791359 259.632992 
z
" clip-path="url(#pc219b95575)" style="fill: #fff3ed; fill-opacity: 0.7"/>
    <path d="M 183.416898 257.62819 
L 187.547485 253.233693 
L 194.684172 255.573516 
L 190.572005 259.96771 
z
" clip-path="url(#pc219b95575)" style="fill: #fff3ed; fill-opacity: 0.7"/>
    <path d="M 135.278734 258.940655 
L 139.600418 254.649822 
L 146.625457 256.999662 
L 142.321713 261.315794 
z
" clip-path="url(#pc219b95575)" style="fill: #fff4ef; fill-opacity: 0.7"/>
    <path d="M 201.854455 257.909198 
L 205.915852 253.526802 
L 213.101208 255.85074 
L 209.058765 260.232772 
z
" clip-path="url(#pc219b95575)" style="fill: #fff2ec; fill-opacity: 0.7"/>
    <path d="M 153.683303 259.349865 
L 157.934575 255.005098 
L 165.007536 257.337726 
L 160.774295 261.701995 
z
" clip-path="url(#pc219b95575)" style="fill: #fff4ef; fill-opacity: 0.7"/>
    <path d="M 220.320832 258.153703 
L 224.310161 253.956267 
L 231.534571 256.82393 
L 227.568174 260.888612 
z
" clip-path="url(#pc219b95575)" style="fill: #fff2eb; fill-opacity: 0.7"/>
    <path d="M 172.113785 259.677161 
L 176.295356 255.291632 
L 183.416898 257.62819 
L 179.253582 262.020898 
z
" clip-path="url(#pc219b95575)" style="fill: #fff4ee; fill-opacity: 0.7"/>
    <path d="M 238.791359 259.632992 
L 242.706594 255.488917 
L 249.977409 258.151399 
L 246.082983 262.312295 
z
" clip-path="url(#pc219b95575)" style="fill: #fff4ee; fill-opacity: 0.7"/>
    <path d="M 123.893548 260.833515 
L 128.268308 256.562054 
L 135.278734 258.940655 
L 130.921869 263.235363 
z
" clip-path="url(#pc219b95575)" style="fill: #fff5f0; fill-opacity: 0.7"/>
    <path d="M 190.572005 259.96771 
L 194.684172 255.573516 
L 201.854455 257.909198 
L 197.761018 262.303115 
z
" clip-path="url(#pc219b95575)" style="fill: #fff3ed; fill-opacity: 0.7"/>
    <path d="M 142.321713 261.315794 
L 146.625457 256.999662 
L 153.683303 259.349865 
L 149.397624 263.688839 
z
" clip-path="url(#pc219b95575)" style="fill: #fff5f0; fill-opacity: 0.7"/>
    <path d="M 209.058765 260.232772 
L 213.101208 255.85074 
L 220.320832 258.153703 
L 216.297586 262.539459 
z
" clip-path="url(#pc219b95575)" style="fill: #fff2ec; fill-opacity: 0.7"/>
    <path d="M 160.774295 261.701995 
L 165.007536 257.337726 
L 172.113785 259.677161 
L 167.898744 264.056092 
z
" clip-path="url(#pc219b95575)" style="fill: #fff4ef; fill-opacity: 0.7"/>
    <path d="M 227.568174 260.888612 
L 231.534571 256.82393 
L 238.791359 259.632992 
L 234.845528 263.746207 
z
" clip-path="url(#pc219b95575)" style="fill: #fff3ed; fill-opacity: 0.7"/>
    <path d="M 179.253582 262.020898 
L 183.416898 257.62819 
L 190.572005 259.96771 
L 186.427221 264.364732 
z
" clip-path="url(#pc219b95575)" style="fill: #fff4ee; fill-opacity: 0.7"/>
    <path d="M 130.921869 263.235363 
L 135.278734 258.940655 
L 142.321713 261.315794 
L 137.97855 265.416257 
z
" clip-path="url(#pc219b95575)" style="fill: #fff5f0; fill-opacity: 0.7"/>
    <path d="M 197.761018 262.303115 
L 201.854455 257.909198 
L 209.058765 260.232772 
L 204.984343 264.628615 
z
" clip-path="url(#pc219b95575)" style="fill: #fff3ed; fill-opacity: 0.7"/>
    <path d="M 149.397624 263.688839 
L 153.683303 259.349865 
L 160.774295 261.701995 
L 156.506822 266.060651 
z
" clip-path="url(#pc219b95575)" style="fill: #fff5f0; fill-opacity: 0.7"/>
    <path d="M 216.297586 262.539459 
L 220.320832 258.153703 
L 227.568174 260.888612 
L 223.569436 264.970639 
z
" clip-path="url(#pc219b95575)" style="fill: #fff2ec; fill-opacity: 0.7"/>
    <path d="M 167.898744 264.056092 
L 172.113785 259.677161 
L 179.253582 262.020898 
L 175.056958 266.410658 
z
" clip-path="url(#pc219b95575)" style="fill: #fff4ef; fill-opacity: 0.7"/>
    <path d="M 234.845528 263.746207 
L 238.791359 259.632992 
L 246.082983 262.312295 
L 242.157176 266.491919 
z
" clip-path="url(#pc219b95575)" style="fill: #fff4ef; fill-opacity: 0.7"/>
    <path d="M 186.427221 264.364732 
L 190.572005 259.96771 
L 197.761018 262.303115 
L 193.635052 266.704052 
z
" clip-path="url(#pc219b95575)" style="fill: #fff4ee; fill-opacity: 0.7"/>
    <path d="M 137.97855 265.416257 
L 142.321713 261.315794 
L 149.397624 263.688839 
L 145.069773 267.607494 
z
" clip-path="url(#pc219b95575)" style="fill: #fff5f0; fill-opacity: 0.7"/>
    <path d="M 204.984343 264.628615 
L 209.058765 260.232772 
L 216.297586 262.539459 
L 212.242432 266.940723 
z
" clip-path="url(#pc219b95575)" style="fill: #fff3ed; fill-opacity: 0.7"/>
    <path d="M 156.506822 266.060651 
L 160.774295 261.701995 
L 167.898744 264.056092 
L 163.64965 268.431256 
z
" clip-path="url(#pc219b95575)" style="fill: #fff5f0; fill-opacity: 0.7"/>
    <path d="M 223.569436 264.970639 
L 227.568174 260.888612 
L 234.845528 263.746207 
L 230.868194 267.841665 
z
" clip-path="url(#pc219b95575)" style="fill: #fff4ee; fill-opacity: 0.7"/>
    <path d="M 175.056958 266.410658 
L 179.253582 262.020898 
L 186.427221 264.364732 
L 182.249264 268.763162 
z
" clip-path="url(#pc219b95575)" style="fill: #fff4ef; fill-opacity: 0.7"/>
    <path d="M 193.635052 266.704052 
L 197.761018 262.303115 
L 204.984343 264.628615 
L 200.877472 269.035072 
z
" clip-path="url(#pc219b95575)" style="fill: #fff4ee; fill-opacity: 0.7"/>
    <path d="M 145.069773 267.607494 
L 149.397624 263.688839 
L 156.506822 266.060651 
L 152.196005 269.823829 
z
" clip-path="url(#pc219b95575)" style="fill: #fff5f0; fill-opacity: 0.7"/>
    <path d="M 212.242432 266.940723 
L 216.297586 262.539459 
L 223.569436 264.970639 
L 219.535779 269.2387 
z
" clip-path="url(#pc219b95575)" style="fill: #fff3ed; fill-opacity: 0.7"/>
    <path d="M 163.64965 268.431256 
L 167.898744 264.056092 
L 175.056958 266.410658 
L 170.825632 270.682277 
z
" clip-path="url(#pc219b95575)" style="fill: #fff5f0; fill-opacity: 0.7"/>
    <path d="M 230.868194 267.841665 
L 234.845528 263.746207 
L 242.157176 266.491919 
L 238.199537 270.690297 
z
" clip-path="url(#pc219b95575)" style="fill: #fff4ef; fill-opacity: 0.7"/>
    <path d="M 182.249264 268.763162 
L 186.427221 264.364732 
L 193.635052 266.704052 
L 189.476027 271.110869 
z
" clip-path="url(#pc219b95575)" style="fill: #fff5f0; fill-opacity: 0.7"/>
    <path d="M 200.877472 269.035072 
L 204.984343 264.628615 
L 212.242432 266.940723 
L 208.154907 271.355719 
z
" clip-path="url(#pc219b95575)" style="fill: #fff4ee; fill-opacity: 0.7"/>
    <path d="M 152.196005 269.823829 
L 156.506822 266.060651 
L 163.64965 268.431256 
L 159.357381 272.065409 
z
" clip-path="url(#pc219b95575)" style="fill: #fff5f0; fill-opacity: 0.7"/>
    <path d="M 219.535779 269.2387 
L 223.569436 264.970639 
L 230.868194 267.841665 
L 226.858186 271.954257 
z
" clip-path="url(#pc219b95575)" style="fill: #fff4ee; fill-opacity: 0.7"/>
    <path d="M 170.825632 270.682277 
L 175.056958 266.410658 
L 182.249264 268.763162 
L 178.036709 272.953388 
z
" clip-path="url(#pc219b95575)" style="fill: #fff5f0; fill-opacity: 0.7"/>
    <path d="M 189.476027 271.110869 
L 193.635052 266.704052 
L 200.877472 269.035072 
L 196.73764 273.451689 
z
" clip-path="url(#pc219b95575)" style="fill: #fff5f0; fill-opacity: 0.7"/>
    <path d="M 208.154907 271.355719 
L 212.242432 266.940723 
L 219.535779 269.2387 
L 215.467818 273.66612 
z
" clip-path="url(#pc219b95575)" style="fill: #fff4ee; fill-opacity: 0.7"/>
    <path d="M 159.357381 272.065409 
L 163.64965 268.431256 
L 170.825632 270.682277 
L 166.554039 274.33273 
z
" clip-path="url(#pc219b95575)" style="fill: #fff5f0; fill-opacity: 0.7"/>
    <path d="M 178.036709 272.953388 
L 182.249264 268.763162 
L 189.476027 271.110869 
L 185.283075 275.251674 
z
" clip-path="url(#pc219b95575)" style="fill: #fff5f0; fill-opacity: 0.7"/>
    <path d="M 226.858186 271.954257 
L 230.868194 267.841665 
L 238.199537 270.690297 
L 234.310549 269.420676 
z
" clip-path="url(#pc219b95575)" style="fill: #fff2ec; fill-opacity: 0.7"/>
    <path d="M 196.73764 273.451689 
L 200.877472 269.035072 
L 208.154907 271.355719 
L 204.057494 272.148973 
z
" clip-path="url(#pc219b95575)" style="fill: #fff3ed; fill-opacity: 0.7"/>
    <path d="M 166.554039 274.33273 
L 170.825632 270.682277 
L 178.036709 272.953388 
L 173.771133 274.040081 
z
" clip-path="url(#pc219b95575)" style="fill: #fff4ee; fill-opacity: 0.7"/>
    <path d="M 215.467818 273.66612 
L 219.535779 269.2387 
L 226.858186 271.954257 
L 222.969038 264.957497 
z
" clip-path="url(#pc219b95575)" style="fill: #ffeee7; fill-opacity: 0.7"/>
    <path d="M 185.283075 275.251674 
L 189.476027 271.110869 
L 196.73764 273.451689 
L 192.583414 266.846167 
z
" clip-path="url(#pc219b95575)" style="fill: #fff0e8; fill-opacity: 0.7"/>
    <path d="M 204.057494 272.148973 
L 208.154907 271.355719 
L 215.467818 273.66612 
L 211.537916 259.673741 
z
" clip-path="url(#pc219b95575)" style="fill: #feeae0; fill-opacity: 0.7"/>
    <path d="M 173.771133 274.040081 
L 178.036709 272.953388 
L 185.283075 275.251674 
L 181.003501 261.525163 
z
" clip-path="url(#pc219b95575)" style="fill: #ffebe2; fill-opacity: 0.7"/>
    <path d="M 222.969038 264.957497 
L 226.858186 271.954257 
L 234.310549 269.420676 
L 230.646897 251.788875 
z
" clip-path="url(#pc219b95575)" style="fill: #fedecf; fill-opacity: 0.7"/>
    <path d="M 192.583414 266.846167 
L 196.73764 273.451689 
L 204.057494 272.148973 
L 200.001952 254.253573 
z
" clip-path="url(#pc219b95575)" style="fill: #fee1d4; fill-opacity: 0.7"/>
    <path d="M 211.537916 259.673741 
L 215.467818 273.66612 
L 222.969038 264.957497 
L 219.14458 247.003167 
z
" clip-path="url(#pc219b95575)" style="fill: #fdccb8; fill-opacity: 0.7"/>
    <path d="M 181.003501 261.525163 
L 185.283075 275.251674 
L 192.583414 266.846167 
L 188.358475 248.813738 
z
" clip-path="url(#pc219b95575)" style="fill: #fdd0bc; fill-opacity: 0.7"/>
    <path d="M 200.001952 254.253573 
L 204.057494 272.148973 
L 211.537916 259.673741 
L 207.546447 241.462122 
z
" clip-path="url(#pc219b95575)" style="fill: #fcb79c; fill-opacity: 0.7"/>
    <path d="M 219.14458 247.003167 
L 222.969038 264.957497 
L 230.646897 251.788875 
L 226.887042 233.706964 
z
" clip-path="url(#pc219b95575)" style="fill: #fc9777; fill-opacity: 0.7"/>
    <path d="M 188.358475 248.813738 
L 192.583414 266.846167 
L 200.001952 254.253573 
L 195.848483 232.748861 
z
" clip-path="url(#pc219b95575)" style="fill: #fc9879; fill-opacity: 0.7"/>
    <path d="M 207.546447 241.462122 
L 211.537916 259.673741 
L 219.14458 247.003167 
L 215.226461 227.856202 
z
" clip-path="url(#pc219b95575)" style="fill: #fb7c5c; fill-opacity: 0.7"/>
    <path d="M 195.848483 232.748861 
L 200.001952 254.253573 
L 207.546447 241.462122 
L 203.500493 214.033878 
z
" clip-path="url(#pc219b95575)" style="fill: #f5533b; fill-opacity: 0.7"/>
    <path d="M 215.226461 227.856202 
L 219.14458 247.003167 
L 226.887042 233.706964 
L 223.111422 208.963439 
z
" clip-path="url(#pc219b95575)" style="fill: #ea362a; fill-opacity: 0.7"/>
    <path d="M 203.500493 214.033878 
L 207.546447 241.462122 
L 215.226461 227.856202 
L 211.319623 194.918435 
z
" clip-path="url(#pc219b95575)" style="fill: #c4161c; fill-opacity: 0.7"/>
    <path d="M 211.319623 194.918435 
L 215.226461 227.856202 
L 223.111422 208.963439 
L 219.311394 175.384117 
z
" clip-path="url(#pc219b95575)" style="fill: #67000d; fill-opacity: 0.7"/>
   </g>
  </g>
 </g>
 <defs>
  <clipPath id="pc219b95575">
   <rect x="45.9" y="43.2" width="277.2" height="277.2"/>
  </clipPath>
 </defs>
</svg>
