<?xml version="1.0" encoding="utf-8" standalone="no"?>
<!DOCTYPE svg PUBLIC "-//W3C//DTD SVG 1.1//EN"
  "http://www.w3.org/Graphics/SVG/1.1/DTD/svg11.dtd">
<svg xmlns:xlink="http://www.w3.org/1999/xlink" width="360pt" height="360pt" viewBox="0 0 360 360" xmlns="http://www.w3.org/2000/svg" version="1.1">
 <metadata>
  <rdf:RDF xmlns:dc="http://purl.org/dc/elements/1.1/" xmlns:cc="http://creativecommons.org/ns#" xmlns:rdf="http://www.w3.org/1999/02/22-rdf-syntax-ns#">
   <cc:Work>
    <dc:type rdf:resource="http://purl.org/dc/dcmitype/StillImage"/>
    <dc:date>2022-12-22T09:19:23.260331</dc:date>
    <dc:format>image/svg+xml</dc:format>
    <dc:creator>
     <cc:Agent>
      <dc:title>Matplotlib v3.5.3, https://matplotlib.org/</dc:title>
     </cc:Agent>
    </dc:creator>
   </cc:Work>
  </rdf:RDF>
 </metadata>
 <defs>
  <style type="text/css">*{stroke-linejoin: round; stroke-linecap: butt}</style>
 </defs>
 <g id="figure_1">
  <g id="patch_1">
   <path d="M 0 360 
L 360 360 
L 360 0 
L 0 0 
z
" style="fill: #ffffff"/>
  </g>
  <g id="axes_1">
   <g id="patch_2">
    <path d="M 45 320.4 
L 324 320.4 
L 324 43.2 
L 45 43.2 
z
" style="fill: #ffffff"/>
   </g>
   <g id="matplotlib.axis_1">
    <g id="xtick_1">
     <g id="line2d_1">
      <defs>
       <path id="meb99b62d9d" d="M 0 0 
L 0 3.5 
" style="stroke: #000000; stroke-width: 0.8"/>
      </defs>
      <g>
       <use xlink:href="#meb99b62d9d" x="83.045455" y="320.4" style="stroke: #000000; stroke-width: 0.8"/>
      </g>
     </g>
     <g id="text_1">
      <!-- −2 -->
      <g transform="translate(75.674361 334.998438)scale(0.1 -0.1)">
       <defs>
        <path id="DejaVuSans-2212" d="M 678 2272 
L 4684 2272 
L 4684 1741 
L 678 1741 
L 678 2272 
z
" transform="scale(0.015625)"/>
        <path id="DejaVuSans-32" d="M 1228 531 
L 3431 531 
L 3431 0 
L 469 0 
L 469 531 
Q 828 903 1448 1529 
Q 2069 2156 2228 2338 
Q 2531 2678 2651 2914 
Q 2772 3150 2772 3378 
Q 2772 3750 2511 3984 
Q 2250 4219 1831 4219 
Q 1534 4219 1204 4116 
Q 875 4013 500 3803 
L 500 4441 
Q 881 4594 1212 4672 
Q 1544 4750 1819 4750 
Q 2544 4750 2975 4387 
Q 3406 4025 3406 3419 
Q 3406 3131 3298 2873 
Q 3191 2616 2906 2266 
Q 2828 2175 2409 1742 
Q 1991 1309 1228 531 
z
" transform="scale(0.015625)"/>
       </defs>
       <use xlink:href="#DejaVuSans-2212"/>
       <use xlink:href="#DejaVuSans-32" x="83.789062"/>
      </g>
     </g>
    </g>
    <g id="xtick_2">
     <g id="line2d_2">
      <g>
       <use xlink:href="#meb99b62d9d" x="133.772727" y="320.4" style="stroke: #000000; stroke-width: 0.8"/>
      </g>
     </g>
     <g id="text_2">
      <!-- −1 -->
      <g transform="translate(126.401634 334.998438)scale(0.1 -0.1)">
       <defs>
        <path id="DejaVuSans-31" d="M 794 531 
L 1825 531 
L 1825 4091 
L 703 3866 
L 703 4441 
L 1819 4666 
L 2450 4666 
L 2450 531 
L 3481 531 
L 3481 0 
L 794 0 
L 794 531 
z
" transform="scale(0.015625)"/>
       </defs>
       <use xlink:href="#DejaVuSans-2212"/>
       <use xlink:href="#DejaVuSans-31" x="83.789062"/>
      </g>
     </g>
    </g>
    <g id="xtick_3">
     <g id="line2d_3">
      <g>
       <use xlink:href="#meb99b62d9d" x="184.5" y="320.4" style="stroke: #000000; stroke-width: 0.8"/>
      </g>
     </g>
     <g id="text_3">
      <!-- 0 -->
      <g transform="translate(181.31875 334.998438)scale(0.1 -0.1)">
       <defs>
        <path id="DejaVuSans-30" d="M 2034 4250 
Q 1547 4250 1301 3770 
Q 1056 3291 1056 2328 
Q 1056 1369 1301 889 
Q 1547 409 2034 409 
Q 2525 409 2770 889 
Q 3016 1369 3016 2328 
Q 3016 3291 2770 3770 
Q 2525 4250 2034 4250 
z
M 2034 4750 
Q 2819 4750 3233 4129 
Q 3647 3509 3647 2328 
Q 3647 1150 3233 529 
Q 2819 -91 2034 -91 
Q 1250 -91 836 529 
Q 422 1150 422 2328 
Q 422 3509 836 4129 
Q 1250 4750 2034 4750 
z
" transform="scale(0.015625)"/>
       </defs>
       <use xlink:href="#DejaVuSans-30"/>
      </g>
     </g>
    </g>
    <g id="xtick_4">
     <g id="line2d_4">
      <g>
       <use xlink:href="#meb99b62d9d" x="235.227273" y="320.4" style="stroke: #000000; stroke-width: 0.8"/>
      </g>
     </g>
     <g id="text_4">
      <!-- 1 -->
      <g transform="translate(232.046023 334.998438)scale(0.1 -0.1)">
       <use xlink:href="#DejaVuSans-31"/>
      </g>
     </g>
    </g>
    <g id="xtick_5">
     <g id="line2d_5">
      <g>
       <use xlink:href="#meb99b62d9d" x="285.954545" y="320.4" style="stroke: #000000; stroke-width: 0.8"/>
      </g>
     </g>
     <g id="text_5">
      <!-- 2 -->
      <g transform="translate(282.773295 334.998438)scale(0.1 -0.1)">
       <use xlink:href="#DejaVuSans-32"/>
      </g>
     </g>
    </g>
   </g>
   <g id="matplotlib.axis_2">
    <g id="ytick_1">
     <g id="line2d_6">
      <defs>
       <path id="mb4253ee05a" d="M 0 0 
L -3.5 0 
" style="stroke: #000000; stroke-width: 0.8"/>
      </defs>
      <g>
       <use xlink:href="#mb4253ee05a" x="45" y="302.665176" style="stroke: #000000; stroke-width: 0.8"/>
      </g>
     </g>
     <g id="text_6">
      <!-- −0.08 -->
      <g transform="translate(7.354687 306.464395)scale(0.1 -0.1)">
       <defs>
        <path id="DejaVuSans-2e" d="M 684 794 
L 1344 794 
L 1344 0 
L 684 0 
L 684 794 
z
" transform="scale(0.015625)"/>
        <path id="DejaVuSans-38" d="M 2034 2216 
Q 1584 2216 1326 1975 
Q 1069 1734 1069 1313 
Q 1069 891 1326 650 
Q 1584 409 2034 409 
Q 2484 409 2743 651 
Q 3003 894 3003 1313 
Q 3003 1734 2745 1975 
Q 2488 2216 2034 2216 
z
M 1403 2484 
Q 997 2584 770 2862 
Q 544 3141 544 3541 
Q 544 4100 942 4425 
Q 1341 4750 2034 4750 
Q 2731 4750 3128 4425 
Q 3525 4100 3525 3541 
Q 3525 3141 3298 2862 
Q 3072 2584 2669 2484 
Q 3125 2378 3379 2068 
Q 3634 1759 3634 1313 
Q 3634 634 3220 271 
Q 2806 -91 2034 -91 
Q 1263 -91 848 271 
Q 434 634 434 1313 
Q 434 1759 690 2068 
Q 947 2378 1403 2484 
z
M 1172 3481 
Q 1172 3119 1398 2916 
Q 1625 2713 2034 2713 
Q 2441 2713 2670 2916 
Q 2900 3119 2900 3481 
Q 2900 3844 2670 4047 
Q 2441 4250 2034 4250 
Q 1625 4250 1398 4047 
Q 1172 3844 1172 3481 
z
" transform="scale(0.015625)"/>
       </defs>
       <use xlink:href="#DejaVuSans-2212"/>
       <use xlink:href="#DejaVuSans-30" x="83.789062"/>
       <use xlink:href="#DejaVuSans-2e" x="147.412109"/>
       <use xlink:href="#DejaVuSans-30" x="179.199219"/>
       <use xlink:href="#DejaVuSans-38" x="242.822266"/>
      </g>
     </g>
    </g>
    <g id="ytick_2">
     <g id="line2d_7">
      <g>
       <use xlink:href="#mb4253ee05a" x="45" y="268.55546" style="stroke: #000000; stroke-width: 0.8"/>
      </g>
     </g>
     <g id="text_7">
      <!-- −0.06 -->
      <g transform="translate(7.354687 272.354679)scale(0.1 -0.1)">
       <defs>
        <path id="DejaVuSans-36" d="M 2113 2584 
Q 1688 2584 1439 2293 
Q 1191 2003 1191 1497 
Q 1191 994 1439 701 
Q 1688 409 2113 409 
Q 2538 409 2786 701 
Q 3034 994 3034 1497 
Q 3034 2003 2786 2293 
Q 2538 2584 2113 2584 
z
M 3366 4563 
L 3366 3988 
Q 3128 4100 2886 4159 
Q 2644 4219 2406 4219 
Q 1781 4219 1451 3797 
Q 1122 3375 1075 2522 
Q 1259 2794 1537 2939 
Q 1816 3084 2150 3084 
Q 2853 3084 3261 2657 
Q 3669 2231 3669 1497 
Q 3669 778 3244 343 
Q 2819 -91 2113 -91 
Q 1303 -91 875 529 
Q 447 1150 447 2328 
Q 447 3434 972 4092 
Q 1497 4750 2381 4750 
Q 2619 4750 2861 4703 
Q 3103 4656 3366 4563 
z
" transform="scale(0.015625)"/>
       </defs>
       <use xlink:href="#DejaVuSans-2212"/>
       <use xlink:href="#DejaVuSans-30" x="83.789062"/>
       <use xlink:href="#DejaVuSans-2e" x="147.412109"/>
       <use xlink:href="#DejaVuSans-30" x="179.199219"/>
       <use xlink:href="#DejaVuSans-36" x="242.822266"/>
      </g>
     </g>
    </g>
    <g id="ytick_3">
     <g id="line2d_8">
      <g>
       <use xlink:href="#mb4253ee05a" x="45" y="234.445743" style="stroke: #000000; stroke-width: 0.8"/>
      </g>
     </g>
     <g id="text_8">
      <!-- −0.04 -->
      <g transform="translate(7.354687 238.244962)scale(0.1 -0.1)">
       <defs>
        <path id="DejaVuSans-34" d="M 2419 4116 
L 825 1625 
L 2419 1625 
L 2419 4116 
z
M 2253 4666 
L 3047 4666 
L 3047 1625 
L 3713 1625 
L 3713 1100 
L 3047 1100 
L 3047 0 
L 2419 0 
L 2419 1100 
L 313 1100 
L 313 1709 
L 2253 4666 
z
" transform="scale(0.015625)"/>
       </defs>
       <use xlink:href="#DejaVuSans-2212"/>
       <use xlink:href="#DejaVuSans-30" x="83.789062"/>
       <use xlink:href="#DejaVuSans-2e" x="147.412109"/>
       <use xlink:href="#DejaVuSans-30" x="179.199219"/>
       <use xlink:href="#DejaVuSans-34" x="242.822266"/>
      </g>
     </g>
    </g>
    <g id="ytick_4">
     <g id="line2d_9">
      <g>
       <use xlink:href="#mb4253ee05a" x="45" y="200.336027" style="stroke: #000000; stroke-width: 0.8"/>
      </g>
     </g>
     <g id="text_9">
      <!-- −0.02 -->
      <g transform="translate(7.354687 204.135245)scale(0.1 -0.1)">
       <use xlink:href="#DejaVuSans-2212"/>
       <use xlink:href="#DejaVuSans-30" x="83.789062"/>
       <use xlink:href="#DejaVuSans-2e" x="147.412109"/>
       <use xlink:href="#DejaVuSans-30" x="179.199219"/>
       <use xlink:href="#DejaVuSans-32" x="242.822266"/>
      </g>
     </g>
    </g>
    <g id="ytick_5">
     <g id="line2d_10">
      <g>
       <use xlink:href="#mb4253ee05a" x="45" y="166.22631" style="stroke: #000000; stroke-width: 0.8"/>
      </g>
     </g>
     <g id="text_10">
      <!-- 0.00 -->
      <g transform="translate(15.734375 170.025529)scale(0.1 -0.1)">
       <use xlink:href="#DejaVuSans-30"/>
       <use xlink:href="#DejaVuSans-2e" x="63.623047"/>
       <use xlink:href="#DejaVuSans-30" x="95.410156"/>
       <use xlink:href="#DejaVuSans-30" x="159.033203"/>
      </g>
     </g>
    </g>
    <g id="ytick_6">
     <g id="line2d_11">
      <g>
       <use xlink:href="#mb4253ee05a" x="45" y="132.116594" style="stroke: #000000; stroke-width: 0.8"/>
      </g>
     </g>
     <g id="text_11">
      <!-- 0.02 -->
      <g transform="translate(15.734375 135.915812)scale(0.1 -0.1)">
       <use xlink:href="#DejaVuSans-30"/>
       <use xlink:href="#DejaVuSans-2e" x="63.623047"/>
       <use xlink:href="#DejaVuSans-30" x="95.410156"/>
       <use xlink:href="#DejaVuSans-32" x="159.033203"/>
      </g>
     </g>
    </g>
    <g id="ytick_7">
     <g id="line2d_12">
      <g>
       <use xlink:href="#mb4253ee05a" x="45" y="98.006877" style="stroke: #000000; stroke-width: 0.8"/>
      </g>
     </g>
     <g id="text_12">
      <!-- 0.04 -->
      <g transform="translate(15.734375 101.806096)scale(0.1 -0.1)">
       <use xlink:href="#DejaVuSans-30"/>
       <use xlink:href="#DejaVuSans-2e" x="63.623047"/>
       <use xlink:href="#DejaVuSans-30" x="95.410156"/>
       <use xlink:href="#DejaVuSans-34" x="159.033203"/>
      </g>
     </g>
    </g>
    <g id="ytick_8">
     <g id="line2d_13">
      <g>
       <use xlink:href="#mb4253ee05a" x="45" y="63.897161" style="stroke: #000000; stroke-width: 0.8"/>
      </g>
     </g>
     <g id="text_13">
      <!-- 0.06 -->
      <g transform="translate(15.734375 67.696379)scale(0.1 -0.1)">
       <use xlink:href="#DejaVuSans-30"/>
       <use xlink:href="#DejaVuSans-2e" x="63.623047"/>
       <use xlink:href="#DejaVuSans-30" x="95.410156"/>
       <use xlink:href="#DejaVuSans-36" x="159.033203"/>
      </g>
     </g>
    </g>
   </g>
   <g id="line2d_14">
    <path d="M 57.681818 171.608001 
L 149.590084 165.37371 
L 153.144551 164.926917 
L 155.429562 164.434013 
L 157.206793 163.807493 
L 158.476243 163.142101 
L 159.7457 162.204274 
L 160.761262 161.191547 
L 161.776821 159.882273 
L 162.792383 158.227942 
L 164.061832 155.657009 
L 167.108514 148.868577 
L 167.616293 148.225834 
L 168.124073 147.947259 
L 168.377963 147.976088 
L 168.631853 148.133084 
L 169.139635 148.866382 
L 169.647414 150.204851 
L 170.155194 152.172605 
L 170.916866 156.241646 
L 171.932425 163.282344 
L 174.471327 182.07398 
L 175.486886 187.736563 
L 176.248557 190.999278 
L 177.010228 193.487302 
L 177.771909 195.323108 
L 178.53358 196.638928 
L 179.295251 197.561385 
L 180.056921 198.19929 
L 181.072481 198.759368 
L 182.849712 199.377999 
L 184.373052 199.955968 
L 185.388613 200.566629 
L 186.150295 201.23869 
L 186.911966 202.178387 
L 187.673635 203.483554 
L 188.435306 205.276665 
L 189.196977 207.711991 
L 189.958646 210.975926 
L 190.720317 215.28162 
L 191.481988 220.860195 
L 192.243657 227.920492 
L 193.259218 239.8686 
L 194.274778 254.573181 
L 197.06757 297.456616 
L 197.829239 304.589332 
L 198.33702 307.157541 
L 198.59091 307.722214 
L 198.8448 307.8 
L 199.09869 307.395251 
L 199.352582 306.51862 
L 199.86036 303.443967 
L 200.36814 298.821557 
L 201.129811 289.684938 
L 202.907042 264.061688 
L 204.176504 246.978464 
L 205.192065 235.648215 
L 206.207625 226.605729 
L 207.223185 219.648103 
L 208.238746 214.424791 
L 209.254306 210.570363 
L 210.269867 207.755499 
L 211.285427 205.715408 
L 212.300987 204.23702 
L 213.316548 203.166635 
L 214.332108 202.387959 
L 215.601559 201.702236 
L 217.124899 201.148583 
L 219.15602 200.685118 
L 222.456598 200.245887 
L 227.78829 199.798118 
L 243.783378 198.689592 
L 291.260858 195.430618 
L 311.318182 194.046729 
L 311.318182 194.046729 
" clip-path="url(#p5ee3981e4c)" style="fill: none; stroke: #1f77b4; stroke-width: 1.5; stroke-linecap: square"/>
   </g>
   <g id="line2d_15">
    <path d="M 57.681818 141.627944 
L 151.875101 141.578662 
L 155.429562 141.402271 
L 157.968463 141.106252 
L 160.25348 140.619365 
L 162.792383 139.806452 
L 164.569612 139.29468 
L 165.585172 139.260077 
L 166.346843 139.500267 
L 166.854624 139.845243 
L 167.362403 140.381168 
L 168.124073 141.602775 
L 168.885745 143.397878 
L 169.647414 145.772698 
L 170.662974 149.692226 
L 173.455765 161.032234 
L 174.471327 163.952575 
L 175.232997 165.541238 
L 175.994666 166.666923 
L 176.756338 167.412989 
L 177.518019 167.866451 
L 178.53358 168.156045 
L 179.80303 168.214598 
L 181.580261 168.029098 
L 183.611382 167.61085 
L 185.134723 167.07151 
L 186.150295 166.488986 
L 187.165856 165.587836 
L 187.927525 164.598694 
L 188.689197 163.225133 
L 189.450867 161.332075 
L 190.212537 158.752481 
L 190.974207 155.287676 
L 191.735877 150.723941 
L 192.497548 144.851543 
L 193.259218 137.516777 
L 194.274778 125.438145 
L 195.798119 103.839248 
L 197.06757 86.448335 
L 197.829239 78.469851 
L 198.33702 74.783845 
L 198.8448 72.621036 
L 199.09869 72.135369 
L 199.352582 72.0488 
L 199.606472 72.34856 
L 199.86036 73.022451 
L 200.36814 75.396336 
L 200.875921 78.950353 
L 201.637593 85.905986 
L 205.445956 124.215033 
L 206.461515 131.331566 
L 207.477077 136.865861 
L 208.492636 141.058921 
L 209.508198 144.176717 
L 210.523757 146.463382 
L 211.539317 148.124016 
L 212.554877 149.323381 
L 213.570438 150.18452 
L 214.839888 150.923429 
L 216.109339 151.406493 
L 217.88657 151.814983 
L 220.171587 152.081075 
L 223.726048 152.237542 
L 230.327197 152.295282 
L 280.851351 152.276903 
L 311.318182 152.256002 
L 311.318182 152.256002 
" clip-path="url(#p5ee3981e4c)" style="fill: none; stroke: #ff7f0e; stroke-width: 1.5; stroke-linecap: square"/>
   </g>
   <g id="line2d_16">
    <path d="M 57.681818 155.247258 
L 114.299341 155.938674 
L 153.652331 156.323824 
L 157.206793 156.126451 
L 159.23792 155.795869 
L 160.761262 155.330534 
L 162.030711 154.704218 
L 163.046273 153.982346 
L 164.061832 152.99853 
L 165.077394 151.698486 
L 166.092952 150.041349 
L 167.362403 147.481151 
L 171.170756 139.149558 
L 172.186316 137.678571 
L 173.201876 136.666048 
L 174.217436 136.015782 
L 175.486886 135.534751 
L 177.010228 135.224419 
L 178.78747 135.072669 
L 180.564701 135.126993 
L 182.088041 135.384139 
L 183.357492 135.813692 
L 184.373052 136.354984 
L 185.388613 137.138865 
L 186.404185 138.253003 
L 187.419746 139.81312 
L 188.181416 141.363398 
L 188.943087 143.318912 
L 189.704756 145.76359 
L 190.720317 149.9216 
L 191.735877 155.240671 
L 192.751438 161.744143 
L 194.528669 175.028972 
L 195.798119 183.887178 
L 196.55979 187.736441 
L 197.06757 189.336896 
L 197.321461 189.80032 
L 197.575351 190.020871 
L 197.829239 189.997043 
L 198.08313 189.725258 
L 198.59091 188.450953 
L 199.09869 186.270212 
L 199.86036 181.599211 
L 201.129811 171.612799 
L 202.907042 157.58837 
L 203.922614 151.130724 
L 204.938174 146.110599 
L 205.953735 142.398244 
L 206.715405 140.330381 
L 207.477077 138.751762 
L 208.238746 137.562319 
L 209.254306 136.434681 
L 210.269867 135.680565 
L 211.285427 135.184001 
L 212.554877 134.800559 
L 214.332108 134.523163 
L 216.871009 134.379301 
L 222.202707 134.366615 
L 311.318182 135.419515 
L 311.318182 135.419515 
" clip-path="url(#p5ee3981e4c)" style="fill: none; stroke: #2ca02c; stroke-width: 1.5; stroke-linecap: square"/>
   </g>
   <g id="line2d_17">
    <path d="M 57.681818 153.503674 
L 155.937342 158.181669 
L 158.730133 158.142389 
L 160.50737 157.909559 
L 161.776821 157.525507 
L 162.792383 156.995478 
L 163.807942 156.171504 
L 164.569612 155.293532 
L 165.331282 154.140481 
L 166.346843 152.101406 
L 167.362403 149.463014 
L 168.885745 144.678323 
L 170.409084 140.025376 
L 171.170756 138.275733 
L 171.932425 137.125731 
L 172.440206 136.719722 
L 172.947986 136.58814 
L 173.455765 136.702562 
L 173.963546 137.019482 
L 174.725217 137.77002 
L 176.248557 139.713986 
L 177.771909 141.565569 
L 179.041361 142.772578 
L 180.310811 143.642256 
L 181.580261 144.212581 
L 182.849712 144.523401 
L 184.119162 144.596267 
L 185.388613 144.410848 
L 186.404185 144.040011 
L 187.419746 143.40845 
L 188.181416 142.715814 
L 188.943087 141.785144 
L 189.704756 140.557234 
L 190.466427 138.973858 
L 191.228098 136.970281 
L 192.243657 133.553864 
L 193.259218 129.251016 
L 194.782559 121.529962 
L 196.305899 113.990992 
L 197.06757 111.231794 
L 197.575351 110.032714 
L 198.08313 109.439456 
L 198.33702 109.383505 
L 198.59091 109.489918 
L 199.09869 110.173405 
L 199.606472 111.43852 
L 200.36814 114.225653 
L 201.383702 118.988915 
L 203.668713 129.969431 
L 204.684284 133.825323 
L 205.699846 136.866999 
L 206.715405 139.171515 
L 207.730967 140.874153 
L 208.746526 142.110846 
L 209.762088 143.003782 
L 211.031537 143.77392 
L 212.300987 144.289106 
L 214.078218 144.743382 
L 216.617119 145.11186 
L 220.679367 145.436505 
L 235.658889 146.219085 
L 308.525385 149.91241 
L 311.318182 150.055378 
L 311.318182 150.055378 
" clip-path="url(#p5ee3981e4c)" style="fill: none; stroke: #d62728; stroke-width: 1.5; stroke-linecap: square"/>
   </g>
   <g id="line2d_18">
    <path d="M 57.681818 116.061336 
L 150.097864 118.00205 
L 152.382881 118.344993 
L 153.906221 118.767796 
L 155.175672 119.330964 
L 156.191232 119.996681 
L 157.206793 120.944105 
L 158.222353 122.289283 
L 158.984024 123.655444 
L 159.7457 125.427166 
L 160.50737 127.713181 
L 161.26904 130.649706 
L 162.030711 134.394793 
L 162.792383 139.12821 
L 163.554051 145.03631 
L 164.569612 155.031669 
L 165.585172 167.650251 
L 166.854624 186.739858 
L 169.139635 222.438895 
L 169.901304 230.979938 
L 170.409084 234.855551 
L 170.916866 237.080044 
L 171.170756 237.554325 
L 171.424645 237.614342 
L 171.678535 237.273432 
L 171.932425 236.55396 
L 172.440206 234.096961 
L 173.201876 228.429499 
L 174.471327 216.358511 
L 175.994666 202.465705 
L 177.010228 195.217061 
L 178.025799 189.79479 
L 178.78747 186.783285 
L 179.54914 184.512152 
L 180.310811 182.827365 
L 181.072481 181.596772 
L 181.834151 180.709528 
L 182.849712 179.90743 
L 183.865272 179.408427 
L 185.134723 179.057026 
L 186.658076 178.898038 
L 188.181416 178.969196 
L 189.450867 179.239598 
L 190.466427 179.659392 
L 191.481988 180.335682 
L 192.497548 181.351336 
L 193.513108 182.774098 
L 194.528669 184.604048 
L 197.321461 189.999157 
L 197.829239 190.558584 
L 198.33702 190.843218 
L 198.8448 190.82248 
L 199.352582 190.480798 
L 199.86036 189.82919 
L 200.622031 188.343158 
L 201.637593 185.690007 
L 204.684284 177.181534 
L 205.699846 175.019294 
L 206.715405 173.303563 
L 207.730967 171.986238 
L 208.746526 170.996282 
L 210.015976 170.123026 
L 211.285427 169.540097 
L 212.808768 169.099646 
L 214.839888 168.784598 
L 217.88657 168.610808 
L 222.710488 168.595845 
L 254.700659 169.167145 
L 311.318182 170.222079 
L 311.318182 170.222079 
" clip-path="url(#p5ee3981e4c)" style="fill: none; stroke: #9467bd; stroke-width: 1.5; stroke-linecap: square"/>
   </g>
   <g id="line2d_19">
    <path d="M 57.681818 195.223242 
L 92.21089 193.365641 
L 151.621211 190.021846 
L 154.414002 189.640925 
L 156.191232 189.202102 
L 157.460683 188.699926 
L 158.730133 187.926048 
L 159.7457 187.007657 
L 160.50737 186.072432 
L 161.26904 184.850866 
L 162.030711 183.266392 
L 162.792383 181.226341 
L 163.554051 178.625115 
L 164.315722 175.363295 
L 165.331282 169.840873 
L 166.346843 162.951641 
L 168.124073 148.766191 
L 169.139635 141.178427 
L 169.901304 136.86704 
L 170.409084 134.99102 
L 170.916866 134.060552 
L 171.170756 133.969632 
L 171.424645 134.127644 
L 171.678535 134.530442 
L 172.186316 136.030136 
L 172.694096 138.344899 
L 173.455765 142.967756 
L 177.010228 167.017998 
L 178.025799 171.712421 
L 179.041361 175.227321 
L 179.80303 177.205769 
L 180.564701 178.72555 
L 181.326371 179.871404 
L 182.341931 180.946587 
L 183.357492 181.636458 
L 184.373052 182.050884 
L 185.642515 182.305428 
L 187.673635 182.410092 
L 189.196977 182.547936 
L 190.212537 182.867458 
L 190.974207 183.345235 
L 191.735877 184.129361 
L 192.497548 185.329701 
L 193.259218 187.060925 
L 194.020888 189.418342 
L 194.782559 192.450097 
L 195.798119 197.444686 
L 198.33702 210.830193 
L 199.09869 213.50762 
L 199.606472 214.657662 
L 200.11425 215.268608 
L 200.36814 215.375101 
L 200.622031 215.357739 
L 201.129811 214.975516 
L 201.637593 214.196474 
L 202.399261 212.466837 
L 203.668713 208.794656 
L 205.699846 202.982518 
L 206.969295 200.101619 
L 207.984856 198.286307 
L 209.000416 196.861105 
L 210.015976 195.761606 
L 211.285427 194.746846 
L 212.554877 194.02835 
L 214.078218 193.434848 
L 216.109339 192.93251 
L 218.64824 192.554517 
L 223.218268 192.159445 
L 252.161752 190.508977 
L 290.245297 188.372923 
L 311.318182 187.182585 
L 311.318182 187.182585 
" clip-path="url(#p5ee3981e4c)" style="fill: none; stroke: #8c564b; stroke-width: 1.5; stroke-linecap: square"/>
   </g>
   <g id="line2d_20">
    <path d="M 57.681818 154.96913 
L 99.065929 157.270353 
L 147.558963 159.940623 
L 151.36732 159.961036 
L 153.652331 159.761385 
L 155.175672 159.430153 
L 156.445123 158.939526 
L 157.460683 158.335615 
L 158.476243 157.464066 
L 159.49181 156.222332 
L 160.25348 154.973847 
L 161.015152 153.375019 
L 161.776821 151.355462 
L 162.538491 148.834177 
L 163.554051 144.55284 
L 164.569612 139.113328 
L 165.839062 130.773074 
L 168.377963 113.315435 
L 168.885745 110.967939 
L 169.393524 109.441083 
L 169.647414 109.035033 
L 169.901304 108.885925 
L 170.155194 109.005471 
L 170.409084 109.398388 
L 170.916866 110.996687 
L 171.424645 113.617756 
L 172.186316 119.1477 
L 173.455765 130.835043 
L 174.979107 144.788354 
L 175.994666 152.314068 
L 177.010228 158.0374 
L 177.771909 161.238634 
L 178.53358 163.65558 
L 179.295251 165.437631 
L 180.056921 166.723687 
L 180.818591 167.627114 
L 181.580261 168.238914 
L 182.341931 168.622763 
L 183.357492 168.849901 
L 184.373052 168.788582 
L 185.134723 168.543472 
L 185.896405 168.095784 
L 186.658076 167.392332 
L 187.419746 166.357242 
L 188.181416 164.879017 
L 188.943087 162.817131 
L 189.704756 159.988767 
L 190.466427 156.173863 
L 191.228098 151.125519 
L 191.989767 144.589192 
L 192.751438 136.349942 
L 193.766998 122.570176 
L 195.036449 101.571369 
L 196.81368 71.672718 
L 197.575351 62.275253 
L 198.08313 58.148472 
L 198.59091 56.047103 
L 198.8448 55.8 
L 199.09869 56.091384 
L 199.352582 56.912796 
L 199.86036 60.067553 
L 200.36814 65.022659 
L 201.129811 75.099219 
L 202.399261 95.730036 
L 204.176504 124.264763 
L 205.192065 137.708214 
L 206.207625 148.552268 
L 207.223185 156.972585 
L 208.238746 163.340369 
L 209.254306 168.068053 
L 210.269867 171.5379 
L 211.285427 174.062519 
L 212.300987 175.894014 
L 213.316548 177.219431 
L 214.332108 178.178647 
L 215.601559 179.022626 
L 216.871009 179.594577 
L 218.39435 180.057473 
L 220.679367 180.487107 
L 224.233828 180.867459 
L 234.389438 181.530981 
L 271.711308 183.738924 
L 311.318182 186.111956 
L 311.318182 186.111956 
" clip-path="url(#p5ee3981e4c)" style="fill: none; stroke: #e377c2; stroke-width: 1.5; stroke-linecap: square"/>
   </g>
   <g id="line2d_21">
    <path d="M 57.681818 189.697283 
L 135.880012 185.880101 
L 148.320633 185.329213 
L 152.636771 185.36589 
L 154.667892 185.607585 
L 156.191232 186.010138 
L 157.460683 186.598517 
L 158.476243 187.324983 
L 159.49181 188.372516 
L 160.25348 189.44339 
L 161.015152 190.831589 
L 161.776821 192.610671 
L 162.538491 194.866759 
L 163.300161 197.685038 
L 164.315722 202.439274 
L 165.331282 208.392469 
L 166.854624 219.030733 
L 168.124073 227.710961 
L 168.885745 231.58877 
L 169.393524 233.16442 
L 169.647414 233.573642 
L 169.901304 233.704289 
L 170.155194 233.538795 
L 170.409084 233.069678 
L 170.916866 231.198699 
L 171.424645 228.123436 
L 172.186316 221.532053 
L 173.201876 210.19668 
L 175.486886 183.617508 
L 176.502447 174.339996 
L 177.518019 167.17845 
L 178.27969 163.073464 
L 179.041361 159.884754 
L 179.80303 157.445687 
L 180.564701 155.601099 
L 181.326371 154.218592 
L 182.341931 152.906919 
L 183.357492 152.018293 
L 184.626943 151.280522 
L 186.658076 150.457443 
L 188.181416 149.723495 
L 189.196977 148.956285 
L 189.958646 148.119056 
L 190.720317 146.95653 
L 191.481988 145.366404 
L 192.243657 143.2371 
L 193.005328 140.468998 
L 194.020888 135.694959 
L 195.290339 128.190552 
L 197.321461 115.871201 
L 198.08313 112.732668 
L 198.59091 111.463649 
L 199.09869 110.938662 
L 199.352582 110.963507 
L 199.606472 111.173404 
L 200.11425 112.125097 
L 200.622031 113.711807 
L 201.383702 117.019657 
L 202.653151 123.898114 
L 204.430394 133.519829 
L 205.699846 139.100154 
L 206.715405 142.596471 
L 207.730967 145.301833 
L 208.746526 147.341192 
L 209.762088 148.846498 
L 210.777647 149.942012 
L 211.793207 150.724999 
L 213.062658 151.389578 
L 214.332108 151.807339 
L 215.855449 152.096852 
L 217.88657 152.269177 
L 220.933257 152.293818 
L 227.026619 152.073756 
L 311.318182 147.79254 
L 311.318182 147.79254 
" clip-path="url(#p5ee3981e4c)" style="fill: none; stroke: #7f7f7f; stroke-width: 1.5; stroke-linecap: square"/>
   </g>
   <g id="line2d_22">
    <path d="M 57.681818 177.453969 
L 152.636771 181.878722 
L 155.429562 182.319172 
L 157.206793 182.818988 
L 158.476243 183.361256 
L 159.7457 184.142616 
L 160.761262 185.000339 
L 161.776821 186.130782 
L 162.792383 187.58465 
L 163.807942 189.40167 
L 165.077394 192.142489 
L 167.362403 197.198925 
L 168.124073 198.199331 
L 168.631853 198.442083 
L 168.885745 198.406585 
L 169.393524 197.976788 
L 169.901304 197.031682 
L 170.409084 195.558622 
L 171.170756 192.422813 
L 172.186316 186.923853 
L 174.725217 172.265179 
L 175.740776 167.851812 
L 176.502447 165.295152 
L 177.264118 163.330285 
L 178.025799 161.868162 
L 178.78747 160.810057 
L 179.54914 160.063748 
L 180.564701 159.425762 
L 181.580261 159.070457 
L 182.849712 158.89496 
L 184.119162 158.934484 
L 185.388613 159.182522 
L 186.404185 159.576129 
L 187.419746 160.227859 
L 188.181416 160.960832 
L 188.943087 161.986001 
L 189.704756 163.401118 
L 190.466427 165.327681 
L 191.228098 167.901013 
L 191.989767 171.265871 
L 192.751438 175.544809 
L 193.766998 182.767754 
L 195.036449 193.853666 
L 196.81368 209.591955 
L 197.575351 214.39405 
L 198.08313 216.38242 
L 198.33702 216.953883 
L 198.59091 217.226196 
L 198.8448 217.192569 
L 199.09869 216.855318 
L 199.606472 215.295648 
L 200.11425 212.646318 
L 200.875921 207.010694 
L 202.145371 194.989192 
L 204.176504 175.557374 
L 205.192065 167.657774 
L 206.207625 161.305482 
L 207.223185 156.389086 
L 208.238746 152.690597 
L 209.254306 149.961693 
L 210.269867 147.981212 
L 211.285427 146.557555 
L 212.300987 145.547594 
L 213.316548 144.837474 
L 214.585998 144.249827 
L 216.109339 143.831578 
L 218.14046 143.567763 
L 220.933257 143.477494 
L 225.757169 143.590372 
L 239.721131 144.211198 
L 264.856263 145.381368 
L 311.318182 147.567273 
L 311.318182 147.567273 
" clip-path="url(#p5ee3981e4c)" style="fill: none; stroke: #bcbd22; stroke-width: 1.5; stroke-linecap: square"/>
   </g>
   <g id="line2d_23">
    <path d="M 57.681818 206.871264 
L 100.33538 206.463181 
L 153.652331 205.800879 
L 156.445123 205.514131 
L 158.222353 205.112391 
L 159.49181 204.6129 
L 160.50737 204.008419 
L 161.522931 203.137603 
L 162.538491 201.889484 
L 163.300161 200.631403 
L 164.061832 199.021353 
L 165.077394 196.220883 
L 166.092952 192.572123 
L 167.108514 188.072797 
L 168.885745 178.919345 
L 170.155194 172.804885 
L 170.916866 169.953669 
L 171.678535 167.964731 
L 172.186316 167.145067 
L 172.694096 166.710675 
L 173.201876 166.614388 
L 173.709656 166.7933 
L 174.471327 167.437304 
L 175.740776 168.99604 
L 177.518019 171.129166 
L 178.78747 172.246637 
L 179.80303 172.870392 
L 181.072481 173.3611 
L 182.341931 173.592467 
L 183.611382 173.61662 
L 185.134723 173.417214 
L 186.658076 173.001242 
L 188.689197 172.198412 
L 190.466427 171.54164 
L 191.228098 171.433724 
L 191.989767 171.557011 
L 192.497548 171.827494 
L 193.005328 172.296733 
L 193.513108 173.009537 
L 194.020888 174.007462 
L 194.782559 176.119444 
L 195.544229 179.023683 
L 196.55979 184.035391 
L 199.606472 200.404022 
L 200.36814 202.900421 
L 200.875921 203.993577 
L 201.383702 204.647381 
L 201.891481 204.904405 
L 202.399261 204.821983 
L 202.907042 204.469973 
L 203.668713 203.574068 
L 204.938174 201.590985 
L 206.969295 198.414148 
L 208.238746 196.832398 
L 209.508198 195.617744 
L 210.777647 194.720579 
L 212.047097 194.078283 
L 213.570438 193.552524 
L 215.347669 193.165422 
L 217.63268 192.885668 
L 221.187147 192.684391 
L 228.04218 192.543782 
L 245.306719 192.349174 
L 311.318182 191.609045 
L 311.318182 191.609045 
" clip-path="url(#p5ee3981e4c)" style="fill: none; stroke: #17becf; stroke-width: 1.5; stroke-linecap: square"/>
   </g>
   <g id="patch_3">
    <path d="M 45 320.4 
L 45 43.2 
" style="fill: none; stroke: #000000; stroke-width: 0.8; stroke-linejoin: miter; stroke-linecap: square"/>
   </g>
   <g id="patch_4">
    <path d="M 324 320.4 
L 324 43.2 
" style="fill: none; stroke: #000000; stroke-width: 0.8; stroke-linejoin: miter; stroke-linecap: square"/>
   </g>
   <g id="patch_5">
    <path d="M 45 320.4 
L 324 320.4 
" style="fill: none; stroke: #000000; stroke-width: 0.8; stroke-linejoin: miter; stroke-linecap: square"/>
   </g>
   <g id="patch_6">
    <path d="M 45 43.2 
L 324 43.2 
" style="fill: none; stroke: #000000; stroke-width: 0.8; stroke-linejoin: miter; stroke-linecap: square"/>
   </g>
   <g id="text_14">
    <!-- Deviation from average for single draw -->
    <g transform="translate(66.87 37.2)scale(0.12 -0.12)">
     <defs>
      <path id="DejaVuSans-44" d="M 1259 4147 
L 1259 519 
L 2022 519 
Q 2988 519 3436 956 
Q 3884 1394 3884 2338 
Q 3884 3275 3436 3711 
Q 2988 4147 2022 4147 
L 1259 4147 
z
M 628 4666 
L 1925 4666 
Q 3281 4666 3915 4102 
Q 4550 3538 4550 2338 
Q 4550 1131 3912 565 
Q 3275 0 1925 0 
L 628 0 
L 628 4666 
z
" transform="scale(0.015625)"/>
      <path id="DejaVuSans-65" d="M 3597 1894 
L 3597 1613 
L 953 1613 
Q 991 1019 1311 708 
Q 1631 397 2203 397 
Q 2534 397 2845 478 
Q 3156 559 3463 722 
L 3463 178 
Q 3153 47 2828 -22 
Q 2503 -91 2169 -91 
Q 1331 -91 842 396 
Q 353 884 353 1716 
Q 353 2575 817 3079 
Q 1281 3584 2069 3584 
Q 2775 3584 3186 3129 
Q 3597 2675 3597 1894 
z
M 3022 2063 
Q 3016 2534 2758 2815 
Q 2500 3097 2075 3097 
Q 1594 3097 1305 2825 
Q 1016 2553 972 2059 
L 3022 2063 
z
" transform="scale(0.015625)"/>
      <path id="DejaVuSans-76" d="M 191 3500 
L 800 3500 
L 1894 563 
L 2988 3500 
L 3597 3500 
L 2284 0 
L 1503 0 
L 191 3500 
z
" transform="scale(0.015625)"/>
      <path id="DejaVuSans-69" d="M 603 3500 
L 1178 3500 
L 1178 0 
L 603 0 
L 603 3500 
z
M 603 4863 
L 1178 4863 
L 1178 4134 
L 603 4134 
L 603 4863 
z
" transform="scale(0.015625)"/>
      <path id="DejaVuSans-61" d="M 2194 1759 
Q 1497 1759 1228 1600 
Q 959 1441 959 1056 
Q 959 750 1161 570 
Q 1363 391 1709 391 
Q 2188 391 2477 730 
Q 2766 1069 2766 1631 
L 2766 1759 
L 2194 1759 
z
M 3341 1997 
L 3341 0 
L 2766 0 
L 2766 531 
Q 2569 213 2275 61 
Q 1981 -91 1556 -91 
Q 1019 -91 701 211 
Q 384 513 384 1019 
Q 384 1609 779 1909 
Q 1175 2209 1959 2209 
L 2766 2209 
L 2766 2266 
Q 2766 2663 2505 2880 
Q 2244 3097 1772 3097 
Q 1472 3097 1187 3025 
Q 903 2953 641 2809 
L 641 3341 
Q 956 3463 1253 3523 
Q 1550 3584 1831 3584 
Q 2591 3584 2966 3190 
Q 3341 2797 3341 1997 
z
" transform="scale(0.015625)"/>
      <path id="DejaVuSans-74" d="M 1172 4494 
L 1172 3500 
L 2356 3500 
L 2356 3053 
L 1172 3053 
L 1172 1153 
Q 1172 725 1289 603 
Q 1406 481 1766 481 
L 2356 481 
L 2356 0 
L 1766 0 
Q 1100 0 847 248 
Q 594 497 594 1153 
L 594 3053 
L 172 3053 
L 172 3500 
L 594 3500 
L 594 4494 
L 1172 4494 
z
" transform="scale(0.015625)"/>
      <path id="DejaVuSans-6f" d="M 1959 3097 
Q 1497 3097 1228 2736 
Q 959 2375 959 1747 
Q 959 1119 1226 758 
Q 1494 397 1959 397 
Q 2419 397 2687 759 
Q 2956 1122 2956 1747 
Q 2956 2369 2687 2733 
Q 2419 3097 1959 3097 
z
M 1959 3584 
Q 2709 3584 3137 3096 
Q 3566 2609 3566 1747 
Q 3566 888 3137 398 
Q 2709 -91 1959 -91 
Q 1206 -91 779 398 
Q 353 888 353 1747 
Q 353 2609 779 3096 
Q 1206 3584 1959 3584 
z
" transform="scale(0.015625)"/>
      <path id="DejaVuSans-6e" d="M 3513 2113 
L 3513 0 
L 2938 0 
L 2938 2094 
Q 2938 2591 2744 2837 
Q 2550 3084 2163 3084 
Q 1697 3084 1428 2787 
Q 1159 2491 1159 1978 
L 1159 0 
L 581 0 
L 581 3500 
L 1159 3500 
L 1159 2956 
Q 1366 3272 1645 3428 
Q 1925 3584 2291 3584 
Q 2894 3584 3203 3211 
Q 3513 2838 3513 2113 
z
" transform="scale(0.015625)"/>
      <path id="DejaVuSans-20" transform="scale(0.015625)"/>
      <path id="DejaVuSans-66" d="M 2375 4863 
L 2375 4384 
L 1825 4384 
Q 1516 4384 1395 4259 
Q 1275 4134 1275 3809 
L 1275 3500 
L 2222 3500 
L 2222 3053 
L 1275 3053 
L 1275 0 
L 697 0 
L 697 3053 
L 147 3053 
L 147 3500 
L 697 3500 
L 697 3744 
Q 697 4328 969 4595 
Q 1241 4863 1831 4863 
L 2375 4863 
z
" transform="scale(0.015625)"/>
      <path id="DejaVuSans-72" d="M 2631 2963 
Q 2534 3019 2420 3045 
Q 2306 3072 2169 3072 
Q 1681 3072 1420 2755 
Q 1159 2438 1159 1844 
L 1159 0 
L 581 0 
L 581 3500 
L 1159 3500 
L 1159 2956 
Q 1341 3275 1631 3429 
Q 1922 3584 2338 3584 
Q 2397 3584 2469 3576 
Q 2541 3569 2628 3553 
L 2631 2963 
z
" transform="scale(0.015625)"/>
      <path id="DejaVuSans-6d" d="M 3328 2828 
Q 3544 3216 3844 3400 
Q 4144 3584 4550 3584 
Q 5097 3584 5394 3201 
Q 5691 2819 5691 2113 
L 5691 0 
L 5113 0 
L 5113 2094 
Q 5113 2597 4934 2840 
Q 4756 3084 4391 3084 
Q 3944 3084 3684 2787 
Q 3425 2491 3425 1978 
L 3425 0 
L 2847 0 
L 2847 2094 
Q 2847 2600 2669 2842 
Q 2491 3084 2119 3084 
Q 1678 3084 1418 2786 
Q 1159 2488 1159 1978 
L 1159 0 
L 581 0 
L 581 3500 
L 1159 3500 
L 1159 2956 
Q 1356 3278 1631 3431 
Q 1906 3584 2284 3584 
Q 2666 3584 2933 3390 
Q 3200 3197 3328 2828 
z
" transform="scale(0.015625)"/>
      <path id="DejaVuSans-67" d="M 2906 1791 
Q 2906 2416 2648 2759 
Q 2391 3103 1925 3103 
Q 1463 3103 1205 2759 
Q 947 2416 947 1791 
Q 947 1169 1205 825 
Q 1463 481 1925 481 
Q 2391 481 2648 825 
Q 2906 1169 2906 1791 
z
M 3481 434 
Q 3481 -459 3084 -895 
Q 2688 -1331 1869 -1331 
Q 1566 -1331 1297 -1286 
Q 1028 -1241 775 -1147 
L 775 -588 
Q 1028 -725 1275 -790 
Q 1522 -856 1778 -856 
Q 2344 -856 2625 -561 
Q 2906 -266 2906 331 
L 2906 616 
Q 2728 306 2450 153 
Q 2172 0 1784 0 
Q 1141 0 747 490 
Q 353 981 353 1791 
Q 353 2603 747 3093 
Q 1141 3584 1784 3584 
Q 2172 3584 2450 3431 
Q 2728 3278 2906 2969 
L 2906 3500 
L 3481 3500 
L 3481 434 
z
" transform="scale(0.015625)"/>
      <path id="DejaVuSans-73" d="M 2834 3397 
L 2834 2853 
Q 2591 2978 2328 3040 
Q 2066 3103 1784 3103 
Q 1356 3103 1142 2972 
Q 928 2841 928 2578 
Q 928 2378 1081 2264 
Q 1234 2150 1697 2047 
L 1894 2003 
Q 2506 1872 2764 1633 
Q 3022 1394 3022 966 
Q 3022 478 2636 193 
Q 2250 -91 1575 -91 
Q 1294 -91 989 -36 
Q 684 19 347 128 
L 347 722 
Q 666 556 975 473 
Q 1284 391 1588 391 
Q 1994 391 2212 530 
Q 2431 669 2431 922 
Q 2431 1156 2273 1281 
Q 2116 1406 1581 1522 
L 1381 1569 
Q 847 1681 609 1914 
Q 372 2147 372 2553 
Q 372 3047 722 3315 
Q 1072 3584 1716 3584 
Q 2034 3584 2315 3537 
Q 2597 3491 2834 3397 
z
" transform="scale(0.015625)"/>
      <path id="DejaVuSans-6c" d="M 603 4863 
L 1178 4863 
L 1178 0 
L 603 0 
L 603 4863 
z
" transform="scale(0.015625)"/>
      <path id="DejaVuSans-64" d="M 2906 2969 
L 2906 4863 
L 3481 4863 
L 3481 0 
L 2906 0 
L 2906 525 
Q 2725 213 2448 61 
Q 2172 -91 1784 -91 
Q 1150 -91 751 415 
Q 353 922 353 1747 
Q 353 2572 751 3078 
Q 1150 3584 1784 3584 
Q 2172 3584 2448 3432 
Q 2725 3281 2906 2969 
z
M 947 1747 
Q 947 1113 1208 752 
Q 1469 391 1925 391 
Q 2381 391 2643 752 
Q 2906 1113 2906 1747 
Q 2906 2381 2643 2742 
Q 2381 3103 1925 3103 
Q 1469 3103 1208 2742 
Q 947 2381 947 1747 
z
" transform="scale(0.015625)"/>
      <path id="DejaVuSans-77" d="M 269 3500 
L 844 3500 
L 1563 769 
L 2278 3500 
L 2956 3500 
L 3675 769 
L 4391 3500 
L 4966 3500 
L 4050 0 
L 3372 0 
L 2619 2869 
L 1863 0 
L 1184 0 
L 269 3500 
z
" transform="scale(0.015625)"/>
     </defs>
     <use xlink:href="#DejaVuSans-44"/>
     <use xlink:href="#DejaVuSans-65" x="77.001953"/>
     <use xlink:href="#DejaVuSans-76" x="138.525391"/>
     <use xlink:href="#DejaVuSans-69" x="197.705078"/>
     <use xlink:href="#DejaVuSans-61" x="225.488281"/>
     <use xlink:href="#DejaVuSans-74" x="286.767578"/>
     <use xlink:href="#DejaVuSans-69" x="325.976562"/>
     <use xlink:href="#DejaVuSans-6f" x="353.759766"/>
     <use xlink:href="#DejaVuSans-6e" x="414.941406"/>
     <use xlink:href="#DejaVuSans-20" x="478.320312"/>
     <use xlink:href="#DejaVuSans-66" x="510.107422"/>
     <use xlink:href="#DejaVuSans-72" x="545.3125"/>
     <use xlink:href="#DejaVuSans-6f" x="584.175781"/>
     <use xlink:href="#DejaVuSans-6d" x="645.357422"/>
     <use xlink:href="#DejaVuSans-20" x="742.769531"/>
     <use xlink:href="#DejaVuSans-61" x="774.556641"/>
     <use xlink:href="#DejaVuSans-76" x="835.835938"/>
     <use xlink:href="#DejaVuSans-65" x="895.015625"/>
     <use xlink:href="#DejaVuSans-72" x="956.539062"/>
     <use xlink:href="#DejaVuSans-61" x="997.652344"/>
     <use xlink:href="#DejaVuSans-67" x="1058.931641"/>
     <use xlink:href="#DejaVuSans-65" x="1122.408203"/>
     <use xlink:href="#DejaVuSans-20" x="1183.931641"/>
     <use xlink:href="#DejaVuSans-66" x="1215.71875"/>
     <use xlink:href="#DejaVuSans-6f" x="1250.923828"/>
     <use xlink:href="#DejaVuSans-72" x="1312.105469"/>
     <use xlink:href="#DejaVuSans-20" x="1353.21875"/>
     <use xlink:href="#DejaVuSans-73" x="1385.005859"/>
     <use xlink:href="#DejaVuSans-69" x="1437.105469"/>
     <use xlink:href="#DejaVuSans-6e" x="1464.888672"/>
     <use xlink:href="#DejaVuSans-67" x="1528.267578"/>
     <use xlink:href="#DejaVuSans-6c" x="1591.744141"/>
     <use xlink:href="#DejaVuSans-65" x="1619.527344"/>
     <use xlink:href="#DejaVuSans-20" x="1681.050781"/>
     <use xlink:href="#DejaVuSans-64" x="1712.837891"/>
     <use xlink:href="#DejaVuSans-72" x="1776.314453"/>
     <use xlink:href="#DejaVuSans-61" x="1817.427734"/>
     <use xlink:href="#DejaVuSans-77" x="1878.707031"/>
    </g>
   </g>
  </g>
 </g>
 <defs>
  <clipPath id="p5ee3981e4c">
   <rect x="45" y="43.2" width="279" height="277.2"/>
  </clipPath>
 </defs>
</svg>
