<?xml version="1.0" encoding="utf-8" standalone="no"?>
<!DOCTYPE svg PUBLIC "-//W3C//DTD SVG 1.1//EN"
  "http://www.w3.org/Graphics/SVG/1.1/DTD/svg11.dtd">
<svg xmlns:xlink="http://www.w3.org/1999/xlink" width="360pt" height="360pt" viewBox="0 0 360 360" xmlns="http://www.w3.org/2000/svg" version="1.1">
 <metadata>
  <rdf:RDF xmlns:dc="http://purl.org/dc/elements/1.1/" xmlns:cc="http://creativecommons.org/ns#" xmlns:rdf="http://www.w3.org/1999/02/22-rdf-syntax-ns#">
   <cc:Work>
    <dc:type rdf:resource="http://purl.org/dc/dcmitype/StillImage"/>
    <dc:date>2022-12-22T09:19:22.273334</dc:date>
    <dc:format>image/svg+xml</dc:format>
    <dc:creator>
     <cc:Agent>
      <dc:title>Matplotlib v3.5.3, https://matplotlib.org/</dc:title>
     </cc:Agent>
    </dc:creator>
   </cc:Work>
  </rdf:RDF>
 </metadata>
 <defs>
  <style type="text/css">*{stroke-linejoin: round; stroke-linecap: butt}</style>
 </defs>
 <g id="figure_1">
  <g id="patch_1">
   <path d="M 0 360 
L 360 360 
L 360 0 
L 0 0 
z
" style="fill: #ffffff"/>
  </g>
  <g id="axes_1">
   <g id="patch_2">
    <path d="M 45 320.4 
L 324 320.4 
L 324 43.2 
L 45 43.2 
z
" style="fill: #ffffff"/>
   </g>
   <g id="matplotlib.axis_1">
    <g id="xtick_1">
     <g id="line2d_1">
      <defs>
       <path id="m847e63c6ab" d="M 0 0 
L 0 3.5 
" style="stroke: #000000; stroke-width: 0.8"/>
      </defs>
      <g>
       <use xlink:href="#m847e63c6ab" x="83.045455" y="320.4" style="stroke: #000000; stroke-width: 0.8"/>
      </g>
     </g>
     <g id="text_1">
      <!-- −2 -->
      <g transform="translate(75.674361 334.998438)scale(0.1 -0.1)">
       <defs>
        <path id="DejaVuSans-2212" d="M 678 2272 
L 4684 2272 
L 4684 1741 
L 678 1741 
L 678 2272 
z
" transform="scale(0.015625)"/>
        <path id="DejaVuSans-32" d="M 1228 531 
L 3431 531 
L 3431 0 
L 469 0 
L 469 531 
Q 828 903 1448 1529 
Q 2069 2156 2228 2338 
Q 2531 2678 2651 2914 
Q 2772 3150 2772 3378 
Q 2772 3750 2511 3984 
Q 2250 4219 1831 4219 
Q 1534 4219 1204 4116 
Q 875 4013 500 3803 
L 500 4441 
Q 881 4594 1212 4672 
Q 1544 4750 1819 4750 
Q 2544 4750 2975 4387 
Q 3406 4025 3406 3419 
Q 3406 3131 3298 2873 
Q 3191 2616 2906 2266 
Q 2828 2175 2409 1742 
Q 1991 1309 1228 531 
z
" transform="scale(0.015625)"/>
       </defs>
       <use xlink:href="#DejaVuSans-2212"/>
       <use xlink:href="#DejaVuSans-32" x="83.789062"/>
      </g>
     </g>
    </g>
    <g id="xtick_2">
     <g id="line2d_2">
      <g>
       <use xlink:href="#m847e63c6ab" x="133.772727" y="320.4" style="stroke: #000000; stroke-width: 0.8"/>
      </g>
     </g>
     <g id="text_2">
      <!-- −1 -->
      <g transform="translate(126.401634 334.998438)scale(0.1 -0.1)">
       <defs>
        <path id="DejaVuSans-31" d="M 794 531 
L 1825 531 
L 1825 4091 
L 703 3866 
L 703 4441 
L 1819 4666 
L 2450 4666 
L 2450 531 
L 3481 531 
L 3481 0 
L 794 0 
L 794 531 
z
" transform="scale(0.015625)"/>
       </defs>
       <use xlink:href="#DejaVuSans-2212"/>
       <use xlink:href="#DejaVuSans-31" x="83.789062"/>
      </g>
     </g>
    </g>
    <g id="xtick_3">
     <g id="line2d_3">
      <g>
       <use xlink:href="#m847e63c6ab" x="184.5" y="320.4" style="stroke: #000000; stroke-width: 0.8"/>
      </g>
     </g>
     <g id="text_3">
      <!-- 0 -->
      <g transform="translate(181.31875 334.998438)scale(0.1 -0.1)">
       <defs>
        <path id="DejaVuSans-30" d="M 2034 4250 
Q 1547 4250 1301 3770 
Q 1056 3291 1056 2328 
Q 1056 1369 1301 889 
Q 1547 409 2034 409 
Q 2525 409 2770 889 
Q 3016 1369 3016 2328 
Q 3016 3291 2770 3770 
Q 2525 4250 2034 4250 
z
M 2034 4750 
Q 2819 4750 3233 4129 
Q 3647 3509 3647 2328 
Q 3647 1150 3233 529 
Q 2819 -91 2034 -91 
Q 1250 -91 836 529 
Q 422 1150 422 2328 
Q 422 3509 836 4129 
Q 1250 4750 2034 4750 
z
" transform="scale(0.015625)"/>
       </defs>
       <use xlink:href="#DejaVuSans-30"/>
      </g>
     </g>
    </g>
    <g id="xtick_4">
     <g id="line2d_4">
      <g>
       <use xlink:href="#m847e63c6ab" x="235.227273" y="320.4" style="stroke: #000000; stroke-width: 0.8"/>
      </g>
     </g>
     <g id="text_4">
      <!-- 1 -->
      <g transform="translate(232.046023 334.998438)scale(0.1 -0.1)">
       <use xlink:href="#DejaVuSans-31"/>
      </g>
     </g>
    </g>
    <g id="xtick_5">
     <g id="line2d_5">
      <g>
       <use xlink:href="#m847e63c6ab" x="285.954545" y="320.4" style="stroke: #000000; stroke-width: 0.8"/>
      </g>
     </g>
     <g id="text_5">
      <!-- 2 -->
      <g transform="translate(282.773295 334.998438)scale(0.1 -0.1)">
       <use xlink:href="#DejaVuSans-32"/>
      </g>
     </g>
    </g>
   </g>
   <g id="matplotlib.axis_2">
    <g id="ytick_1">
     <g id="line2d_6">
      <defs>
       <path id="m1f0649614f" d="M 0 0 
L -3.5 0 
" style="stroke: #000000; stroke-width: 0.8"/>
      </defs>
      <g>
       <use xlink:href="#m1f0649614f" x="45" y="260.370061" style="stroke: #000000; stroke-width: 0.8"/>
      </g>
     </g>
     <g id="text_6">
      <!-- $\mathdefault{10^{-3}}$ -->
      <g transform="translate(14.5 264.16928)scale(0.1 -0.1)">
       <defs>
        <path id="DejaVuSans-33" d="M 2597 2516 
Q 3050 2419 3304 2112 
Q 3559 1806 3559 1356 
Q 3559 666 3084 287 
Q 2609 -91 1734 -91 
Q 1441 -91 1130 -33 
Q 819 25 488 141 
L 488 750 
Q 750 597 1062 519 
Q 1375 441 1716 441 
Q 2309 441 2620 675 
Q 2931 909 2931 1356 
Q 2931 1769 2642 2001 
Q 2353 2234 1838 2234 
L 1294 2234 
L 1294 2753 
L 1863 2753 
Q 2328 2753 2575 2939 
Q 2822 3125 2822 3475 
Q 2822 3834 2567 4026 
Q 2313 4219 1838 4219 
Q 1578 4219 1281 4162 
Q 984 4106 628 3988 
L 628 4550 
Q 988 4650 1302 4700 
Q 1616 4750 1894 4750 
Q 2613 4750 3031 4423 
Q 3450 4097 3450 3541 
Q 3450 3153 3228 2886 
Q 3006 2619 2597 2516 
z
" transform="scale(0.015625)"/>
       </defs>
       <use xlink:href="#DejaVuSans-31" transform="translate(0 0.765625)"/>
       <use xlink:href="#DejaVuSans-30" transform="translate(63.623047 0.765625)"/>
       <use xlink:href="#DejaVuSans-2212" transform="translate(128.203125 39.046875)scale(0.7)"/>
       <use xlink:href="#DejaVuSans-33" transform="translate(186.855469 39.046875)scale(0.7)"/>
      </g>
     </g>
    </g>
    <g id="ytick_2">
     <g id="line2d_7">
      <g>
       <use xlink:href="#m1f0649614f" x="45" y="195.9124" style="stroke: #000000; stroke-width: 0.8"/>
      </g>
     </g>
     <g id="text_7">
      <!-- $\mathdefault{10^{-2}}$ -->
      <g transform="translate(14.5 199.711619)scale(0.1 -0.1)">
       <use xlink:href="#DejaVuSans-31" transform="translate(0 0.765625)"/>
       <use xlink:href="#DejaVuSans-30" transform="translate(63.623047 0.765625)"/>
       <use xlink:href="#DejaVuSans-2212" transform="translate(128.203125 39.046875)scale(0.7)"/>
       <use xlink:href="#DejaVuSans-32" transform="translate(186.855469 39.046875)scale(0.7)"/>
      </g>
     </g>
    </g>
    <g id="ytick_3">
     <g id="line2d_8">
      <g>
       <use xlink:href="#m1f0649614f" x="45" y="131.454739" style="stroke: #000000; stroke-width: 0.8"/>
      </g>
     </g>
     <g id="text_8">
      <!-- $\mathdefault{10^{-1}}$ -->
      <g transform="translate(14.5 135.253958)scale(0.1 -0.1)">
       <use xlink:href="#DejaVuSans-31" transform="translate(0 0.684375)"/>
       <use xlink:href="#DejaVuSans-30" transform="translate(63.623047 0.684375)"/>
       <use xlink:href="#DejaVuSans-2212" transform="translate(128.203125 38.965625)scale(0.7)"/>
       <use xlink:href="#DejaVuSans-31" transform="translate(186.855469 38.965625)scale(0.7)"/>
      </g>
     </g>
    </g>
    <g id="ytick_4">
     <g id="line2d_9">
      <g>
       <use xlink:href="#m1f0649614f" x="45" y="66.997078" style="stroke: #000000; stroke-width: 0.8"/>
      </g>
     </g>
     <g id="text_9">
      <!-- $\mathdefault{10^{0}}$ -->
      <g transform="translate(20.4 70.796297)scale(0.1 -0.1)">
       <use xlink:href="#DejaVuSans-31" transform="translate(0 0.765625)"/>
       <use xlink:href="#DejaVuSans-30" transform="translate(63.623047 0.765625)"/>
       <use xlink:href="#DejaVuSans-30" transform="translate(128.203125 39.046875)scale(0.7)"/>
      </g>
     </g>
    </g>
    <g id="ytick_5">
     <g id="line2d_10">
      <defs>
       <path id="m99bbb465c7" d="M 0 0 
L -2 0 
" style="stroke: #000000; stroke-width: 0.6"/>
      </defs>
      <g>
       <use xlink:href="#m99bbb465c7" x="45" y="305.424033" style="stroke: #000000; stroke-width: 0.6"/>
      </g>
     </g>
    </g>
    <g id="ytick_6">
     <g id="line2d_11">
      <g>
       <use xlink:href="#m99bbb465c7" x="45" y="294.073602" style="stroke: #000000; stroke-width: 0.6"/>
      </g>
     </g>
    </g>
    <g id="ytick_7">
     <g id="line2d_12">
      <g>
       <use xlink:href="#m99bbb465c7" x="45" y="286.020343" style="stroke: #000000; stroke-width: 0.6"/>
      </g>
     </g>
    </g>
    <g id="ytick_8">
     <g id="line2d_13">
      <g>
       <use xlink:href="#m99bbb465c7" x="45" y="279.773751" style="stroke: #000000; stroke-width: 0.6"/>
      </g>
     </g>
    </g>
    <g id="ytick_9">
     <g id="line2d_14">
      <g>
       <use xlink:href="#m99bbb465c7" x="45" y="274.669913" style="stroke: #000000; stroke-width: 0.6"/>
      </g>
     </g>
    </g>
    <g id="ytick_10">
     <g id="line2d_15">
      <g>
       <use xlink:href="#m99bbb465c7" x="45" y="270.354679" style="stroke: #000000; stroke-width: 0.6"/>
      </g>
     </g>
    </g>
    <g id="ytick_11">
     <g id="line2d_16">
      <g>
       <use xlink:href="#m99bbb465c7" x="45" y="266.616654" style="stroke: #000000; stroke-width: 0.6"/>
      </g>
     </g>
    </g>
    <g id="ytick_12">
     <g id="line2d_17">
      <g>
       <use xlink:href="#m99bbb465c7" x="45" y="263.319482" style="stroke: #000000; stroke-width: 0.6"/>
      </g>
     </g>
    </g>
    <g id="ytick_13">
     <g id="line2d_18">
      <g>
       <use xlink:href="#m99bbb465c7" x="45" y="240.966372" style="stroke: #000000; stroke-width: 0.6"/>
      </g>
     </g>
    </g>
    <g id="ytick_14">
     <g id="line2d_19">
      <g>
       <use xlink:href="#m99bbb465c7" x="45" y="229.615941" style="stroke: #000000; stroke-width: 0.6"/>
      </g>
     </g>
    </g>
    <g id="ytick_15">
     <g id="line2d_20">
      <g>
       <use xlink:href="#m99bbb465c7" x="45" y="221.562683" style="stroke: #000000; stroke-width: 0.6"/>
      </g>
     </g>
    </g>
    <g id="ytick_16">
     <g id="line2d_21">
      <g>
       <use xlink:href="#m99bbb465c7" x="45" y="215.31609" style="stroke: #000000; stroke-width: 0.6"/>
      </g>
     </g>
    </g>
    <g id="ytick_17">
     <g id="line2d_22">
      <g>
       <use xlink:href="#m99bbb465c7" x="45" y="210.212252" style="stroke: #000000; stroke-width: 0.6"/>
      </g>
     </g>
    </g>
    <g id="ytick_18">
     <g id="line2d_23">
      <g>
       <use xlink:href="#m99bbb465c7" x="45" y="205.897018" style="stroke: #000000; stroke-width: 0.6"/>
      </g>
     </g>
    </g>
    <g id="ytick_19">
     <g id="line2d_24">
      <g>
       <use xlink:href="#m99bbb465c7" x="45" y="202.158993" style="stroke: #000000; stroke-width: 0.6"/>
      </g>
     </g>
    </g>
    <g id="ytick_20">
     <g id="line2d_25">
      <g>
       <use xlink:href="#m99bbb465c7" x="45" y="198.861821" style="stroke: #000000; stroke-width: 0.6"/>
      </g>
     </g>
    </g>
    <g id="ytick_21">
     <g id="line2d_26">
      <g>
       <use xlink:href="#m99bbb465c7" x="45" y="176.508711" style="stroke: #000000; stroke-width: 0.6"/>
      </g>
     </g>
    </g>
    <g id="ytick_22">
     <g id="line2d_27">
      <g>
       <use xlink:href="#m99bbb465c7" x="45" y="165.15828" style="stroke: #000000; stroke-width: 0.6"/>
      </g>
     </g>
    </g>
    <g id="ytick_23">
     <g id="line2d_28">
      <g>
       <use xlink:href="#m99bbb465c7" x="45" y="157.105022" style="stroke: #000000; stroke-width: 0.6"/>
      </g>
     </g>
    </g>
    <g id="ytick_24">
     <g id="line2d_29">
      <g>
       <use xlink:href="#m99bbb465c7" x="45" y="150.858429" style="stroke: #000000; stroke-width: 0.6"/>
      </g>
     </g>
    </g>
    <g id="ytick_25">
     <g id="line2d_30">
      <g>
       <use xlink:href="#m99bbb465c7" x="45" y="145.754591" style="stroke: #000000; stroke-width: 0.6"/>
      </g>
     </g>
    </g>
    <g id="ytick_26">
     <g id="line2d_31">
      <g>
       <use xlink:href="#m99bbb465c7" x="45" y="141.439357" style="stroke: #000000; stroke-width: 0.6"/>
      </g>
     </g>
    </g>
    <g id="ytick_27">
     <g id="line2d_32">
      <g>
       <use xlink:href="#m99bbb465c7" x="45" y="137.701332" style="stroke: #000000; stroke-width: 0.6"/>
      </g>
     </g>
    </g>
    <g id="ytick_28">
     <g id="line2d_33">
      <g>
       <use xlink:href="#m99bbb465c7" x="45" y="134.40416" style="stroke: #000000; stroke-width: 0.6"/>
      </g>
     </g>
    </g>
    <g id="ytick_29">
     <g id="line2d_34">
      <g>
       <use xlink:href="#m99bbb465c7" x="45" y="112.05105" style="stroke: #000000; stroke-width: 0.6"/>
      </g>
     </g>
    </g>
    <g id="ytick_30">
     <g id="line2d_35">
      <g>
       <use xlink:href="#m99bbb465c7" x="45" y="100.700619" style="stroke: #000000; stroke-width: 0.6"/>
      </g>
     </g>
    </g>
    <g id="ytick_31">
     <g id="line2d_36">
      <g>
       <use xlink:href="#m99bbb465c7" x="45" y="92.647361" style="stroke: #000000; stroke-width: 0.6"/>
      </g>
     </g>
    </g>
    <g id="ytick_32">
     <g id="line2d_37">
      <g>
       <use xlink:href="#m99bbb465c7" x="45" y="86.400768" style="stroke: #000000; stroke-width: 0.6"/>
      </g>
     </g>
    </g>
    <g id="ytick_33">
     <g id="line2d_38">
      <g>
       <use xlink:href="#m99bbb465c7" x="45" y="81.29693" style="stroke: #000000; stroke-width: 0.6"/>
      </g>
     </g>
    </g>
    <g id="ytick_34">
     <g id="line2d_39">
      <g>
       <use xlink:href="#m99bbb465c7" x="45" y="76.981696" style="stroke: #000000; stroke-width: 0.6"/>
      </g>
     </g>
    </g>
    <g id="ytick_35">
     <g id="line2d_40">
      <g>
       <use xlink:href="#m99bbb465c7" x="45" y="73.243671" style="stroke: #000000; stroke-width: 0.6"/>
      </g>
     </g>
    </g>
    <g id="ytick_36">
     <g id="line2d_41">
      <g>
       <use xlink:href="#m99bbb465c7" x="45" y="69.946499" style="stroke: #000000; stroke-width: 0.6"/>
      </g>
     </g>
    </g>
    <g id="ytick_37">
     <g id="line2d_42">
      <g>
       <use xlink:href="#m99bbb465c7" x="45" y="47.593389" style="stroke: #000000; stroke-width: 0.6"/>
      </g>
     </g>
    </g>
   </g>
   <g id="line2d_43">
    <path d="M 83.045455 103.802984 
L 105.590908 149.694811 
L 128.136361 73.332032 
L 150.68182 66.308475 
L 173.227273 160.109957 
L 195.772727 178.344224 
L 218.31818 65.274605 
L 240.863639 70.838098 
L 263.409092 134.932239 
L 285.954545 108.428734 
" clip-path="url(#p83a0ba6329)" style="fill: none; stroke: #1f77b4; stroke-width: 1.5; stroke-linecap: square"/>
   </g>
   <g id="line2d_44">
    <path d="M 57.681818 102.547126 
L 57.935714 104.775817 
L 58.189598 100.739248 
L 58.443495 102.423742 
L 58.697379 99.59241 
L 58.951275 101.301095 
L 59.205159 96.232771 
L 59.712939 99.308538 
L 59.966835 95.291275 
L 60.220719 97.141415 
L 60.474615 94.808663 
L 60.728499 94.967788 
L 60.982396 90.369869 
L 61.23628 94.573609 
L 61.74406 91.10625 
L 61.997956 91.38699 
L 62.25184 88.446107 
L 62.505736 91.14445 
L 62.75962 84.885453 
L 63.013516 89.275823 
L 63.2674 84.087253 
L 63.775181 85.89118 
L 64.029077 82.908531 
L 64.282961 83.570777 
L 64.536857 81.512595 
L 64.790741 82.74321 
L 65.044637 83.34878 
L 65.298521 81.505578 
L 65.552417 82.391414 
L 66.060198 79.00765 
L 66.314082 79.365224 
L 66.567978 81.332555 
L 66.821862 78.767361 
L 67.075758 79.348364 
L 67.329642 78.38565 
L 67.583538 80.579278 
L 67.837422 81.209879 
L 68.091318 79.623204 
L 68.345202 80.268046 
L 68.599099 76.743975 
L 68.852983 77.667161 
L 69.106879 77.275592 
L 69.360763 77.356576 
L 69.614659 77.938368 
L 69.868555 76.250161 
L 70.122451 79.250696 
L 70.376335 77.57317 
L 70.630232 79.106021 
L 70.884116 77.033438 
L 71.138012 78.377705 
L 71.391896 77.064874 
L 71.645792 78.158743 
L 71.899676 76.130512 
L 72.153572 79.116211 
L 72.661352 79.346644 
L 72.915236 76.393892 
L 73.169133 77.675284 
L 73.423017 76.576608 
L 73.676913 80.547898 
L 73.930797 81.159705 
L 74.184693 80.926283 
L 74.438577 80.943482 
L 74.692473 78.832103 
L 74.946357 79.221672 
L 75.200253 78.515122 
L 75.454137 81.872892 
L 75.708034 82.655794 
L 75.961918 80.206302 
L 76.215814 82.813722 
L 76.469698 80.84435 
L 76.723594 83.325717 
L 76.977478 81.832296 
L 77.231374 85.795458 
L 77.485258 85.631315 
L 77.739154 84.068117 
L 77.993038 84.903286 
L 78.246935 86.822424 
L 78.500819 85.135106 
L 78.754715 85.570661 
L 79.008599 90.477566 
L 79.262495 90.691267 
L 79.516379 87.063761 
L 79.770275 91.803205 
L 80.024159 92.805897 
L 80.278055 96.131134 
L 80.53194 95.688965 
L 80.785836 93.67376 
L 81.03972 96.228718 
L 81.293616 100.006348 
L 81.5475 98.025161 
L 81.801396 102.6638 
L 82.05528 105.119887 
L 82.309176 105.172086 
L 82.56306 108.878584 
L 82.816956 109.340804 
L 83.070841 101.992915 
L 83.324731 108.118158 
L 83.578621 109.343656 
L 83.832511 121.560428 
L 84.086401 121.977558 
L 84.340291 121.922134 
L 84.594181 120.2706 
L 84.848071 137.218092 
L 85.101961 135.042143 
L 85.355851 144.055253 
L 85.609742 138.387952 
L 85.863632 154.672871 
L 86.117522 154.965669 
L 86.371412 232.305495 
L 86.625302 178.655091 
L 86.879192 166.501947 
L 87.133082 163.701534 
L 87.386972 141.905578 
L 87.640862 238.797657 
L 87.894752 142.041568 
L 88.148649 165.296609 
L 88.656429 121.428962 
L 88.910319 137.818163 
L 89.164209 121.778988 
L 89.418099 118.355368 
L 89.671989 112.806667 
L 89.925879 109.997351 
L 90.179769 117.739402 
L 90.43366 112.034906 
L 90.68755 114.840587 
L 90.94144 105.530263 
L 91.19533 114.256132 
L 91.44922 103.772674 
L 91.957 106.863372 
L 92.46478 108.369817 
L 92.71867 108.028985 
L 92.972561 98.580158 
L 93.226451 102.791167 
L 93.480341 98.977095 
L 93.734231 99.86609 
L 93.988121 96.660743 
L 94.242017 103.790775 
L 94.495907 95.956295 
L 94.749797 101.078355 
L 95.003687 99.910431 
L 95.257578 99.528126 
L 95.511468 95.71481 
L 95.765358 101.860193 
L 96.019248 98.584909 
L 96.273138 98.133495 
L 96.527028 94.124064 
L 96.780918 99.426899 
L 97.034808 97.077221 
L 97.288698 95.965596 
L 97.542588 101.912849 
L 98.050369 96.236213 
L 98.304259 96.736822 
L 98.812039 102.341671 
L 99.065929 99.068934 
L 99.319819 98.238769 
L 99.573709 99.835048 
L 99.827599 98.690389 
L 100.081489 104.785277 
L 100.33538 108.143479 
L 100.58927 100.078604 
L 100.84316 107.121067 
L 101.09705 110.129292 
L 101.35094 109.337911 
L 101.60483 107.408548 
L 101.85872 114.922457 
L 102.11261 116.908756 
L 102.3665 117.772841 
L 102.620391 115.419659 
L 102.874281 116.913929 
L 103.128171 122.9768 
L 103.382061 123.06586 
L 103.635951 124.997556 
L 104.143731 159.568168 
L 104.397621 142.169523 
L 104.651511 146.855288 
L 105.159292 184.919808 
L 105.413182 179.335659 
L 105.667072 158.321903 
L 105.920962 233.975212 
L 106.174852 154.907718 
L 106.428742 125.660541 
L 106.936522 126.92271 
L 107.190412 128.817231 
L 107.444302 124.190155 
L 107.698193 122.880779 
L 108.205973 107.077963 
L 108.459869 103.15614 
L 108.713759 101.933533 
L 108.967649 106.83402 
L 109.475429 98.901813 
L 109.729319 92.817338 
L 109.98321 94.23904 
L 110.2371 94.144284 
L 110.49099 90.346599 
L 110.74488 91.55168 
L 110.99877 91.01401 
L 111.25266 85.616394 
L 111.50655 87.765584 
L 111.76044 85.844334 
L 112.01433 86.891644 
L 112.26822 81.514835 
L 112.522111 80.359733 
L 112.776001 80.323325 
L 113.029891 81.843462 
L 113.283781 81.581588 
L 113.537671 80.269828 
L 113.791561 76.20113 
L 114.045451 75.972761 
L 114.299341 74.583405 
L 114.807121 74.31865 
L 115.061012 74.15091 
L 115.314902 74.889464 
L 115.822682 73.987028 
L 116.076572 71.143779 
L 116.330462 72.116468 
L 116.584352 71.140261 
L 116.838242 71.27554 
L 117.092132 70.197857 
L 117.346023 70.596453 
L 117.599913 70.109738 
L 117.853803 68.246761 
L 118.107693 68.830336 
L 118.361583 67.181472 
L 118.615479 68.227687 
L 118.869369 68.546011 
L 119.123259 67.471857 
L 119.377149 67.670058 
L 119.631039 67.194407 
L 119.88493 67.914473 
L 120.13882 65.639109 
L 120.39271 67.205953 
L 120.6466 65.434278 
L 120.90049 65.38885 
L 121.15438 64.957848 
L 121.40827 66.881868 
L 121.66216 64.835073 
L 121.91605 66.394261 
L 122.423831 64.530199 
L 122.677721 65.985635 
L 122.931611 65.863545 
L 123.185501 66.244439 
L 123.439391 67.186768 
L 123.693281 65.514128 
L 123.947171 67.695502 
L 124.201061 65.636689 
L 124.708842 65.602386 
L 125.216622 68.59692 
L 125.470512 67.380194 
L 125.724402 67.233264 
L 125.978292 69.877975 
L 126.232182 69.094787 
L 126.486072 70.085122 
L 126.739962 69.738051 
L 126.993852 70.854791 
L 127.501633 71.638709 
L 127.755523 73.313546 
L 128.009413 70.952607 
L 128.263303 71.54489 
L 128.517193 73.935006 
L 128.771089 74.602238 
L 129.53276 78.913618 
L 129.78665 77.09143 
L 130.04054 80.052549 
L 130.29443 81.390788 
L 130.54832 81.249187 
L 131.0561 84.426099 
L 131.30999 84.908943 
L 132.071661 91.430461 
L 132.325551 94.67755 
L 132.579441 90.93872 
L 132.833331 97.749955 
L 133.087221 97.502641 
L 133.341111 103.133848 
L 133.595001 104.131802 
L 133.848891 102.977188 
L 134.102781 109.217238 
L 134.356671 125.664916 
L 134.610562 119.379261 
L 134.864452 120.270556 
L 135.118342 136.953582 
L 135.372232 141.548451 
L 135.880012 158.945511 
L 136.133902 149.466343 
L 136.387792 123.925172 
L 136.641682 122.112575 
L 136.895573 125.102495 
L 137.657243 100.535306 
L 137.911133 98.145063 
L 138.165023 94.341804 
L 138.418913 92.773928 
L 138.672803 92.355392 
L 138.926699 93.35377 
L 139.68837 83.33906 
L 139.94226 85.123187 
L 140.19615 80.5818 
L 140.70393 80.690473 
L 140.95782 77.429908 
L 141.21171 77.011944 
L 141.719491 74.683183 
L 142.227271 71.735616 
L 142.481161 71.061046 
L 142.735051 70.728207 
L 142.988941 72.43823 
L 143.242831 69.386738 
L 143.496721 68.458422 
L 143.750611 69.206918 
L 144.004501 68.664389 
L 144.512282 68.297789 
L 144.766172 67.516852 
L 145.020062 64.976692 
L 145.273952 66.01784 
L 145.527842 66.348581 
L 146.035622 64.145624 
L 146.289512 65.888403 
L 146.543402 63.927533 
L 147.051183 62.917724 
L 147.305073 63.949568 
L 147.558963 64.347732 
L 147.812853 63.994104 
L 148.066743 63.924853 
L 148.320633 62.74468 
L 148.574523 62.560682 
L 149.082303 65.021114 
L 149.336194 64.722486 
L 149.590084 63.42855 
L 149.843974 64.19524 
L 150.097864 63.671673 
L 150.351754 64.266735 
L 150.859534 66.310447 
L 151.11343 67.128928 
L 151.36732 65.212931 
L 151.621211 67.902486 
L 151.875101 66.522875 
L 152.382881 70.087801 
L 152.636771 69.550384 
L 152.890661 71.801405 
L 153.144551 69.848185 
L 153.398441 71.514992 
L 153.652331 74.221977 
L 153.906221 73.918552 
L 154.414002 76.066188 
L 154.667892 79.841901 
L 155.175672 82.520813 
L 155.429562 82.326769 
L 155.683452 83.766061 
L 156.191232 92.15728 
L 156.445123 92.674141 
L 156.699013 96.873617 
L 156.952903 105.981021 
L 157.206793 108.223544 
L 157.714573 121.148307 
L 157.968463 125.11607 
L 158.222353 139.835671 
L 158.476243 230.699596 
L 158.730133 147.640665 
L 158.984024 119.632344 
L 159.23792 115.226367 
L 159.49181 108.106008 
L 159.7457 96.010703 
L 159.99959 93.930782 
L 160.25348 88.843843 
L 160.50737 88.951511 
L 161.015152 80.592941 
L 161.26904 80.31261 
L 162.030711 72.986278 
L 162.284601 71.755643 
L 162.538491 67.987307 
L 162.792383 66.197645 
L 163.046273 65.66924 
L 163.300161 64.796921 
L 163.554051 64.527478 
L 164.315722 59.822056 
L 164.569612 59.653181 
L 164.823503 59.20495 
L 165.077394 57.589362 
L 165.331282 58.41568 
L 165.585172 56.538619 
L 165.839062 57.174736 
L 166.092952 56.516718 
L 166.346843 56.555825 
L 166.600733 56.18601 
L 166.854624 56.63236 
L 167.108514 55.8 
L 167.362403 56.778197 
L 167.616293 56.376092 
L 167.870183 56.692252 
L 168.124073 58.780077 
L 168.377963 59.83121 
L 168.631853 59.113824 
L 168.885745 60.180165 
L 169.139635 63.218314 
L 169.393524 63.822112 
L 169.901304 68.353102 
L 170.155194 68.944878 
L 170.662974 73.77114 
L 170.916866 77.626231 
L 171.170756 78.362518 
L 172.440206 104.296906 
L 172.694096 121.383241 
L 172.947986 123.406053 
L 173.201876 166.185485 
L 173.455765 155.143729 
L 173.709656 137.716513 
L 173.963546 150.293864 
L 174.217436 131.935869 
L 174.725217 114.87001 
L 174.979107 112.067313 
L 175.232997 103.938534 
L 175.486886 100.098608 
L 175.740776 103.827902 
L 175.994666 98.077696 
L 176.248557 96.880467 
L 176.502447 98.101237 
L 177.010228 102.192521 
L 177.264118 98.54634 
L 177.518019 98.367127 
L 177.771909 102.63983 
L 178.025799 100.296145 
L 178.27969 101.251985 
L 178.53358 109.261376 
L 178.78747 106.969723 
L 179.041361 116.716578 
L 179.295251 120.229672 
L 179.54914 117.333911 
L 180.056921 123.305204 
L 180.310811 124.758939 
L 180.564701 127.730361 
L 180.818591 133.448623 
L 181.072481 146.263495 
L 181.326371 183.541046 
L 181.580261 145.640765 
L 181.834151 148.423109 
L 182.088041 162.823511 
L 182.341931 162.663548 
L 182.595822 194.264766 
L 182.849712 151.427912 
L 183.103602 146.174307 
L 183.357492 150.841802 
L 183.611382 221.780802 
L 184.119162 165.80379 
L 184.373052 162.68696 
L 184.626943 152.949564 
L 184.880833 217.138137 
L 185.134723 148.535074 
L 185.388613 227.952663 
L 185.642515 243.629336 
L 185.896405 179.15201 
L 186.150295 146.12052 
L 186.404185 156.664827 
L 186.658076 161.39502 
L 186.911966 182.217337 
L 187.165856 162.73156 
L 187.419746 199.276253 
L 187.673635 146.279563 
L 187.927525 158.677595 
L 188.181416 151.646371 
L 188.435306 121.182675 
L 188.689197 131.939535 
L 188.943087 125.209866 
L 189.704756 116.304198 
L 189.958646 108.616685 
L 190.212537 108.818761 
L 190.466427 114.102471 
L 190.720317 110.141241 
L 191.228098 98.923892 
L 191.481988 102.578015 
L 191.735877 98.461903 
L 191.989767 105.107039 
L 192.243657 97.953006 
L 192.497548 100.225734 
L 192.751438 99.727077 
L 193.005328 102.094842 
L 193.259218 107.107024 
L 193.513108 103.792888 
L 194.274778 116.265239 
L 194.528669 111.936236 
L 194.782559 118.047747 
L 195.036449 134.914341 
L 195.290339 136.378214 
L 195.544229 307.8 
L 195.798119 182.123542 
L 196.305899 118.068418 
L 197.321461 89.95344 
L 197.575351 85.024528 
L 198.08313 82.242244 
L 198.59091 75.574612 
L 199.86036 65.382315 
L 200.11425 64.495235 
L 200.875921 59.311402 
L 201.129811 59.811174 
L 201.383702 59.209042 
L 201.637593 57.895595 
L 201.891481 58.606979 
L 202.145371 58.356274 
L 202.399261 57.14639 
L 202.653151 58.641934 
L 203.160932 57.157076 
L 203.414823 58.157401 
L 203.668713 58.438723 
L 203.922614 59.825955 
L 204.176504 59.791499 
L 205.192065 61.973636 
L 205.445956 65.036381 
L 205.699846 65.168689 
L 206.207625 68.998705 
L 206.461515 69.444786 
L 206.715405 72.395946 
L 206.969295 71.525699 
L 207.477077 77.784046 
L 207.730967 77.877471 
L 207.984856 83.800104 
L 208.238746 85.276009 
L 208.492636 87.910398 
L 209.000416 97.282157 
L 209.254306 100.104234 
L 209.508198 101.008515 
L 209.762088 105.623102 
L 210.015976 114.967171 
L 210.269867 143.865142 
L 210.523757 203.420409 
L 210.777647 164.193812 
L 211.031537 152.576364 
L 211.285427 127.633571 
L 212.047097 102.581782 
L 212.300987 104.403671 
L 212.554877 94.88297 
L 212.808768 92.348295 
L 213.062658 87.1437 
L 213.316548 85.535156 
L 213.570438 84.779677 
L 213.824328 81.316211 
L 214.332108 80.216267 
L 214.585998 75.863682 
L 214.839888 77.021319 
L 215.093779 73.961423 
L 215.347669 73.156831 
L 215.601559 73.636997 
L 215.855449 73.356825 
L 216.109339 70.66397 
L 216.617119 68.185854 
L 216.871009 68.093071 
L 217.124899 66.976463 
L 217.378789 67.333546 
L 217.63268 67.432014 
L 217.88657 65.410003 
L 218.14046 67.475181 
L 218.39435 66.742911 
L 218.64824 64.284499 
L 218.90213 64.647705 
L 219.15602 65.451053 
L 219.40991 64.549835 
L 219.6638 64.504912 
L 219.91769 63.939591 
L 220.171587 65.459739 
L 220.425477 63.650922 
L 220.679367 65.402866 
L 220.933257 64.417141 
L 221.187147 64.63366 
L 221.441037 65.466251 
L 221.694927 64.348469 
L 221.948817 63.975476 
L 222.202707 64.665184 
L 222.456598 66.162129 
L 222.710488 64.360255 
L 222.964378 65.899379 
L 223.218268 64.610502 
L 223.472158 66.968408 
L 223.726048 67.136023 
L 223.979938 67.092187 
L 224.233828 68.098354 
L 224.487718 67.966589 
L 224.741608 69.316452 
L 224.995499 67.881351 
L 225.757169 72.636652 
L 226.011059 72.571041 
L 226.264949 71.282294 
L 226.518839 74.707546 
L 226.772729 73.806337 
L 227.026619 74.749 
L 227.280509 74.433678 
L 227.78829 79.861074 
L 228.04218 79.846633 
L 228.29607 79.517962 
L 228.54996 82.945251 
L 228.80385 82.858242 
L 229.05774 87.798828 
L 229.31163 84.552339 
L 229.56552 87.803333 
L 229.819411 87.735238 
L 230.327197 96.46071 
L 230.581087 102.189528 
L 230.834977 101.483327 
L 231.088867 109.582413 
L 231.342757 108.774628 
L 232.104427 133.307659 
L 232.358318 124.07289 
L 232.866098 212.723379 
L 233.119988 169.159608 
L 233.373878 207.615465 
L 233.881658 129.099085 
L 234.135548 134.92312 
L 234.389438 114.6219 
L 234.643329 110.772057 
L 234.897219 114.676229 
L 235.151109 103.561051 
L 235.404999 102.179911 
L 235.658889 96.989892 
L 235.912779 94.151874 
L 236.166669 97.948932 
L 236.420559 88.951457 
L 236.674449 87.426789 
L 236.928339 87.024361 
L 237.18223 89.230312 
L 237.43612 85.96714 
L 237.9439 82.865542 
L 238.19779 79.72051 
L 238.45168 79.031897 
L 238.70557 77.093093 
L 238.95946 78.481264 
L 239.21335 76.076358 
L 239.46724 75.151887 
L 239.721131 76.564598 
L 239.975021 75.976403 
L 240.228911 74.335069 
L 240.482801 71.542367 
L 240.736691 73.643778 
L 240.990581 72.851714 
L 241.244471 69.910935 
L 241.498361 69.401834 
L 241.752251 68.473419 
L 242.006141 70.392184 
L 242.260032 69.879013 
L 242.513928 67.595268 
L 242.767818 66.709384 
L 243.021708 66.72968 
L 243.275598 67.010144 
L 243.529488 66.45969 
L 243.783378 65.346339 
L 244.037268 67.261924 
L 244.291158 66.749687 
L 244.545049 64.986706 
L 244.798939 66.653444 
L 245.052829 66.299166 
L 245.306719 64.463154 
L 245.560609 64.878463 
L 245.814499 64.770765 
L 246.068389 65.674135 
L 246.322279 65.075815 
L 246.576169 63.853835 
L 246.830059 65.802673 
L 247.33784 64.429534 
L 247.59173 66.009285 
L 247.84562 63.915381 
L 248.09951 65.914028 
L 248.3534 65.677269 
L 248.60729 65.849112 
L 249.11507 67.156077 
L 249.368961 65.246832 
L 249.622851 65.849805 
L 249.876741 67.755935 
L 250.130631 67.597969 
L 250.384521 65.616351 
L 250.638411 66.724024 
L 250.892301 67.006365 
L 251.146191 68.789124 
L 251.400081 68.917976 
L 251.653971 68.873506 
L 251.907862 69.32776 
L 252.161752 70.544187 
L 252.415642 69.796722 
L 252.669538 70.239753 
L 252.923428 71.096837 
L 253.177318 71.186777 
L 253.431208 72.629271 
L 253.685098 72.090341 
L 253.938988 72.479587 
L 254.446769 76.2786 
L 254.700659 74.130483 
L 254.954549 75.351777 
L 255.208439 77.569737 
L 255.462329 75.441193 
L 255.716219 79.096672 
L 255.970109 77.569211 
L 256.223999 78.764742 
L 256.477889 82.778809 
L 256.73178 80.2626 
L 256.98567 85.112828 
L 257.49345 85.351301 
L 257.74734 87.983255 
L 258.00123 84.571554 
L 258.25512 89.132269 
L 258.50901 88.614257 
L 258.7629 94.376646 
L 259.01679 90.752177 
L 259.524571 99.036802 
L 259.778461 97.001932 
L 260.286241 97.536136 
L 260.540131 106.825679 
L 260.794021 108.621751 
L 261.047911 107.002797 
L 261.809582 112.588434 
L 262.063472 122.547237 
L 262.317362 118.849445 
L 262.571252 120.760722 
L 262.825142 138.611656 
L 263.079032 129.50458 
L 263.332922 138.580773 
L 263.586812 138.058796 
L 263.840702 192.244222 
L 264.094593 170.056701 
L 264.348483 163.279371 
L 264.602373 163.498839 
L 264.856263 175.549107 
L 265.110153 132.839695 
L 265.364043 147.146078 
L 265.617933 127.519541 
L 265.871823 137.158351 
L 266.379603 114.481629 
L 266.633494 114.962054 
L 266.88739 111.828134 
L 267.14128 119.589393 
L 267.39517 109.032919 
L 267.64906 111.422316 
L 267.90295 112.023589 
L 268.15684 105.975761 
L 268.41073 109.875925 
L 268.66462 101.806054 
L 268.918511 102.258182 
L 269.172401 100.592478 
L 269.426291 102.804233 
L 269.680181 101.832691 
L 269.934071 103.76413 
L 270.187961 101.562788 
L 270.695741 106.338288 
L 271.457418 96.561699 
L 271.711308 102.135756 
L 271.965198 98.079222 
L 272.219088 102.610025 
L 272.472978 103.376222 
L 272.726868 101.975982 
L 272.980758 104.89111 
L 273.234648 105.092678 
L 273.742428 97.516672 
L 273.996319 105.570211 
L 274.250209 99.155459 
L 274.504099 99.521074 
L 274.757989 106.608593 
L 275.011879 106.834738 
L 275.265769 104.810667 
L 275.519659 104.179613 
L 275.773549 100.369471 
L 276.027439 104.743873 
L 276.28133 112.193823 
L 276.53522 108.603062 
L 276.78911 108.602378 
L 277.043 107.89708 
L 277.29689 108.172218 
L 277.55078 116.153672 
L 277.80467 113.591117 
L 278.05856 120.236919 
L 278.31245 115.043204 
L 278.56634 122.496912 
L 278.820231 124.710796 
L 279.074121 124.570507 
L 279.328011 133.766135 
L 279.581901 137.883417 
L 279.835791 150.040693 
L 280.089681 153.124541 
L 280.343571 136.408726 
L 280.597461 131.592439 
L 280.851351 161.677614 
L 281.105241 165.866068 
L 281.359132 167.75778 
L 281.613022 202.325745 
L 281.866912 179.963989 
L 282.120802 142.713638 
L 282.374692 145.189156 
L 282.628582 154.913983 
L 283.390252 134.876313 
L 283.644142 116.838631 
L 283.898033 117.280211 
L 284.151923 111.984524 
L 284.405813 116.370289 
L 284.913593 109.326202 
L 285.167483 116.322596 
L 285.421373 107.020509 
L 285.675263 106.097128 
L 285.929153 107.124324 
L 286.183044 106.551212 
L 286.43694 97.025616 
L 286.690824 96.069341 
L 286.94472 96.236095 
L 287.198604 93.237801 
L 287.4525 97.300722 
L 287.706384 95.185964 
L 287.96028 92.117778 
L 288.214164 92.999071 
L 288.46806 92.106046 
L 288.721945 93.325206 
L 288.975841 88.789785 
L 289.229737 90.680519 
L 289.737517 84.525922 
L 289.991413 87.348234 
L 290.245297 86.650029 
L 290.499193 83.541495 
L 290.753077 85.454692 
L 291.006974 84.095351 
L 291.260858 81.05464 
L 291.514754 83.783376 
L 291.768638 84.021327 
L 292.276418 81.93705 
L 292.530314 81.953054 
L 292.784198 81.624289 
L 293.038094 79.145721 
L 293.291978 79.29036 
L 293.799759 80.708004 
L 294.053655 79.35943 
L 294.307539 79.300201 
L 294.561435 78.82082 
L 294.815319 79.819133 
L 295.069215 77.229 
L 295.323099 78.998502 
L 295.83088 78.802186 
L 296.084776 76.141217 
L 296.33866 78.057441 
L 296.592556 77.55231 
L 296.84644 75.122764 
L 297.100336 75.527299 
L 297.35422 75.391425 
L 297.608116 78.384164 
L 298.115896 77.177987 
L 298.369781 74.864873 
L 298.877561 78.026021 
L 299.131457 76.566257 
L 299.385341 78.237925 
L 299.639237 77.194553 
L 299.893121 77.424252 
L 300.147017 75.322121 
L 300.654798 77.672905 
L 300.908682 77.159093 
L 301.162578 78.300362 
L 301.416462 77.119034 
L 301.670358 77.342632 
L 301.924242 77.849441 
L 302.178138 79.520675 
L 302.432022 77.195208 
L 302.685918 79.591674 
L 302.939802 80.470457 
L 303.193699 78.587857 
L 303.701479 78.507577 
L 304.209259 82.328013 
L 304.463143 80.768663 
L 304.717039 80.40849 
L 304.970923 85.434501 
L 305.224819 83.717146 
L 305.478703 85.73362 
L 305.7326 83.993398 
L 305.986484 83.964185 
L 306.24038 86.207652 
L 306.494264 86.489834 
L 306.74816 85.643029 
L 307.25594 90.887242 
L 307.509824 86.620418 
L 307.76372 91.353522 
L 308.017604 90.853396 
L 308.271501 90.986533 
L 308.525385 92.341361 
L 308.779281 96.549929 
L 309.033165 92.269811 
L 309.287061 96.608152 
L 309.540945 97.913814 
L 309.794841 95.859124 
L 310.048725 100.15167 
L 310.810402 103.111518 
L 311.064286 104.651294 
L 311.318182 105.21547 
L 311.318182 105.21547 
" clip-path="url(#p83a0ba6329)" style="fill: none; stroke: #ff7f0e; stroke-width: 1.5; stroke-linecap: square"/>
   </g>
   <g id="patch_3">
    <path d="M 45 320.4 
L 45 43.2 
" style="fill: none; stroke: #000000; stroke-width: 0.8; stroke-linejoin: miter; stroke-linecap: square"/>
   </g>
   <g id="patch_4">
    <path d="M 324 320.4 
L 324 43.2 
" style="fill: none; stroke: #000000; stroke-width: 0.8; stroke-linejoin: miter; stroke-linecap: square"/>
   </g>
   <g id="patch_5">
    <path d="M 45 320.4 
L 324 320.4 
" style="fill: none; stroke: #000000; stroke-width: 0.8; stroke-linejoin: miter; stroke-linecap: square"/>
   </g>
   <g id="patch_6">
    <path d="M 45 43.2 
L 324 43.2 
" style="fill: none; stroke: #000000; stroke-width: 0.8; stroke-linejoin: miter; stroke-linecap: square"/>
   </g>
   <g id="text_10">
    <!-- Prediction Error -->
    <g transform="translate(138.166875 37.2)scale(0.12 -0.12)">
     <defs>
      <path id="DejaVuSans-50" d="M 1259 4147 
L 1259 2394 
L 2053 2394 
Q 2494 2394 2734 2622 
Q 2975 2850 2975 3272 
Q 2975 3691 2734 3919 
Q 2494 4147 2053 4147 
L 1259 4147 
z
M 628 4666 
L 2053 4666 
Q 2838 4666 3239 4311 
Q 3641 3956 3641 3272 
Q 3641 2581 3239 2228 
Q 2838 1875 2053 1875 
L 1259 1875 
L 1259 0 
L 628 0 
L 628 4666 
z
" transform="scale(0.015625)"/>
      <path id="DejaVuSans-72" d="M 2631 2963 
Q 2534 3019 2420 3045 
Q 2306 3072 2169 3072 
Q 1681 3072 1420 2755 
Q 1159 2438 1159 1844 
L 1159 0 
L 581 0 
L 581 3500 
L 1159 3500 
L 1159 2956 
Q 1341 3275 1631 3429 
Q 1922 3584 2338 3584 
Q 2397 3584 2469 3576 
Q 2541 3569 2628 3553 
L 2631 2963 
z
" transform="scale(0.015625)"/>
      <path id="DejaVuSans-65" d="M 3597 1894 
L 3597 1613 
L 953 1613 
Q 991 1019 1311 708 
Q 1631 397 2203 397 
Q 2534 397 2845 478 
Q 3156 559 3463 722 
L 3463 178 
Q 3153 47 2828 -22 
Q 2503 -91 2169 -91 
Q 1331 -91 842 396 
Q 353 884 353 1716 
Q 353 2575 817 3079 
Q 1281 3584 2069 3584 
Q 2775 3584 3186 3129 
Q 3597 2675 3597 1894 
z
M 3022 2063 
Q 3016 2534 2758 2815 
Q 2500 3097 2075 3097 
Q 1594 3097 1305 2825 
Q 1016 2553 972 2059 
L 3022 2063 
z
" transform="scale(0.015625)"/>
      <path id="DejaVuSans-64" d="M 2906 2969 
L 2906 4863 
L 3481 4863 
L 3481 0 
L 2906 0 
L 2906 525 
Q 2725 213 2448 61 
Q 2172 -91 1784 -91 
Q 1150 -91 751 415 
Q 353 922 353 1747 
Q 353 2572 751 3078 
Q 1150 3584 1784 3584 
Q 2172 3584 2448 3432 
Q 2725 3281 2906 2969 
z
M 947 1747 
Q 947 1113 1208 752 
Q 1469 391 1925 391 
Q 2381 391 2643 752 
Q 2906 1113 2906 1747 
Q 2906 2381 2643 2742 
Q 2381 3103 1925 3103 
Q 1469 3103 1208 2742 
Q 947 2381 947 1747 
z
" transform="scale(0.015625)"/>
      <path id="DejaVuSans-69" d="M 603 3500 
L 1178 3500 
L 1178 0 
L 603 0 
L 603 3500 
z
M 603 4863 
L 1178 4863 
L 1178 4134 
L 603 4134 
L 603 4863 
z
" transform="scale(0.015625)"/>
      <path id="DejaVuSans-63" d="M 3122 3366 
L 3122 2828 
Q 2878 2963 2633 3030 
Q 2388 3097 2138 3097 
Q 1578 3097 1268 2742 
Q 959 2388 959 1747 
Q 959 1106 1268 751 
Q 1578 397 2138 397 
Q 2388 397 2633 464 
Q 2878 531 3122 666 
L 3122 134 
Q 2881 22 2623 -34 
Q 2366 -91 2075 -91 
Q 1284 -91 818 406 
Q 353 903 353 1747 
Q 353 2603 823 3093 
Q 1294 3584 2113 3584 
Q 2378 3584 2631 3529 
Q 2884 3475 3122 3366 
z
" transform="scale(0.015625)"/>
      <path id="DejaVuSans-74" d="M 1172 4494 
L 1172 3500 
L 2356 3500 
L 2356 3053 
L 1172 3053 
L 1172 1153 
Q 1172 725 1289 603 
Q 1406 481 1766 481 
L 2356 481 
L 2356 0 
L 1766 0 
Q 1100 0 847 248 
Q 594 497 594 1153 
L 594 3053 
L 172 3053 
L 172 3500 
L 594 3500 
L 594 4494 
L 1172 4494 
z
" transform="scale(0.015625)"/>
      <path id="DejaVuSans-6f" d="M 1959 3097 
Q 1497 3097 1228 2736 
Q 959 2375 959 1747 
Q 959 1119 1226 758 
Q 1494 397 1959 397 
Q 2419 397 2687 759 
Q 2956 1122 2956 1747 
Q 2956 2369 2687 2733 
Q 2419 3097 1959 3097 
z
M 1959 3584 
Q 2709 3584 3137 3096 
Q 3566 2609 3566 1747 
Q 3566 888 3137 398 
Q 2709 -91 1959 -91 
Q 1206 -91 779 398 
Q 353 888 353 1747 
Q 353 2609 779 3096 
Q 1206 3584 1959 3584 
z
" transform="scale(0.015625)"/>
      <path id="DejaVuSans-6e" d="M 3513 2113 
L 3513 0 
L 2938 0 
L 2938 2094 
Q 2938 2591 2744 2837 
Q 2550 3084 2163 3084 
Q 1697 3084 1428 2787 
Q 1159 2491 1159 1978 
L 1159 0 
L 581 0 
L 581 3500 
L 1159 3500 
L 1159 2956 
Q 1366 3272 1645 3428 
Q 1925 3584 2291 3584 
Q 2894 3584 3203 3211 
Q 3513 2838 3513 2113 
z
" transform="scale(0.015625)"/>
      <path id="DejaVuSans-20" transform="scale(0.015625)"/>
      <path id="DejaVuSans-45" d="M 628 4666 
L 3578 4666 
L 3578 4134 
L 1259 4134 
L 1259 2753 
L 3481 2753 
L 3481 2222 
L 1259 2222 
L 1259 531 
L 3634 531 
L 3634 0 
L 628 0 
L 628 4666 
z
" transform="scale(0.015625)"/>
     </defs>
     <use xlink:href="#DejaVuSans-50"/>
     <use xlink:href="#DejaVuSans-72" x="58.552734"/>
     <use xlink:href="#DejaVuSans-65" x="97.416016"/>
     <use xlink:href="#DejaVuSans-64" x="158.939453"/>
     <use xlink:href="#DejaVuSans-69" x="222.416016"/>
     <use xlink:href="#DejaVuSans-63" x="250.199219"/>
     <use xlink:href="#DejaVuSans-74" x="305.179688"/>
     <use xlink:href="#DejaVuSans-69" x="344.388672"/>
     <use xlink:href="#DejaVuSans-6f" x="372.171875"/>
     <use xlink:href="#DejaVuSans-6e" x="433.353516"/>
     <use xlink:href="#DejaVuSans-20" x="496.732422"/>
     <use xlink:href="#DejaVuSans-45" x="528.519531"/>
     <use xlink:href="#DejaVuSans-72" x="591.703125"/>
     <use xlink:href="#DejaVuSans-72" x="631.066406"/>
     <use xlink:href="#DejaVuSans-6f" x="669.929688"/>
     <use xlink:href="#DejaVuSans-72" x="731.111328"/>
    </g>
   </g>
   <g id="legend_1">
    <g id="patch_7">
     <path d="M 52 315.4 
L 134.657813 315.4 
Q 136.657813 315.4 136.657813 313.4 
L 136.657813 285.04375 
Q 136.657813 283.04375 134.657813 283.04375 
L 52 283.04375 
Q 50 283.04375 50 285.04375 
L 50 313.4 
Q 50 315.4 52 315.4 
z
" style="fill: #ffffff; opacity: 0.8; stroke: #cccccc; stroke-linejoin: miter"/>
    </g>
    <g id="line2d_45">
     <path d="M 54 291.142187 
L 64 291.142187 
L 74 291.142187 
" style="fill: none; stroke: #1f77b4; stroke-width: 1.5; stroke-linecap: square"/>
    </g>
    <g id="text_11">
     <!-- train error -->
     <g transform="translate(82 294.642187)scale(0.1 -0.1)">
      <defs>
       <path id="DejaVuSans-61" d="M 2194 1759 
Q 1497 1759 1228 1600 
Q 959 1441 959 1056 
Q 959 750 1161 570 
Q 1363 391 1709 391 
Q 2188 391 2477 730 
Q 2766 1069 2766 1631 
L 2766 1759 
L 2194 1759 
z
M 3341 1997 
L 3341 0 
L 2766 0 
L 2766 531 
Q 2569 213 2275 61 
Q 1981 -91 1556 -91 
Q 1019 -91 701 211 
Q 384 513 384 1019 
Q 384 1609 779 1909 
Q 1175 2209 1959 2209 
L 2766 2209 
L 2766 2266 
Q 2766 2663 2505 2880 
Q 2244 3097 1772 3097 
Q 1472 3097 1187 3025 
Q 903 2953 641 2809 
L 641 3341 
Q 956 3463 1253 3523 
Q 1550 3584 1831 3584 
Q 2591 3584 2966 3190 
Q 3341 2797 3341 1997 
z
" transform="scale(0.015625)"/>
      </defs>
      <use xlink:href="#DejaVuSans-74"/>
      <use xlink:href="#DejaVuSans-72" x="39.208984"/>
      <use xlink:href="#DejaVuSans-61" x="80.322266"/>
      <use xlink:href="#DejaVuSans-69" x="141.601562"/>
      <use xlink:href="#DejaVuSans-6e" x="169.384766"/>
      <use xlink:href="#DejaVuSans-20" x="232.763672"/>
      <use xlink:href="#DejaVuSans-65" x="264.550781"/>
      <use xlink:href="#DejaVuSans-72" x="326.074219"/>
      <use xlink:href="#DejaVuSans-72" x="365.4375"/>
      <use xlink:href="#DejaVuSans-6f" x="404.300781"/>
      <use xlink:href="#DejaVuSans-72" x="465.482422"/>
     </g>
    </g>
    <g id="line2d_46">
     <path d="M 54 305.820312 
L 64 305.820312 
L 74 305.820312 
" style="fill: none; stroke: #ff7f0e; stroke-width: 1.5; stroke-linecap: square"/>
    </g>
    <g id="text_12">
     <!-- test error -->
     <g transform="translate(82 309.320312)scale(0.1 -0.1)">
      <defs>
       <path id="DejaVuSans-73" d="M 2834 3397 
L 2834 2853 
Q 2591 2978 2328 3040 
Q 2066 3103 1784 3103 
Q 1356 3103 1142 2972 
Q 928 2841 928 2578 
Q 928 2378 1081 2264 
Q 1234 2150 1697 2047 
L 1894 2003 
Q 2506 1872 2764 1633 
Q 3022 1394 3022 966 
Q 3022 478 2636 193 
Q 2250 -91 1575 -91 
Q 1294 -91 989 -36 
Q 684 19 347 128 
L 347 722 
Q 666 556 975 473 
Q 1284 391 1588 391 
Q 1994 391 2212 530 
Q 2431 669 2431 922 
Q 2431 1156 2273 1281 
Q 2116 1406 1581 1522 
L 1381 1569 
Q 847 1681 609 1914 
Q 372 2147 372 2553 
Q 372 3047 722 3315 
Q 1072 3584 1716 3584 
Q 2034 3584 2315 3537 
Q 2597 3491 2834 3397 
z
" transform="scale(0.015625)"/>
      </defs>
      <use xlink:href="#DejaVuSans-74"/>
      <use xlink:href="#DejaVuSans-65" x="39.208984"/>
      <use xlink:href="#DejaVuSans-73" x="100.732422"/>
      <use xlink:href="#DejaVuSans-74" x="152.832031"/>
      <use xlink:href="#DejaVuSans-20" x="192.041016"/>
      <use xlink:href="#DejaVuSans-65" x="223.828125"/>
      <use xlink:href="#DejaVuSans-72" x="285.351562"/>
      <use xlink:href="#DejaVuSans-72" x="324.714844"/>
      <use xlink:href="#DejaVuSans-6f" x="363.578125"/>
      <use xlink:href="#DejaVuSans-72" x="424.759766"/>
     </g>
    </g>
   </g>
  </g>
 </g>
 <defs>
  <clipPath id="p83a0ba6329">
   <rect x="45" y="43.2" width="279" height="277.2"/>
  </clipPath>
 </defs>
</svg>
