<?xml version="1.0" encoding="utf-8" standalone="no"?>
<!DOCTYPE svg PUBLIC "-//W3C//DTD SVG 1.1//EN"
  "http://www.w3.org/Graphics/SVG/1.1/DTD/svg11.dtd">
<svg xmlns:xlink="http://www.w3.org/1999/xlink" width="360pt" height="360pt" viewBox="0 0 360 360" xmlns="http://www.w3.org/2000/svg" version="1.1">
 <metadata>
  <rdf:RDF xmlns:dc="http://purl.org/dc/elements/1.1/" xmlns:cc="http://creativecommons.org/ns#" xmlns:rdf="http://www.w3.org/1999/02/22-rdf-syntax-ns#">
   <cc:Work>
    <dc:type rdf:resource="http://purl.org/dc/dcmitype/StillImage"/>
    <dc:date>2022-12-22T09:19:22.973332</dc:date>
    <dc:format>image/svg+xml</dc:format>
    <dc:creator>
     <cc:Agent>
      <dc:title>Matplotlib v3.5.3, https://matplotlib.org/</dc:title>
     </cc:Agent>
    </dc:creator>
   </cc:Work>
  </rdf:RDF>
 </metadata>
 <defs>
  <style type="text/css">*{stroke-linejoin: round; stroke-linecap: butt}</style>
 </defs>
 <g id="figure_1">
  <g id="patch_1">
   <path d="M 0 360 
L 360 360 
L 360 0 
L 0 0 
z
" style="fill: #ffffff"/>
  </g>
  <g id="axes_1">
   <g id="patch_2">
    <path d="M 45 320.4 
L 324 320.4 
L 324 43.2 
L 45 43.2 
z
" style="fill: #ffffff"/>
   </g>
   <g id="matplotlib.axis_1">
    <g id="xtick_1">
     <g id="line2d_1">
      <defs>
       <path id="m5c63a32268" d="M 0 0 
L 0 3.5 
" style="stroke: #000000; stroke-width: 0.8"/>
      </defs>
      <g>
       <use xlink:href="#m5c63a32268" x="83.045455" y="320.4" style="stroke: #000000; stroke-width: 0.8"/>
      </g>
     </g>
     <g id="text_1">
      <!-- −2 -->
      <g transform="translate(75.674361 334.998438)scale(0.1 -0.1)">
       <defs>
        <path id="DejaVuSans-2212" d="M 678 2272 
L 4684 2272 
L 4684 1741 
L 678 1741 
L 678 2272 
z
" transform="scale(0.015625)"/>
        <path id="DejaVuSans-32" d="M 1228 531 
L 3431 531 
L 3431 0 
L 469 0 
L 469 531 
Q 828 903 1448 1529 
Q 2069 2156 2228 2338 
Q 2531 2678 2651 2914 
Q 2772 3150 2772 3378 
Q 2772 3750 2511 3984 
Q 2250 4219 1831 4219 
Q 1534 4219 1204 4116 
Q 875 4013 500 3803 
L 500 4441 
Q 881 4594 1212 4672 
Q 1544 4750 1819 4750 
Q 2544 4750 2975 4387 
Q 3406 4025 3406 3419 
Q 3406 3131 3298 2873 
Q 3191 2616 2906 2266 
Q 2828 2175 2409 1742 
Q 1991 1309 1228 531 
z
" transform="scale(0.015625)"/>
       </defs>
       <use xlink:href="#DejaVuSans-2212"/>
       <use xlink:href="#DejaVuSans-32" x="83.789062"/>
      </g>
     </g>
    </g>
    <g id="xtick_2">
     <g id="line2d_2">
      <g>
       <use xlink:href="#m5c63a32268" x="133.772727" y="320.4" style="stroke: #000000; stroke-width: 0.8"/>
      </g>
     </g>
     <g id="text_2">
      <!-- −1 -->
      <g transform="translate(126.401634 334.998438)scale(0.1 -0.1)">
       <defs>
        <path id="DejaVuSans-31" d="M 794 531 
L 1825 531 
L 1825 4091 
L 703 3866 
L 703 4441 
L 1819 4666 
L 2450 4666 
L 2450 531 
L 3481 531 
L 3481 0 
L 794 0 
L 794 531 
z
" transform="scale(0.015625)"/>
       </defs>
       <use xlink:href="#DejaVuSans-2212"/>
       <use xlink:href="#DejaVuSans-31" x="83.789062"/>
      </g>
     </g>
    </g>
    <g id="xtick_3">
     <g id="line2d_3">
      <g>
       <use xlink:href="#m5c63a32268" x="184.5" y="320.4" style="stroke: #000000; stroke-width: 0.8"/>
      </g>
     </g>
     <g id="text_3">
      <!-- 0 -->
      <g transform="translate(181.31875 334.998438)scale(0.1 -0.1)">
       <defs>
        <path id="DejaVuSans-30" d="M 2034 4250 
Q 1547 4250 1301 3770 
Q 1056 3291 1056 2328 
Q 1056 1369 1301 889 
Q 1547 409 2034 409 
Q 2525 409 2770 889 
Q 3016 1369 3016 2328 
Q 3016 3291 2770 3770 
Q 2525 4250 2034 4250 
z
M 2034 4750 
Q 2819 4750 3233 4129 
Q 3647 3509 3647 2328 
Q 3647 1150 3233 529 
Q 2819 -91 2034 -91 
Q 1250 -91 836 529 
Q 422 1150 422 2328 
Q 422 3509 836 4129 
Q 1250 4750 2034 4750 
z
" transform="scale(0.015625)"/>
       </defs>
       <use xlink:href="#DejaVuSans-30"/>
      </g>
     </g>
    </g>
    <g id="xtick_4">
     <g id="line2d_4">
      <g>
       <use xlink:href="#m5c63a32268" x="235.227273" y="320.4" style="stroke: #000000; stroke-width: 0.8"/>
      </g>
     </g>
     <g id="text_4">
      <!-- 1 -->
      <g transform="translate(232.046023 334.998438)scale(0.1 -0.1)">
       <use xlink:href="#DejaVuSans-31"/>
      </g>
     </g>
    </g>
    <g id="xtick_5">
     <g id="line2d_5">
      <g>
       <use xlink:href="#m5c63a32268" x="285.954545" y="320.4" style="stroke: #000000; stroke-width: 0.8"/>
      </g>
     </g>
     <g id="text_5">
      <!-- 2 -->
      <g transform="translate(282.773295 334.998438)scale(0.1 -0.1)">
       <use xlink:href="#DejaVuSans-32"/>
      </g>
     </g>
    </g>
   </g>
   <g id="matplotlib.axis_2">
    <g id="ytick_1">
     <g id="line2d_6">
      <defs>
       <path id="m4f03f2478f" d="M 0 0 
L -3.5 0 
" style="stroke: #000000; stroke-width: 0.8"/>
      </defs>
      <g>
       <use xlink:href="#m4f03f2478f" x="45" y="294.376255" style="stroke: #000000; stroke-width: 0.8"/>
      </g>
     </g>
     <g id="text_6">
      <!-- −1 -->
      <g transform="translate(23.257812 298.175474)scale(0.1 -0.1)">
       <use xlink:href="#DejaVuSans-2212"/>
       <use xlink:href="#DejaVuSans-31" x="83.789062"/>
      </g>
     </g>
    </g>
    <g id="ytick_2">
     <g id="line2d_7">
      <g>
       <use xlink:href="#m4f03f2478f" x="45" y="261.659964" style="stroke: #000000; stroke-width: 0.8"/>
      </g>
     </g>
     <g id="text_7">
      <!-- 0 -->
      <g transform="translate(31.6375 265.459183)scale(0.1 -0.1)">
       <use xlink:href="#DejaVuSans-30"/>
      </g>
     </g>
    </g>
    <g id="ytick_3">
     <g id="line2d_8">
      <g>
       <use xlink:href="#m4f03f2478f" x="45" y="228.943672" style="stroke: #000000; stroke-width: 0.8"/>
      </g>
     </g>
     <g id="text_8">
      <!-- 1 -->
      <g transform="translate(31.6375 232.742891)scale(0.1 -0.1)">
       <use xlink:href="#DejaVuSans-31"/>
      </g>
     </g>
    </g>
    <g id="ytick_4">
     <g id="line2d_9">
      <g>
       <use xlink:href="#m4f03f2478f" x="45" y="196.227381" style="stroke: #000000; stroke-width: 0.8"/>
      </g>
     </g>
     <g id="text_9">
      <!-- 2 -->
      <g transform="translate(31.6375 200.0266)scale(0.1 -0.1)">
       <use xlink:href="#DejaVuSans-32"/>
      </g>
     </g>
    </g>
    <g id="ytick_5">
     <g id="line2d_10">
      <g>
       <use xlink:href="#m4f03f2478f" x="45" y="163.511089" style="stroke: #000000; stroke-width: 0.8"/>
      </g>
     </g>
     <g id="text_10">
      <!-- 3 -->
      <g transform="translate(31.6375 167.310308)scale(0.1 -0.1)">
       <defs>
        <path id="DejaVuSans-33" d="M 2597 2516 
Q 3050 2419 3304 2112 
Q 3559 1806 3559 1356 
Q 3559 666 3084 287 
Q 2609 -91 1734 -91 
Q 1441 -91 1130 -33 
Q 819 25 488 141 
L 488 750 
Q 750 597 1062 519 
Q 1375 441 1716 441 
Q 2309 441 2620 675 
Q 2931 909 2931 1356 
Q 2931 1769 2642 2001 
Q 2353 2234 1838 2234 
L 1294 2234 
L 1294 2753 
L 1863 2753 
Q 2328 2753 2575 2939 
Q 2822 3125 2822 3475 
Q 2822 3834 2567 4026 
Q 2313 4219 1838 4219 
Q 1578 4219 1281 4162 
Q 984 4106 628 3988 
L 628 4550 
Q 988 4650 1302 4700 
Q 1616 4750 1894 4750 
Q 2613 4750 3031 4423 
Q 3450 4097 3450 3541 
Q 3450 3153 3228 2886 
Q 3006 2619 2597 2516 
z
" transform="scale(0.015625)"/>
       </defs>
       <use xlink:href="#DejaVuSans-33"/>
      </g>
     </g>
    </g>
    <g id="ytick_6">
     <g id="line2d_11">
      <g>
       <use xlink:href="#m4f03f2478f" x="45" y="130.794798" style="stroke: #000000; stroke-width: 0.8"/>
      </g>
     </g>
     <g id="text_11">
      <!-- 4 -->
      <g transform="translate(31.6375 134.594017)scale(0.1 -0.1)">
       <defs>
        <path id="DejaVuSans-34" d="M 2419 4116 
L 825 1625 
L 2419 1625 
L 2419 4116 
z
M 2253 4666 
L 3047 4666 
L 3047 1625 
L 3713 1625 
L 3713 1100 
L 3047 1100 
L 3047 0 
L 2419 0 
L 2419 1100 
L 313 1100 
L 313 1709 
L 2253 4666 
z
" transform="scale(0.015625)"/>
       </defs>
       <use xlink:href="#DejaVuSans-34"/>
      </g>
     </g>
    </g>
    <g id="ytick_7">
     <g id="line2d_12">
      <g>
       <use xlink:href="#m4f03f2478f" x="45" y="98.078506" style="stroke: #000000; stroke-width: 0.8"/>
      </g>
     </g>
     <g id="text_12">
      <!-- 5 -->
      <g transform="translate(31.6375 101.877725)scale(0.1 -0.1)">
       <defs>
        <path id="DejaVuSans-35" d="M 691 4666 
L 3169 4666 
L 3169 4134 
L 1269 4134 
L 1269 2991 
Q 1406 3038 1543 3061 
Q 1681 3084 1819 3084 
Q 2600 3084 3056 2656 
Q 3513 2228 3513 1497 
Q 3513 744 3044 326 
Q 2575 -91 1722 -91 
Q 1428 -91 1123 -41 
Q 819 9 494 109 
L 494 744 
Q 775 591 1075 516 
Q 1375 441 1709 441 
Q 2250 441 2565 725 
Q 2881 1009 2881 1497 
Q 2881 1984 2565 2268 
Q 2250 2553 1709 2553 
Q 1456 2553 1204 2497 
Q 953 2441 691 2322 
L 691 4666 
z
" transform="scale(0.015625)"/>
       </defs>
       <use xlink:href="#DejaVuSans-35"/>
      </g>
     </g>
    </g>
    <g id="ytick_8">
     <g id="line2d_13">
      <g>
       <use xlink:href="#m4f03f2478f" x="45" y="65.362215" style="stroke: #000000; stroke-width: 0.8"/>
      </g>
     </g>
     <g id="text_13">
      <!-- 6 -->
      <g transform="translate(31.6375 69.161434)scale(0.1 -0.1)">
       <defs>
        <path id="DejaVuSans-36" d="M 2113 2584 
Q 1688 2584 1439 2293 
Q 1191 2003 1191 1497 
Q 1191 994 1439 701 
Q 1688 409 2113 409 
Q 2538 409 2786 701 
Q 3034 994 3034 1497 
Q 3034 2003 2786 2293 
Q 2538 2584 2113 2584 
z
M 3366 4563 
L 3366 3988 
Q 3128 4100 2886 4159 
Q 2644 4219 2406 4219 
Q 1781 4219 1451 3797 
Q 1122 3375 1075 2522 
Q 1259 2794 1537 2939 
Q 1816 3084 2150 3084 
Q 2853 3084 3261 2657 
Q 3669 2231 3669 1497 
Q 3669 778 3244 343 
Q 2819 -91 2113 -91 
Q 1303 -91 875 529 
Q 447 1150 447 2328 
Q 447 3434 972 4092 
Q 1497 4750 2381 4750 
Q 2619 4750 2861 4703 
Q 3103 4656 3366 4563 
z
" transform="scale(0.015625)"/>
       </defs>
       <use xlink:href="#DejaVuSans-36"/>
      </g>
     </g>
    </g>
   </g>
   <g id="line2d_14">
    <path d="M 57.681818 260.238129 
L 57.935714 260.941508 
L 58.189598 259.62558 
L 58.443495 260.198192 
L 58.697379 259.216138 
L 58.951275 259.820985 
L 59.205159 257.914506 
L 59.712939 259.112935 
L 59.966835 257.521355 
L 60.220719 258.283084 
L 60.474615 257.31473 
L 60.728499 257.38361 
L 60.982396 255.233612 
L 61.23628 257.213236 
L 61.74406 255.602823 
L 61.997956 255.741014 
L 62.25184 254.224854 
L 62.505736 255.622328 
L 62.75962 252.162822 
L 63.013516 254.669579 
L 63.2674 251.663796 
L 63.775181 252.773074 
L 64.029077 250.900348 
L 64.282961 251.333819 
L 64.536857 249.953253 
L 64.790741 250.791233 
L 65.044637 251.190377 
L 65.298521 249.949023 
L 65.552417 250.556142 
L 66.060198 248.131147 
L 66.314082 248.401742 
L 66.567978 249.829311 
L 66.821862 247.948159 
L 67.075758 248.389726 
L 67.329642 247.653613 
L 67.583538 249.295481 
L 67.837422 249.744301 
L 68.091318 248.596204 
L 68.345202 249.070974 
L 68.599099 246.339155 
L 68.852983 247.088646 
L 69.106879 246.774077 
L 69.360763 246.839757 
L 69.614659 247.304761 
L 69.868555 245.9292 
L 70.122451 248.318794 
L 70.376335 247.014792 
L 70.630232 248.209801 
L 70.884116 246.578715 
L 71.138012 247.6507 
L 71.391896 246.604806 
L 71.645792 247.480054 
L 71.899676 245.830257 
L 72.153572 248.218841 
L 72.661352 248.393233 
L 72.915236 246.052205 
L 73.169133 247.09884 
L 73.423017 246.204799 
L 73.676913 249.278132 
L 73.930797 249.714214 
L 74.184693 249.549258 
L 74.438577 249.561698 
L 74.692473 248.004561 
L 74.946357 248.301034 
L 75.200253 247.760884 
L 75.454137 250.211742 
L 75.708034 250.742315 
L 75.961918 249.032556 
L 76.215814 250.847954 
L 76.469698 249.492923 
L 76.723594 251.185385 
L 76.977478 250.185143 
L 77.231374 252.727577 
L 77.485258 252.629497 
L 77.739154 251.664089 
L 77.993038 252.186914 
L 78.246935 253.330568 
L 78.500819 252.32968 
L 78.754715 252.594118 
L 79.008599 255.303622 
L 79.262495 255.41138 
L 79.516379 253.469985 
L 79.770275 255.958326 
L 80.024159 256.433086 
L 80.278055 257.890743 
L 80.53194 257.706992 
L 80.785836 256.830975 
L 81.293616 259.38544 
L 81.5475 258.647786 
L 81.801396 260.297073 
L 82.05528 261.065896 
L 82.309176 261.081727 
L 82.56306 262.119439 
L 82.816956 262.239674 
L 83.070841 260.076231 
L 83.324731 261.918298 
L 83.578621 262.241061 
L 83.832511 264.790279 
L 84.340291 264.850528 
L 84.594181 264.571263 
L 84.848071 266.78698 
L 85.101961 266.571958 
L 85.355851 267.364468 
L 85.609742 266.896627 
L 85.863632 268.023301 
L 86.117522 268.038373 
L 86.371412 269.540333 
L 86.879192 270.387104 
L 87.133082 270.485751 
L 87.386972 271.704365 
L 87.640862 269.522975 
L 87.894752 271.693888 
L 88.148649 270.429361 
L 88.402539 271.787059 
L 88.656429 274.133781 
L 88.910319 272.059771 
L 89.164209 274.07606 
L 89.418099 274.677629 
L 89.925879 276.49558 
L 90.179769 274.794506 
L 90.43366 276.001712 
L 90.68755 275.377566 
L 90.94144 277.714704 
L 91.19533 275.502959 
L 91.44922 278.250346 
L 91.957 277.331462 
L 92.46478 276.919294 
L 92.71867 277.010932 
L 92.972561 280.044107 
L 93.226451 278.565717 
L 93.480341 279.895482 
L 93.734231 279.569423 
L 93.988121 280.796377 
L 94.242017 278.247078 
L 94.495907 281.085769 
L 94.749797 279.141752 
L 95.003687 279.554517 
L 95.257578 279.693561 
L 95.511468 281.187386 
L 95.765358 278.875926 
L 96.019248 280.044943 
L 96.273138 280.217245 
L 96.527028 281.874029 
L 96.780918 279.731958 
L 97.034808 280.631569 
L 97.288698 281.084326 
L 97.542588 278.85977 
L 98.050369 280.973158 
L 98.304259 280.769339 
L 98.812039 278.71799 
L 99.065929 279.866128 
L 99.319819 280.179504 
L 99.573709 279.585699 
L 99.827599 280.008429 
L 100.081489 277.945373 
L 100.33538 276.986689 
L 100.58927 279.498888 
L 100.84316 277.266989 
L 101.09705 276.472144 
L 101.35094 276.673312 
L 101.60483 277.187928 
L 101.85872 275.369938 
L 102.11261 274.965662 
L 102.3665 274.79868 
L 102.620391 275.266643 
L 102.874281 274.965307 
L 103.128171 273.894527 
L 103.382061 273.880681 
L 103.635951 273.586528 
L 103.889841 271.546326 
L 104.143731 270.664977 
L 104.397621 271.69795 
L 104.651511 271.354281 
L 104.905401 270.403423 
L 105.159292 269.951946 
L 105.667072 268.214895 
L 105.920962 269.552092 
L 106.174852 268.052806 
L 106.428742 265.44456 
L 107.190412 265.874333 
L 107.444302 265.228431 
L 107.698193 265.025565 
L 108.459869 260.479664 
L 108.713759 260.078526 
L 108.967649 261.587017 
L 109.475429 259.004906 
L 109.729319 256.464105 
L 109.98321 257.108431 
L 110.2371 257.066731 
L 110.49099 255.264543 
L 110.74488 255.863399 
L 110.99877 255.599711 
L 111.25266 252.649747 
L 111.50655 253.893207 
L 111.76044 252.786617 
L 112.01433 253.39959 
L 112.26822 249.996041 
L 112.522111 249.175744 
L 112.776001 249.149549 
L 113.029891 250.224024 
L 113.283781 250.043313 
L 113.537671 249.111337 
L 113.791561 245.925966 
L 114.045451 245.73329 
L 114.299341 244.525442 
L 114.807121 244.288796 
L 115.061012 244.137641 
L 115.314902 244.797621 
L 115.822682 243.989531 
L 116.076572 241.265048 
L 116.330462 242.228705 
L 116.584352 241.261944 
L 116.838242 241.398187 
L 117.092132 240.296343 
L 117.346023 240.709132 
L 117.599913 240.204782 
L 117.853803 238.190565 
L 118.107693 238.836287 
L 118.361583 236.977413 
L 118.615479 238.169903 
L 118.869369 238.524136 
L 119.123259 237.313481 
L 119.377149 237.540643 
L 119.631039 236.993535 
L 119.88493 237.818731 
L 120.13882 235.137976 
L 120.39271 237.007591 
L 120.6466 234.88621 
L 120.90049 234.830244 
L 121.15438 234.292835 
L 121.40827 236.630352 
L 121.66216 234.138608 
L 121.91605 236.053564 
L 122.423831 233.752252 
L 122.677721 235.562686 
L 122.931611 235.414646 
L 123.185501 235.875272 
L 123.439391 236.987982 
L 123.693281 234.987402 
L 123.947171 237.573636 
L 124.201061 235.138543 
L 124.708842 235.096881 
L 125.216622 238.585913 
L 125.470512 237.213512 
L 125.724402 237.043903 
L 125.978292 239.96872 
L 126.232182 239.131475 
L 126.486072 240.186776 
L 126.739962 239.821484 
L 126.993852 240.98181 
L 127.501633 241.769401 
L 127.755523 243.379283 
L 128.009413 241.082097 
L 128.263303 241.676995 
L 128.517193 243.953159 
L 128.771089 244.554802 
L 129.53276 248.114404 
L 129.78665 246.677037 
L 130.04054 248.96701 
L 130.29443 249.925215 
L 130.54832 249.82621 
L 131.0561 251.936212 
L 131.30999 252.236613 
L 132.325551 257.319973 
L 132.579441 255.581074 
L 132.833331 258.585514 
L 133.087221 258.488956 
L 133.341111 260.494064 
L 133.595001 260.809397 
L 133.848891 260.443984 
L 134.102781 262.252165 
L 134.356671 265.469347 
L 134.610562 264.456689 
L 134.864452 264.614719 
L 135.118342 266.805142 
L 135.626122 267.774274 
L 135.880012 270.71927 
L 136.133902 271.213303 
L 136.387792 273.775591 
L 136.641682 274.062173 
L 136.895573 273.599631 
L 137.149463 275.057087 
L 137.403353 278.012938 
L 138.165023 281.813355 
L 138.418913 282.523093 
L 138.672803 282.719472 
L 138.926699 282.256292 
L 139.68837 287.744984 
L 139.94226 286.618302 
L 140.19615 289.634073 
L 140.70393 289.556147 
L 140.95782 292.034147 
L 141.21171 292.373169 
L 141.719491 294.35759 
L 142.481161 297.791506 
L 142.735051 298.129764 
L 142.988941 296.432771 
L 143.242831 299.534852 
L 143.496721 300.547408 
L 143.750611 299.727774 
L 144.004501 300.318996 
L 144.512282 300.724281 
L 144.766172 301.607155 
L 145.020062 304.656831 
L 145.273952 303.372166 
L 145.527842 302.973301 
L 146.035622 305.712475 
L 146.289512 303.524718 
L 146.543402 305.993001 
L 147.051183 307.330488 
L 147.305073 305.958734 
L 147.558963 305.441251 
L 147.812853 305.895916 
L 148.066743 305.983297 
L 148.320633 307.552333 
L 148.574523 307.8 
L 149.082303 304.566365 
L 149.336194 304.93816 
L 149.590084 306.611652 
L 149.843974 305.601806 
L 150.097864 306.278058 
L 150.351754 305.496048 
L 150.859534 302.94015 
L 151.11343 301.964442 
L 151.36732 304.260617 
L 151.621211 301.054669 
L 151.875101 302.641914 
L 152.382881 298.633145 
L 152.636771 299.183646 
L 152.890661 296.857061 
L 153.144551 298.827338 
L 153.398441 297.096004 
L 153.652331 294.504198 
L 153.906221 294.751272 
L 154.414002 292.798659 
L 154.667892 289.774919 
L 155.175672 287.799747 
L 155.429562 287.879481 
L 155.683452 286.875082 
L 156.191232 282.090045 
L 156.445123 281.771231 
L 156.699013 279.867107 
L 156.952903 276.650761 
L 157.206793 275.92452 
L 157.714573 272.917647 
L 157.968463 272.158544 
L 158.222353 270.332831 
L 158.984024 262.37754 
L 159.23792 261.309812 
L 159.49181 259.379176 
L 159.7457 255.045147 
L 159.99959 253.86136 
L 160.25348 251.053049 
L 160.50737 250.761836 
L 160.761262 248.352357 
L 161.015152 244.761764 
L 161.26904 244.097279 
L 162.284601 234.48783 
L 162.792383 226.894661 
L 163.554051 221.951536 
L 164.315722 211.684962 
L 164.823503 207.685673 
L 165.077394 203.393609 
L 165.331282 202.859126 
L 165.585172 197.760154 
L 165.839062 196.654136 
L 166.600733 187.439052 
L 166.854624 185.32292 
L 167.108514 180.825427 
L 167.362403 179.240276 
L 167.870183 171.986288 
L 168.124073 171.537513 
L 168.377963 169.117939 
L 168.631853 163.800265 
L 168.885745 161.024496 
L 169.139635 160.756131 
L 169.393524 156.842964 
L 169.647414 155.549166 
L 169.901304 152.506326 
L 170.409084 145.235521 
L 170.916866 140.684238 
L 171.170756 136.042114 
L 171.678535 133.20477 
L 172.440206 123.880383 
L 172.694096 123.068697 
L 172.947986 118.787307 
L 173.201876 117.755407 
L 173.455765 115.830621 
L 173.709656 112.950283 
L 173.963546 108.09973 
L 174.979107 99.302041 
L 175.232997 98.573037 
L 175.486886 97.113438 
L 175.740776 93.299528 
L 175.994666 92.913498 
L 176.248557 91.165433 
L 177.010228 83.497599 
L 177.264118 83.168665 
L 177.518019 81.74178 
L 177.771909 78.857308 
L 178.025799 78.395397 
L 178.27969 76.904613 
L 178.53358 73.451414 
L 178.78747 73.100391 
L 179.041361 69.91023 
L 179.295251 68.451832 
L 179.54914 68.251492 
L 180.056921 65.940925 
L 180.564701 64.260269 
L 181.072481 61.606058 
L 181.326371 59.829709 
L 181.580261 60.97298 
L 181.834151 60.504034 
L 182.088041 59.537764 
L 182.341931 59.326941 
L 182.849712 56.30489 
L 183.103602 55.841653 
L 183.357492 56.03179 
L 183.611382 57.716081 
L 184.119162 56.53306 
L 184.373052 56.407431 
L 184.626943 55.97137 
L 184.880833 57.67527 
L 185.134723 55.8 
L 185.388613 57.760136 
L 185.642515 57.817904 
L 185.896405 58.480825 
L 186.150295 56.100634 
L 186.404185 59.547015 
L 186.658076 57.302656 
L 186.911966 59.196632 
L 187.165856 60.002811 
L 187.419746 59.525892 
L 187.673635 61.501879 
L 187.927525 61.191042 
L 188.181416 61.964616 
L 188.435306 65.561541 
L 188.689197 64.568859 
L 189.450867 68.501987 
L 189.704756 69.595711 
L 189.958646 72.191998 
L 190.212537 73.034947 
L 190.466427 72.749914 
L 190.974207 77.492683 
L 191.228098 80.616574 
L 191.481988 80.707337 
L 191.735877 83.64719 
L 191.989767 83.009433 
L 192.243657 87.190309 
L 192.497548 88.222974 
L 193.005328 91.774704 
L 193.259218 92.577482 
L 193.513108 96.057888 
L 194.020888 99.268017 
L 194.274778 101.442642 
L 194.528669 105.594159 
L 195.544229 113.705308 
L 196.052009 120.509835 
L 196.305899 121.24614 
L 196.81368 126.293116 
L 197.06757 127.993195 
L 199.606472 158.225693 
L 199.86036 160.484545 
L 200.36814 166.116706 
L 200.622031 167.300772 
L 200.875921 169.37614 
L 201.383702 176.854422 
L 201.637593 178.324255 
L 202.145371 185.601995 
L 202.399261 186.629433 
L 202.653151 191.864971 
L 203.160932 194.5744 
L 203.922614 205.257885 
L 204.176504 207.061601 
L 205.192065 216.376176 
L 205.445956 221.68502 
L 205.699846 223.003241 
L 206.207625 229.504216 
L 206.461515 230.880792 
L 206.715405 234.701488 
L 206.969295 234.602736 
L 207.477077 241.500042 
L 207.730967 242.152606 
L 207.984856 246.911244 
L 208.492636 250.288658 
L 208.746526 253.609309 
L 209.254306 256.871827 
L 209.508198 257.498075 
L 209.762088 259.25404 
L 210.015976 261.846376 
L 210.269867 265.87583 
L 210.523757 267.938665 
L 210.777647 267.367179 
L 211.285427 272.471612 
L 211.539317 274.086452 
L 211.793207 277.369527 
L 212.047097 278.301712 
L 212.300987 277.834746 
L 212.554877 281.4194 
L 212.808768 282.656763 
L 213.062658 285.443522 
L 213.316548 286.462297 
L 213.570438 286.993615 
L 213.824328 289.340045 
L 214.332108 290.236786 
L 214.585998 293.716983 
L 214.839888 292.795188 
L 215.093779 295.476497 
L 215.347669 296.256651 
L 215.601559 295.843187 
L 215.855449 296.13287 
L 216.109339 298.792424 
L 216.363229 299.878231 
L 216.617119 301.496607 
L 216.871009 301.621445 
L 217.124899 302.920567 
L 217.378789 302.52279 
L 217.63268 302.424968 
L 217.88657 304.852054 
L 218.14046 302.402648 
L 218.39435 303.26695 
L 218.64824 306.308256 
L 218.90213 305.853471 
L 219.15602 304.85593 
L 219.40991 305.995313 
L 219.6638 306.06016 
L 219.91769 306.796555 
L 220.171587 304.874003 
L 220.425477 307.18675 
L 220.679367 304.955207 
L 220.933257 306.20123 
L 221.187147 305.929187 
L 221.441037 304.889986 
L 221.694927 306.30133 
L 221.948817 306.78705 
L 222.202707 305.903146 
L 222.456598 304.054428 
L 222.710488 306.29796 
L 222.964378 304.377222 
L 223.218268 305.982572 
L 223.472158 303.106539 
L 223.726048 302.912865 
L 223.979938 302.965571 
L 224.233828 301.816016 
L 224.487718 301.965858 
L 224.741608 300.479449 
L 224.995499 302.064787 
L 225.757169 297.115758 
L 226.011059 297.179434 
L 226.264949 298.44337 
L 226.518839 295.211081 
L 226.772729 296.024506 
L 227.026619 295.175777 
L 227.280509 295.45739 
L 227.78829 291.037745 
L 228.04218 291.048965 
L 228.29607 291.293645 
L 228.54996 288.883714 
L 228.80385 288.941802 
L 229.05774 285.938589 
L 229.31163 287.852508 
L 229.56552 285.936928 
L 229.819411 285.975209 
L 230.581087 279.686174 
L 230.834977 279.924277 
L 231.088867 277.526834 
L 231.342757 277.736381 
L 231.850537 274.584309 
L 232.104427 273.443673 
L 232.358318 274.640673 
L 232.612208 271.134692 
L 232.866098 270.561904 
L 233.119988 271.233487 
L 233.373878 270.167619 
L 233.627768 269.681003 
L 233.881658 266.824683 
L 234.135548 267.493413 
L 234.389438 264.41494 
L 234.643329 263.535165 
L 234.897219 264.427022 
L 235.151109 261.523294 
L 235.404999 261.075367 
L 235.912779 257.9838 
L 236.166669 259.557119 
L 236.420559 255.452512 
L 236.674449 254.616839 
L 236.928339 254.388742 
L 237.18223 255.601244 
L 237.43612 253.773475 
L 237.9439 251.827393 
L 238.19779 249.620784 
L 238.45168 249.103845 
L 238.70557 247.577729 
L 238.95946 248.681522 
L 239.21335 246.734485 
L 239.46724 245.940506 
L 239.721131 247.143918 
L 239.975021 246.650564 
L 240.228911 245.217319 
L 240.482801 242.576779 
L 240.736691 244.588422 
L 240.990581 243.848182 
L 241.244471 240.908397 
L 241.498361 240.367545 
L 241.752251 239.355355 
L 242.006141 241.411588 
L 242.260032 240.875667 
L 242.513928 238.367027 
L 242.767818 237.337617 
L 243.021708 237.361807 
L 243.275598 237.691319 
L 243.529488 237.04217 
L 243.783378 235.689265 
L 244.037268 237.984807 
L 244.291158 237.386561 
L 244.545049 235.241239 
L 244.798939 237.273347 
L 245.052829 236.851742 
L 245.306719 234.578304 
L 245.560609 235.105966 
L 245.814499 234.970175 
L 246.068389 236.09532 
L 246.322279 235.354559 
L 246.576169 233.791319 
L 246.830059 236.253135 
L 247.33784 234.537088 
L 247.59173 236.504892 
L 247.84562 233.872851 
L 248.09951 236.389822 
L 248.3534 236.101217 
L 248.60729 236.311332 
L 249.11507 237.866609 
L 249.368961 235.570716 
L 249.622851 236.313091 
L 249.876741 238.556965 
L 250.130631 238.377009 
L 250.384521 236.028332 
L 250.638411 237.362004 
L 250.892301 237.693767 
L 251.146191 239.711886 
L 251.400081 239.853047 
L 251.653971 239.80471 
L 251.907862 240.297404 
L 252.161752 241.577693 
L 252.415642 240.797952 
L 252.669538 241.262991 
L 252.923428 242.141817 
L 253.177318 242.232698 
L 253.431208 243.647669 
L 253.685098 243.12785 
L 253.938988 243.50469 
L 254.446769 246.918523 
L 254.700659 245.045744 
L 254.954549 246.128452 
L 255.208439 247.977748 
L 255.462329 246.206325 
L 255.716219 249.168657 
L 255.970109 247.978016 
L 256.223999 248.915824 
L 256.477889 251.786574 
L 256.73178 250.035839 
L 256.98567 253.276362 
L 257.49345 253.422114 
L 257.74734 254.946322 
L 258.00123 252.942877 
L 258.25512 255.568459 
L 258.50901 255.291575 
L 258.7629 258.103741 
L 259.01679 256.40338 
L 259.524571 259.991065 
L 259.778461 259.205961 
L 260.286241 259.418149 
L 260.540131 262.521838 
L 260.794021 263.012153 
L 261.047911 262.572043 
L 261.809582 263.990213 
L 262.063472 265.911953 
L 262.317362 265.277086 
L 262.571252 265.616037 
L 262.825142 267.87642 
L 263.079032 266.90254 
L 263.332922 267.87408 
L 263.586812 267.826574 
L 263.840702 270.783866 
L 264.348483 271.460987 
L 264.602373 271.453013 
L 264.856263 271.088964 
L 265.110153 273.525759 
L 265.364043 272.280062 
L 265.617933 274.177939 
L 265.871823 273.081302 
L 266.379603 276.412297 
L 266.633494 276.310442 
L 266.88739 277.009228 
L 267.14128 275.412436 
L 267.39517 277.702266 
L 267.64906 277.106227 
L 267.90295 276.964256 
L 268.15684 278.54398 
L 268.41073 277.486984 
L 268.66462 279.850122 
L 268.918511 279.699197 
L 269.172401 280.268602 
L 269.426291 279.520321 
L 269.680181 279.842073 
L 269.934071 279.213886 
L 270.187961 279.933851 
L 270.695741 278.441682 
L 271.457418 281.796601 
L 271.711308 279.742422 
L 271.965198 281.196643 
L 272.219088 279.586229 
L 272.472978 279.338942 
L 272.726868 279.796709 
L 272.980758 278.86951 
L 273.234648 278.809111 
L 273.742428 281.417044 
L 273.996319 278.667901 
L 274.250209 280.7922 
L 274.504099 280.657842 
L 274.757989 278.368254 
L 275.011879 278.30454 
L 275.265769 278.8959 
L 275.519659 279.089337 
L 275.773549 280.353389 
L 276.28133 276.93214 
L 276.53522 277.823329 
L 276.78911 277.823745 
L 277.043 278.012812 
L 277.29689 277.93881 
L 277.55078 276.074589 
L 277.80467 276.616556 
L 278.05856 275.308033 
L 278.31245 276.303963 
L 278.56634 274.929676 
L 278.820231 274.587315 
L 279.074121 274.608464 
L 279.328011 273.437282 
L 279.581901 273.025503 
L 279.835791 272.1097 
L 280.089681 271.934237 
L 280.343571 273.16685 
L 280.597461 273.681663 
L 280.851351 271.537754 
L 281.359132 271.321232 
L 281.866912 269.848894 
L 282.120802 268.239243 
L 282.374692 268.424675 
L 282.628582 269.01274 
L 282.882472 268.597721 
L 283.136362 267.819704 
L 283.390252 267.533408 
L 283.644142 264.914196 
L 283.898033 265.000728 
L 284.151923 263.870491 
L 284.405813 264.821849 
L 284.913593 263.217816 
L 285.167483 264.812981 
L 285.421373 262.599096 
L 285.675263 262.336698 
L 285.929153 262.628547 
L 286.183044 262.467395 
L 286.43694 259.239609 
L 286.690824 258.85092 
L 286.94472 258.919927 
L 287.198604 257.618703 
L 287.4525 259.349983 
L 287.706384 258.480567 
L 287.96028 257.09634 
L 288.214164 257.509887 
L 288.46806 257.091214 
L 288.721945 257.660038 
L 288.975841 255.413682 
L 289.229737 256.394889 
L 289.737517 252.943166 
L 289.991413 254.620876 
L 290.245297 254.221731 
L 290.499193 252.317819 
L 290.753077 253.514893 
L 291.006974 252.673206 
L 291.260858 250.635376 
L 291.514754 252.474615 
L 291.768638 252.62687 
L 292.276418 251.25072 
L 292.530314 251.26191 
L 292.784198 251.035617 
L 293.038094 249.239687 
L 293.291978 249.349157 
L 293.799759 250.390991 
L 294.053655 249.401818 
L 294.307539 249.357497 
L 294.561435 248.993616 
L 294.815319 249.74515 
L 295.069215 247.739282 
L 295.323099 249.129995 
L 295.83088 248.980489 
L 296.084776 246.840762 
L 296.33866 248.402379 
L 296.592556 248.001335 
L 296.84644 245.96707 
L 297.100336 246.318426 
L 297.35422 246.201283 
L 297.608116 248.659261 
L 298.115896 247.70066 
L 298.369781 245.741951 
L 298.877561 248.379949 
L 299.131457 247.199161 
L 299.385341 248.546793 
L 299.639237 247.715507 
L 299.893121 247.901462 
L 300.147017 246.14375 
L 300.654798 248.101506 
L 300.908682 247.687855 
L 301.162578 248.597197 
L 301.416462 247.655732 
L 301.670358 247.837268 
L 301.924242 248.243124 
L 302.178138 249.530059 
L 302.432022 247.718581 
L 302.685918 249.583503 
L 302.939802 250.228489 
L 303.193699 248.822279 
L 303.701479 248.760643 
L 304.209259 251.527699 
L 304.463143 250.444115 
L 304.717039 250.185307 
L 304.970923 253.515662 
L 305.224819 252.444574 
L 305.478703 253.696092 
L 305.7326 252.62184 
L 305.986484 252.603459 
L 306.24038 253.97808 
L 306.494264 254.143516 
L 306.74816 253.642949 
L 307.25594 256.514634 
L 307.509824 254.22033 
L 307.76372 256.745301 
L 308.017604 256.498472 
L 308.271501 256.56491 
L 308.525385 257.221201 
L 308.779281 259.068192 
L 309.033165 257.18781 
L 309.287061 259.09231 
L 309.540945 259.610227 
L 309.794841 258.784711 
L 310.048725 260.443693 
L 310.810402 261.448674 
L 311.064286 261.930843 
L 311.318182 262.101129 
L 311.318182 262.101129 
" clip-path="url(#p977e2783c9)" style="fill: none; stroke: #1f77b4; stroke-width: 1.5; stroke-linecap: square"/>
   </g>
   <g id="line2d_15">
    <path d="M 57.681818 269.4265 
L 151.11343 269.401881 
L 154.160112 269.1704 
L 155.937342 268.84064 
L 157.206793 268.422569 
L 158.222353 267.907663 
L 159.23792 267.151414 
L 160.25348 266.044099 
L 161.015152 264.891452 
L 161.776821 263.36682 
L 162.538491 261.358678 
L 163.300161 258.72839 
L 164.061832 255.308129 
L 164.823503 250.902374 
L 165.585172 245.295563 
L 166.346843 238.26921 
L 167.362403 226.370599 
L 168.377963 211.37855 
L 169.647414 188.640783 
L 173.709656 110.334398 
L 174.725217 95.886632 
L 175.740776 84.522076 
L 176.756338 75.952271 
L 177.518019 71.073675 
L 178.27969 67.281149 
L 179.041361 64.371467 
L 179.80303 62.167687 
L 180.564701 60.523087 
L 181.326371 59.320737 
L 182.088041 58.470905 
L 182.849712 57.907762 
L 183.611382 57.586232 
L 184.373052 57.479506 
L 185.134723 57.577374 
L 185.896405 57.885457 
L 186.658076 58.425369 
L 187.419746 59.235773 
L 188.181416 60.374203 
L 188.943087 61.919564 
L 189.704756 63.974752 
L 190.466427 66.669009 
L 191.228098 70.158551 
L 191.989767 74.624031 
L 192.751438 80.262251 
L 193.513108 87.26945 
L 194.528669 99.024009 
L 195.544229 113.699297 
L 196.81368 135.80409 
L 201.129811 216.336481 
L 202.145371 230.14895 
L 203.160932 241.071134 
L 204.176504 249.382206 
L 205.192065 255.523137 
L 205.953735 258.988182 
L 206.715405 261.679237 
L 207.477077 263.754366 
L 208.238746 265.345767 
L 209.254306 266.898057 
L 210.269867 267.975874 
L 211.285427 268.721486 
L 212.554877 269.337349 
L 214.078218 269.781674 
L 216.109339 270.092834 
L 219.15602 270.281965 
L 224.995499 270.365798 
L 258.25512 270.405846 
L 311.318182 270.454113 
L 311.318182 270.454113 
" clip-path="url(#p977e2783c9)" style="fill: none; stroke: #ff7f0e; stroke-width: 1.5; stroke-linecap: square"/>
   </g>
   <g id="line2d_16">
    <path d="M 57.681818 269.529737 
L 151.11343 269.382423 
L 154.160112 269.141865 
L 155.937342 268.803369 
L 157.206793 268.376169 
L 158.222353 267.851405 
L 159.23792 267.082199 
L 159.99959 266.279904 
L 160.761262 265.215618 
L 161.522931 263.807874 
L 162.284601 261.953063 
L 163.046273 259.521578 
L 163.807942 256.355426 
L 164.569612 252.268417 
L 165.331282 247.051576 
L 166.092952 240.487264 
L 167.108514 229.298791 
L 168.124073 215.064491 
L 169.393524 193.166796 
L 171.424645 152.51174 
L 173.201876 118.833671 
L 174.217436 102.992568 
L 175.232997 90.218398 
L 176.248557 80.390681 
L 177.264118 73.104603 
L 178.025799 69.005238 
L 178.78747 65.844827 
L 179.54914 63.439223 
L 180.310811 61.633468 
L 181.072481 60.302524 
L 181.834151 59.349219 
L 182.595822 58.701211 
L 183.357492 58.307724 
L 184.119162 58.136978 
L 184.880833 58.174263 
L 185.642515 58.420983 
L 186.404185 58.894625 
L 187.165856 59.629557 
L 187.927525 60.678867 
L 188.689197 62.116532 
L 189.450867 64.040367 
L 190.212537 66.574346 
L 190.974207 69.870075 
L 191.735877 74.104991 
L 192.497548 79.475658 
L 193.259218 86.182948 
L 194.274778 97.50861 
L 195.290339 111.770117 
L 196.55979 133.491746 
L 198.59091 173.48304 
L 200.36814 206.642482 
L 201.637593 225.843557 
L 202.653151 237.907209 
L 203.668713 247.20109 
L 204.684284 254.128992 
L 205.445956 258.059233 
L 206.207625 261.121128 
L 206.969295 263.487037 
L 207.730967 265.303728 
L 208.746526 267.076817 
L 209.762088 268.307793 
L 210.777647 269.158604 
L 211.793207 269.744772 
L 213.062658 270.226978 
L 214.585998 270.573088 
L 216.871009 270.832709 
L 220.425477 270.973673 
L 229.05774 271.019569 
L 311.318182 270.987792 
L 311.318182 270.987792 
" clip-path="url(#p977e2783c9)" style="fill: none; stroke: #2ca02c; stroke-width: 1.5; stroke-linecap: square"/>
   </g>
   <g id="line2d_17">
    <path d="M 57.681818 268.95463 
L 151.11343 268.929435 
L 154.160112 268.695851 
L 155.937342 268.363627 
L 157.206793 267.942807 
L 158.222353 267.424954 
L 159.23792 266.664936 
L 160.25348 265.552881 
L 161.015152 264.396022 
L 161.776821 262.86669 
L 162.538491 260.853543 
L 163.300161 258.218271 
L 164.061832 254.793652 
L 164.823503 250.385058 
L 165.585172 244.778271 
L 166.346843 237.756525 
L 167.362403 225.874812 
L 168.377963 210.91643 
L 169.647414 188.248421 
L 173.709656 110.250409 
L 174.725217 95.854241 
L 175.740776 84.524242 
L 176.756338 75.975035 
L 177.518019 71.105138 
L 178.27969 67.317281 
L 179.041361 64.409502 
L 179.80303 62.205829 
L 180.564701 60.56018 
L 181.326371 59.35602 
L 182.088041 58.503852 
L 182.849712 57.93784 
L 183.611382 57.612791 
L 184.373052 57.501592 
L 185.134723 57.593587 
L 185.896405 57.893738 
L 186.658076 58.422714 
L 187.419746 59.217879 
L 188.181416 60.335129 
L 188.943087 61.851139 
L 189.704756 63.866017 
L 190.466427 66.505564 
L 191.228098 69.922102 
L 191.989767 74.29207 
L 192.751438 79.808539 
L 193.513108 86.665389 
L 194.528669 98.176617 
L 195.544229 112.57394 
L 196.81368 134.334664 
L 201.383702 218.476287 
L 202.399261 231.75806 
L 203.414823 242.205446 
L 204.430394 250.127457 
L 205.445956 255.969044 
L 206.207625 259.262332 
L 206.969295 261.819548 
L 207.730967 263.791883 
L 208.492636 265.305226 
L 209.508198 266.782625 
L 210.523757 267.809752 
L 211.539317 268.521299 
L 212.808768 269.110087 
L 214.332108 269.535868 
L 216.363229 269.834957 
L 219.40991 270.017544 
L 225.503279 270.100226 
L 262.571252 270.142362 
L 311.318182 270.186121 
L 311.318182 270.186121 
" clip-path="url(#p977e2783c9)" style="fill: none; stroke: #d62728; stroke-width: 1.5; stroke-linecap: square"/>
   </g>
   <g id="line2d_18">
    <path d="M 57.681818 269.215889 
L 151.11343 269.212394 
L 154.160112 268.980199 
L 155.937342 268.648926 
L 157.206793 268.228824 
L 158.222353 267.711345 
L 159.23792 266.951327 
L 159.99959 266.157488 
L 160.761262 265.103186 
L 161.522931 263.707111 
L 162.284601 261.86567 
L 163.046273 259.449161 
L 163.807942 256.299054 
L 164.569612 252.228098 
L 165.331282 247.025664 
L 166.092952 240.471382 
L 167.108514 229.28273 
L 168.124073 215.022285 
L 169.393524 193.038429 
L 171.424645 152.111856 
L 173.201876 118.13448 
L 174.217436 102.140586 
L 175.232997 89.242909 
L 176.248557 79.323243 
L 177.264118 71.973282 
L 178.025799 67.840844 
L 178.78747 64.657173 
L 179.54914 62.235844 
L 180.310811 60.419964 
L 181.072481 59.083014 
L 181.834151 58.126744 
L 182.595822 57.477926 
L 183.357492 57.085172 
L 184.119162 56.916158 
L 184.880833 56.955814 
L 185.642515 57.205107 
L 186.404185 57.681011 
L 187.165856 58.417332 
L 187.927525 59.466221 
L 188.689197 60.900517 
L 189.450867 62.816332 
L 190.212537 65.335538 
L 190.974207 68.606868 
L 191.735877 72.804406 
L 192.497548 78.121003 
L 193.259218 84.754019 
L 194.274778 95.945456 
L 195.290339 110.034797 
L 196.55979 131.512351 
L 198.59091 171.195062 
L 200.36814 204.321175 
L 201.637593 223.63284 
L 202.653151 235.829048 
L 203.668713 245.266249 
L 204.684284 252.329796 
L 205.699846 257.486303 
L 206.461515 260.373255 
L 207.223185 262.604526 
L 207.984856 264.318957 
L 209.000416 265.994215 
L 210.015976 267.15942 
L 211.031537 267.96666 
L 212.300987 268.634324 
L 213.824328 269.116718 
L 215.601559 269.425339 
L 218.14046 269.629048 
L 222.710488 269.73914 
L 238.70557 269.780699 
L 311.318182 269.863147 
L 311.318182 269.863147 
" clip-path="url(#p977e2783c9)" style="fill: none; stroke: #9467bd; stroke-width: 1.5; stroke-linecap: square"/>
   </g>
   <g id="patch_3">
    <path d="M 45 320.4 
L 45 43.2 
" style="fill: none; stroke: #000000; stroke-width: 0.8; stroke-linejoin: miter; stroke-linecap: square"/>
   </g>
   <g id="patch_4">
    <path d="M 324 320.4 
L 324 43.2 
" style="fill: none; stroke: #000000; stroke-width: 0.8; stroke-linejoin: miter; stroke-linecap: square"/>
   </g>
   <g id="patch_5">
    <path d="M 45 320.4 
L 324 320.4 
" style="fill: none; stroke: #000000; stroke-width: 0.8; stroke-linejoin: miter; stroke-linecap: square"/>
   </g>
   <g id="patch_6">
    <path d="M 45 43.2 
L 324 43.2 
" style="fill: none; stroke: #000000; stroke-width: 0.8; stroke-linejoin: miter; stroke-linecap: square"/>
   </g>
   <g id="text_14">
    <!-- Prediction Curves -->
    <g transform="translate(131.961563 37.2)scale(0.12 -0.12)">
     <defs>
      <path id="DejaVuSans-50" d="M 1259 4147 
L 1259 2394 
L 2053 2394 
Q 2494 2394 2734 2622 
Q 2975 2850 2975 3272 
Q 2975 3691 2734 3919 
Q 2494 4147 2053 4147 
L 1259 4147 
z
M 628 4666 
L 2053 4666 
Q 2838 4666 3239 4311 
Q 3641 3956 3641 3272 
Q 3641 2581 3239 2228 
Q 2838 1875 2053 1875 
L 1259 1875 
L 1259 0 
L 628 0 
L 628 4666 
z
" transform="scale(0.015625)"/>
      <path id="DejaVuSans-72" d="M 2631 2963 
Q 2534 3019 2420 3045 
Q 2306 3072 2169 3072 
Q 1681 3072 1420 2755 
Q 1159 2438 1159 1844 
L 1159 0 
L 581 0 
L 581 3500 
L 1159 3500 
L 1159 2956 
Q 1341 3275 1631 3429 
Q 1922 3584 2338 3584 
Q 2397 3584 2469 3576 
Q 2541 3569 2628 3553 
L 2631 2963 
z
" transform="scale(0.015625)"/>
      <path id="DejaVuSans-65" d="M 3597 1894 
L 3597 1613 
L 953 1613 
Q 991 1019 1311 708 
Q 1631 397 2203 397 
Q 2534 397 2845 478 
Q 3156 559 3463 722 
L 3463 178 
Q 3153 47 2828 -22 
Q 2503 -91 2169 -91 
Q 1331 -91 842 396 
Q 353 884 353 1716 
Q 353 2575 817 3079 
Q 1281 3584 2069 3584 
Q 2775 3584 3186 3129 
Q 3597 2675 3597 1894 
z
M 3022 2063 
Q 3016 2534 2758 2815 
Q 2500 3097 2075 3097 
Q 1594 3097 1305 2825 
Q 1016 2553 972 2059 
L 3022 2063 
z
" transform="scale(0.015625)"/>
      <path id="DejaVuSans-64" d="M 2906 2969 
L 2906 4863 
L 3481 4863 
L 3481 0 
L 2906 0 
L 2906 525 
Q 2725 213 2448 61 
Q 2172 -91 1784 -91 
Q 1150 -91 751 415 
Q 353 922 353 1747 
Q 353 2572 751 3078 
Q 1150 3584 1784 3584 
Q 2172 3584 2448 3432 
Q 2725 3281 2906 2969 
z
M 947 1747 
Q 947 1113 1208 752 
Q 1469 391 1925 391 
Q 2381 391 2643 752 
Q 2906 1113 2906 1747 
Q 2906 2381 2643 2742 
Q 2381 3103 1925 3103 
Q 1469 3103 1208 2742 
Q 947 2381 947 1747 
z
" transform="scale(0.015625)"/>
      <path id="DejaVuSans-69" d="M 603 3500 
L 1178 3500 
L 1178 0 
L 603 0 
L 603 3500 
z
M 603 4863 
L 1178 4863 
L 1178 4134 
L 603 4134 
L 603 4863 
z
" transform="scale(0.015625)"/>
      <path id="DejaVuSans-63" d="M 3122 3366 
L 3122 2828 
Q 2878 2963 2633 3030 
Q 2388 3097 2138 3097 
Q 1578 3097 1268 2742 
Q 959 2388 959 1747 
Q 959 1106 1268 751 
Q 1578 397 2138 397 
Q 2388 397 2633 464 
Q 2878 531 3122 666 
L 3122 134 
Q 2881 22 2623 -34 
Q 2366 -91 2075 -91 
Q 1284 -91 818 406 
Q 353 903 353 1747 
Q 353 2603 823 3093 
Q 1294 3584 2113 3584 
Q 2378 3584 2631 3529 
Q 2884 3475 3122 3366 
z
" transform="scale(0.015625)"/>
      <path id="DejaVuSans-74" d="M 1172 4494 
L 1172 3500 
L 2356 3500 
L 2356 3053 
L 1172 3053 
L 1172 1153 
Q 1172 725 1289 603 
Q 1406 481 1766 481 
L 2356 481 
L 2356 0 
L 1766 0 
Q 1100 0 847 248 
Q 594 497 594 1153 
L 594 3053 
L 172 3053 
L 172 3500 
L 594 3500 
L 594 4494 
L 1172 4494 
z
" transform="scale(0.015625)"/>
      <path id="DejaVuSans-6f" d="M 1959 3097 
Q 1497 3097 1228 2736 
Q 959 2375 959 1747 
Q 959 1119 1226 758 
Q 1494 397 1959 397 
Q 2419 397 2687 759 
Q 2956 1122 2956 1747 
Q 2956 2369 2687 2733 
Q 2419 3097 1959 3097 
z
M 1959 3584 
Q 2709 3584 3137 3096 
Q 3566 2609 3566 1747 
Q 3566 888 3137 398 
Q 2709 -91 1959 -91 
Q 1206 -91 779 398 
Q 353 888 353 1747 
Q 353 2609 779 3096 
Q 1206 3584 1959 3584 
z
" transform="scale(0.015625)"/>
      <path id="DejaVuSans-6e" d="M 3513 2113 
L 3513 0 
L 2938 0 
L 2938 2094 
Q 2938 2591 2744 2837 
Q 2550 3084 2163 3084 
Q 1697 3084 1428 2787 
Q 1159 2491 1159 1978 
L 1159 0 
L 581 0 
L 581 3500 
L 1159 3500 
L 1159 2956 
Q 1366 3272 1645 3428 
Q 1925 3584 2291 3584 
Q 2894 3584 3203 3211 
Q 3513 2838 3513 2113 
z
" transform="scale(0.015625)"/>
      <path id="DejaVuSans-20" transform="scale(0.015625)"/>
      <path id="DejaVuSans-43" d="M 4122 4306 
L 4122 3641 
Q 3803 3938 3442 4084 
Q 3081 4231 2675 4231 
Q 1875 4231 1450 3742 
Q 1025 3253 1025 2328 
Q 1025 1406 1450 917 
Q 1875 428 2675 428 
Q 3081 428 3442 575 
Q 3803 722 4122 1019 
L 4122 359 
Q 3791 134 3420 21 
Q 3050 -91 2638 -91 
Q 1578 -91 968 557 
Q 359 1206 359 2328 
Q 359 3453 968 4101 
Q 1578 4750 2638 4750 
Q 3056 4750 3426 4639 
Q 3797 4528 4122 4306 
z
" transform="scale(0.015625)"/>
      <path id="DejaVuSans-75" d="M 544 1381 
L 544 3500 
L 1119 3500 
L 1119 1403 
Q 1119 906 1312 657 
Q 1506 409 1894 409 
Q 2359 409 2629 706 
Q 2900 1003 2900 1516 
L 2900 3500 
L 3475 3500 
L 3475 0 
L 2900 0 
L 2900 538 
Q 2691 219 2414 64 
Q 2138 -91 1772 -91 
Q 1169 -91 856 284 
Q 544 659 544 1381 
z
M 1991 3584 
L 1991 3584 
z
" transform="scale(0.015625)"/>
      <path id="DejaVuSans-76" d="M 191 3500 
L 800 3500 
L 1894 563 
L 2988 3500 
L 3597 3500 
L 2284 0 
L 1503 0 
L 191 3500 
z
" transform="scale(0.015625)"/>
      <path id="DejaVuSans-73" d="M 2834 3397 
L 2834 2853 
Q 2591 2978 2328 3040 
Q 2066 3103 1784 3103 
Q 1356 3103 1142 2972 
Q 928 2841 928 2578 
Q 928 2378 1081 2264 
Q 1234 2150 1697 2047 
L 1894 2003 
Q 2506 1872 2764 1633 
Q 3022 1394 3022 966 
Q 3022 478 2636 193 
Q 2250 -91 1575 -91 
Q 1294 -91 989 -36 
Q 684 19 347 128 
L 347 722 
Q 666 556 975 473 
Q 1284 391 1588 391 
Q 1994 391 2212 530 
Q 2431 669 2431 922 
Q 2431 1156 2273 1281 
Q 2116 1406 1581 1522 
L 1381 1569 
Q 847 1681 609 1914 
Q 372 2147 372 2553 
Q 372 3047 722 3315 
Q 1072 3584 1716 3584 
Q 2034 3584 2315 3537 
Q 2597 3491 2834 3397 
z
" transform="scale(0.015625)"/>
     </defs>
     <use xlink:href="#DejaVuSans-50"/>
     <use xlink:href="#DejaVuSans-72" x="58.552734"/>
     <use xlink:href="#DejaVuSans-65" x="97.416016"/>
     <use xlink:href="#DejaVuSans-64" x="158.939453"/>
     <use xlink:href="#DejaVuSans-69" x="222.416016"/>
     <use xlink:href="#DejaVuSans-63" x="250.199219"/>
     <use xlink:href="#DejaVuSans-74" x="305.179688"/>
     <use xlink:href="#DejaVuSans-69" x="344.388672"/>
     <use xlink:href="#DejaVuSans-6f" x="372.171875"/>
     <use xlink:href="#DejaVuSans-6e" x="433.353516"/>
     <use xlink:href="#DejaVuSans-20" x="496.732422"/>
     <use xlink:href="#DejaVuSans-43" x="528.519531"/>
     <use xlink:href="#DejaVuSans-75" x="598.34375"/>
     <use xlink:href="#DejaVuSans-72" x="661.722656"/>
     <use xlink:href="#DejaVuSans-76" x="702.835938"/>
     <use xlink:href="#DejaVuSans-65" x="762.015625"/>
     <use xlink:href="#DejaVuSans-73" x="823.539062"/>
    </g>
   </g>
   <g id="legend_1">
    <g id="patch_7">
     <path d="M 52 219.995313 
L 195.94375 219.995313 
Q 197.94375 219.995313 197.94375 217.995313 
L 197.94375 145.604688 
Q 197.94375 143.604688 195.94375 143.604688 
L 52 143.604688 
Q 50 143.604688 50 145.604688 
L 50 217.995313 
Q 50 219.995313 52 219.995313 
z
" style="fill: #ffffff; opacity: 0.8; stroke: #cccccc; stroke-linejoin: miter"/>
    </g>
    <g id="line2d_19">
     <path d="M 54 151.703125 
L 64 151.703125 
L 74 151.703125 
" style="fill: none; stroke: #1f77b4; stroke-width: 1.5; stroke-linecap: square"/>
    </g>
    <g id="text_15">
     <!-- Function with noise -->
     <g transform="translate(82 155.203125)scale(0.1 -0.1)">
      <defs>
       <path id="DejaVuSans-46" d="M 628 4666 
L 3309 4666 
L 3309 4134 
L 1259 4134 
L 1259 2759 
L 3109 2759 
L 3109 2228 
L 1259 2228 
L 1259 0 
L 628 0 
L 628 4666 
z
" transform="scale(0.015625)"/>
       <path id="DejaVuSans-77" d="M 269 3500 
L 844 3500 
L 1563 769 
L 2278 3500 
L 2956 3500 
L 3675 769 
L 4391 3500 
L 4966 3500 
L 4050 0 
L 3372 0 
L 2619 2869 
L 1863 0 
L 1184 0 
L 269 3500 
z
" transform="scale(0.015625)"/>
       <path id="DejaVuSans-68" d="M 3513 2113 
L 3513 0 
L 2938 0 
L 2938 2094 
Q 2938 2591 2744 2837 
Q 2550 3084 2163 3084 
Q 1697 3084 1428 2787 
Q 1159 2491 1159 1978 
L 1159 0 
L 581 0 
L 581 4863 
L 1159 4863 
L 1159 2956 
Q 1366 3272 1645 3428 
Q 1925 3584 2291 3584 
Q 2894 3584 3203 3211 
Q 3513 2838 3513 2113 
z
" transform="scale(0.015625)"/>
      </defs>
      <use xlink:href="#DejaVuSans-46"/>
      <use xlink:href="#DejaVuSans-75" x="52.019531"/>
      <use xlink:href="#DejaVuSans-6e" x="115.398438"/>
      <use xlink:href="#DejaVuSans-63" x="178.777344"/>
      <use xlink:href="#DejaVuSans-74" x="233.757812"/>
      <use xlink:href="#DejaVuSans-69" x="272.966797"/>
      <use xlink:href="#DejaVuSans-6f" x="300.75"/>
      <use xlink:href="#DejaVuSans-6e" x="361.931641"/>
      <use xlink:href="#DejaVuSans-20" x="425.310547"/>
      <use xlink:href="#DejaVuSans-77" x="457.097656"/>
      <use xlink:href="#DejaVuSans-69" x="538.884766"/>
      <use xlink:href="#DejaVuSans-74" x="566.667969"/>
      <use xlink:href="#DejaVuSans-68" x="605.876953"/>
      <use xlink:href="#DejaVuSans-20" x="669.255859"/>
      <use xlink:href="#DejaVuSans-6e" x="701.042969"/>
      <use xlink:href="#DejaVuSans-6f" x="764.421875"/>
      <use xlink:href="#DejaVuSans-69" x="825.603516"/>
      <use xlink:href="#DejaVuSans-73" x="853.386719"/>
      <use xlink:href="#DejaVuSans-65" x="905.486328"/>
     </g>
    </g>
    <g id="line2d_20">
     <path d="M 54 166.38125 
L 64 166.38125 
L 74 166.38125 
" style="fill: none; stroke: #ff7f0e; stroke-width: 1.5; stroke-linecap: square"/>
    </g>
    <g id="text_16">
     <!-- Average of Predictions -->
     <g transform="translate(82 169.88125)scale(0.1 -0.1)">
      <defs>
       <path id="DejaVuSans-41" d="M 2188 4044 
L 1331 1722 
L 3047 1722 
L 2188 4044 
z
M 1831 4666 
L 2547 4666 
L 4325 0 
L 3669 0 
L 3244 1197 
L 1141 1197 
L 716 0 
L 50 0 
L 1831 4666 
z
" transform="scale(0.015625)"/>
       <path id="DejaVuSans-61" d="M 2194 1759 
Q 1497 1759 1228 1600 
Q 959 1441 959 1056 
Q 959 750 1161 570 
Q 1363 391 1709 391 
Q 2188 391 2477 730 
Q 2766 1069 2766 1631 
L 2766 1759 
L 2194 1759 
z
M 3341 1997 
L 3341 0 
L 2766 0 
L 2766 531 
Q 2569 213 2275 61 
Q 1981 -91 1556 -91 
Q 1019 -91 701 211 
Q 384 513 384 1019 
Q 384 1609 779 1909 
Q 1175 2209 1959 2209 
L 2766 2209 
L 2766 2266 
Q 2766 2663 2505 2880 
Q 2244 3097 1772 3097 
Q 1472 3097 1187 3025 
Q 903 2953 641 2809 
L 641 3341 
Q 956 3463 1253 3523 
Q 1550 3584 1831 3584 
Q 2591 3584 2966 3190 
Q 3341 2797 3341 1997 
z
" transform="scale(0.015625)"/>
       <path id="DejaVuSans-67" d="M 2906 1791 
Q 2906 2416 2648 2759 
Q 2391 3103 1925 3103 
Q 1463 3103 1205 2759 
Q 947 2416 947 1791 
Q 947 1169 1205 825 
Q 1463 481 1925 481 
Q 2391 481 2648 825 
Q 2906 1169 2906 1791 
z
M 3481 434 
Q 3481 -459 3084 -895 
Q 2688 -1331 1869 -1331 
Q 1566 -1331 1297 -1286 
Q 1028 -1241 775 -1147 
L 775 -588 
Q 1028 -725 1275 -790 
Q 1522 -856 1778 -856 
Q 2344 -856 2625 -561 
Q 2906 -266 2906 331 
L 2906 616 
Q 2728 306 2450 153 
Q 2172 0 1784 0 
Q 1141 0 747 490 
Q 353 981 353 1791 
Q 353 2603 747 3093 
Q 1141 3584 1784 3584 
Q 2172 3584 2450 3431 
Q 2728 3278 2906 2969 
L 2906 3500 
L 3481 3500 
L 3481 434 
z
" transform="scale(0.015625)"/>
       <path id="DejaVuSans-66" d="M 2375 4863 
L 2375 4384 
L 1825 4384 
Q 1516 4384 1395 4259 
Q 1275 4134 1275 3809 
L 1275 3500 
L 2222 3500 
L 2222 3053 
L 1275 3053 
L 1275 0 
L 697 0 
L 697 3053 
L 147 3053 
L 147 3500 
L 697 3500 
L 697 3744 
Q 697 4328 969 4595 
Q 1241 4863 1831 4863 
L 2375 4863 
z
" transform="scale(0.015625)"/>
      </defs>
      <use xlink:href="#DejaVuSans-41"/>
      <use xlink:href="#DejaVuSans-76" x="62.533203"/>
      <use xlink:href="#DejaVuSans-65" x="121.712891"/>
      <use xlink:href="#DejaVuSans-72" x="183.236328"/>
      <use xlink:href="#DejaVuSans-61" x="224.349609"/>
      <use xlink:href="#DejaVuSans-67" x="285.628906"/>
      <use xlink:href="#DejaVuSans-65" x="349.105469"/>
      <use xlink:href="#DejaVuSans-20" x="410.628906"/>
      <use xlink:href="#DejaVuSans-6f" x="442.416016"/>
      <use xlink:href="#DejaVuSans-66" x="503.597656"/>
      <use xlink:href="#DejaVuSans-20" x="538.802734"/>
      <use xlink:href="#DejaVuSans-50" x="570.589844"/>
      <use xlink:href="#DejaVuSans-72" x="629.142578"/>
      <use xlink:href="#DejaVuSans-65" x="668.005859"/>
      <use xlink:href="#DejaVuSans-64" x="729.529297"/>
      <use xlink:href="#DejaVuSans-69" x="793.005859"/>
      <use xlink:href="#DejaVuSans-63" x="820.789062"/>
      <use xlink:href="#DejaVuSans-74" x="875.769531"/>
      <use xlink:href="#DejaVuSans-69" x="914.978516"/>
      <use xlink:href="#DejaVuSans-6f" x="942.761719"/>
      <use xlink:href="#DejaVuSans-6e" x="1003.943359"/>
      <use xlink:href="#DejaVuSans-73" x="1067.322266"/>
     </g>
    </g>
    <g id="line2d_21">
     <path d="M 54 181.059375 
L 64 181.059375 
L 74 181.059375 
" style="fill: none; stroke: #2ca02c; stroke-width: 1.5; stroke-linecap: square"/>
    </g>
    <g id="text_17">
     <!-- Prediction 1 -->
     <g transform="translate(82 184.559375)scale(0.1 -0.1)">
      <use xlink:href="#DejaVuSans-50"/>
      <use xlink:href="#DejaVuSans-72" x="58.552734"/>
      <use xlink:href="#DejaVuSans-65" x="97.416016"/>
      <use xlink:href="#DejaVuSans-64" x="158.939453"/>
      <use xlink:href="#DejaVuSans-69" x="222.416016"/>
      <use xlink:href="#DejaVuSans-63" x="250.199219"/>
      <use xlink:href="#DejaVuSans-74" x="305.179688"/>
      <use xlink:href="#DejaVuSans-69" x="344.388672"/>
      <use xlink:href="#DejaVuSans-6f" x="372.171875"/>
      <use xlink:href="#DejaVuSans-6e" x="433.353516"/>
      <use xlink:href="#DejaVuSans-20" x="496.732422"/>
      <use xlink:href="#DejaVuSans-31" x="528.519531"/>
     </g>
    </g>
    <g id="line2d_22">
     <path d="M 54 195.7375 
L 64 195.7375 
L 74 195.7375 
" style="fill: none; stroke: #d62728; stroke-width: 1.5; stroke-linecap: square"/>
    </g>
    <g id="text_18">
     <!-- Prediction 2 -->
     <g transform="translate(82 199.2375)scale(0.1 -0.1)">
      <use xlink:href="#DejaVuSans-50"/>
      <use xlink:href="#DejaVuSans-72" x="58.552734"/>
      <use xlink:href="#DejaVuSans-65" x="97.416016"/>
      <use xlink:href="#DejaVuSans-64" x="158.939453"/>
      <use xlink:href="#DejaVuSans-69" x="222.416016"/>
      <use xlink:href="#DejaVuSans-63" x="250.199219"/>
      <use xlink:href="#DejaVuSans-74" x="305.179688"/>
      <use xlink:href="#DejaVuSans-69" x="344.388672"/>
      <use xlink:href="#DejaVuSans-6f" x="372.171875"/>
      <use xlink:href="#DejaVuSans-6e" x="433.353516"/>
      <use xlink:href="#DejaVuSans-20" x="496.732422"/>
      <use xlink:href="#DejaVuSans-32" x="528.519531"/>
     </g>
    </g>
    <g id="line2d_23">
     <path d="M 54 210.415625 
L 64 210.415625 
L 74 210.415625 
" style="fill: none; stroke: #9467bd; stroke-width: 1.5; stroke-linecap: square"/>
    </g>
    <g id="text_19">
     <!-- Prediction 3 -->
     <g transform="translate(82 213.915625)scale(0.1 -0.1)">
      <use xlink:href="#DejaVuSans-50"/>
      <use xlink:href="#DejaVuSans-72" x="58.552734"/>
      <use xlink:href="#DejaVuSans-65" x="97.416016"/>
      <use xlink:href="#DejaVuSans-64" x="158.939453"/>
      <use xlink:href="#DejaVuSans-69" x="222.416016"/>
      <use xlink:href="#DejaVuSans-63" x="250.199219"/>
      <use xlink:href="#DejaVuSans-74" x="305.179688"/>
      <use xlink:href="#DejaVuSans-69" x="344.388672"/>
      <use xlink:href="#DejaVuSans-6f" x="372.171875"/>
      <use xlink:href="#DejaVuSans-6e" x="433.353516"/>
      <use xlink:href="#DejaVuSans-20" x="496.732422"/>
      <use xlink:href="#DejaVuSans-33" x="528.519531"/>
     </g>
    </g>
   </g>
  </g>
 </g>
 <defs>
  <clipPath id="p977e2783c9">
   <rect x="45" y="43.2" width="279" height="277.2"/>
  </clipPath>
 </defs>
</svg>
