<?xml version="1.0" encoding="utf-8" standalone="no"?>
<!DOCTYPE svg PUBLIC "-//W3C//DTD SVG 1.1//EN"
  "http://www.w3.org/Graphics/SVG/1.1/DTD/svg11.dtd">
<svg xmlns:xlink="http://www.w3.org/1999/xlink" width="360pt" height="360pt" viewBox="0 0 360 360" xmlns="http://www.w3.org/2000/svg" version="1.1">
 <metadata>
  <rdf:RDF xmlns:dc="http://purl.org/dc/elements/1.1/" xmlns:cc="http://creativecommons.org/ns#" xmlns:rdf="http://www.w3.org/1999/02/22-rdf-syntax-ns#">
   <cc:Work>
    <dc:type rdf:resource="http://purl.org/dc/dcmitype/StillImage"/>
    <dc:date>2022-11-10T20:19:48.336120</dc:date>
    <dc:format>image/svg+xml</dc:format>
    <dc:creator>
     <cc:Agent>
      <dc:title>Matplotlib v3.5.3, https://matplotlib.org/</dc:title>
     </cc:Agent>
    </dc:creator>
   </cc:Work>
  </rdf:RDF>
 </metadata>
 <defs>
  <style type="text/css">*{stroke-linejoin: round; stroke-linecap: butt}</style>
 </defs>
 <g id="figure_1">
  <g id="patch_1">
   <path d="M 0 360 
L 360 360 
L 360 0 
L 0 0 
z
" style="fill: #ffffff"/>
  </g>
  <g id="axes_1">
   <g id="patch_2">
    <path d="M 45 320.4 
L 324 320.4 
L 324 43.2 
L 45 43.2 
z
" style="fill: #ffffff"/>
   </g>
   <g id="matplotlib.axis_1">
    <g id="xtick_1">
     <g id="line2d_1">
      <defs>
       <path id="ma90340c29c" d="M 0 0 
L 0 3.5 
" style="stroke: #000000; stroke-width: 0.8"/>
      </defs>
      <g>
       <use xlink:href="#ma90340c29c" x="83.045455" y="320.4" style="stroke: #000000; stroke-width: 0.8"/>
      </g>
     </g>
     <g id="text_1">
      <!-- −2 -->
      <g transform="translate(75.674361 334.998438)scale(0.1 -0.1)">
       <defs>
        <path id="DejaVuSans-2212" d="M 678 2272 
L 4684 2272 
L 4684 1741 
L 678 1741 
L 678 2272 
z
" transform="scale(0.015625)"/>
        <path id="DejaVuSans-32" d="M 1228 531 
L 3431 531 
L 3431 0 
L 469 0 
L 469 531 
Q 828 903 1448 1529 
Q 2069 2156 2228 2338 
Q 2531 2678 2651 2914 
Q 2772 3150 2772 3378 
Q 2772 3750 2511 3984 
Q 2250 4219 1831 4219 
Q 1534 4219 1204 4116 
Q 875 4013 500 3803 
L 500 4441 
Q 881 4594 1212 4672 
Q 1544 4750 1819 4750 
Q 2544 4750 2975 4387 
Q 3406 4025 3406 3419 
Q 3406 3131 3298 2873 
Q 3191 2616 2906 2266 
Q 2828 2175 2409 1742 
Q 1991 1309 1228 531 
z
" transform="scale(0.015625)"/>
       </defs>
       <use xlink:href="#DejaVuSans-2212"/>
       <use xlink:href="#DejaVuSans-32" x="83.789062"/>
      </g>
     </g>
    </g>
    <g id="xtick_2">
     <g id="line2d_2">
      <g>
       <use xlink:href="#ma90340c29c" x="133.772727" y="320.4" style="stroke: #000000; stroke-width: 0.8"/>
      </g>
     </g>
     <g id="text_2">
      <!-- −1 -->
      <g transform="translate(126.401634 334.998438)scale(0.1 -0.1)">
       <defs>
        <path id="DejaVuSans-31" d="M 794 531 
L 1825 531 
L 1825 4091 
L 703 3866 
L 703 4441 
L 1819 4666 
L 2450 4666 
L 2450 531 
L 3481 531 
L 3481 0 
L 794 0 
L 794 531 
z
" transform="scale(0.015625)"/>
       </defs>
       <use xlink:href="#DejaVuSans-2212"/>
       <use xlink:href="#DejaVuSans-31" x="83.789062"/>
      </g>
     </g>
    </g>
    <g id="xtick_3">
     <g id="line2d_3">
      <g>
       <use xlink:href="#ma90340c29c" x="184.5" y="320.4" style="stroke: #000000; stroke-width: 0.8"/>
      </g>
     </g>
     <g id="text_3">
      <!-- 0 -->
      <g transform="translate(181.31875 334.998438)scale(0.1 -0.1)">
       <defs>
        <path id="DejaVuSans-30" d="M 2034 4250 
Q 1547 4250 1301 3770 
Q 1056 3291 1056 2328 
Q 1056 1369 1301 889 
Q 1547 409 2034 409 
Q 2525 409 2770 889 
Q 3016 1369 3016 2328 
Q 3016 3291 2770 3770 
Q 2525 4250 2034 4250 
z
M 2034 4750 
Q 2819 4750 3233 4129 
Q 3647 3509 3647 2328 
Q 3647 1150 3233 529 
Q 2819 -91 2034 -91 
Q 1250 -91 836 529 
Q 422 1150 422 2328 
Q 422 3509 836 4129 
Q 1250 4750 2034 4750 
z
" transform="scale(0.015625)"/>
       </defs>
       <use xlink:href="#DejaVuSans-30"/>
      </g>
     </g>
    </g>
    <g id="xtick_4">
     <g id="line2d_4">
      <g>
       <use xlink:href="#ma90340c29c" x="235.227273" y="320.4" style="stroke: #000000; stroke-width: 0.8"/>
      </g>
     </g>
     <g id="text_4">
      <!-- 1 -->
      <g transform="translate(232.046023 334.998438)scale(0.1 -0.1)">
       <use xlink:href="#DejaVuSans-31"/>
      </g>
     </g>
    </g>
    <g id="xtick_5">
     <g id="line2d_5">
      <g>
       <use xlink:href="#ma90340c29c" x="285.954545" y="320.4" style="stroke: #000000; stroke-width: 0.8"/>
      </g>
     </g>
     <g id="text_5">
      <!-- 2 -->
      <g transform="translate(282.773295 334.998438)scale(0.1 -0.1)">
       <use xlink:href="#DejaVuSans-32"/>
      </g>
     </g>
    </g>
   </g>
   <g id="matplotlib.axis_2">
    <g id="ytick_1">
     <g id="line2d_6">
      <defs>
       <path id="m5ab998e92d" d="M 0 0 
L -3.5 0 
" style="stroke: #000000; stroke-width: 0.8"/>
      </defs>
      <g>
       <use xlink:href="#m5ab998e92d" x="45" y="285.596788" style="stroke: #000000; stroke-width: 0.8"/>
      </g>
     </g>
     <g id="text_6">
      <!-- −0.3 -->
      <g transform="translate(13.717187 289.396007)scale(0.1 -0.1)">
       <defs>
        <path id="DejaVuSans-2e" d="M 684 794 
L 1344 794 
L 1344 0 
L 684 0 
L 684 794 
z
" transform="scale(0.015625)"/>
        <path id="DejaVuSans-33" d="M 2597 2516 
Q 3050 2419 3304 2112 
Q 3559 1806 3559 1356 
Q 3559 666 3084 287 
Q 2609 -91 1734 -91 
Q 1441 -91 1130 -33 
Q 819 25 488 141 
L 488 750 
Q 750 597 1062 519 
Q 1375 441 1716 441 
Q 2309 441 2620 675 
Q 2931 909 2931 1356 
Q 2931 1769 2642 2001 
Q 2353 2234 1838 2234 
L 1294 2234 
L 1294 2753 
L 1863 2753 
Q 2328 2753 2575 2939 
Q 2822 3125 2822 3475 
Q 2822 3834 2567 4026 
Q 2313 4219 1838 4219 
Q 1578 4219 1281 4162 
Q 984 4106 628 3988 
L 628 4550 
Q 988 4650 1302 4700 
Q 1616 4750 1894 4750 
Q 2613 4750 3031 4423 
Q 3450 4097 3450 3541 
Q 3450 3153 3228 2886 
Q 3006 2619 2597 2516 
z
" transform="scale(0.015625)"/>
       </defs>
       <use xlink:href="#DejaVuSans-2212"/>
       <use xlink:href="#DejaVuSans-30" x="83.789062"/>
       <use xlink:href="#DejaVuSans-2e" x="147.412109"/>
       <use xlink:href="#DejaVuSans-33" x="179.199219"/>
      </g>
     </g>
    </g>
    <g id="ytick_2">
     <g id="line2d_7">
      <g>
       <use xlink:href="#m5ab998e92d" x="45" y="238.597689" style="stroke: #000000; stroke-width: 0.8"/>
      </g>
     </g>
     <g id="text_7">
      <!-- −0.2 -->
      <g transform="translate(13.717187 242.396908)scale(0.1 -0.1)">
       <use xlink:href="#DejaVuSans-2212"/>
       <use xlink:href="#DejaVuSans-30" x="83.789062"/>
       <use xlink:href="#DejaVuSans-2e" x="147.412109"/>
       <use xlink:href="#DejaVuSans-32" x="179.199219"/>
      </g>
     </g>
    </g>
    <g id="ytick_3">
     <g id="line2d_8">
      <g>
       <use xlink:href="#m5ab998e92d" x="45" y="191.598591" style="stroke: #000000; stroke-width: 0.8"/>
      </g>
     </g>
     <g id="text_8">
      <!-- −0.1 -->
      <g transform="translate(13.717187 195.397809)scale(0.1 -0.1)">
       <use xlink:href="#DejaVuSans-2212"/>
       <use xlink:href="#DejaVuSans-30" x="83.789062"/>
       <use xlink:href="#DejaVuSans-2e" x="147.412109"/>
       <use xlink:href="#DejaVuSans-31" x="179.199219"/>
      </g>
     </g>
    </g>
    <g id="ytick_4">
     <g id="line2d_9">
      <g>
       <use xlink:href="#m5ab998e92d" x="45" y="144.599492" style="stroke: #000000; stroke-width: 0.8"/>
      </g>
     </g>
     <g id="text_9">
      <!-- 0.0 -->
      <g transform="translate(22.096875 148.398711)scale(0.1 -0.1)">
       <use xlink:href="#DejaVuSans-30"/>
       <use xlink:href="#DejaVuSans-2e" x="63.623047"/>
       <use xlink:href="#DejaVuSans-30" x="95.410156"/>
      </g>
     </g>
    </g>
    <g id="ytick_5">
     <g id="line2d_10">
      <g>
       <use xlink:href="#m5ab998e92d" x="45" y="97.600393" style="stroke: #000000; stroke-width: 0.8"/>
      </g>
     </g>
     <g id="text_10">
      <!-- 0.1 -->
      <g transform="translate(22.096875 101.399612)scale(0.1 -0.1)">
       <use xlink:href="#DejaVuSans-30"/>
       <use xlink:href="#DejaVuSans-2e" x="63.623047"/>
       <use xlink:href="#DejaVuSans-31" x="95.410156"/>
      </g>
     </g>
    </g>
    <g id="ytick_6">
     <g id="line2d_11">
      <g>
       <use xlink:href="#m5ab998e92d" x="45" y="50.601295" style="stroke: #000000; stroke-width: 0.8"/>
      </g>
     </g>
     <g id="text_11">
      <!-- 0.2 -->
      <g transform="translate(22.096875 54.400514)scale(0.1 -0.1)">
       <use xlink:href="#DejaVuSans-30"/>
       <use xlink:href="#DejaVuSans-2e" x="63.623047"/>
       <use xlink:href="#DejaVuSans-32" x="95.410156"/>
      </g>
     </g>
    </g>
   </g>
   <g id="line2d_12">
    <path d="M 57.681818 159.268076 
L 113.849692 159.432056 
L 122.165641 159.66829 
L 128.860684 160.10481 
L 133.018652 160.594824 
L 136.612837 161.244696 
L 139.502274 161.985623 
L 142.180293 162.906824 
L 144.505938 163.938847 
L 146.690636 165.145764 
L 148.804863 166.566729 
L 150.919081 168.264311 
L 153.033308 170.250299 
L 155.429429 172.834165 
L 158.318869 176.305504 
L 162.688263 181.572115 
L 164.450115 183.339283 
L 165.859602 184.45315 
L 167.057662 185.12913 
L 168.11477 185.484881 
L 169.101413 185.593821 
L 170.088042 185.474707 
L 171.074683 185.121645 
L 172.061318 184.535308 
L 173.188908 183.587954 
L 174.386968 182.278776 
L 175.796455 180.383765 
L 177.487834 177.693827 
L 179.602054 173.875265 
L 182.984812 167.235033 
L 190.948381 151.542013 
L 200.744277 132.899626 
L 203.915613 127.317566 
L 206.241267 123.661645 
L 208.144068 121.064029 
L 209.835448 119.114078 
L 211.385873 117.65562 
L 212.865829 116.570741 
L 214.275316 115.817656 
L 215.614324 115.3478 
L 217.023806 115.09533 
L 218.433288 115.066991 
L 219.983716 115.259042 
L 221.816046 115.726836 
L 224.071214 116.549384 
L 232.950955 120.060054 
L 235.347073 120.625862 
L 237.602247 120.930471 
L 239.857422 121.012451 
L 242.042116 120.889527 
L 244.508711 120.527635 
L 247.116254 119.903088 
L 249.723796 119.028345 
L 252.119923 117.977721 
L 254.234138 116.813048 
L 256.207418 115.478478 
L 258.110218 113.91442 
L 259.872071 112.182056 
L 261.633924 110.139749 
L 263.46625 107.661281 
L 265.36905 104.696989 
L 267.553751 100.840878 
L 270.231767 95.629622 
L 274.812589 86.619358 
L 276.644915 83.489046 
L 278.195347 81.253423 
L 279.534346 79.69434 
L 280.802883 78.570029 
L 281.86 77.907652 
L 282.846631 77.513847 
L 283.903747 77.329271 
L 284.960858 77.374183 
L 286.017968 77.630564 
L 287.216032 78.147807 
L 288.69599 79.063069 
L 290.387369 80.388451 
L 292.642537 82.426589 
L 298.421423 87.657745 
L 300.676591 89.340357 
L 303.072707 90.815892 
L 305.468822 91.973102 
L 307.653529 92.777564 
L 309.76775 93.360607 
L 311.318182 93.68431 
L 311.318182 93.68431 
" clip-path="url(#pecfd0134bd)" style="fill: none; stroke: #1f77b4; stroke-width: 1.5; stroke-linecap: square"/>
   </g>
   <g id="line2d_13">
    <path d="M 57.681818 160.653406 
L 112.228787 160.816267 
L 120.967583 161.065297 
L 127.098831 161.451616 
L 131.397747 161.921707 
L 135.062406 162.53041 
L 138.23374 163.277971 
L 141.193653 164.222905 
L 143.660252 165.238927 
L 146.126841 166.503037 
L 148.452492 167.951365 
L 150.919081 169.775367 
L 153.526629 172.012245 
L 156.838911 175.183076 
L 160.996883 179.118993 
L 162.899685 180.59399 
L 164.379642 181.468531 
L 165.648179 181.974144 
L 166.846232 182.212193 
L 167.973822 182.204999 
L 169.030937 181.986896 
L 170.158515 181.52866 
L 171.356581 180.797392 
L 172.695589 179.7097 
L 174.246024 178.152791 
L 176.289769 175.758118 
L 183.055286 167.555778 
L 185.099032 165.562888 
L 186.931359 164.068785 
L 188.763687 162.856344 
L 190.596002 161.914592 
L 192.428338 161.225725 
L 194.260665 160.768173 
L 196.163466 160.514733 
L 198.277686 160.468864 
L 200.462381 160.645081 
L 203.069931 161.09303 
L 206.52316 161.938387 
L 212.44299 163.396099 
L 215.050529 163.784884 
L 217.376171 163.914195 
L 219.701819 163.814354 
L 222.02747 163.485564 
L 224.494059 162.90744 
L 227.242554 162.03086 
L 230.836731 160.62146 
L 242.042116 156.039032 
L 244.508711 155.369215 
L 246.763885 154.993137 
L 248.737165 154.899639 
L 250.499012 155.040648 
L 252.119923 155.387144 
L 253.670343 155.940043 
L 255.150301 156.69175 
L 256.630266 157.683971 
L 258.110218 158.937952 
L 259.66065 160.554765 
L 261.211082 162.500974 
L 262.831987 164.910192 
L 264.452887 167.716397 
L 266.144266 171.079335 
L 268.047072 175.397336 
L 270.020346 180.458124 
L 272.134567 186.496028 
L 274.530688 194.014532 
L 277.420125 203.815319 
L 281.930474 219.915322 
L 286.652243 236.453233 
L 289.753095 246.481043 
L 292.290169 253.977405 
L 294.756758 260.576882 
L 297.011927 265.998172 
L 299.408054 271.12319 
L 301.592749 275.254867 
L 303.777443 278.903633 
L 305.821203 281.916915 
L 307.86495 284.57736 
L 310.049644 287.069544 
L 311.318182 288.365253 
L 311.318182 288.365253 
" clip-path="url(#pecfd0134bd)" style="fill: none; stroke: #ff7f0e; stroke-width: 1.5; stroke-linecap: square"/>
   </g>
   <g id="line2d_14">
    <path d="M 57.681818 126.249736 
L 101.798617 126.181002 
L 116.034393 125.921551 
L 123.504646 125.497222 
L 128.578783 124.9311 
L 132.102495 124.310654 
L 135.062406 123.578669 
L 137.810895 122.668404 
L 140.207017 121.64501 
L 142.462185 120.444435 
L 144.646885 119.023515 
L 146.690636 117.436621 
L 148.804863 115.512083 
L 151.060031 113.138476 
L 153.526629 110.201817 
L 157.54365 105.002753 
L 160.221663 101.73486 
L 161.842568 100.086291 
L 163.111103 99.075245 
L 164.238693 98.43985 
L 165.225327 98.120921 
L 166.141495 98.044163 
L 167.057662 98.194159 
L 167.973822 98.580456 
L 168.960464 99.265065 
L 170.017568 100.304214 
L 171.145158 101.744743 
L 172.413697 103.736603 
L 173.964127 106.618513 
L 175.937403 110.786921 
L 182.632445 125.314372 
L 184.535231 128.731073 
L 186.297084 131.455613 
L 187.988463 133.662774 
L 189.609368 135.412081 
L 191.159803 136.767773 
L 192.710234 137.834432 
L 194.260665 138.633807 
L 195.811096 139.188432 
L 197.431992 139.530512 
L 199.123371 139.654445 
L 200.955707 139.553433 
L 202.928984 139.215947 
L 205.325099 138.566204 
L 209.412603 137.164368 
L 212.865829 136.080341 
L 215.191476 135.583603 
L 217.235224 135.371237 
L 219.2085 135.391799 
L 221.181777 135.639115 
L 223.225527 136.121173 
L 225.480702 136.884792 
L 228.229191 138.064626 
L 233.162379 140.502956 
L 237.038452 142.311293 
L 239.645995 143.291703 
L 241.901169 143.905919 
L 243.944916 144.230183 
L 245.847716 144.305528 
L 247.680049 144.153134 
L 249.512375 143.767666 
L 251.274228 143.175346 
L 253.247508 142.257596 
L 255.432196 140.947544 
L 257.68737 139.31446 
L 260.365386 137.085784 
L 264.241466 133.533385 
L 270.513661 127.517578 
L 273.544057 124.381394 
L 276.081114 121.393974 
L 278.124873 118.612331 
L 280.027673 115.645753 
L 282.000953 112.160945 
L 284.467536 107.253134 
L 287.216032 101.252566 
L 294.052022 86.063522 
L 296.589085 81.086148 
L 298.844265 77.171857 
L 300.958486 73.971488 
L 303.072707 71.225165 
L 305.116454 68.978515 
L 307.089728 67.157315 
L 309.063002 65.639827 
L 311.106761 64.347524 
L 311.318182 64.229194 
L 311.318182 64.229194 
" clip-path="url(#pecfd0134bd)" style="fill: none; stroke: #2ca02c; stroke-width: 1.5; stroke-linecap: square"/>
   </g>
   <g id="line2d_15">
    <path d="M 57.681818 131.842044 
L 108.282234 131.779518 
L 129.847321 131.545234 
L 137.740422 131.530107 
L 142.180293 131.746237 
L 145.140207 132.114583 
L 147.465849 132.616386 
L 149.509599 133.277284 
L 151.341928 134.099384 
L 153.033308 135.097656 
L 154.654213 136.309571 
L 156.204642 137.735398 
L 157.825548 139.532305 
L 159.446452 141.658451 
L 161.208306 144.338954 
L 163.252052 147.880305 
L 166.141495 153.416496 
L 169.876619 160.533643 
L 171.779421 163.659809 
L 173.259378 165.692501 
L 174.59839 167.177359 
L 175.796455 168.202983 
L 176.994507 168.942241 
L 178.122097 169.387938 
L 179.249687 169.610624 
L 180.447739 169.630715 
L 181.857222 169.416176 
L 183.478127 168.925836 
L 185.592351 168.034363 
L 196.586307 163.042976 
L 201.660445 160.891663 
L 204.40894 159.46569 
L 206.946005 157.900724 
L 209.624025 155.989213 
L 213.2182 153.123708 
L 219.138024 148.385536 
L 221.886519 146.489024 
L 224.353112 145.04752 
L 226.81971 143.868302 
L 229.356775 142.912555 
L 232.175745 142.10695 
L 235.628968 141.379223 
L 247.750522 139.03457 
L 250.921854 138.06671 
L 254.234138 136.818377 
L 257.969271 135.152842 
L 263.325303 132.487019 
L 272.486941 127.978436 
L 276.01064 126.172788 
L 278.618195 124.629572 
L 280.943831 123.013476 
L 283.339958 121.063278 
L 286.017968 118.536761 
L 288.766464 115.623073 
L 293.347274 110.389766 
L 298.844265 104.290859 
L 302.227011 100.973147 
L 304.552665 98.941194 
L 307.653529 96.567698 
L 310.402013 94.767833 
L 311.318182 94.228447 
L 311.318182 94.228447 
" clip-path="url(#pecfd0134bd)" style="fill: none; stroke: #d62728; stroke-width: 1.5; stroke-linecap: square"/>
   </g>
   <g id="line2d_16">
    <path d="M 57.681818 196.10165 
L 113.849692 196.266303 
L 123.011331 196.516162 
L 129.283526 196.858377 
L 135.273829 197.39644 
L 140.770806 198.105365 
L 149.298178 199.258138 
L 151.764773 199.339669 
L 153.73805 199.178601 
L 155.429429 198.803599 
L 156.909387 198.23927 
L 158.248392 197.495541 
L 159.5874 196.492048 
L 160.855935 195.271975 
L 162.194947 193.672934 
L 163.604421 191.627086 
L 165.084378 189.074886 
L 166.775757 185.680192 
L 168.749041 181.178019 
L 171.708947 173.765115 
L 175.514558 164.323553 
L 177.628782 159.67517 
L 179.461105 156.161698 
L 181.152485 153.372324 
L 182.843864 151.000767 
L 184.535231 149.001411 
L 186.367558 147.183717 
L 188.340834 145.535843 
L 190.807432 143.780799 
L 194.190191 141.671439 
L 199.264328 138.785434 
L 202.788035 137.013772 
L 205.325099 135.979873 
L 207.43932 135.348837 
L 209.342129 135.002499 
L 211.174449 134.891666 
L 213.006779 135.010556 
L 214.839105 135.358754 
L 216.741908 135.950077 
L 218.856132 136.852038 
L 221.252251 138.130827 
L 224.212161 139.980075 
L 229.004407 143.279175 
L 235.276599 147.526178 
L 239.293626 149.950479 
L 242.535437 151.663973 
L 245.565822 153.035028 
L 248.384791 154.082358 
L 251.133281 154.864947 
L 253.811297 155.369775 
L 256.136944 155.578735 
L 258.392113 155.555113 
L 260.576813 155.299719 
L 262.691034 154.820439 
L 264.946208 154.043632 
L 267.060429 153.062347 
L 269.24513 151.799492 
L 271.500304 150.259414 
L 274.107846 148.247272 
L 282.212368 141.895839 
L 284.467536 140.544102 
L 286.511283 139.590831 
L 288.343622 138.970139 
L 290.316896 138.542718 
L 292.219696 138.346129 
L 294.40439 138.341916 
L 297.0824 138.58494 
L 300.042317 139.061575 
L 307.301149 140.541144 
L 311.318182 141.29944 
L 311.318182 141.29944 
" clip-path="url(#pecfd0134bd)" style="fill: none; stroke: #9467bd; stroke-width: 1.5; stroke-linecap: square"/>
   </g>
   <g id="line2d_17">
    <path d="M 57.681818 137.830577 
L 105.392797 137.765272 
L 117.725772 137.517385 
L 124.279862 137.152513 
L 129.142578 136.652816 
L 132.877705 136.053257 
L 136.119516 135.315848 
L 139.008953 134.43604 
L 141.546025 133.451484 
L 144.08309 132.236319 
L 146.761112 130.681764 
L 149.298178 128.95442 
L 152.399039 126.578011 
L 157.191285 122.895584 
L 159.023605 121.792384 
L 160.433094 121.193094 
L 161.631146 120.914011 
L 162.688263 120.880775 
L 163.745378 121.076243 
L 164.732011 121.485825 
L 165.789128 122.18639 
L 166.846232 123.168168 
L 167.973822 124.527143 
L 169.24236 126.429494 
L 170.651843 128.966051 
L 172.343222 132.494381 
L 174.739338 138.069119 
L 179.038265 148.109703 
L 180.941066 151.958968 
L 182.561971 154.764591 
L 184.041928 156.894625 
L 185.380928 158.448508 
L 186.649455 159.588877 
L 187.847519 160.371354 
L 188.975109 160.850589 
L 190.102687 161.086968 
L 191.230278 161.086766 
L 192.357856 160.857514 
L 193.485446 160.407043 
L 194.683506 159.695149 
L 196.022518 158.628289 
L 197.431992 157.213846 
L 198.982424 155.340109 
L 200.744277 152.85285 
L 202.858508 149.457736 
L 205.677466 144.474344 
L 211.033502 134.945205 
L 213.2182 131.553425 
L 215.050529 129.093793 
L 216.741908 127.180125 
L 218.362814 125.681216 
L 219.913243 124.548994 
L 221.463675 123.692819 
L 223.014104 123.084138 
L 224.705483 122.660314 
L 226.537812 122.426266 
L 228.792986 122.364479 
L 232.52811 122.531574 
L 237.672721 122.732825 
L 241.407853 122.633813 
L 246.129617 122.24774 
L 251.97897 121.803982 
L 254.586512 121.813237 
L 256.841681 122.007988 
L 259.096855 122.426266 
L 261.070129 123.007784 
L 263.043408 123.816863 
L 265.016682 124.871252 
L 266.989956 126.178032 
L 269.24513 127.978929 
L 271.641251 130.219841 
L 274.319267 133.042989 
L 278.82961 138.183157 
L 283.410432 143.236729 
L 286.299863 146.070545 
L 289.4712 148.780293 
L 292.50159 150.99485 
L 295.038665 152.607181 
L 297.716675 154.115974 
L 301.310854 155.889574 
L 306.73736 158.144381 
L 311.318182 159.724799 
L 311.318182 159.724799 
" clip-path="url(#pecfd0134bd)" style="fill: none; stroke: #8c564b; stroke-width: 1.5; stroke-linecap: square"/>
   </g>
   <g id="line2d_18">
    <path d="M 57.681818 120.41427 
L 145.281154 120.607452 
L 163.392999 121.147129 
L 166.846232 120.951616 
L 170.158515 120.552926 
L 173.682223 119.899715 
L 177.346885 118.999188 
L 181.575329 117.720982 
L 185.944717 116.175839 
L 196.163466 112.46612 
L 198.630053 111.884988 
L 200.744277 111.613122 
L 202.576612 111.588492 
L 204.40894 111.789322 
L 206.170793 112.212104 
L 207.932646 112.867259 
L 209.764974 113.79088 
L 211.738245 115.042552 
L 213.922945 116.697475 
L 216.530484 118.95775 
L 220.406564 122.646554 
L 227.313028 129.239655 
L 230.907204 132.357977 
L 234.430913 135.117276 
L 237.743195 137.417354 
L 240.703105 139.20821 
L 243.451601 140.616131 
L 245.847716 141.610839 
L 248.10289 142.315371 
L 250.146644 142.729861 
L 252.049444 142.898257 
L 253.952244 142.830374 
L 255.78457 142.517025 
L 257.546423 141.962489 
L 259.237802 141.176135 
L 260.929181 140.119908 
L 262.691034 138.711472 
L 264.31194 137.120924 
L 266.003319 135.142713 
L 267.765172 132.722916 
L 269.597504 129.80748 
L 271.500304 126.350552 
L 273.544057 122.170333 
L 275.940167 116.711078 
L 278.759136 109.684539 
L 283.410432 97.429712 
L 286.863664 88.578924 
L 289.400726 82.582211 
L 291.867328 77.325596 
L 293.981548 73.326233 
L 296.095769 69.805837 
L 298.069043 66.940377 
L 300.11279 64.373879 
L 302.086064 62.247352 
L 304.200297 60.309704 
L 306.455465 58.582539 
L 308.64016 57.190642 
L 311.247708 55.832361 
L 311.318182 55.8 
L 311.318182 55.8 
" clip-path="url(#pecfd0134bd)" style="fill: none; stroke: #e377c2; stroke-width: 1.5; stroke-linecap: square"/>
   </g>
   <g id="line2d_19">
    <path d="M 57.681818 146.901732 
L 94.962633 146.929813 
L 113.990646 147.113134 
L 122.377062 147.420029 
L 128.437836 147.883845 
L 132.877705 148.455346 
L 136.542361 149.147956 
L 139.925119 150.024693 
L 142.814559 150.992464 
L 145.77447 152.219237 
L 148.734389 153.679757 
L 152.821884 155.963138 
L 156.557013 157.966427 
L 158.459816 158.749375 
L 160.080716 159.176953 
L 161.419724 159.305793 
L 162.688263 159.200193 
L 163.886326 158.868713 
L 165.013904 158.334527 
L 166.211968 157.5211 
L 167.480507 156.385696 
L 168.88999 154.813547 
L 170.510894 152.661382 
L 172.695589 149.361397 
L 177.276412 142.330947 
L 179.108739 139.981386 
L 180.65917 138.349143 
L 182.068644 137.185468 
L 183.337183 136.410084 
L 184.605705 135.893198 
L 185.803769 135.636414 
L 187.001833 135.595783 
L 188.27036 135.775496 
L 189.609368 136.197583 
L 191.018855 136.879189 
L 192.569286 137.884173 
L 194.260665 139.249995 
L 196.233941 141.144687 
L 198.630053 143.779421 
L 202.50613 148.431832 
L 205.747941 152.184226 
L 207.791699 154.230774 
L 209.483078 155.628677 
L 210.963032 156.580749 
L 212.30204 157.19659 
L 213.570574 157.550066 
L 214.839105 157.67308 
L 216.10764 157.565664 
L 217.376171 157.234509 
L 218.715185 156.655781 
L 220.19514 155.76702 
L 221.886519 154.47549 
L 223.859796 152.675736 
L 226.537812 149.910566 
L 232.598583 143.561284 
L 234.853758 141.585134 
L 236.686084 140.267932 
L 238.30699 139.369165 
L 239.786948 138.801676 
L 241.125953 138.521988 
L 242.394484 138.482701 
L 243.592548 138.664745 
L 244.720132 139.045305 
L 245.918196 139.688431 
L 247.116254 140.594191 
L 248.314317 141.779325 
L 249.582849 143.360213 
L 250.85138 145.295508 
L 252.190391 147.747016 
L 253.59987 150.805658 
L 255.079828 154.574591 
L 256.559786 158.938983 
L 258.180692 164.429254 
L 259.872071 170.96858 
L 261.704403 178.989357 
L 263.677671 188.685889 
L 265.862372 200.597694 
L 268.46992 216.135272 
L 272.909783 244.208217 
L 276.151588 263.950621 
L 278.265821 275.510441 
L 280.027673 283.975044 
L 281.578105 290.392814 
L 282.987578 295.322408 
L 284.256121 299.008197 
L 285.524653 301.989029 
L 286.652243 304.070555 
L 287.709347 305.563928 
L 288.69599 306.586763 
L 289.612147 307.239548 
L 290.59879 307.65406 
L 291.514947 307.79749 
L 292.50159 307.721562 
L 293.629168 307.383516 
L 294.897706 306.735302 
L 296.448138 305.641918 
L 298.280464 304.047606 
L 300.888012 301.457711 
L 307.089728 295.133709 
L 309.838224 292.624403 
L 311.318182 291.387141 
L 311.318182 291.387141 
" clip-path="url(#pecfd0134bd)" style="fill: none; stroke: #7f7f7f; stroke-width: 1.5; stroke-linecap: square"/>
   </g>
   <g id="line2d_20">
    <path d="M 57.681818 167.416125 
L 100.60056 167.346068 
L 114.836329 167.127046 
L 122.799904 166.749377 
L 127.451199 166.317855 
L 131.327273 165.742791 
L 134.428137 165.067774 
L 137.247106 164.219073 
L 139.572748 163.295026 
L 141.827922 162.151397 
L 143.801199 160.906358 
L 145.77447 159.388377 
L 147.606799 157.695457 
L 149.439125 155.694902 
L 151.271455 153.358384 
L 153.174255 150.558319 
L 155.218008 147.131735 
L 157.54365 142.770302 
L 161.349253 135.063882 
L 164.027275 129.898054 
L 165.718654 127.096958 
L 167.128136 125.190775 
L 168.255714 124.010101 
L 169.31283 123.215186 
L 170.228991 122.785927 
L 171.145158 122.604376 
L 171.990843 122.656661 
L 172.907011 122.945448 
L 173.893653 123.514304 
L 174.950757 124.396779 
L 176.148821 125.699391 
L 177.558308 127.573851 
L 179.320161 130.306594 
L 181.857222 134.697856 
L 189.538898 148.706942 
L 193.767338 156.707752 
L 196.79773 162.91752 
L 199.828117 169.64191 
L 204.338465 180.290838 
L 207.862172 188.374808 
L 209.976392 192.708278 
L 211.738245 195.843319 
L 213.288676 198.161191 
L 214.698158 199.867031 
L 215.966695 201.056278 
L 217.164753 201.872528 
L 218.292337 202.370868 
L 219.349448 202.608077 
L 220.477038 202.627877 
L 221.604622 202.424811 
L 222.80268 201.988605 
L 224.212161 201.223396 
L 225.833067 200.070309 
L 227.876817 198.320566 
L 231.682423 194.688406 
L 234.853758 191.809343 
L 237.038452 190.116467 
L 238.941252 188.908967 
L 240.703105 188.041149 
L 242.394484 187.44652 
L 244.085863 187.085323 
L 245.777243 186.947227 
L 247.539095 187.020421 
L 249.582849 187.340741 
L 251.97897 187.949354 
L 258.321645 189.653413 
L 260.013024 189.804328 
L 261.422503 189.729475 
L 262.761508 189.450594 
L 264.100519 188.937967 
L 265.439524 188.166852 
L 266.637587 187.24648 
L 268.047072 185.875784 
L 269.527024 184.107697 
L 271.14793 181.815912 
L 273.12121 178.6038 
L 275.940167 173.507513 
L 280.591462 165.090958 
L 282.705683 161.730397 
L 284.81991 158.811868 
L 286.722716 156.561991 
L 288.766464 154.492567 
L 291.021632 152.518434 
L 293.911075 150.256366 
L 298.844265 146.501372 
L 303.495549 142.706218 
L 311.318182 136.039149 
L 311.318182 136.039149 
" clip-path="url(#pecfd0134bd)" style="fill: none; stroke: #bcbd22; stroke-width: 1.5; stroke-linecap: square"/>
   </g>
   <g id="line2d_21">
    <path d="M 57.681818 99.317305 
L 77.555526 99.320689 
L 121.95422 99.585631 
L 129.424473 99.890307 
L 134.710034 100.301099 
L 138.797535 100.808393 
L 142.462185 101.472585 
L 145.633522 102.262794 
L 148.593439 103.226374 
L 151.553352 104.444968 
L 154.301839 105.819563 
L 157.191285 107.500517 
L 161.208306 110.106503 
L 166.071021 113.198896 
L 168.678559 114.589471 
L 171.215632 115.680681 
L 173.893653 116.576445 
L 178.75636 117.885523 
L 182.068644 118.899729 
L 184.746653 119.957826 
L 187.28373 121.207952 
L 189.891265 122.74998 
L 192.710234 124.679672 
L 196.233941 127.374187 
L 204.972729 134.168348 
L 207.791699 136.001062 
L 210.399237 137.438868 
L 213.006779 138.632384 
L 215.966695 139.742811 
L 219.913243 140.974627 
L 231.541473 144.287241 
L 234.71281 144.977273 
L 237.108926 145.276974 
L 239.152679 145.30817 
L 240.985006 145.108646 
L 242.605911 144.716343 
L 244.156337 144.121624 
L 245.636295 143.330115 
L 247.116254 142.29742 
L 248.596212 141.005834 
L 250.146644 139.356122 
L 251.767549 137.290732 
L 253.458922 134.75339 
L 255.291249 131.559745 
L 257.123575 127.912682 
L 259.167329 123.340093 
L 261.422503 117.75099 
L 264.170992 110.35086 
L 272.134567 88.509226 
L 274.107846 83.93332 
L 275.728746 80.68804 
L 277.208704 78.211186 
L 278.406768 76.585139 
L 279.534346 75.385169 
L 280.591462 74.563405 
L 281.578105 74.065614 
L 282.564742 73.830568 
L 283.480905 73.844822 
L 284.397063 74.074937 
L 285.383705 74.559461 
L 286.511283 75.398795 
L 287.709347 76.597868 
L 289.048358 78.279135 
L 290.59879 80.616235 
L 292.290169 83.556727 
L 294.333917 87.517095 
L 297.575728 94.336736 
L 303.988864 107.956568 
L 307.089728 113.974616 
L 309.556329 118.352723 
L 311.318182 121.237187 
L 311.318182 121.237187 
" clip-path="url(#pecfd0134bd)" style="fill: none; stroke: #17becf; stroke-width: 1.5; stroke-linecap: square"/>
   </g>
   <g id="patch_3">
    <path d="M 45 320.4 
L 45 43.2 
" style="fill: none; stroke: #000000; stroke-width: 0.8; stroke-linejoin: miter; stroke-linecap: square"/>
   </g>
   <g id="patch_4">
    <path d="M 324 320.4 
L 324 43.2 
" style="fill: none; stroke: #000000; stroke-width: 0.8; stroke-linejoin: miter; stroke-linecap: square"/>
   </g>
   <g id="patch_5">
    <path d="M 45 320.4 
L 324 320.4 
" style="fill: none; stroke: #000000; stroke-width: 0.8; stroke-linejoin: miter; stroke-linecap: square"/>
   </g>
   <g id="patch_6">
    <path d="M 45 43.2 
L 324 43.2 
" style="fill: none; stroke: #000000; stroke-width: 0.8; stroke-linejoin: miter; stroke-linecap: square"/>
   </g>
   <g id="text_12">
    <!-- Single Draw Deviation -->
    <g transform="translate(117.87 37.2)scale(0.12 -0.12)">
     <defs>
      <path id="DejaVuSans-53" d="M 3425 4513 
L 3425 3897 
Q 3066 4069 2747 4153 
Q 2428 4238 2131 4238 
Q 1616 4238 1336 4038 
Q 1056 3838 1056 3469 
Q 1056 3159 1242 3001 
Q 1428 2844 1947 2747 
L 2328 2669 
Q 3034 2534 3370 2195 
Q 3706 1856 3706 1288 
Q 3706 609 3251 259 
Q 2797 -91 1919 -91 
Q 1588 -91 1214 -16 
Q 841 59 441 206 
L 441 856 
Q 825 641 1194 531 
Q 1563 422 1919 422 
Q 2459 422 2753 634 
Q 3047 847 3047 1241 
Q 3047 1584 2836 1778 
Q 2625 1972 2144 2069 
L 1759 2144 
Q 1053 2284 737 2584 
Q 422 2884 422 3419 
Q 422 4038 858 4394 
Q 1294 4750 2059 4750 
Q 2388 4750 2728 4690 
Q 3069 4631 3425 4513 
z
" transform="scale(0.015625)"/>
      <path id="DejaVuSans-69" d="M 603 3500 
L 1178 3500 
L 1178 0 
L 603 0 
L 603 3500 
z
M 603 4863 
L 1178 4863 
L 1178 4134 
L 603 4134 
L 603 4863 
z
" transform="scale(0.015625)"/>
      <path id="DejaVuSans-6e" d="M 3513 2113 
L 3513 0 
L 2938 0 
L 2938 2094 
Q 2938 2591 2744 2837 
Q 2550 3084 2163 3084 
Q 1697 3084 1428 2787 
Q 1159 2491 1159 1978 
L 1159 0 
L 581 0 
L 581 3500 
L 1159 3500 
L 1159 2956 
Q 1366 3272 1645 3428 
Q 1925 3584 2291 3584 
Q 2894 3584 3203 3211 
Q 3513 2838 3513 2113 
z
" transform="scale(0.015625)"/>
      <path id="DejaVuSans-67" d="M 2906 1791 
Q 2906 2416 2648 2759 
Q 2391 3103 1925 3103 
Q 1463 3103 1205 2759 
Q 947 2416 947 1791 
Q 947 1169 1205 825 
Q 1463 481 1925 481 
Q 2391 481 2648 825 
Q 2906 1169 2906 1791 
z
M 3481 434 
Q 3481 -459 3084 -895 
Q 2688 -1331 1869 -1331 
Q 1566 -1331 1297 -1286 
Q 1028 -1241 775 -1147 
L 775 -588 
Q 1028 -725 1275 -790 
Q 1522 -856 1778 -856 
Q 2344 -856 2625 -561 
Q 2906 -266 2906 331 
L 2906 616 
Q 2728 306 2450 153 
Q 2172 0 1784 0 
Q 1141 0 747 490 
Q 353 981 353 1791 
Q 353 2603 747 3093 
Q 1141 3584 1784 3584 
Q 2172 3584 2450 3431 
Q 2728 3278 2906 2969 
L 2906 3500 
L 3481 3500 
L 3481 434 
z
" transform="scale(0.015625)"/>
      <path id="DejaVuSans-6c" d="M 603 4863 
L 1178 4863 
L 1178 0 
L 603 0 
L 603 4863 
z
" transform="scale(0.015625)"/>
      <path id="DejaVuSans-65" d="M 3597 1894 
L 3597 1613 
L 953 1613 
Q 991 1019 1311 708 
Q 1631 397 2203 397 
Q 2534 397 2845 478 
Q 3156 559 3463 722 
L 3463 178 
Q 3153 47 2828 -22 
Q 2503 -91 2169 -91 
Q 1331 -91 842 396 
Q 353 884 353 1716 
Q 353 2575 817 3079 
Q 1281 3584 2069 3584 
Q 2775 3584 3186 3129 
Q 3597 2675 3597 1894 
z
M 3022 2063 
Q 3016 2534 2758 2815 
Q 2500 3097 2075 3097 
Q 1594 3097 1305 2825 
Q 1016 2553 972 2059 
L 3022 2063 
z
" transform="scale(0.015625)"/>
      <path id="DejaVuSans-20" transform="scale(0.015625)"/>
      <path id="DejaVuSans-44" d="M 1259 4147 
L 1259 519 
L 2022 519 
Q 2988 519 3436 956 
Q 3884 1394 3884 2338 
Q 3884 3275 3436 3711 
Q 2988 4147 2022 4147 
L 1259 4147 
z
M 628 4666 
L 1925 4666 
Q 3281 4666 3915 4102 
Q 4550 3538 4550 2338 
Q 4550 1131 3912 565 
Q 3275 0 1925 0 
L 628 0 
L 628 4666 
z
" transform="scale(0.015625)"/>
      <path id="DejaVuSans-72" d="M 2631 2963 
Q 2534 3019 2420 3045 
Q 2306 3072 2169 3072 
Q 1681 3072 1420 2755 
Q 1159 2438 1159 1844 
L 1159 0 
L 581 0 
L 581 3500 
L 1159 3500 
L 1159 2956 
Q 1341 3275 1631 3429 
Q 1922 3584 2338 3584 
Q 2397 3584 2469 3576 
Q 2541 3569 2628 3553 
L 2631 2963 
z
" transform="scale(0.015625)"/>
      <path id="DejaVuSans-61" d="M 2194 1759 
Q 1497 1759 1228 1600 
Q 959 1441 959 1056 
Q 959 750 1161 570 
Q 1363 391 1709 391 
Q 2188 391 2477 730 
Q 2766 1069 2766 1631 
L 2766 1759 
L 2194 1759 
z
M 3341 1997 
L 3341 0 
L 2766 0 
L 2766 531 
Q 2569 213 2275 61 
Q 1981 -91 1556 -91 
Q 1019 -91 701 211 
Q 384 513 384 1019 
Q 384 1609 779 1909 
Q 1175 2209 1959 2209 
L 2766 2209 
L 2766 2266 
Q 2766 2663 2505 2880 
Q 2244 3097 1772 3097 
Q 1472 3097 1187 3025 
Q 903 2953 641 2809 
L 641 3341 
Q 956 3463 1253 3523 
Q 1550 3584 1831 3584 
Q 2591 3584 2966 3190 
Q 3341 2797 3341 1997 
z
" transform="scale(0.015625)"/>
      <path id="DejaVuSans-77" d="M 269 3500 
L 844 3500 
L 1563 769 
L 2278 3500 
L 2956 3500 
L 3675 769 
L 4391 3500 
L 4966 3500 
L 4050 0 
L 3372 0 
L 2619 2869 
L 1863 0 
L 1184 0 
L 269 3500 
z
" transform="scale(0.015625)"/>
      <path id="DejaVuSans-76" d="M 191 3500 
L 800 3500 
L 1894 563 
L 2988 3500 
L 3597 3500 
L 2284 0 
L 1503 0 
L 191 3500 
z
" transform="scale(0.015625)"/>
      <path id="DejaVuSans-74" d="M 1172 4494 
L 1172 3500 
L 2356 3500 
L 2356 3053 
L 1172 3053 
L 1172 1153 
Q 1172 725 1289 603 
Q 1406 481 1766 481 
L 2356 481 
L 2356 0 
L 1766 0 
Q 1100 0 847 248 
Q 594 497 594 1153 
L 594 3053 
L 172 3053 
L 172 3500 
L 594 3500 
L 594 4494 
L 1172 4494 
z
" transform="scale(0.015625)"/>
      <path id="DejaVuSans-6f" d="M 1959 3097 
Q 1497 3097 1228 2736 
Q 959 2375 959 1747 
Q 959 1119 1226 758 
Q 1494 397 1959 397 
Q 2419 397 2687 759 
Q 2956 1122 2956 1747 
Q 2956 2369 2687 2733 
Q 2419 3097 1959 3097 
z
M 1959 3584 
Q 2709 3584 3137 3096 
Q 3566 2609 3566 1747 
Q 3566 888 3137 398 
Q 2709 -91 1959 -91 
Q 1206 -91 779 398 
Q 353 888 353 1747 
Q 353 2609 779 3096 
Q 1206 3584 1959 3584 
z
" transform="scale(0.015625)"/>
     </defs>
     <use xlink:href="#DejaVuSans-53"/>
     <use xlink:href="#DejaVuSans-69" x="63.476562"/>
     <use xlink:href="#DejaVuSans-6e" x="91.259766"/>
     <use xlink:href="#DejaVuSans-67" x="154.638672"/>
     <use xlink:href="#DejaVuSans-6c" x="218.115234"/>
     <use xlink:href="#DejaVuSans-65" x="245.898438"/>
     <use xlink:href="#DejaVuSans-20" x="307.421875"/>
     <use xlink:href="#DejaVuSans-44" x="339.208984"/>
     <use xlink:href="#DejaVuSans-72" x="416.210938"/>
     <use xlink:href="#DejaVuSans-61" x="457.324219"/>
     <use xlink:href="#DejaVuSans-77" x="518.603516"/>
     <use xlink:href="#DejaVuSans-20" x="600.390625"/>
     <use xlink:href="#DejaVuSans-44" x="632.177734"/>
     <use xlink:href="#DejaVuSans-65" x="709.179688"/>
     <use xlink:href="#DejaVuSans-76" x="770.703125"/>
     <use xlink:href="#DejaVuSans-69" x="829.882812"/>
     <use xlink:href="#DejaVuSans-61" x="857.666016"/>
     <use xlink:href="#DejaVuSans-74" x="918.945312"/>
     <use xlink:href="#DejaVuSans-69" x="958.154297"/>
     <use xlink:href="#DejaVuSans-6f" x="985.9375"/>
     <use xlink:href="#DejaVuSans-6e" x="1047.119141"/>
    </g>
   </g>
   <g id="legend_1">
    <g id="patch_7">
     <path d="M 104.532031 315.4 
L 264.467969 315.4 
Q 266.467969 315.4 266.467969 313.4 
L 266.467969 167.61875 
Q 266.467969 165.61875 264.467969 165.61875 
L 104.532031 165.61875 
Q 102.532031 165.61875 102.532031 167.61875 
L 102.532031 313.4 
Q 102.532031 315.4 104.532031 315.4 
z
" style="fill: #ffffff; opacity: 0.8; stroke: #cccccc; stroke-linejoin: miter"/>
    </g>
    <g id="line2d_22">
     <path d="M 106.532031 173.717188 
L 116.532031 173.717188 
L 126.532031 173.717188 
" style="fill: none; stroke: #1f77b4; stroke-width: 1.5; stroke-linecap: square"/>
    </g>
    <g id="text_13">
     <!-- Deviation from average 0 -->
     <g transform="translate(134.532031 177.217188)scale(0.1 -0.1)">
      <defs>
       <path id="DejaVuSans-66" d="M 2375 4863 
L 2375 4384 
L 1825 4384 
Q 1516 4384 1395 4259 
Q 1275 4134 1275 3809 
L 1275 3500 
L 2222 3500 
L 2222 3053 
L 1275 3053 
L 1275 0 
L 697 0 
L 697 3053 
L 147 3053 
L 147 3500 
L 697 3500 
L 697 3744 
Q 697 4328 969 4595 
Q 1241 4863 1831 4863 
L 2375 4863 
z
" transform="scale(0.015625)"/>
       <path id="DejaVuSans-6d" d="M 3328 2828 
Q 3544 3216 3844 3400 
Q 4144 3584 4550 3584 
Q 5097 3584 5394 3201 
Q 5691 2819 5691 2113 
L 5691 0 
L 5113 0 
L 5113 2094 
Q 5113 2597 4934 2840 
Q 4756 3084 4391 3084 
Q 3944 3084 3684 2787 
Q 3425 2491 3425 1978 
L 3425 0 
L 2847 0 
L 2847 2094 
Q 2847 2600 2669 2842 
Q 2491 3084 2119 3084 
Q 1678 3084 1418 2786 
Q 1159 2488 1159 1978 
L 1159 0 
L 581 0 
L 581 3500 
L 1159 3500 
L 1159 2956 
Q 1356 3278 1631 3431 
Q 1906 3584 2284 3584 
Q 2666 3584 2933 3390 
Q 3200 3197 3328 2828 
z
" transform="scale(0.015625)"/>
      </defs>
      <use xlink:href="#DejaVuSans-44"/>
      <use xlink:href="#DejaVuSans-65" x="77.001953"/>
      <use xlink:href="#DejaVuSans-76" x="138.525391"/>
      <use xlink:href="#DejaVuSans-69" x="197.705078"/>
      <use xlink:href="#DejaVuSans-61" x="225.488281"/>
      <use xlink:href="#DejaVuSans-74" x="286.767578"/>
      <use xlink:href="#DejaVuSans-69" x="325.976562"/>
      <use xlink:href="#DejaVuSans-6f" x="353.759766"/>
      <use xlink:href="#DejaVuSans-6e" x="414.941406"/>
      <use xlink:href="#DejaVuSans-20" x="478.320312"/>
      <use xlink:href="#DejaVuSans-66" x="510.107422"/>
      <use xlink:href="#DejaVuSans-72" x="545.3125"/>
      <use xlink:href="#DejaVuSans-6f" x="584.175781"/>
      <use xlink:href="#DejaVuSans-6d" x="645.357422"/>
      <use xlink:href="#DejaVuSans-20" x="742.769531"/>
      <use xlink:href="#DejaVuSans-61" x="774.556641"/>
      <use xlink:href="#DejaVuSans-76" x="835.835938"/>
      <use xlink:href="#DejaVuSans-65" x="895.015625"/>
      <use xlink:href="#DejaVuSans-72" x="956.539062"/>
      <use xlink:href="#DejaVuSans-61" x="997.652344"/>
      <use xlink:href="#DejaVuSans-67" x="1058.931641"/>
      <use xlink:href="#DejaVuSans-65" x="1122.408203"/>
      <use xlink:href="#DejaVuSans-20" x="1183.931641"/>
      <use xlink:href="#DejaVuSans-30" x="1215.71875"/>
     </g>
    </g>
    <g id="line2d_23">
     <path d="M 106.532031 188.395313 
L 116.532031 188.395313 
L 126.532031 188.395313 
" style="fill: none; stroke: #ff7f0e; stroke-width: 1.5; stroke-linecap: square"/>
    </g>
    <g id="text_14">
     <!-- Deviation from average 1 -->
     <g transform="translate(134.532031 191.895313)scale(0.1 -0.1)">
      <use xlink:href="#DejaVuSans-44"/>
      <use xlink:href="#DejaVuSans-65" x="77.001953"/>
      <use xlink:href="#DejaVuSans-76" x="138.525391"/>
      <use xlink:href="#DejaVuSans-69" x="197.705078"/>
      <use xlink:href="#DejaVuSans-61" x="225.488281"/>
      <use xlink:href="#DejaVuSans-74" x="286.767578"/>
      <use xlink:href="#DejaVuSans-69" x="325.976562"/>
      <use xlink:href="#DejaVuSans-6f" x="353.759766"/>
      <use xlink:href="#DejaVuSans-6e" x="414.941406"/>
      <use xlink:href="#DejaVuSans-20" x="478.320312"/>
      <use xlink:href="#DejaVuSans-66" x="510.107422"/>
      <use xlink:href="#DejaVuSans-72" x="545.3125"/>
      <use xlink:href="#DejaVuSans-6f" x="584.175781"/>
      <use xlink:href="#DejaVuSans-6d" x="645.357422"/>
      <use xlink:href="#DejaVuSans-20" x="742.769531"/>
      <use xlink:href="#DejaVuSans-61" x="774.556641"/>
      <use xlink:href="#DejaVuSans-76" x="835.835938"/>
      <use xlink:href="#DejaVuSans-65" x="895.015625"/>
      <use xlink:href="#DejaVuSans-72" x="956.539062"/>
      <use xlink:href="#DejaVuSans-61" x="997.652344"/>
      <use xlink:href="#DejaVuSans-67" x="1058.931641"/>
      <use xlink:href="#DejaVuSans-65" x="1122.408203"/>
      <use xlink:href="#DejaVuSans-20" x="1183.931641"/>
      <use xlink:href="#DejaVuSans-31" x="1215.71875"/>
     </g>
    </g>
    <g id="line2d_24">
     <path d="M 106.532031 203.073438 
L 116.532031 203.073438 
L 126.532031 203.073438 
" style="fill: none; stroke: #2ca02c; stroke-width: 1.5; stroke-linecap: square"/>
    </g>
    <g id="text_15">
     <!-- Deviation from average 2 -->
     <g transform="translate(134.532031 206.573438)scale(0.1 -0.1)">
      <use xlink:href="#DejaVuSans-44"/>
      <use xlink:href="#DejaVuSans-65" x="77.001953"/>
      <use xlink:href="#DejaVuSans-76" x="138.525391"/>
      <use xlink:href="#DejaVuSans-69" x="197.705078"/>
      <use xlink:href="#DejaVuSans-61" x="225.488281"/>
      <use xlink:href="#DejaVuSans-74" x="286.767578"/>
      <use xlink:href="#DejaVuSans-69" x="325.976562"/>
      <use xlink:href="#DejaVuSans-6f" x="353.759766"/>
      <use xlink:href="#DejaVuSans-6e" x="414.941406"/>
      <use xlink:href="#DejaVuSans-20" x="478.320312"/>
      <use xlink:href="#DejaVuSans-66" x="510.107422"/>
      <use xlink:href="#DejaVuSans-72" x="545.3125"/>
      <use xlink:href="#DejaVuSans-6f" x="584.175781"/>
      <use xlink:href="#DejaVuSans-6d" x="645.357422"/>
      <use xlink:href="#DejaVuSans-20" x="742.769531"/>
      <use xlink:href="#DejaVuSans-61" x="774.556641"/>
      <use xlink:href="#DejaVuSans-76" x="835.835938"/>
      <use xlink:href="#DejaVuSans-65" x="895.015625"/>
      <use xlink:href="#DejaVuSans-72" x="956.539062"/>
      <use xlink:href="#DejaVuSans-61" x="997.652344"/>
      <use xlink:href="#DejaVuSans-67" x="1058.931641"/>
      <use xlink:href="#DejaVuSans-65" x="1122.408203"/>
      <use xlink:href="#DejaVuSans-20" x="1183.931641"/>
      <use xlink:href="#DejaVuSans-32" x="1215.71875"/>
     </g>
    </g>
    <g id="line2d_25">
     <path d="M 106.532031 217.751563 
L 116.532031 217.751563 
L 126.532031 217.751563 
" style="fill: none; stroke: #d62728; stroke-width: 1.5; stroke-linecap: square"/>
    </g>
    <g id="text_16">
     <!-- Deviation from average 3 -->
     <g transform="translate(134.532031 221.251563)scale(0.1 -0.1)">
      <use xlink:href="#DejaVuSans-44"/>
      <use xlink:href="#DejaVuSans-65" x="77.001953"/>
      <use xlink:href="#DejaVuSans-76" x="138.525391"/>
      <use xlink:href="#DejaVuSans-69" x="197.705078"/>
      <use xlink:href="#DejaVuSans-61" x="225.488281"/>
      <use xlink:href="#DejaVuSans-74" x="286.767578"/>
      <use xlink:href="#DejaVuSans-69" x="325.976562"/>
      <use xlink:href="#DejaVuSans-6f" x="353.759766"/>
      <use xlink:href="#DejaVuSans-6e" x="414.941406"/>
      <use xlink:href="#DejaVuSans-20" x="478.320312"/>
      <use xlink:href="#DejaVuSans-66" x="510.107422"/>
      <use xlink:href="#DejaVuSans-72" x="545.3125"/>
      <use xlink:href="#DejaVuSans-6f" x="584.175781"/>
      <use xlink:href="#DejaVuSans-6d" x="645.357422"/>
      <use xlink:href="#DejaVuSans-20" x="742.769531"/>
      <use xlink:href="#DejaVuSans-61" x="774.556641"/>
      <use xlink:href="#DejaVuSans-76" x="835.835938"/>
      <use xlink:href="#DejaVuSans-65" x="895.015625"/>
      <use xlink:href="#DejaVuSans-72" x="956.539062"/>
      <use xlink:href="#DejaVuSans-61" x="997.652344"/>
      <use xlink:href="#DejaVuSans-67" x="1058.931641"/>
      <use xlink:href="#DejaVuSans-65" x="1122.408203"/>
      <use xlink:href="#DejaVuSans-20" x="1183.931641"/>
      <use xlink:href="#DejaVuSans-33" x="1215.71875"/>
     </g>
    </g>
    <g id="line2d_26">
     <path d="M 106.532031 232.429688 
L 116.532031 232.429688 
L 126.532031 232.429688 
" style="fill: none; stroke: #9467bd; stroke-width: 1.5; stroke-linecap: square"/>
    </g>
    <g id="text_17">
     <!-- Deviation from average 4 -->
     <g transform="translate(134.532031 235.929688)scale(0.1 -0.1)">
      <defs>
       <path id="DejaVuSans-34" d="M 2419 4116 
L 825 1625 
L 2419 1625 
L 2419 4116 
z
M 2253 4666 
L 3047 4666 
L 3047 1625 
L 3713 1625 
L 3713 1100 
L 3047 1100 
L 3047 0 
L 2419 0 
L 2419 1100 
L 313 1100 
L 313 1709 
L 2253 4666 
z
" transform="scale(0.015625)"/>
      </defs>
      <use xlink:href="#DejaVuSans-44"/>
      <use xlink:href="#DejaVuSans-65" x="77.001953"/>
      <use xlink:href="#DejaVuSans-76" x="138.525391"/>
      <use xlink:href="#DejaVuSans-69" x="197.705078"/>
      <use xlink:href="#DejaVuSans-61" x="225.488281"/>
      <use xlink:href="#DejaVuSans-74" x="286.767578"/>
      <use xlink:href="#DejaVuSans-69" x="325.976562"/>
      <use xlink:href="#DejaVuSans-6f" x="353.759766"/>
      <use xlink:href="#DejaVuSans-6e" x="414.941406"/>
      <use xlink:href="#DejaVuSans-20" x="478.320312"/>
      <use xlink:href="#DejaVuSans-66" x="510.107422"/>
      <use xlink:href="#DejaVuSans-72" x="545.3125"/>
      <use xlink:href="#DejaVuSans-6f" x="584.175781"/>
      <use xlink:href="#DejaVuSans-6d" x="645.357422"/>
      <use xlink:href="#DejaVuSans-20" x="742.769531"/>
      <use xlink:href="#DejaVuSans-61" x="774.556641"/>
      <use xlink:href="#DejaVuSans-76" x="835.835938"/>
      <use xlink:href="#DejaVuSans-65" x="895.015625"/>
      <use xlink:href="#DejaVuSans-72" x="956.539062"/>
      <use xlink:href="#DejaVuSans-61" x="997.652344"/>
      <use xlink:href="#DejaVuSans-67" x="1058.931641"/>
      <use xlink:href="#DejaVuSans-65" x="1122.408203"/>
      <use xlink:href="#DejaVuSans-20" x="1183.931641"/>
      <use xlink:href="#DejaVuSans-34" x="1215.71875"/>
     </g>
    </g>
    <g id="line2d_27">
     <path d="M 106.532031 247.107813 
L 116.532031 247.107813 
L 126.532031 247.107813 
" style="fill: none; stroke: #8c564b; stroke-width: 1.5; stroke-linecap: square"/>
    </g>
    <g id="text_18">
     <!-- Deviation from average 5 -->
     <g transform="translate(134.532031 250.607813)scale(0.1 -0.1)">
      <defs>
       <path id="DejaVuSans-35" d="M 691 4666 
L 3169 4666 
L 3169 4134 
L 1269 4134 
L 1269 2991 
Q 1406 3038 1543 3061 
Q 1681 3084 1819 3084 
Q 2600 3084 3056 2656 
Q 3513 2228 3513 1497 
Q 3513 744 3044 326 
Q 2575 -91 1722 -91 
Q 1428 -91 1123 -41 
Q 819 9 494 109 
L 494 744 
Q 775 591 1075 516 
Q 1375 441 1709 441 
Q 2250 441 2565 725 
Q 2881 1009 2881 1497 
Q 2881 1984 2565 2268 
Q 2250 2553 1709 2553 
Q 1456 2553 1204 2497 
Q 953 2441 691 2322 
L 691 4666 
z
" transform="scale(0.015625)"/>
      </defs>
      <use xlink:href="#DejaVuSans-44"/>
      <use xlink:href="#DejaVuSans-65" x="77.001953"/>
      <use xlink:href="#DejaVuSans-76" x="138.525391"/>
      <use xlink:href="#DejaVuSans-69" x="197.705078"/>
      <use xlink:href="#DejaVuSans-61" x="225.488281"/>
      <use xlink:href="#DejaVuSans-74" x="286.767578"/>
      <use xlink:href="#DejaVuSans-69" x="325.976562"/>
      <use xlink:href="#DejaVuSans-6f" x="353.759766"/>
      <use xlink:href="#DejaVuSans-6e" x="414.941406"/>
      <use xlink:href="#DejaVuSans-20" x="478.320312"/>
      <use xlink:href="#DejaVuSans-66" x="510.107422"/>
      <use xlink:href="#DejaVuSans-72" x="545.3125"/>
      <use xlink:href="#DejaVuSans-6f" x="584.175781"/>
      <use xlink:href="#DejaVuSans-6d" x="645.357422"/>
      <use xlink:href="#DejaVuSans-20" x="742.769531"/>
      <use xlink:href="#DejaVuSans-61" x="774.556641"/>
      <use xlink:href="#DejaVuSans-76" x="835.835938"/>
      <use xlink:href="#DejaVuSans-65" x="895.015625"/>
      <use xlink:href="#DejaVuSans-72" x="956.539062"/>
      <use xlink:href="#DejaVuSans-61" x="997.652344"/>
      <use xlink:href="#DejaVuSans-67" x="1058.931641"/>
      <use xlink:href="#DejaVuSans-65" x="1122.408203"/>
      <use xlink:href="#DejaVuSans-20" x="1183.931641"/>
      <use xlink:href="#DejaVuSans-35" x="1215.71875"/>
     </g>
    </g>
    <g id="line2d_28">
     <path d="M 106.532031 261.785938 
L 116.532031 261.785938 
L 126.532031 261.785938 
" style="fill: none; stroke: #e377c2; stroke-width: 1.5; stroke-linecap: square"/>
    </g>
    <g id="text_19">
     <!-- Deviation from average 6 -->
     <g transform="translate(134.532031 265.285938)scale(0.1 -0.1)">
      <defs>
       <path id="DejaVuSans-36" d="M 2113 2584 
Q 1688 2584 1439 2293 
Q 1191 2003 1191 1497 
Q 1191 994 1439 701 
Q 1688 409 2113 409 
Q 2538 409 2786 701 
Q 3034 994 3034 1497 
Q 3034 2003 2786 2293 
Q 2538 2584 2113 2584 
z
M 3366 4563 
L 3366 3988 
Q 3128 4100 2886 4159 
Q 2644 4219 2406 4219 
Q 1781 4219 1451 3797 
Q 1122 3375 1075 2522 
Q 1259 2794 1537 2939 
Q 1816 3084 2150 3084 
Q 2853 3084 3261 2657 
Q 3669 2231 3669 1497 
Q 3669 778 3244 343 
Q 2819 -91 2113 -91 
Q 1303 -91 875 529 
Q 447 1150 447 2328 
Q 447 3434 972 4092 
Q 1497 4750 2381 4750 
Q 2619 4750 2861 4703 
Q 3103 4656 3366 4563 
z
" transform="scale(0.015625)"/>
      </defs>
      <use xlink:href="#DejaVuSans-44"/>
      <use xlink:href="#DejaVuSans-65" x="77.001953"/>
      <use xlink:href="#DejaVuSans-76" x="138.525391"/>
      <use xlink:href="#DejaVuSans-69" x="197.705078"/>
      <use xlink:href="#DejaVuSans-61" x="225.488281"/>
      <use xlink:href="#DejaVuSans-74" x="286.767578"/>
      <use xlink:href="#DejaVuSans-69" x="325.976562"/>
      <use xlink:href="#DejaVuSans-6f" x="353.759766"/>
      <use xlink:href="#DejaVuSans-6e" x="414.941406"/>
      <use xlink:href="#DejaVuSans-20" x="478.320312"/>
      <use xlink:href="#DejaVuSans-66" x="510.107422"/>
      <use xlink:href="#DejaVuSans-72" x="545.3125"/>
      <use xlink:href="#DejaVuSans-6f" x="584.175781"/>
      <use xlink:href="#DejaVuSans-6d" x="645.357422"/>
      <use xlink:href="#DejaVuSans-20" x="742.769531"/>
      <use xlink:href="#DejaVuSans-61" x="774.556641"/>
      <use xlink:href="#DejaVuSans-76" x="835.835938"/>
      <use xlink:href="#DejaVuSans-65" x="895.015625"/>
      <use xlink:href="#DejaVuSans-72" x="956.539062"/>
      <use xlink:href="#DejaVuSans-61" x="997.652344"/>
      <use xlink:href="#DejaVuSans-67" x="1058.931641"/>
      <use xlink:href="#DejaVuSans-65" x="1122.408203"/>
      <use xlink:href="#DejaVuSans-20" x="1183.931641"/>
      <use xlink:href="#DejaVuSans-36" x="1215.71875"/>
     </g>
    </g>
    <g id="line2d_29">
     <path d="M 106.532031 276.464063 
L 116.532031 276.464063 
L 126.532031 276.464063 
" style="fill: none; stroke: #7f7f7f; stroke-width: 1.5; stroke-linecap: square"/>
    </g>
    <g id="text_20">
     <!-- Deviation from average 7 -->
     <g transform="translate(134.532031 279.964063)scale(0.1 -0.1)">
      <defs>
       <path id="DejaVuSans-37" d="M 525 4666 
L 3525 4666 
L 3525 4397 
L 1831 0 
L 1172 0 
L 2766 4134 
L 525 4134 
L 525 4666 
z
" transform="scale(0.015625)"/>
      </defs>
      <use xlink:href="#DejaVuSans-44"/>
      <use xlink:href="#DejaVuSans-65" x="77.001953"/>
      <use xlink:href="#DejaVuSans-76" x="138.525391"/>
      <use xlink:href="#DejaVuSans-69" x="197.705078"/>
      <use xlink:href="#DejaVuSans-61" x="225.488281"/>
      <use xlink:href="#DejaVuSans-74" x="286.767578"/>
      <use xlink:href="#DejaVuSans-69" x="325.976562"/>
      <use xlink:href="#DejaVuSans-6f" x="353.759766"/>
      <use xlink:href="#DejaVuSans-6e" x="414.941406"/>
      <use xlink:href="#DejaVuSans-20" x="478.320312"/>
      <use xlink:href="#DejaVuSans-66" x="510.107422"/>
      <use xlink:href="#DejaVuSans-72" x="545.3125"/>
      <use xlink:href="#DejaVuSans-6f" x="584.175781"/>
      <use xlink:href="#DejaVuSans-6d" x="645.357422"/>
      <use xlink:href="#DejaVuSans-20" x="742.769531"/>
      <use xlink:href="#DejaVuSans-61" x="774.556641"/>
      <use xlink:href="#DejaVuSans-76" x="835.835938"/>
      <use xlink:href="#DejaVuSans-65" x="895.015625"/>
      <use xlink:href="#DejaVuSans-72" x="956.539062"/>
      <use xlink:href="#DejaVuSans-61" x="997.652344"/>
      <use xlink:href="#DejaVuSans-67" x="1058.931641"/>
      <use xlink:href="#DejaVuSans-65" x="1122.408203"/>
      <use xlink:href="#DejaVuSans-20" x="1183.931641"/>
      <use xlink:href="#DejaVuSans-37" x="1215.71875"/>
     </g>
    </g>
    <g id="line2d_30">
     <path d="M 106.532031 291.142188 
L 116.532031 291.142188 
L 126.532031 291.142188 
" style="fill: none; stroke: #bcbd22; stroke-width: 1.5; stroke-linecap: square"/>
    </g>
    <g id="text_21">
     <!-- Deviation from average 8 -->
     <g transform="translate(134.532031 294.642188)scale(0.1 -0.1)">
      <defs>
       <path id="DejaVuSans-38" d="M 2034 2216 
Q 1584 2216 1326 1975 
Q 1069 1734 1069 1313 
Q 1069 891 1326 650 
Q 1584 409 2034 409 
Q 2484 409 2743 651 
Q 3003 894 3003 1313 
Q 3003 1734 2745 1975 
Q 2488 2216 2034 2216 
z
M 1403 2484 
Q 997 2584 770 2862 
Q 544 3141 544 3541 
Q 544 4100 942 4425 
Q 1341 4750 2034 4750 
Q 2731 4750 3128 4425 
Q 3525 4100 3525 3541 
Q 3525 3141 3298 2862 
Q 3072 2584 2669 2484 
Q 3125 2378 3379 2068 
Q 3634 1759 3634 1313 
Q 3634 634 3220 271 
Q 2806 -91 2034 -91 
Q 1263 -91 848 271 
Q 434 634 434 1313 
Q 434 1759 690 2068 
Q 947 2378 1403 2484 
z
M 1172 3481 
Q 1172 3119 1398 2916 
Q 1625 2713 2034 2713 
Q 2441 2713 2670 2916 
Q 2900 3119 2900 3481 
Q 2900 3844 2670 4047 
Q 2441 4250 2034 4250 
Q 1625 4250 1398 4047 
Q 1172 3844 1172 3481 
z
" transform="scale(0.015625)"/>
      </defs>
      <use xlink:href="#DejaVuSans-44"/>
      <use xlink:href="#DejaVuSans-65" x="77.001953"/>
      <use xlink:href="#DejaVuSans-76" x="138.525391"/>
      <use xlink:href="#DejaVuSans-69" x="197.705078"/>
      <use xlink:href="#DejaVuSans-61" x="225.488281"/>
      <use xlink:href="#DejaVuSans-74" x="286.767578"/>
      <use xlink:href="#DejaVuSans-69" x="325.976562"/>
      <use xlink:href="#DejaVuSans-6f" x="353.759766"/>
      <use xlink:href="#DejaVuSans-6e" x="414.941406"/>
      <use xlink:href="#DejaVuSans-20" x="478.320312"/>
      <use xlink:href="#DejaVuSans-66" x="510.107422"/>
      <use xlink:href="#DejaVuSans-72" x="545.3125"/>
      <use xlink:href="#DejaVuSans-6f" x="584.175781"/>
      <use xlink:href="#DejaVuSans-6d" x="645.357422"/>
      <use xlink:href="#DejaVuSans-20" x="742.769531"/>
      <use xlink:href="#DejaVuSans-61" x="774.556641"/>
      <use xlink:href="#DejaVuSans-76" x="835.835938"/>
      <use xlink:href="#DejaVuSans-65" x="895.015625"/>
      <use xlink:href="#DejaVuSans-72" x="956.539062"/>
      <use xlink:href="#DejaVuSans-61" x="997.652344"/>
      <use xlink:href="#DejaVuSans-67" x="1058.931641"/>
      <use xlink:href="#DejaVuSans-65" x="1122.408203"/>
      <use xlink:href="#DejaVuSans-20" x="1183.931641"/>
      <use xlink:href="#DejaVuSans-38" x="1215.71875"/>
     </g>
    </g>
    <g id="line2d_31">
     <path d="M 106.532031 305.820312 
L 116.532031 305.820312 
L 126.532031 305.820312 
" style="fill: none; stroke: #17becf; stroke-width: 1.5; stroke-linecap: square"/>
    </g>
    <g id="text_22">
     <!-- Deviation from average 9 -->
     <g transform="translate(134.532031 309.320312)scale(0.1 -0.1)">
      <defs>
       <path id="DejaVuSans-39" d="M 703 97 
L 703 672 
Q 941 559 1184 500 
Q 1428 441 1663 441 
Q 2288 441 2617 861 
Q 2947 1281 2994 2138 
Q 2813 1869 2534 1725 
Q 2256 1581 1919 1581 
Q 1219 1581 811 2004 
Q 403 2428 403 3163 
Q 403 3881 828 4315 
Q 1253 4750 1959 4750 
Q 2769 4750 3195 4129 
Q 3622 3509 3622 2328 
Q 3622 1225 3098 567 
Q 2575 -91 1691 -91 
Q 1453 -91 1209 -44 
Q 966 3 703 97 
z
M 1959 2075 
Q 2384 2075 2632 2365 
Q 2881 2656 2881 3163 
Q 2881 3666 2632 3958 
Q 2384 4250 1959 4250 
Q 1534 4250 1286 3958 
Q 1038 3666 1038 3163 
Q 1038 2656 1286 2365 
Q 1534 2075 1959 2075 
z
" transform="scale(0.015625)"/>
      </defs>
      <use xlink:href="#DejaVuSans-44"/>
      <use xlink:href="#DejaVuSans-65" x="77.001953"/>
      <use xlink:href="#DejaVuSans-76" x="138.525391"/>
      <use xlink:href="#DejaVuSans-69" x="197.705078"/>
      <use xlink:href="#DejaVuSans-61" x="225.488281"/>
      <use xlink:href="#DejaVuSans-74" x="286.767578"/>
      <use xlink:href="#DejaVuSans-69" x="325.976562"/>
      <use xlink:href="#DejaVuSans-6f" x="353.759766"/>
      <use xlink:href="#DejaVuSans-6e" x="414.941406"/>
      <use xlink:href="#DejaVuSans-20" x="478.320312"/>
      <use xlink:href="#DejaVuSans-66" x="510.107422"/>
      <use xlink:href="#DejaVuSans-72" x="545.3125"/>
      <use xlink:href="#DejaVuSans-6f" x="584.175781"/>
      <use xlink:href="#DejaVuSans-6d" x="645.357422"/>
      <use xlink:href="#DejaVuSans-20" x="742.769531"/>
      <use xlink:href="#DejaVuSans-61" x="774.556641"/>
      <use xlink:href="#DejaVuSans-76" x="835.835938"/>
      <use xlink:href="#DejaVuSans-65" x="895.015625"/>
      <use xlink:href="#DejaVuSans-72" x="956.539062"/>
      <use xlink:href="#DejaVuSans-61" x="997.652344"/>
      <use xlink:href="#DejaVuSans-67" x="1058.931641"/>
      <use xlink:href="#DejaVuSans-65" x="1122.408203"/>
      <use xlink:href="#DejaVuSans-20" x="1183.931641"/>
      <use xlink:href="#DejaVuSans-39" x="1215.71875"/>
     </g>
    </g>
   </g>
  </g>
 </g>
 <defs>
  <clipPath id="pecfd0134bd">
   <rect x="45" y="43.2" width="279" height="277.2"/>
  </clipPath>
 </defs>
</svg>
