<?xml version="1.0" encoding="utf-8" standalone="no"?>
<!DOCTYPE svg PUBLIC "-//W3C//DTD SVG 1.1//EN"
  "http://www.w3.org/Graphics/SVG/1.1/DTD/svg11.dtd">
<svg xmlns:xlink="http://www.w3.org/1999/xlink" width="360pt" height="360pt" viewBox="0 0 360 360" xmlns="http://www.w3.org/2000/svg" version="1.1">
 <metadata>
  <rdf:RDF xmlns:dc="http://purl.org/dc/elements/1.1/" xmlns:cc="http://creativecommons.org/ns#" xmlns:rdf="http://www.w3.org/1999/02/22-rdf-syntax-ns#">
   <cc:Work>
    <dc:type rdf:resource="http://purl.org/dc/dcmitype/StillImage"/>
    <dc:date>2022-11-10T20:19:46.022084</dc:date>
    <dc:format>image/svg+xml</dc:format>
    <dc:creator>
     <cc:Agent>
      <dc:title>Matplotlib v3.5.3, https://matplotlib.org/</dc:title>
     </cc:Agent>
    </dc:creator>
   </cc:Work>
  </rdf:RDF>
 </metadata>
 <defs>
  <style type="text/css">*{stroke-linejoin: round; stroke-linecap: butt}</style>
 </defs>
 <g id="figure_1">
  <g id="patch_1">
   <path d="M 0 360 
L 360 360 
L 360 0 
L 0 0 
z
" style="fill: #ffffff"/>
  </g>
  <g id="axes_1">
   <g id="patch_2">
    <path d="M 45 320.4 
L 324 320.4 
L 324 43.2 
L 45 43.2 
z
" style="fill: #ffffff"/>
   </g>
   <g id="matplotlib.axis_1">
    <g id="xtick_1">
     <g id="line2d_1">
      <defs>
       <path id="m4ff22bb6f4" d="M 0 0 
L 0 3.5 
" style="stroke: #000000; stroke-width: 0.8"/>
      </defs>
      <g>
       <use xlink:href="#m4ff22bb6f4" x="83.045455" y="320.4" style="stroke: #000000; stroke-width: 0.8"/>
      </g>
     </g>
     <g id="text_1">
      <!-- −2 -->
      <g transform="translate(75.674361 334.998438)scale(0.1 -0.1)">
       <defs>
        <path id="DejaVuSans-2212" d="M 678 2272 
L 4684 2272 
L 4684 1741 
L 678 1741 
L 678 2272 
z
" transform="scale(0.015625)"/>
        <path id="DejaVuSans-32" d="M 1228 531 
L 3431 531 
L 3431 0 
L 469 0 
L 469 531 
Q 828 903 1448 1529 
Q 2069 2156 2228 2338 
Q 2531 2678 2651 2914 
Q 2772 3150 2772 3378 
Q 2772 3750 2511 3984 
Q 2250 4219 1831 4219 
Q 1534 4219 1204 4116 
Q 875 4013 500 3803 
L 500 4441 
Q 881 4594 1212 4672 
Q 1544 4750 1819 4750 
Q 2544 4750 2975 4387 
Q 3406 4025 3406 3419 
Q 3406 3131 3298 2873 
Q 3191 2616 2906 2266 
Q 2828 2175 2409 1742 
Q 1991 1309 1228 531 
z
" transform="scale(0.015625)"/>
       </defs>
       <use xlink:href="#DejaVuSans-2212"/>
       <use xlink:href="#DejaVuSans-32" x="83.789062"/>
      </g>
     </g>
    </g>
    <g id="xtick_2">
     <g id="line2d_2">
      <g>
       <use xlink:href="#m4ff22bb6f4" x="133.772727" y="320.4" style="stroke: #000000; stroke-width: 0.8"/>
      </g>
     </g>
     <g id="text_2">
      <!-- −1 -->
      <g transform="translate(126.401634 334.998438)scale(0.1 -0.1)">
       <defs>
        <path id="DejaVuSans-31" d="M 794 531 
L 1825 531 
L 1825 4091 
L 703 3866 
L 703 4441 
L 1819 4666 
L 2450 4666 
L 2450 531 
L 3481 531 
L 3481 0 
L 794 0 
L 794 531 
z
" transform="scale(0.015625)"/>
       </defs>
       <use xlink:href="#DejaVuSans-2212"/>
       <use xlink:href="#DejaVuSans-31" x="83.789062"/>
      </g>
     </g>
    </g>
    <g id="xtick_3">
     <g id="line2d_3">
      <g>
       <use xlink:href="#m4ff22bb6f4" x="184.5" y="320.4" style="stroke: #000000; stroke-width: 0.8"/>
      </g>
     </g>
     <g id="text_3">
      <!-- 0 -->
      <g transform="translate(181.31875 334.998438)scale(0.1 -0.1)">
       <defs>
        <path id="DejaVuSans-30" d="M 2034 4250 
Q 1547 4250 1301 3770 
Q 1056 3291 1056 2328 
Q 1056 1369 1301 889 
Q 1547 409 2034 409 
Q 2525 409 2770 889 
Q 3016 1369 3016 2328 
Q 3016 3291 2770 3770 
Q 2525 4250 2034 4250 
z
M 2034 4750 
Q 2819 4750 3233 4129 
Q 3647 3509 3647 2328 
Q 3647 1150 3233 529 
Q 2819 -91 2034 -91 
Q 1250 -91 836 529 
Q 422 1150 422 2328 
Q 422 3509 836 4129 
Q 1250 4750 2034 4750 
z
" transform="scale(0.015625)"/>
       </defs>
       <use xlink:href="#DejaVuSans-30"/>
      </g>
     </g>
    </g>
    <g id="xtick_4">
     <g id="line2d_4">
      <g>
       <use xlink:href="#m4ff22bb6f4" x="235.227273" y="320.4" style="stroke: #000000; stroke-width: 0.8"/>
      </g>
     </g>
     <g id="text_4">
      <!-- 1 -->
      <g transform="translate(232.046023 334.998438)scale(0.1 -0.1)">
       <use xlink:href="#DejaVuSans-31"/>
      </g>
     </g>
    </g>
    <g id="xtick_5">
     <g id="line2d_5">
      <g>
       <use xlink:href="#m4ff22bb6f4" x="285.954545" y="320.4" style="stroke: #000000; stroke-width: 0.8"/>
      </g>
     </g>
     <g id="text_5">
      <!-- 2 -->
      <g transform="translate(282.773295 334.998438)scale(0.1 -0.1)">
       <use xlink:href="#DejaVuSans-32"/>
      </g>
     </g>
    </g>
   </g>
   <g id="matplotlib.axis_2">
    <g id="ytick_1">
     <g id="line2d_6">
      <defs>
       <path id="mf439231fba" d="M 0 0 
L -3.5 0 
" style="stroke: #000000; stroke-width: 0.8"/>
      </defs>
      <g>
       <use xlink:href="#mf439231fba" x="45" y="295.025599" style="stroke: #000000; stroke-width: 0.8"/>
      </g>
     </g>
     <g id="text_6">
      <!-- $\mathdefault{10^{-4}}$ -->
      <g transform="translate(14.5 298.824818)scale(0.1 -0.1)">
       <defs>
        <path id="DejaVuSans-34" d="M 2419 4116 
L 825 1625 
L 2419 1625 
L 2419 4116 
z
M 2253 4666 
L 3047 4666 
L 3047 1625 
L 3713 1625 
L 3713 1100 
L 3047 1100 
L 3047 0 
L 2419 0 
L 2419 1100 
L 313 1100 
L 313 1709 
L 2253 4666 
z
" transform="scale(0.015625)"/>
       </defs>
       <use xlink:href="#DejaVuSans-31" transform="translate(0 0.684375)"/>
       <use xlink:href="#DejaVuSans-30" transform="translate(63.623047 0.684375)"/>
       <use xlink:href="#DejaVuSans-2212" transform="translate(128.203125 38.965625)scale(0.7)"/>
       <use xlink:href="#DejaVuSans-34" transform="translate(186.855469 38.965625)scale(0.7)"/>
      </g>
     </g>
    </g>
    <g id="ytick_2">
     <g id="line2d_7">
      <g>
       <use xlink:href="#mf439231fba" x="45" y="250.577849" style="stroke: #000000; stroke-width: 0.8"/>
      </g>
     </g>
     <g id="text_7">
      <!-- $\mathdefault{10^{-3}}$ -->
      <g transform="translate(14.5 254.377068)scale(0.1 -0.1)">
       <defs>
        <path id="DejaVuSans-33" d="M 2597 2516 
Q 3050 2419 3304 2112 
Q 3559 1806 3559 1356 
Q 3559 666 3084 287 
Q 2609 -91 1734 -91 
Q 1441 -91 1130 -33 
Q 819 25 488 141 
L 488 750 
Q 750 597 1062 519 
Q 1375 441 1716 441 
Q 2309 441 2620 675 
Q 2931 909 2931 1356 
Q 2931 1769 2642 2001 
Q 2353 2234 1838 2234 
L 1294 2234 
L 1294 2753 
L 1863 2753 
Q 2328 2753 2575 2939 
Q 2822 3125 2822 3475 
Q 2822 3834 2567 4026 
Q 2313 4219 1838 4219 
Q 1578 4219 1281 4162 
Q 984 4106 628 3988 
L 628 4550 
Q 988 4650 1302 4700 
Q 1616 4750 1894 4750 
Q 2613 4750 3031 4423 
Q 3450 4097 3450 3541 
Q 3450 3153 3228 2886 
Q 3006 2619 2597 2516 
z
" transform="scale(0.015625)"/>
       </defs>
       <use xlink:href="#DejaVuSans-31" transform="translate(0 0.765625)"/>
       <use xlink:href="#DejaVuSans-30" transform="translate(63.623047 0.765625)"/>
       <use xlink:href="#DejaVuSans-2212" transform="translate(128.203125 39.046875)scale(0.7)"/>
       <use xlink:href="#DejaVuSans-33" transform="translate(186.855469 39.046875)scale(0.7)"/>
      </g>
     </g>
    </g>
    <g id="ytick_3">
     <g id="line2d_8">
      <g>
       <use xlink:href="#mf439231fba" x="45" y="206.130099" style="stroke: #000000; stroke-width: 0.8"/>
      </g>
     </g>
     <g id="text_8">
      <!-- $\mathdefault{10^{-2}}$ -->
      <g transform="translate(14.5 209.929318)scale(0.1 -0.1)">
       <use xlink:href="#DejaVuSans-31" transform="translate(0 0.765625)"/>
       <use xlink:href="#DejaVuSans-30" transform="translate(63.623047 0.765625)"/>
       <use xlink:href="#DejaVuSans-2212" transform="translate(128.203125 39.046875)scale(0.7)"/>
       <use xlink:href="#DejaVuSans-32" transform="translate(186.855469 39.046875)scale(0.7)"/>
      </g>
     </g>
    </g>
    <g id="ytick_4">
     <g id="line2d_9">
      <g>
       <use xlink:href="#mf439231fba" x="45" y="161.68235" style="stroke: #000000; stroke-width: 0.8"/>
      </g>
     </g>
     <g id="text_9">
      <!-- $\mathdefault{10^{-1}}$ -->
      <g transform="translate(14.5 165.481568)scale(0.1 -0.1)">
       <use xlink:href="#DejaVuSans-31" transform="translate(0 0.684375)"/>
       <use xlink:href="#DejaVuSans-30" transform="translate(63.623047 0.684375)"/>
       <use xlink:href="#DejaVuSans-2212" transform="translate(128.203125 38.965625)scale(0.7)"/>
       <use xlink:href="#DejaVuSans-31" transform="translate(186.855469 38.965625)scale(0.7)"/>
      </g>
     </g>
    </g>
    <g id="ytick_5">
     <g id="line2d_10">
      <g>
       <use xlink:href="#mf439231fba" x="45" y="117.2346" style="stroke: #000000; stroke-width: 0.8"/>
      </g>
     </g>
     <g id="text_10">
      <!-- $\mathdefault{10^{0}}$ -->
      <g transform="translate(20.4 121.033819)scale(0.1 -0.1)">
       <use xlink:href="#DejaVuSans-31" transform="translate(0 0.765625)"/>
       <use xlink:href="#DejaVuSans-30" transform="translate(63.623047 0.765625)"/>
       <use xlink:href="#DejaVuSans-30" transform="translate(128.203125 39.046875)scale(0.7)"/>
      </g>
     </g>
    </g>
    <g id="ytick_6">
     <g id="line2d_11">
      <g>
       <use xlink:href="#mf439231fba" x="45" y="72.78685" style="stroke: #000000; stroke-width: 0.8"/>
      </g>
     </g>
     <g id="text_11">
      <!-- $\mathdefault{10^{1}}$ -->
      <g transform="translate(20.4 76.586069)scale(0.1 -0.1)">
       <use xlink:href="#DejaVuSans-31" transform="translate(0 0.684375)"/>
       <use xlink:href="#DejaVuSans-30" transform="translate(63.623047 0.684375)"/>
       <use xlink:href="#DejaVuSans-31" transform="translate(128.203125 38.965625)scale(0.7)"/>
      </g>
     </g>
    </g>
    <g id="ytick_7">
     <g id="line2d_12">
      <defs>
       <path id="m7ff47e062f" d="M 0 0 
L -2 0 
" style="stroke: #000000; stroke-width: 0.6"/>
      </defs>
      <g>
       <use xlink:href="#m7ff47e062f" x="45" y="318.266383" style="stroke: #000000; stroke-width: 0.6"/>
      </g>
     </g>
    </g>
    <g id="ytick_8">
     <g id="line2d_13">
      <g>
       <use xlink:href="#m7ff47e062f" x="45" y="312.713137" style="stroke: #000000; stroke-width: 0.6"/>
      </g>
     </g>
    </g>
    <g id="ytick_9">
     <g id="line2d_14">
      <g>
       <use xlink:href="#m7ff47e062f" x="45" y="308.405705" style="stroke: #000000; stroke-width: 0.6"/>
      </g>
     </g>
    </g>
    <g id="ytick_10">
     <g id="line2d_15">
      <g>
       <use xlink:href="#m7ff47e062f" x="45" y="304.886277" style="stroke: #000000; stroke-width: 0.6"/>
      </g>
     </g>
    </g>
    <g id="ytick_11">
     <g id="line2d_16">
      <g>
       <use xlink:href="#m7ff47e062f" x="45" y="301.910643" style="stroke: #000000; stroke-width: 0.6"/>
      </g>
     </g>
    </g>
    <g id="ytick_12">
     <g id="line2d_17">
      <g>
       <use xlink:href="#m7ff47e062f" x="45" y="299.333031" style="stroke: #000000; stroke-width: 0.6"/>
      </g>
     </g>
    </g>
    <g id="ytick_13">
     <g id="line2d_18">
      <g>
       <use xlink:href="#m7ff47e062f" x="45" y="297.059417" style="stroke: #000000; stroke-width: 0.6"/>
      </g>
     </g>
    </g>
    <g id="ytick_14">
     <g id="line2d_19">
      <g>
       <use xlink:href="#m7ff47e062f" x="45" y="281.645493" style="stroke: #000000; stroke-width: 0.6"/>
      </g>
     </g>
    </g>
    <g id="ytick_15">
     <g id="line2d_20">
      <g>
       <use xlink:href="#m7ff47e062f" x="45" y="273.818633" style="stroke: #000000; stroke-width: 0.6"/>
      </g>
     </g>
    </g>
    <g id="ytick_16">
     <g id="line2d_21">
      <g>
       <use xlink:href="#m7ff47e062f" x="45" y="268.265387" style="stroke: #000000; stroke-width: 0.6"/>
      </g>
     </g>
    </g>
    <g id="ytick_17">
     <g id="line2d_22">
      <g>
       <use xlink:href="#m7ff47e062f" x="45" y="263.957955" style="stroke: #000000; stroke-width: 0.6"/>
      </g>
     </g>
    </g>
    <g id="ytick_18">
     <g id="line2d_23">
      <g>
       <use xlink:href="#m7ff47e062f" x="45" y="260.438527" style="stroke: #000000; stroke-width: 0.6"/>
      </g>
     </g>
    </g>
    <g id="ytick_19">
     <g id="line2d_24">
      <g>
       <use xlink:href="#m7ff47e062f" x="45" y="257.462893" style="stroke: #000000; stroke-width: 0.6"/>
      </g>
     </g>
    </g>
    <g id="ytick_20">
     <g id="line2d_25">
      <g>
       <use xlink:href="#m7ff47e062f" x="45" y="254.885281" style="stroke: #000000; stroke-width: 0.6"/>
      </g>
     </g>
    </g>
    <g id="ytick_21">
     <g id="line2d_26">
      <g>
       <use xlink:href="#m7ff47e062f" x="45" y="252.611667" style="stroke: #000000; stroke-width: 0.6"/>
      </g>
     </g>
    </g>
    <g id="ytick_22">
     <g id="line2d_27">
      <g>
       <use xlink:href="#m7ff47e062f" x="45" y="237.197743" style="stroke: #000000; stroke-width: 0.6"/>
      </g>
     </g>
    </g>
    <g id="ytick_23">
     <g id="line2d_28">
      <g>
       <use xlink:href="#m7ff47e062f" x="45" y="229.370883" style="stroke: #000000; stroke-width: 0.6"/>
      </g>
     </g>
    </g>
    <g id="ytick_24">
     <g id="line2d_29">
      <g>
       <use xlink:href="#m7ff47e062f" x="45" y="223.817637" style="stroke: #000000; stroke-width: 0.6"/>
      </g>
     </g>
    </g>
    <g id="ytick_25">
     <g id="line2d_30">
      <g>
       <use xlink:href="#m7ff47e062f" x="45" y="219.510205" style="stroke: #000000; stroke-width: 0.6"/>
      </g>
     </g>
    </g>
    <g id="ytick_26">
     <g id="line2d_31">
      <g>
       <use xlink:href="#m7ff47e062f" x="45" y="215.990777" style="stroke: #000000; stroke-width: 0.6"/>
      </g>
     </g>
    </g>
    <g id="ytick_27">
     <g id="line2d_32">
      <g>
       <use xlink:href="#m7ff47e062f" x="45" y="213.015143" style="stroke: #000000; stroke-width: 0.6"/>
      </g>
     </g>
    </g>
    <g id="ytick_28">
     <g id="line2d_33">
      <g>
       <use xlink:href="#m7ff47e062f" x="45" y="210.437531" style="stroke: #000000; stroke-width: 0.6"/>
      </g>
     </g>
    </g>
    <g id="ytick_29">
     <g id="line2d_34">
      <g>
       <use xlink:href="#m7ff47e062f" x="45" y="208.163917" style="stroke: #000000; stroke-width: 0.6"/>
      </g>
     </g>
    </g>
    <g id="ytick_30">
     <g id="line2d_35">
      <g>
       <use xlink:href="#m7ff47e062f" x="45" y="192.749994" style="stroke: #000000; stroke-width: 0.6"/>
      </g>
     </g>
    </g>
    <g id="ytick_31">
     <g id="line2d_36">
      <g>
       <use xlink:href="#m7ff47e062f" x="45" y="184.923133" style="stroke: #000000; stroke-width: 0.6"/>
      </g>
     </g>
    </g>
    <g id="ytick_32">
     <g id="line2d_37">
      <g>
       <use xlink:href="#m7ff47e062f" x="45" y="179.369888" style="stroke: #000000; stroke-width: 0.6"/>
      </g>
     </g>
    </g>
    <g id="ytick_33">
     <g id="line2d_38">
      <g>
       <use xlink:href="#m7ff47e062f" x="45" y="175.062456" style="stroke: #000000; stroke-width: 0.6"/>
      </g>
     </g>
    </g>
    <g id="ytick_34">
     <g id="line2d_39">
      <g>
       <use xlink:href="#m7ff47e062f" x="45" y="171.543027" style="stroke: #000000; stroke-width: 0.6"/>
      </g>
     </g>
    </g>
    <g id="ytick_35">
     <g id="line2d_40">
      <g>
       <use xlink:href="#m7ff47e062f" x="45" y="168.567393" style="stroke: #000000; stroke-width: 0.6"/>
      </g>
     </g>
    </g>
    <g id="ytick_36">
     <g id="line2d_41">
      <g>
       <use xlink:href="#m7ff47e062f" x="45" y="165.989782" style="stroke: #000000; stroke-width: 0.6"/>
      </g>
     </g>
    </g>
    <g id="ytick_37">
     <g id="line2d_42">
      <g>
       <use xlink:href="#m7ff47e062f" x="45" y="163.716167" style="stroke: #000000; stroke-width: 0.6"/>
      </g>
     </g>
    </g>
    <g id="ytick_38">
     <g id="line2d_43">
      <g>
       <use xlink:href="#m7ff47e062f" x="45" y="148.302244" style="stroke: #000000; stroke-width: 0.6"/>
      </g>
     </g>
    </g>
    <g id="ytick_39">
     <g id="line2d_44">
      <g>
       <use xlink:href="#m7ff47e062f" x="45" y="140.475384" style="stroke: #000000; stroke-width: 0.6"/>
      </g>
     </g>
    </g>
    <g id="ytick_40">
     <g id="line2d_45">
      <g>
       <use xlink:href="#m7ff47e062f" x="45" y="134.922138" style="stroke: #000000; stroke-width: 0.6"/>
      </g>
     </g>
    </g>
    <g id="ytick_41">
     <g id="line2d_46">
      <g>
       <use xlink:href="#m7ff47e062f" x="45" y="130.614706" style="stroke: #000000; stroke-width: 0.6"/>
      </g>
     </g>
    </g>
    <g id="ytick_42">
     <g id="line2d_47">
      <g>
       <use xlink:href="#m7ff47e062f" x="45" y="127.095278" style="stroke: #000000; stroke-width: 0.6"/>
      </g>
     </g>
    </g>
    <g id="ytick_43">
     <g id="line2d_48">
      <g>
       <use xlink:href="#m7ff47e062f" x="45" y="124.119643" style="stroke: #000000; stroke-width: 0.6"/>
      </g>
     </g>
    </g>
    <g id="ytick_44">
     <g id="line2d_49">
      <g>
       <use xlink:href="#m7ff47e062f" x="45" y="121.542032" style="stroke: #000000; stroke-width: 0.6"/>
      </g>
     </g>
    </g>
    <g id="ytick_45">
     <g id="line2d_50">
      <g>
       <use xlink:href="#m7ff47e062f" x="45" y="119.268417" style="stroke: #000000; stroke-width: 0.6"/>
      </g>
     </g>
    </g>
    <g id="ytick_46">
     <g id="line2d_51">
      <g>
       <use xlink:href="#m7ff47e062f" x="45" y="103.854494" style="stroke: #000000; stroke-width: 0.6"/>
      </g>
     </g>
    </g>
    <g id="ytick_47">
     <g id="line2d_52">
      <g>
       <use xlink:href="#m7ff47e062f" x="45" y="96.027634" style="stroke: #000000; stroke-width: 0.6"/>
      </g>
     </g>
    </g>
    <g id="ytick_48">
     <g id="line2d_53">
      <g>
       <use xlink:href="#m7ff47e062f" x="45" y="90.474388" style="stroke: #000000; stroke-width: 0.6"/>
      </g>
     </g>
    </g>
    <g id="ytick_49">
     <g id="line2d_54">
      <g>
       <use xlink:href="#m7ff47e062f" x="45" y="86.166956" style="stroke: #000000; stroke-width: 0.6"/>
      </g>
     </g>
    </g>
    <g id="ytick_50">
     <g id="line2d_55">
      <g>
       <use xlink:href="#m7ff47e062f" x="45" y="82.647528" style="stroke: #000000; stroke-width: 0.6"/>
      </g>
     </g>
    </g>
    <g id="ytick_51">
     <g id="line2d_56">
      <g>
       <use xlink:href="#m7ff47e062f" x="45" y="79.671894" style="stroke: #000000; stroke-width: 0.6"/>
      </g>
     </g>
    </g>
    <g id="ytick_52">
     <g id="line2d_57">
      <g>
       <use xlink:href="#m7ff47e062f" x="45" y="77.094282" style="stroke: #000000; stroke-width: 0.6"/>
      </g>
     </g>
    </g>
    <g id="ytick_53">
     <g id="line2d_58">
      <g>
       <use xlink:href="#m7ff47e062f" x="45" y="74.820668" style="stroke: #000000; stroke-width: 0.6"/>
      </g>
     </g>
    </g>
    <g id="ytick_54">
     <g id="line2d_59">
      <g>
       <use xlink:href="#m7ff47e062f" x="45" y="59.406744" style="stroke: #000000; stroke-width: 0.6"/>
      </g>
     </g>
    </g>
    <g id="ytick_55">
     <g id="line2d_60">
      <g>
       <use xlink:href="#m7ff47e062f" x="45" y="51.579884" style="stroke: #000000; stroke-width: 0.6"/>
      </g>
     </g>
    </g>
    <g id="ytick_56">
     <g id="line2d_61">
      <g>
       <use xlink:href="#m7ff47e062f" x="45" y="46.026638" style="stroke: #000000; stroke-width: 0.6"/>
      </g>
     </g>
    </g>
   </g>
   <g id="line2d_62">
    <path d="M 83.045455 83.313802 
L 85.588177 87.371801 
L 88.1309 91.905197 
L 90.165075 96.040219 
L 92.199249 100.802749 
L 93.724882 104.883349 
L 95.250514 109.69734 
L 96.267605 113.37804 
L 97.284689 117.668893 
L 98.301779 122.788663 
L 99.318864 129.468011 
L 99.827406 133.841391 
L 100.335954 139.278322 
L 100.844496 145.974015 
L 101.353038 156.896836 
L 101.861587 179.741787 
L 102.370129 173.785792 
L 102.878671 154.947808 
L 103.387219 146.27754 
L 103.895761 140.141948 
L 104.912852 132.573582 
L 105.929942 127.105089 
L 107.455574 121.861722 
L 108.472665 119.069024 
L 109.489749 116.980951 
L 112.032466 113.236449 
L 114.066646 111.167481 
L 117.117905 109.27871 
L 118.134996 108.88026 
L 119.15208 108.637896 
L 119.660628 108.560838 
L 120.16917 108.357591 
L 121.694803 108.210856 
L 123.220435 108.321767 
L 124.237526 108.335544 
L 125.763158 108.707507 
L 126.271706 108.7879 
L 129.831507 110.265245 
L 132.37423 111.766455 
L 133.899866 112.927126 
L 137.968215 117.082023 
L 139.493845 119.239264 
L 141.528025 122.449335 
L 143.5622 126.466035 
L 145.596375 131.62564 
L 146.613462 134.839435 
L 147.630549 138.553301 
L 148.139097 141.25651 
L 148.647643 143.347174 
L 150.173275 152.542589 
L 151.190362 163.004375 
L 151.698904 170.632689 
L 152.207453 181.976191 
L 152.715998 214.47358 
L 153.22454 186.104125 
L 153.733085 173.947526 
L 154.24163 165.467875 
L 154.750172 161.459054 
L 155.258718 156.209341 
L 155.76726 154.125225 
L 156.784347 148.929749 
L 157.801434 145.455811 
L 158.30998 144.181668 
L 158.818522 143.781167 
L 159.327067 142.502702 
L 159.835611 142.007376 
L 160.344157 141.299638 
L 160.852701 141.042916 
L 161.361246 140.160648 
L 161.86979 140.455261 
L 162.378333 139.93354 
L 163.395422 140.083307 
L 163.903966 140.562329 
L 164.412507 140.404742 
L 165.429595 141.60699 
L 165.938139 142.615972 
L 166.446683 142.92298 
L 167.463772 145.223104 
L 167.972315 145.874146 
L 168.989406 149.485546 
L 170.515038 155.093146 
L 171.532127 162.175127 
L 172.040671 166.098831 
L 173.057756 177.117023 
L 173.566299 186.076517 
L 174.074844 246.457548 
L 174.583387 204.476929 
L 175.091932 187.010601 
L 175.600476 176.921274 
L 176.10902 170.245196 
L 178.143199 158.361703 
L 178.651743 156.528716 
L 180.177375 152.808954 
L 180.685922 152.534738 
L 181.194466 151.975508 
L 181.70301 150.897872 
L 182.211554 150.437564 
L 183.228642 150.101603 
L 184.24573 150.295521 
L 184.754271 149.825235 
L 185.262815 150.363644 
L 185.771359 151.387764 
L 186.788447 151.883297 
L 187.296991 152.195921 
L 188.31408 153.566357 
L 189.33117 156.40635 
L 190.348259 159.046346 
L 190.856803 159.348757 
L 191.873891 163.365919 
L 192.382435 166.709519 
L 192.890976 167.970646 
L 193.39952 169.926296 
L 193.908064 173.94972 
L 194.416608 175.794813 
L 194.925152 178.976218 
L 195.433696 188.068328 
L 195.942241 189.884367 
L 196.450784 199.645134 
L 196.959331 205.490884 
L 197.467875 218.495107 
L 197.97642 201.626141 
L 198.484963 195.682159 
L 198.993507 194.813486 
L 200.010596 186.077674 
L 200.51914 178.998896 
L 201.027686 177.665431 
L 201.53623 175.354006 
L 202.553319 174.190511 
L 203.061862 173.849363 
L 203.570406 174.590881 
L 204.078951 174.302801 
L 204.587495 174.16547 
L 205.096036 171.740885 
L 205.604579 173.325479 
L 206.113124 173.038556 
L 206.621668 174.086613 
L 207.130212 173.908552 
L 207.638755 175.611171 
L 208.147301 176.419817 
L 208.655844 175.478095 
L 209.164391 178.031786 
L 209.672935 177.431023 
L 210.690023 184.762481 
L 211.198569 185.518178 
L 211.707111 189.707589 
L 212.215656 192.733244 
L 212.724198 202.02821 
L 213.23274 197.78778 
L 213.741285 221.383477 
L 214.249828 216.320434 
L 214.758373 250.469558 
L 215.266918 234.253514 
L 215.77546 199.174223 
L 216.284005 203.520943 
L 216.792547 191.031495 
L 217.301096 190.917733 
L 217.809641 189.74316 
L 218.318183 183.174597 
L 218.826728 181.358635 
L 219.843815 176.064536 
L 220.35236 177.437788 
L 220.860903 173.340472 
L 221.369445 175.27386 
L 221.87799 174.517003 
L 222.386532 174.007201 
L 222.895077 171.279356 
L 223.403622 169.820439 
L 223.912165 170.925514 
L 224.42071 171.026164 
L 224.929252 168.453114 
L 225.4378 169.310558 
L 225.946345 168.640397 
L 226.454887 169.289095 
L 226.963433 168.719232 
L 227.98052 169.179521 
L 228.489065 168.503821 
L 228.997607 171.417018 
L 229.506149 171.837324 
L 230.014695 170.712905 
L 230.523237 171.29426 
L 231.031782 171.413756 
L 231.540327 171.275172 
L 232.048869 171.878709 
L 232.557414 175.122895 
L 233.065957 174.347874 
L 233.574505 175.202263 
L 234.08305 177.549601 
L 234.591592 178.319169 
L 235.100137 179.822255 
L 235.608679 182.469266 
L 236.117228 183.703618 
L 237.64286 188.865002 
L 238.151402 201.732966 
L 238.65995 198.224718 
L 239.168493 210.428692 
L 239.677035 212.203716 
L 240.185583 244.433176 
L 240.694125 213.92966 
L 241.202667 210.160193 
L 241.711209 218.501439 
L 242.219751 197.849597 
L 242.7283 191.033011 
L 243.236842 190.793363 
L 243.745384 186.37614 
L 244.253932 183.084777 
L 244.762474 184.398027 
L 245.271016 181.363317 
L 245.779559 181.995006 
L 246.796649 175.66175 
L 247.305191 174.933233 
L 247.813733 176.064012 
L 248.322281 175.320782 
L 248.830824 174.132158 
L 249.339366 173.824825 
L 249.84792 172.686431 
L 250.356462 171.185587 
L 250.86501 169.282312 
L 251.373552 169.588186 
L 251.882095 170.610019 
L 252.390643 170.387735 
L 252.899185 168.337397 
L 253.407727 170.011172 
L 254.424811 168.376105 
L 254.93336 169.924953 
L 255.441902 169.738369 
L 255.950444 170.164025 
L 256.458992 170.999299 
L 256.967534 172.221869 
L 257.476076 173.903182 
L 258.493161 176.026162 
L 259.001709 174.818463 
L 259.510251 180.150375 
L 260.018793 183.71373 
L 260.527341 184.661407 
L 261.544426 194.776416 
L 262.052974 203.899701 
L 262.561516 239.412786 
L 263.070064 198.349612 
L 263.578606 193.59942 
L 264.087148 187.184758 
L 264.595697 178.968914 
L 265.104239 173.400787 
L 265.612781 172.056213 
L 266.121329 166.692863 
L 267.138419 160.73797 
L 267.646962 159.268778 
L 269.172594 153.554055 
L 269.681136 151.403724 
L 270.189678 149.89895 
L 271.206769 148.352557 
L 272.223853 145.705756 
L 272.732401 145.108197 
L 273.240943 144.20855 
L 273.749486 143.783807 
L 274.766576 143.542134 
L 275.275124 143.56873 
L 275.783666 143.017668 
L 276.292208 143.913805 
L 276.800757 143.918513 
L 278.326383 147.717513 
L 278.834925 150.321573 
L 279.343473 152.24972 
L 279.852015 156.613191 
L 280.360558 163.805893 
L 280.869106 174.058547 
L 281.377648 215.711321 
L 281.88619 176.9861 
L 282.394738 159.95226 
L 282.90328 151.053661 
L 283.411829 144.434789 
L 284.428913 134.75145 
L 285.446003 126.968213 
L 285.954545 123.86089 
L 285.954545 123.86089 
" clip-path="url(#p829ba871bb)" style="fill: none; stroke: #1f77b4; stroke-width: 1.5; stroke-linecap: square"/>
   </g>
   <g id="line2d_63">
    <path d="M 57.681818 55.8 
L 57.893239 55.962363 
L 58.809408 56.748098 
L 59.091303 56.971148 
L 59.936986 57.707564 
L 60.148407 57.843759 
L 60.500787 58.190024 
L 60.712208 58.324192 
L 61.205524 58.794166 
L 61.487418 59.025693 
L 68.111988 65.184703 
L 68.393882 65.537163 
L 68.534829 65.675154 
L 68.816724 65.914637 
L 69.028157 66.094296 
L 69.380525 66.579927 
L 69.66242 66.850075 
L 69.87384 66.998603 
L 70.014788 67.193377 
L 72.904231 70.257903 
L 73.045178 70.454409 
L 73.115651 70.421955 
L 73.397546 70.868312 
L 73.67944 71.100818 
L 73.890861 71.435734 
L 74.59561 72.164786 
L 74.666083 72.353637 
L 74.736557 72.264927 
L 75.37082 73.144132 
L 75.441293 73.09099 
L 75.793661 73.64834 
L 75.934609 73.677328 
L 76.14603 74.114805 
L 76.216503 74.044359 
L 76.991725 75.123446 
L 77.062199 75.047778 
L 77.27362 75.494201 
L 77.414579 75.490481 
L 77.696474 75.959045 
L 77.766947 75.907557 
L 77.978368 76.390967 
L 78.189789 76.435635 
L 78.40121 76.795897 
L 78.612631 76.991268 
L 78.683104 77.251092 
L 78.753578 77.162979 
L 79.387841 78.217859 
L 79.458314 78.165817 
L 79.740221 78.706784 
L 79.810694 78.551732 
L 79.881168 78.656207 
L 80.233536 79.278234 
L 80.30401 79.263399 
L 80.867811 80.190322 
L 80.938285 80.11834 
L 81.079232 80.537425 
L 81.149705 80.43073 
L 82.841073 82.884313 
L 83.052506 83.36246 
L 83.193453 83.537738 
L 83.3344 83.873831 
L 83.404874 83.717768 
L 83.616295 84.250412 
L 83.686768 84.075012 
L 84.039136 84.822436 
L 85.025779 86.47349 
L 85.096253 86.301098 
L 85.166726 86.694542 
L 85.237206 86.587322 
L 85.730515 87.684051 
L 85.800995 87.460155 
L 86.012416 88.213007 
L 86.08289 88.020217 
L 86.223837 88.550775 
L 86.294311 88.475327 
L 86.435264 88.561995 
L 86.576211 89.108898 
L 86.646685 89.079282 
L 87.069526 89.70332 
L 87.14 90.063596 
L 87.210474 89.961529 
L 87.633322 90.891285 
L 87.703795 90.886023 
L 87.915216 91.520757 
L 87.98569 91.408792 
L 88.26759 92.2893 
L 88.338064 92.103041 
L 88.408538 92.548844 
L 88.479011 92.528257 
L 88.549485 92.584662 
L 88.760906 93.328108 
L 89.113274 93.717452 
L 89.183753 93.953799 
L 89.254227 93.907117 
L 89.324701 93.920084 
L 89.677069 95.063062 
L 89.747549 94.904007 
L 89.818022 95.001761 
L 90.17039 96.190337 
L 90.240864 95.820663 
L 90.381811 96.568506 
L 90.452285 96.291904 
L 90.522758 96.464763 
L 90.734179 97.479488 
L 90.804653 97.383382 
L 90.875133 97.175765 
L 91.157021 98.273478 
L 91.227495 98.09568 
L 91.438922 98.868691 
L 91.509401 98.80573 
L 92.002723 100.257401 
L 92.07319 100.671885 
L 92.143664 100.428703 
L 92.425558 101.189912 
L 92.496032 101.081585 
L 92.8484 102.474747 
L 92.918874 102.087679 
L 93.341728 104.085167 
L 93.412201 103.779777 
L 93.623622 104.803171 
L 93.694102 104.174207 
L 93.764569 104.406533 
L 94.046464 105.72467 
L 94.116938 105.639874 
L 94.328359 106.937838 
L 94.398832 106.540386 
L 94.469306 107.250777 
L 94.539779 107.103157 
L 94.610253 106.787808 
L 94.7512 107.975043 
L 94.82168 107.654644 
L 94.962633 108.520166 
L 95.033107 108.127187 
L 95.244528 109.763823 
L 95.315001 109.820103 
L 95.455949 110.471149 
L 95.526422 110.094938 
L 96.019738 112.824211 
L 96.090211 112.246066 
L 96.301632 113.865992 
L 96.372106 113.160547 
L 96.513059 114.388569 
L 96.583539 113.691346 
L 96.724486 114.423839 
L 96.865433 116.1414 
L 96.935907 116.139562 
L 97.006381 115.364385 
L 97.288275 118.123632 
L 97.358749 117.894768 
L 97.429222 118.282553 
L 97.499696 117.470977 
L 97.78159 120.027199 
L 97.852064 119.628947 
L 97.993011 120.480233 
L 98.063485 121.627382 
L 98.133959 120.53528 
L 98.274912 122.805351 
L 98.345386 121.919611 
L 98.415859 122.07022 
L 98.486333 122.231262 
L 98.62728 124.83938 
L 98.768233 124.014746 
L 98.838707 127.201227 
L 98.909181 126.323788 
L 98.979654 127.698952 
L 99.050128 126.777222 
L 99.120601 126.889902 
L 99.261549 128.707765 
L 99.332028 128.293923 
L 99.47297 131.804473 
L 99.543443 129.216313 
L 99.613917 132.312178 
L 99.684391 132.092053 
L 99.754864 132.265846 
L 99.825338 133.214898 
L 99.895817 135.977443 
L 99.966291 133.324493 
L 100.107238 137.092372 
L 100.177712 135.844036 
L 100.318659 139.321734 
L 100.459612 140.785199 
L 100.60056 142.282866 
L 100.671033 141.392285 
L 100.811981 146.830636 
L 100.882454 145.318206 
L 100.952928 145.916067 
L 101.023408 145.296992 
L 101.093875 152.885454 
L 101.164349 148.727161 
L 101.234822 148.791185 
L 101.305296 150.198099 
L 101.37577 162.883694 
L 101.446243 160.103314 
L 101.587197 168.492887 
L 101.65767 158.65133 
L 101.869091 191.022719 
L 101.939565 176.5499 
L 102.010038 223.726401 
L 102.080512 179.955565 
L 102.150992 192.352604 
L 102.221465 189.731644 
L 102.291939 169.566065 
L 102.362413 181.887728 
L 102.432886 301.539558 
L 102.573833 162.039471 
L 102.644307 165.331258 
L 102.785254 154.186295 
L 102.855728 166.042424 
L 103.067149 150.966993 
L 103.137622 149.395856 
L 103.208096 151.570045 
L 103.278576 151.431499 
L 103.419523 145.156649 
L 103.489997 150.985674 
L 103.701418 141.840864 
L 103.771891 146.640949 
L 103.983318 139.176239 
L 104.053792 138.987619 
L 104.194739 136.312504 
L 104.335686 139.779058 
L 104.406166 139.432201 
L 104.476633 134.398624 
L 104.547107 137.045698 
L 104.617581 133.672948 
L 104.688054 136.099538 
L 104.758528 135.892216 
L 104.969955 134.173655 
L 105.181376 130.803831 
L 105.251849 131.998673 
L 105.46327 128.419847 
L 105.53375 129.147029 
L 105.815644 126.782304 
L 106.027065 128.860675 
L 106.238486 124.955095 
L 106.379434 126.739428 
L 106.449907 124.364787 
L 106.590854 126.340052 
L 106.731808 123.73446 
L 106.802281 125.496766 
L 106.872755 124.673436 
L 106.943229 124.760208 
L 107.013702 122.717554 
L 107.084176 124.1629 
L 107.154649 122.273759 
L 107.225129 124.254598 
L 107.295603 122.173758 
L 107.366076 123.274223 
L 107.577497 121.685734 
L 107.647971 122.177971 
L 107.788924 120.190553 
L 107.859392 120.642483 
L 107.929865 121.838894 
L 108.000339 120.415014 
L 108.070813 120.898073 
L 108.141286 119.940356 
L 108.21176 121.040965 
L 108.282234 120.683277 
L 108.634608 118.556848 
L 108.705081 119.90425 
L 108.775555 117.873692 
L 108.916508 119.608739 
L 109.127929 117.158161 
L 109.198403 118.95106 
L 109.33935 116.778671 
L 109.409824 118.535396 
L 109.480303 117.013777 
L 109.550771 117.203452 
L 109.621245 118.038973 
L 109.762192 116.220663 
L 109.832665 116.906174 
L 110.044092 115.621591 
L 110.114566 116.287814 
L 110.325987 115.100079 
L 110.396461 116.274441 
L 110.466934 115.852954 
L 110.537408 114.834769 
L 110.607887 116.17069 
L 110.678361 115.616376 
L 110.748835 115.405498 
L 110.819308 114.635636 
L 110.960256 115.773194 
L 111.030729 115.421254 
L 111.101203 114.078113 
L 111.171683 115.413431 
L 111.24215 114.595014 
L 111.312624 114.83878 
L 111.383097 114.993589 
L 111.453571 114.960879 
L 111.524045 113.51894 
L 111.594518 114.788274 
L 111.664992 113.421132 
L 111.735472 113.937898 
L 111.805945 113.232263 
L 111.876419 113.525373 
L 111.946892 113.577979 
L 112.08784 113.319692 
L 112.158313 113.423667 
L 112.228787 114.070715 
L 112.440214 113.351709 
L 112.510687 113.568369 
L 112.581161 112.847302 
L 112.651635 112.867612 
L 112.722108 112.889079 
L 112.863062 111.981651 
L 112.933529 112.603481 
L 113.004003 112.146587 
L 113.074477 112.354365 
L 113.14495 112.127472 
L 113.285897 112.649962 
L 113.356371 111.849971 
L 113.426851 112.626604 
L 113.497324 112.550343 
L 113.638272 111.277402 
L 113.708745 111.189978 
L 113.920166 111.530596 
L 114.202067 111.093448 
L 114.27254 112.000946 
L 114.413488 110.681755 
L 114.483961 111.420063 
L 114.554441 111.030856 
L 114.624908 111.560935 
L 114.695382 111.406046 
L 114.765856 111.563133 
L 114.836329 110.360361 
L 114.977277 111.349386 
L 115.04775 110.374986 
L 115.11823 111.305099 
L 115.188703 111.135841 
L 115.400124 110.239065 
L 115.470598 109.847138 
L 115.541072 110.557064 
L 115.611545 110.543456 
L 115.682025 109.862119 
L 115.752499 110.583478 
L 115.822972 109.647619 
L 115.963919 110.787467 
L 116.104867 109.636205 
L 116.17534 110.335591 
L 116.24582 110.084264 
L 116.386761 110.113372 
L 116.457235 110.366318 
L 116.527708 109.541234 
L 116.598182 109.638811 
L 116.809609 110.214988 
L 116.880083 109.308495 
L 116.950556 109.590831 
L 117.02103 109.703559 
L 117.091504 109.37835 
L 117.161977 109.96443 
L 117.302924 108.869351 
L 117.373404 109.356848 
L 117.443878 109.107485 
L 117.514351 109.430465 
L 117.584825 109.265091 
L 117.655299 108.686606 
L 117.796246 109.195906 
L 117.866719 109.043351 
L 117.937199 109.798459 
L 118.007667 109.040636 
L 118.07814 109.566155 
L 118.148614 109.287007 
L 118.219088 108.577727 
L 118.360035 109.589319 
L 118.500988 108.610246 
L 118.571462 109.618234 
L 118.641935 109.482641 
L 118.712409 108.602239 
L 118.782883 109.310738 
L 118.92383 108.281966 
L 119.064783 109.055357 
L 119.135257 108.647725 
L 119.20573 109.034819 
L 119.276204 108.273341 
L 119.417151 109.304121 
L 119.699046 108.261101 
L 119.76952 108.536346 
L 119.839993 108.61777 
L 119.98094 108.19882 
L 120.051414 109.058339 
L 120.121888 109.049738 
L 120.192367 108.061214 
L 120.403788 109.176024 
L 120.474262 108.931048 
L 120.544735 109.136179 
L 120.615209 108.351775 
L 120.756162 109.041717 
L 120.826636 107.954822 
L 120.89711 108.032028 
L 121.038057 108.843118 
L 121.108531 108.195782 
L 121.179004 108.559938 
L 121.249478 108.485611 
L 121.319957 108.637 
L 121.390425 108.149492 
L 121.531372 108.879319 
L 121.601846 108.043049 
L 121.67232 108.466083 
L 121.742793 108.458792 
L 121.883746 109.031174 
L 122.024694 108.310001 
L 122.095167 109.005277 
L 122.165641 108.215061 
L 122.236115 108.269245 
L 122.306588 108.487969 
L 122.377062 107.985783 
L 122.447542 108.513832 
L 122.518009 108.037151 
L 122.658956 108.510051 
L 122.72943 108.538376 
L 122.870377 107.885551 
L 123.011331 108.998387 
L 123.081804 107.933133 
L 123.152278 108.702211 
L 123.222751 108.032249 
L 123.363699 109.068234 
L 123.434172 108.965819 
L 123.504646 108.056895 
L 123.575126 108.890705 
L 123.645599 108.837392 
L 123.716073 108.520012 
L 123.786547 109.133388 
L 123.85702 108.293536 
L 123.927494 108.401802 
L 123.997967 108.244361 
L 124.138921 108.734978 
L 124.209388 108.629897 
L 124.279862 108.246708 
L 124.350336 108.325105 
L 124.420809 108.822736 
L 124.491283 108.088287 
L 124.63223 108.631805 
L 124.70271 108.408366 
L 124.914131 109.135978 
L 125.055078 108.334708 
L 125.125551 109.180957 
L 125.196025 108.838254 
L 125.336978 108.374813 
L 125.407452 108.943168 
L 125.477926 108.226219 
L 125.618873 109.156361 
L 125.689347 108.320622 
L 125.75982 108.473234 
L 125.8303 108.450963 
L 125.971241 109.473488 
L 126.041715 108.990153 
L 126.112188 109.569352 
L 126.253136 108.405931 
L 126.464563 109.698937 
L 126.535036 109.089618 
L 126.60551 109.602835 
L 126.675983 109.525369 
L 126.746457 109.619669 
L 126.816931 108.555881 
L 126.887404 109.730692 
L 126.957884 108.686449 
L 127.028358 109.826135 
L 127.098831 109.242597 
L 127.169305 108.734295 
L 127.239778 109.496193 
L 127.310252 109.211797 
L 127.380726 108.79857 
L 127.592147 109.952471 
L 127.66262 109.27263 
L 127.733094 109.884554 
L 127.803567 109.604969 
L 127.874041 109.572943 
L 127.944515 109.703386 
L 128.085468 109.101446 
L 128.155942 109.460088 
L 128.226415 109.093815 
L 128.367363 109.782255 
L 128.437836 109.354873 
L 128.50831 109.541974 
L 128.649263 109.798749 
L 128.719737 109.544938 
L 128.931158 110.193254 
L 129.072105 109.738936 
L 129.142578 109.873899 
L 129.213058 110.12841 
L 129.283526 109.757138 
L 129.494947 110.538178 
L 129.56542 110.471207 
L 129.635894 110.859284 
L 129.776847 109.925468 
L 129.847321 110.763329 
L 129.917794 110.040013 
L 129.988268 110.438965 
L 130.129215 110.351083 
L 130.199689 110.395862 
L 130.270163 111.3297 
L 130.340642 111.12542 
L 130.411116 110.959206 
L 130.48159 111.468038 
L 130.552063 110.229687 
L 130.763484 111.441438 
L 130.833958 110.465767 
L 130.904437 111.308015 
L 130.974905 110.70382 
L 131.045379 111.115668 
L 131.115852 111.040133 
L 131.256799 110.610663 
L 131.327273 110.858171 
L 131.468226 111.740011 
L 131.5387 110.84412 
L 131.609174 111.235416 
L 131.679647 111.561309 
L 131.750121 110.983358 
L 131.891068 112.359285 
L 132.032021 111.25528 
L 132.243442 112.526579 
L 132.38439 111.38799 
L 132.454863 112.416065 
L 132.525337 112.186048 
L 132.666284 111.933961 
L 132.736758 111.914764 
L 132.807231 112.965598 
L 132.877705 112.273395 
L 133.018652 113.197151 
L 133.089126 112.661386 
L 133.159606 112.782717 
L 133.230079 112.623723 
L 133.300553 113.263622 
L 133.371026 112.108951 
L 133.4415 113.152482 
L 133.511974 112.776145 
L 133.582447 113.31531 
L 133.652921 113.013362 
L 133.723401 112.789206 
L 133.864348 113.620605 
L 133.934821 112.714979 
L 134.005295 112.821298 
L 134.287193 114.102083 
L 134.357663 113.534357 
L 134.428137 114.457206 
L 134.569084 113.361111 
L 134.639561 113.513834 
L 134.850982 113.35207 
L 134.921458 113.419335 
L 135.132879 115.130938 
L 135.203356 115.126123 
L 135.414777 114.111484 
L 135.485253 115.00836 
L 135.555727 113.952013 
L 135.626201 115.225608 
L 135.696674 115.048272 
L 135.837625 115.352627 
L 135.908098 114.71451 
L 135.978572 115.939904 
L 136.049042 115.674504 
L 136.119516 115.911547 
L 136.18999 115.519424 
L 136.33094 116.158881 
L 136.401414 116.037196 
L 136.471887 116.398699 
L 136.542361 115.622775 
L 136.612837 116.462664 
L 136.683311 116.149811 
L 136.824258 117.006492 
L 136.965209 115.922081 
L 137.106156 116.684814 
L 137.176633 116.662097 
L 137.247106 116.334269 
L 137.31758 117.419738 
L 137.388053 117.328982 
L 137.45853 116.260799 
L 137.529004 116.847284 
L 137.599477 116.91885 
L 137.669951 116.505051 
L 137.740422 117.324277 
L 137.810895 116.976238 
L 137.881369 116.863812 
L 138.022319 117.190453 
L 138.092793 118.592843 
L 138.163266 118.100694 
L 138.23374 118.812658 
L 138.304217 118.176168 
L 138.37469 118.221336 
L 138.445164 118.504925 
L 138.515637 118.354223 
L 138.586114 117.490603 
L 138.656588 117.772843 
L 139.008953 119.705104 
L 139.220377 118.367733 
L 139.361324 118.723239 
L 139.572748 120.648596 
L 139.643222 119.425928 
L 139.713698 119.789437 
L 139.784172 119.655144 
L 139.925119 120.562304 
L 139.995596 120.281398 
L 140.207017 121.070225 
L 140.347967 120.178701 
L 140.418441 121.252707 
L 140.488914 120.949484 
L 140.559385 120.673814 
L 140.629858 121.826874 
L 140.700332 121.446992 
L 140.770806 121.37887 
L 140.841282 121.092917 
L 140.911756 121.6313 
L 140.98223 120.893252 
L 141.193653 123.053563 
L 141.264127 122.483058 
L 141.334601 122.627967 
L 141.475551 123.783003 
L 141.546025 122.303793 
L 141.616498 123.829041 
L 141.686975 123.487925 
L 141.757449 122.433054 
L 141.827922 123.895248 
L 141.898396 122.772044 
L 141.968872 123.272734 
L 142.10982 123.054301 
L 142.180293 125.216274 
L 142.250764 123.035855 
L 142.321238 125.0882 
L 142.391711 123.289741 
L 142.603135 125.994611 
L 142.673609 124.570497 
L 142.885033 126.422132 
L 142.955506 125.767515 
L 143.02598 126.401564 
L 143.096457 125.084819 
L 143.16693 125.098794 
L 143.237404 127.714643 
L 143.307877 125.34298 
L 143.378354 126.336193 
L 143.448828 126.56952 
L 143.519301 128.544725 
L 143.660252 126.046848 
L 143.942143 129.347876 
L 144.012617 127.733827 
L 144.08309 129.070198 
L 144.153564 126.864513 
L 144.294514 129.595347 
L 144.364988 130.127016 
L 144.435462 128.130131 
L 144.505938 128.833965 
L 144.576412 129.93809 
L 144.646885 128.412378 
L 144.717359 128.439716 
L 144.787836 128.326475 
L 144.928783 131.657442 
L 145.069733 130.939945 
L 145.140207 131.717139 
L 145.21068 130.004476 
L 145.281154 131.631589 
L 145.351631 131.122778 
L 145.422104 130.834993 
L 145.492578 133.914616 
L 145.563052 130.683686 
L 145.633522 132.769306 
L 145.703996 130.869446 
L 145.91542 134.070788 
L 145.985893 132.326407 
L 146.056367 135.287645 
L 146.126841 132.220881 
L 146.197317 135.685691 
L 146.267791 132.773635 
L 146.338265 136.02568 
L 146.408738 133.95135 
L 146.620162 137.377559 
L 146.690636 136.77827 
L 146.761112 134.034546 
L 146.831586 136.678275 
L 146.90206 134.952928 
L 146.972533 139.076179 
L 147.04301 137.677985 
L 147.183957 136.392774 
L 147.254431 139.053788 
L 147.324901 136.675468 
L 147.465849 140.588981 
L 147.536322 141.133625 
L 147.606799 140.303289 
L 147.677273 137.245537 
L 147.747746 142.506692 
L 147.81822 139.432759 
L 147.888696 139.776336 
L 147.95917 140.682069 
L 148.100117 144.518265 
L 148.170594 142.565636 
L 148.241068 144.129856 
L 148.311541 139.600747 
L 148.382015 143.061337 
L 148.452492 140.350573 
L 148.522965 145.114597 
L 148.593439 141.54871 
L 148.663912 143.148378 
L 148.804863 149.693163 
L 148.875336 143.300097 
L 148.94581 143.828451 
L 149.086754 148.75836 
L 149.298178 145.291395 
L 149.439125 154.831562 
L 149.509599 147.255098 
L 149.721023 156.194606 
L 149.791497 150.972473 
L 149.861973 152.333644 
L 150.073394 161.529411 
L 150.143871 152.613609 
L 150.284818 161.360888 
L 150.355292 151.895552 
L 150.566715 164.478597 
L 150.637189 155.653201 
L 150.70766 160.5101 
L 150.778133 167.125571 
L 150.848607 154.27962 
L 150.919081 155.359404 
L 150.989557 158.525537 
L 151.130505 175.096238 
L 151.200978 159.280474 
L 151.271455 169.925383 
L 151.341928 162.27714 
L 151.412402 163.847927 
L 151.482876 193.96243 
L 151.553352 182.797585 
L 151.623826 169.392301 
L 151.83525 185.546677 
L 151.976197 170.953944 
L 152.187621 252.578832 
L 152.258095 182.020952 
L 152.328568 202.031113 
L 152.399039 185.848616 
L 152.469513 187.203101 
L 152.539986 199.81721 
L 152.61046 173.765823 
L 152.680936 210.059008 
L 152.75141 190.151555 
L 152.892357 168.925155 
L 152.962834 229.881391 
L 153.033308 167.766276 
L 153.103781 174.964721 
L 153.174255 184.885588 
L 153.244731 165.244706 
L 153.315205 195.432829 
L 153.456152 161.600643 
L 153.526629 192.608893 
L 153.597103 185.669802 
L 153.667576 201.770126 
L 153.73805 172.609731 
L 153.808527 189.203009 
L 154.019947 158.871321 
L 154.090418 159.53437 
L 154.160892 158.944787 
L 154.231365 159.534758 
L 154.372316 172.083495 
L 154.513263 153.542698 
L 154.724687 165.689167 
L 154.79516 162.925959 
L 154.865634 165.198665 
L 154.936111 151.987963 
L 155.006584 158.107183 
L 155.077058 164.240368 
L 155.218008 154.934277 
L 155.288482 155.855788 
L 155.429429 150.922578 
L 155.499906 160.958178 
L 155.570379 158.878548 
L 155.640853 153.271881 
L 155.711327 159.205139 
L 155.781797 158.544719 
L 155.852271 147.341504 
L 155.922744 151.989484 
L 155.993218 154.212894 
L 156.063695 152.885267 
L 156.134168 155.362496 
L 156.204642 146.493023 
L 156.275116 151.143358 
L 156.416066 153.709387 
L 156.48654 146.37135 
L 156.557013 149.534427 
L 156.62749 149.090978 
L 156.768437 150.505219 
L 156.909387 144.287055 
L 156.979861 150.19086 
L 157.050335 146.882096 
L 157.120808 150.621925 
L 157.191285 148.849082 
L 157.261758 142.928588 
L 157.332232 146.178964 
L 157.402706 142.275455 
L 157.54365 148.055731 
L 157.614124 148.085867 
L 157.684597 141.895514 
L 157.755074 148.476337 
L 157.825548 142.861877 
L 157.896021 143.7272 
L 157.966495 143.388606 
L 158.036971 142.256186 
L 158.107445 145.241138 
L 158.177919 141.775659 
L 158.248392 147.202666 
L 158.318869 145.109108 
L 158.389343 140.987184 
L 158.459816 142.342904 
L 158.671234 145.384888 
L 158.741708 140.774221 
L 158.812181 142.855986 
L 158.882658 142.735323 
L 159.023605 139.912265 
L 159.094079 144.13856 
L 159.164556 143.3812 
L 159.235029 139.793636 
L 159.305504 140.047846 
L 159.446452 145.430865 
L 159.5874 139.794726 
L 159.657874 140.615273 
L 159.728345 139.064799 
L 159.798818 144.0754 
L 159.869293 139.523188 
L 159.939767 143.225705 
L 160.080716 138.582034 
L 160.151189 139.795108 
L 160.221663 138.256722 
L 160.362619 143.719206 
L 160.433094 143.894432 
L 160.503568 138.530433 
L 160.574042 139.294485 
L 160.644517 142.814449 
L 160.785464 137.508871 
L 160.855935 143.553644 
L 160.926408 137.9353 
L 160.996883 139.570808 
L 161.067357 139.709217 
L 161.208306 137.26844 
L 161.278779 138.595807 
L 161.349253 137.512989 
L 161.490197 139.254746 
L 161.560672 142.65075 
L 161.631146 139.119698 
L 161.70162 141.987826 
L 161.772095 138.705842 
L 161.842568 139.070935 
L 161.913042 139.513935 
L 161.983525 141.782601 
L 162.053998 141.496283 
L 162.124474 137.384619 
L 162.194947 138.074321 
L 162.265421 137.948237 
L 162.335896 140.418575 
L 162.40637 140.009831 
L 162.476843 140.268228 
L 162.547314 137.471062 
L 162.617787 140.825721 
L 162.758736 137.462705 
L 162.82921 142.478764 
L 162.899685 139.449007 
L 162.970159 140.064974 
L 163.040632 141.250778 
L 163.111103 138.216476 
L 163.181576 139.881197 
L 163.252052 137.010071 
L 163.322525 141.556921 
L 163.392999 138.17997 
L 163.463474 142.393089 
L 163.533948 141.203476 
L 163.674904 137.354589 
L 163.745378 138.115221 
L 163.815853 142.427915 
L 163.886326 139.398419 
L 163.9568 141.693682 
L 164.027275 139.674293 
L 164.097749 142.632499 
L 164.238693 137.894513 
L 164.379642 143.273677 
L 164.450115 139.500988 
L 164.520589 139.688185 
L 164.591064 140.756259 
L 164.661538 137.631486 
L 164.802482 142.379966 
L 164.872956 142.953658 
L 165.084378 138.683979 
L 165.2958 142.2106 
L 165.436757 138.354996 
L 165.507232 144.250737 
L 165.577706 141.986313 
L 165.648179 144.259981 
L 165.718654 139.906137 
L 165.789128 144.562922 
L 165.859602 143.129407 
L 165.930072 138.420012 
L 166.000546 145.220622 
L 166.071021 139.360001 
L 166.141495 141.550802 
L 166.211968 139.34812 
L 166.282443 143.902505 
L 166.352917 139.973471 
L 166.423391 141.837691 
L 166.493861 142.098254 
L 166.564335 140.187662 
L 166.63481 146.353785 
L 166.705284 145.869577 
L 166.775757 139.609435 
L 166.916706 145.938846 
L 166.98718 143.393025 
L 167.057662 144.574405 
L 167.128136 143.995121 
L 167.198611 146.327673 
L 167.269085 142.419091 
L 167.339558 147.511915 
L 167.480507 142.028032 
L 167.621451 143.959892 
L 167.691925 144.058448 
L 167.903347 146.922119 
L 167.973822 148.291976 
L 168.044296 147.791149 
L 168.11477 141.862116 
L 168.18524 146.52153 
L 168.255714 144.534225 
L 168.326189 143.382578 
L 168.537611 150.001783 
L 168.678559 145.564249 
L 168.749041 151.632921 
L 168.960464 144.427896 
L 169.101413 147.455057 
L 169.171886 145.520241 
L 169.31283 147.449843 
L 169.453779 154.205584 
L 169.524253 150.96587 
L 169.594726 151.038787 
L 169.665202 149.921892 
L 169.735675 151.17777 
L 169.876619 147.714184 
L 170.017568 158.06459 
L 170.228991 149.397565 
L 170.299464 157.239834 
L 170.369938 153.73708 
L 170.440421 154.843497 
L 170.510894 158.123519 
L 170.581369 151.357038 
L 170.792792 160.689394 
L 170.933739 154.856884 
L 171.074683 159.58328 
L 171.145158 154.853185 
L 171.356581 165.290313 
L 171.427054 160.442207 
L 171.497528 169.300209 
L 171.567999 153.407231 
L 171.638472 164.699521 
L 171.708947 164.574311 
L 171.849895 159.060995 
L 171.920369 162.824594 
L 171.990843 156.520918 
L 172.061318 170.12041 
L 172.1318 160.01206 
L 172.202274 164.064846 
L 172.272748 177.006052 
L 172.343222 170.326522 
L 172.554645 159.532773 
L 172.625119 160.510199 
L 172.695589 178.005384 
L 172.766063 176.570719 
L 172.836537 173.43915 
L 172.907011 187.270168 
L 172.977486 176.551341 
L 173.047959 196.725724 
L 173.188908 164.283634 
L 173.259378 173.795677 
L 173.400326 214.693648 
L 173.541275 173.685604 
L 173.611748 180.452588 
L 173.682223 177.910836 
L 173.752697 166.322936 
L 173.964127 199.904518 
L 174.034601 177.070035 
L 174.105076 180.772879 
L 174.316498 200.891703 
L 174.457442 184.394176 
L 174.527916 187.904501 
L 174.59839 175.854601 
L 174.668865 226.843232 
L 174.739338 208.26864 
L 174.809813 208.459117 
L 174.950757 186.39743 
L 175.021231 207.176945 
L 175.162179 174.179213 
L 175.232654 289.053762 
L 175.373602 175.250145 
L 175.444076 236.970031 
L 175.514558 166.40401 
L 175.585032 208.063891 
L 175.655506 185.176149 
L 175.72598 184.253028 
L 175.796455 198.303933 
L 175.866928 181.301358 
L 176.007877 201.172128 
L 176.078347 164.607614 
L 176.148821 197.05917 
L 176.289769 170.00372 
L 176.430717 194.297136 
L 176.571666 162.5886 
L 176.642136 183.237665 
L 176.71261 163.870141 
L 176.783084 174.40906 
L 176.853558 166.68111 
L 176.994507 181.612327 
L 177.135455 161.316782 
L 177.205937 173.21167 
L 177.41736 156.749714 
L 177.487834 177.23669 
L 177.628782 161.70679 
L 177.699256 159.32753 
L 177.769726 160.909755 
L 177.840201 168.114143 
L 177.910674 161.90698 
L 177.981149 172.654347 
L 178.122097 159.853329 
L 178.192571 166.930512 
L 178.333515 158.546034 
L 178.474464 168.186134 
L 178.544938 161.70097 
L 178.615412 166.208638 
L 178.685886 165.273352 
L 178.75636 161.153138 
L 178.826834 161.488855 
L 178.897316 160.979154 
L 178.96779 158.802428 
L 179.108739 166.498165 
L 179.249687 156.72294 
L 179.320161 165.210393 
L 179.390635 151.6277 
L 179.461105 162.880539 
L 179.531579 160.649595 
L 179.602054 161.46625 
L 179.743002 151.105584 
L 179.813476 161.45663 
L 179.88395 152.625666 
L 179.954424 157.222704 
L 180.024894 159.505528 
L 180.095368 149.487499 
L 180.306791 160.011136 
L 180.377265 150.619075 
L 180.447739 158.787507 
L 180.518213 158.76234 
L 180.588696 158.022774 
L 180.65917 161.416106 
L 180.800118 148.642662 
L 180.870592 158.757917 
L 180.941066 154.073092 
L 181.01154 153.507643 
L 181.082014 148.095632 
L 181.293433 160.226316 
L 181.363907 157.856075 
L 181.434381 158.015033 
L 181.504855 157.427868 
L 181.575329 149.236625 
L 181.645803 150.158335 
L 181.716274 150.296015 
L 181.786748 150.181755 
L 181.857222 157.678039 
L 181.927696 154.438328 
L 181.99817 157.687534 
L 182.139118 147.486358 
L 182.280075 156.640764 
L 182.350549 155.892788 
L 182.561971 147.063437 
L 182.632445 148.909695 
L 182.702919 155.022596 
L 182.773393 149.52261 
L 182.843864 154.649707 
L 182.914338 153.286156 
L 182.984812 149.537926 
L 183.055286 155.440883 
L 183.12576 149.816938 
L 183.196234 151.360682 
L 183.337183 146.745928 
L 183.478127 153.20139 
L 183.548601 148.801712 
L 183.619075 155.308269 
L 183.760023 146.62975 
L 183.971454 150.827534 
L 184.041928 150.383867 
L 184.112402 154.24215 
L 184.182876 147.026834 
L 184.25335 152.330149 
L 184.323824 151.584226 
L 184.394299 153.064948 
L 184.464773 158.221317 
L 184.535231 155.406902 
L 184.676179 147.378419 
L 184.887601 153.764987 
L 184.958076 151.730216 
L 185.02855 157.003201 
L 185.099032 154.151161 
L 185.169506 150.742323 
L 185.23998 152.013208 
L 185.310454 153.293511 
L 185.380928 151.184494 
L 185.451402 157.32196 
L 185.521877 147.881768 
L 185.592351 155.112561 
L 185.733295 147.55631 
L 185.944717 157.010789 
L 186.085666 151.893709 
L 186.15614 152.131353 
L 186.22661 150.234143 
L 186.367558 152.246046 
L 186.438032 158.739078 
L 186.508506 156.740666 
L 186.578981 148.510521 
L 186.649455 152.971702 
L 186.719929 149.561803 
L 186.790411 152.142918 
L 186.860885 148.783972 
L 186.931359 154.957722 
L 187.001833 149.286763 
L 187.072307 160.933331 
L 187.142782 159.007741 
L 187.28373 148.470183 
L 187.3542 154.04789 
L 187.424674 152.170919 
L 187.495148 155.991315 
L 187.565622 150.117716 
L 187.636096 157.07477 
L 187.706571 149.310017 
L 187.777045 151.18784 
L 187.847519 151.29026 
L 187.917989 158.159612 
L 187.988463 154.550465 
L 188.058937 149.231582 
L 188.129411 151.41043 
L 188.199885 152.135376 
L 188.27036 149.665288 
L 188.411308 158.099857 
L 188.552264 153.060518 
L 188.622739 155.775397 
L 188.693213 150.958575 
L 188.763687 152.122638 
L 188.904635 164.295638 
L 188.975109 154.353757 
L 189.045579 160.730145 
L 189.257002 150.934815 
L 189.39795 166.922565 
L 189.468424 157.381712 
L 189.609368 165.755916 
L 189.820791 151.855709 
L 189.961739 153.215728 
L 190.032213 161.685871 
L 190.102687 152.875992 
L 190.173157 153.64319 
L 190.243631 155.654264 
L 190.314106 152.922844 
L 190.455054 161.308179 
L 190.525528 155.557769 
L 190.596002 167.43123 
L 190.666476 157.396032 
L 190.736958 158.348422 
L 190.877906 171.663634 
L 191.018855 155.716955 
L 191.089329 157.486971 
L 191.230278 169.233339 
L 191.300747 168.317878 
L 191.441695 155.077762 
L 191.51217 155.726378 
L 191.653118 163.830165 
L 191.794067 157.017711 
L 191.864536 165.66011 
L 191.935011 157.347009 
L 192.005484 157.727918 
L 192.075959 157.556548 
L 192.146433 162.556442 
L 192.216907 181.030842 
L 192.287381 171.491879 
L 192.357856 164.939668 
L 192.498812 172.768385 
L 192.63976 159.115317 
L 192.710234 161.011443 
L 192.780708 160.64238 
L 192.851182 168.111209 
L 192.921657 158.982559 
L 192.992127 166.685102 
L 193.062601 164.774183 
L 193.133075 196.247072 
L 193.203549 189.268974 
L 193.414971 166.651394 
L 193.485446 176.17273 
L 193.555916 163.010752 
L 193.62639 166.238848 
L 193.696864 169.54571 
L 193.767338 169.38603 
L 193.837812 161.383209 
L 193.97876 204.769488 
L 194.049235 166.39449 
L 194.119717 181.327444 
L 194.190191 173.476518 
L 194.260665 175.38535 
L 194.331139 177.839891 
L 194.401613 239.725404 
L 194.542561 167.373567 
L 194.613036 171.640974 
L 194.683506 196.858076 
L 194.75398 189.331484 
L 194.965402 173.010417 
L 195.035876 174.010696 
L 195.10635 171.436708 
L 195.317769 211.437001 
L 195.388243 178.937363 
L 195.458717 188.477017 
L 195.599665 220.923655 
L 195.67014 193.832 
L 195.740614 208.351854 
L 195.88157 169.978469 
L 195.952044 193.53229 
L 196.022518 184.274866 
L 196.092993 187.642785 
L 196.163466 186.88878 
L 196.233941 212.755603 
L 196.374885 179.016929 
L 196.586307 199.773107 
L 196.656782 174.632182 
L 196.727255 187.571078 
L 196.79773 190.549066 
L 196.868204 212.341033 
L 196.938674 174.141265 
L 197.009148 228.663828 
L 197.079622 187.686664 
L 197.150096 195.817448 
L 197.22057 185.480126 
L 197.291045 201.143439 
L 197.361519 175.889589 
L 197.431992 186.915984 
L 197.502475 219.632711 
L 197.643424 176.011842 
L 197.854846 189.741486 
L 197.92532 183.096405 
L 197.995793 222.244487 
L 198.136738 182.04684 
L 198.207213 180.54075 
L 198.277686 189.591946 
L 198.34816 174.371079 
L 198.418635 179.642856 
L 198.489109 211.862113 
L 198.630053 188.827462 
L 198.771002 219.291933 
L 198.841475 176.539458 
L 198.911949 182.843949 
L 198.982424 243.187917 
L 199.052898 173.948882 
L 199.123371 202.972775 
L 199.264328 183.891471 
L 199.334803 215.598325 
L 199.47575 169.936147 
L 199.546225 292.964206 
L 199.687173 177.660691 
L 199.757643 193.12804 
L 199.828117 168.345975 
L 199.898592 227.941882 
L 199.969066 174.434775 
L 200.039539 203.179629 
L 200.110014 219.061824 
L 200.250962 175.968363 
L 200.391906 167.775676 
L 200.532855 187.814587 
L 200.603328 178.856891 
L 200.673803 191.134342 
L 200.744277 181.618227 
L 200.885233 215.693752 
L 200.955707 168.642532 
L 201.026182 213.715528 
L 201.096656 167.021273 
L 201.167129 178.228769 
L 201.237604 175.215785 
L 201.308078 165.20102 
L 201.378552 205.112054 
L 201.449022 184.347796 
L 201.589971 172.616684 
L 201.660445 209.115791 
L 201.730918 172.105247 
L 201.801393 203.55984 
L 201.942341 167.102646 
L 202.012811 180.829761 
L 202.083285 178.962722 
L 202.15376 179.830502 
L 202.224234 164.850075 
L 202.294707 168.050979 
L 202.365183 174.223708 
L 202.435656 199.576072 
L 202.50613 195.555901 
L 202.576612 164.915776 
L 202.647086 165.746464 
L 202.717561 167.422005 
L 202.788035 214.095786 
L 202.858508 164.862444 
L 202.928984 178.729264 
L 203.069931 163.706498 
L 203.210875 187.490531 
L 203.28135 162.812211 
L 203.351824 191.417271 
L 203.422298 165.9053 
L 203.492773 299.616668 
L 203.563246 183.487281 
L 203.63372 221.047702 
L 203.774664 168.636685 
L 203.915613 217.492498 
L 203.986087 164.895503 
L 204.056562 167.051264 
L 204.127035 175.615689 
L 204.197509 199.65864 
L 204.40894 165.90589 
L 204.620363 199.380168 
L 204.831781 165.530491 
L 204.972729 184.311802 
L 205.043203 162.122912 
L 205.113677 171.680711 
L 205.184152 184.679084 
L 205.254625 183.484811 
L 205.536518 164.662912 
L 205.606992 176.207806 
L 205.677466 163.577854 
L 205.818414 187.625546 
L 205.888888 184.578934 
L 205.959371 237.365668 
L 206.029844 197.115751 
L 206.10032 226.939698 
L 206.241267 175.515506 
L 206.311742 181.814876 
L 206.382216 199.785362 
L 206.452689 163.029384 
L 206.52316 184.193486 
L 206.664109 165.471935 
L 206.734582 199.236626 
L 206.946005 162.672656 
L 207.016478 179.370165 
L 207.086949 165.44079 
L 207.157422 214.162933 
L 207.227898 200.906076 
L 207.298371 164.490817 
L 207.368845 179.201354 
L 207.43932 162.832531 
L 207.580267 189.609246 
L 207.65075 163.403425 
L 207.721224 164.278308 
L 207.862172 201.394811 
L 207.932646 179.075601 
L 208.003121 194.342366 
L 208.073595 166.337164 
L 208.144068 177.474893 
L 208.285013 168.170019 
L 208.355488 172.415929 
L 208.425961 207.700917 
L 208.496435 165.605398 
L 208.56691 168.450618 
L 208.637384 209.335441 
L 208.707857 166.786384 
L 208.778328 174.023836 
L 208.848802 186.015673 
L 208.919277 236.80935 
L 208.98975 185.508118 
L 209.060224 202.570423 
L 209.201173 167.920057 
L 209.271646 191.479383 
L 209.342129 165.58754 
L 209.412603 196.594497 
L 209.483078 177.959619 
L 209.553551 254.560932 
L 209.6945 173.810215 
L 209.764974 173.496856 
L 209.835448 184.570106 
L 209.905918 214.280126 
L 209.976392 169.62955 
L 210.046865 170.316478 
L 210.117339 180.166627 
L 210.187816 213.331417 
L 210.258289 179.37055 
L 210.328763 185.547882 
L 210.399237 167.468571 
L 210.540187 184.114081 
L 210.61066 184.70339 
L 210.681134 173.930167 
L 210.751611 188.217374 
L 210.822084 169.054545 
L 210.892558 174.706024 
L 210.963032 200.4539 
L 211.033502 189.360112 
L 211.174449 197.539639 
L 211.3154 183.110233 
L 211.385873 196.110461 
L 211.456347 169.080941 
L 211.597297 244.011994 
L 211.738245 193.99323 
L 211.808718 200.10945 
L 211.879195 170.798836 
L 211.949668 222.257589 
L 212.020142 206.257839 
L 212.161092 174.067095 
L 212.231566 187.396477 
L 212.30204 178.944014 
L 212.372513 189.998577 
L 212.44299 173.073506 
L 212.513464 178.304835 
L 212.583937 176.076891 
L 212.654411 222.200684 
L 212.724881 184.359176 
L 212.795355 199.921894 
L 212.936302 177.601762 
L 213.006779 203.668695 
L 213.077253 175.46795 
L 213.2182 214.108759 
L 213.288676 210.984204 
L 213.35915 225.874985 
L 213.429624 174.507878 
L 213.500097 215.268052 
L 213.641048 179.697407 
L 213.781995 212.177572 
L 213.852472 178.883682 
L 213.922945 188.985804 
L 213.993419 207.261234 
L 214.063892 175.029559 
L 214.134369 271.427796 
L 214.275316 177.027278 
L 214.34579 224.929944 
L 214.486734 178.830115 
L 214.557208 183.666569 
L 214.627681 204.859468 
L 214.768632 176.892123 
L 214.909579 198.967785 
L 214.980056 195.304429 
L 215.050529 179.656292 
L 215.121003 184.370249 
L 215.191476 183.794968 
L 215.261953 185.58352 
L 215.332427 216.775179 
L 215.543851 180.757406 
L 215.755272 220.555982 
L 215.825748 175.963237 
L 215.896222 229.643743 
L 215.966695 173.346534 
L 216.037169 177.420412 
L 216.10764 198.977791 
L 216.248587 177.413611 
L 216.389537 211.162689 
L 216.530484 173.307539 
L 216.600958 168.5621 
L 216.671435 207.677517 
L 216.741908 173.23629 
L 216.812382 193.300348 
L 216.882856 181.959948 
L 216.953332 172.522631 
L 217.023806 178.971314 
L 217.09428 170.341638 
L 217.164753 174.149647 
L 217.235224 186.222826 
L 217.376171 168.185432 
L 217.446645 207.365263 
L 217.517121 189.318823 
L 217.587595 174.594146 
L 217.658069 184.107727 
L 217.728542 213.203124 
L 217.799019 167.924609 
L 217.869492 172.306374 
L 217.939966 169.176257 
L 218.080916 182.287126 
L 218.15139 167.988972 
L 218.221864 249.668579 
L 218.292337 167.879314 
L 218.362814 202.526765 
L 218.433288 168.697608 
L 218.503761 178.226025 
L 218.574235 187.161901 
L 218.644711 171.946356 
L 218.715185 208.208322 
L 218.785659 168.040103 
L 218.856132 179.035698 
L 218.926603 167.210759 
L 219.06755 227.276016 
L 219.138024 214.00917 
L 219.278974 169.808319 
L 219.349448 211.556604 
L 219.419921 180.492057 
L 219.490398 210.271148 
L 219.560872 169.044616 
L 219.631345 169.720333 
L 219.701819 164.897545 
L 219.772296 233.305377 
L 219.913243 165.923589 
L 219.983716 179.145553 
L 220.054193 169.528699 
L 220.19514 185.359198 
L 220.265614 168.261741 
L 220.336091 180.382642 
L 220.406564 166.325617 
L 220.477038 180.470838 
L 220.547511 162.459143 
L 220.617982 179.288651 
L 220.688456 247.263406 
L 220.758929 230.832889 
L 220.829403 184.326723 
L 220.89988 201.473674 
L 220.970353 246.407795 
L 221.040827 181.395569 
L 221.111301 182.602266 
L 221.181777 177.386868 
L 221.252251 213.353351 
L 221.322724 209.258708 
L 221.393198 167.16496 
L 221.463675 173.534381 
L 221.534148 166.589583 
L 221.604622 182.107749 
L 221.675096 161.41612 
L 221.745572 181.658446 
L 221.816046 169.34925 
L 221.886519 181.598408 
L 221.956993 180.140877 
L 222.02747 166.187994 
L 222.097943 185.83269 
L 222.168417 182.747 
L 222.238891 162.158685 
L 222.309361 217.968037 
L 222.379835 201.816888 
L 222.661732 165.164526 
L 222.732206 167.587177 
L 222.80268 182.928005 
L 222.873156 182.053318 
L 222.94363 180.633345 
L 223.014104 160.714021 
L 223.084577 196.804004 
L 223.155054 166.303076 
L 223.225527 198.648086 
L 223.296001 195.909665 
L 223.366475 179.460739 
L 223.436951 208.834603 
L 223.648372 166.994887 
L 223.718849 201.470709 
L 223.789323 176.61496 
L 223.859796 185.032659 
L 223.93027 168.347073 
L 224.071214 197.820549 
L 224.141688 162.04114 
L 224.212161 193.779525 
L 224.353112 162.759912 
L 224.423585 161.296054 
L 224.494059 176.724882 
L 224.564535 162.083511 
L 224.635009 166.159918 
L 224.705483 164.665603 
L 224.775956 176.155768 
L 224.846433 159.885129 
L 224.916907 165.129583 
L 225.057854 172.762701 
L 225.128331 165.17787 
L 225.198804 177.984876 
L 225.339751 161.05846 
L 225.410228 169.108049 
L 225.480702 164.149209 
L 225.551175 185.272041 
L 225.621649 162.640435 
L 225.69212 169.945257 
L 225.762593 179.271335 
L 225.833067 160.787139 
L 225.90354 190.703724 
L 225.974017 165.131163 
L 226.044491 167.365151 
L 226.114964 163.408552 
L 226.185438 166.121952 
L 226.255915 165.975515 
L 226.326388 160.699022 
L 226.537812 203.185792 
L 226.749233 176.827979 
L 226.81971 182.514996 
L 226.890183 200.549278 
L 226.960657 193.71236 
L 227.031131 161.993352 
L 227.101607 168.268757 
L 227.172081 160.197375 
L 227.383499 197.02425 
L 227.59492 162.632346 
L 227.665396 162.047527 
L 227.73587 174.728311 
L 227.806344 165.177445 
L 227.876817 165.654416 
L 227.947294 189.878367 
L 228.017767 165.006323 
L 228.088241 165.94094 
L 228.158715 193.354644 
L 228.229191 180.329545 
L 228.299665 164.63346 
L 228.440612 183.78247 
L 228.511089 161.443184 
L 228.652036 177.093397 
L 228.72251 172.141806 
L 228.792986 210.279762 
L 228.86346 163.96765 
L 228.933934 185.942174 
L 229.074878 162.090523 
L 229.145351 192.00209 
L 229.215825 166.327766 
L 229.286299 174.294427 
L 229.356775 186.369194 
L 229.497723 162.386705 
L 229.638673 207.137823 
L 229.709147 172.161613 
L 229.77962 195.515692 
L 229.850094 182.118226 
L 229.92057 180.50622 
L 229.991044 165.14733 
L 230.061518 224.744118 
L 230.202468 177.941884 
L 230.272942 198.132837 
L 230.343415 163.051757 
L 230.413889 179.807067 
L 230.484366 167.731534 
L 230.554839 173.462995 
L 230.695786 187.358047 
L 230.766257 180.98609 
L 230.836731 164.455135 
L 230.907204 166.26338 
L 230.977678 176.518777 
L 231.048155 173.030153 
L 231.118628 164.064179 
L 231.189102 228.915024 
L 231.330052 165.75152 
L 231.470999 190.047388 
L 231.541473 168.877026 
L 231.61195 193.83273 
L 231.682423 167.334041 
L 231.823371 220.845967 
L 231.893847 207.258257 
L 232.034794 174.372762 
L 232.105268 183.762524 
L 232.175745 189.725327 
L 232.246218 186.103538 
L 232.316692 175.004278 
L 232.387166 183.30077 
L 232.598583 164.936884 
L 232.739534 168.881476 
L 232.810007 204.744328 
L 232.880481 187.239719 
L 232.950955 165.654088 
L 233.021431 171.133266 
L 233.091905 189.55207 
L 233.162379 175.140447 
L 233.232852 175.637023 
L 233.303329 174.046982 
L 233.373802 176.807747 
L 233.444276 186.776536 
L 233.51475 185.195775 
L 233.585226 307.8 
L 233.6557 268.519273 
L 233.867124 174.120513 
L 233.937597 185.233028 
L 234.008071 170.81101 
L 234.078545 209.807646 
L 234.289963 168.668096 
L 234.430913 240.775543 
L 234.57186 177.995149 
L 234.642334 206.7862 
L 234.71281 190.616889 
L 234.783284 173.028148 
L 234.853758 173.416198 
L 234.924231 229.838749 
L 234.994708 174.728492 
L 235.065182 198.594561 
L 235.206129 226.353563 
L 235.276599 201.252105 
L 235.417547 232.317103 
L 235.628968 177.578857 
L 235.769921 203.482666 
L 235.840394 193.48826 
L 235.910868 191.240356 
L 235.981342 184.657835 
L 236.051815 192.334691 
L 236.122289 175.900016 
L 236.192763 194.945431 
L 236.263236 176.849707 
L 236.333716 183.416007 
L 236.40419 184.930486 
L 236.474663 243.887932 
L 236.61561 177.852293 
L 236.686084 177.787121 
L 236.756558 183.744995 
L 236.827031 173.723722 
L 236.967979 182.933096 
L 237.038452 228.957022 
L 237.108926 206.935043 
L 237.179399 182.573735 
L 237.249873 195.18656 
L 237.320347 177.778049 
L 237.39082 180.802535 
L 237.4613 181.699191 
L 237.602247 189.449587 
L 237.672721 181.192133 
L 237.743195 189.465614 
L 237.813668 187.924043 
L 237.884142 185.641136 
L 237.954615 233.567278 
L 238.025095 223.506304 
L 238.30699 173.457539 
L 238.377463 216.008753 
L 238.447937 186.255673 
L 238.51841 225.234603 
L 238.58889 181.117371 
L 238.659358 183.029067 
L 238.729831 209.183734 
L 238.800305 179.300353 
L 238.870779 185.600291 
L 238.941252 237.467024 
L 239.0822 182.023975 
L 239.152679 262.586238 
L 239.3641 174.986318 
L 239.434574 182.344892 
L 239.505047 176.669182 
L 239.645995 191.478198 
L 239.716474 177.585485 
L 239.786948 198.904534 
L 239.857422 177.770401 
L 239.927895 178.237208 
L 239.998369 237.23646 
L 240.068842 194.642546 
L 240.139316 195.491594 
L 240.350737 184.104727 
L 240.421211 202.311644 
L 240.491684 179.835617 
L 240.632631 231.896752 
L 240.703105 171.546805 
L 240.773579 190.431848 
L 240.914532 169.745412 
L 240.985006 169.85765 
L 241.055479 176.809037 
L 241.125953 196.701705 
L 241.196426 181.236771 
L 241.2669 201.182525 
L 241.337374 195.798507 
L 241.407853 168.547593 
L 241.548801 230.786115 
L 241.619274 214.481523 
L 241.689748 169.747942 
L 241.760222 180.708831 
L 241.830695 164.837907 
L 241.971648 206.513122 
L 242.11259 165.093754 
L 242.253537 173.466638 
L 242.324011 233.94853 
L 242.394484 205.047047 
L 242.464958 167.200601 
L 242.535437 209.544623 
L 242.605911 173.632255 
L 242.676385 181.054594 
L 242.746858 171.401067 
L 242.817332 176.018017 
L 242.887806 213.420645 
L 243.028753 163.760408 
L 243.099233 174.049986 
L 243.169706 167.815037 
L 243.24018 190.199464 
L 243.310653 164.094454 
L 243.451601 183.04955 
L 243.522074 171.327941 
L 243.663028 183.876229 
L 243.803969 175.007674 
L 243.874442 188.308933 
L 243.944916 168.207935 
L 244.01539 214.807588 
L 244.156337 161.218075 
L 244.29729 176.841833 
L 244.367764 202.461768 
L 244.508711 161.668998 
L 244.579185 161.21484 
L 244.649658 170.067185 
L 244.720132 166.594195 
L 244.790612 159.944107 
L 245.002033 197.256539 
L 245.072506 164.64685 
L 245.14298 165.053639 
L 245.213453 159.926089 
L 245.283927 179.260704 
L 245.354407 164.205169 
L 245.424874 174.939836 
L 245.495348 173.214773 
L 245.565822 162.228802 
L 245.636295 190.23361 
L 245.706769 160.547075 
L 245.777243 163.075536 
L 245.847716 179.061113 
L 245.918196 162.379375 
L 245.988669 171.887765 
L 246.059143 166.830962 
L 246.129617 171.776562 
L 246.20009 189.009715 
L 246.341038 161.922634 
L 246.481991 174.72804 
L 246.622938 164.652442 
L 246.763885 179.882585 
L 246.834359 174.502655 
L 247.045786 157.469692 
L 247.116254 165.65592 
L 247.186727 161.893726 
L 247.257201 159.786949 
L 247.327674 171.452165 
L 247.398148 169.694589 
L 247.539095 158.246414 
L 247.609575 162.458659 
L 247.680049 176.631885 
L 247.750522 159.214764 
L 247.820996 177.332665 
L 247.891469 159.618318 
L 247.961943 163.138482 
L 248.032417 161.023687 
L 248.10289 179.813329 
L 248.314317 156.943701 
L 248.384791 167.101552 
L 248.455265 155.900766 
L 248.596212 171.174672 
L 248.878106 158.579382 
L 249.089527 177.053885 
L 249.160001 155.757405 
L 249.230474 164.556543 
L 249.300954 172.663835 
L 249.441901 162.301404 
L 249.512375 159.621312 
L 249.582849 163.221312 
L 249.653322 156.659741 
L 249.723796 165.64301 
L 249.79427 165.009472 
L 249.864749 164.218422 
L 250.005696 155.122673 
L 250.07617 161.969149 
L 250.217117 155.059817 
L 250.287591 166.974172 
L 250.358065 162.040601 
L 250.428544 166.171186 
L 250.499012 157.522578 
L 250.569485 164.580316 
L 250.639959 158.279669 
L 250.710433 160.305635 
L 250.921854 172.639334 
L 251.203754 154.568729 
L 251.274228 170.499335 
L 251.344701 160.524801 
L 251.415175 170.556755 
L 251.556128 157.09067 
L 251.626602 170.264741 
L 251.697076 153.418332 
L 251.767549 162.864108 
L 251.838023 153.322329 
L 251.908496 161.336113 
L 252.049444 153.067833 
L 252.119923 163.10845 
L 252.190391 161.835457 
L 252.260865 155.483462 
L 252.331338 168.815005 
L 252.401812 154.94377 
L 252.472286 165.741113 
L 252.542759 152.714034 
L 252.613233 165.94599 
L 252.683712 163.16217 
L 252.754186 153.759913 
L 252.82466 163.31304 
L 252.895133 153.005201 
L 252.965607 154.046797 
L 253.036081 152.605115 
L 253.106554 169.678412 
L 253.177028 158.931672 
L 253.247508 161.972756 
L 253.317975 157.05982 
L 253.388449 166.582351 
L 253.458922 155.744157 
L 253.529396 159.268144 
L 253.670343 168.281994 
L 253.740817 154.868244 
L 253.811297 162.026091 
L 253.88177 153.42693 
L 253.952244 157.295993 
L 254.022717 156.330465 
L 254.304612 167.519206 
L 254.375092 154.019077 
L 254.445565 164.6156 
L 254.516039 154.29604 
L 254.586512 161.549928 
L 254.72746 152.544968 
L 254.797933 164.334816 
L 254.868407 152.721323 
L 254.938887 158.316035 
L 255.009354 166.069238 
L 255.150301 154.347198 
L 255.220775 152.369323 
L 255.291249 168.474237 
L 255.361722 152.241692 
L 255.432196 153.119667 
L 255.502676 151.772292 
L 255.573149 154.492471 
L 255.643623 162.970822 
L 255.78457 152.197154 
L 255.855044 161.957419 
L 255.925517 159.936277 
L 256.066471 152.884605 
L 256.136944 153.800182 
L 256.207418 153.146633 
L 256.277892 163.39615 
L 256.348365 160.114433 
L 256.418839 162.271962 
L 256.489313 154.801775 
L 256.559786 156.742855 
L 256.630266 166.495296 
L 256.700733 159.821606 
L 256.841681 168.842702 
L 256.912154 152.433531 
L 256.982628 163.59965 
L 257.053102 155.490774 
L 257.123575 160.896019 
L 257.194055 160.749456 
L 257.264528 159.014656 
L 257.335002 153.395735 
L 257.405476 160.293546 
L 257.475949 153.160444 
L 257.546423 154.761679 
L 257.616897 154.128056 
L 257.68737 169.135337 
L 257.75785 163.791349 
L 257.828324 168.024589 
L 258.039744 157.85269 
L 258.110218 153.067827 
L 258.180692 156.09771 
L 258.251165 166.990766 
L 258.321645 166.22521 
L 258.392113 154.14483 
L 258.462586 159.050411 
L 258.53306 157.629427 
L 258.603533 165.353104 
L 258.674007 161.238798 
L 258.744481 157.806595 
L 258.814954 167.298436 
L 258.885434 155.220616 
L 258.955908 156.383121 
L 259.026381 166.714616 
L 259.096855 164.766371 
L 259.237802 159.401226 
L 259.308276 164.612 
L 259.378749 153.653424 
L 259.449229 173.200893 
L 259.519703 167.383186 
L 259.590176 168.078232 
L 259.66065 158.965961 
L 259.731124 160.175088 
L 259.801597 164.54817 
L 259.872071 154.840456 
L 259.942544 172.838093 
L 260.013024 158.770152 
L 260.224439 175.599792 
L 260.294913 171.932091 
L 260.365386 173.921358 
L 260.43586 158.716054 
L 260.506333 167.148166 
L 260.576813 158.23099 
L 260.647287 169.813824 
L 260.71776 166.082321 
L 260.858708 156.258678 
L 260.929181 166.897633 
L 260.999655 158.482578 
L 261.070129 161.287183 
L 261.211082 158.439702 
L 261.281555 160.521983 
L 261.352029 168.563007 
L 261.422503 168.501973 
L 261.56345 159.869897 
L 261.633924 166.215802 
L 261.704403 160.569506 
L 261.774871 175.0961 
L 261.845345 160.324338 
L 261.915818 168.004962 
L 261.986292 178.02438 
L 262.056765 174.275595 
L 262.127239 180.740995 
L 262.197713 164.913844 
L 262.268192 177.577305 
L 262.338666 172.110515 
L 262.40914 168.993291 
L 262.479613 179.316777 
L 262.550087 168.31976 
L 262.62056 170.827352 
L 262.761508 161.171306 
L 262.831987 181.762435 
L 262.902461 163.33232 
L 262.972935 170.802061 
L 263.043408 182.645832 
L 263.113882 180.070368 
L 263.184356 167.788219 
L 263.254829 168.716668 
L 263.325303 172.764573 
L 263.395782 183.727626 
L 263.46625 165.776925 
L 263.536724 170.92784 
L 263.607197 220.463697 
L 263.677671 177.811835 
L 263.748145 180.639525 
L 263.889092 191.902818 
L 263.959571 213.406282 
L 264.030045 162.581337 
L 264.100519 257.57904 
L 264.170992 163.670248 
L 264.241466 228.242457 
L 264.31194 185.513923 
L 264.382413 193.263872 
L 264.452887 202.746165 
L 264.59384 169.976514 
L 264.664314 237.787963 
L 264.734787 205.785192 
L 264.805261 172.310006 
L 264.875735 188.626645 
L 265.016682 173.487496 
L 265.157629 233.867026 
L 265.228103 178.246368 
L 265.298576 222.449779 
L 265.36905 202.486216 
L 265.509997 220.044702 
L 265.580471 169.485964 
L 265.650951 188.329493 
L 265.721424 181.605382 
L 265.791898 193.377166 
L 265.862372 190.461543 
L 265.932845 176.751808 
L 266.003319 264.506463 
L 266.073792 215.466716 
L 266.144266 176.653403 
L 266.214746 191.20638 
L 266.285219 201.885508 
L 266.355693 178.551319 
L 266.426167 188.510796 
L 266.49664 195.184211 
L 266.567114 177.152532 
L 266.637587 190.372553 
L 266.708061 245.237032 
L 266.778541 182.403909 
L 266.849008 183.248598 
L 266.989956 221.353883 
L 267.130903 177.717266 
L 267.201376 177.252613 
L 267.27185 262.981189 
L 267.412803 174.154591 
L 267.553751 226.602094 
L 267.624224 176.522589 
L 267.694698 229.374737 
L 267.765172 174.429046 
L 267.835645 196.593065 
L 267.906125 210.619505 
L 267.976598 166.102956 
L 268.047072 170.978489 
L 268.188019 183.259911 
L 268.258493 165.303806 
L 268.328967 166.905788 
L 268.540388 180.625276 
L 268.751808 175.131207 
L 268.822282 175.447675 
L 268.892756 171.780227 
L 269.033709 188.062677 
L 269.174656 163.984847 
L 269.24513 178.190912 
L 269.315603 161.256023 
L 269.386077 181.842935 
L 269.456551 176.593444 
L 269.597504 162.838007 
L 269.667978 167.870205 
L 269.808925 157.808162 
L 269.879399 183.838166 
L 269.949872 157.338502 
L 270.020346 157.616985 
L 270.231767 167.195064 
L 270.30224 159.360049 
L 270.372714 162.76863 
L 270.443188 161.231909 
L 270.584135 174.750995 
L 270.725088 162.171817 
L 270.795562 171.171526 
L 270.866035 155.11922 
L 270.936509 165.82503 
L 271.006983 156.311263 
L 271.077456 169.863823 
L 271.14793 153.847575 
L 271.218403 163.999807 
L 271.288883 153.885606 
L 271.359357 165.785872 
L 271.42983 161.252476 
L 271.500304 168.611025 
L 271.570778 153.626857 
L 271.641251 165.229662 
L 271.711725 153.84744 
L 271.782199 154.514174 
L 271.852678 161.63763 
L 272.064093 151.957919 
L 272.275514 165.381445 
L 272.345988 163.536482 
L 272.557415 150.827161 
L 272.627888 164.308412 
L 272.698362 152.506808 
L 272.768835 154.808272 
L 272.839309 150.845844 
L 272.909783 151.385163 
L 272.980262 157.046205 
L 273.050736 153.840608 
L 273.12121 156.190869 
L 273.191683 155.205605 
L 273.262157 155.498336 
L 273.33263 153.725396 
L 273.403104 154.668854 
L 273.614525 161.348314 
L 273.755472 149.544052 
L 274.037367 161.614778 
L 274.17832 149.932663 
L 274.248794 153.306326 
L 274.319267 158.704675 
L 274.389741 156.488344 
L 274.460215 149.8121 
L 274.530688 154.257619 
L 274.601162 148.467221 
L 274.671641 151.402957 
L 274.742115 158.931528 
L 274.812589 151.208072 
L 274.883062 158.184997 
L 274.953536 149.174364 
L 275.02401 160.534972 
L 275.094483 157.16269 
L 275.164957 158.538027 
L 275.446851 150.69724 
L 275.517325 150.013067 
L 275.587799 160.383505 
L 275.658272 151.996234 
L 275.728746 154.367163 
L 275.799226 148.917211 
L 275.869693 156.223294 
L 275.940167 152.313134 
L 276.01064 149.838395 
L 276.081114 155.501129 
L 276.151588 149.377875 
L 276.222061 154.227104 
L 276.292535 150.111743 
L 276.363015 160.078568 
L 276.433494 150.451327 
L 276.574442 159.463828 
L 276.644915 150.807574 
L 276.785862 163.219438 
L 276.856336 152.333766 
L 276.926816 157.222036 
L 276.997283 159.240693 
L 277.067757 164.675892 
L 277.138231 164.522838 
L 277.208704 151.946521 
L 277.279178 152.29755 
L 277.349651 152.109181 
L 277.490605 157.196776 
L 277.561072 156.331651 
L 277.631546 166.252903 
L 277.772493 154.208121 
L 277.842967 154.628381 
L 277.91344 156.305968 
L 277.983914 174.629792 
L 278.124873 160.991342 
L 278.195347 160.401482 
L 278.265821 156.968106 
L 278.336294 161.026507 
L 278.547715 178.742073 
L 278.688662 162.037619 
L 278.759136 162.255343 
L 278.82961 197.646696 
L 278.900083 160.608872 
L 278.970557 177.036279 
L 279.041031 172.196176 
L 279.111504 228.884483 
L 279.181984 196.650322 
L 279.322925 166.204676 
L 279.393399 187.014139 
L 279.463872 170.226544 
L 279.60482 210.397092 
L 279.675293 209.543195 
L 279.886726 177.291626 
L 279.9572 177.337055 
L 280.027673 199.411045 
L 280.098147 195.367916 
L 280.168621 192.792861 
L 280.239094 275.656776 
L 280.450515 169.090214 
L 280.591462 161.827071 
L 280.661936 191.810014 
L 280.73241 181.11266 
L 280.802883 183.911747 
L 280.943831 159.6288 
L 281.014304 156.810218 
L 281.084778 171.635466 
L 281.155252 167.359851 
L 281.225725 152.9969 
L 281.296199 167.177265 
L 281.366672 164.019682 
L 281.437152 154.195302 
L 281.507632 163.19557 
L 281.719053 148.361151 
L 281.86 156.677062 
L 282.000953 144.815984 
L 282.071421 152.519928 
L 282.141894 147.929382 
L 282.212368 150.518319 
L 282.494263 142.520749 
L 282.564742 147.264025 
L 282.705683 140.617954 
L 282.776157 141.724496 
L 282.917104 141.86802 
L 282.987578 136.843708 
L 283.058052 141.496637 
L 283.128531 140.787998 
L 283.199011 135.854414 
L 283.269485 138.953978 
L 283.339958 135.1364 
L 283.410432 137.591445 
L 283.692332 132.475713 
L 283.7628 133.392184 
L 283.833274 132.945141 
L 283.903747 133.32288 
L 283.974221 133.156198 
L 284.256121 128.884764 
L 284.397063 129.190585 
L 284.467536 129.884598 
L 284.53801 127.641121 
L 284.608483 129.499015 
L 284.749431 126.456756 
L 284.81991 126.318782 
L 284.890384 125.131485 
L 284.960858 125.411197 
L 285.101805 125.988204 
L 285.172279 125.907489 
L 285.313226 123.038878 
L 285.383705 124.411761 
L 285.595126 121.201357 
L 285.6656 122.278835 
L 285.806547 120.294994 
L 285.877021 120.117234 
L 286.088442 119.304267 
L 286.158915 120.256152 
L 286.370336 117.792345 
L 286.44081 118.331649 
L 286.652243 116.528621 
L 286.722716 116.12923 
L 286.79319 116.399543 
L 287.004611 114.567333 
L 287.075085 115.014192 
L 287.145558 114.726267 
L 287.216032 115.110647 
L 287.286505 113.310968 
L 287.356979 113.858264 
L 287.427453 112.857416 
L 287.497926 113.652697 
L 287.5684 113.487237 
L 287.779821 111.800131 
L 287.920768 111.618306 
L 288.061715 110.335885 
L 288.132189 111.103118 
L 288.202663 110.753634 
L 288.273148 109.543756 
L 288.343622 110.046239 
L 288.555043 108.705323 
L 288.625517 108.886022 
L 288.836937 108.001875 
L 288.907411 107.756075 
L 289.048358 106.576844 
L 289.118832 106.691937 
L 289.189306 106.423502 
L 289.330253 105.474776 
L 289.4712 105.825846 
L 289.612147 104.738029 
L 289.682621 105.041694 
L 289.753095 104.841896 
L 289.894042 103.432646 
L 289.964528 104.087204 
L 290.387369 101.882613 
L 290.457843 102.308855 
L 290.669264 101.112058 
L 290.739737 101.344087 
L 291.374 99.0015 
L 291.655907 97.979607 
L 291.72638 98.150474 
L 291.867328 97.334917 
L 291.937801 97.37698 
L 292.149222 96.486927 
L 292.219696 96.771132 
L 292.360643 95.776661 
L 292.431117 96.114371 
L 292.50159 95.956108 
L 292.783485 94.734154 
L 292.853958 94.708417 
L 292.994906 94.265015 
L 293.135853 94.133053 
L 293.347274 93.307574 
L 293.770116 92.007365 
L 293.840589 92.197489 
L 294.897706 89.12773 
L 294.968179 89.312635 
L 295.038665 88.725194 
L 295.109139 88.907725 
L 295.179612 88.742657 
L 295.391033 87.950033 
L 295.461507 88.060577 
L 295.672928 87.34644 
L 295.954822 86.686432 
L 296.166243 86.13433 
L 296.236717 86.158853 
L 296.518611 85.625605 
L 296.730032 84.909858 
L 296.941453 84.653228 
L 297.152874 83.994461 
L 297.293833 83.610523 
L 297.364307 83.694599 
L 298.069043 81.975517 
L 298.139517 82.021279 
L 298.985212 80.358096 
L 299.196633 79.772171 
L 299.549001 79.03098 
L 299.830896 78.658341 
L 300.042317 78.191834 
L 300.11279 78.161536 
L 300.324211 77.673026 
L 300.676591 77.052584 
L 301.310854 75.933073 
L 301.663222 75.188688 
L 302.01559 74.614421 
L 302.086064 74.576315 
L 302.438444 73.831195 
L 302.508918 73.846348 
L 302.93176 72.985388 
L 303.002233 73.056929 
L 303.284128 72.523727 
L 303.425075 72.231125 
L 303.91839 71.435621 
L 304.05935 71.343186 
L 304.482192 70.59859 
L 304.623139 70.436757 
L 307.301149 66.392551 
L 307.371622 66.402082 
L 307.653529 65.89717 
L 307.794476 65.790421 
L 308.146844 65.225718 
L 308.499213 64.854897 
L 308.781107 64.454541 
L 309.556329 63.480734 
L 309.838224 63.041978 
L 311.177235 61.41236 
L 311.318182 61.254347 
L 311.318182 61.254347 
" clip-path="url(#p829ba871bb)" style="fill: none; stroke: #ff7f0e; stroke-width: 1.5; stroke-linecap: square"/>
   </g>
   <g id="patch_3">
    <path d="M 45 320.4 
L 45 43.2 
" style="fill: none; stroke: #000000; stroke-width: 0.8; stroke-linejoin: miter; stroke-linecap: square"/>
   </g>
   <g id="patch_4">
    <path d="M 324 320.4 
L 324 43.2 
" style="fill: none; stroke: #000000; stroke-width: 0.8; stroke-linejoin: miter; stroke-linecap: square"/>
   </g>
   <g id="patch_5">
    <path d="M 45 320.4 
L 324 320.4 
" style="fill: none; stroke: #000000; stroke-width: 0.8; stroke-linejoin: miter; stroke-linecap: square"/>
   </g>
   <g id="patch_6">
    <path d="M 45 43.2 
L 324 43.2 
" style="fill: none; stroke: #000000; stroke-width: 0.8; stroke-linejoin: miter; stroke-linecap: square"/>
   </g>
   <g id="text_12">
    <!-- Prediction Error -->
    <g transform="translate(138.166875 37.2)scale(0.12 -0.12)">
     <defs>
      <path id="DejaVuSans-50" d="M 1259 4147 
L 1259 2394 
L 2053 2394 
Q 2494 2394 2734 2622 
Q 2975 2850 2975 3272 
Q 2975 3691 2734 3919 
Q 2494 4147 2053 4147 
L 1259 4147 
z
M 628 4666 
L 2053 4666 
Q 2838 4666 3239 4311 
Q 3641 3956 3641 3272 
Q 3641 2581 3239 2228 
Q 2838 1875 2053 1875 
L 1259 1875 
L 1259 0 
L 628 0 
L 628 4666 
z
" transform="scale(0.015625)"/>
      <path id="DejaVuSans-72" d="M 2631 2963 
Q 2534 3019 2420 3045 
Q 2306 3072 2169 3072 
Q 1681 3072 1420 2755 
Q 1159 2438 1159 1844 
L 1159 0 
L 581 0 
L 581 3500 
L 1159 3500 
L 1159 2956 
Q 1341 3275 1631 3429 
Q 1922 3584 2338 3584 
Q 2397 3584 2469 3576 
Q 2541 3569 2628 3553 
L 2631 2963 
z
" transform="scale(0.015625)"/>
      <path id="DejaVuSans-65" d="M 3597 1894 
L 3597 1613 
L 953 1613 
Q 991 1019 1311 708 
Q 1631 397 2203 397 
Q 2534 397 2845 478 
Q 3156 559 3463 722 
L 3463 178 
Q 3153 47 2828 -22 
Q 2503 -91 2169 -91 
Q 1331 -91 842 396 
Q 353 884 353 1716 
Q 353 2575 817 3079 
Q 1281 3584 2069 3584 
Q 2775 3584 3186 3129 
Q 3597 2675 3597 1894 
z
M 3022 2063 
Q 3016 2534 2758 2815 
Q 2500 3097 2075 3097 
Q 1594 3097 1305 2825 
Q 1016 2553 972 2059 
L 3022 2063 
z
" transform="scale(0.015625)"/>
      <path id="DejaVuSans-64" d="M 2906 2969 
L 2906 4863 
L 3481 4863 
L 3481 0 
L 2906 0 
L 2906 525 
Q 2725 213 2448 61 
Q 2172 -91 1784 -91 
Q 1150 -91 751 415 
Q 353 922 353 1747 
Q 353 2572 751 3078 
Q 1150 3584 1784 3584 
Q 2172 3584 2448 3432 
Q 2725 3281 2906 2969 
z
M 947 1747 
Q 947 1113 1208 752 
Q 1469 391 1925 391 
Q 2381 391 2643 752 
Q 2906 1113 2906 1747 
Q 2906 2381 2643 2742 
Q 2381 3103 1925 3103 
Q 1469 3103 1208 2742 
Q 947 2381 947 1747 
z
" transform="scale(0.015625)"/>
      <path id="DejaVuSans-69" d="M 603 3500 
L 1178 3500 
L 1178 0 
L 603 0 
L 603 3500 
z
M 603 4863 
L 1178 4863 
L 1178 4134 
L 603 4134 
L 603 4863 
z
" transform="scale(0.015625)"/>
      <path id="DejaVuSans-63" d="M 3122 3366 
L 3122 2828 
Q 2878 2963 2633 3030 
Q 2388 3097 2138 3097 
Q 1578 3097 1268 2742 
Q 959 2388 959 1747 
Q 959 1106 1268 751 
Q 1578 397 2138 397 
Q 2388 397 2633 464 
Q 2878 531 3122 666 
L 3122 134 
Q 2881 22 2623 -34 
Q 2366 -91 2075 -91 
Q 1284 -91 818 406 
Q 353 903 353 1747 
Q 353 2603 823 3093 
Q 1294 3584 2113 3584 
Q 2378 3584 2631 3529 
Q 2884 3475 3122 3366 
z
" transform="scale(0.015625)"/>
      <path id="DejaVuSans-74" d="M 1172 4494 
L 1172 3500 
L 2356 3500 
L 2356 3053 
L 1172 3053 
L 1172 1153 
Q 1172 725 1289 603 
Q 1406 481 1766 481 
L 2356 481 
L 2356 0 
L 1766 0 
Q 1100 0 847 248 
Q 594 497 594 1153 
L 594 3053 
L 172 3053 
L 172 3500 
L 594 3500 
L 594 4494 
L 1172 4494 
z
" transform="scale(0.015625)"/>
      <path id="DejaVuSans-6f" d="M 1959 3097 
Q 1497 3097 1228 2736 
Q 959 2375 959 1747 
Q 959 1119 1226 758 
Q 1494 397 1959 397 
Q 2419 397 2687 759 
Q 2956 1122 2956 1747 
Q 2956 2369 2687 2733 
Q 2419 3097 1959 3097 
z
M 1959 3584 
Q 2709 3584 3137 3096 
Q 3566 2609 3566 1747 
Q 3566 888 3137 398 
Q 2709 -91 1959 -91 
Q 1206 -91 779 398 
Q 353 888 353 1747 
Q 353 2609 779 3096 
Q 1206 3584 1959 3584 
z
" transform="scale(0.015625)"/>
      <path id="DejaVuSans-6e" d="M 3513 2113 
L 3513 0 
L 2938 0 
L 2938 2094 
Q 2938 2591 2744 2837 
Q 2550 3084 2163 3084 
Q 1697 3084 1428 2787 
Q 1159 2491 1159 1978 
L 1159 0 
L 581 0 
L 581 3500 
L 1159 3500 
L 1159 2956 
Q 1366 3272 1645 3428 
Q 1925 3584 2291 3584 
Q 2894 3584 3203 3211 
Q 3513 2838 3513 2113 
z
" transform="scale(0.015625)"/>
      <path id="DejaVuSans-20" transform="scale(0.015625)"/>
      <path id="DejaVuSans-45" d="M 628 4666 
L 3578 4666 
L 3578 4134 
L 1259 4134 
L 1259 2753 
L 3481 2753 
L 3481 2222 
L 1259 2222 
L 1259 531 
L 3634 531 
L 3634 0 
L 628 0 
L 628 4666 
z
" transform="scale(0.015625)"/>
     </defs>
     <use xlink:href="#DejaVuSans-50"/>
     <use xlink:href="#DejaVuSans-72" x="58.552734"/>
     <use xlink:href="#DejaVuSans-65" x="97.416016"/>
     <use xlink:href="#DejaVuSans-64" x="158.939453"/>
     <use xlink:href="#DejaVuSans-69" x="222.416016"/>
     <use xlink:href="#DejaVuSans-63" x="250.199219"/>
     <use xlink:href="#DejaVuSans-74" x="305.179688"/>
     <use xlink:href="#DejaVuSans-69" x="344.388672"/>
     <use xlink:href="#DejaVuSans-6f" x="372.171875"/>
     <use xlink:href="#DejaVuSans-6e" x="433.353516"/>
     <use xlink:href="#DejaVuSans-20" x="496.732422"/>
     <use xlink:href="#DejaVuSans-45" x="528.519531"/>
     <use xlink:href="#DejaVuSans-72" x="591.703125"/>
     <use xlink:href="#DejaVuSans-72" x="631.066406"/>
     <use xlink:href="#DejaVuSans-6f" x="669.929688"/>
     <use xlink:href="#DejaVuSans-72" x="731.111328"/>
    </g>
   </g>
   <g id="legend_1">
    <g id="patch_7">
     <path d="M 143.171094 80.55625 
L 225.828906 80.55625 
Q 227.828906 80.55625 227.828906 78.55625 
L 227.828906 50.2 
Q 227.828906 48.2 225.828906 48.2 
L 143.171094 48.2 
Q 141.171094 48.2 141.171094 50.2 
L 141.171094 78.55625 
Q 141.171094 80.55625 143.171094 80.55625 
z
" style="fill: #ffffff; opacity: 0.8; stroke: #cccccc; stroke-linejoin: miter"/>
    </g>
    <g id="line2d_64">
     <path d="M 145.171094 56.298437 
L 155.171094 56.298437 
L 165.171094 56.298437 
" style="fill: none; stroke: #1f77b4; stroke-width: 1.5; stroke-linecap: square"/>
    </g>
    <g id="text_13">
     <!-- train error -->
     <g transform="translate(173.171094 59.798437)scale(0.1 -0.1)">
      <defs>
       <path id="DejaVuSans-61" d="M 2194 1759 
Q 1497 1759 1228 1600 
Q 959 1441 959 1056 
Q 959 750 1161 570 
Q 1363 391 1709 391 
Q 2188 391 2477 730 
Q 2766 1069 2766 1631 
L 2766 1759 
L 2194 1759 
z
M 3341 1997 
L 3341 0 
L 2766 0 
L 2766 531 
Q 2569 213 2275 61 
Q 1981 -91 1556 -91 
Q 1019 -91 701 211 
Q 384 513 384 1019 
Q 384 1609 779 1909 
Q 1175 2209 1959 2209 
L 2766 2209 
L 2766 2266 
Q 2766 2663 2505 2880 
Q 2244 3097 1772 3097 
Q 1472 3097 1187 3025 
Q 903 2953 641 2809 
L 641 3341 
Q 956 3463 1253 3523 
Q 1550 3584 1831 3584 
Q 2591 3584 2966 3190 
Q 3341 2797 3341 1997 
z
" transform="scale(0.015625)"/>
      </defs>
      <use xlink:href="#DejaVuSans-74"/>
      <use xlink:href="#DejaVuSans-72" x="39.208984"/>
      <use xlink:href="#DejaVuSans-61" x="80.322266"/>
      <use xlink:href="#DejaVuSans-69" x="141.601562"/>
      <use xlink:href="#DejaVuSans-6e" x="169.384766"/>
      <use xlink:href="#DejaVuSans-20" x="232.763672"/>
      <use xlink:href="#DejaVuSans-65" x="264.550781"/>
      <use xlink:href="#DejaVuSans-72" x="326.074219"/>
      <use xlink:href="#DejaVuSans-72" x="365.4375"/>
      <use xlink:href="#DejaVuSans-6f" x="404.300781"/>
      <use xlink:href="#DejaVuSans-72" x="465.482422"/>
     </g>
    </g>
    <g id="line2d_65">
     <path d="M 145.171094 70.976562 
L 155.171094 70.976562 
L 165.171094 70.976562 
" style="fill: none; stroke: #ff7f0e; stroke-width: 1.5; stroke-linecap: square"/>
    </g>
    <g id="text_14">
     <!-- test error -->
     <g transform="translate(173.171094 74.476562)scale(0.1 -0.1)">
      <defs>
       <path id="DejaVuSans-73" d="M 2834 3397 
L 2834 2853 
Q 2591 2978 2328 3040 
Q 2066 3103 1784 3103 
Q 1356 3103 1142 2972 
Q 928 2841 928 2578 
Q 928 2378 1081 2264 
Q 1234 2150 1697 2047 
L 1894 2003 
Q 2506 1872 2764 1633 
Q 3022 1394 3022 966 
Q 3022 478 2636 193 
Q 2250 -91 1575 -91 
Q 1294 -91 989 -36 
Q 684 19 347 128 
L 347 722 
Q 666 556 975 473 
Q 1284 391 1588 391 
Q 1994 391 2212 530 
Q 2431 669 2431 922 
Q 2431 1156 2273 1281 
Q 2116 1406 1581 1522 
L 1381 1569 
Q 847 1681 609 1914 
Q 372 2147 372 2553 
Q 372 3047 722 3315 
Q 1072 3584 1716 3584 
Q 2034 3584 2315 3537 
Q 2597 3491 2834 3397 
z
" transform="scale(0.015625)"/>
      </defs>
      <use xlink:href="#DejaVuSans-74"/>
      <use xlink:href="#DejaVuSans-65" x="39.208984"/>
      <use xlink:href="#DejaVuSans-73" x="100.732422"/>
      <use xlink:href="#DejaVuSans-74" x="152.832031"/>
      <use xlink:href="#DejaVuSans-20" x="192.041016"/>
      <use xlink:href="#DejaVuSans-65" x="223.828125"/>
      <use xlink:href="#DejaVuSans-72" x="285.351562"/>
      <use xlink:href="#DejaVuSans-72" x="324.714844"/>
      <use xlink:href="#DejaVuSans-6f" x="363.578125"/>
      <use xlink:href="#DejaVuSans-72" x="424.759766"/>
     </g>
    </g>
   </g>
  </g>
 </g>
 <defs>
  <clipPath id="p829ba871bb">
   <rect x="45" y="43.2" width="279" height="277.2"/>
  </clipPath>
 </defs>
</svg>
