<?xml version="1.0" encoding="utf-8" standalone="no"?>
<!DOCTYPE svg PUBLIC "-//W3C//DTD SVG 1.1//EN"
  "http://www.w3.org/Graphics/SVG/1.1/DTD/svg11.dtd">
<svg xmlns:xlink="http://www.w3.org/1999/xlink" width="360pt" height="360pt" viewBox="0 0 360 360" xmlns="http://www.w3.org/2000/svg" version="1.1">
 <metadata>
  <rdf:RDF xmlns:dc="http://purl.org/dc/elements/1.1/" xmlns:cc="http://creativecommons.org/ns#" xmlns:rdf="http://www.w3.org/1999/02/22-rdf-syntax-ns#">
   <cc:Work>
    <dc:type rdf:resource="http://purl.org/dc/dcmitype/StillImage"/>
    <dc:date>2022-11-10T20:19:47.909121</dc:date>
    <dc:format>image/svg+xml</dc:format>
    <dc:creator>
     <cc:Agent>
      <dc:title>Matplotlib v3.5.3, https://matplotlib.org/</dc:title>
     </cc:Agent>
    </dc:creator>
   </cc:Work>
  </rdf:RDF>
 </metadata>
 <defs>
  <style type="text/css">*{stroke-linejoin: round; stroke-linecap: butt}</style>
 </defs>
 <g id="figure_1">
  <g id="patch_1">
   <path d="M 0 360 
L 360 360 
L 360 0 
L 0 0 
z
" style="fill: #ffffff"/>
  </g>
  <g id="axes_1">
   <g id="patch_2">
    <path d="M 45 320.4 
L 324 320.4 
L 324 43.2 
L 45 43.2 
z
" style="fill: #ffffff"/>
   </g>
   <g id="matplotlib.axis_1">
    <g id="xtick_1">
     <g id="line2d_1">
      <defs>
       <path id="mca459fcefb" d="M 0 0 
L 0 3.5 
" style="stroke: #000000; stroke-width: 0.8"/>
      </defs>
      <g>
       <use xlink:href="#mca459fcefb" x="83.045455" y="320.4" style="stroke: #000000; stroke-width: 0.8"/>
      </g>
     </g>
     <g id="text_1">
      <!-- −2 -->
      <g transform="translate(75.674361 334.998438)scale(0.1 -0.1)">
       <defs>
        <path id="DejaVuSans-2212" d="M 678 2272 
L 4684 2272 
L 4684 1741 
L 678 1741 
L 678 2272 
z
" transform="scale(0.015625)"/>
        <path id="DejaVuSans-32" d="M 1228 531 
L 3431 531 
L 3431 0 
L 469 0 
L 469 531 
Q 828 903 1448 1529 
Q 2069 2156 2228 2338 
Q 2531 2678 2651 2914 
Q 2772 3150 2772 3378 
Q 2772 3750 2511 3984 
Q 2250 4219 1831 4219 
Q 1534 4219 1204 4116 
Q 875 4013 500 3803 
L 500 4441 
Q 881 4594 1212 4672 
Q 1544 4750 1819 4750 
Q 2544 4750 2975 4387 
Q 3406 4025 3406 3419 
Q 3406 3131 3298 2873 
Q 3191 2616 2906 2266 
Q 2828 2175 2409 1742 
Q 1991 1309 1228 531 
z
" transform="scale(0.015625)"/>
       </defs>
       <use xlink:href="#DejaVuSans-2212"/>
       <use xlink:href="#DejaVuSans-32" x="83.789062"/>
      </g>
     </g>
    </g>
    <g id="xtick_2">
     <g id="line2d_2">
      <g>
       <use xlink:href="#mca459fcefb" x="133.772727" y="320.4" style="stroke: #000000; stroke-width: 0.8"/>
      </g>
     </g>
     <g id="text_2">
      <!-- −1 -->
      <g transform="translate(126.401634 334.998438)scale(0.1 -0.1)">
       <defs>
        <path id="DejaVuSans-31" d="M 794 531 
L 1825 531 
L 1825 4091 
L 703 3866 
L 703 4441 
L 1819 4666 
L 2450 4666 
L 2450 531 
L 3481 531 
L 3481 0 
L 794 0 
L 794 531 
z
" transform="scale(0.015625)"/>
       </defs>
       <use xlink:href="#DejaVuSans-2212"/>
       <use xlink:href="#DejaVuSans-31" x="83.789062"/>
      </g>
     </g>
    </g>
    <g id="xtick_3">
     <g id="line2d_3">
      <g>
       <use xlink:href="#mca459fcefb" x="184.5" y="320.4" style="stroke: #000000; stroke-width: 0.8"/>
      </g>
     </g>
     <g id="text_3">
      <!-- 0 -->
      <g transform="translate(181.31875 334.998438)scale(0.1 -0.1)">
       <defs>
        <path id="DejaVuSans-30" d="M 2034 4250 
Q 1547 4250 1301 3770 
Q 1056 3291 1056 2328 
Q 1056 1369 1301 889 
Q 1547 409 2034 409 
Q 2525 409 2770 889 
Q 3016 1369 3016 2328 
Q 3016 3291 2770 3770 
Q 2525 4250 2034 4250 
z
M 2034 4750 
Q 2819 4750 3233 4129 
Q 3647 3509 3647 2328 
Q 3647 1150 3233 529 
Q 2819 -91 2034 -91 
Q 1250 -91 836 529 
Q 422 1150 422 2328 
Q 422 3509 836 4129 
Q 1250 4750 2034 4750 
z
" transform="scale(0.015625)"/>
       </defs>
       <use xlink:href="#DejaVuSans-30"/>
      </g>
     </g>
    </g>
    <g id="xtick_4">
     <g id="line2d_4">
      <g>
       <use xlink:href="#mca459fcefb" x="235.227273" y="320.4" style="stroke: #000000; stroke-width: 0.8"/>
      </g>
     </g>
     <g id="text_4">
      <!-- 1 -->
      <g transform="translate(232.046023 334.998438)scale(0.1 -0.1)">
       <use xlink:href="#DejaVuSans-31"/>
      </g>
     </g>
    </g>
    <g id="xtick_5">
     <g id="line2d_5">
      <g>
       <use xlink:href="#mca459fcefb" x="285.954545" y="320.4" style="stroke: #000000; stroke-width: 0.8"/>
      </g>
     </g>
     <g id="text_5">
      <!-- 2 -->
      <g transform="translate(282.773295 334.998438)scale(0.1 -0.1)">
       <use xlink:href="#DejaVuSans-32"/>
      </g>
     </g>
    </g>
   </g>
   <g id="matplotlib.axis_2">
    <g id="ytick_1">
     <g id="line2d_6">
      <defs>
       <path id="m6e8fa8589d" d="M 0 0 
L -3.5 0 
" style="stroke: #000000; stroke-width: 0.8"/>
      </defs>
      <g>
       <use xlink:href="#m6e8fa8589d" x="45" y="280.868869" style="stroke: #000000; stroke-width: 0.8"/>
      </g>
     </g>
     <g id="text_6">
      <!-- 0 -->
      <g transform="translate(31.6375 284.668088)scale(0.1 -0.1)">
       <use xlink:href="#DejaVuSans-30"/>
      </g>
     </g>
    </g>
    <g id="ytick_2">
     <g id="line2d_7">
      <g>
       <use xlink:href="#m6e8fa8589d" x="45" y="231.175426" style="stroke: #000000; stroke-width: 0.8"/>
      </g>
     </g>
     <g id="text_7">
      <!-- 10 -->
      <g transform="translate(25.275 234.974645)scale(0.1 -0.1)">
       <use xlink:href="#DejaVuSans-31"/>
       <use xlink:href="#DejaVuSans-30" x="63.623047"/>
      </g>
     </g>
    </g>
    <g id="ytick_3">
     <g id="line2d_8">
      <g>
       <use xlink:href="#m6e8fa8589d" x="45" y="181.481983" style="stroke: #000000; stroke-width: 0.8"/>
      </g>
     </g>
     <g id="text_8">
      <!-- 20 -->
      <g transform="translate(25.275 185.281201)scale(0.1 -0.1)">
       <use xlink:href="#DejaVuSans-32"/>
       <use xlink:href="#DejaVuSans-30" x="63.623047"/>
      </g>
     </g>
    </g>
    <g id="ytick_4">
     <g id="line2d_9">
      <g>
       <use xlink:href="#m6e8fa8589d" x="45" y="131.788539" style="stroke: #000000; stroke-width: 0.8"/>
      </g>
     </g>
     <g id="text_9">
      <!-- 30 -->
      <g transform="translate(25.275 135.587758)scale(0.1 -0.1)">
       <defs>
        <path id="DejaVuSans-33" d="M 2597 2516 
Q 3050 2419 3304 2112 
Q 3559 1806 3559 1356 
Q 3559 666 3084 287 
Q 2609 -91 1734 -91 
Q 1441 -91 1130 -33 
Q 819 25 488 141 
L 488 750 
Q 750 597 1062 519 
Q 1375 441 1716 441 
Q 2309 441 2620 675 
Q 2931 909 2931 1356 
Q 2931 1769 2642 2001 
Q 2353 2234 1838 2234 
L 1294 2234 
L 1294 2753 
L 1863 2753 
Q 2328 2753 2575 2939 
Q 2822 3125 2822 3475 
Q 2822 3834 2567 4026 
Q 2313 4219 1838 4219 
Q 1578 4219 1281 4162 
Q 984 4106 628 3988 
L 628 4550 
Q 988 4650 1302 4700 
Q 1616 4750 1894 4750 
Q 2613 4750 3031 4423 
Q 3450 4097 3450 3541 
Q 3450 3153 3228 2886 
Q 3006 2619 2597 2516 
z
" transform="scale(0.015625)"/>
       </defs>
       <use xlink:href="#DejaVuSans-33"/>
       <use xlink:href="#DejaVuSans-30" x="63.623047"/>
      </g>
     </g>
    </g>
    <g id="ytick_5">
     <g id="line2d_10">
      <g>
       <use xlink:href="#m6e8fa8589d" x="45" y="82.095096" style="stroke: #000000; stroke-width: 0.8"/>
      </g>
     </g>
     <g id="text_10">
      <!-- 40 -->
      <g transform="translate(25.275 85.894315)scale(0.1 -0.1)">
       <defs>
        <path id="DejaVuSans-34" d="M 2419 4116 
L 825 1625 
L 2419 1625 
L 2419 4116 
z
M 2253 4666 
L 3047 4666 
L 3047 1625 
L 3713 1625 
L 3713 1100 
L 3047 1100 
L 3047 0 
L 2419 0 
L 2419 1100 
L 313 1100 
L 313 1709 
L 2253 4666 
z
" transform="scale(0.015625)"/>
       </defs>
       <use xlink:href="#DejaVuSans-34"/>
       <use xlink:href="#DejaVuSans-30" x="63.623047"/>
      </g>
     </g>
    </g>
   </g>
   <g id="line2d_11">
    <path d="M 57.681818 179.998586 
L 57.752292 180.123367 
L 58.245607 182.932594 
L 58.316081 183.085403 
L 58.597975 184.495438 
L 58.738923 185.407722 
L 63.672113 208.450472 
L 63.742586 208.464647 
L 64.024493 209.735413 
L 68.041514 225.865883 
L 69.098631 229.998717 
L 69.380525 231.263157 
L 69.521472 231.785566 
L 69.87384 232.733711 
L 69.944314 232.873842 
L 70.226209 234.208449 
L 72.340429 241.148402 
L 72.481377 241.64463 
L 72.622324 242.428898 
L 72.692798 242.280513 
L 73.045178 243.727284 
L 73.115651 243.632923 
L 73.397546 244.91684 
L 73.46802 245.008014 
L 73.749914 246.14108 
L 73.820388 246.046693 
L 73.961335 246.685064 
L 74.031821 246.689319 
L 74.102294 246.80748 
L 74.384189 248.009266 
L 74.666083 248.981656 
L 74.736557 248.747562 
L 75.229872 250.571584 
L 75.300346 250.471311 
L 75.511767 251.286243 
L 75.864135 252.384555 
L 75.934609 252.349732 
L 76.14603 253.413061 
L 76.216503 253.243452 
L 76.780304 254.884295 
L 76.850778 254.947427 
L 77.27362 256.61226 
L 77.414579 256.603926 
L 77.696474 257.63987 
L 77.766947 257.527254 
L 77.978368 258.572784 
L 78.189789 258.668062 
L 78.40121 259.428624 
L 78.612631 259.835173 
L 78.683104 260.369525 
L 78.753578 260.189111 
L 79.17642 261.73146 
L 79.246893 261.608853 
L 79.740221 263.233765 
L 79.810694 262.938843 
L 79.951642 263.426348 
L 80.092589 263.970578 
L 80.726852 265.670354 
L 80.867811 265.938817 
L 80.938285 265.812297 
L 81.079232 266.54227 
L 81.149705 266.357915 
L 81.290653 266.633627 
L 81.4316 267.35885 
L 81.502074 267.218365 
L 81.572547 267.298127 
L 81.995389 268.627729 
L 82.065863 268.506329 
L 82.20681 269.146199 
L 82.277284 268.991672 
L 82.559178 269.827433 
L 82.629652 269.758213 
L 82.770599 270.305585 
L 82.841073 270.34965 
L 83.052506 271.070203 
L 83.193453 271.329896 
L 83.3344 271.82132 
L 83.404874 271.594176 
L 83.616295 272.361857 
L 83.686768 272.111377 
L 84.039136 273.163017 
L 84.814358 275.024814 
L 84.884832 274.796083 
L 85.166726 275.625066 
L 85.237206 275.490392 
L 85.730515 276.833075 
L 85.800995 276.565102 
L 86.012416 277.453877 
L 86.08289 277.229551 
L 86.223837 277.841481 
L 86.294311 277.755468 
L 86.435264 277.854206 
L 86.576211 278.467271 
L 86.646685 278.434502 
L 87.069526 279.114136 
L 87.14 279.49665 
L 87.210474 279.388989 
L 87.633322 280.348789 
L 87.703795 280.343471 
L 87.915216 280.972843 
L 87.98569 280.863302 
L 88.26759 281.707684 
L 88.338064 281.53224 
L 88.408538 281.949307 
L 88.479011 281.930242 
L 88.549485 281.982373 
L 88.760906 282.655555 
L 89.113274 282.997838 
L 89.183753 283.202305 
L 89.254227 283.1621 
L 89.324701 283.173257 
L 89.677069 284.129154 
L 89.747549 283.999472 
L 89.818022 284.079274 
L 90.17039 285.018033 
L 90.240864 284.732184 
L 90.381811 285.304771 
L 90.452285 285.095542 
L 90.522758 285.226621 
L 90.734179 285.972906 
L 90.804653 285.903871 
L 90.875133 285.753578 
L 91.157021 286.530029 
L 91.227495 286.407214 
L 91.438922 286.932906 
L 91.509401 286.890848 
L 92.002723 287.825956 
L 92.07319 288.080312 
L 92.143664 287.931708 
L 92.425558 288.390549 
L 92.496032 288.326318 
L 92.8484 289.125135 
L 92.918874 288.908898 
L 93.341728 289.97943 
L 93.412201 289.822804 
L 93.623622 290.337914 
L 93.694102 290.024511 
L 93.764569 290.141434 
L 94.046464 290.778856 
L 94.116938 290.739117 
L 94.328359 291.328254 
L 94.398832 291.151996 
L 94.469306 291.464431 
L 94.539779 291.40042 
L 94.610253 291.262054 
L 94.7512 291.771275 
L 94.82168 291.636883 
L 94.962633 291.994742 
L 95.033107 291.834198 
L 95.244528 292.481615 
L 95.315001 292.502892 
L 95.455949 292.744822 
L 95.526422 292.605957 
L 96.019738 293.55418 
L 96.090211 293.364285 
L 96.301632 293.882157 
L 96.372106 293.661897 
L 96.513059 294.040096 
L 96.583539 293.82826 
L 96.935907 294.539288 
L 97.006381 294.323754 
L 97.288275 295.05285 
L 97.358749 294.996217 
L 97.429222 295.091692 
L 97.499696 294.889553 
L 97.78159 295.498262 
L 97.852064 295.408589 
L 97.922538 295.487293 
L 98.063485 295.8402 
L 98.133959 295.609787 
L 98.274912 296.074399 
L 98.345386 295.899522 
L 98.415859 295.929784 
L 98.486333 295.961882 
L 98.62728 296.446612 
L 98.697754 296.311632 
L 98.768233 296.300271 
L 98.838707 296.83244 
L 98.909181 296.694504 
L 98.979654 296.907843 
L 99.120601 296.784071 
L 99.261549 297.054829 
L 99.332028 296.995354 
L 99.47297 297.461213 
L 99.543443 297.125976 
L 99.613917 297.521772 
L 99.684391 297.495634 
L 99.825338 297.625609 
L 99.895817 297.915127 
L 99.966291 297.637817 
L 100.107238 298.020616 
L 100.177712 297.9019 
L 100.318659 298.214232 
L 100.671033 298.374972 
L 100.811981 298.723924 
L 101.023408 298.635087 
L 101.093875 299.012515 
L 101.164349 298.824053 
L 101.305296 298.895287 
L 101.37577 299.329184 
L 101.446243 299.25679 
L 101.587197 299.446782 
L 101.65767 299.214508 
L 101.869091 299.687082 
L 101.939565 299.56568 
L 102.010038 299.815639 
L 102.080512 299.602779 
L 102.291939 300.125764 
L 102.432886 299.794983 
L 102.785254 300.527789 
L 102.855728 300.191459 
L 103.067149 300.660535 
L 103.137622 300.733884 
L 103.278576 300.63977 
L 103.419523 300.96428 
L 103.489997 300.65933 
L 103.701418 301.183249 
L 103.771891 300.877388 
L 103.983318 301.388589 
L 104.053792 301.40418 
L 104.194739 301.6434 
L 104.335686 301.339226 
L 104.406166 301.36718 
L 104.476633 301.835909 
L 104.547107 301.574121 
L 104.617581 301.91401 
L 104.688054 301.663435 
L 104.758528 301.683557 
L 104.969955 301.859351 
L 105.181376 302.253251 
L 105.251849 302.105497 
L 105.46327 302.576375 
L 105.53375 302.473377 
L 105.815644 302.82245 
L 106.027065 302.512885 
L 106.238486 303.122816 
L 106.30896 302.828296 
L 106.379434 302.828528 
L 106.449907 303.226006 
L 106.590854 302.89176 
L 106.731808 303.339663 
L 106.802281 303.029948 
L 106.872755 303.170999 
L 106.943229 303.155749 
L 107.013702 303.531259 
L 107.084176 303.261318 
L 107.154649 303.61807 
L 107.225129 303.244686 
L 107.295603 303.637764 
L 107.366076 303.424465 
L 107.577497 303.735895 
L 107.647971 303.636446 
L 107.788924 304.053393 
L 107.929865 303.704216 
L 108.000339 304.0038 
L 108.070813 303.899542 
L 108.141286 304.108512 
L 108.21176 303.869022 
L 108.282234 303.945225 
L 108.634608 304.428716 
L 108.705081 304.115751 
L 108.775555 304.595662 
L 108.916508 304.182177 
L 109.127929 304.776647 
L 109.198403 304.334016 
L 109.33935 304.875351 
L 109.409824 304.432631 
L 109.480303 304.81352 
L 109.550771 304.764252 
L 109.621245 304.553289 
L 109.762192 305.023861 
L 109.832665 304.841011 
L 109.903139 304.947784 
L 109.973613 304.890173 
L 110.044092 305.188449 
L 110.114566 305.005047 
L 110.325987 305.335879 
L 110.396461 305.008147 
L 110.466934 305.123308 
L 110.537408 305.412295 
L 110.607887 305.035894 
L 110.678361 305.188729 
L 110.748835 305.247952 
L 110.819308 305.470103 
L 110.960256 305.144456 
L 111.030729 305.242938 
L 111.101203 305.636148 
L 111.171683 305.244866 
L 111.24215 305.481233 
L 111.312624 305.409592 
L 111.453571 305.373825 
L 111.524045 305.807276 
L 111.594518 305.42374 
L 111.664992 305.837576 
L 111.735472 305.677486 
L 111.805945 305.896803 
L 111.876419 305.804509 
L 112.36974 305.792959 
L 112.863062 306.303596 
L 112.933529 306.096627 
L 113.004003 306.247746 
L 113.074477 306.178322 
L 113.14495 306.2538 
L 113.215424 306.180924 
L 113.285897 306.080547 
L 113.356371 306.347005 
L 113.426851 306.087809 
L 113.497324 306.1126 
L 113.638272 306.544003 
L 113.779219 306.530824 
L 113.990646 306.517346 
L 114.202067 306.607231 
L 114.27254 306.293334 
L 114.413488 306.753867 
L 114.483961 306.491811 
L 114.554441 306.628391 
L 114.624908 306.442557 
L 114.695382 306.49606 
L 114.765856 306.441375 
L 114.836329 306.869755 
L 114.977277 306.514952 
L 115.04775 306.863727 
L 115.11823 306.529994 
L 115.188703 306.589272 
L 115.470598 307.05891 
L 115.611545 306.800296 
L 115.682025 307.052555 
L 115.752499 306.785263 
L 115.822972 307.133429 
L 115.963919 306.710811 
L 116.104867 307.136803 
L 116.17534 306.87444 
L 116.24582 306.967286 
L 116.457235 306.86212 
L 116.527708 307.171602 
L 116.598182 307.134016 
L 116.809609 306.91662 
L 116.880083 307.260063 
L 116.950556 307.151001 
L 117.02103 307.107733 
L 117.091504 307.232173 
L 117.161977 307.00864 
L 117.302924 307.430795 
L 117.373404 307.23936 
L 117.443878 307.336245 
L 117.514351 307.210333 
L 117.584825 307.274098 
L 117.655299 307.502247 
L 117.796246 307.300166 
L 117.866719 307.359658 
L 117.937199 307.067948 
L 118.007667 307.360113 
L 118.07814 307.155767 
L 118.148614 307.263144 
L 118.219088 307.543561 
L 118.360035 307.145634 
L 118.500988 307.529175 
L 118.571462 307.133604 
L 118.641935 307.185246 
L 118.712409 307.531405 
L 118.782883 307.250995 
L 118.92383 307.660406 
L 119.064783 307.349391 
L 119.135257 307.511053 
L 119.20573 307.35677 
L 119.276204 307.662186 
L 119.417151 307.25041 
L 119.699046 307.665001 
L 119.76952 307.552634 
L 119.839993 307.519429 
L 119.98094 307.689038 
L 120.121888 307.346036 
L 120.192367 307.744633 
L 120.403788 307.294917 
L 120.615209 307.622785 
L 120.756162 307.345512 
L 120.826636 307.785095 
L 120.89711 307.752587 
L 121.038057 307.422348 
L 121.108531 307.683661 
L 121.179004 307.53489 
L 121.390425 307.700921 
L 121.531372 307.404813 
L 121.601846 307.743528 
L 121.67232 307.569645 
L 121.813267 307.493641 
L 121.883746 307.342415 
L 122.024694 307.63078 
L 122.095167 307.351152 
L 122.165641 307.66869 
L 122.236115 307.645964 
L 122.306588 307.556373 
L 122.377062 307.761914 
L 122.447542 307.544883 
L 122.518009 307.739559 
L 122.658956 307.544845 
L 122.72943 307.532864 
L 122.870377 307.8 
L 123.011331 307.347078 
L 123.081804 307.778499 
L 123.152278 307.463687 
L 123.222751 307.736173 
L 123.363699 307.316767 
L 123.434172 307.356547 
L 123.504646 307.723664 
L 123.575126 307.385115 
L 123.645599 307.405699 
L 123.716073 307.532379 
L 123.786547 307.287676 
L 123.85702 307.623282 
L 123.927494 307.578505 
L 123.997967 307.642199 
L 124.138921 307.442269 
L 124.350336 307.605999 
L 124.420809 307.404704 
L 124.491283 307.702021 
L 124.561756 307.517645 
L 124.63223 307.479106 
L 124.70271 307.56878 
L 124.914131 307.276354 
L 125.055078 307.595369 
L 125.125551 307.25667 
L 125.196025 307.391058 
L 125.336978 307.576171 
L 125.407452 307.347287 
L 125.477926 307.635481 
L 125.618873 307.261208 
L 125.689347 307.594589 
L 125.75982 307.531734 
L 125.8303 307.540004 
L 125.971241 307.134346 
L 126.041715 307.321918 
L 126.112188 307.095975 
L 126.253136 307.553589 
L 126.464563 307.04248 
L 126.535036 307.277115 
L 126.60551 307.077462 
L 126.675983 307.106292 
L 126.746457 307.069339 
L 126.816931 307.486184 
L 126.887404 307.025338 
L 126.957884 307.431935 
L 127.028358 306.987437 
L 127.098831 307.210421 
L 127.169305 307.410125 
L 127.239778 307.110508 
L 127.310252 307.219728 
L 127.380726 307.381748 
L 127.592147 306.932567 
L 127.66262 307.191386 
L 127.733094 306.956211 
L 127.803567 307.061344 
L 127.944515 307.021877 
L 128.085468 307.252409 
L 128.155942 307.112003 
L 128.226415 307.253393 
L 128.367363 306.985909 
L 128.437836 307.148542 
L 128.50831 307.0754 
L 128.649263 306.975471 
L 128.719737 307.071078 
L 128.931158 306.823366 
L 129.142578 306.939406 
L 129.213058 306.842967 
L 129.283526 306.981272 
L 129.494947 306.687507 
L 129.56542 306.710757 
L 129.635894 306.569156 
L 129.776847 306.909436 
L 129.847321 306.599973 
L 129.917794 306.864047 
L 129.988268 306.715243 
L 130.199689 306.727247 
L 130.270163 306.39151 
L 130.340642 306.462 
L 130.411116 306.519666 
L 130.48159 306.339405 
L 130.552063 306.781941 
L 130.763484 306.343261 
L 130.833958 306.689684 
L 130.904437 306.387031 
L 130.974905 306.600416 
L 131.115852 306.477205 
L 131.256799 306.628429 
L 131.327273 306.537745 
L 131.468226 306.226029 
L 131.5387 306.538338 
L 131.609174 306.397981 
L 131.679647 306.282948 
L 131.750121 306.484053 
L 131.891068 306.008327 
L 132.032021 306.381707 
L 132.243442 305.945147 
L 132.38439 306.327186 
L 132.454863 305.97661 
L 132.525337 306.051391 
L 132.736758 306.13763 
L 132.807231 305.789064 
L 132.877705 306.013651 
L 133.018652 305.709854 
L 133.089126 305.880453 
L 133.159606 305.839185 
L 133.230079 305.889121 
L 133.300553 305.681535 
L 133.371026 306.055967 
L 133.4415 305.71306 
L 133.511974 305.832045 
L 133.582447 305.657704 
L 133.652921 305.751767 
L 133.723401 305.822062 
L 133.793874 305.736194 
L 133.864348 305.554413 
L 133.934821 305.84027 
L 134.005295 305.803776 
L 134.287193 305.394652 
L 134.357663 305.567023 
L 134.428137 305.283924 
L 134.569084 305.614936 
L 134.780508 305.583925 
L 134.921458 305.585696 
L 135.132879 305.065106 
L 135.203356 305.064187 
L 135.414777 305.35631 
L 135.485253 305.088705 
L 135.555727 305.399993 
L 135.626201 305.021475 
L 135.696674 305.069928 
L 135.837625 304.977927 
L 135.908098 305.159548 
L 135.978572 304.808747 
L 136.049042 304.879773 
L 136.119516 304.811453 
L 136.18999 304.918079 
L 136.33094 304.735876 
L 136.401414 304.766451 
L 136.471887 304.66568 
L 136.542361 304.875823 
L 136.612837 304.6431 
L 136.683311 304.724867 
L 136.824258 304.49113 
L 136.965209 304.776054 
L 137.176633 304.567364 
L 137.247106 304.652112 
L 137.31758 304.36446 
L 137.388053 304.384678 
L 137.45853 304.663033 
L 137.529004 304.503602 
L 137.599477 304.481787 
L 137.669951 304.58816 
L 137.740422 304.370619 
L 137.810895 304.45748 
L 137.951842 304.409549 
L 138.022319 304.392355 
L 138.092793 304.040102 
L 138.163266 304.156446 
L 138.23374 303.981107 
L 138.37469 304.116893 
L 138.515637 304.077729 
L 138.586114 304.288862 
L 138.656588 304.214225 
L 139.008953 303.736181 
L 139.29085 304.006748 
L 139.361324 303.945872 
L 139.572748 303.497699 
L 139.643222 303.766083 
L 139.713698 303.679416 
L 139.784172 303.705863 
L 139.925119 303.49663 
L 139.995596 303.553895 
L 140.207017 303.37164 
L 140.347967 303.55581 
L 140.418441 303.320671 
L 140.488914 303.380279 
L 140.559385 303.434924 
L 140.629858 303.189451 
L 140.700332 303.262915 
L 140.98223 303.361254 
L 141.193653 302.912117 
L 141.334601 302.984652 
L 141.475551 302.756815 
L 141.546025 303.033884 
L 141.616498 302.738657 
L 141.686975 302.79669 
L 141.757449 302.993609 
L 141.827922 302.711675 
L 141.898396 302.917477 
L 141.968872 302.816884 
L 142.10982 302.847946 
L 142.180293 302.45325 
L 142.250764 302.840992 
L 142.321238 302.464574 
L 142.391711 302.782276 
L 142.603135 302.29119 
L 142.673609 302.527353 
L 142.885033 302.199704 
L 142.955506 302.300498 
L 143.02598 302.191548 
L 143.16693 302.3957 
L 143.237404 301.970775 
L 143.307877 302.342311 
L 143.378354 302.172586 
L 143.448828 302.129294 
L 143.519301 301.825203 
L 143.660252 302.194993 
L 143.942143 301.674939 
L 144.012617 301.899889 
L 144.08309 301.700457 
L 144.153564 302.019735 
L 144.294514 301.608437 
L 144.364988 301.530576 
L 144.435462 301.801548 
L 144.505938 301.693554 
L 144.576412 301.53521 
L 144.717359 301.72902 
L 144.787836 301.738351 
L 144.928783 301.280762 
L 144.999257 301.339027 
L 145.069733 301.355443 
L 145.140207 301.251713 
L 145.21068 301.462064 
L 145.281154 301.247325 
L 145.351631 301.302787 
L 145.422104 301.331584 
L 145.492578 300.96173 
L 145.563052 301.335622 
L 145.633522 301.074332 
L 145.703996 301.296375 
L 145.91542 300.897868 
L 145.985893 301.086284 
L 146.056367 300.754791 
L 146.126841 301.082455 
L 146.197317 300.698559 
L 146.267791 301.001361 
L 146.338265 300.648516 
L 146.408738 300.853043 
L 146.620162 300.487369 
L 146.690636 300.533849 
L 146.761112 300.800829 
L 146.972533 300.295674 
L 147.183957 300.507324 
L 147.254431 300.260857 
L 147.324901 300.461919 
L 147.465849 300.109908 
L 147.606799 300.112788 
L 147.677273 300.36124 
L 147.747746 299.931013 
L 147.81822 300.152781 
L 147.95917 300.034189 
L 148.100117 299.748073 
L 148.170594 299.866514 
L 148.241068 299.752042 
L 148.311541 300.067846 
L 148.382015 299.801326 
L 148.452492 299.987325 
L 148.522965 299.648504 
L 148.593439 299.875609 
L 148.663912 299.752626 
L 148.804863 299.357461 
L 148.875336 299.709464 
L 148.94581 299.663522 
L 149.086754 299.358497 
L 149.298178 299.51492 
L 149.439125 299.038462 
L 149.509599 299.367216 
L 149.721023 298.942121 
L 149.791497 299.135024 
L 149.861973 299.063769 
L 150.073394 298.720563 
L 150.143871 299.001904 
L 150.284818 298.686553 
L 150.355292 298.993341 
L 150.566715 298.558634 
L 150.637189 298.794444 
L 150.778133 298.463084 
L 150.848607 298.803769 
L 150.919081 298.750309 
L 151.130505 298.266823 
L 151.200978 298.567367 
L 151.271455 298.314504 
L 151.341928 298.457723 
L 151.412402 298.405548 
L 151.482876 298.040061 
L 151.553352 298.098425 
L 151.623826 298.250452 
L 151.83525 298.016318 
L 151.976197 298.148708 
L 152.046671 297.801781 
L 152.117147 297.896759 
L 152.187621 297.789987 
L 152.258095 297.951894 
L 152.469513 297.597949 
L 152.539986 297.645203 
L 152.61046 297.431974 
L 152.680936 297.640628 
L 152.75141 297.550809 
L 152.892357 297.28939 
L 152.962834 297.599326 
L 153.033308 297.23412 
L 153.103781 297.329734 
L 153.174255 297.412718 
L 153.244731 297.1314 
L 153.315205 297.440483 
L 153.456152 296.992321 
L 153.526629 297.373254 
L 153.597103 297.311829 
L 153.667576 297.374722 
L 153.73805 297.136506 
L 153.808527 297.280703 
L 154.090418 296.769432 
L 154.231365 296.73102 
L 154.372316 296.957556 
L 154.513263 296.450423 
L 154.724687 296.743982 
L 154.865634 296.692754 
L 154.936111 296.265189 
L 155.006584 296.467503 
L 155.077058 296.609389 
L 155.218008 296.297542 
L 155.288482 296.309084 
L 155.429429 296.070336 
L 155.499906 296.400372 
L 155.570379 296.319798 
L 155.640853 296.104106 
L 155.711327 296.285235 
L 155.781797 296.243254 
L 155.852271 295.760848 
L 155.922744 295.96177 
L 156.134168 296.024697 
L 156.204642 295.599399 
L 156.275116 295.809735 
L 156.416066 295.869377 
L 156.48654 295.498223 
L 156.557013 295.640295 
L 156.838911 295.411588 
L 156.909387 295.227045 
L 156.979861 295.524622 
L 157.050335 295.331103 
L 157.120808 295.494349 
L 157.191285 295.384254 
L 157.261758 295.012001 
L 157.332232 295.189828 
L 157.402706 294.915402 
L 157.54365 295.214785 
L 157.614124 295.190097 
L 157.684597 294.783688 
L 157.755074 295.15723 
L 157.825548 294.798011 
L 157.896021 294.828871 
L 158.036971 294.67486 
L 158.107445 294.842252 
L 158.177919 294.585687 
L 158.248392 294.899556 
L 158.318869 294.751173 
L 158.389343 294.44401 
L 158.459816 294.514293 
L 158.671234 294.626089 
L 158.741708 294.285374 
L 158.812181 294.406444 
L 158.953132 294.263911 
L 159.023605 294.101366 
L 159.094079 294.373526 
L 159.164556 294.294363 
L 159.305504 293.992495 
L 159.446452 294.302617 
L 159.5874 293.85011 
L 159.657874 293.883397 
L 159.728345 293.728464 
L 159.798818 294.063808 
L 159.869293 293.703299 
L 159.939767 293.944998 
L 160.080716 293.529588 
L 160.151189 293.597594 
L 160.221663 293.437163 
L 160.362619 293.784196 
L 160.433094 293.762757 
L 160.503568 293.329735 
L 160.574042 293.360561 
L 160.644517 293.591408 
L 160.785464 293.106467 
L 160.855935 293.540027 
L 160.926408 293.076613 
L 160.996883 293.18058 
L 161.067357 293.157404 
L 161.208306 292.879148 
L 161.278779 292.961277 
L 161.349253 292.831454 
L 161.419724 292.886211 
L 161.490197 292.910893 
L 161.560672 293.131575 
L 161.631146 292.828549 
L 161.70162 293.013514 
L 161.842568 292.716463 
L 161.913042 292.716492 
L 161.983525 292.853722 
L 162.053998 292.796225 
L 162.124474 292.423714 
L 162.194947 292.448116 
L 162.265421 292.399879 
L 162.335896 292.56667 
L 162.40637 292.497169 
L 162.476843 292.479808 
L 162.547314 292.207009 
L 162.617787 292.446882 
L 162.758736 292.091784 
L 162.82921 292.452073 
L 162.970159 292.195626 
L 163.040632 292.247394 
L 163.252052 291.777688 
L 163.322525 292.112467 
L 163.392999 291.80323 
L 163.463474 292.09254 
L 163.533948 291.966663 
L 163.745378 291.596419 
L 163.815853 291.893026 
L 163.886326 291.623215 
L 163.9568 291.75893 
L 164.027275 291.563418 
L 164.097749 291.7429 
L 164.238693 291.288945 
L 164.309167 291.649065 
L 164.379642 291.619708 
L 164.520589 291.272211 
L 164.591064 291.313444 
L 164.661538 291.01277 
L 164.732011 291.341068 
L 164.802482 291.304046 
L 164.872956 291.300667 
L 165.084378 290.846429 
L 165.154853 290.975864 
L 165.225327 290.844313 
L 165.2958 290.988666 
L 165.436757 290.599455 
L 165.507232 290.993197 
L 165.577706 290.796295 
L 165.648179 290.905029 
L 165.718654 290.550419 
L 165.789128 290.834828 
L 165.859602 290.697001 
L 165.930072 290.293041 
L 166.000546 290.740352 
L 166.071021 290.281553 
L 166.141495 290.405674 
L 166.211968 290.189777 
L 166.282443 290.476353 
L 166.352917 290.148862 
L 166.423391 290.243892 
L 166.493861 290.216575 
L 166.564335 290.027916 
L 166.63481 290.395499 
L 166.705284 290.32128 
L 166.775757 289.843023 
L 166.916706 290.185761 
L 166.98718 289.980661 
L 167.057662 290.009895 
L 167.128136 289.926213 
L 167.198611 290.020552 
L 167.269085 289.726302 
L 167.339558 289.991632 
L 167.480507 289.55661 
L 167.550981 289.615756 
L 167.903347 289.577845 
L 168.044296 289.528496 
L 168.11477 289.113267 
L 168.18524 289.362431 
L 168.326189 289.072953 
L 168.537611 289.299082 
L 168.678559 288.966059 
L 168.749041 289.226007 
L 168.960464 288.700143 
L 169.101413 288.777825 
L 169.24236 288.636292 
L 169.31283 288.629131 
L 169.453779 288.836631 
L 169.665202 288.505499 
L 169.735675 288.51321 
L 169.876619 288.245072 
L 170.017568 288.570296 
L 170.228991 288.080283 
L 170.299464 288.343614 
L 170.440421 288.16046 
L 170.510894 288.220851 
L 170.581369 287.919679 
L 170.651843 288.098074 
L 170.722317 287.969707 
L 170.792792 288.093835 
L 171.00421 287.816189 
L 171.074683 287.86125 
L 171.145158 287.65694 
L 171.215632 287.757488 
L 171.356581 287.801084 
L 171.427054 287.632878 
L 171.497528 287.777369 
L 171.567999 287.298829 
L 171.638472 287.586186 
L 171.708947 287.532892 
L 171.849895 287.29042 
L 171.920369 287.340731 
L 171.990843 287.109332 
L 172.061318 287.387127 
L 172.1318 287.115742 
L 172.202274 287.167869 
L 172.272748 287.331963 
L 172.625119 286.776475 
L 172.695589 287.040829 
L 172.766063 286.974034 
L 172.977486 286.822961 
L 173.047959 286.921877 
L 173.188908 286.468137 
L 173.400326 286.720297 
L 173.752697 286.111873 
L 173.964127 286.284834 
L 174.105076 286.069413 
L 174.175549 286.346855 
L 174.246024 286.232893 
L 174.457442 285.854063 
L 174.59839 286.147403 
L 174.809813 285.717836 
L 174.880287 285.82131 
L 174.950757 285.526082 
L 175.021231 285.662535 
L 175.091705 285.460761 
L 175.162179 285.778318 
L 175.232654 285.46903 
L 175.303127 285.501955 
L 175.373602 285.618981 
L 175.444076 285.334699 
L 175.514558 285.66555 
L 175.585032 285.183372 
L 175.655506 285.327439 
L 176.007877 285.005681 
L 176.078347 285.320987 
L 176.148821 284.926015 
L 176.219295 285.090936 
L 176.289769 285.074867 
L 176.430717 284.749506 
L 176.571666 285.038119 
L 176.642136 284.679908 
L 176.71261 284.914258 
L 176.783084 284.681037 
L 176.853558 284.761123 
L 176.994507 284.46193 
L 177.064981 284.740998 
L 177.135455 284.6992 
L 177.205937 284.420289 
L 177.276412 284.492175 
L 177.346885 284.496728 
L 177.41736 284.651253 
L 177.487834 284.186123 
L 177.558308 284.369702 
L 177.769726 284.300391 
L 177.981149 283.930086 
L 178.122097 284.105787 
L 178.192571 283.893703 
L 178.263045 284.004206 
L 178.333515 284.011215 
L 178.474464 283.693412 
L 178.544938 283.791253 
L 178.685886 283.620086 
L 178.826834 283.622629 
L 178.96779 283.611228 
L 179.108739 283.335688 
L 179.249687 283.505596 
L 179.320161 283.234505 
L 179.390635 283.614776 
L 179.461105 283.202949 
L 179.531579 283.21802 
L 179.602054 283.154278 
L 179.743002 283.42759 
L 179.813476 283.029186 
L 179.88395 283.279308 
L 180.024894 282.958426 
L 180.095368 283.295684 
L 180.306791 282.780117 
L 180.377265 283.079032 
L 180.518213 282.69468 
L 180.588696 282.676949 
L 180.65917 282.539939 
L 180.800118 282.932609 
L 180.870592 282.494525 
L 180.941066 282.613663 
L 181.01154 282.59601 
L 181.082014 282.802178 
L 181.293433 282.215903 
L 181.363907 282.246963 
L 181.504855 282.183025 
L 181.575329 282.471884 
L 181.645803 282.389274 
L 181.786748 282.311629 
L 181.857222 281.983364 
L 181.927696 282.057133 
L 181.99817 281.907238 
L 182.139118 282.257483 
L 182.350549 281.779329 
L 182.421023 281.818587 
L 182.561971 282.05729 
L 182.914338 281.582551 
L 182.984812 281.710886 
L 183.055286 281.429196 
L 183.12576 281.62547 
L 183.196234 281.519002 
L 183.337183 281.676727 
L 183.478127 281.299609 
L 183.548601 281.46172 
L 183.619075 281.149431 
L 183.689549 281.489993 
L 183.760023 281.471891 
L 184.112402 280.945611 
L 184.182876 281.242455 
L 184.323824 280.950919 
L 184.464773 280.63913 
L 184.535231 280.698696 
L 184.676179 280.986242 
L 184.887601 280.592517 
L 184.958076 280.642627 
L 185.02855 280.410672 
L 185.099032 280.478551 
L 185.169506 280.587489 
L 185.23998 280.498937 
L 185.451402 280.204113 
L 185.521877 280.564636 
L 185.592351 280.215024 
L 185.733295 280.485402 
L 185.944717 279.989702 
L 186.15614 280.076895 
L 186.22661 280.129633 
L 186.508506 279.747447 
L 186.578981 280.057726 
L 186.649455 279.823923 
L 186.719929 279.943849 
L 186.790411 279.796555 
L 186.860885 279.920698 
L 186.931359 279.624763 
L 187.001833 279.834668 
L 187.072307 279.37638 
L 187.142782 279.400216 
L 187.28373 279.754213 
L 187.495148 279.346138 
L 187.565622 279.55357 
L 187.636096 279.24999 
L 187.706571 279.532649 
L 187.777045 279.415526 
L 187.847519 279.381387 
L 187.917989 279.096931 
L 187.988463 279.19008 
L 188.058937 279.38879 
L 188.129411 279.25836 
L 188.622739 278.883624 
L 188.693213 279.046068 
L 188.763687 278.966623 
L 188.904635 278.527886 
L 188.975109 278.791695 
L 189.045579 278.558826 
L 189.257002 278.818685 
L 189.39795 278.273761 
L 189.468424 278.487718 
L 189.609368 278.212921 
L 189.750317 278.22191 
L 189.820791 278.553302 
L 189.891265 278.517148 
L 189.961739 278.441303 
L 190.032213 278.13982 
L 190.102687 278.399415 
L 190.173157 278.341143 
L 190.455054 277.983718 
L 190.525528 278.132034 
L 190.596002 277.791026 
L 190.666476 278.015145 
L 190.736958 277.957881 
L 190.877906 277.608898 
L 191.018855 277.934948 
L 191.300747 277.501808 
L 191.441695 277.794964 
L 191.582644 277.573756 
L 191.653118 277.458931 
L 191.723592 277.541012 
L 191.794067 277.593247 
L 191.864536 277.337992 
L 191.935011 277.528805 
L 192.005484 277.489817 
L 192.075959 277.468446 
L 192.216907 276.98193 
L 192.287381 277.071753 
L 192.357856 277.165853 
L 192.498812 276.972515 
L 192.780708 277.110583 
L 192.851182 276.915719 
L 192.921657 277.104496 
L 193.203549 276.545806 
L 193.62639 276.660286 
L 193.767338 276.548332 
L 193.837812 276.69317 
L 193.97876 276.188919 
L 194.049235 276.498464 
L 194.119717 276.262338 
L 194.190191 276.326051 
L 194.331139 276.218634 
L 194.401613 275.985763 
L 194.472087 276.135767 
L 194.542561 276.294251 
L 194.613036 276.194437 
L 194.75398 275.963585 
L 195.035876 276.001599 
L 195.10635 276.012584 
L 195.317769 275.595669 
L 195.388243 275.810229 
L 195.458717 275.704488 
L 195.599665 275.550593 
L 195.740614 275.518779 
L 195.811096 275.550474 
L 195.88157 275.744764 
L 196.092993 275.212272 
L 196.163466 275.180533 
L 196.233941 275.323839 
L 196.304415 275.119392 
L 196.374885 275.437792 
L 196.515833 275.032644 
L 196.656782 275.382763 
L 196.868204 275.084547 
L 196.938674 275.28238 
L 197.009148 274.979525 
L 197.079622 275.097386 
L 197.291045 274.952017 
L 197.361519 275.09884 
L 197.643424 274.516506 
L 197.713897 274.898838 
L 197.784371 274.575142 
L 197.92532 274.808808 
L 197.995793 274.596274 
L 198.066264 274.696506 
L 198.207213 274.723488 
L 198.277686 274.62627 
L 198.34816 274.224469 
L 198.418635 274.258764 
L 198.559582 274.50106 
L 198.700527 274.418944 
L 198.771002 274.343208 
L 198.841475 274.060493 
L 198.911949 274.097173 
L 198.982424 274.243014 
L 199.052898 273.944994 
L 199.193854 274.256066 
L 199.264328 273.968228 
L 199.334803 274.128285 
L 199.47575 273.718446 
L 199.616699 274.040051 
L 199.687173 273.742014 
L 199.757643 274.028819 
L 199.828117 273.551627 
L 199.898592 273.85954 
L 199.969066 273.59098 
L 200.039539 273.877591 
L 200.110014 273.817117 
L 200.321432 273.363092 
L 200.391906 273.316903 
L 200.532855 273.494581 
L 200.744277 273.361133 
L 200.814751 273.573901 
L 200.885233 273.511562 
L 200.955707 273.106342 
L 201.026182 273.390822 
L 201.096656 273.018992 
L 201.167129 273.156423 
L 201.308078 272.895954 
L 201.378552 273.229031 
L 201.449022 273.099121 
L 201.589971 272.913153 
L 201.660445 273.208932 
L 201.730918 272.847896 
L 201.801393 273.051825 
L 201.942341 272.675398 
L 202.012811 272.83736 
L 202.083285 272.789584 
L 202.15376 272.769407 
L 202.224234 272.512627 
L 202.294707 272.547887 
L 202.50613 272.731445 
L 202.647086 272.356066 
L 202.717561 272.360112 
L 202.788035 272.666873 
L 202.858508 272.248802 
L 202.928984 272.435229 
L 203.069931 272.134026 
L 203.210875 272.391595 
L 203.28135 272.023671 
L 203.351824 272.356068 
L 203.422298 272.033431 
L 203.492773 272.403235 
L 203.563246 272.212332 
L 203.63372 272.320018 
L 203.774664 271.936309 
L 203.915613 272.195119 
L 203.986087 271.771799 
L 204.056562 271.786045 
L 204.197509 272.03229 
L 204.40894 271.611361 
L 204.479414 271.815314 
L 204.549888 271.774839 
L 204.620363 271.848638 
L 204.690836 271.75877 
L 204.831781 271.420135 
L 204.972729 271.611918 
L 205.043203 271.249282 
L 205.113677 271.408129 
L 205.254625 271.481768 
L 205.536518 271.092476 
L 205.606992 271.253038 
L 205.677466 271.005573 
L 205.818414 271.263983 
L 205.888888 271.210542 
L 205.959371 271.321126 
L 206.311742 270.998637 
L 206.382216 271.07317 
L 206.452689 270.647159 
L 206.52316 270.924136 
L 206.664109 270.6072 
L 206.734582 270.912776 
L 206.805056 270.749714 
L 206.946005 270.416201 
L 207.016478 270.657598 
L 207.086949 270.415401 
L 207.157422 270.759648 
L 207.227898 270.695258 
L 207.298371 270.298679 
L 207.368845 270.495705 
L 207.43932 270.195887 
L 207.580267 270.482729 
L 207.721224 270.100718 
L 207.862172 270.406915 
L 208.073595 269.982643 
L 208.144068 270.121311 
L 208.214539 270.049632 
L 208.355488 269.957854 
L 208.425961 270.164366 
L 208.496435 269.77194 
L 208.56691 269.794791 
L 208.637384 270.069903 
L 208.707857 269.697721 
L 208.778328 269.784164 
L 208.919277 269.970458 
L 208.98975 269.803034 
L 209.060224 269.974452 
L 209.201173 269.488939 
L 209.271646 269.709438 
L 209.342129 269.376562 
L 209.412603 269.667906 
L 209.483078 269.502337 
L 209.553551 269.687018 
L 209.764974 269.31372 
L 209.905918 269.483911 
L 210.046865 269.131953 
L 210.187816 269.348513 
L 210.399237 268.913864 
L 210.540187 269.059387 
L 210.751611 268.988069 
L 210.822084 268.740822 
L 210.892558 268.793126 
L 210.963032 269.079094 
L 211.033502 268.860108 
L 211.103976 269.039751 
L 211.174449 268.988358 
L 211.3154 268.679174 
L 211.385873 268.725448 
L 211.456347 268.436227 
L 211.526821 268.774532 
L 211.597297 268.713837 
L 211.879195 268.260469 
L 212.020142 268.551307 
L 212.161092 268.171815 
L 212.231566 268.267986 
L 212.44299 268.020677 
L 212.654411 268.171252 
L 212.724881 268.311906 
L 212.936302 267.837037 
L 213.006779 268.076773 
L 213.077253 267.742441 
L 213.147726 267.880628 
L 213.35915 267.865072 
L 213.429624 267.556805 
L 213.500097 267.746849 
L 213.570574 267.573659 
L 213.641048 267.903744 
L 213.711521 267.790218 
L 213.852472 267.40008 
L 213.922945 267.448299 
L 213.993419 267.487361 
L 214.063892 267.748239 
L 214.134369 267.466134 
L 214.204843 267.602851 
L 214.275316 267.619009 
L 214.486734 267.085242 
L 214.557208 267.413743 
L 214.698158 267.068641 
L 214.768632 267.375463 
L 214.839105 267.023028 
L 214.909579 267.151277 
L 215.050529 266.813132 
L 215.121003 267.127223 
L 215.191476 267.096678 
L 215.261953 266.759353 
L 215.332427 266.896827 
L 215.4029 266.916897 
L 215.473374 266.671251 
L 215.543851 266.947414 
L 215.614324 266.807227 
L 215.684798 266.591858 
L 215.755272 266.632963 
L 215.825748 266.858293 
L 215.896222 266.600493 
L 215.966695 266.821982 
L 216.037169 266.734919 
L 216.10764 266.407633 
L 216.178113 266.601014 
L 216.248587 266.628717 
L 216.389537 266.376093 
L 216.530484 266.538917 
L 216.600958 266.579227 
L 216.671435 266.2416 
L 216.741908 266.433298 
L 216.812382 266.221198 
L 216.882856 266.262832 
L 216.953332 266.336818 
L 217.023806 266.220711 
L 217.09428 266.299461 
L 217.235224 266.050211 
L 217.376171 266.194263 
L 217.446645 265.757131 
L 217.517121 265.886735 
L 217.587595 265.98684 
L 217.728542 265.626289 
L 217.799019 265.984578 
L 217.869492 265.875741 
L 217.939966 265.890375 
L 218.080916 265.652528 
L 218.15139 265.804204 
L 218.221864 265.404679 
L 218.292337 265.73447 
L 218.362814 265.278188 
L 218.433288 265.64767 
L 218.503761 265.477122 
L 218.574235 265.363013 
L 218.644711 265.48628 
L 218.715185 265.113678 
L 218.785659 265.479784 
L 218.856132 265.288526 
L 218.926603 265.423431 
L 219.138024 264.909024 
L 219.278974 265.196057 
L 219.349448 264.796222 
L 219.419921 264.985146 
L 219.490398 264.801541 
L 219.560872 265.064632 
L 219.631345 265.016773 
L 219.701819 265.073576 
L 219.772296 264.604508 
L 219.842769 264.757693 
L 219.913243 264.943099 
L 219.983716 264.709019 
L 220.054193 264.802596 
L 220.19514 264.544782 
L 220.265614 264.716109 
L 220.336091 264.514971 
L 220.406564 264.680686 
L 220.477038 264.441372 
L 220.547511 264.694558 
L 220.758929 264.121763 
L 220.829403 264.22524 
L 220.970353 264.004673 
L 221.040827 264.140965 
L 221.111301 264.093589 
L 221.181777 264.109193 
L 221.322724 263.858023 
L 221.393198 264.153231 
L 221.463675 264.011479 
L 221.534148 264.091291 
L 221.604622 263.84174 
L 221.675096 264.136412 
L 221.745572 263.772433 
L 221.816046 263.893217 
L 221.956993 263.676683 
L 222.02747 263.842408 
L 222.168417 263.542197 
L 222.238891 263.823321 
L 222.379835 263.326923 
L 222.450308 263.35047 
L 222.520782 263.494507 
L 222.591259 263.345437 
L 222.661732 263.532025 
L 222.732206 263.446118 
L 222.873156 263.179115 
L 222.94363 263.155285 
L 223.014104 263.454547 
L 223.084577 262.975532 
L 223.155054 263.249018 
L 223.296001 262.867985 
L 223.366475 262.944278 
L 223.436951 262.752442 
L 223.507425 262.820879 
L 223.577899 262.78135 
L 223.648372 262.974913 
L 223.718849 262.623509 
L 223.789323 262.752208 
L 223.859796 262.633845 
L 223.93027 262.800099 
L 224.071214 262.449892 
L 224.141688 262.823816 
L 224.212161 262.3928 
L 224.282638 262.723718 
L 224.353112 262.693535 
L 224.423585 262.693024 
L 224.494059 262.376447 
L 224.564535 262.597606 
L 224.635009 262.467336 
L 224.705483 262.461409 
L 224.775956 262.232748 
L 224.846433 262.505686 
L 224.916907 262.3382 
L 225.057854 262.126902 
L 225.128331 262.223809 
L 225.198804 261.984902 
L 225.339751 262.208829 
L 225.551175 261.728097 
L 225.621649 262.016536 
L 225.762593 261.667319 
L 225.833067 261.949933 
L 225.90354 261.501763 
L 225.974017 261.768709 
L 226.255915 261.597864 
L 226.326388 261.68458 
L 226.537812 261.104306 
L 226.749233 261.157609 
L 226.960657 260.909519 
L 227.031131 261.265254 
L 227.101607 261.090796 
L 227.172081 261.23541 
L 227.383499 260.661818 
L 227.59492 260.938321 
L 227.665396 260.913817 
L 227.73587 260.639907 
L 227.806344 260.762601 
L 227.876817 260.713304 
L 227.947294 260.384899 
L 228.017767 260.648637 
L 228.088241 260.589563 
L 228.158715 260.247985 
L 228.229191 260.301407 
L 228.299665 260.499328 
L 228.440612 260.152004 
L 228.511089 260.457412 
L 228.652036 260.098674 
L 228.72251 260.124374 
L 228.792986 259.835654 
L 228.86346 260.197234 
L 228.933934 259.857357 
L 229.074878 260.122664 
L 229.145351 259.699459 
L 229.215825 259.946763 
L 229.356775 259.61423 
L 229.427249 259.910843 
L 229.497723 259.874636 
L 229.638673 259.362068 
L 229.709147 259.563282 
L 229.77962 259.320216 
L 229.850094 259.366011 
L 229.92057 259.34049 
L 229.991044 259.527776 
L 230.061518 259.090802 
L 230.131991 259.171303 
L 230.202468 259.204454 
L 230.272942 259.024819 
L 230.343415 259.371667 
L 230.413889 259.062178 
L 230.484366 259.190137 
L 230.766257 258.845282 
L 230.836731 259.051669 
L 230.907204 258.971873 
L 231.048155 258.773187 
L 231.118628 258.894905 
L 231.189102 258.39885 
L 231.259575 258.568999 
L 231.330052 258.733338 
L 231.470999 258.361674 
L 231.541473 258.547827 
L 231.61195 258.257567 
L 231.682423 258.492439 
L 231.823371 258.014326 
L 231.893847 258.042225 
L 231.964321 258.039401 
L 232.034794 258.168353 
L 232.246218 257.923837 
L 232.316692 257.99027 
L 232.387166 257.860591 
L 232.457636 257.951144 
L 232.739534 257.826599 
L 232.810007 257.387945 
L 232.880481 257.530467 
L 232.950955 257.759607 
L 233.021431 257.616409 
L 233.091905 257.385843 
L 233.162379 257.472641 
L 233.51475 257.154211 
L 233.726174 256.82577 
L 233.867124 257.04831 
L 233.937597 256.889938 
L 234.008071 257.008653 
L 234.078545 256.695702 
L 234.149015 256.780487 
L 234.289963 256.86719 
L 234.501387 256.288224 
L 234.57186 256.555504 
L 234.71281 256.363031 
L 234.783284 256.482981 
L 234.853758 256.43227 
L 234.924231 256.101834 
L 234.994708 256.323805 
L 235.065182 255.952115 
L 235.135655 255.998087 
L 235.48802 255.713772 
L 235.628968 255.876881 
L 235.910868 255.365848 
L 235.981342 255.577877 
L 236.051815 255.481606 
L 236.122289 255.571209 
L 236.192763 255.197734 
L 236.263236 255.465986 
L 236.333716 255.353635 
L 236.40419 254.996295 
L 236.474663 255.091068 
L 236.61561 255.218406 
L 236.686084 255.171631 
L 236.756558 254.749815 
L 236.827031 255.126899 
L 236.967979 254.599653 
L 237.108926 254.716539 
L 237.320347 254.308215 
L 237.39082 254.291057 
L 237.4613 254.603226 
L 237.602247 254.21171 
L 237.672721 254.461638 
L 237.743195 254.113989 
L 237.813668 254.310364 
L 237.884142 254.277224 
L 238.025095 254.055152 
L 238.166042 254.082566 
L 238.30699 253.566446 
L 238.447937 253.875714 
L 238.51841 253.668012 
L 238.58889 253.817847 
L 238.659358 253.750424 
L 238.800305 253.285545 
L 238.870779 253.578348 
L 238.941252 253.373866 
L 239.011726 253.409341 
L 239.0822 253.455102 
L 239.3641 252.827479 
L 239.434574 252.855035 
L 239.575521 252.747731 
L 239.645995 252.764058 
L 239.716474 252.600221 
L 239.786948 252.838424 
L 239.927895 252.450888 
L 239.998369 252.619173 
L 240.068842 252.466613 
L 240.20979 252.563879 
L 240.350737 252.189866 
L 240.421211 252.231718 
L 240.491684 252.045003 
L 240.562158 252.257112 
L 240.632631 252.145276 
L 240.703105 251.780493 
L 240.773579 252.136942 
L 240.985006 251.537612 
L 241.055479 251.581793 
L 241.125953 251.835422 
L 241.196426 251.519527 
L 241.2669 251.581186 
L 241.337374 251.505827 
L 241.407853 251.187648 
L 241.548801 251.439678 
L 241.619274 251.402857 
L 241.830695 250.782239 
L 241.971648 251.141378 
L 242.183063 250.578041 
L 242.253537 250.598097 
L 242.324011 250.799719 
L 242.394484 250.702287 
L 242.464958 250.324708 
L 242.535437 250.599547 
L 242.746858 250.169333 
L 242.817332 250.175795 
L 242.887806 250.320633 
L 243.169706 249.761377 
L 243.24018 249.951378 
L 243.310653 249.567852 
L 243.381127 249.756128 
L 243.451601 249.724942 
L 243.522074 249.528908 
L 243.592548 249.606319 
L 243.874442 249.409157 
L 243.944916 249.120202 
L 244.01539 249.383094 
L 244.156337 248.785728 
L 244.367764 249.05352 
L 244.579185 248.42204 
L 244.649658 248.548191 
L 244.790612 248.203601 
L 244.861085 248.340058 
L 245.002033 248.48353 
L 245.213453 247.831458 
L 245.283927 248.113354 
L 245.354407 247.81457 
L 245.424874 247.937802 
L 245.495348 247.851495 
L 245.565822 247.57877 
L 245.636295 247.885366 
L 245.777243 247.409306 
L 245.847716 247.605946 
L 245.918196 247.264741 
L 245.988669 247.387141 
L 246.129617 247.256916 
L 246.20009 247.36635 
L 246.341038 246.866708 
L 246.411511 246.949052 
L 246.481991 246.974542 
L 246.622938 246.6705 
L 246.763885 246.77156 
L 247.257201 245.951659 
L 247.327674 246.13316 
L 247.398148 246.0373 
L 247.539095 245.636556 
L 247.680049 245.86543 
L 247.750522 245.461639 
L 247.820996 245.737106 
L 247.891469 245.336486 
L 247.961943 245.359994 
L 248.032417 245.237786 
L 248.10289 245.488681 
L 248.314317 244.839597 
L 248.384791 245.029766 
L 248.455265 244.664689 
L 248.525738 244.869176 
L 248.596212 244.890891 
L 249.019054 244.372052 
L 249.089527 244.473747 
L 249.160001 243.950677 
L 249.230474 244.126044 
L 249.300954 244.200794 
L 249.512375 243.71182 
L 249.582849 243.733058 
L 249.653322 243.474275 
L 249.723796 243.640922 
L 249.79427 243.554016 
L 249.935223 243.283662 
L 250.146644 242.908129 
L 250.217117 242.827532 
L 250.287591 243.075323 
L 250.499012 242.611274 
L 250.569485 242.724523 
L 250.710433 242.466875 
L 250.780906 242.56684 
L 250.85138 242.492606 
L 250.921854 242.489902 
L 251.203754 241.745173 
L 251.274228 242.07129 
L 251.485649 241.612551 
L 251.556128 241.44351 
L 251.626602 241.676778 
L 251.697076 241.154129 
L 251.767549 241.370224 
L 251.838023 240.99221 
L 251.908496 241.173188 
L 252.049444 240.743301 
L 252.119923 240.978196 
L 252.190391 240.866528 
L 252.260865 240.593999 
L 252.331338 240.855059 
L 252.542759 240.164486 
L 252.613233 240.475355 
L 252.683712 240.33183 
L 252.895133 239.766702 
L 253.036081 239.585018 
L 253.106554 239.968888 
L 253.317975 239.415528 
L 253.388449 239.577487 
L 253.458922 239.202968 
L 253.529396 239.231407 
L 253.670343 239.27214 
L 253.88177 238.607282 
L 253.952244 238.66 
L 254.163665 238.478302 
L 254.304612 238.484477 
L 254.375092 238.025534 
L 254.445565 238.250444 
L 254.656986 237.673791 
L 254.72746 237.52793 
L 254.797933 237.804065 
L 254.868407 237.357956 
L 254.938887 237.467875 
L 255.009354 237.574368 
L 255.220775 236.896155 
L 255.291249 237.261505 
L 255.432196 236.655606 
L 255.573149 236.526711 
L 255.643623 236.691681 
L 255.78457 236.160741 
L 255.855044 236.390978 
L 255.925517 236.244524 
L 256.136944 235.762331 
L 256.207418 235.643213 
L 256.277892 235.868151 
L 256.559786 235.303986 
L 256.630266 235.463657 
L 256.700733 235.208563 
L 256.771207 235.285366 
L 256.841681 235.221785 
L 256.912154 234.666406 
L 256.982628 234.922661 
L 257.053102 234.591314 
L 257.123575 234.661875 
L 257.264528 234.414696 
L 257.475949 233.919305 
L 257.616897 233.760269 
L 257.68737 234.058645 
L 258.110218 233.021504 
L 258.180692 233.033608 
L 258.251165 233.218851 
L 258.321645 233.102344 
L 258.392113 232.659268 
L 258.462586 232.72228 
L 258.744481 232.274531 
L 258.814954 232.407322 
L 258.955908 231.91775 
L 259.026381 232.084785 
L 259.378749 231.190307 
L 259.449229 231.564248 
L 259.519703 231.362053 
L 259.590176 231.268896 
L 259.731124 230.875055 
L 259.801597 230.876879 
L 259.872071 230.48955 
L 259.942544 230.811389 
L 260.013024 230.404383 
L 260.083492 230.52351 
L 260.294913 230.255323 
L 260.365386 230.17453 
L 260.576813 229.513932 
L 260.647287 229.67148 
L 261.211082 228.514529 
L 261.422503 228.412713 
L 261.56345 227.987324 
L 261.633924 228.025521 
L 261.704403 227.776968 
L 261.774871 227.940027 
L 261.845345 227.539267 
L 261.915818 227.598335 
L 261.986292 227.627102 
L 262.40914 226.796066 
L 262.479613 226.818624 
L 262.761508 226.031065 
L 262.831987 226.245795 
L 262.902461 225.844945 
L 262.972935 225.870797 
L 263.043408 225.892028 
L 263.536724 224.897312 
L 263.607197 225.05814 
L 263.818618 224.568293 
L 263.959571 224.426308 
L 264.030045 223.860858 
L 264.100519 224.213109 
L 264.170992 223.635498 
L 264.241466 223.941841 
L 264.59384 222.998762 
L 264.664314 223.184442 
L 265.016682 222.279532 
L 265.087162 222.378106 
L 265.157629 222.30074 
L 265.228103 221.947674 
L 265.298576 222.006141 
L 265.439524 221.791704 
L 265.509997 221.657099 
L 265.580471 221.169095 
L 265.650951 221.243348 
L 265.791898 221.006235 
L 265.862372 221.080933 
L 265.932845 220.607669 
L 266.003319 220.698864 
L 266.073792 220.597565 
L 266.144266 220.203454 
L 266.214746 220.404933 
L 266.49664 219.666605 
L 266.567114 219.84064 
L 266.708061 219.350191 
L 266.778541 219.376005 
L 266.919482 218.880519 
L 267.34233 218.131977 
L 267.412803 218.21523 
L 267.553751 217.656116 
L 267.624224 217.762491 
L 267.835645 217.188136 
L 267.906125 216.924877 
L 267.976598 217.216756 
L 268.188019 216.554035 
L 268.258493 216.659533 
L 269.033709 214.771342 
L 269.104183 214.925464 
L 269.174656 214.790427 
L 269.386077 214.079168 
L 269.808925 213.613813 
L 269.879399 213.013502 
L 269.949872 213.327238 
L 270.443188 212.149524 
L 270.654608 211.55426 
L 270.725088 211.511385 
L 270.795562 211.176698 
L 270.866035 211.416503 
L 271.077456 210.578818 
L 271.14793 210.843831 
L 271.359357 210.032055 
L 271.42983 209.981972 
L 271.500304 209.664227 
L 271.570778 209.91451 
L 271.641251 209.416564 
L 271.711725 209.591348 
L 272.416467 207.894221 
L 272.557415 207.810471 
L 272.627888 207.211804 
L 272.698362 207.416819 
L 273.12121 206.309947 
L 273.403104 205.714792 
L 273.614525 205.01675 
L 273.684999 205.269327 
L 273.755472 205.116163 
L 274.037367 204.026925 
L 274.17832 204.112599 
L 274.389741 203.354863 
L 274.460215 203.458375 
L 274.742115 202.449911 
L 274.812589 202.565878 
L 275.02401 201.739557 
L 275.164957 201.463901 
L 275.517325 200.953633 
L 275.587799 200.408234 
L 275.658272 200.53003 
L 275.940167 199.845822 
L 276.01064 199.788308 
L 276.222061 199.097266 
L 276.292535 199.102716 
L 276.503968 198.338123 
L 276.785862 197.476538 
L 276.856336 197.655336 
L 277.138231 196.601864 
L 277.208704 196.826736 
L 277.561072 195.813623 
L 277.631546 195.380873 
L 277.70202 195.535587 
L 277.91344 194.968066 
L 277.983914 194.396318 
L 278.054394 194.426203 
L 278.336294 193.809765 
L 278.547715 192.99323 
L 278.688662 192.937365 
L 278.759136 192.762738 
L 278.82961 192.188345 
L 278.900083 192.467499 
L 279.111504 191.450461 
L 279.463872 190.910503 
L 279.745773 190.04145 
L 279.9572 189.633676 
L 280.168621 188.809929 
L 280.309574 188.598857 
L 280.520989 187.67101 
L 280.591462 187.411258 
L 280.661936 187.633106 
L 281.225725 185.626736 
L 281.296199 185.866432 
L 282.494263 182.107454 
L 282.564742 182.237079 
L 282.846631 181.247244 
L 282.917104 181.089592 
L 282.987578 180.516052 
L 283.058052 180.740516 
L 283.128531 180.526914 
L 283.339958 179.547221 
L 283.410432 179.622232 
L 283.833274 178.197885 
L 284.044694 177.651443 
L 284.326589 176.653884 
L 284.81991 175.10957 
L 285.031331 174.558816 
L 285.172279 174.275738 
L 285.313226 173.46309 
L 285.383705 173.563787 
L 285.595126 172.490221 
L 285.6656 172.559327 
L 285.877021 171.656218 
L 286.088442 171.02542 
L 286.158915 171.091996 
L 286.581769 169.329388 
L 286.934137 168.41882 
L 287.145558 167.644018 
L 287.216032 167.612683 
L 287.427453 166.499365 
L 287.497926 166.609569 
L 287.709347 165.930716 
L 287.991242 164.616762 
L 291.72638 151.478408 
L 291.867328 150.669087 
L 291.937801 150.583555 
L 292.149222 149.582536 
L 292.219696 149.681129 
L 292.360643 148.695682 
L 292.431117 148.844709 
L 292.642537 147.996157 
L 292.924432 146.574464 
L 293.135853 146.134644 
L 293.347274 145.092574 
L 293.981548 142.662724 
L 294.052022 142.46768 
L 294.333917 141.081018 
L 294.897706 138.68476 
L 294.968179 138.790044 
L 295.038665 138.040228 
L 295.109139 138.147958 
L 295.53198 136.045829 
L 295.743401 135.149355 
L 295.813875 135.231493 
L 296.236717 133.350132 
L 296.518611 132.295153 
L 296.730032 131.06493 
L 296.941453 130.448568 
L 297.152874 129.257642 
L 297.43478 128.182995 
L 297.505254 127.992747 
L 297.575728 127.328927 
L 297.646201 127.408071 
L 300.183264 115.563785 
L 300.465159 114.207539 
L 300.535632 114.230382 
L 300.888012 112.064028 
L 300.958486 111.934062 
L 301.240381 110.653282 
L 301.381328 109.890357 
L 302.297485 105.638821 
L 302.649865 103.689083 
L 302.93176 102.062669 
L 303.002233 102.187043 
L 303.284128 100.587167 
L 303.425075 99.705745 
L 303.91839 97.170781 
L 304.05935 96.807934 
L 304.482192 94.387316 
L 304.552665 94.251246 
L 305.468822 88.99289 
L 305.539296 89.035315 
L 306.878307 81.455654 
L 307.089728 80.469952 
L 307.583055 77.536844 
L 307.86495 75.857332 
L 308.005897 75.275404 
L 308.851581 70.475815 
L 309.063002 69.029241 
L 309.133487 68.902593 
L 309.485855 66.72858 
L 309.556329 66.467625 
L 309.838224 64.477263 
L 311.318182 55.8 
L 311.318182 55.8 
" clip-path="url(#peb6485814a)" style="fill: none; stroke: #1f77b4; stroke-width: 1.5; stroke-linecap: square"/>
   </g>
   <g id="line2d_12">
    <path d="M 57.681818 299.95864 
L 127.66262 299.847858 
L 137.529004 299.611763 
L 143.519301 299.258821 
L 147.95917 298.785182 
L 151.553352 298.188184 
L 154.724687 297.437912 
L 157.54365 296.546547 
L 160.221663 295.469785 
L 162.899685 294.150618 
L 165.718654 292.506197 
L 169.030937 290.299072 
L 180.306791 282.53353 
L 183.548601 280.720631 
L 187.001833 279.044881 
L 191.371222 277.187141 
L 204.831781 271.62872 
L 210.892558 268.765874 
L 220.124667 264.125411 
L 228.017767 259.951671 
L 232.880481 257.138569 
L 236.897511 254.56179 
L 240.421211 252.042752 
L 243.733495 249.400081 
L 246.834359 246.638871 
L 249.79427 243.701612 
L 252.613233 240.589682 
L 255.361722 237.219113 
L 258.039744 233.574594 
L 260.647287 229.645746 
L 263.254829 225.30802 
L 265.862372 220.53835 
L 268.610861 215.03953 
L 271.641251 208.45523 
L 275.305904 199.923004 
L 284.678957 177.811342 
L 287.497926 171.891118 
L 289.964528 167.205165 
L 292.290169 163.251256 
L 294.545338 159.855646 
L 296.730032 156.966422 
L 298.914739 154.447647 
L 301.099433 152.268669 
L 303.354601 150.339404 
L 305.680243 148.649845 
L 308.076371 147.184997 
L 310.613433 145.893943 
L 311.318182 145.576914 
L 311.318182 145.576914 
" clip-path="url(#peb6485814a)" style="fill: none; stroke: #ff7f0e; stroke-width: 1.5; stroke-linecap: square"/>
   </g>
   <g id="line2d_13">
    <path d="M 57.681818 299.973287 
L 127.733094 299.862837 
L 137.529004 299.629053 
L 143.519301 299.276824 
L 147.95917 298.802687 
L 151.553352 298.203644 
L 154.654213 297.468919 
L 157.473176 296.577502 
L 160.151189 295.498953 
L 162.82921 294.175983 
L 165.648179 292.525588 
L 168.960464 290.310445 
L 179.88395 282.766394 
L 183.12576 280.948547 
L 186.508506 279.314763 
L 190.525528 277.632961 
L 207.580267 270.786002 
L 213.641048 267.909251 
L 221.604622 263.869744 
L 228.370139 260.213273 
L 233.232852 257.340215 
L 237.249873 254.712473 
L 240.844058 252.096214 
L 244.156337 249.409489 
L 247.257201 246.609275 
L 250.217117 243.637842 
L 253.036081 240.49752 
L 255.78457 237.105033 
L 258.462586 233.447003 
L 261.140608 229.403562 
L 263.818618 224.942201 
L 266.49664 220.0422 
L 269.315603 214.412263 
L 272.416467 207.710542 
L 276.433494 198.450886 
L 284.044694 180.802864 
L 287.004611 174.573507 
L 289.541674 169.729731 
L 291.867328 165.744724 
L 294.122496 162.311372 
L 296.30719 159.383344 
L 298.491897 156.826912 
L 300.676591 154.613536 
L 302.861286 152.709958 
L 305.116454 151.033043 
L 307.512582 149.530509 
L 310.049644 148.207437 
L 311.318182 147.635329 
L 311.318182 147.635329 
" clip-path="url(#peb6485814a)" style="fill: none; stroke: #2ca02c; stroke-width: 1.5; stroke-linecap: square"/>
   </g>
   <g id="line2d_14">
    <path d="M 57.681818 299.609528 
L 126.182662 299.498585 
L 136.119516 299.263919 
L 142.250764 298.907467 
L 146.761112 298.431729 
L 150.425768 297.829947 
L 153.597103 297.090625 
L 156.48654 296.19254 
L 159.235029 295.105744 
L 161.983525 293.774931 
L 164.872956 292.121337 
L 168.326189 289.870996 
L 178.826834 282.831984 
L 182.139118 281.006647 
L 185.521877 279.397795 
L 189.609368 277.713386 
L 206.10032 271.201781 
L 211.879195 268.483204 
L 220.336091 264.230207 
L 228.158715 260.082222 
L 233.091905 257.224864 
L 237.108926 254.644995 
L 240.632631 252.12153 
L 243.874442 249.53027 
L 246.904833 246.82928 
L 249.79427 243.962634 
L 252.613233 240.852462 
L 255.361722 237.482514 
L 258.039744 233.83955 
L 260.647287 229.915512 
L 263.254829 225.588146 
L 265.932845 220.701376 
L 268.681335 215.215992 
L 271.711725 208.652312 
L 275.376378 200.142312 
L 285.313226 176.728051 
L 288.061715 170.995838 
L 290.528317 166.344339 
L 292.853958 162.425187 
L 295.038665 159.16286 
L 297.223347 156.295209 
L 299.408054 153.798613 
L 301.592749 151.642117 
L 303.777443 149.791029 
L 306.032623 148.162946 
L 308.428739 146.706098 
L 310.965814 145.424702 
L 311.318182 145.265477 
L 311.318182 145.265477 
" clip-path="url(#peb6485814a)" style="fill: none; stroke: #d62728; stroke-width: 1.5; stroke-linecap: square"/>
   </g>
   <g id="line2d_15">
    <path d="M 57.681818 299.668657 
L 126.816931 299.558289 
L 136.824258 299.324373 
L 142.955506 298.971466 
L 147.536322 298.491782 
L 151.200978 297.892808 
L 154.372316 297.157398 
L 157.261758 296.264313 
L 160.010241 295.183553 
L 162.758736 293.859656 
L 165.648179 292.213399 
L 169.030937 290.017901 
L 180.024894 282.667004 
L 183.337183 280.857157 
L 186.860885 279.192687 
L 191.159803 277.42297 
L 204.972729 271.919531 
L 210.469713 269.362035 
L 217.658069 265.74845 
L 226.467336 261.078761 
L 231.964321 257.927332 
L 236.192763 255.251313 
L 239.857422 252.672374 
L 243.169706 250.07528 
L 246.270564 247.36749 
L 249.230474 244.490908 
L 252.049444 241.446468 
L 254.797933 238.152439 
L 257.475949 234.594618 
L 260.083492 230.763235 
L 262.691034 226.536286 
L 265.36905 221.757274 
L 268.117546 216.381767 
L 271.077456 210.085033 
L 274.530688 202.187372 
L 286.229389 174.915597 
L 288.907411 169.536279 
L 291.303526 165.206216 
L 293.558695 161.572465 
L 295.743401 158.459667 
L 297.928096 155.731479 
L 300.11279 153.3614 
L 302.297485 151.317069 
L 304.552665 149.511534 
L 306.878307 147.933762 
L 309.344908 146.531736 
L 311.318182 145.582667 
L 311.318182 145.582667 
" clip-path="url(#peb6485814a)" style="fill: none; stroke: #9467bd; stroke-width: 1.5; stroke-linecap: square"/>
   </g>
   <g id="line2d_16">
    <path d="M 57.681818 300.348091 
L 127.592147 300.237328 
L 137.31758 300.003324 
L 143.237404 299.652941 
L 147.677273 299.175136 
L 151.271455 298.569112 
L 154.372316 297.823388 
L 157.191285 296.916063 
L 159.869293 295.815544 
L 162.476843 294.501557 
L 165.225327 292.862533 
L 168.396663 290.702319 
L 179.954424 282.556631 
L 183.12576 280.770509 
L 186.438032 279.16327 
L 190.525528 277.442884 
L 206.664109 270.919898 
L 212.936302 267.953399 
L 222.02747 263.385395 
L 228.933934 259.701461 
L 233.6557 256.939303 
L 237.602247 254.375805 
L 241.125953 251.821562 
L 244.367764 249.197374 
L 247.398148 246.462097 
L 250.287591 243.559381 
L 253.106554 240.410035 
L 255.855044 236.996829 
L 258.53306 233.305492 
L 261.140608 229.327324 
L 263.748145 224.938756 
L 266.426167 219.983316 
L 269.24513 214.277425 
L 272.345988 207.471509 
L 276.222061 198.386339 
L 284.256121 179.414516 
L 287.145558 173.247421 
L 289.682621 168.337733 
L 292.008275 164.303657 
L 294.263443 160.831681 
L 296.448138 157.873228 
L 298.632844 155.291962 
L 300.817539 153.058199 
L 303.002233 151.137731 
L 305.257401 149.446257 
L 307.653529 147.930757 
L 310.190592 146.596131 
L 311.318182 146.080362 
L 311.318182 146.080362 
" clip-path="url(#peb6485814a)" style="fill: none; stroke: #8c564b; stroke-width: 1.5; stroke-linecap: square"/>
   </g>
   <g id="line2d_17">
    <path d="M 57.681818 299.803545 
L 127.098831 299.692361 
L 136.965209 299.457072 
L 143.02598 299.100841 
L 147.465849 298.627852 
L 151.130505 298.01879 
L 154.301839 297.267027 
L 157.120808 296.375682 
L 159.798818 295.300969 
L 162.476843 293.986696 
L 165.2958 292.351305 
L 168.608085 290.160324 
L 179.672528 282.609847 
L 182.914338 280.814837 
L 186.297084 279.199064 
L 190.38458 277.504604 
L 206.52316 271.078959 
L 212.44299 268.29611 
L 220.477038 264.253618 
L 227.876817 260.30879 
L 232.880481 257.398246 
L 236.967979 254.764923 
L 240.562158 252.185677 
L 243.874442 249.534254 
L 246.975306 246.766726 
L 249.935223 243.824895 
L 252.754186 240.71017 
L 255.502676 237.339062 
L 258.180692 233.697266 
L 260.788234 229.775552 
L 263.395782 225.450858 
L 266.073792 220.566929 
L 268.822282 215.085367 
L 271.852678 208.530067 
L 275.587799 199.876713 
L 284.81991 178.213559 
L 287.638874 172.310408 
L 290.105475 167.633923 
L 292.431117 163.685905 
L 294.686285 160.294503 
L 296.870979 157.408909 
L 299.055686 154.89394 
L 301.240381 152.719258 
L 303.425075 150.850603 
L 305.680243 149.205346 
L 308.076371 147.731539 
L 310.613433 146.433741 
L 311.318182 146.115254 
L 311.318182 146.115254 
" clip-path="url(#peb6485814a)" style="fill: none; stroke: #e377c2; stroke-width: 1.5; stroke-linecap: square"/>
   </g>
   <g id="patch_3">
    <path d="M 45 320.4 
L 45 43.2 
" style="fill: none; stroke: #000000; stroke-width: 0.8; stroke-linejoin: miter; stroke-linecap: square"/>
   </g>
   <g id="patch_4">
    <path d="M 324 320.4 
L 324 43.2 
" style="fill: none; stroke: #000000; stroke-width: 0.8; stroke-linejoin: miter; stroke-linecap: square"/>
   </g>
   <g id="patch_5">
    <path d="M 45 320.4 
L 324 320.4 
" style="fill: none; stroke: #000000; stroke-width: 0.8; stroke-linejoin: miter; stroke-linecap: square"/>
   </g>
   <g id="patch_6">
    <path d="M 45 43.2 
L 324 43.2 
" style="fill: none; stroke: #000000; stroke-width: 0.8; stroke-linejoin: miter; stroke-linecap: square"/>
   </g>
   <g id="text_11">
    <!-- Prediction Curves -->
    <g transform="translate(131.961563 37.2)scale(0.12 -0.12)">
     <defs>
      <path id="DejaVuSans-50" d="M 1259 4147 
L 1259 2394 
L 2053 2394 
Q 2494 2394 2734 2622 
Q 2975 2850 2975 3272 
Q 2975 3691 2734 3919 
Q 2494 4147 2053 4147 
L 1259 4147 
z
M 628 4666 
L 2053 4666 
Q 2838 4666 3239 4311 
Q 3641 3956 3641 3272 
Q 3641 2581 3239 2228 
Q 2838 1875 2053 1875 
L 1259 1875 
L 1259 0 
L 628 0 
L 628 4666 
z
" transform="scale(0.015625)"/>
      <path id="DejaVuSans-72" d="M 2631 2963 
Q 2534 3019 2420 3045 
Q 2306 3072 2169 3072 
Q 1681 3072 1420 2755 
Q 1159 2438 1159 1844 
L 1159 0 
L 581 0 
L 581 3500 
L 1159 3500 
L 1159 2956 
Q 1341 3275 1631 3429 
Q 1922 3584 2338 3584 
Q 2397 3584 2469 3576 
Q 2541 3569 2628 3553 
L 2631 2963 
z
" transform="scale(0.015625)"/>
      <path id="DejaVuSans-65" d="M 3597 1894 
L 3597 1613 
L 953 1613 
Q 991 1019 1311 708 
Q 1631 397 2203 397 
Q 2534 397 2845 478 
Q 3156 559 3463 722 
L 3463 178 
Q 3153 47 2828 -22 
Q 2503 -91 2169 -91 
Q 1331 -91 842 396 
Q 353 884 353 1716 
Q 353 2575 817 3079 
Q 1281 3584 2069 3584 
Q 2775 3584 3186 3129 
Q 3597 2675 3597 1894 
z
M 3022 2063 
Q 3016 2534 2758 2815 
Q 2500 3097 2075 3097 
Q 1594 3097 1305 2825 
Q 1016 2553 972 2059 
L 3022 2063 
z
" transform="scale(0.015625)"/>
      <path id="DejaVuSans-64" d="M 2906 2969 
L 2906 4863 
L 3481 4863 
L 3481 0 
L 2906 0 
L 2906 525 
Q 2725 213 2448 61 
Q 2172 -91 1784 -91 
Q 1150 -91 751 415 
Q 353 922 353 1747 
Q 353 2572 751 3078 
Q 1150 3584 1784 3584 
Q 2172 3584 2448 3432 
Q 2725 3281 2906 2969 
z
M 947 1747 
Q 947 1113 1208 752 
Q 1469 391 1925 391 
Q 2381 391 2643 752 
Q 2906 1113 2906 1747 
Q 2906 2381 2643 2742 
Q 2381 3103 1925 3103 
Q 1469 3103 1208 2742 
Q 947 2381 947 1747 
z
" transform="scale(0.015625)"/>
      <path id="DejaVuSans-69" d="M 603 3500 
L 1178 3500 
L 1178 0 
L 603 0 
L 603 3500 
z
M 603 4863 
L 1178 4863 
L 1178 4134 
L 603 4134 
L 603 4863 
z
" transform="scale(0.015625)"/>
      <path id="DejaVuSans-63" d="M 3122 3366 
L 3122 2828 
Q 2878 2963 2633 3030 
Q 2388 3097 2138 3097 
Q 1578 3097 1268 2742 
Q 959 2388 959 1747 
Q 959 1106 1268 751 
Q 1578 397 2138 397 
Q 2388 397 2633 464 
Q 2878 531 3122 666 
L 3122 134 
Q 2881 22 2623 -34 
Q 2366 -91 2075 -91 
Q 1284 -91 818 406 
Q 353 903 353 1747 
Q 353 2603 823 3093 
Q 1294 3584 2113 3584 
Q 2378 3584 2631 3529 
Q 2884 3475 3122 3366 
z
" transform="scale(0.015625)"/>
      <path id="DejaVuSans-74" d="M 1172 4494 
L 1172 3500 
L 2356 3500 
L 2356 3053 
L 1172 3053 
L 1172 1153 
Q 1172 725 1289 603 
Q 1406 481 1766 481 
L 2356 481 
L 2356 0 
L 1766 0 
Q 1100 0 847 248 
Q 594 497 594 1153 
L 594 3053 
L 172 3053 
L 172 3500 
L 594 3500 
L 594 4494 
L 1172 4494 
z
" transform="scale(0.015625)"/>
      <path id="DejaVuSans-6f" d="M 1959 3097 
Q 1497 3097 1228 2736 
Q 959 2375 959 1747 
Q 959 1119 1226 758 
Q 1494 397 1959 397 
Q 2419 397 2687 759 
Q 2956 1122 2956 1747 
Q 2956 2369 2687 2733 
Q 2419 3097 1959 3097 
z
M 1959 3584 
Q 2709 3584 3137 3096 
Q 3566 2609 3566 1747 
Q 3566 888 3137 398 
Q 2709 -91 1959 -91 
Q 1206 -91 779 398 
Q 353 888 353 1747 
Q 353 2609 779 3096 
Q 1206 3584 1959 3584 
z
" transform="scale(0.015625)"/>
      <path id="DejaVuSans-6e" d="M 3513 2113 
L 3513 0 
L 2938 0 
L 2938 2094 
Q 2938 2591 2744 2837 
Q 2550 3084 2163 3084 
Q 1697 3084 1428 2787 
Q 1159 2491 1159 1978 
L 1159 0 
L 581 0 
L 581 3500 
L 1159 3500 
L 1159 2956 
Q 1366 3272 1645 3428 
Q 1925 3584 2291 3584 
Q 2894 3584 3203 3211 
Q 3513 2838 3513 2113 
z
" transform="scale(0.015625)"/>
      <path id="DejaVuSans-20" transform="scale(0.015625)"/>
      <path id="DejaVuSans-43" d="M 4122 4306 
L 4122 3641 
Q 3803 3938 3442 4084 
Q 3081 4231 2675 4231 
Q 1875 4231 1450 3742 
Q 1025 3253 1025 2328 
Q 1025 1406 1450 917 
Q 1875 428 2675 428 
Q 3081 428 3442 575 
Q 3803 722 4122 1019 
L 4122 359 
Q 3791 134 3420 21 
Q 3050 -91 2638 -91 
Q 1578 -91 968 557 
Q 359 1206 359 2328 
Q 359 3453 968 4101 
Q 1578 4750 2638 4750 
Q 3056 4750 3426 4639 
Q 3797 4528 4122 4306 
z
" transform="scale(0.015625)"/>
      <path id="DejaVuSans-75" d="M 544 1381 
L 544 3500 
L 1119 3500 
L 1119 1403 
Q 1119 906 1312 657 
Q 1506 409 1894 409 
Q 2359 409 2629 706 
Q 2900 1003 2900 1516 
L 2900 3500 
L 3475 3500 
L 3475 0 
L 2900 0 
L 2900 538 
Q 2691 219 2414 64 
Q 2138 -91 1772 -91 
Q 1169 -91 856 284 
Q 544 659 544 1381 
z
M 1991 3584 
L 1991 3584 
z
" transform="scale(0.015625)"/>
      <path id="DejaVuSans-76" d="M 191 3500 
L 800 3500 
L 1894 563 
L 2988 3500 
L 3597 3500 
L 2284 0 
L 1503 0 
L 191 3500 
z
" transform="scale(0.015625)"/>
      <path id="DejaVuSans-73" d="M 2834 3397 
L 2834 2853 
Q 2591 2978 2328 3040 
Q 2066 3103 1784 3103 
Q 1356 3103 1142 2972 
Q 928 2841 928 2578 
Q 928 2378 1081 2264 
Q 1234 2150 1697 2047 
L 1894 2003 
Q 2506 1872 2764 1633 
Q 3022 1394 3022 966 
Q 3022 478 2636 193 
Q 2250 -91 1575 -91 
Q 1294 -91 989 -36 
Q 684 19 347 128 
L 347 722 
Q 666 556 975 473 
Q 1284 391 1588 391 
Q 1994 391 2212 530 
Q 2431 669 2431 922 
Q 2431 1156 2273 1281 
Q 2116 1406 1581 1522 
L 1381 1569 
Q 847 1681 609 1914 
Q 372 2147 372 2553 
Q 372 3047 722 3315 
Q 1072 3584 1716 3584 
Q 2034 3584 2315 3537 
Q 2597 3491 2834 3397 
z
" transform="scale(0.015625)"/>
     </defs>
     <use xlink:href="#DejaVuSans-50"/>
     <use xlink:href="#DejaVuSans-72" x="58.552734"/>
     <use xlink:href="#DejaVuSans-65" x="97.416016"/>
     <use xlink:href="#DejaVuSans-64" x="158.939453"/>
     <use xlink:href="#DejaVuSans-69" x="222.416016"/>
     <use xlink:href="#DejaVuSans-63" x="250.199219"/>
     <use xlink:href="#DejaVuSans-74" x="305.179688"/>
     <use xlink:href="#DejaVuSans-69" x="344.388672"/>
     <use xlink:href="#DejaVuSans-6f" x="372.171875"/>
     <use xlink:href="#DejaVuSans-6e" x="433.353516"/>
     <use xlink:href="#DejaVuSans-20" x="496.732422"/>
     <use xlink:href="#DejaVuSans-43" x="528.519531"/>
     <use xlink:href="#DejaVuSans-75" x="598.34375"/>
     <use xlink:href="#DejaVuSans-72" x="661.722656"/>
     <use xlink:href="#DejaVuSans-76" x="702.835938"/>
     <use xlink:href="#DejaVuSans-65" x="762.015625"/>
     <use xlink:href="#DejaVuSans-73" x="823.539062"/>
    </g>
   </g>
   <g id="legend_1">
    <g id="patch_7">
     <path d="M 52 153.946875 
L 195.94375 153.946875 
Q 197.94375 153.946875 197.94375 151.946875 
L 197.94375 50.2 
Q 197.94375 48.2 195.94375 48.2 
L 52 48.2 
Q 50 48.2 50 50.2 
L 50 151.946875 
Q 50 153.946875 52 153.946875 
z
" style="fill: #ffffff; opacity: 0.8; stroke: #cccccc; stroke-linejoin: miter"/>
    </g>
    <g id="line2d_18">
     <path d="M 54 56.298437 
L 64 56.298437 
L 74 56.298437 
" style="fill: none; stroke: #1f77b4; stroke-width: 1.5; stroke-linecap: square"/>
    </g>
    <g id="text_12">
     <!-- Function with noise -->
     <g transform="translate(82 59.798437)scale(0.1 -0.1)">
      <defs>
       <path id="DejaVuSans-46" d="M 628 4666 
L 3309 4666 
L 3309 4134 
L 1259 4134 
L 1259 2759 
L 3109 2759 
L 3109 2228 
L 1259 2228 
L 1259 0 
L 628 0 
L 628 4666 
z
" transform="scale(0.015625)"/>
       <path id="DejaVuSans-77" d="M 269 3500 
L 844 3500 
L 1563 769 
L 2278 3500 
L 2956 3500 
L 3675 769 
L 4391 3500 
L 4966 3500 
L 4050 0 
L 3372 0 
L 2619 2869 
L 1863 0 
L 1184 0 
L 269 3500 
z
" transform="scale(0.015625)"/>
       <path id="DejaVuSans-68" d="M 3513 2113 
L 3513 0 
L 2938 0 
L 2938 2094 
Q 2938 2591 2744 2837 
Q 2550 3084 2163 3084 
Q 1697 3084 1428 2787 
Q 1159 2491 1159 1978 
L 1159 0 
L 581 0 
L 581 4863 
L 1159 4863 
L 1159 2956 
Q 1366 3272 1645 3428 
Q 1925 3584 2291 3584 
Q 2894 3584 3203 3211 
Q 3513 2838 3513 2113 
z
" transform="scale(0.015625)"/>
      </defs>
      <use xlink:href="#DejaVuSans-46"/>
      <use xlink:href="#DejaVuSans-75" x="52.019531"/>
      <use xlink:href="#DejaVuSans-6e" x="115.398438"/>
      <use xlink:href="#DejaVuSans-63" x="178.777344"/>
      <use xlink:href="#DejaVuSans-74" x="233.757812"/>
      <use xlink:href="#DejaVuSans-69" x="272.966797"/>
      <use xlink:href="#DejaVuSans-6f" x="300.75"/>
      <use xlink:href="#DejaVuSans-6e" x="361.931641"/>
      <use xlink:href="#DejaVuSans-20" x="425.310547"/>
      <use xlink:href="#DejaVuSans-77" x="457.097656"/>
      <use xlink:href="#DejaVuSans-69" x="538.884766"/>
      <use xlink:href="#DejaVuSans-74" x="566.667969"/>
      <use xlink:href="#DejaVuSans-68" x="605.876953"/>
      <use xlink:href="#DejaVuSans-20" x="669.255859"/>
      <use xlink:href="#DejaVuSans-6e" x="701.042969"/>
      <use xlink:href="#DejaVuSans-6f" x="764.421875"/>
      <use xlink:href="#DejaVuSans-69" x="825.603516"/>
      <use xlink:href="#DejaVuSans-73" x="853.386719"/>
      <use xlink:href="#DejaVuSans-65" x="905.486328"/>
     </g>
    </g>
    <g id="line2d_19">
     <path d="M 54 70.976562 
L 64 70.976562 
L 74 70.976562 
" style="fill: none; stroke: #ff7f0e; stroke-width: 1.5; stroke-linecap: square"/>
    </g>
    <g id="text_13">
     <!-- Prediction 1 -->
     <g transform="translate(82 74.476562)scale(0.1 -0.1)">
      <use xlink:href="#DejaVuSans-50"/>
      <use xlink:href="#DejaVuSans-72" x="58.552734"/>
      <use xlink:href="#DejaVuSans-65" x="97.416016"/>
      <use xlink:href="#DejaVuSans-64" x="158.939453"/>
      <use xlink:href="#DejaVuSans-69" x="222.416016"/>
      <use xlink:href="#DejaVuSans-63" x="250.199219"/>
      <use xlink:href="#DejaVuSans-74" x="305.179688"/>
      <use xlink:href="#DejaVuSans-69" x="344.388672"/>
      <use xlink:href="#DejaVuSans-6f" x="372.171875"/>
      <use xlink:href="#DejaVuSans-6e" x="433.353516"/>
      <use xlink:href="#DejaVuSans-20" x="496.732422"/>
      <use xlink:href="#DejaVuSans-31" x="528.519531"/>
     </g>
    </g>
    <g id="line2d_20">
     <path d="M 54 85.654687 
L 64 85.654687 
L 74 85.654687 
" style="fill: none; stroke: #2ca02c; stroke-width: 1.5; stroke-linecap: square"/>
    </g>
    <g id="text_14">
     <!-- Prediction 2 -->
     <g transform="translate(82 89.154687)scale(0.1 -0.1)">
      <use xlink:href="#DejaVuSans-50"/>
      <use xlink:href="#DejaVuSans-72" x="58.552734"/>
      <use xlink:href="#DejaVuSans-65" x="97.416016"/>
      <use xlink:href="#DejaVuSans-64" x="158.939453"/>
      <use xlink:href="#DejaVuSans-69" x="222.416016"/>
      <use xlink:href="#DejaVuSans-63" x="250.199219"/>
      <use xlink:href="#DejaVuSans-74" x="305.179688"/>
      <use xlink:href="#DejaVuSans-69" x="344.388672"/>
      <use xlink:href="#DejaVuSans-6f" x="372.171875"/>
      <use xlink:href="#DejaVuSans-6e" x="433.353516"/>
      <use xlink:href="#DejaVuSans-20" x="496.732422"/>
      <use xlink:href="#DejaVuSans-32" x="528.519531"/>
     </g>
    </g>
    <g id="line2d_21">
     <path d="M 54 100.332812 
L 64 100.332812 
L 74 100.332812 
" style="fill: none; stroke: #d62728; stroke-width: 1.5; stroke-linecap: square"/>
    </g>
    <g id="text_15">
     <!-- Prediction 3 -->
     <g transform="translate(82 103.832812)scale(0.1 -0.1)">
      <use xlink:href="#DejaVuSans-50"/>
      <use xlink:href="#DejaVuSans-72" x="58.552734"/>
      <use xlink:href="#DejaVuSans-65" x="97.416016"/>
      <use xlink:href="#DejaVuSans-64" x="158.939453"/>
      <use xlink:href="#DejaVuSans-69" x="222.416016"/>
      <use xlink:href="#DejaVuSans-63" x="250.199219"/>
      <use xlink:href="#DejaVuSans-74" x="305.179688"/>
      <use xlink:href="#DejaVuSans-69" x="344.388672"/>
      <use xlink:href="#DejaVuSans-6f" x="372.171875"/>
      <use xlink:href="#DejaVuSans-6e" x="433.353516"/>
      <use xlink:href="#DejaVuSans-20" x="496.732422"/>
      <use xlink:href="#DejaVuSans-33" x="528.519531"/>
     </g>
    </g>
    <g id="line2d_22">
     <path d="M 54 115.010937 
L 64 115.010937 
L 74 115.010937 
" style="fill: none; stroke: #9467bd; stroke-width: 1.5; stroke-linecap: square"/>
    </g>
    <g id="text_16">
     <!-- Prediction 4 -->
     <g transform="translate(82 118.510937)scale(0.1 -0.1)">
      <use xlink:href="#DejaVuSans-50"/>
      <use xlink:href="#DejaVuSans-72" x="58.552734"/>
      <use xlink:href="#DejaVuSans-65" x="97.416016"/>
      <use xlink:href="#DejaVuSans-64" x="158.939453"/>
      <use xlink:href="#DejaVuSans-69" x="222.416016"/>
      <use xlink:href="#DejaVuSans-63" x="250.199219"/>
      <use xlink:href="#DejaVuSans-74" x="305.179688"/>
      <use xlink:href="#DejaVuSans-69" x="344.388672"/>
      <use xlink:href="#DejaVuSans-6f" x="372.171875"/>
      <use xlink:href="#DejaVuSans-6e" x="433.353516"/>
      <use xlink:href="#DejaVuSans-20" x="496.732422"/>
      <use xlink:href="#DejaVuSans-34" x="528.519531"/>
     </g>
    </g>
    <g id="line2d_23">
     <path d="M 54 129.689062 
L 64 129.689062 
L 74 129.689062 
" style="fill: none; stroke: #8c564b; stroke-width: 1.5; stroke-linecap: square"/>
    </g>
    <g id="text_17">
     <!-- Prediction 5 -->
     <g transform="translate(82 133.189062)scale(0.1 -0.1)">
      <defs>
       <path id="DejaVuSans-35" d="M 691 4666 
L 3169 4666 
L 3169 4134 
L 1269 4134 
L 1269 2991 
Q 1406 3038 1543 3061 
Q 1681 3084 1819 3084 
Q 2600 3084 3056 2656 
Q 3513 2228 3513 1497 
Q 3513 744 3044 326 
Q 2575 -91 1722 -91 
Q 1428 -91 1123 -41 
Q 819 9 494 109 
L 494 744 
Q 775 591 1075 516 
Q 1375 441 1709 441 
Q 2250 441 2565 725 
Q 2881 1009 2881 1497 
Q 2881 1984 2565 2268 
Q 2250 2553 1709 2553 
Q 1456 2553 1204 2497 
Q 953 2441 691 2322 
L 691 4666 
z
" transform="scale(0.015625)"/>
      </defs>
      <use xlink:href="#DejaVuSans-50"/>
      <use xlink:href="#DejaVuSans-72" x="58.552734"/>
      <use xlink:href="#DejaVuSans-65" x="97.416016"/>
      <use xlink:href="#DejaVuSans-64" x="158.939453"/>
      <use xlink:href="#DejaVuSans-69" x="222.416016"/>
      <use xlink:href="#DejaVuSans-63" x="250.199219"/>
      <use xlink:href="#DejaVuSans-74" x="305.179688"/>
      <use xlink:href="#DejaVuSans-69" x="344.388672"/>
      <use xlink:href="#DejaVuSans-6f" x="372.171875"/>
      <use xlink:href="#DejaVuSans-6e" x="433.353516"/>
      <use xlink:href="#DejaVuSans-20" x="496.732422"/>
      <use xlink:href="#DejaVuSans-35" x="528.519531"/>
     </g>
    </g>
    <g id="line2d_24">
     <path d="M 54 144.367187 
L 64 144.367187 
L 74 144.367187 
" style="fill: none; stroke: #e377c2; stroke-width: 1.5; stroke-linecap: square"/>
    </g>
    <g id="text_18">
     <!-- Average of Predictions -->
     <g transform="translate(82 147.867187)scale(0.1 -0.1)">
      <defs>
       <path id="DejaVuSans-41" d="M 2188 4044 
L 1331 1722 
L 3047 1722 
L 2188 4044 
z
M 1831 4666 
L 2547 4666 
L 4325 0 
L 3669 0 
L 3244 1197 
L 1141 1197 
L 716 0 
L 50 0 
L 1831 4666 
z
" transform="scale(0.015625)"/>
       <path id="DejaVuSans-61" d="M 2194 1759 
Q 1497 1759 1228 1600 
Q 959 1441 959 1056 
Q 959 750 1161 570 
Q 1363 391 1709 391 
Q 2188 391 2477 730 
Q 2766 1069 2766 1631 
L 2766 1759 
L 2194 1759 
z
M 3341 1997 
L 3341 0 
L 2766 0 
L 2766 531 
Q 2569 213 2275 61 
Q 1981 -91 1556 -91 
Q 1019 -91 701 211 
Q 384 513 384 1019 
Q 384 1609 779 1909 
Q 1175 2209 1959 2209 
L 2766 2209 
L 2766 2266 
Q 2766 2663 2505 2880 
Q 2244 3097 1772 3097 
Q 1472 3097 1187 3025 
Q 903 2953 641 2809 
L 641 3341 
Q 956 3463 1253 3523 
Q 1550 3584 1831 3584 
Q 2591 3584 2966 3190 
Q 3341 2797 3341 1997 
z
" transform="scale(0.015625)"/>
       <path id="DejaVuSans-67" d="M 2906 1791 
Q 2906 2416 2648 2759 
Q 2391 3103 1925 3103 
Q 1463 3103 1205 2759 
Q 947 2416 947 1791 
Q 947 1169 1205 825 
Q 1463 481 1925 481 
Q 2391 481 2648 825 
Q 2906 1169 2906 1791 
z
M 3481 434 
Q 3481 -459 3084 -895 
Q 2688 -1331 1869 -1331 
Q 1566 -1331 1297 -1286 
Q 1028 -1241 775 -1147 
L 775 -588 
Q 1028 -725 1275 -790 
Q 1522 -856 1778 -856 
Q 2344 -856 2625 -561 
Q 2906 -266 2906 331 
L 2906 616 
Q 2728 306 2450 153 
Q 2172 0 1784 0 
Q 1141 0 747 490 
Q 353 981 353 1791 
Q 353 2603 747 3093 
Q 1141 3584 1784 3584 
Q 2172 3584 2450 3431 
Q 2728 3278 2906 2969 
L 2906 3500 
L 3481 3500 
L 3481 434 
z
" transform="scale(0.015625)"/>
       <path id="DejaVuSans-66" d="M 2375 4863 
L 2375 4384 
L 1825 4384 
Q 1516 4384 1395 4259 
Q 1275 4134 1275 3809 
L 1275 3500 
L 2222 3500 
L 2222 3053 
L 1275 3053 
L 1275 0 
L 697 0 
L 697 3053 
L 147 3053 
L 147 3500 
L 697 3500 
L 697 3744 
Q 697 4328 969 4595 
Q 1241 4863 1831 4863 
L 2375 4863 
z
" transform="scale(0.015625)"/>
      </defs>
      <use xlink:href="#DejaVuSans-41"/>
      <use xlink:href="#DejaVuSans-76" x="62.533203"/>
      <use xlink:href="#DejaVuSans-65" x="121.712891"/>
      <use xlink:href="#DejaVuSans-72" x="183.236328"/>
      <use xlink:href="#DejaVuSans-61" x="224.349609"/>
      <use xlink:href="#DejaVuSans-67" x="285.628906"/>
      <use xlink:href="#DejaVuSans-65" x="349.105469"/>
      <use xlink:href="#DejaVuSans-20" x="410.628906"/>
      <use xlink:href="#DejaVuSans-6f" x="442.416016"/>
      <use xlink:href="#DejaVuSans-66" x="503.597656"/>
      <use xlink:href="#DejaVuSans-20" x="538.802734"/>
      <use xlink:href="#DejaVuSans-50" x="570.589844"/>
      <use xlink:href="#DejaVuSans-72" x="629.142578"/>
      <use xlink:href="#DejaVuSans-65" x="668.005859"/>
      <use xlink:href="#DejaVuSans-64" x="729.529297"/>
      <use xlink:href="#DejaVuSans-69" x="793.005859"/>
      <use xlink:href="#DejaVuSans-63" x="820.789062"/>
      <use xlink:href="#DejaVuSans-74" x="875.769531"/>
      <use xlink:href="#DejaVuSans-69" x="914.978516"/>
      <use xlink:href="#DejaVuSans-6f" x="942.761719"/>
      <use xlink:href="#DejaVuSans-6e" x="1003.943359"/>
      <use xlink:href="#DejaVuSans-73" x="1067.322266"/>
     </g>
    </g>
   </g>
  </g>
 </g>
 <defs>
  <clipPath id="peb6485814a">
   <rect x="45" y="43.2" width="279" height="277.2"/>
  </clipPath>
 </defs>
</svg>
