<?xml version="1.0" encoding="utf-8" standalone="no"?>
<!DOCTYPE svg PUBLIC "-//W3C//DTD SVG 1.1//EN"
  "http://www.w3.org/Graphics/SVG/1.1/DTD/svg11.dtd">
<svg xmlns:xlink="http://www.w3.org/1999/xlink" width="360pt" height="360pt" viewBox="0 0 360 360" xmlns="http://www.w3.org/2000/svg" version="1.1">
 <metadata>
  <rdf:RDF xmlns:dc="http://purl.org/dc/elements/1.1/" xmlns:cc="http://creativecommons.org/ns#" xmlns:rdf="http://www.w3.org/1999/02/22-rdf-syntax-ns#">
   <cc:Work>
    <dc:type rdf:resource="http://purl.org/dc/dcmitype/StillImage"/>
    <dc:date>2022-11-12T19:51:09.307408</dc:date>
    <dc:format>image/svg+xml</dc:format>
    <dc:creator>
     <cc:Agent>
      <dc:title>Matplotlib v3.5.3, https://matplotlib.org/</dc:title>
     </cc:Agent>
    </dc:creator>
   </cc:Work>
  </rdf:RDF>
 </metadata>
 <defs>
  <style type="text/css">*{stroke-linejoin: round; stroke-linecap: butt}</style>
 </defs>
 <g id="figure_1">
  <g id="patch_1">
   <path d="M 0 360 
L 360 360 
L 360 0 
L 0 0 
z
" style="fill: #ffffff"/>
  </g>
  <g id="axes_1">
   <g id="patch_2">
    <path d="M 45 320.4 
L 324 320.4 
L 324 43.2 
L 45 43.2 
z
" style="fill: #ffffff"/>
   </g>
   <g id="matplotlib.axis_1">
    <g id="xtick_1">
     <g id="line2d_1">
      <defs>
       <path id="m520dcdc8d6" d="M 0 0 
L 0 3.5 
" style="stroke: #000000; stroke-width: 0.8"/>
      </defs>
      <g>
       <use xlink:href="#m520dcdc8d6" x="83.045455" y="320.4" style="stroke: #000000; stroke-width: 0.8"/>
      </g>
     </g>
     <g id="text_1">
      <!-- −2 -->
      <g transform="translate(75.674361 334.998438)scale(0.1 -0.1)">
       <defs>
        <path id="DejaVuSans-2212" d="M 678 2272 
L 4684 2272 
L 4684 1741 
L 678 1741 
L 678 2272 
z
" transform="scale(0.015625)"/>
        <path id="DejaVuSans-32" d="M 1228 531 
L 3431 531 
L 3431 0 
L 469 0 
L 469 531 
Q 828 903 1448 1529 
Q 2069 2156 2228 2338 
Q 2531 2678 2651 2914 
Q 2772 3150 2772 3378 
Q 2772 3750 2511 3984 
Q 2250 4219 1831 4219 
Q 1534 4219 1204 4116 
Q 875 4013 500 3803 
L 500 4441 
Q 881 4594 1212 4672 
Q 1544 4750 1819 4750 
Q 2544 4750 2975 4387 
Q 3406 4025 3406 3419 
Q 3406 3131 3298 2873 
Q 3191 2616 2906 2266 
Q 2828 2175 2409 1742 
Q 1991 1309 1228 531 
z
" transform="scale(0.015625)"/>
       </defs>
       <use xlink:href="#DejaVuSans-2212"/>
       <use xlink:href="#DejaVuSans-32" x="83.789062"/>
      </g>
     </g>
    </g>
    <g id="xtick_2">
     <g id="line2d_2">
      <g>
       <use xlink:href="#m520dcdc8d6" x="133.772727" y="320.4" style="stroke: #000000; stroke-width: 0.8"/>
      </g>
     </g>
     <g id="text_2">
      <!-- −1 -->
      <g transform="translate(126.401634 334.998438)scale(0.1 -0.1)">
       <defs>
        <path id="DejaVuSans-31" d="M 794 531 
L 1825 531 
L 1825 4091 
L 703 3866 
L 703 4441 
L 1819 4666 
L 2450 4666 
L 2450 531 
L 3481 531 
L 3481 0 
L 794 0 
L 794 531 
z
" transform="scale(0.015625)"/>
       </defs>
       <use xlink:href="#DejaVuSans-2212"/>
       <use xlink:href="#DejaVuSans-31" x="83.789062"/>
      </g>
     </g>
    </g>
    <g id="xtick_3">
     <g id="line2d_3">
      <g>
       <use xlink:href="#m520dcdc8d6" x="184.5" y="320.4" style="stroke: #000000; stroke-width: 0.8"/>
      </g>
     </g>
     <g id="text_3">
      <!-- 0 -->
      <g transform="translate(181.31875 334.998438)scale(0.1 -0.1)">
       <defs>
        <path id="DejaVuSans-30" d="M 2034 4250 
Q 1547 4250 1301 3770 
Q 1056 3291 1056 2328 
Q 1056 1369 1301 889 
Q 1547 409 2034 409 
Q 2525 409 2770 889 
Q 3016 1369 3016 2328 
Q 3016 3291 2770 3770 
Q 2525 4250 2034 4250 
z
M 2034 4750 
Q 2819 4750 3233 4129 
Q 3647 3509 3647 2328 
Q 3647 1150 3233 529 
Q 2819 -91 2034 -91 
Q 1250 -91 836 529 
Q 422 1150 422 2328 
Q 422 3509 836 4129 
Q 1250 4750 2034 4750 
z
" transform="scale(0.015625)"/>
       </defs>
       <use xlink:href="#DejaVuSans-30"/>
      </g>
     </g>
    </g>
    <g id="xtick_4">
     <g id="line2d_4">
      <g>
       <use xlink:href="#m520dcdc8d6" x="235.227273" y="320.4" style="stroke: #000000; stroke-width: 0.8"/>
      </g>
     </g>
     <g id="text_4">
      <!-- 1 -->
      <g transform="translate(232.046023 334.998438)scale(0.1 -0.1)">
       <use xlink:href="#DejaVuSans-31"/>
      </g>
     </g>
    </g>
    <g id="xtick_5">
     <g id="line2d_5">
      <g>
       <use xlink:href="#m520dcdc8d6" x="285.954545" y="320.4" style="stroke: #000000; stroke-width: 0.8"/>
      </g>
     </g>
     <g id="text_5">
      <!-- 2 -->
      <g transform="translate(282.773295 334.998438)scale(0.1 -0.1)">
       <use xlink:href="#DejaVuSans-32"/>
      </g>
     </g>
    </g>
   </g>
   <g id="matplotlib.axis_2">
    <g id="ytick_1">
     <g id="line2d_6">
      <defs>
       <path id="md5f6d054f9" d="M 0 0 
L -3.5 0 
" style="stroke: #000000; stroke-width: 0.8"/>
      </defs>
      <g>
       <use xlink:href="#md5f6d054f9" x="45" y="298.816629" style="stroke: #000000; stroke-width: 0.8"/>
      </g>
     </g>
     <g id="text_6">
      <!-- −0.2 -->
      <g transform="translate(13.717187 302.615848)scale(0.1 -0.1)">
       <defs>
        <path id="DejaVuSans-2e" d="M 684 794 
L 1344 794 
L 1344 0 
L 684 0 
L 684 794 
z
" transform="scale(0.015625)"/>
       </defs>
       <use xlink:href="#DejaVuSans-2212"/>
       <use xlink:href="#DejaVuSans-30" x="83.789062"/>
       <use xlink:href="#DejaVuSans-2e" x="147.412109"/>
       <use xlink:href="#DejaVuSans-32" x="179.199219"/>
      </g>
     </g>
    </g>
    <g id="ytick_2">
     <g id="line2d_7">
      <g>
       <use xlink:href="#md5f6d054f9" x="45" y="238.301331" style="stroke: #000000; stroke-width: 0.8"/>
      </g>
     </g>
     <g id="text_7">
      <!-- −0.1 -->
      <g transform="translate(13.717187 242.100549)scale(0.1 -0.1)">
       <use xlink:href="#DejaVuSans-2212"/>
       <use xlink:href="#DejaVuSans-30" x="83.789062"/>
       <use xlink:href="#DejaVuSans-2e" x="147.412109"/>
       <use xlink:href="#DejaVuSans-31" x="179.199219"/>
      </g>
     </g>
    </g>
    <g id="ytick_3">
     <g id="line2d_8">
      <g>
       <use xlink:href="#md5f6d054f9" x="45" y="177.786032" style="stroke: #000000; stroke-width: 0.8"/>
      </g>
     </g>
     <g id="text_8">
      <!-- 0.0 -->
      <g transform="translate(22.096875 181.585251)scale(0.1 -0.1)">
       <use xlink:href="#DejaVuSans-30"/>
       <use xlink:href="#DejaVuSans-2e" x="63.623047"/>
       <use xlink:href="#DejaVuSans-30" x="95.410156"/>
      </g>
     </g>
    </g>
    <g id="ytick_4">
     <g id="line2d_9">
      <g>
       <use xlink:href="#md5f6d054f9" x="45" y="117.270733" style="stroke: #000000; stroke-width: 0.8"/>
      </g>
     </g>
     <g id="text_9">
      <!-- 0.1 -->
      <g transform="translate(22.096875 121.069952)scale(0.1 -0.1)">
       <use xlink:href="#DejaVuSans-30"/>
       <use xlink:href="#DejaVuSans-2e" x="63.623047"/>
       <use xlink:href="#DejaVuSans-31" x="95.410156"/>
      </g>
     </g>
    </g>
    <g id="ytick_5">
     <g id="line2d_10">
      <g>
       <use xlink:href="#md5f6d054f9" x="45" y="56.755435" style="stroke: #000000; stroke-width: 0.8"/>
      </g>
     </g>
     <g id="text_10">
      <!-- 0.2 -->
      <g transform="translate(22.096875 60.554653)scale(0.1 -0.1)">
       <use xlink:href="#DejaVuSans-30"/>
       <use xlink:href="#DejaVuSans-2e" x="63.623047"/>
       <use xlink:href="#DejaVuSans-32" x="95.410156"/>
      </g>
     </g>
    </g>
   </g>
   <g id="line2d_11">
    <path d="M 57.681818 207.590268 
L 67.21702 209.071703 
L 72.938143 210.183234 
L 82.473333 212.171726 
L 84.380384 212.315861 
L 86.287423 212.221776 
L 87.558784 211.989125 
L 88.83014 211.602009 
L 90.101501 211.050889 
L 92.00854 209.923934 
L 93.915579 208.483871 
L 96.458302 206.244607 
L 100.90807 202.246555 
L 103.450781 200.318473 
L 105.35782 199.143387 
L 107.264859 198.216902 
L 109.171904 197.533946 
L 111.078949 197.078023 
L 112.985988 196.829411 
L 114.893027 196.76798 
L 117.435744 196.947976 
L 119.978467 197.3999 
L 122.521184 198.106712 
L 125.063907 199.060747 
L 127.606623 200.259495 
L 130.149352 201.69809 
L 133.327753 203.802146 
L 137.141831 206.641495 
L 141.59159 209.929147 
L 143.498632 211.130001 
L 145.405671 212.094937 
L 147.31271 212.754699 
L 148.584072 212.999736 
L 149.85543 213.079256 
L 151.126789 212.99197 
L 152.39815 212.743597 
L 154.305195 212.095799 
L 156.212234 211.174818 
L 158.754957 209.659401 
L 166.383109 204.871529 
L 168.925829 203.602993 
L 171.468555 202.577886 
L 174.011274 201.788319 
L 176.554 201.207611 
L 179.732393 200.722009 
L 183.546474 200.39866 
L 188.631919 200.233708 
L 196.895771 200.227649 
L 201.981204 200.389523 
L 205.159609 200.715873 
L 207.702329 201.237728 
L 209.60937 201.859265 
L 211.51641 202.740017 
L 213.42345 203.932961 
L 215.330489 205.480754 
L 217.237528 207.406834 
L 219.14457 209.709813 
L 221.051609 212.359791 
L 223.594329 216.330123 
L 227.408407 222.816218 
L 231.858169 230.316628 
L 234.400889 234.224116 
L 236.943615 237.719905 
L 239.486331 240.758858 
L 241.39337 242.734267 
L 243.300416 244.457248 
L 245.207455 245.940314 
L 247.114494 247.198144 
L 249.021533 248.244749 
L 250.928572 249.09271 
L 252.835611 249.751199 
L 254.74265 250.227045 
L 256.649689 250.524531 
L 258.556734 250.647046 
L 261.099451 250.549852 
L 263.642174 250.192969 
L 269.998975 249.024246 
L 271.270337 249.002694 
L 272.541698 249.160049 
L 273.813059 249.546845 
L 275.084415 250.209103 
L 276.355776 251.181505 
L 277.627138 252.483406 
L 278.898499 254.114055 
L 280.169854 256.052439 
L 282.076899 259.445739 
L 284.619622 264.554929 
L 289.069378 273.622303 
L 290.976411 277.098059 
L 292.883456 280.188502 
L 294.790502 282.865843 
L 296.697535 285.139778 
L 298.60458 287.045251 
L 300.511613 288.626759 
L 302.418658 289.934568 
L 304.325703 291.015223 
L 306.868426 292.172721 
L 309.411149 293.084165 
L 311.318182 293.646596 
L 311.318182 293.646596 
" clip-path="url(#pd0ad8637d6)" style="fill: none; stroke: #1f77b4; stroke-width: 1.5; stroke-linecap: square"/>
   </g>
   <g id="line2d_12">
    <path d="M 57.681818 85.39718 
L 62.131574 87.142734 
L 65.945664 88.863096 
L 69.124053 90.530825 
L 72.302453 92.479236 
L 75.480866 94.753691 
L 78.659254 97.33497 
L 85.651745 103.168719 
L 87.558784 104.428309 
L 89.465823 105.399932 
L 91.372862 106.055135 
L 93.279902 106.40536 
L 95.186941 106.506954 
L 97.729663 106.386896 
L 106.629181 105.726383 
L 119.342783 105.322 
L 122.521184 104.832978 
L 125.063907 104.230956 
L 127.606623 103.423495 
L 130.149352 102.413952 
L 133.327753 100.918085 
L 139.684551 97.790443 
L 141.59159 97.069658 
L 143.498632 96.571402 
L 145.405671 96.355192 
L 147.31271 96.461209 
L 149.219749 96.900605 
L 151.126789 97.653828 
L 153.033831 98.671711 
L 155.576557 100.316518 
L 163.204716 105.530837 
L 165.747428 106.958402 
L 168.29015 108.163033 
L 171.468555 109.38686 
L 174.64696 110.364781 
L 178.46104 111.317034 
L 183.546474 112.357266 
L 189.2676 113.292981 
L 193.081685 113.725222 
L 196.26009 113.890761 
L 198.802811 113.839794 
L 201.345524 113.576588 
L 203.888245 113.057852 
L 206.430969 112.252328 
L 208.973691 111.152736 
L 211.51641 109.787053 
L 215.330489 107.40485 
L 219.780251 104.601232 
L 222.322967 103.244664 
L 224.230009 102.425891 
L 226.137049 101.806354 
L 228.044088 101.395164 
L 229.95113 101.187278 
L 231.858169 101.167094 
L 234.400889 101.391842 
L 236.943615 101.847585 
L 240.122015 102.652388 
L 243.936093 103.846682 
L 249.021533 105.692568 
L 253.471295 107.540022 
L 257.285373 109.364338 
L 261.099451 111.467165 
L 268.72762 115.851656 
L 269.998975 116.344079 
L 271.270337 116.659348 
L 272.541698 116.745501 
L 273.813059 116.554132 
L 275.084415 116.040871 
L 276.355776 115.17717 
L 277.627138 113.951073 
L 278.898499 112.371932 
L 280.169854 110.469445 
L 282.076899 107.124594 
L 285.2553 100.827318 
L 288.433701 94.60465 
L 290.340734 91.272192 
L 292.247779 88.369458 
L 294.154824 85.930005 
L 296.061857 83.946794 
L 297.96889 82.381359 
L 299.875935 81.184155 
L 301.78298 80.298219 
L 303.690025 79.671526 
L 305.597058 79.254587 
L 308.139781 78.955091 
L 310.682504 78.875852 
L 311.318182 78.882489 
L 311.318182 78.882489 
" clip-path="url(#pd0ad8637d6)" style="fill: none; stroke: #ff7f0e; stroke-width: 1.5; stroke-linecap: square"/>
   </g>
   <g id="line2d_13">
    <path d="M 57.681818 125.566096 
L 60.224541 125.597375 
L 62.131574 125.451018 
L 64.038619 125.116231 
L 65.945664 124.545201 
L 67.852697 123.680446 
L 69.124053 122.911522 
L 70.39542 121.962681 
L 71.666776 120.815599 
L 72.938143 119.450915 
L 74.209498 117.852209 
L 76.116544 114.991893 
L 78.023577 111.579129 
L 79.930622 107.672237 
L 83.109022 100.497957 
L 85.651745 94.904954 
L 86.923101 92.449962 
L 88.194462 90.368381 
L 89.465823 88.752506 
L 90.737185 87.668604 
L 91.372862 87.336718 
L 92.00854 87.146947 
L 92.644224 87.099205 
L 93.279902 87.186003 
L 93.915579 87.40318 
L 95.186941 88.196776 
L 96.458302 89.398381 
L 97.729663 90.918343 
L 99.636709 93.584206 
L 105.35782 102.011866 
L 107.900543 105.233574 
L 110.443266 108.007821 
L 112.985988 110.396375 
L 116.164389 112.995678 
L 121.249829 116.749595 
L 125.699584 120.114162 
L 128.877991 122.767812 
L 132.056391 125.710646 
L 135.234792 128.943799 
L 141.59159 135.863768 
L 144.769991 139.144285 
L 147.31271 141.46822 
L 149.85543 143.434824 
L 151.762469 144.658619 
L 154.305195 145.979619 
L 156.847915 147.01057 
L 160.026315 148.026034 
L 165.111749 149.35421 
L 172.104235 150.948328 
L 176.554 151.738245 
L 179.732393 152.092964 
L 182.275114 152.194558 
L 184.817839 152.084931 
L 187.360559 151.709912 
L 189.2676 151.216688 
L 191.174644 150.508379 
L 193.081685 149.552328 
L 194.98873 148.3147 
L 196.895771 146.76242 
L 198.802811 144.866209 
L 200.709844 142.604819 
L 202.616884 139.97038 
L 204.523924 136.974107 
L 207.06665 132.483853 
L 210.245049 126.332865 
L 214.694811 117.745688 
L 216.60185 114.498258 
L 218.508889 111.724062 
L 219.780251 110.194488 
L 221.051609 108.947918 
L 222.322967 107.997129 
L 223.594329 107.344076 
L 224.86569 106.98078 
L 226.137049 106.89124 
L 227.408407 107.052126 
L 228.679768 107.435218 
L 229.95113 108.009004 
L 231.858169 109.155537 
L 234.400889 111.053064 
L 238.850654 114.802609 
L 243.300416 118.479992 
L 247.114494 121.343382 
L 251.56425 124.372563 
L 258.556734 129.060907 
L 261.099451 131.014794 
L 263.642174 133.267498 
L 265.549213 135.225828 
L 267.456258 137.470301 
L 269.363297 140.044251 
L 271.270337 142.976798 
L 273.177376 146.271771 
L 275.720098 151.174771 
L 278.898499 157.865635 
L 283.348261 167.294833 
L 285.890984 172.181169 
L 287.798011 175.448095 
L 289.705056 178.332535 
L 291.612101 180.831604 
L 293.519146 182.967174 
L 295.426179 184.774278 
L 297.333212 186.297785 
L 299.240257 187.581413 
L 301.78298 188.993074 
L 304.325703 190.14004 
L 307.504104 191.306426 
L 311.318182 192.442167 
L 311.318182 192.442167 
" clip-path="url(#pd0ad8637d6)" style="fill: none; stroke: #2ca02c; stroke-width: 1.5; stroke-linecap: square"/>
   </g>
   <g id="line2d_14">
    <path d="M 57.681818 244.908793 
L 63.402942 244.062535 
L 67.852697 243.598531 
L 72.302453 243.346763 
L 78.659254 243.058637 
L 80.566299 242.767192 
L 82.473333 242.215379 
L 83.7447 241.638895 
L 85.016061 240.849224 
L 86.287423 239.809645 
L 87.558784 238.491578 
L 88.83014 236.877939 
L 90.101501 234.971167 
L 92.00854 231.605424 
L 93.915579 227.764258 
L 100.90807 213.020462 
L 102.815109 209.631303 
L 104.722142 206.695391 
L 106.629181 204.223079 
L 108.536226 202.189788 
L 110.443266 200.55388 
L 112.350305 199.268373 
L 114.257344 198.286214 
L 116.164389 197.566784 
L 118.071428 197.077362 
L 119.978467 196.791184 
L 121.885506 196.689236 
L 124.428223 196.814889 
L 126.970946 197.21287 
L 129.513669 197.851066 
L 132.692069 198.907457 
L 138.413193 200.920696 
L 140.320232 201.351869 
L 142.227271 201.501314 
L 143.498632 201.392022 
L 144.769991 201.081474 
L 146.041349 200.544487 
L 147.31271 199.762852 
L 148.584072 198.726036 
L 149.85543 197.433311 
L 151.126789 195.893562 
L 153.033831 193.165294 
L 154.940876 190.026842 
L 158.119276 184.243581 
L 163.204716 174.928478 
L 165.747428 170.744067 
L 168.29015 167.025225 
L 170.832874 163.778033 
L 173.375594 160.951049 
L 175.91832 158.458642 
L 179.09672 155.655461 
L 186.724879 149.09275 
L 189.2676 146.550682 
L 191.810325 143.630598 
L 193.717365 141.118565 
L 195.62441 138.275039 
L 197.53145 135.055311 
L 199.438491 131.424184 
L 201.345524 127.36201 
L 203.888245 121.284718 
L 206.430969 114.545041 
L 210.88073 101.88947 
L 214.05913 93.175079 
L 215.966169 88.534665 
L 217.873208 84.578111 
L 219.14457 82.398582 
L 220.415928 80.623141 
L 221.68729 79.26816 
L 222.958648 78.335391 
L 224.230009 77.81224 
L 225.501368 77.67314 
L 226.772729 77.881848 
L 228.044088 78.393983 
L 229.315449 79.160339 
L 231.222488 80.673459 
L 233.765208 83.106718 
L 238.850654 88.145741 
L 241.39337 90.276201 
L 243.300416 91.581781 
L 245.207455 92.595216 
L 247.114494 93.287614 
L 248.385855 93.558514 
L 249.657211 93.667488 
L 250.928572 93.606934 
L 252.199933 93.366611 
L 253.471295 92.935849 
L 254.74265 92.3024 
L 256.014012 91.452928 
L 257.285373 90.373918 
L 258.556734 89.051493 
L 259.82809 87.473672 
L 261.099451 85.63197 
L 263.00649 82.371588 
L 264.913529 78.546509 
L 267.456258 72.759586 
L 271.270337 63.781518 
L 272.541698 61.149766 
L 273.813059 58.916839 
L 275.084415 57.213847 
L 275.720098 56.596099 
L 276.355776 56.149308 
L 276.991454 55.882081 
L 277.627138 55.8 
L 278.262815 55.906089 
L 278.898499 56.199655 
L 279.534177 56.678187 
L 280.169854 57.335987 
L 281.441222 59.149482 
L 282.712583 61.543862 
L 283.983945 64.394483 
L 285.890984 69.224896 
L 290.340734 80.871356 
L 292.247779 85.276678 
L 294.154824 89.097522 
L 296.061857 92.29453 
L 297.96889 94.887236 
L 299.240257 96.308334 
L 301.14729 98.026878 
L 303.054336 99.320317 
L 304.961381 100.259174 
L 306.868426 100.908894 
L 308.775471 101.327161 
L 311.318182 101.60337 
L 311.318182 101.60337 
" clip-path="url(#pd0ad8637d6)" style="fill: none; stroke: #d62728; stroke-width: 1.5; stroke-linecap: square"/>
   </g>
   <g id="line2d_15">
    <path d="M 57.681818 180.538975 
L 60.224541 179.930519 
L 62.767264 179.07924 
L 64.674309 178.229605 
L 66.581342 177.150134 
L 68.488375 175.787267 
L 70.39542 174.085459 
L 72.302453 171.983996 
L 74.209498 169.429611 
L 76.116544 166.389522 
L 78.023577 162.860757 
L 79.930622 158.896153 
L 83.7447 150.241447 
L 86.287423 144.720223 
L 88.194462 141.218468 
L 89.465823 139.341735 
L 90.737185 137.892085 
L 92.00854 136.895602 
L 93.279902 136.345781 
L 94.551263 136.208694 
L 95.822624 136.428244 
L 97.09398 136.931723 
L 99.001025 138.055233 
L 105.993504 142.775942 
L 107.900543 143.695769 
L 109.807588 144.381804 
L 111.714627 144.838497 
L 113.621666 145.081189 
L 115.528705 145.127427 
L 117.435744 144.99148 
L 119.978467 144.546272 
L 122.521184 143.814543 
L 125.063907 142.804138 
L 127.606623 141.521275 
L 130.149352 139.980133 
L 133.327753 137.745987 
L 141.59159 131.630565 
L 143.498632 130.573803 
L 145.405671 129.815173 
L 146.67703 129.506176 
L 147.948391 129.368375 
L 149.219749 129.407042 
L 150.491111 129.619796 
L 151.762469 129.997744 
L 153.669511 130.838026 
L 155.576557 131.939962 
L 158.754957 134.118889 
L 163.840395 137.669862 
L 166.383109 139.205575 
L 168.925829 140.515822 
L 171.468555 141.609426 
L 174.64696 142.72802 
L 179.09672 144.010681 
L 185.453519 145.80977 
L 188.631919 146.930794 
L 191.174644 148.032142 
L 193.717365 149.375693 
L 196.26009 151.014797 
L 198.802811 152.99565 
L 201.345524 155.348451 
L 203.888245 158.076081 
L 206.430969 161.140247 
L 210.245049 166.155365 
L 214.694811 171.977331 
L 217.237528 174.896863 
L 219.14457 176.750771 
L 221.051609 178.259136 
L 222.958648 179.400049 
L 224.86569 180.179398 
L 226.772729 180.628735 
L 228.679768 180.798387 
L 230.586807 180.748553 
L 233.129527 180.451419 
L 242.664732 179.044851 
L 245.207455 179.010613 
L 247.114494 179.166002 
L 249.021533 179.512562 
L 250.928572 180.088412 
L 252.835611 180.939947 
L 254.74265 182.123051 
L 256.014012 183.128728 
L 257.285373 184.333954 
L 258.556734 185.762294 
L 259.82809 187.439351 
L 261.099451 189.39134 
L 262.370813 191.643157 
L 263.642174 194.216552 
L 265.549213 198.717523 
L 267.456258 204.009761 
L 269.363297 210.065109 
L 271.906014 219.138337 
L 280.169854 250.118359 
L 282.076899 256.037708 
L 283.983945 261.144691 
L 285.890984 265.427417 
L 287.162333 267.847479 
L 288.433701 269.948076 
L 289.705056 271.759998 
L 291.612101 274.005712 
L 293.519146 275.776255 
L 295.426179 277.166679 
L 297.333212 278.255327 
L 299.240257 279.108713 
L 301.78298 279.968071 
L 304.325703 280.594765 
L 307.504104 281.151425 
L 311.318182 281.602126 
L 311.318182 281.602126 
" clip-path="url(#pd0ad8637d6)" style="fill: none; stroke: #9467bd; stroke-width: 1.5; stroke-linecap: square"/>
   </g>
   <g id="line2d_16">
    <path d="M 57.681818 178.408253 
L 64.038619 176.88437 
L 68.488375 175.60836 
L 72.938143 174.090798 
L 81.201977 171.134622 
L 83.109022 170.764198 
L 84.380384 170.686835 
L 85.651745 170.783099 
L 86.923101 171.083128 
L 88.194462 171.60897 
L 89.465823 172.371402 
L 90.737185 173.367004 
L 92.644224 175.253678 
L 94.551263 177.504434 
L 101.543748 186.209547 
L 103.450781 188.118324 
L 105.35782 189.705329 
L 107.264859 190.972112 
L 109.171904 191.941088 
L 111.078949 192.646471 
L 112.985988 193.127121 
L 114.893027 193.418959 
L 117.435744 193.569017 
L 119.978467 193.500091 
L 123.156868 193.165355 
L 126.335268 192.593077 
L 129.513669 191.791679 
L 132.692069 190.746491 
L 135.87047 189.434639 
L 139.04887 187.844734 
L 142.227271 186.004554 
L 153.033831 179.468424 
L 155.576557 178.326071 
L 158.119276 177.440179 
L 160.661995 176.804401 
L 163.204716 176.390176 
L 166.383109 176.126682 
L 169.561514 176.08606 
L 173.375594 176.282248 
L 176.554 176.651528 
L 179.732393 177.246509 
L 182.275114 177.929118 
L 184.817839 178.844634 
L 187.360559 180.047818 
L 189.2676 181.175433 
L 191.174644 182.525419 
L 193.081685 184.123046 
L 194.98873 185.990065 
L 196.895771 188.141229 
L 198.802811 190.58066 
L 201.345524 194.258382 
L 203.888245 198.338057 
L 210.88073 209.926481 
L 212.787769 212.564643 
L 214.05913 214.051543 
L 215.330489 215.275291 
L 216.60185 216.2046 
L 217.873208 216.817756 
L 219.14457 217.103354 
L 220.415928 217.061723 
L 221.68729 216.704075 
L 222.958648 216.05193 
L 224.230009 215.135689 
L 225.501368 213.991609 
L 227.408407 211.937888 
L 229.95113 208.78907 
L 236.943615 199.842368 
L 239.486331 196.990236 
L 242.029054 194.44956 
L 244.571771 192.202613 
L 247.750171 189.726585 
L 252.199933 186.610803 
L 256.649689 183.434392 
L 259.192412 181.359729 
L 261.735129 178.941868 
L 263.642174 176.832794 
L 265.549213 174.426446 
L 267.456258 171.702936 
L 269.998975 167.60172 
L 273.177376 161.924678 
L 277.627138 153.941371 
L 279.534177 150.89919 
L 281.441222 148.241774 
L 283.348261 146.014585 
L 285.2553 144.215403 
L 287.162333 142.799961 
L 289.069378 141.705051 
L 290.976411 140.861361 
L 293.519146 140.013949 
L 296.697535 139.239513 
L 301.14729 138.41885 
L 311.318182 136.865044 
L 311.318182 136.865044 
" clip-path="url(#pd0ad8637d6)" style="fill: none; stroke: #8c564b; stroke-width: 1.5; stroke-linecap: square"/>
   </g>
   <g id="line2d_17">
    <path d="M 57.681818 259.54395 
L 69.759743 258.920316 
L 79.294932 258.466845 
L 81.837655 258.084648 
L 83.7447 257.576033 
L 85.651745 256.785063 
L 86.923101 256.063736 
L 88.194462 255.165681 
L 90.101501 253.467682 
L 92.00854 251.365686 
L 93.915579 248.931247 
L 97.729663 243.557913 
L 100.90807 239.220576 
L 103.450781 236.185003 
L 105.35782 234.236794 
L 107.264859 232.577729 
L 109.171904 231.192709 
L 111.078949 230.052538 
L 112.985988 229.125271 
L 115.528705 228.163938 
L 118.071428 227.456466 
L 121.249829 226.850311 
L 124.428223 226.492216 
L 127.606623 226.348586 
L 130.78503 226.411654 
L 133.963431 226.689093 
L 137.141831 227.185376 
L 140.955909 228.040348 
L 150.491111 230.37483 
L 153.033831 230.682276 
L 155.576557 230.751837 
L 158.119276 230.583304 
L 160.661995 230.209845 
L 164.476068 229.385468 
L 177.82536 226.206102 
L 182.275114 225.464919 
L 186.089199 225.02434 
L 189.903285 224.811581 
L 193.081685 224.864499 
L 195.62441 225.102536 
L 198.167131 225.553825 
L 200.709844 226.250371 
L 203.252564 227.207768 
L 205.79529 228.408348 
L 210.245049 230.850353 
L 212.787769 232.168613 
L 214.694811 232.951309 
L 216.60185 233.443573 
L 217.873208 233.564123 
L 219.14457 233.492628 
L 220.415928 233.213945 
L 221.68729 232.720458 
L 222.958648 232.013199 
L 224.230009 231.100204 
L 226.137049 229.381255 
L 228.044088 227.313157 
L 230.586807 224.177216 
L 239.486331 212.714777 
L 242.029054 209.870681 
L 244.571771 207.306174 
L 247.750171 204.453432 
L 251.56425 201.394702 
L 257.921051 196.402339 
L 260.463774 194.114142 
L 262.370813 192.168227 
L 264.277852 189.962169 
L 266.184897 187.441743 
L 268.091936 184.562345 
L 269.998975 181.293685 
L 271.906014 177.631047 
L 274.448737 172.180267 
L 277.627138 164.697423 
L 283.348261 151.039992 
L 285.890984 145.638895 
L 287.798011 142.052823 
L 289.705056 138.90868 
L 291.612101 136.208196 
L 293.519146 133.931982 
L 295.426179 132.04033 
L 297.333212 130.488371 
L 299.240257 129.225173 
L 301.14729 128.205 
L 303.690025 127.148786 
L 306.232736 126.362895 
L 309.411149 125.65679 
L 311.318182 125.340846 
L 311.318182 125.340846 
" clip-path="url(#pd0ad8637d6)" style="fill: none; stroke: #e377c2; stroke-width: 1.5; stroke-linecap: square"/>
   </g>
   <g id="line2d_18">
    <path d="M 57.681818 159.886488 
L 60.860219 160.507901 
L 63.402942 161.208466 
L 65.945664 162.160654 
L 67.852697 163.088142 
L 69.759743 164.24137 
L 71.666776 165.661198 
L 73.573821 167.384936 
L 75.480866 169.436334 
L 77.387899 171.81946 
L 79.930622 175.44417 
L 85.651745 184.020762 
L 86.923101 185.592906 
L 88.194462 186.89656 
L 89.465823 187.878153 
L 90.737185 188.503245 
L 92.00854 188.761563 
L 93.279902 188.663121 
L 94.551263 188.241947 
L 95.822624 187.549505 
L 97.729663 186.137111 
L 100.90807 183.298408 
L 104.086458 180.503306 
L 106.629181 178.574113 
L 109.171904 176.974917 
L 111.714627 175.668366 
L 114.893027 174.332412 
L 121.249829 172.039602 
L 125.063907 170.525826 
L 128.242307 169.016119 
L 131.420714 167.214206 
L 134.599111 165.126381 
L 142.227271 159.897104 
L 144.13431 158.928056 
L 146.041349 158.274642 
L 147.31271 158.054472 
L 148.584072 158.028263 
L 149.85543 158.206542 
L 151.126789 158.592061 
L 152.39815 159.179608 
L 153.669511 159.955295 
L 155.576557 161.42547 
L 157.483596 163.18056 
L 160.661995 166.452729 
L 165.111749 171.012146 
L 167.654469 173.306969 
L 170.197195 175.273018 
L 172.739914 176.890773 
L 175.28264 178.174931 
L 177.82536 179.159084 
L 180.368073 179.884645 
L 182.910794 180.39387 
L 186.089199 180.786159 
L 189.903285 180.987916 
L 194.353045 180.977571 
L 201.345524 180.701716 
L 207.06665 180.312867 
L 210.245049 179.899594 
L 212.787769 179.337782 
L 214.694811 178.713318 
L 216.60185 177.86645 
L 218.508889 176.763085 
L 220.415928 175.385048 
L 222.322967 173.735368 
L 224.86569 171.159788 
L 228.044088 167.505464 
L 235.672253 158.469983 
L 238.214976 155.830108 
L 240.757693 153.503377 
L 243.300416 151.516007 
L 245.843132 149.873729 
L 248.385855 148.569628 
L 250.292894 147.808047 
L 252.199933 147.227274 
L 254.106973 146.824262 
L 256.014012 146.594615 
L 258.556734 146.546527 
L 261.099451 146.755061 
L 267.456258 147.520105 
L 268.72762 147.427632 
L 269.998975 147.119086 
L 271.270337 146.518612 
L 272.541698 145.549792 
L 273.813059 144.139836 
L 275.084415 142.22764 
L 276.355776 139.775851 
L 277.627138 136.77093 
L 278.898499 133.235644 
L 280.805538 127.064152 
L 283.348261 117.712965 
L 288.433701 98.58677 
L 290.340734 92.256469 
L 292.247779 86.66638 
L 294.154824 81.861894 
L 296.061857 77.81808 
L 297.96889 74.469636 
L 299.875935 71.727485 
L 301.78298 69.498883 
L 303.690025 67.694001 
L 305.597058 66.232765 
L 307.504104 65.046382 
L 309.411149 64.077053 
L 311.318182 63.278927 
L 311.318182 63.278927 
" clip-path="url(#pd0ad8637d6)" style="fill: none; stroke: #7f7f7f; stroke-width: 1.5; stroke-linecap: square"/>
   </g>
   <g id="line2d_19">
    <path d="M 57.681818 159.961802 
L 61.495896 159.822169 
L 64.674309 159.956868 
L 67.21702 160.299965 
L 69.124053 160.736181 
L 71.031098 161.360508 
L 72.938143 162.205612 
L 74.845188 163.300522 
L 76.752221 164.672391 
L 78.659254 166.33155 
L 80.566299 168.269804 
L 83.109022 171.221853 
L 91.372862 181.340868 
L 93.279902 183.215552 
L 95.186941 184.79522 
L 97.09398 186.084467 
L 99.001025 187.109001 
L 100.90807 187.904754 
L 103.450781 188.67629 
L 105.993504 189.187516 
L 109.171904 189.555314 
L 112.985988 189.721326 
L 118.071428 189.682017 
L 125.699584 189.597397 
L 129.513669 189.794775 
L 132.692069 190.20436 
L 135.234792 190.740172 
L 137.777512 191.48173 
L 140.955909 192.687345 
L 145.405671 194.714533 
L 149.219749 196.399684 
L 151.762469 197.278658 
L 153.669511 197.735877 
L 155.576557 197.992045 
L 157.483596 198.040776 
L 159.390635 197.891776 
L 161.933355 197.424779 
L 164.476068 196.716032 
L 167.654469 195.599844 
L 172.739914 193.529326 
L 179.09672 190.679614 
L 183.546474 188.446564 
L 186.724879 186.636821 
L 189.903285 184.570309 
L 192.446005 182.688346 
L 194.98873 180.577123 
L 198.167131 177.610938 
L 201.981204 173.662391 
L 207.06665 168.317199 
L 208.973691 166.553045 
L 210.88073 165.073741 
L 212.152088 164.296661 
L 213.42345 163.718958 
L 214.694811 163.363363 
L 215.966169 163.246272 
L 217.237528 163.37602 
L 218.508889 163.752662 
L 219.780251 164.36712 
L 221.051609 165.201858 
L 222.958648 166.809805 
L 224.86569 168.747214 
L 228.044088 172.374543 
L 232.493847 177.421635 
L 235.036569 179.948262 
L 237.579292 182.105125 
L 240.122015 183.884176 
L 242.664732 185.321956 
L 245.207455 186.482788 
L 248.385855 187.665246 
L 256.649689 190.544135 
L 259.192412 191.757066 
L 261.099451 192.883883 
L 263.00649 194.245141 
L 264.913529 195.877659 
L 266.820575 197.805192 
L 268.72762 200.031006 
L 271.270337 203.41355 
L 275.084415 209.032683 
L 278.898499 214.546642 
L 280.805538 216.993843 
L 282.712583 219.136555 
L 284.619622 220.946674 
L 286.526655 222.427907 
L 288.433701 223.60572 
L 290.340734 224.521146 
L 292.247779 225.214728 
L 294.790502 225.867853 
L 297.333212 226.286062 
L 300.511613 226.578113 
L 304.961381 226.713707 
L 310.682504 226.635306 
L 311.318182 226.615684 
L 311.318182 226.615684 
" clip-path="url(#pd0ad8637d6)" style="fill: none; stroke: #bcbd22; stroke-width: 1.5; stroke-linecap: square"/>
   </g>
   <g id="line2d_20">
    <path d="M 57.681818 176.058513 
L 61.495896 176.126931 
L 64.674309 176.396965 
L 67.21702 176.824898 
L 69.124053 177.318248 
L 71.031098 178.002596 
L 72.938143 178.928785 
L 74.845188 180.149507 
L 76.752221 181.725388 
L 78.659254 183.715236 
L 80.566299 186.169434 
L 82.473333 189.11525 
L 84.380384 192.548675 
L 86.287423 196.415357 
L 89.465823 203.524999 
L 93.915579 213.598299 
L 96.458302 218.700852 
L 98.365347 222.0153 
L 100.272386 224.844762 
L 102.179425 227.198483 
L 104.086458 229.11428 
L 105.993504 230.647483 
L 107.900543 231.860558 
L 109.807588 232.81214 
L 112.350305 233.768358 
L 114.893027 234.462282 
L 118.071428 235.078764 
L 121.885506 235.579544 
L 126.335268 235.926263 
L 130.149352 236.004055 
L 133.327753 235.848186 
L 135.87047 235.528401 
L 138.413193 235.00292 
L 140.955909 234.265405 
L 144.13431 233.104602 
L 149.219749 231.17445 
L 151.762469 230.4877 
L 153.669511 230.206712 
L 155.576557 230.163536 
L 157.483596 230.365925 
L 159.390635 230.799671 
L 161.297675 231.432675 
L 163.840395 232.513539 
L 167.654469 234.434641 
L 180.368073 241.29543 
L 184.182154 243.596818 
L 186.724879 245.361262 
L 189.2676 247.406098 
L 191.174644 249.178715 
L 193.081685 251.200597 
L 194.98873 253.510988 
L 196.895771 256.145416 
L 198.802811 259.13192 
L 200.709844 262.48669 
L 202.616884 266.207917 
L 205.159609 271.691862 
L 208.33801 279.170089 
L 213.42345 291.314492 
L 215.330489 295.433998 
L 217.237528 299.080506 
L 219.14457 302.13648 
L 220.415928 303.807737 
L 221.68729 305.174304 
L 222.958648 306.237429 
L 224.230009 307.008611 
L 225.501368 307.506867 
L 226.772729 307.757777 
L 228.044088 307.792057 
L 229.315449 307.642237 
L 231.222488 307.145251 
L 233.129527 306.416267 
L 236.307931 304.933743 
L 242.029054 302.228166 
L 245.207455 300.959363 
L 248.385855 299.904044 
L 252.199933 298.885166 
L 256.649689 297.934846 
L 266.820575 295.852312 
L 269.998975 294.910498 
L 272.541698 293.925897 
L 275.084415 292.67827 
L 277.627138 291.14734 
L 280.805538 288.896071 
L 288.433701 283.274328 
L 290.976411 281.751657 
L 293.519146 280.507187 
L 296.061857 279.539012 
L 298.60458 278.817845 
L 301.14729 278.304671 
L 304.325703 277.892983 
L 308.139781 277.646726 
L 311.318182 277.58307 
L 311.318182 277.58307 
" clip-path="url(#pd0ad8637d6)" style="fill: none; stroke: #17becf; stroke-width: 1.5; stroke-linecap: square"/>
   </g>
   <g id="patch_3">
    <path d="M 45 320.4 
L 45 43.2 
" style="fill: none; stroke: #000000; stroke-width: 0.8; stroke-linejoin: miter; stroke-linecap: square"/>
   </g>
   <g id="patch_4">
    <path d="M 324 320.4 
L 324 43.2 
" style="fill: none; stroke: #000000; stroke-width: 0.8; stroke-linejoin: miter; stroke-linecap: square"/>
   </g>
   <g id="patch_5">
    <path d="M 45 320.4 
L 324 320.4 
" style="fill: none; stroke: #000000; stroke-width: 0.8; stroke-linejoin: miter; stroke-linecap: square"/>
   </g>
   <g id="patch_6">
    <path d="M 45 43.2 
L 324 43.2 
" style="fill: none; stroke: #000000; stroke-width: 0.8; stroke-linejoin: miter; stroke-linecap: square"/>
   </g>
   <g id="text_11">
    <!-- Single Draw Deviation -->
    <g transform="translate(117.87 37.2)scale(0.12 -0.12)">
     <defs>
      <path id="DejaVuSans-53" d="M 3425 4513 
L 3425 3897 
Q 3066 4069 2747 4153 
Q 2428 4238 2131 4238 
Q 1616 4238 1336 4038 
Q 1056 3838 1056 3469 
Q 1056 3159 1242 3001 
Q 1428 2844 1947 2747 
L 2328 2669 
Q 3034 2534 3370 2195 
Q 3706 1856 3706 1288 
Q 3706 609 3251 259 
Q 2797 -91 1919 -91 
Q 1588 -91 1214 -16 
Q 841 59 441 206 
L 441 856 
Q 825 641 1194 531 
Q 1563 422 1919 422 
Q 2459 422 2753 634 
Q 3047 847 3047 1241 
Q 3047 1584 2836 1778 
Q 2625 1972 2144 2069 
L 1759 2144 
Q 1053 2284 737 2584 
Q 422 2884 422 3419 
Q 422 4038 858 4394 
Q 1294 4750 2059 4750 
Q 2388 4750 2728 4690 
Q 3069 4631 3425 4513 
z
" transform="scale(0.015625)"/>
      <path id="DejaVuSans-69" d="M 603 3500 
L 1178 3500 
L 1178 0 
L 603 0 
L 603 3500 
z
M 603 4863 
L 1178 4863 
L 1178 4134 
L 603 4134 
L 603 4863 
z
" transform="scale(0.015625)"/>
      <path id="DejaVuSans-6e" d="M 3513 2113 
L 3513 0 
L 2938 0 
L 2938 2094 
Q 2938 2591 2744 2837 
Q 2550 3084 2163 3084 
Q 1697 3084 1428 2787 
Q 1159 2491 1159 1978 
L 1159 0 
L 581 0 
L 581 3500 
L 1159 3500 
L 1159 2956 
Q 1366 3272 1645 3428 
Q 1925 3584 2291 3584 
Q 2894 3584 3203 3211 
Q 3513 2838 3513 2113 
z
" transform="scale(0.015625)"/>
      <path id="DejaVuSans-67" d="M 2906 1791 
Q 2906 2416 2648 2759 
Q 2391 3103 1925 3103 
Q 1463 3103 1205 2759 
Q 947 2416 947 1791 
Q 947 1169 1205 825 
Q 1463 481 1925 481 
Q 2391 481 2648 825 
Q 2906 1169 2906 1791 
z
M 3481 434 
Q 3481 -459 3084 -895 
Q 2688 -1331 1869 -1331 
Q 1566 -1331 1297 -1286 
Q 1028 -1241 775 -1147 
L 775 -588 
Q 1028 -725 1275 -790 
Q 1522 -856 1778 -856 
Q 2344 -856 2625 -561 
Q 2906 -266 2906 331 
L 2906 616 
Q 2728 306 2450 153 
Q 2172 0 1784 0 
Q 1141 0 747 490 
Q 353 981 353 1791 
Q 353 2603 747 3093 
Q 1141 3584 1784 3584 
Q 2172 3584 2450 3431 
Q 2728 3278 2906 2969 
L 2906 3500 
L 3481 3500 
L 3481 434 
z
" transform="scale(0.015625)"/>
      <path id="DejaVuSans-6c" d="M 603 4863 
L 1178 4863 
L 1178 0 
L 603 0 
L 603 4863 
z
" transform="scale(0.015625)"/>
      <path id="DejaVuSans-65" d="M 3597 1894 
L 3597 1613 
L 953 1613 
Q 991 1019 1311 708 
Q 1631 397 2203 397 
Q 2534 397 2845 478 
Q 3156 559 3463 722 
L 3463 178 
Q 3153 47 2828 -22 
Q 2503 -91 2169 -91 
Q 1331 -91 842 396 
Q 353 884 353 1716 
Q 353 2575 817 3079 
Q 1281 3584 2069 3584 
Q 2775 3584 3186 3129 
Q 3597 2675 3597 1894 
z
M 3022 2063 
Q 3016 2534 2758 2815 
Q 2500 3097 2075 3097 
Q 1594 3097 1305 2825 
Q 1016 2553 972 2059 
L 3022 2063 
z
" transform="scale(0.015625)"/>
      <path id="DejaVuSans-20" transform="scale(0.015625)"/>
      <path id="DejaVuSans-44" d="M 1259 4147 
L 1259 519 
L 2022 519 
Q 2988 519 3436 956 
Q 3884 1394 3884 2338 
Q 3884 3275 3436 3711 
Q 2988 4147 2022 4147 
L 1259 4147 
z
M 628 4666 
L 1925 4666 
Q 3281 4666 3915 4102 
Q 4550 3538 4550 2338 
Q 4550 1131 3912 565 
Q 3275 0 1925 0 
L 628 0 
L 628 4666 
z
" transform="scale(0.015625)"/>
      <path id="DejaVuSans-72" d="M 2631 2963 
Q 2534 3019 2420 3045 
Q 2306 3072 2169 3072 
Q 1681 3072 1420 2755 
Q 1159 2438 1159 1844 
L 1159 0 
L 581 0 
L 581 3500 
L 1159 3500 
L 1159 2956 
Q 1341 3275 1631 3429 
Q 1922 3584 2338 3584 
Q 2397 3584 2469 3576 
Q 2541 3569 2628 3553 
L 2631 2963 
z
" transform="scale(0.015625)"/>
      <path id="DejaVuSans-61" d="M 2194 1759 
Q 1497 1759 1228 1600 
Q 959 1441 959 1056 
Q 959 750 1161 570 
Q 1363 391 1709 391 
Q 2188 391 2477 730 
Q 2766 1069 2766 1631 
L 2766 1759 
L 2194 1759 
z
M 3341 1997 
L 3341 0 
L 2766 0 
L 2766 531 
Q 2569 213 2275 61 
Q 1981 -91 1556 -91 
Q 1019 -91 701 211 
Q 384 513 384 1019 
Q 384 1609 779 1909 
Q 1175 2209 1959 2209 
L 2766 2209 
L 2766 2266 
Q 2766 2663 2505 2880 
Q 2244 3097 1772 3097 
Q 1472 3097 1187 3025 
Q 903 2953 641 2809 
L 641 3341 
Q 956 3463 1253 3523 
Q 1550 3584 1831 3584 
Q 2591 3584 2966 3190 
Q 3341 2797 3341 1997 
z
" transform="scale(0.015625)"/>
      <path id="DejaVuSans-77" d="M 269 3500 
L 844 3500 
L 1563 769 
L 2278 3500 
L 2956 3500 
L 3675 769 
L 4391 3500 
L 4966 3500 
L 4050 0 
L 3372 0 
L 2619 2869 
L 1863 0 
L 1184 0 
L 269 3500 
z
" transform="scale(0.015625)"/>
      <path id="DejaVuSans-76" d="M 191 3500 
L 800 3500 
L 1894 563 
L 2988 3500 
L 3597 3500 
L 2284 0 
L 1503 0 
L 191 3500 
z
" transform="scale(0.015625)"/>
      <path id="DejaVuSans-74" d="M 1172 4494 
L 1172 3500 
L 2356 3500 
L 2356 3053 
L 1172 3053 
L 1172 1153 
Q 1172 725 1289 603 
Q 1406 481 1766 481 
L 2356 481 
L 2356 0 
L 1766 0 
Q 1100 0 847 248 
Q 594 497 594 1153 
L 594 3053 
L 172 3053 
L 172 3500 
L 594 3500 
L 594 4494 
L 1172 4494 
z
" transform="scale(0.015625)"/>
      <path id="DejaVuSans-6f" d="M 1959 3097 
Q 1497 3097 1228 2736 
Q 959 2375 959 1747 
Q 959 1119 1226 758 
Q 1494 397 1959 397 
Q 2419 397 2687 759 
Q 2956 1122 2956 1747 
Q 2956 2369 2687 2733 
Q 2419 3097 1959 3097 
z
M 1959 3584 
Q 2709 3584 3137 3096 
Q 3566 2609 3566 1747 
Q 3566 888 3137 398 
Q 2709 -91 1959 -91 
Q 1206 -91 779 398 
Q 353 888 353 1747 
Q 353 2609 779 3096 
Q 1206 3584 1959 3584 
z
" transform="scale(0.015625)"/>
     </defs>
     <use xlink:href="#DejaVuSans-53"/>
     <use xlink:href="#DejaVuSans-69" x="63.476562"/>
     <use xlink:href="#DejaVuSans-6e" x="91.259766"/>
     <use xlink:href="#DejaVuSans-67" x="154.638672"/>
     <use xlink:href="#DejaVuSans-6c" x="218.115234"/>
     <use xlink:href="#DejaVuSans-65" x="245.898438"/>
     <use xlink:href="#DejaVuSans-20" x="307.421875"/>
     <use xlink:href="#DejaVuSans-44" x="339.208984"/>
     <use xlink:href="#DejaVuSans-72" x="416.210938"/>
     <use xlink:href="#DejaVuSans-61" x="457.324219"/>
     <use xlink:href="#DejaVuSans-77" x="518.603516"/>
     <use xlink:href="#DejaVuSans-20" x="600.390625"/>
     <use xlink:href="#DejaVuSans-44" x="632.177734"/>
     <use xlink:href="#DejaVuSans-65" x="709.179688"/>
     <use xlink:href="#DejaVuSans-76" x="770.703125"/>
     <use xlink:href="#DejaVuSans-69" x="829.882812"/>
     <use xlink:href="#DejaVuSans-61" x="857.666016"/>
     <use xlink:href="#DejaVuSans-74" x="918.945312"/>
     <use xlink:href="#DejaVuSans-69" x="958.154297"/>
     <use xlink:href="#DejaVuSans-6f" x="985.9375"/>
     <use xlink:href="#DejaVuSans-6e" x="1047.119141"/>
    </g>
   </g>
   <g id="legend_1">
    <g id="patch_7">
     <path d="M 157.064062 315.4 
L 317 315.4 
Q 319 315.4 319 313.4 
L 319 167.61875 
Q 319 165.61875 317 165.61875 
L 157.064062 165.61875 
Q 155.064062 165.61875 155.064062 167.61875 
L 155.064062 313.4 
Q 155.064062 315.4 157.064062 315.4 
z
" style="fill: #ffffff; opacity: 0.8; stroke: #cccccc; stroke-linejoin: miter"/>
    </g>
    <g id="line2d_21">
     <path d="M 159.064062 173.717188 
L 169.064062 173.717188 
L 179.064062 173.717188 
" style="fill: none; stroke: #1f77b4; stroke-width: 1.5; stroke-linecap: square"/>
    </g>
    <g id="text_12">
     <!-- Deviation from average 0 -->
     <g transform="translate(187.064062 177.217188)scale(0.1 -0.1)">
      <defs>
       <path id="DejaVuSans-66" d="M 2375 4863 
L 2375 4384 
L 1825 4384 
Q 1516 4384 1395 4259 
Q 1275 4134 1275 3809 
L 1275 3500 
L 2222 3500 
L 2222 3053 
L 1275 3053 
L 1275 0 
L 697 0 
L 697 3053 
L 147 3053 
L 147 3500 
L 697 3500 
L 697 3744 
Q 697 4328 969 4595 
Q 1241 4863 1831 4863 
L 2375 4863 
z
" transform="scale(0.015625)"/>
       <path id="DejaVuSans-6d" d="M 3328 2828 
Q 3544 3216 3844 3400 
Q 4144 3584 4550 3584 
Q 5097 3584 5394 3201 
Q 5691 2819 5691 2113 
L 5691 0 
L 5113 0 
L 5113 2094 
Q 5113 2597 4934 2840 
Q 4756 3084 4391 3084 
Q 3944 3084 3684 2787 
Q 3425 2491 3425 1978 
L 3425 0 
L 2847 0 
L 2847 2094 
Q 2847 2600 2669 2842 
Q 2491 3084 2119 3084 
Q 1678 3084 1418 2786 
Q 1159 2488 1159 1978 
L 1159 0 
L 581 0 
L 581 3500 
L 1159 3500 
L 1159 2956 
Q 1356 3278 1631 3431 
Q 1906 3584 2284 3584 
Q 2666 3584 2933 3390 
Q 3200 3197 3328 2828 
z
" transform="scale(0.015625)"/>
      </defs>
      <use xlink:href="#DejaVuSans-44"/>
      <use xlink:href="#DejaVuSans-65" x="77.001953"/>
      <use xlink:href="#DejaVuSans-76" x="138.525391"/>
      <use xlink:href="#DejaVuSans-69" x="197.705078"/>
      <use xlink:href="#DejaVuSans-61" x="225.488281"/>
      <use xlink:href="#DejaVuSans-74" x="286.767578"/>
      <use xlink:href="#DejaVuSans-69" x="325.976562"/>
      <use xlink:href="#DejaVuSans-6f" x="353.759766"/>
      <use xlink:href="#DejaVuSans-6e" x="414.941406"/>
      <use xlink:href="#DejaVuSans-20" x="478.320312"/>
      <use xlink:href="#DejaVuSans-66" x="510.107422"/>
      <use xlink:href="#DejaVuSans-72" x="545.3125"/>
      <use xlink:href="#DejaVuSans-6f" x="584.175781"/>
      <use xlink:href="#DejaVuSans-6d" x="645.357422"/>
      <use xlink:href="#DejaVuSans-20" x="742.769531"/>
      <use xlink:href="#DejaVuSans-61" x="774.556641"/>
      <use xlink:href="#DejaVuSans-76" x="835.835938"/>
      <use xlink:href="#DejaVuSans-65" x="895.015625"/>
      <use xlink:href="#DejaVuSans-72" x="956.539062"/>
      <use xlink:href="#DejaVuSans-61" x="997.652344"/>
      <use xlink:href="#DejaVuSans-67" x="1058.931641"/>
      <use xlink:href="#DejaVuSans-65" x="1122.408203"/>
      <use xlink:href="#DejaVuSans-20" x="1183.931641"/>
      <use xlink:href="#DejaVuSans-30" x="1215.71875"/>
     </g>
    </g>
    <g id="line2d_22">
     <path d="M 159.064062 188.395313 
L 169.064062 188.395313 
L 179.064062 188.395313 
" style="fill: none; stroke: #ff7f0e; stroke-width: 1.5; stroke-linecap: square"/>
    </g>
    <g id="text_13">
     <!-- Deviation from average 1 -->
     <g transform="translate(187.064062 191.895313)scale(0.1 -0.1)">
      <use xlink:href="#DejaVuSans-44"/>
      <use xlink:href="#DejaVuSans-65" x="77.001953"/>
      <use xlink:href="#DejaVuSans-76" x="138.525391"/>
      <use xlink:href="#DejaVuSans-69" x="197.705078"/>
      <use xlink:href="#DejaVuSans-61" x="225.488281"/>
      <use xlink:href="#DejaVuSans-74" x="286.767578"/>
      <use xlink:href="#DejaVuSans-69" x="325.976562"/>
      <use xlink:href="#DejaVuSans-6f" x="353.759766"/>
      <use xlink:href="#DejaVuSans-6e" x="414.941406"/>
      <use xlink:href="#DejaVuSans-20" x="478.320312"/>
      <use xlink:href="#DejaVuSans-66" x="510.107422"/>
      <use xlink:href="#DejaVuSans-72" x="545.3125"/>
      <use xlink:href="#DejaVuSans-6f" x="584.175781"/>
      <use xlink:href="#DejaVuSans-6d" x="645.357422"/>
      <use xlink:href="#DejaVuSans-20" x="742.769531"/>
      <use xlink:href="#DejaVuSans-61" x="774.556641"/>
      <use xlink:href="#DejaVuSans-76" x="835.835938"/>
      <use xlink:href="#DejaVuSans-65" x="895.015625"/>
      <use xlink:href="#DejaVuSans-72" x="956.539062"/>
      <use xlink:href="#DejaVuSans-61" x="997.652344"/>
      <use xlink:href="#DejaVuSans-67" x="1058.931641"/>
      <use xlink:href="#DejaVuSans-65" x="1122.408203"/>
      <use xlink:href="#DejaVuSans-20" x="1183.931641"/>
      <use xlink:href="#DejaVuSans-31" x="1215.71875"/>
     </g>
    </g>
    <g id="line2d_23">
     <path d="M 159.064062 203.073438 
L 169.064062 203.073438 
L 179.064062 203.073438 
" style="fill: none; stroke: #2ca02c; stroke-width: 1.5; stroke-linecap: square"/>
    </g>
    <g id="text_14">
     <!-- Deviation from average 2 -->
     <g transform="translate(187.064062 206.573438)scale(0.1 -0.1)">
      <use xlink:href="#DejaVuSans-44"/>
      <use xlink:href="#DejaVuSans-65" x="77.001953"/>
      <use xlink:href="#DejaVuSans-76" x="138.525391"/>
      <use xlink:href="#DejaVuSans-69" x="197.705078"/>
      <use xlink:href="#DejaVuSans-61" x="225.488281"/>
      <use xlink:href="#DejaVuSans-74" x="286.767578"/>
      <use xlink:href="#DejaVuSans-69" x="325.976562"/>
      <use xlink:href="#DejaVuSans-6f" x="353.759766"/>
      <use xlink:href="#DejaVuSans-6e" x="414.941406"/>
      <use xlink:href="#DejaVuSans-20" x="478.320312"/>
      <use xlink:href="#DejaVuSans-66" x="510.107422"/>
      <use xlink:href="#DejaVuSans-72" x="545.3125"/>
      <use xlink:href="#DejaVuSans-6f" x="584.175781"/>
      <use xlink:href="#DejaVuSans-6d" x="645.357422"/>
      <use xlink:href="#DejaVuSans-20" x="742.769531"/>
      <use xlink:href="#DejaVuSans-61" x="774.556641"/>
      <use xlink:href="#DejaVuSans-76" x="835.835938"/>
      <use xlink:href="#DejaVuSans-65" x="895.015625"/>
      <use xlink:href="#DejaVuSans-72" x="956.539062"/>
      <use xlink:href="#DejaVuSans-61" x="997.652344"/>
      <use xlink:href="#DejaVuSans-67" x="1058.931641"/>
      <use xlink:href="#DejaVuSans-65" x="1122.408203"/>
      <use xlink:href="#DejaVuSans-20" x="1183.931641"/>
      <use xlink:href="#DejaVuSans-32" x="1215.71875"/>
     </g>
    </g>
    <g id="line2d_24">
     <path d="M 159.064062 217.751563 
L 169.064062 217.751563 
L 179.064062 217.751563 
" style="fill: none; stroke: #d62728; stroke-width: 1.5; stroke-linecap: square"/>
    </g>
    <g id="text_15">
     <!-- Deviation from average 3 -->
     <g transform="translate(187.064062 221.251563)scale(0.1 -0.1)">
      <defs>
       <path id="DejaVuSans-33" d="M 2597 2516 
Q 3050 2419 3304 2112 
Q 3559 1806 3559 1356 
Q 3559 666 3084 287 
Q 2609 -91 1734 -91 
Q 1441 -91 1130 -33 
Q 819 25 488 141 
L 488 750 
Q 750 597 1062 519 
Q 1375 441 1716 441 
Q 2309 441 2620 675 
Q 2931 909 2931 1356 
Q 2931 1769 2642 2001 
Q 2353 2234 1838 2234 
L 1294 2234 
L 1294 2753 
L 1863 2753 
Q 2328 2753 2575 2939 
Q 2822 3125 2822 3475 
Q 2822 3834 2567 4026 
Q 2313 4219 1838 4219 
Q 1578 4219 1281 4162 
Q 984 4106 628 3988 
L 628 4550 
Q 988 4650 1302 4700 
Q 1616 4750 1894 4750 
Q 2613 4750 3031 4423 
Q 3450 4097 3450 3541 
Q 3450 3153 3228 2886 
Q 3006 2619 2597 2516 
z
" transform="scale(0.015625)"/>
      </defs>
      <use xlink:href="#DejaVuSans-44"/>
      <use xlink:href="#DejaVuSans-65" x="77.001953"/>
      <use xlink:href="#DejaVuSans-76" x="138.525391"/>
      <use xlink:href="#DejaVuSans-69" x="197.705078"/>
      <use xlink:href="#DejaVuSans-61" x="225.488281"/>
      <use xlink:href="#DejaVuSans-74" x="286.767578"/>
      <use xlink:href="#DejaVuSans-69" x="325.976562"/>
      <use xlink:href="#DejaVuSans-6f" x="353.759766"/>
      <use xlink:href="#DejaVuSans-6e" x="414.941406"/>
      <use xlink:href="#DejaVuSans-20" x="478.320312"/>
      <use xlink:href="#DejaVuSans-66" x="510.107422"/>
      <use xlink:href="#DejaVuSans-72" x="545.3125"/>
      <use xlink:href="#DejaVuSans-6f" x="584.175781"/>
      <use xlink:href="#DejaVuSans-6d" x="645.357422"/>
      <use xlink:href="#DejaVuSans-20" x="742.769531"/>
      <use xlink:href="#DejaVuSans-61" x="774.556641"/>
      <use xlink:href="#DejaVuSans-76" x="835.835938"/>
      <use xlink:href="#DejaVuSans-65" x="895.015625"/>
      <use xlink:href="#DejaVuSans-72" x="956.539062"/>
      <use xlink:href="#DejaVuSans-61" x="997.652344"/>
      <use xlink:href="#DejaVuSans-67" x="1058.931641"/>
      <use xlink:href="#DejaVuSans-65" x="1122.408203"/>
      <use xlink:href="#DejaVuSans-20" x="1183.931641"/>
      <use xlink:href="#DejaVuSans-33" x="1215.71875"/>
     </g>
    </g>
    <g id="line2d_25">
     <path d="M 159.064062 232.429688 
L 169.064062 232.429688 
L 179.064062 232.429688 
" style="fill: none; stroke: #9467bd; stroke-width: 1.5; stroke-linecap: square"/>
    </g>
    <g id="text_16">
     <!-- Deviation from average 4 -->
     <g transform="translate(187.064062 235.929688)scale(0.1 -0.1)">
      <defs>
       <path id="DejaVuSans-34" d="M 2419 4116 
L 825 1625 
L 2419 1625 
L 2419 4116 
z
M 2253 4666 
L 3047 4666 
L 3047 1625 
L 3713 1625 
L 3713 1100 
L 3047 1100 
L 3047 0 
L 2419 0 
L 2419 1100 
L 313 1100 
L 313 1709 
L 2253 4666 
z
" transform="scale(0.015625)"/>
      </defs>
      <use xlink:href="#DejaVuSans-44"/>
      <use xlink:href="#DejaVuSans-65" x="77.001953"/>
      <use xlink:href="#DejaVuSans-76" x="138.525391"/>
      <use xlink:href="#DejaVuSans-69" x="197.705078"/>
      <use xlink:href="#DejaVuSans-61" x="225.488281"/>
      <use xlink:href="#DejaVuSans-74" x="286.767578"/>
      <use xlink:href="#DejaVuSans-69" x="325.976562"/>
      <use xlink:href="#DejaVuSans-6f" x="353.759766"/>
      <use xlink:href="#DejaVuSans-6e" x="414.941406"/>
      <use xlink:href="#DejaVuSans-20" x="478.320312"/>
      <use xlink:href="#DejaVuSans-66" x="510.107422"/>
      <use xlink:href="#DejaVuSans-72" x="545.3125"/>
      <use xlink:href="#DejaVuSans-6f" x="584.175781"/>
      <use xlink:href="#DejaVuSans-6d" x="645.357422"/>
      <use xlink:href="#DejaVuSans-20" x="742.769531"/>
      <use xlink:href="#DejaVuSans-61" x="774.556641"/>
      <use xlink:href="#DejaVuSans-76" x="835.835938"/>
      <use xlink:href="#DejaVuSans-65" x="895.015625"/>
      <use xlink:href="#DejaVuSans-72" x="956.539062"/>
      <use xlink:href="#DejaVuSans-61" x="997.652344"/>
      <use xlink:href="#DejaVuSans-67" x="1058.931641"/>
      <use xlink:href="#DejaVuSans-65" x="1122.408203"/>
      <use xlink:href="#DejaVuSans-20" x="1183.931641"/>
      <use xlink:href="#DejaVuSans-34" x="1215.71875"/>
     </g>
    </g>
    <g id="line2d_26">
     <path d="M 159.064062 247.107813 
L 169.064062 247.107813 
L 179.064062 247.107813 
" style="fill: none; stroke: #8c564b; stroke-width: 1.5; stroke-linecap: square"/>
    </g>
    <g id="text_17">
     <!-- Deviation from average 5 -->
     <g transform="translate(187.064062 250.607813)scale(0.1 -0.1)">
      <defs>
       <path id="DejaVuSans-35" d="M 691 4666 
L 3169 4666 
L 3169 4134 
L 1269 4134 
L 1269 2991 
Q 1406 3038 1543 3061 
Q 1681 3084 1819 3084 
Q 2600 3084 3056 2656 
Q 3513 2228 3513 1497 
Q 3513 744 3044 326 
Q 2575 -91 1722 -91 
Q 1428 -91 1123 -41 
Q 819 9 494 109 
L 494 744 
Q 775 591 1075 516 
Q 1375 441 1709 441 
Q 2250 441 2565 725 
Q 2881 1009 2881 1497 
Q 2881 1984 2565 2268 
Q 2250 2553 1709 2553 
Q 1456 2553 1204 2497 
Q 953 2441 691 2322 
L 691 4666 
z
" transform="scale(0.015625)"/>
      </defs>
      <use xlink:href="#DejaVuSans-44"/>
      <use xlink:href="#DejaVuSans-65" x="77.001953"/>
      <use xlink:href="#DejaVuSans-76" x="138.525391"/>
      <use xlink:href="#DejaVuSans-69" x="197.705078"/>
      <use xlink:href="#DejaVuSans-61" x="225.488281"/>
      <use xlink:href="#DejaVuSans-74" x="286.767578"/>
      <use xlink:href="#DejaVuSans-69" x="325.976562"/>
      <use xlink:href="#DejaVuSans-6f" x="353.759766"/>
      <use xlink:href="#DejaVuSans-6e" x="414.941406"/>
      <use xlink:href="#DejaVuSans-20" x="478.320312"/>
      <use xlink:href="#DejaVuSans-66" x="510.107422"/>
      <use xlink:href="#DejaVuSans-72" x="545.3125"/>
      <use xlink:href="#DejaVuSans-6f" x="584.175781"/>
      <use xlink:href="#DejaVuSans-6d" x="645.357422"/>
      <use xlink:href="#DejaVuSans-20" x="742.769531"/>
      <use xlink:href="#DejaVuSans-61" x="774.556641"/>
      <use xlink:href="#DejaVuSans-76" x="835.835938"/>
      <use xlink:href="#DejaVuSans-65" x="895.015625"/>
      <use xlink:href="#DejaVuSans-72" x="956.539062"/>
      <use xlink:href="#DejaVuSans-61" x="997.652344"/>
      <use xlink:href="#DejaVuSans-67" x="1058.931641"/>
      <use xlink:href="#DejaVuSans-65" x="1122.408203"/>
      <use xlink:href="#DejaVuSans-20" x="1183.931641"/>
      <use xlink:href="#DejaVuSans-35" x="1215.71875"/>
     </g>
    </g>
    <g id="line2d_27">
     <path d="M 159.064062 261.785938 
L 169.064062 261.785938 
L 179.064062 261.785938 
" style="fill: none; stroke: #e377c2; stroke-width: 1.5; stroke-linecap: square"/>
    </g>
    <g id="text_18">
     <!-- Deviation from average 6 -->
     <g transform="translate(187.064062 265.285938)scale(0.1 -0.1)">
      <defs>
       <path id="DejaVuSans-36" d="M 2113 2584 
Q 1688 2584 1439 2293 
Q 1191 2003 1191 1497 
Q 1191 994 1439 701 
Q 1688 409 2113 409 
Q 2538 409 2786 701 
Q 3034 994 3034 1497 
Q 3034 2003 2786 2293 
Q 2538 2584 2113 2584 
z
M 3366 4563 
L 3366 3988 
Q 3128 4100 2886 4159 
Q 2644 4219 2406 4219 
Q 1781 4219 1451 3797 
Q 1122 3375 1075 2522 
Q 1259 2794 1537 2939 
Q 1816 3084 2150 3084 
Q 2853 3084 3261 2657 
Q 3669 2231 3669 1497 
Q 3669 778 3244 343 
Q 2819 -91 2113 -91 
Q 1303 -91 875 529 
Q 447 1150 447 2328 
Q 447 3434 972 4092 
Q 1497 4750 2381 4750 
Q 2619 4750 2861 4703 
Q 3103 4656 3366 4563 
z
" transform="scale(0.015625)"/>
      </defs>
      <use xlink:href="#DejaVuSans-44"/>
      <use xlink:href="#DejaVuSans-65" x="77.001953"/>
      <use xlink:href="#DejaVuSans-76" x="138.525391"/>
      <use xlink:href="#DejaVuSans-69" x="197.705078"/>
      <use xlink:href="#DejaVuSans-61" x="225.488281"/>
      <use xlink:href="#DejaVuSans-74" x="286.767578"/>
      <use xlink:href="#DejaVuSans-69" x="325.976562"/>
      <use xlink:href="#DejaVuSans-6f" x="353.759766"/>
      <use xlink:href="#DejaVuSans-6e" x="414.941406"/>
      <use xlink:href="#DejaVuSans-20" x="478.320312"/>
      <use xlink:href="#DejaVuSans-66" x="510.107422"/>
      <use xlink:href="#DejaVuSans-72" x="545.3125"/>
      <use xlink:href="#DejaVuSans-6f" x="584.175781"/>
      <use xlink:href="#DejaVuSans-6d" x="645.357422"/>
      <use xlink:href="#DejaVuSans-20" x="742.769531"/>
      <use xlink:href="#DejaVuSans-61" x="774.556641"/>
      <use xlink:href="#DejaVuSans-76" x="835.835938"/>
      <use xlink:href="#DejaVuSans-65" x="895.015625"/>
      <use xlink:href="#DejaVuSans-72" x="956.539062"/>
      <use xlink:href="#DejaVuSans-61" x="997.652344"/>
      <use xlink:href="#DejaVuSans-67" x="1058.931641"/>
      <use xlink:href="#DejaVuSans-65" x="1122.408203"/>
      <use xlink:href="#DejaVuSans-20" x="1183.931641"/>
      <use xlink:href="#DejaVuSans-36" x="1215.71875"/>
     </g>
    </g>
    <g id="line2d_28">
     <path d="M 159.064062 276.464063 
L 169.064062 276.464063 
L 179.064062 276.464063 
" style="fill: none; stroke: #7f7f7f; stroke-width: 1.5; stroke-linecap: square"/>
    </g>
    <g id="text_19">
     <!-- Deviation from average 7 -->
     <g transform="translate(187.064062 279.964063)scale(0.1 -0.1)">
      <defs>
       <path id="DejaVuSans-37" d="M 525 4666 
L 3525 4666 
L 3525 4397 
L 1831 0 
L 1172 0 
L 2766 4134 
L 525 4134 
L 525 4666 
z
" transform="scale(0.015625)"/>
      </defs>
      <use xlink:href="#DejaVuSans-44"/>
      <use xlink:href="#DejaVuSans-65" x="77.001953"/>
      <use xlink:href="#DejaVuSans-76" x="138.525391"/>
      <use xlink:href="#DejaVuSans-69" x="197.705078"/>
      <use xlink:href="#DejaVuSans-61" x="225.488281"/>
      <use xlink:href="#DejaVuSans-74" x="286.767578"/>
      <use xlink:href="#DejaVuSans-69" x="325.976562"/>
      <use xlink:href="#DejaVuSans-6f" x="353.759766"/>
      <use xlink:href="#DejaVuSans-6e" x="414.941406"/>
      <use xlink:href="#DejaVuSans-20" x="478.320312"/>
      <use xlink:href="#DejaVuSans-66" x="510.107422"/>
      <use xlink:href="#DejaVuSans-72" x="545.3125"/>
      <use xlink:href="#DejaVuSans-6f" x="584.175781"/>
      <use xlink:href="#DejaVuSans-6d" x="645.357422"/>
      <use xlink:href="#DejaVuSans-20" x="742.769531"/>
      <use xlink:href="#DejaVuSans-61" x="774.556641"/>
      <use xlink:href="#DejaVuSans-76" x="835.835938"/>
      <use xlink:href="#DejaVuSans-65" x="895.015625"/>
      <use xlink:href="#DejaVuSans-72" x="956.539062"/>
      <use xlink:href="#DejaVuSans-61" x="997.652344"/>
      <use xlink:href="#DejaVuSans-67" x="1058.931641"/>
      <use xlink:href="#DejaVuSans-65" x="1122.408203"/>
      <use xlink:href="#DejaVuSans-20" x="1183.931641"/>
      <use xlink:href="#DejaVuSans-37" x="1215.71875"/>
     </g>
    </g>
    <g id="line2d_29">
     <path d="M 159.064062 291.142188 
L 169.064062 291.142188 
L 179.064062 291.142188 
" style="fill: none; stroke: #bcbd22; stroke-width: 1.5; stroke-linecap: square"/>
    </g>
    <g id="text_20">
     <!-- Deviation from average 8 -->
     <g transform="translate(187.064062 294.642188)scale(0.1 -0.1)">
      <defs>
       <path id="DejaVuSans-38" d="M 2034 2216 
Q 1584 2216 1326 1975 
Q 1069 1734 1069 1313 
Q 1069 891 1326 650 
Q 1584 409 2034 409 
Q 2484 409 2743 651 
Q 3003 894 3003 1313 
Q 3003 1734 2745 1975 
Q 2488 2216 2034 2216 
z
M 1403 2484 
Q 997 2584 770 2862 
Q 544 3141 544 3541 
Q 544 4100 942 4425 
Q 1341 4750 2034 4750 
Q 2731 4750 3128 4425 
Q 3525 4100 3525 3541 
Q 3525 3141 3298 2862 
Q 3072 2584 2669 2484 
Q 3125 2378 3379 2068 
Q 3634 1759 3634 1313 
Q 3634 634 3220 271 
Q 2806 -91 2034 -91 
Q 1263 -91 848 271 
Q 434 634 434 1313 
Q 434 1759 690 2068 
Q 947 2378 1403 2484 
z
M 1172 3481 
Q 1172 3119 1398 2916 
Q 1625 2713 2034 2713 
Q 2441 2713 2670 2916 
Q 2900 3119 2900 3481 
Q 2900 3844 2670 4047 
Q 2441 4250 2034 4250 
Q 1625 4250 1398 4047 
Q 1172 3844 1172 3481 
z
" transform="scale(0.015625)"/>
      </defs>
      <use xlink:href="#DejaVuSans-44"/>
      <use xlink:href="#DejaVuSans-65" x="77.001953"/>
      <use xlink:href="#DejaVuSans-76" x="138.525391"/>
      <use xlink:href="#DejaVuSans-69" x="197.705078"/>
      <use xlink:href="#DejaVuSans-61" x="225.488281"/>
      <use xlink:href="#DejaVuSans-74" x="286.767578"/>
      <use xlink:href="#DejaVuSans-69" x="325.976562"/>
      <use xlink:href="#DejaVuSans-6f" x="353.759766"/>
      <use xlink:href="#DejaVuSans-6e" x="414.941406"/>
      <use xlink:href="#DejaVuSans-20" x="478.320312"/>
      <use xlink:href="#DejaVuSans-66" x="510.107422"/>
      <use xlink:href="#DejaVuSans-72" x="545.3125"/>
      <use xlink:href="#DejaVuSans-6f" x="584.175781"/>
      <use xlink:href="#DejaVuSans-6d" x="645.357422"/>
      <use xlink:href="#DejaVuSans-20" x="742.769531"/>
      <use xlink:href="#DejaVuSans-61" x="774.556641"/>
      <use xlink:href="#DejaVuSans-76" x="835.835938"/>
      <use xlink:href="#DejaVuSans-65" x="895.015625"/>
      <use xlink:href="#DejaVuSans-72" x="956.539062"/>
      <use xlink:href="#DejaVuSans-61" x="997.652344"/>
      <use xlink:href="#DejaVuSans-67" x="1058.931641"/>
      <use xlink:href="#DejaVuSans-65" x="1122.408203"/>
      <use xlink:href="#DejaVuSans-20" x="1183.931641"/>
      <use xlink:href="#DejaVuSans-38" x="1215.71875"/>
     </g>
    </g>
    <g id="line2d_30">
     <path d="M 159.064062 305.820312 
L 169.064062 305.820312 
L 179.064062 305.820312 
" style="fill: none; stroke: #17becf; stroke-width: 1.5; stroke-linecap: square"/>
    </g>
    <g id="text_21">
     <!-- Deviation from average 9 -->
     <g transform="translate(187.064062 309.320312)scale(0.1 -0.1)">
      <defs>
       <path id="DejaVuSans-39" d="M 703 97 
L 703 672 
Q 941 559 1184 500 
Q 1428 441 1663 441 
Q 2288 441 2617 861 
Q 2947 1281 2994 2138 
Q 2813 1869 2534 1725 
Q 2256 1581 1919 1581 
Q 1219 1581 811 2004 
Q 403 2428 403 3163 
Q 403 3881 828 4315 
Q 1253 4750 1959 4750 
Q 2769 4750 3195 4129 
Q 3622 3509 3622 2328 
Q 3622 1225 3098 567 
Q 2575 -91 1691 -91 
Q 1453 -91 1209 -44 
Q 966 3 703 97 
z
M 1959 2075 
Q 2384 2075 2632 2365 
Q 2881 2656 2881 3163 
Q 2881 3666 2632 3958 
Q 2384 4250 1959 4250 
Q 1534 4250 1286 3958 
Q 1038 3666 1038 3163 
Q 1038 2656 1286 2365 
Q 1534 2075 1959 2075 
z
" transform="scale(0.015625)"/>
      </defs>
      <use xlink:href="#DejaVuSans-44"/>
      <use xlink:href="#DejaVuSans-65" x="77.001953"/>
      <use xlink:href="#DejaVuSans-76" x="138.525391"/>
      <use xlink:href="#DejaVuSans-69" x="197.705078"/>
      <use xlink:href="#DejaVuSans-61" x="225.488281"/>
      <use xlink:href="#DejaVuSans-74" x="286.767578"/>
      <use xlink:href="#DejaVuSans-69" x="325.976562"/>
      <use xlink:href="#DejaVuSans-6f" x="353.759766"/>
      <use xlink:href="#DejaVuSans-6e" x="414.941406"/>
      <use xlink:href="#DejaVuSans-20" x="478.320312"/>
      <use xlink:href="#DejaVuSans-66" x="510.107422"/>
      <use xlink:href="#DejaVuSans-72" x="545.3125"/>
      <use xlink:href="#DejaVuSans-6f" x="584.175781"/>
      <use xlink:href="#DejaVuSans-6d" x="645.357422"/>
      <use xlink:href="#DejaVuSans-20" x="742.769531"/>
      <use xlink:href="#DejaVuSans-61" x="774.556641"/>
      <use xlink:href="#DejaVuSans-76" x="835.835938"/>
      <use xlink:href="#DejaVuSans-65" x="895.015625"/>
      <use xlink:href="#DejaVuSans-72" x="956.539062"/>
      <use xlink:href="#DejaVuSans-61" x="997.652344"/>
      <use xlink:href="#DejaVuSans-67" x="1058.931641"/>
      <use xlink:href="#DejaVuSans-65" x="1122.408203"/>
      <use xlink:href="#DejaVuSans-20" x="1183.931641"/>
      <use xlink:href="#DejaVuSans-39" x="1215.71875"/>
     </g>
    </g>
   </g>
  </g>
 </g>
 <defs>
  <clipPath id="pd0ad8637d6">
   <rect x="45" y="43.2" width="279" height="277.2"/>
  </clipPath>
 </defs>
</svg>
