<?xml version="1.0" encoding="utf-8" standalone="no"?>
<!DOCTYPE svg PUBLIC "-//W3C//DTD SVG 1.1//EN"
  "http://www.w3.org/Graphics/SVG/1.1/DTD/svg11.dtd">
<svg xmlns:xlink="http://www.w3.org/1999/xlink" width="360pt" height="360pt" viewBox="0 0 360 360" xmlns="http://www.w3.org/2000/svg" version="1.1">
 <metadata>
  <rdf:RDF xmlns:dc="http://purl.org/dc/elements/1.1/" xmlns:cc="http://creativecommons.org/ns#" xmlns:rdf="http://www.w3.org/1999/02/22-rdf-syntax-ns#">
   <cc:Work>
    <dc:type rdf:resource="http://purl.org/dc/dcmitype/StillImage"/>
    <dc:date>2022-11-12T19:51:08.285897</dc:date>
    <dc:format>image/svg+xml</dc:format>
    <dc:creator>
     <cc:Agent>
      <dc:title>Matplotlib v3.5.3, https://matplotlib.org/</dc:title>
     </cc:Agent>
    </dc:creator>
   </cc:Work>
  </rdf:RDF>
 </metadata>
 <defs>
  <style type="text/css">*{stroke-linejoin: round; stroke-linecap: butt}</style>
 </defs>
 <g id="figure_1">
  <g id="patch_1">
   <path d="M 0 360 
L 360 360 
L 360 0 
L 0 0 
z
" style="fill: #ffffff"/>
  </g>
  <g id="axes_1">
   <g id="patch_2">
    <path d="M 45 320.4 
L 324 320.4 
L 324 43.2 
L 45 43.2 
z
" style="fill: #ffffff"/>
   </g>
   <g id="matplotlib.axis_1">
    <g id="xtick_1">
     <g id="line2d_1">
      <defs>
       <path id="mb2a2f8322f" d="M 0 0 
L 0 3.5 
" style="stroke: #000000; stroke-width: 0.8"/>
      </defs>
      <g>
       <use xlink:href="#mb2a2f8322f" x="83.045455" y="320.4" style="stroke: #000000; stroke-width: 0.8"/>
      </g>
     </g>
     <g id="text_1">
      <!-- −2 -->
      <g transform="translate(75.674361 334.998438)scale(0.1 -0.1)">
       <defs>
        <path id="DejaVuSans-2212" d="M 678 2272 
L 4684 2272 
L 4684 1741 
L 678 1741 
L 678 2272 
z
" transform="scale(0.015625)"/>
        <path id="DejaVuSans-32" d="M 1228 531 
L 3431 531 
L 3431 0 
L 469 0 
L 469 531 
Q 828 903 1448 1529 
Q 2069 2156 2228 2338 
Q 2531 2678 2651 2914 
Q 2772 3150 2772 3378 
Q 2772 3750 2511 3984 
Q 2250 4219 1831 4219 
Q 1534 4219 1204 4116 
Q 875 4013 500 3803 
L 500 4441 
Q 881 4594 1212 4672 
Q 1544 4750 1819 4750 
Q 2544 4750 2975 4387 
Q 3406 4025 3406 3419 
Q 3406 3131 3298 2873 
Q 3191 2616 2906 2266 
Q 2828 2175 2409 1742 
Q 1991 1309 1228 531 
z
" transform="scale(0.015625)"/>
       </defs>
       <use xlink:href="#DejaVuSans-2212"/>
       <use xlink:href="#DejaVuSans-32" x="83.789062"/>
      </g>
     </g>
    </g>
    <g id="xtick_2">
     <g id="line2d_2">
      <g>
       <use xlink:href="#mb2a2f8322f" x="133.772727" y="320.4" style="stroke: #000000; stroke-width: 0.8"/>
      </g>
     </g>
     <g id="text_2">
      <!-- −1 -->
      <g transform="translate(126.401634 334.998438)scale(0.1 -0.1)">
       <defs>
        <path id="DejaVuSans-31" d="M 794 531 
L 1825 531 
L 1825 4091 
L 703 3866 
L 703 4441 
L 1819 4666 
L 2450 4666 
L 2450 531 
L 3481 531 
L 3481 0 
L 794 0 
L 794 531 
z
" transform="scale(0.015625)"/>
       </defs>
       <use xlink:href="#DejaVuSans-2212"/>
       <use xlink:href="#DejaVuSans-31" x="83.789062"/>
      </g>
     </g>
    </g>
    <g id="xtick_3">
     <g id="line2d_3">
      <g>
       <use xlink:href="#mb2a2f8322f" x="184.5" y="320.4" style="stroke: #000000; stroke-width: 0.8"/>
      </g>
     </g>
     <g id="text_3">
      <!-- 0 -->
      <g transform="translate(181.31875 334.998438)scale(0.1 -0.1)">
       <defs>
        <path id="DejaVuSans-30" d="M 2034 4250 
Q 1547 4250 1301 3770 
Q 1056 3291 1056 2328 
Q 1056 1369 1301 889 
Q 1547 409 2034 409 
Q 2525 409 2770 889 
Q 3016 1369 3016 2328 
Q 3016 3291 2770 3770 
Q 2525 4250 2034 4250 
z
M 2034 4750 
Q 2819 4750 3233 4129 
Q 3647 3509 3647 2328 
Q 3647 1150 3233 529 
Q 2819 -91 2034 -91 
Q 1250 -91 836 529 
Q 422 1150 422 2328 
Q 422 3509 836 4129 
Q 1250 4750 2034 4750 
z
" transform="scale(0.015625)"/>
       </defs>
       <use xlink:href="#DejaVuSans-30"/>
      </g>
     </g>
    </g>
    <g id="xtick_4">
     <g id="line2d_4">
      <g>
       <use xlink:href="#mb2a2f8322f" x="235.227273" y="320.4" style="stroke: #000000; stroke-width: 0.8"/>
      </g>
     </g>
     <g id="text_4">
      <!-- 1 -->
      <g transform="translate(232.046023 334.998438)scale(0.1 -0.1)">
       <use xlink:href="#DejaVuSans-31"/>
      </g>
     </g>
    </g>
    <g id="xtick_5">
     <g id="line2d_5">
      <g>
       <use xlink:href="#mb2a2f8322f" x="285.954545" y="320.4" style="stroke: #000000; stroke-width: 0.8"/>
      </g>
     </g>
     <g id="text_5">
      <!-- 2 -->
      <g transform="translate(282.773295 334.998438)scale(0.1 -0.1)">
       <use xlink:href="#DejaVuSans-32"/>
      </g>
     </g>
    </g>
   </g>
   <g id="matplotlib.axis_2">
    <g id="ytick_1">
     <g id="line2d_6">
      <defs>
       <path id="m82254b31a6" d="M 0 0 
L -3.5 0 
" style="stroke: #000000; stroke-width: 0.8"/>
      </defs>
      <g>
       <use xlink:href="#m82254b31a6" x="45" y="277.719879" style="stroke: #000000; stroke-width: 0.8"/>
      </g>
     </g>
     <g id="text_6">
      <!-- $\mathdefault{10^{-3}}$ -->
      <g transform="translate(14.5 281.519098)scale(0.1 -0.1)">
       <defs>
        <path id="DejaVuSans-33" d="M 2597 2516 
Q 3050 2419 3304 2112 
Q 3559 1806 3559 1356 
Q 3559 666 3084 287 
Q 2609 -91 1734 -91 
Q 1441 -91 1130 -33 
Q 819 25 488 141 
L 488 750 
Q 750 597 1062 519 
Q 1375 441 1716 441 
Q 2309 441 2620 675 
Q 2931 909 2931 1356 
Q 2931 1769 2642 2001 
Q 2353 2234 1838 2234 
L 1294 2234 
L 1294 2753 
L 1863 2753 
Q 2328 2753 2575 2939 
Q 2822 3125 2822 3475 
Q 2822 3834 2567 4026 
Q 2313 4219 1838 4219 
Q 1578 4219 1281 4162 
Q 984 4106 628 3988 
L 628 4550 
Q 988 4650 1302 4700 
Q 1616 4750 1894 4750 
Q 2613 4750 3031 4423 
Q 3450 4097 3450 3541 
Q 3450 3153 3228 2886 
Q 3006 2619 2597 2516 
z
" transform="scale(0.015625)"/>
       </defs>
       <use xlink:href="#DejaVuSans-31" transform="translate(0 0.765625)"/>
       <use xlink:href="#DejaVuSans-30" transform="translate(63.623047 0.765625)"/>
       <use xlink:href="#DejaVuSans-2212" transform="translate(128.203125 39.046875)scale(0.7)"/>
       <use xlink:href="#DejaVuSans-33" transform="translate(186.855469 39.046875)scale(0.7)"/>
      </g>
     </g>
    </g>
    <g id="ytick_2">
     <g id="line2d_7">
      <g>
       <use xlink:href="#m82254b31a6" x="45" y="224.557151" style="stroke: #000000; stroke-width: 0.8"/>
      </g>
     </g>
     <g id="text_7">
      <!-- $\mathdefault{10^{-2}}$ -->
      <g transform="translate(14.5 228.35637)scale(0.1 -0.1)">
       <use xlink:href="#DejaVuSans-31" transform="translate(0 0.765625)"/>
       <use xlink:href="#DejaVuSans-30" transform="translate(63.623047 0.765625)"/>
       <use xlink:href="#DejaVuSans-2212" transform="translate(128.203125 39.046875)scale(0.7)"/>
       <use xlink:href="#DejaVuSans-32" transform="translate(186.855469 39.046875)scale(0.7)"/>
      </g>
     </g>
    </g>
    <g id="ytick_3">
     <g id="line2d_8">
      <g>
       <use xlink:href="#m82254b31a6" x="45" y="171.394422" style="stroke: #000000; stroke-width: 0.8"/>
      </g>
     </g>
     <g id="text_8">
      <!-- $\mathdefault{10^{-1}}$ -->
      <g transform="translate(14.5 175.193641)scale(0.1 -0.1)">
       <use xlink:href="#DejaVuSans-31" transform="translate(0 0.684375)"/>
       <use xlink:href="#DejaVuSans-30" transform="translate(63.623047 0.684375)"/>
       <use xlink:href="#DejaVuSans-2212" transform="translate(128.203125 38.965625)scale(0.7)"/>
       <use xlink:href="#DejaVuSans-31" transform="translate(186.855469 38.965625)scale(0.7)"/>
      </g>
     </g>
    </g>
    <g id="ytick_4">
     <g id="line2d_9">
      <g>
       <use xlink:href="#m82254b31a6" x="45" y="118.231694" style="stroke: #000000; stroke-width: 0.8"/>
      </g>
     </g>
     <g id="text_9">
      <!-- $\mathdefault{10^{0}}$ -->
      <g transform="translate(20.4 122.030912)scale(0.1 -0.1)">
       <use xlink:href="#DejaVuSans-31" transform="translate(0 0.765625)"/>
       <use xlink:href="#DejaVuSans-30" transform="translate(63.623047 0.765625)"/>
       <use xlink:href="#DejaVuSans-30" transform="translate(128.203125 39.046875)scale(0.7)"/>
      </g>
     </g>
    </g>
    <g id="ytick_5">
     <g id="line2d_10">
      <g>
       <use xlink:href="#m82254b31a6" x="45" y="65.068965" style="stroke: #000000; stroke-width: 0.8"/>
      </g>
     </g>
     <g id="text_10">
      <!-- $\mathdefault{10^{1}}$ -->
      <g transform="translate(20.4 68.868184)scale(0.1 -0.1)">
       <use xlink:href="#DejaVuSans-31" transform="translate(0 0.684375)"/>
       <use xlink:href="#DejaVuSans-30" transform="translate(63.623047 0.684375)"/>
       <use xlink:href="#DejaVuSans-31" transform="translate(128.203125 38.965625)scale(0.7)"/>
      </g>
     </g>
    </g>
    <g id="ytick_6">
     <g id="line2d_11">
      <defs>
       <path id="m32cd9a0f99" d="M 0 0 
L -2 0 
" style="stroke: #000000; stroke-width: 0.6"/>
      </defs>
      <g>
       <use xlink:href="#m32cd9a0f99" x="45" y="314.879032" style="stroke: #000000; stroke-width: 0.6"/>
      </g>
     </g>
    </g>
    <g id="ytick_7">
     <g id="line2d_12">
      <g>
       <use xlink:href="#m32cd9a0f99" x="45" y="305.51754" style="stroke: #000000; stroke-width: 0.6"/>
      </g>
     </g>
    </g>
    <g id="ytick_8">
     <g id="line2d_13">
      <g>
       <use xlink:href="#m32cd9a0f99" x="45" y="298.875456" style="stroke: #000000; stroke-width: 0.6"/>
      </g>
     </g>
    </g>
    <g id="ytick_9">
     <g id="line2d_14">
      <g>
       <use xlink:href="#m32cd9a0f99" x="45" y="293.723455" style="stroke: #000000; stroke-width: 0.6"/>
      </g>
     </g>
    </g>
    <g id="ytick_10">
     <g id="line2d_15">
      <g>
       <use xlink:href="#m32cd9a0f99" x="45" y="289.513964" style="stroke: #000000; stroke-width: 0.6"/>
      </g>
     </g>
    </g>
    <g id="ytick_11">
     <g id="line2d_16">
      <g>
       <use xlink:href="#m32cd9a0f99" x="45" y="285.95489" style="stroke: #000000; stroke-width: 0.6"/>
      </g>
     </g>
    </g>
    <g id="ytick_12">
     <g id="line2d_17">
      <g>
       <use xlink:href="#m32cd9a0f99" x="45" y="282.87188" style="stroke: #000000; stroke-width: 0.6"/>
      </g>
     </g>
    </g>
    <g id="ytick_13">
     <g id="line2d_18">
      <g>
       <use xlink:href="#m32cd9a0f99" x="45" y="280.152473" style="stroke: #000000; stroke-width: 0.6"/>
      </g>
     </g>
    </g>
    <g id="ytick_14">
     <g id="line2d_19">
      <g>
       <use xlink:href="#m32cd9a0f99" x="45" y="261.716304" style="stroke: #000000; stroke-width: 0.6"/>
      </g>
     </g>
    </g>
    <g id="ytick_15">
     <g id="line2d_20">
      <g>
       <use xlink:href="#m32cd9a0f99" x="45" y="252.354812" style="stroke: #000000; stroke-width: 0.6"/>
      </g>
     </g>
    </g>
    <g id="ytick_16">
     <g id="line2d_21">
      <g>
       <use xlink:href="#m32cd9a0f99" x="45" y="245.712728" style="stroke: #000000; stroke-width: 0.6"/>
      </g>
     </g>
    </g>
    <g id="ytick_17">
     <g id="line2d_22">
      <g>
       <use xlink:href="#m32cd9a0f99" x="45" y="240.560727" style="stroke: #000000; stroke-width: 0.6"/>
      </g>
     </g>
    </g>
    <g id="ytick_18">
     <g id="line2d_23">
      <g>
       <use xlink:href="#m32cd9a0f99" x="45" y="236.351236" style="stroke: #000000; stroke-width: 0.6"/>
      </g>
     </g>
    </g>
    <g id="ytick_19">
     <g id="line2d_24">
      <g>
       <use xlink:href="#m32cd9a0f99" x="45" y="232.792162" style="stroke: #000000; stroke-width: 0.6"/>
      </g>
     </g>
    </g>
    <g id="ytick_20">
     <g id="line2d_25">
      <g>
       <use xlink:href="#m32cd9a0f99" x="45" y="229.709152" style="stroke: #000000; stroke-width: 0.6"/>
      </g>
     </g>
    </g>
    <g id="ytick_21">
     <g id="line2d_26">
      <g>
       <use xlink:href="#m32cd9a0f99" x="45" y="226.989744" style="stroke: #000000; stroke-width: 0.6"/>
      </g>
     </g>
    </g>
    <g id="ytick_22">
     <g id="line2d_27">
      <g>
       <use xlink:href="#m32cd9a0f99" x="45" y="208.553575" style="stroke: #000000; stroke-width: 0.6"/>
      </g>
     </g>
    </g>
    <g id="ytick_23">
     <g id="line2d_28">
      <g>
       <use xlink:href="#m32cd9a0f99" x="45" y="199.192083" style="stroke: #000000; stroke-width: 0.6"/>
      </g>
     </g>
    </g>
    <g id="ytick_24">
     <g id="line2d_29">
      <g>
       <use xlink:href="#m32cd9a0f99" x="45" y="192.549999" style="stroke: #000000; stroke-width: 0.6"/>
      </g>
     </g>
    </g>
    <g id="ytick_25">
     <g id="line2d_30">
      <g>
       <use xlink:href="#m32cd9a0f99" x="45" y="187.397998" style="stroke: #000000; stroke-width: 0.6"/>
      </g>
     </g>
    </g>
    <g id="ytick_26">
     <g id="line2d_31">
      <g>
       <use xlink:href="#m32cd9a0f99" x="45" y="183.188507" style="stroke: #000000; stroke-width: 0.6"/>
      </g>
     </g>
    </g>
    <g id="ytick_27">
     <g id="line2d_32">
      <g>
       <use xlink:href="#m32cd9a0f99" x="45" y="179.629433" style="stroke: #000000; stroke-width: 0.6"/>
      </g>
     </g>
    </g>
    <g id="ytick_28">
     <g id="line2d_33">
      <g>
       <use xlink:href="#m32cd9a0f99" x="45" y="176.546423" style="stroke: #000000; stroke-width: 0.6"/>
      </g>
     </g>
    </g>
    <g id="ytick_29">
     <g id="line2d_34">
      <g>
       <use xlink:href="#m32cd9a0f99" x="45" y="173.827015" style="stroke: #000000; stroke-width: 0.6"/>
      </g>
     </g>
    </g>
    <g id="ytick_30">
     <g id="line2d_35">
      <g>
       <use xlink:href="#m32cd9a0f99" x="45" y="155.390846" style="stroke: #000000; stroke-width: 0.6"/>
      </g>
     </g>
    </g>
    <g id="ytick_31">
     <g id="line2d_36">
      <g>
       <use xlink:href="#m32cd9a0f99" x="45" y="146.029354" style="stroke: #000000; stroke-width: 0.6"/>
      </g>
     </g>
    </g>
    <g id="ytick_32">
     <g id="line2d_37">
      <g>
       <use xlink:href="#m32cd9a0f99" x="45" y="139.38727" style="stroke: #000000; stroke-width: 0.6"/>
      </g>
     </g>
    </g>
    <g id="ytick_33">
     <g id="line2d_38">
      <g>
       <use xlink:href="#m32cd9a0f99" x="45" y="134.235269" style="stroke: #000000; stroke-width: 0.6"/>
      </g>
     </g>
    </g>
    <g id="ytick_34">
     <g id="line2d_39">
      <g>
       <use xlink:href="#m32cd9a0f99" x="45" y="130.025778" style="stroke: #000000; stroke-width: 0.6"/>
      </g>
     </g>
    </g>
    <g id="ytick_35">
     <g id="line2d_40">
      <g>
       <use xlink:href="#m32cd9a0f99" x="45" y="126.466704" style="stroke: #000000; stroke-width: 0.6"/>
      </g>
     </g>
    </g>
    <g id="ytick_36">
     <g id="line2d_41">
      <g>
       <use xlink:href="#m32cd9a0f99" x="45" y="123.383694" style="stroke: #000000; stroke-width: 0.6"/>
      </g>
     </g>
    </g>
    <g id="ytick_37">
     <g id="line2d_42">
      <g>
       <use xlink:href="#m32cd9a0f99" x="45" y="120.664287" style="stroke: #000000; stroke-width: 0.6"/>
      </g>
     </g>
    </g>
    <g id="ytick_38">
     <g id="line2d_43">
      <g>
       <use xlink:href="#m32cd9a0f99" x="45" y="102.228118" style="stroke: #000000; stroke-width: 0.6"/>
      </g>
     </g>
    </g>
    <g id="ytick_39">
     <g id="line2d_44">
      <g>
       <use xlink:href="#m32cd9a0f99" x="45" y="92.866626" style="stroke: #000000; stroke-width: 0.6"/>
      </g>
     </g>
    </g>
    <g id="ytick_40">
     <g id="line2d_45">
      <g>
       <use xlink:href="#m32cd9a0f99" x="45" y="86.224542" style="stroke: #000000; stroke-width: 0.6"/>
      </g>
     </g>
    </g>
    <g id="ytick_41">
     <g id="line2d_46">
      <g>
       <use xlink:href="#m32cd9a0f99" x="45" y="81.072541" style="stroke: #000000; stroke-width: 0.6"/>
      </g>
     </g>
    </g>
    <g id="ytick_42">
     <g id="line2d_47">
      <g>
       <use xlink:href="#m32cd9a0f99" x="45" y="76.86305" style="stroke: #000000; stroke-width: 0.6"/>
      </g>
     </g>
    </g>
    <g id="ytick_43">
     <g id="line2d_48">
      <g>
       <use xlink:href="#m32cd9a0f99" x="45" y="73.303976" style="stroke: #000000; stroke-width: 0.6"/>
      </g>
     </g>
    </g>
    <g id="ytick_44">
     <g id="line2d_49">
      <g>
       <use xlink:href="#m32cd9a0f99" x="45" y="70.220966" style="stroke: #000000; stroke-width: 0.6"/>
      </g>
     </g>
    </g>
    <g id="ytick_45">
     <g id="line2d_50">
      <g>
       <use xlink:href="#m32cd9a0f99" x="45" y="67.501558" style="stroke: #000000; stroke-width: 0.6"/>
      </g>
     </g>
    </g>
    <g id="ytick_46">
     <g id="line2d_51">
      <g>
       <use xlink:href="#m32cd9a0f99" x="45" y="49.065389" style="stroke: #000000; stroke-width: 0.6"/>
      </g>
     </g>
    </g>
   </g>
   <g id="line2d_52">
    <path d="M 83.045455 137.892583 
L 83.553997 143.171459 
L 84.571087 156.728757 
L 85.079629 167.377102 
L 85.588177 181.522725 
L 86.09672 221.137425 
L 87.11381 183.155094 
L 87.622352 171.889594 
L 88.639442 164.400608 
L 89.656533 160.944201 
L 90.673617 160.109653 
L 91.182159 161.233002 
L 91.690701 161.695701 
L 92.199249 162.579347 
L 92.707792 164.998722 
L 93.216334 166.660799 
L 94.233424 173.020556 
L 94.741966 178.972154 
L 95.250514 182.027635 
L 95.759057 189.728568 
L 96.267605 200.577838 
L 96.776147 216.409931 
L 97.284689 244.515256 
L 98.301779 195.267237 
L 98.810322 193.220064 
L 99.318864 184.041939 
L 100.335954 179.567106 
L 100.844496 176.027932 
L 101.353038 175.129891 
L 101.861587 173.187145 
L 102.878671 173.472325 
L 103.387219 172.657348 
L 103.895761 173.529341 
L 104.404309 173.141508 
L 104.912852 173.287217 
L 105.421394 174.699903 
L 105.929942 177.480634 
L 106.438484 177.620094 
L 106.947026 180.248897 
L 107.455574 182.075375 
L 108.472665 192.342245 
L 108.981207 195.459201 
L 109.489749 203.417383 
L 109.998297 204.002528 
L 110.506839 218.458649 
L 111.015382 240.82157 
L 111.523924 244.439173 
L 112.032466 216.002396 
L 112.541014 209.830906 
L 113.049556 195.883109 
L 113.558098 193.29294 
L 114.066646 187.334883 
L 114.575189 186.264725 
L 115.083731 182.160848 
L 115.592273 180.982658 
L 116.100815 178.134151 
L 116.609363 177.999206 
L 117.117905 174.512306 
L 118.134996 172.308091 
L 118.643538 173.266104 
L 119.15208 171.843001 
L 119.660628 171.998495 
L 120.16917 169.554451 
L 120.677719 169.084276 
L 121.694803 169.172998 
L 122.203351 170.377161 
L 122.711893 170.484629 
L 123.220435 171.294092 
L 123.728984 170.165288 
L 124.237526 170.461139 
L 124.746074 172.470129 
L 125.254616 172.078252 
L 125.763158 174.193064 
L 126.271706 174.088214 
L 126.780249 176.324333 
L 127.288791 175.688634 
L 127.797333 177.46403 
L 128.305875 180.370933 
L 128.814423 182.070982 
L 129.322965 183.254871 
L 129.831507 187.432745 
L 130.340056 190.494673 
L 130.848598 189.898828 
L 131.35714 193.7569 
L 131.865688 203.646678 
L 132.37423 203.377328 
L 132.882779 209.5269 
L 133.391321 213.169513 
L 133.899866 227.920063 
L 134.408408 275.887865 
L 134.916953 242.412892 
L 135.425495 233.195443 
L 135.934037 214.258875 
L 136.442583 212.557621 
L 136.951125 208.074945 
L 137.45967 202.484485 
L 137.968215 200.665052 
L 138.476757 197.187994 
L 138.985302 190.407692 
L 139.493845 191.19972 
L 140.002393 189.754703 
L 140.510938 192.182161 
L 142.03657 188.139316 
L 142.545113 190.838269 
L 143.053658 189.988208 
L 143.5622 191.009338 
L 144.070742 190.236332 
L 144.579287 192.352043 
L 145.087829 192.88128 
L 145.596375 196.612305 
L 147.122007 203.926077 
L 147.630549 211.058123 
L 148.139097 206.839324 
L 148.647643 221.19648 
L 149.156185 220.621256 
L 149.66473 246.086394 
L 150.173275 232.229269 
L 150.681817 241.054026 
L 151.190362 214.881948 
L 152.207453 200.014346 
L 152.715998 195.509215 
L 153.22454 196.22932 
L 153.733085 191.523871 
L 154.24163 190.45567 
L 154.750172 185.338613 
L 155.258718 186.745875 
L 155.76726 182.012659 
L 156.275802 181.569631 
L 158.30998 179.070236 
L 158.818522 175.833987 
L 159.327067 176.789483 
L 159.835611 175.406562 
L 160.344157 175.552689 
L 160.852701 174.509385 
L 161.361246 176.736883 
L 161.86979 174.497051 
L 162.378333 176.389148 
L 162.886877 176.391726 
L 163.395422 176.729163 
L 163.903966 175.967333 
L 164.412507 178.733971 
L 164.92105 178.388875 
L 165.429595 179.090782 
L 165.938139 178.429075 
L 166.446683 181.703777 
L 166.955226 181.941303 
L 167.463772 182.757893 
L 167.972315 187.128317 
L 168.480862 187.575272 
L 168.989406 187.780563 
L 169.497951 190.101695 
L 170.006494 193.984695 
L 170.515038 199.2963 
L 171.023582 199.847222 
L 171.532127 202.58021 
L 172.040671 208.669665 
L 172.549211 212.245044 
L 173.057756 233.954156 
L 173.566299 307.8 
L 174.074844 248.708792 
L 175.091932 218.253169 
L 175.600476 213.709959 
L 176.10902 211.345149 
L 176.617566 202.154005 
L 177.126111 198.788662 
L 177.634655 196.488438 
L 178.143199 195.795403 
L 178.651743 193.799621 
L 179.160287 190.810253 
L 179.668831 189.893958 
L 180.177375 188.723724 
L 180.685922 185.364766 
L 181.194466 183.903654 
L 181.70301 184.948227 
L 182.211554 184.397844 
L 182.720098 183.25071 
L 183.228642 182.839625 
L 183.737186 181.844538 
L 184.24573 181.443187 
L 184.754271 183.413453 
L 185.262815 182.247136 
L 185.771359 180.072416 
L 186.788447 181.822444 
L 187.296991 183.100885 
L 187.805536 183.47153 
L 188.31408 184.499072 
L 189.33117 183.254882 
L 189.839714 183.391333 
L 190.348259 184.56367 
L 190.856803 188.565207 
L 191.365347 189.0787 
L 191.873891 189.288119 
L 192.382435 187.915342 
L 193.39952 194.531263 
L 193.908064 194.439121 
L 194.925152 203.572609 
L 195.433696 200.608882 
L 195.942241 210.044385 
L 196.450784 213.077131 
L 196.959331 227.319919 
L 197.467875 217.464774 
L 197.97642 223.515817 
L 198.484963 240.750696 
L 198.993507 246.738894 
L 199.502051 227.849378 
L 200.010596 222.159997 
L 200.51914 234.568575 
L 201.027686 222.679634 
L 201.53623 220.504304 
L 202.044775 213.407432 
L 202.553319 208.477051 
L 203.061862 204.662256 
L 203.570406 199.592028 
L 204.587495 196.491551 
L 205.096036 200.560341 
L 205.604579 196.464356 
L 206.113124 196.990698 
L 206.621668 195.467825 
L 207.130212 196.749666 
L 207.638755 195.178519 
L 208.147301 195.727008 
L 208.655844 199.960379 
L 209.164391 198.494153 
L 209.672935 203.605018 
L 210.181478 201.131282 
L 210.690023 201.247208 
L 211.198569 206.193301 
L 211.707111 207.543149 
L 212.215656 212.412027 
L 212.724198 212.564222 
L 213.23274 237.668179 
L 213.741285 229.320652 
L 214.249828 263.266028 
L 214.758373 237.073555 
L 215.266918 221.41342 
L 215.77546 228.268205 
L 216.284005 207.977225 
L 216.792547 209.532517 
L 217.301096 200.746502 
L 217.809641 195.274544 
L 218.318183 195.780009 
L 218.826728 192.541681 
L 219.335273 190.677664 
L 219.843815 189.981154 
L 220.35236 184.997179 
L 220.860903 186.435655 
L 221.369445 181.700656 
L 222.386532 178.829805 
L 222.895077 179.775184 
L 223.403622 179.85503 
L 223.912165 177.45623 
L 224.42071 176.386714 
L 224.929252 178.202837 
L 225.4378 176.670193 
L 225.946345 176.955748 
L 226.454887 176.076295 
L 226.963433 176.628222 
L 227.98052 176.665676 
L 228.489065 177.93517 
L 228.997607 175.779187 
L 229.506149 176.278699 
L 230.014695 178.430652 
L 230.523237 179.183663 
L 231.031782 180.649561 
L 231.540327 182.708823 
L 232.048869 184.224185 
L 232.557414 183.08464 
L 233.065957 186.676036 
L 233.574505 188.921454 
L 234.08305 189.772972 
L 235.100137 196.077872 
L 235.608679 198.335978 
L 236.62577 209.687919 
L 237.134312 218.153373 
L 237.64286 235.062948 
L 238.151402 225.851076 
L 238.65995 263.725569 
L 239.168493 248.696496 
L 239.677035 221.398693 
L 240.185583 216.674628 
L 240.694125 216.16702 
L 241.711209 197.792104 
L 242.219751 199.632806 
L 242.7283 198.991244 
L 243.236842 194.365348 
L 244.253932 193.187825 
L 244.762474 188.910704 
L 245.271016 188.897578 
L 245.779559 186.144464 
L 246.288101 186.786898 
L 246.796649 188.745629 
L 247.305191 188.143059 
L 247.813733 185.71153 
L 248.322281 185.698828 
L 248.830824 186.519353 
L 249.339366 186.626118 
L 249.84792 188.151281 
L 250.356462 190.838189 
L 250.86501 195.427967 
L 251.373552 196.137252 
L 251.882095 195.738363 
L 252.390643 198.747687 
L 252.899185 209.474588 
L 253.407727 208.348239 
L 253.916269 221.376907 
L 254.424811 256.171351 
L 254.93336 276.650188 
L 255.441902 232.211337 
L 255.950444 216.86593 
L 256.458992 208.51713 
L 256.967534 202.837198 
L 257.984618 193.669099 
L 258.493161 189.117751 
L 259.001709 182.907777 
L 259.510251 183.144925 
L 260.018793 181.151755 
L 260.527341 177.691106 
L 262.052974 172.813897 
L 262.561516 172.110119 
L 263.070064 173.216095 
L 263.578606 171.342121 
L 264.087148 170.409153 
L 265.104239 171.719267 
L 265.612781 170.297473 
L 266.121329 172.416399 
L 266.629871 173.575822 
L 267.138419 175.300602 
L 267.646962 175.673876 
L 268.155504 177.193468 
L 269.172594 183.787001 
L 270.698221 205.97343 
L 271.206769 217.952172 
L 271.715311 255.944096 
L 272.223853 205.247424 
L 273.240943 185.61092 
L 273.749486 180.388047 
L 274.766576 173.561716 
L 275.275124 170.83324 
L 275.783666 166.676832 
L 276.292208 166.335276 
L 276.800757 163.784119 
L 277.817841 163.817222 
L 278.326383 163.282186 
L 278.834925 164.800371 
L 279.343473 164.767376 
L 279.852015 167.606248 
L 280.869106 177.729734 
L 281.377648 188.697583 
L 281.88619 217.220533 
L 282.90328 176.849706 
L 283.411829 164.93889 
L 284.428913 149.661802 
L 285.446003 138.175952 
L 285.954545 133.811883 
L 285.954545 133.811883 
" clip-path="url(#pe81e9ace4f)" style="fill: none; stroke: #1f77b4; stroke-width: 1.5; stroke-linecap: square"/>
   </g>
   <g id="line2d_53">
    <path d="M 57.681818 56.003239 
L 58.953174 57.848067 
L 60.860219 60.909514 
L 64.038619 66.304356 
L 66.581342 71.083212 
L 67.852697 73.953843 
L 68.488375 75.233624 
L 69.759743 78.415469 
L 71.031098 81.577183 
L 71.666776 83.383083 
L 72.302453 84.804014 
L 72.938143 86.579149 
L 76.116544 97.382829 
L 76.752221 99.752135 
L 78.023577 105.72734 
L 78.659254 108.057587 
L 79.294932 112.413927 
L 79.930622 114.57287 
L 80.566299 119.47194 
L 81.201977 123.15158 
L 82.473333 132.746205 
L 83.109022 139.877755 
L 83.7447 143.464768 
L 84.380384 155.135318 
L 85.016061 160.644095 
L 85.651745 172.149958 
L 86.287423 194.977767 
L 86.923101 171.902386 
L 87.558784 182.846482 
L 88.194462 173.287336 
L 88.83014 156.435575 
L 89.465823 159.055556 
L 90.101501 152.894345 
L 90.737185 153.722176 
L 91.372862 160.608416 
L 92.644224 164.282607 
L 93.279902 162.939263 
L 93.915579 180.895517 
L 94.551263 174.99351 
L 95.186941 170.996192 
L 95.822624 185.459581 
L 97.09398 236.685878 
L 97.729663 200.353141 
L 98.365347 191.148745 
L 99.001025 217.755589 
L 99.636709 222.969785 
L 100.90807 167.019816 
L 101.543748 166.730527 
L 102.179425 165.460161 
L 102.815109 167.824051 
L 103.450781 166.053884 
L 104.086458 176.375262 
L 104.722142 184.330851 
L 105.35782 170.186862 
L 105.993504 187.933059 
L 106.629181 196.185483 
L 107.264859 190.324393 
L 107.900543 182.534188 
L 108.536226 180.476929 
L 109.171904 219.824864 
L 109.807588 229.241048 
L 110.443266 211.848333 
L 111.078949 199.469471 
L 111.714627 190.638893 
L 112.350305 242.519693 
L 112.985988 192.451656 
L 113.621666 245.784491 
L 114.257344 256.27522 
L 114.893027 189.75727 
L 115.528705 186.847526 
L 116.800067 175.919989 
L 117.435744 173.12413 
L 118.071428 172.865821 
L 118.707106 176.433412 
L 119.342783 184.660831 
L 119.978467 167.452286 
L 120.614145 165.54503 
L 121.249829 166.991492 
L 121.885506 164.733779 
L 122.521184 171.310527 
L 123.156868 179.515256 
L 123.792545 180.769556 
L 124.428223 176.513361 
L 125.063907 164.203662 
L 125.699584 166.686001 
L 126.335268 170.884233 
L 126.970946 172.482209 
L 127.606623 177.571068 
L 128.242307 167.073916 
L 128.877991 186.139386 
L 129.513669 171.418547 
L 130.149352 174.730429 
L 130.78503 173.963234 
L 131.420714 254.194653 
L 132.056391 176.257903 
L 132.692069 222.023998 
L 133.327753 207.161437 
L 133.963431 210.289369 
L 134.599111 203.284687 
L 135.234792 243.10333 
L 135.87047 194.083857 
L 136.50615 188.470401 
L 137.141831 201.799402 
L 137.777512 192.342518 
L 138.413193 195.96768 
L 139.04887 193.057857 
L 139.684551 193.521964 
L 140.320232 188.963906 
L 140.955909 223.912026 
L 142.227271 175.90134 
L 142.862951 180.47686 
L 143.498632 198.877044 
L 144.13431 212.262732 
L 144.769991 199.806672 
L 145.405671 223.104702 
L 146.041349 183.25381 
L 146.67703 213.744705 
L 147.31271 238.47013 
L 147.948391 230.414831 
L 148.584072 235.948996 
L 149.219749 193.847521 
L 149.85543 221.993743 
L 150.491111 235.677258 
L 151.126789 226.774197 
L 151.762469 247.644062 
L 152.39815 182.863128 
L 153.033831 182.608363 
L 153.669511 197.133754 
L 154.305195 177.485936 
L 154.940876 189.48272 
L 155.576557 174.998335 
L 156.212234 168.448206 
L 156.847915 181.728249 
L 157.483596 176.364469 
L 158.119276 179.80824 
L 158.754957 189.866731 
L 159.390635 182.173227 
L 160.026315 186.926573 
L 160.661995 172.166351 
L 161.297675 163.181869 
L 161.933355 164.555808 
L 162.569035 165.42095 
L 163.204716 163.460761 
L 163.840395 167.203593 
L 164.476068 163.921239 
L 165.111749 164.438422 
L 165.747428 168.115202 
L 166.383109 165.232623 
L 167.018788 169.725001 
L 168.29015 203.317956 
L 168.925829 177.661393 
L 169.561514 179.552457 
L 170.197195 205.182639 
L 170.832874 180.121425 
L 171.468555 182.649394 
L 172.104235 281.76566 
L 172.739914 179.937345 
L 173.375594 217.992608 
L 174.011274 198.584991 
L 174.64696 274.967062 
L 175.28264 220.492426 
L 175.91832 203.220276 
L 176.554 228.000885 
L 177.82536 198.005727 
L 178.46104 190.715426 
L 179.09672 179.114896 
L 179.732393 235.875879 
L 180.368073 194.295305 
L 181.003753 217.155255 
L 181.639433 261.838162 
L 182.275114 192.597475 
L 182.910794 263.180551 
L 183.546474 175.882948 
L 184.182154 185.470645 
L 184.817839 206.026095 
L 185.453519 177.832884 
L 186.089199 260.982036 
L 186.724879 199.597233 
L 187.360559 193.674841 
L 187.996239 245.885727 
L 189.2676 196.047956 
L 189.903285 177.140808 
L 190.538964 175.022141 
L 191.174644 181.0522 
L 191.810325 286.833164 
L 193.081685 180.842236 
L 193.717365 194.822696 
L 194.353045 214.464436 
L 194.98873 213.203901 
L 195.62441 195.43878 
L 196.26009 212.866093 
L 196.895771 190.672067 
L 197.53145 206.421063 
L 198.167131 212.36673 
L 198.802811 182.901887 
L 199.438491 186.540056 
L 200.074164 199.582163 
L 200.709844 181.72954 
L 201.345524 190.761143 
L 201.981204 207.883953 
L 202.616884 172.953149 
L 203.252564 196.981388 
L 203.888245 175.455674 
L 204.523924 177.199889 
L 205.79529 211.71867 
L 206.430969 178.952006 
L 207.06665 176.637239 
L 207.702329 170.354575 
L 208.33801 175.172856 
L 208.973691 170.911985 
L 210.245049 189.832563 
L 210.88073 171.45962 
L 211.51641 234.835639 
L 212.152088 214.564005 
L 212.787769 173.315328 
L 213.42345 182.124858 
L 214.05913 210.796907 
L 214.694811 192.601513 
L 215.330489 199.200662 
L 215.966169 191.539751 
L 216.60185 202.100652 
L 217.237528 194.955204 
L 217.873208 193.105989 
L 218.508889 234.554385 
L 219.780251 185.894526 
L 220.415928 221.489488 
L 221.051609 247.204374 
L 221.68729 207.002762 
L 222.322967 178.210907 
L 222.958648 283.188274 
L 223.594329 186.141094 
L 224.230009 242.405557 
L 224.86569 178.567495 
L 225.501368 180.4478 
L 226.137049 186.205972 
L 226.772729 178.709593 
L 227.408407 186.624332 
L 228.044088 176.842514 
L 228.679768 222.769963 
L 229.315449 191.681901 
L 229.95113 179.968961 
L 230.586807 172.831702 
L 231.222488 180.813338 
L 231.858169 276.725332 
L 232.493847 179.050133 
L 233.129527 211.392083 
L 233.765208 217.957424 
L 234.400889 201.944606 
L 235.036569 238.302249 
L 235.672253 190.822691 
L 236.307931 227.215086 
L 236.943615 196.93472 
L 237.579292 238.398465 
L 238.214976 197.806278 
L 238.850654 204.365854 
L 239.486331 179.37202 
L 240.122015 188.004142 
L 240.757693 174.752138 
L 241.39337 182.116364 
L 242.029054 197.690413 
L 242.664732 246.539096 
L 243.300416 188.655338 
L 243.936093 224.586779 
L 244.571771 186.520026 
L 245.207455 195.646317 
L 245.843132 203.130198 
L 246.47881 203.905009 
L 247.114494 172.712023 
L 247.750171 208.53152 
L 248.385855 195.952433 
L 249.021533 174.797595 
L 249.657211 175.372976 
L 250.292894 171.64176 
L 250.928572 192.302983 
L 251.56425 174.12983 
L 252.199933 206.521498 
L 252.835611 207.188656 
L 253.471295 178.370592 
L 254.106973 224.992235 
L 254.74265 208.550487 
L 255.378334 215.516185 
L 256.014012 200.105765 
L 256.649689 191.895431 
L 257.285373 182.084289 
L 257.921051 180.451658 
L 258.556734 185.64721 
L 259.192412 249.036583 
L 259.82809 197.562945 
L 260.463774 190.948174 
L 261.099451 186.865324 
L 261.735129 171.846556 
L 262.370813 173.086445 
L 263.00649 167.544558 
L 263.642174 182.307191 
L 264.277852 171.623544 
L 264.913529 171.494203 
L 265.549213 193.678246 
L 266.184897 201.273514 
L 266.820575 190.174588 
L 267.456258 172.099665 
L 268.091936 235.298478 
L 268.72762 269.027472 
L 269.363297 184.382912 
L 269.998975 191.899799 
L 270.634659 193.162815 
L 271.270337 184.146557 
L 271.906014 178.009879 
L 272.541698 197.553423 
L 273.177376 196.291208 
L 273.813059 180.629468 
L 274.448737 169.650565 
L 275.084415 167.845047 
L 275.720098 171.140302 
L 276.355776 156.135698 
L 276.991454 156.147275 
L 277.627138 163.424654 
L 278.262815 154.169498 
L 278.898499 155.50598 
L 279.534177 166.564733 
L 280.169854 166.222789 
L 280.805538 171.88735 
L 281.441222 171.457763 
L 282.076899 196.041388 
L 282.712583 180.691926 
L 283.348261 184.625738 
L 283.983945 160.100137 
L 284.619622 148.100498 
L 285.2553 144.860454 
L 285.890984 133.75851 
L 286.526655 131.573908 
L 287.162333 126.11077 
L 287.798011 121.742521 
L 289.069378 114.780619 
L 289.705056 110.025649 
L 290.340734 107.191996 
L 290.976411 105.087129 
L 292.883456 96.604132 
L 293.519146 94.317849 
L 294.154824 92.528477 
L 296.061857 86.404892 
L 299.875935 76.546258 
L 301.14729 73.566678 
L 302.418658 71.114866 
L 303.054336 69.621456 
L 306.232736 63.77613 
L 308.139781 60.626845 
L 309.411149 58.74902 
L 311.318182 55.8 
L 311.318182 55.8 
" clip-path="url(#pe81e9ace4f)" style="fill: none; stroke: #ff7f0e; stroke-width: 1.5; stroke-linecap: square"/>
   </g>
   <g id="patch_3">
    <path d="M 45 320.4 
L 45 43.2 
" style="fill: none; stroke: #000000; stroke-width: 0.8; stroke-linejoin: miter; stroke-linecap: square"/>
   </g>
   <g id="patch_4">
    <path d="M 324 320.4 
L 324 43.2 
" style="fill: none; stroke: #000000; stroke-width: 0.8; stroke-linejoin: miter; stroke-linecap: square"/>
   </g>
   <g id="patch_5">
    <path d="M 45 320.4 
L 324 320.4 
" style="fill: none; stroke: #000000; stroke-width: 0.8; stroke-linejoin: miter; stroke-linecap: square"/>
   </g>
   <g id="patch_6">
    <path d="M 45 43.2 
L 324 43.2 
" style="fill: none; stroke: #000000; stroke-width: 0.8; stroke-linejoin: miter; stroke-linecap: square"/>
   </g>
   <g id="text_11">
    <!-- Prediction Error -->
    <g transform="translate(138.166875 37.2)scale(0.12 -0.12)">
     <defs>
      <path id="DejaVuSans-50" d="M 1259 4147 
L 1259 2394 
L 2053 2394 
Q 2494 2394 2734 2622 
Q 2975 2850 2975 3272 
Q 2975 3691 2734 3919 
Q 2494 4147 2053 4147 
L 1259 4147 
z
M 628 4666 
L 2053 4666 
Q 2838 4666 3239 4311 
Q 3641 3956 3641 3272 
Q 3641 2581 3239 2228 
Q 2838 1875 2053 1875 
L 1259 1875 
L 1259 0 
L 628 0 
L 628 4666 
z
" transform="scale(0.015625)"/>
      <path id="DejaVuSans-72" d="M 2631 2963 
Q 2534 3019 2420 3045 
Q 2306 3072 2169 3072 
Q 1681 3072 1420 2755 
Q 1159 2438 1159 1844 
L 1159 0 
L 581 0 
L 581 3500 
L 1159 3500 
L 1159 2956 
Q 1341 3275 1631 3429 
Q 1922 3584 2338 3584 
Q 2397 3584 2469 3576 
Q 2541 3569 2628 3553 
L 2631 2963 
z
" transform="scale(0.015625)"/>
      <path id="DejaVuSans-65" d="M 3597 1894 
L 3597 1613 
L 953 1613 
Q 991 1019 1311 708 
Q 1631 397 2203 397 
Q 2534 397 2845 478 
Q 3156 559 3463 722 
L 3463 178 
Q 3153 47 2828 -22 
Q 2503 -91 2169 -91 
Q 1331 -91 842 396 
Q 353 884 353 1716 
Q 353 2575 817 3079 
Q 1281 3584 2069 3584 
Q 2775 3584 3186 3129 
Q 3597 2675 3597 1894 
z
M 3022 2063 
Q 3016 2534 2758 2815 
Q 2500 3097 2075 3097 
Q 1594 3097 1305 2825 
Q 1016 2553 972 2059 
L 3022 2063 
z
" transform="scale(0.015625)"/>
      <path id="DejaVuSans-64" d="M 2906 2969 
L 2906 4863 
L 3481 4863 
L 3481 0 
L 2906 0 
L 2906 525 
Q 2725 213 2448 61 
Q 2172 -91 1784 -91 
Q 1150 -91 751 415 
Q 353 922 353 1747 
Q 353 2572 751 3078 
Q 1150 3584 1784 3584 
Q 2172 3584 2448 3432 
Q 2725 3281 2906 2969 
z
M 947 1747 
Q 947 1113 1208 752 
Q 1469 391 1925 391 
Q 2381 391 2643 752 
Q 2906 1113 2906 1747 
Q 2906 2381 2643 2742 
Q 2381 3103 1925 3103 
Q 1469 3103 1208 2742 
Q 947 2381 947 1747 
z
" transform="scale(0.015625)"/>
      <path id="DejaVuSans-69" d="M 603 3500 
L 1178 3500 
L 1178 0 
L 603 0 
L 603 3500 
z
M 603 4863 
L 1178 4863 
L 1178 4134 
L 603 4134 
L 603 4863 
z
" transform="scale(0.015625)"/>
      <path id="DejaVuSans-63" d="M 3122 3366 
L 3122 2828 
Q 2878 2963 2633 3030 
Q 2388 3097 2138 3097 
Q 1578 3097 1268 2742 
Q 959 2388 959 1747 
Q 959 1106 1268 751 
Q 1578 397 2138 397 
Q 2388 397 2633 464 
Q 2878 531 3122 666 
L 3122 134 
Q 2881 22 2623 -34 
Q 2366 -91 2075 -91 
Q 1284 -91 818 406 
Q 353 903 353 1747 
Q 353 2603 823 3093 
Q 1294 3584 2113 3584 
Q 2378 3584 2631 3529 
Q 2884 3475 3122 3366 
z
" transform="scale(0.015625)"/>
      <path id="DejaVuSans-74" d="M 1172 4494 
L 1172 3500 
L 2356 3500 
L 2356 3053 
L 1172 3053 
L 1172 1153 
Q 1172 725 1289 603 
Q 1406 481 1766 481 
L 2356 481 
L 2356 0 
L 1766 0 
Q 1100 0 847 248 
Q 594 497 594 1153 
L 594 3053 
L 172 3053 
L 172 3500 
L 594 3500 
L 594 4494 
L 1172 4494 
z
" transform="scale(0.015625)"/>
      <path id="DejaVuSans-6f" d="M 1959 3097 
Q 1497 3097 1228 2736 
Q 959 2375 959 1747 
Q 959 1119 1226 758 
Q 1494 397 1959 397 
Q 2419 397 2687 759 
Q 2956 1122 2956 1747 
Q 2956 2369 2687 2733 
Q 2419 3097 1959 3097 
z
M 1959 3584 
Q 2709 3584 3137 3096 
Q 3566 2609 3566 1747 
Q 3566 888 3137 398 
Q 2709 -91 1959 -91 
Q 1206 -91 779 398 
Q 353 888 353 1747 
Q 353 2609 779 3096 
Q 1206 3584 1959 3584 
z
" transform="scale(0.015625)"/>
      <path id="DejaVuSans-6e" d="M 3513 2113 
L 3513 0 
L 2938 0 
L 2938 2094 
Q 2938 2591 2744 2837 
Q 2550 3084 2163 3084 
Q 1697 3084 1428 2787 
Q 1159 2491 1159 1978 
L 1159 0 
L 581 0 
L 581 3500 
L 1159 3500 
L 1159 2956 
Q 1366 3272 1645 3428 
Q 1925 3584 2291 3584 
Q 2894 3584 3203 3211 
Q 3513 2838 3513 2113 
z
" transform="scale(0.015625)"/>
      <path id="DejaVuSans-20" transform="scale(0.015625)"/>
      <path id="DejaVuSans-45" d="M 628 4666 
L 3578 4666 
L 3578 4134 
L 1259 4134 
L 1259 2753 
L 3481 2753 
L 3481 2222 
L 1259 2222 
L 1259 531 
L 3634 531 
L 3634 0 
L 628 0 
L 628 4666 
z
" transform="scale(0.015625)"/>
     </defs>
     <use xlink:href="#DejaVuSans-50"/>
     <use xlink:href="#DejaVuSans-72" x="58.552734"/>
     <use xlink:href="#DejaVuSans-65" x="97.416016"/>
     <use xlink:href="#DejaVuSans-64" x="158.939453"/>
     <use xlink:href="#DejaVuSans-69" x="222.416016"/>
     <use xlink:href="#DejaVuSans-63" x="250.199219"/>
     <use xlink:href="#DejaVuSans-74" x="305.179688"/>
     <use xlink:href="#DejaVuSans-69" x="344.388672"/>
     <use xlink:href="#DejaVuSans-6f" x="372.171875"/>
     <use xlink:href="#DejaVuSans-6e" x="433.353516"/>
     <use xlink:href="#DejaVuSans-20" x="496.732422"/>
     <use xlink:href="#DejaVuSans-45" x="528.519531"/>
     <use xlink:href="#DejaVuSans-72" x="591.703125"/>
     <use xlink:href="#DejaVuSans-72" x="631.066406"/>
     <use xlink:href="#DejaVuSans-6f" x="669.929688"/>
     <use xlink:href="#DejaVuSans-72" x="731.111328"/>
    </g>
   </g>
   <g id="legend_1">
    <g id="patch_7">
     <path d="M 52 315.4 
L 134.657813 315.4 
Q 136.657813 315.4 136.657813 313.4 
L 136.657813 285.04375 
Q 136.657813 283.04375 134.657813 283.04375 
L 52 283.04375 
Q 50 283.04375 50 285.04375 
L 50 313.4 
Q 50 315.4 52 315.4 
z
" style="fill: #ffffff; opacity: 0.8; stroke: #cccccc; stroke-linejoin: miter"/>
    </g>
    <g id="line2d_54">
     <path d="M 54 291.142187 
L 64 291.142187 
L 74 291.142187 
" style="fill: none; stroke: #1f77b4; stroke-width: 1.5; stroke-linecap: square"/>
    </g>
    <g id="text_12">
     <!-- train error -->
     <g transform="translate(82 294.642187)scale(0.1 -0.1)">
      <defs>
       <path id="DejaVuSans-61" d="M 2194 1759 
Q 1497 1759 1228 1600 
Q 959 1441 959 1056 
Q 959 750 1161 570 
Q 1363 391 1709 391 
Q 2188 391 2477 730 
Q 2766 1069 2766 1631 
L 2766 1759 
L 2194 1759 
z
M 3341 1997 
L 3341 0 
L 2766 0 
L 2766 531 
Q 2569 213 2275 61 
Q 1981 -91 1556 -91 
Q 1019 -91 701 211 
Q 384 513 384 1019 
Q 384 1609 779 1909 
Q 1175 2209 1959 2209 
L 2766 2209 
L 2766 2266 
Q 2766 2663 2505 2880 
Q 2244 3097 1772 3097 
Q 1472 3097 1187 3025 
Q 903 2953 641 2809 
L 641 3341 
Q 956 3463 1253 3523 
Q 1550 3584 1831 3584 
Q 2591 3584 2966 3190 
Q 3341 2797 3341 1997 
z
" transform="scale(0.015625)"/>
      </defs>
      <use xlink:href="#DejaVuSans-74"/>
      <use xlink:href="#DejaVuSans-72" x="39.208984"/>
      <use xlink:href="#DejaVuSans-61" x="80.322266"/>
      <use xlink:href="#DejaVuSans-69" x="141.601562"/>
      <use xlink:href="#DejaVuSans-6e" x="169.384766"/>
      <use xlink:href="#DejaVuSans-20" x="232.763672"/>
      <use xlink:href="#DejaVuSans-65" x="264.550781"/>
      <use xlink:href="#DejaVuSans-72" x="326.074219"/>
      <use xlink:href="#DejaVuSans-72" x="365.4375"/>
      <use xlink:href="#DejaVuSans-6f" x="404.300781"/>
      <use xlink:href="#DejaVuSans-72" x="465.482422"/>
     </g>
    </g>
    <g id="line2d_55">
     <path d="M 54 305.820312 
L 64 305.820312 
L 74 305.820312 
" style="fill: none; stroke: #ff7f0e; stroke-width: 1.5; stroke-linecap: square"/>
    </g>
    <g id="text_13">
     <!-- test error -->
     <g transform="translate(82 309.320312)scale(0.1 -0.1)">
      <defs>
       <path id="DejaVuSans-73" d="M 2834 3397 
L 2834 2853 
Q 2591 2978 2328 3040 
Q 2066 3103 1784 3103 
Q 1356 3103 1142 2972 
Q 928 2841 928 2578 
Q 928 2378 1081 2264 
Q 1234 2150 1697 2047 
L 1894 2003 
Q 2506 1872 2764 1633 
Q 3022 1394 3022 966 
Q 3022 478 2636 193 
Q 2250 -91 1575 -91 
Q 1294 -91 989 -36 
Q 684 19 347 128 
L 347 722 
Q 666 556 975 473 
Q 1284 391 1588 391 
Q 1994 391 2212 530 
Q 2431 669 2431 922 
Q 2431 1156 2273 1281 
Q 2116 1406 1581 1522 
L 1381 1569 
Q 847 1681 609 1914 
Q 372 2147 372 2553 
Q 372 3047 722 3315 
Q 1072 3584 1716 3584 
Q 2034 3584 2315 3537 
Q 2597 3491 2834 3397 
z
" transform="scale(0.015625)"/>
      </defs>
      <use xlink:href="#DejaVuSans-74"/>
      <use xlink:href="#DejaVuSans-65" x="39.208984"/>
      <use xlink:href="#DejaVuSans-73" x="100.732422"/>
      <use xlink:href="#DejaVuSans-74" x="152.832031"/>
      <use xlink:href="#DejaVuSans-20" x="192.041016"/>
      <use xlink:href="#DejaVuSans-65" x="223.828125"/>
      <use xlink:href="#DejaVuSans-72" x="285.351562"/>
      <use xlink:href="#DejaVuSans-72" x="324.714844"/>
      <use xlink:href="#DejaVuSans-6f" x="363.578125"/>
      <use xlink:href="#DejaVuSans-72" x="424.759766"/>
     </g>
    </g>
   </g>
  </g>
 </g>
 <defs>
  <clipPath id="pe81e9ace4f">
   <rect x="45" y="43.2" width="279" height="277.2"/>
  </clipPath>
 </defs>
</svg>
