<?xml version="1.0" encoding="utf-8" standalone="no"?>
<!DOCTYPE svg PUBLIC "-//W3C//DTD SVG 1.1//EN"
  "http://www.w3.org/Graphics/SVG/1.1/DTD/svg11.dtd">
<svg xmlns:xlink="http://www.w3.org/1999/xlink" width="360pt" height="360pt" viewBox="0 0 360 360" xmlns="http://www.w3.org/2000/svg" version="1.1">
 <metadata>
  <rdf:RDF xmlns:dc="http://purl.org/dc/elements/1.1/" xmlns:cc="http://creativecommons.org/ns#" xmlns:rdf="http://www.w3.org/1999/02/22-rdf-syntax-ns#">
   <cc:Work>
    <dc:type rdf:resource="http://purl.org/dc/dcmitype/StillImage"/>
    <dc:date>2022-11-12T19:51:09.026409</dc:date>
    <dc:format>image/svg+xml</dc:format>
    <dc:creator>
     <cc:Agent>
      <dc:title>Matplotlib v3.5.3, https://matplotlib.org/</dc:title>
     </cc:Agent>
    </dc:creator>
   </cc:Work>
  </rdf:RDF>
 </metadata>
 <defs>
  <style type="text/css">*{stroke-linejoin: round; stroke-linecap: butt}</style>
 </defs>
 <g id="figure_1">
  <g id="patch_1">
   <path d="M 0 360 
L 360 360 
L 360 0 
L 0 0 
z
" style="fill: #ffffff"/>
  </g>
  <g id="axes_1">
   <g id="patch_2">
    <path d="M 45 320.4 
L 324 320.4 
L 324 43.2 
L 45 43.2 
z
" style="fill: #ffffff"/>
   </g>
   <g id="matplotlib.axis_1">
    <g id="xtick_1">
     <g id="line2d_1">
      <defs>
       <path id="ma4fd154b66" d="M 0 0 
L 0 3.5 
" style="stroke: #000000; stroke-width: 0.8"/>
      </defs>
      <g>
       <use xlink:href="#ma4fd154b66" x="83.045455" y="320.4" style="stroke: #000000; stroke-width: 0.8"/>
      </g>
     </g>
     <g id="text_1">
      <!-- −2 -->
      <g transform="translate(75.674361 334.998438)scale(0.1 -0.1)">
       <defs>
        <path id="DejaVuSans-2212" d="M 678 2272 
L 4684 2272 
L 4684 1741 
L 678 1741 
L 678 2272 
z
" transform="scale(0.015625)"/>
        <path id="DejaVuSans-32" d="M 1228 531 
L 3431 531 
L 3431 0 
L 469 0 
L 469 531 
Q 828 903 1448 1529 
Q 2069 2156 2228 2338 
Q 2531 2678 2651 2914 
Q 2772 3150 2772 3378 
Q 2772 3750 2511 3984 
Q 2250 4219 1831 4219 
Q 1534 4219 1204 4116 
Q 875 4013 500 3803 
L 500 4441 
Q 881 4594 1212 4672 
Q 1544 4750 1819 4750 
Q 2544 4750 2975 4387 
Q 3406 4025 3406 3419 
Q 3406 3131 3298 2873 
Q 3191 2616 2906 2266 
Q 2828 2175 2409 1742 
Q 1991 1309 1228 531 
z
" transform="scale(0.015625)"/>
       </defs>
       <use xlink:href="#DejaVuSans-2212"/>
       <use xlink:href="#DejaVuSans-32" x="83.789062"/>
      </g>
     </g>
    </g>
    <g id="xtick_2">
     <g id="line2d_2">
      <g>
       <use xlink:href="#ma4fd154b66" x="133.772727" y="320.4" style="stroke: #000000; stroke-width: 0.8"/>
      </g>
     </g>
     <g id="text_2">
      <!-- −1 -->
      <g transform="translate(126.401634 334.998438)scale(0.1 -0.1)">
       <defs>
        <path id="DejaVuSans-31" d="M 794 531 
L 1825 531 
L 1825 4091 
L 703 3866 
L 703 4441 
L 1819 4666 
L 2450 4666 
L 2450 531 
L 3481 531 
L 3481 0 
L 794 0 
L 794 531 
z
" transform="scale(0.015625)"/>
       </defs>
       <use xlink:href="#DejaVuSans-2212"/>
       <use xlink:href="#DejaVuSans-31" x="83.789062"/>
      </g>
     </g>
    </g>
    <g id="xtick_3">
     <g id="line2d_3">
      <g>
       <use xlink:href="#ma4fd154b66" x="184.5" y="320.4" style="stroke: #000000; stroke-width: 0.8"/>
      </g>
     </g>
     <g id="text_3">
      <!-- 0 -->
      <g transform="translate(181.31875 334.998438)scale(0.1 -0.1)">
       <defs>
        <path id="DejaVuSans-30" d="M 2034 4250 
Q 1547 4250 1301 3770 
Q 1056 3291 1056 2328 
Q 1056 1369 1301 889 
Q 1547 409 2034 409 
Q 2525 409 2770 889 
Q 3016 1369 3016 2328 
Q 3016 3291 2770 3770 
Q 2525 4250 2034 4250 
z
M 2034 4750 
Q 2819 4750 3233 4129 
Q 3647 3509 3647 2328 
Q 3647 1150 3233 529 
Q 2819 -91 2034 -91 
Q 1250 -91 836 529 
Q 422 1150 422 2328 
Q 422 3509 836 4129 
Q 1250 4750 2034 4750 
z
" transform="scale(0.015625)"/>
       </defs>
       <use xlink:href="#DejaVuSans-30"/>
      </g>
     </g>
    </g>
    <g id="xtick_4">
     <g id="line2d_4">
      <g>
       <use xlink:href="#ma4fd154b66" x="235.227273" y="320.4" style="stroke: #000000; stroke-width: 0.8"/>
      </g>
     </g>
     <g id="text_4">
      <!-- 1 -->
      <g transform="translate(232.046023 334.998438)scale(0.1 -0.1)">
       <use xlink:href="#DejaVuSans-31"/>
      </g>
     </g>
    </g>
    <g id="xtick_5">
     <g id="line2d_5">
      <g>
       <use xlink:href="#ma4fd154b66" x="285.954545" y="320.4" style="stroke: #000000; stroke-width: 0.8"/>
      </g>
     </g>
     <g id="text_5">
      <!-- 2 -->
      <g transform="translate(282.773295 334.998438)scale(0.1 -0.1)">
       <use xlink:href="#DejaVuSans-32"/>
      </g>
     </g>
    </g>
   </g>
   <g id="matplotlib.axis_2">
    <g id="ytick_1">
     <g id="line2d_6">
      <defs>
       <path id="m02713f52e2" d="M 0 0 
L -3.5 0 
" style="stroke: #000000; stroke-width: 0.8"/>
      </defs>
      <g>
       <use xlink:href="#m02713f52e2" x="45" y="293.36736" style="stroke: #000000; stroke-width: 0.8"/>
      </g>
     </g>
     <g id="text_6">
      <!-- 0 -->
      <g transform="translate(31.6375 297.166579)scale(0.1 -0.1)">
       <use xlink:href="#DejaVuSans-30"/>
      </g>
     </g>
    </g>
    <g id="ytick_2">
     <g id="line2d_7">
      <g>
       <use xlink:href="#m02713f52e2" x="45" y="237.760525" style="stroke: #000000; stroke-width: 0.8"/>
      </g>
     </g>
     <g id="text_7">
      <!-- 5 -->
      <g transform="translate(31.6375 241.559744)scale(0.1 -0.1)">
       <defs>
        <path id="DejaVuSans-35" d="M 691 4666 
L 3169 4666 
L 3169 4134 
L 1269 4134 
L 1269 2991 
Q 1406 3038 1543 3061 
Q 1681 3084 1819 3084 
Q 2600 3084 3056 2656 
Q 3513 2228 3513 1497 
Q 3513 744 3044 326 
Q 2575 -91 1722 -91 
Q 1428 -91 1123 -41 
Q 819 9 494 109 
L 494 744 
Q 775 591 1075 516 
Q 1375 441 1709 441 
Q 2250 441 2565 725 
Q 2881 1009 2881 1497 
Q 2881 1984 2565 2268 
Q 2250 2553 1709 2553 
Q 1456 2553 1204 2497 
Q 953 2441 691 2322 
L 691 4666 
z
" transform="scale(0.015625)"/>
       </defs>
       <use xlink:href="#DejaVuSans-35"/>
      </g>
     </g>
    </g>
    <g id="ytick_3">
     <g id="line2d_8">
      <g>
       <use xlink:href="#m02713f52e2" x="45" y="182.15369" style="stroke: #000000; stroke-width: 0.8"/>
      </g>
     </g>
     <g id="text_8">
      <!-- 10 -->
      <g transform="translate(25.275 185.952909)scale(0.1 -0.1)">
       <use xlink:href="#DejaVuSans-31"/>
       <use xlink:href="#DejaVuSans-30" x="63.623047"/>
      </g>
     </g>
    </g>
    <g id="ytick_4">
     <g id="line2d_9">
      <g>
       <use xlink:href="#m02713f52e2" x="45" y="126.546855" style="stroke: #000000; stroke-width: 0.8"/>
      </g>
     </g>
     <g id="text_9">
      <!-- 15 -->
      <g transform="translate(25.275 130.346074)scale(0.1 -0.1)">
       <use xlink:href="#DejaVuSans-31"/>
       <use xlink:href="#DejaVuSans-35" x="63.623047"/>
      </g>
     </g>
    </g>
    <g id="ytick_5">
     <g id="line2d_10">
      <g>
       <use xlink:href="#m02713f52e2" x="45" y="70.940021" style="stroke: #000000; stroke-width: 0.8"/>
      </g>
     </g>
     <g id="text_10">
      <!-- 20 -->
      <g transform="translate(25.275 74.739239)scale(0.1 -0.1)">
       <use xlink:href="#DejaVuSans-32"/>
       <use xlink:href="#DejaVuSans-30" x="63.623047"/>
      </g>
     </g>
    </g>
   </g>
   <g id="line2d_11">
    <path d="M 57.681818 56.498819 
L 59.588863 75.641393 
L 62.131574 100.070078 
L 64.674309 122.37612 
L 65.309987 126.94763 
L 67.21702 143.078373 
L 69.759743 162.198504 
L 71.031098 170.966003 
L 71.666776 175.501124 
L 72.938143 183.002003 
L 74.845188 195.832786 
L 79.294932 220.44525 
L 79.930622 222.849937 
L 80.566299 226.537445 
L 84.380384 243.46821 
L 85.651745 248.049335 
L 86.287423 251.315823 
L 86.923101 253.843436 
L 87.558784 255.31747 
L 88.194462 257.5876 
L 88.83014 260.642607 
L 89.465823 262.39165 
L 90.101501 264.964551 
L 90.737185 266.876861 
L 91.372862 268.258584 
L 93.279902 273.993224 
L 93.915579 275.038304 
L 95.186941 279.130258 
L 97.09398 283.077217 
L 97.729663 285.050383 
L 98.365347 285.783204 
L 99.001025 287.560146 
L 99.636709 288.973526 
L 100.272386 290.002417 
L 100.90807 290.302335 
L 102.815109 293.65682 
L 103.450781 294.522495 
L 104.086458 295.933331 
L 104.722142 297.039015 
L 105.35782 297.287987 
L 105.993504 298.646235 
L 106.629181 299.485895 
L 107.900543 300.38308 
L 108.536226 300.851729 
L 109.171904 301.955671 
L 109.807588 302.632938 
L 110.443266 302.761649 
L 111.078949 303.661248 
L 111.714627 304.158901 
L 112.350305 303.93773 
L 112.985988 304.719809 
L 113.621666 304.485899 
L 114.257344 304.790288 
L 114.893027 305.472393 
L 116.164389 306.039414 
L 117.435744 306.626444 
L 118.071428 306.748045 
L 118.707106 306.692266 
L 119.342783 306.502352 
L 119.978467 307.258838 
L 120.614145 307.421707 
L 121.249829 307.370476 
L 121.885506 307.531528 
L 123.156868 306.838219 
L 123.792545 306.783098 
L 124.428223 306.907726 
L 125.063907 307.498448 
L 127.606623 306.571394 
L 128.242307 306.968359 
L 128.877991 306.110316 
L 129.513669 306.518362 
L 130.149352 306.242615 
L 130.78503 306.136107 
L 131.420714 304.959307 
L 132.056391 305.727934 
L 132.692069 304.527519 
L 133.327753 304.699933 
L 133.963431 304.469308 
L 134.599111 303.769906 
L 135.234792 303.872383 
L 135.87047 303.166232 
L 136.50615 302.798131 
L 137.141831 303.359881 
L 137.777512 302.332266 
L 138.413193 302.103092 
L 140.320232 301.00243 
L 140.955909 301.059408 
L 141.59159 300.495452 
L 142.227271 299.523863 
L 142.862951 299.302412 
L 144.13431 299.43614 
L 144.769991 298.502934 
L 145.405671 298.517763 
L 146.041349 297.296725 
L 146.67703 297.694748 
L 147.31271 297.004395 
L 147.948391 296.693956 
L 148.584072 296.077477 
L 149.219749 295.25902 
L 149.85543 295.335664 
L 150.491111 294.673354 
L 151.762469 293.763829 
L 152.39815 294.015911 
L 153.033831 293.561448 
L 153.669511 292.784711 
L 154.305195 292.822793 
L 154.940876 292.032085 
L 155.576557 292.038728 
L 156.212234 291.92284 
L 156.847915 290.951741 
L 157.483596 290.729481 
L 158.754957 289.549468 
L 159.390635 289.373343 
L 160.026315 288.882265 
L 161.297675 289.21763 
L 162.569035 288.438962 
L 163.204716 288.270434 
L 163.840395 287.752766 
L 164.476068 287.68658 
L 165.111749 287.39557 
L 165.747428 286.930083 
L 166.383109 286.868876 
L 167.018788 286.392695 
L 167.654469 285.578016 
L 168.29015 285.073104 
L 168.925829 285.457486 
L 169.561514 285.217508 
L 170.197195 284.53119 
L 170.832874 284.88361 
L 171.468555 284.662304 
L 172.104235 283.855976 
L 172.739914 284.491525 
L 174.011274 283.160846 
L 174.64696 283.393548 
L 175.28264 283.184214 
L 175.91832 283.515596 
L 176.554 283.06561 
L 178.46104 282.500548 
L 179.09672 282.139918 
L 179.732393 282.964283 
L 180.368073 282.450197 
L 181.003753 282.682063 
L 181.639433 282.791863 
L 182.275114 282.354663 
L 182.910794 282.7682 
L 183.546474 281.869701 
L 184.817839 282.547001 
L 185.453519 281.96719 
L 186.089199 282.805006 
L 186.724879 282.52522 
L 187.360559 282.460309 
L 187.996239 282.87675 
L 188.631919 282.820461 
L 189.2676 282.630597 
L 189.903285 282.201177 
L 190.538964 282.179637 
L 191.174644 282.466488 
L 191.810325 283.266137 
L 192.446005 283.421731 
L 193.081685 282.706471 
L 194.353045 283.474134 
L 194.98873 283.576815 
L 195.62441 284.271721 
L 196.26009 284.192686 
L 196.895771 283.663306 
L 197.53145 284.536522 
L 198.167131 284.637159 
L 198.802811 285.289828 
L 199.438491 285.36683 
L 200.074164 285.303428 
L 200.709844 285.882299 
L 201.981204 285.825073 
L 202.616884 286.864615 
L 203.252564 286.43264 
L 203.888245 287.250207 
L 204.523924 287.446068 
L 205.159609 287.260561 
L 205.79529 287.338261 
L 206.430969 288.245528 
L 207.06665 288.641562 
L 207.702329 289.242113 
L 208.33801 289.358169 
L 208.973691 289.896325 
L 209.60937 289.88026 
L 210.245049 289.988449 
L 210.88073 290.976889 
L 211.51641 290.329229 
L 212.152088 290.829215 
L 212.787769 292.090048 
L 213.42345 292.182844 
L 214.05913 292.111111 
L 214.694811 292.785312 
L 215.330489 293.1133 
L 215.966169 293.688153 
L 216.60185 293.377227 
L 217.237528 294.523588 
L 217.873208 294.14224 
L 218.508889 294.95953 
L 219.14457 295.276719 
L 219.780251 295.348489 
L 220.415928 296.268052 
L 221.051609 296.887134 
L 221.68729 297.054182 
L 222.322967 296.906164 
L 222.958648 298.16151 
L 223.594329 298.012878 
L 224.230009 299.073805 
L 224.86569 298.621593 
L 226.137049 299.652433 
L 226.772729 299.813534 
L 227.408407 300.423679 
L 228.044088 300.484201 
L 228.679768 301.594726 
L 230.586807 301.654323 
L 231.222488 302.262976 
L 231.858169 303.281455 
L 232.493847 302.772506 
L 233.129527 303.638975 
L 233.765208 303.939716 
L 234.400889 304.62313 
L 235.672253 304.287917 
L 236.943615 305.525253 
L 237.579292 305.272658 
L 238.214976 305.852107 
L 238.850654 305.383085 
L 239.486331 306.576795 
L 240.122015 306.459039 
L 240.757693 306.994829 
L 242.029054 306.585168 
L 242.664732 306.352047 
L 243.300416 306.903721 
L 243.936093 306.544074 
L 244.571771 307.054233 
L 245.843132 306.807515 
L 246.47881 306.803657 
L 247.114494 307.574122 
L 247.750171 306.724572 
L 248.385855 306.849802 
L 249.021533 307.374734 
L 249.657211 307.284731 
L 250.292894 307.366317 
L 250.928572 306.616038 
L 251.56425 307.036724 
L 252.199933 306.15526 
L 252.835611 305.991863 
L 253.471295 306.400334 
L 254.106973 305.487187 
L 254.74265 305.37645 
L 255.378334 304.740004 
L 256.014012 304.307331 
L 256.649689 304.780406 
L 257.285373 303.286896 
L 257.921051 302.86714 
L 258.556734 302.615408 
L 259.192412 302.81388 
L 259.82809 301.938334 
L 261.099451 300.642695 
L 261.735129 299.510684 
L 262.370813 298.908459 
L 263.00649 297.917589 
L 263.642174 297.774096 
L 264.277852 296.545917 
L 264.913529 295.661071 
L 265.549213 295.40557 
L 266.184897 294.522631 
L 266.820575 293.268561 
L 267.456258 291.551431 
L 268.091936 291.362112 
L 268.72762 290.182694 
L 269.363297 288.199946 
L 270.634659 285.534284 
L 271.270337 285.076995 
L 271.906014 283.678945 
L 272.541698 281.549717 
L 273.813059 278.469412 
L 274.448737 277.117329 
L 275.720098 273.314103 
L 276.355776 272.433928 
L 276.991454 270.50263 
L 277.627138 267.977033 
L 278.262815 266.802146 
L 278.898499 264.722821 
L 279.534177 261.942739 
L 281.441222 255.999258 
L 282.712583 250.535971 
L 283.348261 248.917717 
L 284.619622 243.189279 
L 285.2553 241.166296 
L 285.890984 237.498834 
L 286.526655 235.499928 
L 289.069378 223.747033 
L 289.705056 219.68893 
L 291.612101 210.281163 
L 292.247779 205.849521 
L 294.154824 195.65035 
L 296.697535 179.693814 
L 299.240257 161.757913 
L 300.511613 152.375692 
L 304.325703 122.441263 
L 304.961381 116.196853 
L 305.597058 111.450787 
L 306.868426 99.522164 
L 307.504104 94.406409 
L 308.139781 87.604762 
L 308.775471 82.383751 
L 311.318182 55.8 
L 311.318182 55.8 
" clip-path="url(#p84bb2c5a43)" style="fill: none; stroke: #1f77b4; stroke-width: 1.5; stroke-linecap: square"/>
   </g>
   <g id="line2d_12">
    <path d="M 57.681818 221.743683 
L 60.860219 222.190669 
L 63.402942 222.716734 
L 65.945664 223.459166 
L 67.852697 224.207971 
L 69.759743 225.171043 
L 71.666776 226.403012 
L 73.573821 227.96758 
L 75.480866 229.935702 
L 77.387899 232.3816 
L 79.294932 235.375295 
L 81.201977 238.971516 
L 83.109022 243.195186 
L 85.016061 248.026054 
L 87.558784 255.268806 
L 91.372862 267.082437 
L 94.551263 276.727657 
L 97.09398 283.65521 
L 99.001025 288.189472 
L 100.90807 292.096007 
L 102.815109 295.377229 
L 104.722142 298.073281 
L 106.629181 300.24658 
L 108.536226 301.96879 
L 110.443266 303.311389 
L 112.350305 304.339912 
L 114.257344 305.110999 
L 116.164389 305.671425 
L 118.707106 306.153894 
L 121.249829 306.391066 
L 123.792545 306.423762 
L 126.970946 306.209096 
L 130.149352 305.719551 
L 132.692069 305.121572 
L 135.234792 304.326274 
L 137.777512 303.320379 
L 140.320232 302.09633 
L 142.862951 300.658696 
L 146.041349 298.597362 
L 150.491111 295.390248 
L 156.212234 291.272947 
L 159.390635 289.254304 
L 161.933355 287.855358 
L 164.476068 286.667336 
L 167.018788 285.688701 
L 170.197195 284.738275 
L 173.375594 284.053381 
L 176.554 283.59185 
L 180.368073 283.282874 
L 184.182154 283.202333 
L 187.996239 283.333628 
L 191.810325 283.685712 
L 194.98873 284.170811 
L 198.167131 284.861368 
L 201.345524 285.793033 
L 204.523924 287.000956 
L 207.06665 288.183408 
L 210.245049 289.935258 
L 213.42345 291.964625 
L 217.873208 295.134228 
L 224.86569 300.184021 
L 228.044088 302.210309 
L 231.222488 303.949014 
L 233.765208 305.107639 
L 236.307931 306.054739 
L 238.850654 306.793886 
L 241.39337 307.33073 
L 243.936093 307.667831 
L 246.47881 307.8 
L 249.021533 307.70989 
L 251.56425 307.363713 
L 253.471295 306.90406 
L 255.378334 306.238016 
L 257.285373 305.324747 
L 259.192412 304.114433 
L 261.099451 302.548979 
L 263.00649 300.56422 
L 264.913529 298.094507 
L 266.820575 295.080207 
L 268.72762 291.478439 
L 270.634659 287.276135 
L 272.541698 282.503232 
L 275.084415 275.402102 
L 283.983945 249.433861 
L 285.890984 244.818873 
L 287.798011 240.782984 
L 289.705056 237.339938 
L 291.612101 234.464342 
L 293.519146 232.10498 
L 295.426179 230.197313 
L 297.333212 228.673113 
L 299.240257 227.466906 
L 301.14729 226.519648 
L 303.054336 225.780282 
L 305.597058 225.045031 
L 308.775471 224.419278 
L 311.318182 224.082564 
L 311.318182 224.082564 
" clip-path="url(#p84bb2c5a43)" style="fill: none; stroke: #ff7f0e; stroke-width: 1.5; stroke-linecap: square"/>
   </g>
   <g id="line2d_13">
    <path d="M 57.681818 219.498045 
L 60.860219 219.95901 
L 63.402942 220.497575 
L 65.945664 221.254012 
L 67.852697 222.01458 
L 69.759743 222.990681 
L 71.666776 224.237165 
L 73.573821 225.817886 
L 75.480866 227.803975 
L 77.387899 230.269701 
L 79.294932 233.285133 
L 81.201977 236.90491 
L 83.109022 241.153855 
L 85.016061 246.01152 
L 87.558784 253.292078 
L 91.372862 265.165957 
L 94.551263 274.863186 
L 97.09398 281.831707 
L 99.001025 286.395199 
L 100.90807 290.328782 
L 102.815109 293.634223 
L 104.722142 296.351128 
L 106.629181 298.541643 
L 108.536226 300.27724 
L 110.443266 301.629347 
L 112.350305 302.663481 
L 114.257344 303.436268 
L 116.164389 303.994468 
L 118.707106 304.467694 
L 121.249829 304.688164 
L 123.792545 304.696323 
L 126.335268 304.513793 
L 128.877991 304.147642 
L 131.420714 303.594427 
L 133.963431 302.844437 
L 136.50615 301.886512 
L 139.04887 300.713659 
L 141.59159 299.329181 
L 144.769991 297.331987 
L 148.584072 294.655522 
L 155.576557 289.6636 
L 158.754957 287.667446 
L 161.933355 285.965333 
L 164.476068 284.835123 
L 167.018788 283.90708 
L 170.197195 283.0084 
L 173.375594 282.363238 
L 176.554 281.931552 
L 180.368073 281.64873 
L 184.182154 281.587087 
L 187.996239 281.732288 
L 191.810325 282.094116 
L 195.62441 282.704655 
L 198.802811 283.439021 
L 201.981204 284.414158 
L 205.159609 285.660504 
L 208.33801 287.194894 
L 211.51641 289.008303 
L 215.330489 291.486333 
L 226.772729 299.224392 
L 229.95113 300.975815 
L 233.129527 302.429046 
L 235.672253 303.367103 
L 238.214976 304.107678 
L 240.757693 304.655826 
L 243.300416 305.014383 
L 245.843132 305.179516 
L 248.385855 305.136484 
L 250.928572 304.855468 
L 252.835611 304.459779 
L 254.74265 303.873672 
L 256.649689 303.05939 
L 258.556734 301.970149 
L 260.463774 300.550371 
L 262.370813 298.737125 
L 264.277852 296.463524 
L 266.184897 293.664913 
L 268.091936 290.288274 
L 269.998975 286.30444 
L 271.906014 281.721886 
L 273.813059 276.59861 
L 276.355776 269.129655 
L 282.712583 249.958566 
L 284.619622 244.848772 
L 286.526655 240.278714 
L 288.433701 236.302724 
L 290.340734 232.925982 
L 292.247779 230.116436 
L 294.154824 227.818585 
L 296.061857 225.965635 
L 297.96889 224.488483 
L 299.875935 223.321816 
L 301.78298 222.40722 
L 304.325703 221.494459 
L 306.868426 220.845494 
L 310.046826 220.295846 
L 311.318182 220.135677 
L 311.318182 220.135677 
" clip-path="url(#p84bb2c5a43)" style="fill: none; stroke: #2ca02c; stroke-width: 1.5; stroke-linecap: square"/>
   </g>
   <g id="line2d_14">
    <path d="M 57.681818 220.236261 
L 61.495896 220.787113 
L 64.038619 221.345999 
L 66.581342 222.131916 
L 68.488375 222.92252 
L 70.39542 223.937159 
L 72.302453 225.232283 
L 74.209498 226.873167 
L 76.116544 228.931807 
L 78.023577 231.482261 
L 79.930622 234.592507 
L 81.837655 238.312502 
L 83.7447 242.659458 
L 85.651745 247.602497 
L 88.194462 254.956463 
L 96.458302 279.863799 
L 98.365347 284.675054 
L 100.272386 288.874938 
L 102.179425 292.443243 
L 104.086458 295.404506 
L 105.993504 297.812585 
L 107.900543 299.73619 
L 109.807588 301.24776 
L 111.714627 302.416013 
L 113.621666 303.301856 
L 115.528705 303.956562 
L 118.071428 304.540241 
L 120.614145 304.858681 
L 123.156868 304.960009 
L 125.699584 304.871957 
L 128.877991 304.511981 
L 131.420714 304.021823 
L 133.963431 303.34103 
L 136.50615 302.45633 
L 139.04887 301.357187 
L 141.59159 300.04213 
L 144.769991 298.117662 
L 148.584072 295.496882 
L 156.847915 289.675308 
L 160.026315 287.767803 
L 162.569035 286.464199 
L 165.111749 285.369909 
L 167.654469 284.478442 
L 170.832874 283.623393 
L 174.011274 283.016978 
L 177.18968 282.61763 
L 181.003753 282.36449 
L 184.817839 282.322831 
L 188.631919 282.478979 
L 192.446005 282.843311 
L 196.26009 283.448197 
L 199.438491 284.171623 
L 202.616884 285.130115 
L 205.79529 286.354202 
L 208.973691 287.86115 
L 212.152088 289.642867 
L 215.966169 292.07936 
L 227.408407 299.698765 
L 230.586807 301.42339 
L 233.765208 302.852082 
L 236.307931 303.771178 
L 238.850654 304.492251 
L 241.39337 305.018934 
L 243.936093 305.352233 
L 246.47881 305.485921 
L 249.021533 305.402172 
L 251.56425 305.067222 
L 253.471295 304.619482 
L 255.378334 303.968798 
L 257.285373 303.074859 
L 259.192412 301.88848 
L 261.099451 300.352191 
L 263.00649 298.402392 
L 264.913529 295.973711 
L 266.820575 293.006322 
L 268.72762 289.456397 
L 270.634659 285.309055 
L 272.541698 280.591468 
L 275.084415 273.558661 
L 279.534177 260.230952 
L 282.712583 251.062774 
L 284.619622 246.092769 
L 286.526655 241.657749 
L 288.433701 237.806911 
L 290.340734 234.542043 
L 292.247779 231.82948 
L 294.154824 229.613609 
L 296.061857 227.828485 
L 297.96889 226.406544 
L 299.875935 225.284194 
L 301.78298 224.40479 
L 304.325703 223.527565 
L 306.868426 222.904166 
L 310.046826 222.376393 
L 311.318182 222.222652 
L 311.318182 222.222652 
" clip-path="url(#p84bb2c5a43)" style="fill: none; stroke: #d62728; stroke-width: 1.5; stroke-linecap: square"/>
   </g>
   <g id="line2d_15">
    <path d="M 57.681818 222.429514 
L 60.860219 222.85883 
L 63.402942 223.371384 
L 65.945664 224.100886 
L 67.852697 224.840433 
L 69.759743 225.794563 
L 71.666776 227.017835 
L 73.573821 228.57377 
L 75.480866 230.533004 
L 77.387899 232.969255 
L 79.294932 235.95183 
L 81.201977 239.534544 
L 83.109022 243.741191 
L 85.016061 248.550455 
L 87.558784 255.755862 
L 92.00854 269.462041 
L 95.186941 278.867156 
L 97.09398 283.934809 
L 99.001025 288.426576 
L 100.90807 292.294008 
L 102.815109 295.540193 
L 104.722142 298.205375 
L 106.629181 300.351793 
L 108.536226 302.050653 
L 110.443266 303.372918 
L 112.350305 304.383611 
L 114.257344 305.138882 
L 116.164389 305.685107 
L 118.707106 306.150572 
L 121.249829 306.37235 
L 123.792545 306.390754 
L 126.970946 306.159031 
L 130.149352 305.652372 
L 132.692069 305.039794 
L 135.234792 304.228092 
L 137.777512 303.202842 
L 140.320232 301.955122 
L 142.862951 300.488113 
L 146.041349 298.380373 
L 150.491111 295.089534 
L 156.212234 290.84282 
L 159.390635 288.750905 
L 161.933355 287.296533 
L 164.476068 286.057407 
L 167.018788 285.03247 
L 169.561514 284.20777 
L 172.739914 283.426297 
L 175.91832 282.880176 
L 179.732393 282.479602 
L 183.546474 282.310067 
L 187.360559 282.345541 
L 191.174644 282.584949 
L 194.98873 283.050691 
L 198.167131 283.641918 
L 201.345524 284.451632 
L 204.523924 285.512879 
L 207.702329 286.851176 
L 210.88073 288.473078 
L 214.05913 290.354317 
L 218.508889 293.297776 
L 225.501368 298.002264 
L 228.679768 299.894803 
L 231.858169 301.518935 
L 234.400889 302.598828 
L 236.943615 303.476497 
L 239.486331 304.152638 
L 242.029054 304.629428 
L 244.571771 304.905419 
L 247.114494 304.970782 
L 249.657211 304.802722 
L 252.199933 304.360927 
L 254.106973 303.813352 
L 256.014012 303.041416 
L 257.921051 302.000383 
L 259.82809 300.636627 
L 261.735129 298.888909 
L 263.642174 296.691498 
L 265.549213 293.979949 
L 267.456258 290.699958 
L 269.363297 286.819368 
L 271.270337 282.341686 
L 273.177376 277.318346 
L 275.720098 269.962456 
L 282.712583 249.14318 
L 284.619622 244.1841 
L 286.526655 239.775929 
L 288.433701 235.960903 
L 290.340734 232.734838 
L 292.247779 230.059598 
L 294.154824 227.876797 
L 296.061857 226.119048 
L 297.96889 224.718313 
L 299.875935 223.611242 
L 301.78298 222.741775 
L 304.325703 221.870649 
L 306.868426 221.246789 
L 310.046826 220.711581 
L 311.318182 220.553236 
L 311.318182 220.553236 
" clip-path="url(#p84bb2c5a43)" style="fill: none; stroke: #9467bd; stroke-width: 1.5; stroke-linecap: square"/>
   </g>
   <g id="line2d_16">
    <path d="M 57.681818 221.24654 
L 61.495896 221.779892 
L 64.038619 222.327732 
L 66.581342 223.103329 
L 68.488375 223.886806 
L 70.39542 224.89506 
L 72.302453 226.184663 
L 74.209498 227.821045 
L 76.116544 229.876382 
L 78.023577 232.424703 
L 79.930622 235.533889 
L 81.837655 239.253571 
L 83.7447 243.600246 
L 85.651745 248.542097 
L 88.194462 255.890974 
L 96.458302 280.732172 
L 98.365347 285.518181 
L 100.272386 289.691095 
L 102.179425 293.231723 
L 104.086458 296.165312 
L 105.993504 298.546157 
L 107.900543 300.44304 
L 109.807588 301.92825 
L 111.714627 303.070154 
L 113.621666 303.929204 
L 115.528705 304.556168 
L 117.435744 304.99189 
L 119.978467 305.328766 
L 122.521184 305.433438 
L 125.063907 305.337049 
L 127.606623 305.053841 
L 130.149352 304.585312 
L 132.692069 303.924408 
L 135.234792 303.060035 
L 137.777512 301.982411 
L 140.320232 300.6891 
L 143.498632 298.787641 
L 147.31271 296.176327 
L 156.847915 289.413724 
L 160.026315 287.529059 
L 162.569035 286.245688 
L 165.111749 285.169788 
L 167.654469 284.293309 
L 170.832874 283.452001 
L 174.011274 282.855308 
L 177.18968 282.464356 
L 181.003753 282.224033 
L 184.817839 282.203853 
L 188.631919 282.396782 
L 192.446005 282.820699 
L 195.62441 283.379098 
L 198.802811 284.158618 
L 201.981204 285.195646 
L 204.523924 286.232507 
L 207.06665 287.464308 
L 210.245049 289.274284 
L 213.42345 291.347892 
L 218.508889 295.001947 
L 224.230009 299.06239 
L 227.408407 301.052499 
L 230.586807 302.753783 
L 233.129527 303.884654 
L 235.672253 304.808385 
L 238.214976 305.530715 
L 240.757693 306.059469 
L 243.300416 306.399691 
L 245.843132 306.549301 
L 248.385855 306.495077 
L 250.928572 306.208711 
L 252.835611 305.813852 
L 254.74265 305.233697 
L 256.649689 304.431536 
L 258.556734 303.361869 
L 260.463774 301.970639 
L 262.370813 300.19667 
L 264.277852 297.974999 
L 266.184897 295.242992 
L 268.091936 291.949494 
L 269.998975 288.066754 
L 271.906014 283.603844 
L 273.813059 278.618102 
L 276.355776 271.356259 
L 282.712583 252.750532 
L 284.619622 247.799263 
L 286.526655 243.373646 
L 288.433701 239.525147 
L 290.340734 236.257786 
L 292.247779 233.53975 
L 294.154824 231.316757 
L 296.061857 229.523806 
L 297.96889 228.093868 
L 299.875935 226.963675 
L 301.78298 226.076708 
L 304.325703 225.189922 
L 306.868426 224.557492 
L 310.046826 224.019065 
L 311.318182 223.861213 
L 311.318182 223.861213 
" clip-path="url(#p84bb2c5a43)" style="fill: none; stroke: #8c564b; stroke-width: 1.5; stroke-linecap: square"/>
   </g>
   <g id="line2d_17">
    <path d="M 57.681818 221.195947 
L 60.860219 221.63443 
L 63.402942 222.153369 
L 65.945664 222.888218 
L 67.852697 223.630945 
L 69.759743 224.587523 
L 71.666776 225.812533 
L 73.573821 227.369652 
L 75.480866 229.329925 
L 77.387899 231.767768 
L 79.294932 234.753659 
L 81.201977 238.34306 
L 83.109022 242.561967 
L 85.016061 247.391494 
L 87.558784 254.640229 
L 91.372862 266.484211 
L 94.551263 276.173324 
L 97.09398 283.142985 
L 99.001025 287.709459 
L 100.90807 291.646477 
L 102.815109 294.954948 
L 104.722142 297.674085 
L 106.629181 299.865939 
L 108.536226 301.602167 
L 110.443266 302.954496 
L 112.350305 303.988814 
L 114.257344 304.762134 
L 116.164389 305.321581 
L 118.707106 305.798191 
L 121.249829 306.024683 
L 123.792545 306.042112 
L 126.335268 305.872516 
L 128.877991 305.523094 
L 131.420714 304.990115 
L 133.963431 304.26299 
L 136.50615 303.328961 
L 139.04887 302.178694 
L 141.59159 300.812568 
L 144.769991 298.827811 
L 148.584072 296.145378 
L 156.212234 290.659335 
L 159.390635 288.676064 
L 161.933355 287.307827 
L 164.476068 286.149381 
L 167.018788 285.197165 
L 170.197195 284.273798 
L 173.375594 283.609028 
L 176.554 283.161414 
L 180.368073 282.862663 
L 184.182154 282.787382 
L 187.996239 282.920904 
L 191.810325 283.273631 
L 194.98873 283.758665 
L 198.167131 284.448594 
L 201.345524 285.378313 
L 204.523924 286.581187 
L 207.702329 288.078743 
L 210.88073 289.867888 
L 214.05913 291.909278 
L 219.14457 295.487158 
L 224.230009 299.022468 
L 227.408407 300.998697 
L 230.586807 302.699338 
L 233.129527 303.835671 
L 235.672253 304.76733 
L 238.214976 305.497827 
L 240.757693 306.033219 
L 243.300416 306.377125 
L 245.843132 306.526194 
L 248.385855 306.465902 
L 250.928572 306.166398 
L 252.835611 305.75589 
L 254.74265 305.153992 
L 256.649689 304.322759 
L 258.556734 303.215283 
L 260.463774 301.775958 
L 262.370813 299.942007 
L 264.277852 297.647072 
L 266.184897 294.82751 
L 268.091936 291.431954 
L 269.998975 287.433606 
L 271.906014 282.84388 
L 273.813059 277.723916 
L 276.355776 270.280267 
L 282.712583 251.279453 
L 284.619622 246.239426 
L 286.526655 241.739989 
L 288.433701 237.831413 
L 290.340734 234.515914 
L 292.247779 231.759714 
L 294.154824 229.506694 
L 296.061857 227.690192 
L 297.96889 226.241809 
L 299.875935 225.097144 
L 301.78298 224.198829 
L 304.325703 223.300526 
L 306.868426 222.65962 
L 310.046826 222.113551 
L 311.318182 221.953304 
L 311.318182 221.953304 
" clip-path="url(#p84bb2c5a43)" style="fill: none; stroke: #e377c2; stroke-width: 1.5; stroke-linecap: square"/>
   </g>
   <g id="patch_3">
    <path d="M 45 320.4 
L 45 43.2 
" style="fill: none; stroke: #000000; stroke-width: 0.8; stroke-linejoin: miter; stroke-linecap: square"/>
   </g>
   <g id="patch_4">
    <path d="M 324 320.4 
L 324 43.2 
" style="fill: none; stroke: #000000; stroke-width: 0.8; stroke-linejoin: miter; stroke-linecap: square"/>
   </g>
   <g id="patch_5">
    <path d="M 45 320.4 
L 324 320.4 
" style="fill: none; stroke: #000000; stroke-width: 0.8; stroke-linejoin: miter; stroke-linecap: square"/>
   </g>
   <g id="patch_6">
    <path d="M 45 43.2 
L 324 43.2 
" style="fill: none; stroke: #000000; stroke-width: 0.8; stroke-linejoin: miter; stroke-linecap: square"/>
   </g>
   <g id="text_11">
    <!-- Prediction Curves -->
    <g transform="translate(131.961563 37.2)scale(0.12 -0.12)">
     <defs>
      <path id="DejaVuSans-50" d="M 1259 4147 
L 1259 2394 
L 2053 2394 
Q 2494 2394 2734 2622 
Q 2975 2850 2975 3272 
Q 2975 3691 2734 3919 
Q 2494 4147 2053 4147 
L 1259 4147 
z
M 628 4666 
L 2053 4666 
Q 2838 4666 3239 4311 
Q 3641 3956 3641 3272 
Q 3641 2581 3239 2228 
Q 2838 1875 2053 1875 
L 1259 1875 
L 1259 0 
L 628 0 
L 628 4666 
z
" transform="scale(0.015625)"/>
      <path id="DejaVuSans-72" d="M 2631 2963 
Q 2534 3019 2420 3045 
Q 2306 3072 2169 3072 
Q 1681 3072 1420 2755 
Q 1159 2438 1159 1844 
L 1159 0 
L 581 0 
L 581 3500 
L 1159 3500 
L 1159 2956 
Q 1341 3275 1631 3429 
Q 1922 3584 2338 3584 
Q 2397 3584 2469 3576 
Q 2541 3569 2628 3553 
L 2631 2963 
z
" transform="scale(0.015625)"/>
      <path id="DejaVuSans-65" d="M 3597 1894 
L 3597 1613 
L 953 1613 
Q 991 1019 1311 708 
Q 1631 397 2203 397 
Q 2534 397 2845 478 
Q 3156 559 3463 722 
L 3463 178 
Q 3153 47 2828 -22 
Q 2503 -91 2169 -91 
Q 1331 -91 842 396 
Q 353 884 353 1716 
Q 353 2575 817 3079 
Q 1281 3584 2069 3584 
Q 2775 3584 3186 3129 
Q 3597 2675 3597 1894 
z
M 3022 2063 
Q 3016 2534 2758 2815 
Q 2500 3097 2075 3097 
Q 1594 3097 1305 2825 
Q 1016 2553 972 2059 
L 3022 2063 
z
" transform="scale(0.015625)"/>
      <path id="DejaVuSans-64" d="M 2906 2969 
L 2906 4863 
L 3481 4863 
L 3481 0 
L 2906 0 
L 2906 525 
Q 2725 213 2448 61 
Q 2172 -91 1784 -91 
Q 1150 -91 751 415 
Q 353 922 353 1747 
Q 353 2572 751 3078 
Q 1150 3584 1784 3584 
Q 2172 3584 2448 3432 
Q 2725 3281 2906 2969 
z
M 947 1747 
Q 947 1113 1208 752 
Q 1469 391 1925 391 
Q 2381 391 2643 752 
Q 2906 1113 2906 1747 
Q 2906 2381 2643 2742 
Q 2381 3103 1925 3103 
Q 1469 3103 1208 2742 
Q 947 2381 947 1747 
z
" transform="scale(0.015625)"/>
      <path id="DejaVuSans-69" d="M 603 3500 
L 1178 3500 
L 1178 0 
L 603 0 
L 603 3500 
z
M 603 4863 
L 1178 4863 
L 1178 4134 
L 603 4134 
L 603 4863 
z
" transform="scale(0.015625)"/>
      <path id="DejaVuSans-63" d="M 3122 3366 
L 3122 2828 
Q 2878 2963 2633 3030 
Q 2388 3097 2138 3097 
Q 1578 3097 1268 2742 
Q 959 2388 959 1747 
Q 959 1106 1268 751 
Q 1578 397 2138 397 
Q 2388 397 2633 464 
Q 2878 531 3122 666 
L 3122 134 
Q 2881 22 2623 -34 
Q 2366 -91 2075 -91 
Q 1284 -91 818 406 
Q 353 903 353 1747 
Q 353 2603 823 3093 
Q 1294 3584 2113 3584 
Q 2378 3584 2631 3529 
Q 2884 3475 3122 3366 
z
" transform="scale(0.015625)"/>
      <path id="DejaVuSans-74" d="M 1172 4494 
L 1172 3500 
L 2356 3500 
L 2356 3053 
L 1172 3053 
L 1172 1153 
Q 1172 725 1289 603 
Q 1406 481 1766 481 
L 2356 481 
L 2356 0 
L 1766 0 
Q 1100 0 847 248 
Q 594 497 594 1153 
L 594 3053 
L 172 3053 
L 172 3500 
L 594 3500 
L 594 4494 
L 1172 4494 
z
" transform="scale(0.015625)"/>
      <path id="DejaVuSans-6f" d="M 1959 3097 
Q 1497 3097 1228 2736 
Q 959 2375 959 1747 
Q 959 1119 1226 758 
Q 1494 397 1959 397 
Q 2419 397 2687 759 
Q 2956 1122 2956 1747 
Q 2956 2369 2687 2733 
Q 2419 3097 1959 3097 
z
M 1959 3584 
Q 2709 3584 3137 3096 
Q 3566 2609 3566 1747 
Q 3566 888 3137 398 
Q 2709 -91 1959 -91 
Q 1206 -91 779 398 
Q 353 888 353 1747 
Q 353 2609 779 3096 
Q 1206 3584 1959 3584 
z
" transform="scale(0.015625)"/>
      <path id="DejaVuSans-6e" d="M 3513 2113 
L 3513 0 
L 2938 0 
L 2938 2094 
Q 2938 2591 2744 2837 
Q 2550 3084 2163 3084 
Q 1697 3084 1428 2787 
Q 1159 2491 1159 1978 
L 1159 0 
L 581 0 
L 581 3500 
L 1159 3500 
L 1159 2956 
Q 1366 3272 1645 3428 
Q 1925 3584 2291 3584 
Q 2894 3584 3203 3211 
Q 3513 2838 3513 2113 
z
" transform="scale(0.015625)"/>
      <path id="DejaVuSans-20" transform="scale(0.015625)"/>
      <path id="DejaVuSans-43" d="M 4122 4306 
L 4122 3641 
Q 3803 3938 3442 4084 
Q 3081 4231 2675 4231 
Q 1875 4231 1450 3742 
Q 1025 3253 1025 2328 
Q 1025 1406 1450 917 
Q 1875 428 2675 428 
Q 3081 428 3442 575 
Q 3803 722 4122 1019 
L 4122 359 
Q 3791 134 3420 21 
Q 3050 -91 2638 -91 
Q 1578 -91 968 557 
Q 359 1206 359 2328 
Q 359 3453 968 4101 
Q 1578 4750 2638 4750 
Q 3056 4750 3426 4639 
Q 3797 4528 4122 4306 
z
" transform="scale(0.015625)"/>
      <path id="DejaVuSans-75" d="M 544 1381 
L 544 3500 
L 1119 3500 
L 1119 1403 
Q 1119 906 1312 657 
Q 1506 409 1894 409 
Q 2359 409 2629 706 
Q 2900 1003 2900 1516 
L 2900 3500 
L 3475 3500 
L 3475 0 
L 2900 0 
L 2900 538 
Q 2691 219 2414 64 
Q 2138 -91 1772 -91 
Q 1169 -91 856 284 
Q 544 659 544 1381 
z
M 1991 3584 
L 1991 3584 
z
" transform="scale(0.015625)"/>
      <path id="DejaVuSans-76" d="M 191 3500 
L 800 3500 
L 1894 563 
L 2988 3500 
L 3597 3500 
L 2284 0 
L 1503 0 
L 191 3500 
z
" transform="scale(0.015625)"/>
      <path id="DejaVuSans-73" d="M 2834 3397 
L 2834 2853 
Q 2591 2978 2328 3040 
Q 2066 3103 1784 3103 
Q 1356 3103 1142 2972 
Q 928 2841 928 2578 
Q 928 2378 1081 2264 
Q 1234 2150 1697 2047 
L 1894 2003 
Q 2506 1872 2764 1633 
Q 3022 1394 3022 966 
Q 3022 478 2636 193 
Q 2250 -91 1575 -91 
Q 1294 -91 989 -36 
Q 684 19 347 128 
L 347 722 
Q 666 556 975 473 
Q 1284 391 1588 391 
Q 1994 391 2212 530 
Q 2431 669 2431 922 
Q 2431 1156 2273 1281 
Q 2116 1406 1581 1522 
L 1381 1569 
Q 847 1681 609 1914 
Q 372 2147 372 2553 
Q 372 3047 722 3315 
Q 1072 3584 1716 3584 
Q 2034 3584 2315 3537 
Q 2597 3491 2834 3397 
z
" transform="scale(0.015625)"/>
     </defs>
     <use xlink:href="#DejaVuSans-50"/>
     <use xlink:href="#DejaVuSans-72" x="58.552734"/>
     <use xlink:href="#DejaVuSans-65" x="97.416016"/>
     <use xlink:href="#DejaVuSans-64" x="158.939453"/>
     <use xlink:href="#DejaVuSans-69" x="222.416016"/>
     <use xlink:href="#DejaVuSans-63" x="250.199219"/>
     <use xlink:href="#DejaVuSans-74" x="305.179688"/>
     <use xlink:href="#DejaVuSans-69" x="344.388672"/>
     <use xlink:href="#DejaVuSans-6f" x="372.171875"/>
     <use xlink:href="#DejaVuSans-6e" x="433.353516"/>
     <use xlink:href="#DejaVuSans-20" x="496.732422"/>
     <use xlink:href="#DejaVuSans-43" x="528.519531"/>
     <use xlink:href="#DejaVuSans-75" x="598.34375"/>
     <use xlink:href="#DejaVuSans-72" x="661.722656"/>
     <use xlink:href="#DejaVuSans-76" x="702.835938"/>
     <use xlink:href="#DejaVuSans-65" x="762.015625"/>
     <use xlink:href="#DejaVuSans-73" x="823.539062"/>
    </g>
   </g>
   <g id="legend_1">
    <g id="patch_7">
     <path d="M 112.528125 153.946875 
L 256.471875 153.946875 
Q 258.471875 153.946875 258.471875 151.946875 
L 258.471875 50.2 
Q 258.471875 48.2 256.471875 48.2 
L 112.528125 48.2 
Q 110.528125 48.2 110.528125 50.2 
L 110.528125 151.946875 
Q 110.528125 153.946875 112.528125 153.946875 
z
" style="fill: #ffffff; opacity: 0.8; stroke: #cccccc; stroke-linejoin: miter"/>
    </g>
    <g id="line2d_18">
     <path d="M 114.528125 56.298437 
L 124.528125 56.298437 
L 134.528125 56.298437 
" style="fill: none; stroke: #1f77b4; stroke-width: 1.5; stroke-linecap: square"/>
    </g>
    <g id="text_12">
     <!-- Function with noise -->
     <g transform="translate(142.528125 59.798437)scale(0.1 -0.1)">
      <defs>
       <path id="DejaVuSans-46" d="M 628 4666 
L 3309 4666 
L 3309 4134 
L 1259 4134 
L 1259 2759 
L 3109 2759 
L 3109 2228 
L 1259 2228 
L 1259 0 
L 628 0 
L 628 4666 
z
" transform="scale(0.015625)"/>
       <path id="DejaVuSans-77" d="M 269 3500 
L 844 3500 
L 1563 769 
L 2278 3500 
L 2956 3500 
L 3675 769 
L 4391 3500 
L 4966 3500 
L 4050 0 
L 3372 0 
L 2619 2869 
L 1863 0 
L 1184 0 
L 269 3500 
z
" transform="scale(0.015625)"/>
       <path id="DejaVuSans-68" d="M 3513 2113 
L 3513 0 
L 2938 0 
L 2938 2094 
Q 2938 2591 2744 2837 
Q 2550 3084 2163 3084 
Q 1697 3084 1428 2787 
Q 1159 2491 1159 1978 
L 1159 0 
L 581 0 
L 581 4863 
L 1159 4863 
L 1159 2956 
Q 1366 3272 1645 3428 
Q 1925 3584 2291 3584 
Q 2894 3584 3203 3211 
Q 3513 2838 3513 2113 
z
" transform="scale(0.015625)"/>
      </defs>
      <use xlink:href="#DejaVuSans-46"/>
      <use xlink:href="#DejaVuSans-75" x="52.019531"/>
      <use xlink:href="#DejaVuSans-6e" x="115.398438"/>
      <use xlink:href="#DejaVuSans-63" x="178.777344"/>
      <use xlink:href="#DejaVuSans-74" x="233.757812"/>
      <use xlink:href="#DejaVuSans-69" x="272.966797"/>
      <use xlink:href="#DejaVuSans-6f" x="300.75"/>
      <use xlink:href="#DejaVuSans-6e" x="361.931641"/>
      <use xlink:href="#DejaVuSans-20" x="425.310547"/>
      <use xlink:href="#DejaVuSans-77" x="457.097656"/>
      <use xlink:href="#DejaVuSans-69" x="538.884766"/>
      <use xlink:href="#DejaVuSans-74" x="566.667969"/>
      <use xlink:href="#DejaVuSans-68" x="605.876953"/>
      <use xlink:href="#DejaVuSans-20" x="669.255859"/>
      <use xlink:href="#DejaVuSans-6e" x="701.042969"/>
      <use xlink:href="#DejaVuSans-6f" x="764.421875"/>
      <use xlink:href="#DejaVuSans-69" x="825.603516"/>
      <use xlink:href="#DejaVuSans-73" x="853.386719"/>
      <use xlink:href="#DejaVuSans-65" x="905.486328"/>
     </g>
    </g>
    <g id="line2d_19">
     <path d="M 114.528125 70.976562 
L 124.528125 70.976562 
L 134.528125 70.976562 
" style="fill: none; stroke: #ff7f0e; stroke-width: 1.5; stroke-linecap: square"/>
    </g>
    <g id="text_13">
     <!-- Prediction 1 -->
     <g transform="translate(142.528125 74.476562)scale(0.1 -0.1)">
      <use xlink:href="#DejaVuSans-50"/>
      <use xlink:href="#DejaVuSans-72" x="58.552734"/>
      <use xlink:href="#DejaVuSans-65" x="97.416016"/>
      <use xlink:href="#DejaVuSans-64" x="158.939453"/>
      <use xlink:href="#DejaVuSans-69" x="222.416016"/>
      <use xlink:href="#DejaVuSans-63" x="250.199219"/>
      <use xlink:href="#DejaVuSans-74" x="305.179688"/>
      <use xlink:href="#DejaVuSans-69" x="344.388672"/>
      <use xlink:href="#DejaVuSans-6f" x="372.171875"/>
      <use xlink:href="#DejaVuSans-6e" x="433.353516"/>
      <use xlink:href="#DejaVuSans-20" x="496.732422"/>
      <use xlink:href="#DejaVuSans-31" x="528.519531"/>
     </g>
    </g>
    <g id="line2d_20">
     <path d="M 114.528125 85.654687 
L 124.528125 85.654687 
L 134.528125 85.654687 
" style="fill: none; stroke: #2ca02c; stroke-width: 1.5; stroke-linecap: square"/>
    </g>
    <g id="text_14">
     <!-- Prediction 2 -->
     <g transform="translate(142.528125 89.154687)scale(0.1 -0.1)">
      <use xlink:href="#DejaVuSans-50"/>
      <use xlink:href="#DejaVuSans-72" x="58.552734"/>
      <use xlink:href="#DejaVuSans-65" x="97.416016"/>
      <use xlink:href="#DejaVuSans-64" x="158.939453"/>
      <use xlink:href="#DejaVuSans-69" x="222.416016"/>
      <use xlink:href="#DejaVuSans-63" x="250.199219"/>
      <use xlink:href="#DejaVuSans-74" x="305.179688"/>
      <use xlink:href="#DejaVuSans-69" x="344.388672"/>
      <use xlink:href="#DejaVuSans-6f" x="372.171875"/>
      <use xlink:href="#DejaVuSans-6e" x="433.353516"/>
      <use xlink:href="#DejaVuSans-20" x="496.732422"/>
      <use xlink:href="#DejaVuSans-32" x="528.519531"/>
     </g>
    </g>
    <g id="line2d_21">
     <path d="M 114.528125 100.332812 
L 124.528125 100.332812 
L 134.528125 100.332812 
" style="fill: none; stroke: #d62728; stroke-width: 1.5; stroke-linecap: square"/>
    </g>
    <g id="text_15">
     <!-- Prediction 3 -->
     <g transform="translate(142.528125 103.832812)scale(0.1 -0.1)">
      <defs>
       <path id="DejaVuSans-33" d="M 2597 2516 
Q 3050 2419 3304 2112 
Q 3559 1806 3559 1356 
Q 3559 666 3084 287 
Q 2609 -91 1734 -91 
Q 1441 -91 1130 -33 
Q 819 25 488 141 
L 488 750 
Q 750 597 1062 519 
Q 1375 441 1716 441 
Q 2309 441 2620 675 
Q 2931 909 2931 1356 
Q 2931 1769 2642 2001 
Q 2353 2234 1838 2234 
L 1294 2234 
L 1294 2753 
L 1863 2753 
Q 2328 2753 2575 2939 
Q 2822 3125 2822 3475 
Q 2822 3834 2567 4026 
Q 2313 4219 1838 4219 
Q 1578 4219 1281 4162 
Q 984 4106 628 3988 
L 628 4550 
Q 988 4650 1302 4700 
Q 1616 4750 1894 4750 
Q 2613 4750 3031 4423 
Q 3450 4097 3450 3541 
Q 3450 3153 3228 2886 
Q 3006 2619 2597 2516 
z
" transform="scale(0.015625)"/>
      </defs>
      <use xlink:href="#DejaVuSans-50"/>
      <use xlink:href="#DejaVuSans-72" x="58.552734"/>
      <use xlink:href="#DejaVuSans-65" x="97.416016"/>
      <use xlink:href="#DejaVuSans-64" x="158.939453"/>
      <use xlink:href="#DejaVuSans-69" x="222.416016"/>
      <use xlink:href="#DejaVuSans-63" x="250.199219"/>
      <use xlink:href="#DejaVuSans-74" x="305.179688"/>
      <use xlink:href="#DejaVuSans-69" x="344.388672"/>
      <use xlink:href="#DejaVuSans-6f" x="372.171875"/>
      <use xlink:href="#DejaVuSans-6e" x="433.353516"/>
      <use xlink:href="#DejaVuSans-20" x="496.732422"/>
      <use xlink:href="#DejaVuSans-33" x="528.519531"/>
     </g>
    </g>
    <g id="line2d_22">
     <path d="M 114.528125 115.010937 
L 124.528125 115.010937 
L 134.528125 115.010937 
" style="fill: none; stroke: #9467bd; stroke-width: 1.5; stroke-linecap: square"/>
    </g>
    <g id="text_16">
     <!-- Prediction 4 -->
     <g transform="translate(142.528125 118.510937)scale(0.1 -0.1)">
      <defs>
       <path id="DejaVuSans-34" d="M 2419 4116 
L 825 1625 
L 2419 1625 
L 2419 4116 
z
M 2253 4666 
L 3047 4666 
L 3047 1625 
L 3713 1625 
L 3713 1100 
L 3047 1100 
L 3047 0 
L 2419 0 
L 2419 1100 
L 313 1100 
L 313 1709 
L 2253 4666 
z
" transform="scale(0.015625)"/>
      </defs>
      <use xlink:href="#DejaVuSans-50"/>
      <use xlink:href="#DejaVuSans-72" x="58.552734"/>
      <use xlink:href="#DejaVuSans-65" x="97.416016"/>
      <use xlink:href="#DejaVuSans-64" x="158.939453"/>
      <use xlink:href="#DejaVuSans-69" x="222.416016"/>
      <use xlink:href="#DejaVuSans-63" x="250.199219"/>
      <use xlink:href="#DejaVuSans-74" x="305.179688"/>
      <use xlink:href="#DejaVuSans-69" x="344.388672"/>
      <use xlink:href="#DejaVuSans-6f" x="372.171875"/>
      <use xlink:href="#DejaVuSans-6e" x="433.353516"/>
      <use xlink:href="#DejaVuSans-20" x="496.732422"/>
      <use xlink:href="#DejaVuSans-34" x="528.519531"/>
     </g>
    </g>
    <g id="line2d_23">
     <path d="M 114.528125 129.689062 
L 124.528125 129.689062 
L 134.528125 129.689062 
" style="fill: none; stroke: #8c564b; stroke-width: 1.5; stroke-linecap: square"/>
    </g>
    <g id="text_17">
     <!-- Prediction 5 -->
     <g transform="translate(142.528125 133.189062)scale(0.1 -0.1)">
      <use xlink:href="#DejaVuSans-50"/>
      <use xlink:href="#DejaVuSans-72" x="58.552734"/>
      <use xlink:href="#DejaVuSans-65" x="97.416016"/>
      <use xlink:href="#DejaVuSans-64" x="158.939453"/>
      <use xlink:href="#DejaVuSans-69" x="222.416016"/>
      <use xlink:href="#DejaVuSans-63" x="250.199219"/>
      <use xlink:href="#DejaVuSans-74" x="305.179688"/>
      <use xlink:href="#DejaVuSans-69" x="344.388672"/>
      <use xlink:href="#DejaVuSans-6f" x="372.171875"/>
      <use xlink:href="#DejaVuSans-6e" x="433.353516"/>
      <use xlink:href="#DejaVuSans-20" x="496.732422"/>
      <use xlink:href="#DejaVuSans-35" x="528.519531"/>
     </g>
    </g>
    <g id="line2d_24">
     <path d="M 114.528125 144.367187 
L 124.528125 144.367187 
L 134.528125 144.367187 
" style="fill: none; stroke: #e377c2; stroke-width: 1.5; stroke-linecap: square"/>
    </g>
    <g id="text_18">
     <!-- Average of Predictions -->
     <g transform="translate(142.528125 147.867187)scale(0.1 -0.1)">
      <defs>
       <path id="DejaVuSans-41" d="M 2188 4044 
L 1331 1722 
L 3047 1722 
L 2188 4044 
z
M 1831 4666 
L 2547 4666 
L 4325 0 
L 3669 0 
L 3244 1197 
L 1141 1197 
L 716 0 
L 50 0 
L 1831 4666 
z
" transform="scale(0.015625)"/>
       <path id="DejaVuSans-61" d="M 2194 1759 
Q 1497 1759 1228 1600 
Q 959 1441 959 1056 
Q 959 750 1161 570 
Q 1363 391 1709 391 
Q 2188 391 2477 730 
Q 2766 1069 2766 1631 
L 2766 1759 
L 2194 1759 
z
M 3341 1997 
L 3341 0 
L 2766 0 
L 2766 531 
Q 2569 213 2275 61 
Q 1981 -91 1556 -91 
Q 1019 -91 701 211 
Q 384 513 384 1019 
Q 384 1609 779 1909 
Q 1175 2209 1959 2209 
L 2766 2209 
L 2766 2266 
Q 2766 2663 2505 2880 
Q 2244 3097 1772 3097 
Q 1472 3097 1187 3025 
Q 903 2953 641 2809 
L 641 3341 
Q 956 3463 1253 3523 
Q 1550 3584 1831 3584 
Q 2591 3584 2966 3190 
Q 3341 2797 3341 1997 
z
" transform="scale(0.015625)"/>
       <path id="DejaVuSans-67" d="M 2906 1791 
Q 2906 2416 2648 2759 
Q 2391 3103 1925 3103 
Q 1463 3103 1205 2759 
Q 947 2416 947 1791 
Q 947 1169 1205 825 
Q 1463 481 1925 481 
Q 2391 481 2648 825 
Q 2906 1169 2906 1791 
z
M 3481 434 
Q 3481 -459 3084 -895 
Q 2688 -1331 1869 -1331 
Q 1566 -1331 1297 -1286 
Q 1028 -1241 775 -1147 
L 775 -588 
Q 1028 -725 1275 -790 
Q 1522 -856 1778 -856 
Q 2344 -856 2625 -561 
Q 2906 -266 2906 331 
L 2906 616 
Q 2728 306 2450 153 
Q 2172 0 1784 0 
Q 1141 0 747 490 
Q 353 981 353 1791 
Q 353 2603 747 3093 
Q 1141 3584 1784 3584 
Q 2172 3584 2450 3431 
Q 2728 3278 2906 2969 
L 2906 3500 
L 3481 3500 
L 3481 434 
z
" transform="scale(0.015625)"/>
       <path id="DejaVuSans-66" d="M 2375 4863 
L 2375 4384 
L 1825 4384 
Q 1516 4384 1395 4259 
Q 1275 4134 1275 3809 
L 1275 3500 
L 2222 3500 
L 2222 3053 
L 1275 3053 
L 1275 0 
L 697 0 
L 697 3053 
L 147 3053 
L 147 3500 
L 697 3500 
L 697 3744 
Q 697 4328 969 4595 
Q 1241 4863 1831 4863 
L 2375 4863 
z
" transform="scale(0.015625)"/>
      </defs>
      <use xlink:href="#DejaVuSans-41"/>
      <use xlink:href="#DejaVuSans-76" x="62.533203"/>
      <use xlink:href="#DejaVuSans-65" x="121.712891"/>
      <use xlink:href="#DejaVuSans-72" x="183.236328"/>
      <use xlink:href="#DejaVuSans-61" x="224.349609"/>
      <use xlink:href="#DejaVuSans-67" x="285.628906"/>
      <use xlink:href="#DejaVuSans-65" x="349.105469"/>
      <use xlink:href="#DejaVuSans-20" x="410.628906"/>
      <use xlink:href="#DejaVuSans-6f" x="442.416016"/>
      <use xlink:href="#DejaVuSans-66" x="503.597656"/>
      <use xlink:href="#DejaVuSans-20" x="538.802734"/>
      <use xlink:href="#DejaVuSans-50" x="570.589844"/>
      <use xlink:href="#DejaVuSans-72" x="629.142578"/>
      <use xlink:href="#DejaVuSans-65" x="668.005859"/>
      <use xlink:href="#DejaVuSans-64" x="729.529297"/>
      <use xlink:href="#DejaVuSans-69" x="793.005859"/>
      <use xlink:href="#DejaVuSans-63" x="820.789062"/>
      <use xlink:href="#DejaVuSans-74" x="875.769531"/>
      <use xlink:href="#DejaVuSans-69" x="914.978516"/>
      <use xlink:href="#DejaVuSans-6f" x="942.761719"/>
      <use xlink:href="#DejaVuSans-6e" x="1003.943359"/>
      <use xlink:href="#DejaVuSans-73" x="1067.322266"/>
     </g>
    </g>
   </g>
  </g>
 </g>
 <defs>
  <clipPath id="p84bb2c5a43">
   <rect x="45" y="43.2" width="279" height="277.2"/>
  </clipPath>
 </defs>
</svg>
