<?xml version="1.0" encoding="utf-8" standalone="no"?>
<!DOCTYPE svg PUBLIC "-//W3C//DTD SVG 1.1//EN"
  "http://www.w3.org/Graphics/SVG/1.1/DTD/svg11.dtd">
<svg xmlns:xlink="http://www.w3.org/1999/xlink" width="360pt" height="360pt" viewBox="0 0 360 360" xmlns="http://www.w3.org/2000/svg" version="1.1">
 <metadata>
  <rdf:RDF xmlns:dc="http://purl.org/dc/elements/1.1/" xmlns:cc="http://creativecommons.org/ns#" xmlns:rdf="http://www.w3.org/1999/02/22-rdf-syntax-ns#">
   <cc:Work>
    <dc:type rdf:resource="http://purl.org/dc/dcmitype/StillImage"/>
    <dc:date>2022-11-15T20:49:46.647681</dc:date>
    <dc:format>image/svg+xml</dc:format>
    <dc:creator>
     <cc:Agent>
      <dc:title>Matplotlib v3.5.3, https://matplotlib.org/</dc:title>
     </cc:Agent>
    </dc:creator>
   </cc:Work>
  </rdf:RDF>
 </metadata>
 <defs>
  <style type="text/css">*{stroke-linejoin: round; stroke-linecap: butt}</style>
 </defs>
 <g id="figure_1">
  <g id="patch_1">
   <path d="M 0 360 
L 360 360 
L 360 0 
L 0 0 
z
" style="fill: #ffffff"/>
  </g>
  <g id="axes_1">
   <g id="patch_2">
    <path d="M 45 320.4 
L 324 320.4 
L 324 43.2 
L 45 43.2 
z
" style="fill: #ffffff"/>
   </g>
   <g id="matplotlib.axis_1">
    <g id="xtick_1">
     <g id="line2d_1">
      <defs>
       <path id="m734db82385" d="M 0 0 
L 0 3.5 
" style="stroke: #000000; stroke-width: 0.8"/>
      </defs>
      <g>
       <use xlink:href="#m734db82385" x="83.045455" y="320.4" style="stroke: #000000; stroke-width: 0.8"/>
      </g>
     </g>
     <g id="text_1">
      <!-- −2 -->
      <g transform="translate(75.674361 334.998438)scale(0.1 -0.1)">
       <defs>
        <path id="DejaVuSans-2212" d="M 678 2272 
L 4684 2272 
L 4684 1741 
L 678 1741 
L 678 2272 
z
" transform="scale(0.015625)"/>
        <path id="DejaVuSans-32" d="M 1228 531 
L 3431 531 
L 3431 0 
L 469 0 
L 469 531 
Q 828 903 1448 1529 
Q 2069 2156 2228 2338 
Q 2531 2678 2651 2914 
Q 2772 3150 2772 3378 
Q 2772 3750 2511 3984 
Q 2250 4219 1831 4219 
Q 1534 4219 1204 4116 
Q 875 4013 500 3803 
L 500 4441 
Q 881 4594 1212 4672 
Q 1544 4750 1819 4750 
Q 2544 4750 2975 4387 
Q 3406 4025 3406 3419 
Q 3406 3131 3298 2873 
Q 3191 2616 2906 2266 
Q 2828 2175 2409 1742 
Q 1991 1309 1228 531 
z
" transform="scale(0.015625)"/>
       </defs>
       <use xlink:href="#DejaVuSans-2212"/>
       <use xlink:href="#DejaVuSans-32" x="83.789062"/>
      </g>
     </g>
    </g>
    <g id="xtick_2">
     <g id="line2d_2">
      <g>
       <use xlink:href="#m734db82385" x="133.772727" y="320.4" style="stroke: #000000; stroke-width: 0.8"/>
      </g>
     </g>
     <g id="text_2">
      <!-- −1 -->
      <g transform="translate(126.401634 334.998438)scale(0.1 -0.1)">
       <defs>
        <path id="DejaVuSans-31" d="M 794 531 
L 1825 531 
L 1825 4091 
L 703 3866 
L 703 4441 
L 1819 4666 
L 2450 4666 
L 2450 531 
L 3481 531 
L 3481 0 
L 794 0 
L 794 531 
z
" transform="scale(0.015625)"/>
       </defs>
       <use xlink:href="#DejaVuSans-2212"/>
       <use xlink:href="#DejaVuSans-31" x="83.789062"/>
      </g>
     </g>
    </g>
    <g id="xtick_3">
     <g id="line2d_3">
      <g>
       <use xlink:href="#m734db82385" x="184.5" y="320.4" style="stroke: #000000; stroke-width: 0.8"/>
      </g>
     </g>
     <g id="text_3">
      <!-- 0 -->
      <g transform="translate(181.31875 334.998438)scale(0.1 -0.1)">
       <defs>
        <path id="DejaVuSans-30" d="M 2034 4250 
Q 1547 4250 1301 3770 
Q 1056 3291 1056 2328 
Q 1056 1369 1301 889 
Q 1547 409 2034 409 
Q 2525 409 2770 889 
Q 3016 1369 3016 2328 
Q 3016 3291 2770 3770 
Q 2525 4250 2034 4250 
z
M 2034 4750 
Q 2819 4750 3233 4129 
Q 3647 3509 3647 2328 
Q 3647 1150 3233 529 
Q 2819 -91 2034 -91 
Q 1250 -91 836 529 
Q 422 1150 422 2328 
Q 422 3509 836 4129 
Q 1250 4750 2034 4750 
z
" transform="scale(0.015625)"/>
       </defs>
       <use xlink:href="#DejaVuSans-30"/>
      </g>
     </g>
    </g>
    <g id="xtick_4">
     <g id="line2d_4">
      <g>
       <use xlink:href="#m734db82385" x="235.227273" y="320.4" style="stroke: #000000; stroke-width: 0.8"/>
      </g>
     </g>
     <g id="text_4">
      <!-- 1 -->
      <g transform="translate(232.046023 334.998438)scale(0.1 -0.1)">
       <use xlink:href="#DejaVuSans-31"/>
      </g>
     </g>
    </g>
    <g id="xtick_5">
     <g id="line2d_5">
      <g>
       <use xlink:href="#m734db82385" x="285.954545" y="320.4" style="stroke: #000000; stroke-width: 0.8"/>
      </g>
     </g>
     <g id="text_5">
      <!-- 2 -->
      <g transform="translate(282.773295 334.998438)scale(0.1 -0.1)">
       <use xlink:href="#DejaVuSans-32"/>
      </g>
     </g>
    </g>
   </g>
   <g id="matplotlib.axis_2">
    <g id="ytick_1">
     <g id="line2d_6">
      <defs>
       <path id="m5c1708ce16" d="M 0 0 
L -3.5 0 
" style="stroke: #000000; stroke-width: 0.8"/>
      </defs>
      <g>
       <use xlink:href="#m5c1708ce16" x="45" y="313.141214" style="stroke: #000000; stroke-width: 0.8"/>
      </g>
     </g>
     <g id="text_6">
      <!-- −0.04 -->
      <g transform="translate(7.354687 316.940433)scale(0.1 -0.1)">
       <defs>
        <path id="DejaVuSans-2e" d="M 684 794 
L 1344 794 
L 1344 0 
L 684 0 
L 684 794 
z
" transform="scale(0.015625)"/>
        <path id="DejaVuSans-34" d="M 2419 4116 
L 825 1625 
L 2419 1625 
L 2419 4116 
z
M 2253 4666 
L 3047 4666 
L 3047 1625 
L 3713 1625 
L 3713 1100 
L 3047 1100 
L 3047 0 
L 2419 0 
L 2419 1100 
L 313 1100 
L 313 1709 
L 2253 4666 
z
" transform="scale(0.015625)"/>
       </defs>
       <use xlink:href="#DejaVuSans-2212"/>
       <use xlink:href="#DejaVuSans-30" x="83.789062"/>
       <use xlink:href="#DejaVuSans-2e" x="147.412109"/>
       <use xlink:href="#DejaVuSans-30" x="179.199219"/>
       <use xlink:href="#DejaVuSans-34" x="242.822266"/>
      </g>
     </g>
    </g>
    <g id="ytick_2">
     <g id="line2d_7">
      <g>
       <use xlink:href="#m5c1708ce16" x="45" y="275.14907" style="stroke: #000000; stroke-width: 0.8"/>
      </g>
     </g>
     <g id="text_7">
      <!-- −0.03 -->
      <g transform="translate(7.354687 278.948289)scale(0.1 -0.1)">
       <defs>
        <path id="DejaVuSans-33" d="M 2597 2516 
Q 3050 2419 3304 2112 
Q 3559 1806 3559 1356 
Q 3559 666 3084 287 
Q 2609 -91 1734 -91 
Q 1441 -91 1130 -33 
Q 819 25 488 141 
L 488 750 
Q 750 597 1062 519 
Q 1375 441 1716 441 
Q 2309 441 2620 675 
Q 2931 909 2931 1356 
Q 2931 1769 2642 2001 
Q 2353 2234 1838 2234 
L 1294 2234 
L 1294 2753 
L 1863 2753 
Q 2328 2753 2575 2939 
Q 2822 3125 2822 3475 
Q 2822 3834 2567 4026 
Q 2313 4219 1838 4219 
Q 1578 4219 1281 4162 
Q 984 4106 628 3988 
L 628 4550 
Q 988 4650 1302 4700 
Q 1616 4750 1894 4750 
Q 2613 4750 3031 4423 
Q 3450 4097 3450 3541 
Q 3450 3153 3228 2886 
Q 3006 2619 2597 2516 
z
" transform="scale(0.015625)"/>
       </defs>
       <use xlink:href="#DejaVuSans-2212"/>
       <use xlink:href="#DejaVuSans-30" x="83.789062"/>
       <use xlink:href="#DejaVuSans-2e" x="147.412109"/>
       <use xlink:href="#DejaVuSans-30" x="179.199219"/>
       <use xlink:href="#DejaVuSans-33" x="242.822266"/>
      </g>
     </g>
    </g>
    <g id="ytick_3">
     <g id="line2d_8">
      <g>
       <use xlink:href="#m5c1708ce16" x="45" y="237.156927" style="stroke: #000000; stroke-width: 0.8"/>
      </g>
     </g>
     <g id="text_8">
      <!-- −0.02 -->
      <g transform="translate(7.354687 240.956146)scale(0.1 -0.1)">
       <use xlink:href="#DejaVuSans-2212"/>
       <use xlink:href="#DejaVuSans-30" x="83.789062"/>
       <use xlink:href="#DejaVuSans-2e" x="147.412109"/>
       <use xlink:href="#DejaVuSans-30" x="179.199219"/>
       <use xlink:href="#DejaVuSans-32" x="242.822266"/>
      </g>
     </g>
    </g>
    <g id="ytick_4">
     <g id="line2d_9">
      <g>
       <use xlink:href="#m5c1708ce16" x="45" y="199.164783" style="stroke: #000000; stroke-width: 0.8"/>
      </g>
     </g>
     <g id="text_9">
      <!-- −0.01 -->
      <g transform="translate(7.354687 202.964002)scale(0.1 -0.1)">
       <use xlink:href="#DejaVuSans-2212"/>
       <use xlink:href="#DejaVuSans-30" x="83.789062"/>
       <use xlink:href="#DejaVuSans-2e" x="147.412109"/>
       <use xlink:href="#DejaVuSans-30" x="179.199219"/>
       <use xlink:href="#DejaVuSans-31" x="242.822266"/>
      </g>
     </g>
    </g>
    <g id="ytick_5">
     <g id="line2d_10">
      <g>
       <use xlink:href="#m5c1708ce16" x="45" y="161.17264" style="stroke: #000000; stroke-width: 0.8"/>
      </g>
     </g>
     <g id="text_10">
      <!-- 0.00 -->
      <g transform="translate(15.734375 164.971859)scale(0.1 -0.1)">
       <use xlink:href="#DejaVuSans-30"/>
       <use xlink:href="#DejaVuSans-2e" x="63.623047"/>
       <use xlink:href="#DejaVuSans-30" x="95.410156"/>
       <use xlink:href="#DejaVuSans-30" x="159.033203"/>
      </g>
     </g>
    </g>
    <g id="ytick_6">
     <g id="line2d_11">
      <g>
       <use xlink:href="#m5c1708ce16" x="45" y="123.180496" style="stroke: #000000; stroke-width: 0.8"/>
      </g>
     </g>
     <g id="text_11">
      <!-- 0.01 -->
      <g transform="translate(15.734375 126.979715)scale(0.1 -0.1)">
       <use xlink:href="#DejaVuSans-30"/>
       <use xlink:href="#DejaVuSans-2e" x="63.623047"/>
       <use xlink:href="#DejaVuSans-30" x="95.410156"/>
       <use xlink:href="#DejaVuSans-31" x="159.033203"/>
      </g>
     </g>
    </g>
    <g id="ytick_7">
     <g id="line2d_12">
      <g>
       <use xlink:href="#m5c1708ce16" x="45" y="85.188353" style="stroke: #000000; stroke-width: 0.8"/>
      </g>
     </g>
     <g id="text_12">
      <!-- 0.02 -->
      <g transform="translate(15.734375 88.987572)scale(0.1 -0.1)">
       <use xlink:href="#DejaVuSans-30"/>
       <use xlink:href="#DejaVuSans-2e" x="63.623047"/>
       <use xlink:href="#DejaVuSans-30" x="95.410156"/>
       <use xlink:href="#DejaVuSans-32" x="159.033203"/>
      </g>
     </g>
    </g>
    <g id="ytick_8">
     <g id="line2d_13">
      <g>
       <use xlink:href="#m5c1708ce16" x="45" y="47.196209" style="stroke: #000000; stroke-width: 0.8"/>
      </g>
     </g>
     <g id="text_13">
      <!-- 0.03 -->
      <g transform="translate(15.734375 50.995428)scale(0.1 -0.1)">
       <use xlink:href="#DejaVuSans-30"/>
       <use xlink:href="#DejaVuSans-2e" x="63.623047"/>
       <use xlink:href="#DejaVuSans-30" x="95.410156"/>
       <use xlink:href="#DejaVuSans-33" x="159.033203"/>
      </g>
     </g>
    </g>
   </g>
   <g id="line2d_14">
    <path d="M 57.681818 307.8 
L 59.588863 305.736037 
L 61.495896 303.369897 
L 63.402942 300.684191 
L 65.309987 297.653735 
L 67.21702 294.276719 
L 69.124053 290.548523 
L 71.666776 285.052471 
L 74.209498 279.042263 
L 78.023577 269.3287 
L 84.380384 252.849865 
L 86.923101 246.765712 
L 89.465823 241.240612 
L 91.372862 237.539726 
L 93.279902 234.244142 
L 95.186941 231.350927 
L 97.09398 228.834051 
L 99.001025 226.638814 
L 101.543748 224.071337 
L 108.536226 217.277651 
L 111.078949 214.409688 
L 114.893027 209.712894 
L 122.521184 199.85429 
L 126.335268 194.579865 
L 133.327753 184.573496 
L 135.234792 182.43434 
L 136.50615 181.33513 
L 137.777512 180.554498 
L 139.04887 180.09367 
L 140.320232 179.950916 
L 141.59159 180.100826 
L 142.862951 180.486993 
L 144.769991 181.402126 
L 147.31271 182.994981 
L 151.126789 185.733677 
L 154.305195 188.267368 
L 158.119276 191.676794 
L 161.297675 194.515961 
L 163.204716 195.943892 
L 164.476068 196.679948 
L 165.747428 197.191228 
L 167.018788 197.447254 
L 168.29015 197.444627 
L 169.561514 197.186563 
L 170.832874 196.687738 
L 172.739914 195.605121 
L 175.28264 193.808551 
L 178.46104 191.634804 
L 180.368073 190.665957 
L 181.639433 190.251824 
L 182.910794 190.07175 
L 184.182154 190.187331 
L 185.453519 190.614145 
L 186.724879 191.404912 
L 187.996239 192.55818 
L 189.2676 194.071778 
L 191.174644 196.838282 
L 193.717365 200.657149 
L 194.98873 202.133246 
L 195.62441 202.652633 
L 196.26009 202.99086 
L 196.895771 203.118035 
L 197.53145 203.027092 
L 198.167131 202.701728 
L 198.802811 202.133427 
L 199.438491 201.330613 
L 200.709844 199.091558 
L 201.981204 196.143531 
L 206.430969 184.519969 
L 207.702329 182.035531 
L 208.33801 181.086895 
L 208.973691 180.345784 
L 209.60937 179.813905 
L 210.245049 179.511448 
L 210.88073 179.427101 
L 211.51641 179.554366 
L 212.152088 179.875191 
L 212.787769 180.393944 
L 214.05913 181.889425 
L 215.330489 183.880313 
L 217.237528 187.369739 
L 219.780251 192.066963 
L 221.051609 194.12685 
L 222.322967 195.871609 
L 223.594329 197.232578 
L 224.86569 198.182856 
L 226.137049 198.712027 
L 227.408407 198.834967 
L 228.679768 198.556659 
L 229.95113 197.914807 
L 231.222488 196.943061 
L 232.493847 195.680745 
L 234.400889 193.35013 
L 236.943615 189.685114 
L 243.300416 180.073833 
L 245.207455 177.608056 
L 247.114494 175.467959 
L 249.021533 173.669985 
L 250.928572 172.175319 
L 253.471295 170.531649 
L 257.921051 167.807202 
L 259.82809 166.389447 
L 261.735129 164.715152 
L 263.642174 162.765755 
L 266.184897 159.750517 
L 269.363297 155.490151 
L 278.898499 142.165886 
L 281.441222 139.17746 
L 283.348261 137.290219 
L 284.619622 136.240591 
L 285.890984 135.389682 
L 287.162333 134.757709 
L 288.433701 134.367571 
L 289.705056 134.23161 
L 290.976411 134.369111 
L 292.247779 134.79609 
L 293.519146 135.507961 
L 294.790502 136.51792 
L 296.061857 137.826443 
L 297.333212 139.421201 
L 298.60458 141.284619 
L 300.511613 144.558011 
L 302.418658 148.331429 
L 304.961381 153.97712 
L 308.139781 161.712136 
L 311.318182 169.737372 
L 311.318182 169.737372 
" clip-path="url(#pdfda50037c)" style="fill: none; stroke: #1f77b4; stroke-width: 1.5; stroke-linecap: square"/>
   </g>
   <g id="line2d_15">
    <path d="M 57.681818 96.945299 
L 60.860219 98.076195 
L 64.038619 99.401747 
L 67.852697 101.228481 
L 73.573821 104.279951 
L 78.023577 106.60046 
L 81.201977 108.015789 
L 83.7447 108.890903 
L 85.651745 109.353829 
L 87.558784 109.620074 
L 89.465823 109.671552 
L 91.372862 109.479295 
L 93.279902 109.033369 
L 95.186941 108.338991 
L 97.09398 107.422443 
L 100.272386 105.540546 
L 103.450781 103.637204 
L 105.35782 102.752546 
L 106.629181 102.357177 
L 107.900543 102.157136 
L 109.171904 102.174937 
L 110.443266 102.420574 
L 111.714627 102.89277 
L 112.985988 103.570412 
L 114.893027 104.923003 
L 116.800067 106.589885 
L 119.342783 109.137615 
L 123.156868 113.35499 
L 128.242307 119.071107 
L 130.149352 120.861257 
L 131.420714 121.768125 
L 132.692069 122.355872 
L 133.963431 122.522254 
L 134.599111 122.42098 
L 135.234792 122.188684 
L 135.87047 121.826345 
L 137.141831 120.673982 
L 138.413193 118.967845 
L 139.684551 116.761263 
L 140.955909 114.135566 
L 142.862951 109.670839 
L 146.67703 100.459363 
L 148.584072 96.475278 
L 149.85543 94.226349 
L 151.126789 92.353963 
L 152.39815 90.877866 
L 153.669511 89.812574 
L 154.940876 89.147624 
L 156.212234 88.870085 
L 157.483596 88.968331 
L 158.754957 89.419723 
L 160.026315 90.206711 
L 161.297675 91.295374 
L 162.569035 92.675909 
L 163.840395 94.314393 
L 165.747428 97.197792 
L 168.29015 101.639625 
L 173.375594 111.36614 
L 180.368073 124.915508 
L 186.724879 137.875561 
L 187.996239 140.003474 
L 189.2676 141.767073 
L 190.538964 143.131212 
L 191.810325 144.102415 
L 193.081685 144.782673 
L 196.895771 146.333227 
L 198.167131 147.21403 
L 199.438491 148.428984 
L 200.709844 149.995209 
L 202.616884 152.796949 
L 204.523924 155.6784 
L 205.79529 157.296436 
L 207.06665 158.443658 
L 207.702329 158.786505 
L 208.33801 158.946572 
L 208.973691 158.90927 
L 209.60937 158.680835 
L 210.245049 158.235261 
L 210.88073 157.592033 
L 211.51641 156.741937 
L 212.787769 154.453776 
L 214.05913 151.49814 
L 215.330489 147.976535 
L 217.237528 141.967708 
L 225.501368 114.768156 
L 227.408407 109.55741 
L 229.315449 105.065758 
L 230.586807 102.554509 
L 231.858169 100.453056 
L 233.129527 98.804313 
L 234.400889 97.618724 
L 235.672253 96.890693 
L 236.943615 96.608165 
L 238.214976 96.737632 
L 239.486331 97.226902 
L 240.757693 97.998997 
L 242.664732 99.52514 
L 248.385855 104.553798 
L 250.292894 105.772782 
L 251.56425 106.377361 
L 252.835611 106.806983 
L 254.106973 107.064265 
L 256.014012 107.164923 
L 257.921051 106.983643 
L 259.82809 106.605751 
L 263.00649 105.719674 
L 268.091936 104.237061 
L 271.270337 103.500258 
L 274.448737 102.992736 
L 276.991454 102.785579 
L 279.534177 102.80896 
L 281.441222 103.012585 
L 283.348261 103.420649 
L 285.2553 104.05817 
L 287.162333 104.972406 
L 289.069378 106.19759 
L 290.976411 107.774953 
L 292.883456 109.723047 
L 294.790502 112.059646 
L 296.697535 114.790643 
L 298.60458 117.881606 
L 301.14729 122.538635 
L 303.690025 127.682103 
L 307.504104 136.000729 
L 311.318182 144.564646 
L 311.318182 144.564646 
" clip-path="url(#pdfda50037c)" style="fill: none; stroke: #ff7f0e; stroke-width: 1.5; stroke-linecap: square"/>
   </g>
   <g id="line2d_16">
    <path d="M 57.681818 59.205005 
L 60.224541 59.451021 
L 62.131574 59.838886 
L 64.038619 60.449941 
L 65.945664 61.353299 
L 67.852697 62.610916 
L 69.124053 63.676503 
L 70.39542 64.935388 
L 72.302453 67.23323 
L 74.209498 70.021814 
L 76.116544 73.301818 
L 78.023577 77.021227 
L 80.566299 82.520891 
L 87.558784 98.212954 
L 89.465823 101.867717 
L 91.372862 104.981642 
L 92.644224 106.707696 
L 93.915579 108.13839 
L 95.186941 109.276158 
L 96.458302 110.128745 
L 97.729663 110.737162 
L 99.636709 111.292736 
L 104.086458 112.256154 
L 105.35782 112.836514 
L 106.629181 113.682534 
L 107.900543 114.853426 
L 109.171904 116.358232 
L 110.443266 118.174758 
L 112.350305 121.376682 
L 118.071428 131.650088 
L 119.342783 133.488551 
L 120.614145 135.021261 
L 121.885506 136.212823 
L 123.156868 137.035405 
L 124.428223 137.496142 
L 125.699584 137.606786 
L 126.970946 137.398157 
L 128.242307 136.912261 
L 129.513669 136.223726 
L 134.599111 133.038013 
L 135.87047 132.58876 
L 137.141831 132.428252 
L 138.413193 132.608111 
L 139.684551 133.138413 
L 140.955909 134.018627 
L 142.227271 135.221919 
L 143.498632 136.723379 
L 145.405671 139.448035 
L 147.31271 142.647785 
L 149.219749 146.257049 
L 151.762469 151.605546 
L 154.940876 158.93954 
L 158.754957 167.735121 
L 160.661995 171.463799 
L 161.933355 173.441542 
L 163.204716 174.867661 
L 163.840395 175.339856 
L 164.476068 175.639949 
L 165.111749 175.75245 
L 165.747428 175.679306 
L 166.383109 175.411324 
L 167.018788 174.9471 
L 167.654469 174.295374 
L 168.925829 172.440018 
L 170.197195 169.932392 
L 171.468555 166.86969 
L 173.375594 161.574817 
L 179.09672 144.958942 
L 181.003753 140.401846 
L 182.275114 137.859981 
L 183.546474 135.789677 
L 184.817839 134.249811 
L 185.453519 133.69709 
L 186.089199 133.308682 
L 186.724879 133.069368 
L 187.360559 132.99781 
L 187.996239 133.095818 
L 188.631919 133.354696 
L 189.2676 133.781511 
L 190.538964 135.089491 
L 191.810325 136.901279 
L 193.717365 140.167605 
L 195.62441 143.291721 
L 196.895771 144.818724 
L 197.53145 145.312024 
L 198.167131 145.592642 
L 198.802811 145.656592 
L 199.438491 145.476971 
L 200.074164 145.064378 
L 200.709844 144.429953 
L 201.345524 143.583842 
L 202.616884 141.347595 
L 203.888245 138.604823 
L 207.702329 129.858545 
L 208.973691 127.477556 
L 210.245049 125.571655 
L 211.51641 124.180687 
L 212.787769 123.285764 
L 214.05913 122.832863 
L 215.330489 122.748555 
L 216.60185 122.940404 
L 218.508889 123.58588 
L 224.86569 126.13798 
L 227.408407 126.702228 
L 229.95113 126.962329 
L 232.493847 126.997191 
L 235.672253 126.816269 
L 238.214976 126.46938 
L 240.122015 126.029295 
L 242.029054 125.341394 
L 243.300416 124.710231 
L 245.207455 123.469552 
L 247.114494 121.870673 
L 249.021533 119.952227 
L 254.74265 113.852989 
L 256.014012 112.817701 
L 257.285373 112.03832 
L 258.556734 111.545113 
L 259.82809 111.343654 
L 261.099451 111.419569 
L 262.370813 111.760782 
L 263.642174 112.313305 
L 265.549213 113.438313 
L 272.541698 118.040439 
L 274.448737 118.890263 
L 276.355776 119.42985 
L 278.262815 119.609913 
L 279.534177 119.523408 
L 280.805538 119.254928 
L 282.076899 118.799581 
L 283.348261 118.14233 
L 284.619622 117.286544 
L 285.890984 116.212808 
L 287.162333 114.922301 
L 288.433701 113.405358 
L 290.340734 110.701626 
L 292.247779 107.475138 
L 294.154824 103.737612 
L 296.061857 99.507341 
L 298.60458 93.196428 
L 301.14729 86.239021 
L 304.961381 74.996508 
L 311.318182 55.8 
L 311.318182 55.8 
" clip-path="url(#pdfda50037c)" style="fill: none; stroke: #2ca02c; stroke-width: 1.5; stroke-linecap: square"/>
   </g>
   <g id="line2d_17">
    <path d="M 57.681818 137.641229 
L 60.224541 139.50818 
L 63.402942 142.131024 
L 71.666776 149.142576 
L 73.573821 150.436969 
L 75.480866 151.475042 
L 77.387899 152.20684 
L 79.294932 152.605224 
L 80.566299 152.674337 
L 81.837655 152.589474 
L 83.7447 152.173779 
L 85.651745 151.432878 
L 87.558784 150.387563 
L 89.465823 149.073995 
L 91.372862 147.506729 
L 93.279902 145.711608 
L 95.822624 143.023297 
L 103.450781 134.560875 
L 104.722142 133.516343 
L 105.993504 132.726185 
L 107.264859 132.236239 
L 108.536226 132.096787 
L 109.807588 132.330578 
L 111.078949 132.94627 
L 112.350305 133.935984 
L 113.621666 135.274795 
L 114.893027 136.938394 
L 116.800067 139.965792 
L 118.707106 143.524286 
L 120.614145 147.541727 
L 123.156868 153.550011 
L 125.699584 160.269305 
L 128.877991 169.497629 
L 133.327753 182.528829 
L 135.234792 187.31594 
L 136.50615 190.002083 
L 137.777512 192.202902 
L 139.04887 193.891998 
L 140.320232 195.06764 
L 141.59159 195.762844 
L 142.862951 196.029219 
L 144.13431 195.920975 
L 145.405671 195.488726 
L 146.67703 194.772507 
L 147.948391 193.795689 
L 149.219749 192.567601 
L 150.491111 191.095399 
L 152.39815 188.411141 
L 154.305195 185.183787 
L 156.847915 180.270766 
L 160.026315 174.087266 
L 161.297675 171.990218 
L 162.569035 170.303703 
L 163.840395 169.159108 
L 164.476068 168.81608 
L 165.111749 168.636006 
L 165.747428 168.626722 
L 166.383109 168.785373 
L 167.018788 169.114633 
L 167.654469 169.602408 
L 168.925829 171.02153 
L 170.197195 172.947811 
L 172.104235 176.472201 
L 175.91832 183.865367 
L 177.18968 185.915563 
L 178.46104 187.591299 
L 179.732393 188.828082 
L 181.003753 189.596022 
L 182.275114 189.903814 
L 183.546474 189.786422 
L 184.817839 189.331709 
L 186.724879 188.232788 
L 189.2676 186.604335 
L 190.538964 185.944911 
L 191.810325 185.470451 
L 193.717365 185.059216 
L 197.53145 184.720808 
L 202.616884 184.352418 
L 204.523924 184.642365 
L 205.79529 185.013111 
L 208.33801 186.088514 
L 210.88073 187.178739 
L 212.787769 187.727101 
L 214.694811 187.921826 
L 216.60185 187.749271 
L 218.508889 187.281514 
L 221.051609 186.356417 
L 226.137049 184.323794 
L 228.679768 183.597997 
L 230.586807 183.305513 
L 232.493847 183.246557 
L 234.400889 183.446756 
L 236.307931 183.872273 
L 238.850654 184.711648 
L 247.114494 187.699701 
L 252.835611 189.551661 
L 254.74265 190.49878 
L 256.649689 191.769622 
L 258.556734 193.416907 
L 260.463774 195.395807 
L 263.00649 198.405543 
L 268.091936 204.55251 
L 269.998975 206.555853 
L 271.906014 208.292187 
L 273.813059 209.737849 
L 275.720098 210.891752 
L 277.627138 211.770585 
L 279.534177 212.392589 
L 281.441222 212.790961 
L 283.348261 212.982539 
L 285.2553 212.984186 
L 287.162333 212.823191 
L 289.705056 212.366881 
L 292.247779 211.666859 
L 294.790502 210.758237 
L 297.96889 209.367919 
L 301.78298 207.427213 
L 311.318182 202.090401 
L 311.318182 202.090401 
" clip-path="url(#pdfda50037c)" style="fill: none; stroke: #d62728; stroke-width: 1.5; stroke-linecap: square"/>
   </g>
   <g id="line2d_18">
    <path d="M 57.681818 90.882758 
L 60.224541 92.060393 
L 62.767264 93.532866 
L 64.674309 94.861408 
L 67.21702 96.965136 
L 69.759743 99.468776 
L 72.302453 102.376133 
L 74.845188 105.659376 
L 78.023577 110.193102 
L 83.109022 117.962579 
L 87.558784 124.627253 
L 90.737185 128.997386 
L 93.279902 132.169736 
L 95.822624 135.015317 
L 98.365347 137.502789 
L 100.272386 139.106332 
L 102.179425 140.455685 
L 104.086458 141.508788 
L 105.993504 142.227807 
L 107.264859 142.509732 
L 108.536226 142.621854 
L 110.443266 142.473271 
L 112.350305 141.973743 
L 114.257344 141.154976 
L 116.164389 140.061287 
L 118.071428 138.738904 
L 120.614145 136.677975 
L 123.792545 133.7143 
L 130.78503 126.870288 
L 132.692069 125.489555 
L 133.963431 124.827354 
L 135.234792 124.417243 
L 136.50615 124.256502 
L 137.777512 124.334458 
L 139.684551 124.81544 
L 144.769991 126.526298 
L 146.041349 126.637984 
L 147.31271 126.497765 
L 148.584072 126.070589 
L 149.85543 125.325294 
L 151.126789 124.243674 
L 152.39815 122.828266 
L 153.669511 121.082941 
L 155.576557 117.895918 
L 157.483596 114.178535 
L 162.569035 103.824762 
L 163.840395 101.770966 
L 165.111749 100.163618 
L 166.383109 99.091057 
L 167.018788 98.778101 
L 167.654469 98.611887 
L 168.29015 98.598843 
L 168.925829 98.72484 
L 169.561514 98.995675 
L 170.832874 99.926207 
L 172.104235 101.272412 
L 173.375594 102.960286 
L 175.28264 105.844182 
L 181.003753 114.727758 
L 182.910794 117.279587 
L 184.182154 118.724886 
L 185.453519 119.843734 
L 186.724879 120.487761 
L 187.360559 120.606421 
L 187.996239 120.535949 
L 188.631919 120.294825 
L 189.2676 119.871996 
L 189.903285 119.245904 
L 191.174644 117.477233 
L 192.446005 115.115804 
L 195.62441 108.717209 
L 196.26009 107.763761 
L 196.895771 107.015929 
L 197.53145 106.534586 
L 198.167131 106.339657 
L 198.802811 106.439839 
L 199.438491 106.846273 
L 200.074164 107.540571 
L 200.709844 108.513041 
L 201.981204 111.141139 
L 203.888245 116.189362 
L 206.430969 123.181235 
L 207.702329 126.175096 
L 208.973691 128.645759 
L 210.245049 130.520681 
L 211.51641 131.83631 
L 212.787769 132.666716 
L 214.05913 133.122335 
L 215.966169 133.341019 
L 219.780251 133.484589 
L 221.051609 133.743739 
L 222.322967 134.172365 
L 223.594329 134.803257 
L 224.86569 135.633063 
L 226.772729 137.195936 
L 229.315449 139.760062 
L 235.036569 146.27985 
L 240.757693 152.981031 
L 242.664732 155.50718 
L 244.571771 158.343884 
L 246.47881 161.521986 
L 249.021533 166.238322 
L 254.106973 175.836814 
L 256.014012 178.765842 
L 257.285373 180.339228 
L 258.556734 181.589692 
L 259.82809 182.522313 
L 261.099451 183.166152 
L 262.370813 183.58617 
L 264.277852 183.959492 
L 266.820575 184.378516 
L 268.091936 184.720627 
L 269.363297 185.229032 
L 270.634659 185.939634 
L 271.906014 186.877865 
L 273.177376 188.062475 
L 274.448737 189.481778 
L 276.355776 192.035872 
L 278.262815 195.037738 
L 280.805538 199.564127 
L 289.069378 214.867093 
L 290.976411 217.71711 
L 292.247779 219.347052 
L 293.519146 220.716536 
L 294.790502 221.816057 
L 296.061857 222.624577 
L 297.333212 223.137805 
L 298.60458 223.349944 
L 299.875935 223.259726 
L 301.14729 222.878994 
L 302.418658 222.234561 
L 303.690025 221.324047 
L 304.961381 220.190887 
L 306.868426 218.094134 
L 308.775471 215.635421 
L 311.318182 211.933766 
L 311.318182 211.933766 
" clip-path="url(#pdfda50037c)" style="fill: none; stroke: #9467bd; stroke-width: 1.5; stroke-linecap: square"/>
   </g>
   <g id="line2d_19">
    <path d="M 57.681818 95.490579 
L 60.224541 97.108434 
L 63.402942 99.435986 
L 66.581342 102.047508 
L 76.752221 110.700443 
L 79.294932 112.521277 
L 81.837655 114.11831 
L 85.016061 115.843685 
L 90.101501 118.261624 
L 95.822624 121.014315 
L 99.636709 122.803005 
L 101.543748 123.509849 
L 103.450781 123.968525 
L 104.722142 124.08727 
L 105.993504 124.029369 
L 107.264859 123.787047 
L 108.536226 123.347775 
L 109.807588 122.727591 
L 111.714627 121.494799 
L 113.621666 119.983704 
L 116.800067 117.126642 
L 124.428223 110.18572 
L 126.970946 108.116254 
L 128.877991 106.803134 
L 130.149352 106.122366 
L 131.420714 105.672793 
L 132.692069 105.508724 
L 133.963431 105.700228 
L 135.234792 106.297384 
L 136.50615 107.334512 
L 137.777512 108.825747 
L 139.04887 110.753523 
L 140.320232 113.075912 
L 142.227271 117.176053 
L 144.769991 123.436603 
L 148.584072 133.64401 
L 155.576557 152.516172 
L 157.483596 157.150522 
L 159.390635 161.148894 
L 160.661995 163.299341 
L 161.933355 164.908422 
L 162.569035 165.490038 
L 163.204716 165.89885 
L 163.840395 166.141877 
L 164.476068 166.201932 
L 165.111749 166.078923 
L 165.747428 165.778876 
L 166.383109 165.302559 
L 167.654469 163.85418 
L 168.925829 161.813133 
L 170.197195 159.309131 
L 172.739914 153.555921 
L 175.28264 147.806425 
L 177.18968 144.087378 
L 178.46104 142.009466 
L 179.732393 140.267968 
L 181.003753 138.869227 
L 182.275114 137.771212 
L 183.546474 136.950917 
L 184.817839 136.34584 
L 186.089199 135.944569 
L 187.360559 135.706162 
L 189.2676 135.631161 
L 191.174644 135.883156 
L 193.081685 136.440225 
L 194.98873 137.248745 
L 199.438491 139.26769 
L 201.345524 139.851933 
L 205.159609 140.816341 
L 206.430969 141.40962 
L 207.702329 142.329191 
L 208.973691 143.642068 
L 210.245049 145.369345 
L 211.51641 147.492893 
L 213.42345 151.209234 
L 217.873208 160.221546 
L 219.780251 163.385155 
L 221.051609 165.141598 
L 222.322967 166.601028 
L 223.594329 167.798953 
L 224.86569 168.752855 
L 226.137049 169.527498 
L 228.044088 170.407825 
L 229.95113 171.077214 
L 233.129527 171.927208 
L 235.672253 172.381344 
L 237.579292 172.502773 
L 238.850654 172.420464 
L 240.122015 172.171368 
L 241.39337 171.718115 
L 242.664732 171.029025 
L 243.936093 170.098539 
L 245.207455 168.915514 
L 247.114494 166.710653 
L 249.657211 163.187079 
L 252.199933 159.606665 
L 253.471295 158.051944 
L 254.74265 156.798935 
L 256.014012 155.947525 
L 256.649689 155.693402 
L 257.921051 155.571045 
L 258.556734 155.703476 
L 259.192412 155.961537 
L 260.463774 156.848131 
L 261.735129 158.171063 
L 263.00649 159.865085 
L 264.913529 162.872618 
L 270.634659 172.319976 
L 272.541698 174.849251 
L 274.448737 176.87209 
L 275.720098 177.932061 
L 276.991454 178.765491 
L 278.262815 179.371643 
L 279.534177 179.772461 
L 280.805538 179.9596 
L 282.076899 179.963495 
L 283.348261 179.795378 
L 285.2553 179.230898 
L 287.162333 178.322644 
L 289.069378 177.105796 
L 290.976411 175.607051 
L 293.519146 173.208739 
L 296.061857 170.406829 
L 299.240257 166.426095 
L 303.054336 161.149723 
L 311.318182 149.115402 
L 311.318182 149.115402 
" clip-path="url(#pdfda50037c)" style="fill: none; stroke: #8c564b; stroke-width: 1.5; stroke-linecap: square"/>
   </g>
   <g id="line2d_20">
    <path d="M 57.681818 234.738813 
L 61.495896 233.327752 
L 64.674309 231.898123 
L 67.852697 230.199017 
L 70.39542 228.623101 
L 73.573821 226.37929 
L 76.752221 223.851351 
L 80.566299 220.507681 
L 86.287423 215.156928 
L 93.915579 208.081894 
L 98.365347 204.2366 
L 101.543748 201.758685 
L 104.086458 200.042873 
L 106.629181 198.641278 
L 109.171904 197.581896 
L 111.714627 196.777922 
L 116.800067 195.247646 
L 118.707106 194.408691 
L 120.614145 193.306532 
L 122.521184 191.897487 
L 124.428223 190.17902 
L 126.970946 187.54003 
L 130.149352 184.199779 
L 131.420714 183.082629 
L 132.692069 182.223072 
L 133.963431 181.695595 
L 135.234792 181.559956 
L 136.50615 181.843513 
L 137.777512 182.538886 
L 139.04887 183.597091 
L 140.320232 184.941213 
L 142.862951 188.051356 
L 144.769991 190.321571 
L 146.041349 191.628917 
L 147.31271 192.691605 
L 148.584072 193.476393 
L 149.85543 193.965708 
L 151.126789 194.159459 
L 152.39815 194.081017 
L 153.669511 193.763465 
L 154.940876 193.244349 
L 156.847915 192.211518 
L 161.297675 189.604922 
L 162.569035 189.085081 
L 163.840395 188.766578 
L 165.111749 188.684603 
L 166.383109 188.857974 
L 167.654469 189.300006 
L 168.925829 189.989956 
L 170.832874 191.409622 
L 173.375594 193.739891 
L 176.554 196.638281 
L 178.46104 198.064196 
L 180.368073 199.12616 
L 182.275114 199.874897 
L 186.089199 201.156971 
L 187.360559 201.806251 
L 188.631919 202.677634 
L 189.903285 203.782714 
L 194.353045 208.116982 
L 194.98873 208.506478 
L 195.62441 208.757748 
L 196.26009 208.847784 
L 196.895771 208.764813 
L 197.53145 208.479122 
L 198.167131 207.994337 
L 198.802811 207.308281 
L 200.074164 205.359174 
L 201.345524 202.732797 
L 203.252564 197.92905 
L 207.702329 186.151728 
L 208.973691 183.307025 
L 210.245049 180.834091 
L 211.51641 178.742087 
L 212.787769 177.019148 
L 214.05913 175.626928 
L 215.330489 174.5288 
L 216.60185 173.681693 
L 217.873208 173.046362 
L 219.14457 172.591468 
L 221.051609 172.198259 
L 222.958648 172.099979 
L 224.86569 172.238839 
L 227.408407 172.758702 
L 229.95113 173.566135 
L 232.493847 174.669052 
L 234.400889 175.711592 
L 236.307931 177.031618 
L 237.579292 178.110431 
L 238.850654 179.396847 
L 240.122015 180.931731 
L 241.39337 182.75329 
L 242.664732 184.887136 
L 243.936093 187.362017 
L 245.843132 191.711277 
L 247.750171 196.741338 
L 254.106973 214.668261 
L 255.378334 217.494435 
L 256.649689 219.782947 
L 257.921051 221.441796 
L 258.556734 222.02894 
L 259.192412 222.462727 
L 259.82809 222.737814 
L 260.463774 222.867434 
L 261.099451 222.867171 
L 261.735129 222.742892 
L 263.00649 222.155252 
L 264.277852 221.252885 
L 266.820575 219.022435 
L 268.72762 217.405836 
L 269.998975 216.543693 
L 271.270337 215.92041 
L 272.541698 215.566693 
L 273.813059 215.499211 
L 275.084415 215.737619 
L 276.355776 216.256825 
L 277.627138 217.040096 
L 278.898499 218.069711 
L 280.805538 219.995992 
L 282.712583 222.272095 
L 285.890984 226.515475 
L 290.340734 232.430096 
L 292.247779 234.657505 
L 294.154824 236.574004 
L 296.061857 238.126268 
L 297.333212 238.940223 
L 298.60458 239.570843 
L 299.875935 240.007802 
L 301.14729 240.268379 
L 302.418658 240.35742 
L 304.325703 240.182056 
L 306.232736 239.676346 
L 308.139781 238.903787 
L 310.046826 237.905501 
L 311.318182 237.156311 
L 311.318182 237.156311 
" clip-path="url(#pdfda50037c)" style="fill: none; stroke: #e377c2; stroke-width: 1.5; stroke-linecap: square"/>
   </g>
   <g id="line2d_21">
    <path d="M 57.681818 256.987153 
L 60.860219 256.978095 
L 63.402942 256.744579 
L 65.309987 256.39349 
L 67.21702 255.844392 
L 69.124053 255.065491 
L 71.031098 254.029524 
L 72.938143 252.70062 
L 74.845188 251.082697 
L 76.752221 249.158137 
L 78.659254 246.965459 
L 81.201977 243.65485 
L 84.380384 239.072371 
L 89.465823 231.258433 
L 95.822624 221.560065 
L 100.90807 214.194866 
L 104.086458 209.917487 
L 106.629181 206.815643 
L 109.171904 204.115172 
L 111.078949 202.427156 
L 112.985988 201.053868 
L 114.893027 200.033028 
L 116.164389 199.559428 
L 117.435744 199.257456 
L 118.707106 199.129738 
L 119.978467 199.180372 
L 121.249829 199.41185 
L 122.521184 199.81217 
L 124.428223 200.714645 
L 126.335268 201.903058 
L 131.420714 205.269827 
L 132.692069 205.782846 
L 133.963431 206.023277 
L 135.234792 205.929292 
L 136.50615 205.474562 
L 137.777512 204.657697 
L 139.04887 203.514347 
L 140.955909 201.331361 
L 146.67703 194.149767 
L 147.948391 192.913889 
L 149.219749 191.907723 
L 150.491111 191.145671 
L 151.762469 190.638421 
L 153.033831 190.374107 
L 154.305195 190.337807 
L 155.576557 190.506242 
L 156.847915 190.85236 
L 158.754957 191.620588 
L 163.840395 193.924222 
L 165.111749 194.258917 
L 166.383109 194.394244 
L 167.654469 194.294605 
L 168.925829 193.964621 
L 170.197195 193.399943 
L 171.468555 192.641605 
L 174.011274 190.770306 
L 176.554 188.948011 
L 177.82536 188.267028 
L 179.09672 187.816119 
L 180.368073 187.665937 
L 181.639433 187.806155 
L 182.910794 188.254709 
L 184.182154 188.950004 
L 186.089199 190.316317 
L 188.631919 192.253649 
L 190.538964 193.419599 
L 191.810325 193.98319 
L 193.717365 194.483194 
L 195.62441 194.71055 
L 203.888245 195.03365 
L 208.973691 195.157253 
L 210.88073 195.459593 
L 212.787769 196.053245 
L 214.694811 196.93389 
L 217.873208 198.785669 
L 220.415928 200.178975 
L 222.322967 200.927803 
L 223.594329 201.225359 
L 224.86569 201.348639 
L 226.137049 201.260957 
L 227.408407 200.978097 
L 228.679768 200.486699 
L 229.95113 199.79231 
L 231.858169 198.388961 
L 233.765208 196.578266 
L 235.672253 194.428497 
L 238.214976 191.189364 
L 245.843132 181.100244 
L 249.021533 177.374494 
L 258.556734 166.576173 
L 269.998975 152.850776 
L 273.177376 149.510808 
L 275.720098 147.070664 
L 278.262815 144.906168 
L 280.169854 143.515669 
L 282.076899 142.372093 
L 283.983945 141.544024 
L 285.2553 141.188406 
L 286.526655 141.027184 
L 287.798011 141.072019 
L 289.069378 141.332341 
L 290.340734 141.838501 
L 291.612101 142.590754 
L 292.883456 143.600543 
L 294.154824 144.874555 
L 295.426179 146.417127 
L 296.697535 148.217049 
L 298.60458 151.388628 
L 300.511613 155.082313 
L 303.054336 160.699086 
L 306.232736 168.543614 
L 311.318182 181.940354 
L 311.318182 181.940354 
" clip-path="url(#pdfda50037c)" style="fill: none; stroke: #7f7f7f; stroke-width: 1.5; stroke-linecap: square"/>
   </g>
   <g id="line2d_22">
    <path d="M 57.681818 134.1403 
L 60.860219 132.071898 
L 68.488375 126.93862 
L 70.39542 125.943504 
L 72.302453 125.221398 
L 73.573821 124.938606 
L 74.845188 124.839987 
L 76.116544 124.943248 
L 77.387899 125.278215 
L 78.659254 125.858653 
L 79.930622 126.703032 
L 81.201977 127.816989 
L 82.473333 129.208048 
L 83.7447 130.89094 
L 85.016061 132.85627 
L 86.923101 136.370597 
L 88.83014 140.557837 
L 90.737185 145.425488 
L 92.644224 150.978605 
L 94.551263 157.186947 
L 97.09398 166.342908 
L 103.450781 190.042346 
L 104.722142 193.961615 
L 105.993504 197.281115 
L 107.264859 199.884048 
L 108.536226 201.708365 
L 109.171904 202.317265 
L 109.807588 202.724741 
L 110.443266 202.935753 
L 111.078949 202.964864 
L 111.714627 202.824045 
L 112.350305 202.523409 
L 113.621666 201.526041 
L 114.893027 200.128363 
L 119.978467 193.787672 
L 121.249829 192.686261 
L 122.521184 191.955912 
L 123.792545 191.626381 
L 125.063907 191.699547 
L 126.335268 192.142122 
L 127.606623 192.892603 
L 129.513669 194.388299 
L 131.420714 195.942884 
L 132.692069 196.767952 
L 133.963431 197.254535 
L 134.599111 197.325817 
L 135.234792 197.274228 
L 135.87047 197.074029 
L 136.50615 196.730276 
L 137.141831 196.235527 
L 138.413193 194.793091 
L 139.684551 192.789862 
L 140.955909 190.301394 
L 142.862951 185.912302 
L 151.126789 165.659718 
L 153.669511 160.348834 
L 156.212234 155.541284 
L 158.119276 152.302091 
L 160.026315 149.470137 
L 161.297675 147.855996 
L 162.569035 146.521838 
L 163.840395 145.48775 
L 165.111749 144.782582 
L 166.383109 144.411112 
L 167.654469 144.366728 
L 168.925829 144.614646 
L 170.197195 145.105229 
L 172.104235 146.162211 
L 178.46104 150.081984 
L 180.368073 150.913874 
L 182.275114 151.544857 
L 184.817839 152.130368 
L 187.360559 152.488885 
L 194.353045 153.332188 
L 196.26009 153.945235 
L 201.345524 155.913637 
L 202.616884 156.097696 
L 203.888245 155.997605 
L 205.159609 155.582747 
L 206.430969 154.817547 
L 207.702329 153.696343 
L 208.973691 152.247426 
L 210.245049 150.540802 
L 212.787769 146.61269 
L 215.966169 141.728757 
L 217.873208 139.273034 
L 219.14457 137.926829 
L 220.415928 136.830264 
L 221.68729 135.980077 
L 222.958648 135.360145 
L 224.230009 134.942841 
L 226.137049 134.63052 
L 228.044088 134.579003 
L 232.493847 134.599372 
L 234.400889 134.304097 
L 235.672253 133.894456 
L 236.943615 133.265005 
L 238.214976 132.397183 
L 239.486331 131.247854 
L 240.757693 129.81262 
L 242.029054 128.077147 
L 243.300416 126.022513 
L 245.207455 122.412706 
L 247.114494 118.252215 
L 252.835611 104.982243 
L 254.106973 102.56967 
L 255.378334 100.604937 
L 256.649689 99.168333 
L 257.285373 98.671154 
L 257.921051 98.322692 
L 258.556734 98.123599 
L 259.192412 98.068252 
L 259.82809 98.16038 
L 260.463774 98.381487 
L 261.735129 99.189002 
L 263.00649 100.394796 
L 264.913529 102.713919 
L 269.363297 108.525836 
L 270.634659 109.902204 
L 271.906014 111.041523 
L 273.177376 111.932652 
L 274.448737 112.553037 
L 275.720098 112.901047 
L 276.991454 112.983565 
L 278.262815 112.808009 
L 279.534177 112.392699 
L 280.805538 111.75918 
L 282.076899 110.925207 
L 283.983945 109.340793 
L 285.890984 107.429913 
L 288.433701 104.476629 
L 291.612101 100.364808 
L 301.78298 86.741606 
L 304.961381 82.991581 
L 307.504104 80.279334 
L 310.046826 77.847796 
L 311.318182 76.733567 
L 311.318182 76.733567 
" clip-path="url(#pdfda50037c)" style="fill: none; stroke: #bcbd22; stroke-width: 1.5; stroke-linecap: square"/>
   </g>
   <g id="line2d_23">
    <path d="M 57.681818 197.895264 
L 60.860219 197.304227 
L 63.402942 196.633208 
L 65.945664 195.750503 
L 68.488375 194.649227 
L 71.031098 193.312171 
L 73.573821 191.753374 
L 76.752221 189.51167 
L 80.566299 186.485143 
L 91.372862 177.642238 
L 93.915579 175.911044 
L 96.458302 174.466594 
L 98.365347 173.631658 
L 100.272386 173.057877 
L 102.179425 172.793768 
L 104.086458 172.878172 
L 105.993504 173.319618 
L 107.900543 174.093825 
L 109.807588 175.124858 
L 116.164389 178.987277 
L 118.071428 179.771567 
L 119.342783 180.10368 
L 120.614145 180.25753 
L 121.885506 180.219464 
L 123.156868 179.984068 
L 124.428223 179.551909 
L 125.699584 178.922286 
L 127.606623 177.6622 
L 129.513669 176.102848 
L 133.963431 172.336736 
L 135.234792 171.530336 
L 136.50615 170.960626 
L 137.777512 170.659503 
L 139.04887 170.648407 
L 140.320232 170.911452 
L 141.59159 171.42006 
L 143.498632 172.51212 
L 146.67703 174.751537 
L 149.85543 176.88724 
L 152.39815 178.287884 
L 154.940876 179.390314 
L 156.847915 180.017481 
L 158.754957 180.454581 
L 160.661995 180.676498 
L 162.569035 180.652279 
L 164.476068 180.367789 
L 166.383109 179.858818 
L 177.82536 176.0568 
L 179.09672 175.218207 
L 180.368073 174.004612 
L 181.639433 172.34047 
L 182.910794 170.12415 
L 184.182154 167.337537 
L 185.453519 164.001645 
L 187.360559 158.084938 
L 189.903285 149.170022 
L 192.446005 140.317063 
L 193.717365 136.384971 
L 194.98873 133.072991 
L 196.26009 130.615366 
L 196.895771 129.757027 
L 197.53145 129.186914 
L 198.167131 128.907746 
L 198.802811 128.936369 
L 199.438491 129.27215 
L 200.074164 129.911195 
L 200.709844 130.833846 
L 201.981204 133.492741 
L 203.252564 137.006986 
L 205.159609 143.262916 
L 207.702329 151.821104 
L 208.973691 155.617864 
L 210.245049 158.881382 
L 211.51641 161.540317 
L 212.787769 163.599898 
L 214.05913 165.137952 
L 215.330489 166.260175 
L 217.237528 167.477846 
L 220.415928 169.24534 
L 222.322967 170.650875 
L 224.230009 172.483858 
L 226.137049 174.753077 
L 228.679768 178.281611 
L 235.036569 187.622523 
L 237.579292 190.850894 
L 240.122015 193.692574 
L 251.56425 205.634606 
L 253.471295 207.272389 
L 254.74265 208.080761 
L 256.014012 208.58081 
L 257.285373 208.731632 
L 258.556734 208.508354 
L 259.82809 207.898392 
L 261.099451 206.931713 
L 262.370813 205.64701 
L 264.277852 203.247667 
L 266.820575 199.523547 
L 271.906014 191.987502 
L 274.448737 188.72815 
L 276.355776 186.587465 
L 278.262815 184.716109 
L 280.169854 183.091007 
L 282.076899 181.701052 
L 283.983945 180.533251 
L 285.890984 179.564407 
L 288.433701 178.583071 
L 290.340734 178.06231 
L 292.247779 177.728109 
L 294.790502 177.56666 
L 296.697535 177.649088 
L 299.240257 178.021283 
L 301.78298 178.657089 
L 304.325703 179.516334 
L 308.139781 181.127577 
L 311.318182 182.65458 
L 311.318182 182.65458 
" clip-path="url(#pdfda50037c)" style="fill: none; stroke: #17becf; stroke-width: 1.5; stroke-linecap: square"/>
   </g>
   <g id="patch_3">
    <path d="M 45 320.4 
L 45 43.2 
" style="fill: none; stroke: #000000; stroke-width: 0.8; stroke-linejoin: miter; stroke-linecap: square"/>
   </g>
   <g id="patch_4">
    <path d="M 324 320.4 
L 324 43.2 
" style="fill: none; stroke: #000000; stroke-width: 0.8; stroke-linejoin: miter; stroke-linecap: square"/>
   </g>
   <g id="patch_5">
    <path d="M 45 320.4 
L 324 320.4 
" style="fill: none; stroke: #000000; stroke-width: 0.8; stroke-linejoin: miter; stroke-linecap: square"/>
   </g>
   <g id="patch_6">
    <path d="M 45 43.2 
L 324 43.2 
" style="fill: none; stroke: #000000; stroke-width: 0.8; stroke-linejoin: miter; stroke-linecap: square"/>
   </g>
   <g id="text_14">
    <!-- Single Draw Deviation -->
    <g transform="translate(117.87 37.2)scale(0.12 -0.12)">
     <defs>
      <path id="DejaVuSans-53" d="M 3425 4513 
L 3425 3897 
Q 3066 4069 2747 4153 
Q 2428 4238 2131 4238 
Q 1616 4238 1336 4038 
Q 1056 3838 1056 3469 
Q 1056 3159 1242 3001 
Q 1428 2844 1947 2747 
L 2328 2669 
Q 3034 2534 3370 2195 
Q 3706 1856 3706 1288 
Q 3706 609 3251 259 
Q 2797 -91 1919 -91 
Q 1588 -91 1214 -16 
Q 841 59 441 206 
L 441 856 
Q 825 641 1194 531 
Q 1563 422 1919 422 
Q 2459 422 2753 634 
Q 3047 847 3047 1241 
Q 3047 1584 2836 1778 
Q 2625 1972 2144 2069 
L 1759 2144 
Q 1053 2284 737 2584 
Q 422 2884 422 3419 
Q 422 4038 858 4394 
Q 1294 4750 2059 4750 
Q 2388 4750 2728 4690 
Q 3069 4631 3425 4513 
z
" transform="scale(0.015625)"/>
      <path id="DejaVuSans-69" d="M 603 3500 
L 1178 3500 
L 1178 0 
L 603 0 
L 603 3500 
z
M 603 4863 
L 1178 4863 
L 1178 4134 
L 603 4134 
L 603 4863 
z
" transform="scale(0.015625)"/>
      <path id="DejaVuSans-6e" d="M 3513 2113 
L 3513 0 
L 2938 0 
L 2938 2094 
Q 2938 2591 2744 2837 
Q 2550 3084 2163 3084 
Q 1697 3084 1428 2787 
Q 1159 2491 1159 1978 
L 1159 0 
L 581 0 
L 581 3500 
L 1159 3500 
L 1159 2956 
Q 1366 3272 1645 3428 
Q 1925 3584 2291 3584 
Q 2894 3584 3203 3211 
Q 3513 2838 3513 2113 
z
" transform="scale(0.015625)"/>
      <path id="DejaVuSans-67" d="M 2906 1791 
Q 2906 2416 2648 2759 
Q 2391 3103 1925 3103 
Q 1463 3103 1205 2759 
Q 947 2416 947 1791 
Q 947 1169 1205 825 
Q 1463 481 1925 481 
Q 2391 481 2648 825 
Q 2906 1169 2906 1791 
z
M 3481 434 
Q 3481 -459 3084 -895 
Q 2688 -1331 1869 -1331 
Q 1566 -1331 1297 -1286 
Q 1028 -1241 775 -1147 
L 775 -588 
Q 1028 -725 1275 -790 
Q 1522 -856 1778 -856 
Q 2344 -856 2625 -561 
Q 2906 -266 2906 331 
L 2906 616 
Q 2728 306 2450 153 
Q 2172 0 1784 0 
Q 1141 0 747 490 
Q 353 981 353 1791 
Q 353 2603 747 3093 
Q 1141 3584 1784 3584 
Q 2172 3584 2450 3431 
Q 2728 3278 2906 2969 
L 2906 3500 
L 3481 3500 
L 3481 434 
z
" transform="scale(0.015625)"/>
      <path id="DejaVuSans-6c" d="M 603 4863 
L 1178 4863 
L 1178 0 
L 603 0 
L 603 4863 
z
" transform="scale(0.015625)"/>
      <path id="DejaVuSans-65" d="M 3597 1894 
L 3597 1613 
L 953 1613 
Q 991 1019 1311 708 
Q 1631 397 2203 397 
Q 2534 397 2845 478 
Q 3156 559 3463 722 
L 3463 178 
Q 3153 47 2828 -22 
Q 2503 -91 2169 -91 
Q 1331 -91 842 396 
Q 353 884 353 1716 
Q 353 2575 817 3079 
Q 1281 3584 2069 3584 
Q 2775 3584 3186 3129 
Q 3597 2675 3597 1894 
z
M 3022 2063 
Q 3016 2534 2758 2815 
Q 2500 3097 2075 3097 
Q 1594 3097 1305 2825 
Q 1016 2553 972 2059 
L 3022 2063 
z
" transform="scale(0.015625)"/>
      <path id="DejaVuSans-20" transform="scale(0.015625)"/>
      <path id="DejaVuSans-44" d="M 1259 4147 
L 1259 519 
L 2022 519 
Q 2988 519 3436 956 
Q 3884 1394 3884 2338 
Q 3884 3275 3436 3711 
Q 2988 4147 2022 4147 
L 1259 4147 
z
M 628 4666 
L 1925 4666 
Q 3281 4666 3915 4102 
Q 4550 3538 4550 2338 
Q 4550 1131 3912 565 
Q 3275 0 1925 0 
L 628 0 
L 628 4666 
z
" transform="scale(0.015625)"/>
      <path id="DejaVuSans-72" d="M 2631 2963 
Q 2534 3019 2420 3045 
Q 2306 3072 2169 3072 
Q 1681 3072 1420 2755 
Q 1159 2438 1159 1844 
L 1159 0 
L 581 0 
L 581 3500 
L 1159 3500 
L 1159 2956 
Q 1341 3275 1631 3429 
Q 1922 3584 2338 3584 
Q 2397 3584 2469 3576 
Q 2541 3569 2628 3553 
L 2631 2963 
z
" transform="scale(0.015625)"/>
      <path id="DejaVuSans-61" d="M 2194 1759 
Q 1497 1759 1228 1600 
Q 959 1441 959 1056 
Q 959 750 1161 570 
Q 1363 391 1709 391 
Q 2188 391 2477 730 
Q 2766 1069 2766 1631 
L 2766 1759 
L 2194 1759 
z
M 3341 1997 
L 3341 0 
L 2766 0 
L 2766 531 
Q 2569 213 2275 61 
Q 1981 -91 1556 -91 
Q 1019 -91 701 211 
Q 384 513 384 1019 
Q 384 1609 779 1909 
Q 1175 2209 1959 2209 
L 2766 2209 
L 2766 2266 
Q 2766 2663 2505 2880 
Q 2244 3097 1772 3097 
Q 1472 3097 1187 3025 
Q 903 2953 641 2809 
L 641 3341 
Q 956 3463 1253 3523 
Q 1550 3584 1831 3584 
Q 2591 3584 2966 3190 
Q 3341 2797 3341 1997 
z
" transform="scale(0.015625)"/>
      <path id="DejaVuSans-77" d="M 269 3500 
L 844 3500 
L 1563 769 
L 2278 3500 
L 2956 3500 
L 3675 769 
L 4391 3500 
L 4966 3500 
L 4050 0 
L 3372 0 
L 2619 2869 
L 1863 0 
L 1184 0 
L 269 3500 
z
" transform="scale(0.015625)"/>
      <path id="DejaVuSans-76" d="M 191 3500 
L 800 3500 
L 1894 563 
L 2988 3500 
L 3597 3500 
L 2284 0 
L 1503 0 
L 191 3500 
z
" transform="scale(0.015625)"/>
      <path id="DejaVuSans-74" d="M 1172 4494 
L 1172 3500 
L 2356 3500 
L 2356 3053 
L 1172 3053 
L 1172 1153 
Q 1172 725 1289 603 
Q 1406 481 1766 481 
L 2356 481 
L 2356 0 
L 1766 0 
Q 1100 0 847 248 
Q 594 497 594 1153 
L 594 3053 
L 172 3053 
L 172 3500 
L 594 3500 
L 594 4494 
L 1172 4494 
z
" transform="scale(0.015625)"/>
      <path id="DejaVuSans-6f" d="M 1959 3097 
Q 1497 3097 1228 2736 
Q 959 2375 959 1747 
Q 959 1119 1226 758 
Q 1494 397 1959 397 
Q 2419 397 2687 759 
Q 2956 1122 2956 1747 
Q 2956 2369 2687 2733 
Q 2419 3097 1959 3097 
z
M 1959 3584 
Q 2709 3584 3137 3096 
Q 3566 2609 3566 1747 
Q 3566 888 3137 398 
Q 2709 -91 1959 -91 
Q 1206 -91 779 398 
Q 353 888 353 1747 
Q 353 2609 779 3096 
Q 1206 3584 1959 3584 
z
" transform="scale(0.015625)"/>
     </defs>
     <use xlink:href="#DejaVuSans-53"/>
     <use xlink:href="#DejaVuSans-69" x="63.476562"/>
     <use xlink:href="#DejaVuSans-6e" x="91.259766"/>
     <use xlink:href="#DejaVuSans-67" x="154.638672"/>
     <use xlink:href="#DejaVuSans-6c" x="218.115234"/>
     <use xlink:href="#DejaVuSans-65" x="245.898438"/>
     <use xlink:href="#DejaVuSans-20" x="307.421875"/>
     <use xlink:href="#DejaVuSans-44" x="339.208984"/>
     <use xlink:href="#DejaVuSans-72" x="416.210938"/>
     <use xlink:href="#DejaVuSans-61" x="457.324219"/>
     <use xlink:href="#DejaVuSans-77" x="518.603516"/>
     <use xlink:href="#DejaVuSans-20" x="600.390625"/>
     <use xlink:href="#DejaVuSans-44" x="632.177734"/>
     <use xlink:href="#DejaVuSans-65" x="709.179688"/>
     <use xlink:href="#DejaVuSans-76" x="770.703125"/>
     <use xlink:href="#DejaVuSans-69" x="829.882812"/>
     <use xlink:href="#DejaVuSans-61" x="857.666016"/>
     <use xlink:href="#DejaVuSans-74" x="918.945312"/>
     <use xlink:href="#DejaVuSans-69" x="958.154297"/>
     <use xlink:href="#DejaVuSans-6f" x="985.9375"/>
     <use xlink:href="#DejaVuSans-6e" x="1047.119141"/>
    </g>
   </g>
  </g>
 </g>
 <defs>
  <clipPath id="pdfda50037c">
   <rect x="45" y="43.2" width="279" height="277.2"/>
  </clipPath>
 </defs>
</svg>
