<?xml version="1.0" encoding="utf-8" standalone="no"?>
<!DOCTYPE svg PUBLIC "-//W3C//DTD SVG 1.1//EN"
  "http://www.w3.org/Graphics/SVG/1.1/DTD/svg11.dtd">
<svg xmlns:xlink="http://www.w3.org/1999/xlink" width="360pt" height="360pt" viewBox="0 0 360 360" xmlns="http://www.w3.org/2000/svg" version="1.1">
 <metadata>
  <rdf:RDF xmlns:dc="http://purl.org/dc/elements/1.1/" xmlns:cc="http://creativecommons.org/ns#" xmlns:rdf="http://www.w3.org/1999/02/22-rdf-syntax-ns#">
   <cc:Work>
    <dc:type rdf:resource="http://purl.org/dc/dcmitype/StillImage"/>
    <dc:date>2022-11-15T20:49:45.727681</dc:date>
    <dc:format>image/svg+xml</dc:format>
    <dc:creator>
     <cc:Agent>
      <dc:title>Matplotlib v3.5.3, https://matplotlib.org/</dc:title>
     </cc:Agent>
    </dc:creator>
   </cc:Work>
  </rdf:RDF>
 </metadata>
 <defs>
  <style type="text/css">*{stroke-linejoin: round; stroke-linecap: butt}</style>
 </defs>
 <g id="figure_1">
  <g id="patch_1">
   <path d="M 0 360 
L 360 360 
L 360 0 
L 0 0 
z
" style="fill: #ffffff"/>
  </g>
  <g id="axes_1">
   <g id="patch_2">
    <path d="M 45 320.4 
L 324 320.4 
L 324 43.2 
L 45 43.2 
z
" style="fill: #ffffff"/>
   </g>
   <g id="matplotlib.axis_1">
    <g id="xtick_1">
     <g id="line2d_1">
      <defs>
       <path id="m2957b12e80" d="M 0 0 
L 0 3.5 
" style="stroke: #000000; stroke-width: 0.8"/>
      </defs>
      <g>
       <use xlink:href="#m2957b12e80" x="83.045455" y="320.4" style="stroke: #000000; stroke-width: 0.8"/>
      </g>
     </g>
     <g id="text_1">
      <!-- −2 -->
      <g transform="translate(75.674361 334.998438)scale(0.1 -0.1)">
       <defs>
        <path id="DejaVuSans-2212" d="M 678 2272 
L 4684 2272 
L 4684 1741 
L 678 1741 
L 678 2272 
z
" transform="scale(0.015625)"/>
        <path id="DejaVuSans-32" d="M 1228 531 
L 3431 531 
L 3431 0 
L 469 0 
L 469 531 
Q 828 903 1448 1529 
Q 2069 2156 2228 2338 
Q 2531 2678 2651 2914 
Q 2772 3150 2772 3378 
Q 2772 3750 2511 3984 
Q 2250 4219 1831 4219 
Q 1534 4219 1204 4116 
Q 875 4013 500 3803 
L 500 4441 
Q 881 4594 1212 4672 
Q 1544 4750 1819 4750 
Q 2544 4750 2975 4387 
Q 3406 4025 3406 3419 
Q 3406 3131 3298 2873 
Q 3191 2616 2906 2266 
Q 2828 2175 2409 1742 
Q 1991 1309 1228 531 
z
" transform="scale(0.015625)"/>
       </defs>
       <use xlink:href="#DejaVuSans-2212"/>
       <use xlink:href="#DejaVuSans-32" x="83.789062"/>
      </g>
     </g>
    </g>
    <g id="xtick_2">
     <g id="line2d_2">
      <g>
       <use xlink:href="#m2957b12e80" x="133.772727" y="320.4" style="stroke: #000000; stroke-width: 0.8"/>
      </g>
     </g>
     <g id="text_2">
      <!-- −1 -->
      <g transform="translate(126.401634 334.998438)scale(0.1 -0.1)">
       <defs>
        <path id="DejaVuSans-31" d="M 794 531 
L 1825 531 
L 1825 4091 
L 703 3866 
L 703 4441 
L 1819 4666 
L 2450 4666 
L 2450 531 
L 3481 531 
L 3481 0 
L 794 0 
L 794 531 
z
" transform="scale(0.015625)"/>
       </defs>
       <use xlink:href="#DejaVuSans-2212"/>
       <use xlink:href="#DejaVuSans-31" x="83.789062"/>
      </g>
     </g>
    </g>
    <g id="xtick_3">
     <g id="line2d_3">
      <g>
       <use xlink:href="#m2957b12e80" x="184.5" y="320.4" style="stroke: #000000; stroke-width: 0.8"/>
      </g>
     </g>
     <g id="text_3">
      <!-- 0 -->
      <g transform="translate(181.31875 334.998438)scale(0.1 -0.1)">
       <defs>
        <path id="DejaVuSans-30" d="M 2034 4250 
Q 1547 4250 1301 3770 
Q 1056 3291 1056 2328 
Q 1056 1369 1301 889 
Q 1547 409 2034 409 
Q 2525 409 2770 889 
Q 3016 1369 3016 2328 
Q 3016 3291 2770 3770 
Q 2525 4250 2034 4250 
z
M 2034 4750 
Q 2819 4750 3233 4129 
Q 3647 3509 3647 2328 
Q 3647 1150 3233 529 
Q 2819 -91 2034 -91 
Q 1250 -91 836 529 
Q 422 1150 422 2328 
Q 422 3509 836 4129 
Q 1250 4750 2034 4750 
z
" transform="scale(0.015625)"/>
       </defs>
       <use xlink:href="#DejaVuSans-30"/>
      </g>
     </g>
    </g>
    <g id="xtick_4">
     <g id="line2d_4">
      <g>
       <use xlink:href="#m2957b12e80" x="235.227273" y="320.4" style="stroke: #000000; stroke-width: 0.8"/>
      </g>
     </g>
     <g id="text_4">
      <!-- 1 -->
      <g transform="translate(232.046023 334.998438)scale(0.1 -0.1)">
       <use xlink:href="#DejaVuSans-31"/>
      </g>
     </g>
    </g>
    <g id="xtick_5">
     <g id="line2d_5">
      <g>
       <use xlink:href="#m2957b12e80" x="285.954545" y="320.4" style="stroke: #000000; stroke-width: 0.8"/>
      </g>
     </g>
     <g id="text_5">
      <!-- 2 -->
      <g transform="translate(282.773295 334.998438)scale(0.1 -0.1)">
       <use xlink:href="#DejaVuSans-32"/>
      </g>
     </g>
    </g>
   </g>
   <g id="matplotlib.axis_2">
    <g id="ytick_1">
     <g id="line2d_6">
      <defs>
       <path id="m522ac2fe7f" d="M 0 0 
L -3.5 0 
" style="stroke: #000000; stroke-width: 0.8"/>
      </defs>
      <g>
       <use xlink:href="#m522ac2fe7f" x="45" y="259.024329" style="stroke: #000000; stroke-width: 0.8"/>
      </g>
     </g>
     <g id="text_6">
      <!-- $\mathdefault{10^{-3}}$ -->
      <g transform="translate(14.5 262.823548)scale(0.1 -0.1)">
       <defs>
        <path id="DejaVuSans-33" d="M 2597 2516 
Q 3050 2419 3304 2112 
Q 3559 1806 3559 1356 
Q 3559 666 3084 287 
Q 2609 -91 1734 -91 
Q 1441 -91 1130 -33 
Q 819 25 488 141 
L 488 750 
Q 750 597 1062 519 
Q 1375 441 1716 441 
Q 2309 441 2620 675 
Q 2931 909 2931 1356 
Q 2931 1769 2642 2001 
Q 2353 2234 1838 2234 
L 1294 2234 
L 1294 2753 
L 1863 2753 
Q 2328 2753 2575 2939 
Q 2822 3125 2822 3475 
Q 2822 3834 2567 4026 
Q 2313 4219 1838 4219 
Q 1578 4219 1281 4162 
Q 984 4106 628 3988 
L 628 4550 
Q 988 4650 1302 4700 
Q 1616 4750 1894 4750 
Q 2613 4750 3031 4423 
Q 3450 4097 3450 3541 
Q 3450 3153 3228 2886 
Q 3006 2619 2597 2516 
z
" transform="scale(0.015625)"/>
       </defs>
       <use xlink:href="#DejaVuSans-31" transform="translate(0 0.765625)"/>
       <use xlink:href="#DejaVuSans-30" transform="translate(63.623047 0.765625)"/>
       <use xlink:href="#DejaVuSans-2212" transform="translate(128.203125 39.046875)scale(0.7)"/>
       <use xlink:href="#DejaVuSans-33" transform="translate(186.855469 39.046875)scale(0.7)"/>
      </g>
     </g>
    </g>
    <g id="ytick_2">
     <g id="line2d_7">
      <g>
       <use xlink:href="#m522ac2fe7f" x="45" y="197.556623" style="stroke: #000000; stroke-width: 0.8"/>
      </g>
     </g>
     <g id="text_7">
      <!-- $\mathdefault{10^{-2}}$ -->
      <g transform="translate(14.5 201.355841)scale(0.1 -0.1)">
       <use xlink:href="#DejaVuSans-31" transform="translate(0 0.765625)"/>
       <use xlink:href="#DejaVuSans-30" transform="translate(63.623047 0.765625)"/>
       <use xlink:href="#DejaVuSans-2212" transform="translate(128.203125 39.046875)scale(0.7)"/>
       <use xlink:href="#DejaVuSans-32" transform="translate(186.855469 39.046875)scale(0.7)"/>
      </g>
     </g>
    </g>
    <g id="ytick_3">
     <g id="line2d_8">
      <g>
       <use xlink:href="#m522ac2fe7f" x="45" y="136.088916" style="stroke: #000000; stroke-width: 0.8"/>
      </g>
     </g>
     <g id="text_8">
      <!-- $\mathdefault{10^{-1}}$ -->
      <g transform="translate(14.5 139.888135)scale(0.1 -0.1)">
       <use xlink:href="#DejaVuSans-31" transform="translate(0 0.684375)"/>
       <use xlink:href="#DejaVuSans-30" transform="translate(63.623047 0.684375)"/>
       <use xlink:href="#DejaVuSans-2212" transform="translate(128.203125 38.965625)scale(0.7)"/>
       <use xlink:href="#DejaVuSans-31" transform="translate(186.855469 38.965625)scale(0.7)"/>
      </g>
     </g>
    </g>
    <g id="ytick_4">
     <g id="line2d_9">
      <g>
       <use xlink:href="#m522ac2fe7f" x="45" y="74.62121" style="stroke: #000000; stroke-width: 0.8"/>
      </g>
     </g>
     <g id="text_9">
      <!-- $\mathdefault{10^{0}}$ -->
      <g transform="translate(20.4 78.420428)scale(0.1 -0.1)">
       <use xlink:href="#DejaVuSans-31" transform="translate(0 0.765625)"/>
       <use xlink:href="#DejaVuSans-30" transform="translate(63.623047 0.765625)"/>
       <use xlink:href="#DejaVuSans-30" transform="translate(128.203125 39.046875)scale(0.7)"/>
      </g>
     </g>
    </g>
    <g id="ytick_5">
     <g id="line2d_10">
      <defs>
       <path id="ma00cb06e84" d="M 0 0 
L -2 0 
" style="stroke: #000000; stroke-width: 0.6"/>
      </defs>
      <g>
       <use xlink:href="#ma00cb06e84" x="45" y="301.988412" style="stroke: #000000; stroke-width: 0.6"/>
      </g>
     </g>
    </g>
    <g id="ytick_6">
     <g id="line2d_11">
      <g>
       <use xlink:href="#ma00cb06e84" x="45" y="291.164486" style="stroke: #000000; stroke-width: 0.6"/>
      </g>
     </g>
    </g>
    <g id="ytick_7">
     <g id="line2d_12">
      <g>
       <use xlink:href="#ma00cb06e84" x="45" y="283.484789" style="stroke: #000000; stroke-width: 0.6"/>
      </g>
     </g>
    </g>
    <g id="ytick_8">
     <g id="line2d_13">
      <g>
       <use xlink:href="#ma00cb06e84" x="45" y="277.527953" style="stroke: #000000; stroke-width: 0.6"/>
      </g>
     </g>
    </g>
    <g id="ytick_9">
     <g id="line2d_14">
      <g>
       <use xlink:href="#ma00cb06e84" x="45" y="272.660863" style="stroke: #000000; stroke-width: 0.6"/>
      </g>
     </g>
    </g>
    <g id="ytick_10">
     <g id="line2d_15">
      <g>
       <use xlink:href="#ma00cb06e84" x="45" y="268.545797" style="stroke: #000000; stroke-width: 0.6"/>
      </g>
     </g>
    </g>
    <g id="ytick_11">
     <g id="line2d_16">
      <g>
       <use xlink:href="#ma00cb06e84" x="45" y="264.981165" style="stroke: #000000; stroke-width: 0.6"/>
      </g>
     </g>
    </g>
    <g id="ytick_12">
     <g id="line2d_17">
      <g>
       <use xlink:href="#ma00cb06e84" x="45" y="261.836937" style="stroke: #000000; stroke-width: 0.6"/>
      </g>
     </g>
    </g>
    <g id="ytick_13">
     <g id="line2d_18">
      <g>
       <use xlink:href="#ma00cb06e84" x="45" y="240.520706" style="stroke: #000000; stroke-width: 0.6"/>
      </g>
     </g>
    </g>
    <g id="ytick_14">
     <g id="line2d_19">
      <g>
       <use xlink:href="#ma00cb06e84" x="45" y="229.69678" style="stroke: #000000; stroke-width: 0.6"/>
      </g>
     </g>
    </g>
    <g id="ytick_15">
     <g id="line2d_20">
      <g>
       <use xlink:href="#ma00cb06e84" x="45" y="222.017082" style="stroke: #000000; stroke-width: 0.6"/>
      </g>
     </g>
    </g>
    <g id="ytick_16">
     <g id="line2d_21">
      <g>
       <use xlink:href="#ma00cb06e84" x="45" y="216.060246" style="stroke: #000000; stroke-width: 0.6"/>
      </g>
     </g>
    </g>
    <g id="ytick_17">
     <g id="line2d_22">
      <g>
       <use xlink:href="#ma00cb06e84" x="45" y="211.193157" style="stroke: #000000; stroke-width: 0.6"/>
      </g>
     </g>
    </g>
    <g id="ytick_18">
     <g id="line2d_23">
      <g>
       <use xlink:href="#ma00cb06e84" x="45" y="207.078091" style="stroke: #000000; stroke-width: 0.6"/>
      </g>
     </g>
    </g>
    <g id="ytick_19">
     <g id="line2d_24">
      <g>
       <use xlink:href="#ma00cb06e84" x="45" y="203.513459" style="stroke: #000000; stroke-width: 0.6"/>
      </g>
     </g>
    </g>
    <g id="ytick_20">
     <g id="line2d_25">
      <g>
       <use xlink:href="#ma00cb06e84" x="45" y="200.369231" style="stroke: #000000; stroke-width: 0.6"/>
      </g>
     </g>
    </g>
    <g id="ytick_21">
     <g id="line2d_26">
      <g>
       <use xlink:href="#ma00cb06e84" x="45" y="179.052999" style="stroke: #000000; stroke-width: 0.6"/>
      </g>
     </g>
    </g>
    <g id="ytick_22">
     <g id="line2d_27">
      <g>
       <use xlink:href="#ma00cb06e84" x="45" y="168.229073" style="stroke: #000000; stroke-width: 0.6"/>
      </g>
     </g>
    </g>
    <g id="ytick_23">
     <g id="line2d_28">
      <g>
       <use xlink:href="#ma00cb06e84" x="45" y="160.549376" style="stroke: #000000; stroke-width: 0.6"/>
      </g>
     </g>
    </g>
    <g id="ytick_24">
     <g id="line2d_29">
      <g>
       <use xlink:href="#ma00cb06e84" x="45" y="154.59254" style="stroke: #000000; stroke-width: 0.6"/>
      </g>
     </g>
    </g>
    <g id="ytick_25">
     <g id="line2d_30">
      <g>
       <use xlink:href="#ma00cb06e84" x="45" y="149.72545" style="stroke: #000000; stroke-width: 0.6"/>
      </g>
     </g>
    </g>
    <g id="ytick_26">
     <g id="line2d_31">
      <g>
       <use xlink:href="#ma00cb06e84" x="45" y="145.610384" style="stroke: #000000; stroke-width: 0.6"/>
      </g>
     </g>
    </g>
    <g id="ytick_27">
     <g id="line2d_32">
      <g>
       <use xlink:href="#ma00cb06e84" x="45" y="142.045752" style="stroke: #000000; stroke-width: 0.6"/>
      </g>
     </g>
    </g>
    <g id="ytick_28">
     <g id="line2d_33">
      <g>
       <use xlink:href="#ma00cb06e84" x="45" y="138.901524" style="stroke: #000000; stroke-width: 0.6"/>
      </g>
     </g>
    </g>
    <g id="ytick_29">
     <g id="line2d_34">
      <g>
       <use xlink:href="#ma00cb06e84" x="45" y="117.585293" style="stroke: #000000; stroke-width: 0.6"/>
      </g>
     </g>
    </g>
    <g id="ytick_30">
     <g id="line2d_35">
      <g>
       <use xlink:href="#ma00cb06e84" x="45" y="106.761367" style="stroke: #000000; stroke-width: 0.6"/>
      </g>
     </g>
    </g>
    <g id="ytick_31">
     <g id="line2d_36">
      <g>
       <use xlink:href="#ma00cb06e84" x="45" y="99.081669" style="stroke: #000000; stroke-width: 0.6"/>
      </g>
     </g>
    </g>
    <g id="ytick_32">
     <g id="line2d_37">
      <g>
       <use xlink:href="#ma00cb06e84" x="45" y="93.124833" style="stroke: #000000; stroke-width: 0.6"/>
      </g>
     </g>
    </g>
    <g id="ytick_33">
     <g id="line2d_38">
      <g>
       <use xlink:href="#ma00cb06e84" x="45" y="88.257743" style="stroke: #000000; stroke-width: 0.6"/>
      </g>
     </g>
    </g>
    <g id="ytick_34">
     <g id="line2d_39">
      <g>
       <use xlink:href="#ma00cb06e84" x="45" y="84.142678" style="stroke: #000000; stroke-width: 0.6"/>
      </g>
     </g>
    </g>
    <g id="ytick_35">
     <g id="line2d_40">
      <g>
       <use xlink:href="#ma00cb06e84" x="45" y="80.578046" style="stroke: #000000; stroke-width: 0.6"/>
      </g>
     </g>
    </g>
    <g id="ytick_36">
     <g id="line2d_41">
      <g>
       <use xlink:href="#ma00cb06e84" x="45" y="77.433818" style="stroke: #000000; stroke-width: 0.6"/>
      </g>
     </g>
    </g>
    <g id="ytick_37">
     <g id="line2d_42">
      <g>
       <use xlink:href="#ma00cb06e84" x="45" y="56.117586" style="stroke: #000000; stroke-width: 0.6"/>
      </g>
     </g>
    </g>
    <g id="ytick_38">
     <g id="line2d_43">
      <g>
       <use xlink:href="#ma00cb06e84" x="45" y="45.29366" style="stroke: #000000; stroke-width: 0.6"/>
      </g>
     </g>
    </g>
   </g>
   <g id="line2d_44">
    <path d="M 83.045455 150.275114 
L 85.095043 189.415906 
L 87.144626 137.076176 
L 89.194215 167.220106 
L 91.243804 142.696568 
L 93.293387 163.463993 
L 95.342976 134.388959 
L 97.392564 247.134496 
L 99.442147 172.727944 
L 101.491736 127.297923 
L 103.541319 182.036298 
L 105.590908 152.537809 
L 107.640497 245.006738 
L 109.690079 148.713264 
L 111.739668 174.52324 
L 113.789251 143.014802 
L 115.83884 170.995597 
L 117.888429 178.354639 
L 119.938012 146.127049 
L 121.9876 191.267342 
L 124.037189 151.89518 
L 126.086772 176.274519 
L 128.136361 152.340646 
L 130.18595 154.131079 
L 132.235539 138.509777 
L 134.285124 154.662405 
L 136.334713 178.747646 
L 138.384299 159.134157 
L 140.433885 168.198852 
L 142.483471 140.064126 
L 144.53306 140.493447 
L 146.582646 132.506443 
L 148.632231 173.361404 
L 150.681817 153.830452 
L 152.731406 134.894665 
L 154.780992 238.488323 
L 156.830578 166.975178 
L 158.880164 152.986115 
L 160.929752 235.894846 
L 162.979338 159.749401 
L 165.028924 203.147494 
L 167.078511 147.728656 
L 169.128097 183.792491 
L 171.177685 185.871873 
L 173.227271 182.623276 
L 175.276858 134.937351 
L 177.326445 173.056935 
L 179.376031 179.821169 
L 181.425623 140.891359 
L 183.47521 201.799545 
L 185.524796 158.18538 
L 187.574383 233.872687 
L 189.62397 149.316432 
L 191.673556 145.159158 
L 193.723144 256.729597 
L 195.77273 190.030812 
L 197.822315 182.11712 
L 199.871903 216.527813 
L 201.921489 135.662231 
L 203.971076 161.057309 
L 206.020662 160.146522 
L 208.070249 166.230793 
L 210.119836 145.546655 
L 212.169422 201.392568 
L 214.219008 143.960747 
L 216.268594 180.875231 
L 218.318183 132.524698 
L 220.367769 163.074346 
L 222.417354 159.502979 
L 224.46694 160.263244 
L 226.516529 132.045446 
L 228.566115 145.275248 
L 230.615701 126.036948 
L 232.665287 174.887538 
L 234.714876 164.270083 
L 236.764461 188.919359 
L 238.81405 204.657173 
L 240.863633 138.407028 
L 242.913222 143.181118 
L 244.962805 132.651249 
L 247.012394 169.128804 
L 249.061982 154.871315 
L 251.111565 144.47779 
L 253.161154 188.528253 
L 255.210743 136.908736 
L 257.260326 175.436002 
L 259.309915 133.262942 
L 261.359503 176.295408 
L 263.409092 307.8 
L 265.458681 145.625141 
L 267.508264 156.161874 
L 269.557853 193.380879 
L 271.607442 147.089106 
L 273.657024 143.729979 
L 275.706613 151.45848 
L 277.756202 178.709354 
L 279.805785 125.918224 
L 281.855374 158.482953 
L 283.904957 150.296124 
L 285.954545 223.258583 
" clip-path="url(#pce6fbd6625)" style="fill: none; stroke: #1f77b4; stroke-width: 1.5; stroke-linecap: square"/>
   </g>
   <g id="line2d_45">
    <path d="M 57.681818 55.8 
L 59.588863 58.1864 
L 61.495896 60.952166 
L 63.402942 64.121442 
L 65.309987 67.72246 
L 67.21702 71.788395 
L 69.124053 76.357961 
L 71.031098 81.475143 
L 72.938143 87.187441 
L 74.845188 93.541346 
L 76.752221 100.571649 
L 79.294932 110.989982 
L 82.473333 125.277005 
L 85.016061 136.557417 
L 86.287423 141.510502 
L 87.558784 145.614663 
L 88.83014 148.64768 
L 89.465823 149.735681 
L 90.101501 150.547427 
L 90.737185 151.104117 
L 91.372862 151.434939 
L 92.00854 151.574306 
L 92.644224 151.55802 
L 93.915579 151.195874 
L 95.822624 150.233344 
L 101.543748 146.864991 
L 106.629181 143.482044 
L 107.900543 142.988733 
L 108.536226 142.881287 
L 109.171904 142.890704 
L 109.807588 143.034782 
L 110.443266 143.330771 
L 111.078949 143.795943 
L 111.714627 144.446718 
L 112.350305 145.299784 
L 112.985988 146.371235 
L 114.257344 149.232916 
L 115.528705 153.160255 
L 116.800067 158.278082 
L 118.071428 164.690282 
L 119.342783 172.414105 
L 122.521184 193.953677 
L 123.156868 196.947913 
L 123.792545 198.73477 
L 124.428223 199.153356 
L 125.063907 198.295708 
L 125.699584 196.473257 
L 128.242307 186.870884 
L 128.877991 185.15428 
L 129.513669 183.995417 
L 130.149352 183.485924 
L 130.78503 183.722809 
L 131.420714 184.825809 
L 132.056391 186.974377 
L 132.692069 190.452851 
L 133.327753 195.778597 
L 133.963431 204.042594 
L 134.599111 218.271941 
L 135.234792 256.845084 
L 136.50615 210.36617 
L 137.141831 198.613642 
L 137.777512 191.265192 
L 138.413193 186.457697 
L 139.04887 183.476143 
L 139.684551 182.024539 
L 140.320232 182.035889 
L 140.955909 183.631521 
L 141.59159 187.200167 
L 142.227271 193.680283 
L 142.862951 205.74494 
L 143.498632 237.893114 
L 144.13431 223.557674 
L 144.769991 196.40613 
L 145.405671 182.445478 
L 146.041349 172.989984 
L 146.67703 165.934342 
L 147.31271 160.429586 
L 147.948391 156.045942 
L 148.584072 152.535974 
L 149.219749 149.745977 
L 149.85543 147.573428 
L 150.491111 145.949193 
L 151.126789 144.825646 
L 151.762469 144.169679 
L 152.39815 143.960597 
L 153.033831 144.185862 
L 153.669511 144.840697 
L 154.305195 145.926193 
L 154.940876 147.449908 
L 155.576557 149.423432 
L 156.212234 151.862615 
L 157.483596 158.208073 
L 158.754957 166.564181 
L 161.297675 186.209504 
L 161.933355 189.367491 
L 162.569035 190.368277 
L 163.204716 188.890955 
L 163.840395 185.316641 
L 165.111749 175.071266 
L 166.383109 164.670811 
L 167.654469 156.045835 
L 168.925829 149.557228 
L 169.561514 147.101982 
L 170.197195 145.157236 
L 170.832874 143.713629 
L 171.468555 142.768836 
L 172.104235 142.32693 
L 172.739914 142.402726 
L 173.375594 143.02258 
L 174.011274 144.229912 
L 174.64696 146.092371 
L 175.28264 148.71466 
L 175.91832 152.263419 
L 176.554 157.017038 
L 177.18968 163.482288 
L 177.82536 172.732458 
L 178.46104 187.739469 
L 179.09672 226.147506 
L 180.368073 182.137794 
L 181.003753 170.566332 
L 181.639433 163.234668 
L 182.275114 158.219479 
L 182.910794 154.742093 
L 183.546474 152.42231 
L 184.182154 151.057386 
L 184.817839 150.541612 
L 185.453519 150.829246 
L 186.089199 151.925973 
L 186.724879 153.884022 
L 187.360559 156.814985 
L 187.996239 160.922642 
L 188.631919 166.573309 
L 189.2676 174.487726 
L 189.903285 186.367653 
L 190.538964 208.253331 
L 191.174644 249.251274 
L 191.810325 200.753962 
L 192.446005 186.245383 
L 193.081685 178.538785 
L 193.717365 174.186094 
L 194.353045 172.070641 
L 194.98873 171.767116 
L 195.62441 173.171116 
L 196.26009 176.432907 
L 196.895771 182.050135 
L 197.53145 191.308004 
L 198.167131 208.435238 
L 198.802811 295.307667 
L 199.438491 210.220265 
L 200.074164 191.639735 
L 200.709844 181.480745 
L 201.345524 174.898464 
L 201.981204 170.382962 
L 202.616884 167.239781 
L 203.252564 165.073921 
L 203.888245 163.622118 
L 204.523924 162.68759 
L 205.159609 162.106121 
L 206.430969 161.462123 
L 207.702329 160.825131 
L 208.973691 159.765885 
L 212.152088 156.459507 
L 212.787769 156.127593 
L 213.42345 156.026134 
L 214.05913 156.190259 
L 214.694811 156.646216 
L 215.330489 157.41035 
L 215.966169 158.493941 
L 216.60185 159.897092 
L 217.873208 163.613764 
L 219.14457 168.311712 
L 221.051609 175.701818 
L 221.68729 177.639388 
L 222.322967 178.984185 
L 222.958648 179.564744 
L 223.594329 179.292097 
L 224.230009 178.185151 
L 224.86569 176.365487 
L 226.137049 171.327708 
L 228.679768 160.231036 
L 229.95113 155.617283 
L 231.222488 151.95114 
L 232.493847 149.257291 
L 233.129527 148.265855 
L 233.765208 147.503735 
L 234.400889 146.964571 
L 235.036569 146.641571 
L 235.672253 146.529882 
L 236.307931 146.62396 
L 236.943615 146.91995 
L 237.579292 147.414298 
L 238.214976 148.104861 
L 238.850654 148.98984 
L 240.122015 151.343148 
L 241.39337 154.476774 
L 242.664732 158.391421 
L 243.936093 163.05539 
L 245.843132 171.125645 
L 247.750171 179.027602 
L 248.385855 181.05487 
L 249.021533 182.499528 
L 249.657211 183.208854 
L 250.292894 183.100331 
L 250.928572 182.178091 
L 251.56425 180.539006 
L 252.835611 175.775818 
L 256.014012 162.42155 
L 257.285373 158.362134 
L 258.556734 155.440813 
L 259.192412 154.43515 
L 259.82809 153.741022 
L 260.463774 153.365418 
L 261.099451 153.314679 
L 261.735129 153.595945 
L 262.370813 154.218578 
L 263.00649 155.194654 
L 263.642174 156.539307 
L 264.277852 158.269214 
L 264.913529 160.408976 
L 265.549213 162.985773 
L 266.820575 169.592162 
L 268.091936 178.419697 
L 269.363297 189.768135 
L 271.270337 209.445863 
L 271.906014 213.959092 
L 272.541698 215.076668 
L 273.177376 212.185695 
L 273.813059 206.281785 
L 276.355776 177.581479 
L 277.627138 166.188262 
L 278.898499 157.050337 
L 280.169854 149.804031 
L 281.441222 144.16647 
L 282.712583 139.958544 
L 283.348261 138.361634 
L 283.983945 137.099777 
L 284.619622 136.178384 
L 285.2553 135.611628 
L 285.890984 135.423189 
L 286.526655 135.649164 
L 287.162333 136.34478 
L 287.798011 137.592677 
L 288.433701 139.518819 
L 289.069378 142.324885 
L 289.705056 146.357656 
L 290.340734 152.277784 
L 290.976411 161.605871 
L 291.612101 179.412485 
L 292.247779 245.032238 
L 292.883456 172.174267 
L 293.519146 153.09744 
L 294.154824 141.152182 
L 294.790502 132.260983 
L 296.061857 119.047545 
L 297.333212 109.140281 
L 298.60458 101.149163 
L 299.875935 94.442379 
L 301.14729 88.676041 
L 302.418658 83.640503 
L 304.325703 77.167037 
L 306.232736 71.729303 
L 308.139781 67.131234 
L 310.046826 63.238764 
L 311.318182 60.986872 
L 311.318182 60.986872 
" clip-path="url(#pce6fbd6625)" style="fill: none; stroke: #ff7f0e; stroke-width: 1.5; stroke-linecap: square"/>
   </g>
   <g id="patch_3">
    <path d="M 45 320.4 
L 45 43.2 
" style="fill: none; stroke: #000000; stroke-width: 0.8; stroke-linejoin: miter; stroke-linecap: square"/>
   </g>
   <g id="patch_4">
    <path d="M 324 320.4 
L 324 43.2 
" style="fill: none; stroke: #000000; stroke-width: 0.8; stroke-linejoin: miter; stroke-linecap: square"/>
   </g>
   <g id="patch_5">
    <path d="M 45 320.4 
L 324 320.4 
" style="fill: none; stroke: #000000; stroke-width: 0.8; stroke-linejoin: miter; stroke-linecap: square"/>
   </g>
   <g id="patch_6">
    <path d="M 45 43.2 
L 324 43.2 
" style="fill: none; stroke: #000000; stroke-width: 0.8; stroke-linejoin: miter; stroke-linecap: square"/>
   </g>
   <g id="text_10">
    <!-- Prediction Error -->
    <g transform="translate(138.166875 37.2)scale(0.12 -0.12)">
     <defs>
      <path id="DejaVuSans-50" d="M 1259 4147 
L 1259 2394 
L 2053 2394 
Q 2494 2394 2734 2622 
Q 2975 2850 2975 3272 
Q 2975 3691 2734 3919 
Q 2494 4147 2053 4147 
L 1259 4147 
z
M 628 4666 
L 2053 4666 
Q 2838 4666 3239 4311 
Q 3641 3956 3641 3272 
Q 3641 2581 3239 2228 
Q 2838 1875 2053 1875 
L 1259 1875 
L 1259 0 
L 628 0 
L 628 4666 
z
" transform="scale(0.015625)"/>
      <path id="DejaVuSans-72" d="M 2631 2963 
Q 2534 3019 2420 3045 
Q 2306 3072 2169 3072 
Q 1681 3072 1420 2755 
Q 1159 2438 1159 1844 
L 1159 0 
L 581 0 
L 581 3500 
L 1159 3500 
L 1159 2956 
Q 1341 3275 1631 3429 
Q 1922 3584 2338 3584 
Q 2397 3584 2469 3576 
Q 2541 3569 2628 3553 
L 2631 2963 
z
" transform="scale(0.015625)"/>
      <path id="DejaVuSans-65" d="M 3597 1894 
L 3597 1613 
L 953 1613 
Q 991 1019 1311 708 
Q 1631 397 2203 397 
Q 2534 397 2845 478 
Q 3156 559 3463 722 
L 3463 178 
Q 3153 47 2828 -22 
Q 2503 -91 2169 -91 
Q 1331 -91 842 396 
Q 353 884 353 1716 
Q 353 2575 817 3079 
Q 1281 3584 2069 3584 
Q 2775 3584 3186 3129 
Q 3597 2675 3597 1894 
z
M 3022 2063 
Q 3016 2534 2758 2815 
Q 2500 3097 2075 3097 
Q 1594 3097 1305 2825 
Q 1016 2553 972 2059 
L 3022 2063 
z
" transform="scale(0.015625)"/>
      <path id="DejaVuSans-64" d="M 2906 2969 
L 2906 4863 
L 3481 4863 
L 3481 0 
L 2906 0 
L 2906 525 
Q 2725 213 2448 61 
Q 2172 -91 1784 -91 
Q 1150 -91 751 415 
Q 353 922 353 1747 
Q 353 2572 751 3078 
Q 1150 3584 1784 3584 
Q 2172 3584 2448 3432 
Q 2725 3281 2906 2969 
z
M 947 1747 
Q 947 1113 1208 752 
Q 1469 391 1925 391 
Q 2381 391 2643 752 
Q 2906 1113 2906 1747 
Q 2906 2381 2643 2742 
Q 2381 3103 1925 3103 
Q 1469 3103 1208 2742 
Q 947 2381 947 1747 
z
" transform="scale(0.015625)"/>
      <path id="DejaVuSans-69" d="M 603 3500 
L 1178 3500 
L 1178 0 
L 603 0 
L 603 3500 
z
M 603 4863 
L 1178 4863 
L 1178 4134 
L 603 4134 
L 603 4863 
z
" transform="scale(0.015625)"/>
      <path id="DejaVuSans-63" d="M 3122 3366 
L 3122 2828 
Q 2878 2963 2633 3030 
Q 2388 3097 2138 3097 
Q 1578 3097 1268 2742 
Q 959 2388 959 1747 
Q 959 1106 1268 751 
Q 1578 397 2138 397 
Q 2388 397 2633 464 
Q 2878 531 3122 666 
L 3122 134 
Q 2881 22 2623 -34 
Q 2366 -91 2075 -91 
Q 1284 -91 818 406 
Q 353 903 353 1747 
Q 353 2603 823 3093 
Q 1294 3584 2113 3584 
Q 2378 3584 2631 3529 
Q 2884 3475 3122 3366 
z
" transform="scale(0.015625)"/>
      <path id="DejaVuSans-74" d="M 1172 4494 
L 1172 3500 
L 2356 3500 
L 2356 3053 
L 1172 3053 
L 1172 1153 
Q 1172 725 1289 603 
Q 1406 481 1766 481 
L 2356 481 
L 2356 0 
L 1766 0 
Q 1100 0 847 248 
Q 594 497 594 1153 
L 594 3053 
L 172 3053 
L 172 3500 
L 594 3500 
L 594 4494 
L 1172 4494 
z
" transform="scale(0.015625)"/>
      <path id="DejaVuSans-6f" d="M 1959 3097 
Q 1497 3097 1228 2736 
Q 959 2375 959 1747 
Q 959 1119 1226 758 
Q 1494 397 1959 397 
Q 2419 397 2687 759 
Q 2956 1122 2956 1747 
Q 2956 2369 2687 2733 
Q 2419 3097 1959 3097 
z
M 1959 3584 
Q 2709 3584 3137 3096 
Q 3566 2609 3566 1747 
Q 3566 888 3137 398 
Q 2709 -91 1959 -91 
Q 1206 -91 779 398 
Q 353 888 353 1747 
Q 353 2609 779 3096 
Q 1206 3584 1959 3584 
z
" transform="scale(0.015625)"/>
      <path id="DejaVuSans-6e" d="M 3513 2113 
L 3513 0 
L 2938 0 
L 2938 2094 
Q 2938 2591 2744 2837 
Q 2550 3084 2163 3084 
Q 1697 3084 1428 2787 
Q 1159 2491 1159 1978 
L 1159 0 
L 581 0 
L 581 3500 
L 1159 3500 
L 1159 2956 
Q 1366 3272 1645 3428 
Q 1925 3584 2291 3584 
Q 2894 3584 3203 3211 
Q 3513 2838 3513 2113 
z
" transform="scale(0.015625)"/>
      <path id="DejaVuSans-20" transform="scale(0.015625)"/>
      <path id="DejaVuSans-45" d="M 628 4666 
L 3578 4666 
L 3578 4134 
L 1259 4134 
L 1259 2753 
L 3481 2753 
L 3481 2222 
L 1259 2222 
L 1259 531 
L 3634 531 
L 3634 0 
L 628 0 
L 628 4666 
z
" transform="scale(0.015625)"/>
     </defs>
     <use xlink:href="#DejaVuSans-50"/>
     <use xlink:href="#DejaVuSans-72" x="58.552734"/>
     <use xlink:href="#DejaVuSans-65" x="97.416016"/>
     <use xlink:href="#DejaVuSans-64" x="158.939453"/>
     <use xlink:href="#DejaVuSans-69" x="222.416016"/>
     <use xlink:href="#DejaVuSans-63" x="250.199219"/>
     <use xlink:href="#DejaVuSans-74" x="305.179688"/>
     <use xlink:href="#DejaVuSans-69" x="344.388672"/>
     <use xlink:href="#DejaVuSans-6f" x="372.171875"/>
     <use xlink:href="#DejaVuSans-6e" x="433.353516"/>
     <use xlink:href="#DejaVuSans-20" x="496.732422"/>
     <use xlink:href="#DejaVuSans-45" x="528.519531"/>
     <use xlink:href="#DejaVuSans-72" x="591.703125"/>
     <use xlink:href="#DejaVuSans-72" x="631.066406"/>
     <use xlink:href="#DejaVuSans-6f" x="669.929688"/>
     <use xlink:href="#DejaVuSans-72" x="731.111328"/>
    </g>
   </g>
   <g id="legend_1">
    <g id="patch_7">
     <path d="M 52 315.4 
L 134.657813 315.4 
Q 136.657813 315.4 136.657813 313.4 
L 136.657813 285.04375 
Q 136.657813 283.04375 134.657813 283.04375 
L 52 283.04375 
Q 50 283.04375 50 285.04375 
L 50 313.4 
Q 50 315.4 52 315.4 
z
" style="fill: #ffffff; opacity: 0.8; stroke: #cccccc; stroke-linejoin: miter"/>
    </g>
    <g id="line2d_46">
     <path d="M 54 291.142187 
L 64 291.142187 
L 74 291.142187 
" style="fill: none; stroke: #1f77b4; stroke-width: 1.5; stroke-linecap: square"/>
    </g>
    <g id="text_11">
     <!-- train error -->
     <g transform="translate(82 294.642187)scale(0.1 -0.1)">
      <defs>
       <path id="DejaVuSans-61" d="M 2194 1759 
Q 1497 1759 1228 1600 
Q 959 1441 959 1056 
Q 959 750 1161 570 
Q 1363 391 1709 391 
Q 2188 391 2477 730 
Q 2766 1069 2766 1631 
L 2766 1759 
L 2194 1759 
z
M 3341 1997 
L 3341 0 
L 2766 0 
L 2766 531 
Q 2569 213 2275 61 
Q 1981 -91 1556 -91 
Q 1019 -91 701 211 
Q 384 513 384 1019 
Q 384 1609 779 1909 
Q 1175 2209 1959 2209 
L 2766 2209 
L 2766 2266 
Q 2766 2663 2505 2880 
Q 2244 3097 1772 3097 
Q 1472 3097 1187 3025 
Q 903 2953 641 2809 
L 641 3341 
Q 956 3463 1253 3523 
Q 1550 3584 1831 3584 
Q 2591 3584 2966 3190 
Q 3341 2797 3341 1997 
z
" transform="scale(0.015625)"/>
      </defs>
      <use xlink:href="#DejaVuSans-74"/>
      <use xlink:href="#DejaVuSans-72" x="39.208984"/>
      <use xlink:href="#DejaVuSans-61" x="80.322266"/>
      <use xlink:href="#DejaVuSans-69" x="141.601562"/>
      <use xlink:href="#DejaVuSans-6e" x="169.384766"/>
      <use xlink:href="#DejaVuSans-20" x="232.763672"/>
      <use xlink:href="#DejaVuSans-65" x="264.550781"/>
      <use xlink:href="#DejaVuSans-72" x="326.074219"/>
      <use xlink:href="#DejaVuSans-72" x="365.4375"/>
      <use xlink:href="#DejaVuSans-6f" x="404.300781"/>
      <use xlink:href="#DejaVuSans-72" x="465.482422"/>
     </g>
    </g>
    <g id="line2d_47">
     <path d="M 54 305.820312 
L 64 305.820312 
L 74 305.820312 
" style="fill: none; stroke: #ff7f0e; stroke-width: 1.5; stroke-linecap: square"/>
    </g>
    <g id="text_12">
     <!-- test error -->
     <g transform="translate(82 309.320312)scale(0.1 -0.1)">
      <defs>
       <path id="DejaVuSans-73" d="M 2834 3397 
L 2834 2853 
Q 2591 2978 2328 3040 
Q 2066 3103 1784 3103 
Q 1356 3103 1142 2972 
Q 928 2841 928 2578 
Q 928 2378 1081 2264 
Q 1234 2150 1697 2047 
L 1894 2003 
Q 2506 1872 2764 1633 
Q 3022 1394 3022 966 
Q 3022 478 2636 193 
Q 2250 -91 1575 -91 
Q 1294 -91 989 -36 
Q 684 19 347 128 
L 347 722 
Q 666 556 975 473 
Q 1284 391 1588 391 
Q 1994 391 2212 530 
Q 2431 669 2431 922 
Q 2431 1156 2273 1281 
Q 2116 1406 1581 1522 
L 1381 1569 
Q 847 1681 609 1914 
Q 372 2147 372 2553 
Q 372 3047 722 3315 
Q 1072 3584 1716 3584 
Q 2034 3584 2315 3537 
Q 2597 3491 2834 3397 
z
" transform="scale(0.015625)"/>
      </defs>
      <use xlink:href="#DejaVuSans-74"/>
      <use xlink:href="#DejaVuSans-65" x="39.208984"/>
      <use xlink:href="#DejaVuSans-73" x="100.732422"/>
      <use xlink:href="#DejaVuSans-74" x="152.832031"/>
      <use xlink:href="#DejaVuSans-20" x="192.041016"/>
      <use xlink:href="#DejaVuSans-65" x="223.828125"/>
      <use xlink:href="#DejaVuSans-72" x="285.351562"/>
      <use xlink:href="#DejaVuSans-72" x="324.714844"/>
      <use xlink:href="#DejaVuSans-6f" x="363.578125"/>
      <use xlink:href="#DejaVuSans-72" x="424.759766"/>
     </g>
    </g>
   </g>
  </g>
 </g>
 <defs>
  <clipPath id="pce6fbd6625">
   <rect x="45" y="43.2" width="279" height="277.2"/>
  </clipPath>
 </defs>
</svg>
