<?xml version="1.0" encoding="utf-8" standalone="no"?>
<!DOCTYPE svg PUBLIC "-//W3C//DTD SVG 1.1//EN"
  "http://www.w3.org/Graphics/SVG/1.1/DTD/svg11.dtd">
<svg xmlns:xlink="http://www.w3.org/1999/xlink" width="360pt" height="360pt" viewBox="0 0 360 360" xmlns="http://www.w3.org/2000/svg" version="1.1">
 <metadata>
  <rdf:RDF xmlns:dc="http://purl.org/dc/elements/1.1/" xmlns:cc="http://creativecommons.org/ns#" xmlns:rdf="http://www.w3.org/1999/02/22-rdf-syntax-ns#">
   <cc:Work>
    <dc:type rdf:resource="http://purl.org/dc/dcmitype/StillImage"/>
    <dc:date>2022-11-15T20:49:46.394680</dc:date>
    <dc:format>image/svg+xml</dc:format>
    <dc:creator>
     <cc:Agent>
      <dc:title>Matplotlib v3.5.3, https://matplotlib.org/</dc:title>
     </cc:Agent>
    </dc:creator>
   </cc:Work>
  </rdf:RDF>
 </metadata>
 <defs>
  <style type="text/css">*{stroke-linejoin: round; stroke-linecap: butt}</style>
 </defs>
 <g id="figure_1">
  <g id="patch_1">
   <path d="M 0 360 
L 360 360 
L 360 0 
L 0 0 
z
" style="fill: #ffffff"/>
  </g>
  <g id="axes_1">
   <g id="patch_2">
    <path d="M 45 320.4 
L 324 320.4 
L 324 43.2 
L 45 43.2 
z
" style="fill: #ffffff"/>
   </g>
   <g id="matplotlib.axis_1">
    <g id="xtick_1">
     <g id="line2d_1">
      <defs>
       <path id="m1ef0df6f4b" d="M 0 0 
L 0 3.5 
" style="stroke: #000000; stroke-width: 0.8"/>
      </defs>
      <g>
       <use xlink:href="#m1ef0df6f4b" x="83.045455" y="320.4" style="stroke: #000000; stroke-width: 0.8"/>
      </g>
     </g>
     <g id="text_1">
      <!-- −2 -->
      <g transform="translate(75.674361 334.998438)scale(0.1 -0.1)">
       <defs>
        <path id="DejaVuSans-2212" d="M 678 2272 
L 4684 2272 
L 4684 1741 
L 678 1741 
L 678 2272 
z
" transform="scale(0.015625)"/>
        <path id="DejaVuSans-32" d="M 1228 531 
L 3431 531 
L 3431 0 
L 469 0 
L 469 531 
Q 828 903 1448 1529 
Q 2069 2156 2228 2338 
Q 2531 2678 2651 2914 
Q 2772 3150 2772 3378 
Q 2772 3750 2511 3984 
Q 2250 4219 1831 4219 
Q 1534 4219 1204 4116 
Q 875 4013 500 3803 
L 500 4441 
Q 881 4594 1212 4672 
Q 1544 4750 1819 4750 
Q 2544 4750 2975 4387 
Q 3406 4025 3406 3419 
Q 3406 3131 3298 2873 
Q 3191 2616 2906 2266 
Q 2828 2175 2409 1742 
Q 1991 1309 1228 531 
z
" transform="scale(0.015625)"/>
       </defs>
       <use xlink:href="#DejaVuSans-2212"/>
       <use xlink:href="#DejaVuSans-32" x="83.789062"/>
      </g>
     </g>
    </g>
    <g id="xtick_2">
     <g id="line2d_2">
      <g>
       <use xlink:href="#m1ef0df6f4b" x="133.772727" y="320.4" style="stroke: #000000; stroke-width: 0.8"/>
      </g>
     </g>
     <g id="text_2">
      <!-- −1 -->
      <g transform="translate(126.401634 334.998438)scale(0.1 -0.1)">
       <defs>
        <path id="DejaVuSans-31" d="M 794 531 
L 1825 531 
L 1825 4091 
L 703 3866 
L 703 4441 
L 1819 4666 
L 2450 4666 
L 2450 531 
L 3481 531 
L 3481 0 
L 794 0 
L 794 531 
z
" transform="scale(0.015625)"/>
       </defs>
       <use xlink:href="#DejaVuSans-2212"/>
       <use xlink:href="#DejaVuSans-31" x="83.789062"/>
      </g>
     </g>
    </g>
    <g id="xtick_3">
     <g id="line2d_3">
      <g>
       <use xlink:href="#m1ef0df6f4b" x="184.5" y="320.4" style="stroke: #000000; stroke-width: 0.8"/>
      </g>
     </g>
     <g id="text_3">
      <!-- 0 -->
      <g transform="translate(181.31875 334.998438)scale(0.1 -0.1)">
       <defs>
        <path id="DejaVuSans-30" d="M 2034 4250 
Q 1547 4250 1301 3770 
Q 1056 3291 1056 2328 
Q 1056 1369 1301 889 
Q 1547 409 2034 409 
Q 2525 409 2770 889 
Q 3016 1369 3016 2328 
Q 3016 3291 2770 3770 
Q 2525 4250 2034 4250 
z
M 2034 4750 
Q 2819 4750 3233 4129 
Q 3647 3509 3647 2328 
Q 3647 1150 3233 529 
Q 2819 -91 2034 -91 
Q 1250 -91 836 529 
Q 422 1150 422 2328 
Q 422 3509 836 4129 
Q 1250 4750 2034 4750 
z
" transform="scale(0.015625)"/>
       </defs>
       <use xlink:href="#DejaVuSans-30"/>
      </g>
     </g>
    </g>
    <g id="xtick_4">
     <g id="line2d_4">
      <g>
       <use xlink:href="#m1ef0df6f4b" x="235.227273" y="320.4" style="stroke: #000000; stroke-width: 0.8"/>
      </g>
     </g>
     <g id="text_4">
      <!-- 1 -->
      <g transform="translate(232.046023 334.998438)scale(0.1 -0.1)">
       <use xlink:href="#DejaVuSans-31"/>
      </g>
     </g>
    </g>
    <g id="xtick_5">
     <g id="line2d_5">
      <g>
       <use xlink:href="#m1ef0df6f4b" x="285.954545" y="320.4" style="stroke: #000000; stroke-width: 0.8"/>
      </g>
     </g>
     <g id="text_5">
      <!-- 2 -->
      <g transform="translate(282.773295 334.998438)scale(0.1 -0.1)">
       <use xlink:href="#DejaVuSans-32"/>
      </g>
     </g>
    </g>
   </g>
   <g id="matplotlib.axis_2">
    <g id="ytick_1">
     <g id="line2d_6">
      <defs>
       <path id="m1e57e47326" d="M 0 0 
L -3.5 0 
" style="stroke: #000000; stroke-width: 0.8"/>
      </defs>
      <g>
       <use xlink:href="#m1e57e47326" x="45" y="294.780539" style="stroke: #000000; stroke-width: 0.8"/>
      </g>
     </g>
     <g id="text_6">
      <!-- −1 -->
      <g transform="translate(23.257812 298.579757)scale(0.1 -0.1)">
       <use xlink:href="#DejaVuSans-2212"/>
       <use xlink:href="#DejaVuSans-31" x="83.789062"/>
      </g>
     </g>
    </g>
    <g id="ytick_2">
     <g id="line2d_7">
      <g>
       <use xlink:href="#m1e57e47326" x="45" y="261.960585" style="stroke: #000000; stroke-width: 0.8"/>
      </g>
     </g>
     <g id="text_7">
      <!-- 0 -->
      <g transform="translate(31.6375 265.759804)scale(0.1 -0.1)">
       <use xlink:href="#DejaVuSans-30"/>
      </g>
     </g>
    </g>
    <g id="ytick_3">
     <g id="line2d_8">
      <g>
       <use xlink:href="#m1e57e47326" x="45" y="229.140631" style="stroke: #000000; stroke-width: 0.8"/>
      </g>
     </g>
     <g id="text_8">
      <!-- 1 -->
      <g transform="translate(31.6375 232.93985)scale(0.1 -0.1)">
       <use xlink:href="#DejaVuSans-31"/>
      </g>
     </g>
    </g>
    <g id="ytick_4">
     <g id="line2d_9">
      <g>
       <use xlink:href="#m1e57e47326" x="45" y="196.320678" style="stroke: #000000; stroke-width: 0.8"/>
      </g>
     </g>
     <g id="text_9">
      <!-- 2 -->
      <g transform="translate(31.6375 200.119896)scale(0.1 -0.1)">
       <use xlink:href="#DejaVuSans-32"/>
      </g>
     </g>
    </g>
    <g id="ytick_5">
     <g id="line2d_10">
      <g>
       <use xlink:href="#m1e57e47326" x="45" y="163.500724" style="stroke: #000000; stroke-width: 0.8"/>
      </g>
     </g>
     <g id="text_10">
      <!-- 3 -->
      <g transform="translate(31.6375 167.299943)scale(0.1 -0.1)">
       <defs>
        <path id="DejaVuSans-33" d="M 2597 2516 
Q 3050 2419 3304 2112 
Q 3559 1806 3559 1356 
Q 3559 666 3084 287 
Q 2609 -91 1734 -91 
Q 1441 -91 1130 -33 
Q 819 25 488 141 
L 488 750 
Q 750 597 1062 519 
Q 1375 441 1716 441 
Q 2309 441 2620 675 
Q 2931 909 2931 1356 
Q 2931 1769 2642 2001 
Q 2353 2234 1838 2234 
L 1294 2234 
L 1294 2753 
L 1863 2753 
Q 2328 2753 2575 2939 
Q 2822 3125 2822 3475 
Q 2822 3834 2567 4026 
Q 2313 4219 1838 4219 
Q 1578 4219 1281 4162 
Q 984 4106 628 3988 
L 628 4550 
Q 988 4650 1302 4700 
Q 1616 4750 1894 4750 
Q 2613 4750 3031 4423 
Q 3450 4097 3450 3541 
Q 3450 3153 3228 2886 
Q 3006 2619 2597 2516 
z
" transform="scale(0.015625)"/>
       </defs>
       <use xlink:href="#DejaVuSans-33"/>
      </g>
     </g>
    </g>
    <g id="ytick_6">
     <g id="line2d_11">
      <g>
       <use xlink:href="#m1e57e47326" x="45" y="130.68077" style="stroke: #000000; stroke-width: 0.8"/>
      </g>
     </g>
     <g id="text_11">
      <!-- 4 -->
      <g transform="translate(31.6375 134.479989)scale(0.1 -0.1)">
       <defs>
        <path id="DejaVuSans-34" d="M 2419 4116 
L 825 1625 
L 2419 1625 
L 2419 4116 
z
M 2253 4666 
L 3047 4666 
L 3047 1625 
L 3713 1625 
L 3713 1100 
L 3047 1100 
L 3047 0 
L 2419 0 
L 2419 1100 
L 313 1100 
L 313 1709 
L 2253 4666 
z
" transform="scale(0.015625)"/>
       </defs>
       <use xlink:href="#DejaVuSans-34"/>
      </g>
     </g>
    </g>
    <g id="ytick_7">
     <g id="line2d_12">
      <g>
       <use xlink:href="#m1e57e47326" x="45" y="97.860816" style="stroke: #000000; stroke-width: 0.8"/>
      </g>
     </g>
     <g id="text_12">
      <!-- 5 -->
      <g transform="translate(31.6375 101.660035)scale(0.1 -0.1)">
       <defs>
        <path id="DejaVuSans-35" d="M 691 4666 
L 3169 4666 
L 3169 4134 
L 1269 4134 
L 1269 2991 
Q 1406 3038 1543 3061 
Q 1681 3084 1819 3084 
Q 2600 3084 3056 2656 
Q 3513 2228 3513 1497 
Q 3513 744 3044 326 
Q 2575 -91 1722 -91 
Q 1428 -91 1123 -41 
Q 819 9 494 109 
L 494 744 
Q 775 591 1075 516 
Q 1375 441 1709 441 
Q 2250 441 2565 725 
Q 2881 1009 2881 1497 
Q 2881 1984 2565 2268 
Q 2250 2553 1709 2553 
Q 1456 2553 1204 2497 
Q 953 2441 691 2322 
L 691 4666 
z
" transform="scale(0.015625)"/>
       </defs>
       <use xlink:href="#DejaVuSans-35"/>
      </g>
     </g>
    </g>
    <g id="ytick_8">
     <g id="line2d_13">
      <g>
       <use xlink:href="#m1e57e47326" x="45" y="65.040863" style="stroke: #000000; stroke-width: 0.8"/>
      </g>
     </g>
     <g id="text_13">
      <!-- 6 -->
      <g transform="translate(31.6375 68.840081)scale(0.1 -0.1)">
       <defs>
        <path id="DejaVuSans-36" d="M 2113 2584 
Q 1688 2584 1439 2293 
Q 1191 2003 1191 1497 
Q 1191 994 1439 701 
Q 1688 409 2113 409 
Q 2538 409 2786 701 
Q 3034 994 3034 1497 
Q 3034 2003 2786 2293 
Q 2538 2584 2113 2584 
z
M 3366 4563 
L 3366 3988 
Q 3128 4100 2886 4159 
Q 2644 4219 2406 4219 
Q 1781 4219 1451 3797 
Q 1122 3375 1075 2522 
Q 1259 2794 1537 2939 
Q 1816 3084 2150 3084 
Q 2853 3084 3261 2657 
Q 3669 2231 3669 1497 
Q 3669 778 3244 343 
Q 2819 -91 2113 -91 
Q 1303 -91 875 529 
Q 447 1150 447 2328 
Q 447 3434 972 4092 
Q 1497 4750 2381 4750 
Q 2619 4750 2861 4703 
Q 3103 4656 3366 4563 
z
" transform="scale(0.015625)"/>
       </defs>
       <use xlink:href="#DejaVuSans-36"/>
      </g>
     </g>
    </g>
   </g>
   <g id="line2d_14">
    <path d="M 57.681818 261.960594 
L 62.131574 254.83584 
L 64.038619 252.168624 
L 65.945664 249.96816 
L 67.21702 248.82986 
L 68.488375 247.99511 
L 69.759743 247.491283 
L 71.031098 247.338248 
L 72.302453 247.547697 
L 73.573821 248.122712 
L 74.845188 249.057469 
L 76.116544 250.337203 
L 77.387899 251.938368 
L 78.659254 253.829005 
L 80.566299 257.118647 
L 83.109022 262.089863 
L 88.194462 272.253511 
L 90.101501 275.485849 
L 91.372862 277.30015 
L 92.644224 278.779817 
L 93.915579 279.87895 
L 95.186941 280.559652 
L 96.458302 280.7931 
L 97.09398 280.735822 
L 97.729663 280.560521 
L 99.001025 279.853892 
L 100.272386 278.676446 
L 101.543748 277.042907 
L 102.815109 274.979473 
L 104.086458 272.523555 
L 105.993504 268.211397 
L 108.536226 261.615478 
L 114.257344 246.254242 
L 116.164389 241.994342 
L 117.435744 239.63666 
L 118.707106 237.750966 
L 119.978467 236.401874 
L 120.614145 235.94599 
L 121.249829 235.643752 
L 121.885506 235.500101 
L 122.521184 235.519139 
L 123.156868 235.704109 
L 123.792545 236.057346 
L 124.428223 236.58026 
L 125.063907 237.273312 
L 126.335268 239.166709 
L 127.606623 241.721404 
L 128.877991 244.905202 
L 130.149352 248.66988 
L 132.056391 255.262488 
L 133.963431 262.738675 
L 141.59159 293.932736 
L 142.862951 298.054045 
L 144.13431 301.513627 
L 145.405671 304.187594 
L 146.041349 305.193687 
L 146.67703 305.961218 
L 147.31271 306.477688 
L 147.948391 306.731484 
L 148.584072 306.711949 
L 149.219749 306.409412 
L 149.85543 305.815315 
L 150.491111 304.922183 
L 151.126789 303.723766 
L 151.762469 302.215003 
L 153.033831 298.252637 
L 154.305195 293.020667 
L 155.576557 286.526326 
L 156.847915 278.798955 
L 158.119276 269.889979 
L 160.026315 254.477093 
L 161.933355 236.90992 
L 164.476068 210.892647 
L 168.925829 161.848303 
L 172.104235 127.735577 
L 174.011274 109.051719 
L 175.91832 92.442959 
L 177.18968 82.79226 
L 178.46104 74.445391 
L 179.732393 67.524654 
L 181.003753 62.13193 
L 181.639433 60.034391 
L 182.275114 58.346938 
L 182.910794 57.075848 
L 183.546474 56.225815 
L 184.182154 55.8 
L 184.817839 55.8 
L 185.453519 56.225799 
L 186.089199 57.075832 
L 186.724879 58.346938 
L 187.360559 60.034375 
L 187.996239 62.131898 
L 189.2676 67.524622 
L 190.538964 74.445391 
L 191.810325 82.792291 
L 193.081685 92.443006 
L 194.98873 109.05175 
L 196.895771 127.735624 
L 199.438491 154.83787 
L 205.79529 224.210839 
L 208.33801 248.841364 
L 210.245049 265.014516 
L 212.152088 278.798982 
L 213.42345 286.526355 
L 214.694811 293.020692 
L 215.966169 298.252637 
L 217.237528 302.214995 
L 217.873208 303.723758 
L 218.508889 304.922183 
L 219.14457 305.815315 
L 219.780251 306.409412 
L 220.415928 306.711949 
L 221.051609 306.731484 
L 221.68729 306.477688 
L 222.322967 305.961222 
L 222.958648 305.193695 
L 223.594329 304.187594 
L 224.86569 301.513627 
L 226.137049 298.054045 
L 227.408407 293.932749 
L 229.315449 286.796625 
L 231.858169 276.208724 
L 235.672253 260.168307 
L 237.579292 252.951654 
L 239.486331 246.718546 
L 240.757693 243.237302 
L 242.029054 240.363035 
L 243.300416 238.135963 
L 244.571771 236.580264 
L 245.207455 236.057346 
L 245.843132 235.704109 
L 246.47881 235.519141 
L 247.114494 235.500101 
L 247.750171 235.643752 
L 248.385855 235.94599 
L 249.021533 236.401874 
L 250.292894 237.750966 
L 251.56425 239.636659 
L 252.835611 241.994342 
L 254.106973 244.750981 
L 256.014012 249.458535 
L 259.192412 258.11884 
L 262.370813 266.635959 
L 264.277852 271.162972 
L 265.549213 273.79781 
L 266.820575 276.062855 
L 268.091936 277.915324 
L 269.363297 279.323375 
L 270.634659 280.266524 
L 271.906014 280.735824 
L 272.541698 280.7931 
L 273.177376 280.733701 
L 274.448737 280.273633 
L 275.720098 279.37952 
L 276.991454 278.084858 
L 278.262815 276.431689 
L 279.534177 274.469428 
L 281.441222 271.069037 
L 283.983945 266.004868 
L 287.798011 258.312365 
L 289.705056 254.870723 
L 291.612101 251.938368 
L 292.883456 250.337203 
L 294.154824 249.057463 
L 295.426179 248.122712 
L 296.697535 247.547699 
L 297.96889 247.338248 
L 299.240257 247.491283 
L 300.511613 247.995102 
L 301.78298 248.82986 
L 303.054336 249.96816 
L 304.325703 251.375944 
L 306.232736 253.904376 
L 308.775471 257.810809 
L 311.318182 261.960594 
L 311.318182 261.960594 
" clip-path="url(#pf7b40122ea)" style="fill: none; stroke: #1f77b4; stroke-width: 1.5; stroke-linecap: square"/>
   </g>
   <g id="line2d_15">
    <path d="M 57.681818 195.535118 
L 59.588863 198.096403 
L 61.495896 201.034994 
L 63.402942 204.37759 
L 65.309987 208.142414 
L 67.21702 212.335631 
L 69.759743 218.573819 
L 72.302453 225.477648 
L 75.480866 234.815026 
L 83.109022 257.676418 
L 85.651745 264.374307 
L 87.558784 268.772023 
L 89.465823 272.500986 
L 90.737185 274.561609 
L 92.00854 276.24742 
L 93.279902 277.531535 
L 94.551263 278.389835 
L 95.822624 278.801615 
L 96.458302 278.834774 
L 97.09398 278.750644 
L 97.729663 278.54807 
L 99.001025 277.785658 
L 100.272386 276.549215 
L 101.543748 274.850985 
L 102.815109 272.715735 
L 104.086458 270.182243 
L 105.993504 265.755811 
L 108.536226 259.070788 
L 112.350305 248.81387 
L 114.257344 244.248376 
L 115.528705 241.596196 
L 116.800067 239.331505 
L 118.071428 237.506383 
L 119.342783 236.163956 
L 120.614145 235.340179 
L 121.249829 235.132624 
L 121.885506 235.065968 
L 122.521184 235.143515 
L 123.156868 235.36834 
L 123.792545 235.743316 
L 124.428223 236.271115 
L 125.699584 237.79417 
L 126.970946 239.951458 
L 128.242307 242.747544 
L 129.513669 246.173088 
L 130.78503 250.199645 
L 132.692069 257.243754 
L 134.599111 265.218581 
L 140.320232 289.867206 
L 141.59159 294.416489 
L 142.862951 298.295549 
L 144.13431 301.389709 
L 145.405671 303.609529 
L 146.041349 304.369918 
L 146.67703 304.888238 
L 147.31271 305.158986 
L 147.948391 305.177441 
L 148.584072 304.939534 
L 149.219749 304.441728 
L 149.85543 303.680797 
L 150.491111 302.65376 
L 151.126789 301.357832 
L 152.39815 297.948259 
L 153.669511 293.430818 
L 154.940876 287.785562 
L 156.212234 280.996392 
L 157.483596 273.054954 
L 158.754957 263.96651 
L 160.661995 248.246466 
L 162.569035 230.217767 
L 165.111749 203.289741 
L 172.739914 118.722221 
L 174.64696 101.000554 
L 175.91832 90.652354 
L 177.18968 81.616054 
L 178.46104 73.971312 
L 179.732393 67.768263 
L 181.003753 63.033989 
L 181.639433 61.221557 
L 182.275114 59.779464 
L 182.910794 58.707678 
L 183.546474 58.005793 
L 184.182154 57.673356 
L 184.817839 57.709903 
L 185.453519 58.115234 
L 186.089199 58.889215 
L 186.724879 60.032073 
L 187.360559 61.544287 
L 187.996239 63.426468 
L 189.2676 68.303446 
L 190.538964 74.665235 
L 191.810325 82.501138 
L 193.081685 91.77384 
L 194.353045 102.404257 
L 196.26009 120.588896 
L 198.802811 147.889133 
L 205.79529 225.466478 
L 208.33801 250.163776 
L 210.245049 266.440067 
L 212.152088 280.329135 
L 213.42345 288.081552 
L 214.694811 294.540181 
L 215.966169 299.670509 
L 217.237528 303.476614 
L 217.873208 304.894185 
L 218.508889 305.997846 
L 219.14457 306.796871 
L 219.780251 307.301726 
L 220.415928 307.523917 
L 221.051609 307.47568 
L 221.68729 307.169783 
L 222.322967 306.619315 
L 222.958648 305.83763 
L 224.230009 303.63432 
L 225.501368 300.667269 
L 226.772729 297.043297 
L 228.679768 290.60875 
L 230.586807 283.298834 
L 238.214976 252.843121 
L 240.122015 246.75859 
L 241.39337 243.369541 
L 242.664732 240.590038 
L 243.936093 238.468478 
L 245.207455 237.037745 
L 245.843132 236.587465 
L 246.47881 236.314987 
L 247.114494 236.21992 
L 247.750171 236.300776 
L 248.385855 236.554966 
L 249.021533 236.97877 
L 249.657211 237.567456 
L 250.928572 239.214434 
L 252.199933 241.434928 
L 253.471295 244.150789 
L 255.378334 248.945364 
L 258.556734 257.945763 
L 261.099451 265.050194 
L 263.00649 269.815777 
L 264.913529 273.843244 
L 266.184897 276.048503 
L 267.456258 277.844904 
L 268.72762 279.226473 
L 269.998975 280.19765 
L 271.270337 280.770761 
L 272.541698 280.963359 
L 273.813059 280.796348 
L 275.084415 280.29204 
L 276.355776 279.473415 
L 277.627138 278.362972 
L 278.898499 276.982508 
L 280.169854 275.352933 
L 282.076899 272.484803 
L 283.983945 269.164908 
L 285.890984 265.454719 
L 288.433701 260.004924 
L 291.612101 252.585987 
L 296.697535 239.982377 
L 302.418658 225.952816 
L 305.597058 218.709209 
L 308.775471 212.071799 
L 311.318182 207.265171 
L 311.318182 207.265171 
" clip-path="url(#pf7b40122ea)" style="fill: none; stroke: #ff7f0e; stroke-width: 1.5; stroke-linecap: square"/>
   </g>
   <g id="line2d_16">
    <path d="M 57.681818 196.801775 
L 59.588863 199.345231 
L 61.495896 202.263382 
L 63.402942 205.582777 
L 65.309987 209.321422 
L 67.21702 213.485466 
L 69.759743 219.680038 
L 72.302453 226.535249 
L 75.480866 235.805885 
L 83.109022 258.496022 
L 85.651745 265.139457 
L 87.558784 269.498987 
L 89.465823 273.192662 
L 90.737185 275.231597 
L 92.00854 276.897253 
L 93.279902 278.162772 
L 94.551263 279.004037 
L 95.822624 279.400274 
L 96.458302 279.426223 
L 97.09398 279.335145 
L 97.729663 279.125969 
L 99.001025 278.351195 
L 100.272386 277.103316 
L 101.543748 275.394343 
L 102.815109 273.2487 
L 104.086458 270.705009 
L 105.993504 266.262917 
L 108.536226 259.555457 
L 112.350305 249.260575 
L 114.257344 244.674641 
L 115.528705 242.008534 
L 116.800067 239.729792 
L 118.071428 237.890592 
L 119.342783 236.53403 
L 120.614145 235.696006 
L 121.249829 235.481254 
L 121.885506 235.407421 
L 122.521184 235.477671 
L 123.156868 235.69513 
L 123.792545 236.062665 
L 124.428223 236.582944 
L 125.699584 238.090588 
L 126.970946 240.232115 
L 128.242307 243.012099 
L 129.513669 246.421342 
L 130.78503 250.4318 
L 132.692069 257.452971 
L 134.599111 265.407901 
L 140.320232 290.029424 
L 141.59159 294.580003 
L 142.862951 298.462398 
L 144.13431 301.561515 
L 145.405671 303.787476 
L 146.041349 304.551232 
L 146.67703 305.07309 
L 147.31271 305.347501 
L 147.948391 305.369723 
L 148.584072 305.135634 
L 149.219749 304.641727 
L 149.85543 303.884779 
L 150.491111 302.861808 
L 151.126789 301.570005 
L 152.39815 298.168902 
L 153.669511 293.660328 
L 154.940876 288.024344 
L 156.212234 281.244838 
L 157.483596 273.31342 
L 158.754957 264.235068 
L 160.661995 248.52984 
L 162.569035 230.514353 
L 165.111749 203.598933 
L 172.739914 119.01967 
L 174.64696 101.286505 
L 175.91832 90.93033 
L 177.18968 81.886263 
L 178.46104 74.234463 
L 179.732393 68.025447 
L 181.003753 63.286742 
L 181.639433 61.472761 
L 182.275114 60.029664 
L 182.910794 58.957326 
L 183.546474 58.255684 
L 184.182154 57.924003 
L 184.817839 57.962048 
L 185.453519 58.369568 
L 186.089199 59.146579 
L 186.724879 60.293238 
L 187.360559 61.810045 
L 187.996239 63.697596 
L 189.2676 68.587649 
L 190.538964 74.964932 
L 191.810325 82.817769 
L 193.081685 92.107255 
L 194.353045 102.752263 
L 196.26009 120.950148 
L 198.802811 148.242977 
L 205.79529 225.680889 
L 208.33801 250.335808 
L 210.245049 266.598489 
L 212.152088 280.490699 
L 213.42345 288.253425 
L 214.694811 294.727337 
L 215.966169 299.876316 
L 217.237528 303.702921 
L 217.873208 305.130892 
L 218.508889 306.244921 
L 219.14457 307.054022 
L 219.780251 307.56861 
L 220.415928 307.8 
L 221.051609 307.760359 
L 221.68729 307.462356 
L 222.322967 306.919066 
L 222.958648 306.143683 
L 224.230009 303.950398 
L 225.501368 300.989727 
L 226.772729 297.368581 
L 228.679768 290.931696 
L 230.586807 283.612375 
L 238.214976 253.072464 
L 240.122015 246.962253 
L 241.39337 243.556522 
L 242.664732 240.761007 
L 243.936093 238.624394 
L 245.207455 237.179724 
L 245.843132 236.722947 
L 246.47881 236.444306 
L 247.114494 236.343412 
L 247.750171 236.418758 
L 248.385855 236.667773 
L 249.021533 237.086729 
L 249.657211 237.670834 
L 250.928572 239.309482 
L 252.199933 241.522568 
L 253.471295 244.231637 
L 255.378334 249.016501 
L 258.556734 257.999181 
L 261.099451 265.085923 
L 263.00649 269.835402 
L 264.913529 273.844444 
L 266.184897 276.036218 
L 267.456258 277.818328 
L 268.72762 279.185007 
L 269.998975 280.140825 
L 271.270337 280.698278 
L 272.541698 280.875066 
L 273.813059 280.692245 
L 275.084415 280.172281 
L 276.355776 279.338313 
L 277.627138 278.213047 
L 278.898499 276.818316 
L 280.805538 274.267019 
L 282.712583 271.224022 
L 284.619622 267.753208 
L 287.162333 262.566083 
L 289.705056 256.871967 
L 293.519146 247.698242 
L 303.054336 224.363021 
L 306.232736 217.293299 
L 308.775471 212.090234 
L 311.318182 207.339159 
L 311.318182 207.339159 
" clip-path="url(#pf7b40122ea)" style="fill: none; stroke: #2ca02c; stroke-width: 1.5; stroke-linecap: square"/>
   </g>
   <g id="line2d_17">
    <path d="M 57.681818 194.980282 
L 59.588863 197.547232 
L 61.495896 200.492066 
L 63.402942 203.841564 
L 65.309987 207.613863 
L 67.21702 211.815045 
L 69.759743 218.064563 
L 72.302453 224.980221 
L 75.480866 234.332414 
L 83.109022 257.223111 
L 85.651745 263.926664 
L 87.558784 268.32668 
L 89.465823 272.056088 
L 90.737185 274.115821 
L 92.00854 275.799807 
L 93.279902 277.081124 
L 94.551263 277.935666 
L 95.822624 278.342785 
L 96.458302 278.373283 
L 97.09398 278.286317 
L 97.729663 278.080699 
L 99.001025 277.311876 
L 100.272386 276.068631 
L 101.543748 274.363596 
L 102.815109 272.221756 
L 104.086458 269.682404 
L 105.993504 265.249226 
L 108.536226 258.560807 
L 112.350305 248.313137 
L 114.257344 243.758224 
L 115.528705 241.114825 
L 116.800067 238.859986 
L 118.071428 237.045545 
L 119.342783 235.714446 
L 120.614145 234.902475 
L 121.249829 234.700957 
L 121.885506 234.640425 
L 122.521184 234.724175 
L 123.156868 234.955262 
L 123.792545 235.336519 
L 124.428223 235.870634 
L 125.699584 237.4063 
L 126.970946 239.57598 
L 128.242307 242.383845 
L 129.513669 245.820115 
L 130.78503 249.855655 
L 132.692069 256.908431 
L 134.599111 264.88382 
L 139.684551 287.000225 
L 141.59159 293.997755 
L 142.862951 297.850645 
L 144.13431 300.917734 
L 145.405671 303.110682 
L 146.041349 303.858037 
L 146.67703 304.36376 
L 147.31271 304.622419 
L 147.948391 304.629344 
L 148.584072 304.380638 
L 149.219749 303.872693 
L 149.85543 303.102474 
L 150.491111 302.066928 
L 151.126789 300.763334 
L 152.39815 297.34101 
L 153.669511 292.814366 
L 154.940876 287.163366 
L 156.212234 280.371798 
L 157.483596 272.431209 
L 158.754957 263.346664 
L 160.661995 247.637742 
L 162.569035 229.62605 
L 165.111749 202.72834 
L 172.739914 118.281376 
L 174.64696 100.591342 
L 175.91832 90.263994 
L 177.18968 81.248691 
L 178.46104 73.625233 
L 179.732393 67.443964 
L 181.003753 62.732098 
L 181.639433 60.93106 
L 182.275114 59.500452 
L 182.910794 58.440242 
L 183.546474 57.749899 
L 184.182154 57.429016 
L 184.817839 57.476905 
L 185.453519 57.893204 
L 186.089199 58.677868 
L 186.724879 59.830818 
L 187.360559 61.352602 
L 187.996239 63.243596 
L 189.2676 68.135809 
L 190.538964 74.509382 
L 191.810325 82.353675 
L 193.081685 91.632253 
L 194.353045 102.266854 
L 196.26009 120.457884 
L 198.802811 147.773429 
L 205.79529 225.432993 
L 208.33801 250.144546 
L 210.245049 266.414692 
L 212.152088 280.2818 
L 213.42345 288.011442 
L 214.694811 294.441903 
L 215.966169 299.539897 
L 217.237528 303.31071 
L 217.873208 304.70998 
L 218.508889 305.795018 
L 219.14457 306.575159 
L 219.780251 307.0611 
L 220.415928 307.264375 
L 221.051609 307.197425 
L 221.68729 306.872919 
L 222.322967 306.304159 
L 222.958648 305.504464 
L 224.230009 303.266343 
L 225.501368 300.266399 
L 226.772729 296.611746 
L 228.679768 290.136275 
L 230.586807 282.792454 
L 238.214976 252.286492 
L 240.122015 246.209254 
L 241.39337 242.82787 
L 242.664732 240.057489 
L 243.936093 237.94597 
L 245.207455 236.525472 
L 245.843132 236.080236 
L 246.47881 235.812609 
L 247.114494 235.722232 
L 247.750171 235.807515 
L 248.385855 236.065858 
L 249.021533 236.49355 
L 249.657211 237.085742 
L 250.928572 238.738706 
L 252.199933 240.96365 
L 253.471295 243.682422 
L 255.378334 248.478855 
L 258.556734 257.476731 
L 261.099451 264.575961 
L 263.00649 269.33674 
L 264.913529 273.359186 
L 266.184897 275.56121 
L 267.456258 277.354518 
L 268.72762 278.733224 
L 269.998975 279.70182 
L 271.270337 280.272551 
L 272.541698 280.463103 
L 273.813059 280.29443 
L 275.084415 279.78884 
L 276.355776 278.969316 
L 277.627138 277.858472 
L 278.898499 276.478084 
L 280.805538 273.947813 
L 282.712583 270.925043 
L 284.619622 267.47311 
L 287.162333 262.308779 
L 289.705056 256.633983 
L 293.519146 247.48187 
L 303.054336 224.161503 
L 306.232736 217.087399 
L 308.775471 211.879013 
L 311.318182 207.121701 
L 311.318182 207.121701 
" clip-path="url(#pf7b40122ea)" style="fill: none; stroke: #d62728; stroke-width: 1.5; stroke-linecap: square"/>
   </g>
   <g id="line2d_18">
    <path d="M 57.681818 194.654258 
L 59.588863 197.21694 
L 61.495896 200.158292 
L 63.402942 203.505489 
L 65.309987 207.277178 
L 67.21702 211.480214 
L 69.759743 217.736798 
L 72.302453 224.666142 
L 75.480866 234.046021 
L 83.109022 257.047357 
L 85.651745 263.795273 
L 87.558784 268.228138 
L 89.465823 271.988673 
L 90.737185 274.067812 
L 92.00854 275.769764 
L 93.279902 277.06751 
L 94.551263 277.936906 
L 95.822624 278.357276 
L 96.458302 278.393825 
L 97.09398 278.312577 
L 97.729663 278.112377 
L 99.001025 277.353508 
L 100.272386 276.119407 
L 101.543748 274.423064 
L 102.815109 272.289992 
L 104.086458 269.759672 
L 105.993504 265.341592 
L 108.536226 258.676808 
L 112.350305 248.470088 
L 114.257344 243.935066 
L 115.528705 241.303385 
L 116.800067 239.058374 
L 118.071428 237.251349 
L 119.342783 235.924804 
L 120.614145 235.114267 
L 121.249829 234.91226 
L 121.885506 234.850349 
L 122.521184 234.931853 
L 123.156868 235.159828 
L 123.792545 235.537179 
L 124.428223 236.066583 
L 125.699584 237.590593 
L 126.970946 239.74608 
L 128.242307 242.537968 
L 129.513669 245.957564 
L 130.78503 249.976981 
L 132.692069 257.009972 
L 134.599111 264.975536 
L 140.320232 289.628461 
L 141.59159 294.186771 
L 142.862951 298.07757 
L 144.13431 301.185819 
L 145.405671 303.421858 
L 146.041349 304.191053 
L 146.67703 304.718599 
L 147.31271 304.998957 
L 147.948391 305.027455 
L 148.584072 304.799946 
L 149.219749 304.312878 
L 149.85543 303.562996 
L 150.491111 302.54738 
L 151.126789 301.263184 
L 152.39815 297.877871 
L 153.669511 293.385674 
L 154.940876 287.766271 
L 156.212234 281.003116 
L 157.483596 273.08728 
L 158.754957 264.023201 
L 160.661995 248.335367 
L 162.569035 230.330538 
L 165.111749 203.41569 
L 172.739914 118.741574 
L 174.64696 100.971256 
L 175.91832 90.59001 
L 177.18968 81.52131 
L 178.46104 73.845816 
L 179.732393 67.614327 
L 181.003753 62.854558 
L 181.639433 61.030686 
L 182.275114 59.578074 
L 182.910794 58.496785 
L 183.546474 57.78652 
L 184.182154 57.446794 
L 184.817839 57.477327 
L 185.453519 57.877883 
L 186.089199 58.648509 
L 186.724879 59.789299 
L 187.360559 61.300895 
L 187.996239 63.183923 
L 189.2676 68.066825 
L 190.538964 74.439913 
L 191.810325 82.291467 
L 193.081685 91.582644 
L 194.353045 102.232314 
L 196.26009 120.441687 
L 198.802811 147.755095 
L 205.79529 225.232617 
L 208.33801 249.88248 
L 210.245049 266.132524 
L 212.152088 280.00522 
L 213.42345 287.751858 
L 214.694811 294.208258 
L 215.966169 299.339177 
L 217.237528 303.14787 
L 217.873208 304.567351 
L 218.508889 305.673149 
L 219.14457 306.474456 
L 219.780251 306.981697 
L 220.415928 307.206357 
L 221.051609 307.160535 
L 221.68729 306.857078 
L 222.322967 306.308874 
L 222.958648 305.529374 
L 224.230009 303.329971 
L 225.501368 300.366076 
L 226.772729 296.74457 
L 228.679768 290.312388 
L 230.586807 283.003568 
L 238.214976 252.543333 
L 240.122015 246.455 
L 241.39337 243.062224 
L 242.664732 240.277969 
L 243.936093 238.150229 
L 245.207455 236.712043 
L 245.843132 236.257475 
L 246.47881 235.980412 
L 247.114494 235.880406 
L 247.750171 235.955998 
L 248.385855 236.204657 
L 249.021533 236.622682 
L 249.657211 237.205445 
L 250.928572 238.840204 
L 252.199933 241.04845 
L 253.471295 243.75252 
L 255.378334 248.53183 
L 258.556734 257.51705 
L 261.099451 264.620396 
L 263.00649 269.391089 
L 264.913529 273.427408 
L 266.184897 275.63984 
L 267.456258 277.443899 
L 268.72762 278.833255 
L 269.998975 279.811937 
L 271.270337 280.392059 
L 272.541698 280.590756 
L 273.813059 280.428922 
L 275.084415 279.928645 
L 276.355776 279.112815 
L 277.627138 278.003738 
L 278.898499 276.623264 
L 280.169854 274.992182 
L 282.076899 272.118758 
L 283.983945 268.789707 
L 285.890984 265.066329 
L 288.433701 259.59228 
L 291.612101 252.131908 
L 296.697535 239.436633 
L 302.418658 225.273846 
L 305.597058 217.948117 
L 308.775471 211.227149 
L 311.318182 206.354898 
L 311.318182 206.354898 
" clip-path="url(#pf7b40122ea)" style="fill: none; stroke: #9467bd; stroke-width: 1.5; stroke-linecap: square"/>
   </g>
   <g id="patch_3">
    <path d="M 45 320.4 
L 45 43.2 
" style="fill: none; stroke: #000000; stroke-width: 0.8; stroke-linejoin: miter; stroke-linecap: square"/>
   </g>
   <g id="patch_4">
    <path d="M 324 320.4 
L 324 43.2 
" style="fill: none; stroke: #000000; stroke-width: 0.8; stroke-linejoin: miter; stroke-linecap: square"/>
   </g>
   <g id="patch_5">
    <path d="M 45 320.4 
L 324 320.4 
" style="fill: none; stroke: #000000; stroke-width: 0.8; stroke-linejoin: miter; stroke-linecap: square"/>
   </g>
   <g id="patch_6">
    <path d="M 45 43.2 
L 324 43.2 
" style="fill: none; stroke: #000000; stroke-width: 0.8; stroke-linejoin: miter; stroke-linecap: square"/>
   </g>
   <g id="text_14">
    <!-- Prediction Curves -->
    <g transform="translate(131.961563 37.2)scale(0.12 -0.12)">
     <defs>
      <path id="DejaVuSans-50" d="M 1259 4147 
L 1259 2394 
L 2053 2394 
Q 2494 2394 2734 2622 
Q 2975 2850 2975 3272 
Q 2975 3691 2734 3919 
Q 2494 4147 2053 4147 
L 1259 4147 
z
M 628 4666 
L 2053 4666 
Q 2838 4666 3239 4311 
Q 3641 3956 3641 3272 
Q 3641 2581 3239 2228 
Q 2838 1875 2053 1875 
L 1259 1875 
L 1259 0 
L 628 0 
L 628 4666 
z
" transform="scale(0.015625)"/>
      <path id="DejaVuSans-72" d="M 2631 2963 
Q 2534 3019 2420 3045 
Q 2306 3072 2169 3072 
Q 1681 3072 1420 2755 
Q 1159 2438 1159 1844 
L 1159 0 
L 581 0 
L 581 3500 
L 1159 3500 
L 1159 2956 
Q 1341 3275 1631 3429 
Q 1922 3584 2338 3584 
Q 2397 3584 2469 3576 
Q 2541 3569 2628 3553 
L 2631 2963 
z
" transform="scale(0.015625)"/>
      <path id="DejaVuSans-65" d="M 3597 1894 
L 3597 1613 
L 953 1613 
Q 991 1019 1311 708 
Q 1631 397 2203 397 
Q 2534 397 2845 478 
Q 3156 559 3463 722 
L 3463 178 
Q 3153 47 2828 -22 
Q 2503 -91 2169 -91 
Q 1331 -91 842 396 
Q 353 884 353 1716 
Q 353 2575 817 3079 
Q 1281 3584 2069 3584 
Q 2775 3584 3186 3129 
Q 3597 2675 3597 1894 
z
M 3022 2063 
Q 3016 2534 2758 2815 
Q 2500 3097 2075 3097 
Q 1594 3097 1305 2825 
Q 1016 2553 972 2059 
L 3022 2063 
z
" transform="scale(0.015625)"/>
      <path id="DejaVuSans-64" d="M 2906 2969 
L 2906 4863 
L 3481 4863 
L 3481 0 
L 2906 0 
L 2906 525 
Q 2725 213 2448 61 
Q 2172 -91 1784 -91 
Q 1150 -91 751 415 
Q 353 922 353 1747 
Q 353 2572 751 3078 
Q 1150 3584 1784 3584 
Q 2172 3584 2448 3432 
Q 2725 3281 2906 2969 
z
M 947 1747 
Q 947 1113 1208 752 
Q 1469 391 1925 391 
Q 2381 391 2643 752 
Q 2906 1113 2906 1747 
Q 2906 2381 2643 2742 
Q 2381 3103 1925 3103 
Q 1469 3103 1208 2742 
Q 947 2381 947 1747 
z
" transform="scale(0.015625)"/>
      <path id="DejaVuSans-69" d="M 603 3500 
L 1178 3500 
L 1178 0 
L 603 0 
L 603 3500 
z
M 603 4863 
L 1178 4863 
L 1178 4134 
L 603 4134 
L 603 4863 
z
" transform="scale(0.015625)"/>
      <path id="DejaVuSans-63" d="M 3122 3366 
L 3122 2828 
Q 2878 2963 2633 3030 
Q 2388 3097 2138 3097 
Q 1578 3097 1268 2742 
Q 959 2388 959 1747 
Q 959 1106 1268 751 
Q 1578 397 2138 397 
Q 2388 397 2633 464 
Q 2878 531 3122 666 
L 3122 134 
Q 2881 22 2623 -34 
Q 2366 -91 2075 -91 
Q 1284 -91 818 406 
Q 353 903 353 1747 
Q 353 2603 823 3093 
Q 1294 3584 2113 3584 
Q 2378 3584 2631 3529 
Q 2884 3475 3122 3366 
z
" transform="scale(0.015625)"/>
      <path id="DejaVuSans-74" d="M 1172 4494 
L 1172 3500 
L 2356 3500 
L 2356 3053 
L 1172 3053 
L 1172 1153 
Q 1172 725 1289 603 
Q 1406 481 1766 481 
L 2356 481 
L 2356 0 
L 1766 0 
Q 1100 0 847 248 
Q 594 497 594 1153 
L 594 3053 
L 172 3053 
L 172 3500 
L 594 3500 
L 594 4494 
L 1172 4494 
z
" transform="scale(0.015625)"/>
      <path id="DejaVuSans-6f" d="M 1959 3097 
Q 1497 3097 1228 2736 
Q 959 2375 959 1747 
Q 959 1119 1226 758 
Q 1494 397 1959 397 
Q 2419 397 2687 759 
Q 2956 1122 2956 1747 
Q 2956 2369 2687 2733 
Q 2419 3097 1959 3097 
z
M 1959 3584 
Q 2709 3584 3137 3096 
Q 3566 2609 3566 1747 
Q 3566 888 3137 398 
Q 2709 -91 1959 -91 
Q 1206 -91 779 398 
Q 353 888 353 1747 
Q 353 2609 779 3096 
Q 1206 3584 1959 3584 
z
" transform="scale(0.015625)"/>
      <path id="DejaVuSans-6e" d="M 3513 2113 
L 3513 0 
L 2938 0 
L 2938 2094 
Q 2938 2591 2744 2837 
Q 2550 3084 2163 3084 
Q 1697 3084 1428 2787 
Q 1159 2491 1159 1978 
L 1159 0 
L 581 0 
L 581 3500 
L 1159 3500 
L 1159 2956 
Q 1366 3272 1645 3428 
Q 1925 3584 2291 3584 
Q 2894 3584 3203 3211 
Q 3513 2838 3513 2113 
z
" transform="scale(0.015625)"/>
      <path id="DejaVuSans-20" transform="scale(0.015625)"/>
      <path id="DejaVuSans-43" d="M 4122 4306 
L 4122 3641 
Q 3803 3938 3442 4084 
Q 3081 4231 2675 4231 
Q 1875 4231 1450 3742 
Q 1025 3253 1025 2328 
Q 1025 1406 1450 917 
Q 1875 428 2675 428 
Q 3081 428 3442 575 
Q 3803 722 4122 1019 
L 4122 359 
Q 3791 134 3420 21 
Q 3050 -91 2638 -91 
Q 1578 -91 968 557 
Q 359 1206 359 2328 
Q 359 3453 968 4101 
Q 1578 4750 2638 4750 
Q 3056 4750 3426 4639 
Q 3797 4528 4122 4306 
z
" transform="scale(0.015625)"/>
      <path id="DejaVuSans-75" d="M 544 1381 
L 544 3500 
L 1119 3500 
L 1119 1403 
Q 1119 906 1312 657 
Q 1506 409 1894 409 
Q 2359 409 2629 706 
Q 2900 1003 2900 1516 
L 2900 3500 
L 3475 3500 
L 3475 0 
L 2900 0 
L 2900 538 
Q 2691 219 2414 64 
Q 2138 -91 1772 -91 
Q 1169 -91 856 284 
Q 544 659 544 1381 
z
M 1991 3584 
L 1991 3584 
z
" transform="scale(0.015625)"/>
      <path id="DejaVuSans-76" d="M 191 3500 
L 800 3500 
L 1894 563 
L 2988 3500 
L 3597 3500 
L 2284 0 
L 1503 0 
L 191 3500 
z
" transform="scale(0.015625)"/>
      <path id="DejaVuSans-73" d="M 2834 3397 
L 2834 2853 
Q 2591 2978 2328 3040 
Q 2066 3103 1784 3103 
Q 1356 3103 1142 2972 
Q 928 2841 928 2578 
Q 928 2378 1081 2264 
Q 1234 2150 1697 2047 
L 1894 2003 
Q 2506 1872 2764 1633 
Q 3022 1394 3022 966 
Q 3022 478 2636 193 
Q 2250 -91 1575 -91 
Q 1294 -91 989 -36 
Q 684 19 347 128 
L 347 722 
Q 666 556 975 473 
Q 1284 391 1588 391 
Q 1994 391 2212 530 
Q 2431 669 2431 922 
Q 2431 1156 2273 1281 
Q 2116 1406 1581 1522 
L 1381 1569 
Q 847 1681 609 1914 
Q 372 2147 372 2553 
Q 372 3047 722 3315 
Q 1072 3584 1716 3584 
Q 2034 3584 2315 3537 
Q 2597 3491 2834 3397 
z
" transform="scale(0.015625)"/>
     </defs>
     <use xlink:href="#DejaVuSans-50"/>
     <use xlink:href="#DejaVuSans-72" x="58.552734"/>
     <use xlink:href="#DejaVuSans-65" x="97.416016"/>
     <use xlink:href="#DejaVuSans-64" x="158.939453"/>
     <use xlink:href="#DejaVuSans-69" x="222.416016"/>
     <use xlink:href="#DejaVuSans-63" x="250.199219"/>
     <use xlink:href="#DejaVuSans-74" x="305.179688"/>
     <use xlink:href="#DejaVuSans-69" x="344.388672"/>
     <use xlink:href="#DejaVuSans-6f" x="372.171875"/>
     <use xlink:href="#DejaVuSans-6e" x="433.353516"/>
     <use xlink:href="#DejaVuSans-20" x="496.732422"/>
     <use xlink:href="#DejaVuSans-43" x="528.519531"/>
     <use xlink:href="#DejaVuSans-75" x="598.34375"/>
     <use xlink:href="#DejaVuSans-72" x="661.722656"/>
     <use xlink:href="#DejaVuSans-76" x="702.835938"/>
     <use xlink:href="#DejaVuSans-65" x="762.015625"/>
     <use xlink:href="#DejaVuSans-73" x="823.539062"/>
    </g>
   </g>
   <g id="legend_1">
    <g id="patch_7">
     <path d="M 173.05625 219.995313 
L 317 219.995313 
Q 319 219.995313 319 217.995313 
L 319 145.604688 
Q 319 143.604688 317 143.604688 
L 173.05625 143.604688 
Q 171.05625 143.604688 171.05625 145.604688 
L 171.05625 217.995313 
Q 171.05625 219.995313 173.05625 219.995313 
z
" style="fill: #ffffff; opacity: 0.8; stroke: #cccccc; stroke-linejoin: miter"/>
    </g>
    <g id="line2d_19">
     <path d="M 175.05625 151.703125 
L 185.05625 151.703125 
L 195.05625 151.703125 
" style="fill: none; stroke: #1f77b4; stroke-width: 1.5; stroke-linecap: square"/>
    </g>
    <g id="text_15">
     <!-- Function with noise -->
     <g transform="translate(203.05625 155.203125)scale(0.1 -0.1)">
      <defs>
       <path id="DejaVuSans-46" d="M 628 4666 
L 3309 4666 
L 3309 4134 
L 1259 4134 
L 1259 2759 
L 3109 2759 
L 3109 2228 
L 1259 2228 
L 1259 0 
L 628 0 
L 628 4666 
z
" transform="scale(0.015625)"/>
       <path id="DejaVuSans-77" d="M 269 3500 
L 844 3500 
L 1563 769 
L 2278 3500 
L 2956 3500 
L 3675 769 
L 4391 3500 
L 4966 3500 
L 4050 0 
L 3372 0 
L 2619 2869 
L 1863 0 
L 1184 0 
L 269 3500 
z
" transform="scale(0.015625)"/>
       <path id="DejaVuSans-68" d="M 3513 2113 
L 3513 0 
L 2938 0 
L 2938 2094 
Q 2938 2591 2744 2837 
Q 2550 3084 2163 3084 
Q 1697 3084 1428 2787 
Q 1159 2491 1159 1978 
L 1159 0 
L 581 0 
L 581 4863 
L 1159 4863 
L 1159 2956 
Q 1366 3272 1645 3428 
Q 1925 3584 2291 3584 
Q 2894 3584 3203 3211 
Q 3513 2838 3513 2113 
z
" transform="scale(0.015625)"/>
      </defs>
      <use xlink:href="#DejaVuSans-46"/>
      <use xlink:href="#DejaVuSans-75" x="52.019531"/>
      <use xlink:href="#DejaVuSans-6e" x="115.398438"/>
      <use xlink:href="#DejaVuSans-63" x="178.777344"/>
      <use xlink:href="#DejaVuSans-74" x="233.757812"/>
      <use xlink:href="#DejaVuSans-69" x="272.966797"/>
      <use xlink:href="#DejaVuSans-6f" x="300.75"/>
      <use xlink:href="#DejaVuSans-6e" x="361.931641"/>
      <use xlink:href="#DejaVuSans-20" x="425.310547"/>
      <use xlink:href="#DejaVuSans-77" x="457.097656"/>
      <use xlink:href="#DejaVuSans-69" x="538.884766"/>
      <use xlink:href="#DejaVuSans-74" x="566.667969"/>
      <use xlink:href="#DejaVuSans-68" x="605.876953"/>
      <use xlink:href="#DejaVuSans-20" x="669.255859"/>
      <use xlink:href="#DejaVuSans-6e" x="701.042969"/>
      <use xlink:href="#DejaVuSans-6f" x="764.421875"/>
      <use xlink:href="#DejaVuSans-69" x="825.603516"/>
      <use xlink:href="#DejaVuSans-73" x="853.386719"/>
      <use xlink:href="#DejaVuSans-65" x="905.486328"/>
     </g>
    </g>
    <g id="line2d_20">
     <path d="M 175.05625 166.38125 
L 185.05625 166.38125 
L 195.05625 166.38125 
" style="fill: none; stroke: #ff7f0e; stroke-width: 1.5; stroke-linecap: square"/>
    </g>
    <g id="text_16">
     <!-- Average of Predictions -->
     <g transform="translate(203.05625 169.88125)scale(0.1 -0.1)">
      <defs>
       <path id="DejaVuSans-41" d="M 2188 4044 
L 1331 1722 
L 3047 1722 
L 2188 4044 
z
M 1831 4666 
L 2547 4666 
L 4325 0 
L 3669 0 
L 3244 1197 
L 1141 1197 
L 716 0 
L 50 0 
L 1831 4666 
z
" transform="scale(0.015625)"/>
       <path id="DejaVuSans-61" d="M 2194 1759 
Q 1497 1759 1228 1600 
Q 959 1441 959 1056 
Q 959 750 1161 570 
Q 1363 391 1709 391 
Q 2188 391 2477 730 
Q 2766 1069 2766 1631 
L 2766 1759 
L 2194 1759 
z
M 3341 1997 
L 3341 0 
L 2766 0 
L 2766 531 
Q 2569 213 2275 61 
Q 1981 -91 1556 -91 
Q 1019 -91 701 211 
Q 384 513 384 1019 
Q 384 1609 779 1909 
Q 1175 2209 1959 2209 
L 2766 2209 
L 2766 2266 
Q 2766 2663 2505 2880 
Q 2244 3097 1772 3097 
Q 1472 3097 1187 3025 
Q 903 2953 641 2809 
L 641 3341 
Q 956 3463 1253 3523 
Q 1550 3584 1831 3584 
Q 2591 3584 2966 3190 
Q 3341 2797 3341 1997 
z
" transform="scale(0.015625)"/>
       <path id="DejaVuSans-67" d="M 2906 1791 
Q 2906 2416 2648 2759 
Q 2391 3103 1925 3103 
Q 1463 3103 1205 2759 
Q 947 2416 947 1791 
Q 947 1169 1205 825 
Q 1463 481 1925 481 
Q 2391 481 2648 825 
Q 2906 1169 2906 1791 
z
M 3481 434 
Q 3481 -459 3084 -895 
Q 2688 -1331 1869 -1331 
Q 1566 -1331 1297 -1286 
Q 1028 -1241 775 -1147 
L 775 -588 
Q 1028 -725 1275 -790 
Q 1522 -856 1778 -856 
Q 2344 -856 2625 -561 
Q 2906 -266 2906 331 
L 2906 616 
Q 2728 306 2450 153 
Q 2172 0 1784 0 
Q 1141 0 747 490 
Q 353 981 353 1791 
Q 353 2603 747 3093 
Q 1141 3584 1784 3584 
Q 2172 3584 2450 3431 
Q 2728 3278 2906 2969 
L 2906 3500 
L 3481 3500 
L 3481 434 
z
" transform="scale(0.015625)"/>
       <path id="DejaVuSans-66" d="M 2375 4863 
L 2375 4384 
L 1825 4384 
Q 1516 4384 1395 4259 
Q 1275 4134 1275 3809 
L 1275 3500 
L 2222 3500 
L 2222 3053 
L 1275 3053 
L 1275 0 
L 697 0 
L 697 3053 
L 147 3053 
L 147 3500 
L 697 3500 
L 697 3744 
Q 697 4328 969 4595 
Q 1241 4863 1831 4863 
L 2375 4863 
z
" transform="scale(0.015625)"/>
      </defs>
      <use xlink:href="#DejaVuSans-41"/>
      <use xlink:href="#DejaVuSans-76" x="62.533203"/>
      <use xlink:href="#DejaVuSans-65" x="121.712891"/>
      <use xlink:href="#DejaVuSans-72" x="183.236328"/>
      <use xlink:href="#DejaVuSans-61" x="224.349609"/>
      <use xlink:href="#DejaVuSans-67" x="285.628906"/>
      <use xlink:href="#DejaVuSans-65" x="349.105469"/>
      <use xlink:href="#DejaVuSans-20" x="410.628906"/>
      <use xlink:href="#DejaVuSans-6f" x="442.416016"/>
      <use xlink:href="#DejaVuSans-66" x="503.597656"/>
      <use xlink:href="#DejaVuSans-20" x="538.802734"/>
      <use xlink:href="#DejaVuSans-50" x="570.589844"/>
      <use xlink:href="#DejaVuSans-72" x="629.142578"/>
      <use xlink:href="#DejaVuSans-65" x="668.005859"/>
      <use xlink:href="#DejaVuSans-64" x="729.529297"/>
      <use xlink:href="#DejaVuSans-69" x="793.005859"/>
      <use xlink:href="#DejaVuSans-63" x="820.789062"/>
      <use xlink:href="#DejaVuSans-74" x="875.769531"/>
      <use xlink:href="#DejaVuSans-69" x="914.978516"/>
      <use xlink:href="#DejaVuSans-6f" x="942.761719"/>
      <use xlink:href="#DejaVuSans-6e" x="1003.943359"/>
      <use xlink:href="#DejaVuSans-73" x="1067.322266"/>
     </g>
    </g>
    <g id="line2d_21">
     <path d="M 175.05625 181.059375 
L 185.05625 181.059375 
L 195.05625 181.059375 
" style="fill: none; stroke: #2ca02c; stroke-width: 1.5; stroke-linecap: square"/>
    </g>
    <g id="text_17">
     <!-- Prediction 1 -->
     <g transform="translate(203.05625 184.559375)scale(0.1 -0.1)">
      <use xlink:href="#DejaVuSans-50"/>
      <use xlink:href="#DejaVuSans-72" x="58.552734"/>
      <use xlink:href="#DejaVuSans-65" x="97.416016"/>
      <use xlink:href="#DejaVuSans-64" x="158.939453"/>
      <use xlink:href="#DejaVuSans-69" x="222.416016"/>
      <use xlink:href="#DejaVuSans-63" x="250.199219"/>
      <use xlink:href="#DejaVuSans-74" x="305.179688"/>
      <use xlink:href="#DejaVuSans-69" x="344.388672"/>
      <use xlink:href="#DejaVuSans-6f" x="372.171875"/>
      <use xlink:href="#DejaVuSans-6e" x="433.353516"/>
      <use xlink:href="#DejaVuSans-20" x="496.732422"/>
      <use xlink:href="#DejaVuSans-31" x="528.519531"/>
     </g>
    </g>
    <g id="line2d_22">
     <path d="M 175.05625 195.7375 
L 185.05625 195.7375 
L 195.05625 195.7375 
" style="fill: none; stroke: #d62728; stroke-width: 1.5; stroke-linecap: square"/>
    </g>
    <g id="text_18">
     <!-- Prediction 2 -->
     <g transform="translate(203.05625 199.2375)scale(0.1 -0.1)">
      <use xlink:href="#DejaVuSans-50"/>
      <use xlink:href="#DejaVuSans-72" x="58.552734"/>
      <use xlink:href="#DejaVuSans-65" x="97.416016"/>
      <use xlink:href="#DejaVuSans-64" x="158.939453"/>
      <use xlink:href="#DejaVuSans-69" x="222.416016"/>
      <use xlink:href="#DejaVuSans-63" x="250.199219"/>
      <use xlink:href="#DejaVuSans-74" x="305.179688"/>
      <use xlink:href="#DejaVuSans-69" x="344.388672"/>
      <use xlink:href="#DejaVuSans-6f" x="372.171875"/>
      <use xlink:href="#DejaVuSans-6e" x="433.353516"/>
      <use xlink:href="#DejaVuSans-20" x="496.732422"/>
      <use xlink:href="#DejaVuSans-32" x="528.519531"/>
     </g>
    </g>
    <g id="line2d_23">
     <path d="M 175.05625 210.415625 
L 185.05625 210.415625 
L 195.05625 210.415625 
" style="fill: none; stroke: #9467bd; stroke-width: 1.5; stroke-linecap: square"/>
    </g>
    <g id="text_19">
     <!-- Prediction 3 -->
     <g transform="translate(203.05625 213.915625)scale(0.1 -0.1)">
      <use xlink:href="#DejaVuSans-50"/>
      <use xlink:href="#DejaVuSans-72" x="58.552734"/>
      <use xlink:href="#DejaVuSans-65" x="97.416016"/>
      <use xlink:href="#DejaVuSans-64" x="158.939453"/>
      <use xlink:href="#DejaVuSans-69" x="222.416016"/>
      <use xlink:href="#DejaVuSans-63" x="250.199219"/>
      <use xlink:href="#DejaVuSans-74" x="305.179688"/>
      <use xlink:href="#DejaVuSans-69" x="344.388672"/>
      <use xlink:href="#DejaVuSans-6f" x="372.171875"/>
      <use xlink:href="#DejaVuSans-6e" x="433.353516"/>
      <use xlink:href="#DejaVuSans-20" x="496.732422"/>
      <use xlink:href="#DejaVuSans-33" x="528.519531"/>
     </g>
    </g>
   </g>
  </g>
 </g>
 <defs>
  <clipPath id="pf7b40122ea">
   <rect x="45" y="43.2" width="279" height="277.2"/>
  </clipPath>
 </defs>
</svg>
