<?xml version="1.0" encoding="utf-8" standalone="no"?>
<!DOCTYPE svg PUBLIC "-//W3C//DTD SVG 1.1//EN"
  "http://www.w3.org/Graphics/SVG/1.1/DTD/svg11.dtd">
<svg xmlns:xlink="http://www.w3.org/1999/xlink" width="360pt" height="360pt" viewBox="0 0 360 360" xmlns="http://www.w3.org/2000/svg" version="1.1">
 <metadata>
  <rdf:RDF xmlns:dc="http://purl.org/dc/elements/1.1/" xmlns:cc="http://creativecommons.org/ns#" xmlns:rdf="http://www.w3.org/1999/02/22-rdf-syntax-ns#">
   <cc:Work>
    <dc:type rdf:resource="http://purl.org/dc/dcmitype/StillImage"/>
    <dc:date>2022-11-15T20:49:47.475681</dc:date>
    <dc:format>image/svg+xml</dc:format>
    <dc:creator>
     <cc:Agent>
      <dc:title>Matplotlib v3.5.3, https://matplotlib.org/</dc:title>
     </cc:Agent>
    </dc:creator>
   </cc:Work>
  </rdf:RDF>
 </metadata>
 <defs>
  <style type="text/css">*{stroke-linejoin: round; stroke-linecap: butt}</style>
 </defs>
 <g id="figure_1">
  <g id="patch_1">
   <path d="M 0 360 
L 360 360 
L 360 0 
L 0 0 
z
" style="fill: #ffffff"/>
  </g>
  <g id="axes_1">
   <g id="patch_2">
    <path d="M 45 320.4 
L 324 320.4 
L 324 43.2 
L 45 43.2 
z
" style="fill: #ffffff"/>
   </g>
   <g id="matplotlib.axis_1">
    <g id="xtick_1">
     <g id="line2d_1">
      <defs>
       <path id="m8f315a73a7" d="M 0 0 
L 0 3.5 
" style="stroke: #000000; stroke-width: 0.8"/>
      </defs>
      <g>
       <use xlink:href="#m8f315a73a7" x="83.045455" y="320.4" style="stroke: #000000; stroke-width: 0.8"/>
      </g>
     </g>
     <g id="text_1">
      <!-- −2 -->
      <g transform="translate(75.674361 334.998438)scale(0.1 -0.1)">
       <defs>
        <path id="DejaVuSans-2212" d="M 678 2272 
L 4684 2272 
L 4684 1741 
L 678 1741 
L 678 2272 
z
" transform="scale(0.015625)"/>
        <path id="DejaVuSans-32" d="M 1228 531 
L 3431 531 
L 3431 0 
L 469 0 
L 469 531 
Q 828 903 1448 1529 
Q 2069 2156 2228 2338 
Q 2531 2678 2651 2914 
Q 2772 3150 2772 3378 
Q 2772 3750 2511 3984 
Q 2250 4219 1831 4219 
Q 1534 4219 1204 4116 
Q 875 4013 500 3803 
L 500 4441 
Q 881 4594 1212 4672 
Q 1544 4750 1819 4750 
Q 2544 4750 2975 4387 
Q 3406 4025 3406 3419 
Q 3406 3131 3298 2873 
Q 3191 2616 2906 2266 
Q 2828 2175 2409 1742 
Q 1991 1309 1228 531 
z
" transform="scale(0.015625)"/>
       </defs>
       <use xlink:href="#DejaVuSans-2212"/>
       <use xlink:href="#DejaVuSans-32" x="83.789062"/>
      </g>
     </g>
    </g>
    <g id="xtick_2">
     <g id="line2d_2">
      <g>
       <use xlink:href="#m8f315a73a7" x="133.772727" y="320.4" style="stroke: #000000; stroke-width: 0.8"/>
      </g>
     </g>
     <g id="text_2">
      <!-- −1 -->
      <g transform="translate(126.401634 334.998438)scale(0.1 -0.1)">
       <defs>
        <path id="DejaVuSans-31" d="M 794 531 
L 1825 531 
L 1825 4091 
L 703 3866 
L 703 4441 
L 1819 4666 
L 2450 4666 
L 2450 531 
L 3481 531 
L 3481 0 
L 794 0 
L 794 531 
z
" transform="scale(0.015625)"/>
       </defs>
       <use xlink:href="#DejaVuSans-2212"/>
       <use xlink:href="#DejaVuSans-31" x="83.789062"/>
      </g>
     </g>
    </g>
    <g id="xtick_3">
     <g id="line2d_3">
      <g>
       <use xlink:href="#m8f315a73a7" x="184.5" y="320.4" style="stroke: #000000; stroke-width: 0.8"/>
      </g>
     </g>
     <g id="text_3">
      <!-- 0 -->
      <g transform="translate(181.31875 334.998438)scale(0.1 -0.1)">
       <defs>
        <path id="DejaVuSans-30" d="M 2034 4250 
Q 1547 4250 1301 3770 
Q 1056 3291 1056 2328 
Q 1056 1369 1301 889 
Q 1547 409 2034 409 
Q 2525 409 2770 889 
Q 3016 1369 3016 2328 
Q 3016 3291 2770 3770 
Q 2525 4250 2034 4250 
z
M 2034 4750 
Q 2819 4750 3233 4129 
Q 3647 3509 3647 2328 
Q 3647 1150 3233 529 
Q 2819 -91 2034 -91 
Q 1250 -91 836 529 
Q 422 1150 422 2328 
Q 422 3509 836 4129 
Q 1250 4750 2034 4750 
z
" transform="scale(0.015625)"/>
       </defs>
       <use xlink:href="#DejaVuSans-30"/>
      </g>
     </g>
    </g>
    <g id="xtick_4">
     <g id="line2d_4">
      <g>
       <use xlink:href="#m8f315a73a7" x="235.227273" y="320.4" style="stroke: #000000; stroke-width: 0.8"/>
      </g>
     </g>
     <g id="text_4">
      <!-- 1 -->
      <g transform="translate(232.046023 334.998438)scale(0.1 -0.1)">
       <use xlink:href="#DejaVuSans-31"/>
      </g>
     </g>
    </g>
    <g id="xtick_5">
     <g id="line2d_5">
      <g>
       <use xlink:href="#m8f315a73a7" x="285.954545" y="320.4" style="stroke: #000000; stroke-width: 0.8"/>
      </g>
     </g>
     <g id="text_5">
      <!-- 2 -->
      <g transform="translate(282.773295 334.998438)scale(0.1 -0.1)">
       <use xlink:href="#DejaVuSans-32"/>
      </g>
     </g>
    </g>
   </g>
   <g id="matplotlib.axis_2">
    <g id="ytick_1">
     <g id="line2d_6">
      <defs>
       <path id="m943323bf8a" d="M 0 0 
L -3.5 0 
" style="stroke: #000000; stroke-width: 0.8"/>
      </defs>
      <g>
       <use xlink:href="#m943323bf8a" x="45" y="135.128074" style="stroke: #000000; stroke-width: 0.8"/>
      </g>
     </g>
     <g id="text_6">
      <!-- $\mathdefault{10^{-2}}$ -->
      <g transform="translate(14.5 138.927293)scale(0.1 -0.1)">
       <use xlink:href="#DejaVuSans-31" transform="translate(0 0.765625)"/>
       <use xlink:href="#DejaVuSans-30" transform="translate(63.623047 0.765625)"/>
       <use xlink:href="#DejaVuSans-2212" transform="translate(128.203125 39.046875)scale(0.7)"/>
       <use xlink:href="#DejaVuSans-32" transform="translate(186.855469 39.046875)scale(0.7)"/>
      </g>
     </g>
    </g>
    <g id="ytick_2">
     <g id="line2d_7">
      <defs>
       <path id="m4c73dd057e" d="M 0 0 
L -2 0 
" style="stroke: #000000; stroke-width: 0.6"/>
      </defs>
      <g>
       <use xlink:href="#m4c73dd057e" x="45" y="309.353289" style="stroke: #000000; stroke-width: 0.6"/>
      </g>
     </g>
    </g>
    <g id="ytick_3">
     <g id="line2d_8">
      <g>
       <use xlink:href="#m4c73dd057e" x="45" y="265.460794" style="stroke: #000000; stroke-width: 0.6"/>
      </g>
     </g>
    </g>
    <g id="ytick_4">
     <g id="line2d_9">
      <g>
       <use xlink:href="#m4c73dd057e" x="45" y="234.318573" style="stroke: #000000; stroke-width: 0.6"/>
      </g>
     </g>
    </g>
    <g id="ytick_5">
     <g id="line2d_10">
      <g>
       <use xlink:href="#m4c73dd057e" x="45" y="210.16279" style="stroke: #000000; stroke-width: 0.6"/>
      </g>
     </g>
    </g>
    <g id="ytick_6">
     <g id="line2d_11">
      <g>
       <use xlink:href="#m4c73dd057e" x="45" y="190.426078" style="stroke: #000000; stroke-width: 0.6"/>
      </g>
     </g>
    </g>
    <g id="ytick_7">
     <g id="line2d_12">
      <g>
       <use xlink:href="#m4c73dd057e" x="45" y="173.738926" style="stroke: #000000; stroke-width: 0.6"/>
      </g>
     </g>
    </g>
    <g id="ytick_8">
     <g id="line2d_13">
      <g>
       <use xlink:href="#m4c73dd057e" x="45" y="159.283857" style="stroke: #000000; stroke-width: 0.6"/>
      </g>
     </g>
    </g>
    <g id="ytick_9">
     <g id="line2d_14">
      <g>
       <use xlink:href="#m4c73dd057e" x="45" y="146.533583" style="stroke: #000000; stroke-width: 0.6"/>
      </g>
     </g>
    </g>
    <g id="ytick_10">
     <g id="line2d_15">
      <g>
       <use xlink:href="#m4c73dd057e" x="45" y="60.093358" style="stroke: #000000; stroke-width: 0.6"/>
      </g>
     </g>
    </g>
   </g>
   <g id="line2d_16">
    <path d="M 57.681818 55.8 
L 60.224541 57.125733 
L 62.131574 58.336505 
L 64.038619 59.761573 
L 65.945664 61.438376 
L 67.852697 63.395148 
L 69.759743 65.665632 
L 71.666776 68.281901 
L 73.573821 71.263842 
L 75.480866 74.625914 
L 77.387899 78.370239 
L 79.930622 83.919532 
L 82.473333 89.997546 
L 87.558784 102.962409 
L 90.737185 110.800976 
L 92.644224 115.059437 
L 94.551263 118.787611 
L 95.822624 120.9016 
L 97.09398 122.67212 
L 98.365347 124.074358 
L 99.636709 125.115582 
L 100.90807 125.824062 
L 102.179425 126.266761 
L 104.722142 126.750662 
L 106.629181 127.237445 
L 107.900543 127.830366 
L 109.171904 128.728189 
L 110.443266 129.967351 
L 111.714627 131.53534 
L 113.621666 134.393405 
L 119.978467 144.842391 
L 121.249829 146.505169 
L 122.521184 147.893743 
L 123.792545 148.978688 
L 125.063907 149.72178 
L 126.335268 150.112438 
L 127.606623 150.146628 
L 128.877991 149.843732 
L 130.149352 149.268733 
L 134.599111 146.870806 
L 135.87047 146.643897 
L 137.141831 146.803838 
L 138.413193 147.344556 
L 139.684551 148.198704 
L 144.769991 152.164152 
L 146.041349 152.74938 
L 147.31271 153.105567 
L 148.584072 153.261776 
L 150.491111 153.203639 
L 152.39815 152.858296 
L 153.669511 152.469155 
L 154.940876 151.911809 
L 156.212234 151.164619 
L 158.119276 149.684767 
L 162.569035 145.822538 
L 163.840395 145.226733 
L 164.476068 145.098074 
L 165.111749 145.115709 
L 165.747428 145.274784 
L 166.383109 145.57937 
L 167.018788 146.035242 
L 168.29015 147.363615 
L 169.561514 149.16365 
L 171.468555 152.414231 
L 174.011274 156.760187 
L 175.28264 158.633251 
L 176.554 160.236235 
L 178.46104 162.221822 
L 182.275114 165.673348 
L 184.182154 167.204179 
L 185.453519 167.883253 
L 186.089199 168.049814 
L 186.724879 168.046886 
L 187.360559 167.885787 
L 187.996239 167.50876 
L 188.631919 166.926683 
L 189.2676 166.132582 
L 190.538964 163.930496 
L 191.810325 161.081143 
L 194.353045 154.899848 
L 195.62441 152.545834 
L 196.26009 151.782652 
L 196.895771 151.345173 
L 197.53145 151.311181 
L 198.167131 151.682075 
L 198.802811 152.497169 
L 199.438491 153.742378 
L 200.074164 155.408986 
L 201.345524 159.9095 
L 202.616884 165.573227 
L 205.79529 180.624405 
L 207.06665 185.287957 
L 207.702329 187.110734 
L 208.33801 188.587659 
L 208.973691 189.724535 
L 209.60937 190.531906 
L 210.245049 191.049659 
L 210.88073 191.291281 
L 211.51641 191.286895 
L 212.152088 191.047143 
L 212.787769 190.594043 
L 213.42345 189.949356 
L 214.05913 189.112702 
L 215.330489 186.922611 
L 216.60185 184.158662 
L 218.508889 179.36772 
L 221.68729 171.122259 
L 223.594329 166.779263 
L 224.86569 164.275949 
L 226.137049 162.100961 
L 227.408407 160.246564 
L 228.679768 158.72218 
L 229.95113 157.503331 
L 231.222488 156.583086 
L 232.493847 155.954076 
L 233.765208 155.598085 
L 235.036569 155.496793 
L 236.307931 155.588731 
L 238.850654 156.115356 
L 240.757693 156.415765 
L 242.029054 156.335649 
L 243.300416 155.867636 
L 243.936093 155.464096 
L 245.207455 154.232743 
L 246.47881 152.410703 
L 247.750171 149.99151 
L 249.021533 147.067541 
L 250.928572 142.046505 
L 253.471295 135.197887 
L 254.74265 132.198234 
L 256.014012 129.707577 
L 257.285373 127.837059 
L 257.921051 127.1553 
L 258.556734 126.642131 
L 259.192412 126.292554 
L 259.82809 126.114154 
L 260.463774 126.076552 
L 261.099451 126.178831 
L 262.370813 126.745286 
L 263.642174 127.677359 
L 266.184897 130.031748 
L 268.091936 131.69021 
L 269.363297 132.550411 
L 270.634659 133.126953 
L 271.906014 133.380576 
L 273.177376 133.305323 
L 274.448737 132.909844 
L 275.720098 132.206045 
L 276.991454 131.228415 
L 278.262815 130.010588 
L 280.169854 127.817388 
L 282.712583 124.422407 
L 289.069378 115.546435 
L 291.612101 112.490024 
L 293.519146 110.497998 
L 295.426179 108.770856 
L 297.96889 106.814089 
L 301.78298 104.265177 
L 304.961381 102.055086 
L 307.504104 99.978195 
L 310.046826 97.53428 
L 311.318182 96.172972 
L 311.318182 96.172972 
" clip-path="url(#p7a579438c2)" style="fill: none; stroke: #1f77b4; stroke-width: 1.5; stroke-linecap: square"/>
   </g>
   <g id="line2d_17">
    <path d="M 83.045455 171.227296 
L 85.095043 175.873123 
L 87.144626 180.242254 
L 89.194215 183.940989 
L 91.243804 186.500355 
L 93.293387 187.423987 
L 95.342976 186.35121 
L 97.392564 183.207864 
L 99.442147 178.384204 
L 101.491736 172.759937 
L 103.541319 167.512767 
L 105.590908 163.778917 
L 107.640497 162.467157 
L 109.690079 164.045504 
L 111.739668 168.479444 
L 113.789251 175.2027 
L 115.83884 183.111095 
L 117.888429 190.670502 
L 119.938012 196.178784 
L 121.9876 198.202922 
L 124.037189 195.987115 
L 126.086772 189.745992 
L 128.136361 180.623697 
L 130.18595 170.335178 
L 132.235539 160.684458 
L 134.285124 153.1394 
L 136.334713 148.55791 
L 138.384299 147.072958 
L 140.433885 148.071417 
L 142.483471 150.396987 
L 144.53306 152.714804 
L 146.582646 154.035023 
L 148.632231 153.924782 
L 150.681817 152.336479 
L 152.731406 149.299194 
L 154.780992 144.80296 
L 156.830578 138.962134 
L 158.880164 132.230952 
L 160.929752 125.472469 
L 162.979338 119.716117 
L 165.028924 115.918841 
L 167.078511 114.735215 
L 169.128097 116.461798 
L 171.177685 121.008867 
L 173.227271 127.984041 
L 175.276858 136.817947 
L 177.326445 146.949867 
L 179.376031 157.991363 
L 181.425623 169.722554 
L 183.47521 181.822584 
L 185.524796 193.384472 
L 187.574383 202.57091 
L 189.62397 207.311699 
L 191.673556 206.77714 
L 193.723144 202.190299 
L 195.77273 196.831561 
L 197.822315 194.582906 
L 199.871903 198.573247 
L 201.921489 210.525726 
L 203.971076 230.642564 
L 206.020662 257.008416 
L 208.070249 284.075305 
L 210.119836 302.608897 
L 212.169422 307.8 
L 214.219008 304.112162 
L 216.268594 296.715976 
L 218.318183 288.060933 
L 220.367769 279.542244 
L 222.417354 271.981521 
L 224.46694 265.74527 
L 226.516529 260.777825 
L 228.566115 256.980403 
L 230.615701 254.389075 
L 232.665287 253.317467 
L 234.714876 254.036258 
L 236.764461 256.64163 
L 238.81405 260.862901 
L 240.863633 265.859599 
L 242.913222 270.021508 
L 244.962805 271.166111 
L 247.012394 267.324472 
L 249.061982 258.543201 
L 251.111565 247.047523 
L 253.161154 235.836795 
L 255.210743 227.071918 
L 257.260326 221.934456 
L 259.309915 220.490879 
L 261.359503 221.84023 
L 263.409092 224.241042 
L 265.458681 225.286281 
L 267.508264 222.934825 
L 269.557853 216.584273 
L 271.607442 207.120095 
L 273.657024 195.95113 
L 275.706613 184.188795 
L 277.756202 172.496613 
L 279.805785 161.208607 
L 281.855374 150.486928 
L 283.904957 140.424564 
L 285.954545 131.060183 
" clip-path="url(#p7a579438c2)" style="fill: none; stroke: #ff7f0e; stroke-width: 1.5; stroke-linecap: square"/>
   </g>
   <g id="patch_3">
    <path d="M 45 320.4 
L 45 43.2 
" style="fill: none; stroke: #000000; stroke-width: 0.8; stroke-linejoin: miter; stroke-linecap: square"/>
   </g>
   <g id="patch_4">
    <path d="M 324 320.4 
L 324 43.2 
" style="fill: none; stroke: #000000; stroke-width: 0.8; stroke-linejoin: miter; stroke-linecap: square"/>
   </g>
   <g id="patch_5">
    <path d="M 45 320.4 
L 324 320.4 
" style="fill: none; stroke: #000000; stroke-width: 0.8; stroke-linejoin: miter; stroke-linecap: square"/>
   </g>
   <g id="patch_6">
    <path d="M 45 43.2 
L 324 43.2 
" style="fill: none; stroke: #000000; stroke-width: 0.8; stroke-linejoin: miter; stroke-linecap: square"/>
   </g>
   <g id="text_7">
    <!-- Standard deviation -->
    <g transform="translate(127.407187 37.2)scale(0.12 -0.12)">
     <defs>
      <path id="DejaVuSans-53" d="M 3425 4513 
L 3425 3897 
Q 3066 4069 2747 4153 
Q 2428 4238 2131 4238 
Q 1616 4238 1336 4038 
Q 1056 3838 1056 3469 
Q 1056 3159 1242 3001 
Q 1428 2844 1947 2747 
L 2328 2669 
Q 3034 2534 3370 2195 
Q 3706 1856 3706 1288 
Q 3706 609 3251 259 
Q 2797 -91 1919 -91 
Q 1588 -91 1214 -16 
Q 841 59 441 206 
L 441 856 
Q 825 641 1194 531 
Q 1563 422 1919 422 
Q 2459 422 2753 634 
Q 3047 847 3047 1241 
Q 3047 1584 2836 1778 
Q 2625 1972 2144 2069 
L 1759 2144 
Q 1053 2284 737 2584 
Q 422 2884 422 3419 
Q 422 4038 858 4394 
Q 1294 4750 2059 4750 
Q 2388 4750 2728 4690 
Q 3069 4631 3425 4513 
z
" transform="scale(0.015625)"/>
      <path id="DejaVuSans-74" d="M 1172 4494 
L 1172 3500 
L 2356 3500 
L 2356 3053 
L 1172 3053 
L 1172 1153 
Q 1172 725 1289 603 
Q 1406 481 1766 481 
L 2356 481 
L 2356 0 
L 1766 0 
Q 1100 0 847 248 
Q 594 497 594 1153 
L 594 3053 
L 172 3053 
L 172 3500 
L 594 3500 
L 594 4494 
L 1172 4494 
z
" transform="scale(0.015625)"/>
      <path id="DejaVuSans-61" d="M 2194 1759 
Q 1497 1759 1228 1600 
Q 959 1441 959 1056 
Q 959 750 1161 570 
Q 1363 391 1709 391 
Q 2188 391 2477 730 
Q 2766 1069 2766 1631 
L 2766 1759 
L 2194 1759 
z
M 3341 1997 
L 3341 0 
L 2766 0 
L 2766 531 
Q 2569 213 2275 61 
Q 1981 -91 1556 -91 
Q 1019 -91 701 211 
Q 384 513 384 1019 
Q 384 1609 779 1909 
Q 1175 2209 1959 2209 
L 2766 2209 
L 2766 2266 
Q 2766 2663 2505 2880 
Q 2244 3097 1772 3097 
Q 1472 3097 1187 3025 
Q 903 2953 641 2809 
L 641 3341 
Q 956 3463 1253 3523 
Q 1550 3584 1831 3584 
Q 2591 3584 2966 3190 
Q 3341 2797 3341 1997 
z
" transform="scale(0.015625)"/>
      <path id="DejaVuSans-6e" d="M 3513 2113 
L 3513 0 
L 2938 0 
L 2938 2094 
Q 2938 2591 2744 2837 
Q 2550 3084 2163 3084 
Q 1697 3084 1428 2787 
Q 1159 2491 1159 1978 
L 1159 0 
L 581 0 
L 581 3500 
L 1159 3500 
L 1159 2956 
Q 1366 3272 1645 3428 
Q 1925 3584 2291 3584 
Q 2894 3584 3203 3211 
Q 3513 2838 3513 2113 
z
" transform="scale(0.015625)"/>
      <path id="DejaVuSans-64" d="M 2906 2969 
L 2906 4863 
L 3481 4863 
L 3481 0 
L 2906 0 
L 2906 525 
Q 2725 213 2448 61 
Q 2172 -91 1784 -91 
Q 1150 -91 751 415 
Q 353 922 353 1747 
Q 353 2572 751 3078 
Q 1150 3584 1784 3584 
Q 2172 3584 2448 3432 
Q 2725 3281 2906 2969 
z
M 947 1747 
Q 947 1113 1208 752 
Q 1469 391 1925 391 
Q 2381 391 2643 752 
Q 2906 1113 2906 1747 
Q 2906 2381 2643 2742 
Q 2381 3103 1925 3103 
Q 1469 3103 1208 2742 
Q 947 2381 947 1747 
z
" transform="scale(0.015625)"/>
      <path id="DejaVuSans-72" d="M 2631 2963 
Q 2534 3019 2420 3045 
Q 2306 3072 2169 3072 
Q 1681 3072 1420 2755 
Q 1159 2438 1159 1844 
L 1159 0 
L 581 0 
L 581 3500 
L 1159 3500 
L 1159 2956 
Q 1341 3275 1631 3429 
Q 1922 3584 2338 3584 
Q 2397 3584 2469 3576 
Q 2541 3569 2628 3553 
L 2631 2963 
z
" transform="scale(0.015625)"/>
      <path id="DejaVuSans-20" transform="scale(0.015625)"/>
      <path id="DejaVuSans-65" d="M 3597 1894 
L 3597 1613 
L 953 1613 
Q 991 1019 1311 708 
Q 1631 397 2203 397 
Q 2534 397 2845 478 
Q 3156 559 3463 722 
L 3463 178 
Q 3153 47 2828 -22 
Q 2503 -91 2169 -91 
Q 1331 -91 842 396 
Q 353 884 353 1716 
Q 353 2575 817 3079 
Q 1281 3584 2069 3584 
Q 2775 3584 3186 3129 
Q 3597 2675 3597 1894 
z
M 3022 2063 
Q 3016 2534 2758 2815 
Q 2500 3097 2075 3097 
Q 1594 3097 1305 2825 
Q 1016 2553 972 2059 
L 3022 2063 
z
" transform="scale(0.015625)"/>
      <path id="DejaVuSans-76" d="M 191 3500 
L 800 3500 
L 1894 563 
L 2988 3500 
L 3597 3500 
L 2284 0 
L 1503 0 
L 191 3500 
z
" transform="scale(0.015625)"/>
      <path id="DejaVuSans-69" d="M 603 3500 
L 1178 3500 
L 1178 0 
L 603 0 
L 603 3500 
z
M 603 4863 
L 1178 4863 
L 1178 4134 
L 603 4134 
L 603 4863 
z
" transform="scale(0.015625)"/>
      <path id="DejaVuSans-6f" d="M 1959 3097 
Q 1497 3097 1228 2736 
Q 959 2375 959 1747 
Q 959 1119 1226 758 
Q 1494 397 1959 397 
Q 2419 397 2687 759 
Q 2956 1122 2956 1747 
Q 2956 2369 2687 2733 
Q 2419 3097 1959 3097 
z
M 1959 3584 
Q 2709 3584 3137 3096 
Q 3566 2609 3566 1747 
Q 3566 888 3137 398 
Q 2709 -91 1959 -91 
Q 1206 -91 779 398 
Q 353 888 353 1747 
Q 353 2609 779 3096 
Q 1206 3584 1959 3584 
z
" transform="scale(0.015625)"/>
     </defs>
     <use xlink:href="#DejaVuSans-53"/>
     <use xlink:href="#DejaVuSans-74" x="63.476562"/>
     <use xlink:href="#DejaVuSans-61" x="102.685547"/>
     <use xlink:href="#DejaVuSans-6e" x="163.964844"/>
     <use xlink:href="#DejaVuSans-64" x="227.34375"/>
     <use xlink:href="#DejaVuSans-61" x="290.820312"/>
     <use xlink:href="#DejaVuSans-72" x="352.099609"/>
     <use xlink:href="#DejaVuSans-64" x="391.462891"/>
     <use xlink:href="#DejaVuSans-20" x="454.939453"/>
     <use xlink:href="#DejaVuSans-64" x="486.726562"/>
     <use xlink:href="#DejaVuSans-65" x="550.203125"/>
     <use xlink:href="#DejaVuSans-76" x="611.726562"/>
     <use xlink:href="#DejaVuSans-69" x="670.90625"/>
     <use xlink:href="#DejaVuSans-61" x="698.689453"/>
     <use xlink:href="#DejaVuSans-74" x="759.96875"/>
     <use xlink:href="#DejaVuSans-69" x="799.177734"/>
     <use xlink:href="#DejaVuSans-6f" x="826.960938"/>
     <use xlink:href="#DejaVuSans-6e" x="888.142578"/>
    </g>
   </g>
   <g id="legend_1">
    <g id="patch_7">
     <path d="M 243.06875 80.55625 
L 317 80.55625 
Q 319 80.55625 319 78.55625 
L 319 50.2 
Q 319 48.2 317 48.2 
L 243.06875 48.2 
Q 241.06875 48.2 241.06875 50.2 
L 241.06875 78.55625 
Q 241.06875 80.55625 243.06875 80.55625 
z
" style="fill: #ffffff; opacity: 0.8; stroke: #cccccc; stroke-linejoin: miter"/>
    </g>
    <g id="line2d_18">
     <path d="M 245.06875 56.298437 
L 255.06875 56.298437 
L 265.06875 56.298437 
" style="fill: none; stroke: #1f77b4; stroke-width: 1.5; stroke-linecap: square"/>
    </g>
    <g id="text_8">
     <!-- test std -->
     <g transform="translate(273.06875 59.798437)scale(0.1 -0.1)">
      <defs>
       <path id="DejaVuSans-73" d="M 2834 3397 
L 2834 2853 
Q 2591 2978 2328 3040 
Q 2066 3103 1784 3103 
Q 1356 3103 1142 2972 
Q 928 2841 928 2578 
Q 928 2378 1081 2264 
Q 1234 2150 1697 2047 
L 1894 2003 
Q 2506 1872 2764 1633 
Q 3022 1394 3022 966 
Q 3022 478 2636 193 
Q 2250 -91 1575 -91 
Q 1294 -91 989 -36 
Q 684 19 347 128 
L 347 722 
Q 666 556 975 473 
Q 1284 391 1588 391 
Q 1994 391 2212 530 
Q 2431 669 2431 922 
Q 2431 1156 2273 1281 
Q 2116 1406 1581 1522 
L 1381 1569 
Q 847 1681 609 1914 
Q 372 2147 372 2553 
Q 372 3047 722 3315 
Q 1072 3584 1716 3584 
Q 2034 3584 2315 3537 
Q 2597 3491 2834 3397 
z
" transform="scale(0.015625)"/>
      </defs>
      <use xlink:href="#DejaVuSans-74"/>
      <use xlink:href="#DejaVuSans-65" x="39.208984"/>
      <use xlink:href="#DejaVuSans-73" x="100.732422"/>
      <use xlink:href="#DejaVuSans-74" x="152.832031"/>
      <use xlink:href="#DejaVuSans-20" x="192.041016"/>
      <use xlink:href="#DejaVuSans-73" x="223.828125"/>
      <use xlink:href="#DejaVuSans-74" x="275.927734"/>
      <use xlink:href="#DejaVuSans-64" x="315.136719"/>
     </g>
    </g>
    <g id="line2d_19">
     <path d="M 245.06875 70.976562 
L 255.06875 70.976562 
L 265.06875 70.976562 
" style="fill: none; stroke: #ff7f0e; stroke-width: 1.5; stroke-linecap: square"/>
    </g>
    <g id="text_9">
     <!-- train std -->
     <g transform="translate(273.06875 74.476562)scale(0.1 -0.1)">
      <use xlink:href="#DejaVuSans-74"/>
      <use xlink:href="#DejaVuSans-72" x="39.208984"/>
      <use xlink:href="#DejaVuSans-61" x="80.322266"/>
      <use xlink:href="#DejaVuSans-69" x="141.601562"/>
      <use xlink:href="#DejaVuSans-6e" x="169.384766"/>
      <use xlink:href="#DejaVuSans-20" x="232.763672"/>
      <use xlink:href="#DejaVuSans-73" x="264.550781"/>
      <use xlink:href="#DejaVuSans-74" x="316.650391"/>
      <use xlink:href="#DejaVuSans-64" x="355.859375"/>
     </g>
    </g>
   </g>
  </g>
 </g>
 <defs>
  <clipPath id="p7a579438c2">
   <rect x="45" y="43.2" width="279" height="277.2"/>
  </clipPath>
 </defs>
</svg>
