<?xml version="1.0" encoding="utf-8" standalone="no"?>
<!DOCTYPE svg PUBLIC "-//W3C//DTD SVG 1.1//EN"
  "http://www.w3.org/Graphics/SVG/1.1/DTD/svg11.dtd">
<svg xmlns:xlink="http://www.w3.org/1999/xlink" width="576pt" height="360pt" viewBox="0 0 576 360" xmlns="http://www.w3.org/2000/svg" version="1.1">
 <metadata>
  <rdf:RDF xmlns:dc="http://purl.org/dc/elements/1.1/" xmlns:cc="http://creativecommons.org/ns#" xmlns:rdf="http://www.w3.org/1999/02/22-rdf-syntax-ns#">
   <cc:Work>
    <dc:type rdf:resource="http://purl.org/dc/dcmitype/StillImage"/>
    <dc:date>2022-12-23T11:39:09.951699</dc:date>
    <dc:format>image/svg+xml</dc:format>
    <dc:creator>
     <cc:Agent>
      <dc:title>Matplotlib v3.5.3, https://matplotlib.org/</dc:title>
     </cc:Agent>
    </dc:creator>
   </cc:Work>
  </rdf:RDF>
 </metadata>
 <defs>
  <style type="text/css">*{stroke-linejoin: round; stroke-linecap: butt}</style>
 </defs>
 <g id="figure_1">
  <g id="patch_1">
   <path d="M 0 360 
L 576 360 
L 576 0 
L 0 0 
z
" style="fill: #ffffff"/>
  </g>
  <g id="axes_1">
   <g id="patch_2">
    <path d="M 72 320.4 
L 518.4 320.4 
L 518.4 43.2 
L 72 43.2 
z
" style="fill: #e5e5e5"/>
   </g>
   <g id="matplotlib.axis_1">
    <g id="xtick_1">
     <g id="line2d_1">
      <path d="M 116.64 320.4 
L 116.64 43.2 
" clip-path="url(#p0cec9c9c6a)" style="fill: none; stroke: #ffffff; stroke-width: 0.8; stroke-linecap: square"/>
     </g>
     <g id="line2d_2">
      <defs>
       <path id="m936fbc2686" d="M 0 0 
L 0 3.5 
" style="stroke: #555555; stroke-width: 0.8"/>
      </defs>
      <g>
       <use xlink:href="#m936fbc2686" x="116.64" y="320.4" style="fill: #555555; stroke: #555555; stroke-width: 0.8"/>
      </g>
     </g>
     <g id="text_1">
      <!-- 0.00 -->
      <g style="fill: #555555" transform="translate(105.507188 334.998438)scale(0.1 -0.1)">
       <defs>
        <path id="DejaVuSans-30" d="M 2034 4250 
Q 1547 4250 1301 3770 
Q 1056 3291 1056 2328 
Q 1056 1369 1301 889 
Q 1547 409 2034 409 
Q 2525 409 2770 889 
Q 3016 1369 3016 2328 
Q 3016 3291 2770 3770 
Q 2525 4250 2034 4250 
z
M 2034 4750 
Q 2819 4750 3233 4129 
Q 3647 3509 3647 2328 
Q 3647 1150 3233 529 
Q 2819 -91 2034 -91 
Q 1250 -91 836 529 
Q 422 1150 422 2328 
Q 422 3509 836 4129 
Q 1250 4750 2034 4750 
z
" transform="scale(0.015625)"/>
        <path id="DejaVuSans-2e" d="M 684 794 
L 1344 794 
L 1344 0 
L 684 0 
L 684 794 
z
" transform="scale(0.015625)"/>
       </defs>
       <use xlink:href="#DejaVuSans-30"/>
       <use xlink:href="#DejaVuSans-2e" x="63.623047"/>
       <use xlink:href="#DejaVuSans-30" x="95.410156"/>
       <use xlink:href="#DejaVuSans-30" x="159.033203"/>
      </g>
     </g>
    </g>
    <g id="xtick_2">
     <g id="line2d_3">
      <path d="M 172.44 320.4 
L 172.44 43.2 
" clip-path="url(#p0cec9c9c6a)" style="fill: none; stroke: #ffffff; stroke-width: 0.8; stroke-linecap: square"/>
     </g>
     <g id="line2d_4">
      <g>
       <use xlink:href="#m936fbc2686" x="172.44" y="320.4" style="fill: #555555; stroke: #555555; stroke-width: 0.8"/>
      </g>
     </g>
     <g id="text_2">
      <!-- 0.25 -->
      <g style="fill: #555555" transform="translate(161.307187 334.998438)scale(0.1 -0.1)">
       <defs>
        <path id="DejaVuSans-32" d="M 1228 531 
L 3431 531 
L 3431 0 
L 469 0 
L 469 531 
Q 828 903 1448 1529 
Q 2069 2156 2228 2338 
Q 2531 2678 2651 2914 
Q 2772 3150 2772 3378 
Q 2772 3750 2511 3984 
Q 2250 4219 1831 4219 
Q 1534 4219 1204 4116 
Q 875 4013 500 3803 
L 500 4441 
Q 881 4594 1212 4672 
Q 1544 4750 1819 4750 
Q 2544 4750 2975 4387 
Q 3406 4025 3406 3419 
Q 3406 3131 3298 2873 
Q 3191 2616 2906 2266 
Q 2828 2175 2409 1742 
Q 1991 1309 1228 531 
z
" transform="scale(0.015625)"/>
        <path id="DejaVuSans-35" d="M 691 4666 
L 3169 4666 
L 3169 4134 
L 1269 4134 
L 1269 2991 
Q 1406 3038 1543 3061 
Q 1681 3084 1819 3084 
Q 2600 3084 3056 2656 
Q 3513 2228 3513 1497 
Q 3513 744 3044 326 
Q 2575 -91 1722 -91 
Q 1428 -91 1123 -41 
Q 819 9 494 109 
L 494 744 
Q 775 591 1075 516 
Q 1375 441 1709 441 
Q 2250 441 2565 725 
Q 2881 1009 2881 1497 
Q 2881 1984 2565 2268 
Q 2250 2553 1709 2553 
Q 1456 2553 1204 2497 
Q 953 2441 691 2322 
L 691 4666 
z
" transform="scale(0.015625)"/>
       </defs>
       <use xlink:href="#DejaVuSans-30"/>
       <use xlink:href="#DejaVuSans-2e" x="63.623047"/>
       <use xlink:href="#DejaVuSans-32" x="95.410156"/>
       <use xlink:href="#DejaVuSans-35" x="159.033203"/>
      </g>
     </g>
    </g>
    <g id="xtick_3">
     <g id="line2d_5">
      <path d="M 228.24 320.4 
L 228.24 43.2 
" clip-path="url(#p0cec9c9c6a)" style="fill: none; stroke: #ffffff; stroke-width: 0.8; stroke-linecap: square"/>
     </g>
     <g id="line2d_6">
      <g>
       <use xlink:href="#m936fbc2686" x="228.24" y="320.4" style="fill: #555555; stroke: #555555; stroke-width: 0.8"/>
      </g>
     </g>
     <g id="text_3">
      <!-- 0.50 -->
      <g style="fill: #555555" transform="translate(217.107188 334.998438)scale(0.1 -0.1)">
       <use xlink:href="#DejaVuSans-30"/>
       <use xlink:href="#DejaVuSans-2e" x="63.623047"/>
       <use xlink:href="#DejaVuSans-35" x="95.410156"/>
       <use xlink:href="#DejaVuSans-30" x="159.033203"/>
      </g>
     </g>
    </g>
    <g id="xtick_4">
     <g id="line2d_7">
      <path d="M 284.04 320.4 
L 284.04 43.2 
" clip-path="url(#p0cec9c9c6a)" style="fill: none; stroke: #ffffff; stroke-width: 0.8; stroke-linecap: square"/>
     </g>
     <g id="line2d_8">
      <g>
       <use xlink:href="#m936fbc2686" x="284.04" y="320.4" style="fill: #555555; stroke: #555555; stroke-width: 0.8"/>
      </g>
     </g>
     <g id="text_4">
      <!-- 0.75 -->
      <g style="fill: #555555" transform="translate(272.907187 334.998438)scale(0.1 -0.1)">
       <defs>
        <path id="DejaVuSans-37" d="M 525 4666 
L 3525 4666 
L 3525 4397 
L 1831 0 
L 1172 0 
L 2766 4134 
L 525 4134 
L 525 4666 
z
" transform="scale(0.015625)"/>
       </defs>
       <use xlink:href="#DejaVuSans-30"/>
       <use xlink:href="#DejaVuSans-2e" x="63.623047"/>
       <use xlink:href="#DejaVuSans-37" x="95.410156"/>
       <use xlink:href="#DejaVuSans-35" x="159.033203"/>
      </g>
     </g>
    </g>
    <g id="xtick_5">
     <g id="line2d_9">
      <path d="M 339.84 320.4 
L 339.84 43.2 
" clip-path="url(#p0cec9c9c6a)" style="fill: none; stroke: #ffffff; stroke-width: 0.8; stroke-linecap: square"/>
     </g>
     <g id="line2d_10">
      <g>
       <use xlink:href="#m936fbc2686" x="339.84" y="320.4" style="fill: #555555; stroke: #555555; stroke-width: 0.8"/>
      </g>
     </g>
     <g id="text_5">
      <!-- 1.00 -->
      <g style="fill: #555555" transform="translate(328.707187 334.998438)scale(0.1 -0.1)">
       <defs>
        <path id="DejaVuSans-31" d="M 794 531 
L 1825 531 
L 1825 4091 
L 703 3866 
L 703 4441 
L 1819 4666 
L 2450 4666 
L 2450 531 
L 3481 531 
L 3481 0 
L 794 0 
L 794 531 
z
" transform="scale(0.015625)"/>
       </defs>
       <use xlink:href="#DejaVuSans-31"/>
       <use xlink:href="#DejaVuSans-2e" x="63.623047"/>
       <use xlink:href="#DejaVuSans-30" x="95.410156"/>
       <use xlink:href="#DejaVuSans-30" x="159.033203"/>
      </g>
     </g>
    </g>
    <g id="xtick_6">
     <g id="line2d_11">
      <path d="M 395.64 320.4 
L 395.64 43.2 
" clip-path="url(#p0cec9c9c6a)" style="fill: none; stroke: #ffffff; stroke-width: 0.8; stroke-linecap: square"/>
     </g>
     <g id="line2d_12">
      <g>
       <use xlink:href="#m936fbc2686" x="395.64" y="320.4" style="fill: #555555; stroke: #555555; stroke-width: 0.8"/>
      </g>
     </g>
     <g id="text_6">
      <!-- 1.25 -->
      <g style="fill: #555555" transform="translate(384.507187 334.998438)scale(0.1 -0.1)">
       <use xlink:href="#DejaVuSans-31"/>
       <use xlink:href="#DejaVuSans-2e" x="63.623047"/>
       <use xlink:href="#DejaVuSans-32" x="95.410156"/>
       <use xlink:href="#DejaVuSans-35" x="159.033203"/>
      </g>
     </g>
    </g>
    <g id="xtick_7">
     <g id="line2d_13">
      <path d="M 451.44 320.4 
L 451.44 43.2 
" clip-path="url(#p0cec9c9c6a)" style="fill: none; stroke: #ffffff; stroke-width: 0.8; stroke-linecap: square"/>
     </g>
     <g id="line2d_14">
      <g>
       <use xlink:href="#m936fbc2686" x="451.44" y="320.4" style="fill: #555555; stroke: #555555; stroke-width: 0.8"/>
      </g>
     </g>
     <g id="text_7">
      <!-- 1.50 -->
      <g style="fill: #555555" transform="translate(440.307187 334.998438)scale(0.1 -0.1)">
       <use xlink:href="#DejaVuSans-31"/>
       <use xlink:href="#DejaVuSans-2e" x="63.623047"/>
       <use xlink:href="#DejaVuSans-35" x="95.410156"/>
       <use xlink:href="#DejaVuSans-30" x="159.033203"/>
      </g>
     </g>
    </g>
    <g id="xtick_8">
     <g id="line2d_15">
      <path d="M 507.24 320.4 
L 507.24 43.2 
" clip-path="url(#p0cec9c9c6a)" style="fill: none; stroke: #ffffff; stroke-width: 0.8; stroke-linecap: square"/>
     </g>
     <g id="line2d_16">
      <g>
       <use xlink:href="#m936fbc2686" x="507.24" y="320.4" style="fill: #555555; stroke: #555555; stroke-width: 0.8"/>
      </g>
     </g>
     <g id="text_8">
      <!-- 1.75 -->
      <g style="fill: #555555" transform="translate(496.107187 334.998438)scale(0.1 -0.1)">
       <use xlink:href="#DejaVuSans-31"/>
       <use xlink:href="#DejaVuSans-2e" x="63.623047"/>
       <use xlink:href="#DejaVuSans-37" x="95.410156"/>
       <use xlink:href="#DejaVuSans-35" x="159.033203"/>
      </g>
     </g>
    </g>
   </g>
   <g id="matplotlib.axis_2">
    <g id="ytick_1">
     <g id="line2d_17">
      <path d="M 72 320.4 
L 518.4 320.4 
" clip-path="url(#p0cec9c9c6a)" style="fill: none; stroke: #ffffff; stroke-width: 0.8; stroke-linecap: square"/>
     </g>
     <g id="line2d_18">
      <defs>
       <path id="mb4f707d231" d="M 0 0 
L -3.5 0 
" style="stroke: #555555; stroke-width: 0.8"/>
      </defs>
      <g>
       <use xlink:href="#mb4f707d231" x="72" y="320.4" style="fill: #555555; stroke: #555555; stroke-width: 0.8"/>
      </g>
     </g>
     <g id="text_9">
      <!-- −0.50 -->
      <g style="fill: #555555" transform="translate(34.354687 324.199219)scale(0.1 -0.1)">
       <defs>
        <path id="DejaVuSans-2212" d="M 678 2272 
L 4684 2272 
L 4684 1741 
L 678 1741 
L 678 2272 
z
" transform="scale(0.015625)"/>
       </defs>
       <use xlink:href="#DejaVuSans-2212"/>
       <use xlink:href="#DejaVuSans-30" x="83.789062"/>
       <use xlink:href="#DejaVuSans-2e" x="147.412109"/>
       <use xlink:href="#DejaVuSans-35" x="179.199219"/>
       <use xlink:href="#DejaVuSans-30" x="242.822266"/>
      </g>
     </g>
    </g>
    <g id="ytick_2">
     <g id="line2d_19">
      <path d="M 72 285.75 
L 518.4 285.75 
" clip-path="url(#p0cec9c9c6a)" style="fill: none; stroke: #ffffff; stroke-width: 0.8; stroke-linecap: square"/>
     </g>
     <g id="line2d_20">
      <g>
       <use xlink:href="#mb4f707d231" x="72" y="285.75" style="fill: #555555; stroke: #555555; stroke-width: 0.8"/>
      </g>
     </g>
     <g id="text_10">
      <!-- −0.25 -->
      <g style="fill: #555555" transform="translate(34.354687 289.549219)scale(0.1 -0.1)">
       <use xlink:href="#DejaVuSans-2212"/>
       <use xlink:href="#DejaVuSans-30" x="83.789062"/>
       <use xlink:href="#DejaVuSans-2e" x="147.412109"/>
       <use xlink:href="#DejaVuSans-32" x="179.199219"/>
       <use xlink:href="#DejaVuSans-35" x="242.822266"/>
      </g>
     </g>
    </g>
    <g id="ytick_3">
     <g id="line2d_21">
      <path d="M 72 251.1 
L 518.4 251.1 
" clip-path="url(#p0cec9c9c6a)" style="fill: none; stroke: #ffffff; stroke-width: 0.8; stroke-linecap: square"/>
     </g>
     <g id="line2d_22">
      <g>
       <use xlink:href="#mb4f707d231" x="72" y="251.1" style="fill: #555555; stroke: #555555; stroke-width: 0.8"/>
      </g>
     </g>
     <g id="text_11">
      <!-- 0.00 -->
      <g style="fill: #555555" transform="translate(42.734375 254.899219)scale(0.1 -0.1)">
       <use xlink:href="#DejaVuSans-30"/>
       <use xlink:href="#DejaVuSans-2e" x="63.623047"/>
       <use xlink:href="#DejaVuSans-30" x="95.410156"/>
       <use xlink:href="#DejaVuSans-30" x="159.033203"/>
      </g>
     </g>
    </g>
    <g id="ytick_4">
     <g id="line2d_23">
      <path d="M 72 216.45 
L 518.4 216.45 
" clip-path="url(#p0cec9c9c6a)" style="fill: none; stroke: #ffffff; stroke-width: 0.8; stroke-linecap: square"/>
     </g>
     <g id="line2d_24">
      <g>
       <use xlink:href="#mb4f707d231" x="72" y="216.45" style="fill: #555555; stroke: #555555; stroke-width: 0.8"/>
      </g>
     </g>
     <g id="text_12">
      <!-- 0.25 -->
      <g style="fill: #555555" transform="translate(42.734375 220.249219)scale(0.1 -0.1)">
       <use xlink:href="#DejaVuSans-30"/>
       <use xlink:href="#DejaVuSans-2e" x="63.623047"/>
       <use xlink:href="#DejaVuSans-32" x="95.410156"/>
       <use xlink:href="#DejaVuSans-35" x="159.033203"/>
      </g>
     </g>
    </g>
    <g id="ytick_5">
     <g id="line2d_25">
      <path d="M 72 181.8 
L 518.4 181.8 
" clip-path="url(#p0cec9c9c6a)" style="fill: none; stroke: #ffffff; stroke-width: 0.8; stroke-linecap: square"/>
     </g>
     <g id="line2d_26">
      <g>
       <use xlink:href="#mb4f707d231" x="72" y="181.8" style="fill: #555555; stroke: #555555; stroke-width: 0.8"/>
      </g>
     </g>
     <g id="text_13">
      <!-- 0.50 -->
      <g style="fill: #555555" transform="translate(42.734375 185.599219)scale(0.1 -0.1)">
       <use xlink:href="#DejaVuSans-30"/>
       <use xlink:href="#DejaVuSans-2e" x="63.623047"/>
       <use xlink:href="#DejaVuSans-35" x="95.410156"/>
       <use xlink:href="#DejaVuSans-30" x="159.033203"/>
      </g>
     </g>
    </g>
    <g id="ytick_6">
     <g id="line2d_27">
      <path d="M 72 147.15 
L 518.4 147.15 
" clip-path="url(#p0cec9c9c6a)" style="fill: none; stroke: #ffffff; stroke-width: 0.8; stroke-linecap: square"/>
     </g>
     <g id="line2d_28">
      <g>
       <use xlink:href="#mb4f707d231" x="72" y="147.15" style="fill: #555555; stroke: #555555; stroke-width: 0.8"/>
      </g>
     </g>
     <g id="text_14">
      <!-- 0.75 -->
      <g style="fill: #555555" transform="translate(42.734375 150.949219)scale(0.1 -0.1)">
       <use xlink:href="#DejaVuSans-30"/>
       <use xlink:href="#DejaVuSans-2e" x="63.623047"/>
       <use xlink:href="#DejaVuSans-37" x="95.410156"/>
       <use xlink:href="#DejaVuSans-35" x="159.033203"/>
      </g>
     </g>
    </g>
    <g id="ytick_7">
     <g id="line2d_29">
      <path d="M 72 112.5 
L 518.4 112.5 
" clip-path="url(#p0cec9c9c6a)" style="fill: none; stroke: #ffffff; stroke-width: 0.8; stroke-linecap: square"/>
     </g>
     <g id="line2d_30">
      <g>
       <use xlink:href="#mb4f707d231" x="72" y="112.5" style="fill: #555555; stroke: #555555; stroke-width: 0.8"/>
      </g>
     </g>
     <g id="text_15">
      <!-- 1.00 -->
      <g style="fill: #555555" transform="translate(42.734375 116.299219)scale(0.1 -0.1)">
       <use xlink:href="#DejaVuSans-31"/>
       <use xlink:href="#DejaVuSans-2e" x="63.623047"/>
       <use xlink:href="#DejaVuSans-30" x="95.410156"/>
       <use xlink:href="#DejaVuSans-30" x="159.033203"/>
      </g>
     </g>
    </g>
    <g id="ytick_8">
     <g id="line2d_31">
      <path d="M 72 77.85 
L 518.4 77.85 
" clip-path="url(#p0cec9c9c6a)" style="fill: none; stroke: #ffffff; stroke-width: 0.8; stroke-linecap: square"/>
     </g>
     <g id="line2d_32">
      <g>
       <use xlink:href="#mb4f707d231" x="72" y="77.85" style="fill: #555555; stroke: #555555; stroke-width: 0.8"/>
      </g>
     </g>
     <g id="text_16">
      <!-- 1.25 -->
      <g style="fill: #555555" transform="translate(42.734375 81.649219)scale(0.1 -0.1)">
       <use xlink:href="#DejaVuSans-31"/>
       <use xlink:href="#DejaVuSans-2e" x="63.623047"/>
       <use xlink:href="#DejaVuSans-32" x="95.410156"/>
       <use xlink:href="#DejaVuSans-35" x="159.033203"/>
      </g>
     </g>
    </g>
    <g id="ytick_9">
     <g id="line2d_33">
      <path d="M 72 43.2 
L 518.4 43.2 
" clip-path="url(#p0cec9c9c6a)" style="fill: none; stroke: #ffffff; stroke-width: 0.8; stroke-linecap: square"/>
     </g>
     <g id="line2d_34">
      <g>
       <use xlink:href="#mb4f707d231" x="72" y="43.2" style="fill: #555555; stroke: #555555; stroke-width: 0.8"/>
      </g>
     </g>
     <g id="text_17">
      <!-- 1.50 -->
      <g style="fill: #555555" transform="translate(42.734375 46.999219)scale(0.1 -0.1)">
       <use xlink:href="#DejaVuSans-31"/>
       <use xlink:href="#DejaVuSans-2e" x="63.623047"/>
       <use xlink:href="#DejaVuSans-35" x="95.410156"/>
       <use xlink:href="#DejaVuSans-30" x="159.033203"/>
      </g>
     </g>
    </g>
   </g>
   <g id="PolyCollection_1">
    <path d="M 5.04 36.270007 
L 5.04 -19.170007 
L 5.598558 -16.921571 
L 6.157116 -14.685263 
L 6.715675 -12.46105 
L 7.274233 -10.248931 
L 7.832791 -8.04884 
L 8.391349 -5.860778 
L 8.949908 -3.684711 
L 9.508466 -1.520606 
L 10.067024 0.631537 
L 10.625582 2.771784 
L 11.18414 4.900134 
L 11.742699 7.016605 
L 12.301257 9.121246 
L 12.859815 11.21409 
L 13.418373 13.295136 
L 13.976938 15.364436 
L 14.535496 17.421988 
L 15.094055 19.467809 
L 15.652613 21.501981 
L 16.211171 23.524473 
L 16.769729 25.535349 
L 17.328288 27.53461 
L 17.886846 29.522305 
L 18.445404 31.498434 
L 19.003962 33.463048 
L 19.562521 35.416145 
L 20.121079 37.357792 
L 20.679637 39.287973 
L 21.238195 41.206737 
L 21.796753 43.114117 
L 22.355312 45.010096 
L 22.913877 46.894774 
L 23.472435 48.768117 
L 24.030993 50.63016 
L 24.589551 52.48095 
L 25.148109 54.320472 
L 25.706668 56.148809 
L 26.265226 57.965943 
L 26.823784 59.771942 
L 27.382342 61.566771 
L 27.940901 63.350497 
L 28.499459 65.123153 
L 29.058017 66.884756 
L 29.616575 68.635321 
L 30.175133 70.374866 
L 30.733692 72.103457 
L 31.29225 73.821077 
L 31.850808 75.527776 
L 32.409366 77.223586 
L 32.967925 78.908492 
L 33.526483 80.582575 
L 34.085041 82.245836 
L 34.643599 83.898292 
L 35.202157 85.539991 
L 35.760716 87.170918 
L 36.319274 88.791155 
L 36.877832 90.400685 
L 37.43639 91.999542 
L 37.994949 93.587775 
L 38.553507 95.165384 
L 39.112065 96.732419 
L 39.670623 98.288879 
L 40.229182 99.834798 
L 40.787746 101.370225 
L 41.346305 102.895161 
L 41.904863 104.409638 
L 42.463421 105.913689 
L 43.021979 107.407331 
L 43.580538 108.890597 
L 44.139096 110.363504 
L 44.697654 111.826068 
L 45.256219 113.278379 
L 45.814777 114.72038 
L 46.373335 116.152138 
L 46.931894 117.573668 
L 47.490452 118.985004 
L 48.04901 120.38617 
L 48.607568 121.777191 
L 49.166126 123.158085 
L 49.724685 124.528899 
L 50.283243 125.889635 
L 50.841801 127.240342 
L 51.400359 128.58102 
L 51.958918 129.911726 
L 52.517476 131.232453 
L 53.076034 132.543258 
L 53.634592 133.84415 
L 54.19315 135.135153 
L 54.751709 136.416301 
L 55.310267 137.687609 
L 55.868825 138.949128 
L 56.427383 140.200857 
L 56.985942 141.442838 
L 57.5445 142.675079 
L 58.103058 143.89763 
L 58.661616 145.110499 
L 59.220174 146.313727 
L 59.778733 147.507322 
L 60.337291 148.691318 
L 60.895849 149.865747 
L 61.454407 151.030634 
L 62.012969 152.186005 
L 62.571527 153.331884 
L 63.130089 154.468286 
L 63.688647 155.595255 
L 64.247205 156.712806 
L 64.805763 157.820964 
L 65.364322 158.919762 
L 65.92288 160.009225 
L 66.481441 161.089385 
L 67.04 162.160244 
L 67.598555 163.22185 
L 68.157113 164.27422 
L 68.715671 165.317387 
L 69.274229 166.351384 
L 69.832787 167.376211 
L 70.391346 168.391918 
L 70.949907 169.398529 
L 71.508465 170.396061 
L 72.067027 171.384539 
L 72.625585 172.363995 
L 73.184143 173.334447 
L 73.742702 174.295936 
L 74.30126 175.248477 
L 74.859818 176.192097 
L 75.41838 177.126827 
L 75.976938 178.052677 
L 76.535493 178.969687 
L 77.094051 179.877891 
L 77.652609 180.777304 
L 78.211167 181.667953 
L 78.769726 182.549861 
L 79.328284 183.423062 
L 79.886845 184.287581 
L 80.445404 185.143441 
L 81.003959 185.990653 
L 81.562517 186.829272 
L 82.121075 187.659308 
L 82.679633 188.480786 
L 83.238191 189.293738 
L 83.79675 190.098189 
L 84.355311 190.894169 
L 84.91387 191.681688 
L 85.472431 192.460794 
L 86.030989 193.23149 
L 86.589548 193.993818 
L 87.148106 194.747801 
L 87.706664 195.493462 
L 88.265222 196.230828 
L 88.823782 196.959929 
L 89.38234 197.680785 
L 89.940897 198.393429 
L 90.499455 199.097878 
L 91.058013 199.794166 
L 91.616573 200.482316 
L 92.175131 201.162353 
L 92.73369 201.834307 
L 93.292248 202.498198 
L 93.850806 203.154063 
L 94.409369 203.801919 
L 94.967928 204.441787 
L 95.526486 205.073703 
L 96.085046 205.697696 
L 96.643604 206.313776 
L 97.202162 206.921986 
L 97.76072 207.52234 
L 98.319279 208.114871 
L 98.877835 208.699603 
L 99.436393 209.276561 
L 99.994952 209.845771 
L 100.553511 210.407268 
L 101.11207 210.961066 
L 101.670628 211.507194 
L 102.229186 212.04568 
L 102.787744 212.576549 
L 103.346301 213.099826 
L 103.904859 213.615544 
L 104.463418 214.123719 
L 105.021976 214.624385 
L 105.580535 215.117567 
L 106.139094 215.603284 
L 106.697652 216.081571 
L 107.25621 216.552447 
L 107.814773 217.015948 
L 108.373332 217.472089 
L 108.931891 217.920899 
L 109.490449 218.362407 
L 110.049008 218.796634 
L 110.607566 219.223612 
L 111.166124 219.643364 
L 111.724683 220.055918 
L 112.283239 220.461298 
L 112.841798 220.859529 
L 113.400356 221.250641 
L 113.958915 221.634657 
L 114.517473 222.011606 
L 115.076032 222.381511 
L 115.63459 222.744399 
L 116.193149 223.100296 
L 116.751712 223.449231 
L 117.31027 223.791224 
L 117.868829 224.126304 
L 118.427387 224.454499 
L 118.985946 224.775833 
L 119.544504 225.090333 
L 120.103063 225.398024 
L 120.661621 225.698934 
L 121.220177 225.993084 
L 121.778736 226.280506 
L 122.337295 226.561226 
L 122.895853 226.835267 
L 123.454412 227.102655 
L 124.01297 227.363418 
L 124.571528 227.61758 
L 125.130087 227.86517 
L 125.688643 228.106209 
L 126.247201 228.340731 
L 126.805761 228.568754 
L 127.364319 228.790309 
L 127.922878 229.005421 
L 128.481436 229.214115 
L 129.039994 229.416418 
L 129.598552 229.612355 
L 130.157109 229.801952 
L 130.715667 229.985239 
L 131.274226 230.162235 
L 131.832785 230.332974 
L 132.391344 230.497475 
L 132.949902 230.65577 
L 133.50846 230.807881 
L 134.067018 230.953834 
L 134.625575 231.093657 
L 135.184133 231.227377 
L 135.742691 231.355017 
L 136.301251 231.476605 
L 136.859809 231.592167 
L 137.418368 231.701727 
L 137.976926 231.805314 
L 138.535484 231.902953 
L 139.094054 231.994673 
L 139.652612 232.080495 
L 140.21117 232.160445 
L 140.76973 232.234552 
L 141.328289 232.302841 
L 141.886847 232.365337 
L 142.445405 232.422069 
L 143.003963 232.473061 
L 143.56252 232.518339 
L 144.121078 232.557931 
L 144.679636 232.591859 
L 145.238194 232.620154 
L 145.796753 232.642837 
L 146.355311 232.659938 
L 146.913872 232.671483 
L 147.472431 232.677495 
L 148.030986 232.678003 
L 148.589544 232.673034 
L 149.148102 232.662608 
L 149.70666 232.646759 
L 150.265218 232.625507 
L 150.823777 232.598881 
L 151.382338 232.566906 
L 151.940896 232.529607 
L 152.499451 232.487012 
L 153.05801 232.439149 
L 153.616568 232.38604 
L 154.175126 232.327711 
L 154.733684 232.264193 
L 155.292243 232.195507 
L 155.850804 232.121681 
L 156.409362 232.042741 
L 156.967917 231.958714 
L 157.526475 231.869624 
L 158.085034 231.775497 
L 158.643592 231.676363 
L 159.20215 231.572243 
L 159.760708 231.463166 
L 160.31927 231.349157 
L 160.877828 231.230244 
L 161.436396 231.106447 
L 161.994955 230.9778 
L 162.553513 230.844326 
L 163.112071 230.70605 
L 163.670629 230.562999 
L 164.229187 230.415199 
L 164.787749 230.262675 
L 165.346307 230.105454 
L 165.904862 229.943563 
L 166.46342 229.777028 
L 167.021979 229.605874 
L 167.580537 229.430125 
L 168.139095 229.24981 
L 168.697653 229.064955 
L 169.256215 228.875586 
L 169.814773 228.681728 
L 170.373328 228.483408 
L 170.931886 228.280651 
L 171.490444 228.073485 
L 172.049003 227.861932 
L 172.607561 227.646023 
L 173.166119 227.425784 
L 173.724677 227.201236 
L 174.283235 226.972409 
L 174.841794 226.739327 
L 175.400352 226.502014 
L 175.95891 226.260504 
L 176.517468 226.01482 
L 177.076027 225.76498 
L 177.634585 225.511023 
L 178.193143 225.252963 
L 178.751701 224.990835 
L 179.31026 224.724659 
L 179.868818 224.454464 
L 180.427376 224.180279 
L 180.985934 223.902124 
L 181.544492 223.620029 
L 182.103051 223.334018 
L 182.661609 223.04412 
L 183.220167 222.75036 
L 183.778739 222.45275 
L 184.337297 222.151344 
L 184.895855 221.846146 
L 185.454413 221.537194 
L 186.012972 221.224507 
L 186.57153 220.908115 
L 187.130088 220.588043 
L 187.688646 220.264316 
L 188.247204 219.936961 
L 188.805763 219.606001 
L 189.364321 219.271468 
L 189.922879 218.933386 
L 190.481437 218.591773 
L 191.039996 218.246669 
L 191.598554 217.898088 
L 192.157112 217.54607 
L 192.71567 217.190623 
L 193.274228 216.831785 
L 193.832787 216.469577 
L 194.391345 216.104037 
L 194.949903 215.735175 
L 195.508461 215.363016 
L 196.06702 214.98761 
L 196.625578 214.608958 
L 197.184136 214.227092 
L 197.742694 213.842037 
L 198.301252 213.453827 
L 198.859811 213.062493 
L 199.418369 212.668037 
L 199.976927 212.270508 
L 200.535485 211.869931 
L 201.094044 211.466313 
L 201.652602 211.059697 
L 202.21116 210.650106 
L 202.769718 210.237567 
L 203.328277 209.822094 
L 203.886835 209.40373 
L 204.445393 208.982491 
L 205.003951 208.558402 
L 205.562509 208.131497 
L 206.121068 207.701798 
L 206.679626 207.269333 
L 207.238184 206.834124 
L 207.796742 206.396198 
L 208.355301 205.955578 
L 208.913859 205.512298 
L 209.472417 205.066383 
L 210.030975 204.617858 
L 210.589547 204.16673 
L 211.148105 203.71305 
L 211.706663 203.256849 
L 212.265221 202.798129 
L 212.82378 202.33694 
L 213.382338 201.873279 
L 213.940896 201.407191 
L 214.499454 200.938714 
L 215.058013 200.46785 
L 215.616571 199.994632 
L 216.175129 199.519092 
L 216.733687 199.041256 
L 217.292245 198.561156 
L 217.850804 198.078793 
L 218.409362 197.594215 
L 218.96792 197.107441 
L 219.526478 196.618501 
L 220.085037 196.127414 
L 220.643595 195.63422 
L 221.202153 195.138928 
L 221.760711 194.641562 
L 222.31927 194.142172 
L 222.877828 193.640767 
L 223.436386 193.137379 
L 223.994944 192.632024 
L 224.553502 192.124737 
L 225.112061 191.615541 
L 225.670619 191.10447 
L 226.229177 190.591532 
L 226.787735 190.076776 
L 227.346294 189.560203 
L 227.904852 189.041862 
L 228.463423 188.521753 
L 229.021982 187.999934 
L 229.58054 187.476414 
L 230.139098 186.951224 
L 230.697656 186.424382 
L 231.256214 185.895913 
L 231.814773 185.365858 
L 232.373331 184.834233 
L 232.931889 184.301071 
L 233.490447 183.766373 
L 234.049006 183.230204 
L 234.607564 182.692557 
L 235.166122 182.15348 
L 235.72468 181.612983 
L 236.283238 181.071097 
L 236.841797 180.527857 
L 237.400355 179.983287 
L 237.958913 179.437403 
L 238.517471 178.890231 
L 239.07603 178.341811 
L 239.634588 177.792151 
L 240.193146 177.241303 
L 240.751704 176.689264 
L 241.310262 176.136069 
L 241.868821 175.581759 
L 242.427379 175.026342 
L 242.985937 174.469859 
L 243.544495 173.912318 
L 244.103054 173.35377 
L 244.661612 172.794214 
L 245.22017 172.233691 
L 245.778728 171.672219 
L 246.337287 171.109845 
L 246.895845 170.546563 
L 247.454403 169.982422 
L 248.012961 169.417439 
L 248.571519 168.851654 
L 249.130078 168.285067 
L 249.688636 167.717721 
L 250.247194 167.149647 
L 250.805752 166.580872 
L 251.364311 166.011386 
L 251.922869 165.441272 
L 252.481427 164.870513 
L 253.039985 164.299144 
L 253.598543 163.727212 
L 254.157102 163.154719 
L 254.71566 162.581697 
L 255.274218 162.00818 
L 255.832776 161.434183 
L 256.391335 160.85974 
L 256.949893 160.284884 
L 257.508451 159.709632 
L 258.067009 159.134 
L 258.625567 158.55802 
L 259.184126 157.981727 
L 259.742684 157.405153 
L 260.301242 156.828298 
L 260.8598 156.251211 
L 261.418359 155.673894 
L 261.976917 155.096411 
L 262.535475 154.518746 
L 263.094033 153.940966 
L 263.652592 153.36307 
L 264.21115 152.785074 
L 264.769708 152.207046 
L 265.328266 151.628969 
L 265.886824 151.050891 
L 266.445383 150.472846 
L 267.003941 149.894835 
L 267.562499 149.316889 
L 268.121057 148.739076 
L 268.679642 148.161328 
L 269.2382 147.583763 
L 269.796759 147.006379 
L 270.355317 146.429193 
L 270.913875 145.852256 
L 271.472433 145.275566 
L 272.030991 144.699157 
L 272.58955 144.123062 
L 273.148108 143.547264 
L 273.706666 142.971863 
L 274.265224 142.396826 
L 274.823783 141.822218 
L 275.382341 141.248039 
L 275.940899 140.674323 
L 276.499457 140.101103 
L 277.058016 139.528412 
L 277.616574 138.956249 
L 278.175132 138.384648 
L 278.73369 137.813658 
L 279.292248 137.243264 
L 279.850807 136.67353 
L 280.409365 136.104457 
L 280.967923 135.536111 
L 281.526481 134.968459 
L 282.08504 134.401583 
L 282.643598 133.835467 
L 283.202156 133.270178 
L 283.760714 132.705682 
L 284.319272 132.142061 
L 284.877831 131.5793 
L 285.436389 131.017463 
L 285.994947 130.456553 
L 286.553532 129.8966 
L 287.11209 129.337639 
L 287.670648 128.779702 
L 288.229207 128.222773 
L 288.787765 127.666934 
L 289.346323 127.112186 
L 289.904881 126.558528 
L 290.46344 126.006027 
L 291.021998 125.454716 
L 291.580556 124.904561 
L 292.139114 124.355629 
L 292.697672 123.807985 
L 293.256231 123.261564 
L 293.814789 122.716465 
L 294.373347 122.172705 
L 294.931905 121.630266 
L 295.490464 121.089215 
L 296.049022 120.549568 
L 296.60758 120.011343 
L 297.166138 119.474587 
L 297.724696 118.939286 
L 298.283255 118.405505 
L 298.841813 117.87326 
L 299.400371 117.342569 
L 299.958929 116.81348 
L 300.517488 116.285978 
L 301.076046 115.760127 
L 301.634604 115.235929 
L 302.193162 114.713433 
L 302.751721 114.192638 
L 303.310279 113.673595 
L 303.868837 113.15632 
L 304.427395 112.640829 
L 304.985953 112.127155 
L 305.544512 111.615324 
L 306.10307 111.105393 
L 306.661628 110.597329 
L 307.220186 110.091215 
L 307.778745 109.587033 
L 308.337303 109.084818 
L 308.895861 108.584619 
L 309.454419 108.086435 
L 310.012977 107.590317 
L 310.571536 107.096297 
L 311.130094 106.604359 
L 311.688652 106.114536 
L 312.24721 105.626893 
L 312.805769 105.141448 
L 313.364327 104.658185 
L 313.922885 104.177201 
L 314.481443 103.698431 
L 315.040001 103.221974 
L 315.59856 102.747831 
L 316.157118 102.276033 
L 316.715676 101.806566 
L 317.274234 101.339543 
L 317.832793 100.8749 
L 318.391351 100.412719 
L 318.949909 99.953016 
L 319.508467 99.495808 
L 320.067026 99.041095 
L 320.625584 98.588959 
L 321.184142 98.139401 
L 321.7427 97.692437 
L 322.301258 97.248083 
L 322.859817 96.806423 
L 323.418375 96.367406 
L 323.976933 95.931115 
L 324.535491 95.497517 
L 325.09405 95.066729 
L 325.652608 94.638699 
L 326.211166 94.213495 
L 326.769751 93.791067 
L 327.328309 93.371563 
L 327.886867 92.954917 
L 328.445426 92.541213 
L 329.003984 92.130432 
L 329.562542 91.722626 
L 330.1211 91.317811 
L 330.679658 90.916019 
L 331.238217 90.517251 
L 331.796775 90.121572 
L 332.355333 89.728983 
L 332.913891 89.339533 
L 333.47245 88.95319 
L 334.031008 88.570068 
L 334.589566 88.190119 
L 335.148124 87.813408 
L 335.706682 87.439952 
L 336.265241 87.069768 
L 336.823799 86.702888 
L 337.382357 86.339362 
L 337.940915 85.979157 
L 338.499474 85.622372 
L 339.058032 85.268958 
L 339.61659 84.919013 
L 340.175148 84.572505 
L 340.73372 84.229516 
L 341.292265 83.890014 
L 341.850836 83.554031 
L 342.409381 83.221633 
L 342.967953 82.892854 
L 343.526498 82.567693 
L 344.085069 82.246117 
L 344.643614 81.928259 
L 345.202186 81.614052 
L 345.76073 81.303629 
L 346.319302 80.996924 
L 346.877847 80.694035 
L 347.436418 80.394864 
L 347.994963 80.099575 
L 348.553535 79.808104 
L 349.11208 79.520581 
L 349.670651 79.236907 
L 350.229196 78.95715 
L 350.787768 78.681408 
L 351.346313 78.409614 
L 351.904884 78.141802 
L 352.463429 77.878072 
L 353.022001 77.618389 
L 353.580546 77.362787 
L 354.139117 77.111267 
L 354.697662 76.863926 
L 355.256234 76.620766 
L 355.814779 76.381753 
L 356.37335 76.146986 
L 356.931895 75.916432 
L 357.490467 75.690191 
L 358.049011 75.468196 
L 358.607583 75.250546 
L 359.166128 75.037275 
L 359.724699 74.828349 
L 360.283244 74.623835 
L 360.841816 74.423732 
L 361.400361 74.228073 
L 361.958932 74.036893 
L 362.517477 73.850223 
L 363.076049 73.668096 
L 363.634594 73.490546 
L 364.193165 73.31754 
L 364.75171 73.149144 
L 365.310282 72.98539 
L 365.868827 72.826312 
L 366.427398 72.671911 
L 366.985943 72.522218 
L 367.544515 72.377233 
L 368.10306 72.23709 
L 368.661631 72.101656 
L 369.220176 71.971096 
L 369.778748 71.845344 
L 370.337292 71.724466 
L 370.895864 71.608495 
L 371.454409 71.497465 
L 372.01298 71.391341 
L 372.571525 71.290224 
L 373.130097 71.19408 
L 373.688642 71.102976 
L 374.247213 71.016911 
L 374.805758 70.935951 
L 375.36433 70.860063 
L 375.922875 70.789314 
L 376.481446 70.723737 
L 377.039991 70.663331 
L 377.598563 70.60813 
L 378.157108 70.558166 
L 378.715679 70.513473 
L 379.274224 70.47405 
L 379.832796 70.439932 
L 380.39134 70.41115 
L 380.949912 70.387737 
L 381.508457 70.369728 
L 382.067028 70.357121 
L 382.625573 70.349984 
L 383.184145 70.348315 
L 383.74269 70.352115 
L 384.301261 70.361417 
L 384.859833 70.376304 
L 385.418404 70.396775 
L 385.976949 70.422814 
L 386.535521 70.454488 
L 387.094066 70.491795 
L 387.652637 70.534803 
L 388.211182 70.583511 
L 388.769754 70.637953 
L 389.328299 70.698127 
L 389.88687 70.764101 
L 390.445415 70.835875 
L 391.003987 70.91348 
L 391.562532 70.996951 
L 392.121103 71.086321 
L 392.679648 71.181556 
L 393.23822 71.282789 
L 393.796765 71.389953 
L 394.355336 71.503115 
L 394.913881 71.622275 
L 395.472452 71.747498 
L 396.030997 71.878785 
L 396.589569 72.016169 
L 397.148114 72.15965 
L 397.706685 72.309293 
L 398.26523 72.465133 
L 398.823802 72.627135 
L 399.382347 72.795399 
L 399.940918 72.969892 
L 400.499463 73.150647 
L 401.058035 73.337697 
L 401.61658 73.531076 
L 402.175151 73.730881 
L 402.733696 73.937015 
L 403.292268 74.149509 
L 403.850813 74.36853 
L 404.409384 74.593913 
L 404.967929 74.825821 
L 405.526501 75.064289 
L 406.085045 75.309217 
L 406.643617 75.560771 
L 407.202162 75.818917 
L 407.760733 76.083622 
L 408.319278 76.354986 
L 408.87785 76.633042 
L 409.436395 76.917822 
L 409.994966 77.209294 
L 410.553511 77.507424 
L 411.112083 77.812445 
L 411.670654 78.124206 
L 412.229226 78.442841 
L 412.787771 78.768266 
L 413.346342 79.100581 
L 413.904887 79.439819 
L 414.463459 79.785947 
L 415.022004 80.139064 
L 415.580575 80.499203 
L 416.13912 80.866265 
L 416.697692 81.240415 
L 417.256237 81.621553 
L 417.814808 82.009847 
L 418.373353 82.405195 
L 418.931925 82.807763 
L 419.490469 83.217453 
L 420.049041 83.634297 
L 420.607586 84.058394 
L 421.166157 84.489711 
L 421.724702 84.928282 
L 422.283274 85.374205 
L 422.841819 85.827382 
L 423.40039 86.287977 
L 423.958935 86.755892 
L 424.517507 87.231225 
L 425.076052 87.713943 
L 425.634623 88.204147 
L 426.193168 88.701802 
L 426.75174 89.206941 
L 427.310285 89.719665 
L 427.868856 90.239939 
L 428.427401 90.76773 
L 428.985973 91.303139 
L 429.544518 91.846264 
L 430.103089 92.397005 
L 430.661634 92.955396 
L 431.220206 93.521537 
L 431.77875 94.095393 
L 432.337322 94.676998 
L 432.895867 95.266385 
L 433.454438 95.863588 
L 434.012983 96.468705 
L 434.571555 97.081636 
L 435.1301 97.702416 
L 435.688671 98.331209 
L 436.247216 98.967851 
L 436.805788 99.612506 
L 437.364333 100.265141 
L 437.922904 100.925855 
L 438.481449 101.59455 
L 439.040021 102.271391 
L 439.598566 102.956277 
L 440.157137 103.64931 
L 440.715682 104.350455 
L 441.274254 105.059877 
L 441.832799 105.777412 
L 442.39137 106.503225 
L 442.949915 107.237217 
L 443.508486 107.979618 
L 444.067031 108.730264 
L 444.625603 109.489254 
L 445.184148 110.256554 
L 445.742719 111.032331 
L 446.301264 111.816485 
L 446.859836 112.609122 
L 447.418381 113.410129 
L 447.976952 114.219677 
L 448.535497 115.037734 
L 449.094069 115.8644 
L 449.652614 116.699509 
L 450.211185 117.543291 
L 450.76973 118.395715 
L 451.328302 119.256748 
L 451.886847 120.126487 
L 452.445418 121.004901 
L 453.003963 121.892088 
L 453.562535 122.78795 
L 454.121079 123.692651 
L 454.679651 124.606158 
L 455.238196 125.528439 
L 455.796767 126.459658 
L 456.355312 127.399651 
L 456.913884 128.348649 
L 457.472429 129.306552 
L 458.031 130.273459 
L 458.589545 131.249273 
L 459.148117 132.234157 
L 459.706662 133.228013 
L 460.265233 134.231006 
L 460.823778 135.243036 
L 461.38235 136.26427 
L 461.940895 137.294541 
L 462.499466 138.334081 
L 463.058011 139.382725 
L 463.616583 140.440639 
L 464.175128 141.507788 
L 464.733699 142.584272 
L 465.292244 143.669993 
L 465.850816 144.765048 
L 466.40936 145.869472 
L 466.967932 146.983297 
L 467.526477 148.106424 
L 468.085048 149.239085 
L 468.643593 150.38118 
L 469.202165 151.532742 
L 469.76071 152.693805 
L 470.319281 153.864401 
L 470.877826 155.044563 
L 471.436398 156.234325 
L 471.994943 157.43372 
L 472.553514 158.64278 
L 473.112059 159.861341 
L 473.670631 161.089699 
L 474.229202 162.327839 
L 474.787774 163.57576 
L 475.346319 164.833313 
L 475.90489 166.100664 
L 476.463435 167.377913 
L 477.022007 168.664959 
L 477.580552 169.961902 
L 478.139123 171.268774 
L 478.697668 172.585412 
L 479.25624 173.912244 
L 479.814784 175.248841 
L 480.373356 176.595632 
L 480.931901 177.95232 
L 481.490472 179.31907 
L 482.049017 180.695981 
L 482.607589 182.082954 
L 483.166134 183.479957 
L 483.724705 184.887286 
L 484.28325 186.304777 
L 484.841822 187.732461 
L 485.400367 189.170307 
L 485.958938 190.61848 
L 486.517483 192.076946 
L 487.076055 193.545738 
L 487.6346 195.024824 
L 488.193171 196.514369 
L 488.751716 198.014207 
L 489.310288 199.524504 
L 489.868833 201.045226 
L 490.427404 202.576407 
L 490.985949 204.118146 
L 491.544521 205.670476 
L 492.103065 207.233231 
L 492.661637 208.806577 
L 493.220182 210.390614 
L 493.778753 211.985241 
L 494.337298 213.590426 
L 494.89587 215.206466 
L 495.454415 216.833062 
L 496.012986 218.470383 
L 496.571531 220.118526 
L 497.130103 221.777524 
L 497.688648 223.447213 
L 498.247219 225.127889 
L 498.805764 226.819254 
L 499.364336 228.521608 
L 499.922881 230.234783 
L 500.481452 231.959078 
L 501.039997 233.694195 
L 501.598569 235.440432 
L 502.157113 237.197491 
L 502.715685 238.965801 
L 503.27423 240.745066 
L 503.832801 242.535451 
L 504.391346 244.336922 
L 504.949918 246.149645 
L 505.508463 247.973454 
L 506.067034 249.808516 
L 506.625579 251.654796 
L 507.184151 253.512459 
L 507.742696 255.38121 
L 508.301267 257.261344 
L 508.859812 259.152697 
L 509.418384 261.055566 
L 509.976929 262.969786 
L 510.5355 264.89539 
L 511.094045 266.832477 
L 511.652617 268.780948 
L 512.211162 270.740902 
L 512.769733 272.712505 
L 513.328278 274.69559 
L 513.88685 276.690192 
L 514.445421 278.696557 
L 515.003993 280.714422 
L 515.562538 282.743771 
L 516.121109 284.785032 
L 516.679654 286.83791 
L 517.238225 288.902434 
L 517.79677 290.978838 
L 518.355342 293.06689 
L 518.913887 295.166822 
L 519.472458 297.278535 
L 520.031003 299.402127 
L 520.589575 301.537631 
L 521.14812 303.685016 
L 521.706691 305.844445 
L 522.265236 308.015621 
L 522.823808 310.198975 
L 523.382353 312.394208 
L 523.940924 314.601486 
L 524.499469 316.820776 
L 525.058041 319.052375 
L 525.616586 321.295853 
L 526.175157 323.551641 
L 526.733702 325.819441 
L 527.292274 328.099681 
L 527.850818 330.391802 
L 528.40939 332.696496 
L 528.967935 335.013202 
L 529.526506 337.342349 
L 530.085051 339.683773 
L 530.643623 342.037638 
L 531.202168 344.403778 
L 531.760739 346.782361 
L 532.319284 349.173351 
L 532.877856 351.576783 
L 533.436401 353.992624 
L 533.994972 356.42117 
L 534.553517 358.862124 
L 535.112089 361.315652 
L 535.670634 363.781721 
L 536.229205 366.260495 
L 536.78775 368.75181 
L 537.346322 371.25583 
L 537.904867 373.772523 
L 538.463438 376.302054 
L 539.021983 378.844126 
L 539.580555 381.399167 
L 540.139099 383.966749 
L 540.697671 386.547434 
L 541.256216 389.140659 
L 541.814787 391.746978 
L 542.373332 394.36611 
L 542.931904 396.998212 
L 543.490449 399.643251 
L 544.04902 402.30126 
L 544.607565 404.972207 
L 545.166137 407.656387 
L 545.724682 410.353373 
L 546.283253 413.063593 
L 546.841798 415.78675 
L 547.40037 418.523274 
L 547.958915 421.272735 
L 548.517486 424.035562 
L 549.076031 426.811459 
L 549.634603 429.600722 
L 550.193148 432.403187 
L 550.751719 435.218886 
L 551.310264 438.047918 
L 551.868835 440.89045 
L 552.42738 443.746051 
L 552.985952 446.615282 
L 553.544497 449.497848 
L 554.103068 452.393912 
L 554.661613 455.30331 
L 555.220185 458.226338 
L 555.77873 461.162833 
L 556.337301 464.112958 
L 556.895846 467.076549 
L 557.454418 470.053904 
L 558.012963 473.044592 
L 558.571534 476.049175 
L 559.130079 479.067356 
L 559.688651 482.099301 
L 560.247196 485.144843 
L 560.805767 488.204281 
L 561.364312 491.277448 
L 561.922884 494.364512 
L 562.481428 497.465305 
L 563.04 500.579993 
L 563.04 556.020007 
L 563.04 556.020007 
L 562.481428 552.905301 
L 561.922884 549.804508 
L 561.364312 546.717462 
L 560.805767 543.644294 
L 560.247196 540.58484 
L 559.688651 537.539297 
L 559.130079 534.507369 
L 558.571534 531.489188 
L 558.012963 528.484588 
L 557.454418 525.493917 
L 556.895846 522.516563 
L 556.337301 519.552971 
L 555.77873 516.602846 
L 555.220185 513.666351 
L 554.661613 510.743323 
L 554.103068 507.833925 
L 553.544497 504.937861 
L 552.985952 502.055296 
L 552.42738 499.186064 
L 551.868835 496.330463 
L 551.310264 493.487932 
L 550.751719 490.658899 
L 550.193148 487.8432 
L 549.634603 485.040735 
L 549.076031 482.251472 
L 548.517486 479.475575 
L 547.958915 476.712748 
L 547.40037 473.963287 
L 546.841798 471.226763 
L 546.283253 468.503606 
L 545.724682 465.793386 
L 545.166137 463.0964 
L 544.607565 460.41222 
L 544.04902 457.741273 
L 543.490449 455.083264 
L 542.931904 452.438225 
L 542.373332 449.806123 
L 541.814787 447.186991 
L 541.256216 444.580664 
L 540.697671 441.987439 
L 540.139099 439.406754 
L 539.580555 436.839172 
L 539.021983 434.284131 
L 538.463438 431.742059 
L 537.904867 429.212528 
L 537.346322 426.695835 
L 536.78775 424.191814 
L 536.229205 421.7005 
L 535.670634 419.221726 
L 535.112089 416.755657 
L 534.553517 414.302129 
L 533.994972 411.861175 
L 533.436401 409.432629 
L 532.877856 407.016788 
L 532.319284 404.613356 
L 531.760739 402.222366 
L 531.202168 399.843783 
L 530.643623 397.477642 
L 530.085051 395.123778 
L 529.526506 392.782354 
L 528.967935 390.453207 
L 528.40939 388.136493 
L 527.850818 385.831799 
L 527.292274 383.539678 
L 526.733702 381.259437 
L 526.175157 378.991638 
L 525.616586 376.73585 
L 525.058041 374.492371 
L 524.499469 372.260772 
L 523.940924 370.041483 
L 523.382353 367.834205 
L 522.823808 365.638971 
L 522.265236 363.455618 
L 521.706691 361.284441 
L 521.14812 359.125012 
L 520.589575 356.977628 
L 520.031003 354.842123 
L 519.472458 352.718531 
L 518.913887 350.606819 
L 518.355342 348.506887 
L 517.79677 346.418835 
L 517.238225 344.342431 
L 516.679654 342.277906 
L 516.121109 340.22503 
L 515.562538 338.183769 
L 515.003993 336.154421 
L 514.445421 334.136556 
L 513.88685 332.130191 
L 513.328278 330.135589 
L 512.769733 328.152504 
L 512.211162 326.180901 
L 511.652617 324.220947 
L 511.094045 322.272476 
L 510.5355 320.335389 
L 509.976929 318.409785 
L 509.418384 316.495565 
L 508.859812 314.592696 
L 508.301267 312.701343 
L 507.742696 310.821209 
L 507.184151 308.952458 
L 506.625579 307.094794 
L 506.067034 305.248514 
L 505.508463 303.413453 
L 504.949918 301.589644 
L 504.391346 299.776921 
L 503.832801 297.97545 
L 503.27423 296.185065 
L 502.715685 294.4058 
L 502.157113 292.637489 
L 501.598569 290.880431 
L 501.039997 289.134194 
L 500.481452 287.399077 
L 499.922881 285.674784 
L 499.364336 283.961608 
L 498.805764 282.259255 
L 498.247219 280.567889 
L 497.688648 278.887214 
L 497.130103 277.217525 
L 496.571531 275.558527 
L 496.012986 273.910384 
L 495.454415 272.273063 
L 494.89587 270.646465 
L 494.337298 269.030424 
L 493.778753 267.425239 
L 493.220182 265.830612 
L 492.661637 264.246576 
L 492.103065 262.67323 
L 491.544521 261.110474 
L 490.985949 259.558145 
L 490.427404 258.016406 
L 489.868833 256.485225 
L 489.310288 254.964502 
L 488.751716 253.454206 
L 488.193171 251.954367 
L 487.6346 250.464823 
L 487.076055 248.985737 
L 486.517483 247.516945 
L 485.958938 246.058479 
L 485.400367 244.610306 
L 484.841822 243.17246 
L 484.28325 241.744775 
L 483.724705 240.327285 
L 483.166134 238.919956 
L 482.607589 237.522953 
L 482.049017 236.13598 
L 481.490472 234.759068 
L 480.931901 233.392318 
L 480.373356 232.03563 
L 479.814784 230.688839 
L 479.25624 229.352243 
L 478.697668 228.025411 
L 478.139123 226.708773 
L 477.580552 225.4019 
L 477.022007 224.104957 
L 476.463435 222.817911 
L 475.90489 221.540663 
L 475.346319 220.273312 
L 474.787774 219.015758 
L 474.229202 217.767838 
L 473.670631 216.529698 
L 473.112059 215.301337 
L 472.553514 214.082777 
L 471.994943 212.873717 
L 471.436398 211.674322 
L 470.877826 210.48456 
L 470.319281 209.304397 
L 469.76071 208.133801 
L 469.202165 206.972739 
L 468.643593 205.821177 
L 468.085048 204.679082 
L 467.526477 203.546421 
L 466.967932 202.423294 
L 466.40936 201.309469 
L 465.850816 200.205045 
L 465.292244 199.109989 
L 464.733699 198.024269 
L 464.175128 196.947785 
L 463.616583 195.880635 
L 463.058011 194.822722 
L 462.499466 193.774078 
L 461.940895 192.734538 
L 461.38235 191.704266 
L 460.823778 190.683033 
L 460.265233 189.671002 
L 459.706662 188.66801 
L 459.148117 187.674154 
L 458.589545 186.68927 
L 458.031 185.713456 
L 457.472429 184.746548 
L 456.913884 183.788645 
L 456.355312 182.839648 
L 455.796767 181.899655 
L 455.238196 180.968435 
L 454.679651 180.046155 
L 454.121079 179.132647 
L 453.562535 178.227946 
L 453.003963 177.332085 
L 452.445418 176.444898 
L 451.886847 175.566484 
L 451.328302 174.696744 
L 450.76973 173.835712 
L 450.211185 172.983288 
L 449.652614 172.139505 
L 449.094069 171.304397 
L 448.535497 170.477731 
L 447.976952 169.659674 
L 447.418381 168.850125 
L 446.859836 168.049119 
L 446.301264 167.256489 
L 445.742719 166.472336 
L 445.184148 165.696559 
L 444.625603 164.929259 
L 444.067031 164.170269 
L 443.508486 163.419623 
L 442.949915 162.677222 
L 442.39137 161.94323 
L 441.832799 161.217417 
L 441.274254 160.499882 
L 440.715682 159.79046 
L 440.157137 159.089315 
L 439.598566 158.396282 
L 439.040021 157.711396 
L 438.481449 157.034555 
L 437.922904 156.36586 
L 437.364333 155.705146 
L 436.805788 155.052511 
L 436.247216 154.407856 
L 435.688671 153.771214 
L 435.1301 153.142421 
L 434.571555 152.521641 
L 434.012983 151.908709 
L 433.454438 151.303593 
L 432.895867 150.70639 
L 432.337322 150.117003 
L 431.77875 149.535398 
L 431.220206 148.961542 
L 430.661634 148.395401 
L 430.103089 147.83701 
L 429.544518 147.286269 
L 428.985973 146.743144 
L 428.427401 146.207735 
L 427.868856 145.679944 
L 427.310285 145.159669 
L 426.75174 144.646946 
L 426.193168 144.141807 
L 425.634623 143.644152 
L 425.076052 143.153948 
L 424.517507 142.67123 
L 423.958935 142.195897 
L 423.40039 141.727982 
L 422.841819 141.267387 
L 422.283274 140.81421 
L 421.724702 140.368287 
L 421.166157 139.929716 
L 420.607586 139.498399 
L 420.049041 139.074302 
L 419.490469 138.657458 
L 418.931925 138.247768 
L 418.373353 137.8452 
L 417.814808 137.449852 
L 417.256237 137.061558 
L 416.697692 136.68042 
L 416.13912 136.30627 
L 415.580575 135.939208 
L 415.022004 135.579069 
L 414.463459 135.225952 
L 413.904887 134.879824 
L 413.346342 134.540586 
L 412.787771 134.208271 
L 412.229226 133.882845 
L 411.670654 133.564211 
L 411.112083 133.25245 
L 410.553511 132.947429 
L 409.994966 132.649299 
L 409.436395 132.357827 
L 408.87785 132.073047 
L 408.319278 131.794991 
L 407.760733 131.523627 
L 407.202162 131.258922 
L 406.643617 131.000776 
L 406.085045 130.749222 
L 405.526501 130.504294 
L 404.967929 130.265826 
L 404.409384 130.033918 
L 403.850813 129.808535 
L 403.292268 129.589514 
L 402.733696 129.37702 
L 402.175151 129.170886 
L 401.61658 128.971081 
L 401.058035 128.777702 
L 400.499463 128.590652 
L 399.940918 128.409897 
L 399.382347 128.235404 
L 398.823802 128.06714 
L 398.26523 127.905138 
L 397.706685 127.749298 
L 397.148114 127.599655 
L 396.589569 127.456174 
L 396.030997 127.31879 
L 395.472452 127.187503 
L 394.913881 127.06228 
L 394.355336 126.94312 
L 393.796765 126.829958 
L 393.23822 126.722794 
L 392.679648 126.621561 
L 392.121103 126.526326 
L 391.562532 126.436956 
L 391.003987 126.353485 
L 390.445415 126.275879 
L 389.88687 126.204106 
L 389.328299 126.138132 
L 388.769754 126.077958 
L 388.211182 126.023516 
L 387.652637 125.974808 
L 387.094066 125.9318 
L 386.535521 125.894493 
L 385.976949 125.862819 
L 385.418404 125.83678 
L 384.859833 125.816309 
L 384.301261 125.801422 
L 383.74269 125.79212 
L 383.184145 125.78832 
L 382.625573 125.789989 
L 382.067028 125.797126 
L 381.508457 125.809733 
L 380.949912 125.827742 
L 380.39134 125.851154 
L 379.832796 125.879936 
L 379.274224 125.914055 
L 378.715679 125.953478 
L 378.157108 125.998171 
L 377.598563 126.048135 
L 377.039991 126.103336 
L 376.481446 126.163742 
L 375.922875 126.229319 
L 375.36433 126.300068 
L 374.805758 126.375956 
L 374.247213 126.456915 
L 373.688642 126.542981 
L 373.130097 126.634085 
L 372.571525 126.730229 
L 372.01298 126.831346 
L 371.454409 126.93747 
L 370.895864 127.0485 
L 370.337292 127.164471 
L 369.778748 127.285349 
L 369.220176 127.411101 
L 368.661631 127.541661 
L 368.10306 127.677095 
L 367.544515 127.817238 
L 366.985943 127.962222 
L 366.427398 128.111915 
L 365.868827 128.266317 
L 365.310282 128.425395 
L 364.75171 128.589149 
L 364.193165 128.757545 
L 363.634594 128.930551 
L 363.076049 129.108101 
L 362.517477 129.290227 
L 361.958932 129.476898 
L 361.400361 129.668078 
L 360.841816 129.863737 
L 360.283244 130.06384 
L 359.724699 130.268354 
L 359.166128 130.47728 
L 358.607583 130.690551 
L 358.049011 130.908201 
L 357.490467 131.130196 
L 356.931895 131.356437 
L 356.37335 131.586991 
L 355.814779 131.821758 
L 355.256234 132.060771 
L 354.697662 132.303931 
L 354.139117 132.551272 
L 353.580546 132.802792 
L 353.022001 133.058394 
L 352.463429 133.318077 
L 351.904884 133.581807 
L 351.346313 133.849619 
L 350.787768 134.121413 
L 350.229196 134.397155 
L 349.670651 134.676912 
L 349.11208 134.960586 
L 348.553535 135.248109 
L 347.994963 135.53958 
L 347.436418 135.834869 
L 346.877847 136.13404 
L 346.319302 136.436929 
L 345.76073 136.743634 
L 345.202186 137.054057 
L 344.643614 137.368264 
L 344.085069 137.686122 
L 343.526498 138.007698 
L 342.967953 138.332859 
L 342.409381 138.661638 
L 341.850836 138.994036 
L 341.292265 139.330019 
L 340.73372 139.669521 
L 340.175148 140.01251 
L 339.61659 140.35901 
L 339.058032 140.708962 
L 338.499474 141.062369 
L 337.940915 141.419162 
L 337.382357 141.779358 
L 336.823799 142.142893 
L 336.265241 142.509764 
L 335.706682 142.879957 
L 335.148124 143.253405 
L 334.589566 143.630124 
L 334.031008 144.010065 
L 333.47245 144.393195 
L 332.913891 144.77953 
L 332.355333 145.168988 
L 331.796775 145.561569 
L 331.238217 145.957256 
L 330.679658 146.356016 
L 330.1211 146.757816 
L 329.562542 147.162623 
L 329.003984 147.570437 
L 328.445426 147.981209 
L 327.886867 148.394922 
L 327.328309 148.811559 
L 326.769751 149.231072 
L 326.211166 149.653492 
L 325.652608 150.078704 
L 325.09405 150.506725 
L 324.535491 150.937522 
L 323.976933 151.371112 
L 323.418375 151.807411 
L 322.859817 152.246419 
L 322.301258 152.688088 
L 321.7427 153.132433 
L 321.184142 153.579406 
L 320.625584 154.028956 
L 320.067026 154.4811 
L 319.508467 154.935805 
L 318.949909 155.393021 
L 318.391351 155.852716 
L 317.832793 156.314905 
L 317.274234 156.77954 
L 316.715676 157.246571 
L 316.157118 157.71603 
L 315.59856 158.187836 
L 315.040001 158.661971 
L 314.481443 159.138436 
L 313.922885 159.617197 
L 313.364327 160.098189 
L 312.805769 160.581445 
L 312.24721 161.066898 
L 311.688652 161.554532 
L 311.130094 162.044364 
L 310.571536 162.536294 
L 310.012977 163.030322 
L 309.454419 163.526432 
L 308.895861 164.024624 
L 308.337303 164.524815 
L 307.778745 165.027038 
L 307.220186 165.531211 
L 306.661628 166.037334 
L 306.10307 166.54539 
L 305.544512 167.055329 
L 304.985953 167.567152 
L 304.427395 168.080825 
L 303.868837 168.596316 
L 303.310279 169.113592 
L 302.751721 169.632635 
L 302.193162 170.153429 
L 301.634604 170.675926 
L 301.076046 171.200124 
L 300.517488 171.725974 
L 299.958929 172.253477 
L 299.400371 172.782566 
L 298.841813 173.313257 
L 298.283255 173.845502 
L 297.724696 174.379283 
L 297.166138 174.914584 
L 296.60758 175.451339 
L 296.049022 175.989565 
L 295.490464 176.529212 
L 294.931905 177.070263 
L 294.373347 177.612701 
L 293.814789 178.156462 
L 293.256231 178.701561 
L 292.697672 179.247982 
L 292.139114 179.795625 
L 291.580556 180.344558 
L 291.021998 180.894713 
L 290.46344 181.446024 
L 289.904881 181.998525 
L 289.346323 182.552183 
L 288.787765 183.106931 
L 288.229207 183.662769 
L 287.670648 184.219698 
L 287.11209 184.777635 
L 286.553532 185.336597 
L 285.994947 185.896549 
L 285.436389 186.45746 
L 284.877831 187.019296 
L 284.319272 187.582058 
L 283.760714 188.145678 
L 283.202156 188.710175 
L 282.643598 189.275464 
L 282.08504 189.84158 
L 281.526481 190.408455 
L 280.967923 190.976107 
L 280.409365 191.544453 
L 279.850807 192.113526 
L 279.292248 192.68326 
L 278.73369 193.253655 
L 278.175132 193.824645 
L 277.616574 194.396246 
L 277.058016 194.968408 
L 276.499457 195.5411 
L 275.940899 196.11432 
L 275.382341 196.688036 
L 274.823783 197.262214 
L 274.265224 197.836822 
L 273.706666 198.41186 
L 273.148108 198.987261 
L 272.58955 199.563059 
L 272.030991 200.139154 
L 271.472433 200.715563 
L 270.913875 201.292252 
L 270.355317 201.86919 
L 269.796759 202.446376 
L 269.2382 203.023759 
L 268.679642 203.601325 
L 268.121057 204.179072 
L 267.562499 204.756886 
L 267.003941 205.334831 
L 266.445383 205.912843 
L 265.886824 206.490888 
L 265.328266 207.068965 
L 264.769708 207.647043 
L 264.21115 208.225071 
L 263.652592 208.803066 
L 263.094033 209.380962 
L 262.535475 209.958743 
L 261.976917 210.536407 
L 261.418359 211.11389 
L 260.8598 211.691208 
L 260.301242 212.268294 
L 259.742684 212.845149 
L 259.184126 213.421724 
L 258.625567 213.998017 
L 258.067009 214.573996 
L 257.508451 215.149629 
L 256.949893 215.724881 
L 256.391335 216.299737 
L 255.832776 216.874182 
L 255.274218 217.448179 
L 254.71566 218.021696 
L 254.157102 218.594718 
L 253.598543 219.167211 
L 253.039985 219.739143 
L 252.481427 220.310512 
L 251.922869 220.88127 
L 251.364311 221.451384 
L 250.805752 222.02087 
L 250.247194 222.589646 
L 249.688636 223.15772 
L 249.130078 223.725066 
L 248.571519 224.291652 
L 248.012961 224.857437 
L 247.454403 225.422421 
L 246.895845 225.986562 
L 246.337287 226.549844 
L 245.778728 227.112217 
L 245.22017 227.67369 
L 244.661612 228.234213 
L 244.103054 228.793769 
L 243.544495 229.352317 
L 242.985937 229.909857 
L 242.427379 230.46634 
L 241.868821 231.021758 
L 241.310262 231.576068 
L 240.751704 232.129263 
L 240.193146 232.681301 
L 239.634588 233.23215 
L 239.07603 233.781809 
L 238.517471 234.330229 
L 237.958913 234.877402 
L 237.400355 235.423286 
L 236.841797 235.967856 
L 236.283238 236.511096 
L 235.72468 237.052982 
L 235.166122 237.593479 
L 234.607564 238.132556 
L 234.049006 238.670203 
L 233.490447 239.206372 
L 232.931889 239.74107 
L 232.373331 240.274232 
L 231.814773 240.805856 
L 231.256214 241.335912 
L 230.697656 241.864381 
L 230.139098 242.391223 
L 229.58054 242.916412 
L 229.021982 243.439933 
L 228.463423 243.961752 
L 227.904852 244.481861 
L 227.346294 245.000202 
L 226.787735 245.516775 
L 226.229177 246.031531 
L 225.670619 246.544469 
L 225.112061 247.05554 
L 224.553502 247.564736 
L 223.994944 248.072023 
L 223.436386 248.577377 
L 222.877828 249.080766 
L 222.31927 249.582171 
L 221.760711 250.081561 
L 221.202153 250.578927 
L 220.643595 251.074219 
L 220.085037 251.567413 
L 219.526478 252.0585 
L 218.96792 252.547439 
L 218.409362 253.034214 
L 217.850804 253.518792 
L 217.292245 254.001155 
L 216.733687 254.481255 
L 216.175129 254.959091 
L 215.616571 255.434631 
L 215.058013 255.907849 
L 214.499454 256.378713 
L 213.940896 256.847189 
L 213.382338 257.313278 
L 212.82378 257.776938 
L 212.265221 258.238128 
L 211.706663 258.696848 
L 211.148105 259.153048 
L 210.589547 259.606729 
L 210.030975 260.057857 
L 209.472417 260.506382 
L 208.913859 260.952297 
L 208.355301 261.395577 
L 207.796742 261.836196 
L 207.238184 262.274123 
L 206.679626 262.709331 
L 206.121068 263.141797 
L 205.562509 263.571495 
L 205.003951 263.998401 
L 204.445393 264.42249 
L 203.886835 264.843729 
L 203.328277 265.262093 
L 202.769718 265.677565 
L 202.21116 266.090105 
L 201.652602 266.499695 
L 201.094044 266.906312 
L 200.535485 267.30993 
L 199.976927 267.710507 
L 199.418369 268.10804 
L 198.859811 268.502492 
L 198.301252 268.89383 
L 197.742694 269.28204 
L 197.184136 269.667091 
L 196.625578 270.048956 
L 196.06702 270.427609 
L 195.508461 270.803018 
L 194.949903 271.175173 
L 194.391345 271.544036 
L 193.832787 271.909578 
L 193.274228 272.271786 
L 192.71567 272.630624 
L 192.157112 272.98607 
L 191.598554 273.338089 
L 191.039996 273.68667 
L 190.481437 274.031774 
L 189.922879 274.373387 
L 189.364321 274.711468 
L 188.805763 275.046002 
L 188.247204 275.376962 
L 187.688646 275.704316 
L 187.130088 276.028044 
L 186.57153 276.348116 
L 186.012972 276.664508 
L 185.454413 276.977194 
L 184.895855 277.286147 
L 184.337297 277.591345 
L 183.778739 277.892751 
L 183.220167 278.19036 
L 182.661609 278.484121 
L 182.103051 278.774019 
L 181.544492 279.06003 
L 180.985934 279.342125 
L 180.427376 279.62028 
L 179.868818 279.894465 
L 179.31026 280.16466 
L 178.751701 280.430836 
L 178.193143 280.692964 
L 177.634585 280.951023 
L 177.076027 281.204981 
L 176.517468 281.45482 
L 175.95891 281.700505 
L 175.400352 281.942015 
L 174.841794 282.179328 
L 174.283235 282.41241 
L 173.724677 282.641237 
L 173.166119 282.865785 
L 172.607561 283.086024 
L 172.049003 283.301933 
L 171.490444 283.513486 
L 170.931886 283.720652 
L 170.373328 283.923409 
L 169.814773 284.121729 
L 169.256215 284.315587 
L 168.697653 284.504956 
L 168.139095 284.689811 
L 167.580537 284.870126 
L 167.021979 285.045875 
L 166.46342 285.217028 
L 165.904862 285.383564 
L 165.346307 285.545455 
L 164.787749 285.702676 
L 164.229187 285.855198 
L 163.670629 286.002999 
L 163.112071 286.14605 
L 162.553513 286.284326 
L 161.994955 286.417803 
L 161.436396 286.546446 
L 160.877828 286.670244 
L 160.31927 286.78916 
L 159.760708 286.903165 
L 159.20215 287.012246 
L 158.643592 287.116362 
L 158.085034 287.215496 
L 157.526475 287.309624 
L 156.967917 287.398713 
L 156.409362 287.482742 
L 155.850804 287.561682 
L 155.292243 287.635508 
L 154.733684 287.704196 
L 154.175126 287.767712 
L 153.616568 287.826041 
L 153.05801 287.879152 
L 152.499451 287.927013 
L 151.940896 287.969608 
L 151.382338 288.006907 
L 150.823777 288.038882 
L 150.265218 288.065508 
L 149.70666 288.08676 
L 149.148102 288.102609 
L 148.589544 288.113035 
L 148.030986 288.118004 
L 147.472431 288.117496 
L 146.913872 288.111482 
L 146.355311 288.099941 
L 145.796753 288.08284 
L 145.238194 288.060155 
L 144.679636 288.03186 
L 144.121078 287.997931 
L 143.56252 287.95834 
L 143.003963 287.913064 
L 142.445405 287.862068 
L 141.886847 287.805338 
L 141.328289 287.742842 
L 140.76973 287.674555 
L 140.21117 287.600444 
L 139.652612 287.520496 
L 139.094054 287.434674 
L 138.535484 287.342954 
L 137.976926 287.245315 
L 137.418368 287.141728 
L 136.859809 287.032168 
L 136.301251 286.916606 
L 135.742691 286.795017 
L 135.184133 286.667378 
L 134.625575 286.533658 
L 134.067018 286.393837 
L 133.50846 286.247882 
L 132.949902 286.095773 
L 132.391344 285.937476 
L 131.832785 285.772974 
L 131.274226 285.602236 
L 130.715667 285.42524 
L 130.157109 285.241952 
L 129.598552 285.052356 
L 129.039994 284.856419 
L 128.481436 284.654116 
L 127.922878 284.445422 
L 127.364319 284.23031 
L 126.805761 284.008755 
L 126.247201 283.780731 
L 125.688643 283.54621 
L 125.130087 283.305171 
L 124.571528 283.057581 
L 124.01297 282.803419 
L 123.454412 282.542656 
L 122.895853 282.275267 
L 122.337295 282.001227 
L 121.778736 281.720507 
L 121.220177 281.433085 
L 120.661621 281.138935 
L 120.103063 280.838025 
L 119.544504 280.530334 
L 118.985946 280.215834 
L 118.427387 279.8945 
L 117.868829 279.566305 
L 117.31027 279.231225 
L 116.751712 278.889231 
L 116.193149 278.540297 
L 115.63459 278.1844 
L 115.076032 277.821512 
L 114.517473 277.451606 
L 113.958915 277.074658 
L 113.400356 276.690642 
L 112.841798 276.29953 
L 112.283239 275.901299 
L 111.724683 275.495919 
L 111.166124 275.083365 
L 110.607566 274.663613 
L 110.049008 274.236635 
L 109.490449 273.802408 
L 108.931891 273.3609 
L 108.373332 272.912089 
L 107.814773 272.455949 
L 107.25621 271.992448 
L 106.697652 271.521572 
L 106.139094 271.043285 
L 105.580535 270.557568 
L 105.021976 270.064386 
L 104.463418 269.563722 
L 103.904859 269.055545 
L 103.346301 268.539829 
L 102.787744 268.01655 
L 102.229186 267.48568 
L 101.670628 266.947194 
L 101.11207 266.401065 
L 100.553511 265.847267 
L 99.994952 265.285774 
L 99.436393 264.716562 
L 98.877835 264.139602 
L 98.319279 263.554872 
L 97.76072 262.962341 
L 97.202162 262.361986 
L 96.643604 261.753778 
L 96.085046 261.137695 
L 95.526486 260.513706 
L 94.967928 259.88179 
L 94.409369 259.24192 
L 93.850806 258.594062 
L 93.292248 257.938201 
L 92.73369 257.274308 
L 92.175131 256.602356 
L 91.616573 255.922317 
L 91.058013 255.234165 
L 90.499455 254.537877 
L 89.940897 253.833428 
L 89.38234 253.120788 
L 88.823782 252.399931 
L 88.265222 251.670831 
L 87.706664 250.933462 
L 87.148106 250.187802 
L 86.589548 249.433821 
L 86.030989 248.671493 
L 85.472431 247.900793 
L 84.91387 247.121691 
L 84.355311 246.334169 
L 83.79675 245.538192 
L 83.238191 244.733741 
L 82.679633 243.920789 
L 82.121075 243.099307 
L 81.562517 242.269271 
L 81.003959 241.430655 
L 80.445404 240.58344 
L 79.886845 239.727584 
L 79.328284 238.863061 
L 78.769726 237.989864 
L 78.211167 237.107952 
L 77.652609 236.217303 
L 77.094051 235.317889 
L 76.535493 234.40969 
L 75.976938 233.49268 
L 75.41838 232.566826 
L 74.859818 231.632095 
L 74.30126 230.688476 
L 73.742702 229.735934 
L 73.184143 228.77445 
L 72.625585 227.803994 
L 72.067027 226.824542 
L 71.508465 225.83606 
L 70.949907 224.838528 
L 70.391346 223.831916 
L 69.832787 222.816214 
L 69.274229 221.791382 
L 68.715671 220.75739 
L 68.157113 219.714223 
L 67.598555 218.661849 
L 67.04 217.600247 
L 66.481441 216.529384 
L 65.92288 215.449221 
L 65.364322 214.359758 
L 64.805763 213.260961 
L 64.247205 212.152803 
L 63.688647 211.035252 
L 63.130089 209.908291 
L 62.571527 208.77188 
L 62.012969 207.626002 
L 61.454407 206.470631 
L 60.895849 205.305744 
L 60.337291 204.131314 
L 59.778733 202.947319 
L 59.220174 201.753723 
L 58.661616 200.550495 
L 58.103058 199.337627 
L 57.5445 198.115076 
L 56.985942 196.882835 
L 56.427383 195.640854 
L 55.868825 194.389125 
L 55.310267 193.127606 
L 54.751709 191.856297 
L 54.19315 190.57515 
L 53.634592 189.284147 
L 53.076034 187.983255 
L 52.517476 186.67245 
L 51.958918 185.351723 
L 51.400359 184.021016 
L 50.841801 182.680339 
L 50.283243 181.329632 
L 49.724685 179.968896 
L 49.166126 178.598081 
L 48.607568 177.217188 
L 48.04901 175.826167 
L 47.490452 174.425 
L 46.931894 173.013665 
L 46.373335 171.592134 
L 45.814777 170.160377 
L 45.256219 168.718376 
L 44.697654 167.266072 
L 44.139096 165.803509 
L 43.580538 164.330594 
L 43.021979 162.847336 
L 42.463421 161.353694 
L 41.904863 159.849643 
L 41.346305 158.335166 
L 40.787746 156.81023 
L 40.229182 155.274803 
L 39.670623 153.728876 
L 39.112065 152.172415 
L 38.553507 150.605389 
L 37.994949 149.02778 
L 37.43639 147.439547 
L 36.877832 145.84069 
L 36.319274 144.231151 
L 35.760716 142.610923 
L 35.202157 140.979988 
L 34.643599 139.338297 
L 34.085041 137.685841 
L 33.526483 136.02258 
L 32.967925 134.348496 
L 32.409366 132.663591 
L 31.850808 130.967781 
L 31.29225 129.261082 
L 30.733692 127.543462 
L 30.175133 125.814871 
L 29.616575 124.075326 
L 29.058017 122.32476 
L 28.499459 120.563158 
L 27.940901 118.790502 
L 27.382342 117.006776 
L 26.823784 115.211947 
L 26.265226 113.405948 
L 25.706668 111.588822 
L 25.148109 109.760486 
L 24.589551 107.920963 
L 24.030993 106.070173 
L 23.472435 104.208131 
L 22.913877 102.334787 
L 22.355312 100.450109 
L 21.796753 98.55413 
L 21.238195 96.64675 
L 20.679637 94.727986 
L 20.121079 92.797806 
L 19.562521 90.856158 
L 19.003962 88.903061 
L 18.445404 86.938448 
L 17.886846 84.962318 
L 17.328288 82.974623 
L 16.769729 80.975362 
L 16.211171 78.964486 
L 15.652613 76.941995 
L 15.094055 74.907822 
L 14.535496 72.862001 
L 13.976938 70.804449 
L 13.418373 68.73515 
L 12.859815 66.654103 
L 12.301257 64.561259 
L 11.742699 62.456618 
L 11.18414 60.340147 
L 10.625582 58.211797 
L 10.067024 56.07155 
L 9.508466 53.919408 
L 8.949908 51.755303 
L 8.391349 49.579235 
L 7.832791 47.391173 
L 7.274233 45.191082 
L 6.715675 42.978963 
L 6.157116 40.75475 
L 5.598558 38.518442 
L 5.04 36.270007 
z
" clip-path="url(#p0cec9c9c6a)" style="fill: #b0c4de; fill-opacity: 0.9"/>
   </g>
   <g id="line2d_35">
    <path d="M 5.04 8.55 
L 10.067024 28.351544 
L 15.094055 47.187815 
L 20.121079 65.077799 
L 24.589551 80.200957 
L 29.058017 94.604762 
L 33.526483 108.302582 
L 37.994949 121.307782 
L 42.463421 133.633696 
L 46.931894 145.293666 
L 51.400359 156.301018 
L 55.868825 166.669126 
L 60.337291 176.411316 
L 64.247205 184.432804 
L 68.157113 191.994222 
L 72.067027 199.104541 
L 75.976938 205.772679 
L 79.886845 212.007583 
L 83.79675 217.818192 
L 87.706664 223.213462 
L 91.616573 228.202316 
L 95.526486 232.793705 
L 99.436393 236.996562 
L 102.787744 240.296549 
L 106.139094 243.323286 
L 109.490449 246.082406 
L 112.841798 248.57953 
L 116.193149 250.820296 
L 119.544504 252.810333 
L 122.895853 254.555267 
L 126.247201 256.06073 
L 129.598552 257.332355 
L 132.949902 258.37577 
L 136.301251 259.196605 
L 139.652612 259.800494 
L 143.003963 260.193062 
L 146.355311 260.379938 
L 149.70666 260.366759 
L 153.05801 260.159149 
L 156.967917 259.678715 
L 160.877828 258.950244 
L 164.787749 257.982675 
L 168.697653 256.784956 
L 172.607561 255.366024 
L 177.076027 253.484981 
L 181.544492 251.340029 
L 186.012972 248.944507 
L 190.481437 246.311773 
L 195.508461 243.083018 
L 200.535485 239.589929 
L 206.121068 235.421797 
L 211.706663 230.976848 
L 217.850804 225.798791 
L 224.553502 219.844735 
L 231.814773 213.085856 
L 240.193146 204.961301 
L 250.247194 194.869646 
L 264.769708 179.927045 
L 283.760714 160.42568 
L 293.814789 150.436464 
L 302.193162 142.433431 
L 309.454419 135.806434 
L 316.157118 129.996032 
L 322.301258 124.96809 
L 327.886867 120.674924 
L 333.47245 116.673197 
L 338.499474 113.34237 
L 343.526498 110.287699 
L 347.994963 107.819582 
L 352.463429 105.598078 
L 356.931895 103.636439 
L 360.841816 102.143738 
L 364.75171 100.86915 
L 368.661631 99.821663 
L 372.571525 99.010231 
L 376.481446 98.443744 
L 380.39134 98.131156 
L 383.74269 98.072122 
L 387.094066 98.211802 
L 390.445415 98.555881 
L 393.796765 99.10996 
L 397.148114 99.879656 
L 400.499463 100.870654 
L 403.850813 102.088537 
L 407.202162 103.538924 
L 410.553511 105.227431 
L 413.904887 107.159826 
L 417.256237 109.34156 
L 420.607586 111.7784 
L 423.958935 114.475898 
L 427.310285 117.439671 
L 430.661634 120.675403 
L 434.012983 124.188711 
L 437.364333 127.985147 
L 441.274254 132.779884 
L 445.184148 137.976561 
L 449.094069 143.584398 
L 453.003963 149.612087 
L 456.913884 156.068647 
L 460.823778 162.963034 
L 464.733699 170.304271 
L 468.643593 178.101178 
L 472.553514 186.362778 
L 476.463435 195.097911 
L 480.931901 205.672318 
L 485.400367 216.890306 
L 489.868833 228.765224 
L 494.337298 241.310424 
L 498.805764 254.539255 
L 503.27423 268.465067 
L 507.742696 283.10121 
L 512.211162 298.460903 
L 516.679654 314.557908 
L 521.14812 331.405014 
L 526.175157 351.271639 
L 528.55007 361 
L 528.55007 361 
" clip-path="url(#p0cec9c9c6a)" style="fill: none; stroke: #1f77b4; stroke-width: 1.5; stroke-linecap: square"/>
   </g>
   <g id="line2d_36">
    <path d="M 5.04 249.883275 
L 40.229182 253.764967 
L 60.337291 255.768623 
L 75.976938 257.111217 
L 88.823782 257.999503 
L 99.994952 258.556845 
L 110.049008 258.837883 
L 118.985946 258.871118 
L 127.364319 258.679681 
L 135.184133 258.273065 
L 142.445405 257.66818 
L 149.148102 256.88947 
L 155.292243 255.968189 
L 161.436396 254.827746 
L 167.580537 253.447382 
L 173.166119 251.966404 
L 178.751701 250.253551 
L 184.337297 248.292928 
L 189.364321 246.303778 
L 194.391345 244.090949 
L 199.418369 241.64455 
L 204.445393 238.956165 
L 209.472417 236.018373 
L 214.499454 232.825872 
L 219.526478 229.3753 
L 224.553502 225.665837 
L 229.58054 221.699187 
L 235.166122 216.996423 
L 240.751704 211.994212 
L 246.895845 206.166718 
L 253.039985 200.029015 
L 259.742684 193.02653 
L 267.562499 184.53521 
L 278.73369 172.035315 
L 294.931905 153.913101 
L 302.751721 145.520734 
L 308.895861 139.229141 
L 314.481443 133.805793 
L 319.508467 129.208136 
L 324.535491 124.912872 
L 329.003984 121.372194 
L 333.47245 118.111142 
L 337.940915 115.144981 
L 341.850836 112.801369 
L 345.76073 110.699884 
L 349.670651 108.84559 
L 353.580546 107.24219 
L 357.490467 105.891814 
L 361.400361 104.795139 
L 365.310282 103.951604 
L 369.220176 103.359325 
L 373.130097 103.015213 
L 377.039991 102.915236 
L 380.949912 103.054387 
L 384.859833 103.426753 
L 388.769754 104.025641 
L 392.679648 104.84383 
L 396.589569 105.873507 
L 401.058035 107.298515 
L 405.526501 108.975903 
L 409.994966 110.892238 
L 414.463459 113.033666 
L 419.490469 115.694434 
L 424.517507 118.602394 
L 430.103089 122.098866 
L 435.688671 125.848544 
L 441.832799 130.233632 
L 448.535497 135.289167 
L 455.796767 141.037345 
L 464.175128 147.95384 
L 474.229202 156.554397 
L 487.6346 168.338707 
L 522.265236 198.917801 
L 533.994972 208.913296 
L 544.607565 217.673726 
L 554.661613 225.681179 
L 563.04 232.114517 
L 563.04 232.114517 
" clip-path="url(#p0cec9c9c6a)" style="fill: none; stroke: #e24a33; stroke-width: 1.5; stroke-linecap: square"/>
   </g>
   <g id="line2d_37">
    <path d="M 5.04 251.513717 
L 35.202157 254.590991 
L 54.751709 256.375055 
L 70.391346 257.587354 
L 83.238191 258.371714 
L 94.409369 258.844247 
L 104.463418 259.056436 
L 113.400356 259.036865 
L 121.778736 258.805675 
L 129.598552 258.372251 
L 136.859809 257.753445 
L 143.56252 256.972778 
L 150.265218 255.967117 
L 156.409362 254.826633 
L 162.553513 253.456727 
L 168.139095 251.995163 
L 173.724677 250.312092 
L 179.31026 248.392262 
L 184.895855 246.220937 
L 189.922879 244.040045 
L 194.949903 241.634639 
L 199.976927 238.996531 
L 205.003951 236.118493 
L 210.030975 232.995146 
L 215.058013 229.622989 
L 220.085037 226.000864 
L 225.670619 221.684807 
L 231.256214 217.067917 
L 236.841797 212.161217 
L 242.985937 206.448611 
L 249.130078 200.434413 
L 255.832776 193.573938 
L 263.652592 185.253666 
L 274.265224 173.615378 
L 292.139114 153.993218 
L 299.958929 145.778888 
L 306.10307 139.626043 
L 311.688652 134.325886 
L 316.715676 129.835806 
L 321.7427 125.643972 
L 326.211166 122.191301 
L 330.679658 119.01419 
L 335.148124 116.127742 
L 339.058032 113.85031 
L 342.967953 111.811627 
L 346.877847 110.016947 
L 350.787768 108.470053 
L 354.697662 107.173176 
L 358.607583 106.127258 
L 362.517477 105.332018 
L 366.427398 104.785804 
L 370.337292 104.485955 
L 374.247213 104.428589 
L 378.157108 104.609229 
L 382.067028 105.02214 
L 385.976949 105.661177 
L 389.88687 106.519302 
L 393.796765 107.589061 
L 398.26523 109.06053 
L 402.733696 110.785503 
L 407.202162 112.750926 
L 411.670654 114.9434 
L 416.697692 117.66431 
L 421.724702 120.63565 
L 427.310285 124.206886 
L 432.895867 128.036053 
L 439.040021 132.514584 
L 445.742719 137.679224 
L 453.003963 143.554129 
L 461.38235 150.627719 
L 471.436398 159.430973 
L 484.28325 170.998691 
L 521.706691 204.886657 
L 533.436401 215.108666 
L 544.04902 224.058383 
L 553.544497 231.785376 
L 563.04 239.220187 
L 563.04 239.220187 
" clip-path="url(#p0cec9c9c6a)" style="fill: none; stroke: #348abd; stroke-width: 1.5; stroke-linecap: square"/>
   </g>
   <g id="line2d_38">
    <path d="M 5.04 258.202981 
L 39.112065 261.478697 
L 59.778733 263.251403 
L 75.41838 264.382411 
L 88.823782 265.131909 
L 99.994952 265.544044 
L 110.049008 265.702023 
L 118.985946 265.633265 
L 127.364319 265.354358 
L 135.184133 264.87449 
L 142.445405 264.21009 
L 149.148102 263.384846 
L 155.850804 262.331633 
L 161.994955 261.144506 
L 168.139095 259.724695 
L 173.724677 258.214927 
L 179.31026 256.480338 
L 184.895855 254.505671 
L 190.481437 252.276162 
L 195.508461 250.040102 
L 200.535485 247.576842 
L 205.562509 244.878271 
L 210.589547 241.93748 
L 215.616571 238.749341 
L 220.643595 235.310863 
L 225.670619 231.621294 
L 231.256214 227.229844 
L 236.841797 222.538042 
L 242.427379 217.558172 
L 248.571519 211.768706 
L 255.274218 205.116752 
L 262.535475 197.574042 
L 270.913875 188.54125 
L 285.994947 171.867695 
L 297.166138 159.682734 
L 304.427395 152.077544 
L 310.571536 145.943501 
L 316.157118 140.668896 
L 321.184142 136.20911 
L 326.211166 132.054872 
L 330.679658 128.641847 
L 335.148124 125.510388 
L 339.61659 122.675457 
L 343.526498 120.447699 
L 347.436418 118.463077 
L 351.346313 116.726523 
L 355.256234 115.241489 
L 359.166128 114.010016 
L 363.076049 113.032674 
L 366.985943 112.308803 
L 370.895864 111.836278 
L 374.805758 111.61202 
L 378.715679 111.631714 
L 382.625573 111.890191 
L 386.535521 112.381386 
L 390.445415 113.098409 
L 394.355336 114.033684 
L 398.26523 115.179298 
L 402.733696 116.73499 
L 407.202162 118.540708 
L 411.670654 120.582613 
L 416.697692 123.144206 
L 421.724702 125.966043 
L 427.310285 129.381324 
L 432.895867 133.063797 
L 439.040021 137.38966 
L 445.742719 142.395752 
L 453.003963 148.105202 
L 461.38235 154.99184 
L 471.436398 163.570291 
L 484.841822 175.334683 
L 517.238225 203.882404 
L 528.967935 213.857618 
L 539.580555 222.587552 
L 549.076031 230.118193 
L 558.012963 236.938353 
L 563.04 240.653945 
L 563.04 240.653945 
" clip-path="url(#p0cec9c9c6a)" style="fill: none; stroke: #988ed5; stroke-width: 1.5; stroke-linecap: square"/>
   </g>
   <g id="line2d_39">
    <path d="M 5.04 247.56193 
L 37.994949 250.960956 
L 58.103058 252.825484 
L 73.742702 254.063864 
L 86.589548 254.871848 
L 97.76072 255.365083 
L 107.814773 255.594899 
L 116.751712 255.588928 
L 125.130087 255.367663 
L 132.949902 254.94015 
L 140.21117 254.322924 
L 146.913872 253.539652 
L 153.616568 252.52667 
L 159.760708 251.37468 
L 165.904862 249.988031 
L 171.490444 248.506304 
L 177.076027 246.79767 
L 182.661609 244.84654 
L 188.247204 242.637768 
L 193.274228 240.41775 
L 198.301252 237.967863 
L 203.328277 235.279624 
L 208.355301 232.345942 
L 213.382338 229.161415 
L 218.409362 225.722769 
L 223.436386 222.029014 
L 228.463423 218.081932 
L 234.049006 213.405096 
L 239.634588 208.432942 
L 245.778728 202.642668 
L 251.922869 196.545894 
L 258.625567 189.591253 
L 266.445383 181.158374 
L 277.616574 168.742612 
L 293.814789 150.732606 
L 301.634604 142.386312 
L 307.778745 136.126213 
L 313.364327 130.72764 
L 318.391351 126.149248 
L 323.418375 121.870404 
L 327.886867 118.342146 
L 332.355333 115.091735 
L 336.823799 112.134614 
L 340.73372 109.797885 
L 344.643614 107.702554 
L 348.553535 105.85396 
L 352.463429 104.256051 
L 356.37335 102.911175 
L 360.283244 101.820321 
L 364.193165 100.983162 
L 368.10306 100.398065 
L 372.01298 100.062236 
L 375.922875 99.971855 
L 379.832796 100.12208 
L 383.74269 100.507225 
L 387.652637 101.12088 
L 391.562532 101.955874 
L 395.472452 103.00456 
L 399.940918 104.454187 
L 404.409384 106.159424 
L 408.87785 108.106907 
L 413.346342 110.282952 
L 418.373353 112.98681 
L 423.40039 115.942204 
L 428.985973 119.49658 
L 434.571555 123.309374 
L 440.715682 127.769866 
L 447.418381 132.914349 
L 454.679651 138.766209 
L 463.058011 145.810965 
L 473.112059 154.575771 
L 486.517483 166.592924 
L 521.706691 198.299828 
L 533.436401 208.49492 
L 544.04902 217.428022 
L 554.103068 225.590931 
L 563.04 232.575953 
L 563.04 232.575953 
" clip-path="url(#p0cec9c9c6a)" style="fill: none; stroke: #777777; stroke-width: 1.5; stroke-linecap: square"/>
   </g>
   <g id="patch_3">
    <path d="M 72 320.4 
L 72 43.2 
" style="fill: none; stroke: #ffffff; stroke-linejoin: miter; stroke-linecap: square"/>
   </g>
   <g id="patch_4">
    <path d="M 518.4 320.4 
L 518.4 43.2 
" style="fill: none; stroke: #ffffff; stroke-linejoin: miter; stroke-linecap: square"/>
   </g>
   <g id="patch_5">
    <path d="M 72 320.4 
L 518.4 320.4 
" style="fill: none; stroke: #ffffff; stroke-linejoin: miter; stroke-linecap: square"/>
   </g>
   <g id="patch_6">
    <path d="M 72 43.2 
L 518.4 43.2 
" style="fill: none; stroke: #ffffff; stroke-linejoin: miter; stroke-linecap: square"/>
   </g>
   <g id="text_18">
    <!-- Prediction Curves -->
    <g transform="translate(232.153875 37.2)scale(0.144 -0.144)">
     <defs>
      <path id="DejaVuSans-50" d="M 1259 4147 
L 1259 2394 
L 2053 2394 
Q 2494 2394 2734 2622 
Q 2975 2850 2975 3272 
Q 2975 3691 2734 3919 
Q 2494 4147 2053 4147 
L 1259 4147 
z
M 628 4666 
L 2053 4666 
Q 2838 4666 3239 4311 
Q 3641 3956 3641 3272 
Q 3641 2581 3239 2228 
Q 2838 1875 2053 1875 
L 1259 1875 
L 1259 0 
L 628 0 
L 628 4666 
z
" transform="scale(0.015625)"/>
      <path id="DejaVuSans-72" d="M 2631 2963 
Q 2534 3019 2420 3045 
Q 2306 3072 2169 3072 
Q 1681 3072 1420 2755 
Q 1159 2438 1159 1844 
L 1159 0 
L 581 0 
L 581 3500 
L 1159 3500 
L 1159 2956 
Q 1341 3275 1631 3429 
Q 1922 3584 2338 3584 
Q 2397 3584 2469 3576 
Q 2541 3569 2628 3553 
L 2631 2963 
z
" transform="scale(0.015625)"/>
      <path id="DejaVuSans-65" d="M 3597 1894 
L 3597 1613 
L 953 1613 
Q 991 1019 1311 708 
Q 1631 397 2203 397 
Q 2534 397 2845 478 
Q 3156 559 3463 722 
L 3463 178 
Q 3153 47 2828 -22 
Q 2503 -91 2169 -91 
Q 1331 -91 842 396 
Q 353 884 353 1716 
Q 353 2575 817 3079 
Q 1281 3584 2069 3584 
Q 2775 3584 3186 3129 
Q 3597 2675 3597 1894 
z
M 3022 2063 
Q 3016 2534 2758 2815 
Q 2500 3097 2075 3097 
Q 1594 3097 1305 2825 
Q 1016 2553 972 2059 
L 3022 2063 
z
" transform="scale(0.015625)"/>
      <path id="DejaVuSans-64" d="M 2906 2969 
L 2906 4863 
L 3481 4863 
L 3481 0 
L 2906 0 
L 2906 525 
Q 2725 213 2448 61 
Q 2172 -91 1784 -91 
Q 1150 -91 751 415 
Q 353 922 353 1747 
Q 353 2572 751 3078 
Q 1150 3584 1784 3584 
Q 2172 3584 2448 3432 
Q 2725 3281 2906 2969 
z
M 947 1747 
Q 947 1113 1208 752 
Q 1469 391 1925 391 
Q 2381 391 2643 752 
Q 2906 1113 2906 1747 
Q 2906 2381 2643 2742 
Q 2381 3103 1925 3103 
Q 1469 3103 1208 2742 
Q 947 2381 947 1747 
z
" transform="scale(0.015625)"/>
      <path id="DejaVuSans-69" d="M 603 3500 
L 1178 3500 
L 1178 0 
L 603 0 
L 603 3500 
z
M 603 4863 
L 1178 4863 
L 1178 4134 
L 603 4134 
L 603 4863 
z
" transform="scale(0.015625)"/>
      <path id="DejaVuSans-63" d="M 3122 3366 
L 3122 2828 
Q 2878 2963 2633 3030 
Q 2388 3097 2138 3097 
Q 1578 3097 1268 2742 
Q 959 2388 959 1747 
Q 959 1106 1268 751 
Q 1578 397 2138 397 
Q 2388 397 2633 464 
Q 2878 531 3122 666 
L 3122 134 
Q 2881 22 2623 -34 
Q 2366 -91 2075 -91 
Q 1284 -91 818 406 
Q 353 903 353 1747 
Q 353 2603 823 3093 
Q 1294 3584 2113 3584 
Q 2378 3584 2631 3529 
Q 2884 3475 3122 3366 
z
" transform="scale(0.015625)"/>
      <path id="DejaVuSans-74" d="M 1172 4494 
L 1172 3500 
L 2356 3500 
L 2356 3053 
L 1172 3053 
L 1172 1153 
Q 1172 725 1289 603 
Q 1406 481 1766 481 
L 2356 481 
L 2356 0 
L 1766 0 
Q 1100 0 847 248 
Q 594 497 594 1153 
L 594 3053 
L 172 3053 
L 172 3500 
L 594 3500 
L 594 4494 
L 1172 4494 
z
" transform="scale(0.015625)"/>
      <path id="DejaVuSans-6f" d="M 1959 3097 
Q 1497 3097 1228 2736 
Q 959 2375 959 1747 
Q 959 1119 1226 758 
Q 1494 397 1959 397 
Q 2419 397 2687 759 
Q 2956 1122 2956 1747 
Q 2956 2369 2687 2733 
Q 2419 3097 1959 3097 
z
M 1959 3584 
Q 2709 3584 3137 3096 
Q 3566 2609 3566 1747 
Q 3566 888 3137 398 
Q 2709 -91 1959 -91 
Q 1206 -91 779 398 
Q 353 888 353 1747 
Q 353 2609 779 3096 
Q 1206 3584 1959 3584 
z
" transform="scale(0.015625)"/>
      <path id="DejaVuSans-6e" d="M 3513 2113 
L 3513 0 
L 2938 0 
L 2938 2094 
Q 2938 2591 2744 2837 
Q 2550 3084 2163 3084 
Q 1697 3084 1428 2787 
Q 1159 2491 1159 1978 
L 1159 0 
L 581 0 
L 581 3500 
L 1159 3500 
L 1159 2956 
Q 1366 3272 1645 3428 
Q 1925 3584 2291 3584 
Q 2894 3584 3203 3211 
Q 3513 2838 3513 2113 
z
" transform="scale(0.015625)"/>
      <path id="DejaVuSans-20" transform="scale(0.015625)"/>
      <path id="DejaVuSans-43" d="M 4122 4306 
L 4122 3641 
Q 3803 3938 3442 4084 
Q 3081 4231 2675 4231 
Q 1875 4231 1450 3742 
Q 1025 3253 1025 2328 
Q 1025 1406 1450 917 
Q 1875 428 2675 428 
Q 3081 428 3442 575 
Q 3803 722 4122 1019 
L 4122 359 
Q 3791 134 3420 21 
Q 3050 -91 2638 -91 
Q 1578 -91 968 557 
Q 359 1206 359 2328 
Q 359 3453 968 4101 
Q 1578 4750 2638 4750 
Q 3056 4750 3426 4639 
Q 3797 4528 4122 4306 
z
" transform="scale(0.015625)"/>
      <path id="DejaVuSans-75" d="M 544 1381 
L 544 3500 
L 1119 3500 
L 1119 1403 
Q 1119 906 1312 657 
Q 1506 409 1894 409 
Q 2359 409 2629 706 
Q 2900 1003 2900 1516 
L 2900 3500 
L 3475 3500 
L 3475 0 
L 2900 0 
L 2900 538 
Q 2691 219 2414 64 
Q 2138 -91 1772 -91 
Q 1169 -91 856 284 
Q 544 659 544 1381 
z
M 1991 3584 
L 1991 3584 
z
" transform="scale(0.015625)"/>
      <path id="DejaVuSans-76" d="M 191 3500 
L 800 3500 
L 1894 563 
L 2988 3500 
L 3597 3500 
L 2284 0 
L 1503 0 
L 191 3500 
z
" transform="scale(0.015625)"/>
      <path id="DejaVuSans-73" d="M 2834 3397 
L 2834 2853 
Q 2591 2978 2328 3040 
Q 2066 3103 1784 3103 
Q 1356 3103 1142 2972 
Q 928 2841 928 2578 
Q 928 2378 1081 2264 
Q 1234 2150 1697 2047 
L 1894 2003 
Q 2506 1872 2764 1633 
Q 3022 1394 3022 966 
Q 3022 478 2636 193 
Q 2250 -91 1575 -91 
Q 1294 -91 989 -36 
Q 684 19 347 128 
L 347 722 
Q 666 556 975 473 
Q 1284 391 1588 391 
Q 1994 391 2212 530 
Q 2431 669 2431 922 
Q 2431 1156 2273 1281 
Q 2116 1406 1581 1522 
L 1381 1569 
Q 847 1681 609 1914 
Q 372 2147 372 2553 
Q 372 3047 722 3315 
Q 1072 3584 1716 3584 
Q 2034 3584 2315 3537 
Q 2597 3491 2834 3397 
z
" transform="scale(0.015625)"/>
     </defs>
     <use xlink:href="#DejaVuSans-50"/>
     <use xlink:href="#DejaVuSans-72" x="58.552734"/>
     <use xlink:href="#DejaVuSans-65" x="97.416016"/>
     <use xlink:href="#DejaVuSans-64" x="158.939453"/>
     <use xlink:href="#DejaVuSans-69" x="222.416016"/>
     <use xlink:href="#DejaVuSans-63" x="250.199219"/>
     <use xlink:href="#DejaVuSans-74" x="305.179688"/>
     <use xlink:href="#DejaVuSans-69" x="344.388672"/>
     <use xlink:href="#DejaVuSans-6f" x="372.171875"/>
     <use xlink:href="#DejaVuSans-6e" x="433.353516"/>
     <use xlink:href="#DejaVuSans-20" x="496.732422"/>
     <use xlink:href="#DejaVuSans-43" x="528.519531"/>
     <use xlink:href="#DejaVuSans-75" x="598.34375"/>
     <use xlink:href="#DejaVuSans-72" x="661.722656"/>
     <use xlink:href="#DejaVuSans-76" x="702.835938"/>
     <use xlink:href="#DejaVuSans-65" x="762.015625"/>
     <use xlink:href="#DejaVuSans-73" x="823.539062"/>
    </g>
   </g>
   <g id="legend_1">
    <g id="patch_7">
     <path d="M 79 109.9125 
L 222.94375 109.9125 
Q 224.94375 109.9125 224.94375 107.9125 
L 224.94375 50.2 
Q 224.94375 48.2 222.94375 48.2 
L 79 48.2 
Q 77 48.2 77 50.2 
L 77 107.9125 
Q 77 109.9125 79 109.9125 
z
" style="fill: #e5e5e5; opacity: 0.8; stroke: #cccccc; stroke-width: 0.5; stroke-linejoin: miter"/>
    </g>
    <g id="line2d_40">
     <path d="M 81 56.298437 
L 91 56.298437 
L 101 56.298437 
" style="fill: none; stroke: #e24a33; stroke-width: 1.5; stroke-linecap: square"/>
    </g>
    <g id="text_19">
     <!-- Prediction 1 -->
     <g transform="translate(109 59.798437)scale(0.1 -0.1)">
      <use xlink:href="#DejaVuSans-50"/>
      <use xlink:href="#DejaVuSans-72" x="58.552734"/>
      <use xlink:href="#DejaVuSans-65" x="97.416016"/>
      <use xlink:href="#DejaVuSans-64" x="158.939453"/>
      <use xlink:href="#DejaVuSans-69" x="222.416016"/>
      <use xlink:href="#DejaVuSans-63" x="250.199219"/>
      <use xlink:href="#DejaVuSans-74" x="305.179688"/>
      <use xlink:href="#DejaVuSans-69" x="344.388672"/>
      <use xlink:href="#DejaVuSans-6f" x="372.171875"/>
      <use xlink:href="#DejaVuSans-6e" x="433.353516"/>
      <use xlink:href="#DejaVuSans-20" x="496.732422"/>
      <use xlink:href="#DejaVuSans-31" x="528.519531"/>
     </g>
    </g>
    <g id="line2d_41">
     <path d="M 81 70.976562 
L 91 70.976562 
L 101 70.976562 
" style="fill: none; stroke: #348abd; stroke-width: 1.5; stroke-linecap: square"/>
    </g>
    <g id="text_20">
     <!-- Prediction 2 -->
     <g transform="translate(109 74.476562)scale(0.1 -0.1)">
      <use xlink:href="#DejaVuSans-50"/>
      <use xlink:href="#DejaVuSans-72" x="58.552734"/>
      <use xlink:href="#DejaVuSans-65" x="97.416016"/>
      <use xlink:href="#DejaVuSans-64" x="158.939453"/>
      <use xlink:href="#DejaVuSans-69" x="222.416016"/>
      <use xlink:href="#DejaVuSans-63" x="250.199219"/>
      <use xlink:href="#DejaVuSans-74" x="305.179688"/>
      <use xlink:href="#DejaVuSans-69" x="344.388672"/>
      <use xlink:href="#DejaVuSans-6f" x="372.171875"/>
      <use xlink:href="#DejaVuSans-6e" x="433.353516"/>
      <use xlink:href="#DejaVuSans-20" x="496.732422"/>
      <use xlink:href="#DejaVuSans-32" x="528.519531"/>
     </g>
    </g>
    <g id="line2d_42">
     <path d="M 81 85.654687 
L 91 85.654687 
L 101 85.654687 
" style="fill: none; stroke: #988ed5; stroke-width: 1.5; stroke-linecap: square"/>
    </g>
    <g id="text_21">
     <!-- Prediction 3 -->
     <g transform="translate(109 89.154687)scale(0.1 -0.1)">
      <defs>
       <path id="DejaVuSans-33" d="M 2597 2516 
Q 3050 2419 3304 2112 
Q 3559 1806 3559 1356 
Q 3559 666 3084 287 
Q 2609 -91 1734 -91 
Q 1441 -91 1130 -33 
Q 819 25 488 141 
L 488 750 
Q 750 597 1062 519 
Q 1375 441 1716 441 
Q 2309 441 2620 675 
Q 2931 909 2931 1356 
Q 2931 1769 2642 2001 
Q 2353 2234 1838 2234 
L 1294 2234 
L 1294 2753 
L 1863 2753 
Q 2328 2753 2575 2939 
Q 2822 3125 2822 3475 
Q 2822 3834 2567 4026 
Q 2313 4219 1838 4219 
Q 1578 4219 1281 4162 
Q 984 4106 628 3988 
L 628 4550 
Q 988 4650 1302 4700 
Q 1616 4750 1894 4750 
Q 2613 4750 3031 4423 
Q 3450 4097 3450 3541 
Q 3450 3153 3228 2886 
Q 3006 2619 2597 2516 
z
" transform="scale(0.015625)"/>
      </defs>
      <use xlink:href="#DejaVuSans-50"/>
      <use xlink:href="#DejaVuSans-72" x="58.552734"/>
      <use xlink:href="#DejaVuSans-65" x="97.416016"/>
      <use xlink:href="#DejaVuSans-64" x="158.939453"/>
      <use xlink:href="#DejaVuSans-69" x="222.416016"/>
      <use xlink:href="#DejaVuSans-63" x="250.199219"/>
      <use xlink:href="#DejaVuSans-74" x="305.179688"/>
      <use xlink:href="#DejaVuSans-69" x="344.388672"/>
      <use xlink:href="#DejaVuSans-6f" x="372.171875"/>
      <use xlink:href="#DejaVuSans-6e" x="433.353516"/>
      <use xlink:href="#DejaVuSans-20" x="496.732422"/>
      <use xlink:href="#DejaVuSans-33" x="528.519531"/>
     </g>
    </g>
    <g id="line2d_43">
     <path d="M 81 100.332812 
L 91 100.332812 
L 101 100.332812 
" style="fill: none; stroke: #777777; stroke-width: 1.5; stroke-linecap: square"/>
    </g>
    <g id="text_22">
     <!-- Average of Predictions -->
     <g transform="translate(109 103.832812)scale(0.1 -0.1)">
      <defs>
       <path id="DejaVuSans-41" d="M 2188 4044 
L 1331 1722 
L 3047 1722 
L 2188 4044 
z
M 1831 4666 
L 2547 4666 
L 4325 0 
L 3669 0 
L 3244 1197 
L 1141 1197 
L 716 0 
L 50 0 
L 1831 4666 
z
" transform="scale(0.015625)"/>
       <path id="DejaVuSans-61" d="M 2194 1759 
Q 1497 1759 1228 1600 
Q 959 1441 959 1056 
Q 959 750 1161 570 
Q 1363 391 1709 391 
Q 2188 391 2477 730 
Q 2766 1069 2766 1631 
L 2766 1759 
L 2194 1759 
z
M 3341 1997 
L 3341 0 
L 2766 0 
L 2766 531 
Q 2569 213 2275 61 
Q 1981 -91 1556 -91 
Q 1019 -91 701 211 
Q 384 513 384 1019 
Q 384 1609 779 1909 
Q 1175 2209 1959 2209 
L 2766 2209 
L 2766 2266 
Q 2766 2663 2505 2880 
Q 2244 3097 1772 3097 
Q 1472 3097 1187 3025 
Q 903 2953 641 2809 
L 641 3341 
Q 956 3463 1253 3523 
Q 1550 3584 1831 3584 
Q 2591 3584 2966 3190 
Q 3341 2797 3341 1997 
z
" transform="scale(0.015625)"/>
       <path id="DejaVuSans-67" d="M 2906 1791 
Q 2906 2416 2648 2759 
Q 2391 3103 1925 3103 
Q 1463 3103 1205 2759 
Q 947 2416 947 1791 
Q 947 1169 1205 825 
Q 1463 481 1925 481 
Q 2391 481 2648 825 
Q 2906 1169 2906 1791 
z
M 3481 434 
Q 3481 -459 3084 -895 
Q 2688 -1331 1869 -1331 
Q 1566 -1331 1297 -1286 
Q 1028 -1241 775 -1147 
L 775 -588 
Q 1028 -725 1275 -790 
Q 1522 -856 1778 -856 
Q 2344 -856 2625 -561 
Q 2906 -266 2906 331 
L 2906 616 
Q 2728 306 2450 153 
Q 2172 0 1784 0 
Q 1141 0 747 490 
Q 353 981 353 1791 
Q 353 2603 747 3093 
Q 1141 3584 1784 3584 
Q 2172 3584 2450 3431 
Q 2728 3278 2906 2969 
L 2906 3500 
L 3481 3500 
L 3481 434 
z
" transform="scale(0.015625)"/>
       <path id="DejaVuSans-66" d="M 2375 4863 
L 2375 4384 
L 1825 4384 
Q 1516 4384 1395 4259 
Q 1275 4134 1275 3809 
L 1275 3500 
L 2222 3500 
L 2222 3053 
L 1275 3053 
L 1275 0 
L 697 0 
L 697 3053 
L 147 3053 
L 147 3500 
L 697 3500 
L 697 3744 
Q 697 4328 969 4595 
Q 1241 4863 1831 4863 
L 2375 4863 
z
" transform="scale(0.015625)"/>
      </defs>
      <use xlink:href="#DejaVuSans-41"/>
      <use xlink:href="#DejaVuSans-76" x="62.533203"/>
      <use xlink:href="#DejaVuSans-65" x="121.712891"/>
      <use xlink:href="#DejaVuSans-72" x="183.236328"/>
      <use xlink:href="#DejaVuSans-61" x="224.349609"/>
      <use xlink:href="#DejaVuSans-67" x="285.628906"/>
      <use xlink:href="#DejaVuSans-65" x="349.105469"/>
      <use xlink:href="#DejaVuSans-20" x="410.628906"/>
      <use xlink:href="#DejaVuSans-6f" x="442.416016"/>
      <use xlink:href="#DejaVuSans-66" x="503.597656"/>
      <use xlink:href="#DejaVuSans-20" x="538.802734"/>
      <use xlink:href="#DejaVuSans-50" x="570.589844"/>
      <use xlink:href="#DejaVuSans-72" x="629.142578"/>
      <use xlink:href="#DejaVuSans-65" x="668.005859"/>
      <use xlink:href="#DejaVuSans-64" x="729.529297"/>
      <use xlink:href="#DejaVuSans-69" x="793.005859"/>
      <use xlink:href="#DejaVuSans-63" x="820.789062"/>
      <use xlink:href="#DejaVuSans-74" x="875.769531"/>
      <use xlink:href="#DejaVuSans-69" x="914.978516"/>
      <use xlink:href="#DejaVuSans-6f" x="942.761719"/>
      <use xlink:href="#DejaVuSans-6e" x="1003.943359"/>
      <use xlink:href="#DejaVuSans-73" x="1067.322266"/>
     </g>
    </g>
   </g>
  </g>
 </g>
 <defs>
  <clipPath id="p0cec9c9c6a">
   <rect x="72" y="43.2" width="446.4" height="277.2"/>
  </clipPath>
 </defs>
</svg>
