<?xml version="1.0" encoding="utf-8" standalone="no"?>
<!DOCTYPE svg PUBLIC "-//W3C//DTD SVG 1.1//EN"
  "http://www.w3.org/Graphics/SVG/1.1/DTD/svg11.dtd">
<svg xmlns:xlink="http://www.w3.org/1999/xlink" width="360pt" height="360pt" viewBox="0 0 360 360" xmlns="http://www.w3.org/2000/svg" version="1.1">
 <metadata>
  <rdf:RDF xmlns:dc="http://purl.org/dc/elements/1.1/" xmlns:cc="http://creativecommons.org/ns#" xmlns:rdf="http://www.w3.org/1999/02/22-rdf-syntax-ns#">
   <cc:Work>
    <dc:type rdf:resource="http://purl.org/dc/dcmitype/StillImage"/>
    <dc:date>2022-11-13T19:16:32.648244</dc:date>
    <dc:format>image/svg+xml</dc:format>
    <dc:creator>
     <cc:Agent>
      <dc:title>Matplotlib v3.5.3, https://matplotlib.org/</dc:title>
     </cc:Agent>
    </dc:creator>
   </cc:Work>
  </rdf:RDF>
 </metadata>
 <defs>
  <style type="text/css">*{stroke-linejoin: round; stroke-linecap: butt}</style>
 </defs>
 <g id="figure_1">
  <g id="patch_1">
   <path d="M 0 360 
L 360 360 
L 360 0 
L 0 0 
z
" style="fill: #ffffff"/>
  </g>
  <g id="axes_1">
   <g id="patch_2">
    <path d="M 45 320.4 
L 324 320.4 
L 324 43.2 
L 45 43.2 
z
" style="fill: #ffffff"/>
   </g>
   <g id="matplotlib.axis_1">
    <g id="xtick_1">
     <g id="line2d_1">
      <defs>
       <path id="m314c6dc937" d="M 0 0 
L 0 3.5 
" style="stroke: #000000; stroke-width: 0.8"/>
      </defs>
      <g>
       <use xlink:href="#m314c6dc937" x="83.045455" y="320.4" style="stroke: #000000; stroke-width: 0.8"/>
      </g>
     </g>
     <g id="text_1">
      <!-- −2 -->
      <g transform="translate(75.674361 334.998438)scale(0.1 -0.1)">
       <defs>
        <path id="DejaVuSans-2212" d="M 678 2272 
L 4684 2272 
L 4684 1741 
L 678 1741 
L 678 2272 
z
" transform="scale(0.015625)"/>
        <path id="DejaVuSans-32" d="M 1228 531 
L 3431 531 
L 3431 0 
L 469 0 
L 469 531 
Q 828 903 1448 1529 
Q 2069 2156 2228 2338 
Q 2531 2678 2651 2914 
Q 2772 3150 2772 3378 
Q 2772 3750 2511 3984 
Q 2250 4219 1831 4219 
Q 1534 4219 1204 4116 
Q 875 4013 500 3803 
L 500 4441 
Q 881 4594 1212 4672 
Q 1544 4750 1819 4750 
Q 2544 4750 2975 4387 
Q 3406 4025 3406 3419 
Q 3406 3131 3298 2873 
Q 3191 2616 2906 2266 
Q 2828 2175 2409 1742 
Q 1991 1309 1228 531 
z
" transform="scale(0.015625)"/>
       </defs>
       <use xlink:href="#DejaVuSans-2212"/>
       <use xlink:href="#DejaVuSans-32" x="83.789062"/>
      </g>
     </g>
    </g>
    <g id="xtick_2">
     <g id="line2d_2">
      <g>
       <use xlink:href="#m314c6dc937" x="133.772727" y="320.4" style="stroke: #000000; stroke-width: 0.8"/>
      </g>
     </g>
     <g id="text_2">
      <!-- −1 -->
      <g transform="translate(126.401634 334.998438)scale(0.1 -0.1)">
       <defs>
        <path id="DejaVuSans-31" d="M 794 531 
L 1825 531 
L 1825 4091 
L 703 3866 
L 703 4441 
L 1819 4666 
L 2450 4666 
L 2450 531 
L 3481 531 
L 3481 0 
L 794 0 
L 794 531 
z
" transform="scale(0.015625)"/>
       </defs>
       <use xlink:href="#DejaVuSans-2212"/>
       <use xlink:href="#DejaVuSans-31" x="83.789062"/>
      </g>
     </g>
    </g>
    <g id="xtick_3">
     <g id="line2d_3">
      <g>
       <use xlink:href="#m314c6dc937" x="184.5" y="320.4" style="stroke: #000000; stroke-width: 0.8"/>
      </g>
     </g>
     <g id="text_3">
      <!-- 0 -->
      <g transform="translate(181.31875 334.998438)scale(0.1 -0.1)">
       <defs>
        <path id="DejaVuSans-30" d="M 2034 4250 
Q 1547 4250 1301 3770 
Q 1056 3291 1056 2328 
Q 1056 1369 1301 889 
Q 1547 409 2034 409 
Q 2525 409 2770 889 
Q 3016 1369 3016 2328 
Q 3016 3291 2770 3770 
Q 2525 4250 2034 4250 
z
M 2034 4750 
Q 2819 4750 3233 4129 
Q 3647 3509 3647 2328 
Q 3647 1150 3233 529 
Q 2819 -91 2034 -91 
Q 1250 -91 836 529 
Q 422 1150 422 2328 
Q 422 3509 836 4129 
Q 1250 4750 2034 4750 
z
" transform="scale(0.015625)"/>
       </defs>
       <use xlink:href="#DejaVuSans-30"/>
      </g>
     </g>
    </g>
    <g id="xtick_4">
     <g id="line2d_4">
      <g>
       <use xlink:href="#m314c6dc937" x="235.227273" y="320.4" style="stroke: #000000; stroke-width: 0.8"/>
      </g>
     </g>
     <g id="text_4">
      <!-- 1 -->
      <g transform="translate(232.046023 334.998438)scale(0.1 -0.1)">
       <use xlink:href="#DejaVuSans-31"/>
      </g>
     </g>
    </g>
    <g id="xtick_5">
     <g id="line2d_5">
      <g>
       <use xlink:href="#m314c6dc937" x="285.954545" y="320.4" style="stroke: #000000; stroke-width: 0.8"/>
      </g>
     </g>
     <g id="text_5">
      <!-- 2 -->
      <g transform="translate(282.773295 334.998438)scale(0.1 -0.1)">
       <use xlink:href="#DejaVuSans-32"/>
      </g>
     </g>
    </g>
   </g>
   <g id="matplotlib.axis_2">
    <g id="ytick_1">
     <g id="line2d_6">
      <defs>
       <path id="m798fc50cde" d="M 0 0 
L -3.5 0 
" style="stroke: #000000; stroke-width: 0.8"/>
      </defs>
      <g>
       <use xlink:href="#m798fc50cde" x="45" y="297.936495" style="stroke: #000000; stroke-width: 0.8"/>
      </g>
     </g>
     <g id="text_6">
      <!-- −0.15 -->
      <g transform="translate(7.354687 301.735714)scale(0.1 -0.1)">
       <defs>
        <path id="DejaVuSans-2e" d="M 684 794 
L 1344 794 
L 1344 0 
L 684 0 
L 684 794 
z
" transform="scale(0.015625)"/>
        <path id="DejaVuSans-35" d="M 691 4666 
L 3169 4666 
L 3169 4134 
L 1269 4134 
L 1269 2991 
Q 1406 3038 1543 3061 
Q 1681 3084 1819 3084 
Q 2600 3084 3056 2656 
Q 3513 2228 3513 1497 
Q 3513 744 3044 326 
Q 2575 -91 1722 -91 
Q 1428 -91 1123 -41 
Q 819 9 494 109 
L 494 744 
Q 775 591 1075 516 
Q 1375 441 1709 441 
Q 2250 441 2565 725 
Q 2881 1009 2881 1497 
Q 2881 1984 2565 2268 
Q 2250 2553 1709 2553 
Q 1456 2553 1204 2497 
Q 953 2441 691 2322 
L 691 4666 
z
" transform="scale(0.015625)"/>
       </defs>
       <use xlink:href="#DejaVuSans-2212"/>
       <use xlink:href="#DejaVuSans-30" x="83.789062"/>
       <use xlink:href="#DejaVuSans-2e" x="147.412109"/>
       <use xlink:href="#DejaVuSans-31" x="179.199219"/>
       <use xlink:href="#DejaVuSans-35" x="242.822266"/>
      </g>
     </g>
    </g>
    <g id="ytick_2">
     <g id="line2d_7">
      <g>
       <use xlink:href="#m798fc50cde" x="45" y="265.453042" style="stroke: #000000; stroke-width: 0.8"/>
      </g>
     </g>
     <g id="text_7">
      <!-- −0.10 -->
      <g transform="translate(7.354687 269.252261)scale(0.1 -0.1)">
       <use xlink:href="#DejaVuSans-2212"/>
       <use xlink:href="#DejaVuSans-30" x="83.789062"/>
       <use xlink:href="#DejaVuSans-2e" x="147.412109"/>
       <use xlink:href="#DejaVuSans-31" x="179.199219"/>
       <use xlink:href="#DejaVuSans-30" x="242.822266"/>
      </g>
     </g>
    </g>
    <g id="ytick_3">
     <g id="line2d_8">
      <g>
       <use xlink:href="#m798fc50cde" x="45" y="232.969588" style="stroke: #000000; stroke-width: 0.8"/>
      </g>
     </g>
     <g id="text_8">
      <!-- −0.05 -->
      <g transform="translate(7.354687 236.768807)scale(0.1 -0.1)">
       <use xlink:href="#DejaVuSans-2212"/>
       <use xlink:href="#DejaVuSans-30" x="83.789062"/>
       <use xlink:href="#DejaVuSans-2e" x="147.412109"/>
       <use xlink:href="#DejaVuSans-30" x="179.199219"/>
       <use xlink:href="#DejaVuSans-35" x="242.822266"/>
      </g>
     </g>
    </g>
    <g id="ytick_4">
     <g id="line2d_9">
      <g>
       <use xlink:href="#m798fc50cde" x="45" y="200.486135" style="stroke: #000000; stroke-width: 0.8"/>
      </g>
     </g>
     <g id="text_9">
      <!-- 0.00 -->
      <g transform="translate(15.734375 204.285353)scale(0.1 -0.1)">
       <use xlink:href="#DejaVuSans-30"/>
       <use xlink:href="#DejaVuSans-2e" x="63.623047"/>
       <use xlink:href="#DejaVuSans-30" x="95.410156"/>
       <use xlink:href="#DejaVuSans-30" x="159.033203"/>
      </g>
     </g>
    </g>
    <g id="ytick_5">
     <g id="line2d_10">
      <g>
       <use xlink:href="#m798fc50cde" x="45" y="168.002681" style="stroke: #000000; stroke-width: 0.8"/>
      </g>
     </g>
     <g id="text_10">
      <!-- 0.05 -->
      <g transform="translate(15.734375 171.8019)scale(0.1 -0.1)">
       <use xlink:href="#DejaVuSans-30"/>
       <use xlink:href="#DejaVuSans-2e" x="63.623047"/>
       <use xlink:href="#DejaVuSans-30" x="95.410156"/>
       <use xlink:href="#DejaVuSans-35" x="159.033203"/>
      </g>
     </g>
    </g>
    <g id="ytick_6">
     <g id="line2d_11">
      <g>
       <use xlink:href="#m798fc50cde" x="45" y="135.519228" style="stroke: #000000; stroke-width: 0.8"/>
      </g>
     </g>
     <g id="text_11">
      <!-- 0.10 -->
      <g transform="translate(15.734375 139.318446)scale(0.1 -0.1)">
       <use xlink:href="#DejaVuSans-30"/>
       <use xlink:href="#DejaVuSans-2e" x="63.623047"/>
       <use xlink:href="#DejaVuSans-31" x="95.410156"/>
       <use xlink:href="#DejaVuSans-30" x="159.033203"/>
      </g>
     </g>
    </g>
    <g id="ytick_7">
     <g id="line2d_12">
      <g>
       <use xlink:href="#m798fc50cde" x="45" y="103.035774" style="stroke: #000000; stroke-width: 0.8"/>
      </g>
     </g>
     <g id="text_12">
      <!-- 0.15 -->
      <g transform="translate(15.734375 106.834993)scale(0.1 -0.1)">
       <use xlink:href="#DejaVuSans-30"/>
       <use xlink:href="#DejaVuSans-2e" x="63.623047"/>
       <use xlink:href="#DejaVuSans-31" x="95.410156"/>
       <use xlink:href="#DejaVuSans-35" x="159.033203"/>
      </g>
     </g>
    </g>
    <g id="ytick_8">
     <g id="line2d_13">
      <g>
       <use xlink:href="#m798fc50cde" x="45" y="70.55232" style="stroke: #000000; stroke-width: 0.8"/>
      </g>
     </g>
     <g id="text_13">
      <!-- 0.20 -->
      <g transform="translate(15.734375 74.351539)scale(0.1 -0.1)">
       <use xlink:href="#DejaVuSans-30"/>
       <use xlink:href="#DejaVuSans-2e" x="63.623047"/>
       <use xlink:href="#DejaVuSans-32" x="95.410156"/>
       <use xlink:href="#DejaVuSans-30" x="159.033203"/>
      </g>
     </g>
    </g>
   </g>
   <g id="line2d_14">
    <path d="M 57.681818 270.552303 
L 61.495896 270.713826 
L 64.674309 270.659977 
L 67.852697 270.393577 
L 71.031098 269.872531 
L 73.573821 269.243774 
L 76.116544 268.40251 
L 78.659254 267.328055 
L 81.201977 266.002827 
L 83.7447 264.41147 
L 86.287423 262.544435 
L 88.83014 260.397894 
L 91.372862 257.975372 
L 93.915579 255.287953 
L 97.09398 251.588321 
L 100.272386 247.56408 
L 104.722142 241.528234 
L 118.707106 222.124022 
L 121.885506 218.18086 
L 124.428223 215.2974 
L 126.970946 212.734166 
L 128.877991 211.077211 
L 130.78503 209.697671 
L 132.692069 208.637086 
L 134.599111 207.917778 
L 136.50615 207.52026 
L 139.04887 207.332305 
L 141.59159 207.155525 
L 142.862951 206.905024 
L 144.13431 206.459156 
L 145.405671 205.765134 
L 146.67703 204.786566 
L 147.948391 203.504848 
L 149.219749 201.921011 
L 151.126789 199.034189 
L 153.669511 194.562489 
L 155.576557 191.264949 
L 156.847915 189.436838 
L 157.483596 188.719357 
L 158.119276 188.17181 
L 158.754957 187.821445 
L 159.390635 187.692861 
L 160.026315 187.804941 
L 160.661995 188.169937 
L 161.297675 188.792902 
L 161.933355 189.668492 
L 163.204716 192.107521 
L 164.476068 195.252031 
L 167.654469 203.63234 
L 168.925829 206.069259 
L 169.561514 206.918755 
L 170.197195 207.489521 
L 170.832874 207.771489 
L 171.468555 207.762753 
L 172.104235 207.473583 
L 172.739914 206.919933 
L 173.375594 206.126415 
L 174.64696 203.93892 
L 175.91832 201.167045 
L 178.46104 194.841456 
L 181.639433 187.109405 
L 184.182154 181.550878 
L 187.360559 174.732542 
L 189.2676 170.039279 
L 190.538964 166.356662 
L 191.810325 162.052832 
L 193.081685 156.999132 
L 194.353045 151.128061 
L 196.26009 140.924194 
L 200.074164 119.497805 
L 201.345524 113.98494 
L 201.981204 111.819844 
L 202.616884 110.093094 
L 203.252564 108.818672 
L 203.888245 107.987298 
L 204.523924 107.576924 
L 205.159609 107.547181 
L 205.79529 107.850094 
L 206.430969 108.430665 
L 207.702329 110.198027 
L 209.60937 113.582102 
L 211.51641 116.941766 
L 212.787769 118.897292 
L 214.05913 120.568218 
L 215.330489 121.974493 
L 217.237528 123.697339 
L 219.780251 125.61504 
L 222.958648 128.028462 
L 224.86569 129.703879 
L 226.772729 131.619103 
L 229.315449 134.535524 
L 232.493847 138.635856 
L 241.39337 150.538932 
L 243.936093 153.541413 
L 246.47881 156.244082 
L 249.021533 158.628352 
L 251.56425 160.699274 
L 254.106973 162.472832 
L 256.649689 163.975234 
L 259.192412 165.23718 
L 261.735129 166.287882 
L 264.913529 167.351224 
L 268.091936 168.183465 
L 271.906014 168.940645 
L 276.355776 169.572237 
L 281.441222 170.054512 
L 287.798011 170.419503 
L 296.061857 170.65683 
L 307.504104 170.763365 
L 311.318182 170.768725 
L 311.318182 170.768725 
" clip-path="url(#pd3ec7063e6)" style="fill: none; stroke: #1f77b4; stroke-width: 1.5; stroke-linecap: square"/>
   </g>
   <g id="line2d_15">
    <path d="M 57.681818 124.935911 
L 60.860219 130.201706 
L 64.038619 135.928347 
L 67.21702 142.116569 
L 70.39542 148.754369 
L 74.209498 157.270729 
L 78.659254 167.844814 
L 85.016061 183.661615 
L 90.737185 197.778865 
L 93.915579 205.154607 
L 96.458302 210.626271 
L 99.001025 215.585873 
L 100.90807 218.898201 
L 102.815109 221.807095 
L 104.722142 224.268023 
L 105.993504 225.639431 
L 107.264859 226.782218 
L 108.536226 227.686345 
L 109.807588 228.3432 
L 111.078949 228.74552 
L 112.350305 228.885311 
L 113.621666 228.757199 
L 114.893027 228.354817 
L 116.164389 227.672497 
L 117.435744 226.703857 
L 118.707106 225.441989 
L 119.978467 223.878528 
L 121.249829 222.00319 
L 122.521184 219.805814 
L 123.792545 217.273852 
L 125.699584 212.823415 
L 127.606623 207.569578 
L 129.513669 201.532818 
L 132.056391 192.486529 
L 135.87047 178.514654 
L 137.141831 174.48819 
L 138.413193 171.170301 
L 139.04887 169.848388 
L 139.684551 168.784543 
L 140.320232 167.997415 
L 140.955909 167.501199 
L 141.59159 167.302285 
L 142.227271 167.40216 
L 142.862951 167.794962 
L 143.498632 168.467841 
L 144.13431 169.402706 
L 145.405671 171.962332 
L 146.67703 175.250296 
L 148.584072 181.013344 
L 153.033831 194.907216 
L 154.940876 200.07834 
L 156.212234 203.080239 
L 157.483596 205.63253 
L 158.754957 207.633057 
L 159.390635 208.390539 
L 160.026315 208.966641 
L 160.661995 209.349333 
L 161.297675 209.528607 
L 161.933355 209.497994 
L 162.569035 209.256938 
L 163.204716 208.810427 
L 163.840395 208.170083 
L 165.111749 206.387603 
L 167.018788 202.932518 
L 168.925829 199.516968 
L 170.197195 197.817062 
L 170.832874 197.238753 
L 171.468555 196.868961 
L 172.104235 196.717801 
L 172.739914 196.787441 
L 173.375594 197.07167 
L 174.011274 197.557291 
L 175.28264 199.055789 
L 176.554 201.095423 
L 178.46104 204.715896 
L 181.639433 210.82479 
L 183.546474 213.972931 
L 185.453519 216.601964 
L 187.360559 218.781993 
L 192.446005 224.120572 
L 193.717365 225.909217 
L 194.98873 228.119108 
L 196.26009 230.839373 
L 197.53145 234.093989 
L 199.438491 239.78684 
L 202.616884 249.52344 
L 203.888245 252.68711 
L 205.159609 255.144463 
L 206.430969 256.861234 
L 207.702329 257.910201 
L 208.973691 258.428102 
L 210.245049 258.573763 
L 212.152088 258.40716 
L 215.966169 257.873182 
L 217.873208 257.829254 
L 219.780251 257.999296 
L 221.68729 258.371039 
L 224.230009 259.132339 
L 227.408407 260.388926 
L 232.493847 262.717837 
L 237.579292 264.985628 
L 241.39337 266.455255 
L 245.207455 267.669091 
L 249.021533 268.624038 
L 252.835611 269.348226 
L 257.285373 269.949552 
L 262.370813 270.391029 
L 268.091936 270.665282 
L 275.720098 270.796136 
L 286.526655 270.732196 
L 304.961381 270.345645 
L 311.318182 270.179321 
L 311.318182 270.179321 
" clip-path="url(#pd3ec7063e6)" style="fill: none; stroke: #ff7f0e; stroke-width: 1.5; stroke-linecap: square"/>
   </g>
   <g id="line2d_16">
    <path d="M 57.681818 217.040777 
L 62.767264 219.796868 
L 69.124053 223.496476 
L 79.930622 229.832103 
L 83.7447 231.824773 
L 86.923101 233.281683 
L 90.101501 234.49864 
L 92.644224 235.270434 
L 95.186941 235.843422 
L 97.729663 236.207227 
L 100.272386 236.359689 
L 102.815109 236.305678 
L 105.35782 236.058793 
L 108.536226 235.505933 
L 111.714627 234.723149 
L 115.528705 233.535568 
L 119.342783 232.117165 
L 123.156868 230.465291 
L 126.970946 228.555226 
L 135.234792 224.152635 
L 137.141831 223.463283 
L 139.04887 223.06647 
L 140.320232 222.988791 
L 141.59159 223.064874 
L 143.498632 223.460146 
L 145.405671 224.175118 
L 147.31271 225.196158 
L 149.219749 226.496672 
L 153.033831 229.31627 
L 154.305195 229.860232 
L 154.940876 229.93218 
L 155.576557 229.818209 
L 156.212234 229.475934 
L 156.847915 228.860365 
L 157.483596 227.927273 
L 158.119276 226.634845 
L 158.754957 224.946048 
L 159.390635 222.832353 
L 160.661995 217.270028 
L 161.933355 209.976459 
L 163.204716 201.241417 
L 167.654469 168.712138 
L 168.925829 162.015936 
L 169.561514 159.473426 
L 170.197195 157.509056 
L 170.832874 156.130104 
L 171.468555 155.324133 
L 172.104235 155.063308 
L 172.739914 155.30457 
L 173.375594 155.995238 
L 174.011274 157.075649 
L 175.28264 160.146004 
L 176.554 164.005012 
L 180.368073 176.254615 
L 181.639433 179.699316 
L 182.910794 182.610533 
L 184.182154 184.946136 
L 185.453519 186.689923 
L 186.724879 187.835761 
L 187.360559 188.181916 
L 187.996239 188.373767 
L 188.631919 188.409114 
L 189.2676 188.283526 
L 189.903285 187.992172 
L 190.538964 187.53056 
L 191.174644 186.893484 
L 191.810325 186.075214 
L 193.081685 183.881462 
L 194.353045 180.942519 
L 195.62441 177.311854 
L 197.53145 170.91585 
L 200.074164 162.21564 
L 201.345524 158.657062 
L 202.616884 156.058574 
L 203.252564 155.169216 
L 203.888245 154.55841 
L 204.523924 154.210923 
L 205.159609 154.10745 
L 205.79529 154.218257 
L 206.430969 154.510417 
L 207.702329 155.497117 
L 209.60937 157.484985 
L 211.51641 159.477562 
L 212.787769 160.613084 
L 214.05913 161.538973 
L 215.330489 162.249159 
L 216.60185 162.760523 
L 218.508889 163.214484 
L 220.415928 163.382419 
L 222.958648 163.309371 
L 226.137049 162.946767 
L 231.222488 162.090858 
L 242.664732 159.832205 
L 250.928572 158.322555 
L 257.285373 157.385079 
L 264.277852 156.60228 
L 271.270337 156.042062 
L 279.534177 155.588442 
L 290.976411 155.196408 
L 307.504104 154.868499 
L 311.318182 154.81283 
L 311.318182 154.81283 
" clip-path="url(#pd3ec7063e6)" style="fill: none; stroke: #2ca02c; stroke-width: 1.5; stroke-linecap: square"/>
   </g>
   <g id="line2d_17">
    <path d="M 57.681818 148.149093 
L 62.767264 151.787147 
L 67.852697 155.67423 
L 72.938143 159.832283 
L 77.387899 163.730534 
L 81.837655 167.920317 
L 85.651745 171.787426 
L 89.465823 175.943357 
L 93.279902 180.406387 
L 97.729663 185.995119 
L 102.815109 192.803387 
L 127.606623 227.013977 
L 130.78503 232.024631 
L 137.141831 242.450786 
L 138.413193 244.154533 
L 139.684551 245.562109 
L 140.955909 246.625474 
L 142.227271 247.334358 
L 143.498632 247.726873 
L 144.769991 247.887044 
L 147.948391 248.139098 
L 149.219749 248.580025 
L 150.491111 249.42712 
L 151.762469 250.786641 
L 153.033831 252.7197 
L 154.305195 255.233748 
L 155.576557 258.271776 
L 157.483596 263.519634 
L 160.026315 270.678251 
L 161.297675 273.749215 
L 162.569035 276.156308 
L 163.204716 277.05094 
L 163.840395 277.715571 
L 164.476068 278.138003 
L 165.111749 278.311476 
L 165.747428 278.233007 
L 166.383109 277.905648 
L 167.018788 277.337159 
L 167.654469 276.540714 
L 168.925829 274.339666 
L 170.197195 271.500521 
L 172.739914 264.925259 
L 174.64696 260.197981 
L 175.91832 257.494259 
L 177.18968 255.2585 
L 178.46104 253.512823 
L 179.732393 252.235171 
L 181.003753 251.380625 
L 182.275114 250.894694 
L 183.546474 250.731561 
L 184.817839 250.859471 
L 186.089199 251.266686 
L 187.360559 251.966307 
L 188.631919 252.99771 
L 189.903285 254.425236 
L 191.174644 256.337052 
L 192.446005 258.833372 
L 193.717365 262.010479 
L 194.98873 265.927604 
L 196.26009 270.571952 
L 198.167131 278.583305 
L 200.709844 289.528754 
L 201.981204 294.184255 
L 203.252564 297.837836 
L 203.888245 299.240332 
L 204.523924 300.357824 
L 205.159609 301.204467 
L 205.79529 301.802567 
L 206.430969 302.183945 
L 207.06665 302.381403 
L 207.702329 302.432115 
L 208.973691 302.232241 
L 212.787769 301.150684 
L 214.05913 301.039408 
L 215.330489 301.118869 
L 216.60185 301.375589 
L 218.508889 302.025954 
L 221.051609 303.192362 
L 226.137049 305.598348 
L 228.679768 306.523185 
L 231.222488 307.183556 
L 233.765208 307.588757 
L 236.307931 307.773482 
L 239.486331 307.770911 
L 243.300416 307.54232 
L 249.657211 306.914259 
L 266.184897 305.215112 
L 285.890984 303.494094 
L 311.318182 301.311649 
L 311.318182 301.311649 
" clip-path="url(#pd3ec7063e6)" style="fill: none; stroke: #d62728; stroke-width: 1.5; stroke-linecap: square"/>
   </g>
   <g id="line2d_18">
    <path d="M 57.681818 302.612868 
L 60.224541 301.078333 
L 62.767264 299.279102 
L 65.309987 297.195703 
L 67.852697 294.812641 
L 70.39542 292.11846 
L 72.938143 289.106012 
L 75.480866 285.774686 
L 78.023577 282.132497 
L 81.201977 277.166676 
L 84.380384 271.789722 
L 88.194462 264.898826 
L 93.915579 254.014808 
L 101.543748 239.5044 
L 105.993504 231.562779 
L 109.807588 225.23612 
L 113.621666 219.359133 
L 119.342783 211.065284 
L 123.156868 205.370234 
L 125.699584 201.157093 
L 127.606623 197.618853 
L 129.513669 193.657816 
L 131.420714 189.220328 
L 133.963431 182.61504 
L 139.04887 168.94722 
L 140.320232 166.057765 
L 141.59159 163.585546 
L 142.862951 161.574374 
L 144.13431 160.012075 
L 145.405671 158.828784 
L 147.31271 157.504742 
L 149.85543 155.809529 
L 151.126789 154.67774 
L 152.39815 153.218809 
L 153.669511 151.380246 
L 154.940876 149.159996 
L 156.847915 145.24078 
L 160.661995 137.045741 
L 161.933355 134.982023 
L 162.569035 134.219248 
L 163.204716 133.68135 
L 163.840395 133.402759 
L 164.476068 133.416506 
L 165.111749 133.752926 
L 165.747428 134.440017 
L 166.383109 135.49872 
L 167.018788 136.944152 
L 167.654469 138.78213 
L 168.925829 143.609515 
L 170.197195 149.821862 
L 172.104235 161.0047 
L 175.91832 184.662248 
L 177.82536 194.730645 
L 179.09672 200.413118 
L 180.368073 205.286553 
L 181.639433 209.445931 
L 182.910794 213.034341 
L 184.817839 217.720386 
L 187.996239 225.279855 
L 189.2676 228.816902 
L 190.538964 232.964756 
L 191.810325 237.920129 
L 193.081685 243.832866 
L 194.353045 250.75907 
L 196.26009 262.782064 
L 199.438491 283.499398 
L 200.709844 290.010937 
L 201.345524 292.538979 
L 201.981204 294.506432 
L 202.616884 295.885911 
L 203.252564 296.672497 
L 203.888245 296.886653 
L 204.523924 296.571073 
L 205.159609 295.784483 
L 205.79529 294.596356 
L 207.06665 291.324237 
L 208.973691 285.288515 
L 210.88073 279.276243 
L 212.152088 275.740094 
L 213.42345 272.713698 
L 214.694811 270.209571 
L 215.966169 268.192243 
L 217.237528 266.598918 
L 218.508889 265.3603 
L 219.780251 264.409782 
L 221.051609 263.686896 
L 222.958648 262.923923 
L 224.86569 262.436412 
L 227.408407 262.071143 
L 229.95113 261.922074 
L 233.129527 261.946175 
L 236.943615 262.20051 
L 241.39337 262.722407 
L 248.385855 263.805637 
L 261.099451 265.788889 
L 269.998975 266.890613 
L 279.534177 267.823999 
L 291.612101 268.77684 
L 311.318182 270.092038 
L 311.318182 270.092038 
" clip-path="url(#pd3ec7063e6)" style="fill: none; stroke: #9467bd; stroke-width: 1.5; stroke-linecap: square"/>
   </g>
   <g id="line2d_19">
    <path d="M 57.681818 241.745619 
L 67.21702 246.561 
L 73.573821 249.680262 
L 77.387899 251.346014 
L 80.566299 252.520949 
L 83.109022 253.267216 
L 85.651745 253.797245 
L 88.194462 254.067108 
L 90.101501 254.075046 
L 92.00854 253.897732 
L 93.915579 253.521977 
L 95.822624 252.93648 
L 97.729663 252.134583 
L 99.636709 251.114209 
L 101.543748 249.879029 
L 104.086458 247.915928 
L 106.629181 245.632369 
L 109.807588 242.433329 
L 118.071428 233.853362 
L 119.978467 232.238539 
L 121.885506 230.94278 
L 123.156868 230.306216 
L 124.428223 229.88551 
L 125.699584 229.708281 
L 126.970946 229.799173 
L 128.242307 230.172264 
L 129.513669 230.830514 
L 130.78503 231.757208 
L 132.692069 233.554403 
L 136.50615 237.443337 
L 137.777512 238.318406 
L 138.413193 238.588602 
L 139.04887 238.723924 
L 139.684551 238.710952 
L 140.320232 238.538362 
L 140.955909 238.199982 
L 141.59159 237.692676 
L 142.862951 236.187153 
L 144.13431 234.092564 
L 145.405671 231.539514 
L 147.948391 225.736356 
L 150.491111 220.124971 
L 151.762469 217.726009 
L 153.033831 215.718973 
L 154.305195 214.16692 
L 155.576557 213.117007 
L 156.212234 212.791848 
L 156.847915 212.60332 
L 157.483596 212.553274 
L 158.119276 212.641563 
L 158.754957 212.865465 
L 160.026315 213.694097 
L 161.297675 214.952966 
L 163.204716 217.315844 
L 165.111749 219.635462 
L 166.383109 220.814811 
L 167.654469 221.53257 
L 168.29015 221.700258 
L 168.925829 221.743055 
L 170.197195 221.49171 
L 171.468555 220.89599 
L 176.554 217.905669 
L 177.82536 217.476088 
L 179.09672 217.226772 
L 181.003753 217.141798 
L 182.910794 217.305985 
L 189.903285 218.193244 
L 191.174644 218.092687 
L 192.446005 217.803409 
L 193.717365 217.27671 
L 194.98873 216.481365 
L 196.26009 215.417279 
L 198.167131 213.441276 
L 200.074164 211.403827 
L 201.345524 210.309909 
L 202.616884 209.621564 
L 203.252564 209.460824 
L 203.888245 209.427769 
L 204.523924 209.51832 
L 205.79529 210.032465 
L 207.06665 210.884532 
L 212.152088 214.919778 
L 213.42345 215.613297 
L 214.694811 216.103565 
L 215.966169 216.392595 
L 217.237528 216.496281 
L 218.508889 216.432372 
L 220.415928 216.073051 
L 222.322967 215.460758 
L 224.86569 214.364424 
L 228.044088 212.723517 
L 237.579292 207.625084 
L 241.39337 205.949449 
L 244.571771 204.792893 
L 247.750171 203.858732 
L 250.928572 203.131912 
L 254.74265 202.502426 
L 258.556734 202.096451 
L 263.00649 201.846577 
L 268.091936 201.783164 
L 274.448737 201.934773 
L 283.348261 202.410543 
L 296.061857 203.351333 
L 311.318182 204.633601 
L 311.318182 204.633601 
" clip-path="url(#pd3ec7063e6)" style="fill: none; stroke: #8c564b; stroke-width: 1.5; stroke-linecap: square"/>
   </g>
   <g id="line2d_20">
    <path d="M 57.681818 194.681366 
L 61.495896 190.183082 
L 65.945664 184.596867 
L 78.659254 168.361228 
L 81.837655 164.794534 
L 84.380384 162.257786 
L 86.923101 160.076263 
L 88.83014 158.712072 
L 90.737185 157.608869 
L 92.644224 156.789507 
L 94.551263 156.272458 
L 96.458302 156.073823 
L 97.729663 156.123621 
L 99.001025 156.321575 
L 100.90807 156.89818 
L 102.815109 157.809417 
L 104.722142 159.048702 
L 106.629181 160.603953 
L 108.536226 162.457265 
L 110.443266 164.586737 
L 112.985988 167.807647 
L 115.528705 171.395562 
L 118.707106 176.266658 
L 124.428223 185.576187 
L 129.513669 193.744944 
L 132.692069 198.497314 
L 135.234792 201.956017 
L 137.141831 204.251069 
L 139.04887 206.181448 
L 140.320232 207.205292 
L 141.59159 207.971812 
L 142.862951 208.441642 
L 144.13431 208.579799 
L 145.405671 208.354793 
L 146.67703 207.741927 
L 147.948391 206.723063 
L 149.219749 205.288234 
L 150.491111 203.442976 
L 151.762469 201.220437 
L 153.669511 197.371167 
L 155.576557 193.435544 
L 156.847915 191.239484 
L 157.483596 190.409629 
L 158.119276 189.826998 
L 158.754957 189.541766 
L 159.390635 189.599828 
L 160.026315 190.040669 
L 160.661995 190.89323 
L 161.297675 192.173601 
L 161.933355 193.884452 
L 163.204716 198.522112 
L 164.476068 204.506279 
L 168.925829 227.880542 
L 170.197195 232.845225 
L 170.832874 234.793688 
L 171.468555 236.364862 
L 172.104235 237.559414 
L 172.739914 238.38896 
L 173.375594 238.875169 
L 174.011274 239.046357 
L 174.64696 238.937034 
L 175.28264 238.584218 
L 175.91832 238.026355 
L 177.18968 236.447033 
L 179.09672 233.414349 
L 182.275114 228.143055 
L 184.182154 225.38069 
L 186.089199 223.050105 
L 187.996239 221.169609 
L 189.2676 220.182847 
L 190.538964 219.439483 
L 191.810325 218.987226 
L 193.081685 218.891657 
L 193.717365 219.000361 
L 194.353045 219.226536 
L 194.98873 219.57582 
L 196.26009 220.659794 
L 197.53145 222.237846 
L 199.438491 225.271955 
L 201.345524 228.403446 
L 202.616884 230.066069 
L 203.252564 230.678865 
L 203.888245 231.117926 
L 204.523924 231.37669 
L 205.159609 231.454481 
L 205.79529 231.358351 
L 206.430969 231.104047 
L 207.702329 230.194545 
L 208.973691 228.904533 
L 214.694811 222.388704 
L 216.60185 220.758298 
L 218.508889 219.487369 
L 220.415928 218.52954 
L 222.322967 217.831437 
L 224.230009 217.337823 
L 226.772729 216.922338 
L 229.95113 216.682966 
L 233.765208 216.661467 
L 238.850654 216.86512 
L 251.56425 217.442996 
L 258.556734 217.489928 
L 265.549213 217.328963 
L 274.448737 216.899197 
L 286.526655 216.067916 
L 303.054336 214.700891 
L 311.318182 213.965179 
L 311.318182 213.965179 
" clip-path="url(#pd3ec7063e6)" style="fill: none; stroke: #e377c2; stroke-width: 1.5; stroke-linecap: square"/>
   </g>
   <g id="line2d_21">
    <path d="M 57.681818 146.492588 
L 62.131574 137.898356 
L 65.945664 130.990933 
L 69.124053 125.670748 
L 72.302453 120.835625 
L 74.845188 117.369844 
L 77.387899 114.301798 
L 79.294932 112.281735 
L 81.201977 110.516371 
L 83.109022 109.016207 
L 85.016061 107.789477 
L 86.923101 106.84277 
L 88.83014 106.181562 
L 90.737185 105.806743 
L 92.644224 105.71871 
L 94.551263 105.914712 
L 96.458302 106.390172 
L 98.365347 107.137779 
L 100.272386 108.148798 
L 102.179425 109.411967 
L 104.086458 110.917327 
L 105.993504 112.652178 
L 108.536226 115.303019 
L 111.078949 118.322213 
L 113.621666 121.703593 
L 116.164389 125.463485 
L 118.707106 129.651905 
L 121.249829 134.362501 
L 123.156868 138.321121 
L 125.063907 142.723402 
L 126.970946 147.638178 
L 128.877991 153.109253 
L 131.420714 161.214209 
L 136.50615 178.122968 
L 137.777512 181.697747 
L 139.04887 184.667754 
L 140.320232 186.896512 
L 140.955909 187.705736 
L 141.59159 188.307388 
L 142.227271 188.703031 
L 142.862951 188.901287 
L 143.498632 188.915096 
L 144.13431 188.761604 
L 144.769991 188.460496 
L 146.041349 187.509293 
L 147.948391 185.573097 
L 150.491111 182.904683 
L 152.39815 181.223108 
L 156.212234 178.087644 
L 157.483596 176.596294 
L 158.754957 174.604294 
L 160.026315 171.999448 
L 161.297675 168.756889 
L 163.204716 162.904426 
L 167.018788 150.406847 
L 168.29015 146.948036 
L 169.561514 144.167502 
L 170.832874 142.150994 
L 171.468555 141.433932 
L 172.104235 140.903593 
L 172.739914 140.550994 
L 173.375594 140.362799 
L 174.011274 140.323952 
L 174.64696 140.416609 
L 175.91832 140.92723 
L 177.18968 141.749992 
L 179.732393 143.821099 
L 182.275114 145.802771 
L 183.546474 146.580459 
L 184.817839 147.138353 
L 186.089199 147.420724 
L 187.360559 147.362608 
L 188.631919 146.891856 
L 189.2676 146.476619 
L 190.538964 145.232641 
L 191.810325 143.372405 
L 193.081685 140.841295 
L 194.353045 137.640892 
L 196.26009 131.827008 
L 198.802811 123.715128 
L 200.074164 120.50554 
L 200.709844 119.31943 
L 201.345524 118.474984 
L 201.981204 118.003489 
L 202.616884 117.918607 
L 203.252564 118.219681 
L 203.888245 118.887673 
L 204.523924 119.893023 
L 205.79529 122.73831 
L 207.06665 126.348096 
L 210.88073 137.929365 
L 212.152088 141.193646 
L 213.42345 143.971407 
L 214.694811 146.248523 
L 215.966169 148.048692 
L 217.237528 149.412278 
L 218.508889 150.389561 
L 219.780251 151.030106 
L 221.051609 151.384967 
L 222.322967 151.499402 
L 223.594329 151.413095 
L 225.501368 150.995906 
L 227.408407 150.328069 
L 230.586807 148.916186 
L 236.307931 146.306329 
L 239.486331 145.134314 
L 242.664732 144.243989 
L 245.843132 143.630766 
L 249.021533 143.253849 
L 252.835611 143.046509 
L 257.285373 143.037866 
L 263.642174 143.271848 
L 279.534177 144.217966 
L 305.597058 145.686044 
L 311.318182 145.990347 
L 311.318182 145.990347 
" clip-path="url(#pd3ec7063e6)" style="fill: none; stroke: #7f7f7f; stroke-width: 1.5; stroke-linecap: square"/>
   </g>
   <g id="line2d_22">
    <path d="M 57.681818 140.774707 
L 62.767264 144.862105 
L 69.759743 150.81266 
L 78.023577 157.815891 
L 81.837655 160.794069 
L 85.016061 163.047153 
L 88.194462 165.030173 
L 90.737185 166.390576 
L 93.279902 167.529885 
L 95.822624 168.439155 
L 98.365347 169.117432 
L 100.90807 169.574909 
L 103.450781 169.829956 
L 106.629181 169.908347 
L 110.443266 169.745105 
L 120.614145 169.117277 
L 123.156868 169.251353 
L 125.063907 169.534095 
L 126.970946 170.025741 
L 128.877991 170.778925 
L 130.78503 171.845147 
L 132.692069 173.265642 
L 134.599111 175.057384 
L 136.50615 177.196397 
L 139.04887 180.452414 
L 144.13431 187.186263 
L 146.67703 190.134446 
L 149.219749 192.740183 
L 153.669511 196.904861 
L 156.212234 199.070171 
L 157.483596 199.963169 
L 158.754957 200.634635 
L 160.026315 201.027475 
L 161.297675 201.120579 
L 162.569035 200.942969 
L 164.476068 200.324395 
L 166.383109 199.47177 
L 167.654469 198.759091 
L 168.925829 197.804004 
L 170.197195 196.438203 
L 171.468555 194.498785 
L 172.739914 191.885691 
L 174.011274 188.594862 
L 175.28264 184.721975 
L 177.82536 175.929711 
L 181.003753 164.926379 
L 182.910794 159.133684 
L 184.817839 154.182585 
L 186.724879 150.062891 
L 188.631919 146.638761 
L 191.174644 142.735918 
L 193.717365 138.801941 
L 194.98873 136.483685 
L 196.26009 133.740558 
L 197.53145 130.469524 
L 198.802811 126.637343 
L 200.709844 120.007311 
L 204.523924 106.199769 
L 205.79529 102.283969 
L 207.06665 98.932545 
L 208.33801 96.146606 
L 209.60937 93.868963 
L 210.88073 92.008108 
L 212.152088 90.469151 
L 214.05913 88.575768 
L 216.60185 86.494995 
L 221.051609 83.29168 
L 229.315449 77.36333 
L 240.122015 69.502563 
L 243.936093 67.021298 
L 247.750171 64.821195 
L 250.928572 63.227593 
L 254.106973 61.852172 
L 257.921051 60.477557 
L 261.735129 59.371744 
L 265.549213 58.495885 
L 269.998975 57.713148 
L 275.084415 57.065973 
L 281.441222 56.526914 
L 289.069378 56.143398 
L 298.60458 55.903624 
L 311.318182 55.8 
L 311.318182 55.8 
" clip-path="url(#pd3ec7063e6)" style="fill: none; stroke: #bcbd22; stroke-width: 1.5; stroke-linecap: square"/>
   </g>
   <g id="line2d_23">
    <path d="M 57.681818 217.876116 
L 60.860219 216.286803 
L 64.038619 214.446215 
L 67.21702 212.353539 
L 70.39542 210.019074 
L 74.209498 206.932231 
L 78.659254 203.03271 
L 88.83014 193.950154 
L 92.00854 191.449372 
L 94.551263 189.698135 
L 97.09398 188.228222 
L 99.001025 187.339592 
L 100.90807 186.653663 
L 102.815109 186.182478 
L 104.722142 185.933394 
L 106.629181 185.909045 
L 108.536226 186.103142 
L 110.443266 186.504315 
L 112.985988 187.322058 
L 115.528705 188.388931 
L 122.521184 191.49804 
L 124.428223 191.993605 
L 125.699584 192.131739 
L 126.970946 192.073313 
L 128.242307 191.784391 
L 129.513669 191.236797 
L 130.78503 190.413199 
L 132.056391 189.312497 
L 133.327753 187.956539 
L 135.234792 185.564253 
L 138.413193 181.442855 
L 139.684551 180.120517 
L 140.955909 179.172516 
L 142.227271 178.683534 
L 142.862951 178.624744 
L 143.498632 178.68959 
L 144.769991 179.173178 
L 146.041349 180.069386 
L 147.31271 181.284639 
L 149.219749 183.480901 
L 152.39815 187.540968 
L 154.940876 191.127954 
L 156.212234 193.235345 
L 157.483596 195.706472 
L 158.754957 198.643715 
L 160.026315 202.095696 
L 161.933355 208.123162 
L 165.111749 218.699365 
L 166.383109 222.206061 
L 167.654469 224.840624 
L 168.29015 225.767288 
L 168.925829 226.416647 
L 169.561514 226.786903 
L 170.197195 226.886019 
L 170.832874 226.729484 
L 171.468555 226.339866 
L 172.104235 225.745402 
L 173.375594 224.074817 
L 175.28264 220.874042 
L 177.82536 216.546729 
L 179.09672 214.719981 
L 180.368073 213.229475 
L 181.639433 212.106686 
L 182.910794 211.356848 
L 184.182154 210.973456 
L 185.453519 210.944956 
L 186.724879 211.261805 
L 187.996239 211.91753 
L 189.2676 212.906275 
L 190.538964 214.218034 
L 191.810325 215.829574 
L 193.717365 218.700178 
L 196.895771 223.771257 
L 198.167131 225.407239 
L 199.438491 226.542544 
L 200.074164 226.880288 
L 200.709844 227.053831 
L 201.345524 227.064704 
L 201.981204 226.919724 
L 203.252564 226.227468 
L 204.523924 225.147738 
L 208.33801 221.544637 
L 209.60937 220.681169 
L 210.88073 220.076497 
L 212.152088 219.719995 
L 213.42345 219.575542 
L 215.330489 219.669686 
L 217.237528 220.009335 
L 221.68729 221.142968 
L 224.86569 221.856994 
L 227.408407 222.235212 
L 229.95113 222.412658 
L 232.493847 222.392212 
L 235.672253 222.127066 
L 239.486331 221.559692 
L 247.750171 219.983809 
L 254.106973 218.894569 
L 259.82809 218.153684 
L 265.549213 217.640492 
L 271.906014 217.2878 
L 280.169854 217.073459 
L 290.340734 217.036904 
L 307.504104 217.240651 
L 311.318182 217.307658 
L 311.318182 217.307658 
" clip-path="url(#pd3ec7063e6)" style="fill: none; stroke: #17becf; stroke-width: 1.5; stroke-linecap: square"/>
   </g>
   <g id="patch_3">
    <path d="M 45 320.4 
L 45 43.2 
" style="fill: none; stroke: #000000; stroke-width: 0.8; stroke-linejoin: miter; stroke-linecap: square"/>
   </g>
   <g id="patch_4">
    <path d="M 324 320.4 
L 324 43.2 
" style="fill: none; stroke: #000000; stroke-width: 0.8; stroke-linejoin: miter; stroke-linecap: square"/>
   </g>
   <g id="patch_5">
    <path d="M 45 320.4 
L 324 320.4 
" style="fill: none; stroke: #000000; stroke-width: 0.8; stroke-linejoin: miter; stroke-linecap: square"/>
   </g>
   <g id="patch_6">
    <path d="M 45 43.2 
L 324 43.2 
" style="fill: none; stroke: #000000; stroke-width: 0.8; stroke-linejoin: miter; stroke-linecap: square"/>
   </g>
   <g id="text_14">
    <!-- Single Draw Deviation -->
    <g transform="translate(117.87 37.2)scale(0.12 -0.12)">
     <defs>
      <path id="DejaVuSans-53" d="M 3425 4513 
L 3425 3897 
Q 3066 4069 2747 4153 
Q 2428 4238 2131 4238 
Q 1616 4238 1336 4038 
Q 1056 3838 1056 3469 
Q 1056 3159 1242 3001 
Q 1428 2844 1947 2747 
L 2328 2669 
Q 3034 2534 3370 2195 
Q 3706 1856 3706 1288 
Q 3706 609 3251 259 
Q 2797 -91 1919 -91 
Q 1588 -91 1214 -16 
Q 841 59 441 206 
L 441 856 
Q 825 641 1194 531 
Q 1563 422 1919 422 
Q 2459 422 2753 634 
Q 3047 847 3047 1241 
Q 3047 1584 2836 1778 
Q 2625 1972 2144 2069 
L 1759 2144 
Q 1053 2284 737 2584 
Q 422 2884 422 3419 
Q 422 4038 858 4394 
Q 1294 4750 2059 4750 
Q 2388 4750 2728 4690 
Q 3069 4631 3425 4513 
z
" transform="scale(0.015625)"/>
      <path id="DejaVuSans-69" d="M 603 3500 
L 1178 3500 
L 1178 0 
L 603 0 
L 603 3500 
z
M 603 4863 
L 1178 4863 
L 1178 4134 
L 603 4134 
L 603 4863 
z
" transform="scale(0.015625)"/>
      <path id="DejaVuSans-6e" d="M 3513 2113 
L 3513 0 
L 2938 0 
L 2938 2094 
Q 2938 2591 2744 2837 
Q 2550 3084 2163 3084 
Q 1697 3084 1428 2787 
Q 1159 2491 1159 1978 
L 1159 0 
L 581 0 
L 581 3500 
L 1159 3500 
L 1159 2956 
Q 1366 3272 1645 3428 
Q 1925 3584 2291 3584 
Q 2894 3584 3203 3211 
Q 3513 2838 3513 2113 
z
" transform="scale(0.015625)"/>
      <path id="DejaVuSans-67" d="M 2906 1791 
Q 2906 2416 2648 2759 
Q 2391 3103 1925 3103 
Q 1463 3103 1205 2759 
Q 947 2416 947 1791 
Q 947 1169 1205 825 
Q 1463 481 1925 481 
Q 2391 481 2648 825 
Q 2906 1169 2906 1791 
z
M 3481 434 
Q 3481 -459 3084 -895 
Q 2688 -1331 1869 -1331 
Q 1566 -1331 1297 -1286 
Q 1028 -1241 775 -1147 
L 775 -588 
Q 1028 -725 1275 -790 
Q 1522 -856 1778 -856 
Q 2344 -856 2625 -561 
Q 2906 -266 2906 331 
L 2906 616 
Q 2728 306 2450 153 
Q 2172 0 1784 0 
Q 1141 0 747 490 
Q 353 981 353 1791 
Q 353 2603 747 3093 
Q 1141 3584 1784 3584 
Q 2172 3584 2450 3431 
Q 2728 3278 2906 2969 
L 2906 3500 
L 3481 3500 
L 3481 434 
z
" transform="scale(0.015625)"/>
      <path id="DejaVuSans-6c" d="M 603 4863 
L 1178 4863 
L 1178 0 
L 603 0 
L 603 4863 
z
" transform="scale(0.015625)"/>
      <path id="DejaVuSans-65" d="M 3597 1894 
L 3597 1613 
L 953 1613 
Q 991 1019 1311 708 
Q 1631 397 2203 397 
Q 2534 397 2845 478 
Q 3156 559 3463 722 
L 3463 178 
Q 3153 47 2828 -22 
Q 2503 -91 2169 -91 
Q 1331 -91 842 396 
Q 353 884 353 1716 
Q 353 2575 817 3079 
Q 1281 3584 2069 3584 
Q 2775 3584 3186 3129 
Q 3597 2675 3597 1894 
z
M 3022 2063 
Q 3016 2534 2758 2815 
Q 2500 3097 2075 3097 
Q 1594 3097 1305 2825 
Q 1016 2553 972 2059 
L 3022 2063 
z
" transform="scale(0.015625)"/>
      <path id="DejaVuSans-20" transform="scale(0.015625)"/>
      <path id="DejaVuSans-44" d="M 1259 4147 
L 1259 519 
L 2022 519 
Q 2988 519 3436 956 
Q 3884 1394 3884 2338 
Q 3884 3275 3436 3711 
Q 2988 4147 2022 4147 
L 1259 4147 
z
M 628 4666 
L 1925 4666 
Q 3281 4666 3915 4102 
Q 4550 3538 4550 2338 
Q 4550 1131 3912 565 
Q 3275 0 1925 0 
L 628 0 
L 628 4666 
z
" transform="scale(0.015625)"/>
      <path id="DejaVuSans-72" d="M 2631 2963 
Q 2534 3019 2420 3045 
Q 2306 3072 2169 3072 
Q 1681 3072 1420 2755 
Q 1159 2438 1159 1844 
L 1159 0 
L 581 0 
L 581 3500 
L 1159 3500 
L 1159 2956 
Q 1341 3275 1631 3429 
Q 1922 3584 2338 3584 
Q 2397 3584 2469 3576 
Q 2541 3569 2628 3553 
L 2631 2963 
z
" transform="scale(0.015625)"/>
      <path id="DejaVuSans-61" d="M 2194 1759 
Q 1497 1759 1228 1600 
Q 959 1441 959 1056 
Q 959 750 1161 570 
Q 1363 391 1709 391 
Q 2188 391 2477 730 
Q 2766 1069 2766 1631 
L 2766 1759 
L 2194 1759 
z
M 3341 1997 
L 3341 0 
L 2766 0 
L 2766 531 
Q 2569 213 2275 61 
Q 1981 -91 1556 -91 
Q 1019 -91 701 211 
Q 384 513 384 1019 
Q 384 1609 779 1909 
Q 1175 2209 1959 2209 
L 2766 2209 
L 2766 2266 
Q 2766 2663 2505 2880 
Q 2244 3097 1772 3097 
Q 1472 3097 1187 3025 
Q 903 2953 641 2809 
L 641 3341 
Q 956 3463 1253 3523 
Q 1550 3584 1831 3584 
Q 2591 3584 2966 3190 
Q 3341 2797 3341 1997 
z
" transform="scale(0.015625)"/>
      <path id="DejaVuSans-77" d="M 269 3500 
L 844 3500 
L 1563 769 
L 2278 3500 
L 2956 3500 
L 3675 769 
L 4391 3500 
L 4966 3500 
L 4050 0 
L 3372 0 
L 2619 2869 
L 1863 0 
L 1184 0 
L 269 3500 
z
" transform="scale(0.015625)"/>
      <path id="DejaVuSans-76" d="M 191 3500 
L 800 3500 
L 1894 563 
L 2988 3500 
L 3597 3500 
L 2284 0 
L 1503 0 
L 191 3500 
z
" transform="scale(0.015625)"/>
      <path id="DejaVuSans-74" d="M 1172 4494 
L 1172 3500 
L 2356 3500 
L 2356 3053 
L 1172 3053 
L 1172 1153 
Q 1172 725 1289 603 
Q 1406 481 1766 481 
L 2356 481 
L 2356 0 
L 1766 0 
Q 1100 0 847 248 
Q 594 497 594 1153 
L 594 3053 
L 172 3053 
L 172 3500 
L 594 3500 
L 594 4494 
L 1172 4494 
z
" transform="scale(0.015625)"/>
      <path id="DejaVuSans-6f" d="M 1959 3097 
Q 1497 3097 1228 2736 
Q 959 2375 959 1747 
Q 959 1119 1226 758 
Q 1494 397 1959 397 
Q 2419 397 2687 759 
Q 2956 1122 2956 1747 
Q 2956 2369 2687 2733 
Q 2419 3097 1959 3097 
z
M 1959 3584 
Q 2709 3584 3137 3096 
Q 3566 2609 3566 1747 
Q 3566 888 3137 398 
Q 2709 -91 1959 -91 
Q 1206 -91 779 398 
Q 353 888 353 1747 
Q 353 2609 779 3096 
Q 1206 3584 1959 3584 
z
" transform="scale(0.015625)"/>
     </defs>
     <use xlink:href="#DejaVuSans-53"/>
     <use xlink:href="#DejaVuSans-69" x="63.476562"/>
     <use xlink:href="#DejaVuSans-6e" x="91.259766"/>
     <use xlink:href="#DejaVuSans-67" x="154.638672"/>
     <use xlink:href="#DejaVuSans-6c" x="218.115234"/>
     <use xlink:href="#DejaVuSans-65" x="245.898438"/>
     <use xlink:href="#DejaVuSans-20" x="307.421875"/>
     <use xlink:href="#DejaVuSans-44" x="339.208984"/>
     <use xlink:href="#DejaVuSans-72" x="416.210938"/>
     <use xlink:href="#DejaVuSans-61" x="457.324219"/>
     <use xlink:href="#DejaVuSans-77" x="518.603516"/>
     <use xlink:href="#DejaVuSans-20" x="600.390625"/>
     <use xlink:href="#DejaVuSans-44" x="632.177734"/>
     <use xlink:href="#DejaVuSans-65" x="709.179688"/>
     <use xlink:href="#DejaVuSans-76" x="770.703125"/>
     <use xlink:href="#DejaVuSans-69" x="829.882812"/>
     <use xlink:href="#DejaVuSans-61" x="857.666016"/>
     <use xlink:href="#DejaVuSans-74" x="918.945312"/>
     <use xlink:href="#DejaVuSans-69" x="958.154297"/>
     <use xlink:href="#DejaVuSans-6f" x="985.9375"/>
     <use xlink:href="#DejaVuSans-6e" x="1047.119141"/>
    </g>
   </g>
   <g id="legend_1">
    <g id="patch_7">
     <path d="M 157.064062 197.98125 
L 317 197.98125 
Q 319 197.98125 319 195.98125 
L 319 50.2 
Q 319 48.2 317 48.2 
L 157.064062 48.2 
Q 155.064062 48.2 155.064062 50.2 
L 155.064062 195.98125 
Q 155.064062 197.98125 157.064062 197.98125 
z
" style="fill: #ffffff; opacity: 0.8; stroke: #cccccc; stroke-linejoin: miter"/>
    </g>
    <g id="line2d_24">
     <path d="M 159.064062 56.298437 
L 169.064062 56.298437 
L 179.064062 56.298437 
" style="fill: none; stroke: #1f77b4; stroke-width: 1.5; stroke-linecap: square"/>
    </g>
    <g id="text_15">
     <!-- Deviation from average 0 -->
     <g transform="translate(187.064062 59.798437)scale(0.1 -0.1)">
      <defs>
       <path id="DejaVuSans-66" d="M 2375 4863 
L 2375 4384 
L 1825 4384 
Q 1516 4384 1395 4259 
Q 1275 4134 1275 3809 
L 1275 3500 
L 2222 3500 
L 2222 3053 
L 1275 3053 
L 1275 0 
L 697 0 
L 697 3053 
L 147 3053 
L 147 3500 
L 697 3500 
L 697 3744 
Q 697 4328 969 4595 
Q 1241 4863 1831 4863 
L 2375 4863 
z
" transform="scale(0.015625)"/>
       <path id="DejaVuSans-6d" d="M 3328 2828 
Q 3544 3216 3844 3400 
Q 4144 3584 4550 3584 
Q 5097 3584 5394 3201 
Q 5691 2819 5691 2113 
L 5691 0 
L 5113 0 
L 5113 2094 
Q 5113 2597 4934 2840 
Q 4756 3084 4391 3084 
Q 3944 3084 3684 2787 
Q 3425 2491 3425 1978 
L 3425 0 
L 2847 0 
L 2847 2094 
Q 2847 2600 2669 2842 
Q 2491 3084 2119 3084 
Q 1678 3084 1418 2786 
Q 1159 2488 1159 1978 
L 1159 0 
L 581 0 
L 581 3500 
L 1159 3500 
L 1159 2956 
Q 1356 3278 1631 3431 
Q 1906 3584 2284 3584 
Q 2666 3584 2933 3390 
Q 3200 3197 3328 2828 
z
" transform="scale(0.015625)"/>
      </defs>
      <use xlink:href="#DejaVuSans-44"/>
      <use xlink:href="#DejaVuSans-65" x="77.001953"/>
      <use xlink:href="#DejaVuSans-76" x="138.525391"/>
      <use xlink:href="#DejaVuSans-69" x="197.705078"/>
      <use xlink:href="#DejaVuSans-61" x="225.488281"/>
      <use xlink:href="#DejaVuSans-74" x="286.767578"/>
      <use xlink:href="#DejaVuSans-69" x="325.976562"/>
      <use xlink:href="#DejaVuSans-6f" x="353.759766"/>
      <use xlink:href="#DejaVuSans-6e" x="414.941406"/>
      <use xlink:href="#DejaVuSans-20" x="478.320312"/>
      <use xlink:href="#DejaVuSans-66" x="510.107422"/>
      <use xlink:href="#DejaVuSans-72" x="545.3125"/>
      <use xlink:href="#DejaVuSans-6f" x="584.175781"/>
      <use xlink:href="#DejaVuSans-6d" x="645.357422"/>
      <use xlink:href="#DejaVuSans-20" x="742.769531"/>
      <use xlink:href="#DejaVuSans-61" x="774.556641"/>
      <use xlink:href="#DejaVuSans-76" x="835.835938"/>
      <use xlink:href="#DejaVuSans-65" x="895.015625"/>
      <use xlink:href="#DejaVuSans-72" x="956.539062"/>
      <use xlink:href="#DejaVuSans-61" x="997.652344"/>
      <use xlink:href="#DejaVuSans-67" x="1058.931641"/>
      <use xlink:href="#DejaVuSans-65" x="1122.408203"/>
      <use xlink:href="#DejaVuSans-20" x="1183.931641"/>
      <use xlink:href="#DejaVuSans-30" x="1215.71875"/>
     </g>
    </g>
    <g id="line2d_25">
     <path d="M 159.064062 70.976562 
L 169.064062 70.976562 
L 179.064062 70.976562 
" style="fill: none; stroke: #ff7f0e; stroke-width: 1.5; stroke-linecap: square"/>
    </g>
    <g id="text_16">
     <!-- Deviation from average 1 -->
     <g transform="translate(187.064062 74.476562)scale(0.1 -0.1)">
      <use xlink:href="#DejaVuSans-44"/>
      <use xlink:href="#DejaVuSans-65" x="77.001953"/>
      <use xlink:href="#DejaVuSans-76" x="138.525391"/>
      <use xlink:href="#DejaVuSans-69" x="197.705078"/>
      <use xlink:href="#DejaVuSans-61" x="225.488281"/>
      <use xlink:href="#DejaVuSans-74" x="286.767578"/>
      <use xlink:href="#DejaVuSans-69" x="325.976562"/>
      <use xlink:href="#DejaVuSans-6f" x="353.759766"/>
      <use xlink:href="#DejaVuSans-6e" x="414.941406"/>
      <use xlink:href="#DejaVuSans-20" x="478.320312"/>
      <use xlink:href="#DejaVuSans-66" x="510.107422"/>
      <use xlink:href="#DejaVuSans-72" x="545.3125"/>
      <use xlink:href="#DejaVuSans-6f" x="584.175781"/>
      <use xlink:href="#DejaVuSans-6d" x="645.357422"/>
      <use xlink:href="#DejaVuSans-20" x="742.769531"/>
      <use xlink:href="#DejaVuSans-61" x="774.556641"/>
      <use xlink:href="#DejaVuSans-76" x="835.835938"/>
      <use xlink:href="#DejaVuSans-65" x="895.015625"/>
      <use xlink:href="#DejaVuSans-72" x="956.539062"/>
      <use xlink:href="#DejaVuSans-61" x="997.652344"/>
      <use xlink:href="#DejaVuSans-67" x="1058.931641"/>
      <use xlink:href="#DejaVuSans-65" x="1122.408203"/>
      <use xlink:href="#DejaVuSans-20" x="1183.931641"/>
      <use xlink:href="#DejaVuSans-31" x="1215.71875"/>
     </g>
    </g>
    <g id="line2d_26">
     <path d="M 159.064062 85.654688 
L 169.064062 85.654688 
L 179.064062 85.654688 
" style="fill: none; stroke: #2ca02c; stroke-width: 1.5; stroke-linecap: square"/>
    </g>
    <g id="text_17">
     <!-- Deviation from average 2 -->
     <g transform="translate(187.064062 89.154688)scale(0.1 -0.1)">
      <use xlink:href="#DejaVuSans-44"/>
      <use xlink:href="#DejaVuSans-65" x="77.001953"/>
      <use xlink:href="#DejaVuSans-76" x="138.525391"/>
      <use xlink:href="#DejaVuSans-69" x="197.705078"/>
      <use xlink:href="#DejaVuSans-61" x="225.488281"/>
      <use xlink:href="#DejaVuSans-74" x="286.767578"/>
      <use xlink:href="#DejaVuSans-69" x="325.976562"/>
      <use xlink:href="#DejaVuSans-6f" x="353.759766"/>
      <use xlink:href="#DejaVuSans-6e" x="414.941406"/>
      <use xlink:href="#DejaVuSans-20" x="478.320312"/>
      <use xlink:href="#DejaVuSans-66" x="510.107422"/>
      <use xlink:href="#DejaVuSans-72" x="545.3125"/>
      <use xlink:href="#DejaVuSans-6f" x="584.175781"/>
      <use xlink:href="#DejaVuSans-6d" x="645.357422"/>
      <use xlink:href="#DejaVuSans-20" x="742.769531"/>
      <use xlink:href="#DejaVuSans-61" x="774.556641"/>
      <use xlink:href="#DejaVuSans-76" x="835.835938"/>
      <use xlink:href="#DejaVuSans-65" x="895.015625"/>
      <use xlink:href="#DejaVuSans-72" x="956.539062"/>
      <use xlink:href="#DejaVuSans-61" x="997.652344"/>
      <use xlink:href="#DejaVuSans-67" x="1058.931641"/>
      <use xlink:href="#DejaVuSans-65" x="1122.408203"/>
      <use xlink:href="#DejaVuSans-20" x="1183.931641"/>
      <use xlink:href="#DejaVuSans-32" x="1215.71875"/>
     </g>
    </g>
    <g id="line2d_27">
     <path d="M 159.064062 100.332812 
L 169.064062 100.332812 
L 179.064062 100.332812 
" style="fill: none; stroke: #d62728; stroke-width: 1.5; stroke-linecap: square"/>
    </g>
    <g id="text_18">
     <!-- Deviation from average 3 -->
     <g transform="translate(187.064062 103.832812)scale(0.1 -0.1)">
      <defs>
       <path id="DejaVuSans-33" d="M 2597 2516 
Q 3050 2419 3304 2112 
Q 3559 1806 3559 1356 
Q 3559 666 3084 287 
Q 2609 -91 1734 -91 
Q 1441 -91 1130 -33 
Q 819 25 488 141 
L 488 750 
Q 750 597 1062 519 
Q 1375 441 1716 441 
Q 2309 441 2620 675 
Q 2931 909 2931 1356 
Q 2931 1769 2642 2001 
Q 2353 2234 1838 2234 
L 1294 2234 
L 1294 2753 
L 1863 2753 
Q 2328 2753 2575 2939 
Q 2822 3125 2822 3475 
Q 2822 3834 2567 4026 
Q 2313 4219 1838 4219 
Q 1578 4219 1281 4162 
Q 984 4106 628 3988 
L 628 4550 
Q 988 4650 1302 4700 
Q 1616 4750 1894 4750 
Q 2613 4750 3031 4423 
Q 3450 4097 3450 3541 
Q 3450 3153 3228 2886 
Q 3006 2619 2597 2516 
z
" transform="scale(0.015625)"/>
      </defs>
      <use xlink:href="#DejaVuSans-44"/>
      <use xlink:href="#DejaVuSans-65" x="77.001953"/>
      <use xlink:href="#DejaVuSans-76" x="138.525391"/>
      <use xlink:href="#DejaVuSans-69" x="197.705078"/>
      <use xlink:href="#DejaVuSans-61" x="225.488281"/>
      <use xlink:href="#DejaVuSans-74" x="286.767578"/>
      <use xlink:href="#DejaVuSans-69" x="325.976562"/>
      <use xlink:href="#DejaVuSans-6f" x="353.759766"/>
      <use xlink:href="#DejaVuSans-6e" x="414.941406"/>
      <use xlink:href="#DejaVuSans-20" x="478.320312"/>
      <use xlink:href="#DejaVuSans-66" x="510.107422"/>
      <use xlink:href="#DejaVuSans-72" x="545.3125"/>
      <use xlink:href="#DejaVuSans-6f" x="584.175781"/>
      <use xlink:href="#DejaVuSans-6d" x="645.357422"/>
      <use xlink:href="#DejaVuSans-20" x="742.769531"/>
      <use xlink:href="#DejaVuSans-61" x="774.556641"/>
      <use xlink:href="#DejaVuSans-76" x="835.835938"/>
      <use xlink:href="#DejaVuSans-65" x="895.015625"/>
      <use xlink:href="#DejaVuSans-72" x="956.539062"/>
      <use xlink:href="#DejaVuSans-61" x="997.652344"/>
      <use xlink:href="#DejaVuSans-67" x="1058.931641"/>
      <use xlink:href="#DejaVuSans-65" x="1122.408203"/>
      <use xlink:href="#DejaVuSans-20" x="1183.931641"/>
      <use xlink:href="#DejaVuSans-33" x="1215.71875"/>
     </g>
    </g>
    <g id="line2d_28">
     <path d="M 159.064062 115.010938 
L 169.064062 115.010938 
L 179.064062 115.010938 
" style="fill: none; stroke: #9467bd; stroke-width: 1.5; stroke-linecap: square"/>
    </g>
    <g id="text_19">
     <!-- Deviation from average 4 -->
     <g transform="translate(187.064062 118.510938)scale(0.1 -0.1)">
      <defs>
       <path id="DejaVuSans-34" d="M 2419 4116 
L 825 1625 
L 2419 1625 
L 2419 4116 
z
M 2253 4666 
L 3047 4666 
L 3047 1625 
L 3713 1625 
L 3713 1100 
L 3047 1100 
L 3047 0 
L 2419 0 
L 2419 1100 
L 313 1100 
L 313 1709 
L 2253 4666 
z
" transform="scale(0.015625)"/>
      </defs>
      <use xlink:href="#DejaVuSans-44"/>
      <use xlink:href="#DejaVuSans-65" x="77.001953"/>
      <use xlink:href="#DejaVuSans-76" x="138.525391"/>
      <use xlink:href="#DejaVuSans-69" x="197.705078"/>
      <use xlink:href="#DejaVuSans-61" x="225.488281"/>
      <use xlink:href="#DejaVuSans-74" x="286.767578"/>
      <use xlink:href="#DejaVuSans-69" x="325.976562"/>
      <use xlink:href="#DejaVuSans-6f" x="353.759766"/>
      <use xlink:href="#DejaVuSans-6e" x="414.941406"/>
      <use xlink:href="#DejaVuSans-20" x="478.320312"/>
      <use xlink:href="#DejaVuSans-66" x="510.107422"/>
      <use xlink:href="#DejaVuSans-72" x="545.3125"/>
      <use xlink:href="#DejaVuSans-6f" x="584.175781"/>
      <use xlink:href="#DejaVuSans-6d" x="645.357422"/>
      <use xlink:href="#DejaVuSans-20" x="742.769531"/>
      <use xlink:href="#DejaVuSans-61" x="774.556641"/>
      <use xlink:href="#DejaVuSans-76" x="835.835938"/>
      <use xlink:href="#DejaVuSans-65" x="895.015625"/>
      <use xlink:href="#DejaVuSans-72" x="956.539062"/>
      <use xlink:href="#DejaVuSans-61" x="997.652344"/>
      <use xlink:href="#DejaVuSans-67" x="1058.931641"/>
      <use xlink:href="#DejaVuSans-65" x="1122.408203"/>
      <use xlink:href="#DejaVuSans-20" x="1183.931641"/>
      <use xlink:href="#DejaVuSans-34" x="1215.71875"/>
     </g>
    </g>
    <g id="line2d_29">
     <path d="M 159.064062 129.689062 
L 169.064062 129.689062 
L 179.064062 129.689062 
" style="fill: none; stroke: #8c564b; stroke-width: 1.5; stroke-linecap: square"/>
    </g>
    <g id="text_20">
     <!-- Deviation from average 5 -->
     <g transform="translate(187.064062 133.189062)scale(0.1 -0.1)">
      <use xlink:href="#DejaVuSans-44"/>
      <use xlink:href="#DejaVuSans-65" x="77.001953"/>
      <use xlink:href="#DejaVuSans-76" x="138.525391"/>
      <use xlink:href="#DejaVuSans-69" x="197.705078"/>
      <use xlink:href="#DejaVuSans-61" x="225.488281"/>
      <use xlink:href="#DejaVuSans-74" x="286.767578"/>
      <use xlink:href="#DejaVuSans-69" x="325.976562"/>
      <use xlink:href="#DejaVuSans-6f" x="353.759766"/>
      <use xlink:href="#DejaVuSans-6e" x="414.941406"/>
      <use xlink:href="#DejaVuSans-20" x="478.320312"/>
      <use xlink:href="#DejaVuSans-66" x="510.107422"/>
      <use xlink:href="#DejaVuSans-72" x="545.3125"/>
      <use xlink:href="#DejaVuSans-6f" x="584.175781"/>
      <use xlink:href="#DejaVuSans-6d" x="645.357422"/>
      <use xlink:href="#DejaVuSans-20" x="742.769531"/>
      <use xlink:href="#DejaVuSans-61" x="774.556641"/>
      <use xlink:href="#DejaVuSans-76" x="835.835938"/>
      <use xlink:href="#DejaVuSans-65" x="895.015625"/>
      <use xlink:href="#DejaVuSans-72" x="956.539062"/>
      <use xlink:href="#DejaVuSans-61" x="997.652344"/>
      <use xlink:href="#DejaVuSans-67" x="1058.931641"/>
      <use xlink:href="#DejaVuSans-65" x="1122.408203"/>
      <use xlink:href="#DejaVuSans-20" x="1183.931641"/>
      <use xlink:href="#DejaVuSans-35" x="1215.71875"/>
     </g>
    </g>
    <g id="line2d_30">
     <path d="M 159.064062 144.367188 
L 169.064062 144.367188 
L 179.064062 144.367188 
" style="fill: none; stroke: #e377c2; stroke-width: 1.5; stroke-linecap: square"/>
    </g>
    <g id="text_21">
     <!-- Deviation from average 6 -->
     <g transform="translate(187.064062 147.867188)scale(0.1 -0.1)">
      <defs>
       <path id="DejaVuSans-36" d="M 2113 2584 
Q 1688 2584 1439 2293 
Q 1191 2003 1191 1497 
Q 1191 994 1439 701 
Q 1688 409 2113 409 
Q 2538 409 2786 701 
Q 3034 994 3034 1497 
Q 3034 2003 2786 2293 
Q 2538 2584 2113 2584 
z
M 3366 4563 
L 3366 3988 
Q 3128 4100 2886 4159 
Q 2644 4219 2406 4219 
Q 1781 4219 1451 3797 
Q 1122 3375 1075 2522 
Q 1259 2794 1537 2939 
Q 1816 3084 2150 3084 
Q 2853 3084 3261 2657 
Q 3669 2231 3669 1497 
Q 3669 778 3244 343 
Q 2819 -91 2113 -91 
Q 1303 -91 875 529 
Q 447 1150 447 2328 
Q 447 3434 972 4092 
Q 1497 4750 2381 4750 
Q 2619 4750 2861 4703 
Q 3103 4656 3366 4563 
z
" transform="scale(0.015625)"/>
      </defs>
      <use xlink:href="#DejaVuSans-44"/>
      <use xlink:href="#DejaVuSans-65" x="77.001953"/>
      <use xlink:href="#DejaVuSans-76" x="138.525391"/>
      <use xlink:href="#DejaVuSans-69" x="197.705078"/>
      <use xlink:href="#DejaVuSans-61" x="225.488281"/>
      <use xlink:href="#DejaVuSans-74" x="286.767578"/>
      <use xlink:href="#DejaVuSans-69" x="325.976562"/>
      <use xlink:href="#DejaVuSans-6f" x="353.759766"/>
      <use xlink:href="#DejaVuSans-6e" x="414.941406"/>
      <use xlink:href="#DejaVuSans-20" x="478.320312"/>
      <use xlink:href="#DejaVuSans-66" x="510.107422"/>
      <use xlink:href="#DejaVuSans-72" x="545.3125"/>
      <use xlink:href="#DejaVuSans-6f" x="584.175781"/>
      <use xlink:href="#DejaVuSans-6d" x="645.357422"/>
      <use xlink:href="#DejaVuSans-20" x="742.769531"/>
      <use xlink:href="#DejaVuSans-61" x="774.556641"/>
      <use xlink:href="#DejaVuSans-76" x="835.835938"/>
      <use xlink:href="#DejaVuSans-65" x="895.015625"/>
      <use xlink:href="#DejaVuSans-72" x="956.539062"/>
      <use xlink:href="#DejaVuSans-61" x="997.652344"/>
      <use xlink:href="#DejaVuSans-67" x="1058.931641"/>
      <use xlink:href="#DejaVuSans-65" x="1122.408203"/>
      <use xlink:href="#DejaVuSans-20" x="1183.931641"/>
      <use xlink:href="#DejaVuSans-36" x="1215.71875"/>
     </g>
    </g>
    <g id="line2d_31">
     <path d="M 159.064062 159.045312 
L 169.064062 159.045312 
L 179.064062 159.045312 
" style="fill: none; stroke: #7f7f7f; stroke-width: 1.5; stroke-linecap: square"/>
    </g>
    <g id="text_22">
     <!-- Deviation from average 7 -->
     <g transform="translate(187.064062 162.545312)scale(0.1 -0.1)">
      <defs>
       <path id="DejaVuSans-37" d="M 525 4666 
L 3525 4666 
L 3525 4397 
L 1831 0 
L 1172 0 
L 2766 4134 
L 525 4134 
L 525 4666 
z
" transform="scale(0.015625)"/>
      </defs>
      <use xlink:href="#DejaVuSans-44"/>
      <use xlink:href="#DejaVuSans-65" x="77.001953"/>
      <use xlink:href="#DejaVuSans-76" x="138.525391"/>
      <use xlink:href="#DejaVuSans-69" x="197.705078"/>
      <use xlink:href="#DejaVuSans-61" x="225.488281"/>
      <use xlink:href="#DejaVuSans-74" x="286.767578"/>
      <use xlink:href="#DejaVuSans-69" x="325.976562"/>
      <use xlink:href="#DejaVuSans-6f" x="353.759766"/>
      <use xlink:href="#DejaVuSans-6e" x="414.941406"/>
      <use xlink:href="#DejaVuSans-20" x="478.320312"/>
      <use xlink:href="#DejaVuSans-66" x="510.107422"/>
      <use xlink:href="#DejaVuSans-72" x="545.3125"/>
      <use xlink:href="#DejaVuSans-6f" x="584.175781"/>
      <use xlink:href="#DejaVuSans-6d" x="645.357422"/>
      <use xlink:href="#DejaVuSans-20" x="742.769531"/>
      <use xlink:href="#DejaVuSans-61" x="774.556641"/>
      <use xlink:href="#DejaVuSans-76" x="835.835938"/>
      <use xlink:href="#DejaVuSans-65" x="895.015625"/>
      <use xlink:href="#DejaVuSans-72" x="956.539062"/>
      <use xlink:href="#DejaVuSans-61" x="997.652344"/>
      <use xlink:href="#DejaVuSans-67" x="1058.931641"/>
      <use xlink:href="#DejaVuSans-65" x="1122.408203"/>
      <use xlink:href="#DejaVuSans-20" x="1183.931641"/>
      <use xlink:href="#DejaVuSans-37" x="1215.71875"/>
     </g>
    </g>
    <g id="line2d_32">
     <path d="M 159.064062 173.723437 
L 169.064062 173.723437 
L 179.064062 173.723437 
" style="fill: none; stroke: #bcbd22; stroke-width: 1.5; stroke-linecap: square"/>
    </g>
    <g id="text_23">
     <!-- Deviation from average 8 -->
     <g transform="translate(187.064062 177.223437)scale(0.1 -0.1)">
      <defs>
       <path id="DejaVuSans-38" d="M 2034 2216 
Q 1584 2216 1326 1975 
Q 1069 1734 1069 1313 
Q 1069 891 1326 650 
Q 1584 409 2034 409 
Q 2484 409 2743 651 
Q 3003 894 3003 1313 
Q 3003 1734 2745 1975 
Q 2488 2216 2034 2216 
z
M 1403 2484 
Q 997 2584 770 2862 
Q 544 3141 544 3541 
Q 544 4100 942 4425 
Q 1341 4750 2034 4750 
Q 2731 4750 3128 4425 
Q 3525 4100 3525 3541 
Q 3525 3141 3298 2862 
Q 3072 2584 2669 2484 
Q 3125 2378 3379 2068 
Q 3634 1759 3634 1313 
Q 3634 634 3220 271 
Q 2806 -91 2034 -91 
Q 1263 -91 848 271 
Q 434 634 434 1313 
Q 434 1759 690 2068 
Q 947 2378 1403 2484 
z
M 1172 3481 
Q 1172 3119 1398 2916 
Q 1625 2713 2034 2713 
Q 2441 2713 2670 2916 
Q 2900 3119 2900 3481 
Q 2900 3844 2670 4047 
Q 2441 4250 2034 4250 
Q 1625 4250 1398 4047 
Q 1172 3844 1172 3481 
z
" transform="scale(0.015625)"/>
      </defs>
      <use xlink:href="#DejaVuSans-44"/>
      <use xlink:href="#DejaVuSans-65" x="77.001953"/>
      <use xlink:href="#DejaVuSans-76" x="138.525391"/>
      <use xlink:href="#DejaVuSans-69" x="197.705078"/>
      <use xlink:href="#DejaVuSans-61" x="225.488281"/>
      <use xlink:href="#DejaVuSans-74" x="286.767578"/>
      <use xlink:href="#DejaVuSans-69" x="325.976562"/>
      <use xlink:href="#DejaVuSans-6f" x="353.759766"/>
      <use xlink:href="#DejaVuSans-6e" x="414.941406"/>
      <use xlink:href="#DejaVuSans-20" x="478.320312"/>
      <use xlink:href="#DejaVuSans-66" x="510.107422"/>
      <use xlink:href="#DejaVuSans-72" x="545.3125"/>
      <use xlink:href="#DejaVuSans-6f" x="584.175781"/>
      <use xlink:href="#DejaVuSans-6d" x="645.357422"/>
      <use xlink:href="#DejaVuSans-20" x="742.769531"/>
      <use xlink:href="#DejaVuSans-61" x="774.556641"/>
      <use xlink:href="#DejaVuSans-76" x="835.835938"/>
      <use xlink:href="#DejaVuSans-65" x="895.015625"/>
      <use xlink:href="#DejaVuSans-72" x="956.539062"/>
      <use xlink:href="#DejaVuSans-61" x="997.652344"/>
      <use xlink:href="#DejaVuSans-67" x="1058.931641"/>
      <use xlink:href="#DejaVuSans-65" x="1122.408203"/>
      <use xlink:href="#DejaVuSans-20" x="1183.931641"/>
      <use xlink:href="#DejaVuSans-38" x="1215.71875"/>
     </g>
    </g>
    <g id="line2d_33">
     <path d="M 159.064062 188.401562 
L 169.064062 188.401562 
L 179.064062 188.401562 
" style="fill: none; stroke: #17becf; stroke-width: 1.5; stroke-linecap: square"/>
    </g>
    <g id="text_24">
     <!-- Deviation from average 9 -->
     <g transform="translate(187.064062 191.901562)scale(0.1 -0.1)">
      <defs>
       <path id="DejaVuSans-39" d="M 703 97 
L 703 672 
Q 941 559 1184 500 
Q 1428 441 1663 441 
Q 2288 441 2617 861 
Q 2947 1281 2994 2138 
Q 2813 1869 2534 1725 
Q 2256 1581 1919 1581 
Q 1219 1581 811 2004 
Q 403 2428 403 3163 
Q 403 3881 828 4315 
Q 1253 4750 1959 4750 
Q 2769 4750 3195 4129 
Q 3622 3509 3622 2328 
Q 3622 1225 3098 567 
Q 2575 -91 1691 -91 
Q 1453 -91 1209 -44 
Q 966 3 703 97 
z
M 1959 2075 
Q 2384 2075 2632 2365 
Q 2881 2656 2881 3163 
Q 2881 3666 2632 3958 
Q 2384 4250 1959 4250 
Q 1534 4250 1286 3958 
Q 1038 3666 1038 3163 
Q 1038 2656 1286 2365 
Q 1534 2075 1959 2075 
z
" transform="scale(0.015625)"/>
      </defs>
      <use xlink:href="#DejaVuSans-44"/>
      <use xlink:href="#DejaVuSans-65" x="77.001953"/>
      <use xlink:href="#DejaVuSans-76" x="138.525391"/>
      <use xlink:href="#DejaVuSans-69" x="197.705078"/>
      <use xlink:href="#DejaVuSans-61" x="225.488281"/>
      <use xlink:href="#DejaVuSans-74" x="286.767578"/>
      <use xlink:href="#DejaVuSans-69" x="325.976562"/>
      <use xlink:href="#DejaVuSans-6f" x="353.759766"/>
      <use xlink:href="#DejaVuSans-6e" x="414.941406"/>
      <use xlink:href="#DejaVuSans-20" x="478.320312"/>
      <use xlink:href="#DejaVuSans-66" x="510.107422"/>
      <use xlink:href="#DejaVuSans-72" x="545.3125"/>
      <use xlink:href="#DejaVuSans-6f" x="584.175781"/>
      <use xlink:href="#DejaVuSans-6d" x="645.357422"/>
      <use xlink:href="#DejaVuSans-20" x="742.769531"/>
      <use xlink:href="#DejaVuSans-61" x="774.556641"/>
      <use xlink:href="#DejaVuSans-76" x="835.835938"/>
      <use xlink:href="#DejaVuSans-65" x="895.015625"/>
      <use xlink:href="#DejaVuSans-72" x="956.539062"/>
      <use xlink:href="#DejaVuSans-61" x="997.652344"/>
      <use xlink:href="#DejaVuSans-67" x="1058.931641"/>
      <use xlink:href="#DejaVuSans-65" x="1122.408203"/>
      <use xlink:href="#DejaVuSans-20" x="1183.931641"/>
      <use xlink:href="#DejaVuSans-39" x="1215.71875"/>
     </g>
    </g>
   </g>
  </g>
 </g>
 <defs>
  <clipPath id="pd3ec7063e6">
   <rect x="45" y="43.2" width="279" height="277.2"/>
  </clipPath>
 </defs>
</svg>
