<?xml version="1.0" encoding="utf-8" standalone="no"?>
<!DOCTYPE svg PUBLIC "-//W3C//DTD SVG 1.1//EN"
  "http://www.w3.org/Graphics/SVG/1.1/DTD/svg11.dtd">
<svg xmlns:xlink="http://www.w3.org/1999/xlink" width="360pt" height="360pt" viewBox="0 0 360 360" xmlns="http://www.w3.org/2000/svg" version="1.1">
 <metadata>
  <rdf:RDF xmlns:dc="http://purl.org/dc/elements/1.1/" xmlns:cc="http://creativecommons.org/ns#" xmlns:rdf="http://www.w3.org/1999/02/22-rdf-syntax-ns#">
   <cc:Work>
    <dc:type rdf:resource="http://purl.org/dc/dcmitype/StillImage"/>
    <dc:date>2022-11-13T19:16:31.678589</dc:date>
    <dc:format>image/svg+xml</dc:format>
    <dc:creator>
     <cc:Agent>
      <dc:title>Matplotlib v3.5.3, https://matplotlib.org/</dc:title>
     </cc:Agent>
    </dc:creator>
   </cc:Work>
  </rdf:RDF>
 </metadata>
 <defs>
  <style type="text/css">*{stroke-linejoin: round; stroke-linecap: butt}</style>
 </defs>
 <g id="figure_1">
  <g id="patch_1">
   <path d="M 0 360 
L 360 360 
L 360 0 
L 0 0 
z
" style="fill: #ffffff"/>
  </g>
  <g id="axes_1">
   <g id="patch_2">
    <path d="M 45 320.4 
L 324 320.4 
L 324 43.2 
L 45 43.2 
z
" style="fill: #ffffff"/>
   </g>
   <g id="matplotlib.axis_1">
    <g id="xtick_1">
     <g id="line2d_1">
      <defs>
       <path id="ma326e2d510" d="M 0 0 
L 0 3.5 
" style="stroke: #000000; stroke-width: 0.8"/>
      </defs>
      <g>
       <use xlink:href="#ma326e2d510" x="83.045455" y="320.4" style="stroke: #000000; stroke-width: 0.8"/>
      </g>
     </g>
     <g id="text_1">
      <!-- −2 -->
      <g transform="translate(75.674361 334.998438)scale(0.1 -0.1)">
       <defs>
        <path id="DejaVuSans-2212" d="M 678 2272 
L 4684 2272 
L 4684 1741 
L 678 1741 
L 678 2272 
z
" transform="scale(0.015625)"/>
        <path id="DejaVuSans-32" d="M 1228 531 
L 3431 531 
L 3431 0 
L 469 0 
L 469 531 
Q 828 903 1448 1529 
Q 2069 2156 2228 2338 
Q 2531 2678 2651 2914 
Q 2772 3150 2772 3378 
Q 2772 3750 2511 3984 
Q 2250 4219 1831 4219 
Q 1534 4219 1204 4116 
Q 875 4013 500 3803 
L 500 4441 
Q 881 4594 1212 4672 
Q 1544 4750 1819 4750 
Q 2544 4750 2975 4387 
Q 3406 4025 3406 3419 
Q 3406 3131 3298 2873 
Q 3191 2616 2906 2266 
Q 2828 2175 2409 1742 
Q 1991 1309 1228 531 
z
" transform="scale(0.015625)"/>
       </defs>
       <use xlink:href="#DejaVuSans-2212"/>
       <use xlink:href="#DejaVuSans-32" x="83.789062"/>
      </g>
     </g>
    </g>
    <g id="xtick_2">
     <g id="line2d_2">
      <g>
       <use xlink:href="#ma326e2d510" x="133.772727" y="320.4" style="stroke: #000000; stroke-width: 0.8"/>
      </g>
     </g>
     <g id="text_2">
      <!-- −1 -->
      <g transform="translate(126.401634 334.998438)scale(0.1 -0.1)">
       <defs>
        <path id="DejaVuSans-31" d="M 794 531 
L 1825 531 
L 1825 4091 
L 703 3866 
L 703 4441 
L 1819 4666 
L 2450 4666 
L 2450 531 
L 3481 531 
L 3481 0 
L 794 0 
L 794 531 
z
" transform="scale(0.015625)"/>
       </defs>
       <use xlink:href="#DejaVuSans-2212"/>
       <use xlink:href="#DejaVuSans-31" x="83.789062"/>
      </g>
     </g>
    </g>
    <g id="xtick_3">
     <g id="line2d_3">
      <g>
       <use xlink:href="#ma326e2d510" x="184.5" y="320.4" style="stroke: #000000; stroke-width: 0.8"/>
      </g>
     </g>
     <g id="text_3">
      <!-- 0 -->
      <g transform="translate(181.31875 334.998438)scale(0.1 -0.1)">
       <defs>
        <path id="DejaVuSans-30" d="M 2034 4250 
Q 1547 4250 1301 3770 
Q 1056 3291 1056 2328 
Q 1056 1369 1301 889 
Q 1547 409 2034 409 
Q 2525 409 2770 889 
Q 3016 1369 3016 2328 
Q 3016 3291 2770 3770 
Q 2525 4250 2034 4250 
z
M 2034 4750 
Q 2819 4750 3233 4129 
Q 3647 3509 3647 2328 
Q 3647 1150 3233 529 
Q 2819 -91 2034 -91 
Q 1250 -91 836 529 
Q 422 1150 422 2328 
Q 422 3509 836 4129 
Q 1250 4750 2034 4750 
z
" transform="scale(0.015625)"/>
       </defs>
       <use xlink:href="#DejaVuSans-30"/>
      </g>
     </g>
    </g>
    <g id="xtick_4">
     <g id="line2d_4">
      <g>
       <use xlink:href="#ma326e2d510" x="235.227273" y="320.4" style="stroke: #000000; stroke-width: 0.8"/>
      </g>
     </g>
     <g id="text_4">
      <!-- 1 -->
      <g transform="translate(232.046023 334.998438)scale(0.1 -0.1)">
       <use xlink:href="#DejaVuSans-31"/>
      </g>
     </g>
    </g>
    <g id="xtick_5">
     <g id="line2d_5">
      <g>
       <use xlink:href="#ma326e2d510" x="285.954545" y="320.4" style="stroke: #000000; stroke-width: 0.8"/>
      </g>
     </g>
     <g id="text_5">
      <!-- 2 -->
      <g transform="translate(282.773295 334.998438)scale(0.1 -0.1)">
       <use xlink:href="#DejaVuSans-32"/>
      </g>
     </g>
    </g>
   </g>
   <g id="matplotlib.axis_2">
    <g id="ytick_1">
     <g id="line2d_6">
      <defs>
       <path id="me36ec9fc5e" d="M 0 0 
L -3.5 0 
" style="stroke: #000000; stroke-width: 0.8"/>
      </defs>
      <g>
       <use xlink:href="#me36ec9fc5e" x="45" y="282.348997" style="stroke: #000000; stroke-width: 0.8"/>
      </g>
     </g>
     <g id="text_6">
      <!-- $\mathdefault{10^{-3}}$ -->
      <g transform="translate(14.5 286.148215)scale(0.1 -0.1)">
       <defs>
        <path id="DejaVuSans-33" d="M 2597 2516 
Q 3050 2419 3304 2112 
Q 3559 1806 3559 1356 
Q 3559 666 3084 287 
Q 2609 -91 1734 -91 
Q 1441 -91 1130 -33 
Q 819 25 488 141 
L 488 750 
Q 750 597 1062 519 
Q 1375 441 1716 441 
Q 2309 441 2620 675 
Q 2931 909 2931 1356 
Q 2931 1769 2642 2001 
Q 2353 2234 1838 2234 
L 1294 2234 
L 1294 2753 
L 1863 2753 
Q 2328 2753 2575 2939 
Q 2822 3125 2822 3475 
Q 2822 3834 2567 4026 
Q 2313 4219 1838 4219 
Q 1578 4219 1281 4162 
Q 984 4106 628 3988 
L 628 4550 
Q 988 4650 1302 4700 
Q 1616 4750 1894 4750 
Q 2613 4750 3031 4423 
Q 3450 4097 3450 3541 
Q 3450 3153 3228 2886 
Q 3006 2619 2597 2516 
z
" transform="scale(0.015625)"/>
       </defs>
       <use xlink:href="#DejaVuSans-31" transform="translate(0 0.765625)"/>
       <use xlink:href="#DejaVuSans-30" transform="translate(63.623047 0.765625)"/>
       <use xlink:href="#DejaVuSans-2212" transform="translate(128.203125 39.046875)scale(0.7)"/>
       <use xlink:href="#DejaVuSans-33" transform="translate(186.855469 39.046875)scale(0.7)"/>
      </g>
     </g>
    </g>
    <g id="ytick_2">
     <g id="line2d_7">
      <g>
       <use xlink:href="#me36ec9fc5e" x="45" y="206.829554" style="stroke: #000000; stroke-width: 0.8"/>
      </g>
     </g>
     <g id="text_7">
      <!-- $\mathdefault{10^{-2}}$ -->
      <g transform="translate(14.5 210.628773)scale(0.1 -0.1)">
       <use xlink:href="#DejaVuSans-31" transform="translate(0 0.765625)"/>
       <use xlink:href="#DejaVuSans-30" transform="translate(63.623047 0.765625)"/>
       <use xlink:href="#DejaVuSans-2212" transform="translate(128.203125 39.046875)scale(0.7)"/>
       <use xlink:href="#DejaVuSans-32" transform="translate(186.855469 39.046875)scale(0.7)"/>
      </g>
     </g>
    </g>
    <g id="ytick_3">
     <g id="line2d_8">
      <g>
       <use xlink:href="#me36ec9fc5e" x="45" y="131.310111" style="stroke: #000000; stroke-width: 0.8"/>
      </g>
     </g>
     <g id="text_8">
      <!-- $\mathdefault{10^{-1}}$ -->
      <g transform="translate(14.5 135.10933)scale(0.1 -0.1)">
       <use xlink:href="#DejaVuSans-31" transform="translate(0 0.684375)"/>
       <use xlink:href="#DejaVuSans-30" transform="translate(63.623047 0.684375)"/>
       <use xlink:href="#DejaVuSans-2212" transform="translate(128.203125 38.965625)scale(0.7)"/>
       <use xlink:href="#DejaVuSans-31" transform="translate(186.855469 38.965625)scale(0.7)"/>
      </g>
     </g>
    </g>
    <g id="ytick_4">
     <g id="line2d_9">
      <g>
       <use xlink:href="#me36ec9fc5e" x="45" y="55.790668" style="stroke: #000000; stroke-width: 0.8"/>
      </g>
     </g>
     <g id="text_9">
      <!-- $\mathdefault{10^{0}}$ -->
      <g transform="translate(20.4 59.589887)scale(0.1 -0.1)">
       <use xlink:href="#DejaVuSans-31" transform="translate(0 0.765625)"/>
       <use xlink:href="#DejaVuSans-30" transform="translate(63.623047 0.765625)"/>
       <use xlink:href="#DejaVuSans-30" transform="translate(128.203125 39.046875)scale(0.7)"/>
      </g>
     </g>
    </g>
    <g id="ytick_5">
     <g id="line2d_10">
      <defs>
       <path id="m6d34dd093a" d="M 0 0 
L -2 0 
" style="stroke: #000000; stroke-width: 0.6"/>
      </defs>
      <g>
       <use xlink:href="#m6d34dd093a" x="45" y="312.401204" style="stroke: #000000; stroke-width: 0.6"/>
      </g>
     </g>
    </g>
    <g id="ytick_6">
     <g id="line2d_11">
      <g>
       <use xlink:href="#m6d34dd093a" x="45" y="305.082614" style="stroke: #000000; stroke-width: 0.6"/>
      </g>
     </g>
    </g>
    <g id="ytick_7">
     <g id="line2d_12">
      <g>
       <use xlink:href="#m6d34dd093a" x="45" y="299.102891" style="stroke: #000000; stroke-width: 0.6"/>
      </g>
     </g>
    </g>
    <g id="ytick_8">
     <g id="line2d_13">
      <g>
       <use xlink:href="#m6d34dd093a" x="45" y="294.047106" style="stroke: #000000; stroke-width: 0.6"/>
      </g>
     </g>
    </g>
    <g id="ytick_9">
     <g id="line2d_14">
      <g>
       <use xlink:href="#m6d34dd093a" x="45" y="289.667587" style="stroke: #000000; stroke-width: 0.6"/>
      </g>
     </g>
    </g>
    <g id="ytick_10">
     <g id="line2d_15">
      <g>
       <use xlink:href="#m6d34dd093a" x="45" y="285.804577" style="stroke: #000000; stroke-width: 0.6"/>
      </g>
     </g>
    </g>
    <g id="ytick_11">
     <g id="line2d_16">
      <g>
       <use xlink:href="#m6d34dd093a" x="45" y="259.615379" style="stroke: #000000; stroke-width: 0.6"/>
      </g>
     </g>
    </g>
    <g id="ytick_12">
     <g id="line2d_17">
      <g>
       <use xlink:href="#m6d34dd093a" x="45" y="246.317065" style="stroke: #000000; stroke-width: 0.6"/>
      </g>
     </g>
    </g>
    <g id="ytick_13">
     <g id="line2d_18">
      <g>
       <use xlink:href="#m6d34dd093a" x="45" y="236.881762" style="stroke: #000000; stroke-width: 0.6"/>
      </g>
     </g>
    </g>
    <g id="ytick_14">
     <g id="line2d_19">
      <g>
       <use xlink:href="#m6d34dd093a" x="45" y="229.563171" style="stroke: #000000; stroke-width: 0.6"/>
      </g>
     </g>
    </g>
    <g id="ytick_15">
     <g id="line2d_20">
      <g>
       <use xlink:href="#m6d34dd093a" x="45" y="223.583448" style="stroke: #000000; stroke-width: 0.6"/>
      </g>
     </g>
    </g>
    <g id="ytick_16">
     <g id="line2d_21">
      <g>
       <use xlink:href="#m6d34dd093a" x="45" y="218.527664" style="stroke: #000000; stroke-width: 0.6"/>
      </g>
     </g>
    </g>
    <g id="ytick_17">
     <g id="line2d_22">
      <g>
       <use xlink:href="#m6d34dd093a" x="45" y="214.148144" style="stroke: #000000; stroke-width: 0.6"/>
      </g>
     </g>
    </g>
    <g id="ytick_18">
     <g id="line2d_23">
      <g>
       <use xlink:href="#m6d34dd093a" x="45" y="210.285134" style="stroke: #000000; stroke-width: 0.6"/>
      </g>
     </g>
    </g>
    <g id="ytick_19">
     <g id="line2d_24">
      <g>
       <use xlink:href="#m6d34dd093a" x="45" y="184.095936" style="stroke: #000000; stroke-width: 0.6"/>
      </g>
     </g>
    </g>
    <g id="ytick_20">
     <g id="line2d_25">
      <g>
       <use xlink:href="#m6d34dd093a" x="45" y="170.797623" style="stroke: #000000; stroke-width: 0.6"/>
      </g>
     </g>
    </g>
    <g id="ytick_21">
     <g id="line2d_26">
      <g>
       <use xlink:href="#m6d34dd093a" x="45" y="161.362319" style="stroke: #000000; stroke-width: 0.6"/>
      </g>
     </g>
    </g>
    <g id="ytick_22">
     <g id="line2d_27">
      <g>
       <use xlink:href="#m6d34dd093a" x="45" y="154.043729" style="stroke: #000000; stroke-width: 0.6"/>
      </g>
     </g>
    </g>
    <g id="ytick_23">
     <g id="line2d_28">
      <g>
       <use xlink:href="#m6d34dd093a" x="45" y="148.064005" style="stroke: #000000; stroke-width: 0.6"/>
      </g>
     </g>
    </g>
    <g id="ytick_24">
     <g id="line2d_29">
      <g>
       <use xlink:href="#m6d34dd093a" x="45" y="143.008221" style="stroke: #000000; stroke-width: 0.6"/>
      </g>
     </g>
    </g>
    <g id="ytick_25">
     <g id="line2d_30">
      <g>
       <use xlink:href="#m6d34dd093a" x="45" y="138.628701" style="stroke: #000000; stroke-width: 0.6"/>
      </g>
     </g>
    </g>
    <g id="ytick_26">
     <g id="line2d_31">
      <g>
       <use xlink:href="#m6d34dd093a" x="45" y="134.765691" style="stroke: #000000; stroke-width: 0.6"/>
      </g>
     </g>
    </g>
    <g id="ytick_27">
     <g id="line2d_32">
      <g>
       <use xlink:href="#m6d34dd093a" x="45" y="108.576494" style="stroke: #000000; stroke-width: 0.6"/>
      </g>
     </g>
    </g>
    <g id="ytick_28">
     <g id="line2d_33">
      <g>
       <use xlink:href="#m6d34dd093a" x="45" y="95.27818" style="stroke: #000000; stroke-width: 0.6"/>
      </g>
     </g>
    </g>
    <g id="ytick_29">
     <g id="line2d_34">
      <g>
       <use xlink:href="#m6d34dd093a" x="45" y="85.842876" style="stroke: #000000; stroke-width: 0.6"/>
      </g>
     </g>
    </g>
    <g id="ytick_30">
     <g id="line2d_35">
      <g>
       <use xlink:href="#m6d34dd093a" x="45" y="78.524286" style="stroke: #000000; stroke-width: 0.6"/>
      </g>
     </g>
    </g>
    <g id="ytick_31">
     <g id="line2d_36">
      <g>
       <use xlink:href="#m6d34dd093a" x="45" y="72.544562" style="stroke: #000000; stroke-width: 0.6"/>
      </g>
     </g>
    </g>
    <g id="ytick_32">
     <g id="line2d_37">
      <g>
       <use xlink:href="#m6d34dd093a" x="45" y="67.488778" style="stroke: #000000; stroke-width: 0.6"/>
      </g>
     </g>
    </g>
    <g id="ytick_33">
     <g id="line2d_38">
      <g>
       <use xlink:href="#m6d34dd093a" x="45" y="63.109259" style="stroke: #000000; stroke-width: 0.6"/>
      </g>
     </g>
    </g>
    <g id="ytick_34">
     <g id="line2d_39">
      <g>
       <use xlink:href="#m6d34dd093a" x="45" y="59.246249" style="stroke: #000000; stroke-width: 0.6"/>
      </g>
     </g>
    </g>
   </g>
   <g id="line2d_40">
    <path d="M 83.045455 94.639969 
L 83.553997 99.00605 
L 84.571087 110.147265 
L 85.588177 128.345884 
L 86.09672 144.193603 
L 86.605262 165.970851 
L 87.11381 271.190773 
L 87.622352 156.43065 
L 88.639442 127.146023 
L 89.656533 111.763046 
L 90.673617 101.832683 
L 92.199249 92.111635 
L 94.233424 84.530864 
L 94.741966 83.653868 
L 95.250514 82.023376 
L 96.267605 80.59308 
L 96.776147 79.932522 
L 97.284689 79.780861 
L 97.793237 79.184366 
L 98.301779 79.74599 
L 98.810322 79.232093 
L 99.318864 80.015209 
L 99.827406 80.199459 
L 100.335954 80.580697 
L 100.844496 81.635887 
L 101.353038 82.365978 
L 101.861587 83.697775 
L 102.370129 84.71165 
L 102.878671 86.033551 
L 104.404309 92.407717 
L 105.929942 101.192155 
L 106.947026 110.848862 
L 107.964117 123.831575 
L 108.472665 133.396707 
L 108.981207 150.016213 
L 109.489749 178.543931 
L 109.998297 185.257469 
L 110.506839 152.852194 
L 111.015382 135.62018 
L 111.523924 124.724017 
L 112.541014 109.652963 
L 114.575189 93.133342 
L 116.609363 83.299825 
L 117.117905 82.098885 
L 118.643538 77.633042 
L 119.15208 76.861091 
L 119.660628 75.881492 
L 120.16917 75.78892 
L 121.186261 74.958365 
L 121.694803 74.739882 
L 122.203351 74.386432 
L 123.220435 74.615732 
L 124.237526 76.01124 
L 124.746074 76.345045 
L 125.254616 77.500653 
L 125.763158 78.2066 
L 126.271706 79.693444 
L 126.780249 80.807204 
L 127.797333 84.618822 
L 128.305875 86.344558 
L 129.322965 91.518188 
L 129.831507 94.022017 
L 130.340056 97.270344 
L 131.35714 106.20628 
L 131.865688 110.049066 
L 132.882779 124.476357 
L 133.899866 146.84582 
L 134.408408 163.29 
L 134.916953 213.224495 
L 135.425495 182.410961 
L 135.934037 159.615355 
L 136.442583 143.469762 
L 136.951125 134.244598 
L 137.968215 122.900247 
L 138.476757 119.362367 
L 138.985302 118.083325 
L 139.493845 114.765078 
L 140.002393 112.980151 
L 140.510938 110.443608 
L 141.01948 109.669257 
L 141.528025 109.271051 
L 142.03657 109.322757 
L 142.545113 108.404649 
L 143.053658 108.991125 
L 143.5622 109.337892 
L 144.070742 110.609451 
L 144.579287 111.308765 
L 145.087829 112.893241 
L 145.596375 113.911058 
L 146.10492 115.797654 
L 146.613462 118.152743 
L 147.630549 123.640462 
L 148.139097 129.727116 
L 148.647643 132.593602 
L 149.156185 140.18582 
L 150.173275 151.35874 
L 151.190362 184.482807 
L 151.698904 233.624096 
L 152.207453 209.992803 
L 152.715998 178.56941 
L 153.22454 157.50876 
L 154.24163 141.57696 
L 154.750172 138.872739 
L 155.258718 131.862104 
L 155.76726 131.09525 
L 156.275802 127.706647 
L 156.784347 125.339455 
L 157.292889 123.697373 
L 157.801434 122.632996 
L 158.30998 122.321778 
L 158.818522 124.863177 
L 159.327067 124.347481 
L 159.835611 126.73139 
L 160.344157 128.352986 
L 160.852701 132.203889 
L 161.361246 132.977916 
L 161.86979 140.839918 
L 162.378333 144.045517 
L 162.886877 152.416496 
L 163.395422 163.72089 
L 164.412507 212.978884 
L 164.92105 202.801615 
L 165.429595 173.402077 
L 165.938139 155.222262 
L 166.446683 150.054251 
L 166.955226 141.609715 
L 167.463772 135.855889 
L 167.972315 134.251425 
L 168.989406 126.760836 
L 169.497951 125.424107 
L 170.006494 125.327695 
L 170.515038 126.131223 
L 171.023582 125.695388 
L 171.532127 126.713257 
L 172.549211 132.179609 
L 174.074844 153.174094 
L 174.583387 176.320193 
L 175.091932 259.71487 
L 175.600476 184.489217 
L 176.10902 160.030484 
L 176.617566 142.35654 
L 177.126111 132.256092 
L 177.634655 124.760952 
L 178.651743 114.189006 
L 179.160287 109.658985 
L 180.177375 103.669437 
L 180.685922 100.74737 
L 181.194466 98.825931 
L 182.720098 96.558212 
L 183.228642 96.516939 
L 183.737186 96.694251 
L 184.24573 97.471268 
L 184.754271 99.490955 
L 185.771359 102.670505 
L 186.279903 106.187998 
L 186.788447 110.713599 
L 187.296991 116.745878 
L 187.805536 124.18348 
L 188.31408 135.222071 
L 188.822626 150.661885 
L 189.33117 182.537234 
L 189.839714 190.661257 
L 190.348259 149.985264 
L 190.856803 130.495564 
L 191.365347 120.389672 
L 191.873891 113.103217 
L 193.39952 98.793541 
L 194.416608 93.882221 
L 194.925152 92.364981 
L 195.433696 92.304663 
L 195.942241 91.610841 
L 196.959331 93.128154 
L 197.97642 99.101298 
L 198.484963 102.964785 
L 198.993507 107.69051 
L 199.502051 114.885222 
L 200.010596 125.784847 
L 200.51914 147.010559 
L 201.027686 198.21316 
L 201.53623 161.725342 
L 202.044775 135.511934 
L 202.553319 121.55021 
L 203.061862 112.350438 
L 204.078951 101.209405 
L 205.096036 94.246867 
L 206.113124 91.982079 
L 206.621668 92.003602 
L 207.130212 92.365052 
L 207.638755 93.926372 
L 208.655844 98.38117 
L 209.672935 107.487917 
L 210.181478 115.633536 
L 210.690023 126.815831 
L 211.198569 143.063161 
L 211.707111 186.848511 
L 212.215656 168.324853 
L 212.724198 135.416443 
L 213.741285 109.774135 
L 214.758373 96.397909 
L 215.77546 86.51269 
L 217.301096 77.871256 
L 218.826728 72.277732 
L 219.843815 69.851272 
L 220.35236 69.432709 
L 220.860903 68.545267 
L 221.369445 68.62084 
L 221.87799 68.540355 
L 222.386532 68.678945 
L 222.895077 68.682346 
L 223.403622 69.027806 
L 224.929252 71.693443 
L 225.946345 74.765089 
L 226.963433 78.885002 
L 227.98052 84.477793 
L 228.489065 87.677016 
L 230.014695 103.027906 
L 230.523237 110.650709 
L 231.031782 120.474117 
L 231.540327 134.531394 
L 232.557414 184.959493 
L 233.065957 144.358831 
L 233.574505 125.611175 
L 234.08305 113.179166 
L 235.100137 98.138237 
L 236.117228 88.027475 
L 237.134312 80.808383 
L 238.151402 74.82492 
L 240.185583 67.296654 
L 240.694125 65.695085 
L 241.202667 64.562896 
L 241.711209 63.761086 
L 242.219751 62.567583 
L 242.7283 61.668311 
L 244.253932 60.067235 
L 244.762474 59.988587 
L 245.271016 59.745484 
L 245.779559 59.850328 
L 246.796649 59.796629 
L 247.305191 60.112652 
L 249.339366 62.659493 
L 250.86501 65.310281 
L 251.882095 68.358035 
L 252.899185 71.437993 
L 254.93336 81.189231 
L 255.950444 87.707117 
L 256.967534 96.671836 
L 257.984618 109.282571 
L 259.001709 127.108332 
L 259.510251 147.462231 
L 260.018793 193.147162 
L 260.527341 177.083685 
L 261.035883 143.726932 
L 261.544426 128.118326 
L 262.052974 117.722053 
L 263.070064 102.448106 
L 264.595697 90.428961 
L 265.104239 87.169755 
L 265.612781 85.153597 
L 266.121329 82.322518 
L 267.138419 78.369255 
L 269.172594 73.661434 
L 269.681136 72.556098 
L 270.189678 71.818311 
L 271.715311 70.940178 
L 272.223853 70.466575 
L 272.732401 70.529139 
L 273.240943 70.437693 
L 273.749486 70.684291 
L 274.766576 71.669096 
L 275.275124 72.283616 
L 275.783666 72.464834 
L 276.292208 73.685324 
L 276.800757 74.202168 
L 279.343473 80.811976 
L 280.869106 87.198138 
L 281.88619 92.453494 
L 283.920371 107.816624 
L 284.428913 113.071966 
L 285.446003 129.504289 
L 285.954545 139.428924 
L 285.954545 139.428924 
" clip-path="url(#paddccc8161)" style="fill: none; stroke: #1f77b4; stroke-width: 1.5; stroke-linecap: square"/>
   </g>
   <g id="line2d_41">
    <path d="M 57.681818 72.819575 
L 58.317496 68.905178 
L 58.953174 69.007239 
L 59.588863 67.764147 
L 60.224541 67.17294 
L 60.860219 67.468573 
L 61.495896 66.356951 
L 62.131574 64.251269 
L 62.767264 63.318909 
L 63.402942 60.799787 
L 64.038619 61.152242 
L 64.674309 60.605709 
L 65.309987 57.538176 
L 65.945664 58.055659 
L 66.581342 56.967471 
L 67.21702 58.673147 
L 67.852697 58.234839 
L 68.488375 56.688619 
L 69.124053 58.359108 
L 69.759743 58.31352 
L 70.39542 57.331586 
L 71.031098 58.055961 
L 71.666776 59.0203 
L 72.302453 57.04022 
L 72.938143 57.14594 
L 73.573821 58.851987 
L 74.209498 60.182627 
L 74.845188 62.506161 
L 76.116544 62.24765 
L 76.752221 63.029887 
L 78.023577 67.916007 
L 78.659254 67.423525 
L 79.294932 72.84598 
L 79.930622 71.21222 
L 80.566299 76.541968 
L 81.201977 78.060673 
L 81.837655 81.906373 
L 82.473333 84.208216 
L 83.109022 90.04159 
L 83.7447 89.713122 
L 84.380384 98.789168 
L 85.016061 99.784325 
L 85.651745 105.111899 
L 86.923101 159.268031 
L 87.558784 141.688433 
L 88.194462 174.608173 
L 88.83014 133.159596 
L 89.465823 130.507679 
L 90.101501 110.542035 
L 90.737185 105.690435 
L 91.372862 107.93253 
L 92.644224 99.000811 
L 93.279902 93.131488 
L 93.915579 96.860285 
L 94.551263 90.497953 
L 95.186941 85.620267 
L 95.822624 86.52838 
L 96.458302 86.744426 
L 97.09398 86.468441 
L 97.729663 81.937836 
L 98.365347 85.99007 
L 99.001025 82.667088 
L 99.636709 81.883966 
L 100.272386 83.605765 
L 100.90807 91.131726 
L 101.543748 92.123949 
L 102.179425 94.267663 
L 102.815109 94.97071 
L 103.450781 98.801144 
L 104.086458 96.829093 
L 104.722142 97.945138 
L 105.35782 110.04161 
L 105.993504 107.42671 
L 106.629181 112.401677 
L 107.264859 124.922956 
L 107.900543 150.991141 
L 108.536226 264.665467 
L 109.171904 276.252691 
L 109.807588 169.058866 
L 110.443266 127.900798 
L 111.078949 125.913477 
L 111.714627 116.382174 
L 112.350305 100.164355 
L 112.985988 99.308763 
L 113.621666 89.347834 
L 114.257344 85.7658 
L 114.893027 85.519011 
L 115.528705 82.655029 
L 116.164389 80.737363 
L 117.435744 77.966469 
L 118.071428 76.209878 
L 119.342783 71.488121 
L 119.978467 74.026486 
L 120.614145 73.947444 
L 121.249829 73.116082 
L 121.885506 73.689102 
L 122.521184 72.003003 
L 123.156868 70.799243 
L 123.792545 71.223214 
L 124.428223 72.829755 
L 125.063907 77.387769 
L 126.335268 78.648379 
L 126.970946 80.387899 
L 127.606623 81.594461 
L 128.242307 88.194862 
L 128.877991 85.964539 
L 129.513669 94.453775 
L 130.149352 98.080393 
L 130.78503 104.616842 
L 131.420714 98.702503 
L 132.056391 120.619684 
L 132.692069 111.496623 
L 133.963431 147.835183 
L 134.599111 148.074581 
L 135.234792 201.9649 
L 135.87047 209.900641 
L 137.141831 119.570961 
L 137.777512 129.530209 
L 138.413193 120.887934 
L 139.684551 113.190471 
L 140.320232 112.121367 
L 140.955909 104.551254 
L 141.59159 106.330968 
L 142.227271 115.295226 
L 142.862951 112.642419 
L 144.13431 101.382166 
L 144.769991 109.886524 
L 145.405671 105.653296 
L 146.041349 122.136731 
L 146.67703 110.272457 
L 147.31271 118.385354 
L 147.948391 120.369108 
L 148.584072 130.566323 
L 149.219749 156.836101 
L 149.85543 143.334093 
L 150.491111 175.827867 
L 151.126789 239.617948 
L 151.762469 177.162065 
L 152.39815 196.163955 
L 153.033831 204.905763 
L 153.669511 146.368024 
L 154.305195 160.287942 
L 154.940876 133.861732 
L 155.576557 142.910536 
L 156.212234 149.834845 
L 156.847915 125.862049 
L 157.483596 128.343354 
L 158.119276 123.949124 
L 158.754957 117.895011 
L 159.390635 122.720701 
L 160.026315 121.418171 
L 160.661995 138.734723 
L 161.297675 182.726248 
L 161.933355 197.059872 
L 162.569035 307.8 
L 163.204716 169.902861 
L 163.840395 169.838146 
L 164.476068 142.457181 
L 165.111749 134.631739 
L 165.747428 133.894171 
L 166.383109 122.995375 
L 167.018788 123.868515 
L 167.654469 135.266848 
L 168.29015 140.242899 
L 168.925829 120.344079 
L 169.561514 119.630666 
L 170.197195 130.966534 
L 170.832874 118.490596 
L 171.468555 120.756475 
L 172.104235 142.823072 
L 172.739914 123.349202 
L 173.375594 150.018141 
L 174.011274 221.352993 
L 174.64696 279.425086 
L 175.28264 166.08732 
L 175.91832 177.304407 
L 176.554 135.886217 
L 177.82536 114.197803 
L 179.09672 99.503619 
L 179.732393 106.900967 
L 180.368073 98.123689 
L 181.003753 98.805956 
L 181.639433 98.617688 
L 182.275114 93.426151 
L 182.910794 97.222137 
L 183.546474 89.202482 
L 184.182154 92.624913 
L 184.817839 97.573635 
L 185.453519 93.79238 
L 186.089199 106.100899 
L 186.724879 106.457627 
L 187.360559 110.681832 
L 187.996239 126.731328 
L 189.2676 148.387954 
L 189.903285 149.547651 
L 190.538964 186.03016 
L 191.174644 156.855886 
L 191.810325 117.156909 
L 192.446005 108.581162 
L 193.081685 115.457743 
L 193.717365 105.358041 
L 194.353045 99.692797 
L 194.98873 98.301502 
L 195.62441 92.357669 
L 196.26009 95.086245 
L 196.895771 104.891215 
L 197.53145 99.891341 
L 198.167131 105.875708 
L 198.802811 106.457114 
L 199.438491 118.211532 
L 200.074164 145.331232 
L 200.709844 166.580436 
L 201.345524 151.614908 
L 201.981204 119.555735 
L 202.616884 121.759385 
L 203.252564 100.92714 
L 203.888245 100.918304 
L 204.523924 95.21584 
L 205.159609 88.089157 
L 205.79529 84.824892 
L 206.430969 88.715513 
L 207.06665 89.704325 
L 207.702329 93.581858 
L 208.33801 94.191854 
L 208.973691 100.290301 
L 209.60937 101.661207 
L 210.245049 105.645893 
L 210.88073 129.384041 
L 211.51641 121.08201 
L 212.152088 147.339677 
L 212.787769 137.157301 
L 213.42345 124.308464 
L 214.05913 118.41661 
L 214.694811 102.925453 
L 215.966169 88.672725 
L 216.60185 89.591362 
L 217.237528 80.36503 
L 217.873208 82.28884 
L 218.508889 77.189705 
L 219.14457 75.72038 
L 219.780251 75.996854 
L 220.415928 72.260167 
L 221.051609 70.590173 
L 221.68729 71.400772 
L 222.322967 74.170065 
L 222.958648 70.397929 
L 223.594329 73.777969 
L 224.230009 71.572433 
L 224.86569 77.450172 
L 226.137049 80.373509 
L 226.772729 84.886597 
L 227.408407 86.889304 
L 228.044088 94.197344 
L 228.679768 92.756835 
L 229.315449 103.246003 
L 229.95113 118.746314 
L 230.586807 149.302594 
L 231.222488 185.6516 
L 231.858169 190.184274 
L 232.493847 124.442323 
L 233.129527 120.480627 
L 233.765208 107.779169 
L 234.400889 103.298237 
L 235.036569 91.533633 
L 235.672253 82.575 
L 236.307931 80.268591 
L 236.943615 78.759979 
L 237.579292 72.719604 
L 238.214976 71.55476 
L 238.850654 66.117904 
L 239.486331 68.095492 
L 240.122015 64.904891 
L 240.757693 64.6396 
L 242.029054 59.533689 
L 242.664732 57.46836 
L 243.300416 58.121259 
L 243.936093 56.175521 
L 244.571771 57.107263 
L 245.207455 56.235874 
L 245.843132 55.8 
L 246.47881 55.834263 
L 247.114494 58.47394 
L 247.750171 56.341254 
L 248.385855 57.433767 
L 249.021533 60.110934 
L 249.657211 61.081302 
L 250.292894 62.950862 
L 250.928572 62.080421 
L 251.56425 65.845557 
L 252.199933 64.884793 
L 252.835611 67.038576 
L 253.471295 72.282322 
L 254.106973 71.801379 
L 254.74265 75.654292 
L 255.378334 77.212756 
L 256.014012 80.384291 
L 256.649689 91.273613 
L 257.285373 87.654419 
L 257.921051 93.37211 
L 258.556734 102.73512 
L 259.192412 126.299962 
L 259.82809 135.579423 
L 260.463774 165.486012 
L 261.099451 187.523058 
L 261.735129 170.09721 
L 262.370813 133.757844 
L 263.00649 124.864566 
L 263.642174 104.231474 
L 264.277852 102.767239 
L 264.913529 97.395148 
L 265.549213 87.405369 
L 266.184897 83.772178 
L 266.820575 82.84905 
L 267.456258 85.069557 
L 268.091936 77.303298 
L 268.72762 75.99614 
L 269.363297 79.211501 
L 269.998975 77.994234 
L 270.634659 78.014974 
L 271.270337 72.718003 
L 271.906014 72.427212 
L 272.541698 75.835394 
L 273.177376 76.980882 
L 273.813059 76.408686 
L 274.448737 75.541865 
L 275.084415 76.750013 
L 275.720098 79.698077 
L 276.355776 75.719027 
L 276.991454 77.576714 
L 277.627138 83.183988 
L 278.262815 80.056893 
L 278.898499 82.542298 
L 279.534177 90.41846 
L 280.169854 91.53119 
L 280.805538 95.07507 
L 281.441222 94.882814 
L 282.076899 101.746659 
L 282.712583 115.48845 
L 283.348261 108.717468 
L 283.983945 122.809728 
L 284.619622 144.557286 
L 285.2553 136.405771 
L 285.890984 164.174818 
L 286.526655 260.169245 
L 287.162333 152.102204 
L 287.798011 135.233569 
L 289.069378 124.25681 
L 289.705056 103.364537 
L 290.340734 101.124723 
L 290.976411 105.377718 
L 291.612101 99.636362 
L 292.247779 88.434833 
L 292.883456 89.089072 
L 293.519146 87.19711 
L 294.154824 90.048068 
L 295.426179 85.651426 
L 296.061857 84.975514 
L 296.697535 86.438049 
L 297.333212 83.045631 
L 297.96889 82.858303 
L 298.60458 83.801087 
L 299.240257 83.082797 
L 299.875935 85.690528 
L 300.511613 83.809542 
L 301.14729 84.258397 
L 301.78298 89.248059 
L 302.418658 93.064292 
L 303.054336 87.685106 
L 303.690025 90.855771 
L 304.325703 97.139921 
L 304.961381 91.874474 
L 305.597058 103.123753 
L 306.232736 99.305826 
L 306.868426 104.215929 
L 307.504104 122.294076 
L 308.139781 112.873037 
L 308.775471 144.838811 
L 309.411149 152.139636 
L 310.046826 160.870512 
L 310.682504 190.244425 
L 311.318182 166.429803 
L 311.318182 166.429803 
" clip-path="url(#paddccc8161)" style="fill: none; stroke: #ff7f0e; stroke-width: 1.5; stroke-linecap: square"/>
   </g>
   <g id="patch_3">
    <path d="M 45 320.4 
L 45 43.2 
" style="fill: none; stroke: #000000; stroke-width: 0.8; stroke-linejoin: miter; stroke-linecap: square"/>
   </g>
   <g id="patch_4">
    <path d="M 324 320.4 
L 324 43.2 
" style="fill: none; stroke: #000000; stroke-width: 0.8; stroke-linejoin: miter; stroke-linecap: square"/>
   </g>
   <g id="patch_5">
    <path d="M 45 320.4 
L 324 320.4 
" style="fill: none; stroke: #000000; stroke-width: 0.8; stroke-linejoin: miter; stroke-linecap: square"/>
   </g>
   <g id="patch_6">
    <path d="M 45 43.2 
L 324 43.2 
" style="fill: none; stroke: #000000; stroke-width: 0.8; stroke-linejoin: miter; stroke-linecap: square"/>
   </g>
   <g id="text_10">
    <!-- Prediction Error -->
    <g transform="translate(138.166875 37.2)scale(0.12 -0.12)">
     <defs>
      <path id="DejaVuSans-50" d="M 1259 4147 
L 1259 2394 
L 2053 2394 
Q 2494 2394 2734 2622 
Q 2975 2850 2975 3272 
Q 2975 3691 2734 3919 
Q 2494 4147 2053 4147 
L 1259 4147 
z
M 628 4666 
L 2053 4666 
Q 2838 4666 3239 4311 
Q 3641 3956 3641 3272 
Q 3641 2581 3239 2228 
Q 2838 1875 2053 1875 
L 1259 1875 
L 1259 0 
L 628 0 
L 628 4666 
z
" transform="scale(0.015625)"/>
      <path id="DejaVuSans-72" d="M 2631 2963 
Q 2534 3019 2420 3045 
Q 2306 3072 2169 3072 
Q 1681 3072 1420 2755 
Q 1159 2438 1159 1844 
L 1159 0 
L 581 0 
L 581 3500 
L 1159 3500 
L 1159 2956 
Q 1341 3275 1631 3429 
Q 1922 3584 2338 3584 
Q 2397 3584 2469 3576 
Q 2541 3569 2628 3553 
L 2631 2963 
z
" transform="scale(0.015625)"/>
      <path id="DejaVuSans-65" d="M 3597 1894 
L 3597 1613 
L 953 1613 
Q 991 1019 1311 708 
Q 1631 397 2203 397 
Q 2534 397 2845 478 
Q 3156 559 3463 722 
L 3463 178 
Q 3153 47 2828 -22 
Q 2503 -91 2169 -91 
Q 1331 -91 842 396 
Q 353 884 353 1716 
Q 353 2575 817 3079 
Q 1281 3584 2069 3584 
Q 2775 3584 3186 3129 
Q 3597 2675 3597 1894 
z
M 3022 2063 
Q 3016 2534 2758 2815 
Q 2500 3097 2075 3097 
Q 1594 3097 1305 2825 
Q 1016 2553 972 2059 
L 3022 2063 
z
" transform="scale(0.015625)"/>
      <path id="DejaVuSans-64" d="M 2906 2969 
L 2906 4863 
L 3481 4863 
L 3481 0 
L 2906 0 
L 2906 525 
Q 2725 213 2448 61 
Q 2172 -91 1784 -91 
Q 1150 -91 751 415 
Q 353 922 353 1747 
Q 353 2572 751 3078 
Q 1150 3584 1784 3584 
Q 2172 3584 2448 3432 
Q 2725 3281 2906 2969 
z
M 947 1747 
Q 947 1113 1208 752 
Q 1469 391 1925 391 
Q 2381 391 2643 752 
Q 2906 1113 2906 1747 
Q 2906 2381 2643 2742 
Q 2381 3103 1925 3103 
Q 1469 3103 1208 2742 
Q 947 2381 947 1747 
z
" transform="scale(0.015625)"/>
      <path id="DejaVuSans-69" d="M 603 3500 
L 1178 3500 
L 1178 0 
L 603 0 
L 603 3500 
z
M 603 4863 
L 1178 4863 
L 1178 4134 
L 603 4134 
L 603 4863 
z
" transform="scale(0.015625)"/>
      <path id="DejaVuSans-63" d="M 3122 3366 
L 3122 2828 
Q 2878 2963 2633 3030 
Q 2388 3097 2138 3097 
Q 1578 3097 1268 2742 
Q 959 2388 959 1747 
Q 959 1106 1268 751 
Q 1578 397 2138 397 
Q 2388 397 2633 464 
Q 2878 531 3122 666 
L 3122 134 
Q 2881 22 2623 -34 
Q 2366 -91 2075 -91 
Q 1284 -91 818 406 
Q 353 903 353 1747 
Q 353 2603 823 3093 
Q 1294 3584 2113 3584 
Q 2378 3584 2631 3529 
Q 2884 3475 3122 3366 
z
" transform="scale(0.015625)"/>
      <path id="DejaVuSans-74" d="M 1172 4494 
L 1172 3500 
L 2356 3500 
L 2356 3053 
L 1172 3053 
L 1172 1153 
Q 1172 725 1289 603 
Q 1406 481 1766 481 
L 2356 481 
L 2356 0 
L 1766 0 
Q 1100 0 847 248 
Q 594 497 594 1153 
L 594 3053 
L 172 3053 
L 172 3500 
L 594 3500 
L 594 4494 
L 1172 4494 
z
" transform="scale(0.015625)"/>
      <path id="DejaVuSans-6f" d="M 1959 3097 
Q 1497 3097 1228 2736 
Q 959 2375 959 1747 
Q 959 1119 1226 758 
Q 1494 397 1959 397 
Q 2419 397 2687 759 
Q 2956 1122 2956 1747 
Q 2956 2369 2687 2733 
Q 2419 3097 1959 3097 
z
M 1959 3584 
Q 2709 3584 3137 3096 
Q 3566 2609 3566 1747 
Q 3566 888 3137 398 
Q 2709 -91 1959 -91 
Q 1206 -91 779 398 
Q 353 888 353 1747 
Q 353 2609 779 3096 
Q 1206 3584 1959 3584 
z
" transform="scale(0.015625)"/>
      <path id="DejaVuSans-6e" d="M 3513 2113 
L 3513 0 
L 2938 0 
L 2938 2094 
Q 2938 2591 2744 2837 
Q 2550 3084 2163 3084 
Q 1697 3084 1428 2787 
Q 1159 2491 1159 1978 
L 1159 0 
L 581 0 
L 581 3500 
L 1159 3500 
L 1159 2956 
Q 1366 3272 1645 3428 
Q 1925 3584 2291 3584 
Q 2894 3584 3203 3211 
Q 3513 2838 3513 2113 
z
" transform="scale(0.015625)"/>
      <path id="DejaVuSans-20" transform="scale(0.015625)"/>
      <path id="DejaVuSans-45" d="M 628 4666 
L 3578 4666 
L 3578 4134 
L 1259 4134 
L 1259 2753 
L 3481 2753 
L 3481 2222 
L 1259 2222 
L 1259 531 
L 3634 531 
L 3634 0 
L 628 0 
L 628 4666 
z
" transform="scale(0.015625)"/>
     </defs>
     <use xlink:href="#DejaVuSans-50"/>
     <use xlink:href="#DejaVuSans-72" x="58.552734"/>
     <use xlink:href="#DejaVuSans-65" x="97.416016"/>
     <use xlink:href="#DejaVuSans-64" x="158.939453"/>
     <use xlink:href="#DejaVuSans-69" x="222.416016"/>
     <use xlink:href="#DejaVuSans-63" x="250.199219"/>
     <use xlink:href="#DejaVuSans-74" x="305.179688"/>
     <use xlink:href="#DejaVuSans-69" x="344.388672"/>
     <use xlink:href="#DejaVuSans-6f" x="372.171875"/>
     <use xlink:href="#DejaVuSans-6e" x="433.353516"/>
     <use xlink:href="#DejaVuSans-20" x="496.732422"/>
     <use xlink:href="#DejaVuSans-45" x="528.519531"/>
     <use xlink:href="#DejaVuSans-72" x="591.703125"/>
     <use xlink:href="#DejaVuSans-72" x="631.066406"/>
     <use xlink:href="#DejaVuSans-6f" x="669.929688"/>
     <use xlink:href="#DejaVuSans-72" x="731.111328"/>
    </g>
   </g>
   <g id="legend_1">
    <g id="patch_7">
     <path d="M 52 315.4 
L 134.657813 315.4 
Q 136.657813 315.4 136.657813 313.4 
L 136.657813 285.04375 
Q 136.657813 283.04375 134.657813 283.04375 
L 52 283.04375 
Q 50 283.04375 50 285.04375 
L 50 313.4 
Q 50 315.4 52 315.4 
z
" style="fill: #ffffff; opacity: 0.8; stroke: #cccccc; stroke-linejoin: miter"/>
    </g>
    <g id="line2d_42">
     <path d="M 54 291.142187 
L 64 291.142187 
L 74 291.142187 
" style="fill: none; stroke: #1f77b4; stroke-width: 1.5; stroke-linecap: square"/>
    </g>
    <g id="text_11">
     <!-- train error -->
     <g transform="translate(82 294.642187)scale(0.1 -0.1)">
      <defs>
       <path id="DejaVuSans-61" d="M 2194 1759 
Q 1497 1759 1228 1600 
Q 959 1441 959 1056 
Q 959 750 1161 570 
Q 1363 391 1709 391 
Q 2188 391 2477 730 
Q 2766 1069 2766 1631 
L 2766 1759 
L 2194 1759 
z
M 3341 1997 
L 3341 0 
L 2766 0 
L 2766 531 
Q 2569 213 2275 61 
Q 1981 -91 1556 -91 
Q 1019 -91 701 211 
Q 384 513 384 1019 
Q 384 1609 779 1909 
Q 1175 2209 1959 2209 
L 2766 2209 
L 2766 2266 
Q 2766 2663 2505 2880 
Q 2244 3097 1772 3097 
Q 1472 3097 1187 3025 
Q 903 2953 641 2809 
L 641 3341 
Q 956 3463 1253 3523 
Q 1550 3584 1831 3584 
Q 2591 3584 2966 3190 
Q 3341 2797 3341 1997 
z
" transform="scale(0.015625)"/>
      </defs>
      <use xlink:href="#DejaVuSans-74"/>
      <use xlink:href="#DejaVuSans-72" x="39.208984"/>
      <use xlink:href="#DejaVuSans-61" x="80.322266"/>
      <use xlink:href="#DejaVuSans-69" x="141.601562"/>
      <use xlink:href="#DejaVuSans-6e" x="169.384766"/>
      <use xlink:href="#DejaVuSans-20" x="232.763672"/>
      <use xlink:href="#DejaVuSans-65" x="264.550781"/>
      <use xlink:href="#DejaVuSans-72" x="326.074219"/>
      <use xlink:href="#DejaVuSans-72" x="365.4375"/>
      <use xlink:href="#DejaVuSans-6f" x="404.300781"/>
      <use xlink:href="#DejaVuSans-72" x="465.482422"/>
     </g>
    </g>
    <g id="line2d_43">
     <path d="M 54 305.820312 
L 64 305.820312 
L 74 305.820312 
" style="fill: none; stroke: #ff7f0e; stroke-width: 1.5; stroke-linecap: square"/>
    </g>
    <g id="text_12">
     <!-- test error -->
     <g transform="translate(82 309.320312)scale(0.1 -0.1)">
      <defs>
       <path id="DejaVuSans-73" d="M 2834 3397 
L 2834 2853 
Q 2591 2978 2328 3040 
Q 2066 3103 1784 3103 
Q 1356 3103 1142 2972 
Q 928 2841 928 2578 
Q 928 2378 1081 2264 
Q 1234 2150 1697 2047 
L 1894 2003 
Q 2506 1872 2764 1633 
Q 3022 1394 3022 966 
Q 3022 478 2636 193 
Q 2250 -91 1575 -91 
Q 1294 -91 989 -36 
Q 684 19 347 128 
L 347 722 
Q 666 556 975 473 
Q 1284 391 1588 391 
Q 1994 391 2212 530 
Q 2431 669 2431 922 
Q 2431 1156 2273 1281 
Q 2116 1406 1581 1522 
L 1381 1569 
Q 847 1681 609 1914 
Q 372 2147 372 2553 
Q 372 3047 722 3315 
Q 1072 3584 1716 3584 
Q 2034 3584 2315 3537 
Q 2597 3491 2834 3397 
z
" transform="scale(0.015625)"/>
      </defs>
      <use xlink:href="#DejaVuSans-74"/>
      <use xlink:href="#DejaVuSans-65" x="39.208984"/>
      <use xlink:href="#DejaVuSans-73" x="100.732422"/>
      <use xlink:href="#DejaVuSans-74" x="152.832031"/>
      <use xlink:href="#DejaVuSans-20" x="192.041016"/>
      <use xlink:href="#DejaVuSans-65" x="223.828125"/>
      <use xlink:href="#DejaVuSans-72" x="285.351562"/>
      <use xlink:href="#DejaVuSans-72" x="324.714844"/>
      <use xlink:href="#DejaVuSans-6f" x="363.578125"/>
      <use xlink:href="#DejaVuSans-72" x="424.759766"/>
     </g>
    </g>
   </g>
  </g>
 </g>
 <defs>
  <clipPath id="paddccc8161">
   <rect x="45" y="43.2" width="279" height="277.2"/>
  </clipPath>
 </defs>
</svg>
