<?xml version="1.0" encoding="utf-8" standalone="no"?>
<!DOCTYPE svg PUBLIC "-//W3C//DTD SVG 1.1//EN"
  "http://www.w3.org/Graphics/SVG/1.1/DTD/svg11.dtd">
<svg xmlns:xlink="http://www.w3.org/1999/xlink" width="360pt" height="360pt" viewBox="0 0 360 360" xmlns="http://www.w3.org/2000/svg" version="1.1">
 <metadata>
  <rdf:RDF xmlns:dc="http://purl.org/dc/elements/1.1/" xmlns:cc="http://creativecommons.org/ns#" xmlns:rdf="http://www.w3.org/1999/02/22-rdf-syntax-ns#">
   <cc:Work>
    <dc:type rdf:resource="http://purl.org/dc/dcmitype/StillImage"/>
    <dc:date>2022-11-13T19:16:32.361245</dc:date>
    <dc:format>image/svg+xml</dc:format>
    <dc:creator>
     <cc:Agent>
      <dc:title>Matplotlib v3.5.3, https://matplotlib.org/</dc:title>
     </cc:Agent>
    </dc:creator>
   </cc:Work>
  </rdf:RDF>
 </metadata>
 <defs>
  <style type="text/css">*{stroke-linejoin: round; stroke-linecap: butt}</style>
 </defs>
 <g id="figure_1">
  <g id="patch_1">
   <path d="M 0 360 
L 360 360 
L 360 0 
L 0 0 
z
" style="fill: #ffffff"/>
  </g>
  <g id="axes_1">
   <g id="patch_2">
    <path d="M 45 320.4 
L 324 320.4 
L 324 43.2 
L 45 43.2 
z
" style="fill: #ffffff"/>
   </g>
   <g id="matplotlib.axis_1">
    <g id="xtick_1">
     <g id="line2d_1">
      <defs>
       <path id="m505ea1d3c7" d="M 0 0 
L 0 3.5 
" style="stroke: #000000; stroke-width: 0.8"/>
      </defs>
      <g>
       <use xlink:href="#m505ea1d3c7" x="83.045455" y="320.4" style="stroke: #000000; stroke-width: 0.8"/>
      </g>
     </g>
     <g id="text_1">
      <!-- −2 -->
      <g transform="translate(75.674361 334.998438)scale(0.1 -0.1)">
       <defs>
        <path id="DejaVuSans-2212" d="M 678 2272 
L 4684 2272 
L 4684 1741 
L 678 1741 
L 678 2272 
z
" transform="scale(0.015625)"/>
        <path id="DejaVuSans-32" d="M 1228 531 
L 3431 531 
L 3431 0 
L 469 0 
L 469 531 
Q 828 903 1448 1529 
Q 2069 2156 2228 2338 
Q 2531 2678 2651 2914 
Q 2772 3150 2772 3378 
Q 2772 3750 2511 3984 
Q 2250 4219 1831 4219 
Q 1534 4219 1204 4116 
Q 875 4013 500 3803 
L 500 4441 
Q 881 4594 1212 4672 
Q 1544 4750 1819 4750 
Q 2544 4750 2975 4387 
Q 3406 4025 3406 3419 
Q 3406 3131 3298 2873 
Q 3191 2616 2906 2266 
Q 2828 2175 2409 1742 
Q 1991 1309 1228 531 
z
" transform="scale(0.015625)"/>
       </defs>
       <use xlink:href="#DejaVuSans-2212"/>
       <use xlink:href="#DejaVuSans-32" x="83.789062"/>
      </g>
     </g>
    </g>
    <g id="xtick_2">
     <g id="line2d_2">
      <g>
       <use xlink:href="#m505ea1d3c7" x="133.772727" y="320.4" style="stroke: #000000; stroke-width: 0.8"/>
      </g>
     </g>
     <g id="text_2">
      <!-- −1 -->
      <g transform="translate(126.401634 334.998438)scale(0.1 -0.1)">
       <defs>
        <path id="DejaVuSans-31" d="M 794 531 
L 1825 531 
L 1825 4091 
L 703 3866 
L 703 4441 
L 1819 4666 
L 2450 4666 
L 2450 531 
L 3481 531 
L 3481 0 
L 794 0 
L 794 531 
z
" transform="scale(0.015625)"/>
       </defs>
       <use xlink:href="#DejaVuSans-2212"/>
       <use xlink:href="#DejaVuSans-31" x="83.789062"/>
      </g>
     </g>
    </g>
    <g id="xtick_3">
     <g id="line2d_3">
      <g>
       <use xlink:href="#m505ea1d3c7" x="184.5" y="320.4" style="stroke: #000000; stroke-width: 0.8"/>
      </g>
     </g>
     <g id="text_3">
      <!-- 0 -->
      <g transform="translate(181.31875 334.998438)scale(0.1 -0.1)">
       <defs>
        <path id="DejaVuSans-30" d="M 2034 4250 
Q 1547 4250 1301 3770 
Q 1056 3291 1056 2328 
Q 1056 1369 1301 889 
Q 1547 409 2034 409 
Q 2525 409 2770 889 
Q 3016 1369 3016 2328 
Q 3016 3291 2770 3770 
Q 2525 4250 2034 4250 
z
M 2034 4750 
Q 2819 4750 3233 4129 
Q 3647 3509 3647 2328 
Q 3647 1150 3233 529 
Q 2819 -91 2034 -91 
Q 1250 -91 836 529 
Q 422 1150 422 2328 
Q 422 3509 836 4129 
Q 1250 4750 2034 4750 
z
" transform="scale(0.015625)"/>
       </defs>
       <use xlink:href="#DejaVuSans-30"/>
      </g>
     </g>
    </g>
    <g id="xtick_4">
     <g id="line2d_4">
      <g>
       <use xlink:href="#m505ea1d3c7" x="235.227273" y="320.4" style="stroke: #000000; stroke-width: 0.8"/>
      </g>
     </g>
     <g id="text_4">
      <!-- 1 -->
      <g transform="translate(232.046023 334.998438)scale(0.1 -0.1)">
       <use xlink:href="#DejaVuSans-31"/>
      </g>
     </g>
    </g>
    <g id="xtick_5">
     <g id="line2d_5">
      <g>
       <use xlink:href="#m505ea1d3c7" x="285.954545" y="320.4" style="stroke: #000000; stroke-width: 0.8"/>
      </g>
     </g>
     <g id="text_5">
      <!-- 2 -->
      <g transform="translate(282.773295 334.998438)scale(0.1 -0.1)">
       <use xlink:href="#DejaVuSans-32"/>
      </g>
     </g>
    </g>
   </g>
   <g id="matplotlib.axis_2">
    <g id="ytick_1">
     <g id="line2d_6">
      <defs>
       <path id="m3b6d97fab8" d="M 0 0 
L -3.5 0 
" style="stroke: #000000; stroke-width: 0.8"/>
      </defs>
      <g>
       <use xlink:href="#m3b6d97fab8" x="45" y="294.944617" style="stroke: #000000; stroke-width: 0.8"/>
      </g>
     </g>
     <g id="text_6">
      <!-- −1 -->
      <g transform="translate(23.257812 298.743835)scale(0.1 -0.1)">
       <use xlink:href="#DejaVuSans-2212"/>
       <use xlink:href="#DejaVuSans-31" x="83.789062"/>
      </g>
     </g>
    </g>
    <g id="ytick_2">
     <g id="line2d_7">
      <g>
       <use xlink:href="#m3b6d97fab8" x="45" y="262.200703" style="stroke: #000000; stroke-width: 0.8"/>
      </g>
     </g>
     <g id="text_7">
      <!-- 0 -->
      <g transform="translate(31.6375 265.999922)scale(0.1 -0.1)">
       <use xlink:href="#DejaVuSans-30"/>
      </g>
     </g>
    </g>
    <g id="ytick_3">
     <g id="line2d_8">
      <g>
       <use xlink:href="#m3b6d97fab8" x="45" y="229.456789" style="stroke: #000000; stroke-width: 0.8"/>
      </g>
     </g>
     <g id="text_8">
      <!-- 1 -->
      <g transform="translate(31.6375 233.256008)scale(0.1 -0.1)">
       <use xlink:href="#DejaVuSans-31"/>
      </g>
     </g>
    </g>
    <g id="ytick_4">
     <g id="line2d_9">
      <g>
       <use xlink:href="#m3b6d97fab8" x="45" y="196.712876" style="stroke: #000000; stroke-width: 0.8"/>
      </g>
     </g>
     <g id="text_9">
      <!-- 2 -->
      <g transform="translate(31.6375 200.512095)scale(0.1 -0.1)">
       <use xlink:href="#DejaVuSans-32"/>
      </g>
     </g>
    </g>
    <g id="ytick_5">
     <g id="line2d_10">
      <g>
       <use xlink:href="#m3b6d97fab8" x="45" y="163.968962" style="stroke: #000000; stroke-width: 0.8"/>
      </g>
     </g>
     <g id="text_10">
      <!-- 3 -->
      <g transform="translate(31.6375 167.768181)scale(0.1 -0.1)">
       <defs>
        <path id="DejaVuSans-33" d="M 2597 2516 
Q 3050 2419 3304 2112 
Q 3559 1806 3559 1356 
Q 3559 666 3084 287 
Q 2609 -91 1734 -91 
Q 1441 -91 1130 -33 
Q 819 25 488 141 
L 488 750 
Q 750 597 1062 519 
Q 1375 441 1716 441 
Q 2309 441 2620 675 
Q 2931 909 2931 1356 
Q 2931 1769 2642 2001 
Q 2353 2234 1838 2234 
L 1294 2234 
L 1294 2753 
L 1863 2753 
Q 2328 2753 2575 2939 
Q 2822 3125 2822 3475 
Q 2822 3834 2567 4026 
Q 2313 4219 1838 4219 
Q 1578 4219 1281 4162 
Q 984 4106 628 3988 
L 628 4550 
Q 988 4650 1302 4700 
Q 1616 4750 1894 4750 
Q 2613 4750 3031 4423 
Q 3450 4097 3450 3541 
Q 3450 3153 3228 2886 
Q 3006 2619 2597 2516 
z
" transform="scale(0.015625)"/>
       </defs>
       <use xlink:href="#DejaVuSans-33"/>
      </g>
     </g>
    </g>
    <g id="ytick_6">
     <g id="line2d_11">
      <g>
       <use xlink:href="#m3b6d97fab8" x="45" y="131.225049" style="stroke: #000000; stroke-width: 0.8"/>
      </g>
     </g>
     <g id="text_11">
      <!-- 4 -->
      <g transform="translate(31.6375 135.024267)scale(0.1 -0.1)">
       <defs>
        <path id="DejaVuSans-34" d="M 2419 4116 
L 825 1625 
L 2419 1625 
L 2419 4116 
z
M 2253 4666 
L 3047 4666 
L 3047 1625 
L 3713 1625 
L 3713 1100 
L 3047 1100 
L 3047 0 
L 2419 0 
L 2419 1100 
L 313 1100 
L 313 1709 
L 2253 4666 
z
" transform="scale(0.015625)"/>
       </defs>
       <use xlink:href="#DejaVuSans-34"/>
      </g>
     </g>
    </g>
    <g id="ytick_7">
     <g id="line2d_12">
      <g>
       <use xlink:href="#m3b6d97fab8" x="45" y="98.481135" style="stroke: #000000; stroke-width: 0.8"/>
      </g>
     </g>
     <g id="text_12">
      <!-- 5 -->
      <g transform="translate(31.6375 102.280354)scale(0.1 -0.1)">
       <defs>
        <path id="DejaVuSans-35" d="M 691 4666 
L 3169 4666 
L 3169 4134 
L 1269 4134 
L 1269 2991 
Q 1406 3038 1543 3061 
Q 1681 3084 1819 3084 
Q 2600 3084 3056 2656 
Q 3513 2228 3513 1497 
Q 3513 744 3044 326 
Q 2575 -91 1722 -91 
Q 1428 -91 1123 -41 
Q 819 9 494 109 
L 494 744 
Q 775 591 1075 516 
Q 1375 441 1709 441 
Q 2250 441 2565 725 
Q 2881 1009 2881 1497 
Q 2881 1984 2565 2268 
Q 2250 2553 1709 2553 
Q 1456 2553 1204 2497 
Q 953 2441 691 2322 
L 691 4666 
z
" transform="scale(0.015625)"/>
       </defs>
       <use xlink:href="#DejaVuSans-35"/>
      </g>
     </g>
    </g>
    <g id="ytick_8">
     <g id="line2d_13">
      <g>
       <use xlink:href="#m3b6d97fab8" x="45" y="65.737221" style="stroke: #000000; stroke-width: 0.8"/>
      </g>
     </g>
     <g id="text_13">
      <!-- 6 -->
      <g transform="translate(31.6375 69.53644)scale(0.1 -0.1)">
       <defs>
        <path id="DejaVuSans-36" d="M 2113 2584 
Q 1688 2584 1439 2293 
Q 1191 2003 1191 1497 
Q 1191 994 1439 701 
Q 1688 409 2113 409 
Q 2538 409 2786 701 
Q 3034 994 3034 1497 
Q 3034 2003 2786 2293 
Q 2538 2584 2113 2584 
z
M 3366 4563 
L 3366 3988 
Q 3128 4100 2886 4159 
Q 2644 4219 2406 4219 
Q 1781 4219 1451 3797 
Q 1122 3375 1075 2522 
Q 1259 2794 1537 2939 
Q 1816 3084 2150 3084 
Q 2853 3084 3261 2657 
Q 3669 2231 3669 1497 
Q 3669 778 3244 343 
Q 2819 -91 2113 -91 
Q 1303 -91 875 529 
Q 447 1150 447 2328 
Q 447 3434 972 4092 
Q 1497 4750 2381 4750 
Q 2619 4750 2861 4703 
Q 3103 4656 3366 4563 
z
" transform="scale(0.015625)"/>
       </defs>
       <use xlink:href="#DejaVuSans-36"/>
      </g>
     </g>
    </g>
   </g>
   <g id="line2d_14">
    <path d="M 57.681818 262.658795 
L 58.317496 260.059624 
L 58.953174 259.995499 
L 59.588863 259.014952 
L 60.224541 258.463432 
L 60.860219 258.530054 
L 61.495896 257.595346 
L 62.131574 255.875069 
L 62.767264 254.995381 
L 63.402942 252.76411 
L 64.038619 252.908035 
L 64.674309 252.281075 
L 65.309987 249.34612 
L 65.945664 249.66579 
L 66.581342 248.465194 
L 67.21702 249.892987 
L 67.852697 249.313003 
L 68.488375 247.665848 
L 69.124053 249.064387 
L 69.759743 248.835166 
L 70.39542 247.722988 
L 71.031098 248.211067 
L 71.666776 248.89846 
L 72.302453 246.850091 
L 72.938143 246.74604 
L 73.573821 248.129299 
L 74.209498 249.10209 
L 74.845188 250.843972 
L 76.116544 250.187444 
L 76.752221 250.592707 
L 77.387899 252.408676 
L 78.023577 253.758319 
L 78.659254 253.175675 
L 79.294932 256.431117 
L 79.930622 255.188553 
L 80.566299 258.005141 
L 81.201977 258.535848 
L 81.837655 260.112806 
L 82.473333 260.849483 
L 83.109022 262.82444 
L 83.7447 262.436277 
L 84.380384 264.973927 
L 85.016061 264.957637 
L 85.651745 265.957396 
L 86.287423 269.608565 
L 86.923101 271.260142 
L 87.558784 269.974541 
L 88.194462 271.186853 
L 88.83014 274.853225 
L 89.465823 274.807125 
L 90.101501 277.309112 
L 90.737185 277.978486 
L 91.372862 277.188516 
L 92.644224 278.633912 
L 93.279902 280.024867 
L 93.915579 278.567112 
L 95.186941 281.722762 
L 95.822624 281.023012 
L 96.458302 280.596421 
L 97.09398 280.359105 
L 97.729663 281.915174 
L 98.365347 279.850628 
L 99.001025 280.888968 
L 99.636709 280.883669 
L 100.272386 279.772084 
L 100.90807 276.539539 
L 101.543748 275.848512 
L 102.179425 274.804216 
L 102.815109 274.228376 
L 103.450781 272.773699 
L 104.086458 272.958338 
L 104.722142 272.282616 
L 105.35782 269.127203 
L 105.993504 269.285399 
L 106.629181 267.970151 
L 108.536226 261.013572 
L 109.171904 260.756314 
L 109.807588 259.331457 
L 110.443266 256.388347 
L 111.078949 255.820018 
L 111.714627 254.182016 
L 112.350305 250.549954 
L 112.985988 250.002642 
L 113.621666 246.60379 
L 114.257344 244.938114 
L 114.893027 244.541277 
L 115.528705 243.04748 
L 116.164389 241.9037 
L 117.435744 240.047577 
L 118.071428 238.90222 
L 119.342783 235.781408 
L 119.978467 237.125502 
L 120.614145 236.93845 
L 121.249829 236.341315 
L 121.885506 236.592493 
L 122.521184 235.542131 
L 123.156868 234.782979 
L 123.792545 235.077229 
L 124.428223 236.127504 
L 125.063907 238.775491 
L 126.335268 239.819348 
L 127.606623 241.873759 
L 128.242307 245.023698 
L 128.877991 244.675267 
L 129.513669 248.242949 
L 130.149352 249.976717 
L 130.78503 252.377927 
L 131.420714 251.78615 
L 132.056391 257.068451 
L 132.692069 256.687022 
L 133.327753 260.467645 
L 133.963431 263.167394 
L 134.599111 264.577822 
L 135.234792 268.424412 
L 135.87047 269.949287 
L 136.50615 272.511809 
L 137.141831 277.83726 
L 137.777512 278.490911 
L 139.04887 284.067284 
L 140.320232 289.009201 
L 140.955909 292.623426 
L 141.59159 294.308243 
L 142.227271 294.673636 
L 142.862951 297.11059 
L 144.13431 303.201937 
L 144.769991 303.029611 
L 145.405671 305.444764 
L 146.041349 304.002286 
L 146.67703 307.093313 
L 147.31271 306.732875 
L 147.948391 307.231235 
L 148.584072 306.557039 
L 149.219749 305.005899 
L 149.85543 305.798262 
L 151.762469 301.040129 
L 152.39815 301.108602 
L 153.033831 298.774838 
L 153.669511 295.16812 
L 154.305195 293.63556 
L 154.940876 289.338656 
L 155.576557 287.067202 
L 156.212234 284.116318 
L 156.847915 278.333651 
L 157.483596 274.448173 
L 159.390635 258.999886 
L 160.026315 253.182519 
L 161.297675 244.672688 
L 165.111749 205.936513 
L 168.29015 167.995087 
L 168.925829 162.807371 
L 169.561514 155.80236 
L 170.197195 147.527697 
L 170.832874 142.379211 
L 171.468555 135.632674 
L 172.104235 127.277952 
L 172.739914 123.305421 
L 174.011274 108.199845 
L 174.64696 103.583897 
L 175.28264 97.889383 
L 175.91832 94.029316 
L 176.554 88.130015 
L 178.46104 74.483834 
L 179.09672 70.06026 
L 179.732393 69.464932 
L 180.368073 65.279995 
L 181.639433 62.037474 
L 182.275114 59.189913 
L 182.910794 59.231788 
L 183.546474 55.8 
L 184.182154 56.328158 
L 184.817839 57.400151 
L 185.453519 56.087023 
L 186.089199 59.34013 
L 186.724879 59.692074 
L 187.360559 61.061286 
L 187.996239 64.226208 
L 189.2676 68.482452 
L 189.903285 70.240659 
L 190.538964 73.538998 
L 191.174644 78.071383 
L 191.810325 84.425131 
L 192.446005 89.178556 
L 193.081685 91.6471 
L 196.26009 122.4256 
L 196.895771 126.710729 
L 197.53145 135.262399 
L 198.167131 141.653643 
L 198.802811 149.761366 
L 200.074164 162.353721 
L 200.709844 170.377498 
L 201.981204 182.817706 
L 202.616884 192.121558 
L 203.252564 197.022012 
L 203.888245 205.508472 
L 204.523924 212.050035 
L 205.79529 223.23665 
L 206.430969 231.40755 
L 208.973691 256.168189 
L 210.245049 264.913479 
L 210.88073 271.645619 
L 211.51641 273.269768 
L 212.152088 277.972926 
L 212.787769 284.608622 
L 213.42345 287.491537 
L 214.05913 289.571345 
L 214.694811 293.525225 
L 215.966169 299.147888 
L 216.60185 299.228165 
L 217.237528 303.277038 
L 217.873208 302.509427 
L 218.508889 304.957126 
L 219.14457 305.624713 
L 219.780251 305.269319 
L 220.415928 307.118138 
L 221.051609 307.8 
L 221.68729 306.879454 
L 222.322967 304.771544 
L 222.958648 306.548425 
L 223.594329 303.958267 
L 224.230009 304.71039 
L 224.86569 300.803721 
L 226.137049 298.141132 
L 226.772729 295.526493 
L 227.408407 294.096951 
L 228.044088 290.929892 
L 228.679768 290.753061 
L 230.586807 280.163911 
L 231.222488 278.286904 
L 231.858169 277.606357 
L 232.493847 272.436381 
L 233.129527 271.341154 
L 233.765208 268.622655 
L 234.400889 267.089915 
L 235.672253 259.254545 
L 236.307931 257.69377 
L 236.943615 256.471687 
L 237.579292 252.708696 
L 238.214976 251.541723 
L 238.850654 247.446016 
L 239.486331 248.414989 
L 240.122015 245.701964 
L 240.757693 245.101633 
L 242.664732 237.883649 
L 243.300416 238.156318 
L 243.936093 235.965589 
L 244.571771 236.558864 
L 245.207455 235.41194 
L 245.843132 234.692582 
L 246.47881 234.451951 
L 247.114494 236.717901 
L 247.750171 234.439622 
L 248.385855 235.254624 
L 249.021533 237.466727 
L 249.657211 238.084898 
L 250.292894 239.420366 
L 250.928572 238.513561 
L 251.56425 241.255526 
L 252.199933 240.358532 
L 252.835611 241.763697 
L 253.471295 245.033331 
L 254.106973 244.584835 
L 254.74265 246.663887 
L 255.378334 247.351935 
L 256.014012 248.788213 
L 256.649689 253.030936 
L 257.285373 251.61463 
L 257.921051 253.481979 
L 258.556734 255.95778 
L 259.192412 259.864192 
L 259.82809 260.705231 
L 261.099451 263.986437 
L 261.735129 264.31519 
L 262.370813 266.270008 
L 263.00649 267.140061 
L 263.642174 270.558388 
L 264.277852 270.830787 
L 264.913529 272.156662 
L 265.549213 275.373617 
L 266.184897 276.777553 
L 266.820575 277.119822 
L 267.456258 276.127356 
L 268.091936 279.659831 
L 268.72762 280.302905 
L 269.363297 278.606108 
L 269.998975 279.169239 
L 270.634659 279.117811 
L 271.270337 281.993526 
L 271.906014 282.130705 
L 272.541698 280.149726 
L 273.177376 279.506568 
L 273.813059 279.77708 
L 274.448737 280.214852 
L 275.084415 279.537981 
L 275.720098 278.025375 
L 276.355776 280.037293 
L 276.991454 279.030924 
L 277.627138 276.359563 
L 278.262815 277.758514 
L 278.898499 276.597401 
L 279.534177 273.485426 
L 280.169854 273.086591 
L 280.805538 271.940853 
L 281.441222 271.981961 
L 282.076899 270.088388 
L 282.712583 267.312507 
L 283.348261 268.51419 
L 284.619622 264.152699 
L 285.2553 264.756974 
L 285.890984 260.73966 
L 286.526655 261.865966 
L 287.162333 260.18245 
L 287.798011 259.003912 
L 289.069378 257.829812 
L 289.705056 254.204132 
L 290.340734 253.653015 
L 290.976411 254.644459 
L 291.612101 253.25545 
L 292.247779 249.746544 
L 292.883456 249.978457 
L 293.519146 249.267188 
L 294.154824 250.307008 
L 295.426179 248.642032 
L 296.061857 248.362022 
L 296.697535 248.943096 
L 297.333212 247.536245 
L 297.96889 247.449527 
L 298.60458 247.851215 
L 299.240257 247.537957 
L 299.875935 248.622462 
L 300.511613 247.841493 
L 301.14729 248.026803 
L 301.78298 249.962775 
L 302.418658 251.255764 
L 303.054336 249.379098 
L 303.690025 250.516558 
L 304.325703 252.473243 
L 304.961381 250.85366 
L 305.597058 254.014603 
L 306.232736 253.05683 
L 306.868426 254.261869 
L 307.504104 257.428599 
L 308.139781 255.991531 
L 308.775471 259.565898 
L 310.046826 260.398863 
L 310.682504 262.268879 
L 311.318182 260.601319 
L 311.318182 260.601319 
" clip-path="url(#pdda6be11cf)" style="fill: none; stroke: #1f77b4; stroke-width: 1.5; stroke-linecap: square"/>
   </g>
   <g id="line2d_15">
    <path d="M 57.681818 285.672494 
L 62.767264 284.563216 
L 67.852697 283.228858 
L 72.302453 281.852526 
L 76.752221 280.261939 
L 81.201977 278.442976 
L 85.651745 276.388452 
L 90.101501 274.101537 
L 95.186941 271.22566 
L 100.90807 267.723104 
L 113.621666 259.809378 
L 116.800067 258.163089 
L 119.342783 257.120426 
L 121.249829 256.578489 
L 123.156868 256.32053 
L 124.428223 256.350259 
L 125.699584 256.578083 
L 126.970946 257.039892 
L 128.242307 257.77507 
L 129.513669 258.825118 
L 130.78503 260.231318 
L 132.056391 262.031353 
L 133.327753 264.254686 
L 134.599111 266.916385 
L 135.87047 270.010706 
L 137.777512 275.382114 
L 140.320232 283.473471 
L 143.498632 293.549407 
L 144.769991 297.02251 
L 146.041349 299.91443 
L 147.31271 302.063286 
L 147.948391 302.812423 
L 148.584072 303.321634 
L 149.219749 303.574643 
L 149.85543 303.555852 
L 150.491111 303.250312 
L 151.126789 302.643609 
L 151.762469 301.721897 
L 152.39815 300.471973 
L 153.033831 298.881346 
L 153.669511 296.938462 
L 154.940876 291.956211 
L 156.212234 285.464065 
L 157.483596 277.439507 
L 158.754957 267.911777 
L 160.026315 256.970441 
L 161.933355 238.252456 
L 164.476068 210.163521 
L 170.197195 144.571801 
L 172.104235 125.325076 
L 174.011274 108.6438 
L 175.28264 99.130439 
L 176.554 90.935467 
L 177.82536 84.025394 
L 179.09672 78.330567 
L 180.368073 73.763364 
L 181.639433 70.235475 
L 182.910794 67.672407 
L 183.546474 66.736002 
L 184.182154 66.024682 
L 184.817839 65.537571 
L 185.453519 65.27631 
L 186.089199 65.245224 
L 186.724879 65.451416 
L 187.360559 65.904895 
L 187.996239 66.618604 
L 188.631919 67.608454 
L 189.2676 68.893228 
L 189.903285 70.494519 
L 190.538964 72.436216 
L 191.810325 77.446764 
L 193.081685 84.145961 
L 194.353045 92.747431 
L 195.62441 103.413257 
L 196.895771 116.196479 
L 198.167131 130.981853 
L 200.074164 156.136489 
L 204.523924 217.209189 
L 205.79529 232.078176 
L 207.06665 244.923851 
L 208.33801 255.613738 
L 209.60937 264.198298 
L 210.88073 270.853137 
L 212.152088 275.821748 
L 213.42345 279.369638 
L 214.05913 280.692071 
L 214.694811 281.754087 
L 215.330489 282.583774 
L 215.966169 283.207096 
L 216.60185 283.648069 
L 217.237528 283.92841 
L 217.873208 284.068072 
L 219.14457 283.994673 
L 220.415928 283.550375 
L 221.68729 282.833168 
L 223.594329 281.411995 
L 226.137049 279.162228 
L 232.493847 273.356186 
L 235.672253 270.825985 
L 238.214976 269.065936 
L 240.757693 267.545258 
L 243.300416 266.251694 
L 246.47881 264.922531 
L 249.657211 263.868697 
L 252.835611 263.042398 
L 256.649689 262.289624 
L 261.099451 261.660618 
L 266.184897 261.174366 
L 272.541698 260.794333 
L 281.441222 260.505874 
L 295.426179 260.312297 
L 311.318182 260.225783 
L 311.318182 260.225783 
" clip-path="url(#pdda6be11cf)" style="fill: none; stroke: #ff7f0e; stroke-width: 1.5; stroke-linecap: square"/>
   </g>
   <g id="line2d_16">
    <path d="M 57.681818 278.333295 
L 64.674309 277.360819 
L 70.39542 276.35676 
L 76.116544 275.126439 
L 81.201977 273.811617 
L 86.287423 272.260531 
L 91.372862 270.449684 
L 95.822624 268.640671 
L 100.90807 266.320534 
L 106.629181 263.440301 
L 116.164389 258.577597 
L 118.707106 257.518524 
L 120.614145 256.895904 
L 122.521184 256.489305 
L 123.792545 256.377364 
L 125.063907 256.425758 
L 126.335268 256.667533 
L 127.606623 257.139701 
L 128.877991 257.882655 
L 130.149352 258.938839 
L 131.420714 260.350285 
L 132.692069 262.155184 
L 133.963431 264.382975 
L 135.234792 267.048241 
L 136.50615 270.143901 
L 138.413193 275.508427 
L 140.955909 283.557042 
L 143.498632 291.621953 
L 144.769991 295.22979 
L 146.041349 298.312577 
L 147.31271 300.697736 
L 147.948391 301.578393 
L 148.584072 302.226096 
L 149.219749 302.623148 
L 149.85543 302.752623 
L 150.491111 302.598315 
L 151.126789 302.144672 
L 151.762469 301.376666 
L 152.39815 300.27995 
L 153.033831 298.840875 
L 153.669511 297.046633 
L 154.940876 292.347408 
L 156.212234 286.108435 
L 157.483596 278.291946 
L 158.754957 268.910301 
L 160.026315 258.03701 
L 161.933355 239.251881 
L 163.840395 218.158491 
L 170.832874 137.375134 
L 172.739914 118.945066 
L 174.011274 108.262518 
L 175.28264 98.95132 
L 176.554 91.008694 
L 177.82536 84.378759 
L 179.09672 78.972767 
L 180.368073 74.68909 
L 181.639433 71.430752 
L 182.910794 69.119405 
L 183.546474 68.3021 
L 184.182154 67.70582 
L 184.817839 67.330237 
L 185.453519 67.177693 
L 186.089199 67.253403 
L 186.724879 67.56547 
L 187.360559 68.125027 
L 187.996239 68.946361 
L 188.631919 70.046739 
L 189.2676 71.446444 
L 189.903285 73.168646 
L 191.174644 77.685011 
L 192.446005 83.821903 
L 193.717365 91.812868 
L 194.98873 101.85915 
L 196.26009 114.074602 
L 197.53145 128.422001 
L 199.438491 153.341061 
L 204.523924 224.589503 
L 205.79529 239.549734 
L 207.06665 252.394723 
L 208.33801 263.020204 
L 209.60937 271.504228 
L 210.88073 278.044699 
L 212.152088 282.900705 
L 213.42345 286.346826 
L 214.05913 287.623808 
L 214.694811 288.64423 
L 215.330489 289.436163 
L 215.966169 290.025386 
L 216.60185 290.435646 
L 217.237528 290.688367 
L 217.873208 290.80297 
L 219.14457 290.686196 
L 220.415928 290.204597 
L 221.68729 289.453322 
L 223.594329 287.982014 
L 226.137049 285.658972 
L 233.129527 279.048007 
L 236.307931 276.441315 
L 238.850654 274.621951 
L 241.39337 273.043534 
L 243.936093 271.694666 
L 246.47881 270.555879 
L 249.657211 269.391876 
L 252.835611 268.471943 
L 256.649689 267.62719 
L 261.099451 266.915245 
L 266.184897 266.359934 
L 272.541698 265.921117 
L 280.805538 265.600103 
L 292.883456 265.376705 
L 311.318182 265.236167 
L 311.318182 265.236167 
" clip-path="url(#pdda6be11cf)" style="fill: none; stroke: #2ca02c; stroke-width: 1.5; stroke-linecap: square"/>
   </g>
   <g id="line2d_17">
    <path d="M 57.681818 282.975464 
L 63.402942 281.861662 
L 68.488375 280.66612 
L 73.573821 279.249068 
L 78.659254 277.585441 
L 83.109022 275.91175 
L 87.558784 274.02698 
L 92.644224 271.617909 
L 97.729663 268.961894 
L 104.722142 265.023478 
L 112.350305 260.729965 
L 115.528705 259.147738 
L 118.071428 258.090547 
L 119.978467 257.485109 
L 121.885506 257.10517 
L 123.156868 257.014096 
L 124.428223 257.084107 
L 125.699584 257.346688 
L 126.970946 257.837288 
L 128.242307 258.594832 
L 129.513669 259.660384 
L 130.78503 261.075187 
L 132.056391 262.877151 
L 133.327753 265.096284 
L 134.599111 267.74888 
L 135.87047 270.830941 
L 137.777512 276.183495 
L 140.320232 284.265476 
L 143.498632 294.393616 
L 144.769991 297.917441 
L 146.041349 300.880578 
L 147.31271 303.12232 
L 147.948391 303.926111 
L 148.584072 304.495279 
L 149.219749 304.813279 
L 149.85543 304.864062 
L 150.491111 304.632037 
L 151.126789 304.101959 
L 151.762469 303.258813 
L 152.39815 302.087971 
L 153.033831 300.575123 
L 153.669511 298.706564 
L 154.940876 293.852069 
L 156.212234 287.438802 
L 157.483596 279.415622 
L 158.754957 269.782891 
L 160.026315 258.60697 
L 161.933355 239.275996 
L 164.476068 209.980226 
L 169.561514 149.060242 
L 171.468555 128.839179 
L 173.375594 111.364455 
L 174.64696 101.430996 
L 175.91832 92.895494 
L 177.18968 85.711794 
L 178.46104 79.794678 
L 179.732393 75.040081 
L 181.003753 71.343113 
L 182.275114 68.61295 
L 182.910794 67.588703 
L 183.546474 66.783967 
L 184.182154 66.195806 
L 184.817839 65.823798 
L 185.453519 65.670099 
L 186.089199 65.739673 
L 186.724879 66.040311 
L 187.360559 66.582756 
L 187.996239 67.3807 
L 188.631919 68.45085 
L 189.2676 69.812755 
L 189.903285 71.488694 
L 191.174644 75.883633 
L 192.446005 81.85385 
L 193.717365 89.625196 
L 194.98873 99.393932 
L 196.26009 111.274256 
L 197.53145 125.237765 
L 199.438491 149.534721 
L 205.159609 227.226586 
L 206.430969 241.089529 
L 207.702329 252.821915 
L 208.973691 262.397121 
L 210.245049 269.941774 
L 211.51641 275.675572 
L 212.787769 279.859276 
L 214.05913 282.757035 
L 214.694811 283.801282 
L 215.330489 284.613654 
L 215.966169 285.219911 
L 216.60185 285.643755 
L 217.237528 285.906765 
L 217.873208 286.028535 
L 219.14457 285.91721 
L 220.415928 285.430631 
L 221.68729 284.665631 
L 223.594329 283.160566 
L 226.137049 280.774712 
L 233.129527 273.94319 
L 236.307931 271.232825 
L 238.850654 269.334455 
L 241.39337 267.682327 
L 243.936093 266.266041 
L 246.47881 265.066548 
L 249.657211 263.836484 
L 252.835611 262.860811 
L 256.649689 261.961691 
L 260.463774 261.294042 
L 264.913529 260.73272 
L 270.634659 260.251762 
L 277.627138 259.897553 
L 287.798011 259.631015 
L 304.325703 259.457705 
L 311.318182 259.421591 
L 311.318182 259.421591 
" clip-path="url(#pdda6be11cf)" style="fill: none; stroke: #d62728; stroke-width: 1.5; stroke-linecap: square"/>
   </g>
   <g id="line2d_18">
    <path d="M 57.681818 279.50326 
L 63.402942 278.439605 
L 69.124053 277.134382 
L 74.209498 275.747945 
L 79.294932 274.133757 
L 84.380384 272.286928 
L 89.465823 270.214656 
L 95.186941 267.642235 
L 102.179425 264.242595 
L 111.714627 259.58104 
L 115.528705 257.983028 
L 118.071428 257.144902 
L 119.978467 256.706069 
L 121.885506 256.495974 
L 123.156868 256.520776 
L 124.428223 256.709637 
L 125.699584 257.094619 
L 126.970946 257.711821 
L 128.242307 258.600566 
L 129.513669 259.801948 
L 130.78503 261.356617 
L 132.056391 263.301054 
L 133.327753 265.662945 
L 134.599111 268.455044 
L 135.87047 271.668926 
L 137.777512 277.193577 
L 140.320232 285.432231 
L 143.498632 295.616681 
L 144.769991 299.126298 
L 146.041349 302.062814 
L 147.31271 304.273165 
L 147.948391 305.06203 
L 148.584072 305.618238 
L 149.219749 305.9263 
L 149.85543 305.971228 
L 150.491111 305.738587 
L 151.126789 305.214246 
L 151.762469 304.384372 
L 152.39815 303.235553 
L 153.033831 301.754677 
L 153.669511 299.929446 
L 154.940876 295.200869 
L 156.212234 288.974774 
L 157.483596 281.209509 
L 158.754957 271.911556 
L 160.026315 261.147331 
L 161.933355 242.555693 
L 163.840395 221.663647 
L 171.468555 134.531929 
L 173.375594 116.771946 
L 174.64696 106.557631 
L 175.91832 97.708126 
L 177.18968 90.206206 
L 178.46104 83.988452 
L 179.732393 78.965163 
L 181.003753 75.039582 
L 182.275114 72.124382 
L 182.910794 71.02427 
L 183.546474 70.154769 
L 184.182154 69.512913 
L 184.817839 69.098187 
L 185.453519 68.912792 
L 186.089199 68.96174 
L 186.724879 69.252995 
L 187.360559 69.797547 
L 187.996239 70.609559 
L 188.631919 71.706174 
L 189.2676 73.107628 
L 189.903285 74.836981 
L 190.538964 76.919761 
L 191.810325 82.257663 
L 193.081685 89.354005 
L 194.353045 98.430001 
L 195.62441 109.646875 
L 196.895771 123.044597 
L 198.167131 138.478931 
L 200.074164 164.574673 
L 203.888245 218.756953 
L 205.79529 241.853557 
L 207.06665 254.658747 
L 208.33801 265.245178 
L 209.60937 273.697008 
L 210.88073 280.215744 
L 212.152088 285.061195 
L 213.42345 288.507488 
L 214.05913 289.787984 
L 214.694811 290.813854 
L 215.330489 291.612814 
L 215.966169 292.210452 
L 216.60185 292.630081 
L 217.237528 292.892919 
L 217.873208 293.018124 
L 219.14457 292.922787 
L 220.415928 292.46158 
L 221.68729 291.72826 
L 223.594329 290.276906 
L 226.137049 287.964482 
L 233.765208 280.730662 
L 236.943615 278.134728 
L 239.486331 276.322873 
L 242.029054 274.749999 
L 244.571771 273.404567 
L 247.750171 272.012794 
L 250.928572 270.900503 
L 254.106973 270.021118 
L 257.921051 269.212276 
L 262.370813 268.527873 
L 267.456258 267.9898 
L 273.813059 267.558102 
L 282.076899 267.231514 
L 294.790502 266.975843 
L 311.318182 266.805265 
L 311.318182 266.805265 
" clip-path="url(#pdda6be11cf)" style="fill: none; stroke: #9467bd; stroke-width: 1.5; stroke-linecap: square"/>
   </g>
   <g id="line2d_19">
    <path d="M 57.681818 287.288375 
L 62.767264 286.002856 
L 67.21702 284.667608 
L 71.666776 283.116148 
L 76.116544 281.334029 
L 80.566299 279.313726 
L 85.016061 277.057179 
L 90.101501 274.207365 
L 95.822624 270.708919 
L 103.450781 265.742619 
L 111.078949 260.826384 
L 114.893027 258.625464 
L 117.435744 257.371699 
L 119.978467 256.390709 
L 121.885506 255.909805 
L 123.792545 255.72651 
L 125.063907 255.813993 
L 126.335268 256.105966 
L 127.606623 256.638176 
L 128.877991 257.449321 
L 130.149352 258.579466 
L 131.420714 260.067629 
L 132.692069 261.947985 
L 133.963431 264.245064 
L 135.234792 266.96755 
L 136.50615 270.101963 
L 138.413193 275.475764 
L 141.59159 285.435563 
L 143.498632 291.232478 
L 144.769991 294.665414 
L 146.041349 297.547194 
L 147.31271 299.710611 
L 147.948391 300.474127 
L 148.584072 301.00113 
L 149.219749 301.274335 
L 149.85543 301.277107 
L 150.491111 300.993464 
L 151.126789 300.408004 
L 151.762469 299.505918 
L 152.39815 298.273012 
L 153.033831 296.695852 
L 153.669511 294.762038 
L 154.940876 289.781077 
L 156.212234 283.262236 
L 157.483596 275.17723 
L 158.754957 265.551441 
L 160.026315 254.474287 
L 161.933355 235.496208 
L 164.476068 207.046954 
L 169.561514 148.409361 
L 171.468555 128.928613 
L 173.375594 112.022986 
L 174.64696 102.367995 
L 175.91832 94.037326 
L 177.18968 86.996489 
L 178.46104 81.174257 
L 179.732393 76.480959 
L 181.003753 72.825304 
L 182.275114 70.128835 
L 182.910794 69.122091 
L 183.546474 68.337043 
L 184.182154 67.772053 
L 184.817839 67.427946 
L 185.453519 67.308175 
L 186.089199 67.418953 
L 186.724879 67.769383 
L 187.360559 68.371612 
L 187.996239 69.2408 
L 188.631919 70.395123 
L 189.2676 71.855674 
L 189.903285 73.646325 
L 191.174644 78.324899 
L 192.446005 84.660036 
L 193.717365 92.884486 
L 194.98873 103.19281 
L 196.26009 115.684543 
L 197.53145 130.300198 
L 199.438491 155.544214 
L 204.523924 226.734667 
L 205.79529 241.490357 
L 207.06665 254.101456 
L 208.33801 264.488737 
L 209.60937 272.748395 
L 210.88073 279.089153 
L 212.152088 283.7743 
L 213.42345 287.078245 
L 214.05913 288.294022 
L 214.694811 289.259172 
L 215.330489 290.00122 
L 215.966169 290.545476 
L 216.60185 290.914985 
L 217.237528 291.130779 
L 217.873208 291.211751 
L 219.14457 291.035693 
L 220.415928 290.503007 
L 221.68729 289.706561 
L 223.594329 288.174485 
L 226.137049 285.778201 
L 233.129527 278.994238 
L 236.307931 276.325327 
L 238.850654 274.465585 
L 241.39337 272.855395 
L 243.936093 271.482951 
L 246.47881 270.328035 
L 249.657211 269.152821 
L 252.835611 268.229454 
L 256.649689 267.388432 
L 260.463774 266.772744 
L 264.913529 266.264196 
L 270.634659 265.839977 
L 278.262815 265.522195 
L 289.069378 265.322373 
L 308.139781 265.234235 
L 311.318182 265.231768 
L 311.318182 265.231768 
" clip-path="url(#pdda6be11cf)" style="fill: none; stroke: #8c564b; stroke-width: 1.5; stroke-linecap: square"/>
   </g>
   <g id="line2d_20">
    <path d="M 57.681818 282.141095 
L 63.402942 280.870284 
L 68.488375 279.525444 
L 73.573821 277.955213 
L 78.659254 276.142062 
L 83.7447 274.075989 
L 88.83014 271.758369 
L 93.915579 269.206544 
L 100.272386 265.749968 
L 112.985988 258.689853 
L 116.164389 257.207379 
L 118.707106 256.260726 
L 120.614145 255.762168 
L 122.521184 255.515575 
L 123.792545 255.531247 
L 125.063907 255.724719 
L 126.335268 256.129478 
L 127.606623 256.782689 
L 128.877991 257.724336 
L 130.149352 258.99546 
L 131.420714 260.635436 
L 132.692069 262.677939 
L 133.963431 265.145784 
L 135.234792 268.04462 
L 137.141831 273.153701 
L 139.04887 278.996676 
L 143.498632 293.235705 
L 144.769991 296.737249 
L 146.041349 299.671158 
L 147.31271 301.876912 
L 147.948391 302.660277 
L 148.584072 303.207543 
L 149.219749 303.502324 
L 149.85543 303.528848 
L 150.491111 303.271916 
L 151.126789 302.716789 
L 151.762469 301.849181 
L 152.39815 300.655328 
L 153.033831 299.122058 
L 153.669511 297.23702 
L 154.940876 292.367961 
L 156.212234 285.97769 
L 157.483596 278.032563 
L 158.754957 268.550089 
L 160.026315 257.609585 
L 161.933355 238.797675 
L 164.476068 210.427324 
L 170.197195 144.218824 
L 172.104235 124.972902 
L 174.011274 108.410134 
L 175.28264 99.023411 
L 176.554 90.977986 
L 177.82536 84.228508 
L 179.09672 78.696012 
L 180.368073 74.28684 
L 181.639433 70.909674 
L 182.910794 68.48965 
L 183.546474 67.622353 
L 184.182154 66.979036 
L 184.817839 66.559325 
L 185.453519 66.365441 
L 186.089199 66.402354 
L 186.724879 66.677901 
L 187.360559 67.2029 
L 187.996239 67.991174 
L 188.631919 69.059543 
L 189.2676 70.427777 
L 189.903285 72.118401 
L 190.538964 74.156372 
L 191.810325 79.383838 
L 193.081685 86.337746 
L 194.353045 95.235123 
L 195.62441 106.235857 
L 196.895771 119.383164 
L 198.167131 134.542763 
L 200.074164 160.218375 
L 203.888245 213.779652 
L 205.79529 236.747116 
L 207.06665 249.523133 
L 208.33801 260.110096 
L 209.60937 268.57834 
L 210.88073 275.11806 
L 212.152088 279.981432 
L 213.42345 283.43791 
L 214.05913 284.720007 
L 214.694811 285.745047 
L 215.330489 286.540832 
L 215.966169 287.133026 
L 216.60185 287.54516 
L 217.237528 287.798635 
L 217.873208 287.912824 
L 219.14457 287.791531 
L 220.415928 287.300692 
L 221.68729 286.53587 
L 223.594329 285.03703 
L 226.137049 282.66673 
L 233.129527 275.896596 
L 236.307931 273.217753 
L 238.850654 271.345097 
L 241.39337 269.71863 
L 243.936093 268.327527 
L 246.47881 267.152371 
L 249.657211 265.950858 
L 252.835611 265.001231 
L 256.649689 264.129807 
L 260.463774 263.48588 
L 264.913529 262.947508 
L 270.634659 262.489632 
L 278.262815 262.134004 
L 289.069378 261.889828 
L 307.504104 261.738998 
L 311.318182 261.723567 
L 311.318182 261.723567 
" clip-path="url(#pdda6be11cf)" style="fill: none; stroke: #e377c2; stroke-width: 1.5; stroke-linecap: square"/>
   </g>
   <g id="patch_3">
    <path d="M 45 320.4 
L 45 43.2 
" style="fill: none; stroke: #000000; stroke-width: 0.8; stroke-linejoin: miter; stroke-linecap: square"/>
   </g>
   <g id="patch_4">
    <path d="M 324 320.4 
L 324 43.2 
" style="fill: none; stroke: #000000; stroke-width: 0.8; stroke-linejoin: miter; stroke-linecap: square"/>
   </g>
   <g id="patch_5">
    <path d="M 45 320.4 
L 324 320.4 
" style="fill: none; stroke: #000000; stroke-width: 0.8; stroke-linejoin: miter; stroke-linecap: square"/>
   </g>
   <g id="patch_6">
    <path d="M 45 43.2 
L 324 43.2 
" style="fill: none; stroke: #000000; stroke-width: 0.8; stroke-linejoin: miter; stroke-linecap: square"/>
   </g>
   <g id="text_14">
    <!-- Prediction Curves -->
    <g transform="translate(131.961563 37.2)scale(0.12 -0.12)">
     <defs>
      <path id="DejaVuSans-50" d="M 1259 4147 
L 1259 2394 
L 2053 2394 
Q 2494 2394 2734 2622 
Q 2975 2850 2975 3272 
Q 2975 3691 2734 3919 
Q 2494 4147 2053 4147 
L 1259 4147 
z
M 628 4666 
L 2053 4666 
Q 2838 4666 3239 4311 
Q 3641 3956 3641 3272 
Q 3641 2581 3239 2228 
Q 2838 1875 2053 1875 
L 1259 1875 
L 1259 0 
L 628 0 
L 628 4666 
z
" transform="scale(0.015625)"/>
      <path id="DejaVuSans-72" d="M 2631 2963 
Q 2534 3019 2420 3045 
Q 2306 3072 2169 3072 
Q 1681 3072 1420 2755 
Q 1159 2438 1159 1844 
L 1159 0 
L 581 0 
L 581 3500 
L 1159 3500 
L 1159 2956 
Q 1341 3275 1631 3429 
Q 1922 3584 2338 3584 
Q 2397 3584 2469 3576 
Q 2541 3569 2628 3553 
L 2631 2963 
z
" transform="scale(0.015625)"/>
      <path id="DejaVuSans-65" d="M 3597 1894 
L 3597 1613 
L 953 1613 
Q 991 1019 1311 708 
Q 1631 397 2203 397 
Q 2534 397 2845 478 
Q 3156 559 3463 722 
L 3463 178 
Q 3153 47 2828 -22 
Q 2503 -91 2169 -91 
Q 1331 -91 842 396 
Q 353 884 353 1716 
Q 353 2575 817 3079 
Q 1281 3584 2069 3584 
Q 2775 3584 3186 3129 
Q 3597 2675 3597 1894 
z
M 3022 2063 
Q 3016 2534 2758 2815 
Q 2500 3097 2075 3097 
Q 1594 3097 1305 2825 
Q 1016 2553 972 2059 
L 3022 2063 
z
" transform="scale(0.015625)"/>
      <path id="DejaVuSans-64" d="M 2906 2969 
L 2906 4863 
L 3481 4863 
L 3481 0 
L 2906 0 
L 2906 525 
Q 2725 213 2448 61 
Q 2172 -91 1784 -91 
Q 1150 -91 751 415 
Q 353 922 353 1747 
Q 353 2572 751 3078 
Q 1150 3584 1784 3584 
Q 2172 3584 2448 3432 
Q 2725 3281 2906 2969 
z
M 947 1747 
Q 947 1113 1208 752 
Q 1469 391 1925 391 
Q 2381 391 2643 752 
Q 2906 1113 2906 1747 
Q 2906 2381 2643 2742 
Q 2381 3103 1925 3103 
Q 1469 3103 1208 2742 
Q 947 2381 947 1747 
z
" transform="scale(0.015625)"/>
      <path id="DejaVuSans-69" d="M 603 3500 
L 1178 3500 
L 1178 0 
L 603 0 
L 603 3500 
z
M 603 4863 
L 1178 4863 
L 1178 4134 
L 603 4134 
L 603 4863 
z
" transform="scale(0.015625)"/>
      <path id="DejaVuSans-63" d="M 3122 3366 
L 3122 2828 
Q 2878 2963 2633 3030 
Q 2388 3097 2138 3097 
Q 1578 3097 1268 2742 
Q 959 2388 959 1747 
Q 959 1106 1268 751 
Q 1578 397 2138 397 
Q 2388 397 2633 464 
Q 2878 531 3122 666 
L 3122 134 
Q 2881 22 2623 -34 
Q 2366 -91 2075 -91 
Q 1284 -91 818 406 
Q 353 903 353 1747 
Q 353 2603 823 3093 
Q 1294 3584 2113 3584 
Q 2378 3584 2631 3529 
Q 2884 3475 3122 3366 
z
" transform="scale(0.015625)"/>
      <path id="DejaVuSans-74" d="M 1172 4494 
L 1172 3500 
L 2356 3500 
L 2356 3053 
L 1172 3053 
L 1172 1153 
Q 1172 725 1289 603 
Q 1406 481 1766 481 
L 2356 481 
L 2356 0 
L 1766 0 
Q 1100 0 847 248 
Q 594 497 594 1153 
L 594 3053 
L 172 3053 
L 172 3500 
L 594 3500 
L 594 4494 
L 1172 4494 
z
" transform="scale(0.015625)"/>
      <path id="DejaVuSans-6f" d="M 1959 3097 
Q 1497 3097 1228 2736 
Q 959 2375 959 1747 
Q 959 1119 1226 758 
Q 1494 397 1959 397 
Q 2419 397 2687 759 
Q 2956 1122 2956 1747 
Q 2956 2369 2687 2733 
Q 2419 3097 1959 3097 
z
M 1959 3584 
Q 2709 3584 3137 3096 
Q 3566 2609 3566 1747 
Q 3566 888 3137 398 
Q 2709 -91 1959 -91 
Q 1206 -91 779 398 
Q 353 888 353 1747 
Q 353 2609 779 3096 
Q 1206 3584 1959 3584 
z
" transform="scale(0.015625)"/>
      <path id="DejaVuSans-6e" d="M 3513 2113 
L 3513 0 
L 2938 0 
L 2938 2094 
Q 2938 2591 2744 2837 
Q 2550 3084 2163 3084 
Q 1697 3084 1428 2787 
Q 1159 2491 1159 1978 
L 1159 0 
L 581 0 
L 581 3500 
L 1159 3500 
L 1159 2956 
Q 1366 3272 1645 3428 
Q 1925 3584 2291 3584 
Q 2894 3584 3203 3211 
Q 3513 2838 3513 2113 
z
" transform="scale(0.015625)"/>
      <path id="DejaVuSans-20" transform="scale(0.015625)"/>
      <path id="DejaVuSans-43" d="M 4122 4306 
L 4122 3641 
Q 3803 3938 3442 4084 
Q 3081 4231 2675 4231 
Q 1875 4231 1450 3742 
Q 1025 3253 1025 2328 
Q 1025 1406 1450 917 
Q 1875 428 2675 428 
Q 3081 428 3442 575 
Q 3803 722 4122 1019 
L 4122 359 
Q 3791 134 3420 21 
Q 3050 -91 2638 -91 
Q 1578 -91 968 557 
Q 359 1206 359 2328 
Q 359 3453 968 4101 
Q 1578 4750 2638 4750 
Q 3056 4750 3426 4639 
Q 3797 4528 4122 4306 
z
" transform="scale(0.015625)"/>
      <path id="DejaVuSans-75" d="M 544 1381 
L 544 3500 
L 1119 3500 
L 1119 1403 
Q 1119 906 1312 657 
Q 1506 409 1894 409 
Q 2359 409 2629 706 
Q 2900 1003 2900 1516 
L 2900 3500 
L 3475 3500 
L 3475 0 
L 2900 0 
L 2900 538 
Q 2691 219 2414 64 
Q 2138 -91 1772 -91 
Q 1169 -91 856 284 
Q 544 659 544 1381 
z
M 1991 3584 
L 1991 3584 
z
" transform="scale(0.015625)"/>
      <path id="DejaVuSans-76" d="M 191 3500 
L 800 3500 
L 1894 563 
L 2988 3500 
L 3597 3500 
L 2284 0 
L 1503 0 
L 191 3500 
z
" transform="scale(0.015625)"/>
      <path id="DejaVuSans-73" d="M 2834 3397 
L 2834 2853 
Q 2591 2978 2328 3040 
Q 2066 3103 1784 3103 
Q 1356 3103 1142 2972 
Q 928 2841 928 2578 
Q 928 2378 1081 2264 
Q 1234 2150 1697 2047 
L 1894 2003 
Q 2506 1872 2764 1633 
Q 3022 1394 3022 966 
Q 3022 478 2636 193 
Q 2250 -91 1575 -91 
Q 1294 -91 989 -36 
Q 684 19 347 128 
L 347 722 
Q 666 556 975 473 
Q 1284 391 1588 391 
Q 1994 391 2212 530 
Q 2431 669 2431 922 
Q 2431 1156 2273 1281 
Q 2116 1406 1581 1522 
L 1381 1569 
Q 847 1681 609 1914 
Q 372 2147 372 2553 
Q 372 3047 722 3315 
Q 1072 3584 1716 3584 
Q 2034 3584 2315 3537 
Q 2597 3491 2834 3397 
z
" transform="scale(0.015625)"/>
     </defs>
     <use xlink:href="#DejaVuSans-50"/>
     <use xlink:href="#DejaVuSans-72" x="58.552734"/>
     <use xlink:href="#DejaVuSans-65" x="97.416016"/>
     <use xlink:href="#DejaVuSans-64" x="158.939453"/>
     <use xlink:href="#DejaVuSans-69" x="222.416016"/>
     <use xlink:href="#DejaVuSans-63" x="250.199219"/>
     <use xlink:href="#DejaVuSans-74" x="305.179688"/>
     <use xlink:href="#DejaVuSans-69" x="344.388672"/>
     <use xlink:href="#DejaVuSans-6f" x="372.171875"/>
     <use xlink:href="#DejaVuSans-6e" x="433.353516"/>
     <use xlink:href="#DejaVuSans-20" x="496.732422"/>
     <use xlink:href="#DejaVuSans-43" x="528.519531"/>
     <use xlink:href="#DejaVuSans-75" x="598.34375"/>
     <use xlink:href="#DejaVuSans-72" x="661.722656"/>
     <use xlink:href="#DejaVuSans-76" x="702.835938"/>
     <use xlink:href="#DejaVuSans-65" x="762.015625"/>
     <use xlink:href="#DejaVuSans-73" x="823.539062"/>
    </g>
   </g>
   <g id="legend_1">
    <g id="patch_7">
     <path d="M 173.05625 234.673437 
L 317 234.673437 
Q 319 234.673437 319 232.673437 
L 319 130.926562 
Q 319 128.926562 317 128.926562 
L 173.05625 128.926562 
Q 171.05625 128.926562 171.05625 130.926562 
L 171.05625 232.673437 
Q 171.05625 234.673437 173.05625 234.673437 
z
" style="fill: #ffffff; opacity: 0.8; stroke: #cccccc; stroke-linejoin: miter"/>
    </g>
    <g id="line2d_21">
     <path d="M 175.05625 137.025 
L 185.05625 137.025 
L 195.05625 137.025 
" style="fill: none; stroke: #1f77b4; stroke-width: 1.5; stroke-linecap: square"/>
    </g>
    <g id="text_15">
     <!-- Function with noise -->
     <g transform="translate(203.05625 140.525)scale(0.1 -0.1)">
      <defs>
       <path id="DejaVuSans-46" d="M 628 4666 
L 3309 4666 
L 3309 4134 
L 1259 4134 
L 1259 2759 
L 3109 2759 
L 3109 2228 
L 1259 2228 
L 1259 0 
L 628 0 
L 628 4666 
z
" transform="scale(0.015625)"/>
       <path id="DejaVuSans-77" d="M 269 3500 
L 844 3500 
L 1563 769 
L 2278 3500 
L 2956 3500 
L 3675 769 
L 4391 3500 
L 4966 3500 
L 4050 0 
L 3372 0 
L 2619 2869 
L 1863 0 
L 1184 0 
L 269 3500 
z
" transform="scale(0.015625)"/>
       <path id="DejaVuSans-68" d="M 3513 2113 
L 3513 0 
L 2938 0 
L 2938 2094 
Q 2938 2591 2744 2837 
Q 2550 3084 2163 3084 
Q 1697 3084 1428 2787 
Q 1159 2491 1159 1978 
L 1159 0 
L 581 0 
L 581 4863 
L 1159 4863 
L 1159 2956 
Q 1366 3272 1645 3428 
Q 1925 3584 2291 3584 
Q 2894 3584 3203 3211 
Q 3513 2838 3513 2113 
z
" transform="scale(0.015625)"/>
      </defs>
      <use xlink:href="#DejaVuSans-46"/>
      <use xlink:href="#DejaVuSans-75" x="52.019531"/>
      <use xlink:href="#DejaVuSans-6e" x="115.398438"/>
      <use xlink:href="#DejaVuSans-63" x="178.777344"/>
      <use xlink:href="#DejaVuSans-74" x="233.757812"/>
      <use xlink:href="#DejaVuSans-69" x="272.966797"/>
      <use xlink:href="#DejaVuSans-6f" x="300.75"/>
      <use xlink:href="#DejaVuSans-6e" x="361.931641"/>
      <use xlink:href="#DejaVuSans-20" x="425.310547"/>
      <use xlink:href="#DejaVuSans-77" x="457.097656"/>
      <use xlink:href="#DejaVuSans-69" x="538.884766"/>
      <use xlink:href="#DejaVuSans-74" x="566.667969"/>
      <use xlink:href="#DejaVuSans-68" x="605.876953"/>
      <use xlink:href="#DejaVuSans-20" x="669.255859"/>
      <use xlink:href="#DejaVuSans-6e" x="701.042969"/>
      <use xlink:href="#DejaVuSans-6f" x="764.421875"/>
      <use xlink:href="#DejaVuSans-69" x="825.603516"/>
      <use xlink:href="#DejaVuSans-73" x="853.386719"/>
      <use xlink:href="#DejaVuSans-65" x="905.486328"/>
     </g>
    </g>
    <g id="line2d_22">
     <path d="M 175.05625 151.703125 
L 185.05625 151.703125 
L 195.05625 151.703125 
" style="fill: none; stroke: #ff7f0e; stroke-width: 1.5; stroke-linecap: square"/>
    </g>
    <g id="text_16">
     <!-- Prediction 1 -->
     <g transform="translate(203.05625 155.203125)scale(0.1 -0.1)">
      <use xlink:href="#DejaVuSans-50"/>
      <use xlink:href="#DejaVuSans-72" x="58.552734"/>
      <use xlink:href="#DejaVuSans-65" x="97.416016"/>
      <use xlink:href="#DejaVuSans-64" x="158.939453"/>
      <use xlink:href="#DejaVuSans-69" x="222.416016"/>
      <use xlink:href="#DejaVuSans-63" x="250.199219"/>
      <use xlink:href="#DejaVuSans-74" x="305.179688"/>
      <use xlink:href="#DejaVuSans-69" x="344.388672"/>
      <use xlink:href="#DejaVuSans-6f" x="372.171875"/>
      <use xlink:href="#DejaVuSans-6e" x="433.353516"/>
      <use xlink:href="#DejaVuSans-20" x="496.732422"/>
      <use xlink:href="#DejaVuSans-31" x="528.519531"/>
     </g>
    </g>
    <g id="line2d_23">
     <path d="M 175.05625 166.38125 
L 185.05625 166.38125 
L 195.05625 166.38125 
" style="fill: none; stroke: #2ca02c; stroke-width: 1.5; stroke-linecap: square"/>
    </g>
    <g id="text_17">
     <!-- Prediction 2 -->
     <g transform="translate(203.05625 169.88125)scale(0.1 -0.1)">
      <use xlink:href="#DejaVuSans-50"/>
      <use xlink:href="#DejaVuSans-72" x="58.552734"/>
      <use xlink:href="#DejaVuSans-65" x="97.416016"/>
      <use xlink:href="#DejaVuSans-64" x="158.939453"/>
      <use xlink:href="#DejaVuSans-69" x="222.416016"/>
      <use xlink:href="#DejaVuSans-63" x="250.199219"/>
      <use xlink:href="#DejaVuSans-74" x="305.179688"/>
      <use xlink:href="#DejaVuSans-69" x="344.388672"/>
      <use xlink:href="#DejaVuSans-6f" x="372.171875"/>
      <use xlink:href="#DejaVuSans-6e" x="433.353516"/>
      <use xlink:href="#DejaVuSans-20" x="496.732422"/>
      <use xlink:href="#DejaVuSans-32" x="528.519531"/>
     </g>
    </g>
    <g id="line2d_24">
     <path d="M 175.05625 181.059375 
L 185.05625 181.059375 
L 195.05625 181.059375 
" style="fill: none; stroke: #d62728; stroke-width: 1.5; stroke-linecap: square"/>
    </g>
    <g id="text_18">
     <!-- Prediction 3 -->
     <g transform="translate(203.05625 184.559375)scale(0.1 -0.1)">
      <use xlink:href="#DejaVuSans-50"/>
      <use xlink:href="#DejaVuSans-72" x="58.552734"/>
      <use xlink:href="#DejaVuSans-65" x="97.416016"/>
      <use xlink:href="#DejaVuSans-64" x="158.939453"/>
      <use xlink:href="#DejaVuSans-69" x="222.416016"/>
      <use xlink:href="#DejaVuSans-63" x="250.199219"/>
      <use xlink:href="#DejaVuSans-74" x="305.179688"/>
      <use xlink:href="#DejaVuSans-69" x="344.388672"/>
      <use xlink:href="#DejaVuSans-6f" x="372.171875"/>
      <use xlink:href="#DejaVuSans-6e" x="433.353516"/>
      <use xlink:href="#DejaVuSans-20" x="496.732422"/>
      <use xlink:href="#DejaVuSans-33" x="528.519531"/>
     </g>
    </g>
    <g id="line2d_25">
     <path d="M 175.05625 195.7375 
L 185.05625 195.7375 
L 195.05625 195.7375 
" style="fill: none; stroke: #9467bd; stroke-width: 1.5; stroke-linecap: square"/>
    </g>
    <g id="text_19">
     <!-- Prediction 4 -->
     <g transform="translate(203.05625 199.2375)scale(0.1 -0.1)">
      <use xlink:href="#DejaVuSans-50"/>
      <use xlink:href="#DejaVuSans-72" x="58.552734"/>
      <use xlink:href="#DejaVuSans-65" x="97.416016"/>
      <use xlink:href="#DejaVuSans-64" x="158.939453"/>
      <use xlink:href="#DejaVuSans-69" x="222.416016"/>
      <use xlink:href="#DejaVuSans-63" x="250.199219"/>
      <use xlink:href="#DejaVuSans-74" x="305.179688"/>
      <use xlink:href="#DejaVuSans-69" x="344.388672"/>
      <use xlink:href="#DejaVuSans-6f" x="372.171875"/>
      <use xlink:href="#DejaVuSans-6e" x="433.353516"/>
      <use xlink:href="#DejaVuSans-20" x="496.732422"/>
      <use xlink:href="#DejaVuSans-34" x="528.519531"/>
     </g>
    </g>
    <g id="line2d_26">
     <path d="M 175.05625 210.415625 
L 185.05625 210.415625 
L 195.05625 210.415625 
" style="fill: none; stroke: #8c564b; stroke-width: 1.5; stroke-linecap: square"/>
    </g>
    <g id="text_20">
     <!-- Prediction 5 -->
     <g transform="translate(203.05625 213.915625)scale(0.1 -0.1)">
      <use xlink:href="#DejaVuSans-50"/>
      <use xlink:href="#DejaVuSans-72" x="58.552734"/>
      <use xlink:href="#DejaVuSans-65" x="97.416016"/>
      <use xlink:href="#DejaVuSans-64" x="158.939453"/>
      <use xlink:href="#DejaVuSans-69" x="222.416016"/>
      <use xlink:href="#DejaVuSans-63" x="250.199219"/>
      <use xlink:href="#DejaVuSans-74" x="305.179688"/>
      <use xlink:href="#DejaVuSans-69" x="344.388672"/>
      <use xlink:href="#DejaVuSans-6f" x="372.171875"/>
      <use xlink:href="#DejaVuSans-6e" x="433.353516"/>
      <use xlink:href="#DejaVuSans-20" x="496.732422"/>
      <use xlink:href="#DejaVuSans-35" x="528.519531"/>
     </g>
    </g>
    <g id="line2d_27">
     <path d="M 175.05625 225.09375 
L 185.05625 225.09375 
L 195.05625 225.09375 
" style="fill: none; stroke: #e377c2; stroke-width: 1.5; stroke-linecap: square"/>
    </g>
    <g id="text_21">
     <!-- Average of Predictions -->
     <g transform="translate(203.05625 228.59375)scale(0.1 -0.1)">
      <defs>
       <path id="DejaVuSans-41" d="M 2188 4044 
L 1331 1722 
L 3047 1722 
L 2188 4044 
z
M 1831 4666 
L 2547 4666 
L 4325 0 
L 3669 0 
L 3244 1197 
L 1141 1197 
L 716 0 
L 50 0 
L 1831 4666 
z
" transform="scale(0.015625)"/>
       <path id="DejaVuSans-61" d="M 2194 1759 
Q 1497 1759 1228 1600 
Q 959 1441 959 1056 
Q 959 750 1161 570 
Q 1363 391 1709 391 
Q 2188 391 2477 730 
Q 2766 1069 2766 1631 
L 2766 1759 
L 2194 1759 
z
M 3341 1997 
L 3341 0 
L 2766 0 
L 2766 531 
Q 2569 213 2275 61 
Q 1981 -91 1556 -91 
Q 1019 -91 701 211 
Q 384 513 384 1019 
Q 384 1609 779 1909 
Q 1175 2209 1959 2209 
L 2766 2209 
L 2766 2266 
Q 2766 2663 2505 2880 
Q 2244 3097 1772 3097 
Q 1472 3097 1187 3025 
Q 903 2953 641 2809 
L 641 3341 
Q 956 3463 1253 3523 
Q 1550 3584 1831 3584 
Q 2591 3584 2966 3190 
Q 3341 2797 3341 1997 
z
" transform="scale(0.015625)"/>
       <path id="DejaVuSans-67" d="M 2906 1791 
Q 2906 2416 2648 2759 
Q 2391 3103 1925 3103 
Q 1463 3103 1205 2759 
Q 947 2416 947 1791 
Q 947 1169 1205 825 
Q 1463 481 1925 481 
Q 2391 481 2648 825 
Q 2906 1169 2906 1791 
z
M 3481 434 
Q 3481 -459 3084 -895 
Q 2688 -1331 1869 -1331 
Q 1566 -1331 1297 -1286 
Q 1028 -1241 775 -1147 
L 775 -588 
Q 1028 -725 1275 -790 
Q 1522 -856 1778 -856 
Q 2344 -856 2625 -561 
Q 2906 -266 2906 331 
L 2906 616 
Q 2728 306 2450 153 
Q 2172 0 1784 0 
Q 1141 0 747 490 
Q 353 981 353 1791 
Q 353 2603 747 3093 
Q 1141 3584 1784 3584 
Q 2172 3584 2450 3431 
Q 2728 3278 2906 2969 
L 2906 3500 
L 3481 3500 
L 3481 434 
z
" transform="scale(0.015625)"/>
       <path id="DejaVuSans-66" d="M 2375 4863 
L 2375 4384 
L 1825 4384 
Q 1516 4384 1395 4259 
Q 1275 4134 1275 3809 
L 1275 3500 
L 2222 3500 
L 2222 3053 
L 1275 3053 
L 1275 0 
L 697 0 
L 697 3053 
L 147 3053 
L 147 3500 
L 697 3500 
L 697 3744 
Q 697 4328 969 4595 
Q 1241 4863 1831 4863 
L 2375 4863 
z
" transform="scale(0.015625)"/>
      </defs>
      <use xlink:href="#DejaVuSans-41"/>
      <use xlink:href="#DejaVuSans-76" x="62.533203"/>
      <use xlink:href="#DejaVuSans-65" x="121.712891"/>
      <use xlink:href="#DejaVuSans-72" x="183.236328"/>
      <use xlink:href="#DejaVuSans-61" x="224.349609"/>
      <use xlink:href="#DejaVuSans-67" x="285.628906"/>
      <use xlink:href="#DejaVuSans-65" x="349.105469"/>
      <use xlink:href="#DejaVuSans-20" x="410.628906"/>
      <use xlink:href="#DejaVuSans-6f" x="442.416016"/>
      <use xlink:href="#DejaVuSans-66" x="503.597656"/>
      <use xlink:href="#DejaVuSans-20" x="538.802734"/>
      <use xlink:href="#DejaVuSans-50" x="570.589844"/>
      <use xlink:href="#DejaVuSans-72" x="629.142578"/>
      <use xlink:href="#DejaVuSans-65" x="668.005859"/>
      <use xlink:href="#DejaVuSans-64" x="729.529297"/>
      <use xlink:href="#DejaVuSans-69" x="793.005859"/>
      <use xlink:href="#DejaVuSans-63" x="820.789062"/>
      <use xlink:href="#DejaVuSans-74" x="875.769531"/>
      <use xlink:href="#DejaVuSans-69" x="914.978516"/>
      <use xlink:href="#DejaVuSans-6f" x="942.761719"/>
      <use xlink:href="#DejaVuSans-6e" x="1003.943359"/>
      <use xlink:href="#DejaVuSans-73" x="1067.322266"/>
     </g>
    </g>
   </g>
  </g>
 </g>
 <defs>
  <clipPath id="pdda6be11cf">
   <rect x="45" y="43.2" width="279" height="277.2"/>
  </clipPath>
 </defs>
</svg>
