<?xml version="1.0" encoding="utf-8" standalone="no"?>
<!DOCTYPE svg PUBLIC "-//W3C//DTD SVG 1.1//EN"
  "http://www.w3.org/Graphics/SVG/1.1/DTD/svg11.dtd">
<svg xmlns:xlink="http://www.w3.org/1999/xlink" width="360pt" height="360pt" viewBox="0 0 360 360" xmlns="http://www.w3.org/2000/svg" version="1.1">
 <metadata>
  <rdf:RDF xmlns:dc="http://purl.org/dc/elements/1.1/" xmlns:cc="http://creativecommons.org/ns#" xmlns:rdf="http://www.w3.org/1999/02/22-rdf-syntax-ns#">
   <cc:Work>
    <dc:type rdf:resource="http://purl.org/dc/dcmitype/StillImage"/>
    <dc:date>2022-11-15T12:29:53.927191</dc:date>
    <dc:format>image/svg+xml</dc:format>
    <dc:creator>
     <cc:Agent>
      <dc:title>Matplotlib v3.5.3, https://matplotlib.org/</dc:title>
     </cc:Agent>
    </dc:creator>
   </cc:Work>
  </rdf:RDF>
 </metadata>
 <defs>
  <style type="text/css">*{stroke-linejoin: round; stroke-linecap: butt}</style>
 </defs>
 <g id="figure_1">
  <g id="patch_1">
   <path d="M 0 360 
L 360 360 
L 360 0 
L 0 0 
z
" style="fill: #ffffff"/>
  </g>
  <g id="axes_1">
   <g id="patch_2">
    <path d="M 45 320.4 
L 324 320.4 
L 324 43.2 
L 45 43.2 
z
" style="fill: #ffffff"/>
   </g>
   <g id="matplotlib.axis_1">
    <g id="xtick_1">
     <g id="line2d_1">
      <defs>
       <path id="m840c2513bb" d="M 0 0 
L 0 3.5 
" style="stroke: #000000; stroke-width: 0.8"/>
      </defs>
      <g>
       <use xlink:href="#m840c2513bb" x="57.681818" y="320.4" style="stroke: #000000; stroke-width: 0.8"/>
      </g>
     </g>
     <g id="text_1">
      <!-- −3 -->
      <g transform="translate(50.310724 334.998438)scale(0.1 -0.1)">
       <defs>
        <path id="DejaVuSans-2212" d="M 678 2272 
L 4684 2272 
L 4684 1741 
L 678 1741 
L 678 2272 
z
" transform="scale(0.015625)"/>
        <path id="DejaVuSans-33" d="M 2597 2516 
Q 3050 2419 3304 2112 
Q 3559 1806 3559 1356 
Q 3559 666 3084 287 
Q 2609 -91 1734 -91 
Q 1441 -91 1130 -33 
Q 819 25 488 141 
L 488 750 
Q 750 597 1062 519 
Q 1375 441 1716 441 
Q 2309 441 2620 675 
Q 2931 909 2931 1356 
Q 2931 1769 2642 2001 
Q 2353 2234 1838 2234 
L 1294 2234 
L 1294 2753 
L 1863 2753 
Q 2328 2753 2575 2939 
Q 2822 3125 2822 3475 
Q 2822 3834 2567 4026 
Q 2313 4219 1838 4219 
Q 1578 4219 1281 4162 
Q 984 4106 628 3988 
L 628 4550 
Q 988 4650 1302 4700 
Q 1616 4750 1894 4750 
Q 2613 4750 3031 4423 
Q 3450 4097 3450 3541 
Q 3450 3153 3228 2886 
Q 3006 2619 2597 2516 
z
" transform="scale(0.015625)"/>
       </defs>
       <use xlink:href="#DejaVuSans-2212"/>
       <use xlink:href="#DejaVuSans-33" x="83.789062"/>
      </g>
     </g>
    </g>
    <g id="xtick_2">
     <g id="line2d_2">
      <g>
       <use xlink:href="#m840c2513bb" x="99.954545" y="320.4" style="stroke: #000000; stroke-width: 0.8"/>
      </g>
     </g>
     <g id="text_2">
      <!-- −2 -->
      <g transform="translate(92.583452 334.998438)scale(0.1 -0.1)">
       <defs>
        <path id="DejaVuSans-32" d="M 1228 531 
L 3431 531 
L 3431 0 
L 469 0 
L 469 531 
Q 828 903 1448 1529 
Q 2069 2156 2228 2338 
Q 2531 2678 2651 2914 
Q 2772 3150 2772 3378 
Q 2772 3750 2511 3984 
Q 2250 4219 1831 4219 
Q 1534 4219 1204 4116 
Q 875 4013 500 3803 
L 500 4441 
Q 881 4594 1212 4672 
Q 1544 4750 1819 4750 
Q 2544 4750 2975 4387 
Q 3406 4025 3406 3419 
Q 3406 3131 3298 2873 
Q 3191 2616 2906 2266 
Q 2828 2175 2409 1742 
Q 1991 1309 1228 531 
z
" transform="scale(0.015625)"/>
       </defs>
       <use xlink:href="#DejaVuSans-2212"/>
       <use xlink:href="#DejaVuSans-32" x="83.789062"/>
      </g>
     </g>
    </g>
    <g id="xtick_3">
     <g id="line2d_3">
      <g>
       <use xlink:href="#m840c2513bb" x="142.227273" y="320.4" style="stroke: #000000; stroke-width: 0.8"/>
      </g>
     </g>
     <g id="text_3">
      <!-- −1 -->
      <g transform="translate(134.856179 334.998438)scale(0.1 -0.1)">
       <defs>
        <path id="DejaVuSans-31" d="M 794 531 
L 1825 531 
L 1825 4091 
L 703 3866 
L 703 4441 
L 1819 4666 
L 2450 4666 
L 2450 531 
L 3481 531 
L 3481 0 
L 794 0 
L 794 531 
z
" transform="scale(0.015625)"/>
       </defs>
       <use xlink:href="#DejaVuSans-2212"/>
       <use xlink:href="#DejaVuSans-31" x="83.789062"/>
      </g>
     </g>
    </g>
    <g id="xtick_4">
     <g id="line2d_4">
      <g>
       <use xlink:href="#m840c2513bb" x="184.5" y="320.4" style="stroke: #000000; stroke-width: 0.8"/>
      </g>
     </g>
     <g id="text_4">
      <!-- 0 -->
      <g transform="translate(181.31875 334.998438)scale(0.1 -0.1)">
       <defs>
        <path id="DejaVuSans-30" d="M 2034 4250 
Q 1547 4250 1301 3770 
Q 1056 3291 1056 2328 
Q 1056 1369 1301 889 
Q 1547 409 2034 409 
Q 2525 409 2770 889 
Q 3016 1369 3016 2328 
Q 3016 3291 2770 3770 
Q 2525 4250 2034 4250 
z
M 2034 4750 
Q 2819 4750 3233 4129 
Q 3647 3509 3647 2328 
Q 3647 1150 3233 529 
Q 2819 -91 2034 -91 
Q 1250 -91 836 529 
Q 422 1150 422 2328 
Q 422 3509 836 4129 
Q 1250 4750 2034 4750 
z
" transform="scale(0.015625)"/>
       </defs>
       <use xlink:href="#DejaVuSans-30"/>
      </g>
     </g>
    </g>
    <g id="xtick_5">
     <g id="line2d_5">
      <g>
       <use xlink:href="#m840c2513bb" x="226.772727" y="320.4" style="stroke: #000000; stroke-width: 0.8"/>
      </g>
     </g>
     <g id="text_5">
      <!-- 1 -->
      <g transform="translate(223.591477 334.998438)scale(0.1 -0.1)">
       <use xlink:href="#DejaVuSans-31"/>
      </g>
     </g>
    </g>
    <g id="xtick_6">
     <g id="line2d_6">
      <g>
       <use xlink:href="#m840c2513bb" x="269.045455" y="320.4" style="stroke: #000000; stroke-width: 0.8"/>
      </g>
     </g>
     <g id="text_6">
      <!-- 2 -->
      <g transform="translate(265.864205 334.998438)scale(0.1 -0.1)">
       <use xlink:href="#DejaVuSans-32"/>
      </g>
     </g>
    </g>
    <g id="xtick_7">
     <g id="line2d_7">
      <g>
       <use xlink:href="#m840c2513bb" x="311.318182" y="320.4" style="stroke: #000000; stroke-width: 0.8"/>
      </g>
     </g>
     <g id="text_7">
      <!-- 3 -->
      <g transform="translate(308.136932 334.998438)scale(0.1 -0.1)">
       <use xlink:href="#DejaVuSans-33"/>
      </g>
     </g>
    </g>
   </g>
   <g id="matplotlib.axis_2">
    <g id="ytick_1">
     <g id="line2d_8">
      <defs>
       <path id="m7b594cec34" d="M 0 0 
L -3.5 0 
" style="stroke: #000000; stroke-width: 0.8"/>
      </defs>
      <g>
       <use xlink:href="#m7b594cec34" x="45" y="287.462869" style="stroke: #000000; stroke-width: 0.8"/>
      </g>
     </g>
     <g id="text_8">
      <!-- $\mathdefault{10^{-4}}$ -->
      <g transform="translate(14.5 291.262088)scale(0.1 -0.1)">
       <defs>
        <path id="DejaVuSans-34" d="M 2419 4116 
L 825 1625 
L 2419 1625 
L 2419 4116 
z
M 2253 4666 
L 3047 4666 
L 3047 1625 
L 3713 1625 
L 3713 1100 
L 3047 1100 
L 3047 0 
L 2419 0 
L 2419 1100 
L 313 1100 
L 313 1709 
L 2253 4666 
z
" transform="scale(0.015625)"/>
       </defs>
       <use xlink:href="#DejaVuSans-31" transform="translate(0 0.684375)"/>
       <use xlink:href="#DejaVuSans-30" transform="translate(63.623047 0.684375)"/>
       <use xlink:href="#DejaVuSans-2212" transform="translate(128.203125 38.965625)scale(0.7)"/>
       <use xlink:href="#DejaVuSans-34" transform="translate(186.855469 38.965625)scale(0.7)"/>
      </g>
     </g>
    </g>
    <g id="ytick_2">
     <g id="line2d_9">
      <g>
       <use xlink:href="#m7b594cec34" x="45" y="246.423779" style="stroke: #000000; stroke-width: 0.8"/>
      </g>
     </g>
     <g id="text_9">
      <!-- $\mathdefault{10^{-3}}$ -->
      <g transform="translate(14.5 250.222997)scale(0.1 -0.1)">
       <use xlink:href="#DejaVuSans-31" transform="translate(0 0.765625)"/>
       <use xlink:href="#DejaVuSans-30" transform="translate(63.623047 0.765625)"/>
       <use xlink:href="#DejaVuSans-2212" transform="translate(128.203125 39.046875)scale(0.7)"/>
       <use xlink:href="#DejaVuSans-33" transform="translate(186.855469 39.046875)scale(0.7)"/>
      </g>
     </g>
    </g>
    <g id="ytick_3">
     <g id="line2d_10">
      <g>
       <use xlink:href="#m7b594cec34" x="45" y="205.384688" style="stroke: #000000; stroke-width: 0.8"/>
      </g>
     </g>
     <g id="text_10">
      <!-- $\mathdefault{10^{-2}}$ -->
      <g transform="translate(14.5 209.183907)scale(0.1 -0.1)">
       <use xlink:href="#DejaVuSans-31" transform="translate(0 0.765625)"/>
       <use xlink:href="#DejaVuSans-30" transform="translate(63.623047 0.765625)"/>
       <use xlink:href="#DejaVuSans-2212" transform="translate(128.203125 39.046875)scale(0.7)"/>
       <use xlink:href="#DejaVuSans-32" transform="translate(186.855469 39.046875)scale(0.7)"/>
      </g>
     </g>
    </g>
    <g id="ytick_4">
     <g id="line2d_11">
      <g>
       <use xlink:href="#m7b594cec34" x="45" y="164.345598" style="stroke: #000000; stroke-width: 0.8"/>
      </g>
     </g>
     <g id="text_11">
      <!-- $\mathdefault{10^{-1}}$ -->
      <g transform="translate(14.5 168.144817)scale(0.1 -0.1)">
       <use xlink:href="#DejaVuSans-31" transform="translate(0 0.684375)"/>
       <use xlink:href="#DejaVuSans-30" transform="translate(63.623047 0.684375)"/>
       <use xlink:href="#DejaVuSans-2212" transform="translate(128.203125 38.965625)scale(0.7)"/>
       <use xlink:href="#DejaVuSans-31" transform="translate(186.855469 38.965625)scale(0.7)"/>
      </g>
     </g>
    </g>
    <g id="ytick_5">
     <g id="line2d_12">
      <g>
       <use xlink:href="#m7b594cec34" x="45" y="123.306507" style="stroke: #000000; stroke-width: 0.8"/>
      </g>
     </g>
     <g id="text_12">
      <!-- $\mathdefault{10^{0}}$ -->
      <g transform="translate(20.4 127.105726)scale(0.1 -0.1)">
       <use xlink:href="#DejaVuSans-31" transform="translate(0 0.765625)"/>
       <use xlink:href="#DejaVuSans-30" transform="translate(63.623047 0.765625)"/>
       <use xlink:href="#DejaVuSans-30" transform="translate(128.203125 39.046875)scale(0.7)"/>
      </g>
     </g>
    </g>
    <g id="ytick_6">
     <g id="line2d_13">
      <g>
       <use xlink:href="#m7b594cec34" x="45" y="82.267417" style="stroke: #000000; stroke-width: 0.8"/>
      </g>
     </g>
     <g id="text_13">
      <!-- $\mathdefault{10^{1}}$ -->
      <g transform="translate(20.4 86.066636)scale(0.1 -0.1)">
       <use xlink:href="#DejaVuSans-31" transform="translate(0 0.684375)"/>
       <use xlink:href="#DejaVuSans-30" transform="translate(63.623047 0.684375)"/>
       <use xlink:href="#DejaVuSans-31" transform="translate(128.203125 38.965625)scale(0.7)"/>
      </g>
     </g>
    </g>
    <g id="ytick_7">
     <g id="line2d_14">
      <defs>
       <path id="mdedc4d97c2" d="M 0 0 
L -2 0 
" style="stroke: #000000; stroke-width: 0.6"/>
      </defs>
      <g>
       <use xlink:href="#mdedc4d97c2" x="45" y="316.147962" style="stroke: #000000; stroke-width: 0.6"/>
      </g>
     </g>
    </g>
    <g id="ytick_8">
     <g id="line2d_15">
      <g>
       <use xlink:href="#mdedc4d97c2" x="45" y="308.921337" style="stroke: #000000; stroke-width: 0.6"/>
      </g>
     </g>
    </g>
    <g id="ytick_9">
     <g id="line2d_16">
      <g>
       <use xlink:href="#mdedc4d97c2" x="45" y="303.793965" style="stroke: #000000; stroke-width: 0.6"/>
      </g>
     </g>
    </g>
    <g id="ytick_10">
     <g id="line2d_17">
      <g>
       <use xlink:href="#mdedc4d97c2" x="45" y="299.816866" style="stroke: #000000; stroke-width: 0.6"/>
      </g>
     </g>
    </g>
    <g id="ytick_11">
     <g id="line2d_18">
      <g>
       <use xlink:href="#mdedc4d97c2" x="45" y="296.56734" style="stroke: #000000; stroke-width: 0.6"/>
      </g>
     </g>
    </g>
    <g id="ytick_12">
     <g id="line2d_19">
      <g>
       <use xlink:href="#mdedc4d97c2" x="45" y="293.819905" style="stroke: #000000; stroke-width: 0.6"/>
      </g>
     </g>
    </g>
    <g id="ytick_13">
     <g id="line2d_20">
      <g>
       <use xlink:href="#mdedc4d97c2" x="45" y="291.439968" style="stroke: #000000; stroke-width: 0.6"/>
      </g>
     </g>
    </g>
    <g id="ytick_14">
     <g id="line2d_21">
      <g>
       <use xlink:href="#mdedc4d97c2" x="45" y="289.340715" style="stroke: #000000; stroke-width: 0.6"/>
      </g>
     </g>
    </g>
    <g id="ytick_15">
     <g id="line2d_22">
      <g>
       <use xlink:href="#mdedc4d97c2" x="45" y="275.108872" style="stroke: #000000; stroke-width: 0.6"/>
      </g>
     </g>
    </g>
    <g id="ytick_16">
     <g id="line2d_23">
      <g>
       <use xlink:href="#mdedc4d97c2" x="45" y="267.882247" style="stroke: #000000; stroke-width: 0.6"/>
      </g>
     </g>
    </g>
    <g id="ytick_17">
     <g id="line2d_24">
      <g>
       <use xlink:href="#mdedc4d97c2" x="45" y="262.754875" style="stroke: #000000; stroke-width: 0.6"/>
      </g>
     </g>
    </g>
    <g id="ytick_18">
     <g id="line2d_25">
      <g>
       <use xlink:href="#mdedc4d97c2" x="45" y="258.777776" style="stroke: #000000; stroke-width: 0.6"/>
      </g>
     </g>
    </g>
    <g id="ytick_19">
     <g id="line2d_26">
      <g>
       <use xlink:href="#mdedc4d97c2" x="45" y="255.52825" style="stroke: #000000; stroke-width: 0.6"/>
      </g>
     </g>
    </g>
    <g id="ytick_20">
     <g id="line2d_27">
      <g>
       <use xlink:href="#mdedc4d97c2" x="45" y="252.780814" style="stroke: #000000; stroke-width: 0.6"/>
      </g>
     </g>
    </g>
    <g id="ytick_21">
     <g id="line2d_28">
      <g>
       <use xlink:href="#mdedc4d97c2" x="45" y="250.400877" style="stroke: #000000; stroke-width: 0.6"/>
      </g>
     </g>
    </g>
    <g id="ytick_22">
     <g id="line2d_29">
      <g>
       <use xlink:href="#mdedc4d97c2" x="45" y="248.301625" style="stroke: #000000; stroke-width: 0.6"/>
      </g>
     </g>
    </g>
    <g id="ytick_23">
     <g id="line2d_30">
      <g>
       <use xlink:href="#mdedc4d97c2" x="45" y="234.069781" style="stroke: #000000; stroke-width: 0.6"/>
      </g>
     </g>
    </g>
    <g id="ytick_24">
     <g id="line2d_31">
      <g>
       <use xlink:href="#mdedc4d97c2" x="45" y="226.843156" style="stroke: #000000; stroke-width: 0.6"/>
      </g>
     </g>
    </g>
    <g id="ytick_25">
     <g id="line2d_32">
      <g>
       <use xlink:href="#mdedc4d97c2" x="45" y="221.715784" style="stroke: #000000; stroke-width: 0.6"/>
      </g>
     </g>
    </g>
    <g id="ytick_26">
     <g id="line2d_33">
      <g>
       <use xlink:href="#mdedc4d97c2" x="45" y="217.738685" style="stroke: #000000; stroke-width: 0.6"/>
      </g>
     </g>
    </g>
    <g id="ytick_27">
     <g id="line2d_34">
      <g>
       <use xlink:href="#mdedc4d97c2" x="45" y="214.489159" style="stroke: #000000; stroke-width: 0.6"/>
      </g>
     </g>
    </g>
    <g id="ytick_28">
     <g id="line2d_35">
      <g>
       <use xlink:href="#mdedc4d97c2" x="45" y="211.741724" style="stroke: #000000; stroke-width: 0.6"/>
      </g>
     </g>
    </g>
    <g id="ytick_29">
     <g id="line2d_36">
      <g>
       <use xlink:href="#mdedc4d97c2" x="45" y="209.361787" style="stroke: #000000; stroke-width: 0.6"/>
      </g>
     </g>
    </g>
    <g id="ytick_30">
     <g id="line2d_37">
      <g>
       <use xlink:href="#mdedc4d97c2" x="45" y="207.262534" style="stroke: #000000; stroke-width: 0.6"/>
      </g>
     </g>
    </g>
    <g id="ytick_31">
     <g id="line2d_38">
      <g>
       <use xlink:href="#mdedc4d97c2" x="45" y="193.030691" style="stroke: #000000; stroke-width: 0.6"/>
      </g>
     </g>
    </g>
    <g id="ytick_32">
     <g id="line2d_39">
      <g>
       <use xlink:href="#mdedc4d97c2" x="45" y="185.804066" style="stroke: #000000; stroke-width: 0.6"/>
      </g>
     </g>
    </g>
    <g id="ytick_33">
     <g id="line2d_40">
      <g>
       <use xlink:href="#mdedc4d97c2" x="45" y="180.676694" style="stroke: #000000; stroke-width: 0.6"/>
      </g>
     </g>
    </g>
    <g id="ytick_34">
     <g id="line2d_41">
      <g>
       <use xlink:href="#mdedc4d97c2" x="45" y="176.699595" style="stroke: #000000; stroke-width: 0.6"/>
      </g>
     </g>
    </g>
    <g id="ytick_35">
     <g id="line2d_42">
      <g>
       <use xlink:href="#mdedc4d97c2" x="45" y="173.450069" style="stroke: #000000; stroke-width: 0.6"/>
      </g>
     </g>
    </g>
    <g id="ytick_36">
     <g id="line2d_43">
      <g>
       <use xlink:href="#mdedc4d97c2" x="45" y="170.702633" style="stroke: #000000; stroke-width: 0.6"/>
      </g>
     </g>
    </g>
    <g id="ytick_37">
     <g id="line2d_44">
      <g>
       <use xlink:href="#mdedc4d97c2" x="45" y="168.322697" style="stroke: #000000; stroke-width: 0.6"/>
      </g>
     </g>
    </g>
    <g id="ytick_38">
     <g id="line2d_45">
      <g>
       <use xlink:href="#mdedc4d97c2" x="45" y="166.223444" style="stroke: #000000; stroke-width: 0.6"/>
      </g>
     </g>
    </g>
    <g id="ytick_39">
     <g id="line2d_46">
      <g>
       <use xlink:href="#mdedc4d97c2" x="45" y="151.991601" style="stroke: #000000; stroke-width: 0.6"/>
      </g>
     </g>
    </g>
    <g id="ytick_40">
     <g id="line2d_47">
      <g>
       <use xlink:href="#mdedc4d97c2" x="45" y="144.764975" style="stroke: #000000; stroke-width: 0.6"/>
      </g>
     </g>
    </g>
    <g id="ytick_41">
     <g id="line2d_48">
      <g>
       <use xlink:href="#mdedc4d97c2" x="45" y="139.637603" style="stroke: #000000; stroke-width: 0.6"/>
      </g>
     </g>
    </g>
    <g id="ytick_42">
     <g id="line2d_49">
      <g>
       <use xlink:href="#mdedc4d97c2" x="45" y="135.660505" style="stroke: #000000; stroke-width: 0.6"/>
      </g>
     </g>
    </g>
    <g id="ytick_43">
     <g id="line2d_50">
      <g>
       <use xlink:href="#mdedc4d97c2" x="45" y="132.410978" style="stroke: #000000; stroke-width: 0.6"/>
      </g>
     </g>
    </g>
    <g id="ytick_44">
     <g id="line2d_51">
      <g>
       <use xlink:href="#mdedc4d97c2" x="45" y="129.663543" style="stroke: #000000; stroke-width: 0.6"/>
      </g>
     </g>
    </g>
    <g id="ytick_45">
     <g id="line2d_52">
      <g>
       <use xlink:href="#mdedc4d97c2" x="45" y="127.283606" style="stroke: #000000; stroke-width: 0.6"/>
      </g>
     </g>
    </g>
    <g id="ytick_46">
     <g id="line2d_53">
      <g>
       <use xlink:href="#mdedc4d97c2" x="45" y="125.184353" style="stroke: #000000; stroke-width: 0.6"/>
      </g>
     </g>
    </g>
    <g id="ytick_47">
     <g id="line2d_54">
      <g>
       <use xlink:href="#mdedc4d97c2" x="45" y="110.95251" style="stroke: #000000; stroke-width: 0.6"/>
      </g>
     </g>
    </g>
    <g id="ytick_48">
     <g id="line2d_55">
      <g>
       <use xlink:href="#mdedc4d97c2" x="45" y="103.725885" style="stroke: #000000; stroke-width: 0.6"/>
      </g>
     </g>
    </g>
    <g id="ytick_49">
     <g id="line2d_56">
      <g>
       <use xlink:href="#mdedc4d97c2" x="45" y="98.598513" style="stroke: #000000; stroke-width: 0.6"/>
      </g>
     </g>
    </g>
    <g id="ytick_50">
     <g id="line2d_57">
      <g>
       <use xlink:href="#mdedc4d97c2" x="45" y="94.621414" style="stroke: #000000; stroke-width: 0.6"/>
      </g>
     </g>
    </g>
    <g id="ytick_51">
     <g id="line2d_58">
      <g>
       <use xlink:href="#mdedc4d97c2" x="45" y="91.371888" style="stroke: #000000; stroke-width: 0.6"/>
      </g>
     </g>
    </g>
    <g id="ytick_52">
     <g id="line2d_59">
      <g>
       <use xlink:href="#mdedc4d97c2" x="45" y="88.624452" style="stroke: #000000; stroke-width: 0.6"/>
      </g>
     </g>
    </g>
    <g id="ytick_53">
     <g id="line2d_60">
      <g>
       <use xlink:href="#mdedc4d97c2" x="45" y="86.244516" style="stroke: #000000; stroke-width: 0.6"/>
      </g>
     </g>
    </g>
    <g id="ytick_54">
     <g id="line2d_61">
      <g>
       <use xlink:href="#mdedc4d97c2" x="45" y="84.145263" style="stroke: #000000; stroke-width: 0.6"/>
      </g>
     </g>
    </g>
    <g id="ytick_55">
     <g id="line2d_62">
      <g>
       <use xlink:href="#mdedc4d97c2" x="45" y="69.91342" style="stroke: #000000; stroke-width: 0.6"/>
      </g>
     </g>
    </g>
    <g id="ytick_56">
     <g id="line2d_63">
      <g>
       <use xlink:href="#mdedc4d97c2" x="45" y="62.686795" style="stroke: #000000; stroke-width: 0.6"/>
      </g>
     </g>
    </g>
    <g id="ytick_57">
     <g id="line2d_64">
      <g>
       <use xlink:href="#mdedc4d97c2" x="45" y="57.559422" style="stroke: #000000; stroke-width: 0.6"/>
      </g>
     </g>
    </g>
    <g id="ytick_58">
     <g id="line2d_65">
      <g>
       <use xlink:href="#mdedc4d97c2" x="45" y="53.582324" style="stroke: #000000; stroke-width: 0.6"/>
      </g>
     </g>
    </g>
    <g id="ytick_59">
     <g id="line2d_66">
      <g>
       <use xlink:href="#mdedc4d97c2" x="45" y="50.332797" style="stroke: #000000; stroke-width: 0.6"/>
      </g>
     </g>
    </g>
    <g id="ytick_60">
     <g id="line2d_67">
      <g>
       <use xlink:href="#mdedc4d97c2" x="45" y="47.585362" style="stroke: #000000; stroke-width: 0.6"/>
      </g>
     </g>
    </g>
    <g id="ytick_61">
     <g id="line2d_68">
      <g>
       <use xlink:href="#mdedc4d97c2" x="45" y="45.205425" style="stroke: #000000; stroke-width: 0.6"/>
      </g>
     </g>
    </g>
   </g>
   <g id="line2d_69">
    <path d="M 99.954545 173.572176 
L 101.662536 211.450384 
L 103.370522 181.800516 
L 105.078513 184.714679 
L 106.786503 188.814117 
L 108.494489 210.983563 
L 110.20248 223.756073 
L 111.91047 194.047964 
L 113.618456 189.046153 
L 115.326447 196.409762 
L 117.034432 192.89087 
L 118.742423 205.82268 
L 120.450414 219.638139 
L 122.1584 214.199437 
L 123.86639 204.900852 
L 125.574376 196.148905 
L 127.282367 201.098652 
L 128.990357 200.041136 
L 130.698343 202.216136 
L 132.406334 231.214695 
L 134.114324 269.728048 
L 135.82231 211.274777 
L 137.530301 207.396054 
L 139.238292 198.293867 
L 140.946282 215.533578 
L 142.65427 224.588179 
L 144.362261 261.737754 
L 146.070249 213.619985 
L 147.778237 215.703162 
L 149.486226 202.537478 
L 151.194216 246.856273 
L 152.902205 211.732091 
L 154.610193 220.158871 
L 156.318181 220.948436 
L 158.026172 224.65138 
L 159.73416 208.853035 
L 161.442148 219.458818 
L 163.150136 216.660962 
L 164.858127 243.950168 
L 166.566115 214.416854 
L 168.274103 217.597125 
L 169.982093 208.346422 
L 171.690081 219.9736 
L 173.39807 269.692735 
L 175.106059 251.491635 
L 176.814048 240.275022 
L 178.522038 213.509538 
L 180.230026 213.636687 
L 181.938019 207.696842 
L 183.646008 228.308927 
L 185.353997 250.537877 
L 187.061986 265.010876 
L 188.769975 216.907459 
L 190.477964 306.517213 
L 192.185953 219.591165 
L 193.893941 220.720752 
L 195.60193 224.61941 
L 197.309919 231.685626 
L 199.017907 216.712837 
L 200.725897 242.43268 
L 202.433885 210.813555 
L 204.141874 221.68563 
L 205.849864 211.243758 
L 207.557852 262.611075 
L 209.26584 250.252468 
L 210.973828 210.077824 
L 212.681819 215.811908 
L 214.389807 199.739162 
L 216.097795 201.538456 
L 217.805784 207.561531 
L 219.513774 222.727097 
L 221.221763 212.454425 
L 222.929751 197.951699 
L 224.637739 205.309121 
L 226.34573 204.086039 
L 228.053718 204.14748 
L 229.761708 210.234222 
L 231.469694 211.058185 
L 233.177685 307.8 
L 234.885671 218.197103 
L 236.593661 194.848315 
L 238.301652 190.143593 
L 240.009638 193.518782 
L 241.717628 190.529085 
L 243.425619 199.897823 
L 245.133605 204.398198 
L 246.841595 227.708992 
L 248.549586 213.325476 
L 250.257577 195.495561 
L 251.965568 186.586326 
L 253.673553 185.026159 
L 255.381544 188.01439 
L 257.089535 191.440213 
L 258.79752 210.878283 
L 260.505511 194.22878 
L 262.213502 182.214196 
L 263.921487 180.063882 
L 265.629478 179.623787 
L 267.337464 213.335929 
L 269.045455 169.574381 
" clip-path="url(#p27dac2f32b)" style="fill: none; stroke: #1f77b4; stroke-width: 1.5; stroke-linecap: square"/>
   </g>
   <g id="line2d_70">
    <path d="M 57.681818 55.851457 
L 60.224539 58.085998 
L 65.309981 62.99912 
L 71.0311 69.475108 
L 72.938143 71.932587 
L 75.480864 75.392611 
L 79.29494 81.582608 
L 81.837661 86.302808 
L 84.380382 91.742408 
L 85.651747 94.993322 
L 87.55879 99.956934 
L 88.194468 101.800351 
L 88.830146 104.270748 
L 89.465823 106.02796 
L 91.372866 113.423611 
L 92.008544 115.096705 
L 92.644232 118.842053 
L 93.27991 120.812987 
L 94.551265 127.238255 
L 95.186953 131.900274 
L 95.82263 133.458897 
L 97.093986 143.303061 
L 97.729674 152.34798 
L 98.365351 152.468165 
L 99.001029 162.418629 
L 99.636707 176.150722 
L 100.272389 167.846305 
L 100.908072 190.401492 
L 101.54375 182.632964 
L 102.179432 177.522821 
L 102.81511 183.529629 
L 103.450788 207.430338 
L 104.086466 176.199823 
L 104.722148 171.651774 
L 105.357826 175.941644 
L 105.993509 171.173263 
L 106.629186 209.818243 
L 107.264869 194.103895 
L 107.900547 173.16993 
L 108.536229 223.186939 
L 109.171907 190.090278 
L 109.80759 202.017331 
L 110.443268 205.206279 
L 111.07895 181.663681 
L 111.714628 180.084012 
L 112.350311 182.376393 
L 112.985988 204.15085 
L 113.621671 210.834816 
L 114.257349 188.11362 
L 115.528709 217.821518 
L 116.164392 176.545558 
L 116.80007 173.57722 
L 117.435752 206.498161 
L 118.07143 256.077223 
L 118.707108 205.907916 
L 119.342785 226.523844 
L 119.978468 198.095583 
L 120.614146 199.329244 
L 121.249829 177.318023 
L 121.885506 189.706523 
L 122.521189 183.625168 
L 123.156867 207.302114 
L 123.792549 198.199843 
L 124.428227 178.874734 
L 125.06391 178.202945 
L 125.699587 173.152822 
L 126.33527 184.124097 
L 126.970948 276.798261 
L 127.606631 197.521694 
L 128.242308 210.504289 
L 128.877991 173.851243 
L 129.513669 179.349129 
L 130.149351 193.769142 
L 130.785029 181.111583 
L 131.420712 299.249378 
L 132.056389 195.053597 
L 132.692072 194.79053 
L 133.32775 193.693234 
L 133.963433 185.619207 
L 134.59911 180.369699 
L 135.234793 196.385461 
L 135.870471 232.948112 
L 136.506153 180.497022 
L 137.141831 179.011894 
L 137.777514 177.023274 
L 138.413192 185.90166 
L 139.048874 190.363127 
L 139.684552 181.563471 
L 140.320235 185.795869 
L 140.955912 177.850866 
L 141.591595 184.480117 
L 142.227275 177.101617 
L 142.862955 185.022117 
L 143.498636 196.947369 
L 144.134316 244.233509 
L 144.769996 181.523237 
L 145.405676 178.738645 
L 146.041356 176.699973 
L 146.677037 197.038854 
L 147.312717 185.769343 
L 147.948397 196.668207 
L 148.584077 182.824422 
L 149.219757 197.081339 
L 149.855438 179.865757 
L 150.491118 181.166723 
L 151.126798 203.669451 
L 151.762478 193.427357 
L 152.398159 187.547243 
L 153.033839 194.370315 
L 153.669519 181.602242 
L 154.305199 207.473404 
L 154.940879 190.445178 
L 155.57656 200.600755 
L 156.21224 178.815152 
L 156.84792 184.660447 
L 157.4836 185.70481 
L 158.11928 185.688757 
L 158.754961 187.062463 
L 159.390641 180.251111 
L 160.026321 183.918877 
L 160.662001 180.446377 
L 161.297681 193.291498 
L 161.933362 191.587134 
L 162.569042 177.000625 
L 163.204722 214.87654 
L 163.840402 268.123481 
L 164.476082 201.353637 
L 165.111763 179.0253 
L 165.747443 192.333272 
L 166.383123 175.387992 
L 167.018803 188.368564 
L 167.654483 184.874624 
L 168.290164 180.284903 
L 168.925844 194.313743 
L 169.561524 177.375705 
L 170.197204 221.141094 
L 170.832884 192.466445 
L 171.468565 174.543292 
L 172.104245 195.379591 
L 172.739925 182.796552 
L 173.375605 206.991345 
L 174.011285 186.728733 
L 174.646966 190.287507 
L 175.282646 195.193016 
L 175.918326 177.325768 
L 176.554006 180.081828 
L 177.189686 179.256211 
L 177.825367 216.297688 
L 178.461046 231.371511 
L 179.096726 196.792213 
L 179.732397 180.578794 
L 180.368077 179.327768 
L 181.003758 189.401174 
L 181.639438 191.936974 
L 182.275118 188.435383 
L 182.910798 231.933143 
L 183.546478 204.047068 
L 184.182158 204.074486 
L 184.817839 213.33958 
L 185.453519 212.847613 
L 186.089199 199.283998 
L 186.724879 191.493636 
L 187.360559 180.846187 
L 187.99624 179.856573 
L 189.2676 203.698179 
L 189.90328 192.472261 
L 190.538961 279.275235 
L 191.174641 179.980679 
L 191.810321 195.535893 
L 192.446001 176.902436 
L 193.081681 200.024928 
L 193.717361 180.184097 
L 194.353041 211.629095 
L 194.988722 187.11168 
L 195.624402 178.839817 
L 196.260083 202.562033 
L 196.895763 210.754228 
L 197.531443 182.302193 
L 198.167123 204.096412 
L 198.802803 181.615045 
L 199.438484 187.089135 
L 200.074164 186.998481 
L 200.709844 182.894907 
L 201.345524 186.803221 
L 201.981204 179.504098 
L 202.616885 184.999983 
L 203.252565 218.212806 
L 203.888245 180.130365 
L 204.523925 197.487659 
L 205.159605 184.982221 
L 205.795286 183.381602 
L 206.430966 186.107505 
L 207.066646 183.619458 
L 207.702326 220.069294 
L 208.338006 189.689242 
L 208.973687 189.271886 
L 209.609367 207.855132 
L 210.245037 206.772944 
L 211.516397 184.024304 
L 212.152078 175.485935 
L 212.787758 176.605198 
L 213.423438 181.957569 
L 214.059118 181.803741 
L 214.694798 183.132157 
L 215.330479 179.018572 
L 215.966159 230.051741 
L 216.601839 217.063678 
L 217.237519 192.917742 
L 217.873199 184.478391 
L 218.50888 189.816486 
L 219.14456 176.174162 
L 219.78024 219.209148 
L 220.41592 184.315903 
L 221.0516 282.263633 
L 221.687281 190.644166 
L 222.322961 174.594439 
L 222.958641 208.795199 
L 224.230001 184.858599 
L 224.865682 196.189064 
L 225.501362 181.863396 
L 226.137042 187.859449 
L 226.772722 188.642628 
L 227.4084 190.880489 
L 228.044083 184.625494 
L 228.67976 198.818915 
L 229.315443 174.130114 
L 229.951121 180.999648 
L 230.586803 192.431742 
L 231.222481 267.232625 
L 231.858164 184.037235 
L 232.493842 190.55292 
L 233.129524 210.506837 
L 233.765202 190.584009 
L 234.400885 183.355563 
L 235.036562 174.823194 
L 235.672245 191.936075 
L 236.307923 176.783265 
L 236.943605 233.051156 
L 237.579283 189.868987 
L 238.214966 193.731203 
L 238.850644 189.471768 
L 239.486326 172.184042 
L 240.122004 180.134332 
L 240.757687 211.38868 
L 241.393364 184.460139 
L 242.029047 185.409539 
L 242.664725 180.762542 
L 243.300408 195.511396 
L 243.936085 205.787167 
L 244.571768 221.844221 
L 245.207446 182.012481 
L 245.843128 178.081098 
L 246.478806 225.19822 
L 247.114489 196.532963 
L 247.750166 195.274398 
L 248.385849 218.896258 
L 249.021527 177.854991 
L 249.65721 192.407003 
L 250.292887 191.029625 
L 250.92857 203.900288 
L 251.564248 193.495977 
L 252.19993 193.834897 
L 252.835608 216.091093 
L 253.471291 218.584171 
L 254.106968 178.263625 
L 254.742651 198.298649 
L 255.378329 208.868867 
L 256.014012 169.976717 
L 256.649689 181.033431 
L 257.285372 175.626032 
L 257.92105 202.264937 
L 258.556732 199.316013 
L 259.19241 194.732465 
L 259.828093 180.426856 
L 260.463771 177.699073 
L 261.099453 189.504251 
L 261.735131 177.667684 
L 262.370814 169.946741 
L 263.006491 203.167194 
L 263.642174 218.92235 
L 264.277852 181.312464 
L 264.913534 175.151141 
L 265.549212 166.648659 
L 266.184895 176.218757 
L 266.820573 211.623215 
L 267.456255 190.519209 
L 268.091933 193.804055 
L 268.727616 180.899058 
L 269.363293 159.704067 
L 269.998971 161.924994 
L 270.634659 148.057762 
L 271.270337 146.391344 
L 271.906014 140.433726 
L 274.448735 124.731148 
L 275.084413 122.367676 
L 275.7201 118.886134 
L 276.355778 116.118803 
L 276.991456 114.378984 
L 277.627134 112.015896 
L 278.262821 109.033293 
L 278.898499 106.876375 
L 279.534177 105.308318 
L 280.169854 103.088608 
L 281.44121 99.533249 
L 282.712565 95.882158 
L 284.619608 91.186689 
L 288.433694 83.600076 
L 289.70505 81.314652 
L 292.883448 76.129644 
L 296.061857 71.724606 
L 301.147299 65.63319 
L 306.23274 60.39306 
L 310.046816 56.875358 
L 311.318182 55.8 
L 311.318182 55.8 
" clip-path="url(#p27dac2f32b)" style="fill: none; stroke: #ff7f0e; stroke-width: 1.5; stroke-linecap: square"/>
   </g>
   <g id="patch_3">
    <path d="M 45 320.4 
L 45 43.2 
" style="fill: none; stroke: #000000; stroke-width: 0.8; stroke-linejoin: miter; stroke-linecap: square"/>
   </g>
   <g id="patch_4">
    <path d="M 324 320.4 
L 324 43.2 
" style="fill: none; stroke: #000000; stroke-width: 0.8; stroke-linejoin: miter; stroke-linecap: square"/>
   </g>
   <g id="patch_5">
    <path d="M 45 320.4 
L 324 320.4 
" style="fill: none; stroke: #000000; stroke-width: 0.8; stroke-linejoin: miter; stroke-linecap: square"/>
   </g>
   <g id="patch_6">
    <path d="M 45 43.2 
L 324 43.2 
" style="fill: none; stroke: #000000; stroke-width: 0.8; stroke-linejoin: miter; stroke-linecap: square"/>
   </g>
   <g id="text_14">
    <!-- Prediction Error -->
    <g transform="translate(138.166875 37.2)scale(0.12 -0.12)">
     <defs>
      <path id="DejaVuSans-50" d="M 1259 4147 
L 1259 2394 
L 2053 2394 
Q 2494 2394 2734 2622 
Q 2975 2850 2975 3272 
Q 2975 3691 2734 3919 
Q 2494 4147 2053 4147 
L 1259 4147 
z
M 628 4666 
L 2053 4666 
Q 2838 4666 3239 4311 
Q 3641 3956 3641 3272 
Q 3641 2581 3239 2228 
Q 2838 1875 2053 1875 
L 1259 1875 
L 1259 0 
L 628 0 
L 628 4666 
z
" transform="scale(0.015625)"/>
      <path id="DejaVuSans-72" d="M 2631 2963 
Q 2534 3019 2420 3045 
Q 2306 3072 2169 3072 
Q 1681 3072 1420 2755 
Q 1159 2438 1159 1844 
L 1159 0 
L 581 0 
L 581 3500 
L 1159 3500 
L 1159 2956 
Q 1341 3275 1631 3429 
Q 1922 3584 2338 3584 
Q 2397 3584 2469 3576 
Q 2541 3569 2628 3553 
L 2631 2963 
z
" transform="scale(0.015625)"/>
      <path id="DejaVuSans-65" d="M 3597 1894 
L 3597 1613 
L 953 1613 
Q 991 1019 1311 708 
Q 1631 397 2203 397 
Q 2534 397 2845 478 
Q 3156 559 3463 722 
L 3463 178 
Q 3153 47 2828 -22 
Q 2503 -91 2169 -91 
Q 1331 -91 842 396 
Q 353 884 353 1716 
Q 353 2575 817 3079 
Q 1281 3584 2069 3584 
Q 2775 3584 3186 3129 
Q 3597 2675 3597 1894 
z
M 3022 2063 
Q 3016 2534 2758 2815 
Q 2500 3097 2075 3097 
Q 1594 3097 1305 2825 
Q 1016 2553 972 2059 
L 3022 2063 
z
" transform="scale(0.015625)"/>
      <path id="DejaVuSans-64" d="M 2906 2969 
L 2906 4863 
L 3481 4863 
L 3481 0 
L 2906 0 
L 2906 525 
Q 2725 213 2448 61 
Q 2172 -91 1784 -91 
Q 1150 -91 751 415 
Q 353 922 353 1747 
Q 353 2572 751 3078 
Q 1150 3584 1784 3584 
Q 2172 3584 2448 3432 
Q 2725 3281 2906 2969 
z
M 947 1747 
Q 947 1113 1208 752 
Q 1469 391 1925 391 
Q 2381 391 2643 752 
Q 2906 1113 2906 1747 
Q 2906 2381 2643 2742 
Q 2381 3103 1925 3103 
Q 1469 3103 1208 2742 
Q 947 2381 947 1747 
z
" transform="scale(0.015625)"/>
      <path id="DejaVuSans-69" d="M 603 3500 
L 1178 3500 
L 1178 0 
L 603 0 
L 603 3500 
z
M 603 4863 
L 1178 4863 
L 1178 4134 
L 603 4134 
L 603 4863 
z
" transform="scale(0.015625)"/>
      <path id="DejaVuSans-63" d="M 3122 3366 
L 3122 2828 
Q 2878 2963 2633 3030 
Q 2388 3097 2138 3097 
Q 1578 3097 1268 2742 
Q 959 2388 959 1747 
Q 959 1106 1268 751 
Q 1578 397 2138 397 
Q 2388 397 2633 464 
Q 2878 531 3122 666 
L 3122 134 
Q 2881 22 2623 -34 
Q 2366 -91 2075 -91 
Q 1284 -91 818 406 
Q 353 903 353 1747 
Q 353 2603 823 3093 
Q 1294 3584 2113 3584 
Q 2378 3584 2631 3529 
Q 2884 3475 3122 3366 
z
" transform="scale(0.015625)"/>
      <path id="DejaVuSans-74" d="M 1172 4494 
L 1172 3500 
L 2356 3500 
L 2356 3053 
L 1172 3053 
L 1172 1153 
Q 1172 725 1289 603 
Q 1406 481 1766 481 
L 2356 481 
L 2356 0 
L 1766 0 
Q 1100 0 847 248 
Q 594 497 594 1153 
L 594 3053 
L 172 3053 
L 172 3500 
L 594 3500 
L 594 4494 
L 1172 4494 
z
" transform="scale(0.015625)"/>
      <path id="DejaVuSans-6f" d="M 1959 3097 
Q 1497 3097 1228 2736 
Q 959 2375 959 1747 
Q 959 1119 1226 758 
Q 1494 397 1959 397 
Q 2419 397 2687 759 
Q 2956 1122 2956 1747 
Q 2956 2369 2687 2733 
Q 2419 3097 1959 3097 
z
M 1959 3584 
Q 2709 3584 3137 3096 
Q 3566 2609 3566 1747 
Q 3566 888 3137 398 
Q 2709 -91 1959 -91 
Q 1206 -91 779 398 
Q 353 888 353 1747 
Q 353 2609 779 3096 
Q 1206 3584 1959 3584 
z
" transform="scale(0.015625)"/>
      <path id="DejaVuSans-6e" d="M 3513 2113 
L 3513 0 
L 2938 0 
L 2938 2094 
Q 2938 2591 2744 2837 
Q 2550 3084 2163 3084 
Q 1697 3084 1428 2787 
Q 1159 2491 1159 1978 
L 1159 0 
L 581 0 
L 581 3500 
L 1159 3500 
L 1159 2956 
Q 1366 3272 1645 3428 
Q 1925 3584 2291 3584 
Q 2894 3584 3203 3211 
Q 3513 2838 3513 2113 
z
" transform="scale(0.015625)"/>
      <path id="DejaVuSans-20" transform="scale(0.015625)"/>
      <path id="DejaVuSans-45" d="M 628 4666 
L 3578 4666 
L 3578 4134 
L 1259 4134 
L 1259 2753 
L 3481 2753 
L 3481 2222 
L 1259 2222 
L 1259 531 
L 3634 531 
L 3634 0 
L 628 0 
L 628 4666 
z
" transform="scale(0.015625)"/>
     </defs>
     <use xlink:href="#DejaVuSans-50"/>
     <use xlink:href="#DejaVuSans-72" x="58.552734"/>
     <use xlink:href="#DejaVuSans-65" x="97.416016"/>
     <use xlink:href="#DejaVuSans-64" x="158.939453"/>
     <use xlink:href="#DejaVuSans-69" x="222.416016"/>
     <use xlink:href="#DejaVuSans-63" x="250.199219"/>
     <use xlink:href="#DejaVuSans-74" x="305.179688"/>
     <use xlink:href="#DejaVuSans-69" x="344.388672"/>
     <use xlink:href="#DejaVuSans-6f" x="372.171875"/>
     <use xlink:href="#DejaVuSans-6e" x="433.353516"/>
     <use xlink:href="#DejaVuSans-20" x="496.732422"/>
     <use xlink:href="#DejaVuSans-45" x="528.519531"/>
     <use xlink:href="#DejaVuSans-72" x="591.703125"/>
     <use xlink:href="#DejaVuSans-72" x="631.066406"/>
     <use xlink:href="#DejaVuSans-6f" x="669.929688"/>
     <use xlink:href="#DejaVuSans-72" x="731.111328"/>
    </g>
   </g>
   <g id="legend_1">
    <g id="patch_7">
     <path d="M 143.171094 80.55625 
L 225.828906 80.55625 
Q 227.828906 80.55625 227.828906 78.55625 
L 227.828906 50.2 
Q 227.828906 48.2 225.828906 48.2 
L 143.171094 48.2 
Q 141.171094 48.2 141.171094 50.2 
L 141.171094 78.55625 
Q 141.171094 80.55625 143.171094 80.55625 
z
" style="fill: #ffffff; opacity: 0.8; stroke: #cccccc; stroke-linejoin: miter"/>
    </g>
    <g id="line2d_71">
     <path d="M 145.171094 56.298437 
L 155.171094 56.298437 
L 165.171094 56.298437 
" style="fill: none; stroke: #1f77b4; stroke-width: 1.5; stroke-linecap: square"/>
    </g>
    <g id="text_15">
     <!-- train error -->
     <g transform="translate(173.171094 59.798437)scale(0.1 -0.1)">
      <defs>
       <path id="DejaVuSans-61" d="M 2194 1759 
Q 1497 1759 1228 1600 
Q 959 1441 959 1056 
Q 959 750 1161 570 
Q 1363 391 1709 391 
Q 2188 391 2477 730 
Q 2766 1069 2766 1631 
L 2766 1759 
L 2194 1759 
z
M 3341 1997 
L 3341 0 
L 2766 0 
L 2766 531 
Q 2569 213 2275 61 
Q 1981 -91 1556 -91 
Q 1019 -91 701 211 
Q 384 513 384 1019 
Q 384 1609 779 1909 
Q 1175 2209 1959 2209 
L 2766 2209 
L 2766 2266 
Q 2766 2663 2505 2880 
Q 2244 3097 1772 3097 
Q 1472 3097 1187 3025 
Q 903 2953 641 2809 
L 641 3341 
Q 956 3463 1253 3523 
Q 1550 3584 1831 3584 
Q 2591 3584 2966 3190 
Q 3341 2797 3341 1997 
z
" transform="scale(0.015625)"/>
      </defs>
      <use xlink:href="#DejaVuSans-74"/>
      <use xlink:href="#DejaVuSans-72" x="39.208984"/>
      <use xlink:href="#DejaVuSans-61" x="80.322266"/>
      <use xlink:href="#DejaVuSans-69" x="141.601562"/>
      <use xlink:href="#DejaVuSans-6e" x="169.384766"/>
      <use xlink:href="#DejaVuSans-20" x="232.763672"/>
      <use xlink:href="#DejaVuSans-65" x="264.550781"/>
      <use xlink:href="#DejaVuSans-72" x="326.074219"/>
      <use xlink:href="#DejaVuSans-72" x="365.4375"/>
      <use xlink:href="#DejaVuSans-6f" x="404.300781"/>
      <use xlink:href="#DejaVuSans-72" x="465.482422"/>
     </g>
    </g>
    <g id="line2d_72">
     <path d="M 145.171094 70.976562 
L 155.171094 70.976562 
L 165.171094 70.976562 
" style="fill: none; stroke: #ff7f0e; stroke-width: 1.5; stroke-linecap: square"/>
    </g>
    <g id="text_16">
     <!-- test error -->
     <g transform="translate(173.171094 74.476562)scale(0.1 -0.1)">
      <defs>
       <path id="DejaVuSans-73" d="M 2834 3397 
L 2834 2853 
Q 2591 2978 2328 3040 
Q 2066 3103 1784 3103 
Q 1356 3103 1142 2972 
Q 928 2841 928 2578 
Q 928 2378 1081 2264 
Q 1234 2150 1697 2047 
L 1894 2003 
Q 2506 1872 2764 1633 
Q 3022 1394 3022 966 
Q 3022 478 2636 193 
Q 2250 -91 1575 -91 
Q 1294 -91 989 -36 
Q 684 19 347 128 
L 347 722 
Q 666 556 975 473 
Q 1284 391 1588 391 
Q 1994 391 2212 530 
Q 2431 669 2431 922 
Q 2431 1156 2273 1281 
Q 2116 1406 1581 1522 
L 1381 1569 
Q 847 1681 609 1914 
Q 372 2147 372 2553 
Q 372 3047 722 3315 
Q 1072 3584 1716 3584 
Q 2034 3584 2315 3537 
Q 2597 3491 2834 3397 
z
" transform="scale(0.015625)"/>
      </defs>
      <use xlink:href="#DejaVuSans-74"/>
      <use xlink:href="#DejaVuSans-65" x="39.208984"/>
      <use xlink:href="#DejaVuSans-73" x="100.732422"/>
      <use xlink:href="#DejaVuSans-74" x="152.832031"/>
      <use xlink:href="#DejaVuSans-20" x="192.041016"/>
      <use xlink:href="#DejaVuSans-65" x="223.828125"/>
      <use xlink:href="#DejaVuSans-72" x="285.351562"/>
      <use xlink:href="#DejaVuSans-72" x="324.714844"/>
      <use xlink:href="#DejaVuSans-6f" x="363.578125"/>
      <use xlink:href="#DejaVuSans-72" x="424.759766"/>
     </g>
    </g>
   </g>
  </g>
 </g>
 <defs>
  <clipPath id="p27dac2f32b">
   <rect x="45" y="43.2" width="279" height="277.2"/>
  </clipPath>
 </defs>
</svg>
