<?xml version="1.0" encoding="utf-8" standalone="no"?>
<!DOCTYPE svg PUBLIC "-//W3C//DTD SVG 1.1//EN"
  "http://www.w3.org/Graphics/SVG/1.1/DTD/svg11.dtd">
<svg xmlns:xlink="http://www.w3.org/1999/xlink" width="360pt" height="360pt" viewBox="0 0 360 360" xmlns="http://www.w3.org/2000/svg" version="1.1">
 <metadata>
  <rdf:RDF xmlns:dc="http://purl.org/dc/elements/1.1/" xmlns:cc="http://creativecommons.org/ns#" xmlns:rdf="http://www.w3.org/1999/02/22-rdf-syntax-ns#">
   <cc:Work>
    <dc:type rdf:resource="http://purl.org/dc/dcmitype/StillImage"/>
    <dc:date>2022-11-15T22:48:01.826463</dc:date>
    <dc:format>image/svg+xml</dc:format>
    <dc:creator>
     <cc:Agent>
      <dc:title>Matplotlib v3.5.3, https://matplotlib.org/</dc:title>
     </cc:Agent>
    </dc:creator>
   </cc:Work>
  </rdf:RDF>
 </metadata>
 <defs>
  <style type="text/css">*{stroke-linejoin: round; stroke-linecap: butt}</style>
 </defs>
 <g id="figure_1">
  <g id="patch_1">
   <path d="M 0 360 
L 360 360 
L 360 0 
L 0 0 
z
" style="fill: #ffffff"/>
  </g>
  <g id="axes_1">
   <g id="patch_2">
    <path d="M 45 320.4 
L 324 320.4 
L 324 43.2 
L 45 43.2 
z
" style="fill: #ffffff"/>
   </g>
   <g id="matplotlib.axis_1">
    <g id="xtick_1">
     <g id="line2d_1">
      <defs>
       <path id="m1c2d4fbc52" d="M 0 0 
L 0 3.5 
" style="stroke: #000000; stroke-width: 0.8"/>
      </defs>
      <g>
       <use xlink:href="#m1c2d4fbc52" x="83.045455" y="320.4" style="stroke: #000000; stroke-width: 0.8"/>
      </g>
     </g>
     <g id="text_1">
      <!-- −2 -->
      <g transform="translate(75.674361 334.998438)scale(0.1 -0.1)">
       <defs>
        <path id="DejaVuSans-2212" d="M 678 2272 
L 4684 2272 
L 4684 1741 
L 678 1741 
L 678 2272 
z
" transform="scale(0.015625)"/>
        <path id="DejaVuSans-32" d="M 1228 531 
L 3431 531 
L 3431 0 
L 469 0 
L 469 531 
Q 828 903 1448 1529 
Q 2069 2156 2228 2338 
Q 2531 2678 2651 2914 
Q 2772 3150 2772 3378 
Q 2772 3750 2511 3984 
Q 2250 4219 1831 4219 
Q 1534 4219 1204 4116 
Q 875 4013 500 3803 
L 500 4441 
Q 881 4594 1212 4672 
Q 1544 4750 1819 4750 
Q 2544 4750 2975 4387 
Q 3406 4025 3406 3419 
Q 3406 3131 3298 2873 
Q 3191 2616 2906 2266 
Q 2828 2175 2409 1742 
Q 1991 1309 1228 531 
z
" transform="scale(0.015625)"/>
       </defs>
       <use xlink:href="#DejaVuSans-2212"/>
       <use xlink:href="#DejaVuSans-32" x="83.789062"/>
      </g>
     </g>
    </g>
    <g id="xtick_2">
     <g id="line2d_2">
      <g>
       <use xlink:href="#m1c2d4fbc52" x="133.772727" y="320.4" style="stroke: #000000; stroke-width: 0.8"/>
      </g>
     </g>
     <g id="text_2">
      <!-- −1 -->
      <g transform="translate(126.401634 334.998438)scale(0.1 -0.1)">
       <defs>
        <path id="DejaVuSans-31" d="M 794 531 
L 1825 531 
L 1825 4091 
L 703 3866 
L 703 4441 
L 1819 4666 
L 2450 4666 
L 2450 531 
L 3481 531 
L 3481 0 
L 794 0 
L 794 531 
z
" transform="scale(0.015625)"/>
       </defs>
       <use xlink:href="#DejaVuSans-2212"/>
       <use xlink:href="#DejaVuSans-31" x="83.789062"/>
      </g>
     </g>
    </g>
    <g id="xtick_3">
     <g id="line2d_3">
      <g>
       <use xlink:href="#m1c2d4fbc52" x="184.5" y="320.4" style="stroke: #000000; stroke-width: 0.8"/>
      </g>
     </g>
     <g id="text_3">
      <!-- 0 -->
      <g transform="translate(181.31875 334.998438)scale(0.1 -0.1)">
       <defs>
        <path id="DejaVuSans-30" d="M 2034 4250 
Q 1547 4250 1301 3770 
Q 1056 3291 1056 2328 
Q 1056 1369 1301 889 
Q 1547 409 2034 409 
Q 2525 409 2770 889 
Q 3016 1369 3016 2328 
Q 3016 3291 2770 3770 
Q 2525 4250 2034 4250 
z
M 2034 4750 
Q 2819 4750 3233 4129 
Q 3647 3509 3647 2328 
Q 3647 1150 3233 529 
Q 2819 -91 2034 -91 
Q 1250 -91 836 529 
Q 422 1150 422 2328 
Q 422 3509 836 4129 
Q 1250 4750 2034 4750 
z
" transform="scale(0.015625)"/>
       </defs>
       <use xlink:href="#DejaVuSans-30"/>
      </g>
     </g>
    </g>
    <g id="xtick_4">
     <g id="line2d_4">
      <g>
       <use xlink:href="#m1c2d4fbc52" x="235.227273" y="320.4" style="stroke: #000000; stroke-width: 0.8"/>
      </g>
     </g>
     <g id="text_4">
      <!-- 1 -->
      <g transform="translate(232.046023 334.998438)scale(0.1 -0.1)">
       <use xlink:href="#DejaVuSans-31"/>
      </g>
     </g>
    </g>
    <g id="xtick_5">
     <g id="line2d_5">
      <g>
       <use xlink:href="#m1c2d4fbc52" x="285.954545" y="320.4" style="stroke: #000000; stroke-width: 0.8"/>
      </g>
     </g>
     <g id="text_5">
      <!-- 2 -->
      <g transform="translate(282.773295 334.998438)scale(0.1 -0.1)">
       <use xlink:href="#DejaVuSans-32"/>
      </g>
     </g>
    </g>
   </g>
   <g id="matplotlib.axis_2">
    <g id="ytick_1">
     <g id="line2d_6">
      <defs>
       <path id="m19f58d1bc4" d="M 0 0 
L -3.5 0 
" style="stroke: #000000; stroke-width: 0.8"/>
      </defs>
      <g>
       <use xlink:href="#m19f58d1bc4" x="45" y="280.477256" style="stroke: #000000; stroke-width: 0.8"/>
      </g>
     </g>
     <g id="text_6">
      <!-- $\mathdefault{10^{-3}}$ -->
      <g transform="translate(14.5 284.276475)scale(0.1 -0.1)">
       <defs>
        <path id="DejaVuSans-33" d="M 2597 2516 
Q 3050 2419 3304 2112 
Q 3559 1806 3559 1356 
Q 3559 666 3084 287 
Q 2609 -91 1734 -91 
Q 1441 -91 1130 -33 
Q 819 25 488 141 
L 488 750 
Q 750 597 1062 519 
Q 1375 441 1716 441 
Q 2309 441 2620 675 
Q 2931 909 2931 1356 
Q 2931 1769 2642 2001 
Q 2353 2234 1838 2234 
L 1294 2234 
L 1294 2753 
L 1863 2753 
Q 2328 2753 2575 2939 
Q 2822 3125 2822 3475 
Q 2822 3834 2567 4026 
Q 2313 4219 1838 4219 
Q 1578 4219 1281 4162 
Q 984 4106 628 3988 
L 628 4550 
Q 988 4650 1302 4700 
Q 1616 4750 1894 4750 
Q 2613 4750 3031 4423 
Q 3450 4097 3450 3541 
Q 3450 3153 3228 2886 
Q 3006 2619 2597 2516 
z
" transform="scale(0.015625)"/>
       </defs>
       <use xlink:href="#DejaVuSans-31" transform="translate(0 0.765625)"/>
       <use xlink:href="#DejaVuSans-30" transform="translate(63.623047 0.765625)"/>
       <use xlink:href="#DejaVuSans-2212" transform="translate(128.203125 39.046875)scale(0.7)"/>
       <use xlink:href="#DejaVuSans-33" transform="translate(186.855469 39.046875)scale(0.7)"/>
      </g>
     </g>
    </g>
    <g id="ytick_2">
     <g id="line2d_7">
      <g>
       <use xlink:href="#m19f58d1bc4" x="45" y="207.400286" style="stroke: #000000; stroke-width: 0.8"/>
      </g>
     </g>
     <g id="text_7">
      <!-- $\mathdefault{10^{-2}}$ -->
      <g transform="translate(14.5 211.199505)scale(0.1 -0.1)">
       <use xlink:href="#DejaVuSans-31" transform="translate(0 0.765625)"/>
       <use xlink:href="#DejaVuSans-30" transform="translate(63.623047 0.765625)"/>
       <use xlink:href="#DejaVuSans-2212" transform="translate(128.203125 39.046875)scale(0.7)"/>
       <use xlink:href="#DejaVuSans-32" transform="translate(186.855469 39.046875)scale(0.7)"/>
      </g>
     </g>
    </g>
    <g id="ytick_3">
     <g id="line2d_8">
      <g>
       <use xlink:href="#m19f58d1bc4" x="45" y="134.323316" style="stroke: #000000; stroke-width: 0.8"/>
      </g>
     </g>
     <g id="text_8">
      <!-- $\mathdefault{10^{-1}}$ -->
      <g transform="translate(14.5 138.122534)scale(0.1 -0.1)">
       <use xlink:href="#DejaVuSans-31" transform="translate(0 0.684375)"/>
       <use xlink:href="#DejaVuSans-30" transform="translate(63.623047 0.684375)"/>
       <use xlink:href="#DejaVuSans-2212" transform="translate(128.203125 38.965625)scale(0.7)"/>
       <use xlink:href="#DejaVuSans-31" transform="translate(186.855469 38.965625)scale(0.7)"/>
      </g>
     </g>
    </g>
    <g id="ytick_4">
     <g id="line2d_9">
      <g>
       <use xlink:href="#m19f58d1bc4" x="45" y="61.246345" style="stroke: #000000; stroke-width: 0.8"/>
      </g>
     </g>
     <g id="text_9">
      <!-- $\mathdefault{10^{0}}$ -->
      <g transform="translate(20.4 65.045564)scale(0.1 -0.1)">
       <use xlink:href="#DejaVuSans-31" transform="translate(0 0.765625)"/>
       <use xlink:href="#DejaVuSans-30" transform="translate(63.623047 0.765625)"/>
       <use xlink:href="#DejaVuSans-30" transform="translate(128.203125 39.046875)scale(0.7)"/>
      </g>
     </g>
    </g>
    <g id="ytick_5">
     <g id="line2d_10">
      <defs>
       <path id="m80cb698b0c" d="M 0 0 
L -2 0 
" style="stroke: #000000; stroke-width: 0.6"/>
      </defs>
      <g>
       <use xlink:href="#m80cb698b0c" x="45" y="318.687651" style="stroke: #000000; stroke-width: 0.6"/>
      </g>
     </g>
    </g>
    <g id="ytick_6">
     <g id="line2d_11">
      <g>
       <use xlink:href="#m80cb698b0c" x="45" y="309.557506" style="stroke: #000000; stroke-width: 0.6"/>
      </g>
     </g>
    </g>
    <g id="ytick_7">
     <g id="line2d_12">
      <g>
       <use xlink:href="#m80cb698b0c" x="45" y="302.475616" style="stroke: #000000; stroke-width: 0.6"/>
      </g>
     </g>
    </g>
    <g id="ytick_8">
     <g id="line2d_13">
      <g>
       <use xlink:href="#m80cb698b0c" x="45" y="296.689291" style="stroke: #000000; stroke-width: 0.6"/>
      </g>
     </g>
    </g>
    <g id="ytick_9">
     <g id="line2d_14">
      <g>
       <use xlink:href="#m80cb698b0c" x="45" y="291.797022" style="stroke: #000000; stroke-width: 0.6"/>
      </g>
     </g>
    </g>
    <g id="ytick_10">
     <g id="line2d_15">
      <g>
       <use xlink:href="#m80cb698b0c" x="45" y="287.559146" style="stroke: #000000; stroke-width: 0.6"/>
      </g>
     </g>
    </g>
    <g id="ytick_11">
     <g id="line2d_16">
      <g>
       <use xlink:href="#m80cb698b0c" x="45" y="283.821075" style="stroke: #000000; stroke-width: 0.6"/>
      </g>
     </g>
    </g>
    <g id="ytick_12">
     <g id="line2d_17">
      <g>
       <use xlink:href="#m80cb698b0c" x="45" y="258.478896" style="stroke: #000000; stroke-width: 0.6"/>
      </g>
     </g>
    </g>
    <g id="ytick_13">
     <g id="line2d_18">
      <g>
       <use xlink:href="#m80cb698b0c" x="45" y="245.610681" style="stroke: #000000; stroke-width: 0.6"/>
      </g>
     </g>
    </g>
    <g id="ytick_14">
     <g id="line2d_19">
      <g>
       <use xlink:href="#m80cb698b0c" x="45" y="236.480536" style="stroke: #000000; stroke-width: 0.6"/>
      </g>
     </g>
    </g>
    <g id="ytick_15">
     <g id="line2d_20">
      <g>
       <use xlink:href="#m80cb698b0c" x="45" y="229.398646" style="stroke: #000000; stroke-width: 0.6"/>
      </g>
     </g>
    </g>
    <g id="ytick_16">
     <g id="line2d_21">
      <g>
       <use xlink:href="#m80cb698b0c" x="45" y="223.61232" style="stroke: #000000; stroke-width: 0.6"/>
      </g>
     </g>
    </g>
    <g id="ytick_17">
     <g id="line2d_22">
      <g>
       <use xlink:href="#m80cb698b0c" x="45" y="218.720052" style="stroke: #000000; stroke-width: 0.6"/>
      </g>
     </g>
    </g>
    <g id="ytick_18">
     <g id="line2d_23">
      <g>
       <use xlink:href="#m80cb698b0c" x="45" y="214.482176" style="stroke: #000000; stroke-width: 0.6"/>
      </g>
     </g>
    </g>
    <g id="ytick_19">
     <g id="line2d_24">
      <g>
       <use xlink:href="#m80cb698b0c" x="45" y="210.744105" style="stroke: #000000; stroke-width: 0.6"/>
      </g>
     </g>
    </g>
    <g id="ytick_20">
     <g id="line2d_25">
      <g>
       <use xlink:href="#m80cb698b0c" x="45" y="185.401926" style="stroke: #000000; stroke-width: 0.6"/>
      </g>
     </g>
    </g>
    <g id="ytick_21">
     <g id="line2d_26">
      <g>
       <use xlink:href="#m80cb698b0c" x="45" y="172.53371" style="stroke: #000000; stroke-width: 0.6"/>
      </g>
     </g>
    </g>
    <g id="ytick_22">
     <g id="line2d_27">
      <g>
       <use xlink:href="#m80cb698b0c" x="45" y="163.403566" style="stroke: #000000; stroke-width: 0.6"/>
      </g>
     </g>
    </g>
    <g id="ytick_23">
     <g id="line2d_28">
      <g>
       <use xlink:href="#m80cb698b0c" x="45" y="156.321676" style="stroke: #000000; stroke-width: 0.6"/>
      </g>
     </g>
    </g>
    <g id="ytick_24">
     <g id="line2d_29">
      <g>
       <use xlink:href="#m80cb698b0c" x="45" y="150.53535" style="stroke: #000000; stroke-width: 0.6"/>
      </g>
     </g>
    </g>
    <g id="ytick_25">
     <g id="line2d_30">
      <g>
       <use xlink:href="#m80cb698b0c" x="45" y="145.643082" style="stroke: #000000; stroke-width: 0.6"/>
      </g>
     </g>
    </g>
    <g id="ytick_26">
     <g id="line2d_31">
      <g>
       <use xlink:href="#m80cb698b0c" x="45" y="141.405206" style="stroke: #000000; stroke-width: 0.6"/>
      </g>
     </g>
    </g>
    <g id="ytick_27">
     <g id="line2d_32">
      <g>
       <use xlink:href="#m80cb698b0c" x="45" y="137.667135" style="stroke: #000000; stroke-width: 0.6"/>
      </g>
     </g>
    </g>
    <g id="ytick_28">
     <g id="line2d_33">
      <g>
       <use xlink:href="#m80cb698b0c" x="45" y="112.324956" style="stroke: #000000; stroke-width: 0.6"/>
      </g>
     </g>
    </g>
    <g id="ytick_29">
     <g id="line2d_34">
      <g>
       <use xlink:href="#m80cb698b0c" x="45" y="99.45674" style="stroke: #000000; stroke-width: 0.6"/>
      </g>
     </g>
    </g>
    <g id="ytick_30">
     <g id="line2d_35">
      <g>
       <use xlink:href="#m80cb698b0c" x="45" y="90.326596" style="stroke: #000000; stroke-width: 0.6"/>
      </g>
     </g>
    </g>
    <g id="ytick_31">
     <g id="line2d_36">
      <g>
       <use xlink:href="#m80cb698b0c" x="45" y="83.244706" style="stroke: #000000; stroke-width: 0.6"/>
      </g>
     </g>
    </g>
    <g id="ytick_32">
     <g id="line2d_37">
      <g>
       <use xlink:href="#m80cb698b0c" x="45" y="77.45838" style="stroke: #000000; stroke-width: 0.6"/>
      </g>
     </g>
    </g>
    <g id="ytick_33">
     <g id="line2d_38">
      <g>
       <use xlink:href="#m80cb698b0c" x="45" y="72.566111" style="stroke: #000000; stroke-width: 0.6"/>
      </g>
     </g>
    </g>
    <g id="ytick_34">
     <g id="line2d_39">
      <g>
       <use xlink:href="#m80cb698b0c" x="45" y="68.328236" style="stroke: #000000; stroke-width: 0.6"/>
      </g>
     </g>
    </g>
    <g id="ytick_35">
     <g id="line2d_40">
      <g>
       <use xlink:href="#m80cb698b0c" x="45" y="64.590164" style="stroke: #000000; stroke-width: 0.6"/>
      </g>
     </g>
    </g>
   </g>
   <g id="line2d_41">
    <path d="M 83.045455 99.475591 
L 85.095043 111.812548 
L 87.144626 134.099276 
L 89.194215 192.433662 
L 91.243804 147.110131 
L 93.293387 127.680931 
L 95.342976 118.829734 
L 97.392564 117.523891 
L 99.442147 119.970894 
L 101.491736 125.067953 
L 103.541319 141.600036 
L 105.590908 173.79762 
L 107.640497 175.296074 
L 109.690079 146.020974 
L 111.739668 134.468143 
L 113.789251 132.973475 
L 115.83884 135.935013 
L 117.888429 150.823079 
L 119.938012 200.408142 
L 121.9876 173.304097 
L 124.037189 146.173594 
L 126.086772 139.579382 
L 128.136361 141.087916 
L 130.18595 157.269387 
L 132.235539 194.854815 
L 134.285124 172.4191 
L 136.334713 148.249661 
L 138.384299 142.384687 
L 140.433885 143.966704 
L 142.483471 161.566961 
L 144.53306 194.269366 
L 146.582646 171.731555 
L 148.632231 156.002115 
L 150.681817 147.83373 
L 152.731406 149.893019 
L 154.780992 168.371227 
L 156.830578 227.328581 
L 158.880164 174.107 
L 160.929752 159.1151 
L 162.979338 157.523598 
L 165.028924 164.850385 
L 167.078511 206.667312 
L 169.128097 195.002433 
L 171.177685 168.693962 
L 173.227271 161.460646 
L 175.276858 164.544092 
L 177.326445 200.159471 
L 179.376031 206.978639 
L 181.425623 171.317665 
L 183.47521 169.352872 
L 185.524796 177.899584 
L 187.574383 199.957737 
L 189.62397 217.801821 
L 191.673556 202.916345 
L 193.723144 191.729961 
L 195.77273 209.256706 
L 197.822315 277.244893 
L 199.871903 251.961199 
L 201.921489 221.625067 
L 203.971076 243.998776 
L 206.020662 272.376064 
L 208.070249 254.782668 
L 210.119836 199.877705 
L 212.169422 206.438741 
L 214.219008 219.568355 
L 216.268594 212.671916 
L 218.318183 191.633358 
L 220.367769 171.707955 
L 222.417354 174.662994 
L 224.46694 194.20814 
L 226.516529 202.643564 
L 228.566115 174.415143 
L 230.615701 159.909519 
L 232.665287 164.848232 
L 234.714876 174.665279 
L 236.764461 205.936808 
L 238.81405 202.407839 
L 240.863633 175.811448 
L 242.913222 162.719429 
L 244.962805 161.945914 
L 247.012394 162.392279 
L 249.061982 177.114357 
L 251.111565 268.054582 
L 253.161154 187.217558 
L 255.210743 161.768761 
L 257.260326 157.408265 
L 259.309915 154.64875 
L 261.359503 166.885766 
L 263.409092 188.250739 
L 265.458681 258.204781 
L 267.508264 174.926358 
L 269.557853 155.224212 
L 271.607442 149.896326 
L 273.657024 148.656224 
L 275.706613 149.824165 
L 277.756202 163.882329 
L 279.805785 262.7007 
L 281.855374 174.757742 
L 283.904957 148.250482 
L 285.954545 136.641763 
" clip-path="url(#p5eedb68f43)" style="fill: none; stroke: #1f77b4; stroke-width: 1.5; stroke-linecap: square"/>
   </g>
   <g id="line2d_42">
    <path d="M 57.681818 116.228644 
L 58.317496 136.354479 
L 58.953174 145.30246 
L 59.588863 151.448388 
L 60.224541 183.651535 
L 60.860219 175.424092 
L 62.131574 129.822089 
L 62.767264 124.039974 
L 63.402942 114.239552 
L 64.038619 98.738416 
L 64.674309 99.290604 
L 65.309987 95.382275 
L 65.945664 98.337645 
L 67.21702 90.481151 
L 67.852697 86.741652 
L 68.488375 88.856895 
L 69.124053 85.762368 
L 69.759743 85.11636 
L 70.39542 82.203008 
L 71.031098 82.586139 
L 71.666776 81.072193 
L 72.302453 82.489709 
L 72.938143 82.254359 
L 73.573821 81.84949 
L 74.209498 81.201579 
L 74.845188 82.809384 
L 75.480866 78.444668 
L 76.116544 81.966095 
L 76.752221 79.548372 
L 77.387899 81.988785 
L 78.023577 86.882658 
L 78.659254 82.97766 
L 79.294932 87.642808 
L 79.930622 89.739428 
L 80.566299 93.579223 
L 81.201977 96.69907 
L 81.837655 93.290319 
L 82.473333 98.305173 
L 83.109022 98.157561 
L 83.7447 108.956483 
L 84.380384 102.751371 
L 85.016061 118.202572 
L 85.651745 118.663427 
L 86.287423 120.917364 
L 87.558784 127.701599 
L 88.194462 134.379484 
L 88.83014 199.216693 
L 89.465823 199.326731 
L 90.101501 158.814765 
L 90.737185 154.058813 
L 91.372862 132.042825 
L 92.00854 160.047387 
L 92.644224 122.592019 
L 93.279902 135.207922 
L 93.915579 128.486364 
L 94.551263 125.256172 
L 95.186941 114.693835 
L 95.822624 128.516329 
L 96.458302 119.575528 
L 97.09398 118.238391 
L 97.729663 109.809036 
L 98.365347 121.619931 
L 99.001025 116.865715 
L 99.636709 115.26249 
L 100.272386 131.848209 
L 101.543748 120.040532 
L 102.179425 123.353351 
L 102.815109 133.093088 
L 103.450781 151.497725 
L 104.086458 140.36132 
L 104.722142 140.75631 
L 105.35782 154.369451 
L 105.993504 152.563304 
L 106.629181 192.87058 
L 107.264859 154.403975 
L 107.900543 190.676264 
L 108.536226 152.44047 
L 109.171904 139.746289 
L 109.807588 141.526327 
L 110.443266 148.789636 
L 111.078949 129.585187 
L 111.714627 127.70728 
L 112.350305 128.409628 
L 112.985988 135.688608 
L 113.621666 136.971512 
L 114.257344 131.556489 
L 114.893027 137.190778 
L 115.528705 141.519177 
L 116.164389 128.775969 
L 116.800067 128.30003 
L 117.435744 149.375367 
L 118.071428 160.425331 
L 118.707106 161.283608 
L 119.342783 178.074721 
L 119.978467 177.194808 
L 120.614145 197.950581 
L 121.249829 150.445559 
L 121.885506 158.364361 
L 122.521184 285.163779 
L 123.156868 169.122914 
L 123.792545 147.728796 
L 124.428223 133.795873 
L 125.063907 131.686394 
L 125.699584 126.660747 
L 126.335268 133.991135 
L 126.970946 146.642319 
L 127.606623 155.994176 
L 128.242307 153.421778 
L 128.877991 129.766305 
L 129.513669 136.705406 
L 130.149352 150.339348 
L 130.78503 216.502854 
L 131.420714 183.951231 
L 132.056391 175.056133 
L 132.692069 185.920803 
L 133.327753 221.823695 
L 133.963431 221.615592 
L 134.599111 143.47399 
L 135.234792 175.793816 
L 135.87047 156.518253 
L 136.50615 188.417446 
L 137.141831 131.968654 
L 137.777512 129.508953 
L 138.413193 134.690861 
L 139.04887 159.153752 
L 139.684551 173.501821 
L 140.320232 168.876174 
L 140.955909 132.620193 
L 141.59159 139.662871 
L 142.227271 136.479361 
L 142.862951 146.92325 
L 143.498632 161.472748 
L 144.13431 189.413962 
L 144.769991 170.597553 
L 145.405671 157.227686 
L 146.041349 148.475093 
L 146.67703 216.086889 
L 147.31271 149.247111 
L 147.948391 152.347677 
L 148.584072 140.370245 
L 149.219749 146.241348 
L 149.85543 134.710425 
L 150.491111 134.798939 
L 151.126789 156.513114 
L 151.762469 141.485023 
L 152.39815 171.491945 
L 153.033831 144.216431 
L 153.669511 138.490563 
L 154.305195 154.837169 
L 154.940876 150.904567 
L 155.576557 162.575906 
L 156.212234 148.725834 
L 156.847915 182.184601 
L 157.483596 171.869235 
L 158.119276 164.238591 
L 158.754957 159.297208 
L 159.390635 147.204085 
L 160.026315 301.127915 
L 160.661995 141.674448 
L 161.297675 179.996461 
L 161.933355 146.458289 
L 162.569035 135.218642 
L 163.204716 161.807818 
L 163.840395 159.041315 
L 164.476068 172.160012 
L 165.111749 225.201782 
L 165.747428 154.464707 
L 166.383109 174.062636 
L 167.018788 160.769482 
L 167.654469 162.726095 
L 168.29015 162.046619 
L 168.925829 177.045011 
L 169.561514 148.785779 
L 170.197195 188.266159 
L 170.832874 214.64759 
L 171.468555 137.640692 
L 172.104235 153.350899 
L 172.739914 143.369309 
L 173.375594 156.539616 
L 174.011274 146.389795 
L 174.64696 149.918674 
L 175.28264 154.936358 
L 175.91832 142.082246 
L 176.554 191.042881 
L 177.18968 178.513605 
L 177.82536 190.058643 
L 178.46104 217.219132 
L 179.09672 195.803461 
L 179.732393 170.555461 
L 180.368073 173.747921 
L 181.003753 160.353509 
L 181.639433 250.184845 
L 182.275114 272.458239 
L 182.910794 170.884669 
L 183.546474 186.087277 
L 184.182154 186.313854 
L 184.817839 167.342488 
L 185.453519 185.270568 
L 186.089199 209.218221 
L 186.724879 256.959423 
L 187.360559 179.316022 
L 187.996239 154.648507 
L 188.631919 194.629355 
L 189.2676 199.597106 
L 189.903285 181.141483 
L 190.538964 224.362427 
L 191.174644 169.386659 
L 191.810325 218.991587 
L 192.446005 150.004627 
L 193.081685 265.49883 
L 193.717365 172.92839 
L 194.353045 241.524277 
L 194.98873 187.162222 
L 195.62441 165.735248 
L 196.26009 190.509595 
L 196.895771 237.709425 
L 197.53145 164.550172 
L 198.167131 202.301502 
L 198.802811 165.426084 
L 199.438491 175.249915 
L 200.074164 173.731415 
L 200.709844 165.846398 
L 201.345524 171.226767 
L 201.981204 158.334598 
L 202.616884 166.013343 
L 203.252564 203.429959 
L 203.888245 168.378417 
L 204.523924 212.519067 
L 205.159609 165.175661 
L 205.79529 163.870089 
L 206.430969 176.467135 
L 207.06665 168.351489 
L 207.702329 266.738101 
L 208.33801 172.08336 
L 208.973691 194.866634 
L 209.60937 232.423762 
L 210.245049 218.63939 
L 210.88073 307.8 
L 211.51641 199.474117 
L 212.152088 169.973706 
L 212.787769 172.960393 
L 213.42345 188.810431 
L 214.05913 153.663958 
L 214.694811 183.188282 
L 215.330489 167.877128 
L 215.966169 219.859178 
L 216.60185 235.967739 
L 217.237528 198.123528 
L 217.873208 185.431859 
L 218.508889 222.29848 
L 219.14457 143.838795 
L 219.780251 182.055641 
L 220.415928 252.654223 
L 221.051609 169.764754 
L 221.68729 152.295379 
L 222.322967 182.04747 
L 222.958648 162.420648 
L 223.594329 158.14522 
L 224.230009 150.977566 
L 224.86569 221.003956 
L 225.501368 186.569917 
L 226.137049 195.829988 
L 226.772729 186.085151 
L 228.044088 178.707796 
L 228.679768 174.230816 
L 229.315449 142.183427 
L 229.95113 147.791657 
L 230.586807 205.503484 
L 231.222488 167.337883 
L 231.858169 223.941213 
L 233.129527 156.141282 
L 233.765208 147.534196 
L 234.400889 142.798511 
L 235.036569 193.87587 
L 235.672253 151.271127 
L 236.307931 192.158345 
L 236.943615 171.289004 
L 237.579292 157.739582 
L 238.214976 282.73431 
L 238.850654 166.096219 
L 239.486331 151.474448 
L 240.122015 162.413954 
L 240.757693 280.004503 
L 241.39337 160.136326 
L 242.029054 157.50486 
L 242.664732 149.309202 
L 243.300416 208.472255 
L 243.936093 183.571838 
L 244.571771 172.306922 
L 245.207455 143.96332 
L 245.843132 139.582998 
L 246.47881 166.595772 
L 247.114494 180.584849 
L 247.750171 152.251154 
L 248.385855 161.360805 
L 249.021533 204.877823 
L 249.657211 199.778695 
L 250.292894 215.256665 
L 250.928572 193.52254 
L 251.56425 162.259028 
L 252.199933 166.533287 
L 253.471295 269.825836 
L 254.106973 159.231654 
L 254.74265 183.945268 
L 255.378334 184.301667 
L 256.014012 136.994293 
L 256.649689 148.092438 
L 257.285373 139.399471 
L 257.921051 176.38564 
L 258.556734 171.969086 
L 259.192412 146.332796 
L 259.82809 194.677192 
L 260.463774 199.834756 
L 261.099451 164.094167 
L 261.735129 187.785999 
L 262.370813 222.754343 
L 263.00649 153.449552 
L 263.642174 151.369817 
L 264.913529 226.473586 
L 265.549213 155.699953 
L 266.184897 171.632325 
L 266.820575 215.152768 
L 267.456258 231.464541 
L 268.091936 161.909416 
L 268.72762 149.374607 
L 269.363297 184.07617 
L 269.998975 136.271223 
L 270.634659 175.531553 
L 271.270337 140.611175 
L 271.906014 148.201409 
L 272.541698 142.678836 
L 273.177376 149.803424 
L 273.813059 140.663938 
L 274.448737 174.098851 
L 275.084415 148.907029 
L 275.720098 187.698255 
L 276.355776 234.945064 
L 276.991454 145.558667 
L 277.627138 143.520653 
L 278.262815 206.932752 
L 278.898499 187.96809 
L 279.534177 156.99433 
L 280.169854 235.87156 
L 280.805538 164.622846 
L 281.441222 187.421974 
L 282.076899 160.860569 
L 282.712583 151.335243 
L 283.348261 146.954341 
L 283.983945 153.88485 
L 284.619622 127.43228 
L 285.2553 135.913295 
L 285.890984 146.822955 
L 286.526655 133.673059 
L 287.162333 127.584657 
L 287.798011 124.908947 
L 288.433701 139.28971 
L 289.069378 123.248122 
L 289.705056 135.030483 
L 290.340734 141.350053 
L 290.976411 137.449415 
L 291.612101 119.371144 
L 292.247779 122.224136 
L 292.883456 124.16261 
L 293.519146 131.555665 
L 294.154824 133.761742 
L 294.790502 164.236285 
L 295.426179 247.260527 
L 296.061857 177.081011 
L 296.697535 155.562243 
L 297.333212 138.377506 
L 297.96889 133.752154 
L 298.60458 131.436732 
L 299.240257 125.762674 
L 299.875935 109.991241 
L 300.511613 103.182774 
L 301.14729 102.292208 
L 301.78298 93.981035 
L 302.418658 89.736094 
L 303.054336 90.428234 
L 303.690025 84.22784 
L 304.325703 84.289821 
L 304.961381 81.073288 
L 305.597058 76.168647 
L 308.139781 65.473997 
L 308.775471 63.546291 
L 309.411149 62.16983 
L 310.046826 61.16427 
L 310.682504 57.627029 
L 311.318182 55.8 
L 311.318182 55.8 
" clip-path="url(#p5eedb68f43)" style="fill: none; stroke: #ff7f0e; stroke-width: 1.5; stroke-linecap: square"/>
   </g>
   <g id="patch_3">
    <path d="M 45 320.4 
L 45 43.2 
" style="fill: none; stroke: #000000; stroke-width: 0.8; stroke-linejoin: miter; stroke-linecap: square"/>
   </g>
   <g id="patch_4">
    <path d="M 324 320.4 
L 324 43.2 
" style="fill: none; stroke: #000000; stroke-width: 0.8; stroke-linejoin: miter; stroke-linecap: square"/>
   </g>
   <g id="patch_5">
    <path d="M 45 320.4 
L 324 320.4 
" style="fill: none; stroke: #000000; stroke-width: 0.8; stroke-linejoin: miter; stroke-linecap: square"/>
   </g>
   <g id="patch_6">
    <path d="M 45 43.2 
L 324 43.2 
" style="fill: none; stroke: #000000; stroke-width: 0.8; stroke-linejoin: miter; stroke-linecap: square"/>
   </g>
   <g id="text_10">
    <!-- Prediction Error -->
    <g transform="translate(138.166875 37.2)scale(0.12 -0.12)">
     <defs>
      <path id="DejaVuSans-50" d="M 1259 4147 
L 1259 2394 
L 2053 2394 
Q 2494 2394 2734 2622 
Q 2975 2850 2975 3272 
Q 2975 3691 2734 3919 
Q 2494 4147 2053 4147 
L 1259 4147 
z
M 628 4666 
L 2053 4666 
Q 2838 4666 3239 4311 
Q 3641 3956 3641 3272 
Q 3641 2581 3239 2228 
Q 2838 1875 2053 1875 
L 1259 1875 
L 1259 0 
L 628 0 
L 628 4666 
z
" transform="scale(0.015625)"/>
      <path id="DejaVuSans-72" d="M 2631 2963 
Q 2534 3019 2420 3045 
Q 2306 3072 2169 3072 
Q 1681 3072 1420 2755 
Q 1159 2438 1159 1844 
L 1159 0 
L 581 0 
L 581 3500 
L 1159 3500 
L 1159 2956 
Q 1341 3275 1631 3429 
Q 1922 3584 2338 3584 
Q 2397 3584 2469 3576 
Q 2541 3569 2628 3553 
L 2631 2963 
z
" transform="scale(0.015625)"/>
      <path id="DejaVuSans-65" d="M 3597 1894 
L 3597 1613 
L 953 1613 
Q 991 1019 1311 708 
Q 1631 397 2203 397 
Q 2534 397 2845 478 
Q 3156 559 3463 722 
L 3463 178 
Q 3153 47 2828 -22 
Q 2503 -91 2169 -91 
Q 1331 -91 842 396 
Q 353 884 353 1716 
Q 353 2575 817 3079 
Q 1281 3584 2069 3584 
Q 2775 3584 3186 3129 
Q 3597 2675 3597 1894 
z
M 3022 2063 
Q 3016 2534 2758 2815 
Q 2500 3097 2075 3097 
Q 1594 3097 1305 2825 
Q 1016 2553 972 2059 
L 3022 2063 
z
" transform="scale(0.015625)"/>
      <path id="DejaVuSans-64" d="M 2906 2969 
L 2906 4863 
L 3481 4863 
L 3481 0 
L 2906 0 
L 2906 525 
Q 2725 213 2448 61 
Q 2172 -91 1784 -91 
Q 1150 -91 751 415 
Q 353 922 353 1747 
Q 353 2572 751 3078 
Q 1150 3584 1784 3584 
Q 2172 3584 2448 3432 
Q 2725 3281 2906 2969 
z
M 947 1747 
Q 947 1113 1208 752 
Q 1469 391 1925 391 
Q 2381 391 2643 752 
Q 2906 1113 2906 1747 
Q 2906 2381 2643 2742 
Q 2381 3103 1925 3103 
Q 1469 3103 1208 2742 
Q 947 2381 947 1747 
z
" transform="scale(0.015625)"/>
      <path id="DejaVuSans-69" d="M 603 3500 
L 1178 3500 
L 1178 0 
L 603 0 
L 603 3500 
z
M 603 4863 
L 1178 4863 
L 1178 4134 
L 603 4134 
L 603 4863 
z
" transform="scale(0.015625)"/>
      <path id="DejaVuSans-63" d="M 3122 3366 
L 3122 2828 
Q 2878 2963 2633 3030 
Q 2388 3097 2138 3097 
Q 1578 3097 1268 2742 
Q 959 2388 959 1747 
Q 959 1106 1268 751 
Q 1578 397 2138 397 
Q 2388 397 2633 464 
Q 2878 531 3122 666 
L 3122 134 
Q 2881 22 2623 -34 
Q 2366 -91 2075 -91 
Q 1284 -91 818 406 
Q 353 903 353 1747 
Q 353 2603 823 3093 
Q 1294 3584 2113 3584 
Q 2378 3584 2631 3529 
Q 2884 3475 3122 3366 
z
" transform="scale(0.015625)"/>
      <path id="DejaVuSans-74" d="M 1172 4494 
L 1172 3500 
L 2356 3500 
L 2356 3053 
L 1172 3053 
L 1172 1153 
Q 1172 725 1289 603 
Q 1406 481 1766 481 
L 2356 481 
L 2356 0 
L 1766 0 
Q 1100 0 847 248 
Q 594 497 594 1153 
L 594 3053 
L 172 3053 
L 172 3500 
L 594 3500 
L 594 4494 
L 1172 4494 
z
" transform="scale(0.015625)"/>
      <path id="DejaVuSans-6f" d="M 1959 3097 
Q 1497 3097 1228 2736 
Q 959 2375 959 1747 
Q 959 1119 1226 758 
Q 1494 397 1959 397 
Q 2419 397 2687 759 
Q 2956 1122 2956 1747 
Q 2956 2369 2687 2733 
Q 2419 3097 1959 3097 
z
M 1959 3584 
Q 2709 3584 3137 3096 
Q 3566 2609 3566 1747 
Q 3566 888 3137 398 
Q 2709 -91 1959 -91 
Q 1206 -91 779 398 
Q 353 888 353 1747 
Q 353 2609 779 3096 
Q 1206 3584 1959 3584 
z
" transform="scale(0.015625)"/>
      <path id="DejaVuSans-6e" d="M 3513 2113 
L 3513 0 
L 2938 0 
L 2938 2094 
Q 2938 2591 2744 2837 
Q 2550 3084 2163 3084 
Q 1697 3084 1428 2787 
Q 1159 2491 1159 1978 
L 1159 0 
L 581 0 
L 581 3500 
L 1159 3500 
L 1159 2956 
Q 1366 3272 1645 3428 
Q 1925 3584 2291 3584 
Q 2894 3584 3203 3211 
Q 3513 2838 3513 2113 
z
" transform="scale(0.015625)"/>
      <path id="DejaVuSans-20" transform="scale(0.015625)"/>
      <path id="DejaVuSans-45" d="M 628 4666 
L 3578 4666 
L 3578 4134 
L 1259 4134 
L 1259 2753 
L 3481 2753 
L 3481 2222 
L 1259 2222 
L 1259 531 
L 3634 531 
L 3634 0 
L 628 0 
L 628 4666 
z
" transform="scale(0.015625)"/>
     </defs>
     <use xlink:href="#DejaVuSans-50"/>
     <use xlink:href="#DejaVuSans-72" x="58.552734"/>
     <use xlink:href="#DejaVuSans-65" x="97.416016"/>
     <use xlink:href="#DejaVuSans-64" x="158.939453"/>
     <use xlink:href="#DejaVuSans-69" x="222.416016"/>
     <use xlink:href="#DejaVuSans-63" x="250.199219"/>
     <use xlink:href="#DejaVuSans-74" x="305.179688"/>
     <use xlink:href="#DejaVuSans-69" x="344.388672"/>
     <use xlink:href="#DejaVuSans-6f" x="372.171875"/>
     <use xlink:href="#DejaVuSans-6e" x="433.353516"/>
     <use xlink:href="#DejaVuSans-20" x="496.732422"/>
     <use xlink:href="#DejaVuSans-45" x="528.519531"/>
     <use xlink:href="#DejaVuSans-72" x="591.703125"/>
     <use xlink:href="#DejaVuSans-72" x="631.066406"/>
     <use xlink:href="#DejaVuSans-6f" x="669.929688"/>
     <use xlink:href="#DejaVuSans-72" x="731.111328"/>
    </g>
   </g>
   <g id="legend_1">
    <g id="patch_7">
     <path d="M 234.342187 315.4 
L 317 315.4 
Q 319 315.4 319 313.4 
L 319 285.04375 
Q 319 283.04375 317 283.04375 
L 234.342187 283.04375 
Q 232.342187 283.04375 232.342187 285.04375 
L 232.342187 313.4 
Q 232.342187 315.4 234.342187 315.4 
z
" style="fill: #ffffff; opacity: 0.8; stroke: #cccccc; stroke-linejoin: miter"/>
    </g>
    <g id="line2d_43">
     <path d="M 236.342187 291.142187 
L 246.342187 291.142187 
L 256.342188 291.142187 
" style="fill: none; stroke: #1f77b4; stroke-width: 1.5; stroke-linecap: square"/>
    </g>
    <g id="text_11">
     <!-- train error -->
     <g transform="translate(264.342188 294.642187)scale(0.1 -0.1)">
      <defs>
       <path id="DejaVuSans-61" d="M 2194 1759 
Q 1497 1759 1228 1600 
Q 959 1441 959 1056 
Q 959 750 1161 570 
Q 1363 391 1709 391 
Q 2188 391 2477 730 
Q 2766 1069 2766 1631 
L 2766 1759 
L 2194 1759 
z
M 3341 1997 
L 3341 0 
L 2766 0 
L 2766 531 
Q 2569 213 2275 61 
Q 1981 -91 1556 -91 
Q 1019 -91 701 211 
Q 384 513 384 1019 
Q 384 1609 779 1909 
Q 1175 2209 1959 2209 
L 2766 2209 
L 2766 2266 
Q 2766 2663 2505 2880 
Q 2244 3097 1772 3097 
Q 1472 3097 1187 3025 
Q 903 2953 641 2809 
L 641 3341 
Q 956 3463 1253 3523 
Q 1550 3584 1831 3584 
Q 2591 3584 2966 3190 
Q 3341 2797 3341 1997 
z
" transform="scale(0.015625)"/>
      </defs>
      <use xlink:href="#DejaVuSans-74"/>
      <use xlink:href="#DejaVuSans-72" x="39.208984"/>
      <use xlink:href="#DejaVuSans-61" x="80.322266"/>
      <use xlink:href="#DejaVuSans-69" x="141.601562"/>
      <use xlink:href="#DejaVuSans-6e" x="169.384766"/>
      <use xlink:href="#DejaVuSans-20" x="232.763672"/>
      <use xlink:href="#DejaVuSans-65" x="264.550781"/>
      <use xlink:href="#DejaVuSans-72" x="326.074219"/>
      <use xlink:href="#DejaVuSans-72" x="365.4375"/>
      <use xlink:href="#DejaVuSans-6f" x="404.300781"/>
      <use xlink:href="#DejaVuSans-72" x="465.482422"/>
     </g>
    </g>
    <g id="line2d_44">
     <path d="M 236.342187 305.820312 
L 246.342187 305.820312 
L 256.342188 305.820312 
" style="fill: none; stroke: #ff7f0e; stroke-width: 1.5; stroke-linecap: square"/>
    </g>
    <g id="text_12">
     <!-- test error -->
     <g transform="translate(264.342188 309.320312)scale(0.1 -0.1)">
      <defs>
       <path id="DejaVuSans-73" d="M 2834 3397 
L 2834 2853 
Q 2591 2978 2328 3040 
Q 2066 3103 1784 3103 
Q 1356 3103 1142 2972 
Q 928 2841 928 2578 
Q 928 2378 1081 2264 
Q 1234 2150 1697 2047 
L 1894 2003 
Q 2506 1872 2764 1633 
Q 3022 1394 3022 966 
Q 3022 478 2636 193 
Q 2250 -91 1575 -91 
Q 1294 -91 989 -36 
Q 684 19 347 128 
L 347 722 
Q 666 556 975 473 
Q 1284 391 1588 391 
Q 1994 391 2212 530 
Q 2431 669 2431 922 
Q 2431 1156 2273 1281 
Q 2116 1406 1581 1522 
L 1381 1569 
Q 847 1681 609 1914 
Q 372 2147 372 2553 
Q 372 3047 722 3315 
Q 1072 3584 1716 3584 
Q 2034 3584 2315 3537 
Q 2597 3491 2834 3397 
z
" transform="scale(0.015625)"/>
      </defs>
      <use xlink:href="#DejaVuSans-74"/>
      <use xlink:href="#DejaVuSans-65" x="39.208984"/>
      <use xlink:href="#DejaVuSans-73" x="100.732422"/>
      <use xlink:href="#DejaVuSans-74" x="152.832031"/>
      <use xlink:href="#DejaVuSans-20" x="192.041016"/>
      <use xlink:href="#DejaVuSans-65" x="223.828125"/>
      <use xlink:href="#DejaVuSans-72" x="285.351562"/>
      <use xlink:href="#DejaVuSans-72" x="324.714844"/>
      <use xlink:href="#DejaVuSans-6f" x="363.578125"/>
      <use xlink:href="#DejaVuSans-72" x="424.759766"/>
     </g>
    </g>
   </g>
  </g>
 </g>
 <defs>
  <clipPath id="p5eedb68f43">
   <rect x="45" y="43.2" width="279" height="277.2"/>
  </clipPath>
 </defs>
</svg>
