<?xml version="1.0" encoding="utf-8" standalone="no"?>
<!DOCTYPE svg PUBLIC "-//W3C//DTD SVG 1.1//EN"
  "http://www.w3.org/Graphics/SVG/1.1/DTD/svg11.dtd">
<svg xmlns:xlink="http://www.w3.org/1999/xlink" width="360pt" height="360pt" viewBox="0 0 360 360" xmlns="http://www.w3.org/2000/svg" version="1.1">
 <metadata>
  <rdf:RDF xmlns:dc="http://purl.org/dc/elements/1.1/" xmlns:cc="http://creativecommons.org/ns#" xmlns:rdf="http://www.w3.org/1999/02/22-rdf-syntax-ns#">
   <cc:Work>
    <dc:type rdf:resource="http://purl.org/dc/dcmitype/StillImage"/>
    <dc:date>2022-11-15T22:48:03.358464</dc:date>
    <dc:format>image/svg+xml</dc:format>
    <dc:creator>
     <cc:Agent>
      <dc:title>Matplotlib v3.5.3, https://matplotlib.org/</dc:title>
     </cc:Agent>
    </dc:creator>
   </cc:Work>
  </rdf:RDF>
 </metadata>
 <defs>
  <style type="text/css">*{stroke-linejoin: round; stroke-linecap: butt}</style>
 </defs>
 <g id="figure_1">
  <g id="patch_1">
   <path d="M 0 360 
L 360 360 
L 360 0 
L 0 0 
z
" style="fill: #ffffff"/>
  </g>
  <g id="axes_1">
   <g id="patch_2">
    <path d="M 45 320.4 
L 324 320.4 
L 324 43.2 
L 45 43.2 
z
" style="fill: #ffffff"/>
   </g>
   <g id="matplotlib.axis_1">
    <g id="xtick_1">
     <g id="line2d_1">
      <defs>
       <path id="m0c9f89aafe" d="M 0 0 
L 0 3.5 
" style="stroke: #000000; stroke-width: 0.8"/>
      </defs>
      <g>
       <use xlink:href="#m0c9f89aafe" x="83.045455" y="320.4" style="stroke: #000000; stroke-width: 0.8"/>
      </g>
     </g>
     <g id="text_1">
      <!-- −2 -->
      <g transform="translate(75.674361 334.998438)scale(0.1 -0.1)">
       <defs>
        <path id="DejaVuSans-2212" d="M 678 2272 
L 4684 2272 
L 4684 1741 
L 678 1741 
L 678 2272 
z
" transform="scale(0.015625)"/>
        <path id="DejaVuSans-32" d="M 1228 531 
L 3431 531 
L 3431 0 
L 469 0 
L 469 531 
Q 828 903 1448 1529 
Q 2069 2156 2228 2338 
Q 2531 2678 2651 2914 
Q 2772 3150 2772 3378 
Q 2772 3750 2511 3984 
Q 2250 4219 1831 4219 
Q 1534 4219 1204 4116 
Q 875 4013 500 3803 
L 500 4441 
Q 881 4594 1212 4672 
Q 1544 4750 1819 4750 
Q 2544 4750 2975 4387 
Q 3406 4025 3406 3419 
Q 3406 3131 3298 2873 
Q 3191 2616 2906 2266 
Q 2828 2175 2409 1742 
Q 1991 1309 1228 531 
z
" transform="scale(0.015625)"/>
       </defs>
       <use xlink:href="#DejaVuSans-2212"/>
       <use xlink:href="#DejaVuSans-32" x="83.789062"/>
      </g>
     </g>
    </g>
    <g id="xtick_2">
     <g id="line2d_2">
      <g>
       <use xlink:href="#m0c9f89aafe" x="133.772727" y="320.4" style="stroke: #000000; stroke-width: 0.8"/>
      </g>
     </g>
     <g id="text_2">
      <!-- −1 -->
      <g transform="translate(126.401634 334.998438)scale(0.1 -0.1)">
       <defs>
        <path id="DejaVuSans-31" d="M 794 531 
L 1825 531 
L 1825 4091 
L 703 3866 
L 703 4441 
L 1819 4666 
L 2450 4666 
L 2450 531 
L 3481 531 
L 3481 0 
L 794 0 
L 794 531 
z
" transform="scale(0.015625)"/>
       </defs>
       <use xlink:href="#DejaVuSans-2212"/>
       <use xlink:href="#DejaVuSans-31" x="83.789062"/>
      </g>
     </g>
    </g>
    <g id="xtick_3">
     <g id="line2d_3">
      <g>
       <use xlink:href="#m0c9f89aafe" x="184.5" y="320.4" style="stroke: #000000; stroke-width: 0.8"/>
      </g>
     </g>
     <g id="text_3">
      <!-- 0 -->
      <g transform="translate(181.31875 334.998438)scale(0.1 -0.1)">
       <defs>
        <path id="DejaVuSans-30" d="M 2034 4250 
Q 1547 4250 1301 3770 
Q 1056 3291 1056 2328 
Q 1056 1369 1301 889 
Q 1547 409 2034 409 
Q 2525 409 2770 889 
Q 3016 1369 3016 2328 
Q 3016 3291 2770 3770 
Q 2525 4250 2034 4250 
z
M 2034 4750 
Q 2819 4750 3233 4129 
Q 3647 3509 3647 2328 
Q 3647 1150 3233 529 
Q 2819 -91 2034 -91 
Q 1250 -91 836 529 
Q 422 1150 422 2328 
Q 422 3509 836 4129 
Q 1250 4750 2034 4750 
z
" transform="scale(0.015625)"/>
       </defs>
       <use xlink:href="#DejaVuSans-30"/>
      </g>
     </g>
    </g>
    <g id="xtick_4">
     <g id="line2d_4">
      <g>
       <use xlink:href="#m0c9f89aafe" x="235.227273" y="320.4" style="stroke: #000000; stroke-width: 0.8"/>
      </g>
     </g>
     <g id="text_4">
      <!-- 1 -->
      <g transform="translate(232.046023 334.998438)scale(0.1 -0.1)">
       <use xlink:href="#DejaVuSans-31"/>
      </g>
     </g>
    </g>
    <g id="xtick_5">
     <g id="line2d_5">
      <g>
       <use xlink:href="#m0c9f89aafe" x="285.954545" y="320.4" style="stroke: #000000; stroke-width: 0.8"/>
      </g>
     </g>
     <g id="text_5">
      <!-- 2 -->
      <g transform="translate(282.773295 334.998438)scale(0.1 -0.1)">
       <use xlink:href="#DejaVuSans-32"/>
      </g>
     </g>
    </g>
   </g>
   <g id="matplotlib.axis_2">
    <g id="ytick_1">
     <g id="line2d_6">
      <defs>
       <path id="me6948919f5" d="M 0 0 
L -3.5 0 
" style="stroke: #000000; stroke-width: 0.8"/>
      </defs>
      <g>
       <use xlink:href="#me6948919f5" x="45" y="294.919541" style="stroke: #000000; stroke-width: 0.8"/>
      </g>
     </g>
     <g id="text_6">
      <!-- −1 -->
      <g transform="translate(23.257812 298.718759)scale(0.1 -0.1)">
       <use xlink:href="#DejaVuSans-2212"/>
       <use xlink:href="#DejaVuSans-31" x="83.789062"/>
      </g>
     </g>
    </g>
    <g id="ytick_2">
     <g id="line2d_7">
      <g>
       <use xlink:href="#me6948919f5" x="45" y="262.087741" style="stroke: #000000; stroke-width: 0.8"/>
      </g>
     </g>
     <g id="text_7">
      <!-- 0 -->
      <g transform="translate(31.6375 265.886959)scale(0.1 -0.1)">
       <use xlink:href="#DejaVuSans-30"/>
      </g>
     </g>
    </g>
    <g id="ytick_3">
     <g id="line2d_8">
      <g>
       <use xlink:href="#me6948919f5" x="45" y="229.255941" style="stroke: #000000; stroke-width: 0.8"/>
      </g>
     </g>
     <g id="text_8">
      <!-- 1 -->
      <g transform="translate(31.6375 233.055159)scale(0.1 -0.1)">
       <use xlink:href="#DejaVuSans-31"/>
      </g>
     </g>
    </g>
    <g id="ytick_4">
     <g id="line2d_9">
      <g>
       <use xlink:href="#me6948919f5" x="45" y="196.424141" style="stroke: #000000; stroke-width: 0.8"/>
      </g>
     </g>
     <g id="text_9">
      <!-- 2 -->
      <g transform="translate(31.6375 200.22336)scale(0.1 -0.1)">
       <use xlink:href="#DejaVuSans-32"/>
      </g>
     </g>
    </g>
    <g id="ytick_5">
     <g id="line2d_10">
      <g>
       <use xlink:href="#me6948919f5" x="45" y="163.592341" style="stroke: #000000; stroke-width: 0.8"/>
      </g>
     </g>
     <g id="text_10">
      <!-- 3 -->
      <g transform="translate(31.6375 167.39156)scale(0.1 -0.1)">
       <defs>
        <path id="DejaVuSans-33" d="M 2597 2516 
Q 3050 2419 3304 2112 
Q 3559 1806 3559 1356 
Q 3559 666 3084 287 
Q 2609 -91 1734 -91 
Q 1441 -91 1130 -33 
Q 819 25 488 141 
L 488 750 
Q 750 597 1062 519 
Q 1375 441 1716 441 
Q 2309 441 2620 675 
Q 2931 909 2931 1356 
Q 2931 1769 2642 2001 
Q 2353 2234 1838 2234 
L 1294 2234 
L 1294 2753 
L 1863 2753 
Q 2328 2753 2575 2939 
Q 2822 3125 2822 3475 
Q 2822 3834 2567 4026 
Q 2313 4219 1838 4219 
Q 1578 4219 1281 4162 
Q 984 4106 628 3988 
L 628 4550 
Q 988 4650 1302 4700 
Q 1616 4750 1894 4750 
Q 2613 4750 3031 4423 
Q 3450 4097 3450 3541 
Q 3450 3153 3228 2886 
Q 3006 2619 2597 2516 
z
" transform="scale(0.015625)"/>
       </defs>
       <use xlink:href="#DejaVuSans-33"/>
      </g>
     </g>
    </g>
    <g id="ytick_6">
     <g id="line2d_11">
      <g>
       <use xlink:href="#me6948919f5" x="45" y="130.760541" style="stroke: #000000; stroke-width: 0.8"/>
      </g>
     </g>
     <g id="text_11">
      <!-- 4 -->
      <g transform="translate(31.6375 134.55976)scale(0.1 -0.1)">
       <defs>
        <path id="DejaVuSans-34" d="M 2419 4116 
L 825 1625 
L 2419 1625 
L 2419 4116 
z
M 2253 4666 
L 3047 4666 
L 3047 1625 
L 3713 1625 
L 3713 1100 
L 3047 1100 
L 3047 0 
L 2419 0 
L 2419 1100 
L 313 1100 
L 313 1709 
L 2253 4666 
z
" transform="scale(0.015625)"/>
       </defs>
       <use xlink:href="#DejaVuSans-34"/>
      </g>
     </g>
    </g>
    <g id="ytick_7">
     <g id="line2d_12">
      <g>
       <use xlink:href="#me6948919f5" x="45" y="97.928741" style="stroke: #000000; stroke-width: 0.8"/>
      </g>
     </g>
     <g id="text_12">
      <!-- 5 -->
      <g transform="translate(31.6375 101.72796)scale(0.1 -0.1)">
       <defs>
        <path id="DejaVuSans-35" d="M 691 4666 
L 3169 4666 
L 3169 4134 
L 1269 4134 
L 1269 2991 
Q 1406 3038 1543 3061 
Q 1681 3084 1819 3084 
Q 2600 3084 3056 2656 
Q 3513 2228 3513 1497 
Q 3513 744 3044 326 
Q 2575 -91 1722 -91 
Q 1428 -91 1123 -41 
Q 819 9 494 109 
L 494 744 
Q 775 591 1075 516 
Q 1375 441 1709 441 
Q 2250 441 2565 725 
Q 2881 1009 2881 1497 
Q 2881 1984 2565 2268 
Q 2250 2553 1709 2553 
Q 1456 2553 1204 2497 
Q 953 2441 691 2322 
L 691 4666 
z
" transform="scale(0.015625)"/>
       </defs>
       <use xlink:href="#DejaVuSans-35"/>
      </g>
     </g>
    </g>
    <g id="ytick_8">
     <g id="line2d_13">
      <g>
       <use xlink:href="#me6948919f5" x="45" y="65.096941" style="stroke: #000000; stroke-width: 0.8"/>
      </g>
     </g>
     <g id="text_13">
      <!-- 6 -->
      <g transform="translate(31.6375 68.89616)scale(0.1 -0.1)">
       <defs>
        <path id="DejaVuSans-36" d="M 2113 2584 
Q 1688 2584 1439 2293 
Q 1191 2003 1191 1497 
Q 1191 994 1439 701 
Q 1688 409 2113 409 
Q 2538 409 2786 701 
Q 3034 994 3034 1497 
Q 3034 2003 2786 2293 
Q 2538 2584 2113 2584 
z
M 3366 4563 
L 3366 3988 
Q 3128 4100 2886 4159 
Q 2644 4219 2406 4219 
Q 1781 4219 1451 3797 
Q 1122 3375 1075 2522 
Q 1259 2794 1537 2939 
Q 1816 3084 2150 3084 
Q 2853 3084 3261 2657 
Q 3669 2231 3669 1497 
Q 3669 778 3244 343 
Q 2819 -91 2113 -91 
Q 1303 -91 875 529 
Q 447 1150 447 2328 
Q 447 3434 972 4092 
Q 1497 4750 2381 4750 
Q 2619 4750 2861 4703 
Q 3103 4656 3366 4563 
z
" transform="scale(0.015625)"/>
       </defs>
       <use xlink:href="#DejaVuSans-36"/>
      </g>
     </g>
    </g>
   </g>
   <g id="line2d_14">
    <path d="M 57.681818 263.027839 
L 58.317496 260.639517 
L 58.953174 260.224065 
L 59.588863 260.159112 
L 60.224541 257.897936 
L 60.860219 258.041972 
L 61.495896 257.319225 
L 62.131574 255.864386 
L 62.767264 255.465363 
L 63.402942 254.182525 
L 64.038619 250.651298 
L 64.674309 251.189206 
L 65.309987 250.257924 
L 65.945664 251.622072 
L 67.852697 248.238216 
L 68.488375 249.561694 
L 69.124053 248.529732 
L 69.759743 248.595984 
L 70.39542 247.48733 
L 71.031098 248.070968 
L 71.666776 247.632918 
L 72.302453 248.782041 
L 73.573821 249.20258 
L 74.209498 249.23006 
L 74.845188 250.475643 
L 75.480866 248.401774 
L 76.116544 250.785959 
L 76.752221 249.81023 
L 77.387899 251.550416 
L 78.023577 254.363783 
L 78.659254 252.817188 
L 79.294932 255.446982 
L 79.930622 256.723548 
L 80.566299 258.606691 
L 81.201977 260.070179 
L 81.837655 259.200159 
L 82.473333 261.290514 
L 83.109022 261.577957 
L 83.7447 264.864785 
L 84.380384 263.606967 
L 85.016061 267.338514 
L 85.651745 267.716332 
L 86.923101 269.126467 
L 87.558784 269.874222 
L 88.194462 270.888961 
L 88.83014 274.822444 
L 89.465823 274.187964 
L 90.101501 276.323977 
L 90.737185 276.743961 
L 91.372862 278.661557 
L 92.00854 276.722569 
L 92.644224 280.117889 
L 93.279902 278.635614 
L 93.915579 279.435653 
L 94.551263 279.873954 
L 95.186941 281.581041 
L 95.822624 279.375507 
L 96.458302 280.566313 
L 97.09398 280.65858 
L 97.729663 282.141049 
L 98.365347 279.711169 
L 99.001025 280.233778 
L 99.636709 280.208841 
L 100.272386 277.399598 
L 101.543748 278.08376 
L 102.179425 277.025973 
L 102.815109 275.189723 
L 103.450781 273.012653 
L 104.086458 273.074006 
L 104.722142 272.230116 
L 105.35782 270.415213 
L 105.993504 269.567199 
L 106.629181 266.179377 
L 107.264859 263.863017 
L 107.900543 265.001862 
L 108.536226 261.361248 
L 109.171904 259.153834 
L 109.807588 257.946941 
L 110.443266 257.065834 
L 111.078949 253.865506 
L 112.350305 250.647567 
L 112.985988 249.869641 
L 113.621666 248.383721 
L 114.257344 246.20011 
L 115.528705 243.937269 
L 116.164389 241.064974 
L 116.800067 239.469611 
L 117.435744 239.918271 
L 118.071428 239.116831 
L 118.707106 237.845429 
L 119.342783 237.221854 
L 119.978467 236.125147 
L 120.614145 235.603727 
L 121.249829 237.252394 
L 121.885506 236.223514 
L 122.521184 234.25432 
L 123.792545 236.256801 
L 124.428223 237.687978 
L 125.063907 238.395889 
L 125.699584 239.725001 
L 126.970946 239.928023 
L 127.606623 240.794541 
L 128.242307 242.599781 
L 128.877991 246.477275 
L 130.149352 249.051308 
L 130.78503 249.28582 
L 132.056391 255.81235 
L 132.692069 257.118471 
L 133.327753 260.920097 
L 133.963431 263.92864 
L 134.599111 264.299843 
L 135.234792 268.92286 
L 135.87047 271.215736 
L 136.50615 275.246477 
L 137.141831 275.242354 
L 137.777512 277.809604 
L 138.413193 281.135613 
L 139.04887 285.510612 
L 139.684551 288.552895 
L 140.320232 290.750484 
L 140.955909 290.57827 
L 141.59159 293.283295 
L 142.227271 294.826134 
L 143.498632 299.599846 
L 144.13431 301.671133 
L 144.769991 304.346621 
L 146.041349 306.871907 
L 146.67703 305.43225 
L 147.31271 307.42688 
L 147.948391 307.205172 
L 148.584072 307.8 
L 149.219749 306.851747 
L 149.85543 307.113709 
L 150.491111 306.137484 
L 151.126789 303.321461 
L 151.762469 302.844562 
L 152.39815 299.519722 
L 153.033831 298.919528 
L 153.669511 297.139002 
L 154.305195 293.448674 
L 154.940876 290.862988 
L 155.576557 287.164578 
L 156.212234 284.511554 
L 156.847915 278.013734 
L 157.483596 275.762651 
L 158.119276 269.194905 
L 159.390635 258.826294 
L 160.026315 255.860733 
L 160.661995 247.783107 
L 161.297675 243.876628 
L 162.569035 229.221597 
L 163.204716 224.555827 
L 164.476068 211.379316 
L 165.111749 205.528681 
L 165.747428 196.433957 
L 166.383109 191.844452 
L 167.018788 182.140729 
L 168.29015 167.445986 
L 168.925829 162.326545 
L 169.561514 156.275114 
L 170.832874 140.227876 
L 171.468555 136.037686 
L 172.104235 128.186899 
L 172.739914 122.373383 
L 173.375594 115.295301 
L 175.91832 94.068944 
L 176.554 86.180255 
L 177.18968 81.478556 
L 177.82536 78.766191 
L 178.46104 74.691805 
L 179.09672 71.527969 
L 180.368073 66.285203 
L 181.003753 61.576851 
L 181.639433 60.989976 
L 182.275114 59.455948 
L 182.910794 57.257128 
L 184.182154 56.383838 
L 184.817839 55.8 
L 185.453519 56.626904 
L 186.089199 57.694259 
L 186.724879 59.186597 
L 187.360559 61.424617 
L 187.996239 60.81044 
L 188.631919 65.344594 
L 189.2676 67.146612 
L 189.903285 71.427618 
L 191.174644 76.978232 
L 191.810325 82.098463 
L 192.446005 88.94984 
L 193.081685 91.857427 
L 193.717365 96.223584 
L 194.353045 102.894891 
L 195.62441 113.533346 
L 196.26009 121.640913 
L 196.895771 127.473607 
L 197.53145 135.544815 
L 199.438491 154.084803 
L 200.709844 170.314748 
L 203.252564 197.62764 
L 203.888245 203.05004 
L 205.79529 225.641292 
L 206.430969 229.946627 
L 207.06665 238.249155 
L 208.33801 248.176304 
L 208.973691 255.361346 
L 211.51641 275.452148 
L 212.152088 280.395592 
L 213.42345 287.541387 
L 214.05913 288.481751 
L 214.694811 293.951971 
L 215.330489 297.037159 
L 215.966169 297.994978 
L 216.60185 300.080707 
L 218.508889 304.150686 
L 219.14457 307.585939 
L 219.780251 306.40702 
L 220.415928 305.860861 
L 221.051609 307.026524 
L 221.68729 307.588268 
L 222.322967 304.539265 
L 222.958648 305.950457 
L 224.230009 304.578169 
L 224.86569 301.581733 
L 225.501368 299.287881 
L 226.137049 297.830842 
L 226.772729 295.882917 
L 227.408407 295.316406 
L 228.044088 293.335478 
L 229.315449 285.435887 
L 229.95113 283.418905 
L 230.586807 282.689677 
L 231.222488 279.266422 
L 231.858169 277.551175 
L 232.493847 274.405374 
L 233.765208 267.282517 
L 234.400889 264.138176 
L 235.036569 264.373265 
L 235.672253 259.197223 
L 236.307931 258.955422 
L 236.943615 254.772476 
L 237.579292 251.68637 
L 238.214976 250.850734 
L 238.850654 247.29868 
L 239.486331 248.238919 
L 240.122015 245.653201 
L 240.757693 242.400237 
L 241.39337 242.198912 
L 242.029054 240.818429 
L 242.664732 239.969838 
L 243.300416 237.122961 
L 244.571771 236.172211 
L 245.207455 237.097665 
L 245.843132 237.154348 
L 246.47881 235.459196 
L 247.114494 235.131337 
L 247.750171 236.51935 
L 248.385855 236.523068 
L 249.021533 235.411128 
L 249.657211 236.993068 
L 250.292894 237.795318 
L 250.928572 239.153281 
L 251.56425 241.242364 
L 252.199933 242.42391 
L 252.835611 242.898995 
L 253.471295 244.28253 
L 254.106973 244.360482 
L 254.74265 246.853596 
L 255.378334 248.591252 
L 256.014012 248.016037 
L 256.649689 250.689579 
L 257.285373 251.808461 
L 257.921051 255.517036 
L 258.556734 257.151758 
L 259.192412 257.641258 
L 259.82809 261.095596 
L 260.463774 262.815623 
L 261.099451 263.535671 
L 262.370813 267.995433 
L 263.00649 267.367066 
L 263.642174 268.532939 
L 264.277852 271.027144 
L 264.913529 272.940314 
L 265.549213 275.449798 
L 266.184897 275.709272 
L 266.820575 275.777175 
L 267.456258 276.401459 
L 268.091936 278.255763 
L 268.72762 279.458641 
L 269.363297 278.542061 
L 269.998975 281.294869 
L 270.634659 279.362773 
L 271.270337 281.331252 
L 271.906014 280.844631 
L 272.541698 281.251457 
L 273.177376 280.668607 
L 273.813059 281.189606 
L 274.448737 279.213755 
L 275.084415 280.055255 
L 275.720098 278.231539 
L 276.355776 277.334686 
L 276.991454 279.0176 
L 277.627138 278.630397 
L 278.262815 275.247017 
L 278.898499 274.331514 
L 279.534177 275.854531 
L 280.169854 273.647704 
L 280.805538 274.003197 
L 281.441222 272.543284 
L 282.076899 269.65688 
L 283.348261 267.084872 
L 283.983945 266.580267 
L 284.619622 263.311221 
L 285.890984 263.185727 
L 286.526655 261.024886 
L 287.162333 259.275646 
L 287.798011 257.863331 
L 288.433701 258.404792 
L 289.069378 255.479033 
L 289.705056 255.833977 
L 290.340734 255.317301 
L 290.976411 253.870349 
L 291.612101 250.478742 
L 292.247779 249.819323 
L 292.883456 248.990144 
L 293.519146 248.814559 
L 294.154824 247.939823 
L 294.790502 248.887874 
L 295.426179 249.148121 
L 296.061857 247.09147 
L 296.697535 248.520296 
L 297.333212 248.627018 
L 297.96889 247.984341 
L 298.60458 247.147376 
L 299.240257 246.768131 
L 299.875935 248.460018 
L 300.511613 249.083401 
L 301.14729 248.273469 
L 301.78298 249.919884 
L 302.418658 250.554434 
L 303.054336 249.235304 
L 303.690025 251.039575 
L 304.325703 249.999219 
L 304.961381 250.695336 
L 305.597058 252.646254 
L 306.232736 253.463658 
L 308.775471 257.913904 
L 309.411149 258.354519 
L 310.046826 258.481084 
L 310.682504 261.475025 
L 311.318182 262.781676 
L 311.318182 262.781676 
" clip-path="url(#p0fbe00710c)" style="fill: none; stroke: #1f77b4; stroke-width: 1.5; stroke-linecap: square"/>
   </g>
   <g id="line2d_15">
    <path d="M 57.681818 257.221454 
L 64.038619 260.726312 
L 71.666776 265.211903 
L 81.201977 270.813844 
L 85.016061 272.794764 
L 87.558784 273.91912 
L 90.101501 274.806407 
L 92.00854 275.26281 
L 93.915579 275.489547 
L 95.822624 275.433125 
L 97.09398 275.208485 
L 98.365347 274.81191 
L 99.636709 274.222977 
L 100.90807 273.421364 
L 102.179425 272.387128 
L 103.450781 271.101583 
L 104.722142 269.549316 
L 105.993504 267.719229 
L 107.264859 265.606858 
L 109.171904 261.921322 
L 111.078949 257.677324 
L 113.621666 251.404064 
L 117.435744 241.961511 
L 118.707106 239.249421 
L 119.978467 236.975565 
L 121.249829 235.276905 
L 121.885506 234.684253 
L 122.521184 234.282644 
L 123.156868 234.085593 
L 123.792545 234.104756 
L 124.428223 234.349779 
L 125.063907 234.828267 
L 125.699584 235.545246 
L 126.335268 236.50301 
L 127.606623 239.135923 
L 128.877991 242.687148 
L 130.149352 247.069197 
L 132.056391 254.902649 
L 134.599111 266.760636 
L 137.777512 281.63059 
L 139.684551 289.508258 
L 140.955909 294.042451 
L 142.227271 297.893679 
L 143.498632 300.995496 
L 144.769991 303.299708 
L 145.405671 304.14107 
L 146.041349 304.769877 
L 146.67703 305.182546 
L 147.31271 305.375366 
L 147.948391 305.344604 
L 148.584072 305.086391 
L 149.219749 304.596439 
L 149.85543 303.870332 
L 150.491111 302.90314 
L 151.126789 301.689744 
L 152.39815 298.5019 
L 153.669511 294.259819 
L 154.940876 288.915864 
L 156.212234 282.426066 
L 157.483596 274.756858 
L 158.754957 265.892476 
L 160.026315 255.843605 
L 161.933355 238.658836 
L 163.840395 219.249825 
L 166.383109 190.905824 
L 171.468555 133.080361 
L 173.375594 113.664945 
L 175.28264 96.58812 
L 176.554 86.729964 
L 177.82536 78.199167 
L 179.09672 71.054831 
L 180.368073 65.337221 
L 181.639433 61.075251 
L 182.275114 59.498218 
L 182.910794 58.294613 
L 183.546474 57.467991 
L 184.182154 57.021874 
L 184.817839 56.959989 
L 185.453519 57.286263 
L 186.089199 58.004299 
L 186.724879 59.117713 
L 187.360559 60.629181 
L 187.996239 62.540896 
L 189.2676 67.566443 
L 190.538964 74.179074 
L 191.810325 82.326328 
L 193.081685 91.910061 
L 194.98873 108.644361 
L 196.895771 127.599946 
L 200.074164 162.029546 
L 205.159609 217.737041 
L 207.702329 243.252105 
L 209.60937 260.32738 
L 211.51641 275.030687 
L 212.787769 283.303967 
L 214.05913 290.266731 
L 215.330489 295.896548 
L 216.60185 300.214173 
L 217.873208 303.274197 
L 218.508889 304.356003 
L 219.14457 305.153271 
L 219.780251 305.677367 
L 220.415928 305.939752 
L 221.051609 305.951776 
L 221.68729 305.724631 
L 222.322967 305.269105 
L 222.958648 304.595875 
L 223.594329 303.714694 
L 224.86569 301.367868 
L 226.137049 298.303585 
L 227.408407 294.595925 
L 228.679768 290.321979 
L 230.586807 283.038216 
L 233.129527 272.240311 
L 236.943615 255.796826 
L 238.850654 248.505126 
L 240.122015 244.298334 
L 241.39337 240.743238 
L 242.664732 237.922334 
L 243.936093 235.890738 
L 244.571771 235.180193 
L 245.207455 234.674523 
L 245.843132 234.372585 
L 246.47881 234.271592 
L 247.114494 234.367074 
L 247.750171 234.653114 
L 248.385855 235.122487 
L 249.021533 235.766606 
L 250.292894 237.538996 
L 251.56425 239.880867 
L 252.835611 242.690498 
L 254.74265 247.541073 
L 261.735129 266.34318 
L 263.642174 270.451726 
L 264.913529 272.760306 
L 266.184897 274.695943 
L 267.456258 276.247645 
L 268.72762 277.415352 
L 269.998975 278.207141 
L 271.270337 278.638166 
L 272.541698 278.728231 
L 273.813059 278.500993 
L 275.084415 277.98164 
L 276.355776 277.196849 
L 277.627138 276.173219 
L 279.534177 274.247368 
L 281.441222 271.92714 
L 283.983945 268.352866 
L 286.526655 264.376029 
L 290.340734 257.948414 
L 302.418658 237.175078 
L 306.232736 231.155208 
L 310.046826 225.564267 
L 311.318182 223.803314 
L 311.318182 223.803314 
" clip-path="url(#p0fbe00710c)" style="fill: none; stroke: #ff7f0e; stroke-width: 1.5; stroke-linecap: square"/>
   </g>
   <g id="patch_3">
    <path d="M 45 320.4 
L 45 43.2 
" style="fill: none; stroke: #000000; stroke-width: 0.8; stroke-linejoin: miter; stroke-linecap: square"/>
   </g>
   <g id="patch_4">
    <path d="M 324 320.4 
L 324 43.2 
" style="fill: none; stroke: #000000; stroke-width: 0.8; stroke-linejoin: miter; stroke-linecap: square"/>
   </g>
   <g id="patch_5">
    <path d="M 45 320.4 
L 324 320.4 
" style="fill: none; stroke: #000000; stroke-width: 0.8; stroke-linejoin: miter; stroke-linecap: square"/>
   </g>
   <g id="patch_6">
    <path d="M 45 43.2 
L 324 43.2 
" style="fill: none; stroke: #000000; stroke-width: 0.8; stroke-linejoin: miter; stroke-linecap: square"/>
   </g>
   <g id="text_14">
    <!-- Prediction Curves -->
    <g transform="translate(131.961563 37.2)scale(0.12 -0.12)">
     <defs>
      <path id="DejaVuSans-50" d="M 1259 4147 
L 1259 2394 
L 2053 2394 
Q 2494 2394 2734 2622 
Q 2975 2850 2975 3272 
Q 2975 3691 2734 3919 
Q 2494 4147 2053 4147 
L 1259 4147 
z
M 628 4666 
L 2053 4666 
Q 2838 4666 3239 4311 
Q 3641 3956 3641 3272 
Q 3641 2581 3239 2228 
Q 2838 1875 2053 1875 
L 1259 1875 
L 1259 0 
L 628 0 
L 628 4666 
z
" transform="scale(0.015625)"/>
      <path id="DejaVuSans-72" d="M 2631 2963 
Q 2534 3019 2420 3045 
Q 2306 3072 2169 3072 
Q 1681 3072 1420 2755 
Q 1159 2438 1159 1844 
L 1159 0 
L 581 0 
L 581 3500 
L 1159 3500 
L 1159 2956 
Q 1341 3275 1631 3429 
Q 1922 3584 2338 3584 
Q 2397 3584 2469 3576 
Q 2541 3569 2628 3553 
L 2631 2963 
z
" transform="scale(0.015625)"/>
      <path id="DejaVuSans-65" d="M 3597 1894 
L 3597 1613 
L 953 1613 
Q 991 1019 1311 708 
Q 1631 397 2203 397 
Q 2534 397 2845 478 
Q 3156 559 3463 722 
L 3463 178 
Q 3153 47 2828 -22 
Q 2503 -91 2169 -91 
Q 1331 -91 842 396 
Q 353 884 353 1716 
Q 353 2575 817 3079 
Q 1281 3584 2069 3584 
Q 2775 3584 3186 3129 
Q 3597 2675 3597 1894 
z
M 3022 2063 
Q 3016 2534 2758 2815 
Q 2500 3097 2075 3097 
Q 1594 3097 1305 2825 
Q 1016 2553 972 2059 
L 3022 2063 
z
" transform="scale(0.015625)"/>
      <path id="DejaVuSans-64" d="M 2906 2969 
L 2906 4863 
L 3481 4863 
L 3481 0 
L 2906 0 
L 2906 525 
Q 2725 213 2448 61 
Q 2172 -91 1784 -91 
Q 1150 -91 751 415 
Q 353 922 353 1747 
Q 353 2572 751 3078 
Q 1150 3584 1784 3584 
Q 2172 3584 2448 3432 
Q 2725 3281 2906 2969 
z
M 947 1747 
Q 947 1113 1208 752 
Q 1469 391 1925 391 
Q 2381 391 2643 752 
Q 2906 1113 2906 1747 
Q 2906 2381 2643 2742 
Q 2381 3103 1925 3103 
Q 1469 3103 1208 2742 
Q 947 2381 947 1747 
z
" transform="scale(0.015625)"/>
      <path id="DejaVuSans-69" d="M 603 3500 
L 1178 3500 
L 1178 0 
L 603 0 
L 603 3500 
z
M 603 4863 
L 1178 4863 
L 1178 4134 
L 603 4134 
L 603 4863 
z
" transform="scale(0.015625)"/>
      <path id="DejaVuSans-63" d="M 3122 3366 
L 3122 2828 
Q 2878 2963 2633 3030 
Q 2388 3097 2138 3097 
Q 1578 3097 1268 2742 
Q 959 2388 959 1747 
Q 959 1106 1268 751 
Q 1578 397 2138 397 
Q 2388 397 2633 464 
Q 2878 531 3122 666 
L 3122 134 
Q 2881 22 2623 -34 
Q 2366 -91 2075 -91 
Q 1284 -91 818 406 
Q 353 903 353 1747 
Q 353 2603 823 3093 
Q 1294 3584 2113 3584 
Q 2378 3584 2631 3529 
Q 2884 3475 3122 3366 
z
" transform="scale(0.015625)"/>
      <path id="DejaVuSans-74" d="M 1172 4494 
L 1172 3500 
L 2356 3500 
L 2356 3053 
L 1172 3053 
L 1172 1153 
Q 1172 725 1289 603 
Q 1406 481 1766 481 
L 2356 481 
L 2356 0 
L 1766 0 
Q 1100 0 847 248 
Q 594 497 594 1153 
L 594 3053 
L 172 3053 
L 172 3500 
L 594 3500 
L 594 4494 
L 1172 4494 
z
" transform="scale(0.015625)"/>
      <path id="DejaVuSans-6f" d="M 1959 3097 
Q 1497 3097 1228 2736 
Q 959 2375 959 1747 
Q 959 1119 1226 758 
Q 1494 397 1959 397 
Q 2419 397 2687 759 
Q 2956 1122 2956 1747 
Q 2956 2369 2687 2733 
Q 2419 3097 1959 3097 
z
M 1959 3584 
Q 2709 3584 3137 3096 
Q 3566 2609 3566 1747 
Q 3566 888 3137 398 
Q 2709 -91 1959 -91 
Q 1206 -91 779 398 
Q 353 888 353 1747 
Q 353 2609 779 3096 
Q 1206 3584 1959 3584 
z
" transform="scale(0.015625)"/>
      <path id="DejaVuSans-6e" d="M 3513 2113 
L 3513 0 
L 2938 0 
L 2938 2094 
Q 2938 2591 2744 2837 
Q 2550 3084 2163 3084 
Q 1697 3084 1428 2787 
Q 1159 2491 1159 1978 
L 1159 0 
L 581 0 
L 581 3500 
L 1159 3500 
L 1159 2956 
Q 1366 3272 1645 3428 
Q 1925 3584 2291 3584 
Q 2894 3584 3203 3211 
Q 3513 2838 3513 2113 
z
" transform="scale(0.015625)"/>
      <path id="DejaVuSans-20" transform="scale(0.015625)"/>
      <path id="DejaVuSans-43" d="M 4122 4306 
L 4122 3641 
Q 3803 3938 3442 4084 
Q 3081 4231 2675 4231 
Q 1875 4231 1450 3742 
Q 1025 3253 1025 2328 
Q 1025 1406 1450 917 
Q 1875 428 2675 428 
Q 3081 428 3442 575 
Q 3803 722 4122 1019 
L 4122 359 
Q 3791 134 3420 21 
Q 3050 -91 2638 -91 
Q 1578 -91 968 557 
Q 359 1206 359 2328 
Q 359 3453 968 4101 
Q 1578 4750 2638 4750 
Q 3056 4750 3426 4639 
Q 3797 4528 4122 4306 
z
" transform="scale(0.015625)"/>
      <path id="DejaVuSans-75" d="M 544 1381 
L 544 3500 
L 1119 3500 
L 1119 1403 
Q 1119 906 1312 657 
Q 1506 409 1894 409 
Q 2359 409 2629 706 
Q 2900 1003 2900 1516 
L 2900 3500 
L 3475 3500 
L 3475 0 
L 2900 0 
L 2900 538 
Q 2691 219 2414 64 
Q 2138 -91 1772 -91 
Q 1169 -91 856 284 
Q 544 659 544 1381 
z
M 1991 3584 
L 1991 3584 
z
" transform="scale(0.015625)"/>
      <path id="DejaVuSans-76" d="M 191 3500 
L 800 3500 
L 1894 563 
L 2988 3500 
L 3597 3500 
L 2284 0 
L 1503 0 
L 191 3500 
z
" transform="scale(0.015625)"/>
      <path id="DejaVuSans-73" d="M 2834 3397 
L 2834 2853 
Q 2591 2978 2328 3040 
Q 2066 3103 1784 3103 
Q 1356 3103 1142 2972 
Q 928 2841 928 2578 
Q 928 2378 1081 2264 
Q 1234 2150 1697 2047 
L 1894 2003 
Q 2506 1872 2764 1633 
Q 3022 1394 3022 966 
Q 3022 478 2636 193 
Q 2250 -91 1575 -91 
Q 1294 -91 989 -36 
Q 684 19 347 128 
L 347 722 
Q 666 556 975 473 
Q 1284 391 1588 391 
Q 1994 391 2212 530 
Q 2431 669 2431 922 
Q 2431 1156 2273 1281 
Q 2116 1406 1581 1522 
L 1381 1569 
Q 847 1681 609 1914 
Q 372 2147 372 2553 
Q 372 3047 722 3315 
Q 1072 3584 1716 3584 
Q 2034 3584 2315 3537 
Q 2597 3491 2834 3397 
z
" transform="scale(0.015625)"/>
     </defs>
     <use xlink:href="#DejaVuSans-50"/>
     <use xlink:href="#DejaVuSans-72" x="58.552734"/>
     <use xlink:href="#DejaVuSans-65" x="97.416016"/>
     <use xlink:href="#DejaVuSans-64" x="158.939453"/>
     <use xlink:href="#DejaVuSans-69" x="222.416016"/>
     <use xlink:href="#DejaVuSans-63" x="250.199219"/>
     <use xlink:href="#DejaVuSans-74" x="305.179688"/>
     <use xlink:href="#DejaVuSans-69" x="344.388672"/>
     <use xlink:href="#DejaVuSans-6f" x="372.171875"/>
     <use xlink:href="#DejaVuSans-6e" x="433.353516"/>
     <use xlink:href="#DejaVuSans-20" x="496.732422"/>
     <use xlink:href="#DejaVuSans-43" x="528.519531"/>
     <use xlink:href="#DejaVuSans-75" x="598.34375"/>
     <use xlink:href="#DejaVuSans-72" x="661.722656"/>
     <use xlink:href="#DejaVuSans-76" x="702.835938"/>
     <use xlink:href="#DejaVuSans-65" x="762.015625"/>
     <use xlink:href="#DejaVuSans-73" x="823.539062"/>
    </g>
   </g>
   <g id="legend_1">
    <g id="patch_7">
     <path d="M 52 197.978125 
L 195.94375 197.978125 
Q 197.94375 197.978125 197.94375 195.978125 
L 197.94375 167.621875 
Q 197.94375 165.621875 195.94375 165.621875 
L 52 165.621875 
Q 50 165.621875 50 167.621875 
L 50 195.978125 
Q 50 197.978125 52 197.978125 
z
" style="fill: #ffffff; opacity: 0.8; stroke: #cccccc; stroke-linejoin: miter"/>
    </g>
    <g id="line2d_16">
     <path d="M 54 173.720312 
L 64 173.720312 
L 74 173.720312 
" style="fill: none; stroke: #1f77b4; stroke-width: 1.5; stroke-linecap: square"/>
    </g>
    <g id="text_15">
     <!-- Function with noise -->
     <g transform="translate(82 177.220312)scale(0.1 -0.1)">
      <defs>
       <path id="DejaVuSans-46" d="M 628 4666 
L 3309 4666 
L 3309 4134 
L 1259 4134 
L 1259 2759 
L 3109 2759 
L 3109 2228 
L 1259 2228 
L 1259 0 
L 628 0 
L 628 4666 
z
" transform="scale(0.015625)"/>
       <path id="DejaVuSans-77" d="M 269 3500 
L 844 3500 
L 1563 769 
L 2278 3500 
L 2956 3500 
L 3675 769 
L 4391 3500 
L 4966 3500 
L 4050 0 
L 3372 0 
L 2619 2869 
L 1863 0 
L 1184 0 
L 269 3500 
z
" transform="scale(0.015625)"/>
       <path id="DejaVuSans-68" d="M 3513 2113 
L 3513 0 
L 2938 0 
L 2938 2094 
Q 2938 2591 2744 2837 
Q 2550 3084 2163 3084 
Q 1697 3084 1428 2787 
Q 1159 2491 1159 1978 
L 1159 0 
L 581 0 
L 581 4863 
L 1159 4863 
L 1159 2956 
Q 1366 3272 1645 3428 
Q 1925 3584 2291 3584 
Q 2894 3584 3203 3211 
Q 3513 2838 3513 2113 
z
" transform="scale(0.015625)"/>
      </defs>
      <use xlink:href="#DejaVuSans-46"/>
      <use xlink:href="#DejaVuSans-75" x="52.019531"/>
      <use xlink:href="#DejaVuSans-6e" x="115.398438"/>
      <use xlink:href="#DejaVuSans-63" x="178.777344"/>
      <use xlink:href="#DejaVuSans-74" x="233.757812"/>
      <use xlink:href="#DejaVuSans-69" x="272.966797"/>
      <use xlink:href="#DejaVuSans-6f" x="300.75"/>
      <use xlink:href="#DejaVuSans-6e" x="361.931641"/>
      <use xlink:href="#DejaVuSans-20" x="425.310547"/>
      <use xlink:href="#DejaVuSans-77" x="457.097656"/>
      <use xlink:href="#DejaVuSans-69" x="538.884766"/>
      <use xlink:href="#DejaVuSans-74" x="566.667969"/>
      <use xlink:href="#DejaVuSans-68" x="605.876953"/>
      <use xlink:href="#DejaVuSans-20" x="669.255859"/>
      <use xlink:href="#DejaVuSans-6e" x="701.042969"/>
      <use xlink:href="#DejaVuSans-6f" x="764.421875"/>
      <use xlink:href="#DejaVuSans-69" x="825.603516"/>
      <use xlink:href="#DejaVuSans-73" x="853.386719"/>
      <use xlink:href="#DejaVuSans-65" x="905.486328"/>
     </g>
    </g>
    <g id="line2d_17">
     <path d="M 54 188.398437 
L 64 188.398437 
L 74 188.398437 
" style="fill: none; stroke: #ff7f0e; stroke-width: 1.5; stroke-linecap: square"/>
    </g>
    <g id="text_16">
     <!-- Average of Predictions -->
     <g transform="translate(82 191.898437)scale(0.1 -0.1)">
      <defs>
       <path id="DejaVuSans-41" d="M 2188 4044 
L 1331 1722 
L 3047 1722 
L 2188 4044 
z
M 1831 4666 
L 2547 4666 
L 4325 0 
L 3669 0 
L 3244 1197 
L 1141 1197 
L 716 0 
L 50 0 
L 1831 4666 
z
" transform="scale(0.015625)"/>
       <path id="DejaVuSans-61" d="M 2194 1759 
Q 1497 1759 1228 1600 
Q 959 1441 959 1056 
Q 959 750 1161 570 
Q 1363 391 1709 391 
Q 2188 391 2477 730 
Q 2766 1069 2766 1631 
L 2766 1759 
L 2194 1759 
z
M 3341 1997 
L 3341 0 
L 2766 0 
L 2766 531 
Q 2569 213 2275 61 
Q 1981 -91 1556 -91 
Q 1019 -91 701 211 
Q 384 513 384 1019 
Q 384 1609 779 1909 
Q 1175 2209 1959 2209 
L 2766 2209 
L 2766 2266 
Q 2766 2663 2505 2880 
Q 2244 3097 1772 3097 
Q 1472 3097 1187 3025 
Q 903 2953 641 2809 
L 641 3341 
Q 956 3463 1253 3523 
Q 1550 3584 1831 3584 
Q 2591 3584 2966 3190 
Q 3341 2797 3341 1997 
z
" transform="scale(0.015625)"/>
       <path id="DejaVuSans-67" d="M 2906 1791 
Q 2906 2416 2648 2759 
Q 2391 3103 1925 3103 
Q 1463 3103 1205 2759 
Q 947 2416 947 1791 
Q 947 1169 1205 825 
Q 1463 481 1925 481 
Q 2391 481 2648 825 
Q 2906 1169 2906 1791 
z
M 3481 434 
Q 3481 -459 3084 -895 
Q 2688 -1331 1869 -1331 
Q 1566 -1331 1297 -1286 
Q 1028 -1241 775 -1147 
L 775 -588 
Q 1028 -725 1275 -790 
Q 1522 -856 1778 -856 
Q 2344 -856 2625 -561 
Q 2906 -266 2906 331 
L 2906 616 
Q 2728 306 2450 153 
Q 2172 0 1784 0 
Q 1141 0 747 490 
Q 353 981 353 1791 
Q 353 2603 747 3093 
Q 1141 3584 1784 3584 
Q 2172 3584 2450 3431 
Q 2728 3278 2906 2969 
L 2906 3500 
L 3481 3500 
L 3481 434 
z
" transform="scale(0.015625)"/>
       <path id="DejaVuSans-66" d="M 2375 4863 
L 2375 4384 
L 1825 4384 
Q 1516 4384 1395 4259 
Q 1275 4134 1275 3809 
L 1275 3500 
L 2222 3500 
L 2222 3053 
L 1275 3053 
L 1275 0 
L 697 0 
L 697 3053 
L 147 3053 
L 147 3500 
L 697 3500 
L 697 3744 
Q 697 4328 969 4595 
Q 1241 4863 1831 4863 
L 2375 4863 
z
" transform="scale(0.015625)"/>
      </defs>
      <use xlink:href="#DejaVuSans-41"/>
      <use xlink:href="#DejaVuSans-76" x="62.533203"/>
      <use xlink:href="#DejaVuSans-65" x="121.712891"/>
      <use xlink:href="#DejaVuSans-72" x="183.236328"/>
      <use xlink:href="#DejaVuSans-61" x="224.349609"/>
      <use xlink:href="#DejaVuSans-67" x="285.628906"/>
      <use xlink:href="#DejaVuSans-65" x="349.105469"/>
      <use xlink:href="#DejaVuSans-20" x="410.628906"/>
      <use xlink:href="#DejaVuSans-6f" x="442.416016"/>
      <use xlink:href="#DejaVuSans-66" x="503.597656"/>
      <use xlink:href="#DejaVuSans-20" x="538.802734"/>
      <use xlink:href="#DejaVuSans-50" x="570.589844"/>
      <use xlink:href="#DejaVuSans-72" x="629.142578"/>
      <use xlink:href="#DejaVuSans-65" x="668.005859"/>
      <use xlink:href="#DejaVuSans-64" x="729.529297"/>
      <use xlink:href="#DejaVuSans-69" x="793.005859"/>
      <use xlink:href="#DejaVuSans-63" x="820.789062"/>
      <use xlink:href="#DejaVuSans-74" x="875.769531"/>
      <use xlink:href="#DejaVuSans-69" x="914.978516"/>
      <use xlink:href="#DejaVuSans-6f" x="942.761719"/>
      <use xlink:href="#DejaVuSans-6e" x="1003.943359"/>
      <use xlink:href="#DejaVuSans-73" x="1067.322266"/>
     </g>
    </g>
   </g>
  </g>
 </g>
 <defs>
  <clipPath id="p0fbe00710c">
   <rect x="45" y="43.2" width="279" height="277.2"/>
  </clipPath>
 </defs>
</svg>
