<?xml version="1.0" encoding="utf-8" standalone="no"?>
<!DOCTYPE svg PUBLIC "-//W3C//DTD SVG 1.1//EN"
  "http://www.w3.org/Graphics/SVG/1.1/DTD/svg11.dtd">
<svg xmlns:xlink="http://www.w3.org/1999/xlink" width="576pt" height="360pt" viewBox="0 0 576 360" xmlns="http://www.w3.org/2000/svg" version="1.1">
 <metadata>
  <rdf:RDF xmlns:dc="http://purl.org/dc/elements/1.1/" xmlns:cc="http://creativecommons.org/ns#" xmlns:rdf="http://www.w3.org/1999/02/22-rdf-syntax-ns#">
   <cc:Work>
    <dc:type rdf:resource="http://purl.org/dc/dcmitype/StillImage"/>
    <dc:date>2022-12-23T11:39:10.663234</dc:date>
    <dc:format>image/svg+xml</dc:format>
    <dc:creator>
     <cc:Agent>
      <dc:title>Matplotlib v3.5.3, https://matplotlib.org/</dc:title>
     </cc:Agent>
    </dc:creator>
   </cc:Work>
  </rdf:RDF>
 </metadata>
 <defs>
  <style type="text/css">*{stroke-linejoin: round; stroke-linecap: butt}</style>
 </defs>
 <g id="figure_1">
  <g id="patch_1">
   <path d="M 0 360 
L 576 360 
L 576 0 
L 0 0 
z
" style="fill: #ffffff"/>
  </g>
  <g id="axes_1">
   <g id="patch_2">
    <path d="M 72 320.4 
L 518.4 320.4 
L 518.4 43.2 
L 72 43.2 
z
" style="fill: #e5e5e5"/>
   </g>
   <g id="matplotlib.axis_1">
    <g id="xtick_1">
     <g id="line2d_1">
      <path d="M 92.290909 320.4 
L 92.290909 43.2 
" clip-path="url(#p86e161269c)" style="fill: none; stroke: #ffffff; stroke-width: 0.8; stroke-linecap: square"/>
     </g>
     <g id="line2d_2">
      <defs>
       <path id="m98eec687f0" d="M 0 0 
L 0 3.5 
" style="stroke: #555555; stroke-width: 0.8"/>
      </defs>
      <g>
       <use xlink:href="#m98eec687f0" x="92.290909" y="320.4" style="fill: #555555; stroke: #555555; stroke-width: 0.8"/>
      </g>
     </g>
     <g id="text_1">
      <!-- −0.5 -->
      <g style="fill: #555555" transform="translate(80.149503 334.998438)scale(0.1 -0.1)">
       <defs>
        <path id="DejaVuSans-2212" d="M 678 2272 
L 4684 2272 
L 4684 1741 
L 678 1741 
L 678 2272 
z
" transform="scale(0.015625)"/>
        <path id="DejaVuSans-30" d="M 2034 4250 
Q 1547 4250 1301 3770 
Q 1056 3291 1056 2328 
Q 1056 1369 1301 889 
Q 1547 409 2034 409 
Q 2525 409 2770 889 
Q 3016 1369 3016 2328 
Q 3016 3291 2770 3770 
Q 2525 4250 2034 4250 
z
M 2034 4750 
Q 2819 4750 3233 4129 
Q 3647 3509 3647 2328 
Q 3647 1150 3233 529 
Q 2819 -91 2034 -91 
Q 1250 -91 836 529 
Q 422 1150 422 2328 
Q 422 3509 836 4129 
Q 1250 4750 2034 4750 
z
" transform="scale(0.015625)"/>
        <path id="DejaVuSans-2e" d="M 684 794 
L 1344 794 
L 1344 0 
L 684 0 
L 684 794 
z
" transform="scale(0.015625)"/>
        <path id="DejaVuSans-35" d="M 691 4666 
L 3169 4666 
L 3169 4134 
L 1269 4134 
L 1269 2991 
Q 1406 3038 1543 3061 
Q 1681 3084 1819 3084 
Q 2600 3084 3056 2656 
Q 3513 2228 3513 1497 
Q 3513 744 3044 326 
Q 2575 -91 1722 -91 
Q 1428 -91 1123 -41 
Q 819 9 494 109 
L 494 744 
Q 775 591 1075 516 
Q 1375 441 1709 441 
Q 2250 441 2565 725 
Q 2881 1009 2881 1497 
Q 2881 1984 2565 2268 
Q 2250 2553 1709 2553 
Q 1456 2553 1204 2497 
Q 953 2441 691 2322 
L 691 4666 
z
" transform="scale(0.015625)"/>
       </defs>
       <use xlink:href="#DejaVuSans-2212"/>
       <use xlink:href="#DejaVuSans-30" x="83.789062"/>
       <use xlink:href="#DejaVuSans-2e" x="147.412109"/>
       <use xlink:href="#DejaVuSans-35" x="179.199219"/>
      </g>
     </g>
    </g>
    <g id="xtick_2">
     <g id="line2d_3">
      <path d="M 173.454545 320.4 
L 173.454545 43.2 
" clip-path="url(#p86e161269c)" style="fill: none; stroke: #ffffff; stroke-width: 0.8; stroke-linecap: square"/>
     </g>
     <g id="line2d_4">
      <g>
       <use xlink:href="#m98eec687f0" x="173.454545" y="320.4" style="fill: #555555; stroke: #555555; stroke-width: 0.8"/>
      </g>
     </g>
     <g id="text_2">
      <!-- 0.0 -->
      <g style="fill: #555555" transform="translate(165.502983 334.998438)scale(0.1 -0.1)">
       <use xlink:href="#DejaVuSans-30"/>
       <use xlink:href="#DejaVuSans-2e" x="63.623047"/>
       <use xlink:href="#DejaVuSans-30" x="95.410156"/>
      </g>
     </g>
    </g>
    <g id="xtick_3">
     <g id="line2d_5">
      <path d="M 254.618182 320.4 
L 254.618182 43.2 
" clip-path="url(#p86e161269c)" style="fill: none; stroke: #ffffff; stroke-width: 0.8; stroke-linecap: square"/>
     </g>
     <g id="line2d_6">
      <g>
       <use xlink:href="#m98eec687f0" x="254.618182" y="320.4" style="fill: #555555; stroke: #555555; stroke-width: 0.8"/>
      </g>
     </g>
     <g id="text_3">
      <!-- 0.5 -->
      <g style="fill: #555555" transform="translate(246.666619 334.998438)scale(0.1 -0.1)">
       <use xlink:href="#DejaVuSans-30"/>
       <use xlink:href="#DejaVuSans-2e" x="63.623047"/>
       <use xlink:href="#DejaVuSans-35" x="95.410156"/>
      </g>
     </g>
    </g>
    <g id="xtick_4">
     <g id="line2d_7">
      <path d="M 335.781818 320.4 
L 335.781818 43.2 
" clip-path="url(#p86e161269c)" style="fill: none; stroke: #ffffff; stroke-width: 0.8; stroke-linecap: square"/>
     </g>
     <g id="line2d_8">
      <g>
       <use xlink:href="#m98eec687f0" x="335.781818" y="320.4" style="fill: #555555; stroke: #555555; stroke-width: 0.8"/>
      </g>
     </g>
     <g id="text_4">
      <!-- 1.0 -->
      <g style="fill: #555555" transform="translate(327.830256 334.998438)scale(0.1 -0.1)">
       <defs>
        <path id="DejaVuSans-31" d="M 794 531 
L 1825 531 
L 1825 4091 
L 703 3866 
L 703 4441 
L 1819 4666 
L 2450 4666 
L 2450 531 
L 3481 531 
L 3481 0 
L 794 0 
L 794 531 
z
" transform="scale(0.015625)"/>
       </defs>
       <use xlink:href="#DejaVuSans-31"/>
       <use xlink:href="#DejaVuSans-2e" x="63.623047"/>
       <use xlink:href="#DejaVuSans-30" x="95.410156"/>
      </g>
     </g>
    </g>
    <g id="xtick_5">
     <g id="line2d_9">
      <path d="M 416.945455 320.4 
L 416.945455 43.2 
" clip-path="url(#p86e161269c)" style="fill: none; stroke: #ffffff; stroke-width: 0.8; stroke-linecap: square"/>
     </g>
     <g id="line2d_10">
      <g>
       <use xlink:href="#m98eec687f0" x="416.945455" y="320.4" style="fill: #555555; stroke: #555555; stroke-width: 0.8"/>
      </g>
     </g>
     <g id="text_5">
      <!-- 1.5 -->
      <g style="fill: #555555" transform="translate(408.993892 334.998438)scale(0.1 -0.1)">
       <use xlink:href="#DejaVuSans-31"/>
       <use xlink:href="#DejaVuSans-2e" x="63.623047"/>
       <use xlink:href="#DejaVuSans-35" x="95.410156"/>
      </g>
     </g>
    </g>
    <g id="xtick_6">
     <g id="line2d_11">
      <path d="M 498.109091 320.4 
L 498.109091 43.2 
" clip-path="url(#p86e161269c)" style="fill: none; stroke: #ffffff; stroke-width: 0.8; stroke-linecap: square"/>
     </g>
     <g id="line2d_12">
      <g>
       <use xlink:href="#m98eec687f0" x="498.109091" y="320.4" style="fill: #555555; stroke: #555555; stroke-width: 0.8"/>
      </g>
     </g>
     <g id="text_6">
      <!-- 2.0 -->
      <g style="fill: #555555" transform="translate(490.157528 334.998438)scale(0.1 -0.1)">
       <defs>
        <path id="DejaVuSans-32" d="M 1228 531 
L 3431 531 
L 3431 0 
L 469 0 
L 469 531 
Q 828 903 1448 1529 
Q 2069 2156 2228 2338 
Q 2531 2678 2651 2914 
Q 2772 3150 2772 3378 
Q 2772 3750 2511 3984 
Q 2250 4219 1831 4219 
Q 1534 4219 1204 4116 
Q 875 4013 500 3803 
L 500 4441 
Q 881 4594 1212 4672 
Q 1544 4750 1819 4750 
Q 2544 4750 2975 4387 
Q 3406 4025 3406 3419 
Q 3406 3131 3298 2873 
Q 3191 2616 2906 2266 
Q 2828 2175 2409 1742 
Q 1991 1309 1228 531 
z
" transform="scale(0.015625)"/>
       </defs>
       <use xlink:href="#DejaVuSans-32"/>
       <use xlink:href="#DejaVuSans-2e" x="63.623047"/>
       <use xlink:href="#DejaVuSans-30" x="95.410156"/>
      </g>
     </g>
    </g>
   </g>
   <g id="matplotlib.axis_2">
    <g id="ytick_1">
     <g id="line2d_13">
      <path d="M 72 318.091359 
L 518.4 318.091359 
" clip-path="url(#p86e161269c)" style="fill: none; stroke: #ffffff; stroke-width: 0.8; stroke-linecap: square"/>
     </g>
     <g id="line2d_14">
      <defs>
       <path id="m47e92467a5" d="M 0 0 
L -3.5 0 
" style="stroke: #555555; stroke-width: 0.8"/>
      </defs>
      <g>
       <use xlink:href="#m47e92467a5" x="72" y="318.091359" style="fill: #555555; stroke: #555555; stroke-width: 0.8"/>
      </g>
     </g>
     <g id="text_7">
      <!-- −0.10 -->
      <g style="fill: #555555" transform="translate(34.354687 321.890578)scale(0.1 -0.1)">
       <use xlink:href="#DejaVuSans-2212"/>
       <use xlink:href="#DejaVuSans-30" x="83.789062"/>
       <use xlink:href="#DejaVuSans-2e" x="147.412109"/>
       <use xlink:href="#DejaVuSans-31" x="179.199219"/>
       <use xlink:href="#DejaVuSans-30" x="242.822266"/>
      </g>
     </g>
    </g>
    <g id="ytick_2">
     <g id="line2d_15">
      <path d="M 72 262.526391 
L 518.4 262.526391 
" clip-path="url(#p86e161269c)" style="fill: none; stroke: #ffffff; stroke-width: 0.8; stroke-linecap: square"/>
     </g>
     <g id="line2d_16">
      <g>
       <use xlink:href="#m47e92467a5" x="72" y="262.526391" style="fill: #555555; stroke: #555555; stroke-width: 0.8"/>
      </g>
     </g>
     <g id="text_8">
      <!-- −0.05 -->
      <g style="fill: #555555" transform="translate(34.354687 266.32561)scale(0.1 -0.1)">
       <use xlink:href="#DejaVuSans-2212"/>
       <use xlink:href="#DejaVuSans-30" x="83.789062"/>
       <use xlink:href="#DejaVuSans-2e" x="147.412109"/>
       <use xlink:href="#DejaVuSans-30" x="179.199219"/>
       <use xlink:href="#DejaVuSans-35" x="242.822266"/>
      </g>
     </g>
    </g>
    <g id="ytick_3">
     <g id="line2d_17">
      <path d="M 72 206.961423 
L 518.4 206.961423 
" clip-path="url(#p86e161269c)" style="fill: none; stroke: #ffffff; stroke-width: 0.8; stroke-linecap: square"/>
     </g>
     <g id="line2d_18">
      <g>
       <use xlink:href="#m47e92467a5" x="72" y="206.961423" style="fill: #555555; stroke: #555555; stroke-width: 0.8"/>
      </g>
     </g>
     <g id="text_9">
      <!-- 0.00 -->
      <g style="fill: #555555" transform="translate(42.734375 210.760641)scale(0.1 -0.1)">
       <use xlink:href="#DejaVuSans-30"/>
       <use xlink:href="#DejaVuSans-2e" x="63.623047"/>
       <use xlink:href="#DejaVuSans-30" x="95.410156"/>
       <use xlink:href="#DejaVuSans-30" x="159.033203"/>
      </g>
     </g>
    </g>
    <g id="ytick_4">
     <g id="line2d_19">
      <path d="M 72 151.396454 
L 518.4 151.396454 
" clip-path="url(#p86e161269c)" style="fill: none; stroke: #ffffff; stroke-width: 0.8; stroke-linecap: square"/>
     </g>
     <g id="line2d_20">
      <g>
       <use xlink:href="#m47e92467a5" x="72" y="151.396454" style="fill: #555555; stroke: #555555; stroke-width: 0.8"/>
      </g>
     </g>
     <g id="text_10">
      <!-- 0.05 -->
      <g style="fill: #555555" transform="translate(42.734375 155.195673)scale(0.1 -0.1)">
       <use xlink:href="#DejaVuSans-30"/>
       <use xlink:href="#DejaVuSans-2e" x="63.623047"/>
       <use xlink:href="#DejaVuSans-30" x="95.410156"/>
       <use xlink:href="#DejaVuSans-35" x="159.033203"/>
      </g>
     </g>
    </g>
    <g id="ytick_5">
     <g id="line2d_21">
      <path d="M 72 95.831486 
L 518.4 95.831486 
" clip-path="url(#p86e161269c)" style="fill: none; stroke: #ffffff; stroke-width: 0.8; stroke-linecap: square"/>
     </g>
     <g id="line2d_22">
      <g>
       <use xlink:href="#m47e92467a5" x="72" y="95.831486" style="fill: #555555; stroke: #555555; stroke-width: 0.8"/>
      </g>
     </g>
     <g id="text_11">
      <!-- 0.10 -->
      <g style="fill: #555555" transform="translate(42.734375 99.630705)scale(0.1 -0.1)">
       <use xlink:href="#DejaVuSans-30"/>
       <use xlink:href="#DejaVuSans-2e" x="63.623047"/>
       <use xlink:href="#DejaVuSans-31" x="95.410156"/>
       <use xlink:href="#DejaVuSans-30" x="159.033203"/>
      </g>
     </g>
    </g>
   </g>
   <g id="line2d_23">
    <path d="M 92.290909 225.574043 
L 115.85192 227.517358 
L 138.600488 229.619003 
L 156.880586 231.500491 
L 175.160688 233.575627 
L 193.847008 235.893243 
L 240.969031 241.906178 
L 251.530868 242.94485 
L 260.061586 243.568964 
L 268.186069 243.930661 
L 275.498104 244.028383 
L 282.403915 243.901394 
L 289.309745 243.550833 
L 296.215556 242.976994 
L 303.121386 242.190365 
L 310.839645 241.084365 
L 319.370352 239.628394 
L 329.525976 237.657326 
L 344.556279 234.460313 
L 407.114839 220.619107 
L 437.987895 213.947105 
L 455.04931 210.486707 
L 469.267166 207.825568 
L 482.266339 205.618541 
L 494.859298 203.713944 
L 498.109091 203.261607 
L 498.109091 203.261607 
" clip-path="url(#p86e161269c)" style="fill: none; stroke: #e24a33; stroke-width: 1.5; stroke-linecap: square"/>
   </g>
   <g id="line2d_24">
    <path d="M 92.290909 238.646977 
L 109.758558 238.388852 
L 123.570189 237.972489 
L 135.756919 237.41066 
L 147.131203 236.688109 
L 158.505488 235.739208 
L 168.661096 234.672879 
L 178.410481 233.430998 
L 188.566086 231.890672 
L 197.90925 230.243285 
L 207.658639 228.294333 
L 217.814244 226.046427 
L 232.844547 222.471715 
L 245.84373 219.446451 
L 253.968213 217.786869 
L 260.46781 216.692781 
L 266.154948 215.964796 
L 271.435862 215.523653 
L 276.310552 215.34663 
L 280.779018 215.397849 
L 285.247503 215.665904 
L 289.715969 216.158911 
L 294.184435 216.878673 
L 298.65292 217.822394 
L 303.121386 218.979828 
L 307.996076 220.469037 
L 313.683214 222.46939 
L 319.776576 224.871454 
L 327.088631 228.005527 
L 340.087804 233.866471 
L 350.649632 238.516361 
L 358.367901 241.679632 
L 365.273702 244.279285 
L 371.773308 246.502504 
L 378.272895 248.499684 
L 385.178715 250.37731 
L 392.084536 252.014391 
L 399.396571 253.506111 
L 407.114839 254.837772 
L 414.833089 255.952329 
L 423.363806 256.966813 
L 433.113186 257.892895 
L 444.081248 258.69258 
L 456.267973 259.340824 
L 469.673399 259.821554 
L 484.297469 260.123877 
L 498.109091 260.235103 
L 498.109091 260.235103 
" clip-path="url(#p86e161269c)" style="fill: none; stroke: #348abd; stroke-width: 1.5; stroke-linecap: square"/>
   </g>
   <g id="line2d_25">
    <path d="M 92.290909 292.281716 
L 122.757741 290.020065 
L 141.850286 288.839415 
L 154.849464 288.231967 
L 167.442423 287.871192 
L 177.598033 287.797468 
L 186.941188 287.946042 
L 195.065681 288.277851 
L 202.78394 288.793564 
L 210.502209 289.5278 
L 217.814244 290.44123 
L 225.126288 291.575745 
L 232.438323 292.932106 
L 240.156582 294.589065 
L 249.093524 296.749747 
L 263.311379 300.480643 
L 275.09188 303.467442 
L 282.403915 305.074136 
L 288.497296 306.180817 
L 293.778211 306.928307 
L 299.059144 307.453612 
L 304.340058 307.74169 
L 309.620972 307.789726 
L 314.901886 307.603649 
L 320.589025 307.162434 
L 326.682407 306.447785 
L 333.588217 305.40048 
L 342.525149 303.802732 
L 368.117281 299.101176 
L 377.86668 297.617186 
L 388.428528 296.245649 
L 403.865046 294.504157 
L 418.895331 292.751119 
L 428.64471 291.390134 
L 436.769213 290.041265 
L 444.487482 288.541338 
L 452.205731 286.806059 
L 459.517766 284.936226 
L 467.236054 282.723982 
L 474.954304 280.276969 
L 483.078787 277.466505 
L 491.609504 274.28705 
L 498.109091 271.731028 
L 498.109091 271.731028 
" clip-path="url(#p86e161269c)" style="fill: none; stroke: #988ed5; stroke-width: 1.5; stroke-linecap: square"/>
   </g>
   <g id="line2d_26">
    <path d="M 92.290909 272.911892 
L 127.632431 269.829128 
L 144.693855 268.516199 
L 158.911712 267.598291 
L 171.91089 266.970627 
L 182.878947 266.655649 
L 192.222113 266.583105 
L 201.565267 266.729664 
L 210.095984 267.082312 
L 218.220468 267.634093 
L 226.344961 268.40772 
L 234.469444 269.404525 
L 243.406385 270.738339 
L 253.968213 272.56535 
L 278.747897 276.980976 
L 286.059951 277.993476 
L 292.559538 278.66862 
L 298.65292 279.072437 
L 304.340058 279.232727 
L 310.027197 279.180213 
L 316.120559 278.89958 
L 322.620146 278.371573 
L 329.9322 277.554029 
L 340.494038 276.112359 
L 361.211461 273.238114 
L 371.367094 272.1137 
L 381.116474 271.272152 
L 392.49077 270.530055 
L 421.738909 268.767472 
L 430.675841 267.932965 
L 438.800344 266.945228 
L 446.518593 265.770685 
L 453.830628 264.428505 
L 461.142663 262.855342 
L 468.454717 261.053367 
L 475.766752 259.030786 
L 483.485021 256.673831 
L 492.015719 253.831311 
L 498.109091 251.668945 
L 498.109091 251.668945 
" clip-path="url(#p86e161269c)" style="fill: none; stroke: #777777; stroke-width: 1.5; stroke-linecap: square"/>
   </g>
   <g id="line2d_27">
    <path d="M 92.290909 197.763136 
L 107.321213 198.111366 
L 120.320391 198.204358 
L 133.319569 198.053493 
L 144.287631 197.694559 
L 154.037016 197.1632 
L 163.380178 196.436277 
L 172.317114 195.514945 
L 180.847826 194.405236 
L 188.97231 193.120803 
L 197.096801 191.600992 
L 204.815061 189.932693 
L 212.939554 187.94319 
L 221.470261 185.614837 
L 231.625875 182.58291 
L 260.874034 173.637119 
L 267.373621 172.000969 
L 273.060759 170.799202 
L 278.341673 169.91748 
L 283.216363 169.330381 
L 288.091072 168.979565 
L 292.559538 168.87502 
L 297.028023 168.980578 
L 301.902713 169.331298 
L 306.777403 169.915728 
L 312.058317 170.789197 
L 317.745456 171.970304 
L 324.245042 173.563004 
L 332.775769 175.911792 
L 357.555453 182.899084 
L 366.492384 185.08778 
L 375.023101 186.941374 
L 384.366267 188.730678 
L 396.146777 190.72697 
L 427.832262 195.921673 
L 438.39411 197.954821 
L 448.14349 200.056472 
L 457.89287 202.387246 
L 468.048503 205.049124 
L 479.016546 208.158805 
L 491.609504 211.962022 
L 498.109091 213.992559 
L 498.109091 213.992559 
" clip-path="url(#p86e161269c)" style="fill: none; stroke: #fbc15e; stroke-width: 1.5; stroke-linecap: square"/>
   </g>
   <g id="line2d_28">
    <path d="M 92.290909 234.970403 
L 154.037016 238.795603 
L 167.848648 239.370342 
L 178.410481 239.616756 
L 188.159861 239.63317 
L 197.503026 239.400474 
L 205.221287 238.984436 
L 212.533329 238.372709 
L 219.845364 237.524007 
L 226.344961 236.557533 
L 233.250771 235.304683 
L 240.562806 233.731595 
L 248.281075 231.824055 
L 257.624241 229.26125 
L 278.341673 223.503616 
L 284.841279 222.0088 
L 290.122193 221.017407 
L 294.996883 220.319908 
L 299.465368 219.890456 
L 303.933834 219.678128 
L 308.4023 219.694383 
L 312.870766 219.942268 
L 317.339231 220.419213 
L 321.807697 221.115725 
L 326.682407 222.10776 
L 331.963321 223.426346 
L 337.650459 225.082569 
L 344.556279 227.340855 
L 354.305659 230.788144 
L 368.929749 235.945555 
L 376.647998 238.41754 
L 383.147585 240.277818 
L 389.240976 241.802438 
L 394.928115 243.014598 
L 400.615253 244.012767 
L 406.302391 244.791137 
L 411.989529 245.34937 
L 418.082882 245.707025 
L 424.176254 245.824506 
L 430.269607 245.713132 
L 436.769213 245.358822 
L 443.2688 244.780585 
L 450.17462 243.946426 
L 457.486655 242.846127 
L 466.017372 241.323801 
L 475.360538 239.421972 
L 486.734814 236.868985 
L 498.109091 234.158091 
L 498.109091 234.158091 
" clip-path="url(#p86e161269c)" style="fill: none; stroke: #8eba42; stroke-width: 1.5; stroke-linecap: square"/>
   </g>
   <g id="line2d_29">
    <path d="M 92.290909 96.995871 
L 117.070593 97.733173 
L 140.225387 98.644338 
L 163.380178 99.789385 
L 214.970674 102.566922 
L 225.532512 102.831671 
L 234.06322 102.823106 
L 241.375255 102.601359 
L 247.874851 102.197703 
L 254.374438 101.566575 
L 260.46781 100.743198 
L 266.154948 99.757809 
L 271.842086 98.553995 
L 277.529225 97.131117 
L 283.622587 95.370459 
L 290.122193 93.246385 
L 297.028023 90.751263 
L 305.558731 87.412924 
L 318.15168 82.218042 
L 333.588217 75.916373 
L 342.931383 72.348682 
L 351.462081 69.328533 
L 359.586564 66.691137 
L 367.304833 64.41543 
L 375.023101 62.373718 
L 382.74137 60.577049 
L 390.053425 59.112977 
L 396.959226 57.956424 
L 403.458812 57.080558 
L 409.958399 56.423206 
L 416.457986 55.995629 
L 422.551358 55.812764 
L 428.64471 55.847116 
L 434.738102 56.103903 
L 440.831455 56.585126 
L 446.924827 57.2896 
L 453.01818 58.214424 
L 459.111552 59.352956 
L 465.611158 60.792738 
L 472.516959 62.561865 
L 479.422779 64.558234 
L 486.734814 66.893607 
L 494.859298 69.720253 
L 498.109091 70.909971 
L 498.109091 70.909971 
" clip-path="url(#p86e161269c)" style="fill: none; stroke: #ffb5b8; stroke-width: 1.5; stroke-linecap: square"/>
   </g>
   <g id="line2d_30">
    <path d="M 92.290909 165.040173 
L 124.382637 164.931853 
L 148.756097 165.105358 
L 165.411299 165.430821 
L 180.847826 165.957379 
L 193.440784 166.60349 
L 204.408836 167.367506 
L 214.970674 168.315393 
L 225.532512 169.498143 
L 235.688116 170.871846 
L 246.249954 172.539686 
L 258.436689 174.717442 
L 292.965762 181.064089 
L 301.496489 182.283979 
L 309.214748 183.15858 
L 316.526783 183.764498 
L 323.838818 184.148967 
L 331.557097 184.327129 
L 340.087804 184.282636 
L 349.430969 184.002189 
L 361.617694 183.39537 
L 400.615253 181.296202 
L 412.801978 180.964672 
L 424.582469 180.87562 
L 436.362999 181.023717 
L 447.737275 181.385214 
L 459.924 181.990479 
L 473.329407 182.880388 
L 489.172159 184.168283 
L 498.109091 184.976971 
L 498.109091 184.976971 
" clip-path="url(#p86e161269c)" style="fill: none; stroke: #e24a33; stroke-width: 1.5; stroke-linecap: square"/>
   </g>
   <g id="line2d_31">
    <path d="M 92.290909 174.343004 
L 120.320391 174.541461 
L 142.25651 174.915749 
L 158.911712 175.393409 
L 175.160688 176.083383 
L 189.784767 176.944518 
L 203.190164 177.966467 
L 216.595571 179.219914 
L 232.438323 180.945462 
L 257.624241 183.71903 
L 266.561172 184.464769 
L 274.279431 184.896784 
L 281.185242 185.069802 
L 287.684848 185.019236 
L 294.184435 184.745399 
L 300.684041 184.243655 
L 307.183627 183.522747 
L 314.495662 182.475488 
L 323.02637 180.998851 
L 333.994442 178.842585 
L 356.336771 174.406858 
L 365.273702 172.9003 
L 373.398205 171.761341 
L 380.71024 170.95584 
L 388.022294 170.379471 
L 394.928115 170.055955 
L 401.833916 169.953199 
L 408.739736 170.072124 
L 415.645537 170.411398 
L 422.551358 170.965729 
L 429.863393 171.77849 
L 437.175447 172.810971 
L 444.893696 174.122383 
L 453.424414 175.81148 
L 462.361345 177.816705 
L 472.516959 180.339104 
L 484.297469 183.513434 
L 498.109091 187.453384 
L 498.109091 187.453384 
" clip-path="url(#p86e161269c)" style="fill: none; stroke: #348abd; stroke-width: 1.5; stroke-linecap: square"/>
   </g>
   <g id="line2d_32">
    <path d="M 92.290909 171.087012 
L 128.038655 170.59001 
L 153.224569 170.447544 
L 174.348239 170.512379 
L 195.065681 170.796152 
L 214.158226 171.306785 
L 230.407202 171.970304 
L 245.437506 172.793244 
L 260.46781 173.817427 
L 279.560345 175.367996 
L 351.868314 181.617658 
L 375.023101 183.18697 
L 415.239323 185.61849 
L 447.737275 187.686492 
L 489.984608 190.646952 
L 498.109091 191.226566 
L 498.109091 191.226566 
" clip-path="url(#p86e161269c)" style="fill: none; stroke: #988ed5; stroke-width: 1.5; stroke-linecap: square"/>
   </g>
   <g id="patch_3">
    <path d="M 72 320.4 
L 72 43.2 
" style="fill: none; stroke: #ffffff; stroke-linejoin: miter; stroke-linecap: square"/>
   </g>
   <g id="patch_4">
    <path d="M 518.4 320.4 
L 518.4 43.2 
" style="fill: none; stroke: #ffffff; stroke-linejoin: miter; stroke-linecap: square"/>
   </g>
   <g id="patch_5">
    <path d="M 72 320.4 
L 518.4 320.4 
" style="fill: none; stroke: #ffffff; stroke-linejoin: miter; stroke-linecap: square"/>
   </g>
   <g id="patch_6">
    <path d="M 72 43.2 
L 518.4 43.2 
" style="fill: none; stroke: #ffffff; stroke-linejoin: miter; stroke-linecap: square"/>
   </g>
   <g id="text_12">
    <!-- Deviation from average for single draw -->
    <g transform="translate(154.044 37.2)scale(0.144 -0.144)">
     <defs>
      <path id="DejaVuSans-44" d="M 1259 4147 
L 1259 519 
L 2022 519 
Q 2988 519 3436 956 
Q 3884 1394 3884 2338 
Q 3884 3275 3436 3711 
Q 2988 4147 2022 4147 
L 1259 4147 
z
M 628 4666 
L 1925 4666 
Q 3281 4666 3915 4102 
Q 4550 3538 4550 2338 
Q 4550 1131 3912 565 
Q 3275 0 1925 0 
L 628 0 
L 628 4666 
z
" transform="scale(0.015625)"/>
      <path id="DejaVuSans-65" d="M 3597 1894 
L 3597 1613 
L 953 1613 
Q 991 1019 1311 708 
Q 1631 397 2203 397 
Q 2534 397 2845 478 
Q 3156 559 3463 722 
L 3463 178 
Q 3153 47 2828 -22 
Q 2503 -91 2169 -91 
Q 1331 -91 842 396 
Q 353 884 353 1716 
Q 353 2575 817 3079 
Q 1281 3584 2069 3584 
Q 2775 3584 3186 3129 
Q 3597 2675 3597 1894 
z
M 3022 2063 
Q 3016 2534 2758 2815 
Q 2500 3097 2075 3097 
Q 1594 3097 1305 2825 
Q 1016 2553 972 2059 
L 3022 2063 
z
" transform="scale(0.015625)"/>
      <path id="DejaVuSans-76" d="M 191 3500 
L 800 3500 
L 1894 563 
L 2988 3500 
L 3597 3500 
L 2284 0 
L 1503 0 
L 191 3500 
z
" transform="scale(0.015625)"/>
      <path id="DejaVuSans-69" d="M 603 3500 
L 1178 3500 
L 1178 0 
L 603 0 
L 603 3500 
z
M 603 4863 
L 1178 4863 
L 1178 4134 
L 603 4134 
L 603 4863 
z
" transform="scale(0.015625)"/>
      <path id="DejaVuSans-61" d="M 2194 1759 
Q 1497 1759 1228 1600 
Q 959 1441 959 1056 
Q 959 750 1161 570 
Q 1363 391 1709 391 
Q 2188 391 2477 730 
Q 2766 1069 2766 1631 
L 2766 1759 
L 2194 1759 
z
M 3341 1997 
L 3341 0 
L 2766 0 
L 2766 531 
Q 2569 213 2275 61 
Q 1981 -91 1556 -91 
Q 1019 -91 701 211 
Q 384 513 384 1019 
Q 384 1609 779 1909 
Q 1175 2209 1959 2209 
L 2766 2209 
L 2766 2266 
Q 2766 2663 2505 2880 
Q 2244 3097 1772 3097 
Q 1472 3097 1187 3025 
Q 903 2953 641 2809 
L 641 3341 
Q 956 3463 1253 3523 
Q 1550 3584 1831 3584 
Q 2591 3584 2966 3190 
Q 3341 2797 3341 1997 
z
" transform="scale(0.015625)"/>
      <path id="DejaVuSans-74" d="M 1172 4494 
L 1172 3500 
L 2356 3500 
L 2356 3053 
L 1172 3053 
L 1172 1153 
Q 1172 725 1289 603 
Q 1406 481 1766 481 
L 2356 481 
L 2356 0 
L 1766 0 
Q 1100 0 847 248 
Q 594 497 594 1153 
L 594 3053 
L 172 3053 
L 172 3500 
L 594 3500 
L 594 4494 
L 1172 4494 
z
" transform="scale(0.015625)"/>
      <path id="DejaVuSans-6f" d="M 1959 3097 
Q 1497 3097 1228 2736 
Q 959 2375 959 1747 
Q 959 1119 1226 758 
Q 1494 397 1959 397 
Q 2419 397 2687 759 
Q 2956 1122 2956 1747 
Q 2956 2369 2687 2733 
Q 2419 3097 1959 3097 
z
M 1959 3584 
Q 2709 3584 3137 3096 
Q 3566 2609 3566 1747 
Q 3566 888 3137 398 
Q 2709 -91 1959 -91 
Q 1206 -91 779 398 
Q 353 888 353 1747 
Q 353 2609 779 3096 
Q 1206 3584 1959 3584 
z
" transform="scale(0.015625)"/>
      <path id="DejaVuSans-6e" d="M 3513 2113 
L 3513 0 
L 2938 0 
L 2938 2094 
Q 2938 2591 2744 2837 
Q 2550 3084 2163 3084 
Q 1697 3084 1428 2787 
Q 1159 2491 1159 1978 
L 1159 0 
L 581 0 
L 581 3500 
L 1159 3500 
L 1159 2956 
Q 1366 3272 1645 3428 
Q 1925 3584 2291 3584 
Q 2894 3584 3203 3211 
Q 3513 2838 3513 2113 
z
" transform="scale(0.015625)"/>
      <path id="DejaVuSans-20" transform="scale(0.015625)"/>
      <path id="DejaVuSans-66" d="M 2375 4863 
L 2375 4384 
L 1825 4384 
Q 1516 4384 1395 4259 
Q 1275 4134 1275 3809 
L 1275 3500 
L 2222 3500 
L 2222 3053 
L 1275 3053 
L 1275 0 
L 697 0 
L 697 3053 
L 147 3053 
L 147 3500 
L 697 3500 
L 697 3744 
Q 697 4328 969 4595 
Q 1241 4863 1831 4863 
L 2375 4863 
z
" transform="scale(0.015625)"/>
      <path id="DejaVuSans-72" d="M 2631 2963 
Q 2534 3019 2420 3045 
Q 2306 3072 2169 3072 
Q 1681 3072 1420 2755 
Q 1159 2438 1159 1844 
L 1159 0 
L 581 0 
L 581 3500 
L 1159 3500 
L 1159 2956 
Q 1341 3275 1631 3429 
Q 1922 3584 2338 3584 
Q 2397 3584 2469 3576 
Q 2541 3569 2628 3553 
L 2631 2963 
z
" transform="scale(0.015625)"/>
      <path id="DejaVuSans-6d" d="M 3328 2828 
Q 3544 3216 3844 3400 
Q 4144 3584 4550 3584 
Q 5097 3584 5394 3201 
Q 5691 2819 5691 2113 
L 5691 0 
L 5113 0 
L 5113 2094 
Q 5113 2597 4934 2840 
Q 4756 3084 4391 3084 
Q 3944 3084 3684 2787 
Q 3425 2491 3425 1978 
L 3425 0 
L 2847 0 
L 2847 2094 
Q 2847 2600 2669 2842 
Q 2491 3084 2119 3084 
Q 1678 3084 1418 2786 
Q 1159 2488 1159 1978 
L 1159 0 
L 581 0 
L 581 3500 
L 1159 3500 
L 1159 2956 
Q 1356 3278 1631 3431 
Q 1906 3584 2284 3584 
Q 2666 3584 2933 3390 
Q 3200 3197 3328 2828 
z
" transform="scale(0.015625)"/>
      <path id="DejaVuSans-67" d="M 2906 1791 
Q 2906 2416 2648 2759 
Q 2391 3103 1925 3103 
Q 1463 3103 1205 2759 
Q 947 2416 947 1791 
Q 947 1169 1205 825 
Q 1463 481 1925 481 
Q 2391 481 2648 825 
Q 2906 1169 2906 1791 
z
M 3481 434 
Q 3481 -459 3084 -895 
Q 2688 -1331 1869 -1331 
Q 1566 -1331 1297 -1286 
Q 1028 -1241 775 -1147 
L 775 -588 
Q 1028 -725 1275 -790 
Q 1522 -856 1778 -856 
Q 2344 -856 2625 -561 
Q 2906 -266 2906 331 
L 2906 616 
Q 2728 306 2450 153 
Q 2172 0 1784 0 
Q 1141 0 747 490 
Q 353 981 353 1791 
Q 353 2603 747 3093 
Q 1141 3584 1784 3584 
Q 2172 3584 2450 3431 
Q 2728 3278 2906 2969 
L 2906 3500 
L 3481 3500 
L 3481 434 
z
" transform="scale(0.015625)"/>
      <path id="DejaVuSans-73" d="M 2834 3397 
L 2834 2853 
Q 2591 2978 2328 3040 
Q 2066 3103 1784 3103 
Q 1356 3103 1142 2972 
Q 928 2841 928 2578 
Q 928 2378 1081 2264 
Q 1234 2150 1697 2047 
L 1894 2003 
Q 2506 1872 2764 1633 
Q 3022 1394 3022 966 
Q 3022 478 2636 193 
Q 2250 -91 1575 -91 
Q 1294 -91 989 -36 
Q 684 19 347 128 
L 347 722 
Q 666 556 975 473 
Q 1284 391 1588 391 
Q 1994 391 2212 530 
Q 2431 669 2431 922 
Q 2431 1156 2273 1281 
Q 2116 1406 1581 1522 
L 1381 1569 
Q 847 1681 609 1914 
Q 372 2147 372 2553 
Q 372 3047 722 3315 
Q 1072 3584 1716 3584 
Q 2034 3584 2315 3537 
Q 2597 3491 2834 3397 
z
" transform="scale(0.015625)"/>
      <path id="DejaVuSans-6c" d="M 603 4863 
L 1178 4863 
L 1178 0 
L 603 0 
L 603 4863 
z
" transform="scale(0.015625)"/>
      <path id="DejaVuSans-64" d="M 2906 2969 
L 2906 4863 
L 3481 4863 
L 3481 0 
L 2906 0 
L 2906 525 
Q 2725 213 2448 61 
Q 2172 -91 1784 -91 
Q 1150 -91 751 415 
Q 353 922 353 1747 
Q 353 2572 751 3078 
Q 1150 3584 1784 3584 
Q 2172 3584 2448 3432 
Q 2725 3281 2906 2969 
z
M 947 1747 
Q 947 1113 1208 752 
Q 1469 391 1925 391 
Q 2381 391 2643 752 
Q 2906 1113 2906 1747 
Q 2906 2381 2643 2742 
Q 2381 3103 1925 3103 
Q 1469 3103 1208 2742 
Q 947 2381 947 1747 
z
" transform="scale(0.015625)"/>
      <path id="DejaVuSans-77" d="M 269 3500 
L 844 3500 
L 1563 769 
L 2278 3500 
L 2956 3500 
L 3675 769 
L 4391 3500 
L 4966 3500 
L 4050 0 
L 3372 0 
L 2619 2869 
L 1863 0 
L 1184 0 
L 269 3500 
z
" transform="scale(0.015625)"/>
     </defs>
     <use xlink:href="#DejaVuSans-44"/>
     <use xlink:href="#DejaVuSans-65" x="77.001953"/>
     <use xlink:href="#DejaVuSans-76" x="138.525391"/>
     <use xlink:href="#DejaVuSans-69" x="197.705078"/>
     <use xlink:href="#DejaVuSans-61" x="225.488281"/>
     <use xlink:href="#DejaVuSans-74" x="286.767578"/>
     <use xlink:href="#DejaVuSans-69" x="325.976562"/>
     <use xlink:href="#DejaVuSans-6f" x="353.759766"/>
     <use xlink:href="#DejaVuSans-6e" x="414.941406"/>
     <use xlink:href="#DejaVuSans-20" x="478.320312"/>
     <use xlink:href="#DejaVuSans-66" x="510.107422"/>
     <use xlink:href="#DejaVuSans-72" x="545.3125"/>
     <use xlink:href="#DejaVuSans-6f" x="584.175781"/>
     <use xlink:href="#DejaVuSans-6d" x="645.357422"/>
     <use xlink:href="#DejaVuSans-20" x="742.769531"/>
     <use xlink:href="#DejaVuSans-61" x="774.556641"/>
     <use xlink:href="#DejaVuSans-76" x="835.835938"/>
     <use xlink:href="#DejaVuSans-65" x="895.015625"/>
     <use xlink:href="#DejaVuSans-72" x="956.539062"/>
     <use xlink:href="#DejaVuSans-61" x="997.652344"/>
     <use xlink:href="#DejaVuSans-67" x="1058.931641"/>
     <use xlink:href="#DejaVuSans-65" x="1122.408203"/>
     <use xlink:href="#DejaVuSans-20" x="1183.931641"/>
     <use xlink:href="#DejaVuSans-66" x="1215.71875"/>
     <use xlink:href="#DejaVuSans-6f" x="1250.923828"/>
     <use xlink:href="#DejaVuSans-72" x="1312.105469"/>
     <use xlink:href="#DejaVuSans-20" x="1353.21875"/>
     <use xlink:href="#DejaVuSans-73" x="1385.005859"/>
     <use xlink:href="#DejaVuSans-69" x="1437.105469"/>
     <use xlink:href="#DejaVuSans-6e" x="1464.888672"/>
     <use xlink:href="#DejaVuSans-67" x="1528.267578"/>
     <use xlink:href="#DejaVuSans-6c" x="1591.744141"/>
     <use xlink:href="#DejaVuSans-65" x="1619.527344"/>
     <use xlink:href="#DejaVuSans-20" x="1681.050781"/>
     <use xlink:href="#DejaVuSans-64" x="1712.837891"/>
     <use xlink:href="#DejaVuSans-72" x="1776.314453"/>
     <use xlink:href="#DejaVuSans-61" x="1817.427734"/>
     <use xlink:href="#DejaVuSans-77" x="1878.707031"/>
    </g>
   </g>
   <g id="legend_1">
    <g id="patch_7">
     <path d="M 507.4 56.2 
L 511.4 56.2 
Q 513.4 56.2 513.4 54.2 
L 513.4 50.2 
Q 513.4 48.2 511.4 48.2 
L 507.4 48.2 
Q 505.4 48.2 505.4 50.2 
L 505.4 54.2 
Q 505.4 56.2 507.4 56.2 
z
" style="fill: #e5e5e5; opacity: 0.8; stroke: #cccccc; stroke-width: 0.5; stroke-linejoin: miter"/>
    </g>
   </g>
  </g>
 </g>
 <defs>
  <clipPath id="p86e161269c">
   <rect x="72" y="43.2" width="446.4" height="277.2"/>
  </clipPath>
 </defs>
</svg>
