<?xml version="1.0" encoding="utf-8" standalone="no"?>
<!DOCTYPE svg PUBLIC "-//W3C//DTD SVG 1.1//EN"
  "http://www.w3.org/Graphics/SVG/1.1/DTD/svg11.dtd">
<svg xmlns:xlink="http://www.w3.org/1999/xlink" width="460.8pt" height="345.6pt" viewBox="0 0 460.8 345.6" xmlns="http://www.w3.org/2000/svg" version="1.1">
 <metadata>
  <rdf:RDF xmlns:dc="http://purl.org/dc/elements/1.1/" xmlns:cc="http://creativecommons.org/ns#" xmlns:rdf="http://www.w3.org/1999/02/22-rdf-syntax-ns#">
   <cc:Work>
    <dc:type rdf:resource="http://purl.org/dc/dcmitype/StillImage"/>
    <dc:date>2022-12-22T11:41:01.869648</dc:date>
    <dc:format>image/svg+xml</dc:format>
    <dc:creator>
     <cc:Agent>
      <dc:title>Matplotlib v3.5.3, https://matplotlib.org/</dc:title>
     </cc:Agent>
    </dc:creator>
   </cc:Work>
  </rdf:RDF>
 </metadata>
 <defs>
  <style type="text/css">*{stroke-linejoin: round; stroke-linecap: butt}</style>
 </defs>
 <g id="figure_1">
  <g id="patch_1">
   <path d="M 0 345.6 
L 460.8 345.6 
L 460.8 0 
L 0 0 
z
" style="fill: #ffffff"/>
  </g>
  <g id="axes_1">
   <g id="patch_2">
    <path d="M 57.6 307.584 
L 414.72 307.584 
L 414.72 41.472 
L 57.6 41.472 
z
" style="fill: #e5e5e5"/>
   </g>
   <g id="matplotlib.axis_1">
    <g id="xtick_1">
     <g id="line2d_1">
      <path d="M 103.104 307.584 
L 103.104 41.472 
" clip-path="url(#pbc86f57595)" style="fill: none; stroke: #ffffff; stroke-width: 0.8; stroke-linecap: square"/>
     </g>
     <g id="line2d_2">
      <defs>
       <path id="me78d2b397c" d="M 0 0 
L 0 3.5 
" style="stroke: #555555; stroke-width: 0.8"/>
      </defs>
      <g>
       <use xlink:href="#me78d2b397c" x="103.104" y="307.584" style="fill: #555555; stroke: #555555; stroke-width: 0.8"/>
      </g>
     </g>
     <g id="text_1">
      <!-- 0.0 -->
      <g style="fill: #555555" transform="translate(95.152438 322.182437)scale(0.1 -0.1)">
       <defs>
        <path id="DejaVuSans-30" d="M 2034 4250 
Q 1547 4250 1301 3770 
Q 1056 3291 1056 2328 
Q 1056 1369 1301 889 
Q 1547 409 2034 409 
Q 2525 409 2770 889 
Q 3016 1369 3016 2328 
Q 3016 3291 2770 3770 
Q 2525 4250 2034 4250 
z
M 2034 4750 
Q 2819 4750 3233 4129 
Q 3647 3509 3647 2328 
Q 3647 1150 3233 529 
Q 2819 -91 2034 -91 
Q 1250 -91 836 529 
Q 422 1150 422 2328 
Q 422 3509 836 4129 
Q 1250 4750 2034 4750 
z
" transform="scale(0.015625)"/>
        <path id="DejaVuSans-2e" d="M 684 794 
L 1344 794 
L 1344 0 
L 684 0 
L 684 794 
z
" transform="scale(0.015625)"/>
       </defs>
       <use xlink:href="#DejaVuSans-30"/>
       <use xlink:href="#DejaVuSans-2e" x="63.623047"/>
       <use xlink:href="#DejaVuSans-30" x="95.410156"/>
      </g>
     </g>
    </g>
    <g id="xtick_2">
     <g id="line2d_3">
      <path d="M 156.3264 307.584 
L 156.3264 41.472 
" clip-path="url(#pbc86f57595)" style="fill: none; stroke: #ffffff; stroke-width: 0.8; stroke-linecap: square"/>
     </g>
     <g id="line2d_4">
      <g>
       <use xlink:href="#me78d2b397c" x="156.3264" y="307.584" style="fill: #555555; stroke: #555555; stroke-width: 0.8"/>
      </g>
     </g>
     <g id="text_2">
      <!-- 0.2 -->
      <g style="fill: #555555" transform="translate(148.374838 322.182437)scale(0.1 -0.1)">
       <defs>
        <path id="DejaVuSans-32" d="M 1228 531 
L 3431 531 
L 3431 0 
L 469 0 
L 469 531 
Q 828 903 1448 1529 
Q 2069 2156 2228 2338 
Q 2531 2678 2651 2914 
Q 2772 3150 2772 3378 
Q 2772 3750 2511 3984 
Q 2250 4219 1831 4219 
Q 1534 4219 1204 4116 
Q 875 4013 500 3803 
L 500 4441 
Q 881 4594 1212 4672 
Q 1544 4750 1819 4750 
Q 2544 4750 2975 4387 
Q 3406 4025 3406 3419 
Q 3406 3131 3298 2873 
Q 3191 2616 2906 2266 
Q 2828 2175 2409 1742 
Q 1991 1309 1228 531 
z
" transform="scale(0.015625)"/>
       </defs>
       <use xlink:href="#DejaVuSans-30"/>
       <use xlink:href="#DejaVuSans-2e" x="63.623047"/>
       <use xlink:href="#DejaVuSans-32" x="95.410156"/>
      </g>
     </g>
    </g>
    <g id="xtick_3">
     <g id="line2d_5">
      <path d="M 209.5488 307.584 
L 209.5488 41.472 
" clip-path="url(#pbc86f57595)" style="fill: none; stroke: #ffffff; stroke-width: 0.8; stroke-linecap: square"/>
     </g>
     <g id="line2d_6">
      <g>
       <use xlink:href="#me78d2b397c" x="209.5488" y="307.584" style="fill: #555555; stroke: #555555; stroke-width: 0.8"/>
      </g>
     </g>
     <g id="text_3">
      <!-- 0.4 -->
      <g style="fill: #555555" transform="translate(201.597238 322.182437)scale(0.1 -0.1)">
       <defs>
        <path id="DejaVuSans-34" d="M 2419 4116 
L 825 1625 
L 2419 1625 
L 2419 4116 
z
M 2253 4666 
L 3047 4666 
L 3047 1625 
L 3713 1625 
L 3713 1100 
L 3047 1100 
L 3047 0 
L 2419 0 
L 2419 1100 
L 313 1100 
L 313 1709 
L 2253 4666 
z
" transform="scale(0.015625)"/>
       </defs>
       <use xlink:href="#DejaVuSans-30"/>
       <use xlink:href="#DejaVuSans-2e" x="63.623047"/>
       <use xlink:href="#DejaVuSans-34" x="95.410156"/>
      </g>
     </g>
    </g>
    <g id="xtick_4">
     <g id="line2d_7">
      <path d="M 262.7712 307.584 
L 262.7712 41.472 
" clip-path="url(#pbc86f57595)" style="fill: none; stroke: #ffffff; stroke-width: 0.8; stroke-linecap: square"/>
     </g>
     <g id="line2d_8">
      <g>
       <use xlink:href="#me78d2b397c" x="262.7712" y="307.584" style="fill: #555555; stroke: #555555; stroke-width: 0.8"/>
      </g>
     </g>
     <g id="text_4">
      <!-- 0.6 -->
      <g style="fill: #555555" transform="translate(254.819638 322.182437)scale(0.1 -0.1)">
       <defs>
        <path id="DejaVuSans-36" d="M 2113 2584 
Q 1688 2584 1439 2293 
Q 1191 2003 1191 1497 
Q 1191 994 1439 701 
Q 1688 409 2113 409 
Q 2538 409 2786 701 
Q 3034 994 3034 1497 
Q 3034 2003 2786 2293 
Q 2538 2584 2113 2584 
z
M 3366 4563 
L 3366 3988 
Q 3128 4100 2886 4159 
Q 2644 4219 2406 4219 
Q 1781 4219 1451 3797 
Q 1122 3375 1075 2522 
Q 1259 2794 1537 2939 
Q 1816 3084 2150 3084 
Q 2853 3084 3261 2657 
Q 3669 2231 3669 1497 
Q 3669 778 3244 343 
Q 2819 -91 2113 -91 
Q 1303 -91 875 529 
Q 447 1150 447 2328 
Q 447 3434 972 4092 
Q 1497 4750 2381 4750 
Q 2619 4750 2861 4703 
Q 3103 4656 3366 4563 
z
" transform="scale(0.015625)"/>
       </defs>
       <use xlink:href="#DejaVuSans-30"/>
       <use xlink:href="#DejaVuSans-2e" x="63.623047"/>
       <use xlink:href="#DejaVuSans-36" x="95.410156"/>
      </g>
     </g>
    </g>
    <g id="xtick_5">
     <g id="line2d_9">
      <path d="M 315.9936 307.584 
L 315.9936 41.472 
" clip-path="url(#pbc86f57595)" style="fill: none; stroke: #ffffff; stroke-width: 0.8; stroke-linecap: square"/>
     </g>
     <g id="line2d_10">
      <g>
       <use xlink:href="#me78d2b397c" x="315.9936" y="307.584" style="fill: #555555; stroke: #555555; stroke-width: 0.8"/>
      </g>
     </g>
     <g id="text_5">
      <!-- 0.8 -->
      <g style="fill: #555555" transform="translate(308.042037 322.182437)scale(0.1 -0.1)">
       <defs>
        <path id="DejaVuSans-38" d="M 2034 2216 
Q 1584 2216 1326 1975 
Q 1069 1734 1069 1313 
Q 1069 891 1326 650 
Q 1584 409 2034 409 
Q 2484 409 2743 651 
Q 3003 894 3003 1313 
Q 3003 1734 2745 1975 
Q 2488 2216 2034 2216 
z
M 1403 2484 
Q 997 2584 770 2862 
Q 544 3141 544 3541 
Q 544 4100 942 4425 
Q 1341 4750 2034 4750 
Q 2731 4750 3128 4425 
Q 3525 4100 3525 3541 
Q 3525 3141 3298 2862 
Q 3072 2584 2669 2484 
Q 3125 2378 3379 2068 
Q 3634 1759 3634 1313 
Q 3634 634 3220 271 
Q 2806 -91 2034 -91 
Q 1263 -91 848 271 
Q 434 634 434 1313 
Q 434 1759 690 2068 
Q 947 2378 1403 2484 
z
M 1172 3481 
Q 1172 3119 1398 2916 
Q 1625 2713 2034 2713 
Q 2441 2713 2670 2916 
Q 2900 3119 2900 3481 
Q 2900 3844 2670 4047 
Q 2441 4250 2034 4250 
Q 1625 4250 1398 4047 
Q 1172 3844 1172 3481 
z
" transform="scale(0.015625)"/>
       </defs>
       <use xlink:href="#DejaVuSans-30"/>
       <use xlink:href="#DejaVuSans-2e" x="63.623047"/>
       <use xlink:href="#DejaVuSans-38" x="95.410156"/>
      </g>
     </g>
    </g>
    <g id="xtick_6">
     <g id="line2d_11">
      <path d="M 369.216 307.584 
L 369.216 41.472 
" clip-path="url(#pbc86f57595)" style="fill: none; stroke: #ffffff; stroke-width: 0.8; stroke-linecap: square"/>
     </g>
     <g id="line2d_12">
      <g>
       <use xlink:href="#me78d2b397c" x="369.216" y="307.584" style="fill: #555555; stroke: #555555; stroke-width: 0.8"/>
      </g>
     </g>
     <g id="text_6">
      <!-- 1.0 -->
      <g style="fill: #555555" transform="translate(361.264438 322.182437)scale(0.1 -0.1)">
       <defs>
        <path id="DejaVuSans-31" d="M 794 531 
L 1825 531 
L 1825 4091 
L 703 3866 
L 703 4441 
L 1819 4666 
L 2450 4666 
L 2450 531 
L 3481 531 
L 3481 0 
L 794 0 
L 794 531 
z
" transform="scale(0.015625)"/>
       </defs>
       <use xlink:href="#DejaVuSans-31"/>
       <use xlink:href="#DejaVuSans-2e" x="63.623047"/>
       <use xlink:href="#DejaVuSans-30" x="95.410156"/>
      </g>
     </g>
    </g>
    <g id="text_7">
     <!-- Predicted probability -->
     <g style="fill: #555555" transform="translate(174.077812 337.38025)scale(0.12 -0.12)">
      <defs>
       <path id="DejaVuSans-50" d="M 1259 4147 
L 1259 2394 
L 2053 2394 
Q 2494 2394 2734 2622 
Q 2975 2850 2975 3272 
Q 2975 3691 2734 3919 
Q 2494 4147 2053 4147 
L 1259 4147 
z
M 628 4666 
L 2053 4666 
Q 2838 4666 3239 4311 
Q 3641 3956 3641 3272 
Q 3641 2581 3239 2228 
Q 2838 1875 2053 1875 
L 1259 1875 
L 1259 0 
L 628 0 
L 628 4666 
z
" transform="scale(0.015625)"/>
       <path id="DejaVuSans-72" d="M 2631 2963 
Q 2534 3019 2420 3045 
Q 2306 3072 2169 3072 
Q 1681 3072 1420 2755 
Q 1159 2438 1159 1844 
L 1159 0 
L 581 0 
L 581 3500 
L 1159 3500 
L 1159 2956 
Q 1341 3275 1631 3429 
Q 1922 3584 2338 3584 
Q 2397 3584 2469 3576 
Q 2541 3569 2628 3553 
L 2631 2963 
z
" transform="scale(0.015625)"/>
       <path id="DejaVuSans-65" d="M 3597 1894 
L 3597 1613 
L 953 1613 
Q 991 1019 1311 708 
Q 1631 397 2203 397 
Q 2534 397 2845 478 
Q 3156 559 3463 722 
L 3463 178 
Q 3153 47 2828 -22 
Q 2503 -91 2169 -91 
Q 1331 -91 842 396 
Q 353 884 353 1716 
Q 353 2575 817 3079 
Q 1281 3584 2069 3584 
Q 2775 3584 3186 3129 
Q 3597 2675 3597 1894 
z
M 3022 2063 
Q 3016 2534 2758 2815 
Q 2500 3097 2075 3097 
Q 1594 3097 1305 2825 
Q 1016 2553 972 2059 
L 3022 2063 
z
" transform="scale(0.015625)"/>
       <path id="DejaVuSans-64" d="M 2906 2969 
L 2906 4863 
L 3481 4863 
L 3481 0 
L 2906 0 
L 2906 525 
Q 2725 213 2448 61 
Q 2172 -91 1784 -91 
Q 1150 -91 751 415 
Q 353 922 353 1747 
Q 353 2572 751 3078 
Q 1150 3584 1784 3584 
Q 2172 3584 2448 3432 
Q 2725 3281 2906 2969 
z
M 947 1747 
Q 947 1113 1208 752 
Q 1469 391 1925 391 
Q 2381 391 2643 752 
Q 2906 1113 2906 1747 
Q 2906 2381 2643 2742 
Q 2381 3103 1925 3103 
Q 1469 3103 1208 2742 
Q 947 2381 947 1747 
z
" transform="scale(0.015625)"/>
       <path id="DejaVuSans-69" d="M 603 3500 
L 1178 3500 
L 1178 0 
L 603 0 
L 603 3500 
z
M 603 4863 
L 1178 4863 
L 1178 4134 
L 603 4134 
L 603 4863 
z
" transform="scale(0.015625)"/>
       <path id="DejaVuSans-63" d="M 3122 3366 
L 3122 2828 
Q 2878 2963 2633 3030 
Q 2388 3097 2138 3097 
Q 1578 3097 1268 2742 
Q 959 2388 959 1747 
Q 959 1106 1268 751 
Q 1578 397 2138 397 
Q 2388 397 2633 464 
Q 2878 531 3122 666 
L 3122 134 
Q 2881 22 2623 -34 
Q 2366 -91 2075 -91 
Q 1284 -91 818 406 
Q 353 903 353 1747 
Q 353 2603 823 3093 
Q 1294 3584 2113 3584 
Q 2378 3584 2631 3529 
Q 2884 3475 3122 3366 
z
" transform="scale(0.015625)"/>
       <path id="DejaVuSans-74" d="M 1172 4494 
L 1172 3500 
L 2356 3500 
L 2356 3053 
L 1172 3053 
L 1172 1153 
Q 1172 725 1289 603 
Q 1406 481 1766 481 
L 2356 481 
L 2356 0 
L 1766 0 
Q 1100 0 847 248 
Q 594 497 594 1153 
L 594 3053 
L 172 3053 
L 172 3500 
L 594 3500 
L 594 4494 
L 1172 4494 
z
" transform="scale(0.015625)"/>
       <path id="DejaVuSans-20" transform="scale(0.015625)"/>
       <path id="DejaVuSans-70" d="M 1159 525 
L 1159 -1331 
L 581 -1331 
L 581 3500 
L 1159 3500 
L 1159 2969 
Q 1341 3281 1617 3432 
Q 1894 3584 2278 3584 
Q 2916 3584 3314 3078 
Q 3713 2572 3713 1747 
Q 3713 922 3314 415 
Q 2916 -91 2278 -91 
Q 1894 -91 1617 61 
Q 1341 213 1159 525 
z
M 3116 1747 
Q 3116 2381 2855 2742 
Q 2594 3103 2138 3103 
Q 1681 3103 1420 2742 
Q 1159 2381 1159 1747 
Q 1159 1113 1420 752 
Q 1681 391 2138 391 
Q 2594 391 2855 752 
Q 3116 1113 3116 1747 
z
" transform="scale(0.015625)"/>
       <path id="DejaVuSans-6f" d="M 1959 3097 
Q 1497 3097 1228 2736 
Q 959 2375 959 1747 
Q 959 1119 1226 758 
Q 1494 397 1959 397 
Q 2419 397 2687 759 
Q 2956 1122 2956 1747 
Q 2956 2369 2687 2733 
Q 2419 3097 1959 3097 
z
M 1959 3584 
Q 2709 3584 3137 3096 
Q 3566 2609 3566 1747 
Q 3566 888 3137 398 
Q 2709 -91 1959 -91 
Q 1206 -91 779 398 
Q 353 888 353 1747 
Q 353 2609 779 3096 
Q 1206 3584 1959 3584 
z
" transform="scale(0.015625)"/>
       <path id="DejaVuSans-62" d="M 3116 1747 
Q 3116 2381 2855 2742 
Q 2594 3103 2138 3103 
Q 1681 3103 1420 2742 
Q 1159 2381 1159 1747 
Q 1159 1113 1420 752 
Q 1681 391 2138 391 
Q 2594 391 2855 752 
Q 3116 1113 3116 1747 
z
M 1159 2969 
Q 1341 3281 1617 3432 
Q 1894 3584 2278 3584 
Q 2916 3584 3314 3078 
Q 3713 2572 3713 1747 
Q 3713 922 3314 415 
Q 2916 -91 2278 -91 
Q 1894 -91 1617 61 
Q 1341 213 1159 525 
L 1159 0 
L 581 0 
L 581 4863 
L 1159 4863 
L 1159 2969 
z
" transform="scale(0.015625)"/>
       <path id="DejaVuSans-61" d="M 2194 1759 
Q 1497 1759 1228 1600 
Q 959 1441 959 1056 
Q 959 750 1161 570 
Q 1363 391 1709 391 
Q 2188 391 2477 730 
Q 2766 1069 2766 1631 
L 2766 1759 
L 2194 1759 
z
M 3341 1997 
L 3341 0 
L 2766 0 
L 2766 531 
Q 2569 213 2275 61 
Q 1981 -91 1556 -91 
Q 1019 -91 701 211 
Q 384 513 384 1019 
Q 384 1609 779 1909 
Q 1175 2209 1959 2209 
L 2766 2209 
L 2766 2266 
Q 2766 2663 2505 2880 
Q 2244 3097 1772 3097 
Q 1472 3097 1187 3025 
Q 903 2953 641 2809 
L 641 3341 
Q 956 3463 1253 3523 
Q 1550 3584 1831 3584 
Q 2591 3584 2966 3190 
Q 3341 2797 3341 1997 
z
" transform="scale(0.015625)"/>
       <path id="DejaVuSans-6c" d="M 603 4863 
L 1178 4863 
L 1178 0 
L 603 0 
L 603 4863 
z
" transform="scale(0.015625)"/>
       <path id="DejaVuSans-79" d="M 2059 -325 
Q 1816 -950 1584 -1140 
Q 1353 -1331 966 -1331 
L 506 -1331 
L 506 -850 
L 844 -850 
Q 1081 -850 1212 -737 
Q 1344 -625 1503 -206 
L 1606 56 
L 191 3500 
L 800 3500 
L 1894 763 
L 2988 3500 
L 3597 3500 
L 2059 -325 
z
" transform="scale(0.015625)"/>
      </defs>
      <use xlink:href="#DejaVuSans-50"/>
      <use xlink:href="#DejaVuSans-72" x="58.552734"/>
      <use xlink:href="#DejaVuSans-65" x="97.416016"/>
      <use xlink:href="#DejaVuSans-64" x="158.939453"/>
      <use xlink:href="#DejaVuSans-69" x="222.416016"/>
      <use xlink:href="#DejaVuSans-63" x="250.199219"/>
      <use xlink:href="#DejaVuSans-74" x="305.179688"/>
      <use xlink:href="#DejaVuSans-65" x="344.388672"/>
      <use xlink:href="#DejaVuSans-64" x="405.912109"/>
      <use xlink:href="#DejaVuSans-20" x="469.388672"/>
      <use xlink:href="#DejaVuSans-70" x="501.175781"/>
      <use xlink:href="#DejaVuSans-72" x="564.652344"/>
      <use xlink:href="#DejaVuSans-6f" x="603.515625"/>
      <use xlink:href="#DejaVuSans-62" x="664.697266"/>
      <use xlink:href="#DejaVuSans-61" x="728.173828"/>
      <use xlink:href="#DejaVuSans-62" x="789.453125"/>
      <use xlink:href="#DejaVuSans-69" x="852.929688"/>
      <use xlink:href="#DejaVuSans-6c" x="880.712891"/>
      <use xlink:href="#DejaVuSans-69" x="908.496094"/>
      <use xlink:href="#DejaVuSans-74" x="936.279297"/>
      <use xlink:href="#DejaVuSans-79" x="975.488281"/>
     </g>
    </g>
   </g>
   <g id="matplotlib.axis_2">
    <g id="ytick_1">
     <g id="line2d_13">
      <path d="M 57.6 307.584 
L 414.72 307.584 
" clip-path="url(#pbc86f57595)" style="fill: none; stroke: #ffffff; stroke-width: 0.8; stroke-linecap: square"/>
     </g>
     <g id="line2d_14">
      <defs>
       <path id="md5ad0abe2d" d="M 0 0 
L -3.5 0 
" style="stroke: #555555; stroke-width: 0.8"/>
      </defs>
      <g>
       <use xlink:href="#md5ad0abe2d" x="57.6" y="307.584" style="fill: #555555; stroke: #555555; stroke-width: 0.8"/>
      </g>
     </g>
     <g id="text_8">
      <!-- 0.0 -->
      <g style="fill: #555555" transform="translate(34.696875 311.383219)scale(0.1 -0.1)">
       <use xlink:href="#DejaVuSans-30"/>
       <use xlink:href="#DejaVuSans-2e" x="63.623047"/>
       <use xlink:href="#DejaVuSans-30" x="95.410156"/>
      </g>
     </g>
    </g>
    <g id="ytick_2">
     <g id="line2d_15">
      <path d="M 57.6 254.3616 
L 414.72 254.3616 
" clip-path="url(#pbc86f57595)" style="fill: none; stroke: #ffffff; stroke-width: 0.8; stroke-linecap: square"/>
     </g>
     <g id="line2d_16">
      <g>
       <use xlink:href="#md5ad0abe2d" x="57.6" y="254.3616" style="fill: #555555; stroke: #555555; stroke-width: 0.8"/>
      </g>
     </g>
     <g id="text_9">
      <!-- 0.2 -->
      <g style="fill: #555555" transform="translate(34.696875 258.160819)scale(0.1 -0.1)">
       <use xlink:href="#DejaVuSans-30"/>
       <use xlink:href="#DejaVuSans-2e" x="63.623047"/>
       <use xlink:href="#DejaVuSans-32" x="95.410156"/>
      </g>
     </g>
    </g>
    <g id="ytick_3">
     <g id="line2d_17">
      <path d="M 57.6 201.1392 
L 414.72 201.1392 
" clip-path="url(#pbc86f57595)" style="fill: none; stroke: #ffffff; stroke-width: 0.8; stroke-linecap: square"/>
     </g>
     <g id="line2d_18">
      <g>
       <use xlink:href="#md5ad0abe2d" x="57.6" y="201.1392" style="fill: #555555; stroke: #555555; stroke-width: 0.8"/>
      </g>
     </g>
     <g id="text_10">
      <!-- 0.4 -->
      <g style="fill: #555555" transform="translate(34.696875 204.938419)scale(0.1 -0.1)">
       <use xlink:href="#DejaVuSans-30"/>
       <use xlink:href="#DejaVuSans-2e" x="63.623047"/>
       <use xlink:href="#DejaVuSans-34" x="95.410156"/>
      </g>
     </g>
    </g>
    <g id="ytick_4">
     <g id="line2d_19">
      <path d="M 57.6 147.9168 
L 414.72 147.9168 
" clip-path="url(#pbc86f57595)" style="fill: none; stroke: #ffffff; stroke-width: 0.8; stroke-linecap: square"/>
     </g>
     <g id="line2d_20">
      <g>
       <use xlink:href="#md5ad0abe2d" x="57.6" y="147.9168" style="fill: #555555; stroke: #555555; stroke-width: 0.8"/>
      </g>
     </g>
     <g id="text_11">
      <!-- 0.6 -->
      <g style="fill: #555555" transform="translate(34.696875 151.716019)scale(0.1 -0.1)">
       <use xlink:href="#DejaVuSans-30"/>
       <use xlink:href="#DejaVuSans-2e" x="63.623047"/>
       <use xlink:href="#DejaVuSans-36" x="95.410156"/>
      </g>
     </g>
    </g>
    <g id="ytick_5">
     <g id="line2d_21">
      <path d="M 57.6 94.6944 
L 414.72 94.6944 
" clip-path="url(#pbc86f57595)" style="fill: none; stroke: #ffffff; stroke-width: 0.8; stroke-linecap: square"/>
     </g>
     <g id="line2d_22">
      <g>
       <use xlink:href="#md5ad0abe2d" x="57.6" y="94.6944" style="fill: #555555; stroke: #555555; stroke-width: 0.8"/>
      </g>
     </g>
     <g id="text_12">
      <!-- 0.8 -->
      <g style="fill: #555555" transform="translate(34.696875 98.493619)scale(0.1 -0.1)">
       <use xlink:href="#DejaVuSans-30"/>
       <use xlink:href="#DejaVuSans-2e" x="63.623047"/>
       <use xlink:href="#DejaVuSans-38" x="95.410156"/>
      </g>
     </g>
    </g>
    <g id="ytick_6">
     <g id="line2d_23">
      <path d="M 57.6 41.472 
L 414.72 41.472 
" clip-path="url(#pbc86f57595)" style="fill: none; stroke: #ffffff; stroke-width: 0.8; stroke-linecap: square"/>
     </g>
     <g id="line2d_24">
      <g>
       <use xlink:href="#md5ad0abe2d" x="57.6" y="41.472" style="fill: #555555; stroke: #555555; stroke-width: 0.8"/>
      </g>
     </g>
     <g id="text_13">
      <!-- 1.0 -->
      <g style="fill: #555555" transform="translate(34.696875 45.271219)scale(0.1 -0.1)">
       <use xlink:href="#DejaVuSans-31"/>
       <use xlink:href="#DejaVuSans-2e" x="63.623047"/>
       <use xlink:href="#DejaVuSans-30" x="95.410156"/>
      </g>
     </g>
    </g>
    <g id="text_14">
     <!-- Observed probability -->
     <g style="fill: #555555" transform="translate(28.20125 237.31425)rotate(-90)scale(0.12 -0.12)">
      <defs>
       <path id="DejaVuSans-4f" d="M 2522 4238 
Q 1834 4238 1429 3725 
Q 1025 3213 1025 2328 
Q 1025 1447 1429 934 
Q 1834 422 2522 422 
Q 3209 422 3611 934 
Q 4013 1447 4013 2328 
Q 4013 3213 3611 3725 
Q 3209 4238 2522 4238 
z
M 2522 4750 
Q 3503 4750 4090 4092 
Q 4678 3434 4678 2328 
Q 4678 1225 4090 567 
Q 3503 -91 2522 -91 
Q 1538 -91 948 565 
Q 359 1222 359 2328 
Q 359 3434 948 4092 
Q 1538 4750 2522 4750 
z
" transform="scale(0.015625)"/>
       <path id="DejaVuSans-73" d="M 2834 3397 
L 2834 2853 
Q 2591 2978 2328 3040 
Q 2066 3103 1784 3103 
Q 1356 3103 1142 2972 
Q 928 2841 928 2578 
Q 928 2378 1081 2264 
Q 1234 2150 1697 2047 
L 1894 2003 
Q 2506 1872 2764 1633 
Q 3022 1394 3022 966 
Q 3022 478 2636 193 
Q 2250 -91 1575 -91 
Q 1294 -91 989 -36 
Q 684 19 347 128 
L 347 722 
Q 666 556 975 473 
Q 1284 391 1588 391 
Q 1994 391 2212 530 
Q 2431 669 2431 922 
Q 2431 1156 2273 1281 
Q 2116 1406 1581 1522 
L 1381 1569 
Q 847 1681 609 1914 
Q 372 2147 372 2553 
Q 372 3047 722 3315 
Q 1072 3584 1716 3584 
Q 2034 3584 2315 3537 
Q 2597 3491 2834 3397 
z
" transform="scale(0.015625)"/>
       <path id="DejaVuSans-76" d="M 191 3500 
L 800 3500 
L 1894 563 
L 2988 3500 
L 3597 3500 
L 2284 0 
L 1503 0 
L 191 3500 
z
" transform="scale(0.015625)"/>
      </defs>
      <use xlink:href="#DejaVuSans-4f"/>
      <use xlink:href="#DejaVuSans-62" x="78.710938"/>
      <use xlink:href="#DejaVuSans-73" x="142.1875"/>
      <use xlink:href="#DejaVuSans-65" x="194.287109"/>
      <use xlink:href="#DejaVuSans-72" x="255.810547"/>
      <use xlink:href="#DejaVuSans-76" x="296.923828"/>
      <use xlink:href="#DejaVuSans-65" x="356.103516"/>
      <use xlink:href="#DejaVuSans-64" x="417.626953"/>
      <use xlink:href="#DejaVuSans-20" x="481.103516"/>
      <use xlink:href="#DejaVuSans-70" x="512.890625"/>
      <use xlink:href="#DejaVuSans-72" x="576.367188"/>
      <use xlink:href="#DejaVuSans-6f" x="615.230469"/>
      <use xlink:href="#DejaVuSans-62" x="676.412109"/>
      <use xlink:href="#DejaVuSans-61" x="739.888672"/>
      <use xlink:href="#DejaVuSans-62" x="801.167969"/>
      <use xlink:href="#DejaVuSans-69" x="864.644531"/>
      <use xlink:href="#DejaVuSans-6c" x="892.427734"/>
      <use xlink:href="#DejaVuSans-69" x="920.210938"/>
      <use xlink:href="#DejaVuSans-74" x="947.994141"/>
      <use xlink:href="#DejaVuSans-79" x="987.203125"/>
     </g>
    </g>
   </g>
   <g id="line2d_25">
    <path d="M 103.127741 307.317888 
L 103.218087 306.785664 
L 103.628364 306.519552 
L 103.719346 305.721216 
L 104.053889 305.455104 
L 104.088966 305.188992 
L 104.565821 304.92288 
L 104.800078 304.656768 
L 104.808917 304.390656 
L 105.695824 303.858432 
L 105.930787 303.326208 
L 106.011532 302.793984 
L 106.213738 302.26176 
L 106.528909 301.995648 
L 106.6163 301.463424 
L 106.876188 301.197312 
L 107.043458 300.398976 
L 107.262001 300.132864 
L 107.279948 299.866752 
L 107.457558 299.60064 
L 107.581587 298.802304 
L 107.96382 298.536192 
L 108.070283 298.003968 
L 108.662659 297.737856 
L 108.769904 297.205632 
L 109.506555 296.141184 
L 109.528501 295.60896 
L 109.719174 295.342848 
L 110.417839 294.810624 
L 110.549139 294.2784 
L 110.739979 294.012288 
L 110.832061 293.480064 
L 112.419637 292.94784 
L 112.525758 292.681728 
L 113.043728 292.149504 
L 113.088016 291.883392 
L 113.520819 291.61728 
L 114.190116 290.020608 
L 114.654429 289.754496 
L 115.156278 289.222272 
L 115.403902 288.95616 
L 115.834538 287.359488 
L 115.98017 286.827264 
L 116.102459 286.561152 
L 117.384233 286.028928 
L 117.388385 285.762816 
L 118.653814 284.432256 
L 118.853768 284.166144 
L 118.933559 283.63392 
L 119.624311 283.367808 
L 119.829334 283.101696 
L 119.834977 282.835584 
L 120.068488 282.569472 
L 120.151689 282.30336 
L 121.019812 281.771136 
L 121.286431 281.505024 
L 121.31587 281.238912 
L 121.494224 280.9728 
L 121.633276 280.174464 
L 122.04329 279.908352 
L 122.202767 279.64224 
L 122.566559 279.376128 
L 122.646127 278.843904 
L 122.852071 278.577792 
L 122.86514 278.31168 
L 123.173392 278.045568 
L 123.3207 277.247232 
L 123.426661 276.98112 
L 124.121649 276.715008 
L 124.39401 276.448896 
L 124.459432 275.916672 
L 124.862817 275.384448 
L 124.993932 274.586112 
L 125.298648 274.32 
L 125.330595 273.787776 
L 125.875922 272.98944 
L 126.767133 272.723328 
L 126.871829 272.457216 
L 128.290091 271.924992 
L 128.402458 271.65888 
L 129.133954 271.392768 
L 129.204275 270.860544 
L 129.415144 270.594432 
L 129.627526 269.796096 
L 129.81697 269.529984 
L 129.848835 269.263872 
L 131.462312 268.731648 
L 131.646828 268.465536 
L 131.775349 267.933312 
L 131.792888 267.6672 
L 132.110573 267.401088 
L 132.112231 267.134976 
L 132.29844 266.868864 
L 132.337891 266.33664 
L 132.575134 265.804416 
L 132.639509 265.538304 
L 133.589581 265.00608 
L 133.60932 264.739968 
L 134.684688 264.473856 
L 134.918806 264.207744 
L 134.92297 263.941632 
L 135.753116 263.143296 
L 136.199352 262.877184 
L 136.478202 262.34496 
L 137.937114 261.812736 
L 139.083998 261.546624 
L 139.303374 261.280512 
L 139.703326 261.0144 
L 139.776853 260.748288 
L 140.283521 260.482176 
L 140.864086 259.68384 
L 141.190467 259.417728 
L 141.313886 259.151616 
L 141.881929 258.619392 
L 142.310073 258.087168 
L 143.194682 257.554944 
L 144.527603 256.224384 
L 146.139689 255.69216 
L 146.18326 255.426048 
L 146.621608 254.893824 
L 147.182595 254.627712 
L 147.473313 254.095488 
L 147.604806 253.563264 
L 148.310976 253.297152 
L 148.360339 253.03104 
L 148.901204 252.232704 
L 150.102674 251.966592 
L 150.307975 251.70048 
L 151.1356 251.434368 
L 151.213585 250.636032 
L 151.963356 249.837696 
L 152.37928 249.571584 
L 152.524065 249.305472 
L 153.20001 249.03936 
L 153.308398 248.773248 
L 155.354613 247.974912 
L 155.535067 247.7088 
L 156.32009 247.176576 
L 156.614343 246.910464 
L 157.91377 246.37824 
L 159.279644 246.112128 
L 159.48562 245.846016 
L 159.486741 245.579904 
L 160.024682 245.313792 
L 160.625056 244.249344 
L 161.282334 243.983232 
L 161.545603 243.451008 
L 162.594715 243.184896 
L 165.76346 240.257664 
L 166.187249 239.72544 
L 166.378021 239.193216 
L 168.193884 238.660992 
L 168.44085 237.862656 
L 168.937156 237.596544 
L 168.943201 237.330432 
L 169.945638 237.06432 
L 170.118673 236.798208 
L 171.370015 236.265984 
L 171.473721 235.999872 
L 173.465046 235.467648 
L 176.93229 234.935424 
L 178.073553 233.338752 
L 178.226998 233.07264 
L 178.599736 232.806528 
L 178.660066 232.540416 
L 179.924915 232.274304 
L 180.496404 231.475968 
L 182.15906 231.209856 
L 182.29555 230.943744 
L 182.993582 230.677632 
L 183.015459 230.41152 
L 183.434212 229.879296 
L 183.812421 229.613184 
L 184.069769 229.08096 
L 184.343799 228.814848 
L 184.956893 228.548736 
L 185.016889 228.282624 
L 186.614731 227.7504 
L 186.75619 227.484288 
L 188.065492 226.952064 
L 189.670031 225.621504 
L 189.909051 225.08928 
L 190.401471 224.823168 
L 190.561694 224.557056 
L 191.225264 224.290944 
L 191.316294 223.75872 
L 192.322379 223.226496 
L 192.614095 222.960384 
L 194.754712 221.895936 
L 195.084691 221.629824 
L 196.636382 220.831488 
L 196.929064 220.565376 
L 197.417036 220.299264 
L 197.915656 219.500928 
L 199.359878 218.968704 
L 200.146532 218.170368 
L 201.622594 217.638144 
L 202.01882 217.372032 
L 202.206917 217.10592 
L 202.601393 216.839808 
L 202.72145 216.573696 
L 203.025848 216.307584 
L 204.951165 216.041472 
L 206.40582 215.509248 
L 206.553861 215.243136 
L 206.947547 214.977024 
L 207.235869 214.4448 
L 207.531048 214.178688 
L 210.613017 212.582016 
L 210.623053 212.315904 
L 211.671036 212.049792 
L 215.15634 211.517568 
L 215.167067 211.251456 
L 216.737745 210.45312 
L 218.081847 210.187008 
L 218.218171 209.920896 
L 218.496642 209.654784 
L 220.410802 209.12256 
L 220.908259 208.590336 
L 221.012486 208.058112 
L 223.348282 207.525888 
L 223.72264 207.259776 
L 224.304302 206.993664 
L 225.223342 206.195328 
L 225.767941 205.929216 
L 228.36981 205.663104 
L 228.463344 205.396992 
L 229.380522 204.598656 
L 230.063324 204.332544 
L 230.324589 204.066432 
L 230.334186 203.80032 
L 230.986299 203.534208 
L 231.959425 202.46976 
L 232.522973 202.203648 
L 232.803597 201.671424 
L 233.262043 201.405312 
L 233.485639 201.1392 
L 235.621998 200.606976 
L 236.096904 200.340864 
L 236.174221 200.074752 
L 236.630052 199.80864 
L 237.320542 198.744192 
L 237.357569 198.47808 
L 237.670601 198.211968 
L 238.492011 197.945856 
L 238.684777 197.679744 
L 238.686856 197.413632 
L 238.938408 197.14752 
L 240.410805 196.615296 
L 240.954514 196.349184 
L 241.084221 196.083072 
L 241.085763 195.81696 
L 241.246078 195.550848 
L 242.253405 195.284736 
L 242.413604 195.018624 
L 242.955902 194.4864 
L 243.241402 194.220288 
L 244.518488 193.954176 
L 245.168561 193.688064 
L 245.480549 193.421952 
L 246.582751 192.889728 
L 246.609226 192.623616 
L 246.907599 192.357504 
L 250.208257 191.82528 
L 251.20737 191.559168 
L 251.298641 191.293056 
L 252.260526 190.760832 
L 252.365104 190.49472 
L 253.745605 190.228608 
L 253.882567 189.696384 
L 254.142227 189.430272 
L 254.192722 189.16416 
L 254.410532 188.898048 
L 255.174979 188.631936 
L 255.839728 188.099712 
L 256.61973 187.8336 
L 257.923178 187.567488 
L 258.127449 187.301376 
L 258.165902 187.035264 
L 260.116033 186.50304 
L 260.3583 186.236928 
L 261.732707 185.704704 
L 262.533392 185.438592 
L 262.607328 185.17248 
L 263.608613 184.906368 
L 263.852398 184.640256 
L 264.01644 184.108032 
L 264.721206 183.84192 
L 265.305838 183.309696 
L 266.56365 183.043584 
L 266.618441 182.777472 
L 268.129696 182.51136 
L 268.392854 182.245248 
L 268.493474 181.979136 
L 269.032401 181.446912 
L 271.440984 181.1808 
L 273.67225 180.382464 
L 274.148855 179.85024 
L 274.222625 179.584128 
L 274.608492 179.318016 
L 274.670843 179.051904 
L 275.075695 178.785792 
L 275.408686 178.253568 
L 276.437633 177.987456 
L 278.108788 177.721344 
L 278.605916 177.18912 
L 280.664616 176.124672 
L 281.047223 175.85856 
L 281.180943 175.592448 
L 283.380305 173.729664 
L 283.672201 173.463552 
L 285.190116 172.931328 
L 285.783352 172.665216 
L 286.923415 172.399104 
L 287.383741 172.132992 
L 288.80797 171.86688 
L 289.38978 171.600768 
L 290.456234 171.334656 
L 290.783747 171.068544 
L 291.066362 170.270208 
L 291.538853 169.737984 
L 293.887177 169.20576 
L 293.897679 168.939648 
L 294.152518 168.673536 
L 294.718067 168.407424 
L 294.98007 168.141312 
L 295.045103 167.8752 
L 296.985239 167.609088 
L 297.367459 167.342976 
L 298.090861 167.076864 
L 298.261397 166.810752 
L 299.129686 166.54464 
L 299.539181 166.012416 
L 299.58747 165.746304 
L 300.759406 165.480192 
L 301.072927 165.21408 
L 301.954402 163.617408 
L 303.360743 163.351296 
L 304.02303 163.085184 
L 304.150854 162.819072 
L 304.541315 162.55296 
L 305.376231 162.286848 
L 305.918035 161.754624 
L 307.492357 161.488512 
L 307.513433 161.2224 
L 309.032272 160.690176 
L 309.260266 160.424064 
L 310.925318 159.89184 
L 311.0946 159.625728 
L 312.497281 159.359616 
L 312.838365 159.093504 
L 312.845427 158.827392 
L 313.050976 158.56128 
L 314.146789 158.295168 
L 314.457881 157.762944 
L 315.711161 157.496832 
L 317.161574 156.166272 
L 317.521882 155.634048 
L 318.524765 155.101824 
L 319.339201 154.835712 
L 319.425042 154.303488 
L 319.640723 154.037376 
L 320.145173 153.771264 
L 320.34991 153.505152 
L 320.468358 152.972928 
L 321.082421 152.440704 
L 321.318933 151.90848 
L 321.453261 151.376256 
L 321.899703 151.110144 
L 321.963872 150.844032 
L 322.263595 150.57792 
L 322.350495 150.311808 
L 323.605642 149.24736 
L 323.924659 148.981248 
L 323.960862 148.715136 
L 324.176217 148.449024 
L 326.111271 147.384576 
L 326.671579 146.852352 
L 326.685942 146.58624 
L 326.881095 146.320128 
L 327.258934 146.054016 
L 327.318232 145.521792 
L 327.809074 145.25568 
L 328.49886 144.457344 
L 329.73173 143.392896 
L 329.744637 143.126784 
L 329.869118 142.860672 
L 330.520278 142.59456 
L 330.947748 141.796224 
L 332.478673 141.264 
L 332.792521 140.731776 
L 333.458705 140.465664 
L 333.635983 140.199552 
L 333.663281 139.93344 
L 334.10267 139.401216 
L 335.184842 138.868992 
L 335.276606 138.070656 
L 336.008026 137.804544 
L 336.264084 137.538432 
L 336.866378 137.27232 
L 336.866804 137.006208 
L 337.448317 136.207872 
L 337.550007 135.94176 
L 338.070549 135.675648 
L 338.208522 135.143424 
L 338.532398 134.877312 
L 338.711419 134.345088 
L 339.099994 133.812864 
L 339.328399 133.546752 
L 339.896126 133.28064 
L 340.125705 132.216192 
L 340.695074 131.95008 
L 340.758254 131.683968 
L 341.152137 131.417856 
L 341.154894 131.151744 
L 341.61846 130.61952 
L 341.625694 130.353408 
L 342.197169 129.821184 
L 342.2328 129.555072 
L 342.777416 128.756736 
L 342.871178 128.490624 
L 343.285037 127.9584 
L 343.606461 126.893952 
L 344.12901 126.62784 
L 344.189079 126.361728 
L 344.455252 126.095616 
L 344.528414 125.829504 
L 345.314753 125.563392 
L 345.350117 125.29728 
L 345.644803 124.765056 
L 346.276909 123.434496 
L 347.1159 122.902272 
L 347.695651 120.773376 
L 347.953686 120.507264 
L 347.969921 120.241152 
L 348.980539 118.378368 
L 349.266128 117.31392 
L 349.696249 117.047808 
L 349.850708 116.515584 
L 350.057131 115.98336 
L 350.301814 115.185024 
L 350.410494 114.6528 
L 350.490975 114.386688 
L 350.68758 114.120576 
L 350.797064 113.32224 
L 351.779399 111.193344 
L 351.809874 110.66112 
L 352.033535 110.395008 
L 352.140435 109.064448 
L 352.593531 108.532224 
L 352.7348 107.467776 
L 353.042352 107.201664 
L 353.166784 106.403328 
L 353.501223 105.871104 
L 354.351551 103.476096 
L 354.551765 101.613312 
L 354.74647 101.3472 
L 354.800993 100.814976 
L 355.115714 100.548864 
L 355.418302 99.750528 
L 355.855737 97.887744 
L 356.175306 97.621632 
L 356.288158 96.823296 
L 356.402881 96.291072 
L 356.596768 95.758848 
L 356.675531 95.226624 
L 356.89119 94.960512 
L 356.934929 94.428288 
L 357.056582 93.629952 
L 357.11939 93.097728 
L 357.420261 92.565504 
L 357.780756 91.767168 
L 357.971859 90.968832 
L 358.232471 90.170496 
L 358.370949 89.37216 
L 358.619512 88.839936 
L 358.762177 88.307712 
L 358.964769 86.977152 
L 359.178456 84.316032 
L 359.314134 83.251584 
L 359.72933 81.921024 
L 360.641146 77.39712 
L 360.890144 77.131008 
L 361.059505 75.002112 
L 361.159657 74.469888 
L 361.260181 73.40544 
L 361.407204 72.607104 
L 361.527348 71.808768 
L 361.575543 71.542656 
L 361.857743 71.276544 
L 361.987303 69.945984 
L 362.09484 68.881536 
L 362.197438 67.018752 
L 362.350337 66.220416 
L 362.52852 63.559296 
L 362.59724 62.228736 
L 362.715918 61.4304 
L 363.661767 54.245376 
L 363.80607 52.914816 
L 364.057719 52.382592 
L 364.11306 51.584256 
L 364.27617 51.052032 
L 364.354193 50.253696 
L 364.661349 47.326464 
L 364.802152 46.79424 
L 364.943167 46.528128 
L 364.949847 46.262016 
L 365.215714 45.729792 
L 365.247466 45.46368 
L 365.500417 45.197568 
L 365.670528 44.665344 
L 365.959737 44.399232 
L 366.364125 43.068672 
L 366.365325 42.80256 
L 366.797345 42.270336 
L 366.80774 42.004224 
L 367.269507 41.738112 
L 367.333071 41.472 
L 367.333071 41.472 
" clip-path="url(#pbc86f57595)" style="fill: none; stroke: #ff7f0e; stroke-width: 1.5; stroke-linecap: square"/>
   </g>
   <g id="line2d_26">
    <path d="M 103.104 307.584 
L 369.216 41.472 
" clip-path="url(#pbc86f57595)" style="fill: none; stroke-dasharray: 5.55,2.4; stroke-dashoffset: 0; stroke: #000000; stroke-opacity: 0.5; stroke-width: 1.5"/>
   </g>
   <g id="patch_3">
    <path d="M 57.6 307.584 
L 57.6 41.472 
" style="fill: none; stroke: #ffffff; stroke-linejoin: miter; stroke-linecap: square"/>
   </g>
   <g id="patch_4">
    <path d="M 414.72 307.584 
L 414.72 41.472 
" style="fill: none; stroke: #ffffff; stroke-linejoin: miter; stroke-linecap: square"/>
   </g>
   <g id="patch_5">
    <path d="M 57.6 307.584 
L 414.72 307.584 
" style="fill: none; stroke: #ffffff; stroke-linejoin: miter; stroke-linecap: square"/>
   </g>
   <g id="patch_6">
    <path d="M 57.6 41.472 
L 414.72 41.472 
" style="fill: none; stroke: #ffffff; stroke-linejoin: miter; stroke-linecap: square"/>
   </g>
   <g id="text_15">
    <!-- Calibration curve -->
    <g transform="translate(174.5235 35.472)scale(0.144 -0.144)">
     <defs>
      <path id="DejaVuSans-43" d="M 4122 4306 
L 4122 3641 
Q 3803 3938 3442 4084 
Q 3081 4231 2675 4231 
Q 1875 4231 1450 3742 
Q 1025 3253 1025 2328 
Q 1025 1406 1450 917 
Q 1875 428 2675 428 
Q 3081 428 3442 575 
Q 3803 722 4122 1019 
L 4122 359 
Q 3791 134 3420 21 
Q 3050 -91 2638 -91 
Q 1578 -91 968 557 
Q 359 1206 359 2328 
Q 359 3453 968 4101 
Q 1578 4750 2638 4750 
Q 3056 4750 3426 4639 
Q 3797 4528 4122 4306 
z
" transform="scale(0.015625)"/>
      <path id="DejaVuSans-6e" d="M 3513 2113 
L 3513 0 
L 2938 0 
L 2938 2094 
Q 2938 2591 2744 2837 
Q 2550 3084 2163 3084 
Q 1697 3084 1428 2787 
Q 1159 2491 1159 1978 
L 1159 0 
L 581 0 
L 581 3500 
L 1159 3500 
L 1159 2956 
Q 1366 3272 1645 3428 
Q 1925 3584 2291 3584 
Q 2894 3584 3203 3211 
Q 3513 2838 3513 2113 
z
" transform="scale(0.015625)"/>
      <path id="DejaVuSans-75" d="M 544 1381 
L 544 3500 
L 1119 3500 
L 1119 1403 
Q 1119 906 1312 657 
Q 1506 409 1894 409 
Q 2359 409 2629 706 
Q 2900 1003 2900 1516 
L 2900 3500 
L 3475 3500 
L 3475 0 
L 2900 0 
L 2900 538 
Q 2691 219 2414 64 
Q 2138 -91 1772 -91 
Q 1169 -91 856 284 
Q 544 659 544 1381 
z
M 1991 3584 
L 1991 3584 
z
" transform="scale(0.015625)"/>
     </defs>
     <use xlink:href="#DejaVuSans-43"/>
     <use xlink:href="#DejaVuSans-61" x="69.824219"/>
     <use xlink:href="#DejaVuSans-6c" x="131.103516"/>
     <use xlink:href="#DejaVuSans-69" x="158.886719"/>
     <use xlink:href="#DejaVuSans-62" x="186.669922"/>
     <use xlink:href="#DejaVuSans-72" x="250.146484"/>
     <use xlink:href="#DejaVuSans-61" x="291.259766"/>
     <use xlink:href="#DejaVuSans-74" x="352.539062"/>
     <use xlink:href="#DejaVuSans-69" x="391.748047"/>
     <use xlink:href="#DejaVuSans-6f" x="419.53125"/>
     <use xlink:href="#DejaVuSans-6e" x="480.712891"/>
     <use xlink:href="#DejaVuSans-20" x="544.091797"/>
     <use xlink:href="#DejaVuSans-63" x="575.878906"/>
     <use xlink:href="#DejaVuSans-75" x="630.859375"/>
     <use xlink:href="#DejaVuSans-72" x="694.238281"/>
     <use xlink:href="#DejaVuSans-76" x="735.351562"/>
     <use xlink:href="#DejaVuSans-65" x="794.53125"/>
    </g>
   </g>
   <g id="legend_1">
    <g id="patch_7">
     <path d="M 64.6 78.82825 
L 182.20625 78.82825 
Q 184.20625 78.82825 184.20625 76.82825 
L 184.20625 48.472 
Q 184.20625 46.472 182.20625 46.472 
L 64.6 46.472 
Q 62.6 46.472 62.6 48.472 
L 62.6 76.82825 
Q 62.6 78.82825 64.6 78.82825 
z
" style="fill: #e5e5e5; opacity: 0.8; stroke: #cccccc; stroke-width: 0.5; stroke-linejoin: miter"/>
    </g>
    <g id="line2d_27">
     <path d="M 66.6 54.570437 
L 76.6 54.570437 
L 86.6 54.570437 
" style="fill: none; stroke: #ff7f0e; stroke-width: 1.5; stroke-linecap: square"/>
    </g>
    <g id="text_16">
     <!-- Calibration curve -->
     <g transform="translate(94.6 58.070437)scale(0.1 -0.1)">
      <use xlink:href="#DejaVuSans-43"/>
      <use xlink:href="#DejaVuSans-61" x="69.824219"/>
      <use xlink:href="#DejaVuSans-6c" x="131.103516"/>
      <use xlink:href="#DejaVuSans-69" x="158.886719"/>
      <use xlink:href="#DejaVuSans-62" x="186.669922"/>
      <use xlink:href="#DejaVuSans-72" x="250.146484"/>
      <use xlink:href="#DejaVuSans-61" x="291.259766"/>
      <use xlink:href="#DejaVuSans-74" x="352.539062"/>
      <use xlink:href="#DejaVuSans-69" x="391.748047"/>
      <use xlink:href="#DejaVuSans-6f" x="419.53125"/>
      <use xlink:href="#DejaVuSans-6e" x="480.712891"/>
      <use xlink:href="#DejaVuSans-20" x="544.091797"/>
      <use xlink:href="#DejaVuSans-63" x="575.878906"/>
      <use xlink:href="#DejaVuSans-75" x="630.859375"/>
      <use xlink:href="#DejaVuSans-72" x="694.238281"/>
      <use xlink:href="#DejaVuSans-76" x="735.351562"/>
      <use xlink:href="#DejaVuSans-65" x="794.53125"/>
     </g>
    </g>
    <g id="line2d_28">
     <path d="M 66.6 69.248562 
L 76.6 69.248562 
L 86.6 69.248562 
" style="fill: none; stroke-dasharray: 5.55,2.4; stroke-dashoffset: 0; stroke: #000000; stroke-opacity: 0.5; stroke-width: 1.5"/>
    </g>
    <g id="text_17">
     <!-- Ideal curve -->
     <g transform="translate(94.6 72.748562)scale(0.1 -0.1)">
      <defs>
       <path id="DejaVuSans-49" d="M 628 4666 
L 1259 4666 
L 1259 0 
L 628 0 
L 628 4666 
z
" transform="scale(0.015625)"/>
      </defs>
      <use xlink:href="#DejaVuSans-49"/>
      <use xlink:href="#DejaVuSans-64" x="29.492188"/>
      <use xlink:href="#DejaVuSans-65" x="92.96875"/>
      <use xlink:href="#DejaVuSans-61" x="154.492188"/>
      <use xlink:href="#DejaVuSans-6c" x="215.771484"/>
      <use xlink:href="#DejaVuSans-20" x="243.554688"/>
      <use xlink:href="#DejaVuSans-63" x="275.341797"/>
      <use xlink:href="#DejaVuSans-75" x="330.322266"/>
      <use xlink:href="#DejaVuSans-72" x="393.701172"/>
      <use xlink:href="#DejaVuSans-76" x="434.814453"/>
      <use xlink:href="#DejaVuSans-65" x="493.994141"/>
     </g>
    </g>
   </g>
  </g>
 </g>
 <defs>
  <clipPath id="pbc86f57595">
   <rect x="57.6" y="41.472" width="357.12" height="266.112"/>
  </clipPath>
 </defs>
</svg>
