<?xml version="1.0" encoding="utf-8" standalone="no"?>
<!DOCTYPE svg PUBLIC "-//W3C//DTD SVG 1.1//EN"
  "http://www.w3.org/Graphics/SVG/1.1/DTD/svg11.dtd">
<svg xmlns:xlink="http://www.w3.org/1999/xlink" width="360pt" height="360pt" viewBox="0 0 360 360" xmlns="http://www.w3.org/2000/svg" version="1.1">
 <metadata>
  <rdf:RDF xmlns:dc="http://purl.org/dc/elements/1.1/" xmlns:cc="http://creativecommons.org/ns#" xmlns:rdf="http://www.w3.org/1999/02/22-rdf-syntax-ns#">
   <cc:Work>
    <dc:type rdf:resource="http://purl.org/dc/dcmitype/StillImage"/>
    <dc:date>2022-12-22T11:40:59.340828</dc:date>
    <dc:format>image/svg+xml</dc:format>
    <dc:creator>
     <cc:Agent>
      <dc:title>Matplotlib v3.5.3, https://matplotlib.org/</dc:title>
     </cc:Agent>
    </dc:creator>
   </cc:Work>
  </rdf:RDF>
 </metadata>
 <defs>
  <style type="text/css">*{stroke-linejoin: round; stroke-linecap: butt}</style>
 </defs>
 <g id="figure_1">
  <g id="patch_1">
   <path d="M 0 360 
L 360 360 
L 360 0 
L 0 0 
z
" style="fill: #ffffff"/>
  </g>
  <g id="axes_1">
   <g id="patch_2">
    <path d="M 45 320.4 
L 324 320.4 
L 324 43.2 
L 45 43.2 
z
" style="fill: #e5e5e5"/>
   </g>
   <g id="matplotlib.axis_1">
    <g id="xtick_1">
     <g id="line2d_1">
      <path d="M 57.681818 320.4 
L 57.681818 43.2 
" clip-path="url(#p77dbb8f7a7)" style="fill: none; stroke: #ffffff; stroke-width: 0.8; stroke-linecap: square"/>
     </g>
     <g id="line2d_2">
      <defs>
       <path id="mcd20da001c" d="M 0 0 
L 0 3.5 
" style="stroke: #555555; stroke-width: 0.8"/>
      </defs>
      <g>
       <use xlink:href="#mcd20da001c" x="57.681818" y="320.4" style="fill: #555555; stroke: #555555; stroke-width: 0.8"/>
      </g>
     </g>
     <g id="text_1">
      <!-- −0.5 -->
      <g style="fill: #555555" transform="translate(45.540412 334.998438)scale(0.1 -0.1)">
       <defs>
        <path id="DejaVuSans-2212" d="M 678 2272 
L 4684 2272 
L 4684 1741 
L 678 1741 
L 678 2272 
z
" transform="scale(0.015625)"/>
        <path id="DejaVuSans-30" d="M 2034 4250 
Q 1547 4250 1301 3770 
Q 1056 3291 1056 2328 
Q 1056 1369 1301 889 
Q 1547 409 2034 409 
Q 2525 409 2770 889 
Q 3016 1369 3016 2328 
Q 3016 3291 2770 3770 
Q 2525 4250 2034 4250 
z
M 2034 4750 
Q 2819 4750 3233 4129 
Q 3647 3509 3647 2328 
Q 3647 1150 3233 529 
Q 2819 -91 2034 -91 
Q 1250 -91 836 529 
Q 422 1150 422 2328 
Q 422 3509 836 4129 
Q 1250 4750 2034 4750 
z
" transform="scale(0.015625)"/>
        <path id="DejaVuSans-2e" d="M 684 794 
L 1344 794 
L 1344 0 
L 684 0 
L 684 794 
z
" transform="scale(0.015625)"/>
        <path id="DejaVuSans-35" d="M 691 4666 
L 3169 4666 
L 3169 4134 
L 1269 4134 
L 1269 2991 
Q 1406 3038 1543 3061 
Q 1681 3084 1819 3084 
Q 2600 3084 3056 2656 
Q 3513 2228 3513 1497 
Q 3513 744 3044 326 
Q 2575 -91 1722 -91 
Q 1428 -91 1123 -41 
Q 819 9 494 109 
L 494 744 
Q 775 591 1075 516 
Q 1375 441 1709 441 
Q 2250 441 2565 725 
Q 2881 1009 2881 1497 
Q 2881 1984 2565 2268 
Q 2250 2553 1709 2553 
Q 1456 2553 1204 2497 
Q 953 2441 691 2322 
L 691 4666 
z
" transform="scale(0.015625)"/>
       </defs>
       <use xlink:href="#DejaVuSans-2212"/>
       <use xlink:href="#DejaVuSans-30" x="83.789062"/>
       <use xlink:href="#DejaVuSans-2e" x="147.412109"/>
       <use xlink:href="#DejaVuSans-35" x="179.199219"/>
      </g>
     </g>
    </g>
    <g id="xtick_2">
     <g id="line2d_3">
      <path d="M 99.954545 320.4 
L 99.954545 43.2 
" clip-path="url(#p77dbb8f7a7)" style="fill: none; stroke: #ffffff; stroke-width: 0.8; stroke-linecap: square"/>
     </g>
     <g id="line2d_4">
      <g>
       <use xlink:href="#mcd20da001c" x="99.954545" y="320.4" style="fill: #555555; stroke: #555555; stroke-width: 0.8"/>
      </g>
     </g>
     <g id="text_2">
      <!-- 0.0 -->
      <g style="fill: #555555" transform="translate(92.002983 334.998438)scale(0.1 -0.1)">
       <use xlink:href="#DejaVuSans-30"/>
       <use xlink:href="#DejaVuSans-2e" x="63.623047"/>
       <use xlink:href="#DejaVuSans-30" x="95.410156"/>
      </g>
     </g>
    </g>
    <g id="xtick_3">
     <g id="line2d_5">
      <path d="M 142.227273 320.4 
L 142.227273 43.2 
" clip-path="url(#p77dbb8f7a7)" style="fill: none; stroke: #ffffff; stroke-width: 0.8; stroke-linecap: square"/>
     </g>
     <g id="line2d_6">
      <g>
       <use xlink:href="#mcd20da001c" x="142.227273" y="320.4" style="fill: #555555; stroke: #555555; stroke-width: 0.8"/>
      </g>
     </g>
     <g id="text_3">
      <!-- 0.5 -->
      <g style="fill: #555555" transform="translate(134.27571 334.998438)scale(0.1 -0.1)">
       <use xlink:href="#DejaVuSans-30"/>
       <use xlink:href="#DejaVuSans-2e" x="63.623047"/>
       <use xlink:href="#DejaVuSans-35" x="95.410156"/>
      </g>
     </g>
    </g>
    <g id="xtick_4">
     <g id="line2d_7">
      <path d="M 184.5 320.4 
L 184.5 43.2 
" clip-path="url(#p77dbb8f7a7)" style="fill: none; stroke: #ffffff; stroke-width: 0.8; stroke-linecap: square"/>
     </g>
     <g id="line2d_8">
      <g>
       <use xlink:href="#mcd20da001c" x="184.5" y="320.4" style="fill: #555555; stroke: #555555; stroke-width: 0.8"/>
      </g>
     </g>
     <g id="text_4">
      <!-- 1.0 -->
      <g style="fill: #555555" transform="translate(176.548438 334.998438)scale(0.1 -0.1)">
       <defs>
        <path id="DejaVuSans-31" d="M 794 531 
L 1825 531 
L 1825 4091 
L 703 3866 
L 703 4441 
L 1819 4666 
L 2450 4666 
L 2450 531 
L 3481 531 
L 3481 0 
L 794 0 
L 794 531 
z
" transform="scale(0.015625)"/>
       </defs>
       <use xlink:href="#DejaVuSans-31"/>
       <use xlink:href="#DejaVuSans-2e" x="63.623047"/>
       <use xlink:href="#DejaVuSans-30" x="95.410156"/>
      </g>
     </g>
    </g>
    <g id="xtick_5">
     <g id="line2d_9">
      <path d="M 226.772727 320.4 
L 226.772727 43.2 
" clip-path="url(#p77dbb8f7a7)" style="fill: none; stroke: #ffffff; stroke-width: 0.8; stroke-linecap: square"/>
     </g>
     <g id="line2d_10">
      <g>
       <use xlink:href="#mcd20da001c" x="226.772727" y="320.4" style="fill: #555555; stroke: #555555; stroke-width: 0.8"/>
      </g>
     </g>
     <g id="text_5">
      <!-- 1.5 -->
      <g style="fill: #555555" transform="translate(218.821165 334.998438)scale(0.1 -0.1)">
       <use xlink:href="#DejaVuSans-31"/>
       <use xlink:href="#DejaVuSans-2e" x="63.623047"/>
       <use xlink:href="#DejaVuSans-35" x="95.410156"/>
      </g>
     </g>
    </g>
    <g id="xtick_6">
     <g id="line2d_11">
      <path d="M 269.045455 320.4 
L 269.045455 43.2 
" clip-path="url(#p77dbb8f7a7)" style="fill: none; stroke: #ffffff; stroke-width: 0.8; stroke-linecap: square"/>
     </g>
     <g id="line2d_12">
      <g>
       <use xlink:href="#mcd20da001c" x="269.045455" y="320.4" style="fill: #555555; stroke: #555555; stroke-width: 0.8"/>
      </g>
     </g>
     <g id="text_6">
      <!-- 2.0 -->
      <g style="fill: #555555" transform="translate(261.093892 334.998438)scale(0.1 -0.1)">
       <defs>
        <path id="DejaVuSans-32" d="M 1228 531 
L 3431 531 
L 3431 0 
L 469 0 
L 469 531 
Q 828 903 1448 1529 
Q 2069 2156 2228 2338 
Q 2531 2678 2651 2914 
Q 2772 3150 2772 3378 
Q 2772 3750 2511 3984 
Q 2250 4219 1831 4219 
Q 1534 4219 1204 4116 
Q 875 4013 500 3803 
L 500 4441 
Q 881 4594 1212 4672 
Q 1544 4750 1819 4750 
Q 2544 4750 2975 4387 
Q 3406 4025 3406 3419 
Q 3406 3131 3298 2873 
Q 3191 2616 2906 2266 
Q 2828 2175 2409 1742 
Q 1991 1309 1228 531 
z
" transform="scale(0.015625)"/>
       </defs>
       <use xlink:href="#DejaVuSans-32"/>
       <use xlink:href="#DejaVuSans-2e" x="63.623047"/>
       <use xlink:href="#DejaVuSans-30" x="95.410156"/>
      </g>
     </g>
    </g>
    <g id="xtick_7">
     <g id="line2d_13">
      <path d="M 311.318182 320.4 
L 311.318182 43.2 
" clip-path="url(#p77dbb8f7a7)" style="fill: none; stroke: #ffffff; stroke-width: 0.8; stroke-linecap: square"/>
     </g>
     <g id="line2d_14">
      <g>
       <use xlink:href="#mcd20da001c" x="311.318182" y="320.4" style="fill: #555555; stroke: #555555; stroke-width: 0.8"/>
      </g>
     </g>
     <g id="text_7">
      <!-- 2.5 -->
      <g style="fill: #555555" transform="translate(303.366619 334.998438)scale(0.1 -0.1)">
       <use xlink:href="#DejaVuSans-32"/>
       <use xlink:href="#DejaVuSans-2e" x="63.623047"/>
       <use xlink:href="#DejaVuSans-35" x="95.410156"/>
      </g>
     </g>
    </g>
   </g>
   <g id="matplotlib.axis_2">
    <g id="ytick_1">
     <g id="line2d_15">
      <path d="M 45 318.693335 
L 324 318.693335 
" clip-path="url(#p77dbb8f7a7)" style="fill: none; stroke: #ffffff; stroke-width: 0.8; stroke-linecap: square"/>
     </g>
     <g id="line2d_16">
      <defs>
       <path id="m2448419f24" d="M 0 0 
L -3.5 0 
" style="stroke: #555555; stroke-width: 0.8"/>
      </defs>
      <g>
       <use xlink:href="#m2448419f24" x="45" y="318.693335" style="fill: #555555; stroke: #555555; stroke-width: 0.8"/>
      </g>
     </g>
     <g id="text_8">
      <!-- $\mathdefault{10^{-4}}$ -->
      <g style="fill: #555555" transform="translate(14.5 322.492554)scale(0.1 -0.1)">
       <defs>
        <path id="DejaVuSans-34" d="M 2419 4116 
L 825 1625 
L 2419 1625 
L 2419 4116 
z
M 2253 4666 
L 3047 4666 
L 3047 1625 
L 3713 1625 
L 3713 1100 
L 3047 1100 
L 3047 0 
L 2419 0 
L 2419 1100 
L 313 1100 
L 313 1709 
L 2253 4666 
z
" transform="scale(0.015625)"/>
       </defs>
       <use xlink:href="#DejaVuSans-31" transform="translate(0 0.684375)"/>
       <use xlink:href="#DejaVuSans-30" transform="translate(63.623047 0.684375)"/>
       <use xlink:href="#DejaVuSans-2212" transform="translate(128.203125 38.965625)scale(0.7)"/>
       <use xlink:href="#DejaVuSans-34" transform="translate(186.855469 38.965625)scale(0.7)"/>
      </g>
     </g>
    </g>
    <g id="ytick_2">
     <g id="line2d_17">
      <path d="M 45 261.056295 
L 324 261.056295 
" clip-path="url(#p77dbb8f7a7)" style="fill: none; stroke: #ffffff; stroke-width: 0.8; stroke-linecap: square"/>
     </g>
     <g id="line2d_18">
      <g>
       <use xlink:href="#m2448419f24" x="45" y="261.056295" style="fill: #555555; stroke: #555555; stroke-width: 0.8"/>
      </g>
     </g>
     <g id="text_9">
      <!-- $\mathdefault{10^{-3}}$ -->
      <g style="fill: #555555" transform="translate(14.5 264.855514)scale(0.1 -0.1)">
       <defs>
        <path id="DejaVuSans-33" d="M 2597 2516 
Q 3050 2419 3304 2112 
Q 3559 1806 3559 1356 
Q 3559 666 3084 287 
Q 2609 -91 1734 -91 
Q 1441 -91 1130 -33 
Q 819 25 488 141 
L 488 750 
Q 750 597 1062 519 
Q 1375 441 1716 441 
Q 2309 441 2620 675 
Q 2931 909 2931 1356 
Q 2931 1769 2642 2001 
Q 2353 2234 1838 2234 
L 1294 2234 
L 1294 2753 
L 1863 2753 
Q 2328 2753 2575 2939 
Q 2822 3125 2822 3475 
Q 2822 3834 2567 4026 
Q 2313 4219 1838 4219 
Q 1578 4219 1281 4162 
Q 984 4106 628 3988 
L 628 4550 
Q 988 4650 1302 4700 
Q 1616 4750 1894 4750 
Q 2613 4750 3031 4423 
Q 3450 4097 3450 3541 
Q 3450 3153 3228 2886 
Q 3006 2619 2597 2516 
z
" transform="scale(0.015625)"/>
       </defs>
       <use xlink:href="#DejaVuSans-31" transform="translate(0 0.765625)"/>
       <use xlink:href="#DejaVuSans-30" transform="translate(63.623047 0.765625)"/>
       <use xlink:href="#DejaVuSans-2212" transform="translate(128.203125 39.046875)scale(0.7)"/>
       <use xlink:href="#DejaVuSans-33" transform="translate(186.855469 39.046875)scale(0.7)"/>
      </g>
     </g>
    </g>
    <g id="ytick_3">
     <g id="line2d_19">
      <path d="M 45 203.419255 
L 324 203.419255 
" clip-path="url(#p77dbb8f7a7)" style="fill: none; stroke: #ffffff; stroke-width: 0.8; stroke-linecap: square"/>
     </g>
     <g id="line2d_20">
      <g>
       <use xlink:href="#m2448419f24" x="45" y="203.419255" style="fill: #555555; stroke: #555555; stroke-width: 0.8"/>
      </g>
     </g>
     <g id="text_10">
      <!-- $\mathdefault{10^{-2}}$ -->
      <g style="fill: #555555" transform="translate(14.5 207.218474)scale(0.1 -0.1)">
       <use xlink:href="#DejaVuSans-31" transform="translate(0 0.765625)"/>
       <use xlink:href="#DejaVuSans-30" transform="translate(63.623047 0.765625)"/>
       <use xlink:href="#DejaVuSans-2212" transform="translate(128.203125 39.046875)scale(0.7)"/>
       <use xlink:href="#DejaVuSans-32" transform="translate(186.855469 39.046875)scale(0.7)"/>
      </g>
     </g>
    </g>
    <g id="ytick_4">
     <g id="line2d_21">
      <path d="M 45 145.782215 
L 324 145.782215 
" clip-path="url(#p77dbb8f7a7)" style="fill: none; stroke: #ffffff; stroke-width: 0.8; stroke-linecap: square"/>
     </g>
     <g id="line2d_22">
      <g>
       <use xlink:href="#m2448419f24" x="45" y="145.782215" style="fill: #555555; stroke: #555555; stroke-width: 0.8"/>
      </g>
     </g>
     <g id="text_11">
      <!-- $\mathdefault{10^{-1}}$ -->
      <g style="fill: #555555" transform="translate(14.5 149.581434)scale(0.1 -0.1)">
       <use xlink:href="#DejaVuSans-31" transform="translate(0 0.684375)"/>
       <use xlink:href="#DejaVuSans-30" transform="translate(63.623047 0.684375)"/>
       <use xlink:href="#DejaVuSans-2212" transform="translate(128.203125 38.965625)scale(0.7)"/>
       <use xlink:href="#DejaVuSans-31" transform="translate(186.855469 38.965625)scale(0.7)"/>
      </g>
     </g>
    </g>
    <g id="ytick_5">
     <g id="line2d_23">
      <path d="M 45 88.145175 
L 324 88.145175 
" clip-path="url(#p77dbb8f7a7)" style="fill: none; stroke: #ffffff; stroke-width: 0.8; stroke-linecap: square"/>
     </g>
     <g id="line2d_24">
      <g>
       <use xlink:href="#m2448419f24" x="45" y="88.145175" style="fill: #555555; stroke: #555555; stroke-width: 0.8"/>
      </g>
     </g>
     <g id="text_12">
      <!-- $\mathdefault{10^{0}}$ -->
      <g style="fill: #555555" transform="translate(20.4 91.944394)scale(0.1 -0.1)">
       <use xlink:href="#DejaVuSans-31" transform="translate(0 0.765625)"/>
       <use xlink:href="#DejaVuSans-30" transform="translate(63.623047 0.765625)"/>
       <use xlink:href="#DejaVuSans-30" transform="translate(128.203125 39.046875)scale(0.7)"/>
      </g>
     </g>
    </g>
    <g id="ytick_6">
     <g id="line2d_25">
      <defs>
       <path id="m7e0d4317a3" d="M 0 0 
L -2 0 
" style="stroke: #555555; stroke-width: 0.6"/>
      </defs>
      <g>
       <use xlink:href="#m7e0d4317a3" x="45" y="301.342857" style="fill: #555555; stroke: #555555; stroke-width: 0.6"/>
      </g>
     </g>
    </g>
    <g id="ytick_7">
     <g id="line2d_26">
      <g>
       <use xlink:href="#m7e0d4317a3" x="45" y="291.193479" style="fill: #555555; stroke: #555555; stroke-width: 0.6"/>
      </g>
     </g>
    </g>
    <g id="ytick_8">
     <g id="line2d_27">
      <g>
       <use xlink:href="#m7e0d4317a3" x="45" y="283.99238" style="fill: #555555; stroke: #555555; stroke-width: 0.6"/>
      </g>
     </g>
    </g>
    <g id="ytick_9">
     <g id="line2d_28">
      <g>
       <use xlink:href="#m7e0d4317a3" x="45" y="278.406773" style="fill: #555555; stroke: #555555; stroke-width: 0.6"/>
      </g>
     </g>
    </g>
    <g id="ytick_10">
     <g id="line2d_29">
      <g>
       <use xlink:href="#m7e0d4317a3" x="45" y="273.843001" style="fill: #555555; stroke: #555555; stroke-width: 0.6"/>
      </g>
     </g>
    </g>
    <g id="ytick_11">
     <g id="line2d_30">
      <g>
       <use xlink:href="#m7e0d4317a3" x="45" y="269.984386" style="fill: #555555; stroke: #555555; stroke-width: 0.6"/>
      </g>
     </g>
    </g>
    <g id="ytick_12">
     <g id="line2d_31">
      <g>
       <use xlink:href="#m7e0d4317a3" x="45" y="266.641902" style="fill: #555555; stroke: #555555; stroke-width: 0.6"/>
      </g>
     </g>
    </g>
    <g id="ytick_13">
     <g id="line2d_32">
      <g>
       <use xlink:href="#m7e0d4317a3" x="45" y="263.693622" style="fill: #555555; stroke: #555555; stroke-width: 0.6"/>
      </g>
     </g>
    </g>
    <g id="ytick_14">
     <g id="line2d_33">
      <g>
       <use xlink:href="#m7e0d4317a3" x="45" y="243.705817" style="fill: #555555; stroke: #555555; stroke-width: 0.6"/>
      </g>
     </g>
    </g>
    <g id="ytick_15">
     <g id="line2d_34">
      <g>
       <use xlink:href="#m7e0d4317a3" x="45" y="233.556438" style="fill: #555555; stroke: #555555; stroke-width: 0.6"/>
      </g>
     </g>
    </g>
    <g id="ytick_16">
     <g id="line2d_35">
      <g>
       <use xlink:href="#m7e0d4317a3" x="45" y="226.355339" style="fill: #555555; stroke: #555555; stroke-width: 0.6"/>
      </g>
     </g>
    </g>
    <g id="ytick_17">
     <g id="line2d_36">
      <g>
       <use xlink:href="#m7e0d4317a3" x="45" y="220.769733" style="fill: #555555; stroke: #555555; stroke-width: 0.6"/>
      </g>
     </g>
    </g>
    <g id="ytick_18">
     <g id="line2d_37">
      <g>
       <use xlink:href="#m7e0d4317a3" x="45" y="216.20596" style="fill: #555555; stroke: #555555; stroke-width: 0.6"/>
      </g>
     </g>
    </g>
    <g id="ytick_19">
     <g id="line2d_38">
      <g>
       <use xlink:href="#m7e0d4317a3" x="45" y="212.347346" style="fill: #555555; stroke: #555555; stroke-width: 0.6"/>
      </g>
     </g>
    </g>
    <g id="ytick_20">
     <g id="line2d_39">
      <g>
       <use xlink:href="#m7e0d4317a3" x="45" y="209.004862" style="fill: #555555; stroke: #555555; stroke-width: 0.6"/>
      </g>
     </g>
    </g>
    <g id="ytick_21">
     <g id="line2d_40">
      <g>
       <use xlink:href="#m7e0d4317a3" x="45" y="206.056582" style="fill: #555555; stroke: #555555; stroke-width: 0.6"/>
      </g>
     </g>
    </g>
    <g id="ytick_22">
     <g id="line2d_41">
      <g>
       <use xlink:href="#m7e0d4317a3" x="45" y="186.068777" style="fill: #555555; stroke: #555555; stroke-width: 0.6"/>
      </g>
     </g>
    </g>
    <g id="ytick_23">
     <g id="line2d_42">
      <g>
       <use xlink:href="#m7e0d4317a3" x="45" y="175.919398" style="fill: #555555; stroke: #555555; stroke-width: 0.6"/>
      </g>
     </g>
    </g>
    <g id="ytick_24">
     <g id="line2d_43">
      <g>
       <use xlink:href="#m7e0d4317a3" x="45" y="168.718299" style="fill: #555555; stroke: #555555; stroke-width: 0.6"/>
      </g>
     </g>
    </g>
    <g id="ytick_25">
     <g id="line2d_44">
      <g>
       <use xlink:href="#m7e0d4317a3" x="45" y="163.132693" style="fill: #555555; stroke: #555555; stroke-width: 0.6"/>
      </g>
     </g>
    </g>
    <g id="ytick_26">
     <g id="line2d_45">
      <g>
       <use xlink:href="#m7e0d4317a3" x="45" y="158.56892" style="fill: #555555; stroke: #555555; stroke-width: 0.6"/>
      </g>
     </g>
    </g>
    <g id="ytick_27">
     <g id="line2d_46">
      <g>
       <use xlink:href="#m7e0d4317a3" x="45" y="154.710306" style="fill: #555555; stroke: #555555; stroke-width: 0.6"/>
      </g>
     </g>
    </g>
    <g id="ytick_28">
     <g id="line2d_47">
      <g>
       <use xlink:href="#m7e0d4317a3" x="45" y="151.367821" style="fill: #555555; stroke: #555555; stroke-width: 0.6"/>
      </g>
     </g>
    </g>
    <g id="ytick_29">
     <g id="line2d_48">
      <g>
       <use xlink:href="#m7e0d4317a3" x="45" y="148.419541" style="fill: #555555; stroke: #555555; stroke-width: 0.6"/>
      </g>
     </g>
    </g>
    <g id="ytick_30">
     <g id="line2d_49">
      <g>
       <use xlink:href="#m7e0d4317a3" x="45" y="128.431737" style="fill: #555555; stroke: #555555; stroke-width: 0.6"/>
      </g>
     </g>
    </g>
    <g id="ytick_31">
     <g id="line2d_50">
      <g>
       <use xlink:href="#m7e0d4317a3" x="45" y="118.282358" style="fill: #555555; stroke: #555555; stroke-width: 0.6"/>
      </g>
     </g>
    </g>
    <g id="ytick_32">
     <g id="line2d_51">
      <g>
       <use xlink:href="#m7e0d4317a3" x="45" y="111.081259" style="fill: #555555; stroke: #555555; stroke-width: 0.6"/>
      </g>
     </g>
    </g>
    <g id="ytick_33">
     <g id="line2d_52">
      <g>
       <use xlink:href="#m7e0d4317a3" x="45" y="105.495653" style="fill: #555555; stroke: #555555; stroke-width: 0.6"/>
      </g>
     </g>
    </g>
    <g id="ytick_34">
     <g id="line2d_53">
      <g>
       <use xlink:href="#m7e0d4317a3" x="45" y="100.93188" style="fill: #555555; stroke: #555555; stroke-width: 0.6"/>
      </g>
     </g>
    </g>
    <g id="ytick_35">
     <g id="line2d_54">
      <g>
       <use xlink:href="#m7e0d4317a3" x="45" y="97.073265" style="fill: #555555; stroke: #555555; stroke-width: 0.6"/>
      </g>
     </g>
    </g>
    <g id="ytick_36">
     <g id="line2d_55">
      <g>
       <use xlink:href="#m7e0d4317a3" x="45" y="93.730781" style="fill: #555555; stroke: #555555; stroke-width: 0.6"/>
      </g>
     </g>
    </g>
    <g id="ytick_37">
     <g id="line2d_56">
      <g>
       <use xlink:href="#m7e0d4317a3" x="45" y="90.782501" style="fill: #555555; stroke: #555555; stroke-width: 0.6"/>
      </g>
     </g>
    </g>
    <g id="ytick_38">
     <g id="line2d_57">
      <g>
       <use xlink:href="#m7e0d4317a3" x="45" y="70.794697" style="fill: #555555; stroke: #555555; stroke-width: 0.6"/>
      </g>
     </g>
    </g>
    <g id="ytick_39">
     <g id="line2d_58">
      <g>
       <use xlink:href="#m7e0d4317a3" x="45" y="60.645318" style="fill: #555555; stroke: #555555; stroke-width: 0.6"/>
      </g>
     </g>
    </g>
    <g id="ytick_40">
     <g id="line2d_59">
      <g>
       <use xlink:href="#m7e0d4317a3" x="45" y="53.444219" style="fill: #555555; stroke: #555555; stroke-width: 0.6"/>
      </g>
     </g>
    </g>
    <g id="ytick_41">
     <g id="line2d_60">
      <g>
       <use xlink:href="#m7e0d4317a3" x="45" y="47.858613" style="fill: #555555; stroke: #555555; stroke-width: 0.6"/>
      </g>
     </g>
    </g>
    <g id="ytick_42">
     <g id="line2d_61">
      <g>
       <use xlink:href="#m7e0d4317a3" x="45" y="43.29484" style="fill: #555555; stroke: #555555; stroke-width: 0.6"/>
      </g>
     </g>
    </g>
   </g>
   <g id="line2d_62">
    <path d="M 99.954545 104.521492 
L 101.662534 109.498195 
L 103.370523 117.742601 
L 105.078513 118.828213 
L 106.786501 121.126232 
L 108.49449 144.078044 
L 110.20248 136.976213 
L 111.910468 134.619199 
L 113.618457 174.925116 
L 115.326447 103.983012 
L 117.034435 136.409329 
L 118.742424 174.587302 
L 120.450414 138.978979 
L 122.158402 129.051776 
L 123.86639 130.278754 
L 125.574381 104.186537 
L 127.282369 95.688935 
L 128.990357 109.950987 
L 130.698348 111.590391 
L 132.406336 100.020307 
L 134.114324 109.422771 
L 135.822315 92.477715 
L 137.530303 92.703041 
L 139.238292 86.711344 
L 140.946282 87.417166 
L 142.654273 86.100161 
L 144.362259 88.112692 
L 146.070249 83.568401 
L 147.77824 89.61864 
L 149.486226 86.830823 
L 151.194216 86.865207 
L 152.902207 80.956048 
L 154.610193 89.631188 
L 156.318183 85.665075 
L 158.026169 81.707784 
L 159.73416 74.26205 
L 161.442151 77.635991 
L 163.150136 79.134307 
L 164.858127 75.767293 
L 166.566113 78.266405 
L 168.274103 79.949142 
L 169.982094 71.327007 
L 171.69008 75.726028 
L 173.39807 74.034369 
L 175.106061 75.141641 
L 176.814047 66.038862 
L 178.522038 73.373694 
L 180.230028 70.670872 
L 181.938019 71.044004 
L 183.64601 69.744047 
L 185.354 67.446278 
L 187.061981 65.941815 
L 188.769972 67.560317 
L 190.477962 63.646293 
L 192.185953 67.211678 
L 193.893944 66.55036 
L 195.601925 67.508535 
L 197.309915 64.120998 
L 199.017906 63.922135 
L 200.725887 62.208189 
L 202.433877 63.279672 
L 204.141868 59.638152 
L 205.849859 64.719351 
L 207.557849 59.883995 
L 209.26584 59.566847 
L 210.973831 60.323372 
L 212.681822 58.010873 
L 214.389812 60.537638 
L 216.097793 60.69813 
L 217.805784 61.511948 
L 219.513774 62.947657 
L 221.221765 58.954924 
L 222.929756 61.296749 
L 224.637746 60.13252 
L 226.345737 60.938184 
L 228.053718 60.380811 
L 229.761708 60.225637 
L 231.469699 62.437912 
L 233.17769 65.601492 
L 234.885681 63.009775 
L 236.593661 61.883879 
L 238.301652 62.784448 
L 240.009643 65.023571 
L 241.717623 63.940615 
L 243.425614 62.09711 
L 245.133605 62.636425 
L 246.841595 62.249328 
L 248.549586 65.69435 
L 250.257577 66.832678 
L 251.965568 64.957042 
L 253.673558 66.497607 
L 255.381549 68.558961 
L 257.08953 68.098996 
L 258.79752 66.867928 
L 260.505511 70.921213 
L 262.213502 73.032444 
L 263.921492 76.597333 
L 265.629473 74.920087 
L 267.337464 76.015476 
L 269.045455 77.126254 
" clip-path="url(#p77dbb8f7a7)" style="fill: none; stroke: #e24a33; stroke-width: 1.5; stroke-linecap: square"/>
   </g>
   <g id="line2d_63">
    <path d="M 57.681818 78.5292 
L 58.189598 83.409218 
L 58.443488 80.203666 
L 58.697379 78.744238 
L 58.951269 85.974373 
L 59.205159 79.433668 
L 59.459049 85.092714 
L 59.712939 79.772677 
L 59.966829 82.990244 
L 60.220719 81.823277 
L 60.474609 83.407675 
L 60.728499 88.288274 
L 60.98239 83.720378 
L 61.23628 88.648505 
L 61.49017 89.16667 
L 61.744062 87.781719 
L 61.997952 80.587542 
L 62.251843 84.865277 
L 62.505733 85.576618 
L 62.759623 90.65443 
L 63.013513 89.462158 
L 63.267403 89.174521 
L 63.521293 85.916557 
L 63.775186 92.546163 
L 64.029076 85.645026 
L 64.282966 95.486806 
L 64.536856 88.262299 
L 65.044636 92.848634 
L 65.298526 103.730022 
L 65.806307 92.273416 
L 66.314087 100.158661 
L 66.821867 89.548368 
L 67.075757 99.185465 
L 67.329647 122.760469 
L 67.583537 93.875698 
L 67.837427 130.206031 
L 68.091317 101.547583 
L 68.345208 110.06615 
L 68.599098 93.576366 
L 68.852988 102.295562 
L 69.106878 103.087487 
L 69.360768 110.612145 
L 69.614658 99.710629 
L 69.868551 99.478677 
L 70.122441 109.866225 
L 70.376331 101.407219 
L 70.630221 116.451121 
L 70.884111 96.293487 
L 71.138001 107.822257 
L 71.391891 100.113874 
L 71.645781 96.453232 
L 71.899674 132.061306 
L 72.153564 100.021045 
L 72.407454 100.328694 
L 72.661344 92.107725 
L 72.915234 99.575991 
L 73.169125 118.439809 
L 73.423015 116.896415 
L 73.676905 108.352565 
L 73.930795 127.520734 
L 74.184685 156.542072 
L 74.692465 122.059488 
L 74.946355 105.716723 
L 75.200245 98.970729 
L 75.454135 167.477347 
L 75.961916 104.649157 
L 76.215806 129.477225 
L 76.469696 109.02149 
L 76.723586 109.504038 
L 76.977476 174.472594 
L 77.485256 114.441564 
L 77.739146 112.309439 
L 77.993039 229.142187 
L 78.246929 118.156719 
L 78.500819 116.901488 
L 78.754709 106.337001 
L 79.008599 132.141825 
L 79.262491 143.166198 
L 79.516381 112.586827 
L 79.770271 136.877372 
L 80.024162 127.358832 
L 80.278052 112.524625 
L 80.531943 110.016252 
L 80.785833 123.828071 
L 81.039723 129.295681 
L 81.293614 187.914911 
L 81.547504 119.728158 
L 82.055283 136.907022 
L 82.309173 129.347247 
L 82.563063 155.405939 
L 82.816953 112.846167 
L 83.070844 114.79507 
L 83.324735 131.750419 
L 83.578625 118.459633 
L 83.832515 214.460236 
L 84.086404 141.163926 
L 84.340294 164.213819 
L 84.594184 122.539868 
L 84.848074 112.496654 
L 85.101964 169.714294 
L 85.355856 137.817475 
L 85.609746 129.262043 
L 86.117527 145.061557 
L 86.371417 182.645654 
L 86.879198 111.486904 
L 87.386979 178.425609 
L 87.640869 118.906603 
L 87.894759 167.558303 
L 88.402541 189.08189 
L 88.656431 268.44211 
L 88.910321 168.948438 
L 89.164211 113.600635 
L 89.418102 111.123368 
L 89.671993 136.43313 
L 89.925883 126.755623 
L 90.179771 124.150046 
L 90.433662 153.936432 
L 90.941442 126.206165 
L 91.195333 166.818415 
L 91.449223 139.394264 
L 91.703113 150.423361 
L 91.957003 144.962634 
L 92.210892 190.281291 
L 92.464782 187.405166 
L 92.718672 226.277844 
L 93.226453 119.50075 
L 93.480343 129.56083 
L 93.734234 119.093208 
L 93.988124 126.432575 
L 94.242016 110.519401 
L 94.495906 176.605816 
L 94.749796 136.840959 
L 95.257577 204.631398 
L 95.511467 123.108251 
L 95.765357 150.556335 
L 96.019248 118.216913 
L 96.527029 150.710101 
L 96.780919 104.105673 
L 97.03481 139.032648 
L 97.2887 109.948584 
L 97.54259 104.849366 
L 97.796481 131.849573 
L 98.050371 188.13723 
L 98.30426 133.220764 
L 98.55815 119.034336 
L 99.065931 138.858928 
L 99.319821 177.146459 
L 99.573711 121.611748 
L 99.827601 114.266227 
L 100.081492 129.78542 
L 100.335381 157.19423 
L 100.589271 149.944478 
L 100.843161 147.581094 
L 101.350942 123.528647 
L 101.604832 150.186353 
L 101.858722 154.80509 
L 102.112612 307.8 
L 102.366506 127.284309 
L 102.620397 132.178855 
L 102.874287 119.222436 
L 103.128177 134.813585 
L 103.382068 168.508234 
L 103.635958 163.11029 
L 103.889848 128.536131 
L 104.143738 121.374848 
L 104.397627 135.916433 
L 104.651517 141.074038 
L 104.905408 139.476352 
L 105.159298 228.115679 
L 105.413188 155.249878 
L 105.667078 123.396853 
L 105.920969 171.247003 
L 106.174859 121.083396 
L 106.428748 167.710616 
L 106.682638 141.558218 
L 106.936528 101.33007 
L 107.190419 112.042711 
L 107.444309 150.428371 
L 107.698199 112.965733 
L 107.95209 122.869522 
L 108.20598 143.652896 
L 108.459869 120.826437 
L 108.713759 139.797769 
L 108.967649 139.759532 
L 109.22154 117.622806 
L 109.47543 163.947955 
L 109.72932 151.373789 
L 109.983211 105.5532 
L 110.237101 112.09001 
L 110.49099 215.497059 
L 110.99877 147.138273 
L 111.25266 152.956662 
L 111.50655 131.163063 
L 111.760442 146.400869 
L 112.014332 139.876989 
L 112.268222 116.011663 
L 112.522116 200.865342 
L 112.776006 186.611664 
L 113.029896 130.127966 
L 113.283786 163.332952 
L 113.537676 179.904681 
L 113.791567 122.524847 
L 114.045457 116.441708 
L 114.299348 170.8099 
L 114.553236 156.624105 
L 114.807127 130.152147 
L 115.061017 137.633219 
L 115.314907 178.453996 
L 115.568797 174.115873 
L 115.822688 230.396093 
L 116.076578 103.330167 
L 116.330468 132.524586 
L 116.584357 132.1211 
L 117.092137 140.586145 
L 117.346028 154.641767 
L 117.599918 158.091077 
L 117.853809 137.652449 
L 118.107699 181.013436 
L 118.361589 177.007253 
L 118.615483 165.438787 
L 118.869373 136.355287 
L 119.123263 150.634969 
L 119.377153 109.242353 
L 119.884935 146.6526 
L 120.138825 143.720269 
L 120.392715 143.242657 
L 120.646604 118.524427 
L 120.900494 151.938573 
L 121.154384 201.038061 
L 121.408274 108.102395 
L 121.662164 142.451152 
L 121.916054 152.598743 
L 122.169945 154.038526 
L 122.423835 137.127876 
L 122.677725 132.579727 
L 122.931615 124.464163 
L 123.185505 154.462603 
L 123.439395 122.4248 
L 123.693285 136.635904 
L 123.947175 107.636238 
L 124.201065 104.00257 
L 124.708846 177.45752 
L 124.962736 116.420695 
L 125.216626 158.412282 
L 125.724406 134.200637 
L 125.978296 151.173157 
L 126.232186 112.25254 
L 126.486076 123.532963 
L 126.739966 106.01536 
L 126.993856 194.590056 
L 127.247747 148.921832 
L 127.501637 129.062402 
L 127.755527 180.748714 
L 128.009417 111.006982 
L 128.263307 163.106469 
L 128.517197 145.26108 
L 128.771092 108.38354 
L 129.278872 145.768712 
L 129.532763 109.080051 
L 129.786653 102.104609 
L 130.040543 282.768358 
L 130.294433 126.455475 
L 130.548323 120.337103 
L 130.802213 105.709012 
L 131.056103 119.843891 
L 131.309993 114.561994 
L 131.817773 119.188581 
L 132.071664 125.916503 
L 132.325554 108.702365 
L 132.579444 109.0972 
L 132.833334 115.677499 
L 133.087224 117.186458 
L 133.341114 115.332429 
L 133.595004 103.614168 
L 133.848894 103.788294 
L 134.102784 138.899618 
L 134.356675 102.277503 
L 134.610565 102.435455 
L 134.86446 116.067205 
L 135.11835 117.638805 
L 135.37224 109.383016 
L 135.62613 142.070778 
L 135.88002 117.15857 
L 136.13391 105.096163 
L 136.3878 99.536237 
L 136.64169 105.554222 
L 136.895581 97.371913 
L 137.149471 113.204268 
L 137.403361 111.219103 
L 137.911141 90.09385 
L 138.165031 121.329152 
L 138.418921 98.674757 
L 138.672811 105.926735 
L 138.926701 96.382148 
L 139.180591 103.173372 
L 139.434482 97.065316 
L 139.688372 94.253644 
L 139.942262 96.114082 
L 140.196152 91.183528 
L 140.450042 112.641969 
L 140.703932 87.437424 
L 140.957822 101.079451 
L 141.211712 91.817553 
L 141.465602 94.16138 
L 141.719493 105.820503 
L 141.973383 103.803549 
L 142.227273 89.95911 
L 142.481163 96.217516 
L 142.735053 97.223709 
L 143.242833 105.564552 
L 143.496723 101.981374 
L 143.750613 91.404548 
L 144.004503 98.985581 
L 144.258394 95.421956 
L 144.512284 89.070632 
L 144.766174 94.762051 
L 145.020064 94.606715 
L 145.273954 101.717349 
L 145.527844 104.38813 
L 145.781734 88.114019 
L 146.035624 100.218077 
L 146.289514 81.350342 
L 146.543404 89.611595 
L 146.797295 89.314473 
L 147.051195 91.866118 
L 147.305085 86.269759 
L 147.558975 101.499339 
L 147.812865 101.945848 
L 148.066755 91.196337 
L 148.320645 93.660603 
L 148.574535 90.126717 
L 148.828425 101.332782 
L 149.082316 78.500764 
L 149.336206 81.515165 
L 149.590096 80.976038 
L 149.843986 96.590242 
L 150.097876 103.988214 
L 150.351766 84.644107 
L 150.605656 85.835221 
L 150.859546 92.751392 
L 151.113436 91.440544 
L 151.367326 91.803617 
L 151.621217 98.252553 
L 151.875107 93.748322 
L 152.128997 93.052636 
L 152.382887 76.414685 
L 152.636777 92.616535 
L 152.890667 88.830822 
L 153.144557 89.04748 
L 153.652337 84.644179 
L 153.906228 86.354449 
L 154.160118 99.697129 
L 154.667898 81.146336 
L 154.921788 79.51707 
L 155.175678 88.630485 
L 155.429568 87.857814 
L 155.683458 90.943598 
L 155.937348 77.119614 
L 156.191238 89.833712 
L 156.445129 79.410564 
L 156.699019 82.909637 
L 156.952909 81.109355 
L 157.206799 80.944672 
L 157.460689 81.512352 
L 157.714579 84.413813 
L 157.968469 80.783836 
L 158.222359 90.813273 
L 158.476249 78.380144 
L 158.730139 80.357034 
L 158.98403 80.617821 
L 159.23792 76.548242 
L 159.7457 84.389944 
L 159.99959 85.17093 
L 160.25348 84.473336 
L 160.50737 87.942444 
L 161.01515 80.926403 
L 161.26904 87.951249 
L 161.522931 79.82273 
L 161.776821 88.08107 
L 162.030711 82.220715 
L 162.284601 82.156725 
L 162.538491 82.49735 
L 162.792381 82.390723 
L 163.046271 73.420262 
L 163.300161 77.739369 
L 163.554051 90.09259 
L 163.807942 84.150884 
L 164.061832 81.963288 
L 164.315722 77.458445 
L 164.569612 82.322699 
L 165.077392 72.799161 
L 165.585182 75.522551 
L 165.839072 73.605109 
L 166.092963 79.161338 
L 166.346853 77.109098 
L 166.854633 78.526039 
L 167.108523 81.364671 
L 167.362413 78.366274 
L 167.616303 78.766471 
L 167.870193 76.558919 
L 168.124083 71.291753 
L 168.377973 74.207554 
L 168.631864 71.136715 
L 168.885754 78.584086 
L 169.139644 73.73315 
L 169.393534 82.226874 
L 169.647424 76.250158 
L 169.901314 77.908568 
L 170.155204 74.808738 
L 170.409094 77.00579 
L 170.662984 75.204355 
L 170.916874 74.76943 
L 171.170765 73.435113 
L 171.424655 73.446764 
L 171.678545 74.546048 
L 171.932435 72.89195 
L 172.186325 74.88838 
L 172.694105 73.243202 
L 172.947995 73.230863 
L 173.201885 73.087589 
L 173.455775 71.516728 
L 173.709666 74.489484 
L 173.963556 73.141441 
L 174.217446 70.953934 
L 174.725226 73.034912 
L 174.979116 70.443553 
L 175.233006 71.718572 
L 175.486896 77.089085 
L 175.740786 72.47015 
L 175.994677 72.823616 
L 176.248567 66.45308 
L 176.502457 69.022453 
L 176.756347 75.193353 
L 177.264127 68.818123 
L 177.518017 71.730825 
L 177.771907 71.459254 
L 178.025797 73.899404 
L 178.279687 73.068607 
L 178.533578 68.337946 
L 178.787468 70.68123 
L 179.041358 68.614544 
L 179.295248 68.446746 
L 179.549148 72.317567 
L 179.803038 69.153771 
L 180.056928 67.922942 
L 180.310818 72.49512 
L 180.818599 65.753514 
L 181.072489 69.122904 
L 181.326379 68.645385 
L 181.580269 67.685105 
L 181.834159 68.660322 
L 182.088049 65.118509 
L 182.595829 69.890097 
L 182.849719 69.035237 
L 183.103609 69.000213 
L 183.3575 66.6176 
L 183.61139 69.326548 
L 183.86528 74.077919 
L 184.11917 65.35466 
L 184.37306 67.515492 
L 184.62695 70.973944 
L 184.88084 67.440912 
L 185.13473 69.630787 
L 185.38862 69.480151 
L 185.6425 66.595235 
L 185.896391 66.636329 
L 186.404171 64.8034 
L 186.658061 66.969933 
L 186.911951 66.162981 
L 187.165841 66.241333 
L 187.419731 73.448733 
L 187.673621 66.48393 
L 187.927511 66.543551 
L 188.181401 65.439913 
L 188.689182 69.158663 
L 188.943072 62.301427 
L 189.196962 64.490697 
L 189.450852 65.50137 
L 189.704752 65.993827 
L 189.958642 63.180026 
L 190.212532 65.442829 
L 190.466422 64.814168 
L 190.720313 67.702578 
L 190.974203 64.824955 
L 191.228093 66.348328 
L 191.481983 67.116488 
L 191.735873 65.174726 
L 191.989763 66.930223 
L 192.243653 67.779217 
L 192.497543 63.683596 
L 192.751433 67.068702 
L 193.005323 64.692781 
L 193.259214 68.997188 
L 193.513104 63.751696 
L 193.766994 64.953914 
L 194.020884 65.042003 
L 194.274774 66.425128 
L 194.528664 65.869435 
L 194.782554 63.486734 
L 195.290334 62.417358 
L 195.544225 65.071219 
L 195.798115 64.058335 
L 196.052005 62.140049 
L 196.305895 64.313889 
L 196.559785 64.595641 
L 196.813675 61.212776 
L 197.067565 63.815281 
L 197.321455 61.925922 
L 197.575345 62.137393 
L 197.829235 64.680165 
L 198.083126 62.089039 
L 198.337016 63.445006 
L 198.590906 66.821628 
L 198.844796 63.464317 
L 199.098686 65.729179 
L 199.352576 61.173697 
L 199.606466 64.730904 
L 199.860356 64.177004 
L 200.114246 61.405626 
L 200.622027 64.070278 
L 200.875917 59.607736 
L 201.129807 63.670495 
L 201.383697 63.517427 
L 201.637587 60.268792 
L 201.891477 61.235861 
L 202.145367 63.147973 
L 202.399257 62.378776 
L 202.653147 61.016063 
L 202.907037 62.113515 
L 203.160928 60.328758 
L 203.414818 63.42932 
L 203.922598 61.521683 
L 204.176488 62.784027 
L 204.430378 62.349391 
L 204.684268 59.536041 
L 204.938158 64.908316 
L 205.192048 58.958834 
L 205.699829 64.493646 
L 205.953729 64.182024 
L 206.207619 57.03496 
L 206.461509 59.543551 
L 206.715399 60.296461 
L 206.969289 64.507663 
L 207.223179 59.567054 
L 207.73096 65.541217 
L 208.23874 59.223438 
L 208.49263 62.284024 
L 208.74652 63.164315 
L 209.00041 63.539395 
L 209.2543 61.293452 
L 209.50819 63.142622 
L 209.76208 58.366837 
L 210.01597 61.806572 
L 210.523751 59.483015 
L 210.777641 59.013599 
L 211.031531 58.987855 
L 211.285421 61.146989 
L 211.539311 65.202912 
L 211.793201 63.365614 
L 212.047091 59.609507 
L 212.300981 60.417043 
L 212.554871 60.538765 
L 212.808762 60.229368 
L 213.062652 60.578347 
L 213.316542 59.941476 
L 213.570432 60.59467 
L 214.078212 60.100317 
L 214.332102 63.198611 
L 214.585992 63.231446 
L 214.839882 60.953552 
L 215.347663 59.626095 
L 215.601553 63.911568 
L 215.855443 60.639521 
L 216.363223 59.031476 
L 216.617113 61.781521 
L 216.871003 62.863372 
L 217.124893 60.606523 
L 217.378783 61.69022 
L 217.632674 57.40117 
L 217.886564 60.000716 
L 218.140454 57.526538 
L 218.394344 61.933144 
L 218.648234 62.358173 
L 218.902124 64.31579 
L 219.156014 59.227963 
L 219.663794 61.024287 
L 219.917684 59.259276 
L 220.171575 58.27796 
L 220.679355 60.756078 
L 220.933245 55.824565 
L 221.187135 59.551419 
L 221.441025 58.528674 
L 221.694915 60.630073 
L 221.948805 60.360989 
L 222.202705 59.927854 
L 222.456596 62.788821 
L 222.964376 59.093685 
L 223.218266 58.919378 
L 223.726046 61.479953 
L 223.979936 60.963251 
L 224.233826 60.988264 
L 224.487716 60.402689 
L 224.741606 61.169331 
L 225.249387 59.887525 
L 225.503277 58.016421 
L 226.011057 61.270295 
L 226.264947 60.425984 
L 226.518837 58.744486 
L 226.772727 61.242278 
L 227.026617 61.558331 
L 227.280507 59.039547 
L 227.534398 59.918924 
L 227.788288 62.111782 
L 228.042178 61.195986 
L 228.296068 59.780954 
L 228.549958 64.334493 
L 228.803848 59.331313 
L 229.057738 57.088149 
L 229.311628 62.317645 
L 229.819409 57.325846 
L 230.073299 59.932494 
L 230.581079 57.855776 
L 231.088859 60.316268 
L 231.342749 58.542144 
L 231.596639 60.761813 
L 231.850529 59.1487 
L 232.104419 60.608474 
L 232.35831 61.175833 
L 232.86609 59.87523 
L 233.11998 62.351842 
L 233.37387 59.584626 
L 233.62776 59.536018 
L 233.88165 61.153072 
L 234.13554 58.971073 
L 234.38943 61.490898 
L 234.64332 61.138154 
L 234.897211 62.595889 
L 235.151101 58.678497 
L 235.404991 64.524706 
L 235.658881 61.262047 
L 235.912771 59.564452 
L 236.166661 62.328128 
L 236.420551 60.52717 
L 236.674441 62.326414 
L 236.928331 60.222664 
L 237.182221 61.916798 
L 237.436112 59.249224 
L 237.690002 60.370732 
L 237.943892 58.853174 
L 238.197782 60.772848 
L 238.451672 63.731828 
L 238.705562 57.457233 
L 238.959452 62.004663 
L 239.213342 60.714779 
L 239.467232 60.350907 
L 239.721123 59.023885 
L 239.975013 58.807 
L 240.228903 62.275103 
L 240.482793 61.709864 
L 240.736683 61.945419 
L 240.990573 63.393351 
L 241.498353 61.521532 
L 241.752243 61.082802 
L 242.006133 61.797032 
L 242.260024 61.609423 
L 242.767814 59.850173 
L 243.021704 62.640576 
L 243.275594 60.968196 
L 243.529484 64.318753 
L 243.783374 61.819735 
L 244.037264 62.696677 
L 244.291154 61.355474 
L 244.545045 62.275754 
L 244.798935 60.288494 
L 245.052825 60.802152 
L 245.306715 62.34159 
L 245.560605 62.45912 
L 245.814495 59.95563 
L 246.068385 58.95412 
L 246.322275 65.357631 
L 246.830055 60.529218 
L 247.083946 63.020103 
L 247.337836 59.785411 
L 247.591726 59.498913 
L 247.845616 64.18841 
L 248.353396 67.328602 
L 248.607286 62.343473 
L 248.861176 63.828459 
L 249.115066 62.261909 
L 249.368956 68.064213 
L 249.622847 63.843158 
L 249.876737 64.045847 
L 250.130627 65.194947 
L 250.384517 62.931355 
L 250.638417 65.980487 
L 250.892307 63.899966 
L 251.146197 65.752533 
L 251.400087 61.276335 
L 251.653977 66.804349 
L 251.907868 66.540975 
L 252.161758 65.159683 
L 252.415648 65.939506 
L 252.923428 70.030016 
L 253.177318 62.061576 
L 253.431208 65.791444 
L 253.685098 65.165467 
L 253.938988 65.662793 
L 254.192879 66.744873 
L 254.446769 65.818242 
L 254.700659 63.469896 
L 255.208439 68.851866 
L 255.462329 67.277247 
L 255.970109 63.320051 
L 256.223999 64.312591 
L 256.477889 64.274925 
L 256.73178 71.753549 
L 256.98567 65.660701 
L 257.23956 62.790031 
L 257.49345 64.352283 
L 257.74734 64.427164 
L 258.00123 67.222432 
L 258.25512 66.499642 
L 258.50901 67.93255 
L 259.01679 64.002719 
L 259.270681 64.280444 
L 259.524571 68.64369 
L 259.778461 69.585047 
L 260.032351 71.578143 
L 260.540131 65.735627 
L 260.794021 66.23068 
L 261.047911 70.716258 
L 261.301801 70.156786 
L 261.555691 68.228049 
L 261.809582 69.544897 
L 262.063472 72.763094 
L 262.317362 67.987328 
L 262.571252 70.482321 
L 262.825142 70.038563 
L 263.079032 67.142445 
L 263.332922 68.171055 
L 263.586812 72.887172 
L 263.840702 69.642472 
L 264.094593 69.858083 
L 264.348483 71.333346 
L 264.602373 68.396932 
L 265.110153 72.620967 
L 265.364043 72.416227 
L 265.617933 73.119284 
L 265.871823 70.435642 
L 266.125713 75.943036 
L 266.379603 70.39341 
L 266.633494 71.083426 
L 266.887384 72.192155 
L 267.141274 71.808972 
L 267.395164 71.184135 
L 267.649054 72.063619 
L 267.902944 73.499327 
L 268.156834 77.376013 
L 268.410724 71.934795 
L 268.918504 74.372033 
L 269.172405 77.300995 
L 269.426285 74.058087 
L 269.680185 78.588332 
L 269.934065 72.068521 
L 270.187965 82.659235 
L 270.441845 72.948155 
L 270.695745 77.787202 
L 270.949625 76.439235 
L 271.203525 73.432336 
L 271.457405 79.366327 
L 271.711306 79.421558 
L 271.965186 74.135733 
L 272.219086 79.312082 
L 272.472966 75.812725 
L 272.980746 82.699882 
L 273.234646 83.771972 
L 273.488526 76.54939 
L 273.742426 85.270771 
L 273.996307 83.666171 
L 274.504087 77.960557 
L 274.757987 77.468162 
L 275.011867 86.703218 
L 275.265767 76.121311 
L 275.519647 87.459568 
L 276.027427 80.396973 
L 276.281328 90.275267 
L 276.535208 90.796843 
L 276.789108 87.120928 
L 277.296888 91.963909 
L 277.550768 98.751678 
L 277.804668 91.256322 
L 278.058548 90.569449 
L 278.312448 85.842338 
L 278.820229 91.809881 
L 279.074109 102.717415 
L 279.328009 90.197916 
L 279.581889 91.457763 
L 279.835789 117.429835 
L 280.089669 95.204008 
L 280.343569 93.134921 
L 280.597449 100.038269 
L 280.851349 89.846878 
L 281.10525 98.701938 
L 281.35915 101.524861 
L 281.61303 106.516933 
L 281.86693 103.280102 
L 282.37471 110.598591 
L 282.62859 111.979464 
L 282.88249 97.397917 
L 283.13637 98.862917 
L 283.390271 98.595239 
L 283.644151 101.841552 
L 283.898051 111.030693 
L 284.151931 99.271341 
L 284.405831 109.79054 
L 284.659711 133.071788 
L 284.913611 110.845292 
L 285.167491 114.495332 
L 285.421391 144.49045 
L 285.675271 111.15841 
L 285.929172 120.350853 
L 286.183052 139.592242 
L 286.436952 130.744125 
L 286.690832 175.11736 
L 286.944732 142.045366 
L 287.198612 183.611008 
L 287.452512 130.184547 
L 287.706392 164.907727 
L 287.960292 125.73057 
L 288.214172 124.42996 
L 288.468073 186.319649 
L 288.721953 104.38133 
L 288.975853 140.85265 
L 289.229733 122.424497 
L 289.483633 122.011501 
L 289.737513 99.492708 
L 289.991413 106.187959 
L 290.245293 127.754633 
L 291.006974 91.19862 
L 291.260854 95.339152 
L 291.514754 111.839683 
L 291.768634 102.401996 
L 292.276414 105.286694 
L 292.530314 97.281295 
L 292.784194 97.358751 
L 293.038094 87.021276 
L 293.291974 97.538372 
L 293.545875 93.916355 
L 293.799755 103.238971 
L 294.053655 84.683704 
L 294.307535 85.122986 
L 294.561435 89.388154 
L 294.815315 80.813999 
L 295.069215 93.941487 
L 295.323095 92.068581 
L 295.576995 91.047614 
L 295.830875 85.889225 
L 296.084776 85.398753 
L 296.338656 87.24142 
L 296.592556 87.260285 
L 296.846436 93.924851 
L 297.100336 84.527481 
L 297.354216 82.933057 
L 297.608116 86.738881 
L 297.861996 86.447078 
L 298.115896 83.85253 
L 298.369777 77.276859 
L 298.623677 77.758352 
L 299.385337 75.57981 
L 299.893117 70.696689 
L 300.147017 68.414128 
L 300.400897 74.336432 
L 300.654798 69.484959 
L 300.908678 75.045078 
L 301.162578 68.483261 
L 301.416458 70.061767 
L 301.670358 73.230442 
L 302.432018 70.456551 
L 302.685918 72.139063 
L 302.939798 68.859585 
L 303.193699 69.085315 
L 303.447579 68.069262 
L 303.701479 65.8122 
L 303.955359 67.371404 
L 304.209259 65.224692 
L 304.463139 68.335551 
L 304.970919 64.694992 
L 305.224819 64.826066 
L 305.478699 65.448221 
L 305.7326 65.400251 
L 305.98648 66.725811 
L 306.24038 66.28216 
L 306.49426 63.151 
L 306.74816 64.365961 
L 307.00204 60.458483 
L 307.25594 60.125257 
L 307.76372 65.314125 
L 308.0176 60.671615 
L 308.271501 63.469332 
L 308.525381 60.45174 
L 308.779281 59.751112 
L 309.033161 61.748992 
L 309.287061 60.482901 
L 309.540941 58.328658 
L 309.794841 59.084579 
L 310.048721 55.8 
L 310.302621 57.996939 
L 310.556501 56.598528 
L 310.810402 56.797234 
L 311.064282 57.233317 
L 311.318182 56.584311 
L 311.318182 56.584311 
" clip-path="url(#p77dbb8f7a7)" style="fill: none; stroke: #348abd; stroke-width: 1.5; stroke-linecap: square"/>
   </g>
   <g id="patch_3">
    <path d="M 45 320.4 
L 45 43.2 
" style="fill: none; stroke: #ffffff; stroke-linejoin: miter; stroke-linecap: square"/>
   </g>
   <g id="patch_4">
    <path d="M 324 320.4 
L 324 43.2 
" style="fill: none; stroke: #ffffff; stroke-linejoin: miter; stroke-linecap: square"/>
   </g>
   <g id="patch_5">
    <path d="M 45 320.4 
L 324 320.4 
" style="fill: none; stroke: #ffffff; stroke-linejoin: miter; stroke-linecap: square"/>
   </g>
   <g id="patch_6">
    <path d="M 45 43.2 
L 324 43.2 
" style="fill: none; stroke: #ffffff; stroke-linejoin: miter; stroke-linecap: square"/>
   </g>
   <g id="text_13">
    <!-- Prediction Error -->
    <g transform="translate(128.90025 37.2)scale(0.144 -0.144)">
     <defs>
      <path id="DejaVuSans-50" d="M 1259 4147 
L 1259 2394 
L 2053 2394 
Q 2494 2394 2734 2622 
Q 2975 2850 2975 3272 
Q 2975 3691 2734 3919 
Q 2494 4147 2053 4147 
L 1259 4147 
z
M 628 4666 
L 2053 4666 
Q 2838 4666 3239 4311 
Q 3641 3956 3641 3272 
Q 3641 2581 3239 2228 
Q 2838 1875 2053 1875 
L 1259 1875 
L 1259 0 
L 628 0 
L 628 4666 
z
" transform="scale(0.015625)"/>
      <path id="DejaVuSans-72" d="M 2631 2963 
Q 2534 3019 2420 3045 
Q 2306 3072 2169 3072 
Q 1681 3072 1420 2755 
Q 1159 2438 1159 1844 
L 1159 0 
L 581 0 
L 581 3500 
L 1159 3500 
L 1159 2956 
Q 1341 3275 1631 3429 
Q 1922 3584 2338 3584 
Q 2397 3584 2469 3576 
Q 2541 3569 2628 3553 
L 2631 2963 
z
" transform="scale(0.015625)"/>
      <path id="DejaVuSans-65" d="M 3597 1894 
L 3597 1613 
L 953 1613 
Q 991 1019 1311 708 
Q 1631 397 2203 397 
Q 2534 397 2845 478 
Q 3156 559 3463 722 
L 3463 178 
Q 3153 47 2828 -22 
Q 2503 -91 2169 -91 
Q 1331 -91 842 396 
Q 353 884 353 1716 
Q 353 2575 817 3079 
Q 1281 3584 2069 3584 
Q 2775 3584 3186 3129 
Q 3597 2675 3597 1894 
z
M 3022 2063 
Q 3016 2534 2758 2815 
Q 2500 3097 2075 3097 
Q 1594 3097 1305 2825 
Q 1016 2553 972 2059 
L 3022 2063 
z
" transform="scale(0.015625)"/>
      <path id="DejaVuSans-64" d="M 2906 2969 
L 2906 4863 
L 3481 4863 
L 3481 0 
L 2906 0 
L 2906 525 
Q 2725 213 2448 61 
Q 2172 -91 1784 -91 
Q 1150 -91 751 415 
Q 353 922 353 1747 
Q 353 2572 751 3078 
Q 1150 3584 1784 3584 
Q 2172 3584 2448 3432 
Q 2725 3281 2906 2969 
z
M 947 1747 
Q 947 1113 1208 752 
Q 1469 391 1925 391 
Q 2381 391 2643 752 
Q 2906 1113 2906 1747 
Q 2906 2381 2643 2742 
Q 2381 3103 1925 3103 
Q 1469 3103 1208 2742 
Q 947 2381 947 1747 
z
" transform="scale(0.015625)"/>
      <path id="DejaVuSans-69" d="M 603 3500 
L 1178 3500 
L 1178 0 
L 603 0 
L 603 3500 
z
M 603 4863 
L 1178 4863 
L 1178 4134 
L 603 4134 
L 603 4863 
z
" transform="scale(0.015625)"/>
      <path id="DejaVuSans-63" d="M 3122 3366 
L 3122 2828 
Q 2878 2963 2633 3030 
Q 2388 3097 2138 3097 
Q 1578 3097 1268 2742 
Q 959 2388 959 1747 
Q 959 1106 1268 751 
Q 1578 397 2138 397 
Q 2388 397 2633 464 
Q 2878 531 3122 666 
L 3122 134 
Q 2881 22 2623 -34 
Q 2366 -91 2075 -91 
Q 1284 -91 818 406 
Q 353 903 353 1747 
Q 353 2603 823 3093 
Q 1294 3584 2113 3584 
Q 2378 3584 2631 3529 
Q 2884 3475 3122 3366 
z
" transform="scale(0.015625)"/>
      <path id="DejaVuSans-74" d="M 1172 4494 
L 1172 3500 
L 2356 3500 
L 2356 3053 
L 1172 3053 
L 1172 1153 
Q 1172 725 1289 603 
Q 1406 481 1766 481 
L 2356 481 
L 2356 0 
L 1766 0 
Q 1100 0 847 248 
Q 594 497 594 1153 
L 594 3053 
L 172 3053 
L 172 3500 
L 594 3500 
L 594 4494 
L 1172 4494 
z
" transform="scale(0.015625)"/>
      <path id="DejaVuSans-6f" d="M 1959 3097 
Q 1497 3097 1228 2736 
Q 959 2375 959 1747 
Q 959 1119 1226 758 
Q 1494 397 1959 397 
Q 2419 397 2687 759 
Q 2956 1122 2956 1747 
Q 2956 2369 2687 2733 
Q 2419 3097 1959 3097 
z
M 1959 3584 
Q 2709 3584 3137 3096 
Q 3566 2609 3566 1747 
Q 3566 888 3137 398 
Q 2709 -91 1959 -91 
Q 1206 -91 779 398 
Q 353 888 353 1747 
Q 353 2609 779 3096 
Q 1206 3584 1959 3584 
z
" transform="scale(0.015625)"/>
      <path id="DejaVuSans-6e" d="M 3513 2113 
L 3513 0 
L 2938 0 
L 2938 2094 
Q 2938 2591 2744 2837 
Q 2550 3084 2163 3084 
Q 1697 3084 1428 2787 
Q 1159 2491 1159 1978 
L 1159 0 
L 581 0 
L 581 3500 
L 1159 3500 
L 1159 2956 
Q 1366 3272 1645 3428 
Q 1925 3584 2291 3584 
Q 2894 3584 3203 3211 
Q 3513 2838 3513 2113 
z
" transform="scale(0.015625)"/>
      <path id="DejaVuSans-20" transform="scale(0.015625)"/>
      <path id="DejaVuSans-45" d="M 628 4666 
L 3578 4666 
L 3578 4134 
L 1259 4134 
L 1259 2753 
L 3481 2753 
L 3481 2222 
L 1259 2222 
L 1259 531 
L 3634 531 
L 3634 0 
L 628 0 
L 628 4666 
z
" transform="scale(0.015625)"/>
     </defs>
     <use xlink:href="#DejaVuSans-50"/>
     <use xlink:href="#DejaVuSans-72" x="58.552734"/>
     <use xlink:href="#DejaVuSans-65" x="97.416016"/>
     <use xlink:href="#DejaVuSans-64" x="158.939453"/>
     <use xlink:href="#DejaVuSans-69" x="222.416016"/>
     <use xlink:href="#DejaVuSans-63" x="250.199219"/>
     <use xlink:href="#DejaVuSans-74" x="305.179688"/>
     <use xlink:href="#DejaVuSans-69" x="344.388672"/>
     <use xlink:href="#DejaVuSans-6f" x="372.171875"/>
     <use xlink:href="#DejaVuSans-6e" x="433.353516"/>
     <use xlink:href="#DejaVuSans-20" x="496.732422"/>
     <use xlink:href="#DejaVuSans-45" x="528.519531"/>
     <use xlink:href="#DejaVuSans-72" x="591.703125"/>
     <use xlink:href="#DejaVuSans-72" x="631.066406"/>
     <use xlink:href="#DejaVuSans-6f" x="669.929688"/>
     <use xlink:href="#DejaVuSans-72" x="731.111328"/>
    </g>
   </g>
   <g id="legend_1">
    <g id="patch_7">
     <path d="M 234.342187 315.4 
L 317 315.4 
Q 319 315.4 319 313.4 
L 319 285.04375 
Q 319 283.04375 317 283.04375 
L 234.342187 283.04375 
Q 232.342187 283.04375 232.342187 285.04375 
L 232.342187 313.4 
Q 232.342187 315.4 234.342187 315.4 
z
" style="fill: #e5e5e5; opacity: 0.8; stroke: #cccccc; stroke-width: 0.5; stroke-linejoin: miter"/>
    </g>
    <g id="line2d_64">
     <path d="M 236.342187 291.142187 
L 246.342187 291.142187 
L 256.342188 291.142187 
" style="fill: none; stroke: #e24a33; stroke-width: 1.5; stroke-linecap: square"/>
    </g>
    <g id="text_14">
     <!-- train error -->
     <g transform="translate(264.342188 294.642187)scale(0.1 -0.1)">
      <defs>
       <path id="DejaVuSans-61" d="M 2194 1759 
Q 1497 1759 1228 1600 
Q 959 1441 959 1056 
Q 959 750 1161 570 
Q 1363 391 1709 391 
Q 2188 391 2477 730 
Q 2766 1069 2766 1631 
L 2766 1759 
L 2194 1759 
z
M 3341 1997 
L 3341 0 
L 2766 0 
L 2766 531 
Q 2569 213 2275 61 
Q 1981 -91 1556 -91 
Q 1019 -91 701 211 
Q 384 513 384 1019 
Q 384 1609 779 1909 
Q 1175 2209 1959 2209 
L 2766 2209 
L 2766 2266 
Q 2766 2663 2505 2880 
Q 2244 3097 1772 3097 
Q 1472 3097 1187 3025 
Q 903 2953 641 2809 
L 641 3341 
Q 956 3463 1253 3523 
Q 1550 3584 1831 3584 
Q 2591 3584 2966 3190 
Q 3341 2797 3341 1997 
z
" transform="scale(0.015625)"/>
      </defs>
      <use xlink:href="#DejaVuSans-74"/>
      <use xlink:href="#DejaVuSans-72" x="39.208984"/>
      <use xlink:href="#DejaVuSans-61" x="80.322266"/>
      <use xlink:href="#DejaVuSans-69" x="141.601562"/>
      <use xlink:href="#DejaVuSans-6e" x="169.384766"/>
      <use xlink:href="#DejaVuSans-20" x="232.763672"/>
      <use xlink:href="#DejaVuSans-65" x="264.550781"/>
      <use xlink:href="#DejaVuSans-72" x="326.074219"/>
      <use xlink:href="#DejaVuSans-72" x="365.4375"/>
      <use xlink:href="#DejaVuSans-6f" x="404.300781"/>
      <use xlink:href="#DejaVuSans-72" x="465.482422"/>
     </g>
    </g>
    <g id="line2d_65">
     <path d="M 236.342187 305.820312 
L 246.342187 305.820312 
L 256.342188 305.820312 
" style="fill: none; stroke: #348abd; stroke-width: 1.5; stroke-linecap: square"/>
    </g>
    <g id="text_15">
     <!-- test error -->
     <g transform="translate(264.342188 309.320312)scale(0.1 -0.1)">
      <defs>
       <path id="DejaVuSans-73" d="M 2834 3397 
L 2834 2853 
Q 2591 2978 2328 3040 
Q 2066 3103 1784 3103 
Q 1356 3103 1142 2972 
Q 928 2841 928 2578 
Q 928 2378 1081 2264 
Q 1234 2150 1697 2047 
L 1894 2003 
Q 2506 1872 2764 1633 
Q 3022 1394 3022 966 
Q 3022 478 2636 193 
Q 2250 -91 1575 -91 
Q 1294 -91 989 -36 
Q 684 19 347 128 
L 347 722 
Q 666 556 975 473 
Q 1284 391 1588 391 
Q 1994 391 2212 530 
Q 2431 669 2431 922 
Q 2431 1156 2273 1281 
Q 2116 1406 1581 1522 
L 1381 1569 
Q 847 1681 609 1914 
Q 372 2147 372 2553 
Q 372 3047 722 3315 
Q 1072 3584 1716 3584 
Q 2034 3584 2315 3537 
Q 2597 3491 2834 3397 
z
" transform="scale(0.015625)"/>
      </defs>
      <use xlink:href="#DejaVuSans-74"/>
      <use xlink:href="#DejaVuSans-65" x="39.208984"/>
      <use xlink:href="#DejaVuSans-73" x="100.732422"/>
      <use xlink:href="#DejaVuSans-74" x="152.832031"/>
      <use xlink:href="#DejaVuSans-20" x="192.041016"/>
      <use xlink:href="#DejaVuSans-65" x="223.828125"/>
      <use xlink:href="#DejaVuSans-72" x="285.351562"/>
      <use xlink:href="#DejaVuSans-72" x="324.714844"/>
      <use xlink:href="#DejaVuSans-6f" x="363.578125"/>
      <use xlink:href="#DejaVuSans-72" x="424.759766"/>
     </g>
    </g>
   </g>
  </g>
 </g>
 <defs>
  <clipPath id="p77dbb8f7a7">
   <rect x="45" y="43.2" width="279" height="277.2"/>
  </clipPath>
 </defs>
</svg>
