<?xml version="1.0" encoding="utf-8" standalone="no"?>
<!DOCTYPE svg PUBLIC "-//W3C//DTD SVG 1.1//EN"
  "http://www.w3.org/Graphics/SVG/1.1/DTD/svg11.dtd">
<svg xmlns:xlink="http://www.w3.org/1999/xlink" width="576pt" height="360pt" viewBox="0 0 576 360" xmlns="http://www.w3.org/2000/svg" version="1.1">
 <metadata>
  <rdf:RDF xmlns:dc="http://purl.org/dc/elements/1.1/" xmlns:cc="http://creativecommons.org/ns#" xmlns:rdf="http://www.w3.org/1999/02/22-rdf-syntax-ns#">
   <cc:Work>
    <dc:type rdf:resource="http://purl.org/dc/dcmitype/StillImage"/>
    <dc:date>2022-12-22T11:40:58.969826</dc:date>
    <dc:format>image/svg+xml</dc:format>
    <dc:creator>
     <cc:Agent>
      <dc:title>Matplotlib v3.5.3, https://matplotlib.org/</dc:title>
     </cc:Agent>
    </dc:creator>
   </cc:Work>
  </rdf:RDF>
 </metadata>
 <defs>
  <style type="text/css">*{stroke-linejoin: round; stroke-linecap: butt}</style>
 </defs>
 <g id="figure_1">
  <g id="patch_1">
   <path d="M 0 360 
L 576 360 
L 576 0 
L 0 0 
z
" style="fill: #ffffff"/>
  </g>
  <g id="axes_1">
   <g id="patch_2">
    <path d="M 72 320.4 
L 518.4 320.4 
L 518.4 43.2 
L 72 43.2 
z
" style="fill: #e5e5e5"/>
   </g>
   <g id="matplotlib.axis_1">
    <g id="xtick_1">
     <g id="line2d_1">
      <path d="M 92.290909 320.4 
L 92.290909 43.2 
" clip-path="url(#pc024201e7b)" style="fill: none; stroke: #ffffff; stroke-width: 0.8; stroke-linecap: square"/>
     </g>
     <g id="line2d_2">
      <defs>
       <path id="mab732ef951" d="M 0 0 
L 0 3.5 
" style="stroke: #555555; stroke-width: 0.8"/>
      </defs>
      <g>
       <use xlink:href="#mab732ef951" x="92.290909" y="320.4" style="fill: #555555; stroke: #555555; stroke-width: 0.8"/>
      </g>
     </g>
     <g id="text_1">
      <!-- −0.5 -->
      <g style="fill: #555555" transform="translate(80.149503 334.998438)scale(0.1 -0.1)">
       <defs>
        <path id="DejaVuSans-2212" d="M 678 2272 
L 4684 2272 
L 4684 1741 
L 678 1741 
L 678 2272 
z
" transform="scale(0.015625)"/>
        <path id="DejaVuSans-30" d="M 2034 4250 
Q 1547 4250 1301 3770 
Q 1056 3291 1056 2328 
Q 1056 1369 1301 889 
Q 1547 409 2034 409 
Q 2525 409 2770 889 
Q 3016 1369 3016 2328 
Q 3016 3291 2770 3770 
Q 2525 4250 2034 4250 
z
M 2034 4750 
Q 2819 4750 3233 4129 
Q 3647 3509 3647 2328 
Q 3647 1150 3233 529 
Q 2819 -91 2034 -91 
Q 1250 -91 836 529 
Q 422 1150 422 2328 
Q 422 3509 836 4129 
Q 1250 4750 2034 4750 
z
" transform="scale(0.015625)"/>
        <path id="DejaVuSans-2e" d="M 684 794 
L 1344 794 
L 1344 0 
L 684 0 
L 684 794 
z
" transform="scale(0.015625)"/>
        <path id="DejaVuSans-35" d="M 691 4666 
L 3169 4666 
L 3169 4134 
L 1269 4134 
L 1269 2991 
Q 1406 3038 1543 3061 
Q 1681 3084 1819 3084 
Q 2600 3084 3056 2656 
Q 3513 2228 3513 1497 
Q 3513 744 3044 326 
Q 2575 -91 1722 -91 
Q 1428 -91 1123 -41 
Q 819 9 494 109 
L 494 744 
Q 775 591 1075 516 
Q 1375 441 1709 441 
Q 2250 441 2565 725 
Q 2881 1009 2881 1497 
Q 2881 1984 2565 2268 
Q 2250 2553 1709 2553 
Q 1456 2553 1204 2497 
Q 953 2441 691 2322 
L 691 4666 
z
" transform="scale(0.015625)"/>
       </defs>
       <use xlink:href="#DejaVuSans-2212"/>
       <use xlink:href="#DejaVuSans-30" x="83.789062"/>
       <use xlink:href="#DejaVuSans-2e" x="147.412109"/>
       <use xlink:href="#DejaVuSans-35" x="179.199219"/>
      </g>
     </g>
    </g>
    <g id="xtick_2">
     <g id="line2d_3">
      <path d="M 159.927273 320.4 
L 159.927273 43.2 
" clip-path="url(#pc024201e7b)" style="fill: none; stroke: #ffffff; stroke-width: 0.8; stroke-linecap: square"/>
     </g>
     <g id="line2d_4">
      <g>
       <use xlink:href="#mab732ef951" x="159.927273" y="320.4" style="fill: #555555; stroke: #555555; stroke-width: 0.8"/>
      </g>
     </g>
     <g id="text_2">
      <!-- 0.0 -->
      <g style="fill: #555555" transform="translate(151.97571 334.998438)scale(0.1 -0.1)">
       <use xlink:href="#DejaVuSans-30"/>
       <use xlink:href="#DejaVuSans-2e" x="63.623047"/>
       <use xlink:href="#DejaVuSans-30" x="95.410156"/>
      </g>
     </g>
    </g>
    <g id="xtick_3">
     <g id="line2d_5">
      <path d="M 227.563636 320.4 
L 227.563636 43.2 
" clip-path="url(#pc024201e7b)" style="fill: none; stroke: #ffffff; stroke-width: 0.8; stroke-linecap: square"/>
     </g>
     <g id="line2d_6">
      <g>
       <use xlink:href="#mab732ef951" x="227.563636" y="320.4" style="fill: #555555; stroke: #555555; stroke-width: 0.8"/>
      </g>
     </g>
     <g id="text_3">
      <!-- 0.5 -->
      <g style="fill: #555555" transform="translate(219.612074 334.998438)scale(0.1 -0.1)">
       <use xlink:href="#DejaVuSans-30"/>
       <use xlink:href="#DejaVuSans-2e" x="63.623047"/>
       <use xlink:href="#DejaVuSans-35" x="95.410156"/>
      </g>
     </g>
    </g>
    <g id="xtick_4">
     <g id="line2d_7">
      <path d="M 295.2 320.4 
L 295.2 43.2 
" clip-path="url(#pc024201e7b)" style="fill: none; stroke: #ffffff; stroke-width: 0.8; stroke-linecap: square"/>
     </g>
     <g id="line2d_8">
      <g>
       <use xlink:href="#mab732ef951" x="295.2" y="320.4" style="fill: #555555; stroke: #555555; stroke-width: 0.8"/>
      </g>
     </g>
     <g id="text_4">
      <!-- 1.0 -->
      <g style="fill: #555555" transform="translate(287.248438 334.998438)scale(0.1 -0.1)">
       <defs>
        <path id="DejaVuSans-31" d="M 794 531 
L 1825 531 
L 1825 4091 
L 703 3866 
L 703 4441 
L 1819 4666 
L 2450 4666 
L 2450 531 
L 3481 531 
L 3481 0 
L 794 0 
L 794 531 
z
" transform="scale(0.015625)"/>
       </defs>
       <use xlink:href="#DejaVuSans-31"/>
       <use xlink:href="#DejaVuSans-2e" x="63.623047"/>
       <use xlink:href="#DejaVuSans-30" x="95.410156"/>
      </g>
     </g>
    </g>
    <g id="xtick_5">
     <g id="line2d_9">
      <path d="M 362.836364 320.4 
L 362.836364 43.2 
" clip-path="url(#pc024201e7b)" style="fill: none; stroke: #ffffff; stroke-width: 0.8; stroke-linecap: square"/>
     </g>
     <g id="line2d_10">
      <g>
       <use xlink:href="#mab732ef951" x="362.836364" y="320.4" style="fill: #555555; stroke: #555555; stroke-width: 0.8"/>
      </g>
     </g>
     <g id="text_5">
      <!-- 1.5 -->
      <g style="fill: #555555" transform="translate(354.884801 334.998438)scale(0.1 -0.1)">
       <use xlink:href="#DejaVuSans-31"/>
       <use xlink:href="#DejaVuSans-2e" x="63.623047"/>
       <use xlink:href="#DejaVuSans-35" x="95.410156"/>
      </g>
     </g>
    </g>
    <g id="xtick_6">
     <g id="line2d_11">
      <path d="M 430.472727 320.4 
L 430.472727 43.2 
" clip-path="url(#pc024201e7b)" style="fill: none; stroke: #ffffff; stroke-width: 0.8; stroke-linecap: square"/>
     </g>
     <g id="line2d_12">
      <g>
       <use xlink:href="#mab732ef951" x="430.472727" y="320.4" style="fill: #555555; stroke: #555555; stroke-width: 0.8"/>
      </g>
     </g>
     <g id="text_6">
      <!-- 2.0 -->
      <g style="fill: #555555" transform="translate(422.521165 334.998438)scale(0.1 -0.1)">
       <defs>
        <path id="DejaVuSans-32" d="M 1228 531 
L 3431 531 
L 3431 0 
L 469 0 
L 469 531 
Q 828 903 1448 1529 
Q 2069 2156 2228 2338 
Q 2531 2678 2651 2914 
Q 2772 3150 2772 3378 
Q 2772 3750 2511 3984 
Q 2250 4219 1831 4219 
Q 1534 4219 1204 4116 
Q 875 4013 500 3803 
L 500 4441 
Q 881 4594 1212 4672 
Q 1544 4750 1819 4750 
Q 2544 4750 2975 4387 
Q 3406 4025 3406 3419 
Q 3406 3131 3298 2873 
Q 3191 2616 2906 2266 
Q 2828 2175 2409 1742 
Q 1991 1309 1228 531 
z
" transform="scale(0.015625)"/>
       </defs>
       <use xlink:href="#DejaVuSans-32"/>
       <use xlink:href="#DejaVuSans-2e" x="63.623047"/>
       <use xlink:href="#DejaVuSans-30" x="95.410156"/>
      </g>
     </g>
    </g>
    <g id="xtick_7">
     <g id="line2d_13">
      <path d="M 498.109091 320.4 
L 498.109091 43.2 
" clip-path="url(#pc024201e7b)" style="fill: none; stroke: #ffffff; stroke-width: 0.8; stroke-linecap: square"/>
     </g>
     <g id="line2d_14">
      <g>
       <use xlink:href="#mab732ef951" x="498.109091" y="320.4" style="fill: #555555; stroke: #555555; stroke-width: 0.8"/>
      </g>
     </g>
     <g id="text_7">
      <!-- 2.5 -->
      <g style="fill: #555555" transform="translate(490.157528 334.998438)scale(0.1 -0.1)">
       <use xlink:href="#DejaVuSans-32"/>
       <use xlink:href="#DejaVuSans-2e" x="63.623047"/>
       <use xlink:href="#DejaVuSans-35" x="95.410156"/>
      </g>
     </g>
    </g>
   </g>
   <g id="matplotlib.axis_2">
    <g id="ytick_1">
     <g id="line2d_15">
      <path d="M 72 307.764625 
L 518.4 307.764625 
" clip-path="url(#pc024201e7b)" style="fill: none; stroke: #ffffff; stroke-width: 0.8; stroke-linecap: square"/>
     </g>
     <g id="line2d_16">
      <defs>
       <path id="m6fc0df322a" d="M 0 0 
L -3.5 0 
" style="stroke: #555555; stroke-width: 0.8"/>
      </defs>
      <g>
       <use xlink:href="#m6fc0df322a" x="72" y="307.764625" style="fill: #555555; stroke: #555555; stroke-width: 0.8"/>
      </g>
     </g>
     <g id="text_8">
      <!-- −4 -->
      <g style="fill: #555555" transform="translate(50.257812 311.563844)scale(0.1 -0.1)">
       <defs>
        <path id="DejaVuSans-34" d="M 2419 4116 
L 825 1625 
L 2419 1625 
L 2419 4116 
z
M 2253 4666 
L 3047 4666 
L 3047 1625 
L 3713 1625 
L 3713 1100 
L 3047 1100 
L 3047 0 
L 2419 0 
L 2419 1100 
L 313 1100 
L 313 1709 
L 2253 4666 
z
" transform="scale(0.015625)"/>
       </defs>
       <use xlink:href="#DejaVuSans-2212"/>
       <use xlink:href="#DejaVuSans-34" x="83.789062"/>
      </g>
     </g>
    </g>
    <g id="ytick_2">
     <g id="line2d_17">
      <path d="M 72 274.150467 
L 518.4 274.150467 
" clip-path="url(#pc024201e7b)" style="fill: none; stroke: #ffffff; stroke-width: 0.8; stroke-linecap: square"/>
     </g>
     <g id="line2d_18">
      <g>
       <use xlink:href="#m6fc0df322a" x="72" y="274.150467" style="fill: #555555; stroke: #555555; stroke-width: 0.8"/>
      </g>
     </g>
     <g id="text_9">
      <!-- −3 -->
      <g style="fill: #555555" transform="translate(50.257812 277.949685)scale(0.1 -0.1)">
       <defs>
        <path id="DejaVuSans-33" d="M 2597 2516 
Q 3050 2419 3304 2112 
Q 3559 1806 3559 1356 
Q 3559 666 3084 287 
Q 2609 -91 1734 -91 
Q 1441 -91 1130 -33 
Q 819 25 488 141 
L 488 750 
Q 750 597 1062 519 
Q 1375 441 1716 441 
Q 2309 441 2620 675 
Q 2931 909 2931 1356 
Q 2931 1769 2642 2001 
Q 2353 2234 1838 2234 
L 1294 2234 
L 1294 2753 
L 1863 2753 
Q 2328 2753 2575 2939 
Q 2822 3125 2822 3475 
Q 2822 3834 2567 4026 
Q 2313 4219 1838 4219 
Q 1578 4219 1281 4162 
Q 984 4106 628 3988 
L 628 4550 
Q 988 4650 1302 4700 
Q 1616 4750 1894 4750 
Q 2613 4750 3031 4423 
Q 3450 4097 3450 3541 
Q 3450 3153 3228 2886 
Q 3006 2619 2597 2516 
z
" transform="scale(0.015625)"/>
       </defs>
       <use xlink:href="#DejaVuSans-2212"/>
       <use xlink:href="#DejaVuSans-33" x="83.789062"/>
      </g>
     </g>
    </g>
    <g id="ytick_3">
     <g id="line2d_19">
      <path d="M 72 240.536308 
L 518.4 240.536308 
" clip-path="url(#pc024201e7b)" style="fill: none; stroke: #ffffff; stroke-width: 0.8; stroke-linecap: square"/>
     </g>
     <g id="line2d_20">
      <g>
       <use xlink:href="#m6fc0df322a" x="72" y="240.536308" style="fill: #555555; stroke: #555555; stroke-width: 0.8"/>
      </g>
     </g>
     <g id="text_10">
      <!-- −2 -->
      <g style="fill: #555555" transform="translate(50.257812 244.335527)scale(0.1 -0.1)">
       <use xlink:href="#DejaVuSans-2212"/>
       <use xlink:href="#DejaVuSans-32" x="83.789062"/>
      </g>
     </g>
    </g>
    <g id="ytick_4">
     <g id="line2d_21">
      <path d="M 72 206.92215 
L 518.4 206.92215 
" clip-path="url(#pc024201e7b)" style="fill: none; stroke: #ffffff; stroke-width: 0.8; stroke-linecap: square"/>
     </g>
     <g id="line2d_22">
      <g>
       <use xlink:href="#m6fc0df322a" x="72" y="206.92215" style="fill: #555555; stroke: #555555; stroke-width: 0.8"/>
      </g>
     </g>
     <g id="text_11">
      <!-- −1 -->
      <g style="fill: #555555" transform="translate(50.257812 210.721368)scale(0.1 -0.1)">
       <use xlink:href="#DejaVuSans-2212"/>
       <use xlink:href="#DejaVuSans-31" x="83.789062"/>
      </g>
     </g>
    </g>
    <g id="ytick_5">
     <g id="line2d_23">
      <path d="M 72 173.307991 
L 518.4 173.307991 
" clip-path="url(#pc024201e7b)" style="fill: none; stroke: #ffffff; stroke-width: 0.8; stroke-linecap: square"/>
     </g>
     <g id="line2d_24">
      <g>
       <use xlink:href="#m6fc0df322a" x="72" y="173.307991" style="fill: #555555; stroke: #555555; stroke-width: 0.8"/>
      </g>
     </g>
     <g id="text_12">
      <!-- 0 -->
      <g style="fill: #555555" transform="translate(58.6375 177.10721)scale(0.1 -0.1)">
       <use xlink:href="#DejaVuSans-30"/>
      </g>
     </g>
    </g>
    <g id="ytick_6">
     <g id="line2d_25">
      <path d="M 72 139.693833 
L 518.4 139.693833 
" clip-path="url(#pc024201e7b)" style="fill: none; stroke: #ffffff; stroke-width: 0.8; stroke-linecap: square"/>
     </g>
     <g id="line2d_26">
      <g>
       <use xlink:href="#m6fc0df322a" x="72" y="139.693833" style="fill: #555555; stroke: #555555; stroke-width: 0.8"/>
      </g>
     </g>
     <g id="text_13">
      <!-- 1 -->
      <g style="fill: #555555" transform="translate(58.6375 143.493051)scale(0.1 -0.1)">
       <use xlink:href="#DejaVuSans-31"/>
      </g>
     </g>
    </g>
    <g id="ytick_7">
     <g id="line2d_27">
      <path d="M 72 106.079674 
L 518.4 106.079674 
" clip-path="url(#pc024201e7b)" style="fill: none; stroke: #ffffff; stroke-width: 0.8; stroke-linecap: square"/>
     </g>
     <g id="line2d_28">
      <g>
       <use xlink:href="#m6fc0df322a" x="72" y="106.079674" style="fill: #555555; stroke: #555555; stroke-width: 0.8"/>
      </g>
     </g>
     <g id="text_14">
      <!-- 2 -->
      <g style="fill: #555555" transform="translate(58.6375 109.878893)scale(0.1 -0.1)">
       <use xlink:href="#DejaVuSans-32"/>
      </g>
     </g>
    </g>
    <g id="ytick_8">
     <g id="line2d_29">
      <path d="M 72 72.465516 
L 518.4 72.465516 
" clip-path="url(#pc024201e7b)" style="fill: none; stroke: #ffffff; stroke-width: 0.8; stroke-linecap: square"/>
     </g>
     <g id="line2d_30">
      <g>
       <use xlink:href="#m6fc0df322a" x="72" y="72.465516" style="fill: #555555; stroke: #555555; stroke-width: 0.8"/>
      </g>
     </g>
     <g id="text_15">
      <!-- 3 -->
      <g style="fill: #555555" transform="translate(58.6375 76.264734)scale(0.1 -0.1)">
       <use xlink:href="#DejaVuSans-33"/>
      </g>
     </g>
    </g>
   </g>
   <g id="line2d_31">
    <path d="M 92.290909 117.164434 
L 93.103357 125.924824 
L 93.509582 120.384724 
L 93.915806 117.622055 
L 94.32203 129.907524 
L 94.728254 118.969381 
L 95.134478 128.611257 
L 95.540702 119.627807 
L 95.946927 125.302037 
L 96.353151 123.340083 
L 96.759375 126.003283 
L 97.165599 133.207808 
L 97.571823 126.525876 
L 97.978047 133.703749 
L 98.384272 134.387965 
L 98.7905 132.561476 
L 99.196724 121.214759 
L 99.602948 128.365673 
L 100.009172 129.448697 
L 100.415396 136.296769 
L 100.821621 134.822798 
L 101.227845 134.463684 
L 101.634069 129.988901 
L 102.040297 138.548057 
L 102.446521 129.607227 
L 102.852745 141.692288 
L 103.25897 133.314141 
L 103.665194 136.647784 
L 104.071418 138.934804 
L 104.477642 148.765031 
L 105.29009 138.316505 
L 106.102539 146.038382 
L 106.914987 135.077687 
L 107.321211 145.243427 
L 107.727435 158.446921 
L 108.13366 140.153169 
L 108.539884 160.636489 
L 108.946108 147.230883 
L 109.352332 152.91729 
L 109.758556 139.871817 
L 110.16478 147.84056 
L 110.571005 148.445523 
L 110.977229 153.260062 
L 111.383453 145.793441 
L 111.789681 145.606563 
L 112.195905 152.876482 
L 112.602129 147.212117 
L 113.008354 156.161958 
L 113.414578 142.747547 
L 113.820802 151.717114 
L 114.227026 146.204405 
L 114.63325 142.933337 
L 115.039478 161.248488 
L 115.445703 146.158539 
L 115.851927 146.42461 
L 116.258151 138.402875 
L 116.664375 145.815163 
L 117.070599 157.095921 
L 117.476823 156.4693 
L 117.883048 152.144115 
L 118.289272 160.177122 
L 118.695496 164.972977 
L 119.10172 162.275701 
L 119.507944 158.509784 
L 119.914168 150.533198 
L 120.320393 145.391216 
L 120.726617 165.801452 
L 121.132841 161.674348 
L 121.539065 149.851175 
L 121.945289 160.799562 
L 122.351513 152.659585 
L 122.757738 152.94942 
L 123.163962 168.349106 
L 123.570186 163.240575 
L 123.97641 155.546442 
L 124.382634 154.512379 
L 124.788862 167.205208 
L 125.195087 157.201785 
L 125.601311 156.691909 
L 126.007535 151.107877 
L 126.413759 161.574083 
L 126.819985 163.650474 
L 127.226209 154.732846 
L 127.632434 162.607532 
L 128.03866 160.399338 
L 128.444884 154.735826 
L 128.851108 153.409587 
L 129.257332 159.370983 
L 129.663556 160.968105 
L 130.476007 177.004468 
L 130.882231 173.785908 
L 131.288453 162.717727 
L 131.694677 161.039986 
L 132.100901 165.244667 
L 132.507126 180.075283 
L 132.91335 155.965128 
L 133.319576 161.680652 
L 133.7258 157.56756 
L 134.132024 167.808835 
L 134.538246 163.562061 
L 134.944471 169.226218 
L 135.350695 159.121598 
L 135.756919 154.934176 
L 136.163143 166.360628 
L 136.569369 172.285592 
L 136.975593 174.180508 
L 137.381818 172.383988 
L 137.788044 171.161009 
L 138.194268 166.942847 
L 138.600492 165.006385 
L 139.006716 154.508696 
L 139.41294 171.165494 
L 139.819167 168.675263 
L 140.225391 177.611174 
L 140.631615 166.379382 
L 141.037841 168.648775 
L 141.444065 168.40869 
L 141.850289 167.800132 
L 142.256514 166.505435 
L 142.662738 180.008515 
L 143.068963 154.439796 
L 143.475188 162.992016 
L 143.881412 160.699734 
L 144.287634 175.877825 
L 144.693859 170.340415 
L 145.100083 172.671619 
L 145.506308 160.591121 
L 145.912532 169.402456 
L 146.318756 163.626067 
L 146.724981 170.7701 
L 147.131206 171.463755 
L 147.537428 167.435227 
L 147.943652 167.378998 
L 148.349876 167.894436 
L 148.756101 169.910225 
L 149.162325 177.660518 
L 149.568549 161.642105 
L 149.974775 177.844349 
L 150.380999 175.376436 
L 150.787225 181.858691 
L 151.193449 169.10215 
L 151.599674 172.938766 
L 152.005899 166.927224 
L 152.412123 168.480989 
L 152.818347 159.858043 
L 153.224572 165.40964 
L 153.630796 178.311387 
L 154.037022 163.797458 
L 154.443247 170.988283 
L 154.849471 186.007768 
L 155.255696 172.656254 
L 155.66192 182.336052 
L 156.068144 185.528207 
L 156.474369 174.1599 
L 156.880593 167.68974 
L 157.286816 173.874501 
L 157.69304 178.121792 
L 158.099264 161.652533 
L 158.505489 172.795808 
L 158.911713 167.416948 
L 159.317938 177.219241 
L 159.724162 180.24393 
L 160.536609 170.563119 
L 160.942833 165.599822 
L 161.349058 171.588541 
L 161.755282 173.663061 
L 162.161507 176.665648 
L 162.567731 171.321257 
L 162.973955 170.860291 
L 163.38018 168.535453 
L 163.78641 175.582531 
L 164.192635 174.346633 
L 164.598859 178.285185 
L 165.411308 169.95693 
L 165.817532 166.933063 
L 166.223757 175.3244 
L 166.629982 177.556132 
L 167.036204 173.6435 
L 167.442428 172.729577 
L 167.848652 164.362504 
L 168.254877 168.576023 
L 168.661101 171.018611 
L 169.067325 176.950948 
L 169.473551 167.529414 
L 169.879775 177.77598 
L 170.285997 170.173684 
L 170.692221 164.809166 
L 171.098445 188.653305 
L 171.50467 181.75677 
L 171.910895 171.624417 
L 172.317119 181.317735 
L 172.723344 160.466205 
L 173.129568 172.536537 
L 173.53579 178.001161 
L 173.942014 173.175552 
L 174.348239 164.645375 
L 174.754464 179.289535 
L 175.160688 170.577816 
L 175.566912 166.277422 
L 175.973137 185.749375 
L 176.379361 181.910479 
L 176.785584 169.218411 
L 177.191808 169.774073 
L 177.598032 172.225252 
L 178.004256 171.579965 
L 178.41048 175.099242 
L 178.816706 172.365912 
L 179.222931 173.357535 
L 179.629155 180.158815 
L 180.035385 168.760035 
L 180.441609 169.805445 
L 180.847833 175.445277 
L 181.254057 170.845594 
L 181.660282 170.053669 
L 182.066508 177.721186 
L 182.472732 158.370816 
L 182.878956 168.003236 
L 183.285178 167.07573 
L 183.691402 175.54736 
L 184.097627 173.941497 
L 184.503851 170.213547 
L 184.910075 168.234096 
L 185.316301 169.447928 
L 185.722525 151.023389 
L 186.128749 175.073678 
L 186.534972 163.579145 
L 186.941196 174.373693 
L 187.34742 173.549136 
L 187.753644 171.78753 
L 188.159868 171.499673 
L 188.566094 174.111134 
L 188.972319 168.653031 
L 189.378543 170.457264 
L 189.784773 171.040496 
L 190.190997 174.422402 
L 190.597221 172.308794 
L 191.003445 155.085221 
L 191.40967 162.609211 
L 191.815896 172.834624 
L 192.22212 165.954213 
L 192.628344 165.900091 
L 193.034566 179.623857 
L 193.44079 172.281425 
L 193.847015 170.038887 
L 194.253239 154.540649 
L 194.659463 165.86199 
L 195.065687 167.158137 
L 195.471911 167.317638 
L 195.878135 174.500859 
L 196.28436 164.071335 
L 196.690584 161.906506 
L 197.096808 167.424156 
L 197.503032 161.270915 
L 197.909256 174.677754 
L 198.31548 154.42075 
L 198.721705 152.026848 
L 199.127929 165.868034 
L 199.534153 168.951996 
L 199.940377 159.05422 
L 200.346601 167.904311 
L 200.752825 166.838321 
L 201.15905 164.628414 
L 201.565274 167.27417 
L 201.971498 157.170179 
L 202.377722 161.842004 
L 202.783946 153.573318 
L 203.19017 169.573708 
L 203.596395 167.103853 
L 204.002619 163.530495 
L 204.408843 170.934615 
L 204.815067 156.634605 
L 205.221291 171.819822 
L 205.627515 166.72238 
L 206.033748 155.195983 
L 206.439972 163.856487 
L 206.846196 166.842937 
L 207.25242 155.658695 
L 207.658644 150.995364 
L 208.064868 170.243974 
L 208.471093 163.000344 
L 208.877317 161.003333 
L 209.283541 153.645863 
L 209.689765 160.853376 
L 210.095989 158.645094 
L 210.908438 160.654631 
L 211.314662 162.96444 
L 211.720886 155.629341 
L 212.12711 155.878386 
L 212.533334 159.260645 
L 212.939558 159.932989 
L 213.345783 159.140755 
L 213.752007 152.384975 
L 214.158231 152.528373 
L 214.564455 166.114447 
L 214.970679 151.444608 
L 215.376903 151.582719 
L 215.783136 159.576001 
L 216.18936 160.264405 
L 216.595584 156.239726 
L 217.001808 166.748607 
L 217.814256 153.605914 
L 218.220481 149.376539 
L 218.626705 153.951811 
L 219.032929 147.486928 
L 219.439153 158.403658 
L 219.845377 157.402366 
L 220.657826 139.714131 
L 221.06405 161.900474 
L 221.470274 148.775752 
L 221.876498 154.345648 
L 222.282722 146.695544 
L 222.688946 152.461633 
L 223.095171 147.383684 
L 223.501395 144.604123 
L 223.907619 146.509038 
L 224.313843 141.204725 
L 224.720067 158.362316 
L 225.126291 136.435716 
L 225.532516 150.982565 
L 225.93874 142.023889 
L 226.344964 144.637208 
L 226.751188 154.498268 
L 227.157412 153.124907 
L 227.563636 139.861779 
L 227.969861 146.796809 
L 228.376085 147.774989 
L 229.188533 154.44084 
L 229.594757 151.880304 
L 230.000981 141.72945 
L 230.407206 149.459414 
L 230.81343 146.143206 
L 231.219654 138.902711 
L 231.625878 145.509949 
L 232.032102 145.368443 
L 232.438326 151.808745 
L 232.84455 153.80598 
L 233.250775 137.736587 
L 233.656999 150.659964 
L 234.063223 127.333827 
L 234.469447 139.748961 
L 234.875671 139.389768 
L 235.281912 142.518153 
L 235.688136 135.279237 
L 236.09436 151.811612 
L 236.500584 152.179658 
L 236.906808 141.810297 
L 237.313032 144.619693 
L 237.719257 140.550284 
L 238.125481 151.777611 
L 238.531705 122.231012 
L 238.937929 127.857001 
L 239.344153 126.922909 
L 239.750377 147.715927 
L 240.156602 153.873702 
L 240.562826 133.083459 
L 240.96905 134.899811 
L 241.375274 143.819069 
L 241.781498 142.33546 
L 242.187722 142.779678 
L 242.593947 149.395988 
L 243.000171 144.990506 
L 243.406395 144.25315 
L 243.812619 118.194135 
L 244.218843 143.807588 
L 244.625067 139.237141 
L 245.031292 139.53909 
L 245.84374 133.343181 
L 246.249964 135.916593 
L 246.656188 150.855473 
L 247.468637 127.626086 
L 247.874861 124.656398 
L 248.281085 139.156165 
L 248.687309 138.142965 
L 249.093533 142.106944 
L 249.499757 119.968624 
L 249.905982 140.785006 
L 250.312206 124.576432 
L 250.71843 130.813245 
L 251.124654 127.744008 
L 251.530878 127.47067 
L 251.937102 128.496216 
L 252.343326 133.312005 
L 252.749551 127.243587 
L 253.155775 142.155382 
L 253.561999 122.738694 
L 253.968223 126.529967 
L 254.374447 127.026249 
L 254.780671 119.030858 
L 255.186896 127.44716 
L 255.59312 133.440638 
L 255.999344 134.661203 
L 256.405568 133.612275 
L 256.811792 138.670671 
L 257.218016 132.154557 
L 257.624241 127.749554 
L 258.030465 138.745492 
L 258.436689 125.769804 
L 258.842913 138.962802 
L 259.249137 130.093867 
L 259.655361 130.005955 
L 260.061586 130.604202 
L 260.46781 130.445548 
L 260.874034 112.234891 
L 261.280258 121.849607 
L 261.686482 141.713105 
L 262.092706 133.402875 
L 262.498931 129.823194 
L 262.905155 121.359808 
L 263.311379 130.479296 
L 264.123827 110.884532 
L 264.530068 114.95054 
L 264.936292 117.32457 
L 265.342516 112.915059 
L 265.74874 124.897823 
L 266.154964 120.807303 
L 266.561188 122.595468 
L 266.967413 123.72538 
L 267.373637 129.039285 
L 267.779861 123.452535 
L 268.186085 124.262153 
L 268.592309 119.776098 
L 268.998533 107.291539 
L 269.404758 114.560155 
L 269.810982 106.925553 
L 270.217206 124.013267 
L 270.62343 113.50316 
L 271.029654 130.727072 
L 271.435878 119.2658 
L 271.842103 122.753445 
L 272.248327 116.105019 
L 272.654551 120.939145 
L 273.060775 117.046889 
L 273.466999 116.080877 
L 273.873223 112.96244 
L 274.279447 113.012617 
L 274.685672 115.632796 
L 275.091896 111.701475 
L 275.49812 116.463036 
L 276.310568 112.629332 
L 276.716792 112.621438 
L 277.123017 112.293511 
L 277.529241 108.342703 
L 277.935465 115.679103 
L 278.341689 112.492048 
L 278.747913 106.924291 
L 279.154137 109.20413 
L 279.560362 112.297895 
L 279.966586 105.615217 
L 280.37281 109.023389 
L 280.779034 121.556907 
L 281.185258 110.984686 
L 281.591482 111.88874 
L 281.997707 93.944168 
L 282.403931 101.767132 
L 282.810155 117.555938 
L 283.216379 107.751204 
L 283.622603 101.243241 
L 284.028827 109.257392 
L 284.435052 108.573549 
L 284.841276 114.676898 
L 285.2475 112.695409 
L 285.653724 99.947186 
L 286.059948 106.597306 
L 286.466172 100.807514 
L 286.872397 100.336894 
L 287.278637 110.938984 
L 287.684861 102.438821 
L 288.091085 98.843697 
L 288.497309 111.454412 
L 288.903534 100.148928 
L 289.309758 92.085713 
L 289.715982 102.464274 
L 290.122206 101.102895 
L 290.52843 98.260862 
L 290.934654 101.192374 
L 291.340879 90.087467 
L 292.153327 104.771125 
L 292.559551 102.372551 
L 292.965775 102.294557 
L 293.371999 95.105046 
L 293.778223 103.276077 
L 294.184448 115.624249 
L 294.590672 91.063409 
L 294.996896 97.996223 
L 295.40312 107.909077 
L 295.809344 97.813755 
L 296.215568 104.275837 
L 296.621793 103.873883 
L 297.028001 95.241913 
L 297.434225 95.395514 
L 298.246673 89.411378 
L 298.652897 96.516041 
L 299.059121 93.973075 
L 299.465346 94.249149 
L 299.87157 114.447759 
L 300.277794 95.073486 
L 300.684018 95.286793 
L 301.090242 91.718749 
L 301.496466 99.138453 
L 301.902691 103.260409 
L 302.308915 80.666311 
L 302.715139 88.594109 
L 303.121363 92.039768 
L 303.527603 93.681292 
L 303.933828 84.015406 
L 304.340052 91.915563 
L 304.746276 89.821618 
L 305.1525 99.149112 
L 305.558724 89.905343 
L 305.964948 94.967313 
L 306.371173 97.417515 
L 306.777397 91.159981 
L 307.183621 96.882957 
L 307.589845 99.522728 
L 307.996069 86.065408 
L 308.402293 97.386436 
L 308.808518 89.641859 
L 309.214742 103.218655 
L 309.620966 86.402415 
L 310.02719 90.602967 
L 310.433414 90.924835 
L 310.839638 95.496189 
L 311.245863 93.722862 
L 311.652087 85.572749 
L 312.464535 81.690948 
L 312.870759 91.165518 
L 313.276983 87.699873 
L 313.683208 80.715454 
L 314.089432 88.641049 
L 314.495656 89.639623 
L 314.90188 77.201563 
L 315.308104 86.960014 
L 315.714328 80.018055 
L 316.120553 80.847866 
L 316.526777 90.04875 
L 316.933001 80.711736 
L 317.339225 85.754889 
L 317.745449 97.157661 
L 318.151673 85.872057 
L 318.557897 93.690413 
L 318.964122 77.28548 
L 319.370346 90.389267 
L 319.77657 88.496576 
L 320.182794 78.267641 
L 320.995242 88.19399 
L 321.401467 71.054424 
L 321.807691 86.825856 
L 322.213915 86.301612 
L 322.620139 73.865627 
L 323.026363 77.769115 
L 323.432587 85.036436 
L 323.838812 82.212851 
L 324.245036 76.972219 
L 324.65126 81.258267 
L 325.057484 74.254094 
L 325.463708 86.175941 
L 325.869932 83.302571 
L 326.276157 79.078794 
L 326.682381 83.891538 
L 327.088605 82.293867 
L 327.494829 71.111846 
L 327.901053 91.49641 
L 328.307277 68.700827 
L 328.713502 82.132781 
L 329.119726 90.147654 
L 329.525966 89.088404 
L 329.93219 60.179069 
L 330.338414 71.311337 
L 330.744639 74.457824 
L 331.150863 90.316025 
L 331.557087 71.482233 
L 332.369535 93.88382 
L 333.181984 70.123066 
L 333.588208 82.431415 
L 333.994432 85.719345 
L 334.400656 87.099574 
L 334.80688 78.690761 
L 335.213104 85.712341 
L 335.619329 66.551335 
L 336.025553 80.756664 
L 336.838001 71.440398 
L 337.244225 69.464752 
L 337.650449 69.378022 
L 338.056674 78.306318 
L 338.462898 93.115752 
L 338.869122 86.738027 
L 339.275346 72.117033 
L 339.68157 75.47766 
L 340.087794 75.995356 
L 340.494018 74.759848 
L 340.900243 76.203421 
L 341.306467 73.62185 
L 341.712691 76.317384 
L 342.525139 74.35 
L 342.931363 86.372754 
L 343.337588 86.516145 
L 343.743812 77.875889 
L 344.55626 72.498951 
L 344.962484 89.049951 
L 345.368708 76.714433 
L 345.774933 74.048905 
L 346.181157 70.070059 
L 346.587381 81.28481 
L 346.993605 85.385055 
L 347.399829 76.701378 
L 347.806053 81.004656 
L 348.212278 62.951571 
L 348.618502 74.299166 
L 349.024726 63.573043 
L 349.43095 82.034686 
L 349.837174 83.671347 
L 350.243398 90.779593 
L 350.649623 71.174862 
L 351.462071 78.612758 
L 351.868295 71.380139 
L 352.274519 67.142658 
L 353.086968 77.638523 
L 353.493192 55.8 
L 353.899416 72.736525 
L 354.30564 68.366985 
L 354.711864 77.227545 
L 355.118088 76.160898 
L 355.524329 74.404569 
L 355.930553 85.636663 
L 356.743001 70.959688 
L 357.149225 70.23383 
L 357.961674 80.787046 
L 358.367898 78.776641 
L 358.774122 78.899933 
L 359.180346 76.569376 
L 359.58657 79.664531 
L 359.992794 77.434697 
L 360.399019 74.523508 
L 360.805243 66.479872 
L 361.617691 80.181089 
L 362.023915 76.830744 
L 362.430139 69.786011 
L 362.836364 80.142268 
L 363.242588 81.401465 
L 363.648812 71.132227 
L 364.055036 74.867784 
L 364.46126 83.598882 
L 364.867484 80.078699 
L 365.273709 74.365171 
L 365.679933 91.750886 
L 366.086157 72.520541 
L 366.492381 62.580512 
L 366.898605 84.520014 
L 367.304829 76.363089 
L 367.711054 63.750094 
L 368.117278 75.160921 
L 368.929726 66.23301 
L 369.742174 76.833998 
L 370.148399 69.352913 
L 370.554623 78.683764 
L 370.960847 72.025895 
L 371.367071 78.11412 
L 371.773295 80.400968 
L 372.585744 75.182648 
L 372.991968 85.002616 
L 373.398192 74.015309 
L 373.804416 73.834292 
L 374.21064 80.452179 
L 374.616864 71.475092 
L 375.023089 81.823776 
L 375.429313 80.463615 
L 375.835537 86.080764 
L 376.241761 70.301206 
L 376.647985 93.045587 
L 377.054209 81.045417 
L 377.460434 74.164783 
L 377.866658 85.194493 
L 378.272882 78.184181 
L 378.679106 85.234716 
L 379.08533 76.990756 
L 379.491554 83.725643 
L 379.897779 72.970381 
L 380.304003 77.665515 
L 380.710227 71.31645 
L 381.116451 79.336789 
L 381.522675 90.545921 
L 381.928899 65.173407 
L 382.335124 84.224257 
L 382.741348 79.196636 
L 383.147572 77.747293 
L 383.553796 72.215175 
L 383.96002 71.302048 
L 384.366244 85.366438 
L 384.772468 83.231685 
L 385.178693 84.159975 
L 385.584917 89.563889 
L 385.991141 85.502592 
L 386.397365 82.594145 
L 386.803589 80.895462 
L 387.209813 83.706048 
L 387.616038 83.00453 
L 388.428502 75.985562 
L 388.834726 86.989442 
L 389.24095 80.578651 
L 389.647175 93.073428 
L 390.053399 83.954113 
L 390.459623 87.2896 
L 390.865847 82.198634 
L 391.272071 85.759825 
L 391.678295 77.975795 
L 392.08452 80.076287 
L 392.490744 86.076508 
L 392.896968 86.540733 
L 393.303192 76.697708 
L 393.709416 72.488957 
L 394.11564 96.864637 
L 394.928089 79.136994 
L 395.334313 88.755821 
L 395.740537 76.126741 
L 396.146761 74.948007 
L 396.552985 93.006125 
L 396.95921 99.759204 
L 397.365434 103.371486 
L 397.771658 86.378661 
L 398.177882 91.828713 
L 398.584106 86.116251 
L 398.99033 105.697812 
L 399.396555 91.948453 
L 399.802779 92.686685 
L 400.209003 96.659071 
L 400.615227 88.723523 
L 401.021467 99.301711 
L 401.427691 92.261963 
L 401.833916 98.60109 
L 402.24014 82.521984 
L 402.646364 102.029574 
L 403.052588 101.21794 
L 403.458812 96.719723 
L 403.865036 99.324784 
L 404.677485 111.674283 
L 405.083709 85.714994 
L 405.489933 98.929642 
L 405.896157 96.872771 
L 406.302381 98.550993 
L 406.708606 102.06466 
L 407.11483 99.106244 
L 407.521054 91.06159 
L 408.333502 108.533514 
L 408.739726 103.838428 
L 409.552175 90.631113 
L 409.958399 94.176172 
L 410.364623 94.06701 
L 410.770847 116.618035 
L 411.177071 98.808923 
L 411.583296 88.801686 
L 411.98952 94.423964 
L 412.395744 94.705616 
L 412.801968 103.888493 
L 413.208192 101.638695 
L 413.614416 106.101032 
L 414.020641 100.672426 
L 414.426865 93.332096 
L 414.833089 94.326872 
L 415.239313 108.299346 
L 415.645537 111.025029 
L 416.051761 116.446899 
L 416.86421 99.36084 
L 417.270434 100.993894 
L 417.676658 114.250969 
L 418.082882 112.748279 
L 418.489106 107.245954 
L 418.895331 111.084848 
L 419.301555 119.632363 
L 419.707779 106.59079 
L 420.114003 113.747038 
L 420.520227 112.550961 
L 420.926451 104.073421 
L 421.332676 107.226632 
L 421.7389 120.068414 
L 422.145124 111.531489 
L 422.551348 112.156608 
L 422.957572 116.172343 
L 423.363796 108.00411 
L 424.176245 119.53527 
L 424.582469 119.043236 
L 424.988693 120.809639 
L 425.394917 113.897421 
L 425.801141 127.387787 
L 426.207365 113.824616 
L 426.61359 115.703202 
L 427.019814 118.603703 
L 427.426038 117.644058 
L 427.832262 116.033328 
L 428.238486 118.339614 
L 428.64471 121.922869 
L 429.050935 130.601633 
L 429.457159 118.072896 
L 430.269607 124.074328 
L 430.675847 130.530299 
L 431.082055 123.380635 
L 431.488296 133.170754 
L 431.894504 118.540567 
L 432.300744 140.603389 
L 432.706952 120.788461 
L 433.113192 131.652533 
L 433.5194 128.860271 
L 433.925641 122.032452 
L 434.331849 134.823118 
L 434.738089 134.94901 
L 435.144297 123.771053 
L 435.550537 134.78154 
L 435.956745 127.624395 
L 436.769194 140.898814 
L 437.175434 142.671119 
L 437.581642 129.302124 
L 437.987882 145.038714 
L 438.39409 142.563051 
L 439.206539 132.312273 
L 439.612779 131.329607 
L 440.018987 147.237931 
L 440.425227 128.523665 
L 440.831435 148.338439 
L 441.237676 141.69151 
L 441.643884 137.117343 
L 442.050124 152.07482 
L 442.456332 152.731675 
L 442.862572 147.969177 
L 443.675021 154.16957 
L 444.081229 161.043872 
L 444.487469 153.382429 
L 444.893677 152.576651 
L 445.299917 146.254756 
L 446.112366 154.111913 
L 446.518574 164.38815 
L 446.924814 152.220494 
L 447.331022 153.760481 
L 447.737262 172.794327 
L 448.14347 157.893528 
L 448.549711 155.728572 
L 448.955919 162.38605 
L 449.362159 151.902453 
L 449.768399 161.2795 
L 450.17464 163.650626 
L 450.580848 167.231548 
L 450.987088 165.023921 
L 451.393296 168.059136 
L 451.799536 169.718357 
L 452.205744 170.473708 
L 452.611985 160.238377 
L 453.018193 161.578339 
L 453.424433 161.362401 
L 453.830641 164.075108 
L 454.236881 170.070492 
L 454.643089 162.011032 
L 455.455538 178.016464 
L 455.861778 170.048197 
L 456.267986 171.909255 
L 456.674226 180.120557 
L 457.080434 170.275061 
L 457.892883 179.413528 
L 458.299123 189.866866 
L 459.111571 179.873127 
L 459.517779 183.05331 
L 459.924019 177.545957 
L 460.330228 182.267635 
L 460.736468 176.363531 
L 461.142676 191.759813 
L 461.548916 184.556186 
L 461.955124 201.481843 
L 462.361364 179.835617 
L 462.767573 192.493989 
L 463.173813 192.655144 
L 463.580021 205.347692 
L 463.986261 200.353174 
L 464.392469 190.930636 
L 464.798709 195.380095 
L 465.204917 206.303336 
L 465.611158 213.834019 
L 466.017366 209.316632 
L 466.423606 197.162006 
L 466.829814 203.154471 
L 467.236054 201.925766 
L 467.642262 201.121775 
L 468.048503 207.527658 
L 468.454711 207.474215 
L 468.860951 219.387583 
L 469.267159 207.345113 
L 469.673399 210.959656 
L 470.079607 202.678209 
L 470.485848 222.903261 
L 470.892056 222.250285 
L 471.298296 216.326768 
L 471.704504 229.411854 
L 472.110744 211.043809 
L 472.516952 213.133947 
L 472.923193 214.348693 
L 473.329401 221.217354 
L 473.735641 221.963548 
L 474.141849 219.31961 
L 474.548089 219.311636 
L 474.954297 211.189817 
L 475.360538 223.365278 
L 475.766746 225.93801 
L 476.172986 220.117463 
L 476.579194 220.55254 
L 476.985434 224.499482 
L 477.391642 236.505542 
L 477.797883 235.535014 
L 479.016539 240.21767 
L 480.235228 258.676957 
L 480.641436 243.117398 
L 481.047676 255.616487 
L 481.453884 241.524143 
L 481.860124 258.544466 
L 482.266332 254.056227 
L 482.672573 245.842817 
L 483.891229 253.043916 
L 484.297469 248.631853 
L 484.703677 257.568291 
L 485.109918 256.933868 
L 485.516126 259.933301 
L 485.922366 267.02418 
L 486.328574 262.087681 
L 486.734814 269.007432 
L 487.141022 259.210184 
L 487.953471 270.855957 
L 488.359711 270.425376 
L 488.765919 268.348005 
L 489.172159 268.525031 
L 489.578367 264.240963 
L 489.984608 265.672627 
L 490.390816 276.417687 
L 490.797056 272.112309 
L 491.203264 286.813366 
L 491.609504 288.192128 
L 492.015712 276.145908 
L 492.421953 268.950459 
L 492.828161 286.02067 
L 493.234401 275.385052 
L 493.640609 286.94363 
L 494.046849 289.845354 
L 494.453057 281.845147 
L 494.859298 286.868296 
L 495.265506 296.007326 
L 495.671746 292.733598 
L 496.077954 307.8 
L 496.484194 297.533839 
L 496.890402 303.991369 
L 497.296643 303.070973 
L 497.702851 301.056786 
L 498.109091 304.10921 
L 498.109091 304.10921 
" clip-path="url(#pc024201e7b)" style="fill: none; stroke: #e24a33; stroke-width: 1.5; stroke-linecap: square"/>
   </g>
   <g id="line2d_32">
    <path d="M 92.290909 166.522594 
L 126.413759 167.370804 
L 161.349058 168.460217 
L 196.690584 169.784025 
L 231.625878 171.315893 
L 266.967413 173.089774 
L 307.996069 175.38146 
L 427.832262 182.223804 
L 467.236054 184.155105 
L 498.109091 185.504543 
L 498.109091 185.504543 
" clip-path="url(#pc024201e7b)" style="fill: none; stroke: #348abd; stroke-width: 1.5; stroke-linecap: square"/>
   </g>
   <g id="line2d_33">
    <path d="M 92.290909 218.770991 
L 117.070599 217.366896 
L 149.162325 215.304993 
L 197.503032 212.195872 
L 218.626705 211.078194 
L 236.500584 210.35208 
L 252.749551 209.914406 
L 267.779861 209.728063 
L 282.403931 209.767666 
L 296.621793 210.026349 
L 310.839638 210.506843 
L 325.057484 211.207784 
L 339.68157 212.151257 
L 354.711864 213.342105 
L 370.554623 214.818184 
L 388.022278 216.674782 
L 407.521054 218.979794 
L 430.675847 221.95115 
L 463.986261 226.474363 
L 498.109091 231.162464 
L 498.109091 231.162464 
" clip-path="url(#pc024201e7b)" style="fill: none; stroke: #988ed5; stroke-width: 1.5; stroke-linecap: square"/>
   </g>
   <g id="line2d_34">
    <path d="M 92.290909 261.785528 
L 140.225391 258.466904 
L 178.816706 256.017111 
L 214.564455 253.973071 
L 249.093533 252.222032 
L 284.028827 250.674161 
L 320.182794 249.296754 
L 358.367898 248.065767 
L 399.802779 246.954312 
L 446.518574 245.930982 
L 498.109091 245.020716 
L 498.109091 245.020716 
" clip-path="url(#pc024201e7b)" style="fill: none; stroke: #777777; stroke-width: 1.5; stroke-linecap: square"/>
   </g>
   <g id="line2d_35">
    <path d="M 92.290909 159.363601 
L 109.758556 162.413109 
L 132.507126 166.62776 
L 181.660282 175.800732 
L 200.752825 179.09422 
L 218.220481 181.886319 
L 235.281912 184.390609 
L 252.749551 186.727389 
L 271.029654 188.944026 
L 290.52843 191.082856 
L 312.464535 193.260778 
L 338.056674 195.568807 
L 368.523502 198.084725 
L 404.677485 200.842088 
L 443.26878 203.563969 
L 481.047676 206.007911 
L 498.109091 207.036906 
L 498.109091 207.036906 
" clip-path="url(#pc024201e7b)" style="fill: none; stroke: #fbc15e; stroke-width: 1.5; stroke-linecap: square"/>
   </g>
   <g id="patch_3">
    <path d="M 72 320.4 
L 72 43.2 
" style="fill: none; stroke: #ffffff; stroke-linejoin: miter; stroke-linecap: square"/>
   </g>
   <g id="patch_4">
    <path d="M 518.4 320.4 
L 518.4 43.2 
" style="fill: none; stroke: #ffffff; stroke-linejoin: miter; stroke-linecap: square"/>
   </g>
   <g id="patch_5">
    <path d="M 72 320.4 
L 518.4 320.4 
" style="fill: none; stroke: #ffffff; stroke-linejoin: miter; stroke-linecap: square"/>
   </g>
   <g id="patch_6">
    <path d="M 72 43.2 
L 518.4 43.2 
" style="fill: none; stroke: #ffffff; stroke-linejoin: miter; stroke-linecap: square"/>
   </g>
   <g id="text_16">
    <!-- Prediction Curves -->
    <g transform="translate(232.153875 37.2)scale(0.144 -0.144)">
     <defs>
      <path id="DejaVuSans-50" d="M 1259 4147 
L 1259 2394 
L 2053 2394 
Q 2494 2394 2734 2622 
Q 2975 2850 2975 3272 
Q 2975 3691 2734 3919 
Q 2494 4147 2053 4147 
L 1259 4147 
z
M 628 4666 
L 2053 4666 
Q 2838 4666 3239 4311 
Q 3641 3956 3641 3272 
Q 3641 2581 3239 2228 
Q 2838 1875 2053 1875 
L 1259 1875 
L 1259 0 
L 628 0 
L 628 4666 
z
" transform="scale(0.015625)"/>
      <path id="DejaVuSans-72" d="M 2631 2963 
Q 2534 3019 2420 3045 
Q 2306 3072 2169 3072 
Q 1681 3072 1420 2755 
Q 1159 2438 1159 1844 
L 1159 0 
L 581 0 
L 581 3500 
L 1159 3500 
L 1159 2956 
Q 1341 3275 1631 3429 
Q 1922 3584 2338 3584 
Q 2397 3584 2469 3576 
Q 2541 3569 2628 3553 
L 2631 2963 
z
" transform="scale(0.015625)"/>
      <path id="DejaVuSans-65" d="M 3597 1894 
L 3597 1613 
L 953 1613 
Q 991 1019 1311 708 
Q 1631 397 2203 397 
Q 2534 397 2845 478 
Q 3156 559 3463 722 
L 3463 178 
Q 3153 47 2828 -22 
Q 2503 -91 2169 -91 
Q 1331 -91 842 396 
Q 353 884 353 1716 
Q 353 2575 817 3079 
Q 1281 3584 2069 3584 
Q 2775 3584 3186 3129 
Q 3597 2675 3597 1894 
z
M 3022 2063 
Q 3016 2534 2758 2815 
Q 2500 3097 2075 3097 
Q 1594 3097 1305 2825 
Q 1016 2553 972 2059 
L 3022 2063 
z
" transform="scale(0.015625)"/>
      <path id="DejaVuSans-64" d="M 2906 2969 
L 2906 4863 
L 3481 4863 
L 3481 0 
L 2906 0 
L 2906 525 
Q 2725 213 2448 61 
Q 2172 -91 1784 -91 
Q 1150 -91 751 415 
Q 353 922 353 1747 
Q 353 2572 751 3078 
Q 1150 3584 1784 3584 
Q 2172 3584 2448 3432 
Q 2725 3281 2906 2969 
z
M 947 1747 
Q 947 1113 1208 752 
Q 1469 391 1925 391 
Q 2381 391 2643 752 
Q 2906 1113 2906 1747 
Q 2906 2381 2643 2742 
Q 2381 3103 1925 3103 
Q 1469 3103 1208 2742 
Q 947 2381 947 1747 
z
" transform="scale(0.015625)"/>
      <path id="DejaVuSans-69" d="M 603 3500 
L 1178 3500 
L 1178 0 
L 603 0 
L 603 3500 
z
M 603 4863 
L 1178 4863 
L 1178 4134 
L 603 4134 
L 603 4863 
z
" transform="scale(0.015625)"/>
      <path id="DejaVuSans-63" d="M 3122 3366 
L 3122 2828 
Q 2878 2963 2633 3030 
Q 2388 3097 2138 3097 
Q 1578 3097 1268 2742 
Q 959 2388 959 1747 
Q 959 1106 1268 751 
Q 1578 397 2138 397 
Q 2388 397 2633 464 
Q 2878 531 3122 666 
L 3122 134 
Q 2881 22 2623 -34 
Q 2366 -91 2075 -91 
Q 1284 -91 818 406 
Q 353 903 353 1747 
Q 353 2603 823 3093 
Q 1294 3584 2113 3584 
Q 2378 3584 2631 3529 
Q 2884 3475 3122 3366 
z
" transform="scale(0.015625)"/>
      <path id="DejaVuSans-74" d="M 1172 4494 
L 1172 3500 
L 2356 3500 
L 2356 3053 
L 1172 3053 
L 1172 1153 
Q 1172 725 1289 603 
Q 1406 481 1766 481 
L 2356 481 
L 2356 0 
L 1766 0 
Q 1100 0 847 248 
Q 594 497 594 1153 
L 594 3053 
L 172 3053 
L 172 3500 
L 594 3500 
L 594 4494 
L 1172 4494 
z
" transform="scale(0.015625)"/>
      <path id="DejaVuSans-6f" d="M 1959 3097 
Q 1497 3097 1228 2736 
Q 959 2375 959 1747 
Q 959 1119 1226 758 
Q 1494 397 1959 397 
Q 2419 397 2687 759 
Q 2956 1122 2956 1747 
Q 2956 2369 2687 2733 
Q 2419 3097 1959 3097 
z
M 1959 3584 
Q 2709 3584 3137 3096 
Q 3566 2609 3566 1747 
Q 3566 888 3137 398 
Q 2709 -91 1959 -91 
Q 1206 -91 779 398 
Q 353 888 353 1747 
Q 353 2609 779 3096 
Q 1206 3584 1959 3584 
z
" transform="scale(0.015625)"/>
      <path id="DejaVuSans-6e" d="M 3513 2113 
L 3513 0 
L 2938 0 
L 2938 2094 
Q 2938 2591 2744 2837 
Q 2550 3084 2163 3084 
Q 1697 3084 1428 2787 
Q 1159 2491 1159 1978 
L 1159 0 
L 581 0 
L 581 3500 
L 1159 3500 
L 1159 2956 
Q 1366 3272 1645 3428 
Q 1925 3584 2291 3584 
Q 2894 3584 3203 3211 
Q 3513 2838 3513 2113 
z
" transform="scale(0.015625)"/>
      <path id="DejaVuSans-20" transform="scale(0.015625)"/>
      <path id="DejaVuSans-43" d="M 4122 4306 
L 4122 3641 
Q 3803 3938 3442 4084 
Q 3081 4231 2675 4231 
Q 1875 4231 1450 3742 
Q 1025 3253 1025 2328 
Q 1025 1406 1450 917 
Q 1875 428 2675 428 
Q 3081 428 3442 575 
Q 3803 722 4122 1019 
L 4122 359 
Q 3791 134 3420 21 
Q 3050 -91 2638 -91 
Q 1578 -91 968 557 
Q 359 1206 359 2328 
Q 359 3453 968 4101 
Q 1578 4750 2638 4750 
Q 3056 4750 3426 4639 
Q 3797 4528 4122 4306 
z
" transform="scale(0.015625)"/>
      <path id="DejaVuSans-75" d="M 544 1381 
L 544 3500 
L 1119 3500 
L 1119 1403 
Q 1119 906 1312 657 
Q 1506 409 1894 409 
Q 2359 409 2629 706 
Q 2900 1003 2900 1516 
L 2900 3500 
L 3475 3500 
L 3475 0 
L 2900 0 
L 2900 538 
Q 2691 219 2414 64 
Q 2138 -91 1772 -91 
Q 1169 -91 856 284 
Q 544 659 544 1381 
z
M 1991 3584 
L 1991 3584 
z
" transform="scale(0.015625)"/>
      <path id="DejaVuSans-76" d="M 191 3500 
L 800 3500 
L 1894 563 
L 2988 3500 
L 3597 3500 
L 2284 0 
L 1503 0 
L 191 3500 
z
" transform="scale(0.015625)"/>
      <path id="DejaVuSans-73" d="M 2834 3397 
L 2834 2853 
Q 2591 2978 2328 3040 
Q 2066 3103 1784 3103 
Q 1356 3103 1142 2972 
Q 928 2841 928 2578 
Q 928 2378 1081 2264 
Q 1234 2150 1697 2047 
L 1894 2003 
Q 2506 1872 2764 1633 
Q 3022 1394 3022 966 
Q 3022 478 2636 193 
Q 2250 -91 1575 -91 
Q 1294 -91 989 -36 
Q 684 19 347 128 
L 347 722 
Q 666 556 975 473 
Q 1284 391 1588 391 
Q 1994 391 2212 530 
Q 2431 669 2431 922 
Q 2431 1156 2273 1281 
Q 2116 1406 1581 1522 
L 1381 1569 
Q 847 1681 609 1914 
Q 372 2147 372 2553 
Q 372 3047 722 3315 
Q 1072 3584 1716 3584 
Q 2034 3584 2315 3537 
Q 2597 3491 2834 3397 
z
" transform="scale(0.015625)"/>
     </defs>
     <use xlink:href="#DejaVuSans-50"/>
     <use xlink:href="#DejaVuSans-72" x="58.552734"/>
     <use xlink:href="#DejaVuSans-65" x="97.416016"/>
     <use xlink:href="#DejaVuSans-64" x="158.939453"/>
     <use xlink:href="#DejaVuSans-69" x="222.416016"/>
     <use xlink:href="#DejaVuSans-63" x="250.199219"/>
     <use xlink:href="#DejaVuSans-74" x="305.179688"/>
     <use xlink:href="#DejaVuSans-69" x="344.388672"/>
     <use xlink:href="#DejaVuSans-6f" x="372.171875"/>
     <use xlink:href="#DejaVuSans-6e" x="433.353516"/>
     <use xlink:href="#DejaVuSans-20" x="496.732422"/>
     <use xlink:href="#DejaVuSans-43" x="528.519531"/>
     <use xlink:href="#DejaVuSans-75" x="598.34375"/>
     <use xlink:href="#DejaVuSans-72" x="661.722656"/>
     <use xlink:href="#DejaVuSans-76" x="702.835938"/>
     <use xlink:href="#DejaVuSans-65" x="762.015625"/>
     <use xlink:href="#DejaVuSans-73" x="823.539062"/>
    </g>
   </g>
   <g id="legend_1">
    <g id="patch_7">
     <path d="M 79 124.590625 
L 222.94375 124.590625 
Q 224.94375 124.590625 224.94375 122.590625 
L 224.94375 50.2 
Q 224.94375 48.2 222.94375 48.2 
L 79 48.2 
Q 77 48.2 77 50.2 
L 77 122.590625 
Q 77 124.590625 79 124.590625 
z
" style="fill: #e5e5e5; opacity: 0.8; stroke: #cccccc; stroke-width: 0.5; stroke-linejoin: miter"/>
    </g>
    <g id="line2d_36">
     <path d="M 81 56.298437 
L 91 56.298437 
L 101 56.298437 
" style="fill: none; stroke: #e24a33; stroke-width: 1.5; stroke-linecap: square"/>
    </g>
    <g id="text_17">
     <!-- Function with noise -->
     <g transform="translate(109 59.798437)scale(0.1 -0.1)">
      <defs>
       <path id="DejaVuSans-46" d="M 628 4666 
L 3309 4666 
L 3309 4134 
L 1259 4134 
L 1259 2759 
L 3109 2759 
L 3109 2228 
L 1259 2228 
L 1259 0 
L 628 0 
L 628 4666 
z
" transform="scale(0.015625)"/>
       <path id="DejaVuSans-77" d="M 269 3500 
L 844 3500 
L 1563 769 
L 2278 3500 
L 2956 3500 
L 3675 769 
L 4391 3500 
L 4966 3500 
L 4050 0 
L 3372 0 
L 2619 2869 
L 1863 0 
L 1184 0 
L 269 3500 
z
" transform="scale(0.015625)"/>
       <path id="DejaVuSans-68" d="M 3513 2113 
L 3513 0 
L 2938 0 
L 2938 2094 
Q 2938 2591 2744 2837 
Q 2550 3084 2163 3084 
Q 1697 3084 1428 2787 
Q 1159 2491 1159 1978 
L 1159 0 
L 581 0 
L 581 4863 
L 1159 4863 
L 1159 2956 
Q 1366 3272 1645 3428 
Q 1925 3584 2291 3584 
Q 2894 3584 3203 3211 
Q 3513 2838 3513 2113 
z
" transform="scale(0.015625)"/>
      </defs>
      <use xlink:href="#DejaVuSans-46"/>
      <use xlink:href="#DejaVuSans-75" x="52.019531"/>
      <use xlink:href="#DejaVuSans-6e" x="115.398438"/>
      <use xlink:href="#DejaVuSans-63" x="178.777344"/>
      <use xlink:href="#DejaVuSans-74" x="233.757812"/>
      <use xlink:href="#DejaVuSans-69" x="272.966797"/>
      <use xlink:href="#DejaVuSans-6f" x="300.75"/>
      <use xlink:href="#DejaVuSans-6e" x="361.931641"/>
      <use xlink:href="#DejaVuSans-20" x="425.310547"/>
      <use xlink:href="#DejaVuSans-77" x="457.097656"/>
      <use xlink:href="#DejaVuSans-69" x="538.884766"/>
      <use xlink:href="#DejaVuSans-74" x="566.667969"/>
      <use xlink:href="#DejaVuSans-68" x="605.876953"/>
      <use xlink:href="#DejaVuSans-20" x="669.255859"/>
      <use xlink:href="#DejaVuSans-6e" x="701.042969"/>
      <use xlink:href="#DejaVuSans-6f" x="764.421875"/>
      <use xlink:href="#DejaVuSans-69" x="825.603516"/>
      <use xlink:href="#DejaVuSans-73" x="853.386719"/>
      <use xlink:href="#DejaVuSans-65" x="905.486328"/>
     </g>
    </g>
    <g id="line2d_37">
     <path d="M 81 70.976562 
L 91 70.976562 
L 101 70.976562 
" style="fill: none; stroke: #348abd; stroke-width: 1.5; stroke-linecap: square"/>
    </g>
    <g id="text_18">
     <!-- Average of Predictions -->
     <g transform="translate(109 74.476562)scale(0.1 -0.1)">
      <defs>
       <path id="DejaVuSans-41" d="M 2188 4044 
L 1331 1722 
L 3047 1722 
L 2188 4044 
z
M 1831 4666 
L 2547 4666 
L 4325 0 
L 3669 0 
L 3244 1197 
L 1141 1197 
L 716 0 
L 50 0 
L 1831 4666 
z
" transform="scale(0.015625)"/>
       <path id="DejaVuSans-61" d="M 2194 1759 
Q 1497 1759 1228 1600 
Q 959 1441 959 1056 
Q 959 750 1161 570 
Q 1363 391 1709 391 
Q 2188 391 2477 730 
Q 2766 1069 2766 1631 
L 2766 1759 
L 2194 1759 
z
M 3341 1997 
L 3341 0 
L 2766 0 
L 2766 531 
Q 2569 213 2275 61 
Q 1981 -91 1556 -91 
Q 1019 -91 701 211 
Q 384 513 384 1019 
Q 384 1609 779 1909 
Q 1175 2209 1959 2209 
L 2766 2209 
L 2766 2266 
Q 2766 2663 2505 2880 
Q 2244 3097 1772 3097 
Q 1472 3097 1187 3025 
Q 903 2953 641 2809 
L 641 3341 
Q 956 3463 1253 3523 
Q 1550 3584 1831 3584 
Q 2591 3584 2966 3190 
Q 3341 2797 3341 1997 
z
" transform="scale(0.015625)"/>
       <path id="DejaVuSans-67" d="M 2906 1791 
Q 2906 2416 2648 2759 
Q 2391 3103 1925 3103 
Q 1463 3103 1205 2759 
Q 947 2416 947 1791 
Q 947 1169 1205 825 
Q 1463 481 1925 481 
Q 2391 481 2648 825 
Q 2906 1169 2906 1791 
z
M 3481 434 
Q 3481 -459 3084 -895 
Q 2688 -1331 1869 -1331 
Q 1566 -1331 1297 -1286 
Q 1028 -1241 775 -1147 
L 775 -588 
Q 1028 -725 1275 -790 
Q 1522 -856 1778 -856 
Q 2344 -856 2625 -561 
Q 2906 -266 2906 331 
L 2906 616 
Q 2728 306 2450 153 
Q 2172 0 1784 0 
Q 1141 0 747 490 
Q 353 981 353 1791 
Q 353 2603 747 3093 
Q 1141 3584 1784 3584 
Q 2172 3584 2450 3431 
Q 2728 3278 2906 2969 
L 2906 3500 
L 3481 3500 
L 3481 434 
z
" transform="scale(0.015625)"/>
       <path id="DejaVuSans-66" d="M 2375 4863 
L 2375 4384 
L 1825 4384 
Q 1516 4384 1395 4259 
Q 1275 4134 1275 3809 
L 1275 3500 
L 2222 3500 
L 2222 3053 
L 1275 3053 
L 1275 0 
L 697 0 
L 697 3053 
L 147 3053 
L 147 3500 
L 697 3500 
L 697 3744 
Q 697 4328 969 4595 
Q 1241 4863 1831 4863 
L 2375 4863 
z
" transform="scale(0.015625)"/>
      </defs>
      <use xlink:href="#DejaVuSans-41"/>
      <use xlink:href="#DejaVuSans-76" x="62.533203"/>
      <use xlink:href="#DejaVuSans-65" x="121.712891"/>
      <use xlink:href="#DejaVuSans-72" x="183.236328"/>
      <use xlink:href="#DejaVuSans-61" x="224.349609"/>
      <use xlink:href="#DejaVuSans-67" x="285.628906"/>
      <use xlink:href="#DejaVuSans-65" x="349.105469"/>
      <use xlink:href="#DejaVuSans-20" x="410.628906"/>
      <use xlink:href="#DejaVuSans-6f" x="442.416016"/>
      <use xlink:href="#DejaVuSans-66" x="503.597656"/>
      <use xlink:href="#DejaVuSans-20" x="538.802734"/>
      <use xlink:href="#DejaVuSans-50" x="570.589844"/>
      <use xlink:href="#DejaVuSans-72" x="629.142578"/>
      <use xlink:href="#DejaVuSans-65" x="668.005859"/>
      <use xlink:href="#DejaVuSans-64" x="729.529297"/>
      <use xlink:href="#DejaVuSans-69" x="793.005859"/>
      <use xlink:href="#DejaVuSans-63" x="820.789062"/>
      <use xlink:href="#DejaVuSans-74" x="875.769531"/>
      <use xlink:href="#DejaVuSans-69" x="914.978516"/>
      <use xlink:href="#DejaVuSans-6f" x="942.761719"/>
      <use xlink:href="#DejaVuSans-6e" x="1003.943359"/>
      <use xlink:href="#DejaVuSans-73" x="1067.322266"/>
     </g>
    </g>
    <g id="line2d_38">
     <path d="M 81 85.654687 
L 91 85.654687 
L 101 85.654687 
" style="fill: none; stroke: #988ed5; stroke-width: 1.5; stroke-linecap: square"/>
    </g>
    <g id="text_19">
     <!-- Prediction 1 -->
     <g transform="translate(109 89.154687)scale(0.1 -0.1)">
      <use xlink:href="#DejaVuSans-50"/>
      <use xlink:href="#DejaVuSans-72" x="58.552734"/>
      <use xlink:href="#DejaVuSans-65" x="97.416016"/>
      <use xlink:href="#DejaVuSans-64" x="158.939453"/>
      <use xlink:href="#DejaVuSans-69" x="222.416016"/>
      <use xlink:href="#DejaVuSans-63" x="250.199219"/>
      <use xlink:href="#DejaVuSans-74" x="305.179688"/>
      <use xlink:href="#DejaVuSans-69" x="344.388672"/>
      <use xlink:href="#DejaVuSans-6f" x="372.171875"/>
      <use xlink:href="#DejaVuSans-6e" x="433.353516"/>
      <use xlink:href="#DejaVuSans-20" x="496.732422"/>
      <use xlink:href="#DejaVuSans-31" x="528.519531"/>
     </g>
    </g>
    <g id="line2d_39">
     <path d="M 81 100.332812 
L 91 100.332812 
L 101 100.332812 
" style="fill: none; stroke: #777777; stroke-width: 1.5; stroke-linecap: square"/>
    </g>
    <g id="text_20">
     <!-- Prediction 2 -->
     <g transform="translate(109 103.832812)scale(0.1 -0.1)">
      <use xlink:href="#DejaVuSans-50"/>
      <use xlink:href="#DejaVuSans-72" x="58.552734"/>
      <use xlink:href="#DejaVuSans-65" x="97.416016"/>
      <use xlink:href="#DejaVuSans-64" x="158.939453"/>
      <use xlink:href="#DejaVuSans-69" x="222.416016"/>
      <use xlink:href="#DejaVuSans-63" x="250.199219"/>
      <use xlink:href="#DejaVuSans-74" x="305.179688"/>
      <use xlink:href="#DejaVuSans-69" x="344.388672"/>
      <use xlink:href="#DejaVuSans-6f" x="372.171875"/>
      <use xlink:href="#DejaVuSans-6e" x="433.353516"/>
      <use xlink:href="#DejaVuSans-20" x="496.732422"/>
      <use xlink:href="#DejaVuSans-32" x="528.519531"/>
     </g>
    </g>
    <g id="line2d_40">
     <path d="M 81 115.010937 
L 91 115.010937 
L 101 115.010937 
" style="fill: none; stroke: #fbc15e; stroke-width: 1.5; stroke-linecap: square"/>
    </g>
    <g id="text_21">
     <!-- Prediction 3 -->
     <g transform="translate(109 118.510937)scale(0.1 -0.1)">
      <use xlink:href="#DejaVuSans-50"/>
      <use xlink:href="#DejaVuSans-72" x="58.552734"/>
      <use xlink:href="#DejaVuSans-65" x="97.416016"/>
      <use xlink:href="#DejaVuSans-64" x="158.939453"/>
      <use xlink:href="#DejaVuSans-69" x="222.416016"/>
      <use xlink:href="#DejaVuSans-63" x="250.199219"/>
      <use xlink:href="#DejaVuSans-74" x="305.179688"/>
      <use xlink:href="#DejaVuSans-69" x="344.388672"/>
      <use xlink:href="#DejaVuSans-6f" x="372.171875"/>
      <use xlink:href="#DejaVuSans-6e" x="433.353516"/>
      <use xlink:href="#DejaVuSans-20" x="496.732422"/>
      <use xlink:href="#DejaVuSans-33" x="528.519531"/>
     </g>
    </g>
   </g>
  </g>
 </g>
 <defs>
  <clipPath id="pc024201e7b">
   <rect x="72" y="43.2" width="446.4" height="277.2"/>
  </clipPath>
 </defs>
</svg>
