<?xml version="1.0" encoding="utf-8" standalone="no"?>
<!DOCTYPE svg PUBLIC "-//W3C//DTD SVG 1.1//EN"
  "http://www.w3.org/Graphics/SVG/1.1/DTD/svg11.dtd">
<svg xmlns:xlink="http://www.w3.org/1999/xlink" width="360pt" height="360pt" viewBox="0 0 360 360" xmlns="http://www.w3.org/2000/svg" version="1.1">
 <metadata>
  <rdf:RDF xmlns:dc="http://purl.org/dc/elements/1.1/" xmlns:cc="http://creativecommons.org/ns#" xmlns:rdf="http://www.w3.org/1999/02/22-rdf-syntax-ns#">
   <cc:Work>
    <dc:type rdf:resource="http://purl.org/dc/dcmitype/StillImage"/>
    <dc:date>2022-11-10T20:22:03.431656</dc:date>
    <dc:format>image/svg+xml</dc:format>
    <dc:creator>
     <cc:Agent>
      <dc:title>Matplotlib v3.5.3, https://matplotlib.org/</dc:title>
     </cc:Agent>
    </dc:creator>
   </cc:Work>
  </rdf:RDF>
 </metadata>
 <defs>
  <style type="text/css">*{stroke-linejoin: round; stroke-linecap: butt}</style>
 </defs>
 <g id="figure_1">
  <g id="patch_1">
   <path d="M 0 360 
L 360 360 
L 360 0 
L 0 0 
z
" style="fill: #ffffff"/>
  </g>
  <g id="axes_1">
   <g id="patch_2">
    <path d="M 45 320.4 
L 324 320.4 
L 324 43.2 
L 45 43.2 
z
" style="fill: #ffffff"/>
   </g>
   <g id="matplotlib.axis_1">
    <g id="xtick_1">
     <g id="line2d_1">
      <defs>
       <path id="m1618c9ec0a" d="M 0 0 
L 0 3.5 
" style="stroke: #000000; stroke-width: 0.8"/>
      </defs>
      <g>
       <use xlink:href="#m1618c9ec0a" x="83.045455" y="320.4" style="stroke: #000000; stroke-width: 0.8"/>
      </g>
     </g>
     <g id="text_1">
      <!-- −2 -->
      <g transform="translate(75.674361 334.998438)scale(0.1 -0.1)">
       <defs>
        <path id="DejaVuSans-2212" d="M 678 2272 
L 4684 2272 
L 4684 1741 
L 678 1741 
L 678 2272 
z
" transform="scale(0.015625)"/>
        <path id="DejaVuSans-32" d="M 1228 531 
L 3431 531 
L 3431 0 
L 469 0 
L 469 531 
Q 828 903 1448 1529 
Q 2069 2156 2228 2338 
Q 2531 2678 2651 2914 
Q 2772 3150 2772 3378 
Q 2772 3750 2511 3984 
Q 2250 4219 1831 4219 
Q 1534 4219 1204 4116 
Q 875 4013 500 3803 
L 500 4441 
Q 881 4594 1212 4672 
Q 1544 4750 1819 4750 
Q 2544 4750 2975 4387 
Q 3406 4025 3406 3419 
Q 3406 3131 3298 2873 
Q 3191 2616 2906 2266 
Q 2828 2175 2409 1742 
Q 1991 1309 1228 531 
z
" transform="scale(0.015625)"/>
       </defs>
       <use xlink:href="#DejaVuSans-2212"/>
       <use xlink:href="#DejaVuSans-32" x="83.789062"/>
      </g>
     </g>
    </g>
    <g id="xtick_2">
     <g id="line2d_2">
      <g>
       <use xlink:href="#m1618c9ec0a" x="133.772727" y="320.4" style="stroke: #000000; stroke-width: 0.8"/>
      </g>
     </g>
     <g id="text_2">
      <!-- −1 -->
      <g transform="translate(126.401634 334.998438)scale(0.1 -0.1)">
       <defs>
        <path id="DejaVuSans-31" d="M 794 531 
L 1825 531 
L 1825 4091 
L 703 3866 
L 703 4441 
L 1819 4666 
L 2450 4666 
L 2450 531 
L 3481 531 
L 3481 0 
L 794 0 
L 794 531 
z
" transform="scale(0.015625)"/>
       </defs>
       <use xlink:href="#DejaVuSans-2212"/>
       <use xlink:href="#DejaVuSans-31" x="83.789062"/>
      </g>
     </g>
    </g>
    <g id="xtick_3">
     <g id="line2d_3">
      <g>
       <use xlink:href="#m1618c9ec0a" x="184.5" y="320.4" style="stroke: #000000; stroke-width: 0.8"/>
      </g>
     </g>
     <g id="text_3">
      <!-- 0 -->
      <g transform="translate(181.31875 334.998438)scale(0.1 -0.1)">
       <defs>
        <path id="DejaVuSans-30" d="M 2034 4250 
Q 1547 4250 1301 3770 
Q 1056 3291 1056 2328 
Q 1056 1369 1301 889 
Q 1547 409 2034 409 
Q 2525 409 2770 889 
Q 3016 1369 3016 2328 
Q 3016 3291 2770 3770 
Q 2525 4250 2034 4250 
z
M 2034 4750 
Q 2819 4750 3233 4129 
Q 3647 3509 3647 2328 
Q 3647 1150 3233 529 
Q 2819 -91 2034 -91 
Q 1250 -91 836 529 
Q 422 1150 422 2328 
Q 422 3509 836 4129 
Q 1250 4750 2034 4750 
z
" transform="scale(0.015625)"/>
       </defs>
       <use xlink:href="#DejaVuSans-30"/>
      </g>
     </g>
    </g>
    <g id="xtick_4">
     <g id="line2d_4">
      <g>
       <use xlink:href="#m1618c9ec0a" x="235.227273" y="320.4" style="stroke: #000000; stroke-width: 0.8"/>
      </g>
     </g>
     <g id="text_4">
      <!-- 1 -->
      <g transform="translate(232.046023 334.998438)scale(0.1 -0.1)">
       <use xlink:href="#DejaVuSans-31"/>
      </g>
     </g>
    </g>
    <g id="xtick_5">
     <g id="line2d_5">
      <g>
       <use xlink:href="#m1618c9ec0a" x="285.954545" y="320.4" style="stroke: #000000; stroke-width: 0.8"/>
      </g>
     </g>
     <g id="text_5">
      <!-- 2 -->
      <g transform="translate(282.773295 334.998438)scale(0.1 -0.1)">
       <use xlink:href="#DejaVuSans-32"/>
      </g>
     </g>
    </g>
   </g>
   <g id="matplotlib.axis_2">
    <g id="ytick_1">
     <g id="line2d_6">
      <defs>
       <path id="m3c4a7349a3" d="M 0 0 
L -3.5 0 
" style="stroke: #000000; stroke-width: 0.8"/>
      </defs>
      <g>
       <use xlink:href="#m3c4a7349a3" x="45" y="291.2249" style="stroke: #000000; stroke-width: 0.8"/>
      </g>
     </g>
     <g id="text_6">
      <!-- −0.4 -->
      <g transform="translate(13.717187 295.024118)scale(0.1 -0.1)">
       <defs>
        <path id="DejaVuSans-2e" d="M 684 794 
L 1344 794 
L 1344 0 
L 684 0 
L 684 794 
z
" transform="scale(0.015625)"/>
        <path id="DejaVuSans-34" d="M 2419 4116 
L 825 1625 
L 2419 1625 
L 2419 4116 
z
M 2253 4666 
L 3047 4666 
L 3047 1625 
L 3713 1625 
L 3713 1100 
L 3047 1100 
L 3047 0 
L 2419 0 
L 2419 1100 
L 313 1100 
L 313 1709 
L 2253 4666 
z
" transform="scale(0.015625)"/>
       </defs>
       <use xlink:href="#DejaVuSans-2212"/>
       <use xlink:href="#DejaVuSans-30" x="83.789062"/>
       <use xlink:href="#DejaVuSans-2e" x="147.412109"/>
       <use xlink:href="#DejaVuSans-34" x="179.199219"/>
      </g>
     </g>
    </g>
    <g id="ytick_2">
     <g id="line2d_7">
      <g>
       <use xlink:href="#m3c4a7349a3" x="45" y="243.104017" style="stroke: #000000; stroke-width: 0.8"/>
      </g>
     </g>
     <g id="text_7">
      <!-- −0.2 -->
      <g transform="translate(13.717187 246.903235)scale(0.1 -0.1)">
       <use xlink:href="#DejaVuSans-2212"/>
       <use xlink:href="#DejaVuSans-30" x="83.789062"/>
       <use xlink:href="#DejaVuSans-2e" x="147.412109"/>
       <use xlink:href="#DejaVuSans-32" x="179.199219"/>
      </g>
     </g>
    </g>
    <g id="ytick_3">
     <g id="line2d_8">
      <g>
       <use xlink:href="#m3c4a7349a3" x="45" y="194.983134" style="stroke: #000000; stroke-width: 0.8"/>
      </g>
     </g>
     <g id="text_8">
      <!-- 0.0 -->
      <g transform="translate(22.096875 198.782352)scale(0.1 -0.1)">
       <use xlink:href="#DejaVuSans-30"/>
       <use xlink:href="#DejaVuSans-2e" x="63.623047"/>
       <use xlink:href="#DejaVuSans-30" x="95.410156"/>
      </g>
     </g>
    </g>
    <g id="ytick_4">
     <g id="line2d_9">
      <g>
       <use xlink:href="#m3c4a7349a3" x="45" y="146.862251" style="stroke: #000000; stroke-width: 0.8"/>
      </g>
     </g>
     <g id="text_9">
      <!-- 0.2 -->
      <g transform="translate(22.096875 150.661469)scale(0.1 -0.1)">
       <use xlink:href="#DejaVuSans-30"/>
       <use xlink:href="#DejaVuSans-2e" x="63.623047"/>
       <use xlink:href="#DejaVuSans-32" x="95.410156"/>
      </g>
     </g>
    </g>
    <g id="ytick_5">
     <g id="line2d_10">
      <g>
       <use xlink:href="#m3c4a7349a3" x="45" y="98.741368" style="stroke: #000000; stroke-width: 0.8"/>
      </g>
     </g>
     <g id="text_10">
      <!-- 0.4 -->
      <g transform="translate(22.096875 102.540587)scale(0.1 -0.1)">
       <use xlink:href="#DejaVuSans-30"/>
       <use xlink:href="#DejaVuSans-2e" x="63.623047"/>
       <use xlink:href="#DejaVuSans-34" x="95.410156"/>
      </g>
     </g>
    </g>
    <g id="ytick_6">
     <g id="line2d_11">
      <g>
       <use xlink:href="#m3c4a7349a3" x="45" y="50.620485" style="stroke: #000000; stroke-width: 0.8"/>
      </g>
     </g>
     <g id="text_11">
      <!-- 0.6 -->
      <g transform="translate(22.096875 54.419704)scale(0.1 -0.1)">
       <defs>
        <path id="DejaVuSans-36" d="M 2113 2584 
Q 1688 2584 1439 2293 
Q 1191 2003 1191 1497 
Q 1191 994 1439 701 
Q 1688 409 2113 409 
Q 2538 409 2786 701 
Q 3034 994 3034 1497 
Q 3034 2003 2786 2293 
Q 2538 2584 2113 2584 
z
M 3366 4563 
L 3366 3988 
Q 3128 4100 2886 4159 
Q 2644 4219 2406 4219 
Q 1781 4219 1451 3797 
Q 1122 3375 1075 2522 
Q 1259 2794 1537 2939 
Q 1816 3084 2150 3084 
Q 2853 3084 3261 2657 
Q 3669 2231 3669 1497 
Q 3669 778 3244 343 
Q 2819 -91 2113 -91 
Q 1303 -91 875 529 
Q 447 1150 447 2328 
Q 447 3434 972 4092 
Q 1497 4750 2381 4750 
Q 2619 4750 2861 4703 
Q 3103 4656 3366 4563 
z
" transform="scale(0.015625)"/>
       </defs>
       <use xlink:href="#DejaVuSans-30"/>
       <use xlink:href="#DejaVuSans-2e" x="63.623047"/>
       <use xlink:href="#DejaVuSans-36" x="95.410156"/>
      </g>
     </g>
    </g>
   </g>
   <g id="line2d_12">
    <path d="M 57.681818 113.420971 
L 66.581342 108.285603 
L 69.124053 107.145414 
L 71.031098 106.530707 
L 72.938143 106.197522 
L 74.209498 106.166442 
L 75.480866 106.3138 
L 76.752221 106.659134 
L 78.023577 107.221743 
L 79.294932 108.01739 
L 80.566299 109.059578 
L 81.837655 110.35737 
L 83.109022 111.914291 
L 84.380384 113.730587 
L 86.287423 116.925862 
L 88.194462 120.64491 
L 90.101501 124.819272 
L 92.644224 130.938878 
L 96.458302 140.811586 
L 102.179425 155.613926 
L 105.35782 163.178258 
L 107.900543 168.712631 
L 110.443266 173.744639 
L 112.985988 178.271919 
L 115.528705 182.31713 
L 118.071428 185.914588 
L 120.614145 189.100799 
L 123.156868 191.903827 
L 125.699584 194.337232 
L 128.242307 196.396769 
L 130.149352 197.683456 
L 132.056391 198.73465 
L 133.963431 199.536434 
L 135.87047 200.07822 
L 137.777512 200.355818 
L 139.684551 200.37554 
L 141.59159 200.156729 
L 143.498632 199.729925 
L 146.041349 198.912744 
L 150.491111 197.1412 
L 154.305195 195.681874 
L 156.847915 194.898205 
L 159.390635 194.325569 
L 161.933355 193.984554 
L 164.476068 193.873752 
L 167.018788 193.977696 
L 170.197195 194.370053 
L 173.375594 194.994208 
L 177.82536 196.121892 
L 191.174644 199.685981 
L 205.159609 203.061295 
L 208.973691 204.272464 
L 212.787769 205.710674 
L 216.60185 207.390435 
L 220.415928 209.304587 
L 224.86569 211.80076 
L 229.95113 214.934311 
L 235.672253 218.729998 
L 241.39337 222.773213 
L 246.47881 226.630658 
L 250.292894 229.770347 
L 254.106973 233.213356 
L 257.285373 236.383047 
L 260.463774 239.881826 
L 263.642174 243.749529 
L 266.820575 248.004809 
L 269.998975 252.636217 
L 273.813059 258.62019 
L 279.534177 268.130477 
L 285.890984 278.652286 
L 289.705056 284.534494 
L 292.883456 289.03183 
L 296.061857 293.085577 
L 298.60458 295.978081 
L 301.14729 298.544939 
L 303.690025 300.780643 
L 306.232736 302.686936 
L 308.775471 304.274649 
L 311.318182 305.55934 
L 311.318182 305.55934 
" clip-path="url(#p689f531fc6)" style="fill: none; stroke: #1f77b4; stroke-width: 1.5; stroke-linecap: square"/>
   </g>
   <g id="line2d_13">
    <path d="M 57.681818 148.620899 
L 60.224541 152.624303 
L 62.767264 157.083205 
L 65.309987 161.971767 
L 68.488375 168.588264 
L 78.659254 190.392225 
L 80.566299 193.81962 
L 82.473333 196.785623 
L 83.7447 198.463278 
L 85.016061 199.876328 
L 86.287423 201.011986 
L 87.558784 201.861406 
L 88.83014 202.423097 
L 90.101501 202.703713 
L 91.372862 202.713935 
L 92.644224 202.471799 
L 93.915579 201.99822 
L 95.186941 201.318209 
L 97.09398 199.968585 
L 99.001025 198.3034 
L 101.543748 195.736927 
L 105.35782 191.463577 
L 111.714627 183.906828 
L 116.800067 177.538696 
L 120.614145 172.374899 
L 123.792545 167.717711 
L 127.606623 161.726855 
L 133.963431 151.621766 
L 136.50615 148.081546 
L 138.413193 145.830193 
L 139.684551 144.572326 
L 140.955909 143.533947 
L 142.227271 142.729685 
L 143.498632 142.168258 
L 144.769991 141.850401 
L 146.041349 141.769723 
L 147.31271 141.914356 
L 148.584072 142.264711 
L 149.85543 142.798126 
L 151.762469 143.883137 
L 153.669511 145.227361 
L 156.847915 147.798917 
L 163.840395 153.594346 
L 167.654469 156.430106 
L 172.104235 159.452731 
L 178.46104 163.474417 
L 183.546474 166.459658 
L 187.360559 168.427601 
L 190.538964 169.791793 
L 193.081685 170.662822 
L 195.62441 171.324259 
L 198.167131 171.777628 
L 200.709844 172.036744 
L 203.888245 172.122851 
L 207.702329 171.953763 
L 212.152088 171.512148 
L 225.501368 170.003976 
L 229.315449 169.832043 
L 233.129527 169.886562 
L 236.307931 170.142029 
L 239.486331 170.615253 
L 242.664732 171.326539 
L 245.843132 172.288531 
L 249.021533 173.506817 
L 252.199933 174.979812 
L 255.378334 176.702057 
L 258.556734 178.670167 
L 261.735129 180.892011 
L 264.913529 183.403775 
L 267.456258 185.670846 
L 269.998975 188.232334 
L 272.541698 191.171396 
L 274.448737 193.681142 
L 276.355776 196.499761 
L 278.262815 199.666055 
L 280.169854 203.210038 
L 282.076899 207.149423 
L 284.619622 213.013366 
L 287.162333 219.521032 
L 290.340734 228.374036 
L 296.697535 247.111505 
L 300.511613 257.962953 
L 303.690025 266.286643 
L 306.232736 272.328691 
L 308.775471 277.763502 
L 311.318182 282.57772 
L 311.318182 282.57772 
" clip-path="url(#p689f531fc6)" style="fill: none; stroke: #ff7f0e; stroke-width: 1.5; stroke-linecap: square"/>
   </g>
   <g id="line2d_14">
    <path d="M 57.681818 166.598265 
L 61.495896 168.215854 
L 65.309987 170.093556 
L 69.124053 172.256831 
L 72.302453 174.313661 
L 75.480866 176.653481 
L 78.023577 178.770669 
L 80.566299 181.13511 
L 83.7447 184.441974 
L 87.558784 188.798548 
L 92.00854 193.897696 
L 94.551263 196.483805 
L 96.458302 198.1341 
L 98.365347 199.470609 
L 100.272386 200.453378 
L 101.543748 200.900426 
L 102.815109 201.177193 
L 104.086458 201.284401 
L 105.35782 201.223469 
L 106.629181 200.999437 
L 107.900543 200.617424 
L 109.807588 199.760432 
L 111.714627 198.583896 
L 113.621666 197.110774 
L 115.528705 195.366077 
L 118.071428 192.665938 
L 120.614145 189.611918 
L 124.428223 184.613124 
L 128.877991 178.824477 
L 130.78503 176.641354 
L 132.692069 174.800766 
L 133.963431 173.820704 
L 135.234792 173.07594 
L 136.50615 172.593653 
L 137.777512 172.396216 
L 139.04887 172.498394 
L 140.320232 172.906967 
L 141.59159 173.619997 
L 142.862951 174.625793 
L 144.13431 175.904472 
L 146.041349 178.271999 
L 147.948391 181.069893 
L 150.491111 185.230596 
L 156.212234 194.832552 
L 158.754957 198.634526 
L 160.661995 201.165869 
L 162.569035 203.394012 
L 164.476068 205.312188 
L 166.383109 206.927219 
L 168.29015 208.25444 
L 170.197195 209.313722 
L 172.104235 210.127639 
L 174.011274 210.718976 
L 175.91832 211.108728 
L 177.82536 211.317679 
L 180.368073 211.34725 
L 182.910794 211.127681 
L 185.453519 210.695147 
L 188.631919 209.903177 
L 191.810325 208.882513 
L 195.62441 207.420881 
L 200.074164 205.46935 
L 205.79529 202.687665 
L 214.05913 198.378273 
L 222.322967 194.135079 
L 226.772729 192.080395 
L 230.586807 190.543449 
L 234.400889 189.268786 
L 237.579292 188.434258 
L 240.757693 187.81838 
L 243.936093 187.420901 
L 247.114494 187.230864 
L 250.928572 187.248108 
L 254.74265 187.487123 
L 259.192412 187.980114 
L 264.913529 188.858916 
L 269.998975 189.866307 
L 273.813059 190.837305 
L 276.991454 191.870716 
L 279.534177 192.898919 
L 282.076899 194.142812 
L 284.619622 195.62915 
L 287.162333 197.367756 
L 289.705056 199.348577 
L 292.883456 202.121305 
L 296.697535 205.761751 
L 308.775471 217.549068 
L 311.318182 219.786928 
L 311.318182 219.786928 
" clip-path="url(#p689f531fc6)" style="fill: none; stroke: #2ca02c; stroke-width: 1.5; stroke-linecap: square"/>
   </g>
   <g id="line2d_15">
    <path d="M 57.681818 285.14351 
L 60.860219 284.260681 
L 63.402942 283.367894 
L 65.945664 282.265094 
L 68.488375 280.900621 
L 70.39542 279.670564 
L 72.302453 278.230599 
L 74.209498 276.55101 
L 76.116544 274.60128 
L 78.023577 272.352406 
L 79.930622 269.781567 
L 81.837655 266.876236 
L 83.7447 263.637481 
L 86.287423 258.835838 
L 89.465823 252.212181 
L 98.365347 233.025895 
L 100.90807 228.272535 
L 102.815109 225.106074 
L 104.722142 222.321776 
L 106.629181 219.939036 
L 108.536226 217.963951 
L 110.443266 216.391634 
L 112.350305 215.210452 
L 114.257344 214.402105 
L 116.164389 213.943212 
L 118.071428 213.806386 
L 119.978467 213.959629 
L 121.885506 214.363866 
L 123.792545 214.974179 
L 126.335268 216.013464 
L 132.056391 218.502249 
L 133.963431 219.098439 
L 135.87047 219.446905 
L 137.141831 219.508676 
L 138.413193 219.416996 
L 139.684551 219.16232 
L 140.955909 218.740725 
L 142.862951 217.802034 
L 144.769991 216.526441 
L 146.67703 214.972911 
L 149.219749 212.605005 
L 156.212234 205.899954 
L 158.754957 203.862789 
L 161.297675 202.17326 
L 163.204716 201.142728 
L 165.111749 200.305969 
L 167.654469 199.461531 
L 170.197195 198.877387 
L 173.375594 198.423375 
L 177.18968 198.135818 
L 196.26009 197.084274 
L 207.06665 196.322665 
L 213.42345 196.099322 
L 219.780251 196.090625 
L 226.772729 196.309712 
L 234.400889 196.78274 
L 241.39337 197.430352 
L 247.114494 198.159616 
L 252.199933 199.013958 
L 257.285373 200.089635 
L 268.091936 202.547936 
L 270.634659 202.844672 
L 272.541698 202.879503 
L 274.448737 202.697015 
L 276.355776 202.245396 
L 278.262815 201.473269 
L 279.534177 200.757864 
L 280.805538 199.868529 
L 282.712583 198.191465 
L 284.619622 196.087149 
L 286.526655 193.556867 
L 288.433701 190.615534 
L 290.340734 187.298715 
L 292.883456 182.374127 
L 296.061857 175.610754 
L 301.14729 164.092041 
L 306.232736 152.681358 
L 310.046826 144.681755 
L 311.318182 142.163038 
L 311.318182 142.163038 
" clip-path="url(#p689f531fc6)" style="fill: none; stroke: #d62728; stroke-width: 1.5; stroke-linecap: square"/>
   </g>
   <g id="line2d_16">
    <path d="M 57.681818 176.069728 
L 62.131574 176.993687 
L 65.309987 177.474081 
L 68.488375 177.719785 
L 71.031098 177.709459 
L 73.573821 177.510467 
L 77.387899 176.940097 
L 82.473333 176.159793 
L 85.016061 176.046458 
L 86.923101 176.175528 
L 88.83014 176.513187 
L 90.737185 177.057497 
L 93.279902 178.051969 
L 97.09398 179.86873 
L 100.90807 181.653273 
L 103.450781 182.636295 
L 105.993504 183.384122 
L 108.536226 183.883435 
L 111.078949 184.152658 
L 114.257344 184.222953 
L 118.071428 184.042438 
L 126.335268 183.517243 
L 128.877991 183.572657 
L 131.420714 183.847353 
L 133.327753 184.235045 
L 135.234792 184.801486 
L 137.141831 185.558262 
L 139.04887 186.50659 
L 141.59159 188.046381 
L 144.769991 190.31554 
L 153.669511 196.970885 
L 156.212234 198.490862 
L 158.754957 199.711259 
L 160.661995 200.413189 
L 162.569035 200.928885 
L 164.476068 201.260357 
L 166.383109 201.41457 
L 168.925829 201.361158 
L 171.468555 201.040393 
L 174.011274 200.490502 
L 177.18968 199.551031 
L 181.639433 197.952418 
L 188.631919 195.40982 
L 192.446005 194.262489 
L 196.26009 193.349067 
L 200.709844 192.535396 
L 208.33801 191.44136 
L 215.330489 190.359223 
L 221.68729 189.141299 
L 231.858169 186.903232 
L 251.56425 182.416967 
L 254.74265 181.374814 
L 257.921051 180.074382 
L 260.463774 178.794992 
L 263.00649 177.264827 
L 265.549213 175.453621 
L 268.091936 173.344096 
L 270.634659 170.933224 
L 273.177376 168.236562 
L 276.355776 164.515116 
L 280.169854 159.675383 
L 290.340734 146.539587 
L 293.519146 142.867153 
L 296.697535 139.573142 
L 299.240257 137.248225 
L 301.78298 135.219723 
L 304.325703 133.495619 
L 306.868426 132.075319 
L 309.411149 130.952763 
L 311.318182 130.295457 
L 311.318182 130.295457 
" clip-path="url(#p689f531fc6)" style="fill: none; stroke: #9467bd; stroke-width: 1.5; stroke-linecap: square"/>
   </g>
   <g id="line2d_17">
    <path d="M 57.681818 170.74905 
L 60.860219 168.421092 
L 64.674309 165.329923 
L 72.302453 158.989291 
L 74.845188 157.221935 
L 76.752221 156.158442 
L 78.659254 155.38986 
L 79.930622 155.070684 
L 81.201977 154.92334 
L 82.473333 154.958854 
L 83.7447 155.184584 
L 85.016061 155.603391 
L 86.287423 156.213131 
L 87.558784 157.007481 
L 89.465823 158.517694 
L 91.372862 160.360416 
L 93.915579 163.209909 
L 97.729663 167.94515 
L 102.815109 174.22669 
L 105.993504 177.743924 
L 108.536226 180.227018 
L 111.078949 182.391911 
L 113.621666 184.242985 
L 116.164389 185.800387 
L 118.707106 187.097881 
L 121.249829 188.176851 
L 124.428223 189.291319 
L 128.877991 190.594768 
L 135.87047 192.622548 
L 140.320232 194.161111 
L 151.126789 198.075566 
L 153.669511 198.716947 
L 156.212234 199.148604 
L 158.754957 199.341028 
L 161.297675 199.276751 
L 163.840395 198.949093 
L 166.383109 198.362145 
L 168.925829 197.530582 
L 171.468555 196.483237 
L 174.64696 194.942792 
L 183.546474 190.428924 
L 186.089199 189.455264 
L 188.631919 188.759489 
L 190.538964 188.447036 
L 192.446005 188.323937 
L 194.353045 188.391151 
L 196.26009 188.641387 
L 198.802811 189.238477 
L 201.345524 190.098309 
L 203.888245 191.174999 
L 207.06665 192.754819 
L 211.51641 195.256 
L 218.508889 199.511825 
L 231.858169 207.938702 
L 236.943615 211.400791 
L 240.757693 214.273769 
L 243.936093 216.961356 
L 246.47881 219.3745 
L 249.021533 222.082784 
L 251.56425 225.145536 
L 254.106973 228.620061 
L 256.649689 232.558942 
L 259.192412 237.002492 
L 261.735129 241.97242 
L 264.277852 247.465077 
L 266.820575 253.441363 
L 269.998975 261.466 
L 280.169854 287.801199 
L 282.712583 293.443256 
L 284.619622 297.160755 
L 286.526655 300.365094 
L 288.433701 303.009692 
L 289.705056 304.448257 
L 290.976411 305.62469 
L 292.247779 306.539448 
L 293.519146 307.200104 
L 294.790502 307.614965 
L 296.061857 307.793851 
L 297.333212 307.752961 
L 298.60458 307.507441 
L 299.875935 307.073443 
L 301.78298 306.11105 
L 303.690025 304.827368 
L 305.597058 303.283986 
L 308.139781 300.92153 
L 311.318182 297.650373 
L 311.318182 297.650373 
" clip-path="url(#p689f531fc6)" style="fill: none; stroke: #8c564b; stroke-width: 1.5; stroke-linecap: square"/>
   </g>
   <g id="line2d_18">
    <path d="M 57.681818 215.924216 
L 61.495896 217.049617 
L 65.309987 218.402549 
L 69.124053 219.990802 
L 73.573821 222.109063 
L 82.473333 226.517647 
L 85.016061 227.488502 
L 86.923101 228.015224 
L 88.83014 228.321332 
L 90.737185 228.369782 
L 92.644224 228.137249 
L 94.551263 227.614406 
L 96.458302 226.807662 
L 98.365347 225.738014 
L 100.272386 224.437158 
L 102.815109 222.408219 
L 105.993504 219.530107 
L 110.443266 215.13776 
L 119.342783 205.939616 
L 126.970946 198.138804 
L 130.149352 195.166987 
L 132.692069 193.071838 
L 134.599111 191.738296 
L 136.50615 190.660278 
L 138.413193 189.878605 
L 140.320232 189.419815 
L 142.227271 189.294565 
L 144.13431 189.494022 
L 146.041349 189.988023 
L 147.948391 190.73106 
L 150.491111 192.007932 
L 154.940876 194.603954 
L 158.754957 196.719984 
L 161.297675 197.887611 
L 163.840395 198.777688 
L 165.747428 199.235661 
L 167.654469 199.500539 
L 169.561514 199.566777 
L 171.468555 199.435935 
L 173.375594 199.115422 
L 175.91832 198.421924 
L 178.46104 197.477405 
L 182.275114 195.766318 
L 187.996239 193.175797 
L 190.538964 192.246032 
L 193.081685 191.543781 
L 195.62441 191.09963 
L 198.167131 190.918777 
L 200.709844 190.983312 
L 203.252564 191.260612 
L 206.430969 191.839742 
L 210.88073 192.915589 
L 218.508889 194.805349 
L 221.68729 195.375966 
L 224.86569 195.697781 
L 227.408407 195.719718 
L 229.95113 195.483479 
L 231.858169 195.1082 
L 233.765208 194.539947 
L 235.672253 193.75645 
L 237.579292 192.735223 
L 239.486331 191.453274 
L 241.39337 189.886912 
L 243.300416 188.01241 
L 245.207455 185.806513 
L 247.114494 183.246321 
L 249.021533 180.310827 
L 250.928572 176.981686 
L 252.835611 173.241919 
L 254.74265 169.0809 
L 256.649689 164.49084 
L 259.192412 157.705851 
L 261.735129 150.184531 
L 264.277852 141.98289 
L 267.456258 130.923943 
L 271.906014 114.470364 
L 277.627138 93.372045 
L 280.169854 84.727893 
L 282.712583 76.912224 
L 284.619622 71.735921 
L 286.526655 67.233216 
L 288.433701 63.460785 
L 289.705056 61.36707 
L 290.976411 59.615615 
L 292.247779 58.204585 
L 293.519146 57.128701 
L 294.790502 56.378831 
L 296.061857 55.941392 
L 297.333212 55.8 
L 298.60458 55.937675 
L 299.875935 56.332481 
L 301.14729 56.96395 
L 302.418658 57.809045 
L 304.325703 59.428332 
L 306.232736 61.403325 
L 308.775471 64.460948 
L 311.318182 67.86262 
L 311.318182 67.86262 
" clip-path="url(#p689f531fc6)" style="fill: none; stroke: #e377c2; stroke-width: 1.5; stroke-linecap: square"/>
   </g>
   <g id="line2d_19">
    <path d="M 57.681818 283.77135 
L 60.224541 281.140083 
L 62.767264 278.151344 
L 65.309987 274.789505 
L 67.852697 271.050093 
L 70.39542 266.941482 
L 73.573821 261.329042 
L 77.387899 254.029924 
L 87.558784 234.013784 
L 90.101501 229.641882 
L 92.00854 226.716909 
L 93.915579 224.149431 
L 95.822624 221.971718 
L 97.729663 220.198875 
L 99.636709 218.828969 
L 101.543748 217.844885 
L 103.450781 217.217489 
L 105.35782 216.910267 
L 107.264859 216.884017 
L 109.171904 217.097987 
L 111.078949 217.516003 
L 113.621666 218.334171 
L 116.164389 219.391813 
L 119.342783 220.972114 
L 123.156868 223.133095 
L 132.056391 228.331437 
L 134.599111 229.525825 
L 137.141831 230.434216 
L 139.04887 230.884619 
L 140.955909 231.117244 
L 142.862951 231.127478 
L 144.769991 230.925176 
L 146.67703 230.533508 
L 149.219749 229.778062 
L 153.033831 228.352714 
L 158.119276 226.460188 
L 160.661995 225.718762 
L 163.204716 225.202114 
L 165.747428 224.953513 
L 168.29015 224.995742 
L 170.832874 225.332174 
L 173.375594 225.941931 
L 175.91832 226.78001 
L 179.732393 228.310118 
L 184.817839 230.37227 
L 187.360559 231.196192 
L 189.903285 231.775706 
L 191.810325 232.01876 
L 193.717365 232.08456 
L 195.62441 231.971508 
L 198.167131 231.552936 
L 200.709844 230.856416 
L 203.252564 229.924299 
L 206.430969 228.497849 
L 210.245049 226.519107 
L 215.966169 223.256991 
L 249.657211 203.359335 
L 257.285373 198.562361 
L 269.363297 190.89031 
L 272.541698 189.128988 
L 275.084415 187.912607 
L 277.627138 186.928598 
L 280.169854 186.232422 
L 282.076899 185.929583 
L 283.983945 185.834633 
L 285.890984 185.958495 
L 287.798011 186.30695 
L 289.705056 186.879357 
L 291.612101 187.667316 
L 293.519146 188.656924 
L 296.061857 190.255697 
L 298.60458 192.11977 
L 301.78298 194.726508 
L 306.868426 199.236372 
L 311.318182 203.215453 
L 311.318182 203.215453 
" clip-path="url(#p689f531fc6)" style="fill: none; stroke: #7f7f7f; stroke-width: 1.5; stroke-linecap: square"/>
   </g>
   <g id="line2d_20">
    <path d="M 57.681818 197.064125 
L 60.224541 195.247091 
L 62.131574 193.635606 
L 64.038619 191.788513 
L 65.945664 189.68936 
L 67.852697 187.329037 
L 70.39542 183.778928 
L 72.938143 179.813236 
L 76.752221 173.351978 
L 80.566299 166.934455 
L 82.473333 164.062065 
L 84.380384 161.603438 
L 85.651745 160.261118 
L 86.923101 159.194241 
L 88.194462 158.428252 
L 89.465823 157.980131 
L 90.737185 157.856086 
L 92.00854 158.05147 
L 93.279902 158.553524 
L 94.551263 159.341713 
L 95.822624 160.388594 
L 97.729663 162.369888 
L 99.636709 164.741184 
L 102.179425 168.310195 
L 107.264859 176.023354 
L 112.985988 184.595559 
L 118.707106 192.73395 
L 123.792545 199.634207 
L 126.970946 203.661176 
L 129.513669 206.562125 
L 131.420714 208.44608 
L 133.327753 209.990357 
L 134.599111 210.790444 
L 135.87047 211.379498 
L 137.141831 211.737154 
L 138.413193 211.846938 
L 139.684551 211.698846 
L 140.955909 211.287921 
L 142.227271 210.617547 
L 143.498632 209.69828 
L 144.769991 208.547145 
L 146.67703 206.440277 
L 148.584072 203.969591 
L 151.762469 199.36683 
L 156.847915 191.93785 
L 159.390635 188.673439 
L 161.297675 186.552029 
L 163.204716 184.757918 
L 165.111749 183.320408 
L 167.018788 182.260583 
L 168.29015 181.770053 
L 169.561514 181.454806 
L 170.832874 181.315427 
L 172.104235 181.351423 
L 173.375594 181.560345 
L 174.64696 181.937557 
L 176.554 182.806481 
L 178.46104 184.013627 
L 180.368073 185.521007 
L 182.275114 187.283218 
L 184.817839 189.937654 
L 188.631919 194.299586 
L 194.353045 200.870238 
L 197.53145 204.201019 
L 200.709844 207.185962 
L 203.888245 209.809705 
L 207.06665 212.099756 
L 210.245049 214.108858 
L 214.05913 216.23328 
L 218.508889 218.435821 
L 224.230009 221.001324 
L 232.493847 224.434318 
L 247.750171 230.708808 
L 252.835611 233.069027 
L 257.921051 235.691391 
L 264.277852 239.282826 
L 269.363297 242.103785 
L 271.906014 243.317826 
L 274.448737 244.272785 
L 276.355776 244.750701 
L 278.262815 244.971669 
L 280.169854 244.888376 
L 281.441222 244.644324 
L 282.712583 244.238688 
L 283.983945 243.664078 
L 285.2553 242.918385 
L 287.162333 241.476056 
L 289.069378 239.656911 
L 290.976411 237.48798 
L 292.883456 235.009556 
L 295.426179 231.311744 
L 298.60458 226.252603 
L 308.775471 209.626333 
L 311.318182 205.862484 
L 311.318182 205.862484 
" clip-path="url(#p689f531fc6)" style="fill: none; stroke: #bcbd22; stroke-width: 1.5; stroke-linecap: square"/>
   </g>
   <g id="line2d_21">
    <path d="M 57.681818 192.469224 
L 59.588863 194.040496 
L 61.495896 195.869129 
L 63.402942 197.976267 
L 65.309987 200.3739 
L 67.21702 203.064114 
L 69.759743 207.073564 
L 72.938143 212.604541 
L 78.023577 221.567673 
L 79.930622 224.477904 
L 81.201977 226.138003 
L 82.473333 227.513008 
L 83.7447 228.555753 
L 85.016061 229.228341 
L 86.287423 229.502268 
L 87.558784 229.363067 
L 88.83014 228.811656 
L 90.101501 227.861228 
L 91.372862 226.539905 
L 92.644224 224.888895 
L 94.551263 221.902244 
L 97.09398 217.271458 
L 103.450781 205.2073 
L 105.35782 202.047224 
L 107.264859 199.257723 
L 109.171904 196.87847 
L 111.078949 194.926412 
L 112.985988 193.401937 
L 114.257344 192.618142 
L 115.528705 192.014265 
L 116.800067 191.583951 
L 118.071428 191.320165 
L 119.342783 191.214248 
L 121.249829 191.332476 
L 123.156868 191.752499 
L 125.063907 192.434633 
L 126.970946 193.332686 
L 129.513669 194.769577 
L 135.87047 198.546242 
L 137.777512 199.418711 
L 139.684551 200.044203 
L 141.59159 200.371731 
L 143.498632 200.373097 
L 145.405671 200.044283 
L 147.31271 199.405351 
L 149.219749 198.497855 
L 151.762469 196.968647 
L 154.940876 194.754536 
L 161.933355 189.799236 
L 166.383109 186.979409 
L 175.91832 181.088849 
L 179.732393 178.389181 
L 184.182154 174.925858 
L 194.353045 166.834122 
L 198.167131 164.178143 
L 201.345524 162.210584 
L 205.159609 160.132209 
L 208.973691 158.307961 
L 214.05913 156.143671 
L 223.594329 152.410253 
L 233.765208 148.335889 
L 241.39337 145.03987 
L 247.750171 142.059449 
L 253.471295 139.126479 
L 258.556734 136.263069 
L 263.00649 133.52343 
L 267.456258 130.540059 
L 271.906014 127.295933 
L 276.355776 123.783982 
L 281.441222 119.462916 
L 287.798011 113.726552 
L 296.697535 105.677569 
L 301.14729 101.957501 
L 304.961381 99.045262 
L 308.775471 96.429071 
L 311.318182 94.857925 
L 311.318182 94.857925 
" clip-path="url(#p689f531fc6)" style="fill: none; stroke: #17becf; stroke-width: 1.5; stroke-linecap: square"/>
   </g>
   <g id="patch_3">
    <path d="M 45 320.4 
L 45 43.2 
" style="fill: none; stroke: #000000; stroke-width: 0.8; stroke-linejoin: miter; stroke-linecap: square"/>
   </g>
   <g id="patch_4">
    <path d="M 324 320.4 
L 324 43.2 
" style="fill: none; stroke: #000000; stroke-width: 0.8; stroke-linejoin: miter; stroke-linecap: square"/>
   </g>
   <g id="patch_5">
    <path d="M 45 320.4 
L 324 320.4 
" style="fill: none; stroke: #000000; stroke-width: 0.8; stroke-linejoin: miter; stroke-linecap: square"/>
   </g>
   <g id="patch_6">
    <path d="M 45 43.2 
L 324 43.2 
" style="fill: none; stroke: #000000; stroke-width: 0.8; stroke-linejoin: miter; stroke-linecap: square"/>
   </g>
   <g id="text_12">
    <!-- Single Draw Deviation -->
    <g transform="translate(117.87 37.2)scale(0.12 -0.12)">
     <defs>
      <path id="DejaVuSans-53" d="M 3425 4513 
L 3425 3897 
Q 3066 4069 2747 4153 
Q 2428 4238 2131 4238 
Q 1616 4238 1336 4038 
Q 1056 3838 1056 3469 
Q 1056 3159 1242 3001 
Q 1428 2844 1947 2747 
L 2328 2669 
Q 3034 2534 3370 2195 
Q 3706 1856 3706 1288 
Q 3706 609 3251 259 
Q 2797 -91 1919 -91 
Q 1588 -91 1214 -16 
Q 841 59 441 206 
L 441 856 
Q 825 641 1194 531 
Q 1563 422 1919 422 
Q 2459 422 2753 634 
Q 3047 847 3047 1241 
Q 3047 1584 2836 1778 
Q 2625 1972 2144 2069 
L 1759 2144 
Q 1053 2284 737 2584 
Q 422 2884 422 3419 
Q 422 4038 858 4394 
Q 1294 4750 2059 4750 
Q 2388 4750 2728 4690 
Q 3069 4631 3425 4513 
z
" transform="scale(0.015625)"/>
      <path id="DejaVuSans-69" d="M 603 3500 
L 1178 3500 
L 1178 0 
L 603 0 
L 603 3500 
z
M 603 4863 
L 1178 4863 
L 1178 4134 
L 603 4134 
L 603 4863 
z
" transform="scale(0.015625)"/>
      <path id="DejaVuSans-6e" d="M 3513 2113 
L 3513 0 
L 2938 0 
L 2938 2094 
Q 2938 2591 2744 2837 
Q 2550 3084 2163 3084 
Q 1697 3084 1428 2787 
Q 1159 2491 1159 1978 
L 1159 0 
L 581 0 
L 581 3500 
L 1159 3500 
L 1159 2956 
Q 1366 3272 1645 3428 
Q 1925 3584 2291 3584 
Q 2894 3584 3203 3211 
Q 3513 2838 3513 2113 
z
" transform="scale(0.015625)"/>
      <path id="DejaVuSans-67" d="M 2906 1791 
Q 2906 2416 2648 2759 
Q 2391 3103 1925 3103 
Q 1463 3103 1205 2759 
Q 947 2416 947 1791 
Q 947 1169 1205 825 
Q 1463 481 1925 481 
Q 2391 481 2648 825 
Q 2906 1169 2906 1791 
z
M 3481 434 
Q 3481 -459 3084 -895 
Q 2688 -1331 1869 -1331 
Q 1566 -1331 1297 -1286 
Q 1028 -1241 775 -1147 
L 775 -588 
Q 1028 -725 1275 -790 
Q 1522 -856 1778 -856 
Q 2344 -856 2625 -561 
Q 2906 -266 2906 331 
L 2906 616 
Q 2728 306 2450 153 
Q 2172 0 1784 0 
Q 1141 0 747 490 
Q 353 981 353 1791 
Q 353 2603 747 3093 
Q 1141 3584 1784 3584 
Q 2172 3584 2450 3431 
Q 2728 3278 2906 2969 
L 2906 3500 
L 3481 3500 
L 3481 434 
z
" transform="scale(0.015625)"/>
      <path id="DejaVuSans-6c" d="M 603 4863 
L 1178 4863 
L 1178 0 
L 603 0 
L 603 4863 
z
" transform="scale(0.015625)"/>
      <path id="DejaVuSans-65" d="M 3597 1894 
L 3597 1613 
L 953 1613 
Q 991 1019 1311 708 
Q 1631 397 2203 397 
Q 2534 397 2845 478 
Q 3156 559 3463 722 
L 3463 178 
Q 3153 47 2828 -22 
Q 2503 -91 2169 -91 
Q 1331 -91 842 396 
Q 353 884 353 1716 
Q 353 2575 817 3079 
Q 1281 3584 2069 3584 
Q 2775 3584 3186 3129 
Q 3597 2675 3597 1894 
z
M 3022 2063 
Q 3016 2534 2758 2815 
Q 2500 3097 2075 3097 
Q 1594 3097 1305 2825 
Q 1016 2553 972 2059 
L 3022 2063 
z
" transform="scale(0.015625)"/>
      <path id="DejaVuSans-20" transform="scale(0.015625)"/>
      <path id="DejaVuSans-44" d="M 1259 4147 
L 1259 519 
L 2022 519 
Q 2988 519 3436 956 
Q 3884 1394 3884 2338 
Q 3884 3275 3436 3711 
Q 2988 4147 2022 4147 
L 1259 4147 
z
M 628 4666 
L 1925 4666 
Q 3281 4666 3915 4102 
Q 4550 3538 4550 2338 
Q 4550 1131 3912 565 
Q 3275 0 1925 0 
L 628 0 
L 628 4666 
z
" transform="scale(0.015625)"/>
      <path id="DejaVuSans-72" d="M 2631 2963 
Q 2534 3019 2420 3045 
Q 2306 3072 2169 3072 
Q 1681 3072 1420 2755 
Q 1159 2438 1159 1844 
L 1159 0 
L 581 0 
L 581 3500 
L 1159 3500 
L 1159 2956 
Q 1341 3275 1631 3429 
Q 1922 3584 2338 3584 
Q 2397 3584 2469 3576 
Q 2541 3569 2628 3553 
L 2631 2963 
z
" transform="scale(0.015625)"/>
      <path id="DejaVuSans-61" d="M 2194 1759 
Q 1497 1759 1228 1600 
Q 959 1441 959 1056 
Q 959 750 1161 570 
Q 1363 391 1709 391 
Q 2188 391 2477 730 
Q 2766 1069 2766 1631 
L 2766 1759 
L 2194 1759 
z
M 3341 1997 
L 3341 0 
L 2766 0 
L 2766 531 
Q 2569 213 2275 61 
Q 1981 -91 1556 -91 
Q 1019 -91 701 211 
Q 384 513 384 1019 
Q 384 1609 779 1909 
Q 1175 2209 1959 2209 
L 2766 2209 
L 2766 2266 
Q 2766 2663 2505 2880 
Q 2244 3097 1772 3097 
Q 1472 3097 1187 3025 
Q 903 2953 641 2809 
L 641 3341 
Q 956 3463 1253 3523 
Q 1550 3584 1831 3584 
Q 2591 3584 2966 3190 
Q 3341 2797 3341 1997 
z
" transform="scale(0.015625)"/>
      <path id="DejaVuSans-77" d="M 269 3500 
L 844 3500 
L 1563 769 
L 2278 3500 
L 2956 3500 
L 3675 769 
L 4391 3500 
L 4966 3500 
L 4050 0 
L 3372 0 
L 2619 2869 
L 1863 0 
L 1184 0 
L 269 3500 
z
" transform="scale(0.015625)"/>
      <path id="DejaVuSans-76" d="M 191 3500 
L 800 3500 
L 1894 563 
L 2988 3500 
L 3597 3500 
L 2284 0 
L 1503 0 
L 191 3500 
z
" transform="scale(0.015625)"/>
      <path id="DejaVuSans-74" d="M 1172 4494 
L 1172 3500 
L 2356 3500 
L 2356 3053 
L 1172 3053 
L 1172 1153 
Q 1172 725 1289 603 
Q 1406 481 1766 481 
L 2356 481 
L 2356 0 
L 1766 0 
Q 1100 0 847 248 
Q 594 497 594 1153 
L 594 3053 
L 172 3053 
L 172 3500 
L 594 3500 
L 594 4494 
L 1172 4494 
z
" transform="scale(0.015625)"/>
      <path id="DejaVuSans-6f" d="M 1959 3097 
Q 1497 3097 1228 2736 
Q 959 2375 959 1747 
Q 959 1119 1226 758 
Q 1494 397 1959 397 
Q 2419 397 2687 759 
Q 2956 1122 2956 1747 
Q 2956 2369 2687 2733 
Q 2419 3097 1959 3097 
z
M 1959 3584 
Q 2709 3584 3137 3096 
Q 3566 2609 3566 1747 
Q 3566 888 3137 398 
Q 2709 -91 1959 -91 
Q 1206 -91 779 398 
Q 353 888 353 1747 
Q 353 2609 779 3096 
Q 1206 3584 1959 3584 
z
" transform="scale(0.015625)"/>
     </defs>
     <use xlink:href="#DejaVuSans-53"/>
     <use xlink:href="#DejaVuSans-69" x="63.476562"/>
     <use xlink:href="#DejaVuSans-6e" x="91.259766"/>
     <use xlink:href="#DejaVuSans-67" x="154.638672"/>
     <use xlink:href="#DejaVuSans-6c" x="218.115234"/>
     <use xlink:href="#DejaVuSans-65" x="245.898438"/>
     <use xlink:href="#DejaVuSans-20" x="307.421875"/>
     <use xlink:href="#DejaVuSans-44" x="339.208984"/>
     <use xlink:href="#DejaVuSans-72" x="416.210938"/>
     <use xlink:href="#DejaVuSans-61" x="457.324219"/>
     <use xlink:href="#DejaVuSans-77" x="518.603516"/>
     <use xlink:href="#DejaVuSans-20" x="600.390625"/>
     <use xlink:href="#DejaVuSans-44" x="632.177734"/>
     <use xlink:href="#DejaVuSans-65" x="709.179688"/>
     <use xlink:href="#DejaVuSans-76" x="770.703125"/>
     <use xlink:href="#DejaVuSans-69" x="829.882812"/>
     <use xlink:href="#DejaVuSans-61" x="857.666016"/>
     <use xlink:href="#DejaVuSans-74" x="918.945312"/>
     <use xlink:href="#DejaVuSans-69" x="958.154297"/>
     <use xlink:href="#DejaVuSans-6f" x="985.9375"/>
     <use xlink:href="#DejaVuSans-6e" x="1047.119141"/>
    </g>
   </g>
   <g id="legend_1">
    <g id="patch_7">
     <path d="M 157.064062 197.98125 
L 317 197.98125 
Q 319 197.98125 319 195.98125 
L 319 50.2 
Q 319 48.2 317 48.2 
L 157.064062 48.2 
Q 155.064062 48.2 155.064062 50.2 
L 155.064062 195.98125 
Q 155.064062 197.98125 157.064062 197.98125 
z
" style="fill: #ffffff; opacity: 0.8; stroke: #cccccc; stroke-linejoin: miter"/>
    </g>
    <g id="line2d_22">
     <path d="M 159.064062 56.298437 
L 169.064062 56.298437 
L 179.064062 56.298437 
" style="fill: none; stroke: #1f77b4; stroke-width: 1.5; stroke-linecap: square"/>
    </g>
    <g id="text_13">
     <!-- Deviation from average 0 -->
     <g transform="translate(187.064062 59.798437)scale(0.1 -0.1)">
      <defs>
       <path id="DejaVuSans-66" d="M 2375 4863 
L 2375 4384 
L 1825 4384 
Q 1516 4384 1395 4259 
Q 1275 4134 1275 3809 
L 1275 3500 
L 2222 3500 
L 2222 3053 
L 1275 3053 
L 1275 0 
L 697 0 
L 697 3053 
L 147 3053 
L 147 3500 
L 697 3500 
L 697 3744 
Q 697 4328 969 4595 
Q 1241 4863 1831 4863 
L 2375 4863 
z
" transform="scale(0.015625)"/>
       <path id="DejaVuSans-6d" d="M 3328 2828 
Q 3544 3216 3844 3400 
Q 4144 3584 4550 3584 
Q 5097 3584 5394 3201 
Q 5691 2819 5691 2113 
L 5691 0 
L 5113 0 
L 5113 2094 
Q 5113 2597 4934 2840 
Q 4756 3084 4391 3084 
Q 3944 3084 3684 2787 
Q 3425 2491 3425 1978 
L 3425 0 
L 2847 0 
L 2847 2094 
Q 2847 2600 2669 2842 
Q 2491 3084 2119 3084 
Q 1678 3084 1418 2786 
Q 1159 2488 1159 1978 
L 1159 0 
L 581 0 
L 581 3500 
L 1159 3500 
L 1159 2956 
Q 1356 3278 1631 3431 
Q 1906 3584 2284 3584 
Q 2666 3584 2933 3390 
Q 3200 3197 3328 2828 
z
" transform="scale(0.015625)"/>
      </defs>
      <use xlink:href="#DejaVuSans-44"/>
      <use xlink:href="#DejaVuSans-65" x="77.001953"/>
      <use xlink:href="#DejaVuSans-76" x="138.525391"/>
      <use xlink:href="#DejaVuSans-69" x="197.705078"/>
      <use xlink:href="#DejaVuSans-61" x="225.488281"/>
      <use xlink:href="#DejaVuSans-74" x="286.767578"/>
      <use xlink:href="#DejaVuSans-69" x="325.976562"/>
      <use xlink:href="#DejaVuSans-6f" x="353.759766"/>
      <use xlink:href="#DejaVuSans-6e" x="414.941406"/>
      <use xlink:href="#DejaVuSans-20" x="478.320312"/>
      <use xlink:href="#DejaVuSans-66" x="510.107422"/>
      <use xlink:href="#DejaVuSans-72" x="545.3125"/>
      <use xlink:href="#DejaVuSans-6f" x="584.175781"/>
      <use xlink:href="#DejaVuSans-6d" x="645.357422"/>
      <use xlink:href="#DejaVuSans-20" x="742.769531"/>
      <use xlink:href="#DejaVuSans-61" x="774.556641"/>
      <use xlink:href="#DejaVuSans-76" x="835.835938"/>
      <use xlink:href="#DejaVuSans-65" x="895.015625"/>
      <use xlink:href="#DejaVuSans-72" x="956.539062"/>
      <use xlink:href="#DejaVuSans-61" x="997.652344"/>
      <use xlink:href="#DejaVuSans-67" x="1058.931641"/>
      <use xlink:href="#DejaVuSans-65" x="1122.408203"/>
      <use xlink:href="#DejaVuSans-20" x="1183.931641"/>
      <use xlink:href="#DejaVuSans-30" x="1215.71875"/>
     </g>
    </g>
    <g id="line2d_23">
     <path d="M 159.064062 70.976562 
L 169.064062 70.976562 
L 179.064062 70.976562 
" style="fill: none; stroke: #ff7f0e; stroke-width: 1.5; stroke-linecap: square"/>
    </g>
    <g id="text_14">
     <!-- Deviation from average 1 -->
     <g transform="translate(187.064062 74.476562)scale(0.1 -0.1)">
      <use xlink:href="#DejaVuSans-44"/>
      <use xlink:href="#DejaVuSans-65" x="77.001953"/>
      <use xlink:href="#DejaVuSans-76" x="138.525391"/>
      <use xlink:href="#DejaVuSans-69" x="197.705078"/>
      <use xlink:href="#DejaVuSans-61" x="225.488281"/>
      <use xlink:href="#DejaVuSans-74" x="286.767578"/>
      <use xlink:href="#DejaVuSans-69" x="325.976562"/>
      <use xlink:href="#DejaVuSans-6f" x="353.759766"/>
      <use xlink:href="#DejaVuSans-6e" x="414.941406"/>
      <use xlink:href="#DejaVuSans-20" x="478.320312"/>
      <use xlink:href="#DejaVuSans-66" x="510.107422"/>
      <use xlink:href="#DejaVuSans-72" x="545.3125"/>
      <use xlink:href="#DejaVuSans-6f" x="584.175781"/>
      <use xlink:href="#DejaVuSans-6d" x="645.357422"/>
      <use xlink:href="#DejaVuSans-20" x="742.769531"/>
      <use xlink:href="#DejaVuSans-61" x="774.556641"/>
      <use xlink:href="#DejaVuSans-76" x="835.835938"/>
      <use xlink:href="#DejaVuSans-65" x="895.015625"/>
      <use xlink:href="#DejaVuSans-72" x="956.539062"/>
      <use xlink:href="#DejaVuSans-61" x="997.652344"/>
      <use xlink:href="#DejaVuSans-67" x="1058.931641"/>
      <use xlink:href="#DejaVuSans-65" x="1122.408203"/>
      <use xlink:href="#DejaVuSans-20" x="1183.931641"/>
      <use xlink:href="#DejaVuSans-31" x="1215.71875"/>
     </g>
    </g>
    <g id="line2d_24">
     <path d="M 159.064062 85.654688 
L 169.064062 85.654688 
L 179.064062 85.654688 
" style="fill: none; stroke: #2ca02c; stroke-width: 1.5; stroke-linecap: square"/>
    </g>
    <g id="text_15">
     <!-- Deviation from average 2 -->
     <g transform="translate(187.064062 89.154688)scale(0.1 -0.1)">
      <use xlink:href="#DejaVuSans-44"/>
      <use xlink:href="#DejaVuSans-65" x="77.001953"/>
      <use xlink:href="#DejaVuSans-76" x="138.525391"/>
      <use xlink:href="#DejaVuSans-69" x="197.705078"/>
      <use xlink:href="#DejaVuSans-61" x="225.488281"/>
      <use xlink:href="#DejaVuSans-74" x="286.767578"/>
      <use xlink:href="#DejaVuSans-69" x="325.976562"/>
      <use xlink:href="#DejaVuSans-6f" x="353.759766"/>
      <use xlink:href="#DejaVuSans-6e" x="414.941406"/>
      <use xlink:href="#DejaVuSans-20" x="478.320312"/>
      <use xlink:href="#DejaVuSans-66" x="510.107422"/>
      <use xlink:href="#DejaVuSans-72" x="545.3125"/>
      <use xlink:href="#DejaVuSans-6f" x="584.175781"/>
      <use xlink:href="#DejaVuSans-6d" x="645.357422"/>
      <use xlink:href="#DejaVuSans-20" x="742.769531"/>
      <use xlink:href="#DejaVuSans-61" x="774.556641"/>
      <use xlink:href="#DejaVuSans-76" x="835.835938"/>
      <use xlink:href="#DejaVuSans-65" x="895.015625"/>
      <use xlink:href="#DejaVuSans-72" x="956.539062"/>
      <use xlink:href="#DejaVuSans-61" x="997.652344"/>
      <use xlink:href="#DejaVuSans-67" x="1058.931641"/>
      <use xlink:href="#DejaVuSans-65" x="1122.408203"/>
      <use xlink:href="#DejaVuSans-20" x="1183.931641"/>
      <use xlink:href="#DejaVuSans-32" x="1215.71875"/>
     </g>
    </g>
    <g id="line2d_25">
     <path d="M 159.064062 100.332812 
L 169.064062 100.332812 
L 179.064062 100.332812 
" style="fill: none; stroke: #d62728; stroke-width: 1.5; stroke-linecap: square"/>
    </g>
    <g id="text_16">
     <!-- Deviation from average 3 -->
     <g transform="translate(187.064062 103.832812)scale(0.1 -0.1)">
      <defs>
       <path id="DejaVuSans-33" d="M 2597 2516 
Q 3050 2419 3304 2112 
Q 3559 1806 3559 1356 
Q 3559 666 3084 287 
Q 2609 -91 1734 -91 
Q 1441 -91 1130 -33 
Q 819 25 488 141 
L 488 750 
Q 750 597 1062 519 
Q 1375 441 1716 441 
Q 2309 441 2620 675 
Q 2931 909 2931 1356 
Q 2931 1769 2642 2001 
Q 2353 2234 1838 2234 
L 1294 2234 
L 1294 2753 
L 1863 2753 
Q 2328 2753 2575 2939 
Q 2822 3125 2822 3475 
Q 2822 3834 2567 4026 
Q 2313 4219 1838 4219 
Q 1578 4219 1281 4162 
Q 984 4106 628 3988 
L 628 4550 
Q 988 4650 1302 4700 
Q 1616 4750 1894 4750 
Q 2613 4750 3031 4423 
Q 3450 4097 3450 3541 
Q 3450 3153 3228 2886 
Q 3006 2619 2597 2516 
z
" transform="scale(0.015625)"/>
      </defs>
      <use xlink:href="#DejaVuSans-44"/>
      <use xlink:href="#DejaVuSans-65" x="77.001953"/>
      <use xlink:href="#DejaVuSans-76" x="138.525391"/>
      <use xlink:href="#DejaVuSans-69" x="197.705078"/>
      <use xlink:href="#DejaVuSans-61" x="225.488281"/>
      <use xlink:href="#DejaVuSans-74" x="286.767578"/>
      <use xlink:href="#DejaVuSans-69" x="325.976562"/>
      <use xlink:href="#DejaVuSans-6f" x="353.759766"/>
      <use xlink:href="#DejaVuSans-6e" x="414.941406"/>
      <use xlink:href="#DejaVuSans-20" x="478.320312"/>
      <use xlink:href="#DejaVuSans-66" x="510.107422"/>
      <use xlink:href="#DejaVuSans-72" x="545.3125"/>
      <use xlink:href="#DejaVuSans-6f" x="584.175781"/>
      <use xlink:href="#DejaVuSans-6d" x="645.357422"/>
      <use xlink:href="#DejaVuSans-20" x="742.769531"/>
      <use xlink:href="#DejaVuSans-61" x="774.556641"/>
      <use xlink:href="#DejaVuSans-76" x="835.835938"/>
      <use xlink:href="#DejaVuSans-65" x="895.015625"/>
      <use xlink:href="#DejaVuSans-72" x="956.539062"/>
      <use xlink:href="#DejaVuSans-61" x="997.652344"/>
      <use xlink:href="#DejaVuSans-67" x="1058.931641"/>
      <use xlink:href="#DejaVuSans-65" x="1122.408203"/>
      <use xlink:href="#DejaVuSans-20" x="1183.931641"/>
      <use xlink:href="#DejaVuSans-33" x="1215.71875"/>
     </g>
    </g>
    <g id="line2d_26">
     <path d="M 159.064062 115.010938 
L 169.064062 115.010938 
L 179.064062 115.010938 
" style="fill: none; stroke: #9467bd; stroke-width: 1.5; stroke-linecap: square"/>
    </g>
    <g id="text_17">
     <!-- Deviation from average 4 -->
     <g transform="translate(187.064062 118.510938)scale(0.1 -0.1)">
      <use xlink:href="#DejaVuSans-44"/>
      <use xlink:href="#DejaVuSans-65" x="77.001953"/>
      <use xlink:href="#DejaVuSans-76" x="138.525391"/>
      <use xlink:href="#DejaVuSans-69" x="197.705078"/>
      <use xlink:href="#DejaVuSans-61" x="225.488281"/>
      <use xlink:href="#DejaVuSans-74" x="286.767578"/>
      <use xlink:href="#DejaVuSans-69" x="325.976562"/>
      <use xlink:href="#DejaVuSans-6f" x="353.759766"/>
      <use xlink:href="#DejaVuSans-6e" x="414.941406"/>
      <use xlink:href="#DejaVuSans-20" x="478.320312"/>
      <use xlink:href="#DejaVuSans-66" x="510.107422"/>
      <use xlink:href="#DejaVuSans-72" x="545.3125"/>
      <use xlink:href="#DejaVuSans-6f" x="584.175781"/>
      <use xlink:href="#DejaVuSans-6d" x="645.357422"/>
      <use xlink:href="#DejaVuSans-20" x="742.769531"/>
      <use xlink:href="#DejaVuSans-61" x="774.556641"/>
      <use xlink:href="#DejaVuSans-76" x="835.835938"/>
      <use xlink:href="#DejaVuSans-65" x="895.015625"/>
      <use xlink:href="#DejaVuSans-72" x="956.539062"/>
      <use xlink:href="#DejaVuSans-61" x="997.652344"/>
      <use xlink:href="#DejaVuSans-67" x="1058.931641"/>
      <use xlink:href="#DejaVuSans-65" x="1122.408203"/>
      <use xlink:href="#DejaVuSans-20" x="1183.931641"/>
      <use xlink:href="#DejaVuSans-34" x="1215.71875"/>
     </g>
    </g>
    <g id="line2d_27">
     <path d="M 159.064062 129.689062 
L 169.064062 129.689062 
L 179.064062 129.689062 
" style="fill: none; stroke: #8c564b; stroke-width: 1.5; stroke-linecap: square"/>
    </g>
    <g id="text_18">
     <!-- Deviation from average 5 -->
     <g transform="translate(187.064062 133.189062)scale(0.1 -0.1)">
      <defs>
       <path id="DejaVuSans-35" d="M 691 4666 
L 3169 4666 
L 3169 4134 
L 1269 4134 
L 1269 2991 
Q 1406 3038 1543 3061 
Q 1681 3084 1819 3084 
Q 2600 3084 3056 2656 
Q 3513 2228 3513 1497 
Q 3513 744 3044 326 
Q 2575 -91 1722 -91 
Q 1428 -91 1123 -41 
Q 819 9 494 109 
L 494 744 
Q 775 591 1075 516 
Q 1375 441 1709 441 
Q 2250 441 2565 725 
Q 2881 1009 2881 1497 
Q 2881 1984 2565 2268 
Q 2250 2553 1709 2553 
Q 1456 2553 1204 2497 
Q 953 2441 691 2322 
L 691 4666 
z
" transform="scale(0.015625)"/>
      </defs>
      <use xlink:href="#DejaVuSans-44"/>
      <use xlink:href="#DejaVuSans-65" x="77.001953"/>
      <use xlink:href="#DejaVuSans-76" x="138.525391"/>
      <use xlink:href="#DejaVuSans-69" x="197.705078"/>
      <use xlink:href="#DejaVuSans-61" x="225.488281"/>
      <use xlink:href="#DejaVuSans-74" x="286.767578"/>
      <use xlink:href="#DejaVuSans-69" x="325.976562"/>
      <use xlink:href="#DejaVuSans-6f" x="353.759766"/>
      <use xlink:href="#DejaVuSans-6e" x="414.941406"/>
      <use xlink:href="#DejaVuSans-20" x="478.320312"/>
      <use xlink:href="#DejaVuSans-66" x="510.107422"/>
      <use xlink:href="#DejaVuSans-72" x="545.3125"/>
      <use xlink:href="#DejaVuSans-6f" x="584.175781"/>
      <use xlink:href="#DejaVuSans-6d" x="645.357422"/>
      <use xlink:href="#DejaVuSans-20" x="742.769531"/>
      <use xlink:href="#DejaVuSans-61" x="774.556641"/>
      <use xlink:href="#DejaVuSans-76" x="835.835938"/>
      <use xlink:href="#DejaVuSans-65" x="895.015625"/>
      <use xlink:href="#DejaVuSans-72" x="956.539062"/>
      <use xlink:href="#DejaVuSans-61" x="997.652344"/>
      <use xlink:href="#DejaVuSans-67" x="1058.931641"/>
      <use xlink:href="#DejaVuSans-65" x="1122.408203"/>
      <use xlink:href="#DejaVuSans-20" x="1183.931641"/>
      <use xlink:href="#DejaVuSans-35" x="1215.71875"/>
     </g>
    </g>
    <g id="line2d_28">
     <path d="M 159.064062 144.367188 
L 169.064062 144.367188 
L 179.064062 144.367188 
" style="fill: none; stroke: #e377c2; stroke-width: 1.5; stroke-linecap: square"/>
    </g>
    <g id="text_19">
     <!-- Deviation from average 6 -->
     <g transform="translate(187.064062 147.867188)scale(0.1 -0.1)">
      <use xlink:href="#DejaVuSans-44"/>
      <use xlink:href="#DejaVuSans-65" x="77.001953"/>
      <use xlink:href="#DejaVuSans-76" x="138.525391"/>
      <use xlink:href="#DejaVuSans-69" x="197.705078"/>
      <use xlink:href="#DejaVuSans-61" x="225.488281"/>
      <use xlink:href="#DejaVuSans-74" x="286.767578"/>
      <use xlink:href="#DejaVuSans-69" x="325.976562"/>
      <use xlink:href="#DejaVuSans-6f" x="353.759766"/>
      <use xlink:href="#DejaVuSans-6e" x="414.941406"/>
      <use xlink:href="#DejaVuSans-20" x="478.320312"/>
      <use xlink:href="#DejaVuSans-66" x="510.107422"/>
      <use xlink:href="#DejaVuSans-72" x="545.3125"/>
      <use xlink:href="#DejaVuSans-6f" x="584.175781"/>
      <use xlink:href="#DejaVuSans-6d" x="645.357422"/>
      <use xlink:href="#DejaVuSans-20" x="742.769531"/>
      <use xlink:href="#DejaVuSans-61" x="774.556641"/>
      <use xlink:href="#DejaVuSans-76" x="835.835938"/>
      <use xlink:href="#DejaVuSans-65" x="895.015625"/>
      <use xlink:href="#DejaVuSans-72" x="956.539062"/>
      <use xlink:href="#DejaVuSans-61" x="997.652344"/>
      <use xlink:href="#DejaVuSans-67" x="1058.931641"/>
      <use xlink:href="#DejaVuSans-65" x="1122.408203"/>
      <use xlink:href="#DejaVuSans-20" x="1183.931641"/>
      <use xlink:href="#DejaVuSans-36" x="1215.71875"/>
     </g>
    </g>
    <g id="line2d_29">
     <path d="M 159.064062 159.045312 
L 169.064062 159.045312 
L 179.064062 159.045312 
" style="fill: none; stroke: #7f7f7f; stroke-width: 1.5; stroke-linecap: square"/>
    </g>
    <g id="text_20">
     <!-- Deviation from average 7 -->
     <g transform="translate(187.064062 162.545312)scale(0.1 -0.1)">
      <defs>
       <path id="DejaVuSans-37" d="M 525 4666 
L 3525 4666 
L 3525 4397 
L 1831 0 
L 1172 0 
L 2766 4134 
L 525 4134 
L 525 4666 
z
" transform="scale(0.015625)"/>
      </defs>
      <use xlink:href="#DejaVuSans-44"/>
      <use xlink:href="#DejaVuSans-65" x="77.001953"/>
      <use xlink:href="#DejaVuSans-76" x="138.525391"/>
      <use xlink:href="#DejaVuSans-69" x="197.705078"/>
      <use xlink:href="#DejaVuSans-61" x="225.488281"/>
      <use xlink:href="#DejaVuSans-74" x="286.767578"/>
      <use xlink:href="#DejaVuSans-69" x="325.976562"/>
      <use xlink:href="#DejaVuSans-6f" x="353.759766"/>
      <use xlink:href="#DejaVuSans-6e" x="414.941406"/>
      <use xlink:href="#DejaVuSans-20" x="478.320312"/>
      <use xlink:href="#DejaVuSans-66" x="510.107422"/>
      <use xlink:href="#DejaVuSans-72" x="545.3125"/>
      <use xlink:href="#DejaVuSans-6f" x="584.175781"/>
      <use xlink:href="#DejaVuSans-6d" x="645.357422"/>
      <use xlink:href="#DejaVuSans-20" x="742.769531"/>
      <use xlink:href="#DejaVuSans-61" x="774.556641"/>
      <use xlink:href="#DejaVuSans-76" x="835.835938"/>
      <use xlink:href="#DejaVuSans-65" x="895.015625"/>
      <use xlink:href="#DejaVuSans-72" x="956.539062"/>
      <use xlink:href="#DejaVuSans-61" x="997.652344"/>
      <use xlink:href="#DejaVuSans-67" x="1058.931641"/>
      <use xlink:href="#DejaVuSans-65" x="1122.408203"/>
      <use xlink:href="#DejaVuSans-20" x="1183.931641"/>
      <use xlink:href="#DejaVuSans-37" x="1215.71875"/>
     </g>
    </g>
    <g id="line2d_30">
     <path d="M 159.064062 173.723437 
L 169.064062 173.723437 
L 179.064062 173.723437 
" style="fill: none; stroke: #bcbd22; stroke-width: 1.5; stroke-linecap: square"/>
    </g>
    <g id="text_21">
     <!-- Deviation from average 8 -->
     <g transform="translate(187.064062 177.223437)scale(0.1 -0.1)">
      <defs>
       <path id="DejaVuSans-38" d="M 2034 2216 
Q 1584 2216 1326 1975 
Q 1069 1734 1069 1313 
Q 1069 891 1326 650 
Q 1584 409 2034 409 
Q 2484 409 2743 651 
Q 3003 894 3003 1313 
Q 3003 1734 2745 1975 
Q 2488 2216 2034 2216 
z
M 1403 2484 
Q 997 2584 770 2862 
Q 544 3141 544 3541 
Q 544 4100 942 4425 
Q 1341 4750 2034 4750 
Q 2731 4750 3128 4425 
Q 3525 4100 3525 3541 
Q 3525 3141 3298 2862 
Q 3072 2584 2669 2484 
Q 3125 2378 3379 2068 
Q 3634 1759 3634 1313 
Q 3634 634 3220 271 
Q 2806 -91 2034 -91 
Q 1263 -91 848 271 
Q 434 634 434 1313 
Q 434 1759 690 2068 
Q 947 2378 1403 2484 
z
M 1172 3481 
Q 1172 3119 1398 2916 
Q 1625 2713 2034 2713 
Q 2441 2713 2670 2916 
Q 2900 3119 2900 3481 
Q 2900 3844 2670 4047 
Q 2441 4250 2034 4250 
Q 1625 4250 1398 4047 
Q 1172 3844 1172 3481 
z
" transform="scale(0.015625)"/>
      </defs>
      <use xlink:href="#DejaVuSans-44"/>
      <use xlink:href="#DejaVuSans-65" x="77.001953"/>
      <use xlink:href="#DejaVuSans-76" x="138.525391"/>
      <use xlink:href="#DejaVuSans-69" x="197.705078"/>
      <use xlink:href="#DejaVuSans-61" x="225.488281"/>
      <use xlink:href="#DejaVuSans-74" x="286.767578"/>
      <use xlink:href="#DejaVuSans-69" x="325.976562"/>
      <use xlink:href="#DejaVuSans-6f" x="353.759766"/>
      <use xlink:href="#DejaVuSans-6e" x="414.941406"/>
      <use xlink:href="#DejaVuSans-20" x="478.320312"/>
      <use xlink:href="#DejaVuSans-66" x="510.107422"/>
      <use xlink:href="#DejaVuSans-72" x="545.3125"/>
      <use xlink:href="#DejaVuSans-6f" x="584.175781"/>
      <use xlink:href="#DejaVuSans-6d" x="645.357422"/>
      <use xlink:href="#DejaVuSans-20" x="742.769531"/>
      <use xlink:href="#DejaVuSans-61" x="774.556641"/>
      <use xlink:href="#DejaVuSans-76" x="835.835938"/>
      <use xlink:href="#DejaVuSans-65" x="895.015625"/>
      <use xlink:href="#DejaVuSans-72" x="956.539062"/>
      <use xlink:href="#DejaVuSans-61" x="997.652344"/>
      <use xlink:href="#DejaVuSans-67" x="1058.931641"/>
      <use xlink:href="#DejaVuSans-65" x="1122.408203"/>
      <use xlink:href="#DejaVuSans-20" x="1183.931641"/>
      <use xlink:href="#DejaVuSans-38" x="1215.71875"/>
     </g>
    </g>
    <g id="line2d_31">
     <path d="M 159.064062 188.401562 
L 169.064062 188.401562 
L 179.064062 188.401562 
" style="fill: none; stroke: #17becf; stroke-width: 1.5; stroke-linecap: square"/>
    </g>
    <g id="text_22">
     <!-- Deviation from average 9 -->
     <g transform="translate(187.064062 191.901562)scale(0.1 -0.1)">
      <defs>
       <path id="DejaVuSans-39" d="M 703 97 
L 703 672 
Q 941 559 1184 500 
Q 1428 441 1663 441 
Q 2288 441 2617 861 
Q 2947 1281 2994 2138 
Q 2813 1869 2534 1725 
Q 2256 1581 1919 1581 
Q 1219 1581 811 2004 
Q 403 2428 403 3163 
Q 403 3881 828 4315 
Q 1253 4750 1959 4750 
Q 2769 4750 3195 4129 
Q 3622 3509 3622 2328 
Q 3622 1225 3098 567 
Q 2575 -91 1691 -91 
Q 1453 -91 1209 -44 
Q 966 3 703 97 
z
M 1959 2075 
Q 2384 2075 2632 2365 
Q 2881 2656 2881 3163 
Q 2881 3666 2632 3958 
Q 2384 4250 1959 4250 
Q 1534 4250 1286 3958 
Q 1038 3666 1038 3163 
Q 1038 2656 1286 2365 
Q 1534 2075 1959 2075 
z
" transform="scale(0.015625)"/>
      </defs>
      <use xlink:href="#DejaVuSans-44"/>
      <use xlink:href="#DejaVuSans-65" x="77.001953"/>
      <use xlink:href="#DejaVuSans-76" x="138.525391"/>
      <use xlink:href="#DejaVuSans-69" x="197.705078"/>
      <use xlink:href="#DejaVuSans-61" x="225.488281"/>
      <use xlink:href="#DejaVuSans-74" x="286.767578"/>
      <use xlink:href="#DejaVuSans-69" x="325.976562"/>
      <use xlink:href="#DejaVuSans-6f" x="353.759766"/>
      <use xlink:href="#DejaVuSans-6e" x="414.941406"/>
      <use xlink:href="#DejaVuSans-20" x="478.320312"/>
      <use xlink:href="#DejaVuSans-66" x="510.107422"/>
      <use xlink:href="#DejaVuSans-72" x="545.3125"/>
      <use xlink:href="#DejaVuSans-6f" x="584.175781"/>
      <use xlink:href="#DejaVuSans-6d" x="645.357422"/>
      <use xlink:href="#DejaVuSans-20" x="742.769531"/>
      <use xlink:href="#DejaVuSans-61" x="774.556641"/>
      <use xlink:href="#DejaVuSans-76" x="835.835938"/>
      <use xlink:href="#DejaVuSans-65" x="895.015625"/>
      <use xlink:href="#DejaVuSans-72" x="956.539062"/>
      <use xlink:href="#DejaVuSans-61" x="997.652344"/>
      <use xlink:href="#DejaVuSans-67" x="1058.931641"/>
      <use xlink:href="#DejaVuSans-65" x="1122.408203"/>
      <use xlink:href="#DejaVuSans-20" x="1183.931641"/>
      <use xlink:href="#DejaVuSans-39" x="1215.71875"/>
     </g>
    </g>
   </g>
  </g>
 </g>
 <defs>
  <clipPath id="p689f531fc6">
   <rect x="45" y="43.2" width="279" height="277.2"/>
  </clipPath>
 </defs>
</svg>
