<?xml version="1.0" encoding="utf-8" standalone="no"?>
<!DOCTYPE svg PUBLIC "-//W3C//DTD SVG 1.1//EN"
  "http://www.w3.org/Graphics/SVG/1.1/DTD/svg11.dtd">
<svg xmlns:xlink="http://www.w3.org/1999/xlink" width="360pt" height="360pt" viewBox="0 0 360 360" xmlns="http://www.w3.org/2000/svg" version="1.1">
 <metadata>
  <rdf:RDF xmlns:dc="http://purl.org/dc/elements/1.1/" xmlns:cc="http://creativecommons.org/ns#" xmlns:rdf="http://www.w3.org/1999/02/22-rdf-syntax-ns#">
   <cc:Work>
    <dc:type rdf:resource="http://purl.org/dc/dcmitype/StillImage"/>
    <dc:date>2022-11-10T20:22:03.188618</dc:date>
    <dc:format>image/svg+xml</dc:format>
    <dc:creator>
     <cc:Agent>
      <dc:title>Matplotlib v3.5.3, https://matplotlib.org/</dc:title>
     </cc:Agent>
    </dc:creator>
   </cc:Work>
  </rdf:RDF>
 </metadata>
 <defs>
  <style type="text/css">*{stroke-linejoin: round; stroke-linecap: butt}</style>
 </defs>
 <g id="figure_1">
  <g id="patch_1">
   <path d="M 0 360 
L 360 360 
L 360 0 
L 0 0 
z
" style="fill: #ffffff"/>
  </g>
  <g id="axes_1">
   <g id="patch_2">
    <path d="M 45 320.4 
L 324 320.4 
L 324 43.2 
L 45 43.2 
z
" style="fill: #ffffff"/>
   </g>
   <g id="matplotlib.axis_1">
    <g id="xtick_1">
     <g id="line2d_1">
      <defs>
       <path id="mf3e57903cc" d="M 0 0 
L 0 3.5 
" style="stroke: #000000; stroke-width: 0.8"/>
      </defs>
      <g>
       <use xlink:href="#mf3e57903cc" x="83.045455" y="320.4" style="stroke: #000000; stroke-width: 0.8"/>
      </g>
     </g>
     <g id="text_1">
      <!-- −2 -->
      <g transform="translate(75.674361 334.998438)scale(0.1 -0.1)">
       <defs>
        <path id="DejaVuSans-2212" d="M 678 2272 
L 4684 2272 
L 4684 1741 
L 678 1741 
L 678 2272 
z
" transform="scale(0.015625)"/>
        <path id="DejaVuSans-32" d="M 1228 531 
L 3431 531 
L 3431 0 
L 469 0 
L 469 531 
Q 828 903 1448 1529 
Q 2069 2156 2228 2338 
Q 2531 2678 2651 2914 
Q 2772 3150 2772 3378 
Q 2772 3750 2511 3984 
Q 2250 4219 1831 4219 
Q 1534 4219 1204 4116 
Q 875 4013 500 3803 
L 500 4441 
Q 881 4594 1212 4672 
Q 1544 4750 1819 4750 
Q 2544 4750 2975 4387 
Q 3406 4025 3406 3419 
Q 3406 3131 3298 2873 
Q 3191 2616 2906 2266 
Q 2828 2175 2409 1742 
Q 1991 1309 1228 531 
z
" transform="scale(0.015625)"/>
       </defs>
       <use xlink:href="#DejaVuSans-2212"/>
       <use xlink:href="#DejaVuSans-32" x="83.789062"/>
      </g>
     </g>
    </g>
    <g id="xtick_2">
     <g id="line2d_2">
      <g>
       <use xlink:href="#mf3e57903cc" x="133.772727" y="320.4" style="stroke: #000000; stroke-width: 0.8"/>
      </g>
     </g>
     <g id="text_2">
      <!-- −1 -->
      <g transform="translate(126.401634 334.998438)scale(0.1 -0.1)">
       <defs>
        <path id="DejaVuSans-31" d="M 794 531 
L 1825 531 
L 1825 4091 
L 703 3866 
L 703 4441 
L 1819 4666 
L 2450 4666 
L 2450 531 
L 3481 531 
L 3481 0 
L 794 0 
L 794 531 
z
" transform="scale(0.015625)"/>
       </defs>
       <use xlink:href="#DejaVuSans-2212"/>
       <use xlink:href="#DejaVuSans-31" x="83.789062"/>
      </g>
     </g>
    </g>
    <g id="xtick_3">
     <g id="line2d_3">
      <g>
       <use xlink:href="#mf3e57903cc" x="184.5" y="320.4" style="stroke: #000000; stroke-width: 0.8"/>
      </g>
     </g>
     <g id="text_3">
      <!-- 0 -->
      <g transform="translate(181.31875 334.998438)scale(0.1 -0.1)">
       <defs>
        <path id="DejaVuSans-30" d="M 2034 4250 
Q 1547 4250 1301 3770 
Q 1056 3291 1056 2328 
Q 1056 1369 1301 889 
Q 1547 409 2034 409 
Q 2525 409 2770 889 
Q 3016 1369 3016 2328 
Q 3016 3291 2770 3770 
Q 2525 4250 2034 4250 
z
M 2034 4750 
Q 2819 4750 3233 4129 
Q 3647 3509 3647 2328 
Q 3647 1150 3233 529 
Q 2819 -91 2034 -91 
Q 1250 -91 836 529 
Q 422 1150 422 2328 
Q 422 3509 836 4129 
Q 1250 4750 2034 4750 
z
" transform="scale(0.015625)"/>
       </defs>
       <use xlink:href="#DejaVuSans-30"/>
      </g>
     </g>
    </g>
    <g id="xtick_4">
     <g id="line2d_4">
      <g>
       <use xlink:href="#mf3e57903cc" x="235.227273" y="320.4" style="stroke: #000000; stroke-width: 0.8"/>
      </g>
     </g>
     <g id="text_4">
      <!-- 1 -->
      <g transform="translate(232.046023 334.998438)scale(0.1 -0.1)">
       <use xlink:href="#DejaVuSans-31"/>
      </g>
     </g>
    </g>
    <g id="xtick_5">
     <g id="line2d_5">
      <g>
       <use xlink:href="#mf3e57903cc" x="285.954545" y="320.4" style="stroke: #000000; stroke-width: 0.8"/>
      </g>
     </g>
     <g id="text_5">
      <!-- 2 -->
      <g transform="translate(282.773295 334.998438)scale(0.1 -0.1)">
       <use xlink:href="#DejaVuSans-32"/>
      </g>
     </g>
    </g>
   </g>
   <g id="matplotlib.axis_2">
    <g id="ytick_1">
     <g id="line2d_6">
      <defs>
       <path id="m0b0fd483ae" d="M 0 0 
L -3.5 0 
" style="stroke: #000000; stroke-width: 0.8"/>
      </defs>
      <g>
       <use xlink:href="#m0b0fd483ae" x="45" y="280.173739" style="stroke: #000000; stroke-width: 0.8"/>
      </g>
     </g>
     <g id="text_6">
      <!-- 0 -->
      <g transform="translate(31.6375 283.972958)scale(0.1 -0.1)">
       <use xlink:href="#DejaVuSans-30"/>
      </g>
     </g>
    </g>
    <g id="ytick_2">
     <g id="line2d_7">
      <g>
       <use xlink:href="#m0b0fd483ae" x="45" y="230.621033" style="stroke: #000000; stroke-width: 0.8"/>
      </g>
     </g>
     <g id="text_7">
      <!-- 10 -->
      <g transform="translate(25.275 234.420252)scale(0.1 -0.1)">
       <use xlink:href="#DejaVuSans-31"/>
       <use xlink:href="#DejaVuSans-30" x="63.623047"/>
      </g>
     </g>
    </g>
    <g id="ytick_3">
     <g id="line2d_8">
      <g>
       <use xlink:href="#m0b0fd483ae" x="45" y="181.068327" style="stroke: #000000; stroke-width: 0.8"/>
      </g>
     </g>
     <g id="text_8">
      <!-- 20 -->
      <g transform="translate(25.275 184.867546)scale(0.1 -0.1)">
       <use xlink:href="#DejaVuSans-32"/>
       <use xlink:href="#DejaVuSans-30" x="63.623047"/>
      </g>
     </g>
    </g>
    <g id="ytick_4">
     <g id="line2d_9">
      <g>
       <use xlink:href="#m0b0fd483ae" x="45" y="131.515621" style="stroke: #000000; stroke-width: 0.8"/>
      </g>
     </g>
     <g id="text_9">
      <!-- 30 -->
      <g transform="translate(25.275 135.31484)scale(0.1 -0.1)">
       <defs>
        <path id="DejaVuSans-33" d="M 2597 2516 
Q 3050 2419 3304 2112 
Q 3559 1806 3559 1356 
Q 3559 666 3084 287 
Q 2609 -91 1734 -91 
Q 1441 -91 1130 -33 
Q 819 25 488 141 
L 488 750 
Q 750 597 1062 519 
Q 1375 441 1716 441 
Q 2309 441 2620 675 
Q 2931 909 2931 1356 
Q 2931 1769 2642 2001 
Q 2353 2234 1838 2234 
L 1294 2234 
L 1294 2753 
L 1863 2753 
Q 2328 2753 2575 2939 
Q 2822 3125 2822 3475 
Q 2822 3834 2567 4026 
Q 2313 4219 1838 4219 
Q 1578 4219 1281 4162 
Q 984 4106 628 3988 
L 628 4550 
Q 988 4650 1302 4700 
Q 1616 4750 1894 4750 
Q 2613 4750 3031 4423 
Q 3450 4097 3450 3541 
Q 3450 3153 3228 2886 
Q 3006 2619 2597 2516 
z
" transform="scale(0.015625)"/>
       </defs>
       <use xlink:href="#DejaVuSans-33"/>
       <use xlink:href="#DejaVuSans-30" x="63.623047"/>
      </g>
     </g>
    </g>
    <g id="ytick_5">
     <g id="line2d_10">
      <g>
       <use xlink:href="#m0b0fd483ae" x="45" y="81.962915" style="stroke: #000000; stroke-width: 0.8"/>
      </g>
     </g>
     <g id="text_10">
      <!-- 40 -->
      <g transform="translate(25.275 85.762134)scale(0.1 -0.1)">
       <defs>
        <path id="DejaVuSans-34" d="M 2419 4116 
L 825 1625 
L 2419 1625 
L 2419 4116 
z
M 2253 4666 
L 3047 4666 
L 3047 1625 
L 3713 1625 
L 3713 1100 
L 3047 1100 
L 3047 0 
L 2419 0 
L 2419 1100 
L 313 1100 
L 313 1709 
L 2253 4666 
z
" transform="scale(0.015625)"/>
       </defs>
       <use xlink:href="#DejaVuSans-34"/>
       <use xlink:href="#DejaVuSans-30" x="63.623047"/>
      </g>
     </g>
    </g>
   </g>
   <g id="line2d_11">
    <path d="M 57.681818 179.633959 
L 62.131574 201.13053 
L 67.852697 224.762324 
L 69.124053 229.52703 
L 71.031098 236.401815 
L 72.938143 242.565413 
L 73.573821 244.853705 
L 74.845188 248.645819 
L 76.116544 252.617586 
L 77.387899 256.174423 
L 78.023577 258.014439 
L 78.659254 259.327224 
L 79.930622 262.723369 
L 82.473333 269.139265 
L 83.109022 270.390238 
L 83.7447 271.981778 
L 84.380384 273.107834 
L 85.016061 274.606292 
L 85.651745 275.747436 
L 86.287423 277.143446 
L 86.923101 278.121361 
L 87.558784 279.675746 
L 88.83014 281.983547 
L 89.465823 282.71867 
L 90.101501 283.933465 
L 90.737185 284.821367 
L 91.372862 286.277633 
L 92.644224 288.204473 
L 93.279902 289.102221 
L 93.915579 289.731483 
L 96.458302 293.307852 
L 97.09398 293.766814 
L 97.729663 294.731576 
L 98.365347 295.188454 
L 99.001025 296.079645 
L 99.636709 296.536171 
L 100.272386 297.502884 
L 100.90807 298.043705 
L 101.543748 298.427622 
L 102.815109 299.66544 
L 103.450781 299.96996 
L 104.086458 300.442311 
L 104.722142 301.261608 
L 105.35782 301.663858 
L 105.993504 301.733199 
L 106.629181 302.451337 
L 108.536226 303.611373 
L 109.171904 303.735605 
L 110.443266 304.576612 
L 111.078949 304.662896 
L 111.714627 305.091887 
L 112.350305 305.369114 
L 112.985988 305.514278 
L 113.621666 305.796626 
L 114.257344 305.922797 
L 114.893027 305.68628 
L 115.528705 306.040035 
L 116.164389 306.147661 
L 116.800067 306.576886 
L 118.707106 306.583207 
L 119.342783 306.903303 
L 119.978467 306.841535 
L 120.614145 306.919049 
L 121.249829 306.792719 
L 121.885506 306.895323 
L 122.521184 306.817352 
L 123.156868 306.952746 
L 124.428223 306.862723 
L 125.063907 306.7522 
L 125.699584 306.800899 
L 126.335268 306.324561 
L 126.970946 306.497714 
L 127.606623 306.141156 
L 128.242307 306.172726 
L 128.877991 306.345399 
L 129.513669 305.840131 
L 130.149352 305.946341 
L 132.056391 305.670248 
L 132.692069 305.184457 
L 133.327753 305.132693 
L 133.963431 304.797397 
L 134.599111 304.904756 
L 135.234792 304.317572 
L 135.87047 304.47623 
L 137.777512 303.503704 
L 139.04887 302.931886 
L 139.684551 303.108018 
L 140.320232 302.597447 
L 140.955909 302.509083 
L 141.59159 302.167053 
L 142.227271 302.057617 
L 142.862951 301.373825 
L 143.498632 301.503945 
L 144.13431 300.907742 
L 146.041349 300.302874 
L 146.67703 299.645443 
L 147.31271 299.514293 
L 147.948391 299.231496 
L 148.584072 299.173048 
L 149.219749 298.538909 
L 150.491111 298.124126 
L 151.126789 297.477616 
L 152.39815 297.179829 
L 153.669511 296.39816 
L 154.305195 295.916864 
L 154.940876 295.785642 
L 155.576557 295.529209 
L 156.212234 295.13672 
L 156.847915 294.899658 
L 157.483596 294.287664 
L 158.119276 293.844618 
L 158.754957 293.929055 
L 159.390635 293.296814 
L 160.026315 292.884187 
L 161.297675 292.414319 
L 161.933355 291.853068 
L 163.204716 291.201571 
L 164.476068 290.671298 
L 165.111749 290.235023 
L 166.383109 289.647706 
L 167.018788 289.072176 
L 167.654469 288.674744 
L 168.29015 288.569849 
L 170.197195 287.536967 
L 171.468555 286.774597 
L 172.104235 286.731368 
L 172.739914 286.261074 
L 173.375594 285.625349 
L 175.91832 284.654568 
L 176.554 284.395287 
L 178.46104 283.034557 
L 179.09672 282.754015 
L 179.732393 282.76474 
L 181.003753 281.943913 
L 181.639433 281.346938 
L 182.910794 281.018966 
L 183.546474 280.53871 
L 184.182154 280.423545 
L 184.817839 280.17906 
L 185.453519 279.528929 
L 186.089199 279.515055 
L 186.724879 279.14624 
L 187.360559 279.03876 
L 187.996239 278.323702 
L 189.2676 277.798222 
L 189.903285 277.762994 
L 191.174644 277.199225 
L 191.810325 276.519226 
L 192.446005 276.292379 
L 193.081685 275.911514 
L 196.895771 274.629331 
L 197.53145 274.012893 
L 198.167131 273.953634 
L 198.802811 273.600404 
L 199.438491 273.412494 
L 200.074164 273.035167 
L 200.709844 272.88519 
L 201.345524 272.594087 
L 201.981204 272.071924 
L 202.616884 271.950106 
L 203.252564 271.446245 
L 203.888245 271.401692 
L 204.523924 271.227157 
L 205.159609 270.81242 
L 205.79529 270.612116 
L 206.430969 270.291032 
L 207.06665 270.17413 
L 207.702329 269.522375 
L 208.33801 269.55583 
L 208.973691 268.980639 
L 210.245049 268.36986 
L 210.88073 268.456551 
L 211.51641 267.806979 
L 212.152088 267.819875 
L 213.42345 266.901425 
L 214.05913 266.882574 
L 215.330489 266.326749 
L 215.966169 266.184851 
L 216.60185 265.5653 
L 217.237528 265.634209 
L 217.873208 264.936152 
L 219.14457 264.251467 
L 219.780251 264.238007 
L 220.415928 264.073965 
L 221.051609 263.50239 
L 221.68729 263.105633 
L 222.322967 263.170054 
L 222.958648 262.657005 
L 223.594329 262.42279 
L 224.230009 261.965447 
L 224.86569 261.731069 
L 226.137049 261.005194 
L 226.772729 260.813692 
L 227.408407 260.021729 
L 228.044088 259.658962 
L 228.679768 259.541861 
L 229.95113 258.859976 
L 231.222488 258.232073 
L 231.858169 257.505487 
L 232.493847 257.333634 
L 233.129527 256.950107 
L 233.765208 256.396352 
L 235.036569 255.607595 
L 236.307931 254.699559 
L 238.214976 253.465998 
L 238.850654 252.578233 
L 239.486331 252.397595 
L 240.122015 251.735829 
L 240.757693 251.380819 
L 242.664732 249.600201 
L 243.300416 249.381136 
L 244.571771 247.802152 
L 245.207455 247.39044 
L 246.47881 246.012195 
L 247.114494 245.67641 
L 247.750171 244.956338 
L 248.385855 244.536319 
L 250.292894 242.225447 
L 250.928572 241.810797 
L 252.835611 239.715193 
L 254.106973 237.999966 
L 254.74265 236.981613 
L 256.649689 234.87858 
L 257.285373 233.699325 
L 257.921051 233.131985 
L 259.192412 231.02468 
L 259.82809 230.328266 
L 261.735129 227.366797 
L 263.642174 224.422195 
L 264.277852 223.283979 
L 264.913529 221.819863 
L 265.549213 221.064769 
L 266.184897 219.975128 
L 267.456258 217.39942 
L 269.363297 213.641598 
L 269.998975 212.747219 
L 271.270337 209.720139 
L 272.541698 207.281817 
L 273.177376 205.492761 
L 273.813059 204.38779 
L 275.084415 201.568244 
L 276.355776 198.171954 
L 278.898499 192.034659 
L 280.805538 186.479818 
L 281.441222 184.976559 
L 285.890984 171.589981 
L 286.526655 169.133328 
L 287.162333 167.373973 
L 288.433701 162.679458 
L 289.069378 160.674394 
L 289.705056 158.203091 
L 290.340734 156.351632 
L 294.790502 138.880741 
L 297.333212 128.256381 
L 301.14729 110.843438 
L 303.690025 98.404564 
L 306.232736 85.014744 
L 308.139781 74.168492 
L 309.411149 67.129238 
L 311.318182 55.8 
L 311.318182 55.8 
" clip-path="url(#p8e1b656902)" style="fill: none; stroke: #1f77b4; stroke-width: 1.5; stroke-linecap: square"/>
   </g>
   <g id="line2d_12">
    <path d="M 57.681818 249.197582 
L 60.860219 250.282332 
L 63.402942 251.372382 
L 65.945664 252.699625 
L 68.488375 254.30275 
L 71.031098 256.21953 
L 73.573821 258.482599 
L 76.116544 261.113494 
L 78.659254 264.115778 
L 81.201977 267.468231 
L 84.380384 272.070745 
L 89.465823 279.970996 
L 93.915579 286.793016 
L 97.09398 291.264539 
L 99.636709 294.478344 
L 102.179425 297.319056 
L 104.722142 299.76901 
L 107.264859 301.831522 
L 109.807588 303.523907 
L 112.350305 304.87096 
L 114.893027 305.899745 
L 117.435744 306.635898 
L 119.978467 307.101476 
L 122.521184 307.314147 
L 125.063907 307.287458 
L 127.606623 307.032123 
L 130.149352 306.558002 
L 132.692069 305.876622 
L 135.87047 304.758053 
L 139.04887 303.385524 
L 142.862951 301.490517 
L 151.126789 297.0245 
L 157.483596 293.728215 
L 165.747428 289.745598 
L 175.28264 285.103878 
L 185.453519 279.836742 
L 193.717365 275.657934 
L 200.074164 272.699924 
L 207.702329 269.423306 
L 220.415928 263.999384 
L 225.501368 261.573006 
L 229.95113 259.212169 
L 233.765208 256.955121 
L 237.579292 254.429491 
L 240.757693 252.078415 
L 243.936093 249.46329 
L 247.114494 246.541882 
L 250.292894 243.267609 
L 252.835611 240.360612 
L 255.378334 237.169389 
L 257.921051 233.667829 
L 260.463774 229.83156 
L 263.00649 225.639795 
L 265.549213 221.077599 
L 268.72762 214.845205 
L 271.906014 208.037936 
L 275.084415 200.704152 
L 278.898499 191.336066 
L 285.2553 174.969566 
L 290.976411 160.412258 
L 294.790502 151.299427 
L 297.96889 144.25558 
L 301.14729 137.797721 
L 303.690025 133.081477 
L 306.232736 128.771645 
L 308.775471 124.862127 
L 311.318182 121.338531 
L 311.318182 121.338531 
" clip-path="url(#p8e1b656902)" style="fill: none; stroke: #ff7f0e; stroke-width: 1.5; stroke-linecap: square"/>
   </g>
   <g id="line2d_13">
    <path d="M 57.681818 249.922528 
L 60.860219 251.150703 
L 63.402942 252.365902 
L 65.945664 253.824992 
L 68.488375 255.562902 
L 71.031098 257.612234 
L 73.573821 259.998946 
L 76.116544 262.736812 
L 78.659254 265.821104 
L 81.201977 269.22268 
L 84.380384 273.831074 
L 95.186941 289.949904 
L 97.729663 293.239528 
L 100.272386 296.177441 
L 102.815109 298.733984 
L 105.35782 300.903016 
L 107.900543 302.695558 
L 110.443266 304.132947 
L 112.985988 305.240986 
L 115.528705 306.045557 
L 118.071428 306.569899 
L 120.614145 306.833291 
L 123.156868 306.851081 
L 125.699584 306.635697 
L 128.242307 306.198514 
L 130.78503 305.552259 
L 133.963431 304.47611 
L 137.141831 303.144765 
L 140.955909 301.296874 
L 148.584072 297.256705 
L 154.940876 294.001892 
L 161.933355 290.696194 
L 174.011274 285.032556 
L 182.275114 280.845599 
L 193.717365 275.051943 
L 200.709844 271.802674 
L 209.60937 267.955008 
L 219.14457 263.789026 
L 224.86569 261.030459 
L 229.315449 258.645324 
L 233.129527 256.377955 
L 236.943615 253.854265 
L 240.122015 251.515786 
L 243.300416 248.92432 
L 246.47881 246.038253 
L 249.657211 242.811115 
L 252.199933 239.950004 
L 254.74265 236.811374 
L 257.285373 233.368256 
L 259.82809 229.595213 
L 262.370813 225.470094 
L 264.913529 220.976483 
L 267.456258 216.106347 
L 270.634659 209.495587 
L 273.813059 202.340766 
L 277.627138 193.149597 
L 282.712583 180.22921 
L 290.340734 160.812441 
L 294.154824 151.719543 
L 297.333212 144.680138 
L 300.511613 138.216741 
L 303.054336 133.489958 
L 305.597058 129.165164 
L 308.139781 125.237434 
L 310.682504 121.693451 
L 311.318182 120.865222 
L 311.318182 120.865222 
" clip-path="url(#p8e1b656902)" style="fill: none; stroke: #2ca02c; stroke-width: 1.5; stroke-linecap: square"/>
   </g>
   <g id="line2d_14">
    <path d="M 57.681818 250.292773 
L 60.860219 251.443806 
L 63.402942 252.589437 
L 65.945664 253.972843 
L 68.488375 255.630586 
L 71.031098 257.597948 
L 73.573821 259.90472 
L 76.116544 262.569578 
L 78.659254 265.593442 
L 81.201977 268.952931 
L 84.380384 273.541538 
L 90.101501 282.346349 
L 93.915579 288.06384 
L 97.09398 292.420511 
L 99.636709 295.528956 
L 102.179425 298.255029 
L 104.722142 300.583664 
L 106.629181 302.072122 
L 108.536226 303.347607 
L 110.443266 304.42042 
L 112.985988 305.555697 
L 115.528705 306.37903 
L 118.071428 306.915937 
L 120.614145 307.188289 
L 123.156868 307.21429 
L 125.699584 307.009374 
L 128.242307 306.587939 
L 130.78503 305.96543 
L 133.963431 304.933299 
L 137.141831 303.663178 
L 141.59159 301.59888 
L 160.661995 292.315355 
L 172.104235 287.004168 
L 179.09672 283.459038 
L 196.26009 274.574977 
L 203.252564 271.336384 
L 222.958648 262.469156 
L 228.044088 259.79903 
L 232.493847 257.184396 
L 236.307931 254.678 
L 240.122015 251.869735 
L 243.300416 249.253537 
L 246.47881 246.341864 
L 249.657211 243.087789 
L 252.199933 240.203851 
L 254.74265 237.040991 
L 257.285373 233.571982 
L 259.82809 229.771061 
L 262.370813 225.61567 
L 264.913529 221.088833 
L 267.456258 216.181731 
L 270.634659 209.517907 
L 273.813059 202.300097 
L 277.627138 193.01654 
L 282.712583 179.939638 
L 290.976411 158.641902 
L 294.790502 149.495064 
L 297.96889 142.437768 
L 301.14729 135.978293 
L 303.690025 131.268013 
L 306.232736 126.969579 
L 308.775471 123.076006 
L 311.318182 119.57204 
L 311.318182 119.57204 
" clip-path="url(#p8e1b656902)" style="fill: none; stroke: #d62728; stroke-width: 1.5; stroke-linecap: square"/>
   </g>
   <g id="line2d_15">
    <path d="M 57.681818 252.734224 
L 60.860219 253.839672 
L 63.402942 254.942366 
L 65.945664 256.276029 
L 68.488375 257.875985 
L 71.031098 259.775982 
L 73.573821 262.003925 
L 76.116544 264.576368 
L 78.659254 267.492183 
L 81.201977 270.726495 
L 84.380384 275.134381 
L 96.458302 292.386676 
L 99.001025 295.444497 
L 101.543748 298.151743 
L 104.086458 300.490218 
L 106.629181 302.462185 
L 109.171904 304.083722 
L 111.714627 305.378416 
L 114.257344 306.372184 
L 116.800067 307.089567 
L 119.342783 307.551501 
L 121.885506 307.774358 
L 124.428223 307.77003 
L 126.970946 307.546959 
L 129.513669 307.111981 
L 132.056391 306.472748 
L 134.599111 305.640438 
L 137.777512 304.355349 
L 141.59159 302.522525 
L 146.67703 299.779806 
L 156.212234 294.589965 
L 163.204716 291.101904 
L 175.91832 284.835775 
L 198.167131 273.472063 
L 205.159609 270.355852 
L 221.68729 263.129347 
L 226.772729 260.581875 
L 231.222488 258.091045 
L 235.036569 255.703723 
L 238.850654 253.028563 
L 242.029054 250.536226 
L 245.207455 247.762602 
L 248.385855 244.663202 
L 251.56425 241.189273 
L 254.106973 238.105629 
L 256.649689 234.722093 
L 259.192412 231.012417 
L 261.735129 226.952915 
L 264.277852 222.524306 
L 266.820575 217.714342 
L 269.998975 211.162923 
L 273.177376 204.03597 
L 276.355776 196.394565 
L 280.805538 185.034468 
L 292.883456 153.579443 
L 296.061857 145.996287 
L 299.240257 138.958782 
L 302.418658 132.536158 
L 304.961381 127.862852 
L 307.504104 123.604728 
L 310.046826 119.752449 
L 311.318182 117.973369 
L 311.318182 117.973369 
" clip-path="url(#p8e1b656902)" style="fill: none; stroke: #9467bd; stroke-width: 1.5; stroke-linecap: square"/>
   </g>
   <g id="line2d_16">
    <path d="M 57.681818 250.487839 
L 60.860219 251.625522 
L 63.402942 252.756021 
L 65.945664 254.119298 
L 68.488375 255.750966 
L 71.031098 257.685463 
L 73.573821 259.952048 
L 76.116544 262.569451 
L 78.659254 265.539461 
L 81.201977 268.840562 
L 84.380384 273.35416 
L 89.465823 281.068523 
L 93.915579 287.702655 
L 97.09398 292.034391 
L 99.636709 295.136033 
L 102.179425 297.866017 
L 104.722142 300.208138 
L 107.264859 302.166993 
L 109.807588 303.760965 
L 112.350305 305.015649 
L 114.893027 305.958644 
L 117.435744 306.615932 
L 119.978467 307.009934 
L 122.521184 307.158851 
L 125.063907 307.077131 
L 127.606623 306.776821 
L 130.149352 306.269566 
L 132.692069 305.568863 
L 135.87047 304.448178 
L 139.04887 303.099455 
L 143.498632 300.943156 
L 160.661995 292.299853 
L 173.375594 286.175154 
L 181.003753 282.185267 
L 193.081685 275.843095 
L 199.438491 272.802999 
L 207.06665 269.441635 
L 219.780251 263.886617 
L 224.86569 261.409626 
L 229.315449 259.008609 
L 233.129527 256.722609 
L 236.943615 254.175009 
L 240.122015 251.81193 
L 243.300416 249.190897 
L 246.47881 246.269409 
L 249.657211 242.999961 
L 252.199933 240.099233 
L 254.74265 236.915108 
L 257.285373 233.419861 
L 259.82809 229.587188 
L 262.370813 225.393954 
L 264.913529 220.822638 
L 267.456258 215.863917 
L 270.634659 209.124983 
L 273.813059 201.819898 
L 277.627138 192.41575 
L 282.712583 179.153751 
L 290.976411 157.516501 
L 294.790502 148.209765 
L 297.96889 141.023976 
L 301.14729 134.443882 
L 303.690025 129.644512 
L 306.232736 125.264616 
L 308.775471 121.297757 
L 311.318182 117.728955 
L 311.318182 117.728955 
" clip-path="url(#p8e1b656902)" style="fill: none; stroke: #8c564b; stroke-width: 1.5; stroke-linecap: square"/>
   </g>
   <g id="line2d_17">
    <path d="M 57.681818 250.877362 
L 60.860219 252.000993 
L 63.402942 253.122073 
L 65.945664 254.478448 
L 68.488375 256.106507 
L 71.031098 258.041216 
L 73.573821 260.311899 
L 76.116544 262.936624 
L 78.659254 265.915654 
L 81.201977 269.225132 
L 84.380384 273.744149 
L 90.101501 282.412699 
L 93.915579 288.045493 
L 97.09398 292.345674 
L 99.636709 295.422193 
L 102.179425 298.129868 
L 104.722142 300.454086 
L 107.264859 302.400106 
L 109.807588 303.98624 
L 112.350305 305.237481 
L 114.893027 306.180538 
L 117.435744 306.840366 
L 119.978467 307.238272 
L 122.521184 307.391279 
L 125.063907 307.312578 
L 127.606623 307.012873 
L 130.149352 306.502389 
L 132.692069 305.793276 
L 135.87047 304.653119 
L 139.04887 303.27403 
L 143.498632 301.058714 
L 160.026315 292.493829 
L 177.18968 284.114522 
L 196.26009 274.324265 
L 202.616884 271.42981 
L 214.694811 266.263494 
L 221.051609 263.40677 
L 226.137049 260.889162 
L 230.586807 258.433112 
L 234.400889 256.083033 
L 238.214976 253.453099 
L 241.39337 251.005462 
L 244.571771 248.283704 
L 247.750171 245.244055 
L 250.928572 241.838281 
L 253.471295 238.815466 
L 256.014012 235.498321 
L 258.556734 231.860434 
L 261.099451 227.877656 
L 263.642174 223.53004 
L 266.184897 218.804368 
L 269.363297 212.361038 
L 272.541698 205.342435 
L 275.720098 197.806331 
L 279.534177 188.221996 
L 294.154824 150.800832 
L 297.333212 143.568351 
L 300.511613 136.919665 
L 303.054336 132.054398 
L 305.597058 127.602186 
L 308.139781 123.559356 
L 310.682504 119.913019 
L 311.318182 119.061203 
L 311.318182 119.061203 
" clip-path="url(#p8e1b656902)" style="fill: none; stroke: #e377c2; stroke-width: 1.5; stroke-linecap: square"/>
   </g>
   <g id="patch_3">
    <path d="M 45 320.4 
L 45 43.2 
" style="fill: none; stroke: #000000; stroke-width: 0.8; stroke-linejoin: miter; stroke-linecap: square"/>
   </g>
   <g id="patch_4">
    <path d="M 324 320.4 
L 324 43.2 
" style="fill: none; stroke: #000000; stroke-width: 0.8; stroke-linejoin: miter; stroke-linecap: square"/>
   </g>
   <g id="patch_5">
    <path d="M 45 320.4 
L 324 320.4 
" style="fill: none; stroke: #000000; stroke-width: 0.8; stroke-linejoin: miter; stroke-linecap: square"/>
   </g>
   <g id="patch_6">
    <path d="M 45 43.2 
L 324 43.2 
" style="fill: none; stroke: #000000; stroke-width: 0.8; stroke-linejoin: miter; stroke-linecap: square"/>
   </g>
   <g id="text_11">
    <!-- Prediction Curves -->
    <g transform="translate(131.961563 37.2)scale(0.12 -0.12)">
     <defs>
      <path id="DejaVuSans-50" d="M 1259 4147 
L 1259 2394 
L 2053 2394 
Q 2494 2394 2734 2622 
Q 2975 2850 2975 3272 
Q 2975 3691 2734 3919 
Q 2494 4147 2053 4147 
L 1259 4147 
z
M 628 4666 
L 2053 4666 
Q 2838 4666 3239 4311 
Q 3641 3956 3641 3272 
Q 3641 2581 3239 2228 
Q 2838 1875 2053 1875 
L 1259 1875 
L 1259 0 
L 628 0 
L 628 4666 
z
" transform="scale(0.015625)"/>
      <path id="DejaVuSans-72" d="M 2631 2963 
Q 2534 3019 2420 3045 
Q 2306 3072 2169 3072 
Q 1681 3072 1420 2755 
Q 1159 2438 1159 1844 
L 1159 0 
L 581 0 
L 581 3500 
L 1159 3500 
L 1159 2956 
Q 1341 3275 1631 3429 
Q 1922 3584 2338 3584 
Q 2397 3584 2469 3576 
Q 2541 3569 2628 3553 
L 2631 2963 
z
" transform="scale(0.015625)"/>
      <path id="DejaVuSans-65" d="M 3597 1894 
L 3597 1613 
L 953 1613 
Q 991 1019 1311 708 
Q 1631 397 2203 397 
Q 2534 397 2845 478 
Q 3156 559 3463 722 
L 3463 178 
Q 3153 47 2828 -22 
Q 2503 -91 2169 -91 
Q 1331 -91 842 396 
Q 353 884 353 1716 
Q 353 2575 817 3079 
Q 1281 3584 2069 3584 
Q 2775 3584 3186 3129 
Q 3597 2675 3597 1894 
z
M 3022 2063 
Q 3016 2534 2758 2815 
Q 2500 3097 2075 3097 
Q 1594 3097 1305 2825 
Q 1016 2553 972 2059 
L 3022 2063 
z
" transform="scale(0.015625)"/>
      <path id="DejaVuSans-64" d="M 2906 2969 
L 2906 4863 
L 3481 4863 
L 3481 0 
L 2906 0 
L 2906 525 
Q 2725 213 2448 61 
Q 2172 -91 1784 -91 
Q 1150 -91 751 415 
Q 353 922 353 1747 
Q 353 2572 751 3078 
Q 1150 3584 1784 3584 
Q 2172 3584 2448 3432 
Q 2725 3281 2906 2969 
z
M 947 1747 
Q 947 1113 1208 752 
Q 1469 391 1925 391 
Q 2381 391 2643 752 
Q 2906 1113 2906 1747 
Q 2906 2381 2643 2742 
Q 2381 3103 1925 3103 
Q 1469 3103 1208 2742 
Q 947 2381 947 1747 
z
" transform="scale(0.015625)"/>
      <path id="DejaVuSans-69" d="M 603 3500 
L 1178 3500 
L 1178 0 
L 603 0 
L 603 3500 
z
M 603 4863 
L 1178 4863 
L 1178 4134 
L 603 4134 
L 603 4863 
z
" transform="scale(0.015625)"/>
      <path id="DejaVuSans-63" d="M 3122 3366 
L 3122 2828 
Q 2878 2963 2633 3030 
Q 2388 3097 2138 3097 
Q 1578 3097 1268 2742 
Q 959 2388 959 1747 
Q 959 1106 1268 751 
Q 1578 397 2138 397 
Q 2388 397 2633 464 
Q 2878 531 3122 666 
L 3122 134 
Q 2881 22 2623 -34 
Q 2366 -91 2075 -91 
Q 1284 -91 818 406 
Q 353 903 353 1747 
Q 353 2603 823 3093 
Q 1294 3584 2113 3584 
Q 2378 3584 2631 3529 
Q 2884 3475 3122 3366 
z
" transform="scale(0.015625)"/>
      <path id="DejaVuSans-74" d="M 1172 4494 
L 1172 3500 
L 2356 3500 
L 2356 3053 
L 1172 3053 
L 1172 1153 
Q 1172 725 1289 603 
Q 1406 481 1766 481 
L 2356 481 
L 2356 0 
L 1766 0 
Q 1100 0 847 248 
Q 594 497 594 1153 
L 594 3053 
L 172 3053 
L 172 3500 
L 594 3500 
L 594 4494 
L 1172 4494 
z
" transform="scale(0.015625)"/>
      <path id="DejaVuSans-6f" d="M 1959 3097 
Q 1497 3097 1228 2736 
Q 959 2375 959 1747 
Q 959 1119 1226 758 
Q 1494 397 1959 397 
Q 2419 397 2687 759 
Q 2956 1122 2956 1747 
Q 2956 2369 2687 2733 
Q 2419 3097 1959 3097 
z
M 1959 3584 
Q 2709 3584 3137 3096 
Q 3566 2609 3566 1747 
Q 3566 888 3137 398 
Q 2709 -91 1959 -91 
Q 1206 -91 779 398 
Q 353 888 353 1747 
Q 353 2609 779 3096 
Q 1206 3584 1959 3584 
z
" transform="scale(0.015625)"/>
      <path id="DejaVuSans-6e" d="M 3513 2113 
L 3513 0 
L 2938 0 
L 2938 2094 
Q 2938 2591 2744 2837 
Q 2550 3084 2163 3084 
Q 1697 3084 1428 2787 
Q 1159 2491 1159 1978 
L 1159 0 
L 581 0 
L 581 3500 
L 1159 3500 
L 1159 2956 
Q 1366 3272 1645 3428 
Q 1925 3584 2291 3584 
Q 2894 3584 3203 3211 
Q 3513 2838 3513 2113 
z
" transform="scale(0.015625)"/>
      <path id="DejaVuSans-20" transform="scale(0.015625)"/>
      <path id="DejaVuSans-43" d="M 4122 4306 
L 4122 3641 
Q 3803 3938 3442 4084 
Q 3081 4231 2675 4231 
Q 1875 4231 1450 3742 
Q 1025 3253 1025 2328 
Q 1025 1406 1450 917 
Q 1875 428 2675 428 
Q 3081 428 3442 575 
Q 3803 722 4122 1019 
L 4122 359 
Q 3791 134 3420 21 
Q 3050 -91 2638 -91 
Q 1578 -91 968 557 
Q 359 1206 359 2328 
Q 359 3453 968 4101 
Q 1578 4750 2638 4750 
Q 3056 4750 3426 4639 
Q 3797 4528 4122 4306 
z
" transform="scale(0.015625)"/>
      <path id="DejaVuSans-75" d="M 544 1381 
L 544 3500 
L 1119 3500 
L 1119 1403 
Q 1119 906 1312 657 
Q 1506 409 1894 409 
Q 2359 409 2629 706 
Q 2900 1003 2900 1516 
L 2900 3500 
L 3475 3500 
L 3475 0 
L 2900 0 
L 2900 538 
Q 2691 219 2414 64 
Q 2138 -91 1772 -91 
Q 1169 -91 856 284 
Q 544 659 544 1381 
z
M 1991 3584 
L 1991 3584 
z
" transform="scale(0.015625)"/>
      <path id="DejaVuSans-76" d="M 191 3500 
L 800 3500 
L 1894 563 
L 2988 3500 
L 3597 3500 
L 2284 0 
L 1503 0 
L 191 3500 
z
" transform="scale(0.015625)"/>
      <path id="DejaVuSans-73" d="M 2834 3397 
L 2834 2853 
Q 2591 2978 2328 3040 
Q 2066 3103 1784 3103 
Q 1356 3103 1142 2972 
Q 928 2841 928 2578 
Q 928 2378 1081 2264 
Q 1234 2150 1697 2047 
L 1894 2003 
Q 2506 1872 2764 1633 
Q 3022 1394 3022 966 
Q 3022 478 2636 193 
Q 2250 -91 1575 -91 
Q 1294 -91 989 -36 
Q 684 19 347 128 
L 347 722 
Q 666 556 975 473 
Q 1284 391 1588 391 
Q 1994 391 2212 530 
Q 2431 669 2431 922 
Q 2431 1156 2273 1281 
Q 2116 1406 1581 1522 
L 1381 1569 
Q 847 1681 609 1914 
Q 372 2147 372 2553 
Q 372 3047 722 3315 
Q 1072 3584 1716 3584 
Q 2034 3584 2315 3537 
Q 2597 3491 2834 3397 
z
" transform="scale(0.015625)"/>
     </defs>
     <use xlink:href="#DejaVuSans-50"/>
     <use xlink:href="#DejaVuSans-72" x="58.552734"/>
     <use xlink:href="#DejaVuSans-65" x="97.416016"/>
     <use xlink:href="#DejaVuSans-64" x="158.939453"/>
     <use xlink:href="#DejaVuSans-69" x="222.416016"/>
     <use xlink:href="#DejaVuSans-63" x="250.199219"/>
     <use xlink:href="#DejaVuSans-74" x="305.179688"/>
     <use xlink:href="#DejaVuSans-69" x="344.388672"/>
     <use xlink:href="#DejaVuSans-6f" x="372.171875"/>
     <use xlink:href="#DejaVuSans-6e" x="433.353516"/>
     <use xlink:href="#DejaVuSans-20" x="496.732422"/>
     <use xlink:href="#DejaVuSans-43" x="528.519531"/>
     <use xlink:href="#DejaVuSans-75" x="598.34375"/>
     <use xlink:href="#DejaVuSans-72" x="661.722656"/>
     <use xlink:href="#DejaVuSans-76" x="702.835938"/>
     <use xlink:href="#DejaVuSans-65" x="762.015625"/>
     <use xlink:href="#DejaVuSans-73" x="823.539062"/>
    </g>
   </g>
   <g id="legend_1">
    <g id="patch_7">
     <path d="M 52 153.946875 
L 195.94375 153.946875 
Q 197.94375 153.946875 197.94375 151.946875 
L 197.94375 50.2 
Q 197.94375 48.2 195.94375 48.2 
L 52 48.2 
Q 50 48.2 50 50.2 
L 50 151.946875 
Q 50 153.946875 52 153.946875 
z
" style="fill: #ffffff; opacity: 0.8; stroke: #cccccc; stroke-linejoin: miter"/>
    </g>
    <g id="line2d_18">
     <path d="M 54 56.298437 
L 64 56.298437 
L 74 56.298437 
" style="fill: none; stroke: #1f77b4; stroke-width: 1.5; stroke-linecap: square"/>
    </g>
    <g id="text_12">
     <!-- Function with noise -->
     <g transform="translate(82 59.798437)scale(0.1 -0.1)">
      <defs>
       <path id="DejaVuSans-46" d="M 628 4666 
L 3309 4666 
L 3309 4134 
L 1259 4134 
L 1259 2759 
L 3109 2759 
L 3109 2228 
L 1259 2228 
L 1259 0 
L 628 0 
L 628 4666 
z
" transform="scale(0.015625)"/>
       <path id="DejaVuSans-77" d="M 269 3500 
L 844 3500 
L 1563 769 
L 2278 3500 
L 2956 3500 
L 3675 769 
L 4391 3500 
L 4966 3500 
L 4050 0 
L 3372 0 
L 2619 2869 
L 1863 0 
L 1184 0 
L 269 3500 
z
" transform="scale(0.015625)"/>
       <path id="DejaVuSans-68" d="M 3513 2113 
L 3513 0 
L 2938 0 
L 2938 2094 
Q 2938 2591 2744 2837 
Q 2550 3084 2163 3084 
Q 1697 3084 1428 2787 
Q 1159 2491 1159 1978 
L 1159 0 
L 581 0 
L 581 4863 
L 1159 4863 
L 1159 2956 
Q 1366 3272 1645 3428 
Q 1925 3584 2291 3584 
Q 2894 3584 3203 3211 
Q 3513 2838 3513 2113 
z
" transform="scale(0.015625)"/>
      </defs>
      <use xlink:href="#DejaVuSans-46"/>
      <use xlink:href="#DejaVuSans-75" x="52.019531"/>
      <use xlink:href="#DejaVuSans-6e" x="115.398438"/>
      <use xlink:href="#DejaVuSans-63" x="178.777344"/>
      <use xlink:href="#DejaVuSans-74" x="233.757812"/>
      <use xlink:href="#DejaVuSans-69" x="272.966797"/>
      <use xlink:href="#DejaVuSans-6f" x="300.75"/>
      <use xlink:href="#DejaVuSans-6e" x="361.931641"/>
      <use xlink:href="#DejaVuSans-20" x="425.310547"/>
      <use xlink:href="#DejaVuSans-77" x="457.097656"/>
      <use xlink:href="#DejaVuSans-69" x="538.884766"/>
      <use xlink:href="#DejaVuSans-74" x="566.667969"/>
      <use xlink:href="#DejaVuSans-68" x="605.876953"/>
      <use xlink:href="#DejaVuSans-20" x="669.255859"/>
      <use xlink:href="#DejaVuSans-6e" x="701.042969"/>
      <use xlink:href="#DejaVuSans-6f" x="764.421875"/>
      <use xlink:href="#DejaVuSans-69" x="825.603516"/>
      <use xlink:href="#DejaVuSans-73" x="853.386719"/>
      <use xlink:href="#DejaVuSans-65" x="905.486328"/>
     </g>
    </g>
    <g id="line2d_19">
     <path d="M 54 70.976562 
L 64 70.976562 
L 74 70.976562 
" style="fill: none; stroke: #ff7f0e; stroke-width: 1.5; stroke-linecap: square"/>
    </g>
    <g id="text_13">
     <!-- Prediction 1 -->
     <g transform="translate(82 74.476562)scale(0.1 -0.1)">
      <use xlink:href="#DejaVuSans-50"/>
      <use xlink:href="#DejaVuSans-72" x="58.552734"/>
      <use xlink:href="#DejaVuSans-65" x="97.416016"/>
      <use xlink:href="#DejaVuSans-64" x="158.939453"/>
      <use xlink:href="#DejaVuSans-69" x="222.416016"/>
      <use xlink:href="#DejaVuSans-63" x="250.199219"/>
      <use xlink:href="#DejaVuSans-74" x="305.179688"/>
      <use xlink:href="#DejaVuSans-69" x="344.388672"/>
      <use xlink:href="#DejaVuSans-6f" x="372.171875"/>
      <use xlink:href="#DejaVuSans-6e" x="433.353516"/>
      <use xlink:href="#DejaVuSans-20" x="496.732422"/>
      <use xlink:href="#DejaVuSans-31" x="528.519531"/>
     </g>
    </g>
    <g id="line2d_20">
     <path d="M 54 85.654687 
L 64 85.654687 
L 74 85.654687 
" style="fill: none; stroke: #2ca02c; stroke-width: 1.5; stroke-linecap: square"/>
    </g>
    <g id="text_14">
     <!-- Prediction 2 -->
     <g transform="translate(82 89.154687)scale(0.1 -0.1)">
      <use xlink:href="#DejaVuSans-50"/>
      <use xlink:href="#DejaVuSans-72" x="58.552734"/>
      <use xlink:href="#DejaVuSans-65" x="97.416016"/>
      <use xlink:href="#DejaVuSans-64" x="158.939453"/>
      <use xlink:href="#DejaVuSans-69" x="222.416016"/>
      <use xlink:href="#DejaVuSans-63" x="250.199219"/>
      <use xlink:href="#DejaVuSans-74" x="305.179688"/>
      <use xlink:href="#DejaVuSans-69" x="344.388672"/>
      <use xlink:href="#DejaVuSans-6f" x="372.171875"/>
      <use xlink:href="#DejaVuSans-6e" x="433.353516"/>
      <use xlink:href="#DejaVuSans-20" x="496.732422"/>
      <use xlink:href="#DejaVuSans-32" x="528.519531"/>
     </g>
    </g>
    <g id="line2d_21">
     <path d="M 54 100.332812 
L 64 100.332812 
L 74 100.332812 
" style="fill: none; stroke: #d62728; stroke-width: 1.5; stroke-linecap: square"/>
    </g>
    <g id="text_15">
     <!-- Prediction 3 -->
     <g transform="translate(82 103.832812)scale(0.1 -0.1)">
      <use xlink:href="#DejaVuSans-50"/>
      <use xlink:href="#DejaVuSans-72" x="58.552734"/>
      <use xlink:href="#DejaVuSans-65" x="97.416016"/>
      <use xlink:href="#DejaVuSans-64" x="158.939453"/>
      <use xlink:href="#DejaVuSans-69" x="222.416016"/>
      <use xlink:href="#DejaVuSans-63" x="250.199219"/>
      <use xlink:href="#DejaVuSans-74" x="305.179688"/>
      <use xlink:href="#DejaVuSans-69" x="344.388672"/>
      <use xlink:href="#DejaVuSans-6f" x="372.171875"/>
      <use xlink:href="#DejaVuSans-6e" x="433.353516"/>
      <use xlink:href="#DejaVuSans-20" x="496.732422"/>
      <use xlink:href="#DejaVuSans-33" x="528.519531"/>
     </g>
    </g>
    <g id="line2d_22">
     <path d="M 54 115.010937 
L 64 115.010937 
L 74 115.010937 
" style="fill: none; stroke: #9467bd; stroke-width: 1.5; stroke-linecap: square"/>
    </g>
    <g id="text_16">
     <!-- Prediction 4 -->
     <g transform="translate(82 118.510937)scale(0.1 -0.1)">
      <use xlink:href="#DejaVuSans-50"/>
      <use xlink:href="#DejaVuSans-72" x="58.552734"/>
      <use xlink:href="#DejaVuSans-65" x="97.416016"/>
      <use xlink:href="#DejaVuSans-64" x="158.939453"/>
      <use xlink:href="#DejaVuSans-69" x="222.416016"/>
      <use xlink:href="#DejaVuSans-63" x="250.199219"/>
      <use xlink:href="#DejaVuSans-74" x="305.179688"/>
      <use xlink:href="#DejaVuSans-69" x="344.388672"/>
      <use xlink:href="#DejaVuSans-6f" x="372.171875"/>
      <use xlink:href="#DejaVuSans-6e" x="433.353516"/>
      <use xlink:href="#DejaVuSans-20" x="496.732422"/>
      <use xlink:href="#DejaVuSans-34" x="528.519531"/>
     </g>
    </g>
    <g id="line2d_23">
     <path d="M 54 129.689062 
L 64 129.689062 
L 74 129.689062 
" style="fill: none; stroke: #8c564b; stroke-width: 1.5; stroke-linecap: square"/>
    </g>
    <g id="text_17">
     <!-- Prediction 5 -->
     <g transform="translate(82 133.189062)scale(0.1 -0.1)">
      <defs>
       <path id="DejaVuSans-35" d="M 691 4666 
L 3169 4666 
L 3169 4134 
L 1269 4134 
L 1269 2991 
Q 1406 3038 1543 3061 
Q 1681 3084 1819 3084 
Q 2600 3084 3056 2656 
Q 3513 2228 3513 1497 
Q 3513 744 3044 326 
Q 2575 -91 1722 -91 
Q 1428 -91 1123 -41 
Q 819 9 494 109 
L 494 744 
Q 775 591 1075 516 
Q 1375 441 1709 441 
Q 2250 441 2565 725 
Q 2881 1009 2881 1497 
Q 2881 1984 2565 2268 
Q 2250 2553 1709 2553 
Q 1456 2553 1204 2497 
Q 953 2441 691 2322 
L 691 4666 
z
" transform="scale(0.015625)"/>
      </defs>
      <use xlink:href="#DejaVuSans-50"/>
      <use xlink:href="#DejaVuSans-72" x="58.552734"/>
      <use xlink:href="#DejaVuSans-65" x="97.416016"/>
      <use xlink:href="#DejaVuSans-64" x="158.939453"/>
      <use xlink:href="#DejaVuSans-69" x="222.416016"/>
      <use xlink:href="#DejaVuSans-63" x="250.199219"/>
      <use xlink:href="#DejaVuSans-74" x="305.179688"/>
      <use xlink:href="#DejaVuSans-69" x="344.388672"/>
      <use xlink:href="#DejaVuSans-6f" x="372.171875"/>
      <use xlink:href="#DejaVuSans-6e" x="433.353516"/>
      <use xlink:href="#DejaVuSans-20" x="496.732422"/>
      <use xlink:href="#DejaVuSans-35" x="528.519531"/>
     </g>
    </g>
    <g id="line2d_24">
     <path d="M 54 144.367187 
L 64 144.367187 
L 74 144.367187 
" style="fill: none; stroke: #e377c2; stroke-width: 1.5; stroke-linecap: square"/>
    </g>
    <g id="text_18">
     <!-- Average of Predictions -->
     <g transform="translate(82 147.867187)scale(0.1 -0.1)">
      <defs>
       <path id="DejaVuSans-41" d="M 2188 4044 
L 1331 1722 
L 3047 1722 
L 2188 4044 
z
M 1831 4666 
L 2547 4666 
L 4325 0 
L 3669 0 
L 3244 1197 
L 1141 1197 
L 716 0 
L 50 0 
L 1831 4666 
z
" transform="scale(0.015625)"/>
       <path id="DejaVuSans-61" d="M 2194 1759 
Q 1497 1759 1228 1600 
Q 959 1441 959 1056 
Q 959 750 1161 570 
Q 1363 391 1709 391 
Q 2188 391 2477 730 
Q 2766 1069 2766 1631 
L 2766 1759 
L 2194 1759 
z
M 3341 1997 
L 3341 0 
L 2766 0 
L 2766 531 
Q 2569 213 2275 61 
Q 1981 -91 1556 -91 
Q 1019 -91 701 211 
Q 384 513 384 1019 
Q 384 1609 779 1909 
Q 1175 2209 1959 2209 
L 2766 2209 
L 2766 2266 
Q 2766 2663 2505 2880 
Q 2244 3097 1772 3097 
Q 1472 3097 1187 3025 
Q 903 2953 641 2809 
L 641 3341 
Q 956 3463 1253 3523 
Q 1550 3584 1831 3584 
Q 2591 3584 2966 3190 
Q 3341 2797 3341 1997 
z
" transform="scale(0.015625)"/>
       <path id="DejaVuSans-67" d="M 2906 1791 
Q 2906 2416 2648 2759 
Q 2391 3103 1925 3103 
Q 1463 3103 1205 2759 
Q 947 2416 947 1791 
Q 947 1169 1205 825 
Q 1463 481 1925 481 
Q 2391 481 2648 825 
Q 2906 1169 2906 1791 
z
M 3481 434 
Q 3481 -459 3084 -895 
Q 2688 -1331 1869 -1331 
Q 1566 -1331 1297 -1286 
Q 1028 -1241 775 -1147 
L 775 -588 
Q 1028 -725 1275 -790 
Q 1522 -856 1778 -856 
Q 2344 -856 2625 -561 
Q 2906 -266 2906 331 
L 2906 616 
Q 2728 306 2450 153 
Q 2172 0 1784 0 
Q 1141 0 747 490 
Q 353 981 353 1791 
Q 353 2603 747 3093 
Q 1141 3584 1784 3584 
Q 2172 3584 2450 3431 
Q 2728 3278 2906 2969 
L 2906 3500 
L 3481 3500 
L 3481 434 
z
" transform="scale(0.015625)"/>
       <path id="DejaVuSans-66" d="M 2375 4863 
L 2375 4384 
L 1825 4384 
Q 1516 4384 1395 4259 
Q 1275 4134 1275 3809 
L 1275 3500 
L 2222 3500 
L 2222 3053 
L 1275 3053 
L 1275 0 
L 697 0 
L 697 3053 
L 147 3053 
L 147 3500 
L 697 3500 
L 697 3744 
Q 697 4328 969 4595 
Q 1241 4863 1831 4863 
L 2375 4863 
z
" transform="scale(0.015625)"/>
      </defs>
      <use xlink:href="#DejaVuSans-41"/>
      <use xlink:href="#DejaVuSans-76" x="62.533203"/>
      <use xlink:href="#DejaVuSans-65" x="121.712891"/>
      <use xlink:href="#DejaVuSans-72" x="183.236328"/>
      <use xlink:href="#DejaVuSans-61" x="224.349609"/>
      <use xlink:href="#DejaVuSans-67" x="285.628906"/>
      <use xlink:href="#DejaVuSans-65" x="349.105469"/>
      <use xlink:href="#DejaVuSans-20" x="410.628906"/>
      <use xlink:href="#DejaVuSans-6f" x="442.416016"/>
      <use xlink:href="#DejaVuSans-66" x="503.597656"/>
      <use xlink:href="#DejaVuSans-20" x="538.802734"/>
      <use xlink:href="#DejaVuSans-50" x="570.589844"/>
      <use xlink:href="#DejaVuSans-72" x="629.142578"/>
      <use xlink:href="#DejaVuSans-65" x="668.005859"/>
      <use xlink:href="#DejaVuSans-64" x="729.529297"/>
      <use xlink:href="#DejaVuSans-69" x="793.005859"/>
      <use xlink:href="#DejaVuSans-63" x="820.789062"/>
      <use xlink:href="#DejaVuSans-74" x="875.769531"/>
      <use xlink:href="#DejaVuSans-69" x="914.978516"/>
      <use xlink:href="#DejaVuSans-6f" x="942.761719"/>
      <use xlink:href="#DejaVuSans-6e" x="1003.943359"/>
      <use xlink:href="#DejaVuSans-73" x="1067.322266"/>
     </g>
    </g>
   </g>
  </g>
 </g>
 <defs>
  <clipPath id="p8e1b656902">
   <rect x="45" y="43.2" width="279" height="277.2"/>
  </clipPath>
 </defs>
</svg>
