<?xml version="1.0" encoding="utf-8" standalone="no"?>
<!DOCTYPE svg PUBLIC "-//W3C//DTD SVG 1.1//EN"
  "http://www.w3.org/Graphics/SVG/1.1/DTD/svg11.dtd">
<svg xmlns:xlink="http://www.w3.org/1999/xlink" width="460.8pt" height="345.6pt" viewBox="0 0 460.8 345.6" xmlns="http://www.w3.org/2000/svg" version="1.1">
 <metadata>
  <rdf:RDF xmlns:dc="http://purl.org/dc/elements/1.1/" xmlns:cc="http://creativecommons.org/ns#" xmlns:rdf="http://www.w3.org/1999/02/22-rdf-syntax-ns#">
   <cc:Work>
    <dc:type rdf:resource="http://purl.org/dc/dcmitype/StillImage"/>
    <dc:date>2022-12-22T11:46:50.914580</dc:date>
    <dc:format>image/svg+xml</dc:format>
    <dc:creator>
     <cc:Agent>
      <dc:title>Matplotlib v3.5.3, https://matplotlib.org/</dc:title>
     </cc:Agent>
    </dc:creator>
   </cc:Work>
  </rdf:RDF>
 </metadata>
 <defs>
  <style type="text/css">*{stroke-linejoin: round; stroke-linecap: butt}</style>
 </defs>
 <g id="figure_1">
  <g id="patch_1">
   <path d="M 0 345.6 
L 460.8 345.6 
L 460.8 0 
L 0 0 
z
" style="fill: #ffffff"/>
  </g>
  <g id="axes_1">
   <g id="patch_2">
    <path d="M 57.6 307.584 
L 414.72 307.584 
L 414.72 41.472 
L 57.6 41.472 
z
" style="fill: #e5e5e5"/>
   </g>
   <g id="matplotlib.axis_1">
    <g id="xtick_1">
     <g id="line2d_1">
      <path d="M 103.104 307.584 
L 103.104 41.472 
" clip-path="url(#p4d183ccf19)" style="fill: none; stroke: #ffffff; stroke-width: 0.8; stroke-linecap: square"/>
     </g>
     <g id="line2d_2">
      <defs>
       <path id="m49c8f80877" d="M 0 0 
L 0 3.5 
" style="stroke: #555555; stroke-width: 0.8"/>
      </defs>
      <g>
       <use xlink:href="#m49c8f80877" x="103.104" y="307.584" style="fill: #555555; stroke: #555555; stroke-width: 0.8"/>
      </g>
     </g>
     <g id="text_1">
      <!-- 0.0 -->
      <g style="fill: #555555" transform="translate(95.152438 322.182437)scale(0.1 -0.1)">
       <defs>
        <path id="DejaVuSans-30" d="M 2034 4250 
Q 1547 4250 1301 3770 
Q 1056 3291 1056 2328 
Q 1056 1369 1301 889 
Q 1547 409 2034 409 
Q 2525 409 2770 889 
Q 3016 1369 3016 2328 
Q 3016 3291 2770 3770 
Q 2525 4250 2034 4250 
z
M 2034 4750 
Q 2819 4750 3233 4129 
Q 3647 3509 3647 2328 
Q 3647 1150 3233 529 
Q 2819 -91 2034 -91 
Q 1250 -91 836 529 
Q 422 1150 422 2328 
Q 422 3509 836 4129 
Q 1250 4750 2034 4750 
z
" transform="scale(0.015625)"/>
        <path id="DejaVuSans-2e" d="M 684 794 
L 1344 794 
L 1344 0 
L 684 0 
L 684 794 
z
" transform="scale(0.015625)"/>
       </defs>
       <use xlink:href="#DejaVuSans-30"/>
       <use xlink:href="#DejaVuSans-2e" x="63.623047"/>
       <use xlink:href="#DejaVuSans-30" x="95.410156"/>
      </g>
     </g>
    </g>
    <g id="xtick_2">
     <g id="line2d_3">
      <path d="M 156.3264 307.584 
L 156.3264 41.472 
" clip-path="url(#p4d183ccf19)" style="fill: none; stroke: #ffffff; stroke-width: 0.8; stroke-linecap: square"/>
     </g>
     <g id="line2d_4">
      <g>
       <use xlink:href="#m49c8f80877" x="156.3264" y="307.584" style="fill: #555555; stroke: #555555; stroke-width: 0.8"/>
      </g>
     </g>
     <g id="text_2">
      <!-- 0.2 -->
      <g style="fill: #555555" transform="translate(148.374838 322.182437)scale(0.1 -0.1)">
       <defs>
        <path id="DejaVuSans-32" d="M 1228 531 
L 3431 531 
L 3431 0 
L 469 0 
L 469 531 
Q 828 903 1448 1529 
Q 2069 2156 2228 2338 
Q 2531 2678 2651 2914 
Q 2772 3150 2772 3378 
Q 2772 3750 2511 3984 
Q 2250 4219 1831 4219 
Q 1534 4219 1204 4116 
Q 875 4013 500 3803 
L 500 4441 
Q 881 4594 1212 4672 
Q 1544 4750 1819 4750 
Q 2544 4750 2975 4387 
Q 3406 4025 3406 3419 
Q 3406 3131 3298 2873 
Q 3191 2616 2906 2266 
Q 2828 2175 2409 1742 
Q 1991 1309 1228 531 
z
" transform="scale(0.015625)"/>
       </defs>
       <use xlink:href="#DejaVuSans-30"/>
       <use xlink:href="#DejaVuSans-2e" x="63.623047"/>
       <use xlink:href="#DejaVuSans-32" x="95.410156"/>
      </g>
     </g>
    </g>
    <g id="xtick_3">
     <g id="line2d_5">
      <path d="M 209.5488 307.584 
L 209.5488 41.472 
" clip-path="url(#p4d183ccf19)" style="fill: none; stroke: #ffffff; stroke-width: 0.8; stroke-linecap: square"/>
     </g>
     <g id="line2d_6">
      <g>
       <use xlink:href="#m49c8f80877" x="209.5488" y="307.584" style="fill: #555555; stroke: #555555; stroke-width: 0.8"/>
      </g>
     </g>
     <g id="text_3">
      <!-- 0.4 -->
      <g style="fill: #555555" transform="translate(201.597238 322.182437)scale(0.1 -0.1)">
       <defs>
        <path id="DejaVuSans-34" d="M 2419 4116 
L 825 1625 
L 2419 1625 
L 2419 4116 
z
M 2253 4666 
L 3047 4666 
L 3047 1625 
L 3713 1625 
L 3713 1100 
L 3047 1100 
L 3047 0 
L 2419 0 
L 2419 1100 
L 313 1100 
L 313 1709 
L 2253 4666 
z
" transform="scale(0.015625)"/>
       </defs>
       <use xlink:href="#DejaVuSans-30"/>
       <use xlink:href="#DejaVuSans-2e" x="63.623047"/>
       <use xlink:href="#DejaVuSans-34" x="95.410156"/>
      </g>
     </g>
    </g>
    <g id="xtick_4">
     <g id="line2d_7">
      <path d="M 262.7712 307.584 
L 262.7712 41.472 
" clip-path="url(#p4d183ccf19)" style="fill: none; stroke: #ffffff; stroke-width: 0.8; stroke-linecap: square"/>
     </g>
     <g id="line2d_8">
      <g>
       <use xlink:href="#m49c8f80877" x="262.7712" y="307.584" style="fill: #555555; stroke: #555555; stroke-width: 0.8"/>
      </g>
     </g>
     <g id="text_4">
      <!-- 0.6 -->
      <g style="fill: #555555" transform="translate(254.819638 322.182437)scale(0.1 -0.1)">
       <defs>
        <path id="DejaVuSans-36" d="M 2113 2584 
Q 1688 2584 1439 2293 
Q 1191 2003 1191 1497 
Q 1191 994 1439 701 
Q 1688 409 2113 409 
Q 2538 409 2786 701 
Q 3034 994 3034 1497 
Q 3034 2003 2786 2293 
Q 2538 2584 2113 2584 
z
M 3366 4563 
L 3366 3988 
Q 3128 4100 2886 4159 
Q 2644 4219 2406 4219 
Q 1781 4219 1451 3797 
Q 1122 3375 1075 2522 
Q 1259 2794 1537 2939 
Q 1816 3084 2150 3084 
Q 2853 3084 3261 2657 
Q 3669 2231 3669 1497 
Q 3669 778 3244 343 
Q 2819 -91 2113 -91 
Q 1303 -91 875 529 
Q 447 1150 447 2328 
Q 447 3434 972 4092 
Q 1497 4750 2381 4750 
Q 2619 4750 2861 4703 
Q 3103 4656 3366 4563 
z
" transform="scale(0.015625)"/>
       </defs>
       <use xlink:href="#DejaVuSans-30"/>
       <use xlink:href="#DejaVuSans-2e" x="63.623047"/>
       <use xlink:href="#DejaVuSans-36" x="95.410156"/>
      </g>
     </g>
    </g>
    <g id="xtick_5">
     <g id="line2d_9">
      <path d="M 315.9936 307.584 
L 315.9936 41.472 
" clip-path="url(#p4d183ccf19)" style="fill: none; stroke: #ffffff; stroke-width: 0.8; stroke-linecap: square"/>
     </g>
     <g id="line2d_10">
      <g>
       <use xlink:href="#m49c8f80877" x="315.9936" y="307.584" style="fill: #555555; stroke: #555555; stroke-width: 0.8"/>
      </g>
     </g>
     <g id="text_5">
      <!-- 0.8 -->
      <g style="fill: #555555" transform="translate(308.042037 322.182437)scale(0.1 -0.1)">
       <defs>
        <path id="DejaVuSans-38" d="M 2034 2216 
Q 1584 2216 1326 1975 
Q 1069 1734 1069 1313 
Q 1069 891 1326 650 
Q 1584 409 2034 409 
Q 2484 409 2743 651 
Q 3003 894 3003 1313 
Q 3003 1734 2745 1975 
Q 2488 2216 2034 2216 
z
M 1403 2484 
Q 997 2584 770 2862 
Q 544 3141 544 3541 
Q 544 4100 942 4425 
Q 1341 4750 2034 4750 
Q 2731 4750 3128 4425 
Q 3525 4100 3525 3541 
Q 3525 3141 3298 2862 
Q 3072 2584 2669 2484 
Q 3125 2378 3379 2068 
Q 3634 1759 3634 1313 
Q 3634 634 3220 271 
Q 2806 -91 2034 -91 
Q 1263 -91 848 271 
Q 434 634 434 1313 
Q 434 1759 690 2068 
Q 947 2378 1403 2484 
z
M 1172 3481 
Q 1172 3119 1398 2916 
Q 1625 2713 2034 2713 
Q 2441 2713 2670 2916 
Q 2900 3119 2900 3481 
Q 2900 3844 2670 4047 
Q 2441 4250 2034 4250 
Q 1625 4250 1398 4047 
Q 1172 3844 1172 3481 
z
" transform="scale(0.015625)"/>
       </defs>
       <use xlink:href="#DejaVuSans-30"/>
       <use xlink:href="#DejaVuSans-2e" x="63.623047"/>
       <use xlink:href="#DejaVuSans-38" x="95.410156"/>
      </g>
     </g>
    </g>
    <g id="xtick_6">
     <g id="line2d_11">
      <path d="M 369.216 307.584 
L 369.216 41.472 
" clip-path="url(#p4d183ccf19)" style="fill: none; stroke: #ffffff; stroke-width: 0.8; stroke-linecap: square"/>
     </g>
     <g id="line2d_12">
      <g>
       <use xlink:href="#m49c8f80877" x="369.216" y="307.584" style="fill: #555555; stroke: #555555; stroke-width: 0.8"/>
      </g>
     </g>
     <g id="text_6">
      <!-- 1.0 -->
      <g style="fill: #555555" transform="translate(361.264438 322.182437)scale(0.1 -0.1)">
       <defs>
        <path id="DejaVuSans-31" d="M 794 531 
L 1825 531 
L 1825 4091 
L 703 3866 
L 703 4441 
L 1819 4666 
L 2450 4666 
L 2450 531 
L 3481 531 
L 3481 0 
L 794 0 
L 794 531 
z
" transform="scale(0.015625)"/>
       </defs>
       <use xlink:href="#DejaVuSans-31"/>
       <use xlink:href="#DejaVuSans-2e" x="63.623047"/>
       <use xlink:href="#DejaVuSans-30" x="95.410156"/>
      </g>
     </g>
    </g>
    <g id="text_7">
     <!-- Predicted probability -->
     <g style="fill: #555555" transform="translate(174.077812 337.38025)scale(0.12 -0.12)">
      <defs>
       <path id="DejaVuSans-50" d="M 1259 4147 
L 1259 2394 
L 2053 2394 
Q 2494 2394 2734 2622 
Q 2975 2850 2975 3272 
Q 2975 3691 2734 3919 
Q 2494 4147 2053 4147 
L 1259 4147 
z
M 628 4666 
L 2053 4666 
Q 2838 4666 3239 4311 
Q 3641 3956 3641 3272 
Q 3641 2581 3239 2228 
Q 2838 1875 2053 1875 
L 1259 1875 
L 1259 0 
L 628 0 
L 628 4666 
z
" transform="scale(0.015625)"/>
       <path id="DejaVuSans-72" d="M 2631 2963 
Q 2534 3019 2420 3045 
Q 2306 3072 2169 3072 
Q 1681 3072 1420 2755 
Q 1159 2438 1159 1844 
L 1159 0 
L 581 0 
L 581 3500 
L 1159 3500 
L 1159 2956 
Q 1341 3275 1631 3429 
Q 1922 3584 2338 3584 
Q 2397 3584 2469 3576 
Q 2541 3569 2628 3553 
L 2631 2963 
z
" transform="scale(0.015625)"/>
       <path id="DejaVuSans-65" d="M 3597 1894 
L 3597 1613 
L 953 1613 
Q 991 1019 1311 708 
Q 1631 397 2203 397 
Q 2534 397 2845 478 
Q 3156 559 3463 722 
L 3463 178 
Q 3153 47 2828 -22 
Q 2503 -91 2169 -91 
Q 1331 -91 842 396 
Q 353 884 353 1716 
Q 353 2575 817 3079 
Q 1281 3584 2069 3584 
Q 2775 3584 3186 3129 
Q 3597 2675 3597 1894 
z
M 3022 2063 
Q 3016 2534 2758 2815 
Q 2500 3097 2075 3097 
Q 1594 3097 1305 2825 
Q 1016 2553 972 2059 
L 3022 2063 
z
" transform="scale(0.015625)"/>
       <path id="DejaVuSans-64" d="M 2906 2969 
L 2906 4863 
L 3481 4863 
L 3481 0 
L 2906 0 
L 2906 525 
Q 2725 213 2448 61 
Q 2172 -91 1784 -91 
Q 1150 -91 751 415 
Q 353 922 353 1747 
Q 353 2572 751 3078 
Q 1150 3584 1784 3584 
Q 2172 3584 2448 3432 
Q 2725 3281 2906 2969 
z
M 947 1747 
Q 947 1113 1208 752 
Q 1469 391 1925 391 
Q 2381 391 2643 752 
Q 2906 1113 2906 1747 
Q 2906 2381 2643 2742 
Q 2381 3103 1925 3103 
Q 1469 3103 1208 2742 
Q 947 2381 947 1747 
z
" transform="scale(0.015625)"/>
       <path id="DejaVuSans-69" d="M 603 3500 
L 1178 3500 
L 1178 0 
L 603 0 
L 603 3500 
z
M 603 4863 
L 1178 4863 
L 1178 4134 
L 603 4134 
L 603 4863 
z
" transform="scale(0.015625)"/>
       <path id="DejaVuSans-63" d="M 3122 3366 
L 3122 2828 
Q 2878 2963 2633 3030 
Q 2388 3097 2138 3097 
Q 1578 3097 1268 2742 
Q 959 2388 959 1747 
Q 959 1106 1268 751 
Q 1578 397 2138 397 
Q 2388 397 2633 464 
Q 2878 531 3122 666 
L 3122 134 
Q 2881 22 2623 -34 
Q 2366 -91 2075 -91 
Q 1284 -91 818 406 
Q 353 903 353 1747 
Q 353 2603 823 3093 
Q 1294 3584 2113 3584 
Q 2378 3584 2631 3529 
Q 2884 3475 3122 3366 
z
" transform="scale(0.015625)"/>
       <path id="DejaVuSans-74" d="M 1172 4494 
L 1172 3500 
L 2356 3500 
L 2356 3053 
L 1172 3053 
L 1172 1153 
Q 1172 725 1289 603 
Q 1406 481 1766 481 
L 2356 481 
L 2356 0 
L 1766 0 
Q 1100 0 847 248 
Q 594 497 594 1153 
L 594 3053 
L 172 3053 
L 172 3500 
L 594 3500 
L 594 4494 
L 1172 4494 
z
" transform="scale(0.015625)"/>
       <path id="DejaVuSans-20" transform="scale(0.015625)"/>
       <path id="DejaVuSans-70" d="M 1159 525 
L 1159 -1331 
L 581 -1331 
L 581 3500 
L 1159 3500 
L 1159 2969 
Q 1341 3281 1617 3432 
Q 1894 3584 2278 3584 
Q 2916 3584 3314 3078 
Q 3713 2572 3713 1747 
Q 3713 922 3314 415 
Q 2916 -91 2278 -91 
Q 1894 -91 1617 61 
Q 1341 213 1159 525 
z
M 3116 1747 
Q 3116 2381 2855 2742 
Q 2594 3103 2138 3103 
Q 1681 3103 1420 2742 
Q 1159 2381 1159 1747 
Q 1159 1113 1420 752 
Q 1681 391 2138 391 
Q 2594 391 2855 752 
Q 3116 1113 3116 1747 
z
" transform="scale(0.015625)"/>
       <path id="DejaVuSans-6f" d="M 1959 3097 
Q 1497 3097 1228 2736 
Q 959 2375 959 1747 
Q 959 1119 1226 758 
Q 1494 397 1959 397 
Q 2419 397 2687 759 
Q 2956 1122 2956 1747 
Q 2956 2369 2687 2733 
Q 2419 3097 1959 3097 
z
M 1959 3584 
Q 2709 3584 3137 3096 
Q 3566 2609 3566 1747 
Q 3566 888 3137 398 
Q 2709 -91 1959 -91 
Q 1206 -91 779 398 
Q 353 888 353 1747 
Q 353 2609 779 3096 
Q 1206 3584 1959 3584 
z
" transform="scale(0.015625)"/>
       <path id="DejaVuSans-62" d="M 3116 1747 
Q 3116 2381 2855 2742 
Q 2594 3103 2138 3103 
Q 1681 3103 1420 2742 
Q 1159 2381 1159 1747 
Q 1159 1113 1420 752 
Q 1681 391 2138 391 
Q 2594 391 2855 752 
Q 3116 1113 3116 1747 
z
M 1159 2969 
Q 1341 3281 1617 3432 
Q 1894 3584 2278 3584 
Q 2916 3584 3314 3078 
Q 3713 2572 3713 1747 
Q 3713 922 3314 415 
Q 2916 -91 2278 -91 
Q 1894 -91 1617 61 
Q 1341 213 1159 525 
L 1159 0 
L 581 0 
L 581 4863 
L 1159 4863 
L 1159 2969 
z
" transform="scale(0.015625)"/>
       <path id="DejaVuSans-61" d="M 2194 1759 
Q 1497 1759 1228 1600 
Q 959 1441 959 1056 
Q 959 750 1161 570 
Q 1363 391 1709 391 
Q 2188 391 2477 730 
Q 2766 1069 2766 1631 
L 2766 1759 
L 2194 1759 
z
M 3341 1997 
L 3341 0 
L 2766 0 
L 2766 531 
Q 2569 213 2275 61 
Q 1981 -91 1556 -91 
Q 1019 -91 701 211 
Q 384 513 384 1019 
Q 384 1609 779 1909 
Q 1175 2209 1959 2209 
L 2766 2209 
L 2766 2266 
Q 2766 2663 2505 2880 
Q 2244 3097 1772 3097 
Q 1472 3097 1187 3025 
Q 903 2953 641 2809 
L 641 3341 
Q 956 3463 1253 3523 
Q 1550 3584 1831 3584 
Q 2591 3584 2966 3190 
Q 3341 2797 3341 1997 
z
" transform="scale(0.015625)"/>
       <path id="DejaVuSans-6c" d="M 603 4863 
L 1178 4863 
L 1178 0 
L 603 0 
L 603 4863 
z
" transform="scale(0.015625)"/>
       <path id="DejaVuSans-79" d="M 2059 -325 
Q 1816 -950 1584 -1140 
Q 1353 -1331 966 -1331 
L 506 -1331 
L 506 -850 
L 844 -850 
Q 1081 -850 1212 -737 
Q 1344 -625 1503 -206 
L 1606 56 
L 191 3500 
L 800 3500 
L 1894 763 
L 2988 3500 
L 3597 3500 
L 2059 -325 
z
" transform="scale(0.015625)"/>
      </defs>
      <use xlink:href="#DejaVuSans-50"/>
      <use xlink:href="#DejaVuSans-72" x="58.552734"/>
      <use xlink:href="#DejaVuSans-65" x="97.416016"/>
      <use xlink:href="#DejaVuSans-64" x="158.939453"/>
      <use xlink:href="#DejaVuSans-69" x="222.416016"/>
      <use xlink:href="#DejaVuSans-63" x="250.199219"/>
      <use xlink:href="#DejaVuSans-74" x="305.179688"/>
      <use xlink:href="#DejaVuSans-65" x="344.388672"/>
      <use xlink:href="#DejaVuSans-64" x="405.912109"/>
      <use xlink:href="#DejaVuSans-20" x="469.388672"/>
      <use xlink:href="#DejaVuSans-70" x="501.175781"/>
      <use xlink:href="#DejaVuSans-72" x="564.652344"/>
      <use xlink:href="#DejaVuSans-6f" x="603.515625"/>
      <use xlink:href="#DejaVuSans-62" x="664.697266"/>
      <use xlink:href="#DejaVuSans-61" x="728.173828"/>
      <use xlink:href="#DejaVuSans-62" x="789.453125"/>
      <use xlink:href="#DejaVuSans-69" x="852.929688"/>
      <use xlink:href="#DejaVuSans-6c" x="880.712891"/>
      <use xlink:href="#DejaVuSans-69" x="908.496094"/>
      <use xlink:href="#DejaVuSans-74" x="936.279297"/>
      <use xlink:href="#DejaVuSans-79" x="975.488281"/>
     </g>
    </g>
   </g>
   <g id="matplotlib.axis_2">
    <g id="ytick_1">
     <g id="line2d_13">
      <path d="M 57.6 307.584 
L 414.72 307.584 
" clip-path="url(#p4d183ccf19)" style="fill: none; stroke: #ffffff; stroke-width: 0.8; stroke-linecap: square"/>
     </g>
     <g id="line2d_14">
      <defs>
       <path id="mbb897a1f11" d="M 0 0 
L -3.5 0 
" style="stroke: #555555; stroke-width: 0.8"/>
      </defs>
      <g>
       <use xlink:href="#mbb897a1f11" x="57.6" y="307.584" style="fill: #555555; stroke: #555555; stroke-width: 0.8"/>
      </g>
     </g>
     <g id="text_8">
      <!-- 0.0 -->
      <g style="fill: #555555" transform="translate(34.696875 311.383219)scale(0.1 -0.1)">
       <use xlink:href="#DejaVuSans-30"/>
       <use xlink:href="#DejaVuSans-2e" x="63.623047"/>
       <use xlink:href="#DejaVuSans-30" x="95.410156"/>
      </g>
     </g>
    </g>
    <g id="ytick_2">
     <g id="line2d_15">
      <path d="M 57.6 254.3616 
L 414.72 254.3616 
" clip-path="url(#p4d183ccf19)" style="fill: none; stroke: #ffffff; stroke-width: 0.8; stroke-linecap: square"/>
     </g>
     <g id="line2d_16">
      <g>
       <use xlink:href="#mbb897a1f11" x="57.6" y="254.3616" style="fill: #555555; stroke: #555555; stroke-width: 0.8"/>
      </g>
     </g>
     <g id="text_9">
      <!-- 0.2 -->
      <g style="fill: #555555" transform="translate(34.696875 258.160819)scale(0.1 -0.1)">
       <use xlink:href="#DejaVuSans-30"/>
       <use xlink:href="#DejaVuSans-2e" x="63.623047"/>
       <use xlink:href="#DejaVuSans-32" x="95.410156"/>
      </g>
     </g>
    </g>
    <g id="ytick_3">
     <g id="line2d_17">
      <path d="M 57.6 201.1392 
L 414.72 201.1392 
" clip-path="url(#p4d183ccf19)" style="fill: none; stroke: #ffffff; stroke-width: 0.8; stroke-linecap: square"/>
     </g>
     <g id="line2d_18">
      <g>
       <use xlink:href="#mbb897a1f11" x="57.6" y="201.1392" style="fill: #555555; stroke: #555555; stroke-width: 0.8"/>
      </g>
     </g>
     <g id="text_10">
      <!-- 0.4 -->
      <g style="fill: #555555" transform="translate(34.696875 204.938419)scale(0.1 -0.1)">
       <use xlink:href="#DejaVuSans-30"/>
       <use xlink:href="#DejaVuSans-2e" x="63.623047"/>
       <use xlink:href="#DejaVuSans-34" x="95.410156"/>
      </g>
     </g>
    </g>
    <g id="ytick_4">
     <g id="line2d_19">
      <path d="M 57.6 147.9168 
L 414.72 147.9168 
" clip-path="url(#p4d183ccf19)" style="fill: none; stroke: #ffffff; stroke-width: 0.8; stroke-linecap: square"/>
     </g>
     <g id="line2d_20">
      <g>
       <use xlink:href="#mbb897a1f11" x="57.6" y="147.9168" style="fill: #555555; stroke: #555555; stroke-width: 0.8"/>
      </g>
     </g>
     <g id="text_11">
      <!-- 0.6 -->
      <g style="fill: #555555" transform="translate(34.696875 151.716019)scale(0.1 -0.1)">
       <use xlink:href="#DejaVuSans-30"/>
       <use xlink:href="#DejaVuSans-2e" x="63.623047"/>
       <use xlink:href="#DejaVuSans-36" x="95.410156"/>
      </g>
     </g>
    </g>
    <g id="ytick_5">
     <g id="line2d_21">
      <path d="M 57.6 94.6944 
L 414.72 94.6944 
" clip-path="url(#p4d183ccf19)" style="fill: none; stroke: #ffffff; stroke-width: 0.8; stroke-linecap: square"/>
     </g>
     <g id="line2d_22">
      <g>
       <use xlink:href="#mbb897a1f11" x="57.6" y="94.6944" style="fill: #555555; stroke: #555555; stroke-width: 0.8"/>
      </g>
     </g>
     <g id="text_12">
      <!-- 0.8 -->
      <g style="fill: #555555" transform="translate(34.696875 98.493619)scale(0.1 -0.1)">
       <use xlink:href="#DejaVuSans-30"/>
       <use xlink:href="#DejaVuSans-2e" x="63.623047"/>
       <use xlink:href="#DejaVuSans-38" x="95.410156"/>
      </g>
     </g>
    </g>
    <g id="ytick_6">
     <g id="line2d_23">
      <path d="M 57.6 41.472 
L 414.72 41.472 
" clip-path="url(#p4d183ccf19)" style="fill: none; stroke: #ffffff; stroke-width: 0.8; stroke-linecap: square"/>
     </g>
     <g id="line2d_24">
      <g>
       <use xlink:href="#mbb897a1f11" x="57.6" y="41.472" style="fill: #555555; stroke: #555555; stroke-width: 0.8"/>
      </g>
     </g>
     <g id="text_13">
      <!-- 1.0 -->
      <g style="fill: #555555" transform="translate(34.696875 45.271219)scale(0.1 -0.1)">
       <use xlink:href="#DejaVuSans-31"/>
       <use xlink:href="#DejaVuSans-2e" x="63.623047"/>
       <use xlink:href="#DejaVuSans-30" x="95.410156"/>
      </g>
     </g>
    </g>
    <g id="text_14">
     <!-- Observed probability -->
     <g style="fill: #555555" transform="translate(28.20125 237.31425)rotate(-90)scale(0.12 -0.12)">
      <defs>
       <path id="DejaVuSans-4f" d="M 2522 4238 
Q 1834 4238 1429 3725 
Q 1025 3213 1025 2328 
Q 1025 1447 1429 934 
Q 1834 422 2522 422 
Q 3209 422 3611 934 
Q 4013 1447 4013 2328 
Q 4013 3213 3611 3725 
Q 3209 4238 2522 4238 
z
M 2522 4750 
Q 3503 4750 4090 4092 
Q 4678 3434 4678 2328 
Q 4678 1225 4090 567 
Q 3503 -91 2522 -91 
Q 1538 -91 948 565 
Q 359 1222 359 2328 
Q 359 3434 948 4092 
Q 1538 4750 2522 4750 
z
" transform="scale(0.015625)"/>
       <path id="DejaVuSans-73" d="M 2834 3397 
L 2834 2853 
Q 2591 2978 2328 3040 
Q 2066 3103 1784 3103 
Q 1356 3103 1142 2972 
Q 928 2841 928 2578 
Q 928 2378 1081 2264 
Q 1234 2150 1697 2047 
L 1894 2003 
Q 2506 1872 2764 1633 
Q 3022 1394 3022 966 
Q 3022 478 2636 193 
Q 2250 -91 1575 -91 
Q 1294 -91 989 -36 
Q 684 19 347 128 
L 347 722 
Q 666 556 975 473 
Q 1284 391 1588 391 
Q 1994 391 2212 530 
Q 2431 669 2431 922 
Q 2431 1156 2273 1281 
Q 2116 1406 1581 1522 
L 1381 1569 
Q 847 1681 609 1914 
Q 372 2147 372 2553 
Q 372 3047 722 3315 
Q 1072 3584 1716 3584 
Q 2034 3584 2315 3537 
Q 2597 3491 2834 3397 
z
" transform="scale(0.015625)"/>
       <path id="DejaVuSans-76" d="M 191 3500 
L 800 3500 
L 1894 563 
L 2988 3500 
L 3597 3500 
L 2284 0 
L 1503 0 
L 191 3500 
z
" transform="scale(0.015625)"/>
      </defs>
      <use xlink:href="#DejaVuSans-4f"/>
      <use xlink:href="#DejaVuSans-62" x="78.710938"/>
      <use xlink:href="#DejaVuSans-73" x="142.1875"/>
      <use xlink:href="#DejaVuSans-65" x="194.287109"/>
      <use xlink:href="#DejaVuSans-72" x="255.810547"/>
      <use xlink:href="#DejaVuSans-76" x="296.923828"/>
      <use xlink:href="#DejaVuSans-65" x="356.103516"/>
      <use xlink:href="#DejaVuSans-64" x="417.626953"/>
      <use xlink:href="#DejaVuSans-20" x="481.103516"/>
      <use xlink:href="#DejaVuSans-70" x="512.890625"/>
      <use xlink:href="#DejaVuSans-72" x="576.367188"/>
      <use xlink:href="#DejaVuSans-6f" x="615.230469"/>
      <use xlink:href="#DejaVuSans-62" x="676.412109"/>
      <use xlink:href="#DejaVuSans-61" x="739.888672"/>
      <use xlink:href="#DejaVuSans-62" x="801.167969"/>
      <use xlink:href="#DejaVuSans-69" x="864.644531"/>
      <use xlink:href="#DejaVuSans-6c" x="892.427734"/>
      <use xlink:href="#DejaVuSans-69" x="920.210938"/>
      <use xlink:href="#DejaVuSans-74" x="947.994141"/>
      <use xlink:href="#DejaVuSans-79" x="987.203125"/>
     </g>
    </g>
   </g>
   <g id="line2d_25">
    <path d="M 103.464467 307.317888 
L 103.683348 307.051776 
L 104.407342 306.785664 
L 104.737238 306.25344 
L 105.398562 305.987328 
L 106.682676 305.721216 
L 107.353769 305.455104 
L 107.601813 305.188992 
L 107.654832 304.92288 
L 108.241501 304.656768 
L 108.317238 304.390656 
L 108.875005 304.124544 
L 109.14045 303.858432 
L 109.768669 303.59232 
L 109.955679 303.326208 
L 111.343398 302.527872 
L 111.500222 302.26176 
L 112.137419 301.995648 
L 112.304536 301.729536 
L 113.41106 301.463424 
L 113.414368 301.197312 
L 114.328056 300.9312 
L 114.79729 300.665088 
L 114.994111 300.398976 
L 115.098199 299.866752 
L 115.844827 299.60064 
L 116.021788 299.334528 
L 116.406153 299.068416 
L 117.460944 298.536192 
L 117.836714 298.27008 
L 121.034009 297.471744 
L 121.251265 296.93952 
L 123.845374 296.673408 
L 123.931424 296.407296 
L 124.79553 296.141184 
L 125.351894 295.342848 
L 125.422911 294.810624 
L 126.142463 294.544512 
L 126.469368 294.2784 
L 126.512713 294.012288 
L 127.078524 293.480064 
L 127.757862 293.213952 
L 129.07686 292.94784 
L 129.621185 292.415616 
L 129.680888 292.149504 
L 131.007396 291.61728 
L 131.175215 291.351168 
L 131.506019 291.085056 
L 132.193465 290.818944 
L 132.689735 290.28672 
L 132.875268 289.754496 
L 133.167983 289.488384 
L 133.937913 289.222272 
L 134.011916 288.95616 
L 134.301012 288.690048 
L 134.356292 288.423936 
L 134.777769 288.157824 
L 134.829997 287.891712 
L 135.74763 287.359488 
L 135.796083 287.093376 
L 136.692708 286.827264 
L 137.05776 285.762816 
L 137.223875 285.496704 
L 138.767671 284.432256 
L 139.262857 283.63392 
L 140.579762 283.367808 
L 141.358105 282.835584 
L 142.217899 282.569472 
L 142.4122 282.30336 
L 143.415251 282.037248 
L 143.951142 281.771136 
L 146.655327 281.238912 
L 146.777449 280.9728 
L 147.737002 280.440576 
L 147.99352 280.174464 
L 150.230567 279.908352 
L 150.750789 279.64224 
L 151.813693 279.376128 
L 151.8831 278.843904 
L 152.401448 278.577792 
L 152.429269 278.31168 
L 152.81903 278.045568 
L 153.853836 277.779456 
L 154.242854 277.513344 
L 155.838379 277.247232 
L 155.844151 276.98112 
L 156.389786 276.448896 
L 156.916102 275.916672 
L 157.241307 275.384448 
L 157.582865 275.118336 
L 158.138091 274.852224 
L 158.758224 274.053888 
L 159.729076 273.787776 
L 159.882098 273.521664 
L 160.654701 273.255552 
L 160.984242 272.98944 
L 161.113008 272.723328 
L 162.552528 272.457216 
L 162.643967 272.191104 
L 163.050589 271.924992 
L 163.13082 271.392768 
L 163.405064 271.126656 
L 163.470047 270.860544 
L 164.285454 270.594432 
L 164.595275 270.32832 
L 165.529079 270.062208 
L 165.71768 269.796096 
L 166.131829 269.529984 
L 166.289244 269.263872 
L 167.39166 268.99776 
L 167.421638 268.731648 
L 168.05971 268.465536 
L 169.313105 268.199424 
L 169.837076 267.6672 
L 170.012934 267.401088 
L 170.924296 267.134976 
L 171.207723 266.602752 
L 171.248963 266.33664 
L 171.977746 266.070528 
L 172.080018 265.538304 
L 172.442034 265.272192 
L 172.485223 265.00608 
L 173.201882 264.739968 
L 175.120709 264.207744 
L 176.2992 263.67552 
L 177.007944 263.143296 
L 177.100395 262.877184 
L 178.596633 261.812736 
L 179.205196 261.280512 
L 179.248938 261.0144 
L 179.468263 260.748288 
L 180.332014 260.216064 
L 181.096909 259.68384 
L 181.237465 259.417728 
L 182.543131 259.151616 
L 183.147563 258.885504 
L 183.266731 258.619392 
L 183.75994 258.35328 
L 184.016828 258.087168 
L 184.044969 257.821056 
L 184.306978 257.554944 
L 185.339645 257.288832 
L 185.870522 257.02272 
L 186.083443 256.756608 
L 186.732157 256.490496 
L 186.987017 255.958272 
L 187.34927 255.69216 
L 187.473069 255.426048 
L 188.36136 254.893824 
L 188.393256 254.627712 
L 189.49595 254.3616 
L 190.104212 253.829376 
L 190.432696 253.563264 
L 190.579844 253.297152 
L 191.48555 252.764928 
L 191.601726 252.498816 
L 193.474538 251.70048 
L 193.644779 251.434368 
L 196.069735 250.902144 
L 196.982296 250.636032 
L 201.330037 247.974912 
L 202.32564 247.7088 
L 202.367902 247.176576 
L 203.503377 246.112128 
L 203.869083 245.846016 
L 205.006193 245.579904 
L 205.500033 245.313792 
L 206.617783 245.04768 
L 206.907726 244.781568 
L 207.905852 244.515456 
L 208.704532 242.918784 
L 209.870727 242.38656 
L 209.940854 242.120448 
L 210.594342 241.854336 
L 211.174651 241.322112 
L 211.298161 241.056 
L 212.419053 240.523776 
L 212.585707 240.257664 
L 212.995611 239.991552 
L 213.021993 239.72544 
L 213.161782 239.459328 
L 214.102981 238.927104 
L 214.476732 238.660992 
L 214.503163 238.39488 
L 215.385836 238.128768 
L 215.5238 237.596544 
L 215.969691 237.330432 
L 216.484805 236.798208 
L 216.99832 236.532096 
L 217.142915 236.265984 
L 217.58149 235.999872 
L 217.730945 235.467648 
L 219.093947 234.669312 
L 219.381929 234.137088 
L 219.704095 233.604864 
L 220.306069 233.338752 
L 220.44026 232.806528 
L 220.833532 232.540416 
L 221.94492 232.274304 
L 221.992582 232.008192 
L 222.587962 230.943744 
L 223.198419 230.677632 
L 223.401018 230.145408 
L 223.675728 229.879296 
L 223.701864 229.613184 
L 223.945207 229.08096 
L 224.907856 228.814848 
L 225.215249 228.282624 
L 225.844568 228.016512 
L 225.89507 227.7504 
L 226.671293 227.218176 
L 227.384469 226.952064 
L 227.434573 226.685952 
L 229.2599 225.887616 
L 229.743618 225.355392 
L 229.782353 225.08928 
L 230.307209 224.823168 
L 230.404208 224.557056 
L 231.346893 224.290944 
L 232.275472 223.226496 
L 233.07676 222.960384 
L 233.471191 222.42816 
L 233.539635 222.162048 
L 233.929717 221.629824 
L 233.971496 221.363712 
L 234.196722 221.0976 
L 234.255642 220.565376 
L 234.760569 219.500928 
L 235.632448 218.968704 
L 235.722393 218.702592 
L 235.945402 218.43648 
L 235.966504 218.170368 
L 236.720031 217.372032 
L 237.296177 217.10592 
L 237.491393 216.573696 
L 237.803601 216.307584 
L 237.804783 216.041472 
L 238.56571 215.509248 
L 239.138093 215.243136 
L 239.734946 213.912576 
L 240.474405 213.380352 
L 242.125391 213.11424 
L 242.157602 212.848128 
L 242.699649 212.049792 
L 242.863007 211.517568 
L 243.387493 210.985344 
L 244.083615 210.719232 
L 244.13544 210.45312 
L 244.605165 210.187008 
L 244.822004 209.920896 
L 244.8456 209.654784 
L 245.374713 209.388672 
L 245.541348 208.856448 
L 246.447933 208.590336 
L 246.632192 208.324224 
L 246.658751 208.058112 
L 247.043396 207.792 
L 247.060187 207.525888 
L 247.301877 207.259776 
L 247.320287 206.993664 
L 247.498028 206.727552 
L 247.512478 206.46144 
L 247.64295 206.195328 
L 248.157894 205.929216 
L 248.21524 205.396992 
L 248.371355 205.13088 
L 249.09106 204.864768 
L 249.373522 204.598656 
L 249.447062 204.332544 
L 249.65414 204.066432 
L 249.67071 203.80032 
L 249.833737 203.268096 
L 249.864411 203.001984 
L 250.11894 202.735872 
L 250.208276 202.46976 
L 250.636097 202.203648 
L 251.211518 201.405312 
L 251.72057 200.873088 
L 251.799263 200.606976 
L 252.104591 200.340864 
L 252.128976 200.074752 
L 253.995581 199.542528 
L 254.204686 199.276416 
L 254.221863 199.010304 
L 254.398535 198.744192 
L 254.838975 198.47808 
L 254.860119 198.211968 
L 255.630601 197.945856 
L 256.520746 197.14752 
L 256.522008 196.881408 
L 256.824893 196.615296 
L 257.319161 196.349184 
L 258.134201 196.083072 
L 258.601378 195.550848 
L 258.615055 195.284736 
L 259.451716 194.752512 
L 259.459251 194.4864 
L 259.796012 194.220288 
L 260.068928 193.688064 
L 261.005505 192.889728 
L 261.194641 192.357504 
L 261.306359 191.82528 
L 261.479244 191.026944 
L 261.795717 190.49472 
L 262.277686 190.228608 
L 262.910817 188.365824 
L 263.341524 188.099712 
L 263.348504 187.8336 
L 264.664875 187.035264 
L 264.901941 186.50304 
L 266.243556 185.970816 
L 266.465985 184.906368 
L 267.252099 184.640256 
L 267.38295 184.374144 
L 267.388504 184.108032 
L 267.748748 183.84192 
L 268.063842 182.51136 
L 268.385933 181.979136 
L 268.655207 181.446912 
L 269.200182 181.1808 
L 269.372137 180.648576 
L 270.179727 180.116352 
L 270.619107 179.318016 
L 270.643972 178.785792 
L 271.062983 178.51968 
L 271.79462 177.455232 
L 272.159951 177.18912 
L 272.198183 176.656896 
L 272.490344 176.390784 
L 273.057411 176.124672 
L 273.12854 175.85856 
L 273.776683 175.326336 
L 273.81277 175.060224 
L 274.578855 174.528 
L 274.634113 173.995776 
L 276.962306 172.931328 
L 277.103733 172.399104 
L 278.006568 172.132992 
L 278.269121 171.86688 
L 278.695734 171.600768 
L 278.782111 171.068544 
L 279.717087 169.737984 
L 279.884248 169.471872 
L 280.3062 169.20576 
L 280.604745 167.8752 
L 280.932858 167.609088 
L 280.984697 167.342976 
L 281.559861 167.076864 
L 281.939906 166.54464 
L 282.221982 166.012416 
L 282.763564 165.746304 
L 283.227058 164.947968 
L 283.807389 163.617408 
L 284.616446 163.351296 
L 284.758993 162.819072 
L 284.953488 162.55296 
L 285.506073 162.286848 
L 285.68732 161.488512 
L 285.792859 161.2224 
L 286.31569 160.690176 
L 286.501565 159.89184 
L 286.758659 159.093504 
L 286.980491 158.827392 
L 287.017339 158.56128 
L 287.561642 157.762944 
L 288.234513 156.166272 
L 288.76423 155.90016 
L 288.87281 155.634048 
L 289.723827 155.367936 
L 289.80508 155.101824 
L 290.332218 154.5696 
L 290.405088 154.303488 
L 290.61531 154.037376 
L 291.065732 153.771264 
L 291.373606 153.23904 
L 291.49499 152.706816 
L 291.976081 150.844032 
L 293.075684 150.045696 
L 293.192482 149.24736 
L 293.320882 148.981248 
L 293.744937 148.715136 
L 294.468428 148.449024 
L 294.514849 148.182912 
L 295.210574 147.118464 
L 295.551569 145.787904 
L 296.050016 145.521792 
L 296.217955 144.723456 
L 296.286822 144.457344 
L 296.793767 143.92512 
L 296.864036 143.659008 
L 297.096932 143.392896 
L 297.188556 142.860672 
L 298.048748 142.062336 
L 298.129481 141.796224 
L 298.649449 141.530112 
L 298.684843 141.264 
L 299.676605 140.465664 
L 299.832001 139.93344 
L 300.098747 139.401216 
L 300.377827 139.135104 
L 300.400119 138.868992 
L 300.603073 138.60288 
L 302.012582 138.070656 
L 302.949113 135.675648 
L 303.383458 135.409536 
L 303.429568 134.877312 
L 303.817362 134.345088 
L 303.842854 134.078976 
L 304.54461 133.546752 
L 304.608475 133.28064 
L 304.800322 133.014528 
L 304.891068 132.482304 
L 305.016866 132.216192 
L 305.64327 131.683968 
L 305.698938 131.417856 
L 305.90046 131.151744 
L 305.962656 130.61952 
L 306.585157 129.821184 
L 306.667943 129.28896 
L 307.581997 128.756736 
L 307.737573 128.224512 
L 308.661008 127.160064 
L 308.796395 126.361728 
L 308.883706 126.095616 
L 309.227027 125.829504 
L 309.359007 125.29728 
L 309.918462 124.232832 
L 310.120771 123.700608 
L 310.758216 123.168384 
L 310.844176 122.902272 
L 311.997874 122.370048 
L 312.096629 122.103936 
L 312.317096 121.837824 
L 312.367376 121.3056 
L 312.726945 121.039488 
L 312.888092 120.773376 
L 312.891789 120.507264 
L 313.174044 120.241152 
L 313.241897 119.97504 
L 313.451088 119.708928 
L 313.857063 119.442816 
L 313.979571 118.910592 
L 314.756676 118.378368 
L 314.891597 117.580032 
L 315.46852 117.31392 
L 315.786744 116.515584 
L 316.455446 116.249472 
L 316.512706 115.98336 
L 317.547032 114.918912 
L 317.763309 114.386688 
L 318.920768 113.32224 
L 318.978723 113.056128 
L 319.506061 112.790016 
L 319.88034 111.99168 
L 320.955984 111.725568 
L 321.029505 111.193344 
L 321.198942 110.927232 
L 321.236543 110.66112 
L 321.467447 110.395008 
L 322.375177 109.862784 
L 323.039021 109.33056 
L 324.156017 108.532224 
L 324.194271 108 
L 324.953217 107.733888 
L 325.133844 107.467776 
L 325.807756 107.201664 
L 326.117832 106.403328 
L 326.6334 106.137216 
L 326.865478 105.604992 
L 326.866122 105.33888 
L 328.159206 105.072768 
L 328.172119 104.540544 
L 328.327201 104.00832 
L 328.388368 103.742208 
L 329.238418 103.476096 
L 329.33215 102.943872 
L 330.168099 101.3472 
L 330.924223 101.081088 
L 330.974706 100.548864 
L 331.438435 100.282752 
L 331.535352 99.484416 
L 332.069961 98.952192 
L 332.273544 98.419968 
L 332.286461 98.153856 
L 332.689095 97.887744 
L 333.300917 97.621632 
L 333.466668 97.35552 
L 333.796467 97.089408 
L 333.824365 96.823296 
L 335.299279 96.291072 
L 337.130981 95.492736 
L 337.158332 95.226624 
L 337.363712 94.960512 
L 337.36754 94.6944 
L 337.964572 94.428288 
L 338.340042 93.896064 
L 339.528267 93.629952 
L 339.683805 93.36384 
L 339.695532 93.097728 
L 340.235606 92.831616 
L 340.313244 92.565504 
L 340.524889 92.299392 
L 340.937682 92.03328 
L 342.243572 91.501056 
L 342.312474 91.234944 
L 342.58086 90.968832 
L 343.11025 90.70272 
L 343.148022 90.436608 
L 344.413241 90.170496 
L 344.734222 89.638272 
L 345.060224 89.106048 
L 345.565874 88.839936 
L 345.604768 88.573824 
L 347.17657 88.307712 
L 347.60196 88.0416 
L 349.302535 87.775488 
L 349.707642 87.243264 
L 351.023552 86.71104 
L 351.522692 86.444928 
L 353.355541 86.178816 
L 353.578145 85.912704 
L 353.988719 85.646592 
L 354.07531 85.38048 
L 354.839018 85.114368 
L 355.333796 84.582144 
L 356.23537 84.316032 
L 356.241027 84.04992 
L 357.026994 83.517696 
L 357.049665 83.251584 
L 358.107766 82.985472 
L 358.386844 82.71936 
L 359.567673 82.453248 
L 359.571771 82.187136 
L 361.070304 81.921024 
L 361.562698 81.3888 
L 362.019917 81.122688 
L 362.408986 80.590464 
L 362.86477 80.324352 
L 362.951423 80.05824 
L 364.249704 79.526016 
L 364.32702 79.259904 
L 364.653951 78.993792 
L 364.978692 78.195456 
L 364.981494 77.929344 
L 365.558664 77.131008 
L 365.676768 76.332672 
L 366.305156 76.06656 
L 366.483376 75.534336 
L 366.826956 75.268224 
L 366.938261 75.002112 
L 367.347705 74.736 
L 367.542778 74.469888 
L 367.891765 72.607104 
L 368.163671 72.07488 
L 368.277021 71.542656 
L 368.506247 71.276544 
L 368.741173 70.212096 
L 368.871017 68.881536 
L 369.055727 68.0832 
L 369.215997 55.043712 
L 369.216 41.472 
L 369.216 41.472 
" clip-path="url(#p4d183ccf19)" style="fill: none; stroke: #ff7f0e; stroke-width: 1.5; stroke-linecap: square"/>
   </g>
   <g id="line2d_26">
    <path d="M 103.104 307.584 
L 369.216 41.472 
" clip-path="url(#p4d183ccf19)" style="fill: none; stroke-dasharray: 5.55,2.4; stroke-dashoffset: 0; stroke: #000000; stroke-opacity: 0.5; stroke-width: 1.5"/>
   </g>
   <g id="patch_3">
    <path d="M 57.6 307.584 
L 57.6 41.472 
" style="fill: none; stroke: #ffffff; stroke-linejoin: miter; stroke-linecap: square"/>
   </g>
   <g id="patch_4">
    <path d="M 414.72 307.584 
L 414.72 41.472 
" style="fill: none; stroke: #ffffff; stroke-linejoin: miter; stroke-linecap: square"/>
   </g>
   <g id="patch_5">
    <path d="M 57.6 307.584 
L 414.72 307.584 
" style="fill: none; stroke: #ffffff; stroke-linejoin: miter; stroke-linecap: square"/>
   </g>
   <g id="patch_6">
    <path d="M 57.6 41.472 
L 414.72 41.472 
" style="fill: none; stroke: #ffffff; stroke-linejoin: miter; stroke-linecap: square"/>
   </g>
   <g id="text_15">
    <!-- Calibration curve -->
    <g transform="translate(174.5235 35.472)scale(0.144 -0.144)">
     <defs>
      <path id="DejaVuSans-43" d="M 4122 4306 
L 4122 3641 
Q 3803 3938 3442 4084 
Q 3081 4231 2675 4231 
Q 1875 4231 1450 3742 
Q 1025 3253 1025 2328 
Q 1025 1406 1450 917 
Q 1875 428 2675 428 
Q 3081 428 3442 575 
Q 3803 722 4122 1019 
L 4122 359 
Q 3791 134 3420 21 
Q 3050 -91 2638 -91 
Q 1578 -91 968 557 
Q 359 1206 359 2328 
Q 359 3453 968 4101 
Q 1578 4750 2638 4750 
Q 3056 4750 3426 4639 
Q 3797 4528 4122 4306 
z
" transform="scale(0.015625)"/>
      <path id="DejaVuSans-6e" d="M 3513 2113 
L 3513 0 
L 2938 0 
L 2938 2094 
Q 2938 2591 2744 2837 
Q 2550 3084 2163 3084 
Q 1697 3084 1428 2787 
Q 1159 2491 1159 1978 
L 1159 0 
L 581 0 
L 581 3500 
L 1159 3500 
L 1159 2956 
Q 1366 3272 1645 3428 
Q 1925 3584 2291 3584 
Q 2894 3584 3203 3211 
Q 3513 2838 3513 2113 
z
" transform="scale(0.015625)"/>
      <path id="DejaVuSans-75" d="M 544 1381 
L 544 3500 
L 1119 3500 
L 1119 1403 
Q 1119 906 1312 657 
Q 1506 409 1894 409 
Q 2359 409 2629 706 
Q 2900 1003 2900 1516 
L 2900 3500 
L 3475 3500 
L 3475 0 
L 2900 0 
L 2900 538 
Q 2691 219 2414 64 
Q 2138 -91 1772 -91 
Q 1169 -91 856 284 
Q 544 659 544 1381 
z
M 1991 3584 
L 1991 3584 
z
" transform="scale(0.015625)"/>
     </defs>
     <use xlink:href="#DejaVuSans-43"/>
     <use xlink:href="#DejaVuSans-61" x="69.824219"/>
     <use xlink:href="#DejaVuSans-6c" x="131.103516"/>
     <use xlink:href="#DejaVuSans-69" x="158.886719"/>
     <use xlink:href="#DejaVuSans-62" x="186.669922"/>
     <use xlink:href="#DejaVuSans-72" x="250.146484"/>
     <use xlink:href="#DejaVuSans-61" x="291.259766"/>
     <use xlink:href="#DejaVuSans-74" x="352.539062"/>
     <use xlink:href="#DejaVuSans-69" x="391.748047"/>
     <use xlink:href="#DejaVuSans-6f" x="419.53125"/>
     <use xlink:href="#DejaVuSans-6e" x="480.712891"/>
     <use xlink:href="#DejaVuSans-20" x="544.091797"/>
     <use xlink:href="#DejaVuSans-63" x="575.878906"/>
     <use xlink:href="#DejaVuSans-75" x="630.859375"/>
     <use xlink:href="#DejaVuSans-72" x="694.238281"/>
     <use xlink:href="#DejaVuSans-76" x="735.351562"/>
     <use xlink:href="#DejaVuSans-65" x="794.53125"/>
    </g>
   </g>
   <g id="legend_1">
    <g id="patch_7">
     <path d="M 64.6 78.82825 
L 182.20625 78.82825 
Q 184.20625 78.82825 184.20625 76.82825 
L 184.20625 48.472 
Q 184.20625 46.472 182.20625 46.472 
L 64.6 46.472 
Q 62.6 46.472 62.6 48.472 
L 62.6 76.82825 
Q 62.6 78.82825 64.6 78.82825 
z
" style="fill: #e5e5e5; opacity: 0.8; stroke: #cccccc; stroke-width: 0.5; stroke-linejoin: miter"/>
    </g>
    <g id="line2d_27">
     <path d="M 66.6 54.570437 
L 76.6 54.570437 
L 86.6 54.570437 
" style="fill: none; stroke: #ff7f0e; stroke-width: 1.5; stroke-linecap: square"/>
    </g>
    <g id="text_16">
     <!-- Calibration curve -->
     <g transform="translate(94.6 58.070437)scale(0.1 -0.1)">
      <use xlink:href="#DejaVuSans-43"/>
      <use xlink:href="#DejaVuSans-61" x="69.824219"/>
      <use xlink:href="#DejaVuSans-6c" x="131.103516"/>
      <use xlink:href="#DejaVuSans-69" x="158.886719"/>
      <use xlink:href="#DejaVuSans-62" x="186.669922"/>
      <use xlink:href="#DejaVuSans-72" x="250.146484"/>
      <use xlink:href="#DejaVuSans-61" x="291.259766"/>
      <use xlink:href="#DejaVuSans-74" x="352.539062"/>
      <use xlink:href="#DejaVuSans-69" x="391.748047"/>
      <use xlink:href="#DejaVuSans-6f" x="419.53125"/>
      <use xlink:href="#DejaVuSans-6e" x="480.712891"/>
      <use xlink:href="#DejaVuSans-20" x="544.091797"/>
      <use xlink:href="#DejaVuSans-63" x="575.878906"/>
      <use xlink:href="#DejaVuSans-75" x="630.859375"/>
      <use xlink:href="#DejaVuSans-72" x="694.238281"/>
      <use xlink:href="#DejaVuSans-76" x="735.351562"/>
      <use xlink:href="#DejaVuSans-65" x="794.53125"/>
     </g>
    </g>
    <g id="line2d_28">
     <path d="M 66.6 69.248562 
L 76.6 69.248562 
L 86.6 69.248562 
" style="fill: none; stroke-dasharray: 5.55,2.4; stroke-dashoffset: 0; stroke: #000000; stroke-opacity: 0.5; stroke-width: 1.5"/>
    </g>
    <g id="text_17">
     <!-- Ideal curve -->
     <g transform="translate(94.6 72.748562)scale(0.1 -0.1)">
      <defs>
       <path id="DejaVuSans-49" d="M 628 4666 
L 1259 4666 
L 1259 0 
L 628 0 
L 628 4666 
z
" transform="scale(0.015625)"/>
      </defs>
      <use xlink:href="#DejaVuSans-49"/>
      <use xlink:href="#DejaVuSans-64" x="29.492188"/>
      <use xlink:href="#DejaVuSans-65" x="92.96875"/>
      <use xlink:href="#DejaVuSans-61" x="154.492188"/>
      <use xlink:href="#DejaVuSans-6c" x="215.771484"/>
      <use xlink:href="#DejaVuSans-20" x="243.554688"/>
      <use xlink:href="#DejaVuSans-63" x="275.341797"/>
      <use xlink:href="#DejaVuSans-75" x="330.322266"/>
      <use xlink:href="#DejaVuSans-72" x="393.701172"/>
      <use xlink:href="#DejaVuSans-76" x="434.814453"/>
      <use xlink:href="#DejaVuSans-65" x="493.994141"/>
     </g>
    </g>
   </g>
  </g>
 </g>
 <defs>
  <clipPath id="p4d183ccf19">
   <rect x="57.6" y="41.472" width="357.12" height="266.112"/>
  </clipPath>
 </defs>
</svg>
