<?xml version="1.0" encoding="utf-8" standalone="no"?>
<!DOCTYPE svg PUBLIC "-//W3C//DTD SVG 1.1//EN"
  "http://www.w3.org/Graphics/SVG/1.1/DTD/svg11.dtd">
<svg xmlns:xlink="http://www.w3.org/1999/xlink" width="360pt" height="360pt" viewBox="0 0 360 360" xmlns="http://www.w3.org/2000/svg" version="1.1">
 <metadata>
  <rdf:RDF xmlns:dc="http://purl.org/dc/elements/1.1/" xmlns:cc="http://creativecommons.org/ns#" xmlns:rdf="http://www.w3.org/1999/02/22-rdf-syntax-ns#">
   <cc:Work>
    <dc:type rdf:resource="http://purl.org/dc/dcmitype/StillImage"/>
    <dc:date>2022-12-22T11:46:49.517518</dc:date>
    <dc:format>image/svg+xml</dc:format>
    <dc:creator>
     <cc:Agent>
      <dc:title>Matplotlib v3.5.3, https://matplotlib.org/</dc:title>
     </cc:Agent>
    </dc:creator>
   </cc:Work>
  </rdf:RDF>
 </metadata>
 <defs>
  <style type="text/css">*{stroke-linejoin: round; stroke-linecap: butt}</style>
 </defs>
 <g id="figure_1">
  <g id="patch_1">
   <path d="M 0 360 
L 360 360 
L 360 0 
L 0 0 
z
" style="fill: #ffffff"/>
  </g>
  <g id="axes_1">
   <g id="patch_2">
    <path d="M 45 320.4 
L 324 320.4 
L 324 43.2 
L 45 43.2 
z
" style="fill: #e5e5e5"/>
   </g>
   <g id="matplotlib.axis_1">
    <g id="xtick_1">
     <g id="line2d_1">
      <path d="M 57.681818 320.4 
L 57.681818 43.2 
" clip-path="url(#p5e76e26039)" style="fill: none; stroke: #ffffff; stroke-width: 0.8; stroke-linecap: square"/>
     </g>
     <g id="line2d_2">
      <defs>
       <path id="mc1fd8ce46d" d="M 0 0 
L 0 3.5 
" style="stroke: #555555; stroke-width: 0.8"/>
      </defs>
      <g>
       <use xlink:href="#mc1fd8ce46d" x="57.681818" y="320.4" style="fill: #555555; stroke: #555555; stroke-width: 0.8"/>
      </g>
     </g>
     <g id="text_1">
      <!-- −0.5 -->
      <g style="fill: #555555" transform="translate(45.540412 334.998438)scale(0.1 -0.1)">
       <defs>
        <path id="DejaVuSans-2212" d="M 678 2272 
L 4684 2272 
L 4684 1741 
L 678 1741 
L 678 2272 
z
" transform="scale(0.015625)"/>
        <path id="DejaVuSans-30" d="M 2034 4250 
Q 1547 4250 1301 3770 
Q 1056 3291 1056 2328 
Q 1056 1369 1301 889 
Q 1547 409 2034 409 
Q 2525 409 2770 889 
Q 3016 1369 3016 2328 
Q 3016 3291 2770 3770 
Q 2525 4250 2034 4250 
z
M 2034 4750 
Q 2819 4750 3233 4129 
Q 3647 3509 3647 2328 
Q 3647 1150 3233 529 
Q 2819 -91 2034 -91 
Q 1250 -91 836 529 
Q 422 1150 422 2328 
Q 422 3509 836 4129 
Q 1250 4750 2034 4750 
z
" transform="scale(0.015625)"/>
        <path id="DejaVuSans-2e" d="M 684 794 
L 1344 794 
L 1344 0 
L 684 0 
L 684 794 
z
" transform="scale(0.015625)"/>
        <path id="DejaVuSans-35" d="M 691 4666 
L 3169 4666 
L 3169 4134 
L 1269 4134 
L 1269 2991 
Q 1406 3038 1543 3061 
Q 1681 3084 1819 3084 
Q 2600 3084 3056 2656 
Q 3513 2228 3513 1497 
Q 3513 744 3044 326 
Q 2575 -91 1722 -91 
Q 1428 -91 1123 -41 
Q 819 9 494 109 
L 494 744 
Q 775 591 1075 516 
Q 1375 441 1709 441 
Q 2250 441 2565 725 
Q 2881 1009 2881 1497 
Q 2881 1984 2565 2268 
Q 2250 2553 1709 2553 
Q 1456 2553 1204 2497 
Q 953 2441 691 2322 
L 691 4666 
z
" transform="scale(0.015625)"/>
       </defs>
       <use xlink:href="#DejaVuSans-2212"/>
       <use xlink:href="#DejaVuSans-30" x="83.789062"/>
       <use xlink:href="#DejaVuSans-2e" x="147.412109"/>
       <use xlink:href="#DejaVuSans-35" x="179.199219"/>
      </g>
     </g>
    </g>
    <g id="xtick_2">
     <g id="line2d_3">
      <path d="M 99.954545 320.4 
L 99.954545 43.2 
" clip-path="url(#p5e76e26039)" style="fill: none; stroke: #ffffff; stroke-width: 0.8; stroke-linecap: square"/>
     </g>
     <g id="line2d_4">
      <g>
       <use xlink:href="#mc1fd8ce46d" x="99.954545" y="320.4" style="fill: #555555; stroke: #555555; stroke-width: 0.8"/>
      </g>
     </g>
     <g id="text_2">
      <!-- 0.0 -->
      <g style="fill: #555555" transform="translate(92.002983 334.998438)scale(0.1 -0.1)">
       <use xlink:href="#DejaVuSans-30"/>
       <use xlink:href="#DejaVuSans-2e" x="63.623047"/>
       <use xlink:href="#DejaVuSans-30" x="95.410156"/>
      </g>
     </g>
    </g>
    <g id="xtick_3">
     <g id="line2d_5">
      <path d="M 142.227273 320.4 
L 142.227273 43.2 
" clip-path="url(#p5e76e26039)" style="fill: none; stroke: #ffffff; stroke-width: 0.8; stroke-linecap: square"/>
     </g>
     <g id="line2d_6">
      <g>
       <use xlink:href="#mc1fd8ce46d" x="142.227273" y="320.4" style="fill: #555555; stroke: #555555; stroke-width: 0.8"/>
      </g>
     </g>
     <g id="text_3">
      <!-- 0.5 -->
      <g style="fill: #555555" transform="translate(134.27571 334.998438)scale(0.1 -0.1)">
       <use xlink:href="#DejaVuSans-30"/>
       <use xlink:href="#DejaVuSans-2e" x="63.623047"/>
       <use xlink:href="#DejaVuSans-35" x="95.410156"/>
      </g>
     </g>
    </g>
    <g id="xtick_4">
     <g id="line2d_7">
      <path d="M 184.5 320.4 
L 184.5 43.2 
" clip-path="url(#p5e76e26039)" style="fill: none; stroke: #ffffff; stroke-width: 0.8; stroke-linecap: square"/>
     </g>
     <g id="line2d_8">
      <g>
       <use xlink:href="#mc1fd8ce46d" x="184.5" y="320.4" style="fill: #555555; stroke: #555555; stroke-width: 0.8"/>
      </g>
     </g>
     <g id="text_4">
      <!-- 1.0 -->
      <g style="fill: #555555" transform="translate(176.548438 334.998438)scale(0.1 -0.1)">
       <defs>
        <path id="DejaVuSans-31" d="M 794 531 
L 1825 531 
L 1825 4091 
L 703 3866 
L 703 4441 
L 1819 4666 
L 2450 4666 
L 2450 531 
L 3481 531 
L 3481 0 
L 794 0 
L 794 531 
z
" transform="scale(0.015625)"/>
       </defs>
       <use xlink:href="#DejaVuSans-31"/>
       <use xlink:href="#DejaVuSans-2e" x="63.623047"/>
       <use xlink:href="#DejaVuSans-30" x="95.410156"/>
      </g>
     </g>
    </g>
    <g id="xtick_5">
     <g id="line2d_9">
      <path d="M 226.772727 320.4 
L 226.772727 43.2 
" clip-path="url(#p5e76e26039)" style="fill: none; stroke: #ffffff; stroke-width: 0.8; stroke-linecap: square"/>
     </g>
     <g id="line2d_10">
      <g>
       <use xlink:href="#mc1fd8ce46d" x="226.772727" y="320.4" style="fill: #555555; stroke: #555555; stroke-width: 0.8"/>
      </g>
     </g>
     <g id="text_5">
      <!-- 1.5 -->
      <g style="fill: #555555" transform="translate(218.821165 334.998438)scale(0.1 -0.1)">
       <use xlink:href="#DejaVuSans-31"/>
       <use xlink:href="#DejaVuSans-2e" x="63.623047"/>
       <use xlink:href="#DejaVuSans-35" x="95.410156"/>
      </g>
     </g>
    </g>
    <g id="xtick_6">
     <g id="line2d_11">
      <path d="M 269.045455 320.4 
L 269.045455 43.2 
" clip-path="url(#p5e76e26039)" style="fill: none; stroke: #ffffff; stroke-width: 0.8; stroke-linecap: square"/>
     </g>
     <g id="line2d_12">
      <g>
       <use xlink:href="#mc1fd8ce46d" x="269.045455" y="320.4" style="fill: #555555; stroke: #555555; stroke-width: 0.8"/>
      </g>
     </g>
     <g id="text_6">
      <!-- 2.0 -->
      <g style="fill: #555555" transform="translate(261.093892 334.998438)scale(0.1 -0.1)">
       <defs>
        <path id="DejaVuSans-32" d="M 1228 531 
L 3431 531 
L 3431 0 
L 469 0 
L 469 531 
Q 828 903 1448 1529 
Q 2069 2156 2228 2338 
Q 2531 2678 2651 2914 
Q 2772 3150 2772 3378 
Q 2772 3750 2511 3984 
Q 2250 4219 1831 4219 
Q 1534 4219 1204 4116 
Q 875 4013 500 3803 
L 500 4441 
Q 881 4594 1212 4672 
Q 1544 4750 1819 4750 
Q 2544 4750 2975 4387 
Q 3406 4025 3406 3419 
Q 3406 3131 3298 2873 
Q 3191 2616 2906 2266 
Q 2828 2175 2409 1742 
Q 1991 1309 1228 531 
z
" transform="scale(0.015625)"/>
       </defs>
       <use xlink:href="#DejaVuSans-32"/>
       <use xlink:href="#DejaVuSans-2e" x="63.623047"/>
       <use xlink:href="#DejaVuSans-30" x="95.410156"/>
      </g>
     </g>
    </g>
    <g id="xtick_7">
     <g id="line2d_13">
      <path d="M 311.318182 320.4 
L 311.318182 43.2 
" clip-path="url(#p5e76e26039)" style="fill: none; stroke: #ffffff; stroke-width: 0.8; stroke-linecap: square"/>
     </g>
     <g id="line2d_14">
      <g>
       <use xlink:href="#mc1fd8ce46d" x="311.318182" y="320.4" style="fill: #555555; stroke: #555555; stroke-width: 0.8"/>
      </g>
     </g>
     <g id="text_7">
      <!-- 2.5 -->
      <g style="fill: #555555" transform="translate(303.366619 334.998438)scale(0.1 -0.1)">
       <use xlink:href="#DejaVuSans-32"/>
       <use xlink:href="#DejaVuSans-2e" x="63.623047"/>
       <use xlink:href="#DejaVuSans-35" x="95.410156"/>
      </g>
     </g>
    </g>
   </g>
   <g id="matplotlib.axis_2">
    <g id="ytick_1">
     <g id="line2d_15">
      <path d="M 45 303.154657 
L 324 303.154657 
" clip-path="url(#p5e76e26039)" style="fill: none; stroke: #ffffff; stroke-width: 0.8; stroke-linecap: square"/>
     </g>
     <g id="line2d_16">
      <defs>
       <path id="m6ee1eb341a" d="M 0 0 
L -3.5 0 
" style="stroke: #555555; stroke-width: 0.8"/>
      </defs>
      <g>
       <use xlink:href="#m6ee1eb341a" x="45" y="303.154657" style="fill: #555555; stroke: #555555; stroke-width: 0.8"/>
      </g>
     </g>
     <g id="text_8">
      <!-- −1.00 -->
      <g style="fill: #555555" transform="translate(7.354687 306.953876)scale(0.1 -0.1)">
       <use xlink:href="#DejaVuSans-2212"/>
       <use xlink:href="#DejaVuSans-31" x="83.789062"/>
       <use xlink:href="#DejaVuSans-2e" x="147.412109"/>
       <use xlink:href="#DejaVuSans-30" x="179.199219"/>
       <use xlink:href="#DejaVuSans-30" x="242.822266"/>
      </g>
     </g>
    </g>
    <g id="ytick_2">
     <g id="line2d_17">
      <path d="M 45 269.287259 
L 324 269.287259 
" clip-path="url(#p5e76e26039)" style="fill: none; stroke: #ffffff; stroke-width: 0.8; stroke-linecap: square"/>
     </g>
     <g id="line2d_18">
      <g>
       <use xlink:href="#m6ee1eb341a" x="45" y="269.287259" style="fill: #555555; stroke: #555555; stroke-width: 0.8"/>
      </g>
     </g>
     <g id="text_9">
      <!-- −0.75 -->
      <g style="fill: #555555" transform="translate(7.354687 273.086478)scale(0.1 -0.1)">
       <defs>
        <path id="DejaVuSans-37" d="M 525 4666 
L 3525 4666 
L 3525 4397 
L 1831 0 
L 1172 0 
L 2766 4134 
L 525 4134 
L 525 4666 
z
" transform="scale(0.015625)"/>
       </defs>
       <use xlink:href="#DejaVuSans-2212"/>
       <use xlink:href="#DejaVuSans-30" x="83.789062"/>
       <use xlink:href="#DejaVuSans-2e" x="147.412109"/>
       <use xlink:href="#DejaVuSans-37" x="179.199219"/>
       <use xlink:href="#DejaVuSans-35" x="242.822266"/>
      </g>
     </g>
    </g>
    <g id="ytick_3">
     <g id="line2d_19">
      <path d="M 45 235.419861 
L 324 235.419861 
" clip-path="url(#p5e76e26039)" style="fill: none; stroke: #ffffff; stroke-width: 0.8; stroke-linecap: square"/>
     </g>
     <g id="line2d_20">
      <g>
       <use xlink:href="#m6ee1eb341a" x="45" y="235.419861" style="fill: #555555; stroke: #555555; stroke-width: 0.8"/>
      </g>
     </g>
     <g id="text_10">
      <!-- −0.50 -->
      <g style="fill: #555555" transform="translate(7.354687 239.21908)scale(0.1 -0.1)">
       <use xlink:href="#DejaVuSans-2212"/>
       <use xlink:href="#DejaVuSans-30" x="83.789062"/>
       <use xlink:href="#DejaVuSans-2e" x="147.412109"/>
       <use xlink:href="#DejaVuSans-35" x="179.199219"/>
       <use xlink:href="#DejaVuSans-30" x="242.822266"/>
      </g>
     </g>
    </g>
    <g id="ytick_4">
     <g id="line2d_21">
      <path d="M 45 201.552464 
L 324 201.552464 
" clip-path="url(#p5e76e26039)" style="fill: none; stroke: #ffffff; stroke-width: 0.8; stroke-linecap: square"/>
     </g>
     <g id="line2d_22">
      <g>
       <use xlink:href="#m6ee1eb341a" x="45" y="201.552464" style="fill: #555555; stroke: #555555; stroke-width: 0.8"/>
      </g>
     </g>
     <g id="text_11">
      <!-- −0.25 -->
      <g style="fill: #555555" transform="translate(7.354687 205.351682)scale(0.1 -0.1)">
       <use xlink:href="#DejaVuSans-2212"/>
       <use xlink:href="#DejaVuSans-30" x="83.789062"/>
       <use xlink:href="#DejaVuSans-2e" x="147.412109"/>
       <use xlink:href="#DejaVuSans-32" x="179.199219"/>
       <use xlink:href="#DejaVuSans-35" x="242.822266"/>
      </g>
     </g>
    </g>
    <g id="ytick_5">
     <g id="line2d_23">
      <path d="M 45 167.685066 
L 324 167.685066 
" clip-path="url(#p5e76e26039)" style="fill: none; stroke: #ffffff; stroke-width: 0.8; stroke-linecap: square"/>
     </g>
     <g id="line2d_24">
      <g>
       <use xlink:href="#m6ee1eb341a" x="45" y="167.685066" style="fill: #555555; stroke: #555555; stroke-width: 0.8"/>
      </g>
     </g>
     <g id="text_12">
      <!-- 0.00 -->
      <g style="fill: #555555" transform="translate(15.734375 171.484285)scale(0.1 -0.1)">
       <use xlink:href="#DejaVuSans-30"/>
       <use xlink:href="#DejaVuSans-2e" x="63.623047"/>
       <use xlink:href="#DejaVuSans-30" x="95.410156"/>
       <use xlink:href="#DejaVuSans-30" x="159.033203"/>
      </g>
     </g>
    </g>
    <g id="ytick_6">
     <g id="line2d_25">
      <path d="M 45 133.817668 
L 324 133.817668 
" clip-path="url(#p5e76e26039)" style="fill: none; stroke: #ffffff; stroke-width: 0.8; stroke-linecap: square"/>
     </g>
     <g id="line2d_26">
      <g>
       <use xlink:href="#m6ee1eb341a" x="45" y="133.817668" style="fill: #555555; stroke: #555555; stroke-width: 0.8"/>
      </g>
     </g>
     <g id="text_13">
      <!-- 0.25 -->
      <g style="fill: #555555" transform="translate(15.734375 137.616887)scale(0.1 -0.1)">
       <use xlink:href="#DejaVuSans-30"/>
       <use xlink:href="#DejaVuSans-2e" x="63.623047"/>
       <use xlink:href="#DejaVuSans-32" x="95.410156"/>
       <use xlink:href="#DejaVuSans-35" x="159.033203"/>
      </g>
     </g>
    </g>
    <g id="ytick_7">
     <g id="line2d_27">
      <path d="M 45 99.95027 
L 324 99.95027 
" clip-path="url(#p5e76e26039)" style="fill: none; stroke: #ffffff; stroke-width: 0.8; stroke-linecap: square"/>
     </g>
     <g id="line2d_28">
      <g>
       <use xlink:href="#m6ee1eb341a" x="45" y="99.95027" style="fill: #555555; stroke: #555555; stroke-width: 0.8"/>
      </g>
     </g>
     <g id="text_14">
      <!-- 0.50 -->
      <g style="fill: #555555" transform="translate(15.734375 103.749489)scale(0.1 -0.1)">
       <use xlink:href="#DejaVuSans-30"/>
       <use xlink:href="#DejaVuSans-2e" x="63.623047"/>
       <use xlink:href="#DejaVuSans-35" x="95.410156"/>
       <use xlink:href="#DejaVuSans-30" x="159.033203"/>
      </g>
     </g>
    </g>
    <g id="ytick_8">
     <g id="line2d_29">
      <path d="M 45 66.082873 
L 324 66.082873 
" clip-path="url(#p5e76e26039)" style="fill: none; stroke: #ffffff; stroke-width: 0.8; stroke-linecap: square"/>
     </g>
     <g id="line2d_30">
      <g>
       <use xlink:href="#m6ee1eb341a" x="45" y="66.082873" style="fill: #555555; stroke: #555555; stroke-width: 0.8"/>
      </g>
     </g>
     <g id="text_15">
      <!-- 0.75 -->
      <g style="fill: #555555" transform="translate(15.734375 69.882091)scale(0.1 -0.1)">
       <use xlink:href="#DejaVuSans-30"/>
       <use xlink:href="#DejaVuSans-2e" x="63.623047"/>
       <use xlink:href="#DejaVuSans-37" x="95.410156"/>
       <use xlink:href="#DejaVuSans-35" x="159.033203"/>
      </g>
     </g>
    </g>
   </g>
   <g id="line2d_31">
    <path d="M 57.681818 192.385396 
L 65.044636 194.980543 
L 72.153564 197.717407 
L 79.008599 200.591107 
L 85.863636 203.707843 
L 92.718672 207.072136 
L 99.827601 210.817105 
L 107.190419 214.952403 
L 115.314907 219.780109 
L 124.708846 225.632357 
L 138.418921 234.471031 
L 157.460689 246.718296 
L 167.870193 253.13634 
L 177.010237 258.517112 
L 185.896391 263.48759 
L 194.528664 268.057408 
L 203.160928 272.370994 
L 211.793201 276.433169 
L 220.425465 280.251662 
L 229.311628 283.937177 
L 238.197782 287.382986 
L 247.337836 290.686481 
L 256.477889 293.755071 
L 265.871823 296.6741 
L 275.519647 299.43537 
L 285.421391 302.032902 
L 295.576995 304.463178 
L 305.98648 306.725304 
L 311.318182 307.8 
L 311.318182 307.8 
" clip-path="url(#p5e76e26039)" style="fill: none; stroke: #e24a33; stroke-width: 1.5; stroke-linecap: square"/>
   </g>
   <g id="line2d_32">
    <path d="M 57.681818 182.46497 
L 69.106878 181.096515 
L 82.563063 179.723326 
L 107.95209 177.190244 
L 116.584357 176.070449 
L 123.947175 174.901567 
L 130.802213 173.588961 
L 137.149471 172.149589 
L 143.242833 170.545668 
L 149.336206 168.713949 
L 155.429568 166.653726 
L 161.776821 164.275073 
L 168.631864 161.465923 
L 176.502457 157.988908 
L 186.658061 153.240778 
L 208.23874 143.086062 
L 216.617113 139.428534 
L 224.233826 136.344182 
L 231.342749 133.702208 
L 238.451672 131.30185 
L 245.560605 129.14439 
L 252.669538 127.222328 
L 260.032351 125.465042 
L 267.649054 123.876187 
L 275.773547 122.410818 
L 284.405831 121.080034 
L 293.799755 119.856675 
L 304.209259 118.727091 
L 311.318182 118.068435 
L 311.318182 118.068435 
" clip-path="url(#p5e76e26039)" style="fill: none; stroke: #348abd; stroke-width: 1.5; stroke-linecap: square"/>
   </g>
   <g id="line2d_33">
    <path d="M 57.681818 196.95143 
L 67.075757 200.078417 
L 78.754709 204.215626 
L 106.428748 214.119584 
L 115.314907 217.002437 
L 123.185505 219.32633 
L 130.548323 221.26865 
L 137.657251 222.909734 
L 144.512284 224.263017 
L 151.367326 225.388214 
L 158.222359 226.289623 
L 165.331292 227.000038 
L 172.694105 227.515432 
L 180.818599 227.857064 
L 189.958642 228.00934 
L 200.875917 227.957961 
L 216.871003 227.635495 
L 245.814495 227.04498 
L 262.063472 226.959278 
L 278.566328 227.099726 
L 296.846436 227.485255 
L 311.318182 227.91549 
L 311.318182 227.91549 
" clip-path="url(#p5e76e26039)" style="fill: none; stroke: #988ed5; stroke-width: 1.5; stroke-linecap: square"/>
   </g>
   <g id="line2d_34">
    <path d="M 57.681818 147.025372 
L 70.376331 147.077275 
L 80.785833 146.902269 
L 90.433662 146.521039 
L 100.335381 145.905718 
L 112.014332 144.945454 
L 138.672811 142.661928 
L 147.305085 142.204651 
L 155.175678 142.011054 
L 162.538491 142.049732 
L 169.901314 142.309414 
L 177.518017 142.804258 
L 185.6425 143.563057 
L 194.528664 144.622936 
L 205.192048 146.131354 
L 220.679355 148.577688 
L 247.591726 152.835624 
L 261.809582 154.840221 
L 275.265767 156.512721 
L 288.721953 157.958298 
L 302.685918 159.229787 
L 311.318182 159.908774 
L 311.318182 159.908774 
" clip-path="url(#p5e76e26039)" style="fill: none; stroke: #777777; stroke-width: 1.5; stroke-linecap: square"/>
   </g>
   <g id="line2d_35">
    <path d="M 57.681818 88.59822 
L 79.516381 84.339945 
L 88.656431 82.307052 
L 96.527029 80.331292 
L 103.889848 78.257942 
L 111.50655 75.877572 
L 119.884935 73.017199 
L 132.833334 68.318255 
L 144.004503 64.356588 
L 151.113436 62.070705 
L 157.206799 60.340515 
L 162.792381 58.98016 
L 168.124083 57.904314 
L 173.455775 57.055636 
L 178.787468 56.434063 
L 184.37306 56.01711 
L 189.958642 55.821915 
L 196.052005 55.832991 
L 202.653147 56.066614 
L 210.523751 56.577734 
L 220.425465 57.457609 
L 261.301801 61.341222 
L 273.234646 62.10587 
L 285.167491 62.643958 
L 297.608116 62.981467 
L 311.318182 63.127999 
L 311.318182 63.127999 
" clip-path="url(#p5e76e26039)" style="fill: none; stroke: #fbc15e; stroke-width: 1.5; stroke-linecap: square"/>
   </g>
   <g id="line2d_36">
    <path d="M 57.681818 93.134071 
L 66.060197 91.918332 
L 76.723586 90.127561 
L 93.988124 87.217041 
L 101.604832 86.184585 
L 108.20598 85.515401 
L 114.299348 85.12023 
L 120.138825 84.958036 
L 126.232186 85.016971 
L 132.325554 85.297706 
L 138.926701 85.825016 
L 146.543404 86.667747 
L 156.191238 87.977715 
L 182.088049 91.615168 
L 190.720313 92.528564 
L 198.590906 93.136873 
L 206.207619 93.499842 
L 213.824322 93.634937 
L 221.441025 93.548501 
L 229.565518 93.229949 
L 238.197782 92.665797 
L 247.845616 91.807785 
L 259.270681 90.558529 
L 274.504087 88.651378 
L 311.318182 83.863809 
L 311.318182 83.863809 
" clip-path="url(#p5e76e26039)" style="fill: none; stroke: #8eba42; stroke-width: 1.5; stroke-linecap: square"/>
   </g>
   <g id="line2d_37">
    <path d="M 57.681818 189.706488 
L 66.314087 189.489911 
L 74.946355 189.49705 
L 83.832515 189.729827 
L 93.480343 190.212549 
L 104.397627 190.988488 
L 118.869373 192.257982 
L 152.890667 195.324604 
L 165.331292 196.170958 
L 176.756347 196.724201 
L 187.673621 197.032823 
L 198.844796 197.128874 
L 211.031531 197.004902 
L 224.741606 196.632493 
L 241.498353 195.941671 
L 267.141274 194.630366 
L 311.318182 192.306527 
L 311.318182 192.306527 
" clip-path="url(#p5e76e26039)" style="fill: none; stroke: #ffb5b8; stroke-width: 1.5; stroke-linecap: square"/>
   </g>
   <g id="line2d_38">
    <path d="M 57.681818 187.370138 
L 65.298526 188.538713 
L 72.407454 189.850267 
L 79.262491 191.336457 
L 86.117527 193.054444 
L 92.718672 194.936379 
L 99.319821 197.044548 
L 106.174859 199.469783 
L 113.283786 202.227 
L 120.900494 205.43019 
L 129.278872 209.205246 
L 139.434482 214.037005 
L 169.901314 228.7041 
L 178.279687 232.382764 
L 185.896391 235.480878 
L 193.005323 238.132616 
L 199.860356 240.457282 
L 206.715399 242.550835 
L 213.824322 244.483233 
L 220.933245 246.185351 
L 228.549958 247.774229 
L 236.420551 249.18862 
L 245.052825 250.51113 
L 254.700659 251.754916 
L 265.617933 252.927659 
L 278.312448 254.059023 
L 293.799755 255.205922 
L 311.318182 256.302387 
L 311.318182 256.302387 
" clip-path="url(#p5e76e26039)" style="fill: none; stroke: #e24a33; stroke-width: 1.5; stroke-linecap: square"/>
   </g>
   <g id="line2d_39">
    <path d="M 57.681818 177.974224 
L 62.251843 175.996082 
L 67.075757 173.659264 
L 71.899674 171.07128 
L 76.977476 168.085084 
L 82.309173 164.676049 
L 87.894759 160.827797 
L 93.734234 156.534209 
L 100.335381 151.396684 
L 107.95209 145.172289 
L 117.599918 136.980219 
L 145.020064 113.512858 
L 152.636777 107.383868 
L 159.23792 102.348495 
L 165.331292 97.979208 
L 170.916874 94.243175 
L 176.248567 90.940492 
L 181.326379 88.049587 
L 186.404171 85.41669 
L 191.228093 83.158625 
L 196.052005 81.137742 
L 200.875917 79.350419 
L 205.699829 77.789951 
L 210.777641 76.381774 
L 215.855443 75.200412 
L 221.187135 74.186465 
L 226.772727 73.351623 
L 232.6122 72.701706 
L 238.959452 72.221912 
L 245.814495 71.929992 
L 253.431208 71.832933 
L 262.063472 71.950632 
L 272.219086 72.316609 
L 285.421391 73.030406 
L 306.24038 74.409531 
L 311.318182 74.759646 
L 311.318182 74.759646 
" clip-path="url(#p5e76e26039)" style="fill: none; stroke: #348abd; stroke-width: 1.5; stroke-linecap: square"/>
   </g>
   <g id="line2d_40">
    <path d="M 57.681818 221.24035 
L 91.957003 224.128671 
L 106.174859 225.088847 
L 118.107699 225.678441 
L 128.771092 225.986068 
L 138.418921 226.044958 
L 147.305085 225.879838 
L 155.683458 225.502412 
L 163.554051 224.930361 
L 171.424655 224.133164 
L 179.295248 223.10452 
L 187.165841 221.847572 
L 195.290334 220.324431 
L 204.176488 218.425065 
L 214.078212 216.073522 
L 226.518837 212.874334 
L 271.203525 201.166363 
L 283.390271 198.332746 
L 294.815315 195.902057 
L 306.24038 193.70153 
L 311.318182 192.797593 
L 311.318182 192.797593 
" clip-path="url(#p5e76e26039)" style="fill: none; stroke: #988ed5; stroke-width: 1.5; stroke-linecap: square"/>
   </g>
   <g id="patch_3">
    <path d="M 45 320.4 
L 45 43.2 
" style="fill: none; stroke: #ffffff; stroke-linejoin: miter; stroke-linecap: square"/>
   </g>
   <g id="patch_4">
    <path d="M 324 320.4 
L 324 43.2 
" style="fill: none; stroke: #ffffff; stroke-linejoin: miter; stroke-linecap: square"/>
   </g>
   <g id="patch_5">
    <path d="M 45 320.4 
L 324 320.4 
" style="fill: none; stroke: #ffffff; stroke-linejoin: miter; stroke-linecap: square"/>
   </g>
   <g id="patch_6">
    <path d="M 45 43.2 
L 324 43.2 
" style="fill: none; stroke: #ffffff; stroke-linejoin: miter; stroke-linecap: square"/>
   </g>
   <g id="text_16">
    <!-- Deviation from average for single draw -->
    <g transform="translate(43.344 37.2)scale(0.144 -0.144)">
     <defs>
      <path id="DejaVuSans-44" d="M 1259 4147 
L 1259 519 
L 2022 519 
Q 2988 519 3436 956 
Q 3884 1394 3884 2338 
Q 3884 3275 3436 3711 
Q 2988 4147 2022 4147 
L 1259 4147 
z
M 628 4666 
L 1925 4666 
Q 3281 4666 3915 4102 
Q 4550 3538 4550 2338 
Q 4550 1131 3912 565 
Q 3275 0 1925 0 
L 628 0 
L 628 4666 
z
" transform="scale(0.015625)"/>
      <path id="DejaVuSans-65" d="M 3597 1894 
L 3597 1613 
L 953 1613 
Q 991 1019 1311 708 
Q 1631 397 2203 397 
Q 2534 397 2845 478 
Q 3156 559 3463 722 
L 3463 178 
Q 3153 47 2828 -22 
Q 2503 -91 2169 -91 
Q 1331 -91 842 396 
Q 353 884 353 1716 
Q 353 2575 817 3079 
Q 1281 3584 2069 3584 
Q 2775 3584 3186 3129 
Q 3597 2675 3597 1894 
z
M 3022 2063 
Q 3016 2534 2758 2815 
Q 2500 3097 2075 3097 
Q 1594 3097 1305 2825 
Q 1016 2553 972 2059 
L 3022 2063 
z
" transform="scale(0.015625)"/>
      <path id="DejaVuSans-76" d="M 191 3500 
L 800 3500 
L 1894 563 
L 2988 3500 
L 3597 3500 
L 2284 0 
L 1503 0 
L 191 3500 
z
" transform="scale(0.015625)"/>
      <path id="DejaVuSans-69" d="M 603 3500 
L 1178 3500 
L 1178 0 
L 603 0 
L 603 3500 
z
M 603 4863 
L 1178 4863 
L 1178 4134 
L 603 4134 
L 603 4863 
z
" transform="scale(0.015625)"/>
      <path id="DejaVuSans-61" d="M 2194 1759 
Q 1497 1759 1228 1600 
Q 959 1441 959 1056 
Q 959 750 1161 570 
Q 1363 391 1709 391 
Q 2188 391 2477 730 
Q 2766 1069 2766 1631 
L 2766 1759 
L 2194 1759 
z
M 3341 1997 
L 3341 0 
L 2766 0 
L 2766 531 
Q 2569 213 2275 61 
Q 1981 -91 1556 -91 
Q 1019 -91 701 211 
Q 384 513 384 1019 
Q 384 1609 779 1909 
Q 1175 2209 1959 2209 
L 2766 2209 
L 2766 2266 
Q 2766 2663 2505 2880 
Q 2244 3097 1772 3097 
Q 1472 3097 1187 3025 
Q 903 2953 641 2809 
L 641 3341 
Q 956 3463 1253 3523 
Q 1550 3584 1831 3584 
Q 2591 3584 2966 3190 
Q 3341 2797 3341 1997 
z
" transform="scale(0.015625)"/>
      <path id="DejaVuSans-74" d="M 1172 4494 
L 1172 3500 
L 2356 3500 
L 2356 3053 
L 1172 3053 
L 1172 1153 
Q 1172 725 1289 603 
Q 1406 481 1766 481 
L 2356 481 
L 2356 0 
L 1766 0 
Q 1100 0 847 248 
Q 594 497 594 1153 
L 594 3053 
L 172 3053 
L 172 3500 
L 594 3500 
L 594 4494 
L 1172 4494 
z
" transform="scale(0.015625)"/>
      <path id="DejaVuSans-6f" d="M 1959 3097 
Q 1497 3097 1228 2736 
Q 959 2375 959 1747 
Q 959 1119 1226 758 
Q 1494 397 1959 397 
Q 2419 397 2687 759 
Q 2956 1122 2956 1747 
Q 2956 2369 2687 2733 
Q 2419 3097 1959 3097 
z
M 1959 3584 
Q 2709 3584 3137 3096 
Q 3566 2609 3566 1747 
Q 3566 888 3137 398 
Q 2709 -91 1959 -91 
Q 1206 -91 779 398 
Q 353 888 353 1747 
Q 353 2609 779 3096 
Q 1206 3584 1959 3584 
z
" transform="scale(0.015625)"/>
      <path id="DejaVuSans-6e" d="M 3513 2113 
L 3513 0 
L 2938 0 
L 2938 2094 
Q 2938 2591 2744 2837 
Q 2550 3084 2163 3084 
Q 1697 3084 1428 2787 
Q 1159 2491 1159 1978 
L 1159 0 
L 581 0 
L 581 3500 
L 1159 3500 
L 1159 2956 
Q 1366 3272 1645 3428 
Q 1925 3584 2291 3584 
Q 2894 3584 3203 3211 
Q 3513 2838 3513 2113 
z
" transform="scale(0.015625)"/>
      <path id="DejaVuSans-20" transform="scale(0.015625)"/>
      <path id="DejaVuSans-66" d="M 2375 4863 
L 2375 4384 
L 1825 4384 
Q 1516 4384 1395 4259 
Q 1275 4134 1275 3809 
L 1275 3500 
L 2222 3500 
L 2222 3053 
L 1275 3053 
L 1275 0 
L 697 0 
L 697 3053 
L 147 3053 
L 147 3500 
L 697 3500 
L 697 3744 
Q 697 4328 969 4595 
Q 1241 4863 1831 4863 
L 2375 4863 
z
" transform="scale(0.015625)"/>
      <path id="DejaVuSans-72" d="M 2631 2963 
Q 2534 3019 2420 3045 
Q 2306 3072 2169 3072 
Q 1681 3072 1420 2755 
Q 1159 2438 1159 1844 
L 1159 0 
L 581 0 
L 581 3500 
L 1159 3500 
L 1159 2956 
Q 1341 3275 1631 3429 
Q 1922 3584 2338 3584 
Q 2397 3584 2469 3576 
Q 2541 3569 2628 3553 
L 2631 2963 
z
" transform="scale(0.015625)"/>
      <path id="DejaVuSans-6d" d="M 3328 2828 
Q 3544 3216 3844 3400 
Q 4144 3584 4550 3584 
Q 5097 3584 5394 3201 
Q 5691 2819 5691 2113 
L 5691 0 
L 5113 0 
L 5113 2094 
Q 5113 2597 4934 2840 
Q 4756 3084 4391 3084 
Q 3944 3084 3684 2787 
Q 3425 2491 3425 1978 
L 3425 0 
L 2847 0 
L 2847 2094 
Q 2847 2600 2669 2842 
Q 2491 3084 2119 3084 
Q 1678 3084 1418 2786 
Q 1159 2488 1159 1978 
L 1159 0 
L 581 0 
L 581 3500 
L 1159 3500 
L 1159 2956 
Q 1356 3278 1631 3431 
Q 1906 3584 2284 3584 
Q 2666 3584 2933 3390 
Q 3200 3197 3328 2828 
z
" transform="scale(0.015625)"/>
      <path id="DejaVuSans-67" d="M 2906 1791 
Q 2906 2416 2648 2759 
Q 2391 3103 1925 3103 
Q 1463 3103 1205 2759 
Q 947 2416 947 1791 
Q 947 1169 1205 825 
Q 1463 481 1925 481 
Q 2391 481 2648 825 
Q 2906 1169 2906 1791 
z
M 3481 434 
Q 3481 -459 3084 -895 
Q 2688 -1331 1869 -1331 
Q 1566 -1331 1297 -1286 
Q 1028 -1241 775 -1147 
L 775 -588 
Q 1028 -725 1275 -790 
Q 1522 -856 1778 -856 
Q 2344 -856 2625 -561 
Q 2906 -266 2906 331 
L 2906 616 
Q 2728 306 2450 153 
Q 2172 0 1784 0 
Q 1141 0 747 490 
Q 353 981 353 1791 
Q 353 2603 747 3093 
Q 1141 3584 1784 3584 
Q 2172 3584 2450 3431 
Q 2728 3278 2906 2969 
L 2906 3500 
L 3481 3500 
L 3481 434 
z
" transform="scale(0.015625)"/>
      <path id="DejaVuSans-73" d="M 2834 3397 
L 2834 2853 
Q 2591 2978 2328 3040 
Q 2066 3103 1784 3103 
Q 1356 3103 1142 2972 
Q 928 2841 928 2578 
Q 928 2378 1081 2264 
Q 1234 2150 1697 2047 
L 1894 2003 
Q 2506 1872 2764 1633 
Q 3022 1394 3022 966 
Q 3022 478 2636 193 
Q 2250 -91 1575 -91 
Q 1294 -91 989 -36 
Q 684 19 347 128 
L 347 722 
Q 666 556 975 473 
Q 1284 391 1588 391 
Q 1994 391 2212 530 
Q 2431 669 2431 922 
Q 2431 1156 2273 1281 
Q 2116 1406 1581 1522 
L 1381 1569 
Q 847 1681 609 1914 
Q 372 2147 372 2553 
Q 372 3047 722 3315 
Q 1072 3584 1716 3584 
Q 2034 3584 2315 3537 
Q 2597 3491 2834 3397 
z
" transform="scale(0.015625)"/>
      <path id="DejaVuSans-6c" d="M 603 4863 
L 1178 4863 
L 1178 0 
L 603 0 
L 603 4863 
z
" transform="scale(0.015625)"/>
      <path id="DejaVuSans-64" d="M 2906 2969 
L 2906 4863 
L 3481 4863 
L 3481 0 
L 2906 0 
L 2906 525 
Q 2725 213 2448 61 
Q 2172 -91 1784 -91 
Q 1150 -91 751 415 
Q 353 922 353 1747 
Q 353 2572 751 3078 
Q 1150 3584 1784 3584 
Q 2172 3584 2448 3432 
Q 2725 3281 2906 2969 
z
M 947 1747 
Q 947 1113 1208 752 
Q 1469 391 1925 391 
Q 2381 391 2643 752 
Q 2906 1113 2906 1747 
Q 2906 2381 2643 2742 
Q 2381 3103 1925 3103 
Q 1469 3103 1208 2742 
Q 947 2381 947 1747 
z
" transform="scale(0.015625)"/>
      <path id="DejaVuSans-77" d="M 269 3500 
L 844 3500 
L 1563 769 
L 2278 3500 
L 2956 3500 
L 3675 769 
L 4391 3500 
L 4966 3500 
L 4050 0 
L 3372 0 
L 2619 2869 
L 1863 0 
L 1184 0 
L 269 3500 
z
" transform="scale(0.015625)"/>
     </defs>
     <use xlink:href="#DejaVuSans-44"/>
     <use xlink:href="#DejaVuSans-65" x="77.001953"/>
     <use xlink:href="#DejaVuSans-76" x="138.525391"/>
     <use xlink:href="#DejaVuSans-69" x="197.705078"/>
     <use xlink:href="#DejaVuSans-61" x="225.488281"/>
     <use xlink:href="#DejaVuSans-74" x="286.767578"/>
     <use xlink:href="#DejaVuSans-69" x="325.976562"/>
     <use xlink:href="#DejaVuSans-6f" x="353.759766"/>
     <use xlink:href="#DejaVuSans-6e" x="414.941406"/>
     <use xlink:href="#DejaVuSans-20" x="478.320312"/>
     <use xlink:href="#DejaVuSans-66" x="510.107422"/>
     <use xlink:href="#DejaVuSans-72" x="545.3125"/>
     <use xlink:href="#DejaVuSans-6f" x="584.175781"/>
     <use xlink:href="#DejaVuSans-6d" x="645.357422"/>
     <use xlink:href="#DejaVuSans-20" x="742.769531"/>
     <use xlink:href="#DejaVuSans-61" x="774.556641"/>
     <use xlink:href="#DejaVuSans-76" x="835.835938"/>
     <use xlink:href="#DejaVuSans-65" x="895.015625"/>
     <use xlink:href="#DejaVuSans-72" x="956.539062"/>
     <use xlink:href="#DejaVuSans-61" x="997.652344"/>
     <use xlink:href="#DejaVuSans-67" x="1058.931641"/>
     <use xlink:href="#DejaVuSans-65" x="1122.408203"/>
     <use xlink:href="#DejaVuSans-20" x="1183.931641"/>
     <use xlink:href="#DejaVuSans-66" x="1215.71875"/>
     <use xlink:href="#DejaVuSans-6f" x="1250.923828"/>
     <use xlink:href="#DejaVuSans-72" x="1312.105469"/>
     <use xlink:href="#DejaVuSans-20" x="1353.21875"/>
     <use xlink:href="#DejaVuSans-73" x="1385.005859"/>
     <use xlink:href="#DejaVuSans-69" x="1437.105469"/>
     <use xlink:href="#DejaVuSans-6e" x="1464.888672"/>
     <use xlink:href="#DejaVuSans-67" x="1528.267578"/>
     <use xlink:href="#DejaVuSans-6c" x="1591.744141"/>
     <use xlink:href="#DejaVuSans-65" x="1619.527344"/>
     <use xlink:href="#DejaVuSans-20" x="1681.050781"/>
     <use xlink:href="#DejaVuSans-64" x="1712.837891"/>
     <use xlink:href="#DejaVuSans-72" x="1776.314453"/>
     <use xlink:href="#DejaVuSans-61" x="1817.427734"/>
     <use xlink:href="#DejaVuSans-77" x="1878.707031"/>
    </g>
   </g>
  </g>
 </g>
 <defs>
  <clipPath id="p5e76e26039">
   <rect x="45" y="43.2" width="279" height="277.2"/>
  </clipPath>
 </defs>
</svg>
