<?xml version="1.0" encoding="utf-8" standalone="no"?>
<!DOCTYPE svg PUBLIC "-//W3C//DTD SVG 1.1//EN"
  "http://www.w3.org/Graphics/SVG/1.1/DTD/svg11.dtd">
<svg xmlns:xlink="http://www.w3.org/1999/xlink" width="360pt" height="360pt" viewBox="0 0 360 360" xmlns="http://www.w3.org/2000/svg" version="1.1">
 <metadata>
  <rdf:RDF xmlns:dc="http://purl.org/dc/elements/1.1/" xmlns:cc="http://creativecommons.org/ns#" xmlns:rdf="http://www.w3.org/1999/02/22-rdf-syntax-ns#">
   <cc:Work>
    <dc:type rdf:resource="http://purl.org/dc/dcmitype/StillImage"/>
    <dc:date>2022-12-22T11:46:48.790521</dc:date>
    <dc:format>image/svg+xml</dc:format>
    <dc:creator>
     <cc:Agent>
      <dc:title>Matplotlib v3.5.3, https://matplotlib.org/</dc:title>
     </cc:Agent>
    </dc:creator>
   </cc:Work>
  </rdf:RDF>
 </metadata>
 <defs>
  <style type="text/css">*{stroke-linejoin: round; stroke-linecap: butt}</style>
 </defs>
 <g id="figure_1">
  <g id="patch_1">
   <path d="M 0 360 
L 360 360 
L 360 0 
L 0 0 
z
" style="fill: #ffffff"/>
  </g>
  <g id="axes_1">
   <g id="patch_2">
    <path d="M 45 320.4 
L 324 320.4 
L 324 43.2 
L 45 43.2 
z
" style="fill: #e5e5e5"/>
   </g>
   <g id="matplotlib.axis_1">
    <g id="xtick_1">
     <g id="line2d_1">
      <path d="M 57.681818 320.4 
L 57.681818 43.2 
" clip-path="url(#p5885b4d540)" style="fill: none; stroke: #ffffff; stroke-width: 0.8; stroke-linecap: square"/>
     </g>
     <g id="line2d_2">
      <defs>
       <path id="m9832cd1c8a" d="M 0 0 
L 0 3.5 
" style="stroke: #555555; stroke-width: 0.8"/>
      </defs>
      <g>
       <use xlink:href="#m9832cd1c8a" x="57.681818" y="320.4" style="fill: #555555; stroke: #555555; stroke-width: 0.8"/>
      </g>
     </g>
     <g id="text_1">
      <!-- −0.5 -->
      <g style="fill: #555555" transform="translate(45.540412 334.998438)scale(0.1 -0.1)">
       <defs>
        <path id="DejaVuSans-2212" d="M 678 2272 
L 4684 2272 
L 4684 1741 
L 678 1741 
L 678 2272 
z
" transform="scale(0.015625)"/>
        <path id="DejaVuSans-30" d="M 2034 4250 
Q 1547 4250 1301 3770 
Q 1056 3291 1056 2328 
Q 1056 1369 1301 889 
Q 1547 409 2034 409 
Q 2525 409 2770 889 
Q 3016 1369 3016 2328 
Q 3016 3291 2770 3770 
Q 2525 4250 2034 4250 
z
M 2034 4750 
Q 2819 4750 3233 4129 
Q 3647 3509 3647 2328 
Q 3647 1150 3233 529 
Q 2819 -91 2034 -91 
Q 1250 -91 836 529 
Q 422 1150 422 2328 
Q 422 3509 836 4129 
Q 1250 4750 2034 4750 
z
" transform="scale(0.015625)"/>
        <path id="DejaVuSans-2e" d="M 684 794 
L 1344 794 
L 1344 0 
L 684 0 
L 684 794 
z
" transform="scale(0.015625)"/>
        <path id="DejaVuSans-35" d="M 691 4666 
L 3169 4666 
L 3169 4134 
L 1269 4134 
L 1269 2991 
Q 1406 3038 1543 3061 
Q 1681 3084 1819 3084 
Q 2600 3084 3056 2656 
Q 3513 2228 3513 1497 
Q 3513 744 3044 326 
Q 2575 -91 1722 -91 
Q 1428 -91 1123 -41 
Q 819 9 494 109 
L 494 744 
Q 775 591 1075 516 
Q 1375 441 1709 441 
Q 2250 441 2565 725 
Q 2881 1009 2881 1497 
Q 2881 1984 2565 2268 
Q 2250 2553 1709 2553 
Q 1456 2553 1204 2497 
Q 953 2441 691 2322 
L 691 4666 
z
" transform="scale(0.015625)"/>
       </defs>
       <use xlink:href="#DejaVuSans-2212"/>
       <use xlink:href="#DejaVuSans-30" x="83.789062"/>
       <use xlink:href="#DejaVuSans-2e" x="147.412109"/>
       <use xlink:href="#DejaVuSans-35" x="179.199219"/>
      </g>
     </g>
    </g>
    <g id="xtick_2">
     <g id="line2d_3">
      <path d="M 99.954545 320.4 
L 99.954545 43.2 
" clip-path="url(#p5885b4d540)" style="fill: none; stroke: #ffffff; stroke-width: 0.8; stroke-linecap: square"/>
     </g>
     <g id="line2d_4">
      <g>
       <use xlink:href="#m9832cd1c8a" x="99.954545" y="320.4" style="fill: #555555; stroke: #555555; stroke-width: 0.8"/>
      </g>
     </g>
     <g id="text_2">
      <!-- 0.0 -->
      <g style="fill: #555555" transform="translate(92.002983 334.998438)scale(0.1 -0.1)">
       <use xlink:href="#DejaVuSans-30"/>
       <use xlink:href="#DejaVuSans-2e" x="63.623047"/>
       <use xlink:href="#DejaVuSans-30" x="95.410156"/>
      </g>
     </g>
    </g>
    <g id="xtick_3">
     <g id="line2d_5">
      <path d="M 142.227273 320.4 
L 142.227273 43.2 
" clip-path="url(#p5885b4d540)" style="fill: none; stroke: #ffffff; stroke-width: 0.8; stroke-linecap: square"/>
     </g>
     <g id="line2d_6">
      <g>
       <use xlink:href="#m9832cd1c8a" x="142.227273" y="320.4" style="fill: #555555; stroke: #555555; stroke-width: 0.8"/>
      </g>
     </g>
     <g id="text_3">
      <!-- 0.5 -->
      <g style="fill: #555555" transform="translate(134.27571 334.998438)scale(0.1 -0.1)">
       <use xlink:href="#DejaVuSans-30"/>
       <use xlink:href="#DejaVuSans-2e" x="63.623047"/>
       <use xlink:href="#DejaVuSans-35" x="95.410156"/>
      </g>
     </g>
    </g>
    <g id="xtick_4">
     <g id="line2d_7">
      <path d="M 184.5 320.4 
L 184.5 43.2 
" clip-path="url(#p5885b4d540)" style="fill: none; stroke: #ffffff; stroke-width: 0.8; stroke-linecap: square"/>
     </g>
     <g id="line2d_8">
      <g>
       <use xlink:href="#m9832cd1c8a" x="184.5" y="320.4" style="fill: #555555; stroke: #555555; stroke-width: 0.8"/>
      </g>
     </g>
     <g id="text_4">
      <!-- 1.0 -->
      <g style="fill: #555555" transform="translate(176.548438 334.998438)scale(0.1 -0.1)">
       <defs>
        <path id="DejaVuSans-31" d="M 794 531 
L 1825 531 
L 1825 4091 
L 703 3866 
L 703 4441 
L 1819 4666 
L 2450 4666 
L 2450 531 
L 3481 531 
L 3481 0 
L 794 0 
L 794 531 
z
" transform="scale(0.015625)"/>
       </defs>
       <use xlink:href="#DejaVuSans-31"/>
       <use xlink:href="#DejaVuSans-2e" x="63.623047"/>
       <use xlink:href="#DejaVuSans-30" x="95.410156"/>
      </g>
     </g>
    </g>
    <g id="xtick_5">
     <g id="line2d_9">
      <path d="M 226.772727 320.4 
L 226.772727 43.2 
" clip-path="url(#p5885b4d540)" style="fill: none; stroke: #ffffff; stroke-width: 0.8; stroke-linecap: square"/>
     </g>
     <g id="line2d_10">
      <g>
       <use xlink:href="#m9832cd1c8a" x="226.772727" y="320.4" style="fill: #555555; stroke: #555555; stroke-width: 0.8"/>
      </g>
     </g>
     <g id="text_5">
      <!-- 1.5 -->
      <g style="fill: #555555" transform="translate(218.821165 334.998438)scale(0.1 -0.1)">
       <use xlink:href="#DejaVuSans-31"/>
       <use xlink:href="#DejaVuSans-2e" x="63.623047"/>
       <use xlink:href="#DejaVuSans-35" x="95.410156"/>
      </g>
     </g>
    </g>
    <g id="xtick_6">
     <g id="line2d_11">
      <path d="M 269.045455 320.4 
L 269.045455 43.2 
" clip-path="url(#p5885b4d540)" style="fill: none; stroke: #ffffff; stroke-width: 0.8; stroke-linecap: square"/>
     </g>
     <g id="line2d_12">
      <g>
       <use xlink:href="#m9832cd1c8a" x="269.045455" y="320.4" style="fill: #555555; stroke: #555555; stroke-width: 0.8"/>
      </g>
     </g>
     <g id="text_6">
      <!-- 2.0 -->
      <g style="fill: #555555" transform="translate(261.093892 334.998438)scale(0.1 -0.1)">
       <defs>
        <path id="DejaVuSans-32" d="M 1228 531 
L 3431 531 
L 3431 0 
L 469 0 
L 469 531 
Q 828 903 1448 1529 
Q 2069 2156 2228 2338 
Q 2531 2678 2651 2914 
Q 2772 3150 2772 3378 
Q 2772 3750 2511 3984 
Q 2250 4219 1831 4219 
Q 1534 4219 1204 4116 
Q 875 4013 500 3803 
L 500 4441 
Q 881 4594 1212 4672 
Q 1544 4750 1819 4750 
Q 2544 4750 2975 4387 
Q 3406 4025 3406 3419 
Q 3406 3131 3298 2873 
Q 3191 2616 2906 2266 
Q 2828 2175 2409 1742 
Q 1991 1309 1228 531 
z
" transform="scale(0.015625)"/>
       </defs>
       <use xlink:href="#DejaVuSans-32"/>
       <use xlink:href="#DejaVuSans-2e" x="63.623047"/>
       <use xlink:href="#DejaVuSans-30" x="95.410156"/>
      </g>
     </g>
    </g>
    <g id="xtick_7">
     <g id="line2d_13">
      <path d="M 311.318182 320.4 
L 311.318182 43.2 
" clip-path="url(#p5885b4d540)" style="fill: none; stroke: #ffffff; stroke-width: 0.8; stroke-linecap: square"/>
     </g>
     <g id="line2d_14">
      <g>
       <use xlink:href="#m9832cd1c8a" x="311.318182" y="320.4" style="fill: #555555; stroke: #555555; stroke-width: 0.8"/>
      </g>
     </g>
     <g id="text_7">
      <!-- 2.5 -->
      <g style="fill: #555555" transform="translate(303.366619 334.998438)scale(0.1 -0.1)">
       <use xlink:href="#DejaVuSans-32"/>
       <use xlink:href="#DejaVuSans-2e" x="63.623047"/>
       <use xlink:href="#DejaVuSans-35" x="95.410156"/>
      </g>
     </g>
    </g>
   </g>
   <g id="matplotlib.axis_2">
    <g id="ytick_1">
     <g id="line2d_15">
      <path d="M 45 314.822907 
L 324 314.822907 
" clip-path="url(#p5885b4d540)" style="fill: none; stroke: #ffffff; stroke-width: 0.8; stroke-linecap: square"/>
     </g>
     <g id="line2d_16">
      <defs>
       <path id="maa1b3b31d2" d="M 0 0 
L -3.5 0 
" style="stroke: #555555; stroke-width: 0.8"/>
      </defs>
      <g>
       <use xlink:href="#maa1b3b31d2" x="45" y="314.822907" style="fill: #555555; stroke: #555555; stroke-width: 0.8"/>
      </g>
     </g>
     <g id="text_8">
      <!-- $\mathdefault{10^{-3}}$ -->
      <g style="fill: #555555" transform="translate(14.5 318.622126)scale(0.1 -0.1)">
       <defs>
        <path id="DejaVuSans-33" d="M 2597 2516 
Q 3050 2419 3304 2112 
Q 3559 1806 3559 1356 
Q 3559 666 3084 287 
Q 2609 -91 1734 -91 
Q 1441 -91 1130 -33 
Q 819 25 488 141 
L 488 750 
Q 750 597 1062 519 
Q 1375 441 1716 441 
Q 2309 441 2620 675 
Q 2931 909 2931 1356 
Q 2931 1769 2642 2001 
Q 2353 2234 1838 2234 
L 1294 2234 
L 1294 2753 
L 1863 2753 
Q 2328 2753 2575 2939 
Q 2822 3125 2822 3475 
Q 2822 3834 2567 4026 
Q 2313 4219 1838 4219 
Q 1578 4219 1281 4162 
Q 984 4106 628 3988 
L 628 4550 
Q 988 4650 1302 4700 
Q 1616 4750 1894 4750 
Q 2613 4750 3031 4423 
Q 3450 4097 3450 3541 
Q 3450 3153 3228 2886 
Q 3006 2619 2597 2516 
z
" transform="scale(0.015625)"/>
       </defs>
       <use xlink:href="#DejaVuSans-31" transform="translate(0 0.765625)"/>
       <use xlink:href="#DejaVuSans-30" transform="translate(63.623047 0.765625)"/>
       <use xlink:href="#DejaVuSans-2212" transform="translate(128.203125 39.046875)scale(0.7)"/>
       <use xlink:href="#DejaVuSans-33" transform="translate(186.855469 39.046875)scale(0.7)"/>
      </g>
     </g>
    </g>
    <g id="ytick_2">
     <g id="line2d_17">
      <path d="M 45 246.923651 
L 324 246.923651 
" clip-path="url(#p5885b4d540)" style="fill: none; stroke: #ffffff; stroke-width: 0.8; stroke-linecap: square"/>
     </g>
     <g id="line2d_18">
      <g>
       <use xlink:href="#maa1b3b31d2" x="45" y="246.923651" style="fill: #555555; stroke: #555555; stroke-width: 0.8"/>
      </g>
     </g>
     <g id="text_9">
      <!-- $\mathdefault{10^{-2}}$ -->
      <g style="fill: #555555" transform="translate(14.5 250.72287)scale(0.1 -0.1)">
       <use xlink:href="#DejaVuSans-31" transform="translate(0 0.765625)"/>
       <use xlink:href="#DejaVuSans-30" transform="translate(63.623047 0.765625)"/>
       <use xlink:href="#DejaVuSans-2212" transform="translate(128.203125 39.046875)scale(0.7)"/>
       <use xlink:href="#DejaVuSans-32" transform="translate(186.855469 39.046875)scale(0.7)"/>
      </g>
     </g>
    </g>
    <g id="ytick_3">
     <g id="line2d_19">
      <path d="M 45 179.024395 
L 324 179.024395 
" clip-path="url(#p5885b4d540)" style="fill: none; stroke: #ffffff; stroke-width: 0.8; stroke-linecap: square"/>
     </g>
     <g id="line2d_20">
      <g>
       <use xlink:href="#maa1b3b31d2" x="45" y="179.024395" style="fill: #555555; stroke: #555555; stroke-width: 0.8"/>
      </g>
     </g>
     <g id="text_10">
      <!-- $\mathdefault{10^{-1}}$ -->
      <g style="fill: #555555" transform="translate(14.5 182.823614)scale(0.1 -0.1)">
       <use xlink:href="#DejaVuSans-31" transform="translate(0 0.684375)"/>
       <use xlink:href="#DejaVuSans-30" transform="translate(63.623047 0.684375)"/>
       <use xlink:href="#DejaVuSans-2212" transform="translate(128.203125 38.965625)scale(0.7)"/>
       <use xlink:href="#DejaVuSans-31" transform="translate(186.855469 38.965625)scale(0.7)"/>
      </g>
     </g>
    </g>
    <g id="ytick_4">
     <g id="line2d_21">
      <path d="M 45 111.125139 
L 324 111.125139 
" clip-path="url(#p5885b4d540)" style="fill: none; stroke: #ffffff; stroke-width: 0.8; stroke-linecap: square"/>
     </g>
     <g id="line2d_22">
      <g>
       <use xlink:href="#maa1b3b31d2" x="45" y="111.125139" style="fill: #555555; stroke: #555555; stroke-width: 0.8"/>
      </g>
     </g>
     <g id="text_11">
      <!-- $\mathdefault{10^{0}}$ -->
      <g style="fill: #555555" transform="translate(20.4 114.924358)scale(0.1 -0.1)">
       <use xlink:href="#DejaVuSans-31" transform="translate(0 0.765625)"/>
       <use xlink:href="#DejaVuSans-30" transform="translate(63.623047 0.765625)"/>
       <use xlink:href="#DejaVuSans-30" transform="translate(128.203125 39.046875)scale(0.7)"/>
      </g>
     </g>
    </g>
    <g id="ytick_5">
     <g id="line2d_23">
      <path d="M 45 43.225883 
L 324 43.225883 
" clip-path="url(#p5885b4d540)" style="fill: none; stroke: #ffffff; stroke-width: 0.8; stroke-linecap: square"/>
     </g>
     <g id="line2d_24">
      <g>
       <use xlink:href="#maa1b3b31d2" x="45" y="43.225883" style="fill: #555555; stroke: #555555; stroke-width: 0.8"/>
      </g>
     </g>
     <g id="text_12">
      <!-- $\mathdefault{10^{1}}$ -->
      <g style="fill: #555555" transform="translate(20.4 47.025102)scale(0.1 -0.1)">
       <use xlink:href="#DejaVuSans-31" transform="translate(0 0.684375)"/>
       <use xlink:href="#DejaVuSans-30" transform="translate(63.623047 0.684375)"/>
       <use xlink:href="#DejaVuSans-31" transform="translate(128.203125 38.965625)scale(0.7)"/>
      </g>
     </g>
    </g>
    <g id="ytick_6">
     <g id="line2d_25">
      <defs>
       <path id="m441072e93a" d="M 0 0 
L -2 0 
" style="stroke: #555555; stroke-width: 0.6"/>
      </defs>
      <g>
       <use xlink:href="#m441072e93a" x="45" y="317.929807" style="fill: #555555; stroke: #555555; stroke-width: 0.6"/>
      </g>
     </g>
    </g>
    <g id="ytick_7">
     <g id="line2d_26">
      <g>
       <use xlink:href="#m441072e93a" x="45" y="294.383195" style="fill: #555555; stroke: #555555; stroke-width: 0.6"/>
      </g>
     </g>
    </g>
    <g id="ytick_8">
     <g id="line2d_27">
      <g>
       <use xlink:href="#m441072e93a" x="45" y="282.426729" style="fill: #555555; stroke: #555555; stroke-width: 0.6"/>
      </g>
     </g>
    </g>
    <g id="ytick_9">
     <g id="line2d_28">
      <g>
       <use xlink:href="#m441072e93a" x="45" y="273.943482" style="fill: #555555; stroke: #555555; stroke-width: 0.6"/>
      </g>
     </g>
    </g>
    <g id="ytick_10">
     <g id="line2d_29">
      <g>
       <use xlink:href="#m441072e93a" x="45" y="267.363364" style="fill: #555555; stroke: #555555; stroke-width: 0.6"/>
      </g>
     </g>
    </g>
    <g id="ytick_11">
     <g id="line2d_30">
      <g>
       <use xlink:href="#m441072e93a" x="45" y="261.987016" style="fill: #555555; stroke: #555555; stroke-width: 0.6"/>
      </g>
     </g>
    </g>
    <g id="ytick_12">
     <g id="line2d_31">
      <g>
       <use xlink:href="#m441072e93a" x="45" y="257.441379" style="fill: #555555; stroke: #555555; stroke-width: 0.6"/>
      </g>
     </g>
    </g>
    <g id="ytick_13">
     <g id="line2d_32">
      <g>
       <use xlink:href="#m441072e93a" x="45" y="253.503769" style="fill: #555555; stroke: #555555; stroke-width: 0.6"/>
      </g>
     </g>
    </g>
    <g id="ytick_14">
     <g id="line2d_33">
      <g>
       <use xlink:href="#m441072e93a" x="45" y="250.030551" style="fill: #555555; stroke: #555555; stroke-width: 0.6"/>
      </g>
     </g>
    </g>
    <g id="ytick_15">
     <g id="line2d_34">
      <g>
       <use xlink:href="#m441072e93a" x="45" y="226.483939" style="fill: #555555; stroke: #555555; stroke-width: 0.6"/>
      </g>
     </g>
    </g>
    <g id="ytick_16">
     <g id="line2d_35">
      <g>
       <use xlink:href="#m441072e93a" x="45" y="214.527473" style="fill: #555555; stroke: #555555; stroke-width: 0.6"/>
      </g>
     </g>
    </g>
    <g id="ytick_17">
     <g id="line2d_36">
      <g>
       <use xlink:href="#m441072e93a" x="45" y="206.044226" style="fill: #555555; stroke: #555555; stroke-width: 0.6"/>
      </g>
     </g>
    </g>
    <g id="ytick_18">
     <g id="line2d_37">
      <g>
       <use xlink:href="#m441072e93a" x="45" y="199.464108" style="fill: #555555; stroke: #555555; stroke-width: 0.6"/>
      </g>
     </g>
    </g>
    <g id="ytick_19">
     <g id="line2d_38">
      <g>
       <use xlink:href="#m441072e93a" x="45" y="194.08776" style="fill: #555555; stroke: #555555; stroke-width: 0.6"/>
      </g>
     </g>
    </g>
    <g id="ytick_20">
     <g id="line2d_39">
      <g>
       <use xlink:href="#m441072e93a" x="45" y="189.542123" style="fill: #555555; stroke: #555555; stroke-width: 0.6"/>
      </g>
     </g>
    </g>
    <g id="ytick_21">
     <g id="line2d_40">
      <g>
       <use xlink:href="#m441072e93a" x="45" y="185.604513" style="fill: #555555; stroke: #555555; stroke-width: 0.6"/>
      </g>
     </g>
    </g>
    <g id="ytick_22">
     <g id="line2d_41">
      <g>
       <use xlink:href="#m441072e93a" x="45" y="182.131295" style="fill: #555555; stroke: #555555; stroke-width: 0.6"/>
      </g>
     </g>
    </g>
    <g id="ytick_23">
     <g id="line2d_42">
      <g>
       <use xlink:href="#m441072e93a" x="45" y="158.584683" style="fill: #555555; stroke: #555555; stroke-width: 0.6"/>
      </g>
     </g>
    </g>
    <g id="ytick_24">
     <g id="line2d_43">
      <g>
       <use xlink:href="#m441072e93a" x="45" y="146.628217" style="fill: #555555; stroke: #555555; stroke-width: 0.6"/>
      </g>
     </g>
    </g>
    <g id="ytick_25">
     <g id="line2d_44">
      <g>
       <use xlink:href="#m441072e93a" x="45" y="138.14497" style="fill: #555555; stroke: #555555; stroke-width: 0.6"/>
      </g>
     </g>
    </g>
    <g id="ytick_26">
     <g id="line2d_45">
      <g>
       <use xlink:href="#m441072e93a" x="45" y="131.564852" style="fill: #555555; stroke: #555555; stroke-width: 0.6"/>
      </g>
     </g>
    </g>
    <g id="ytick_27">
     <g id="line2d_46">
      <g>
       <use xlink:href="#m441072e93a" x="45" y="126.188504" style="fill: #555555; stroke: #555555; stroke-width: 0.6"/>
      </g>
     </g>
    </g>
    <g id="ytick_28">
     <g id="line2d_47">
      <g>
       <use xlink:href="#m441072e93a" x="45" y="121.642867" style="fill: #555555; stroke: #555555; stroke-width: 0.6"/>
      </g>
     </g>
    </g>
    <g id="ytick_29">
     <g id="line2d_48">
      <g>
       <use xlink:href="#m441072e93a" x="45" y="117.705257" style="fill: #555555; stroke: #555555; stroke-width: 0.6"/>
      </g>
     </g>
    </g>
    <g id="ytick_30">
     <g id="line2d_49">
      <g>
       <use xlink:href="#m441072e93a" x="45" y="114.232039" style="fill: #555555; stroke: #555555; stroke-width: 0.6"/>
      </g>
     </g>
    </g>
    <g id="ytick_31">
     <g id="line2d_50">
      <g>
       <use xlink:href="#m441072e93a" x="45" y="90.685427" style="fill: #555555; stroke: #555555; stroke-width: 0.6"/>
      </g>
     </g>
    </g>
    <g id="ytick_32">
     <g id="line2d_51">
      <g>
       <use xlink:href="#m441072e93a" x="45" y="78.728961" style="fill: #555555; stroke: #555555; stroke-width: 0.6"/>
      </g>
     </g>
    </g>
    <g id="ytick_33">
     <g id="line2d_52">
      <g>
       <use xlink:href="#m441072e93a" x="45" y="70.245714" style="fill: #555555; stroke: #555555; stroke-width: 0.6"/>
      </g>
     </g>
    </g>
    <g id="ytick_34">
     <g id="line2d_53">
      <g>
       <use xlink:href="#m441072e93a" x="45" y="63.665596" style="fill: #555555; stroke: #555555; stroke-width: 0.6"/>
      </g>
     </g>
    </g>
    <g id="ytick_35">
     <g id="line2d_54">
      <g>
       <use xlink:href="#m441072e93a" x="45" y="58.289248" style="fill: #555555; stroke: #555555; stroke-width: 0.6"/>
      </g>
     </g>
    </g>
    <g id="ytick_36">
     <g id="line2d_55">
      <g>
       <use xlink:href="#m441072e93a" x="45" y="53.743611" style="fill: #555555; stroke: #555555; stroke-width: 0.6"/>
      </g>
     </g>
    </g>
    <g id="ytick_37">
     <g id="line2d_56">
      <g>
       <use xlink:href="#m441072e93a" x="45" y="49.806001" style="fill: #555555; stroke: #555555; stroke-width: 0.6"/>
      </g>
     </g>
    </g>
    <g id="ytick_38">
     <g id="line2d_57">
      <g>
       <use xlink:href="#m441072e93a" x="45" y="46.332783" style="fill: #555555; stroke: #555555; stroke-width: 0.6"/>
      </g>
     </g>
    </g>
   </g>
   <g id="line2d_58">
    <path d="M 99.954545 140.314886 
L 101.662534 132.315681 
L 103.370523 124.789519 
L 105.078513 104.511461 
L 106.786501 121.126522 
L 108.49449 108.061532 
L 110.20248 114.808024 
L 111.910468 105.668117 
L 113.618457 110.019193 
L 115.326447 128.189919 
L 117.034435 112.063247 
L 118.742424 106.544383 
L 120.450414 110.326084 
L 122.158402 111.545831 
L 123.86639 110.617518 
L 125.574381 121.709026 
L 127.282369 131.122994 
L 128.990357 115.887083 
L 130.698348 114.254005 
L 132.406336 122.030554 
L 134.114324 113.988988 
L 135.822315 130.669275 
L 137.530303 129.051629 
L 139.238292 142.896574 
L 140.946282 138.800695 
L 142.654273 141.519402 
L 144.362259 133.920799 
L 146.070249 148.330492 
L 147.77824 128.133202 
L 149.486226 133.312449 
L 151.194216 131.973425 
L 152.902207 154.058995 
L 154.610193 124.118392 
L 156.318183 131.458779 
L 158.026169 143.597102 
L 159.73416 180.249809 
L 161.442151 168.459496 
L 163.150136 151.91506 
L 164.858127 192.427696 
L 166.566113 153.434866 
L 168.274103 141.802344 
L 169.982094 158.782248 
L 171.69008 170.130749 
L 173.39807 207.173039 
L 175.106061 170.734438 
L 176.814047 126.828024 
L 178.522038 202.776849 
L 180.230028 168.331915 
L 181.938019 179.969389 
L 183.64601 160.806552 
L 185.354 140.499886 
L 187.061981 131.895707 
L 188.769972 144.167084 
L 190.477962 121.84471 
L 192.185953 144.170248 
L 193.893944 140.269145 
L 195.601925 149.980922 
L 197.309915 127.035484 
L 199.017906 126.743645 
L 200.725887 119.197749 
L 202.433877 124.852265 
L 204.141868 110.074589 
L 205.849859 134.782776 
L 207.557849 111.7936 
L 209.26584 111.029341 
L 210.973831 114.348514 
L 212.681822 106.314019 
L 214.389812 116.124447 
L 216.097793 117.271241 
L 217.805784 121.501615 
L 219.513774 129.886083 
L 221.221765 111.416409 
L 222.929756 122.008217 
L 224.637746 117.02743 
L 226.345737 121.229878 
L 228.053718 119.021032 
L 229.761708 118.733506 
L 231.469699 131.366981 
L 233.17769 165.012261 
L 234.885681 136.81074 
L 236.593661 129.653563 
L 238.301652 136.555369 
L 240.009643 162.316794 
L 241.717623 148.926743 
L 243.425614 133.477254 
L 245.133605 138.253478 
L 246.841595 135.865344 
L 248.549586 193.616525 
L 250.257577 195.459817 
L 251.965568 174.655712 
L 253.673558 203.453782 
L 255.381549 153.191759 
L 257.08953 157.403411 
L 258.79752 177.773517 
L 260.505511 133.869897 
L 262.213502 124.679508 
L 263.921492 114.818426 
L 265.629473 118.443806 
L 267.337464 115.55373 
L 269.045455 112.993735 
" clip-path="url(#p5885b4d540)" style="fill: none; stroke: #e24a33; stroke-width: 1.5; stroke-linecap: square"/>
   </g>
   <g id="line2d_59">
    <path d="M 57.681818 98.586201 
L 58.189598 104.21622 
L 58.443488 100.656903 
L 58.697379 99.056769 
L 58.951269 107.324727 
L 59.205159 99.959981 
L 59.459049 106.476068 
L 59.712939 100.468131 
L 59.966829 104.220294 
L 60.220719 102.94913 
L 60.474609 104.839372 
L 60.728499 110.525339 
L 60.98239 105.343177 
L 61.23628 111.114359 
L 61.49017 111.802611 
L 61.744062 110.285129 
L 61.997952 101.977413 
L 62.251843 107.048857 
L 62.505733 107.96075 
L 62.759623 114.009994 
L 63.013513 112.703087 
L 63.267403 112.457689 
L 63.521293 108.687683 
L 63.775186 116.663484 
L 64.029076 108.53058 
L 64.282966 120.418928 
L 64.536856 111.837859 
L 65.044636 117.58341 
L 65.298526 131.093119 
L 65.806307 117.220111 
L 66.314087 127.295242 
L 66.821867 114.287812 
L 67.075757 126.533042 
L 67.329647 158.972787 
L 67.583537 120.053771 
L 67.837427 172.085347 
L 68.091317 130.268385 
L 68.345208 142.045969 
L 68.599098 120.17795 
L 68.852988 131.819201 
L 69.106878 133.088494 
L 69.360768 143.934129 
L 69.614658 128.865564 
L 69.868551 128.722943 
L 70.122441 143.692682 
L 70.376331 131.74233 
L 70.630221 154.743002 
L 70.884111 125.033107 
L 71.138001 141.730185 
L 71.391891 130.67757 
L 71.645781 125.718187 
L 71.899674 193.198088 
L 72.153564 131.108106 
L 72.407454 131.746177 
L 72.661344 120.299893 
L 72.915234 131.030591 
L 73.169125 163.277274 
L 73.423015 160.686115 
L 73.676905 145.47779 
L 73.930795 189.5532 
L 74.184685 187.237766 
L 74.438575 301.744114 
L 74.692465 176.055502 
L 74.946355 142.516592 
L 75.200245 131.870286 
L 75.454135 174.811404 
L 75.708026 271.121048 
L 75.961916 141.821722 
L 76.215806 220.652079 
L 76.469696 150.453781 
L 76.723586 151.788485 
L 76.977476 157.239425 
L 77.231366 193.888146 
L 77.485256 164.179653 
L 77.739146 159.61372 
L 77.993039 160.483957 
L 78.246929 177.028028 
L 78.500819 173.869622 
L 78.754709 148.437425 
L 79.008599 212.35262 
L 79.262491 179.87621 
L 79.516381 164.248192 
L 79.770271 188.584866 
L 80.024162 247.773183 
L 80.278052 165.974462 
L 80.531943 159.786358 
L 80.785833 242.664977 
L 81.039723 206.733103 
L 81.293614 151.49741 
L 81.547504 130.272811 
L 81.801394 136.027824 
L 82.055283 177.970835 
L 82.309173 195.670582 
L 82.816953 124.775866 
L 83.070844 183.932314 
L 83.324735 182.619766 
L 83.578625 213.866185 
L 83.832515 148.96381 
L 84.086404 166.294737 
L 84.340294 144.207817 
L 84.594184 216.316902 
L 85.101964 152.009716 
L 85.355856 136.052883 
L 85.609746 132.222325 
L 86.117527 137.738936 
L 86.625308 154.609305 
L 86.879198 185.522812 
L 87.133088 136.810011 
L 87.386979 142.280151 
L 87.640869 125.377736 
L 87.894759 148.056474 
L 88.148651 141.53487 
L 88.402541 141.859663 
L 88.656431 143.129497 
L 88.910321 146.381574 
L 89.164211 121.329613 
L 89.418102 199.507888 
L 89.671993 157.463213 
L 89.925883 168.514796 
L 90.179771 126.305751 
L 90.433662 135.593526 
L 90.687552 131.051949 
L 90.941442 166.549753 
L 91.195333 136.842196 
L 91.449223 152.06305 
L 91.703113 133.684595 
L 91.957003 132.206199 
L 92.210892 140.230487 
L 92.464782 140.102442 
L 92.718672 138.669973 
L 92.972563 134.267507 
L 93.226453 122.063642 
L 93.480343 156.199021 
L 93.734234 121.551556 
L 93.988124 124.653184 
L 94.242016 116.682703 
L 94.495906 134.537717 
L 94.749796 127.726337 
L 95.003687 138.590674 
L 95.257577 135.097205 
L 95.511467 160.041272 
L 96.019248 119.765537 
L 96.273139 144.949233 
L 96.780919 111.570353 
L 97.03481 126.625762 
L 97.2887 114.811337 
L 97.54259 111.696369 
L 98.050371 134.225783 
L 98.30426 124.091706 
L 98.55815 118.681781 
L 98.81204 147.897181 
L 99.065931 125.115007 
L 99.319821 133.666456 
L 99.573711 119.194585 
L 99.827601 115.780302 
L 100.589271 136.116801 
L 100.843161 125.699404 
L 101.350942 118.913936 
L 101.604832 125.590973 
L 101.858722 126.091683 
L 102.112612 129.502656 
L 102.366506 119.636951 
L 102.620397 120.979784 
L 102.874287 116.389549 
L 103.635958 131.036351 
L 103.889848 119.136327 
L 104.143738 116.551481 
L 104.397627 120.855117 
L 104.651517 121.84603 
L 104.905408 134.690654 
L 105.159298 127.264755 
L 105.413188 123.620281 
L 105.667078 116.45947 
L 105.920969 128.345492 
L 106.174859 115.369305 
L 106.682638 132.336277 
L 106.936528 105.751565 
L 107.190419 111.179118 
L 107.444309 121.634715 
L 107.698199 111.361426 
L 107.95209 140.035788 
L 108.20598 120.095982 
L 108.459869 114.110056 
L 108.713759 119.077116 
L 108.967649 130.788879 
L 109.22154 112.56165 
L 109.72932 127.58289 
L 109.983211 106.874885 
L 110.237101 109.84672 
L 110.49099 122.925698 
L 110.74488 122.058293 
L 110.99877 118.962575 
L 111.25266 119.573444 
L 111.50655 115.604669 
L 111.760442 118.405212 
L 112.014332 117.185766 
L 112.268222 110.540107 
L 112.522116 122.306694 
L 112.776006 120.852877 
L 113.029896 114.552328 
L 113.283786 119.337138 
L 113.537676 120.129456 
L 113.791567 112.070156 
L 114.045457 138.419427 
L 114.299348 122.223625 
L 114.553236 123.277477 
L 114.807127 113.655256 
L 115.061017 115.11324 
L 115.568797 121.194958 
L 115.822688 119.595523 
L 116.076578 157.754216 
L 116.330468 113.433711 
L 116.584357 126.872198 
L 116.838247 113.877484 
L 117.092137 114.566022 
L 117.346028 116.232627 
L 117.599918 116.410386 
L 117.853809 113.676653 
L 118.107699 119.285892 
L 118.361589 117.141776 
L 118.615483 116.396787 
L 118.869373 112.936556 
L 119.123263 114.859366 
L 119.377153 140.270681 
L 119.884935 113.995608 
L 120.138825 121.388106 
L 120.392715 121.308566 
L 120.646604 107.789277 
L 120.900494 114.073313 
L 121.154384 116.208228 
L 121.408274 139.33964 
L 121.662164 120.630834 
L 121.916054 118.965888 
L 122.169945 118.649617 
L 122.423835 111.361903 
L 122.677725 122.270764 
L 122.931615 125.014405 
L 123.185505 118.000144 
L 123.439395 125.580157 
L 123.693285 110.689768 
L 123.947175 137.005223 
L 124.201065 142.24577 
L 124.454955 119.087819 
L 124.708846 115.619788 
L 124.962736 127.820467 
L 125.216626 116.460093 
L 125.470516 117.473424 
L 125.724406 119.841523 
L 125.978296 116.750487 
L 126.232186 129.887708 
L 126.486076 122.856807 
L 126.739966 136.060218 
L 126.993856 113.944244 
L 127.247747 116.306135 
L 127.501637 120.160461 
L 127.755527 112.332626 
L 128.009417 129.405678 
L 128.263307 111.324671 
L 128.517197 116.08692 
L 128.771092 131.227703 
L 129.024982 118.950743 
L 129.278872 115.597367 
L 129.786653 138.526153 
L 130.040543 111.992479 
L 130.294433 119.255078 
L 130.548323 121.510558 
L 130.802213 132.294207 
L 131.056103 121.402873 
L 131.309993 124.122666 
L 131.817773 121.209912 
L 132.071664 118.354357 
L 132.325554 127.810866 
L 132.579444 127.249141 
L 132.833334 122.370685 
L 133.087224 121.372521 
L 133.341114 122.221908 
L 133.595004 132.225806 
L 133.848894 131.7606 
L 134.102784 114.088995 
L 134.356675 133.297715 
L 134.610565 132.82528 
L 134.86446 120.796668 
L 135.11835 119.830925 
L 135.37224 124.837328 
L 135.62613 112.816214 
L 136.3878 135.471792 
L 136.64169 127.31234 
L 136.895581 138.987514 
L 137.149471 120.935568 
L 137.403361 122.037339 
L 137.657251 134.96404 
L 137.911141 163.12377 
L 138.165031 116.443082 
L 138.418921 134.80172 
L 138.672811 125.354672 
L 138.926701 138.657531 
L 139.180591 127.798047 
L 139.688372 142.82184 
L 139.942262 138.035802 
L 140.196152 152.341359 
L 140.450042 119.176547 
L 140.703932 175.620522 
L 140.957822 128.836583 
L 141.211712 148.096969 
L 141.465602 140.713148 
L 141.719493 123.223567 
L 141.973383 124.93411 
L 142.227273 153.833177 
L 142.481163 135.018281 
L 142.735053 132.934764 
L 143.242833 122.388464 
L 143.496723 125.710615 
L 143.750613 145.540369 
L 144.004503 129.040612 
L 144.258394 134.70588 
L 144.512284 153.51391 
L 144.766174 135.500341 
L 145.020064 135.552099 
L 145.273954 124.665664 
L 145.527844 121.868939 
L 145.781734 155.769366 
L 146.035624 125.801231 
L 146.289514 184.670517 
L 146.543404 147.607862 
L 146.797295 148.354828 
L 147.051195 139.701707 
L 147.305085 163.813901 
L 147.558975 123.25544 
L 147.812865 122.623032 
L 148.066755 140.281113 
L 148.320645 134.085293 
L 148.574535 142.817295 
L 148.828425 122.549694 
L 149.082316 159.062403 
L 149.336206 218.731963 
L 149.590096 199.228129 
L 149.843986 127.619675 
L 150.097876 119.289272 
L 150.351766 168.465583 
L 150.605656 158.513767 
L 150.859546 133.438989 
L 151.113436 136.118212 
L 151.367326 134.997514 
L 151.621217 124.043726 
L 151.875107 130.545735 
L 152.128997 131.622729 
L 152.382887 149.425591 
L 152.636777 132.010366 
L 152.890667 141.260094 
L 153.144557 140.2656 
L 153.652337 159.386542 
L 153.906228 149.242847 
L 154.160118 120.717401 
L 154.414008 139.459602 
L 154.667898 207.596767 
L 154.921788 201.252897 
L 155.175678 139.070573 
L 155.429568 141.18381 
L 155.683458 132.64056 
L 155.937348 162.829927 
L 156.191238 134.710093 
L 156.445129 215.06522 
L 156.699019 165.275261 
L 156.952909 188.954459 
L 157.206799 191.015172 
L 157.460689 178.904631 
L 157.714579 152.363107 
L 157.968469 189.648149 
L 158.222359 130.598112 
L 158.476249 195.252758 
L 158.730139 194.882984 
L 158.98403 186.94084 
L 159.23792 165.51373 
L 159.49181 180.368975 
L 159.7457 148.967351 
L 159.99959 145.030119 
L 160.25348 147.753041 
L 160.50737 135.165854 
L 161.01515 172.645876 
L 161.26904 134.376643 
L 161.522931 188.81017 
L 161.776821 133.547311 
L 162.030711 157.585961 
L 162.284601 157.496993 
L 162.538491 154.649973 
L 162.792381 154.842459 
L 163.046271 145.522308 
L 163.300161 223.396109 
L 163.554051 127.600868 
L 164.061832 155.156957 
L 164.315722 221.20871 
L 164.569612 151.935471 
L 164.823502 231.812012 
L 165.077392 144.182123 
L 165.585182 171.750217 
L 165.839072 151.308419 
L 166.092963 177.956292 
L 166.346853 235.313111 
L 167.108523 153.260387 
L 167.362413 186.910393 
L 167.616303 177.931437 
L 167.870193 218.152462 
L 168.124083 138.531562 
L 168.377973 162.4532 
L 168.631864 138.189495 
L 168.885754 175.659746 
L 169.393534 144.903151 
L 169.647424 226.823539 
L 169.901314 183.096799 
L 170.155204 176.871716 
L 170.409094 206.529774 
L 170.662984 188.166819 
L 170.916874 179.326263 
L 171.170765 160.306134 
L 171.424655 161.031238 
L 171.678545 178.140619 
L 171.932435 156.190431 
L 172.186325 188.635068 
L 172.440215 170.528863 
L 172.694105 161.675394 
L 172.947995 162.141995 
L 173.201885 161.048312 
L 173.455775 146.780868 
L 173.709666 186.674305 
L 174.217446 143.682352 
L 174.471336 150.773206 
L 174.725226 164.151448 
L 174.979116 141.139447 
L 175.233006 151.194289 
L 175.486896 173.91611 
L 175.740786 159.6975 
L 175.994677 164.672574 
L 176.248567 121.916568 
L 176.502457 134.164386 
L 176.756347 235.188993 
L 177.010237 149.32172 
L 177.264127 133.740412 
L 177.518017 155.368405 
L 177.771907 153.156576 
L 178.025797 196.182593 
L 178.279687 175.71593 
L 178.533578 132.270959 
L 178.787468 147.895296 
L 179.041358 134.237247 
L 179.295248 133.531569 
L 179.549148 167.186191 
L 179.803038 138.193356 
L 180.056928 131.366646 
L 180.310818 172.375582 
L 180.564708 134.106568 
L 180.818599 121.825663 
L 181.072489 139.34764 
L 181.326379 136.593023 
L 181.580269 131.372602 
L 181.834159 137.189627 
L 182.088049 119.978245 
L 182.341939 130.549476 
L 182.595829 146.818411 
L 182.849719 140.719385 
L 183.103609 140.763018 
L 183.3575 127.338867 
L 183.61139 143.718712 
L 183.86528 206.724927 
L 184.11917 122.12101 
L 184.37306 132.789598 
L 184.62695 161.377529 
L 184.88084 132.803552 
L 185.13473 148.206087 
L 185.38862 147.272841 
L 185.6425 128.888657 
L 185.896391 129.288456 
L 186.404171 121.118403 
L 186.658061 131.658482 
L 186.911951 127.634648 
L 187.165841 128.207404 
L 187.419731 203.658642 
L 187.673621 129.833427 
L 187.927511 130.344202 
L 188.181401 125.00717 
L 188.689182 149.121629 
L 188.943072 112.790219 
L 189.196962 121.369477 
L 189.450852 126.125293 
L 189.704752 128.76867 
L 189.958642 116.457712 
L 190.212532 126.34436 
L 190.466422 123.538056 
L 190.720313 139.950637 
L 190.974203 123.894263 
L 191.481983 136.727706 
L 191.735873 126.032811 
L 192.243653 142.162279 
L 192.497543 119.736709 
L 192.751433 137.61188 
L 193.005323 124.514528 
L 193.259214 154.655882 
L 193.513104 120.561769 
L 193.766994 126.260067 
L 194.020884 126.867322 
L 194.274774 134.820742 
L 194.528664 131.690478 
L 194.782554 120.094889 
L 195.290334 115.986604 
L 195.544225 128.036164 
L 195.798115 123.196437 
L 196.052005 115.256181 
L 196.305895 124.706503 
L 196.559785 126.254874 
L 196.813675 112.14169 
L 197.067565 122.791781 
L 197.321455 114.988007 
L 197.575345 115.917868 
L 197.829235 127.508607 
L 198.083126 115.953288 
L 198.337016 121.794344 
L 198.590906 141.691916 
L 198.844796 122.157366 
L 199.098686 134.489313 
L 199.352576 113.002296 
L 199.606466 128.969582 
L 199.860356 126.197611 
L 200.114246 114.178559 
L 200.368136 118.89579 
L 200.622027 126.120866 
L 200.875917 108.079606 
L 201.129807 124.417022 
L 201.383697 123.815075 
L 201.637587 110.604821 
L 201.891477 114.257251 
L 202.145367 122.471906 
L 202.399257 119.134062 
L 202.653147 113.723991 
L 202.907037 118.236669 
L 203.160928 111.371895 
L 203.414818 124.535677 
L 203.922598 116.234038 
L 204.176488 121.839055 
L 204.430378 119.984188 
L 204.684268 109.108485 
L 204.938158 133.897009 
L 205.192048 107.319187 
L 205.699829 131.86011 
L 205.953729 130.172182 
L 206.207619 101.587505 
L 206.461509 109.732646 
L 206.715399 112.562784 
L 206.969289 132.872108 
L 207.223179 110.073931 
L 207.73096 140.826155 
L 207.98485 118.898534 
L 208.23874 109.198904 
L 208.49263 121.683077 
L 208.74652 126.240289 
L 209.00041 128.455213 
L 209.2543 117.576866 
L 209.50819 126.567601 
L 209.76208 106.74589 
L 210.01597 120.194214 
L 210.523751 110.892897 
L 210.777641 109.283542 
L 211.031531 109.273896 
L 211.285421 117.817741 
L 211.539311 141.733928 
L 212.047091 111.888697 
L 212.300981 115.155243 
L 212.554871 115.756247 
L 212.808762 114.587147 
L 213.062652 116.123055 
L 213.316542 113.625046 
L 213.570432 116.394778 
L 214.078212 114.543162 
L 214.332102 129.806049 
L 214.585992 130.164668 
L 214.839882 118.481621 
L 215.347663 113.110065 
L 215.601553 135.307971 
L 215.855443 117.51242 
L 216.363223 111.163752 
L 216.617113 123.246155 
L 216.871003 129.356616 
L 217.124893 117.885573 
L 217.378783 123.154625 
L 217.632674 105.748638 
L 217.886564 115.560686 
L 218.140454 106.310043 
L 218.394344 124.933256 
L 218.648234 127.425765 
L 218.902124 141.10236 
L 219.156014 112.855352 
L 219.663794 120.907784 
L 219.917684 113.239535 
L 220.171575 109.550556 
L 220.679355 120.060965 
L 220.933245 101.494094 
L 221.187135 114.881135 
L 221.441025 110.878358 
L 221.694915 119.892013 
L 221.948805 118.734017 
L 222.202705 116.87496 
L 222.456596 132.35816 
L 222.964376 113.601996 
L 223.218266 112.978698 
L 223.472156 117.943304 
L 223.726046 125.162794 
L 223.979936 122.536277 
L 224.233826 122.780353 
L 224.487716 119.967552 
L 224.741606 123.968112 
L 225.249387 117.851411 
L 225.503277 110.15529 
L 226.011057 125.124387 
L 226.264947 120.819 
L 226.518837 113.343544 
L 226.772727 125.337661 
L 227.026617 127.278022 
L 227.280507 114.831896 
L 227.534398 118.874887 
L 227.788288 131.137795 
L 228.296068 118.515985 
L 228.549958 150.93247 
L 228.803848 116.636807 
L 229.057738 107.693781 
L 229.311628 133.458562 
L 229.819409 108.769199 
L 230.073299 119.928351 
L 230.581079 111.009786 
L 231.088859 122.282391 
L 231.342749 114.043729 
L 231.596639 124.918276 
L 231.850529 116.879659 
L 232.104419 124.292935 
L 232.35831 127.698398 
L 232.86609 120.738335 
L 233.11998 136.154601 
L 233.37387 119.4881 
L 233.62776 119.345136 
L 233.88165 128.321747 
L 234.13554 116.852392 
L 234.38943 130.756286 
L 234.64332 128.612064 
L 234.897211 139.359912 
L 235.151101 115.862322 
L 235.404991 162.814523 
L 235.658881 129.925199 
L 235.912771 120.340593 
L 236.166661 138.012015 
L 236.420551 125.764323 
L 236.674441 138.345972 
L 236.928331 124.244895 
L 237.182221 135.410294 
L 237.436112 119.327193 
L 237.690002 125.418758 
L 237.943892 117.590707 
L 238.197782 128.071528 
L 238.451672 154.747525 
L 238.705562 111.691085 
L 238.959452 137.228595 
L 239.213342 128.192211 
L 239.467232 126.085593 
L 239.721123 119.02153 
L 239.975013 118.052058 
L 240.228903 140.392078 
L 240.482793 135.836297 
L 240.736683 137.896808 
L 240.990573 153.08035 
L 241.244463 141.227589 
L 241.498353 134.984164 
L 241.752243 131.906876 
L 242.006133 137.483947 
L 242.260024 136.123016 
L 242.767814 124.557644 
L 243.021704 146.118915 
L 243.275594 131.896071 
L 243.529484 173.359389 
L 243.783374 138.819337 
L 244.037264 147.606118 
L 244.291154 135.32377 
L 244.545045 143.576266 
L 244.798935 128.076727 
L 245.052825 131.635553 
L 245.306715 144.83482 
L 245.560605 146.284484 
L 245.814495 126.442086 
L 246.068385 120.869704 
L 246.322275 253.379793 
L 246.576165 150.052969 
L 246.830055 130.611499 
L 247.083946 154.614946 
L 247.337836 126.037611 
L 247.591726 124.437823 
L 247.845616 179.607406 
L 248.099506 177.784957 
L 248.353396 156.701874 
L 248.607286 147.535142 
L 248.861176 171.893362 
L 249.115066 147.035676 
L 249.368956 147.825098 
L 249.622847 173.75621 
L 249.876737 180.167785 
L 250.130627 221.883662 
L 250.384517 156.962808 
L 250.638417 177.64917 
L 250.892307 178.07538 
L 251.146197 183.235213 
L 251.400087 138.870677 
L 251.653977 159.875866 
L 251.907868 163.612042 
L 252.161758 208.994311 
L 252.669538 148.577598 
L 252.923428 132.454914 
L 253.177318 148.058425 
L 253.685098 200.174398 
L 254.192879 157.724856 
L 254.446769 173.838951 
L 254.700659 173.94865 
L 254.954549 166.266668 
L 255.208439 137.879886 
L 255.462329 150.259903 
L 255.716219 201.420816 
L 255.970109 172.424854 
L 256.223999 229.053464 
L 256.477889 226.052423 
L 256.73178 123.743777 
L 256.98567 172.841316 
L 257.23956 162.842462 
L 257.49345 269.919813 
L 257.74734 267.035002 
L 258.00123 148.715581 
L 258.25512 156.614163 
L 258.50901 142.266655 
L 258.7629 160.476979 
L 259.01679 214.962166 
L 259.270681 307.8 
L 259.524571 136.834786 
L 259.778461 131.536097 
L 260.032351 123.243873 
L 260.286241 139.039218 
L 260.540131 165.696185 
L 260.794021 157.57944 
L 261.047911 126.064351 
L 261.301801 128.274127 
L 261.555691 138.40138 
L 261.809582 130.869211 
L 262.063472 118.931752 
L 262.317362 139.609796 
L 262.571252 126.450599 
L 262.825142 128.207949 
L 263.079032 145.732022 
L 263.332922 137.834578 
L 263.586812 118.172174 
L 263.840702 129.590363 
L 264.094593 128.520448 
L 264.348483 122.715376 
L 264.602373 135.797329 
L 265.110153 118.509447 
L 265.364043 119.025338 
L 265.617933 117.025377 
L 265.871823 125.50096 
L 266.125713 110.639399 
L 266.379603 125.497116 
L 266.887384 119.270659 
L 267.141274 120.357002 
L 267.395164 122.308043 
L 267.902944 115.511132 
L 268.156834 107.754921 
L 268.410724 119.630211 
L 269.172405 107.696733 
L 269.426285 113.852188 
L 269.680185 105.650932 
L 269.934065 118.839342 
L 270.187965 100.635003 
L 270.441845 116.308215 
L 270.695745 106.670597 
L 270.949625 108.826979 
L 271.203525 114.929024 
L 271.457405 104.297518 
L 271.711306 104.185766 
L 271.965186 113.144192 
L 272.219086 104.253698 
L 272.472966 109.671815 
L 272.980746 100.219794 
L 273.234646 99.144748 
L 273.488526 108.193857 
L 273.742426 97.754683 
L 273.996307 99.148288 
L 274.504087 105.795804 
L 274.757987 106.4991 
L 275.011867 96.463625 
L 275.265767 108.628284 
L 275.519647 95.847448 
L 276.027427 102.341907 
L 276.281328 93.90857 
L 276.535208 93.573097 
L 276.789108 95.954871 
L 277.296888 92.839598 
L 277.550768 89.74844 
L 277.804668 93.182654 
L 278.058548 93.554385 
L 278.312448 96.763761 
L 278.820229 92.776441 
L 279.074109 88.28329 
L 279.328009 93.650205 
L 279.581889 92.897772 
L 279.835789 85.03252 
L 280.089669 90.978069 
L 280.343569 91.938914 
L 280.597449 89.026496 
L 280.851349 93.714215 
L 281.10525 89.463066 
L 281.61303 87.03541 
L 281.86693 87.891561 
L 282.12081 86.693206 
L 282.37471 86.053044 
L 282.62859 85.760109 
L 282.88249 89.814288 
L 283.13637 89.236667 
L 283.390271 89.314556 
L 283.644151 88.188148 
L 283.898051 85.854862 
L 284.151931 89.00758 
L 284.659711 83.005686 
L 284.913611 85.819712 
L 285.167491 85.125058 
L 285.421391 82.274192 
L 285.675271 85.703414 
L 286.183052 82.479761 
L 286.436952 79.189532 
L 286.944732 82.299492 
L 287.198612 81.259139 
L 287.452512 83.058772 
L 287.706392 81.492582 
L 287.960292 83.442852 
L 288.214172 78.575513 
L 288.468073 80.740603 
L 288.721953 75.86027 
L 288.975853 82.238676 
L 289.229733 78.331023 
L 289.483633 78.276734 
L 289.737513 74.824121 
L 289.991413 76.124827 
L 290.245293 78.753855 
L 290.499193 77.47207 
L 291.006974 72.694774 
L 291.260854 73.784883 
L 291.514754 76.947668 
L 291.768634 75.335703 
L 292.276414 75.856418 
L 292.530314 74.197716 
L 292.784194 74.204614 
L 293.038094 71.35244 
L 293.291974 74.224061 
L 293.545875 73.32427 
L 293.799755 75.405929 
L 294.053655 70.539886 
L 294.307535 70.679237 
L 294.561435 72.022078 
L 294.815315 69.116268 
L 295.069215 73.266838 
L 295.576995 72.462766 
L 295.830875 70.876326 
L 296.084776 70.7041 
L 296.338656 71.293396 
L 296.592556 71.289628 
L 296.846436 73.189389 
L 297.100336 70.371901 
L 297.354216 69.805372 
L 297.608116 71.085123 
L 297.861996 70.98169 
L 298.115896 70.102043 
L 298.369777 67.586893 
L 298.623677 67.777225 
L 299.385337 66.833651 
L 300.147017 63.419401 
L 300.400897 66.254644 
L 300.654798 63.948545 
L 300.908678 66.552477 
L 301.162578 63.426363 
L 301.416458 64.213905 
L 301.670358 65.715518 
L 302.432018 64.37908 
L 302.685918 65.178846 
L 302.939798 63.568989 
L 303.193699 63.676225 
L 303.447579 63.150588 
L 303.701479 61.949016 
L 303.955359 62.773929 
L 304.209259 61.615326 
L 304.463139 63.260262 
L 304.970919 61.303709 
L 305.224819 61.370002 
L 305.478699 61.705578 
L 305.7326 61.673 
L 305.98648 62.380434 
L 306.24038 62.137373 
L 306.49426 60.396233 
L 306.74816 61.076805 
L 307.00204 58.800995 
L 307.25594 58.593476 
L 307.76372 61.575613 
L 308.0176 58.906648 
L 308.271501 60.535658 
L 308.525381 58.763012 
L 308.779281 58.331985 
L 309.033161 59.524161 
L 309.287061 58.765055 
L 309.540941 57.434551 
L 309.794841 57.900302 
L 310.048721 55.8 
L 310.302621 57.209974 
L 310.556501 56.310772 
L 310.810402 56.434132 
L 311.064282 56.709212 
L 311.318182 56.286494 
L 311.318182 56.286494 
" clip-path="url(#p5885b4d540)" style="fill: none; stroke: #348abd; stroke-width: 1.5; stroke-linecap: square"/>
   </g>
   <g id="patch_3">
    <path d="M 45 320.4 
L 45 43.2 
" style="fill: none; stroke: #ffffff; stroke-linejoin: miter; stroke-linecap: square"/>
   </g>
   <g id="patch_4">
    <path d="M 324 320.4 
L 324 43.2 
" style="fill: none; stroke: #ffffff; stroke-linejoin: miter; stroke-linecap: square"/>
   </g>
   <g id="patch_5">
    <path d="M 45 320.4 
L 324 320.4 
" style="fill: none; stroke: #ffffff; stroke-linejoin: miter; stroke-linecap: square"/>
   </g>
   <g id="patch_6">
    <path d="M 45 43.2 
L 324 43.2 
" style="fill: none; stroke: #ffffff; stroke-linejoin: miter; stroke-linecap: square"/>
   </g>
   <g id="text_13">
    <!-- Prediction Error -->
    <g transform="translate(128.90025 37.2)scale(0.144 -0.144)">
     <defs>
      <path id="DejaVuSans-50" d="M 1259 4147 
L 1259 2394 
L 2053 2394 
Q 2494 2394 2734 2622 
Q 2975 2850 2975 3272 
Q 2975 3691 2734 3919 
Q 2494 4147 2053 4147 
L 1259 4147 
z
M 628 4666 
L 2053 4666 
Q 2838 4666 3239 4311 
Q 3641 3956 3641 3272 
Q 3641 2581 3239 2228 
Q 2838 1875 2053 1875 
L 1259 1875 
L 1259 0 
L 628 0 
L 628 4666 
z
" transform="scale(0.015625)"/>
      <path id="DejaVuSans-72" d="M 2631 2963 
Q 2534 3019 2420 3045 
Q 2306 3072 2169 3072 
Q 1681 3072 1420 2755 
Q 1159 2438 1159 1844 
L 1159 0 
L 581 0 
L 581 3500 
L 1159 3500 
L 1159 2956 
Q 1341 3275 1631 3429 
Q 1922 3584 2338 3584 
Q 2397 3584 2469 3576 
Q 2541 3569 2628 3553 
L 2631 2963 
z
" transform="scale(0.015625)"/>
      <path id="DejaVuSans-65" d="M 3597 1894 
L 3597 1613 
L 953 1613 
Q 991 1019 1311 708 
Q 1631 397 2203 397 
Q 2534 397 2845 478 
Q 3156 559 3463 722 
L 3463 178 
Q 3153 47 2828 -22 
Q 2503 -91 2169 -91 
Q 1331 -91 842 396 
Q 353 884 353 1716 
Q 353 2575 817 3079 
Q 1281 3584 2069 3584 
Q 2775 3584 3186 3129 
Q 3597 2675 3597 1894 
z
M 3022 2063 
Q 3016 2534 2758 2815 
Q 2500 3097 2075 3097 
Q 1594 3097 1305 2825 
Q 1016 2553 972 2059 
L 3022 2063 
z
" transform="scale(0.015625)"/>
      <path id="DejaVuSans-64" d="M 2906 2969 
L 2906 4863 
L 3481 4863 
L 3481 0 
L 2906 0 
L 2906 525 
Q 2725 213 2448 61 
Q 2172 -91 1784 -91 
Q 1150 -91 751 415 
Q 353 922 353 1747 
Q 353 2572 751 3078 
Q 1150 3584 1784 3584 
Q 2172 3584 2448 3432 
Q 2725 3281 2906 2969 
z
M 947 1747 
Q 947 1113 1208 752 
Q 1469 391 1925 391 
Q 2381 391 2643 752 
Q 2906 1113 2906 1747 
Q 2906 2381 2643 2742 
Q 2381 3103 1925 3103 
Q 1469 3103 1208 2742 
Q 947 2381 947 1747 
z
" transform="scale(0.015625)"/>
      <path id="DejaVuSans-69" d="M 603 3500 
L 1178 3500 
L 1178 0 
L 603 0 
L 603 3500 
z
M 603 4863 
L 1178 4863 
L 1178 4134 
L 603 4134 
L 603 4863 
z
" transform="scale(0.015625)"/>
      <path id="DejaVuSans-63" d="M 3122 3366 
L 3122 2828 
Q 2878 2963 2633 3030 
Q 2388 3097 2138 3097 
Q 1578 3097 1268 2742 
Q 959 2388 959 1747 
Q 959 1106 1268 751 
Q 1578 397 2138 397 
Q 2388 397 2633 464 
Q 2878 531 3122 666 
L 3122 134 
Q 2881 22 2623 -34 
Q 2366 -91 2075 -91 
Q 1284 -91 818 406 
Q 353 903 353 1747 
Q 353 2603 823 3093 
Q 1294 3584 2113 3584 
Q 2378 3584 2631 3529 
Q 2884 3475 3122 3366 
z
" transform="scale(0.015625)"/>
      <path id="DejaVuSans-74" d="M 1172 4494 
L 1172 3500 
L 2356 3500 
L 2356 3053 
L 1172 3053 
L 1172 1153 
Q 1172 725 1289 603 
Q 1406 481 1766 481 
L 2356 481 
L 2356 0 
L 1766 0 
Q 1100 0 847 248 
Q 594 497 594 1153 
L 594 3053 
L 172 3053 
L 172 3500 
L 594 3500 
L 594 4494 
L 1172 4494 
z
" transform="scale(0.015625)"/>
      <path id="DejaVuSans-6f" d="M 1959 3097 
Q 1497 3097 1228 2736 
Q 959 2375 959 1747 
Q 959 1119 1226 758 
Q 1494 397 1959 397 
Q 2419 397 2687 759 
Q 2956 1122 2956 1747 
Q 2956 2369 2687 2733 
Q 2419 3097 1959 3097 
z
M 1959 3584 
Q 2709 3584 3137 3096 
Q 3566 2609 3566 1747 
Q 3566 888 3137 398 
Q 2709 -91 1959 -91 
Q 1206 -91 779 398 
Q 353 888 353 1747 
Q 353 2609 779 3096 
Q 1206 3584 1959 3584 
z
" transform="scale(0.015625)"/>
      <path id="DejaVuSans-6e" d="M 3513 2113 
L 3513 0 
L 2938 0 
L 2938 2094 
Q 2938 2591 2744 2837 
Q 2550 3084 2163 3084 
Q 1697 3084 1428 2787 
Q 1159 2491 1159 1978 
L 1159 0 
L 581 0 
L 581 3500 
L 1159 3500 
L 1159 2956 
Q 1366 3272 1645 3428 
Q 1925 3584 2291 3584 
Q 2894 3584 3203 3211 
Q 3513 2838 3513 2113 
z
" transform="scale(0.015625)"/>
      <path id="DejaVuSans-20" transform="scale(0.015625)"/>
      <path id="DejaVuSans-45" d="M 628 4666 
L 3578 4666 
L 3578 4134 
L 1259 4134 
L 1259 2753 
L 3481 2753 
L 3481 2222 
L 1259 2222 
L 1259 531 
L 3634 531 
L 3634 0 
L 628 0 
L 628 4666 
z
" transform="scale(0.015625)"/>
     </defs>
     <use xlink:href="#DejaVuSans-50"/>
     <use xlink:href="#DejaVuSans-72" x="58.552734"/>
     <use xlink:href="#DejaVuSans-65" x="97.416016"/>
     <use xlink:href="#DejaVuSans-64" x="158.939453"/>
     <use xlink:href="#DejaVuSans-69" x="222.416016"/>
     <use xlink:href="#DejaVuSans-63" x="250.199219"/>
     <use xlink:href="#DejaVuSans-74" x="305.179688"/>
     <use xlink:href="#DejaVuSans-69" x="344.388672"/>
     <use xlink:href="#DejaVuSans-6f" x="372.171875"/>
     <use xlink:href="#DejaVuSans-6e" x="433.353516"/>
     <use xlink:href="#DejaVuSans-20" x="496.732422"/>
     <use xlink:href="#DejaVuSans-45" x="528.519531"/>
     <use xlink:href="#DejaVuSans-72" x="591.703125"/>
     <use xlink:href="#DejaVuSans-72" x="631.066406"/>
     <use xlink:href="#DejaVuSans-6f" x="669.929688"/>
     <use xlink:href="#DejaVuSans-72" x="731.111328"/>
    </g>
   </g>
   <g id="legend_1">
    <g id="patch_7">
     <path d="M 52 80.55625 
L 134.657813 80.55625 
Q 136.657813 80.55625 136.657813 78.55625 
L 136.657813 50.2 
Q 136.657813 48.2 134.657813 48.2 
L 52 48.2 
Q 50 48.2 50 50.2 
L 50 78.55625 
Q 50 80.55625 52 80.55625 
z
" style="fill: #e5e5e5; opacity: 0.8; stroke: #cccccc; stroke-width: 0.5; stroke-linejoin: miter"/>
    </g>
    <g id="line2d_60">
     <path d="M 54 56.298437 
L 64 56.298437 
L 74 56.298437 
" style="fill: none; stroke: #e24a33; stroke-width: 1.5; stroke-linecap: square"/>
    </g>
    <g id="text_14">
     <!-- train error -->
     <g transform="translate(82 59.798437)scale(0.1 -0.1)">
      <defs>
       <path id="DejaVuSans-61" d="M 2194 1759 
Q 1497 1759 1228 1600 
Q 959 1441 959 1056 
Q 959 750 1161 570 
Q 1363 391 1709 391 
Q 2188 391 2477 730 
Q 2766 1069 2766 1631 
L 2766 1759 
L 2194 1759 
z
M 3341 1997 
L 3341 0 
L 2766 0 
L 2766 531 
Q 2569 213 2275 61 
Q 1981 -91 1556 -91 
Q 1019 -91 701 211 
Q 384 513 384 1019 
Q 384 1609 779 1909 
Q 1175 2209 1959 2209 
L 2766 2209 
L 2766 2266 
Q 2766 2663 2505 2880 
Q 2244 3097 1772 3097 
Q 1472 3097 1187 3025 
Q 903 2953 641 2809 
L 641 3341 
Q 956 3463 1253 3523 
Q 1550 3584 1831 3584 
Q 2591 3584 2966 3190 
Q 3341 2797 3341 1997 
z
" transform="scale(0.015625)"/>
      </defs>
      <use xlink:href="#DejaVuSans-74"/>
      <use xlink:href="#DejaVuSans-72" x="39.208984"/>
      <use xlink:href="#DejaVuSans-61" x="80.322266"/>
      <use xlink:href="#DejaVuSans-69" x="141.601562"/>
      <use xlink:href="#DejaVuSans-6e" x="169.384766"/>
      <use xlink:href="#DejaVuSans-20" x="232.763672"/>
      <use xlink:href="#DejaVuSans-65" x="264.550781"/>
      <use xlink:href="#DejaVuSans-72" x="326.074219"/>
      <use xlink:href="#DejaVuSans-72" x="365.4375"/>
      <use xlink:href="#DejaVuSans-6f" x="404.300781"/>
      <use xlink:href="#DejaVuSans-72" x="465.482422"/>
     </g>
    </g>
    <g id="line2d_61">
     <path d="M 54 70.976562 
L 64 70.976562 
L 74 70.976562 
" style="fill: none; stroke: #348abd; stroke-width: 1.5; stroke-linecap: square"/>
    </g>
    <g id="text_15">
     <!-- test error -->
     <g transform="translate(82 74.476562)scale(0.1 -0.1)">
      <defs>
       <path id="DejaVuSans-73" d="M 2834 3397 
L 2834 2853 
Q 2591 2978 2328 3040 
Q 2066 3103 1784 3103 
Q 1356 3103 1142 2972 
Q 928 2841 928 2578 
Q 928 2378 1081 2264 
Q 1234 2150 1697 2047 
L 1894 2003 
Q 2506 1872 2764 1633 
Q 3022 1394 3022 966 
Q 3022 478 2636 193 
Q 2250 -91 1575 -91 
Q 1294 -91 989 -36 
Q 684 19 347 128 
L 347 722 
Q 666 556 975 473 
Q 1284 391 1588 391 
Q 1994 391 2212 530 
Q 2431 669 2431 922 
Q 2431 1156 2273 1281 
Q 2116 1406 1581 1522 
L 1381 1569 
Q 847 1681 609 1914 
Q 372 2147 372 2553 
Q 372 3047 722 3315 
Q 1072 3584 1716 3584 
Q 2034 3584 2315 3537 
Q 2597 3491 2834 3397 
z
" transform="scale(0.015625)"/>
      </defs>
      <use xlink:href="#DejaVuSans-74"/>
      <use xlink:href="#DejaVuSans-65" x="39.208984"/>
      <use xlink:href="#DejaVuSans-73" x="100.732422"/>
      <use xlink:href="#DejaVuSans-74" x="152.832031"/>
      <use xlink:href="#DejaVuSans-20" x="192.041016"/>
      <use xlink:href="#DejaVuSans-65" x="223.828125"/>
      <use xlink:href="#DejaVuSans-72" x="285.351562"/>
      <use xlink:href="#DejaVuSans-72" x="324.714844"/>
      <use xlink:href="#DejaVuSans-6f" x="363.578125"/>
      <use xlink:href="#DejaVuSans-72" x="424.759766"/>
     </g>
    </g>
   </g>
  </g>
 </g>
 <defs>
  <clipPath id="p5885b4d540">
   <rect x="45" y="43.2" width="279" height="277.2"/>
  </clipPath>
 </defs>
</svg>
