<?xml version="1.0" encoding="utf-8" standalone="no"?>
<!DOCTYPE svg PUBLIC "-//W3C//DTD SVG 1.1//EN"
  "http://www.w3.org/Graphics/SVG/1.1/DTD/svg11.dtd">
<svg xmlns:xlink="http://www.w3.org/1999/xlink" width="360pt" height="360pt" viewBox="0 0 360 360" xmlns="http://www.w3.org/2000/svg" version="1.1">
 <metadata>
  <rdf:RDF xmlns:dc="http://purl.org/dc/elements/1.1/" xmlns:cc="http://creativecommons.org/ns#" xmlns:rdf="http://www.w3.org/1999/02/22-rdf-syntax-ns#">
   <cc:Work>
    <dc:type rdf:resource="http://purl.org/dc/dcmitype/StillImage"/>
    <dc:date>2022-11-15T12:51:57.838280</dc:date>
    <dc:format>image/svg+xml</dc:format>
    <dc:creator>
     <cc:Agent>
      <dc:title>Matplotlib v3.5.3, https://matplotlib.org/</dc:title>
     </cc:Agent>
    </dc:creator>
   </cc:Work>
  </rdf:RDF>
 </metadata>
 <defs>
  <style type="text/css">*{stroke-linejoin: round; stroke-linecap: butt}</style>
 </defs>
 <g id="figure_1">
  <g id="patch_1">
   <path d="M 0 360 
L 360 360 
L 360 0 
L 0 0 
z
" style="fill: #ffffff"/>
  </g>
  <g id="axes_1">
   <g id="patch_2">
    <path d="M 45 320.4 
L 324 320.4 
L 324 43.2 
L 45 43.2 
z
" style="fill: #ffffff"/>
   </g>
   <g id="matplotlib.axis_1">
    <g id="xtick_1">
     <g id="line2d_1">
      <defs>
       <path id="mdcd57869aa" d="M 0 0 
L 0 3.5 
" style="stroke: #000000; stroke-width: 0.8"/>
      </defs>
      <g>
       <use xlink:href="#mdcd57869aa" x="57.681818" y="320.4" style="stroke: #000000; stroke-width: 0.8"/>
      </g>
     </g>
     <g id="text_1">
      <!-- −3 -->
      <g transform="translate(50.310724 334.998438)scale(0.1 -0.1)">
       <defs>
        <path id="DejaVuSans-2212" d="M 678 2272 
L 4684 2272 
L 4684 1741 
L 678 1741 
L 678 2272 
z
" transform="scale(0.015625)"/>
        <path id="DejaVuSans-33" d="M 2597 2516 
Q 3050 2419 3304 2112 
Q 3559 1806 3559 1356 
Q 3559 666 3084 287 
Q 2609 -91 1734 -91 
Q 1441 -91 1130 -33 
Q 819 25 488 141 
L 488 750 
Q 750 597 1062 519 
Q 1375 441 1716 441 
Q 2309 441 2620 675 
Q 2931 909 2931 1356 
Q 2931 1769 2642 2001 
Q 2353 2234 1838 2234 
L 1294 2234 
L 1294 2753 
L 1863 2753 
Q 2328 2753 2575 2939 
Q 2822 3125 2822 3475 
Q 2822 3834 2567 4026 
Q 2313 4219 1838 4219 
Q 1578 4219 1281 4162 
Q 984 4106 628 3988 
L 628 4550 
Q 988 4650 1302 4700 
Q 1616 4750 1894 4750 
Q 2613 4750 3031 4423 
Q 3450 4097 3450 3541 
Q 3450 3153 3228 2886 
Q 3006 2619 2597 2516 
z
" transform="scale(0.015625)"/>
       </defs>
       <use xlink:href="#DejaVuSans-2212"/>
       <use xlink:href="#DejaVuSans-33" x="83.789062"/>
      </g>
     </g>
    </g>
    <g id="xtick_2">
     <g id="line2d_2">
      <g>
       <use xlink:href="#mdcd57869aa" x="99.954545" y="320.4" style="stroke: #000000; stroke-width: 0.8"/>
      </g>
     </g>
     <g id="text_2">
      <!-- −2 -->
      <g transform="translate(92.583452 334.998438)scale(0.1 -0.1)">
       <defs>
        <path id="DejaVuSans-32" d="M 1228 531 
L 3431 531 
L 3431 0 
L 469 0 
L 469 531 
Q 828 903 1448 1529 
Q 2069 2156 2228 2338 
Q 2531 2678 2651 2914 
Q 2772 3150 2772 3378 
Q 2772 3750 2511 3984 
Q 2250 4219 1831 4219 
Q 1534 4219 1204 4116 
Q 875 4013 500 3803 
L 500 4441 
Q 881 4594 1212 4672 
Q 1544 4750 1819 4750 
Q 2544 4750 2975 4387 
Q 3406 4025 3406 3419 
Q 3406 3131 3298 2873 
Q 3191 2616 2906 2266 
Q 2828 2175 2409 1742 
Q 1991 1309 1228 531 
z
" transform="scale(0.015625)"/>
       </defs>
       <use xlink:href="#DejaVuSans-2212"/>
       <use xlink:href="#DejaVuSans-32" x="83.789062"/>
      </g>
     </g>
    </g>
    <g id="xtick_3">
     <g id="line2d_3">
      <g>
       <use xlink:href="#mdcd57869aa" x="142.227273" y="320.4" style="stroke: #000000; stroke-width: 0.8"/>
      </g>
     </g>
     <g id="text_3">
      <!-- −1 -->
      <g transform="translate(134.856179 334.998438)scale(0.1 -0.1)">
       <defs>
        <path id="DejaVuSans-31" d="M 794 531 
L 1825 531 
L 1825 4091 
L 703 3866 
L 703 4441 
L 1819 4666 
L 2450 4666 
L 2450 531 
L 3481 531 
L 3481 0 
L 794 0 
L 794 531 
z
" transform="scale(0.015625)"/>
       </defs>
       <use xlink:href="#DejaVuSans-2212"/>
       <use xlink:href="#DejaVuSans-31" x="83.789062"/>
      </g>
     </g>
    </g>
    <g id="xtick_4">
     <g id="line2d_4">
      <g>
       <use xlink:href="#mdcd57869aa" x="184.5" y="320.4" style="stroke: #000000; stroke-width: 0.8"/>
      </g>
     </g>
     <g id="text_4">
      <!-- 0 -->
      <g transform="translate(181.31875 334.998438)scale(0.1 -0.1)">
       <defs>
        <path id="DejaVuSans-30" d="M 2034 4250 
Q 1547 4250 1301 3770 
Q 1056 3291 1056 2328 
Q 1056 1369 1301 889 
Q 1547 409 2034 409 
Q 2525 409 2770 889 
Q 3016 1369 3016 2328 
Q 3016 3291 2770 3770 
Q 2525 4250 2034 4250 
z
M 2034 4750 
Q 2819 4750 3233 4129 
Q 3647 3509 3647 2328 
Q 3647 1150 3233 529 
Q 2819 -91 2034 -91 
Q 1250 -91 836 529 
Q 422 1150 422 2328 
Q 422 3509 836 4129 
Q 1250 4750 2034 4750 
z
" transform="scale(0.015625)"/>
       </defs>
       <use xlink:href="#DejaVuSans-30"/>
      </g>
     </g>
    </g>
    <g id="xtick_5">
     <g id="line2d_5">
      <g>
       <use xlink:href="#mdcd57869aa" x="226.772727" y="320.4" style="stroke: #000000; stroke-width: 0.8"/>
      </g>
     </g>
     <g id="text_5">
      <!-- 1 -->
      <g transform="translate(223.591477 334.998438)scale(0.1 -0.1)">
       <use xlink:href="#DejaVuSans-31"/>
      </g>
     </g>
    </g>
    <g id="xtick_6">
     <g id="line2d_6">
      <g>
       <use xlink:href="#mdcd57869aa" x="269.045455" y="320.4" style="stroke: #000000; stroke-width: 0.8"/>
      </g>
     </g>
     <g id="text_6">
      <!-- 2 -->
      <g transform="translate(265.864205 334.998438)scale(0.1 -0.1)">
       <use xlink:href="#DejaVuSans-32"/>
      </g>
     </g>
    </g>
    <g id="xtick_7">
     <g id="line2d_7">
      <g>
       <use xlink:href="#mdcd57869aa" x="311.318182" y="320.4" style="stroke: #000000; stroke-width: 0.8"/>
      </g>
     </g>
     <g id="text_7">
      <!-- 3 -->
      <g transform="translate(308.136932 334.998438)scale(0.1 -0.1)">
       <use xlink:href="#DejaVuSans-33"/>
      </g>
     </g>
    </g>
   </g>
   <g id="matplotlib.axis_2">
    <g id="ytick_1">
     <g id="line2d_8">
      <defs>
       <path id="m94a3f10882" d="M 0 0 
L -3.5 0 
" style="stroke: #000000; stroke-width: 0.8"/>
      </defs>
      <g>
       <use xlink:href="#m94a3f10882" x="45" y="308.525925" style="stroke: #000000; stroke-width: 0.8"/>
      </g>
     </g>
     <g id="text_8">
      <!-- −0.04 -->
      <g transform="translate(7.354687 312.325144)scale(0.1 -0.1)">
       <defs>
        <path id="DejaVuSans-2e" d="M 684 794 
L 1344 794 
L 1344 0 
L 684 0 
L 684 794 
z
" transform="scale(0.015625)"/>
        <path id="DejaVuSans-34" d="M 2419 4116 
L 825 1625 
L 2419 1625 
L 2419 4116 
z
M 2253 4666 
L 3047 4666 
L 3047 1625 
L 3713 1625 
L 3713 1100 
L 3047 1100 
L 3047 0 
L 2419 0 
L 2419 1100 
L 313 1100 
L 313 1709 
L 2253 4666 
z
" transform="scale(0.015625)"/>
       </defs>
       <use xlink:href="#DejaVuSans-2212"/>
       <use xlink:href="#DejaVuSans-30" x="83.789062"/>
       <use xlink:href="#DejaVuSans-2e" x="147.412109"/>
       <use xlink:href="#DejaVuSans-30" x="179.199219"/>
       <use xlink:href="#DejaVuSans-34" x="242.822266"/>
      </g>
     </g>
    </g>
    <g id="ytick_2">
     <g id="line2d_9">
      <g>
       <use xlink:href="#m94a3f10882" x="45" y="250.428857" style="stroke: #000000; stroke-width: 0.8"/>
      </g>
     </g>
     <g id="text_9">
      <!-- −0.02 -->
      <g transform="translate(7.354687 254.228076)scale(0.1 -0.1)">
       <use xlink:href="#DejaVuSans-2212"/>
       <use xlink:href="#DejaVuSans-30" x="83.789062"/>
       <use xlink:href="#DejaVuSans-2e" x="147.412109"/>
       <use xlink:href="#DejaVuSans-30" x="179.199219"/>
       <use xlink:href="#DejaVuSans-32" x="242.822266"/>
      </g>
     </g>
    </g>
    <g id="ytick_3">
     <g id="line2d_10">
      <g>
       <use xlink:href="#m94a3f10882" x="45" y="192.331789" style="stroke: #000000; stroke-width: 0.8"/>
      </g>
     </g>
     <g id="text_10">
      <!-- 0.00 -->
      <g transform="translate(15.734375 196.131008)scale(0.1 -0.1)">
       <use xlink:href="#DejaVuSans-30"/>
       <use xlink:href="#DejaVuSans-2e" x="63.623047"/>
       <use xlink:href="#DejaVuSans-30" x="95.410156"/>
       <use xlink:href="#DejaVuSans-30" x="159.033203"/>
      </g>
     </g>
    </g>
    <g id="ytick_4">
     <g id="line2d_11">
      <g>
       <use xlink:href="#m94a3f10882" x="45" y="134.234721" style="stroke: #000000; stroke-width: 0.8"/>
      </g>
     </g>
     <g id="text_11">
      <!-- 0.02 -->
      <g transform="translate(15.734375 138.03394)scale(0.1 -0.1)">
       <use xlink:href="#DejaVuSans-30"/>
       <use xlink:href="#DejaVuSans-2e" x="63.623047"/>
       <use xlink:href="#DejaVuSans-30" x="95.410156"/>
       <use xlink:href="#DejaVuSans-32" x="159.033203"/>
      </g>
     </g>
    </g>
    <g id="ytick_5">
     <g id="line2d_12">
      <g>
       <use xlink:href="#m94a3f10882" x="45" y="76.137653" style="stroke: #000000; stroke-width: 0.8"/>
      </g>
     </g>
     <g id="text_12">
      <!-- 0.04 -->
      <g transform="translate(15.734375 79.936872)scale(0.1 -0.1)">
       <use xlink:href="#DejaVuSans-30"/>
       <use xlink:href="#DejaVuSans-2e" x="63.623047"/>
       <use xlink:href="#DejaVuSans-30" x="95.410156"/>
       <use xlink:href="#DejaVuSans-34" x="159.033203"/>
      </g>
     </g>
    </g>
   </g>
   <g id="line2d_13">
    <path d="M 57.681818 55.8 
L 83.109026 71.255692 
L 83.744704 70.087463 
L 84.380382 71.443517 
L 85.016069 88.330061 
L 86.923103 126.140837 
L 87.55879 135.95817 
L 88.194468 142.988597 
L 88.830146 147.034597 
L 89.465823 147.779526 
L 112.350311 160.728215 
L 112.985988 157.710129 
L 129.513669 162.938071 
L 130.149351 163.747894 
L 130.785029 173.764341 
L 171.468565 181.527387 
L 172.104245 178.914766 
L 187.99624 181.690331 
L 188.631919 185.239238 
L 229.315443 182.967225 
L 229.951121 184.782384 
L 238.850644 184.906146 
L 239.486326 179.145341 
L 249.021527 177.102187 
L 249.65721 186.842436 
L 257.285372 184.427476 
L 258.556732 184.485098 
L 264.277852 184.447214 
L 264.913534 195.455908 
L 311.318182 307.8 
L 311.318182 307.8 
" clip-path="url(#p3e7e0af58b)" style="fill: none; stroke: #1f77b4; stroke-width: 1.5; stroke-linecap: square"/>
   </g>
   <g id="line2d_14">
    <path d="M 57.681818 169.065835 
L 63.402937 167.530544 
L 81.201983 162.811642 
L 83.109026 162.303849 
L 83.744704 160.581563 
L 84.380382 156.186507 
L 85.016069 148.306711 
L 85.651747 157.669163 
L 86.923103 181.432937 
L 87.55879 190.618645 
L 88.194468 197.017448 
L 88.830146 200.442904 
L 89.465823 200.550668 
L 112.350311 190.865443 
L 112.985988 212.180147 
L 129.513669 202.545515 
L 130.149351 202.782582 
L 130.785029 201.158988 
L 172.104245 189.109931 
L 187.99624 188.118776 
L 188.631919 191.922203 
L 229.315443 193.944822 
L 229.951121 203.624471 
L 238.850644 205.717906 
L 239.486326 199.780494 
L 249.021527 202.114043 
L 249.65721 207.703022 
L 257.285372 209.833405 
L 257.92105 222.125779 
L 264.277852 225.373314 
L 264.913534 215.324385 
L 311.318182 252.200398 
L 311.318182 252.200398 
" clip-path="url(#p3e7e0af58b)" style="fill: none; stroke: #ff7f0e; stroke-width: 1.5; stroke-linecap: square"/>
   </g>
   <g id="line2d_15">
    <path d="M 57.681818 242.256741 
L 83.109026 252.315919 
L 83.744704 251.009176 
L 84.380382 247.035204 
L 85.016069 239.584802 
L 86.923103 204.357038 
L 87.55879 189.829114 
L 88.194468 172.517055 
L 88.830146 164.301778 
L 89.465823 164.958058 
L 104.722148 171.57315 
L 112.350311 174.878134 
L 112.985988 144.984136 
L 129.513669 157.419665 
L 130.149351 158.506516 
L 130.785029 174.653602 
L 171.468565 191.668358 
L 172.104245 195.317445 
L 187.99624 198.666979 
L 188.631919 193.533123 
L 229.315443 189.160195 
L 229.951121 185.364144 
L 238.850644 183.618657 
L 239.486326 175.246858 
L 249.021527 173.614745 
L 249.65721 189.524418 
L 257.285372 189.790053 
L 257.92105 188.803763 
L 264.277852 190.362463 
L 264.913534 153.943201 
L 311.318182 188.73319 
L 311.318182 188.73319 
" clip-path="url(#p3e7e0af58b)" style="fill: none; stroke: #2ca02c; stroke-width: 1.5; stroke-linecap: square"/>
   </g>
   <g id="line2d_16">
    <path d="M 57.681818 238.915778 
L 71.0311 240.655239 
L 78.023585 241.574143 
L 83.109026 242.237626 
L 83.744704 240.764666 
L 84.380382 236.624476 
L 85.016069 228.999546 
L 86.923103 193.264821 
L 87.55879 188.781947 
L 88.194468 195.394061 
L 88.830146 199.021748 
L 89.465823 199.351135 
L 112.350311 197.188963 
L 112.985988 218.667114 
L 129.513669 211.89834 
L 130.149351 212.242756 
L 130.785029 213.248854 
L 164.476082 198.830373 
L 171.468565 195.837809 
L 172.104245 196.466767 
L 187.99624 190.934077 
L 188.631919 195.967164 
L 229.315443 196.619877 
L 229.951121 196.818576 
L 238.850644 197.502282 
L 239.486326 199.282882 
L 249.021527 196.63546 
L 249.65721 192.421442 
L 257.285372 189.952461 
L 257.92105 190.26024 
L 264.277852 180.823683 
L 264.913534 195.138018 
L 303.690019 178.335206 
L 311.318182 175.036905 
L 311.318182 175.036905 
" clip-path="url(#p3e7e0af58b)" style="fill: none; stroke: #d62728; stroke-width: 1.5; stroke-linecap: square"/>
   </g>
   <g id="line2d_17">
    <path d="M 57.681818 137.368245 
L 68.488379 131.099646 
L 83.109026 122.608448 
L 83.744704 136.250158 
L 84.380382 155.829141 
L 85.016069 171.920613 
L 86.923103 207.340634 
L 87.55879 216.371206 
L 88.194468 222.606562 
L 88.830146 225.85749 
L 89.465823 225.810118 
L 112.350311 210.16532 
L 112.985988 227.035796 
L 129.513669 219.114584 
L 130.149351 219.417445 
L 130.785029 215.213331 
L 171.468565 203.136122 
L 172.104245 203.576874 
L 187.99624 199.466552 
L 188.631919 201.284724 
L 229.315443 202.749131 
L 229.951121 195.947668 
L 238.850644 196.145189 
L 239.486326 197.44376 
L 249.021527 200.253105 
L 249.65721 198.640384 
L 257.285372 198.458965 
L 257.92105 196.373911 
L 264.277852 197.132345 
L 264.913534 208.348117 
L 311.318182 159.983182 
L 311.318182 159.983182 
" clip-path="url(#p3e7e0af58b)" style="fill: none; stroke: #9467bd; stroke-width: 1.5; stroke-linecap: square"/>
   </g>
   <g id="line2d_18">
    <path d="M 57.681818 159.142678 
L 74.209498 148.943877 
L 83.109026 143.438214 
L 83.744704 141.483225 
L 84.380382 149.726205 
L 85.016069 165.978354 
L 86.923103 201.894256 
L 87.55879 211.068882 
L 88.194468 217.478766 
L 88.830146 220.893141 
L 89.465823 221.000905 
L 112.350311 211.215604 
L 112.985988 194.74017 
L 129.513669 191.394775 
L 130.149351 191.874935 
L 130.785029 196.354969 
L 171.468565 189.813826 
L 172.104245 191.894586 
L 187.99624 190.429193 
L 188.631919 189.519327 
L 229.315443 191.281193 
L 229.951121 197.065131 
L 238.850644 197.621404 
L 239.486326 197.180236 
L 249.021527 196.976897 
L 249.65721 190.575048 
L 257.285372 192.022556 
L 257.92105 198.582866 
L 264.277852 198.692015 
L 264.913534 259.955739 
L 303.690019 260.374399 
L 311.318182 260.461386 
L 311.318182 260.461386 
" clip-path="url(#p3e7e0af58b)" style="fill: none; stroke: #8c564b; stroke-width: 1.5; stroke-linecap: square"/>
   </g>
   <g id="line2d_19">
    <path d="M 57.681818 170.290301 
L 69.759745 174.710289 
L 76.752219 177.258396 
L 83.109026 179.590421 
L 83.744704 178.264286 
L 84.380382 174.276462 
L 85.016069 171.153244 
L 86.923103 207.844826 
L 87.55879 217.293711 
L 88.194468 223.950149 
L 88.830146 227.627702 
L 89.465823 228.001413 
L 112.350311 227.576901 
L 112.985988 231.37787 
L 129.513669 226.912587 
L 130.149351 221.710894 
L 130.785029 203.568788 
L 171.468565 205.302484 
L 172.104245 204.995606 
L 187.99624 203.858145 
L 188.631919 195.978591 
L 229.315443 197.954115 
L 229.951121 189.758507 
L 238.850644 188.557035 
L 239.486326 194.432115 
L 249.021527 194.82127 
L 249.65721 193.870647 
L 257.285372 196.217459 
L 257.92105 182.080976 
L 264.277852 183.628595 
L 264.913534 201.523522 
L 311.318182 87.052683 
L 311.318182 87.052683 
" clip-path="url(#p3e7e0af58b)" style="fill: none; stroke: #e377c2; stroke-width: 1.5; stroke-linecap: square"/>
   </g>
   <g id="line2d_20">
    <path d="M 57.681818 237.441987 
L 76.752219 233.359419 
L 83.109026 231.993115 
L 83.744704 230.298532 
L 84.380382 225.947801 
L 85.016069 218.098478 
L 86.923103 181.712736 
L 87.55879 166.791432 
L 88.194468 155.862107 
L 88.830146 159.689255 
L 89.465823 160.20148 
L 107.264869 163.99019 
L 112.350311 165.076522 
L 112.985988 184.524748 
L 129.513669 189.722909 
L 130.149351 190.527191 
L 130.785029 193.787608 
L 171.468565 196.78438 
L 172.104245 197.377844 
L 187.99624 197.373602 
L 188.631919 189.912015 
L 229.315443 190.180005 
L 229.951121 189.749157 
L 238.850644 189.002358 
L 239.486326 191.09877 
L 249.021527 190.10313 
L 249.65721 179.418075 
L 257.285372 175.71978 
L 257.92105 178.683915 
L 264.277852 176.21393 
L 264.913534 174.676699 
L 311.318182 137.83199 
L 311.318182 137.83199 
" clip-path="url(#p3e7e0af58b)" style="fill: none; stroke: #7f7f7f; stroke-width: 1.5; stroke-linecap: square"/>
   </g>
   <g id="line2d_21">
    <path d="M 57.681818 305.125568 
L 70.395422 296.477849 
L 83.109026 287.839272 
L 83.744704 285.85658 
L 84.380382 281.198347 
L 85.016069 273.058144 
L 86.923103 235.783141 
L 87.55879 220.570957 
L 88.830146 181.593891 
L 89.465823 178.194475 
L 105.993509 179.405505 
L 112.350311 179.871224 
L 112.985988 162.159552 
L 129.513669 164.538256 
L 130.149351 165.23519 
L 130.785029 172.338683 
L 171.468565 182.91703 
L 172.104245 181.654751 
L 187.99624 184.290243 
L 188.631919 189.464614 
L 229.315443 180.432068 
L 229.951121 186.103463 
L 238.850644 185.171055 
L 239.486326 199.448406 
L 249.021527 199.586505 
L 249.65721 187.211231 
L 257.285372 187.518767 
L 257.92105 177.919663 
L 264.277852 180.532803 
L 264.913534 131.384085 
L 287.162329 122.916227 
L 311.318182 113.719438 
L 311.318182 113.719438 
" clip-path="url(#p3e7e0af58b)" style="fill: none; stroke: #bcbd22; stroke-width: 1.5; stroke-linecap: square"/>
   </g>
   <g id="line2d_22">
    <path d="M 57.681818 207.910759 
L 83.109026 229.735334 
L 83.744704 228.722241 
L 84.380382 225.050229 
L 85.016069 217.887937 
L 86.923103 183.546664 
L 87.55879 186.033825 
L 88.194468 192.931278 
L 88.830146 196.855386 
L 89.465823 197.470112 
L 105.357826 203.216858 
L 112.350311 205.751565 
L 112.985988 189.938229 
L 129.513669 196.833189 
L 130.149351 197.272487 
L 130.785029 179.228726 
L 171.468565 187.06657 
L 172.104245 184.009319 
L 187.99624 188.489994 
L 188.631919 190.496891 
L 229.315443 198.029259 
L 229.951121 194.10439 
L 238.850644 195.075859 
L 239.486326 190.259028 
L 249.021527 192.110547 
L 249.65721 197.111187 
L 257.285372 199.376968 
L 257.92105 203.996001 
L 264.277852 206.111528 
L 264.913534 187.568216 
L 311.318182 240.498718 
L 311.318182 240.498718 
" clip-path="url(#p3e7e0af58b)" style="fill: none; stroke: #17becf; stroke-width: 1.5; stroke-linecap: square"/>
   </g>
   <g id="patch_3">
    <path d="M 45 320.4 
L 45 43.2 
" style="fill: none; stroke: #000000; stroke-width: 0.8; stroke-linejoin: miter; stroke-linecap: square"/>
   </g>
   <g id="patch_4">
    <path d="M 324 320.4 
L 324 43.2 
" style="fill: none; stroke: #000000; stroke-width: 0.8; stroke-linejoin: miter; stroke-linecap: square"/>
   </g>
   <g id="patch_5">
    <path d="M 45 320.4 
L 324 320.4 
" style="fill: none; stroke: #000000; stroke-width: 0.8; stroke-linejoin: miter; stroke-linecap: square"/>
   </g>
   <g id="patch_6">
    <path d="M 45 43.2 
L 324 43.2 
" style="fill: none; stroke: #000000; stroke-width: 0.8; stroke-linejoin: miter; stroke-linecap: square"/>
   </g>
   <g id="text_13">
    <!-- Single Draw Deviation -->
    <g transform="translate(117.87 37.2)scale(0.12 -0.12)">
     <defs>
      <path id="DejaVuSans-53" d="M 3425 4513 
L 3425 3897 
Q 3066 4069 2747 4153 
Q 2428 4238 2131 4238 
Q 1616 4238 1336 4038 
Q 1056 3838 1056 3469 
Q 1056 3159 1242 3001 
Q 1428 2844 1947 2747 
L 2328 2669 
Q 3034 2534 3370 2195 
Q 3706 1856 3706 1288 
Q 3706 609 3251 259 
Q 2797 -91 1919 -91 
Q 1588 -91 1214 -16 
Q 841 59 441 206 
L 441 856 
Q 825 641 1194 531 
Q 1563 422 1919 422 
Q 2459 422 2753 634 
Q 3047 847 3047 1241 
Q 3047 1584 2836 1778 
Q 2625 1972 2144 2069 
L 1759 2144 
Q 1053 2284 737 2584 
Q 422 2884 422 3419 
Q 422 4038 858 4394 
Q 1294 4750 2059 4750 
Q 2388 4750 2728 4690 
Q 3069 4631 3425 4513 
z
" transform="scale(0.015625)"/>
      <path id="DejaVuSans-69" d="M 603 3500 
L 1178 3500 
L 1178 0 
L 603 0 
L 603 3500 
z
M 603 4863 
L 1178 4863 
L 1178 4134 
L 603 4134 
L 603 4863 
z
" transform="scale(0.015625)"/>
      <path id="DejaVuSans-6e" d="M 3513 2113 
L 3513 0 
L 2938 0 
L 2938 2094 
Q 2938 2591 2744 2837 
Q 2550 3084 2163 3084 
Q 1697 3084 1428 2787 
Q 1159 2491 1159 1978 
L 1159 0 
L 581 0 
L 581 3500 
L 1159 3500 
L 1159 2956 
Q 1366 3272 1645 3428 
Q 1925 3584 2291 3584 
Q 2894 3584 3203 3211 
Q 3513 2838 3513 2113 
z
" transform="scale(0.015625)"/>
      <path id="DejaVuSans-67" d="M 2906 1791 
Q 2906 2416 2648 2759 
Q 2391 3103 1925 3103 
Q 1463 3103 1205 2759 
Q 947 2416 947 1791 
Q 947 1169 1205 825 
Q 1463 481 1925 481 
Q 2391 481 2648 825 
Q 2906 1169 2906 1791 
z
M 3481 434 
Q 3481 -459 3084 -895 
Q 2688 -1331 1869 -1331 
Q 1566 -1331 1297 -1286 
Q 1028 -1241 775 -1147 
L 775 -588 
Q 1028 -725 1275 -790 
Q 1522 -856 1778 -856 
Q 2344 -856 2625 -561 
Q 2906 -266 2906 331 
L 2906 616 
Q 2728 306 2450 153 
Q 2172 0 1784 0 
Q 1141 0 747 490 
Q 353 981 353 1791 
Q 353 2603 747 3093 
Q 1141 3584 1784 3584 
Q 2172 3584 2450 3431 
Q 2728 3278 2906 2969 
L 2906 3500 
L 3481 3500 
L 3481 434 
z
" transform="scale(0.015625)"/>
      <path id="DejaVuSans-6c" d="M 603 4863 
L 1178 4863 
L 1178 0 
L 603 0 
L 603 4863 
z
" transform="scale(0.015625)"/>
      <path id="DejaVuSans-65" d="M 3597 1894 
L 3597 1613 
L 953 1613 
Q 991 1019 1311 708 
Q 1631 397 2203 397 
Q 2534 397 2845 478 
Q 3156 559 3463 722 
L 3463 178 
Q 3153 47 2828 -22 
Q 2503 -91 2169 -91 
Q 1331 -91 842 396 
Q 353 884 353 1716 
Q 353 2575 817 3079 
Q 1281 3584 2069 3584 
Q 2775 3584 3186 3129 
Q 3597 2675 3597 1894 
z
M 3022 2063 
Q 3016 2534 2758 2815 
Q 2500 3097 2075 3097 
Q 1594 3097 1305 2825 
Q 1016 2553 972 2059 
L 3022 2063 
z
" transform="scale(0.015625)"/>
      <path id="DejaVuSans-20" transform="scale(0.015625)"/>
      <path id="DejaVuSans-44" d="M 1259 4147 
L 1259 519 
L 2022 519 
Q 2988 519 3436 956 
Q 3884 1394 3884 2338 
Q 3884 3275 3436 3711 
Q 2988 4147 2022 4147 
L 1259 4147 
z
M 628 4666 
L 1925 4666 
Q 3281 4666 3915 4102 
Q 4550 3538 4550 2338 
Q 4550 1131 3912 565 
Q 3275 0 1925 0 
L 628 0 
L 628 4666 
z
" transform="scale(0.015625)"/>
      <path id="DejaVuSans-72" d="M 2631 2963 
Q 2534 3019 2420 3045 
Q 2306 3072 2169 3072 
Q 1681 3072 1420 2755 
Q 1159 2438 1159 1844 
L 1159 0 
L 581 0 
L 581 3500 
L 1159 3500 
L 1159 2956 
Q 1341 3275 1631 3429 
Q 1922 3584 2338 3584 
Q 2397 3584 2469 3576 
Q 2541 3569 2628 3553 
L 2631 2963 
z
" transform="scale(0.015625)"/>
      <path id="DejaVuSans-61" d="M 2194 1759 
Q 1497 1759 1228 1600 
Q 959 1441 959 1056 
Q 959 750 1161 570 
Q 1363 391 1709 391 
Q 2188 391 2477 730 
Q 2766 1069 2766 1631 
L 2766 1759 
L 2194 1759 
z
M 3341 1997 
L 3341 0 
L 2766 0 
L 2766 531 
Q 2569 213 2275 61 
Q 1981 -91 1556 -91 
Q 1019 -91 701 211 
Q 384 513 384 1019 
Q 384 1609 779 1909 
Q 1175 2209 1959 2209 
L 2766 2209 
L 2766 2266 
Q 2766 2663 2505 2880 
Q 2244 3097 1772 3097 
Q 1472 3097 1187 3025 
Q 903 2953 641 2809 
L 641 3341 
Q 956 3463 1253 3523 
Q 1550 3584 1831 3584 
Q 2591 3584 2966 3190 
Q 3341 2797 3341 1997 
z
" transform="scale(0.015625)"/>
      <path id="DejaVuSans-77" d="M 269 3500 
L 844 3500 
L 1563 769 
L 2278 3500 
L 2956 3500 
L 3675 769 
L 4391 3500 
L 4966 3500 
L 4050 0 
L 3372 0 
L 2619 2869 
L 1863 0 
L 1184 0 
L 269 3500 
z
" transform="scale(0.015625)"/>
      <path id="DejaVuSans-76" d="M 191 3500 
L 800 3500 
L 1894 563 
L 2988 3500 
L 3597 3500 
L 2284 0 
L 1503 0 
L 191 3500 
z
" transform="scale(0.015625)"/>
      <path id="DejaVuSans-74" d="M 1172 4494 
L 1172 3500 
L 2356 3500 
L 2356 3053 
L 1172 3053 
L 1172 1153 
Q 1172 725 1289 603 
Q 1406 481 1766 481 
L 2356 481 
L 2356 0 
L 1766 0 
Q 1100 0 847 248 
Q 594 497 594 1153 
L 594 3053 
L 172 3053 
L 172 3500 
L 594 3500 
L 594 4494 
L 1172 4494 
z
" transform="scale(0.015625)"/>
      <path id="DejaVuSans-6f" d="M 1959 3097 
Q 1497 3097 1228 2736 
Q 959 2375 959 1747 
Q 959 1119 1226 758 
Q 1494 397 1959 397 
Q 2419 397 2687 759 
Q 2956 1122 2956 1747 
Q 2956 2369 2687 2733 
Q 2419 3097 1959 3097 
z
M 1959 3584 
Q 2709 3584 3137 3096 
Q 3566 2609 3566 1747 
Q 3566 888 3137 398 
Q 2709 -91 1959 -91 
Q 1206 -91 779 398 
Q 353 888 353 1747 
Q 353 2609 779 3096 
Q 1206 3584 1959 3584 
z
" transform="scale(0.015625)"/>
     </defs>
     <use xlink:href="#DejaVuSans-53"/>
     <use xlink:href="#DejaVuSans-69" x="63.476562"/>
     <use xlink:href="#DejaVuSans-6e" x="91.259766"/>
     <use xlink:href="#DejaVuSans-67" x="154.638672"/>
     <use xlink:href="#DejaVuSans-6c" x="218.115234"/>
     <use xlink:href="#DejaVuSans-65" x="245.898438"/>
     <use xlink:href="#DejaVuSans-20" x="307.421875"/>
     <use xlink:href="#DejaVuSans-44" x="339.208984"/>
     <use xlink:href="#DejaVuSans-72" x="416.210938"/>
     <use xlink:href="#DejaVuSans-61" x="457.324219"/>
     <use xlink:href="#DejaVuSans-77" x="518.603516"/>
     <use xlink:href="#DejaVuSans-20" x="600.390625"/>
     <use xlink:href="#DejaVuSans-44" x="632.177734"/>
     <use xlink:href="#DejaVuSans-65" x="709.179688"/>
     <use xlink:href="#DejaVuSans-76" x="770.703125"/>
     <use xlink:href="#DejaVuSans-69" x="829.882812"/>
     <use xlink:href="#DejaVuSans-61" x="857.666016"/>
     <use xlink:href="#DejaVuSans-74" x="918.945312"/>
     <use xlink:href="#DejaVuSans-69" x="958.154297"/>
     <use xlink:href="#DejaVuSans-6f" x="985.9375"/>
     <use xlink:href="#DejaVuSans-6e" x="1047.119141"/>
    </g>
   </g>
  </g>
 </g>
 <defs>
  <clipPath id="p3e7e0af58b">
   <rect x="45" y="43.2" width="279" height="277.2"/>
  </clipPath>
 </defs>
</svg>
