<?xml version="1.0" encoding="utf-8" standalone="no"?>
<!DOCTYPE svg PUBLIC "-//W3C//DTD SVG 1.1//EN"
  "http://www.w3.org/Graphics/SVG/1.1/DTD/svg11.dtd">
<svg xmlns:xlink="http://www.w3.org/1999/xlink" width="360pt" height="360pt" viewBox="0 0 360 360" xmlns="http://www.w3.org/2000/svg" version="1.1">
 <metadata>
  <rdf:RDF xmlns:dc="http://purl.org/dc/elements/1.1/" xmlns:cc="http://creativecommons.org/ns#" xmlns:rdf="http://www.w3.org/1999/02/22-rdf-syntax-ns#">
   <cc:Work>
    <dc:type rdf:resource="http://purl.org/dc/dcmitype/StillImage"/>
    <dc:date>2022-11-15T12:34:58.243464</dc:date>
    <dc:format>image/svg+xml</dc:format>
    <dc:creator>
     <cc:Agent>
      <dc:title>Matplotlib v3.5.3, https://matplotlib.org/</dc:title>
     </cc:Agent>
    </dc:creator>
   </cc:Work>
  </rdf:RDF>
 </metadata>
 <defs>
  <style type="text/css">*{stroke-linejoin: round; stroke-linecap: butt}</style>
 </defs>
 <g id="figure_1">
  <g id="patch_1">
   <path d="M 0 360 
L 360 360 
L 360 0 
L 0 0 
z
" style="fill: #ffffff"/>
  </g>
  <g id="axes_1">
   <g id="patch_2">
    <path d="M 45 320.4 
L 324 320.4 
L 324 43.2 
L 45 43.2 
z
" style="fill: #ffffff"/>
   </g>
   <g id="matplotlib.axis_1">
    <g id="xtick_1">
     <g id="line2d_1">
      <defs>
       <path id="ma93a991406" d="M 0 0 
L 0 3.5 
" style="stroke: #000000; stroke-width: 0.8"/>
      </defs>
      <g>
       <use xlink:href="#ma93a991406" x="57.681818" y="320.4" style="stroke: #000000; stroke-width: 0.8"/>
      </g>
     </g>
     <g id="text_1">
      <!-- −3 -->
      <g transform="translate(50.310724 334.998438)scale(0.1 -0.1)">
       <defs>
        <path id="DejaVuSans-2212" d="M 678 2272 
L 4684 2272 
L 4684 1741 
L 678 1741 
L 678 2272 
z
" transform="scale(0.015625)"/>
        <path id="DejaVuSans-33" d="M 2597 2516 
Q 3050 2419 3304 2112 
Q 3559 1806 3559 1356 
Q 3559 666 3084 287 
Q 2609 -91 1734 -91 
Q 1441 -91 1130 -33 
Q 819 25 488 141 
L 488 750 
Q 750 597 1062 519 
Q 1375 441 1716 441 
Q 2309 441 2620 675 
Q 2931 909 2931 1356 
Q 2931 1769 2642 2001 
Q 2353 2234 1838 2234 
L 1294 2234 
L 1294 2753 
L 1863 2753 
Q 2328 2753 2575 2939 
Q 2822 3125 2822 3475 
Q 2822 3834 2567 4026 
Q 2313 4219 1838 4219 
Q 1578 4219 1281 4162 
Q 984 4106 628 3988 
L 628 4550 
Q 988 4650 1302 4700 
Q 1616 4750 1894 4750 
Q 2613 4750 3031 4423 
Q 3450 4097 3450 3541 
Q 3450 3153 3228 2886 
Q 3006 2619 2597 2516 
z
" transform="scale(0.015625)"/>
       </defs>
       <use xlink:href="#DejaVuSans-2212"/>
       <use xlink:href="#DejaVuSans-33" x="83.789062"/>
      </g>
     </g>
    </g>
    <g id="xtick_2">
     <g id="line2d_2">
      <g>
       <use xlink:href="#ma93a991406" x="99.954545" y="320.4" style="stroke: #000000; stroke-width: 0.8"/>
      </g>
     </g>
     <g id="text_2">
      <!-- −2 -->
      <g transform="translate(92.583452 334.998438)scale(0.1 -0.1)">
       <defs>
        <path id="DejaVuSans-32" d="M 1228 531 
L 3431 531 
L 3431 0 
L 469 0 
L 469 531 
Q 828 903 1448 1529 
Q 2069 2156 2228 2338 
Q 2531 2678 2651 2914 
Q 2772 3150 2772 3378 
Q 2772 3750 2511 3984 
Q 2250 4219 1831 4219 
Q 1534 4219 1204 4116 
Q 875 4013 500 3803 
L 500 4441 
Q 881 4594 1212 4672 
Q 1544 4750 1819 4750 
Q 2544 4750 2975 4387 
Q 3406 4025 3406 3419 
Q 3406 3131 3298 2873 
Q 3191 2616 2906 2266 
Q 2828 2175 2409 1742 
Q 1991 1309 1228 531 
z
" transform="scale(0.015625)"/>
       </defs>
       <use xlink:href="#DejaVuSans-2212"/>
       <use xlink:href="#DejaVuSans-32" x="83.789062"/>
      </g>
     </g>
    </g>
    <g id="xtick_3">
     <g id="line2d_3">
      <g>
       <use xlink:href="#ma93a991406" x="142.227273" y="320.4" style="stroke: #000000; stroke-width: 0.8"/>
      </g>
     </g>
     <g id="text_3">
      <!-- −1 -->
      <g transform="translate(134.856179 334.998438)scale(0.1 -0.1)">
       <defs>
        <path id="DejaVuSans-31" d="M 794 531 
L 1825 531 
L 1825 4091 
L 703 3866 
L 703 4441 
L 1819 4666 
L 2450 4666 
L 2450 531 
L 3481 531 
L 3481 0 
L 794 0 
L 794 531 
z
" transform="scale(0.015625)"/>
       </defs>
       <use xlink:href="#DejaVuSans-2212"/>
       <use xlink:href="#DejaVuSans-31" x="83.789062"/>
      </g>
     </g>
    </g>
    <g id="xtick_4">
     <g id="line2d_4">
      <g>
       <use xlink:href="#ma93a991406" x="184.5" y="320.4" style="stroke: #000000; stroke-width: 0.8"/>
      </g>
     </g>
     <g id="text_4">
      <!-- 0 -->
      <g transform="translate(181.31875 334.998438)scale(0.1 -0.1)">
       <defs>
        <path id="DejaVuSans-30" d="M 2034 4250 
Q 1547 4250 1301 3770 
Q 1056 3291 1056 2328 
Q 1056 1369 1301 889 
Q 1547 409 2034 409 
Q 2525 409 2770 889 
Q 3016 1369 3016 2328 
Q 3016 3291 2770 3770 
Q 2525 4250 2034 4250 
z
M 2034 4750 
Q 2819 4750 3233 4129 
Q 3647 3509 3647 2328 
Q 3647 1150 3233 529 
Q 2819 -91 2034 -91 
Q 1250 -91 836 529 
Q 422 1150 422 2328 
Q 422 3509 836 4129 
Q 1250 4750 2034 4750 
z
" transform="scale(0.015625)"/>
       </defs>
       <use xlink:href="#DejaVuSans-30"/>
      </g>
     </g>
    </g>
    <g id="xtick_5">
     <g id="line2d_5">
      <g>
       <use xlink:href="#ma93a991406" x="226.772727" y="320.4" style="stroke: #000000; stroke-width: 0.8"/>
      </g>
     </g>
     <g id="text_5">
      <!-- 1 -->
      <g transform="translate(223.591477 334.998438)scale(0.1 -0.1)">
       <use xlink:href="#DejaVuSans-31"/>
      </g>
     </g>
    </g>
    <g id="xtick_6">
     <g id="line2d_6">
      <g>
       <use xlink:href="#ma93a991406" x="269.045455" y="320.4" style="stroke: #000000; stroke-width: 0.8"/>
      </g>
     </g>
     <g id="text_6">
      <!-- 2 -->
      <g transform="translate(265.864205 334.998438)scale(0.1 -0.1)">
       <use xlink:href="#DejaVuSans-32"/>
      </g>
     </g>
    </g>
    <g id="xtick_7">
     <g id="line2d_7">
      <g>
       <use xlink:href="#ma93a991406" x="311.318182" y="320.4" style="stroke: #000000; stroke-width: 0.8"/>
      </g>
     </g>
     <g id="text_7">
      <!-- 3 -->
      <g transform="translate(308.136932 334.998438)scale(0.1 -0.1)">
       <use xlink:href="#DejaVuSans-33"/>
      </g>
     </g>
    </g>
   </g>
   <g id="matplotlib.axis_2">
    <g id="ytick_1">
     <g id="line2d_8">
      <defs>
       <path id="mb77cecc3d9" d="M 0 0 
L -3.5 0 
" style="stroke: #000000; stroke-width: 0.8"/>
      </defs>
      <g>
       <use xlink:href="#mb77cecc3d9" x="45" y="263.632022" style="stroke: #000000; stroke-width: 0.8"/>
      </g>
     </g>
     <g id="text_8">
      <!-- $\mathdefault{10^{-2}}$ -->
      <g transform="translate(14.5 267.431241)scale(0.1 -0.1)">
       <use xlink:href="#DejaVuSans-31" transform="translate(0 0.765625)"/>
       <use xlink:href="#DejaVuSans-30" transform="translate(63.623047 0.765625)"/>
       <use xlink:href="#DejaVuSans-2212" transform="translate(128.203125 39.046875)scale(0.7)"/>
       <use xlink:href="#DejaVuSans-32" transform="translate(186.855469 39.046875)scale(0.7)"/>
      </g>
     </g>
    </g>
    <g id="ytick_2">
     <g id="line2d_9">
      <g>
       <use xlink:href="#mb77cecc3d9" x="45" y="205.364131" style="stroke: #000000; stroke-width: 0.8"/>
      </g>
     </g>
     <g id="text_9">
      <!-- $\mathdefault{10^{-1}}$ -->
      <g transform="translate(14.5 209.163349)scale(0.1 -0.1)">
       <use xlink:href="#DejaVuSans-31" transform="translate(0 0.684375)"/>
       <use xlink:href="#DejaVuSans-30" transform="translate(63.623047 0.684375)"/>
       <use xlink:href="#DejaVuSans-2212" transform="translate(128.203125 38.965625)scale(0.7)"/>
       <use xlink:href="#DejaVuSans-31" transform="translate(186.855469 38.965625)scale(0.7)"/>
      </g>
     </g>
    </g>
    <g id="ytick_3">
     <g id="line2d_10">
      <g>
       <use xlink:href="#mb77cecc3d9" x="45" y="147.096239" style="stroke: #000000; stroke-width: 0.8"/>
      </g>
     </g>
     <g id="text_10">
      <!-- $\mathdefault{10^{0}}$ -->
      <g transform="translate(20.4 150.895458)scale(0.1 -0.1)">
       <use xlink:href="#DejaVuSans-31" transform="translate(0 0.765625)"/>
       <use xlink:href="#DejaVuSans-30" transform="translate(63.623047 0.765625)"/>
       <use xlink:href="#DejaVuSans-30" transform="translate(128.203125 39.046875)scale(0.7)"/>
      </g>
     </g>
    </g>
    <g id="ytick_4">
     <g id="line2d_11">
      <g>
       <use xlink:href="#mb77cecc3d9" x="45" y="88.828348" style="stroke: #000000; stroke-width: 0.8"/>
      </g>
     </g>
     <g id="text_11">
      <!-- $\mathdefault{10^{1}}$ -->
      <g transform="translate(20.4 92.627567)scale(0.1 -0.1)">
       <use xlink:href="#DejaVuSans-31" transform="translate(0 0.684375)"/>
       <use xlink:href="#DejaVuSans-30" transform="translate(63.623047 0.684375)"/>
       <use xlink:href="#DejaVuSans-31" transform="translate(128.203125 38.965625)scale(0.7)"/>
      </g>
     </g>
    </g>
    <g id="ytick_5">
     <g id="line2d_12">
      <defs>
       <path id="m1efbc72153" d="M 0 0 
L -2 0 
" style="stroke: #000000; stroke-width: 0.6"/>
      </defs>
      <g>
       <use xlink:href="#m1efbc72153" x="45" y="304.35953" style="stroke: #000000; stroke-width: 0.6"/>
      </g>
     </g>
    </g>
    <g id="ytick_6">
     <g id="line2d_13">
      <g>
       <use xlink:href="#m1efbc72153" x="45" y="294.099064" style="stroke: #000000; stroke-width: 0.6"/>
      </g>
     </g>
    </g>
    <g id="ytick_7">
     <g id="line2d_14">
      <g>
       <use xlink:href="#m1efbc72153" x="45" y="286.819147" style="stroke: #000000; stroke-width: 0.6"/>
      </g>
     </g>
    </g>
    <g id="ytick_8">
     <g id="line2d_15">
      <g>
       <use xlink:href="#m1efbc72153" x="45" y="281.172405" style="stroke: #000000; stroke-width: 0.6"/>
      </g>
     </g>
    </g>
    <g id="ytick_9">
     <g id="line2d_16">
      <g>
       <use xlink:href="#m1efbc72153" x="45" y="276.558681" style="stroke: #000000; stroke-width: 0.6"/>
      </g>
     </g>
    </g>
    <g id="ytick_10">
     <g id="line2d_17">
      <g>
       <use xlink:href="#m1efbc72153" x="45" y="272.657833" style="stroke: #000000; stroke-width: 0.6"/>
      </g>
     </g>
    </g>
    <g id="ytick_11">
     <g id="line2d_18">
      <g>
       <use xlink:href="#m1efbc72153" x="45" y="269.278764" style="stroke: #000000; stroke-width: 0.6"/>
      </g>
     </g>
    </g>
    <g id="ytick_12">
     <g id="line2d_19">
      <g>
       <use xlink:href="#m1efbc72153" x="45" y="266.298215" style="stroke: #000000; stroke-width: 0.6"/>
      </g>
     </g>
    </g>
    <g id="ytick_13">
     <g id="line2d_20">
      <g>
       <use xlink:href="#m1efbc72153" x="45" y="246.091639" style="stroke: #000000; stroke-width: 0.6"/>
      </g>
     </g>
    </g>
    <g id="ytick_14">
     <g id="line2d_21">
      <g>
       <use xlink:href="#m1efbc72153" x="45" y="235.831173" style="stroke: #000000; stroke-width: 0.6"/>
      </g>
     </g>
    </g>
    <g id="ytick_15">
     <g id="line2d_22">
      <g>
       <use xlink:href="#m1efbc72153" x="45" y="228.551256" style="stroke: #000000; stroke-width: 0.6"/>
      </g>
     </g>
    </g>
    <g id="ytick_16">
     <g id="line2d_23">
      <g>
       <use xlink:href="#m1efbc72153" x="45" y="222.904514" style="stroke: #000000; stroke-width: 0.6"/>
      </g>
     </g>
    </g>
    <g id="ytick_17">
     <g id="line2d_24">
      <g>
       <use xlink:href="#m1efbc72153" x="45" y="218.29079" style="stroke: #000000; stroke-width: 0.6"/>
      </g>
     </g>
    </g>
    <g id="ytick_18">
     <g id="line2d_25">
      <g>
       <use xlink:href="#m1efbc72153" x="45" y="214.389941" style="stroke: #000000; stroke-width: 0.6"/>
      </g>
     </g>
    </g>
    <g id="ytick_19">
     <g id="line2d_26">
      <g>
       <use xlink:href="#m1efbc72153" x="45" y="211.010873" style="stroke: #000000; stroke-width: 0.6"/>
      </g>
     </g>
    </g>
    <g id="ytick_20">
     <g id="line2d_27">
      <g>
       <use xlink:href="#m1efbc72153" x="45" y="208.030323" style="stroke: #000000; stroke-width: 0.6"/>
      </g>
     </g>
    </g>
    <g id="ytick_21">
     <g id="line2d_28">
      <g>
       <use xlink:href="#m1efbc72153" x="45" y="187.823748" style="stroke: #000000; stroke-width: 0.6"/>
      </g>
     </g>
    </g>
    <g id="ytick_22">
     <g id="line2d_29">
      <g>
       <use xlink:href="#m1efbc72153" x="45" y="177.563281" style="stroke: #000000; stroke-width: 0.6"/>
      </g>
     </g>
    </g>
    <g id="ytick_23">
     <g id="line2d_30">
      <g>
       <use xlink:href="#m1efbc72153" x="45" y="170.283365" style="stroke: #000000; stroke-width: 0.6"/>
      </g>
     </g>
    </g>
    <g id="ytick_24">
     <g id="line2d_31">
      <g>
       <use xlink:href="#m1efbc72153" x="45" y="164.636622" style="stroke: #000000; stroke-width: 0.6"/>
      </g>
     </g>
    </g>
    <g id="ytick_25">
     <g id="line2d_32">
      <g>
       <use xlink:href="#m1efbc72153" x="45" y="160.022898" style="stroke: #000000; stroke-width: 0.6"/>
      </g>
     </g>
    </g>
    <g id="ytick_26">
     <g id="line2d_33">
      <g>
       <use xlink:href="#m1efbc72153" x="45" y="156.12205" style="stroke: #000000; stroke-width: 0.6"/>
      </g>
     </g>
    </g>
    <g id="ytick_27">
     <g id="line2d_34">
      <g>
       <use xlink:href="#m1efbc72153" x="45" y="152.742981" style="stroke: #000000; stroke-width: 0.6"/>
      </g>
     </g>
    </g>
    <g id="ytick_28">
     <g id="line2d_35">
      <g>
       <use xlink:href="#m1efbc72153" x="45" y="149.762432" style="stroke: #000000; stroke-width: 0.6"/>
      </g>
     </g>
    </g>
    <g id="ytick_29">
     <g id="line2d_36">
      <g>
       <use xlink:href="#m1efbc72153" x="45" y="129.555856" style="stroke: #000000; stroke-width: 0.6"/>
      </g>
     </g>
    </g>
    <g id="ytick_30">
     <g id="line2d_37">
      <g>
       <use xlink:href="#m1efbc72153" x="45" y="119.29539" style="stroke: #000000; stroke-width: 0.6"/>
      </g>
     </g>
    </g>
    <g id="ytick_31">
     <g id="line2d_38">
      <g>
       <use xlink:href="#m1efbc72153" x="45" y="112.015473" style="stroke: #000000; stroke-width: 0.6"/>
      </g>
     </g>
    </g>
    <g id="ytick_32">
     <g id="line2d_39">
      <g>
       <use xlink:href="#m1efbc72153" x="45" y="106.368731" style="stroke: #000000; stroke-width: 0.6"/>
      </g>
     </g>
    </g>
    <g id="ytick_33">
     <g id="line2d_40">
      <g>
       <use xlink:href="#m1efbc72153" x="45" y="101.755007" style="stroke: #000000; stroke-width: 0.6"/>
      </g>
     </g>
    </g>
    <g id="ytick_34">
     <g id="line2d_41">
      <g>
       <use xlink:href="#m1efbc72153" x="45" y="97.854158" style="stroke: #000000; stroke-width: 0.6"/>
      </g>
     </g>
    </g>
    <g id="ytick_35">
     <g id="line2d_42">
      <g>
       <use xlink:href="#m1efbc72153" x="45" y="94.47509" style="stroke: #000000; stroke-width: 0.6"/>
      </g>
     </g>
    </g>
    <g id="ytick_36">
     <g id="line2d_43">
      <g>
       <use xlink:href="#m1efbc72153" x="45" y="91.49454" style="stroke: #000000; stroke-width: 0.6"/>
      </g>
     </g>
    </g>
    <g id="ytick_37">
     <g id="line2d_44">
      <g>
       <use xlink:href="#m1efbc72153" x="45" y="71.287965" style="stroke: #000000; stroke-width: 0.6"/>
      </g>
     </g>
    </g>
    <g id="ytick_38">
     <g id="line2d_45">
      <g>
       <use xlink:href="#m1efbc72153" x="45" y="61.027498" style="stroke: #000000; stroke-width: 0.6"/>
      </g>
     </g>
    </g>
    <g id="ytick_39">
     <g id="line2d_46">
      <g>
       <use xlink:href="#m1efbc72153" x="45" y="53.747582" style="stroke: #000000; stroke-width: 0.6"/>
      </g>
     </g>
    </g>
    <g id="ytick_40">
     <g id="line2d_47">
      <g>
       <use xlink:href="#m1efbc72153" x="45" y="48.10084" style="stroke: #000000; stroke-width: 0.6"/>
      </g>
     </g>
    </g>
    <g id="ytick_41">
     <g id="line2d_48">
      <g>
       <use xlink:href="#m1efbc72153" x="45" y="43.487115" style="stroke: #000000; stroke-width: 0.6"/>
      </g>
     </g>
    </g>
   </g>
   <g id="line2d_49">
    <path d="M 99.954545 177.687457 
L 101.662536 214.121551 
L 103.370522 206.069639 
L 105.078513 188.776298 
L 106.786503 183.207868 
L 108.494489 185.044449 
L 110.20248 193.72091 
L 111.91047 232.596209 
L 113.618456 197.898204 
L 115.326447 175.524336 
L 117.034432 211.009507 
L 118.742423 191.253309 
L 120.450414 171.224846 
L 122.1584 161.470151 
L 123.86639 155.751047 
L 125.574376 151.861261 
L 127.282367 149.47053 
L 128.990357 147.760471 
L 130.698343 146.751597 
L 132.406334 146.47859 
L 134.114324 146.522552 
L 135.82231 147.151594 
L 137.530301 148.137808 
L 139.238292 149.752621 
L 140.946282 151.479272 
L 142.65427 153.985419 
L 144.362261 157.090467 
L 146.070249 160.864173 
L 147.778237 165.904177 
L 149.486226 171.93966 
L 151.194216 181.653197 
L 152.902205 194.827476 
L 154.610193 235.799431 
L 156.318181 210.872209 
L 158.026172 189.067639 
L 159.73416 177.108862 
L 161.442148 169.63533 
L 163.150136 163.794198 
L 164.858127 159.514264 
L 166.566115 155.98956 
L 168.274103 152.935167 
L 169.982093 150.571012 
L 171.690081 148.444175 
L 173.39807 146.707854 
L 175.106059 145.373861 
L 176.814048 144.385338 
L 178.522038 143.411958 
L 180.230026 142.824072 
L 181.938019 142.374234 
L 183.646008 142.284422 
L 185.353997 142.322366 
L 187.061986 142.462604 
L 188.769975 142.915722 
L 190.477964 143.371607 
L 192.185953 144.284701 
L 193.893941 145.369842 
L 195.60193 146.750594 
L 197.309919 148.466665 
L 199.017907 150.374437 
L 200.725897 153.036959 
L 202.433885 155.853978 
L 204.141874 159.592548 
L 205.849864 163.827336 
L 207.557852 169.708183 
L 209.26584 177.169941 
L 210.973828 188.81441 
L 212.681819 209.203214 
L 214.389807 232.771425 
L 216.097795 195.694375 
L 217.805784 181.375147 
L 219.513774 172.970102 
L 221.221763 166.308846 
L 222.929751 161.526971 
L 224.637739 157.290632 
L 226.34573 154.192394 
L 228.053718 151.773763 
L 229.761708 149.861084 
L 231.469694 148.547801 
L 233.177685 147.524091 
L 234.885671 147.009546 
L 236.593661 146.727249 
L 238.301652 147.044153 
L 240.009638 148.096514 
L 241.717628 149.561602 
L 243.425619 152.202543 
L 245.133605 155.821257 
L 246.841595 161.737683 
L 248.549586 170.860284 
L 250.257577 190.756482 
L 251.965568 212.662659 
L 253.673553 175.428071 
L 255.381544 194.631907 
L 257.089535 268.880388 
L 258.79752 199.771282 
L 260.505511 188.070384 
L 262.213502 186.605346 
L 263.921487 193.635203 
L 265.629478 217.374216 
L 267.337464 204.596091 
L 269.045455 175.08768 
" clip-path="url(#p50890b899f)" style="fill: none; stroke: #1f77b4; stroke-width: 1.5; stroke-linecap: square"/>
   </g>
   <g id="line2d_50">
    <path d="M 57.681818 55.974104 
L 60.224539 59.199287 
L 65.945658 67.165548 
L 69.124057 71.977712 
L 72.938143 78.319965 
L 76.752219 85.171152 
L 79.930628 91.823636 
L 84.380382 102.084544 
L 85.016069 104.074574 
L 86.923103 109.057101 
L 88.194468 112.736361 
L 88.830146 115.339776 
L 89.465823 117.056868 
L 91.372866 124.380542 
L 92.008544 125.992062 
L 92.644232 129.588043 
L 93.27991 131.534544 
L 94.551265 137.676754 
L 95.186953 141.85483 
L 95.82263 143.873388 
L 97.093986 152.907905 
L 97.729674 159.650532 
L 98.365351 162.287355 
L 99.636707 178.976939 
L 100.272389 181.826997 
L 100.908072 197.76526 
L 101.54375 247.640553 
L 102.179432 224.394838 
L 102.81511 209.898321 
L 103.450788 204.49706 
L 104.086466 189.702443 
L 104.722148 183.79803 
L 105.357826 182.398785 
L 105.993509 178.89378 
L 106.629186 183.418456 
L 107.264869 185.655704 
L 107.900547 177.843822 
L 108.536229 185.014276 
L 109.171907 189.478996 
L 109.80759 191.215991 
L 110.443268 192.618719 
L 111.07895 211.555738 
L 111.714628 237.565835 
L 112.350311 244.613245 
L 112.985988 219.561483 
L 113.621671 200.257727 
L 114.257349 185.762663 
L 114.893032 178.865804 
L 115.528709 176.218478 
L 116.164392 178.875452 
L 116.80007 188.551306 
L 117.435752 224.880412 
L 118.07143 220.634113 
L 118.707108 198.315868 
L 119.342785 185.415832 
L 121.249829 165.420415 
L 121.885506 163.532041 
L 122.521189 163.562873 
L 123.792549 157.125017 
L 124.428227 154.46724 
L 125.699587 151.406362 
L 126.33527 151.217036 
L 126.970948 151.280846 
L 127.606631 150.913948 
L 128.242308 149.972058 
L 128.877991 147.601677 
L 129.513669 147.527022 
L 130.149351 147.743812 
L 130.785029 148.956144 
L 131.420712 147.661521 
L 132.056389 147.025325 
L 132.692072 147.839189 
L 133.32775 146.845094 
L 133.963433 146.598857 
L 134.59911 148.526748 
L 135.234793 147.199886 
L 135.870471 147.801449 
L 136.506153 147.113575 
L 137.141831 149.732881 
L 137.777514 150.344794 
L 138.413192 150.327746 
L 139.048874 149.41983 
L 139.684552 149.64922 
L 140.320235 150.602321 
L 140.955912 153.831972 
L 141.591595 154.320951 
L 142.227275 155.971253 
L 142.862955 156.510941 
L 144.134316 157.967102 
L 144.769996 157.842768 
L 146.041356 160.404483 
L 146.677037 165.326106 
L 147.312717 164.965829 
L 147.948397 167.856048 
L 148.584077 169.077273 
L 149.219757 172.963274 
L 149.855438 174.00494 
L 150.491118 177.418853 
L 151.126798 186.468337 
L 151.762478 187.740482 
L 152.398159 202.300366 
L 153.033839 201.281372 
L 153.669519 206.468517 
L 154.305199 240.073118 
L 154.940879 307.8 
L 155.57656 221.340707 
L 156.21224 216.936118 
L 156.84792 190.329173 
L 157.4836 193.400973 
L 158.11928 180.970268 
L 158.754961 177.453987 
L 159.390641 173.267131 
L 160.026321 175.755465 
L 160.662001 168.052648 
L 161.297681 169.223848 
L 161.933362 164.70787 
L 162.569042 161.511939 
L 163.204722 162.234146 
L 163.840402 160.282204 
L 164.476082 159.214699 
L 165.111763 158.98178 
L 165.747443 155.194829 
L 166.383123 156.601925 
L 167.018803 152.710556 
L 168.290164 150.28635 
L 168.925844 151.113708 
L 169.561524 151.100467 
L 170.197204 148.805411 
L 170.832884 147.640049 
L 171.468565 148.988504 
L 172.104245 147.302926 
L 172.739925 147.156599 
L 173.375605 145.947377 
L 174.011285 145.90334 
L 175.282646 144.741064 
L 175.918326 145.047456 
L 176.554006 142.693015 
L 177.189686 142.337875 
L 177.825367 143.084916 
L 178.461046 142.752101 
L 179.096726 142.808641 
L 179.732397 143.109425 
L 180.368077 142.981699 
L 181.003758 141.411113 
L 181.639438 142.217753 
L 182.275118 142.202668 
L 182.910798 141.537668 
L 183.546478 141.742391 
L 184.182158 141.704902 
L 184.817839 141.343826 
L 186.089199 141.809525 
L 186.724879 142.032038 
L 187.360559 142.495401 
L 187.99624 140.94345 
L 188.631919 142.372706 
L 189.2676 141.877195 
L 189.90328 142.743124 
L 190.538961 142.544676 
L 191.174641 141.93501 
L 191.810321 142.736499 
L 192.446001 144.553045 
L 193.081681 143.521874 
L 193.717361 143.320862 
L 194.353041 144.525483 
L 194.988722 144.536961 
L 195.624402 144.681128 
L 196.260083 146.596169 
L 196.895763 146.753829 
L 197.531443 148.581493 
L 198.167123 148.639207 
L 198.802803 148.115773 
L 199.438484 149.19526 
L 200.074164 151.7081 
L 200.709844 152.926525 
L 201.345524 153.760665 
L 201.981204 155.385111 
L 202.616885 156.19629 
L 203.252565 156.493105 
L 203.888245 156.095276 
L 204.523925 158.413378 
L 205.159605 161.936976 
L 205.795286 163.800873 
L 206.430966 162.516982 
L 207.066646 167.705015 
L 208.338006 168.752463 
L 208.973687 174.583594 
L 209.609367 176.376975 
L 210.245037 179.827671 
L 210.880717 184.80013 
L 211.516397 191.877375 
L 213.423438 226.542196 
L 214.059118 212.231023 
L 214.694798 229.601312 
L 215.330479 208.047772 
L 215.966159 209.09464 
L 216.601839 199.408152 
L 218.50888 183.590153 
L 219.14456 173.351774 
L 219.78024 174.371397 
L 220.41592 173.377689 
L 221.0516 168.585992 
L 221.687281 165.106455 
L 222.322961 167.238942 
L 222.958641 162.034271 
L 224.230001 157.955008 
L 224.865682 158.487389 
L 225.501362 157.987645 
L 226.137042 156.384357 
L 226.772722 155.264468 
L 227.4084 152.719406 
L 228.044083 151.602129 
L 229.315443 152.911357 
L 229.951121 151.690068 
L 230.586803 149.40744 
L 231.222481 149.510868 
L 231.858164 148.226942 
L 232.493842 148.170018 
L 233.129524 148.715115 
L 234.400885 149.086324 
L 235.036562 146.658306 
L 235.672245 148.625387 
L 236.307923 146.827428 
L 236.943605 148.27217 
L 237.579283 149.039341 
L 238.214966 148.13297 
L 238.850644 149.644393 
L 239.486326 147.651196 
L 240.122004 148.727335 
L 240.757687 150.65676 
L 241.393364 150.193844 
L 242.029047 151.014527 
L 242.664725 151.631777 
L 243.300408 154.525695 
L 243.936085 155.528877 
L 244.571768 156.77466 
L 245.207446 156.890259 
L 245.843128 158.388036 
L 246.478806 162.774778 
L 247.114489 166.28772 
L 247.750166 167.792697 
L 248.385849 172.766615 
L 249.021527 183.17333 
L 249.65721 189.022226 
L 250.292887 203.404153 
L 250.92857 233.438605 
L 251.564248 236.659988 
L 252.19993 199.165279 
L 252.835608 181.485244 
L 253.471291 175.041139 
L 254.106968 172.272249 
L 255.378329 189.361373 
L 256.014012 189.283688 
L 256.649689 205.800631 
L 257.285372 217.127809 
L 257.92105 226.119031 
L 258.556732 210.874067 
L 259.19241 212.698301 
L 259.828093 194.665033 
L 260.463771 191.813605 
L 261.099453 194.771392 
L 261.735131 191.680165 
L 262.370814 189.511422 
L 263.006491 203.352249 
L 263.642174 211.637648 
L 264.277852 210.292213 
L 264.913534 217.065219 
L 265.549212 220.046449 
L 266.184895 240.094008 
L 266.820573 201.113369 
L 267.456255 187.814509 
L 268.091933 182.156525 
L 268.727616 175.45712 
L 269.363293 166.075457 
L 269.998971 163.989072 
L 270.634659 156.035309 
L 271.270337 153.405256 
L 271.906014 148.729341 
L 274.448735 134.743935 
L 275.084413 132.468645 
L 275.7201 129.242592 
L 276.355778 126.605988 
L 276.991456 124.946216 
L 277.627134 122.685035 
L 278.262821 119.731709 
L 278.898499 117.599092 
L 279.534177 116.105607 
L 280.169854 113.837773 
L 281.44121 110.23066 
L 282.712565 106.340918 
L 285.255286 99.814214 
L 286.526651 96.822259 
L 287.798007 93.873301 
L 288.433694 92.638329 
L 289.069372 91.121509 
L 290.976415 87.327402 
L 292.247771 84.692044 
L 294.154814 81.1726 
L 301.147299 69.688698 
L 307.504096 60.681343 
L 311.318182 55.8 
L 311.318182 55.8 
" clip-path="url(#p50890b899f)" style="fill: none; stroke: #ff7f0e; stroke-width: 1.5; stroke-linecap: square"/>
   </g>
   <g id="patch_3">
    <path d="M 45 320.4 
L 45 43.2 
" style="fill: none; stroke: #000000; stroke-width: 0.8; stroke-linejoin: miter; stroke-linecap: square"/>
   </g>
   <g id="patch_4">
    <path d="M 324 320.4 
L 324 43.2 
" style="fill: none; stroke: #000000; stroke-width: 0.8; stroke-linejoin: miter; stroke-linecap: square"/>
   </g>
   <g id="patch_5">
    <path d="M 45 320.4 
L 324 320.4 
" style="fill: none; stroke: #000000; stroke-width: 0.8; stroke-linejoin: miter; stroke-linecap: square"/>
   </g>
   <g id="patch_6">
    <path d="M 45 43.2 
L 324 43.2 
" style="fill: none; stroke: #000000; stroke-width: 0.8; stroke-linejoin: miter; stroke-linecap: square"/>
   </g>
   <g id="text_12">
    <!-- Prediction Error -->
    <g transform="translate(138.166875 37.2)scale(0.12 -0.12)">
     <defs>
      <path id="DejaVuSans-50" d="M 1259 4147 
L 1259 2394 
L 2053 2394 
Q 2494 2394 2734 2622 
Q 2975 2850 2975 3272 
Q 2975 3691 2734 3919 
Q 2494 4147 2053 4147 
L 1259 4147 
z
M 628 4666 
L 2053 4666 
Q 2838 4666 3239 4311 
Q 3641 3956 3641 3272 
Q 3641 2581 3239 2228 
Q 2838 1875 2053 1875 
L 1259 1875 
L 1259 0 
L 628 0 
L 628 4666 
z
" transform="scale(0.015625)"/>
      <path id="DejaVuSans-72" d="M 2631 2963 
Q 2534 3019 2420 3045 
Q 2306 3072 2169 3072 
Q 1681 3072 1420 2755 
Q 1159 2438 1159 1844 
L 1159 0 
L 581 0 
L 581 3500 
L 1159 3500 
L 1159 2956 
Q 1341 3275 1631 3429 
Q 1922 3584 2338 3584 
Q 2397 3584 2469 3576 
Q 2541 3569 2628 3553 
L 2631 2963 
z
" transform="scale(0.015625)"/>
      <path id="DejaVuSans-65" d="M 3597 1894 
L 3597 1613 
L 953 1613 
Q 991 1019 1311 708 
Q 1631 397 2203 397 
Q 2534 397 2845 478 
Q 3156 559 3463 722 
L 3463 178 
Q 3153 47 2828 -22 
Q 2503 -91 2169 -91 
Q 1331 -91 842 396 
Q 353 884 353 1716 
Q 353 2575 817 3079 
Q 1281 3584 2069 3584 
Q 2775 3584 3186 3129 
Q 3597 2675 3597 1894 
z
M 3022 2063 
Q 3016 2534 2758 2815 
Q 2500 3097 2075 3097 
Q 1594 3097 1305 2825 
Q 1016 2553 972 2059 
L 3022 2063 
z
" transform="scale(0.015625)"/>
      <path id="DejaVuSans-64" d="M 2906 2969 
L 2906 4863 
L 3481 4863 
L 3481 0 
L 2906 0 
L 2906 525 
Q 2725 213 2448 61 
Q 2172 -91 1784 -91 
Q 1150 -91 751 415 
Q 353 922 353 1747 
Q 353 2572 751 3078 
Q 1150 3584 1784 3584 
Q 2172 3584 2448 3432 
Q 2725 3281 2906 2969 
z
M 947 1747 
Q 947 1113 1208 752 
Q 1469 391 1925 391 
Q 2381 391 2643 752 
Q 2906 1113 2906 1747 
Q 2906 2381 2643 2742 
Q 2381 3103 1925 3103 
Q 1469 3103 1208 2742 
Q 947 2381 947 1747 
z
" transform="scale(0.015625)"/>
      <path id="DejaVuSans-69" d="M 603 3500 
L 1178 3500 
L 1178 0 
L 603 0 
L 603 3500 
z
M 603 4863 
L 1178 4863 
L 1178 4134 
L 603 4134 
L 603 4863 
z
" transform="scale(0.015625)"/>
      <path id="DejaVuSans-63" d="M 3122 3366 
L 3122 2828 
Q 2878 2963 2633 3030 
Q 2388 3097 2138 3097 
Q 1578 3097 1268 2742 
Q 959 2388 959 1747 
Q 959 1106 1268 751 
Q 1578 397 2138 397 
Q 2388 397 2633 464 
Q 2878 531 3122 666 
L 3122 134 
Q 2881 22 2623 -34 
Q 2366 -91 2075 -91 
Q 1284 -91 818 406 
Q 353 903 353 1747 
Q 353 2603 823 3093 
Q 1294 3584 2113 3584 
Q 2378 3584 2631 3529 
Q 2884 3475 3122 3366 
z
" transform="scale(0.015625)"/>
      <path id="DejaVuSans-74" d="M 1172 4494 
L 1172 3500 
L 2356 3500 
L 2356 3053 
L 1172 3053 
L 1172 1153 
Q 1172 725 1289 603 
Q 1406 481 1766 481 
L 2356 481 
L 2356 0 
L 1766 0 
Q 1100 0 847 248 
Q 594 497 594 1153 
L 594 3053 
L 172 3053 
L 172 3500 
L 594 3500 
L 594 4494 
L 1172 4494 
z
" transform="scale(0.015625)"/>
      <path id="DejaVuSans-6f" d="M 1959 3097 
Q 1497 3097 1228 2736 
Q 959 2375 959 1747 
Q 959 1119 1226 758 
Q 1494 397 1959 397 
Q 2419 397 2687 759 
Q 2956 1122 2956 1747 
Q 2956 2369 2687 2733 
Q 2419 3097 1959 3097 
z
M 1959 3584 
Q 2709 3584 3137 3096 
Q 3566 2609 3566 1747 
Q 3566 888 3137 398 
Q 2709 -91 1959 -91 
Q 1206 -91 779 398 
Q 353 888 353 1747 
Q 353 2609 779 3096 
Q 1206 3584 1959 3584 
z
" transform="scale(0.015625)"/>
      <path id="DejaVuSans-6e" d="M 3513 2113 
L 3513 0 
L 2938 0 
L 2938 2094 
Q 2938 2591 2744 2837 
Q 2550 3084 2163 3084 
Q 1697 3084 1428 2787 
Q 1159 2491 1159 1978 
L 1159 0 
L 581 0 
L 581 3500 
L 1159 3500 
L 1159 2956 
Q 1366 3272 1645 3428 
Q 1925 3584 2291 3584 
Q 2894 3584 3203 3211 
Q 3513 2838 3513 2113 
z
" transform="scale(0.015625)"/>
      <path id="DejaVuSans-20" transform="scale(0.015625)"/>
      <path id="DejaVuSans-45" d="M 628 4666 
L 3578 4666 
L 3578 4134 
L 1259 4134 
L 1259 2753 
L 3481 2753 
L 3481 2222 
L 1259 2222 
L 1259 531 
L 3634 531 
L 3634 0 
L 628 0 
L 628 4666 
z
" transform="scale(0.015625)"/>
     </defs>
     <use xlink:href="#DejaVuSans-50"/>
     <use xlink:href="#DejaVuSans-72" x="58.552734"/>
     <use xlink:href="#DejaVuSans-65" x="97.416016"/>
     <use xlink:href="#DejaVuSans-64" x="158.939453"/>
     <use xlink:href="#DejaVuSans-69" x="222.416016"/>
     <use xlink:href="#DejaVuSans-63" x="250.199219"/>
     <use xlink:href="#DejaVuSans-74" x="305.179688"/>
     <use xlink:href="#DejaVuSans-69" x="344.388672"/>
     <use xlink:href="#DejaVuSans-6f" x="372.171875"/>
     <use xlink:href="#DejaVuSans-6e" x="433.353516"/>
     <use xlink:href="#DejaVuSans-20" x="496.732422"/>
     <use xlink:href="#DejaVuSans-45" x="528.519531"/>
     <use xlink:href="#DejaVuSans-72" x="591.703125"/>
     <use xlink:href="#DejaVuSans-72" x="631.066406"/>
     <use xlink:href="#DejaVuSans-6f" x="669.929688"/>
     <use xlink:href="#DejaVuSans-72" x="731.111328"/>
    </g>
   </g>
   <g id="legend_1">
    <g id="patch_7">
     <path d="M 52 315.4 
L 134.657813 315.4 
Q 136.657813 315.4 136.657813 313.4 
L 136.657813 285.04375 
Q 136.657813 283.04375 134.657813 283.04375 
L 52 283.04375 
Q 50 283.04375 50 285.04375 
L 50 313.4 
Q 50 315.4 52 315.4 
z
" style="fill: #ffffff; opacity: 0.8; stroke: #cccccc; stroke-linejoin: miter"/>
    </g>
    <g id="line2d_51">
     <path d="M 54 291.142187 
L 64 291.142187 
L 74 291.142187 
" style="fill: none; stroke: #1f77b4; stroke-width: 1.5; stroke-linecap: square"/>
    </g>
    <g id="text_13">
     <!-- train error -->
     <g transform="translate(82 294.642187)scale(0.1 -0.1)">
      <defs>
       <path id="DejaVuSans-61" d="M 2194 1759 
Q 1497 1759 1228 1600 
Q 959 1441 959 1056 
Q 959 750 1161 570 
Q 1363 391 1709 391 
Q 2188 391 2477 730 
Q 2766 1069 2766 1631 
L 2766 1759 
L 2194 1759 
z
M 3341 1997 
L 3341 0 
L 2766 0 
L 2766 531 
Q 2569 213 2275 61 
Q 1981 -91 1556 -91 
Q 1019 -91 701 211 
Q 384 513 384 1019 
Q 384 1609 779 1909 
Q 1175 2209 1959 2209 
L 2766 2209 
L 2766 2266 
Q 2766 2663 2505 2880 
Q 2244 3097 1772 3097 
Q 1472 3097 1187 3025 
Q 903 2953 641 2809 
L 641 3341 
Q 956 3463 1253 3523 
Q 1550 3584 1831 3584 
Q 2591 3584 2966 3190 
Q 3341 2797 3341 1997 
z
" transform="scale(0.015625)"/>
      </defs>
      <use xlink:href="#DejaVuSans-74"/>
      <use xlink:href="#DejaVuSans-72" x="39.208984"/>
      <use xlink:href="#DejaVuSans-61" x="80.322266"/>
      <use xlink:href="#DejaVuSans-69" x="141.601562"/>
      <use xlink:href="#DejaVuSans-6e" x="169.384766"/>
      <use xlink:href="#DejaVuSans-20" x="232.763672"/>
      <use xlink:href="#DejaVuSans-65" x="264.550781"/>
      <use xlink:href="#DejaVuSans-72" x="326.074219"/>
      <use xlink:href="#DejaVuSans-72" x="365.4375"/>
      <use xlink:href="#DejaVuSans-6f" x="404.300781"/>
      <use xlink:href="#DejaVuSans-72" x="465.482422"/>
     </g>
    </g>
    <g id="line2d_52">
     <path d="M 54 305.820312 
L 64 305.820312 
L 74 305.820312 
" style="fill: none; stroke: #ff7f0e; stroke-width: 1.5; stroke-linecap: square"/>
    </g>
    <g id="text_14">
     <!-- test error -->
     <g transform="translate(82 309.320312)scale(0.1 -0.1)">
      <defs>
       <path id="DejaVuSans-73" d="M 2834 3397 
L 2834 2853 
Q 2591 2978 2328 3040 
Q 2066 3103 1784 3103 
Q 1356 3103 1142 2972 
Q 928 2841 928 2578 
Q 928 2378 1081 2264 
Q 1234 2150 1697 2047 
L 1894 2003 
Q 2506 1872 2764 1633 
Q 3022 1394 3022 966 
Q 3022 478 2636 193 
Q 2250 -91 1575 -91 
Q 1294 -91 989 -36 
Q 684 19 347 128 
L 347 722 
Q 666 556 975 473 
Q 1284 391 1588 391 
Q 1994 391 2212 530 
Q 2431 669 2431 922 
Q 2431 1156 2273 1281 
Q 2116 1406 1581 1522 
L 1381 1569 
Q 847 1681 609 1914 
Q 372 2147 372 2553 
Q 372 3047 722 3315 
Q 1072 3584 1716 3584 
Q 2034 3584 2315 3537 
Q 2597 3491 2834 3397 
z
" transform="scale(0.015625)"/>
      </defs>
      <use xlink:href="#DejaVuSans-74"/>
      <use xlink:href="#DejaVuSans-65" x="39.208984"/>
      <use xlink:href="#DejaVuSans-73" x="100.732422"/>
      <use xlink:href="#DejaVuSans-74" x="152.832031"/>
      <use xlink:href="#DejaVuSans-20" x="192.041016"/>
      <use xlink:href="#DejaVuSans-65" x="223.828125"/>
      <use xlink:href="#DejaVuSans-72" x="285.351562"/>
      <use xlink:href="#DejaVuSans-72" x="324.714844"/>
      <use xlink:href="#DejaVuSans-6f" x="363.578125"/>
      <use xlink:href="#DejaVuSans-72" x="424.759766"/>
     </g>
    </g>
   </g>
  </g>
 </g>
 <defs>
  <clipPath id="p50890b899f">
   <rect x="45" y="43.2" width="279" height="277.2"/>
  </clipPath>
 </defs>
</svg>
