<?xml version="1.0" encoding="utf-8" standalone="no"?>
<!DOCTYPE svg PUBLIC "-//W3C//DTD SVG 1.1//EN"
  "http://www.w3.org/Graphics/SVG/1.1/DTD/svg11.dtd">
<svg xmlns:xlink="http://www.w3.org/1999/xlink" width="360pt" height="360pt" viewBox="0 0 360 360" xmlns="http://www.w3.org/2000/svg" version="1.1">
 <metadata>
  <rdf:RDF xmlns:dc="http://purl.org/dc/elements/1.1/" xmlns:cc="http://creativecommons.org/ns#" xmlns:rdf="http://www.w3.org/1999/02/22-rdf-syntax-ns#">
   <cc:Work>
    <dc:type rdf:resource="http://purl.org/dc/dcmitype/StillImage"/>
    <dc:date>2022-11-15T12:51:58.381183</dc:date>
    <dc:format>image/svg+xml</dc:format>
    <dc:creator>
     <cc:Agent>
      <dc:title>Matplotlib v3.5.3, https://matplotlib.org/</dc:title>
     </cc:Agent>
    </dc:creator>
   </cc:Work>
  </rdf:RDF>
 </metadata>
 <defs>
  <style type="text/css">*{stroke-linejoin: round; stroke-linecap: butt}</style>
 </defs>
 <g id="figure_1">
  <g id="patch_1">
   <path d="M 0 360 
L 360 360 
L 360 0 
L 0 0 
z
" style="fill: #ffffff"/>
  </g>
  <g id="axes_1">
   <g id="patch_2">
    <path d="M 45 320.4 
L 324 320.4 
L 324 43.2 
L 45 43.2 
z
" style="fill: #ffffff"/>
   </g>
   <g id="patch_3">
    <path d="M 57.681818 320.4 
L 63.02153 320.4 
L 63.02153 56.4 
L 57.681818 56.4 
z
" clip-path="url(#pa07a6049b1)" style="fill: #1f77b4"/>
   </g>
   <g id="patch_4">
    <path d="M 124.428225 320.4 
L 129.767936 320.4 
L 129.767936 320.4 
L 124.428225 320.4 
z
" clip-path="url(#pa07a6049b1)" style="fill: #1f77b4"/>
   </g>
   <g id="patch_5">
    <path d="M 191.174637 320.4 
L 196.514356 320.4 
L 196.514356 320.4 
L 191.174637 320.4 
z
" clip-path="url(#pa07a6049b1)" style="fill: #1f77b4"/>
   </g>
   <g id="patch_6">
    <path d="M 257.921057 320.4 
L 263.260776 320.4 
L 263.260776 320.4 
L 257.921057 320.4 
z
" clip-path="url(#pa07a6049b1)" style="fill: #1f77b4"/>
   </g>
   <g id="patch_7">
    <path d="M 63.02153 320.4 
L 68.361243 320.4 
L 68.361243 320.4 
L 63.02153 320.4 
z
" clip-path="url(#pa07a6049b1)" style="fill: #ff7f0e"/>
   </g>
   <g id="patch_8">
    <path d="M 129.767936 320.4 
L 135.107646 320.4 
L 135.107646 320.4 
L 129.767936 320.4 
z
" clip-path="url(#pa07a6049b1)" style="fill: #ff7f0e"/>
   </g>
   <g id="patch_9">
    <path d="M 196.514356 320.4 
L 201.854074 320.4 
L 201.854074 320.4 
L 196.514356 320.4 
z
" clip-path="url(#pa07a6049b1)" style="fill: #ff7f0e"/>
   </g>
   <g id="patch_10">
    <path d="M 263.260761 320.4 
L 268.600479 320.4 
L 268.600479 56.4 
L 263.260761 56.4 
z
" clip-path="url(#pa07a6049b1)" style="fill: #ff7f0e"/>
   </g>
   <g id="patch_11">
    <path d="M 68.361245 320.4 
L 73.700956 320.4 
L 73.700956 56.4 
L 68.361245 56.4 
z
" clip-path="url(#pa07a6049b1)" style="fill: #2ca02c"/>
   </g>
   <g id="patch_12">
    <path d="M 135.107646 320.4 
L 140.447357 320.4 
L 140.447357 320.4 
L 135.107646 320.4 
z
" clip-path="url(#pa07a6049b1)" style="fill: #2ca02c"/>
   </g>
   <g id="patch_13">
    <path d="M 201.854059 320.4 
L 207.193778 320.4 
L 207.193778 320.4 
L 201.854059 320.4 
z
" clip-path="url(#pa07a6049b1)" style="fill: #2ca02c"/>
   </g>
   <g id="patch_14">
    <path d="M 268.600479 320.4 
L 273.940183 320.4 
L 273.940183 320.4 
L 268.600479 320.4 
z
" clip-path="url(#pa07a6049b1)" style="fill: #2ca02c"/>
   </g>
   <g id="patch_15">
    <path d="M 73.700956 320.4 
L 79.040667 320.4 
L 79.040667 56.4 
L 73.700956 56.4 
z
" clip-path="url(#pa07a6049b1)" style="fill: #d62728"/>
   </g>
   <g id="patch_16">
    <path d="M 140.447357 320.4 
L 145.787076 320.4 
L 145.787076 320.4 
L 140.447357 320.4 
z
" clip-path="url(#pa07a6049b1)" style="fill: #d62728"/>
   </g>
   <g id="patch_17">
    <path d="M 207.193778 320.4 
L 212.533496 320.4 
L 212.533496 320.4 
L 207.193778 320.4 
z
" clip-path="url(#pa07a6049b1)" style="fill: #d62728"/>
   </g>
   <g id="patch_18">
    <path d="M 273.940198 320.4 
L 279.279901 320.4 
L 279.279901 320.4 
L 273.940198 320.4 
z
" clip-path="url(#pa07a6049b1)" style="fill: #d62728"/>
   </g>
   <g id="patch_19">
    <path d="M 79.04067 320.4 
L 84.380381 320.4 
L 84.380381 56.4 
L 79.04067 56.4 
z
" clip-path="url(#pa07a6049b1)" style="fill: #9467bd"/>
   </g>
   <g id="patch_20">
    <path d="M 145.787076 320.4 
L 151.126794 320.4 
L 151.126794 320.4 
L 145.787076 320.4 
z
" clip-path="url(#pa07a6049b1)" style="fill: #9467bd"/>
   </g>
   <g id="patch_21">
    <path d="M 212.533496 320.4 
L 217.873214 320.4 
L 217.873214 320.4 
L 212.533496 320.4 
z
" clip-path="url(#pa07a6049b1)" style="fill: #9467bd"/>
   </g>
   <g id="patch_22">
    <path d="M 279.279901 320.4 
L 284.61962 320.4 
L 284.61962 320.4 
L 279.279901 320.4 
z
" clip-path="url(#pa07a6049b1)" style="fill: #9467bd"/>
   </g>
   <g id="patch_23">
    <path d="M 84.380381 320.4 
L 89.720092 320.4 
L 89.720092 320.4 
L 84.380381 320.4 
z
" clip-path="url(#pa07a6049b1)" style="fill: #8c564b"/>
   </g>
   <g id="patch_24">
    <path d="M 151.126787 320.4 
L 156.466498 320.4 
L 156.466498 56.4 
L 151.126787 56.4 
z
" clip-path="url(#pa07a6049b1)" style="fill: #8c564b"/>
   </g>
   <g id="patch_25">
    <path d="M 217.8732 320.4 
L 223.212918 320.4 
L 223.212918 320.4 
L 217.8732 320.4 
z
" clip-path="url(#pa07a6049b1)" style="fill: #8c564b"/>
   </g>
   <g id="patch_26">
    <path d="M 284.61962 320.4 
L 289.959338 320.4 
L 289.959338 320.4 
L 284.61962 320.4 
z
" clip-path="url(#pa07a6049b1)" style="fill: #8c564b"/>
   </g>
   <g id="patch_27">
    <path d="M 89.720092 320.4 
L 95.059803 320.4 
L 95.059803 56.4 
L 89.720092 56.4 
z
" clip-path="url(#pa07a6049b1)" style="fill: #e377c2"/>
   </g>
   <g id="patch_28">
    <path d="M 156.466498 320.4 
L 161.806216 320.4 
L 161.806216 320.4 
L 156.466498 320.4 
z
" clip-path="url(#pa07a6049b1)" style="fill: #e377c2"/>
   </g>
   <g id="patch_29">
    <path d="M 223.212918 320.4 
L 228.552636 320.4 
L 228.552636 320.4 
L 223.212918 320.4 
z
" clip-path="url(#pa07a6049b1)" style="fill: #e377c2"/>
   </g>
   <g id="patch_30">
    <path d="M 289.959338 320.4 
L 295.299056 320.4 
L 295.299056 320.4 
L 289.959338 320.4 
z
" clip-path="url(#pa07a6049b1)" style="fill: #e377c2"/>
   </g>
   <g id="patch_31">
    <path d="M 95.059803 320.4 
L 100.399514 320.4 
L 100.399514 56.4 
L 95.059803 56.4 
z
" clip-path="url(#pa07a6049b1)" style="fill: #7f7f7f"/>
   </g>
   <g id="patch_32">
    <path d="M 161.806216 320.4 
L 167.145934 320.4 
L 167.145934 320.4 
L 161.806216 320.4 
z
" clip-path="url(#pa07a6049b1)" style="fill: #7f7f7f"/>
   </g>
   <g id="patch_33">
    <path d="M 228.552636 320.4 
L 233.892354 320.4 
L 233.892354 320.4 
L 228.552636 320.4 
z
" clip-path="url(#pa07a6049b1)" style="fill: #7f7f7f"/>
   </g>
   <g id="patch_34">
    <path d="M 295.299056 320.4 
L 300.638775 320.4 
L 300.638775 320.4 
L 295.299056 320.4 
z
" clip-path="url(#pa07a6049b1)" style="fill: #7f7f7f"/>
   </g>
   <g id="patch_35">
    <path d="M 100.399514 320.4 
L 105.739232 320.4 
L 105.739232 56.4 
L 100.399514 56.4 
z
" clip-path="url(#pa07a6049b1)" style="fill: #bcbd22"/>
   </g>
   <g id="patch_36">
    <path d="M 167.145934 320.4 
L 172.485653 320.4 
L 172.485653 320.4 
L 167.145934 320.4 
z
" clip-path="url(#pa07a6049b1)" style="fill: #bcbd22"/>
   </g>
   <g id="patch_37">
    <path d="M 233.892354 320.4 
L 239.232073 320.4 
L 239.232073 320.4 
L 233.892354 320.4 
z
" clip-path="url(#pa07a6049b1)" style="fill: #bcbd22"/>
   </g>
   <g id="patch_38">
    <path d="M 300.638775 320.4 
L 305.978493 320.4 
L 305.978493 320.4 
L 300.638775 320.4 
z
" clip-path="url(#pa07a6049b1)" style="fill: #bcbd22"/>
   </g>
   <g id="patch_39">
    <path d="M 105.739232 320.4 
L 111.078943 320.4 
L 111.078943 56.4 
L 105.739232 56.4 
z
" clip-path="url(#pa07a6049b1)" style="fill: #17becf"/>
   </g>
   <g id="patch_40">
    <path d="M 172.485638 320.4 
L 177.825342 320.4 
L 177.825342 320.4 
L 172.485638 320.4 
z
" clip-path="url(#pa07a6049b1)" style="fill: #17becf"/>
   </g>
   <g id="patch_41">
    <path d="M 239.232073 320.4 
L 244.571776 320.4 
L 244.571776 320.4 
L 239.232073 320.4 
z
" clip-path="url(#pa07a6049b1)" style="fill: #17becf"/>
   </g>
   <g id="patch_42">
    <path d="M 305.978464 320.4 
L 311.318182 320.4 
L 311.318182 320.4 
L 305.978464 320.4 
z
" clip-path="url(#pa07a6049b1)" style="fill: #17becf"/>
   </g>
   <g id="matplotlib.axis_1">
    <g id="xtick_1">
     <g id="line2d_1">
      <defs>
       <path id="mbb5b8a90fd" d="M 0 0 
L 0 3.5 
" style="stroke: #000000; stroke-width: 0.8"/>
      </defs>
      <g>
       <use xlink:href="#mbb5b8a90fd" x="75.039404" y="320.4" style="stroke: #000000; stroke-width: 0.8"/>
      </g>
     </g>
     <g id="text_1">
      <!-- 0.002 -->
      <g transform="translate(60.725341 334.998438)scale(0.1 -0.1)">
       <defs>
        <path id="DejaVuSans-30" d="M 2034 4250 
Q 1547 4250 1301 3770 
Q 1056 3291 1056 2328 
Q 1056 1369 1301 889 
Q 1547 409 2034 409 
Q 2525 409 2770 889 
Q 3016 1369 3016 2328 
Q 3016 3291 2770 3770 
Q 2525 4250 2034 4250 
z
M 2034 4750 
Q 2819 4750 3233 4129 
Q 3647 3509 3647 2328 
Q 3647 1150 3233 529 
Q 2819 -91 2034 -91 
Q 1250 -91 836 529 
Q 422 1150 422 2328 
Q 422 3509 836 4129 
Q 1250 4750 2034 4750 
z
" transform="scale(0.015625)"/>
        <path id="DejaVuSans-2e" d="M 684 794 
L 1344 794 
L 1344 0 
L 684 0 
L 684 794 
z
" transform="scale(0.015625)"/>
        <path id="DejaVuSans-32" d="M 1228 531 
L 3431 531 
L 3431 0 
L 469 0 
L 469 531 
Q 828 903 1448 1529 
Q 2069 2156 2228 2338 
Q 2531 2678 2651 2914 
Q 2772 3150 2772 3378 
Q 2772 3750 2511 3984 
Q 2250 4219 1831 4219 
Q 1534 4219 1204 4116 
Q 875 4013 500 3803 
L 500 4441 
Q 881 4594 1212 4672 
Q 1544 4750 1819 4750 
Q 2544 4750 2975 4387 
Q 3406 4025 3406 3419 
Q 3406 3131 3298 2873 
Q 3191 2616 2906 2266 
Q 2828 2175 2409 1742 
Q 1991 1309 1228 531 
z
" transform="scale(0.015625)"/>
       </defs>
       <use xlink:href="#DejaVuSans-30"/>
       <use xlink:href="#DejaVuSans-2e" x="63.623047"/>
       <use xlink:href="#DejaVuSans-30" x="95.410156"/>
       <use xlink:href="#DejaVuSans-30" x="159.033203"/>
       <use xlink:href="#DejaVuSans-32" x="222.65625"/>
      </g>
     </g>
    </g>
    <g id="xtick_2">
     <g id="line2d_2">
      <g>
       <use xlink:href="#mbb5b8a90fd" x="106.537016" y="320.4" style="stroke: #000000; stroke-width: 0.8"/>
      </g>
     </g>
     <g id="text_2">
      <!-- 0.004 -->
      <g transform="translate(92.222954 334.998438)scale(0.1 -0.1)">
       <defs>
        <path id="DejaVuSans-34" d="M 2419 4116 
L 825 1625 
L 2419 1625 
L 2419 4116 
z
M 2253 4666 
L 3047 4666 
L 3047 1625 
L 3713 1625 
L 3713 1100 
L 3047 1100 
L 3047 0 
L 2419 0 
L 2419 1100 
L 313 1100 
L 313 1709 
L 2253 4666 
z
" transform="scale(0.015625)"/>
       </defs>
       <use xlink:href="#DejaVuSans-30"/>
       <use xlink:href="#DejaVuSans-2e" x="63.623047"/>
       <use xlink:href="#DejaVuSans-30" x="95.410156"/>
       <use xlink:href="#DejaVuSans-30" x="159.033203"/>
       <use xlink:href="#DejaVuSans-34" x="222.65625"/>
      </g>
     </g>
    </g>
    <g id="xtick_3">
     <g id="line2d_3">
      <g>
       <use xlink:href="#mbb5b8a90fd" x="138.034628" y="320.4" style="stroke: #000000; stroke-width: 0.8"/>
      </g>
     </g>
     <g id="text_3">
      <!-- 0.006 -->
      <g transform="translate(123.720566 334.998438)scale(0.1 -0.1)">
       <defs>
        <path id="DejaVuSans-36" d="M 2113 2584 
Q 1688 2584 1439 2293 
Q 1191 2003 1191 1497 
Q 1191 994 1439 701 
Q 1688 409 2113 409 
Q 2538 409 2786 701 
Q 3034 994 3034 1497 
Q 3034 2003 2786 2293 
Q 2538 2584 2113 2584 
z
M 3366 4563 
L 3366 3988 
Q 3128 4100 2886 4159 
Q 2644 4219 2406 4219 
Q 1781 4219 1451 3797 
Q 1122 3375 1075 2522 
Q 1259 2794 1537 2939 
Q 1816 3084 2150 3084 
Q 2853 3084 3261 2657 
Q 3669 2231 3669 1497 
Q 3669 778 3244 343 
Q 2819 -91 2113 -91 
Q 1303 -91 875 529 
Q 447 1150 447 2328 
Q 447 3434 972 4092 
Q 1497 4750 2381 4750 
Q 2619 4750 2861 4703 
Q 3103 4656 3366 4563 
z
" transform="scale(0.015625)"/>
       </defs>
       <use xlink:href="#DejaVuSans-30"/>
       <use xlink:href="#DejaVuSans-2e" x="63.623047"/>
       <use xlink:href="#DejaVuSans-30" x="95.410156"/>
       <use xlink:href="#DejaVuSans-30" x="159.033203"/>
       <use xlink:href="#DejaVuSans-36" x="222.65625"/>
      </g>
     </g>
    </g>
    <g id="xtick_4">
     <g id="line2d_4">
      <g>
       <use xlink:href="#mbb5b8a90fd" x="169.532241" y="320.4" style="stroke: #000000; stroke-width: 0.8"/>
      </g>
     </g>
     <g id="text_4">
      <!-- 0.008 -->
      <g transform="translate(155.218178 334.998438)scale(0.1 -0.1)">
       <defs>
        <path id="DejaVuSans-38" d="M 2034 2216 
Q 1584 2216 1326 1975 
Q 1069 1734 1069 1313 
Q 1069 891 1326 650 
Q 1584 409 2034 409 
Q 2484 409 2743 651 
Q 3003 894 3003 1313 
Q 3003 1734 2745 1975 
Q 2488 2216 2034 2216 
z
M 1403 2484 
Q 997 2584 770 2862 
Q 544 3141 544 3541 
Q 544 4100 942 4425 
Q 1341 4750 2034 4750 
Q 2731 4750 3128 4425 
Q 3525 4100 3525 3541 
Q 3525 3141 3298 2862 
Q 3072 2584 2669 2484 
Q 3125 2378 3379 2068 
Q 3634 1759 3634 1313 
Q 3634 634 3220 271 
Q 2806 -91 2034 -91 
Q 1263 -91 848 271 
Q 434 634 434 1313 
Q 434 1759 690 2068 
Q 947 2378 1403 2484 
z
M 1172 3481 
Q 1172 3119 1398 2916 
Q 1625 2713 2034 2713 
Q 2441 2713 2670 2916 
Q 2900 3119 2900 3481 
Q 2900 3844 2670 4047 
Q 2441 4250 2034 4250 
Q 1625 4250 1398 4047 
Q 1172 3844 1172 3481 
z
" transform="scale(0.015625)"/>
       </defs>
       <use xlink:href="#DejaVuSans-30"/>
       <use xlink:href="#DejaVuSans-2e" x="63.623047"/>
       <use xlink:href="#DejaVuSans-30" x="95.410156"/>
       <use xlink:href="#DejaVuSans-30" x="159.033203"/>
       <use xlink:href="#DejaVuSans-38" x="222.65625"/>
      </g>
     </g>
    </g>
    <g id="xtick_5">
     <g id="line2d_5">
      <g>
       <use xlink:href="#mbb5b8a90fd" x="201.029853" y="320.4" style="stroke: #000000; stroke-width: 0.8"/>
      </g>
     </g>
     <g id="text_5">
      <!-- 0.010 -->
      <g transform="translate(186.715791 334.998438)scale(0.1 -0.1)">
       <defs>
        <path id="DejaVuSans-31" d="M 794 531 
L 1825 531 
L 1825 4091 
L 703 3866 
L 703 4441 
L 1819 4666 
L 2450 4666 
L 2450 531 
L 3481 531 
L 3481 0 
L 794 0 
L 794 531 
z
" transform="scale(0.015625)"/>
       </defs>
       <use xlink:href="#DejaVuSans-30"/>
       <use xlink:href="#DejaVuSans-2e" x="63.623047"/>
       <use xlink:href="#DejaVuSans-30" x="95.410156"/>
       <use xlink:href="#DejaVuSans-31" x="159.033203"/>
       <use xlink:href="#DejaVuSans-30" x="222.65625"/>
      </g>
     </g>
    </g>
    <g id="xtick_6">
     <g id="line2d_6">
      <g>
       <use xlink:href="#mbb5b8a90fd" x="232.527465" y="320.4" style="stroke: #000000; stroke-width: 0.8"/>
      </g>
     </g>
     <g id="text_6">
      <!-- 0.012 -->
      <g transform="translate(218.213403 334.998438)scale(0.1 -0.1)">
       <use xlink:href="#DejaVuSans-30"/>
       <use xlink:href="#DejaVuSans-2e" x="63.623047"/>
       <use xlink:href="#DejaVuSans-30" x="95.410156"/>
       <use xlink:href="#DejaVuSans-31" x="159.033203"/>
       <use xlink:href="#DejaVuSans-32" x="222.65625"/>
      </g>
     </g>
    </g>
    <g id="xtick_7">
     <g id="line2d_7">
      <g>
       <use xlink:href="#mbb5b8a90fd" x="264.025078" y="320.4" style="stroke: #000000; stroke-width: 0.8"/>
      </g>
     </g>
     <g id="text_7">
      <!-- 0.014 -->
      <g transform="translate(249.711015 334.998438)scale(0.1 -0.1)">
       <use xlink:href="#DejaVuSans-30"/>
       <use xlink:href="#DejaVuSans-2e" x="63.623047"/>
       <use xlink:href="#DejaVuSans-30" x="95.410156"/>
       <use xlink:href="#DejaVuSans-31" x="159.033203"/>
       <use xlink:href="#DejaVuSans-34" x="222.65625"/>
      </g>
     </g>
    </g>
    <g id="xtick_8">
     <g id="line2d_8">
      <g>
       <use xlink:href="#mbb5b8a90fd" x="295.52269" y="320.4" style="stroke: #000000; stroke-width: 0.8"/>
      </g>
     </g>
     <g id="text_8">
      <!-- 0.016 -->
      <g transform="translate(281.208628 334.998438)scale(0.1 -0.1)">
       <use xlink:href="#DejaVuSans-30"/>
       <use xlink:href="#DejaVuSans-2e" x="63.623047"/>
       <use xlink:href="#DejaVuSans-30" x="95.410156"/>
       <use xlink:href="#DejaVuSans-31" x="159.033203"/>
       <use xlink:href="#DejaVuSans-36" x="222.65625"/>
      </g>
     </g>
    </g>
   </g>
   <g id="matplotlib.axis_2">
    <g id="ytick_1">
     <g id="line2d_9">
      <defs>
       <path id="mbdb87b8f73" d="M 0 0 
L -3.5 0 
" style="stroke: #000000; stroke-width: 0.8"/>
      </defs>
      <g>
       <use xlink:href="#mbdb87b8f73" x="45" y="320.4" style="stroke: #000000; stroke-width: 0.8"/>
      </g>
     </g>
     <g id="text_9">
      <!-- 0.0 -->
      <g transform="translate(22.096875 324.199219)scale(0.1 -0.1)">
       <use xlink:href="#DejaVuSans-30"/>
       <use xlink:href="#DejaVuSans-2e" x="63.623047"/>
       <use xlink:href="#DejaVuSans-30" x="95.410156"/>
      </g>
     </g>
    </g>
    <g id="ytick_2">
     <g id="line2d_10">
      <g>
       <use xlink:href="#mbdb87b8f73" x="45" y="267.6" style="stroke: #000000; stroke-width: 0.8"/>
      </g>
     </g>
     <g id="text_10">
      <!-- 0.2 -->
      <g transform="translate(22.096875 271.399219)scale(0.1 -0.1)">
       <use xlink:href="#DejaVuSans-30"/>
       <use xlink:href="#DejaVuSans-2e" x="63.623047"/>
       <use xlink:href="#DejaVuSans-32" x="95.410156"/>
      </g>
     </g>
    </g>
    <g id="ytick_3">
     <g id="line2d_11">
      <g>
       <use xlink:href="#mbdb87b8f73" x="45" y="214.8" style="stroke: #000000; stroke-width: 0.8"/>
      </g>
     </g>
     <g id="text_11">
      <!-- 0.4 -->
      <g transform="translate(22.096875 218.599219)scale(0.1 -0.1)">
       <use xlink:href="#DejaVuSans-30"/>
       <use xlink:href="#DejaVuSans-2e" x="63.623047"/>
       <use xlink:href="#DejaVuSans-34" x="95.410156"/>
      </g>
     </g>
    </g>
    <g id="ytick_4">
     <g id="line2d_12">
      <g>
       <use xlink:href="#mbdb87b8f73" x="45" y="162" style="stroke: #000000; stroke-width: 0.8"/>
      </g>
     </g>
     <g id="text_12">
      <!-- 0.6 -->
      <g transform="translate(22.096875 165.799219)scale(0.1 -0.1)">
       <use xlink:href="#DejaVuSans-30"/>
       <use xlink:href="#DejaVuSans-2e" x="63.623047"/>
       <use xlink:href="#DejaVuSans-36" x="95.410156"/>
      </g>
     </g>
    </g>
    <g id="ytick_5">
     <g id="line2d_13">
      <g>
       <use xlink:href="#mbdb87b8f73" x="45" y="109.2" style="stroke: #000000; stroke-width: 0.8"/>
      </g>
     </g>
     <g id="text_13">
      <!-- 0.8 -->
      <g transform="translate(22.096875 112.999219)scale(0.1 -0.1)">
       <use xlink:href="#DejaVuSans-30"/>
       <use xlink:href="#DejaVuSans-2e" x="63.623047"/>
       <use xlink:href="#DejaVuSans-38" x="95.410156"/>
      </g>
     </g>
    </g>
    <g id="ytick_6">
     <g id="line2d_14">
      <g>
       <use xlink:href="#mbdb87b8f73" x="45" y="56.4" style="stroke: #000000; stroke-width: 0.8"/>
      </g>
     </g>
     <g id="text_14">
      <!-- 1.0 -->
      <g transform="translate(22.096875 60.199219)scale(0.1 -0.1)">
       <use xlink:href="#DejaVuSans-31"/>
       <use xlink:href="#DejaVuSans-2e" x="63.623047"/>
       <use xlink:href="#DejaVuSans-30" x="95.410156"/>
      </g>
     </g>
    </g>
   </g>
   <g id="patch_43">
    <path d="M 45 320.4 
L 45 43.2 
" style="fill: none; stroke: #000000; stroke-width: 0.8; stroke-linejoin: miter; stroke-linecap: square"/>
   </g>
   <g id="patch_44">
    <path d="M 324 320.4 
L 324 43.2 
" style="fill: none; stroke: #000000; stroke-width: 0.8; stroke-linejoin: miter; stroke-linecap: square"/>
   </g>
   <g id="patch_45">
    <path d="M 45 320.4 
L 324 320.4 
" style="fill: none; stroke: #000000; stroke-width: 0.8; stroke-linejoin: miter; stroke-linecap: square"/>
   </g>
   <g id="patch_46">
    <path d="M 45 43.2 
L 324 43.2 
" style="fill: none; stroke: #000000; stroke-width: 0.8; stroke-linejoin: miter; stroke-linecap: square"/>
   </g>
   <g id="text_15">
    <!-- Histogram of sigma of last layer -->
    <g transform="translate(88.275937 37.2)scale(0.12 -0.12)">
     <defs>
      <path id="DejaVuSans-48" d="M 628 4666 
L 1259 4666 
L 1259 2753 
L 3553 2753 
L 3553 4666 
L 4184 4666 
L 4184 0 
L 3553 0 
L 3553 2222 
L 1259 2222 
L 1259 0 
L 628 0 
L 628 4666 
z
" transform="scale(0.015625)"/>
      <path id="DejaVuSans-69" d="M 603 3500 
L 1178 3500 
L 1178 0 
L 603 0 
L 603 3500 
z
M 603 4863 
L 1178 4863 
L 1178 4134 
L 603 4134 
L 603 4863 
z
" transform="scale(0.015625)"/>
      <path id="DejaVuSans-73" d="M 2834 3397 
L 2834 2853 
Q 2591 2978 2328 3040 
Q 2066 3103 1784 3103 
Q 1356 3103 1142 2972 
Q 928 2841 928 2578 
Q 928 2378 1081 2264 
Q 1234 2150 1697 2047 
L 1894 2003 
Q 2506 1872 2764 1633 
Q 3022 1394 3022 966 
Q 3022 478 2636 193 
Q 2250 -91 1575 -91 
Q 1294 -91 989 -36 
Q 684 19 347 128 
L 347 722 
Q 666 556 975 473 
Q 1284 391 1588 391 
Q 1994 391 2212 530 
Q 2431 669 2431 922 
Q 2431 1156 2273 1281 
Q 2116 1406 1581 1522 
L 1381 1569 
Q 847 1681 609 1914 
Q 372 2147 372 2553 
Q 372 3047 722 3315 
Q 1072 3584 1716 3584 
Q 2034 3584 2315 3537 
Q 2597 3491 2834 3397 
z
" transform="scale(0.015625)"/>
      <path id="DejaVuSans-74" d="M 1172 4494 
L 1172 3500 
L 2356 3500 
L 2356 3053 
L 1172 3053 
L 1172 1153 
Q 1172 725 1289 603 
Q 1406 481 1766 481 
L 2356 481 
L 2356 0 
L 1766 0 
Q 1100 0 847 248 
Q 594 497 594 1153 
L 594 3053 
L 172 3053 
L 172 3500 
L 594 3500 
L 594 4494 
L 1172 4494 
z
" transform="scale(0.015625)"/>
      <path id="DejaVuSans-6f" d="M 1959 3097 
Q 1497 3097 1228 2736 
Q 959 2375 959 1747 
Q 959 1119 1226 758 
Q 1494 397 1959 397 
Q 2419 397 2687 759 
Q 2956 1122 2956 1747 
Q 2956 2369 2687 2733 
Q 2419 3097 1959 3097 
z
M 1959 3584 
Q 2709 3584 3137 3096 
Q 3566 2609 3566 1747 
Q 3566 888 3137 398 
Q 2709 -91 1959 -91 
Q 1206 -91 779 398 
Q 353 888 353 1747 
Q 353 2609 779 3096 
Q 1206 3584 1959 3584 
z
" transform="scale(0.015625)"/>
      <path id="DejaVuSans-67" d="M 2906 1791 
Q 2906 2416 2648 2759 
Q 2391 3103 1925 3103 
Q 1463 3103 1205 2759 
Q 947 2416 947 1791 
Q 947 1169 1205 825 
Q 1463 481 1925 481 
Q 2391 481 2648 825 
Q 2906 1169 2906 1791 
z
M 3481 434 
Q 3481 -459 3084 -895 
Q 2688 -1331 1869 -1331 
Q 1566 -1331 1297 -1286 
Q 1028 -1241 775 -1147 
L 775 -588 
Q 1028 -725 1275 -790 
Q 1522 -856 1778 -856 
Q 2344 -856 2625 -561 
Q 2906 -266 2906 331 
L 2906 616 
Q 2728 306 2450 153 
Q 2172 0 1784 0 
Q 1141 0 747 490 
Q 353 981 353 1791 
Q 353 2603 747 3093 
Q 1141 3584 1784 3584 
Q 2172 3584 2450 3431 
Q 2728 3278 2906 2969 
L 2906 3500 
L 3481 3500 
L 3481 434 
z
" transform="scale(0.015625)"/>
      <path id="DejaVuSans-72" d="M 2631 2963 
Q 2534 3019 2420 3045 
Q 2306 3072 2169 3072 
Q 1681 3072 1420 2755 
Q 1159 2438 1159 1844 
L 1159 0 
L 581 0 
L 581 3500 
L 1159 3500 
L 1159 2956 
Q 1341 3275 1631 3429 
Q 1922 3584 2338 3584 
Q 2397 3584 2469 3576 
Q 2541 3569 2628 3553 
L 2631 2963 
z
" transform="scale(0.015625)"/>
      <path id="DejaVuSans-61" d="M 2194 1759 
Q 1497 1759 1228 1600 
Q 959 1441 959 1056 
Q 959 750 1161 570 
Q 1363 391 1709 391 
Q 2188 391 2477 730 
Q 2766 1069 2766 1631 
L 2766 1759 
L 2194 1759 
z
M 3341 1997 
L 3341 0 
L 2766 0 
L 2766 531 
Q 2569 213 2275 61 
Q 1981 -91 1556 -91 
Q 1019 -91 701 211 
Q 384 513 384 1019 
Q 384 1609 779 1909 
Q 1175 2209 1959 2209 
L 2766 2209 
L 2766 2266 
Q 2766 2663 2505 2880 
Q 2244 3097 1772 3097 
Q 1472 3097 1187 3025 
Q 903 2953 641 2809 
L 641 3341 
Q 956 3463 1253 3523 
Q 1550 3584 1831 3584 
Q 2591 3584 2966 3190 
Q 3341 2797 3341 1997 
z
" transform="scale(0.015625)"/>
      <path id="DejaVuSans-6d" d="M 3328 2828 
Q 3544 3216 3844 3400 
Q 4144 3584 4550 3584 
Q 5097 3584 5394 3201 
Q 5691 2819 5691 2113 
L 5691 0 
L 5113 0 
L 5113 2094 
Q 5113 2597 4934 2840 
Q 4756 3084 4391 3084 
Q 3944 3084 3684 2787 
Q 3425 2491 3425 1978 
L 3425 0 
L 2847 0 
L 2847 2094 
Q 2847 2600 2669 2842 
Q 2491 3084 2119 3084 
Q 1678 3084 1418 2786 
Q 1159 2488 1159 1978 
L 1159 0 
L 581 0 
L 581 3500 
L 1159 3500 
L 1159 2956 
Q 1356 3278 1631 3431 
Q 1906 3584 2284 3584 
Q 2666 3584 2933 3390 
Q 3200 3197 3328 2828 
z
" transform="scale(0.015625)"/>
      <path id="DejaVuSans-20" transform="scale(0.015625)"/>
      <path id="DejaVuSans-66" d="M 2375 4863 
L 2375 4384 
L 1825 4384 
Q 1516 4384 1395 4259 
Q 1275 4134 1275 3809 
L 1275 3500 
L 2222 3500 
L 2222 3053 
L 1275 3053 
L 1275 0 
L 697 0 
L 697 3053 
L 147 3053 
L 147 3500 
L 697 3500 
L 697 3744 
Q 697 4328 969 4595 
Q 1241 4863 1831 4863 
L 2375 4863 
z
" transform="scale(0.015625)"/>
      <path id="DejaVuSans-6c" d="M 603 4863 
L 1178 4863 
L 1178 0 
L 603 0 
L 603 4863 
z
" transform="scale(0.015625)"/>
      <path id="DejaVuSans-79" d="M 2059 -325 
Q 1816 -950 1584 -1140 
Q 1353 -1331 966 -1331 
L 506 -1331 
L 506 -850 
L 844 -850 
Q 1081 -850 1212 -737 
Q 1344 -625 1503 -206 
L 1606 56 
L 191 3500 
L 800 3500 
L 1894 763 
L 2988 3500 
L 3597 3500 
L 2059 -325 
z
" transform="scale(0.015625)"/>
      <path id="DejaVuSans-65" d="M 3597 1894 
L 3597 1613 
L 953 1613 
Q 991 1019 1311 708 
Q 1631 397 2203 397 
Q 2534 397 2845 478 
Q 3156 559 3463 722 
L 3463 178 
Q 3153 47 2828 -22 
Q 2503 -91 2169 -91 
Q 1331 -91 842 396 
Q 353 884 353 1716 
Q 353 2575 817 3079 
Q 1281 3584 2069 3584 
Q 2775 3584 3186 3129 
Q 3597 2675 3597 1894 
z
M 3022 2063 
Q 3016 2534 2758 2815 
Q 2500 3097 2075 3097 
Q 1594 3097 1305 2825 
Q 1016 2553 972 2059 
L 3022 2063 
z
" transform="scale(0.015625)"/>
     </defs>
     <use xlink:href="#DejaVuSans-48"/>
     <use xlink:href="#DejaVuSans-69" x="75.195312"/>
     <use xlink:href="#DejaVuSans-73" x="102.978516"/>
     <use xlink:href="#DejaVuSans-74" x="155.078125"/>
     <use xlink:href="#DejaVuSans-6f" x="194.287109"/>
     <use xlink:href="#DejaVuSans-67" x="255.46875"/>
     <use xlink:href="#DejaVuSans-72" x="318.945312"/>
     <use xlink:href="#DejaVuSans-61" x="360.058594"/>
     <use xlink:href="#DejaVuSans-6d" x="421.337891"/>
     <use xlink:href="#DejaVuSans-20" x="518.75"/>
     <use xlink:href="#DejaVuSans-6f" x="550.537109"/>
     <use xlink:href="#DejaVuSans-66" x="611.71875"/>
     <use xlink:href="#DejaVuSans-20" x="646.923828"/>
     <use xlink:href="#DejaVuSans-73" x="678.710938"/>
     <use xlink:href="#DejaVuSans-69" x="730.810547"/>
     <use xlink:href="#DejaVuSans-67" x="758.59375"/>
     <use xlink:href="#DejaVuSans-6d" x="822.070312"/>
     <use xlink:href="#DejaVuSans-61" x="919.482422"/>
     <use xlink:href="#DejaVuSans-20" x="980.761719"/>
     <use xlink:href="#DejaVuSans-6f" x="1012.548828"/>
     <use xlink:href="#DejaVuSans-66" x="1073.730469"/>
     <use xlink:href="#DejaVuSans-20" x="1108.935547"/>
     <use xlink:href="#DejaVuSans-6c" x="1140.722656"/>
     <use xlink:href="#DejaVuSans-61" x="1168.505859"/>
     <use xlink:href="#DejaVuSans-73" x="1229.785156"/>
     <use xlink:href="#DejaVuSans-74" x="1281.884766"/>
     <use xlink:href="#DejaVuSans-20" x="1321.09375"/>
     <use xlink:href="#DejaVuSans-6c" x="1352.880859"/>
     <use xlink:href="#DejaVuSans-61" x="1380.664062"/>
     <use xlink:href="#DejaVuSans-79" x="1441.943359"/>
     <use xlink:href="#DejaVuSans-65" x="1501.123047"/>
     <use xlink:href="#DejaVuSans-72" x="1562.646484"/>
    </g>
   </g>
  </g>
 </g>
 <defs>
  <clipPath id="pa07a6049b1">
   <rect x="45" y="43.2" width="279" height="277.2"/>
  </clipPath>
 </defs>
</svg>
