<?xml version="1.0" encoding="utf-8" standalone="no"?>
<!DOCTYPE svg PUBLIC "-//W3C//DTD SVG 1.1//EN"
  "http://www.w3.org/Graphics/SVG/1.1/DTD/svg11.dtd">
<svg xmlns:xlink="http://www.w3.org/1999/xlink" width="360pt" height="360pt" viewBox="0 0 360 360" xmlns="http://www.w3.org/2000/svg" version="1.1">
 <metadata>
  <rdf:RDF xmlns:dc="http://purl.org/dc/elements/1.1/" xmlns:cc="http://creativecommons.org/ns#" xmlns:rdf="http://www.w3.org/1999/02/22-rdf-syntax-ns#">
   <cc:Work>
    <dc:type rdf:resource="http://purl.org/dc/dcmitype/StillImage"/>
    <dc:date>2022-11-12T19:33:51.643537</dc:date>
    <dc:format>image/svg+xml</dc:format>
    <dc:creator>
     <cc:Agent>
      <dc:title>Matplotlib v3.5.3, https://matplotlib.org/</dc:title>
     </cc:Agent>
    </dc:creator>
   </cc:Work>
  </rdf:RDF>
 </metadata>
 <defs>
  <style type="text/css">*{stroke-linejoin: round; stroke-linecap: butt}</style>
 </defs>
 <g id="figure_1">
  <g id="patch_1">
   <path d="M 0 360 
L 360 360 
L 360 0 
L 0 0 
z
" style="fill: #ffffff"/>
  </g>
  <g id="axes_1">
   <g id="patch_2">
    <path d="M 45 320.4 
L 324 320.4 
L 324 43.2 
L 45 43.2 
z
" style="fill: #ffffff"/>
   </g>
   <g id="matplotlib.axis_1">
    <g id="xtick_1">
     <g id="line2d_1">
      <defs>
       <path id="m48963b9b09" d="M 0 0 
L 0 3.5 
" style="stroke: #000000; stroke-width: 0.8"/>
      </defs>
      <g>
       <use xlink:href="#m48963b9b09" x="83.045455" y="320.4" style="stroke: #000000; stroke-width: 0.8"/>
      </g>
     </g>
     <g id="text_1">
      <!-- −2 -->
      <g transform="translate(75.674361 334.998438)scale(0.1 -0.1)">
       <defs>
        <path id="DejaVuSans-2212" d="M 678 2272 
L 4684 2272 
L 4684 1741 
L 678 1741 
L 678 2272 
z
" transform="scale(0.015625)"/>
        <path id="DejaVuSans-32" d="M 1228 531 
L 3431 531 
L 3431 0 
L 469 0 
L 469 531 
Q 828 903 1448 1529 
Q 2069 2156 2228 2338 
Q 2531 2678 2651 2914 
Q 2772 3150 2772 3378 
Q 2772 3750 2511 3984 
Q 2250 4219 1831 4219 
Q 1534 4219 1204 4116 
Q 875 4013 500 3803 
L 500 4441 
Q 881 4594 1212 4672 
Q 1544 4750 1819 4750 
Q 2544 4750 2975 4387 
Q 3406 4025 3406 3419 
Q 3406 3131 3298 2873 
Q 3191 2616 2906 2266 
Q 2828 2175 2409 1742 
Q 1991 1309 1228 531 
z
" transform="scale(0.015625)"/>
       </defs>
       <use xlink:href="#DejaVuSans-2212"/>
       <use xlink:href="#DejaVuSans-32" x="83.789062"/>
      </g>
     </g>
    </g>
    <g id="xtick_2">
     <g id="line2d_2">
      <g>
       <use xlink:href="#m48963b9b09" x="133.772727" y="320.4" style="stroke: #000000; stroke-width: 0.8"/>
      </g>
     </g>
     <g id="text_2">
      <!-- −1 -->
      <g transform="translate(126.401634 334.998438)scale(0.1 -0.1)">
       <defs>
        <path id="DejaVuSans-31" d="M 794 531 
L 1825 531 
L 1825 4091 
L 703 3866 
L 703 4441 
L 1819 4666 
L 2450 4666 
L 2450 531 
L 3481 531 
L 3481 0 
L 794 0 
L 794 531 
z
" transform="scale(0.015625)"/>
       </defs>
       <use xlink:href="#DejaVuSans-2212"/>
       <use xlink:href="#DejaVuSans-31" x="83.789062"/>
      </g>
     </g>
    </g>
    <g id="xtick_3">
     <g id="line2d_3">
      <g>
       <use xlink:href="#m48963b9b09" x="184.5" y="320.4" style="stroke: #000000; stroke-width: 0.8"/>
      </g>
     </g>
     <g id="text_3">
      <!-- 0 -->
      <g transform="translate(181.31875 334.998438)scale(0.1 -0.1)">
       <defs>
        <path id="DejaVuSans-30" d="M 2034 4250 
Q 1547 4250 1301 3770 
Q 1056 3291 1056 2328 
Q 1056 1369 1301 889 
Q 1547 409 2034 409 
Q 2525 409 2770 889 
Q 3016 1369 3016 2328 
Q 3016 3291 2770 3770 
Q 2525 4250 2034 4250 
z
M 2034 4750 
Q 2819 4750 3233 4129 
Q 3647 3509 3647 2328 
Q 3647 1150 3233 529 
Q 2819 -91 2034 -91 
Q 1250 -91 836 529 
Q 422 1150 422 2328 
Q 422 3509 836 4129 
Q 1250 4750 2034 4750 
z
" transform="scale(0.015625)"/>
       </defs>
       <use xlink:href="#DejaVuSans-30"/>
      </g>
     </g>
    </g>
    <g id="xtick_4">
     <g id="line2d_4">
      <g>
       <use xlink:href="#m48963b9b09" x="235.227273" y="320.4" style="stroke: #000000; stroke-width: 0.8"/>
      </g>
     </g>
     <g id="text_4">
      <!-- 1 -->
      <g transform="translate(232.046023 334.998438)scale(0.1 -0.1)">
       <use xlink:href="#DejaVuSans-31"/>
      </g>
     </g>
    </g>
    <g id="xtick_5">
     <g id="line2d_5">
      <g>
       <use xlink:href="#m48963b9b09" x="285.954545" y="320.4" style="stroke: #000000; stroke-width: 0.8"/>
      </g>
     </g>
     <g id="text_5">
      <!-- 2 -->
      <g transform="translate(282.773295 334.998438)scale(0.1 -0.1)">
       <use xlink:href="#DejaVuSans-32"/>
      </g>
     </g>
    </g>
   </g>
   <g id="matplotlib.axis_2">
    <g id="ytick_1">
     <g id="line2d_6">
      <defs>
       <path id="m889f5657e4" d="M 0 0 
L -3.5 0 
" style="stroke: #000000; stroke-width: 0.8"/>
      </defs>
      <g>
       <use xlink:href="#m889f5657e4" x="45" y="280.33756" style="stroke: #000000; stroke-width: 0.8"/>
      </g>
     </g>
     <g id="text_6">
      <!-- −0.15 -->
      <g transform="translate(7.354687 284.136779)scale(0.1 -0.1)">
       <defs>
        <path id="DejaVuSans-2e" d="M 684 794 
L 1344 794 
L 1344 0 
L 684 0 
L 684 794 
z
" transform="scale(0.015625)"/>
        <path id="DejaVuSans-35" d="M 691 4666 
L 3169 4666 
L 3169 4134 
L 1269 4134 
L 1269 2991 
Q 1406 3038 1543 3061 
Q 1681 3084 1819 3084 
Q 2600 3084 3056 2656 
Q 3513 2228 3513 1497 
Q 3513 744 3044 326 
Q 2575 -91 1722 -91 
Q 1428 -91 1123 -41 
Q 819 9 494 109 
L 494 744 
Q 775 591 1075 516 
Q 1375 441 1709 441 
Q 2250 441 2565 725 
Q 2881 1009 2881 1497 
Q 2881 1984 2565 2268 
Q 2250 2553 1709 2553 
Q 1456 2553 1204 2497 
Q 953 2441 691 2322 
L 691 4666 
z
" transform="scale(0.015625)"/>
       </defs>
       <use xlink:href="#DejaVuSans-2212"/>
       <use xlink:href="#DejaVuSans-30" x="83.789062"/>
       <use xlink:href="#DejaVuSans-2e" x="147.412109"/>
       <use xlink:href="#DejaVuSans-31" x="179.199219"/>
       <use xlink:href="#DejaVuSans-35" x="242.822266"/>
      </g>
     </g>
    </g>
    <g id="ytick_2">
     <g id="line2d_7">
      <g>
       <use xlink:href="#m889f5657e4" x="45" y="236.959605" style="stroke: #000000; stroke-width: 0.8"/>
      </g>
     </g>
     <g id="text_7">
      <!-- −0.10 -->
      <g transform="translate(7.354687 240.758823)scale(0.1 -0.1)">
       <use xlink:href="#DejaVuSans-2212"/>
       <use xlink:href="#DejaVuSans-30" x="83.789062"/>
       <use xlink:href="#DejaVuSans-2e" x="147.412109"/>
       <use xlink:href="#DejaVuSans-31" x="179.199219"/>
       <use xlink:href="#DejaVuSans-30" x="242.822266"/>
      </g>
     </g>
    </g>
    <g id="ytick_3">
     <g id="line2d_8">
      <g>
       <use xlink:href="#m889f5657e4" x="45" y="193.581649" style="stroke: #000000; stroke-width: 0.8"/>
      </g>
     </g>
     <g id="text_8">
      <!-- −0.05 -->
      <g transform="translate(7.354687 197.380868)scale(0.1 -0.1)">
       <use xlink:href="#DejaVuSans-2212"/>
       <use xlink:href="#DejaVuSans-30" x="83.789062"/>
       <use xlink:href="#DejaVuSans-2e" x="147.412109"/>
       <use xlink:href="#DejaVuSans-30" x="179.199219"/>
       <use xlink:href="#DejaVuSans-35" x="242.822266"/>
      </g>
     </g>
    </g>
    <g id="ytick_4">
     <g id="line2d_9">
      <g>
       <use xlink:href="#m889f5657e4" x="45" y="150.203694" style="stroke: #000000; stroke-width: 0.8"/>
      </g>
     </g>
     <g id="text_9">
      <!-- 0.00 -->
      <g transform="translate(15.734375 154.002913)scale(0.1 -0.1)">
       <use xlink:href="#DejaVuSans-30"/>
       <use xlink:href="#DejaVuSans-2e" x="63.623047"/>
       <use xlink:href="#DejaVuSans-30" x="95.410156"/>
       <use xlink:href="#DejaVuSans-30" x="159.033203"/>
      </g>
     </g>
    </g>
    <g id="ytick_5">
     <g id="line2d_10">
      <g>
       <use xlink:href="#m889f5657e4" x="45" y="106.825739" style="stroke: #000000; stroke-width: 0.8"/>
      </g>
     </g>
     <g id="text_10">
      <!-- 0.05 -->
      <g transform="translate(15.734375 110.624958)scale(0.1 -0.1)">
       <use xlink:href="#DejaVuSans-30"/>
       <use xlink:href="#DejaVuSans-2e" x="63.623047"/>
       <use xlink:href="#DejaVuSans-30" x="95.410156"/>
       <use xlink:href="#DejaVuSans-35" x="159.033203"/>
      </g>
     </g>
    </g>
    <g id="ytick_6">
     <g id="line2d_11">
      <g>
       <use xlink:href="#m889f5657e4" x="45" y="63.447784" style="stroke: #000000; stroke-width: 0.8"/>
      </g>
     </g>
     <g id="text_11">
      <!-- 0.10 -->
      <g transform="translate(15.734375 67.247003)scale(0.1 -0.1)">
       <use xlink:href="#DejaVuSans-30"/>
       <use xlink:href="#DejaVuSans-2e" x="63.623047"/>
       <use xlink:href="#DejaVuSans-31" x="95.410156"/>
       <use xlink:href="#DejaVuSans-30" x="159.033203"/>
      </g>
     </g>
    </g>
   </g>
   <g id="line2d_12">
    <path d="M 57.681818 161.959695 
L 62.767264 161.734403 
L 65.945664 161.408999 
L 68.488375 160.961558 
L 71.031098 160.266816 
L 72.938143 159.540634 
L 74.845188 158.613319 
L 77.387899 157.091374 
L 83.7447 152.955233 
L 85.651745 152.076402 
L 87.558784 151.498589 
L 89.465823 151.208637 
L 91.372862 151.149946 
L 93.915579 151.305936 
L 107.900543 152.631727 
L 114.893027 152.858126 
L 126.335268 152.96579 
L 165.747428 152.988738 
L 311.318182 152.988782 
L 311.318182 152.988782 
" clip-path="url(#p4274446926)" style="fill: none; stroke: #1f77b4; stroke-width: 1.5; stroke-linecap: square"/>
   </g>
   <g id="line2d_13">
    <path d="M 57.681818 125.47273 
L 60.224541 124.761275 
L 62.131574 124.003074 
L 64.038619 122.988886 
L 65.945664 121.653099 
L 67.852697 119.924312 
L 69.759743 117.752137 
L 71.666776 115.123421 
L 74.209498 111.054463 
L 77.387899 105.927299 
L 78.659254 104.289895 
L 79.930622 103.141755 
L 80.566299 102.803899 
L 81.201977 102.645913 
L 81.837655 102.678429 
L 82.473333 102.918076 
L 83.109022 103.365186 
L 83.7447 104.018022 
L 84.380384 104.874721 
L 85.651745 107.156687 
L 86.923101 110.074527 
L 88.83014 115.249553 
L 93.279902 127.768875 
L 95.186941 132.265035 
L 96.458302 134.829232 
L 97.729663 137.044315 
L 99.001025 138.928353 
L 100.272386 140.512434 
L 101.543748 141.830251 
L 102.815109 142.918226 
L 104.722142 144.192601 
L 106.629181 145.128534 
L 108.536226 145.810154 
L 111.078949 146.435306 
L 114.257344 146.914705 
L 118.071428 147.228962 
L 123.792545 147.437403 
L 133.963431 147.536664 
L 173.375594 147.556172 
L 311.318182 147.556188 
L 311.318182 147.556188 
" clip-path="url(#p4274446926)" style="fill: none; stroke: #ff7f0e; stroke-width: 1.5; stroke-linecap: square"/>
   </g>
   <g id="line2d_14">
    <path d="M 57.681818 55.8 
L 58.953174 56.743531 
L 60.224541 57.907391 
L 61.495896 59.334023 
L 62.767264 61.08002 
L 64.038619 63.20735 
L 65.309987 65.786673 
L 66.581342 68.89518 
L 67.852697 72.613707 
L 69.124053 77.018536 
L 70.39542 82.179249 
L 71.666776 88.145405 
L 72.938143 94.92561 
L 74.845188 106.520936 
L 77.387899 123.855141 
L 79.930622 141.316967 
L 81.837655 152.747895 
L 83.109022 158.934173 
L 84.380384 163.72257 
L 85.016061 165.561439 
L 85.651745 167.036472 
L 86.287423 168.159108 
L 86.923101 168.947611 
L 87.558784 169.425396 
L 88.194462 169.623365 
L 88.83014 169.576867 
L 89.465823 169.316845 
L 90.101501 168.879912 
L 91.372862 167.600313 
L 93.279902 165.112581 
L 96.458302 160.806235 
L 98.365347 158.611422 
L 100.272386 156.825303 
L 102.179425 155.432885 
L 104.086458 154.378535 
L 105.993504 153.596504 
L 107.900543 153.02527 
L 110.443266 152.502323 
L 113.621666 152.104707 
L 118.071428 151.820303 
L 125.063907 151.656665 
L 140.320232 151.598482 
L 311.318182 151.59495 
L 311.318182 151.59495 
" clip-path="url(#p4274446926)" style="fill: none; stroke: #2ca02c; stroke-width: 1.5; stroke-linecap: square"/>
   </g>
   <g id="line2d_15">
    <path d="M 57.681818 199.4908 
L 58.953174 198.599228 
L 60.224541 197.502716 
L 61.495896 196.15849 
L 62.767264 194.515583 
L 64.038619 192.516826 
L 65.309987 190.097186 
L 66.581342 187.187412 
L 67.852697 183.717758 
L 69.124053 179.61889 
L 70.39542 174.837939 
L 71.666776 169.340074 
L 73.573821 159.78173 
L 75.480866 148.905098 
L 79.930622 122.736745 
L 81.201977 116.609417 
L 82.473333 111.739069 
L 83.109022 109.853413 
L 83.7447 108.360053 
L 84.380384 107.262921 
L 85.016061 106.565076 
L 85.651745 106.250304 
L 86.287423 106.301291 
L 86.923101 106.686245 
L 87.558784 107.378939 
L 88.194462 108.333536 
L 89.465823 110.880405 
L 91.372862 115.688297 
L 95.186941 125.698622 
L 97.09398 129.892808 
L 98.365347 132.261327 
L 99.636709 134.289193 
L 100.90807 135.999819 
L 102.179425 137.425797 
L 103.450781 138.60253 
L 104.722142 139.566989 
L 106.629181 140.686701 
L 108.536226 141.500777 
L 110.443266 142.087921 
L 112.985988 142.620863 
L 116.164389 143.024235 
L 120.614145 143.313045 
L 126.970946 143.472729 
L 140.955909 143.540214 
L 258.556734 143.545866 
L 311.318182 143.545866 
L 311.318182 143.545866 
" clip-path="url(#p4274446926)" style="fill: none; stroke: #d62728; stroke-width: 1.5; stroke-linecap: square"/>
   </g>
   <g id="line2d_16">
    <path d="M 57.681818 129.939694 
L 59.588863 131.125479 
L 60.860219 132.150175 
L 62.131574 133.411085 
L 63.402942 134.953797 
L 64.674309 136.833331 
L 65.945664 139.108926 
L 67.21702 141.84156 
L 68.488375 145.092623 
L 69.759743 148.911675 
L 71.031098 153.335947 
L 72.938143 161.094433 
L 74.845188 170.00867 
L 79.294932 191.506898 
L 80.566299 196.364008 
L 81.837655 199.989001 
L 82.473333 201.249207 
L 83.109022 202.108347 
L 83.7447 202.556409 
L 84.380384 202.585739 
L 85.016061 202.209741 
L 85.651745 201.445708 
L 86.287423 200.314591 
L 86.923101 198.853065 
L 88.194462 195.09681 
L 89.465823 190.526652 
L 95.186941 168.400472 
L 97.09398 162.508205 
L 98.365347 159.198129 
L 99.636709 156.364686 
L 100.90807 153.969805 
L 102.179425 151.967011 
L 103.450781 150.305714 
L 104.722142 148.93676 
L 105.993504 147.815083 
L 107.900543 146.508396 
L 109.807588 145.55236 
L 111.714627 144.856641 
L 114.257344 144.217328 
L 117.435744 143.724628 
L 121.249829 143.398759 
L 126.970946 143.179569 
L 137.141831 143.07261 
L 173.375594 143.050619 
L 311.318182 143.050583 
L 311.318182 143.050583 
" clip-path="url(#p4274446926)" style="fill: none; stroke: #9467bd; stroke-width: 1.5; stroke-linecap: square"/>
   </g>
   <g id="line2d_17">
    <path d="M 57.681818 191.124447 
L 59.588863 191.700461 
L 61.495896 192.49821 
L 63.402942 193.594391 
L 64.674309 194.538171 
L 65.945664 195.686062 
L 67.21702 197.073394 
L 68.488375 198.72929 
L 69.759743 200.680971 
L 71.031098 202.943328 
L 72.938143 206.904191 
L 75.480866 212.971162 
L 78.023577 219.028909 
L 79.294932 221.560657 
L 80.566299 223.440894 
L 81.201977 224.07015 
L 81.837655 224.454297 
L 82.473333 224.577699 
L 83.109022 224.433241 
L 83.7447 224.00636 
L 84.380384 223.302227 
L 85.016061 222.325973 
L 86.287423 219.624345 
L 87.558784 216.078449 
L 89.465823 209.699063 
L 93.915579 194.057945 
L 95.822624 188.379609 
L 97.09398 185.121281 
L 98.365347 182.290045 
L 99.636709 179.865891 
L 100.90807 177.814471 
L 102.179425 176.095 
L 103.450781 174.664719 
L 104.722142 173.482518 
L 106.629181 172.092122 
L 108.536226 171.063907 
L 110.443266 170.308334 
L 112.985988 169.606984 
L 115.528705 169.147334 
L 118.707106 168.790211 
L 123.156868 168.524601 
L 130.149352 168.360954 
L 145.405671 168.294799 
L 280.805538 168.289508 
L 311.318182 168.289508 
L 311.318182 168.289508 
" clip-path="url(#p4274446926)" style="fill: none; stroke: #8c564b; stroke-width: 1.5; stroke-linecap: square"/>
   </g>
   <g id="line2d_18">
    <path d="M 57.681818 64.63299 
L 60.224541 65.185755 
L 62.131574 65.77451 
L 64.038619 66.566468 
L 65.945664 67.624259 
L 67.852697 69.025408 
L 69.124053 70.190261 
L 70.39542 71.576517 
L 71.666776 73.206434 
L 72.938143 75.110127 
L 74.209498 77.307742 
L 76.116544 81.170479 
L 78.023577 85.706281 
L 79.930622 90.820579 
L 83.7447 101.969043 
L 86.287423 109.238036 
L 88.194462 114.180758 
L 90.101501 118.516316 
L 92.00854 122.179398 
L 93.915579 125.178766 
L 95.186941 126.836875 
L 96.458302 128.249478 
L 98.365347 129.967757 
L 100.272386 131.283962 
L 102.179425 132.28039 
L 104.086458 133.028464 
L 106.629181 133.73794 
L 109.171904 134.213522 
L 112.350305 134.591079 
L 116.800067 134.87901 
L 123.792545 135.062099 
L 137.777512 135.137949 
L 229.95113 135.146146 
L 311.318182 135.146146 
L 311.318182 135.146146 
" clip-path="url(#p4274446926)" style="fill: none; stroke: #e377c2; stroke-width: 1.5; stroke-linecap: square"/>
   </g>
   <g id="line2d_19">
    <path d="M 57.681818 307.8 
L 58.953174 306.592372 
L 60.224541 305.105342 
L 61.495896 303.277933 
L 62.767264 301.037666 
L 64.038619 298.304205 
L 65.309987 294.982733 
L 66.581342 290.970904 
L 67.852697 286.157603 
L 69.124053 280.435438 
L 70.39542 273.702724 
L 71.666776 265.878297 
L 72.938143 256.927738 
L 74.845188 241.457761 
L 76.752221 223.96375 
L 81.201977 181.483821 
L 82.473333 170.925312 
L 83.7447 161.834969 
L 85.016061 154.440774 
L 86.287423 148.819982 
L 86.923101 146.655399 
L 87.558784 144.889566 
L 88.194462 143.4994 
L 88.83014 142.446408 
L 89.465823 141.69493 
L 90.101501 141.209802 
L 90.737185 140.950091 
L 91.372862 140.883126 
L 92.00854 140.971944 
L 93.279902 141.495648 
L 94.551263 142.310161 
L 100.272386 146.365189 
L 102.179425 147.348638 
L 104.086458 148.107467 
L 106.629181 148.829458 
L 109.171904 149.303178 
L 112.350305 149.663515 
L 116.800067 149.918429 
L 123.792545 150.060706 
L 140.955909 150.108359 
L 311.318182 150.109862 
L 311.318182 150.109862 
" clip-path="url(#p4274446926)" style="fill: none; stroke: #7f7f7f; stroke-width: 1.5; stroke-linecap: square"/>
   </g>
   <g id="line2d_20">
    <path d="M 57.681818 117.479519 
L 62.131574 117.14005 
L 65.309987 116.69054 
L 68.488375 115.993234 
L 71.666776 115.054749 
L 74.845188 114.130661 
L 76.116544 113.915256 
L 77.387899 113.888242 
L 78.659254 114.14303 
L 79.930622 114.759668 
L 81.201977 115.818452 
L 82.473333 117.370969 
L 83.7447 119.422802 
L 85.016061 121.938417 
L 86.923101 126.397273 
L 93.279902 142.232523 
L 95.186941 146.021696 
L 97.09398 149.136632 
L 98.365347 150.85396 
L 99.636709 152.309855 
L 100.90807 153.531972 
L 102.815109 154.990985 
L 104.722142 156.084916 
L 106.629181 156.896718 
L 108.536226 157.49467 
L 111.078949 158.050711 
L 114.257344 158.484916 
L 118.071428 158.776135 
L 123.792545 158.975269 
L 134.599111 159.076864 
L 176.554 159.095905 
L 311.318182 159.095915 
L 311.318182 159.095915 
" clip-path="url(#p4274446926)" style="fill: none; stroke: #bcbd22; stroke-width: 1.5; stroke-linecap: square"/>
   </g>
   <g id="line2d_21">
    <path d="M 57.681818 148.337067 
L 60.224541 148.831917 
L 62.767264 149.558843 
L 64.674309 150.310342 
L 66.581342 151.287878 
L 68.488375 152.531496 
L 70.39542 154.075119 
L 72.302453 155.921061 
L 74.845188 158.749421 
L 78.023577 162.356212 
L 79.294932 163.582372 
L 80.566299 164.55209 
L 81.837655 165.187385 
L 83.109022 165.4315 
L 84.380384 165.278437 
L 85.651745 164.739075 
L 86.923101 163.87584 
L 88.83014 162.148956 
L 94.551263 156.483093 
L 96.458302 155.021892 
L 98.365347 153.859429 
L 100.272386 152.969144 
L 102.179425 152.305922 
L 104.722142 151.692881 
L 107.900543 151.227036 
L 111.714627 150.931079 
L 117.435744 150.746857 
L 128.877991 150.667463 
L 200.074164 150.659144 
L 311.318182 150.659144 
L 311.318182 150.659144 
" clip-path="url(#p4274446926)" style="fill: none; stroke: #17becf; stroke-width: 1.5; stroke-linecap: square"/>
   </g>
   <g id="patch_3">
    <path d="M 45 320.4 
L 45 43.2 
" style="fill: none; stroke: #000000; stroke-width: 0.8; stroke-linejoin: miter; stroke-linecap: square"/>
   </g>
   <g id="patch_4">
    <path d="M 324 320.4 
L 324 43.2 
" style="fill: none; stroke: #000000; stroke-width: 0.8; stroke-linejoin: miter; stroke-linecap: square"/>
   </g>
   <g id="patch_5">
    <path d="M 45 320.4 
L 324 320.4 
" style="fill: none; stroke: #000000; stroke-width: 0.8; stroke-linejoin: miter; stroke-linecap: square"/>
   </g>
   <g id="patch_6">
    <path d="M 45 43.2 
L 324 43.2 
" style="fill: none; stroke: #000000; stroke-width: 0.8; stroke-linejoin: miter; stroke-linecap: square"/>
   </g>
   <g id="text_12">
    <!-- Single Draw Deviation -->
    <g transform="translate(117.87 37.2)scale(0.12 -0.12)">
     <defs>
      <path id="DejaVuSans-53" d="M 3425 4513 
L 3425 3897 
Q 3066 4069 2747 4153 
Q 2428 4238 2131 4238 
Q 1616 4238 1336 4038 
Q 1056 3838 1056 3469 
Q 1056 3159 1242 3001 
Q 1428 2844 1947 2747 
L 2328 2669 
Q 3034 2534 3370 2195 
Q 3706 1856 3706 1288 
Q 3706 609 3251 259 
Q 2797 -91 1919 -91 
Q 1588 -91 1214 -16 
Q 841 59 441 206 
L 441 856 
Q 825 641 1194 531 
Q 1563 422 1919 422 
Q 2459 422 2753 634 
Q 3047 847 3047 1241 
Q 3047 1584 2836 1778 
Q 2625 1972 2144 2069 
L 1759 2144 
Q 1053 2284 737 2584 
Q 422 2884 422 3419 
Q 422 4038 858 4394 
Q 1294 4750 2059 4750 
Q 2388 4750 2728 4690 
Q 3069 4631 3425 4513 
z
" transform="scale(0.015625)"/>
      <path id="DejaVuSans-69" d="M 603 3500 
L 1178 3500 
L 1178 0 
L 603 0 
L 603 3500 
z
M 603 4863 
L 1178 4863 
L 1178 4134 
L 603 4134 
L 603 4863 
z
" transform="scale(0.015625)"/>
      <path id="DejaVuSans-6e" d="M 3513 2113 
L 3513 0 
L 2938 0 
L 2938 2094 
Q 2938 2591 2744 2837 
Q 2550 3084 2163 3084 
Q 1697 3084 1428 2787 
Q 1159 2491 1159 1978 
L 1159 0 
L 581 0 
L 581 3500 
L 1159 3500 
L 1159 2956 
Q 1366 3272 1645 3428 
Q 1925 3584 2291 3584 
Q 2894 3584 3203 3211 
Q 3513 2838 3513 2113 
z
" transform="scale(0.015625)"/>
      <path id="DejaVuSans-67" d="M 2906 1791 
Q 2906 2416 2648 2759 
Q 2391 3103 1925 3103 
Q 1463 3103 1205 2759 
Q 947 2416 947 1791 
Q 947 1169 1205 825 
Q 1463 481 1925 481 
Q 2391 481 2648 825 
Q 2906 1169 2906 1791 
z
M 3481 434 
Q 3481 -459 3084 -895 
Q 2688 -1331 1869 -1331 
Q 1566 -1331 1297 -1286 
Q 1028 -1241 775 -1147 
L 775 -588 
Q 1028 -725 1275 -790 
Q 1522 -856 1778 -856 
Q 2344 -856 2625 -561 
Q 2906 -266 2906 331 
L 2906 616 
Q 2728 306 2450 153 
Q 2172 0 1784 0 
Q 1141 0 747 490 
Q 353 981 353 1791 
Q 353 2603 747 3093 
Q 1141 3584 1784 3584 
Q 2172 3584 2450 3431 
Q 2728 3278 2906 2969 
L 2906 3500 
L 3481 3500 
L 3481 434 
z
" transform="scale(0.015625)"/>
      <path id="DejaVuSans-6c" d="M 603 4863 
L 1178 4863 
L 1178 0 
L 603 0 
L 603 4863 
z
" transform="scale(0.015625)"/>
      <path id="DejaVuSans-65" d="M 3597 1894 
L 3597 1613 
L 953 1613 
Q 991 1019 1311 708 
Q 1631 397 2203 397 
Q 2534 397 2845 478 
Q 3156 559 3463 722 
L 3463 178 
Q 3153 47 2828 -22 
Q 2503 -91 2169 -91 
Q 1331 -91 842 396 
Q 353 884 353 1716 
Q 353 2575 817 3079 
Q 1281 3584 2069 3584 
Q 2775 3584 3186 3129 
Q 3597 2675 3597 1894 
z
M 3022 2063 
Q 3016 2534 2758 2815 
Q 2500 3097 2075 3097 
Q 1594 3097 1305 2825 
Q 1016 2553 972 2059 
L 3022 2063 
z
" transform="scale(0.015625)"/>
      <path id="DejaVuSans-20" transform="scale(0.015625)"/>
      <path id="DejaVuSans-44" d="M 1259 4147 
L 1259 519 
L 2022 519 
Q 2988 519 3436 956 
Q 3884 1394 3884 2338 
Q 3884 3275 3436 3711 
Q 2988 4147 2022 4147 
L 1259 4147 
z
M 628 4666 
L 1925 4666 
Q 3281 4666 3915 4102 
Q 4550 3538 4550 2338 
Q 4550 1131 3912 565 
Q 3275 0 1925 0 
L 628 0 
L 628 4666 
z
" transform="scale(0.015625)"/>
      <path id="DejaVuSans-72" d="M 2631 2963 
Q 2534 3019 2420 3045 
Q 2306 3072 2169 3072 
Q 1681 3072 1420 2755 
Q 1159 2438 1159 1844 
L 1159 0 
L 581 0 
L 581 3500 
L 1159 3500 
L 1159 2956 
Q 1341 3275 1631 3429 
Q 1922 3584 2338 3584 
Q 2397 3584 2469 3576 
Q 2541 3569 2628 3553 
L 2631 2963 
z
" transform="scale(0.015625)"/>
      <path id="DejaVuSans-61" d="M 2194 1759 
Q 1497 1759 1228 1600 
Q 959 1441 959 1056 
Q 959 750 1161 570 
Q 1363 391 1709 391 
Q 2188 391 2477 730 
Q 2766 1069 2766 1631 
L 2766 1759 
L 2194 1759 
z
M 3341 1997 
L 3341 0 
L 2766 0 
L 2766 531 
Q 2569 213 2275 61 
Q 1981 -91 1556 -91 
Q 1019 -91 701 211 
Q 384 513 384 1019 
Q 384 1609 779 1909 
Q 1175 2209 1959 2209 
L 2766 2209 
L 2766 2266 
Q 2766 2663 2505 2880 
Q 2244 3097 1772 3097 
Q 1472 3097 1187 3025 
Q 903 2953 641 2809 
L 641 3341 
Q 956 3463 1253 3523 
Q 1550 3584 1831 3584 
Q 2591 3584 2966 3190 
Q 3341 2797 3341 1997 
z
" transform="scale(0.015625)"/>
      <path id="DejaVuSans-77" d="M 269 3500 
L 844 3500 
L 1563 769 
L 2278 3500 
L 2956 3500 
L 3675 769 
L 4391 3500 
L 4966 3500 
L 4050 0 
L 3372 0 
L 2619 2869 
L 1863 0 
L 1184 0 
L 269 3500 
z
" transform="scale(0.015625)"/>
      <path id="DejaVuSans-76" d="M 191 3500 
L 800 3500 
L 1894 563 
L 2988 3500 
L 3597 3500 
L 2284 0 
L 1503 0 
L 191 3500 
z
" transform="scale(0.015625)"/>
      <path id="DejaVuSans-74" d="M 1172 4494 
L 1172 3500 
L 2356 3500 
L 2356 3053 
L 1172 3053 
L 1172 1153 
Q 1172 725 1289 603 
Q 1406 481 1766 481 
L 2356 481 
L 2356 0 
L 1766 0 
Q 1100 0 847 248 
Q 594 497 594 1153 
L 594 3053 
L 172 3053 
L 172 3500 
L 594 3500 
L 594 4494 
L 1172 4494 
z
" transform="scale(0.015625)"/>
      <path id="DejaVuSans-6f" d="M 1959 3097 
Q 1497 3097 1228 2736 
Q 959 2375 959 1747 
Q 959 1119 1226 758 
Q 1494 397 1959 397 
Q 2419 397 2687 759 
Q 2956 1122 2956 1747 
Q 2956 2369 2687 2733 
Q 2419 3097 1959 3097 
z
M 1959 3584 
Q 2709 3584 3137 3096 
Q 3566 2609 3566 1747 
Q 3566 888 3137 398 
Q 2709 -91 1959 -91 
Q 1206 -91 779 398 
Q 353 888 353 1747 
Q 353 2609 779 3096 
Q 1206 3584 1959 3584 
z
" transform="scale(0.015625)"/>
     </defs>
     <use xlink:href="#DejaVuSans-53"/>
     <use xlink:href="#DejaVuSans-69" x="63.476562"/>
     <use xlink:href="#DejaVuSans-6e" x="91.259766"/>
     <use xlink:href="#DejaVuSans-67" x="154.638672"/>
     <use xlink:href="#DejaVuSans-6c" x="218.115234"/>
     <use xlink:href="#DejaVuSans-65" x="245.898438"/>
     <use xlink:href="#DejaVuSans-20" x="307.421875"/>
     <use xlink:href="#DejaVuSans-44" x="339.208984"/>
     <use xlink:href="#DejaVuSans-72" x="416.210938"/>
     <use xlink:href="#DejaVuSans-61" x="457.324219"/>
     <use xlink:href="#DejaVuSans-77" x="518.603516"/>
     <use xlink:href="#DejaVuSans-20" x="600.390625"/>
     <use xlink:href="#DejaVuSans-44" x="632.177734"/>
     <use xlink:href="#DejaVuSans-65" x="709.179688"/>
     <use xlink:href="#DejaVuSans-76" x="770.703125"/>
     <use xlink:href="#DejaVuSans-69" x="829.882812"/>
     <use xlink:href="#DejaVuSans-61" x="857.666016"/>
     <use xlink:href="#DejaVuSans-74" x="918.945312"/>
     <use xlink:href="#DejaVuSans-69" x="958.154297"/>
     <use xlink:href="#DejaVuSans-6f" x="985.9375"/>
     <use xlink:href="#DejaVuSans-6e" x="1047.119141"/>
    </g>
   </g>
   <g id="legend_1">
    <g id="patch_7">
     <path d="M 157.064062 315.4 
L 317 315.4 
Q 319 315.4 319 313.4 
L 319 167.61875 
Q 319 165.61875 317 165.61875 
L 157.064062 165.61875 
Q 155.064062 165.61875 155.064062 167.61875 
L 155.064062 313.4 
Q 155.064062 315.4 157.064062 315.4 
z
" style="fill: #ffffff; opacity: 0.8; stroke: #cccccc; stroke-linejoin: miter"/>
    </g>
    <g id="line2d_22">
     <path d="M 159.064062 173.717188 
L 169.064062 173.717188 
L 179.064062 173.717188 
" style="fill: none; stroke: #1f77b4; stroke-width: 1.5; stroke-linecap: square"/>
    </g>
    <g id="text_13">
     <!-- Deviation from average 0 -->
     <g transform="translate(187.064062 177.217188)scale(0.1 -0.1)">
      <defs>
       <path id="DejaVuSans-66" d="M 2375 4863 
L 2375 4384 
L 1825 4384 
Q 1516 4384 1395 4259 
Q 1275 4134 1275 3809 
L 1275 3500 
L 2222 3500 
L 2222 3053 
L 1275 3053 
L 1275 0 
L 697 0 
L 697 3053 
L 147 3053 
L 147 3500 
L 697 3500 
L 697 3744 
Q 697 4328 969 4595 
Q 1241 4863 1831 4863 
L 2375 4863 
z
" transform="scale(0.015625)"/>
       <path id="DejaVuSans-6d" d="M 3328 2828 
Q 3544 3216 3844 3400 
Q 4144 3584 4550 3584 
Q 5097 3584 5394 3201 
Q 5691 2819 5691 2113 
L 5691 0 
L 5113 0 
L 5113 2094 
Q 5113 2597 4934 2840 
Q 4756 3084 4391 3084 
Q 3944 3084 3684 2787 
Q 3425 2491 3425 1978 
L 3425 0 
L 2847 0 
L 2847 2094 
Q 2847 2600 2669 2842 
Q 2491 3084 2119 3084 
Q 1678 3084 1418 2786 
Q 1159 2488 1159 1978 
L 1159 0 
L 581 0 
L 581 3500 
L 1159 3500 
L 1159 2956 
Q 1356 3278 1631 3431 
Q 1906 3584 2284 3584 
Q 2666 3584 2933 3390 
Q 3200 3197 3328 2828 
z
" transform="scale(0.015625)"/>
      </defs>
      <use xlink:href="#DejaVuSans-44"/>
      <use xlink:href="#DejaVuSans-65" x="77.001953"/>
      <use xlink:href="#DejaVuSans-76" x="138.525391"/>
      <use xlink:href="#DejaVuSans-69" x="197.705078"/>
      <use xlink:href="#DejaVuSans-61" x="225.488281"/>
      <use xlink:href="#DejaVuSans-74" x="286.767578"/>
      <use xlink:href="#DejaVuSans-69" x="325.976562"/>
      <use xlink:href="#DejaVuSans-6f" x="353.759766"/>
      <use xlink:href="#DejaVuSans-6e" x="414.941406"/>
      <use xlink:href="#DejaVuSans-20" x="478.320312"/>
      <use xlink:href="#DejaVuSans-66" x="510.107422"/>
      <use xlink:href="#DejaVuSans-72" x="545.3125"/>
      <use xlink:href="#DejaVuSans-6f" x="584.175781"/>
      <use xlink:href="#DejaVuSans-6d" x="645.357422"/>
      <use xlink:href="#DejaVuSans-20" x="742.769531"/>
      <use xlink:href="#DejaVuSans-61" x="774.556641"/>
      <use xlink:href="#DejaVuSans-76" x="835.835938"/>
      <use xlink:href="#DejaVuSans-65" x="895.015625"/>
      <use xlink:href="#DejaVuSans-72" x="956.539062"/>
      <use xlink:href="#DejaVuSans-61" x="997.652344"/>
      <use xlink:href="#DejaVuSans-67" x="1058.931641"/>
      <use xlink:href="#DejaVuSans-65" x="1122.408203"/>
      <use xlink:href="#DejaVuSans-20" x="1183.931641"/>
      <use xlink:href="#DejaVuSans-30" x="1215.71875"/>
     </g>
    </g>
    <g id="line2d_23">
     <path d="M 159.064062 188.395313 
L 169.064062 188.395313 
L 179.064062 188.395313 
" style="fill: none; stroke: #ff7f0e; stroke-width: 1.5; stroke-linecap: square"/>
    </g>
    <g id="text_14">
     <!-- Deviation from average 1 -->
     <g transform="translate(187.064062 191.895313)scale(0.1 -0.1)">
      <use xlink:href="#DejaVuSans-44"/>
      <use xlink:href="#DejaVuSans-65" x="77.001953"/>
      <use xlink:href="#DejaVuSans-76" x="138.525391"/>
      <use xlink:href="#DejaVuSans-69" x="197.705078"/>
      <use xlink:href="#DejaVuSans-61" x="225.488281"/>
      <use xlink:href="#DejaVuSans-74" x="286.767578"/>
      <use xlink:href="#DejaVuSans-69" x="325.976562"/>
      <use xlink:href="#DejaVuSans-6f" x="353.759766"/>
      <use xlink:href="#DejaVuSans-6e" x="414.941406"/>
      <use xlink:href="#DejaVuSans-20" x="478.320312"/>
      <use xlink:href="#DejaVuSans-66" x="510.107422"/>
      <use xlink:href="#DejaVuSans-72" x="545.3125"/>
      <use xlink:href="#DejaVuSans-6f" x="584.175781"/>
      <use xlink:href="#DejaVuSans-6d" x="645.357422"/>
      <use xlink:href="#DejaVuSans-20" x="742.769531"/>
      <use xlink:href="#DejaVuSans-61" x="774.556641"/>
      <use xlink:href="#DejaVuSans-76" x="835.835938"/>
      <use xlink:href="#DejaVuSans-65" x="895.015625"/>
      <use xlink:href="#DejaVuSans-72" x="956.539062"/>
      <use xlink:href="#DejaVuSans-61" x="997.652344"/>
      <use xlink:href="#DejaVuSans-67" x="1058.931641"/>
      <use xlink:href="#DejaVuSans-65" x="1122.408203"/>
      <use xlink:href="#DejaVuSans-20" x="1183.931641"/>
      <use xlink:href="#DejaVuSans-31" x="1215.71875"/>
     </g>
    </g>
    <g id="line2d_24">
     <path d="M 159.064062 203.073438 
L 169.064062 203.073438 
L 179.064062 203.073438 
" style="fill: none; stroke: #2ca02c; stroke-width: 1.5; stroke-linecap: square"/>
    </g>
    <g id="text_15">
     <!-- Deviation from average 2 -->
     <g transform="translate(187.064062 206.573438)scale(0.1 -0.1)">
      <use xlink:href="#DejaVuSans-44"/>
      <use xlink:href="#DejaVuSans-65" x="77.001953"/>
      <use xlink:href="#DejaVuSans-76" x="138.525391"/>
      <use xlink:href="#DejaVuSans-69" x="197.705078"/>
      <use xlink:href="#DejaVuSans-61" x="225.488281"/>
      <use xlink:href="#DejaVuSans-74" x="286.767578"/>
      <use xlink:href="#DejaVuSans-69" x="325.976562"/>
      <use xlink:href="#DejaVuSans-6f" x="353.759766"/>
      <use xlink:href="#DejaVuSans-6e" x="414.941406"/>
      <use xlink:href="#DejaVuSans-20" x="478.320312"/>
      <use xlink:href="#DejaVuSans-66" x="510.107422"/>
      <use xlink:href="#DejaVuSans-72" x="545.3125"/>
      <use xlink:href="#DejaVuSans-6f" x="584.175781"/>
      <use xlink:href="#DejaVuSans-6d" x="645.357422"/>
      <use xlink:href="#DejaVuSans-20" x="742.769531"/>
      <use xlink:href="#DejaVuSans-61" x="774.556641"/>
      <use xlink:href="#DejaVuSans-76" x="835.835938"/>
      <use xlink:href="#DejaVuSans-65" x="895.015625"/>
      <use xlink:href="#DejaVuSans-72" x="956.539062"/>
      <use xlink:href="#DejaVuSans-61" x="997.652344"/>
      <use xlink:href="#DejaVuSans-67" x="1058.931641"/>
      <use xlink:href="#DejaVuSans-65" x="1122.408203"/>
      <use xlink:href="#DejaVuSans-20" x="1183.931641"/>
      <use xlink:href="#DejaVuSans-32" x="1215.71875"/>
     </g>
    </g>
    <g id="line2d_25">
     <path d="M 159.064062 217.751563 
L 169.064062 217.751563 
L 179.064062 217.751563 
" style="fill: none; stroke: #d62728; stroke-width: 1.5; stroke-linecap: square"/>
    </g>
    <g id="text_16">
     <!-- Deviation from average 3 -->
     <g transform="translate(187.064062 221.251563)scale(0.1 -0.1)">
      <defs>
       <path id="DejaVuSans-33" d="M 2597 2516 
Q 3050 2419 3304 2112 
Q 3559 1806 3559 1356 
Q 3559 666 3084 287 
Q 2609 -91 1734 -91 
Q 1441 -91 1130 -33 
Q 819 25 488 141 
L 488 750 
Q 750 597 1062 519 
Q 1375 441 1716 441 
Q 2309 441 2620 675 
Q 2931 909 2931 1356 
Q 2931 1769 2642 2001 
Q 2353 2234 1838 2234 
L 1294 2234 
L 1294 2753 
L 1863 2753 
Q 2328 2753 2575 2939 
Q 2822 3125 2822 3475 
Q 2822 3834 2567 4026 
Q 2313 4219 1838 4219 
Q 1578 4219 1281 4162 
Q 984 4106 628 3988 
L 628 4550 
Q 988 4650 1302 4700 
Q 1616 4750 1894 4750 
Q 2613 4750 3031 4423 
Q 3450 4097 3450 3541 
Q 3450 3153 3228 2886 
Q 3006 2619 2597 2516 
z
" transform="scale(0.015625)"/>
      </defs>
      <use xlink:href="#DejaVuSans-44"/>
      <use xlink:href="#DejaVuSans-65" x="77.001953"/>
      <use xlink:href="#DejaVuSans-76" x="138.525391"/>
      <use xlink:href="#DejaVuSans-69" x="197.705078"/>
      <use xlink:href="#DejaVuSans-61" x="225.488281"/>
      <use xlink:href="#DejaVuSans-74" x="286.767578"/>
      <use xlink:href="#DejaVuSans-69" x="325.976562"/>
      <use xlink:href="#DejaVuSans-6f" x="353.759766"/>
      <use xlink:href="#DejaVuSans-6e" x="414.941406"/>
      <use xlink:href="#DejaVuSans-20" x="478.320312"/>
      <use xlink:href="#DejaVuSans-66" x="510.107422"/>
      <use xlink:href="#DejaVuSans-72" x="545.3125"/>
      <use xlink:href="#DejaVuSans-6f" x="584.175781"/>
      <use xlink:href="#DejaVuSans-6d" x="645.357422"/>
      <use xlink:href="#DejaVuSans-20" x="742.769531"/>
      <use xlink:href="#DejaVuSans-61" x="774.556641"/>
      <use xlink:href="#DejaVuSans-76" x="835.835938"/>
      <use xlink:href="#DejaVuSans-65" x="895.015625"/>
      <use xlink:href="#DejaVuSans-72" x="956.539062"/>
      <use xlink:href="#DejaVuSans-61" x="997.652344"/>
      <use xlink:href="#DejaVuSans-67" x="1058.931641"/>
      <use xlink:href="#DejaVuSans-65" x="1122.408203"/>
      <use xlink:href="#DejaVuSans-20" x="1183.931641"/>
      <use xlink:href="#DejaVuSans-33" x="1215.71875"/>
     </g>
    </g>
    <g id="line2d_26">
     <path d="M 159.064062 232.429688 
L 169.064062 232.429688 
L 179.064062 232.429688 
" style="fill: none; stroke: #9467bd; stroke-width: 1.5; stroke-linecap: square"/>
    </g>
    <g id="text_17">
     <!-- Deviation from average 4 -->
     <g transform="translate(187.064062 235.929688)scale(0.1 -0.1)">
      <defs>
       <path id="DejaVuSans-34" d="M 2419 4116 
L 825 1625 
L 2419 1625 
L 2419 4116 
z
M 2253 4666 
L 3047 4666 
L 3047 1625 
L 3713 1625 
L 3713 1100 
L 3047 1100 
L 3047 0 
L 2419 0 
L 2419 1100 
L 313 1100 
L 313 1709 
L 2253 4666 
z
" transform="scale(0.015625)"/>
      </defs>
      <use xlink:href="#DejaVuSans-44"/>
      <use xlink:href="#DejaVuSans-65" x="77.001953"/>
      <use xlink:href="#DejaVuSans-76" x="138.525391"/>
      <use xlink:href="#DejaVuSans-69" x="197.705078"/>
      <use xlink:href="#DejaVuSans-61" x="225.488281"/>
      <use xlink:href="#DejaVuSans-74" x="286.767578"/>
      <use xlink:href="#DejaVuSans-69" x="325.976562"/>
      <use xlink:href="#DejaVuSans-6f" x="353.759766"/>
      <use xlink:href="#DejaVuSans-6e" x="414.941406"/>
      <use xlink:href="#DejaVuSans-20" x="478.320312"/>
      <use xlink:href="#DejaVuSans-66" x="510.107422"/>
      <use xlink:href="#DejaVuSans-72" x="545.3125"/>
      <use xlink:href="#DejaVuSans-6f" x="584.175781"/>
      <use xlink:href="#DejaVuSans-6d" x="645.357422"/>
      <use xlink:href="#DejaVuSans-20" x="742.769531"/>
      <use xlink:href="#DejaVuSans-61" x="774.556641"/>
      <use xlink:href="#DejaVuSans-76" x="835.835938"/>
      <use xlink:href="#DejaVuSans-65" x="895.015625"/>
      <use xlink:href="#DejaVuSans-72" x="956.539062"/>
      <use xlink:href="#DejaVuSans-61" x="997.652344"/>
      <use xlink:href="#DejaVuSans-67" x="1058.931641"/>
      <use xlink:href="#DejaVuSans-65" x="1122.408203"/>
      <use xlink:href="#DejaVuSans-20" x="1183.931641"/>
      <use xlink:href="#DejaVuSans-34" x="1215.71875"/>
     </g>
    </g>
    <g id="line2d_27">
     <path d="M 159.064062 247.107813 
L 169.064062 247.107813 
L 179.064062 247.107813 
" style="fill: none; stroke: #8c564b; stroke-width: 1.5; stroke-linecap: square"/>
    </g>
    <g id="text_18">
     <!-- Deviation from average 5 -->
     <g transform="translate(187.064062 250.607813)scale(0.1 -0.1)">
      <use xlink:href="#DejaVuSans-44"/>
      <use xlink:href="#DejaVuSans-65" x="77.001953"/>
      <use xlink:href="#DejaVuSans-76" x="138.525391"/>
      <use xlink:href="#DejaVuSans-69" x="197.705078"/>
      <use xlink:href="#DejaVuSans-61" x="225.488281"/>
      <use xlink:href="#DejaVuSans-74" x="286.767578"/>
      <use xlink:href="#DejaVuSans-69" x="325.976562"/>
      <use xlink:href="#DejaVuSans-6f" x="353.759766"/>
      <use xlink:href="#DejaVuSans-6e" x="414.941406"/>
      <use xlink:href="#DejaVuSans-20" x="478.320312"/>
      <use xlink:href="#DejaVuSans-66" x="510.107422"/>
      <use xlink:href="#DejaVuSans-72" x="545.3125"/>
      <use xlink:href="#DejaVuSans-6f" x="584.175781"/>
      <use xlink:href="#DejaVuSans-6d" x="645.357422"/>
      <use xlink:href="#DejaVuSans-20" x="742.769531"/>
      <use xlink:href="#DejaVuSans-61" x="774.556641"/>
      <use xlink:href="#DejaVuSans-76" x="835.835938"/>
      <use xlink:href="#DejaVuSans-65" x="895.015625"/>
      <use xlink:href="#DejaVuSans-72" x="956.539062"/>
      <use xlink:href="#DejaVuSans-61" x="997.652344"/>
      <use xlink:href="#DejaVuSans-67" x="1058.931641"/>
      <use xlink:href="#DejaVuSans-65" x="1122.408203"/>
      <use xlink:href="#DejaVuSans-20" x="1183.931641"/>
      <use xlink:href="#DejaVuSans-35" x="1215.71875"/>
     </g>
    </g>
    <g id="line2d_28">
     <path d="M 159.064062 261.785938 
L 169.064062 261.785938 
L 179.064062 261.785938 
" style="fill: none; stroke: #e377c2; stroke-width: 1.5; stroke-linecap: square"/>
    </g>
    <g id="text_19">
     <!-- Deviation from average 6 -->
     <g transform="translate(187.064062 265.285938)scale(0.1 -0.1)">
      <defs>
       <path id="DejaVuSans-36" d="M 2113 2584 
Q 1688 2584 1439 2293 
Q 1191 2003 1191 1497 
Q 1191 994 1439 701 
Q 1688 409 2113 409 
Q 2538 409 2786 701 
Q 3034 994 3034 1497 
Q 3034 2003 2786 2293 
Q 2538 2584 2113 2584 
z
M 3366 4563 
L 3366 3988 
Q 3128 4100 2886 4159 
Q 2644 4219 2406 4219 
Q 1781 4219 1451 3797 
Q 1122 3375 1075 2522 
Q 1259 2794 1537 2939 
Q 1816 3084 2150 3084 
Q 2853 3084 3261 2657 
Q 3669 2231 3669 1497 
Q 3669 778 3244 343 
Q 2819 -91 2113 -91 
Q 1303 -91 875 529 
Q 447 1150 447 2328 
Q 447 3434 972 4092 
Q 1497 4750 2381 4750 
Q 2619 4750 2861 4703 
Q 3103 4656 3366 4563 
z
" transform="scale(0.015625)"/>
      </defs>
      <use xlink:href="#DejaVuSans-44"/>
      <use xlink:href="#DejaVuSans-65" x="77.001953"/>
      <use xlink:href="#DejaVuSans-76" x="138.525391"/>
      <use xlink:href="#DejaVuSans-69" x="197.705078"/>
      <use xlink:href="#DejaVuSans-61" x="225.488281"/>
      <use xlink:href="#DejaVuSans-74" x="286.767578"/>
      <use xlink:href="#DejaVuSans-69" x="325.976562"/>
      <use xlink:href="#DejaVuSans-6f" x="353.759766"/>
      <use xlink:href="#DejaVuSans-6e" x="414.941406"/>
      <use xlink:href="#DejaVuSans-20" x="478.320312"/>
      <use xlink:href="#DejaVuSans-66" x="510.107422"/>
      <use xlink:href="#DejaVuSans-72" x="545.3125"/>
      <use xlink:href="#DejaVuSans-6f" x="584.175781"/>
      <use xlink:href="#DejaVuSans-6d" x="645.357422"/>
      <use xlink:href="#DejaVuSans-20" x="742.769531"/>
      <use xlink:href="#DejaVuSans-61" x="774.556641"/>
      <use xlink:href="#DejaVuSans-76" x="835.835938"/>
      <use xlink:href="#DejaVuSans-65" x="895.015625"/>
      <use xlink:href="#DejaVuSans-72" x="956.539062"/>
      <use xlink:href="#DejaVuSans-61" x="997.652344"/>
      <use xlink:href="#DejaVuSans-67" x="1058.931641"/>
      <use xlink:href="#DejaVuSans-65" x="1122.408203"/>
      <use xlink:href="#DejaVuSans-20" x="1183.931641"/>
      <use xlink:href="#DejaVuSans-36" x="1215.71875"/>
     </g>
    </g>
    <g id="line2d_29">
     <path d="M 159.064062 276.464063 
L 169.064062 276.464063 
L 179.064062 276.464063 
" style="fill: none; stroke: #7f7f7f; stroke-width: 1.5; stroke-linecap: square"/>
    </g>
    <g id="text_20">
     <!-- Deviation from average 7 -->
     <g transform="translate(187.064062 279.964063)scale(0.1 -0.1)">
      <defs>
       <path id="DejaVuSans-37" d="M 525 4666 
L 3525 4666 
L 3525 4397 
L 1831 0 
L 1172 0 
L 2766 4134 
L 525 4134 
L 525 4666 
z
" transform="scale(0.015625)"/>
      </defs>
      <use xlink:href="#DejaVuSans-44"/>
      <use xlink:href="#DejaVuSans-65" x="77.001953"/>
      <use xlink:href="#DejaVuSans-76" x="138.525391"/>
      <use xlink:href="#DejaVuSans-69" x="197.705078"/>
      <use xlink:href="#DejaVuSans-61" x="225.488281"/>
      <use xlink:href="#DejaVuSans-74" x="286.767578"/>
      <use xlink:href="#DejaVuSans-69" x="325.976562"/>
      <use xlink:href="#DejaVuSans-6f" x="353.759766"/>
      <use xlink:href="#DejaVuSans-6e" x="414.941406"/>
      <use xlink:href="#DejaVuSans-20" x="478.320312"/>
      <use xlink:href="#DejaVuSans-66" x="510.107422"/>
      <use xlink:href="#DejaVuSans-72" x="545.3125"/>
      <use xlink:href="#DejaVuSans-6f" x="584.175781"/>
      <use xlink:href="#DejaVuSans-6d" x="645.357422"/>
      <use xlink:href="#DejaVuSans-20" x="742.769531"/>
      <use xlink:href="#DejaVuSans-61" x="774.556641"/>
      <use xlink:href="#DejaVuSans-76" x="835.835938"/>
      <use xlink:href="#DejaVuSans-65" x="895.015625"/>
      <use xlink:href="#DejaVuSans-72" x="956.539062"/>
      <use xlink:href="#DejaVuSans-61" x="997.652344"/>
      <use xlink:href="#DejaVuSans-67" x="1058.931641"/>
      <use xlink:href="#DejaVuSans-65" x="1122.408203"/>
      <use xlink:href="#DejaVuSans-20" x="1183.931641"/>
      <use xlink:href="#DejaVuSans-37" x="1215.71875"/>
     </g>
    </g>
    <g id="line2d_30">
     <path d="M 159.064062 291.142188 
L 169.064062 291.142188 
L 179.064062 291.142188 
" style="fill: none; stroke: #bcbd22; stroke-width: 1.5; stroke-linecap: square"/>
    </g>
    <g id="text_21">
     <!-- Deviation from average 8 -->
     <g transform="translate(187.064062 294.642188)scale(0.1 -0.1)">
      <defs>
       <path id="DejaVuSans-38" d="M 2034 2216 
Q 1584 2216 1326 1975 
Q 1069 1734 1069 1313 
Q 1069 891 1326 650 
Q 1584 409 2034 409 
Q 2484 409 2743 651 
Q 3003 894 3003 1313 
Q 3003 1734 2745 1975 
Q 2488 2216 2034 2216 
z
M 1403 2484 
Q 997 2584 770 2862 
Q 544 3141 544 3541 
Q 544 4100 942 4425 
Q 1341 4750 2034 4750 
Q 2731 4750 3128 4425 
Q 3525 4100 3525 3541 
Q 3525 3141 3298 2862 
Q 3072 2584 2669 2484 
Q 3125 2378 3379 2068 
Q 3634 1759 3634 1313 
Q 3634 634 3220 271 
Q 2806 -91 2034 -91 
Q 1263 -91 848 271 
Q 434 634 434 1313 
Q 434 1759 690 2068 
Q 947 2378 1403 2484 
z
M 1172 3481 
Q 1172 3119 1398 2916 
Q 1625 2713 2034 2713 
Q 2441 2713 2670 2916 
Q 2900 3119 2900 3481 
Q 2900 3844 2670 4047 
Q 2441 4250 2034 4250 
Q 1625 4250 1398 4047 
Q 1172 3844 1172 3481 
z
" transform="scale(0.015625)"/>
      </defs>
      <use xlink:href="#DejaVuSans-44"/>
      <use xlink:href="#DejaVuSans-65" x="77.001953"/>
      <use xlink:href="#DejaVuSans-76" x="138.525391"/>
      <use xlink:href="#DejaVuSans-69" x="197.705078"/>
      <use xlink:href="#DejaVuSans-61" x="225.488281"/>
      <use xlink:href="#DejaVuSans-74" x="286.767578"/>
      <use xlink:href="#DejaVuSans-69" x="325.976562"/>
      <use xlink:href="#DejaVuSans-6f" x="353.759766"/>
      <use xlink:href="#DejaVuSans-6e" x="414.941406"/>
      <use xlink:href="#DejaVuSans-20" x="478.320312"/>
      <use xlink:href="#DejaVuSans-66" x="510.107422"/>
      <use xlink:href="#DejaVuSans-72" x="545.3125"/>
      <use xlink:href="#DejaVuSans-6f" x="584.175781"/>
      <use xlink:href="#DejaVuSans-6d" x="645.357422"/>
      <use xlink:href="#DejaVuSans-20" x="742.769531"/>
      <use xlink:href="#DejaVuSans-61" x="774.556641"/>
      <use xlink:href="#DejaVuSans-76" x="835.835938"/>
      <use xlink:href="#DejaVuSans-65" x="895.015625"/>
      <use xlink:href="#DejaVuSans-72" x="956.539062"/>
      <use xlink:href="#DejaVuSans-61" x="997.652344"/>
      <use xlink:href="#DejaVuSans-67" x="1058.931641"/>
      <use xlink:href="#DejaVuSans-65" x="1122.408203"/>
      <use xlink:href="#DejaVuSans-20" x="1183.931641"/>
      <use xlink:href="#DejaVuSans-38" x="1215.71875"/>
     </g>
    </g>
    <g id="line2d_31">
     <path d="M 159.064062 305.820312 
L 169.064062 305.820312 
L 179.064062 305.820312 
" style="fill: none; stroke: #17becf; stroke-width: 1.5; stroke-linecap: square"/>
    </g>
    <g id="text_22">
     <!-- Deviation from average 9 -->
     <g transform="translate(187.064062 309.320312)scale(0.1 -0.1)">
      <defs>
       <path id="DejaVuSans-39" d="M 703 97 
L 703 672 
Q 941 559 1184 500 
Q 1428 441 1663 441 
Q 2288 441 2617 861 
Q 2947 1281 2994 2138 
Q 2813 1869 2534 1725 
Q 2256 1581 1919 1581 
Q 1219 1581 811 2004 
Q 403 2428 403 3163 
Q 403 3881 828 4315 
Q 1253 4750 1959 4750 
Q 2769 4750 3195 4129 
Q 3622 3509 3622 2328 
Q 3622 1225 3098 567 
Q 2575 -91 1691 -91 
Q 1453 -91 1209 -44 
Q 966 3 703 97 
z
M 1959 2075 
Q 2384 2075 2632 2365 
Q 2881 2656 2881 3163 
Q 2881 3666 2632 3958 
Q 2384 4250 1959 4250 
Q 1534 4250 1286 3958 
Q 1038 3666 1038 3163 
Q 1038 2656 1286 2365 
Q 1534 2075 1959 2075 
z
" transform="scale(0.015625)"/>
      </defs>
      <use xlink:href="#DejaVuSans-44"/>
      <use xlink:href="#DejaVuSans-65" x="77.001953"/>
      <use xlink:href="#DejaVuSans-76" x="138.525391"/>
      <use xlink:href="#DejaVuSans-69" x="197.705078"/>
      <use xlink:href="#DejaVuSans-61" x="225.488281"/>
      <use xlink:href="#DejaVuSans-74" x="286.767578"/>
      <use xlink:href="#DejaVuSans-69" x="325.976562"/>
      <use xlink:href="#DejaVuSans-6f" x="353.759766"/>
      <use xlink:href="#DejaVuSans-6e" x="414.941406"/>
      <use xlink:href="#DejaVuSans-20" x="478.320312"/>
      <use xlink:href="#DejaVuSans-66" x="510.107422"/>
      <use xlink:href="#DejaVuSans-72" x="545.3125"/>
      <use xlink:href="#DejaVuSans-6f" x="584.175781"/>
      <use xlink:href="#DejaVuSans-6d" x="645.357422"/>
      <use xlink:href="#DejaVuSans-20" x="742.769531"/>
      <use xlink:href="#DejaVuSans-61" x="774.556641"/>
      <use xlink:href="#DejaVuSans-76" x="835.835938"/>
      <use xlink:href="#DejaVuSans-65" x="895.015625"/>
      <use xlink:href="#DejaVuSans-72" x="956.539062"/>
      <use xlink:href="#DejaVuSans-61" x="997.652344"/>
      <use xlink:href="#DejaVuSans-67" x="1058.931641"/>
      <use xlink:href="#DejaVuSans-65" x="1122.408203"/>
      <use xlink:href="#DejaVuSans-20" x="1183.931641"/>
      <use xlink:href="#DejaVuSans-39" x="1215.71875"/>
     </g>
    </g>
   </g>
  </g>
 </g>
 <defs>
  <clipPath id="p4274446926">
   <rect x="45" y="43.2" width="279" height="277.2"/>
  </clipPath>
 </defs>
</svg>
