<?xml version="1.0" encoding="utf-8" standalone="no"?>
<!DOCTYPE svg PUBLIC "-//W3C//DTD SVG 1.1//EN"
  "http://www.w3.org/Graphics/SVG/1.1/DTD/svg11.dtd">
<svg xmlns:xlink="http://www.w3.org/1999/xlink" width="360pt" height="360pt" viewBox="0 0 360 360" xmlns="http://www.w3.org/2000/svg" version="1.1">
 <metadata>
  <rdf:RDF xmlns:dc="http://purl.org/dc/elements/1.1/" xmlns:cc="http://creativecommons.org/ns#" xmlns:rdf="http://www.w3.org/1999/02/22-rdf-syntax-ns#">
   <cc:Work>
    <dc:type rdf:resource="http://purl.org/dc/dcmitype/StillImage"/>
    <dc:date>2022-11-12T19:33:51.373535</dc:date>
    <dc:format>image/svg+xml</dc:format>
    <dc:creator>
     <cc:Agent>
      <dc:title>Matplotlib v3.5.3, https://matplotlib.org/</dc:title>
     </cc:Agent>
    </dc:creator>
   </cc:Work>
  </rdf:RDF>
 </metadata>
 <defs>
  <style type="text/css">*{stroke-linejoin: round; stroke-linecap: butt}</style>
 </defs>
 <g id="figure_1">
  <g id="patch_1">
   <path d="M 0 360 
L 360 360 
L 360 0 
L 0 0 
z
" style="fill: #ffffff"/>
  </g>
  <g id="axes_1">
   <g id="patch_2">
    <path d="M 45 320.4 
L 324 320.4 
L 324 43.2 
L 45 43.2 
z
" style="fill: #ffffff"/>
   </g>
   <g id="matplotlib.axis_1">
    <g id="xtick_1">
     <g id="line2d_1">
      <defs>
       <path id="me4f4e16ec1" d="M 0 0 
L 0 3.5 
" style="stroke: #000000; stroke-width: 0.8"/>
      </defs>
      <g>
       <use xlink:href="#me4f4e16ec1" x="83.045455" y="320.4" style="stroke: #000000; stroke-width: 0.8"/>
      </g>
     </g>
     <g id="text_1">
      <!-- −2 -->
      <g transform="translate(75.674361 334.998438)scale(0.1 -0.1)">
       <defs>
        <path id="DejaVuSans-2212" d="M 678 2272 
L 4684 2272 
L 4684 1741 
L 678 1741 
L 678 2272 
z
" transform="scale(0.015625)"/>
        <path id="DejaVuSans-32" d="M 1228 531 
L 3431 531 
L 3431 0 
L 469 0 
L 469 531 
Q 828 903 1448 1529 
Q 2069 2156 2228 2338 
Q 2531 2678 2651 2914 
Q 2772 3150 2772 3378 
Q 2772 3750 2511 3984 
Q 2250 4219 1831 4219 
Q 1534 4219 1204 4116 
Q 875 4013 500 3803 
L 500 4441 
Q 881 4594 1212 4672 
Q 1544 4750 1819 4750 
Q 2544 4750 2975 4387 
Q 3406 4025 3406 3419 
Q 3406 3131 3298 2873 
Q 3191 2616 2906 2266 
Q 2828 2175 2409 1742 
Q 1991 1309 1228 531 
z
" transform="scale(0.015625)"/>
       </defs>
       <use xlink:href="#DejaVuSans-2212"/>
       <use xlink:href="#DejaVuSans-32" x="83.789062"/>
      </g>
     </g>
    </g>
    <g id="xtick_2">
     <g id="line2d_2">
      <g>
       <use xlink:href="#me4f4e16ec1" x="133.772727" y="320.4" style="stroke: #000000; stroke-width: 0.8"/>
      </g>
     </g>
     <g id="text_2">
      <!-- −1 -->
      <g transform="translate(126.401634 334.998438)scale(0.1 -0.1)">
       <defs>
        <path id="DejaVuSans-31" d="M 794 531 
L 1825 531 
L 1825 4091 
L 703 3866 
L 703 4441 
L 1819 4666 
L 2450 4666 
L 2450 531 
L 3481 531 
L 3481 0 
L 794 0 
L 794 531 
z
" transform="scale(0.015625)"/>
       </defs>
       <use xlink:href="#DejaVuSans-2212"/>
       <use xlink:href="#DejaVuSans-31" x="83.789062"/>
      </g>
     </g>
    </g>
    <g id="xtick_3">
     <g id="line2d_3">
      <g>
       <use xlink:href="#me4f4e16ec1" x="184.5" y="320.4" style="stroke: #000000; stroke-width: 0.8"/>
      </g>
     </g>
     <g id="text_3">
      <!-- 0 -->
      <g transform="translate(181.31875 334.998438)scale(0.1 -0.1)">
       <defs>
        <path id="DejaVuSans-30" d="M 2034 4250 
Q 1547 4250 1301 3770 
Q 1056 3291 1056 2328 
Q 1056 1369 1301 889 
Q 1547 409 2034 409 
Q 2525 409 2770 889 
Q 3016 1369 3016 2328 
Q 3016 3291 2770 3770 
Q 2525 4250 2034 4250 
z
M 2034 4750 
Q 2819 4750 3233 4129 
Q 3647 3509 3647 2328 
Q 3647 1150 3233 529 
Q 2819 -91 2034 -91 
Q 1250 -91 836 529 
Q 422 1150 422 2328 
Q 422 3509 836 4129 
Q 1250 4750 2034 4750 
z
" transform="scale(0.015625)"/>
       </defs>
       <use xlink:href="#DejaVuSans-30"/>
      </g>
     </g>
    </g>
    <g id="xtick_4">
     <g id="line2d_4">
      <g>
       <use xlink:href="#me4f4e16ec1" x="235.227273" y="320.4" style="stroke: #000000; stroke-width: 0.8"/>
      </g>
     </g>
     <g id="text_4">
      <!-- 1 -->
      <g transform="translate(232.046023 334.998438)scale(0.1 -0.1)">
       <use xlink:href="#DejaVuSans-31"/>
      </g>
     </g>
    </g>
    <g id="xtick_5">
     <g id="line2d_5">
      <g>
       <use xlink:href="#me4f4e16ec1" x="285.954545" y="320.4" style="stroke: #000000; stroke-width: 0.8"/>
      </g>
     </g>
     <g id="text_5">
      <!-- 2 -->
      <g transform="translate(282.773295 334.998438)scale(0.1 -0.1)">
       <use xlink:href="#DejaVuSans-32"/>
      </g>
     </g>
    </g>
   </g>
   <g id="matplotlib.axis_2">
    <g id="ytick_1">
     <g id="line2d_6">
      <defs>
       <path id="m7f40102f61" d="M 0 0 
L -3.5 0 
" style="stroke: #000000; stroke-width: 0.8"/>
      </defs>
      <g>
       <use xlink:href="#m7f40102f61" x="45" y="293.482184" style="stroke: #000000; stroke-width: 0.8"/>
      </g>
     </g>
     <g id="text_6">
      <!-- 0 -->
      <g transform="translate(31.6375 297.281402)scale(0.1 -0.1)">
       <use xlink:href="#DejaVuSans-30"/>
      </g>
     </g>
    </g>
    <g id="ytick_2">
     <g id="line2d_7">
      <g>
       <use xlink:href="#m7f40102f61" x="45" y="237.660629" style="stroke: #000000; stroke-width: 0.8"/>
      </g>
     </g>
     <g id="text_7">
      <!-- 5 -->
      <g transform="translate(31.6375 241.459848)scale(0.1 -0.1)">
       <defs>
        <path id="DejaVuSans-35" d="M 691 4666 
L 3169 4666 
L 3169 4134 
L 1269 4134 
L 1269 2991 
Q 1406 3038 1543 3061 
Q 1681 3084 1819 3084 
Q 2600 3084 3056 2656 
Q 3513 2228 3513 1497 
Q 3513 744 3044 326 
Q 2575 -91 1722 -91 
Q 1428 -91 1123 -41 
Q 819 9 494 109 
L 494 744 
Q 775 591 1075 516 
Q 1375 441 1709 441 
Q 2250 441 2565 725 
Q 2881 1009 2881 1497 
Q 2881 1984 2565 2268 
Q 2250 2553 1709 2553 
Q 1456 2553 1204 2497 
Q 953 2441 691 2322 
L 691 4666 
z
" transform="scale(0.015625)"/>
       </defs>
       <use xlink:href="#DejaVuSans-35"/>
      </g>
     </g>
    </g>
    <g id="ytick_3">
     <g id="line2d_8">
      <g>
       <use xlink:href="#m7f40102f61" x="45" y="181.839075" style="stroke: #000000; stroke-width: 0.8"/>
      </g>
     </g>
     <g id="text_8">
      <!-- 10 -->
      <g transform="translate(25.275 185.638294)scale(0.1 -0.1)">
       <use xlink:href="#DejaVuSans-31"/>
       <use xlink:href="#DejaVuSans-30" x="63.623047"/>
      </g>
     </g>
    </g>
    <g id="ytick_4">
     <g id="line2d_9">
      <g>
       <use xlink:href="#m7f40102f61" x="45" y="126.017521" style="stroke: #000000; stroke-width: 0.8"/>
      </g>
     </g>
     <g id="text_9">
      <!-- 15 -->
      <g transform="translate(25.275 129.816739)scale(0.1 -0.1)">
       <use xlink:href="#DejaVuSans-31"/>
       <use xlink:href="#DejaVuSans-35" x="63.623047"/>
      </g>
     </g>
    </g>
    <g id="ytick_5">
     <g id="line2d_10">
      <g>
       <use xlink:href="#m7f40102f61" x="45" y="70.195966" style="stroke: #000000; stroke-width: 0.8"/>
      </g>
     </g>
     <g id="text_10">
      <!-- 20 -->
      <g transform="translate(25.275 73.995185)scale(0.1 -0.1)">
       <use xlink:href="#DejaVuSans-32"/>
       <use xlink:href="#DejaVuSans-30" x="63.623047"/>
      </g>
     </g>
    </g>
   </g>
   <g id="line2d_11">
    <path d="M 57.681818 55.8 
L 62.131574 99.507308 
L 64.038619 115.661379 
L 64.674309 122.086488 
L 65.309987 126.521108 
L 66.581342 137.497284 
L 68.488375 151.640243 
L 69.759743 161.617975 
L 74.845188 194.954055 
L 75.480866 198.56479 
L 76.752221 206.730708 
L 82.473333 235.508991 
L 83.109022 237.904917 
L 83.7447 241.075191 
L 84.380384 243.203715 
L 85.016061 246.178296 
L 85.651745 248.354838 
L 86.287423 251.112612 
L 86.923101 252.93544 
L 87.558784 256.064082 
L 88.83014 260.537782 
L 89.465823 261.841628 
L 90.101501 264.233202 
L 90.737185 265.895294 
L 91.372862 268.84495 
L 92.644224 272.544484 
L 93.279902 274.256816 
L 93.915579 275.371249 
L 94.551263 277.056967 
L 95.186941 278.396876 
L 95.822624 280.698153 
L 96.458302 282.285808 
L 97.09398 283.051613 
L 97.729663 284.964021 
L 98.365347 285.739161 
L 99.001025 287.499828 
L 99.636709 288.288215 
L 100.272386 290.233062 
L 100.90807 291.225375 
L 101.543748 291.871197 
L 102.815109 294.242762 
L 103.450781 294.730747 
L 104.086458 295.603866 
L 104.722142 297.265673 
L 105.35782 297.994879 
L 105.993504 297.981047 
L 106.629181 299.435984 
L 107.264859 300.161901 
L 107.900543 301.182267 
L 108.536226 301.602494 
L 109.171904 301.747398 
L 110.443266 303.393247 
L 111.078949 303.473695 
L 111.714627 304.333268 
L 112.350305 304.857929 
L 112.985988 305.092086 
L 113.621666 305.642302 
L 114.257344 305.847679 
L 114.893027 305.242927 
L 115.528705 305.975071 
L 116.164389 306.159697 
L 116.800067 307.075906 
L 118.071428 307.108015 
L 118.707106 306.979705 
L 119.342783 307.678093 
L 119.978467 307.523155 
L 120.614145 307.68902 
L 121.249829 307.402644 
L 121.885506 307.63907 
L 122.521184 307.47568 
L 123.156868 307.8 
L 124.428223 307.656788 
L 125.063907 307.448105 
L 125.699584 307.605152 
L 126.335268 306.586309 
L 126.970946 307.037792 
L 127.606623 306.302828 
L 128.242307 306.449345 
L 128.877991 306.920782 
L 129.513669 305.871814 
L 130.149352 306.207537 
L 130.78503 306.050124 
L 131.420714 306.068634 
L 132.056391 305.916846 
L 132.692069 304.946823 
L 133.327753 304.961689 
L 133.963431 304.344755 
L 134.599111 304.732156 
L 135.234792 303.56174 
L 135.87047 304.07874 
L 137.141831 302.912047 
L 139.04887 301.502196 
L 139.684551 302.100638 
L 140.320232 301.15894 
L 140.955909 301.175497 
L 141.59159 300.627553 
L 142.227271 300.61065 
L 142.862951 299.306734 
L 143.498632 299.8436 
L 144.13431 298.75104 
L 145.405671 298.090948 
L 146.041349 298.182455 
L 146.67703 296.980005 
L 147.31271 296.970291 
L 147.948391 296.625924 
L 148.584072 296.794032 
L 149.219749 295.672112 
L 149.85543 295.594873 
L 150.491111 295.372251 
L 151.126789 294.243496 
L 152.39815 294.249306 
L 153.033831 293.834707 
L 154.305195 292.471509 
L 154.940876 292.545787 
L 155.576557 292.344973 
L 156.212234 291.844632 
L 156.847915 291.701484 
L 157.483596 290.720625 
L 158.119276 290.12742 
L 158.754957 290.729655 
L 159.390635 289.724211 
L 160.026315 289.220578 
L 160.661995 289.06844 
L 161.297675 289.03504 
L 161.933355 288.217592 
L 163.204716 287.664918 
L 163.840395 287.664196 
L 164.476068 287.413408 
L 165.111749 286.912598 
L 166.383109 286.574648 
L 167.018788 285.781132 
L 167.654469 285.395884 
L 168.29015 285.676743 
L 168.925829 285.5007 
L 169.561514 285.130343 
L 170.197195 284.943285 
L 170.832874 284.556066 
L 171.468555 284.323141 
L 172.104235 284.785009 
L 172.739914 284.291704 
L 173.375594 283.432696 
L 175.28264 283.748071 
L 175.91832 283.608798 
L 176.554 283.632985 
L 178.46104 282.434373 
L 179.09672 282.43871 
L 179.732393 283.106282 
L 181.003753 282.564818 
L 181.639433 281.884277 
L 182.275114 282.301511 
L 182.910794 282.495296 
L 183.546474 282.098763 
L 184.182154 282.531802 
L 184.817839 282.680496 
L 185.453519 281.922271 
L 186.089199 282.604556 
L 186.724879 282.494164 
L 187.360559 282.97958 
L 187.996239 282.103124 
L 188.631919 282.116673 
L 189.2676 282.40941 
L 189.903285 283.085667 
L 190.538964 283.341229 
L 191.174644 283.347762 
L 191.810325 282.59237 
L 192.446005 282.864952 
L 193.081685 282.797539 
L 194.98873 283.734844 
L 195.62441 284.327313 
L 196.895771 284.800133 
L 197.53145 284.25106 
L 198.167131 284.964335 
L 198.802811 285.0223 
L 199.438491 285.459747 
L 200.074164 285.477435 
L 200.709844 286.014371 
L 201.345524 286.240359 
L 201.981204 285.952778 
L 202.616884 286.574195 
L 203.252564 286.341872 
L 203.888245 287.151393 
L 204.523924 287.675078 
L 205.159609 287.664599 
L 205.79529 288.144246 
L 206.430969 288.35879 
L 207.06665 289.04037 
L 207.702329 288.523932 
L 208.33801 289.558296 
L 208.973691 289.228382 
L 209.60937 289.60055 
L 210.245049 289.805325 
L 210.88073 290.987684 
L 211.51641 290.518239 
L 212.152088 291.548354 
L 212.787769 291.446339 
L 213.42345 291.502243 
L 214.05913 292.481874 
L 214.694811 292.787515 
L 215.330489 293.294829 
L 215.966169 294.018274 
L 216.60185 293.672569 
L 217.237528 294.884985 
L 217.873208 294.37643 
L 219.14457 294.983221 
L 219.780251 296.038116 
L 220.415928 296.760755 
L 221.051609 296.572229 
L 221.68729 296.784585 
L 222.322967 298.042991 
L 222.958648 298.007362 
L 223.594329 298.606969 
L 224.230009 298.710877 
L 224.86569 299.32414 
L 226.137049 299.9924 
L 226.772729 300.723305 
L 227.408407 300.108358 
L 228.044088 300.467426 
L 228.679768 301.386991 
L 229.315449 301.721587 
L 231.222488 303.239724 
L 231.858169 302.821175 
L 232.493847 303.659454 
L 233.129527 304.027844 
L 233.765208 304.01973 
L 234.400889 304.459941 
L 235.036569 304.742675 
L 235.672253 304.821814 
L 236.943615 305.554088 
L 238.214976 306.290441 
L 238.850654 305.585886 
L 239.486331 306.48151 
L 240.122015 306.300173 
L 240.757693 306.816957 
L 241.39337 306.737754 
L 242.029054 306.406581 
L 242.664732 306.797173 
L 243.300416 307.648313 
L 243.936093 307.035472 
L 244.571771 306.801241 
L 245.207455 307.23938 
L 246.47881 306.886652 
L 247.114494 307.516892 
L 247.750171 307.28833 
L 248.385855 307.742813 
L 249.021533 307.397671 
L 249.657211 306.773508 
L 250.292894 306.780827 
L 250.928572 307.275442 
L 251.56425 307.199493 
L 252.199933 306.936732 
L 252.835611 306.882607 
L 253.471295 306.511245 
L 254.106973 305.938969 
L 254.74265 305.115519 
L 255.378334 305.060309 
L 256.014012 305.209278 
L 256.649689 304.832166 
L 257.285373 303.674264 
L 257.921051 303.902013 
L 259.192412 302.187213 
L 259.82809 302.145196 
L 261.099451 300.690741 
L 263.00649 298.989804 
L 264.277852 297.159779 
L 264.913529 295.444216 
L 265.549213 295.333125 
L 266.184897 294.475292 
L 266.820575 292.958043 
L 268.091936 290.637804 
L 269.363297 288.296673 
L 269.998975 287.920835 
L 271.270337 284.400248 
L 272.541698 282.23421 
L 273.177376 279.877708 
L 273.813059 279.0695 
L 275.084415 276.100633 
L 276.355776 271.860392 
L 278.898499 264.940538 
L 280.169854 259.695867 
L 280.805538 257.679644 
L 281.441222 256.058205 
L 282.076899 253.470881 
L 282.712583 251.407811 
L 283.983945 245.884941 
L 285.2553 240.231775 
L 285.890984 238.452551 
L 286.526655 234.739183 
L 287.162333 232.603904 
L 288.433701 225.705264 
L 289.069378 223.037432 
L 289.705056 219.326135 
L 290.340734 217.018383 
L 294.154824 194.669095 
L 296.697535 179.440312 
L 297.96889 170.238701 
L 299.240257 161.598108 
L 300.511613 152.04691 
L 303.690025 127.218835 
L 306.232736 105.164973 
L 307.504104 93.090525 
L 311.318182 55.907706 
L 311.318182 55.907706 
" clip-path="url(#p0dbebc3a58)" style="fill: none; stroke: #1f77b4; stroke-width: 1.5; stroke-linecap: square"/>
   </g>
   <g id="line2d_12">
    <path d="M 57.681818 186.873095 
L 60.224541 187.516054 
L 62.131574 188.215729 
L 64.038619 189.17645 
L 65.309987 190.005136 
L 66.581342 191.021319 
L 67.852697 192.26207 
L 69.124053 193.769158 
L 70.39542 195.588186 
L 71.666776 197.76697 
L 72.938143 200.352973 
L 74.209498 203.389052 
L 75.480866 206.908573 
L 76.752221 210.928797 
L 78.659254 217.8785 
L 80.566299 225.794434 
L 83.7447 240.259979 
L 86.923101 254.508983 
L 88.83014 262.127248 
L 90.737185 268.714395 
L 92.00854 272.482383 
L 93.279902 275.755964 
L 94.551263 278.561237 
L 95.822624 280.937096 
L 97.09398 282.929283 
L 98.365347 284.585868 
L 99.636709 285.953798 
L 100.90807 287.076902 
L 102.815109 288.387526 
L 104.722142 289.34786 
L 106.629181 290.047239 
L 109.171904 290.689941 
L 111.714627 291.106325 
L 115.528705 291.471177 
L 120.614145 291.699264 
L 129.513669 291.825392 
L 154.940876 291.85883 
L 311.318182 291.859228 
L 311.318182 291.859228 
" clip-path="url(#p0dbebc3a58)" style="fill: none; stroke: #ff7f0e; stroke-width: 1.5; stroke-linecap: square"/>
   </g>
   <g id="line2d_13">
    <path d="M 57.681818 186.403558 
L 60.224541 187.038424 
L 62.131574 187.729613 
L 64.038619 188.679208 
L 65.309987 189.498728 
L 66.581342 190.504092 
L 67.852697 191.73228 
L 69.124053 193.224995 
L 70.39542 195.02785 
L 71.666776 197.188884 
L 72.938143 199.755989 
L 74.209498 202.772765 
L 75.480866 206.273659 
L 76.752221 210.277305 
L 78.659254 217.209983 
L 80.566299 225.123687 
L 83.7447 239.630223 
L 86.923101 253.97383 
L 88.83014 261.663646 
L 90.737185 268.323662 
L 92.00854 272.137732 
L 93.279902 275.453799 
L 94.551263 278.297183 
L 95.822624 280.706461 
L 97.09398 282.727399 
L 98.365347 284.408339 
L 99.636709 285.79663 
L 100.90807 286.936582 
L 102.815109 288.266944 
L 104.722142 289.241724 
L 106.629181 289.951559 
L 109.171904 290.603758 
L 111.714627 291.026186 
L 115.528705 291.396199 
L 120.614145 291.627381 
L 129.513669 291.755108 
L 154.940876 291.788917 
L 311.318182 291.789318 
L 311.318182 291.789318 
" clip-path="url(#p0dbebc3a58)" style="fill: none; stroke: #2ca02c; stroke-width: 1.5; stroke-linecap: square"/>
   </g>
   <g id="line2d_14">
    <path d="M 57.681818 185.506964 
L 60.224541 186.178105 
L 62.131574 186.908061 
L 64.038619 187.909901 
L 65.309987 188.773553 
L 66.581342 189.831982 
L 67.852697 191.123456 
L 69.124053 192.690818 
L 70.39542 194.580714 
L 71.666776 196.841714 
L 72.938143 199.521465 
L 74.209498 202.66245 
L 75.480866 206.296588 
L 76.752221 210.438614 
L 78.659254 217.576148 
L 80.566299 225.671332 
L 84.380384 243.339844 
L 86.923101 254.731447 
L 88.83014 262.362765 
L 90.737185 268.935078 
L 92.00854 272.683816 
L 93.279902 275.934362 
L 94.551263 278.715258 
L 95.822624 281.067151 
L 97.09398 283.036912 
L 98.365347 284.673246 
L 99.636709 286.023367 
L 100.90807 287.131125 
L 102.815109 288.423024 
L 104.722142 289.3691 
L 106.629181 290.057816 
L 109.171904 290.690524 
L 112.350305 291.177724 
L 116.164389 291.499402 
L 121.885506 291.715166 
L 132.056391 291.819924 
L 169.561514 291.841261 
L 311.318182 291.841292 
L 311.318182 291.841292 
" clip-path="url(#p0dbebc3a58)" style="fill: none; stroke: #d62728; stroke-width: 1.5; stroke-linecap: square"/>
   </g>
   <g id="line2d_15">
    <path d="M 57.681818 187.35607 
L 60.224541 187.974508 
L 62.131574 188.648108 
L 64.038619 189.573939 
L 65.945664 190.838902 
L 67.21702 191.924034 
L 68.488375 193.247077 
L 69.759743 194.851204 
L 71.031098 196.782878 
L 72.302453 199.090108 
L 73.573821 201.819156 
L 74.845188 205.010059 
L 76.116544 208.691082 
L 78.023577 215.146476 
L 79.930622 222.643963 
L 82.473333 233.836787 
L 86.923101 253.930227 
L 88.83014 261.589853 
L 90.737185 268.236401 
L 92.00854 272.047934 
L 93.279902 275.364724 
L 94.551263 278.210863 
L 95.822624 280.623946 
L 97.09398 282.649073 
L 98.365347 284.334156 
L 99.636709 285.726284 
L 100.90807 286.869633 
L 102.815109 288.204205 
L 104.722142 289.182198 
L 106.629181 289.894399 
L 109.171904 290.548752 
L 111.714627 290.972532 
L 115.528705 291.34366 
L 120.614145 291.575463 
L 129.513669 291.703463 
L 154.940876 291.73731 
L 311.318182 291.737711 
L 311.318182 291.737711 
" clip-path="url(#p0dbebc3a58)" style="fill: none; stroke: #9467bd; stroke-width: 1.5; stroke-linecap: square"/>
   </g>
   <g id="line2d_16">
    <path d="M 57.681818 186.461041 
L 60.224541 187.126571 
L 62.131574 187.850682 
L 64.038619 188.844697 
L 65.309987 189.701789 
L 66.581342 190.75233 
L 67.852697 192.03437 
L 69.124053 193.590468 
L 70.39542 195.466948 
L 71.666776 197.71203 
L 72.938143 200.372968 
L 74.209498 203.49186 
L 75.480866 207.100221 
L 76.752221 211.212297 
L 78.659254 218.296527 
L 80.566299 226.327679 
L 84.380384 243.83996 
L 86.923101 255.116289 
L 88.83014 262.66279 
L 90.737185 269.156522 
L 92.00854 272.857879 
L 93.279902 276.065708 
L 94.551263 278.80874 
L 95.822624 281.127552 
L 97.09398 283.068789 
L 98.365347 284.680797 
L 99.636709 286.010366 
L 100.90807 287.100882 
L 102.815109 288.37219 
L 104.722142 289.302774 
L 106.629181 289.979941 
L 109.171904 290.601768 
L 112.350305 291.080342 
L 116.164389 291.396134 
L 121.885506 291.607792 
L 132.056391 291.71044 
L 170.197195 291.731311 
L 311.318182 291.731337 
L 311.318182 291.731337 
" clip-path="url(#p0dbebc3a58)" style="fill: none; stroke: #8c564b; stroke-width: 1.5; stroke-linecap: square"/>
   </g>
   <g id="line2d_17">
    <path d="M 57.681818 186.721812 
L 60.224541 187.365833 
L 62.131574 188.06678 
L 64.038619 189.029426 
L 65.309987 189.859885 
L 66.581342 190.878313 
L 67.852697 192.121934 
L 69.124053 193.632612 
L 70.39542 195.456096 
L 71.666776 197.64032 
L 72.938143 200.232819 
L 74.209498 203.276562 
L 75.480866 206.804887 
L 76.752221 210.834914 
L 78.659254 217.800832 
L 80.566299 225.733658 
L 83.7447 240.22457 
L 86.923101 254.490238 
L 88.83014 262.113458 
L 90.737185 268.702243 
L 92.00854 272.469966 
L 93.279902 275.742505 
L 94.551263 278.546229 
L 95.822624 280.920237 
L 97.09398 282.910447 
L 98.365347 284.56505 
L 99.636709 285.931082 
L 100.90807 287.052417 
L 102.815109 288.360698 
L 104.722142 289.319078 
L 106.629181 290.01687 
L 109.171904 290.657947 
L 111.714627 291.07316 
L 115.528705 291.436867 
L 120.614145 291.664136 
L 129.513669 291.789732 
L 154.940876 291.822993 
L 311.318182 291.823388 
L 311.318182 291.823388 
" clip-path="url(#p0dbebc3a58)" style="fill: none; stroke: #e377c2; stroke-width: 1.5; stroke-linecap: square"/>
   </g>
   <g id="patch_3">
    <path d="M 45 320.4 
L 45 43.2 
" style="fill: none; stroke: #000000; stroke-width: 0.8; stroke-linejoin: miter; stroke-linecap: square"/>
   </g>
   <g id="patch_4">
    <path d="M 324 320.4 
L 324 43.2 
" style="fill: none; stroke: #000000; stroke-width: 0.8; stroke-linejoin: miter; stroke-linecap: square"/>
   </g>
   <g id="patch_5">
    <path d="M 45 320.4 
L 324 320.4 
" style="fill: none; stroke: #000000; stroke-width: 0.8; stroke-linejoin: miter; stroke-linecap: square"/>
   </g>
   <g id="patch_6">
    <path d="M 45 43.2 
L 324 43.2 
" style="fill: none; stroke: #000000; stroke-width: 0.8; stroke-linejoin: miter; stroke-linecap: square"/>
   </g>
   <g id="text_11">
    <!-- Prediction Curves -->
    <g transform="translate(131.961563 37.2)scale(0.12 -0.12)">
     <defs>
      <path id="DejaVuSans-50" d="M 1259 4147 
L 1259 2394 
L 2053 2394 
Q 2494 2394 2734 2622 
Q 2975 2850 2975 3272 
Q 2975 3691 2734 3919 
Q 2494 4147 2053 4147 
L 1259 4147 
z
M 628 4666 
L 2053 4666 
Q 2838 4666 3239 4311 
Q 3641 3956 3641 3272 
Q 3641 2581 3239 2228 
Q 2838 1875 2053 1875 
L 1259 1875 
L 1259 0 
L 628 0 
L 628 4666 
z
" transform="scale(0.015625)"/>
      <path id="DejaVuSans-72" d="M 2631 2963 
Q 2534 3019 2420 3045 
Q 2306 3072 2169 3072 
Q 1681 3072 1420 2755 
Q 1159 2438 1159 1844 
L 1159 0 
L 581 0 
L 581 3500 
L 1159 3500 
L 1159 2956 
Q 1341 3275 1631 3429 
Q 1922 3584 2338 3584 
Q 2397 3584 2469 3576 
Q 2541 3569 2628 3553 
L 2631 2963 
z
" transform="scale(0.015625)"/>
      <path id="DejaVuSans-65" d="M 3597 1894 
L 3597 1613 
L 953 1613 
Q 991 1019 1311 708 
Q 1631 397 2203 397 
Q 2534 397 2845 478 
Q 3156 559 3463 722 
L 3463 178 
Q 3153 47 2828 -22 
Q 2503 -91 2169 -91 
Q 1331 -91 842 396 
Q 353 884 353 1716 
Q 353 2575 817 3079 
Q 1281 3584 2069 3584 
Q 2775 3584 3186 3129 
Q 3597 2675 3597 1894 
z
M 3022 2063 
Q 3016 2534 2758 2815 
Q 2500 3097 2075 3097 
Q 1594 3097 1305 2825 
Q 1016 2553 972 2059 
L 3022 2063 
z
" transform="scale(0.015625)"/>
      <path id="DejaVuSans-64" d="M 2906 2969 
L 2906 4863 
L 3481 4863 
L 3481 0 
L 2906 0 
L 2906 525 
Q 2725 213 2448 61 
Q 2172 -91 1784 -91 
Q 1150 -91 751 415 
Q 353 922 353 1747 
Q 353 2572 751 3078 
Q 1150 3584 1784 3584 
Q 2172 3584 2448 3432 
Q 2725 3281 2906 2969 
z
M 947 1747 
Q 947 1113 1208 752 
Q 1469 391 1925 391 
Q 2381 391 2643 752 
Q 2906 1113 2906 1747 
Q 2906 2381 2643 2742 
Q 2381 3103 1925 3103 
Q 1469 3103 1208 2742 
Q 947 2381 947 1747 
z
" transform="scale(0.015625)"/>
      <path id="DejaVuSans-69" d="M 603 3500 
L 1178 3500 
L 1178 0 
L 603 0 
L 603 3500 
z
M 603 4863 
L 1178 4863 
L 1178 4134 
L 603 4134 
L 603 4863 
z
" transform="scale(0.015625)"/>
      <path id="DejaVuSans-63" d="M 3122 3366 
L 3122 2828 
Q 2878 2963 2633 3030 
Q 2388 3097 2138 3097 
Q 1578 3097 1268 2742 
Q 959 2388 959 1747 
Q 959 1106 1268 751 
Q 1578 397 2138 397 
Q 2388 397 2633 464 
Q 2878 531 3122 666 
L 3122 134 
Q 2881 22 2623 -34 
Q 2366 -91 2075 -91 
Q 1284 -91 818 406 
Q 353 903 353 1747 
Q 353 2603 823 3093 
Q 1294 3584 2113 3584 
Q 2378 3584 2631 3529 
Q 2884 3475 3122 3366 
z
" transform="scale(0.015625)"/>
      <path id="DejaVuSans-74" d="M 1172 4494 
L 1172 3500 
L 2356 3500 
L 2356 3053 
L 1172 3053 
L 1172 1153 
Q 1172 725 1289 603 
Q 1406 481 1766 481 
L 2356 481 
L 2356 0 
L 1766 0 
Q 1100 0 847 248 
Q 594 497 594 1153 
L 594 3053 
L 172 3053 
L 172 3500 
L 594 3500 
L 594 4494 
L 1172 4494 
z
" transform="scale(0.015625)"/>
      <path id="DejaVuSans-6f" d="M 1959 3097 
Q 1497 3097 1228 2736 
Q 959 2375 959 1747 
Q 959 1119 1226 758 
Q 1494 397 1959 397 
Q 2419 397 2687 759 
Q 2956 1122 2956 1747 
Q 2956 2369 2687 2733 
Q 2419 3097 1959 3097 
z
M 1959 3584 
Q 2709 3584 3137 3096 
Q 3566 2609 3566 1747 
Q 3566 888 3137 398 
Q 2709 -91 1959 -91 
Q 1206 -91 779 398 
Q 353 888 353 1747 
Q 353 2609 779 3096 
Q 1206 3584 1959 3584 
z
" transform="scale(0.015625)"/>
      <path id="DejaVuSans-6e" d="M 3513 2113 
L 3513 0 
L 2938 0 
L 2938 2094 
Q 2938 2591 2744 2837 
Q 2550 3084 2163 3084 
Q 1697 3084 1428 2787 
Q 1159 2491 1159 1978 
L 1159 0 
L 581 0 
L 581 3500 
L 1159 3500 
L 1159 2956 
Q 1366 3272 1645 3428 
Q 1925 3584 2291 3584 
Q 2894 3584 3203 3211 
Q 3513 2838 3513 2113 
z
" transform="scale(0.015625)"/>
      <path id="DejaVuSans-20" transform="scale(0.015625)"/>
      <path id="DejaVuSans-43" d="M 4122 4306 
L 4122 3641 
Q 3803 3938 3442 4084 
Q 3081 4231 2675 4231 
Q 1875 4231 1450 3742 
Q 1025 3253 1025 2328 
Q 1025 1406 1450 917 
Q 1875 428 2675 428 
Q 3081 428 3442 575 
Q 3803 722 4122 1019 
L 4122 359 
Q 3791 134 3420 21 
Q 3050 -91 2638 -91 
Q 1578 -91 968 557 
Q 359 1206 359 2328 
Q 359 3453 968 4101 
Q 1578 4750 2638 4750 
Q 3056 4750 3426 4639 
Q 3797 4528 4122 4306 
z
" transform="scale(0.015625)"/>
      <path id="DejaVuSans-75" d="M 544 1381 
L 544 3500 
L 1119 3500 
L 1119 1403 
Q 1119 906 1312 657 
Q 1506 409 1894 409 
Q 2359 409 2629 706 
Q 2900 1003 2900 1516 
L 2900 3500 
L 3475 3500 
L 3475 0 
L 2900 0 
L 2900 538 
Q 2691 219 2414 64 
Q 2138 -91 1772 -91 
Q 1169 -91 856 284 
Q 544 659 544 1381 
z
M 1991 3584 
L 1991 3584 
z
" transform="scale(0.015625)"/>
      <path id="DejaVuSans-76" d="M 191 3500 
L 800 3500 
L 1894 563 
L 2988 3500 
L 3597 3500 
L 2284 0 
L 1503 0 
L 191 3500 
z
" transform="scale(0.015625)"/>
      <path id="DejaVuSans-73" d="M 2834 3397 
L 2834 2853 
Q 2591 2978 2328 3040 
Q 2066 3103 1784 3103 
Q 1356 3103 1142 2972 
Q 928 2841 928 2578 
Q 928 2378 1081 2264 
Q 1234 2150 1697 2047 
L 1894 2003 
Q 2506 1872 2764 1633 
Q 3022 1394 3022 966 
Q 3022 478 2636 193 
Q 2250 -91 1575 -91 
Q 1294 -91 989 -36 
Q 684 19 347 128 
L 347 722 
Q 666 556 975 473 
Q 1284 391 1588 391 
Q 1994 391 2212 530 
Q 2431 669 2431 922 
Q 2431 1156 2273 1281 
Q 2116 1406 1581 1522 
L 1381 1569 
Q 847 1681 609 1914 
Q 372 2147 372 2553 
Q 372 3047 722 3315 
Q 1072 3584 1716 3584 
Q 2034 3584 2315 3537 
Q 2597 3491 2834 3397 
z
" transform="scale(0.015625)"/>
     </defs>
     <use xlink:href="#DejaVuSans-50"/>
     <use xlink:href="#DejaVuSans-72" x="58.552734"/>
     <use xlink:href="#DejaVuSans-65" x="97.416016"/>
     <use xlink:href="#DejaVuSans-64" x="158.939453"/>
     <use xlink:href="#DejaVuSans-69" x="222.416016"/>
     <use xlink:href="#DejaVuSans-63" x="250.199219"/>
     <use xlink:href="#DejaVuSans-74" x="305.179688"/>
     <use xlink:href="#DejaVuSans-69" x="344.388672"/>
     <use xlink:href="#DejaVuSans-6f" x="372.171875"/>
     <use xlink:href="#DejaVuSans-6e" x="433.353516"/>
     <use xlink:href="#DejaVuSans-20" x="496.732422"/>
     <use xlink:href="#DejaVuSans-43" x="528.519531"/>
     <use xlink:href="#DejaVuSans-75" x="598.34375"/>
     <use xlink:href="#DejaVuSans-72" x="661.722656"/>
     <use xlink:href="#DejaVuSans-76" x="702.835938"/>
     <use xlink:href="#DejaVuSans-65" x="762.015625"/>
     <use xlink:href="#DejaVuSans-73" x="823.539062"/>
    </g>
   </g>
   <g id="legend_1">
    <g id="patch_7">
     <path d="M 112.528125 153.946875 
L 256.471875 153.946875 
Q 258.471875 153.946875 258.471875 151.946875 
L 258.471875 50.2 
Q 258.471875 48.2 256.471875 48.2 
L 112.528125 48.2 
Q 110.528125 48.2 110.528125 50.2 
L 110.528125 151.946875 
Q 110.528125 153.946875 112.528125 153.946875 
z
" style="fill: #ffffff; opacity: 0.8; stroke: #cccccc; stroke-linejoin: miter"/>
    </g>
    <g id="line2d_18">
     <path d="M 114.528125 56.298437 
L 124.528125 56.298437 
L 134.528125 56.298437 
" style="fill: none; stroke: #1f77b4; stroke-width: 1.5; stroke-linecap: square"/>
    </g>
    <g id="text_12">
     <!-- Function with noise -->
     <g transform="translate(142.528125 59.798437)scale(0.1 -0.1)">
      <defs>
       <path id="DejaVuSans-46" d="M 628 4666 
L 3309 4666 
L 3309 4134 
L 1259 4134 
L 1259 2759 
L 3109 2759 
L 3109 2228 
L 1259 2228 
L 1259 0 
L 628 0 
L 628 4666 
z
" transform="scale(0.015625)"/>
       <path id="DejaVuSans-77" d="M 269 3500 
L 844 3500 
L 1563 769 
L 2278 3500 
L 2956 3500 
L 3675 769 
L 4391 3500 
L 4966 3500 
L 4050 0 
L 3372 0 
L 2619 2869 
L 1863 0 
L 1184 0 
L 269 3500 
z
" transform="scale(0.015625)"/>
       <path id="DejaVuSans-68" d="M 3513 2113 
L 3513 0 
L 2938 0 
L 2938 2094 
Q 2938 2591 2744 2837 
Q 2550 3084 2163 3084 
Q 1697 3084 1428 2787 
Q 1159 2491 1159 1978 
L 1159 0 
L 581 0 
L 581 4863 
L 1159 4863 
L 1159 2956 
Q 1366 3272 1645 3428 
Q 1925 3584 2291 3584 
Q 2894 3584 3203 3211 
Q 3513 2838 3513 2113 
z
" transform="scale(0.015625)"/>
      </defs>
      <use xlink:href="#DejaVuSans-46"/>
      <use xlink:href="#DejaVuSans-75" x="52.019531"/>
      <use xlink:href="#DejaVuSans-6e" x="115.398438"/>
      <use xlink:href="#DejaVuSans-63" x="178.777344"/>
      <use xlink:href="#DejaVuSans-74" x="233.757812"/>
      <use xlink:href="#DejaVuSans-69" x="272.966797"/>
      <use xlink:href="#DejaVuSans-6f" x="300.75"/>
      <use xlink:href="#DejaVuSans-6e" x="361.931641"/>
      <use xlink:href="#DejaVuSans-20" x="425.310547"/>
      <use xlink:href="#DejaVuSans-77" x="457.097656"/>
      <use xlink:href="#DejaVuSans-69" x="538.884766"/>
      <use xlink:href="#DejaVuSans-74" x="566.667969"/>
      <use xlink:href="#DejaVuSans-68" x="605.876953"/>
      <use xlink:href="#DejaVuSans-20" x="669.255859"/>
      <use xlink:href="#DejaVuSans-6e" x="701.042969"/>
      <use xlink:href="#DejaVuSans-6f" x="764.421875"/>
      <use xlink:href="#DejaVuSans-69" x="825.603516"/>
      <use xlink:href="#DejaVuSans-73" x="853.386719"/>
      <use xlink:href="#DejaVuSans-65" x="905.486328"/>
     </g>
    </g>
    <g id="line2d_19">
     <path d="M 114.528125 70.976562 
L 124.528125 70.976562 
L 134.528125 70.976562 
" style="fill: none; stroke: #ff7f0e; stroke-width: 1.5; stroke-linecap: square"/>
    </g>
    <g id="text_13">
     <!-- Prediction 1 -->
     <g transform="translate(142.528125 74.476562)scale(0.1 -0.1)">
      <use xlink:href="#DejaVuSans-50"/>
      <use xlink:href="#DejaVuSans-72" x="58.552734"/>
      <use xlink:href="#DejaVuSans-65" x="97.416016"/>
      <use xlink:href="#DejaVuSans-64" x="158.939453"/>
      <use xlink:href="#DejaVuSans-69" x="222.416016"/>
      <use xlink:href="#DejaVuSans-63" x="250.199219"/>
      <use xlink:href="#DejaVuSans-74" x="305.179688"/>
      <use xlink:href="#DejaVuSans-69" x="344.388672"/>
      <use xlink:href="#DejaVuSans-6f" x="372.171875"/>
      <use xlink:href="#DejaVuSans-6e" x="433.353516"/>
      <use xlink:href="#DejaVuSans-20" x="496.732422"/>
      <use xlink:href="#DejaVuSans-31" x="528.519531"/>
     </g>
    </g>
    <g id="line2d_20">
     <path d="M 114.528125 85.654687 
L 124.528125 85.654687 
L 134.528125 85.654687 
" style="fill: none; stroke: #2ca02c; stroke-width: 1.5; stroke-linecap: square"/>
    </g>
    <g id="text_14">
     <!-- Prediction 2 -->
     <g transform="translate(142.528125 89.154687)scale(0.1 -0.1)">
      <use xlink:href="#DejaVuSans-50"/>
      <use xlink:href="#DejaVuSans-72" x="58.552734"/>
      <use xlink:href="#DejaVuSans-65" x="97.416016"/>
      <use xlink:href="#DejaVuSans-64" x="158.939453"/>
      <use xlink:href="#DejaVuSans-69" x="222.416016"/>
      <use xlink:href="#DejaVuSans-63" x="250.199219"/>
      <use xlink:href="#DejaVuSans-74" x="305.179688"/>
      <use xlink:href="#DejaVuSans-69" x="344.388672"/>
      <use xlink:href="#DejaVuSans-6f" x="372.171875"/>
      <use xlink:href="#DejaVuSans-6e" x="433.353516"/>
      <use xlink:href="#DejaVuSans-20" x="496.732422"/>
      <use xlink:href="#DejaVuSans-32" x="528.519531"/>
     </g>
    </g>
    <g id="line2d_21">
     <path d="M 114.528125 100.332812 
L 124.528125 100.332812 
L 134.528125 100.332812 
" style="fill: none; stroke: #d62728; stroke-width: 1.5; stroke-linecap: square"/>
    </g>
    <g id="text_15">
     <!-- Prediction 3 -->
     <g transform="translate(142.528125 103.832812)scale(0.1 -0.1)">
      <defs>
       <path id="DejaVuSans-33" d="M 2597 2516 
Q 3050 2419 3304 2112 
Q 3559 1806 3559 1356 
Q 3559 666 3084 287 
Q 2609 -91 1734 -91 
Q 1441 -91 1130 -33 
Q 819 25 488 141 
L 488 750 
Q 750 597 1062 519 
Q 1375 441 1716 441 
Q 2309 441 2620 675 
Q 2931 909 2931 1356 
Q 2931 1769 2642 2001 
Q 2353 2234 1838 2234 
L 1294 2234 
L 1294 2753 
L 1863 2753 
Q 2328 2753 2575 2939 
Q 2822 3125 2822 3475 
Q 2822 3834 2567 4026 
Q 2313 4219 1838 4219 
Q 1578 4219 1281 4162 
Q 984 4106 628 3988 
L 628 4550 
Q 988 4650 1302 4700 
Q 1616 4750 1894 4750 
Q 2613 4750 3031 4423 
Q 3450 4097 3450 3541 
Q 3450 3153 3228 2886 
Q 3006 2619 2597 2516 
z
" transform="scale(0.015625)"/>
      </defs>
      <use xlink:href="#DejaVuSans-50"/>
      <use xlink:href="#DejaVuSans-72" x="58.552734"/>
      <use xlink:href="#DejaVuSans-65" x="97.416016"/>
      <use xlink:href="#DejaVuSans-64" x="158.939453"/>
      <use xlink:href="#DejaVuSans-69" x="222.416016"/>
      <use xlink:href="#DejaVuSans-63" x="250.199219"/>
      <use xlink:href="#DejaVuSans-74" x="305.179688"/>
      <use xlink:href="#DejaVuSans-69" x="344.388672"/>
      <use xlink:href="#DejaVuSans-6f" x="372.171875"/>
      <use xlink:href="#DejaVuSans-6e" x="433.353516"/>
      <use xlink:href="#DejaVuSans-20" x="496.732422"/>
      <use xlink:href="#DejaVuSans-33" x="528.519531"/>
     </g>
    </g>
    <g id="line2d_22">
     <path d="M 114.528125 115.010937 
L 124.528125 115.010937 
L 134.528125 115.010937 
" style="fill: none; stroke: #9467bd; stroke-width: 1.5; stroke-linecap: square"/>
    </g>
    <g id="text_16">
     <!-- Prediction 4 -->
     <g transform="translate(142.528125 118.510937)scale(0.1 -0.1)">
      <defs>
       <path id="DejaVuSans-34" d="M 2419 4116 
L 825 1625 
L 2419 1625 
L 2419 4116 
z
M 2253 4666 
L 3047 4666 
L 3047 1625 
L 3713 1625 
L 3713 1100 
L 3047 1100 
L 3047 0 
L 2419 0 
L 2419 1100 
L 313 1100 
L 313 1709 
L 2253 4666 
z
" transform="scale(0.015625)"/>
      </defs>
      <use xlink:href="#DejaVuSans-50"/>
      <use xlink:href="#DejaVuSans-72" x="58.552734"/>
      <use xlink:href="#DejaVuSans-65" x="97.416016"/>
      <use xlink:href="#DejaVuSans-64" x="158.939453"/>
      <use xlink:href="#DejaVuSans-69" x="222.416016"/>
      <use xlink:href="#DejaVuSans-63" x="250.199219"/>
      <use xlink:href="#DejaVuSans-74" x="305.179688"/>
      <use xlink:href="#DejaVuSans-69" x="344.388672"/>
      <use xlink:href="#DejaVuSans-6f" x="372.171875"/>
      <use xlink:href="#DejaVuSans-6e" x="433.353516"/>
      <use xlink:href="#DejaVuSans-20" x="496.732422"/>
      <use xlink:href="#DejaVuSans-34" x="528.519531"/>
     </g>
    </g>
    <g id="line2d_23">
     <path d="M 114.528125 129.689062 
L 124.528125 129.689062 
L 134.528125 129.689062 
" style="fill: none; stroke: #8c564b; stroke-width: 1.5; stroke-linecap: square"/>
    </g>
    <g id="text_17">
     <!-- Prediction 5 -->
     <g transform="translate(142.528125 133.189062)scale(0.1 -0.1)">
      <use xlink:href="#DejaVuSans-50"/>
      <use xlink:href="#DejaVuSans-72" x="58.552734"/>
      <use xlink:href="#DejaVuSans-65" x="97.416016"/>
      <use xlink:href="#DejaVuSans-64" x="158.939453"/>
      <use xlink:href="#DejaVuSans-69" x="222.416016"/>
      <use xlink:href="#DejaVuSans-63" x="250.199219"/>
      <use xlink:href="#DejaVuSans-74" x="305.179688"/>
      <use xlink:href="#DejaVuSans-69" x="344.388672"/>
      <use xlink:href="#DejaVuSans-6f" x="372.171875"/>
      <use xlink:href="#DejaVuSans-6e" x="433.353516"/>
      <use xlink:href="#DejaVuSans-20" x="496.732422"/>
      <use xlink:href="#DejaVuSans-35" x="528.519531"/>
     </g>
    </g>
    <g id="line2d_24">
     <path d="M 114.528125 144.367187 
L 124.528125 144.367187 
L 134.528125 144.367187 
" style="fill: none; stroke: #e377c2; stroke-width: 1.5; stroke-linecap: square"/>
    </g>
    <g id="text_18">
     <!-- Average of Predictions -->
     <g transform="translate(142.528125 147.867187)scale(0.1 -0.1)">
      <defs>
       <path id="DejaVuSans-41" d="M 2188 4044 
L 1331 1722 
L 3047 1722 
L 2188 4044 
z
M 1831 4666 
L 2547 4666 
L 4325 0 
L 3669 0 
L 3244 1197 
L 1141 1197 
L 716 0 
L 50 0 
L 1831 4666 
z
" transform="scale(0.015625)"/>
       <path id="DejaVuSans-61" d="M 2194 1759 
Q 1497 1759 1228 1600 
Q 959 1441 959 1056 
Q 959 750 1161 570 
Q 1363 391 1709 391 
Q 2188 391 2477 730 
Q 2766 1069 2766 1631 
L 2766 1759 
L 2194 1759 
z
M 3341 1997 
L 3341 0 
L 2766 0 
L 2766 531 
Q 2569 213 2275 61 
Q 1981 -91 1556 -91 
Q 1019 -91 701 211 
Q 384 513 384 1019 
Q 384 1609 779 1909 
Q 1175 2209 1959 2209 
L 2766 2209 
L 2766 2266 
Q 2766 2663 2505 2880 
Q 2244 3097 1772 3097 
Q 1472 3097 1187 3025 
Q 903 2953 641 2809 
L 641 3341 
Q 956 3463 1253 3523 
Q 1550 3584 1831 3584 
Q 2591 3584 2966 3190 
Q 3341 2797 3341 1997 
z
" transform="scale(0.015625)"/>
       <path id="DejaVuSans-67" d="M 2906 1791 
Q 2906 2416 2648 2759 
Q 2391 3103 1925 3103 
Q 1463 3103 1205 2759 
Q 947 2416 947 1791 
Q 947 1169 1205 825 
Q 1463 481 1925 481 
Q 2391 481 2648 825 
Q 2906 1169 2906 1791 
z
M 3481 434 
Q 3481 -459 3084 -895 
Q 2688 -1331 1869 -1331 
Q 1566 -1331 1297 -1286 
Q 1028 -1241 775 -1147 
L 775 -588 
Q 1028 -725 1275 -790 
Q 1522 -856 1778 -856 
Q 2344 -856 2625 -561 
Q 2906 -266 2906 331 
L 2906 616 
Q 2728 306 2450 153 
Q 2172 0 1784 0 
Q 1141 0 747 490 
Q 353 981 353 1791 
Q 353 2603 747 3093 
Q 1141 3584 1784 3584 
Q 2172 3584 2450 3431 
Q 2728 3278 2906 2969 
L 2906 3500 
L 3481 3500 
L 3481 434 
z
" transform="scale(0.015625)"/>
       <path id="DejaVuSans-66" d="M 2375 4863 
L 2375 4384 
L 1825 4384 
Q 1516 4384 1395 4259 
Q 1275 4134 1275 3809 
L 1275 3500 
L 2222 3500 
L 2222 3053 
L 1275 3053 
L 1275 0 
L 697 0 
L 697 3053 
L 147 3053 
L 147 3500 
L 697 3500 
L 697 3744 
Q 697 4328 969 4595 
Q 1241 4863 1831 4863 
L 2375 4863 
z
" transform="scale(0.015625)"/>
      </defs>
      <use xlink:href="#DejaVuSans-41"/>
      <use xlink:href="#DejaVuSans-76" x="62.533203"/>
      <use xlink:href="#DejaVuSans-65" x="121.712891"/>
      <use xlink:href="#DejaVuSans-72" x="183.236328"/>
      <use xlink:href="#DejaVuSans-61" x="224.349609"/>
      <use xlink:href="#DejaVuSans-67" x="285.628906"/>
      <use xlink:href="#DejaVuSans-65" x="349.105469"/>
      <use xlink:href="#DejaVuSans-20" x="410.628906"/>
      <use xlink:href="#DejaVuSans-6f" x="442.416016"/>
      <use xlink:href="#DejaVuSans-66" x="503.597656"/>
      <use xlink:href="#DejaVuSans-20" x="538.802734"/>
      <use xlink:href="#DejaVuSans-50" x="570.589844"/>
      <use xlink:href="#DejaVuSans-72" x="629.142578"/>
      <use xlink:href="#DejaVuSans-65" x="668.005859"/>
      <use xlink:href="#DejaVuSans-64" x="729.529297"/>
      <use xlink:href="#DejaVuSans-69" x="793.005859"/>
      <use xlink:href="#DejaVuSans-63" x="820.789062"/>
      <use xlink:href="#DejaVuSans-74" x="875.769531"/>
      <use xlink:href="#DejaVuSans-69" x="914.978516"/>
      <use xlink:href="#DejaVuSans-6f" x="942.761719"/>
      <use xlink:href="#DejaVuSans-6e" x="1003.943359"/>
      <use xlink:href="#DejaVuSans-73" x="1067.322266"/>
     </g>
    </g>
   </g>
  </g>
 </g>
 <defs>
  <clipPath id="p0dbebc3a58">
   <rect x="45" y="43.2" width="279" height="277.2"/>
  </clipPath>
 </defs>
</svg>
