<?xml version="1.0" encoding="utf-8" standalone="no"?>
<!DOCTYPE svg PUBLIC "-//W3C//DTD SVG 1.1//EN"
  "http://www.w3.org/Graphics/SVG/1.1/DTD/svg11.dtd">
<svg xmlns:xlink="http://www.w3.org/1999/xlink" width="360pt" height="360pt" viewBox="0 0 360 360" xmlns="http://www.w3.org/2000/svg" version="1.1">
 <metadata>
  <rdf:RDF xmlns:dc="http://purl.org/dc/elements/1.1/" xmlns:cc="http://creativecommons.org/ns#" xmlns:rdf="http://www.w3.org/1999/02/22-rdf-syntax-ns#">
   <cc:Work>
    <dc:type rdf:resource="http://purl.org/dc/dcmitype/StillImage"/>
    <dc:date>2022-11-12T19:33:50.724534</dc:date>
    <dc:format>image/svg+xml</dc:format>
    <dc:creator>
     <cc:Agent>
      <dc:title>Matplotlib v3.5.3, https://matplotlib.org/</dc:title>
     </cc:Agent>
    </dc:creator>
   </cc:Work>
  </rdf:RDF>
 </metadata>
 <defs>
  <style type="text/css">*{stroke-linejoin: round; stroke-linecap: butt}</style>
 </defs>
 <g id="figure_1">
  <g id="patch_1">
   <path d="M 0 360 
L 360 360 
L 360 0 
L 0 0 
z
" style="fill: #ffffff"/>
  </g>
  <g id="axes_1">
   <g id="patch_2">
    <path d="M 45 320.4 
L 324 320.4 
L 324 43.2 
L 45 43.2 
z
" style="fill: #ffffff"/>
   </g>
   <g id="matplotlib.axis_1">
    <g id="xtick_1">
     <g id="line2d_1">
      <defs>
       <path id="ma6f0a69c65" d="M 0 0 
L 0 3.5 
" style="stroke: #000000; stroke-width: 0.8"/>
      </defs>
      <g>
       <use xlink:href="#ma6f0a69c65" x="83.045455" y="320.4" style="stroke: #000000; stroke-width: 0.8"/>
      </g>
     </g>
     <g id="text_1">
      <!-- −2 -->
      <g transform="translate(75.674361 334.998438)scale(0.1 -0.1)">
       <defs>
        <path id="DejaVuSans-2212" d="M 678 2272 
L 4684 2272 
L 4684 1741 
L 678 1741 
L 678 2272 
z
" transform="scale(0.015625)"/>
        <path id="DejaVuSans-32" d="M 1228 531 
L 3431 531 
L 3431 0 
L 469 0 
L 469 531 
Q 828 903 1448 1529 
Q 2069 2156 2228 2338 
Q 2531 2678 2651 2914 
Q 2772 3150 2772 3378 
Q 2772 3750 2511 3984 
Q 2250 4219 1831 4219 
Q 1534 4219 1204 4116 
Q 875 4013 500 3803 
L 500 4441 
Q 881 4594 1212 4672 
Q 1544 4750 1819 4750 
Q 2544 4750 2975 4387 
Q 3406 4025 3406 3419 
Q 3406 3131 3298 2873 
Q 3191 2616 2906 2266 
Q 2828 2175 2409 1742 
Q 1991 1309 1228 531 
z
" transform="scale(0.015625)"/>
       </defs>
       <use xlink:href="#DejaVuSans-2212"/>
       <use xlink:href="#DejaVuSans-32" x="83.789062"/>
      </g>
     </g>
    </g>
    <g id="xtick_2">
     <g id="line2d_2">
      <g>
       <use xlink:href="#ma6f0a69c65" x="133.772727" y="320.4" style="stroke: #000000; stroke-width: 0.8"/>
      </g>
     </g>
     <g id="text_2">
      <!-- −1 -->
      <g transform="translate(126.401634 334.998438)scale(0.1 -0.1)">
       <defs>
        <path id="DejaVuSans-31" d="M 794 531 
L 1825 531 
L 1825 4091 
L 703 3866 
L 703 4441 
L 1819 4666 
L 2450 4666 
L 2450 531 
L 3481 531 
L 3481 0 
L 794 0 
L 794 531 
z
" transform="scale(0.015625)"/>
       </defs>
       <use xlink:href="#DejaVuSans-2212"/>
       <use xlink:href="#DejaVuSans-31" x="83.789062"/>
      </g>
     </g>
    </g>
    <g id="xtick_3">
     <g id="line2d_3">
      <g>
       <use xlink:href="#ma6f0a69c65" x="184.5" y="320.4" style="stroke: #000000; stroke-width: 0.8"/>
      </g>
     </g>
     <g id="text_3">
      <!-- 0 -->
      <g transform="translate(181.31875 334.998438)scale(0.1 -0.1)">
       <defs>
        <path id="DejaVuSans-30" d="M 2034 4250 
Q 1547 4250 1301 3770 
Q 1056 3291 1056 2328 
Q 1056 1369 1301 889 
Q 1547 409 2034 409 
Q 2525 409 2770 889 
Q 3016 1369 3016 2328 
Q 3016 3291 2770 3770 
Q 2525 4250 2034 4250 
z
M 2034 4750 
Q 2819 4750 3233 4129 
Q 3647 3509 3647 2328 
Q 3647 1150 3233 529 
Q 2819 -91 2034 -91 
Q 1250 -91 836 529 
Q 422 1150 422 2328 
Q 422 3509 836 4129 
Q 1250 4750 2034 4750 
z
" transform="scale(0.015625)"/>
       </defs>
       <use xlink:href="#DejaVuSans-30"/>
      </g>
     </g>
    </g>
    <g id="xtick_4">
     <g id="line2d_4">
      <g>
       <use xlink:href="#ma6f0a69c65" x="235.227273" y="320.4" style="stroke: #000000; stroke-width: 0.8"/>
      </g>
     </g>
     <g id="text_4">
      <!-- 1 -->
      <g transform="translate(232.046023 334.998438)scale(0.1 -0.1)">
       <use xlink:href="#DejaVuSans-31"/>
      </g>
     </g>
    </g>
    <g id="xtick_5">
     <g id="line2d_5">
      <g>
       <use xlink:href="#ma6f0a69c65" x="285.954545" y="320.4" style="stroke: #000000; stroke-width: 0.8"/>
      </g>
     </g>
     <g id="text_5">
      <!-- 2 -->
      <g transform="translate(282.773295 334.998438)scale(0.1 -0.1)">
       <use xlink:href="#DejaVuSans-32"/>
      </g>
     </g>
    </g>
   </g>
   <g id="matplotlib.axis_2">
    <g id="ytick_1">
     <g id="line2d_6">
      <defs>
       <path id="mbc34bc2a6e" d="M 0 0 
L -3.5 0 
" style="stroke: #000000; stroke-width: 0.8"/>
      </defs>
      <g>
       <use xlink:href="#mbc34bc2a6e" x="45" y="263.242563" style="stroke: #000000; stroke-width: 0.8"/>
      </g>
     </g>
     <g id="text_6">
      <!-- $\mathdefault{10^{-2}}$ -->
      <g transform="translate(14.5 267.041782)scale(0.1 -0.1)">
       <use xlink:href="#DejaVuSans-31" transform="translate(0 0.765625)"/>
       <use xlink:href="#DejaVuSans-30" transform="translate(63.623047 0.765625)"/>
       <use xlink:href="#DejaVuSans-2212" transform="translate(128.203125 39.046875)scale(0.7)"/>
       <use xlink:href="#DejaVuSans-32" transform="translate(186.855469 39.046875)scale(0.7)"/>
      </g>
     </g>
    </g>
    <g id="ytick_2">
     <g id="line2d_7">
      <g>
       <use xlink:href="#mbc34bc2a6e" x="45" y="200.852413" style="stroke: #000000; stroke-width: 0.8"/>
      </g>
     </g>
     <g id="text_7">
      <!-- $\mathdefault{10^{-1}}$ -->
      <g transform="translate(14.5 204.651632)scale(0.1 -0.1)">
       <use xlink:href="#DejaVuSans-31" transform="translate(0 0.684375)"/>
       <use xlink:href="#DejaVuSans-30" transform="translate(63.623047 0.684375)"/>
       <use xlink:href="#DejaVuSans-2212" transform="translate(128.203125 38.965625)scale(0.7)"/>
       <use xlink:href="#DejaVuSans-31" transform="translate(186.855469 38.965625)scale(0.7)"/>
      </g>
     </g>
    </g>
    <g id="ytick_3">
     <g id="line2d_8">
      <g>
       <use xlink:href="#mbc34bc2a6e" x="45" y="138.462263" style="stroke: #000000; stroke-width: 0.8"/>
      </g>
     </g>
     <g id="text_8">
      <!-- $\mathdefault{10^{0}}$ -->
      <g transform="translate(20.4 142.261482)scale(0.1 -0.1)">
       <use xlink:href="#DejaVuSans-31" transform="translate(0 0.765625)"/>
       <use xlink:href="#DejaVuSans-30" transform="translate(63.623047 0.765625)"/>
       <use xlink:href="#DejaVuSans-30" transform="translate(128.203125 39.046875)scale(0.7)"/>
      </g>
     </g>
    </g>
    <g id="ytick_4">
     <g id="line2d_9">
      <g>
       <use xlink:href="#mbc34bc2a6e" x="45" y="76.072113" style="stroke: #000000; stroke-width: 0.8"/>
      </g>
     </g>
     <g id="text_9">
      <!-- $\mathdefault{10^{1}}$ -->
      <g transform="translate(20.4 79.871331)scale(0.1 -0.1)">
       <use xlink:href="#DejaVuSans-31" transform="translate(0 0.684375)"/>
       <use xlink:href="#DejaVuSans-30" transform="translate(63.623047 0.684375)"/>
       <use xlink:href="#DejaVuSans-31" transform="translate(128.203125 38.965625)scale(0.7)"/>
      </g>
     </g>
    </g>
    <g id="ytick_5">
     <g id="line2d_10">
      <defs>
       <path id="m6343e3fb88" d="M 0 0 
L -2 0 
" style="stroke: #000000; stroke-width: 0.6"/>
      </defs>
      <g>
       <use xlink:href="#m6343e3fb88" x="45" y="306.851407" style="stroke: #000000; stroke-width: 0.6"/>
      </g>
     </g>
    </g>
    <g id="ytick_6">
     <g id="line2d_11">
      <g>
       <use xlink:href="#m6343e3fb88" x="45" y="295.865047" style="stroke: #000000; stroke-width: 0.6"/>
      </g>
     </g>
    </g>
    <g id="ytick_7">
     <g id="line2d_12">
      <g>
       <use xlink:href="#m6343e3fb88" x="45" y="288.0701" style="stroke: #000000; stroke-width: 0.6"/>
      </g>
     </g>
    </g>
    <g id="ytick_8">
     <g id="line2d_13">
      <g>
       <use xlink:href="#m6343e3fb88" x="45" y="282.02387" style="stroke: #000000; stroke-width: 0.6"/>
      </g>
     </g>
    </g>
    <g id="ytick_9">
     <g id="line2d_14">
      <g>
       <use xlink:href="#m6343e3fb88" x="45" y="277.08374" style="stroke: #000000; stroke-width: 0.6"/>
      </g>
     </g>
    </g>
    <g id="ytick_10">
     <g id="line2d_15">
      <g>
       <use xlink:href="#m6343e3fb88" x="45" y="272.90692" style="stroke: #000000; stroke-width: 0.6"/>
      </g>
     </g>
    </g>
    <g id="ytick_11">
     <g id="line2d_16">
      <g>
       <use xlink:href="#m6343e3fb88" x="45" y="269.288794" style="stroke: #000000; stroke-width: 0.6"/>
      </g>
     </g>
    </g>
    <g id="ytick_12">
     <g id="line2d_17">
      <g>
       <use xlink:href="#m6343e3fb88" x="45" y="266.09738" style="stroke: #000000; stroke-width: 0.6"/>
      </g>
     </g>
    </g>
    <g id="ytick_13">
     <g id="line2d_18">
      <g>
       <use xlink:href="#m6343e3fb88" x="45" y="244.461257" style="stroke: #000000; stroke-width: 0.6"/>
      </g>
     </g>
    </g>
    <g id="ytick_14">
     <g id="line2d_19">
      <g>
       <use xlink:href="#m6343e3fb88" x="45" y="233.474897" style="stroke: #000000; stroke-width: 0.6"/>
      </g>
     </g>
    </g>
    <g id="ytick_15">
     <g id="line2d_20">
      <g>
       <use xlink:href="#m6343e3fb88" x="45" y="225.67995" style="stroke: #000000; stroke-width: 0.6"/>
      </g>
     </g>
    </g>
    <g id="ytick_16">
     <g id="line2d_21">
      <g>
       <use xlink:href="#m6343e3fb88" x="45" y="219.63372" style="stroke: #000000; stroke-width: 0.6"/>
      </g>
     </g>
    </g>
    <g id="ytick_17">
     <g id="line2d_22">
      <g>
       <use xlink:href="#m6343e3fb88" x="45" y="214.69359" style="stroke: #000000; stroke-width: 0.6"/>
      </g>
     </g>
    </g>
    <g id="ytick_18">
     <g id="line2d_23">
      <g>
       <use xlink:href="#m6343e3fb88" x="45" y="210.51677" style="stroke: #000000; stroke-width: 0.6"/>
      </g>
     </g>
    </g>
    <g id="ytick_19">
     <g id="line2d_24">
      <g>
       <use xlink:href="#m6343e3fb88" x="45" y="206.898643" style="stroke: #000000; stroke-width: 0.6"/>
      </g>
     </g>
    </g>
    <g id="ytick_20">
     <g id="line2d_25">
      <g>
       <use xlink:href="#m6343e3fb88" x="45" y="203.70723" style="stroke: #000000; stroke-width: 0.6"/>
      </g>
     </g>
    </g>
    <g id="ytick_21">
     <g id="line2d_26">
      <g>
       <use xlink:href="#m6343e3fb88" x="45" y="182.071106" style="stroke: #000000; stroke-width: 0.6"/>
      </g>
     </g>
    </g>
    <g id="ytick_22">
     <g id="line2d_27">
      <g>
       <use xlink:href="#m6343e3fb88" x="45" y="171.084746" style="stroke: #000000; stroke-width: 0.6"/>
      </g>
     </g>
    </g>
    <g id="ytick_23">
     <g id="line2d_28">
      <g>
       <use xlink:href="#m6343e3fb88" x="45" y="163.2898" style="stroke: #000000; stroke-width: 0.6"/>
      </g>
     </g>
    </g>
    <g id="ytick_24">
     <g id="line2d_29">
      <g>
       <use xlink:href="#m6343e3fb88" x="45" y="157.24357" style="stroke: #000000; stroke-width: 0.6"/>
      </g>
     </g>
    </g>
    <g id="ytick_25">
     <g id="line2d_30">
      <g>
       <use xlink:href="#m6343e3fb88" x="45" y="152.30344" style="stroke: #000000; stroke-width: 0.6"/>
      </g>
     </g>
    </g>
    <g id="ytick_26">
     <g id="line2d_31">
      <g>
       <use xlink:href="#m6343e3fb88" x="45" y="148.126619" style="stroke: #000000; stroke-width: 0.6"/>
      </g>
     </g>
    </g>
    <g id="ytick_27">
     <g id="line2d_32">
      <g>
       <use xlink:href="#m6343e3fb88" x="45" y="144.508493" style="stroke: #000000; stroke-width: 0.6"/>
      </g>
     </g>
    </g>
    <g id="ytick_28">
     <g id="line2d_33">
      <g>
       <use xlink:href="#m6343e3fb88" x="45" y="141.31708" style="stroke: #000000; stroke-width: 0.6"/>
      </g>
     </g>
    </g>
    <g id="ytick_29">
     <g id="line2d_34">
      <g>
       <use xlink:href="#m6343e3fb88" x="45" y="119.680956" style="stroke: #000000; stroke-width: 0.6"/>
      </g>
     </g>
    </g>
    <g id="ytick_30">
     <g id="line2d_35">
      <g>
       <use xlink:href="#m6343e3fb88" x="45" y="108.694596" style="stroke: #000000; stroke-width: 0.6"/>
      </g>
     </g>
    </g>
    <g id="ytick_31">
     <g id="line2d_36">
      <g>
       <use xlink:href="#m6343e3fb88" x="45" y="100.89965" style="stroke: #000000; stroke-width: 0.6"/>
      </g>
     </g>
    </g>
    <g id="ytick_32">
     <g id="line2d_37">
      <g>
       <use xlink:href="#m6343e3fb88" x="45" y="94.853419" style="stroke: #000000; stroke-width: 0.6"/>
      </g>
     </g>
    </g>
    <g id="ytick_33">
     <g id="line2d_38">
      <g>
       <use xlink:href="#m6343e3fb88" x="45" y="89.913289" style="stroke: #000000; stroke-width: 0.6"/>
      </g>
     </g>
    </g>
    <g id="ytick_34">
     <g id="line2d_39">
      <g>
       <use xlink:href="#m6343e3fb88" x="45" y="85.736469" style="stroke: #000000; stroke-width: 0.6"/>
      </g>
     </g>
    </g>
    <g id="ytick_35">
     <g id="line2d_40">
      <g>
       <use xlink:href="#m6343e3fb88" x="45" y="82.118343" style="stroke: #000000; stroke-width: 0.6"/>
      </g>
     </g>
    </g>
    <g id="ytick_36">
     <g id="line2d_41">
      <g>
       <use xlink:href="#m6343e3fb88" x="45" y="78.926929" style="stroke: #000000; stroke-width: 0.6"/>
      </g>
     </g>
    </g>
    <g id="ytick_37">
     <g id="line2d_42">
      <g>
       <use xlink:href="#m6343e3fb88" x="45" y="57.290806" style="stroke: #000000; stroke-width: 0.6"/>
      </g>
     </g>
    </g>
    <g id="ytick_38">
     <g id="line2d_43">
      <g>
       <use xlink:href="#m6343e3fb88" x="45" y="46.304446" style="stroke: #000000; stroke-width: 0.6"/>
      </g>
     </g>
    </g>
   </g>
   <g id="line2d_44">
    <path d="M 83.045455 276.263804 
L 93.724882 185.958616 
L 104.404309 150.053149 
L 115.083731 131.392232 
L 125.763158 129.611867 
L 136.442586 137.353892 
L 147.122007 157.709247 
L 157.801434 202.603008 
L 168.480862 154.15835 
L 179.160288 144.227726 
L 189.839714 143.9604 
L 200.519138 154.326614 
L 211.198566 202.37886 
L 221.877993 157.888885 
L 232.557414 137.413324 
L 243.236842 129.73094 
L 253.916269 132.152582 
L 264.595691 162.100706 
L 275.275118 127.651246 
L 285.954545 95.698885 
" clip-path="url(#pea538f31f2)" style="fill: none; stroke: #1f77b4; stroke-width: 1.5; stroke-linecap: square"/>
   </g>
   <g id="line2d_45">
    <path d="M 57.681818 71.755957 
L 59.588863 75.839053 
L 62.131574 82.348368 
L 62.767264 83.955093 
L 63.402942 85.958516 
L 64.038619 87.447394 
L 64.674309 89.771705 
L 65.309987 91.430212 
L 68.488375 103.082405 
L 71.031098 115.613953 
L 72.302453 122.136665 
L 72.938143 126.413781 
L 73.573821 131.847725 
L 74.209498 135.558854 
L 75.480866 146.691499 
L 77.387899 173.129476 
L 78.023577 188.479545 
L 78.659254 189.201916 
L 79.294932 214.437992 
L 79.930622 249.79701 
L 80.566299 239.570834 
L 81.201977 213.615515 
L 81.837655 231.753959 
L 82.473333 199.415915 
L 83.109022 216.310234 
L 83.7447 208.220428 
L 84.380384 292.55784 
L 85.016061 266.6266 
L 85.651745 217.941388 
L 86.287423 215.72501 
L 86.923101 191.878097 
L 87.558784 201.996998 
L 88.194462 195.828908 
L 88.83014 191.516666 
L 89.465823 178.044914 
L 90.101501 180.157011 
L 90.737185 175.871239 
L 91.372862 187.849656 
L 92.00854 190.423166 
L 92.644224 190.72513 
L 93.279902 193.110042 
L 93.915579 187.469819 
L 94.551263 193.044966 
L 95.186941 194.966802 
L 95.822624 244.607644 
L 96.458302 234.249015 
L 97.09398 256.885134 
L 97.729663 199.184446 
L 98.365347 199.487508 
L 99.001025 182.245601 
L 99.636709 180.603562 
L 100.272386 168.289191 
L 100.90807 165.127063 
L 101.543748 164.080154 
L 102.815109 155.825576 
L 103.450781 155.212865 
L 104.086458 152.823078 
L 104.722142 147.67422 
L 105.35782 146.112637 
L 105.993504 146.914892 
L 106.629181 143.068019 
L 107.264859 141.560646 
L 107.900543 139.335211 
L 108.536226 138.668093 
L 109.171904 138.64456 
L 110.443266 135.389164 
L 111.078949 135.426297 
L 111.714627 133.800774 
L 112.350305 132.903877 
L 112.985988 132.581773 
L 113.621666 131.646213 
L 114.257344 131.366482 
L 114.893027 132.618894 
L 115.528705 131.307433 
L 116.164389 131.040163 
L 116.800067 129.463083 
L 118.071428 129.514428 
L 118.707106 129.785026 
L 119.342783 128.620959 
L 119.978467 128.919333 
L 120.614145 128.66932 
L 121.249829 129.186725 
L 121.885506 128.807719 
L 122.521184 129.109853 
L 123.156868 128.578345 
L 123.792545 128.648101 
L 124.428223 128.855373 
L 125.063907 129.227844 
L 125.699584 128.971271 
L 126.335268 130.784398 
L 126.970946 129.982288 
L 127.606623 131.329434 
L 128.242307 131.066626 
L 128.877991 130.217366 
L 129.513669 132.171155 
L 130.149352 131.539411 
L 130.78503 131.84296 
L 131.420714 131.813176 
L 132.056391 132.107813 
L 132.692069 134.041654 
L 133.327753 134.015205 
L 133.963431 135.32055 
L 134.599111 134.499351 
L 135.234792 137.075132 
L 135.87047 135.911353 
L 137.141831 138.624819 
L 139.04887 142.313283 
L 139.684551 140.690503 
L 140.320232 143.294699 
L 140.955909 143.248261 
L 141.59159 144.884872 
L 142.227271 144.93824 
L 142.862951 149.289865 
L 143.498632 147.414494 
L 144.13431 151.382141 
L 144.769991 152.521777 
L 145.405671 154.096508 
L 146.041349 153.704838 
L 146.67703 159.383295 
L 147.31271 159.435298 
L 147.948391 161.312028 
L 148.584072 160.380817 
L 149.219749 167.311088 
L 149.85543 167.861053 
L 150.491111 169.509935 
L 151.126789 179.880525 
L 151.762469 180.30004 
L 152.39815 179.817292 
L 153.033831 184.894997 
L 153.669511 195.305172 
L 154.305195 215.568985 
L 154.940876 212.632736 
L 155.576557 221.454409 
L 156.212234 307.8 
L 156.847915 260.923141 
L 157.483596 201.192416 
L 158.119276 189.52687 
L 158.754957 201.414012 
L 159.390635 183.746305 
L 160.026315 177.918826 
L 160.661995 176.379344 
L 161.297675 176.052655 
L 161.933355 169.086146 
L 162.569035 166.761881 
L 163.204716 165.221902 
L 163.840395 165.217134 
L 164.476068 163.630617 
L 165.111749 160.715985 
L 165.747428 160.021417 
L 166.383109 158.912586 
L 167.018788 155.097736 
L 167.654469 153.422952 
L 168.29015 154.633572 
L 168.925829 153.868422 
L 169.561514 152.325989 
L 170.197195 151.579087 
L 170.832874 150.095466 
L 171.468555 149.240636 
L 172.104235 150.962782 
L 172.739914 149.127287 
L 173.375594 146.200822 
L 174.64696 146.724635 
L 175.28264 147.23887 
L 175.91832 146.775535 
L 176.554 146.855429 
L 177.82536 143.949853 
L 178.46104 143.154762 
L 179.09672 143.16728 
L 179.732393 145.1667 
L 180.368073 144.458036 
L 181.003753 143.533846 
L 181.639433 141.612001 
L 182.275114 142.774015 
L 182.910794 143.331142 
L 183.546474 142.203125 
L 184.182154 143.437389 
L 184.817839 143.874509 
L 185.453519 141.715773 
L 186.089199 143.650383 
L 186.724879 143.327851 
L 187.360559 144.775691 
L 187.996239 142.215276 
L 188.631919 142.253069 
L 189.2676 143.082802 
L 189.903285 145.102683 
L 190.538964 145.907002 
L 191.174644 145.927878 
L 191.810325 143.614588 
L 192.446005 144.426746 
L 193.081685 144.22361 
L 194.98873 147.194488 
L 195.62441 149.255635 
L 196.895771 151.020994 
L 197.53145 148.9814 
L 198.167131 151.662009 
L 198.802811 151.891962 
L 199.438491 153.693337 
L 200.074164 153.768756 
L 200.709844 156.164174 
L 201.345524 157.23933 
L 201.981204 155.878391 
L 202.616884 158.909971 
L 203.252564 157.736529 
L 203.888245 162.066303 
L 204.523924 165.287576 
L 205.159609 165.219218 
L 205.79529 168.539642 
L 206.430969 170.167632 
L 207.06665 176.103235 
L 207.702329 171.490957 
L 208.33801 181.68279 
L 208.973691 177.998499 
L 209.60937 182.193019 
L 210.245049 184.811726 
L 210.88073 208.69981 
L 211.51641 196.620609 
L 212.152088 238.813451 
L 212.787769 230.265292 
L 213.42345 234.613682 
L 214.05913 215.157545 
L 215.966169 182.535913 
L 216.60185 187.17977 
L 217.237528 173.518283 
L 217.873208 178.440242 
L 218.508889 175.217837 
L 219.14457 172.662536 
L 219.780251 164.857189 
L 220.415928 160.569372 
L 221.051609 161.624252 
L 221.68729 160.438907 
L 222.322967 154.31368 
L 222.958648 154.469345 
L 223.594329 151.9618 
L 224.230009 151.549906 
L 224.86569 149.238734 
L 226.137049 146.926259 
L 226.772729 144.60432 
L 227.408407 146.544344 
L 228.044088 145.39476 
L 228.679768 142.655529 
L 229.315449 141.723754 
L 230.586807 138.771199 
L 231.222488 137.857403 
L 231.858169 138.869458 
L 232.493847 136.879084 
L 233.129527 136.048607 
L 233.765208 136.066626 
L 234.400889 135.105879 
L 235.036569 134.506314 
L 235.672253 134.340842 
L 236.943615 132.855837 
L 237.579292 132.234562 
L 238.214976 131.440366 
L 238.850654 132.793161 
L 239.486331 131.084851 
L 240.122015 131.422146 
L 240.757693 130.471763 
L 241.39337 130.615273 
L 242.029054 131.223713 
L 242.664732 130.507538 
L 243.300416 129.009547 
L 243.936093 130.079723 
L 244.571771 130.50018 
L 245.207455 129.718935 
L 246.47881 130.346105 
L 247.114494 129.235509 
L 247.750171 129.633035 
L 248.385855 128.848224 
L 249.021533 129.442136 
L 249.657211 130.550397 
L 250.292894 130.537133 
L 250.928572 129.655625 
L 251.56425 129.789132 
L 252.199933 130.256171 
L 252.835611 130.353382 
L 253.471295 131.029942 
L 254.106973 132.106775 
L 254.74265 133.735418 
L 255.378334 133.848195 
L 256.014012 133.544962 
L 256.649689 134.319272 
L 257.285373 136.845203 
L 257.921051 136.32942 
L 259.192412 140.478203 
L 259.82809 140.588279 
L 261.099451 144.703645 
L 263.00649 150.474232 
L 263.642174 153.859563 
L 264.277852 158.463565 
L 264.913529 168.972546 
L 265.549213 169.816892 
L 266.184897 177.410815 
L 266.820575 200.413699 
L 267.456258 278.264341 
L 268.091936 199.223999 
L 268.72762 179.574569 
L 269.363297 169.686136 
L 269.998975 166.942312 
L 270.634659 156.229816 
L 271.270337 149.520559 
L 272.541698 142.583167 
L 273.177376 136.629305 
L 273.813059 134.855446 
L 276.355776 122.715376 
L 277.627138 118.238503 
L 278.262815 116.654098 
L 278.898499 114.651475 
L 280.169854 109.822358 
L 280.805538 108.173141 
L 281.441222 106.916023 
L 282.076899 105.023524 
L 282.712583 103.603834 
L 285.2553 96.988586 
L 285.890984 96.069897 
L 286.526655 94.247359 
L 287.162333 93.25232 
L 288.433701 90.266583 
L 289.069378 89.194767 
L 289.705056 87.770913 
L 290.340734 86.921839 
L 292.247779 83.293506 
L 295.426179 77.7856 
L 296.697535 75.893116 
L 297.96889 73.760747 
L 299.240257 71.900496 
L 300.511613 69.982698 
L 303.690025 65.552514 
L 308.139781 59.61441 
L 309.411149 58.107716 
L 310.682504 56.567911 
L 311.318182 55.8 
L 311.318182 55.8 
" clip-path="url(#pea538f31f2)" style="fill: none; stroke: #ff7f0e; stroke-width: 1.5; stroke-linecap: square"/>
   </g>
   <g id="patch_3">
    <path d="M 45 320.4 
L 45 43.2 
" style="fill: none; stroke: #000000; stroke-width: 0.8; stroke-linejoin: miter; stroke-linecap: square"/>
   </g>
   <g id="patch_4">
    <path d="M 324 320.4 
L 324 43.2 
" style="fill: none; stroke: #000000; stroke-width: 0.8; stroke-linejoin: miter; stroke-linecap: square"/>
   </g>
   <g id="patch_5">
    <path d="M 45 320.4 
L 324 320.4 
" style="fill: none; stroke: #000000; stroke-width: 0.8; stroke-linejoin: miter; stroke-linecap: square"/>
   </g>
   <g id="patch_6">
    <path d="M 45 43.2 
L 324 43.2 
" style="fill: none; stroke: #000000; stroke-width: 0.8; stroke-linejoin: miter; stroke-linecap: square"/>
   </g>
   <g id="text_10">
    <!-- Prediction Error -->
    <g transform="translate(138.166875 37.2)scale(0.12 -0.12)">
     <defs>
      <path id="DejaVuSans-50" d="M 1259 4147 
L 1259 2394 
L 2053 2394 
Q 2494 2394 2734 2622 
Q 2975 2850 2975 3272 
Q 2975 3691 2734 3919 
Q 2494 4147 2053 4147 
L 1259 4147 
z
M 628 4666 
L 2053 4666 
Q 2838 4666 3239 4311 
Q 3641 3956 3641 3272 
Q 3641 2581 3239 2228 
Q 2838 1875 2053 1875 
L 1259 1875 
L 1259 0 
L 628 0 
L 628 4666 
z
" transform="scale(0.015625)"/>
      <path id="DejaVuSans-72" d="M 2631 2963 
Q 2534 3019 2420 3045 
Q 2306 3072 2169 3072 
Q 1681 3072 1420 2755 
Q 1159 2438 1159 1844 
L 1159 0 
L 581 0 
L 581 3500 
L 1159 3500 
L 1159 2956 
Q 1341 3275 1631 3429 
Q 1922 3584 2338 3584 
Q 2397 3584 2469 3576 
Q 2541 3569 2628 3553 
L 2631 2963 
z
" transform="scale(0.015625)"/>
      <path id="DejaVuSans-65" d="M 3597 1894 
L 3597 1613 
L 953 1613 
Q 991 1019 1311 708 
Q 1631 397 2203 397 
Q 2534 397 2845 478 
Q 3156 559 3463 722 
L 3463 178 
Q 3153 47 2828 -22 
Q 2503 -91 2169 -91 
Q 1331 -91 842 396 
Q 353 884 353 1716 
Q 353 2575 817 3079 
Q 1281 3584 2069 3584 
Q 2775 3584 3186 3129 
Q 3597 2675 3597 1894 
z
M 3022 2063 
Q 3016 2534 2758 2815 
Q 2500 3097 2075 3097 
Q 1594 3097 1305 2825 
Q 1016 2553 972 2059 
L 3022 2063 
z
" transform="scale(0.015625)"/>
      <path id="DejaVuSans-64" d="M 2906 2969 
L 2906 4863 
L 3481 4863 
L 3481 0 
L 2906 0 
L 2906 525 
Q 2725 213 2448 61 
Q 2172 -91 1784 -91 
Q 1150 -91 751 415 
Q 353 922 353 1747 
Q 353 2572 751 3078 
Q 1150 3584 1784 3584 
Q 2172 3584 2448 3432 
Q 2725 3281 2906 2969 
z
M 947 1747 
Q 947 1113 1208 752 
Q 1469 391 1925 391 
Q 2381 391 2643 752 
Q 2906 1113 2906 1747 
Q 2906 2381 2643 2742 
Q 2381 3103 1925 3103 
Q 1469 3103 1208 2742 
Q 947 2381 947 1747 
z
" transform="scale(0.015625)"/>
      <path id="DejaVuSans-69" d="M 603 3500 
L 1178 3500 
L 1178 0 
L 603 0 
L 603 3500 
z
M 603 4863 
L 1178 4863 
L 1178 4134 
L 603 4134 
L 603 4863 
z
" transform="scale(0.015625)"/>
      <path id="DejaVuSans-63" d="M 3122 3366 
L 3122 2828 
Q 2878 2963 2633 3030 
Q 2388 3097 2138 3097 
Q 1578 3097 1268 2742 
Q 959 2388 959 1747 
Q 959 1106 1268 751 
Q 1578 397 2138 397 
Q 2388 397 2633 464 
Q 2878 531 3122 666 
L 3122 134 
Q 2881 22 2623 -34 
Q 2366 -91 2075 -91 
Q 1284 -91 818 406 
Q 353 903 353 1747 
Q 353 2603 823 3093 
Q 1294 3584 2113 3584 
Q 2378 3584 2631 3529 
Q 2884 3475 3122 3366 
z
" transform="scale(0.015625)"/>
      <path id="DejaVuSans-74" d="M 1172 4494 
L 1172 3500 
L 2356 3500 
L 2356 3053 
L 1172 3053 
L 1172 1153 
Q 1172 725 1289 603 
Q 1406 481 1766 481 
L 2356 481 
L 2356 0 
L 1766 0 
Q 1100 0 847 248 
Q 594 497 594 1153 
L 594 3053 
L 172 3053 
L 172 3500 
L 594 3500 
L 594 4494 
L 1172 4494 
z
" transform="scale(0.015625)"/>
      <path id="DejaVuSans-6f" d="M 1959 3097 
Q 1497 3097 1228 2736 
Q 959 2375 959 1747 
Q 959 1119 1226 758 
Q 1494 397 1959 397 
Q 2419 397 2687 759 
Q 2956 1122 2956 1747 
Q 2956 2369 2687 2733 
Q 2419 3097 1959 3097 
z
M 1959 3584 
Q 2709 3584 3137 3096 
Q 3566 2609 3566 1747 
Q 3566 888 3137 398 
Q 2709 -91 1959 -91 
Q 1206 -91 779 398 
Q 353 888 353 1747 
Q 353 2609 779 3096 
Q 1206 3584 1959 3584 
z
" transform="scale(0.015625)"/>
      <path id="DejaVuSans-6e" d="M 3513 2113 
L 3513 0 
L 2938 0 
L 2938 2094 
Q 2938 2591 2744 2837 
Q 2550 3084 2163 3084 
Q 1697 3084 1428 2787 
Q 1159 2491 1159 1978 
L 1159 0 
L 581 0 
L 581 3500 
L 1159 3500 
L 1159 2956 
Q 1366 3272 1645 3428 
Q 1925 3584 2291 3584 
Q 2894 3584 3203 3211 
Q 3513 2838 3513 2113 
z
" transform="scale(0.015625)"/>
      <path id="DejaVuSans-20" transform="scale(0.015625)"/>
      <path id="DejaVuSans-45" d="M 628 4666 
L 3578 4666 
L 3578 4134 
L 1259 4134 
L 1259 2753 
L 3481 2753 
L 3481 2222 
L 1259 2222 
L 1259 531 
L 3634 531 
L 3634 0 
L 628 0 
L 628 4666 
z
" transform="scale(0.015625)"/>
     </defs>
     <use xlink:href="#DejaVuSans-50"/>
     <use xlink:href="#DejaVuSans-72" x="58.552734"/>
     <use xlink:href="#DejaVuSans-65" x="97.416016"/>
     <use xlink:href="#DejaVuSans-64" x="158.939453"/>
     <use xlink:href="#DejaVuSans-69" x="222.416016"/>
     <use xlink:href="#DejaVuSans-63" x="250.199219"/>
     <use xlink:href="#DejaVuSans-74" x="305.179688"/>
     <use xlink:href="#DejaVuSans-69" x="344.388672"/>
     <use xlink:href="#DejaVuSans-6f" x="372.171875"/>
     <use xlink:href="#DejaVuSans-6e" x="433.353516"/>
     <use xlink:href="#DejaVuSans-20" x="496.732422"/>
     <use xlink:href="#DejaVuSans-45" x="528.519531"/>
     <use xlink:href="#DejaVuSans-72" x="591.703125"/>
     <use xlink:href="#DejaVuSans-72" x="631.066406"/>
     <use xlink:href="#DejaVuSans-6f" x="669.929688"/>
     <use xlink:href="#DejaVuSans-72" x="731.111328"/>
    </g>
   </g>
   <g id="legend_1">
    <g id="patch_7">
     <path d="M 234.342187 315.4 
L 317 315.4 
Q 319 315.4 319 313.4 
L 319 285.04375 
Q 319 283.04375 317 283.04375 
L 234.342187 283.04375 
Q 232.342187 283.04375 232.342187 285.04375 
L 232.342187 313.4 
Q 232.342187 315.4 234.342187 315.4 
z
" style="fill: #ffffff; opacity: 0.8; stroke: #cccccc; stroke-linejoin: miter"/>
    </g>
    <g id="line2d_46">
     <path d="M 236.342187 291.142187 
L 246.342187 291.142187 
L 256.342188 291.142187 
" style="fill: none; stroke: #1f77b4; stroke-width: 1.5; stroke-linecap: square"/>
    </g>
    <g id="text_11">
     <!-- train error -->
     <g transform="translate(264.342188 294.642187)scale(0.1 -0.1)">
      <defs>
       <path id="DejaVuSans-61" d="M 2194 1759 
Q 1497 1759 1228 1600 
Q 959 1441 959 1056 
Q 959 750 1161 570 
Q 1363 391 1709 391 
Q 2188 391 2477 730 
Q 2766 1069 2766 1631 
L 2766 1759 
L 2194 1759 
z
M 3341 1997 
L 3341 0 
L 2766 0 
L 2766 531 
Q 2569 213 2275 61 
Q 1981 -91 1556 -91 
Q 1019 -91 701 211 
Q 384 513 384 1019 
Q 384 1609 779 1909 
Q 1175 2209 1959 2209 
L 2766 2209 
L 2766 2266 
Q 2766 2663 2505 2880 
Q 2244 3097 1772 3097 
Q 1472 3097 1187 3025 
Q 903 2953 641 2809 
L 641 3341 
Q 956 3463 1253 3523 
Q 1550 3584 1831 3584 
Q 2591 3584 2966 3190 
Q 3341 2797 3341 1997 
z
" transform="scale(0.015625)"/>
      </defs>
      <use xlink:href="#DejaVuSans-74"/>
      <use xlink:href="#DejaVuSans-72" x="39.208984"/>
      <use xlink:href="#DejaVuSans-61" x="80.322266"/>
      <use xlink:href="#DejaVuSans-69" x="141.601562"/>
      <use xlink:href="#DejaVuSans-6e" x="169.384766"/>
      <use xlink:href="#DejaVuSans-20" x="232.763672"/>
      <use xlink:href="#DejaVuSans-65" x="264.550781"/>
      <use xlink:href="#DejaVuSans-72" x="326.074219"/>
      <use xlink:href="#DejaVuSans-72" x="365.4375"/>
      <use xlink:href="#DejaVuSans-6f" x="404.300781"/>
      <use xlink:href="#DejaVuSans-72" x="465.482422"/>
     </g>
    </g>
    <g id="line2d_47">
     <path d="M 236.342187 305.820312 
L 246.342187 305.820312 
L 256.342188 305.820312 
" style="fill: none; stroke: #ff7f0e; stroke-width: 1.5; stroke-linecap: square"/>
    </g>
    <g id="text_12">
     <!-- test error -->
     <g transform="translate(264.342188 309.320312)scale(0.1 -0.1)">
      <defs>
       <path id="DejaVuSans-73" d="M 2834 3397 
L 2834 2853 
Q 2591 2978 2328 3040 
Q 2066 3103 1784 3103 
Q 1356 3103 1142 2972 
Q 928 2841 928 2578 
Q 928 2378 1081 2264 
Q 1234 2150 1697 2047 
L 1894 2003 
Q 2506 1872 2764 1633 
Q 3022 1394 3022 966 
Q 3022 478 2636 193 
Q 2250 -91 1575 -91 
Q 1294 -91 989 -36 
Q 684 19 347 128 
L 347 722 
Q 666 556 975 473 
Q 1284 391 1588 391 
Q 1994 391 2212 530 
Q 2431 669 2431 922 
Q 2431 1156 2273 1281 
Q 2116 1406 1581 1522 
L 1381 1569 
Q 847 1681 609 1914 
Q 372 2147 372 2553 
Q 372 3047 722 3315 
Q 1072 3584 1716 3584 
Q 2034 3584 2315 3537 
Q 2597 3491 2834 3397 
z
" transform="scale(0.015625)"/>
      </defs>
      <use xlink:href="#DejaVuSans-74"/>
      <use xlink:href="#DejaVuSans-65" x="39.208984"/>
      <use xlink:href="#DejaVuSans-73" x="100.732422"/>
      <use xlink:href="#DejaVuSans-74" x="152.832031"/>
      <use xlink:href="#DejaVuSans-20" x="192.041016"/>
      <use xlink:href="#DejaVuSans-65" x="223.828125"/>
      <use xlink:href="#DejaVuSans-72" x="285.351562"/>
      <use xlink:href="#DejaVuSans-72" x="324.714844"/>
      <use xlink:href="#DejaVuSans-6f" x="363.578125"/>
      <use xlink:href="#DejaVuSans-72" x="424.759766"/>
     </g>
    </g>
   </g>
  </g>
 </g>
 <defs>
  <clipPath id="pea538f31f2">
   <rect x="45" y="43.2" width="279" height="277.2"/>
  </clipPath>
 </defs>
</svg>
