<?xml version="1.0" encoding="utf-8" standalone="no"?>
<!DOCTYPE svg PUBLIC "-//W3C//DTD SVG 1.1//EN"
  "http://www.w3.org/Graphics/SVG/1.1/DTD/svg11.dtd">
<svg xmlns:xlink="http://www.w3.org/1999/xlink" width="460.8pt" height="345.6pt" viewBox="0 0 460.8 345.6" xmlns="http://www.w3.org/2000/svg" version="1.1">
 <metadata>
  <rdf:RDF xmlns:dc="http://purl.org/dc/elements/1.1/" xmlns:cc="http://creativecommons.org/ns#" xmlns:rdf="http://www.w3.org/1999/02/22-rdf-syntax-ns#">
   <cc:Work>
    <dc:type rdf:resource="http://purl.org/dc/dcmitype/StillImage"/>
    <dc:date>2022-12-23T16:21:09.590620</dc:date>
    <dc:format>image/svg+xml</dc:format>
    <dc:creator>
     <cc:Agent>
      <dc:title>Matplotlib v3.5.3, https://matplotlib.org/</dc:title>
     </cc:Agent>
    </dc:creator>
   </cc:Work>
  </rdf:RDF>
 </metadata>
 <defs>
  <style type="text/css">*{stroke-linejoin: round; stroke-linecap: butt}</style>
 </defs>
 <g id="figure_1">
  <g id="patch_1">
   <path d="M 0 345.6 
L 460.8 345.6 
L 460.8 0 
L 0 0 
z
" style="fill: #ffffff"/>
  </g>
  <g id="axes_1">
   <g id="patch_2">
    <path d="M 57.6 307.584 
L 414.72 307.584 
L 414.72 41.472 
L 57.6 41.472 
z
" style="fill: #e5e5e5"/>
   </g>
   <g id="matplotlib.axis_1">
    <g id="xtick_1">
     <g id="line2d_1">
      <path d="M 103.104 307.584 
L 103.104 41.472 
" clip-path="url(#p0c09fcc0c2)" style="fill: none; stroke: #ffffff; stroke-width: 0.8; stroke-linecap: square"/>
     </g>
     <g id="line2d_2">
      <defs>
       <path id="m638d4f112f" d="M 0 0 
L 0 3.5 
" style="stroke: #555555; stroke-width: 0.8"/>
      </defs>
      <g>
       <use xlink:href="#m638d4f112f" x="103.104" y="307.584" style="fill: #555555; stroke: #555555; stroke-width: 0.8"/>
      </g>
     </g>
     <g id="text_1">
      <!-- 0.0 -->
      <g style="fill: #555555" transform="translate(95.152438 322.182437)scale(0.1 -0.1)">
       <defs>
        <path id="DejaVuSans-30" d="M 2034 4250 
Q 1547 4250 1301 3770 
Q 1056 3291 1056 2328 
Q 1056 1369 1301 889 
Q 1547 409 2034 409 
Q 2525 409 2770 889 
Q 3016 1369 3016 2328 
Q 3016 3291 2770 3770 
Q 2525 4250 2034 4250 
z
M 2034 4750 
Q 2819 4750 3233 4129 
Q 3647 3509 3647 2328 
Q 3647 1150 3233 529 
Q 2819 -91 2034 -91 
Q 1250 -91 836 529 
Q 422 1150 422 2328 
Q 422 3509 836 4129 
Q 1250 4750 2034 4750 
z
" transform="scale(0.015625)"/>
        <path id="DejaVuSans-2e" d="M 684 794 
L 1344 794 
L 1344 0 
L 684 0 
L 684 794 
z
" transform="scale(0.015625)"/>
       </defs>
       <use xlink:href="#DejaVuSans-30"/>
       <use xlink:href="#DejaVuSans-2e" x="63.623047"/>
       <use xlink:href="#DejaVuSans-30" x="95.410156"/>
      </g>
     </g>
    </g>
    <g id="xtick_2">
     <g id="line2d_3">
      <path d="M 156.3264 307.584 
L 156.3264 41.472 
" clip-path="url(#p0c09fcc0c2)" style="fill: none; stroke: #ffffff; stroke-width: 0.8; stroke-linecap: square"/>
     </g>
     <g id="line2d_4">
      <g>
       <use xlink:href="#m638d4f112f" x="156.3264" y="307.584" style="fill: #555555; stroke: #555555; stroke-width: 0.8"/>
      </g>
     </g>
     <g id="text_2">
      <!-- 0.2 -->
      <g style="fill: #555555" transform="translate(148.374838 322.182437)scale(0.1 -0.1)">
       <defs>
        <path id="DejaVuSans-32" d="M 1228 531 
L 3431 531 
L 3431 0 
L 469 0 
L 469 531 
Q 828 903 1448 1529 
Q 2069 2156 2228 2338 
Q 2531 2678 2651 2914 
Q 2772 3150 2772 3378 
Q 2772 3750 2511 3984 
Q 2250 4219 1831 4219 
Q 1534 4219 1204 4116 
Q 875 4013 500 3803 
L 500 4441 
Q 881 4594 1212 4672 
Q 1544 4750 1819 4750 
Q 2544 4750 2975 4387 
Q 3406 4025 3406 3419 
Q 3406 3131 3298 2873 
Q 3191 2616 2906 2266 
Q 2828 2175 2409 1742 
Q 1991 1309 1228 531 
z
" transform="scale(0.015625)"/>
       </defs>
       <use xlink:href="#DejaVuSans-30"/>
       <use xlink:href="#DejaVuSans-2e" x="63.623047"/>
       <use xlink:href="#DejaVuSans-32" x="95.410156"/>
      </g>
     </g>
    </g>
    <g id="xtick_3">
     <g id="line2d_5">
      <path d="M 209.5488 307.584 
L 209.5488 41.472 
" clip-path="url(#p0c09fcc0c2)" style="fill: none; stroke: #ffffff; stroke-width: 0.8; stroke-linecap: square"/>
     </g>
     <g id="line2d_6">
      <g>
       <use xlink:href="#m638d4f112f" x="209.5488" y="307.584" style="fill: #555555; stroke: #555555; stroke-width: 0.8"/>
      </g>
     </g>
     <g id="text_3">
      <!-- 0.4 -->
      <g style="fill: #555555" transform="translate(201.597238 322.182437)scale(0.1 -0.1)">
       <defs>
        <path id="DejaVuSans-34" d="M 2419 4116 
L 825 1625 
L 2419 1625 
L 2419 4116 
z
M 2253 4666 
L 3047 4666 
L 3047 1625 
L 3713 1625 
L 3713 1100 
L 3047 1100 
L 3047 0 
L 2419 0 
L 2419 1100 
L 313 1100 
L 313 1709 
L 2253 4666 
z
" transform="scale(0.015625)"/>
       </defs>
       <use xlink:href="#DejaVuSans-30"/>
       <use xlink:href="#DejaVuSans-2e" x="63.623047"/>
       <use xlink:href="#DejaVuSans-34" x="95.410156"/>
      </g>
     </g>
    </g>
    <g id="xtick_4">
     <g id="line2d_7">
      <path d="M 262.7712 307.584 
L 262.7712 41.472 
" clip-path="url(#p0c09fcc0c2)" style="fill: none; stroke: #ffffff; stroke-width: 0.8; stroke-linecap: square"/>
     </g>
     <g id="line2d_8">
      <g>
       <use xlink:href="#m638d4f112f" x="262.7712" y="307.584" style="fill: #555555; stroke: #555555; stroke-width: 0.8"/>
      </g>
     </g>
     <g id="text_4">
      <!-- 0.6 -->
      <g style="fill: #555555" transform="translate(254.819638 322.182437)scale(0.1 -0.1)">
       <defs>
        <path id="DejaVuSans-36" d="M 2113 2584 
Q 1688 2584 1439 2293 
Q 1191 2003 1191 1497 
Q 1191 994 1439 701 
Q 1688 409 2113 409 
Q 2538 409 2786 701 
Q 3034 994 3034 1497 
Q 3034 2003 2786 2293 
Q 2538 2584 2113 2584 
z
M 3366 4563 
L 3366 3988 
Q 3128 4100 2886 4159 
Q 2644 4219 2406 4219 
Q 1781 4219 1451 3797 
Q 1122 3375 1075 2522 
Q 1259 2794 1537 2939 
Q 1816 3084 2150 3084 
Q 2853 3084 3261 2657 
Q 3669 2231 3669 1497 
Q 3669 778 3244 343 
Q 2819 -91 2113 -91 
Q 1303 -91 875 529 
Q 447 1150 447 2328 
Q 447 3434 972 4092 
Q 1497 4750 2381 4750 
Q 2619 4750 2861 4703 
Q 3103 4656 3366 4563 
z
" transform="scale(0.015625)"/>
       </defs>
       <use xlink:href="#DejaVuSans-30"/>
       <use xlink:href="#DejaVuSans-2e" x="63.623047"/>
       <use xlink:href="#DejaVuSans-36" x="95.410156"/>
      </g>
     </g>
    </g>
    <g id="xtick_5">
     <g id="line2d_9">
      <path d="M 315.9936 307.584 
L 315.9936 41.472 
" clip-path="url(#p0c09fcc0c2)" style="fill: none; stroke: #ffffff; stroke-width: 0.8; stroke-linecap: square"/>
     </g>
     <g id="line2d_10">
      <g>
       <use xlink:href="#m638d4f112f" x="315.9936" y="307.584" style="fill: #555555; stroke: #555555; stroke-width: 0.8"/>
      </g>
     </g>
     <g id="text_5">
      <!-- 0.8 -->
      <g style="fill: #555555" transform="translate(308.042037 322.182437)scale(0.1 -0.1)">
       <defs>
        <path id="DejaVuSans-38" d="M 2034 2216 
Q 1584 2216 1326 1975 
Q 1069 1734 1069 1313 
Q 1069 891 1326 650 
Q 1584 409 2034 409 
Q 2484 409 2743 651 
Q 3003 894 3003 1313 
Q 3003 1734 2745 1975 
Q 2488 2216 2034 2216 
z
M 1403 2484 
Q 997 2584 770 2862 
Q 544 3141 544 3541 
Q 544 4100 942 4425 
Q 1341 4750 2034 4750 
Q 2731 4750 3128 4425 
Q 3525 4100 3525 3541 
Q 3525 3141 3298 2862 
Q 3072 2584 2669 2484 
Q 3125 2378 3379 2068 
Q 3634 1759 3634 1313 
Q 3634 634 3220 271 
Q 2806 -91 2034 -91 
Q 1263 -91 848 271 
Q 434 634 434 1313 
Q 434 1759 690 2068 
Q 947 2378 1403 2484 
z
M 1172 3481 
Q 1172 3119 1398 2916 
Q 1625 2713 2034 2713 
Q 2441 2713 2670 2916 
Q 2900 3119 2900 3481 
Q 2900 3844 2670 4047 
Q 2441 4250 2034 4250 
Q 1625 4250 1398 4047 
Q 1172 3844 1172 3481 
z
" transform="scale(0.015625)"/>
       </defs>
       <use xlink:href="#DejaVuSans-30"/>
       <use xlink:href="#DejaVuSans-2e" x="63.623047"/>
       <use xlink:href="#DejaVuSans-38" x="95.410156"/>
      </g>
     </g>
    </g>
    <g id="xtick_6">
     <g id="line2d_11">
      <path d="M 369.216 307.584 
L 369.216 41.472 
" clip-path="url(#p0c09fcc0c2)" style="fill: none; stroke: #ffffff; stroke-width: 0.8; stroke-linecap: square"/>
     </g>
     <g id="line2d_12">
      <g>
       <use xlink:href="#m638d4f112f" x="369.216" y="307.584" style="fill: #555555; stroke: #555555; stroke-width: 0.8"/>
      </g>
     </g>
     <g id="text_6">
      <!-- 1.0 -->
      <g style="fill: #555555" transform="translate(361.264438 322.182437)scale(0.1 -0.1)">
       <defs>
        <path id="DejaVuSans-31" d="M 794 531 
L 1825 531 
L 1825 4091 
L 703 3866 
L 703 4441 
L 1819 4666 
L 2450 4666 
L 2450 531 
L 3481 531 
L 3481 0 
L 794 0 
L 794 531 
z
" transform="scale(0.015625)"/>
       </defs>
       <use xlink:href="#DejaVuSans-31"/>
       <use xlink:href="#DejaVuSans-2e" x="63.623047"/>
       <use xlink:href="#DejaVuSans-30" x="95.410156"/>
      </g>
     </g>
    </g>
    <g id="text_7">
     <!-- Predicted probability -->
     <g style="fill: #555555" transform="translate(174.077812 337.38025)scale(0.12 -0.12)">
      <defs>
       <path id="DejaVuSans-50" d="M 1259 4147 
L 1259 2394 
L 2053 2394 
Q 2494 2394 2734 2622 
Q 2975 2850 2975 3272 
Q 2975 3691 2734 3919 
Q 2494 4147 2053 4147 
L 1259 4147 
z
M 628 4666 
L 2053 4666 
Q 2838 4666 3239 4311 
Q 3641 3956 3641 3272 
Q 3641 2581 3239 2228 
Q 2838 1875 2053 1875 
L 1259 1875 
L 1259 0 
L 628 0 
L 628 4666 
z
" transform="scale(0.015625)"/>
       <path id="DejaVuSans-72" d="M 2631 2963 
Q 2534 3019 2420 3045 
Q 2306 3072 2169 3072 
Q 1681 3072 1420 2755 
Q 1159 2438 1159 1844 
L 1159 0 
L 581 0 
L 581 3500 
L 1159 3500 
L 1159 2956 
Q 1341 3275 1631 3429 
Q 1922 3584 2338 3584 
Q 2397 3584 2469 3576 
Q 2541 3569 2628 3553 
L 2631 2963 
z
" transform="scale(0.015625)"/>
       <path id="DejaVuSans-65" d="M 3597 1894 
L 3597 1613 
L 953 1613 
Q 991 1019 1311 708 
Q 1631 397 2203 397 
Q 2534 397 2845 478 
Q 3156 559 3463 722 
L 3463 178 
Q 3153 47 2828 -22 
Q 2503 -91 2169 -91 
Q 1331 -91 842 396 
Q 353 884 353 1716 
Q 353 2575 817 3079 
Q 1281 3584 2069 3584 
Q 2775 3584 3186 3129 
Q 3597 2675 3597 1894 
z
M 3022 2063 
Q 3016 2534 2758 2815 
Q 2500 3097 2075 3097 
Q 1594 3097 1305 2825 
Q 1016 2553 972 2059 
L 3022 2063 
z
" transform="scale(0.015625)"/>
       <path id="DejaVuSans-64" d="M 2906 2969 
L 2906 4863 
L 3481 4863 
L 3481 0 
L 2906 0 
L 2906 525 
Q 2725 213 2448 61 
Q 2172 -91 1784 -91 
Q 1150 -91 751 415 
Q 353 922 353 1747 
Q 353 2572 751 3078 
Q 1150 3584 1784 3584 
Q 2172 3584 2448 3432 
Q 2725 3281 2906 2969 
z
M 947 1747 
Q 947 1113 1208 752 
Q 1469 391 1925 391 
Q 2381 391 2643 752 
Q 2906 1113 2906 1747 
Q 2906 2381 2643 2742 
Q 2381 3103 1925 3103 
Q 1469 3103 1208 2742 
Q 947 2381 947 1747 
z
" transform="scale(0.015625)"/>
       <path id="DejaVuSans-69" d="M 603 3500 
L 1178 3500 
L 1178 0 
L 603 0 
L 603 3500 
z
M 603 4863 
L 1178 4863 
L 1178 4134 
L 603 4134 
L 603 4863 
z
" transform="scale(0.015625)"/>
       <path id="DejaVuSans-63" d="M 3122 3366 
L 3122 2828 
Q 2878 2963 2633 3030 
Q 2388 3097 2138 3097 
Q 1578 3097 1268 2742 
Q 959 2388 959 1747 
Q 959 1106 1268 751 
Q 1578 397 2138 397 
Q 2388 397 2633 464 
Q 2878 531 3122 666 
L 3122 134 
Q 2881 22 2623 -34 
Q 2366 -91 2075 -91 
Q 1284 -91 818 406 
Q 353 903 353 1747 
Q 353 2603 823 3093 
Q 1294 3584 2113 3584 
Q 2378 3584 2631 3529 
Q 2884 3475 3122 3366 
z
" transform="scale(0.015625)"/>
       <path id="DejaVuSans-74" d="M 1172 4494 
L 1172 3500 
L 2356 3500 
L 2356 3053 
L 1172 3053 
L 1172 1153 
Q 1172 725 1289 603 
Q 1406 481 1766 481 
L 2356 481 
L 2356 0 
L 1766 0 
Q 1100 0 847 248 
Q 594 497 594 1153 
L 594 3053 
L 172 3053 
L 172 3500 
L 594 3500 
L 594 4494 
L 1172 4494 
z
" transform="scale(0.015625)"/>
       <path id="DejaVuSans-20" transform="scale(0.015625)"/>
       <path id="DejaVuSans-70" d="M 1159 525 
L 1159 -1331 
L 581 -1331 
L 581 3500 
L 1159 3500 
L 1159 2969 
Q 1341 3281 1617 3432 
Q 1894 3584 2278 3584 
Q 2916 3584 3314 3078 
Q 3713 2572 3713 1747 
Q 3713 922 3314 415 
Q 2916 -91 2278 -91 
Q 1894 -91 1617 61 
Q 1341 213 1159 525 
z
M 3116 1747 
Q 3116 2381 2855 2742 
Q 2594 3103 2138 3103 
Q 1681 3103 1420 2742 
Q 1159 2381 1159 1747 
Q 1159 1113 1420 752 
Q 1681 391 2138 391 
Q 2594 391 2855 752 
Q 3116 1113 3116 1747 
z
" transform="scale(0.015625)"/>
       <path id="DejaVuSans-6f" d="M 1959 3097 
Q 1497 3097 1228 2736 
Q 959 2375 959 1747 
Q 959 1119 1226 758 
Q 1494 397 1959 397 
Q 2419 397 2687 759 
Q 2956 1122 2956 1747 
Q 2956 2369 2687 2733 
Q 2419 3097 1959 3097 
z
M 1959 3584 
Q 2709 3584 3137 3096 
Q 3566 2609 3566 1747 
Q 3566 888 3137 398 
Q 2709 -91 1959 -91 
Q 1206 -91 779 398 
Q 353 888 353 1747 
Q 353 2609 779 3096 
Q 1206 3584 1959 3584 
z
" transform="scale(0.015625)"/>
       <path id="DejaVuSans-62" d="M 3116 1747 
Q 3116 2381 2855 2742 
Q 2594 3103 2138 3103 
Q 1681 3103 1420 2742 
Q 1159 2381 1159 1747 
Q 1159 1113 1420 752 
Q 1681 391 2138 391 
Q 2594 391 2855 752 
Q 3116 1113 3116 1747 
z
M 1159 2969 
Q 1341 3281 1617 3432 
Q 1894 3584 2278 3584 
Q 2916 3584 3314 3078 
Q 3713 2572 3713 1747 
Q 3713 922 3314 415 
Q 2916 -91 2278 -91 
Q 1894 -91 1617 61 
Q 1341 213 1159 525 
L 1159 0 
L 581 0 
L 581 4863 
L 1159 4863 
L 1159 2969 
z
" transform="scale(0.015625)"/>
       <path id="DejaVuSans-61" d="M 2194 1759 
Q 1497 1759 1228 1600 
Q 959 1441 959 1056 
Q 959 750 1161 570 
Q 1363 391 1709 391 
Q 2188 391 2477 730 
Q 2766 1069 2766 1631 
L 2766 1759 
L 2194 1759 
z
M 3341 1997 
L 3341 0 
L 2766 0 
L 2766 531 
Q 2569 213 2275 61 
Q 1981 -91 1556 -91 
Q 1019 -91 701 211 
Q 384 513 384 1019 
Q 384 1609 779 1909 
Q 1175 2209 1959 2209 
L 2766 2209 
L 2766 2266 
Q 2766 2663 2505 2880 
Q 2244 3097 1772 3097 
Q 1472 3097 1187 3025 
Q 903 2953 641 2809 
L 641 3341 
Q 956 3463 1253 3523 
Q 1550 3584 1831 3584 
Q 2591 3584 2966 3190 
Q 3341 2797 3341 1997 
z
" transform="scale(0.015625)"/>
       <path id="DejaVuSans-6c" d="M 603 4863 
L 1178 4863 
L 1178 0 
L 603 0 
L 603 4863 
z
" transform="scale(0.015625)"/>
       <path id="DejaVuSans-79" d="M 2059 -325 
Q 1816 -950 1584 -1140 
Q 1353 -1331 966 -1331 
L 506 -1331 
L 506 -850 
L 844 -850 
Q 1081 -850 1212 -737 
Q 1344 -625 1503 -206 
L 1606 56 
L 191 3500 
L 800 3500 
L 1894 763 
L 2988 3500 
L 3597 3500 
L 2059 -325 
z
" transform="scale(0.015625)"/>
      </defs>
      <use xlink:href="#DejaVuSans-50"/>
      <use xlink:href="#DejaVuSans-72" x="58.552734"/>
      <use xlink:href="#DejaVuSans-65" x="97.416016"/>
      <use xlink:href="#DejaVuSans-64" x="158.939453"/>
      <use xlink:href="#DejaVuSans-69" x="222.416016"/>
      <use xlink:href="#DejaVuSans-63" x="250.199219"/>
      <use xlink:href="#DejaVuSans-74" x="305.179688"/>
      <use xlink:href="#DejaVuSans-65" x="344.388672"/>
      <use xlink:href="#DejaVuSans-64" x="405.912109"/>
      <use xlink:href="#DejaVuSans-20" x="469.388672"/>
      <use xlink:href="#DejaVuSans-70" x="501.175781"/>
      <use xlink:href="#DejaVuSans-72" x="564.652344"/>
      <use xlink:href="#DejaVuSans-6f" x="603.515625"/>
      <use xlink:href="#DejaVuSans-62" x="664.697266"/>
      <use xlink:href="#DejaVuSans-61" x="728.173828"/>
      <use xlink:href="#DejaVuSans-62" x="789.453125"/>
      <use xlink:href="#DejaVuSans-69" x="852.929688"/>
      <use xlink:href="#DejaVuSans-6c" x="880.712891"/>
      <use xlink:href="#DejaVuSans-69" x="908.496094"/>
      <use xlink:href="#DejaVuSans-74" x="936.279297"/>
      <use xlink:href="#DejaVuSans-79" x="975.488281"/>
     </g>
    </g>
   </g>
   <g id="matplotlib.axis_2">
    <g id="ytick_1">
     <g id="line2d_13">
      <path d="M 57.6 307.584 
L 414.72 307.584 
" clip-path="url(#p0c09fcc0c2)" style="fill: none; stroke: #ffffff; stroke-width: 0.8; stroke-linecap: square"/>
     </g>
     <g id="line2d_14">
      <defs>
       <path id="mfee3e81465" d="M 0 0 
L -3.5 0 
" style="stroke: #555555; stroke-width: 0.8"/>
      </defs>
      <g>
       <use xlink:href="#mfee3e81465" x="57.6" y="307.584" style="fill: #555555; stroke: #555555; stroke-width: 0.8"/>
      </g>
     </g>
     <g id="text_8">
      <!-- 0.0 -->
      <g style="fill: #555555" transform="translate(34.696875 311.383219)scale(0.1 -0.1)">
       <use xlink:href="#DejaVuSans-30"/>
       <use xlink:href="#DejaVuSans-2e" x="63.623047"/>
       <use xlink:href="#DejaVuSans-30" x="95.410156"/>
      </g>
     </g>
    </g>
    <g id="ytick_2">
     <g id="line2d_15">
      <path d="M 57.6 254.3616 
L 414.72 254.3616 
" clip-path="url(#p0c09fcc0c2)" style="fill: none; stroke: #ffffff; stroke-width: 0.8; stroke-linecap: square"/>
     </g>
     <g id="line2d_16">
      <g>
       <use xlink:href="#mfee3e81465" x="57.6" y="254.3616" style="fill: #555555; stroke: #555555; stroke-width: 0.8"/>
      </g>
     </g>
     <g id="text_9">
      <!-- 0.2 -->
      <g style="fill: #555555" transform="translate(34.696875 258.160819)scale(0.1 -0.1)">
       <use xlink:href="#DejaVuSans-30"/>
       <use xlink:href="#DejaVuSans-2e" x="63.623047"/>
       <use xlink:href="#DejaVuSans-32" x="95.410156"/>
      </g>
     </g>
    </g>
    <g id="ytick_3">
     <g id="line2d_17">
      <path d="M 57.6 201.1392 
L 414.72 201.1392 
" clip-path="url(#p0c09fcc0c2)" style="fill: none; stroke: #ffffff; stroke-width: 0.8; stroke-linecap: square"/>
     </g>
     <g id="line2d_18">
      <g>
       <use xlink:href="#mfee3e81465" x="57.6" y="201.1392" style="fill: #555555; stroke: #555555; stroke-width: 0.8"/>
      </g>
     </g>
     <g id="text_10">
      <!-- 0.4 -->
      <g style="fill: #555555" transform="translate(34.696875 204.938419)scale(0.1 -0.1)">
       <use xlink:href="#DejaVuSans-30"/>
       <use xlink:href="#DejaVuSans-2e" x="63.623047"/>
       <use xlink:href="#DejaVuSans-34" x="95.410156"/>
      </g>
     </g>
    </g>
    <g id="ytick_4">
     <g id="line2d_19">
      <path d="M 57.6 147.9168 
L 414.72 147.9168 
" clip-path="url(#p0c09fcc0c2)" style="fill: none; stroke: #ffffff; stroke-width: 0.8; stroke-linecap: square"/>
     </g>
     <g id="line2d_20">
      <g>
       <use xlink:href="#mfee3e81465" x="57.6" y="147.9168" style="fill: #555555; stroke: #555555; stroke-width: 0.8"/>
      </g>
     </g>
     <g id="text_11">
      <!-- 0.6 -->
      <g style="fill: #555555" transform="translate(34.696875 151.716019)scale(0.1 -0.1)">
       <use xlink:href="#DejaVuSans-30"/>
       <use xlink:href="#DejaVuSans-2e" x="63.623047"/>
       <use xlink:href="#DejaVuSans-36" x="95.410156"/>
      </g>
     </g>
    </g>
    <g id="ytick_5">
     <g id="line2d_21">
      <path d="M 57.6 94.6944 
L 414.72 94.6944 
" clip-path="url(#p0c09fcc0c2)" style="fill: none; stroke: #ffffff; stroke-width: 0.8; stroke-linecap: square"/>
     </g>
     <g id="line2d_22">
      <g>
       <use xlink:href="#mfee3e81465" x="57.6" y="94.6944" style="fill: #555555; stroke: #555555; stroke-width: 0.8"/>
      </g>
     </g>
     <g id="text_12">
      <!-- 0.8 -->
      <g style="fill: #555555" transform="translate(34.696875 98.493619)scale(0.1 -0.1)">
       <use xlink:href="#DejaVuSans-30"/>
       <use xlink:href="#DejaVuSans-2e" x="63.623047"/>
       <use xlink:href="#DejaVuSans-38" x="95.410156"/>
      </g>
     </g>
    </g>
    <g id="ytick_6">
     <g id="line2d_23">
      <path d="M 57.6 41.472 
L 414.72 41.472 
" clip-path="url(#p0c09fcc0c2)" style="fill: none; stroke: #ffffff; stroke-width: 0.8; stroke-linecap: square"/>
     </g>
     <g id="line2d_24">
      <g>
       <use xlink:href="#mfee3e81465" x="57.6" y="41.472" style="fill: #555555; stroke: #555555; stroke-width: 0.8"/>
      </g>
     </g>
     <g id="text_13">
      <!-- 1.0 -->
      <g style="fill: #555555" transform="translate(34.696875 45.271219)scale(0.1 -0.1)">
       <use xlink:href="#DejaVuSans-31"/>
       <use xlink:href="#DejaVuSans-2e" x="63.623047"/>
       <use xlink:href="#DejaVuSans-30" x="95.410156"/>
      </g>
     </g>
    </g>
    <g id="text_14">
     <!-- Observed probability -->
     <g style="fill: #555555" transform="translate(28.20125 237.31425)rotate(-90)scale(0.12 -0.12)">
      <defs>
       <path id="DejaVuSans-4f" d="M 2522 4238 
Q 1834 4238 1429 3725 
Q 1025 3213 1025 2328 
Q 1025 1447 1429 934 
Q 1834 422 2522 422 
Q 3209 422 3611 934 
Q 4013 1447 4013 2328 
Q 4013 3213 3611 3725 
Q 3209 4238 2522 4238 
z
M 2522 4750 
Q 3503 4750 4090 4092 
Q 4678 3434 4678 2328 
Q 4678 1225 4090 567 
Q 3503 -91 2522 -91 
Q 1538 -91 948 565 
Q 359 1222 359 2328 
Q 359 3434 948 4092 
Q 1538 4750 2522 4750 
z
" transform="scale(0.015625)"/>
       <path id="DejaVuSans-73" d="M 2834 3397 
L 2834 2853 
Q 2591 2978 2328 3040 
Q 2066 3103 1784 3103 
Q 1356 3103 1142 2972 
Q 928 2841 928 2578 
Q 928 2378 1081 2264 
Q 1234 2150 1697 2047 
L 1894 2003 
Q 2506 1872 2764 1633 
Q 3022 1394 3022 966 
Q 3022 478 2636 193 
Q 2250 -91 1575 -91 
Q 1294 -91 989 -36 
Q 684 19 347 128 
L 347 722 
Q 666 556 975 473 
Q 1284 391 1588 391 
Q 1994 391 2212 530 
Q 2431 669 2431 922 
Q 2431 1156 2273 1281 
Q 2116 1406 1581 1522 
L 1381 1569 
Q 847 1681 609 1914 
Q 372 2147 372 2553 
Q 372 3047 722 3315 
Q 1072 3584 1716 3584 
Q 2034 3584 2315 3537 
Q 2597 3491 2834 3397 
z
" transform="scale(0.015625)"/>
       <path id="DejaVuSans-76" d="M 191 3500 
L 800 3500 
L 1894 563 
L 2988 3500 
L 3597 3500 
L 2284 0 
L 1503 0 
L 191 3500 
z
" transform="scale(0.015625)"/>
      </defs>
      <use xlink:href="#DejaVuSans-4f"/>
      <use xlink:href="#DejaVuSans-62" x="78.710938"/>
      <use xlink:href="#DejaVuSans-73" x="142.1875"/>
      <use xlink:href="#DejaVuSans-65" x="194.287109"/>
      <use xlink:href="#DejaVuSans-72" x="255.810547"/>
      <use xlink:href="#DejaVuSans-76" x="296.923828"/>
      <use xlink:href="#DejaVuSans-65" x="356.103516"/>
      <use xlink:href="#DejaVuSans-64" x="417.626953"/>
      <use xlink:href="#DejaVuSans-20" x="481.103516"/>
      <use xlink:href="#DejaVuSans-70" x="512.890625"/>
      <use xlink:href="#DejaVuSans-72" x="576.367188"/>
      <use xlink:href="#DejaVuSans-6f" x="615.230469"/>
      <use xlink:href="#DejaVuSans-62" x="676.412109"/>
      <use xlink:href="#DejaVuSans-61" x="739.888672"/>
      <use xlink:href="#DejaVuSans-62" x="801.167969"/>
      <use xlink:href="#DejaVuSans-69" x="864.644531"/>
      <use xlink:href="#DejaVuSans-6c" x="892.427734"/>
      <use xlink:href="#DejaVuSans-69" x="920.210938"/>
      <use xlink:href="#DejaVuSans-74" x="947.994141"/>
      <use xlink:href="#DejaVuSans-79" x="987.203125"/>
     </g>
    </g>
   </g>
   <g id="line2d_25">
    <path d="M 103.499172 307.317888 
L 103.570502 307.051776 
L 104.804388 305.455104 
L 104.872145 305.188992 
L 105.129363 304.92288 
L 106.791097 304.390656 
L 107.464068 303.858432 
L 107.581243 303.59232 
L 108.38037 303.326208 
L 108.50779 302.527872 
L 108.584142 301.995648 
L 108.998709 301.729536 
L 109.009232 301.463424 
L 109.670397 301.197312 
L 109.860824 300.9312 
L 111.24936 300.132864 
L 111.406295 299.866752 
L 111.790205 299.60064 
L 111.843456 299.334528 
L 112.260869 299.068416 
L 112.743654 298.003968 
L 113.741899 297.737856 
L 113.777822 297.471744 
L 114.243875 297.205632 
L 114.806792 296.407296 
L 114.846003 296.141184 
L 115.197065 295.875072 
L 115.203378 295.60896 
L 115.895274 295.342848 
L 116.065975 294.810624 
L 116.679581 293.746176 
L 117.619184 293.480064 
L 117.790564 292.415616 
L 118.142577 292.149504 
L 118.299958 291.61728 
L 119.36548 291.085056 
L 119.367721 290.818944 
L 119.528719 290.552832 
L 120.448524 290.28672 
L 120.696209 290.020608 
L 120.94955 288.690048 
L 121.699619 288.157824 
L 122.413242 287.891712 
L 122.695248 287.6256 
L 122.817145 286.827264 
L 123.082013 286.561152 
L 123.128181 286.29504 
L 123.363042 286.028928 
L 124.691648 285.496704 
L 125.068005 284.96448 
L 125.080512 284.698368 
L 125.978007 283.63392 
L 126.62675 283.367808 
L 126.771231 283.101696 
L 126.775811 282.835584 
L 127.431081 282.569472 
L 127.699009 282.30336 
L 127.733675 282.037248 
L 128.174147 281.505024 
L 128.611461 281.238912 
L 128.80886 280.706688 
L 129.088816 280.440576 
L 129.742362 280.174464 
L 130.163042 279.376128 
L 130.243194 279.110016 
L 130.961305 278.843904 
L 131.160754 278.577792 
L 132.242199 278.045568 
L 132.306262 277.779456 
L 133.34132 276.98112 
L 133.820363 276.715008 
L 133.831684 276.448896 
L 134.709177 276.182784 
L 134.914157 275.384448 
L 135.521865 274.852224 
L 135.695515 274.586112 
L 136.44246 274.32 
L 137.723798 273.255552 
L 137.779132 272.98944 
L 139.052421 272.191104 
L 139.230046 271.65888 
L 139.803925 271.392768 
L 140.258059 270.860544 
L 140.282739 270.32832 
L 141.220781 270.062208 
L 141.33799 269.796096 
L 142.196879 269.263872 
L 142.417148 268.465536 
L 142.802362 267.933312 
L 142.847419 267.6672 
L 143.325989 267.401088 
L 143.702569 266.868864 
L 143.709864 266.602752 
L 145.347217 265.538304 
L 145.527365 264.739968 
L 145.647022 264.207744 
L 146.259351 263.67552 
L 147.624373 263.409408 
L 147.638136 263.143296 
L 148.687868 261.812736 
L 148.730136 261.546624 
L 149.768627 261.280512 
L 150.049649 261.0144 
L 150.159903 260.748288 
L 150.666573 260.482176 
L 150.811246 260.216064 
L 151.487241 259.949952 
L 151.600194 259.417728 
L 152.1289 259.151616 
L 152.492251 258.35328 
L 153.091666 258.087168 
L 153.1268 257.821056 
L 153.536088 257.288832 
L 154.717473 257.02272 
L 155.09953 256.756608 
L 155.224061 256.224384 
L 156.050866 255.958272 
L 156.174981 255.69216 
L 156.677114 255.159936 
L 157.905017 251.966592 
L 158.085697 251.70048 
L 158.440084 251.434368 
L 158.735841 250.36992 
L 159.134008 250.103808 
L 159.293479 249.837696 
L 159.941591 249.571584 
L 160.202033 248.773248 
L 160.38975 247.974912 
L 160.781963 247.7088 
L 160.858101 247.442688 
L 161.070002 247.176576 
L 162.979352 245.846016 
L 163.175117 245.04768 
L 163.363396 244.781568 
L 163.71456 244.515456 
L 163.802547 244.249344 
L 164.150377 243.983232 
L 164.236026 243.451008 
L 164.469115 243.184896 
L 165.05606 242.918784 
L 165.337826 242.652672 
L 165.381063 242.38656 
L 166.001822 241.322112 
L 166.501318 241.056 
L 166.826358 239.72544 
L 167.077828 239.459328 
L 167.813731 239.193216 
L 168.124929 238.927104 
L 168.61101 238.128768 
L 168.986774 237.862656 
L 169.861201 237.596544 
L 170.127881 237.330432 
L 170.140518 237.06432 
L 170.689604 236.532096 
L 171.148699 236.265984 
L 171.166645 235.999872 
L 171.647257 235.73376 
L 171.707165 235.467648 
L 171.986042 235.201536 
L 172.019054 234.935424 
L 172.378946 234.669312 
L 172.49738 234.4032 
L 173.29861 234.137088 
L 173.697126 233.870976 
L 173.903636 232.806528 
L 174.025075 232.540416 
L 174.322415 232.274304 
L 174.637308 231.74208 
L 175.291168 231.475968 
L 175.306876 231.209856 
L 178.173981 230.41152 
L 179.044224 230.145408 
L 179.194605 229.613184 
L 179.520121 229.347072 
L 179.724055 228.548736 
L 180.6725 227.218176 
L 181.159508 226.952064 
L 181.263988 226.41984 
L 181.773453 226.153728 
L 181.989881 225.621504 
L 182.228903 224.823168 
L 183.255671 223.492608 
L 183.643999 223.226496 
L 183.735381 222.960384 
L 184.658428 222.162048 
L 185.932425 221.895936 
L 186.069963 221.363712 
L 186.175553 221.0976 
L 186.725696 220.565376 
L 186.775545 220.299264 
L 187.669047 220.033152 
L 187.783194 219.500928 
L 188.045769 219.234816 
L 188.552899 218.968704 
L 188.708549 218.43648 
L 188.728232 218.170368 
L 189.376037 217.904256 
L 189.603856 217.638144 
L 189.655066 217.10592 
L 189.936104 216.839808 
L 190.955288 216.573696 
L 191.216223 216.307584 
L 191.32986 215.77536 
L 191.79507 214.710912 
L 192.634119 214.4448 
L 193.015082 214.178688 
L 193.642011 213.912576 
L 194.553989 212.848128 
L 194.642212 212.582016 
L 195.171687 212.049792 
L 195.280371 211.517568 
L 195.56575 210.719232 
L 196.202282 210.187008 
L 196.598369 209.654784 
L 196.815527 209.388672 
L 197.472046 209.12256 
L 197.793743 208.856448 
L 197.848824 208.590336 
L 198.059165 208.324224 
L 198.434919 208.058112 
L 198.478027 207.792 
L 198.978793 207.259776 
L 199.082934 206.727552 
L 199.657522 206.46144 
L 199.77849 206.195328 
L 200.289037 205.663104 
L 200.535127 205.13088 
L 200.737133 204.332544 
L 200.897991 204.066432 
L 201.582887 203.534208 
L 202.146818 203.001984 
L 202.591303 202.735872 
L 202.76376 202.203648 
L 202.825221 201.937536 
L 203.197864 201.671424 
L 203.212411 201.405312 
L 203.925166 200.873088 
L 204.863266 200.606976 
L 205.185064 200.340864 
L 205.275043 199.80864 
L 205.694117 199.542528 
L 205.857488 198.47808 
L 207.055018 197.679744 
L 207.226179 197.413632 
L 207.909848 197.14752 
L 207.927917 196.881408 
L 208.71605 196.349184 
L 208.93641 196.083072 
L 210.183317 195.550848 
L 210.302413 195.284736 
L 210.98248 195.018624 
L 210.983664 194.752512 
L 211.335282 194.4864 
L 211.916134 194.220288 
L 211.944061 193.688064 
L 212.214361 193.421952 
L 212.272841 193.15584 
L 212.447349 192.889728 
L 213.350825 192.623616 
L 213.511975 191.82528 
L 214.090347 191.559168 
L 214.221219 191.293056 
L 214.957225 190.760832 
L 215.242302 190.49472 
L 215.436758 189.696384 
L 216.082047 189.430272 
L 216.176757 189.16416 
L 216.401183 188.898048 
L 217.052949 188.631936 
L 217.141784 188.099712 
L 217.83078 187.8336 
L 217.912668 187.567488 
L 218.1781 187.301376 
L 219.229248 186.769152 
L 219.754581 186.236928 
L 219.777108 185.970816 
L 220.254208 185.704704 
L 220.397714 185.438592 
L 220.689145 185.17248 
L 220.900732 184.640256 
L 221.567218 184.374144 
L 224.279636 183.84192 
L 225.139633 183.309696 
L 225.366026 182.777472 
L 225.968493 182.51136 
L 226.171057 182.245248 
L 227.365546 181.979136 
L 227.642083 181.1808 
L 228.077015 180.914688 
L 228.144995 180.382464 
L 228.261669 180.116352 
L 228.748684 179.85024 
L 229.084435 179.318016 
L 229.865543 179.051904 
L 229.918596 178.785792 
L 231.729624 177.987456 
L 231.7834 177.455232 
L 232.200378 177.18912 
L 232.687478 176.124672 
L 233.535031 175.326336 
L 233.787894 174.794112 
L 234.515858 174.528 
L 234.909275 173.995776 
L 234.992576 173.463552 
L 236.747521 172.931328 
L 237.896251 172.132992 
L 237.932662 171.86688 
L 238.86805 171.334656 
L 238.96491 171.068544 
L 239.589236 170.802432 
L 239.694157 170.270208 
L 240.868265 169.471872 
L 241.018667 168.939648 
L 241.101984 168.407424 
L 241.977444 168.141312 
L 242.174554 167.8752 
L 243.054961 167.609088 
L 243.293995 167.076864 
L 243.641561 166.810752 
L 244.436017 166.54464 
L 246.504944 166.012416 
L 246.748249 165.480192 
L 247.749138 165.21408 
L 248.563793 163.88352 
L 248.690133 163.351296 
L 249.110594 162.55296 
L 249.492798 162.286848 
L 249.6571 162.020736 
L 250.404463 161.488512 
L 250.805954 161.2224 
L 251.038114 160.424064 
L 252.368905 160.157952 
L 252.821525 159.89184 
L 252.852074 159.625728 
L 253.258014 159.359616 
L 253.429936 159.093504 
L 253.930352 158.827392 
L 255.038538 158.56128 
L 255.435605 158.295168 
L 256.469557 158.029056 
L 256.654061 157.762944 
L 256.996529 157.496832 
L 257.996467 157.23072 
L 258.159315 156.964608 
L 258.491142 156.698496 
L 260.780781 156.432384 
L 260.811388 155.90016 
L 260.958379 155.634048 
L 261.336669 155.367936 
L 261.385806 155.101824 
L 261.790513 154.5696 
L 261.790712 154.303488 
L 261.975525 153.771264 
L 263.399825 152.972928 
L 263.967258 152.706816 
L 264.015298 152.440704 
L 264.374198 152.174592 
L 264.475197 151.642368 
L 264.777578 151.376256 
L 264.902712 151.110144 
L 265.434822 150.844032 
L 266.361494 150.57792 
L 266.568377 150.311808 
L 267.236326 150.045696 
L 267.411044 149.513472 
L 267.728896 148.981248 
L 268.833574 148.715136 
L 269.175557 148.449024 
L 269.707126 148.182912 
L 269.831505 147.9168 
L 270.188392 147.650688 
L 270.964139 147.384576 
L 271.703613 146.320128 
L 272.461144 146.054016 
L 272.67553 145.787904 
L 273.177467 145.521792 
L 275.114575 145.25568 
L 275.290087 144.989568 
L 278.204238 142.860672 
L 280.112545 142.59456 
L 280.122462 142.328448 
L 280.275118 141.796224 
L 280.302132 141.530112 
L 281.316457 140.465664 
L 281.346375 140.199552 
L 281.511121 139.93344 
L 282.381696 139.401216 
L 283.228754 139.135104 
L 283.275205 138.868992 
L 285.830381 138.336768 
L 286.576827 138.070656 
L 286.978926 137.27232 
L 286.987138 136.740096 
L 287.866921 136.473984 
L 288.192959 136.207872 
L 288.278757 135.675648 
L 288.781216 135.409536 
L 290.02497 135.143424 
L 290.703487 134.877312 
L 291.01802 134.6112 
L 291.176446 133.812864 
L 292.322771 133.546752 
L 292.513817 133.28064 
L 293.220042 133.014528 
L 293.36078 132.748416 
L 293.735747 132.482304 
L 295.376284 131.95008 
L 296.168636 131.151744 
L 297.233266 130.885632 
L 297.617233 130.61952 
L 297.740845 130.353408 
L 299.30853 129.821184 
L 300.472552 129.555072 
L 300.707065 129.28896 
L 302.311464 129.022848 
L 303.033724 128.490624 
L 303.870444 128.224512 
L 304.174048 127.9584 
L 304.195481 127.692288 
L 304.423595 127.426176 
L 305.085131 127.160064 
L 305.445302 126.893952 
L 306.344748 126.62784 
L 306.347753 126.361728 
L 307.735665 124.498944 
L 309.687895 124.232832 
L 310.071719 123.96672 
L 311.27484 123.434496 
L 311.536692 123.168384 
L 312.925524 122.902272 
L 312.927886 122.63616 
L 313.198872 122.370048 
L 313.275728 121.837824 
L 315.564405 120.773376 
L 315.603072 120.507264 
L 315.933163 120.241152 
L 318.347858 119.442816 
L 318.734943 119.176704 
L 319.823299 118.910592 
L 319.862582 118.64448 
L 320.342027 118.378368 
L 320.632938 117.846144 
L 321.076921 117.580032 
L 321.462145 116.781696 
L 322.014095 116.249472 
L 322.923157 115.717248 
L 325.239262 115.451136 
L 325.716166 115.185024 
L 326.594382 114.918912 
L 326.630715 114.6528 
L 326.886572 114.386688 
L 328.899517 113.32224 
L 329.198447 113.056128 
L 329.250396 112.790016 
L 329.808989 112.257792 
L 330.256798 111.99168 
L 330.449613 111.725568 
L 331.225346 111.459456 
L 331.268436 111.193344 
L 332.596379 110.66112 
L 333.71667 110.395008 
L 333.950704 110.128896 
L 335.453765 109.862784 
L 335.853881 109.33056 
L 336.7838 108.798336 
L 336.920532 108.532224 
L 336.922259 108.266112 
L 337.789276 108 
L 340.221843 107.733888 
L 340.899871 106.935552 
L 340.995899 106.66944 
L 342.285578 106.403328 
L 342.292841 106.137216 
L 343.610755 105.871104 
L 343.882076 105.604992 
L 343.892229 105.33888 
L 344.118741 105.072768 
L 345.673048 104.540544 
L 346.243474 104.274432 
L 346.352852 103.742208 
L 346.965615 103.476096 
L 347.001374 103.209984 
L 347.49035 102.67776 
L 348.481177 102.411648 
L 348.510349 102.145536 
L 349.228953 101.613312 
L 349.250866 101.3472 
L 349.416191 101.081088 
L 350.28879 100.814976 
L 350.901749 100.282752 
L 352.269557 99.750528 
L 352.3319 99.484416 
L 353.714986 98.68608 
L 353.715966 98.419968 
L 353.874856 98.153856 
L 354.430044 97.887744 
L 354.592706 97.621632 
L 354.925266 97.35552 
L 355.56777 97.089408 
L 355.820675 96.557184 
L 359.220405 95.226624 
L 359.233368 94.960512 
L 360.626266 94.162176 
L 360.627979 93.896064 
L 362.285816 92.03328 
L 362.936923 91.767168 
L 363.084053 91.501056 
L 364.345181 90.968832 
L 364.347077 90.70272 
L 364.472863 90.436608 
L 366.170638 90.170496 
L 366.79879 88.573824 
L 366.939938 88.0416 
L 367.135866 87.243264 
L 367.700262 86.178816 
L 368.028275 85.114368 
L 368.040624 84.582144 
L 368.181204 84.316032 
L 368.320222 83.517696 
L 368.588884 82.453248 
L 368.710602 81.654912 
L 368.877602 80.324352 
L 368.964367 78.195456 
L 369.039095 77.663232 
L 369.215877 65.42208 
L 369.216 41.472 
L 369.216 41.472 
" clip-path="url(#p0c09fcc0c2)" style="fill: none; stroke: #ff7f0e; stroke-width: 1.5; stroke-linecap: square"/>
   </g>
   <g id="line2d_26">
    <path d="M 103.104 307.584 
L 369.216 41.472 
" clip-path="url(#p0c09fcc0c2)" style="fill: none; stroke-dasharray: 5.55,2.4; stroke-dashoffset: 0; stroke: #000000; stroke-opacity: 0.5; stroke-width: 1.5"/>
   </g>
   <g id="patch_3">
    <path d="M 57.6 307.584 
L 57.6 41.472 
" style="fill: none; stroke: #ffffff; stroke-linejoin: miter; stroke-linecap: square"/>
   </g>
   <g id="patch_4">
    <path d="M 414.72 307.584 
L 414.72 41.472 
" style="fill: none; stroke: #ffffff; stroke-linejoin: miter; stroke-linecap: square"/>
   </g>
   <g id="patch_5">
    <path d="M 57.6 307.584 
L 414.72 307.584 
" style="fill: none; stroke: #ffffff; stroke-linejoin: miter; stroke-linecap: square"/>
   </g>
   <g id="patch_6">
    <path d="M 57.6 41.472 
L 414.72 41.472 
" style="fill: none; stroke: #ffffff; stroke-linejoin: miter; stroke-linecap: square"/>
   </g>
   <g id="text_15">
    <!-- Calibration curve -->
    <g transform="translate(174.5235 35.472)scale(0.144 -0.144)">
     <defs>
      <path id="DejaVuSans-43" d="M 4122 4306 
L 4122 3641 
Q 3803 3938 3442 4084 
Q 3081 4231 2675 4231 
Q 1875 4231 1450 3742 
Q 1025 3253 1025 2328 
Q 1025 1406 1450 917 
Q 1875 428 2675 428 
Q 3081 428 3442 575 
Q 3803 722 4122 1019 
L 4122 359 
Q 3791 134 3420 21 
Q 3050 -91 2638 -91 
Q 1578 -91 968 557 
Q 359 1206 359 2328 
Q 359 3453 968 4101 
Q 1578 4750 2638 4750 
Q 3056 4750 3426 4639 
Q 3797 4528 4122 4306 
z
" transform="scale(0.015625)"/>
      <path id="DejaVuSans-6e" d="M 3513 2113 
L 3513 0 
L 2938 0 
L 2938 2094 
Q 2938 2591 2744 2837 
Q 2550 3084 2163 3084 
Q 1697 3084 1428 2787 
Q 1159 2491 1159 1978 
L 1159 0 
L 581 0 
L 581 3500 
L 1159 3500 
L 1159 2956 
Q 1366 3272 1645 3428 
Q 1925 3584 2291 3584 
Q 2894 3584 3203 3211 
Q 3513 2838 3513 2113 
z
" transform="scale(0.015625)"/>
      <path id="DejaVuSans-75" d="M 544 1381 
L 544 3500 
L 1119 3500 
L 1119 1403 
Q 1119 906 1312 657 
Q 1506 409 1894 409 
Q 2359 409 2629 706 
Q 2900 1003 2900 1516 
L 2900 3500 
L 3475 3500 
L 3475 0 
L 2900 0 
L 2900 538 
Q 2691 219 2414 64 
Q 2138 -91 1772 -91 
Q 1169 -91 856 284 
Q 544 659 544 1381 
z
M 1991 3584 
L 1991 3584 
z
" transform="scale(0.015625)"/>
     </defs>
     <use xlink:href="#DejaVuSans-43"/>
     <use xlink:href="#DejaVuSans-61" x="69.824219"/>
     <use xlink:href="#DejaVuSans-6c" x="131.103516"/>
     <use xlink:href="#DejaVuSans-69" x="158.886719"/>
     <use xlink:href="#DejaVuSans-62" x="186.669922"/>
     <use xlink:href="#DejaVuSans-72" x="250.146484"/>
     <use xlink:href="#DejaVuSans-61" x="291.259766"/>
     <use xlink:href="#DejaVuSans-74" x="352.539062"/>
     <use xlink:href="#DejaVuSans-69" x="391.748047"/>
     <use xlink:href="#DejaVuSans-6f" x="419.53125"/>
     <use xlink:href="#DejaVuSans-6e" x="480.712891"/>
     <use xlink:href="#DejaVuSans-20" x="544.091797"/>
     <use xlink:href="#DejaVuSans-63" x="575.878906"/>
     <use xlink:href="#DejaVuSans-75" x="630.859375"/>
     <use xlink:href="#DejaVuSans-72" x="694.238281"/>
     <use xlink:href="#DejaVuSans-76" x="735.351562"/>
     <use xlink:href="#DejaVuSans-65" x="794.53125"/>
    </g>
   </g>
   <g id="legend_1">
    <g id="patch_7">
     <path d="M 64.6 78.82825 
L 182.20625 78.82825 
Q 184.20625 78.82825 184.20625 76.82825 
L 184.20625 48.472 
Q 184.20625 46.472 182.20625 46.472 
L 64.6 46.472 
Q 62.6 46.472 62.6 48.472 
L 62.6 76.82825 
Q 62.6 78.82825 64.6 78.82825 
z
" style="fill: #e5e5e5; opacity: 0.8; stroke: #cccccc; stroke-width: 0.5; stroke-linejoin: miter"/>
    </g>
    <g id="line2d_27">
     <path d="M 66.6 54.570437 
L 76.6 54.570437 
L 86.6 54.570437 
" style="fill: none; stroke: #ff7f0e; stroke-width: 1.5; stroke-linecap: square"/>
    </g>
    <g id="text_16">
     <!-- Calibration curve -->
     <g transform="translate(94.6 58.070437)scale(0.1 -0.1)">
      <use xlink:href="#DejaVuSans-43"/>
      <use xlink:href="#DejaVuSans-61" x="69.824219"/>
      <use xlink:href="#DejaVuSans-6c" x="131.103516"/>
      <use xlink:href="#DejaVuSans-69" x="158.886719"/>
      <use xlink:href="#DejaVuSans-62" x="186.669922"/>
      <use xlink:href="#DejaVuSans-72" x="250.146484"/>
      <use xlink:href="#DejaVuSans-61" x="291.259766"/>
      <use xlink:href="#DejaVuSans-74" x="352.539062"/>
      <use xlink:href="#DejaVuSans-69" x="391.748047"/>
      <use xlink:href="#DejaVuSans-6f" x="419.53125"/>
      <use xlink:href="#DejaVuSans-6e" x="480.712891"/>
      <use xlink:href="#DejaVuSans-20" x="544.091797"/>
      <use xlink:href="#DejaVuSans-63" x="575.878906"/>
      <use xlink:href="#DejaVuSans-75" x="630.859375"/>
      <use xlink:href="#DejaVuSans-72" x="694.238281"/>
      <use xlink:href="#DejaVuSans-76" x="735.351562"/>
      <use xlink:href="#DejaVuSans-65" x="794.53125"/>
     </g>
    </g>
    <g id="line2d_28">
     <path d="M 66.6 69.248562 
L 76.6 69.248562 
L 86.6 69.248562 
" style="fill: none; stroke-dasharray: 5.55,2.4; stroke-dashoffset: 0; stroke: #000000; stroke-opacity: 0.5; stroke-width: 1.5"/>
    </g>
    <g id="text_17">
     <!-- Ideal curve -->
     <g transform="translate(94.6 72.748562)scale(0.1 -0.1)">
      <defs>
       <path id="DejaVuSans-49" d="M 628 4666 
L 1259 4666 
L 1259 0 
L 628 0 
L 628 4666 
z
" transform="scale(0.015625)"/>
      </defs>
      <use xlink:href="#DejaVuSans-49"/>
      <use xlink:href="#DejaVuSans-64" x="29.492188"/>
      <use xlink:href="#DejaVuSans-65" x="92.96875"/>
      <use xlink:href="#DejaVuSans-61" x="154.492188"/>
      <use xlink:href="#DejaVuSans-6c" x="215.771484"/>
      <use xlink:href="#DejaVuSans-20" x="243.554688"/>
      <use xlink:href="#DejaVuSans-63" x="275.341797"/>
      <use xlink:href="#DejaVuSans-75" x="330.322266"/>
      <use xlink:href="#DejaVuSans-72" x="393.701172"/>
      <use xlink:href="#DejaVuSans-76" x="434.814453"/>
      <use xlink:href="#DejaVuSans-65" x="493.994141"/>
     </g>
    </g>
   </g>
  </g>
 </g>
 <defs>
  <clipPath id="p0c09fcc0c2">
   <rect x="57.6" y="41.472" width="357.12" height="266.112"/>
  </clipPath>
 </defs>
</svg>
