<?xml version="1.0" encoding="utf-8" standalone="no"?>
<!DOCTYPE svg PUBLIC "-//W3C//DTD SVG 1.1//EN"
  "http://www.w3.org/Graphics/SVG/1.1/DTD/svg11.dtd">
<svg xmlns:xlink="http://www.w3.org/1999/xlink" width="576pt" height="360pt" viewBox="0 0 576 360" xmlns="http://www.w3.org/2000/svg" version="1.1">
 <metadata>
  <rdf:RDF xmlns:dc="http://purl.org/dc/elements/1.1/" xmlns:cc="http://creativecommons.org/ns#" xmlns:rdf="http://www.w3.org/1999/02/22-rdf-syntax-ns#">
   <cc:Work>
    <dc:type rdf:resource="http://purl.org/dc/dcmitype/StillImage"/>
    <dc:date>2022-12-23T16:21:09.392620</dc:date>
    <dc:format>image/svg+xml</dc:format>
    <dc:creator>
     <cc:Agent>
      <dc:title>Matplotlib v3.5.3, https://matplotlib.org/</dc:title>
     </cc:Agent>
    </dc:creator>
   </cc:Work>
  </rdf:RDF>
 </metadata>
 <defs>
  <style type="text/css">*{stroke-linejoin: round; stroke-linecap: butt}</style>
 </defs>
 <g id="figure_1">
  <g id="patch_1">
   <path d="M 0 360 
L 576 360 
L 576 0 
L 0 0 
z
" style="fill: #ffffff"/>
  </g>
  <g id="axes_1">
   <g id="patch_2">
    <path d="M 72 320.4 
L 518.4 320.4 
L 518.4 43.2 
L 72 43.2 
z
" style="fill: #e5e5e5"/>
   </g>
   <g id="matplotlib.axis_1">
    <g id="xtick_1">
     <g id="line2d_1">
      <path d="M 92.290909 320.4 
L 92.290909 43.2 
" clip-path="url(#p77fcd0c556)" style="fill: none; stroke: #ffffff; stroke-width: 0.8; stroke-linecap: square"/>
     </g>
     <g id="line2d_2">
      <defs>
       <path id="ma94cc3008c" d="M 0 0 
L 0 3.5 
" style="stroke: #555555; stroke-width: 0.8"/>
      </defs>
      <g>
       <use xlink:href="#ma94cc3008c" x="92.290909" y="320.4" style="fill: #555555; stroke: #555555; stroke-width: 0.8"/>
      </g>
     </g>
     <g id="text_1">
      <!-- −0.5 -->
      <g style="fill: #555555" transform="translate(80.149503 334.998438)scale(0.1 -0.1)">
       <defs>
        <path id="DejaVuSans-2212" d="M 678 2272 
L 4684 2272 
L 4684 1741 
L 678 1741 
L 678 2272 
z
" transform="scale(0.015625)"/>
        <path id="DejaVuSans-30" d="M 2034 4250 
Q 1547 4250 1301 3770 
Q 1056 3291 1056 2328 
Q 1056 1369 1301 889 
Q 1547 409 2034 409 
Q 2525 409 2770 889 
Q 3016 1369 3016 2328 
Q 3016 3291 2770 3770 
Q 2525 4250 2034 4250 
z
M 2034 4750 
Q 2819 4750 3233 4129 
Q 3647 3509 3647 2328 
Q 3647 1150 3233 529 
Q 2819 -91 2034 -91 
Q 1250 -91 836 529 
Q 422 1150 422 2328 
Q 422 3509 836 4129 
Q 1250 4750 2034 4750 
z
" transform="scale(0.015625)"/>
        <path id="DejaVuSans-2e" d="M 684 794 
L 1344 794 
L 1344 0 
L 684 0 
L 684 794 
z
" transform="scale(0.015625)"/>
        <path id="DejaVuSans-35" d="M 691 4666 
L 3169 4666 
L 3169 4134 
L 1269 4134 
L 1269 2991 
Q 1406 3038 1543 3061 
Q 1681 3084 1819 3084 
Q 2600 3084 3056 2656 
Q 3513 2228 3513 1497 
Q 3513 744 3044 326 
Q 2575 -91 1722 -91 
Q 1428 -91 1123 -41 
Q 819 9 494 109 
L 494 744 
Q 775 591 1075 516 
Q 1375 441 1709 441 
Q 2250 441 2565 725 
Q 2881 1009 2881 1497 
Q 2881 1984 2565 2268 
Q 2250 2553 1709 2553 
Q 1456 2553 1204 2497 
Q 953 2441 691 2322 
L 691 4666 
z
" transform="scale(0.015625)"/>
       </defs>
       <use xlink:href="#DejaVuSans-2212"/>
       <use xlink:href="#DejaVuSans-30" x="83.789062"/>
       <use xlink:href="#DejaVuSans-2e" x="147.412109"/>
       <use xlink:href="#DejaVuSans-35" x="179.199219"/>
      </g>
     </g>
    </g>
    <g id="xtick_2">
     <g id="line2d_3">
      <path d="M 173.454545 320.4 
L 173.454545 43.2 
" clip-path="url(#p77fcd0c556)" style="fill: none; stroke: #ffffff; stroke-width: 0.8; stroke-linecap: square"/>
     </g>
     <g id="line2d_4">
      <g>
       <use xlink:href="#ma94cc3008c" x="173.454545" y="320.4" style="fill: #555555; stroke: #555555; stroke-width: 0.8"/>
      </g>
     </g>
     <g id="text_2">
      <!-- 0.0 -->
      <g style="fill: #555555" transform="translate(165.502983 334.998438)scale(0.1 -0.1)">
       <use xlink:href="#DejaVuSans-30"/>
       <use xlink:href="#DejaVuSans-2e" x="63.623047"/>
       <use xlink:href="#DejaVuSans-30" x="95.410156"/>
      </g>
     </g>
    </g>
    <g id="xtick_3">
     <g id="line2d_5">
      <path d="M 254.618182 320.4 
L 254.618182 43.2 
" clip-path="url(#p77fcd0c556)" style="fill: none; stroke: #ffffff; stroke-width: 0.8; stroke-linecap: square"/>
     </g>
     <g id="line2d_6">
      <g>
       <use xlink:href="#ma94cc3008c" x="254.618182" y="320.4" style="fill: #555555; stroke: #555555; stroke-width: 0.8"/>
      </g>
     </g>
     <g id="text_3">
      <!-- 0.5 -->
      <g style="fill: #555555" transform="translate(246.666619 334.998438)scale(0.1 -0.1)">
       <use xlink:href="#DejaVuSans-30"/>
       <use xlink:href="#DejaVuSans-2e" x="63.623047"/>
       <use xlink:href="#DejaVuSans-35" x="95.410156"/>
      </g>
     </g>
    </g>
    <g id="xtick_4">
     <g id="line2d_7">
      <path d="M 335.781818 320.4 
L 335.781818 43.2 
" clip-path="url(#p77fcd0c556)" style="fill: none; stroke: #ffffff; stroke-width: 0.8; stroke-linecap: square"/>
     </g>
     <g id="line2d_8">
      <g>
       <use xlink:href="#ma94cc3008c" x="335.781818" y="320.4" style="fill: #555555; stroke: #555555; stroke-width: 0.8"/>
      </g>
     </g>
     <g id="text_4">
      <!-- 1.0 -->
      <g style="fill: #555555" transform="translate(327.830256 334.998438)scale(0.1 -0.1)">
       <defs>
        <path id="DejaVuSans-31" d="M 794 531 
L 1825 531 
L 1825 4091 
L 703 3866 
L 703 4441 
L 1819 4666 
L 2450 4666 
L 2450 531 
L 3481 531 
L 3481 0 
L 794 0 
L 794 531 
z
" transform="scale(0.015625)"/>
       </defs>
       <use xlink:href="#DejaVuSans-31"/>
       <use xlink:href="#DejaVuSans-2e" x="63.623047"/>
       <use xlink:href="#DejaVuSans-30" x="95.410156"/>
      </g>
     </g>
    </g>
    <g id="xtick_5">
     <g id="line2d_9">
      <path d="M 416.945455 320.4 
L 416.945455 43.2 
" clip-path="url(#p77fcd0c556)" style="fill: none; stroke: #ffffff; stroke-width: 0.8; stroke-linecap: square"/>
     </g>
     <g id="line2d_10">
      <g>
       <use xlink:href="#ma94cc3008c" x="416.945455" y="320.4" style="fill: #555555; stroke: #555555; stroke-width: 0.8"/>
      </g>
     </g>
     <g id="text_5">
      <!-- 1.5 -->
      <g style="fill: #555555" transform="translate(408.993892 334.998438)scale(0.1 -0.1)">
       <use xlink:href="#DejaVuSans-31"/>
       <use xlink:href="#DejaVuSans-2e" x="63.623047"/>
       <use xlink:href="#DejaVuSans-35" x="95.410156"/>
      </g>
     </g>
    </g>
    <g id="xtick_6">
     <g id="line2d_11">
      <path d="M 498.109091 320.4 
L 498.109091 43.2 
" clip-path="url(#p77fcd0c556)" style="fill: none; stroke: #ffffff; stroke-width: 0.8; stroke-linecap: square"/>
     </g>
     <g id="line2d_12">
      <g>
       <use xlink:href="#ma94cc3008c" x="498.109091" y="320.4" style="fill: #555555; stroke: #555555; stroke-width: 0.8"/>
      </g>
     </g>
     <g id="text_6">
      <!-- 2.0 -->
      <g style="fill: #555555" transform="translate(490.157528 334.998438)scale(0.1 -0.1)">
       <defs>
        <path id="DejaVuSans-32" d="M 1228 531 
L 3431 531 
L 3431 0 
L 469 0 
L 469 531 
Q 828 903 1448 1529 
Q 2069 2156 2228 2338 
Q 2531 2678 2651 2914 
Q 2772 3150 2772 3378 
Q 2772 3750 2511 3984 
Q 2250 4219 1831 4219 
Q 1534 4219 1204 4116 
Q 875 4013 500 3803 
L 500 4441 
Q 881 4594 1212 4672 
Q 1544 4750 1819 4750 
Q 2544 4750 2975 4387 
Q 3406 4025 3406 3419 
Q 3406 3131 3298 2873 
Q 3191 2616 2906 2266 
Q 2828 2175 2409 1742 
Q 1991 1309 1228 531 
z
" transform="scale(0.015625)"/>
       </defs>
       <use xlink:href="#DejaVuSans-32"/>
       <use xlink:href="#DejaVuSans-2e" x="63.623047"/>
       <use xlink:href="#DejaVuSans-30" x="95.410156"/>
      </g>
     </g>
    </g>
   </g>
   <g id="matplotlib.axis_2">
    <g id="ytick_1">
     <g id="line2d_13">
      <path d="M 72 309.374187 
L 518.4 309.374187 
" clip-path="url(#p77fcd0c556)" style="fill: none; stroke: #ffffff; stroke-width: 0.8; stroke-linecap: square"/>
     </g>
     <g id="line2d_14">
      <defs>
       <path id="m721d740082" d="M 0 0 
L -3.5 0 
" style="stroke: #555555; stroke-width: 0.8"/>
      </defs>
      <g>
       <use xlink:href="#m721d740082" x="72" y="309.374187" style="fill: #555555; stroke: #555555; stroke-width: 0.8"/>
      </g>
     </g>
     <g id="text_7">
      <!-- −0.075 -->
      <g style="fill: #555555" transform="translate(27.992188 313.173406)scale(0.1 -0.1)">
       <defs>
        <path id="DejaVuSans-37" d="M 525 4666 
L 3525 4666 
L 3525 4397 
L 1831 0 
L 1172 0 
L 2766 4134 
L 525 4134 
L 525 4666 
z
" transform="scale(0.015625)"/>
       </defs>
       <use xlink:href="#DejaVuSans-2212"/>
       <use xlink:href="#DejaVuSans-30" x="83.789062"/>
       <use xlink:href="#DejaVuSans-2e" x="147.412109"/>
       <use xlink:href="#DejaVuSans-30" x="179.199219"/>
       <use xlink:href="#DejaVuSans-37" x="242.822266"/>
       <use xlink:href="#DejaVuSans-35" x="306.445312"/>
      </g>
     </g>
    </g>
    <g id="ytick_2">
     <g id="line2d_15">
      <path d="M 72 277.277764 
L 518.4 277.277764 
" clip-path="url(#p77fcd0c556)" style="fill: none; stroke: #ffffff; stroke-width: 0.8; stroke-linecap: square"/>
     </g>
     <g id="line2d_16">
      <g>
       <use xlink:href="#m721d740082" x="72" y="277.277764" style="fill: #555555; stroke: #555555; stroke-width: 0.8"/>
      </g>
     </g>
     <g id="text_8">
      <!-- −0.050 -->
      <g style="fill: #555555" transform="translate(27.992188 281.076983)scale(0.1 -0.1)">
       <use xlink:href="#DejaVuSans-2212"/>
       <use xlink:href="#DejaVuSans-30" x="83.789062"/>
       <use xlink:href="#DejaVuSans-2e" x="147.412109"/>
       <use xlink:href="#DejaVuSans-30" x="179.199219"/>
       <use xlink:href="#DejaVuSans-35" x="242.822266"/>
       <use xlink:href="#DejaVuSans-30" x="306.445312"/>
      </g>
     </g>
    </g>
    <g id="ytick_3">
     <g id="line2d_17">
      <path d="M 72 245.181341 
L 518.4 245.181341 
" clip-path="url(#p77fcd0c556)" style="fill: none; stroke: #ffffff; stroke-width: 0.8; stroke-linecap: square"/>
     </g>
     <g id="line2d_18">
      <g>
       <use xlink:href="#m721d740082" x="72" y="245.181341" style="fill: #555555; stroke: #555555; stroke-width: 0.8"/>
      </g>
     </g>
     <g id="text_9">
      <!-- −0.025 -->
      <g style="fill: #555555" transform="translate(27.992188 248.98056)scale(0.1 -0.1)">
       <use xlink:href="#DejaVuSans-2212"/>
       <use xlink:href="#DejaVuSans-30" x="83.789062"/>
       <use xlink:href="#DejaVuSans-2e" x="147.412109"/>
       <use xlink:href="#DejaVuSans-30" x="179.199219"/>
       <use xlink:href="#DejaVuSans-32" x="242.822266"/>
       <use xlink:href="#DejaVuSans-35" x="306.445312"/>
      </g>
     </g>
    </g>
    <g id="ytick_4">
     <g id="line2d_19">
      <path d="M 72 213.084918 
L 518.4 213.084918 
" clip-path="url(#p77fcd0c556)" style="fill: none; stroke: #ffffff; stroke-width: 0.8; stroke-linecap: square"/>
     </g>
     <g id="line2d_20">
      <g>
       <use xlink:href="#m721d740082" x="72" y="213.084918" style="fill: #555555; stroke: #555555; stroke-width: 0.8"/>
      </g>
     </g>
     <g id="text_10">
      <!-- 0.000 -->
      <g style="fill: #555555" transform="translate(36.371875 216.884137)scale(0.1 -0.1)">
       <use xlink:href="#DejaVuSans-30"/>
       <use xlink:href="#DejaVuSans-2e" x="63.623047"/>
       <use xlink:href="#DejaVuSans-30" x="95.410156"/>
       <use xlink:href="#DejaVuSans-30" x="159.033203"/>
       <use xlink:href="#DejaVuSans-30" x="222.65625"/>
      </g>
     </g>
    </g>
    <g id="ytick_5">
     <g id="line2d_21">
      <path d="M 72 180.988495 
L 518.4 180.988495 
" clip-path="url(#p77fcd0c556)" style="fill: none; stroke: #ffffff; stroke-width: 0.8; stroke-linecap: square"/>
     </g>
     <g id="line2d_22">
      <g>
       <use xlink:href="#m721d740082" x="72" y="180.988495" style="fill: #555555; stroke: #555555; stroke-width: 0.8"/>
      </g>
     </g>
     <g id="text_11">
      <!-- 0.025 -->
      <g style="fill: #555555" transform="translate(36.371875 184.787714)scale(0.1 -0.1)">
       <use xlink:href="#DejaVuSans-30"/>
       <use xlink:href="#DejaVuSans-2e" x="63.623047"/>
       <use xlink:href="#DejaVuSans-30" x="95.410156"/>
       <use xlink:href="#DejaVuSans-32" x="159.033203"/>
       <use xlink:href="#DejaVuSans-35" x="222.65625"/>
      </g>
     </g>
    </g>
    <g id="ytick_6">
     <g id="line2d_23">
      <path d="M 72 148.892072 
L 518.4 148.892072 
" clip-path="url(#p77fcd0c556)" style="fill: none; stroke: #ffffff; stroke-width: 0.8; stroke-linecap: square"/>
     </g>
     <g id="line2d_24">
      <g>
       <use xlink:href="#m721d740082" x="72" y="148.892072" style="fill: #555555; stroke: #555555; stroke-width: 0.8"/>
      </g>
     </g>
     <g id="text_12">
      <!-- 0.050 -->
      <g style="fill: #555555" transform="translate(36.371875 152.691291)scale(0.1 -0.1)">
       <use xlink:href="#DejaVuSans-30"/>
       <use xlink:href="#DejaVuSans-2e" x="63.623047"/>
       <use xlink:href="#DejaVuSans-30" x="95.410156"/>
       <use xlink:href="#DejaVuSans-35" x="159.033203"/>
       <use xlink:href="#DejaVuSans-30" x="222.65625"/>
      </g>
     </g>
    </g>
    <g id="ytick_7">
     <g id="line2d_25">
      <path d="M 72 116.795649 
L 518.4 116.795649 
" clip-path="url(#p77fcd0c556)" style="fill: none; stroke: #ffffff; stroke-width: 0.8; stroke-linecap: square"/>
     </g>
     <g id="line2d_26">
      <g>
       <use xlink:href="#m721d740082" x="72" y="116.795649" style="fill: #555555; stroke: #555555; stroke-width: 0.8"/>
      </g>
     </g>
     <g id="text_13">
      <!-- 0.075 -->
      <g style="fill: #555555" transform="translate(36.371875 120.594868)scale(0.1 -0.1)">
       <use xlink:href="#DejaVuSans-30"/>
       <use xlink:href="#DejaVuSans-2e" x="63.623047"/>
       <use xlink:href="#DejaVuSans-30" x="95.410156"/>
       <use xlink:href="#DejaVuSans-37" x="159.033203"/>
       <use xlink:href="#DejaVuSans-35" x="222.65625"/>
      </g>
     </g>
    </g>
    <g id="ytick_8">
     <g id="line2d_27">
      <path d="M 72 84.699226 
L 518.4 84.699226 
" clip-path="url(#p77fcd0c556)" style="fill: none; stroke: #ffffff; stroke-width: 0.8; stroke-linecap: square"/>
     </g>
     <g id="line2d_28">
      <g>
       <use xlink:href="#m721d740082" x="72" y="84.699226" style="fill: #555555; stroke: #555555; stroke-width: 0.8"/>
      </g>
     </g>
     <g id="text_14">
      <!-- 0.100 -->
      <g style="fill: #555555" transform="translate(36.371875 88.498445)scale(0.1 -0.1)">
       <use xlink:href="#DejaVuSans-30"/>
       <use xlink:href="#DejaVuSans-2e" x="63.623047"/>
       <use xlink:href="#DejaVuSans-31" x="95.410156"/>
       <use xlink:href="#DejaVuSans-30" x="159.033203"/>
       <use xlink:href="#DejaVuSans-30" x="222.65625"/>
      </g>
     </g>
    </g>
    <g id="ytick_9">
     <g id="line2d_29">
      <path d="M 72 52.602804 
L 518.4 52.602804 
" clip-path="url(#p77fcd0c556)" style="fill: none; stroke: #ffffff; stroke-width: 0.8; stroke-linecap: square"/>
     </g>
     <g id="line2d_30">
      <g>
       <use xlink:href="#m721d740082" x="72" y="52.602804" style="fill: #555555; stroke: #555555; stroke-width: 0.8"/>
      </g>
     </g>
     <g id="text_15">
      <!-- 0.125 -->
      <g style="fill: #555555" transform="translate(36.371875 56.402022)scale(0.1 -0.1)">
       <use xlink:href="#DejaVuSans-30"/>
       <use xlink:href="#DejaVuSans-2e" x="63.623047"/>
       <use xlink:href="#DejaVuSans-31" x="95.410156"/>
       <use xlink:href="#DejaVuSans-32" x="159.033203"/>
       <use xlink:href="#DejaVuSans-35" x="222.65625"/>
      </g>
     </g>
    </g>
   </g>
   <g id="PolyCollection_1">
    <defs>
     <path id="m99ee2e47ac" d="M 92.290909 -104.101775 
L 92.290909 -189.728389 
L 92.697133 -189.7284 
L 93.103357 -189.728348 
L 93.509582 -189.728357 
L 93.915806 -189.728325 
L 94.32203 -189.728243 
L 94.728254 -189.728236 
L 95.134478 -189.728248 
L 95.540702 -189.72828 
L 95.946927 -189.728294 
L 96.353151 -189.7281 
L 96.759375 -189.72812 
L 97.165599 -189.728058 
L 97.571823 -189.728059 
L 97.978047 -189.728029 
L 98.384272 -189.728053 
L 98.790501 -189.727939 
L 99.196725 -189.727953 
L 99.602949 -189.727871 
L 100.009173 -189.727812 
L 100.415397 -189.727795 
L 100.821621 -189.727754 
L 101.227846 -189.727708 
L 101.63407 -189.727723 
L 102.040294 -189.727655 
L 102.446518 -189.727646 
L 102.852742 -189.727545 
L 103.258966 -189.727526 
L 103.665191 -189.72751 
L 104.071415 -189.727445 
L 104.477639 -189.727367 
L 104.883863 -189.727316 
L 105.290092 -189.727317 
L 105.696316 -189.727233 
L 106.10254 -189.727138 
L 106.508765 -189.727144 
L 106.914989 -189.727018 
L 107.321213 -189.727065 
L 107.727437 -189.727 
L 108.133661 -189.726835 
L 108.539885 -189.726768 
L 108.946109 -189.726767 
L 109.352334 -189.726675 
L 109.758558 -189.726659 
L 110.164782 -189.726558 
L 110.571006 -189.726538 
L 110.97723 -189.726444 
L 111.383454 -189.72638 
L 111.789679 -189.726276 
L 112.195903 -189.726198 
L 112.602127 -189.726118 
L 113.008351 -189.72601 
L 113.414575 -189.725985 
L 113.820799 -189.725904 
L 114.227024 -189.725832 
L 114.633248 -189.725755 
L 115.039472 -189.725715 
L 115.445696 -189.725618 
L 115.85192 -189.725458 
L 116.258144 -189.725379 
L 116.664369 -189.725299 
L 117.070593 -189.7252 
L 117.476817 -189.725126 
L 117.883041 -189.725033 
L 118.28927 -189.724926 
L 118.695494 -189.724735 
L 119.101718 -189.724683 
L 119.507943 -189.72462 
L 119.914167 -189.724486 
L 120.320391 -189.724332 
L 120.726615 -189.724206 
L 121.132839 -189.724176 
L 121.539068 -189.723983 
L 121.945292 -189.723935 
L 122.351517 -189.723799 
L 122.757741 -189.72372 
L 123.163965 -189.723588 
L 123.570189 -189.723425 
L 123.976413 -189.723286 
L 124.382637 -189.72316 
L 124.788862 -189.722998 
L 125.195086 -189.722878 
L 125.60131 -189.72282 
L 126.007534 -189.722581 
L 126.413758 -189.72244 
L 126.819982 -189.722255 
L 127.226207 -189.722075 
L 127.632431 -189.721955 
L 128.038655 -189.72173 
L 128.444879 -189.721591 
L 128.851103 -189.721469 
L 129.257327 -189.721297 
L 129.663552 -189.721048 
L 130.069776 -189.720779 
L 130.476 -189.720582 
L 130.882224 -189.720429 
L 131.288448 -189.72026 
L 131.694672 -189.720036 
L 132.100897 -189.719868 
L 132.507121 -189.719682 
L 132.913345 -189.719461 
L 133.319569 -189.719149 
L 133.725796 -189.718964 
L 134.13202 -189.718751 
L 134.538246 -189.718542 
L 134.944471 -189.718332 
L 135.350695 -189.71802 
L 135.756919 -189.717799 
L 136.163143 -189.71746 
L 136.569367 -189.717326 
L 136.975594 -189.717013 
L 137.381818 -189.716781 
L 137.78804 -189.716552 
L 138.194264 -189.716294 
L 138.600488 -189.715925 
L 139.006712 -189.715633 
L 139.412936 -189.715232 
L 139.81916 -189.715066 
L 140.225387 -189.714686 
L 140.631611 -189.714356 
L 141.037838 -189.713955 
L 141.444062 -189.713608 
L 141.850286 -189.713307 
L 142.25651 -189.712983 
L 142.662734 -189.71263 
L 143.068959 -189.712145 
L 143.475185 -189.711803 
L 143.881409 -189.711424 
L 144.287631 -189.711045 
L 144.693855 -189.710711 
L 145.100079 -189.710233 
L 145.506304 -189.709877 
L 145.912528 -189.709461 
L 146.318752 -189.709034 
L 146.724979 -189.708491 
L 147.131203 -189.708153 
L 147.537424 -189.707558 
L 147.943649 -189.707182 
L 148.349873 -189.706623 
L 148.756097 -189.706126 
L 149.162321 -189.705547 
L 149.568545 -189.705104 
L 149.974772 -189.704473 
L 150.380996 -189.704045 
L 150.787223 -189.703434 
L 151.193447 -189.702956 
L 151.599671 -189.702399 
L 152.005895 -189.701811 
L 152.412119 -189.701242 
L 152.818343 -189.700465 
L 153.224569 -189.699947 
L 153.630793 -189.699203 
L 154.037016 -189.698507 
L 154.44324 -189.697913 
L 154.849464 -189.697097 
L 155.25569 -189.696384 
L 155.661914 -189.695806 
L 156.068138 -189.695142 
L 156.474362 -189.694385 
L 156.880586 -189.693674 
L 157.286814 -189.692872 
L 157.693038 -189.691947 
L 158.099262 -189.691128 
L 158.505488 -189.690296 
L 158.911712 -189.689515 
L 159.317936 -189.688585 
L 159.72416 -189.687636 
L 160.130384 -189.686909 
L 160.536607 -189.685901 
L 160.942832 -189.685006 
L 161.349056 -189.684026 
L 161.755281 -189.683013 
L 162.161505 -189.681939 
L 162.567729 -189.681027 
L 162.973954 -189.67994 
L 163.380178 -189.678806 
L 163.786401 -189.677794 
L 164.192625 -189.676616 
L 164.59885 -189.675549 
L 165.005074 -189.674196 
L 165.411299 -189.673161 
L 165.817523 -189.671941 
L 166.223747 -189.670673 
L 166.629971 -189.669372 
L 167.036199 -189.66801 
L 167.442423 -189.666741 
L 167.848648 -189.665329 
L 168.254872 -189.664069 
L 168.661096 -189.662577 
L 169.067321 -189.661204 
L 169.473545 -189.659775 
L 169.879769 -189.658113 
L 170.285992 -189.656603 
L 170.692217 -189.655148 
L 171.098441 -189.653429 
L 171.504665 -189.651834 
L 171.91089 -189.650194 
L 172.317114 -189.64839 
L 172.723338 -189.646655 
L 173.129563 -189.644994 
L 173.53579 -189.643141 
L 173.942015 -189.641222 
L 174.348239 -189.639248 
L 174.754463 -189.63744 
L 175.160688 -189.635396 
L 175.566912 -189.6335 
L 175.973137 -189.631318 
L 176.379361 -189.629167 
L 176.785584 -189.627013 
L 177.191808 -189.624875 
L 177.598033 -189.622467 
L 178.004257 -189.620197 
L 178.410481 -189.617922 
L 178.816706 -189.615548 
L 179.22293 -189.613124 
L 179.629154 -189.610714 
L 180.035377 -189.608029 
L 180.441601 -189.605507 
L 180.847826 -189.602842 
L 181.25405 -189.600034 
L 181.660275 -189.597159 
L 182.066499 -189.594524 
L 182.472723 -189.591532 
L 182.878947 -189.588552 
L 183.28517 -189.58552 
L 183.691394 -189.582565 
L 184.097619 -189.579421 
L 184.503844 -189.576109 
L 184.910068 -189.572906 
L 185.316292 -189.569414 
L 185.722516 -189.56607 
L 186.128741 -189.562656 
L 186.534964 -189.558947 
L 186.941188 -189.555358 
L 187.347412 -189.551736 
L 187.753637 -189.547782 
L 188.159861 -189.544054 
L 188.566086 -189.540026 
L 188.97231 -189.535877 
L 189.378534 -189.531855 
L 189.784767 -189.527597 
L 190.190991 -189.523398 
L 190.597215 -189.518876 
L 191.00344 -189.514538 
L 191.409664 -189.509936 
L 191.815889 -189.50522 
L 192.222113 -189.500514 
L 192.628337 -189.49551 
L 193.03456 -189.490657 
L 193.440784 -189.485427 
L 193.847008 -189.480404 
L 194.253232 -189.475098 
L 194.659456 -189.469645 
L 195.065681 -189.464153 
L 195.471907 -189.458497 
L 195.878131 -189.452797 
L 196.284353 -189.44695 
L 196.690577 -189.440899 
L 197.096801 -189.434853 
L 197.503026 -189.428534 
L 197.90925 -189.422269 
L 198.315474 -189.415703 
L 198.721701 -189.40913 
L 199.127925 -189.402345 
L 199.534146 -189.395442 
L 199.940371 -189.388391 
L 200.346595 -189.381221 
L 200.752819 -189.373908 
L 201.159043 -189.366396 
L 201.565267 -189.358657 
L 201.971494 -189.350954 
L 202.377718 -189.343024 
L 202.78394 -189.33478 
L 203.190164 -189.326505 
L 203.596388 -189.318159 
L 204.002612 -189.309399 
L 204.408836 -189.300626 
L 204.815061 -189.291733 
L 205.221287 -189.282536 
L 205.627511 -189.273187 
L 206.033743 -189.263574 
L 206.439967 -189.253874 
L 206.846191 -189.243866 
L 207.252415 -189.233858 
L 207.658639 -189.223494 
L 208.064864 -189.212845 
L 208.47109 -189.202142 
L 208.877314 -189.19121 
L 209.283536 -189.180072 
L 209.68976 -189.16854 
L 210.095984 -189.156952 
L 210.502209 -189.145093 
L 210.908433 -189.132908 
L 211.314657 -189.120536 
L 211.720883 -189.108006 
L 212.127108 -189.09515 
L 212.533329 -189.082042 
L 212.939554 -189.068652 
L 213.345778 -189.055087 
L 213.752002 -189.04115 
L 214.158226 -189.026996 
L 214.56445 -189.012673 
L 214.970674 -188.997937 
L 215.376899 -188.982828 
L 215.783123 -188.967593 
L 216.189347 -188.951933 
L 216.595571 -188.936095 
L 217.001795 -188.91989 
L 217.408019 -188.903317 
L 217.814244 -188.886422 
L 218.220468 -188.869208 
L 218.626692 -188.851698 
L 219.032916 -188.833443 
L 219.43914 -188.814863 
L 219.845364 -188.794554 
L 220.251589 -188.771625 
L 220.657813 -188.742502 
L 221.064037 -188.698637 
L 221.470261 -188.619267 
L 221.876485 -188.45437 
L 222.282719 -188.085744 
L 222.688943 -187.248506 
L 223.095167 -185.42211 
L 223.501391 -181.888587 
L 223.907616 -176.541507 
L 224.31384 -171.213296 
L 224.720064 -168.212784 
L 225.126288 -167.267472 
L 225.532512 -167.080196 
L 225.938736 -167.060727 
L 226.344961 -167.066959 
L 226.751185 -167.074765 
L 227.157409 -167.081561 
L 227.563633 -167.087584 
L 227.969857 -167.093412 
L 228.376081 -167.09926 
L 228.782306 -167.105155 
L 229.18853 -167.111119 
L 229.594754 -167.117286 
L 230.000978 -167.123575 
L 230.407202 -167.130083 
L 230.813426 -167.136755 
L 231.219651 -167.143661 
L 231.625875 -167.15062 
L 232.032099 -167.157988 
L 232.438323 -167.165378 
L 232.844547 -167.17308 
L 233.250771 -167.181023 
L 233.656996 -167.188991 
L 234.06322 -167.197401 
L 234.469444 -167.206026 
L 234.875668 -167.21488 
L 235.281892 -167.223854 
L 235.688116 -167.233263 
L 236.094341 -167.242889 
L 236.500565 -167.252863 
L 236.906789 -167.263106 
L 237.313013 -167.273721 
L 237.719237 -167.284669 
L 238.125461 -167.295965 
L 238.531686 -167.307427 
L 238.93791 -167.319464 
L 239.344134 -167.331685 
L 239.750358 -167.344331 
L 240.156582 -167.357555 
L 240.562806 -167.371028 
L 240.969031 -167.384943 
L 241.375255 -167.39929 
L 241.781489 -167.414044 
L 242.187713 -167.42935 
L 242.593937 -167.445041 
L 243.000161 -167.46125 
L 243.406385 -167.478123 
L 243.812609 -167.495285 
L 244.218834 -167.51305 
L 244.625058 -167.531516 
L 245.031282 -167.550451 
L 245.437506 -167.569976 
L 245.84373 -167.590144 
L 246.249954 -167.610844 
L 246.656179 -167.6324 
L 247.062403 -167.654554 
L 247.468627 -167.677373 
L 247.874851 -167.700913 
L 248.281075 -167.725163 
L 248.687299 -167.750148 
L 249.093524 -167.77596 
L 249.499748 -167.802516 
L 249.905972 -167.829907 
L 250.312196 -167.858139 
L 250.71842 -167.887168 
L 251.124644 -167.917136 
L 251.530868 -167.947973 
L 251.937093 -167.979813 
L 252.343317 -168.01259 
L 252.749541 -168.046137 
L 253.155765 -168.080975 
L 253.561989 -168.116552 
L 253.968213 -168.153269 
L 254.374438 -168.191177 
L 254.780671 -168.229939 
L 255.186896 -168.27007 
L 255.59312 -168.311161 
L 255.999344 -168.353404 
L 256.405568 -168.396908 
L 256.811792 -168.441528 
L 257.218016 -168.487343 
L 257.624241 -168.534532 
L 258.030465 -168.582919 
L 258.436689 -168.632575 
L 258.842913 -168.683518 
L 259.249137 -168.735751 
L 259.655361 -168.789449 
L 260.061586 -168.844436 
L 260.46781 -168.900904 
L 260.874034 -168.958709 
L 261.280258 -169.018008 
L 261.686482 -169.078603 
L 262.092706 -169.140716 
L 262.498931 -169.204355 
L 262.905155 -169.269511 
L 263.311379 -169.336069 
L 263.717603 -169.404099 
L 264.123827 -169.473793 
L 264.530051 -169.54494 
L 264.936276 -169.617602 
L 265.3425 -169.691855 
L 265.748724 -169.76769 
L 266.154948 -169.845209 
L 266.561172 -169.924068 
L 266.967396 -170.004745 
L 267.373621 -170.086759 
L 267.779845 -170.170509 
L 268.186069 -170.255765 
L 268.592293 -170.342592 
L 268.998517 -170.431225 
L 269.404741 -170.521136 
L 269.810966 -170.612726 
L 270.21719 -170.70587 
L 270.623414 -170.800653 
L 271.029638 -170.896922 
L 271.435862 -170.994643 
L 271.842086 -171.093893 
L 272.248311 -171.194629 
L 272.654535 -171.296986 
L 273.060759 -171.400676 
L 273.466983 -171.505791 
L 273.873207 -171.612208 
L 274.279431 -171.720268 
L 274.685656 -171.829649 
L 275.09188 -171.940263 
L 275.498104 -172.052275 
L 275.904328 -172.165648 
L 276.310552 -172.280136 
L 276.716776 -172.395961 
L 277.123001 -172.512933 
L 277.529225 -172.631079 
L 277.935449 -172.750335 
L 278.341673 -172.87067 
L 278.747897 -172.992121 
L 279.154121 -173.114654 
L 279.560345 -173.237867 
L 279.96657 -173.362401 
L 280.372794 -173.487614 
L 280.779018 -173.613669 
L 281.185242 -173.740529 
L 281.591466 -173.868129 
L 281.99769 -173.996643 
L 282.403915 -174.125744 
L 282.810139 -174.255224 
L 283.216363 -174.385758 
L 283.622587 -174.51676 
L 284.028831 -174.647971 
L 284.435055 -174.779847 
L 284.841279 -174.912012 
L 285.247503 -175.044497 
L 285.653727 -175.177448 
L 286.059951 -175.310795 
L 286.466176 -175.444097 
L 286.8724 -175.577839 
L 287.278624 -175.711524 
L 287.684848 -175.845418 
L 288.091072 -175.979229 
L 288.497296 -176.113273 
L 288.903521 -176.247128 
L 289.309745 -176.380999 
L 289.715969 -176.514815 
L 290.122193 -176.648378 
L 290.528417 -176.781789 
L 290.934641 -176.915006 
L 291.340866 -177.047975 
L 291.74709 -177.180681 
L 292.153314 -177.312955 
L 292.559538 -177.444877 
L 292.965762 -177.576583 
L 293.371986 -177.70759 
L 293.778211 -177.838511 
L 294.184435 -177.968754 
L 294.590659 -178.098522 
L 294.996883 -178.227689 
L 295.403107 -178.356425 
L 295.809331 -178.484546 
L 296.215556 -178.612155 
L 296.62178 -178.73896 
L 297.028023 -178.865252 
L 297.434247 -178.990904 
L 297.840472 -179.115914 
L 298.246696 -179.240294 
L 298.65292 -179.363662 
L 299.059144 -179.486612 
L 299.465368 -179.608828 
L 299.871592 -179.730215 
L 300.277817 -179.851025 
L 300.684041 -179.971028 
L 301.090265 -180.090354 
L 301.496489 -180.208742 
L 301.902713 -180.326443 
L 302.308937 -180.443394 
L 302.715162 -180.559602 
L 303.121386 -180.674922 
L 303.52761 -180.789712 
L 303.933834 -180.903503 
L 304.340058 -181.016702 
L 304.746282 -181.129048 
L 305.152507 -181.240623 
L 305.558731 -181.351407 
L 305.964955 -181.461445 
L 306.371179 -181.570781 
L 306.777403 -181.679275 
L 307.183627 -181.78717 
L 307.589852 -181.894177 
L 307.996076 -182.000485 
L 308.4023 -182.106108 
L 308.808524 -182.210946 
L 309.214748 -182.314983 
L 309.620972 -182.41847 
L 310.027197 -182.521153 
L 310.433421 -182.623082 
L 310.839645 -182.724465 
L 311.245869 -182.82496 
L 311.652093 -182.924886 
L 312.058317 -183.024125 
L 312.464541 -183.122606 
L 312.870766 -183.220645 
L 313.27699 -183.317731 
L 313.683214 -183.414334 
L 314.089438 -183.510214 
L 314.495662 -183.605496 
L 314.901886 -183.700032 
L 315.308111 -183.793949 
L 315.714335 -183.887385 
L 316.120559 -183.980067 
L 316.526783 -184.072167 
L 316.933007 -184.163553 
L 317.339231 -184.254451 
L 317.745456 -184.34466 
L 318.15168 -184.434185 
L 318.557904 -184.523244 
L 318.964128 -184.611575 
L 319.370352 -184.699342 
L 319.776576 -184.786675 
L 320.182801 -184.873063 
L 320.589025 -184.959112 
L 320.995249 -185.044363 
L 321.401473 -185.129346 
L 321.807697 -185.213394 
L 322.213921 -185.296954 
L 322.620146 -185.380045 
L 323.02637 -185.462463 
L 323.432594 -185.544201 
L 323.838818 -185.62538 
L 324.245042 -185.706026 
L 324.651266 -185.786092 
L 325.057491 -185.865316 
L 325.463715 -185.944269 
L 325.869939 -186.022421 
L 326.276182 -186.10009 
L 326.682407 -186.177055 
L 327.088631 -186.253429 
L 327.494855 -186.329328 
L 327.901079 -186.404622 
L 328.307303 -186.4792 
L 328.713527 -186.553141 
L 329.119752 -186.626476 
L 329.525976 -186.699295 
L 329.9322 -186.771551 
L 330.338424 -186.843159 
L 330.744648 -186.914061 
L 331.150872 -186.984432 
L 331.557097 -187.053992 
L 331.963321 -187.123248 
L 332.369545 -187.191764 
L 332.775769 -187.259659 
L 333.181993 -187.326902 
L 333.588217 -187.393578 
L 333.994442 -187.459628 
L 334.400666 -187.525099 
L 334.80689 -187.589889 
L 335.213114 -187.65409 
L 335.619338 -187.717697 
L 336.025562 -187.78067 
L 336.431796 -187.842938 
L 336.838011 -187.90487 
L 337.244245 -187.966023 
L 337.650459 -188.026405 
L 338.056693 -188.086399 
L 338.462907 -188.145679 
L 338.869141 -188.204368 
L 339.275356 -188.262521 
L 339.68159 -188.320112 
L 340.087804 -188.376876 
L 340.494038 -188.433291 
L 340.900252 -188.489009 
L 341.306486 -188.544256 
L 341.712701 -188.598735 
L 342.118934 -188.652632 
L 342.525149 -188.706075 
L 342.931383 -188.758864 
L 343.337597 -188.811175 
L 343.743831 -188.862881 
L 344.150046 -188.913952 
L 344.556279 -188.964463 
L 344.962494 -189.014455 
L 345.368728 -189.063935 
L 345.774942 -189.112727 
L 346.181176 -189.161176 
L 346.587391 -189.208921 
L 346.993624 -189.256373 
L 347.399839 -189.303122 
L 347.806073 -189.34937 
L 348.212287 -189.395077 
L 348.618521 -189.440426 
L 349.024736 -189.485189 
L 349.430969 -189.52942 
L 349.837184 -189.573127 
L 350.243418 -189.616611 
L 350.649632 -189.659383 
L 351.055866 -189.701726 
L 351.462081 -189.743775 
L 351.868314 -189.785178 
L 352.274529 -189.826444 
L 352.680763 -189.867056 
L 353.086977 -189.907191 
L 353.493211 -189.947102 
L 353.899426 -189.986596 
L 354.305659 -190.025549 
L 354.711874 -190.064353 
L 355.118108 -190.10254 
L 355.524322 -190.140446 
L 355.930556 -190.178024 
L 356.336771 -190.215266 
L 356.743004 -190.252251 
L 357.149219 -190.28884 
L 357.555453 -190.325353 
L 357.961667 -190.36111 
L 358.367901 -190.397017 
L 358.774116 -190.432598 
L 359.180349 -190.467629 
L 359.586564 -190.50267 
L 359.992798 -190.537282 
L 360.399012 -190.571942 
L 360.805246 -190.606324 
L 361.211461 -190.640405 
L 361.617694 -190.674465 
L 362.023909 -190.708129 
L 362.430143 -190.741858 
L 362.836357 -190.77536 
L 363.242591 -190.808703 
L 363.648806 -190.842053 
L 364.055039 -190.875182 
L 364.461254 -190.908183 
L 364.867488 -190.9413 
L 365.273702 -190.974423 
L 365.679936 -191.007285 
L 366.08615 -191.040391 
L 366.492384 -191.073379 
L 366.898599 -191.106326 
L 367.304833 -191.139346 
L 367.711047 -191.172534 
L 368.117281 -191.205831 
L 368.523515 -191.239143 
L 368.929749 -191.272576 
L 369.335963 -191.306242 
L 369.742197 -191.340027 
L 370.148411 -191.373973 
L 370.554645 -191.408199 
L 370.96086 -191.442516 
L 371.367094 -191.477241 
L 371.773308 -191.512167 
L 372.179542 -191.547341 
L 372.585756 -191.582967 
L 372.99199 -191.618717 
L 373.398205 -191.655114 
L 373.804439 -191.691859 
L 374.210653 -191.72891 
L 374.616887 -191.766391 
L 375.023101 -191.804486 
L 375.429335 -191.843074 
L 375.83555 -191.882206 
L 376.241784 -191.921943 
L 376.647998 -191.962147 
L 377.054232 -192.003097 
L 377.460446 -192.04465 
L 377.86668 -192.087 
L 378.272895 -192.129948 
L 378.679129 -192.173772 
L 379.085343 -192.218229 
L 379.491577 -192.263774 
L 379.897791 -192.309945 
L 380.304025 -192.35731 
L 380.71024 -192.405223 
L 381.116474 -192.454368 
L 381.522688 -192.504549 
L 381.928922 -192.555744 
L 382.335136 -192.608031 
L 382.74137 -192.661574 
L 383.147585 -192.716089 
L 383.553819 -192.771948 
L 383.960033 -192.829027 
L 384.366267 -192.887608 
L 384.772481 -192.947319 
L 385.178715 -193.008471 
L 385.58493 -193.071192 
L 385.991164 -193.135406 
L 386.397378 -193.201247 
L 386.803612 -193.268471 
L 387.209826 -193.337659 
L 387.61606 -193.408241 
L 388.022294 -193.480722 
L 388.428528 -193.554945 
L 388.834742 -193.631105 
L 389.240976 -193.709056 
L 389.647191 -193.789312 
L 390.053425 -193.871342 
L 390.459639 -193.955465 
L 390.865873 -194.041836 
L 391.272087 -194.130247 
L 391.678321 -194.221014 
L 392.084536 -194.314169 
L 392.49077 -194.40963 
L 392.896984 -194.507562 
L 393.303218 -194.607988 
L 393.709432 -194.711019 
L 394.115666 -194.816683 
L 394.521881 -194.924927 
L 394.928115 -195.035905 
L 395.334329 -195.149827 
L 395.740563 -195.266556 
L 396.146777 -195.386111 
L 396.553011 -195.508878 
L 396.959226 -195.63457 
L 397.36546 -195.763368 
L 397.771674 -195.895409 
L 398.177908 -196.030746 
L 398.584122 -196.169386 
L 398.990356 -196.311339 
L 399.396571 -196.456714 
L 399.802804 -196.605611 
L 400.209019 -196.758008 
L 400.615253 -196.914017 
L 401.021467 -197.073769 
L 401.427701 -197.237231 
L 401.833916 -197.404333 
L 402.240149 -197.575526 
L 402.646364 -197.75043 
L 403.052598 -197.929384 
L 403.458812 -198.112217 
L 403.865046 -198.299008 
L 404.271261 -198.490216 
L 404.677494 -198.68531 
L 405.083709 -198.884683 
L 405.489943 -199.088099 
L 405.896157 -199.295947 
L 406.302391 -199.508045 
L 406.708606 -199.724413 
L 407.114839 -199.945172 
L 407.521054 -200.170331 
L 407.927288 -200.400018 
L 408.333502 -200.633997 
L 408.739736 -200.872733 
L 409.145951 -201.115548 
L 409.552184 -201.362908 
L 409.958399 -201.614937 
L 410.364633 -201.871509 
L 410.770847 -202.132381 
L 411.177081 -202.397903 
L 411.583296 -202.667832 
L 411.989529 -202.942438 
L 412.395744 -203.221382 
L 412.801978 -203.504866 
L 413.208192 -203.792805 
L 413.614426 -204.085003 
L 414.020641 -204.38181 
L 414.426874 -204.682818 
L 414.833089 -204.98824 
L 415.239323 -205.297838 
L 415.645537 -205.611832 
L 416.051771 -205.929794 
L 416.457986 -206.25196 
L 416.864219 -206.57814 
L 417.270434 -206.908356 
L 417.676668 -207.242369 
L 418.082882 -207.580184 
L 418.489116 -207.921795 
L 418.895331 -208.266984 
L 419.301564 -208.615809 
L 419.707779 -208.967947 
L 420.114013 -209.323589 
L 420.520227 -209.682313 
L 420.926461 -210.044225 
L 421.332676 -210.409034 
L 421.738909 -210.77685 
L 422.145124 -211.147233 
L 422.551358 -211.520308 
L 422.957572 -211.895631 
L 423.363806 -212.273402 
L 423.770021 -212.653062 
L 424.176254 -213.034806 
L 424.582469 -213.418296 
L 424.988703 -213.803587 
L 425.394917 -214.190035 
L 425.801151 -214.577976 
L 426.207365 -214.966792 
L 426.613599 -215.356518 
L 427.019814 -215.746821 
L 427.426048 -216.137786 
L 427.832262 -216.529028 
L 428.238496 -216.919989 
L 428.64471 -217.311225 
L 429.050944 -217.701611 
L 429.457159 -218.091692 
L 429.863393 -218.480876 
L 430.269607 -218.868761 
L 430.675841 -219.255536 
L 431.082055 -219.640787 
L 431.488289 -220.024031 
L 431.894504 -220.405244 
L 432.300738 -220.784409 
L 432.706952 -221.160678 
L 433.113186 -221.5343 
L 433.51942 -221.904784 
L 433.925654 -222.272006 
L 434.331868 -222.635516 
L 434.738102 -222.995489 
L 435.144316 -223.350921 
L 435.55055 -223.702223 
L 435.956765 -224.048588 
L 436.362999 -224.390368 
L 436.769213 -224.726783 
L 437.175447 -225.057713 
L 437.581661 -225.382799 
L 437.987895 -225.702199 
L 438.39411 -226.014841 
L 438.800344 -226.321335 
L 439.206558 -226.620793 
L 439.612792 -226.913275 
L 440.019006 -227.198512 
L 440.42524 -227.475813 
L 440.831455 -227.745556 
L 441.237689 -228.00698 
L 441.643903 -228.260177 
L 442.050137 -228.504657 
L 442.456351 -228.740347 
L 442.862585 -228.966812 
L 443.2688 -229.183881 
L 443.675034 -229.391355 
L 444.081248 -229.589234 
L 444.487482 -229.776679 
L 444.893696 -229.954248 
L 445.29993 -230.121045 
L 445.706145 -230.277123 
L 446.112379 -230.42254 
L 446.518593 -230.556666 
L 446.924827 -230.679654 
L 447.331041 -230.790899 
L 447.737275 -230.890538 
L 448.14349 -230.978529 
L 448.549724 -231.054457 
L 448.955938 -231.118168 
L 449.362172 -231.169684 
L 449.768386 -231.208562 
L 450.17462 -231.235178 
L 450.580835 -231.249053 
L 450.987069 -231.250167 
L 451.393283 -231.23812 
L 451.799517 -231.213243 
L 452.205731 -231.175069 
L 452.611965 -231.123793 
L 453.01818 -231.059554 
L 453.424414 -230.981864 
L 453.830628 -230.890908 
L 454.236862 -230.786665 
L 454.643076 -230.668897 
L 455.04931 -230.537602 
L 455.455525 -230.393185 
L 455.861758 -230.235037 
L 456.267973 -230.063836 
L 456.674207 -229.878879 
L 457.080421 -229.68105 
L 457.486655 -229.469404 
L 457.89287 -229.244808 
L 458.299103 -229.007065 
L 458.705318 -228.756195 
L 459.111552 -228.492474 
L 459.517766 -228.215786 
L 459.924 -227.926093 
L 460.330215 -227.624053 
L 460.736448 -227.309217 
L 461.142663 -226.982017 
L 461.548897 -226.642791 
L 461.955111 -226.291027 
L 462.361345 -225.927626 
L 462.767579 -225.552482 
L 463.173813 -225.16591 
L 463.580027 -224.76762 
L 463.986261 -224.358695 
L 464.392476 -223.938571 
L 464.798709 -223.50772 
L 465.204924 -223.06653 
L 465.611158 -222.615018 
L 466.017372 -222.153505 
L 466.423606 -221.682536 
L 466.829821 -221.201684 
L 467.236054 -220.712036 
L 467.642269 -220.213375 
L 468.048503 -219.706106 
L 468.454717 -219.190962 
L 468.860951 -218.667501 
L 469.267166 -218.136557 
L 469.673399 -217.598309 
L 470.079614 -217.052968 
L 470.485848 -216.501049 
L 470.892062 -215.943111 
L 471.298296 -215.378893 
L 471.704511 -214.809214 
L 472.110744 -214.234124 
L 472.516959 -213.654374 
L 472.923193 -213.070266 
L 473.329407 -212.481885 
L 473.735641 -211.889942 
L 474.141856 -211.294595 
L 474.548089 -210.696406 
L 474.954304 -210.095602 
L 475.360538 -209.492904 
L 475.766752 -208.888271 
L 476.172986 -208.282629 
L 476.579201 -207.67569 
L 476.985434 -207.068674 
L 477.391649 -206.4616 
L 477.797883 -205.854902 
L 478.204097 -205.248998 
L 478.610331 -204.644565 
L 479.016546 -204.041712 
L 479.422779 -203.440926 
L 479.828994 -202.843065 
L 480.235228 -202.24787 
L 480.641442 -201.656572 
L 481.047676 -201.068855 
L 481.453891 -200.485667 
L 481.860124 -199.907371 
L 482.266339 -199.334486 
L 482.672573 -198.767155 
L 483.078787 -198.206214 
L 483.485021 -197.651759 
L 483.891235 -197.104486 
L 484.297469 -196.564728 
L 484.703684 -196.033032 
L 485.109918 -195.509598 
L 485.516132 -194.995137 
L 485.922366 -194.489969 
L 486.32858 -193.994381 
L 486.734814 -193.50899 
L 487.141029 -193.03414 
L 487.547263 -192.570318 
L 487.953477 -192.117804 
L 488.359711 -191.67704 
L 488.765925 -191.248306 
L 489.172159 -190.832082 
L 489.578374 -190.428576 
L 489.984608 -190.038318 
L 490.390822 -189.661355 
L 490.797056 -189.298282 
L 491.20327 -188.94907 
L 491.609504 -188.614195 
L 492.015719 -188.293871 
L 492.421953 -187.988275 
L 492.828167 -187.69764 
L 493.234401 -187.422047 
L 493.640615 -187.161819 
L 494.046849 -186.916841 
L 494.453064 -186.687462 
L 494.859298 -186.473526 
L 495.265512 -186.275215 
L 495.671746 -186.092378 
L 496.07796 -185.925257 
L 496.484194 -185.773608 
L 496.890409 -185.637455 
L 497.296643 -185.516626 
L 497.702857 -185.411116 
L 498.109091 -185.32065 
L 498.109091 -108.509513 
L 498.109091 -108.509513 
L 497.702857 -108.419047 
L 497.296643 -108.313537 
L 496.890409 -108.192708 
L 496.484194 -108.056555 
L 496.07796 -107.904906 
L 495.671746 -107.737786 
L 495.265512 -107.554948 
L 494.859298 -107.356637 
L 494.453064 -107.142701 
L 494.046849 -106.913322 
L 493.640615 -106.668345 
L 493.234401 -106.408117 
L 492.828167 -106.132523 
L 492.421953 -105.841888 
L 492.015719 -105.536292 
L 491.609504 -105.215969 
L 491.20327 -104.881094 
L 490.797056 -104.531882 
L 490.390822 -104.168809 
L 489.984608 -103.791845 
L 489.578374 -103.401588 
L 489.172159 -102.998081 
L 488.765925 -102.581858 
L 488.359711 -102.153123 
L 487.953477 -101.712359 
L 487.547263 -101.259845 
L 487.141029 -100.796023 
L 486.734814 -100.321173 
L 486.32858 -99.835783 
L 485.922366 -99.340194 
L 485.516132 -98.835026 
L 485.109918 -98.320565 
L 484.703684 -97.797131 
L 484.297469 -97.265435 
L 483.891235 -96.725678 
L 483.485021 -96.178404 
L 483.078787 -95.62395 
L 482.672573 -95.063009 
L 482.266339 -94.495678 
L 481.860124 -93.922792 
L 481.453891 -93.344497 
L 481.047676 -92.761308 
L 480.641442 -92.173592 
L 480.235228 -91.582293 
L 479.828994 -90.987099 
L 479.422779 -90.389237 
L 479.016546 -89.788452 
L 478.610331 -89.185598 
L 478.204097 -88.581165 
L 477.797883 -87.975262 
L 477.391649 -87.368564 
L 476.985434 -86.761489 
L 476.579201 -86.154473 
L 476.172986 -85.547535 
L 475.766752 -84.941892 
L 475.360538 -84.33726 
L 474.954304 -83.734562 
L 474.548089 -83.133758 
L 474.141856 -82.535569 
L 473.735641 -81.940221 
L 473.329407 -81.348278 
L 472.923193 -80.759897 
L 472.516959 -80.175789 
L 472.110744 -79.596039 
L 471.704511 -79.02095 
L 471.298296 -78.451271 
L 470.892062 -77.887053 
L 470.485848 -77.329114 
L 470.079614 -76.777196 
L 469.673399 -76.231854 
L 469.267166 -75.693607 
L 468.860951 -75.162663 
L 468.454717 -74.639201 
L 468.048503 -74.124058 
L 467.642269 -73.616789 
L 467.236054 -73.118128 
L 466.829821 -72.628479 
L 466.423606 -72.147627 
L 466.017372 -71.676658 
L 465.611158 -71.215146 
L 465.204924 -70.763634 
L 464.798709 -70.322443 
L 464.392476 -69.891592 
L 463.986261 -69.471469 
L 463.580027 -69.062543 
L 463.173813 -68.664253 
L 462.767579 -68.277682 
L 462.361345 -67.902538 
L 461.955111 -67.539136 
L 461.548897 -67.187373 
L 461.142663 -66.848146 
L 460.736448 -66.520946 
L 460.330215 -66.20611 
L 459.924 -65.904071 
L 459.517766 -65.614378 
L 459.111552 -65.337689 
L 458.705318 -65.073968 
L 458.299103 -64.823099 
L 457.89287 -64.585355 
L 457.486655 -64.36076 
L 457.080421 -64.149113 
L 456.674207 -63.951285 
L 456.267973 -63.766327 
L 455.861758 -63.595126 
L 455.455525 -63.436978 
L 455.04931 -63.292561 
L 454.643076 -63.161267 
L 454.236862 -63.043499 
L 453.830628 -62.939255 
L 453.424414 -62.848299 
L 453.01818 -62.770609 
L 452.611965 -62.706371 
L 452.205731 -62.655094 
L 451.799517 -62.616921 
L 451.393283 -62.592043 
L 450.987069 -62.579996 
L 450.580835 -62.58111 
L 450.17462 -62.594986 
L 449.768386 -62.621601 
L 449.362172 -62.66048 
L 448.955938 -62.711996 
L 448.549724 -62.775707 
L 448.14349 -62.851634 
L 447.737275 -62.939626 
L 447.331041 -63.039265 
L 446.924827 -63.15051 
L 446.518593 -63.273497 
L 446.112379 -63.407623 
L 445.706145 -63.553041 
L 445.29993 -63.709119 
L 444.893696 -63.875915 
L 444.487482 -64.053484 
L 444.081248 -64.24093 
L 443.675034 -64.438808 
L 443.2688 -64.646282 
L 442.862585 -64.863351 
L 442.456351 -65.089816 
L 442.050137 -65.325507 
L 441.643903 -65.569986 
L 441.237689 -65.823184 
L 440.831455 -66.084608 
L 440.42524 -66.35435 
L 440.019006 -66.631651 
L 439.612792 -66.916888 
L 439.206558 -67.209371 
L 438.800344 -67.508828 
L 438.39411 -67.815322 
L 437.987895 -68.127965 
L 437.581661 -68.447364 
L 437.175447 -68.77245 
L 436.769213 -69.10338 
L 436.362999 -69.439796 
L 435.956765 -69.781575 
L 435.55055 -70.12794 
L 435.144316 -70.479243 
L 434.738102 -70.834675 
L 434.331868 -71.194648 
L 433.925654 -71.558158 
L 433.51942 -71.92538 
L 433.113186 -72.295864 
L 432.706952 -72.669485 
L 432.300738 -73.045755 
L 431.894504 -73.424919 
L 431.488289 -73.806133 
L 431.082055 -74.189377 
L 430.675841 -74.574628 
L 430.269607 -74.961403 
L 429.863393 -75.349287 
L 429.457159 -75.738471 
L 429.050944 -76.128552 
L 428.64471 -76.518938 
L 428.238496 -76.910175 
L 427.832262 -77.301136 
L 427.426048 -77.692377 
L 427.019814 -78.083342 
L 426.613599 -78.473645 
L 426.207365 -78.863371 
L 425.801151 -79.252187 
L 425.394917 -79.640128 
L 424.988703 -80.026577 
L 424.582469 -80.411867 
L 424.176254 -80.795357 
L 423.770021 -81.177102 
L 423.363806 -81.556761 
L 422.957572 -81.934533 
L 422.551358 -82.309856 
L 422.145124 -82.682931 
L 421.738909 -83.053313 
L 421.332676 -83.421129 
L 420.926461 -83.785938 
L 420.520227 -84.147851 
L 420.114013 -84.506575 
L 419.707779 -84.862217 
L 419.301564 -85.214355 
L 418.895331 -85.56318 
L 418.489116 -85.908368 
L 418.082882 -86.249979 
L 417.676668 -86.587795 
L 417.270434 -86.921807 
L 416.864219 -87.252023 
L 416.457986 -87.578204 
L 416.051771 -87.90037 
L 415.645537 -88.218332 
L 415.239323 -88.532325 
L 414.833089 -88.841923 
L 414.426874 -89.147346 
L 414.020641 -89.448353 
L 413.614426 -89.745161 
L 413.208192 -90.037359 
L 412.801978 -90.325297 
L 412.395744 -90.608781 
L 411.989529 -90.887725 
L 411.583296 -91.162331 
L 411.177081 -91.43226 
L 410.770847 -91.697783 
L 410.364633 -91.958654 
L 409.958399 -92.215226 
L 409.552184 -92.467256 
L 409.145951 -92.714615 
L 408.739736 -92.957431 
L 408.333502 -93.196166 
L 407.927288 -93.430146 
L 407.521054 -93.659832 
L 407.114839 -93.884991 
L 406.708606 -94.10575 
L 406.302391 -94.322118 
L 405.896157 -94.534216 
L 405.489943 -94.742064 
L 405.083709 -94.945481 
L 404.677494 -95.144853 
L 404.271261 -95.339947 
L 403.865046 -95.531155 
L 403.458812 -95.717946 
L 403.052598 -95.90078 
L 402.646364 -96.079733 
L 402.240149 -96.254638 
L 401.833916 -96.425831 
L 401.427701 -96.592932 
L 401.021467 -96.756395 
L 400.615253 -96.916146 
L 400.209019 -97.072156 
L 399.802804 -97.224553 
L 399.396571 -97.373449 
L 398.990356 -97.518824 
L 398.584122 -97.660777 
L 398.177908 -97.799417 
L 397.771674 -97.934755 
L 397.36546 -98.066795 
L 396.959226 -98.195593 
L 396.553011 -98.321285 
L 396.146777 -98.444053 
L 395.740563 -98.563608 
L 395.334329 -98.680337 
L 394.928115 -98.794259 
L 394.521881 -98.905237 
L 394.115666 -99.01348 
L 393.709432 -99.119145 
L 393.303218 -99.222175 
L 392.896984 -99.322601 
L 392.49077 -99.420533 
L 392.084536 -99.515994 
L 391.678321 -99.609149 
L 391.272087 -99.699916 
L 390.865873 -99.788327 
L 390.459639 -99.874699 
L 390.053425 -99.958821 
L 389.647191 -100.040851 
L 389.240976 -100.121107 
L 388.834742 -100.199059 
L 388.428528 -100.275219 
L 388.022294 -100.349441 
L 387.61606 -100.421922 
L 387.209826 -100.492504 
L 386.803612 -100.561692 
L 386.397378 -100.628916 
L 385.991164 -100.694758 
L 385.58493 -100.758971 
L 385.178715 -100.821692 
L 384.772481 -100.882845 
L 384.366267 -100.942556 
L 383.960033 -101.001137 
L 383.553819 -101.058215 
L 383.147585 -101.114075 
L 382.74137 -101.168589 
L 382.335136 -101.222132 
L 381.928922 -101.274419 
L 381.522688 -101.325614 
L 381.116474 -101.375796 
L 380.71024 -101.424941 
L 380.304025 -101.472854 
L 379.897791 -101.520218 
L 379.491577 -101.566389 
L 379.085343 -101.611935 
L 378.679129 -101.656392 
L 378.272895 -101.700215 
L 377.86668 -101.743163 
L 377.460446 -101.785514 
L 377.054232 -101.827066 
L 376.647998 -101.868016 
L 376.241784 -101.90822 
L 375.83555 -101.947957 
L 375.429335 -101.987089 
L 375.023101 -102.025678 
L 374.616887 -102.063773 
L 374.210653 -102.101254 
L 373.804439 -102.138304 
L 373.398205 -102.175049 
L 372.99199 -102.211447 
L 372.585756 -102.247196 
L 372.179542 -102.282823 
L 371.773308 -102.317997 
L 371.367094 -102.352922 
L 370.96086 -102.387648 
L 370.554645 -102.421965 
L 370.148411 -102.45619 
L 369.742197 -102.490136 
L 369.335963 -102.523922 
L 368.929749 -102.557588 
L 368.523515 -102.591021 
L 368.117281 -102.624332 
L 367.711047 -102.657629 
L 367.304833 -102.690817 
L 366.898599 -102.723838 
L 366.492384 -102.756784 
L 366.08615 -102.789772 
L 365.679936 -102.822878 
L 365.273702 -102.85574 
L 364.867488 -102.888863 
L 364.461254 -102.92198 
L 364.055039 -102.954982 
L 363.648806 -102.98811 
L 363.242591 -103.021461 
L 362.836357 -103.054804 
L 362.430143 -103.088306 
L 362.023909 -103.122034 
L 361.617694 -103.155699 
L 361.211461 -103.189759 
L 360.805246 -103.22384 
L 360.399012 -103.258221 
L 359.992798 -103.292881 
L 359.586564 -103.327494 
L 359.180349 -103.362534 
L 358.774116 -103.397565 
L 358.367901 -103.433147 
L 357.961667 -103.469053 
L 357.555453 -103.50481 
L 357.149219 -103.541323 
L 356.743004 -103.577913 
L 356.336771 -103.614897 
L 355.930556 -103.65214 
L 355.524322 -103.689718 
L 355.118108 -103.727624 
L 354.711874 -103.765811 
L 354.305659 -103.804614 
L 353.899426 -103.843568 
L 353.493211 -103.883062 
L 353.086977 -103.922973 
L 352.680763 -103.963108 
L 352.274529 -104.00372 
L 351.868314 -104.044986 
L 351.462081 -104.086389 
L 351.055866 -104.128438 
L 350.649632 -104.170781 
L 350.243418 -104.213552 
L 349.837184 -104.257036 
L 349.430969 -104.300743 
L 349.024736 -104.344974 
L 348.618521 -104.389738 
L 348.212287 -104.435087 
L 347.806073 -104.480793 
L 347.399839 -104.527042 
L 346.993624 -104.57379 
L 346.587391 -104.621242 
L 346.181176 -104.668987 
L 345.774942 -104.717436 
L 345.368728 -104.766228 
L 344.962494 -104.815709 
L 344.556279 -104.8657 
L 344.150046 -104.916211 
L 343.743831 -104.967283 
L 343.337597 -105.018988 
L 342.931383 -105.0713 
L 342.525149 -105.124088 
L 342.118934 -105.177532 
L 341.712701 -105.231428 
L 341.306486 -105.285907 
L 340.900252 -105.341154 
L 340.494038 -105.396873 
L 340.087804 -105.453288 
L 339.68159 -105.510051 
L 339.275356 -105.567643 
L 338.869141 -105.625796 
L 338.462907 -105.684485 
L 338.056693 -105.743765 
L 337.650459 -105.803758 
L 337.244245 -105.864141 
L 336.838011 -105.925293 
L 336.431796 -105.987225 
L 336.025562 -106.049493 
L 335.619338 -106.112466 
L 335.213114 -106.176074 
L 334.80689 -106.240274 
L 334.400666 -106.305065 
L 333.994442 -106.370535 
L 333.588217 -106.436585 
L 333.181993 -106.503261 
L 332.775769 -106.570504 
L 332.369545 -106.6384 
L 331.963321 -106.706916 
L 331.557097 -106.776172 
L 331.150872 -106.845732 
L 330.744648 -106.916102 
L 330.338424 -106.987005 
L 329.9322 -107.058613 
L 329.525976 -107.130869 
L 329.119752 -107.203688 
L 328.713527 -107.277022 
L 328.307303 -107.350963 
L 327.901079 -107.425542 
L 327.494855 -107.500835 
L 327.088631 -107.576735 
L 326.682407 -107.653108 
L 326.276182 -107.730074 
L 325.869939 -107.807742 
L 325.463715 -107.885895 
L 325.057491 -107.964848 
L 324.651266 -108.044072 
L 324.245042 -108.124138 
L 323.838818 -108.204783 
L 323.432594 -108.285962 
L 323.02637 -108.367701 
L 322.620146 -108.450118 
L 322.213921 -108.53321 
L 321.807697 -108.61677 
L 321.401473 -108.700817 
L 320.995249 -108.785801 
L 320.589025 -108.871051 
L 320.182801 -108.9571 
L 319.776576 -109.043489 
L 319.370352 -109.130821 
L 318.964128 -109.218588 
L 318.557904 -109.306919 
L 318.15168 -109.395978 
L 317.745456 -109.485504 
L 317.339231 -109.575712 
L 316.933007 -109.66661 
L 316.526783 -109.757997 
L 316.120559 -109.850097 
L 315.714335 -109.942778 
L 315.308111 -110.036214 
L 314.901886 -110.130131 
L 314.495662 -110.224668 
L 314.089438 -110.319949 
L 313.683214 -110.41583 
L 313.27699 -110.512433 
L 312.870766 -110.609518 
L 312.464541 -110.707557 
L 312.058317 -110.806038 
L 311.652093 -110.905277 
L 311.245869 -111.005204 
L 310.839645 -111.105699 
L 310.433421 -111.207082 
L 310.027197 -111.30901 
L 309.620972 -111.411693 
L 309.214748 -111.51518 
L 308.808524 -111.619217 
L 308.4023 -111.724055 
L 307.996076 -111.829679 
L 307.589852 -111.935986 
L 307.183627 -112.042994 
L 306.777403 -112.150889 
L 306.371179 -112.259383 
L 305.964955 -112.368718 
L 305.558731 -112.478757 
L 305.152507 -112.589541 
L 304.746282 -112.701115 
L 304.340058 -112.813461 
L 303.933834 -112.926661 
L 303.52761 -113.040451 
L 303.121386 -113.155241 
L 302.715162 -113.270561 
L 302.308937 -113.38677 
L 301.902713 -113.503721 
L 301.496489 -113.621421 
L 301.090265 -113.739809 
L 300.684041 -113.859136 
L 300.277817 -113.979138 
L 299.871592 -114.099949 
L 299.465368 -114.221335 
L 299.059144 -114.343551 
L 298.65292 -114.466501 
L 298.246696 -114.58987 
L 297.840472 -114.714249 
L 297.434247 -114.83926 
L 297.028023 -114.964911 
L 296.62178 -115.091203 
L 296.215556 -115.218008 
L 295.809331 -115.345617 
L 295.403107 -115.473738 
L 294.996883 -115.602475 
L 294.590659 -115.731642 
L 294.184435 -115.861409 
L 293.778211 -115.991652 
L 293.371986 -116.122573 
L 292.965762 -116.25358 
L 292.559538 -116.385286 
L 292.153314 -116.517209 
L 291.74709 -116.649483 
L 291.340866 -116.782189 
L 290.934641 -116.915158 
L 290.528417 -117.048374 
L 290.122193 -117.181785 
L 289.715969 -117.315348 
L 289.309745 -117.449164 
L 288.903521 -117.583035 
L 288.497296 -117.71689 
L 288.091072 -117.850934 
L 287.684848 -117.984745 
L 287.278624 -118.11864 
L 286.8724 -118.252324 
L 286.466176 -118.386066 
L 286.059951 -118.519368 
L 285.653727 -118.652715 
L 285.247503 -118.785667 
L 284.841279 -118.918151 
L 284.435055 -119.050316 
L 284.028831 -119.182192 
L 283.622587 -119.313403 
L 283.216363 -119.444405 
L 282.810139 -119.57494 
L 282.403915 -119.704419 
L 281.99769 -119.83352 
L 281.591466 -119.962034 
L 281.185242 -120.089635 
L 280.779018 -120.216495 
L 280.372794 -120.342549 
L 279.96657 -120.467763 
L 279.560345 -120.592296 
L 279.154121 -120.71551 
L 278.747897 -120.838042 
L 278.341673 -120.959494 
L 277.935449 -121.079829 
L 277.529225 -121.199084 
L 277.123001 -121.31723 
L 276.716776 -121.434202 
L 276.310552 -121.550027 
L 275.904328 -121.664515 
L 275.498104 -121.777889 
L 275.09188 -121.8899 
L 274.685656 -122.000514 
L 274.279431 -122.109896 
L 273.873207 -122.217956 
L 273.466983 -122.324372 
L 273.060759 -122.429487 
L 272.654535 -122.533178 
L 272.248311 -122.635534 
L 271.842086 -122.73627 
L 271.435862 -122.83552 
L 271.029638 -122.933241 
L 270.623414 -123.029511 
L 270.21719 -123.124294 
L 269.810966 -123.217437 
L 269.404741 -123.309027 
L 268.998517 -123.398938 
L 268.592293 -123.487572 
L 268.186069 -123.574398 
L 267.779845 -123.659654 
L 267.373621 -123.743404 
L 266.967396 -123.825418 
L 266.561172 -123.906095 
L 266.154948 -123.984955 
L 265.748724 -124.062473 
L 265.3425 -124.138309 
L 264.936276 -124.212562 
L 264.530051 -124.285223 
L 264.123827 -124.35637 
L 263.717603 -124.426064 
L 263.311379 -124.494095 
L 262.905155 -124.560653 
L 262.498931 -124.625808 
L 262.092706 -124.689447 
L 261.686482 -124.751561 
L 261.280258 -124.812155 
L 260.874034 -124.871454 
L 260.46781 -124.929259 
L 260.061586 -124.985727 
L 259.655361 -125.040714 
L 259.249137 -125.094413 
L 258.842913 -125.146645 
L 258.436689 -125.197589 
L 258.030465 -125.247245 
L 257.624241 -125.295632 
L 257.218016 -125.342821 
L 256.811792 -125.388636 
L 256.405568 -125.433255 
L 255.999344 -125.47676 
L 255.59312 -125.519002 
L 255.186896 -125.560094 
L 254.780671 -125.600225 
L 254.374438 -125.638986 
L 253.968213 -125.676894 
L 253.561989 -125.713612 
L 253.155765 -125.749188 
L 252.749541 -125.784026 
L 252.343317 -125.817574 
L 251.937093 -125.85035 
L 251.530868 -125.88219 
L 251.124644 -125.913027 
L 250.71842 -125.942996 
L 250.312196 -125.972024 
L 249.905972 -126.000257 
L 249.499748 -126.027647 
L 249.093524 -126.054204 
L 248.687299 -126.080015 
L 248.281075 -126.105 
L 247.874851 -126.129251 
L 247.468627 -126.152791 
L 247.062403 -126.175609 
L 246.656179 -126.197763 
L 246.249954 -126.21932 
L 245.84373 -126.240019 
L 245.437506 -126.260187 
L 245.031282 -126.279713 
L 244.625058 -126.298647 
L 244.218834 -126.317114 
L 243.812609 -126.334879 
L 243.406385 -126.35204 
L 243.000161 -126.368914 
L 242.593937 -126.385123 
L 242.187713 -126.400813 
L 241.781489 -126.416119 
L 241.375255 -126.430874 
L 240.969031 -126.44522 
L 240.562806 -126.459136 
L 240.156582 -126.472608 
L 239.750358 -126.485832 
L 239.344134 -126.498478 
L 238.93791 -126.5107 
L 238.531686 -126.522736 
L 238.125461 -126.534198 
L 237.719237 -126.545494 
L 237.313013 -126.556442 
L 236.906789 -126.567057 
L 236.500565 -126.5773 
L 236.094341 -126.587275 
L 235.688116 -126.596901 
L 235.281892 -126.606309 
L 234.875668 -126.615283 
L 234.469444 -126.624138 
L 234.06322 -126.632762 
L 233.656996 -126.641173 
L 233.250771 -126.64914 
L 232.844547 -126.657083 
L 232.438323 -126.664785 
L 232.032099 -126.672175 
L 231.625875 -126.679543 
L 231.219651 -126.686503 
L 230.813426 -126.693408 
L 230.407202 -126.700081 
L 230.000978 -126.706589 
L 229.594754 -126.712878 
L 229.18853 -126.719045 
L 228.782306 -126.725009 
L 228.376081 -126.730903 
L 227.969857 -126.736752 
L 227.563633 -126.74258 
L 227.157409 -126.748602 
L 226.751185 -126.755399 
L 226.344961 -126.763204 
L 225.938736 -126.769436 
L 225.532512 -126.749967 
L 225.126288 -126.562691 
L 224.720064 -125.61738 
L 224.31384 -122.616867 
L 223.907616 -117.288657 
L 223.501391 -111.941577 
L 223.095167 -108.408054 
L 222.688943 -106.581657 
L 222.282719 -105.744419 
L 221.876485 -105.375794 
L 221.470261 -105.210897 
L 221.064037 -105.131526 
L 220.657813 -105.087662 
L 220.251589 -105.058538 
L 219.845364 -105.035609 
L 219.43914 -105.0153 
L 219.032916 -104.996721 
L 218.626692 -104.978465 
L 218.220468 -104.960955 
L 217.814244 -104.943741 
L 217.408019 -104.926846 
L 217.001795 -104.910274 
L 216.595571 -104.894068 
L 216.189347 -104.87823 
L 215.783123 -104.862571 
L 215.376899 -104.847336 
L 214.970674 -104.832227 
L 214.56445 -104.81749 
L 214.158226 -104.803167 
L 213.752002 -104.789014 
L 213.345778 -104.775077 
L 212.939554 -104.761511 
L 212.533329 -104.748122 
L 212.127108 -104.735013 
L 211.720883 -104.722157 
L 211.314657 -104.709627 
L 210.908433 -104.697255 
L 210.502209 -104.685071 
L 210.095984 -104.673212 
L 209.68976 -104.661624 
L 209.283536 -104.650091 
L 208.877314 -104.638953 
L 208.47109 -104.628021 
L 208.064864 -104.617318 
L 207.658639 -104.60667 
L 207.252415 -104.596305 
L 206.846191 -104.586297 
L 206.439967 -104.576289 
L 206.033743 -104.566589 
L 205.627511 -104.556976 
L 205.221287 -104.547627 
L 204.815061 -104.53843 
L 204.408836 -104.529538 
L 204.002612 -104.520764 
L 203.596388 -104.512005 
L 203.190164 -104.503658 
L 202.78394 -104.495383 
L 202.377718 -104.487139 
L 201.971494 -104.479209 
L 201.565267 -104.471507 
L 201.159043 -104.463767 
L 200.752819 -104.456255 
L 200.346595 -104.448943 
L 199.940371 -104.441772 
L 199.534146 -104.434721 
L 199.127925 -104.427818 
L 198.721701 -104.421034 
L 198.315474 -104.414461 
L 197.90925 -104.407895 
L 197.503026 -104.40163 
L 197.096801 -104.395311 
L 196.690577 -104.389265 
L 196.284353 -104.383214 
L 195.878131 -104.377367 
L 195.471907 -104.371666 
L 195.065681 -104.36601 
L 194.659456 -104.360518 
L 194.253232 -104.355065 
L 193.847008 -104.34976 
L 193.440784 -104.344736 
L 193.03456 -104.339507 
L 192.628337 -104.334653 
L 192.222113 -104.32965 
L 191.815889 -104.324944 
L 191.409664 -104.320227 
L 191.00344 -104.315625 
L 190.597215 -104.311288 
L 190.190991 -104.306765 
L 189.784767 -104.302567 
L 189.378534 -104.298309 
L 188.97231 -104.294286 
L 188.566086 -104.290137 
L 188.159861 -104.286109 
L 187.753637 -104.282381 
L 187.347412 -104.278427 
L 186.941188 -104.274806 
L 186.534964 -104.271217 
L 186.128741 -104.267507 
L 185.722516 -104.264093 
L 185.316292 -104.260749 
L 184.910068 -104.257257 
L 184.503844 -104.254055 
L 184.097619 -104.250742 
L 183.691394 -104.247598 
L 183.28517 -104.244643 
L 182.878947 -104.241612 
L 182.472723 -104.238632 
L 182.066499 -104.235639 
L 181.660275 -104.233005 
L 181.25405 -104.23013 
L 180.847826 -104.227321 
L 180.441601 -104.224657 
L 180.035377 -104.222134 
L 179.629154 -104.21945 
L 179.22293 -104.21704 
L 178.816706 -104.214615 
L 178.410481 -104.212242 
L 178.004257 -104.209966 
L 177.598033 -104.207696 
L 177.191808 -104.205288 
L 176.785584 -104.203151 
L 176.379361 -104.200996 
L 175.973137 -104.198845 
L 175.566912 -104.196664 
L 175.160688 -104.194767 
L 174.754463 -104.192723 
L 174.348239 -104.190916 
L 173.942015 -104.188942 
L 173.53579 -104.187022 
L 173.129563 -104.18517 
L 172.723338 -104.183508 
L 172.317114 -104.181774 
L 171.91089 -104.179969 
L 171.504665 -104.178329 
L 171.098441 -104.176734 
L 170.692217 -104.175016 
L 170.285992 -104.173561 
L 169.879769 -104.172051 
L 169.473545 -104.170388 
L 169.067321 -104.168959 
L 168.661096 -104.167587 
L 168.254872 -104.166094 
L 167.848648 -104.164834 
L 167.442423 -104.163422 
L 167.036199 -104.162154 
L 166.629971 -104.160791 
L 166.223747 -104.15949 
L 165.817523 -104.158222 
L 165.411299 -104.157003 
L 165.005074 -104.155967 
L 164.59885 -104.154615 
L 164.192625 -104.153548 
L 163.786401 -104.15237 
L 163.380178 -104.151357 
L 162.973954 -104.150224 
L 162.567729 -104.149137 
L 162.161505 -104.148225 
L 161.755281 -104.14715 
L 161.349056 -104.146137 
L 160.942832 -104.145157 
L 160.536607 -104.144262 
L 160.130384 -104.143255 
L 159.72416 -104.142527 
L 159.317936 -104.141579 
L 158.911712 -104.140648 
L 158.505488 -104.139868 
L 158.099262 -104.139035 
L 157.693038 -104.138216 
L 157.286814 -104.137291 
L 156.880586 -104.136489 
L 156.474362 -104.135779 
L 156.068138 -104.135021 
L 155.661914 -104.134358 
L 155.25569 -104.133779 
L 154.849464 -104.133066 
L 154.44324 -104.132251 
L 154.037016 -104.131656 
L 153.630793 -104.13096 
L 153.224569 -104.130216 
L 152.818343 -104.129698 
L 152.412119 -104.128922 
L 152.005895 -104.128352 
L 151.599671 -104.127764 
L 151.193447 -104.127208 
L 150.787223 -104.12673 
L 150.380996 -104.126118 
L 149.974772 -104.125691 
L 149.568545 -104.125059 
L 149.162321 -104.124617 
L 148.756097 -104.124038 
L 148.349873 -104.123541 
L 147.943649 -104.122982 
L 147.537424 -104.122605 
L 147.131203 -104.12201 
L 146.724979 -104.121672 
L 146.318752 -104.121129 
L 145.912528 -104.120702 
L 145.506304 -104.120286 
L 145.100079 -104.119931 
L 144.693855 -104.119453 
L 144.287631 -104.119118 
L 143.881409 -104.11874 
L 143.475185 -104.118361 
L 143.068959 -104.118019 
L 142.662734 -104.117534 
L 142.25651 -104.11718 
L 141.850286 -104.116856 
L 141.444062 -104.116556 
L 141.037838 -104.116208 
L 140.631611 -104.115807 
L 140.225387 -104.115477 
L 139.81916 -104.115097 
L 139.412936 -104.114931 
L 139.006712 -104.11453 
L 138.600488 -104.114239 
L 138.194264 -104.11387 
L 137.78804 -104.113612 
L 137.381818 -104.113382 
L 136.975594 -104.11315 
L 136.569367 -104.112838 
L 136.163143 -104.112703 
L 135.756919 -104.112365 
L 135.350695 -104.112144 
L 134.944471 -104.111831 
L 134.538246 -104.111621 
L 134.13202 -104.111413 
L 133.725796 -104.1112 
L 133.319569 -104.111014 
L 132.913345 -104.110703 
L 132.507121 -104.110482 
L 132.100897 -104.110295 
L 131.694672 -104.110128 
L 131.288448 -104.109904 
L 130.882224 -104.109735 
L 130.476 -104.109581 
L 130.069776 -104.109385 
L 129.663552 -104.109116 
L 129.257327 -104.108866 
L 128.851103 -104.108694 
L 128.444879 -104.108573 
L 128.038655 -104.108433 
L 127.632431 -104.108208 
L 127.226207 -104.108089 
L 126.819982 -104.107909 
L 126.413758 -104.107724 
L 126.007534 -104.107583 
L 125.60131 -104.107343 
L 125.195086 -104.107285 
L 124.788862 -104.107165 
L 124.382637 -104.107003 
L 123.976413 -104.106877 
L 123.570189 -104.106738 
L 123.163965 -104.106575 
L 122.757741 -104.106443 
L 122.351517 -104.106364 
L 121.945292 -104.106229 
L 121.539068 -104.10618 
L 121.132839 -104.105988 
L 120.726615 -104.105957 
L 120.320391 -104.105831 
L 119.914167 -104.105678 
L 119.507943 -104.105543 
L 119.101718 -104.105481 
L 118.695494 -104.105429 
L 118.28927 -104.105238 
L 117.883041 -104.10513 
L 117.476817 -104.105037 
L 117.070593 -104.104963 
L 116.664369 -104.104864 
L 116.258144 -104.104785 
L 115.85192 -104.104706 
L 115.445696 -104.104546 
L 115.039472 -104.104448 
L 114.633248 -104.104408 
L 114.227024 -104.104331 
L 113.820799 -104.104259 
L 113.414575 -104.104179 
L 113.008351 -104.104153 
L 112.602127 -104.104046 
L 112.195903 -104.103966 
L 111.789679 -104.103888 
L 111.383454 -104.103784 
L 110.97723 -104.10372 
L 110.571006 -104.103626 
L 110.164782 -104.103606 
L 109.758558 -104.103505 
L 109.352334 -104.103488 
L 108.946109 -104.103396 
L 108.539885 -104.103395 
L 108.133661 -104.103329 
L 107.727437 -104.103163 
L 107.321213 -104.103098 
L 106.914989 -104.103146 
L 106.508765 -104.10302 
L 106.10254 -104.103026 
L 105.696316 -104.10293 
L 105.290092 -104.102847 
L 104.883863 -104.102848 
L 104.477639 -104.102796 
L 104.071415 -104.102719 
L 103.665191 -104.102654 
L 103.258966 -104.102638 
L 102.852742 -104.102618 
L 102.446518 -104.102517 
L 102.040294 -104.102508 
L 101.63407 -104.102441 
L 101.227846 -104.102455 
L 100.821621 -104.10241 
L 100.415397 -104.102369 
L 100.009173 -104.102351 
L 99.602949 -104.102292 
L 99.196725 -104.102211 
L 98.790501 -104.102224 
L 98.384272 -104.102111 
L 97.978047 -104.102135 
L 97.571823 -104.102105 
L 97.165599 -104.102106 
L 96.759375 -104.102044 
L 96.353151 -104.102064 
L 95.946927 -104.101869 
L 95.540702 -104.101883 
L 95.134478 -104.101916 
L 94.728254 -104.101928 
L 94.32203 -104.10192 
L 93.915806 -104.101839 
L 93.509582 -104.101806 
L 93.103357 -104.101815 
L 92.697133 -104.101764 
L 92.290909 -104.101775 
z
"/>
    </defs>
    <g clip-path="url(#p77fcd0c556)">
     <use xlink:href="#m99ee2e47ac" x="0" y="360" style="fill: #f08080; fill-opacity: 0.4"/>
    </g>
   </g>
   <g id="line2d_31">
    <path d="M 92.290909 258.450268 
L 149.162321 258.340043 
L 173.129563 258.095351 
L 188.97231 257.698927 
L 199.534146 257.221938 
L 208.47109 256.596188 
L 215.376899 255.911116 
L 220.251589 255.265193 
L 221.064037 255.041499 
L 221.470261 254.796255 
L 221.876485 254.286208 
L 222.282719 253.148666 
L 222.688943 250.58775 
L 223.095167 245.123765 
L 223.501391 235.016986 
L 224.31384 206.583606 
L 224.720064 196.98865 
L 225.126288 191.933363 
L 225.532512 189.594794 
L 225.938736 188.553825 
L 226.344961 188.077419 
L 227.157409 187.692473 
L 229.594754 187.15901 
L 234.875668 185.920671 
L 239.344134 184.65163 
L 243.812609 183.147202 
L 247.874851 181.551007 
L 251.937093 179.715996 
L 255.999344 177.623926 
L 260.061586 175.264053 
L 264.123827 172.630715 
L 268.186069 169.730798 
L 272.654535 166.253096 
L 277.529225 162.165346 
L 283.622587 156.742071 
L 300.684041 141.374891 
L 305.558731 137.372817 
L 310.027197 133.972557 
L 314.495662 130.856843 
L 318.557904 128.279949 
L 322.620146 125.942972 
L 327.088631 123.637125 
L 331.557097 121.585093 
L 336.431796 119.601595 
L 341.712701 117.703008 
L 347.806073 115.7582 
L 356.743004 113.179745 
L 368.117281 109.888333 
L 373.804439 108.025467 
L 378.679129 106.211577 
L 383.147585 104.311857 
L 387.209826 102.342807 
L 390.865873 100.341862 
L 394.521881 98.097142 
L 398.177908 95.587589 
L 401.833916 92.798479 
L 405.489943 89.723782 
L 409.552184 85.983082 
L 414.020641 81.517733 
L 419.301564 75.900087 
L 428.238496 66.351994 
L 431.488289 63.205824 
L 434.331868 60.758071 
L 436.769213 58.962087 
L 438.800344 57.727299 
L 440.831455 56.769251 
L 442.456351 56.224646 
L 444.081248 55.895777 
L 445.706145 55.8 
L 447.331041 55.949007 
L 448.955938 56.35593 
L 450.580835 57.031911 
L 452.205731 57.98497 
L 453.830628 59.220248 
L 455.455525 60.740501 
L 457.080421 62.546494 
L 459.111552 65.201871 
L 461.142663 68.288078 
L 463.173813 71.786962 
L 465.611158 76.497478 
L 468.048503 81.718118 
L 470.892062 88.370213 
L 474.141856 96.583026 
L 478.204097 107.507492 
L 485.516132 127.995219 
L 491.609504 144.804843 
L 496.07796 156.48166 
L 498.109091 161.537682 
L 498.109091 161.537682 
" clip-path="url(#p77fcd0c556)" style="fill: none; stroke: #e24a33; stroke-width: 1.5; stroke-linecap: square"/>
   </g>
   <g id="line2d_32">
    <path d="M 92.290909 161.56191 
L 190.597215 161.598702 
L 220.657813 161.705744 
L 221.470261 161.853771 
L 221.876485 162.10529 
L 222.282719 162.706063 
L 222.688943 164.105715 
L 223.095167 167.161587 
L 223.501391 172.974521 
L 224.720064 197.34923 
L 225.126288 201.040618 
L 225.532512 202.780463 
L 225.938736 203.53658 
L 226.344961 203.854491 
L 227.157409 204.041025 
L 229.594754 204.087001 
L 251.124644 204.075002 
L 261.280258 203.857827 
L 268.998517 203.451761 
L 275.09188 202.898065 
L 280.372794 202.202586 
L 285.653727 201.278607 
L 290.934641 200.121964 
L 296.62178 198.642789 
L 303.933834 196.495806 
L 318.15168 192.259416 
L 324.245042 190.693003 
L 329.9322 189.451756 
L 335.619338 188.44155 
L 341.306486 187.66171 
L 346.993624 187.100362 
L 353.086977 186.72561 
L 359.180349 186.568705 
L 365.273702 186.622425 
L 371.367094 186.886983 
L 377.460446 187.37343 
L 383.147585 188.04485 
L 388.834742 188.949607 
L 394.115666 190.019532 
L 399.396571 191.332192 
L 404.677494 192.901114 
L 409.552184 194.578057 
L 414.833089 196.626417 
L 421.332676 199.406742 
L 434.738102 205.221757 
L 438.800344 206.678496 
L 442.050137 207.62182 
L 444.893696 208.239613 
L 447.737275 208.629945 
L 450.580835 208.761842 
L 453.01818 208.651984 
L 455.455525 208.325289 
L 457.89287 207.773552 
L 460.330215 206.997447 
L 462.767579 205.999301 
L 465.611158 204.566239 
L 468.454717 202.86314 
L 471.704511 200.624481 
L 475.360538 197.794614 
L 479.828994 194.005139 
L 486.32858 188.148494 
L 494.859298 180.499738 
L 498.109091 177.742982 
L 498.109091 177.742982 
" clip-path="url(#p77fcd0c556)" style="fill: none; stroke: #348abd; stroke-width: 1.5; stroke-linecap: square"/>
   </g>
   <g id="line2d_33">
    <path d="M 92.290909 175.463536 
L 176.785584 175.573271 
L 197.503026 175.806301 
L 210.502209 176.153872 
L 220.251589 176.619811 
L 222.282719 176.847056 
L 222.688943 177.028754 
L 223.095167 177.46843 
L 223.501391 178.56872 
L 223.907616 180.939887 
L 224.720064 187.85201 
L 225.126288 190.023328 
L 225.532512 191.136903 
L 225.938736 191.653959 
L 226.751185 192.011142 
L 228.782306 192.247202 
L 235.688116 192.994901 
L 241.781489 193.876915 
L 247.468627 194.930587 
L 252.749541 196.136909 
L 258.030465 197.580148 
L 263.311379 199.258714 
L 268.998517 201.296238 
L 277.529225 204.615566 
L 285.247503 207.54294 
L 290.122193 209.158695 
L 294.184435 210.284146 
L 298.246696 211.167782 
L 301.902713 211.74119 
L 305.964955 212.136604 
L 310.027197 212.298988 
L 314.495662 212.255553 
L 320.182801 211.962528 
L 340.494038 210.669061 
L 345.774942 210.663276 
L 350.649632 210.879195 
L 355.118108 211.298699 
L 359.180349 211.890136 
L 363.242591 212.709309 
L 366.898599 213.664969 
L 370.554645 214.854241 
L 373.804439 216.129159 
L 377.054232 217.631016 
L 380.304025 219.384024 
L 383.553819 221.411385 
L 386.803612 223.740189 
L 389.647191 226.044781 
L 392.49077 228.61589 
L 395.334329 231.468117 
L 398.177908 234.614257 
L 401.427701 238.583058 
L 404.677494 242.953518 
L 407.927288 247.721504 
L 411.583296 253.535081 
L 415.645537 260.486567 
L 420.520227 269.331009 
L 430.675841 287.938973 
L 433.925654 293.346882 
L 436.362999 297.030188 
L 438.800344 300.299899 
L 440.831455 302.648599 
L 442.456351 304.248192 
L 444.081248 305.575299 
L 445.706145 306.609014 
L 447.331041 307.331644 
L 448.549724 307.65941 
L 449.768386 307.797092 
L 450.987069 307.740587 
L 452.205731 307.485732 
L 453.424414 307.030415 
L 454.643076 306.372096 
L 456.267973 305.179304 
L 457.89287 303.628227 
L 459.517766 301.724926 
L 461.142663 299.477298 
L 462.767579 296.898904 
L 464.798709 293.234974 
L 466.829821 289.113629 
L 469.267166 283.62361 
L 472.110744 276.570791 
L 475.360538 267.825096 
L 479.422779 256.176592 
L 495.265512 209.90295 
L 498.109091 202.312796 
L 498.109091 202.312796 
" clip-path="url(#p77fcd0c556)" style="fill: none; stroke: #988ed5; stroke-width: 1.5; stroke-linecap: square"/>
   </g>
   <g id="line2d_34">
    <path d="M 92.290909 185.283992 
L 175.566912 185.394248 
L 197.90925 185.654398 
L 210.908433 186.022815 
L 220.657813 186.512935 
L 222.282719 186.69598 
L 222.688943 186.852272 
L 223.095167 187.240829 
L 223.501391 188.272248 
L 223.907616 190.612806 
L 224.720064 197.700934 
L 225.126288 199.960101 
L 225.532512 201.122039 
L 225.938736 201.66144 
L 226.751185 202.033009 
L 228.376081 202.236869 
L 235.281892 202.983313 
L 241.375255 203.859021 
L 247.062403 204.900296 
L 252.343317 206.087885 
L 257.624241 207.501556 
L 262.905155 209.135217 
L 268.998517 211.249846 
L 286.059951 217.358101 
L 290.528417 218.620469 
L 294.590659 219.523573 
L 298.246696 220.108827 
L 301.902713 220.470417 
L 305.964955 220.618506 
L 310.027197 220.530198 
L 314.901886 220.174943 
L 320.995249 219.485647 
L 335.619338 217.71712 
L 341.306486 217.289597 
L 346.587391 217.12305 
L 351.462081 217.203584 
L 355.930556 217.502884 
L 359.992798 217.984066 
L 364.055039 218.6868 
L 367.711047 219.52844 
L 371.367094 220.591141 
L 375.023101 221.897924 
L 378.272895 223.285576 
L 381.522688 224.906871 
L 384.772481 226.783389 
L 388.022294 228.93579 
L 391.272087 231.386849 
L 394.115666 233.791166 
L 397.36546 236.851844 
L 400.615253 240.257277 
L 403.865046 244.014659 
L 407.114839 248.119489 
L 410.770847 253.133055 
L 414.426874 258.519231 
L 419.301564 266.14477 
L 430.675841 284.193897 
L 433.925654 288.802897 
L 436.362999 291.908601 
L 438.39411 294.204806 
L 440.42524 296.189896 
L 442.050137 297.525389 
L 443.675034 298.613589 
L 445.29993 299.436649 
L 446.924827 299.977397 
L 448.549724 300.220375 
L 449.768386 300.200418 
L 450.987069 300.002803 
L 452.205731 299.622449 
L 453.424414 299.058774 
L 455.04931 298.019274 
L 456.674207 296.649987 
L 458.299103 294.955474 
L 459.924 292.939989 
L 461.548897 290.614583 
L 463.580027 287.290112 
L 465.611158 283.529654 
L 468.048503 278.491203 
L 470.485848 272.947602 
L 473.329407 265.944125 
L 476.985434 256.29098 
L 482.266339 241.588593 
L 491.609504 215.49848 
L 496.07796 203.77232 
L 498.109091 198.701177 
L 498.109091 198.701177 
" clip-path="url(#p77fcd0c556)" style="fill: none; stroke: #777777; stroke-width: 1.5; stroke-linecap: square"/>
   </g>
   <g id="line2d_35">
    <path d="M 92.290909 267.019101 
L 173.942015 267.129632 
L 198.315474 267.354582 
L 214.970674 267.717733 
L 221.470261 267.82153 
L 221.876485 267.662881 
L 222.282719 267.256907 
L 222.688943 266.266566 
L 223.095167 263.979544 
L 223.501391 259.203416 
L 225.126288 227.954357 
L 225.532512 225.557018 
L 225.938736 224.508703 
L 226.344961 224.077292 
L 227.157409 223.853659 
L 229.18853 223.903766 
L 239.750358 224.574666 
L 249.499748 225.427386 
L 258.842913 226.45651 
L 288.497296 229.918479 
L 296.215556 230.432076 
L 304.340058 230.743314 
L 318.15168 230.993332 
L 334.400666 231.359239 
L 346.587391 231.878683 
L 356.336771 232.508137 
L 364.867488 233.279956 
L 372.179542 234.173479 
L 378.272895 235.137894 
L 383.960033 236.270967 
L 389.240976 237.571597 
L 393.709432 238.893684 
L 398.177908 240.452107 
L 402.240149 242.096176 
L 406.302391 243.979948 
L 410.364633 246.117534 
L 414.426874 248.519097 
L 418.489116 251.184238 
L 422.957572 254.402739 
L 427.832262 258.20983 
L 434.331868 263.603169 
L 443.675034 271.339576 
L 447.737275 274.407692 
L 451.393283 276.879748 
L 454.643076 278.783723 
L 457.486655 280.187353 
L 460.330215 281.325049 
L 462.767579 282.076543 
L 465.204924 282.619342 
L 467.642269 282.95294 
L 470.079614 283.085326 
L 472.923193 282.996146 
L 475.766752 282.666649 
L 478.610331 282.122121 
L 481.860124 281.274681 
L 485.516132 280.091699 
L 489.984608 278.407838 
L 496.890409 275.536541 
L 498.109091 275.018398 
L 498.109091 275.018398 
" clip-path="url(#p77fcd0c556)" style="fill: none; stroke: #fbc15e; stroke-width: 1.5; stroke-linecap: square"/>
   </g>
   <g id="line2d_36">
    <path d="M 92.290909 176.912591 
L 165.411299 177.077393 
L 184.097619 177.34541 
L 196.690577 177.734732 
L 206.439967 178.258094 
L 213.752002 178.851491 
L 220.251589 179.592915 
L 221.470261 179.848198 
L 221.876485 180.047375 
L 222.282719 180.456532 
L 222.688943 181.385715 
L 223.095167 183.599825 
L 223.501391 188.732616 
L 223.907616 198.753412 
L 224.720064 224.754252 
L 225.126288 232.382638 
L 225.532512 236.211278 
L 225.938736 237.953328 
L 226.344961 238.7313 
L 226.751185 239.096258 
L 227.563633 239.413005 
L 239.344134 242.294281 
L 243.406385 243.651813 
L 247.468627 245.241948 
L 251.530868 247.085377 
L 255.59312 249.197251 
L 259.655361 251.581703 
L 263.717603 254.228969 
L 268.186069 257.409973 
L 273.873207 261.756802 
L 285.247503 270.551135 
L 289.309745 273.370335 
L 292.559538 275.387044 
L 295.809331 277.146633 
L 298.65292 278.452619 
L 301.496489 279.530779 
L 304.340058 280.38004 
L 307.183627 281.008577 
L 310.433421 281.474974 
L 313.683214 281.703444 
L 317.339231 281.721289 
L 321.401473 281.510695 
L 326.682407 280.99318 
L 336.025562 279.800602 
L 345.368728 278.693639 
L 352.274529 278.097794 
L 358.774116 277.760721 
L 364.867488 277.662557 
L 370.554645 277.775506 
L 376.241784 278.102783 
L 381.522688 278.617421 
L 386.803612 279.358937 
L 391.678321 280.26703 
L 396.146777 281.309132 
L 400.615253 282.56853 
L 405.083709 284.059643 
L 409.552184 285.788653 
L 414.020641 287.753449 
L 418.895331 290.141696 
L 424.988703 293.404091 
L 437.175447 300.031453 
L 441.237689 301.926153 
L 444.487482 303.195775 
L 447.331041 304.079074 
L 450.17462 304.709355 
L 452.611965 305.024909 
L 455.04931 305.116095 
L 457.486655 304.972199 
L 459.924 304.586917 
L 462.361345 303.959697 
L 464.798709 303.095223 
L 467.236054 302.00387 
L 470.079614 300.462206 
L 472.923193 298.662411 
L 476.172986 296.335398 
L 480.235228 293.109459 
L 485.109918 288.937854 
L 498.109091 277.615617 
L 498.109091 277.615617 
" clip-path="url(#p77fcd0c556)" style="fill: none; stroke: #8eba42; stroke-width: 1.5; stroke-linecap: square"/>
   </g>
   <g id="line2d_37">
    <path d="M 92.290909 160.733616 
L 192.628337 160.843198 
L 216.595571 161.05722 
L 221.064037 161.195116 
L 221.470261 161.300963 
L 221.876485 161.54789 
L 222.282719 162.131522 
L 222.688943 163.482811 
L 223.095167 166.42451 
L 223.501391 172.009097 
L 224.720064 195.30788 
L 225.126288 198.824181 
L 225.532512 200.482912 
L 225.938736 201.207807 
L 226.344961 201.515922 
L 227.157409 201.707354 
L 230.000978 201.804142 
L 251.530868 202.42025 
L 263.717603 202.670575 
L 270.623414 202.583552 
L 275.904328 202.30473 
L 280.779018 201.82165 
L 285.247503 201.152587 
L 289.715969 200.248412 
L 294.184435 199.110135 
L 299.059144 197.629858 
L 305.152507 195.518505 
L 323.432594 188.967452 
L 329.119752 187.270857 
L 334.400666 185.932547 
L 339.68159 184.831339 
L 344.962494 183.960559 
L 350.243418 183.305239 
L 355.930556 182.82167 
L 362.023909 182.537307 
L 368.117281 182.479149 
L 374.210653 182.6404 
L 380.304025 183.024489 
L 386.397378 183.645311 
L 392.084536 184.454076 
L 397.36546 185.421399 
L 402.646364 186.609753 
L 407.927288 188.024648 
L 413.614426 189.79244 
L 419.707779 191.922741 
L 436.769213 198.057321 
L 440.42524 199.06615 
L 443.675034 199.755201 
L 446.924827 200.201029 
L 449.768386 200.358851 
L 452.611965 200.274185 
L 455.04931 199.995914 
L 457.486655 199.519905 
L 460.330215 198.708997 
L 462.767579 197.799619 
L 465.611158 196.496035 
L 468.454717 194.949045 
L 471.704511 192.914398 
L 475.360538 190.339356 
L 479.422779 187.211169 
L 485.516132 182.215876 
L 495.671746 173.886578 
L 498.109091 171.997113 
L 498.109091 171.997113 
" clip-path="url(#p77fcd0c556)" style="fill: none; stroke: #ffb5b8; stroke-width: 1.5; stroke-linecap: square"/>
   </g>
   <g id="line2d_38">
    <path d="M 92.290909 270.148314 
L 184.910068 270.040783 
L 201.971494 269.779591 
L 212.939554 269.387147 
L 221.064037 268.884354 
L 223.095167 268.645355 
L 223.501391 268.035185 
L 223.907616 266.124385 
L 224.720064 259.193957 
L 225.126288 256.849451 
L 225.532512 255.6266 
L 225.938736 255.052426 
L 226.751185 254.646819 
L 228.376081 254.403474 
L 234.469444 253.57472 
L 239.750358 252.625549 
L 244.625058 251.518617 
L 249.093524 250.281808 
L 253.561989 248.817111 
L 258.030465 247.12168 
L 262.905155 245.03163 
L 269.404741 241.96832 
L 277.935449 237.949012 
L 281.99769 236.298393 
L 285.247503 235.216407 
L 288.091072 234.4969 
L 290.934641 234.026921 
L 293.371986 233.842345 
L 295.809331 233.871792 
L 298.246696 234.120035 
L 300.684041 234.585208 
L 303.121386 235.258465 
L 305.964955 236.288751 
L 308.808524 237.552803 
L 312.058317 239.234337 
L 316.120559 241.599965 
L 322.213921 245.438431 
L 330.744648 250.766357 
L 335.619338 253.534561 
L 339.68159 255.611907 
L 343.743831 257.455917 
L 347.806073 259.056429 
L 351.868314 260.414635 
L 355.930556 261.535924 
L 359.992798 262.42911 
L 364.055039 263.104907 
L 368.117281 263.570539 
L 372.179542 263.832587 
L 376.241784 263.894755 
L 380.71024 263.731423 
L 384.772481 263.369741 
L 388.834742 262.798169 
L 392.896984 262.008412 
L 396.959226 260.990951 
L 401.021467 259.736297 
L 405.083709 258.238358 
L 409.145951 256.494962 
L 413.208192 254.512352 
L 417.676668 252.075955 
L 422.957572 248.90894 
L 430.675841 243.955521 
L 437.987895 239.339267 
L 442.456351 236.794268 
L 446.112379 234.976031 
L 449.362172 233.611121 
L 452.205731 232.639605 
L 455.04931 231.889824 
L 457.89287 231.371972 
L 460.736448 231.08461 
L 463.580027 231.022748 
L 466.423606 231.174418 
L 469.673399 231.583102 
L 473.329407 232.305165 
L 477.391649 233.368571 
L 482.266339 234.90393 
L 489.578374 237.47986 
L 498.109091 240.507985 
L 498.109091 240.507985 
" clip-path="url(#p77fcd0c556)" style="fill: none; stroke: #e24a33; stroke-width: 1.5; stroke-linecap: square"/>
   </g>
   <g id="line2d_39">
    <path d="M 92.290909 239.756107 
L 173.129563 239.646372 
L 198.315474 239.379916 
L 212.939554 239.001062 
L 223.095167 238.613729 
L 223.501391 237.983968 
L 223.907616 235.669735 
L 225.126288 223.593416 
L 225.532512 221.984885 
L 225.938736 221.244502 
L 226.344961 220.914715 
L 227.157409 220.684041 
L 230.000978 220.44994 
L 238.531686 219.706465 
L 246.656179 218.758089 
L 254.780671 217.566062 
L 264.936276 215.830869 
L 274.685656 214.229776 
L 279.96657 213.583976 
L 284.435055 213.256821 
L 288.497296 213.180879 
L 292.559538 213.343661 
L 296.215556 213.701211 
L 300.277817 214.322615 
L 304.746282 215.243717 
L 310.027197 216.569018 
L 329.525976 221.715521 
L 334.400666 222.660315 
L 339.275356 223.37064 
L 343.743831 223.796449 
L 348.212287 223.99284 
L 352.274529 223.962077 
L 356.336771 223.722282 
L 360.399012 223.260935 
L 364.461254 222.56111 
L 368.117281 221.711389 
L 371.773308 220.63424 
L 375.429335 219.307745 
L 378.679129 217.899645 
L 381.928922 216.256586 
L 385.178715 214.35702 
L 388.428528 212.180927 
L 391.678321 209.70532 
L 394.928115 206.911404 
L 398.177908 203.780048 
L 401.427701 200.298489 
L 404.677494 196.457636 
L 407.927288 192.259477 
L 411.177081 187.715124 
L 414.833089 182.224325 
L 419.301564 175.061204 
L 426.207365 163.447855 
L 431.894504 154.050452 
L 435.144316 149.069455 
L 437.987895 145.106285 
L 440.42524 142.095991 
L 442.456351 139.915398 
L 444.487482 138.074785 
L 446.112379 136.871861 
L 447.737275 135.928322 
L 449.362172 135.25779 
L 450.987069 134.873549 
L 452.611965 134.78723 
L 453.830628 134.921912 
L 455.04931 135.230731 
L 456.674207 135.914426 
L 458.299103 136.909572 
L 459.924 138.213385 
L 461.548897 139.819468 
L 463.173813 141.719646 
L 465.204924 144.491064 
L 467.236054 147.676262 
L 469.673399 151.998007 
L 472.110744 156.8015 
L 474.954304 162.918723 
L 478.204097 170.437175 
L 482.672573 181.37338 
L 494.859298 211.533367 
L 498.109091 219.043814 
L 498.109091 219.043814 
" clip-path="url(#p77fcd0c556)" style="fill: none; stroke: #348abd; stroke-width: 1.5; stroke-linecap: square"/>
   </g>
   <g id="line2d_40">
    <path d="M 92.290909 235.519748 
L 176.379361 235.408972 
L 199.127925 235.172452 
L 214.56445 234.779854 
L 221.470261 234.442751 
L 222.282719 234.152695 
L 222.688943 233.6919 
L 223.095167 232.591609 
L 223.501391 230.052426 
L 223.907616 225.106997 
L 224.720064 212.137921 
L 225.126288 208.287731 
L 225.532512 206.35229 
L 225.938736 205.476612 
L 226.344961 205.091728 
L 227.157409 204.83167 
L 229.594754 204.631544 
L 238.125461 203.947023 
L 246.656179 203.036114 
L 256.405568 201.745525 
L 269.404741 200.017953 
L 274.685656 199.573625 
L 278.747897 199.450973 
L 282.403915 199.5578 
L 286.059951 199.911585 
L 289.309745 200.455669 
L 292.559538 201.226877 
L 295.809331 202.222452 
L 299.465368 203.595412 
L 303.121386 205.199902 
L 307.589852 207.401003 
L 315.308111 211.50764 
L 322.620146 215.297712 
L 327.494855 217.559971 
L 331.557097 219.211141 
L 335.619338 220.615231 
L 339.275356 221.65069 
L 342.931383 222.461017 
L 346.587391 223.040486 
L 350.243418 223.385057 
L 353.899426 223.489864 
L 357.555453 223.349183 
L 360.805246 223.01006 
L 364.055039 222.460649 
L 367.304833 221.690942 
L 370.554645 220.685664 
L 373.804439 219.428867 
L 376.647998 218.107851 
L 379.491577 216.563386 
L 382.335136 214.781268 
L 385.178715 212.742673 
L 388.022294 210.429878 
L 390.865873 207.824486 
L 393.709432 204.907612 
L 396.553011 201.662389 
L 399.396571 198.073329 
L 402.240149 194.129505 
L 405.083709 189.822682 
L 408.333502 184.45576 
L 411.583296 178.625898 
L 415.239323 171.551943 
L 419.301564 163.141239 
L 424.582469 151.607046 
L 433.113186 132.903213 
L 436.362999 126.314082 
L 439.206558 121.048538 
L 441.643903 117.02317 
L 443.675034 114.084012 
L 445.706145 111.574551 
L 447.331041 109.909025 
L 448.955938 108.571204 
L 450.580835 107.578966 
L 451.799517 107.07299 
L 453.01818 106.777026 
L 454.236862 106.694717 
L 455.455525 106.830807 
L 456.674207 107.187378 
L 457.89287 107.766694 
L 459.111552 108.566093 
L 460.330215 109.585665 
L 461.955111 111.285137 
L 463.580027 113.361535 
L 465.204924 115.803197 
L 467.236054 119.344689 
L 469.267166 123.394943 
L 471.298296 127.908701 
L 473.735641 133.869877 
L 476.579201 141.458976 
L 479.828994 150.781568 
L 484.297469 164.332914 
L 496.07796 200.477356 
L 498.109091 206.37162 
L 498.109091 206.37162 
" clip-path="url(#p77fcd0c556)" style="fill: none; stroke: #988ed5; stroke-width: 1.5; stroke-linecap: square"/>
   </g>
   <g id="patch_3">
    <path d="M 72 320.4 
L 72 43.2 
" style="fill: none; stroke: #ffffff; stroke-linejoin: miter; stroke-linecap: square"/>
   </g>
   <g id="patch_4">
    <path d="M 518.4 320.4 
L 518.4 43.2 
" style="fill: none; stroke: #ffffff; stroke-linejoin: miter; stroke-linecap: square"/>
   </g>
   <g id="patch_5">
    <path d="M 72 320.4 
L 518.4 320.4 
" style="fill: none; stroke: #ffffff; stroke-linejoin: miter; stroke-linecap: square"/>
   </g>
   <g id="patch_6">
    <path d="M 72 43.2 
L 518.4 43.2 
" style="fill: none; stroke: #ffffff; stroke-linejoin: miter; stroke-linecap: square"/>
   </g>
   <g id="text_16">
    <!-- Deviation from average for single draw -->
    <g transform="translate(154.044 37.2)scale(0.144 -0.144)">
     <defs>
      <path id="DejaVuSans-44" d="M 1259 4147 
L 1259 519 
L 2022 519 
Q 2988 519 3436 956 
Q 3884 1394 3884 2338 
Q 3884 3275 3436 3711 
Q 2988 4147 2022 4147 
L 1259 4147 
z
M 628 4666 
L 1925 4666 
Q 3281 4666 3915 4102 
Q 4550 3538 4550 2338 
Q 4550 1131 3912 565 
Q 3275 0 1925 0 
L 628 0 
L 628 4666 
z
" transform="scale(0.015625)"/>
      <path id="DejaVuSans-65" d="M 3597 1894 
L 3597 1613 
L 953 1613 
Q 991 1019 1311 708 
Q 1631 397 2203 397 
Q 2534 397 2845 478 
Q 3156 559 3463 722 
L 3463 178 
Q 3153 47 2828 -22 
Q 2503 -91 2169 -91 
Q 1331 -91 842 396 
Q 353 884 353 1716 
Q 353 2575 817 3079 
Q 1281 3584 2069 3584 
Q 2775 3584 3186 3129 
Q 3597 2675 3597 1894 
z
M 3022 2063 
Q 3016 2534 2758 2815 
Q 2500 3097 2075 3097 
Q 1594 3097 1305 2825 
Q 1016 2553 972 2059 
L 3022 2063 
z
" transform="scale(0.015625)"/>
      <path id="DejaVuSans-76" d="M 191 3500 
L 800 3500 
L 1894 563 
L 2988 3500 
L 3597 3500 
L 2284 0 
L 1503 0 
L 191 3500 
z
" transform="scale(0.015625)"/>
      <path id="DejaVuSans-69" d="M 603 3500 
L 1178 3500 
L 1178 0 
L 603 0 
L 603 3500 
z
M 603 4863 
L 1178 4863 
L 1178 4134 
L 603 4134 
L 603 4863 
z
" transform="scale(0.015625)"/>
      <path id="DejaVuSans-61" d="M 2194 1759 
Q 1497 1759 1228 1600 
Q 959 1441 959 1056 
Q 959 750 1161 570 
Q 1363 391 1709 391 
Q 2188 391 2477 730 
Q 2766 1069 2766 1631 
L 2766 1759 
L 2194 1759 
z
M 3341 1997 
L 3341 0 
L 2766 0 
L 2766 531 
Q 2569 213 2275 61 
Q 1981 -91 1556 -91 
Q 1019 -91 701 211 
Q 384 513 384 1019 
Q 384 1609 779 1909 
Q 1175 2209 1959 2209 
L 2766 2209 
L 2766 2266 
Q 2766 2663 2505 2880 
Q 2244 3097 1772 3097 
Q 1472 3097 1187 3025 
Q 903 2953 641 2809 
L 641 3341 
Q 956 3463 1253 3523 
Q 1550 3584 1831 3584 
Q 2591 3584 2966 3190 
Q 3341 2797 3341 1997 
z
" transform="scale(0.015625)"/>
      <path id="DejaVuSans-74" d="M 1172 4494 
L 1172 3500 
L 2356 3500 
L 2356 3053 
L 1172 3053 
L 1172 1153 
Q 1172 725 1289 603 
Q 1406 481 1766 481 
L 2356 481 
L 2356 0 
L 1766 0 
Q 1100 0 847 248 
Q 594 497 594 1153 
L 594 3053 
L 172 3053 
L 172 3500 
L 594 3500 
L 594 4494 
L 1172 4494 
z
" transform="scale(0.015625)"/>
      <path id="DejaVuSans-6f" d="M 1959 3097 
Q 1497 3097 1228 2736 
Q 959 2375 959 1747 
Q 959 1119 1226 758 
Q 1494 397 1959 397 
Q 2419 397 2687 759 
Q 2956 1122 2956 1747 
Q 2956 2369 2687 2733 
Q 2419 3097 1959 3097 
z
M 1959 3584 
Q 2709 3584 3137 3096 
Q 3566 2609 3566 1747 
Q 3566 888 3137 398 
Q 2709 -91 1959 -91 
Q 1206 -91 779 398 
Q 353 888 353 1747 
Q 353 2609 779 3096 
Q 1206 3584 1959 3584 
z
" transform="scale(0.015625)"/>
      <path id="DejaVuSans-6e" d="M 3513 2113 
L 3513 0 
L 2938 0 
L 2938 2094 
Q 2938 2591 2744 2837 
Q 2550 3084 2163 3084 
Q 1697 3084 1428 2787 
Q 1159 2491 1159 1978 
L 1159 0 
L 581 0 
L 581 3500 
L 1159 3500 
L 1159 2956 
Q 1366 3272 1645 3428 
Q 1925 3584 2291 3584 
Q 2894 3584 3203 3211 
Q 3513 2838 3513 2113 
z
" transform="scale(0.015625)"/>
      <path id="DejaVuSans-20" transform="scale(0.015625)"/>
      <path id="DejaVuSans-66" d="M 2375 4863 
L 2375 4384 
L 1825 4384 
Q 1516 4384 1395 4259 
Q 1275 4134 1275 3809 
L 1275 3500 
L 2222 3500 
L 2222 3053 
L 1275 3053 
L 1275 0 
L 697 0 
L 697 3053 
L 147 3053 
L 147 3500 
L 697 3500 
L 697 3744 
Q 697 4328 969 4595 
Q 1241 4863 1831 4863 
L 2375 4863 
z
" transform="scale(0.015625)"/>
      <path id="DejaVuSans-72" d="M 2631 2963 
Q 2534 3019 2420 3045 
Q 2306 3072 2169 3072 
Q 1681 3072 1420 2755 
Q 1159 2438 1159 1844 
L 1159 0 
L 581 0 
L 581 3500 
L 1159 3500 
L 1159 2956 
Q 1341 3275 1631 3429 
Q 1922 3584 2338 3584 
Q 2397 3584 2469 3576 
Q 2541 3569 2628 3553 
L 2631 2963 
z
" transform="scale(0.015625)"/>
      <path id="DejaVuSans-6d" d="M 3328 2828 
Q 3544 3216 3844 3400 
Q 4144 3584 4550 3584 
Q 5097 3584 5394 3201 
Q 5691 2819 5691 2113 
L 5691 0 
L 5113 0 
L 5113 2094 
Q 5113 2597 4934 2840 
Q 4756 3084 4391 3084 
Q 3944 3084 3684 2787 
Q 3425 2491 3425 1978 
L 3425 0 
L 2847 0 
L 2847 2094 
Q 2847 2600 2669 2842 
Q 2491 3084 2119 3084 
Q 1678 3084 1418 2786 
Q 1159 2488 1159 1978 
L 1159 0 
L 581 0 
L 581 3500 
L 1159 3500 
L 1159 2956 
Q 1356 3278 1631 3431 
Q 1906 3584 2284 3584 
Q 2666 3584 2933 3390 
Q 3200 3197 3328 2828 
z
" transform="scale(0.015625)"/>
      <path id="DejaVuSans-67" d="M 2906 1791 
Q 2906 2416 2648 2759 
Q 2391 3103 1925 3103 
Q 1463 3103 1205 2759 
Q 947 2416 947 1791 
Q 947 1169 1205 825 
Q 1463 481 1925 481 
Q 2391 481 2648 825 
Q 2906 1169 2906 1791 
z
M 3481 434 
Q 3481 -459 3084 -895 
Q 2688 -1331 1869 -1331 
Q 1566 -1331 1297 -1286 
Q 1028 -1241 775 -1147 
L 775 -588 
Q 1028 -725 1275 -790 
Q 1522 -856 1778 -856 
Q 2344 -856 2625 -561 
Q 2906 -266 2906 331 
L 2906 616 
Q 2728 306 2450 153 
Q 2172 0 1784 0 
Q 1141 0 747 490 
Q 353 981 353 1791 
Q 353 2603 747 3093 
Q 1141 3584 1784 3584 
Q 2172 3584 2450 3431 
Q 2728 3278 2906 2969 
L 2906 3500 
L 3481 3500 
L 3481 434 
z
" transform="scale(0.015625)"/>
      <path id="DejaVuSans-73" d="M 2834 3397 
L 2834 2853 
Q 2591 2978 2328 3040 
Q 2066 3103 1784 3103 
Q 1356 3103 1142 2972 
Q 928 2841 928 2578 
Q 928 2378 1081 2264 
Q 1234 2150 1697 2047 
L 1894 2003 
Q 2506 1872 2764 1633 
Q 3022 1394 3022 966 
Q 3022 478 2636 193 
Q 2250 -91 1575 -91 
Q 1294 -91 989 -36 
Q 684 19 347 128 
L 347 722 
Q 666 556 975 473 
Q 1284 391 1588 391 
Q 1994 391 2212 530 
Q 2431 669 2431 922 
Q 2431 1156 2273 1281 
Q 2116 1406 1581 1522 
L 1381 1569 
Q 847 1681 609 1914 
Q 372 2147 372 2553 
Q 372 3047 722 3315 
Q 1072 3584 1716 3584 
Q 2034 3584 2315 3537 
Q 2597 3491 2834 3397 
z
" transform="scale(0.015625)"/>
      <path id="DejaVuSans-6c" d="M 603 4863 
L 1178 4863 
L 1178 0 
L 603 0 
L 603 4863 
z
" transform="scale(0.015625)"/>
      <path id="DejaVuSans-64" d="M 2906 2969 
L 2906 4863 
L 3481 4863 
L 3481 0 
L 2906 0 
L 2906 525 
Q 2725 213 2448 61 
Q 2172 -91 1784 -91 
Q 1150 -91 751 415 
Q 353 922 353 1747 
Q 353 2572 751 3078 
Q 1150 3584 1784 3584 
Q 2172 3584 2448 3432 
Q 2725 3281 2906 2969 
z
M 947 1747 
Q 947 1113 1208 752 
Q 1469 391 1925 391 
Q 2381 391 2643 752 
Q 2906 1113 2906 1747 
Q 2906 2381 2643 2742 
Q 2381 3103 1925 3103 
Q 1469 3103 1208 2742 
Q 947 2381 947 1747 
z
" transform="scale(0.015625)"/>
      <path id="DejaVuSans-77" d="M 269 3500 
L 844 3500 
L 1563 769 
L 2278 3500 
L 2956 3500 
L 3675 769 
L 4391 3500 
L 4966 3500 
L 4050 0 
L 3372 0 
L 2619 2869 
L 1863 0 
L 1184 0 
L 269 3500 
z
" transform="scale(0.015625)"/>
     </defs>
     <use xlink:href="#DejaVuSans-44"/>
     <use xlink:href="#DejaVuSans-65" x="77.001953"/>
     <use xlink:href="#DejaVuSans-76" x="138.525391"/>
     <use xlink:href="#DejaVuSans-69" x="197.705078"/>
     <use xlink:href="#DejaVuSans-61" x="225.488281"/>
     <use xlink:href="#DejaVuSans-74" x="286.767578"/>
     <use xlink:href="#DejaVuSans-69" x="325.976562"/>
     <use xlink:href="#DejaVuSans-6f" x="353.759766"/>
     <use xlink:href="#DejaVuSans-6e" x="414.941406"/>
     <use xlink:href="#DejaVuSans-20" x="478.320312"/>
     <use xlink:href="#DejaVuSans-66" x="510.107422"/>
     <use xlink:href="#DejaVuSans-72" x="545.3125"/>
     <use xlink:href="#DejaVuSans-6f" x="584.175781"/>
     <use xlink:href="#DejaVuSans-6d" x="645.357422"/>
     <use xlink:href="#DejaVuSans-20" x="742.769531"/>
     <use xlink:href="#DejaVuSans-61" x="774.556641"/>
     <use xlink:href="#DejaVuSans-76" x="835.835938"/>
     <use xlink:href="#DejaVuSans-65" x="895.015625"/>
     <use xlink:href="#DejaVuSans-72" x="956.539062"/>
     <use xlink:href="#DejaVuSans-61" x="997.652344"/>
     <use xlink:href="#DejaVuSans-67" x="1058.931641"/>
     <use xlink:href="#DejaVuSans-65" x="1122.408203"/>
     <use xlink:href="#DejaVuSans-20" x="1183.931641"/>
     <use xlink:href="#DejaVuSans-66" x="1215.71875"/>
     <use xlink:href="#DejaVuSans-6f" x="1250.923828"/>
     <use xlink:href="#DejaVuSans-72" x="1312.105469"/>
     <use xlink:href="#DejaVuSans-20" x="1353.21875"/>
     <use xlink:href="#DejaVuSans-73" x="1385.005859"/>
     <use xlink:href="#DejaVuSans-69" x="1437.105469"/>
     <use xlink:href="#DejaVuSans-6e" x="1464.888672"/>
     <use xlink:href="#DejaVuSans-67" x="1528.267578"/>
     <use xlink:href="#DejaVuSans-6c" x="1591.744141"/>
     <use xlink:href="#DejaVuSans-65" x="1619.527344"/>
     <use xlink:href="#DejaVuSans-20" x="1681.050781"/>
     <use xlink:href="#DejaVuSans-64" x="1712.837891"/>
     <use xlink:href="#DejaVuSans-72" x="1776.314453"/>
     <use xlink:href="#DejaVuSans-61" x="1817.427734"/>
     <use xlink:href="#DejaVuSans-77" x="1878.707031"/>
    </g>
   </g>
   <g id="legend_1">
    <g id="patch_7">
     <path d="M 79 65.878125 
L 205.015625 65.878125 
Q 207.015625 65.878125 207.015625 63.878125 
L 207.015625 50.2 
Q 207.015625 48.2 205.015625 48.2 
L 79 48.2 
Q 77 48.2 77 50.2 
L 77 63.878125 
Q 77 65.878125 79 65.878125 
z
" style="fill: #e5e5e5; opacity: 0.8; stroke: #cccccc; stroke-width: 0.5; stroke-linejoin: miter"/>
    </g>
    <g id="patch_8">
     <path d="M 81 59.798437 
L 101 59.798437 
L 101 52.798437 
L 81 52.798437 
z
" style="fill: #f08080; fill-opacity: 0.4"/>
    </g>
    <g id="text_17">
     <!-- standard deviation -->
     <g transform="translate(109 59.798437)scale(0.1 -0.1)">
      <use xlink:href="#DejaVuSans-73"/>
      <use xlink:href="#DejaVuSans-74" x="52.099609"/>
      <use xlink:href="#DejaVuSans-61" x="91.308594"/>
      <use xlink:href="#DejaVuSans-6e" x="152.587891"/>
      <use xlink:href="#DejaVuSans-64" x="215.966797"/>
      <use xlink:href="#DejaVuSans-61" x="279.443359"/>
      <use xlink:href="#DejaVuSans-72" x="340.722656"/>
      <use xlink:href="#DejaVuSans-64" x="380.085938"/>
      <use xlink:href="#DejaVuSans-20" x="443.5625"/>
      <use xlink:href="#DejaVuSans-64" x="475.349609"/>
      <use xlink:href="#DejaVuSans-65" x="538.826172"/>
      <use xlink:href="#DejaVuSans-76" x="600.349609"/>
      <use xlink:href="#DejaVuSans-69" x="659.529297"/>
      <use xlink:href="#DejaVuSans-61" x="687.3125"/>
      <use xlink:href="#DejaVuSans-74" x="748.591797"/>
      <use xlink:href="#DejaVuSans-69" x="787.800781"/>
      <use xlink:href="#DejaVuSans-6f" x="815.583984"/>
      <use xlink:href="#DejaVuSans-6e" x="876.765625"/>
     </g>
    </g>
   </g>
  </g>
 </g>
 <defs>
  <clipPath id="p77fcd0c556">
   <rect x="72" y="43.2" width="446.4" height="277.2"/>
  </clipPath>
 </defs>
</svg>
