<?xml version="1.0" encoding="utf-8" standalone="no"?>
<!DOCTYPE svg PUBLIC "-//W3C//DTD SVG 1.1//EN"
  "http://www.w3.org/Graphics/SVG/1.1/DTD/svg11.dtd">
<svg xmlns:xlink="http://www.w3.org/1999/xlink" width="360pt" height="360pt" viewBox="0 0 360 360" xmlns="http://www.w3.org/2000/svg" version="1.1">
 <metadata>
  <rdf:RDF xmlns:dc="http://purl.org/dc/elements/1.1/" xmlns:cc="http://creativecommons.org/ns#" xmlns:rdf="http://www.w3.org/1999/02/22-rdf-syntax-ns#">
   <cc:Work>
    <dc:type rdf:resource="http://purl.org/dc/dcmitype/StillImage"/>
    <dc:date>2022-11-13T21:49:34.503895</dc:date>
    <dc:format>image/svg+xml</dc:format>
    <dc:creator>
     <cc:Agent>
      <dc:title>Matplotlib v3.5.3, https://matplotlib.org/</dc:title>
     </cc:Agent>
    </dc:creator>
   </cc:Work>
  </rdf:RDF>
 </metadata>
 <defs>
  <style type="text/css">*{stroke-linejoin: round; stroke-linecap: butt}</style>
 </defs>
 <g id="figure_1">
  <g id="patch_1">
   <path d="M 0 360 
L 360 360 
L 360 0 
L 0 0 
z
" style="fill: #ffffff"/>
  </g>
  <g id="axes_1">
   <g id="patch_2">
    <path d="M 45 320.4 
L 324 320.4 
L 324 43.2 
L 45 43.2 
z
" style="fill: #ffffff"/>
   </g>
   <g id="matplotlib.axis_1">
    <g id="xtick_1">
     <g id="line2d_1">
      <defs>
       <path id="m1a1a8e0d6e" d="M 0 0 
L 0 3.5 
" style="stroke: #000000; stroke-width: 0.8"/>
      </defs>
      <g>
       <use xlink:href="#m1a1a8e0d6e" x="83.045455" y="320.4" style="stroke: #000000; stroke-width: 0.8"/>
      </g>
     </g>
     <g id="text_1">
      <!-- −2 -->
      <g transform="translate(75.674361 334.998438)scale(0.1 -0.1)">
       <defs>
        <path id="DejaVuSans-2212" d="M 678 2272 
L 4684 2272 
L 4684 1741 
L 678 1741 
L 678 2272 
z
" transform="scale(0.015625)"/>
        <path id="DejaVuSans-32" d="M 1228 531 
L 3431 531 
L 3431 0 
L 469 0 
L 469 531 
Q 828 903 1448 1529 
Q 2069 2156 2228 2338 
Q 2531 2678 2651 2914 
Q 2772 3150 2772 3378 
Q 2772 3750 2511 3984 
Q 2250 4219 1831 4219 
Q 1534 4219 1204 4116 
Q 875 4013 500 3803 
L 500 4441 
Q 881 4594 1212 4672 
Q 1544 4750 1819 4750 
Q 2544 4750 2975 4387 
Q 3406 4025 3406 3419 
Q 3406 3131 3298 2873 
Q 3191 2616 2906 2266 
Q 2828 2175 2409 1742 
Q 1991 1309 1228 531 
z
" transform="scale(0.015625)"/>
       </defs>
       <use xlink:href="#DejaVuSans-2212"/>
       <use xlink:href="#DejaVuSans-32" x="83.789062"/>
      </g>
     </g>
    </g>
    <g id="xtick_2">
     <g id="line2d_2">
      <g>
       <use xlink:href="#m1a1a8e0d6e" x="133.772727" y="320.4" style="stroke: #000000; stroke-width: 0.8"/>
      </g>
     </g>
     <g id="text_2">
      <!-- −1 -->
      <g transform="translate(126.401634 334.998438)scale(0.1 -0.1)">
       <defs>
        <path id="DejaVuSans-31" d="M 794 531 
L 1825 531 
L 1825 4091 
L 703 3866 
L 703 4441 
L 1819 4666 
L 2450 4666 
L 2450 531 
L 3481 531 
L 3481 0 
L 794 0 
L 794 531 
z
" transform="scale(0.015625)"/>
       </defs>
       <use xlink:href="#DejaVuSans-2212"/>
       <use xlink:href="#DejaVuSans-31" x="83.789062"/>
      </g>
     </g>
    </g>
    <g id="xtick_3">
     <g id="line2d_3">
      <g>
       <use xlink:href="#m1a1a8e0d6e" x="184.5" y="320.4" style="stroke: #000000; stroke-width: 0.8"/>
      </g>
     </g>
     <g id="text_3">
      <!-- 0 -->
      <g transform="translate(181.31875 334.998438)scale(0.1 -0.1)">
       <defs>
        <path id="DejaVuSans-30" d="M 2034 4250 
Q 1547 4250 1301 3770 
Q 1056 3291 1056 2328 
Q 1056 1369 1301 889 
Q 1547 409 2034 409 
Q 2525 409 2770 889 
Q 3016 1369 3016 2328 
Q 3016 3291 2770 3770 
Q 2525 4250 2034 4250 
z
M 2034 4750 
Q 2819 4750 3233 4129 
Q 3647 3509 3647 2328 
Q 3647 1150 3233 529 
Q 2819 -91 2034 -91 
Q 1250 -91 836 529 
Q 422 1150 422 2328 
Q 422 3509 836 4129 
Q 1250 4750 2034 4750 
z
" transform="scale(0.015625)"/>
       </defs>
       <use xlink:href="#DejaVuSans-30"/>
      </g>
     </g>
    </g>
    <g id="xtick_4">
     <g id="line2d_4">
      <g>
       <use xlink:href="#m1a1a8e0d6e" x="235.227273" y="320.4" style="stroke: #000000; stroke-width: 0.8"/>
      </g>
     </g>
     <g id="text_4">
      <!-- 1 -->
      <g transform="translate(232.046023 334.998438)scale(0.1 -0.1)">
       <use xlink:href="#DejaVuSans-31"/>
      </g>
     </g>
    </g>
    <g id="xtick_5">
     <g id="line2d_5">
      <g>
       <use xlink:href="#m1a1a8e0d6e" x="285.954545" y="320.4" style="stroke: #000000; stroke-width: 0.8"/>
      </g>
     </g>
     <g id="text_5">
      <!-- 2 -->
      <g transform="translate(282.773295 334.998438)scale(0.1 -0.1)">
       <use xlink:href="#DejaVuSans-32"/>
      </g>
     </g>
    </g>
   </g>
   <g id="matplotlib.axis_2">
    <g id="ytick_1">
     <g id="line2d_6">
      <defs>
       <path id="m59b108e4b2" d="M 0 0 
L -3.5 0 
" style="stroke: #000000; stroke-width: 0.8"/>
      </defs>
      <g>
       <use xlink:href="#m59b108e4b2" x="45" y="306.022762" style="stroke: #000000; stroke-width: 0.8"/>
      </g>
     </g>
     <g id="text_6">
      <!-- $\mathdefault{10^{-4}}$ -->
      <g transform="translate(14.5 309.821981)scale(0.1 -0.1)">
       <defs>
        <path id="DejaVuSans-34" d="M 2419 4116 
L 825 1625 
L 2419 1625 
L 2419 4116 
z
M 2253 4666 
L 3047 4666 
L 3047 1625 
L 3713 1625 
L 3713 1100 
L 3047 1100 
L 3047 0 
L 2419 0 
L 2419 1100 
L 313 1100 
L 313 1709 
L 2253 4666 
z
" transform="scale(0.015625)"/>
       </defs>
       <use xlink:href="#DejaVuSans-31" transform="translate(0 0.684375)"/>
       <use xlink:href="#DejaVuSans-30" transform="translate(63.623047 0.684375)"/>
       <use xlink:href="#DejaVuSans-2212" transform="translate(128.203125 38.965625)scale(0.7)"/>
       <use xlink:href="#DejaVuSans-34" transform="translate(186.855469 38.965625)scale(0.7)"/>
      </g>
     </g>
    </g>
    <g id="ytick_2">
     <g id="line2d_7">
      <g>
       <use xlink:href="#m59b108e4b2" x="45" y="243.150313" style="stroke: #000000; stroke-width: 0.8"/>
      </g>
     </g>
     <g id="text_7">
      <!-- $\mathdefault{10^{-3}}$ -->
      <g transform="translate(14.5 246.949532)scale(0.1 -0.1)">
       <defs>
        <path id="DejaVuSans-33" d="M 2597 2516 
Q 3050 2419 3304 2112 
Q 3559 1806 3559 1356 
Q 3559 666 3084 287 
Q 2609 -91 1734 -91 
Q 1441 -91 1130 -33 
Q 819 25 488 141 
L 488 750 
Q 750 597 1062 519 
Q 1375 441 1716 441 
Q 2309 441 2620 675 
Q 2931 909 2931 1356 
Q 2931 1769 2642 2001 
Q 2353 2234 1838 2234 
L 1294 2234 
L 1294 2753 
L 1863 2753 
Q 2328 2753 2575 2939 
Q 2822 3125 2822 3475 
Q 2822 3834 2567 4026 
Q 2313 4219 1838 4219 
Q 1578 4219 1281 4162 
Q 984 4106 628 3988 
L 628 4550 
Q 988 4650 1302 4700 
Q 1616 4750 1894 4750 
Q 2613 4750 3031 4423 
Q 3450 4097 3450 3541 
Q 3450 3153 3228 2886 
Q 3006 2619 2597 2516 
z
" transform="scale(0.015625)"/>
       </defs>
       <use xlink:href="#DejaVuSans-31" transform="translate(0 0.765625)"/>
       <use xlink:href="#DejaVuSans-30" transform="translate(63.623047 0.765625)"/>
       <use xlink:href="#DejaVuSans-2212" transform="translate(128.203125 39.046875)scale(0.7)"/>
       <use xlink:href="#DejaVuSans-33" transform="translate(186.855469 39.046875)scale(0.7)"/>
      </g>
     </g>
    </g>
    <g id="ytick_3">
     <g id="line2d_8">
      <g>
       <use xlink:href="#m59b108e4b2" x="45" y="180.277865" style="stroke: #000000; stroke-width: 0.8"/>
      </g>
     </g>
     <g id="text_8">
      <!-- $\mathdefault{10^{-2}}$ -->
      <g transform="translate(14.5 184.077083)scale(0.1 -0.1)">
       <use xlink:href="#DejaVuSans-31" transform="translate(0 0.765625)"/>
       <use xlink:href="#DejaVuSans-30" transform="translate(63.623047 0.765625)"/>
       <use xlink:href="#DejaVuSans-2212" transform="translate(128.203125 39.046875)scale(0.7)"/>
       <use xlink:href="#DejaVuSans-32" transform="translate(186.855469 39.046875)scale(0.7)"/>
      </g>
     </g>
    </g>
    <g id="ytick_4">
     <g id="line2d_9">
      <g>
       <use xlink:href="#m59b108e4b2" x="45" y="117.405416" style="stroke: #000000; stroke-width: 0.8"/>
      </g>
     </g>
     <g id="text_9">
      <!-- $\mathdefault{10^{-1}}$ -->
      <g transform="translate(14.5 121.204634)scale(0.1 -0.1)">
       <use xlink:href="#DejaVuSans-31" transform="translate(0 0.684375)"/>
       <use xlink:href="#DejaVuSans-30" transform="translate(63.623047 0.684375)"/>
       <use xlink:href="#DejaVuSans-2212" transform="translate(128.203125 38.965625)scale(0.7)"/>
       <use xlink:href="#DejaVuSans-31" transform="translate(186.855469 38.965625)scale(0.7)"/>
      </g>
     </g>
    </g>
    <g id="ytick_5">
     <g id="line2d_10">
      <g>
       <use xlink:href="#m59b108e4b2" x="45" y="54.532967" style="stroke: #000000; stroke-width: 0.8"/>
      </g>
     </g>
     <g id="text_10">
      <!-- $\mathdefault{10^{0}}$ -->
      <g transform="translate(20.4 58.332186)scale(0.1 -0.1)">
       <use xlink:href="#DejaVuSans-31" transform="translate(0 0.765625)"/>
       <use xlink:href="#DejaVuSans-30" transform="translate(63.623047 0.765625)"/>
       <use xlink:href="#DejaVuSans-30" transform="translate(128.203125 39.046875)scale(0.7)"/>
      </g>
     </g>
    </g>
    <g id="ytick_6">
     <g id="line2d_11">
      <defs>
       <path id="m4650aaa38a" d="M 0 0 
L -2 0 
" style="stroke: #000000; stroke-width: 0.6"/>
      </defs>
      <g>
       <use xlink:href="#m4650aaa38a" x="45" y="319.970936" style="stroke: #000000; stroke-width: 0.6"/>
      </g>
     </g>
    </g>
    <g id="ytick_7">
     <g id="line2d_12">
      <g>
       <use xlink:href="#m4650aaa38a" x="45" y="315.761828" style="stroke: #000000; stroke-width: 0.6"/>
      </g>
     </g>
    </g>
    <g id="ytick_8">
     <g id="line2d_13">
      <g>
       <use xlink:href="#m4650aaa38a" x="45" y="312.115732" style="stroke: #000000; stroke-width: 0.6"/>
      </g>
     </g>
    </g>
    <g id="ytick_9">
     <g id="line2d_14">
      <g>
       <use xlink:href="#m4650aaa38a" x="45" y="308.899648" style="stroke: #000000; stroke-width: 0.6"/>
      </g>
     </g>
    </g>
    <g id="ytick_10">
     <g id="line2d_15">
      <g>
       <use xlink:href="#m4650aaa38a" x="45" y="287.096269" style="stroke: #000000; stroke-width: 0.6"/>
      </g>
     </g>
    </g>
    <g id="ytick_11">
     <g id="line2d_16">
      <g>
       <use xlink:href="#m4650aaa38a" x="45" y="276.024981" style="stroke: #000000; stroke-width: 0.6"/>
      </g>
     </g>
    </g>
    <g id="ytick_12">
     <g id="line2d_17">
      <g>
       <use xlink:href="#m4650aaa38a" x="45" y="268.169776" style="stroke: #000000; stroke-width: 0.6"/>
      </g>
     </g>
    </g>
    <g id="ytick_13">
     <g id="line2d_18">
      <g>
       <use xlink:href="#m4650aaa38a" x="45" y="262.076806" style="stroke: #000000; stroke-width: 0.6"/>
      </g>
     </g>
    </g>
    <g id="ytick_14">
     <g id="line2d_19">
      <g>
       <use xlink:href="#m4650aaa38a" x="45" y="257.098488" style="stroke: #000000; stroke-width: 0.6"/>
      </g>
     </g>
    </g>
    <g id="ytick_15">
     <g id="line2d_20">
      <g>
       <use xlink:href="#m4650aaa38a" x="45" y="252.889379" style="stroke: #000000; stroke-width: 0.6"/>
      </g>
     </g>
    </g>
    <g id="ytick_16">
     <g id="line2d_21">
      <g>
       <use xlink:href="#m4650aaa38a" x="45" y="249.243283" style="stroke: #000000; stroke-width: 0.6"/>
      </g>
     </g>
    </g>
    <g id="ytick_17">
     <g id="line2d_22">
      <g>
       <use xlink:href="#m4650aaa38a" x="45" y="246.027199" style="stroke: #000000; stroke-width: 0.6"/>
      </g>
     </g>
    </g>
    <g id="ytick_18">
     <g id="line2d_23">
      <g>
       <use xlink:href="#m4650aaa38a" x="45" y="224.22382" style="stroke: #000000; stroke-width: 0.6"/>
      </g>
     </g>
    </g>
    <g id="ytick_19">
     <g id="line2d_24">
      <g>
       <use xlink:href="#m4650aaa38a" x="45" y="213.152532" style="stroke: #000000; stroke-width: 0.6"/>
      </g>
     </g>
    </g>
    <g id="ytick_20">
     <g id="line2d_25">
      <g>
       <use xlink:href="#m4650aaa38a" x="45" y="205.297327" style="stroke: #000000; stroke-width: 0.6"/>
      </g>
     </g>
    </g>
    <g id="ytick_21">
     <g id="line2d_26">
      <g>
       <use xlink:href="#m4650aaa38a" x="45" y="199.204358" style="stroke: #000000; stroke-width: 0.6"/>
      </g>
     </g>
    </g>
    <g id="ytick_22">
     <g id="line2d_27">
      <g>
       <use xlink:href="#m4650aaa38a" x="45" y="194.226039" style="stroke: #000000; stroke-width: 0.6"/>
      </g>
     </g>
    </g>
    <g id="ytick_23">
     <g id="line2d_28">
      <g>
       <use xlink:href="#m4650aaa38a" x="45" y="190.01693" style="stroke: #000000; stroke-width: 0.6"/>
      </g>
     </g>
    </g>
    <g id="ytick_24">
     <g id="line2d_29">
      <g>
       <use xlink:href="#m4650aaa38a" x="45" y="186.370834" style="stroke: #000000; stroke-width: 0.6"/>
      </g>
     </g>
    </g>
    <g id="ytick_25">
     <g id="line2d_30">
      <g>
       <use xlink:href="#m4650aaa38a" x="45" y="183.15475" style="stroke: #000000; stroke-width: 0.6"/>
      </g>
     </g>
    </g>
    <g id="ytick_26">
     <g id="line2d_31">
      <g>
       <use xlink:href="#m4650aaa38a" x="45" y="161.351372" style="stroke: #000000; stroke-width: 0.6"/>
      </g>
     </g>
    </g>
    <g id="ytick_27">
     <g id="line2d_32">
      <g>
       <use xlink:href="#m4650aaa38a" x="45" y="150.280083" style="stroke: #000000; stroke-width: 0.6"/>
      </g>
     </g>
    </g>
    <g id="ytick_28">
     <g id="line2d_33">
      <g>
       <use xlink:href="#m4650aaa38a" x="45" y="142.424879" style="stroke: #000000; stroke-width: 0.6"/>
      </g>
     </g>
    </g>
    <g id="ytick_29">
     <g id="line2d_34">
      <g>
       <use xlink:href="#m4650aaa38a" x="45" y="136.331909" style="stroke: #000000; stroke-width: 0.6"/>
      </g>
     </g>
    </g>
    <g id="ytick_30">
     <g id="line2d_35">
      <g>
       <use xlink:href="#m4650aaa38a" x="45" y="131.35359" style="stroke: #000000; stroke-width: 0.6"/>
      </g>
     </g>
    </g>
    <g id="ytick_31">
     <g id="line2d_36">
      <g>
       <use xlink:href="#m4650aaa38a" x="45" y="127.144481" style="stroke: #000000; stroke-width: 0.6"/>
      </g>
     </g>
    </g>
    <g id="ytick_32">
     <g id="line2d_37">
      <g>
       <use xlink:href="#m4650aaa38a" x="45" y="123.498386" style="stroke: #000000; stroke-width: 0.6"/>
      </g>
     </g>
    </g>
    <g id="ytick_33">
     <g id="line2d_38">
      <g>
       <use xlink:href="#m4650aaa38a" x="45" y="120.282301" style="stroke: #000000; stroke-width: 0.6"/>
      </g>
     </g>
    </g>
    <g id="ytick_34">
     <g id="line2d_39">
      <g>
       <use xlink:href="#m4650aaa38a" x="45" y="98.478923" style="stroke: #000000; stroke-width: 0.6"/>
      </g>
     </g>
    </g>
    <g id="ytick_35">
     <g id="line2d_40">
      <g>
       <use xlink:href="#m4650aaa38a" x="45" y="87.407634" style="stroke: #000000; stroke-width: 0.6"/>
      </g>
     </g>
    </g>
    <g id="ytick_36">
     <g id="line2d_41">
      <g>
       <use xlink:href="#m4650aaa38a" x="45" y="79.55243" style="stroke: #000000; stroke-width: 0.6"/>
      </g>
     </g>
    </g>
    <g id="ytick_37">
     <g id="line2d_42">
      <g>
       <use xlink:href="#m4650aaa38a" x="45" y="73.45946" style="stroke: #000000; stroke-width: 0.6"/>
      </g>
     </g>
    </g>
    <g id="ytick_38">
     <g id="line2d_43">
      <g>
       <use xlink:href="#m4650aaa38a" x="45" y="68.481141" style="stroke: #000000; stroke-width: 0.6"/>
      </g>
     </g>
    </g>
    <g id="ytick_39">
     <g id="line2d_44">
      <g>
       <use xlink:href="#m4650aaa38a" x="45" y="64.272032" style="stroke: #000000; stroke-width: 0.6"/>
      </g>
     </g>
    </g>
    <g id="ytick_40">
     <g id="line2d_45">
      <g>
       <use xlink:href="#m4650aaa38a" x="45" y="60.625937" style="stroke: #000000; stroke-width: 0.6"/>
      </g>
     </g>
    </g>
    <g id="ytick_41">
     <g id="line2d_46">
      <g>
       <use xlink:href="#m4650aaa38a" x="45" y="57.409852" style="stroke: #000000; stroke-width: 0.6"/>
      </g>
     </g>
    </g>
   </g>
   <g id="line2d_47">
    <path d="M 83.045455 84.016657 
L 83.553997 87.291006 
L 84.571087 95.427943 
L 85.588177 107.844533 
L 86.605262 128.466767 
L 87.622352 169.029997 
L 88.1309 140.060522 
L 88.639442 122.59452 
L 89.656533 106.117894 
L 90.673617 96.386556 
L 92.199249 87.268373 
L 93.724882 81.813979 
L 94.233424 80.34111 
L 94.741966 79.539583 
L 95.250514 78.072446 
L 96.267605 76.770182 
L 96.776147 76.169548 
L 97.284689 76.017885 
L 97.793237 75.475443 
L 98.301779 75.950816 
L 98.810322 75.481421 
L 99.318864 76.150413 
L 99.827406 76.293466 
L 100.335954 76.609114 
L 100.844496 77.516132 
L 101.353038 78.137559 
L 101.861587 79.288139 
L 102.370129 80.159323 
L 102.878671 81.302352 
L 103.895761 84.559857 
L 104.912852 89.461369 
L 105.929942 94.672285 
L 106.947026 103.454764 
L 107.964117 115.727975 
L 108.472665 125.300739 
L 108.981207 143.886073 
L 109.489749 197.091592 
L 109.998297 144.361941 
L 110.506839 127.349896 
L 111.015382 116.078419 
L 111.523924 108.373967 
L 112.541014 97.167105 
L 113.049556 93.998944 
L 113.558098 90.081039 
L 115.083731 82.337539 
L 115.592273 80.082709 
L 117.117905 75.634092 
L 118.643538 72.066317 
L 119.660628 70.672262 
L 120.16917 70.611891 
L 121.186261 69.963422 
L 122.203351 69.523835 
L 123.220435 69.738066 
L 124.237526 70.906415 
L 124.746074 71.192587 
L 125.254616 72.151569 
L 125.763158 72.74229 
L 126.271706 73.972257 
L 126.780249 74.896531 
L 127.797333 78.039941 
L 128.305875 79.463193 
L 129.322965 83.711928 
L 129.831507 85.765065 
L 130.340056 88.421009 
L 131.35714 95.690016 
L 131.865688 98.802428 
L 132.882779 110.357032 
L 133.899866 127.745297 
L 134.408408 139.881023 
L 134.916953 170.295082 
L 135.425495 169.464968 
L 135.934037 145.323727 
L 136.442583 130.120374 
L 136.951125 121.794963 
L 137.968215 111.78986 
L 138.476757 108.711024 
L 138.985302 107.60847 
L 139.493845 104.736514 
L 140.002393 103.199496 
L 140.510938 101.014911 
L 141.01948 100.352446 
L 141.528025 100.012798 
L 142.03657 100.05903 
L 142.545113 99.266972 
L 143.053658 99.768801 
L 143.5622 100.061072 
L 144.070742 101.147375 
L 144.579287 101.73645 
L 145.087829 103.085572 
L 145.596375 103.94055 
L 146.10492 105.541291 
L 146.613462 107.542161 
L 147.630549 112.199129 
L 148.139097 117.430807 
L 148.647643 119.843983 
L 149.156185 126.395092 
L 150.173275 135.932894 
L 151.190362 165.538038 
L 151.698904 220.356837 
L 152.207453 178.48278 
L 152.715998 155.543745 
L 153.22454 138.897116 
L 154.24163 126.162464 
L 154.750172 124.080283 
L 155.258718 118.316227 
L 155.76726 117.803111 
L 156.275802 115.038614 
L 156.784347 113.118365 
L 157.292889 111.795208 
L 157.801434 110.945764 
L 158.30998 110.721624 
L 158.818522 112.927074 
L 159.327067 112.483719 
L 159.835611 114.507603 
L 160.344157 115.843832 
L 160.852701 119.057994 
L 161.361246 119.576709 
L 161.86979 126.099122 
L 162.378333 128.530164 
L 162.886877 135.178412 
L 163.395422 143.925215 
L 163.903966 162.887776 
L 164.92105 190.16004 
L 165.429595 158.791723 
L 165.938139 141.726743 
L 166.446683 137.573726 
L 166.955226 130.085732 
L 167.463772 125.131562 
L 167.972315 124.10692 
L 168.989406 117.71866 
L 169.497951 116.779843 
L 170.006494 117.017666 
L 170.515038 118.13126 
L 171.023582 117.987126 
L 171.532127 119.293963 
L 172.549211 125.599282 
L 173.057756 133.887118 
L 173.566299 145.049841 
L 174.074844 153.736763 
L 174.583387 307.8 
L 175.091932 156.917476 
L 175.600476 138.925888 
L 176.617566 118.156269 
L 177.634655 106.710504 
L 179.160287 95.999002 
L 180.685922 89.399485 
L 181.194466 87.958067 
L 182.720098 86.279872 
L 183.228642 86.267043 
L 183.737186 86.42234 
L 184.24573 87.038826 
L 184.754271 88.607191 
L 185.771359 91.074808 
L 186.279903 93.760373 
L 186.788447 97.174978 
L 187.805536 107.031932 
L 188.31408 114.688297 
L 188.822626 124.581509 
L 189.33117 140.98279 
L 189.839714 201.800112 
L 190.348259 145.328856 
L 190.856803 122.753942 
L 191.365347 112.529779 
L 191.873891 105.504413 
L 192.890976 95.812027 
L 193.39952 92.251705 
L 194.416608 87.789879 
L 194.925152 86.403216 
L 195.433696 86.29536 
L 195.942241 85.631711 
L 196.959331 86.829533 
L 197.97642 91.888348 
L 198.484963 95.178275 
L 198.993507 99.22395 
L 199.502051 105.457754 
L 200.010596 115.062457 
L 200.51914 134.611386 
L 201.027686 199.584206 
L 201.53623 137.986286 
L 202.044775 118.81409 
L 202.553319 107.979643 
L 203.061862 100.684321 
L 204.078951 91.72258 
L 205.096036 86.053454 
L 206.113124 84.184641 
L 206.621668 84.186117 
L 207.130212 84.460467 
L 207.638755 85.708716 
L 208.655844 89.262655 
L 209.672935 96.505287 
L 210.181478 102.918696 
L 210.690023 111.56044 
L 211.198569 123.650418 
L 211.707111 151.624042 
L 212.215656 159.150653 
L 212.724198 124.521541 
L 213.741285 101.258412 
L 214.758373 89.611485 
L 215.77546 81.117421 
L 217.301096 73.768788 
L 218.826728 69.045421 
L 219.843815 67.011216 
L 220.35236 66.673945 
L 220.860903 65.934546 
L 221.369445 66.020005 
L 221.87799 65.971744 
L 222.386532 66.11156 
L 222.895077 66.135468 
L 223.403622 66.453698 
L 224.929252 68.820205 
L 225.946345 71.533867 
L 226.963433 75.18773 
L 227.98052 80.187805 
L 228.489065 83.078224 
L 230.014695 97.317744 
L 230.523237 104.72934 
L 231.031782 114.801249 
L 231.540327 130.890745 
L 232.048869 182.410347 
L 232.557414 136.312299 
L 233.065957 117.904015 
L 233.574505 106.253373 
L 234.08305 97.708087 
L 235.100137 86.712939 
L 236.117228 79.02193 
L 237.134312 73.416197 
L 238.151402 68.714122 
L 240.185583 62.726919 
L 240.694125 61.446143 
L 241.202667 60.536564 
L 241.711209 59.889109 
L 242.7283 58.205084 
L 244.253932 56.903771 
L 244.762474 56.833189 
L 245.271016 56.631853 
L 245.779559 56.708029 
L 246.796649 56.651271 
L 247.305191 56.89616 
L 249.339366 58.892778 
L 250.86501 60.969523 
L 251.882095 63.353747 
L 252.899185 65.748939 
L 254.93336 73.237843 
L 255.950444 78.140271 
L 256.967534 84.716627 
L 257.984618 93.558133 
L 259.001709 104.983174 
L 259.510251 116.037309 
L 260.018793 131.680173 
L 260.527341 162.152108 
L 261.035883 156.126898 
L 261.544426 128.799879 
L 262.052974 115.577719 
L 263.070064 98.953804 
L 264.595697 87.127865 
L 265.104239 84.040387 
L 265.612781 82.151711 
L 266.121329 79.52121 
L 267.138419 75.890184 
L 269.172594 71.622276 
L 269.681136 70.6275 
L 270.189678 69.965487 
L 271.715311 69.181315 
L 272.223853 68.757973 
L 272.732401 68.815241 
L 273.240943 68.734423 
L 273.749486 68.956529 
L 274.766576 69.842574 
L 275.275124 70.396301 
L 275.783666 70.560384 
L 276.292208 71.66216 
L 276.800757 72.130297 
L 279.343473 78.171338 
L 280.869106 84.133902 
L 281.88619 89.158414 
L 283.411829 100.460899 
L 283.920371 104.736194 
L 284.428913 110.510057 
L 284.937461 119.533732 
L 285.446003 131.356639 
L 285.954545 148.179332 
L 285.954545 148.179332 
" clip-path="url(#ped280baa35)" style="fill: none; stroke: #1f77b4; stroke-width: 1.5; stroke-linecap: square"/>
   </g>
   <g id="line2d_48">
    <path d="M 57.681818 69.82823 
L 58.317496 66.477347 
L 58.953174 66.601456 
L 59.588863 65.560326 
L 60.224541 65.082015 
L 60.860219 65.371148 
L 61.495896 64.439307 
L 62.131574 62.645058 
L 62.767264 61.866192 
L 63.402942 59.714053 
L 64.038619 60.043822 
L 64.674309 59.595531 
L 65.309987 56.967621 
L 65.945664 57.435926 
L 66.581342 56.51661 
L 67.21702 58.012383 
L 67.852697 57.653179 
L 68.488375 56.333822 
L 69.124053 57.800089 
L 69.759743 57.779333 
L 70.39542 56.945017 
L 71.031098 57.591355 
L 71.666776 58.447426 
L 72.302453 56.741412 
L 72.938143 56.848546 
L 73.573821 58.34922 
L 74.209498 59.526256 
L 74.845188 61.577332 
L 76.116544 61.379601 
L 76.752221 62.081105 
L 78.023577 66.430747 
L 78.659254 66.005927 
L 79.294932 70.868875 
L 79.930622 69.413313 
L 80.566299 74.240523 
L 81.201977 75.638321 
L 81.837655 79.189318 
L 82.473333 81.342113 
L 83.109022 86.868859 
L 83.7447 86.56454 
L 84.380384 95.45925 
L 85.016061 96.469926 
L 85.651745 101.965008 
L 86.287423 133.374251 
L 86.923101 208.077672 
L 87.558784 153.49821 
L 88.194462 162.135078 
L 88.83014 108.107301 
L 89.465823 106.62479 
L 90.101501 94.173349 
L 90.737185 90.895801 
L 91.372862 92.451541 
L 92.644224 86.267816 
L 93.279902 82.052246 
L 93.915579 84.780574 
L 94.551263 80.160845 
L 95.186941 76.549286 
L 95.822624 77.252631 
L 96.458302 77.43841 
L 97.09398 77.25655 
L 97.729663 73.855506 
L 98.365347 76.950606 
L 99.001025 74.461271 
L 99.636709 73.891296 
L 100.272386 75.23209 
L 100.90807 80.93534 
L 101.543748 81.713412 
L 102.179425 83.346247 
L 102.815109 83.911535 
L 103.450781 86.776795 
L 104.086458 85.38156 
L 104.722142 86.256637 
L 105.35782 95.02412 
L 105.993504 93.25106 
L 106.629181 96.837433 
L 107.264859 105.396886 
L 107.900543 120.916966 
L 108.536226 149.69848 
L 109.171904 147.794278 
L 109.807588 253.11438 
L 110.443266 123.246322 
L 111.078949 120.769302 
L 111.714627 110.471263 
L 112.350305 94.603311 
L 112.985988 93.717956 
L 113.621666 84.556229 
L 114.257344 81.293607 
L 114.893027 81.01691 
L 115.528705 78.430488 
L 116.164389 76.694432 
L 117.435744 74.178418 
L 118.071428 72.607757 
L 119.342783 68.450193 
L 119.978467 70.588427 
L 120.614145 70.475157 
L 121.249829 69.716875 
L 121.885506 70.160421 
L 122.521184 68.67394 
L 123.156868 67.602853 
L 123.792545 67.915916 
L 124.428223 69.229025 
L 125.063907 73.039278 
L 126.335268 73.975123 
L 126.970946 75.371103 
L 127.606623 76.308637 
L 128.242307 81.767125 
L 128.877991 79.794401 
L 129.513669 86.770958 
L 130.149352 89.643215 
L 130.78503 94.872116 
L 131.420714 89.835105 
L 132.056391 107.364248 
L 132.692069 99.793339 
L 133.963431 126.533279 
L 134.599111 126.02756 
L 135.234792 212.160466 
L 136.50615 165.572019 
L 137.141831 111.697003 
L 137.777512 122.088425 
L 138.413193 113.680465 
L 139.684551 106.621731 
L 140.320232 105.769976 
L 140.955909 98.637874 
L 141.59159 100.436809 
L 142.227271 109.338362 
L 142.862951 106.757536 
L 144.13431 95.912653 
L 144.769991 104.08973 
L 145.405671 99.955721 
L 146.041349 116.507657 
L 146.67703 104.34851 
L 147.31271 112.409063 
L 147.948391 114.359466 
L 148.584072 125.27969 
L 149.219749 162.70872 
L 149.85543 140.534074 
L 150.491111 278.317133 
L 151.126789 150.934567 
L 151.762469 136.357131 
L 152.39815 177.482793 
L 153.033831 145.883343 
L 153.669511 121.027565 
L 154.305195 128.953175 
L 154.940876 113.232644 
L 155.576557 119.084542 
L 156.212234 123.325967 
L 156.847915 107.916853 
L 157.483596 109.671303 
L 158.119276 106.666136 
L 158.754957 102.399627 
L 159.390635 105.925117 
L 160.026315 105.080333 
L 160.661995 117.132409 
L 161.297675 141.470762 
L 161.933355 147.488173 
L 162.569035 162.332862 
L 163.204716 173.040029 
L 163.840395 170.624802 
L 164.476068 133.34715 
L 165.111749 124.799413 
L 165.747428 123.595337 
L 166.383109 112.984036 
L 167.018788 113.435599 
L 167.654469 123.403578 
L 168.29015 127.436956 
L 168.925829 109.368374 
L 169.561514 108.477535 
L 170.197195 117.881124 
L 170.832874 107.017149 
L 171.468555 108.691317 
L 172.104235 126.714069 
L 172.739914 110.415253 
L 173.375594 131.753778 
L 174.011274 212.93792 
L 174.64696 198.118136 
L 175.28264 150.373601 
L 175.91832 162.29861 
L 176.554 123.086053 
L 177.18968 112.729326 
L 177.82536 104.238668 
L 179.09672 91.673426 
L 179.732393 98.058117 
L 180.368073 90.542361 
L 181.003753 91.149341 
L 181.639433 91.009809 
L 182.275114 86.584375 
L 182.910794 89.855556 
L 183.546474 83.014217 
L 184.182154 85.958081 
L 184.817839 90.229292 
L 185.453519 87.004974 
L 186.089199 97.679521 
L 186.724879 98.032692 
L 187.360559 101.787383 
L 187.996239 116.272513 
L 189.2676 137.511356 
L 189.903285 138.963971 
L 190.538964 192.117865 
L 191.174644 131.948017 
L 191.810325 103.365404 
L 192.446005 96.670881 
L 193.081685 101.92012 
L 193.717365 94.04834 
L 194.353045 89.560015 
L 194.98873 88.424512 
L 195.62441 83.688323 
L 196.26009 85.819841 
L 196.895771 93.463913 
L 197.53145 89.537509 
L 198.167131 94.155417 
L 198.802811 94.570329 
L 199.438491 103.435631 
L 200.074164 122.422986 
L 201.345524 145.935167 
L 201.981204 111.525742 
L 202.616884 113.765986 
L 203.252564 94.374375 
L 203.888245 94.440289 
L 204.523924 89.375935 
L 205.159609 83.098327 
L 205.79529 80.279183 
L 206.430969 83.799321 
L 207.06665 84.765814 
L 207.702329 88.357123 
L 208.33801 89.019705 
L 208.973691 94.778906 
L 209.60937 96.213625 
L 210.245049 100.189628 
L 210.88073 125.622455 
L 211.51641 116.50044 
L 212.152088 153.219393 
L 212.787769 112.603732 
L 213.42345 104.490012 
L 214.05913 100.469807 
L 214.694811 89.640773 
L 215.966169 79.027768 
L 216.60185 79.651296 
L 217.237528 72.63394 
L 217.873208 74.052974 
L 218.508889 70.12149 
L 219.14457 68.958195 
L 219.780251 69.138973 
L 220.415928 66.231898 
L 221.051609 64.914997 
L 221.68729 65.521549 
L 222.322967 67.636097 
L 222.958648 64.709221 
L 223.594329 67.299785 
L 224.230009 65.58841 
L 224.86569 70.077262 
L 226.137049 72.267596 
L 226.772729 75.635007 
L 227.408407 77.110122 
L 228.044088 82.420559 
L 228.679768 81.381909 
L 229.315449 88.768889 
L 229.95113 98.923493 
L 230.586807 115.35024 
L 231.222488 127.52292 
L 231.858169 128.55644 
L 232.493847 125.790763 
L 233.129527 120.424722 
L 233.765208 105.352213 
L 234.400889 100.508863 
L 235.036569 88.595887 
L 235.672253 80.03074 
L 236.307931 77.867266 
L 236.943615 76.457705 
L 237.579292 70.925491 
L 238.214976 69.860824 
L 238.850654 64.976457 
L 239.486331 66.731388 
L 240.122015 63.878485 
L 240.757693 63.633588 
L 242.029054 59.110014 
L 242.664732 57.291741 
L 243.300416 57.855936 
L 243.936093 56.147543 
L 244.571771 56.954446 
L 245.207455 56.186697 
L 245.843132 55.8 
L 246.47881 55.823493 
L 247.114494 58.122144 
L 247.750171 56.253109 
L 248.385855 57.20023 
L 249.021533 59.535863 
L 249.657211 60.380494 
L 250.292894 62.017213 
L 250.928572 61.245101 
L 251.56425 64.557764 
L 252.199933 63.702119 
L 252.835611 65.600306 
L 253.471295 70.264432 
L 254.106973 69.826346 
L 254.74265 73.2809 
L 255.378334 74.682378 
L 256.014012 77.56024 
L 256.649689 87.687842 
L 257.285373 84.26341 
L 257.921051 89.666138 
L 258.556734 98.843927 
L 259.192412 125.269562 
L 259.82809 138.385452 
L 260.463774 194.070274 
L 261.099451 131.710939 
L 261.735129 126.469816 
L 262.370813 109.451671 
L 263.00649 104.126679 
L 263.642174 90.370157 
L 264.277852 89.340958 
L 264.913529 85.483671 
L 265.549213 78.092849 
L 266.184897 75.349362 
L 266.820575 74.650958 
L 267.456258 76.342978 
L 268.091936 70.401962 
L 268.72762 69.393837 
L 269.363297 71.879901 
L 269.998975 70.945119 
L 270.634659 70.96417 
L 271.270337 66.855916 
L 271.906014 66.631414 
L 272.541698 69.286216 
L 273.177376 70.176199 
L 273.813059 69.735666 
L 274.448737 69.065838 
L 275.084415 70.004869 
L 275.720098 72.282901 
L 276.355776 69.210065 
L 276.991454 70.65139 
L 277.627138 74.961707 
L 278.262815 72.568437 
L 278.898499 74.476496 
L 279.534177 80.437486 
L 280.169854 81.271265 
L 280.805538 83.900888 
L 281.441222 83.762292 
L 282.076899 88.76288 
L 282.712583 98.325071 
L 283.348261 93.70166 
L 283.983945 103.134673 
L 284.619622 115.866754 
L 285.2553 111.39972 
L 285.890984 221.079014 
L 286.526655 144.585973 
L 287.162333 170.781342 
L 287.798011 136.403777 
L 288.433701 128.374469 
L 289.069378 121.778455 
L 289.705056 99.074183 
L 290.340734 96.850816 
L 290.976411 101.085504 
L 291.612101 95.384028 
L 292.247779 84.725141 
L 292.883456 85.33159 
L 293.519146 83.57217 
L 294.154824 86.221566 
L 295.426179 82.138571 
L 296.061857 81.514914 
L 296.697535 82.859206 
L 297.333212 79.743508 
L 297.96889 79.570561 
L 298.60458 80.430021 
L 299.240257 79.771565 
L 299.875935 82.159531 
L 300.511613 80.431786 
L 301.14729 80.84064 
L 301.78298 85.445617 
L 302.418658 89.022339 
L 303.054336 83.989767 
L 303.690025 86.939707 
L 304.325703 92.898378 
L 304.961381 87.89048 
L 305.597058 98.734425 
L 306.232736 94.98253 
L 306.868426 99.813917 
L 307.504104 119.186662 
L 308.139781 108.706878 
L 308.775471 151.873179 
L 309.411149 168.996637 
L 310.046826 215.442413 
L 310.682504 134.029281 
L 311.318182 208.807252 
L 311.318182 208.807252 
" clip-path="url(#ped280baa35)" style="fill: none; stroke: #ff7f0e; stroke-width: 1.5; stroke-linecap: square"/>
   </g>
   <g id="patch_3">
    <path d="M 45 320.4 
L 45 43.2 
" style="fill: none; stroke: #000000; stroke-width: 0.8; stroke-linejoin: miter; stroke-linecap: square"/>
   </g>
   <g id="patch_4">
    <path d="M 324 320.4 
L 324 43.2 
" style="fill: none; stroke: #000000; stroke-width: 0.8; stroke-linejoin: miter; stroke-linecap: square"/>
   </g>
   <g id="patch_5">
    <path d="M 45 320.4 
L 324 320.4 
" style="fill: none; stroke: #000000; stroke-width: 0.8; stroke-linejoin: miter; stroke-linecap: square"/>
   </g>
   <g id="patch_6">
    <path d="M 45 43.2 
L 324 43.2 
" style="fill: none; stroke: #000000; stroke-width: 0.8; stroke-linejoin: miter; stroke-linecap: square"/>
   </g>
   <g id="text_11">
    <!-- Prediction Error -->
    <g transform="translate(138.166875 37.2)scale(0.12 -0.12)">
     <defs>
      <path id="DejaVuSans-50" d="M 1259 4147 
L 1259 2394 
L 2053 2394 
Q 2494 2394 2734 2622 
Q 2975 2850 2975 3272 
Q 2975 3691 2734 3919 
Q 2494 4147 2053 4147 
L 1259 4147 
z
M 628 4666 
L 2053 4666 
Q 2838 4666 3239 4311 
Q 3641 3956 3641 3272 
Q 3641 2581 3239 2228 
Q 2838 1875 2053 1875 
L 1259 1875 
L 1259 0 
L 628 0 
L 628 4666 
z
" transform="scale(0.015625)"/>
      <path id="DejaVuSans-72" d="M 2631 2963 
Q 2534 3019 2420 3045 
Q 2306 3072 2169 3072 
Q 1681 3072 1420 2755 
Q 1159 2438 1159 1844 
L 1159 0 
L 581 0 
L 581 3500 
L 1159 3500 
L 1159 2956 
Q 1341 3275 1631 3429 
Q 1922 3584 2338 3584 
Q 2397 3584 2469 3576 
Q 2541 3569 2628 3553 
L 2631 2963 
z
" transform="scale(0.015625)"/>
      <path id="DejaVuSans-65" d="M 3597 1894 
L 3597 1613 
L 953 1613 
Q 991 1019 1311 708 
Q 1631 397 2203 397 
Q 2534 397 2845 478 
Q 3156 559 3463 722 
L 3463 178 
Q 3153 47 2828 -22 
Q 2503 -91 2169 -91 
Q 1331 -91 842 396 
Q 353 884 353 1716 
Q 353 2575 817 3079 
Q 1281 3584 2069 3584 
Q 2775 3584 3186 3129 
Q 3597 2675 3597 1894 
z
M 3022 2063 
Q 3016 2534 2758 2815 
Q 2500 3097 2075 3097 
Q 1594 3097 1305 2825 
Q 1016 2553 972 2059 
L 3022 2063 
z
" transform="scale(0.015625)"/>
      <path id="DejaVuSans-64" d="M 2906 2969 
L 2906 4863 
L 3481 4863 
L 3481 0 
L 2906 0 
L 2906 525 
Q 2725 213 2448 61 
Q 2172 -91 1784 -91 
Q 1150 -91 751 415 
Q 353 922 353 1747 
Q 353 2572 751 3078 
Q 1150 3584 1784 3584 
Q 2172 3584 2448 3432 
Q 2725 3281 2906 2969 
z
M 947 1747 
Q 947 1113 1208 752 
Q 1469 391 1925 391 
Q 2381 391 2643 752 
Q 2906 1113 2906 1747 
Q 2906 2381 2643 2742 
Q 2381 3103 1925 3103 
Q 1469 3103 1208 2742 
Q 947 2381 947 1747 
z
" transform="scale(0.015625)"/>
      <path id="DejaVuSans-69" d="M 603 3500 
L 1178 3500 
L 1178 0 
L 603 0 
L 603 3500 
z
M 603 4863 
L 1178 4863 
L 1178 4134 
L 603 4134 
L 603 4863 
z
" transform="scale(0.015625)"/>
      <path id="DejaVuSans-63" d="M 3122 3366 
L 3122 2828 
Q 2878 2963 2633 3030 
Q 2388 3097 2138 3097 
Q 1578 3097 1268 2742 
Q 959 2388 959 1747 
Q 959 1106 1268 751 
Q 1578 397 2138 397 
Q 2388 397 2633 464 
Q 2878 531 3122 666 
L 3122 134 
Q 2881 22 2623 -34 
Q 2366 -91 2075 -91 
Q 1284 -91 818 406 
Q 353 903 353 1747 
Q 353 2603 823 3093 
Q 1294 3584 2113 3584 
Q 2378 3584 2631 3529 
Q 2884 3475 3122 3366 
z
" transform="scale(0.015625)"/>
      <path id="DejaVuSans-74" d="M 1172 4494 
L 1172 3500 
L 2356 3500 
L 2356 3053 
L 1172 3053 
L 1172 1153 
Q 1172 725 1289 603 
Q 1406 481 1766 481 
L 2356 481 
L 2356 0 
L 1766 0 
Q 1100 0 847 248 
Q 594 497 594 1153 
L 594 3053 
L 172 3053 
L 172 3500 
L 594 3500 
L 594 4494 
L 1172 4494 
z
" transform="scale(0.015625)"/>
      <path id="DejaVuSans-6f" d="M 1959 3097 
Q 1497 3097 1228 2736 
Q 959 2375 959 1747 
Q 959 1119 1226 758 
Q 1494 397 1959 397 
Q 2419 397 2687 759 
Q 2956 1122 2956 1747 
Q 2956 2369 2687 2733 
Q 2419 3097 1959 3097 
z
M 1959 3584 
Q 2709 3584 3137 3096 
Q 3566 2609 3566 1747 
Q 3566 888 3137 398 
Q 2709 -91 1959 -91 
Q 1206 -91 779 398 
Q 353 888 353 1747 
Q 353 2609 779 3096 
Q 1206 3584 1959 3584 
z
" transform="scale(0.015625)"/>
      <path id="DejaVuSans-6e" d="M 3513 2113 
L 3513 0 
L 2938 0 
L 2938 2094 
Q 2938 2591 2744 2837 
Q 2550 3084 2163 3084 
Q 1697 3084 1428 2787 
Q 1159 2491 1159 1978 
L 1159 0 
L 581 0 
L 581 3500 
L 1159 3500 
L 1159 2956 
Q 1366 3272 1645 3428 
Q 1925 3584 2291 3584 
Q 2894 3584 3203 3211 
Q 3513 2838 3513 2113 
z
" transform="scale(0.015625)"/>
      <path id="DejaVuSans-20" transform="scale(0.015625)"/>
      <path id="DejaVuSans-45" d="M 628 4666 
L 3578 4666 
L 3578 4134 
L 1259 4134 
L 1259 2753 
L 3481 2753 
L 3481 2222 
L 1259 2222 
L 1259 531 
L 3634 531 
L 3634 0 
L 628 0 
L 628 4666 
z
" transform="scale(0.015625)"/>
     </defs>
     <use xlink:href="#DejaVuSans-50"/>
     <use xlink:href="#DejaVuSans-72" x="58.552734"/>
     <use xlink:href="#DejaVuSans-65" x="97.416016"/>
     <use xlink:href="#DejaVuSans-64" x="158.939453"/>
     <use xlink:href="#DejaVuSans-69" x="222.416016"/>
     <use xlink:href="#DejaVuSans-63" x="250.199219"/>
     <use xlink:href="#DejaVuSans-74" x="305.179688"/>
     <use xlink:href="#DejaVuSans-69" x="344.388672"/>
     <use xlink:href="#DejaVuSans-6f" x="372.171875"/>
     <use xlink:href="#DejaVuSans-6e" x="433.353516"/>
     <use xlink:href="#DejaVuSans-20" x="496.732422"/>
     <use xlink:href="#DejaVuSans-45" x="528.519531"/>
     <use xlink:href="#DejaVuSans-72" x="591.703125"/>
     <use xlink:href="#DejaVuSans-72" x="631.066406"/>
     <use xlink:href="#DejaVuSans-6f" x="669.929688"/>
     <use xlink:href="#DejaVuSans-72" x="731.111328"/>
    </g>
   </g>
   <g id="legend_1">
    <g id="patch_7">
     <path d="M 52 315.4 
L 134.657813 315.4 
Q 136.657813 315.4 136.657813 313.4 
L 136.657813 285.04375 
Q 136.657813 283.04375 134.657813 283.04375 
L 52 283.04375 
Q 50 283.04375 50 285.04375 
L 50 313.4 
Q 50 315.4 52 315.4 
z
" style="fill: #ffffff; opacity: 0.8; stroke: #cccccc; stroke-linejoin: miter"/>
    </g>
    <g id="line2d_49">
     <path d="M 54 291.142187 
L 64 291.142187 
L 74 291.142187 
" style="fill: none; stroke: #1f77b4; stroke-width: 1.5; stroke-linecap: square"/>
    </g>
    <g id="text_12">
     <!-- train error -->
     <g transform="translate(82 294.642187)scale(0.1 -0.1)">
      <defs>
       <path id="DejaVuSans-61" d="M 2194 1759 
Q 1497 1759 1228 1600 
Q 959 1441 959 1056 
Q 959 750 1161 570 
Q 1363 391 1709 391 
Q 2188 391 2477 730 
Q 2766 1069 2766 1631 
L 2766 1759 
L 2194 1759 
z
M 3341 1997 
L 3341 0 
L 2766 0 
L 2766 531 
Q 2569 213 2275 61 
Q 1981 -91 1556 -91 
Q 1019 -91 701 211 
Q 384 513 384 1019 
Q 384 1609 779 1909 
Q 1175 2209 1959 2209 
L 2766 2209 
L 2766 2266 
Q 2766 2663 2505 2880 
Q 2244 3097 1772 3097 
Q 1472 3097 1187 3025 
Q 903 2953 641 2809 
L 641 3341 
Q 956 3463 1253 3523 
Q 1550 3584 1831 3584 
Q 2591 3584 2966 3190 
Q 3341 2797 3341 1997 
z
" transform="scale(0.015625)"/>
      </defs>
      <use xlink:href="#DejaVuSans-74"/>
      <use xlink:href="#DejaVuSans-72" x="39.208984"/>
      <use xlink:href="#DejaVuSans-61" x="80.322266"/>
      <use xlink:href="#DejaVuSans-69" x="141.601562"/>
      <use xlink:href="#DejaVuSans-6e" x="169.384766"/>
      <use xlink:href="#DejaVuSans-20" x="232.763672"/>
      <use xlink:href="#DejaVuSans-65" x="264.550781"/>
      <use xlink:href="#DejaVuSans-72" x="326.074219"/>
      <use xlink:href="#DejaVuSans-72" x="365.4375"/>
      <use xlink:href="#DejaVuSans-6f" x="404.300781"/>
      <use xlink:href="#DejaVuSans-72" x="465.482422"/>
     </g>
    </g>
    <g id="line2d_50">
     <path d="M 54 305.820312 
L 64 305.820312 
L 74 305.820312 
" style="fill: none; stroke: #ff7f0e; stroke-width: 1.5; stroke-linecap: square"/>
    </g>
    <g id="text_13">
     <!-- test error -->
     <g transform="translate(82 309.320312)scale(0.1 -0.1)">
      <defs>
       <path id="DejaVuSans-73" d="M 2834 3397 
L 2834 2853 
Q 2591 2978 2328 3040 
Q 2066 3103 1784 3103 
Q 1356 3103 1142 2972 
Q 928 2841 928 2578 
Q 928 2378 1081 2264 
Q 1234 2150 1697 2047 
L 1894 2003 
Q 2506 1872 2764 1633 
Q 3022 1394 3022 966 
Q 3022 478 2636 193 
Q 2250 -91 1575 -91 
Q 1294 -91 989 -36 
Q 684 19 347 128 
L 347 722 
Q 666 556 975 473 
Q 1284 391 1588 391 
Q 1994 391 2212 530 
Q 2431 669 2431 922 
Q 2431 1156 2273 1281 
Q 2116 1406 1581 1522 
L 1381 1569 
Q 847 1681 609 1914 
Q 372 2147 372 2553 
Q 372 3047 722 3315 
Q 1072 3584 1716 3584 
Q 2034 3584 2315 3537 
Q 2597 3491 2834 3397 
z
" transform="scale(0.015625)"/>
      </defs>
      <use xlink:href="#DejaVuSans-74"/>
      <use xlink:href="#DejaVuSans-65" x="39.208984"/>
      <use xlink:href="#DejaVuSans-73" x="100.732422"/>
      <use xlink:href="#DejaVuSans-74" x="152.832031"/>
      <use xlink:href="#DejaVuSans-20" x="192.041016"/>
      <use xlink:href="#DejaVuSans-65" x="223.828125"/>
      <use xlink:href="#DejaVuSans-72" x="285.351562"/>
      <use xlink:href="#DejaVuSans-72" x="324.714844"/>
      <use xlink:href="#DejaVuSans-6f" x="363.578125"/>
      <use xlink:href="#DejaVuSans-72" x="424.759766"/>
     </g>
    </g>
   </g>
  </g>
 </g>
 <defs>
  <clipPath id="ped280baa35">
   <rect x="45" y="43.2" width="279" height="277.2"/>
  </clipPath>
 </defs>
</svg>
