<?xml version="1.0" encoding="utf-8" standalone="no"?>
<!DOCTYPE svg PUBLIC "-//W3C//DTD SVG 1.1//EN"
  "http://www.w3.org/Graphics/SVG/1.1/DTD/svg11.dtd">
<svg xmlns:xlink="http://www.w3.org/1999/xlink" width="460.8pt" height="345.6pt" viewBox="0 0 460.8 345.6" xmlns="http://www.w3.org/2000/svg" version="1.1">
 <metadata>
  <rdf:RDF xmlns:dc="http://purl.org/dc/elements/1.1/" xmlns:cc="http://creativecommons.org/ns#" xmlns:rdf="http://www.w3.org/1999/02/22-rdf-syntax-ns#">
   <cc:Work>
    <dc:type rdf:resource="http://purl.org/dc/dcmitype/StillImage"/>
    <dc:date>2022-12-22T11:46:46.808520</dc:date>
    <dc:format>image/svg+xml</dc:format>
    <dc:creator>
     <cc:Agent>
      <dc:title>Matplotlib v3.5.3, https://matplotlib.org/</dc:title>
     </cc:Agent>
    </dc:creator>
   </cc:Work>
  </rdf:RDF>
 </metadata>
 <defs>
  <style type="text/css">*{stroke-linejoin: round; stroke-linecap: butt}</style>
 </defs>
 <g id="figure_1">
  <g id="patch_1">
   <path d="M 0 345.6 
L 460.8 345.6 
L 460.8 0 
L 0 0 
z
" style="fill: #ffffff"/>
  </g>
  <g id="axes_1">
   <g id="patch_2">
    <path d="M 57.6 307.584 
L 414.72 307.584 
L 414.72 41.472 
L 57.6 41.472 
z
" style="fill: #e5e5e5"/>
   </g>
   <g id="matplotlib.axis_1">
    <g id="xtick_1">
     <g id="line2d_1">
      <path d="M 73.832727 307.584 
L 73.832727 41.472 
" clip-path="url(#p1a77629348)" style="fill: none; stroke: #ffffff; stroke-width: 0.8; stroke-linecap: square"/>
     </g>
     <g id="line2d_2">
      <defs>
       <path id="md51f55e8cb" d="M 0 0 
L 0 3.5 
" style="stroke: #555555; stroke-width: 0.8"/>
      </defs>
      <g>
       <use xlink:href="#md51f55e8cb" x="73.832727" y="307.584" style="fill: #555555; stroke: #555555; stroke-width: 0.8"/>
      </g>
     </g>
     <g id="text_1">
      <!-- 0 -->
      <g style="fill: #555555" transform="translate(70.651477 322.182437)scale(0.1 -0.1)">
       <defs>
        <path id="DejaVuSans-30" d="M 2034 4250 
Q 1547 4250 1301 3770 
Q 1056 3291 1056 2328 
Q 1056 1369 1301 889 
Q 1547 409 2034 409 
Q 2525 409 2770 889 
Q 3016 1369 3016 2328 
Q 3016 3291 2770 3770 
Q 2525 4250 2034 4250 
z
M 2034 4750 
Q 2819 4750 3233 4129 
Q 3647 3509 3647 2328 
Q 3647 1150 3233 529 
Q 2819 -91 2034 -91 
Q 1250 -91 836 529 
Q 422 1150 422 2328 
Q 422 3509 836 4129 
Q 1250 4750 2034 4750 
z
" transform="scale(0.015625)"/>
       </defs>
       <use xlink:href="#DejaVuSans-30"/>
      </g>
     </g>
    </g>
    <g id="xtick_2">
     <g id="line2d_3">
      <path d="M 138.828632 307.584 
L 138.828632 41.472 
" clip-path="url(#p1a77629348)" style="fill: none; stroke: #ffffff; stroke-width: 0.8; stroke-linecap: square"/>
     </g>
     <g id="line2d_4">
      <g>
       <use xlink:href="#md51f55e8cb" x="138.828632" y="307.584" style="fill: #555555; stroke: #555555; stroke-width: 0.8"/>
      </g>
     </g>
     <g id="text_2">
      <!-- 200 -->
      <g style="fill: #555555" transform="translate(129.284882 322.182437)scale(0.1 -0.1)">
       <defs>
        <path id="DejaVuSans-32" d="M 1228 531 
L 3431 531 
L 3431 0 
L 469 0 
L 469 531 
Q 828 903 1448 1529 
Q 2069 2156 2228 2338 
Q 2531 2678 2651 2914 
Q 2772 3150 2772 3378 
Q 2772 3750 2511 3984 
Q 2250 4219 1831 4219 
Q 1534 4219 1204 4116 
Q 875 4013 500 3803 
L 500 4441 
Q 881 4594 1212 4672 
Q 1544 4750 1819 4750 
Q 2544 4750 2975 4387 
Q 3406 4025 3406 3419 
Q 3406 3131 3298 2873 
Q 3191 2616 2906 2266 
Q 2828 2175 2409 1742 
Q 1991 1309 1228 531 
z
" transform="scale(0.015625)"/>
       </defs>
       <use xlink:href="#DejaVuSans-32"/>
       <use xlink:href="#DejaVuSans-30" x="63.623047"/>
       <use xlink:href="#DejaVuSans-30" x="127.246094"/>
      </g>
     </g>
    </g>
    <g id="xtick_3">
     <g id="line2d_5">
      <path d="M 203.824537 307.584 
L 203.824537 41.472 
" clip-path="url(#p1a77629348)" style="fill: none; stroke: #ffffff; stroke-width: 0.8; stroke-linecap: square"/>
     </g>
     <g id="line2d_6">
      <g>
       <use xlink:href="#md51f55e8cb" x="203.824537" y="307.584" style="fill: #555555; stroke: #555555; stroke-width: 0.8"/>
      </g>
     </g>
     <g id="text_3">
      <!-- 400 -->
      <g style="fill: #555555" transform="translate(194.280787 322.182437)scale(0.1 -0.1)">
       <defs>
        <path id="DejaVuSans-34" d="M 2419 4116 
L 825 1625 
L 2419 1625 
L 2419 4116 
z
M 2253 4666 
L 3047 4666 
L 3047 1625 
L 3713 1625 
L 3713 1100 
L 3047 1100 
L 3047 0 
L 2419 0 
L 2419 1100 
L 313 1100 
L 313 1709 
L 2253 4666 
z
" transform="scale(0.015625)"/>
       </defs>
       <use xlink:href="#DejaVuSans-34"/>
       <use xlink:href="#DejaVuSans-30" x="63.623047"/>
       <use xlink:href="#DejaVuSans-30" x="127.246094"/>
      </g>
     </g>
    </g>
    <g id="xtick_4">
     <g id="line2d_7">
      <path d="M 268.820442 307.584 
L 268.820442 41.472 
" clip-path="url(#p1a77629348)" style="fill: none; stroke: #ffffff; stroke-width: 0.8; stroke-linecap: square"/>
     </g>
     <g id="line2d_8">
      <g>
       <use xlink:href="#md51f55e8cb" x="268.820442" y="307.584" style="fill: #555555; stroke: #555555; stroke-width: 0.8"/>
      </g>
     </g>
     <g id="text_4">
      <!-- 600 -->
      <g style="fill: #555555" transform="translate(259.276692 322.182437)scale(0.1 -0.1)">
       <defs>
        <path id="DejaVuSans-36" d="M 2113 2584 
Q 1688 2584 1439 2293 
Q 1191 2003 1191 1497 
Q 1191 994 1439 701 
Q 1688 409 2113 409 
Q 2538 409 2786 701 
Q 3034 994 3034 1497 
Q 3034 2003 2786 2293 
Q 2538 2584 2113 2584 
z
M 3366 4563 
L 3366 3988 
Q 3128 4100 2886 4159 
Q 2644 4219 2406 4219 
Q 1781 4219 1451 3797 
Q 1122 3375 1075 2522 
Q 1259 2794 1537 2939 
Q 1816 3084 2150 3084 
Q 2853 3084 3261 2657 
Q 3669 2231 3669 1497 
Q 3669 778 3244 343 
Q 2819 -91 2113 -91 
Q 1303 -91 875 529 
Q 447 1150 447 2328 
Q 447 3434 972 4092 
Q 1497 4750 2381 4750 
Q 2619 4750 2861 4703 
Q 3103 4656 3366 4563 
z
" transform="scale(0.015625)"/>
       </defs>
       <use xlink:href="#DejaVuSans-36"/>
       <use xlink:href="#DejaVuSans-30" x="63.623047"/>
       <use xlink:href="#DejaVuSans-30" x="127.246094"/>
      </g>
     </g>
    </g>
    <g id="xtick_5">
     <g id="line2d_9">
      <path d="M 333.816347 307.584 
L 333.816347 41.472 
" clip-path="url(#p1a77629348)" style="fill: none; stroke: #ffffff; stroke-width: 0.8; stroke-linecap: square"/>
     </g>
     <g id="line2d_10">
      <g>
       <use xlink:href="#md51f55e8cb" x="333.816347" y="307.584" style="fill: #555555; stroke: #555555; stroke-width: 0.8"/>
      </g>
     </g>
     <g id="text_5">
      <!-- 800 -->
      <g style="fill: #555555" transform="translate(324.272597 322.182437)scale(0.1 -0.1)">
       <defs>
        <path id="DejaVuSans-38" d="M 2034 2216 
Q 1584 2216 1326 1975 
Q 1069 1734 1069 1313 
Q 1069 891 1326 650 
Q 1584 409 2034 409 
Q 2484 409 2743 651 
Q 3003 894 3003 1313 
Q 3003 1734 2745 1975 
Q 2488 2216 2034 2216 
z
M 1403 2484 
Q 997 2584 770 2862 
Q 544 3141 544 3541 
Q 544 4100 942 4425 
Q 1341 4750 2034 4750 
Q 2731 4750 3128 4425 
Q 3525 4100 3525 3541 
Q 3525 3141 3298 2862 
Q 3072 2584 2669 2484 
Q 3125 2378 3379 2068 
Q 3634 1759 3634 1313 
Q 3634 634 3220 271 
Q 2806 -91 2034 -91 
Q 1263 -91 848 271 
Q 434 634 434 1313 
Q 434 1759 690 2068 
Q 947 2378 1403 2484 
z
M 1172 3481 
Q 1172 3119 1398 2916 
Q 1625 2713 2034 2713 
Q 2441 2713 2670 2916 
Q 2900 3119 2900 3481 
Q 2900 3844 2670 4047 
Q 2441 4250 2034 4250 
Q 1625 4250 1398 4047 
Q 1172 3844 1172 3481 
z
" transform="scale(0.015625)"/>
       </defs>
       <use xlink:href="#DejaVuSans-38"/>
       <use xlink:href="#DejaVuSans-30" x="63.623047"/>
       <use xlink:href="#DejaVuSans-30" x="127.246094"/>
      </g>
     </g>
    </g>
    <g id="xtick_6">
     <g id="line2d_11">
      <path d="M 398.812252 307.584 
L 398.812252 41.472 
" clip-path="url(#p1a77629348)" style="fill: none; stroke: #ffffff; stroke-width: 0.8; stroke-linecap: square"/>
     </g>
     <g id="line2d_12">
      <g>
       <use xlink:href="#md51f55e8cb" x="398.812252" y="307.584" style="fill: #555555; stroke: #555555; stroke-width: 0.8"/>
      </g>
     </g>
     <g id="text_6">
      <!-- 1000 -->
      <g style="fill: #555555" transform="translate(386.087252 322.182437)scale(0.1 -0.1)">
       <defs>
        <path id="DejaVuSans-31" d="M 794 531 
L 1825 531 
L 1825 4091 
L 703 3866 
L 703 4441 
L 1819 4666 
L 2450 4666 
L 2450 531 
L 3481 531 
L 3481 0 
L 794 0 
L 794 531 
z
" transform="scale(0.015625)"/>
       </defs>
       <use xlink:href="#DejaVuSans-31"/>
       <use xlink:href="#DejaVuSans-30" x="63.623047"/>
       <use xlink:href="#DejaVuSans-30" x="127.246094"/>
       <use xlink:href="#DejaVuSans-30" x="190.869141"/>
      </g>
     </g>
    </g>
    <g id="text_7">
     <!-- Epoch -->
     <g style="fill: #555555" transform="translate(217.786875 337.38025)scale(0.12 -0.12)">
      <defs>
       <path id="DejaVuSans-45" d="M 628 4666 
L 3578 4666 
L 3578 4134 
L 1259 4134 
L 1259 2753 
L 3481 2753 
L 3481 2222 
L 1259 2222 
L 1259 531 
L 3634 531 
L 3634 0 
L 628 0 
L 628 4666 
z
" transform="scale(0.015625)"/>
       <path id="DejaVuSans-70" d="M 1159 525 
L 1159 -1331 
L 581 -1331 
L 581 3500 
L 1159 3500 
L 1159 2969 
Q 1341 3281 1617 3432 
Q 1894 3584 2278 3584 
Q 2916 3584 3314 3078 
Q 3713 2572 3713 1747 
Q 3713 922 3314 415 
Q 2916 -91 2278 -91 
Q 1894 -91 1617 61 
Q 1341 213 1159 525 
z
M 3116 1747 
Q 3116 2381 2855 2742 
Q 2594 3103 2138 3103 
Q 1681 3103 1420 2742 
Q 1159 2381 1159 1747 
Q 1159 1113 1420 752 
Q 1681 391 2138 391 
Q 2594 391 2855 752 
Q 3116 1113 3116 1747 
z
" transform="scale(0.015625)"/>
       <path id="DejaVuSans-6f" d="M 1959 3097 
Q 1497 3097 1228 2736 
Q 959 2375 959 1747 
Q 959 1119 1226 758 
Q 1494 397 1959 397 
Q 2419 397 2687 759 
Q 2956 1122 2956 1747 
Q 2956 2369 2687 2733 
Q 2419 3097 1959 3097 
z
M 1959 3584 
Q 2709 3584 3137 3096 
Q 3566 2609 3566 1747 
Q 3566 888 3137 398 
Q 2709 -91 1959 -91 
Q 1206 -91 779 398 
Q 353 888 353 1747 
Q 353 2609 779 3096 
Q 1206 3584 1959 3584 
z
" transform="scale(0.015625)"/>
       <path id="DejaVuSans-63" d="M 3122 3366 
L 3122 2828 
Q 2878 2963 2633 3030 
Q 2388 3097 2138 3097 
Q 1578 3097 1268 2742 
Q 959 2388 959 1747 
Q 959 1106 1268 751 
Q 1578 397 2138 397 
Q 2388 397 2633 464 
Q 2878 531 3122 666 
L 3122 134 
Q 2881 22 2623 -34 
Q 2366 -91 2075 -91 
Q 1284 -91 818 406 
Q 353 903 353 1747 
Q 353 2603 823 3093 
Q 1294 3584 2113 3584 
Q 2378 3584 2631 3529 
Q 2884 3475 3122 3366 
z
" transform="scale(0.015625)"/>
       <path id="DejaVuSans-68" d="M 3513 2113 
L 3513 0 
L 2938 0 
L 2938 2094 
Q 2938 2591 2744 2837 
Q 2550 3084 2163 3084 
Q 1697 3084 1428 2787 
Q 1159 2491 1159 1978 
L 1159 0 
L 581 0 
L 581 4863 
L 1159 4863 
L 1159 2956 
Q 1366 3272 1645 3428 
Q 1925 3584 2291 3584 
Q 2894 3584 3203 3211 
Q 3513 2838 3513 2113 
z
" transform="scale(0.015625)"/>
      </defs>
      <use xlink:href="#DejaVuSans-45"/>
      <use xlink:href="#DejaVuSans-70" x="63.183594"/>
      <use xlink:href="#DejaVuSans-6f" x="126.660156"/>
      <use xlink:href="#DejaVuSans-63" x="187.841797"/>
      <use xlink:href="#DejaVuSans-68" x="242.822266"/>
     </g>
    </g>
   </g>
   <g id="matplotlib.axis_2">
    <g id="ytick_1">
     <g id="line2d_13">
      <path d="M 57.6 234.731609 
L 414.72 234.731609 
" clip-path="url(#p1a77629348)" style="fill: none; stroke: #ffffff; stroke-width: 0.8; stroke-linecap: square"/>
     </g>
     <g id="line2d_14">
      <defs>
       <path id="m12a433d313" d="M 0 0 
L -3.5 0 
" style="stroke: #555555; stroke-width: 0.8"/>
      </defs>
      <g>
       <use xlink:href="#m12a433d313" x="57.6" y="234.731609" style="fill: #555555; stroke: #555555; stroke-width: 0.8"/>
      </g>
     </g>
     <g id="text_8">
      <!-- $\mathdefault{10^{0}}$ -->
      <g style="fill: #555555" transform="translate(33 238.530828)scale(0.1 -0.1)">
       <use xlink:href="#DejaVuSans-31" transform="translate(0 0.765625)"/>
       <use xlink:href="#DejaVuSans-30" transform="translate(63.623047 0.765625)"/>
       <use xlink:href="#DejaVuSans-30" transform="translate(128.203125 39.046875)scale(0.7)"/>
      </g>
     </g>
    </g>
    <g id="ytick_2">
     <g id="line2d_15">
      <path d="M 57.6 118.075598 
L 414.72 118.075598 
" clip-path="url(#p1a77629348)" style="fill: none; stroke: #ffffff; stroke-width: 0.8; stroke-linecap: square"/>
     </g>
     <g id="line2d_16">
      <g>
       <use xlink:href="#m12a433d313" x="57.6" y="118.075598" style="fill: #555555; stroke: #555555; stroke-width: 0.8"/>
      </g>
     </g>
     <g id="text_9">
      <!-- $\mathdefault{10^{1}}$ -->
      <g style="fill: #555555" transform="translate(33 121.874817)scale(0.1 -0.1)">
       <use xlink:href="#DejaVuSans-31" transform="translate(0 0.684375)"/>
       <use xlink:href="#DejaVuSans-30" transform="translate(63.623047 0.684375)"/>
       <use xlink:href="#DejaVuSans-31" transform="translate(128.203125 38.965625)scale(0.7)"/>
      </g>
     </g>
    </g>
    <g id="ytick_3">
     <g id="line2d_17">
      <defs>
       <path id="mc43cd714a0" d="M 0 0 
L -2 0 
" style="stroke: #555555; stroke-width: 0.6"/>
      </defs>
      <g>
       <use xlink:href="#mc43cd714a0" x="57.6" y="295.728557" style="fill: #555555; stroke: #555555; stroke-width: 0.6"/>
      </g>
     </g>
    </g>
    <g id="ytick_4">
     <g id="line2d_18">
      <g>
       <use xlink:href="#mc43cd714a0" x="57.6" y="281.153703" style="fill: #555555; stroke: #555555; stroke-width: 0.6"/>
      </g>
     </g>
    </g>
    <g id="ytick_5">
     <g id="line2d_19">
      <g>
       <use xlink:href="#mc43cd714a0" x="57.6" y="269.848567" style="fill: #555555; stroke: #555555; stroke-width: 0.6"/>
      </g>
     </g>
    </g>
    <g id="ytick_6">
     <g id="line2d_20">
      <g>
       <use xlink:href="#mc43cd714a0" x="57.6" y="260.611599" style="fill: #555555; stroke: #555555; stroke-width: 0.6"/>
      </g>
     </g>
    </g>
    <g id="ytick_7">
     <g id="line2d_21">
      <g>
       <use xlink:href="#mc43cd714a0" x="57.6" y="252.801854" style="fill: #555555; stroke: #555555; stroke-width: 0.6"/>
      </g>
     </g>
    </g>
    <g id="ytick_8">
     <g id="line2d_22">
      <g>
       <use xlink:href="#mc43cd714a0" x="57.6" y="246.036744" style="fill: #555555; stroke: #555555; stroke-width: 0.6"/>
      </g>
     </g>
    </g>
    <g id="ytick_9">
     <g id="line2d_23">
      <g>
       <use xlink:href="#mc43cd714a0" x="57.6" y="240.069495" style="fill: #555555; stroke: #555555; stroke-width: 0.6"/>
      </g>
     </g>
    </g>
    <g id="ytick_10">
     <g id="line2d_24">
      <g>
       <use xlink:href="#mc43cd714a0" x="57.6" y="199.61465" style="fill: #555555; stroke: #555555; stroke-width: 0.6"/>
      </g>
     </g>
    </g>
    <g id="ytick_11">
     <g id="line2d_25">
      <g>
       <use xlink:href="#mc43cd714a0" x="57.6" y="179.072547" style="fill: #555555; stroke: #555555; stroke-width: 0.6"/>
      </g>
     </g>
    </g>
    <g id="ytick_12">
     <g id="line2d_26">
      <g>
       <use xlink:href="#mc43cd714a0" x="57.6" y="164.497692" style="fill: #555555; stroke: #555555; stroke-width: 0.6"/>
      </g>
     </g>
    </g>
    <g id="ytick_13">
     <g id="line2d_27">
      <g>
       <use xlink:href="#mc43cd714a0" x="57.6" y="153.192556" style="fill: #555555; stroke: #555555; stroke-width: 0.6"/>
      </g>
     </g>
    </g>
    <g id="ytick_14">
     <g id="line2d_28">
      <g>
       <use xlink:href="#mc43cd714a0" x="57.6" y="143.955588" style="fill: #555555; stroke: #555555; stroke-width: 0.6"/>
      </g>
     </g>
    </g>
    <g id="ytick_15">
     <g id="line2d_29">
      <g>
       <use xlink:href="#mc43cd714a0" x="57.6" y="136.145843" style="fill: #555555; stroke: #555555; stroke-width: 0.6"/>
      </g>
     </g>
    </g>
    <g id="ytick_16">
     <g id="line2d_30">
      <g>
       <use xlink:href="#mc43cd714a0" x="57.6" y="129.380734" style="fill: #555555; stroke: #555555; stroke-width: 0.6"/>
      </g>
     </g>
    </g>
    <g id="ytick_17">
     <g id="line2d_31">
      <g>
       <use xlink:href="#mc43cd714a0" x="57.6" y="123.413484" style="fill: #555555; stroke: #555555; stroke-width: 0.6"/>
      </g>
     </g>
    </g>
    <g id="ytick_18">
     <g id="line2d_32">
      <g>
       <use xlink:href="#mc43cd714a0" x="57.6" y="82.95864" style="fill: #555555; stroke: #555555; stroke-width: 0.6"/>
      </g>
     </g>
    </g>
    <g id="ytick_19">
     <g id="line2d_33">
      <g>
       <use xlink:href="#mc43cd714a0" x="57.6" y="62.416536" style="fill: #555555; stroke: #555555; stroke-width: 0.6"/>
      </g>
     </g>
    </g>
    <g id="ytick_20">
     <g id="line2d_34">
      <g>
       <use xlink:href="#mc43cd714a0" x="57.6" y="47.841681" style="fill: #555555; stroke: #555555; stroke-width: 0.6"/>
      </g>
     </g>
    </g>
    <g id="text_10">
     <!-- MSE -->
     <g style="fill: #555555" transform="translate(26.504375 187.305187)rotate(-90)scale(0.12 -0.12)">
      <defs>
       <path id="DejaVuSans-4d" d="M 628 4666 
L 1569 4666 
L 2759 1491 
L 3956 4666 
L 4897 4666 
L 4897 0 
L 4281 0 
L 4281 4097 
L 3078 897 
L 2444 897 
L 1241 4097 
L 1241 0 
L 628 0 
L 628 4666 
z
" transform="scale(0.015625)"/>
       <path id="DejaVuSans-53" d="M 3425 4513 
L 3425 3897 
Q 3066 4069 2747 4153 
Q 2428 4238 2131 4238 
Q 1616 4238 1336 4038 
Q 1056 3838 1056 3469 
Q 1056 3159 1242 3001 
Q 1428 2844 1947 2747 
L 2328 2669 
Q 3034 2534 3370 2195 
Q 3706 1856 3706 1288 
Q 3706 609 3251 259 
Q 2797 -91 1919 -91 
Q 1588 -91 1214 -16 
Q 841 59 441 206 
L 441 856 
Q 825 641 1194 531 
Q 1563 422 1919 422 
Q 2459 422 2753 634 
Q 3047 847 3047 1241 
Q 3047 1584 2836 1778 
Q 2625 1972 2144 2069 
L 1759 2144 
Q 1053 2284 737 2584 
Q 422 2884 422 3419 
Q 422 4038 858 4394 
Q 1294 4750 2059 4750 
Q 2388 4750 2728 4690 
Q 3069 4631 3425 4513 
z
" transform="scale(0.015625)"/>
      </defs>
      <use xlink:href="#DejaVuSans-4d"/>
      <use xlink:href="#DejaVuSans-53" x="86.279297"/>
      <use xlink:href="#DejaVuSans-45" x="149.755859"/>
     </g>
    </g>
   </g>
   <g id="line2d_35">
    <path d="M 73.832727 229.926907 
L 74.157707 140.98945 
L 74.482686 129.371271 
L 74.807666 182.149125 
L 75.132645 57.389467 
L 75.457625 191.325745 
L 75.782604 243.970705 
L 76.107584 117.474779 
L 76.432563 102.723809 
L 76.757543 208.421379 
L 77.082523 121.030591 
L 77.407502 163.41022 
L 77.732482 93.155311 
L 78.382441 144.381492 
L 78.70742 118.886143 
L 79.0324 128.855432 
L 79.357379 223.749912 
L 79.682359 159.123496 
L 80.007338 122.646028 
L 80.332318 170.509151 
L 80.657297 176.735867 
L 80.982277 131.479244 
L 81.307256 232.19015 
L 81.632236 144.777644 
L 81.957215 128.57182 
L 82.282195 140.416634 
L 82.607174 226.669117 
L 82.932154 189.30565 
L 83.257133 186.495235 
L 83.582113 229.604487 
L 83.907093 168.347852 
L 84.232072 170.697187 
L 84.557052 211.151139 
L 84.882031 191.158745 
L 85.207011 85.145847 
L 85.53199 185.06271 
L 85.85697 203.036646 
L 86.181949 130.490202 
L 86.506929 194.588737 
L 86.831908 209.075242 
L 87.156888 104.023148 
L 87.481867 158.867514 
L 87.806847 115.497844 
L 88.131826 248.485049 
L 88.456806 260.828127 
L 88.781785 192.29259 
L 89.106765 228.122712 
L 89.431744 53.568 
L 89.756724 226.314133 
L 90.406683 158.033366 
L 90.731663 116.236785 
L 91.056642 222.004761 
L 91.381622 200.742173 
L 91.706601 206.536619 
L 92.031581 159.793464 
L 92.35656 185.918883 
L 92.68154 124.794941 
L 93.006519 213.100288 
L 93.331499 204.13937 
L 93.656478 249.665578 
L 93.981458 142.489465 
L 94.306437 132.732915 
L 95.281376 250.752262 
L 95.931335 192.038469 
L 96.256314 236.276156 
L 96.581294 180.391359 
L 96.906274 194.865085 
L 97.231253 181.416949 
L 97.556233 129.262196 
L 97.881212 201.773767 
L 98.206192 234.023347 
L 98.531171 208.507179 
L 98.856151 238.298673 
L 99.50611 182.239888 
L 99.831089 213.792633 
L 100.156069 162.353521 
L 100.481048 171.363575 
L 100.806028 100.477742 
L 101.131007 182.15948 
L 101.455987 174.116338 
L 101.780966 201.225802 
L 102.105946 167.260842 
L 102.430925 189.21258 
L 102.755905 183.26998 
L 103.080885 183.821947 
L 103.405864 157.705441 
L 103.730844 231.41682 
L 104.055823 223.607867 
L 104.380803 109.327784 
L 104.705782 213.910276 
L 105.030762 206.319928 
L 105.355741 232.642749 
L 105.680721 193.304607 
L 106.0057 242.843328 
L 106.33068 127.028623 
L 106.655659 209.417739 
L 106.980639 203.23869 
L 107.305618 227.656441 
L 107.630598 209.510402 
L 107.955577 233.538879 
L 108.280557 153.622163 
L 108.930516 206.687913 
L 109.255495 225.437069 
L 109.580475 144.603558 
L 109.905455 222.984915 
L 110.555414 133.904258 
L 110.880393 220.359574 
L 111.205373 234.568226 
L 111.530352 208.487485 
L 111.855332 221.953547 
L 112.505291 200.038005 
L 112.83027 219.218316 
L 113.15525 188.981075 
L 113.480229 238.951144 
L 114.130188 170.688829 
L 114.455168 173.502462 
L 114.780147 162.803583 
L 115.430106 251.454413 
L 115.755086 202.727913 
L 116.080066 195.435972 
L 116.405045 121.13002 
L 116.730025 154.556426 
L 117.055004 218.383378 
L 117.379984 154.042977 
L 117.704963 149.776965 
L 118.354922 206.751668 
L 118.679902 157.924027 
L 119.004881 228.866355 
L 119.329861 236.036832 
L 119.65484 140.848577 
L 119.97982 223.142818 
L 120.304799 222.62445 
L 120.629779 178.947578 
L 120.954758 255.04336 
L 121.604717 177.148919 
L 121.929697 235.669263 
L 122.254676 205.780431 
L 122.579656 192.800955 
L 122.904636 226.62226 
L 123.229615 141.052742 
L 123.554595 147.602352 
L 123.879574 189.857898 
L 124.204554 194.523046 
L 124.529533 216.690504 
L 124.854513 169.556489 
L 125.179492 213.047077 
L 125.504472 178.05913 
L 125.829451 223.617735 
L 126.154431 181.036009 
L 126.80439 230.13817 
L 127.129369 205.050103 
L 127.454349 240.891725 
L 127.779328 167.955691 
L 128.104308 161.204388 
L 128.429287 221.482077 
L 128.754267 114.947227 
L 129.079247 201.587362 
L 129.404226 146.528812 
L 129.729206 186.704059 
L 130.054185 189.965554 
L 130.379165 233.161613 
L 131.029124 165.549569 
L 131.354103 221.323914 
L 131.679083 189.274956 
L 132.004062 235.849431 
L 132.329042 147.497211 
L 132.654021 125.727056 
L 132.979001 213.169415 
L 133.30398 182.293758 
L 133.62896 228.074719 
L 133.953939 180.667182 
L 134.278919 196.003118 
L 134.603898 182.803724 
L 134.928878 175.820967 
L 135.253857 221.621154 
L 135.578837 231.306685 
L 135.903817 199.812868 
L 136.228796 243.603903 
L 136.553776 221.386527 
L 136.878755 228.534954 
L 137.203735 140.584969 
L 137.528714 251.337478 
L 137.853694 168.028192 
L 138.178673 255.632995 
L 138.503653 238.204546 
L 138.828632 144.834746 
L 139.153612 212.654216 
L 139.478591 232.006628 
L 139.803571 188.097201 
L 140.12855 159.961327 
L 140.45353 220.78678 
L 140.778509 198.187994 
L 141.103489 196.529837 
L 141.428468 221.016427 
L 141.753448 196.66501 
L 142.078428 237.149692 
L 142.403407 175.922149 
L 142.728387 193.404306 
L 143.053366 233.54725 
L 143.378346 134.055308 
L 143.703325 237.204666 
L 144.028305 190.731038 
L 144.678264 242.123172 
L 145.003243 180.341921 
L 145.328223 200.768783 
L 145.653202 268.349616 
L 145.978182 226.816582 
L 146.303161 218.739805 
L 146.628141 236.577731 
L 146.95312 205.063239 
L 147.2781 251.028283 
L 147.603079 218.057551 
L 147.928059 208.623637 
L 148.253038 217.240022 
L 148.578018 232.038402 
L 148.902998 169.596878 
L 149.227977 243.375582 
L 149.552957 235.103236 
L 149.877936 165.385048 
L 150.202916 211.016589 
L 150.527895 220.453008 
L 150.852875 222.757085 
L 151.177854 168.752764 
L 151.502834 192.460281 
L 151.827813 224.331069 
L 152.477772 136.038302 
L 152.802752 194.368679 
L 153.127731 205.964064 
L 153.452711 208.097293 
L 153.77769 214.026636 
L 154.10267 223.466886 
L 154.427649 229.16542 
L 154.752629 209.730036 
L 155.077609 221.085669 
L 155.402588 156.752528 
L 155.727568 216.004594 
L 156.052547 246.641106 
L 156.377527 248.667615 
L 156.702506 216.028654 
L 157.027486 219.874898 
L 157.352465 180.545041 
L 157.677445 166.589549 
L 158.002424 216.89193 
L 158.327404 197.139153 
L 158.652383 227.412115 
L 158.977363 217.918802 
L 159.302342 236.432266 
L 159.952301 222.015323 
L 160.277281 202.655239 
L 160.60226 207.999123 
L 160.92724 222.562801 
L 161.577199 226.749401 
L 161.902179 261.7465 
L 162.227158 175.721679 
L 162.552138 144.330524 
L 162.877117 220.009302 
L 163.202097 233.588242 
L 163.527076 211.784641 
L 163.852056 204.631167 
L 164.177035 247.001545 
L 164.502015 248.27017 
L 164.826994 196.151323 
L 165.151974 217.823039 
L 165.476953 229.139383 
L 165.801933 204.785563 
L 166.126912 218.796746 
L 166.451892 224.102856 
L 166.776871 209.846623 
L 167.101851 235.003274 
L 167.42683 227.146728 
L 167.75181 193.992579 
L 168.401769 181.93914 
L 168.726749 221.22541 
L 169.051728 212.651454 
L 169.376708 215.956333 
L 169.701687 170.531876 
L 170.026667 231.81277 
L 170.351646 209.479944 
L 170.676626 218.916035 
L 171.001605 205.136705 
L 171.326585 229.690888 
L 171.651564 190.114849 
L 171.976544 241.06133 
L 172.301523 217.753439 
L 172.951482 196.055937 
L 173.276462 200.506192 
L 173.601441 251.91929 
L 173.926421 212.854422 
L 174.2514 222.15169 
L 174.57638 216.730016 
L 174.90136 231.164373 
L 175.226339 216.97945 
L 175.551319 166.03468 
L 175.876298 198.95349 
L 176.201278 198.087785 
L 176.526257 235.901831 
L 176.851237 176.609821 
L 177.176216 181.219555 
L 177.501196 197.601984 
L 177.826175 189.213274 
L 178.151155 231.500749 
L 178.476134 221.843907 
L 178.801114 234.120535 
L 179.126093 203.377843 
L 179.451073 194.843055 
L 179.776052 159.563957 
L 180.101032 157.719508 
L 180.426011 232.022295 
L 180.750991 165.702435 
L 181.075971 228.765111 
L 181.40095 209.464383 
L 181.72593 218.452321 
L 182.050909 240.663451 
L 182.375889 165.701053 
L 182.700868 221.844638 
L 183.025848 202.73456 
L 183.350827 205.094528 
L 183.675807 216.835384 
L 184.000786 145.310735 
L 184.325766 238.342607 
L 184.650745 238.088162 
L 184.975725 176.065326 
L 185.300704 210.500893 
L 185.625684 189.931559 
L 185.950663 157.464034 
L 186.275643 242.942465 
L 186.600622 193.348206 
L 186.925602 194.984141 
L 187.250581 235.941823 
L 187.575561 226.055139 
L 187.900541 190.412364 
L 188.22552 234.142201 
L 188.5505 207.121941 
L 188.875479 236.841369 
L 189.200459 210.876146 
L 189.525438 173.985633 
L 189.850418 204.7107 
L 190.175397 221.205919 
L 190.500377 216.695132 
L 190.825356 171.57718 
L 191.150336 224.362366 
L 191.475315 180.876285 
L 191.800295 181.391763 
L 192.125274 244.9466 
L 192.450254 179.65967 
L 192.775233 253.989165 
L 193.100213 215.335959 
L 193.425192 247.898287 
L 193.750172 158.325568 
L 194.075152 217.587198 
L 194.400131 176.0867 
L 194.725111 250.894127 
L 195.05009 232.916085 
L 195.37507 173.548333 
L 195.700049 218.69877 
L 196.025029 218.637605 
L 196.350008 195.498164 
L 196.674988 221.708926 
L 196.999967 176.516226 
L 197.324947 220.565064 
L 197.649926 230.135037 
L 197.974906 211.904585 
L 198.299885 232.800256 
L 198.624865 206.906228 
L 198.949844 203.324165 
L 199.274824 241.787308 
L 199.599803 211.407734 
L 200.249762 232.06909 
L 200.574742 228.694039 
L 200.899722 185.156095 
L 201.224701 223.541882 
L 201.549681 236.844552 
L 202.19964 204.845407 
L 202.524619 179.722144 
L 203.499558 243.153042 
L 203.824537 205.975409 
L 204.474496 182.898712 
L 204.799476 213.703669 
L 205.124455 194.919896 
L 205.449435 226.346619 
L 205.774414 214.860771 
L 206.099394 243.677757 
L 206.424373 189.207529 
L 206.749353 221.530852 
L 207.074333 199.625293 
L 207.399312 236.649588 
L 207.724292 206.103443 
L 209.349189 254.852602 
L 209.674169 195.614997 
L 209.999148 169.751415 
L 210.324128 186.540156 
L 210.649107 210.501469 
L 210.974087 244.381756 
L 211.299066 211.954046 
L 211.624046 191.37065 
L 211.949025 221.594459 
L 212.274005 234.13305 
L 212.598984 235.63927 
L 213.248943 206.795283 
L 213.573923 198.40359 
L 213.898903 214.773341 
L 214.548862 178.687557 
L 215.198821 239.15676 
L 215.5238 177.226691 
L 216.173759 245.20523 
L 216.823718 221.268993 
L 217.148698 185.202951 
L 217.473677 184.056797 
L 217.798657 259.197873 
L 218.123636 227.1852 
L 218.448616 211.749677 
L 218.773595 236.452106 
L 219.098575 233.723191 
L 219.423554 237.820415 
L 219.748534 262.127625 
L 220.073514 232.185084 
L 220.398493 216.118638 
L 221.048452 236.7538 
L 221.373432 185.044179 
L 221.698411 229.466348 
L 222.023391 224.451142 
L 222.34837 233.362752 
L 222.67335 228.085111 
L 222.998329 234.410583 
L 223.323309 235.124647 
L 223.648288 230.965053 
L 223.973268 175.556569 
L 224.298247 252.459221 
L 224.623227 195.749349 
L 224.948206 226.398837 
L 225.273186 244.402065 
L 225.598165 205.572605 
L 225.923145 203.553318 
L 226.248124 258.614545 
L 226.898084 192.306683 
L 227.223063 213.523711 
L 227.548043 245.345611 
L 227.873022 158.01268 
L 228.522981 237.028937 
L 228.847961 195.818734 
L 229.17294 213.042211 
L 229.49792 192.325189 
L 229.822899 188.271345 
L 230.147879 227.307812 
L 230.472858 209.42324 
L 230.797838 219.851597 
L 231.122817 205.409603 
L 231.447797 231.999349 
L 232.097756 221.348597 
L 232.422735 270.456492 
L 232.747715 226.48574 
L 233.072695 227.04095 
L 233.397674 251.657099 
L 233.722654 224.326893 
L 234.047633 231.459486 
L 234.372613 230.346092 
L 234.697592 235.847344 
L 235.022572 221.433093 
L 235.672531 205.064944 
L 235.99751 239.918058 
L 236.32249 186.568989 
L 236.647469 221.900495 
L 236.972449 203.897174 
L 237.297428 256.603415 
L 237.947387 195.485915 
L 238.272367 220.783932 
L 238.597346 218.28807 
L 238.922326 224.557799 
L 239.247305 239.603281 
L 239.572285 204.218558 
L 239.897265 204.846267 
L 240.222244 240.585019 
L 240.547224 222.931552 
L 240.872203 221.299441 
L 241.197183 224.229929 
L 241.522162 238.485197 
L 241.847142 238.331336 
L 242.172121 235.266103 
L 242.497101 238.738159 
L 242.82208 234.168366 
L 243.14706 234.377455 
L 243.472039 250.100152 
L 243.797019 226.326846 
L 244.121998 175.401274 
L 244.446978 214.969629 
L 244.771957 232.430757 
L 245.096937 202.853202 
L 245.421916 200.314188 
L 245.746896 238.980464 
L 246.071876 198.749361 
L 246.396855 219.931394 
L 246.721835 227.896119 
L 247.046814 248.403071 
L 247.371794 203.821958 
L 247.696773 225.034216 
L 248.021753 192.0784 
L 248.346732 250.303349 
L 248.671712 207.732859 
L 248.996691 227.835277 
L 249.321671 213.054203 
L 249.64665 239.152364 
L 249.97163 195.153808 
L 250.296609 234.647994 
L 250.621589 212.890408 
L 250.946568 204.639796 
L 251.271548 252.713487 
L 251.596527 181.078241 
L 251.921507 244.343563 
L 252.571466 205.103055 
L 252.896446 224.133949 
L 253.221425 228.68313 
L 253.546405 225.298072 
L 253.871384 228.789898 
L 254.196364 251.284929 
L 254.521343 154.856444 
L 254.846323 257.718244 
L 255.171302 249.04897 
L 255.496282 189.546583 
L 255.821261 192.945757 
L 256.146241 231.234095 
L 256.47122 252.560161 
L 256.7962 206.155219 
L 257.121179 219.948749 
L 257.446159 206.818893 
L 257.771138 226.47464 
L 258.096118 228.972363 
L 258.421097 239.117132 
L 258.746077 216.733462 
L 259.071057 248.062782 
L 259.396036 257.842002 
L 259.721016 209.457272 
L 260.045995 236.940722 
L 260.370975 171.602884 
L 260.695954 238.523849 
L 261.020934 248.841508 
L 261.345913 231.051836 
L 261.670893 237.901248 
L 261.995872 231.130015 
L 262.320852 207.656811 
L 262.645831 253.26671 
L 262.970811 224.482104 
L 263.29579 233.800815 
L 263.62077 230.462245 
L 263.945749 210.889578 
L 264.270729 253.498631 
L 264.595708 226.218277 
L 264.920688 234.23814 
L 265.245667 199.846821 
L 265.570647 247.367678 
L 265.895627 238.240114 
L 266.220606 251.812057 
L 266.545586 209.108564 
L 266.870565 216.075509 
L 267.195545 238.432442 
L 267.520524 218.776514 
L 267.845504 213.146904 
L 268.170483 233.71527 
L 268.495463 210.230831 
L 268.820442 257.152862 
L 269.145422 245.906221 
L 269.470401 243.156106 
L 269.795381 221.270197 
L 270.12036 226.473593 
L 270.44534 226.503481 
L 270.770319 216.477658 
L 271.095299 265.277987 
L 271.420278 207.045279 
L 271.745258 199.177464 
L 272.070238 245.276486 
L 272.395217 223.985602 
L 272.720197 241.846221 
L 273.045176 221.309014 
L 273.370156 215.480683 
L 273.695135 219.105283 
L 274.020115 183.288254 
L 274.345094 230.447108 
L 274.670074 225.47436 
L 274.995053 243.85708 
L 275.320033 210.686628 
L 275.969992 245.954978 
L 276.294971 231.163287 
L 276.619951 236.192345 
L 276.94493 231.559271 
L 277.26991 234.308519 
L 277.594889 193.438821 
L 277.919869 226.478473 
L 278.569828 194.420142 
L 278.894808 254.235313 
L 279.219787 204.085938 
L 279.544767 235.85839 
L 279.869746 225.338552 
L 280.194726 249.720768 
L 280.519705 233.462268 
L 280.844685 242.342976 
L 281.169664 261.127574 
L 281.494644 247.177014 
L 281.819623 186.535154 
L 282.144603 244.123449 
L 282.469582 224.305528 
L 282.794562 232.262001 
L 283.119541 234.803043 
L 283.444521 235.217338 
L 283.7695 192.678355 
L 284.09448 235.563295 
L 284.419459 245.000255 
L 284.744439 262.022918 
L 285.069419 219.670613 
L 285.394398 227.480201 
L 285.719378 202.845178 
L 286.044357 240.664265 
L 286.369337 217.664625 
L 286.694316 218.81587 
L 287.019296 213.199707 
L 287.669255 237.42771 
L 287.994234 221.040077 
L 288.319214 235.086839 
L 288.644193 237.307178 
L 288.969173 256.779704 
L 289.294152 232.077709 
L 289.619132 230.497992 
L 289.944111 243.198213 
L 290.269091 224.680754 
L 290.59407 234.680631 
L 290.91905 216.547058 
L 291.244029 214.707459 
L 291.569009 238.079322 
L 291.893989 206.991345 
L 292.218968 232.75252 
L 292.543948 237.978309 
L 292.868927 226.912481 
L 293.193907 226.782147 
L 293.518886 212.37685 
L 293.843866 241.512924 
L 294.493825 201.660666 
L 294.818804 247.370232 
L 295.143784 233.962368 
L 295.468763 215.505442 
L 295.793743 249.855805 
L 296.118722 236.030114 
L 296.443702 202.176689 
L 296.768681 206.167239 
L 297.093661 241.093764 
L 297.41864 260.285129 
L 297.74362 244.687573 
L 298.0686 242.54871 
L 298.393579 246.636041 
L 298.718559 255.000677 
L 299.043538 237.645467 
L 299.368518 257.026831 
L 299.693497 264.066411 
L 300.018477 209.108601 
L 300.343456 237.870795 
L 300.668436 240.908478 
L 300.993415 215.569268 
L 301.318395 229.802871 
L 301.968354 238.331754 
L 302.293333 236.331446 
L 302.618313 237.389866 
L 302.943292 241.532968 
L 303.268272 236.534208 
L 303.593251 237.185791 
L 303.918231 221.400062 
L 304.24321 239.740181 
L 304.89317 194.963134 
L 305.218149 236.700509 
L 305.543129 224.646943 
L 305.868108 222.504743 
L 306.193088 247.333286 
L 306.518067 249.323655 
L 306.843047 211.164663 
L 307.168026 216.408433 
L 307.493006 242.526622 
L 307.817985 209.451258 
L 308.142965 254.232904 
L 308.792924 241.634354 
L 309.117903 239.984153 
L 309.767862 246.2914 
L 310.092842 198.883203 
L 310.417821 248.693083 
L 310.742801 253.74906 
L 311.067781 233.631548 
L 311.39276 230.375384 
L 311.71774 251.172583 
L 312.042719 248.903556 
L 312.367699 239.312319 
L 312.692678 206.833085 
L 313.017658 257.473865 
L 313.667617 247.533694 
L 313.992596 259.174351 
L 314.317576 240.318475 
L 314.642555 199.429095 
L 314.967535 256.647843 
L 315.292514 247.18203 
L 315.617494 261.146252 
L 315.942473 247.897982 
L 316.267453 269.840439 
L 316.592432 252.316911 
L 316.917412 223.471195 
L 317.242391 231.81675 
L 317.567371 234.063301 
L 317.892351 239.141023 
L 318.21733 255.58319 
L 318.54231 251.507357 
L 318.867289 209.340888 
L 319.192269 240.245646 
L 319.517248 196.071726 
L 319.842228 210.640538 
L 320.167207 249.397988 
L 320.492187 248.213499 
L 320.817166 273.515217 
L 321.142146 220.134273 
L 321.467125 223.366824 
L 321.792105 232.427341 
L 322.117084 250.699981 
L 322.442064 236.477961 
L 322.767043 255.172774 
L 323.092023 253.088574 
L 323.417002 253.236657 
L 323.741982 265.656399 
L 324.066962 235.087946 
L 324.391941 219.247881 
L 324.716921 226.085951 
L 325.0419 249.327493 
L 325.36688 232.746776 
L 325.691859 198.696601 
L 326.016839 206.052583 
L 326.341818 238.672049 
L 326.666798 222.841595 
L 326.991777 235.357568 
L 327.316757 268.164313 
L 327.641736 241.823419 
L 327.966716 237.703022 
L 328.291695 251.784384 
L 328.616675 231.53151 
L 328.941654 222.213317 
L 329.266634 270.86893 
L 329.591613 254.726745 
L 329.916593 224.368814 
L 330.241572 232.8111 
L 330.566552 276.332153 
L 330.891532 198.415768 
L 331.216511 227.723741 
L 331.541491 184.488218 
L 332.19145 239.593292 
L 332.516429 245.649408 
L 332.841409 253.865503 
L 333.166388 221.819983 
L 333.491368 233.120696 
L 333.816347 240.150148 
L 334.141327 251.376059 
L 334.791286 221.180338 
L 335.116265 253.761527 
L 335.441245 250.889229 
L 335.766224 263.529662 
L 336.091204 255.075204 
L 336.416183 199.977085 
L 336.741163 250.277013 
L 337.066143 220.303103 
L 337.391122 245.010992 
L 337.716102 287.608146 
L 338.041081 259.638663 
L 338.366061 275.276019 
L 338.69104 254.285618 
L 339.01602 267.79393 
L 339.340999 209.680315 
L 339.665979 252.350759 
L 339.990958 251.091552 
L 340.315938 233.10358 
L 340.640917 235.971513 
L 340.965897 263.164861 
L 341.290876 248.826928 
L 341.615856 216.303755 
L 341.940835 258.98027 
L 342.265815 259.268088 
L 342.590794 272.809578 
L 342.915774 249.553307 
L 343.240753 244.799752 
L 343.565733 262.06201 
L 344.540672 231.348083 
L 344.865651 226.518885 
L 345.190631 268.836958 
L 345.51561 247.286453 
L 345.84059 256.450486 
L 346.165569 240.310353 
L 346.815528 260.520653 
L 347.140508 262.951919 
L 347.465487 261.790979 
L 348.115446 246.113193 
L 348.440426 234.024407 
L 348.765405 252.984105 
L 349.090385 249.793166 
L 349.415364 250.221665 
L 350.065324 217.933435 
L 350.390303 253.796578 
L 350.715283 271.900765 
L 351.040262 235.463232 
L 351.365242 228.215871 
L 351.690221 231.053335 
L 352.015201 231.282357 
L 352.34018 197.968466 
L 352.66516 257.250677 
L 352.990139 241.901709 
L 353.315119 259.904908 
L 353.640098 230.780522 
L 353.965078 254.150655 
L 354.290057 263.112365 
L 354.615037 252.479299 
L 354.940016 259.466401 
L 355.264996 253.600929 
L 355.589975 256.864034 
L 355.914955 243.822399 
L 356.564914 274.875451 
L 356.889894 249.094971 
L 357.214873 264.829568 
L 357.539853 266.303965 
L 357.864832 199.428902 
L 358.189812 256.360589 
L 358.514791 217.565153 
L 358.839771 257.984815 
L 359.16475 256.411503 
L 359.48973 241.466757 
L 359.814709 245.916975 
L 360.139689 259.519851 
L 360.464668 230.579126 
L 360.789648 262.505766 
L 361.114627 243.437373 
L 361.439607 259.196048 
L 361.764586 228.016477 
L 362.089566 251.72514 
L 362.414545 263.790142 
L 363.064505 255.346314 
L 363.389484 289.693209 
L 363.714464 261.110167 
L 364.039443 188.240446 
L 364.364423 261.135984 
L 364.689402 196.58623 
L 365.014382 243.556824 
L 365.664341 267.707389 
L 365.98932 220.430943 
L 366.3143 245.413921 
L 366.639279 258.73643 
L 366.964259 220.279055 
L 367.289238 266.243272 
L 367.614218 246.467568 
L 367.939197 266.488012 
L 368.264177 270.819636 
L 368.589156 269.561935 
L 368.914136 266.97128 
L 369.239115 283.831268 
L 369.889075 227.728333 
L 370.214054 257.197271 
L 370.539034 258.911752 
L 370.864013 263.080232 
L 371.188993 217.180997 
L 371.513972 268.323718 
L 371.838952 227.445401 
L 372.163931 265.553756 
L 372.81389 260.67809 
L 373.463849 242.937575 
L 373.788829 274.84739 
L 374.113808 263.246419 
L 374.438788 217.906551 
L 374.763767 255.826683 
L 375.088747 260.151559 
L 375.413726 254.060958 
L 375.738706 259.549546 
L 376.063686 247.411595 
L 376.388665 246.877127 
L 376.713645 238.868658 
L 377.038624 257.051164 
L 377.363604 246.091438 
L 377.688583 261.306766 
L 378.013563 268.72492 
L 378.338542 253.029875 
L 378.663522 250.21297 
L 378.988501 259.22811 
L 379.313481 279.126791 
L 379.96344 262.380951 
L 380.288419 245.245074 
L 380.613399 248.905585 
L 380.938378 198.52644 
L 381.263358 274.125429 
L 381.588337 239.542063 
L 381.913317 268.782493 
L 382.238296 244.173536 
L 382.563276 264.495543 
L 382.888256 223.228047 
L 383.213235 279.843411 
L 383.538215 272.551557 
L 383.863194 257.704156 
L 384.188174 275.910851 
L 384.513153 245.284414 
L 384.838133 261.689289 
L 385.163112 216.548475 
L 385.488092 244.514617 
L 385.813071 241.849842 
L 386.138051 231.800217 
L 386.46303 211.501959 
L 386.78801 225.644544 
L 387.112989 264.918361 
L 387.437969 249.903604 
L 387.762948 267.931367 
L 388.087928 218.157019 
L 388.412907 267.312617 
L 388.737887 256.961793 
L 389.062867 261.305975 
L 389.387846 262.900639 
L 389.712826 243.333556 
L 390.037805 254.532375 
L 390.362785 245.674426 
L 391.012744 285.676554 
L 391.337723 264.132717 
L 391.662703 288.685958 
L 392.312662 227.394571 
L 392.637641 222.76893 
L 393.2876 285.477068 
L 393.61258 212.872806 
L 393.937559 281.867932 
L 394.262539 258.026913 
L 394.587518 257.988638 
L 394.912498 216.615201 
L 395.237477 239.336888 
L 395.562457 275.273344 
L 395.887437 277.146771 
L 396.537396 265.501848 
L 396.862375 226.815456 
L 397.187355 272.627997 
L 397.512334 256.431352 
L 397.837314 213.611456 
L 398.162293 295.488 
L 398.487273 265.012109 
L 398.487273 265.012109 
" clip-path="url(#p1a77629348)" style="fill: none; stroke: #e24a33; stroke-width: 1.5; stroke-linecap: square"/>
   </g>
   <g id="patch_3">
    <path d="M 57.6 307.584 
L 57.6 41.472 
" style="fill: none; stroke: #ffffff; stroke-linejoin: miter; stroke-linecap: square"/>
   </g>
   <g id="patch_4">
    <path d="M 414.72 307.584 
L 414.72 41.472 
" style="fill: none; stroke: #ffffff; stroke-linejoin: miter; stroke-linecap: square"/>
   </g>
   <g id="patch_5">
    <path d="M 57.6 307.584 
L 414.72 307.584 
" style="fill: none; stroke: #ffffff; stroke-linejoin: miter; stroke-linecap: square"/>
   </g>
   <g id="patch_6">
    <path d="M 57.6 41.472 
L 414.72 41.472 
" style="fill: none; stroke: #ffffff; stroke-linejoin: miter; stroke-linecap: square"/>
   </g>
  </g>
 </g>
 <defs>
  <clipPath id="p1a77629348">
   <rect x="57.6" y="41.472" width="357.12" height="266.112"/>
  </clipPath>
 </defs>
</svg>
