<?xml version="1.0" encoding="utf-8" standalone="no"?>
<!DOCTYPE svg PUBLIC "-//W3C//DTD SVG 1.1//EN"
  "http://www.w3.org/Graphics/SVG/1.1/DTD/svg11.dtd">
<svg xmlns:xlink="http://www.w3.org/1999/xlink" width="460.8pt" height="345.6pt" viewBox="0 0 460.8 345.6" xmlns="http://www.w3.org/2000/svg" version="1.1">
 <metadata>
  <rdf:RDF xmlns:dc="http://purl.org/dc/elements/1.1/" xmlns:cc="http://creativecommons.org/ns#" xmlns:rdf="http://www.w3.org/1999/02/22-rdf-syntax-ns#">
   <cc:Work>
    <dc:type rdf:resource="http://purl.org/dc/dcmitype/StillImage"/>
    <dc:date>2022-11-13T18:50:41.151499</dc:date>
    <dc:format>image/svg+xml</dc:format>
    <dc:creator>
     <cc:Agent>
      <dc:title>Matplotlib v3.5.3, https://matplotlib.org/</dc:title>
     </cc:Agent>
    </dc:creator>
   </cc:Work>
  </rdf:RDF>
 </metadata>
 <defs>
  <style type="text/css">*{stroke-linejoin: round; stroke-linecap: butt}</style>
 </defs>
 <g id="figure_1">
  <g id="patch_1">
   <path d="M 0 345.6 
L 460.8 345.6 
L 460.8 0 
L 0 0 
z
" style="fill: #ffffff"/>
  </g>
  <g id="axes_1">
   <g id="patch_2">
    <path d="M 57.6 307.584 
L 414.72 307.584 
L 414.72 41.472 
L 57.6 41.472 
z
" style="fill: #ffffff"/>
   </g>
   <g id="matplotlib.axis_1">
    <g id="xtick_1">
     <g id="line2d_1">
      <defs>
       <path id="mef0e250b5d" d="M 0 0 
L 0 3.5 
" style="stroke: #000000; stroke-width: 0.8"/>
      </defs>
      <g>
       <use xlink:href="#mef0e250b5d" x="73.832727" y="307.584" style="stroke: #000000; stroke-width: 0.8"/>
      </g>
     </g>
     <g id="text_1">
      <!-- $\mathdefault{10^{0}}$ -->
      <g transform="translate(65.032727 322.182437)scale(0.1 -0.1)">
       <defs>
        <path id="DejaVuSans-31" d="M 794 531 
L 1825 531 
L 1825 4091 
L 703 3866 
L 703 4441 
L 1819 4666 
L 2450 4666 
L 2450 531 
L 3481 531 
L 3481 0 
L 794 0 
L 794 531 
z
" transform="scale(0.015625)"/>
        <path id="DejaVuSans-30" d="M 2034 4250 
Q 1547 4250 1301 3770 
Q 1056 3291 1056 2328 
Q 1056 1369 1301 889 
Q 1547 409 2034 409 
Q 2525 409 2770 889 
Q 3016 1369 3016 2328 
Q 3016 3291 2770 3770 
Q 2525 4250 2034 4250 
z
M 2034 4750 
Q 2819 4750 3233 4129 
Q 3647 3509 3647 2328 
Q 3647 1150 3233 529 
Q 2819 -91 2034 -91 
Q 1250 -91 836 529 
Q 422 1150 422 2328 
Q 422 3509 836 4129 
Q 1250 4750 2034 4750 
z
" transform="scale(0.015625)"/>
       </defs>
       <use xlink:href="#DejaVuSans-31" transform="translate(0 0.765625)"/>
       <use xlink:href="#DejaVuSans-30" transform="translate(63.623047 0.765625)"/>
       <use xlink:href="#DejaVuSans-30" transform="translate(128.203125 39.046875)scale(0.7)"/>
      </g>
     </g>
    </g>
    <g id="xtick_2">
     <g id="line2d_2">
      <g>
       <use xlink:href="#mef0e250b5d" x="157.305261" y="307.584" style="stroke: #000000; stroke-width: 0.8"/>
      </g>
     </g>
     <g id="text_2">
      <!-- $\mathdefault{10^{1}}$ -->
      <g transform="translate(148.505261 322.182437)scale(0.1 -0.1)">
       <use xlink:href="#DejaVuSans-31" transform="translate(0 0.684375)"/>
       <use xlink:href="#DejaVuSans-30" transform="translate(63.623047 0.684375)"/>
       <use xlink:href="#DejaVuSans-31" transform="translate(128.203125 38.965625)scale(0.7)"/>
      </g>
     </g>
    </g>
    <g id="xtick_3">
     <g id="line2d_3">
      <g>
       <use xlink:href="#mef0e250b5d" x="240.777795" y="307.584" style="stroke: #000000; stroke-width: 0.8"/>
      </g>
     </g>
     <g id="text_3">
      <!-- $\mathdefault{10^{2}}$ -->
      <g transform="translate(231.977795 322.182437)scale(0.1 -0.1)">
       <defs>
        <path id="DejaVuSans-32" d="M 1228 531 
L 3431 531 
L 3431 0 
L 469 0 
L 469 531 
Q 828 903 1448 1529 
Q 2069 2156 2228 2338 
Q 2531 2678 2651 2914 
Q 2772 3150 2772 3378 
Q 2772 3750 2511 3984 
Q 2250 4219 1831 4219 
Q 1534 4219 1204 4116 
Q 875 4013 500 3803 
L 500 4441 
Q 881 4594 1212 4672 
Q 1544 4750 1819 4750 
Q 2544 4750 2975 4387 
Q 3406 4025 3406 3419 
Q 3406 3131 3298 2873 
Q 3191 2616 2906 2266 
Q 2828 2175 2409 1742 
Q 1991 1309 1228 531 
z
" transform="scale(0.015625)"/>
       </defs>
       <use xlink:href="#DejaVuSans-31" transform="translate(0 0.765625)"/>
       <use xlink:href="#DejaVuSans-30" transform="translate(63.623047 0.765625)"/>
       <use xlink:href="#DejaVuSans-32" transform="translate(128.203125 39.046875)scale(0.7)"/>
      </g>
     </g>
    </g>
    <g id="xtick_4">
     <g id="line2d_4">
      <g>
       <use xlink:href="#mef0e250b5d" x="324.250329" y="307.584" style="stroke: #000000; stroke-width: 0.8"/>
      </g>
     </g>
     <g id="text_4">
      <!-- $\mathdefault{10^{3}}$ -->
      <g transform="translate(315.450329 322.182437)scale(0.1 -0.1)">
       <defs>
        <path id="DejaVuSans-33" d="M 2597 2516 
Q 3050 2419 3304 2112 
Q 3559 1806 3559 1356 
Q 3559 666 3084 287 
Q 2609 -91 1734 -91 
Q 1441 -91 1130 -33 
Q 819 25 488 141 
L 488 750 
Q 750 597 1062 519 
Q 1375 441 1716 441 
Q 2309 441 2620 675 
Q 2931 909 2931 1356 
Q 2931 1769 2642 2001 
Q 2353 2234 1838 2234 
L 1294 2234 
L 1294 2753 
L 1863 2753 
Q 2328 2753 2575 2939 
Q 2822 3125 2822 3475 
Q 2822 3834 2567 4026 
Q 2313 4219 1838 4219 
Q 1578 4219 1281 4162 
Q 984 4106 628 3988 
L 628 4550 
Q 988 4650 1302 4700 
Q 1616 4750 1894 4750 
Q 2613 4750 3031 4423 
Q 3450 4097 3450 3541 
Q 3450 3153 3228 2886 
Q 3006 2619 2597 2516 
z
" transform="scale(0.015625)"/>
       </defs>
       <use xlink:href="#DejaVuSans-31" transform="translate(0 0.765625)"/>
       <use xlink:href="#DejaVuSans-30" transform="translate(63.623047 0.765625)"/>
       <use xlink:href="#DejaVuSans-33" transform="translate(128.203125 39.046875)scale(0.7)"/>
      </g>
     </g>
    </g>
    <g id="xtick_5">
     <g id="line2d_5">
      <g>
       <use xlink:href="#mef0e250b5d" x="407.722863" y="307.584" style="stroke: #000000; stroke-width: 0.8"/>
      </g>
     </g>
     <g id="text_5">
      <!-- $\mathdefault{10^{4}}$ -->
      <g transform="translate(398.922863 322.182437)scale(0.1 -0.1)">
       <defs>
        <path id="DejaVuSans-34" d="M 2419 4116 
L 825 1625 
L 2419 1625 
L 2419 4116 
z
M 2253 4666 
L 3047 4666 
L 3047 1625 
L 3713 1625 
L 3713 1100 
L 3047 1100 
L 3047 0 
L 2419 0 
L 2419 1100 
L 313 1100 
L 313 1709 
L 2253 4666 
z
" transform="scale(0.015625)"/>
       </defs>
       <use xlink:href="#DejaVuSans-31" transform="translate(0 0.684375)"/>
       <use xlink:href="#DejaVuSans-30" transform="translate(63.623047 0.684375)"/>
       <use xlink:href="#DejaVuSans-34" transform="translate(128.203125 38.965625)scale(0.7)"/>
      </g>
     </g>
    </g>
    <g id="xtick_6">
     <g id="line2d_6">
      <defs>
       <path id="m89e94466d9" d="M 0 0 
L 0 2 
" style="stroke: #000000; stroke-width: 0.6"/>
      </defs>
      <g>
       <use xlink:href="#m89e94466d9" x="60.902668" y="307.584" style="stroke: #000000; stroke-width: 0.6"/>
      </g>
     </g>
    </g>
    <g id="xtick_7">
     <g id="line2d_7">
      <g>
       <use xlink:href="#m89e94466d9" x="65.743403" y="307.584" style="stroke: #000000; stroke-width: 0.6"/>
      </g>
     </g>
    </g>
    <g id="xtick_8">
     <g id="line2d_8">
      <g>
       <use xlink:href="#m89e94466d9" x="70.013234" y="307.584" style="stroke: #000000; stroke-width: 0.6"/>
      </g>
     </g>
    </g>
    <g id="xtick_9">
     <g id="line2d_9">
      <g>
       <use xlink:href="#m89e94466d9" x="98.960464" y="307.584" style="stroke: #000000; stroke-width: 0.6"/>
      </g>
     </g>
    </g>
    <g id="xtick_10">
     <g id="line2d_10">
      <g>
       <use xlink:href="#m89e94466d9" x="113.659247" y="307.584" style="stroke: #000000; stroke-width: 0.6"/>
      </g>
     </g>
    </g>
    <g id="xtick_11">
     <g id="line2d_11">
      <g>
       <use xlink:href="#m89e94466d9" x="124.0882" y="307.584" style="stroke: #000000; stroke-width: 0.6"/>
      </g>
     </g>
    </g>
    <g id="xtick_12">
     <g id="line2d_12">
      <g>
       <use xlink:href="#m89e94466d9" x="132.177525" y="307.584" style="stroke: #000000; stroke-width: 0.6"/>
      </g>
     </g>
    </g>
    <g id="xtick_13">
     <g id="line2d_13">
      <g>
       <use xlink:href="#m89e94466d9" x="138.786984" y="307.584" style="stroke: #000000; stroke-width: 0.6"/>
      </g>
     </g>
    </g>
    <g id="xtick_14">
     <g id="line2d_14">
      <g>
       <use xlink:href="#m89e94466d9" x="144.375202" y="307.584" style="stroke: #000000; stroke-width: 0.6"/>
      </g>
     </g>
    </g>
    <g id="xtick_15">
     <g id="line2d_15">
      <g>
       <use xlink:href="#m89e94466d9" x="149.215937" y="307.584" style="stroke: #000000; stroke-width: 0.6"/>
      </g>
     </g>
    </g>
    <g id="xtick_16">
     <g id="line2d_16">
      <g>
       <use xlink:href="#m89e94466d9" x="153.485767" y="307.584" style="stroke: #000000; stroke-width: 0.6"/>
      </g>
     </g>
    </g>
    <g id="xtick_17">
     <g id="line2d_17">
      <g>
       <use xlink:href="#m89e94466d9" x="182.432998" y="307.584" style="stroke: #000000; stroke-width: 0.6"/>
      </g>
     </g>
    </g>
    <g id="xtick_18">
     <g id="line2d_18">
      <g>
       <use xlink:href="#m89e94466d9" x="197.131781" y="307.584" style="stroke: #000000; stroke-width: 0.6"/>
      </g>
     </g>
    </g>
    <g id="xtick_19">
     <g id="line2d_19">
      <g>
       <use xlink:href="#m89e94466d9" x="207.560734" y="307.584" style="stroke: #000000; stroke-width: 0.6"/>
      </g>
     </g>
    </g>
    <g id="xtick_20">
     <g id="line2d_20">
      <g>
       <use xlink:href="#m89e94466d9" x="215.650059" y="307.584" style="stroke: #000000; stroke-width: 0.6"/>
      </g>
     </g>
    </g>
    <g id="xtick_21">
     <g id="line2d_21">
      <g>
       <use xlink:href="#m89e94466d9" x="222.259518" y="307.584" style="stroke: #000000; stroke-width: 0.6"/>
      </g>
     </g>
    </g>
    <g id="xtick_22">
     <g id="line2d_22">
      <g>
       <use xlink:href="#m89e94466d9" x="227.847736" y="307.584" style="stroke: #000000; stroke-width: 0.6"/>
      </g>
     </g>
    </g>
    <g id="xtick_23">
     <g id="line2d_23">
      <g>
       <use xlink:href="#m89e94466d9" x="232.688471" y="307.584" style="stroke: #000000; stroke-width: 0.6"/>
      </g>
     </g>
    </g>
    <g id="xtick_24">
     <g id="line2d_24">
      <g>
       <use xlink:href="#m89e94466d9" x="236.958301" y="307.584" style="stroke: #000000; stroke-width: 0.6"/>
      </g>
     </g>
    </g>
    <g id="xtick_25">
     <g id="line2d_25">
      <g>
       <use xlink:href="#m89e94466d9" x="265.905532" y="307.584" style="stroke: #000000; stroke-width: 0.6"/>
      </g>
     </g>
    </g>
    <g id="xtick_26">
     <g id="line2d_26">
      <g>
       <use xlink:href="#m89e94466d9" x="280.604315" y="307.584" style="stroke: #000000; stroke-width: 0.6"/>
      </g>
     </g>
    </g>
    <g id="xtick_27">
     <g id="line2d_27">
      <g>
       <use xlink:href="#m89e94466d9" x="291.033268" y="307.584" style="stroke: #000000; stroke-width: 0.6"/>
      </g>
     </g>
    </g>
    <g id="xtick_28">
     <g id="line2d_28">
      <g>
       <use xlink:href="#m89e94466d9" x="299.122592" y="307.584" style="stroke: #000000; stroke-width: 0.6"/>
      </g>
     </g>
    </g>
    <g id="xtick_29">
     <g id="line2d_29">
      <g>
       <use xlink:href="#m89e94466d9" x="305.732052" y="307.584" style="stroke: #000000; stroke-width: 0.6"/>
      </g>
     </g>
    </g>
    <g id="xtick_30">
     <g id="line2d_30">
      <g>
       <use xlink:href="#m89e94466d9" x="311.32027" y="307.584" style="stroke: #000000; stroke-width: 0.6"/>
      </g>
     </g>
    </g>
    <g id="xtick_31">
     <g id="line2d_31">
      <g>
       <use xlink:href="#m89e94466d9" x="316.161005" y="307.584" style="stroke: #000000; stroke-width: 0.6"/>
      </g>
     </g>
    </g>
    <g id="xtick_32">
     <g id="line2d_32">
      <g>
       <use xlink:href="#m89e94466d9" x="320.430835" y="307.584" style="stroke: #000000; stroke-width: 0.6"/>
      </g>
     </g>
    </g>
    <g id="xtick_33">
     <g id="line2d_33">
      <g>
       <use xlink:href="#m89e94466d9" x="349.378065" y="307.584" style="stroke: #000000; stroke-width: 0.6"/>
      </g>
     </g>
    </g>
    <g id="xtick_34">
     <g id="line2d_34">
      <g>
       <use xlink:href="#m89e94466d9" x="364.076849" y="307.584" style="stroke: #000000; stroke-width: 0.6"/>
      </g>
     </g>
    </g>
    <g id="xtick_35">
     <g id="line2d_35">
      <g>
       <use xlink:href="#m89e94466d9" x="374.505802" y="307.584" style="stroke: #000000; stroke-width: 0.6"/>
      </g>
     </g>
    </g>
    <g id="xtick_36">
     <g id="line2d_36">
      <g>
       <use xlink:href="#m89e94466d9" x="382.595126" y="307.584" style="stroke: #000000; stroke-width: 0.6"/>
      </g>
     </g>
    </g>
    <g id="xtick_37">
     <g id="line2d_37">
      <g>
       <use xlink:href="#m89e94466d9" x="389.204586" y="307.584" style="stroke: #000000; stroke-width: 0.6"/>
      </g>
     </g>
    </g>
    <g id="xtick_38">
     <g id="line2d_38">
      <g>
       <use xlink:href="#m89e94466d9" x="394.792804" y="307.584" style="stroke: #000000; stroke-width: 0.6"/>
      </g>
     </g>
    </g>
    <g id="xtick_39">
     <g id="line2d_39">
      <g>
       <use xlink:href="#m89e94466d9" x="399.633538" y="307.584" style="stroke: #000000; stroke-width: 0.6"/>
      </g>
     </g>
    </g>
    <g id="xtick_40">
     <g id="line2d_40">
      <g>
       <use xlink:href="#m89e94466d9" x="403.903369" y="307.584" style="stroke: #000000; stroke-width: 0.6"/>
      </g>
     </g>
    </g>
    <g id="text_6">
     <!-- Epoch -->
     <g transform="translate(220.849063 335.860562)scale(0.1 -0.1)">
      <defs>
       <path id="DejaVuSans-45" d="M 628 4666 
L 3578 4666 
L 3578 4134 
L 1259 4134 
L 1259 2753 
L 3481 2753 
L 3481 2222 
L 1259 2222 
L 1259 531 
L 3634 531 
L 3634 0 
L 628 0 
L 628 4666 
z
" transform="scale(0.015625)"/>
       <path id="DejaVuSans-70" d="M 1159 525 
L 1159 -1331 
L 581 -1331 
L 581 3500 
L 1159 3500 
L 1159 2969 
Q 1341 3281 1617 3432 
Q 1894 3584 2278 3584 
Q 2916 3584 3314 3078 
Q 3713 2572 3713 1747 
Q 3713 922 3314 415 
Q 2916 -91 2278 -91 
Q 1894 -91 1617 61 
Q 1341 213 1159 525 
z
M 3116 1747 
Q 3116 2381 2855 2742 
Q 2594 3103 2138 3103 
Q 1681 3103 1420 2742 
Q 1159 2381 1159 1747 
Q 1159 1113 1420 752 
Q 1681 391 2138 391 
Q 2594 391 2855 752 
Q 3116 1113 3116 1747 
z
" transform="scale(0.015625)"/>
       <path id="DejaVuSans-6f" d="M 1959 3097 
Q 1497 3097 1228 2736 
Q 959 2375 959 1747 
Q 959 1119 1226 758 
Q 1494 397 1959 397 
Q 2419 397 2687 759 
Q 2956 1122 2956 1747 
Q 2956 2369 2687 2733 
Q 2419 3097 1959 3097 
z
M 1959 3584 
Q 2709 3584 3137 3096 
Q 3566 2609 3566 1747 
Q 3566 888 3137 398 
Q 2709 -91 1959 -91 
Q 1206 -91 779 398 
Q 353 888 353 1747 
Q 353 2609 779 3096 
Q 1206 3584 1959 3584 
z
" transform="scale(0.015625)"/>
       <path id="DejaVuSans-63" d="M 3122 3366 
L 3122 2828 
Q 2878 2963 2633 3030 
Q 2388 3097 2138 3097 
Q 1578 3097 1268 2742 
Q 959 2388 959 1747 
Q 959 1106 1268 751 
Q 1578 397 2138 397 
Q 2388 397 2633 464 
Q 2878 531 3122 666 
L 3122 134 
Q 2881 22 2623 -34 
Q 2366 -91 2075 -91 
Q 1284 -91 818 406 
Q 353 903 353 1747 
Q 353 2603 823 3093 
Q 1294 3584 2113 3584 
Q 2378 3584 2631 3529 
Q 2884 3475 3122 3366 
z
" transform="scale(0.015625)"/>
       <path id="DejaVuSans-68" d="M 3513 2113 
L 3513 0 
L 2938 0 
L 2938 2094 
Q 2938 2591 2744 2837 
Q 2550 3084 2163 3084 
Q 1697 3084 1428 2787 
Q 1159 2491 1159 1978 
L 1159 0 
L 581 0 
L 581 4863 
L 1159 4863 
L 1159 2956 
Q 1366 3272 1645 3428 
Q 1925 3584 2291 3584 
Q 2894 3584 3203 3211 
Q 3513 2838 3513 2113 
z
" transform="scale(0.015625)"/>
      </defs>
      <use xlink:href="#DejaVuSans-45"/>
      <use xlink:href="#DejaVuSans-70" x="63.183594"/>
      <use xlink:href="#DejaVuSans-6f" x="126.660156"/>
      <use xlink:href="#DejaVuSans-63" x="187.841797"/>
      <use xlink:href="#DejaVuSans-68" x="242.822266"/>
     </g>
    </g>
   </g>
   <g id="matplotlib.axis_2">
    <g id="ytick_1">
     <g id="line2d_41">
      <defs>
       <path id="m067a2166c6" d="M 0 0 
L -3.5 0 
" style="stroke: #000000; stroke-width: 0.8"/>
      </defs>
      <g>
       <use xlink:href="#m067a2166c6" x="57.6" y="212.144699" style="stroke: #000000; stroke-width: 0.8"/>
      </g>
     </g>
     <g id="text_7">
      <!-- $\mathdefault{10^{1}}$ -->
      <g transform="translate(33 215.943917)scale(0.1 -0.1)">
       <use xlink:href="#DejaVuSans-31" transform="translate(0 0.684375)"/>
       <use xlink:href="#DejaVuSans-30" transform="translate(63.623047 0.684375)"/>
       <use xlink:href="#DejaVuSans-31" transform="translate(128.203125 38.965625)scale(0.7)"/>
      </g>
     </g>
    </g>
    <g id="ytick_2">
     <g id="line2d_42">
      <defs>
       <path id="ma8cb51fb29" d="M 0 0 
L -2 0 
" style="stroke: #000000; stroke-width: 0.6"/>
      </defs>
      <g>
       <use xlink:href="#ma8cb51fb29" x="57.6" y="287.247042" style="stroke: #000000; stroke-width: 0.6"/>
      </g>
     </g>
    </g>
    <g id="ytick_3">
     <g id="line2d_43">
      <g>
       <use xlink:href="#ma8cb51fb29" x="57.6" y="268.957428" style="stroke: #000000; stroke-width: 0.6"/>
      </g>
     </g>
    </g>
    <g id="ytick_4">
     <g id="line2d_44">
      <g>
       <use xlink:href="#ma8cb51fb29" x="57.6" y="254.013726" style="stroke: #000000; stroke-width: 0.6"/>
      </g>
     </g>
    </g>
    <g id="ytick_5">
     <g id="line2d_45">
      <g>
       <use xlink:href="#ma8cb51fb29" x="57.6" y="241.379005" style="stroke: #000000; stroke-width: 0.6"/>
      </g>
     </g>
    </g>
    <g id="ytick_6">
     <g id="line2d_46">
      <g>
       <use xlink:href="#ma8cb51fb29" x="57.6" y="230.434312" style="stroke: #000000; stroke-width: 0.6"/>
      </g>
     </g>
    </g>
    <g id="ytick_7">
     <g id="line2d_47">
      <g>
       <use xlink:href="#ma8cb51fb29" x="57.6" y="220.780409" style="stroke: #000000; stroke-width: 0.6"/>
      </g>
     </g>
    </g>
    <g id="ytick_8">
     <g id="line2d_48">
      <g>
       <use xlink:href="#ma8cb51fb29" x="57.6" y="155.331969" style="stroke: #000000; stroke-width: 0.6"/>
      </g>
     </g>
    </g>
    <g id="ytick_9">
     <g id="line2d_49">
      <g>
       <use xlink:href="#ma8cb51fb29" x="57.6" y="122.098653" style="stroke: #000000; stroke-width: 0.6"/>
      </g>
     </g>
    </g>
    <g id="ytick_10">
     <g id="line2d_50">
      <g>
       <use xlink:href="#ma8cb51fb29" x="57.6" y="98.51924" style="stroke: #000000; stroke-width: 0.6"/>
      </g>
     </g>
    </g>
    <g id="ytick_11">
     <g id="line2d_51">
      <g>
       <use xlink:href="#ma8cb51fb29" x="57.6" y="80.229626" style="stroke: #000000; stroke-width: 0.6"/>
      </g>
     </g>
    </g>
    <g id="ytick_12">
     <g id="line2d_52">
      <g>
       <use xlink:href="#ma8cb51fb29" x="57.6" y="65.285924" style="stroke: #000000; stroke-width: 0.6"/>
      </g>
     </g>
    </g>
    <g id="ytick_13">
     <g id="line2d_53">
      <g>
       <use xlink:href="#ma8cb51fb29" x="57.6" y="52.651203" style="stroke: #000000; stroke-width: 0.6"/>
      </g>
     </g>
    </g>
    <g id="ytick_14">
     <g id="line2d_54">
      <g>
       <use xlink:href="#ma8cb51fb29" x="57.6" y="41.70651" style="stroke: #000000; stroke-width: 0.6"/>
      </g>
     </g>
    </g>
    <g id="text_8">
     <!-- MSE -->
     <g transform="translate(26.920313 185.175656)rotate(-90)scale(0.1 -0.1)">
      <defs>
       <path id="DejaVuSans-4d" d="M 628 4666 
L 1569 4666 
L 2759 1491 
L 3956 4666 
L 4897 4666 
L 4897 0 
L 4281 0 
L 4281 4097 
L 3078 897 
L 2444 897 
L 1241 4097 
L 1241 0 
L 628 0 
L 628 4666 
z
" transform="scale(0.015625)"/>
       <path id="DejaVuSans-53" d="M 3425 4513 
L 3425 3897 
Q 3066 4069 2747 4153 
Q 2428 4238 2131 4238 
Q 1616 4238 1336 4038 
Q 1056 3838 1056 3469 
Q 1056 3159 1242 3001 
Q 1428 2844 1947 2747 
L 2328 2669 
Q 3034 2534 3370 2195 
Q 3706 1856 3706 1288 
Q 3706 609 3251 259 
Q 2797 -91 1919 -91 
Q 1588 -91 1214 -16 
Q 841 59 441 206 
L 441 856 
Q 825 641 1194 531 
Q 1563 422 1919 422 
Q 2459 422 2753 634 
Q 3047 847 3047 1241 
Q 3047 1584 2836 1778 
Q 2625 1972 2144 2069 
L 1759 2144 
Q 1053 2284 737 2584 
Q 422 2884 422 3419 
Q 422 4038 858 4394 
Q 1294 4750 2059 4750 
Q 2388 4750 2728 4690 
Q 3069 4631 3425 4513 
z
" transform="scale(0.015625)"/>
      </defs>
      <use xlink:href="#DejaVuSans-4d"/>
      <use xlink:href="#DejaVuSans-53" x="86.279297"/>
      <use xlink:href="#DejaVuSans-45" x="149.755859"/>
     </g>
    </g>
   </g>
   <g id="line2d_55">
    <path d="M -1 213.9051 
L 73.832727 213.924656 
L 98.960464 227.088085 
L 113.659247 206.288614 
L 124.0882 204.23705 
L 132.177525 210.044682 
L 138.786984 248.747354 
L 144.375202 234.388896 
L 149.215937 256.569737 
L 153.485767 258.122082 
L 157.305261 273.797964 
L 160.760413 248.962649 
L 163.91472 249.28302 
L 166.816401 233.597837 
L 169.502939 218.130916 
L 172.004045 270.742586 
L 174.343673 270.227558 
L 176.541417 236.831523 
L 178.613504 271.290316 
L 180.573531 277.067689 
L 182.432998 272.423654 
L 184.201722 140.760368 
L 185.88815 235.650241 
L 187.4996 238.094555 
L 189.042457 261.713752 
L 190.522322 243.639575 
L 191.944138 254.138352 
L 193.312288 252.221309 
L 194.630675 245.139842 
L 195.902794 92.045318 
L 197.131781 289.912538 
L 198.320467 240.656657 
L 199.47141 247.936782 
L 200.586934 215.899049 
L 201.669153 236.455727 
L 202.719999 240.006238 
L 203.74124 236.156788 
L 204.734499 260.75184 
L 205.701267 240.799805 
L 206.642922 261.813323 
L 207.560734 234.477387 
L 208.455882 261.686265 
L 209.329459 258.785881 
L 210.182478 115.950678 
L 211.015886 278.158823 
L 211.830565 280.937699 
L 212.627337 253.748623 
L 213.406972 258.245787 
L 214.170193 277.554134 
L 214.917677 280.506736 
L 215.650059 229.859086 
L 216.367937 286.717411 
L 217.071875 213.547028 
L 217.762403 244.222145 
L 218.440024 224.302897 
L 219.105211 219.08794 
L 219.758412 189.789841 
L 220.400051 232.75901 
L 221.03053 224.413611 
L 221.650232 239.330298 
L 222.259518 262.216057 
L 222.858732 243.607124 
L 223.448203 211.092012 
L 224.028242 211.327646 
L 224.599146 196.91188 
L 225.161199 261.178364 
L 225.71467 259.365234 
L 226.259818 276.344018 
L 226.79689 96.621717 
L 227.32612 242.658378 
L 227.847736 279.703872 
L 228.361953 274.331908 
L 228.868977 263.381787 
L 229.369008 183.11248 
L 229.862235 238.300609 
L 230.348842 269.322778 
L 230.829004 169.930796 
L 231.302888 249.679563 
L 231.770658 256.739524 
L 232.232469 208.615877 
L 232.688471 239.040875 
L 233.138808 289.713327 
L 233.583619 276.330093 
L 234.023038 258.029068 
L 234.457195 270.484325 
L 234.886214 259.808322 
L 235.310215 209.857455 
L 235.729314 277.058223 
L 236.143623 211.874618 
L 236.553251 277.923257 
L 236.958301 238.694278 
L 237.358876 273.360213 
L 237.755073 277.599279 
L 238.146987 190.408312 
L 238.918328 247.866307 
L 239.29793 170.870728 
L 239.673598 183.717195 
L 240.045413 259.487614 
L 240.413454 278.29489 
L 240.777795 270.73721 
L 241.138511 217.561422 
L 241.495673 222.639505 
L 241.849351 280.805377 
L 242.199611 255.026856 
L 242.54652 281.092746 
L 242.89014 263.288338 
L 243.230533 276.120922 
L 243.567761 281.359635 
L 243.90188 260.505624 
L 244.232947 264.264115 
L 244.561019 232.665069 
L 244.886148 244.505614 
L 245.208387 287.610671 
L 245.844398 180.925247 
L 246.158267 244.145377 
L 246.469442 226.468599 
L 246.777968 279.955077 
L 247.083891 243.536135 
L 247.387254 263.364065 
L 247.6881 255.473283 
L 248.282402 268.515931 
L 248.57594 197.290343 
L 248.867119 255.154196 
L 249.155979 230.336272 
L 249.442555 250.521318 
L 249.726883 254.114609 
L 250.008998 275.734437 
L 250.288935 277.388971 
L 250.566727 245.002933 
L 250.842407 243.955675 
L 251.116005 274.493778 
L 251.387555 250.258328 
L 251.657085 273.065482 
L 251.924626 249.615179 
L 252.190207 266.966968 
L 252.453857 234.981208 
L 252.715603 276.016361 
L 252.975472 265.94702 
L 253.233492 215.236902 
L 253.489689 259.641539 
L 253.744088 271.365699 
L 253.996714 271.511754 
L 254.247591 263.223867 
L 254.496744 241.081558 
L 254.744197 244.18071 
L 254.989972 270.932763 
L 255.234092 277.401846 
L 255.476579 276.581816 
L 255.717454 276.745823 
L 255.95674 234.422443 
L 256.194457 272.612987 
L 256.430625 249.819004 
L 256.665264 201.617575 
L 256.898395 251.399046 
L 257.130035 250.556506 
L 257.360205 252.669353 
L 257.588923 257.563914 
L 257.816207 252.140343 
L 258.042075 275.307734 
L 258.266544 245.196066 
L 258.489632 256.433491 
L 258.711355 281.609352 
L 258.931731 209.927442 
L 259.368503 253.728985 
L 259.584932 213.930911 
L 259.800076 273.441406 
L 260.01395 205.067384 
L 260.437951 281.269703 
L 260.648106 282.751261 
L 261.064797 221.661987 
L 261.27136 188.157279 
L 261.680987 252.268324 
L 261.884078 254.127491 
L 262.086038 213.682642 
L 262.286879 123.53714 
L 262.486613 184.628978 
L 262.685253 169.190499 
L 262.88281 260.034487 
L 263.079296 263.701386 
L 263.274723 187.124729 
L 263.469103 282.99333 
L 263.662445 281.086619 
L 263.854762 265.997209 
L 264.046064 194.552966 
L 264.236362 281.37887 
L 264.425666 280.686012 
L 264.613987 190.145399 
L 264.801335 193.976433 
L 264.987719 251.253133 
L 265.17315 262.266339 
L 265.357637 250.739909 
L 265.54119 279.657018 
L 265.723819 254.267743 
L 265.905532 157.903691 
L 266.086338 277.260937 
L 266.266248 229.184376 
L 266.62341 269.414111 
L 266.80068 255.890366 
L 266.977087 223.075742 
L 267.15264 277.287471 
L 267.501217 269.954533 
L 267.674256 225.128892 
L 267.846473 276.022206 
L 268.017876 263.218561 
L 268.188473 273.049408 
L 268.35827 197.357498 
L 268.695497 279.842057 
L 268.862942 205.395667 
L 269.029616 250.583413 
L 269.195528 237.567283 
L 269.360684 251.792944 
L 269.525091 277.763675 
L 269.851685 232.090693 
L 270.175362 275.571548 
L 270.336124 206.042853 
L 270.496175 222.669096 
L 270.655524 269.437428 
L 270.814175 255.656262 
L 271.129408 275.386889 
L 271.441925 268.645482 
L 271.597178 220.856866 
L 271.75177 249.326157 
L 271.905705 239.672777 
L 272.058989 253.059722 
L 272.211628 161.146094 
L 272.363627 192.930675 
L 272.514991 274.972611 
L 272.665726 234.418986 
L 272.815836 238.440775 
L 272.965328 213.634533 
L 273.114205 276.861751 
L 273.410139 254.655358 
L 273.557205 219.917399 
L 273.703676 243.318765 
L 273.849558 236.07455 
L 273.994856 270.89641 
L 274.139573 247.967901 
L 274.283715 257.729832 
L 274.427286 216.547822 
L 274.712734 274.939937 
L 274.854619 271.09731 
L 274.995952 257.782584 
L 275.136735 259.406971 
L 275.276974 273.942126 
L 275.416672 269.950363 
L 275.555834 201.243673 
L 275.694464 230.290339 
L 275.832565 224.291565 
L 275.970143 177.745821 
L 276.107201 272.165171 
L 276.243742 273.937067 
L 276.379771 235.661665 
L 276.515291 280.143496 
L 276.918839 227.44335 
L 277.052363 254.353502 
L 277.185396 232.566707 
L 277.317944 268.51248 
L 277.450008 247.119404 
L 277.581593 252.039671 
L 277.712703 245.943075 
L 277.843339 208.510846 
L 277.973507 247.855865 
L 278.103209 222.385317 
L 278.232449 250.896655 
L 278.361229 195.612399 
L 278.489554 277.582734 
L 278.617426 268.897067 
L 278.744848 280.529652 
L 278.871824 253.438677 
L 278.998357 266.637284 
L 279.12445 253.77189 
L 279.250106 267.217325 
L 279.375328 219.572759 
L 279.500118 222.110188 
L 279.624481 271.337352 
L 279.748418 269.779896 
L 279.871933 272.019092 
L 280.117708 258.659614 
L 280.361828 281.176513 
L 280.483274 275.845907 
L 280.724953 245.589186 
L 280.965031 280.399344 
L 281.084477 272.468898 
L 281.20353 276.371292 
L 281.322193 272.25671 
L 281.44047 279.344023 
L 281.558361 278.028027 
L 281.675871 279.816334 
L 281.793001 250.236404 
L 282.026131 279.370796 
L 282.142137 229.040083 
L 282.257772 253.346575 
L 282.37304 192.667576 
L 282.602481 252.565086 
L 282.71666 267.285146 
L 282.83048 256.399872 
L 282.943944 261.835722 
L 283.057054 246.395692 
L 283.28222 279.984089 
L 283.394281 273.986604 
L 283.505996 174.83706 
L 283.7284 265.481753 
L 283.839092 149.854526 
L 283.949447 270.425288 
L 284.059467 262.944363 
L 284.169155 192.885018 
L 284.387539 254.901793 
L 284.49624 268.228401 
L 284.604615 263.365949 
L 284.8204 223.471366 
L 285.034907 277.120313 
L 285.141687 284.824521 
L 285.248153 232.574419 
L 285.354307 275.760268 
L 285.460152 238.025174 
L 285.670918 274.22982 
L 285.775843 156.018921 
L 285.984787 277.891391 
L 286.088809 268.049159 
L 286.192533 238.75484 
L 286.295962 249.117514 
L 286.399096 199.366314 
L 286.501938 239.813449 
L 286.604488 232.053263 
L 286.808724 275.319281 
L 287.011815 270.613007 
L 287.112935 269.972535 
L 287.314334 286.560972 
L 287.414615 238.780577 
L 287.51462 277.421275 
L 287.614349 192.403968 
L 287.713805 281.114403 
L 287.812989 277.880922 
L 288.010546 206.369232 
L 288.108923 273.661481 
L 288.207033 269.879811 
L 288.304878 265.281345 
L 288.40246 272.325861 
L 288.596839 245.004497 
L 288.693639 246.49331 
L 288.790182 242.466741 
L 288.886468 172.41422 
L 288.982499 265.043656 
L 289.364099 147.093496 
L 289.458874 262.036246 
L 289.553403 226.147212 
L 289.647686 228.131197 
L 289.741724 210.75928 
L 289.835518 279.502936 
L 289.929071 261.307499 
L 290.022383 273.994583 
L 290.115455 230.689042 
L 290.208289 235.253212 
L 290.300886 281.585148 
L 290.393247 274.012215 
L 290.485374 282.42154 
L 290.577266 280.749504 
L 290.668927 280.702988 
L 290.851555 219.128693 
L 290.942525 231.897279 
L 291.123784 203.514035 
L 291.304141 282.900292 
L 291.483605 242.55371 
L 291.573005 261.541422 
L 291.662185 207.348565 
L 291.928416 268.46866 
L 292.104824 253.610818 
L 292.280377 119.264688 
L 292.455084 251.194557 
L 292.628953 236.144048 
L 292.715576 284.662467 
L 292.801993 250.089527 
L 292.888203 259.049056 
L 292.97421 278.458538 
L 293.060013 172.335021 
L 293.145613 269.871622 
L 293.231011 267.54128 
L 293.401207 162.149479 
L 293.486006 267.671406 
L 293.570608 193.777249 
L 293.655012 275.121788 
L 293.73922 239.248248 
L 293.823234 265.993508 
L 293.907053 250.727612 
L 293.990678 251.184173 
L 294.074111 251.417408 
L 294.323264 270.43031 
L 294.405936 243.817265 
L 294.48842 281.419311 
L 294.570717 273.740271 
L 294.652827 110.083749 
L 294.816492 264.758378 
L 294.898048 265.843483 
L 294.979421 273.787442 
L 295.060612 243.817789 
L 295.141621 267.17072 
L 295.303099 195.839504 
L 295.383569 230.282527 
L 295.46386 265.671433 
L 295.543974 261.462936 
L 295.623912 193.517838 
L 295.78326 276.095633 
L 295.941911 198.699108 
L 296.020977 259.903365 
L 296.099871 159.651937 
L 296.178593 230.525486 
L 296.257145 214.541684 
L 296.335527 261.616466 
L 296.41374 207.694543 
L 296.491784 275.939184 
L 296.569661 251.830052 
L 296.647371 243.164825 
L 296.879506 279.166832 
L 296.956555 171.516441 
L 297.033441 194.349465 
L 297.110164 224.79489 
L 297.186726 203.265163 
L 297.263125 265.578286 
L 297.339364 251.911342 
L 297.491363 216.290582 
L 297.642727 277.975664 
L 297.718173 249.114962 
L 297.868595 247.806652 
L 297.943573 261.2364 
L 298.093064 225.304041 
L 298.241942 276.039555 
L 298.316152 271.607482 
L 298.464118 281.597322 
L 298.611483 244.82813 
L 298.684941 252.845863 
L 298.758251 260.642432 
L 298.904427 228.809833 
L 298.977295 242.421428 
L 299.050016 279.221928 
L 299.122592 278.525985 
L 299.26731 253.379565 
L 299.339452 148.901946 
L 299.411452 277.592791 
L 299.483308 251.820425 
L 299.555023 171.869419 
L 299.626596 194.753609 
L 299.698028 178.270962 
L 299.769319 275.933677 
L 299.840471 232.257146 
L 299.911483 281.438542 
L 299.982356 265.62073 
L 300.123688 271.175295 
L 300.264471 179.977298 
L 300.334659 281.322533 
L 300.40471 263.731545 
L 300.544408 190.964289 
L 300.8222 277.751065 
L 300.891317 278.88654 
L 300.960302 218.757616 
L 301.09788 273.334756 
L 301.303272 212.444334 
L 301.371478 205.128639 
L 301.507507 250.894253 
L 301.575331 245.834354 
L 301.643028 211.626875 
L 301.710598 227.585367 
L 301.778043 270.603946 
L 301.845363 218.390042 
L 301.979629 274.721338 
L 302.113399 263.694649 
L 302.180099 283.039903 
L 302.246677 253.688392 
L 302.313133 266.456382 
L 302.379467 269.990209 
L 302.44568 286.028617 
L 302.577745 256.630739 
L 302.643597 274.709926 
L 302.70933 267.093488 
L 302.774944 258.682732 
L 302.840439 271.563905 
L 302.905816 208.257722 
L 302.971076 230.53315 
L 303.036218 226.470079 
L 303.101243 238.279661 
L 303.166152 233.464449 
L 303.230945 209.047717 
L 303.424632 277.621787 
L 303.553185 143.078584 
L 303.61729 205.726174 
L 303.745162 282.07437 
L 303.808929 175.405433 
L 303.872585 279.604406 
L 303.936128 259.622271 
L 303.999561 222.435693 
L 304.062882 248.751538 
L 304.126094 252.178042 
L 304.189195 270.963621 
L 304.252187 221.159201 
L 304.315069 264.487855 
L 304.377842 227.839892 
L 304.440507 269.36998 
L 304.503064 253.4767 
L 304.565513 198.772294 
L 304.627855 233.838622 
L 304.752217 281.801655 
L 304.814239 242.515952 
L 304.876155 266.276014 
L 304.937965 278.201283 
L 304.99967 269.260092 
L 305.06127 271.608548 
L 305.122766 227.150899 
L 305.245445 281.968579 
L 305.36771 268.608891 
L 305.489565 208.744587 
L 305.611011 219.339284 
L 305.671582 270.792539 
L 305.732052 241.305422 
L 305.85269 259.884189 
L 305.912858 187.896511 
L 305.972927 260.170833 
L 306.032897 241.78146 
L 306.092768 196.706939 
L 306.15254 276.921022 
L 306.212213 273.565648 
L 306.271789 265.294455 
L 306.390647 278.066664 
L 306.44993 248.662941 
L 306.509116 254.560797 
L 306.6272 263.709605 
L 306.7449 280.930896 
L 306.803607 269.756687 
L 306.920737 198.808763 
L 306.97916 207.276576 
L 307.03749 270.73411 
L 307.095725 230.000068 
L 307.211917 264.938373 
L 307.269873 255.204391 
L 307.327737 278.399637 
L 307.385508 264.082382 
L 307.443188 278.656355 
L 307.500776 272.102905 
L 307.558273 266.965122 
L 307.615678 209.787399 
L 307.672993 246.686417 
L 307.730218 281.2162 
L 307.787352 275.347974 
L 307.901351 238.58157 
L 308.014993 268.01611 
L 308.128279 259.017394 
L 308.18479 193.134336 
L 308.297548 278.83956 
L 308.353796 269.498653 
L 308.46603 231.746838 
L 308.633733 270.450487 
L 308.800663 153.230611 
L 308.856136 280.492086 
L 308.911525 271.281896 
L 309.022048 276.375382 
L 309.077184 260.450442 
L 309.132236 280.434988 
L 309.187204 219.851534 
L 309.242089 252.759338 
L 309.296891 258.202799 
L 309.351611 212.140493 
L 309.406248 256.30455 
L 309.460803 285.926177 
L 309.515276 274.554239 
L 309.569667 216.010512 
L 309.623976 257.334199 
L 309.678205 257.074713 
L 309.732352 209.652903 
L 309.786419 267.723826 
L 309.894311 264.69234 
L 309.948136 217.893809 
L 310.055549 270.469474 
L 310.109136 224.300313 
L 310.162644 264.521703 
L 310.216073 268.397128 
L 310.269423 253.703783 
L 310.322696 265.197599 
L 310.375889 264.609749 
L 310.429005 265.719658 
L 310.587888 239.71236 
L 310.640695 278.731124 
L 310.693424 258.377147 
L 310.746077 235.62667 
L 310.903579 281.039114 
L 310.955928 255.883161 
L 311.008202 273.36786 
L 311.164572 256.166049 
L 311.216545 278.69293 
L 311.268445 253.076283 
L 311.32027 210.210301 
L 311.475302 272.476715 
L 311.526833 271.014855 
L 311.57829 234.861004 
L 311.629674 273.696928 
L 311.680986 273.152306 
L 311.732225 284.960087 
L 311.783392 245.405956 
L 311.834486 283.878587 
L 311.885509 286.550479 
L 311.93646 283.865104 
L 312.038148 270.336971 
L 312.088885 188.701557 
L 312.139551 274.557955 
L 312.190147 236.558072 
L 312.240672 258.536618 
L 312.291126 246.585892 
L 312.341511 276.139939 
L 312.391825 252.182323 
L 312.44207 155.175434 
L 312.492246 203.425592 
L 312.542352 277.768924 
L 312.592388 208.12635 
L 312.742086 267.013374 
L 312.791848 191.371108 
L 312.841542 258.495253 
L 312.891168 277.463502 
L 312.940726 258.059481 
L 312.990216 203.195648 
L 313.039639 208.12766 
L 313.138283 277.901328 
L 313.236659 281.439206 
L 313.285747 200.044437 
L 313.432614 271.631924 
L 313.481438 264.993586 
L 313.530196 255.173241 
L 313.578889 265.511585 
L 313.627516 260.760369 
L 313.676079 282.295081 
L 313.724576 244.022405 
L 313.773008 254.67239 
L 313.869679 272.376136 
L 314.014204 194.86652 
L 314.062252 271.685606 
L 314.110235 267.969164 
L 314.158156 243.20841 
L 314.206013 249.801868 
L 314.301537 275.851705 
L 314.491835 214.277721 
L 314.586611 206.632629 
L 314.633906 258.727918 
L 314.681139 257.088813 
L 314.775422 204.364596 
L 314.822472 272.043803 
L 314.916388 247.820585 
L 314.963255 231.720521 
L 315.010062 272.095563 
L 315.056808 235.650351 
L 315.103494 145.156493 
L 315.15012 215.605722 
L 315.196686 220.622448 
L 315.243192 281.615774 
L 315.289639 256.645522 
L 315.336026 190.119859 
L 315.382354 267.674862 
L 315.428623 238.27993 
L 315.474833 266.39125 
L 315.61311 247.341598 
L 315.750862 281.419129 
L 315.888092 211.156844 
L 316.024805 265.19733 
L 316.070262 182.850949 
L 316.115662 202.353275 
L 316.161005 271.312121 
L 316.251521 270.625315 
L 316.296694 219.921293 
L 316.386872 220.282718 
L 316.431878 278.808694 
L 316.476827 241.817354 
L 316.521721 242.385432 
L 316.566559 268.43767 
L 316.611342 265.356304 
L 316.745359 168.544827 
L 316.789922 188.647063 
L 316.878883 280.736851 
L 316.923282 266.633819 
L 316.967626 262.810261 
L 317.011916 243.368753 
L 317.056153 288.259491 
L 317.144464 275.531487 
L 317.23256 270.787183 
L 317.276528 271.560161 
L 317.320443 213.399699 
L 317.364305 239.294338 
L 317.408113 267.663458 
L 317.539223 171.530822 
L 317.626366 274.828852 
L 317.669859 260.909435 
L 317.800027 224.259036 
L 317.843313 279.949669 
L 317.929729 250.812569 
L 318.01594 272.044923 
L 318.058969 209.082182 
L 318.101946 281.712926 
L 318.144873 235.781464 
L 318.273349 273.025378 
L 318.443946 238.448349 
L 318.48647 273.887095 
L 318.528944 256.953707 
L 318.571368 244.095502 
L 318.613743 252.540681 
L 318.656068 285.301251 
L 318.740571 275.858499 
L 318.782749 239.205615 
L 318.824877 254.766449 
L 318.866957 275.628205 
L 318.908988 236.052411 
L 318.95097 266.267746 
L 318.992904 276.645271 
L 319.034789 263.606496 
L 319.118415 195.714601 
L 319.160155 213.359515 
L 319.201848 271.651341 
L 319.243492 160.195768 
L 319.326638 219.727739 
L 319.36814 280.448242 
L 319.451001 256.902106 
L 319.492361 256.587252 
L 319.533673 128.985726 
L 319.574938 234.315035 
L 319.616157 225.383405 
L 319.657329 280.47474 
L 319.739532 277.734533 
L 319.780564 273.608508 
L 319.821549 279.900682 
L 319.944228 225.503353 
L 319.985029 275.429917 
L 320.025785 224.545742 
L 320.066494 260.245862 
L 320.107158 136.974604 
L 320.188348 155.01993 
L 320.269358 277.679706 
L 320.309795 217.4611 
L 320.350186 260.439986 
L 320.390533 177.593774 
L 320.430835 282.003015 
L 320.511305 243.500992 
L 320.591597 275.720598 
L 320.631676 243.313923 
L 320.671711 278.632092 
L 320.711702 279.863243 
L 320.751648 168.284975 
L 320.791551 229.965737 
L 320.83141 256.703403 
L 320.871225 242.574924 
L 320.910997 199.685167 
L 320.950725 275.600643 
L 321.03005 266.072042 
L 321.069648 283.281328 
L 321.109202 235.707678 
L 321.188182 258.808917 
L 321.227607 264.714782 
L 321.26699 230.491858 
L 321.30633 276.507652 
L 321.345627 279.173012 
L 321.384881 276.094405 
L 321.541476 182.947242 
L 321.65848 281.161916 
L 321.697398 281.244074 
L 321.891361 251.794947 
L 321.968657 281.023363 
L 322.007243 269.965089 
L 322.045788 110.017132 
L 322.084292 279.229122 
L 322.122755 168.818783 
L 322.237901 281.548134 
L 322.352682 208.302223 
L 322.390862 233.642095 
L 322.429001 280.919589 
L 322.50516 243.185273 
L 322.54318 277.776157 
L 322.58116 230.159773 
L 322.6191 263.234159 
L 322.770464 155.995648 
L 322.808206 158.97634 
L 322.883574 277.189527 
L 322.921199 247.388195 
L 323.03384 274.835225 
L 323.10874 278.392594 
L 323.146132 162.37815 
L 323.220801 279.266769 
L 323.258078 232.969007 
L 323.295316 276.181554 
L 323.332516 173.580136 
L 323.369678 279.030486 
L 323.406803 276.344847 
L 323.480937 198.529029 
L 323.517947 254.506499 
L 323.591855 250.008206 
L 323.628752 282.082901 
L 323.665612 168.50127 
L 323.739219 273.959472 
L 323.812678 246.44805 
L 323.849351 199.277368 
L 323.885988 236.774893 
L 323.922587 274.888636 
L 323.959149 207.950104 
L 323.995675 246.968373 
L 324.032164 217.231908 
L 324.068616 256.415647 
L 324.105031 285.128482 
L 324.14141 241.887432 
L 324.177753 257.231079 
L 324.214059 277.426033 
L 324.250329 221.705692 
L 324.286562 280.458675 
L 324.32276 232.352736 
L 324.431136 282.825696 
L 324.503206 251.084618 
L 324.539188 255.040436 
L 324.575134 277.599783 
L 324.611045 225.115421 
L 324.682759 230.554503 
L 324.825764 273.205594 
L 324.897056 258.527725 
L 324.932649 275.029621 
L 324.968207 258.527271 
L 325.00373 274.951676 
L 325.039219 266.349943 
L 325.074673 204.149092 
L 325.110092 280.304758 
L 325.145477 241.062685 
L 325.216143 259.458169 
L 325.251425 276.664032 
L 325.286672 275.604399 
L 325.357063 237.712174 
L 325.392208 279.71552 
L 325.462395 242.421909 
L 325.497438 285.65601 
L 325.532447 212.449457 
L 325.706986 279.597917 
L 325.741793 263.060476 
L 325.811307 252.230513 
L 325.846014 237.147481 
L 325.915329 252.511301 
L 325.949937 250.938422 
L 325.984512 241.739878 
L 326.019053 278.614431 
L 326.053562 264.305345 
L 326.088038 217.347273 
L 326.156893 274.187568 
L 326.191271 282.622067 
L 326.225616 222.684739 
L 326.29421 275.026969 
L 326.328458 285.904951 
L 326.396857 275.73054 
L 326.431009 213.723224 
L 326.499215 284.437279 
L 326.669171 226.199425 
L 326.703067 229.464275 
L 326.736932 278.852392 
L 326.838335 267.322047 
L 326.90578 270.574427 
L 326.939455 190.830386 
L 326.9731 278.416067 
L 327.006713 254.710372 
L 327.073845 252.624939 
L 327.140854 285.158443 
L 327.174312 160.711465 
L 327.241135 278.000353 
L 327.407657 173.919341 
L 327.540325 281.018726 
L 327.639509 198.050493 
L 327.738422 282.966868 
L 327.837066 171.884819 
L 327.935443 277.982645 
L 327.968176 277.29229 
L 328.000879 234.812289 
L 328.066197 256.125194 
L 328.098812 265.916028 
L 328.163955 263.021402 
L 328.293889 195.890824 
L 328.3263 235.154594 
L 328.423359 286.262976 
L 328.552369 274.737634 
L 328.616702 92.808007 
L 328.648826 260.067386 
L 328.680921 247.957023 
L 328.712988 267.081706 
L 328.745027 258.227695 
L 328.777037 274.792072 
L 328.809019 242.673016 
L 328.840973 258.250575 
L 328.872899 245.111146 
L 328.904796 270.355416 
L 328.936666 278.87582 
L 328.968507 217.465796 
L 329.000321 285.150642 
L 329.032107 250.758018 
L 329.063865 276.954805 
L 329.095595 207.76261 
L 329.158972 211.667975 
L 329.285395 281.644723 
L 329.411378 256.003211 
L 329.442805 278.848608 
L 329.474206 243.237681 
L 329.505579 267.336331 
L 329.599536 237.080608 
L 329.630801 281.566849 
L 329.69325 250.24553 
L 329.724434 241.842489 
L 329.755591 279.393405 
L 329.786722 250.831865 
L 329.848903 273.259147 
L 329.879954 192.669253 
L 329.941976 284.202936 
L 330.003891 229.080053 
L 330.127406 280.609944 
L 330.15822 270.277183 
L 330.189007 266.916304 
L 330.281211 158.620632 
L 330.311894 283.270726 
L 330.403786 228.244287 
L 330.434366 283.26045 
L 330.464919 271.798392 
L 330.495447 159.918288 
L 330.556425 272.324012 
L 330.647701 177.794504 
L 330.769046 282.797012 
L 330.799318 276.378111 
L 330.829566 209.488495 
L 330.859788 279.503976 
L 330.889985 275.521028 
L 330.920157 279.828659 
L 331.100664 186.101698 
L 331.130661 237.006538 
L 331.220504 222.942579 
L 331.250402 230.586898 
L 331.280276 222.811884 
L 331.310125 180.22766 
L 331.33995 261.345315 
L 331.36975 242.265606 
L 331.429276 226.895339 
L 331.488705 263.914662 
L 331.548037 239.655619 
L 331.66641 278.935179 
L 331.725451 186.261507 
L 331.784397 252.404329 
L 331.872637 275.287575 
L 331.902002 264.227429 
L 331.960662 211.863041 
L 331.989956 268.817161 
L 332.019227 283.623488 
L 332.048474 281.462921 
L 332.106897 180.039174 
L 332.136073 262.125473 
L 332.165226 280.401896 
L 332.194356 252.963002 
L 332.223462 237.674686 
L 332.252545 260.032405 
L 332.281604 268.990577 
L 332.31064 252.193808 
L 332.339653 222.179299 
L 332.39761 239.968159 
L 332.484371 264.401447 
L 332.455473 210.186341 
L 332.513245 251.739447 
L 332.628513 176.904987 
L 332.657272 228.910293 
L 332.714724 280.540572 
L 332.743415 274.799576 
L 332.80073 136.911865 
L 332.829353 221.855249 
L 332.886533 273.827406 
L 332.943622 266.860085 
L 332.972133 194.586979 
L 333.029088 264.797917 
L 333.057531 267.411614 
L 333.142729 275.357633 
L 333.227727 198.748407 
L 333.340749 264.098653 
L 333.425285 144.075942 
L 333.453419 257.741345 
L 333.481532 271.918563 
L 333.509623 215.277587 
L 333.565741 264.890702 
L 333.621771 273.894334 
L 333.649754 268.782779 
L 333.677715 241.575153 
L 333.761469 242.955728 
L 333.789344 280.566721 
L 333.872842 271.100022 
L 333.9284 254.921359 
L 333.956147 165.051337 
L 334.011578 272.35671 
L 334.066924 275.368672 
L 334.149785 195.277351 
L 334.177363 274.981873 
L 334.287467 247.17128 
L 334.31494 275.736135 
L 334.342393 240.243125 
L 334.424628 177.273205 
L 334.479347 269.962366 
L 334.561272 247.631605 
L 334.588539 145.755032 
L 334.643012 252.681959 
L 334.670218 246.389466 
L 334.805941 276.524333 
L 334.833025 176.484398 
L 334.860088 279.075373 
L 334.914155 186.945043 
L 335.022047 275.257105 
L 334.968141 153.226269 
L 335.04897 260.460589 
L 335.156462 277.635629 
L 335.236872 198.280333 
L 335.29038 210.730126 
L 335.370495 283.680729 
L 335.423806 275.735039 
L 335.450432 164.357701 
L 335.530194 279.797855 
L 335.583271 129.593862 
L 335.63627 269.155138 
L 335.662741 277.552502 
L 335.715625 229.260626 
L 335.742037 287.756503 
L 335.768431 256.982474 
L 335.794806 279.773466 
L 335.847497 265.87992 
L 335.900112 154.752821 
L 335.95265 162.644884 
L 336.031316 282.509296 
L 336.083665 267.37215 
L 336.109811 267.601528 
L 336.135938 278.10053 
L 336.24026 217.869581 
L 336.266293 235.752924 
L 336.292308 279.967002 
L 336.370241 224.918483 
L 336.396181 179.383222 
L 336.422103 267.335809 
L 336.448006 203.326882 
L 336.525605 279.237877 
L 336.551435 262.695769 
L 336.577246 218.618828 
L 336.654569 274.223477 
L 336.706026 283.424444 
L 336.783076 228.405857 
L 336.834351 263.790677 
L 336.859961 276.907585 
L 336.911128 270.192524 
L 337.013246 225.412302 
L 336.962223 277.844682 
L 337.03873 229.489461 
L 337.089645 279.384093 
L 337.115076 267.263865 
L 337.241964 179.377519 
L 337.267288 185.398701 
L 337.317883 281.805028 
L 337.393644 264.226706 
L 337.444064 281.407954 
L 337.519562 278.666078 
L 337.544693 277.98501 
L 337.569807 280.074321 
L 337.645044 222.526733 
L 337.670088 140.899673 
L 337.695115 236.302626 
L 337.720125 189.062418 
L 337.844916 278.968646 
L 337.869822 232.592163 
L 337.94444 232.800585 
L 337.9941 281.342941 
L 338.043692 247.447877 
L 338.068462 200.943934 
L 338.117952 278.454308 
L 338.142672 216.494631 
L 338.192061 246.921046 
L 338.266019 229.320192 
L 338.290638 204.306062 
L 338.315241 239.609593 
L 338.388948 273.442487 
L 338.413484 271.582926 
L 338.462506 201.320839 
L 338.535914 233.204694 
L 338.560351 269.108264 
L 338.633562 226.111296 
L 338.657933 257.960605 
L 338.682287 271.353609 
L 338.706626 257.61978 
L 338.730947 199.134813 
L 338.779542 263.522424 
L 338.803815 261.679799 
L 338.828072 249.768456 
L 338.876537 270.029291 
L 338.900745 269.451739 
L 338.973272 279.521794 
L 339.06975 140.050185 
L 339.141941 270.085357 
L 339.213988 228.380944 
L 339.285892 214.424612 
L 339.333749 283.537455 
L 339.381543 165.16581 
L 339.429274 240.433617 
L 339.476942 226.831842 
L 339.524548 269.004685 
L 339.572091 279.456259 
L 339.643289 182.081236 
L 339.690677 279.231683 
L 339.761643 255.133122 
L 339.808876 255.87803 
L 339.879611 204.08831 
L 339.950208 279.218951 
L 339.997197 236.392054 
L 340.020668 232.19983 
L 340.044124 277.159301 
L 340.090991 216.369389 
L 340.137798 245.228654 
L 340.207895 280.267861 
L 340.254551 274.070899 
L 340.301147 247.564769 
L 340.324422 273.300421 
L 340.347683 282.547798 
L 340.370928 210.415624 
L 340.463762 266.401887 
L 340.486934 269.775507 
L 340.533232 185.773005 
L 340.625652 189.320041 
L 340.694813 273.969426 
L 340.740847 263.624966 
L 340.763842 144.911738 
L 340.786822 283.284093 
L 340.855676 232.188649 
L 340.947279 278.37253 
L 340.992993 275.34647 
L 341.015829 276.649727 
L 341.107028 238.856702 
L 341.129792 268.792647 
L 341.152542 281.970989 
L 341.220705 191.83741 
L 341.197998 283.98432 
L 341.288741 212.903815 
L 341.379257 198.005808 
L 341.401851 280.122166 
L 341.424431 53.568 
L 341.492085 272.718128 
L 341.537118 275.823779 
L 341.582096 252.958552 
L 341.649457 257.573492 
L 341.671883 267.261132 
L 341.716694 205.01137 
L 341.761449 250.0198 
L 341.783806 279.446122 
L 341.850794 241.268379 
L 341.873095 263.424957 
L 341.895384 264.430444 
L 341.917658 156.68352 
L 341.939919 266.773006 
L 342.006619 252.199364 
L 342.028825 249.819957 
L 342.073197 139.33771 
L 342.095363 275.049876 
L 342.117515 241.358852 
L 342.161778 267.761441 
L 342.250143 282.00384 
L 342.294245 182.948047 
L 342.426229 278.892178 
L 342.44818 273.484845 
L 342.470117 231.351253 
L 342.53585 280.382692 
L 342.557734 267.771317 
L 342.645141 213.368615 
L 342.623309 278.581179 
L 342.666959 263.824135 
L 342.732336 283.623526 
L 342.862738 200.647327 
L 342.906101 287.1233 
L 342.992673 268.277116 
L 343.057466 143.841568 
L 343.079038 271.5304 
L 343.100597 256.525288 
L 343.122143 239.108026 
L 343.143676 277.042055 
L 343.186705 274.175263 
L 343.2082 281.521087 
L 343.251153 280.602762 
L 343.315486 251.227107 
L 343.358311 267.073196 
L 343.379705 264.54735 
L 343.401086 177.699212 
L 343.422454 281.656459 
L 343.486484 210.75752 
L 343.507803 209.346261 
L 343.529108 280.757917 
L 343.614206 261.894907 
L 343.699105 273.729019 
L 343.720298 196.275339 
L 343.762648 278.671745 
L 343.826081 236.779749 
L 343.910485 103.483073 
L 343.97366 267.869938 
L 344.036724 254.033152 
L 344.12064 280.38403 
L 344.141589 263.728369 
L 344.18345 268.301841 
L 344.204362 239.741301 
L 344.225263 280.0228 
L 344.287892 200.244148 
L 344.308744 250.522529 
L 344.329584 251.102922 
L 344.392033 181.288321 
L 344.412826 279.328568 
L 344.433606 265.378315 
L 344.51661 283.254866 
L 344.55804 164.253598 
L 344.620097 269.718445 
L 344.682048 243.753053 
L 344.702675 285.346529 
L 344.72329 160.014029 
L 344.805633 275.497785 
L 344.867268 243.92367 
L 344.88779 279.646349 
L 344.9083 264.814904 
L 344.928799 269.013399 
L 345.010677 193.592055 
L 345.031118 218.578886 
L 345.071965 279.433322 
L 345.153521 255.668504 
L 345.19423 271.951051 
L 345.214568 173.154057 
L 345.295804 253.306823 
L 345.356612 224.479059 
L 345.336354 279.38388 
L 345.376859 277.852409 
L 345.397094 277.62005 
L 345.457733 202.81921 
L 345.437531 281.62663 
L 345.498102 263.869963 
L 345.618941 169.428517 
L 345.538426 284.957911 
L 345.67921 178.565933 
L 345.699277 277.915714 
L 345.779435 266.447739 
L 345.799447 169.714362 
L 345.879385 240.440903 
L 345.899342 277.633482 
L 345.939223 224.503659 
L 345.97906 275.740856 
L 346.098309 187.726238 
L 346.118145 262.36789 
L 346.197384 246.957549 
L 346.217167 198.941083 
L 346.2567 279.144736 
L 346.296189 259.007265 
L 346.335636 286.127379 
L 346.434066 211.46365 
L 346.473363 280.341915 
L 346.492996 208.866401 
L 346.55183 273.828875 
L 346.610569 251.695427 
L 346.649675 256.586721 
L 346.669213 287.324057 
L 346.68874 234.799706 
L 346.708256 162.742924 
L 346.747257 281.248178 
L 346.786217 248.505235 
L 346.805681 279.736254 
L 346.825134 248.171529 
L 346.883432 277.006571 
L 346.999748 192.008338 
L 347.038437 274.335847 
L 347.115691 262.87207 
L 347.134979 141.98506 
L 347.231265 233.946906 
L 347.327296 272.171203 
L 347.346472 248.764197 
L 347.423073 217.354278 
L 347.384793 261.78687 
L 347.461314 222.278475 
L 347.499513 277.556409 
L 347.556738 219.11019 
L 347.575793 258.254897 
L 347.632897 232.759704 
L 347.689911 281.140219 
L 347.803672 195.92035 
L 347.841513 275.125294 
L 347.917076 264.930291 
L 347.935943 259.398331 
L 347.954799 178.974743 
L 347.992483 276.461434 
L 348.048935 219.998526 
L 348.142827 278.119976 
L 348.161576 204.44557 
L 348.180316 279.041747 
L 348.255177 250.19041 
L 348.273869 279.732234 
L 348.329885 235.487812 
L 348.36718 270.963565 
L 348.385814 188.446898 
L 348.423053 273.227388 
L 348.478839 257.672883 
L 348.497415 280.753846 
L 348.590154 279.098768 
L 348.682656 170.8901 
L 348.701129 233.530459 
L 348.719591 255.220063 
L 348.756489 175.887664 
L 348.774923 184.556673 
L 348.830171 278.403505 
L 348.903704 273.712326 
L 348.977088 276.41662 
L 349.068609 217.506267 
L 349.086886 153.405672 
L 349.14166 279.322776 
L 349.1599 259.413219 
L 349.214565 280.283844 
L 349.250962 276.531183 
L 349.323647 160.582549 
L 349.378065 232.812282 
L 349.414299 261.447814 
L 349.432402 187.701545 
L 349.450496 230.908269 
L 349.468581 204.955436 
L 349.504725 263.035966 
L 349.522783 241.583554 
L 349.558872 276.859341 
L 349.594925 256.359141 
L 349.612939 185.048094 
L 349.630943 286.707965 
L 349.702871 195.370326 
L 349.828402 267.625765 
L 349.971337 174.001457 
L 350.006982 273.586149 
L 350.078169 250.668721 
L 350.131467 212.023295 
L 350.149216 263.07792 
L 350.166956 257.526912 
L 350.20241 214.938337 
L 350.290893 277.484334 
L 350.379161 161.11309 
L 350.396789 281.238071 
L 350.537504 198.476746 
L 350.555055 250.738513 
L 350.607657 275.846332 
L 350.625174 211.621174 
L 350.660183 253.018545 
L 350.677675 178.827469 
L 350.782449 196.540985 
L 350.817306 283.487575 
L 350.85213 261.01288 
L 350.869529 143.258761 
L 350.921677 273.861034 
L 350.956401 245.720438 
L 350.991092 249.800297 
L 351.077673 194.962636 
L 351.112248 277.723885 
L 351.198541 260.055478 
L 351.301822 173.342983 
L 351.336184 277.06416 
L 351.421946 268.959281 
L 351.456194 255.829273 
L 351.49041 280.963993 
L 351.541673 260.821203 
L 351.592864 193.597703 
L 351.626951 242.229825 
L 351.678022 280.703529 
L 351.729021 231.840298 
L 351.796908 262.764145 
L 351.830804 182.075711 
L 351.94919 281.020212 
L 352.016667 282.472536 
L 352.100836 165.638758 
L 352.218346 277.649299 
L 352.25185 169.847754 
L 352.352177 249.880278 
L 352.385558 284.040498 
L 352.418909 238.611232 
L 352.435572 277.576995 
L 352.452228 119.62306 
L 352.535393 279.304948 
L 352.552003 281.000191 
L 352.601788 184.093534 
L 352.668062 247.346552 
L 352.684611 281.114203 
L 352.750734 231.283514 
L 352.767246 280.251585 
L 352.866159 204.356699 
L 352.816736 281.211834 
L 352.882618 210.980217 
L 352.89907 268.370154 
L 352.948381 161.777174 
L 352.997625 237.677323 
L 353.030417 266.72342 
L 353.079549 213.701098 
L 353.161289 278.600345 
L 353.128615 212.351193 
L 353.193934 237.778506 
L 353.226549 274.33861 
L 353.291691 237.042428 
L 353.307958 234.915815 
L 353.324218 248.590363 
L 353.356717 228.875697 
L 353.372955 176.720378 
L 353.421626 275.770172 
L 353.454036 223.852974 
L 353.470231 275.464479 
L 353.534937 260.364723 
L 353.551096 158.232272 
L 353.583391 272.903501 
L 353.631781 257.242278 
L 353.664004 274.574804 
L 353.696199 248.90087 
L 353.728366 268.826182 
L 353.760504 245.426074 
L 353.824695 279.17921 
L 353.856747 227.127584 
L 353.936755 272.784295 
L 353.952736 279.46263 
L 353.968709 260.987329 
L 354.016587 278.767547 
L 354.096244 165.506082 
L 354.143954 234.488556 
L 354.239186 275.961717 
L 354.255034 170.689663 
L 354.270875 279.77129 
L 354.349975 255.125244 
L 354.397352 239.857775 
L 354.444668 276.946412 
L 354.476177 287.84079 
L 354.570542 142.793703 
L 354.648992 280.60124 
L 354.69598 256.080097 
L 354.71163 251.803583 
L 354.742908 271.971435 
L 354.758537 267.288807 
L 354.774159 268.157868 
L 354.867752 160.162439 
L 354.836582 285.044822 
L 354.883328 268.502552 
L 354.898896 267.413777 
L 354.914458 281.680027 
L 354.961104 246.405718 
L 354.97664 249.661981 
L 355.023206 272.468752 
L 355.085201 166.723273 
L 355.100683 280.689448 
L 355.193438 178.181059 
L 355.316743 283.971476 
L 355.332127 169.985364 
L 355.424292 260.640461 
L 355.485606 225.968838 
L 355.546816 281.104829 
L 355.562102 145.357087 
L 355.653685 250.931816 
L 355.69939 188.944746 
L 355.745038 275.993055 
L 355.775437 204.667043 
L 355.805812 280.070812 
L 355.896782 274.691648 
L 355.957302 156.179881 
L 355.927055 284.674264 
L 356.017722 258.53487 
L 356.032811 284.071708 
L 356.078041 223.816824 
L 356.123214 275.105955 
L 356.198378 194.427362 
L 356.243402 228.699423 
L 356.333282 216.234066 
L 356.348241 282.917306 
L 356.363193 225.244268 
L 356.467686 249.343328 
L 356.482589 242.213974 
L 356.497486 270.825999 
L 356.512377 138.009258 
L 356.527262 273.967415 
L 356.601594 209.316744 
L 356.660949 277.341361 
L 356.631284 198.790211 
L 356.720208 254.675108 
L 356.735008 212.527269 
L 356.749802 282.593694 
L 356.823679 273.037634 
L 356.838437 280.977189 
L 356.853188 256.501112 
L 356.867933 211.999883 
L 356.941571 279.565927 
L 356.95628 236.38918 
L 357.029739 142.812165 
L 357.05908 287.540157 
L 357.103048 209.766675 
L 357.16159 252.747169 
L 357.17621 281.441773 
L 357.205434 243.46602 
L 357.26381 269.577486 
L 357.322092 276.842093 
L 357.365743 163.438339 
L 357.380281 279.935726 
L 357.481888 271.235662 
L 357.539821 284.000922 
L 357.510866 258.632464 
L 357.568753 269.520822 
L 357.640981 238.923648 
L 357.65541 263.663347 
L 357.669833 284.341787 
L 357.698661 254.177674 
L 357.770632 276.966121 
L 357.785009 203.972865 
L 357.856809 281.482053 
L 357.871151 268.699486 
L 357.885489 278.731229 
L 357.928466 247.059446 
L 357.95709 267.62225 
L 358.057095 166.579353 
L 358.071358 225.380051 
L 358.156824 277.060588 
L 358.128358 212.170404 
L 358.185268 235.758502 
L 358.213689 282.781493 
L 358.270466 280.210614 
L 358.284646 225.446166 
L 358.369611 234.132133 
L 358.383752 279.47524 
L 358.426144 202.072427 
L 358.482588 245.221152 
L 358.510778 231.890376 
L 358.609269 288.502364 
L 358.581156 215.558363 
L 358.623317 276.449991 
L 358.665429 206.196866 
L 358.651397 286.320583 
L 358.77749 237.496893 
L 358.833391 268.489378 
L 358.847353 157.927917 
L 358.903146 285.691609 
L 358.944935 237.804399 
L 358.986675 184.505859 
L 358.972767 269.63887 
L 359.000578 268.85792 
L 359.056136 276.26031 
L 359.028368 252.27669 
L 359.070012 260.687425 
L 359.166998 200.514701 
L 359.153158 273.017615 
L 359.208483 202.519872 
L 359.291313 280.106466 
L 359.346427 273.14236 
L 359.360193 279.966806 
L 359.373953 246.073382 
L 359.401458 252.942676 
L 359.415203 162.080862 
L 359.442677 277.516068 
L 359.51127 227.188653 
L 359.552364 274.961138 
L 359.566052 194.744847 
L 359.607084 270.974355 
L 359.716276 217.557547 
L 359.634413 281.522299 
L 359.729902 229.273745 
L 359.770749 264.47568 
L 359.82514 204.779562 
L 359.838725 142.93352 
L 359.906574 280.762133 
L 359.920128 276.474156 
L 359.947222 283.272606 
L 360.041892 229.722492 
L 360.068895 249.84962 
L 360.19016 279.501469 
L 360.203609 275.01086 
L 360.284198 161.704112 
L 360.297613 203.082034 
L 360.311022 281.062469 
L 360.404747 182.75715 
L 360.484891 277.148943 
L 360.524896 248.095458 
L 360.564858 283.481574 
L 360.618071 160.567899 
L 360.684479 277.71837 
L 360.724264 223.541698 
L 360.750764 207.215594 
L 360.803706 275.994631 
L 360.869774 252.271231 
L 360.922542 280.198984 
L 360.896168 252.270517 
L 360.962068 266.168419 
L 361.054127 267.299263 
L 361.067259 152.000329 
L 361.09351 268.102084 
L 361.185236 215.030021 
L 361.211401 284.46304 
L 361.315873 263.614434 
L 361.328911 272.417636 
L 361.354973 236.267393 
L 361.367996 250.553752 
L 361.381015 183.011029 
L 361.459032 273.919684 
L 361.472018 258.184436 
L 361.51095 282.412098 
L 361.523918 243.119512 
L 361.536881 225.511634 
L 361.562793 273.546922 
L 361.614563 252.814281 
L 361.76943 281.836148 
L 361.653342 240.090683 
L 361.782306 273.302803 
L 361.910812 196.20725 
L 361.846616 284.806566 
L 361.936459 256.323556 
L 361.949275 258.522343 
L 361.962087 282.941638 
L 362.000496 183.404894 
L 362.038865 276.58179 
L 362.11548 126.978224 
L 362.153727 232.862666 
L 362.217382 289.396852 
L 362.2301 198.005828 
L 362.268226 263.870205 
L 362.293621 192.951045 
L 362.318998 282.40951 
L 362.3697 200.398671 
L 362.44562 280.843312 
L 362.458258 174.639607 
L 362.48352 276.779036 
L 362.559202 199.85506 
L 362.584394 272.506356 
L 362.596984 286.031438 
L 362.62215 212.502975 
L 362.647298 282.412236 
L 362.72264 230.000019 
L 362.760252 238.08505 
L 362.822852 284.198069 
L 362.835359 221.924427 
L 362.872854 269.683612 
L 362.885344 225.04918 
L 362.985108 263.378333 
L 362.997559 280.839454 
L 363.059751 218.718859 
L 363.072176 139.246352 
L 363.109428 259.675076 
L 363.159036 246.310577 
L 363.183815 153.413605 
L 363.208577 282.685793 
L 363.270409 212.746911 
L 363.295112 273.838041 
L 363.356796 167.500686 
L 363.36912 272.854385 
L 363.38144 158.323678 
L 363.442977 278.702094 
L 363.47985 230.841332 
L 363.553482 287.657862 
L 363.54122 199.309196 
L 363.590242 247.925993 
L 363.602487 245.656182 
L 363.614728 205.552889 
L 363.663651 275.930426 
L 363.7003 271.640372 
L 363.736911 186.203125 
L 363.761299 274.694733 
L 363.797849 272.681229 
L 363.810024 277.977916 
L 363.822195 270.238689 
L 363.834362 272.869256 
L 363.882989 142.728481 
L 363.943682 211.895422 
L 363.992163 181.327792 
L 364.064763 279.122567 
L 364.076849 181.686766 
L 364.14928 281.637195 
L 364.173391 222.201283 
L 364.185441 216.048878 
L 364.2336 281.468166 
L 364.281695 255.857968 
L 364.353718 139.555396 
L 364.341724 271.985409 
L 364.389676 271.927397 
L 364.48539 176.719961 
L 364.497337 274.65555 
L 364.50928 246.010834 
L 364.604679 282.118514 
L 364.533153 219.335119 
L 364.628489 276.579448 
L 364.640389 177.839871 
L 364.735444 252.228709 
L 364.782878 275.595066 
L 364.759169 224.811255 
L 364.806572 262.315664 
L 364.853914 282.76583 
L 364.936612 124.666493 
L 364.971997 265.596448 
L 365.042663 243.650354 
L 365.066188 148.489163 
L 365.089698 282.509527 
L 365.148405 259.974983 
L 365.160135 277.450071 
L 365.171861 233.221165 
L 365.218728 271.432224 
L 365.242139 166.297086 
L 365.277227 279.715511 
L 365.335631 236.983256 
L 365.41724 285.609316 
L 365.393942 230.429134 
L 365.463791 269.425934 
L 365.533506 137.710026 
L 365.487044 280.597356 
L 365.591499 192.375301 
L 365.695654 282.579146 
L 365.684096 191.170518 
L 365.718759 279.653251 
L 365.764925 282.272614 
L 365.834063 196.002797 
L 365.891578 254.518073 
L 365.85708 175.992186 
L 365.949002 224.697033 
L 366.006335 137.549955 
L 366.029243 224.827331 
L 366.086449 280.16381 
L 366.052136 130.403554 
L 366.143565 240.563213 
L 366.211986 155.987933 
L 366.234765 267.258069 
L 366.246148 200.804008 
L 366.303014 276.768176 
L 366.280278 144.767697 
L 366.35979 245.641154 
L 366.371135 246.353482 
L 366.382476 278.604732 
L 366.405147 214.827174 
L 366.484386 258.774814 
L 366.529587 281.60647 
L 366.563452 236.979266 
L 366.574733 250.672473 
L 366.653602 196.809725 
L 366.631085 267.340093 
L 366.664855 241.459986 
L 366.721068 275.425019 
L 366.709832 190.122852 
L 366.777194 263.832682 
L 366.833233 157.64875 
L 366.866815 273.583626 
L 366.878002 268.510279 
L 366.900365 253.492706 
L 366.911542 273.709741 
L 366.956215 131.945931 
L 367.011978 278.093766 
L 367.02312 279.376708 
L 367.134356 187.844026 
L 367.156562 273.852337 
L 367.234177 239.466592 
L 367.245251 179.657763 
L 367.300572 281.376915 
L 367.333724 220.204647 
L 367.355808 274.427822 
L 367.432998 194.970243 
L 367.455022 272.624316 
L 367.477033 137.835897 
L 367.521014 279.910501 
L 367.564942 198.401239 
L 367.575916 275.727568 
L 367.619778 169.002583 
L 367.67453 262.019732 
L 367.696408 236.610021 
L 367.707342 282.832149 
L 367.7292 268.711627 
L 367.761963 149.355151 
L 367.838294 267.478636 
L 367.860073 282.254565 
L 367.881839 264.587232 
L 367.892717 207.770012 
L 367.94706 279.392917 
L 367.990475 254.927162 
L 368.033838 282.314629 
L 368.044671 211.618223 
L 368.098786 260.375802 
L 368.109599 196.191936 
L 368.15282 277.054565 
L 368.206774 212.326348 
L 368.228333 279.67527 
L 368.260648 199.087994 
L 368.314442 232.199321 
L 368.378889 281.034059 
L 368.41107 192.041085 
L 368.518133 279.710796 
L 368.528822 253.155937 
L 368.614221 280.125534 
L 368.571547 221.644422 
L 368.635539 275.480517 
L 368.646193 187.566295 
L 368.667493 277.760995 
L 368.741943 272.691904 
L 368.858627 195.48483 
L 368.869216 217.67042 
L 368.911541 205.5179 
L 368.985492 279.341006 
L 368.996044 175.69153 
L 369.090875 283.7977 
L 369.143452 164.634574 
L 369.111915 286.305774 
L 369.216931 220.08558 
L 369.279795 277.519313 
L 369.300726 203.551592 
L 369.342551 256.781091 
L 369.352999 255.766309 
L 369.363445 279.591687 
L 369.384327 130.39758 
L 369.457321 262.804829 
L 369.478149 234.614867 
L 369.509369 277.264648 
L 369.550954 263.54296 
L 369.561343 268.563285 
L 369.571729 131.110075 
L 369.654708 282.939469 
L 369.665067 274.027373 
L 369.768496 191.988323 
L 369.716818 277.676611 
L 369.778822 205.677935 
L 369.892222 275.421255 
L 369.902513 277.338227 
L 369.93337 210.920907 
L 369.974472 279.356073 
L 370.005267 248.679938 
L 370.025783 279.294688 
L 370.06678 179.415792 
L 370.117961 257.587991 
L 370.240502 168.369674 
L 370.220108 257.920123 
L 370.250696 203.958441 
L 370.281258 282.67402 
L 370.362631 271.540387 
L 370.443821 200.436704 
L 370.453957 259.815698 
L 370.534944 283.253777 
L 370.474221 244.578511 
L 370.57537 283.214617 
L 370.706442 228.739103 
L 370.756729 282.306423 
L 370.736623 191.780926 
L 370.806946 273.394268 
L 370.837043 194.90791 
L 370.887149 283.097369 
L 370.917179 267.848173 
L 370.927184 265.116541 
L 370.937186 277.605994 
L 370.957181 272.196887 
L 370.967175 159.944051 
L 371.037053 282.980455 
L 371.066959 254.389432 
L 371.076923 253.754116 
L 371.116749 272.208736 
L 371.136645 187.752308 
L 371.16647 267.417689 
L 371.176406 207.413114 
L 371.206198 283.995616 
L 371.275617 273.154132 
L 371.335013 214.306768 
L 371.364675 286.708858 
L 371.384436 269.824155 
L 371.394313 267.236114 
L 371.48308 157.937938 
L 371.463373 285.681332 
L 371.502777 250.861909 
L 371.522463 141.661264 
L 371.551972 275.589057 
L 371.6011 271.044188 
L 371.620732 281.443921 
L 371.630545 196.130512 
L 371.718736 283.886099 
L 371.728522 264.083553 
L 371.738305 284.019463 
L 371.806714 232.128479 
L 371.816476 266.251386 
L 371.826236 220.230706 
L 371.845747 280.859372 
L 371.923686 235.732169 
L 371.952871 279.010672 
L 372.030581 277.597455 
L 372.108124 185.16337 
L 372.049982 289.081645 
L 372.146834 253.71747 
L 372.156505 260.490255 
L 372.175839 183.33921 
L 372.243428 287.637007 
L 372.272356 213.298942 
L 372.349385 272.465358 
L 372.368616 168.468012 
L 372.387838 248.459679 
L 372.42625 280.795478 
L 372.435847 228.118781 
L 372.445441 242.304113 
L 372.455033 148.040458 
L 372.474208 280.826696 
L 372.55081 246.616496 
L 372.617704 224.496107 
L 372.636794 281.122445 
L 372.684474 140.872332 
L 372.655873 282.160937 
L 372.751122 214.321529 
L 372.836633 278.474681 
L 372.817648 170.383381 
L 372.865091 276.862982 
L 372.903002 197.982236 
L 372.969249 287.036868 
L 372.978703 261.454889 
L 373.007051 244.52463 
L 373.063679 283.165193 
L 373.073109 195.842508 
L 373.176672 234.323487 
L 373.233036 280.869179 
L 373.195469 213.213006 
L 373.279939 257.63155 
L 373.326782 200.883752 
L 373.298684 282.168606 
L 373.382914 243.161738 
L 373.392261 282.185928 
L 373.457621 178.918621 
L 373.485597 256.808153 
L 373.494917 180.187721 
L 373.532175 279.57583 
L 373.597283 219.203521 
L 373.662276 283.810526 
L 373.708627 245.12772 
L 373.75492 185.767786 
L 373.727151 283.92575 
L 373.810393 278.676418 
L 373.90266 288.257171 
L 373.930294 219.674587 
L 373.939501 277.528295 
L 373.976305 148.708473 
L 374.040621 254.00023 
L 374.095659 179.622479 
L 374.123147 287.487345 
L 374.141461 279.098511 
L 374.214622 210.084134 
L 374.223757 279.274109 
L 374.260274 239.493842 
L 374.269397 280.379672 
L 374.278518 228.816156 
L 374.378699 275.476683 
L 374.405973 198.055264 
L 374.442306 278.151984 
L 374.478603 269.217666 
L 374.487672 278.264079 
L 374.496738 235.80653 
L 374.514864 276.455489 
L 374.523923 197.618011 
L 374.623429 284.695818 
L 374.749678 156.850648 
L 374.722662 285.051157 
L 374.767678 244.255725 
L 374.830607 281.29257 
L 374.857544 259.294104 
L 374.866518 176.664262 
L 374.920317 283.504534 
L 374.965089 262.215978 
L 374.974037 268.108543 
L 374.991925 191.642183 
L 375.045539 279.787988 
L 375.081237 268.046832 
L 375.152529 144.064053 
L 375.134719 281.86621 
L 375.197015 223.375721 
L 375.22368 277.677898 
L 375.259203 185.571182 
L 375.312423 273.808744 
L 375.356714 155.927237 
L 375.409791 276.912778 
L 375.41863 248.664906 
L 375.471616 279.426385 
L 375.445133 232.34807 
L 375.489261 261.870621 
L 375.49808 154.588928 
L 375.550951 276.319839 
L 375.594951 269.95765 
L 375.66524 159.544694 
L 375.682791 288.508912 
L 375.700334 267.460375 
L 375.78792 282.453586 
L 375.744153 210.4142 
L 375.805411 278.763803 
L 375.918903 196.528082 
L 375.927618 232.587077 
L 375.962459 281.688618 
L 375.971163 191.11203 
L 376.023349 268.330979 
L 376.040728 144.219924 
L 376.058098 279.995938 
L 376.127496 261.055422 
L 376.18811 287.222286 
L 376.196761 219.690098 
L 376.214057 240.395637 
L 376.222701 192.224809 
L 376.248623 282.338682 
L 376.317657 268.918542 
L 376.352125 220.519289 
L 376.369347 278.323242 
L 376.420963 260.925401 
L 376.446744 284.345578 
L 376.46392 247.087869 
L 376.481089 281.446953 
L 376.549683 175.682366 
L 376.532546 282.803943 
L 376.592488 223.916342 
L 376.686482 283.393834 
L 376.618147 175.589052 
L 376.703545 277.947555 
L 376.737648 156.601615 
L 376.814263 257.296738 
L 376.88223 279.19554 
L 376.839766 212.951725 
L 376.899202 272.161034 
L 376.950069 279.135541 
L 377.009325 143.466316 
L 377.026237 278.35411 
L 377.127546 265.392286 
L 377.161253 183.54994 
L 377.211754 281.704205 
L 377.236979 224.358258 
L 377.287375 283.988038 
L 377.295767 199.501682 
L 377.354461 258.136842 
L 377.454858 280.086452 
L 377.471564 181.601827 
L 377.513295 278.700157 
L 377.58829 245.646589 
L 377.671436 271.360732 
L 377.66313 191.220164 
L 377.688042 270.035405 
L 377.746104 210.042266 
L 377.779241 273.691371 
L 377.804074 225.795801 
L 377.82889 284.86909 
L 377.82062 184.564634 
L 377.911486 270.503647 
L 377.977429 152.268782 
L 377.969192 281.484631 
L 378.018582 223.991347 
L 378.092539 281.81729 
L 378.084329 137.543782 
L 378.133562 277.33995 
L 378.223649 145.147125 
L 378.240004 268.633195 
L 378.248179 284.838847 
L 378.329827 232.675953 
L 378.354285 277.172426 
L 378.435695 178.269969 
L 378.484453 276.109858 
L 378.549362 271.014815 
L 378.565571 246.735432 
L 378.573673 159.000958 
L 378.622246 282.782928 
L 378.670754 242.001839 
L 378.686909 281.787393 
L 378.751457 190.577911 
L 378.783688 269.313632 
L 378.856102 283.932197 
L 378.799792 217.609553 
L 378.896271 279.673836 
L 379.016508 138.287426 
L 378.984484 286.505045 
L 379.02451 183.791125 
L 379.040508 279.572698 
L 379.136349 279.398395 
L 379.144324 279.034897 
L 379.263743 164.371735 
L 379.192139 287.009302 
L 379.27169 250.143441 
L 379.327273 280.650529 
L 379.295522 230.139209 
L 379.366923 280.395587 
L 379.374847 154.556339 
L 379.390691 282.220896 
L 379.477711 264.342124 
L 379.501408 281.682867 
L 379.517197 221.199871 
L 379.532979 235.469996 
L 379.540868 145.500387 
L 379.603914 268.919464 
L 379.635396 244.135041 
L 379.643262 245.079381 
L 379.682568 206.346762 
L 379.67471 267.067543 
L 379.745369 252.930436 
L 379.753211 279.972322 
L 379.784564 158.720693 
L 379.847188 252.932081 
L 379.940922 170.730795 
L 379.925317 281.628089 
L 379.956521 244.359377 
L 379.979907 275.506184 
L 380.011064 199.74383 
L 380.073299 267.325664 
L 380.181953 156.257112 
L 380.135427 280.940367 
L 380.189702 206.477191 
L 380.290283 285.41368 
L 380.274827 188.999332 
L 380.305732 266.734336 
L 380.313454 282.045424 
L 380.328893 211.254266 
L 380.413693 271.791199 
L 380.421392 271.633265 
L 380.505975 180.055236 
L 380.490611 287.922015 
L 380.529009 265.260772 
L 380.575033 282.178304 
L 380.598023 227.949206 
L 380.605684 270.325756 
L 380.64396 179.461452 
L 380.697479 280.24771 
L 380.712756 260.77441 
L 380.766174 283.563513 
L 380.758548 204.094233 
L 380.773799 235.731934 
L 380.781422 195.8188 
L 380.872774 290.65598 
L 380.918364 217.695593 
L 380.99422 247.494606 
L 381.032089 181.117246 
L 381.085039 282.063739 
L 381.092597 170.283611 
L 381.198243 230.94164 
L 381.21331 284.206146 
L 381.258474 181.767751 
L 381.326115 279.180459 
L 381.431083 158.894472 
L 381.43857 248.870857 
L 381.475977 281.722443 
L 381.461019 211.793609 
L 381.543214 269.935451 
L 381.580513 151.610032 
L 381.565598 285.172198 
L 381.647557 284.624482 
L 381.766439 206.891743 
L 381.773856 254.442539 
L 381.818328 174.575456 
L 381.892326 284.44201 
L 381.944035 153.396755 
L 382.00304 236.759988 
L 382.076663 282.722843 
L 382.054592 204.077549 
L 382.142795 273.908739 
L 382.194149 283.182449 
L 382.172149 242.613582 
L 382.201479 272.469869 
L 382.230785 162.971645 
L 382.282014 283.512628 
L 382.311255 271.683255 
L 382.318561 271.380359 
L 382.325866 274.234355 
L 382.340472 280.470638 
L 382.398837 131.044553 
L 382.384255 285.011946 
L 382.449829 263.082577 
L 382.471661 135.431195 
L 382.500749 281.845616 
L 382.551598 249.807796 
L 382.63136 284.718249 
L 382.609624 220.301988 
L 382.660321 272.315005 
L 382.674792 179.84482 
L 382.739844 285.157481 
L 382.797569 225.396607 
L 382.862401 278.763389 
L 382.840803 193.115321 
L 382.891178 244.873436 
L 382.977372 279.441432 
L 383.006057 141.127422 
L 383.091979 288.701797 
L 383.127719 273.661919 
L 383.213353 163.299327 
L 383.170562 285.011823 
L 383.241853 197.963929 
L 383.277446 280.085217 
L 383.298785 157.234774 
L 383.355628 240.524515 
L 383.398202 139.565449 
L 383.433642 282.932581 
L 383.440726 280.439987 
L 383.447809 280.577151 
L 383.539755 166.969384 
L 383.4832 282.312127 
L 383.575057 198.512461 
L 383.603274 289.826806 
L 383.631469 99.979445 
L 383.694828 270.263664 
L 383.701861 282.206369 
L 383.758076 217.794578 
L 383.765096 258.711258 
L 383.779134 184.813867 
L 383.870245 279.155058 
L 383.912219 280.195407 
L 384.016942 152.925279 
L 384.135264 276.625166 
L 384.204685 208.249731 
L 384.169991 278.095312 
L 384.246274 252.207169 
L 384.287815 284.268911 
L 384.308568 169.673447 
L 384.356945 279.065778 
L 384.425943 144.209011 
L 384.412154 284.443246 
L 384.467279 276.305295 
L 384.474164 273.483804 
L 384.48793 198.093028 
L 384.49481 285.103197 
L 384.584143 202.126219 
L 384.639007 284.371932 
L 384.65271 176.256854 
L 384.693789 247.509298 
L 384.70063 141.990898 
L 384.768978 275.738648 
L 384.803104 267.021863 
L 384.816745 284.494335 
L 384.823564 115.848839 
L 384.91209 282.491149 
L 384.959669 171.814682 
L 384.939286 282.502592 
L 385.02075 251.358859 
L 385.081729 280.719895 
L 385.047865 230.449165 
L 385.108798 264.600402 
L 385.115562 164.686077 
L 385.176381 280.11724 
L 385.21687 260.526948 
L 385.223614 289.164035 
L 385.257315 161.778764 
L 385.304443 280.736652 
L 385.398516 131.242687 
L 385.411935 174.823718 
L 385.452162 283.075479 
L 385.525797 233.947084 
L 385.532484 195.338934 
L 385.599282 283.684639 
L 385.625968 250.712125 
L 385.679279 283.785776 
L 385.69925 141.904824 
L 385.73916 261.716113 
L 385.779027 205.212979 
L 385.759099 281.329559 
L 385.832113 275.046323 
L 385.845373 281.201405 
L 385.865253 241.799787 
L 385.891743 262.44306 
L 385.931442 170.728287 
L 385.911598 269.939295 
L 385.997511 244.435198 
L 386.063459 274.321859 
L 386.070047 195.970129 
L 386.10297 270.054724 
L 386.175296 118.653619 
L 386.18843 280.149204 
L 386.214685 258.757695 
L 386.247478 211.875155 
L 386.234364 278.871533 
L 386.27369 248.881747 
L 386.28024 125.597307 
L 386.345676 281.197983 
L 386.384881 231.057069 
L 386.391411 207.814753 
L 386.437089 280.136813 
L 386.476195 274.983092 
L 386.482709 278.45171 
L 386.580274 278.456967 
L 386.593262 199.099373 
L 386.651654 289.425198 
L 386.664617 121.176509 
L 386.709952 262.016493 
L 386.7423 272.939525 
L 386.735832 253.461863 
L 386.748766 258.78363 
L 386.75523 157.126706 
L 386.852065 282.569104 
L 386.858512 259.317909 
L 386.871401 278.743049 
L 386.890727 241.482283 
L 386.903605 144.371196 
L 386.922913 287.042267 
L 387.000044 174.100886 
L 387.038549 280.032302 
L 387.115434 259.916391 
L 387.217696 281.505526 
L 387.141027 171.960357 
L 387.230458 276.506461 
L 387.300571 178.155543 
L 387.326034 283.165853 
L 387.345118 201.532204 
L 387.383258 280.916794 
L 387.41501 150.975685 
L 387.459417 272.180365 
L 387.560714 160.461965 
L 387.541742 280.337272 
L 387.567036 251.344438 
L 387.579676 273.715498 
L 387.693238 151.01483 
L 387.655424 279.3695 
L 387.699537 161.383213 
L 387.800166 280.533631 
L 387.812725 234.872509 
L 387.900517 285.052175 
L 387.83783 166.542268 
L 387.93182 260.09336 
L 388.019324 164.887447 
L 388.00059 279.002445 
L 388.044286 207.653212 
L 388.075465 279.70782 
L 388.156405 250.943059 
L 388.206124 287.066822 
L 388.199913 145.014366 
L 388.255775 265.931138 
L 388.348689 157.379907 
L 388.268178 282.035906 
L 388.361059 170.412455 
L 388.422848 290.703638 
L 388.404323 126.869462 
L 388.478369 275.495466 
L 388.515335 191.709719 
L 388.533804 281.234866 
L 388.589155 260.837902 
L 388.668957 282.435387 
L 388.675088 233.426893 
L 388.754702 138.181833 
L 388.699603 284.258491 
L 388.791387 174.889844 
L 388.88294 282.499641 
L 388.852448 162.881577 
L 388.907315 196.932355 
L 389.004651 154.366777 
L 388.943847 273.999687 
L 389.010726 199.165184 
L 389.028944 281.817244 
L 389.113843 157.826361 
L 389.125955 278.419137 
L 389.168316 129.438056 
L 389.144116 284.001739 
L 389.240819 205.025063 
L 389.252889 278.176595 
L 389.277016 192.106251 
L 389.349303 266.038045 
L 389.415439 173.384885 
L 389.445461 280.581258 
L 389.457463 273.442248 
L 389.463463 278.682693 
L 389.475458 224.073183 
L 389.48745 274.884031 
L 389.553335 185.01848 
L 389.565302 281.719174 
L 389.5952 226.981402 
L 389.678784 142.194484 
L 389.714547 286.467484 
L 389.774074 180.299074 
L 389.833502 210.353746 
L 389.910615 285.664376 
L 389.845377 200.900521 
L 389.952069 258.382032 
L 390.046644 285.298656 
L 389.993476 229.532802 
L 390.064349 278.330717 
L 390.135084 184.62567 
L 390.188045 214.022338 
L 390.258539 277.480778 
L 390.229183 160.410462 
L 390.299597 264.03514 
L 390.323039 282.283263 
L 390.416652 167.116644 
L 390.480871 280.490629 
L 390.469203 137.251483 
L 390.533329 266.10772 
L 390.591527 162.905767 
L 390.620591 281.77031 
L 390.649632 248.149653 
L 390.748197 282.973184 
L 390.707644 167.516139 
L 390.765564 275.836538 
L 390.77135 153.98954 
L 390.811832 288.143675 
L 390.875356 224.051831 
L 390.898428 196.311441 
L 390.892661 269.941123 
L 390.950286 223.11095 
L 390.967555 285.540655 
L 391.048038 165.424059 
L 391.065261 279.169178 
L 391.088212 167.147761 
L 391.174151 188.358907 
L 391.202752 288.065324 
L 391.248466 167.577562 
L 391.282714 227.054465 
L 391.31123 158.734877 
L 391.339723 282.893444 
L 391.385265 252.967523 
L 391.4137 283.38675 
L 391.402329 206.254198 
L 391.481853 249.273545 
L 391.52155 150.133424 
L 391.566864 281.560522 
L 391.5895 256.667991 
L 391.64038 190.029827 
L 391.696829 283.374418 
L 391.753191 138.591645 
L 391.809464 262.179657 
L 391.82633 189.606145 
L 391.876878 282.003528 
L 391.90493 255.303403 
L 391.910538 286.34528 
L 391.93296 200.740057 
L 391.994551 270.612257 
L 392.000145 154.751975 
L 392.095111 278.781698 
L 392.106267 248.504059 
L 392.178698 168.786603 
L 392.200955 275.379145 
L 392.217639 243.929193 
L 392.223199 244.069373 
L 392.250984 285.081317 
L 392.300944 197.166245 
L 392.339755 279.840549 
L 392.345296 283.632856 
L 392.367451 242.23004 
L 392.395126 271.019007 
L 392.489064 129.944996 
L 392.40619 288.212146 
L 392.505616 236.331238 
L 392.571748 290.773399 
L 392.555226 231.172173 
L 392.61027 266.111216 
L 392.61577 126.553139 
L 392.687191 289.397936 
L 392.720107 244.447543 
L 392.72559 182.17549 
L 392.78585 282.830473 
L 392.829612 246.641902 
L 392.873322 284.939822 
L 392.900614 195.186579 
L 392.927885 280.580637 
L 392.987809 182.657621 
L 393.009576 280.766593 
L 393.0422 220.072723 
L 393.047635 282.288532 
L 393.085655 198.160158 
L 393.150738 267.896979 
L 393.248146 210.439391 
L 393.172407 282.43091 
L 393.258952 218.158998 
L 393.275157 280.077374 
L 393.269756 194.205368 
L 393.372231 262.287759 
L 393.399149 289.79505 
L 393.388384 194.771181 
L 393.469045 265.968075 
L 393.479786 163.370782 
L 393.501259 282.945977 
L 393.576315 262.384055 
L 393.608434 287.600755 
L 393.635178 170.478731 
L 393.672586 264.829077 
L 393.736626 163.593666 
L 393.763276 284.177633 
L 393.779256 255.352862 
L 393.816516 282.575971 
L 393.843107 178.190207 
L 393.869679 241.142046 
L 393.943976 177.00303 
L 393.885613 281.263145 
L 393.975771 201.623707 
L 394.018121 280.533469 
L 394.065706 161.60723 
L 394.086835 252.393503 
L 394.165958 191.987963 
L 394.123781 286.081475 
L 394.192294 258.786378 
L 394.197559 259.700738 
L 394.271188 286.56227 
L 394.265934 204.834446 
L 394.297448 250.993658 
L 394.344668 163.10308 
L 394.323689 281.113587 
L 394.407532 260.142328 
L 394.423231 280.898056 
L 394.444152 228.903992 
L 394.480736 249.107194 
L 394.485959 191.302202 
L 394.491181 282.67548 
L 394.585057 227.695401 
L 394.663102 287.163827 
L 394.631904 117.695046 
L 394.694273 262.748107 
L 394.730605 287.686782 
L 394.813513 192.109661 
L 394.896232 280.631509 
L 394.880737 143.843946 
L 394.927203 277.595675 
L 394.958148 161.608715 
L 395.03025 280.244615 
L 395.045681 250.799621 
L 395.081663 282.614633 
L 395.0868 87.94787 
L 395.15352 270.609689 
L 395.199638 194.831859 
L 395.220116 280.306859 
L 395.26615 250.29735 
L 395.347844 295.488 
L 395.276372 157.378336 
L 395.373336 252.194923 
L 395.408994 288.760683 
L 395.449703 200.919965 
L 395.490367 287.335481 
L 395.510682 192.014679 
L 395.561419 219.013319 
L 395.642451 282.359833 
L 395.571558 171.31594 
L 395.682899 241.921777 
L 395.693004 167.120471 
L 395.713206 280.198491 
L 395.788861 225.09429 
L 395.854302 287.966862 
L 395.829146 156.657586 
L 395.899538 276.862655 
L 395.909583 152.023088 
L 395.914604 288.232623 
L 396.009878 233.929845 
L 396.119883 286.558802 
L 396.059922 192.297373 
L 396.124875 260.48857 
L 396.149827 120.447349 
L 396.219599 278.745383 
L 396.229555 196.604314 
L 396.299175 283.642224 
L 396.333934 185.80015 
L 396.343859 248.856384 
L 396.418211 286.295449 
L 396.363701 183.991156 
L 396.44791 271.701948 
L 396.502293 176.529456 
L 396.492412 280.687248 
L 396.561528 241.509093 
L 396.56646 281.911908 
L 396.596037 170.336254 
L 396.674792 278.115754 
L 396.684624 163.566143 
L 396.797504 224.58751 
L 396.802404 280.654559 
L 396.8171 133.41106 
L 396.905148 277.998765 
L 396.934451 167.114162 
L 396.978359 278.33268 
L 397.012474 247.417003 
L 397.119483 283.331335 
L 397.070882 166.194829 
L 397.124339 279.065221 
L 397.168019 140.190003 
L 397.148612 287.826107 
L 397.231019 265.319852 
L 397.298743 283.080642 
L 397.255221 197.327013 
L 397.337386 280.783097 
L 397.366341 151.144208 
L 397.414548 284.180815 
L 397.453067 243.293254 
L 397.501159 281.09242 
L 397.529984 188.202909 
L 397.534786 280.225097 
L 397.539587 161.103109 
L 397.61632 284.913057 
L 397.645053 258.10399 
L 397.702451 188.181468 
L 397.716787 287.240222 
L 397.754986 257.212688 
L 397.80268 280.970093 
L 397.82174 177.464896 
L 397.84555 272.750739 
L 397.85031 166.146964 
L 397.869345 280.91352 
L 397.954878 275.954864 
L 398.04021 173.645647 
L 397.978601 278.953139 
L 398.059145 182.501996 
L 398.096986 280.738195 
L 398.163113 167.901733 
L 398.172549 277.225739 
L 398.191416 206.921463 
L 398.196131 207.141192 
L 398.295006 134.136675 
L 398.262077 281.235692 
L 398.304408 233.655056 
L 398.313808 283.097982 
L 398.393611 188.553997 
L 398.407676 262.57106 
L 398.412363 85.624134 
L 398.417049 285.968242 
L 398.487273 164.775555 
" clip-path="url(#p47968d1403)" style="fill: none; stroke: #1f77b4; stroke-width: 1.5; stroke-linecap: square"/>
   </g>
   <g id="patch_3">
    <path d="M 57.6 307.584 
L 57.6 41.472 
" style="fill: none; stroke: #000000; stroke-width: 0.8; stroke-linejoin: miter; stroke-linecap: square"/>
   </g>
   <g id="patch_4">
    <path d="M 414.72 307.584 
L 414.72 41.472 
" style="fill: none; stroke: #000000; stroke-width: 0.8; stroke-linejoin: miter; stroke-linecap: square"/>
   </g>
   <g id="patch_5">
    <path d="M 57.6 307.584 
L 414.72 307.584 
" style="fill: none; stroke: #000000; stroke-width: 0.8; stroke-linejoin: miter; stroke-linecap: square"/>
   </g>
   <g id="patch_6">
    <path d="M 57.6 41.472 
L 414.72 41.472 
" style="fill: none; stroke: #000000; stroke-width: 0.8; stroke-linejoin: miter; stroke-linecap: square"/>
   </g>
  </g>
 </g>
 <defs>
  <clipPath id="p47968d1403">
   <rect x="57.6" y="41.472" width="357.12" height="266.112"/>
  </clipPath>
 </defs>
</svg>
