<?xml version="1.0" encoding="utf-8" standalone="no"?>
<!DOCTYPE svg PUBLIC "-//W3C//DTD SVG 1.1//EN"
  "http://www.w3.org/Graphics/SVG/1.1/DTD/svg11.dtd">
<svg xmlns:xlink="http://www.w3.org/1999/xlink" width="460.8pt" height="345.6pt" viewBox="0 0 460.8 345.6" xmlns="http://www.w3.org/2000/svg" version="1.1">
 <metadata>
  <rdf:RDF xmlns:dc="http://purl.org/dc/elements/1.1/" xmlns:cc="http://creativecommons.org/ns#" xmlns:rdf="http://www.w3.org/1999/02/22-rdf-syntax-ns#">
   <cc:Work>
    <dc:type rdf:resource="http://purl.org/dc/dcmitype/StillImage"/>
    <dc:date>2022-11-13T19:16:30.133733</dc:date>
    <dc:format>image/svg+xml</dc:format>
    <dc:creator>
     <cc:Agent>
      <dc:title>Matplotlib v3.5.3, https://matplotlib.org/</dc:title>
     </cc:Agent>
    </dc:creator>
   </cc:Work>
  </rdf:RDF>
 </metadata>
 <defs>
  <style type="text/css">*{stroke-linejoin: round; stroke-linecap: butt}</style>
 </defs>
 <g id="figure_1">
  <g id="patch_1">
   <path d="M 0 345.6 
L 460.8 345.6 
L 460.8 0 
L 0 0 
z
" style="fill: #ffffff"/>
  </g>
  <g id="axes_1">
   <g id="patch_2">
    <path d="M 57.6 307.584 
L 414.72 307.584 
L 414.72 41.472 
L 57.6 41.472 
z
" style="fill: #ffffff"/>
   </g>
   <g id="matplotlib.axis_1">
    <g id="xtick_1">
     <g id="line2d_1">
      <defs>
       <path id="mbbb1b0a30b" d="M 0 0 
L 0 3.5 
" style="stroke: #000000; stroke-width: 0.8"/>
      </defs>
      <g>
       <use xlink:href="#mbbb1b0a30b" x="73.832727" y="307.584" style="stroke: #000000; stroke-width: 0.8"/>
      </g>
     </g>
     <g id="text_1">
      <!-- $\mathdefault{10^{0}}$ -->
      <g transform="translate(65.032727 322.182437)scale(0.1 -0.1)">
       <defs>
        <path id="DejaVuSans-31" d="M 794 531 
L 1825 531 
L 1825 4091 
L 703 3866 
L 703 4441 
L 1819 4666 
L 2450 4666 
L 2450 531 
L 3481 531 
L 3481 0 
L 794 0 
L 794 531 
z
" transform="scale(0.015625)"/>
        <path id="DejaVuSans-30" d="M 2034 4250 
Q 1547 4250 1301 3770 
Q 1056 3291 1056 2328 
Q 1056 1369 1301 889 
Q 1547 409 2034 409 
Q 2525 409 2770 889 
Q 3016 1369 3016 2328 
Q 3016 3291 2770 3770 
Q 2525 4250 2034 4250 
z
M 2034 4750 
Q 2819 4750 3233 4129 
Q 3647 3509 3647 2328 
Q 3647 1150 3233 529 
Q 2819 -91 2034 -91 
Q 1250 -91 836 529 
Q 422 1150 422 2328 
Q 422 3509 836 4129 
Q 1250 4750 2034 4750 
z
" transform="scale(0.015625)"/>
       </defs>
       <use xlink:href="#DejaVuSans-31" transform="translate(0 0.765625)"/>
       <use xlink:href="#DejaVuSans-30" transform="translate(63.623047 0.765625)"/>
       <use xlink:href="#DejaVuSans-30" transform="translate(128.203125 39.046875)scale(0.7)"/>
      </g>
     </g>
    </g>
    <g id="xtick_2">
     <g id="line2d_2">
      <g>
       <use xlink:href="#mbbb1b0a30b" x="209.320013" y="307.584" style="stroke: #000000; stroke-width: 0.8"/>
      </g>
     </g>
     <g id="text_2">
      <!-- $\mathdefault{10^{1}}$ -->
      <g transform="translate(200.520013 322.182437)scale(0.1 -0.1)">
       <use xlink:href="#DejaVuSans-31" transform="translate(0 0.684375)"/>
       <use xlink:href="#DejaVuSans-30" transform="translate(63.623047 0.684375)"/>
       <use xlink:href="#DejaVuSans-31" transform="translate(128.203125 38.965625)scale(0.7)"/>
      </g>
     </g>
    </g>
    <g id="xtick_3">
     <g id="line2d_3">
      <g>
       <use xlink:href="#mbbb1b0a30b" x="344.807299" y="307.584" style="stroke: #000000; stroke-width: 0.8"/>
      </g>
     </g>
     <g id="text_3">
      <!-- $\mathdefault{10^{2}}$ -->
      <g transform="translate(336.007299 322.182437)scale(0.1 -0.1)">
       <defs>
        <path id="DejaVuSans-32" d="M 1228 531 
L 3431 531 
L 3431 0 
L 469 0 
L 469 531 
Q 828 903 1448 1529 
Q 2069 2156 2228 2338 
Q 2531 2678 2651 2914 
Q 2772 3150 2772 3378 
Q 2772 3750 2511 3984 
Q 2250 4219 1831 4219 
Q 1534 4219 1204 4116 
Q 875 4013 500 3803 
L 500 4441 
Q 881 4594 1212 4672 
Q 1544 4750 1819 4750 
Q 2544 4750 2975 4387 
Q 3406 4025 3406 3419 
Q 3406 3131 3298 2873 
Q 3191 2616 2906 2266 
Q 2828 2175 2409 1742 
Q 1991 1309 1228 531 
z
" transform="scale(0.015625)"/>
       </defs>
       <use xlink:href="#DejaVuSans-31" transform="translate(0 0.765625)"/>
       <use xlink:href="#DejaVuSans-30" transform="translate(63.623047 0.765625)"/>
       <use xlink:href="#DejaVuSans-32" transform="translate(128.203125 39.046875)scale(0.7)"/>
      </g>
     </g>
    </g>
    <g id="xtick_4">
     <g id="line2d_4">
      <defs>
       <path id="m57cce88e63" d="M 0 0 
L 0 2 
" style="stroke: #000000; stroke-width: 0.6"/>
      </defs>
      <g>
       <use xlink:href="#m57cce88e63" x="60.702653" y="307.584" style="stroke: #000000; stroke-width: 0.6"/>
      </g>
     </g>
    </g>
    <g id="xtick_5">
     <g id="line2d_5">
      <g>
       <use xlink:href="#m57cce88e63" x="67.633169" y="307.584" style="stroke: #000000; stroke-width: 0.6"/>
      </g>
     </g>
    </g>
    <g id="xtick_6">
     <g id="line2d_6">
      <g>
       <use xlink:href="#m57cce88e63" x="114.618464" y="307.584" style="stroke: #000000; stroke-width: 0.6"/>
      </g>
     </g>
    </g>
    <g id="xtick_7">
     <g id="line2d_7">
      <g>
       <use xlink:href="#m57cce88e63" x="138.476591" y="307.584" style="stroke: #000000; stroke-width: 0.6"/>
      </g>
     </g>
    </g>
    <g id="xtick_8">
     <g id="line2d_8">
      <g>
       <use xlink:href="#m57cce88e63" x="155.404201" y="307.584" style="stroke: #000000; stroke-width: 0.6"/>
      </g>
     </g>
    </g>
    <g id="xtick_9">
     <g id="line2d_9">
      <g>
       <use xlink:href="#m57cce88e63" x="168.534276" y="307.584" style="stroke: #000000; stroke-width: 0.6"/>
      </g>
     </g>
    </g>
    <g id="xtick_10">
     <g id="line2d_10">
      <g>
       <use xlink:href="#m57cce88e63" x="179.262328" y="307.584" style="stroke: #000000; stroke-width: 0.6"/>
      </g>
     </g>
    </g>
    <g id="xtick_11">
     <g id="line2d_11">
      <g>
       <use xlink:href="#m57cce88e63" x="188.332767" y="307.584" style="stroke: #000000; stroke-width: 0.6"/>
      </g>
     </g>
    </g>
    <g id="xtick_12">
     <g id="line2d_12">
      <g>
       <use xlink:href="#m57cce88e63" x="196.189938" y="307.584" style="stroke: #000000; stroke-width: 0.6"/>
      </g>
     </g>
    </g>
    <g id="xtick_13">
     <g id="line2d_13">
      <g>
       <use xlink:href="#m57cce88e63" x="203.120455" y="307.584" style="stroke: #000000; stroke-width: 0.6"/>
      </g>
     </g>
    </g>
    <g id="xtick_14">
     <g id="line2d_14">
      <g>
       <use xlink:href="#m57cce88e63" x="250.10575" y="307.584" style="stroke: #000000; stroke-width: 0.6"/>
      </g>
     </g>
    </g>
    <g id="xtick_15">
     <g id="line2d_15">
      <g>
       <use xlink:href="#m57cce88e63" x="273.963877" y="307.584" style="stroke: #000000; stroke-width: 0.6"/>
      </g>
     </g>
    </g>
    <g id="xtick_16">
     <g id="line2d_16">
      <g>
       <use xlink:href="#m57cce88e63" x="290.891487" y="307.584" style="stroke: #000000; stroke-width: 0.6"/>
      </g>
     </g>
    </g>
    <g id="xtick_17">
     <g id="line2d_17">
      <g>
       <use xlink:href="#m57cce88e63" x="304.021562" y="307.584" style="stroke: #000000; stroke-width: 0.6"/>
      </g>
     </g>
    </g>
    <g id="xtick_18">
     <g id="line2d_18">
      <g>
       <use xlink:href="#m57cce88e63" x="314.749614" y="307.584" style="stroke: #000000; stroke-width: 0.6"/>
      </g>
     </g>
    </g>
    <g id="xtick_19">
     <g id="line2d_19">
      <g>
       <use xlink:href="#m57cce88e63" x="323.820053" y="307.584" style="stroke: #000000; stroke-width: 0.6"/>
      </g>
     </g>
    </g>
    <g id="xtick_20">
     <g id="line2d_20">
      <g>
       <use xlink:href="#m57cce88e63" x="331.677224" y="307.584" style="stroke: #000000; stroke-width: 0.6"/>
      </g>
     </g>
    </g>
    <g id="xtick_21">
     <g id="line2d_21">
      <g>
       <use xlink:href="#m57cce88e63" x="338.60774" y="307.584" style="stroke: #000000; stroke-width: 0.6"/>
      </g>
     </g>
    </g>
    <g id="xtick_22">
     <g id="line2d_22">
      <g>
       <use xlink:href="#m57cce88e63" x="385.593036" y="307.584" style="stroke: #000000; stroke-width: 0.6"/>
      </g>
     </g>
    </g>
    <g id="xtick_23">
     <g id="line2d_23">
      <g>
       <use xlink:href="#m57cce88e63" x="409.451162" y="307.584" style="stroke: #000000; stroke-width: 0.6"/>
      </g>
     </g>
    </g>
    <g id="text_4">
     <!-- Epoch -->
     <g transform="translate(220.849063 335.860562)scale(0.1 -0.1)">
      <defs>
       <path id="DejaVuSans-45" d="M 628 4666 
L 3578 4666 
L 3578 4134 
L 1259 4134 
L 1259 2753 
L 3481 2753 
L 3481 2222 
L 1259 2222 
L 1259 531 
L 3634 531 
L 3634 0 
L 628 0 
L 628 4666 
z
" transform="scale(0.015625)"/>
       <path id="DejaVuSans-70" d="M 1159 525 
L 1159 -1331 
L 581 -1331 
L 581 3500 
L 1159 3500 
L 1159 2969 
Q 1341 3281 1617 3432 
Q 1894 3584 2278 3584 
Q 2916 3584 3314 3078 
Q 3713 2572 3713 1747 
Q 3713 922 3314 415 
Q 2916 -91 2278 -91 
Q 1894 -91 1617 61 
Q 1341 213 1159 525 
z
M 3116 1747 
Q 3116 2381 2855 2742 
Q 2594 3103 2138 3103 
Q 1681 3103 1420 2742 
Q 1159 2381 1159 1747 
Q 1159 1113 1420 752 
Q 1681 391 2138 391 
Q 2594 391 2855 752 
Q 3116 1113 3116 1747 
z
" transform="scale(0.015625)"/>
       <path id="DejaVuSans-6f" d="M 1959 3097 
Q 1497 3097 1228 2736 
Q 959 2375 959 1747 
Q 959 1119 1226 758 
Q 1494 397 1959 397 
Q 2419 397 2687 759 
Q 2956 1122 2956 1747 
Q 2956 2369 2687 2733 
Q 2419 3097 1959 3097 
z
M 1959 3584 
Q 2709 3584 3137 3096 
Q 3566 2609 3566 1747 
Q 3566 888 3137 398 
Q 2709 -91 1959 -91 
Q 1206 -91 779 398 
Q 353 888 353 1747 
Q 353 2609 779 3096 
Q 1206 3584 1959 3584 
z
" transform="scale(0.015625)"/>
       <path id="DejaVuSans-63" d="M 3122 3366 
L 3122 2828 
Q 2878 2963 2633 3030 
Q 2388 3097 2138 3097 
Q 1578 3097 1268 2742 
Q 959 2388 959 1747 
Q 959 1106 1268 751 
Q 1578 397 2138 397 
Q 2388 397 2633 464 
Q 2878 531 3122 666 
L 3122 134 
Q 2881 22 2623 -34 
Q 2366 -91 2075 -91 
Q 1284 -91 818 406 
Q 353 903 353 1747 
Q 353 2603 823 3093 
Q 1294 3584 2113 3584 
Q 2378 3584 2631 3529 
Q 2884 3475 3122 3366 
z
" transform="scale(0.015625)"/>
       <path id="DejaVuSans-68" d="M 3513 2113 
L 3513 0 
L 2938 0 
L 2938 2094 
Q 2938 2591 2744 2837 
Q 2550 3084 2163 3084 
Q 1697 3084 1428 2787 
Q 1159 2491 1159 1978 
L 1159 0 
L 581 0 
L 581 4863 
L 1159 4863 
L 1159 2956 
Q 1366 3272 1645 3428 
Q 1925 3584 2291 3584 
Q 2894 3584 3203 3211 
Q 3513 2838 3513 2113 
z
" transform="scale(0.015625)"/>
      </defs>
      <use xlink:href="#DejaVuSans-45"/>
      <use xlink:href="#DejaVuSans-70" x="63.183594"/>
      <use xlink:href="#DejaVuSans-6f" x="126.660156"/>
      <use xlink:href="#DejaVuSans-63" x="187.841797"/>
      <use xlink:href="#DejaVuSans-68" x="242.822266"/>
     </g>
    </g>
   </g>
   <g id="matplotlib.axis_2">
    <g id="ytick_1">
     <g id="line2d_24">
      <defs>
       <path id="mf3dc071ea6" d="M 0 0 
L -3.5 0 
" style="stroke: #000000; stroke-width: 0.8"/>
      </defs>
      <g>
       <use xlink:href="#mf3dc071ea6" x="57.6" y="161.99778" style="stroke: #000000; stroke-width: 0.8"/>
      </g>
     </g>
     <g id="text_5">
      <!-- $\mathdefault{10^{0}}$ -->
      <g transform="translate(33 165.796998)scale(0.1 -0.1)">
       <use xlink:href="#DejaVuSans-31" transform="translate(0 0.765625)"/>
       <use xlink:href="#DejaVuSans-30" transform="translate(63.623047 0.765625)"/>
       <use xlink:href="#DejaVuSans-30" transform="translate(128.203125 39.046875)scale(0.7)"/>
      </g>
     </g>
    </g>
    <g id="ytick_2">
     <g id="line2d_25">
      <defs>
       <path id="m2705b8120c" d="M 0 0 
L -2 0 
" style="stroke: #000000; stroke-width: 0.6"/>
      </defs>
      <g>
       <use xlink:href="#m2705b8120c" x="57.6" y="273.25104" style="stroke: #000000; stroke-width: 0.6"/>
      </g>
     </g>
    </g>
    <g id="ytick_3">
     <g id="line2d_26">
      <g>
       <use xlink:href="#m2705b8120c" x="57.6" y="245.223046" style="stroke: #000000; stroke-width: 0.6"/>
      </g>
     </g>
    </g>
    <g id="ytick_4">
     <g id="line2d_27">
      <g>
       <use xlink:href="#m2705b8120c" x="57.6" y="225.336869" style="stroke: #000000; stroke-width: 0.6"/>
      </g>
     </g>
    </g>
    <g id="ytick_5">
     <g id="line2d_28">
      <g>
       <use xlink:href="#m2705b8120c" x="57.6" y="209.911951" style="stroke: #000000; stroke-width: 0.6"/>
      </g>
     </g>
    </g>
    <g id="ytick_6">
     <g id="line2d_29">
      <g>
       <use xlink:href="#m2705b8120c" x="57.6" y="197.308875" style="stroke: #000000; stroke-width: 0.6"/>
      </g>
     </g>
    </g>
    <g id="ytick_7">
     <g id="line2d_30">
      <g>
       <use xlink:href="#m2705b8120c" x="57.6" y="186.653127" style="stroke: #000000; stroke-width: 0.6"/>
      </g>
     </g>
    </g>
    <g id="ytick_8">
     <g id="line2d_31">
      <g>
       <use xlink:href="#m2705b8120c" x="57.6" y="177.422697" style="stroke: #000000; stroke-width: 0.6"/>
      </g>
     </g>
    </g>
    <g id="ytick_9">
     <g id="line2d_32">
      <g>
       <use xlink:href="#m2705b8120c" x="57.6" y="169.280882" style="stroke: #000000; stroke-width: 0.6"/>
      </g>
     </g>
    </g>
    <g id="ytick_10">
     <g id="line2d_33">
      <g>
       <use xlink:href="#m2705b8120c" x="57.6" y="114.083608" style="stroke: #000000; stroke-width: 0.6"/>
      </g>
     </g>
    </g>
    <g id="ytick_11">
     <g id="line2d_34">
      <g>
       <use xlink:href="#m2705b8120c" x="57.6" y="86.055615" style="stroke: #000000; stroke-width: 0.6"/>
      </g>
     </g>
    </g>
    <g id="ytick_12">
     <g id="line2d_35">
      <g>
       <use xlink:href="#m2705b8120c" x="57.6" y="66.169437" style="stroke: #000000; stroke-width: 0.6"/>
      </g>
     </g>
    </g>
    <g id="ytick_13">
     <g id="line2d_36">
      <g>
       <use xlink:href="#m2705b8120c" x="57.6" y="50.744519" style="stroke: #000000; stroke-width: 0.6"/>
      </g>
     </g>
    </g>
    <g id="text_6">
     <!-- MSE -->
     <g transform="translate(26.920313 185.175656)rotate(-90)scale(0.1 -0.1)">
      <defs>
       <path id="DejaVuSans-4d" d="M 628 4666 
L 1569 4666 
L 2759 1491 
L 3956 4666 
L 4897 4666 
L 4897 0 
L 4281 0 
L 4281 4097 
L 3078 897 
L 2444 897 
L 1241 4097 
L 1241 0 
L 628 0 
L 628 4666 
z
" transform="scale(0.015625)"/>
       <path id="DejaVuSans-53" d="M 3425 4513 
L 3425 3897 
Q 3066 4069 2747 4153 
Q 2428 4238 2131 4238 
Q 1616 4238 1336 4038 
Q 1056 3838 1056 3469 
Q 1056 3159 1242 3001 
Q 1428 2844 1947 2747 
L 2328 2669 
Q 3034 2534 3370 2195 
Q 3706 1856 3706 1288 
Q 3706 609 3251 259 
Q 2797 -91 1919 -91 
Q 1588 -91 1214 -16 
Q 841 59 441 206 
L 441 856 
Q 825 641 1194 531 
Q 1563 422 1919 422 
Q 2459 422 2753 634 
Q 3047 847 3047 1241 
Q 3047 1584 2836 1778 
Q 2625 1972 2144 2069 
L 1759 2144 
Q 1053 2284 737 2584 
Q 422 2884 422 3419 
Q 422 4038 858 4394 
Q 1294 4750 2059 4750 
Q 2388 4750 2728 4690 
Q 3069 4631 3425 4513 
z
" transform="scale(0.015625)"/>
      </defs>
      <use xlink:href="#DejaVuSans-4d"/>
      <use xlink:href="#DejaVuSans-53" x="86.279297"/>
      <use xlink:href="#DejaVuSans-45" x="149.755859"/>
     </g>
    </g>
   </g>
   <g id="line2d_37">
    <path d="M -1 91.386838 
L 73.832727 91.407738 
L 114.618464 160.715193 
L 138.476591 209.699995 
L 155.404201 211.154561 
L 168.534276 230.31889 
L 179.262328 239.865626 
L 188.332767 247.241497 
L 196.189938 239.337763 
L 203.120455 249.718749 
L 209.320013 234.805072 
L 214.928195 251.36887 
L 220.048065 258.368045 
L 224.757888 259.019329 
L 229.118504 259.199822 
L 233.17814 258.281807 
L 236.975675 252.957888 
L 240.542912 263.97393 
L 243.906192 258.530791 
L 247.087582 268.446443 
L 250.10575 265.558208 
L 252.976631 271.113661 
L 255.713933 263.066175 
L 258.329536 270.887036 
L 260.833802 262.790051 
L 263.235825 256.257851 
L 265.543625 275.231212 
L 267.764318 276.804112 
L 269.904241 274.437706 
L 271.969063 277.898189 
L 273.963877 272.374256 
L 275.893275 275.945975 
L 277.761412 275.115178 
L 279.572059 285.767791 
L 281.328649 277.050352 
L 283.034315 282.348833 
L 284.691929 284.408951 
L 286.304122 285.628357 
L 287.873319 276.507046 
L 289.401752 285.630298 
L 290.891487 281.443025 
L 292.344434 287.21541 
L 293.762368 284.938517 
L 295.146935 286.81124 
L 296.49967 286.609541 
L 297.822003 287.787138 
L 299.115273 286.886529 
L 300.380727 285.30243 
L 301.619539 282.344092 
L 302.832806 288.099315 
L 304.021562 290.872909 
L 305.186776 276.254376 
L 306.329362 291.139764 
L 307.450185 290.769977 
L 308.550055 290.032741 
L 309.629744 289.541565 
L 310.689978 291.159287 
L 311.731445 289.68515 
L 312.7548 284.656338 
L 313.76066 290.139111 
L 314.749614 284.972722 
L 315.722221 288.121619 
L 316.679012 288.91946 
L 317.620494 290.115535 
L 318.547149 280.551876 
L 319.459437 293.584299 
L 320.357796 290.192992 
L 321.242646 293.102895 
L 322.114386 292.865815 
L 322.973399 285.797636 
L 323.820053 291.69519 
L 324.654696 292.093845 
L 325.477666 293.551877 
L 326.289284 292.408321 
L 327.089859 291.633547 
L 327.879688 294.369031 
L 328.659056 292.383096 
L 329.428235 292.446438 
L 330.187489 290.883357 
L 330.937071 290.499593 
L 331.677224 292.783721 
L 332.408182 282.64559 
L 333.130171 293.77336 
L 333.843409 281.711913 
L 334.548105 289.0054 
L 335.24446 291.822353 
L 335.932672 290.465989 
L 336.612926 282.044518 
L 337.950288 294.100511 
L 338.60774 281.763849 
L 339.257928 290.346597 
L 339.90101 292.954362 
L 340.537139 290.793923 
L 341.166464 286.71593 
L 341.78913 285.440887 
L 342.405276 292.605207 
L 343.015037 290.525839 
L 343.618543 290.421263 
L 344.215923 286.875533 
L 344.807299 287.99137 
L 345.39279 294.871426 
L 345.972513 291.730197 
L 346.546579 295.488 
L 347.1151 289.677873 
L 347.678179 289.333058 
L 348.235922 290.576145 
L 348.788427 292.162813 
L 349.335793 290.893215 
L 349.878113 292.767873 
L 350.415481 291.380072 
L 350.947986 287.94049 
L 351.475715 289.914723 
L 351.998753 285.379474 
L 352.517182 293.353383 
L 353.031084 294.574044 
L 353.540537 293.732441 
L 354.045616 282.607811 
L 354.546397 284.836964 
L 355.042951 292.609738 
L 355.535351 285.964192 
L 356.023664 292.092324 
L 356.507958 285.700074 
L 356.988298 289.220342 
L 357.464749 289.678389 
L 357.937373 293.83697 
L 358.406231 283.193268 
L 358.871383 291.23507 
L 359.332886 294.307856 
L 359.790798 274.71394 
L 360.245174 292.933688 
L 360.696068 269.742235 
L 361.143533 276.198737 
L 361.587621 293.289205 
L 362.028383 291.449242 
L 362.465867 292.816222 
L 362.900123 290.634798 
L 363.331197 285.357141 
L 363.759136 288.469813 
L 364.183986 294.459743 
L 364.60579 292.866444 
L 365.024591 292.535694 
L 365.440433 290.488548 
L 365.853357 294.224654 
L 366.263403 287.279114 
L 366.670611 284.730154 
L 367.075021 293.467109 
L 367.47667 293.845218 
L 367.875596 289.898982 
L 368.271836 291.914895 
L 368.665425 292.613119 
L 369.444793 292.922919 
L 369.830639 292.749611 
L 370.213972 278.16551 
L 370.594824 294.008788 
L 370.973226 293.001238 
L 371.349211 293.608058 
L 371.722808 290.255247 
L 372.094048 293.234933 
L 372.462961 283.753892 
L 372.829575 285.781922 
L 373.193919 292.875556 
L 373.556021 291.778518 
L 373.915908 294.588159 
L 374.273608 288.510275 
L 374.629146 294.773127 
L 374.982549 288.381651 
L 375.333842 291.213195 
L 375.68305 288.270404 
L 376.030197 289.671224 
L 376.375309 285.579962 
L 376.718409 292.649378 
L 377.059519 280.73081 
L 377.398663 289.348587 
L 377.735864 292.736323 
L 378.071144 285.373668 
L 378.404523 292.724111 
L 378.736025 292.196689 
L 379.065669 286.464865 
L 379.393477 294.599176 
L 379.719469 292.534843 
L 380.043665 293.341046 
L 380.686747 289.893275 
L 381.005671 289.960644 
L 381.322876 292.386995 
L 381.63838 288.239901 
L 381.952201 293.736562 
L 382.264358 285.275672 
L 382.574867 284.587923 
L 383.191013 293.874113 
L 383.496683 291.842003 
L 383.800774 288.999863 
L 384.40428 293.805303 
L 384.703728 289.698804 
L 385.00166 293.208023 
L 385.298091 281.234667 
L 385.593036 287.498885 
L 385.886509 287.555199 
L 386.178527 294.125925 
L 386.469102 293.543249 
L 386.75825 292.312463 
L 387.045983 293.429929 
L 387.332316 292.729851 
L 387.617263 290.129905 
L 387.900837 292.247427 
L 388.18305 293.281091 
L 388.463916 287.141595 
L 388.743448 289.727755 
L 389.021659 290.757384 
L 389.29856 293.132079 
L 389.574164 294.306243 
L 389.848483 294.888616 
L 390.12153 288.850238 
L 390.393315 289.860004 
L 390.66385 292.741383 
L 390.933148 293.141438 
L 391.201218 292.407023 
L 391.468073 290.85829 
L 391.733723 284.907925 
L 391.998179 289.96599 
L 392.261452 288.451721 
L 392.523552 292.981763 
L 392.78449 286.521466 
L 393.044276 294.801202 
L 393.302919 273.433805 
L 393.560431 294.167942 
L 393.816821 292.215538 
L 394.072099 293.525617 
L 394.326274 287.04713 
L 394.579355 288.519023 
L 394.831353 293.998698 
L 395.082276 283.848233 
L 395.580935 290.468467 
L 395.828688 290.978524 
L 396.075403 290.754299 
L 396.321088 292.876083 
L 396.565751 286.875238 
L 396.809401 289.271622 
L 397.052046 284.356254 
L 397.534355 292.607844 
L 397.774035 291.784882 
L 398.012743 287.932426 
L 398.250486 290.697221 
L 398.487273 289.887254 
L 398.487273 289.887254 
" clip-path="url(#p9171b06a04)" style="fill: none; stroke: #1f77b4; stroke-width: 1.5; stroke-linecap: square"/>
   </g>
   <g id="patch_3">
    <path d="M 57.6 307.584 
L 57.6 41.472 
" style="fill: none; stroke: #000000; stroke-width: 0.8; stroke-linejoin: miter; stroke-linecap: square"/>
   </g>
   <g id="patch_4">
    <path d="M 414.72 307.584 
L 414.72 41.472 
" style="fill: none; stroke: #000000; stroke-width: 0.8; stroke-linejoin: miter; stroke-linecap: square"/>
   </g>
   <g id="patch_5">
    <path d="M 57.6 307.584 
L 414.72 307.584 
" style="fill: none; stroke: #000000; stroke-width: 0.8; stroke-linejoin: miter; stroke-linecap: square"/>
   </g>
   <g id="patch_6">
    <path d="M 57.6 41.472 
L 414.72 41.472 
" style="fill: none; stroke: #000000; stroke-width: 0.8; stroke-linejoin: miter; stroke-linecap: square"/>
   </g>
  </g>
 </g>
 <defs>
  <clipPath id="p9171b06a04">
   <rect x="57.6" y="41.472" width="357.12" height="266.112"/>
  </clipPath>
 </defs>
</svg>
