<?xml version="1.0" encoding="utf-8" standalone="no"?>
<!DOCTYPE svg PUBLIC "-//W3C//DTD SVG 1.1//EN"
  "http://www.w3.org/Graphics/SVG/1.1/DTD/svg11.dtd">
<svg xmlns:xlink="http://www.w3.org/1999/xlink" width="360pt" height="360pt" viewBox="0 0 360 360" xmlns="http://www.w3.org/2000/svg" version="1.1">
 <metadata>
  <rdf:RDF xmlns:dc="http://purl.org/dc/elements/1.1/" xmlns:cc="http://creativecommons.org/ns#" xmlns:rdf="http://www.w3.org/1999/02/22-rdf-syntax-ns#">
   <cc:Work>
    <dc:type rdf:resource="http://purl.org/dc/dcmitype/StillImage"/>
    <dc:date>2022-12-22T09:35:03.416607</dc:date>
    <dc:format>image/svg+xml</dc:format>
    <dc:creator>
     <cc:Agent>
      <dc:title>Matplotlib v3.5.3, https://matplotlib.org/</dc:title>
     </cc:Agent>
    </dc:creator>
   </cc:Work>
  </rdf:RDF>
 </metadata>
 <defs>
  <style type="text/css">*{stroke-linejoin: round; stroke-linecap: butt}</style>
 </defs>
 <g id="figure_1">
  <g id="patch_1">
   <path d="M 0 360 
L 360 360 
L 360 0 
L 0 0 
z
" style="fill: #ffffff"/>
  </g>
  <g id="axes_1">
   <g id="patch_2">
    <path d="M 45 320.4 
L 324 320.4 
L 324 43.2 
L 45 43.2 
z
" style="fill: #ffffff"/>
   </g>
   <g id="matplotlib.axis_1">
    <g id="xtick_1">
     <g id="line2d_1">
      <defs>
       <path id="mfc73d568fe" d="M 0 0 
L 0 3.5 
" style="stroke: #000000; stroke-width: 0.8"/>
      </defs>
      <g>
       <use xlink:href="#mfc73d568fe" x="57.681818" y="320.4" style="stroke: #000000; stroke-width: 0.8"/>
      </g>
     </g>
     <g id="text_1">
      <!-- −0.5 -->
      <g transform="translate(45.540412 334.998438)scale(0.1 -0.1)">
       <defs>
        <path id="DejaVuSans-2212" d="M 678 2272 
L 4684 2272 
L 4684 1741 
L 678 1741 
L 678 2272 
z
" transform="scale(0.015625)"/>
        <path id="DejaVuSans-30" d="M 2034 4250 
Q 1547 4250 1301 3770 
Q 1056 3291 1056 2328 
Q 1056 1369 1301 889 
Q 1547 409 2034 409 
Q 2525 409 2770 889 
Q 3016 1369 3016 2328 
Q 3016 3291 2770 3770 
Q 2525 4250 2034 4250 
z
M 2034 4750 
Q 2819 4750 3233 4129 
Q 3647 3509 3647 2328 
Q 3647 1150 3233 529 
Q 2819 -91 2034 -91 
Q 1250 -91 836 529 
Q 422 1150 422 2328 
Q 422 3509 836 4129 
Q 1250 4750 2034 4750 
z
" transform="scale(0.015625)"/>
        <path id="DejaVuSans-2e" d="M 684 794 
L 1344 794 
L 1344 0 
L 684 0 
L 684 794 
z
" transform="scale(0.015625)"/>
        <path id="DejaVuSans-35" d="M 691 4666 
L 3169 4666 
L 3169 4134 
L 1269 4134 
L 1269 2991 
Q 1406 3038 1543 3061 
Q 1681 3084 1819 3084 
Q 2600 3084 3056 2656 
Q 3513 2228 3513 1497 
Q 3513 744 3044 326 
Q 2575 -91 1722 -91 
Q 1428 -91 1123 -41 
Q 819 9 494 109 
L 494 744 
Q 775 591 1075 516 
Q 1375 441 1709 441 
Q 2250 441 2565 725 
Q 2881 1009 2881 1497 
Q 2881 1984 2565 2268 
Q 2250 2553 1709 2553 
Q 1456 2553 1204 2497 
Q 953 2441 691 2322 
L 691 4666 
z
" transform="scale(0.015625)"/>
       </defs>
       <use xlink:href="#DejaVuSans-2212"/>
       <use xlink:href="#DejaVuSans-30" x="83.789062"/>
       <use xlink:href="#DejaVuSans-2e" x="147.412109"/>
       <use xlink:href="#DejaVuSans-35" x="179.199219"/>
      </g>
     </g>
    </g>
    <g id="xtick_2">
     <g id="line2d_2">
      <g>
       <use xlink:href="#mfc73d568fe" x="99.954545" y="320.4" style="stroke: #000000; stroke-width: 0.8"/>
      </g>
     </g>
     <g id="text_2">
      <!-- 0.0 -->
      <g transform="translate(92.002983 334.998438)scale(0.1 -0.1)">
       <use xlink:href="#DejaVuSans-30"/>
       <use xlink:href="#DejaVuSans-2e" x="63.623047"/>
       <use xlink:href="#DejaVuSans-30" x="95.410156"/>
      </g>
     </g>
    </g>
    <g id="xtick_3">
     <g id="line2d_3">
      <g>
       <use xlink:href="#mfc73d568fe" x="142.227273" y="320.4" style="stroke: #000000; stroke-width: 0.8"/>
      </g>
     </g>
     <g id="text_3">
      <!-- 0.5 -->
      <g transform="translate(134.27571 334.998438)scale(0.1 -0.1)">
       <use xlink:href="#DejaVuSans-30"/>
       <use xlink:href="#DejaVuSans-2e" x="63.623047"/>
       <use xlink:href="#DejaVuSans-35" x="95.410156"/>
      </g>
     </g>
    </g>
    <g id="xtick_4">
     <g id="line2d_4">
      <g>
       <use xlink:href="#mfc73d568fe" x="184.5" y="320.4" style="stroke: #000000; stroke-width: 0.8"/>
      </g>
     </g>
     <g id="text_4">
      <!-- 1.0 -->
      <g transform="translate(176.548438 334.998438)scale(0.1 -0.1)">
       <defs>
        <path id="DejaVuSans-31" d="M 794 531 
L 1825 531 
L 1825 4091 
L 703 3866 
L 703 4441 
L 1819 4666 
L 2450 4666 
L 2450 531 
L 3481 531 
L 3481 0 
L 794 0 
L 794 531 
z
" transform="scale(0.015625)"/>
       </defs>
       <use xlink:href="#DejaVuSans-31"/>
       <use xlink:href="#DejaVuSans-2e" x="63.623047"/>
       <use xlink:href="#DejaVuSans-30" x="95.410156"/>
      </g>
     </g>
    </g>
    <g id="xtick_5">
     <g id="line2d_5">
      <g>
       <use xlink:href="#mfc73d568fe" x="226.772727" y="320.4" style="stroke: #000000; stroke-width: 0.8"/>
      </g>
     </g>
     <g id="text_5">
      <!-- 1.5 -->
      <g transform="translate(218.821165 334.998438)scale(0.1 -0.1)">
       <use xlink:href="#DejaVuSans-31"/>
       <use xlink:href="#DejaVuSans-2e" x="63.623047"/>
       <use xlink:href="#DejaVuSans-35" x="95.410156"/>
      </g>
     </g>
    </g>
    <g id="xtick_6">
     <g id="line2d_6">
      <g>
       <use xlink:href="#mfc73d568fe" x="269.045455" y="320.4" style="stroke: #000000; stroke-width: 0.8"/>
      </g>
     </g>
     <g id="text_6">
      <!-- 2.0 -->
      <g transform="translate(261.093892 334.998438)scale(0.1 -0.1)">
       <defs>
        <path id="DejaVuSans-32" d="M 1228 531 
L 3431 531 
L 3431 0 
L 469 0 
L 469 531 
Q 828 903 1448 1529 
Q 2069 2156 2228 2338 
Q 2531 2678 2651 2914 
Q 2772 3150 2772 3378 
Q 2772 3750 2511 3984 
Q 2250 4219 1831 4219 
Q 1534 4219 1204 4116 
Q 875 4013 500 3803 
L 500 4441 
Q 881 4594 1212 4672 
Q 1544 4750 1819 4750 
Q 2544 4750 2975 4387 
Q 3406 4025 3406 3419 
Q 3406 3131 3298 2873 
Q 3191 2616 2906 2266 
Q 2828 2175 2409 1742 
Q 1991 1309 1228 531 
z
" transform="scale(0.015625)"/>
       </defs>
       <use xlink:href="#DejaVuSans-32"/>
       <use xlink:href="#DejaVuSans-2e" x="63.623047"/>
       <use xlink:href="#DejaVuSans-30" x="95.410156"/>
      </g>
     </g>
    </g>
    <g id="xtick_7">
     <g id="line2d_7">
      <g>
       <use xlink:href="#mfc73d568fe" x="311.318182" y="320.4" style="stroke: #000000; stroke-width: 0.8"/>
      </g>
     </g>
     <g id="text_7">
      <!-- 2.5 -->
      <g transform="translate(303.366619 334.998438)scale(0.1 -0.1)">
       <use xlink:href="#DejaVuSans-32"/>
       <use xlink:href="#DejaVuSans-2e" x="63.623047"/>
       <use xlink:href="#DejaVuSans-35" x="95.410156"/>
      </g>
     </g>
    </g>
   </g>
   <g id="matplotlib.axis_2">
    <g id="ytick_1">
     <g id="line2d_8">
      <defs>
       <path id="m0aecab027a" d="M 0 0 
L -3.5 0 
" style="stroke: #000000; stroke-width: 0.8"/>
      </defs>
      <g>
       <use xlink:href="#m0aecab027a" x="45" y="315.46556" style="stroke: #000000; stroke-width: 0.8"/>
      </g>
     </g>
     <g id="text_8">
      <!-- −0.04 -->
      <g transform="translate(7.354687 319.264779)scale(0.1 -0.1)">
       <defs>
        <path id="DejaVuSans-34" d="M 2419 4116 
L 825 1625 
L 2419 1625 
L 2419 4116 
z
M 2253 4666 
L 3047 4666 
L 3047 1625 
L 3713 1625 
L 3713 1100 
L 3047 1100 
L 3047 0 
L 2419 0 
L 2419 1100 
L 313 1100 
L 313 1709 
L 2253 4666 
z
" transform="scale(0.015625)"/>
       </defs>
       <use xlink:href="#DejaVuSans-2212"/>
       <use xlink:href="#DejaVuSans-30" x="83.789062"/>
       <use xlink:href="#DejaVuSans-2e" x="147.412109"/>
       <use xlink:href="#DejaVuSans-30" x="179.199219"/>
       <use xlink:href="#DejaVuSans-34" x="242.822266"/>
      </g>
     </g>
    </g>
    <g id="ytick_2">
     <g id="line2d_9">
      <g>
       <use xlink:href="#m0aecab027a" x="45" y="279.926306" style="stroke: #000000; stroke-width: 0.8"/>
      </g>
     </g>
     <g id="text_9">
      <!-- −0.03 -->
      <g transform="translate(7.354687 283.725524)scale(0.1 -0.1)">
       <defs>
        <path id="DejaVuSans-33" d="M 2597 2516 
Q 3050 2419 3304 2112 
Q 3559 1806 3559 1356 
Q 3559 666 3084 287 
Q 2609 -91 1734 -91 
Q 1441 -91 1130 -33 
Q 819 25 488 141 
L 488 750 
Q 750 597 1062 519 
Q 1375 441 1716 441 
Q 2309 441 2620 675 
Q 2931 909 2931 1356 
Q 2931 1769 2642 2001 
Q 2353 2234 1838 2234 
L 1294 2234 
L 1294 2753 
L 1863 2753 
Q 2328 2753 2575 2939 
Q 2822 3125 2822 3475 
Q 2822 3834 2567 4026 
Q 2313 4219 1838 4219 
Q 1578 4219 1281 4162 
Q 984 4106 628 3988 
L 628 4550 
Q 988 4650 1302 4700 
Q 1616 4750 1894 4750 
Q 2613 4750 3031 4423 
Q 3450 4097 3450 3541 
Q 3450 3153 3228 2886 
Q 3006 2619 2597 2516 
z
" transform="scale(0.015625)"/>
       </defs>
       <use xlink:href="#DejaVuSans-2212"/>
       <use xlink:href="#DejaVuSans-30" x="83.789062"/>
       <use xlink:href="#DejaVuSans-2e" x="147.412109"/>
       <use xlink:href="#DejaVuSans-30" x="179.199219"/>
       <use xlink:href="#DejaVuSans-33" x="242.822266"/>
      </g>
     </g>
    </g>
    <g id="ytick_3">
     <g id="line2d_10">
      <g>
       <use xlink:href="#m0aecab027a" x="45" y="244.387051" style="stroke: #000000; stroke-width: 0.8"/>
      </g>
     </g>
     <g id="text_10">
      <!-- −0.02 -->
      <g transform="translate(7.354687 248.18627)scale(0.1 -0.1)">
       <use xlink:href="#DejaVuSans-2212"/>
       <use xlink:href="#DejaVuSans-30" x="83.789062"/>
       <use xlink:href="#DejaVuSans-2e" x="147.412109"/>
       <use xlink:href="#DejaVuSans-30" x="179.199219"/>
       <use xlink:href="#DejaVuSans-32" x="242.822266"/>
      </g>
     </g>
    </g>
    <g id="ytick_4">
     <g id="line2d_11">
      <g>
       <use xlink:href="#m0aecab027a" x="45" y="208.847797" style="stroke: #000000; stroke-width: 0.8"/>
      </g>
     </g>
     <g id="text_11">
      <!-- −0.01 -->
      <g transform="translate(7.354687 212.647016)scale(0.1 -0.1)">
       <use xlink:href="#DejaVuSans-2212"/>
       <use xlink:href="#DejaVuSans-30" x="83.789062"/>
       <use xlink:href="#DejaVuSans-2e" x="147.412109"/>
       <use xlink:href="#DejaVuSans-30" x="179.199219"/>
       <use xlink:href="#DejaVuSans-31" x="242.822266"/>
      </g>
     </g>
    </g>
    <g id="ytick_5">
     <g id="line2d_12">
      <g>
       <use xlink:href="#m0aecab027a" x="45" y="173.308543" style="stroke: #000000; stroke-width: 0.8"/>
      </g>
     </g>
     <g id="text_12">
      <!-- 0.00 -->
      <g transform="translate(15.734375 177.107762)scale(0.1 -0.1)">
       <use xlink:href="#DejaVuSans-30"/>
       <use xlink:href="#DejaVuSans-2e" x="63.623047"/>
       <use xlink:href="#DejaVuSans-30" x="95.410156"/>
       <use xlink:href="#DejaVuSans-30" x="159.033203"/>
      </g>
     </g>
    </g>
    <g id="ytick_6">
     <g id="line2d_13">
      <g>
       <use xlink:href="#m0aecab027a" x="45" y="137.769289" style="stroke: #000000; stroke-width: 0.8"/>
      </g>
     </g>
     <g id="text_13">
      <!-- 0.01 -->
      <g transform="translate(15.734375 141.568507)scale(0.1 -0.1)">
       <use xlink:href="#DejaVuSans-30"/>
       <use xlink:href="#DejaVuSans-2e" x="63.623047"/>
       <use xlink:href="#DejaVuSans-30" x="95.410156"/>
       <use xlink:href="#DejaVuSans-31" x="159.033203"/>
      </g>
     </g>
    </g>
    <g id="ytick_7">
     <g id="line2d_14">
      <g>
       <use xlink:href="#m0aecab027a" x="45" y="102.230034" style="stroke: #000000; stroke-width: 0.8"/>
      </g>
     </g>
     <g id="text_14">
      <!-- 0.02 -->
      <g transform="translate(15.734375 106.029253)scale(0.1 -0.1)">
       <use xlink:href="#DejaVuSans-30"/>
       <use xlink:href="#DejaVuSans-2e" x="63.623047"/>
       <use xlink:href="#DejaVuSans-30" x="95.410156"/>
       <use xlink:href="#DejaVuSans-32" x="159.033203"/>
      </g>
     </g>
    </g>
    <g id="ytick_8">
     <g id="line2d_15">
      <g>
       <use xlink:href="#m0aecab027a" x="45" y="66.69078" style="stroke: #000000; stroke-width: 0.8"/>
      </g>
     </g>
     <g id="text_15">
      <!-- 0.03 -->
      <g transform="translate(15.734375 70.489999)scale(0.1 -0.1)">
       <use xlink:href="#DejaVuSans-30"/>
       <use xlink:href="#DejaVuSans-2e" x="63.623047"/>
       <use xlink:href="#DejaVuSans-30" x="95.410156"/>
       <use xlink:href="#DejaVuSans-33" x="159.033203"/>
      </g>
     </g>
    </g>
   </g>
   <g id="line2d_16">
    <path d="M 57.681818 155.836692 
L 63.521293 156.799938 
L 68.852988 157.899201 
L 73.676905 159.107333 
L 79.262491 160.812293 
L 83.832515 162.493602 
L 87.640869 164.118331 
L 91.449223 165.971774 
L 95.257577 168.079423 
L 99.827601 170.985621 
L 103.382068 173.554107 
L 106.936528 176.413437 
L 110.237101 179.34837 
L 113.537676 182.56296 
L 117.092137 186.351125 
L 120.646604 190.478535 
L 124.201065 194.943625 
L 127.755527 199.733916 
L 131.817773 205.575078 
L 135.88002 211.756534 
L 142.227273 221.903086 
L 154.921788 242.366036 
L 158.98403 248.363126 
L 162.030711 252.495388 
L 164.823502 255.93454 
L 167.362413 258.712866 
L 169.647424 260.903108 
L 171.932435 262.759929 
L 173.963556 264.11395 
L 175.740786 265.058205 
L 177.518017 265.766058 
L 179.295248 266.232593 
L 181.072489 266.452346 
L 182.595829 266.443025 
L 184.37306 266.196963 
L 185.896391 265.787114 
L 187.673621 265.079346 
L 189.450852 264.126448 
L 191.228093 262.934266 
L 193.259214 261.286055 
L 195.290334 259.348908 
L 197.575345 256.838293 
L 199.860356 254.004341 
L 202.399257 250.504986 
L 205.192048 246.275325 
L 208.49263 240.829926 
L 212.047091 234.522802 
L 216.617113 225.90825 
L 223.218266 212.890844 
L 233.11998 193.452349 
L 237.436112 185.529551 
L 240.990573 179.472386 
L 243.783374 175.089105 
L 246.576165 171.107116 
L 249.115066 167.878566 
L 251.146197 165.588763 
L 253.177318 163.582813 
L 255.208439 161.876561 
L 257.23956 160.480556 
L 259.01679 159.521218 
L 260.794021 158.813196 
L 262.571252 158.358608 
L 264.348483 158.155929 
L 266.125713 158.20626 
L 267.902944 158.503458 
L 269.680185 159.041719 
L 271.457405 159.811341 
L 273.488526 160.964631 
L 275.519647 162.388513 
L 277.804668 164.288802 
L 280.343569 166.734893 
L 283.13637 169.772584 
L 286.183052 173.424118 
L 290.245293 178.697425 
L 296.084776 186.717146 
L 304.970919 198.900936 
L 309.540941 204.79247 
L 311.318182 206.976845 
L 311.318182 206.976845 
" clip-path="url(#p06825aaef2)" style="fill: none; stroke: #1f77b4; stroke-width: 1.5; stroke-linecap: square"/>
   </g>
   <g id="line2d_17">
    <path d="M 57.681818 101.079577 
L 72.407454 100.682035 
L 80.278052 100.241258 
L 90.687552 99.245835 
L 95.765357 98.525929 
L 101.097051 97.553616 
L 105.920969 96.450605 
L 109.72932 95.409024 
L 113.537676 94.202861 
L 118.361589 92.420138 
L 122.931615 90.455686 
L 127.247747 88.345961 
L 131.563883 85.994198 
L 136.3878 83.090309 
L 141.973383 79.404141 
L 148.574535 74.724849 
L 160.25348 66.314036 
L 165.077392 63.156109 
L 168.885754 60.950319 
L 172.186325 59.301939 
L 175.486896 57.945292 
L 178.279687 57.043741 
L 181.072489 56.383466 
L 183.86528 55.974125 
L 186.404171 55.81254 
L 188.943072 55.84601 
L 191.481983 56.058264 
L 194.528664 56.532425 
L 197.575345 57.205029 
L 201.891477 58.418563 
L 209.00041 60.74336 
L 215.093772 62.679491 
L 219.663794 63.903278 
L 223.726046 64.766529 
L 228.296068 65.462943 
L 233.62776 65.969896 
L 245.560605 66.908813 
L 248.861176 67.454912 
L 251.400087 68.052443 
L 253.938988 68.842232 
L 256.73178 69.971288 
L 259.270681 71.258497 
L 261.809582 72.811384 
L 264.348483 74.641769 
L 266.887384 76.748719 
L 269.426285 79.131388 
L 272.472966 82.33596 
L 275.519647 85.881281 
L 279.074109 90.39022 
L 283.13637 95.922342 
L 289.483633 105.048295 
L 298.877557 118.601536 
L 304.209259 125.840673 
L 308.779281 131.609303 
L 311.318182 134.612064 
L 311.318182 134.612064 
" clip-path="url(#p06825aaef2)" style="fill: none; stroke: #ff7f0e; stroke-width: 1.5; stroke-linecap: square"/>
   </g>
   <g id="line2d_18">
    <path d="M 57.681818 176.20864 
L 65.552416 176.907415 
L 74.184685 177.908632 
L 78.500819 178.514096 
L 86.879198 179.958928 
L 92.464782 181.152032 
L 98.050371 182.569866 
L 104.143738 184.427164 
L 108.713759 186.066679 
L 113.029896 187.844466 
L 117.599918 190.002933 
L 121.408274 192.035828 
L 125.470516 194.460397 
L 130.294433 197.695663 
L 135.11835 201.300371 
L 139.434482 204.789303 
L 146.289514 210.632096 
L 152.382887 215.773285 
L 156.699019 219.10739 
L 159.7457 221.184939 
L 162.284601 222.683851 
L 164.823502 223.929923 
L 167.362413 224.884388 
L 169.647424 225.46599 
L 171.678545 225.747301 
L 173.709666 225.795344 
L 175.740786 225.59885 
L 177.518017 225.227215 
L 179.549148 224.561771 
L 181.326379 223.776557 
L 183.3575 222.647162 
L 185.38862 221.278229 
L 187.673621 219.464621 
L 190.212532 217.12703 
L 193.005323 214.193263 
L 195.798115 210.930057 
L 199.098686 206.709631 
L 203.160928 201.091125 
L 207.73096 194.386606 
L 219.156014 177.038115 
L 225.249387 168.009223 
L 230.581079 160.450688 
L 235.404991 153.952323 
L 240.736683 147.192897 
L 245.052825 142.066261 
L 250.130627 136.458939 
L 254.700659 131.822564 
L 258.50901 128.267159 
L 262.571252 124.794919 
L 266.379603 121.845222 
L 269.680185 119.526864 
L 273.488526 117.127588 
L 277.042988 115.143203 
L 280.597449 113.395305 
L 284.405831 111.768743 
L 288.214172 110.378712 
L 292.276414 109.127302 
L 297.100336 107.919794 
L 301.162578 107.097363 
L 306.49426 106.250062 
L 311.318182 105.662995 
L 311.318182 105.662995 
" clip-path="url(#p06825aaef2)" style="fill: none; stroke: #2ca02c; stroke-width: 1.5; stroke-linecap: square"/>
   </g>
   <g id="line2d_19">
    <path d="M 57.681818 130.264837 
L 65.806307 130.270567 
L 76.977476 130.426993 
L 85.609746 130.713917 
L 97.796481 131.378482 
L 109.983211 132.022013 
L 115.822688 132.08643 
L 120.138825 131.938107 
L 124.708846 131.535502 
L 128.771092 130.939792 
L 132.579444 130.16534 
L 136.3878 129.186101 
L 140.196152 128.023172 
L 145.527844 126.157285 
L 159.49181 121.10534 
L 163.807942 119.933918 
L 166.854633 119.331557 
L 169.901314 118.961362 
L 172.694105 118.85282 
L 175.486896 118.990594 
L 178.025797 119.337064 
L 180.564708 119.903372 
L 183.3575 120.788061 
L 186.404171 122.065483 
L 189.196962 123.516098 
L 191.989763 125.222435 
L 194.782554 127.167632 
L 197.829235 129.546488 
L 201.129807 132.393235 
L 204.684268 135.728633 
L 208.74652 139.827128 
L 214.332102 145.832861 
L 222.202705 154.681104 
L 231.088859 164.5835 
L 235.912771 169.618965 
L 239.721123 173.290071 
L 243.275594 176.388897 
L 246.322275 178.742248 
L 249.368956 180.76828 
L 251.907868 182.183816 
L 254.192879 183.226106 
L 256.73178 184.114862 
L 259.01679 184.663376 
L 261.301801 184.96909 
L 263.332922 185.036282 
L 265.617933 184.884866 
L 267.902944 184.498868 
L 270.187965 183.883501 
L 272.472966 183.059226 
L 275.011867 181.912249 
L 277.804668 180.400203 
L 280.851349 178.492543 
L 284.405831 175.994892 
L 288.721953 172.681271 
L 295.576995 167.115817 
L 303.193699 160.995251 
L 308.271501 157.179295 
L 311.318182 155.03538 
L 311.318182 155.03538 
" clip-path="url(#p06825aaef2)" style="fill: none; stroke: #d62728; stroke-width: 1.5; stroke-linecap: square"/>
   </g>
   <g id="line2d_20">
    <path d="M 57.681818 67.009401 
L 86.879198 66.996627 
L 95.257577 67.289748 
L 102.874287 67.820627 
L 109.983211 68.613212 
L 117.346028 69.795416 
L 122.931615 70.953726 
L 128.517197 72.346978 
L 133.595004 73.812823 
L 138.926701 75.550183 
L 144.512284 77.582145 
L 150.859546 80.132372 
L 158.98403 83.716628 
L 170.662984 89.28044 
L 200.368136 103.816967 
L 205.192048 106.437564 
L 209.76208 109.162551 
L 213.570432 111.6763 
L 217.378783 114.471446 
L 220.679355 117.154829 
L 224.233826 120.352622 
L 227.280507 123.366969 
L 230.581079 126.928941 
L 234.13554 131.121913 
L 237.690002 135.668981 
L 241.752243 141.270372 
L 246.068385 147.620795 
L 251.146197 155.457336 
L 263.079032 174.014659 
L 267.141274 179.890836 
L 270.695745 184.674264 
L 273.996307 188.760177 
L 277.296888 192.461152 
L 280.089669 195.276845 
L 282.88249 197.796737 
L 285.675271 200.019898 
L 288.214172 201.792029 
L 291.006974 203.476166 
L 293.799755 204.901298 
L 296.846436 206.178541 
L 299.639237 207.119534 
L 302.685918 207.92557 
L 305.98648 208.565743 
L 309.540941 209.028126 
L 311.318182 209.1838 
L 311.318182 209.1838 
" clip-path="url(#p06825aaef2)" style="fill: none; stroke: #9467bd; stroke-width: 1.5; stroke-linecap: square"/>
   </g>
   <g id="line2d_21">
    <path d="M 57.681818 239.661395 
L 66.060197 239.253982 
L 76.215806 238.549476 
L 89.164211 237.244971 
L 113.537676 234.412491 
L 119.377153 234.058543 
L 124.454955 233.95928 
L 129.024982 234.048333 
L 134.356675 234.364935 
L 139.434482 234.866263 
L 146.035624 235.7937 
L 151.621217 236.818578 
L 157.206799 238.084815 
L 162.284601 239.475228 
L 166.346853 240.766038 
L 170.409094 242.235845 
L 175.486896 244.33661 
L 180.310818 246.619677 
L 184.88084 249.038865 
L 189.704752 251.875614 
L 194.274774 254.828277 
L 198.590906 257.872111 
L 202.907037 261.165905 
L 207.73096 265.160011 
L 212.300981 269.255117 
L 216.617113 273.38454 
L 221.694915 278.531766 
L 227.788288 284.977683 
L 235.912771 293.527075 
L 239.975013 297.48517 
L 243.021704 300.189652 
L 246.068385 302.580709 
L 248.607286 304.288063 
L 250.892307 305.567095 
L 253.177318 306.575154 
L 255.208439 307.227846 
L 256.98567 307.601006 
L 259.01679 307.79195 
L 261.047911 307.726707 
L 263.079032 307.399217 
L 265.110153 306.815836 
L 267.141274 305.976563 
L 269.172405 304.893771 
L 271.457405 303.396807 
L 273.996307 301.409499 
L 276.535208 299.11779 
L 279.328009 296.291548 
L 282.37471 292.908573 
L 286.436952 288.037955 
L 292.784194 279.994752 
L 301.162578 269.451431 
L 305.7326 264.061384 
L 310.048721 259.328731 
L 311.318182 258.010404 
L 311.318182 258.010404 
" clip-path="url(#p06825aaef2)" style="fill: none; stroke: #8c564b; stroke-width: 1.5; stroke-linecap: square"/>
   </g>
   <g id="line2d_22">
    <path d="M 57.681818 174.013864 
L 70.376331 173.567961 
L 81.293614 172.950454 
L 89.164211 172.253903 
L 95.003687 171.491927 
L 99.065931 170.780759 
L 103.128177 169.862856 
L 106.936528 168.764345 
L 109.983211 167.682294 
L 113.791567 166.024805 
L 116.584357 164.563853 
L 119.631044 162.706735 
L 122.423835 160.739402 
L 124.962736 158.715108 
L 127.501637 156.460491 
L 130.294433 153.702183 
L 133.087224 150.657226 
L 136.3878 146.686051 
L 139.688372 142.337362 
L 143.496723 136.89137 
L 147.558975 130.662029 
L 152.382887 122.868469 
L 164.061832 103.853867 
L 167.870193 98.166601 
L 171.424655 93.323267 
L 174.217446 89.90229 
L 176.756347 87.12604 
L 179.041358 84.923257 
L 181.326379 83.011826 
L 183.3575 81.56638 
L 185.38862 80.355896 
L 187.673621 79.277763 
L 189.958642 78.486619 
L 192.243653 77.971532 
L 194.528664 77.711235 
L 196.813675 77.683358 
L 199.352576 77.887986 
L 202.399257 78.411377 
L 205.445939 79.159392 
L 209.50819 80.37335 
L 217.886564 82.965901 
L 222.202705 84.012767 
L 225.249387 84.546326 
L 228.803848 84.9183 
L 231.850529 85.020572 
L 234.897211 84.936433 
L 238.705562 84.610722 
L 244.037264 83.902531 
L 250.892307 83.041736 
L 253.938988 82.862867 
L 256.98567 82.905656 
L 259.524571 83.155489 
L 261.809582 83.56983 
L 264.348483 84.267345 
L 266.887384 85.226174 
L 269.426285 86.457333 
L 271.711306 87.79589 
L 274.250207 89.537941 
L 276.789108 91.531393 
L 279.835789 94.229266 
L 283.13637 97.482261 
L 286.944732 101.579105 
L 291.260854 106.530218 
L 308.779281 127.014277 
L 311.318182 129.735938 
L 311.318182 129.735938 
" clip-path="url(#p06825aaef2)" style="fill: none; stroke: #e377c2; stroke-width: 1.5; stroke-linecap: square"/>
   </g>
   <g id="line2d_23">
    <path d="M 57.681818 272.785854 
L 64.029076 271.851767 
L 68.345208 271.011446 
L 72.661344 269.959634 
L 76.723586 268.745485 
L 81.293614 267.071918 
L 84.848074 265.515653 
L 87.894759 263.989309 
L 91.195333 262.121229 
L 95.003687 259.673771 
L 98.30426 257.293379 
L 102.112612 254.260984 
L 105.667078 251.164351 
L 110.237101 246.857361 
L 115.568797 241.46778 
L 123.439395 233.151231 
L 131.309993 224.884039 
L 136.895581 219.265882 
L 143.496723 212.989557 
L 148.828425 208.201723 
L 155.175678 202.785302 
L 162.030711 197.234751 
L 168.377973 192.368836 
L 173.455775 188.697052 
L 178.533578 185.262009 
L 183.61139 182.102727 
L 188.943072 179.116934 
L 193.766994 176.707998 
L 199.098686 174.35041 
L 204.938158 172.073571 
L 210.01597 170.277757 
L 220.425465 166.861864 
L 252.923428 156.483019 
L 260.540131 154.488889 
L 265.871823 153.272643 
L 272.980746 151.853125 
L 282.12081 150.256601 
L 305.7326 146.530959 
L 311.318182 145.703507 
L 311.318182 145.703507 
" clip-path="url(#p06825aaef2)" style="fill: none; stroke: #7f7f7f; stroke-width: 1.5; stroke-linecap: square"/>
   </g>
   <g id="line2d_24">
    <path d="M 57.681818 177.88782 
L 87.386979 177.211837 
L 96.780919 177.474284 
L 102.874287 177.952449 
L 107.698199 178.564703 
L 111.760442 179.274081 
L 116.076578 180.252335 
L 120.138825 181.413971 
L 123.947175 182.73556 
L 127.501637 184.191005 
L 131.056103 185.875713 
L 134.356675 187.653035 
L 137.911141 189.80412 
L 141.719493 192.389341 
L 145.273954 195.048534 
L 149.082316 198.144775 
L 153.144557 201.687682 
L 158.730139 206.853464 
L 170.409094 217.804167 
L 174.217446 221.110925 
L 177.771907 223.960723 
L 181.326379 226.532895 
L 184.88084 228.786178 
L 188.435292 230.708752 
L 191.735873 232.191819 
L 194.528664 233.232076 
L 197.575345 234.153793 
L 200.622027 234.882829 
L 204.430378 235.562889 
L 209.00041 236.124579 
L 216.363223 236.718806 
L 226.264947 237.47343 
L 244.798935 238.990899 
L 248.353396 238.947177 
L 251.653977 238.678153 
L 254.700659 238.185181 
L 257.49345 237.496096 
L 260.032351 236.656909 
L 262.825142 235.479047 
L 265.617933 234.03038 
L 268.156834 232.481773 
L 271.203525 230.332329 
L 274.250207 227.890771 
L 277.550768 224.950098 
L 281.10525 221.496711 
L 285.929172 216.456375 
L 293.799755 207.819686 
L 300.400897 200.65593 
L 305.224819 195.68787 
L 309.794841 191.290905 
L 311.318182 189.901085 
L 311.318182 189.901085 
" clip-path="url(#p06825aaef2)" style="fill: none; stroke: #bcbd22; stroke-width: 1.5; stroke-linecap: square"/>
   </g>
   <g id="line2d_25">
    <path d="M 57.681818 238.337349 
L 72.661344 238.954009 
L 82.055283 239.685788 
L 93.480343 240.971419 
L 108.20598 242.80587 
L 113.791567 243.271431 
L 118.615483 243.443226 
L 123.185505 243.343411 
L 127.247747 243.013231 
L 131.309993 242.444466 
L 135.37224 241.645611 
L 139.434482 240.639915 
L 144.512284 239.157525 
L 152.382887 236.616979 
L 159.99959 234.293093 
L 164.315722 233.206487 
L 169.139644 232.298624 
L 172.694105 231.869879 
L 176.248567 231.660591 
L 180.056928 231.689061 
L 183.86528 231.964567 
L 187.419731 232.427629 
L 192.243653 233.33223 
L 198.337016 234.817754 
L 207.73096 237.518677 
L 218.648234 240.653175 
L 224.995497 242.195386 
L 229.819409 243.112696 
L 233.62776 243.628715 
L 237.436112 243.917652 
L 241.244463 243.935276 
L 244.291154 243.727343 
L 247.337836 243.30131 
L 250.638417 242.57219 
L 253.685098 241.636153 
L 256.477889 240.555987 
L 259.270681 239.258272 
L 262.317362 237.599554 
L 265.871823 235.361184 
L 269.680185 232.635011 
L 273.742426 229.412519 
L 278.566328 225.277588 
L 287.452512 217.242647 
L 295.323095 210.26868 
L 299.893117 206.479446 
L 304.463139 202.960772 
L 308.779281 199.919226 
L 311.318182 198.263411 
L 311.318182 198.263411 
" clip-path="url(#p06825aaef2)" style="fill: none; stroke: #17becf; stroke-width: 1.5; stroke-linecap: square"/>
   </g>
   <g id="patch_3">
    <path d="M 45 320.4 
L 45 43.2 
" style="fill: none; stroke: #000000; stroke-width: 0.8; stroke-linejoin: miter; stroke-linecap: square"/>
   </g>
   <g id="patch_4">
    <path d="M 324 320.4 
L 324 43.2 
" style="fill: none; stroke: #000000; stroke-width: 0.8; stroke-linejoin: miter; stroke-linecap: square"/>
   </g>
   <g id="patch_5">
    <path d="M 45 320.4 
L 324 320.4 
" style="fill: none; stroke: #000000; stroke-width: 0.8; stroke-linejoin: miter; stroke-linecap: square"/>
   </g>
   <g id="patch_6">
    <path d="M 45 43.2 
L 324 43.2 
" style="fill: none; stroke: #000000; stroke-width: 0.8; stroke-linejoin: miter; stroke-linecap: square"/>
   </g>
   <g id="text_16">
    <!-- Deviation from average for single draw -->
    <g transform="translate(66.87 37.2)scale(0.12 -0.12)">
     <defs>
      <path id="DejaVuSans-44" d="M 1259 4147 
L 1259 519 
L 2022 519 
Q 2988 519 3436 956 
Q 3884 1394 3884 2338 
Q 3884 3275 3436 3711 
Q 2988 4147 2022 4147 
L 1259 4147 
z
M 628 4666 
L 1925 4666 
Q 3281 4666 3915 4102 
Q 4550 3538 4550 2338 
Q 4550 1131 3912 565 
Q 3275 0 1925 0 
L 628 0 
L 628 4666 
z
" transform="scale(0.015625)"/>
      <path id="DejaVuSans-65" d="M 3597 1894 
L 3597 1613 
L 953 1613 
Q 991 1019 1311 708 
Q 1631 397 2203 397 
Q 2534 397 2845 478 
Q 3156 559 3463 722 
L 3463 178 
Q 3153 47 2828 -22 
Q 2503 -91 2169 -91 
Q 1331 -91 842 396 
Q 353 884 353 1716 
Q 353 2575 817 3079 
Q 1281 3584 2069 3584 
Q 2775 3584 3186 3129 
Q 3597 2675 3597 1894 
z
M 3022 2063 
Q 3016 2534 2758 2815 
Q 2500 3097 2075 3097 
Q 1594 3097 1305 2825 
Q 1016 2553 972 2059 
L 3022 2063 
z
" transform="scale(0.015625)"/>
      <path id="DejaVuSans-76" d="M 191 3500 
L 800 3500 
L 1894 563 
L 2988 3500 
L 3597 3500 
L 2284 0 
L 1503 0 
L 191 3500 
z
" transform="scale(0.015625)"/>
      <path id="DejaVuSans-69" d="M 603 3500 
L 1178 3500 
L 1178 0 
L 603 0 
L 603 3500 
z
M 603 4863 
L 1178 4863 
L 1178 4134 
L 603 4134 
L 603 4863 
z
" transform="scale(0.015625)"/>
      <path id="DejaVuSans-61" d="M 2194 1759 
Q 1497 1759 1228 1600 
Q 959 1441 959 1056 
Q 959 750 1161 570 
Q 1363 391 1709 391 
Q 2188 391 2477 730 
Q 2766 1069 2766 1631 
L 2766 1759 
L 2194 1759 
z
M 3341 1997 
L 3341 0 
L 2766 0 
L 2766 531 
Q 2569 213 2275 61 
Q 1981 -91 1556 -91 
Q 1019 -91 701 211 
Q 384 513 384 1019 
Q 384 1609 779 1909 
Q 1175 2209 1959 2209 
L 2766 2209 
L 2766 2266 
Q 2766 2663 2505 2880 
Q 2244 3097 1772 3097 
Q 1472 3097 1187 3025 
Q 903 2953 641 2809 
L 641 3341 
Q 956 3463 1253 3523 
Q 1550 3584 1831 3584 
Q 2591 3584 2966 3190 
Q 3341 2797 3341 1997 
z
" transform="scale(0.015625)"/>
      <path id="DejaVuSans-74" d="M 1172 4494 
L 1172 3500 
L 2356 3500 
L 2356 3053 
L 1172 3053 
L 1172 1153 
Q 1172 725 1289 603 
Q 1406 481 1766 481 
L 2356 481 
L 2356 0 
L 1766 0 
Q 1100 0 847 248 
Q 594 497 594 1153 
L 594 3053 
L 172 3053 
L 172 3500 
L 594 3500 
L 594 4494 
L 1172 4494 
z
" transform="scale(0.015625)"/>
      <path id="DejaVuSans-6f" d="M 1959 3097 
Q 1497 3097 1228 2736 
Q 959 2375 959 1747 
Q 959 1119 1226 758 
Q 1494 397 1959 397 
Q 2419 397 2687 759 
Q 2956 1122 2956 1747 
Q 2956 2369 2687 2733 
Q 2419 3097 1959 3097 
z
M 1959 3584 
Q 2709 3584 3137 3096 
Q 3566 2609 3566 1747 
Q 3566 888 3137 398 
Q 2709 -91 1959 -91 
Q 1206 -91 779 398 
Q 353 888 353 1747 
Q 353 2609 779 3096 
Q 1206 3584 1959 3584 
z
" transform="scale(0.015625)"/>
      <path id="DejaVuSans-6e" d="M 3513 2113 
L 3513 0 
L 2938 0 
L 2938 2094 
Q 2938 2591 2744 2837 
Q 2550 3084 2163 3084 
Q 1697 3084 1428 2787 
Q 1159 2491 1159 1978 
L 1159 0 
L 581 0 
L 581 3500 
L 1159 3500 
L 1159 2956 
Q 1366 3272 1645 3428 
Q 1925 3584 2291 3584 
Q 2894 3584 3203 3211 
Q 3513 2838 3513 2113 
z
" transform="scale(0.015625)"/>
      <path id="DejaVuSans-20" transform="scale(0.015625)"/>
      <path id="DejaVuSans-66" d="M 2375 4863 
L 2375 4384 
L 1825 4384 
Q 1516 4384 1395 4259 
Q 1275 4134 1275 3809 
L 1275 3500 
L 2222 3500 
L 2222 3053 
L 1275 3053 
L 1275 0 
L 697 0 
L 697 3053 
L 147 3053 
L 147 3500 
L 697 3500 
L 697 3744 
Q 697 4328 969 4595 
Q 1241 4863 1831 4863 
L 2375 4863 
z
" transform="scale(0.015625)"/>
      <path id="DejaVuSans-72" d="M 2631 2963 
Q 2534 3019 2420 3045 
Q 2306 3072 2169 3072 
Q 1681 3072 1420 2755 
Q 1159 2438 1159 1844 
L 1159 0 
L 581 0 
L 581 3500 
L 1159 3500 
L 1159 2956 
Q 1341 3275 1631 3429 
Q 1922 3584 2338 3584 
Q 2397 3584 2469 3576 
Q 2541 3569 2628 3553 
L 2631 2963 
z
" transform="scale(0.015625)"/>
      <path id="DejaVuSans-6d" d="M 3328 2828 
Q 3544 3216 3844 3400 
Q 4144 3584 4550 3584 
Q 5097 3584 5394 3201 
Q 5691 2819 5691 2113 
L 5691 0 
L 5113 0 
L 5113 2094 
Q 5113 2597 4934 2840 
Q 4756 3084 4391 3084 
Q 3944 3084 3684 2787 
Q 3425 2491 3425 1978 
L 3425 0 
L 2847 0 
L 2847 2094 
Q 2847 2600 2669 2842 
Q 2491 3084 2119 3084 
Q 1678 3084 1418 2786 
Q 1159 2488 1159 1978 
L 1159 0 
L 581 0 
L 581 3500 
L 1159 3500 
L 1159 2956 
Q 1356 3278 1631 3431 
Q 1906 3584 2284 3584 
Q 2666 3584 2933 3390 
Q 3200 3197 3328 2828 
z
" transform="scale(0.015625)"/>
      <path id="DejaVuSans-67" d="M 2906 1791 
Q 2906 2416 2648 2759 
Q 2391 3103 1925 3103 
Q 1463 3103 1205 2759 
Q 947 2416 947 1791 
Q 947 1169 1205 825 
Q 1463 481 1925 481 
Q 2391 481 2648 825 
Q 2906 1169 2906 1791 
z
M 3481 434 
Q 3481 -459 3084 -895 
Q 2688 -1331 1869 -1331 
Q 1566 -1331 1297 -1286 
Q 1028 -1241 775 -1147 
L 775 -588 
Q 1028 -725 1275 -790 
Q 1522 -856 1778 -856 
Q 2344 -856 2625 -561 
Q 2906 -266 2906 331 
L 2906 616 
Q 2728 306 2450 153 
Q 2172 0 1784 0 
Q 1141 0 747 490 
Q 353 981 353 1791 
Q 353 2603 747 3093 
Q 1141 3584 1784 3584 
Q 2172 3584 2450 3431 
Q 2728 3278 2906 2969 
L 2906 3500 
L 3481 3500 
L 3481 434 
z
" transform="scale(0.015625)"/>
      <path id="DejaVuSans-73" d="M 2834 3397 
L 2834 2853 
Q 2591 2978 2328 3040 
Q 2066 3103 1784 3103 
Q 1356 3103 1142 2972 
Q 928 2841 928 2578 
Q 928 2378 1081 2264 
Q 1234 2150 1697 2047 
L 1894 2003 
Q 2506 1872 2764 1633 
Q 3022 1394 3022 966 
Q 3022 478 2636 193 
Q 2250 -91 1575 -91 
Q 1294 -91 989 -36 
Q 684 19 347 128 
L 347 722 
Q 666 556 975 473 
Q 1284 391 1588 391 
Q 1994 391 2212 530 
Q 2431 669 2431 922 
Q 2431 1156 2273 1281 
Q 2116 1406 1581 1522 
L 1381 1569 
Q 847 1681 609 1914 
Q 372 2147 372 2553 
Q 372 3047 722 3315 
Q 1072 3584 1716 3584 
Q 2034 3584 2315 3537 
Q 2597 3491 2834 3397 
z
" transform="scale(0.015625)"/>
      <path id="DejaVuSans-6c" d="M 603 4863 
L 1178 4863 
L 1178 0 
L 603 0 
L 603 4863 
z
" transform="scale(0.015625)"/>
      <path id="DejaVuSans-64" d="M 2906 2969 
L 2906 4863 
L 3481 4863 
L 3481 0 
L 2906 0 
L 2906 525 
Q 2725 213 2448 61 
Q 2172 -91 1784 -91 
Q 1150 -91 751 415 
Q 353 922 353 1747 
Q 353 2572 751 3078 
Q 1150 3584 1784 3584 
Q 2172 3584 2448 3432 
Q 2725 3281 2906 2969 
z
M 947 1747 
Q 947 1113 1208 752 
Q 1469 391 1925 391 
Q 2381 391 2643 752 
Q 2906 1113 2906 1747 
Q 2906 2381 2643 2742 
Q 2381 3103 1925 3103 
Q 1469 3103 1208 2742 
Q 947 2381 947 1747 
z
" transform="scale(0.015625)"/>
      <path id="DejaVuSans-77" d="M 269 3500 
L 844 3500 
L 1563 769 
L 2278 3500 
L 2956 3500 
L 3675 769 
L 4391 3500 
L 4966 3500 
L 4050 0 
L 3372 0 
L 2619 2869 
L 1863 0 
L 1184 0 
L 269 3500 
z
" transform="scale(0.015625)"/>
     </defs>
     <use xlink:href="#DejaVuSans-44"/>
     <use xlink:href="#DejaVuSans-65" x="77.001953"/>
     <use xlink:href="#DejaVuSans-76" x="138.525391"/>
     <use xlink:href="#DejaVuSans-69" x="197.705078"/>
     <use xlink:href="#DejaVuSans-61" x="225.488281"/>
     <use xlink:href="#DejaVuSans-74" x="286.767578"/>
     <use xlink:href="#DejaVuSans-69" x="325.976562"/>
     <use xlink:href="#DejaVuSans-6f" x="353.759766"/>
     <use xlink:href="#DejaVuSans-6e" x="414.941406"/>
     <use xlink:href="#DejaVuSans-20" x="478.320312"/>
     <use xlink:href="#DejaVuSans-66" x="510.107422"/>
     <use xlink:href="#DejaVuSans-72" x="545.3125"/>
     <use xlink:href="#DejaVuSans-6f" x="584.175781"/>
     <use xlink:href="#DejaVuSans-6d" x="645.357422"/>
     <use xlink:href="#DejaVuSans-20" x="742.769531"/>
     <use xlink:href="#DejaVuSans-61" x="774.556641"/>
     <use xlink:href="#DejaVuSans-76" x="835.835938"/>
     <use xlink:href="#DejaVuSans-65" x="895.015625"/>
     <use xlink:href="#DejaVuSans-72" x="956.539062"/>
     <use xlink:href="#DejaVuSans-61" x="997.652344"/>
     <use xlink:href="#DejaVuSans-67" x="1058.931641"/>
     <use xlink:href="#DejaVuSans-65" x="1122.408203"/>
     <use xlink:href="#DejaVuSans-20" x="1183.931641"/>
     <use xlink:href="#DejaVuSans-66" x="1215.71875"/>
     <use xlink:href="#DejaVuSans-6f" x="1250.923828"/>
     <use xlink:href="#DejaVuSans-72" x="1312.105469"/>
     <use xlink:href="#DejaVuSans-20" x="1353.21875"/>
     <use xlink:href="#DejaVuSans-73" x="1385.005859"/>
     <use xlink:href="#DejaVuSans-69" x="1437.105469"/>
     <use xlink:href="#DejaVuSans-6e" x="1464.888672"/>
     <use xlink:href="#DejaVuSans-67" x="1528.267578"/>
     <use xlink:href="#DejaVuSans-6c" x="1591.744141"/>
     <use xlink:href="#DejaVuSans-65" x="1619.527344"/>
     <use xlink:href="#DejaVuSans-20" x="1681.050781"/>
     <use xlink:href="#DejaVuSans-64" x="1712.837891"/>
     <use xlink:href="#DejaVuSans-72" x="1776.314453"/>
     <use xlink:href="#DejaVuSans-61" x="1817.427734"/>
     <use xlink:href="#DejaVuSans-77" x="1878.707031"/>
    </g>
   </g>
  </g>
 </g>
 <defs>
  <clipPath id="p06825aaef2">
   <rect x="45" y="43.2" width="279" height="277.2"/>
  </clipPath>
 </defs>
</svg>
