<?xml version="1.0" encoding="utf-8" standalone="no"?>
<!DOCTYPE svg PUBLIC "-//W3C//DTD SVG 1.1//EN"
  "http://www.w3.org/Graphics/SVG/1.1/DTD/svg11.dtd">
<svg xmlns:xlink="http://www.w3.org/1999/xlink" width="360pt" height="360pt" viewBox="0 0 360 360" xmlns="http://www.w3.org/2000/svg" version="1.1">
 <metadata>
  <rdf:RDF xmlns:dc="http://purl.org/dc/elements/1.1/" xmlns:cc="http://creativecommons.org/ns#" xmlns:rdf="http://www.w3.org/1999/02/22-rdf-syntax-ns#">
   <cc:Work>
    <dc:type rdf:resource="http://purl.org/dc/dcmitype/StillImage"/>
    <dc:date>2022-12-22T09:35:02.423608</dc:date>
    <dc:format>image/svg+xml</dc:format>
    <dc:creator>
     <cc:Agent>
      <dc:title>Matplotlib v3.5.3, https://matplotlib.org/</dc:title>
     </cc:Agent>
    </dc:creator>
   </cc:Work>
  </rdf:RDF>
 </metadata>
 <defs>
  <style type="text/css">*{stroke-linejoin: round; stroke-linecap: butt}</style>
 </defs>
 <g id="figure_1">
  <g id="patch_1">
   <path d="M 0 360 
L 360 360 
L 360 0 
L 0 0 
z
" style="fill: #ffffff"/>
  </g>
  <g id="axes_1">
   <g id="patch_2">
    <path d="M 45 320.4 
L 324 320.4 
L 324 43.2 
L 45 43.2 
z
" style="fill: #ffffff"/>
   </g>
   <g id="matplotlib.axis_1">
    <g id="xtick_1">
     <g id="line2d_1">
      <defs>
       <path id="mb5944b0d5f" d="M 0 0 
L 0 3.5 
" style="stroke: #000000; stroke-width: 0.8"/>
      </defs>
      <g>
       <use xlink:href="#mb5944b0d5f" x="57.681818" y="320.4" style="stroke: #000000; stroke-width: 0.8"/>
      </g>
     </g>
     <g id="text_1">
      <!-- −0.5 -->
      <g transform="translate(45.540412 334.998438)scale(0.1 -0.1)">
       <defs>
        <path id="DejaVuSans-2212" d="M 678 2272 
L 4684 2272 
L 4684 1741 
L 678 1741 
L 678 2272 
z
" transform="scale(0.015625)"/>
        <path id="DejaVuSans-30" d="M 2034 4250 
Q 1547 4250 1301 3770 
Q 1056 3291 1056 2328 
Q 1056 1369 1301 889 
Q 1547 409 2034 409 
Q 2525 409 2770 889 
Q 3016 1369 3016 2328 
Q 3016 3291 2770 3770 
Q 2525 4250 2034 4250 
z
M 2034 4750 
Q 2819 4750 3233 4129 
Q 3647 3509 3647 2328 
Q 3647 1150 3233 529 
Q 2819 -91 2034 -91 
Q 1250 -91 836 529 
Q 422 1150 422 2328 
Q 422 3509 836 4129 
Q 1250 4750 2034 4750 
z
" transform="scale(0.015625)"/>
        <path id="DejaVuSans-2e" d="M 684 794 
L 1344 794 
L 1344 0 
L 684 0 
L 684 794 
z
" transform="scale(0.015625)"/>
        <path id="DejaVuSans-35" d="M 691 4666 
L 3169 4666 
L 3169 4134 
L 1269 4134 
L 1269 2991 
Q 1406 3038 1543 3061 
Q 1681 3084 1819 3084 
Q 2600 3084 3056 2656 
Q 3513 2228 3513 1497 
Q 3513 744 3044 326 
Q 2575 -91 1722 -91 
Q 1428 -91 1123 -41 
Q 819 9 494 109 
L 494 744 
Q 775 591 1075 516 
Q 1375 441 1709 441 
Q 2250 441 2565 725 
Q 2881 1009 2881 1497 
Q 2881 1984 2565 2268 
Q 2250 2553 1709 2553 
Q 1456 2553 1204 2497 
Q 953 2441 691 2322 
L 691 4666 
z
" transform="scale(0.015625)"/>
       </defs>
       <use xlink:href="#DejaVuSans-2212"/>
       <use xlink:href="#DejaVuSans-30" x="83.789062"/>
       <use xlink:href="#DejaVuSans-2e" x="147.412109"/>
       <use xlink:href="#DejaVuSans-35" x="179.199219"/>
      </g>
     </g>
    </g>
    <g id="xtick_2">
     <g id="line2d_2">
      <g>
       <use xlink:href="#mb5944b0d5f" x="99.954545" y="320.4" style="stroke: #000000; stroke-width: 0.8"/>
      </g>
     </g>
     <g id="text_2">
      <!-- 0.0 -->
      <g transform="translate(92.002983 334.998438)scale(0.1 -0.1)">
       <use xlink:href="#DejaVuSans-30"/>
       <use xlink:href="#DejaVuSans-2e" x="63.623047"/>
       <use xlink:href="#DejaVuSans-30" x="95.410156"/>
      </g>
     </g>
    </g>
    <g id="xtick_3">
     <g id="line2d_3">
      <g>
       <use xlink:href="#mb5944b0d5f" x="142.227273" y="320.4" style="stroke: #000000; stroke-width: 0.8"/>
      </g>
     </g>
     <g id="text_3">
      <!-- 0.5 -->
      <g transform="translate(134.27571 334.998438)scale(0.1 -0.1)">
       <use xlink:href="#DejaVuSans-30"/>
       <use xlink:href="#DejaVuSans-2e" x="63.623047"/>
       <use xlink:href="#DejaVuSans-35" x="95.410156"/>
      </g>
     </g>
    </g>
    <g id="xtick_4">
     <g id="line2d_4">
      <g>
       <use xlink:href="#mb5944b0d5f" x="184.5" y="320.4" style="stroke: #000000; stroke-width: 0.8"/>
      </g>
     </g>
     <g id="text_4">
      <!-- 1.0 -->
      <g transform="translate(176.548438 334.998438)scale(0.1 -0.1)">
       <defs>
        <path id="DejaVuSans-31" d="M 794 531 
L 1825 531 
L 1825 4091 
L 703 3866 
L 703 4441 
L 1819 4666 
L 2450 4666 
L 2450 531 
L 3481 531 
L 3481 0 
L 794 0 
L 794 531 
z
" transform="scale(0.015625)"/>
       </defs>
       <use xlink:href="#DejaVuSans-31"/>
       <use xlink:href="#DejaVuSans-2e" x="63.623047"/>
       <use xlink:href="#DejaVuSans-30" x="95.410156"/>
      </g>
     </g>
    </g>
    <g id="xtick_5">
     <g id="line2d_5">
      <g>
       <use xlink:href="#mb5944b0d5f" x="226.772727" y="320.4" style="stroke: #000000; stroke-width: 0.8"/>
      </g>
     </g>
     <g id="text_5">
      <!-- 1.5 -->
      <g transform="translate(218.821165 334.998438)scale(0.1 -0.1)">
       <use xlink:href="#DejaVuSans-31"/>
       <use xlink:href="#DejaVuSans-2e" x="63.623047"/>
       <use xlink:href="#DejaVuSans-35" x="95.410156"/>
      </g>
     </g>
    </g>
    <g id="xtick_6">
     <g id="line2d_6">
      <g>
       <use xlink:href="#mb5944b0d5f" x="269.045455" y="320.4" style="stroke: #000000; stroke-width: 0.8"/>
      </g>
     </g>
     <g id="text_6">
      <!-- 2.0 -->
      <g transform="translate(261.093892 334.998438)scale(0.1 -0.1)">
       <defs>
        <path id="DejaVuSans-32" d="M 1228 531 
L 3431 531 
L 3431 0 
L 469 0 
L 469 531 
Q 828 903 1448 1529 
Q 2069 2156 2228 2338 
Q 2531 2678 2651 2914 
Q 2772 3150 2772 3378 
Q 2772 3750 2511 3984 
Q 2250 4219 1831 4219 
Q 1534 4219 1204 4116 
Q 875 4013 500 3803 
L 500 4441 
Q 881 4594 1212 4672 
Q 1544 4750 1819 4750 
Q 2544 4750 2975 4387 
Q 3406 4025 3406 3419 
Q 3406 3131 3298 2873 
Q 3191 2616 2906 2266 
Q 2828 2175 2409 1742 
Q 1991 1309 1228 531 
z
" transform="scale(0.015625)"/>
       </defs>
       <use xlink:href="#DejaVuSans-32"/>
       <use xlink:href="#DejaVuSans-2e" x="63.623047"/>
       <use xlink:href="#DejaVuSans-30" x="95.410156"/>
      </g>
     </g>
    </g>
    <g id="xtick_7">
     <g id="line2d_7">
      <g>
       <use xlink:href="#mb5944b0d5f" x="311.318182" y="320.4" style="stroke: #000000; stroke-width: 0.8"/>
      </g>
     </g>
     <g id="text_7">
      <!-- 2.5 -->
      <g transform="translate(303.366619 334.998438)scale(0.1 -0.1)">
       <use xlink:href="#DejaVuSans-32"/>
       <use xlink:href="#DejaVuSans-2e" x="63.623047"/>
       <use xlink:href="#DejaVuSans-35" x="95.410156"/>
      </g>
     </g>
    </g>
   </g>
   <g id="matplotlib.axis_2">
    <g id="ytick_1">
     <g id="line2d_8">
      <defs>
       <path id="mfb8057fbfe" d="M 0 0 
L -3.5 0 
" style="stroke: #000000; stroke-width: 0.8"/>
      </defs>
      <g>
       <use xlink:href="#mfb8057fbfe" x="45" y="278.574192" style="stroke: #000000; stroke-width: 0.8"/>
      </g>
     </g>
     <g id="text_8">
      <!-- $\mathdefault{10^{-3}}$ -->
      <g transform="translate(14.5 282.373411)scale(0.1 -0.1)">
       <defs>
        <path id="DejaVuSans-33" d="M 2597 2516 
Q 3050 2419 3304 2112 
Q 3559 1806 3559 1356 
Q 3559 666 3084 287 
Q 2609 -91 1734 -91 
Q 1441 -91 1130 -33 
Q 819 25 488 141 
L 488 750 
Q 750 597 1062 519 
Q 1375 441 1716 441 
Q 2309 441 2620 675 
Q 2931 909 2931 1356 
Q 2931 1769 2642 2001 
Q 2353 2234 1838 2234 
L 1294 2234 
L 1294 2753 
L 1863 2753 
Q 2328 2753 2575 2939 
Q 2822 3125 2822 3475 
Q 2822 3834 2567 4026 
Q 2313 4219 1838 4219 
Q 1578 4219 1281 4162 
Q 984 4106 628 3988 
L 628 4550 
Q 988 4650 1302 4700 
Q 1616 4750 1894 4750 
Q 2613 4750 3031 4423 
Q 3450 4097 3450 3541 
Q 3450 3153 3228 2886 
Q 3006 2619 2597 2516 
z
" transform="scale(0.015625)"/>
       </defs>
       <use xlink:href="#DejaVuSans-31" transform="translate(0 0.765625)"/>
       <use xlink:href="#DejaVuSans-30" transform="translate(63.623047 0.765625)"/>
       <use xlink:href="#DejaVuSans-2212" transform="translate(128.203125 39.046875)scale(0.7)"/>
       <use xlink:href="#DejaVuSans-33" transform="translate(186.855469 39.046875)scale(0.7)"/>
      </g>
     </g>
    </g>
    <g id="ytick_2">
     <g id="line2d_9">
      <g>
       <use xlink:href="#mfb8057fbfe" x="45" y="216.698433" style="stroke: #000000; stroke-width: 0.8"/>
      </g>
     </g>
     <g id="text_9">
      <!-- $\mathdefault{10^{-2}}$ -->
      <g transform="translate(14.5 220.497652)scale(0.1 -0.1)">
       <use xlink:href="#DejaVuSans-31" transform="translate(0 0.765625)"/>
       <use xlink:href="#DejaVuSans-30" transform="translate(63.623047 0.765625)"/>
       <use xlink:href="#DejaVuSans-2212" transform="translate(128.203125 39.046875)scale(0.7)"/>
       <use xlink:href="#DejaVuSans-32" transform="translate(186.855469 39.046875)scale(0.7)"/>
      </g>
     </g>
    </g>
    <g id="ytick_3">
     <g id="line2d_10">
      <g>
       <use xlink:href="#mfb8057fbfe" x="45" y="154.822674" style="stroke: #000000; stroke-width: 0.8"/>
      </g>
     </g>
     <g id="text_10">
      <!-- $\mathdefault{10^{-1}}$ -->
      <g transform="translate(14.5 158.621893)scale(0.1 -0.1)">
       <use xlink:href="#DejaVuSans-31" transform="translate(0 0.684375)"/>
       <use xlink:href="#DejaVuSans-30" transform="translate(63.623047 0.684375)"/>
       <use xlink:href="#DejaVuSans-2212" transform="translate(128.203125 38.965625)scale(0.7)"/>
       <use xlink:href="#DejaVuSans-31" transform="translate(186.855469 38.965625)scale(0.7)"/>
      </g>
     </g>
    </g>
    <g id="ytick_4">
     <g id="line2d_11">
      <g>
       <use xlink:href="#mfb8057fbfe" x="45" y="92.946914" style="stroke: #000000; stroke-width: 0.8"/>
      </g>
     </g>
     <g id="text_11">
      <!-- $\mathdefault{10^{0}}$ -->
      <g transform="translate(20.4 96.746133)scale(0.1 -0.1)">
       <use xlink:href="#DejaVuSans-31" transform="translate(0 0.765625)"/>
       <use xlink:href="#DejaVuSans-30" transform="translate(63.623047 0.765625)"/>
       <use xlink:href="#DejaVuSans-30" transform="translate(128.203125 39.046875)scale(0.7)"/>
      </g>
     </g>
    </g>
    <g id="ytick_5">
     <g id="line2d_12">
      <defs>
       <path id="m10605e5a16" d="M 0 0 
L -2 0 
" style="stroke: #000000; stroke-width: 0.6"/>
      </defs>
      <g>
       <use xlink:href="#m10605e5a16" x="45" y="310.927712" style="stroke: #000000; stroke-width: 0.6"/>
      </g>
     </g>
    </g>
    <g id="ytick_6">
     <g id="line2d_13">
      <g>
       <use xlink:href="#m10605e5a16" x="45" y="303.197033" style="stroke: #000000; stroke-width: 0.6"/>
      </g>
     </g>
    </g>
    <g id="ytick_7">
     <g id="line2d_14">
      <g>
       <use xlink:href="#m10605e5a16" x="45" y="297.200652" style="stroke: #000000; stroke-width: 0.6"/>
      </g>
     </g>
    </g>
    <g id="ytick_8">
     <g id="line2d_15">
      <g>
       <use xlink:href="#m10605e5a16" x="45" y="292.301252" style="stroke: #000000; stroke-width: 0.6"/>
      </g>
     </g>
    </g>
    <g id="ytick_9">
     <g id="line2d_16">
      <g>
       <use xlink:href="#m10605e5a16" x="45" y="288.158869" style="stroke: #000000; stroke-width: 0.6"/>
      </g>
     </g>
    </g>
    <g id="ytick_10">
     <g id="line2d_17">
      <g>
       <use xlink:href="#m10605e5a16" x="45" y="284.570573" style="stroke: #000000; stroke-width: 0.6"/>
      </g>
     </g>
    </g>
    <g id="ytick_11">
     <g id="line2d_18">
      <g>
       <use xlink:href="#m10605e5a16" x="45" y="281.405472" style="stroke: #000000; stroke-width: 0.6"/>
      </g>
     </g>
    </g>
    <g id="ytick_12">
     <g id="line2d_19">
      <g>
       <use xlink:href="#m10605e5a16" x="45" y="259.947733" style="stroke: #000000; stroke-width: 0.6"/>
      </g>
     </g>
    </g>
    <g id="ytick_13">
     <g id="line2d_20">
      <g>
       <use xlink:href="#m10605e5a16" x="45" y="249.051952" style="stroke: #000000; stroke-width: 0.6"/>
      </g>
     </g>
    </g>
    <g id="ytick_14">
     <g id="line2d_21">
      <g>
       <use xlink:href="#m10605e5a16" x="45" y="241.321273" style="stroke: #000000; stroke-width: 0.6"/>
      </g>
     </g>
    </g>
    <g id="ytick_15">
     <g id="line2d_22">
      <g>
       <use xlink:href="#m10605e5a16" x="45" y="235.324893" style="stroke: #000000; stroke-width: 0.6"/>
      </g>
     </g>
    </g>
    <g id="ytick_16">
     <g id="line2d_23">
      <g>
       <use xlink:href="#m10605e5a16" x="45" y="230.425493" style="stroke: #000000; stroke-width: 0.6"/>
      </g>
     </g>
    </g>
    <g id="ytick_17">
     <g id="line2d_24">
      <g>
       <use xlink:href="#m10605e5a16" x="45" y="226.283109" style="stroke: #000000; stroke-width: 0.6"/>
      </g>
     </g>
    </g>
    <g id="ytick_18">
     <g id="line2d_25">
      <g>
       <use xlink:href="#m10605e5a16" x="45" y="222.694814" style="stroke: #000000; stroke-width: 0.6"/>
      </g>
     </g>
    </g>
    <g id="ytick_19">
     <g id="line2d_26">
      <g>
       <use xlink:href="#m10605e5a16" x="45" y="219.529713" style="stroke: #000000; stroke-width: 0.6"/>
      </g>
     </g>
    </g>
    <g id="ytick_20">
     <g id="line2d_27">
      <g>
       <use xlink:href="#m10605e5a16" x="45" y="198.071974" style="stroke: #000000; stroke-width: 0.6"/>
      </g>
     </g>
    </g>
    <g id="ytick_21">
     <g id="line2d_28">
      <g>
       <use xlink:href="#m10605e5a16" x="45" y="187.176193" style="stroke: #000000; stroke-width: 0.6"/>
      </g>
     </g>
    </g>
    <g id="ytick_22">
     <g id="line2d_29">
      <g>
       <use xlink:href="#m10605e5a16" x="45" y="179.445514" style="stroke: #000000; stroke-width: 0.6"/>
      </g>
     </g>
    </g>
    <g id="ytick_23">
     <g id="line2d_30">
      <g>
       <use xlink:href="#m10605e5a16" x="45" y="173.449133" style="stroke: #000000; stroke-width: 0.6"/>
      </g>
     </g>
    </g>
    <g id="ytick_24">
     <g id="line2d_31">
      <g>
       <use xlink:href="#m10605e5a16" x="45" y="168.549734" style="stroke: #000000; stroke-width: 0.6"/>
      </g>
     </g>
    </g>
    <g id="ytick_25">
     <g id="line2d_32">
      <g>
       <use xlink:href="#m10605e5a16" x="45" y="164.40735" style="stroke: #000000; stroke-width: 0.6"/>
      </g>
     </g>
    </g>
    <g id="ytick_26">
     <g id="line2d_33">
      <g>
       <use xlink:href="#m10605e5a16" x="45" y="160.819054" style="stroke: #000000; stroke-width: 0.6"/>
      </g>
     </g>
    </g>
    <g id="ytick_27">
     <g id="line2d_34">
      <g>
       <use xlink:href="#m10605e5a16" x="45" y="157.653953" style="stroke: #000000; stroke-width: 0.6"/>
      </g>
     </g>
    </g>
    <g id="ytick_28">
     <g id="line2d_35">
      <g>
       <use xlink:href="#m10605e5a16" x="45" y="136.196214" style="stroke: #000000; stroke-width: 0.6"/>
      </g>
     </g>
    </g>
    <g id="ytick_29">
     <g id="line2d_36">
      <g>
       <use xlink:href="#m10605e5a16" x="45" y="125.300434" style="stroke: #000000; stroke-width: 0.6"/>
      </g>
     </g>
    </g>
    <g id="ytick_30">
     <g id="line2d_37">
      <g>
       <use xlink:href="#m10605e5a16" x="45" y="117.569755" style="stroke: #000000; stroke-width: 0.6"/>
      </g>
     </g>
    </g>
    <g id="ytick_31">
     <g id="line2d_38">
      <g>
       <use xlink:href="#m10605e5a16" x="45" y="111.573374" style="stroke: #000000; stroke-width: 0.6"/>
      </g>
     </g>
    </g>
    <g id="ytick_32">
     <g id="line2d_39">
      <g>
       <use xlink:href="#m10605e5a16" x="45" y="106.673974" style="stroke: #000000; stroke-width: 0.6"/>
      </g>
     </g>
    </g>
    <g id="ytick_33">
     <g id="line2d_40">
      <g>
       <use xlink:href="#m10605e5a16" x="45" y="102.531591" style="stroke: #000000; stroke-width: 0.6"/>
      </g>
     </g>
    </g>
    <g id="ytick_34">
     <g id="line2d_41">
      <g>
       <use xlink:href="#m10605e5a16" x="45" y="98.943295" style="stroke: #000000; stroke-width: 0.6"/>
      </g>
     </g>
    </g>
    <g id="ytick_35">
     <g id="line2d_42">
      <g>
       <use xlink:href="#m10605e5a16" x="45" y="95.778194" style="stroke: #000000; stroke-width: 0.6"/>
      </g>
     </g>
    </g>
    <g id="ytick_36">
     <g id="line2d_43">
      <g>
       <use xlink:href="#m10605e5a16" x="45" y="74.320455" style="stroke: #000000; stroke-width: 0.6"/>
      </g>
     </g>
    </g>
    <g id="ytick_37">
     <g id="line2d_44">
      <g>
       <use xlink:href="#m10605e5a16" x="45" y="63.424675" style="stroke: #000000; stroke-width: 0.6"/>
      </g>
     </g>
    </g>
    <g id="ytick_38">
     <g id="line2d_45">
      <g>
       <use xlink:href="#m10605e5a16" x="45" y="55.693995" style="stroke: #000000; stroke-width: 0.6"/>
      </g>
     </g>
    </g>
    <g id="ytick_39">
     <g id="line2d_46">
      <g>
       <use xlink:href="#m10605e5a16" x="45" y="49.697615" style="stroke: #000000; stroke-width: 0.6"/>
      </g>
     </g>
    </g>
    <g id="ytick_40">
     <g id="line2d_47">
      <g>
       <use xlink:href="#m10605e5a16" x="45" y="44.798215" style="stroke: #000000; stroke-width: 0.6"/>
      </g>
     </g>
    </g>
   </g>
   <g id="line2d_48">
    <path d="M 99.954545 187.652136 
L 118.742424 183.645483 
L 137.530303 250.305938 
L 156.318183 147.866007 
L 175.106061 183.962588 
L 193.893944 190.867067 
L 212.681811 169.340262 
L 231.469699 152.282069 
L 250.257577 133.952512 
L 269.045455 150.681228 
" clip-path="url(#pa9f24e73d0)" style="fill: none; stroke: #1f77b4; stroke-width: 1.5; stroke-linecap: square"/>
   </g>
   <g id="line2d_49">
    <path d="M 57.681818 78.184664 
L 57.935708 79.025483 
L 58.189598 78.890442 
L 58.443488 79.6851 
L 58.697379 79.710151 
L 58.951269 80.542328 
L 59.205159 80.088906 
L 59.712939 81.785165 
L 59.966829 81.470064 
L 60.220719 82.431532 
L 60.474609 82.445884 
L 60.728499 83.039236 
L 60.98239 82.382549 
L 61.23628 84.07081 
L 61.49017 84.090865 
L 61.744062 84.253679 
L 61.997952 84.906128 
L 62.251843 84.555723 
L 62.505733 85.990713 
L 62.759623 84.425251 
L 63.013513 86.548794 
L 63.267403 85.216508 
L 63.775186 87.043426 
L 64.029076 86.384586 
L 64.282966 87.222613 
L 64.536856 86.863764 
L 65.044636 88.813 
L 65.298526 88.501565 
L 65.552416 89.486912 
L 65.806307 89.03628 
L 66.060197 88.842976 
L 66.314087 89.564567 
L 66.567977 91.169986 
L 66.821867 90.283531 
L 67.075757 91.141331 
L 67.329647 91.096404 
L 67.583537 92.923174 
L 67.837427 93.836384 
L 68.091317 93.399092 
L 68.345208 94.322696 
L 68.599098 92.536342 
L 68.852988 93.632429 
L 69.106878 93.840933 
L 69.360768 94.363442 
L 69.614658 95.235676 
L 69.868551 94.471241 
L 70.122441 97.099704 
L 70.376331 96.314677 
L 70.630221 97.896651 
L 70.884111 96.742723 
L 71.138001 98.191569 
L 71.391891 97.555224 
L 71.645781 98.810704 
L 71.899674 97.528754 
L 72.153564 100.33435 
L 72.661344 101.227928 
L 72.915234 99.02991 
L 73.169125 100.425817 
L 73.423015 99.742334 
L 73.676905 103.495073 
L 73.930795 104.305447 
L 74.184685 104.352612 
L 74.438575 104.601643 
L 74.692465 102.895808 
L 74.946355 103.432424 
L 75.200245 102.94296 
L 75.454135 106.189992 
L 75.708026 107.050567 
L 75.961916 104.881812 
L 76.215806 107.406759 
L 76.469696 105.631275 
L 76.723586 108.007432 
L 76.977476 106.631468 
L 77.231366 110.358118 
L 77.485256 110.186614 
L 77.739146 108.682357 
L 77.993039 109.403178 
L 78.246929 111.105889 
L 78.500819 109.432512 
L 78.754709 109.710622 
L 79.008599 114.050029 
L 79.262491 114.04988 
L 79.516381 110.571524 
L 79.770271 114.58604 
L 80.024162 115.201542 
L 80.278052 117.770172 
L 80.531943 117.057255 
L 80.785833 115.017717 
L 81.039723 116.783182 
L 81.293614 119.418683 
L 81.547504 117.423453 
L 81.801394 120.530882 
L 82.055283 121.818575 
L 82.309173 121.313129 
L 82.563063 123.27799 
L 82.816953 122.971593 
L 83.070844 117.512431 
L 83.324735 120.982917 
L 83.578625 121.133797 
L 83.832515 127.11326 
L 84.340294 125.751575 
L 84.594184 124.255459 
L 84.848074 129.921777 
L 85.101964 128.365473 
L 85.355856 129.98886 
L 85.609746 127.655267 
L 85.863636 130.311634 
L 86.117527 129.450751 
L 86.371417 133.671406 
L 86.625308 134.579264 
L 86.879198 134.78551 
L 87.133088 134.109687 
L 87.386979 137.973852 
L 87.640869 128.93278 
L 87.894759 135.691241 
L 88.148651 130.157759 
L 88.402541 134.042357 
L 88.656431 143.466054 
L 88.910321 133.21768 
L 89.164211 140.710176 
L 89.418102 142.575191 
L 89.925883 150.929845 
L 90.179771 139.950799 
L 90.433662 145.193832 
L 90.687552 140.887864 
L 90.941442 154.284999 
L 91.195333 139.81286 
L 91.449223 156.000913 
L 91.703113 150.243789 
L 92.210892 145.23862 
L 92.464782 143.493524 
L 92.718672 143.442199 
L 92.972563 167.357747 
L 93.226453 152.209616 
L 93.480343 163.852525 
L 93.734234 159.862037 
L 93.988124 175.432275 
L 94.242016 148.83219 
L 94.495906 180.564735 
L 94.749796 155.503545 
L 95.003687 159.466209 
L 95.257577 161.272338 
L 95.511467 186.027765 
L 95.765357 154.879318 
L 96.019248 167.929754 
L 96.273139 171.889939 
L 96.527029 271.614935 
L 96.780919 168.53218 
L 97.03481 189.125504 
L 97.2887 219.778909 
L 97.54259 163.927843 
L 97.796481 182.263121 
L 98.050371 229.687787 
L 98.30426 225.838063 
L 98.55815 210.568577 
L 98.81204 179.651512 
L 99.065931 240.60606 
L 99.319821 194.43108 
L 99.573711 206.764664 
L 99.827601 181.096665 
L 100.081492 206.30784 
L 100.589271 170.553338 
L 100.843161 307.8 
L 101.097051 211.893569 
L 101.350942 225.009498 
L 101.604832 181.769809 
L 101.858722 236.389994 
L 102.112612 252.560246 
L 102.366506 225.383123 
L 102.620397 181.574859 
L 102.874287 177.14217 
L 103.128177 189.903342 
L 103.382068 177.288617 
L 103.635958 172.702434 
L 103.889848 228.316819 
L 104.143738 252.533712 
L 104.397627 175.047505 
L 104.651517 170.82446 
L 104.905408 176.326666 
L 105.159298 173.288549 
L 105.413188 181.612163 
L 105.667078 181.932533 
L 105.920969 155.533645 
L 106.174859 163.696886 
L 106.428748 210.250511 
L 106.682638 181.771785 
L 107.190419 158.003397 
L 107.444309 157.513546 
L 107.698199 153.30544 
L 107.95209 161.359276 
L 108.459869 185.224168 
L 108.713759 178.13463 
L 108.967649 152.218254 
L 109.22154 155.669959 
L 109.47543 162.367668 
L 109.72932 198.049436 
L 109.983211 167.729253 
L 110.237101 159.925417 
L 110.49099 173.616507 
L 110.74488 157.655873 
L 110.99877 153.80949 
L 111.25266 182.673794 
L 111.50655 156.159966 
L 111.760442 159.88337 
L 112.014332 149.279226 
L 112.268222 179.428949 
L 112.522116 182.364241 
L 112.776006 170.510356 
L 113.029896 152.492051 
L 113.283786 149.107296 
L 113.537676 151.04854 
L 113.791567 181.34989 
L 114.045457 173.137417 
L 114.299348 185.012118 
L 114.807127 167.742113 
L 115.061017 162.601007 
L 115.314907 151.715121 
L 115.822688 149.787132 
L 116.076578 171.819321 
L 116.330468 155.40357 
L 116.584357 159.810118 
L 116.838247 154.442205 
L 117.092137 160.358896 
L 117.346028 152.991852 
L 117.599918 153.746432 
L 117.853809 171.204373 
L 118.107699 159.096241 
L 118.361589 180.10139 
L 118.615483 159.070286 
L 118.869373 153.403099 
L 119.123263 161.864628 
L 119.377153 157.14719 
L 119.631044 160.123877 
L 119.884935 151.373466 
L 120.138825 181.258009 
L 120.392715 154.978982 
L 120.646604 180.335219 
L 120.900494 179.223171 
L 121.154384 190.541323 
L 121.408274 154.906729 
L 121.662164 192.622435 
L 121.916054 159.767704 
L 122.169945 179.394144 
L 122.423835 214.811379 
L 122.677725 166.913669 
L 122.931615 170.349834 
L 123.185505 165.896352 
L 123.439395 156.078413 
L 123.693285 188.423038 
L 123.947175 154.501692 
L 124.201065 198.838151 
L 124.454955 211.887974 
L 124.708846 279.609474 
L 124.962736 169.046994 
L 125.216626 158.555707 
L 125.724406 204.133082 
L 125.978296 157.0217 
L 126.232186 172.135149 
L 126.486076 164.448117 
L 126.739966 177.47388 
L 126.993856 167.65997 
L 127.501637 173.065704 
L 127.755527 160.465263 
L 128.009417 220.156909 
L 128.263307 214.121293 
L 128.517197 181.23741 
L 128.771092 183.871316 
L 129.278872 164.151984 
L 129.532763 163.353122 
L 129.786653 240.136183 
L 130.040543 174.086882 
L 130.294433 172.331515 
L 130.548323 194.933403 
L 130.802213 183.956901 
L 131.056103 185.502044 
L 131.309993 210.222996 
L 131.563883 193.725948 
L 132.071664 183.82877 
L 132.325554 173.832436 
L 132.833334 191.310653 
L 133.087224 219.576754 
L 133.341114 197.853983 
L 133.595004 251.882303 
L 133.848894 175.281146 
L 134.102784 192.531308 
L 134.356675 179.22299 
L 134.610565 192.842434 
L 134.86446 171.697733 
L 135.11835 197.393197 
L 135.37224 177.923782 
L 135.62613 168.750799 
L 135.88002 241.023593 
L 136.13391 193.705711 
L 136.3878 197.858881 
L 136.64169 231.675395 
L 136.895581 171.13577 
L 137.149471 176.563355 
L 137.403361 213.373138 
L 137.657251 200.384417 
L 137.911141 214.114491 
L 138.165031 192.318146 
L 138.418921 210.467537 
L 138.672811 205.794308 
L 138.926701 167.451179 
L 139.180591 180.464362 
L 139.434482 228.224561 
L 139.688372 225.431127 
L 139.942262 168.947614 
L 140.196152 265.989947 
L 140.450042 186.486864 
L 140.703932 167.559338 
L 140.957822 203.325438 
L 141.211712 182.691447 
L 141.465602 180.93049 
L 141.719493 185.726333 
L 141.973383 198.863431 
L 142.227273 268.278579 
L 142.988943 155.348891 
L 143.242833 190.170871 
L 143.496723 199.999272 
L 143.750613 166.191534 
L 144.004503 165.051482 
L 144.512284 156.23481 
L 144.766174 158.921606 
L 145.020064 217.922663 
L 145.273954 166.536117 
L 145.527844 157.177157 
L 146.035624 183.820383 
L 146.289514 151.738295 
L 146.543404 175.215762 
L 146.797295 180.781034 
L 147.051195 194.977052 
L 147.305085 164.130248 
L 147.558975 157.178972 
L 147.812865 160.334889 
L 148.066755 160.420907 
L 148.320645 183.58532 
L 148.574535 190.61373 
L 148.828425 162.611727 
L 149.082316 149.835014 
L 149.336206 153.645999 
L 149.590096 174.926091 
L 149.843986 164.12644 
L 150.097876 178.693341 
L 150.351766 171.073015 
L 150.605656 158.097323 
L 151.113436 149.415753 
L 151.367326 182.552891 
L 151.621217 150.923502 
L 151.875107 174.801219 
L 152.128997 154.253657 
L 152.382887 148.5454 
L 152.636777 159.105703 
L 152.890667 147.649181 
L 153.144557 177.486648 
L 153.652337 150.888439 
L 153.906228 162.138646 
L 154.160118 161.756028 
L 154.414008 165.557911 
L 154.667898 149.311975 
L 155.175678 153.503399 
L 155.429568 168.002171 
L 155.683458 173.966208 
L 155.937348 156.110207 
L 156.191238 153.515574 
L 156.445129 165.456792 
L 156.699019 161.976739 
L 156.952909 148.917895 
L 157.206799 156.21343 
L 157.460689 156.665033 
L 157.714579 161.179287 
L 157.968469 175.654732 
L 158.222359 176.639071 
L 158.476249 165.35662 
L 158.730139 165.952968 
L 158.98403 152.981645 
L 159.23792 161.865304 
L 159.49181 163.685883 
L 159.7457 145.95804 
L 159.99959 152.569755 
L 160.25348 148.42666 
L 160.50737 165.625268 
L 160.76126 164.202785 
L 161.01515 152.465673 
L 161.26904 169.793249 
L 161.522931 169.598257 
L 161.776821 158.337056 
L 162.030711 163.79522 
L 162.284601 172.322036 
L 162.538491 150.151625 
L 162.792381 147.934873 
L 163.300161 160.953531 
L 163.554051 178.384787 
L 164.061832 154.86918 
L 164.315722 152.205256 
L 164.823502 166.013962 
L 165.077392 151.523676 
L 165.331292 176.366006 
L 165.585182 150.895991 
L 165.839072 166.74318 
L 166.092963 159.587145 
L 166.346853 163.462346 
L 166.600743 158.310475 
L 166.854633 165.981397 
L 167.108523 150.643493 
L 167.362413 161.329499 
L 167.616303 150.345048 
L 167.870193 148.51328 
L 168.124083 171.730416 
L 168.377973 179.150884 
L 168.631864 150.772075 
L 168.885754 151.171165 
L 169.139644 181.979263 
L 169.393534 164.445409 
L 169.647424 193.588198 
L 169.901314 186.153131 
L 170.155204 160.521149 
L 170.409094 159.61623 
L 170.662984 160.795501 
L 170.916874 170.907923 
L 171.170765 151.354023 
L 171.424655 162.962957 
L 171.678545 182.078133 
L 171.932435 167.67675 
L 172.186325 162.251705 
L 172.440215 160.696983 
L 172.694105 190.506753 
L 172.947995 160.958329 
L 173.455775 202.054206 
L 173.709666 186.78671 
L 173.963556 153.533696 
L 174.217446 155.264239 
L 174.471336 155.004528 
L 174.725226 159.889233 
L 174.979116 157.611283 
L 175.486896 194.738089 
L 175.740786 162.908905 
L 175.994677 195.520014 
L 176.248567 209.605457 
L 176.756347 170.907631 
L 177.010237 164.77528 
L 177.518017 212.840308 
L 177.771907 175.376039 
L 178.025797 219.109232 
L 178.279687 236.012183 
L 178.533578 167.539704 
L 178.787468 190.367148 
L 179.041358 160.977205 
L 179.295248 160.393327 
L 179.549148 175.46406 
L 179.803038 174.865571 
L 180.056928 179.092773 
L 180.564708 194.373635 
L 180.818599 190.959839 
L 181.326379 164.62737 
L 181.834159 291.094197 
L 182.088049 225.583004 
L 182.341939 230.081651 
L 182.595829 191.682513 
L 182.849719 171.894463 
L 183.103609 171.608026 
L 183.86528 204.074227 
L 184.11917 270.653448 
L 184.37306 285.7622 
L 184.62695 213.234881 
L 184.88084 179.568335 
L 185.13473 197.452883 
L 185.38862 183.489116 
L 185.6425 188.021035 
L 185.896391 179.336333 
L 186.404171 174.412051 
L 186.658061 182.511873 
L 186.911951 236.178662 
L 187.419731 191.153207 
L 187.673621 213.827096 
L 187.927511 193.448842 
L 188.181401 189.553712 
L 188.435292 171.792925 
L 188.943072 254.449943 
L 189.196962 257.526588 
L 189.450852 227.561296 
L 189.704752 271.072274 
L 189.958642 179.402616 
L 190.212532 193.843782 
L 190.466422 187.621404 
L 190.720313 206.494786 
L 190.974203 195.738708 
L 191.228093 165.221231 
L 191.481983 198.574971 
L 191.735873 170.02719 
L 191.989763 202.422077 
L 192.243653 170.938815 
L 192.497543 188.059586 
L 192.751433 181.266213 
L 193.005323 200.558708 
L 193.259214 199.324146 
L 193.513104 193.141731 
L 193.766994 291.404293 
L 194.020884 221.229666 
L 194.274774 218.83365 
L 194.528664 173.911577 
L 194.782554 177.009444 
L 195.036444 218.84718 
L 195.290334 174.731576 
L 195.544225 213.430461 
L 195.798115 175.519916 
L 196.052005 164.43625 
L 196.305895 203.593763 
L 196.559785 187.557081 
L 196.813675 204.855259 
L 197.067565 213.472646 
L 197.321455 236.361955 
L 197.575345 222.956629 
L 197.829235 181.31648 
L 198.083126 159.672847 
L 198.337016 162.190057 
L 198.590906 163.482226 
L 198.844796 158.912067 
L 199.098686 165.467996 
L 199.352576 158.06214 
L 199.606466 157.920584 
L 199.860356 163.205257 
L 200.114246 156.790262 
L 200.368136 162.682655 
L 200.622027 191.899419 
L 200.875917 251.056362 
L 201.129807 168.731021 
L 201.383697 168.782942 
L 201.637587 200.265626 
L 201.891477 164.419726 
L 202.145367 164.75984 
L 202.399257 206.228503 
L 202.653147 157.882326 
L 202.907037 179.68893 
L 203.160928 265.280404 
L 203.414818 181.345775 
L 203.668708 185.226911 
L 203.922598 162.567144 
L 204.176488 175.401209 
L 204.430378 177.502713 
L 204.938158 190.883365 
L 205.192048 260.121303 
L 205.445939 159.685589 
L 205.699829 177.124675 
L 205.953729 164.449795 
L 206.207619 159.431576 
L 206.461509 174.298657 
L 206.715399 158.202071 
L 206.969289 219.57933 
L 207.223179 180.985764 
L 207.477069 164.34174 
L 207.73096 202.868535 
L 207.98485 157.715462 
L 208.23874 167.928922 
L 208.49263 172.723038 
L 208.74652 159.61716 
L 209.00041 163.470043 
L 209.2543 174.352352 
L 209.50819 263.99437 
L 209.76208 219.013146 
L 210.01597 227.376871 
L 210.269861 165.268528 
L 210.523751 164.3972 
L 210.777641 226.424825 
L 211.285421 183.823503 
L 211.539311 189.187483 
L 211.793201 162.895089 
L 212.047091 173.555029 
L 212.300981 204.401957 
L 212.554871 176.971801 
L 212.808762 184.445979 
L 213.062652 163.88693 
L 213.316542 169.95082 
L 213.570432 187.985225 
L 213.824322 169.352603 
L 214.078212 185.075198 
L 214.332102 235.683522 
L 214.585992 163.201773 
L 214.839882 221.21799 
L 215.093772 170.72174 
L 215.347663 175.900645 
L 215.601553 279.147293 
L 215.855443 197.192163 
L 216.109333 185.736037 
L 216.363223 181.259769 
L 216.617113 168.137811 
L 216.871003 179.222913 
L 217.124893 169.859079 
L 217.378783 193.619462 
L 217.632674 286.905475 
L 217.886564 170.147586 
L 218.394344 192.927933 
L 218.648234 170.986931 
L 219.156014 209.420663 
L 219.409904 211.539874 
L 219.663794 230.780984 
L 219.917684 195.928579 
L 220.171575 177.827868 
L 220.425465 192.941746 
L 220.679355 175.315515 
L 220.933245 217.071935 
L 221.187135 200.66984 
L 221.441025 174.213093 
L 221.694915 250.376572 
L 221.948805 204.311011 
L 222.202705 230.180932 
L 222.456596 170.288702 
L 222.710486 198.271091 
L 222.964376 187.024549 
L 223.218266 188.336729 
L 223.472156 174.421575 
L 223.726046 178.074324 
L 223.979936 189.645913 
L 224.233826 174.354539 
L 224.487716 188.471259 
L 224.741606 169.525681 
L 224.995497 223.661766 
L 225.503277 169.731172 
L 225.757167 158.648107 
L 226.011057 166.764265 
L 226.264947 241.231593 
L 226.518837 160.632879 
L 226.772727 184.869128 
L 227.026617 183.104 
L 227.280507 261.439904 
L 227.534398 178.634493 
L 227.788288 158.804123 
L 228.042178 168.725883 
L 228.296068 191.765098 
L 228.549958 163.804933 
L 228.803848 178.165328 
L 229.057738 153.402777 
L 229.311628 200.644199 
L 229.565518 174.784192 
L 229.819409 202.60605 
L 230.327189 159.334014 
L 230.581079 150.211078 
L 230.834969 160.553091 
L 231.088859 149.21061 
L 231.342749 158.938668 
L 231.596639 153.079963 
L 231.850529 149.987686 
L 232.104419 149.209513 
L 232.35831 170.766882 
L 232.6122 147.565833 
L 232.86609 150.576604 
L 233.11998 166.299164 
L 233.37387 165.767152 
L 233.62776 173.314963 
L 233.88165 153.125306 
L 234.13554 170.788344 
L 234.38943 150.235103 
L 234.64332 151.058235 
L 234.897211 169.668314 
L 235.151101 150.752259 
L 235.404991 154.717959 
L 235.658881 147.976644 
L 235.912771 146.447494 
L 236.166661 168.609377 
L 236.420551 142.682181 
L 236.674441 143.070552 
L 236.928331 146.862886 
L 237.182221 164.20645 
L 237.436112 154.825845 
L 237.943892 152.703598 
L 238.197782 143.778991 
L 238.451672 145.329859 
L 238.705562 141.31018 
L 238.959452 152.623635 
L 239.213342 144.730146 
L 239.467232 144.28274 
L 239.721123 157.633997 
L 239.975013 159.306392 
L 240.228903 152.60478 
L 240.482793 140.537348 
L 240.736683 157.585413 
L 240.990573 156.166763 
L 241.244463 140.886753 
L 241.498353 140.846294 
L 241.752243 138.49218 
L 242.006133 153.260543 
L 242.260024 152.670413 
L 242.513924 140.287861 
L 242.767814 137.472475 
L 243.021704 139.287636 
L 243.275594 142.657366 
L 243.529484 141.051234 
L 243.783374 136.340988 
L 244.037264 149.88334 
L 244.291154 147.633869 
L 244.545045 137.681949 
L 244.798935 149.719196 
L 245.052825 148.110462 
L 245.306715 137.122531 
L 245.560605 140.056596 
L 245.814495 139.890674 
L 246.068385 146.242239 
L 246.322275 142.407014 
L 246.576165 135.43531 
L 246.830055 147.671094 
L 247.337836 138.265638 
L 247.591726 148.345876 
L 247.845616 134.80116 
L 248.099506 146.286 
L 248.353396 143.821328 
L 248.607286 144.063458 
L 249.115066 151.328535 
L 249.368956 137.412697 
L 249.622847 139.60235 
L 249.876737 150.841637 
L 250.130627 147.679162 
L 250.384517 134.652515 
L 250.638417 138.844064 
L 250.892307 138.754804 
L 251.146197 147.474879 
L 251.400087 145.979801 
L 251.653977 143.430117 
L 251.907868 143.820328 
L 252.161758 148.868237 
L 252.415648 141.78511 
L 252.669538 141.778718 
L 252.923428 143.872887 
L 253.177318 141.757603 
L 253.431208 146.790765 
L 253.685098 141.111501 
L 253.938988 140.368571 
L 254.446769 154.762319 
L 254.700659 139.850596 
L 254.954549 142.388062 
L 255.208439 149.941304 
L 255.462329 137.308952 
L 255.716219 150.066522 
L 255.970109 139.946534 
L 256.223999 141.589902 
L 256.477889 156.383112 
L 256.73178 141.129778 
L 256.98567 158.852297 
L 257.49345 150.120092 
L 257.74734 157.260625 
L 258.00123 140.350769 
L 258.25512 152.296118 
L 258.50901 146.356499 
L 258.7629 164.515655 
L 259.01679 145.73482 
L 259.524571 165.459376 
L 259.778461 152.396199 
L 260.286241 146.033891 
L 260.540131 167.946775 
L 260.794021 166.953105 
L 261.047911 156.438551 
L 261.301801 156.406884 
L 261.555691 155.922173 
L 261.809582 154.781013 
L 262.063472 169.831407 
L 262.317362 157.051042 
L 262.571252 155.715277 
L 262.825142 177.942921 
L 263.079032 158.779626 
L 263.332922 164.245082 
L 263.586812 159.115157 
L 263.840702 223.576515 
L 264.094593 228.845698 
L 264.856263 176.263323 
L 265.110153 199.284086 
L 265.364043 188.331233 
L 265.617933 197.987801 
L 265.871823 195.405855 
L 266.125713 203.080235 
L 266.379603 166.703738 
L 266.633494 171.211325 
L 266.887384 164.592885 
L 267.141274 205.502238 
L 267.395164 160.7302 
L 267.649054 169.549399 
L 267.902944 173.502684 
L 268.156834 156.118842 
L 268.410724 168.206603 
L 268.664614 147.468422 
L 268.918504 148.604478 
L 269.172405 145.152042 
L 269.426285 149.695138 
L 269.680185 147.331057 
L 269.934065 151.076171 
L 270.187965 145.839376 
L 270.695745 154.366158 
L 271.203525 138.297451 
L 271.457405 133.494012 
L 271.711306 141.290476 
L 271.965186 133.91351 
L 272.219086 139.469748 
L 272.472966 139.210643 
L 272.726866 135.826126 
L 272.980746 138.268258 
L 273.234646 136.909753 
L 273.742426 125.34421 
L 273.996307 132.550035 
L 274.250207 124.568688 
L 274.504087 123.63687 
L 274.757987 128.648714 
L 275.011867 127.224778 
L 275.773547 117.90636 
L 276.027427 119.65469 
L 276.281328 122.808327 
L 276.535208 119.18202 
L 277.296888 114.710562 
L 277.550768 116.860922 
L 277.804668 114.368345 
L 278.058548 115.344104 
L 278.312448 112.145235 
L 278.566328 113.092941 
L 278.820229 112.246585 
L 279.074109 110.811212 
L 279.328009 111.294675 
L 279.581889 110.53237 
L 279.835789 110.551814 
L 280.089669 109.401038 
L 280.597449 104.396931 
L 280.851349 105.924979 
L 281.35915 103.690929 
L 281.61303 103.243223 
L 281.86693 103.031267 
L 282.12081 103.737491 
L 282.88249 99.748175 
L 283.13637 99.442137 
L 283.390271 98.626233 
L 283.644151 100.227616 
L 283.898051 98.983807 
L 284.151931 99.011531 
L 284.405831 96.968553 
L 284.913611 96.367125 
L 285.167491 93.938131 
L 285.421391 94.873365 
L 285.675271 94.109658 
L 286.183052 92.106901 
L 286.436952 93.812188 
L 286.690832 93.169664 
L 286.944732 92.172204 
L 287.198612 92.285095 
L 287.452512 90.061198 
L 287.706392 89.84547 
L 287.960292 90.007132 
L 288.214172 88.869911 
L 288.468073 88.348722 
L 288.721953 87.175378 
L 288.975853 87.902932 
L 289.229733 86.482137 
L 289.483633 86.693646 
L 289.737513 87.224023 
L 289.991413 85.405863 
L 290.245293 84.942002 
L 290.499193 85.40547 
L 290.753073 83.98929 
L 291.006974 83.812323 
L 291.260854 84.342864 
L 291.514754 82.625239 
L 291.768634 81.917062 
L 292.276414 81.447064 
L 292.784194 80.391896 
L 293.038094 80.750453 
L 293.545875 79.307869 
L 293.799755 78.534947 
L 294.053655 78.491819 
L 294.815315 76.845554 
L 295.069215 77.27962 
L 295.323095 76.185748 
L 295.830875 75.35472 
L 296.084776 75.835863 
L 296.338656 74.738999 
L 296.592556 74.487146 
L 296.846436 74.917959 
L 297.354216 74.004736 
L 297.608116 72.645114 
L 298.115896 72.271483 
L 298.369777 72.655828 
L 298.877557 70.962245 
L 299.131457 71.051519 
L 299.385337 70.23652 
L 299.639237 70.204766 
L 299.893117 69.819715 
L 300.147017 70.116371 
L 300.654798 68.828532 
L 300.908678 68.669464 
L 301.162578 68.078926 
L 301.416458 68.099181 
L 301.924238 67.35033 
L 302.178138 66.677103 
L 302.432018 66.9727 
L 302.685918 66.135762 
L 302.939798 65.686121 
L 303.193699 65.8527 
L 303.701479 65.369732 
L 304.209259 64.092392 
L 304.463139 64.162126 
L 304.717039 64.000731 
L 304.970919 62.860769 
L 305.224819 62.924996 
L 305.478699 62.37101 
L 305.7326 62.435108 
L 305.98648 62.221445 
L 306.24038 61.649909 
L 306.49426 61.395281 
L 306.74816 61.310705 
L 307.25594 60.184235 
L 307.50982 60.539356 
L 307.76372 59.723477 
L 308.271501 59.363905 
L 308.525381 59.010521 
L 308.779281 58.388985 
L 309.033161 58.620574 
L 309.287061 57.992681 
L 309.540941 57.682739 
L 309.794841 57.670222 
L 310.048721 57.112965 
L 311.318182 55.8 
L 311.318182 55.8 
" clip-path="url(#pa9f24e73d0)" style="fill: none; stroke: #ff7f0e; stroke-width: 1.5; stroke-linecap: square"/>
   </g>
   <g id="patch_3">
    <path d="M 45 320.4 
L 45 43.2 
" style="fill: none; stroke: #000000; stroke-width: 0.8; stroke-linejoin: miter; stroke-linecap: square"/>
   </g>
   <g id="patch_4">
    <path d="M 324 320.4 
L 324 43.2 
" style="fill: none; stroke: #000000; stroke-width: 0.8; stroke-linejoin: miter; stroke-linecap: square"/>
   </g>
   <g id="patch_5">
    <path d="M 45 320.4 
L 324 320.4 
" style="fill: none; stroke: #000000; stroke-width: 0.8; stroke-linejoin: miter; stroke-linecap: square"/>
   </g>
   <g id="patch_6">
    <path d="M 45 43.2 
L 324 43.2 
" style="fill: none; stroke: #000000; stroke-width: 0.8; stroke-linejoin: miter; stroke-linecap: square"/>
   </g>
   <g id="text_12">
    <!-- Prediction Error -->
    <g transform="translate(138.166875 37.2)scale(0.12 -0.12)">
     <defs>
      <path id="DejaVuSans-50" d="M 1259 4147 
L 1259 2394 
L 2053 2394 
Q 2494 2394 2734 2622 
Q 2975 2850 2975 3272 
Q 2975 3691 2734 3919 
Q 2494 4147 2053 4147 
L 1259 4147 
z
M 628 4666 
L 2053 4666 
Q 2838 4666 3239 4311 
Q 3641 3956 3641 3272 
Q 3641 2581 3239 2228 
Q 2838 1875 2053 1875 
L 1259 1875 
L 1259 0 
L 628 0 
L 628 4666 
z
" transform="scale(0.015625)"/>
      <path id="DejaVuSans-72" d="M 2631 2963 
Q 2534 3019 2420 3045 
Q 2306 3072 2169 3072 
Q 1681 3072 1420 2755 
Q 1159 2438 1159 1844 
L 1159 0 
L 581 0 
L 581 3500 
L 1159 3500 
L 1159 2956 
Q 1341 3275 1631 3429 
Q 1922 3584 2338 3584 
Q 2397 3584 2469 3576 
Q 2541 3569 2628 3553 
L 2631 2963 
z
" transform="scale(0.015625)"/>
      <path id="DejaVuSans-65" d="M 3597 1894 
L 3597 1613 
L 953 1613 
Q 991 1019 1311 708 
Q 1631 397 2203 397 
Q 2534 397 2845 478 
Q 3156 559 3463 722 
L 3463 178 
Q 3153 47 2828 -22 
Q 2503 -91 2169 -91 
Q 1331 -91 842 396 
Q 353 884 353 1716 
Q 353 2575 817 3079 
Q 1281 3584 2069 3584 
Q 2775 3584 3186 3129 
Q 3597 2675 3597 1894 
z
M 3022 2063 
Q 3016 2534 2758 2815 
Q 2500 3097 2075 3097 
Q 1594 3097 1305 2825 
Q 1016 2553 972 2059 
L 3022 2063 
z
" transform="scale(0.015625)"/>
      <path id="DejaVuSans-64" d="M 2906 2969 
L 2906 4863 
L 3481 4863 
L 3481 0 
L 2906 0 
L 2906 525 
Q 2725 213 2448 61 
Q 2172 -91 1784 -91 
Q 1150 -91 751 415 
Q 353 922 353 1747 
Q 353 2572 751 3078 
Q 1150 3584 1784 3584 
Q 2172 3584 2448 3432 
Q 2725 3281 2906 2969 
z
M 947 1747 
Q 947 1113 1208 752 
Q 1469 391 1925 391 
Q 2381 391 2643 752 
Q 2906 1113 2906 1747 
Q 2906 2381 2643 2742 
Q 2381 3103 1925 3103 
Q 1469 3103 1208 2742 
Q 947 2381 947 1747 
z
" transform="scale(0.015625)"/>
      <path id="DejaVuSans-69" d="M 603 3500 
L 1178 3500 
L 1178 0 
L 603 0 
L 603 3500 
z
M 603 4863 
L 1178 4863 
L 1178 4134 
L 603 4134 
L 603 4863 
z
" transform="scale(0.015625)"/>
      <path id="DejaVuSans-63" d="M 3122 3366 
L 3122 2828 
Q 2878 2963 2633 3030 
Q 2388 3097 2138 3097 
Q 1578 3097 1268 2742 
Q 959 2388 959 1747 
Q 959 1106 1268 751 
Q 1578 397 2138 397 
Q 2388 397 2633 464 
Q 2878 531 3122 666 
L 3122 134 
Q 2881 22 2623 -34 
Q 2366 -91 2075 -91 
Q 1284 -91 818 406 
Q 353 903 353 1747 
Q 353 2603 823 3093 
Q 1294 3584 2113 3584 
Q 2378 3584 2631 3529 
Q 2884 3475 3122 3366 
z
" transform="scale(0.015625)"/>
      <path id="DejaVuSans-74" d="M 1172 4494 
L 1172 3500 
L 2356 3500 
L 2356 3053 
L 1172 3053 
L 1172 1153 
Q 1172 725 1289 603 
Q 1406 481 1766 481 
L 2356 481 
L 2356 0 
L 1766 0 
Q 1100 0 847 248 
Q 594 497 594 1153 
L 594 3053 
L 172 3053 
L 172 3500 
L 594 3500 
L 594 4494 
L 1172 4494 
z
" transform="scale(0.015625)"/>
      <path id="DejaVuSans-6f" d="M 1959 3097 
Q 1497 3097 1228 2736 
Q 959 2375 959 1747 
Q 959 1119 1226 758 
Q 1494 397 1959 397 
Q 2419 397 2687 759 
Q 2956 1122 2956 1747 
Q 2956 2369 2687 2733 
Q 2419 3097 1959 3097 
z
M 1959 3584 
Q 2709 3584 3137 3096 
Q 3566 2609 3566 1747 
Q 3566 888 3137 398 
Q 2709 -91 1959 -91 
Q 1206 -91 779 398 
Q 353 888 353 1747 
Q 353 2609 779 3096 
Q 1206 3584 1959 3584 
z
" transform="scale(0.015625)"/>
      <path id="DejaVuSans-6e" d="M 3513 2113 
L 3513 0 
L 2938 0 
L 2938 2094 
Q 2938 2591 2744 2837 
Q 2550 3084 2163 3084 
Q 1697 3084 1428 2787 
Q 1159 2491 1159 1978 
L 1159 0 
L 581 0 
L 581 3500 
L 1159 3500 
L 1159 2956 
Q 1366 3272 1645 3428 
Q 1925 3584 2291 3584 
Q 2894 3584 3203 3211 
Q 3513 2838 3513 2113 
z
" transform="scale(0.015625)"/>
      <path id="DejaVuSans-20" transform="scale(0.015625)"/>
      <path id="DejaVuSans-45" d="M 628 4666 
L 3578 4666 
L 3578 4134 
L 1259 4134 
L 1259 2753 
L 3481 2753 
L 3481 2222 
L 1259 2222 
L 1259 531 
L 3634 531 
L 3634 0 
L 628 0 
L 628 4666 
z
" transform="scale(0.015625)"/>
     </defs>
     <use xlink:href="#DejaVuSans-50"/>
     <use xlink:href="#DejaVuSans-72" x="58.552734"/>
     <use xlink:href="#DejaVuSans-65" x="97.416016"/>
     <use xlink:href="#DejaVuSans-64" x="158.939453"/>
     <use xlink:href="#DejaVuSans-69" x="222.416016"/>
     <use xlink:href="#DejaVuSans-63" x="250.199219"/>
     <use xlink:href="#DejaVuSans-74" x="305.179688"/>
     <use xlink:href="#DejaVuSans-69" x="344.388672"/>
     <use xlink:href="#DejaVuSans-6f" x="372.171875"/>
     <use xlink:href="#DejaVuSans-6e" x="433.353516"/>
     <use xlink:href="#DejaVuSans-20" x="496.732422"/>
     <use xlink:href="#DejaVuSans-45" x="528.519531"/>
     <use xlink:href="#DejaVuSans-72" x="591.703125"/>
     <use xlink:href="#DejaVuSans-72" x="631.066406"/>
     <use xlink:href="#DejaVuSans-6f" x="669.929688"/>
     <use xlink:href="#DejaVuSans-72" x="731.111328"/>
    </g>
   </g>
   <g id="legend_1">
    <g id="patch_7">
     <path d="M 234.342187 315.4 
L 317 315.4 
Q 319 315.4 319 313.4 
L 319 285.04375 
Q 319 283.04375 317 283.04375 
L 234.342187 283.04375 
Q 232.342187 283.04375 232.342187 285.04375 
L 232.342187 313.4 
Q 232.342187 315.4 234.342187 315.4 
z
" style="fill: #ffffff; opacity: 0.8; stroke: #cccccc; stroke-linejoin: miter"/>
    </g>
    <g id="line2d_50">
     <path d="M 236.342187 291.142187 
L 246.342187 291.142187 
L 256.342188 291.142187 
" style="fill: none; stroke: #1f77b4; stroke-width: 1.5; stroke-linecap: square"/>
    </g>
    <g id="text_13">
     <!-- train error -->
     <g transform="translate(264.342188 294.642187)scale(0.1 -0.1)">
      <defs>
       <path id="DejaVuSans-61" d="M 2194 1759 
Q 1497 1759 1228 1600 
Q 959 1441 959 1056 
Q 959 750 1161 570 
Q 1363 391 1709 391 
Q 2188 391 2477 730 
Q 2766 1069 2766 1631 
L 2766 1759 
L 2194 1759 
z
M 3341 1997 
L 3341 0 
L 2766 0 
L 2766 531 
Q 2569 213 2275 61 
Q 1981 -91 1556 -91 
Q 1019 -91 701 211 
Q 384 513 384 1019 
Q 384 1609 779 1909 
Q 1175 2209 1959 2209 
L 2766 2209 
L 2766 2266 
Q 2766 2663 2505 2880 
Q 2244 3097 1772 3097 
Q 1472 3097 1187 3025 
Q 903 2953 641 2809 
L 641 3341 
Q 956 3463 1253 3523 
Q 1550 3584 1831 3584 
Q 2591 3584 2966 3190 
Q 3341 2797 3341 1997 
z
" transform="scale(0.015625)"/>
      </defs>
      <use xlink:href="#DejaVuSans-74"/>
      <use xlink:href="#DejaVuSans-72" x="39.208984"/>
      <use xlink:href="#DejaVuSans-61" x="80.322266"/>
      <use xlink:href="#DejaVuSans-69" x="141.601562"/>
      <use xlink:href="#DejaVuSans-6e" x="169.384766"/>
      <use xlink:href="#DejaVuSans-20" x="232.763672"/>
      <use xlink:href="#DejaVuSans-65" x="264.550781"/>
      <use xlink:href="#DejaVuSans-72" x="326.074219"/>
      <use xlink:href="#DejaVuSans-72" x="365.4375"/>
      <use xlink:href="#DejaVuSans-6f" x="404.300781"/>
      <use xlink:href="#DejaVuSans-72" x="465.482422"/>
     </g>
    </g>
    <g id="line2d_51">
     <path d="M 236.342187 305.820312 
L 246.342187 305.820312 
L 256.342188 305.820312 
" style="fill: none; stroke: #ff7f0e; stroke-width: 1.5; stroke-linecap: square"/>
    </g>
    <g id="text_14">
     <!-- test error -->
     <g transform="translate(264.342188 309.320312)scale(0.1 -0.1)">
      <defs>
       <path id="DejaVuSans-73" d="M 2834 3397 
L 2834 2853 
Q 2591 2978 2328 3040 
Q 2066 3103 1784 3103 
Q 1356 3103 1142 2972 
Q 928 2841 928 2578 
Q 928 2378 1081 2264 
Q 1234 2150 1697 2047 
L 1894 2003 
Q 2506 1872 2764 1633 
Q 3022 1394 3022 966 
Q 3022 478 2636 193 
Q 2250 -91 1575 -91 
Q 1294 -91 989 -36 
Q 684 19 347 128 
L 347 722 
Q 666 556 975 473 
Q 1284 391 1588 391 
Q 1994 391 2212 530 
Q 2431 669 2431 922 
Q 2431 1156 2273 1281 
Q 2116 1406 1581 1522 
L 1381 1569 
Q 847 1681 609 1914 
Q 372 2147 372 2553 
Q 372 3047 722 3315 
Q 1072 3584 1716 3584 
Q 2034 3584 2315 3537 
Q 2597 3491 2834 3397 
z
" transform="scale(0.015625)"/>
      </defs>
      <use xlink:href="#DejaVuSans-74"/>
      <use xlink:href="#DejaVuSans-65" x="39.208984"/>
      <use xlink:href="#DejaVuSans-73" x="100.732422"/>
      <use xlink:href="#DejaVuSans-74" x="152.832031"/>
      <use xlink:href="#DejaVuSans-20" x="192.041016"/>
      <use xlink:href="#DejaVuSans-65" x="223.828125"/>
      <use xlink:href="#DejaVuSans-72" x="285.351562"/>
      <use xlink:href="#DejaVuSans-72" x="324.714844"/>
      <use xlink:href="#DejaVuSans-6f" x="363.578125"/>
      <use xlink:href="#DejaVuSans-72" x="424.759766"/>
     </g>
    </g>
   </g>
  </g>
 </g>
 <defs>
  <clipPath id="pa9f24e73d0">
   <rect x="45" y="43.2" width="279" height="277.2"/>
  </clipPath>
 </defs>
</svg>
