<?xml version="1.0" encoding="utf-8" standalone="no"?>
<!DOCTYPE svg PUBLIC "-//W3C//DTD SVG 1.1//EN"
  "http://www.w3.org/Graphics/SVG/1.1/DTD/svg11.dtd">
<svg xmlns:xlink="http://www.w3.org/1999/xlink" width="360pt" height="360pt" viewBox="0 0 360 360" xmlns="http://www.w3.org/2000/svg" version="1.1">
 <metadata>
  <rdf:RDF xmlns:dc="http://purl.org/dc/elements/1.1/" xmlns:cc="http://creativecommons.org/ns#" xmlns:rdf="http://www.w3.org/1999/02/22-rdf-syntax-ns#">
   <cc:Work>
    <dc:type rdf:resource="http://purl.org/dc/dcmitype/StillImage"/>
    <dc:date>2022-12-22T09:35:03.138609</dc:date>
    <dc:format>image/svg+xml</dc:format>
    <dc:creator>
     <cc:Agent>
      <dc:title>Matplotlib v3.5.3, https://matplotlib.org/</dc:title>
     </cc:Agent>
    </dc:creator>
   </cc:Work>
  </rdf:RDF>
 </metadata>
 <defs>
  <style type="text/css">*{stroke-linejoin: round; stroke-linecap: butt}</style>
 </defs>
 <g id="figure_1">
  <g id="patch_1">
   <path d="M 0 360 
L 360 360 
L 360 0 
L 0 0 
z
" style="fill: #ffffff"/>
  </g>
  <g id="axes_1">
   <g id="patch_2">
    <path d="M 45 320.4 
L 324 320.4 
L 324 43.2 
L 45 43.2 
z
" style="fill: #ffffff"/>
   </g>
   <g id="matplotlib.axis_1">
    <g id="xtick_1">
     <g id="line2d_1">
      <defs>
       <path id="m44b3d7db51" d="M 0 0 
L 0 3.5 
" style="stroke: #000000; stroke-width: 0.8"/>
      </defs>
      <g>
       <use xlink:href="#m44b3d7db51" x="57.681818" y="320.4" style="stroke: #000000; stroke-width: 0.8"/>
      </g>
     </g>
     <g id="text_1">
      <!-- −0.5 -->
      <g transform="translate(45.540412 334.998438)scale(0.1 -0.1)">
       <defs>
        <path id="DejaVuSans-2212" d="M 678 2272 
L 4684 2272 
L 4684 1741 
L 678 1741 
L 678 2272 
z
" transform="scale(0.015625)"/>
        <path id="DejaVuSans-30" d="M 2034 4250 
Q 1547 4250 1301 3770 
Q 1056 3291 1056 2328 
Q 1056 1369 1301 889 
Q 1547 409 2034 409 
Q 2525 409 2770 889 
Q 3016 1369 3016 2328 
Q 3016 3291 2770 3770 
Q 2525 4250 2034 4250 
z
M 2034 4750 
Q 2819 4750 3233 4129 
Q 3647 3509 3647 2328 
Q 3647 1150 3233 529 
Q 2819 -91 2034 -91 
Q 1250 -91 836 529 
Q 422 1150 422 2328 
Q 422 3509 836 4129 
Q 1250 4750 2034 4750 
z
" transform="scale(0.015625)"/>
        <path id="DejaVuSans-2e" d="M 684 794 
L 1344 794 
L 1344 0 
L 684 0 
L 684 794 
z
" transform="scale(0.015625)"/>
        <path id="DejaVuSans-35" d="M 691 4666 
L 3169 4666 
L 3169 4134 
L 1269 4134 
L 1269 2991 
Q 1406 3038 1543 3061 
Q 1681 3084 1819 3084 
Q 2600 3084 3056 2656 
Q 3513 2228 3513 1497 
Q 3513 744 3044 326 
Q 2575 -91 1722 -91 
Q 1428 -91 1123 -41 
Q 819 9 494 109 
L 494 744 
Q 775 591 1075 516 
Q 1375 441 1709 441 
Q 2250 441 2565 725 
Q 2881 1009 2881 1497 
Q 2881 1984 2565 2268 
Q 2250 2553 1709 2553 
Q 1456 2553 1204 2497 
Q 953 2441 691 2322 
L 691 4666 
z
" transform="scale(0.015625)"/>
       </defs>
       <use xlink:href="#DejaVuSans-2212"/>
       <use xlink:href="#DejaVuSans-30" x="83.789062"/>
       <use xlink:href="#DejaVuSans-2e" x="147.412109"/>
       <use xlink:href="#DejaVuSans-35" x="179.199219"/>
      </g>
     </g>
    </g>
    <g id="xtick_2">
     <g id="line2d_2">
      <g>
       <use xlink:href="#m44b3d7db51" x="99.954545" y="320.4" style="stroke: #000000; stroke-width: 0.8"/>
      </g>
     </g>
     <g id="text_2">
      <!-- 0.0 -->
      <g transform="translate(92.002983 334.998438)scale(0.1 -0.1)">
       <use xlink:href="#DejaVuSans-30"/>
       <use xlink:href="#DejaVuSans-2e" x="63.623047"/>
       <use xlink:href="#DejaVuSans-30" x="95.410156"/>
      </g>
     </g>
    </g>
    <g id="xtick_3">
     <g id="line2d_3">
      <g>
       <use xlink:href="#m44b3d7db51" x="142.227273" y="320.4" style="stroke: #000000; stroke-width: 0.8"/>
      </g>
     </g>
     <g id="text_3">
      <!-- 0.5 -->
      <g transform="translate(134.27571 334.998438)scale(0.1 -0.1)">
       <use xlink:href="#DejaVuSans-30"/>
       <use xlink:href="#DejaVuSans-2e" x="63.623047"/>
       <use xlink:href="#DejaVuSans-35" x="95.410156"/>
      </g>
     </g>
    </g>
    <g id="xtick_4">
     <g id="line2d_4">
      <g>
       <use xlink:href="#m44b3d7db51" x="184.5" y="320.4" style="stroke: #000000; stroke-width: 0.8"/>
      </g>
     </g>
     <g id="text_4">
      <!-- 1.0 -->
      <g transform="translate(176.548438 334.998438)scale(0.1 -0.1)">
       <defs>
        <path id="DejaVuSans-31" d="M 794 531 
L 1825 531 
L 1825 4091 
L 703 3866 
L 703 4441 
L 1819 4666 
L 2450 4666 
L 2450 531 
L 3481 531 
L 3481 0 
L 794 0 
L 794 531 
z
" transform="scale(0.015625)"/>
       </defs>
       <use xlink:href="#DejaVuSans-31"/>
       <use xlink:href="#DejaVuSans-2e" x="63.623047"/>
       <use xlink:href="#DejaVuSans-30" x="95.410156"/>
      </g>
     </g>
    </g>
    <g id="xtick_5">
     <g id="line2d_5">
      <g>
       <use xlink:href="#m44b3d7db51" x="226.772727" y="320.4" style="stroke: #000000; stroke-width: 0.8"/>
      </g>
     </g>
     <g id="text_5">
      <!-- 1.5 -->
      <g transform="translate(218.821165 334.998438)scale(0.1 -0.1)">
       <use xlink:href="#DejaVuSans-31"/>
       <use xlink:href="#DejaVuSans-2e" x="63.623047"/>
       <use xlink:href="#DejaVuSans-35" x="95.410156"/>
      </g>
     </g>
    </g>
    <g id="xtick_6">
     <g id="line2d_6">
      <g>
       <use xlink:href="#m44b3d7db51" x="269.045455" y="320.4" style="stroke: #000000; stroke-width: 0.8"/>
      </g>
     </g>
     <g id="text_6">
      <!-- 2.0 -->
      <g transform="translate(261.093892 334.998438)scale(0.1 -0.1)">
       <defs>
        <path id="DejaVuSans-32" d="M 1228 531 
L 3431 531 
L 3431 0 
L 469 0 
L 469 531 
Q 828 903 1448 1529 
Q 2069 2156 2228 2338 
Q 2531 2678 2651 2914 
Q 2772 3150 2772 3378 
Q 2772 3750 2511 3984 
Q 2250 4219 1831 4219 
Q 1534 4219 1204 4116 
Q 875 4013 500 3803 
L 500 4441 
Q 881 4594 1212 4672 
Q 1544 4750 1819 4750 
Q 2544 4750 2975 4387 
Q 3406 4025 3406 3419 
Q 3406 3131 3298 2873 
Q 3191 2616 2906 2266 
Q 2828 2175 2409 1742 
Q 1991 1309 1228 531 
z
" transform="scale(0.015625)"/>
       </defs>
       <use xlink:href="#DejaVuSans-32"/>
       <use xlink:href="#DejaVuSans-2e" x="63.623047"/>
       <use xlink:href="#DejaVuSans-30" x="95.410156"/>
      </g>
     </g>
    </g>
    <g id="xtick_7">
     <g id="line2d_7">
      <g>
       <use xlink:href="#m44b3d7db51" x="311.318182" y="320.4" style="stroke: #000000; stroke-width: 0.8"/>
      </g>
     </g>
     <g id="text_7">
      <!-- 2.5 -->
      <g transform="translate(303.366619 334.998438)scale(0.1 -0.1)">
       <use xlink:href="#DejaVuSans-32"/>
       <use xlink:href="#DejaVuSans-2e" x="63.623047"/>
       <use xlink:href="#DejaVuSans-35" x="95.410156"/>
      </g>
     </g>
    </g>
   </g>
   <g id="matplotlib.axis_2">
    <g id="ytick_1">
     <g id="line2d_8">
      <defs>
       <path id="mb2bad1a84e" d="M 0 0 
L -3.5 0 
" style="stroke: #000000; stroke-width: 0.8"/>
      </defs>
      <g>
       <use xlink:href="#mb2bad1a84e" x="45" y="311.892779" style="stroke: #000000; stroke-width: 0.8"/>
      </g>
     </g>
     <g id="text_8">
      <!-- −4 -->
      <g transform="translate(23.257812 315.691998)scale(0.1 -0.1)">
       <defs>
        <path id="DejaVuSans-34" d="M 2419 4116 
L 825 1625 
L 2419 1625 
L 2419 4116 
z
M 2253 4666 
L 3047 4666 
L 3047 1625 
L 3713 1625 
L 3713 1100 
L 3047 1100 
L 3047 0 
L 2419 0 
L 2419 1100 
L 313 1100 
L 313 1709 
L 2253 4666 
z
" transform="scale(0.015625)"/>
       </defs>
       <use xlink:href="#DejaVuSans-2212"/>
       <use xlink:href="#DejaVuSans-34" x="83.789062"/>
      </g>
     </g>
    </g>
    <g id="ytick_2">
     <g id="line2d_9">
      <g>
       <use xlink:href="#mb2bad1a84e" x="45" y="275.19143" style="stroke: #000000; stroke-width: 0.8"/>
      </g>
     </g>
     <g id="text_9">
      <!-- −3 -->
      <g transform="translate(23.257812 278.990649)scale(0.1 -0.1)">
       <defs>
        <path id="DejaVuSans-33" d="M 2597 2516 
Q 3050 2419 3304 2112 
Q 3559 1806 3559 1356 
Q 3559 666 3084 287 
Q 2609 -91 1734 -91 
Q 1441 -91 1130 -33 
Q 819 25 488 141 
L 488 750 
Q 750 597 1062 519 
Q 1375 441 1716 441 
Q 2309 441 2620 675 
Q 2931 909 2931 1356 
Q 2931 1769 2642 2001 
Q 2353 2234 1838 2234 
L 1294 2234 
L 1294 2753 
L 1863 2753 
Q 2328 2753 2575 2939 
Q 2822 3125 2822 3475 
Q 2822 3834 2567 4026 
Q 2313 4219 1838 4219 
Q 1578 4219 1281 4162 
Q 984 4106 628 3988 
L 628 4550 
Q 988 4650 1302 4700 
Q 1616 4750 1894 4750 
Q 2613 4750 3031 4423 
Q 3450 4097 3450 3541 
Q 3450 3153 3228 2886 
Q 3006 2619 2597 2516 
z
" transform="scale(0.015625)"/>
       </defs>
       <use xlink:href="#DejaVuSans-2212"/>
       <use xlink:href="#DejaVuSans-33" x="83.789062"/>
      </g>
     </g>
    </g>
    <g id="ytick_3">
     <g id="line2d_10">
      <g>
       <use xlink:href="#mb2bad1a84e" x="45" y="238.490081" style="stroke: #000000; stroke-width: 0.8"/>
      </g>
     </g>
     <g id="text_10">
      <!-- −2 -->
      <g transform="translate(23.257812 242.2893)scale(0.1 -0.1)">
       <use xlink:href="#DejaVuSans-2212"/>
       <use xlink:href="#DejaVuSans-32" x="83.789062"/>
      </g>
     </g>
    </g>
    <g id="ytick_4">
     <g id="line2d_11">
      <g>
       <use xlink:href="#mb2bad1a84e" x="45" y="201.788732" style="stroke: #000000; stroke-width: 0.8"/>
      </g>
     </g>
     <g id="text_11">
      <!-- −1 -->
      <g transform="translate(23.257812 205.587951)scale(0.1 -0.1)">
       <use xlink:href="#DejaVuSans-2212"/>
       <use xlink:href="#DejaVuSans-31" x="83.789062"/>
      </g>
     </g>
    </g>
    <g id="ytick_5">
     <g id="line2d_12">
      <g>
       <use xlink:href="#mb2bad1a84e" x="45" y="165.087383" style="stroke: #000000; stroke-width: 0.8"/>
      </g>
     </g>
     <g id="text_12">
      <!-- 0 -->
      <g transform="translate(31.6375 168.886602)scale(0.1 -0.1)">
       <use xlink:href="#DejaVuSans-30"/>
      </g>
     </g>
    </g>
    <g id="ytick_6">
     <g id="line2d_13">
      <g>
       <use xlink:href="#mb2bad1a84e" x="45" y="128.386034" style="stroke: #000000; stroke-width: 0.8"/>
      </g>
     </g>
     <g id="text_13">
      <!-- 1 -->
      <g transform="translate(31.6375 132.185253)scale(0.1 -0.1)">
       <use xlink:href="#DejaVuSans-31"/>
      </g>
     </g>
    </g>
    <g id="ytick_7">
     <g id="line2d_14">
      <g>
       <use xlink:href="#mb2bad1a84e" x="45" y="91.684685" style="stroke: #000000; stroke-width: 0.8"/>
      </g>
     </g>
     <g id="text_14">
      <!-- 2 -->
      <g transform="translate(31.6375 95.483904)scale(0.1 -0.1)">
       <use xlink:href="#DejaVuSans-32"/>
      </g>
     </g>
    </g>
    <g id="ytick_8">
     <g id="line2d_15">
      <g>
       <use xlink:href="#mb2bad1a84e" x="45" y="54.983336" style="stroke: #000000; stroke-width: 0.8"/>
      </g>
     </g>
     <g id="text_15">
      <!-- 3 -->
      <g transform="translate(31.6375 58.782555)scale(0.1 -0.1)">
       <use xlink:href="#DejaVuSans-33"/>
      </g>
     </g>
    </g>
   </g>
   <g id="line2d_16">
    <path d="M 57.681818 107.522794 
L 57.935708 109.466245 
L 58.189598 109.140844 
L 58.443488 110.930063 
L 58.697379 110.970787 
L 58.951269 112.78686 
L 59.205159 111.780363 
L 59.712939 115.371453 
L 59.966829 114.699602 
L 60.220719 116.660562 
L 60.474609 116.673163 
L 60.728499 117.84133 
L 60.98239 116.511895 
L 61.23628 119.806189 
L 61.49017 119.827246 
L 61.744062 120.118276 
L 61.997952 121.317529 
L 62.251843 120.65025 
L 62.505733 123.240452 
L 62.759623 120.370538 
L 63.013513 124.181715 
L 63.267403 121.796524 
L 63.775186 124.975755 
L 64.029076 123.822214 
L 64.282966 125.24183 
L 64.536856 124.612137 
L 65.044636 127.793565 
L 65.298526 127.274866 
L 65.552416 128.814032 
L 65.806307 128.087977 
L 66.060197 127.761194 
L 66.314087 128.87353 
L 66.567977 131.266719 
L 66.821867 129.930776 
L 67.075757 131.182843 
L 67.329647 131.095837 
L 67.583537 133.658283 
L 67.837427 134.863902 
L 68.091317 134.259417 
L 68.345208 135.456545 
L 68.599098 133.037392 
L 68.852988 134.50425 
L 69.106878 134.757934 
L 69.360768 135.418488 
L 69.614658 136.507163 
L 69.868551 135.511092 
L 70.122441 138.718664 
L 70.376331 137.762496 
L 70.630221 139.589394 
L 70.884111 138.225526 
L 71.138001 139.873485 
L 71.391891 139.125036 
L 71.645781 140.511144 
L 71.899674 139.044021 
L 72.153564 142.086545 
L 72.661344 142.946328 
L 72.915234 140.621361 
L 73.169125 142.076181 
L 73.423015 141.333505 
L 73.676905 145.021095 
L 73.930795 145.72996 
L 74.184685 145.744433 
L 74.438575 145.937926 
L 74.692465 144.350797 
L 74.946355 144.823389 
L 75.200245 144.337936 
L 75.454135 147.188529 
L 75.708026 147.865826 
L 75.961916 146.011061 
L 76.215806 148.092212 
L 76.469696 146.598391 
L 76.723586 148.505183 
L 76.977476 147.373495 
L 77.231366 150.198485 
L 77.485256 150.044175 
L 77.739146 148.900015 
L 77.993039 149.408895 
L 78.246929 150.598053 
L 78.500819 149.365705 
L 78.754709 149.537395 
L 79.008599 152.437018 
L 79.262491 152.403383 
L 79.516381 150.056869 
L 79.770271 152.665915 
L 80.024162 153.00287 
L 80.278052 154.4296 
L 80.531943 154.002675 
L 80.785833 152.787275 
L 81.293614 155.153899 
L 81.547504 154.061098 
L 81.801394 155.636093 
L 82.055283 156.214074 
L 82.309173 155.938513 
L 82.563063 156.801075 
L 82.816953 156.626654 
L 83.070844 153.88326 
L 83.324735 155.626651 
L 83.578625 155.659636 
L 83.832515 158.184801 
L 84.340294 157.569141 
L 84.594184 156.908336 
L 84.848074 159.043262 
L 85.101964 158.448799 
L 85.355856 158.98261 
L 85.609746 158.101157 
L 85.863636 159.007654 
L 86.117527 158.666919 
L 86.371417 159.99456 
L 86.625308 160.218336 
L 86.879198 160.233422 
L 87.133088 159.991472 
L 87.386979 161.008629 
L 87.640869 158.214939 
L 87.894759 160.307567 
L 88.148651 158.550728 
L 88.402541 159.740546 
L 88.656431 162.045435 
L 88.910321 159.397249 
L 89.164211 161.344268 
L 89.418102 161.711481 
L 89.671993 162.696506 
L 89.925883 163.159379 
L 90.179771 160.968301 
L 90.433662 162.049062 
L 90.687552 161.085211 
L 90.941442 163.453648 
L 91.195333 160.729894 
L 91.449223 163.580576 
L 91.957003 162.122598 
L 92.464782 161.28335 
L 92.718672 161.217612 
L 92.972563 164.465495 
L 93.226453 162.666442 
L 93.480343 164.032122 
L 93.734234 163.555169 
L 93.988124 164.835593 
L 94.242016 161.895308 
L 94.495906 165.015127 
L 94.749796 162.785773 
L 95.003687 163.216638 
L 95.257577 163.357051 
L 95.511467 165.034104 
L 95.765357 162.459422 
L 96.019248 163.806404 
L 96.273139 164.052686 
L 96.527029 165.981847 
L 96.780919 163.667142 
L 97.2887 165.414392 
L 97.54259 163.060927 
L 98.050371 165.770085 
L 98.30426 165.737792 
L 98.81204 163.883622 
L 99.065931 165.42225 
L 99.319821 166.042426 
L 99.573711 165.662835 
L 99.827601 166.441411 
L 100.081492 164.449099 
L 100.335381 163.713219 
L 100.589271 166.888373 
L 100.843161 164.758753 
L 101.097051 164.258213 
L 101.350942 164.891762 
L 101.604832 165.893433 
L 101.858722 164.294627 
L 102.112612 164.29769 
L 102.366506 164.5826 
L 102.620397 165.595115 
L 102.874287 165.759603 
L 103.128177 165.075536 
L 103.382068 165.591374 
L 103.635958 165.806584 
L 103.889848 164.07647 
L 104.143738 163.659332 
L 104.397627 165.402205 
L 104.651517 165.612783 
L 104.905408 165.15376 
L 105.159298 165.265982 
L 105.413188 164.688383 
L 105.667078 164.585724 
L 105.920969 166.734392 
L 106.174859 165.709898 
L 106.428748 163.449648 
L 107.190419 165.972353 
L 107.444309 165.94038 
L 107.698199 166.410538 
L 108.459869 163.428232 
L 108.713759 163.689746 
L 108.967649 166.095202 
L 109.22154 165.510203 
L 109.47543 164.627281 
L 109.72932 162.491009 
L 109.983211 163.926667 
L 110.237101 164.590808 
L 110.49099 163.277345 
L 110.74488 164.65396 
L 110.99877 165.058779 
L 111.25266 162.445173 
L 111.50655 164.53007 
L 111.760442 163.972192 
L 112.014332 165.336091 
L 112.268222 162.186225 
L 112.522116 161.925494 
L 112.776006 162.546053 
L 113.029896 164.391044 
L 113.283786 164.816894 
L 113.537676 164.388138 
L 113.791567 161.418925 
L 114.045457 161.793582 
L 114.299348 161.015346 
L 115.061017 162.218619 
L 115.314907 163.472037 
L 115.822688 163.53774 
L 116.076578 160.939177 
L 116.330468 162.458193 
L 116.584357 161.791188 
L 116.838247 162.340409 
L 117.092137 161.47897 
L 117.346028 162.294245 
L 117.599918 162.057645 
L 117.853809 160.103643 
L 118.107699 161.109365 
L 118.361589 159.280631 
L 118.615483 160.849596 
L 118.869373 161.452328 
L 119.123263 160.273163 
L 119.377153 160.680054 
L 119.631044 160.19099 
L 119.884935 161.213544 
L 120.138825 158.274825 
L 120.392715 160.412041 
L 120.646604 158.043035 
L 120.900494 157.961552 
L 121.154384 157.310154 
L 121.408274 159.853706 
L 121.662164 156.949295 
L 121.916054 158.957598 
L 122.423835 156.002893 
L 122.677725 157.800226 
L 122.931615 157.368895 
L 123.185505 157.588574 
L 123.439395 158.507832 
L 123.693285 155.902542 
L 123.947175 158.410654 
L 124.201065 155.253644 
L 124.708846 154.259717 
L 124.962736 156.226426 
L 125.216626 157.097955 
L 125.470516 154.972433 
L 125.724406 154.164312 
L 125.978296 156.795788 
L 126.232186 155.175378 
L 126.486076 155.646663 
L 126.739966 154.493168 
L 126.993856 155.020231 
L 127.501637 154.263076 
L 127.755527 155.203622 
L 128.009417 151.731621 
L 128.263307 151.474812 
L 128.517197 153.075321 
L 128.771092 152.769045 
L 129.024982 153.079977 
L 129.278872 153.757606 
L 129.532763 153.653981 
L 129.786653 150.952364 
L 130.040543 152.406526 
L 130.294433 152.341754 
L 130.548323 151.066693 
L 130.802213 151.294561 
L 131.056103 151.035563 
L 131.309993 150.139814 
L 131.563883 150.343411 
L 132.071664 150.339129 
L 132.325554 150.704864 
L 132.579444 147.422205 
L 132.833334 149.443336 
L 133.087224 147.969318 
L 133.341114 148.837466 
L 133.595004 147.795416 
L 133.848894 145.976079 
L 134.102784 146.582448 
L 134.356675 148.75779 
L 134.610565 146.177432 
L 134.86446 144.900746 
L 135.11835 145.895465 
L 135.62613 144.036229 
L 135.88002 145.858202 
L 136.13391 144.926467 
L 136.3878 146.311832 
L 136.64169 145.142341 
L 136.895581 143.131681 
L 137.149471 143.275245 
L 137.403361 145.101248 
L 137.657251 145.134383 
L 137.911141 144.638509 
L 138.165031 144.91591 
L 138.418921 144.240178 
L 138.672811 142.996048 
L 138.926701 141.020708 
L 139.180591 141.667763 
L 139.434482 143.085311 
L 139.688372 142.875186 
L 139.942262 140.202548 
L 140.196152 142.191739 
L 140.703932 139.36578 
L 140.957822 140.803428 
L 141.211712 139.861241 
L 141.465602 139.526853 
L 141.719493 139.506205 
L 141.973383 139.706422 
L 142.227273 140.114754 
L 142.481163 139.664222 
L 142.735053 138.864389 
L 142.988943 135.809379 
L 143.242833 138.167138 
L 143.496723 138.21115 
L 143.750613 136.231182 
L 144.004503 135.86645 
L 144.512284 134.367065 
L 144.766174 134.433565 
L 145.020064 136.96759 
L 145.273954 134.67716 
L 145.527844 133.419254 
L 146.035624 134.991603 
L 146.289514 131.849258 
L 146.543404 133.972727 
L 146.797295 134.018018 
L 147.051195 134.313728 
L 147.305085 132.262676 
L 147.558975 131.216035 
L 147.812865 131.306833 
L 148.066755 131.033266 
L 148.320645 132.470229 
L 148.574535 132.473954 
L 149.082316 128.448207 
L 149.336206 128.742422 
L 149.590096 130.548518 
L 149.843986 129.396604 
L 150.097876 130.188868 
L 150.351766 129.398424 
L 150.859546 126.866188 
L 151.113436 126.020605 
L 151.367326 128.90019 
L 151.621217 125.662574 
L 151.875107 127.857364 
L 152.128997 125.548965 
L 152.382887 124.355728 
L 152.636777 125.554867 
L 152.890667 123.582557 
L 153.144557 126.486689 
L 153.398447 125.29455 
L 153.652337 123.193371 
L 153.906228 124.333065 
L 154.160118 123.978052 
L 154.414008 124.035966 
L 154.667898 121.674497 
L 155.175678 121.686747 
L 155.429568 122.973135 
L 155.683458 123.098238 
L 155.937348 121.076515 
L 156.191238 120.397327 
L 156.445129 121.453976 
L 156.699019 120.785512 
L 156.952909 118.69776 
L 157.206799 119.45567 
L 157.460689 119.18351 
L 157.714579 119.382093 
L 157.968469 120.256216 
L 158.222359 119.9835 
L 158.476249 118.798672 
L 158.730139 118.517469 
L 158.98403 116.675906 
L 159.23792 117.44461 
L 159.49181 117.290889 
L 159.7457 114.485754 
L 159.99959 115.258391 
L 160.25348 114.251417 
L 160.50737 116.109933 
L 160.76126 115.632894 
L 161.01515 113.870534 
L 161.26904 115.429205 
L 161.522931 115.067582 
L 161.776821 113.617992 
L 162.284601 114.227546 
L 162.538491 111.424568 
L 162.792381 110.698491 
L 163.046271 111.537613 
L 163.300161 111.815902 
L 163.554051 112.857256 
L 164.315722 109.275568 
L 164.569612 110.034043 
L 164.823502 110.188818 
L 165.077392 108.102102 
L 165.331292 110.247475 
L 165.585182 107.287735 
L 165.839072 108.821052 
L 166.092963 107.742768 
L 166.346853 107.795335 
L 166.600743 106.872211 
L 166.854633 107.311374 
L 167.108523 105.084795 
L 167.362413 106.129316 
L 167.616303 104.311825 
L 167.870193 103.642761 
L 168.124083 105.964251 
L 168.377973 106.072216 
L 168.631864 102.924774 
L 168.885754 102.622854 
L 169.139644 105.126048 
L 169.393534 103.531059 
L 169.647424 104.863408 
L 169.901314 104.220875 
L 170.155204 102.029467 
L 170.409094 101.561217 
L 170.662984 101.326268 
L 170.916874 101.880896 
L 171.170765 99.355013 
L 171.678545 101.465061 
L 172.186325 99.27731 
L 172.440215 98.743858 
L 172.694105 100.352956 
L 172.947995 98.037028 
L 173.201885 99.332105 
L 173.455775 99.589717 
L 173.709666 98.73796 
L 173.963556 95.637114 
L 174.217446 95.509893 
L 174.471336 95.107586 
L 174.725226 95.346416 
L 174.979116 94.710629 
L 175.233006 96.016399 
L 175.486896 96.454885 
L 175.740786 94.203257 
L 175.994677 95.746615 
L 176.248567 95.710292 
L 177.010237 92.559306 
L 177.264127 93.8954 
L 177.518017 93.941991 
L 177.771907 92.294352 
L 178.025797 93.304183 
L 178.279687 93.098604 
L 178.533578 90.629357 
L 178.787468 91.57689 
L 179.041358 89.275224 
L 179.295248 88.851168 
L 179.549148 89.772354 
L 179.803038 89.375371 
L 180.056928 89.270823 
L 180.310818 89.351947 
L 180.564708 89.202221 
L 180.818599 88.732401 
L 181.326379 86.431636 
L 181.580269 88.304774 
L 181.834159 88.297135 
L 182.088049 87.658898 
L 182.341939 87.795044 
L 182.849719 84.929317 
L 183.103609 84.560799 
L 183.3575 84.850845 
L 183.61139 86.74242 
L 184.62695 84.044821 
L 184.88084 85.583707 
L 185.13473 83.032431 
L 185.38862 84.708977 
L 185.6425 84.176679 
L 185.896391 84.248729 
L 186.150281 80.83275 
L 186.404171 83.879047 
L 186.658061 80.467784 
L 186.911951 81.625622 
L 187.165841 81.490299 
L 187.419731 79.843171 
L 187.673621 80.875757 
L 187.927511 79.271612 
L 188.181401 78.813211 
L 188.435292 81.45185 
L 188.689182 78.872371 
L 188.943072 78.953075 
L 189.704752 77.967872 
L 189.958642 79.078502 
L 190.212532 78.157648 
L 190.466422 75.907758 
L 190.720313 76.148084 
L 191.228093 78.570163 
L 191.481983 76.497378 
L 191.735873 77.562323 
L 191.989763 74.556661 
L 192.243653 76.900547 
L 192.497543 75.657937 
L 192.751433 75.673023 
L 193.005323 74.680854 
L 193.259214 73.023638 
L 193.513104 74.320614 
L 193.766994 73.178063 
L 194.020884 72.563793 
L 194.274774 72.255486 
L 194.528664 74.120915 
L 194.782554 73.649292 
L 195.036444 72.107632 
L 195.290334 73.2474 
L 195.544225 71.643508 
L 196.052005 73.26428 
L 196.305895 71.033412 
L 196.559785 71.261278 
L 196.813675 70.488278 
L 197.067565 69.248722 
L 197.321455 69.585949 
L 197.575345 68.867778 
L 198.083126 71.727922 
L 198.590906 70.837765 
L 198.844796 71.091742 
L 199.098686 70.172804 
L 199.352576 70.722348 
L 199.606466 70.507879 
L 199.860356 69.694829 
L 200.114246 70.192536 
L 200.368136 69.296761 
L 200.622027 67.25931 
L 200.875917 66.218858 
L 201.129807 68.087428 
L 201.383697 67.869283 
L 201.637587 66.151393 
L 201.891477 67.834107 
L 202.145367 67.595732 
L 202.399257 65.398553 
L 202.653147 67.931087 
L 203.160928 64.322627 
L 203.414818 65.437571 
L 203.668708 65.063663 
L 203.922598 66.443749 
L 204.176488 65.214579 
L 204.430378 64.904512 
L 204.938158 63.930501 
L 205.192048 62.870955 
L 205.445939 65.69013 
L 205.699829 64.060355 
L 205.953729 64.860105 
L 206.207619 65.224808 
L 206.461509 63.752013 
L 206.715399 65.0543 
L 206.969289 61.994291 
L 207.477069 63.942148 
L 207.73096 61.836304 
L 207.98485 64.376284 
L 208.23874 63.195661 
L 208.49263 62.691811 
L 208.74652 63.744251 
L 209.00041 63.204472 
L 209.2543 62.191951 
L 209.50819 60.357043 
L 209.76208 59.836567 
L 210.01597 60.302371 
L 210.269861 62.42925 
L 210.523751 62.39977 
L 210.777641 59.46573 
L 211.285421 60.761034 
L 211.539311 60.436154 
L 211.793201 62.036266 
L 212.047091 61.053338 
L 212.300981 58.555674 
L 212.554871 60.658534 
L 212.808762 60.184128 
L 213.062652 61.504231 
L 213.316542 60.89781 
L 213.570432 59.801846 
L 213.824322 60.799746 
L 214.332102 58.711123 
L 214.585992 61.155585 
L 214.839882 58.720547 
L 215.093772 60.386391 
L 215.347663 59.978505 
L 215.601553 58.290716 
L 215.855443 57.450898 
L 216.109333 59.328797 
L 216.363223 59.500364 
L 216.617113 60.32849 
L 216.871003 59.540134 
L 217.124893 60.127943 
L 217.632674 58.008668 
L 217.886564 60.037176 
L 218.140454 56.653135 
L 218.394344 57.044028 
L 218.648234 59.934299 
L 218.902124 58.959517 
L 219.156014 57.432269 
L 219.409904 58.35818 
L 219.663794 58.134138 
L 219.917684 58.718403 
L 220.171575 56.374185 
L 220.425465 58.834931 
L 220.679355 56.251016 
L 220.933245 57.62075 
L 221.187135 57.339341 
L 221.441025 56.248417 
L 221.694915 57.956857 
L 221.948805 58.676516 
L 222.202705 57.908547 
L 222.456596 56.106172 
L 222.710486 58.941649 
L 222.964376 57.151849 
L 223.218266 59.362993 
L 223.472156 56.591306 
L 223.726046 56.872207 
L 223.979936 57.472004 
L 224.233826 56.764631 
L 224.487716 57.555491 
L 224.741606 56.550302 
L 224.995497 59.029476 
L 225.757167 55.8 
L 226.011057 56.715315 
L 226.264947 59.010181 
L 226.518837 56.293035 
L 226.772727 58.145155 
L 227.026617 58.162305 
L 227.280507 59.475942 
L 227.788288 56.594167 
L 228.296068 59.057206 
L 228.549958 57.476187 
L 228.803848 58.685196 
L 229.057738 56.480195 
L 229.311628 59.810255 
L 229.565518 58.862179 
L 229.819409 60.122483 
L 230.581079 56.807245 
L 230.834969 58.34621 
L 231.088859 56.939199 
L 231.342749 58.466194 
L 231.596639 57.855625 
L 231.850529 57.537745 
L 232.104419 57.571512 
L 232.35831 60.232526 
L 232.6122 57.621354 
L 232.86609 58.303211 
L 233.11998 60.382497 
L 233.37387 60.513086 
L 233.62776 61.292728 
L 233.88165 59.412187 
L 234.13554 61.483274 
L 234.38943 59.346779 
L 234.64332 59.671939 
L 234.897211 61.978549 
L 235.151101 60.020384 
L 235.404991 60.809231 
L 235.658881 59.964592 
L 235.912771 59.89627 
L 236.166661 62.923291 
L 236.420551 59.569185 
L 236.674441 59.869774 
L 236.928331 60.838614 
L 237.182221 63.409387 
L 237.436112 62.554703 
L 237.943892 62.715139 
L 238.197782 61.386137 
L 238.451672 61.934745 
L 238.705562 61.33269 
L 238.959452 63.661683 
L 239.213342 62.548394 
L 239.467232 62.708165 
L 239.721123 65.08763 
L 239.975013 65.542119 
L 240.228903 64.920123 
L 240.482793 62.921243 
L 240.736683 66.118221 
L 240.990573 66.20463 
L 241.244463 63.79971 
L 241.498353 64.061711 
L 241.752243 63.770379 
L 242.006133 66.896304 
L 242.260024 67.089108 
L 242.513924 65.043502 
L 242.767814 64.631582 
L 243.275594 66.436171 
L 243.529484 66.372626 
L 243.783374 65.493232 
L 244.037264 68.680242 
L 244.291154 68.594481 
L 244.545045 66.746631 
L 244.798935 69.558543 
L 245.052825 69.591339 
L 245.306715 67.520252 
L 245.560605 68.565062 
L 245.814495 68.839296 
L 246.068385 70.501894 
L 246.322275 70.04526 
L 246.576165 68.640166 
L 246.830055 71.724737 
L 247.337836 70.369659 
L 247.591726 72.824674 
L 247.845616 70.095058 
L 248.099506 73.117424 
L 248.353396 72.968616 
L 248.607286 73.355816 
L 249.115066 75.334675 
L 249.368956 72.842708 
L 249.622847 73.737294 
L 249.876737 76.29508 
L 250.130627 76.112987 
L 250.384517 73.477795 
L 250.638417 74.953811 
L 250.892307 75.286706 
L 251.146197 77.49288 
L 251.400087 77.575483 
L 251.653977 77.428216 
L 251.907868 77.871146 
L 252.161758 79.181484 
L 252.415648 78.165497 
L 252.669538 78.531163 
L 252.923428 79.346925 
L 253.177318 79.265443 
L 253.431208 80.656642 
L 253.685098 79.865388 
L 253.938988 80.068867 
L 254.446769 83.429204 
L 254.700659 81.079805 
L 254.954549 82.037655 
L 255.208439 83.84801 
L 255.462329 81.58992 
L 255.716219 84.636209 
L 255.970109 83.018614 
L 256.223999 83.784352 
L 256.477889 86.714892 
L 256.73178 84.458246 
L 256.98567 87.79885 
L 257.49345 87.370279 
L 257.74734 88.784264 
L 258.00123 86.242096 
L 258.25512 88.894771 
L 258.50901 88.294186 
L 258.7629 91.162433 
L 259.01679 88.972797 
L 259.524571 92.44914 
L 259.778461 91.303776 
L 260.286241 91.035274 
L 260.540131 94.276646 
L 260.794021 94.595887 
L 261.047911 93.881553 
L 261.809582 94.879514 
L 262.063472 96.862884 
L 262.317362 95.991894 
L 262.571252 96.22778 
L 262.825142 98.634016 
L 263.079032 97.42778 
L 263.332922 98.420028 
L 263.586812 98.286017 
L 263.840702 101.54016 
L 264.094593 102.001007 
L 264.348483 102.227608 
L 264.602373 102.210804 
L 264.856263 101.814188 
L 265.110153 104.579588 
L 265.364043 103.234508 
L 265.617933 105.436954 
L 265.871823 104.301526 
L 266.379603 108.293904 
L 266.633494 108.341235 
L 266.887384 109.309768 
L 267.141274 107.72654 
L 267.395164 110.527064 
L 267.649054 110.114191 
L 267.902944 110.235067 
L 268.156834 112.311934 
L 268.410724 111.455771 
L 268.664614 114.461371 
L 268.918504 114.671907 
L 269.172405 115.716079 
L 269.426285 115.30762 
L 269.680185 116.125447 
L 269.934065 115.903457 
L 270.187965 117.219885 
L 270.441845 116.737215 
L 270.695745 116.641806 
L 271.457405 122.245838 
L 271.711306 120.607478 
L 271.965186 122.93095 
L 272.219086 121.842861 
L 272.472966 122.309719 
L 272.726866 123.593692 
L 272.980746 123.349769 
L 273.234646 124.104057 
L 273.742426 128.750236 
L 273.996307 126.564382 
L 274.250207 129.87066 
L 274.504087 130.667926 
L 274.757987 129.07217 
L 275.011867 129.997515 
L 275.773547 135.42961 
L 276.027427 134.90913 
L 276.281328 133.796671 
L 276.535208 135.932758 
L 277.296888 139.602058 
L 277.550768 138.732966 
L 277.804668 140.583555 
L 278.058548 140.378273 
L 278.312448 142.777717 
L 278.566328 142.537406 
L 278.820229 143.473347 
L 279.074109 144.835141 
L 279.328009 144.877225 
L 279.581889 145.788206 
L 279.835789 146.15066 
L 280.089669 147.359674 
L 280.597449 152.178231 
L 280.851349 151.224537 
L 281.61303 154.706464 
L 281.86693 155.270451 
L 282.12081 154.980812 
L 282.88249 159.997093 
L 283.13637 160.682331 
L 283.390271 161.928286 
L 283.644151 160.565537 
L 283.898051 162.246125 
L 284.151931 162.568953 
L 284.405831 165.233911 
L 284.913611 166.647827 
L 285.167491 170.051957 
L 285.421391 169.187651 
L 285.675271 170.51648 
L 286.183052 173.919442 
L 286.436952 171.930498 
L 287.198612 175.017166 
L 287.452512 178.595713 
L 287.706392 179.256473 
L 287.960292 179.339233 
L 288.214172 181.437334 
L 288.468073 182.600435 
L 288.721953 184.869066 
L 288.975853 183.977151 
L 289.229733 186.702911 
L 289.483633 186.656917 
L 289.737513 186.070033 
L 289.991413 189.565592 
L 290.245293 190.726628 
L 290.499193 190.194633 
L 290.753073 193.135749 
L 291.006974 193.784163 
L 291.260854 193.084468 
L 291.514754 196.727736 
L 291.768634 198.471644 
L 292.276414 200.052536 
L 292.784194 202.90522 
L 293.038094 202.425468 
L 293.545875 206.199789 
L 293.799755 208.270128 
L 294.053655 208.660461 
L 294.815315 213.48941 
L 295.069215 212.70142 
L 295.323095 215.713964 
L 295.830875 218.421538 
L 296.084776 217.443947 
L 296.338656 220.608435 
L 296.592556 221.561279 
L 296.846436 220.671717 
L 297.354216 223.689405 
L 297.608116 227.809336 
L 298.115896 229.428987 
L 298.369777 228.564354 
L 298.877557 234.160051 
L 299.131457 234.13944 
L 299.385337 236.945647 
L 299.639237 237.298524 
L 299.893117 238.783347 
L 300.147017 238.079006 
L 300.654798 242.784519 
L 300.908678 243.562515 
L 301.162578 245.816868 
L 301.416458 245.98714 
L 301.924238 249.076874 
L 302.178138 251.725541 
L 302.432018 250.891718 
L 302.939798 256.085413 
L 303.193699 255.688369 
L 303.701479 257.964607 
L 304.209259 263.395846 
L 304.463139 263.337797 
L 304.717039 264.201818 
L 304.970919 269.088965 
L 305.224819 269.036034 
L 305.478699 271.586366 
L 305.7326 271.525866 
L 305.98648 272.648466 
L 306.24038 275.332834 
L 306.49426 276.6602 
L 306.74816 277.24051 
L 307.25594 282.747203 
L 307.50982 281.31781 
L 307.76372 285.296502 
L 308.271501 287.393683 
L 308.525381 289.284129 
L 308.779281 292.514069 
L 309.033161 291.566702 
L 309.287061 294.86989 
L 309.540941 296.622493 
L 309.794841 296.873722 
L 310.048721 299.917955 
L 311.318182 307.8 
L 311.318182 307.8 
" clip-path="url(#p9bd883d37b)" style="fill: none; stroke: #1f77b4; stroke-width: 1.5; stroke-linecap: square"/>
   </g>
   <g id="line2d_17">
    <path d="M 57.681818 171.094069 
L 67.075757 170.434936 
L 74.946355 169.667378 
L 81.801394 168.78489 
L 87.894759 167.787077 
L 93.480343 166.654811 
L 98.55815 165.408831 
L 103.382068 164.000629 
L 107.95209 162.433691 
L 112.268222 160.717266 
L 116.330468 158.866544 
L 120.392715 156.763193 
L 124.201065 154.54025 
L 128.009417 152.054313 
L 131.817773 149.286939 
L 135.37224 146.435784 
L 138.926701 143.314677 
L 142.735053 139.66318 
L 146.543404 135.691034 
L 150.351766 131.403143 
L 154.414008 126.497384 
L 158.730139 120.942965 
L 163.807942 114.030736 
L 170.409094 104.631734 
L 182.341939 87.572 
L 186.911951 81.447854 
L 190.720313 76.684606 
L 194.274774 72.594465 
L 197.321455 69.409389 
L 200.114246 66.781526 
L 202.907037 64.457825 
L 205.445939 62.627529 
L 207.98485 61.080715 
L 210.269861 59.941182 
L 212.554871 59.048923 
L 214.839882 58.410349 
L 216.871003 58.059868 
L 218.902124 57.916664 
L 220.933245 57.982698 
L 222.964376 58.25912 
L 224.995497 58.746242 
L 227.026617 59.443502 
L 229.311628 60.477279 
L 231.596639 61.771662 
L 233.88165 63.321621 
L 236.420551 65.335383 
L 238.959452 67.644787 
L 241.752243 70.509542 
L 244.545045 73.692082 
L 247.591726 77.495098 
L 250.892307 81.960328 
L 254.700659 87.486765 
L 259.270681 94.519281 
L 266.379603 105.935234 
L 275.265767 120.143522 
L 280.343569 127.837694 
L 284.659711 133.984035 
L 288.721953 139.374634 
L 292.530314 144.048782 
L 296.084776 148.06609 
L 299.639237 151.747072 
L 303.193699 155.096485 
L 306.74816 158.125078 
L 310.302621 160.84815 
L 311.318182 161.572575 
L 311.318182 161.572575 
" clip-path="url(#p9bd883d37b)" style="fill: none; stroke: #ff7f0e; stroke-width: 1.5; stroke-linecap: square"/>
   </g>
   <g id="line2d_18">
    <path d="M 57.681818 170.913638 
L 67.075757 170.271762 
L 75.200245 169.496377 
L 82.055283 168.628863 
L 88.402541 167.6021 
L 93.988124 166.478568 
L 99.065931 165.242204 
L 103.889848 163.844844 
L 108.459869 162.289938 
L 112.776006 160.586558 
L 116.838247 158.749727 
L 120.900494 156.661782 
L 124.708846 154.454694 
L 128.517197 151.985869 
L 132.325554 149.236825 
L 135.88002 146.403695 
L 139.434482 143.301465 
L 143.242833 139.671016 
L 147.051195 135.720718 
L 150.859546 131.455419 
L 154.921788 126.574542 
L 159.49181 120.712355 
L 164.569612 113.815526 
L 171.424655 104.083316 
L 182.849719 87.83526 
L 187.419731 81.741685 
L 191.228093 77.003276 
L 194.782554 72.93575 
L 197.829235 69.769556 
L 200.622027 67.158638 
L 203.414818 64.851521 
L 205.953729 63.036038 
L 208.49263 61.503776 
L 210.777641 60.377168 
L 213.062652 59.497712 
L 215.347663 58.871813 
L 217.378783 58.532477 
L 219.409904 58.400348 
L 221.441025 58.477368 
L 223.472156 58.76471 
L 225.503277 59.26261 
L 227.534398 59.970569 
L 229.819409 61.016201 
L 232.104419 62.322199 
L 234.38943 63.883547 
L 236.928331 65.909561 
L 239.467232 68.230793 
L 242.260024 71.107895 
L 245.052825 74.302019 
L 248.099506 78.116688 
L 251.653977 82.950975 
L 255.462329 88.51241 
L 260.286241 95.977438 
L 267.902944 108.250761 
L 276.027427 121.215872 
L 281.10525 128.89152 
L 285.421391 135.016767 
L 289.483633 140.384733 
L 293.291974 145.036393 
L 296.846436 149.032524 
L 300.400897 152.692754 
L 303.955359 156.02232 
L 307.50982 159.032275 
L 311.064282 161.738156 
L 311.318182 161.920267 
L 311.318182 161.920267 
" clip-path="url(#p9bd883d37b)" style="fill: none; stroke: #2ca02c; stroke-width: 1.5; stroke-linecap: square"/>
   </g>
   <g id="line2d_19">
    <path d="M 57.681818 170.348162 
L 67.075757 169.68692 
L 74.946355 168.916108 
L 81.801394 168.029141 
L 87.894759 167.02559 
L 93.480343 165.886118 
L 98.55815 164.631616 
L 103.382068 163.213197 
L 107.95209 161.634447 
L 112.268222 159.904684 
L 116.330468 158.039345 
L 120.392715 155.919195 
L 124.201065 153.678505 
L 128.009417 151.172807 
L 131.817773 148.383731 
L 135.37224 145.51063 
L 138.926701 142.366102 
L 142.735053 138.688012 
L 146.543404 134.688104 
L 150.351766 130.371703 
L 154.414008 125.435281 
L 158.98403 119.510438 
L 164.061832 112.545343 
L 170.916874 102.726843 
L 181.834159 87.065235 
L 186.658061 80.564081 
L 190.466422 75.778778 
L 194.020884 71.66695 
L 197.067565 68.462273 
L 199.860356 65.815522 
L 202.653147 63.471899 
L 205.192048 61.622447 
L 207.73096 60.055429 
L 210.01597 58.896734 
L 212.300981 57.984325 
L 214.585992 57.324571 
L 216.617113 56.954416 
L 218.648234 56.790751 
L 220.679355 56.835605 
L 222.710486 57.090116 
L 224.741606 57.554773 
L 226.772727 58.229105 
L 229.057738 59.236665 
L 231.342749 60.504704 
L 233.62776 62.028496 
L 236.166661 64.01376 
L 238.705562 66.295808 
L 241.498353 69.132527 
L 244.291154 72.289927 
L 247.337836 76.069804 
L 250.638417 80.516261 
L 254.446769 86.030681 
L 259.01679 93.064473 
L 265.617933 103.6922 
L 275.773547 120.032156 
L 280.851349 127.749591 
L 285.167491 133.910261 
L 289.229733 139.310809 
L 293.038094 143.991904 
L 296.592556 148.014156 
L 300.147017 151.698933 
L 303.701479 155.051363 
L 307.25594 158.08242 
L 310.810402 160.807576 
L 311.318182 161.172957 
L 311.318182 161.172957 
" clip-path="url(#p9bd883d37b)" style="fill: none; stroke: #d62728; stroke-width: 1.5; stroke-linecap: square"/>
   </g>
   <g id="line2d_20">
    <path d="M 57.681818 171.124019 
L 67.075757 170.473728 
L 74.946355 169.715887 
L 81.801394 168.844071 
L 88.148651 167.811752 
L 93.734234 166.681817 
L 98.81204 165.438317 
L 103.635958 164.032893 
L 108.20598 162.469129 
L 112.522116 160.756377 
L 116.584357 158.909916 
L 120.646604 156.811803 
L 124.454955 154.59486 
L 128.263307 152.116082 
L 132.071664 149.357177 
L 135.62613 146.515068 
L 139.180591 143.404132 
L 142.988943 139.764469 
L 146.797295 135.804844 
L 150.605656 131.52974 
L 154.667898 126.637233 
L 158.98403 121.095626 
L 164.061832 114.195537 
L 170.662984 104.805324 
L 182.849719 87.386336 
L 187.419731 81.271629 
L 191.228093 76.51963 
L 194.782554 72.443074 
L 197.829235 69.272146 
L 200.622027 66.659408 
L 203.414818 64.352912 
L 205.953729 62.540046 
L 208.49263 61.012343 
L 210.777641 59.891458 
L 213.062652 59.019098 
L 215.347663 58.401643 
L 217.378783 58.07083 
L 219.409904 57.948046 
L 221.441025 58.035181 
L 223.472156 58.333242 
L 225.503277 58.84236 
L 227.534398 59.561852 
L 229.819409 60.620671 
L 232.104419 61.939864 
L 234.38943 63.514066 
L 236.928331 65.553713 
L 239.467232 67.887432 
L 242.260024 70.77653 
L 245.052825 73.980219 
L 248.099506 77.801984 
L 251.653977 82.639158 
L 255.716219 88.578448 
L 260.540131 96.045205 
L 269.426285 110.312262 
L 276.281328 121.11982 
L 281.10525 128.330085 
L 285.421391 134.385718 
L 289.229733 139.366227 
L 293.038094 143.978313 
L 296.592556 147.938395 
L 300.147017 151.56388 
L 303.701479 154.860232 
L 307.25594 157.838818 
L 310.810402 160.515256 
L 311.318182 160.874 
L 311.318182 160.874 
" clip-path="url(#p9bd883d37b)" style="fill: none; stroke: #9467bd; stroke-width: 1.5; stroke-linecap: square"/>
   </g>
   <g id="patch_3">
    <path d="M 45 320.4 
L 45 43.2 
" style="fill: none; stroke: #000000; stroke-width: 0.8; stroke-linejoin: miter; stroke-linecap: square"/>
   </g>
   <g id="patch_4">
    <path d="M 324 320.4 
L 324 43.2 
" style="fill: none; stroke: #000000; stroke-width: 0.8; stroke-linejoin: miter; stroke-linecap: square"/>
   </g>
   <g id="patch_5">
    <path d="M 45 320.4 
L 324 320.4 
" style="fill: none; stroke: #000000; stroke-width: 0.8; stroke-linejoin: miter; stroke-linecap: square"/>
   </g>
   <g id="patch_6">
    <path d="M 45 43.2 
L 324 43.2 
" style="fill: none; stroke: #000000; stroke-width: 0.8; stroke-linejoin: miter; stroke-linecap: square"/>
   </g>
   <g id="text_16">
    <!-- Prediction Curves -->
    <g transform="translate(131.961563 37.2)scale(0.12 -0.12)">
     <defs>
      <path id="DejaVuSans-50" d="M 1259 4147 
L 1259 2394 
L 2053 2394 
Q 2494 2394 2734 2622 
Q 2975 2850 2975 3272 
Q 2975 3691 2734 3919 
Q 2494 4147 2053 4147 
L 1259 4147 
z
M 628 4666 
L 2053 4666 
Q 2838 4666 3239 4311 
Q 3641 3956 3641 3272 
Q 3641 2581 3239 2228 
Q 2838 1875 2053 1875 
L 1259 1875 
L 1259 0 
L 628 0 
L 628 4666 
z
" transform="scale(0.015625)"/>
      <path id="DejaVuSans-72" d="M 2631 2963 
Q 2534 3019 2420 3045 
Q 2306 3072 2169 3072 
Q 1681 3072 1420 2755 
Q 1159 2438 1159 1844 
L 1159 0 
L 581 0 
L 581 3500 
L 1159 3500 
L 1159 2956 
Q 1341 3275 1631 3429 
Q 1922 3584 2338 3584 
Q 2397 3584 2469 3576 
Q 2541 3569 2628 3553 
L 2631 2963 
z
" transform="scale(0.015625)"/>
      <path id="DejaVuSans-65" d="M 3597 1894 
L 3597 1613 
L 953 1613 
Q 991 1019 1311 708 
Q 1631 397 2203 397 
Q 2534 397 2845 478 
Q 3156 559 3463 722 
L 3463 178 
Q 3153 47 2828 -22 
Q 2503 -91 2169 -91 
Q 1331 -91 842 396 
Q 353 884 353 1716 
Q 353 2575 817 3079 
Q 1281 3584 2069 3584 
Q 2775 3584 3186 3129 
Q 3597 2675 3597 1894 
z
M 3022 2063 
Q 3016 2534 2758 2815 
Q 2500 3097 2075 3097 
Q 1594 3097 1305 2825 
Q 1016 2553 972 2059 
L 3022 2063 
z
" transform="scale(0.015625)"/>
      <path id="DejaVuSans-64" d="M 2906 2969 
L 2906 4863 
L 3481 4863 
L 3481 0 
L 2906 0 
L 2906 525 
Q 2725 213 2448 61 
Q 2172 -91 1784 -91 
Q 1150 -91 751 415 
Q 353 922 353 1747 
Q 353 2572 751 3078 
Q 1150 3584 1784 3584 
Q 2172 3584 2448 3432 
Q 2725 3281 2906 2969 
z
M 947 1747 
Q 947 1113 1208 752 
Q 1469 391 1925 391 
Q 2381 391 2643 752 
Q 2906 1113 2906 1747 
Q 2906 2381 2643 2742 
Q 2381 3103 1925 3103 
Q 1469 3103 1208 2742 
Q 947 2381 947 1747 
z
" transform="scale(0.015625)"/>
      <path id="DejaVuSans-69" d="M 603 3500 
L 1178 3500 
L 1178 0 
L 603 0 
L 603 3500 
z
M 603 4863 
L 1178 4863 
L 1178 4134 
L 603 4134 
L 603 4863 
z
" transform="scale(0.015625)"/>
      <path id="DejaVuSans-63" d="M 3122 3366 
L 3122 2828 
Q 2878 2963 2633 3030 
Q 2388 3097 2138 3097 
Q 1578 3097 1268 2742 
Q 959 2388 959 1747 
Q 959 1106 1268 751 
Q 1578 397 2138 397 
Q 2388 397 2633 464 
Q 2878 531 3122 666 
L 3122 134 
Q 2881 22 2623 -34 
Q 2366 -91 2075 -91 
Q 1284 -91 818 406 
Q 353 903 353 1747 
Q 353 2603 823 3093 
Q 1294 3584 2113 3584 
Q 2378 3584 2631 3529 
Q 2884 3475 3122 3366 
z
" transform="scale(0.015625)"/>
      <path id="DejaVuSans-74" d="M 1172 4494 
L 1172 3500 
L 2356 3500 
L 2356 3053 
L 1172 3053 
L 1172 1153 
Q 1172 725 1289 603 
Q 1406 481 1766 481 
L 2356 481 
L 2356 0 
L 1766 0 
Q 1100 0 847 248 
Q 594 497 594 1153 
L 594 3053 
L 172 3053 
L 172 3500 
L 594 3500 
L 594 4494 
L 1172 4494 
z
" transform="scale(0.015625)"/>
      <path id="DejaVuSans-6f" d="M 1959 3097 
Q 1497 3097 1228 2736 
Q 959 2375 959 1747 
Q 959 1119 1226 758 
Q 1494 397 1959 397 
Q 2419 397 2687 759 
Q 2956 1122 2956 1747 
Q 2956 2369 2687 2733 
Q 2419 3097 1959 3097 
z
M 1959 3584 
Q 2709 3584 3137 3096 
Q 3566 2609 3566 1747 
Q 3566 888 3137 398 
Q 2709 -91 1959 -91 
Q 1206 -91 779 398 
Q 353 888 353 1747 
Q 353 2609 779 3096 
Q 1206 3584 1959 3584 
z
" transform="scale(0.015625)"/>
      <path id="DejaVuSans-6e" d="M 3513 2113 
L 3513 0 
L 2938 0 
L 2938 2094 
Q 2938 2591 2744 2837 
Q 2550 3084 2163 3084 
Q 1697 3084 1428 2787 
Q 1159 2491 1159 1978 
L 1159 0 
L 581 0 
L 581 3500 
L 1159 3500 
L 1159 2956 
Q 1366 3272 1645 3428 
Q 1925 3584 2291 3584 
Q 2894 3584 3203 3211 
Q 3513 2838 3513 2113 
z
" transform="scale(0.015625)"/>
      <path id="DejaVuSans-20" transform="scale(0.015625)"/>
      <path id="DejaVuSans-43" d="M 4122 4306 
L 4122 3641 
Q 3803 3938 3442 4084 
Q 3081 4231 2675 4231 
Q 1875 4231 1450 3742 
Q 1025 3253 1025 2328 
Q 1025 1406 1450 917 
Q 1875 428 2675 428 
Q 3081 428 3442 575 
Q 3803 722 4122 1019 
L 4122 359 
Q 3791 134 3420 21 
Q 3050 -91 2638 -91 
Q 1578 -91 968 557 
Q 359 1206 359 2328 
Q 359 3453 968 4101 
Q 1578 4750 2638 4750 
Q 3056 4750 3426 4639 
Q 3797 4528 4122 4306 
z
" transform="scale(0.015625)"/>
      <path id="DejaVuSans-75" d="M 544 1381 
L 544 3500 
L 1119 3500 
L 1119 1403 
Q 1119 906 1312 657 
Q 1506 409 1894 409 
Q 2359 409 2629 706 
Q 2900 1003 2900 1516 
L 2900 3500 
L 3475 3500 
L 3475 0 
L 2900 0 
L 2900 538 
Q 2691 219 2414 64 
Q 2138 -91 1772 -91 
Q 1169 -91 856 284 
Q 544 659 544 1381 
z
M 1991 3584 
L 1991 3584 
z
" transform="scale(0.015625)"/>
      <path id="DejaVuSans-76" d="M 191 3500 
L 800 3500 
L 1894 563 
L 2988 3500 
L 3597 3500 
L 2284 0 
L 1503 0 
L 191 3500 
z
" transform="scale(0.015625)"/>
      <path id="DejaVuSans-73" d="M 2834 3397 
L 2834 2853 
Q 2591 2978 2328 3040 
Q 2066 3103 1784 3103 
Q 1356 3103 1142 2972 
Q 928 2841 928 2578 
Q 928 2378 1081 2264 
Q 1234 2150 1697 2047 
L 1894 2003 
Q 2506 1872 2764 1633 
Q 3022 1394 3022 966 
Q 3022 478 2636 193 
Q 2250 -91 1575 -91 
Q 1294 -91 989 -36 
Q 684 19 347 128 
L 347 722 
Q 666 556 975 473 
Q 1284 391 1588 391 
Q 1994 391 2212 530 
Q 2431 669 2431 922 
Q 2431 1156 2273 1281 
Q 2116 1406 1581 1522 
L 1381 1569 
Q 847 1681 609 1914 
Q 372 2147 372 2553 
Q 372 3047 722 3315 
Q 1072 3584 1716 3584 
Q 2034 3584 2315 3537 
Q 2597 3491 2834 3397 
z
" transform="scale(0.015625)"/>
     </defs>
     <use xlink:href="#DejaVuSans-50"/>
     <use xlink:href="#DejaVuSans-72" x="58.552734"/>
     <use xlink:href="#DejaVuSans-65" x="97.416016"/>
     <use xlink:href="#DejaVuSans-64" x="158.939453"/>
     <use xlink:href="#DejaVuSans-69" x="222.416016"/>
     <use xlink:href="#DejaVuSans-63" x="250.199219"/>
     <use xlink:href="#DejaVuSans-74" x="305.179688"/>
     <use xlink:href="#DejaVuSans-69" x="344.388672"/>
     <use xlink:href="#DejaVuSans-6f" x="372.171875"/>
     <use xlink:href="#DejaVuSans-6e" x="433.353516"/>
     <use xlink:href="#DejaVuSans-20" x="496.732422"/>
     <use xlink:href="#DejaVuSans-43" x="528.519531"/>
     <use xlink:href="#DejaVuSans-75" x="598.34375"/>
     <use xlink:href="#DejaVuSans-72" x="661.722656"/>
     <use xlink:href="#DejaVuSans-76" x="702.835938"/>
     <use xlink:href="#DejaVuSans-65" x="762.015625"/>
     <use xlink:href="#DejaVuSans-73" x="823.539062"/>
    </g>
   </g>
   <g id="legend_1">
    <g id="patch_7">
     <path d="M 52 315.4 
L 195.94375 315.4 
Q 197.94375 315.4 197.94375 313.4 
L 197.94375 241.009375 
Q 197.94375 239.009375 195.94375 239.009375 
L 52 239.009375 
Q 50 239.009375 50 241.009375 
L 50 313.4 
Q 50 315.4 52 315.4 
z
" style="fill: #ffffff; opacity: 0.8; stroke: #cccccc; stroke-linejoin: miter"/>
    </g>
    <g id="line2d_21">
     <path d="M 54 247.107813 
L 64 247.107813 
L 74 247.107813 
" style="fill: none; stroke: #1f77b4; stroke-width: 1.5; stroke-linecap: square"/>
    </g>
    <g id="text_17">
     <!-- Function with noise -->
     <g transform="translate(82 250.607813)scale(0.1 -0.1)">
      <defs>
       <path id="DejaVuSans-46" d="M 628 4666 
L 3309 4666 
L 3309 4134 
L 1259 4134 
L 1259 2759 
L 3109 2759 
L 3109 2228 
L 1259 2228 
L 1259 0 
L 628 0 
L 628 4666 
z
" transform="scale(0.015625)"/>
       <path id="DejaVuSans-77" d="M 269 3500 
L 844 3500 
L 1563 769 
L 2278 3500 
L 2956 3500 
L 3675 769 
L 4391 3500 
L 4966 3500 
L 4050 0 
L 3372 0 
L 2619 2869 
L 1863 0 
L 1184 0 
L 269 3500 
z
" transform="scale(0.015625)"/>
       <path id="DejaVuSans-68" d="M 3513 2113 
L 3513 0 
L 2938 0 
L 2938 2094 
Q 2938 2591 2744 2837 
Q 2550 3084 2163 3084 
Q 1697 3084 1428 2787 
Q 1159 2491 1159 1978 
L 1159 0 
L 581 0 
L 581 4863 
L 1159 4863 
L 1159 2956 
Q 1366 3272 1645 3428 
Q 1925 3584 2291 3584 
Q 2894 3584 3203 3211 
Q 3513 2838 3513 2113 
z
" transform="scale(0.015625)"/>
      </defs>
      <use xlink:href="#DejaVuSans-46"/>
      <use xlink:href="#DejaVuSans-75" x="52.019531"/>
      <use xlink:href="#DejaVuSans-6e" x="115.398438"/>
      <use xlink:href="#DejaVuSans-63" x="178.777344"/>
      <use xlink:href="#DejaVuSans-74" x="233.757812"/>
      <use xlink:href="#DejaVuSans-69" x="272.966797"/>
      <use xlink:href="#DejaVuSans-6f" x="300.75"/>
      <use xlink:href="#DejaVuSans-6e" x="361.931641"/>
      <use xlink:href="#DejaVuSans-20" x="425.310547"/>
      <use xlink:href="#DejaVuSans-77" x="457.097656"/>
      <use xlink:href="#DejaVuSans-69" x="538.884766"/>
      <use xlink:href="#DejaVuSans-74" x="566.667969"/>
      <use xlink:href="#DejaVuSans-68" x="605.876953"/>
      <use xlink:href="#DejaVuSans-20" x="669.255859"/>
      <use xlink:href="#DejaVuSans-6e" x="701.042969"/>
      <use xlink:href="#DejaVuSans-6f" x="764.421875"/>
      <use xlink:href="#DejaVuSans-69" x="825.603516"/>
      <use xlink:href="#DejaVuSans-73" x="853.386719"/>
      <use xlink:href="#DejaVuSans-65" x="905.486328"/>
     </g>
    </g>
    <g id="line2d_22">
     <path d="M 54 261.785938 
L 64 261.785938 
L 74 261.785938 
" style="fill: none; stroke: #ff7f0e; stroke-width: 1.5; stroke-linecap: square"/>
    </g>
    <g id="text_18">
     <!-- Average of Predictions -->
     <g transform="translate(82 265.285938)scale(0.1 -0.1)">
      <defs>
       <path id="DejaVuSans-41" d="M 2188 4044 
L 1331 1722 
L 3047 1722 
L 2188 4044 
z
M 1831 4666 
L 2547 4666 
L 4325 0 
L 3669 0 
L 3244 1197 
L 1141 1197 
L 716 0 
L 50 0 
L 1831 4666 
z
" transform="scale(0.015625)"/>
       <path id="DejaVuSans-61" d="M 2194 1759 
Q 1497 1759 1228 1600 
Q 959 1441 959 1056 
Q 959 750 1161 570 
Q 1363 391 1709 391 
Q 2188 391 2477 730 
Q 2766 1069 2766 1631 
L 2766 1759 
L 2194 1759 
z
M 3341 1997 
L 3341 0 
L 2766 0 
L 2766 531 
Q 2569 213 2275 61 
Q 1981 -91 1556 -91 
Q 1019 -91 701 211 
Q 384 513 384 1019 
Q 384 1609 779 1909 
Q 1175 2209 1959 2209 
L 2766 2209 
L 2766 2266 
Q 2766 2663 2505 2880 
Q 2244 3097 1772 3097 
Q 1472 3097 1187 3025 
Q 903 2953 641 2809 
L 641 3341 
Q 956 3463 1253 3523 
Q 1550 3584 1831 3584 
Q 2591 3584 2966 3190 
Q 3341 2797 3341 1997 
z
" transform="scale(0.015625)"/>
       <path id="DejaVuSans-67" d="M 2906 1791 
Q 2906 2416 2648 2759 
Q 2391 3103 1925 3103 
Q 1463 3103 1205 2759 
Q 947 2416 947 1791 
Q 947 1169 1205 825 
Q 1463 481 1925 481 
Q 2391 481 2648 825 
Q 2906 1169 2906 1791 
z
M 3481 434 
Q 3481 -459 3084 -895 
Q 2688 -1331 1869 -1331 
Q 1566 -1331 1297 -1286 
Q 1028 -1241 775 -1147 
L 775 -588 
Q 1028 -725 1275 -790 
Q 1522 -856 1778 -856 
Q 2344 -856 2625 -561 
Q 2906 -266 2906 331 
L 2906 616 
Q 2728 306 2450 153 
Q 2172 0 1784 0 
Q 1141 0 747 490 
Q 353 981 353 1791 
Q 353 2603 747 3093 
Q 1141 3584 1784 3584 
Q 2172 3584 2450 3431 
Q 2728 3278 2906 2969 
L 2906 3500 
L 3481 3500 
L 3481 434 
z
" transform="scale(0.015625)"/>
       <path id="DejaVuSans-66" d="M 2375 4863 
L 2375 4384 
L 1825 4384 
Q 1516 4384 1395 4259 
Q 1275 4134 1275 3809 
L 1275 3500 
L 2222 3500 
L 2222 3053 
L 1275 3053 
L 1275 0 
L 697 0 
L 697 3053 
L 147 3053 
L 147 3500 
L 697 3500 
L 697 3744 
Q 697 4328 969 4595 
Q 1241 4863 1831 4863 
L 2375 4863 
z
" transform="scale(0.015625)"/>
      </defs>
      <use xlink:href="#DejaVuSans-41"/>
      <use xlink:href="#DejaVuSans-76" x="62.533203"/>
      <use xlink:href="#DejaVuSans-65" x="121.712891"/>
      <use xlink:href="#DejaVuSans-72" x="183.236328"/>
      <use xlink:href="#DejaVuSans-61" x="224.349609"/>
      <use xlink:href="#DejaVuSans-67" x="285.628906"/>
      <use xlink:href="#DejaVuSans-65" x="349.105469"/>
      <use xlink:href="#DejaVuSans-20" x="410.628906"/>
      <use xlink:href="#DejaVuSans-6f" x="442.416016"/>
      <use xlink:href="#DejaVuSans-66" x="503.597656"/>
      <use xlink:href="#DejaVuSans-20" x="538.802734"/>
      <use xlink:href="#DejaVuSans-50" x="570.589844"/>
      <use xlink:href="#DejaVuSans-72" x="629.142578"/>
      <use xlink:href="#DejaVuSans-65" x="668.005859"/>
      <use xlink:href="#DejaVuSans-64" x="729.529297"/>
      <use xlink:href="#DejaVuSans-69" x="793.005859"/>
      <use xlink:href="#DejaVuSans-63" x="820.789062"/>
      <use xlink:href="#DejaVuSans-74" x="875.769531"/>
      <use xlink:href="#DejaVuSans-69" x="914.978516"/>
      <use xlink:href="#DejaVuSans-6f" x="942.761719"/>
      <use xlink:href="#DejaVuSans-6e" x="1003.943359"/>
      <use xlink:href="#DejaVuSans-73" x="1067.322266"/>
     </g>
    </g>
    <g id="line2d_23">
     <path d="M 54 276.464063 
L 64 276.464063 
L 74 276.464063 
" style="fill: none; stroke: #2ca02c; stroke-width: 1.5; stroke-linecap: square"/>
    </g>
    <g id="text_19">
     <!-- Prediction 1 -->
     <g transform="translate(82 279.964063)scale(0.1 -0.1)">
      <use xlink:href="#DejaVuSans-50"/>
      <use xlink:href="#DejaVuSans-72" x="58.552734"/>
      <use xlink:href="#DejaVuSans-65" x="97.416016"/>
      <use xlink:href="#DejaVuSans-64" x="158.939453"/>
      <use xlink:href="#DejaVuSans-69" x="222.416016"/>
      <use xlink:href="#DejaVuSans-63" x="250.199219"/>
      <use xlink:href="#DejaVuSans-74" x="305.179688"/>
      <use xlink:href="#DejaVuSans-69" x="344.388672"/>
      <use xlink:href="#DejaVuSans-6f" x="372.171875"/>
      <use xlink:href="#DejaVuSans-6e" x="433.353516"/>
      <use xlink:href="#DejaVuSans-20" x="496.732422"/>
      <use xlink:href="#DejaVuSans-31" x="528.519531"/>
     </g>
    </g>
    <g id="line2d_24">
     <path d="M 54 291.142187 
L 64 291.142187 
L 74 291.142187 
" style="fill: none; stroke: #d62728; stroke-width: 1.5; stroke-linecap: square"/>
    </g>
    <g id="text_20">
     <!-- Prediction 2 -->
     <g transform="translate(82 294.642187)scale(0.1 -0.1)">
      <use xlink:href="#DejaVuSans-50"/>
      <use xlink:href="#DejaVuSans-72" x="58.552734"/>
      <use xlink:href="#DejaVuSans-65" x="97.416016"/>
      <use xlink:href="#DejaVuSans-64" x="158.939453"/>
      <use xlink:href="#DejaVuSans-69" x="222.416016"/>
      <use xlink:href="#DejaVuSans-63" x="250.199219"/>
      <use xlink:href="#DejaVuSans-74" x="305.179688"/>
      <use xlink:href="#DejaVuSans-69" x="344.388672"/>
      <use xlink:href="#DejaVuSans-6f" x="372.171875"/>
      <use xlink:href="#DejaVuSans-6e" x="433.353516"/>
      <use xlink:href="#DejaVuSans-20" x="496.732422"/>
      <use xlink:href="#DejaVuSans-32" x="528.519531"/>
     </g>
    </g>
    <g id="line2d_25">
     <path d="M 54 305.820312 
L 64 305.820312 
L 74 305.820312 
" style="fill: none; stroke: #9467bd; stroke-width: 1.5; stroke-linecap: square"/>
    </g>
    <g id="text_21">
     <!-- Prediction 3 -->
     <g transform="translate(82 309.320312)scale(0.1 -0.1)">
      <use xlink:href="#DejaVuSans-50"/>
      <use xlink:href="#DejaVuSans-72" x="58.552734"/>
      <use xlink:href="#DejaVuSans-65" x="97.416016"/>
      <use xlink:href="#DejaVuSans-64" x="158.939453"/>
      <use xlink:href="#DejaVuSans-69" x="222.416016"/>
      <use xlink:href="#DejaVuSans-63" x="250.199219"/>
      <use xlink:href="#DejaVuSans-74" x="305.179688"/>
      <use xlink:href="#DejaVuSans-69" x="344.388672"/>
      <use xlink:href="#DejaVuSans-6f" x="372.171875"/>
      <use xlink:href="#DejaVuSans-6e" x="433.353516"/>
      <use xlink:href="#DejaVuSans-20" x="496.732422"/>
      <use xlink:href="#DejaVuSans-33" x="528.519531"/>
     </g>
    </g>
   </g>
  </g>
 </g>
 <defs>
  <clipPath id="p9bd883d37b">
   <rect x="45" y="43.2" width="279" height="277.2"/>
  </clipPath>
 </defs>
</svg>
