<?xml version="1.0" encoding="utf-8" standalone="no"?>
<!DOCTYPE svg PUBLIC "-//W3C//DTD SVG 1.1//EN"
  "http://www.w3.org/Graphics/SVG/1.1/DTD/svg11.dtd">
<svg xmlns:xlink="http://www.w3.org/1999/xlink" width="360pt" height="360pt" viewBox="0 0 360 360" xmlns="http://www.w3.org/2000/svg" version="1.1">
 <metadata>
  <rdf:RDF xmlns:dc="http://purl.org/dc/elements/1.1/" xmlns:cc="http://creativecommons.org/ns#" xmlns:rdf="http://www.w3.org/1999/02/22-rdf-syntax-ns#">
   <cc:Work>
    <dc:type rdf:resource="http://purl.org/dc/dcmitype/StillImage"/>
    <dc:date>2022-11-12T19:55:30.470113</dc:date>
    <dc:format>image/svg+xml</dc:format>
    <dc:creator>
     <cc:Agent>
      <dc:title>Matplotlib v3.5.3, https://matplotlib.org/</dc:title>
     </cc:Agent>
    </dc:creator>
   </cc:Work>
  </rdf:RDF>
 </metadata>
 <defs>
  <style type="text/css">*{stroke-linejoin: round; stroke-linecap: butt}</style>
 </defs>
 <g id="figure_1">
  <g id="patch_1">
   <path d="M 0 360 
L 360 360 
L 360 0 
L 0 0 
z
" style="fill: #ffffff"/>
  </g>
  <g id="axes_1">
   <g id="patch_2">
    <path d="M 45 320.4 
L 324 320.4 
L 324 43.2 
L 45 43.2 
z
" style="fill: #ffffff"/>
   </g>
   <g id="matplotlib.axis_1">
    <g id="xtick_1">
     <g id="line2d_1">
      <defs>
       <path id="m31e3e877b9" d="M 0 0 
L 0 3.5 
" style="stroke: #000000; stroke-width: 0.8"/>
      </defs>
      <g>
       <use xlink:href="#m31e3e877b9" x="83.045455" y="320.4" style="stroke: #000000; stroke-width: 0.8"/>
      </g>
     </g>
     <g id="text_1">
      <!-- −2 -->
      <g transform="translate(75.674361 334.998438)scale(0.1 -0.1)">
       <defs>
        <path id="DejaVuSans-2212" d="M 678 2272 
L 4684 2272 
L 4684 1741 
L 678 1741 
L 678 2272 
z
" transform="scale(0.015625)"/>
        <path id="DejaVuSans-32" d="M 1228 531 
L 3431 531 
L 3431 0 
L 469 0 
L 469 531 
Q 828 903 1448 1529 
Q 2069 2156 2228 2338 
Q 2531 2678 2651 2914 
Q 2772 3150 2772 3378 
Q 2772 3750 2511 3984 
Q 2250 4219 1831 4219 
Q 1534 4219 1204 4116 
Q 875 4013 500 3803 
L 500 4441 
Q 881 4594 1212 4672 
Q 1544 4750 1819 4750 
Q 2544 4750 2975 4387 
Q 3406 4025 3406 3419 
Q 3406 3131 3298 2873 
Q 3191 2616 2906 2266 
Q 2828 2175 2409 1742 
Q 1991 1309 1228 531 
z
" transform="scale(0.015625)"/>
       </defs>
       <use xlink:href="#DejaVuSans-2212"/>
       <use xlink:href="#DejaVuSans-32" x="83.789062"/>
      </g>
     </g>
    </g>
    <g id="xtick_2">
     <g id="line2d_2">
      <g>
       <use xlink:href="#m31e3e877b9" x="133.772727" y="320.4" style="stroke: #000000; stroke-width: 0.8"/>
      </g>
     </g>
     <g id="text_2">
      <!-- −1 -->
      <g transform="translate(126.401634 334.998438)scale(0.1 -0.1)">
       <defs>
        <path id="DejaVuSans-31" d="M 794 531 
L 1825 531 
L 1825 4091 
L 703 3866 
L 703 4441 
L 1819 4666 
L 2450 4666 
L 2450 531 
L 3481 531 
L 3481 0 
L 794 0 
L 794 531 
z
" transform="scale(0.015625)"/>
       </defs>
       <use xlink:href="#DejaVuSans-2212"/>
       <use xlink:href="#DejaVuSans-31" x="83.789062"/>
      </g>
     </g>
    </g>
    <g id="xtick_3">
     <g id="line2d_3">
      <g>
       <use xlink:href="#m31e3e877b9" x="184.5" y="320.4" style="stroke: #000000; stroke-width: 0.8"/>
      </g>
     </g>
     <g id="text_3">
      <!-- 0 -->
      <g transform="translate(181.31875 334.998438)scale(0.1 -0.1)">
       <defs>
        <path id="DejaVuSans-30" d="M 2034 4250 
Q 1547 4250 1301 3770 
Q 1056 3291 1056 2328 
Q 1056 1369 1301 889 
Q 1547 409 2034 409 
Q 2525 409 2770 889 
Q 3016 1369 3016 2328 
Q 3016 3291 2770 3770 
Q 2525 4250 2034 4250 
z
M 2034 4750 
Q 2819 4750 3233 4129 
Q 3647 3509 3647 2328 
Q 3647 1150 3233 529 
Q 2819 -91 2034 -91 
Q 1250 -91 836 529 
Q 422 1150 422 2328 
Q 422 3509 836 4129 
Q 1250 4750 2034 4750 
z
" transform="scale(0.015625)"/>
       </defs>
       <use xlink:href="#DejaVuSans-30"/>
      </g>
     </g>
    </g>
    <g id="xtick_4">
     <g id="line2d_4">
      <g>
       <use xlink:href="#m31e3e877b9" x="235.227273" y="320.4" style="stroke: #000000; stroke-width: 0.8"/>
      </g>
     </g>
     <g id="text_4">
      <!-- 1 -->
      <g transform="translate(232.046023 334.998438)scale(0.1 -0.1)">
       <use xlink:href="#DejaVuSans-31"/>
      </g>
     </g>
    </g>
    <g id="xtick_5">
     <g id="line2d_5">
      <g>
       <use xlink:href="#m31e3e877b9" x="285.954545" y="320.4" style="stroke: #000000; stroke-width: 0.8"/>
      </g>
     </g>
     <g id="text_5">
      <!-- 2 -->
      <g transform="translate(282.773295 334.998438)scale(0.1 -0.1)">
       <use xlink:href="#DejaVuSans-32"/>
      </g>
     </g>
    </g>
   </g>
   <g id="matplotlib.axis_2">
    <g id="ytick_1">
     <g id="line2d_6">
      <defs>
       <path id="m9b11558128" d="M 0 0 
L -3.5 0 
" style="stroke: #000000; stroke-width: 0.8"/>
      </defs>
      <g>
       <use xlink:href="#m9b11558128" x="45" y="269.720953" style="stroke: #000000; stroke-width: 0.8"/>
      </g>
     </g>
     <g id="text_6">
      <!-- $\mathdefault{10^{-4}}$ -->
      <g transform="translate(14.5 273.520172)scale(0.1 -0.1)">
       <defs>
        <path id="DejaVuSans-34" d="M 2419 4116 
L 825 1625 
L 2419 1625 
L 2419 4116 
z
M 2253 4666 
L 3047 4666 
L 3047 1625 
L 3713 1625 
L 3713 1100 
L 3047 1100 
L 3047 0 
L 2419 0 
L 2419 1100 
L 313 1100 
L 313 1709 
L 2253 4666 
z
" transform="scale(0.015625)"/>
       </defs>
       <use xlink:href="#DejaVuSans-31" transform="translate(0 0.684375)"/>
       <use xlink:href="#DejaVuSans-30" transform="translate(63.623047 0.684375)"/>
       <use xlink:href="#DejaVuSans-2212" transform="translate(128.203125 38.965625)scale(0.7)"/>
       <use xlink:href="#DejaVuSans-34" transform="translate(186.855469 38.965625)scale(0.7)"/>
      </g>
     </g>
    </g>
    <g id="ytick_2">
     <g id="line2d_7">
      <g>
       <use xlink:href="#m9b11558128" x="45" y="215.636978" style="stroke: #000000; stroke-width: 0.8"/>
      </g>
     </g>
     <g id="text_7">
      <!-- $\mathdefault{10^{-3}}$ -->
      <g transform="translate(14.5 219.436197)scale(0.1 -0.1)">
       <defs>
        <path id="DejaVuSans-33" d="M 2597 2516 
Q 3050 2419 3304 2112 
Q 3559 1806 3559 1356 
Q 3559 666 3084 287 
Q 2609 -91 1734 -91 
Q 1441 -91 1130 -33 
Q 819 25 488 141 
L 488 750 
Q 750 597 1062 519 
Q 1375 441 1716 441 
Q 2309 441 2620 675 
Q 2931 909 2931 1356 
Q 2931 1769 2642 2001 
Q 2353 2234 1838 2234 
L 1294 2234 
L 1294 2753 
L 1863 2753 
Q 2328 2753 2575 2939 
Q 2822 3125 2822 3475 
Q 2822 3834 2567 4026 
Q 2313 4219 1838 4219 
Q 1578 4219 1281 4162 
Q 984 4106 628 3988 
L 628 4550 
Q 988 4650 1302 4700 
Q 1616 4750 1894 4750 
Q 2613 4750 3031 4423 
Q 3450 4097 3450 3541 
Q 3450 3153 3228 2886 
Q 3006 2619 2597 2516 
z
" transform="scale(0.015625)"/>
       </defs>
       <use xlink:href="#DejaVuSans-31" transform="translate(0 0.765625)"/>
       <use xlink:href="#DejaVuSans-30" transform="translate(63.623047 0.765625)"/>
       <use xlink:href="#DejaVuSans-2212" transform="translate(128.203125 39.046875)scale(0.7)"/>
       <use xlink:href="#DejaVuSans-33" transform="translate(186.855469 39.046875)scale(0.7)"/>
      </g>
     </g>
    </g>
    <g id="ytick_3">
     <g id="line2d_8">
      <g>
       <use xlink:href="#m9b11558128" x="45" y="161.553002" style="stroke: #000000; stroke-width: 0.8"/>
      </g>
     </g>
     <g id="text_8">
      <!-- $\mathdefault{10^{-2}}$ -->
      <g transform="translate(14.5 165.352221)scale(0.1 -0.1)">
       <use xlink:href="#DejaVuSans-31" transform="translate(0 0.765625)"/>
       <use xlink:href="#DejaVuSans-30" transform="translate(63.623047 0.765625)"/>
       <use xlink:href="#DejaVuSans-2212" transform="translate(128.203125 39.046875)scale(0.7)"/>
       <use xlink:href="#DejaVuSans-32" transform="translate(186.855469 39.046875)scale(0.7)"/>
      </g>
     </g>
    </g>
    <g id="ytick_4">
     <g id="line2d_9">
      <g>
       <use xlink:href="#m9b11558128" x="45" y="107.469027" style="stroke: #000000; stroke-width: 0.8"/>
      </g>
     </g>
     <g id="text_9">
      <!-- $\mathdefault{10^{-1}}$ -->
      <g transform="translate(14.5 111.268246)scale(0.1 -0.1)">
       <use xlink:href="#DejaVuSans-31" transform="translate(0 0.684375)"/>
       <use xlink:href="#DejaVuSans-30" transform="translate(63.623047 0.684375)"/>
       <use xlink:href="#DejaVuSans-2212" transform="translate(128.203125 38.965625)scale(0.7)"/>
       <use xlink:href="#DejaVuSans-31" transform="translate(186.855469 38.965625)scale(0.7)"/>
      </g>
     </g>
    </g>
    <g id="ytick_5">
     <g id="line2d_10">
      <g>
       <use xlink:href="#m9b11558128" x="45" y="53.385052" style="stroke: #000000; stroke-width: 0.8"/>
      </g>
     </g>
     <g id="text_10">
      <!-- $\mathdefault{10^{0}}$ -->
      <g transform="translate(20.4 57.184271)scale(0.1 -0.1)">
       <use xlink:href="#DejaVuSans-31" transform="translate(0 0.765625)"/>
       <use xlink:href="#DejaVuSans-30" transform="translate(63.623047 0.765625)"/>
       <use xlink:href="#DejaVuSans-30" transform="translate(128.203125 39.046875)scale(0.7)"/>
      </g>
     </g>
    </g>
    <g id="ytick_6">
     <g id="line2d_11">
      <defs>
       <path id="m7c29b62e0d" d="M 0 0 
L -2 0 
" style="stroke: #000000; stroke-width: 0.6"/>
      </defs>
      <g>
       <use xlink:href="#m7c29b62e0d" x="45" y="307.52403" style="stroke: #000000; stroke-width: 0.6"/>
      </g>
     </g>
    </g>
    <g id="ytick_7">
     <g id="line2d_12">
      <g>
       <use xlink:href="#m7c29b62e0d" x="45" y="298.000314" style="stroke: #000000; stroke-width: 0.6"/>
      </g>
     </g>
    </g>
    <g id="ytick_8">
     <g id="line2d_13">
      <g>
       <use xlink:href="#m7c29b62e0d" x="45" y="291.243131" style="stroke: #000000; stroke-width: 0.6"/>
      </g>
     </g>
    </g>
    <g id="ytick_9">
     <g id="line2d_14">
      <g>
       <use xlink:href="#m7c29b62e0d" x="45" y="286.001852" style="stroke: #000000; stroke-width: 0.6"/>
      </g>
     </g>
    </g>
    <g id="ytick_10">
     <g id="line2d_15">
      <g>
       <use xlink:href="#m7c29b62e0d" x="45" y="281.719415" style="stroke: #000000; stroke-width: 0.6"/>
      </g>
     </g>
    </g>
    <g id="ytick_11">
     <g id="line2d_16">
      <g>
       <use xlink:href="#m7c29b62e0d" x="45" y="278.098667" style="stroke: #000000; stroke-width: 0.6"/>
      </g>
     </g>
    </g>
    <g id="ytick_12">
     <g id="line2d_17">
      <g>
       <use xlink:href="#m7c29b62e0d" x="45" y="274.962232" style="stroke: #000000; stroke-width: 0.6"/>
      </g>
     </g>
    </g>
    <g id="ytick_13">
     <g id="line2d_18">
      <g>
       <use xlink:href="#m7c29b62e0d" x="45" y="272.1957" style="stroke: #000000; stroke-width: 0.6"/>
      </g>
     </g>
    </g>
    <g id="ytick_14">
     <g id="line2d_19">
      <g>
       <use xlink:href="#m7c29b62e0d" x="45" y="253.440054" style="stroke: #000000; stroke-width: 0.6"/>
      </g>
     </g>
    </g>
    <g id="ytick_15">
     <g id="line2d_20">
      <g>
       <use xlink:href="#m7c29b62e0d" x="45" y="243.916339" style="stroke: #000000; stroke-width: 0.6"/>
      </g>
     </g>
    </g>
    <g id="ytick_16">
     <g id="line2d_21">
      <g>
       <use xlink:href="#m7c29b62e0d" x="45" y="237.159155" style="stroke: #000000; stroke-width: 0.6"/>
      </g>
     </g>
    </g>
    <g id="ytick_17">
     <g id="line2d_22">
      <g>
       <use xlink:href="#m7c29b62e0d" x="45" y="231.917877" style="stroke: #000000; stroke-width: 0.6"/>
      </g>
     </g>
    </g>
    <g id="ytick_18">
     <g id="line2d_23">
      <g>
       <use xlink:href="#m7c29b62e0d" x="45" y="227.63544" style="stroke: #000000; stroke-width: 0.6"/>
      </g>
     </g>
    </g>
    <g id="ytick_19">
     <g id="line2d_24">
      <g>
       <use xlink:href="#m7c29b62e0d" x="45" y="224.014692" style="stroke: #000000; stroke-width: 0.6"/>
      </g>
     </g>
    </g>
    <g id="ytick_20">
     <g id="line2d_25">
      <g>
       <use xlink:href="#m7c29b62e0d" x="45" y="220.878257" style="stroke: #000000; stroke-width: 0.6"/>
      </g>
     </g>
    </g>
    <g id="ytick_21">
     <g id="line2d_26">
      <g>
       <use xlink:href="#m7c29b62e0d" x="45" y="218.111725" style="stroke: #000000; stroke-width: 0.6"/>
      </g>
     </g>
    </g>
    <g id="ytick_22">
     <g id="line2d_27">
      <g>
       <use xlink:href="#m7c29b62e0d" x="45" y="199.356079" style="stroke: #000000; stroke-width: 0.6"/>
      </g>
     </g>
    </g>
    <g id="ytick_23">
     <g id="line2d_28">
      <g>
       <use xlink:href="#m7c29b62e0d" x="45" y="189.832364" style="stroke: #000000; stroke-width: 0.6"/>
      </g>
     </g>
    </g>
    <g id="ytick_24">
     <g id="line2d_29">
      <g>
       <use xlink:href="#m7c29b62e0d" x="45" y="183.07518" style="stroke: #000000; stroke-width: 0.6"/>
      </g>
     </g>
    </g>
    <g id="ytick_25">
     <g id="line2d_30">
      <g>
       <use xlink:href="#m7c29b62e0d" x="45" y="177.833901" style="stroke: #000000; stroke-width: 0.6"/>
      </g>
     </g>
    </g>
    <g id="ytick_26">
     <g id="line2d_31">
      <g>
       <use xlink:href="#m7c29b62e0d" x="45" y="173.551465" style="stroke: #000000; stroke-width: 0.6"/>
      </g>
     </g>
    </g>
    <g id="ytick_27">
     <g id="line2d_32">
      <g>
       <use xlink:href="#m7c29b62e0d" x="45" y="169.930716" style="stroke: #000000; stroke-width: 0.6"/>
      </g>
     </g>
    </g>
    <g id="ytick_28">
     <g id="line2d_33">
      <g>
       <use xlink:href="#m7c29b62e0d" x="45" y="166.794281" style="stroke: #000000; stroke-width: 0.6"/>
      </g>
     </g>
    </g>
    <g id="ytick_29">
     <g id="line2d_34">
      <g>
       <use xlink:href="#m7c29b62e0d" x="45" y="164.027749" style="stroke: #000000; stroke-width: 0.6"/>
      </g>
     </g>
    </g>
    <g id="ytick_30">
     <g id="line2d_35">
      <g>
       <use xlink:href="#m7c29b62e0d" x="45" y="145.272104" style="stroke: #000000; stroke-width: 0.6"/>
      </g>
     </g>
    </g>
    <g id="ytick_31">
     <g id="line2d_36">
      <g>
       <use xlink:href="#m7c29b62e0d" x="45" y="135.748388" style="stroke: #000000; stroke-width: 0.6"/>
      </g>
     </g>
    </g>
    <g id="ytick_32">
     <g id="line2d_37">
      <g>
       <use xlink:href="#m7c29b62e0d" x="45" y="128.991205" style="stroke: #000000; stroke-width: 0.6"/>
      </g>
     </g>
    </g>
    <g id="ytick_33">
     <g id="line2d_38">
      <g>
       <use xlink:href="#m7c29b62e0d" x="45" y="123.749926" style="stroke: #000000; stroke-width: 0.6"/>
      </g>
     </g>
    </g>
    <g id="ytick_34">
     <g id="line2d_39">
      <g>
       <use xlink:href="#m7c29b62e0d" x="45" y="119.467489" style="stroke: #000000; stroke-width: 0.6"/>
      </g>
     </g>
    </g>
    <g id="ytick_35">
     <g id="line2d_40">
      <g>
       <use xlink:href="#m7c29b62e0d" x="45" y="115.846741" style="stroke: #000000; stroke-width: 0.6"/>
      </g>
     </g>
    </g>
    <g id="ytick_36">
     <g id="line2d_41">
      <g>
       <use xlink:href="#m7c29b62e0d" x="45" y="112.710306" style="stroke: #000000; stroke-width: 0.6"/>
      </g>
     </g>
    </g>
    <g id="ytick_37">
     <g id="line2d_42">
      <g>
       <use xlink:href="#m7c29b62e0d" x="45" y="109.943774" style="stroke: #000000; stroke-width: 0.6"/>
      </g>
     </g>
    </g>
    <g id="ytick_38">
     <g id="line2d_43">
      <g>
       <use xlink:href="#m7c29b62e0d" x="45" y="91.188128" style="stroke: #000000; stroke-width: 0.6"/>
      </g>
     </g>
    </g>
    <g id="ytick_39">
     <g id="line2d_44">
      <g>
       <use xlink:href="#m7c29b62e0d" x="45" y="81.664413" style="stroke: #000000; stroke-width: 0.6"/>
      </g>
     </g>
    </g>
    <g id="ytick_40">
     <g id="line2d_45">
      <g>
       <use xlink:href="#m7c29b62e0d" x="45" y="74.907229" style="stroke: #000000; stroke-width: 0.6"/>
      </g>
     </g>
    </g>
    <g id="ytick_41">
     <g id="line2d_46">
      <g>
       <use xlink:href="#m7c29b62e0d" x="45" y="69.665951" style="stroke: #000000; stroke-width: 0.6"/>
      </g>
     </g>
    </g>
    <g id="ytick_42">
     <g id="line2d_47">
      <g>
       <use xlink:href="#m7c29b62e0d" x="45" y="65.383514" style="stroke: #000000; stroke-width: 0.6"/>
      </g>
     </g>
    </g>
    <g id="ytick_43">
     <g id="line2d_48">
      <g>
       <use xlink:href="#m7c29b62e0d" x="45" y="61.762766" style="stroke: #000000; stroke-width: 0.6"/>
      </g>
     </g>
    </g>
    <g id="ytick_44">
     <g id="line2d_49">
      <g>
       <use xlink:href="#m7c29b62e0d" x="45" y="58.626331" style="stroke: #000000; stroke-width: 0.6"/>
      </g>
     </g>
    </g>
    <g id="ytick_45">
     <g id="line2d_50">
      <g>
       <use xlink:href="#m7c29b62e0d" x="45" y="55.859799" style="stroke: #000000; stroke-width: 0.6"/>
      </g>
     </g>
    </g>
   </g>
   <g id="line2d_51">
    <path d="M 83.045455 73.055452 
L 83.553997 74.829731 
L 84.062545 77.124616 
L 84.571087 78.891021 
L 86.605262 90.16812 
L 87.11381 93.72092 
L 87.622352 99.345632 
L 88.1309 103.202538 
L 89.147985 118.270501 
L 89.656533 133.070902 
L 90.165075 161.455227 
L 90.673617 148.941733 
L 91.182159 131.990601 
L 91.690701 119.656608 
L 92.199249 112.058389 
L 93.724882 101.383808 
L 94.233424 98.922304 
L 94.741966 98.007643 
L 95.250514 95.551527 
L 96.267605 94.128817 
L 96.776147 93.435997 
L 97.284689 93.644603 
L 97.793237 92.937993 
L 98.301779 94.385281 
L 98.810322 93.662042 
L 99.318864 95.422638 
L 99.827406 95.899611 
L 100.335954 96.675118 
L 100.844496 98.80841 
L 101.353038 100.119352 
L 101.861587 102.732502 
L 102.370129 104.414948 
L 102.878671 106.679158 
L 103.387219 110.617912 
L 103.895761 113.656504 
L 104.912852 126.546829 
L 105.929942 139.391095 
L 106.438484 164.304704 
L 106.947026 307.8 
L 107.455574 158.29321 
L 107.964117 152.592909 
L 108.981207 136.107898 
L 109.489749 133.79675 
L 109.998297 126.640781 
L 110.506839 126.762079 
L 111.015382 125.763384 
L 111.523924 125.893802 
L 112.032466 127.129529 
L 112.541014 125.769829 
L 113.049556 131.197321 
L 113.558098 130.276019 
L 114.066646 134.610535 
L 114.575189 133.016604 
L 115.083731 137.588446 
L 115.592273 136.991712 
L 116.100815 141.403685 
L 116.609363 138.428162 
L 117.117905 147.783894 
L 118.134996 151.244556 
L 118.643538 142.874092 
L 119.15208 146.912795 
L 119.660628 143.882667 
L 120.16917 157.845197 
L 120.677719 161.033937 
L 121.186261 160.522455 
L 121.694803 161.725156 
L 122.203351 153.765908 
L 122.711893 157.380326 
L 123.220435 156.977303 
L 123.728984 191.180084 
L 124.237526 215.676514 
L 124.746074 203.75559 
L 125.254616 170.680054 
L 125.763158 174.403789 
L 126.271706 153.174751 
L 126.780249 152.605377 
L 127.288791 139.300534 
L 127.797333 136.772013 
L 128.305875 136.771282 
L 129.322965 129.98389 
L 129.831507 131.075261 
L 130.340056 130.234171 
L 130.848598 125.783687 
L 131.35714 126.309549 
L 131.865688 131.126042 
L 132.37423 128.591211 
L 132.882779 130.42462 
L 133.391321 131.106138 
L 133.899866 136.139166 
L 134.408408 145.886509 
L 135.425495 160.155155 
L 135.934037 226.667102 
L 136.442583 179.12722 
L 136.951125 158.30988 
L 137.45967 144.964155 
L 138.476757 133.682635 
L 138.985302 125.6082 
L 139.493845 125.509853 
L 140.002393 123.699741 
L 140.510938 125.804092 
L 141.01948 124.783185 
L 141.528025 124.289505 
L 142.03657 123.996012 
L 142.545113 128.238179 
L 143.053658 129.293042 
L 143.5622 133.04953 
L 144.070742 135.07622 
L 145.087829 148.769322 
L 145.596375 169.713821 
L 146.10492 255.299905 
L 146.613462 170.701745 
L 147.630549 144.096623 
L 148.139097 146.847579 
L 148.647643 136.546576 
L 149.156185 137.364021 
L 150.173275 127.608104 
L 150.681817 131.318472 
L 151.190362 128.082436 
L 151.698904 128.029294 
L 152.207453 127.544633 
L 152.715998 128.329197 
L 153.22454 134.413383 
L 153.733085 135.266143 
L 154.24163 141.604983 
L 154.750172 140.217001 
L 155.258718 157.127917 
L 155.76726 153.000471 
L 156.275802 171.625324 
L 156.784347 240.691007 
L 157.292889 171.38366 
L 157.801434 156.558375 
L 158.30998 149.424073 
L 158.818522 158.135112 
L 159.327067 145.85717 
L 159.835611 147.528505 
L 160.344157 143.931345 
L 160.852701 146.831565 
L 161.361246 138.133903 
L 161.86979 147.275672 
L 162.378333 141.343263 
L 163.395422 146.361579 
L 163.903966 156.33113 
L 164.412507 148.7846 
L 164.92105 159.091554 
L 165.429595 167.079815 
L 165.938139 268.97308 
L 166.446683 183.553526 
L 166.955226 206.100035 
L 167.463772 175.807628 
L 167.972315 213.922019 
L 168.480862 172.632439 
L 168.989406 157.547835 
L 169.497951 155.202975 
L 170.006494 157.214934 
L 170.515038 161.68387 
L 171.023582 152.516493 
L 171.532127 149.542805 
L 172.040671 151.001017 
L 172.549211 148.328776 
L 173.057756 157.994519 
L 173.566299 164.366644 
L 174.074844 149.795364 
L 174.583387 162.989952 
L 175.091932 171.69292 
L 175.600476 171.949569 
L 176.10902 169.531034 
L 176.617566 230.857468 
L 177.126111 200.712202 
L 177.634655 185.135917 
L 178.143199 185.953933 
L 179.160287 161.071352 
L 179.668831 158.74863 
L 180.177375 155.507936 
L 180.685922 145.742164 
L 181.194466 142.70198 
L 181.70301 146.876342 
L 182.211554 146.853568 
L 182.720098 145.315847 
L 183.228642 146.407966 
L 183.737186 145.99317 
L 184.24573 147.991874 
L 184.754271 162.757732 
L 185.262815 163.294347 
L 185.771359 157.330211 
L 186.279903 173.66732 
L 186.788447 253.185538 
L 187.296991 169.761825 
L 188.31408 149.950673 
L 188.822626 149.070036 
L 189.33117 149.57036 
L 189.839714 148.457332 
L 190.348259 145.417617 
L 190.856803 137.991609 
L 191.365347 139.480366 
L 191.873891 142.861138 
L 192.382435 153.001347 
L 192.890976 151.270568 
L 193.39952 154.095731 
L 193.908064 173.618597 
L 194.416608 177.220945 
L 194.925152 207.479276 
L 195.433696 160.371929 
L 195.942241 163.005436 
L 196.450784 152.013821 
L 196.959331 152.513063 
L 197.467875 139.291199 
L 197.97642 137.358223 
L 198.484963 138.483253 
L 198.993507 144.249999 
L 199.502051 148.023647 
L 200.010596 150.61611 
L 200.51914 145.237711 
L 201.027686 153.276498 
L 201.53623 159.35526 
L 202.044775 183.040508 
L 202.553319 191.359182 
L 203.061862 162.989357 
L 203.570406 147.737821 
L 204.078951 142.326516 
L 204.587495 138.762258 
L 205.096036 143.060723 
L 205.604579 137.647672 
L 206.113124 138.886846 
L 206.621668 138.236041 
L 207.130212 142.207762 
L 207.638755 142.849265 
L 208.147301 147.930415 
L 208.655844 166.138212 
L 209.164391 172.700469 
L 209.672935 184.811639 
L 210.181478 180.952285 
L 210.690023 168.496353 
L 211.198569 152.144627 
L 211.707111 148.42833 
L 212.215656 143.314835 
L 212.724198 144.10568 
L 213.23274 135.614717 
L 213.741285 140.465204 
L 214.249828 135.556369 
L 214.758373 136.696189 
L 215.266918 137.289255 
L 215.77546 147.839894 
L 216.284005 143.062507 
L 216.792547 157.026208 
L 217.301096 157.095818 
L 217.809641 160.534651 
L 218.318183 233.972501 
L 218.826728 186.717124 
L 219.335273 164.199637 
L 219.843815 150.375141 
L 220.35236 154.858084 
L 220.860903 140.986936 
L 221.369445 146.755536 
L 221.87799 144.771806 
L 222.386532 143.954299 
L 222.895077 137.219098 
L 223.403622 134.508188 
L 223.912165 138.815906 
L 224.42071 140.928914 
L 224.929252 135.249279 
L 225.4378 139.876792 
L 225.946345 140.073559 
L 226.454887 145.337879 
L 226.963433 146.232298 
L 227.471978 150.873612 
L 227.98052 157.113543 
L 228.489065 157.479228 
L 228.997607 238.265942 
L 229.506149 183.636544 
L 230.014695 195.85916 
L 230.523237 174.206216 
L 231.031782 168.241242 
L 231.540327 166.728438 
L 232.048869 160.577254 
L 232.557414 145.691513 
L 233.065957 148.738755 
L 233.574505 146.862742 
L 234.08305 141.900194 
L 234.591592 141.95143 
L 235.100137 141.042984 
L 235.608679 138.921655 
L 237.134312 142.195739 
L 237.64286 145.205196 
L 238.151402 138.338261 
L 238.65995 146.671577 
L 239.168493 145.306592 
L 239.677035 153.052912 
L 240.185583 154.294905 
L 240.694125 152.515921 
L 241.202667 164.343299 
L 241.711209 207.08396 
L 242.219751 215.320222 
L 242.7283 251.859528 
L 243.236842 167.704687 
L 244.253932 157.133832 
L 244.762474 143.533405 
L 245.271016 141.7533 
L 245.779559 135.072456 
L 246.288101 134.906227 
L 246.796649 136.988661 
L 247.305191 134.957655 
L 247.813733 130.551601 
L 248.322281 130.125487 
L 248.830824 131.167351 
L 249.339366 131.486447 
L 249.84792 134.300479 
L 250.356462 139.724237 
L 250.86501 150.789618 
L 251.373552 156.192098 
L 251.882095 160.124143 
L 252.390643 185.584945 
L 252.899185 160.067432 
L 253.407727 156.276157 
L 253.916269 141.174564 
L 254.424811 132.189865 
L 254.93336 130.235297 
L 255.441902 125.269266 
L 255.950444 122.234175 
L 256.458992 120.298084 
L 256.967534 119.206326 
L 257.476076 118.898869 
L 257.984618 118.290333 
L 258.493161 117.941963 
L 259.001709 116.038199 
L 259.510251 120.1057 
L 260.018793 122.838805 
L 260.527341 124.004928 
L 261.035883 128.403213 
L 261.544426 133.967885 
L 262.052974 142.865024 
L 262.561516 164.56849 
L 263.070064 156.903563 
L 264.087148 133.820269 
L 264.595697 123.394251 
L 265.104239 116.520533 
L 265.612781 114.244468 
L 266.121329 108.458766 
L 267.138419 102.16825 
L 268.155504 99.256428 
L 268.664052 97.498947 
L 269.172594 96.19829 
L 269.681136 94.525735 
L 270.189678 93.665472 
L 270.698221 93.769603 
L 271.206769 94.062648 
L 271.715311 93.778387 
L 272.223853 93.200991 
L 272.732401 93.908771 
L 273.240943 94.176889 
L 273.749486 95.298088 
L 274.766576 99.021251 
L 275.275124 101.420995 
L 275.783666 102.452668 
L 276.292208 107.507315 
L 276.800757 110.212136 
L 277.309299 117.869452 
L 277.817841 128.436048 
L 278.326383 142.261429 
L 278.834925 175.543144 
L 279.343473 143.283941 
L 279.852015 123.574303 
L 280.360558 111.972996 
L 281.377648 100.220388 
L 282.394738 91.048761 
L 283.411829 84.84653 
L 285.446003 75.532147 
L 285.954545 73.907558 
L 285.954545 73.907558 
" clip-path="url(#p18c548da1a)" style="fill: none; stroke: #1f77b4; stroke-width: 1.5; stroke-linecap: square"/>
   </g>
   <g id="line2d_52">
    <path d="M 57.681818 73.960646 
L 58.317496 69.862793 
L 58.953174 69.770237 
L 59.588863 68.398112 
L 60.224541 67.660201 
L 60.860219 67.748164 
L 61.495896 66.543774 
L 62.131574 64.476685 
L 62.767264 63.486051 
L 63.402942 61.146051 
L 64.038619 61.290238 
L 64.674309 60.66892 
L 65.309987 57.960561 
L 65.945664 58.240965 
L 66.581342 57.205237 
L 67.21702 58.442491 
L 67.852697 57.93224 
L 68.488375 56.540536 
L 69.124053 57.717194 
L 69.759743 57.520536 
L 70.39542 56.588181 
L 71.031098 56.993242 
L 71.666776 57.575754 
L 72.302453 55.882378 
L 72.938143 55.8 
L 73.573821 56.926881 
L 74.209498 57.753325 
L 74.845188 59.309498 
L 76.116544 58.713287 
L 76.752221 59.082263 
L 77.387899 60.805825 
L 78.023577 62.174795 
L 78.659254 61.577287 
L 79.294932 65.14807 
L 79.930622 63.725082 
L 80.566299 67.098029 
L 81.201977 67.796363 
L 81.837655 69.991741 
L 82.473333 71.097423 
L 83.109022 74.331931 
L 83.7447 73.675565 
L 84.380384 78.466304 
L 85.016061 78.454201 
L 85.651745 80.665734 
L 86.287423 91.060192 
L 86.923101 97.921471 
L 87.558784 92.537561 
L 88.194462 97.768202 
L 88.83014 129.960936 
L 89.465823 129.656215 
L 90.101501 129.840801 
L 90.737185 119.373526 
L 91.372862 130.490151 
L 92.00854 119.692401 
L 93.279902 101.329059 
L 93.915579 110.499905 
L 94.551263 99.259744 
L 95.186941 92.319127 
L 95.822624 94.574538 
L 96.458302 95.757491 
L 97.09398 96.04913 
L 97.729663 89.36508 
L 98.365347 96.429307 
L 99.001025 91.22927 
L 99.636709 90.200161 
L 100.272386 93.011063 
L 100.90807 107.884624 
L 101.543748 109.760404 
L 102.179425 114.470533 
L 102.815109 114.51148 
L 103.450781 124.047197 
L 104.086458 113.55992 
L 104.722142 112.33021 
L 105.35782 156.254192 
L 105.993504 124.754331 
L 106.629181 128.216851 
L 107.264859 160.204609 
L 107.900543 138.087184 
L 108.536226 122.913341 
L 109.171904 153.537363 
L 109.807588 162.881054 
L 110.443266 124.201589 
L 111.078949 152.933448 
L 111.714627 158.57693 
L 112.350305 116.307814 
L 112.985988 134.347936 
L 113.621666 111.867112 
L 114.257344 111.983293 
L 114.893027 126.009028 
L 115.528705 126.521846 
L 116.164389 131.551461 
L 116.800067 142.263862 
L 117.435744 149.919682 
L 118.071428 146.10902 
L 119.342783 118.228352 
L 119.978467 189.083587 
L 120.614145 174.091569 
L 121.249829 197.843058 
L 121.885506 158.589268 
L 122.521184 146.037821 
L 123.156868 125.907764 
L 123.792545 126.666977 
L 124.428223 140.857631 
L 125.063907 128.929428 
L 125.699584 132.037474 
L 126.335268 140.380757 
L 126.970946 137.059366 
L 127.606623 144.695729 
L 128.242307 114.021512 
L 128.877991 146.753224 
L 129.513669 113.84154 
L 130.149352 115.050668 
L 130.78503 111.638625 
L 131.420714 206.51173 
L 132.056391 110.529479 
L 132.692069 229.228463 
L 133.327753 132.829384 
L 133.963431 134.408224 
L 134.599111 155.490733 
L 135.234792 153.094309 
L 135.87047 135.041711 
L 136.50615 126.092672 
L 137.141831 140.1175 
L 137.777512 125.41423 
L 138.413193 126.403017 
L 139.04887 122.586486 
L 139.684551 121.919191 
L 140.320232 118.105671 
L 140.955909 138.165227 
L 141.59159 126.768773 
L 142.227271 108.621293 
L 142.862951 113.645902 
L 144.13431 149.171798 
L 144.769991 140.889034 
L 145.405671 144.234321 
L 146.041349 126.326338 
L 146.67703 132.071808 
L 147.31271 149.432574 
L 147.948391 134.315182 
L 148.584072 147.08941 
L 149.219749 153.20515 
L 149.85543 134.225174 
L 150.491111 160.897529 
L 151.126789 208.078415 
L 151.762469 222.970347 
L 152.39815 121.544688 
L 153.033831 125.928338 
L 153.669511 173.854247 
L 154.305195 129.943051 
L 154.940876 180.151586 
L 155.576557 141.431131 
L 156.212234 128.878865 
L 156.847915 144.974866 
L 157.483596 154.785816 
L 158.119276 133.434466 
L 158.754957 117.652071 
L 159.390635 122.522966 
L 160.026315 116.415982 
L 160.661995 140.091574 
L 161.297675 144.762352 
L 161.933355 155.128307 
L 162.569035 160.146154 
L 163.204716 139.274057 
L 163.840395 162.582429 
L 164.476068 133.031897 
L 165.111749 130.727122 
L 165.747428 140.658297 
L 166.383109 125.133 
L 167.018788 134.414794 
L 167.654469 151.948993 
L 168.29015 132.083783 
L 168.925829 141.223297 
L 169.561514 139.764788 
L 170.197195 152.790232 
L 170.832874 130.282452 
L 171.468555 130.552761 
L 172.104235 149.298916 
L 172.739914 120.561462 
L 173.375594 170.220603 
L 174.011274 134.052872 
L 174.64696 201.570155 
L 175.28264 177.159919 
L 175.91832 131.971779 
L 176.554 182.444226 
L 177.18968 195.87183 
L 177.82536 151.96388 
L 178.46104 139.564102 
L 179.09672 122.471068 
L 179.732393 139.366857 
L 180.368073 149.499187 
L 181.003753 168.247013 
L 181.639433 144.696822 
L 182.275114 150.728166 
L 182.910794 140.744847 
L 183.546474 122.118616 
L 184.182154 142.547882 
L 184.817839 154.958525 
L 185.453519 131.436561 
L 186.089199 127.922768 
L 186.724879 146.740627 
L 187.360559 153.173967 
L 187.996239 122.814463 
L 188.631919 125.745704 
L 189.2676 138.958856 
L 189.903285 149.019403 
L 190.538964 139.341611 
L 191.174644 163.980965 
L 191.810325 123.086829 
L 192.446005 123.006176 
L 193.081685 136.747312 
L 194.353045 193.935745 
L 195.62441 134.620986 
L 196.26009 196.692275 
L 196.895771 116.741107 
L 197.53145 160.628413 
L 198.167131 142.93073 
L 198.802811 149.347491 
L 199.438491 177.934379 
L 200.074164 147.030039 
L 200.709844 149.998905 
L 201.345524 193.926854 
L 201.981204 142.591557 
L 202.616884 122.090109 
L 203.252564 185.47692 
L 203.888245 123.76356 
L 204.523924 125.836293 
L 205.159609 177.662628 
L 206.430969 129.99165 
L 207.06665 127.434578 
L 207.702329 118.172617 
L 208.33801 129.781959 
L 208.973691 123.52302 
L 209.60937 158.29193 
L 210.245049 149.308743 
L 211.51641 118.656348 
L 212.152088 121.828725 
L 212.787769 142.073167 
L 213.42345 183.99159 
L 214.05913 126.615136 
L 214.694811 149.838175 
L 215.330489 146.765678 
L 215.966169 199.183415 
L 216.60185 121.021565 
L 217.237528 148.857877 
L 217.873208 125.383562 
L 218.508889 192.543961 
L 219.14457 183.728492 
L 219.780251 137.718615 
L 220.415928 140.621401 
L 221.051609 124.40105 
L 221.68729 134.628459 
L 222.322967 152.265132 
L 222.958648 117.879721 
L 223.594329 150.205261 
L 224.230009 113.834085 
L 224.86569 238.673029 
L 225.501368 176.376999 
L 226.137049 146.526697 
L 226.772729 185.229335 
L 227.408407 153.57135 
L 228.044088 148.291492 
L 228.679768 125.993558 
L 229.315449 164.250305 
L 229.95113 140.15685 
L 230.586807 120.838524 
L 231.858169 142.955834 
L 232.493847 121.111059 
L 233.129527 163.751161 
L 233.765208 157.547982 
L 234.400889 143.946028 
L 235.036569 148.26979 
L 235.672253 118.907067 
L 236.307931 133.464606 
L 236.943615 185.347306 
L 237.579292 129.184399 
L 238.214976 171.909282 
L 238.850654 117.331579 
L 239.486331 138.835404 
L 240.122015 197.093785 
L 240.757693 129.788077 
L 241.39337 152.872225 
L 242.029054 150.137738 
L 242.664732 126.927107 
L 243.300416 212.950686 
L 243.936093 132.485336 
L 244.571771 162.510864 
L 245.207455 177.713551 
L 245.843132 156.649268 
L 246.47881 159.586783 
L 247.114494 119.031626 
L 247.750171 157.776313 
L 248.385855 184.690063 
L 249.021533 121.179601 
L 249.657211 122.317879 
L 250.292894 117.024812 
L 250.928572 173.730953 
L 251.56425 123.032994 
L 252.199933 146.783066 
L 252.835611 142.025567 
L 253.471295 138.947142 
L 254.106973 128.348941 
L 254.74265 133.271207 
L 255.378334 116.049266 
L 256.014012 111.793331 
L 256.649689 159.134521 
L 257.285373 105.031627 
L 257.921051 105.446151 
L 258.556734 110.895272 
L 259.192412 148.167757 
L 259.82809 129.156387 
L 260.463774 132.310255 
L 261.099451 139.466116 
L 261.735129 122.058949 
L 262.370813 136.597997 
L 263.00649 132.757017 
L 263.642174 128.026623 
L 264.277852 140.73466 
L 264.913529 127.985878 
L 265.549213 103.28004 
L 266.184897 98.862177 
L 266.820575 99.785905 
L 267.456258 108.849035 
L 268.091936 92.415269 
L 268.72762 91.34669 
L 269.363297 100.003471 
L 269.998975 98.512125 
L 270.634659 99.946598 
L 271.270337 89.010749 
L 271.906014 89.130629 
L 272.541698 97.443343 
L 273.177376 101.365976 
L 273.813059 100.495554 
L 274.448737 98.732224 
L 275.084415 102.811813 
L 275.720098 114.654582 
L 276.355776 100.714985 
L 276.991454 107.216574 
L 277.627138 147.445908 
L 278.262815 119.509141 
L 278.898499 141.441208 
L 279.534177 115.107462 
L 280.169854 111.277125 
L 280.805538 103.082728 
L 281.441222 103.247254 
L 282.712583 84.764754 
L 283.348261 88.273944 
L 283.983945 81.934708 
L 284.619622 77.38746 
L 285.2553 78.617235 
L 285.890984 71.405144 
L 286.526655 73.210523 
L 287.162333 70.556097 
L 287.798011 68.861963 
L 289.069378 67.288517 
L 289.705056 63.003976 
L 290.340734 62.416784 
L 290.976411 63.48642 
L 291.612101 62.003542 
L 292.247779 58.626645 
L 292.883456 58.836569 
L 293.519146 58.202736 
L 294.154824 59.137855 
L 295.426179 57.661579 
L 296.061857 57.422792 
L 296.697535 57.924053 
L 297.333212 56.731458 
L 297.96889 56.660673 
L 298.60458 56.995127 
L 299.240257 56.735302 
L 299.875935 57.650874 
L 300.511613 56.989209 
L 301.14729 57.145387 
L 301.78298 58.835221 
L 302.418658 60.03577 
L 303.054336 58.314245 
L 303.690025 59.343477 
L 304.325703 61.226408 
L 304.961381 59.658272 
L 305.597058 62.824496 
L 306.232736 61.819938 
L 306.868426 63.0921 
L 307.504104 66.805298 
L 308.139781 65.047908 
L 308.775471 69.691195 
L 310.046826 70.920008 
L 310.682504 73.936058 
L 311.318182 71.229273 
L 311.318182 71.229273 
" clip-path="url(#p18c548da1a)" style="fill: none; stroke: #ff7f0e; stroke-width: 1.5; stroke-linecap: square"/>
   </g>
   <g id="patch_3">
    <path d="M 45 320.4 
L 45 43.2 
" style="fill: none; stroke: #000000; stroke-width: 0.8; stroke-linejoin: miter; stroke-linecap: square"/>
   </g>
   <g id="patch_4">
    <path d="M 324 320.4 
L 324 43.2 
" style="fill: none; stroke: #000000; stroke-width: 0.8; stroke-linejoin: miter; stroke-linecap: square"/>
   </g>
   <g id="patch_5">
    <path d="M 45 320.4 
L 324 320.4 
" style="fill: none; stroke: #000000; stroke-width: 0.8; stroke-linejoin: miter; stroke-linecap: square"/>
   </g>
   <g id="patch_6">
    <path d="M 45 43.2 
L 324 43.2 
" style="fill: none; stroke: #000000; stroke-width: 0.8; stroke-linejoin: miter; stroke-linecap: square"/>
   </g>
   <g id="text_11">
    <!-- Prediction Error -->
    <g transform="translate(138.166875 37.2)scale(0.12 -0.12)">
     <defs>
      <path id="DejaVuSans-50" d="M 1259 4147 
L 1259 2394 
L 2053 2394 
Q 2494 2394 2734 2622 
Q 2975 2850 2975 3272 
Q 2975 3691 2734 3919 
Q 2494 4147 2053 4147 
L 1259 4147 
z
M 628 4666 
L 2053 4666 
Q 2838 4666 3239 4311 
Q 3641 3956 3641 3272 
Q 3641 2581 3239 2228 
Q 2838 1875 2053 1875 
L 1259 1875 
L 1259 0 
L 628 0 
L 628 4666 
z
" transform="scale(0.015625)"/>
      <path id="DejaVuSans-72" d="M 2631 2963 
Q 2534 3019 2420 3045 
Q 2306 3072 2169 3072 
Q 1681 3072 1420 2755 
Q 1159 2438 1159 1844 
L 1159 0 
L 581 0 
L 581 3500 
L 1159 3500 
L 1159 2956 
Q 1341 3275 1631 3429 
Q 1922 3584 2338 3584 
Q 2397 3584 2469 3576 
Q 2541 3569 2628 3553 
L 2631 2963 
z
" transform="scale(0.015625)"/>
      <path id="DejaVuSans-65" d="M 3597 1894 
L 3597 1613 
L 953 1613 
Q 991 1019 1311 708 
Q 1631 397 2203 397 
Q 2534 397 2845 478 
Q 3156 559 3463 722 
L 3463 178 
Q 3153 47 2828 -22 
Q 2503 -91 2169 -91 
Q 1331 -91 842 396 
Q 353 884 353 1716 
Q 353 2575 817 3079 
Q 1281 3584 2069 3584 
Q 2775 3584 3186 3129 
Q 3597 2675 3597 1894 
z
M 3022 2063 
Q 3016 2534 2758 2815 
Q 2500 3097 2075 3097 
Q 1594 3097 1305 2825 
Q 1016 2553 972 2059 
L 3022 2063 
z
" transform="scale(0.015625)"/>
      <path id="DejaVuSans-64" d="M 2906 2969 
L 2906 4863 
L 3481 4863 
L 3481 0 
L 2906 0 
L 2906 525 
Q 2725 213 2448 61 
Q 2172 -91 1784 -91 
Q 1150 -91 751 415 
Q 353 922 353 1747 
Q 353 2572 751 3078 
Q 1150 3584 1784 3584 
Q 2172 3584 2448 3432 
Q 2725 3281 2906 2969 
z
M 947 1747 
Q 947 1113 1208 752 
Q 1469 391 1925 391 
Q 2381 391 2643 752 
Q 2906 1113 2906 1747 
Q 2906 2381 2643 2742 
Q 2381 3103 1925 3103 
Q 1469 3103 1208 2742 
Q 947 2381 947 1747 
z
" transform="scale(0.015625)"/>
      <path id="DejaVuSans-69" d="M 603 3500 
L 1178 3500 
L 1178 0 
L 603 0 
L 603 3500 
z
M 603 4863 
L 1178 4863 
L 1178 4134 
L 603 4134 
L 603 4863 
z
" transform="scale(0.015625)"/>
      <path id="DejaVuSans-63" d="M 3122 3366 
L 3122 2828 
Q 2878 2963 2633 3030 
Q 2388 3097 2138 3097 
Q 1578 3097 1268 2742 
Q 959 2388 959 1747 
Q 959 1106 1268 751 
Q 1578 397 2138 397 
Q 2388 397 2633 464 
Q 2878 531 3122 666 
L 3122 134 
Q 2881 22 2623 -34 
Q 2366 -91 2075 -91 
Q 1284 -91 818 406 
Q 353 903 353 1747 
Q 353 2603 823 3093 
Q 1294 3584 2113 3584 
Q 2378 3584 2631 3529 
Q 2884 3475 3122 3366 
z
" transform="scale(0.015625)"/>
      <path id="DejaVuSans-74" d="M 1172 4494 
L 1172 3500 
L 2356 3500 
L 2356 3053 
L 1172 3053 
L 1172 1153 
Q 1172 725 1289 603 
Q 1406 481 1766 481 
L 2356 481 
L 2356 0 
L 1766 0 
Q 1100 0 847 248 
Q 594 497 594 1153 
L 594 3053 
L 172 3053 
L 172 3500 
L 594 3500 
L 594 4494 
L 1172 4494 
z
" transform="scale(0.015625)"/>
      <path id="DejaVuSans-6f" d="M 1959 3097 
Q 1497 3097 1228 2736 
Q 959 2375 959 1747 
Q 959 1119 1226 758 
Q 1494 397 1959 397 
Q 2419 397 2687 759 
Q 2956 1122 2956 1747 
Q 2956 2369 2687 2733 
Q 2419 3097 1959 3097 
z
M 1959 3584 
Q 2709 3584 3137 3096 
Q 3566 2609 3566 1747 
Q 3566 888 3137 398 
Q 2709 -91 1959 -91 
Q 1206 -91 779 398 
Q 353 888 353 1747 
Q 353 2609 779 3096 
Q 1206 3584 1959 3584 
z
" transform="scale(0.015625)"/>
      <path id="DejaVuSans-6e" d="M 3513 2113 
L 3513 0 
L 2938 0 
L 2938 2094 
Q 2938 2591 2744 2837 
Q 2550 3084 2163 3084 
Q 1697 3084 1428 2787 
Q 1159 2491 1159 1978 
L 1159 0 
L 581 0 
L 581 3500 
L 1159 3500 
L 1159 2956 
Q 1366 3272 1645 3428 
Q 1925 3584 2291 3584 
Q 2894 3584 3203 3211 
Q 3513 2838 3513 2113 
z
" transform="scale(0.015625)"/>
      <path id="DejaVuSans-20" transform="scale(0.015625)"/>
      <path id="DejaVuSans-45" d="M 628 4666 
L 3578 4666 
L 3578 4134 
L 1259 4134 
L 1259 2753 
L 3481 2753 
L 3481 2222 
L 1259 2222 
L 1259 531 
L 3634 531 
L 3634 0 
L 628 0 
L 628 4666 
z
" transform="scale(0.015625)"/>
     </defs>
     <use xlink:href="#DejaVuSans-50"/>
     <use xlink:href="#DejaVuSans-72" x="58.552734"/>
     <use xlink:href="#DejaVuSans-65" x="97.416016"/>
     <use xlink:href="#DejaVuSans-64" x="158.939453"/>
     <use xlink:href="#DejaVuSans-69" x="222.416016"/>
     <use xlink:href="#DejaVuSans-63" x="250.199219"/>
     <use xlink:href="#DejaVuSans-74" x="305.179688"/>
     <use xlink:href="#DejaVuSans-69" x="344.388672"/>
     <use xlink:href="#DejaVuSans-6f" x="372.171875"/>
     <use xlink:href="#DejaVuSans-6e" x="433.353516"/>
     <use xlink:href="#DejaVuSans-20" x="496.732422"/>
     <use xlink:href="#DejaVuSans-45" x="528.519531"/>
     <use xlink:href="#DejaVuSans-72" x="591.703125"/>
     <use xlink:href="#DejaVuSans-72" x="631.066406"/>
     <use xlink:href="#DejaVuSans-6f" x="669.929688"/>
     <use xlink:href="#DejaVuSans-72" x="731.111328"/>
    </g>
   </g>
   <g id="legend_1">
    <g id="patch_7">
     <path d="M 234.342187 315.4 
L 317 315.4 
Q 319 315.4 319 313.4 
L 319 285.04375 
Q 319 283.04375 317 283.04375 
L 234.342187 283.04375 
Q 232.342187 283.04375 232.342187 285.04375 
L 232.342187 313.4 
Q 232.342187 315.4 234.342187 315.4 
z
" style="fill: #ffffff; opacity: 0.8; stroke: #cccccc; stroke-linejoin: miter"/>
    </g>
    <g id="line2d_53">
     <path d="M 236.342187 291.142187 
L 246.342187 291.142187 
L 256.342188 291.142187 
" style="fill: none; stroke: #1f77b4; stroke-width: 1.5; stroke-linecap: square"/>
    </g>
    <g id="text_12">
     <!-- train error -->
     <g transform="translate(264.342188 294.642187)scale(0.1 -0.1)">
      <defs>
       <path id="DejaVuSans-61" d="M 2194 1759 
Q 1497 1759 1228 1600 
Q 959 1441 959 1056 
Q 959 750 1161 570 
Q 1363 391 1709 391 
Q 2188 391 2477 730 
Q 2766 1069 2766 1631 
L 2766 1759 
L 2194 1759 
z
M 3341 1997 
L 3341 0 
L 2766 0 
L 2766 531 
Q 2569 213 2275 61 
Q 1981 -91 1556 -91 
Q 1019 -91 701 211 
Q 384 513 384 1019 
Q 384 1609 779 1909 
Q 1175 2209 1959 2209 
L 2766 2209 
L 2766 2266 
Q 2766 2663 2505 2880 
Q 2244 3097 1772 3097 
Q 1472 3097 1187 3025 
Q 903 2953 641 2809 
L 641 3341 
Q 956 3463 1253 3523 
Q 1550 3584 1831 3584 
Q 2591 3584 2966 3190 
Q 3341 2797 3341 1997 
z
" transform="scale(0.015625)"/>
      </defs>
      <use xlink:href="#DejaVuSans-74"/>
      <use xlink:href="#DejaVuSans-72" x="39.208984"/>
      <use xlink:href="#DejaVuSans-61" x="80.322266"/>
      <use xlink:href="#DejaVuSans-69" x="141.601562"/>
      <use xlink:href="#DejaVuSans-6e" x="169.384766"/>
      <use xlink:href="#DejaVuSans-20" x="232.763672"/>
      <use xlink:href="#DejaVuSans-65" x="264.550781"/>
      <use xlink:href="#DejaVuSans-72" x="326.074219"/>
      <use xlink:href="#DejaVuSans-72" x="365.4375"/>
      <use xlink:href="#DejaVuSans-6f" x="404.300781"/>
      <use xlink:href="#DejaVuSans-72" x="465.482422"/>
     </g>
    </g>
    <g id="line2d_54">
     <path d="M 236.342187 305.820312 
L 246.342187 305.820312 
L 256.342188 305.820312 
" style="fill: none; stroke: #ff7f0e; stroke-width: 1.5; stroke-linecap: square"/>
    </g>
    <g id="text_13">
     <!-- test error -->
     <g transform="translate(264.342188 309.320312)scale(0.1 -0.1)">
      <defs>
       <path id="DejaVuSans-73" d="M 2834 3397 
L 2834 2853 
Q 2591 2978 2328 3040 
Q 2066 3103 1784 3103 
Q 1356 3103 1142 2972 
Q 928 2841 928 2578 
Q 928 2378 1081 2264 
Q 1234 2150 1697 2047 
L 1894 2003 
Q 2506 1872 2764 1633 
Q 3022 1394 3022 966 
Q 3022 478 2636 193 
Q 2250 -91 1575 -91 
Q 1294 -91 989 -36 
Q 684 19 347 128 
L 347 722 
Q 666 556 975 473 
Q 1284 391 1588 391 
Q 1994 391 2212 530 
Q 2431 669 2431 922 
Q 2431 1156 2273 1281 
Q 2116 1406 1581 1522 
L 1381 1569 
Q 847 1681 609 1914 
Q 372 2147 372 2553 
Q 372 3047 722 3315 
Q 1072 3584 1716 3584 
Q 2034 3584 2315 3537 
Q 2597 3491 2834 3397 
z
" transform="scale(0.015625)"/>
      </defs>
      <use xlink:href="#DejaVuSans-74"/>
      <use xlink:href="#DejaVuSans-65" x="39.208984"/>
      <use xlink:href="#DejaVuSans-73" x="100.732422"/>
      <use xlink:href="#DejaVuSans-74" x="152.832031"/>
      <use xlink:href="#DejaVuSans-20" x="192.041016"/>
      <use xlink:href="#DejaVuSans-65" x="223.828125"/>
      <use xlink:href="#DejaVuSans-72" x="285.351562"/>
      <use xlink:href="#DejaVuSans-72" x="324.714844"/>
      <use xlink:href="#DejaVuSans-6f" x="363.578125"/>
      <use xlink:href="#DejaVuSans-72" x="424.759766"/>
     </g>
    </g>
   </g>
  </g>
 </g>
 <defs>
  <clipPath id="p18c548da1a">
   <rect x="45" y="43.2" width="279" height="277.2"/>
  </clipPath>
 </defs>
</svg>
