<?xml version="1.0" encoding="utf-8" standalone="no"?>
<!DOCTYPE svg PUBLIC "-//W3C//DTD SVG 1.1//EN"
  "http://www.w3.org/Graphics/SVG/1.1/DTD/svg11.dtd">
<svg xmlns:xlink="http://www.w3.org/1999/xlink" width="360pt" height="360pt" viewBox="0 0 360 360" xmlns="http://www.w3.org/2000/svg" version="1.1">
 <metadata>
  <rdf:RDF xmlns:dc="http://purl.org/dc/elements/1.1/" xmlns:cc="http://creativecommons.org/ns#" xmlns:rdf="http://www.w3.org/1999/02/22-rdf-syntax-ns#">
   <cc:Work>
    <dc:type rdf:resource="http://purl.org/dc/dcmitype/StillImage"/>
    <dc:date>2022-11-12T19:55:31.176113</dc:date>
    <dc:format>image/svg+xml</dc:format>
    <dc:creator>
     <cc:Agent>
      <dc:title>Matplotlib v3.5.3, https://matplotlib.org/</dc:title>
     </cc:Agent>
    </dc:creator>
   </cc:Work>
  </rdf:RDF>
 </metadata>
 <defs>
  <style type="text/css">*{stroke-linejoin: round; stroke-linecap: butt}</style>
 </defs>
 <g id="figure_1">
  <g id="patch_1">
   <path d="M 0 360 
L 360 360 
L 360 0 
L 0 0 
z
" style="fill: #ffffff"/>
  </g>
  <g id="axes_1">
   <g id="patch_2">
    <path d="M 45 320.4 
L 324 320.4 
L 324 43.2 
L 45 43.2 
z
" style="fill: #ffffff"/>
   </g>
   <g id="matplotlib.axis_1">
    <g id="xtick_1">
     <g id="line2d_1">
      <defs>
       <path id="me296ae22d3" d="M 0 0 
L 0 3.5 
" style="stroke: #000000; stroke-width: 0.8"/>
      </defs>
      <g>
       <use xlink:href="#me296ae22d3" x="83.045455" y="320.4" style="stroke: #000000; stroke-width: 0.8"/>
      </g>
     </g>
     <g id="text_1">
      <!-- −2 -->
      <g transform="translate(75.674361 334.998438)scale(0.1 -0.1)">
       <defs>
        <path id="DejaVuSans-2212" d="M 678 2272 
L 4684 2272 
L 4684 1741 
L 678 1741 
L 678 2272 
z
" transform="scale(0.015625)"/>
        <path id="DejaVuSans-32" d="M 1228 531 
L 3431 531 
L 3431 0 
L 469 0 
L 469 531 
Q 828 903 1448 1529 
Q 2069 2156 2228 2338 
Q 2531 2678 2651 2914 
Q 2772 3150 2772 3378 
Q 2772 3750 2511 3984 
Q 2250 4219 1831 4219 
Q 1534 4219 1204 4116 
Q 875 4013 500 3803 
L 500 4441 
Q 881 4594 1212 4672 
Q 1544 4750 1819 4750 
Q 2544 4750 2975 4387 
Q 3406 4025 3406 3419 
Q 3406 3131 3298 2873 
Q 3191 2616 2906 2266 
Q 2828 2175 2409 1742 
Q 1991 1309 1228 531 
z
" transform="scale(0.015625)"/>
       </defs>
       <use xlink:href="#DejaVuSans-2212"/>
       <use xlink:href="#DejaVuSans-32" x="83.789062"/>
      </g>
     </g>
    </g>
    <g id="xtick_2">
     <g id="line2d_2">
      <g>
       <use xlink:href="#me296ae22d3" x="133.772727" y="320.4" style="stroke: #000000; stroke-width: 0.8"/>
      </g>
     </g>
     <g id="text_2">
      <!-- −1 -->
      <g transform="translate(126.401634 334.998438)scale(0.1 -0.1)">
       <defs>
        <path id="DejaVuSans-31" d="M 794 531 
L 1825 531 
L 1825 4091 
L 703 3866 
L 703 4441 
L 1819 4666 
L 2450 4666 
L 2450 531 
L 3481 531 
L 3481 0 
L 794 0 
L 794 531 
z
" transform="scale(0.015625)"/>
       </defs>
       <use xlink:href="#DejaVuSans-2212"/>
       <use xlink:href="#DejaVuSans-31" x="83.789062"/>
      </g>
     </g>
    </g>
    <g id="xtick_3">
     <g id="line2d_3">
      <g>
       <use xlink:href="#me296ae22d3" x="184.5" y="320.4" style="stroke: #000000; stroke-width: 0.8"/>
      </g>
     </g>
     <g id="text_3">
      <!-- 0 -->
      <g transform="translate(181.31875 334.998438)scale(0.1 -0.1)">
       <defs>
        <path id="DejaVuSans-30" d="M 2034 4250 
Q 1547 4250 1301 3770 
Q 1056 3291 1056 2328 
Q 1056 1369 1301 889 
Q 1547 409 2034 409 
Q 2525 409 2770 889 
Q 3016 1369 3016 2328 
Q 3016 3291 2770 3770 
Q 2525 4250 2034 4250 
z
M 2034 4750 
Q 2819 4750 3233 4129 
Q 3647 3509 3647 2328 
Q 3647 1150 3233 529 
Q 2819 -91 2034 -91 
Q 1250 -91 836 529 
Q 422 1150 422 2328 
Q 422 3509 836 4129 
Q 1250 4750 2034 4750 
z
" transform="scale(0.015625)"/>
       </defs>
       <use xlink:href="#DejaVuSans-30"/>
      </g>
     </g>
    </g>
    <g id="xtick_4">
     <g id="line2d_4">
      <g>
       <use xlink:href="#me296ae22d3" x="235.227273" y="320.4" style="stroke: #000000; stroke-width: 0.8"/>
      </g>
     </g>
     <g id="text_4">
      <!-- 1 -->
      <g transform="translate(232.046023 334.998438)scale(0.1 -0.1)">
       <use xlink:href="#DejaVuSans-31"/>
      </g>
     </g>
    </g>
    <g id="xtick_5">
     <g id="line2d_5">
      <g>
       <use xlink:href="#me296ae22d3" x="285.954545" y="320.4" style="stroke: #000000; stroke-width: 0.8"/>
      </g>
     </g>
     <g id="text_5">
      <!-- 2 -->
      <g transform="translate(282.773295 334.998438)scale(0.1 -0.1)">
       <use xlink:href="#DejaVuSans-32"/>
      </g>
     </g>
    </g>
   </g>
   <g id="matplotlib.axis_2">
    <g id="ytick_1">
     <g id="line2d_6">
      <defs>
       <path id="m51d201fed7" d="M 0 0 
L -3.5 0 
" style="stroke: #000000; stroke-width: 0.8"/>
      </defs>
      <g>
       <use xlink:href="#m51d201fed7" x="45" y="294.944617" style="stroke: #000000; stroke-width: 0.8"/>
      </g>
     </g>
     <g id="text_6">
      <!-- −1 -->
      <g transform="translate(23.257812 298.743835)scale(0.1 -0.1)">
       <use xlink:href="#DejaVuSans-2212"/>
       <use xlink:href="#DejaVuSans-31" x="83.789062"/>
      </g>
     </g>
    </g>
    <g id="ytick_2">
     <g id="line2d_7">
      <g>
       <use xlink:href="#m51d201fed7" x="45" y="262.200703" style="stroke: #000000; stroke-width: 0.8"/>
      </g>
     </g>
     <g id="text_7">
      <!-- 0 -->
      <g transform="translate(31.6375 265.999922)scale(0.1 -0.1)">
       <use xlink:href="#DejaVuSans-30"/>
      </g>
     </g>
    </g>
    <g id="ytick_3">
     <g id="line2d_8">
      <g>
       <use xlink:href="#m51d201fed7" x="45" y="229.456789" style="stroke: #000000; stroke-width: 0.8"/>
      </g>
     </g>
     <g id="text_8">
      <!-- 1 -->
      <g transform="translate(31.6375 233.256008)scale(0.1 -0.1)">
       <use xlink:href="#DejaVuSans-31"/>
      </g>
     </g>
    </g>
    <g id="ytick_4">
     <g id="line2d_9">
      <g>
       <use xlink:href="#m51d201fed7" x="45" y="196.712876" style="stroke: #000000; stroke-width: 0.8"/>
      </g>
     </g>
     <g id="text_9">
      <!-- 2 -->
      <g transform="translate(31.6375 200.512095)scale(0.1 -0.1)">
       <use xlink:href="#DejaVuSans-32"/>
      </g>
     </g>
    </g>
    <g id="ytick_5">
     <g id="line2d_10">
      <g>
       <use xlink:href="#m51d201fed7" x="45" y="163.968962" style="stroke: #000000; stroke-width: 0.8"/>
      </g>
     </g>
     <g id="text_10">
      <!-- 3 -->
      <g transform="translate(31.6375 167.768181)scale(0.1 -0.1)">
       <defs>
        <path id="DejaVuSans-33" d="M 2597 2516 
Q 3050 2419 3304 2112 
Q 3559 1806 3559 1356 
Q 3559 666 3084 287 
Q 2609 -91 1734 -91 
Q 1441 -91 1130 -33 
Q 819 25 488 141 
L 488 750 
Q 750 597 1062 519 
Q 1375 441 1716 441 
Q 2309 441 2620 675 
Q 2931 909 2931 1356 
Q 2931 1769 2642 2001 
Q 2353 2234 1838 2234 
L 1294 2234 
L 1294 2753 
L 1863 2753 
Q 2328 2753 2575 2939 
Q 2822 3125 2822 3475 
Q 2822 3834 2567 4026 
Q 2313 4219 1838 4219 
Q 1578 4219 1281 4162 
Q 984 4106 628 3988 
L 628 4550 
Q 988 4650 1302 4700 
Q 1616 4750 1894 4750 
Q 2613 4750 3031 4423 
Q 3450 4097 3450 3541 
Q 3450 3153 3228 2886 
Q 3006 2619 2597 2516 
z
" transform="scale(0.015625)"/>
       </defs>
       <use xlink:href="#DejaVuSans-33"/>
      </g>
     </g>
    </g>
    <g id="ytick_6">
     <g id="line2d_11">
      <g>
       <use xlink:href="#m51d201fed7" x="45" y="131.225049" style="stroke: #000000; stroke-width: 0.8"/>
      </g>
     </g>
     <g id="text_11">
      <!-- 4 -->
      <g transform="translate(31.6375 135.024267)scale(0.1 -0.1)">
       <defs>
        <path id="DejaVuSans-34" d="M 2419 4116 
L 825 1625 
L 2419 1625 
L 2419 4116 
z
M 2253 4666 
L 3047 4666 
L 3047 1625 
L 3713 1625 
L 3713 1100 
L 3047 1100 
L 3047 0 
L 2419 0 
L 2419 1100 
L 313 1100 
L 313 1709 
L 2253 4666 
z
" transform="scale(0.015625)"/>
       </defs>
       <use xlink:href="#DejaVuSans-34"/>
      </g>
     </g>
    </g>
    <g id="ytick_7">
     <g id="line2d_12">
      <g>
       <use xlink:href="#m51d201fed7" x="45" y="98.481135" style="stroke: #000000; stroke-width: 0.8"/>
      </g>
     </g>
     <g id="text_12">
      <!-- 5 -->
      <g transform="translate(31.6375 102.280354)scale(0.1 -0.1)">
       <defs>
        <path id="DejaVuSans-35" d="M 691 4666 
L 3169 4666 
L 3169 4134 
L 1269 4134 
L 1269 2991 
Q 1406 3038 1543 3061 
Q 1681 3084 1819 3084 
Q 2600 3084 3056 2656 
Q 3513 2228 3513 1497 
Q 3513 744 3044 326 
Q 2575 -91 1722 -91 
Q 1428 -91 1123 -41 
Q 819 9 494 109 
L 494 744 
Q 775 591 1075 516 
Q 1375 441 1709 441 
Q 2250 441 2565 725 
Q 2881 1009 2881 1497 
Q 2881 1984 2565 2268 
Q 2250 2553 1709 2553 
Q 1456 2553 1204 2497 
Q 953 2441 691 2322 
L 691 4666 
z
" transform="scale(0.015625)"/>
       </defs>
       <use xlink:href="#DejaVuSans-35"/>
      </g>
     </g>
    </g>
    <g id="ytick_8">
     <g id="line2d_13">
      <g>
       <use xlink:href="#m51d201fed7" x="45" y="65.737221" style="stroke: #000000; stroke-width: 0.8"/>
      </g>
     </g>
     <g id="text_13">
      <!-- 6 -->
      <g transform="translate(31.6375 69.53644)scale(0.1 -0.1)">
       <defs>
        <path id="DejaVuSans-36" d="M 2113 2584 
Q 1688 2584 1439 2293 
Q 1191 2003 1191 1497 
Q 1191 994 1439 701 
Q 1688 409 2113 409 
Q 2538 409 2786 701 
Q 3034 994 3034 1497 
Q 3034 2003 2786 2293 
Q 2538 2584 2113 2584 
z
M 3366 4563 
L 3366 3988 
Q 3128 4100 2886 4159 
Q 2644 4219 2406 4219 
Q 1781 4219 1451 3797 
Q 1122 3375 1075 2522 
Q 1259 2794 1537 2939 
Q 1816 3084 2150 3084 
Q 2853 3084 3261 2657 
Q 3669 2231 3669 1497 
Q 3669 778 3244 343 
Q 2819 -91 2113 -91 
Q 1303 -91 875 529 
Q 447 1150 447 2328 
Q 447 3434 972 4092 
Q 1497 4750 2381 4750 
Q 2619 4750 2861 4703 
Q 3103 4656 3366 4563 
z
" transform="scale(0.015625)"/>
       </defs>
       <use xlink:href="#DejaVuSans-36"/>
      </g>
     </g>
    </g>
   </g>
   <g id="line2d_14">
    <path d="M 57.681818 262.658795 
L 58.317496 260.059624 
L 58.953174 259.995499 
L 59.588863 259.014952 
L 60.224541 258.463432 
L 60.860219 258.530054 
L 61.495896 257.595346 
L 62.131574 255.875069 
L 62.767264 254.995381 
L 63.402942 252.76411 
L 64.038619 252.908035 
L 64.674309 252.281075 
L 65.309987 249.34612 
L 65.945664 249.66579 
L 66.581342 248.465194 
L 67.21702 249.892987 
L 67.852697 249.313003 
L 68.488375 247.665848 
L 69.124053 249.064387 
L 69.759743 248.835166 
L 70.39542 247.722988 
L 71.031098 248.211067 
L 71.666776 248.89846 
L 72.302453 246.850091 
L 72.938143 246.74604 
L 73.573821 248.129299 
L 74.209498 249.10209 
L 74.845188 250.843972 
L 76.116544 250.187444 
L 76.752221 250.592707 
L 77.387899 252.408676 
L 78.023577 253.758319 
L 78.659254 253.175675 
L 79.294932 256.431117 
L 79.930622 255.188553 
L 80.566299 258.005141 
L 81.201977 258.535848 
L 81.837655 260.112806 
L 82.473333 260.849483 
L 83.109022 262.82444 
L 83.7447 262.436277 
L 84.380384 264.973927 
L 85.016061 264.957637 
L 85.651745 265.957396 
L 86.287423 269.608565 
L 86.923101 271.260142 
L 87.558784 269.974541 
L 88.194462 271.186853 
L 88.83014 274.853225 
L 89.465823 274.807125 
L 90.101501 277.309112 
L 90.737185 277.978486 
L 91.372862 277.188516 
L 92.644224 278.633912 
L 93.279902 280.024867 
L 93.915579 278.567112 
L 95.186941 281.722762 
L 95.822624 281.023012 
L 96.458302 280.596421 
L 97.09398 280.359105 
L 97.729663 281.915174 
L 98.365347 279.850628 
L 99.001025 280.888968 
L 99.636709 280.883669 
L 100.272386 279.772084 
L 100.90807 276.539539 
L 101.543748 275.848512 
L 102.179425 274.804216 
L 102.815109 274.228376 
L 103.450781 272.773699 
L 104.086458 272.958338 
L 104.722142 272.282616 
L 105.35782 269.127203 
L 105.993504 269.285399 
L 106.629181 267.970151 
L 108.536226 261.013572 
L 109.171904 260.756314 
L 109.807588 259.331457 
L 110.443266 256.388347 
L 111.078949 255.820018 
L 111.714627 254.182016 
L 112.350305 250.549954 
L 112.985988 250.002642 
L 113.621666 246.60379 
L 114.257344 244.938114 
L 114.893027 244.541277 
L 115.528705 243.04748 
L 116.164389 241.9037 
L 117.435744 240.047577 
L 118.071428 238.90222 
L 119.342783 235.781408 
L 119.978467 237.125502 
L 120.614145 236.93845 
L 121.249829 236.341315 
L 121.885506 236.592493 
L 122.521184 235.542131 
L 123.156868 234.782979 
L 123.792545 235.077229 
L 124.428223 236.127504 
L 125.063907 238.775491 
L 126.335268 239.819348 
L 127.606623 241.873759 
L 128.242307 245.023698 
L 128.877991 244.675267 
L 129.513669 248.242949 
L 130.149352 249.976717 
L 130.78503 252.377927 
L 131.420714 251.78615 
L 132.056391 257.068451 
L 132.692069 256.687022 
L 133.327753 260.467645 
L 133.963431 263.167394 
L 134.599111 264.577822 
L 135.234792 268.424412 
L 135.87047 269.949287 
L 136.50615 272.511809 
L 137.141831 277.83726 
L 137.777512 278.490911 
L 139.04887 284.067284 
L 140.320232 289.009201 
L 140.955909 292.623426 
L 141.59159 294.308243 
L 142.227271 294.673636 
L 142.862951 297.11059 
L 144.13431 303.201937 
L 144.769991 303.029611 
L 145.405671 305.444764 
L 146.041349 304.002286 
L 146.67703 307.093313 
L 147.31271 306.732875 
L 147.948391 307.231235 
L 148.584072 306.557039 
L 149.219749 305.005899 
L 149.85543 305.798262 
L 151.762469 301.040129 
L 152.39815 301.108602 
L 153.033831 298.774838 
L 153.669511 295.16812 
L 154.305195 293.63556 
L 154.940876 289.338656 
L 155.576557 287.067202 
L 156.212234 284.116318 
L 156.847915 278.333651 
L 157.483596 274.448173 
L 159.390635 258.999886 
L 160.026315 253.182519 
L 161.297675 244.672688 
L 165.111749 205.936513 
L 168.29015 167.995087 
L 168.925829 162.807371 
L 169.561514 155.80236 
L 170.197195 147.527697 
L 170.832874 142.379211 
L 171.468555 135.632674 
L 172.104235 127.277952 
L 172.739914 123.305421 
L 174.011274 108.199845 
L 174.64696 103.583897 
L 175.28264 97.889383 
L 175.91832 94.029316 
L 176.554 88.130015 
L 178.46104 74.483834 
L 179.09672 70.06026 
L 179.732393 69.464932 
L 180.368073 65.279995 
L 181.639433 62.037474 
L 182.275114 59.189913 
L 182.910794 59.231788 
L 183.546474 55.8 
L 184.182154 56.328158 
L 184.817839 57.400151 
L 185.453519 56.087023 
L 186.089199 59.34013 
L 186.724879 59.692074 
L 187.360559 61.061286 
L 187.996239 64.226208 
L 189.2676 68.482452 
L 189.903285 70.240659 
L 190.538964 73.538998 
L 191.174644 78.071383 
L 191.810325 84.425131 
L 192.446005 89.178556 
L 193.081685 91.6471 
L 196.26009 122.4256 
L 196.895771 126.710729 
L 197.53145 135.262399 
L 198.167131 141.653643 
L 198.802811 149.761366 
L 200.074164 162.353721 
L 200.709844 170.377498 
L 201.981204 182.817706 
L 202.616884 192.121558 
L 203.252564 197.022012 
L 203.888245 205.508472 
L 204.523924 212.050035 
L 205.79529 223.23665 
L 206.430969 231.40755 
L 208.973691 256.168189 
L 210.245049 264.913479 
L 210.88073 271.645619 
L 211.51641 273.269768 
L 212.152088 277.972926 
L 212.787769 284.608622 
L 213.42345 287.491537 
L 214.05913 289.571345 
L 214.694811 293.525225 
L 215.966169 299.147888 
L 216.60185 299.228165 
L 217.237528 303.277038 
L 217.873208 302.509427 
L 218.508889 304.957126 
L 219.14457 305.624713 
L 219.780251 305.269319 
L 220.415928 307.118138 
L 221.051609 307.8 
L 221.68729 306.879454 
L 222.322967 304.771544 
L 222.958648 306.548425 
L 223.594329 303.958267 
L 224.230009 304.71039 
L 224.86569 300.803721 
L 226.137049 298.141132 
L 226.772729 295.526493 
L 227.408407 294.096951 
L 228.044088 290.929892 
L 228.679768 290.753061 
L 230.586807 280.163911 
L 231.222488 278.286904 
L 231.858169 277.606357 
L 232.493847 272.436381 
L 233.129527 271.341154 
L 233.765208 268.622655 
L 234.400889 267.089915 
L 235.672253 259.254545 
L 236.307931 257.69377 
L 236.943615 256.471687 
L 237.579292 252.708696 
L 238.214976 251.541723 
L 238.850654 247.446016 
L 239.486331 248.414989 
L 240.122015 245.701964 
L 240.757693 245.101633 
L 242.664732 237.883649 
L 243.300416 238.156318 
L 243.936093 235.965589 
L 244.571771 236.558864 
L 245.207455 235.41194 
L 245.843132 234.692582 
L 246.47881 234.451951 
L 247.114494 236.717901 
L 247.750171 234.439622 
L 248.385855 235.254624 
L 249.021533 237.466727 
L 249.657211 238.084898 
L 250.292894 239.420366 
L 250.928572 238.513561 
L 251.56425 241.255526 
L 252.199933 240.358532 
L 252.835611 241.763697 
L 253.471295 245.033331 
L 254.106973 244.584835 
L 254.74265 246.663887 
L 255.378334 247.351935 
L 256.014012 248.788213 
L 256.649689 253.030936 
L 257.285373 251.61463 
L 257.921051 253.481979 
L 258.556734 255.95778 
L 259.192412 259.864192 
L 259.82809 260.705231 
L 261.099451 263.986437 
L 261.735129 264.31519 
L 262.370813 266.270008 
L 263.00649 267.140061 
L 263.642174 270.558388 
L 264.277852 270.830787 
L 264.913529 272.156662 
L 265.549213 275.373617 
L 266.184897 276.777553 
L 266.820575 277.119822 
L 267.456258 276.127356 
L 268.091936 279.659831 
L 268.72762 280.302905 
L 269.363297 278.606108 
L 269.998975 279.169239 
L 270.634659 279.117811 
L 271.270337 281.993526 
L 271.906014 282.130705 
L 272.541698 280.149726 
L 273.177376 279.506568 
L 273.813059 279.77708 
L 274.448737 280.214852 
L 275.084415 279.537981 
L 275.720098 278.025375 
L 276.355776 280.037293 
L 276.991454 279.030924 
L 277.627138 276.359563 
L 278.262815 277.758514 
L 278.898499 276.597401 
L 279.534177 273.485426 
L 280.169854 273.086591 
L 280.805538 271.940853 
L 281.441222 271.981961 
L 282.076899 270.088388 
L 282.712583 267.312507 
L 283.348261 268.51419 
L 284.619622 264.152699 
L 285.2553 264.756974 
L 285.890984 260.73966 
L 286.526655 261.865966 
L 287.162333 260.18245 
L 287.798011 259.003912 
L 289.069378 257.829812 
L 289.705056 254.204132 
L 290.340734 253.653015 
L 290.976411 254.644459 
L 291.612101 253.25545 
L 292.247779 249.746544 
L 292.883456 249.978457 
L 293.519146 249.267188 
L 294.154824 250.307008 
L 295.426179 248.642032 
L 296.061857 248.362022 
L 296.697535 248.943096 
L 297.333212 247.536245 
L 297.96889 247.449527 
L 298.60458 247.851215 
L 299.240257 247.537957 
L 299.875935 248.622462 
L 300.511613 247.841493 
L 301.14729 248.026803 
L 301.78298 249.962775 
L 302.418658 251.255764 
L 303.054336 249.379098 
L 303.690025 250.516558 
L 304.325703 252.473243 
L 304.961381 250.85366 
L 305.597058 254.014603 
L 306.232736 253.05683 
L 306.868426 254.261869 
L 307.504104 257.428599 
L 308.139781 255.991531 
L 308.775471 259.565898 
L 310.046826 260.398863 
L 310.682504 262.268879 
L 311.318182 260.601319 
L 311.318182 260.601319 
" clip-path="url(#p73452f7eea)" style="fill: none; stroke: #1f77b4; stroke-width: 1.5; stroke-linecap: square"/>
   </g>
   <g id="line2d_15">
    <path d="M 57.681818 276.294974 
L 86.287423 276.193115 
L 91.372862 275.959732 
L 94.551263 275.592959 
L 96.458302 275.205361 
L 98.365347 274.611579 
L 100.272386 273.712331 
L 101.543748 272.878464 
L 102.815109 271.802228 
L 104.086458 270.431884 
L 105.35782 268.7169 
L 106.629181 266.616496 
L 107.900543 264.111339 
L 109.807588 259.640897 
L 112.350305 252.797474 
L 114.893027 246.028344 
L 116.164389 243.078197 
L 117.435744 240.584891 
L 118.707106 238.622198 
L 119.978467 237.226915 
L 120.614145 236.746453 
L 121.249829 236.41116 
L 121.885506 236.221019 
L 122.521184 236.176005 
L 123.156868 236.27647 
L 123.792545 236.523218 
L 124.428223 236.917787 
L 125.063907 237.462285 
L 126.335268 239.012856 
L 127.606623 241.202612 
L 128.877991 244.060408 
L 130.149352 247.605629 
L 131.420714 251.83444 
L 132.692069 256.70538 
L 134.599111 265.00168 
L 140.320232 291.091109 
L 141.59159 295.747979 
L 142.862951 299.627812 
L 144.13431 302.64724 
L 145.405671 304.760302 
L 146.041349 305.469398 
L 146.67703 305.944548 
L 147.31271 306.184302 
L 147.948391 306.187112 
L 148.584072 305.950919 
L 149.219749 305.473075 
L 149.85543 304.75013 
L 150.491111 303.777853 
L 151.126789 302.551123 
L 152.39815 299.310249 
L 153.669511 294.974173 
L 154.940876 289.486993 
L 156.212234 282.800282 
L 157.483596 274.884945 
L 158.754957 265.743486 
L 160.661995 249.840684 
L 162.569035 231.629385 
L 165.111749 204.720064 
L 172.739914 121.430191 
L 174.64696 103.5243 
L 176.554 87.995473 
L 177.82536 79.203753 
L 179.09672 71.789067 
L 180.368073 65.827015 
L 181.639433 61.366359 
L 182.275114 59.709046 
L 182.910794 58.4377 
L 183.546474 57.554943 
L 184.182154 57.063571 
L 184.817839 56.966579 
L 185.453519 57.26728 
L 186.089199 57.96942 
L 186.724879 59.076886 
L 187.360559 60.59349 
L 187.996239 62.522492 
L 189.2676 67.625629 
L 190.538964 74.381972 
L 191.810325 82.741057 
L 193.081685 92.588517 
L 194.98873 109.72655 
L 197.53145 135.602984 
L 207.06665 236.4808 
L 208.973691 254.515101 
L 210.88073 270.535215 
L 212.152088 279.749663 
L 213.42345 287.617501 
L 214.694811 294.064407 
L 215.966169 299.081917 
L 217.237528 302.714877 
L 217.873208 304.036624 
L 218.508889 305.044648 
L 219.14457 305.752096 
L 219.780251 306.172599 
L 220.415928 306.319866 
L 221.051609 306.207566 
L 221.68729 305.849166 
L 222.322967 305.257796 
L 222.958648 304.446393 
L 224.230009 302.213254 
L 225.501368 299.24767 
L 226.772729 295.645991 
L 228.679768 289.265015 
L 230.586807 282.017151 
L 238.214976 251.752414 
L 240.122015 245.629855 
L 241.39337 242.179355 
L 242.664732 239.313712 
L 243.936093 237.094306 
L 245.207455 235.576501 
L 245.843132 235.096042 
L 246.47881 234.80798 
L 247.114494 234.716469 
L 247.750171 234.824179 
L 248.385855 235.132351 
L 249.021533 235.640204 
L 249.657211 236.344779 
L 250.928572 238.318593 
L 252.199933 240.972609 
L 253.471295 244.176081 
L 256.014012 251.512013 
L 258.556734 258.787739 
L 260.463774 263.46803 
L 261.735129 266.074597 
L 263.00649 268.255798 
L 264.277852 270.036355 
L 265.549213 271.459949 
L 266.820575 272.578423 
L 268.091936 273.444403 
L 269.363297 274.10658 
L 271.270337 274.808641 
L 273.177376 275.260621 
L 275.720098 275.613963 
L 279.534177 275.850789 
L 285.890984 275.943151 
L 311.318182 275.919075 
L 311.318182 275.919075 
" clip-path="url(#p73452f7eea)" style="fill: none; stroke: #ff7f0e; stroke-width: 1.5; stroke-linecap: square"/>
   </g>
   <g id="line2d_16">
    <path d="M 57.681818 276.294974 
L 86.287423 276.193115 
L 91.372862 275.959732 
L 94.551263 275.592959 
L 96.458302 275.205361 
L 98.365347 274.611579 
L 100.272386 273.712331 
L 101.543748 272.878464 
L 102.815109 271.802228 
L 104.086458 270.431884 
L 105.35782 268.7169 
L 106.629181 266.616496 
L 107.900543 264.111339 
L 109.807588 259.640897 
L 112.350305 252.797474 
L 114.893027 246.028344 
L 116.164389 243.078197 
L 117.435744 240.584891 
L 118.707106 238.622198 
L 119.978467 237.226915 
L 120.614145 236.746453 
L 121.249829 236.41116 
L 121.885506 236.221019 
L 122.521184 236.176005 
L 123.156868 236.27647 
L 123.792545 236.523218 
L 124.428223 236.917787 
L 125.063907 237.462285 
L 126.335268 239.012856 
L 127.606623 241.202612 
L 128.877991 244.060408 
L 130.149352 247.605629 
L 131.420714 251.83444 
L 132.692069 256.70538 
L 134.599111 265.00168 
L 140.320232 291.091109 
L 141.59159 295.747979 
L 142.862951 299.627812 
L 144.13431 302.64724 
L 145.405671 304.760302 
L 146.041349 305.469398 
L 146.67703 305.944548 
L 147.31271 306.184302 
L 147.948391 306.187112 
L 148.584072 305.950919 
L 149.219749 305.473075 
L 149.85543 304.75013 
L 150.491111 303.777853 
L 151.126789 302.551123 
L 152.39815 299.310249 
L 153.669511 294.974173 
L 154.940876 289.486993 
L 156.212234 282.800282 
L 157.483596 274.884945 
L 158.754957 265.743486 
L 160.661995 249.840684 
L 162.569035 231.629385 
L 165.111749 204.720064 
L 172.739914 121.430191 
L 174.64696 103.5243 
L 176.554 87.995473 
L 177.82536 79.203753 
L 179.09672 71.789067 
L 180.368073 65.827015 
L 181.639433 61.366359 
L 182.275114 59.709046 
L 182.910794 58.4377 
L 183.546474 57.554943 
L 184.182154 57.063571 
L 184.817839 56.966579 
L 185.453519 57.26728 
L 186.089199 57.96942 
L 186.724879 59.076886 
L 187.360559 60.59349 
L 187.996239 62.522492 
L 189.2676 67.625629 
L 190.538964 74.381972 
L 191.810325 82.741057 
L 193.081685 92.588517 
L 194.98873 109.72655 
L 197.53145 135.602984 
L 207.06665 236.4808 
L 208.973691 254.515101 
L 210.88073 270.535215 
L 212.152088 279.749663 
L 213.42345 287.617501 
L 214.694811 294.064407 
L 215.966169 299.081917 
L 217.237528 302.714877 
L 217.873208 304.036624 
L 218.508889 305.044648 
L 219.14457 305.752096 
L 219.780251 306.172599 
L 220.415928 306.319866 
L 221.051609 306.207566 
L 221.68729 305.849166 
L 222.322967 305.257796 
L 222.958648 304.446393 
L 224.230009 302.213254 
L 225.501368 299.24767 
L 226.772729 295.645991 
L 228.679768 289.265015 
L 230.586807 282.017151 
L 238.214976 251.752414 
L 240.122015 245.629855 
L 241.39337 242.179355 
L 242.664732 239.313712 
L 243.936093 237.094306 
L 245.207455 235.576501 
L 245.843132 235.096042 
L 246.47881 234.80798 
L 247.114494 234.716469 
L 247.750171 234.824179 
L 248.385855 235.132351 
L 249.021533 235.640204 
L 249.657211 236.344779 
L 250.928572 238.318593 
L 252.199933 240.972609 
L 253.471295 244.176081 
L 256.014012 251.512013 
L 258.556734 258.787739 
L 260.463774 263.46803 
L 261.735129 266.074597 
L 263.00649 268.255798 
L 264.277852 270.036355 
L 265.549213 271.459949 
L 266.820575 272.578423 
L 268.091936 273.444403 
L 269.363297 274.10658 
L 271.270337 274.808641 
L 273.177376 275.260621 
L 275.720098 275.613963 
L 279.534177 275.850789 
L 285.890984 275.943151 
L 311.318182 275.919075 
L 311.318182 275.919075 
" clip-path="url(#p73452f7eea)" style="fill: none; stroke: #2ca02c; stroke-width: 1.5; stroke-linecap: square"/>
   </g>
   <g id="line2d_17">
    <path d="M 57.681818 276.294974 
L 86.287423 276.193115 
L 91.372862 275.959732 
L 94.551263 275.592959 
L 96.458302 275.205361 
L 98.365347 274.611579 
L 100.272386 273.712331 
L 101.543748 272.878464 
L 102.815109 271.802228 
L 104.086458 270.431884 
L 105.35782 268.7169 
L 106.629181 266.616496 
L 107.900543 264.111339 
L 109.807588 259.640897 
L 112.350305 252.797474 
L 114.893027 246.028344 
L 116.164389 243.078197 
L 117.435744 240.584891 
L 118.707106 238.622198 
L 119.978467 237.226915 
L 120.614145 236.746453 
L 121.249829 236.41116 
L 121.885506 236.221019 
L 122.521184 236.176005 
L 123.156868 236.27647 
L 123.792545 236.523218 
L 124.428223 236.917787 
L 125.063907 237.462285 
L 126.335268 239.012856 
L 127.606623 241.202612 
L 128.877991 244.060408 
L 130.149352 247.605629 
L 131.420714 251.83444 
L 132.692069 256.70538 
L 134.599111 265.00168 
L 140.320232 291.091109 
L 141.59159 295.747979 
L 142.862951 299.627812 
L 144.13431 302.64724 
L 145.405671 304.760302 
L 146.041349 305.469398 
L 146.67703 305.944548 
L 147.31271 306.184302 
L 147.948391 306.187112 
L 148.584072 305.950919 
L 149.219749 305.473075 
L 149.85543 304.75013 
L 150.491111 303.777853 
L 151.126789 302.551123 
L 152.39815 299.310249 
L 153.669511 294.974173 
L 154.940876 289.486993 
L 156.212234 282.800282 
L 157.483596 274.884945 
L 158.754957 265.743486 
L 160.661995 249.840684 
L 162.569035 231.629385 
L 165.111749 204.720064 
L 172.739914 121.430191 
L 174.64696 103.5243 
L 176.554 87.995473 
L 177.82536 79.203753 
L 179.09672 71.789067 
L 180.368073 65.827015 
L 181.639433 61.366359 
L 182.275114 59.709046 
L 182.910794 58.4377 
L 183.546474 57.554943 
L 184.182154 57.063571 
L 184.817839 56.966579 
L 185.453519 57.26728 
L 186.089199 57.96942 
L 186.724879 59.076886 
L 187.360559 60.59349 
L 187.996239 62.522492 
L 189.2676 67.625629 
L 190.538964 74.381972 
L 191.810325 82.741057 
L 193.081685 92.588517 
L 194.98873 109.72655 
L 197.53145 135.602984 
L 207.06665 236.4808 
L 208.973691 254.515101 
L 210.88073 270.535215 
L 212.152088 279.749663 
L 213.42345 287.617501 
L 214.694811 294.064407 
L 215.966169 299.081917 
L 217.237528 302.714877 
L 217.873208 304.036624 
L 218.508889 305.044648 
L 219.14457 305.752096 
L 219.780251 306.172599 
L 220.415928 306.319866 
L 221.051609 306.207566 
L 221.68729 305.849166 
L 222.322967 305.257796 
L 222.958648 304.446393 
L 224.230009 302.213254 
L 225.501368 299.24767 
L 226.772729 295.645991 
L 228.679768 289.265015 
L 230.586807 282.017151 
L 238.214976 251.752414 
L 240.122015 245.629855 
L 241.39337 242.179355 
L 242.664732 239.313712 
L 243.936093 237.094306 
L 245.207455 235.576501 
L 245.843132 235.096042 
L 246.47881 234.80798 
L 247.114494 234.716469 
L 247.750171 234.824179 
L 248.385855 235.132351 
L 249.021533 235.640204 
L 249.657211 236.344779 
L 250.928572 238.318593 
L 252.199933 240.972609 
L 253.471295 244.176081 
L 256.014012 251.512013 
L 258.556734 258.787739 
L 260.463774 263.46803 
L 261.735129 266.074597 
L 263.00649 268.255798 
L 264.277852 270.036355 
L 265.549213 271.459949 
L 266.820575 272.578423 
L 268.091936 273.444403 
L 269.363297 274.10658 
L 271.270337 274.808641 
L 273.177376 275.260621 
L 275.720098 275.613963 
L 279.534177 275.850789 
L 285.890984 275.943151 
L 311.318182 275.919075 
L 311.318182 275.919075 
" clip-path="url(#p73452f7eea)" style="fill: none; stroke: #d62728; stroke-width: 1.5; stroke-linecap: square"/>
   </g>
   <g id="line2d_18">
    <path d="M 57.681818 276.294974 
L 86.287423 276.193115 
L 91.372862 275.959732 
L 94.551263 275.592959 
L 96.458302 275.205361 
L 98.365347 274.611579 
L 100.272386 273.712331 
L 101.543748 272.878464 
L 102.815109 271.802228 
L 104.086458 270.431884 
L 105.35782 268.7169 
L 106.629181 266.616496 
L 107.900543 264.111339 
L 109.807588 259.640897 
L 112.350305 252.797474 
L 114.893027 246.028344 
L 116.164389 243.078197 
L 117.435744 240.584891 
L 118.707106 238.622198 
L 119.978467 237.226915 
L 120.614145 236.746453 
L 121.249829 236.41116 
L 121.885506 236.221019 
L 122.521184 236.176005 
L 123.156868 236.27647 
L 123.792545 236.523218 
L 124.428223 236.917787 
L 125.063907 237.462285 
L 126.335268 239.012856 
L 127.606623 241.202612 
L 128.877991 244.060408 
L 130.149352 247.605629 
L 131.420714 251.83444 
L 132.692069 256.70538 
L 134.599111 265.00168 
L 140.320232 291.091109 
L 141.59159 295.747979 
L 142.862951 299.627812 
L 144.13431 302.64724 
L 145.405671 304.760302 
L 146.041349 305.469398 
L 146.67703 305.944548 
L 147.31271 306.184302 
L 147.948391 306.187112 
L 148.584072 305.950919 
L 149.219749 305.473075 
L 149.85543 304.75013 
L 150.491111 303.777853 
L 151.126789 302.551123 
L 152.39815 299.310249 
L 153.669511 294.974173 
L 154.940876 289.486993 
L 156.212234 282.800282 
L 157.483596 274.884945 
L 158.754957 265.743486 
L 160.661995 249.840684 
L 162.569035 231.629385 
L 165.111749 204.720064 
L 172.739914 121.430191 
L 174.64696 103.5243 
L 176.554 87.995473 
L 177.82536 79.203753 
L 179.09672 71.789067 
L 180.368073 65.827015 
L 181.639433 61.366359 
L 182.275114 59.709046 
L 182.910794 58.4377 
L 183.546474 57.554943 
L 184.182154 57.063571 
L 184.817839 56.966579 
L 185.453519 57.26728 
L 186.089199 57.96942 
L 186.724879 59.076886 
L 187.360559 60.59349 
L 187.996239 62.522492 
L 189.2676 67.625629 
L 190.538964 74.381972 
L 191.810325 82.741057 
L 193.081685 92.588517 
L 194.98873 109.72655 
L 197.53145 135.602984 
L 207.06665 236.4808 
L 208.973691 254.515101 
L 210.88073 270.535215 
L 212.152088 279.749663 
L 213.42345 287.617501 
L 214.694811 294.064407 
L 215.966169 299.081917 
L 217.237528 302.714877 
L 217.873208 304.036624 
L 218.508889 305.044648 
L 219.14457 305.752096 
L 219.780251 306.172599 
L 220.415928 306.319866 
L 221.051609 306.207566 
L 221.68729 305.849166 
L 222.322967 305.257796 
L 222.958648 304.446393 
L 224.230009 302.213254 
L 225.501368 299.24767 
L 226.772729 295.645991 
L 228.679768 289.265015 
L 230.586807 282.017151 
L 238.214976 251.752414 
L 240.122015 245.629855 
L 241.39337 242.179355 
L 242.664732 239.313712 
L 243.936093 237.094306 
L 245.207455 235.576501 
L 245.843132 235.096042 
L 246.47881 234.80798 
L 247.114494 234.716469 
L 247.750171 234.824179 
L 248.385855 235.132351 
L 249.021533 235.640204 
L 249.657211 236.344779 
L 250.928572 238.318593 
L 252.199933 240.972609 
L 253.471295 244.176081 
L 256.014012 251.512013 
L 258.556734 258.787739 
L 260.463774 263.46803 
L 261.735129 266.074597 
L 263.00649 268.255798 
L 264.277852 270.036355 
L 265.549213 271.459949 
L 266.820575 272.578423 
L 268.091936 273.444403 
L 269.363297 274.10658 
L 271.270337 274.808641 
L 273.177376 275.260621 
L 275.720098 275.613963 
L 279.534177 275.850789 
L 285.890984 275.943151 
L 311.318182 275.919075 
L 311.318182 275.919075 
" clip-path="url(#p73452f7eea)" style="fill: none; stroke: #9467bd; stroke-width: 1.5; stroke-linecap: square"/>
   </g>
   <g id="line2d_19">
    <path d="M 57.681818 276.294974 
L 86.287423 276.193115 
L 91.372862 275.959732 
L 94.551263 275.592959 
L 96.458302 275.205361 
L 98.365347 274.611579 
L 100.272386 273.712331 
L 101.543748 272.878464 
L 102.815109 271.802228 
L 104.086458 270.431884 
L 105.35782 268.7169 
L 106.629181 266.616496 
L 107.900543 264.111339 
L 109.807588 259.640897 
L 112.350305 252.797474 
L 114.893027 246.028344 
L 116.164389 243.078197 
L 117.435744 240.584891 
L 118.707106 238.622198 
L 119.978467 237.226915 
L 120.614145 236.746453 
L 121.249829 236.41116 
L 121.885506 236.221019 
L 122.521184 236.176005 
L 123.156868 236.27647 
L 123.792545 236.523218 
L 124.428223 236.917787 
L 125.063907 237.462285 
L 126.335268 239.012856 
L 127.606623 241.202612 
L 128.877991 244.060408 
L 130.149352 247.605629 
L 131.420714 251.83444 
L 132.692069 256.70538 
L 134.599111 265.00168 
L 140.320232 291.091109 
L 141.59159 295.747979 
L 142.862951 299.627812 
L 144.13431 302.64724 
L 145.405671 304.760302 
L 146.041349 305.469398 
L 146.67703 305.944548 
L 147.31271 306.184302 
L 147.948391 306.187112 
L 148.584072 305.950919 
L 149.219749 305.473075 
L 149.85543 304.75013 
L 150.491111 303.777853 
L 151.126789 302.551123 
L 152.39815 299.310249 
L 153.669511 294.974173 
L 154.940876 289.486993 
L 156.212234 282.800282 
L 157.483596 274.884945 
L 158.754957 265.743486 
L 160.661995 249.840684 
L 162.569035 231.629385 
L 165.111749 204.720064 
L 172.739914 121.430191 
L 174.64696 103.5243 
L 176.554 87.995473 
L 177.82536 79.203753 
L 179.09672 71.789067 
L 180.368073 65.827015 
L 181.639433 61.366359 
L 182.275114 59.709046 
L 182.910794 58.4377 
L 183.546474 57.554943 
L 184.182154 57.063571 
L 184.817839 56.966579 
L 185.453519 57.26728 
L 186.089199 57.96942 
L 186.724879 59.076886 
L 187.360559 60.59349 
L 187.996239 62.522492 
L 189.2676 67.625629 
L 190.538964 74.381972 
L 191.810325 82.741057 
L 193.081685 92.588517 
L 194.98873 109.72655 
L 197.53145 135.602984 
L 207.06665 236.4808 
L 208.973691 254.515101 
L 210.88073 270.535215 
L 212.152088 279.749663 
L 213.42345 287.617501 
L 214.694811 294.064407 
L 215.966169 299.081917 
L 217.237528 302.714877 
L 217.873208 304.036624 
L 218.508889 305.044648 
L 219.14457 305.752096 
L 219.780251 306.172599 
L 220.415928 306.319866 
L 221.051609 306.207566 
L 221.68729 305.849166 
L 222.322967 305.257796 
L 222.958648 304.446393 
L 224.230009 302.213254 
L 225.501368 299.24767 
L 226.772729 295.645991 
L 228.679768 289.265015 
L 230.586807 282.017151 
L 238.214976 251.752414 
L 240.122015 245.629855 
L 241.39337 242.179355 
L 242.664732 239.313712 
L 243.936093 237.094306 
L 245.207455 235.576501 
L 245.843132 235.096042 
L 246.47881 234.80798 
L 247.114494 234.716469 
L 247.750171 234.824179 
L 248.385855 235.132351 
L 249.021533 235.640204 
L 249.657211 236.344779 
L 250.928572 238.318593 
L 252.199933 240.972609 
L 253.471295 244.176081 
L 256.014012 251.512013 
L 258.556734 258.787739 
L 260.463774 263.46803 
L 261.735129 266.074597 
L 263.00649 268.255798 
L 264.277852 270.036355 
L 265.549213 271.459949 
L 266.820575 272.578423 
L 268.091936 273.444403 
L 269.363297 274.10658 
L 271.270337 274.808641 
L 273.177376 275.260621 
L 275.720098 275.613963 
L 279.534177 275.850789 
L 285.890984 275.943151 
L 311.318182 275.919075 
L 311.318182 275.919075 
" clip-path="url(#p73452f7eea)" style="fill: none; stroke: #8c564b; stroke-width: 1.5; stroke-linecap: square"/>
   </g>
   <g id="line2d_20">
    <path d="M 57.681818 276.294974 
L 86.287423 276.193115 
L 91.372862 275.959732 
L 94.551263 275.592959 
L 96.458302 275.205361 
L 98.365347 274.611579 
L 100.272386 273.712331 
L 101.543748 272.878464 
L 102.815109 271.802228 
L 104.086458 270.431884 
L 105.35782 268.7169 
L 106.629181 266.616496 
L 107.900543 264.111339 
L 109.807588 259.640897 
L 112.350305 252.797474 
L 114.893027 246.028344 
L 116.164389 243.078197 
L 117.435744 240.584891 
L 118.707106 238.622198 
L 119.978467 237.226915 
L 120.614145 236.746453 
L 121.249829 236.41116 
L 121.885506 236.221019 
L 122.521184 236.176005 
L 123.156868 236.27647 
L 123.792545 236.523218 
L 124.428223 236.917787 
L 125.063907 237.462285 
L 126.335268 239.012856 
L 127.606623 241.202612 
L 128.877991 244.060408 
L 130.149352 247.605629 
L 131.420714 251.83444 
L 132.692069 256.70538 
L 134.599111 265.00168 
L 140.320232 291.091109 
L 141.59159 295.747979 
L 142.862951 299.627812 
L 144.13431 302.64724 
L 145.405671 304.760302 
L 146.041349 305.469398 
L 146.67703 305.944548 
L 147.31271 306.184302 
L 147.948391 306.187112 
L 148.584072 305.950919 
L 149.219749 305.473075 
L 149.85543 304.75013 
L 150.491111 303.777853 
L 151.126789 302.551123 
L 152.39815 299.310249 
L 153.669511 294.974173 
L 154.940876 289.486993 
L 156.212234 282.800282 
L 157.483596 274.884945 
L 158.754957 265.743486 
L 160.661995 249.840684 
L 162.569035 231.629385 
L 165.111749 204.720064 
L 172.739914 121.430191 
L 174.64696 103.5243 
L 176.554 87.995473 
L 177.82536 79.203753 
L 179.09672 71.789067 
L 180.368073 65.827015 
L 181.639433 61.366359 
L 182.275114 59.709046 
L 182.910794 58.4377 
L 183.546474 57.554943 
L 184.182154 57.063571 
L 184.817839 56.966579 
L 185.453519 57.26728 
L 186.089199 57.96942 
L 186.724879 59.076886 
L 187.360559 60.59349 
L 187.996239 62.522492 
L 189.2676 67.625629 
L 190.538964 74.381972 
L 191.810325 82.741057 
L 193.081685 92.588517 
L 194.98873 109.72655 
L 197.53145 135.602984 
L 207.06665 236.4808 
L 208.973691 254.515101 
L 210.88073 270.535215 
L 212.152088 279.749663 
L 213.42345 287.617501 
L 214.694811 294.064407 
L 215.966169 299.081917 
L 217.237528 302.714877 
L 217.873208 304.036624 
L 218.508889 305.044648 
L 219.14457 305.752096 
L 219.780251 306.172599 
L 220.415928 306.319866 
L 221.051609 306.207566 
L 221.68729 305.849166 
L 222.322967 305.257796 
L 222.958648 304.446393 
L 224.230009 302.213254 
L 225.501368 299.24767 
L 226.772729 295.645991 
L 228.679768 289.265015 
L 230.586807 282.017151 
L 238.214976 251.752414 
L 240.122015 245.629855 
L 241.39337 242.179355 
L 242.664732 239.313712 
L 243.936093 237.094306 
L 245.207455 235.576501 
L 245.843132 235.096042 
L 246.47881 234.80798 
L 247.114494 234.716469 
L 247.750171 234.824179 
L 248.385855 235.132351 
L 249.021533 235.640204 
L 249.657211 236.344779 
L 250.928572 238.318593 
L 252.199933 240.972609 
L 253.471295 244.176081 
L 256.014012 251.512013 
L 258.556734 258.787739 
L 260.463774 263.46803 
L 261.735129 266.074597 
L 263.00649 268.255798 
L 264.277852 270.036355 
L 265.549213 271.459949 
L 266.820575 272.578423 
L 268.091936 273.444403 
L 269.363297 274.10658 
L 271.270337 274.808641 
L 273.177376 275.260621 
L 275.720098 275.613963 
L 279.534177 275.850789 
L 285.890984 275.943151 
L 311.318182 275.919075 
L 311.318182 275.919075 
" clip-path="url(#p73452f7eea)" style="fill: none; stroke: #e377c2; stroke-width: 1.5; stroke-linecap: square"/>
   </g>
   <g id="patch_3">
    <path d="M 45 320.4 
L 45 43.2 
" style="fill: none; stroke: #000000; stroke-width: 0.8; stroke-linejoin: miter; stroke-linecap: square"/>
   </g>
   <g id="patch_4">
    <path d="M 324 320.4 
L 324 43.2 
" style="fill: none; stroke: #000000; stroke-width: 0.8; stroke-linejoin: miter; stroke-linecap: square"/>
   </g>
   <g id="patch_5">
    <path d="M 45 320.4 
L 324 320.4 
" style="fill: none; stroke: #000000; stroke-width: 0.8; stroke-linejoin: miter; stroke-linecap: square"/>
   </g>
   <g id="patch_6">
    <path d="M 45 43.2 
L 324 43.2 
" style="fill: none; stroke: #000000; stroke-width: 0.8; stroke-linejoin: miter; stroke-linecap: square"/>
   </g>
   <g id="text_14">
    <!-- Prediction Curves -->
    <g transform="translate(131.961563 37.2)scale(0.12 -0.12)">
     <defs>
      <path id="DejaVuSans-50" d="M 1259 4147 
L 1259 2394 
L 2053 2394 
Q 2494 2394 2734 2622 
Q 2975 2850 2975 3272 
Q 2975 3691 2734 3919 
Q 2494 4147 2053 4147 
L 1259 4147 
z
M 628 4666 
L 2053 4666 
Q 2838 4666 3239 4311 
Q 3641 3956 3641 3272 
Q 3641 2581 3239 2228 
Q 2838 1875 2053 1875 
L 1259 1875 
L 1259 0 
L 628 0 
L 628 4666 
z
" transform="scale(0.015625)"/>
      <path id="DejaVuSans-72" d="M 2631 2963 
Q 2534 3019 2420 3045 
Q 2306 3072 2169 3072 
Q 1681 3072 1420 2755 
Q 1159 2438 1159 1844 
L 1159 0 
L 581 0 
L 581 3500 
L 1159 3500 
L 1159 2956 
Q 1341 3275 1631 3429 
Q 1922 3584 2338 3584 
Q 2397 3584 2469 3576 
Q 2541 3569 2628 3553 
L 2631 2963 
z
" transform="scale(0.015625)"/>
      <path id="DejaVuSans-65" d="M 3597 1894 
L 3597 1613 
L 953 1613 
Q 991 1019 1311 708 
Q 1631 397 2203 397 
Q 2534 397 2845 478 
Q 3156 559 3463 722 
L 3463 178 
Q 3153 47 2828 -22 
Q 2503 -91 2169 -91 
Q 1331 -91 842 396 
Q 353 884 353 1716 
Q 353 2575 817 3079 
Q 1281 3584 2069 3584 
Q 2775 3584 3186 3129 
Q 3597 2675 3597 1894 
z
M 3022 2063 
Q 3016 2534 2758 2815 
Q 2500 3097 2075 3097 
Q 1594 3097 1305 2825 
Q 1016 2553 972 2059 
L 3022 2063 
z
" transform="scale(0.015625)"/>
      <path id="DejaVuSans-64" d="M 2906 2969 
L 2906 4863 
L 3481 4863 
L 3481 0 
L 2906 0 
L 2906 525 
Q 2725 213 2448 61 
Q 2172 -91 1784 -91 
Q 1150 -91 751 415 
Q 353 922 353 1747 
Q 353 2572 751 3078 
Q 1150 3584 1784 3584 
Q 2172 3584 2448 3432 
Q 2725 3281 2906 2969 
z
M 947 1747 
Q 947 1113 1208 752 
Q 1469 391 1925 391 
Q 2381 391 2643 752 
Q 2906 1113 2906 1747 
Q 2906 2381 2643 2742 
Q 2381 3103 1925 3103 
Q 1469 3103 1208 2742 
Q 947 2381 947 1747 
z
" transform="scale(0.015625)"/>
      <path id="DejaVuSans-69" d="M 603 3500 
L 1178 3500 
L 1178 0 
L 603 0 
L 603 3500 
z
M 603 4863 
L 1178 4863 
L 1178 4134 
L 603 4134 
L 603 4863 
z
" transform="scale(0.015625)"/>
      <path id="DejaVuSans-63" d="M 3122 3366 
L 3122 2828 
Q 2878 2963 2633 3030 
Q 2388 3097 2138 3097 
Q 1578 3097 1268 2742 
Q 959 2388 959 1747 
Q 959 1106 1268 751 
Q 1578 397 2138 397 
Q 2388 397 2633 464 
Q 2878 531 3122 666 
L 3122 134 
Q 2881 22 2623 -34 
Q 2366 -91 2075 -91 
Q 1284 -91 818 406 
Q 353 903 353 1747 
Q 353 2603 823 3093 
Q 1294 3584 2113 3584 
Q 2378 3584 2631 3529 
Q 2884 3475 3122 3366 
z
" transform="scale(0.015625)"/>
      <path id="DejaVuSans-74" d="M 1172 4494 
L 1172 3500 
L 2356 3500 
L 2356 3053 
L 1172 3053 
L 1172 1153 
Q 1172 725 1289 603 
Q 1406 481 1766 481 
L 2356 481 
L 2356 0 
L 1766 0 
Q 1100 0 847 248 
Q 594 497 594 1153 
L 594 3053 
L 172 3053 
L 172 3500 
L 594 3500 
L 594 4494 
L 1172 4494 
z
" transform="scale(0.015625)"/>
      <path id="DejaVuSans-6f" d="M 1959 3097 
Q 1497 3097 1228 2736 
Q 959 2375 959 1747 
Q 959 1119 1226 758 
Q 1494 397 1959 397 
Q 2419 397 2687 759 
Q 2956 1122 2956 1747 
Q 2956 2369 2687 2733 
Q 2419 3097 1959 3097 
z
M 1959 3584 
Q 2709 3584 3137 3096 
Q 3566 2609 3566 1747 
Q 3566 888 3137 398 
Q 2709 -91 1959 -91 
Q 1206 -91 779 398 
Q 353 888 353 1747 
Q 353 2609 779 3096 
Q 1206 3584 1959 3584 
z
" transform="scale(0.015625)"/>
      <path id="DejaVuSans-6e" d="M 3513 2113 
L 3513 0 
L 2938 0 
L 2938 2094 
Q 2938 2591 2744 2837 
Q 2550 3084 2163 3084 
Q 1697 3084 1428 2787 
Q 1159 2491 1159 1978 
L 1159 0 
L 581 0 
L 581 3500 
L 1159 3500 
L 1159 2956 
Q 1366 3272 1645 3428 
Q 1925 3584 2291 3584 
Q 2894 3584 3203 3211 
Q 3513 2838 3513 2113 
z
" transform="scale(0.015625)"/>
      <path id="DejaVuSans-20" transform="scale(0.015625)"/>
      <path id="DejaVuSans-43" d="M 4122 4306 
L 4122 3641 
Q 3803 3938 3442 4084 
Q 3081 4231 2675 4231 
Q 1875 4231 1450 3742 
Q 1025 3253 1025 2328 
Q 1025 1406 1450 917 
Q 1875 428 2675 428 
Q 3081 428 3442 575 
Q 3803 722 4122 1019 
L 4122 359 
Q 3791 134 3420 21 
Q 3050 -91 2638 -91 
Q 1578 -91 968 557 
Q 359 1206 359 2328 
Q 359 3453 968 4101 
Q 1578 4750 2638 4750 
Q 3056 4750 3426 4639 
Q 3797 4528 4122 4306 
z
" transform="scale(0.015625)"/>
      <path id="DejaVuSans-75" d="M 544 1381 
L 544 3500 
L 1119 3500 
L 1119 1403 
Q 1119 906 1312 657 
Q 1506 409 1894 409 
Q 2359 409 2629 706 
Q 2900 1003 2900 1516 
L 2900 3500 
L 3475 3500 
L 3475 0 
L 2900 0 
L 2900 538 
Q 2691 219 2414 64 
Q 2138 -91 1772 -91 
Q 1169 -91 856 284 
Q 544 659 544 1381 
z
M 1991 3584 
L 1991 3584 
z
" transform="scale(0.015625)"/>
      <path id="DejaVuSans-76" d="M 191 3500 
L 800 3500 
L 1894 563 
L 2988 3500 
L 3597 3500 
L 2284 0 
L 1503 0 
L 191 3500 
z
" transform="scale(0.015625)"/>
      <path id="DejaVuSans-73" d="M 2834 3397 
L 2834 2853 
Q 2591 2978 2328 3040 
Q 2066 3103 1784 3103 
Q 1356 3103 1142 2972 
Q 928 2841 928 2578 
Q 928 2378 1081 2264 
Q 1234 2150 1697 2047 
L 1894 2003 
Q 2506 1872 2764 1633 
Q 3022 1394 3022 966 
Q 3022 478 2636 193 
Q 2250 -91 1575 -91 
Q 1294 -91 989 -36 
Q 684 19 347 128 
L 347 722 
Q 666 556 975 473 
Q 1284 391 1588 391 
Q 1994 391 2212 530 
Q 2431 669 2431 922 
Q 2431 1156 2273 1281 
Q 2116 1406 1581 1522 
L 1381 1569 
Q 847 1681 609 1914 
Q 372 2147 372 2553 
Q 372 3047 722 3315 
Q 1072 3584 1716 3584 
Q 2034 3584 2315 3537 
Q 2597 3491 2834 3397 
z
" transform="scale(0.015625)"/>
     </defs>
     <use xlink:href="#DejaVuSans-50"/>
     <use xlink:href="#DejaVuSans-72" x="58.552734"/>
     <use xlink:href="#DejaVuSans-65" x="97.416016"/>
     <use xlink:href="#DejaVuSans-64" x="158.939453"/>
     <use xlink:href="#DejaVuSans-69" x="222.416016"/>
     <use xlink:href="#DejaVuSans-63" x="250.199219"/>
     <use xlink:href="#DejaVuSans-74" x="305.179688"/>
     <use xlink:href="#DejaVuSans-69" x="344.388672"/>
     <use xlink:href="#DejaVuSans-6f" x="372.171875"/>
     <use xlink:href="#DejaVuSans-6e" x="433.353516"/>
     <use xlink:href="#DejaVuSans-20" x="496.732422"/>
     <use xlink:href="#DejaVuSans-43" x="528.519531"/>
     <use xlink:href="#DejaVuSans-75" x="598.34375"/>
     <use xlink:href="#DejaVuSans-72" x="661.722656"/>
     <use xlink:href="#DejaVuSans-76" x="702.835938"/>
     <use xlink:href="#DejaVuSans-65" x="762.015625"/>
     <use xlink:href="#DejaVuSans-73" x="823.539062"/>
    </g>
   </g>
   <g id="legend_1">
    <g id="patch_7">
     <path d="M 52 234.673437 
L 195.94375 234.673437 
Q 197.94375 234.673437 197.94375 232.673437 
L 197.94375 130.926562 
Q 197.94375 128.926562 195.94375 128.926562 
L 52 128.926562 
Q 50 128.926562 50 130.926562 
L 50 232.673437 
Q 50 234.673437 52 234.673437 
z
" style="fill: #ffffff; opacity: 0.8; stroke: #cccccc; stroke-linejoin: miter"/>
    </g>
    <g id="line2d_21">
     <path d="M 54 137.025 
L 64 137.025 
L 74 137.025 
" style="fill: none; stroke: #1f77b4; stroke-width: 1.5; stroke-linecap: square"/>
    </g>
    <g id="text_15">
     <!-- Function with noise -->
     <g transform="translate(82 140.525)scale(0.1 -0.1)">
      <defs>
       <path id="DejaVuSans-46" d="M 628 4666 
L 3309 4666 
L 3309 4134 
L 1259 4134 
L 1259 2759 
L 3109 2759 
L 3109 2228 
L 1259 2228 
L 1259 0 
L 628 0 
L 628 4666 
z
" transform="scale(0.015625)"/>
       <path id="DejaVuSans-77" d="M 269 3500 
L 844 3500 
L 1563 769 
L 2278 3500 
L 2956 3500 
L 3675 769 
L 4391 3500 
L 4966 3500 
L 4050 0 
L 3372 0 
L 2619 2869 
L 1863 0 
L 1184 0 
L 269 3500 
z
" transform="scale(0.015625)"/>
       <path id="DejaVuSans-68" d="M 3513 2113 
L 3513 0 
L 2938 0 
L 2938 2094 
Q 2938 2591 2744 2837 
Q 2550 3084 2163 3084 
Q 1697 3084 1428 2787 
Q 1159 2491 1159 1978 
L 1159 0 
L 581 0 
L 581 4863 
L 1159 4863 
L 1159 2956 
Q 1366 3272 1645 3428 
Q 1925 3584 2291 3584 
Q 2894 3584 3203 3211 
Q 3513 2838 3513 2113 
z
" transform="scale(0.015625)"/>
      </defs>
      <use xlink:href="#DejaVuSans-46"/>
      <use xlink:href="#DejaVuSans-75" x="52.019531"/>
      <use xlink:href="#DejaVuSans-6e" x="115.398438"/>
      <use xlink:href="#DejaVuSans-63" x="178.777344"/>
      <use xlink:href="#DejaVuSans-74" x="233.757812"/>
      <use xlink:href="#DejaVuSans-69" x="272.966797"/>
      <use xlink:href="#DejaVuSans-6f" x="300.75"/>
      <use xlink:href="#DejaVuSans-6e" x="361.931641"/>
      <use xlink:href="#DejaVuSans-20" x="425.310547"/>
      <use xlink:href="#DejaVuSans-77" x="457.097656"/>
      <use xlink:href="#DejaVuSans-69" x="538.884766"/>
      <use xlink:href="#DejaVuSans-74" x="566.667969"/>
      <use xlink:href="#DejaVuSans-68" x="605.876953"/>
      <use xlink:href="#DejaVuSans-20" x="669.255859"/>
      <use xlink:href="#DejaVuSans-6e" x="701.042969"/>
      <use xlink:href="#DejaVuSans-6f" x="764.421875"/>
      <use xlink:href="#DejaVuSans-69" x="825.603516"/>
      <use xlink:href="#DejaVuSans-73" x="853.386719"/>
      <use xlink:href="#DejaVuSans-65" x="905.486328"/>
     </g>
    </g>
    <g id="line2d_22">
     <path d="M 54 151.703125 
L 64 151.703125 
L 74 151.703125 
" style="fill: none; stroke: #ff7f0e; stroke-width: 1.5; stroke-linecap: square"/>
    </g>
    <g id="text_16">
     <!-- Prediction 1 -->
     <g transform="translate(82 155.203125)scale(0.1 -0.1)">
      <use xlink:href="#DejaVuSans-50"/>
      <use xlink:href="#DejaVuSans-72" x="58.552734"/>
      <use xlink:href="#DejaVuSans-65" x="97.416016"/>
      <use xlink:href="#DejaVuSans-64" x="158.939453"/>
      <use xlink:href="#DejaVuSans-69" x="222.416016"/>
      <use xlink:href="#DejaVuSans-63" x="250.199219"/>
      <use xlink:href="#DejaVuSans-74" x="305.179688"/>
      <use xlink:href="#DejaVuSans-69" x="344.388672"/>
      <use xlink:href="#DejaVuSans-6f" x="372.171875"/>
      <use xlink:href="#DejaVuSans-6e" x="433.353516"/>
      <use xlink:href="#DejaVuSans-20" x="496.732422"/>
      <use xlink:href="#DejaVuSans-31" x="528.519531"/>
     </g>
    </g>
    <g id="line2d_23">
     <path d="M 54 166.38125 
L 64 166.38125 
L 74 166.38125 
" style="fill: none; stroke: #2ca02c; stroke-width: 1.5; stroke-linecap: square"/>
    </g>
    <g id="text_17">
     <!-- Prediction 2 -->
     <g transform="translate(82 169.88125)scale(0.1 -0.1)">
      <use xlink:href="#DejaVuSans-50"/>
      <use xlink:href="#DejaVuSans-72" x="58.552734"/>
      <use xlink:href="#DejaVuSans-65" x="97.416016"/>
      <use xlink:href="#DejaVuSans-64" x="158.939453"/>
      <use xlink:href="#DejaVuSans-69" x="222.416016"/>
      <use xlink:href="#DejaVuSans-63" x="250.199219"/>
      <use xlink:href="#DejaVuSans-74" x="305.179688"/>
      <use xlink:href="#DejaVuSans-69" x="344.388672"/>
      <use xlink:href="#DejaVuSans-6f" x="372.171875"/>
      <use xlink:href="#DejaVuSans-6e" x="433.353516"/>
      <use xlink:href="#DejaVuSans-20" x="496.732422"/>
      <use xlink:href="#DejaVuSans-32" x="528.519531"/>
     </g>
    </g>
    <g id="line2d_24">
     <path d="M 54 181.059375 
L 64 181.059375 
L 74 181.059375 
" style="fill: none; stroke: #d62728; stroke-width: 1.5; stroke-linecap: square"/>
    </g>
    <g id="text_18">
     <!-- Prediction 3 -->
     <g transform="translate(82 184.559375)scale(0.1 -0.1)">
      <use xlink:href="#DejaVuSans-50"/>
      <use xlink:href="#DejaVuSans-72" x="58.552734"/>
      <use xlink:href="#DejaVuSans-65" x="97.416016"/>
      <use xlink:href="#DejaVuSans-64" x="158.939453"/>
      <use xlink:href="#DejaVuSans-69" x="222.416016"/>
      <use xlink:href="#DejaVuSans-63" x="250.199219"/>
      <use xlink:href="#DejaVuSans-74" x="305.179688"/>
      <use xlink:href="#DejaVuSans-69" x="344.388672"/>
      <use xlink:href="#DejaVuSans-6f" x="372.171875"/>
      <use xlink:href="#DejaVuSans-6e" x="433.353516"/>
      <use xlink:href="#DejaVuSans-20" x="496.732422"/>
      <use xlink:href="#DejaVuSans-33" x="528.519531"/>
     </g>
    </g>
    <g id="line2d_25">
     <path d="M 54 195.7375 
L 64 195.7375 
L 74 195.7375 
" style="fill: none; stroke: #9467bd; stroke-width: 1.5; stroke-linecap: square"/>
    </g>
    <g id="text_19">
     <!-- Prediction 4 -->
     <g transform="translate(82 199.2375)scale(0.1 -0.1)">
      <use xlink:href="#DejaVuSans-50"/>
      <use xlink:href="#DejaVuSans-72" x="58.552734"/>
      <use xlink:href="#DejaVuSans-65" x="97.416016"/>
      <use xlink:href="#DejaVuSans-64" x="158.939453"/>
      <use xlink:href="#DejaVuSans-69" x="222.416016"/>
      <use xlink:href="#DejaVuSans-63" x="250.199219"/>
      <use xlink:href="#DejaVuSans-74" x="305.179688"/>
      <use xlink:href="#DejaVuSans-69" x="344.388672"/>
      <use xlink:href="#DejaVuSans-6f" x="372.171875"/>
      <use xlink:href="#DejaVuSans-6e" x="433.353516"/>
      <use xlink:href="#DejaVuSans-20" x="496.732422"/>
      <use xlink:href="#DejaVuSans-34" x="528.519531"/>
     </g>
    </g>
    <g id="line2d_26">
     <path d="M 54 210.415625 
L 64 210.415625 
L 74 210.415625 
" style="fill: none; stroke: #8c564b; stroke-width: 1.5; stroke-linecap: square"/>
    </g>
    <g id="text_20">
     <!-- Prediction 5 -->
     <g transform="translate(82 213.915625)scale(0.1 -0.1)">
      <use xlink:href="#DejaVuSans-50"/>
      <use xlink:href="#DejaVuSans-72" x="58.552734"/>
      <use xlink:href="#DejaVuSans-65" x="97.416016"/>
      <use xlink:href="#DejaVuSans-64" x="158.939453"/>
      <use xlink:href="#DejaVuSans-69" x="222.416016"/>
      <use xlink:href="#DejaVuSans-63" x="250.199219"/>
      <use xlink:href="#DejaVuSans-74" x="305.179688"/>
      <use xlink:href="#DejaVuSans-69" x="344.388672"/>
      <use xlink:href="#DejaVuSans-6f" x="372.171875"/>
      <use xlink:href="#DejaVuSans-6e" x="433.353516"/>
      <use xlink:href="#DejaVuSans-20" x="496.732422"/>
      <use xlink:href="#DejaVuSans-35" x="528.519531"/>
     </g>
    </g>
    <g id="line2d_27">
     <path d="M 54 225.09375 
L 64 225.09375 
L 74 225.09375 
" style="fill: none; stroke: #e377c2; stroke-width: 1.5; stroke-linecap: square"/>
    </g>
    <g id="text_21">
     <!-- Average of Predictions -->
     <g transform="translate(82 228.59375)scale(0.1 -0.1)">
      <defs>
       <path id="DejaVuSans-41" d="M 2188 4044 
L 1331 1722 
L 3047 1722 
L 2188 4044 
z
M 1831 4666 
L 2547 4666 
L 4325 0 
L 3669 0 
L 3244 1197 
L 1141 1197 
L 716 0 
L 50 0 
L 1831 4666 
z
" transform="scale(0.015625)"/>
       <path id="DejaVuSans-61" d="M 2194 1759 
Q 1497 1759 1228 1600 
Q 959 1441 959 1056 
Q 959 750 1161 570 
Q 1363 391 1709 391 
Q 2188 391 2477 730 
Q 2766 1069 2766 1631 
L 2766 1759 
L 2194 1759 
z
M 3341 1997 
L 3341 0 
L 2766 0 
L 2766 531 
Q 2569 213 2275 61 
Q 1981 -91 1556 -91 
Q 1019 -91 701 211 
Q 384 513 384 1019 
Q 384 1609 779 1909 
Q 1175 2209 1959 2209 
L 2766 2209 
L 2766 2266 
Q 2766 2663 2505 2880 
Q 2244 3097 1772 3097 
Q 1472 3097 1187 3025 
Q 903 2953 641 2809 
L 641 3341 
Q 956 3463 1253 3523 
Q 1550 3584 1831 3584 
Q 2591 3584 2966 3190 
Q 3341 2797 3341 1997 
z
" transform="scale(0.015625)"/>
       <path id="DejaVuSans-67" d="M 2906 1791 
Q 2906 2416 2648 2759 
Q 2391 3103 1925 3103 
Q 1463 3103 1205 2759 
Q 947 2416 947 1791 
Q 947 1169 1205 825 
Q 1463 481 1925 481 
Q 2391 481 2648 825 
Q 2906 1169 2906 1791 
z
M 3481 434 
Q 3481 -459 3084 -895 
Q 2688 -1331 1869 -1331 
Q 1566 -1331 1297 -1286 
Q 1028 -1241 775 -1147 
L 775 -588 
Q 1028 -725 1275 -790 
Q 1522 -856 1778 -856 
Q 2344 -856 2625 -561 
Q 2906 -266 2906 331 
L 2906 616 
Q 2728 306 2450 153 
Q 2172 0 1784 0 
Q 1141 0 747 490 
Q 353 981 353 1791 
Q 353 2603 747 3093 
Q 1141 3584 1784 3584 
Q 2172 3584 2450 3431 
Q 2728 3278 2906 2969 
L 2906 3500 
L 3481 3500 
L 3481 434 
z
" transform="scale(0.015625)"/>
       <path id="DejaVuSans-66" d="M 2375 4863 
L 2375 4384 
L 1825 4384 
Q 1516 4384 1395 4259 
Q 1275 4134 1275 3809 
L 1275 3500 
L 2222 3500 
L 2222 3053 
L 1275 3053 
L 1275 0 
L 697 0 
L 697 3053 
L 147 3053 
L 147 3500 
L 697 3500 
L 697 3744 
Q 697 4328 969 4595 
Q 1241 4863 1831 4863 
L 2375 4863 
z
" transform="scale(0.015625)"/>
      </defs>
      <use xlink:href="#DejaVuSans-41"/>
      <use xlink:href="#DejaVuSans-76" x="62.533203"/>
      <use xlink:href="#DejaVuSans-65" x="121.712891"/>
      <use xlink:href="#DejaVuSans-72" x="183.236328"/>
      <use xlink:href="#DejaVuSans-61" x="224.349609"/>
      <use xlink:href="#DejaVuSans-67" x="285.628906"/>
      <use xlink:href="#DejaVuSans-65" x="349.105469"/>
      <use xlink:href="#DejaVuSans-20" x="410.628906"/>
      <use xlink:href="#DejaVuSans-6f" x="442.416016"/>
      <use xlink:href="#DejaVuSans-66" x="503.597656"/>
      <use xlink:href="#DejaVuSans-20" x="538.802734"/>
      <use xlink:href="#DejaVuSans-50" x="570.589844"/>
      <use xlink:href="#DejaVuSans-72" x="629.142578"/>
      <use xlink:href="#DejaVuSans-65" x="668.005859"/>
      <use xlink:href="#DejaVuSans-64" x="729.529297"/>
      <use xlink:href="#DejaVuSans-69" x="793.005859"/>
      <use xlink:href="#DejaVuSans-63" x="820.789062"/>
      <use xlink:href="#DejaVuSans-74" x="875.769531"/>
      <use xlink:href="#DejaVuSans-69" x="914.978516"/>
      <use xlink:href="#DejaVuSans-6f" x="942.761719"/>
      <use xlink:href="#DejaVuSans-6e" x="1003.943359"/>
      <use xlink:href="#DejaVuSans-73" x="1067.322266"/>
     </g>
    </g>
   </g>
  </g>
 </g>
 <defs>
  <clipPath id="p73452f7eea">
   <rect x="45" y="43.2" width="279" height="277.2"/>
  </clipPath>
 </defs>
</svg>
