<?xml version="1.0" encoding="utf-8" standalone="no"?>
<!DOCTYPE svg PUBLIC "-//W3C//DTD SVG 1.1//EN"
  "http://www.w3.org/Graphics/SVG/1.1/DTD/svg11.dtd">
<svg xmlns:xlink="http://www.w3.org/1999/xlink" width="360pt" height="360pt" viewBox="0 0 360 360" xmlns="http://www.w3.org/2000/svg" version="1.1">
 <metadata>
  <rdf:RDF xmlns:dc="http://purl.org/dc/elements/1.1/" xmlns:cc="http://creativecommons.org/ns#" xmlns:rdf="http://www.w3.org/1999/02/22-rdf-syntax-ns#">
   <cc:Work>
    <dc:type rdf:resource="http://purl.org/dc/dcmitype/StillImage"/>
    <dc:date>2022-11-15T22:54:09.118139</dc:date>
    <dc:format>image/svg+xml</dc:format>
    <dc:creator>
     <cc:Agent>
      <dc:title>Matplotlib v3.5.3, https://matplotlib.org/</dc:title>
     </cc:Agent>
    </dc:creator>
   </cc:Work>
  </rdf:RDF>
 </metadata>
 <defs>
  <style type="text/css">*{stroke-linejoin: round; stroke-linecap: butt}</style>
 </defs>
 <g id="figure_1">
  <g id="patch_1">
   <path d="M 0 360 
L 360 360 
L 360 0 
L 0 0 
z
" style="fill: #ffffff"/>
  </g>
  <g id="patch_2">
   <path d="M 45.9 320.4 
L 323.1 320.4 
L 323.1 43.2 
L 45.9 43.2 
z
" style="fill: #ffffff"/>
  </g>
  <g id="pane3d_1">
   <g id="patch_3">
    <path d="M 66.830512 252.051364 
L 158.371005 175.320307 
L 157.098504 64.660407 
L 61.177327 134.659314 
" style="fill: #f2f2f2; opacity: 0.5; stroke: #f2f2f2; stroke-linejoin: miter"/>
   </g>
  </g>
  <g id="pane3d_2">
   <g id="patch_4">
    <path d="M 158.371005 175.320307 
L 305.260834 218.015381 
L 310.502814 103.543928 
L 157.098504 64.660407 
" style="fill: #e6e6e6; opacity: 0.5; stroke: #e6e6e6; stroke-linejoin: miter"/>
   </g>
  </g>
  <g id="pane3d_3">
   <g id="patch_5">
    <path d="M 66.830512 252.051364 
L 222.540905 302.906378 
L 305.260834 218.015381 
L 158.371005 175.320307 
" style="fill: #ececec; opacity: 0.5; stroke: #ececec; stroke-linejoin: miter"/>
   </g>
  </g>
  <g id="axis3d_1">
   <g id="line2d_1">
    <path d="M 66.830512 252.051364 
L 222.540905 302.906378 
" style="fill: none; stroke: #000000; stroke-width: 0.8; stroke-linecap: square"/>
   </g>
   <g id="Line3DCollection_1">
    <path d="M 89.295647 259.388477 
L 179.643744 181.503453 
L 179.2746 70.281401 
" style="fill: none; stroke: #b0b0b0; stroke-width: 0.8"/>
    <path d="M 115.721231 268.019072 
L 204.632006 188.766554 
L 205.341311 76.888553 
" style="fill: none; stroke: #b0b0b0; stroke-width: 0.8"/>
    <path d="M 142.63321 276.808525 
L 230.041717 196.152154 
L 231.86686 83.612006 
" style="fill: none; stroke: #b0b0b0; stroke-width: 0.8"/>
    <path d="M 170.045136 285.76126 
L 255.883631 203.663378 
L 258.863468 90.454859 
" style="fill: none; stroke: #b0b0b0; stroke-width: 0.8"/>
    <path d="M 197.971073 294.881871 
L 282.16887 211.303459 
L 286.343796 97.420321 
" style="fill: none; stroke: #b0b0b0; stroke-width: 0.8"/>
   </g>
   <g id="xtick_1">
    <g id="line2d_2">
     <path d="M 90.082682 258.710009 
L 87.718184 260.748336 
" style="fill: none; stroke: #000000; stroke-width: 0.8; stroke-linecap: square"/>
    </g>
    <g id="text_1">
     <!-- −2 -->
     <g transform="translate(74.409205 282.781779)scale(0.1 -0.1)">
      <defs>
       <path id="DejaVuSans-2212" d="M 678 2272 
L 4684 2272 
L 4684 1741 
L 678 1741 
L 678 2272 
z
" transform="scale(0.015625)"/>
       <path id="DejaVuSans-32" d="M 1228 531 
L 3431 531 
L 3431 0 
L 469 0 
L 469 531 
Q 828 903 1448 1529 
Q 2069 2156 2228 2338 
Q 2531 2678 2651 2914 
Q 2772 3150 2772 3378 
Q 2772 3750 2511 3984 
Q 2250 4219 1831 4219 
Q 1534 4219 1204 4116 
Q 875 4013 500 3803 
L 500 4441 
Q 881 4594 1212 4672 
Q 1544 4750 1819 4750 
Q 2544 4750 2975 4387 
Q 3406 4025 3406 3419 
Q 3406 3131 3298 2873 
Q 3191 2616 2906 2266 
Q 2828 2175 2409 1742 
Q 1991 1309 1228 531 
z
" transform="scale(0.015625)"/>
      </defs>
      <use xlink:href="#DejaVuSans-2212"/>
      <use xlink:href="#DejaVuSans-32" x="83.789062"/>
     </g>
    </g>
   </g>
   <g id="xtick_2">
    <g id="line2d_3">
     <path d="M 116.496322 267.328179 
L 114.167679 269.403864 
" style="fill: none; stroke: #000000; stroke-width: 0.8; stroke-linecap: square"/>
    </g>
    <g id="text_2">
     <!-- −1 -->
     <g transform="translate(100.86159 291.588149)scale(0.1 -0.1)">
      <defs>
       <path id="DejaVuSans-31" d="M 794 531 
L 1825 531 
L 1825 4091 
L 703 3866 
L 703 4441 
L 1819 4666 
L 2450 4666 
L 2450 531 
L 3481 531 
L 3481 0 
L 794 0 
L 794 531 
z
" transform="scale(0.015625)"/>
      </defs>
      <use xlink:href="#DejaVuSans-2212"/>
      <use xlink:href="#DejaVuSans-31" x="83.789062"/>
     </g>
    </g>
   </g>
   <g id="xtick_3">
    <g id="line2d_4">
     <path d="M 143.395781 276.104861 
L 141.10472 278.218942 
" style="fill: none; stroke: #000000; stroke-width: 0.8; stroke-linecap: square"/>
    </g>
    <g id="text_3">
     <!-- 0 -->
     <g transform="translate(131.992483 300.557202)scale(0.1 -0.1)">
      <defs>
       <path id="DejaVuSans-30" d="M 2034 4250 
Q 1547 4250 1301 3770 
Q 1056 3291 1056 2328 
Q 1056 1369 1301 889 
Q 1547 409 2034 409 
Q 2525 409 2770 889 
Q 3016 1369 3016 2328 
Q 3016 3291 2770 3770 
Q 2525 4250 2034 4250 
z
M 2034 4750 
Q 2819 4750 3233 4129 
Q 3647 3509 3647 2328 
Q 3647 1150 3233 529 
Q 2819 -91 2034 -91 
Q 1250 -91 836 529 
Q 422 1150 422 2328 
Q 422 3509 836 4129 
Q 1250 4750 2034 4750 
z
" transform="scale(0.015625)"/>
      </defs>
      <use xlink:href="#DejaVuSans-30"/>
     </g>
    </g>
   </g>
   <g id="xtick_4">
    <g id="line2d_5">
     <path d="M 170.794587 285.044468 
L 168.542914 287.198019 
" style="fill: none; stroke: #000000; stroke-width: 0.8; stroke-linecap: square"/>
    </g>
    <g id="text_4">
     <!-- 1 -->
     <g transform="translate(159.435865 309.693489)scale(0.1 -0.1)">
      <use xlink:href="#DejaVuSans-31"/>
     </g>
    </g>
   </g>
   <g id="xtick_5">
    <g id="line2d_6">
     <path d="M 198.706776 294.15158 
L 196.496377 296.345718 
" style="fill: none; stroke: #000000; stroke-width: 0.8; stroke-linecap: square"/>
    </g>
    <g id="text_5">
     <!-- 2 -->
     <g transform="translate(187.39576 319.00173)scale(0.1 -0.1)">
      <use xlink:href="#DejaVuSans-32"/>
     </g>
    </g>
   </g>
  </g>
  <g id="axis3d_2">
   <g id="line2d_7">
    <path d="M 305.260834 218.015381 
L 222.540905 302.906378 
" style="fill: none; stroke: #000000; stroke-width: 0.8; stroke-linecap: square"/>
   </g>
   <g id="Line3DCollection_2">
    <path d="M 76.781389 123.272179 
L 81.674657 239.608707 
L 236.004406 289.089513 
" style="fill: none; stroke: #b0b0b0; stroke-width: 0.8"/>
    <path d="M 94.298573 110.488937 
L 98.360589 225.622227 
L 251.115362 273.581956 
" style="fill: none; stroke: #b0b0b0; stroke-width: 0.8"/>
    <path d="M 111.271645 98.102762 
L 114.550307 212.051685 
L 265.753695 258.559425 
" style="fill: none; stroke: #b0b0b0; stroke-width: 0.8"/>
    <path d="M 127.72557 86.095437 
L 130.265621 198.878797 
L 279.941236 243.999517 
" style="fill: none; stroke: #b0b0b0; stroke-width: 0.8"/>
    <path d="M 143.683806 74.449843 
L 145.527081 186.086339 
L 293.698494 229.881186 
" style="fill: none; stroke: #b0b0b0; stroke-width: 0.8"/>
   </g>
   <g id="xtick_6">
    <g id="line2d_8">
     <path d="M 234.704397 288.672708 
L 238.607761 289.924194 
" style="fill: none; stroke: #000000; stroke-width: 0.8; stroke-linecap: square"/>
    </g>
    <g id="text_6">
     <!-- −2 -->
     <g transform="translate(241.414026 309.997986)scale(0.1 -0.1)">
      <use xlink:href="#DejaVuSans-2212"/>
      <use xlink:href="#DejaVuSans-32" x="83.789062"/>
     </g>
    </g>
   </g>
   <g id="xtick_7">
    <g id="line2d_9">
     <path d="M 249.829647 273.178285 
L 253.690038 274.390315 
" style="fill: none; stroke: #000000; stroke-width: 0.8; stroke-linecap: square"/>
    </g>
    <g id="text_7">
     <!-- −1 -->
     <g transform="translate(256.330301 294.270153)scale(0.1 -0.1)">
      <use xlink:href="#DejaVuSans-2212"/>
      <use xlink:href="#DejaVuSans-31" x="83.789062"/>
     </g>
    </g>
   </g>
   <g id="xtick_8">
    <g id="line2d_10">
     <path d="M 264.482022 258.168279 
L 268.300199 259.342689 
" style="fill: none; stroke: #000000; stroke-width: 0.8; stroke-linecap: square"/>
    </g>
    <g id="text_8">
     <!-- 0 -->
     <g transform="translate(274.969628 279.034509)scale(0.1 -0.1)">
      <use xlink:href="#DejaVuSans-30"/>
     </g>
    </g>
   </g>
   <g id="xtick_9">
    <g id="line2d_11">
     <path d="M 278.683358 243.620322 
L 282.460069 244.758837 
" style="fill: none; stroke: #000000; stroke-width: 0.8; stroke-linecap: square"/>
    </g>
    <g id="text_9">
     <!-- 1 -->
     <g transform="translate(288.973894 264.268306)scale(0.1 -0.1)">
      <use xlink:href="#DejaVuSans-31"/>
     </g>
    </g>
   </g>
   <g id="xtick_10">
    <g id="line2d_12">
     <path d="M 292.454165 229.513401 
L 296.190151 230.617642 
" style="fill: none; stroke: #000000; stroke-width: 0.8; stroke-linecap: square"/>
    </g>
    <g id="text_10">
     <!-- 2 -->
     <g transform="translate(302.553208 249.950176)scale(0.1 -0.1)">
      <use xlink:href="#DejaVuSans-32"/>
     </g>
    </g>
   </g>
  </g>
  <g id="axis3d_3">
   <g id="line2d_13">
    <path d="M 305.260834 218.015381 
L 310.502814 103.543928 
" style="fill: none; stroke: #000000; stroke-width: 0.8; stroke-linecap: square"/>
   </g>
   <g id="Line3DCollection_3">
    <path d="M 306.287407 195.597655 
L 158.121379 153.61221 
L 65.72491 229.092833 
" style="fill: none; stroke: #b0b0b0; stroke-width: 0.8"/>
    <path d="M 307.228509 175.046396 
L 157.892718 133.727271 
L 64.710718 208.032477 
" style="fill: none; stroke: #b0b0b0; stroke-width: 0.8"/>
    <path d="M 308.184737 154.164807 
L 157.660559 113.538149 
L 63.679596 186.620549 
" style="fill: none; stroke: #b0b0b0; stroke-width: 0.8"/>
    <path d="M 309.15646 132.944861 
L 157.424822 93.037811 
L 62.631115 164.848171 
" style="fill: none; stroke: #b0b0b0; stroke-width: 0.8"/>
    <path d="M 310.144057 111.378265 
L 157.185422 72.219005 
L 61.564834 142.706163 
" style="fill: none; stroke: #b0b0b0; stroke-width: 0.8"/>
   </g>
   <g id="xtick_11">
    <g id="line2d_14">
     <path d="M 305.043375 195.245137 
L 308.778454 196.303537 
" style="fill: none; stroke: #000000; stroke-width: 0.8; stroke-linecap: square"/>
    </g>
    <g id="text_11">
     <!-- 0.2 -->
     <g transform="translate(316.743341 200.63309)scale(0.1 -0.1)">
      <defs>
       <path id="DejaVuSans-2e" d="M 684 794 
L 1344 794 
L 1344 0 
L 684 0 
L 684 794 
z
" transform="scale(0.015625)"/>
      </defs>
      <use xlink:href="#DejaVuSans-30"/>
      <use xlink:href="#DejaVuSans-2e" x="63.623047"/>
      <use xlink:href="#DejaVuSans-32" x="95.410156"/>
     </g>
    </g>
   </g>
   <g id="xtick_12">
    <g id="line2d_15">
     <path d="M 305.974184 174.699342 
L 309.740191 175.741343 
" style="fill: none; stroke: #000000; stroke-width: 0.8; stroke-linecap: square"/>
    </g>
    <g id="text_12">
     <!-- 0.4 -->
     <g transform="translate(317.828015 180.121608)scale(0.1 -0.1)">
      <defs>
       <path id="DejaVuSans-34" d="M 2419 4116 
L 825 1625 
L 2419 1625 
L 2419 4116 
z
M 2253 4666 
L 3047 4666 
L 3047 1625 
L 3713 1625 
L 3713 1100 
L 3047 1100 
L 3047 0 
L 2419 0 
L 2419 1100 
L 313 1100 
L 313 1709 
L 2253 4666 
z
" transform="scale(0.015625)"/>
      </defs>
      <use xlink:href="#DejaVuSans-30"/>
      <use xlink:href="#DejaVuSans-2e" x="63.623047"/>
      <use xlink:href="#DejaVuSans-34" x="95.410156"/>
     </g>
    </g>
   </g>
   <g id="xtick_13">
    <g id="line2d_16">
     <path d="M 306.919948 153.823439 
L 310.717399 154.848376 
" style="fill: none; stroke: #000000; stroke-width: 0.8; stroke-linecap: square"/>
    </g>
    <g id="text_13">
     <!-- 0.6 -->
     <g transform="translate(318.930072 159.281409)scale(0.1 -0.1)">
      <defs>
       <path id="DejaVuSans-36" d="M 2113 2584 
Q 1688 2584 1439 2293 
Q 1191 2003 1191 1497 
Q 1191 994 1439 701 
Q 1688 409 2113 409 
Q 2538 409 2786 701 
Q 3034 994 3034 1497 
Q 3034 2003 2786 2293 
Q 2538 2584 2113 2584 
z
M 3366 4563 
L 3366 3988 
Q 3128 4100 2886 4159 
Q 2644 4219 2406 4219 
Q 1781 4219 1451 3797 
Q 1122 3375 1075 2522 
Q 1259 2794 1537 2939 
Q 1816 3084 2150 3084 
Q 2853 3084 3261 2657 
Q 3669 2231 3669 1497 
Q 3669 778 3244 343 
Q 2819 -91 2113 -91 
Q 1303 -91 875 529 
Q 447 1150 447 2328 
Q 447 3434 972 4092 
Q 1497 4750 2381 4750 
Q 2619 4750 2861 4703 
Q 3103 4656 3366 4563 
z
" transform="scale(0.015625)"/>
      </defs>
      <use xlink:href="#DejaVuSans-30"/>
      <use xlink:href="#DejaVuSans-2e" x="63.623047"/>
      <use xlink:href="#DejaVuSans-36" x="95.410156"/>
     </g>
    </g>
   </g>
   <g id="xtick_14">
    <g id="line2d_17">
     <path d="M 307.881031 132.609409 
L 311.710454 133.616589 
" style="fill: none; stroke: #000000; stroke-width: 0.8; stroke-linecap: square"/>
    </g>
    <g id="text_14">
     <!-- 0.8 -->
     <g transform="translate(320.049934 138.104527)scale(0.1 -0.1)">
      <defs>
       <path id="DejaVuSans-38" d="M 2034 2216 
Q 1584 2216 1326 1975 
Q 1069 1734 1069 1313 
Q 1069 891 1326 650 
Q 1584 409 2034 409 
Q 2484 409 2743 651 
Q 3003 894 3003 1313 
Q 3003 1734 2745 1975 
Q 2488 2216 2034 2216 
z
M 1403 2484 
Q 997 2584 770 2862 
Q 544 3141 544 3541 
Q 544 4100 942 4425 
Q 1341 4750 2034 4750 
Q 2731 4750 3128 4425 
Q 3525 4100 3525 3541 
Q 3525 3141 3298 2862 
Q 3072 2584 2669 2484 
Q 3125 2378 3379 2068 
Q 3634 1759 3634 1313 
Q 3634 634 3220 271 
Q 2806 -91 2034 -91 
Q 1263 -91 848 271 
Q 434 634 434 1313 
Q 434 1759 690 2068 
Q 947 2378 1403 2484 
z
M 1172 3481 
Q 1172 3119 1398 2916 
Q 1625 2713 2034 2713 
Q 2441 2713 2670 2916 
Q 2900 3119 2900 3481 
Q 2900 3844 2670 4047 
Q 2441 4250 2034 4250 
Q 1625 4250 1398 4047 
Q 1172 3844 1172 3481 
z
" transform="scale(0.015625)"/>
      </defs>
      <use xlink:href="#DejaVuSans-30"/>
      <use xlink:href="#DejaVuSans-2e" x="63.623047"/>
      <use xlink:href="#DejaVuSans-38" x="95.410156"/>
     </g>
    </g>
   </g>
   <g id="xtick_15">
    <g id="line2d_18">
     <path d="M 308.857807 111.04897 
L 312.719745 112.037673 
" style="fill: none; stroke: #000000; stroke-width: 0.8; stroke-linecap: square"/>
    </g>
    <g id="text_15">
     <!-- 1.0 -->
     <g transform="translate(321.188034 116.582737)scale(0.1 -0.1)">
      <use xlink:href="#DejaVuSans-31"/>
      <use xlink:href="#DejaVuSans-2e" x="63.623047"/>
      <use xlink:href="#DejaVuSans-30" x="95.410156"/>
     </g>
    </g>
   </g>
  </g>
  <g id="axes_1">
   <g id="Poly3DCollection_1">
    <path d="M 177.669409 181.488332 
L 181.534378 180.017724 
L 188.145399 181.489173 
L 184.30197 183.370063 
z
" clip-path="url(#p2548a7da66)" style="fill: #fee8de; fill-opacity: 0.7"/>
    <path d="M 184.30197 183.370063 
L 188.145399 181.489173 
L 194.783254 184.849761 
L 190.966326 183.334233 
z
" clip-path="url(#p2548a7da66)" style="fill: #fee8dd; fill-opacity: 0.7"/>
    <path d="M 170.936317 159.97249 
L 174.758787 140.302712 
L 181.534378 180.017724 
L 177.669409 181.488332 
z
" clip-path="url(#p2548a7da66)" style="fill: #fcbba1; fill-opacity: 0.7"/>
    <path d="M 173.806499 189.669777 
L 177.669409 181.488332 
L 184.30197 183.370063 
L 180.424863 185.39258 
z
" clip-path="url(#p2548a7da66)" style="fill: #fee8de; fill-opacity: 0.7"/>
    <path d="M 190.966326 183.334233 
L 194.783254 184.849761 
L 201.486062 179.82499 
L 197.63731 192.464014 
z
" clip-path="url(#p2548a7da66)" style="fill: #fee8dd; fill-opacity: 0.7"/>
    <path d="M 167.041615 168.427277 
L 170.936317 159.97249 
L 177.669409 181.488332 
L 173.806499 189.669777 
z
" clip-path="url(#p2548a7da66)" style="fill: #fdd1be; fill-opacity: 0.7"/>
    <path d="M 180.424863 185.39258 
L 184.30197 183.370063 
L 190.966326 183.334233 
L 187.109386 191.094427 
z
" clip-path="url(#p2548a7da66)" style="fill: #fee6da; fill-opacity: 0.7"/>
    <path d="M 163.116694 175.309937 
L 167.041615 168.427277 
L 173.806499 189.669777 
L 169.911128 195.472987 
z
" clip-path="url(#p2548a7da66)" style="fill: #fee0d2; fill-opacity: 0.7"/>
    <path d="M 169.911128 195.472987 
L 173.806499 189.669777 
L 180.424863 185.39258 
L 176.51546 187.836289 
z
" clip-path="url(#p2548a7da66)" style="fill: #ffebe2; fill-opacity: 0.7"/>
    <path d="M 187.109386 191.094427 
L 190.966326 183.334233 
L 197.63731 192.464014 
L 193.802363 197.737988 
z
" clip-path="url(#p2548a7da66)" style="fill: #ffede5; fill-opacity: 0.7"/>
    <path d="M 197.63731 192.464014 
L 201.486062 179.82499 
L 208.270897 172.700427 
L 204.406307 184.708247 
z
" clip-path="url(#p2548a7da66)" style="fill: #fedccd; fill-opacity: 0.7"/>
    <path d="M 159.24635 188.848674 
L 163.116694 175.309937 
L 169.911128 195.472987 
L 165.959201 197.409915 
z
" clip-path="url(#p2548a7da66)" style="fill: #fee7dc; fill-opacity: 0.7"/>
    <path d="M 193.802363 197.737988 
L 197.63731 192.464014 
L 204.406307 184.708247 
L 200.55404 193.26239 
z
" clip-path="url(#p2548a7da66)" style="fill: #ffebe2; fill-opacity: 0.7"/>
    <path d="M 176.51546 187.836289 
L 180.424863 185.39258 
L 187.109386 191.094427 
L 183.224756 193.281436 
z
" clip-path="url(#p2548a7da66)" style="fill: #fee7db; fill-opacity: 0.7"/>
    <path d="M 165.959201 197.409915 
L 169.911128 195.472987 
L 176.51546 187.836289 
L 172.619131 197.946897 
z
" clip-path="url(#p2548a7da66)" style="fill: #ffeee7; fill-opacity: 0.7"/>
    <path d="M 183.224756 193.281436 
L 187.109386 191.094427 
L 193.802363 197.737988 
L 189.946912 197.469982 
z
" clip-path="url(#p2548a7da66)" style="fill: #ffeee6; fill-opacity: 0.7"/>
    <path d="M 160.085025 135.670863 
L 164.015504 125.59374 
L 170.936317 159.97249 
L 167.041615 168.427277 
z
" clip-path="url(#p2548a7da66)" style="fill: #fb6d4d; fill-opacity: 0.7"/>
    <path d="M 164.015504 125.59374 
L 167.891065 109.6854 
L 174.758787 140.302712 
L 170.936317 159.97249 
z
" clip-path="url(#p2548a7da66)" style="fill: #f03f2e; fill-opacity: 0.7"/>
    <path d="M 148.598554 189.926976 
L 152.461449 175.360766 
L 159.24635 188.848674 
L 155.276225 194.552357 
z
" clip-path="url(#p2548a7da66)" style="fill: #fee0d2; fill-opacity: 0.7"/>
    <path d="M 155.276225 194.552357 
L 159.24635 188.848674 
L 165.959201 197.409915 
L 161.961759 198.366574 
z
" clip-path="url(#p2548a7da66)" style="fill: #ffece3; fill-opacity: 0.7"/>
    <path d="M 152.461449 175.360766 
L 156.252076 154.591591 
L 163.116694 175.309937 
L 159.24635 188.848674 
z
" clip-path="url(#p2548a7da66)" style="fill: #fcbba1; fill-opacity: 0.7"/>
    <path d="M 156.252076 154.591591 
L 160.085025 135.670863 
L 167.041615 168.427277 
L 163.116694 175.309937 
z
" clip-path="url(#p2548a7da66)" style="fill: #fc8b6b; fill-opacity: 0.7"/>
    <path d="M 189.946912 197.469982 
L 193.802363 197.737988 
L 200.55404 193.26239 
L 196.692282 200.292199 
z
" clip-path="url(#p2548a7da66)" style="fill: #ffeee7; fill-opacity: 0.7"/>
    <path d="M 200.55404 193.26239 
L 204.406307 184.708247 
L 211.181233 185.423077 
L 207.271116 202.134722 
z
" clip-path="url(#p2548a7da66)" style="fill: #fee5d9; fill-opacity: 0.7"/>
    <path d="M 172.619131 197.946897 
L 176.51546 187.836289 
L 183.224756 193.281436 
L 179.324162 200.688002 
z
" clip-path="url(#p2548a7da66)" style="fill: #ffebe2; fill-opacity: 0.7"/>
    <path d="M 204.406307 184.708247 
L 208.270897 172.700427 
L 215.153063 163.643506 
L 211.181233 185.423077 
z
" clip-path="url(#p2548a7da66)" style="fill: #fcbfa7; fill-opacity: 0.7"/>
    <path d="M 161.961759 198.366574 
L 165.959201 197.409915 
L 172.619131 197.946897 
L 168.654588 200.447489 
z
" clip-path="url(#p2548a7da66)" style="fill: #ffefe8; fill-opacity: 0.7"/>
    <path d="M 179.324162 200.688002 
L 183.224756 193.281436 
L 189.946912 197.469982 
L 186.056366 204.488854 
z
" clip-path="url(#p2548a7da66)" style="fill: #ffefe8; fill-opacity: 0.7"/>
    <path d="M 138.082611 199.721753 
L 141.659402 169.794345 
L 148.598554 189.926976 
L 144.403973 184.697883 
z
" clip-path="url(#p2548a7da66)" style="fill: #fdd7c6; fill-opacity: 0.7"/>
    <path d="M 196.692282 200.292199 
L 200.55404 193.26239 
L 207.271116 202.134722 
L 203.478975 200.543775 
z
" clip-path="url(#p2548a7da66)" style="fill: #ffeee7; fill-opacity: 0.7"/>
    <path d="M 141.659402 169.794345 
L 145.415971 147.686101 
L 152.461449 175.360766 
L 148.598554 189.926976 
z
" clip-path="url(#p2548a7da66)" style="fill: #fca98c; fill-opacity: 0.7"/>
    <path d="M 207.271116 202.134722 
L 211.181233 185.423077 
L 217.997666 185.753607 
L 214.134214 195.886397 
z
" clip-path="url(#p2548a7da66)" style="fill: #fee3d7; fill-opacity: 0.7"/>
    <path d="M 144.403973 184.697883 
L 148.598554 189.926976 
L 155.276225 194.552357 
L 151.175835 192.884644 
z
" clip-path="url(#p2548a7da66)" style="fill: #fee0d2; fill-opacity: 0.7"/>
    <path d="M 168.654588 200.447489 
L 172.619131 197.946897 
L 179.324162 200.688002 
L 175.367582 200.618273 
z
" clip-path="url(#p2548a7da66)" style="fill: #ffeee7; fill-opacity: 0.7"/>
    <path d="M 186.056366 204.488854 
L 189.946912 197.469982 
L 196.692282 200.292199 
L 192.816528 204.339372 
z
" clip-path="url(#p2548a7da66)" style="fill: #fff0e9; fill-opacity: 0.7"/>
    <path d="M 151.175835 192.884644 
L 155.276225 194.552357 
L 161.961759 198.366574 
L 157.931633 199.871688 
z
" clip-path="url(#p2548a7da66)" style="fill: #fee8dd; fill-opacity: 0.7"/>
    <path d="M 211.181233 185.423077 
L 215.153063 163.643506 
L 221.979679 165.702924 
L 217.997666 185.753607 
z
" clip-path="url(#p2548a7da66)" style="fill: #fcb398; fill-opacity: 0.7"/>
    <path d="M 203.478975 200.543775 
L 207.271116 202.134722 
L 214.134214 195.886397 
L 210.2549 206.715091 
z
" clip-path="url(#p2548a7da66)" style="fill: #ffefe8; fill-opacity: 0.7"/>
    <path d="M 145.415971 147.686101 
L 149.173275 123.800785 
L 156.252076 154.591591 
L 152.461449 175.360766 
z
" clip-path="url(#p2548a7da66)" style="fill: #fa6547; fill-opacity: 0.7"/>
    <path d="M 157.931633 199.871688 
L 161.961759 198.366574 
L 168.654588 200.447489 
L 164.664891 203.935326 
z
" clip-path="url(#p2548a7da66)" style="fill: #ffece4; fill-opacity: 0.7"/>
    <path d="M 175.367582 200.618273 
L 179.324162 200.688002 
L 186.056366 204.488854 
L 182.128099 203.936454 
z
" clip-path="url(#p2548a7da66)" style="fill: #ffefe8; fill-opacity: 0.7"/>
    <path d="M 214.134214 195.886397 
L 217.997666 185.753607 
L 224.918433 181.499193 
L 220.857059 206.545887 
z
" clip-path="url(#p2548a7da66)" style="fill: #fedfd0; fill-opacity: 0.7"/>
    <path d="M 192.816528 204.339372 
L 196.692282 200.292199 
L 203.478975 200.543775 
L 199.608081 206.594605 
z
" clip-path="url(#p2548a7da66)" style="fill: #ffefe8; fill-opacity: 0.7"/>
    <path d="M 210.2549 206.715091 
L 214.134214 195.886397 
L 220.857059 206.545887 
L 217.08538 208.812459 
z
" clip-path="url(#p2548a7da66)" style="fill: #fff1ea; fill-opacity: 0.7"/>
    <path d="M 182.128099 203.936454 
L 186.056366 204.488854 
L 192.816528 204.339372 
L 188.912204 207.953757 
z
" clip-path="url(#p2548a7da66)" style="fill: #fff0e9; fill-opacity: 0.7"/>
    <path d="M 164.664891 203.935326 
L 168.654588 200.447489 
L 175.367582 200.618273 
L 171.407012 206.35623 
z
" clip-path="url(#p2548a7da66)" style="fill: #ffede5; fill-opacity: 0.7"/>
    <path d="M 217.997666 185.753607 
L 221.979679 165.702924 
L 228.899364 163.734179 
L 224.918433 181.499193 
z
" clip-path="url(#p2548a7da66)" style="fill: #fca78b; fill-opacity: 0.7"/>
    <path d="M 220.857059 206.545887 
L 224.918433 181.499193 
L 231.705765 189.001823 
L 227.790987 202.489145 
z
" clip-path="url(#p2548a7da66)" style="fill: #fee1d3; fill-opacity: 0.7"/>
    <path d="M 149.173275 123.800785 
L 153.002168 102.911576 
L 160.085025 135.670863 
L 156.252076 154.591591 
z
" clip-path="url(#p2548a7da66)" style="fill: #d11e1f; fill-opacity: 0.7"/>
    <path d="M 199.608081 206.594605 
L 203.478975 200.543775 
L 210.2549 206.715091 
L 206.449934 205.932437 
z
" clip-path="url(#p2548a7da66)" style="fill: #ffefe8; fill-opacity: 0.7"/>
    <path d="M 153.002168 102.911576 
L 156.961797 91.313077 
L 164.015504 125.59374 
L 160.085025 135.670863 
z
" clip-path="url(#p2548a7da66)" style="fill: #a50f15; fill-opacity: 0.7"/>
    <path d="M 217.08538 208.812459 
L 220.857059 206.545887 
L 227.790987 202.489145 
L 224.026208 205.194049 
z
" clip-path="url(#p2548a7da66)" style="fill: #fff0e8; fill-opacity: 0.7"/>
    <path d="M 156.961797 91.313077 
L 160.851815 73.463361 
L 167.891065 109.6854 
L 164.015504 125.59374 
z
" clip-path="url(#p2548a7da66)" style="fill: #67000d; fill-opacity: 0.7"/>
    <path d="M 133.35732 172.720188 
L 138.082611 199.721753 
L 144.403973 184.697883 
L 139.949429 168.682108 
z
" clip-path="url(#p2548a7da66)" style="fill: #fcb99f; fill-opacity: 0.7"/>
    <path d="M 171.407012 206.35623 
L 175.367582 200.618273 
L 182.128099 203.936454 
L 178.18968 211.851666 
z
" clip-path="url(#p2548a7da66)" style="fill: #ffeee7; fill-opacity: 0.7"/>
    <path d="M 153.761944 193.781114 
L 157.931633 199.871688 
L 164.664891 203.935326 
L 160.685483 211.320699 
z
" clip-path="url(#p2548a7da66)" style="fill: #fee8de; fill-opacity: 0.7"/>
    <path d="M 188.912204 207.953757 
L 192.816528 204.339372 
L 199.608081 206.594605 
L 195.737018 204.963547 
z
" clip-path="url(#p2548a7da66)" style="fill: #ffeee7; fill-opacity: 0.7"/>
    <path d="M 146.920092 184.510878 
L 151.175835 192.884644 
L 157.931633 199.871688 
L 153.761944 193.781114 
z
" clip-path="url(#p2548a7da66)" style="fill: #fdd4c2; fill-opacity: 0.7"/>
    <path d="M 160.685483 211.320699 
L 164.664891 203.935326 
L 171.407012 206.35623 
L 167.410705 210.713727 
z
" clip-path="url(#p2548a7da66)" style="fill: #fff0e9; fill-opacity: 0.7"/>
    <path d="M 224.918433 181.499193 
L 228.899364 163.734179 
L 235.917278 159.230547 
L 231.705765 189.001823 
z
" clip-path="url(#p2548a7da66)" style="fill: #fc9c7d; fill-opacity: 0.7"/>
    <path d="M 206.449934 205.932437 
L 210.2549 206.715091 
L 217.08538 208.812459 
L 213.351368 203.831669 
z
" clip-path="url(#p2548a7da66)" style="fill: #ffeee6; fill-opacity: 0.7"/>
    <path d="M 227.790987 202.489145 
L 231.705765 189.001823 
L 238.754451 183.192291 
L 234.721904 202.131343 
z
" clip-path="url(#p2548a7da66)" style="fill: #fdd7c6; fill-opacity: 0.7"/>
    <path d="M 178.18968 211.851666 
L 182.128099 203.936454 
L 188.912204 207.953757 
L 184.975912 210.39051 
z
" clip-path="url(#p2548a7da66)" style="fill: #fff0e9; fill-opacity: 0.7"/>
    <path d="M 139.949429 168.682108 
L 144.403973 184.697883 
L 151.175835 192.884644 
L 146.920092 184.510878 
z
" clip-path="url(#p2548a7da66)" style="fill: #fcb79c; fill-opacity: 0.7"/>
    <path d="M 224.026208 205.194049 
L 227.790987 202.489145 
L 234.721904 202.131343 
L 230.837374 213.090673 
z
" clip-path="url(#p2548a7da66)" style="fill: #ffebe2; fill-opacity: 0.7"/>
    <path d="M 195.737018 204.963547 
L 199.608081 206.594605 
L 206.449934 205.932437 
L 202.575689 209.85742 
z
" clip-path="url(#p2548a7da66)" style="fill: #ffece3; fill-opacity: 0.7"/>
    <path d="M 167.410705 210.713727 
L 171.407012 206.35623 
L 178.18968 211.851666 
L 174.174817 209.051524 
z
" clip-path="url(#p2548a7da66)" style="fill: #ffefe8; fill-opacity: 0.7"/>
    <path d="M 213.351368 203.831669 
L 217.08538 208.812459 
L 224.026208 205.194049 
L 220.201506 210.152936 
z
" clip-path="url(#p2548a7da66)" style="fill: #ffebe2; fill-opacity: 0.7"/>
    <path d="M 230.837374 213.090673 
L 234.721904 202.131343 
L 241.714388 200.947116 
L 237.761494 215.142821 
z
" clip-path="url(#p2548a7da66)" style="fill: #ffece3; fill-opacity: 0.7"/>
    <path d="M 231.705765 189.001823 
L 235.917278 159.230547 
L 242.929907 158.137477 
L 238.754451 183.192291 
z
" clip-path="url(#p2548a7da66)" style="fill: #fc9070; fill-opacity: 0.7"/>
    <path d="M 234.721904 202.131343 
L 238.754451 183.192291 
L 245.619797 188.959291 
L 241.714388 200.947116 
z
" clip-path="url(#p2548a7da66)" style="fill: #fdcebb; fill-opacity: 0.7"/>
    <path d="M 184.975912 210.39051 
L 188.912204 207.953757 
L 195.737018 204.963547 
L 191.808714 211.145426 
z
" clip-path="url(#p2548a7da66)" style="fill: #ffece4; fill-opacity: 0.7"/>
    <path d="M 149.686005 198.16022 
L 153.761944 193.781114 
L 160.685483 211.320699 
L 156.530982 206.127736 
z
" clip-path="url(#p2548a7da66)" style="fill: #fee2d5; fill-opacity: 0.7"/>
    <path d="M 156.530982 206.127736 
L 160.685483 211.320699 
L 167.410705 210.713727 
L 163.34211 210.647032 
z
" clip-path="url(#p2548a7da66)" style="fill: #ffece4; fill-opacity: 0.7"/>
    <path d="M 220.201506 210.152936 
L 224.026208 205.194049 
L 230.837374 213.090673 
L 227.164304 209.612578 
z
" clip-path="url(#p2548a7da66)" style="fill: #ffece3; fill-opacity: 0.7"/>
    <path d="M 202.575689 209.85742 
L 206.449934 205.932437 
L 213.351368 203.831669 
L 209.474664 209.406593 
z
" clip-path="url(#p2548a7da66)" style="fill: #fee8de; fill-opacity: 0.7"/>
    <path d="M 237.761494 215.142821 
L 241.714388 200.947116 
L 248.479355 211.536492 
L 244.701877 217.899294 
z
" clip-path="url(#p2548a7da66)" style="fill: #ffeee7; fill-opacity: 0.7"/>
    <path d="M 241.714388 200.947116 
L 245.619797 188.959291 
L 252.673059 187.643975 
L 248.479355 211.536492 
z
" clip-path="url(#p2548a7da66)" style="fill: #fdd3c1; fill-opacity: 0.7"/>
    <path d="M 174.174817 209.051524 
L 178.18968 211.851666 
L 184.975912 210.39051 
L 180.98885 207.111656 
z
" clip-path="url(#p2548a7da66)" style="fill: #ffebe2; fill-opacity: 0.7"/>
    <path d="M 248.479355 211.536492 
L 252.673059 187.643975 
L 259.334361 202.322253 
L 255.414148 215.092563 
z
" clip-path="url(#p2548a7da66)" style="fill: #fee3d6; fill-opacity: 0.7"/>
    <path d="M 238.754451 183.192291 
L 242.929907 158.137477 
L 249.748402 167.316026 
L 245.619797 188.959291 
z
" clip-path="url(#p2548a7da66)" style="fill: #fc9070; fill-opacity: 0.7"/>
    <path d="M 255.414148 215.092563 
L 259.334361 202.322253 
L 266.075557 213.147257 
L 262.496236 214.394076 
z
" clip-path="url(#p2548a7da66)" style="fill: #ffede5; fill-opacity: 0.7"/>
    <path d="M 191.808714 211.145426 
L 195.737018 204.963547 
L 202.575689 209.85742 
L 198.663797 215.814326 
z
" clip-path="url(#p2548a7da66)" style="fill: #ffece3; fill-opacity: 0.7"/>
    <path d="M 259.334361 202.322253 
L 263.590268 177.903 
L 270.196753 193.769371 
L 266.075557 213.147257 
z
" clip-path="url(#p2548a7da66)" style="fill: #fdd0bc; fill-opacity: 0.7"/>
    <path d="M 244.701877 217.899294 
L 248.479355 211.536492 
L 255.414148 215.092563 
L 251.741353 217.803939 
z
" clip-path="url(#p2548a7da66)" style="fill: #fff3ed; fill-opacity: 0.7"/>
    <path d="M 142.651066 179.405038 
L 146.920092 184.510878 
L 153.761944 193.781114 
L 149.686005 198.16022 
z
" clip-path="url(#p2548a7da66)" style="fill: #fcb99f; fill-opacity: 0.7"/>
    <path d="M 227.164304 209.612578 
L 230.837374 213.090673 
L 237.761494 215.142821 
L 234.072908 214.66872 
z
" clip-path="url(#p2548a7da66)" style="fill: #ffefe8; fill-opacity: 0.7"/>
    <path d="M 209.474664 209.406593 
L 213.351368 203.831669 
L 220.201506 210.152936 
L 216.321704 217.790779 
z
" clip-path="url(#p2548a7da66)" style="fill: #feeae1; fill-opacity: 0.7"/>
    <path d="M 245.619797 188.959291 
L 249.748402 167.316026 
L 256.713484 170.661066 
L 252.673059 187.643975 
z
" clip-path="url(#p2548a7da66)" style="fill: #fc997a; fill-opacity: 0.7"/>
    <path d="M 163.34211 210.647032 
L 167.410705 210.713727 
L 174.174817 209.051524 
L 170.149127 212.04378 
z
" clip-path="url(#p2548a7da66)" style="fill: #feeae1; fill-opacity: 0.7"/>
    <path d="M 180.98885 207.111656 
L 184.975912 210.39051 
L 191.808714 211.145426 
L 187.857736 219.603633 
z
" clip-path="url(#p2548a7da66)" style="fill: #ffece4; fill-opacity: 0.7"/>
    <path d="M 252.673059 187.643975 
L 256.713484 170.661066 
L 263.590268 177.903 
L 259.334361 202.322253 
z
" clip-path="url(#p2548a7da66)" style="fill: #fcaa8d; fill-opacity: 0.7"/>
    <path d="M 266.075557 213.147257 
L 270.196753 193.769371 
L 277.533665 187.211284 
L 273.380028 206.499412 
z
" clip-path="url(#p2548a7da66)" style="fill: #fdd4c2; fill-opacity: 0.7"/>
    <path d="M 262.496236 214.394076 
L 266.075557 213.147257 
L 273.380028 206.499412 
L 269.462683 218.833723 
z
" clip-path="url(#p2548a7da66)" style="fill: #ffede5; fill-opacity: 0.7"/>
    <path d="M 198.663797 215.814326 
L 202.575689 209.85742 
L 209.474664 209.406593 
L 205.575381 214.717142 
z
" clip-path="url(#p2548a7da66)" style="fill: #ffece3; fill-opacity: 0.7"/>
    <path d="M 128.960587 165.96887 
L 133.35732 172.720188 
L 139.949429 168.682108 
L 135.632813 164.262742 
z
" clip-path="url(#p2548a7da66)" style="fill: #fb7656; fill-opacity: 0.7"/>
    <path d="M 234.072908 214.66872 
L 237.761494 215.142821 
L 244.701877 217.899294 
L 241.097863 214.853856 
z
" clip-path="url(#p2548a7da66)" style="fill: #fff0e9; fill-opacity: 0.7"/>
    <path d="M 187.857736 219.603633 
L 191.808714 211.145426 
L 198.663797 215.814326 
L 194.72866 221.625929 
z
" clip-path="url(#p2548a7da66)" style="fill: #fff2ec; fill-opacity: 0.7"/>
    <path d="M 216.321704 217.790779 
L 220.201506 210.152936 
L 227.164304 209.612578 
L 223.31664 215.199608 
z
" clip-path="url(#p2548a7da66)" style="fill: #ffece4; fill-opacity: 0.7"/>
    <path d="M 145.592189 203.272913 
L 149.686005 198.16022 
L 156.530982 206.127736 
L 152.435803 209.521362 
z
" clip-path="url(#p2548a7da66)" style="fill: #fedecf; fill-opacity: 0.7"/>
    <path d="M 135.632813 164.262742 
L 139.949429 168.682108 
L 146.920092 184.510878 
L 142.651066 179.405038 
z
" clip-path="url(#p2548a7da66)" style="fill: #fc8767; fill-opacity: 0.7"/>
    <path d="M 152.435803 209.521362 
L 156.530982 206.127736 
L 163.34211 210.647032 
L 159.270374 214.185543 
z
" clip-path="url(#p2548a7da66)" style="fill: #fee6da; fill-opacity: 0.7"/>
    <path d="M 251.741353 217.803939 
L 255.414148 215.092563 
L 262.496236 214.394076 
L 258.971408 212.411739 
z
" clip-path="url(#p2548a7da66)" style="fill: #ffeee6; fill-opacity: 0.7"/>
    <path d="M 205.575381 214.717142 
L 209.474664 209.406593 
L 216.321704 217.790779 
L 212.463182 221.28308 
z
" clip-path="url(#p2548a7da66)" style="fill: #ffeee7; fill-opacity: 0.7"/>
    <path d="M 170.149127 212.04378 
L 174.174817 209.051524 
L 180.98885 207.111656 
L 176.974492 209.702585 
z
" clip-path="url(#p2548a7da66)" style="fill: #fee4d8; fill-opacity: 0.7"/>
    <path d="M 223.31664 215.199608 
L 227.164304 209.612578 
L 234.072908 214.66872 
L 230.191432 223.410951 
z
" clip-path="url(#p2548a7da66)" style="fill: #ffede5; fill-opacity: 0.7"/>
    <path d="M 241.097863 214.853856 
L 244.701877 217.899294 
L 251.741353 217.803939 
L 248.049683 219.988815 
z
" clip-path="url(#p2548a7da66)" style="fill: #fff0e8; fill-opacity: 0.7"/>
    <path d="M 138.463694 181.735555 
L 142.651066 179.405038 
L 149.686005 198.16022 
L 145.592189 203.272913 
z
" clip-path="url(#p2548a7da66)" style="fill: #fcb398; fill-opacity: 0.7"/>
    <path d="M 194.72866 221.625929 
L 198.663797 215.814326 
L 205.575381 214.717142 
L 201.639026 222.219116 
z
" clip-path="url(#p2548a7da66)" style="fill: #fff1ea; fill-opacity: 0.7"/>
    <path d="M 159.270374 214.185543 
L 163.34211 210.647032 
L 170.149127 212.04378 
L 166.1309 219.836163 
z
" clip-path="url(#p2548a7da66)" style="fill: #feeae1; fill-opacity: 0.7"/>
    <path d="M 212.463182 221.28308 
L 216.321704 217.790779 
L 223.31664 215.199608 
L 219.418347 222.951509 
z
" clip-path="url(#p2548a7da66)" style="fill: #fff1ea; fill-opacity: 0.7"/>
    <path d="M 176.974492 209.702585 
L 180.98885 207.111656 
L 187.857736 219.603633 
L 183.881059 222.567135 
z
" clip-path="url(#p2548a7da66)" style="fill: #feeae1; fill-opacity: 0.7"/>
    <path d="M 258.971408 212.411739 
L 262.496236 214.394076 
L 269.462683 218.833723 
L 265.802544 222.582014 
z
" clip-path="url(#p2548a7da66)" style="fill: #ffeee6; fill-opacity: 0.7"/>
    <path d="M 141.424727 205.889794 
L 145.592189 203.272913 
L 152.435803 209.521362 
L 148.332012 214.515676 
z
" clip-path="url(#p2548a7da66)" style="fill: #fedfd0; fill-opacity: 0.7"/>
    <path d="M 183.881059 222.567135 
L 187.857736 219.603633 
L 194.72866 221.625929 
L 190.778166 218.261732 
z
" clip-path="url(#p2548a7da66)" style="fill: #fff2eb; fill-opacity: 0.7"/>
    <path d="M 230.191432 223.410951 
L 234.072908 214.66872 
L 241.097863 214.853856 
L 237.280416 220.393859 
z
" clip-path="url(#p2548a7da66)" style="fill: #ffeee7; fill-opacity: 0.7"/>
    <path d="M 148.332012 214.515676 
L 152.435803 209.521362 
L 159.270374 214.185543 
L 155.225881 222.376655 
z
" clip-path="url(#p2548a7da66)" style="fill: #fee9df; fill-opacity: 0.7"/>
    <path d="M 201.639026 222.219116 
L 205.575381 214.717142 
L 212.463182 221.28308 
L 208.580688 223.907569 
z
" clip-path="url(#p2548a7da66)" style="fill: #fff1ea; fill-opacity: 0.7"/>
    <path d="M 166.1309 219.836163 
L 170.149127 212.04378 
L 176.974492 209.702585 
L 172.974791 220.651976 
z
" clip-path="url(#p2548a7da66)" style="fill: #fee9df; fill-opacity: 0.7"/>
    <path d="M 219.418347 222.951509 
L 223.31664 215.199608 
L 230.191432 223.410951 
L 226.400032 225.153646 
z
" clip-path="url(#p2548a7da66)" style="fill: #fff2eb; fill-opacity: 0.7"/>
    <path d="M 248.049683 219.988815 
L 251.741353 217.803939 
L 258.971408 212.411739 
L 255.160102 219.668689 
z
" clip-path="url(#p2548a7da66)" style="fill: #ffebe2; fill-opacity: 0.7"/>
    <path d="M 155.225881 222.376655 
L 159.270374 214.185543 
L 166.1309 219.836163 
L 162.065981 224.950926 
z
" clip-path="url(#p2548a7da66)" style="fill: #fff0e8; fill-opacity: 0.7"/>
    <path d="M 273.380028 206.499412 
L 277.533665 187.211284 
L 285.069634 177.465916 
L 281.026817 192.579699 
z
" clip-path="url(#p2548a7da66)" style="fill: #fcaa8d; fill-opacity: 0.7"/>
    <path d="M 134.388539 191.251004 
L 138.463694 181.735555 
L 145.592189 203.272913 
L 141.424727 205.889794 
z
" clip-path="url(#p2548a7da66)" style="fill: #fcb89e; fill-opacity: 0.7"/>
    <path d="M 124.630842 164.720045 
L 128.960587 165.96887 
L 135.632813 164.262742 
L 131.423723 167.498701 
z
" clip-path="url(#p2548a7da66)" style="fill: #f85f43; fill-opacity: 0.7"/>
    <path d="M 131.423723 167.498701 
L 135.632813 164.262742 
L 142.651066 179.405038 
L 138.463694 181.735555 
z
" clip-path="url(#p2548a7da66)" style="fill: #fb7656; fill-opacity: 0.7"/>
    <path d="M 269.462683 218.833723 
L 273.380028 206.499412 
L 281.026817 192.579699 
L 277.361192 196.88816 
z
" clip-path="url(#p2548a7da66)" style="fill: #fdcdb9; fill-opacity: 0.7"/>
    <path d="M 237.280416 220.393859 
L 241.097863 214.853856 
L 248.049683 219.988815 
L 244.210744 227.361155 
z
" clip-path="url(#p2548a7da66)" style="fill: #ffeee7; fill-opacity: 0.7"/>
    <path d="M 190.778166 218.261732 
L 194.72866 221.625929 
L 201.639026 222.219116 
L 197.697661 225.885994 
z
" clip-path="url(#p2548a7da66)" style="fill: #fff0e9; fill-opacity: 0.7"/>
    <path d="M 208.580688 223.907569 
L 212.463182 221.28308 
L 219.418347 222.951509 
L 215.591662 222.339083 
z
" clip-path="url(#p2548a7da66)" style="fill: #fff1ea; fill-opacity: 0.7"/>
    <path d="M 172.974791 220.651976 
L 176.974492 209.702585 
L 183.881059 222.567135 
L 179.849401 219.112074 
z
" clip-path="url(#p2548a7da66)" style="fill: #feeae0; fill-opacity: 0.7"/>
    <path d="M 137.245206 209.753327 
L 141.424727 205.889794 
L 148.332012 214.515676 
L 144.285863 224.52479 
z
" clip-path="url(#p2548a7da66)" style="fill: #fee3d7; fill-opacity: 0.7"/>
    <path d="M 226.400032 225.153646 
L 230.191432 223.410951 
L 237.280416 220.393859 
L 233.398831 228.188519 
z
" clip-path="url(#p2548a7da66)" style="fill: #fff3ed; fill-opacity: 0.7"/>
    <path d="M 144.285863 224.52479 
L 148.332012 214.515676 
L 155.225881 222.376655 
L 151.059028 223.429828 
z
" clip-path="url(#p2548a7da66)" style="fill: #ffeee7; fill-opacity: 0.7"/>
    <path d="M 162.065981 224.950926 
L 166.1309 219.836163 
L 172.974791 220.651976 
L 168.904226 223.462398 
z
" clip-path="url(#p2548a7da66)" style="fill: #ffefe8; fill-opacity: 0.7"/>
    <path d="M 255.160102 219.668689 
L 258.971408 212.411739 
L 265.802544 222.582014 
L 262.305372 219.745386 
z
" clip-path="url(#p2548a7da66)" style="fill: #fee9df; fill-opacity: 0.7"/>
    <path d="M 244.210744 227.361155 
L 248.049683 219.988815 
L 255.160102 219.668689 
L 251.2971 228.257536 
z
" clip-path="url(#p2548a7da66)" style="fill: #fff1ea; fill-opacity: 0.7"/>
    <path d="M 197.697661 225.885994 
L 201.639026 222.219116 
L 208.580688 223.907569 
L 204.655216 227.915563 
z
" clip-path="url(#p2548a7da66)" style="fill: #fff2ec; fill-opacity: 0.7"/>
    <path d="M 130.264202 199.218107 
L 134.388539 191.251004 
L 141.424727 205.889794 
L 137.245206 209.753327 
z
" clip-path="url(#p2548a7da66)" style="fill: #fcc1a8; fill-opacity: 0.7"/>
    <path d="M 265.802544 222.582014 
L 269.462683 218.833723 
L 277.361192 196.88816 
L 273.654039 201.656423 
z
" clip-path="url(#p2548a7da66)" style="fill: #fed8c7; fill-opacity: 0.7"/>
    <path d="M 151.059028 223.429828 
L 155.225881 222.376655 
L 162.065981 224.950926 
L 157.937841 227.125931 
z
" clip-path="url(#p2548a7da66)" style="fill: #fff0e9; fill-opacity: 0.7"/>
    <path d="M 127.199488 171.579713 
L 131.423723 167.498701 
L 138.463694 181.735555 
L 134.388539 191.251004 
z
" clip-path="url(#p2548a7da66)" style="fill: #fb7b5b; fill-opacity: 0.7"/>
    <path d="M 215.591662 222.339083 
L 219.418347 222.951509 
L 226.400032 225.153646 
L 222.629175 222.711652 
z
" clip-path="url(#p2548a7da66)" style="fill: #ffeee6; fill-opacity: 0.7"/>
    <path d="M 233.398831 228.188519 
L 237.280416 220.393859 
L 244.210744 227.361155 
L 240.552499 225.020464 
z
" clip-path="url(#p2548a7da66)" style="fill: #fff0e9; fill-opacity: 0.7"/>
    <path d="M 133.155442 219.32102 
L 137.245206 209.753327 
L 144.285863 224.52479 
L 140.051486 225.248495 
z
" clip-path="url(#p2548a7da66)" style="fill: #fee8dd; fill-opacity: 0.7"/>
    <path d="M 120.298488 165.287702 
L 124.630842 164.720045 
L 131.423723 167.498701 
L 127.199488 171.579713 
z
" clip-path="url(#p2548a7da66)" style="fill: #f6583e; fill-opacity: 0.7"/>
    <path d="M 179.849401 219.112074 
L 183.881059 222.567135 
L 190.778166 218.261732 
L 186.770696 209.018734 
z
" clip-path="url(#p2548a7da66)" style="fill: #fee4d8; fill-opacity: 0.7"/>
    <path d="M 126.270747 213.407275 
L 130.264202 199.218107 
L 137.245206 209.753327 
L 133.155442 219.32102 
z
" clip-path="url(#p2548a7da66)" style="fill: #fdd4c2; fill-opacity: 0.7"/>
    <path d="M 140.051486 225.248495 
L 144.285863 224.52479 
L 151.059028 223.429828 
L 146.904948 227.869162 
z
" clip-path="url(#p2548a7da66)" style="fill: #ffefe8; fill-opacity: 0.7"/>
    <path d="M 204.655216 227.915563 
L 208.580688 223.907569 
L 215.591662 222.339083 
L 211.655511 228.867242 
z
" clip-path="url(#p2548a7da66)" style="fill: #fff0e8; fill-opacity: 0.7"/>
    <path d="M 168.904226 223.462398 
L 172.974791 220.651976 
L 179.849401 219.112074 
L 175.792407 221.712541 
z
" clip-path="url(#p2548a7da66)" style="fill: #fee8de; fill-opacity: 0.7"/>
    <path d="M 122.245812 226.338614 
L 126.270747 213.407275 
L 133.155442 219.32102 
L 129.113505 231.567907 
z
" clip-path="url(#p2548a7da66)" style="fill: #ffebe2; fill-opacity: 0.7"/>
    <path d="M 157.937841 227.125931 
L 162.065981 224.950926 
L 168.904226 223.462398 
L 164.83314 230.08943 
z
" clip-path="url(#p2548a7da66)" style="fill: #fff0e9; fill-opacity: 0.7"/>
    <path d="M 123.128083 183.040966 
L 127.199488 171.579713 
L 134.388539 191.251004 
L 130.264202 199.218107 
z
" clip-path="url(#p2548a7da66)" style="fill: #fc8e6e; fill-opacity: 0.7"/>
    <path d="M 104.488414 227.520849 
L 108.260074 206.439096 
L 115.255012 216.283134 
L 111.195759 228.385191 
z
" clip-path="url(#p2548a7da66)" style="fill: #fee6da; fill-opacity: 0.7"/>
    <path d="M 115.255012 216.283134 
L 119.15683 198.541478 
L 126.270747 213.407275 
L 122.245812 226.338614 
z
" clip-path="url(#p2548a7da66)" style="fill: #fedaca; fill-opacity: 0.7"/>
    <path d="M 251.2971 228.257536 
L 255.160102 219.668689 
L 262.305372 219.745386 
L 258.595197 222.92101 
z
" clip-path="url(#p2548a7da66)" style="fill: #feeae1; fill-opacity: 0.7"/>
    <path d="M 222.629175 222.711652 
L 226.400032 225.153646 
L 233.398831 228.188519 
L 229.636831 227.529999 
z
" clip-path="url(#p2548a7da66)" style="fill: #ffefe8; fill-opacity: 0.7"/>
    <path d="M 119.15683 198.541478 
L 123.128083 183.040966 
L 130.264202 199.218107 
L 126.270747 213.407275 
z
" clip-path="url(#p2548a7da66)" style="fill: #fcb095; fill-opacity: 0.7"/>
    <path d="M 111.195759 228.385191 
L 115.255012 216.283134 
L 122.245812 226.338614 
L 118.04628 233.067617 
z
" clip-path="url(#p2548a7da66)" style="fill: #ffeee7; fill-opacity: 0.7"/>
    <path d="M 108.260074 206.439096 
L 112.283289 193.056155 
L 119.15683 198.541478 
L 115.255012 216.283134 
z
" clip-path="url(#p2548a7da66)" style="fill: #fcbea5; fill-opacity: 0.7"/>
    <path d="M 240.552499 225.020464 
L 244.210744 227.361155 
L 251.2971 228.257536 
L 247.685298 225.429048 
z
" clip-path="url(#p2548a7da66)" style="fill: #ffefe8; fill-opacity: 0.7"/>
    <path d="M 129.113505 231.567907 
L 133.155442 219.32102 
L 140.051486 225.248495 
L 135.80173 227.366675 
z
" clip-path="url(#p2548a7da66)" style="fill: #ffede5; fill-opacity: 0.7"/>
    <path d="M 100.075697 229.376111 
L 104.488414 227.520849 
L 111.195759 228.385191 
L 106.886505 232.874667 
z
" clip-path="url(#p2548a7da66)" style="fill: #fff2ec; fill-opacity: 0.7"/>
    <path d="M 116.159773 174.445021 
L 120.298488 165.287702 
L 127.199488 171.579713 
L 123.128083 183.040966 
z
" clip-path="url(#p2548a7da66)" style="fill: #f96346; fill-opacity: 0.7"/>
    <path d="M 118.04628 233.067617 
L 122.245812 226.338614 
L 129.113505 231.567907 
L 124.827953 234.284005 
z
" clip-path="url(#p2548a7da66)" style="fill: #fff5f0; fill-opacity: 0.7"/>
    <path d="M 112.283289 193.056155 
L 116.159773 174.445021 
L 123.128083 183.040966 
L 119.15683 198.541478 
z
" clip-path="url(#p2548a7da66)" style="fill: #fc8b6b; fill-opacity: 0.7"/>
    <path d="M 146.904948 227.869162 
L 151.059028 223.429828 
L 157.937841 227.125931 
L 153.755255 228.115325 
z
" clip-path="url(#p2548a7da66)" style="fill: #ffeee6; fill-opacity: 0.7"/>
    <path d="M 229.636831 227.529999 
L 233.398831 228.188519 
L 240.552499 225.020464 
L 236.626705 234.224453 
z
" clip-path="url(#p2548a7da66)" style="fill: #fff0e9; fill-opacity: 0.7"/>
    <path d="M 186.770696 209.018734 
L 190.778166 218.261732 
L 197.697661 225.885994 
L 193.762891 211.870149 
z
" clip-path="url(#p2548a7da66)" style="fill: #fedbcc; fill-opacity: 0.7"/>
    <path d="M 262.305372 219.745386 
L 265.802544 222.582014 
L 273.654039 201.656423 
L 270.147813 199.311589 
z
" clip-path="url(#p2548a7da66)" style="fill: #fdcdb9; fill-opacity: 0.7"/>
    <path d="M 193.762891 211.870149 
L 197.697661 225.885994 
L 204.655216 227.915563 
L 200.717395 228.25273 
z
" clip-path="url(#p2548a7da66)" style="fill: #fee8dd; fill-opacity: 0.7"/>
    <path d="M 164.83314 230.08943 
L 168.904226 223.462398 
L 175.792407 221.712541 
L 171.73302 229.533903 
z
" clip-path="url(#p2548a7da66)" style="fill: #ffebe2; fill-opacity: 0.7"/>
    <path d="M 211.655511 228.867242 
L 215.591662 222.339083 
L 222.629175 222.711652 
L 218.78456 222.330321 
z
" clip-path="url(#p2548a7da66)" style="fill: #fee8dd; fill-opacity: 0.7"/>
    <path d="M 106.886505 232.874667 
L 111.195759 228.385191 
L 118.04628 233.067617 
L 113.68653 235.188126 
z
" clip-path="url(#p2548a7da66)" style="fill: #fff4ef; fill-opacity: 0.7"/>
    <path d="M 200.717395 228.25273 
L 204.655216 227.915563 
L 211.655511 228.867242 
L 207.740424 229.704171 
z
" clip-path="url(#p2548a7da66)" style="fill: #ffeee7; fill-opacity: 0.7"/>
    <path d="M 153.755255 228.115325 
L 157.937841 227.125931 
L 164.83314 230.08943 
L 160.715591 234.62082 
z
" clip-path="url(#p2548a7da66)" style="fill: #fff0e8; fill-opacity: 0.7"/>
    <path d="M 135.80173 227.366675 
L 140.051486 225.248495 
L 146.904948 227.869162 
L 142.652918 228.603758 
z
" clip-path="url(#p2548a7da66)" style="fill: #ffece3; fill-opacity: 0.7"/>
    <path d="M 247.685298 225.429048 
L 251.2971 228.257536 
L 258.595197 222.92101 
L 254.868446 225.556907 
z
" clip-path="url(#p2548a7da66)" style="fill: #fee8de; fill-opacity: 0.7"/>
    <path d="M 124.827953 234.284005 
L 129.113505 231.567907 
L 135.80173 227.366675 
L 131.66162 236.198319 
z
" clip-path="url(#p2548a7da66)" style="fill: #fff3ed; fill-opacity: 0.7"/>
    <path d="M 175.792407 221.712541 
L 179.849401 219.112074 
L 186.770696 209.018734 
L 182.711029 209.45484 
z
" clip-path="url(#p2548a7da66)" style="fill: #fdd1be; fill-opacity: 0.7"/>
    <path d="M 218.78456 222.330321 
L 222.629175 222.711652 
L 229.636831 227.529999 
L 225.697603 235.932818 
z
" clip-path="url(#p2548a7da66)" style="fill: #feeae0; fill-opacity: 0.7"/>
    <path d="M 236.626705 234.224453 
L 240.552499 225.020464 
L 247.685298 225.429048 
L 243.8374 231.16715 
z
" clip-path="url(#p2548a7da66)" style="fill: #ffece4; fill-opacity: 0.7"/>
    <path d="M 281.026817 192.579699 
L 285.069634 177.465916 
L 293.563251 146.295061 
L 289.469794 161.272513 
z
" clip-path="url(#p2548a7da66)" style="fill: #f34c37; fill-opacity: 0.7"/>
    <path d="M 113.68653 235.188126 
L 118.04628 233.067617 
L 124.827953 234.284005 
L 120.532576 238.079753 
z
" clip-path="url(#p2548a7da66)" style="fill: #fff5f0; fill-opacity: 0.7"/>
    <path d="M 225.697603 235.932818 
L 229.636831 227.529999 
L 236.626705 234.224453 
L 232.82899 235.340058 
z
" clip-path="url(#p2548a7da66)" style="fill: #fff2eb; fill-opacity: 0.7"/>
    <path d="M 142.652918 228.603758 
L 146.904948 227.869162 
L 153.755255 228.115325 
L 149.616132 234.784553 
z
" clip-path="url(#p2548a7da66)" style="fill: #ffece4; fill-opacity: 0.7"/>
    <path d="M 95.7046 233.543817 
L 100.075697 229.376111 
L 106.886505 232.874667 
L 102.291388 229.889056 
z
" clip-path="url(#p2548a7da66)" style="fill: #ffefe8; fill-opacity: 0.7"/>
    <path d="M 160.715591 234.62082 
L 164.83314 230.08943 
L 171.73302 229.533903 
L 167.609054 231.850413 
z
" clip-path="url(#p2548a7da66)" style="fill: #ffefe8; fill-opacity: 0.7"/>
    <path d="M 258.595197 222.92101 
L 262.305372 219.745386 
L 270.147813 199.311589 
L 266.1943 210.166943 
z
" clip-path="url(#p2548a7da66)" style="fill: #fdc9b3; fill-opacity: 0.7"/>
    <path d="M 207.740424 229.704171 
L 211.655511 228.867242 
L 218.78456 222.330321 
L 214.836372 227.689291 
z
" clip-path="url(#p2548a7da66)" style="fill: #fee7db; fill-opacity: 0.7"/>
    <path d="M 277.361192 196.88816 
L 281.026817 192.579699 
L 289.469794 161.272513 
L 286.015345 159.231144 
z
" clip-path="url(#p2548a7da66)" style="fill: #f96044; fill-opacity: 0.7"/>
    <path d="M 171.73302 229.533903 
L 175.792407 221.712541 
L 182.711029 209.45484 
L 178.677185 228.278126 
z
" clip-path="url(#p2548a7da66)" style="fill: #fedfd0; fill-opacity: 0.7"/>
    <path d="M 196.725353 232.157387 
L 200.717395 228.25273 
L 207.740424 229.704171 
L 203.759048 234.743857 
z
" clip-path="url(#p2548a7da66)" style="fill: #ffece3; fill-opacity: 0.7"/>
    <path d="M 149.616132 234.784553 
L 153.755255 228.115325 
L 160.715591 234.62082 
L 156.495889 233.466445 
z
" clip-path="url(#p2548a7da66)" style="fill: #ffeee6; fill-opacity: 0.7"/>
    <path d="M 131.66162 236.198319 
L 135.80173 227.366675 
L 142.652918 228.603758 
L 138.371162 230.099195 
z
" clip-path="url(#p2548a7da66)" style="fill: #ffebe2; fill-opacity: 0.7"/>
    <path d="M 189.729062 217.499127 
L 193.762891 211.870149 
L 200.717395 228.25273 
L 196.725353 232.157387 
z
" clip-path="url(#p2548a7da66)" style="fill: #fedecf; fill-opacity: 0.7"/>
    <path d="M 102.291388 229.889056 
L 106.886505 232.874667 
L 113.68653 235.188126 
L 109.252774 236.263914 
z
" clip-path="url(#p2548a7da66)" style="fill: #ffefe8; fill-opacity: 0.7"/>
    <path d="M 232.82899 235.340058 
L 236.626705 234.224453 
L 243.8374 231.16715 
L 239.95494 237.410194 
z
" clip-path="url(#p2548a7da66)" style="fill: #fff0e9; fill-opacity: 0.7"/>
    <path d="M 120.532576 238.079753 
L 124.827953 234.284005 
L 131.66162 236.198319 
L 127.223586 233.362627 
z
" clip-path="url(#p2548a7da66)" style="fill: #fff2eb; fill-opacity: 0.7"/>
    <path d="M 243.8374 231.16715 
L 247.685298 225.429048 
L 254.868446 225.556907 
L 251.093442 228.819975 
z
" clip-path="url(#p2548a7da66)" style="fill: #fee6da; fill-opacity: 0.7"/>
    <path d="M 214.836372 227.689291 
L 218.78456 222.330321 
L 225.697603 235.932818 
L 221.837325 237.110551 
z
" clip-path="url(#p2548a7da66)" style="fill: #feeae0; fill-opacity: 0.7"/>
    <path d="M 182.711029 209.45484 
L 186.770696 209.018734 
L 193.762891 211.870149 
L 189.729062 217.499127 
z
" clip-path="url(#p2548a7da66)" style="fill: #fcbfa7; fill-opacity: 0.7"/>
    <path d="M 167.609054 231.850413 
L 171.73302 229.533903 
L 178.677185 228.278126 
L 174.594147 235.073257 
z
" clip-path="url(#p2548a7da66)" style="fill: #feeae0; fill-opacity: 0.7"/>
    <path d="M 221.837325 237.110551 
L 225.697603 235.932818 
L 232.82899 235.340058 
L 228.903262 242.023931 
z
" clip-path="url(#p2548a7da66)" style="fill: #fff3ed; fill-opacity: 0.7"/>
    <path d="M 185.681738 236.100946 
L 189.729062 217.499127 
L 196.725353 232.157387 
L 192.694923 239.846118 
z
" clip-path="url(#p2548a7da66)" style="fill: #fee9df; fill-opacity: 0.7"/>
    <path d="M 138.371162 230.099195 
L 142.652918 228.603758 
L 149.616132 234.784553 
L 145.398547 238.263742 
z
" clip-path="url(#p2548a7da66)" style="fill: #ffebe2; fill-opacity: 0.7"/>
    <path d="M 109.252774 236.263914 
L 113.68653 235.188126 
L 120.532576 238.079753 
L 116.030569 235.86339 
z
" clip-path="url(#p2548a7da66)" style="fill: #fff0e9; fill-opacity: 0.7"/>
    <path d="M 178.677185 228.278126 
L 182.711029 209.45484 
L 189.729062 217.499127 
L 185.681738 236.100946 
z
" clip-path="url(#p2548a7da66)" style="fill: #fed9c9; fill-opacity: 0.7"/>
    <path d="M 254.868446 225.556907 
L 258.595197 222.92101 
L 266.1943 210.166943 
L 262.549038 210.07681 
z
" clip-path="url(#p2548a7da66)" style="fill: #fdcab5; fill-opacity: 0.7"/>
    <path d="M 156.495889 233.466445 
L 160.715591 234.62082 
L 167.609054 231.850413 
L 163.436322 233.099586 
z
" clip-path="url(#p2548a7da66)" style="fill: #feeae1; fill-opacity: 0.7"/>
    <path d="M 203.759048 234.743857 
L 207.740424 229.704171 
L 214.836372 227.689291 
L 210.868212 232.300592 
z
" clip-path="url(#p2548a7da66)" style="fill: #fee7dc; fill-opacity: 0.7"/>
    <path d="M 192.694923 239.846118 
L 196.725353 232.157387 
L 203.759048 234.743857 
L 199.743582 241.106514 
z
" clip-path="url(#p2548a7da66)" style="fill: #fff0e8; fill-opacity: 0.7"/>
    <path d="M 174.594147 235.073257 
L 178.677185 228.278126 
L 185.681738 236.100946 
L 181.599387 235.721119 
z
" clip-path="url(#p2548a7da66)" style="fill: #feeae1; fill-opacity: 0.7"/>
    <path d="M 273.654039 201.656423 
L 277.361192 196.88816 
L 286.015345 159.231144 
L 282.279715 163.772374 
z
" clip-path="url(#p2548a7da66)" style="fill: #f85d42; fill-opacity: 0.7"/>
    <path d="M 239.95494 237.410194 
L 243.8374 231.16715 
L 251.093442 228.819975 
L 247.168672 237.174673 
z
" clip-path="url(#p2548a7da66)" style="fill: #feeae0; fill-opacity: 0.7"/>
    <path d="M 90.945579 228.481921 
L 95.7046 233.543817 
L 102.291388 229.889056 
L 97.65119 227.337869 
z
" clip-path="url(#p2548a7da66)" style="fill: #fee4d8; fill-opacity: 0.7"/>
    <path d="M 145.398547 238.263742 
L 149.616132 234.784553 
L 156.495889 233.466445 
L 152.308652 238.174515 
z
" clip-path="url(#p2548a7da66)" style="fill: #ffeee6; fill-opacity: 0.7"/>
    <path d="M 127.223586 233.362627 
L 131.66162 236.198319 
L 138.371162 230.099195 
L 134.06835 232.613547 
z
" clip-path="url(#p2548a7da66)" style="fill: #fee8de; fill-opacity: 0.7"/>
    <path d="M 228.903262 242.023931 
L 232.82899 235.340058 
L 239.95494 237.410194 
L 236.234631 233.846813 
z
" clip-path="url(#p2548a7da66)" style="fill: #ffeee6; fill-opacity: 0.7"/>
    <path d="M 181.599387 235.721119 
L 185.681738 236.100946 
L 192.694923 239.846118 
L 188.645029 243.027861 
z
" clip-path="url(#p2548a7da66)" style="fill: #fff0e9; fill-opacity: 0.7"/>
    <path d="M 210.868212 232.300592 
L 214.836372 227.689291 
L 221.837325 237.110551 
L 217.898278 241.669688 
z
" clip-path="url(#p2548a7da66)" style="fill: #feeae1; fill-opacity: 0.7"/>
    <path d="M 217.898278 241.669688 
L 221.837325 237.110551 
L 228.903262 242.023931 
L 224.999033 245.696968 
z
" clip-path="url(#p2548a7da66)" style="fill: #fff4ee; fill-opacity: 0.7"/>
    <path d="M 163.436322 233.099586 
L 167.609054 231.850413 
L 174.594147 235.073257 
L 170.476754 240.337866 
z
" clip-path="url(#p2548a7da66)" style="fill: #feeae0; fill-opacity: 0.7"/>
    <path d="M 97.65119 227.337869 
L 102.291388 229.889056 
L 109.252774 236.263914 
L 104.978349 243.574545 
z
" clip-path="url(#p2548a7da66)" style="fill: #fee8de; fill-opacity: 0.7"/>
    <path d="M 116.030569 235.86339 
L 120.532576 238.079753 
L 127.223586 233.362627 
L 122.893644 236.994465 
z
" clip-path="url(#p2548a7da66)" style="fill: #ffebe2; fill-opacity: 0.7"/>
    <path d="M 199.743582 241.106514 
L 203.759048 234.743857 
L 210.868212 232.300592 
L 206.850044 239.717698 
z
" clip-path="url(#p2548a7da66)" style="fill: #ffece3; fill-opacity: 0.7"/>
    <path d="M 251.093442 228.819975 
L 254.868446 225.556907 
L 262.549038 210.07681 
L 258.592101 219.823373 
z
" clip-path="url(#p2548a7da66)" style="fill: #fdcbb6; fill-opacity: 0.7"/>
    <path d="M 134.06835 232.613547 
L 138.371162 230.099195 
L 145.398547 238.263742 
L 141.150104 242.009698 
z
" clip-path="url(#p2548a7da66)" style="fill: #fee9df; fill-opacity: 0.7"/>
    <path d="M 188.645029 243.027861 
L 192.694923 239.846118 
L 199.743582 241.106514 
L 195.713887 244.040428 
z
" clip-path="url(#p2548a7da66)" style="fill: #fff2ec; fill-opacity: 0.7"/>
    <path d="M 104.978349 243.574545 
L 109.252774 236.263914 
L 116.030569 235.86339 
L 111.584088 237.382926 
z
" clip-path="url(#p2548a7da66)" style="fill: #ffece4; fill-opacity: 0.7"/>
    <path d="M 152.308652 238.174515 
L 156.495889 233.466445 
L 163.436322 233.099586 
L 159.28914 240.304724 
z
" clip-path="url(#p2548a7da66)" style="fill: #fee9df; fill-opacity: 0.7"/>
    <path d="M 141.150104 242.009698 
L 145.398547 238.263742 
L 152.308652 238.174515 
L 148.149262 246.630528 
z
" clip-path="url(#p2548a7da66)" style="fill: #fff0e9; fill-opacity: 0.7"/>
    <path d="M 270.147813 199.311589 
L 273.654039 201.656423 
L 282.279715 163.772374 
L 278.470306 169.677676 
z
" clip-path="url(#p2548a7da66)" style="fill: #f75c41; fill-opacity: 0.7"/>
    <path d="M 247.168672 237.174673 
L 251.093442 228.819975 
L 258.592101 219.823373 
L 254.327602 240.868306 
z
" clip-path="url(#p2548a7da66)" style="fill: #fee2d5; fill-opacity: 0.7"/>
    <path d="M 170.476754 240.337866 
L 174.594147 235.073257 
L 181.599387 235.721119 
L 177.47469 236.394553 
z
" clip-path="url(#p2548a7da66)" style="fill: #fee9df; fill-opacity: 0.7"/>
    <path d="M 206.850044 239.717698 
L 210.868212 232.300592 
L 217.898278 241.669688 
L 213.913987 247.79339 
z
" clip-path="url(#p2548a7da66)" style="fill: #ffeee6; fill-opacity: 0.7"/>
    <path d="M 236.234631 233.846813 
L 239.95494 237.410194 
L 247.168672 237.174673 
L 243.407851 237.214683 
z
" clip-path="url(#p2548a7da66)" style="fill: #fee8dd; fill-opacity: 0.7"/>
    <path d="M 224.999033 245.696968 
L 228.903262 242.023931 
L 236.234631 233.846813 
L 232.304184 239.311236 
z
" clip-path="url(#p2548a7da66)" style="fill: #ffece4; fill-opacity: 0.7"/>
    <path d="M 213.913987 247.79339 
L 217.898278 241.669688 
L 224.999033 245.696968 
L 221.074392 248.485143 
z
" clip-path="url(#p2548a7da66)" style="fill: #fff5f0; fill-opacity: 0.7"/>
    <path d="M 195.713887 244.040428 
L 199.743582 241.106514 
L 206.850044 239.717698 
L 202.802477 248.583415 
z
" clip-path="url(#p2548a7da66)" style="fill: #fff1ea; fill-opacity: 0.7"/>
    <path d="M 159.28914 240.304724 
L 163.436322 233.099586 
L 170.476754 240.337866 
L 166.288956 240.83586 
z
" clip-path="url(#p2548a7da66)" style="fill: #feeae0; fill-opacity: 0.7"/>
    <path d="M 122.893644 236.994465 
L 127.223586 233.362627 
L 134.06835 232.613547 
L 129.702887 234.144273 
z
" clip-path="url(#p2548a7da66)" style="fill: #fee3d7; fill-opacity: 0.7"/>
    <path d="M 177.47469 236.394553 
L 181.599387 235.721119 
L 188.645029 243.027861 
L 184.561421 247.150087 
z
" clip-path="url(#p2548a7da66)" style="fill: #ffece4; fill-opacity: 0.7"/>
    <path d="M 148.149262 246.630528 
L 152.308652 238.174515 
L 159.28914 240.304724 
L 155.132353 248.545991 
z
" clip-path="url(#p2548a7da66)" style="fill: #fff0e8; fill-opacity: 0.7"/>
    <path d="M 111.584088 237.382926 
L 116.030569 235.86339 
L 122.893644 236.994465 
L 118.552158 241.542292 
z
" clip-path="url(#p2548a7da66)" style="fill: #fee7dc; fill-opacity: 0.7"/>
    <path d="M 184.561421 247.150087 
L 188.645029 243.027861 
L 195.713887 244.040428 
L 191.646726 248.229412 
z
" clip-path="url(#p2548a7da66)" style="fill: #fff2ec; fill-opacity: 0.7"/>
    <path d="M 266.1943 210.166943 
L 270.147813 199.311589 
L 278.470306 169.677676 
L 274.542605 178.443869 
z
" clip-path="url(#p2548a7da66)" style="fill: #fa6648; fill-opacity: 0.7"/>
    <path d="M 243.407851 237.214683 
L 247.168672 237.174673 
L 254.327602 240.868306 
L 250.750732 234.810637 
z
" clip-path="url(#p2548a7da66)" style="fill: #fee6da; fill-opacity: 0.7"/>
    <path d="M 129.702887 234.144273 
L 134.06835 232.613547 
L 141.150104 242.009698 
L 136.808282 242.908635 
z
" clip-path="url(#p2548a7da66)" style="fill: #fee6da; fill-opacity: 0.7"/>
    <path d="M 202.802477 248.583415 
L 206.850044 239.717698 
L 213.913987 247.79339 
L 209.947032 249.000018 
z
" clip-path="url(#p2548a7da66)" style="fill: #fff2ec; fill-opacity: 0.7"/>
    <path d="M 136.808282 242.908635 
L 141.150104 242.009698 
L 148.149262 246.630528 
L 143.886523 250.307623 
z
" clip-path="url(#p2548a7da66)" style="fill: #fff1ea; fill-opacity: 0.7"/>
    <path d="M 166.288956 240.83586 
L 170.476754 240.337866 
L 177.47469 236.394553 
L 173.372896 248.449234 
z
" clip-path="url(#p2548a7da66)" style="fill: #ffebe2; fill-opacity: 0.7"/>
    <path d="M 85.834652 216.360723 
L 90.945579 228.481921 
L 97.65119 227.337869 
L 92.871931 222.671791 
z
" clip-path="url(#p2548a7da66)" style="fill: #fcc4ad; fill-opacity: 0.7"/>
    <path d="M 92.871931 222.671791 
L 97.65119 227.337869 
L 104.978349 243.574545 
L 100.061967 233.090548 
z
" clip-path="url(#p2548a7da66)" style="fill: #fed9c9; fill-opacity: 0.7"/>
    <path d="M 100.061967 233.090548 
L 104.978349 243.574545 
L 111.584088 237.382926 
L 107.256665 244.025989 
z
" clip-path="url(#p2548a7da66)" style="fill: #fee7dc; fill-opacity: 0.7"/>
    <path d="M 155.132353 248.545991 
L 159.28914 240.304724 
L 166.288956 240.83586 
L 162.137546 249.252668 
z
" clip-path="url(#p2548a7da66)" style="fill: #ffeee7; fill-opacity: 0.7"/>
    <path d="M 191.646726 248.229412 
L 195.713887 244.040428 
L 202.802477 248.583415 
L 198.761723 251.790707 
z
" clip-path="url(#p2548a7da66)" style="fill: #fff3ed; fill-opacity: 0.7"/>
    <path d="M 143.886523 250.307623 
L 148.149262 246.630528 
L 155.132353 248.545991 
L 150.90738 253.539453 
z
" clip-path="url(#p2548a7da66)" style="fill: #fff5f0; fill-opacity: 0.7"/>
    <path d="M 118.552158 241.542292 
L 122.893644 236.994465 
L 129.702887 234.144273 
L 125.470349 242.810692 
z
" clip-path="url(#p2548a7da66)" style="fill: #fee5d8; fill-opacity: 0.7"/>
    <path d="M 209.947032 249.000018 
L 213.913987 247.79339 
L 221.074392 248.485143 
L 217.085171 253.838997 
z
" clip-path="url(#p2548a7da66)" style="fill: #fff5f0; fill-opacity: 0.7"/>
    <path d="M 221.074392 248.485143 
L 224.999033 245.696968 
L 232.304184 239.311236 
L 228.463149 237.467295 
z
" clip-path="url(#p2548a7da66)" style="fill: #feeae0; fill-opacity: 0.7"/>
    <path d="M 173.372896 248.449234 
L 177.47469 236.394553 
L 184.561421 247.150087 
L 180.426269 245.148429 
z
" clip-path="url(#p2548a7da66)" style="fill: #ffece4; fill-opacity: 0.7"/>
    <path d="M 262.549038 210.07681 
L 266.1943 210.166943 
L 274.542605 178.443869 
L 270.669258 185.018168 
z
" clip-path="url(#p2548a7da66)" style="fill: #fb7151; fill-opacity: 0.7"/>
    <path d="M 107.256665 244.025989 
L 111.584088 237.382926 
L 118.552158 241.542292 
L 114.28273 249.71274 
z
" clip-path="url(#p2548a7da66)" style="fill: #feeae1; fill-opacity: 0.7"/>
    <path d="M 250.750732 234.810637 
L 254.327602 240.868306 
L 262.101646 224.21364 
L 257.645329 250.923388 
z
" clip-path="url(#p2548a7da66)" style="fill: #fee2d5; fill-opacity: 0.7"/>
    <path d="M 254.327602 240.868306 
L 258.592101 219.823373 
L 266.33536 206.011714 
L 262.101646 224.21364 
z
" clip-path="url(#p2548a7da66)" style="fill: #fcbca2; fill-opacity: 0.7"/>
    <path d="M 232.304184 239.311236 
L 236.234631 233.846813 
L 243.407851 237.214683 
L 239.796052 227.816479 
z
" clip-path="url(#p2548a7da66)" style="fill: #fedaca; fill-opacity: 0.7"/>
    <path d="M 162.137546 249.252668 
L 166.288956 240.83586 
L 173.372896 248.449234 
L 169.199358 251.936057 
z
" clip-path="url(#p2548a7da66)" style="fill: #fff0e8; fill-opacity: 0.7"/>
    <path d="M 180.426269 245.148429 
L 184.561421 247.150087 
L 191.646726 248.229412 
L 187.547915 254.785631 
z
" clip-path="url(#p2548a7da66)" style="fill: #fff1ea; fill-opacity: 0.7"/>
    <path d="M 198.761723 251.790707 
L 202.802477 248.583415 
L 209.947032 249.000018 
L 205.913167 253.909698 
z
" clip-path="url(#p2548a7da66)" style="fill: #fff4ee; fill-opacity: 0.7"/>
    <path d="M 125.470349 242.810692 
L 129.702887 234.144273 
L 136.808282 242.908635 
L 132.481613 246.57973 
z
" clip-path="url(#p2548a7da66)" style="fill: #fee6da; fill-opacity: 0.7"/>
    <path d="M 258.592101 219.823373 
L 262.549038 210.07681 
L 270.669258 185.018168 
L 266.33536 206.011714 
z
" clip-path="url(#p2548a7da66)" style="fill: #fc8666; fill-opacity: 0.7"/>
    <path d="M 150.90738 253.539453 
L 155.132353 248.545991 
L 162.137546 249.252668 
L 157.876857 250.209801 
z
" clip-path="url(#p2548a7da66)" style="fill: #fff2eb; fill-opacity: 0.7"/>
    <path d="M 132.481613 246.57973 
L 136.808282 242.908635 
L 143.886523 250.307623 
L 139.500112 249.456366 
z
" clip-path="url(#p2548a7da66)" style="fill: #ffede5; fill-opacity: 0.7"/>
    <path d="M 114.28273 249.71274 
L 118.552158 241.542292 
L 125.470349 242.810692 
L 120.964438 241.927646 
z
" clip-path="url(#p2548a7da66)" style="fill: #fee8dd; fill-opacity: 0.7"/>
    <path d="M 187.547915 254.785631 
L 191.646726 248.229412 
L 198.761723 251.790707 
L 194.683113 255.98761 
z
" clip-path="url(#p2548a7da66)" style="fill: #fff4ef; fill-opacity: 0.7"/>
    <path d="M 169.199358 251.936057 
L 173.372896 248.449234 
L 180.426269 245.148429 
L 176.300529 256.381524 
z
" clip-path="url(#p2548a7da66)" style="fill: #fff1ea; fill-opacity: 0.7"/>
    <path d="M 217.085171 253.838997 
L 221.074392 248.485143 
L 228.463149 237.467295 
L 224.334191 252.277555 
z
" clip-path="url(#p2548a7da66)" style="fill: #ffede5; fill-opacity: 0.7"/>
    <path d="M 205.913167 253.909698 
L 209.947032 249.000018 
L 217.085171 253.838997 
L 213.088231 257.165119 
z
" clip-path="url(#p2548a7da66)" style="fill: #fff4ef; fill-opacity: 0.7"/>
    <path d="M 176.300529 256.381524 
L 180.426269 245.148429 
L 187.547915 254.785631 
L 183.417393 257.886132 
z
" clip-path="url(#p2548a7da66)" style="fill: #fff2ec; fill-opacity: 0.7"/>
    <path d="M 157.876857 250.209801 
L 162.137546 249.252668 
L 169.199358 251.936057 
L 164.967265 252.977604 
z
" clip-path="url(#p2548a7da66)" style="fill: #ffefe8; fill-opacity: 0.7"/>
    <path d="M 139.500112 249.456366 
L 143.886523 250.307623 
L 150.90738 253.539453 
L 146.380614 242.196758 
z
" clip-path="url(#p2548a7da66)" style="fill: #ffece3; fill-opacity: 0.7"/>
    <path d="M 239.796052 227.816479 
L 243.407851 237.214683 
L 250.750732 234.810637 
L 247.213978 224.424673 
z
" clip-path="url(#p2548a7da66)" style="fill: #fdc6b0; fill-opacity: 0.7"/>
    <path d="M 194.683113 255.98761 
L 198.761723 251.790707 
L 205.913167 253.909698 
L 201.877004 253.741258 
z
" clip-path="url(#p2548a7da66)" style="fill: #fff2ec; fill-opacity: 0.7"/>
    <path d="M 213.088231 257.165119 
L 217.085171 253.838997 
L 224.334191 252.277555 
L 220.320402 258.187436 
z
" clip-path="url(#p2548a7da66)" style="fill: #fff4ee; fill-opacity: 0.7"/>
    <path d="M 247.213978 224.424673 
L 250.750732 234.810637 
L 257.645329 250.923388 
L 254.270169 237.522166 
z
" clip-path="url(#p2548a7da66)" style="fill: #fdd3c1; fill-opacity: 0.7"/>
    <path d="M 228.463149 237.467295 
L 232.304184 239.311236 
L 239.796052 227.816479 
L 235.844885 232.718503 
z
" clip-path="url(#p2548a7da66)" style="fill: #fdccb8; fill-opacity: 0.7"/>
    <path d="M 120.964438 241.927646 
L 125.470349 242.810692 
L 132.481613 246.57973 
L 127.916066 241.781409 
z
" clip-path="url(#p2548a7da66)" style="fill: #fee2d5; fill-opacity: 0.7"/>
    <path d="M 164.967265 252.977604 
L 169.199358 251.936057 
L 176.300529 256.381524 
L 172.111464 259.315507 
z
" clip-path="url(#p2548a7da66)" style="fill: #fff2ec; fill-opacity: 0.7"/>
    <path d="M 183.417393 257.886132 
L 187.547915 254.785631 
L 194.683113 255.98761 
L 190.576502 255.108418 
z
" clip-path="url(#p2548a7da66)" style="fill: #fff3ed; fill-opacity: 0.7"/>
    <path d="M 201.877004 253.741258 
L 205.913167 253.909698 
L 213.088231 257.165119 
L 209.053703 260.843924 
z
" clip-path="url(#p2548a7da66)" style="fill: #fff2ec; fill-opacity: 0.7"/>
    <path d="M 94.752862 214.304046 
L 100.061967 233.090548 
L 107.256665 244.025989 
L 101.950229 222.534919 
z
" clip-path="url(#p2548a7da66)" style="fill: #fcb89e; fill-opacity: 0.7"/>
    <path d="M 80.372632 198.156449 
L 85.834652 216.360723 
L 92.871931 222.671791 
L 87.655423 208.60955 
z
" clip-path="url(#p2548a7da66)" style="fill: #fc8767; fill-opacity: 0.7"/>
    <path d="M 87.655423 208.60955 
L 92.871931 222.671791 
L 100.061967 233.090548 
L 94.752862 214.304046 
z
" clip-path="url(#p2548a7da66)" style="fill: #fc9e80; fill-opacity: 0.7"/>
    <path d="M 146.380614 242.196758 
L 150.90738 253.539453 
L 157.876857 250.209801 
L 153.523839 247.750944 
z
" clip-path="url(#p2548a7da66)" style="fill: #fee7db; fill-opacity: 0.7"/>
    <path d="M 172.111464 259.315507 
L 176.300529 256.381524 
L 183.417393 257.886132 
L 179.229171 255.203427 
z
" clip-path="url(#p2548a7da66)" style="fill: #fff2ec; fill-opacity: 0.7"/>
    <path d="M 101.950229 222.534919 
L 107.256665 244.025989 
L 114.28273 249.71274 
L 108.779621 218.922986 
z
" clip-path="url(#p2548a7da66)" style="fill: #fcc4ad; fill-opacity: 0.7"/>
    <path d="M 224.334191 252.277555 
L 228.463149 237.467295 
L 235.844885 232.718503 
L 231.825133 239.932708 
z
" clip-path="url(#p2548a7da66)" style="fill: #fdd4c2; fill-opacity: 0.7"/>
    <path d="M 209.053703 260.843924 
L 213.088231 257.165119 
L 220.320402 258.187436 
L 216.288431 263.358906 
z
" clip-path="url(#p2548a7da66)" style="fill: #fff5f0; fill-opacity: 0.7"/>
    <path d="M 190.576502 255.108418 
L 194.683113 255.98761 
L 201.877004 253.741258 
L 197.762065 262.026709 
z
" clip-path="url(#p2548a7da66)" style="fill: #fff0e8; fill-opacity: 0.7"/>
    <path d="M 127.916066 241.781409 
L 132.481613 246.57973 
L 139.500112 249.456366 
L 134.636985 228.476504 
z
" clip-path="url(#p2548a7da66)" style="fill: #fdd5c4; fill-opacity: 0.7"/>
    <path d="M 153.523839 247.750944 
L 157.876857 250.209801 
L 164.967265 252.977604 
L 160.666436 251.840923 
z
" clip-path="url(#p2548a7da66)" style="fill: #fee7db; fill-opacity: 0.7"/>
    <path d="M 220.320402 258.187436 
L 224.334191 252.277555 
L 231.825133 239.932708 
L 227.694889 252.792338 
z
" clip-path="url(#p2548a7da66)" style="fill: #fee7db; fill-opacity: 0.7"/>
    <path d="M 235.844885 232.718503 
L 239.796052 227.816479 
L 247.213978 224.424673 
L 243.218207 231.83592 
z
" clip-path="url(#p2548a7da66)" style="fill: #fcb296; fill-opacity: 0.7"/>
    <path d="M 160.666436 251.840923 
L 164.967265 252.977604 
L 172.111464 259.315507 
L 167.896585 263.789881 
z
" clip-path="url(#p2548a7da66)" style="fill: #ffeee7; fill-opacity: 0.7"/>
    <path d="M 197.762065 262.026709 
L 201.877004 253.741258 
L 209.053703 260.843924 
L 204.992498 263.406394 
z
" clip-path="url(#p2548a7da66)" style="fill: #fff2eb; fill-opacity: 0.7"/>
    <path d="M 108.779621 218.922986 
L 114.28273 249.71274 
L 120.964438 241.927646 
L 115.8235 220.568289 
z
" clip-path="url(#p2548a7da66)" style="fill: #fcb89e; fill-opacity: 0.7"/>
    <path d="M 179.229171 255.203427 
L 183.417393 257.886132 
L 190.576502 255.108418 
L 186.41802 251.671823 
z
" clip-path="url(#p2548a7da66)" style="fill: #fee9df; fill-opacity: 0.7"/>
    <path d="M 216.288431 263.358906 
L 220.320402 258.187436 
L 227.694889 252.792338 
L 223.659878 258.548306 
z
" clip-path="url(#p2548a7da66)" style="fill: #ffede5; fill-opacity: 0.7"/>
    <path d="M 243.218207 231.83592 
L 247.213978 224.424673 
L 254.270169 237.522166 
L 250.619507 231.989965 
z
" clip-path="url(#p2548a7da66)" style="fill: #fcb296; fill-opacity: 0.7"/>
    <path d="M 167.896585 263.789881 
L 172.111464 259.315507 
L 179.229171 255.203427 
L 175.009572 257.403646 
z
" clip-path="url(#p2548a7da66)" style="fill: #ffeee6; fill-opacity: 0.7"/>
    <path d="M 204.992498 263.406394 
L 209.053703 260.843924 
L 216.288431 263.358906 
L 212.262143 264.881957 
z
" clip-path="url(#p2548a7da66)" style="fill: #fff4ee; fill-opacity: 0.7"/>
    <path d="M 231.825133 239.932708 
L 235.844885 232.718503 
L 243.218207 231.83592 
L 239.281198 235.272671 
z
" clip-path="url(#p2548a7da66)" style="fill: #fcb99f; fill-opacity: 0.7"/>
    <path d="M 186.41802 251.671823 
L 190.576502 255.108418 
L 197.762065 262.026709 
L 193.636694 265.940482 
z
" clip-path="url(#p2548a7da66)" style="fill: #ffece3; fill-opacity: 0.7"/>
    <path d="M 134.636985 228.476504 
L 139.500112 249.456366 
L 146.380614 242.196758 
L 141.676458 226.021054 
z
" clip-path="url(#p2548a7da66)" style="fill: #fcbca2; fill-opacity: 0.7"/>
    <path d="M 193.636694 265.940482 
L 197.762065 262.026709 
L 204.992498 263.406394 
L 200.893827 265.792638 
z
" clip-path="url(#p2548a7da66)" style="fill: #fff3ed; fill-opacity: 0.7"/>
    <path d="M 227.694889 252.792338 
L 231.825133 239.932708 
L 239.281198 235.272671 
L 235.150352 247.330194 
z
" clip-path="url(#p2548a7da66)" style="fill: #fdcbb6; fill-opacity: 0.7"/>
    <path d="M 115.8235 220.568289 
L 120.964438 241.927646 
L 127.916066 241.781409 
L 122.652079 212.363278 
z
" clip-path="url(#p2548a7da66)" style="fill: #fca285; fill-opacity: 0.7"/>
    <path d="M 212.262143 264.881957 
L 216.288431 263.358906 
L 223.659878 258.548306 
L 219.613476 263.020729 
z
" clip-path="url(#p2548a7da66)" style="fill: #ffeee6; fill-opacity: 0.7"/>
    <path d="M 239.281198 235.272671 
L 243.218207 231.83592 
L 250.619507 231.989965 
L 246.60406 239.689594 
z
" clip-path="url(#p2548a7da66)" style="fill: #fcaf93; fill-opacity: 0.7"/>
    <path d="M 141.676458 226.021054 
L 146.380614 242.196758 
L 153.523839 247.750944 
L 148.89138 230.98505 
z
" clip-path="url(#p2548a7da66)" style="fill: #fcb499; fill-opacity: 0.7"/>
    <path d="M 175.009572 257.403646 
L 179.229171 255.203427 
L 186.41802 251.671823 
L 182.223736 258.101171 
z
" clip-path="url(#p2548a7da66)" style="fill: #fee3d6; fill-opacity: 0.7"/>
    <path d="M 200.893827 265.792638 
L 204.992498 263.406394 
L 212.262143 264.881957 
L 208.170841 269.35334 
z
" clip-path="url(#p2548a7da66)" style="fill: #fff1ea; fill-opacity: 0.7"/>
    <path d="M 223.659878 258.548306 
L 227.694889 252.792338 
L 235.150352 247.330194 
L 231.075033 255.682976 
z
" clip-path="url(#p2548a7da66)" style="fill: #fedfd0; fill-opacity: 0.7"/>
    <path d="M 156.191122 241.121647 
L 160.666436 251.840923 
L 167.896585 263.789881 
L 163.468312 249.963776 
z
" clip-path="url(#p2548a7da66)" style="fill: #fed9c9; fill-opacity: 0.7"/>
    <path d="M 163.468312 249.963776 
L 167.896585 263.789881 
L 175.009572 257.403646 
L 170.803377 267.48506 
z
" clip-path="url(#p2548a7da66)" style="fill: #fee7dc; fill-opacity: 0.7"/>
    <path d="M 148.89138 230.98505 
L 153.523839 247.750944 
L 160.666436 251.840923 
L 156.191122 241.121647 
z
" clip-path="url(#p2548a7da66)" style="fill: #fcc3ab; fill-opacity: 0.7"/>
    <path d="M 182.223736 258.101171 
L 186.41802 251.671823 
L 193.636694 265.940482 
L 189.480178 262.667787 
z
" clip-path="url(#p2548a7da66)" style="fill: #fee6da; fill-opacity: 0.7"/>
    <path d="M 235.150352 247.330194 
L 239.281198 235.272671 
L 246.60406 239.689594 
L 242.617311 245.095979 
z
" clip-path="url(#p2548a7da66)" style="fill: #fcbca2; fill-opacity: 0.7"/>
    <path d="M 170.803377 267.48506 
L 175.009572 257.403646 
L 182.223736 258.101171 
L 178.027238 270.633706 
z
" clip-path="url(#p2548a7da66)" style="fill: #feeae1; fill-opacity: 0.7"/>
    <path d="M 208.170841 269.35334 
L 212.262143 264.881957 
L 219.613476 263.020729 
L 215.46544 273.884487 
z
" clip-path="url(#p2548a7da66)" style="fill: #fff0e9; fill-opacity: 0.7"/>
    <path d="M 189.480178 262.667787 
L 193.636694 265.940482 
L 200.893827 265.792638 
L 196.76993 263.945988 
z
" clip-path="url(#p2548a7da66)" style="fill: #ffebe2; fill-opacity: 0.7"/>
    <path d="M 219.613476 263.020729 
L 223.659878 258.548306 
L 231.075033 255.682976 
L 226.961426 265.266149 
z
" clip-path="url(#p2548a7da66)" style="fill: #fee6da; fill-opacity: 0.7"/>
    <path d="M 231.075033 255.682976 
L 235.150352 247.330194 
L 242.617311 245.095979 
L 238.338858 263.710457 
z
" clip-path="url(#p2548a7da66)" style="fill: #fdd5c4; fill-opacity: 0.7"/>
    <path d="M 122.652079 212.363278 
L 127.916066 241.781409 
L 134.636985 228.476504 
L 129.628631 206.607531 
z
" clip-path="url(#p2548a7da66)" style="fill: #fc8060; fill-opacity: 0.7"/>
    <path d="M 196.76993 263.945988 
L 200.893827 265.792638 
L 208.170841 269.35334 
L 204.068881 270.347637 
z
" clip-path="url(#p2548a7da66)" style="fill: #ffece4; fill-opacity: 0.7"/>
    <path d="M 178.027238 270.633706 
L 182.223736 258.101171 
L 189.480178 262.667787 
L 185.274789 268.265452 
z
" clip-path="url(#p2548a7da66)" style="fill: #fee8de; fill-opacity: 0.7"/>
    <path d="M 226.961426 265.266149 
L 231.075033 255.682976 
L 238.338858 263.710457 
L 234.409589 264.037236 
z
" clip-path="url(#p2548a7da66)" style="fill: #fee4d8; fill-opacity: 0.7"/>
    <path d="M 215.46544 273.884487 
L 219.613476 263.020729 
L 226.961426 265.266149 
L 222.898455 270.056301 
z
" clip-path="url(#p2548a7da66)" style="fill: #ffece4; fill-opacity: 0.7"/>
    <path d="M 204.068881 270.347637 
L 208.170841 269.35334 
L 215.46544 273.884487 
L 211.379266 276.795139 
z
" clip-path="url(#p2548a7da66)" style="fill: #fff2ec; fill-opacity: 0.7"/>
    <path d="M 185.274789 268.265452 
L 189.480178 262.667787 
L 196.76993 263.945988 
L 192.571602 273.671981 
z
" clip-path="url(#p2548a7da66)" style="fill: #fee8de; fill-opacity: 0.7"/>
    <path d="M 166.346048 250.371364 
L 170.803377 267.48506 
L 178.027238 270.633706 
L 173.662735 255.323548 
z
" clip-path="url(#p2548a7da66)" style="fill: #fedbcc; fill-opacity: 0.7"/>
    <path d="M 222.898455 270.056301 
L 226.961426 265.266149 
L 234.409589 264.037236 
L 230.340709 269.997494 
z
" clip-path="url(#p2548a7da66)" style="fill: #fee7db; fill-opacity: 0.7"/>
    <path d="M 192.571602 273.671981 
L 196.76993 263.945988 
L 204.068881 270.347637 
L 199.90373 275.300468 
z
" clip-path="url(#p2548a7da66)" style="fill: #ffebe2; fill-opacity: 0.7"/>
    <path d="M 211.379266 276.795139 
L 215.46544 273.884487 
L 222.898455 270.056301 
L 218.910897 266.109467 
z
" clip-path="url(#p2548a7da66)" style="fill: #ffece3; fill-opacity: 0.7"/>
    <path d="M 158.885048 231.16947 
L 163.468312 249.963776 
L 170.803377 267.48506 
L 166.346048 250.371364 
z
" clip-path="url(#p2548a7da66)" style="fill: #fcbda4; fill-opacity: 0.7"/>
    <path d="M 129.628631 206.607531 
L 134.636985 228.476504 
L 141.676458 226.021054 
L 136.701661 201.710639 
z
" clip-path="url(#p2548a7da66)" style="fill: #f85d42; fill-opacity: 0.7"/>
    <path d="M 199.90373 275.300468 
L 204.068881 270.347637 
L 211.379266 276.795139 
L 207.241469 281.469451 
z
" clip-path="url(#p2548a7da66)" style="fill: #fff1ea; fill-opacity: 0.7"/>
    <path d="M 173.662735 255.323548 
L 178.027238 270.633706 
L 185.274789 268.265452 
L 181.001207 260.729605 
z
" clip-path="url(#p2548a7da66)" style="fill: #fedecf; fill-opacity: 0.7"/>
    <path d="M 151.418972 215.862517 
L 156.191122 241.121647 
L 163.468312 249.963776 
L 158.885048 231.16947 
z
" clip-path="url(#p2548a7da66)" style="fill: #fc8d6d; fill-opacity: 0.7"/>
    <path d="M 181.001207 260.729605 
L 185.274789 268.265452 
L 192.571602 273.671981 
L 188.357669 266.91006 
z
" clip-path="url(#p2548a7da66)" style="fill: #fee1d4; fill-opacity: 0.7"/>
    <path d="M 207.241469 281.469451 
L 211.379266 276.795139 
L 218.910897 266.109467 
L 214.641081 283.083656 
z
" clip-path="url(#p2548a7da66)" style="fill: #ffeee6; fill-opacity: 0.7"/>
    <path d="M 136.701661 201.710639 
L 141.676458 226.021054 
L 148.89138 230.98505 
L 143.929107 201.409308 
z
" clip-path="url(#p2548a7da66)" style="fill: #f4503a; fill-opacity: 0.7"/>
    <path d="M 143.929107 201.409308 
L 148.89138 230.98505 
L 156.191122 241.121647 
L 151.418972 215.862517 
z
" clip-path="url(#p2548a7da66)" style="fill: #fa6648; fill-opacity: 0.7"/>
    <path d="M 218.910897 266.109467 
L 222.898455 270.056301 
L 230.340709 269.997494 
L 226.375404 267.333409 
z
" clip-path="url(#p2548a7da66)" style="fill: #fee1d3; fill-opacity: 0.7"/>
    <path d="M 188.357669 266.91006 
L 192.571602 273.671981 
L 199.90373 275.300468 
L 195.753209 264.587185 
z
" clip-path="url(#p2548a7da66)" style="fill: #fee2d5; fill-opacity: 0.7"/>
    <path d="M 195.753209 264.587185 
L 199.90373 275.300468 
L 207.241469 281.469451 
L 203.191895 265.807994 
z
" clip-path="url(#p2548a7da66)" style="fill: #fee1d3; fill-opacity: 0.7"/>
    <path d="M 214.641081 283.083656 
L 218.910897 266.109467 
L 226.375404 267.333409 
L 222.156714 279.18227 
z
" clip-path="url(#p2548a7da66)" style="fill: #fee3d7; fill-opacity: 0.7"/>
    <path d="M 203.191895 265.807994 
L 207.241469 281.469451 
L 214.641081 283.083656 
L 210.548123 281.130938 
z
" clip-path="url(#p2548a7da66)" style="fill: #fee8dd; fill-opacity: 0.7"/>
    <path d="M 210.548123 281.130938 
L 214.641081 283.083656 
L 222.156714 279.18227 
L 218.004877 284.645337 
z
" clip-path="url(#p2548a7da66)" style="fill: #ffebe2; fill-opacity: 0.7"/>
   </g>
  </g>
 </g>
 <defs>
  <clipPath id="p2548a7da66">
   <rect x="45.9" y="43.2" width="277.2" height="277.2"/>
  </clipPath>
 </defs>
</svg>
