<?xml version="1.0" encoding="utf-8" standalone="no"?>
<!DOCTYPE svg PUBLIC "-//W3C//DTD SVG 1.1//EN"
  "http://www.w3.org/Graphics/SVG/1.1/DTD/svg11.dtd">
<svg xmlns:xlink="http://www.w3.org/1999/xlink" width="360pt" height="360pt" viewBox="0 0 360 360" xmlns="http://www.w3.org/2000/svg" version="1.1">
 <metadata>
  <rdf:RDF xmlns:dc="http://purl.org/dc/elements/1.1/" xmlns:cc="http://creativecommons.org/ns#" xmlns:rdf="http://www.w3.org/1999/02/22-rdf-syntax-ns#">
   <cc:Work>
    <dc:type rdf:resource="http://purl.org/dc/dcmitype/StillImage"/>
    <dc:date>2022-11-15T22:54:08.378137</dc:date>
    <dc:format>image/svg+xml</dc:format>
    <dc:creator>
     <cc:Agent>
      <dc:title>Matplotlib v3.5.3, https://matplotlib.org/</dc:title>
     </cc:Agent>
    </dc:creator>
   </cc:Work>
  </rdf:RDF>
 </metadata>
 <defs>
  <style type="text/css">*{stroke-linejoin: round; stroke-linecap: butt}</style>
 </defs>
 <g id="figure_1">
  <g id="patch_1">
   <path d="M 0 360 
L 360 360 
L 360 0 
L 0 0 
z
" style="fill: #ffffff"/>
  </g>
  <g id="patch_2">
   <path d="M 45.9 320.4 
L 323.1 320.4 
L 323.1 43.2 
L 45.9 43.2 
z
" style="fill: #ffffff"/>
  </g>
  <g id="pane3d_1">
   <g id="patch_3">
    <path d="M 66.830512 252.051364 
L 158.371005 175.320307 
L 157.098504 64.660407 
L 61.177327 134.659314 
" style="fill: #f2f2f2; opacity: 0.5; stroke: #f2f2f2; stroke-linejoin: miter"/>
   </g>
  </g>
  <g id="pane3d_2">
   <g id="patch_4">
    <path d="M 158.371005 175.320307 
L 305.260834 218.015381 
L 310.502814 103.543928 
L 157.098504 64.660407 
" style="fill: #e6e6e6; opacity: 0.5; stroke: #e6e6e6; stroke-linejoin: miter"/>
   </g>
  </g>
  <g id="pane3d_3">
   <g id="patch_5">
    <path d="M 66.830512 252.051364 
L 222.540905 302.906378 
L 305.260834 218.015381 
L 158.371005 175.320307 
" style="fill: #ececec; opacity: 0.5; stroke: #ececec; stroke-linejoin: miter"/>
   </g>
  </g>
  <g id="axis3d_1">
   <g id="line2d_1">
    <path d="M 66.830512 252.051364 
L 222.540905 302.906378 
" style="fill: none; stroke: #000000; stroke-width: 0.8; stroke-linecap: square"/>
   </g>
   <g id="Line3DCollection_1">
    <path d="M 89.295647 259.388477 
L 179.643744 181.503453 
L 179.2746 70.281401 
" style="fill: none; stroke: #b0b0b0; stroke-width: 0.8"/>
    <path d="M 115.721231 268.019072 
L 204.632006 188.766554 
L 205.341311 76.888553 
" style="fill: none; stroke: #b0b0b0; stroke-width: 0.8"/>
    <path d="M 142.63321 276.808525 
L 230.041717 196.152154 
L 231.86686 83.612006 
" style="fill: none; stroke: #b0b0b0; stroke-width: 0.8"/>
    <path d="M 170.045136 285.76126 
L 255.883631 203.663378 
L 258.863468 90.454859 
" style="fill: none; stroke: #b0b0b0; stroke-width: 0.8"/>
    <path d="M 197.971073 294.881871 
L 282.16887 211.303459 
L 286.343796 97.420321 
" style="fill: none; stroke: #b0b0b0; stroke-width: 0.8"/>
   </g>
   <g id="xtick_1">
    <g id="line2d_2">
     <path d="M 90.082682 258.710009 
L 87.718184 260.748336 
" style="fill: none; stroke: #000000; stroke-width: 0.8; stroke-linecap: square"/>
    </g>
    <g id="text_1">
     <!-- −2 -->
     <g transform="translate(74.409205 282.781779)scale(0.1 -0.1)">
      <defs>
       <path id="DejaVuSans-2212" d="M 678 2272 
L 4684 2272 
L 4684 1741 
L 678 1741 
L 678 2272 
z
" transform="scale(0.015625)"/>
       <path id="DejaVuSans-32" d="M 1228 531 
L 3431 531 
L 3431 0 
L 469 0 
L 469 531 
Q 828 903 1448 1529 
Q 2069 2156 2228 2338 
Q 2531 2678 2651 2914 
Q 2772 3150 2772 3378 
Q 2772 3750 2511 3984 
Q 2250 4219 1831 4219 
Q 1534 4219 1204 4116 
Q 875 4013 500 3803 
L 500 4441 
Q 881 4594 1212 4672 
Q 1544 4750 1819 4750 
Q 2544 4750 2975 4387 
Q 3406 4025 3406 3419 
Q 3406 3131 3298 2873 
Q 3191 2616 2906 2266 
Q 2828 2175 2409 1742 
Q 1991 1309 1228 531 
z
" transform="scale(0.015625)"/>
      </defs>
      <use xlink:href="#DejaVuSans-2212"/>
      <use xlink:href="#DejaVuSans-32" x="83.789062"/>
     </g>
    </g>
   </g>
   <g id="xtick_2">
    <g id="line2d_3">
     <path d="M 116.496322 267.328179 
L 114.167679 269.403864 
" style="fill: none; stroke: #000000; stroke-width: 0.8; stroke-linecap: square"/>
    </g>
    <g id="text_2">
     <!-- −1 -->
     <g transform="translate(100.86159 291.588149)scale(0.1 -0.1)">
      <defs>
       <path id="DejaVuSans-31" d="M 794 531 
L 1825 531 
L 1825 4091 
L 703 3866 
L 703 4441 
L 1819 4666 
L 2450 4666 
L 2450 531 
L 3481 531 
L 3481 0 
L 794 0 
L 794 531 
z
" transform="scale(0.015625)"/>
      </defs>
      <use xlink:href="#DejaVuSans-2212"/>
      <use xlink:href="#DejaVuSans-31" x="83.789062"/>
     </g>
    </g>
   </g>
   <g id="xtick_3">
    <g id="line2d_4">
     <path d="M 143.395781 276.104861 
L 141.10472 278.218942 
" style="fill: none; stroke: #000000; stroke-width: 0.8; stroke-linecap: square"/>
    </g>
    <g id="text_3">
     <!-- 0 -->
     <g transform="translate(131.992483 300.557202)scale(0.1 -0.1)">
      <defs>
       <path id="DejaVuSans-30" d="M 2034 4250 
Q 1547 4250 1301 3770 
Q 1056 3291 1056 2328 
Q 1056 1369 1301 889 
Q 1547 409 2034 409 
Q 2525 409 2770 889 
Q 3016 1369 3016 2328 
Q 3016 3291 2770 3770 
Q 2525 4250 2034 4250 
z
M 2034 4750 
Q 2819 4750 3233 4129 
Q 3647 3509 3647 2328 
Q 3647 1150 3233 529 
Q 2819 -91 2034 -91 
Q 1250 -91 836 529 
Q 422 1150 422 2328 
Q 422 3509 836 4129 
Q 1250 4750 2034 4750 
z
" transform="scale(0.015625)"/>
      </defs>
      <use xlink:href="#DejaVuSans-30"/>
     </g>
    </g>
   </g>
   <g id="xtick_4">
    <g id="line2d_5">
     <path d="M 170.794587 285.044468 
L 168.542914 287.198019 
" style="fill: none; stroke: #000000; stroke-width: 0.8; stroke-linecap: square"/>
    </g>
    <g id="text_4">
     <!-- 1 -->
     <g transform="translate(159.435865 309.693489)scale(0.1 -0.1)">
      <use xlink:href="#DejaVuSans-31"/>
     </g>
    </g>
   </g>
   <g id="xtick_5">
    <g id="line2d_6">
     <path d="M 198.706776 294.15158 
L 196.496377 296.345718 
" style="fill: none; stroke: #000000; stroke-width: 0.8; stroke-linecap: square"/>
    </g>
    <g id="text_5">
     <!-- 2 -->
     <g transform="translate(187.39576 319.00173)scale(0.1 -0.1)">
      <use xlink:href="#DejaVuSans-32"/>
     </g>
    </g>
   </g>
  </g>
  <g id="axis3d_2">
   <g id="line2d_7">
    <path d="M 305.260834 218.015381 
L 222.540905 302.906378 
" style="fill: none; stroke: #000000; stroke-width: 0.8; stroke-linecap: square"/>
   </g>
   <g id="Line3DCollection_2">
    <path d="M 76.781389 123.272179 
L 81.674657 239.608707 
L 236.004406 289.089513 
" style="fill: none; stroke: #b0b0b0; stroke-width: 0.8"/>
    <path d="M 94.298573 110.488937 
L 98.360589 225.622227 
L 251.115362 273.581956 
" style="fill: none; stroke: #b0b0b0; stroke-width: 0.8"/>
    <path d="M 111.271645 98.102762 
L 114.550307 212.051685 
L 265.753695 258.559425 
" style="fill: none; stroke: #b0b0b0; stroke-width: 0.8"/>
    <path d="M 127.72557 86.095437 
L 130.265621 198.878797 
L 279.941236 243.999517 
" style="fill: none; stroke: #b0b0b0; stroke-width: 0.8"/>
    <path d="M 143.683806 74.449843 
L 145.527081 186.086339 
L 293.698494 229.881186 
" style="fill: none; stroke: #b0b0b0; stroke-width: 0.8"/>
   </g>
   <g id="xtick_6">
    <g id="line2d_8">
     <path d="M 234.704397 288.672708 
L 238.607761 289.924194 
" style="fill: none; stroke: #000000; stroke-width: 0.8; stroke-linecap: square"/>
    </g>
    <g id="text_6">
     <!-- −2 -->
     <g transform="translate(241.414026 309.997986)scale(0.1 -0.1)">
      <use xlink:href="#DejaVuSans-2212"/>
      <use xlink:href="#DejaVuSans-32" x="83.789062"/>
     </g>
    </g>
   </g>
   <g id="xtick_7">
    <g id="line2d_9">
     <path d="M 249.829647 273.178285 
L 253.690038 274.390315 
" style="fill: none; stroke: #000000; stroke-width: 0.8; stroke-linecap: square"/>
    </g>
    <g id="text_7">
     <!-- −1 -->
     <g transform="translate(256.330301 294.270153)scale(0.1 -0.1)">
      <use xlink:href="#DejaVuSans-2212"/>
      <use xlink:href="#DejaVuSans-31" x="83.789062"/>
     </g>
    </g>
   </g>
   <g id="xtick_8">
    <g id="line2d_10">
     <path d="M 264.482022 258.168279 
L 268.300199 259.342689 
" style="fill: none; stroke: #000000; stroke-width: 0.8; stroke-linecap: square"/>
    </g>
    <g id="text_8">
     <!-- 0 -->
     <g transform="translate(274.969628 279.034509)scale(0.1 -0.1)">
      <use xlink:href="#DejaVuSans-30"/>
     </g>
    </g>
   </g>
   <g id="xtick_9">
    <g id="line2d_11">
     <path d="M 278.683358 243.620322 
L 282.460069 244.758837 
" style="fill: none; stroke: #000000; stroke-width: 0.8; stroke-linecap: square"/>
    </g>
    <g id="text_9">
     <!-- 1 -->
     <g transform="translate(288.973894 264.268306)scale(0.1 -0.1)">
      <use xlink:href="#DejaVuSans-31"/>
     </g>
    </g>
   </g>
   <g id="xtick_10">
    <g id="line2d_12">
     <path d="M 292.454165 229.513401 
L 296.190151 230.617642 
" style="fill: none; stroke: #000000; stroke-width: 0.8; stroke-linecap: square"/>
    </g>
    <g id="text_10">
     <!-- 2 -->
     <g transform="translate(302.553208 249.950176)scale(0.1 -0.1)">
      <use xlink:href="#DejaVuSans-32"/>
     </g>
    </g>
   </g>
  </g>
  <g id="axis3d_3">
   <g id="line2d_13">
    <path d="M 305.260834 218.015381 
L 310.502814 103.543928 
" style="fill: none; stroke: #000000; stroke-width: 0.8; stroke-linecap: square"/>
   </g>
   <g id="Line3DCollection_3">
    <path d="M 305.963452 202.672005 
L 158.200131 160.460682 
L 66.073883 236.33948 
" style="fill: none; stroke: #b0b0b0; stroke-width: 0.8"/>
    <path d="M 306.596692 188.843646 
L 158.046212 147.075518 
L 65.391672 222.172919 
" style="fill: none; stroke: #b0b0b0; stroke-width: 0.8"/>
    <path d="M 307.236783 174.865709 
L 157.890708 133.552509 
L 64.701799 207.847258 
" style="fill: none; stroke: #b0b0b0; stroke-width: 0.8"/>
    <path d="M 307.883834 160.735752 
L 157.733595 119.889514 
L 64.004134 193.3598 
" style="fill: none; stroke: #b0b0b0; stroke-width: 0.8"/>
    <path d="M 308.537962 146.451282 
L 157.574846 106.084348 
L 63.298545 178.707788 
" style="fill: none; stroke: #b0b0b0; stroke-width: 0.8"/>
    <path d="M 309.199281 132.009752 
L 157.414437 92.134782 
L 62.584896 163.888404 
" style="fill: none; stroke: #b0b0b0; stroke-width: 0.8"/>
    <path d="M 309.867913 117.408555 
L 157.252342 78.038537 
L 61.863048 148.898763 
" style="fill: none; stroke: #b0b0b0; stroke-width: 0.8"/>
   </g>
   <g id="xtick_11">
    <g id="line2d_14">
     <path d="M 304.722962 202.317636 
L 308.447399 203.38159 
" style="fill: none; stroke: #000000; stroke-width: 0.8; stroke-linecap: square"/>
    </g>
    <g id="text_11">
     <!-- −1.0 -->
     <g transform="translate(312.180109 207.693966)scale(0.1 -0.1)">
      <defs>
       <path id="DejaVuSans-2e" d="M 684 794 
L 1344 794 
L 1344 0 
L 684 0 
L 684 794 
z
" transform="scale(0.015625)"/>
      </defs>
      <use xlink:href="#DejaVuSans-2212"/>
      <use xlink:href="#DejaVuSans-31" x="83.789062"/>
      <use xlink:href="#DejaVuSans-2e" x="147.412109"/>
      <use xlink:href="#DejaVuSans-30" x="179.199219"/>
     </g>
    </g>
   </g>
   <g id="xtick_12">
    <g id="line2d_15">
     <path d="M 305.349279 188.492909 
L 309.09452 189.545964 
" style="fill: none; stroke: #000000; stroke-width: 0.8; stroke-linecap: square"/>
    </g>
    <g id="text_12">
     <!-- −0.8 -->
     <g transform="translate(312.909972 193.892049)scale(0.1 -0.1)">
      <defs>
       <path id="DejaVuSans-38" d="M 2034 2216 
Q 1584 2216 1326 1975 
Q 1069 1734 1069 1313 
Q 1069 891 1326 650 
Q 1584 409 2034 409 
Q 2484 409 2743 651 
Q 3003 894 3003 1313 
Q 3003 1734 2745 1975 
Q 2488 2216 2034 2216 
z
M 1403 2484 
Q 997 2584 770 2862 
Q 544 3141 544 3541 
Q 544 4100 942 4425 
Q 1341 4750 2034 4750 
Q 2731 4750 3128 4425 
Q 3525 4100 3525 3541 
Q 3525 3141 3298 2862 
Q 3072 2584 2669 2484 
Q 3125 2378 3379 2068 
Q 3634 1759 3634 1313 
Q 3634 634 3220 271 
Q 2806 -91 2034 -91 
Q 1263 -91 848 271 
Q 434 634 434 1313 
Q 434 1759 690 2068 
Q 947 2378 1403 2484 
z
M 1172 3481 
Q 1172 3119 1398 2916 
Q 1625 2713 2034 2713 
Q 2441 2713 2670 2916 
Q 2900 3119 2900 3481 
Q 2900 3844 2670 4047 
Q 2441 4250 2034 4250 
Q 1625 4250 1398 4047 
Q 1172 3844 1172 3481 
z
" transform="scale(0.015625)"/>
      </defs>
      <use xlink:href="#DejaVuSans-2212"/>
      <use xlink:href="#DejaVuSans-30" x="83.789062"/>
      <use xlink:href="#DejaVuSans-2e" x="147.412109"/>
      <use xlink:href="#DejaVuSans-38" x="179.199219"/>
     </g>
    </g>
   </g>
   <g id="xtick_13">
    <g id="line2d_16">
     <path d="M 305.982368 174.518703 
L 309.748647 175.560559 
" style="fill: none; stroke: #000000; stroke-width: 0.8; stroke-linecap: square"/>
    </g>
    <g id="text_13">
     <!-- −0.6 -->
     <g transform="translate(313.647708 179.941275)scale(0.1 -0.1)">
      <defs>
       <path id="DejaVuSans-36" d="M 2113 2584 
Q 1688 2584 1439 2293 
Q 1191 2003 1191 1497 
Q 1191 994 1439 701 
Q 1688 409 2113 409 
Q 2538 409 2786 701 
Q 3034 994 3034 1497 
Q 3034 2003 2786 2293 
Q 2538 2584 2113 2584 
z
M 3366 4563 
L 3366 3988 
Q 3128 4100 2886 4159 
Q 2644 4219 2406 4219 
Q 1781 4219 1451 3797 
Q 1122 3375 1075 2522 
Q 1259 2794 1537 2939 
Q 1816 3084 2150 3084 
Q 2853 3084 3261 2657 
Q 3669 2231 3669 1497 
Q 3669 778 3244 343 
Q 2819 -91 2113 -91 
Q 1303 -91 875 529 
Q 447 1150 447 2328 
Q 447 3434 972 4092 
Q 1497 4750 2381 4750 
Q 2619 4750 2861 4703 
Q 3103 4656 3366 4563 
z
" transform="scale(0.015625)"/>
      </defs>
      <use xlink:href="#DejaVuSans-2212"/>
      <use xlink:href="#DejaVuSans-30" x="83.789062"/>
      <use xlink:href="#DejaVuSans-2e" x="147.412109"/>
      <use xlink:href="#DejaVuSans-36" x="179.199219"/>
     </g>
    </g>
   </g>
   <g id="xtick_14">
    <g id="line2d_17">
     <path d="M 306.622339 160.39258 
L 310.409893 161.42293 
" style="fill: none; stroke: #000000; stroke-width: 0.8; stroke-linecap: square"/>
    </g>
    <g id="text_14">
     <!-- −0.4 -->
     <g transform="translate(314.393443 165.839223)scale(0.1 -0.1)">
      <defs>
       <path id="DejaVuSans-34" d="M 2419 4116 
L 825 1625 
L 2419 1625 
L 2419 4116 
z
M 2253 4666 
L 3047 4666 
L 3047 1625 
L 3713 1625 
L 3713 1100 
L 3047 1100 
L 3047 0 
L 2419 0 
L 2419 1100 
L 313 1100 
L 313 1709 
L 2253 4666 
z
" transform="scale(0.015625)"/>
      </defs>
      <use xlink:href="#DejaVuSans-2212"/>
      <use xlink:href="#DejaVuSans-30" x="83.789062"/>
      <use xlink:href="#DejaVuSans-2e" x="147.412109"/>
      <use xlink:href="#DejaVuSans-34" x="179.199219"/>
     </g>
    </g>
   </g>
   <g id="xtick_15">
    <g id="line2d_18">
     <path d="M 307.269306 146.112049 
L 311.078376 147.130579 
" style="fill: none; stroke: #000000; stroke-width: 0.8; stroke-linecap: square"/>
    </g>
    <g id="text_15">
     <!-- −0.2 -->
     <g transform="translate(315.147308 151.583421)scale(0.1 -0.1)">
      <use xlink:href="#DejaVuSans-2212"/>
      <use xlink:href="#DejaVuSans-30" x="83.789062"/>
      <use xlink:href="#DejaVuSans-2e" x="147.412109"/>
      <use xlink:href="#DejaVuSans-32" x="179.199219"/>
     </g>
    </g>
   </g>
   <g id="xtick_16">
    <g id="line2d_19">
     <path d="M 307.923383 131.674564 
L 311.754215 132.680951 
" style="fill: none; stroke: #000000; stroke-width: 0.8; stroke-linecap: square"/>
    </g>
    <g id="text_16">
     <!-- 0.0 -->
     <g transform="translate(320.099282 137.171339)scale(0.1 -0.1)">
      <use xlink:href="#DejaVuSans-30"/>
      <use xlink:href="#DejaVuSans-2e" x="63.623047"/>
      <use xlink:href="#DejaVuSans-30" x="95.410156"/>
     </g>
    </g>
   </g>
   <g id="xtick_17">
    <g id="line2d_20">
     <path d="M 308.584689 117.077524 
L 312.437533 118.071436 
" style="fill: none; stroke: #000000; stroke-width: 0.8; stroke-linecap: square"/>
    </g>
    <g id="text_17">
     <!-- 0.2 -->
     <g transform="translate(320.869812 122.600393)scale(0.1 -0.1)">
      <use xlink:href="#DejaVuSans-30"/>
      <use xlink:href="#DejaVuSans-2e" x="63.623047"/>
      <use xlink:href="#DejaVuSans-32" x="95.410156"/>
     </g>
    </g>
   </g>
  </g>
  <g id="axes_1">
   <g id="Poly3DCollection_1">
    <path d="M 157.656546 150.874368 
L 161.570103 144.25499 
L 168.095589 136.449363 
L 164.196608 145.383529 
z
" clip-path="url(#p14b0634053)" style="fill: #0c3048"/>
    <path d="M 153.704736 156.14491 
L 157.656546 150.874368 
L 164.196608 145.383529 
L 160.271183 153.107097 
z
" clip-path="url(#p14b0634053)" style="fill: #0d334d"/>
    <path d="M 149.699711 159.498455 
L 153.704736 156.14491 
L 160.271183 153.107097 
L 156.306277 159.027978 
z
" clip-path="url(#p14b0634053)" style="fill: #0f3955"/>
    <path d="M 164.196608 145.383529 
L 168.095589 136.449363 
L 174.689488 126.77399 
L 170.790647 137.979701 
z
" clip-path="url(#p14b0634053)" style="fill: #0c2c43"/>
    <path d="M 160.271183 153.107097 
L 164.196608 145.383529 
L 170.790647 137.979701 
L 166.881466 148.753365 
z
" clip-path="url(#p14b0634053)" style="fill: #0c2f47"/>
    <path d="M 156.306277 159.027978 
L 160.271183 153.107097 
L 166.881466 148.753365 
L 162.952693 158.354516 
z
" clip-path="url(#p14b0634053)" style="fill: #0d344e"/>
    <path d="M 145.614993 159.886893 
L 149.699711 159.498455 
L 156.306277 159.027978 
L 152.27973 162.167921 
z
" clip-path="url(#p14b0634053)" style="fill: #114162"/>
    <path d="M 204.476179 173.51602 
L 208.328796 165.181096 
L 215.037059 174.89451 
L 211.223717 180.629397 
z
" clip-path="url(#p14b0634053)" style="fill: #124568"/>
    <path d="M 211.223717 180.629397 
L 215.037059 174.89451 
L 221.789318 180.417833 
L 218.00843 184.817437 
z
" clip-path="url(#p14b0634053)" style="fill: #114263"/>
    <path d="M 197.749096 161.743851 
L 201.638957 149.875722 
L 208.328796 165.181096 
L 204.476179 173.51602 
z
" clip-path="url(#p14b0634053)" style="fill: #13496e"/>
    <path d="M 218.00843 184.817437 
L 221.789318 180.417833 
L 228.589047 183.653754 
L 224.83296 187.539975 
z
" clip-path="url(#p14b0634053)" style="fill: #114061"/>
    <path d="M 170.790647 137.979701 
L 174.689488 126.77399 
L 181.378004 119.595773 
L 177.46952 132.504443 
z
" clip-path="url(#p14b0634053)" style="fill: #0c2c43"/>
    <path d="M 152.27973 162.167921 
L 156.306277 159.027978 
L 162.952693 158.354516 
L 158.986526 165.692896 
z
" clip-path="url(#p14b0634053)" style="fill: #103c5b"/>
    <path d="M 166.881466 148.753365 
L 170.790647 137.979701 
L 177.46952 132.504443 
L 173.563703 146.226244 
z
" clip-path="url(#p14b0634053)" style="fill: #0c2e45"/>
    <path d="M 200.613217 180.857522 
L 204.476179 173.51602 
L 211.223717 180.629397 
L 207.392922 185.672996 
z
" clip-path="url(#p14b0634053)" style="fill: #114264"/>
    <path d="M 193.856205 172.780693 
L 197.749096 161.743851 
L 204.476179 173.51602 
L 200.613217 180.857522 
z
" clip-path="url(#p14b0634053)" style="fill: #124568"/>
    <path d="M 162.952693 158.354516 
L 166.881466 148.753365 
L 173.563703 146.226244 
L 169.657878 159.866304 
z
" clip-path="url(#p14b0634053)" style="fill: #0d314b"/>
    <path d="M 207.392922 185.672996 
L 211.223717 180.629397 
L 218.00843 184.817437 
L 214.205546 188.784583 
z
" clip-path="url(#p14b0634053)" style="fill: #114162"/>
    <path d="M 191.004995 146.519609 
L 194.916065 132.262695 
L 201.638957 149.875722 
L 197.749096 161.743851 
z
" clip-path="url(#p14b0634053)" style="fill: #13496e"/>
    <path d="M 224.83296 187.539975 
L 228.589047 183.653754 
L 235.438322 185.494442 
L 231.699839 189.354241 
z
" clip-path="url(#p14b0634053)" style="fill: #103f5f"/>
    <path d="M 187.096197 161.12976 
L 191.004995 146.519609 
L 197.749096 161.743851 
L 193.856205 172.780693 
z
" clip-path="url(#p14b0634053)" style="fill: #124669"/>
    <path d="M 158.986526 165.692896 
L 162.952693 158.354516 
L 169.657878 159.866304 
L 165.739035 171.96301 
z
" clip-path="url(#p14b0634053)" style="fill: #0f3957"/>
    <path d="M 189.956761 182.555186 
L 193.856205 172.780693 
L 200.613217 180.857522 
L 196.73577 187.044311 
z
" clip-path="url(#p14b0634053)" style="fill: #114162"/>
    <path d="M 183.189431 175.130383 
L 187.096197 161.12976 
L 193.856205 172.780693 
L 189.956761 182.555186 
z
" clip-path="url(#p14b0634053)" style="fill: #114163"/>
    <path d="M 141.414242 156.093363 
L 145.614993 159.886893 
L 152.27973 162.167921 
L 148.160156 161.361273 
z
" clip-path="url(#p14b0634053)" style="fill: #144b72"/>
    <path d="M 165.739035 171.96301 
L 169.657878 159.866304 
L 176.416672 166.062596 
L 172.512578 180.386455 
z
" clip-path="url(#p14b0634053)" style="fill: #0f3b59"/>
    <path d="M 172.512578 180.386455 
L 176.416672 166.062596 
L 183.189431 175.130383 
L 179.277278 187.169051 
z
" clip-path="url(#p14b0634053)" style="fill: #103d5d"/>
    <path d="M 169.657878 159.866304 
L 173.563703 146.226244 
L 180.318685 150.259288 
L 176.416672 166.062596 
z
" clip-path="url(#p14b0634053)" style="fill: #0e3752"/>
    <path d="M 176.416672 166.062596 
L 180.318685 150.259288 
L 187.096197 161.12976 
L 183.189431 175.130383 
z
" clip-path="url(#p14b0634053)" style="fill: #103f5f"/>
    <path d="M 214.205546 188.784583 
L 218.00843 184.817437 
L 224.83296 187.539975 
L 221.052662 191.150254 
z
" clip-path="url(#p14b0634053)" style="fill: #114061"/>
    <path d="M 179.277278 187.169051 
L 183.189431 175.130383 
L 189.956761 182.555186 
L 186.044315 190.350127 
z
" clip-path="url(#p14b0634053)" style="fill: #103d5c"/>
    <path d="M 196.73577 187.044311 
L 200.613217 180.857522 
L 207.392922 185.672996 
L 203.542349 189.840287 
z
" clip-path="url(#p14b0634053)" style="fill: #114061"/>
    <path d="M 173.563703 146.226244 
L 177.46952 132.504443 
L 184.227925 134.746093 
L 180.318685 150.259288 
z
" clip-path="url(#p14b0634053)" style="fill: #0e344f"/>
    <path d="M 177.46952 132.504443 
L 181.378004 119.595773 
L 188.143036 120.586256 
L 184.227925 134.746093 
z
" clip-path="url(#p14b0634053)" style="fill: #0d334d"/>
    <path d="M 180.318685 150.259288 
L 184.227925 134.746093 
L 191.004995 146.519609 
L 187.096197 161.12976 
z
" clip-path="url(#p14b0634053)" style="fill: #114061"/>
    <path d="M 161.780634 180.622478 
L 165.739035 171.96301 
L 172.512578 180.386455 
L 168.582338 190.959195 
z
" clip-path="url(#p14b0634053)" style="fill: #114264"/>
    <path d="M 168.582338 190.959195 
L 172.512578 180.386455 
L 179.277278 187.169051 
L 175.342097 195.527182 
z
" clip-path="url(#p14b0634053)" style="fill: #103e5d"/>
    <path d="M 148.160156 161.361273 
L 152.27973 162.167921 
L 158.986526 165.692896 
L 154.955315 169.451953 
z
" clip-path="url(#p14b0634053)" style="fill: #13486d"/>
    <path d="M 184.227925 134.746093 
L 188.143036 120.586256 
L 194.916065 132.262695 
L 191.004995 146.519609 
z
" clip-path="url(#p14b0634053)" style="fill: #114163"/>
    <path d="M 154.955315 169.451953 
L 158.986526 165.692896 
L 165.739035 171.96301 
L 161.780634 180.622478 
z
" clip-path="url(#p14b0634053)" style="fill: #124669"/>
    <path d="M 231.699839 189.354241 
L 235.438322 185.494442 
L 242.352098 185.770364 
L 238.621615 190.004294 
z
" clip-path="url(#p14b0634053)" style="fill: #103c5b"/>
    <path d="M 186.044315 190.350127 
L 189.956761 182.555186 
L 196.73577 187.044311 
L 192.839297 191.541392 
z
" clip-path="url(#p14b0634053)" style="fill: #103d5d"/>
    <path d="M 203.542349 189.840287 
L 207.392922 185.672996 
L 214.205546 188.784583 
L 210.380425 192.076837 
z
" clip-path="url(#p14b0634053)" style="fill: #114061"/>
    <path d="M 175.342097 195.527182 
L 179.277278 187.169051 
L 186.044315 190.350127 
L 182.106857 195.015447 
z
" clip-path="url(#p14b0634053)" style="fill: #0f3a58"/>
    <path d="M 221.052662 191.150254 
L 224.83296 187.539975 
L 231.699839 189.354241 
L 227.936266 193.044504 
z
" clip-path="url(#p14b0634053)" style="fill: #103f5f"/>
    <path d="M 157.752243 184.64288 
L 161.780634 180.622478 
L 168.582338 190.959195 
L 164.593415 196.147287 
z
" clip-path="url(#p14b0634053)" style="fill: #144c72"/>
    <path d="M 164.593415 196.147287 
L 168.582338 190.959195 
L 175.342097 195.527182 
L 171.358191 198.913907 
z
" clip-path="url(#p14b0634053)" style="fill: #114162"/>
    <path d="M 192.839297 191.541392 
L 196.73577 187.044311 
L 203.542349 189.840287 
L 199.670221 192.557105 
z
" clip-path="url(#p14b0634053)" style="fill: #103f5f"/>
    <path d="M 210.380425 192.076837 
L 214.205546 188.784583 
L 221.052662 191.150254 
L 217.249381 194.22884 
z
" clip-path="url(#p14b0634053)" style="fill: #114061"/>
    <path d="M 238.621615 190.004294 
L 242.352098 185.770364 
L 249.372887 183.227502 
L 245.633613 188.336938 
z
" clip-path="url(#p14b0634053)" style="fill: #0f3855"/>
    <path d="M 150.836211 169.243543 
L 154.955315 169.451953 
L 161.780634 180.622478 
L 157.752243 184.64288 
z
" clip-path="url(#p14b0634053)" style="fill: #15527d"/>
    <path d="M 227.936266 193.044504 
L 231.699839 189.354241 
L 238.621615 190.004294 
L 234.865874 194.166535 
z
" clip-path="url(#p14b0634053)" style="fill: #103d5c"/>
    <path d="M 182.106857 195.015447 
L 186.044315 190.350127 
L 192.839297 191.541392 
L 188.916006 193.314711 
z
" clip-path="url(#p14b0634053)" style="fill: #103c5b"/>
    <path d="M 171.358191 198.913907 
L 175.342097 195.527182 
L 182.106857 195.015447 
L 178.125709 195.557297 
z
" clip-path="url(#p14b0634053)" style="fill: #103c5b"/>
    <path d="M 199.670221 192.557105 
L 203.542349 189.840287 
L 210.380425 192.076837 
L 206.53391 194.08894 
z
" clip-path="url(#p14b0634053)" style="fill: #114162"/>
    <path d="M 143.928191 156.605602 
L 148.160156 161.361273 
L 154.955315 169.451953 
L 150.836211 169.243543 
z
" clip-path="url(#p14b0634053)" style="fill: #16547f"/>
    <path d="M 217.249381 194.22884 
L 221.052662 191.150254 
L 227.936266 193.044504 
L 224.149607 196.337101 
z
" clip-path="url(#p14b0634053)" style="fill: #114061"/>
    <path d="M 137.079565 148.261121 
L 141.414242 156.093363 
L 148.160156 161.361273 
L 143.928191 156.605602 
z
" clip-path="url(#p14b0634053)" style="fill: #16547f"/>
    <path d="M 153.650703 185.459891 
L 157.752243 184.64288 
L 164.593415 196.147287 
L 160.531417 196.998826 
z
" clip-path="url(#p14b0634053)" style="fill: #15527b"/>
    <path d="M 160.531417 196.998826 
L 164.593415 196.147287 
L 171.358191 198.913907 
L 167.31008 198.337488 
z
" clip-path="url(#p14b0634053)" style="fill: #124568"/>
    <path d="M 234.865874 194.166535 
L 238.621615 190.004294 
L 245.633613 188.336938 
L 241.869235 193.49739 
z
" clip-path="url(#p14b0634053)" style="fill: #0f3957"/>
    <path d="M 188.916006 193.314711 
L 192.839297 191.541392 
L 199.670221 192.557105 
L 195.772654 192.74552 
z
" clip-path="url(#p14b0634053)" style="fill: #114162"/>
    <path d="M 206.53391 194.08894 
L 210.380425 192.076837 
L 217.249381 194.22884 
L 213.426032 196.189924 
z
" clip-path="url(#p14b0634053)" style="fill: #114264"/>
    <path d="M 224.149607 196.337101 
L 227.936266 193.044504 
L 234.865874 194.166535 
L 231.086949 198.088409 
z
" clip-path="url(#p14b0634053)" style="fill: #103e5e"/>
    <path d="M 245.633613 188.336938 
L 249.372887 183.227502 
L 256.57772 175.821868 
L 252.804022 182.388018 
z
" clip-path="url(#p14b0634053)" style="fill: #0d324c"/>
    <path d="M 146.646613 167.379121 
L 150.836211 169.243543 
L 157.752243 184.64288 
L 153.650703 185.459891 
z
" clip-path="url(#p14b0634053)" style="fill: #175986"/>
    <path d="M 178.125709 195.557297 
L 182.106857 195.015447 
L 188.916006 193.314711 
L 184.951636 191.36396 
z
" clip-path="url(#p14b0634053)" style="fill: #103f5f"/>
    <path d="M 213.426032 196.189924 
L 217.249381 194.22884 
L 224.149607 196.337101 
L 220.344188 198.708308 
z
" clip-path="url(#p14b0634053)" style="fill: #114264"/>
    <path d="M 195.772654 192.74552 
L 199.670221 192.557105 
L 206.53391 194.08894 
L 202.665883 193.722643 
z
" clip-path="url(#p14b0634053)" style="fill: #124467"/>
    <path d="M 167.31008 198.337488 
L 171.358191 198.913907 
L 178.125709 195.557297 
L 174.086353 192.930181 
z
" clip-path="url(#p14b0634053)" style="fill: #103e5e"/>
    <path d="M 231.086949 198.088409 
L 234.865874 194.166535 
L 241.869235 193.49739 
L 238.081215 198.624714 
z
" clip-path="url(#p14b0634053)" style="fill: #0f3b59"/>
    <path d="M 149.51442 186.701237 
L 153.650703 185.459891 
L 160.531417 196.998826 
L 156.420928 197.2193 
z
" clip-path="url(#p14b0634053)" style="fill: #15517a"/>
    <path d="M 241.869235 193.49739 
L 245.633613 188.336938 
L 252.804022 182.388018 
L 249.00389 189.227512 
z
" clip-path="url(#p14b0634053)" style="fill: #0d334e"/>
    <path d="M 139.618113 150.814183 
L 143.928191 156.605602 
L 150.836211 169.243543 
L 146.646613 167.379121 
z
" clip-path="url(#p14b0634053)" style="fill: #175a88"/>
    <path d="M 220.344188 198.708308 
L 224.149607 196.337101 
L 231.086949 198.088409 
L 227.28985 201.342403 
z
" clip-path="url(#p14b0634053)" style="fill: #114162"/>
    <path d="M 156.420928 197.2193 
L 160.531417 196.998826 
L 167.31008 198.337488 
L 163.213958 197.45983 
z
" clip-path="url(#p14b0634053)" style="fill: #124466"/>
    <path d="M 202.665883 193.722643 
L 206.53391 194.08894 
L 213.426032 196.189924 
L 209.5859 195.971982 
z
" clip-path="url(#p14b0634053)" style="fill: #124669"/>
    <path d="M 184.951636 191.36396 
L 188.916006 193.314711 
L 195.772654 192.74552 
L 191.839122 189.277663 
z
" clip-path="url(#p14b0634053)" style="fill: #124467"/>
    <path d="M 132.657274 139.55228 
L 137.079565 148.261121 
L 143.928191 156.605602 
L 139.618113 150.814183 
z
" clip-path="url(#p14b0634053)" style="fill: #175886"/>
    <path d="M 142.447648 167.832511 
L 146.646613 167.379121 
L 153.650703 185.459891 
L 149.51442 186.701237 
z
" clip-path="url(#p14b0634053)" style="fill: #175986"/>
    <path d="M 227.28985 201.342403 
L 231.086949 198.088409 
L 238.081215 198.624714 
L 234.274569 203.409402 
z
" clip-path="url(#p14b0634053)" style="fill: #103e5d"/>
    <path d="M 238.081215 198.624714 
L 241.869235 193.49739 
L 249.00389 189.227512 
L 245.178089 196.343991 
z
" clip-path="url(#p14b0634053)" style="fill: #0e3550"/>
    <path d="M 209.5859 195.971982 
L 213.426032 196.189924 
L 220.344188 198.708308 
L 216.526129 199.183464 
z
" clip-path="url(#p14b0634053)" style="fill: #12466a"/>
    <path d="M 252.804022 182.388018 
L 256.57772 175.821868 
L 264.019543 163.115577 
L 260.191918 171.307691 
z
" clip-path="url(#p14b0634053)" style="fill: #0c2e45"/>
    <path d="M 174.086353 192.930181 
L 178.125709 195.557297 
L 184.951636 191.36396 
L 180.93052 186.485586 
z
" clip-path="url(#p14b0634053)" style="fill: #114162"/>
    <path d="M 145.381377 190.570694 
L 149.51442 186.701237 
L 156.420928 197.2193 
L 152.297215 199.599231 
z
" clip-path="url(#p14b0634053)" style="fill: #144c73"/>
    <path d="M 191.839122 189.277663 
L 195.772654 192.74552 
L 202.665883 193.722643 
L 198.769988 189.745251 
z
" clip-path="url(#p14b0634053)" style="fill: #13496e"/>
    <path d="M 163.213958 197.45983 
L 167.31008 198.337488 
L 174.086353 192.930181 
L 169.998729 190.757654 
z
" clip-path="url(#p14b0634053)" style="fill: #103d5c"/>
    <path d="M 216.526129 199.183464 
L 220.344188 198.708308 
L 227.28985 201.342403 
L 223.48282 203.078194 
z
" clip-path="url(#p14b0634053)" style="fill: #124569"/>
    <path d="M 152.297215 199.599231 
L 156.420928 197.2193 
L 163.213958 197.45983 
L 159.101503 199.270773 
z
" clip-path="url(#p14b0634053)" style="fill: #103f5f"/>
    <path d="M 234.274569 203.409402 
L 238.081215 198.624714 
L 245.178089 196.343991 
L 241.331839 203.527493 
z
" clip-path="url(#p14b0634053)" style="fill: #0e3854"/>
    <path d="M 249.00389 189.227512 
L 252.804022 182.388018 
L 260.191918 171.307691 
L 256.329579 180.22666 
z
" clip-path="url(#p14b0634053)" style="fill: #0c2e46"/>
    <path d="M 135.311926 148.350134 
L 139.618113 150.814183 
L 146.646613 167.379121 
L 142.447648 167.832511 
z
" clip-path="url(#p14b0634053)" style="fill: #175a88"/>
    <path d="M 138.285352 172.451343 
L 142.447648 167.832511 
L 149.51442 186.701237 
L 145.381377 190.570694 
z
" clip-path="url(#p14b0634053)" style="fill: #165580"/>
    <path d="M 223.48282 203.078194 
L 227.28985 201.342403 
L 234.274569 203.409402 
L 230.459178 207.134436 
z
" clip-path="url(#p14b0634053)" style="fill: #114264"/>
    <path d="M 198.769988 189.745251 
L 202.665883 193.722643 
L 209.5859 195.971982 
L 205.727174 192.305681 
z
" clip-path="url(#p14b0634053)" style="fill: #144b72"/>
    <path d="M 245.178089 196.343991 
L 249.00389 189.227512 
L 256.329579 180.22666 
L 252.433982 189.927493 
z
" clip-path="url(#p14b0634053)" style="fill: #0c2f47"/>
    <path d="M 141.254641 196.563174 
L 145.381377 190.570694 
L 152.297215 199.599231 
L 148.170548 204.164517 
z
" clip-path="url(#p14b0634053)" style="fill: #12476b"/>
    <path d="M 180.93052 186.485586 
L 184.951636 191.36396 
L 191.839122 189.277663 
L 187.852122 182.671515 
z
" clip-path="url(#p14b0634053)" style="fill: #12476b"/>
    <path d="M 205.727174 192.305681 
L 209.5859 195.971982 
L 216.526129 199.183464 
L 212.698135 196.523562 
z
" clip-path="url(#p14b0634053)" style="fill: #144c73"/>
    <path d="M 230.459178 207.134436 
L 234.274569 203.409402 
L 241.331839 203.527493 
L 237.477612 210.127096 
z
" clip-path="url(#p14b0634053)" style="fill: #103c5b"/>
    <path d="M 128.240335 134.292416 
L 132.657274 139.55228 
L 139.618113 150.814183 
L 135.311926 148.350134 
z
" clip-path="url(#p14b0634053)" style="fill: #175885"/>
    <path d="M 148.170548 204.164517 
L 152.297215 199.599231 
L 159.101503 199.270773 
L 154.986551 203.887328 
z
" clip-path="url(#p14b0634053)" style="fill: #0f3b58"/>
    <path d="M 134.15699 180.1499 
L 138.285352 172.451343 
L 145.381377 190.570694 
L 141.254641 196.563174 
z
" clip-path="url(#p14b0634053)" style="fill: #15507a"/>
    <path d="M 159.101503 199.270773 
L 163.213958 197.45983 
L 169.998729 190.757654 
L 165.891967 192.248083 
z
" clip-path="url(#p14b0634053)" style="fill: #0e3754"/>
    <path d="M 241.331839 203.527493 
L 245.178089 196.343991 
L 252.433982 189.927493 
L 248.513284 200.195295 
z
" clip-path="url(#p14b0634053)" style="fill: #0d3149"/>
    <path d="M 169.998729 190.757654 
L 174.086353 192.930181 
L 180.93052 186.485586 
L 176.854193 182.341327 
z
" clip-path="url(#p14b0634053)" style="fill: #103e5d"/>
    <path d="M 212.698135 196.523562 
L 216.526129 199.183464 
L 223.48282 203.078194 
L 219.672848 202.129497 
z
" clip-path="url(#p14b0634053)" style="fill: #144c73"/>
    <path d="M 131.067705 151.171983 
L 135.311926 148.350134 
L 142.447648 167.832511 
L 138.285352 172.451343 
z
" clip-path="url(#p14b0634053)" style="fill: #175783"/>
    <path d="M 260.191918 171.307691 
L 264.019543 163.115577 
L 271.59057 149.896451 
L 267.715967 159.186626 
z
" clip-path="url(#p14b0634053)" style="fill: #0b2c43"/>
    <path d="M 137.114237 203.170164 
L 141.254641 196.563174 
L 148.170548 204.164517 
L 144.029334 209.651254 
z
" clip-path="url(#p14b0634053)" style="fill: #124467"/>
    <path d="M 219.672848 202.129497 
L 223.48282 203.078194 
L 230.459178 207.134436 
L 226.646585 208.6873 
z
" clip-path="url(#p14b0634053)" style="fill: #13496f"/>
    <path d="M 187.852122 182.671515 
L 191.839122 189.277663 
L 198.769988 189.745251 
L 194.828381 182.374185 
z
" clip-path="url(#p14b0634053)" style="fill: #144c74"/>
    <path d="M 237.477612 210.127096 
L 241.331839 203.527493 
L 248.513284 200.195295 
L 244.586913 210.248417 
z
" clip-path="url(#p14b0634053)" style="fill: #0e344f"/>
    <path d="M 130.031592 188.891336 
L 134.15699 180.1499 
L 141.254641 196.563174 
L 137.114237 203.170164 
z
" clip-path="url(#p14b0634053)" style="fill: #144d75"/>
    <path d="M 226.646585 208.6873 
L 230.459178 207.134436 
L 237.477612 210.127096 
L 233.633779 214.945194 
z
" clip-path="url(#p14b0634053)" style="fill: #124467"/>
    <path d="M 256.329579 180.22666 
L 260.191918 171.307691 
L 267.715967 159.186626 
L 263.789674 169.817632 
z
" clip-path="url(#p14b0634053)" style="fill: #0b2c42"/>
    <path d="M 144.029334 209.651254 
L 148.170548 204.164517 
L 154.986551 203.887328 
L 150.862042 209.922559 
z
" clip-path="url(#p14b0634053)" style="fill: #0f3957"/>
    <path d="M 154.986551 203.887328 
L 159.101503 199.270773 
L 165.891967 192.248083 
L 161.784948 197.595099 
z
" clip-path="url(#p14b0634053)" style="fill: #0d334d"/>
    <path d="M 126.887761 158.294199 
L 131.067705 151.171983 
L 138.285352 172.451343 
L 134.15699 180.1499 
z
" clip-path="url(#p14b0634053)" style="fill: #16547f"/>
    <path d="M 252.433982 189.927493 
L 256.329579 180.22666 
L 263.789674 169.817632 
L 259.81641 181.814932 
z
" clip-path="url(#p14b0634053)" style="fill: #0b2c42"/>
    <path d="M 132.933353 209.024947 
L 137.114237 203.170164 
L 144.029334 209.651254 
L 139.853474 214.779446 
z
" clip-path="url(#p14b0634053)" style="fill: #114365"/>
    <path d="M 194.828381 182.374185 
L 198.769988 189.745251 
L 205.727174 192.305681 
L 201.833572 185.162141 
z
" clip-path="url(#p14b0634053)" style="fill: #155079"/>
    <path d="M 233.633779 214.945194 
L 237.477612 210.127096 
L 244.586913 210.248417 
L 240.685428 218.544324 
z
" clip-path="url(#p14b0634053)" style="fill: #0f3b59"/>
    <path d="M 123.888661 134.286167 
L 128.240335 134.292416 
L 135.311926 148.350134 
L 131.067705 151.171983 
z
" clip-path="url(#p14b0634053)" style="fill: #165580"/>
    <path d="M 125.870435 196.872188 
L 130.031592 188.891336 
L 137.114237 203.170164 
L 132.933353 209.024947 
z
" clip-path="url(#p14b0634053)" style="fill: #144c72"/>
    <path d="M 248.513284 200.195295 
L 252.433982 189.927493 
L 259.81641 181.814932 
L 255.812449 194.773091 
z
" clip-path="url(#p14b0634053)" style="fill: #0c2d43"/>
    <path d="M 176.854193 182.341327 
L 180.93052 186.485586 
L 187.852122 182.671515 
L 183.802211 176.489873 
z
" clip-path="url(#p14b0634053)" style="fill: #124366"/>
    <path d="M 165.891967 192.248083 
L 169.998729 190.757654 
L 176.854193 182.341327 
L 172.747377 182.638276 
z
" clip-path="url(#p14b0634053)" style="fill: #0e3652"/>
    <path d="M 139.853474 214.779446 
L 144.029334 209.651254 
L 150.862042 209.922559 
L 146.711394 215.951661 
z
" clip-path="url(#p14b0634053)" style="fill: #0f3b59"/>
    <path d="M 201.833572 185.162141 
L 205.727174 192.305681 
L 212.698135 196.523562 
L 208.846999 190.51954 
z
" clip-path="url(#p14b0634053)" style="fill: #15527c"/>
    <path d="M 244.586913 210.248417 
L 248.513284 200.195295 
L 255.812449 194.773091 
L 251.810511 207.533661 
z
" clip-path="url(#p14b0634053)" style="fill: #0c2f46"/>
    <path d="M 122.742171 167.690036 
L 126.887761 158.294199 
L 134.15699 180.1499 
L 130.031592 188.891336 
z
" clip-path="url(#p14b0634053)" style="fill: #15527c"/>
    <path d="M 208.846999 190.51954 
L 212.698135 196.523562 
L 219.672848 202.129497 
L 215.851175 198.130018 
z
" clip-path="url(#p14b0634053)" style="fill: #15527d"/>
    <path d="M 150.862042 209.922559 
L 154.986551 203.887328 
L 161.784948 197.595099 
L 157.676759 205.192304 
z
" clip-path="url(#p14b0634053)" style="fill: #0d324c"/>
    <path d="M 215.851175 198.130018 
L 219.672848 202.129497 
L 226.646585 208.6873 
L 222.834707 207.464921 
z
" clip-path="url(#p14b0634053)" style="fill: #15517b"/>
    <path d="M 222.834707 207.464921 
L 226.646585 208.6873 
L 233.633779 214.945194 
L 229.809065 216.936581 
z
" clip-path="url(#p14b0634053)" style="fill: #144d75"/>
    <path d="M 240.685428 218.544324 
L 244.586913 210.248417 
L 251.810511 207.533661 
L 247.85723 218.059093 
z
" clip-path="url(#p14b0634053)" style="fill: #0d334d"/>
    <path d="M 267.715967 159.186626 
L 271.59057 149.896451 
L 279.060284 142.994614 
L 275.148202 153.188367 
z
" clip-path="url(#p14b0634053)" style="fill: #0c2e46"/>
    <path d="M 128.677281 212.817233 
L 132.933353 209.024947 
L 139.853474 214.779446 
L 135.614668 218.285567 
z
" clip-path="url(#p14b0634053)" style="fill: #124568"/>
    <path d="M 229.809065 216.936581 
L 233.633779 214.945194 
L 240.685428 218.544324 
L 236.832913 223.402385 
z
" clip-path="url(#p14b0634053)" style="fill: #124467"/>
    <path d="M 121.626913 202.454952 
L 125.870435 196.872188 
L 132.933353 209.024947 
L 128.677281 212.817233 
z
" clip-path="url(#p14b0634053)" style="fill: #144c73"/>
    <path d="M 118.587314 177.317042 
L 122.742171 167.690036 
L 130.031592 188.891336 
L 125.870435 196.872188 
z
" clip-path="url(#p14b0634053)" style="fill: #15517b"/>
    <path d="M 119.606111 138.712132 
L 123.888661 134.286167 
L 131.067705 151.171983 
L 126.887761 158.294199 
z
" clip-path="url(#p14b0634053)" style="fill: #15527d"/>
    <path d="M 263.789674 169.817632 
L 267.715967 159.186626 
L 275.148202 153.188367 
L 271.170173 165.128496 
z
" clip-path="url(#p14b0634053)" style="fill: #0c2e45"/>
    <path d="M 135.614668 218.285567 
L 139.853474 214.779446 
L 146.711394 215.951661 
L 142.510562 220.658353 
z
" clip-path="url(#p14b0634053)" style="fill: #103e5e"/>
    <path d="M 146.711394 215.951661 
L 150.862042 209.922559 
L 157.676759 205.192304 
L 153.554971 213.335554 
z
" clip-path="url(#p14b0634053)" style="fill: #0d334e"/>
    <path d="M 259.81641 181.814932 
L 263.789674 169.817632 
L 271.170173 165.128496 
L 267.139591 178.608208 
z
" clip-path="url(#p14b0634053)" style="fill: #0c2e45"/>
    <path d="M 183.802211 176.489873 
L 187.852122 182.671515 
L 194.828381 182.374185 
L 190.821107 174.933439 
z
" clip-path="url(#p14b0634053)" style="fill: #134b71"/>
    <path d="M 236.832913 223.402385 
L 240.685428 218.544324 
L 247.85723 218.059093 
L 243.990389 224.171081 
z
" clip-path="url(#p14b0634053)" style="fill: #0f3a58"/>
    <path d="M 255.812449 194.773091 
L 259.81641 181.814932 
L 267.139591 178.608208 
L 263.086385 192.815987 
z
" clip-path="url(#p14b0634053)" style="fill: #0c2e46"/>
    <path d="M 161.784948 197.595099 
L 165.891967 192.248083 
L 172.747377 182.638276 
L 168.635488 188.034117 
z
" clip-path="url(#p14b0634053)" style="fill: #0d314a"/>
    <path d="M 251.810511 207.533661 
L 255.812449 194.773091 
L 263.086385 192.815987 
L 259.057485 206.161503 
z
" clip-path="url(#p14b0634053)" style="fill: #0c3048"/>
    <path d="M 114.364538 185.087836 
L 118.587314 177.317042 
L 125.870435 196.872188 
L 121.626913 202.454952 
z
" clip-path="url(#p14b0634053)" style="fill: #15527c"/>
    <path d="M 115.370012 145.972266 
L 119.606111 138.712132 
L 126.887761 158.294199 
L 122.742171 167.690036 
z
" clip-path="url(#p14b0634053)" style="fill: #15527c"/>
    <path d="M 247.85723 218.059093 
L 251.810511 207.533661 
L 259.057485 206.161503 
L 255.108527 216.375773 
z
" clip-path="url(#p14b0634053)" style="fill: #0d324c"/>
    <path d="M 275.148202 153.188367 
L 279.060284 142.994614 
L 286.296877 144.563357 
L 282.335692 156.172755 
z
" clip-path="url(#p14b0634053)" style="fill: #0e3652"/>
    <path d="M 172.747377 182.638276 
L 176.854193 182.341327 
L 183.802211 176.489873 
L 179.704147 174.926319 
z
" clip-path="url(#p14b0634053)" style="fill: #0f3a58"/>
    <path d="M 117.238549 203.838958 
L 121.626913 202.454952 
L 128.677281 212.817233 
L 124.29498 212.945623 
z
" clip-path="url(#p14b0634053)" style="fill: #154f78"/>
    <path d="M 271.170173 165.128496 
L 275.148202 153.188367 
L 282.335692 156.172755 
L 278.310699 169.436731 
z
" clip-path="url(#p14b0634053)" style="fill: #0e3753"/>
    <path d="M 282.335692 156.172755 
L 286.296877 144.563357 
L 293.295035 152.985442 
L 289.277843 166.225754 
z
" clip-path="url(#p14b0634053)" style="fill: #103f5f"/>
    <path d="M 124.29498 212.945623 
L 128.677281 212.817233 
L 135.614668 218.285567 
L 131.26932 218.60841 
z
" clip-path="url(#p14b0634053)" style="fill: #134a70"/>
    <path d="M 225.976725 217.022028 
L 229.809065 216.936581 
L 236.832913 223.402385 
L 233.011436 224.953936 
z
" clip-path="url(#p14b0634053)" style="fill: #144c72"/>
    <path d="M 190.821107 174.933439 
L 194.828381 182.374185 
L 201.833572 185.162141 
L 197.876881 177.582581 
z
" clip-path="url(#p14b0634053)" style="fill: #15507a"/>
    <path d="M 142.510562 220.658353 
L 146.711394 215.951661 
L 153.554971 213.335554 
L 149.399356 220.53922 
z
" clip-path="url(#p14b0634053)" style="fill: #0e3854"/>
    <path d="M 267.139591 178.608208 
L 271.170173 165.128496 
L 278.310699 169.436731 
L 274.251236 183.674623 
z
" clip-path="url(#p14b0634053)" style="fill: #0e3753"/>
    <path d="M 263.086385 192.815987 
L 267.139591 178.608208 
L 274.251236 183.674623 
L 270.200827 197.64547 
z
" clip-path="url(#p14b0634053)" style="fill: #0e3854"/>
    <path d="M 278.310699 169.436731 
L 282.335692 156.172755 
L 289.277843 166.225754 
L 285.224465 180.377149 
z
" clip-path="url(#p14b0634053)" style="fill: #114060"/>
    <path d="M 218.989474 205.213188 
L 222.834707 207.464921 
L 229.809065 216.936581 
L 225.976725 217.022028 
z
" clip-path="url(#p14b0634053)" style="fill: #16537d"/>
    <path d="M 274.251236 183.674623 
L 278.310699 169.436731 
L 285.224465 180.377149 
L 281.177735 194.353647 
z
" clip-path="url(#p14b0634053)" style="fill: #114061"/>
    <path d="M 157.676759 205.192304 
L 161.784948 197.595099 
L 168.635488 188.034117 
L 164.528378 196.984482 
z
" clip-path="url(#p14b0634053)" style="fill: #0c2e46"/>
    <path d="M 270.200827 197.64547 
L 274.251236 183.674623 
L 281.177735 194.353647 
L 277.181398 206.872259 
z
" clip-path="url(#p14b0634053)" style="fill: #114061"/>
    <path d="M 259.057485 206.161503 
L 263.086385 192.815987 
L 270.200827 197.64547 
L 266.210324 209.640047 
z
" clip-path="url(#p14b0634053)" style="fill: #0f3855"/>
    <path d="M 111.146408 154.439082 
L 115.370012 145.972266 
L 122.742171 167.690036 
L 118.587314 177.317042 
z
" clip-path="url(#p14b0634053)" style="fill: #16537d"/>
    <path d="M 243.990389 224.171081 
L 247.85723 218.059093 
L 255.108527 216.375773 
L 251.279082 221.303968 
z
" clip-path="url(#p14b0634053)" style="fill: #0e3753"/>
    <path d="M 266.210324 209.640047 
L 270.200827 197.64547 
L 277.181398 206.872259 
L 273.273941 216.591682 
z
" clip-path="url(#p14b0634053)" style="fill: #114061"/>
    <path d="M 211.981585 193.425308 
L 215.851175 198.130018 
L 222.834707 207.464921 
L 218.989474 205.213188 
z
" clip-path="url(#p14b0634053)" style="fill: #165581"/>
    <path d="M 131.26932 218.60841 
L 135.614668 218.285567 
L 142.510562 220.658353 
L 138.222383 222.512656 
z
" clip-path="url(#p14b0634053)" style="fill: #124568"/>
    <path d="M 197.876881 177.582581 
L 201.833572 185.162141 
L 208.846999 190.51954 
L 204.938907 183.909478 
z
" clip-path="url(#p14b0634053)" style="fill: #16547f"/>
    <path d="M 233.011436 224.953936 
L 236.832913 223.402385 
L 243.990389 224.171081 
L 240.19499 225.637679 
z
" clip-path="url(#p14b0634053)" style="fill: #114162"/>
    <path d="M 255.108527 216.375773 
L 259.057485 206.161503 
L 266.210324 209.640047 
L 262.329054 217.665649 
z
" clip-path="url(#p14b0634053)" style="fill: #0f3956"/>
    <path d="M 109.994694 188.714482 
L 114.364538 185.087836 
L 121.626913 202.454952 
L 117.238549 203.838958 
z
" clip-path="url(#p14b0634053)" style="fill: #16547f"/>
    <path d="M 204.938907 183.909478 
L 208.846999 190.51954 
L 215.851175 198.130018 
L 211.981585 193.425308 
z
" clip-path="url(#p14b0634053)" style="fill: #165581"/>
    <path d="M 153.554971 213.335554 
L 157.676759 205.192304 
L 164.528378 196.984482 
L 160.422429 207.587022 
z
" clip-path="url(#p14b0634053)" style="fill: #0c2f46"/>
    <path d="M 106.881815 162.208414 
L 111.146408 154.439082 
L 118.587314 177.317042 
L 114.364538 185.087836 
z
" clip-path="url(#p14b0634053)" style="fill: #165480"/>
    <path d="M 262.329054 217.665649 
L 266.210324 209.640047 
L 273.273941 216.591682 
L 269.489259 222.073161 
z
" clip-path="url(#p14b0634053)" style="fill: #114162"/>
    <path d="M 138.222383 222.512656 
L 142.510562 220.658353 
L 149.399356 220.53922 
L 145.178085 225.220149 
z
" clip-path="url(#p14b0634053)" style="fill: #103f5f"/>
    <path d="M 168.635488 188.034117 
L 172.747377 182.638276 
L 179.704147 174.926319 
L 175.585563 179.332117 
z
" clip-path="url(#p14b0634053)" style="fill: #0d324b"/>
    <path d="M 149.399356 220.53922 
L 153.554971 213.335554 
L 160.422429 207.587022 
L 156.303697 218.091994 
z
" clip-path="url(#p14b0634053)" style="fill: #0d314b"/>
    <path d="M 179.704147 174.926319 
L 183.802211 176.489873 
L 190.821107 174.933439 
L 186.749347 171.909737 
z
" clip-path="url(#p14b0634053)" style="fill: #114264"/>
    <path d="M 251.279082 221.303968 
L 255.108527 216.375773 
L 262.329054 217.665649 
L 258.587712 219.982682 
z
" clip-path="url(#p14b0634053)" style="fill: #103c5b"/>
    <path d="M 222.085461 218.375819 
L 225.976725 217.022028 
L 233.011436 224.953936 
L 229.159824 226.050529 
z
" clip-path="url(#p14b0634053)" style="fill: #144c73"/>
    <path d="M 240.19499 225.637679 
L 243.990389 224.171081 
L 251.279082 221.303968 
L 247.548603 220.821706 
z
" clip-path="url(#p14b0634053)" style="fill: #103c5b"/>
    <path d="M 215.065563 205.747665 
L 218.989474 205.213188 
L 225.976725 217.022028 
L 222.085461 218.375819 
z
" clip-path="url(#p14b0634053)" style="fill: #15527c"/>
    <path d="M 112.647198 199.807433 
L 117.238549 203.838958 
L 124.29498 212.945623 
L 119.735064 208.220287 
z
" clip-path="url(#p14b0634053)" style="fill: #165480"/>
    <path d="M 102.493206 166.876749 
L 106.881815 162.208414 
L 114.364538 185.087836 
L 109.994694 188.714482 
z
" clip-path="url(#p14b0634053)" style="fill: #175884"/>
    <path d="M 119.735064 208.220287 
L 124.29498 212.945623 
L 131.26932 218.60841 
L 126.771314 214.537538 
z
" clip-path="url(#p14b0634053)" style="fill: #15517a"/>
    <path d="M 229.159824 226.050529 
L 233.011436 224.953936 
L 240.19499 225.637679 
L 236.393649 225.431864 
z
" clip-path="url(#p14b0634053)" style="fill: #114163"/>
    <path d="M 145.178085 225.220149 
L 149.399356 220.53922 
L 156.303697 218.091994 
L 152.145251 226.647605 
z
" clip-path="url(#p14b0634053)" style="fill: #0f3854"/>
    <path d="M 164.528378 196.984482 
L 168.635488 188.034117 
L 175.585563 179.332117 
L 171.467216 188.587271 
z
" clip-path="url(#p14b0634053)" style="fill: #0c2e45"/>
    <path d="M 258.587712 219.982682 
L 262.329054 217.665649 
L 269.489259 222.073161 
L 265.850137 221.964179 
z
" clip-path="url(#p14b0634053)" style="fill: #124568"/>
    <path d="M 105.406807 186.671121 
L 109.994694 188.714482 
L 117.238549 203.838958 
L 112.647198 199.807433 
z
" clip-path="url(#p14b0634053)" style="fill: #175886"/>
    <path d="M 126.771314 214.537538 
L 131.26932 218.60841 
L 138.222383 222.512656 
L 133.806138 220.316888 
z
" clip-path="url(#p14b0634053)" style="fill: #144e76"/>
    <path d="M 208.026454 192.383322 
L 211.981585 193.425308 
L 218.989474 205.213188 
L 215.065563 205.747665 
z
" clip-path="url(#p14b0634053)" style="fill: #16547f"/>
    <path d="M 186.749347 171.909737 
L 190.821107 174.933439 
L 197.876881 177.582581 
L 193.844037 174.194958 
z
" clip-path="url(#p14b0634053)" style="fill: #134a70"/>
    <path d="M 160.422429 207.587022 
L 164.528378 196.984482 
L 171.467216 188.587271 
L 167.357832 200.911907 
z
" clip-path="url(#p14b0634053)" style="fill: #0c2c43"/>
    <path d="M 200.947407 181.313908 
L 204.938907 183.909478 
L 211.981585 193.425308 
L 208.026454 192.383322 
z
" clip-path="url(#p14b0634053)" style="fill: #16537d"/>
    <path d="M 133.806138 220.316888 
L 138.222383 222.512656 
L 145.178085 225.220149 
L 140.854401 226.116198 
z
" clip-path="url(#p14b0634053)" style="fill: #13496f"/>
    <path d="M 193.844037 174.194958 
L 197.876881 177.582581 
L 204.938907 183.909478 
L 200.947407 181.313908 
z
" clip-path="url(#p14b0634053)" style="fill: #155079"/>
    <path d="M 156.303697 218.091994 
L 160.422429 207.587022 
L 167.357832 200.911907 
L 163.253906 214.422332 
z
" clip-path="url(#p14b0634053)" style="fill: #0c2d45"/>
    <path d="M 175.585563 179.332117 
L 179.704147 174.926319 
L 186.749347 171.909737 
L 182.637163 175.239038 
z
" clip-path="url(#p14b0634053)" style="fill: #0e3854"/>
    <path d="M 218.115276 223.142872 
L 222.085461 218.375819 
L 229.159824 226.050529 
L 225.236651 229.355283 
z
" clip-path="url(#p14b0634053)" style="fill: #12466b"/>
    <path d="M 247.548603 220.821706 
L 251.279082 221.303968 
L 258.587712 219.982682 
L 254.959617 216.647545 
z
" clip-path="url(#p14b0634053)" style="fill: #114162"/>
    <path d="M 211.056233 211.181419 
L 215.065563 205.747665 
L 222.085461 218.375819 
L 218.115276 223.142872 
z
" clip-path="url(#p14b0634053)" style="fill: #144d74"/>
    <path d="M 152.145251 226.647605 
L 156.303697 218.091994 
L 163.253906 214.422332 
L 159.135488 226.863983 
z
" clip-path="url(#p14b0634053)" style="fill: #0d324b"/>
    <path d="M 140.854401 226.116198 
L 145.178085 225.220149 
L 152.145251 226.647605 
L 147.911281 231.634132 
z
" clip-path="url(#p14b0634053)" style="fill: #114365"/>
    <path d="M 97.901659 166.649359 
L 102.493206 166.876749 
L 109.994694 188.714482 
L 105.406807 186.671121 
z
" clip-path="url(#p14b0634053)" style="fill: #185c8a"/>
    <path d="M 236.393649 225.431864 
L 240.19499 225.637679 
L 247.548603 220.821706 
L 243.822159 218.166617 
z
" clip-path="url(#p14b0634053)" style="fill: #103c5b"/>
    <path d="M 225.236651 229.355283 
L 229.159824 226.050529 
L 236.393649 225.431864 
L 232.519091 226.950849 
z
" clip-path="url(#p14b0634053)" style="fill: #103c5b"/>
    <path d="M 203.987489 197.361539 
L 208.026454 192.383322 
L 215.065563 205.747665 
L 211.056233 211.181419 
z
" clip-path="url(#p14b0634053)" style="fill: #144e76"/>
    <path d="M 171.467216 188.587271 
L 175.585563 179.332117 
L 182.637163 175.239038 
L 178.511511 184.213335 
z
" clip-path="url(#p14b0634053)" style="fill: #0d314a"/>
    <path d="M 147.911281 231.634132 
L 152.145251 226.647605 
L 159.135488 226.863983 
L 154.966807 235.923828 
z
" clip-path="url(#p14b0634053)" style="fill: #0f3b59"/>
    <path d="M 182.637163 175.239038 
L 186.749347 171.909737 
L 193.844037 174.194958 
L 189.752377 177.320751 
z
" clip-path="url(#p14b0634053)" style="fill: #114061"/>
    <path d="M 206.992682 220.292531 
L 211.056233 211.181419 
L 218.115276 223.142872 
L 214.089307 230.543267 
z
" clip-path="url(#p14b0634053)" style="fill: #13476c"/>
    <path d="M 214.089307 230.543267 
L 218.115276 223.142872 
L 225.236651 229.355283 
L 221.251315 234.877943 
z
" clip-path="url(#p14b0634053)" style="fill: #114162"/>
    <path d="M 254.959617 216.647545 
L 258.587712 219.982682 
L 265.850137 221.964179 
L 262.331364 216.284988 
z
" clip-path="url(#p14b0634053)" style="fill: #134a70"/>
    <path d="M 196.882007 185.210112 
L 200.947407 181.313908 
L 208.026454 192.383322 
L 203.987489 197.361539 
z
" clip-path="url(#p14b0634053)" style="fill: #144c74"/>
    <path d="M 167.357832 200.911907 
L 171.467216 188.587271 
L 178.511511 184.213335 
L 174.39062 197.232047 
z
" clip-path="url(#p14b0634053)" style="fill: #0c2e46"/>
    <path d="M 107.882962 192.269077 
L 112.647198 199.807433 
L 119.735064 208.220287 
L 115.021688 200.413951 
z
" clip-path="url(#p14b0634053)" style="fill: #175784"/>
    <path d="M 163.253906 214.422332 
L 167.357832 200.911907 
L 174.39062 197.232047 
L 170.280498 212.361642 
z
" clip-path="url(#p14b0634053)" style="fill: #0c2e45"/>
    <path d="M 115.021688 200.413951 
L 119.735064 208.220287 
L 126.771314 214.537538 
L 122.139373 207.721158 
z
" clip-path="url(#p14b0634053)" style="fill: #165581"/>
    <path d="M 159.135488 226.863983 
L 163.253906 214.422332 
L 170.280498 212.361642 
L 166.169104 227.01226 
z
" clip-path="url(#p14b0634053)" style="fill: #0c3049"/>
    <path d="M 189.752377 177.320751 
L 193.844037 174.194958 
L 200.947407 181.313908 
L 196.882007 185.210112 
z
" clip-path="url(#p14b0634053)" style="fill: #13486c"/>
    <path d="M 100.632834 180.811723 
L 105.406807 186.671121 
L 112.647198 199.807433 
L 107.882962 192.269077 
z
" clip-path="url(#p14b0634053)" style="fill: #185a89"/>
    <path d="M 122.139373 207.721158 
L 126.771314 214.537538 
L 133.806138 220.316888 
L 129.275513 215.607863 
z
" clip-path="url(#p14b0634053)" style="fill: #16537e"/>
    <path d="M 199.89734 207.243176 
L 203.987489 197.361539 
L 211.056233 211.181419 
L 206.992682 220.292531 
z
" clip-path="url(#p14b0634053)" style="fill: #13496e"/>
    <path d="M 129.275513 215.607863 
L 133.806138 220.316888 
L 140.854401 226.116198 
L 136.434546 224.523145 
z
" clip-path="url(#p14b0634053)" style="fill: #15517b"/>
    <path d="M 154.966807 235.923828 
L 159.135488 226.863983 
L 166.169104 227.01226 
L 162.023931 238.268795 
z
" clip-path="url(#p14b0634053)" style="fill: #0e3651"/>
    <path d="M 202.906838 230.482744 
L 206.992682 220.292531 
L 214.089307 230.543267 
L 210.037273 238.502941 
z
" clip-path="url(#p14b0634053)" style="fill: #124366"/>
    <path d="M 136.434546 224.523145 
L 140.854401 226.116198 
L 147.911281 231.634132 
L 143.595728 233.76819 
z
" clip-path="url(#p14b0634053)" style="fill: #144c74"/>
    <path d="M 221.251315 234.877943 
L 225.236651 229.355283 
L 232.519091 226.950849 
L 228.566855 230.928198 
z
" clip-path="url(#p14b0634053)" style="fill: #0e3753"/>
    <path d="M 143.595728 233.76819 
L 147.911281 231.634132 
L 154.966807 235.923828 
L 150.727581 241.405768 
z
" clip-path="url(#p14b0634053)" style="fill: #124569"/>
    <path d="M 210.037273 238.502941 
L 214.089307 230.543267 
L 221.251315 234.877943 
L 217.23126 241.07621 
z
" clip-path="url(#p14b0634053)" style="fill: #103d5c"/>
    <path d="M 178.511511 184.213335 
L 182.637163 175.239038 
L 189.752377 177.320751 
L 185.63149 186.381292 
z
" clip-path="url(#p14b0634053)" style="fill: #0f3855"/>
    <path d="M 195.78683 219.335845 
L 199.89734 207.243176 
L 206.992682 220.292531 
L 202.906838 230.482744 
z
" clip-path="url(#p14b0634053)" style="fill: #124569"/>
    <path d="M 192.773974 194.830204 
L 196.882007 185.210112 
L 203.987489 197.361539 
L 199.89734 207.243176 
z
" clip-path="url(#p14b0634053)" style="fill: #12476b"/>
    <path d="M 243.822159 218.166617 
L 247.548603 220.821706 
L 254.959617 216.647545 
L 251.338274 210.948773 
z
" clip-path="url(#p14b0634053)" style="fill: #114162"/>
    <path d="M 232.519091 226.950849 
L 236.393649 225.431864 
L 243.822159 218.166617 
L 240.008174 217.342038 
z
" clip-path="url(#p14b0634053)" style="fill: #0e3854"/>
    <path d="M 166.169104 227.01226 
L 170.280498 212.361642 
L 177.382788 214.74923 
L 173.258182 228.975222 
z
" clip-path="url(#p14b0634053)" style="fill: #0d344e"/>
    <path d="M 185.63149 186.381292 
L 189.752377 177.320751 
L 196.882007 185.210112 
L 192.773974 194.830204 
z
" clip-path="url(#p14b0634053)" style="fill: #114162"/>
    <path d="M 174.39062 197.232047 
L 178.511511 184.213335 
L 185.63149 186.381292 
L 181.504786 199.603505 
z
" clip-path="url(#p14b0634053)" style="fill: #0e3550"/>
    <path d="M 170.280498 212.361642 
L 174.39062 197.232047 
L 181.504786 199.603505 
L 177.382788 214.74923 
z
" clip-path="url(#p14b0634053)" style="fill: #0d334e"/>
    <path d="M 93.139066 163.1333 
L 97.901659 166.649359 
L 105.406807 186.671121 
L 100.632834 180.811723 
z
" clip-path="url(#p14b0634053)" style="fill: #185d8d"/>
    <path d="M 150.727581 241.405768 
L 154.966807 235.923828 
L 162.023931 238.268795 
L 157.817196 245.253072 
z
" clip-path="url(#p14b0634053)" style="fill: #103d5d"/>
    <path d="M 198.813545 239.364669 
L 202.906838 230.482744 
L 210.037273 238.502941 
L 205.975032 245.087534 
z
" clip-path="url(#p14b0634053)" style="fill: #114263"/>
    <path d="M 191.670087 230.883398 
L 195.78683 219.335845 
L 202.906838 230.482744 
L 198.813545 239.364669 
z
" clip-path="url(#p14b0634053)" style="fill: #114366"/>
    <path d="M 188.65057 207.895615 
L 192.773974 194.830204 
L 199.89734 207.243176 
L 195.78683 219.335845 
z
" clip-path="url(#p14b0634053)" style="fill: #124366"/>
    <path d="M 162.023931 238.268795 
L 166.169104 227.01226 
L 173.258182 228.975222 
L 169.103903 239.299722 
z
" clip-path="url(#p14b0634053)" style="fill: #0e3651"/>
    <path d="M 184.524349 221.733135 
L 188.65057 207.895615 
L 195.78683 219.335845 
L 191.670087 230.883398 
z
" clip-path="url(#p14b0634053)" style="fill: #114163"/>
    <path d="M 181.504786 199.603505 
L 185.63149 186.381292 
L 192.773974 194.830204 
L 188.65057 207.895615 
z
" clip-path="url(#p14b0634053)" style="fill: #103d5d"/>
    <path d="M 177.382788 214.74923 
L 181.504786 199.603505 
L 188.65057 207.895615 
L 184.524349 221.733135 
z
" clip-path="url(#p14b0634053)" style="fill: #103c5a"/>
    <path d="M 173.258182 228.975222 
L 177.382788 214.74923 
L 184.524349 221.733135 
L 180.390143 233.468605 
z
" clip-path="url(#p14b0634053)" style="fill: #0f3a58"/>
    <path d="M 205.975032 245.087534 
L 210.037273 238.502941 
L 217.23126 241.07621 
L 213.195995 246.250241 
z
" clip-path="url(#p14b0634053)" style="fill: #103c5b"/>
    <path d="M 180.390143 233.468605 
L 184.524349 221.733135 
L 191.670087 230.883398 
L 187.543637 239.348465 
z
" clip-path="url(#p14b0634053)" style="fill: #114061"/>
    <path d="M 217.23126 241.07621 
L 221.251315 234.877943 
L 228.566855 230.928198 
L 224.565587 236.112758 
z
" clip-path="url(#p14b0634053)" style="fill: #0e344f"/>
    <path d="M 187.543637 239.348465 
L 191.670087 230.883398 
L 198.813545 239.364669 
L 194.711564 244.861518 
z
" clip-path="url(#p14b0634053)" style="fill: #114365"/>
    <path d="M 157.817196 245.253072 
L 162.023931 238.268795 
L 169.103903 239.299722 
L 164.893211 244.959883 
z
" clip-path="url(#p14b0634053)" style="fill: #0f3957"/>
    <path d="M 139.261067 237.079579 
L 143.595728 233.76819 
L 150.727581 241.405768 
L 146.453796 246.621279 
z
" clip-path="url(#p14b0634053)" style="fill: #13496e"/>
    <path d="M 169.103903 239.299722 
L 173.258182 228.975222 
L 180.390143 233.468605 
L 176.225258 240.521801 
z
" clip-path="url(#p14b0634053)" style="fill: #0f3a58"/>
    <path d="M 132.007783 225.109992 
L 136.434546 224.523145 
L 143.595728 233.76819 
L 139.261067 237.079579 
z
" clip-path="url(#p14b0634053)" style="fill: #144f77"/>
    <path d="M 194.711564 244.861518 
L 198.813545 239.364669 
L 205.975032 245.087534 
L 201.905372 248.497748 
z
" clip-path="url(#p14b0634053)" style="fill: #114265"/>
    <path d="M 146.453796 246.621279 
L 150.727581 241.405768 
L 157.817196 245.253072 
L 153.567738 250.94401 
z
" clip-path="url(#p14b0634053)" style="fill: #114061"/>
    <path d="M 251.338274 210.948773 
L 254.959617 216.647545 
L 262.331364 216.284988 
L 258.823959 208.084785 
z
" clip-path="url(#p14b0634053)" style="fill: #134a70"/>
    <path d="M 124.740696 213.398058 
L 129.275513 215.607863 
L 136.434546 224.523145 
L 132.007783 225.109992 
z
" clip-path="url(#p14b0634053)" style="fill: #15527c"/>
    <path d="M 228.566855 230.928198 
L 232.519091 226.950849 
L 240.008174 217.342038 
L 236.090474 219.610135 
z
" clip-path="url(#p14b0634053)" style="fill: #0d334c"/>
    <path d="M 117.498988 203.283592 
L 122.139373 207.721158 
L 129.275513 215.607863 
L 124.740696 213.398058 
z
" clip-path="url(#p14b0634053)" style="fill: #16537e"/>
    <path d="M 103.096409 186.399457 
L 107.882962 192.269077 
L 115.021688 200.413951 
L 110.293169 194.679927 
z
" clip-path="url(#p14b0634053)" style="fill: #165581"/>
    <path d="M 110.293169 194.679927 
L 115.021688 200.413951 
L 122.139373 207.721158 
L 117.498988 203.283592 
z
" clip-path="url(#p14b0634053)" style="fill: #16547f"/>
    <path d="M 176.225258 240.521801 
L 180.390143 233.468605 
L 187.543637 239.348465 
L 183.388145 242.649334 
z
" clip-path="url(#p14b0634053)" style="fill: #114162"/>
    <path d="M 95.832222 176.219434 
L 100.632834 180.811723 
L 107.882962 192.269077 
L 103.096409 186.399457 
z
" clip-path="url(#p14b0634053)" style="fill: #175784"/>
    <path d="M 213.195995 246.250241 
L 217.23126 241.07621 
L 224.565587 236.112758 
L 220.542162 240.798003 
z
" clip-path="url(#p14b0634053)" style="fill: #0e3550"/>
    <path d="M 201.905372 248.497748 
L 205.975032 245.087534 
L 213.195995 246.250241 
L 209.154758 248.641801 
z
" clip-path="url(#p14b0634053)" style="fill: #103f5f"/>
    <path d="M 164.893211 244.959883 
L 169.103903 239.299722 
L 176.225258 240.521801 
L 172.00477 242.690875 
z
" clip-path="url(#p14b0634053)" style="fill: #0f3b5a"/>
    <path d="M 134.975098 244.526894 
L 139.261067 237.079579 
L 146.453796 246.621279 
L 142.196233 254.452181 
z
" clip-path="url(#p14b0634053)" style="fill: #124669"/>
    <path d="M 153.567738 250.94401 
L 157.817196 245.253072 
L 164.893211 244.959883 
L 160.638192 249.258686 
z
" clip-path="url(#p14b0634053)" style="fill: #0f3957"/>
    <path d="M 240.008174 217.342038 
L 243.822159 218.166617 
L 251.338274 210.948773 
L 247.611661 207.234798 
z
" clip-path="url(#p14b0634053)" style="fill: #0f3b59"/>
    <path d="M 183.388145 242.649334 
L 187.543637 239.348465 
L 194.711564 244.861518 
L 190.585687 245.184483 
z
" clip-path="url(#p14b0634053)" style="fill: #124569"/>
    <path d="M 142.196233 254.452181 
L 146.453796 246.621279 
L 153.567738 250.94401 
L 149.317146 258.489905 
z
" clip-path="url(#p14b0634053)" style="fill: #103d5c"/>
    <path d="M 127.663982 231.203549 
L 132.007783 225.109992 
L 139.261067 237.079579 
L 134.975098 244.526894 
z
" clip-path="url(#p14b0634053)" style="fill: #144b71"/>
    <path d="M 88.366634 161.030963 
L 93.139066 163.1333 
L 100.632834 180.811723 
L 95.832222 176.219434 
z
" clip-path="url(#p14b0634053)" style="fill: #175a88"/>
    <path d="M 130.737374 255.156787 
L 134.975098 244.526894 
L 142.196233 254.452181 
L 137.957302 264.35617 
z
" clip-path="url(#p14b0634053)" style="fill: #114264"/>
    <path d="M 190.585687 245.184483 
L 194.711564 244.861518 
L 201.905372 248.497748 
L 197.819053 246.987751 
z
" clip-path="url(#p14b0634053)" style="fill: #12476b"/>
    <path d="M 224.565587 236.112758 
L 228.566855 230.928198 
L 236.090474 219.610135 
L 232.101927 223.841837 
z
" clip-path="url(#p14b0634053)" style="fill: #0d3049"/>
    <path d="M 137.957302 264.35617 
L 142.196233 254.452181 
L 149.317146 258.489905 
L 145.073348 267.814982 
z
" clip-path="url(#p14b0634053)" style="fill: #0f3a58"/>
    <path d="M 120.310895 217.338823 
L 124.740696 213.398058 
L 132.007783 225.109992 
L 127.663982 231.203549 
z
" clip-path="url(#p14b0634053)" style="fill: #144d75"/>
    <path d="M 172.00477 242.690875 
L 176.225258 240.521801 
L 183.388145 242.649334 
L 179.178082 240.935835 
z
" clip-path="url(#p14b0634053)" style="fill: #114264"/>
    <path d="M 123.408378 241.891189 
L 127.663982 231.203549 
L 134.975098 244.526894 
L 130.737374 255.156787 
z
" clip-path="url(#p14b0634053)" style="fill: #13476c"/>
    <path d="M 149.317146 258.489905 
L 153.567738 250.94401 
L 160.638192 249.258686 
L 156.377333 255.831519 
z
" clip-path="url(#p14b0634053)" style="fill: #0e3550"/>
    <path d="M 209.154758 248.641801 
L 213.195995 246.250241 
L 220.542162 240.798003 
L 216.514582 243.117016 
z
" clip-path="url(#p14b0634053)" style="fill: #0f3855"/>
    <path d="M 112.970852 204.951772 
L 117.498988 203.283592 
L 124.740696 213.398058 
L 120.310895 217.338823 
z
" clip-path="url(#p14b0634053)" style="fill: #144e76"/>
    <path d="M 160.638192 249.258686 
L 164.893211 244.959883 
L 172.00477 242.690875 
L 167.735083 243.873061 
z
" clip-path="url(#p14b0634053)" style="fill: #0f3956"/>
    <path d="M 105.674939 194.62869 
L 110.293169 194.679927 
L 117.498988 203.283592 
L 112.970852 204.951772 
z
" clip-path="url(#p14b0634053)" style="fill: #144e76"/>
    <path d="M 197.819053 246.987751 
L 201.905372 248.497748 
L 209.154758 248.641801 
L 205.105936 246.404641 
z
" clip-path="url(#p14b0634053)" style="fill: #124568"/>
    <path d="M 98.414153 185.623577 
L 103.096409 186.399457 
L 110.293169 194.679927 
L 105.674939 194.62869 
z
" clip-path="url(#p14b0634053)" style="fill: #154f77"/>
    <path d="M 116.003022 226.896096 
L 120.310895 217.338823 
L 127.663982 231.203549 
L 123.408378 241.891189 
z
" clip-path="url(#p14b0634053)" style="fill: #13496f"/>
    <path d="M 91.129027 176.06017 
L 95.832222 176.219434 
L 103.096409 186.399457 
L 98.414153 185.623577 
z
" clip-path="url(#p14b0634053)" style="fill: #155079"/>
    <path d="M 247.611661 207.234798 
L 251.338274 210.948773 
L 258.823959 208.084785 
L 255.199724 201.820646 
z
" clip-path="url(#p14b0634053)" style="fill: #124467"/>
    <path d="M 145.073348 267.814982 
L 149.317146 258.489905 
L 156.377333 255.831519 
L 152.124483 264.856953 
z
" clip-path="url(#p14b0634053)" style="fill: #0d324c"/>
    <path d="M 236.090474 219.610135 
L 240.008174 217.342038 
L 247.611661 207.234798 
L 243.751577 207.177104 
z
" clip-path="url(#p14b0634053)" style="fill: #0e354f"/>
    <path d="M 179.178082 240.935835 
L 183.388145 242.649334 
L 190.585687 245.184483 
L 186.409902 240.472512 
z
" clip-path="url(#p14b0634053)" style="fill: #13486e"/>
    <path d="M 220.542162 240.798003 
L 224.565587 236.112758 
L 232.101927 223.841837 
L 228.079561 228.214309 
z
" clip-path="url(#p14b0634053)" style="fill: #0d3049"/>
    <path d="M 83.696413 162.974091 
L 88.366634 161.030963 
L 95.832222 176.219434 
L 91.129027 176.06017 
z
" clip-path="url(#p14b0634053)" style="fill: #16537e"/>
    <path d="M 108.580084 212.509003 
L 112.970852 204.951772 
L 120.310895 217.338823 
L 116.003022 226.896096 
z
" clip-path="url(#p14b0634053)" style="fill: #13496f"/>
    <path d="M 156.377333 255.831519 
L 160.638192 249.258686 
L 167.735083 243.873061 
L 163.452203 248.323158 
z
" clip-path="url(#p14b0634053)" style="fill: #0d334d"/>
    <path d="M 167.735083 243.873061 
L 172.00477 242.690875 
L 179.178082 240.935835 
L 174.909557 238.393172 
z
" clip-path="url(#p14b0634053)" style="fill: #103e5e"/>
    <path d="M 186.409902 240.472512 
L 190.585687 245.184483 
L 197.819053 246.987751 
L 193.691421 240.485408 
z
" clip-path="url(#p14b0634053)" style="fill: #144c72"/>
    <path d="M 101.192139 200.126781 
L 105.674939 194.62869 
L 112.970852 204.951772 
L 108.580084 212.509003 
z
" clip-path="url(#p14b0634053)" style="fill: #13496f"/>
    <path d="M 205.105936 246.404641 
L 209.154758 248.641801 
L 216.514582 243.117016 
L 212.490149 241.067211 
z
" clip-path="url(#p14b0634053)" style="fill: #103f5f"/>
    <path d="M 93.855227 189.734709 
L 98.414153 185.623577 
L 105.674939 194.62869 
L 101.192139 200.126781 
z
" clip-path="url(#p14b0634053)" style="fill: #13496f"/>
    <path d="M 86.532335 179.974696 
L 91.129027 176.06017 
L 98.414153 185.623577 
L 93.855227 189.734709 
z
" clip-path="url(#p14b0634053)" style="fill: #134a70"/>
    <path d="M 232.101927 223.841837 
L 236.090474 219.610135 
L 243.751577 207.177104 
L 239.794305 209.755212 
z
" clip-path="url(#p14b0634053)" style="fill: #0d314a"/>
    <path d="M 216.514582 243.117016 
L 220.542162 240.798003 
L 228.079561 228.214309 
L 224.052031 230.701187 
z
" clip-path="url(#p14b0634053)" style="fill: #0d334d"/>
    <path d="M 152.124483 264.856953 
L 156.377333 255.831519 
L 163.452203 248.323158 
L 159.177729 256.510608 
z
" clip-path="url(#p14b0634053)" style="fill: #0c2e46"/>
    <path d="M 79.119542 168.242534 
L 83.696413 162.974091 
L 91.129027 176.06017 
L 86.532335 179.974696 
z
" clip-path="url(#p14b0634053)" style="fill: #144d74"/>
    <path d="M 193.691421 240.485408 
L 197.819053 246.987751 
L 205.105936 246.404641 
L 201.027923 239.207276 
z
" clip-path="url(#p14b0634053)" style="fill: #144b71"/>
    <path d="M 243.751577 207.177104 
L 247.611661 207.234798 
L 255.199724 201.820646 
L 251.417027 199.495997 
z
" clip-path="url(#p14b0634053)" style="fill: #103c5a"/>
    <path d="M 174.909557 238.393172 
L 179.178082 240.935835 
L 186.409902 240.472512 
L 182.167989 234.817961 
z
" clip-path="url(#p14b0634053)" style="fill: #124569"/>
    <path d="M 163.452203 248.323158 
L 167.735083 243.873061 
L 174.909557 238.393172 
L 170.610383 239.759156 
z
" clip-path="url(#p14b0634053)" style="fill: #0e3551"/>
    <path d="M 228.079561 228.214309 
L 232.101927 223.841837 
L 239.794305 209.755212 
L 235.786764 213.056844 
z
" clip-path="url(#p14b0634053)" style="fill: #0d3049"/>
    <path d="M 212.490149 241.067211 
L 216.514582 243.117016 
L 224.052031 230.701187 
L 220.036942 229.131271 
z
" clip-path="url(#p14b0634053)" style="fill: #0f3956"/>
    <path d="M 201.027923 239.207276 
L 205.105936 246.404641 
L 212.490149 241.067211 
L 208.45164 234.065259 
z
" clip-path="url(#p14b0634053)" style="fill: #12466a"/>
    <path d="M 182.167989 234.817961 
L 186.409902 240.472512 
L 193.691421 240.485408 
L 189.49485 232.82262 
z
" clip-path="url(#p14b0634053)" style="fill: #134b71"/>
    <path d="M 159.177729 256.510608 
L 163.452203 248.323158 
L 170.610383 239.759156 
L 166.30749 245.929355 
z
" clip-path="url(#p14b0634053)" style="fill: #0c2f47"/>
    <path d="M 239.794305 209.755212 
L 243.751577 207.177104 
L 251.417027 199.495997 
L 247.513295 200.214947 
z
" clip-path="url(#p14b0634053)" style="fill: #0e3652"/>
    <path d="M 224.052031 230.701187 
L 228.079561 228.214309 
L 235.786764 213.056844 
L 231.768161 214.93859 
z
" clip-path="url(#p14b0634053)" style="fill: #0d324c"/>
    <path d="M 170.610383 239.759156 
L 174.909557 238.393172 
L 182.167989 234.817961 
L 177.87419 233.150462 
z
" clip-path="url(#p14b0634053)" style="fill: #103c5a"/>
    <path d="M 189.49485 232.82262 
L 193.691421 240.485408 
L 201.027923 239.207276 
L 196.883183 230.605381 
z
" clip-path="url(#p14b0634053)" style="fill: #144b72"/>
    <path d="M 235.786764 213.056844 
L 239.794305 209.755212 
L 247.513295 200.214947 
L 243.543943 202.008343 
z
" clip-path="url(#p14b0634053)" style="fill: #0d344e"/>
    <path d="M 208.45164 234.065259 
L 212.490149 241.067211 
L 220.036942 229.131271 
L 216.023044 222.682411 
z
" clip-path="url(#p14b0634053)" style="fill: #114060"/>
    <path d="M 166.30749 245.929355 
L 170.610383 239.759156 
L 177.87419 233.150462 
L 173.554802 236.68746 
z
" clip-path="url(#p14b0634053)" style="fill: #0d324c"/>
    <path d="M 177.87419 233.150462 
L 182.167989 234.817961 
L 189.49485 232.82262 
L 185.228158 228.950304 
z
" clip-path="url(#p14b0634053)" style="fill: #114264"/>
    <path d="M 220.036942 229.131271 
L 224.052031 230.701187 
L 231.768161 214.93859 
L 227.766588 213.106392 
z
" clip-path="url(#p14b0634053)" style="fill: #0e3752"/>
    <path d="M 196.883183 230.605381 
L 201.027923 239.207276 
L 208.45164 234.065259 
L 204.3529 225.419689 
z
" clip-path="url(#p14b0634053)" style="fill: #13486d"/>
    <path d="M 231.768161 214.93859 
L 235.786764 213.056844 
L 243.543943 202.008343 
L 239.557622 202.651447 
z
" clip-path="url(#p14b0634053)" style="fill: #0e3550"/>
    <path d="M 185.228158 228.950304 
L 189.49485 232.82262 
L 196.883183 230.605381 
L 192.654893 225.540506 
z
" clip-path="url(#p14b0634053)" style="fill: #124568"/>
    <path d="M 173.554802 236.68746 
L 177.87419 233.150462 
L 185.228158 228.950304 
L 180.913312 230.24617 
z
" clip-path="url(#p14b0634053)" style="fill: #0f3855"/>
    <path d="M 204.3529 225.419689 
L 208.45164 234.065259 
L 216.023044 222.682411 
L 211.95705 214.441225 
z
" clip-path="url(#p14b0634053)" style="fill: #114264"/>
    <path d="M 216.023044 222.682411 
L 220.036942 229.131271 
L 227.766588 213.106392 
L 223.777669 206.542738 
z
" clip-path="url(#p14b0634053)" style="fill: #103c5b"/>
    <path d="M 227.766588 213.106392 
L 231.768161 214.93859 
L 239.557622 202.651447 
L 235.591983 199.766731 
z
" clip-path="url(#p14b0634053)" style="fill: #0f3956"/>
    <path d="M 192.654893 225.540506 
L 196.883183 230.605381 
L 204.3529 225.419689 
L 200.161416 220.083779 
z
" clip-path="url(#p14b0634053)" style="fill: #124366"/>
    <path d="M 180.913312 230.24617 
L 185.228158 228.950304 
L 192.654893 225.540506 
L 188.359515 225.493358 
z
" clip-path="url(#p14b0634053)" style="fill: #103c5b"/>
    <path d="M 200.161416 220.083779 
L 204.3529 225.419689 
L 211.95705 214.441225 
L 207.790874 209.397981 
z
" clip-path="url(#p14b0634053)" style="fill: #103e5e"/>
    <path d="M 211.95705 214.441225 
L 216.023044 222.682411 
L 223.777669 206.542738 
L 219.742043 198.153693 
z
" clip-path="url(#p14b0634053)" style="fill: #103e5e"/>
    <path d="M 188.359515 225.493358 
L 192.654893 225.540506 
L 200.161416 220.083779 
L 195.887685 219.648459 
z
" clip-path="url(#p14b0634053)" style="fill: #103c5a"/>
    <path d="M 223.777669 206.542738 
L 227.766588 213.106392 
L 235.591983 199.766731 
L 231.649292 192.177674 
z
" clip-path="url(#p14b0634053)" style="fill: #103e5e"/>
    <path d="M 195.887685 219.648459 
L 200.161416 220.083779 
L 207.790874 209.397981 
L 203.52889 209.269613 
z
" clip-path="url(#p14b0634053)" style="fill: #0f3855"/>
    <path d="M 207.790874 209.397981 
L 211.95705 214.441225 
L 219.742043 198.153693 
L 215.595778 193.013225 
z
" clip-path="url(#p14b0634053)" style="fill: #0f3a58"/>
    <path d="M 219.742043 198.153693 
L 223.777669 206.542738 
L 231.649292 192.177674 
L 227.664153 182.632783 
z
" clip-path="url(#p14b0634053)" style="fill: #114060"/>
    <path d="M 203.52889 209.269613 
L 207.790874 209.397981 
L 215.595778 193.013225 
L 211.336706 193.009481 
z
" clip-path="url(#p14b0634053)" style="fill: #0e3550"/>
    <path d="M 215.595778 193.013225 
L 219.742043 198.153693 
L 227.664153 182.632783 
L 223.555182 176.324901 
z
" clip-path="url(#p14b0634053)" style="fill: #0f3b59"/>
    <path d="M 211.336706 193.009481 
L 215.595778 193.013225 
L 223.555182 176.324901 
L 219.311394 175.384117 
z
" clip-path="url(#p14b0634053)" style="fill: #0e344f"/>
   </g>
  </g>
 </g>
 <defs>
  <clipPath id="p14b0634053">
   <rect x="45.9" y="43.2" width="277.2" height="277.2"/>
  </clipPath>
 </defs>
</svg>
