<?xml version="1.0" encoding="utf-8" standalone="no"?>
<!DOCTYPE svg PUBLIC "-//W3C//DTD SVG 1.1//EN"
  "http://www.w3.org/Graphics/SVG/1.1/DTD/svg11.dtd">
<svg xmlns:xlink="http://www.w3.org/1999/xlink" width="360pt" height="360pt" viewBox="0 0 360 360" xmlns="http://www.w3.org/2000/svg" version="1.1">
 <metadata>
  <rdf:RDF xmlns:dc="http://purl.org/dc/elements/1.1/" xmlns:cc="http://creativecommons.org/ns#" xmlns:rdf="http://www.w3.org/1999/02/22-rdf-syntax-ns#">
   <cc:Work>
    <dc:type rdf:resource="http://purl.org/dc/dcmitype/StillImage"/>
    <dc:date>2022-11-15T12:59:15.999946</dc:date>
    <dc:format>image/svg+xml</dc:format>
    <dc:creator>
     <cc:Agent>
      <dc:title>Matplotlib v3.5.3, https://matplotlib.org/</dc:title>
     </cc:Agent>
    </dc:creator>
   </cc:Work>
  </rdf:RDF>
 </metadata>
 <defs>
  <style type="text/css">*{stroke-linejoin: round; stroke-linecap: butt}</style>
 </defs>
 <g id="figure_1">
  <g id="patch_1">
   <path d="M 0 360 
L 360 360 
L 360 0 
L 0 0 
z
" style="fill: #ffffff"/>
  </g>
  <g id="axes_1">
   <g id="patch_2">
    <path d="M 45 320.4 
L 324 320.4 
L 324 43.2 
L 45 43.2 
z
" style="fill: #ffffff"/>
   </g>
   <g id="matplotlib.axis_1">
    <g id="xtick_1">
     <g id="line2d_1">
      <defs>
       <path id="mb877cd1d08" d="M 0 0 
L 0 3.5 
" style="stroke: #000000; stroke-width: 0.8"/>
      </defs>
      <g>
       <use xlink:href="#mb877cd1d08" x="83.045455" y="320.4" style="stroke: #000000; stroke-width: 0.8"/>
      </g>
     </g>
     <g id="text_1">
      <!-- −2 -->
      <g transform="translate(75.674361 334.998438)scale(0.1 -0.1)">
       <defs>
        <path id="DejaVuSans-2212" d="M 678 2272 
L 4684 2272 
L 4684 1741 
L 678 1741 
L 678 2272 
z
" transform="scale(0.015625)"/>
        <path id="DejaVuSans-32" d="M 1228 531 
L 3431 531 
L 3431 0 
L 469 0 
L 469 531 
Q 828 903 1448 1529 
Q 2069 2156 2228 2338 
Q 2531 2678 2651 2914 
Q 2772 3150 2772 3378 
Q 2772 3750 2511 3984 
Q 2250 4219 1831 4219 
Q 1534 4219 1204 4116 
Q 875 4013 500 3803 
L 500 4441 
Q 881 4594 1212 4672 
Q 1544 4750 1819 4750 
Q 2544 4750 2975 4387 
Q 3406 4025 3406 3419 
Q 3406 3131 3298 2873 
Q 3191 2616 2906 2266 
Q 2828 2175 2409 1742 
Q 1991 1309 1228 531 
z
" transform="scale(0.015625)"/>
       </defs>
       <use xlink:href="#DejaVuSans-2212"/>
       <use xlink:href="#DejaVuSans-32" x="83.789062"/>
      </g>
     </g>
    </g>
    <g id="xtick_2">
     <g id="line2d_2">
      <g>
       <use xlink:href="#mb877cd1d08" x="133.772727" y="320.4" style="stroke: #000000; stroke-width: 0.8"/>
      </g>
     </g>
     <g id="text_2">
      <!-- −1 -->
      <g transform="translate(126.401634 334.998438)scale(0.1 -0.1)">
       <defs>
        <path id="DejaVuSans-31" d="M 794 531 
L 1825 531 
L 1825 4091 
L 703 3866 
L 703 4441 
L 1819 4666 
L 2450 4666 
L 2450 531 
L 3481 531 
L 3481 0 
L 794 0 
L 794 531 
z
" transform="scale(0.015625)"/>
       </defs>
       <use xlink:href="#DejaVuSans-2212"/>
       <use xlink:href="#DejaVuSans-31" x="83.789062"/>
      </g>
     </g>
    </g>
    <g id="xtick_3">
     <g id="line2d_3">
      <g>
       <use xlink:href="#mb877cd1d08" x="184.5" y="320.4" style="stroke: #000000; stroke-width: 0.8"/>
      </g>
     </g>
     <g id="text_3">
      <!-- 0 -->
      <g transform="translate(181.31875 334.998438)scale(0.1 -0.1)">
       <defs>
        <path id="DejaVuSans-30" d="M 2034 4250 
Q 1547 4250 1301 3770 
Q 1056 3291 1056 2328 
Q 1056 1369 1301 889 
Q 1547 409 2034 409 
Q 2525 409 2770 889 
Q 3016 1369 3016 2328 
Q 3016 3291 2770 3770 
Q 2525 4250 2034 4250 
z
M 2034 4750 
Q 2819 4750 3233 4129 
Q 3647 3509 3647 2328 
Q 3647 1150 3233 529 
Q 2819 -91 2034 -91 
Q 1250 -91 836 529 
Q 422 1150 422 2328 
Q 422 3509 836 4129 
Q 1250 4750 2034 4750 
z
" transform="scale(0.015625)"/>
       </defs>
       <use xlink:href="#DejaVuSans-30"/>
      </g>
     </g>
    </g>
    <g id="xtick_4">
     <g id="line2d_4">
      <g>
       <use xlink:href="#mb877cd1d08" x="235.227273" y="320.4" style="stroke: #000000; stroke-width: 0.8"/>
      </g>
     </g>
     <g id="text_4">
      <!-- 1 -->
      <g transform="translate(232.046023 334.998438)scale(0.1 -0.1)">
       <use xlink:href="#DejaVuSans-31"/>
      </g>
     </g>
    </g>
    <g id="xtick_5">
     <g id="line2d_5">
      <g>
       <use xlink:href="#mb877cd1d08" x="285.954545" y="320.4" style="stroke: #000000; stroke-width: 0.8"/>
      </g>
     </g>
     <g id="text_5">
      <!-- 2 -->
      <g transform="translate(282.773295 334.998438)scale(0.1 -0.1)">
       <use xlink:href="#DejaVuSans-32"/>
      </g>
     </g>
    </g>
   </g>
   <g id="matplotlib.axis_2">
    <g id="ytick_1">
     <g id="line2d_6">
      <defs>
       <path id="m7ea79098bb" d="M 0 0 
L -3.5 0 
" style="stroke: #000000; stroke-width: 0.8"/>
      </defs>
      <g>
       <use xlink:href="#m7ea79098bb" x="45" y="280.291793" style="stroke: #000000; stroke-width: 0.8"/>
      </g>
     </g>
     <g id="text_6">
      <!-- $\mathdefault{10^{-3}}$ -->
      <g transform="translate(14.5 284.091012)scale(0.1 -0.1)">
       <defs>
        <path id="DejaVuSans-33" d="M 2597 2516 
Q 3050 2419 3304 2112 
Q 3559 1806 3559 1356 
Q 3559 666 3084 287 
Q 2609 -91 1734 -91 
Q 1441 -91 1130 -33 
Q 819 25 488 141 
L 488 750 
Q 750 597 1062 519 
Q 1375 441 1716 441 
Q 2309 441 2620 675 
Q 2931 909 2931 1356 
Q 2931 1769 2642 2001 
Q 2353 2234 1838 2234 
L 1294 2234 
L 1294 2753 
L 1863 2753 
Q 2328 2753 2575 2939 
Q 2822 3125 2822 3475 
Q 2822 3834 2567 4026 
Q 2313 4219 1838 4219 
Q 1578 4219 1281 4162 
Q 984 4106 628 3988 
L 628 4550 
Q 988 4650 1302 4700 
Q 1616 4750 1894 4750 
Q 2613 4750 3031 4423 
Q 3450 4097 3450 3541 
Q 3450 3153 3228 2886 
Q 3006 2619 2597 2516 
z
" transform="scale(0.015625)"/>
       </defs>
       <use xlink:href="#DejaVuSans-31" transform="translate(0 0.765625)"/>
       <use xlink:href="#DejaVuSans-30" transform="translate(63.623047 0.765625)"/>
       <use xlink:href="#DejaVuSans-2212" transform="translate(128.203125 39.046875)scale(0.7)"/>
       <use xlink:href="#DejaVuSans-33" transform="translate(186.855469 39.046875)scale(0.7)"/>
      </g>
     </g>
    </g>
    <g id="ytick_2">
     <g id="line2d_7">
      <g>
       <use xlink:href="#m7ea79098bb" x="45" y="225.665309" style="stroke: #000000; stroke-width: 0.8"/>
      </g>
     </g>
     <g id="text_7">
      <!-- $\mathdefault{10^{-2}}$ -->
      <g transform="translate(14.5 229.464528)scale(0.1 -0.1)">
       <use xlink:href="#DejaVuSans-31" transform="translate(0 0.765625)"/>
       <use xlink:href="#DejaVuSans-30" transform="translate(63.623047 0.765625)"/>
       <use xlink:href="#DejaVuSans-2212" transform="translate(128.203125 39.046875)scale(0.7)"/>
       <use xlink:href="#DejaVuSans-32" transform="translate(186.855469 39.046875)scale(0.7)"/>
      </g>
     </g>
    </g>
    <g id="ytick_3">
     <g id="line2d_8">
      <g>
       <use xlink:href="#m7ea79098bb" x="45" y="171.038825" style="stroke: #000000; stroke-width: 0.8"/>
      </g>
     </g>
     <g id="text_8">
      <!-- $\mathdefault{10^{-1}}$ -->
      <g transform="translate(14.5 174.838043)scale(0.1 -0.1)">
       <use xlink:href="#DejaVuSans-31" transform="translate(0 0.684375)"/>
       <use xlink:href="#DejaVuSans-30" transform="translate(63.623047 0.684375)"/>
       <use xlink:href="#DejaVuSans-2212" transform="translate(128.203125 38.965625)scale(0.7)"/>
       <use xlink:href="#DejaVuSans-31" transform="translate(186.855469 38.965625)scale(0.7)"/>
      </g>
     </g>
    </g>
    <g id="ytick_4">
     <g id="line2d_9">
      <g>
       <use xlink:href="#m7ea79098bb" x="45" y="116.41234" style="stroke: #000000; stroke-width: 0.8"/>
      </g>
     </g>
     <g id="text_9">
      <!-- $\mathdefault{10^{0}}$ -->
      <g transform="translate(20.4 120.211559)scale(0.1 -0.1)">
       <use xlink:href="#DejaVuSans-31" transform="translate(0 0.765625)"/>
       <use xlink:href="#DejaVuSans-30" transform="translate(63.623047 0.765625)"/>
       <use xlink:href="#DejaVuSans-30" transform="translate(128.203125 39.046875)scale(0.7)"/>
      </g>
     </g>
    </g>
    <g id="ytick_5">
     <g id="line2d_10">
      <g>
       <use xlink:href="#m7ea79098bb" x="45" y="61.785856" style="stroke: #000000; stroke-width: 0.8"/>
      </g>
     </g>
     <g id="text_10">
      <!-- $\mathdefault{10^{1}}$ -->
      <g transform="translate(20.4 65.585075)scale(0.1 -0.1)">
       <use xlink:href="#DejaVuSans-31" transform="translate(0 0.684375)"/>
       <use xlink:href="#DejaVuSans-30" transform="translate(63.623047 0.684375)"/>
       <use xlink:href="#DejaVuSans-31" transform="translate(128.203125 38.965625)scale(0.7)"/>
      </g>
     </g>
    </g>
    <g id="ytick_6">
     <g id="line2d_11">
      <defs>
       <path id="m647615faab" d="M 0 0 
L -2 0 
" style="stroke: #000000; stroke-width: 0.6"/>
      </defs>
      <g>
       <use xlink:href="#m647615faab" x="45" y="318.474067" style="stroke: #000000; stroke-width: 0.6"/>
      </g>
     </g>
    </g>
    <g id="ytick_7">
     <g id="line2d_12">
      <g>
       <use xlink:href="#m647615faab" x="45" y="308.854821" style="stroke: #000000; stroke-width: 0.6"/>
      </g>
     </g>
    </g>
    <g id="ytick_8">
     <g id="line2d_13">
      <g>
       <use xlink:href="#m647615faab" x="45" y="302.029857" style="stroke: #000000; stroke-width: 0.6"/>
      </g>
     </g>
    </g>
    <g id="ytick_9">
     <g id="line2d_14">
      <g>
       <use xlink:href="#m647615faab" x="45" y="296.736003" style="stroke: #000000; stroke-width: 0.6"/>
      </g>
     </g>
    </g>
    <g id="ytick_10">
     <g id="line2d_15">
      <g>
       <use xlink:href="#m647615faab" x="45" y="292.41061" style="stroke: #000000; stroke-width: 0.6"/>
      </g>
     </g>
    </g>
    <g id="ytick_11">
     <g id="line2d_16">
      <g>
       <use xlink:href="#m647615faab" x="45" y="288.753543" style="stroke: #000000; stroke-width: 0.6"/>
      </g>
     </g>
    </g>
    <g id="ytick_12">
     <g id="line2d_17">
      <g>
       <use xlink:href="#m647615faab" x="45" y="285.585646" style="stroke: #000000; stroke-width: 0.6"/>
      </g>
     </g>
    </g>
    <g id="ytick_13">
     <g id="line2d_18">
      <g>
       <use xlink:href="#m647615faab" x="45" y="282.791364" style="stroke: #000000; stroke-width: 0.6"/>
      </g>
     </g>
    </g>
    <g id="ytick_14">
     <g id="line2d_19">
      <g>
       <use xlink:href="#m647615faab" x="45" y="263.847583" style="stroke: #000000; stroke-width: 0.6"/>
      </g>
     </g>
    </g>
    <g id="ytick_15">
     <g id="line2d_20">
      <g>
       <use xlink:href="#m647615faab" x="45" y="254.228336" style="stroke: #000000; stroke-width: 0.6"/>
      </g>
     </g>
    </g>
    <g id="ytick_16">
     <g id="line2d_21">
      <g>
       <use xlink:href="#m647615faab" x="45" y="247.403372" style="stroke: #000000; stroke-width: 0.6"/>
      </g>
     </g>
    </g>
    <g id="ytick_17">
     <g id="line2d_22">
      <g>
       <use xlink:href="#m647615faab" x="45" y="242.109519" style="stroke: #000000; stroke-width: 0.6"/>
      </g>
     </g>
    </g>
    <g id="ytick_18">
     <g id="line2d_23">
      <g>
       <use xlink:href="#m647615faab" x="45" y="237.784126" style="stroke: #000000; stroke-width: 0.6"/>
      </g>
     </g>
    </g>
    <g id="ytick_19">
     <g id="line2d_24">
      <g>
       <use xlink:href="#m647615faab" x="45" y="234.127058" style="stroke: #000000; stroke-width: 0.6"/>
      </g>
     </g>
    </g>
    <g id="ytick_20">
     <g id="line2d_25">
      <g>
       <use xlink:href="#m647615faab" x="45" y="230.959162" style="stroke: #000000; stroke-width: 0.6"/>
      </g>
     </g>
    </g>
    <g id="ytick_21">
     <g id="line2d_26">
      <g>
       <use xlink:href="#m647615faab" x="45" y="228.16488" style="stroke: #000000; stroke-width: 0.6"/>
      </g>
     </g>
    </g>
    <g id="ytick_22">
     <g id="line2d_27">
      <g>
       <use xlink:href="#m647615faab" x="45" y="209.221099" style="stroke: #000000; stroke-width: 0.6"/>
      </g>
     </g>
    </g>
    <g id="ytick_23">
     <g id="line2d_28">
      <g>
       <use xlink:href="#m647615faab" x="45" y="199.601852" style="stroke: #000000; stroke-width: 0.6"/>
      </g>
     </g>
    </g>
    <g id="ytick_24">
     <g id="line2d_29">
      <g>
       <use xlink:href="#m647615faab" x="45" y="192.776888" style="stroke: #000000; stroke-width: 0.6"/>
      </g>
     </g>
    </g>
    <g id="ytick_25">
     <g id="line2d_30">
      <g>
       <use xlink:href="#m647615faab" x="45" y="187.483035" style="stroke: #000000; stroke-width: 0.6"/>
      </g>
     </g>
    </g>
    <g id="ytick_26">
     <g id="line2d_31">
      <g>
       <use xlink:href="#m647615faab" x="45" y="183.157642" style="stroke: #000000; stroke-width: 0.6"/>
      </g>
     </g>
    </g>
    <g id="ytick_27">
     <g id="line2d_32">
      <g>
       <use xlink:href="#m647615faab" x="45" y="179.500574" style="stroke: #000000; stroke-width: 0.6"/>
      </g>
     </g>
    </g>
    <g id="ytick_28">
     <g id="line2d_33">
      <g>
       <use xlink:href="#m647615faab" x="45" y="176.332678" style="stroke: #000000; stroke-width: 0.6"/>
      </g>
     </g>
    </g>
    <g id="ytick_29">
     <g id="line2d_34">
      <g>
       <use xlink:href="#m647615faab" x="45" y="173.538395" style="stroke: #000000; stroke-width: 0.6"/>
      </g>
     </g>
    </g>
    <g id="ytick_30">
     <g id="line2d_35">
      <g>
       <use xlink:href="#m647615faab" x="45" y="154.594614" style="stroke: #000000; stroke-width: 0.6"/>
      </g>
     </g>
    </g>
    <g id="ytick_31">
     <g id="line2d_36">
      <g>
       <use xlink:href="#m647615faab" x="45" y="144.975368" style="stroke: #000000; stroke-width: 0.6"/>
      </g>
     </g>
    </g>
    <g id="ytick_32">
     <g id="line2d_37">
      <g>
       <use xlink:href="#m647615faab" x="45" y="138.150404" style="stroke: #000000; stroke-width: 0.6"/>
      </g>
     </g>
    </g>
    <g id="ytick_33">
     <g id="line2d_38">
      <g>
       <use xlink:href="#m647615faab" x="45" y="132.856551" style="stroke: #000000; stroke-width: 0.6"/>
      </g>
     </g>
    </g>
    <g id="ytick_34">
     <g id="line2d_39">
      <g>
       <use xlink:href="#m647615faab" x="45" y="128.531158" style="stroke: #000000; stroke-width: 0.6"/>
      </g>
     </g>
    </g>
    <g id="ytick_35">
     <g id="line2d_40">
      <g>
       <use xlink:href="#m647615faab" x="45" y="124.87409" style="stroke: #000000; stroke-width: 0.6"/>
      </g>
     </g>
    </g>
    <g id="ytick_36">
     <g id="line2d_41">
      <g>
       <use xlink:href="#m647615faab" x="45" y="121.706194" style="stroke: #000000; stroke-width: 0.6"/>
      </g>
     </g>
    </g>
    <g id="ytick_37">
     <g id="line2d_42">
      <g>
       <use xlink:href="#m647615faab" x="45" y="118.911911" style="stroke: #000000; stroke-width: 0.6"/>
      </g>
     </g>
    </g>
    <g id="ytick_38">
     <g id="line2d_43">
      <g>
       <use xlink:href="#m647615faab" x="45" y="99.96813" style="stroke: #000000; stroke-width: 0.6"/>
      </g>
     </g>
    </g>
    <g id="ytick_39">
     <g id="line2d_44">
      <g>
       <use xlink:href="#m647615faab" x="45" y="90.348884" style="stroke: #000000; stroke-width: 0.6"/>
      </g>
     </g>
    </g>
    <g id="ytick_40">
     <g id="line2d_45">
      <g>
       <use xlink:href="#m647615faab" x="45" y="83.52392" style="stroke: #000000; stroke-width: 0.6"/>
      </g>
     </g>
    </g>
    <g id="ytick_41">
     <g id="line2d_46">
      <g>
       <use xlink:href="#m647615faab" x="45" y="78.230066" style="stroke: #000000; stroke-width: 0.6"/>
      </g>
     </g>
    </g>
    <g id="ytick_42">
     <g id="line2d_47">
      <g>
       <use xlink:href="#m647615faab" x="45" y="73.904673" style="stroke: #000000; stroke-width: 0.6"/>
      </g>
     </g>
    </g>
    <g id="ytick_43">
     <g id="line2d_48">
      <g>
       <use xlink:href="#m647615faab" x="45" y="70.247606" style="stroke: #000000; stroke-width: 0.6"/>
      </g>
     </g>
    </g>
    <g id="ytick_44">
     <g id="line2d_49">
      <g>
       <use xlink:href="#m647615faab" x="45" y="67.079709" style="stroke: #000000; stroke-width: 0.6"/>
      </g>
     </g>
    </g>
    <g id="ytick_45">
     <g id="line2d_50">
      <g>
       <use xlink:href="#m647615faab" x="45" y="64.285427" style="stroke: #000000; stroke-width: 0.6"/>
      </g>
     </g>
    </g>
    <g id="ytick_46">
     <g id="line2d_51">
      <g>
       <use xlink:href="#m647615faab" x="45" y="45.341646" style="stroke: #000000; stroke-width: 0.6"/>
      </g>
     </g>
    </g>
   </g>
   <g id="line2d_52">
    <path d="M 83.045455 160.287351 
L 85.095043 221.63206 
L 87.144626 167.780956 
L 89.194215 163.465619 
L 91.243804 169.643687 
L 93.293387 248.833925 
L 95.342976 160.942766 
L 97.392564 155.010004 
L 99.442147 190.433695 
L 101.491736 180.913339 
L 103.541319 168.611318 
L 105.590908 166.638355 
L 107.640497 176.428612 
L 109.690079 253.947778 
L 111.739668 167.171939 
L 113.789251 170.812504 
L 115.83884 224.349424 
L 117.888429 185.281551 
L 119.938012 173.608735 
L 121.9876 173.683801 
L 124.037189 179.546618 
L 126.086772 208.738329 
L 128.136361 188.158759 
L 130.18595 162.171484 
L 132.235539 155.268494 
L 134.285124 168.668427 
L 136.334713 191.730617 
L 138.384299 216.068004 
L 140.433885 185.757584 
L 142.483471 173.558261 
L 144.53306 170.795255 
L 146.582646 166.427298 
L 148.632231 167.248422 
L 150.681817 167.153676 
L 152.731406 168.298753 
L 154.780992 172.230628 
L 156.830578 175.887023 
L 158.880164 183.239103 
L 160.929752 191.012793 
L 162.979338 204.854168 
L 165.028924 307.8 
L 167.078511 210.845426 
L 169.128097 191.478976 
L 171.177685 181.901818 
L 173.227271 176.802577 
L 175.276858 174.123539 
L 177.326445 169.945021 
L 179.376031 168.414243 
L 181.425623 166.861258 
L 183.47521 167.437784 
L 185.524796 167.938081 
L 187.574383 168.097056 
L 189.62397 170.03302 
L 191.673556 170.512797 
L 193.723144 174.428755 
L 195.77273 178.894977 
L 197.822315 185.86866 
L 199.871903 197.963556 
L 201.921489 216.082199 
L 203.971076 216.678629 
L 206.020662 197.176344 
L 208.070249 183.483571 
L 210.119836 177.712286 
L 212.169422 171.454796 
L 214.219008 168.359499 
L 216.268594 165.17952 
L 218.318183 164.472573 
L 220.367769 162.617915 
L 222.417354 163.105635 
L 224.46694 164.978558 
L 226.516529 170.541617 
L 228.566115 177.78099 
L 230.615701 198.895144 
L 232.665287 217.187897 
L 234.714876 175.745652 
L 236.764461 158.797527 
L 238.81405 147.467027 
L 240.863633 146.669004 
L 242.913222 163.184506 
L 244.962805 204.428118 
L 247.012394 177.920494 
L 249.061982 162.766616 
L 251.111565 158.00001 
L 253.161154 156.442663 
L 255.210743 160.732739 
L 257.260326 171.452372 
L 259.309915 252.896333 
L 261.359503 164.242646 
L 263.409092 143.96968 
L 265.458681 135.817031 
L 267.508264 155.722157 
L 269.557853 220.222959 
L 271.607442 160.266753 
L 273.657024 149.140872 
L 275.706613 145.285645 
L 277.756202 147.259651 
L 279.805785 157.149086 
L 281.855374 196.402023 
L 283.904957 156.316321 
L 285.954545 134.057528 
" clip-path="url(#p367e9d0b60)" style="fill: none; stroke: #1f77b4; stroke-width: 1.5; stroke-linecap: square"/>
   </g>
   <g id="line2d_53">
    <path d="M 57.681818 55.8 
L 58.953174 57.731807 
L 64.038619 66.373747 
L 67.852697 74.428215 
L 69.124053 77.570119 
L 71.666776 84.282062 
L 74.209498 92.675321 
L 74.845188 95.309249 
L 75.480866 97.064376 
L 76.116544 100.423325 
L 76.752221 102.77738 
L 77.387899 106.492518 
L 78.023577 111.324295 
L 78.659254 114.105336 
L 79.930622 126.856025 
L 80.566299 136.15795 
L 81.201977 142.678964 
L 81.837655 143.986422 
L 82.473333 153.076784 
L 83.109022 157.549445 
L 83.7447 184.679277 
L 84.380384 175.822144 
L 85.016061 194.153837 
L 86.287423 182.683633 
L 86.923101 179.171623 
L 87.558784 177.894867 
L 88.194462 175.854352 
L 88.83014 158.137641 
L 89.465823 166.898204 
L 90.101501 162.076742 
L 90.737185 167.434661 
L 91.372862 165.042148 
L 92.00854 209.028672 
L 92.644224 179.223466 
L 93.279902 199.568282 
L 93.915579 181.583385 
L 94.551263 168.411487 
L 95.186941 166.13525 
L 95.822624 148.784502 
L 96.458302 146.15801 
L 97.09398 151.220072 
L 97.729663 165.897446 
L 98.365347 163.299501 
L 99.001025 181.433369 
L 99.636709 229.246266 
L 100.272386 193.442773 
L 100.90807 205.308936 
L 101.543748 173.998185 
L 102.179425 169.419145 
L 102.815109 170.885528 
L 103.450781 175.668491 
L 104.086458 164.741764 
L 104.722142 161.552358 
L 105.35782 163.670768 
L 105.993504 161.255048 
L 107.264859 186.898605 
L 107.900543 166.905305 
L 108.536226 193.759504 
L 109.171904 267.384312 
L 109.807588 216.551018 
L 110.443266 207.718981 
L 111.078949 170.474237 
L 111.714627 162.48416 
L 112.350305 157.063131 
L 112.985988 162.345881 
L 113.621666 170.463944 
L 114.257344 174.326911 
L 114.893027 191.512 
L 115.528705 229.04329 
L 116.164389 198.632342 
L 116.800067 207.96726 
L 117.435744 189.999792 
L 118.071428 180.765443 
L 118.707106 180.654242 
L 119.342783 176.400077 
L 119.978467 179.046745 
L 120.614145 178.43628 
L 121.249829 164.128726 
L 121.885506 169.788549 
L 122.521184 192.274175 
L 123.156868 184.378902 
L 124.428223 174.519629 
L 125.063907 178.457257 
L 125.699584 179.023514 
L 126.335268 204.12755 
L 126.970946 200.653525 
L 127.606623 180.857309 
L 128.242307 175.80936 
L 128.877991 192.204117 
L 129.513669 175.307416 
L 130.78503 151.856181 
L 131.420714 152.625236 
L 132.056391 155.105812 
L 132.692069 154.531016 
L 133.963431 172.324136 
L 134.599111 163.130915 
L 135.234792 184.036548 
L 135.87047 187.731075 
L 136.50615 225.977222 
L 137.141831 185.189723 
L 137.777512 191.304016 
L 138.413193 233.273578 
L 139.04887 183.065027 
L 139.684551 174.092089 
L 140.320232 173.214947 
L 140.955909 204.625071 
L 141.59159 188.742661 
L 142.227271 193.887307 
L 142.862951 182.424504 
L 143.498632 175.661211 
L 144.13431 170.709105 
L 144.769991 162.385704 
L 145.405671 160.939817 
L 146.041349 159.825609 
L 146.67703 172.043765 
L 147.31271 162.586943 
L 147.948391 164.89806 
L 148.584072 161.606737 
L 149.219749 164.980692 
L 149.85543 160.716549 
L 150.491111 161.299176 
L 151.126789 171.098851 
L 151.762469 165.010351 
L 152.39815 176.193141 
L 153.033831 165.896107 
L 153.669511 162.843762 
L 154.305195 168.899183 
L 154.940876 166.608204 
L 155.576557 169.445321 
L 156.212234 164.041359 
L 156.847915 185.870911 
L 157.483596 168.597495 
L 158.119276 189.86956 
L 158.754957 191.74495 
L 159.390635 206.220506 
L 160.026315 173.387763 
L 160.661995 225.808413 
L 161.297675 181.957577 
L 161.933355 216.98519 
L 162.569035 208.580071 
L 163.204716 202.225747 
L 163.840395 218.415189 
L 164.476068 211.613748 
L 165.111749 191.777262 
L 165.747428 199.146441 
L 166.383109 194.918532 
L 167.018788 187.220192 
L 168.29015 176.519475 
L 168.925829 202.631275 
L 169.561514 253.528181 
L 170.197195 182.673506 
L 170.832874 175.38042 
L 171.468555 222.616294 
L 172.104235 185.187443 
L 172.739914 191.876491 
L 173.375594 178.823883 
L 174.011274 184.607562 
L 175.28264 178.252872 
L 175.91832 189.42812 
L 176.554 163.351066 
L 177.18968 162.626169 
L 177.82536 172.025696 
L 178.46104 170.822318 
L 179.09672 173.867583 
L 179.732393 180.797517 
L 180.368073 181.355196 
L 181.003753 164.159306 
L 181.639433 173.813269 
L 182.275114 174.804705 
L 182.910794 167.866825 
L 183.546474 170.572761 
L 184.182154 170.436021 
L 184.817839 166.682484 
L 185.453519 169.338343 
L 186.724879 172.98339 
L 187.360559 178.204521 
L 187.996239 160.67385 
L 188.631919 173.330235 
L 189.2676 166.382124 
L 189.903285 173.956134 
L 190.538964 169.459026 
L 191.174644 162.028756 
L 191.810325 166.892957 
L 192.446005 187.995172 
L 193.081685 169.203687 
L 193.717365 164.572307 
L 194.353045 172.901521 
L 194.98873 169.214003 
L 195.62441 166.96873 
L 196.26009 184.590903 
L 196.895771 179.830874 
L 197.53145 211.443621 
L 198.802811 176.916964 
L 199.438491 182.986503 
L 200.074164 252.624113 
L 200.709844 211.492308 
L 201.345524 210.589657 
L 201.981204 192.312319 
L 202.616884 194.718554 
L 203.252564 212.334441 
L 203.888245 207.383434 
L 204.523924 223.926313 
L 205.159609 181.561385 
L 205.79529 178.415637 
L 206.430969 215.591557 
L 207.06665 175.085567 
L 207.702329 183.084745 
L 208.33801 194.712753 
L 208.973691 173.351526 
L 209.60937 176.445876 
L 210.245049 174.903362 
L 210.88073 171.344176 
L 212.152088 162.486097 
L 212.787769 162.245603 
L 213.42345 163.645734 
L 214.05913 180.701616 
L 214.694811 162.436593 
L 215.330489 160.262662 
L 215.966169 167.562201 
L 216.60185 167.17378 
L 217.873208 171.215281 
L 218.508889 168.439437 
L 219.14457 155.733658 
L 219.780251 163.453565 
L 220.415928 168.28986 
L 221.051609 161.894496 
L 221.68729 158.305764 
L 222.322967 172.919811 
L 222.958648 160.416091 
L 223.594329 159.416713 
L 224.230009 157.629246 
L 224.86569 165.936648 
L 225.501368 171.394512 
L 226.137049 170.309007 
L 226.772729 171.792497 
L 227.408407 163.700033 
L 228.044088 163.819567 
L 228.679768 177.09924 
L 229.315449 207.958141 
L 229.95113 203.896586 
L 230.586807 179.847325 
L 231.222488 198.736132 
L 231.858169 190.008372 
L 232.493847 217.092415 
L 233.129527 193.958184 
L 233.765208 177.276328 
L 234.400889 168.100382 
L 235.036569 187.728011 
L 235.672253 160.794772 
L 236.307931 168.331178 
L 236.943615 155.254328 
L 237.579292 149.468497 
L 238.214976 150.416641 
L 238.850654 143.668782 
L 239.486331 147.969881 
L 240.122015 144.491937 
L 240.757693 144.475575 
L 241.39337 152.302771 
L 242.029054 157.499022 
L 242.664732 165.845894 
L 243.300416 163.046304 
L 243.936093 172.857408 
L 245.207455 201.132882 
L 245.843132 179.122158 
L 246.47881 186.011369 
L 247.114494 179.716334 
L 247.750171 164.763506 
L 248.385855 162.789896 
L 249.021533 168.446246 
L 249.657211 160.440232 
L 250.292894 158.4163 
L 250.928572 155.299723 
L 251.56425 150.916857 
L 252.199933 150.396928 
L 252.835611 152.768898 
L 253.471295 152.900193 
L 254.106973 158.739951 
L 254.74265 155.941892 
L 255.378334 156.890156 
L 256.014012 171.386113 
L 256.649689 168.864884 
L 257.285373 179.957813 
L 257.921051 170.5123 
L 258.556734 179.993888 
L 259.192412 248.337871 
L 260.463774 198.535492 
L 261.099451 169.482784 
L 261.735129 163.053381 
L 262.370813 157.899924 
L 263.00649 145.100345 
L 263.642174 139.970001 
L 264.277852 137.906353 
L 264.913529 134.967592 
L 265.549213 139.903192 
L 266.820575 147.39885 
L 267.456258 153.572277 
L 268.091936 168.621997 
L 268.72762 196.704383 
L 269.363297 205.877516 
L 269.998975 171.471166 
L 270.634659 177.777308 
L 271.270337 158.498546 
L 271.906014 156.103786 
L 272.541698 151.153323 
L 273.177376 149.992427 
L 273.813059 146.102282 
L 274.448737 149.188671 
L 275.084415 144.991648 
L 275.720098 147.94291 
L 276.355776 148.815751 
L 276.991454 143.354502 
L 277.627138 143.370566 
L 278.262815 151.691419 
L 278.898499 154.303304 
L 279.534177 149.384095 
L 280.169854 157.38517 
L 280.805538 157.113585 
L 281.441222 166.398577 
L 282.076899 216.731046 
L 282.712583 186.474701 
L 283.348261 166.848873 
L 283.983945 158.200356 
L 284.619622 143.805753 
L 285.890984 136.548196 
L 286.526655 130.184641 
L 287.162333 125.327962 
L 287.798011 121.354902 
L 288.433701 119.276604 
L 289.069378 114.693067 
L 289.705056 112.619537 
L 290.976411 107.110876 
L 291.612101 103.522391 
L 293.519146 97.171088 
L 294.154824 95.078218 
L 295.426179 91.847928 
L 296.061857 89.619314 
L 296.697535 88.257364 
L 299.875935 80.274795 
L 304.325703 70.667039 
L 306.232736 67.218713 
L 310.046826 60.675825 
L 311.318182 58.81901 
L 311.318182 58.81901 
" clip-path="url(#p367e9d0b60)" style="fill: none; stroke: #ff7f0e; stroke-width: 1.5; stroke-linecap: square"/>
   </g>
   <g id="patch_3">
    <path d="M 45 320.4 
L 45 43.2 
" style="fill: none; stroke: #000000; stroke-width: 0.8; stroke-linejoin: miter; stroke-linecap: square"/>
   </g>
   <g id="patch_4">
    <path d="M 324 320.4 
L 324 43.2 
" style="fill: none; stroke: #000000; stroke-width: 0.8; stroke-linejoin: miter; stroke-linecap: square"/>
   </g>
   <g id="patch_5">
    <path d="M 45 320.4 
L 324 320.4 
" style="fill: none; stroke: #000000; stroke-width: 0.8; stroke-linejoin: miter; stroke-linecap: square"/>
   </g>
   <g id="patch_6">
    <path d="M 45 43.2 
L 324 43.2 
" style="fill: none; stroke: #000000; stroke-width: 0.8; stroke-linejoin: miter; stroke-linecap: square"/>
   </g>
   <g id="text_11">
    <!-- Prediction Error -->
    <g transform="translate(138.166875 37.2)scale(0.12 -0.12)">
     <defs>
      <path id="DejaVuSans-50" d="M 1259 4147 
L 1259 2394 
L 2053 2394 
Q 2494 2394 2734 2622 
Q 2975 2850 2975 3272 
Q 2975 3691 2734 3919 
Q 2494 4147 2053 4147 
L 1259 4147 
z
M 628 4666 
L 2053 4666 
Q 2838 4666 3239 4311 
Q 3641 3956 3641 3272 
Q 3641 2581 3239 2228 
Q 2838 1875 2053 1875 
L 1259 1875 
L 1259 0 
L 628 0 
L 628 4666 
z
" transform="scale(0.015625)"/>
      <path id="DejaVuSans-72" d="M 2631 2963 
Q 2534 3019 2420 3045 
Q 2306 3072 2169 3072 
Q 1681 3072 1420 2755 
Q 1159 2438 1159 1844 
L 1159 0 
L 581 0 
L 581 3500 
L 1159 3500 
L 1159 2956 
Q 1341 3275 1631 3429 
Q 1922 3584 2338 3584 
Q 2397 3584 2469 3576 
Q 2541 3569 2628 3553 
L 2631 2963 
z
" transform="scale(0.015625)"/>
      <path id="DejaVuSans-65" d="M 3597 1894 
L 3597 1613 
L 953 1613 
Q 991 1019 1311 708 
Q 1631 397 2203 397 
Q 2534 397 2845 478 
Q 3156 559 3463 722 
L 3463 178 
Q 3153 47 2828 -22 
Q 2503 -91 2169 -91 
Q 1331 -91 842 396 
Q 353 884 353 1716 
Q 353 2575 817 3079 
Q 1281 3584 2069 3584 
Q 2775 3584 3186 3129 
Q 3597 2675 3597 1894 
z
M 3022 2063 
Q 3016 2534 2758 2815 
Q 2500 3097 2075 3097 
Q 1594 3097 1305 2825 
Q 1016 2553 972 2059 
L 3022 2063 
z
" transform="scale(0.015625)"/>
      <path id="DejaVuSans-64" d="M 2906 2969 
L 2906 4863 
L 3481 4863 
L 3481 0 
L 2906 0 
L 2906 525 
Q 2725 213 2448 61 
Q 2172 -91 1784 -91 
Q 1150 -91 751 415 
Q 353 922 353 1747 
Q 353 2572 751 3078 
Q 1150 3584 1784 3584 
Q 2172 3584 2448 3432 
Q 2725 3281 2906 2969 
z
M 947 1747 
Q 947 1113 1208 752 
Q 1469 391 1925 391 
Q 2381 391 2643 752 
Q 2906 1113 2906 1747 
Q 2906 2381 2643 2742 
Q 2381 3103 1925 3103 
Q 1469 3103 1208 2742 
Q 947 2381 947 1747 
z
" transform="scale(0.015625)"/>
      <path id="DejaVuSans-69" d="M 603 3500 
L 1178 3500 
L 1178 0 
L 603 0 
L 603 3500 
z
M 603 4863 
L 1178 4863 
L 1178 4134 
L 603 4134 
L 603 4863 
z
" transform="scale(0.015625)"/>
      <path id="DejaVuSans-63" d="M 3122 3366 
L 3122 2828 
Q 2878 2963 2633 3030 
Q 2388 3097 2138 3097 
Q 1578 3097 1268 2742 
Q 959 2388 959 1747 
Q 959 1106 1268 751 
Q 1578 397 2138 397 
Q 2388 397 2633 464 
Q 2878 531 3122 666 
L 3122 134 
Q 2881 22 2623 -34 
Q 2366 -91 2075 -91 
Q 1284 -91 818 406 
Q 353 903 353 1747 
Q 353 2603 823 3093 
Q 1294 3584 2113 3584 
Q 2378 3584 2631 3529 
Q 2884 3475 3122 3366 
z
" transform="scale(0.015625)"/>
      <path id="DejaVuSans-74" d="M 1172 4494 
L 1172 3500 
L 2356 3500 
L 2356 3053 
L 1172 3053 
L 1172 1153 
Q 1172 725 1289 603 
Q 1406 481 1766 481 
L 2356 481 
L 2356 0 
L 1766 0 
Q 1100 0 847 248 
Q 594 497 594 1153 
L 594 3053 
L 172 3053 
L 172 3500 
L 594 3500 
L 594 4494 
L 1172 4494 
z
" transform="scale(0.015625)"/>
      <path id="DejaVuSans-6f" d="M 1959 3097 
Q 1497 3097 1228 2736 
Q 959 2375 959 1747 
Q 959 1119 1226 758 
Q 1494 397 1959 397 
Q 2419 397 2687 759 
Q 2956 1122 2956 1747 
Q 2956 2369 2687 2733 
Q 2419 3097 1959 3097 
z
M 1959 3584 
Q 2709 3584 3137 3096 
Q 3566 2609 3566 1747 
Q 3566 888 3137 398 
Q 2709 -91 1959 -91 
Q 1206 -91 779 398 
Q 353 888 353 1747 
Q 353 2609 779 3096 
Q 1206 3584 1959 3584 
z
" transform="scale(0.015625)"/>
      <path id="DejaVuSans-6e" d="M 3513 2113 
L 3513 0 
L 2938 0 
L 2938 2094 
Q 2938 2591 2744 2837 
Q 2550 3084 2163 3084 
Q 1697 3084 1428 2787 
Q 1159 2491 1159 1978 
L 1159 0 
L 581 0 
L 581 3500 
L 1159 3500 
L 1159 2956 
Q 1366 3272 1645 3428 
Q 1925 3584 2291 3584 
Q 2894 3584 3203 3211 
Q 3513 2838 3513 2113 
z
" transform="scale(0.015625)"/>
      <path id="DejaVuSans-20" transform="scale(0.015625)"/>
      <path id="DejaVuSans-45" d="M 628 4666 
L 3578 4666 
L 3578 4134 
L 1259 4134 
L 1259 2753 
L 3481 2753 
L 3481 2222 
L 1259 2222 
L 1259 531 
L 3634 531 
L 3634 0 
L 628 0 
L 628 4666 
z
" transform="scale(0.015625)"/>
     </defs>
     <use xlink:href="#DejaVuSans-50"/>
     <use xlink:href="#DejaVuSans-72" x="58.552734"/>
     <use xlink:href="#DejaVuSans-65" x="97.416016"/>
     <use xlink:href="#DejaVuSans-64" x="158.939453"/>
     <use xlink:href="#DejaVuSans-69" x="222.416016"/>
     <use xlink:href="#DejaVuSans-63" x="250.199219"/>
     <use xlink:href="#DejaVuSans-74" x="305.179688"/>
     <use xlink:href="#DejaVuSans-69" x="344.388672"/>
     <use xlink:href="#DejaVuSans-6f" x="372.171875"/>
     <use xlink:href="#DejaVuSans-6e" x="433.353516"/>
     <use xlink:href="#DejaVuSans-20" x="496.732422"/>
     <use xlink:href="#DejaVuSans-45" x="528.519531"/>
     <use xlink:href="#DejaVuSans-72" x="591.703125"/>
     <use xlink:href="#DejaVuSans-72" x="631.066406"/>
     <use xlink:href="#DejaVuSans-6f" x="669.929688"/>
     <use xlink:href="#DejaVuSans-72" x="731.111328"/>
    </g>
   </g>
   <g id="legend_1">
    <g id="patch_7">
     <path d="M 52 315.4 
L 134.657813 315.4 
Q 136.657813 315.4 136.657813 313.4 
L 136.657813 285.04375 
Q 136.657813 283.04375 134.657813 283.04375 
L 52 283.04375 
Q 50 283.04375 50 285.04375 
L 50 313.4 
Q 50 315.4 52 315.4 
z
" style="fill: #ffffff; opacity: 0.8; stroke: #cccccc; stroke-linejoin: miter"/>
    </g>
    <g id="line2d_54">
     <path d="M 54 291.142187 
L 64 291.142187 
L 74 291.142187 
" style="fill: none; stroke: #1f77b4; stroke-width: 1.5; stroke-linecap: square"/>
    </g>
    <g id="text_12">
     <!-- train error -->
     <g transform="translate(82 294.642187)scale(0.1 -0.1)">
      <defs>
       <path id="DejaVuSans-61" d="M 2194 1759 
Q 1497 1759 1228 1600 
Q 959 1441 959 1056 
Q 959 750 1161 570 
Q 1363 391 1709 391 
Q 2188 391 2477 730 
Q 2766 1069 2766 1631 
L 2766 1759 
L 2194 1759 
z
M 3341 1997 
L 3341 0 
L 2766 0 
L 2766 531 
Q 2569 213 2275 61 
Q 1981 -91 1556 -91 
Q 1019 -91 701 211 
Q 384 513 384 1019 
Q 384 1609 779 1909 
Q 1175 2209 1959 2209 
L 2766 2209 
L 2766 2266 
Q 2766 2663 2505 2880 
Q 2244 3097 1772 3097 
Q 1472 3097 1187 3025 
Q 903 2953 641 2809 
L 641 3341 
Q 956 3463 1253 3523 
Q 1550 3584 1831 3584 
Q 2591 3584 2966 3190 
Q 3341 2797 3341 1997 
z
" transform="scale(0.015625)"/>
      </defs>
      <use xlink:href="#DejaVuSans-74"/>
      <use xlink:href="#DejaVuSans-72" x="39.208984"/>
      <use xlink:href="#DejaVuSans-61" x="80.322266"/>
      <use xlink:href="#DejaVuSans-69" x="141.601562"/>
      <use xlink:href="#DejaVuSans-6e" x="169.384766"/>
      <use xlink:href="#DejaVuSans-20" x="232.763672"/>
      <use xlink:href="#DejaVuSans-65" x="264.550781"/>
      <use xlink:href="#DejaVuSans-72" x="326.074219"/>
      <use xlink:href="#DejaVuSans-72" x="365.4375"/>
      <use xlink:href="#DejaVuSans-6f" x="404.300781"/>
      <use xlink:href="#DejaVuSans-72" x="465.482422"/>
     </g>
    </g>
    <g id="line2d_55">
     <path d="M 54 305.820312 
L 64 305.820312 
L 74 305.820312 
" style="fill: none; stroke: #ff7f0e; stroke-width: 1.5; stroke-linecap: square"/>
    </g>
    <g id="text_13">
     <!-- test error -->
     <g transform="translate(82 309.320312)scale(0.1 -0.1)">
      <defs>
       <path id="DejaVuSans-73" d="M 2834 3397 
L 2834 2853 
Q 2591 2978 2328 3040 
Q 2066 3103 1784 3103 
Q 1356 3103 1142 2972 
Q 928 2841 928 2578 
Q 928 2378 1081 2264 
Q 1234 2150 1697 2047 
L 1894 2003 
Q 2506 1872 2764 1633 
Q 3022 1394 3022 966 
Q 3022 478 2636 193 
Q 2250 -91 1575 -91 
Q 1294 -91 989 -36 
Q 684 19 347 128 
L 347 722 
Q 666 556 975 473 
Q 1284 391 1588 391 
Q 1994 391 2212 530 
Q 2431 669 2431 922 
Q 2431 1156 2273 1281 
Q 2116 1406 1581 1522 
L 1381 1569 
Q 847 1681 609 1914 
Q 372 2147 372 2553 
Q 372 3047 722 3315 
Q 1072 3584 1716 3584 
Q 2034 3584 2315 3537 
Q 2597 3491 2834 3397 
z
" transform="scale(0.015625)"/>
      </defs>
      <use xlink:href="#DejaVuSans-74"/>
      <use xlink:href="#DejaVuSans-65" x="39.208984"/>
      <use xlink:href="#DejaVuSans-73" x="100.732422"/>
      <use xlink:href="#DejaVuSans-74" x="152.832031"/>
      <use xlink:href="#DejaVuSans-20" x="192.041016"/>
      <use xlink:href="#DejaVuSans-65" x="223.828125"/>
      <use xlink:href="#DejaVuSans-72" x="285.351562"/>
      <use xlink:href="#DejaVuSans-72" x="324.714844"/>
      <use xlink:href="#DejaVuSans-6f" x="363.578125"/>
      <use xlink:href="#DejaVuSans-72" x="424.759766"/>
     </g>
    </g>
   </g>
  </g>
 </g>
 <defs>
  <clipPath id="p367e9d0b60">
   <rect x="45" y="43.2" width="279" height="277.2"/>
  </clipPath>
 </defs>
</svg>
