<?xml version="1.0" encoding="utf-8" standalone="no"?>
<!DOCTYPE svg PUBLIC "-//W3C//DTD SVG 1.1//EN"
  "http://www.w3.org/Graphics/SVG/1.1/DTD/svg11.dtd">
<svg xmlns:xlink="http://www.w3.org/1999/xlink" width="360pt" height="360pt" viewBox="0 0 360 360" xmlns="http://www.w3.org/2000/svg" version="1.1">
 <metadata>
  <rdf:RDF xmlns:dc="http://purl.org/dc/elements/1.1/" xmlns:cc="http://creativecommons.org/ns#" xmlns:rdf="http://www.w3.org/1999/02/22-rdf-syntax-ns#">
   <cc:Work>
    <dc:type rdf:resource="http://purl.org/dc/dcmitype/StillImage"/>
    <dc:date>2022-11-15T20:44:52.270355</dc:date>
    <dc:format>image/svg+xml</dc:format>
    <dc:creator>
     <cc:Agent>
      <dc:title>Matplotlib v3.5.3, https://matplotlib.org/</dc:title>
     </cc:Agent>
    </dc:creator>
   </cc:Work>
  </rdf:RDF>
 </metadata>
 <defs>
  <style type="text/css">*{stroke-linejoin: round; stroke-linecap: butt}</style>
 </defs>
 <g id="figure_1">
  <g id="patch_1">
   <path d="M 0 360 
L 360 360 
L 360 0 
L 0 0 
z
" style="fill: #ffffff"/>
  </g>
  <g id="axes_1">
   <g id="patch_2">
    <path d="M 45 320.4 
L 324 320.4 
L 324 43.2 
L 45 43.2 
z
" style="fill: #ffffff"/>
   </g>
   <g id="matplotlib.axis_1">
    <g id="xtick_1">
     <g id="line2d_1">
      <defs>
       <path id="m474d47b8ca" d="M 0 0 
L 0 3.5 
" style="stroke: #000000; stroke-width: 0.8"/>
      </defs>
      <g>
       <use xlink:href="#m474d47b8ca" x="83.045455" y="320.4" style="stroke: #000000; stroke-width: 0.8"/>
      </g>
     </g>
     <g id="text_1">
      <!-- −2 -->
      <g transform="translate(75.674361 334.998438)scale(0.1 -0.1)">
       <defs>
        <path id="DejaVuSans-2212" d="M 678 2272 
L 4684 2272 
L 4684 1741 
L 678 1741 
L 678 2272 
z
" transform="scale(0.015625)"/>
        <path id="DejaVuSans-32" d="M 1228 531 
L 3431 531 
L 3431 0 
L 469 0 
L 469 531 
Q 828 903 1448 1529 
Q 2069 2156 2228 2338 
Q 2531 2678 2651 2914 
Q 2772 3150 2772 3378 
Q 2772 3750 2511 3984 
Q 2250 4219 1831 4219 
Q 1534 4219 1204 4116 
Q 875 4013 500 3803 
L 500 4441 
Q 881 4594 1212 4672 
Q 1544 4750 1819 4750 
Q 2544 4750 2975 4387 
Q 3406 4025 3406 3419 
Q 3406 3131 3298 2873 
Q 3191 2616 2906 2266 
Q 2828 2175 2409 1742 
Q 1991 1309 1228 531 
z
" transform="scale(0.015625)"/>
       </defs>
       <use xlink:href="#DejaVuSans-2212"/>
       <use xlink:href="#DejaVuSans-32" x="83.789062"/>
      </g>
     </g>
    </g>
    <g id="xtick_2">
     <g id="line2d_2">
      <g>
       <use xlink:href="#m474d47b8ca" x="133.772727" y="320.4" style="stroke: #000000; stroke-width: 0.8"/>
      </g>
     </g>
     <g id="text_2">
      <!-- −1 -->
      <g transform="translate(126.401634 334.998438)scale(0.1 -0.1)">
       <defs>
        <path id="DejaVuSans-31" d="M 794 531 
L 1825 531 
L 1825 4091 
L 703 3866 
L 703 4441 
L 1819 4666 
L 2450 4666 
L 2450 531 
L 3481 531 
L 3481 0 
L 794 0 
L 794 531 
z
" transform="scale(0.015625)"/>
       </defs>
       <use xlink:href="#DejaVuSans-2212"/>
       <use xlink:href="#DejaVuSans-31" x="83.789062"/>
      </g>
     </g>
    </g>
    <g id="xtick_3">
     <g id="line2d_3">
      <g>
       <use xlink:href="#m474d47b8ca" x="184.5" y="320.4" style="stroke: #000000; stroke-width: 0.8"/>
      </g>
     </g>
     <g id="text_3">
      <!-- 0 -->
      <g transform="translate(181.31875 334.998438)scale(0.1 -0.1)">
       <defs>
        <path id="DejaVuSans-30" d="M 2034 4250 
Q 1547 4250 1301 3770 
Q 1056 3291 1056 2328 
Q 1056 1369 1301 889 
Q 1547 409 2034 409 
Q 2525 409 2770 889 
Q 3016 1369 3016 2328 
Q 3016 3291 2770 3770 
Q 2525 4250 2034 4250 
z
M 2034 4750 
Q 2819 4750 3233 4129 
Q 3647 3509 3647 2328 
Q 3647 1150 3233 529 
Q 2819 -91 2034 -91 
Q 1250 -91 836 529 
Q 422 1150 422 2328 
Q 422 3509 836 4129 
Q 1250 4750 2034 4750 
z
" transform="scale(0.015625)"/>
       </defs>
       <use xlink:href="#DejaVuSans-30"/>
      </g>
     </g>
    </g>
    <g id="xtick_4">
     <g id="line2d_4">
      <g>
       <use xlink:href="#m474d47b8ca" x="235.227273" y="320.4" style="stroke: #000000; stroke-width: 0.8"/>
      </g>
     </g>
     <g id="text_4">
      <!-- 1 -->
      <g transform="translate(232.046023 334.998438)scale(0.1 -0.1)">
       <use xlink:href="#DejaVuSans-31"/>
      </g>
     </g>
    </g>
    <g id="xtick_5">
     <g id="line2d_5">
      <g>
       <use xlink:href="#m474d47b8ca" x="285.954545" y="320.4" style="stroke: #000000; stroke-width: 0.8"/>
      </g>
     </g>
     <g id="text_5">
      <!-- 2 -->
      <g transform="translate(282.773295 334.998438)scale(0.1 -0.1)">
       <use xlink:href="#DejaVuSans-32"/>
      </g>
     </g>
    </g>
   </g>
   <g id="matplotlib.axis_2">
    <g id="ytick_1">
     <g id="line2d_6">
      <defs>
       <path id="me422377777" d="M 0 0 
L -3.5 0 
" style="stroke: #000000; stroke-width: 0.8"/>
      </defs>
      <g>
       <use xlink:href="#me422377777" x="45" y="310.957085" style="stroke: #000000; stroke-width: 0.8"/>
      </g>
     </g>
     <g id="text_6">
      <!-- −0.06 -->
      <g transform="translate(7.354687 314.756303)scale(0.1 -0.1)">
       <defs>
        <path id="DejaVuSans-2e" d="M 684 794 
L 1344 794 
L 1344 0 
L 684 0 
L 684 794 
z
" transform="scale(0.015625)"/>
        <path id="DejaVuSans-36" d="M 2113 2584 
Q 1688 2584 1439 2293 
Q 1191 2003 1191 1497 
Q 1191 994 1439 701 
Q 1688 409 2113 409 
Q 2538 409 2786 701 
Q 3034 994 3034 1497 
Q 3034 2003 2786 2293 
Q 2538 2584 2113 2584 
z
M 3366 4563 
L 3366 3988 
Q 3128 4100 2886 4159 
Q 2644 4219 2406 4219 
Q 1781 4219 1451 3797 
Q 1122 3375 1075 2522 
Q 1259 2794 1537 2939 
Q 1816 3084 2150 3084 
Q 2853 3084 3261 2657 
Q 3669 2231 3669 1497 
Q 3669 778 3244 343 
Q 2819 -91 2113 -91 
Q 1303 -91 875 529 
Q 447 1150 447 2328 
Q 447 3434 972 4092 
Q 1497 4750 2381 4750 
Q 2619 4750 2861 4703 
Q 3103 4656 3366 4563 
z
" transform="scale(0.015625)"/>
       </defs>
       <use xlink:href="#DejaVuSans-2212"/>
       <use xlink:href="#DejaVuSans-30" x="83.789062"/>
       <use xlink:href="#DejaVuSans-2e" x="147.412109"/>
       <use xlink:href="#DejaVuSans-30" x="179.199219"/>
       <use xlink:href="#DejaVuSans-36" x="242.822266"/>
      </g>
     </g>
    </g>
    <g id="ytick_2">
     <g id="line2d_7">
      <g>
       <use xlink:href="#me422377777" x="45" y="253.72401" style="stroke: #000000; stroke-width: 0.8"/>
      </g>
     </g>
     <g id="text_7">
      <!-- −0.04 -->
      <g transform="translate(7.354687 257.523229)scale(0.1 -0.1)">
       <defs>
        <path id="DejaVuSans-34" d="M 2419 4116 
L 825 1625 
L 2419 1625 
L 2419 4116 
z
M 2253 4666 
L 3047 4666 
L 3047 1625 
L 3713 1625 
L 3713 1100 
L 3047 1100 
L 3047 0 
L 2419 0 
L 2419 1100 
L 313 1100 
L 313 1709 
L 2253 4666 
z
" transform="scale(0.015625)"/>
       </defs>
       <use xlink:href="#DejaVuSans-2212"/>
       <use xlink:href="#DejaVuSans-30" x="83.789062"/>
       <use xlink:href="#DejaVuSans-2e" x="147.412109"/>
       <use xlink:href="#DejaVuSans-30" x="179.199219"/>
       <use xlink:href="#DejaVuSans-34" x="242.822266"/>
      </g>
     </g>
    </g>
    <g id="ytick_3">
     <g id="line2d_8">
      <g>
       <use xlink:href="#me422377777" x="45" y="196.490936" style="stroke: #000000; stroke-width: 0.8"/>
      </g>
     </g>
     <g id="text_8">
      <!-- −0.02 -->
      <g transform="translate(7.354687 200.290155)scale(0.1 -0.1)">
       <use xlink:href="#DejaVuSans-2212"/>
       <use xlink:href="#DejaVuSans-30" x="83.789062"/>
       <use xlink:href="#DejaVuSans-2e" x="147.412109"/>
       <use xlink:href="#DejaVuSans-30" x="179.199219"/>
       <use xlink:href="#DejaVuSans-32" x="242.822266"/>
      </g>
     </g>
    </g>
    <g id="ytick_4">
     <g id="line2d_9">
      <g>
       <use xlink:href="#me422377777" x="45" y="139.257861" style="stroke: #000000; stroke-width: 0.8"/>
      </g>
     </g>
     <g id="text_9">
      <!-- 0.00 -->
      <g transform="translate(15.734375 143.05708)scale(0.1 -0.1)">
       <use xlink:href="#DejaVuSans-30"/>
       <use xlink:href="#DejaVuSans-2e" x="63.623047"/>
       <use xlink:href="#DejaVuSans-30" x="95.410156"/>
       <use xlink:href="#DejaVuSans-30" x="159.033203"/>
      </g>
     </g>
    </g>
    <g id="ytick_5">
     <g id="line2d_10">
      <g>
       <use xlink:href="#me422377777" x="45" y="82.024787" style="stroke: #000000; stroke-width: 0.8"/>
      </g>
     </g>
     <g id="text_10">
      <!-- 0.02 -->
      <g transform="translate(15.734375 85.824006)scale(0.1 -0.1)">
       <use xlink:href="#DejaVuSans-30"/>
       <use xlink:href="#DejaVuSans-2e" x="63.623047"/>
       <use xlink:href="#DejaVuSans-30" x="95.410156"/>
       <use xlink:href="#DejaVuSans-32" x="159.033203"/>
      </g>
     </g>
    </g>
   </g>
   <g id="line2d_11">
    <path d="M 57.681818 192.322135 
L 99.001025 192.2492 
L 102.815109 192.076108 
L 105.35782 191.790372 
L 107.900543 191.261305 
L 110.443266 190.4537 
L 114.893027 188.948064 
L 117.435744 188.412737 
L 119.978467 188.127342 
L 123.792545 187.961278 
L 130.149352 187.949594 
L 136.50615 188.156458 
L 140.320232 188.493262 
L 143.498632 189.011037 
L 146.041349 189.662811 
L 148.584072 190.600866 
L 150.491111 191.526367 
L 153.033831 193.064412 
L 155.576557 194.889761 
L 161.933355 199.620631 
L 163.840395 200.761184 
L 165.747428 201.672426 
L 167.654469 202.349137 
L 169.561514 202.806872 
L 171.468555 203.08251 
L 174.011274 203.230495 
L 177.18968 203.154899 
L 179.732393 202.884037 
L 182.275114 202.368513 
L 184.182154 201.761701 
L 186.089199 200.877204 
L 187.360559 200.098187 
L 188.631919 199.127042 
L 189.903285 197.927608 
L 191.174644 196.473552 
L 192.446005 194.723116 
L 193.717365 192.663475 
L 194.98873 190.288625 
L 196.895771 186.190357 
L 199.438491 180.054758 
L 202.616884 172.388552 
L 204.523924 168.364413 
L 206.430969 165.008968 
L 207.702329 163.164106 
L 208.973691 161.616407 
L 210.245049 160.336432 
L 211.51641 159.291124 
L 213.42345 158.084425 
L 215.330489 157.214529 
L 217.237528 156.5895 
L 219.780251 156.026148 
L 222.958648 155.594339 
L 226.772729 155.315767 
L 231.858169 155.163962 
L 250.928572 155.030544 
L 280.805538 154.920937 
L 311.318182 154.940245 
L 311.318182 154.940245 
" clip-path="url(#pc30c3f6da9)" style="fill: none; stroke: #1f77b4; stroke-width: 1.5; stroke-linecap: square"/>
   </g>
   <g id="line2d_12">
    <path d="M 57.681818 99.014355 
L 97.09398 98.940704 
L 100.90807 98.760414 
L 103.450781 98.451447 
L 105.35782 98.018989 
L 107.264859 97.327712 
L 109.171904 96.336644 
L 112.350305 94.258582 
L 114.257344 93.097766 
L 116.164389 92.21245 
L 118.071428 91.621228 
L 119.978467 91.259812 
L 122.521184 91.000736 
L 126.335268 90.835797 
L 139.684551 90.423773 
L 143.498632 90.059167 
L 146.67703 89.524471 
L 149.219749 88.884501 
L 151.762469 88.028932 
L 154.940876 86.696729 
L 161.933355 83.588096 
L 165.111749 82.50615 
L 167.654469 81.871603 
L 170.197195 81.465993 
L 172.739914 81.269431 
L 175.91832 81.261107 
L 179.09672 81.513957 
L 181.639433 81.960981 
L 183.546474 82.501613 
L 185.453519 83.284451 
L 187.360559 84.390413 
L 188.631919 85.346002 
L 189.903285 86.526332 
L 191.174644 87.95146 
L 192.446005 89.661506 
L 193.717365 91.668202 
L 195.62441 95.247807 
L 197.53145 99.414848 
L 203.888245 114.114181 
L 205.79529 117.640092 
L 207.06665 119.619429 
L 208.33801 121.310882 
L 209.60937 122.73393 
L 210.88073 123.919752 
L 212.787769 125.327653 
L 214.694811 126.383093 
L 216.60185 127.163748 
L 218.508889 127.738903 
L 221.051609 128.259203 
L 224.230009 128.637522 
L 228.679768 128.910226 
L 235.036569 129.060428 
L 268.091936 129.316962 
L 311.318182 129.289228 
L 311.318182 129.289228 
" clip-path="url(#pc30c3f6da9)" style="fill: none; stroke: #ff7f0e; stroke-width: 1.5; stroke-linecap: square"/>
   </g>
   <g id="line2d_13">
    <path d="M 57.681818 76.185553 
L 97.09398 76.276671 
L 100.90807 76.499944 
L 103.450781 76.880754 
L 105.35782 77.415757 
L 106.629181 77.944483 
L 107.900543 78.639445 
L 109.807588 79.985328 
L 114.893027 83.938818 
L 116.800067 84.914756 
L 118.707106 85.545055 
L 120.614145 85.91633 
L 123.156868 86.170903 
L 126.970946 86.303366 
L 147.948391 86.647333 
L 154.305195 87.051442 
L 161.933355 87.490006 
L 177.82536 88.194349 
L 181.003753 88.66307 
L 182.910794 89.128788 
L 184.817839 89.824705 
L 186.089199 90.462492 
L 187.360559 91.277261 
L 188.631919 92.314723 
L 189.903285 93.612403 
L 191.174644 95.217651 
L 192.446005 97.161033 
L 193.717365 99.467929 
L 194.98873 102.136429 
L 196.895771 106.763048 
L 199.438491 113.695676 
L 202.616884 122.333027 
L 204.523924 126.842739 
L 205.79529 129.430424 
L 207.06665 131.652991 
L 208.33801 133.519447 
L 209.60937 135.055411 
L 210.88073 136.297179 
L 212.152088 137.281662 
L 213.42345 138.050889 
L 215.330489 138.878484 
L 217.237528 139.409906 
L 219.14457 139.741762 
L 222.322967 140.024496 
L 228.044088 140.208504 
L 238.214976 140.313847 
L 311.318182 140.223651 
L 311.318182 140.223651 
" clip-path="url(#pc30c3f6da9)" style="fill: none; stroke: #2ca02c; stroke-width: 1.5; stroke-linecap: square"/>
   </g>
   <g id="line2d_14">
    <path d="M 57.681818 169.327882 
L 101.543748 169.41552 
L 105.35782 169.609046 
L 108.536226 169.98201 
L 117.435744 171.363797 
L 121.249829 171.535354 
L 126.970946 171.534758 
L 140.955909 171.193792 
L 145.405671 170.931937 
L 148.584072 170.547545 
L 151.762469 169.94585 
L 155.576557 168.972317 
L 162.569035 167.121928 
L 166.383109 166.391045 
L 170.197195 165.90595 
L 175.28264 165.582758 
L 179.732393 165.245853 
L 182.275114 164.868147 
L 184.817839 164.2496 
L 186.724879 163.558049 
L 188.631919 162.596866 
L 190.538964 161.291817 
L 191.810325 160.193496 
L 193.081685 158.890221 
L 194.98873 156.533929 
L 196.895771 153.733341 
L 200.074164 148.465592 
L 202.616884 144.30899 
L 204.523924 141.564109 
L 206.430969 139.274714 
L 208.33801 137.471163 
L 210.245049 136.113068 
L 212.152088 135.13319 
L 214.05913 134.455865 
L 215.966169 134.008022 
L 218.508889 133.662383 
L 221.68729 133.479193 
L 228.044088 133.417857 
L 249.021533 133.504949 
L 278.262815 133.706048 
L 310.046826 133.65249 
L 311.318182 133.653036 
L 311.318182 133.653036 
" clip-path="url(#pc30c3f6da9)" style="fill: none; stroke: #d62728; stroke-width: 1.5; stroke-linecap: square"/>
   </g>
   <g id="line2d_15">
    <path d="M 57.681818 58.691432 
L 102.815109 58.566508 
L 106.629181 58.3111 
L 109.807588 57.869841 
L 116.164389 56.878808 
L 119.978467 56.62942 
L 125.699584 56.530201 
L 151.126789 56.294101 
L 166.383109 55.839879 
L 171.468555 56.133528 
L 175.91832 56.579256 
L 178.46104 57.029555 
L 180.368073 57.552312 
L 182.275114 58.305539 
L 183.546474 58.985082 
L 184.817839 59.844334 
L 186.089199 60.932421 
L 187.360559 62.295736 
L 188.631919 63.99773 
L 189.903285 66.095032 
L 191.174644 68.656825 
L 192.446005 71.734142 
L 193.717365 75.364645 
L 194.98873 79.55461 
L 196.895771 86.787505 
L 199.438491 97.607716 
L 202.616884 111.053034 
L 204.523924 118.050307 
L 205.79529 122.046542 
L 207.06665 125.471953 
L 208.33801 128.340325 
L 209.60937 130.693991 
L 210.88073 132.59108 
L 212.152088 134.095114 
L 213.42345 135.274386 
L 214.694811 136.18631 
L 215.966169 136.88209 
L 217.873208 137.621263 
L 219.780251 138.098444 
L 222.322967 138.478128 
L 225.501368 138.717195 
L 230.586807 138.851671 
L 243.936093 138.88442 
L 266.184897 138.798761 
L 288.433701 138.791085 
L 310.682504 138.863099 
L 311.318182 138.862519 
L 311.318182 138.862519 
" clip-path="url(#pc30c3f6da9)" style="fill: none; stroke: #9467bd; stroke-width: 1.5; stroke-linecap: square"/>
   </g>
   <g id="line2d_16">
    <path d="M 57.681818 300.924052 
L 98.365347 301.018376 
L 102.179425 301.245265 
L 104.722142 301.623414 
L 106.629181 302.130342 
L 108.536226 302.884729 
L 111.078949 304.229315 
L 114.257344 305.930969 
L 116.164389 306.679352 
L 118.071428 307.176012 
L 120.614145 307.544694 
L 123.792545 307.737436 
L 129.513669 307.796827 
L 136.50615 307.650497 
L 140.955909 307.359816 
L 144.13431 306.963075 
L 146.67703 306.466654 
L 149.219749 305.760503 
L 151.762469 304.821698 
L 154.940876 303.348264 
L 161.933355 299.903954 
L 164.476068 298.940859 
L 168.29015 297.813917 
L 176.554 295.576477 
L 178.46104 294.805237 
L 180.368073 293.747853 
L 181.639433 292.815597 
L 182.910794 291.633766 
L 184.182154 290.126765 
L 185.453519 288.216951 
L 186.724879 285.800619 
L 187.996239 282.755369 
L 189.2676 278.960438 
L 190.538964 274.280057 
L 191.810325 268.591414 
L 193.081685 261.799948 
L 194.353045 253.861856 
L 195.62441 244.813982 
L 197.53145 229.471472 
L 203.888245 175.792882 
L 205.159609 167.10917 
L 206.430969 159.569559 
L 207.702329 153.184522 
L 208.973691 147.8932 
L 210.245049 143.584963 
L 211.51641 140.128849 
L 212.787769 137.397034 
L 214.05913 135.251734 
L 215.330489 133.585082 
L 216.60185 132.296817 
L 217.873208 131.307523 
L 219.14457 130.547814 
L 221.051609 129.731886 
L 222.958648 129.192141 
L 225.501368 128.745116 
L 228.679768 128.435024 
L 233.765208 128.211683 
L 240.757693 128.131584 
L 252.199933 128.234999 
L 271.270337 128.491994 
L 301.78298 128.504513 
L 311.318182 128.488582 
L 311.318182 128.488582 
" clip-path="url(#pc30c3f6da9)" style="fill: none; stroke: #8c564b; stroke-width: 1.5; stroke-linecap: square"/>
   </g>
   <g id="line2d_17">
    <path d="M 57.681818 107.119398 
L 99.001025 107.053286 
L 103.450781 106.849185 
L 105.993504 106.546734 
L 108.536226 106.009854 
L 111.714627 105.044338 
L 114.893027 104.133369 
L 117.435744 103.66644 
L 120.614145 103.371562 
L 125.699584 103.207459 
L 140.955909 103.08366 
L 149.85543 102.965696 
L 165.111749 102.571411 
L 170.832874 102.80642 
L 178.46104 103.282099 
L 181.639433 103.683138 
L 184.182154 104.222815 
L 186.089199 104.844774 
L 187.996239 105.735957 
L 189.2676 106.52589 
L 190.538964 107.508361 
L 191.810325 108.707931 
L 193.081685 110.147387 
L 194.98873 112.764853 
L 196.895771 115.890475 
L 200.074164 121.768311 
L 202.616884 126.378897 
L 204.523924 129.403986 
L 206.430969 131.90243 
L 207.702329 133.26322 
L 208.973691 134.392755 
L 210.245049 135.315493 
L 212.152088 136.377653 
L 214.05913 137.13685 
L 215.966169 137.680348 
L 218.508889 138.17322 
L 221.68729 138.55154 
L 226.137049 138.816944 
L 234.400889 138.98816 
L 247.114494 138.983691 
L 263.00649 138.82056 
L 276.991454 138.652482 
L 295.426179 138.573219 
L 311.318182 138.575624 
L 311.318182 138.575624 
" clip-path="url(#pc30c3f6da9)" style="fill: none; stroke: #e377c2; stroke-width: 1.5; stroke-linecap: square"/>
   </g>
   <g id="line2d_18">
    <path d="M 57.681818 113.655217 
L 100.272386 113.49021 
L 103.450781 113.208295 
L 105.35782 112.865897 
L 107.264859 112.316191 
L 109.171904 111.527417 
L 112.350305 109.866735 
L 114.893027 108.677297 
L 116.800067 108.049556 
L 118.707106 107.647238 
L 121.249829 107.355788 
L 125.063907 107.198047 
L 132.056391 107.207309 
L 139.04887 107.404417 
L 143.498632 107.729315 
L 146.67703 108.163444 
L 149.85543 108.841076 
L 153.033831 109.774764 
L 161.297675 112.454044 
L 165.111749 113.299788 
L 171.468555 114.413153 
L 177.18968 115.165084 
L 181.003753 115.712402 
L 183.546474 116.269954 
L 185.453519 116.86585 
L 187.360559 117.671613 
L 189.2676 118.7481 
L 191.174644 120.168317 
L 193.081685 121.998441 
L 194.98873 124.272043 
L 196.895771 126.955553 
L 200.074164 131.999653 
L 203.252564 136.927086 
L 205.159609 139.454322 
L 207.06665 141.541833 
L 208.973691 143.18041 
L 210.88073 144.419961 
L 212.787769 145.329463 
L 214.694811 145.980657 
L 217.237528 146.555334 
L 220.415928 146.957124 
L 224.230009 147.173472 
L 229.95113 147.261485 
L 251.56425 147.204703 
L 262.370813 147.187425 
L 287.162333 147.455864 
L 311.318182 147.441741 
L 311.318182 147.441741 
" clip-path="url(#pc30c3f6da9)" style="fill: none; stroke: #7f7f7f; stroke-width: 1.5; stroke-linecap: square"/>
   </g>
   <g id="line2d_19">
    <path d="M 57.681818 184.067674 
L 99.636709 184.204094 
L 102.815109 184.442514 
L 105.35782 184.873164 
L 107.264859 185.433513 
L 109.171904 186.236478 
L 115.528705 189.376496 
L 117.435744 189.935908 
L 119.978467 190.371504 
L 123.156868 190.626315 
L 129.513669 190.819517 
L 136.50615 190.840173 
L 140.955909 190.623177 
L 145.405671 190.185295 
L 149.219749 189.586738 
L 152.39815 188.874447 
L 156.212234 187.760843 
L 163.840395 185.390632 
L 166.383109 184.830112 
L 169.561514 184.39032 
L 174.64696 184.043249 
L 178.46104 183.691879 
L 181.003753 183.24772 
L 182.910794 182.732332 
L 184.817839 181.987292 
L 186.724879 180.931409 
L 187.996239 180.008023 
L 189.2676 178.864399 
L 190.538964 177.465743 
L 191.810325 175.77794 
L 193.081685 173.767832 
L 194.353045 171.429824 
L 196.26009 167.325006 
L 198.802811 161.01113 
L 202.616884 151.29272 
L 204.523924 147.067311 
L 205.79529 144.638254 
L 207.06665 142.538632 
L 208.33801 140.763464 
L 209.60937 139.286858 
L 210.88073 138.070061 
L 212.152088 137.07664 
L 214.05913 135.921043 
L 215.966169 135.068613 
L 217.873208 134.439831 
L 220.415928 133.850349 
L 223.594329 133.386336 
L 228.044088 133.039537 
L 235.036569 132.814286 
L 258.556734 132.490684 
L 268.72762 132.556114 
L 286.526655 132.647811 
L 311.318182 132.64191 
L 311.318182 132.64191 
" clip-path="url(#pc30c3f6da9)" style="fill: none; stroke: #bcbd22; stroke-width: 1.5; stroke-linecap: square"/>
   </g>
   <g id="line2d_20">
    <path d="M 57.681818 91.270916 
L 105.993504 91.15162 
L 111.078949 90.882021 
L 117.435744 90.556253 
L 123.792545 90.510064 
L 132.056391 90.654381 
L 141.59159 91.046209 
L 144.769991 91.377998 
L 147.31271 91.816767 
L 149.85543 92.454622 
L 152.39815 93.319606 
L 155.576557 94.695816 
L 163.204716 98.315061 
L 165.111749 98.962195 
L 167.018788 99.42365 
L 169.561514 99.772973 
L 173.375594 99.984136 
L 177.82536 100.255543 
L 180.368073 100.59818 
L 182.910794 101.198169 
L 184.817839 101.89818 
L 186.724879 102.897298 
L 187.996239 103.78466 
L 189.2676 104.889804 
L 190.538964 106.248888 
L 191.810325 107.900121 
L 193.081685 109.866291 
L 194.353045 112.165 
L 196.26009 116.19968 
L 198.802811 122.402756 
L 202.616884 131.884827 
L 204.523924 135.953109 
L 205.79529 138.264474 
L 207.06665 140.234601 
L 208.33801 141.871473 
L 209.60937 143.206507 
L 210.88073 144.277366 
L 212.152088 145.125396 
L 214.05913 146.074606 
L 215.966169 146.740912 
L 218.508889 147.353182 
L 221.68729 147.850899 
L 225.501368 148.215096 
L 229.95113 148.423052 
L 239.486331 148.560871 
L 266.820575 148.589253 
L 280.169854 148.420187 
L 301.14729 148.442719 
L 311.318182 148.462078 
L 311.318182 148.462078 
" clip-path="url(#pc30c3f6da9)" style="fill: none; stroke: #17becf; stroke-width: 1.5; stroke-linecap: square"/>
   </g>
   <g id="patch_3">
    <path d="M 45 320.4 
L 45 43.2 
" style="fill: none; stroke: #000000; stroke-width: 0.8; stroke-linejoin: miter; stroke-linecap: square"/>
   </g>
   <g id="patch_4">
    <path d="M 324 320.4 
L 324 43.2 
" style="fill: none; stroke: #000000; stroke-width: 0.8; stroke-linejoin: miter; stroke-linecap: square"/>
   </g>
   <g id="patch_5">
    <path d="M 45 320.4 
L 324 320.4 
" style="fill: none; stroke: #000000; stroke-width: 0.8; stroke-linejoin: miter; stroke-linecap: square"/>
   </g>
   <g id="patch_6">
    <path d="M 45 43.2 
L 324 43.2 
" style="fill: none; stroke: #000000; stroke-width: 0.8; stroke-linejoin: miter; stroke-linecap: square"/>
   </g>
   <g id="text_11">
    <!-- Single Draw Deviation -->
    <g transform="translate(117.87 37.2)scale(0.12 -0.12)">
     <defs>
      <path id="DejaVuSans-53" d="M 3425 4513 
L 3425 3897 
Q 3066 4069 2747 4153 
Q 2428 4238 2131 4238 
Q 1616 4238 1336 4038 
Q 1056 3838 1056 3469 
Q 1056 3159 1242 3001 
Q 1428 2844 1947 2747 
L 2328 2669 
Q 3034 2534 3370 2195 
Q 3706 1856 3706 1288 
Q 3706 609 3251 259 
Q 2797 -91 1919 -91 
Q 1588 -91 1214 -16 
Q 841 59 441 206 
L 441 856 
Q 825 641 1194 531 
Q 1563 422 1919 422 
Q 2459 422 2753 634 
Q 3047 847 3047 1241 
Q 3047 1584 2836 1778 
Q 2625 1972 2144 2069 
L 1759 2144 
Q 1053 2284 737 2584 
Q 422 2884 422 3419 
Q 422 4038 858 4394 
Q 1294 4750 2059 4750 
Q 2388 4750 2728 4690 
Q 3069 4631 3425 4513 
z
" transform="scale(0.015625)"/>
      <path id="DejaVuSans-69" d="M 603 3500 
L 1178 3500 
L 1178 0 
L 603 0 
L 603 3500 
z
M 603 4863 
L 1178 4863 
L 1178 4134 
L 603 4134 
L 603 4863 
z
" transform="scale(0.015625)"/>
      <path id="DejaVuSans-6e" d="M 3513 2113 
L 3513 0 
L 2938 0 
L 2938 2094 
Q 2938 2591 2744 2837 
Q 2550 3084 2163 3084 
Q 1697 3084 1428 2787 
Q 1159 2491 1159 1978 
L 1159 0 
L 581 0 
L 581 3500 
L 1159 3500 
L 1159 2956 
Q 1366 3272 1645 3428 
Q 1925 3584 2291 3584 
Q 2894 3584 3203 3211 
Q 3513 2838 3513 2113 
z
" transform="scale(0.015625)"/>
      <path id="DejaVuSans-67" d="M 2906 1791 
Q 2906 2416 2648 2759 
Q 2391 3103 1925 3103 
Q 1463 3103 1205 2759 
Q 947 2416 947 1791 
Q 947 1169 1205 825 
Q 1463 481 1925 481 
Q 2391 481 2648 825 
Q 2906 1169 2906 1791 
z
M 3481 434 
Q 3481 -459 3084 -895 
Q 2688 -1331 1869 -1331 
Q 1566 -1331 1297 -1286 
Q 1028 -1241 775 -1147 
L 775 -588 
Q 1028 -725 1275 -790 
Q 1522 -856 1778 -856 
Q 2344 -856 2625 -561 
Q 2906 -266 2906 331 
L 2906 616 
Q 2728 306 2450 153 
Q 2172 0 1784 0 
Q 1141 0 747 490 
Q 353 981 353 1791 
Q 353 2603 747 3093 
Q 1141 3584 1784 3584 
Q 2172 3584 2450 3431 
Q 2728 3278 2906 2969 
L 2906 3500 
L 3481 3500 
L 3481 434 
z
" transform="scale(0.015625)"/>
      <path id="DejaVuSans-6c" d="M 603 4863 
L 1178 4863 
L 1178 0 
L 603 0 
L 603 4863 
z
" transform="scale(0.015625)"/>
      <path id="DejaVuSans-65" d="M 3597 1894 
L 3597 1613 
L 953 1613 
Q 991 1019 1311 708 
Q 1631 397 2203 397 
Q 2534 397 2845 478 
Q 3156 559 3463 722 
L 3463 178 
Q 3153 47 2828 -22 
Q 2503 -91 2169 -91 
Q 1331 -91 842 396 
Q 353 884 353 1716 
Q 353 2575 817 3079 
Q 1281 3584 2069 3584 
Q 2775 3584 3186 3129 
Q 3597 2675 3597 1894 
z
M 3022 2063 
Q 3016 2534 2758 2815 
Q 2500 3097 2075 3097 
Q 1594 3097 1305 2825 
Q 1016 2553 972 2059 
L 3022 2063 
z
" transform="scale(0.015625)"/>
      <path id="DejaVuSans-20" transform="scale(0.015625)"/>
      <path id="DejaVuSans-44" d="M 1259 4147 
L 1259 519 
L 2022 519 
Q 2988 519 3436 956 
Q 3884 1394 3884 2338 
Q 3884 3275 3436 3711 
Q 2988 4147 2022 4147 
L 1259 4147 
z
M 628 4666 
L 1925 4666 
Q 3281 4666 3915 4102 
Q 4550 3538 4550 2338 
Q 4550 1131 3912 565 
Q 3275 0 1925 0 
L 628 0 
L 628 4666 
z
" transform="scale(0.015625)"/>
      <path id="DejaVuSans-72" d="M 2631 2963 
Q 2534 3019 2420 3045 
Q 2306 3072 2169 3072 
Q 1681 3072 1420 2755 
Q 1159 2438 1159 1844 
L 1159 0 
L 581 0 
L 581 3500 
L 1159 3500 
L 1159 2956 
Q 1341 3275 1631 3429 
Q 1922 3584 2338 3584 
Q 2397 3584 2469 3576 
Q 2541 3569 2628 3553 
L 2631 2963 
z
" transform="scale(0.015625)"/>
      <path id="DejaVuSans-61" d="M 2194 1759 
Q 1497 1759 1228 1600 
Q 959 1441 959 1056 
Q 959 750 1161 570 
Q 1363 391 1709 391 
Q 2188 391 2477 730 
Q 2766 1069 2766 1631 
L 2766 1759 
L 2194 1759 
z
M 3341 1997 
L 3341 0 
L 2766 0 
L 2766 531 
Q 2569 213 2275 61 
Q 1981 -91 1556 -91 
Q 1019 -91 701 211 
Q 384 513 384 1019 
Q 384 1609 779 1909 
Q 1175 2209 1959 2209 
L 2766 2209 
L 2766 2266 
Q 2766 2663 2505 2880 
Q 2244 3097 1772 3097 
Q 1472 3097 1187 3025 
Q 903 2953 641 2809 
L 641 3341 
Q 956 3463 1253 3523 
Q 1550 3584 1831 3584 
Q 2591 3584 2966 3190 
Q 3341 2797 3341 1997 
z
" transform="scale(0.015625)"/>
      <path id="DejaVuSans-77" d="M 269 3500 
L 844 3500 
L 1563 769 
L 2278 3500 
L 2956 3500 
L 3675 769 
L 4391 3500 
L 4966 3500 
L 4050 0 
L 3372 0 
L 2619 2869 
L 1863 0 
L 1184 0 
L 269 3500 
z
" transform="scale(0.015625)"/>
      <path id="DejaVuSans-76" d="M 191 3500 
L 800 3500 
L 1894 563 
L 2988 3500 
L 3597 3500 
L 2284 0 
L 1503 0 
L 191 3500 
z
" transform="scale(0.015625)"/>
      <path id="DejaVuSans-74" d="M 1172 4494 
L 1172 3500 
L 2356 3500 
L 2356 3053 
L 1172 3053 
L 1172 1153 
Q 1172 725 1289 603 
Q 1406 481 1766 481 
L 2356 481 
L 2356 0 
L 1766 0 
Q 1100 0 847 248 
Q 594 497 594 1153 
L 594 3053 
L 172 3053 
L 172 3500 
L 594 3500 
L 594 4494 
L 1172 4494 
z
" transform="scale(0.015625)"/>
      <path id="DejaVuSans-6f" d="M 1959 3097 
Q 1497 3097 1228 2736 
Q 959 2375 959 1747 
Q 959 1119 1226 758 
Q 1494 397 1959 397 
Q 2419 397 2687 759 
Q 2956 1122 2956 1747 
Q 2956 2369 2687 2733 
Q 2419 3097 1959 3097 
z
M 1959 3584 
Q 2709 3584 3137 3096 
Q 3566 2609 3566 1747 
Q 3566 888 3137 398 
Q 2709 -91 1959 -91 
Q 1206 -91 779 398 
Q 353 888 353 1747 
Q 353 2609 779 3096 
Q 1206 3584 1959 3584 
z
" transform="scale(0.015625)"/>
     </defs>
     <use xlink:href="#DejaVuSans-53"/>
     <use xlink:href="#DejaVuSans-69" x="63.476562"/>
     <use xlink:href="#DejaVuSans-6e" x="91.259766"/>
     <use xlink:href="#DejaVuSans-67" x="154.638672"/>
     <use xlink:href="#DejaVuSans-6c" x="218.115234"/>
     <use xlink:href="#DejaVuSans-65" x="245.898438"/>
     <use xlink:href="#DejaVuSans-20" x="307.421875"/>
     <use xlink:href="#DejaVuSans-44" x="339.208984"/>
     <use xlink:href="#DejaVuSans-72" x="416.210938"/>
     <use xlink:href="#DejaVuSans-61" x="457.324219"/>
     <use xlink:href="#DejaVuSans-77" x="518.603516"/>
     <use xlink:href="#DejaVuSans-20" x="600.390625"/>
     <use xlink:href="#DejaVuSans-44" x="632.177734"/>
     <use xlink:href="#DejaVuSans-65" x="709.179688"/>
     <use xlink:href="#DejaVuSans-76" x="770.703125"/>
     <use xlink:href="#DejaVuSans-69" x="829.882812"/>
     <use xlink:href="#DejaVuSans-61" x="857.666016"/>
     <use xlink:href="#DejaVuSans-74" x="918.945312"/>
     <use xlink:href="#DejaVuSans-69" x="958.154297"/>
     <use xlink:href="#DejaVuSans-6f" x="985.9375"/>
     <use xlink:href="#DejaVuSans-6e" x="1047.119141"/>
    </g>
   </g>
  </g>
 </g>
 <defs>
  <clipPath id="pc30c3f6da9">
   <rect x="45" y="43.2" width="279" height="277.2"/>
  </clipPath>
 </defs>
</svg>
