<?xml version="1.0" encoding="utf-8" standalone="no"?>
<!DOCTYPE svg PUBLIC "-//W3C//DTD SVG 1.1//EN"
  "http://www.w3.org/Graphics/SVG/1.1/DTD/svg11.dtd">
<svg xmlns:xlink="http://www.w3.org/1999/xlink" width="360pt" height="360pt" viewBox="0 0 360 360" xmlns="http://www.w3.org/2000/svg" version="1.1">
 <metadata>
  <rdf:RDF xmlns:dc="http://purl.org/dc/elements/1.1/" xmlns:cc="http://creativecommons.org/ns#" xmlns:rdf="http://www.w3.org/1999/02/22-rdf-syntax-ns#">
   <cc:Work>
    <dc:type rdf:resource="http://purl.org/dc/dcmitype/StillImage"/>
    <dc:date>2022-11-15T20:44:51.344134</dc:date>
    <dc:format>image/svg+xml</dc:format>
    <dc:creator>
     <cc:Agent>
      <dc:title>Matplotlib v3.5.3, https://matplotlib.org/</dc:title>
     </cc:Agent>
    </dc:creator>
   </cc:Work>
  </rdf:RDF>
 </metadata>
 <defs>
  <style type="text/css">*{stroke-linejoin: round; stroke-linecap: butt}</style>
 </defs>
 <g id="figure_1">
  <g id="patch_1">
   <path d="M 0 360 
L 360 360 
L 360 0 
L 0 0 
z
" style="fill: #ffffff"/>
  </g>
  <g id="axes_1">
   <g id="patch_2">
    <path d="M 45 320.4 
L 324 320.4 
L 324 43.2 
L 45 43.2 
z
" style="fill: #ffffff"/>
   </g>
   <g id="matplotlib.axis_1">
    <g id="xtick_1">
     <g id="line2d_1">
      <defs>
       <path id="mcde5cadbae" d="M 0 0 
L 0 3.5 
" style="stroke: #000000; stroke-width: 0.8"/>
      </defs>
      <g>
       <use xlink:href="#mcde5cadbae" x="83.045455" y="320.4" style="stroke: #000000; stroke-width: 0.8"/>
      </g>
     </g>
     <g id="text_1">
      <!-- −2 -->
      <g transform="translate(75.674361 334.998438)scale(0.1 -0.1)">
       <defs>
        <path id="DejaVuSans-2212" d="M 678 2272 
L 4684 2272 
L 4684 1741 
L 678 1741 
L 678 2272 
z
" transform="scale(0.015625)"/>
        <path id="DejaVuSans-32" d="M 1228 531 
L 3431 531 
L 3431 0 
L 469 0 
L 469 531 
Q 828 903 1448 1529 
Q 2069 2156 2228 2338 
Q 2531 2678 2651 2914 
Q 2772 3150 2772 3378 
Q 2772 3750 2511 3984 
Q 2250 4219 1831 4219 
Q 1534 4219 1204 4116 
Q 875 4013 500 3803 
L 500 4441 
Q 881 4594 1212 4672 
Q 1544 4750 1819 4750 
Q 2544 4750 2975 4387 
Q 3406 4025 3406 3419 
Q 3406 3131 3298 2873 
Q 3191 2616 2906 2266 
Q 2828 2175 2409 1742 
Q 1991 1309 1228 531 
z
" transform="scale(0.015625)"/>
       </defs>
       <use xlink:href="#DejaVuSans-2212"/>
       <use xlink:href="#DejaVuSans-32" x="83.789062"/>
      </g>
     </g>
    </g>
    <g id="xtick_2">
     <g id="line2d_2">
      <g>
       <use xlink:href="#mcde5cadbae" x="133.772727" y="320.4" style="stroke: #000000; stroke-width: 0.8"/>
      </g>
     </g>
     <g id="text_2">
      <!-- −1 -->
      <g transform="translate(126.401634 334.998438)scale(0.1 -0.1)">
       <defs>
        <path id="DejaVuSans-31" d="M 794 531 
L 1825 531 
L 1825 4091 
L 703 3866 
L 703 4441 
L 1819 4666 
L 2450 4666 
L 2450 531 
L 3481 531 
L 3481 0 
L 794 0 
L 794 531 
z
" transform="scale(0.015625)"/>
       </defs>
       <use xlink:href="#DejaVuSans-2212"/>
       <use xlink:href="#DejaVuSans-31" x="83.789062"/>
      </g>
     </g>
    </g>
    <g id="xtick_3">
     <g id="line2d_3">
      <g>
       <use xlink:href="#mcde5cadbae" x="184.5" y="320.4" style="stroke: #000000; stroke-width: 0.8"/>
      </g>
     </g>
     <g id="text_3">
      <!-- 0 -->
      <g transform="translate(181.31875 334.998438)scale(0.1 -0.1)">
       <defs>
        <path id="DejaVuSans-30" d="M 2034 4250 
Q 1547 4250 1301 3770 
Q 1056 3291 1056 2328 
Q 1056 1369 1301 889 
Q 1547 409 2034 409 
Q 2525 409 2770 889 
Q 3016 1369 3016 2328 
Q 3016 3291 2770 3770 
Q 2525 4250 2034 4250 
z
M 2034 4750 
Q 2819 4750 3233 4129 
Q 3647 3509 3647 2328 
Q 3647 1150 3233 529 
Q 2819 -91 2034 -91 
Q 1250 -91 836 529 
Q 422 1150 422 2328 
Q 422 3509 836 4129 
Q 1250 4750 2034 4750 
z
" transform="scale(0.015625)"/>
       </defs>
       <use xlink:href="#DejaVuSans-30"/>
      </g>
     </g>
    </g>
    <g id="xtick_4">
     <g id="line2d_4">
      <g>
       <use xlink:href="#mcde5cadbae" x="235.227273" y="320.4" style="stroke: #000000; stroke-width: 0.8"/>
      </g>
     </g>
     <g id="text_4">
      <!-- 1 -->
      <g transform="translate(232.046023 334.998438)scale(0.1 -0.1)">
       <use xlink:href="#DejaVuSans-31"/>
      </g>
     </g>
    </g>
    <g id="xtick_5">
     <g id="line2d_5">
      <g>
       <use xlink:href="#mcde5cadbae" x="285.954545" y="320.4" style="stroke: #000000; stroke-width: 0.8"/>
      </g>
     </g>
     <g id="text_5">
      <!-- 2 -->
      <g transform="translate(282.773295 334.998438)scale(0.1 -0.1)">
       <use xlink:href="#DejaVuSans-32"/>
      </g>
     </g>
    </g>
   </g>
   <g id="matplotlib.axis_2">
    <g id="ytick_1">
     <g id="line2d_6">
      <defs>
       <path id="m3acf84c8ab" d="M 0 0 
L -3.5 0 
" style="stroke: #000000; stroke-width: 0.8"/>
      </defs>
      <g>
       <use xlink:href="#m3acf84c8ab" x="45" y="265.654715" style="stroke: #000000; stroke-width: 0.8"/>
      </g>
     </g>
     <g id="text_6">
      <!-- $\mathdefault{10^{-3}}$ -->
      <g transform="translate(14.5 269.453934)scale(0.1 -0.1)">
       <defs>
        <path id="DejaVuSans-33" d="M 2597 2516 
Q 3050 2419 3304 2112 
Q 3559 1806 3559 1356 
Q 3559 666 3084 287 
Q 2609 -91 1734 -91 
Q 1441 -91 1130 -33 
Q 819 25 488 141 
L 488 750 
Q 750 597 1062 519 
Q 1375 441 1716 441 
Q 2309 441 2620 675 
Q 2931 909 2931 1356 
Q 2931 1769 2642 2001 
Q 2353 2234 1838 2234 
L 1294 2234 
L 1294 2753 
L 1863 2753 
Q 2328 2753 2575 2939 
Q 2822 3125 2822 3475 
Q 2822 3834 2567 4026 
Q 2313 4219 1838 4219 
Q 1578 4219 1281 4162 
Q 984 4106 628 3988 
L 628 4550 
Q 988 4650 1302 4700 
Q 1616 4750 1894 4750 
Q 2613 4750 3031 4423 
Q 3450 4097 3450 3541 
Q 3450 3153 3228 2886 
Q 3006 2619 2597 2516 
z
" transform="scale(0.015625)"/>
       </defs>
       <use xlink:href="#DejaVuSans-31" transform="translate(0 0.765625)"/>
       <use xlink:href="#DejaVuSans-30" transform="translate(63.623047 0.765625)"/>
       <use xlink:href="#DejaVuSans-2212" transform="translate(128.203125 39.046875)scale(0.7)"/>
       <use xlink:href="#DejaVuSans-33" transform="translate(186.855469 39.046875)scale(0.7)"/>
      </g>
     </g>
    </g>
    <g id="ytick_2">
     <g id="line2d_7">
      <g>
       <use xlink:href="#m3acf84c8ab" x="45" y="198.955009" style="stroke: #000000; stroke-width: 0.8"/>
      </g>
     </g>
     <g id="text_7">
      <!-- $\mathdefault{10^{-2}}$ -->
      <g transform="translate(14.5 202.754227)scale(0.1 -0.1)">
       <use xlink:href="#DejaVuSans-31" transform="translate(0 0.765625)"/>
       <use xlink:href="#DejaVuSans-30" transform="translate(63.623047 0.765625)"/>
       <use xlink:href="#DejaVuSans-2212" transform="translate(128.203125 39.046875)scale(0.7)"/>
       <use xlink:href="#DejaVuSans-32" transform="translate(186.855469 39.046875)scale(0.7)"/>
      </g>
     </g>
    </g>
    <g id="ytick_3">
     <g id="line2d_8">
      <g>
       <use xlink:href="#m3acf84c8ab" x="45" y="132.255302" style="stroke: #000000; stroke-width: 0.8"/>
      </g>
     </g>
     <g id="text_8">
      <!-- $\mathdefault{10^{-1}}$ -->
      <g transform="translate(14.5 136.054521)scale(0.1 -0.1)">
       <use xlink:href="#DejaVuSans-31" transform="translate(0 0.684375)"/>
       <use xlink:href="#DejaVuSans-30" transform="translate(63.623047 0.684375)"/>
       <use xlink:href="#DejaVuSans-2212" transform="translate(128.203125 38.965625)scale(0.7)"/>
       <use xlink:href="#DejaVuSans-31" transform="translate(186.855469 38.965625)scale(0.7)"/>
      </g>
     </g>
    </g>
    <g id="ytick_4">
     <g id="line2d_9">
      <g>
       <use xlink:href="#m3acf84c8ab" x="45" y="65.555595" style="stroke: #000000; stroke-width: 0.8"/>
      </g>
     </g>
     <g id="text_9">
      <!-- $\mathdefault{10^{0}}$ -->
      <g transform="translate(20.4 69.354814)scale(0.1 -0.1)">
       <use xlink:href="#DejaVuSans-31" transform="translate(0 0.765625)"/>
       <use xlink:href="#DejaVuSans-30" transform="translate(63.623047 0.765625)"/>
       <use xlink:href="#DejaVuSans-30" transform="translate(128.203125 39.046875)scale(0.7)"/>
      </g>
     </g>
    </g>
    <g id="ytick_5">
     <g id="line2d_10">
      <defs>
       <path id="md0a445a91f" d="M 0 0 
L -2 0 
" style="stroke: #000000; stroke-width: 0.6"/>
      </defs>
      <g>
       <use xlink:href="#md0a445a91f" x="45" y="312.275809" style="stroke: #000000; stroke-width: 0.6"/>
      </g>
     </g>
    </g>
    <g id="ytick_6">
     <g id="line2d_11">
      <g>
       <use xlink:href="#md0a445a91f" x="45" y="300.530574" style="stroke: #000000; stroke-width: 0.6"/>
      </g>
     </g>
    </g>
    <g id="ytick_7">
     <g id="line2d_12">
      <g>
       <use xlink:href="#md0a445a91f" x="45" y="292.197197" style="stroke: #000000; stroke-width: 0.6"/>
      </g>
     </g>
    </g>
    <g id="ytick_8">
     <g id="line2d_13">
      <g>
       <use xlink:href="#md0a445a91f" x="45" y="285.733327" style="stroke: #000000; stroke-width: 0.6"/>
      </g>
     </g>
    </g>
    <g id="ytick_9">
     <g id="line2d_14">
      <g>
       <use xlink:href="#md0a445a91f" x="45" y="280.451962" style="stroke: #000000; stroke-width: 0.6"/>
      </g>
     </g>
    </g>
    <g id="ytick_10">
     <g id="line2d_15">
      <g>
       <use xlink:href="#md0a445a91f" x="45" y="275.98663" style="stroke: #000000; stroke-width: 0.6"/>
      </g>
     </g>
    </g>
    <g id="ytick_11">
     <g id="line2d_16">
      <g>
       <use xlink:href="#md0a445a91f" x="45" y="272.118584" style="stroke: #000000; stroke-width: 0.6"/>
      </g>
     </g>
    </g>
    <g id="ytick_12">
     <g id="line2d_17">
      <g>
       <use xlink:href="#md0a445a91f" x="45" y="268.706726" style="stroke: #000000; stroke-width: 0.6"/>
      </g>
     </g>
    </g>
    <g id="ytick_13">
     <g id="line2d_18">
      <g>
       <use xlink:href="#md0a445a91f" x="45" y="245.576103" style="stroke: #000000; stroke-width: 0.6"/>
      </g>
     </g>
    </g>
    <g id="ytick_14">
     <g id="line2d_19">
      <g>
       <use xlink:href="#md0a445a91f" x="45" y="233.830867" style="stroke: #000000; stroke-width: 0.6"/>
      </g>
     </g>
    </g>
    <g id="ytick_15">
     <g id="line2d_20">
      <g>
       <use xlink:href="#md0a445a91f" x="45" y="225.49749" style="stroke: #000000; stroke-width: 0.6"/>
      </g>
     </g>
    </g>
    <g id="ytick_16">
     <g id="line2d_21">
      <g>
       <use xlink:href="#md0a445a91f" x="45" y="219.033621" style="stroke: #000000; stroke-width: 0.6"/>
      </g>
     </g>
    </g>
    <g id="ytick_17">
     <g id="line2d_22">
      <g>
       <use xlink:href="#md0a445a91f" x="45" y="213.752255" style="stroke: #000000; stroke-width: 0.6"/>
      </g>
     </g>
    </g>
    <g id="ytick_18">
     <g id="line2d_23">
      <g>
       <use xlink:href="#md0a445a91f" x="45" y="209.286924" style="stroke: #000000; stroke-width: 0.6"/>
      </g>
     </g>
    </g>
    <g id="ytick_19">
     <g id="line2d_24">
      <g>
       <use xlink:href="#md0a445a91f" x="45" y="205.418878" style="stroke: #000000; stroke-width: 0.6"/>
      </g>
     </g>
    </g>
    <g id="ytick_20">
     <g id="line2d_25">
      <g>
       <use xlink:href="#md0a445a91f" x="45" y="202.00702" style="stroke: #000000; stroke-width: 0.6"/>
      </g>
     </g>
    </g>
    <g id="ytick_21">
     <g id="line2d_26">
      <g>
       <use xlink:href="#md0a445a91f" x="45" y="178.876396" style="stroke: #000000; stroke-width: 0.6"/>
      </g>
     </g>
    </g>
    <g id="ytick_22">
     <g id="line2d_27">
      <g>
       <use xlink:href="#md0a445a91f" x="45" y="167.131161" style="stroke: #000000; stroke-width: 0.6"/>
      </g>
     </g>
    </g>
    <g id="ytick_23">
     <g id="line2d_28">
      <g>
       <use xlink:href="#md0a445a91f" x="45" y="158.797784" style="stroke: #000000; stroke-width: 0.6"/>
      </g>
     </g>
    </g>
    <g id="ytick_24">
     <g id="line2d_29">
      <g>
       <use xlink:href="#md0a445a91f" x="45" y="152.333914" style="stroke: #000000; stroke-width: 0.6"/>
      </g>
     </g>
    </g>
    <g id="ytick_25">
     <g id="line2d_30">
      <g>
       <use xlink:href="#md0a445a91f" x="45" y="147.052548" style="stroke: #000000; stroke-width: 0.6"/>
      </g>
     </g>
    </g>
    <g id="ytick_26">
     <g id="line2d_31">
      <g>
       <use xlink:href="#md0a445a91f" x="45" y="142.587217" style="stroke: #000000; stroke-width: 0.6"/>
      </g>
     </g>
    </g>
    <g id="ytick_27">
     <g id="line2d_32">
      <g>
       <use xlink:href="#md0a445a91f" x="45" y="138.719171" style="stroke: #000000; stroke-width: 0.6"/>
      </g>
     </g>
    </g>
    <g id="ytick_28">
     <g id="line2d_33">
      <g>
       <use xlink:href="#md0a445a91f" x="45" y="135.307313" style="stroke: #000000; stroke-width: 0.6"/>
      </g>
     </g>
    </g>
    <g id="ytick_29">
     <g id="line2d_34">
      <g>
       <use xlink:href="#md0a445a91f" x="45" y="112.17669" style="stroke: #000000; stroke-width: 0.6"/>
      </g>
     </g>
    </g>
    <g id="ytick_30">
     <g id="line2d_35">
      <g>
       <use xlink:href="#md0a445a91f" x="45" y="100.431454" style="stroke: #000000; stroke-width: 0.6"/>
      </g>
     </g>
    </g>
    <g id="ytick_31">
     <g id="line2d_36">
      <g>
       <use xlink:href="#md0a445a91f" x="45" y="92.098077" style="stroke: #000000; stroke-width: 0.6"/>
      </g>
     </g>
    </g>
    <g id="ytick_32">
     <g id="line2d_37">
      <g>
       <use xlink:href="#md0a445a91f" x="45" y="85.634208" style="stroke: #000000; stroke-width: 0.6"/>
      </g>
     </g>
    </g>
    <g id="ytick_33">
     <g id="line2d_38">
      <g>
       <use xlink:href="#md0a445a91f" x="45" y="80.352842" style="stroke: #000000; stroke-width: 0.6"/>
      </g>
     </g>
    </g>
    <g id="ytick_34">
     <g id="line2d_39">
      <g>
       <use xlink:href="#md0a445a91f" x="45" y="75.887511" style="stroke: #000000; stroke-width: 0.6"/>
      </g>
     </g>
    </g>
    <g id="ytick_35">
     <g id="line2d_40">
      <g>
       <use xlink:href="#md0a445a91f" x="45" y="72.019465" style="stroke: #000000; stroke-width: 0.6"/>
      </g>
     </g>
    </g>
    <g id="ytick_36">
     <g id="line2d_41">
      <g>
       <use xlink:href="#md0a445a91f" x="45" y="68.607607" style="stroke: #000000; stroke-width: 0.6"/>
      </g>
     </g>
    </g>
    <g id="ytick_37">
     <g id="line2d_42">
      <g>
       <use xlink:href="#md0a445a91f" x="45" y="45.476983" style="stroke: #000000; stroke-width: 0.6"/>
      </g>
     </g>
    </g>
   </g>
   <g id="line2d_43">
    <path d="M 83.045455 91.970744 
L 85.095043 102.425416 
L 87.144626 153.369591 
L 89.194215 152.820494 
L 91.243804 118.585199 
L 93.293387 113.868136 
L 95.342976 100.644107 
L 97.392564 112.456612 
L 99.442147 121.56092 
L 101.491736 105.026223 
L 103.541319 166.31922 
L 105.590908 160.484915 
L 107.640497 150.492465 
L 109.690079 196.37693 
L 111.739668 197.703992 
L 113.789251 130.738745 
L 115.83884 181.085729 
L 117.888429 149.005125 
L 119.938012 138.49767 
L 121.9876 175.433143 
L 124.037189 162.927021 
L 126.086772 225.171182 
L 128.136361 153.284978 
L 130.18595 157.124059 
L 132.235539 129.781778 
L 134.285124 143.883231 
L 136.334713 167.596556 
L 138.384299 156.126468 
L 140.433885 167.947057 
L 142.483471 134.228232 
L 144.53306 142.680215 
L 146.582646 124.375739 
L 148.632231 187.297321 
L 150.681817 152.833184 
L 152.731406 133.820683 
L 154.780992 246.025401 
L 156.830578 155.02966 
L 158.880164 178.428255 
L 160.929752 158.012203 
L 162.979338 141.835107 
L 165.028924 197.845971 
L 167.078511 140.413842 
L 169.128097 174.536834 
L 171.177685 188.671637 
L 173.227271 186.525246 
L 175.276858 129.48777 
L 177.326445 239.550241 
L 179.376031 164.134716 
L 181.425623 180.784015 
L 183.47521 144.979851 
L 185.524796 140.321233 
L 187.574383 219.471348 
L 189.62397 148.388851 
L 191.673556 144.202824 
L 193.723144 169.105121 
L 195.77273 157.11225 
L 197.822315 151.454479 
L 199.871903 148.420884 
L 201.921489 145.821244 
L 203.971076 149.664911 
L 206.020662 164.408758 
L 208.070249 150.852526 
L 210.119836 171.767463 
L 212.169422 149.310328 
L 214.219008 203.19227 
L 216.268594 168.283813 
L 218.318183 133.792158 
L 220.367769 161.959226 
L 222.417354 155.484513 
L 224.46694 141.874029 
L 226.516529 150.677633 
L 228.566115 241.278665 
L 230.615701 134.329513 
L 232.665287 157.517212 
L 234.714876 166.130446 
L 236.764461 189.509988 
L 238.81405 166.541879 
L 240.863633 155.238197 
L 242.913222 179.368619 
L 244.962805 147.10493 
L 247.012394 141.188082 
L 249.061982 136.578088 
L 251.111565 159.629575 
L 253.161154 152.2112 
L 255.210743 148.239676 
L 257.260326 182.549519 
L 259.309915 141.448818 
L 261.359503 148.968429 
L 263.409092 167.307085 
L 265.458681 156.95976 
L 267.508264 179.859059 
L 269.557853 157.117415 
L 271.607442 165.940338 
L 273.657024 162.152419 
L 275.706613 132.415835 
L 277.756202 144.474426 
L 279.805785 131.873009 
L 281.855374 252.867876 
L 283.904957 173.376918 
L 285.954545 179.69834 
" clip-path="url(#pc377d7ff4c)" style="fill: none; stroke: #1f77b4; stroke-width: 1.5; stroke-linecap: square"/>
   </g>
   <g id="line2d_44">
    <path d="M 57.681818 98.438142 
L 58.953174 93.225074 
L 60.224541 88.827188 
L 61.495896 85.115387 
L 62.767264 81.999525 
L 64.038619 79.415532 
L 65.309987 77.317332 
L 66.581342 75.672376 
L 67.852697 74.458614 
L 69.124053 73.662786 
L 70.39542 73.279498 
L 71.666776 73.310943 
L 72.938143 73.767188 
L 74.209498 74.667204 
L 75.480866 76.040766 
L 76.752221 77.931593 
L 78.023577 80.402751 
L 79.294932 83.545623 
L 80.566299 87.496064 
L 81.837655 92.465022 
L 83.109022 98.803347 
L 84.380384 107.158057 
L 85.016061 112.473342 
L 85.651745 118.942939 
L 86.287423 127.166043 
L 86.923101 138.426962 
L 87.558784 156.438938 
L 88.194462 208.497125 
L 88.83014 169.592886 
L 89.465823 146.750596 
L 90.101501 134.731718 
L 90.737185 126.761684 
L 91.372862 120.965292 
L 92.00854 116.551912 
L 92.644224 113.115576 
L 93.279902 110.421789 
L 93.915579 108.324708 
L 94.551263 106.729387 
L 95.186941 105.572546 
L 95.822624 104.811997 
L 96.458302 104.420438 
L 97.09398 104.382069 
L 97.729663 104.690147 
L 98.365347 105.345916 
L 99.001025 106.358108 
L 99.636709 107.742693 
L 100.272386 109.523311 
L 100.90807 111.731925 
L 101.543748 114.409881 
L 102.179425 117.609048 
L 103.450781 125.837958 
L 104.722142 137.061266 
L 105.993504 151.826252 
L 107.264859 168.535808 
L 107.900543 174.793536 
L 108.536226 176.729049 
L 109.171904 173.538594 
L 110.443266 159.307616 
L 111.714627 145.801973 
L 112.350305 140.72249 
L 112.985988 136.819646 
L 113.621666 134.035985 
L 114.257344 132.301838 
L 114.893027 131.553173 
L 115.528705 131.739691 
L 116.164389 132.829116 
L 116.800067 134.810892 
L 117.435744 137.700888 
L 118.071428 141.54957 
L 118.707106 146.455863 
L 119.342783 152.592708 
L 119.978467 160.258393 
L 120.614145 169.996532 
L 121.249829 182.925338 
L 121.885506 201.978649 
L 122.521184 242.008989 
L 123.156868 236.872574 
L 123.792545 214.631105 
L 124.428223 208.80655 
L 125.063907 210.608657 
L 125.699584 220.829187 
L 126.335268 256.315011 
L 126.970946 233.94311 
L 127.606623 205.1149 
L 128.242307 190.141011 
L 128.877991 180.302538 
L 129.513669 173.394191 
L 130.149352 168.51933 
L 130.78503 165.245504 
L 131.420714 163.351273 
L 132.056391 162.741123 
L 132.692069 163.412386 
L 133.327753 165.452951 
L 133.963431 169.070791 
L 134.599111 174.676773 
L 135.234792 183.116271 
L 135.87047 196.473432 
L 137.141831 248.537312 
L 137.777512 208.215133 
L 138.413193 194.648343 
L 139.04887 188.17303 
L 139.684551 185.787372 
L 140.320232 186.797879 
L 140.955909 191.643438 
L 141.59159 202.617158 
L 142.227271 231.782612 
L 142.862951 228.204415 
L 143.498632 195.024516 
L 144.13431 179.097318 
L 144.769991 168.668242 
L 145.405671 161.144694 
L 146.041349 155.503654 
L 146.67703 151.228114 
L 147.31271 148.016037 
L 147.948391 145.669446 
L 148.584072 144.046593 
L 149.219749 143.035699 
L 149.85543 142.538463 
L 150.491111 142.461522 
L 151.126789 142.707452 
L 152.39815 143.751544 
L 153.669511 144.812532 
L 154.305195 145.123858 
L 154.940876 145.231605 
L 155.576557 145.150896 
L 157.483596 144.559421 
L 158.119276 144.614062 
L 158.754957 144.974319 
L 159.390635 145.716824 
L 160.026315 146.884455 
L 160.661995 148.47678 
L 161.933355 152.643335 
L 163.204716 156.878952 
L 163.840395 158.285014 
L 164.476068 158.802275 
L 165.111749 158.269666 
L 165.747428 156.737324 
L 166.383109 154.444 
L 168.925829 143.888237 
L 169.561514 141.99367 
L 170.197195 140.592814 
L 170.832874 139.694253 
L 171.468555 139.274554 
L 172.104235 139.283188 
L 172.739914 139.648807 
L 173.375594 140.28292 
L 175.28264 142.861916 
L 177.82536 146.293854 
L 178.46104 147.492777 
L 179.09672 149.117739 
L 179.732393 151.370625 
L 180.368073 154.501864 
L 181.003753 158.849725 
L 181.639433 164.942132 
L 182.275114 173.768349 
L 182.910794 187.741514 
L 183.546474 217.092748 
L 184.182154 226.66476 
L 184.817839 192.803883 
L 185.453519 179.237869 
L 186.089199 171.769579 
L 186.724879 167.698798 
L 187.360559 166.152074 
L 187.996239 166.925238 
L 188.631919 170.29286 
L 189.2676 177.27014 
L 189.903285 191.072579 
L 190.538964 232.275511 
L 191.810325 177.662792 
L 192.446005 163.649966 
L 193.081685 154.350097 
L 193.717365 147.710548 
L 194.353045 142.889619 
L 194.98873 139.46853 
L 195.62441 137.218399 
L 196.26009 136.014142 
L 196.895771 135.795521 
L 197.53145 136.55195 
L 198.167131 138.320319 
L 198.802811 141.191638 
L 199.438491 145.335571 
L 200.074164 151.053799 
L 200.709844 158.91284 
L 201.345524 170.126495 
L 201.981204 188.118889 
L 202.616884 234.836924 
L 203.252564 207.946456 
L 203.888245 185.854124 
L 204.523924 176.170486 
L 205.159609 171.406287 
L 205.79529 169.689559 
L 206.430969 170.385416 
L 207.06665 173.400193 
L 207.702329 179.096778 
L 208.33801 188.617717 
L 208.973691 205.613768 
L 209.60937 257.941566 
L 210.245049 218.107226 
L 210.88073 196.144833 
L 211.51641 185.540654 
L 212.152088 179.646085 
L 212.787769 176.691877 
L 213.42345 176.049272 
L 214.05913 177.583574 
L 214.694811 181.548252 
L 215.330489 188.806258 
L 215.966169 201.865697 
L 216.60185 232.788931 
L 217.237528 231.792695 
L 217.873208 200.413689 
L 218.508889 186.627615 
L 219.14457 178.672971 
L 219.780251 174.102152 
L 220.415928 172.122084 
L 221.051609 172.570824 
L 221.68729 175.761986 
L 222.322967 182.756667 
L 222.958648 196.860727 
L 223.594329 239.525151 
L 224.86569 185.115181 
L 225.501368 172.632721 
L 226.137049 165.3029 
L 226.772729 161.220997 
L 227.408407 159.737602 
L 228.044088 160.746463 
L 228.679768 164.608793 
L 229.315449 172.509128 
L 229.95113 188.357587 
L 230.586807 247.022075 
L 231.222488 194.150427 
L 231.858169 171.502302 
L 232.493847 159.408924 
L 233.129527 151.729806 
L 233.765208 146.698668 
L 234.400889 143.570133 
L 235.036569 141.97385 
L 235.672253 141.718852 
L 236.307931 142.718954 
L 236.943615 144.964154 
L 237.579292 148.520212 
L 238.214976 153.549651 
L 238.850654 160.377409 
L 239.486331 169.665421 
L 240.122015 182.96632 
L 240.757693 205.396857 
L 241.39337 307.8 
L 242.029054 208.763037 
L 242.664732 192.306061 
L 243.300416 184.255364 
L 243.936093 179.87102 
L 244.571771 177.612204 
L 245.207455 176.759525 
L 245.843132 176.900433 
L 246.47881 177.759732 
L 247.114494 179.135653 
L 248.385855 182.839063 
L 250.292894 189.515619 
L 251.56425 194.896345 
L 252.199933 198.33387 
L 252.835611 202.737235 
L 253.471295 208.766719 
L 254.106973 217.749237 
L 254.74265 233.343686 
L 255.378334 280.574028 
L 256.014012 244.026992 
L 256.649689 218.907812 
L 257.285373 205.188547 
L 257.921051 195.823516 
L 258.556734 188.914544 
L 259.192412 183.676301 
L 259.82809 179.720379 
L 260.463774 176.833878 
L 261.099451 174.899565 
L 261.735129 173.861271 
L 262.370813 173.710538 
L 263.00649 174.483993 
L 263.642174 176.274882 
L 264.277852 179.258252 
L 264.913529 183.756049 
L 265.549213 190.393819 
L 266.184897 200.577095 
L 266.820575 218.634564 
L 267.456258 291.195123 
L 268.091936 222.957176 
L 268.72762 201.610283 
L 269.363297 189.81201 
L 269.998975 181.954461 
L 270.634659 176.370708 
L 271.270337 172.344524 
L 271.906014 169.514426 
L 272.541698 167.685408 
L 273.177376 166.757921 
L 273.813059 166.69963 
L 274.448737 167.537132 
L 275.084415 169.366072 
L 275.720098 172.380499 
L 276.355776 176.951562 
L 276.991454 183.830441 
L 277.627138 194.818196 
L 278.262815 216.324644 
L 278.898499 260.702485 
L 279.534177 204.046843 
L 280.169854 185.347341 
L 280.805538 173.739718 
L 281.441222 165.350401 
L 282.076899 158.861035 
L 282.712583 153.662602 
L 283.348261 149.427016 
L 283.983945 145.959638 
L 284.619622 143.139996 
L 285.2553 140.892326 
L 285.890984 139.17203 
L 286.526655 137.958142 
L 287.162333 137.249972 
L 287.798011 137.068409 
L 288.433701 137.459013 
L 289.069378 138.501412 
L 289.705056 140.325233 
L 290.340734 143.146051 
L 290.976411 147.339911 
L 291.612101 153.635255 
L 292.247779 163.723479 
L 292.883456 183.342998 
L 293.519146 244.404071 
L 294.154824 173.608924 
L 294.790502 153.144746 
L 295.426179 140.20352 
L 296.061857 130.526483 
L 297.333212 116.098432 
L 298.60458 105.262764 
L 299.875935 96.526508 
L 301.14729 89.207429 
L 302.418658 82.932873 
L 303.690025 77.474838 
L 305.597058 70.501281 
L 307.504104 64.697741 
L 309.411149 59.847244 
L 311.318182 55.8 
L 311.318182 55.8 
" clip-path="url(#pc377d7ff4c)" style="fill: none; stroke: #ff7f0e; stroke-width: 1.5; stroke-linecap: square"/>
   </g>
   <g id="patch_3">
    <path d="M 45 320.4 
L 45 43.2 
" style="fill: none; stroke: #000000; stroke-width: 0.8; stroke-linejoin: miter; stroke-linecap: square"/>
   </g>
   <g id="patch_4">
    <path d="M 324 320.4 
L 324 43.2 
" style="fill: none; stroke: #000000; stroke-width: 0.8; stroke-linejoin: miter; stroke-linecap: square"/>
   </g>
   <g id="patch_5">
    <path d="M 45 320.4 
L 324 320.4 
" style="fill: none; stroke: #000000; stroke-width: 0.8; stroke-linejoin: miter; stroke-linecap: square"/>
   </g>
   <g id="patch_6">
    <path d="M 45 43.2 
L 324 43.2 
" style="fill: none; stroke: #000000; stroke-width: 0.8; stroke-linejoin: miter; stroke-linecap: square"/>
   </g>
   <g id="text_10">
    <!-- Prediction Error -->
    <g transform="translate(138.166875 37.2)scale(0.12 -0.12)">
     <defs>
      <path id="DejaVuSans-50" d="M 1259 4147 
L 1259 2394 
L 2053 2394 
Q 2494 2394 2734 2622 
Q 2975 2850 2975 3272 
Q 2975 3691 2734 3919 
Q 2494 4147 2053 4147 
L 1259 4147 
z
M 628 4666 
L 2053 4666 
Q 2838 4666 3239 4311 
Q 3641 3956 3641 3272 
Q 3641 2581 3239 2228 
Q 2838 1875 2053 1875 
L 1259 1875 
L 1259 0 
L 628 0 
L 628 4666 
z
" transform="scale(0.015625)"/>
      <path id="DejaVuSans-72" d="M 2631 2963 
Q 2534 3019 2420 3045 
Q 2306 3072 2169 3072 
Q 1681 3072 1420 2755 
Q 1159 2438 1159 1844 
L 1159 0 
L 581 0 
L 581 3500 
L 1159 3500 
L 1159 2956 
Q 1341 3275 1631 3429 
Q 1922 3584 2338 3584 
Q 2397 3584 2469 3576 
Q 2541 3569 2628 3553 
L 2631 2963 
z
" transform="scale(0.015625)"/>
      <path id="DejaVuSans-65" d="M 3597 1894 
L 3597 1613 
L 953 1613 
Q 991 1019 1311 708 
Q 1631 397 2203 397 
Q 2534 397 2845 478 
Q 3156 559 3463 722 
L 3463 178 
Q 3153 47 2828 -22 
Q 2503 -91 2169 -91 
Q 1331 -91 842 396 
Q 353 884 353 1716 
Q 353 2575 817 3079 
Q 1281 3584 2069 3584 
Q 2775 3584 3186 3129 
Q 3597 2675 3597 1894 
z
M 3022 2063 
Q 3016 2534 2758 2815 
Q 2500 3097 2075 3097 
Q 1594 3097 1305 2825 
Q 1016 2553 972 2059 
L 3022 2063 
z
" transform="scale(0.015625)"/>
      <path id="DejaVuSans-64" d="M 2906 2969 
L 2906 4863 
L 3481 4863 
L 3481 0 
L 2906 0 
L 2906 525 
Q 2725 213 2448 61 
Q 2172 -91 1784 -91 
Q 1150 -91 751 415 
Q 353 922 353 1747 
Q 353 2572 751 3078 
Q 1150 3584 1784 3584 
Q 2172 3584 2448 3432 
Q 2725 3281 2906 2969 
z
M 947 1747 
Q 947 1113 1208 752 
Q 1469 391 1925 391 
Q 2381 391 2643 752 
Q 2906 1113 2906 1747 
Q 2906 2381 2643 2742 
Q 2381 3103 1925 3103 
Q 1469 3103 1208 2742 
Q 947 2381 947 1747 
z
" transform="scale(0.015625)"/>
      <path id="DejaVuSans-69" d="M 603 3500 
L 1178 3500 
L 1178 0 
L 603 0 
L 603 3500 
z
M 603 4863 
L 1178 4863 
L 1178 4134 
L 603 4134 
L 603 4863 
z
" transform="scale(0.015625)"/>
      <path id="DejaVuSans-63" d="M 3122 3366 
L 3122 2828 
Q 2878 2963 2633 3030 
Q 2388 3097 2138 3097 
Q 1578 3097 1268 2742 
Q 959 2388 959 1747 
Q 959 1106 1268 751 
Q 1578 397 2138 397 
Q 2388 397 2633 464 
Q 2878 531 3122 666 
L 3122 134 
Q 2881 22 2623 -34 
Q 2366 -91 2075 -91 
Q 1284 -91 818 406 
Q 353 903 353 1747 
Q 353 2603 823 3093 
Q 1294 3584 2113 3584 
Q 2378 3584 2631 3529 
Q 2884 3475 3122 3366 
z
" transform="scale(0.015625)"/>
      <path id="DejaVuSans-74" d="M 1172 4494 
L 1172 3500 
L 2356 3500 
L 2356 3053 
L 1172 3053 
L 1172 1153 
Q 1172 725 1289 603 
Q 1406 481 1766 481 
L 2356 481 
L 2356 0 
L 1766 0 
Q 1100 0 847 248 
Q 594 497 594 1153 
L 594 3053 
L 172 3053 
L 172 3500 
L 594 3500 
L 594 4494 
L 1172 4494 
z
" transform="scale(0.015625)"/>
      <path id="DejaVuSans-6f" d="M 1959 3097 
Q 1497 3097 1228 2736 
Q 959 2375 959 1747 
Q 959 1119 1226 758 
Q 1494 397 1959 397 
Q 2419 397 2687 759 
Q 2956 1122 2956 1747 
Q 2956 2369 2687 2733 
Q 2419 3097 1959 3097 
z
M 1959 3584 
Q 2709 3584 3137 3096 
Q 3566 2609 3566 1747 
Q 3566 888 3137 398 
Q 2709 -91 1959 -91 
Q 1206 -91 779 398 
Q 353 888 353 1747 
Q 353 2609 779 3096 
Q 1206 3584 1959 3584 
z
" transform="scale(0.015625)"/>
      <path id="DejaVuSans-6e" d="M 3513 2113 
L 3513 0 
L 2938 0 
L 2938 2094 
Q 2938 2591 2744 2837 
Q 2550 3084 2163 3084 
Q 1697 3084 1428 2787 
Q 1159 2491 1159 1978 
L 1159 0 
L 581 0 
L 581 3500 
L 1159 3500 
L 1159 2956 
Q 1366 3272 1645 3428 
Q 1925 3584 2291 3584 
Q 2894 3584 3203 3211 
Q 3513 2838 3513 2113 
z
" transform="scale(0.015625)"/>
      <path id="DejaVuSans-20" transform="scale(0.015625)"/>
      <path id="DejaVuSans-45" d="M 628 4666 
L 3578 4666 
L 3578 4134 
L 1259 4134 
L 1259 2753 
L 3481 2753 
L 3481 2222 
L 1259 2222 
L 1259 531 
L 3634 531 
L 3634 0 
L 628 0 
L 628 4666 
z
" transform="scale(0.015625)"/>
     </defs>
     <use xlink:href="#DejaVuSans-50"/>
     <use xlink:href="#DejaVuSans-72" x="58.552734"/>
     <use xlink:href="#DejaVuSans-65" x="97.416016"/>
     <use xlink:href="#DejaVuSans-64" x="158.939453"/>
     <use xlink:href="#DejaVuSans-69" x="222.416016"/>
     <use xlink:href="#DejaVuSans-63" x="250.199219"/>
     <use xlink:href="#DejaVuSans-74" x="305.179688"/>
     <use xlink:href="#DejaVuSans-69" x="344.388672"/>
     <use xlink:href="#DejaVuSans-6f" x="372.171875"/>
     <use xlink:href="#DejaVuSans-6e" x="433.353516"/>
     <use xlink:href="#DejaVuSans-20" x="496.732422"/>
     <use xlink:href="#DejaVuSans-45" x="528.519531"/>
     <use xlink:href="#DejaVuSans-72" x="591.703125"/>
     <use xlink:href="#DejaVuSans-72" x="631.066406"/>
     <use xlink:href="#DejaVuSans-6f" x="669.929688"/>
     <use xlink:href="#DejaVuSans-72" x="731.111328"/>
    </g>
   </g>
   <g id="legend_1">
    <g id="patch_7">
     <path d="M 52 315.4 
L 134.657813 315.4 
Q 136.657813 315.4 136.657813 313.4 
L 136.657813 285.04375 
Q 136.657813 283.04375 134.657813 283.04375 
L 52 283.04375 
Q 50 283.04375 50 285.04375 
L 50 313.4 
Q 50 315.4 52 315.4 
z
" style="fill: #ffffff; opacity: 0.8; stroke: #cccccc; stroke-linejoin: miter"/>
    </g>
    <g id="line2d_45">
     <path d="M 54 291.142187 
L 64 291.142187 
L 74 291.142187 
" style="fill: none; stroke: #1f77b4; stroke-width: 1.5; stroke-linecap: square"/>
    </g>
    <g id="text_11">
     <!-- train error -->
     <g transform="translate(82 294.642187)scale(0.1 -0.1)">
      <defs>
       <path id="DejaVuSans-61" d="M 2194 1759 
Q 1497 1759 1228 1600 
Q 959 1441 959 1056 
Q 959 750 1161 570 
Q 1363 391 1709 391 
Q 2188 391 2477 730 
Q 2766 1069 2766 1631 
L 2766 1759 
L 2194 1759 
z
M 3341 1997 
L 3341 0 
L 2766 0 
L 2766 531 
Q 2569 213 2275 61 
Q 1981 -91 1556 -91 
Q 1019 -91 701 211 
Q 384 513 384 1019 
Q 384 1609 779 1909 
Q 1175 2209 1959 2209 
L 2766 2209 
L 2766 2266 
Q 2766 2663 2505 2880 
Q 2244 3097 1772 3097 
Q 1472 3097 1187 3025 
Q 903 2953 641 2809 
L 641 3341 
Q 956 3463 1253 3523 
Q 1550 3584 1831 3584 
Q 2591 3584 2966 3190 
Q 3341 2797 3341 1997 
z
" transform="scale(0.015625)"/>
      </defs>
      <use xlink:href="#DejaVuSans-74"/>
      <use xlink:href="#DejaVuSans-72" x="39.208984"/>
      <use xlink:href="#DejaVuSans-61" x="80.322266"/>
      <use xlink:href="#DejaVuSans-69" x="141.601562"/>
      <use xlink:href="#DejaVuSans-6e" x="169.384766"/>
      <use xlink:href="#DejaVuSans-20" x="232.763672"/>
      <use xlink:href="#DejaVuSans-65" x="264.550781"/>
      <use xlink:href="#DejaVuSans-72" x="326.074219"/>
      <use xlink:href="#DejaVuSans-72" x="365.4375"/>
      <use xlink:href="#DejaVuSans-6f" x="404.300781"/>
      <use xlink:href="#DejaVuSans-72" x="465.482422"/>
     </g>
    </g>
    <g id="line2d_46">
     <path d="M 54 305.820312 
L 64 305.820312 
L 74 305.820312 
" style="fill: none; stroke: #ff7f0e; stroke-width: 1.5; stroke-linecap: square"/>
    </g>
    <g id="text_12">
     <!-- test error -->
     <g transform="translate(82 309.320312)scale(0.1 -0.1)">
      <defs>
       <path id="DejaVuSans-73" d="M 2834 3397 
L 2834 2853 
Q 2591 2978 2328 3040 
Q 2066 3103 1784 3103 
Q 1356 3103 1142 2972 
Q 928 2841 928 2578 
Q 928 2378 1081 2264 
Q 1234 2150 1697 2047 
L 1894 2003 
Q 2506 1872 2764 1633 
Q 3022 1394 3022 966 
Q 3022 478 2636 193 
Q 2250 -91 1575 -91 
Q 1294 -91 989 -36 
Q 684 19 347 128 
L 347 722 
Q 666 556 975 473 
Q 1284 391 1588 391 
Q 1994 391 2212 530 
Q 2431 669 2431 922 
Q 2431 1156 2273 1281 
Q 2116 1406 1581 1522 
L 1381 1569 
Q 847 1681 609 1914 
Q 372 2147 372 2553 
Q 372 3047 722 3315 
Q 1072 3584 1716 3584 
Q 2034 3584 2315 3537 
Q 2597 3491 2834 3397 
z
" transform="scale(0.015625)"/>
      </defs>
      <use xlink:href="#DejaVuSans-74"/>
      <use xlink:href="#DejaVuSans-65" x="39.208984"/>
      <use xlink:href="#DejaVuSans-73" x="100.732422"/>
      <use xlink:href="#DejaVuSans-74" x="152.832031"/>
      <use xlink:href="#DejaVuSans-20" x="192.041016"/>
      <use xlink:href="#DejaVuSans-65" x="223.828125"/>
      <use xlink:href="#DejaVuSans-72" x="285.351562"/>
      <use xlink:href="#DejaVuSans-72" x="324.714844"/>
      <use xlink:href="#DejaVuSans-6f" x="363.578125"/>
      <use xlink:href="#DejaVuSans-72" x="424.759766"/>
     </g>
    </g>
   </g>
  </g>
 </g>
 <defs>
  <clipPath id="pc377d7ff4c">
   <rect x="45" y="43.2" width="279" height="277.2"/>
  </clipPath>
 </defs>
</svg>
