<?xml version="1.0" encoding="utf-8" standalone="no"?>
<!DOCTYPE svg PUBLIC "-//W3C//DTD SVG 1.1//EN"
  "http://www.w3.org/Graphics/SVG/1.1/DTD/svg11.dtd">
<svg xmlns:xlink="http://www.w3.org/1999/xlink" width="360pt" height="360pt" viewBox="0 0 360 360" xmlns="http://www.w3.org/2000/svg" version="1.1">
 <metadata>
  <rdf:RDF xmlns:dc="http://purl.org/dc/elements/1.1/" xmlns:cc="http://creativecommons.org/ns#" xmlns:rdf="http://www.w3.org/1999/02/22-rdf-syntax-ns#">
   <cc:Work>
    <dc:type rdf:resource="http://purl.org/dc/dcmitype/StillImage"/>
    <dc:date>2022-11-15T20:44:52.021332</dc:date>
    <dc:format>image/svg+xml</dc:format>
    <dc:creator>
     <cc:Agent>
      <dc:title>Matplotlib v3.5.3, https://matplotlib.org/</dc:title>
     </cc:Agent>
    </dc:creator>
   </cc:Work>
  </rdf:RDF>
 </metadata>
 <defs>
  <style type="text/css">*{stroke-linejoin: round; stroke-linecap: butt}</style>
 </defs>
 <g id="figure_1">
  <g id="patch_1">
   <path d="M 0 360 
L 360 360 
L 360 0 
L 0 0 
z
" style="fill: #ffffff"/>
  </g>
  <g id="axes_1">
   <g id="patch_2">
    <path d="M 45 320.4 
L 324 320.4 
L 324 43.2 
L 45 43.2 
z
" style="fill: #ffffff"/>
   </g>
   <g id="matplotlib.axis_1">
    <g id="xtick_1">
     <g id="line2d_1">
      <defs>
       <path id="m715fbdefb1" d="M 0 0 
L 0 3.5 
" style="stroke: #000000; stroke-width: 0.8"/>
      </defs>
      <g>
       <use xlink:href="#m715fbdefb1" x="83.045455" y="320.4" style="stroke: #000000; stroke-width: 0.8"/>
      </g>
     </g>
     <g id="text_1">
      <!-- −2 -->
      <g transform="translate(75.674361 334.998438)scale(0.1 -0.1)">
       <defs>
        <path id="DejaVuSans-2212" d="M 678 2272 
L 4684 2272 
L 4684 1741 
L 678 1741 
L 678 2272 
z
" transform="scale(0.015625)"/>
        <path id="DejaVuSans-32" d="M 1228 531 
L 3431 531 
L 3431 0 
L 469 0 
L 469 531 
Q 828 903 1448 1529 
Q 2069 2156 2228 2338 
Q 2531 2678 2651 2914 
Q 2772 3150 2772 3378 
Q 2772 3750 2511 3984 
Q 2250 4219 1831 4219 
Q 1534 4219 1204 4116 
Q 875 4013 500 3803 
L 500 4441 
Q 881 4594 1212 4672 
Q 1544 4750 1819 4750 
Q 2544 4750 2975 4387 
Q 3406 4025 3406 3419 
Q 3406 3131 3298 2873 
Q 3191 2616 2906 2266 
Q 2828 2175 2409 1742 
Q 1991 1309 1228 531 
z
" transform="scale(0.015625)"/>
       </defs>
       <use xlink:href="#DejaVuSans-2212"/>
       <use xlink:href="#DejaVuSans-32" x="83.789062"/>
      </g>
     </g>
    </g>
    <g id="xtick_2">
     <g id="line2d_2">
      <g>
       <use xlink:href="#m715fbdefb1" x="133.772727" y="320.4" style="stroke: #000000; stroke-width: 0.8"/>
      </g>
     </g>
     <g id="text_2">
      <!-- −1 -->
      <g transform="translate(126.401634 334.998438)scale(0.1 -0.1)">
       <defs>
        <path id="DejaVuSans-31" d="M 794 531 
L 1825 531 
L 1825 4091 
L 703 3866 
L 703 4441 
L 1819 4666 
L 2450 4666 
L 2450 531 
L 3481 531 
L 3481 0 
L 794 0 
L 794 531 
z
" transform="scale(0.015625)"/>
       </defs>
       <use xlink:href="#DejaVuSans-2212"/>
       <use xlink:href="#DejaVuSans-31" x="83.789062"/>
      </g>
     </g>
    </g>
    <g id="xtick_3">
     <g id="line2d_3">
      <g>
       <use xlink:href="#m715fbdefb1" x="184.5" y="320.4" style="stroke: #000000; stroke-width: 0.8"/>
      </g>
     </g>
     <g id="text_3">
      <!-- 0 -->
      <g transform="translate(181.31875 334.998438)scale(0.1 -0.1)">
       <defs>
        <path id="DejaVuSans-30" d="M 2034 4250 
Q 1547 4250 1301 3770 
Q 1056 3291 1056 2328 
Q 1056 1369 1301 889 
Q 1547 409 2034 409 
Q 2525 409 2770 889 
Q 3016 1369 3016 2328 
Q 3016 3291 2770 3770 
Q 2525 4250 2034 4250 
z
M 2034 4750 
Q 2819 4750 3233 4129 
Q 3647 3509 3647 2328 
Q 3647 1150 3233 529 
Q 2819 -91 2034 -91 
Q 1250 -91 836 529 
Q 422 1150 422 2328 
Q 422 3509 836 4129 
Q 1250 4750 2034 4750 
z
" transform="scale(0.015625)"/>
       </defs>
       <use xlink:href="#DejaVuSans-30"/>
      </g>
     </g>
    </g>
    <g id="xtick_4">
     <g id="line2d_4">
      <g>
       <use xlink:href="#m715fbdefb1" x="235.227273" y="320.4" style="stroke: #000000; stroke-width: 0.8"/>
      </g>
     </g>
     <g id="text_4">
      <!-- 1 -->
      <g transform="translate(232.046023 334.998438)scale(0.1 -0.1)">
       <use xlink:href="#DejaVuSans-31"/>
      </g>
     </g>
    </g>
    <g id="xtick_5">
     <g id="line2d_5">
      <g>
       <use xlink:href="#m715fbdefb1" x="285.954545" y="320.4" style="stroke: #000000; stroke-width: 0.8"/>
      </g>
     </g>
     <g id="text_5">
      <!-- 2 -->
      <g transform="translate(282.773295 334.998438)scale(0.1 -0.1)">
       <use xlink:href="#DejaVuSans-32"/>
      </g>
     </g>
    </g>
   </g>
   <g id="matplotlib.axis_2">
    <g id="ytick_1">
     <g id="line2d_6">
      <defs>
       <path id="m9e8565621c" d="M 0 0 
L -3.5 0 
" style="stroke: #000000; stroke-width: 0.8"/>
      </defs>
      <g>
       <use xlink:href="#m9e8565621c" x="45" y="294.866614" style="stroke: #000000; stroke-width: 0.8"/>
      </g>
     </g>
     <g id="text_6">
      <!-- −1 -->
      <g transform="translate(23.257812 298.665833)scale(0.1 -0.1)">
       <use xlink:href="#DejaVuSans-2212"/>
       <use xlink:href="#DejaVuSans-31" x="83.789062"/>
      </g>
     </g>
    </g>
    <g id="ytick_2">
     <g id="line2d_7">
      <g>
       <use xlink:href="#m9e8565621c" x="45" y="262.106422" style="stroke: #000000; stroke-width: 0.8"/>
      </g>
     </g>
     <g id="text_7">
      <!-- 0 -->
      <g transform="translate(31.6375 265.905641)scale(0.1 -0.1)">
       <use xlink:href="#DejaVuSans-30"/>
      </g>
     </g>
    </g>
    <g id="ytick_3">
     <g id="line2d_8">
      <g>
       <use xlink:href="#m9e8565621c" x="45" y="229.34623" style="stroke: #000000; stroke-width: 0.8"/>
      </g>
     </g>
     <g id="text_8">
      <!-- 1 -->
      <g transform="translate(31.6375 233.145449)scale(0.1 -0.1)">
       <use xlink:href="#DejaVuSans-31"/>
      </g>
     </g>
    </g>
    <g id="ytick_4">
     <g id="line2d_9">
      <g>
       <use xlink:href="#m9e8565621c" x="45" y="196.586038" style="stroke: #000000; stroke-width: 0.8"/>
      </g>
     </g>
     <g id="text_9">
      <!-- 2 -->
      <g transform="translate(31.6375 200.385257)scale(0.1 -0.1)">
       <use xlink:href="#DejaVuSans-32"/>
      </g>
     </g>
    </g>
    <g id="ytick_5">
     <g id="line2d_10">
      <g>
       <use xlink:href="#m9e8565621c" x="45" y="163.825847" style="stroke: #000000; stroke-width: 0.8"/>
      </g>
     </g>
     <g id="text_10">
      <!-- 3 -->
      <g transform="translate(31.6375 167.625065)scale(0.1 -0.1)">
       <defs>
        <path id="DejaVuSans-33" d="M 2597 2516 
Q 3050 2419 3304 2112 
Q 3559 1806 3559 1356 
Q 3559 666 3084 287 
Q 2609 -91 1734 -91 
Q 1441 -91 1130 -33 
Q 819 25 488 141 
L 488 750 
Q 750 597 1062 519 
Q 1375 441 1716 441 
Q 2309 441 2620 675 
Q 2931 909 2931 1356 
Q 2931 1769 2642 2001 
Q 2353 2234 1838 2234 
L 1294 2234 
L 1294 2753 
L 1863 2753 
Q 2328 2753 2575 2939 
Q 2822 3125 2822 3475 
Q 2822 3834 2567 4026 
Q 2313 4219 1838 4219 
Q 1578 4219 1281 4162 
Q 984 4106 628 3988 
L 628 4550 
Q 988 4650 1302 4700 
Q 1616 4750 1894 4750 
Q 2613 4750 3031 4423 
Q 3450 4097 3450 3541 
Q 3450 3153 3228 2886 
Q 3006 2619 2597 2516 
z
" transform="scale(0.015625)"/>
       </defs>
       <use xlink:href="#DejaVuSans-33"/>
      </g>
     </g>
    </g>
    <g id="ytick_6">
     <g id="line2d_11">
      <g>
       <use xlink:href="#m9e8565621c" x="45" y="131.065655" style="stroke: #000000; stroke-width: 0.8"/>
      </g>
     </g>
     <g id="text_11">
      <!-- 4 -->
      <g transform="translate(31.6375 134.864873)scale(0.1 -0.1)">
       <defs>
        <path id="DejaVuSans-34" d="M 2419 4116 
L 825 1625 
L 2419 1625 
L 2419 4116 
z
M 2253 4666 
L 3047 4666 
L 3047 1625 
L 3713 1625 
L 3713 1100 
L 3047 1100 
L 3047 0 
L 2419 0 
L 2419 1100 
L 313 1100 
L 313 1709 
L 2253 4666 
z
" transform="scale(0.015625)"/>
       </defs>
       <use xlink:href="#DejaVuSans-34"/>
      </g>
     </g>
    </g>
    <g id="ytick_7">
     <g id="line2d_12">
      <g>
       <use xlink:href="#m9e8565621c" x="45" y="98.305463" style="stroke: #000000; stroke-width: 0.8"/>
      </g>
     </g>
     <g id="text_12">
      <!-- 5 -->
      <g transform="translate(31.6375 102.104682)scale(0.1 -0.1)">
       <defs>
        <path id="DejaVuSans-35" d="M 691 4666 
L 3169 4666 
L 3169 4134 
L 1269 4134 
L 1269 2991 
Q 1406 3038 1543 3061 
Q 1681 3084 1819 3084 
Q 2600 3084 3056 2656 
Q 3513 2228 3513 1497 
Q 3513 744 3044 326 
Q 2575 -91 1722 -91 
Q 1428 -91 1123 -41 
Q 819 9 494 109 
L 494 744 
Q 775 591 1075 516 
Q 1375 441 1709 441 
Q 2250 441 2565 725 
Q 2881 1009 2881 1497 
Q 2881 1984 2565 2268 
Q 2250 2553 1709 2553 
Q 1456 2553 1204 2497 
Q 953 2441 691 2322 
L 691 4666 
z
" transform="scale(0.015625)"/>
       </defs>
       <use xlink:href="#DejaVuSans-35"/>
      </g>
     </g>
    </g>
    <g id="ytick_8">
     <g id="line2d_13">
      <g>
       <use xlink:href="#m9e8565621c" x="45" y="65.545271" style="stroke: #000000; stroke-width: 0.8"/>
      </g>
     </g>
     <g id="text_13">
      <!-- 6 -->
      <g transform="translate(31.6375 69.34449)scale(0.1 -0.1)">
       <defs>
        <path id="DejaVuSans-36" d="M 2113 2584 
Q 1688 2584 1439 2293 
Q 1191 2003 1191 1497 
Q 1191 994 1439 701 
Q 1688 409 2113 409 
Q 2538 409 2786 701 
Q 3034 994 3034 1497 
Q 3034 2003 2786 2293 
Q 2538 2584 2113 2584 
z
M 3366 4563 
L 3366 3988 
Q 3128 4100 2886 4159 
Q 2644 4219 2406 4219 
Q 1781 4219 1451 3797 
Q 1122 3375 1075 2522 
Q 1259 2794 1537 2939 
Q 1816 3084 2150 3084 
Q 2853 3084 3261 2657 
Q 3669 2231 3669 1497 
Q 3669 778 3244 343 
Q 2819 -91 2113 -91 
Q 1303 -91 875 529 
Q 447 1150 447 2328 
Q 447 3434 972 4092 
Q 1497 4750 2381 4750 
Q 2619 4750 2861 4703 
Q 3103 4656 3366 4563 
z
" transform="scale(0.015625)"/>
       </defs>
       <use xlink:href="#DejaVuSans-36"/>
      </g>
     </g>
    </g>
   </g>
   <g id="line2d_14">
    <path d="M 57.681818 262.106431 
L 62.131574 254.99465 
L 64.038619 252.332292 
L 65.945664 250.135834 
L 67.21702 248.999606 
L 68.488375 248.166376 
L 69.759743 247.663467 
L 71.031098 247.510711 
L 72.302453 247.719779 
L 73.573821 248.293746 
L 74.845188 249.226801 
L 76.116544 250.504205 
L 77.387899 252.102455 
L 78.659254 253.989649 
L 80.566299 257.273301 
L 83.109022 262.235465 
L 88.194462 272.380606 
L 90.101501 275.607058 
L 91.372862 277.418055 
L 92.644224 278.895028 
L 93.915579 279.992159 
L 95.186941 280.671622 
L 96.458302 280.904645 
L 97.09398 280.847471 
L 97.729663 280.672489 
L 99.001025 279.967147 
L 100.272386 278.791846 
L 101.543748 277.161281 
L 102.815109 275.101604 
L 104.086458 272.650158 
L 105.993504 268.345852 
L 108.536226 261.761943 
L 114.257344 246.428679 
L 116.164389 242.176535 
L 117.435744 239.823147 
L 118.707106 237.940887 
L 119.978467 236.594251 
L 120.614145 236.139197 
L 121.249829 235.837509 
L 121.885506 235.69412 
L 122.521184 235.713123 
L 123.156868 235.897757 
L 123.792545 236.25035 
L 124.428223 236.772312 
L 125.063907 237.464102 
L 126.335268 239.354052 
L 127.606623 241.904095 
L 128.877991 245.082095 
L 130.149352 248.839918 
L 132.056391 255.420522 
L 133.963431 262.883095 
L 141.59159 294.020355 
L 142.862951 298.134159 
L 144.13431 301.587442 
L 145.405671 304.25654 
L 146.041349 305.260801 
L 146.67703 306.026934 
L 147.31271 306.542464 
L 147.948391 306.795798 
L 148.584072 306.776299 
L 149.219749 306.474312 
L 149.85543 305.881297 
L 150.491111 304.989791 
L 151.126789 303.793556 
L 151.762469 302.28754 
L 153.033831 298.332389 
L 154.305195 293.109947 
L 155.576557 286.627431 
L 156.847915 278.914131 
L 158.119276 270.021378 
L 160.026315 254.636557 
L 161.933355 237.101372 
L 164.476068 211.131474 
L 168.925829 162.176435 
L 172.104235 128.125824 
L 174.011274 109.475988 
L 175.91832 92.897471 
L 177.18968 83.264345 
L 178.46104 74.932674 
L 179.732393 68.024539 
L 181.003753 62.641635 
L 181.639433 60.547915 
L 182.275114 58.863535 
L 182.910794 57.59476 
L 183.546474 56.746274 
L 184.182154 56.321235 
L 184.817839 56.321235 
L 185.453519 56.746259 
L 186.089199 57.594744 
L 186.724879 58.863535 
L 187.360559 60.5479 
L 187.996239 62.641604 
L 189.2676 68.024508 
L 190.538964 74.932674 
L 191.810325 83.264376 
L 193.081685 92.897517 
L 194.98873 109.476019 
L 196.895771 128.125871 
L 199.438491 155.178767 
L 205.79529 224.425415 
L 208.33801 249.01109 
L 210.245049 265.154792 
L 212.152088 278.914158 
L 213.42345 286.62746 
L 214.694811 293.109972 
L 215.966169 298.332389 
L 217.237528 302.287533 
L 217.873208 303.793549 
L 218.508889 304.989791 
L 219.14457 305.881297 
L 219.780251 306.474312 
L 220.415928 306.776299 
L 221.051609 306.795798 
L 221.68729 306.542464 
L 222.322967 306.026938 
L 222.958648 305.260808 
L 223.594329 304.25654 
L 224.86569 301.587442 
L 226.137049 298.134159 
L 227.408407 294.020368 
L 229.315449 286.897238 
L 231.858169 276.328616 
L 235.672253 260.317407 
L 237.579292 253.113895 
L 239.486331 246.892137 
L 240.757693 243.417232 
L 242.029054 240.548199 
L 243.300416 238.325182 
L 244.571771 236.772316 
L 245.207455 236.25035 
L 245.843132 235.897757 
L 246.47881 235.713125 
L 247.114494 235.69412 
L 247.750171 235.837509 
L 248.385855 236.139197 
L 249.021533 236.594251 
L 250.292894 237.940887 
L 251.56425 239.823145 
L 252.835611 242.176535 
L 254.106973 244.928155 
L 256.014012 249.627137 
L 259.192412 258.271673 
L 262.370813 266.773282 
L 264.277852 271.292052 
L 265.549213 273.922092 
L 266.820575 276.183013 
L 268.091936 278.032109 
L 269.363297 279.437596 
L 270.634659 280.379028 
L 271.906014 280.847473 
L 272.541698 280.904645 
L 273.177376 280.845354 
L 274.448737 280.386124 
L 275.720098 279.493639 
L 276.991454 278.201334 
L 278.262815 276.551175 
L 279.534177 274.592488 
L 281.441222 271.198288 
L 283.983945 266.143341 
L 287.798011 258.464845 
L 289.705056 255.02947 
L 291.612101 252.102455 
L 292.883456 250.504205 
L 294.154824 249.226795 
L 295.426179 248.293746 
L 296.697535 247.719781 
L 297.96889 247.51071 
L 299.240257 247.663467 
L 300.511613 248.166369 
L 301.78298 248.999606 
L 303.054336 250.135834 
L 304.325703 251.541054 
L 306.232736 254.064883 
L 308.775471 257.964202 
L 311.318182 262.106431 
L 311.318182 262.106431 
" clip-path="url(#p25f4b6ac23)" style="fill: none; stroke: #1f77b4; stroke-width: 1.5; stroke-linecap: square"/>
   </g>
   <g id="line2d_15">
    <path d="M 57.681818 272.634593 
L 93.279902 272.532394 
L 96.458302 272.340923 
L 99.001025 271.957527 
L 100.90807 271.378683 
L 102.179425 270.751368 
L 103.450781 269.833656 
L 104.722142 268.516879 
L 105.993504 266.678883 
L 107.264859 264.209426 
L 108.536226 261.056323 
L 109.807588 257.282734 
L 114.257344 243.157919 
L 115.528705 240.172556 
L 116.800067 237.945948 
L 118.071428 236.442021 
L 118.707106 235.934367 
L 119.342783 235.573526 
L 119.978467 235.348279 
L 120.614145 235.248954 
L 121.249829 235.267775 
L 122.521184 235.639016 
L 123.792545 236.441037 
L 125.063907 237.683195 
L 126.335268 239.399276 
L 127.606623 241.639248 
L 128.877991 244.458367 
L 130.149352 247.903099 
L 131.420714 251.994128 
L 132.692069 256.708227 
L 134.599111 264.751837 
L 139.684551 287.413373 
L 140.955909 292.17794 
L 142.227271 296.257285 
L 143.498632 299.576071 
L 144.769991 302.095404 
L 145.405671 303.048113 
L 146.041349 303.792571 
L 146.67703 304.325186 
L 147.31271 304.641156 
L 147.948391 304.734058 
L 148.584072 304.595756 
L 149.219749 304.21633 
L 149.85543 303.584221 
L 150.491111 302.686605 
L 151.126789 301.509842 
L 151.762469 300.040309 
L 153.033831 296.173116 
L 154.305195 291.009006 
L 155.576557 284.528451 
L 156.847915 276.782811 
L 158.119276 267.883136 
L 160.026315 252.659506 
L 161.933355 235.480766 
L 163.840395 216.511969 
L 166.383109 188.867324 
L 171.468555 132.129922 
L 173.375594 113.007796 
L 175.28264 95.887288 
L 177.18968 81.179721 
L 178.46104 72.996709 
L 179.732393 66.331143 
L 181.003753 61.333575 
L 181.639433 59.487962 
L 182.275114 58.081981 
L 182.910794 57.112295 
L 183.546474 56.571122 
L 184.182154 56.4471 
L 184.817839 56.72634 
L 185.453519 57.393337 
L 186.089199 58.43213 
L 186.724879 59.82727 
L 187.360559 61.564492 
L 188.631919 66.018051 
L 189.903285 71.723862 
L 191.174644 78.654798 
L 192.446005 86.818334 
L 193.717365 96.237423 
L 194.98873 106.922133 
L 196.895771 125.226729 
L 198.802811 145.844698 
L 206.430969 231.728649 
L 208.33801 249.47918 
L 210.245049 264.985668 
L 212.152088 278.276134 
L 213.42345 285.905086 
L 214.694811 292.512499 
L 215.966169 298.036106 
L 217.237528 302.392977 
L 217.873208 304.105062 
L 218.508889 305.491169 
L 219.14457 306.541118 
L 219.780251 307.246912 
L 220.415928 307.603557 
L 221.051609 307.610339 
L 221.68729 307.272038 
L 222.322967 306.6 
L 222.958648 305.612972 
L 223.594329 304.337281 
L 224.86569 301.05919 
L 226.772729 294.946556 
L 232.493847 274.890027 
L 235.036569 265.225384 
L 239.486331 247.792614 
L 240.757693 243.679513 
L 242.029054 240.314692 
L 243.300416 237.781015 
L 243.936093 236.831013 
L 244.571771 236.087884 
L 245.207455 235.545473 
L 245.843132 235.196299 
L 246.47881 235.03217 
L 247.114494 235.044754 
L 247.750171 235.225875 
L 248.385855 235.567763 
L 249.021533 236.063098 
L 250.292894 237.487084 
L 251.56425 239.446271 
L 252.835611 241.889033 
L 254.106973 244.756928 
L 256.014012 249.696256 
L 259.192412 258.826827 
L 261.735129 265.924723 
L 263.642174 270.571559 
L 264.913529 273.203754 
L 266.184897 275.411379 
L 267.456258 277.174859 
L 268.72762 278.492936 
L 269.998975 279.377994 
L 271.270337 279.851559 
L 272.541698 279.940465 
L 273.813059 279.674066 
L 275.084415 279.082334 
L 276.355776 278.194808 
L 277.627138 277.040163 
L 278.898499 275.645926 
L 280.805538 273.162933 
L 282.712583 270.284501 
L 285.2553 265.964548 
L 288.433701 260.010645 
L 292.883456 251.065784 
L 303.054336 230.316012 
L 306.232736 224.419131 
L 308.775471 220.109251 
L 311.318182 216.228071 
L 311.318182 216.228071 
" clip-path="url(#p25f4b6ac23)" style="fill: none; stroke: #ff7f0e; stroke-width: 1.5; stroke-linecap: square"/>
   </g>
   <g id="line2d_16">
    <path d="M 57.681818 273.242073 
L 93.279902 273.139742 
L 96.458302 272.948037 
L 99.001025 272.564172 
L 100.90807 271.984611 
L 102.179425 271.356534 
L 103.450781 270.437698 
L 104.722142 269.119317 
L 105.993504 267.279064 
L 107.264859 264.806583 
L 108.536226 261.649609 
L 109.807588 257.871365 
L 114.257344 243.728828 
L 115.528705 240.739567 
L 116.800067 238.509902 
L 118.071428 237.003706 
L 118.707106 236.495167 
L 119.342783 236.133587 
L 119.978467 235.907737 
L 120.614145 235.807893 
L 121.249829 235.826307 
L 122.521184 236.196933 
L 123.792545 236.998594 
L 125.063907 238.240526 
L 126.335268 239.956498 
L 127.606623 242.196468 
L 128.877991 245.015665 
L 130.149352 248.460522 
L 131.420714 252.551801 
L 132.692069 257.266208 
L 134.599111 265.310533 
L 139.684551 287.976194 
L 140.955909 292.742534 
L 142.227271 296.824085 
L 143.498632 300.145645 
L 144.769991 302.66834 
L 145.405671 303.623019 
L 146.041349 304.369607 
L 146.67703 304.904581 
L 147.31271 305.223083 
L 147.948391 305.318802 
L 148.584072 305.18353 
L 149.219749 304.807401 
L 149.85543 304.178808 
L 150.491111 303.284975 
L 151.126789 302.112254 
L 151.762469 300.647002 
L 153.033831 296.789093 
L 154.305195 291.635072 
L 155.576557 285.165325 
L 156.847915 277.430836 
L 158.119276 268.542447 
L 160.026315 253.335388 
L 161.933355 236.171799 
L 163.840395 217.216059 
L 166.383109 189.584738 
L 171.468555 132.860586 
L 173.375594 113.73994 
L 175.28264 96.619646 
L 177.18968 81.911214 
L 178.46104 73.726915 
L 179.732393 67.059535 
L 181.003753 62.059414 
L 181.639433 60.212261 
L 182.275114 58.804471 
L 182.910794 57.832766 
L 183.546474 57.28927 
L 184.182154 57.162644 
L 184.817839 57.438859 
L 185.453519 58.102545 
L 186.089199 59.137548 
L 186.724879 60.528498 
L 187.360559 62.260991 
L 188.631919 66.703432 
L 189.903285 72.395513 
L 191.174644 79.309803 
L 192.446005 87.453299 
L 193.717365 96.84881 
L 194.98873 107.506332 
L 196.895771 125.764012 
L 198.802811 146.329743 
L 206.430969 232.023448 
L 208.33801 249.743607 
L 210.245049 265.226975 
L 212.152088 278.50037 
L 213.42345 286.120612 
L 214.694811 292.721016 
L 215.966169 298.239021 
L 217.237528 302.59139 
L 217.873208 304.301607 
L 218.508889 305.685996 
L 219.14457 306.734434 
L 219.780251 307.438875 
L 220.415928 307.794306 
L 221.051609 307.8 
L 221.68729 307.460729 
L 222.322967 306.78778 
L 222.958648 305.799992 
L 223.594329 304.523593 
L 224.86569 301.244328 
L 226.772729 295.130387 
L 232.493847 275.072027 
L 235.036569 265.407108 
L 239.486331 247.974033 
L 240.757693 243.860864 
L 242.029054 240.495926 
L 243.300416 237.962159 
L 243.936093 237.012116 
L 244.571771 236.268949 
L 245.207455 235.726491 
L 245.843132 235.377258 
L 246.47881 235.213103 
L 247.114494 235.225622 
L 247.750171 235.406702 
L 248.385855 235.748552 
L 249.021533 236.243811 
L 250.292894 237.667694 
L 251.56425 239.626784 
L 252.835611 242.06942 
L 254.106973 244.937184 
L 256.014012 249.876317 
L 259.192412 259.006559 
L 261.735129 266.104239 
L 263.642174 270.750959 
L 264.913529 273.383066 
L 266.184897 275.590657 
L 267.456258 277.354077 
L 268.72762 278.672138 
L 269.998975 279.557192 
L 271.270337 280.030708 
L 272.541698 280.119636 
L 273.813059 279.853255 
L 275.084415 279.261529 
L 276.355776 278.374017 
L 277.627138 277.219394 
L 278.898499 275.825199 
L 280.805538 273.342244 
L 282.712583 270.463856 
L 285.2553 266.143967 
L 288.433701 260.190129 
L 292.883456 251.245323 
L 303.054336 230.495638 
L 306.232736 224.598737 
L 308.775471 220.288823 
L 311.318182 216.407603 
L 311.318182 216.407603 
" clip-path="url(#p25f4b6ac23)" style="fill: none; stroke: #2ca02c; stroke-width: 1.5; stroke-linecap: square"/>
   </g>
   <g id="line2d_17">
    <path d="M 57.681818 272.173886 
L 93.279902 272.071453 
L 96.458302 271.879526 
L 99.001025 271.495247 
L 100.90807 270.915069 
L 102.179425 270.286312 
L 103.450781 269.366504 
L 104.722142 268.046709 
L 105.993504 266.204523 
L 107.264859 263.72941 
L 108.536226 260.569113 
L 109.807588 256.786901 
L 114.257344 242.629478 
L 115.528705 239.636977 
L 116.800067 237.40477 
L 118.071428 235.896677 
L 118.707106 235.387396 
L 119.342783 235.025179 
L 119.978467 234.798798 
L 120.614145 234.698511 
L 121.249829 234.716524 
L 122.521184 235.086569 
L 123.792545 235.887745 
L 125.063907 237.129303 
L 126.335268 238.844941 
L 127.606623 241.084557 
L 128.877991 243.903389 
L 130.149352 247.347852 
L 131.420714 251.438582 
L 132.692069 256.152372 
L 134.599111 264.195408 
L 139.684551 286.85432 
L 140.955909 291.617787 
L 142.227271 295.695752 
L 143.498632 299.012844 
L 144.769991 301.530065 
L 145.405671 302.481572 
L 146.041349 303.224684 
L 146.67703 303.755839 
L 147.31271 304.070194 
L 147.948391 304.16132 
L 148.584072 304.021119 
L 149.219749 303.639656 
L 149.85543 303.00533 
L 150.491111 302.105342 
L 151.126789 300.926045 
L 151.762469 299.453841 
L 153.033831 295.580905 
L 154.305195 290.410551 
L 155.576557 283.923386 
L 156.847915 276.171027 
L 158.119276 267.264587 
L 160.026315 252.031155 
L 161.933355 234.843459 
L 163.840395 215.866802 
L 166.383109 188.213667 
L 171.468555 131.466911 
L 173.375594 112.343679 
L 175.28264 95.223166 
L 177.18968 80.516578 
L 178.46104 72.334809 
L 179.732393 65.671085 
L 181.003753 60.676088 
L 181.639433 58.832027 
L 182.275114 57.427831 
L 182.910794 56.460249 
L 183.546474 55.921377 
L 184.182154 55.8 
L 184.817839 56.082245 
L 185.453519 56.752554 
L 186.089199 57.795118 
L 186.724879 59.194441 
L 187.360559 60.93637 
L 188.631919 65.400868 
L 189.903285 71.120192 
L 191.174644 78.067443 
L 192.446005 86.250555 
L 193.717365 95.692617 
L 194.98873 106.403814 
L 196.895771 124.754097 
L 198.802811 145.42292 
L 206.430969 231.492929 
L 208.33801 249.273723 
L 210.245049 264.803599 
L 212.152088 278.111795 
L 213.42345 285.750037 
L 214.694811 292.365108 
L 215.966169 297.89497 
L 217.237528 302.25697 
L 217.873208 303.971217 
L 218.508889 305.3593 
L 219.14457 306.411003 
L 219.780251 307.118358 
L 220.415928 307.47639 
L 221.051609 307.484427 
L 221.68729 307.147218 
L 222.322967 306.476151 
L 222.958648 305.48998 
L 223.594329 304.21505 
L 224.86569 300.938214 
L 226.772729 294.827045 
L 232.493847 274.772848 
L 235.036569 265.108644 
L 239.486331 247.676428 
L 240.757693 243.563508 
L 242.029054 240.198884 
L 243.300416 237.665398 
L 243.936093 236.71548 
L 244.571771 235.972436 
L 245.207455 235.430106 
L 245.843132 235.081016 
L 246.47881 234.91694 
L 247.114494 234.929622 
L 247.750171 235.110803 
L 248.385855 235.452761 
L 249.021533 235.94817 
L 250.292894 237.372278 
L 251.56425 239.331594 
L 252.835611 241.774471 
L 254.106973 244.642491 
L 256.014012 249.581972 
L 259.192412 258.712793 
L 261.735129 265.810813 
L 263.642174 270.457685 
L 264.913529 273.089902 
L 266.184897 275.297567 
L 267.456258 277.061037 
L 268.72762 278.379126 
L 269.998975 279.264196 
L 271.270337 279.737778 
L 272.541698 279.826695 
L 273.813059 279.560293 
L 275.084415 278.968583 
L 276.355776 278.081056 
L 277.627138 276.926433 
L 278.898499 275.532206 
L 280.805538 273.049216 
L 282.712583 270.170773 
L 285.2553 265.850815 
L 288.433701 259.89689 
L 292.883456 250.951958 
L 303.054336 230.202061 
L 306.232736 224.305115 
L 308.775471 219.995193 
L 311.318182 216.11395 
L 311.318182 216.11395 
" clip-path="url(#p25f4b6ac23)" style="fill: none; stroke: #d62728; stroke-width: 1.5; stroke-linecap: square"/>
   </g>
   <g id="line2d_18">
    <path d="M 57.681818 271.912542 
L 93.279902 271.810644 
L 96.458302 271.619717 
L 99.001025 271.23741 
L 100.90807 270.660231 
L 102.179425 270.034677 
L 103.450781 269.119563 
L 104.722142 267.806517 
L 105.993504 265.973719 
L 107.264859 263.511247 
L 108.536226 260.367059 
L 109.807588 256.604183 
L 114.257344 242.51994 
L 115.528705 239.543474 
L 116.800067 237.323829 
L 118.071428 235.825086 
L 118.707106 235.319463 
L 119.342783 234.96031 
L 119.978467 234.736457 
L 120.614145 234.638301 
L 121.249829 234.658075 
L 122.521184 235.03075 
L 123.792545 235.833709 
L 125.063907 237.07647 
L 126.335268 238.792924 
L 127.606623 241.033107 
L 128.877991 243.852351 
L 130.149352 247.297133 
L 131.420714 251.388149 
L 132.692069 256.102236 
L 134.599111 264.145873 
L 139.684551 286.807972 
L 140.955909 291.572852 
L 142.227271 295.652552 
L 143.498632 298.971745 
L 144.769991 301.491574 
L 145.405671 302.444534 
L 146.041349 303.189279 
L 146.67703 303.722198 
L 147.31271 304.038498 
L 147.948391 304.131773 
L 148.584072 303.993813 
L 149.219749 303.614802 
L 149.85543 302.983101 
L 150.491111 302.085917 
L 151.126789 300.909666 
L 151.762469 299.440563 
L 153.033831 295.574437 
L 154.305195 290.411348 
L 155.576557 283.931845 
L 156.847915 276.187187 
L 158.119276 267.288417 
L 160.026315 252.065932 
L 161.933355 234.888128 
L 163.840395 215.920157 
L 166.383109 188.276534 
L 171.468555 131.540995 
L 173.375594 112.419693 
L 175.28264 95.300335 
L 177.18968 80.594419 
L 178.46104 72.412962 
L 179.732393 65.749363 
L 181.003753 60.754366 
L 181.639433 58.910306 
L 182.275114 57.506125 
L 182.910794 56.538418 
L 183.546474 55.999593 
L 184.182154 55.878216 
L 184.817839 56.16043 
L 185.453519 56.830832 
L 186.089199 57.873521 
L 186.724879 59.273032 
L 187.360559 61.01521 
L 188.631919 65.480646 
L 189.903285 71.201314 
L 191.174644 78.150626 
L 192.446005 86.336409 
L 193.717365 95.781908 
L 194.98873 106.497167 
L 196.895771 124.854729 
L 198.802811 145.531722 
L 206.430969 231.629366 
L 208.33801 249.413486 
L 210.245049 264.945066 
L 212.152088 278.253511 
L 213.42345 285.891269 
L 214.694811 292.505411 
L 215.966169 298.034117 
L 217.237528 302.394718 
L 217.873208 304.108302 
L 218.508889 305.495643 
L 219.14457 306.546658 
L 219.780251 307.253341 
L 220.415928 307.61074 
L 221.051609 307.618137 
L 221.68729 307.280374 
L 222.322967 306.608776 
L 222.958648 305.622113 
L 223.594329 304.346745 
L 224.86569 301.069167 
L 226.772729 294.957108 
L 232.493847 274.90174 
L 235.036569 265.237352 
L 239.486331 247.804671 
L 240.757693 243.691518 
L 242.029054 240.326638 
L 243.300416 237.792899 
L 243.936093 236.842854 
L 244.571771 236.099693 
L 245.207455 235.557238 
L 245.843132 235.208036 
L 246.47881 235.043882 
L 247.114494 235.056434 
L 247.750171 235.237519 
L 248.385855 235.579364 
L 249.021533 236.074683 
L 250.292894 237.498629 
L 251.56425 239.457765 
L 252.835611 241.900459 
L 254.106973 244.768295 
L 256.014012 249.707594 
L 259.192412 258.838056 
L 261.735129 265.935884 
L 263.642174 270.582679 
L 264.913529 273.214841 
L 266.184897 275.422432 
L 267.456258 277.185906 
L 268.72762 278.503955 
L 269.998975 279.389002 
L 271.270337 279.862565 
L 272.541698 279.951466 
L 273.813059 279.685049 
L 275.084415 279.093307 
L 276.355776 278.205765 
L 277.627138 277.051141 
L 278.898499 275.656884 
L 280.805538 273.173886 
L 282.712583 270.295451 
L 285.2553 265.975504 
L 288.433701 260.021595 
L 292.883456 251.076729 
L 303.054336 230.326989 
L 306.232736 224.430136 
L 308.775471 220.120285 
L 311.318182 216.239128 
L 311.318182 216.239128 
" clip-path="url(#p25f4b6ac23)" style="fill: none; stroke: #9467bd; stroke-width: 1.5; stroke-linecap: square"/>
   </g>
   <g id="patch_3">
    <path d="M 45 320.4 
L 45 43.2 
" style="fill: none; stroke: #000000; stroke-width: 0.8; stroke-linejoin: miter; stroke-linecap: square"/>
   </g>
   <g id="patch_4">
    <path d="M 324 320.4 
L 324 43.2 
" style="fill: none; stroke: #000000; stroke-width: 0.8; stroke-linejoin: miter; stroke-linecap: square"/>
   </g>
   <g id="patch_5">
    <path d="M 45 320.4 
L 324 320.4 
" style="fill: none; stroke: #000000; stroke-width: 0.8; stroke-linejoin: miter; stroke-linecap: square"/>
   </g>
   <g id="patch_6">
    <path d="M 45 43.2 
L 324 43.2 
" style="fill: none; stroke: #000000; stroke-width: 0.8; stroke-linejoin: miter; stroke-linecap: square"/>
   </g>
   <g id="text_14">
    <!-- Prediction Curves -->
    <g transform="translate(131.961563 37.2)scale(0.12 -0.12)">
     <defs>
      <path id="DejaVuSans-50" d="M 1259 4147 
L 1259 2394 
L 2053 2394 
Q 2494 2394 2734 2622 
Q 2975 2850 2975 3272 
Q 2975 3691 2734 3919 
Q 2494 4147 2053 4147 
L 1259 4147 
z
M 628 4666 
L 2053 4666 
Q 2838 4666 3239 4311 
Q 3641 3956 3641 3272 
Q 3641 2581 3239 2228 
Q 2838 1875 2053 1875 
L 1259 1875 
L 1259 0 
L 628 0 
L 628 4666 
z
" transform="scale(0.015625)"/>
      <path id="DejaVuSans-72" d="M 2631 2963 
Q 2534 3019 2420 3045 
Q 2306 3072 2169 3072 
Q 1681 3072 1420 2755 
Q 1159 2438 1159 1844 
L 1159 0 
L 581 0 
L 581 3500 
L 1159 3500 
L 1159 2956 
Q 1341 3275 1631 3429 
Q 1922 3584 2338 3584 
Q 2397 3584 2469 3576 
Q 2541 3569 2628 3553 
L 2631 2963 
z
" transform="scale(0.015625)"/>
      <path id="DejaVuSans-65" d="M 3597 1894 
L 3597 1613 
L 953 1613 
Q 991 1019 1311 708 
Q 1631 397 2203 397 
Q 2534 397 2845 478 
Q 3156 559 3463 722 
L 3463 178 
Q 3153 47 2828 -22 
Q 2503 -91 2169 -91 
Q 1331 -91 842 396 
Q 353 884 353 1716 
Q 353 2575 817 3079 
Q 1281 3584 2069 3584 
Q 2775 3584 3186 3129 
Q 3597 2675 3597 1894 
z
M 3022 2063 
Q 3016 2534 2758 2815 
Q 2500 3097 2075 3097 
Q 1594 3097 1305 2825 
Q 1016 2553 972 2059 
L 3022 2063 
z
" transform="scale(0.015625)"/>
      <path id="DejaVuSans-64" d="M 2906 2969 
L 2906 4863 
L 3481 4863 
L 3481 0 
L 2906 0 
L 2906 525 
Q 2725 213 2448 61 
Q 2172 -91 1784 -91 
Q 1150 -91 751 415 
Q 353 922 353 1747 
Q 353 2572 751 3078 
Q 1150 3584 1784 3584 
Q 2172 3584 2448 3432 
Q 2725 3281 2906 2969 
z
M 947 1747 
Q 947 1113 1208 752 
Q 1469 391 1925 391 
Q 2381 391 2643 752 
Q 2906 1113 2906 1747 
Q 2906 2381 2643 2742 
Q 2381 3103 1925 3103 
Q 1469 3103 1208 2742 
Q 947 2381 947 1747 
z
" transform="scale(0.015625)"/>
      <path id="DejaVuSans-69" d="M 603 3500 
L 1178 3500 
L 1178 0 
L 603 0 
L 603 3500 
z
M 603 4863 
L 1178 4863 
L 1178 4134 
L 603 4134 
L 603 4863 
z
" transform="scale(0.015625)"/>
      <path id="DejaVuSans-63" d="M 3122 3366 
L 3122 2828 
Q 2878 2963 2633 3030 
Q 2388 3097 2138 3097 
Q 1578 3097 1268 2742 
Q 959 2388 959 1747 
Q 959 1106 1268 751 
Q 1578 397 2138 397 
Q 2388 397 2633 464 
Q 2878 531 3122 666 
L 3122 134 
Q 2881 22 2623 -34 
Q 2366 -91 2075 -91 
Q 1284 -91 818 406 
Q 353 903 353 1747 
Q 353 2603 823 3093 
Q 1294 3584 2113 3584 
Q 2378 3584 2631 3529 
Q 2884 3475 3122 3366 
z
" transform="scale(0.015625)"/>
      <path id="DejaVuSans-74" d="M 1172 4494 
L 1172 3500 
L 2356 3500 
L 2356 3053 
L 1172 3053 
L 1172 1153 
Q 1172 725 1289 603 
Q 1406 481 1766 481 
L 2356 481 
L 2356 0 
L 1766 0 
Q 1100 0 847 248 
Q 594 497 594 1153 
L 594 3053 
L 172 3053 
L 172 3500 
L 594 3500 
L 594 4494 
L 1172 4494 
z
" transform="scale(0.015625)"/>
      <path id="DejaVuSans-6f" d="M 1959 3097 
Q 1497 3097 1228 2736 
Q 959 2375 959 1747 
Q 959 1119 1226 758 
Q 1494 397 1959 397 
Q 2419 397 2687 759 
Q 2956 1122 2956 1747 
Q 2956 2369 2687 2733 
Q 2419 3097 1959 3097 
z
M 1959 3584 
Q 2709 3584 3137 3096 
Q 3566 2609 3566 1747 
Q 3566 888 3137 398 
Q 2709 -91 1959 -91 
Q 1206 -91 779 398 
Q 353 888 353 1747 
Q 353 2609 779 3096 
Q 1206 3584 1959 3584 
z
" transform="scale(0.015625)"/>
      <path id="DejaVuSans-6e" d="M 3513 2113 
L 3513 0 
L 2938 0 
L 2938 2094 
Q 2938 2591 2744 2837 
Q 2550 3084 2163 3084 
Q 1697 3084 1428 2787 
Q 1159 2491 1159 1978 
L 1159 0 
L 581 0 
L 581 3500 
L 1159 3500 
L 1159 2956 
Q 1366 3272 1645 3428 
Q 1925 3584 2291 3584 
Q 2894 3584 3203 3211 
Q 3513 2838 3513 2113 
z
" transform="scale(0.015625)"/>
      <path id="DejaVuSans-20" transform="scale(0.015625)"/>
      <path id="DejaVuSans-43" d="M 4122 4306 
L 4122 3641 
Q 3803 3938 3442 4084 
Q 3081 4231 2675 4231 
Q 1875 4231 1450 3742 
Q 1025 3253 1025 2328 
Q 1025 1406 1450 917 
Q 1875 428 2675 428 
Q 3081 428 3442 575 
Q 3803 722 4122 1019 
L 4122 359 
Q 3791 134 3420 21 
Q 3050 -91 2638 -91 
Q 1578 -91 968 557 
Q 359 1206 359 2328 
Q 359 3453 968 4101 
Q 1578 4750 2638 4750 
Q 3056 4750 3426 4639 
Q 3797 4528 4122 4306 
z
" transform="scale(0.015625)"/>
      <path id="DejaVuSans-75" d="M 544 1381 
L 544 3500 
L 1119 3500 
L 1119 1403 
Q 1119 906 1312 657 
Q 1506 409 1894 409 
Q 2359 409 2629 706 
Q 2900 1003 2900 1516 
L 2900 3500 
L 3475 3500 
L 3475 0 
L 2900 0 
L 2900 538 
Q 2691 219 2414 64 
Q 2138 -91 1772 -91 
Q 1169 -91 856 284 
Q 544 659 544 1381 
z
M 1991 3584 
L 1991 3584 
z
" transform="scale(0.015625)"/>
      <path id="DejaVuSans-76" d="M 191 3500 
L 800 3500 
L 1894 563 
L 2988 3500 
L 3597 3500 
L 2284 0 
L 1503 0 
L 191 3500 
z
" transform="scale(0.015625)"/>
      <path id="DejaVuSans-73" d="M 2834 3397 
L 2834 2853 
Q 2591 2978 2328 3040 
Q 2066 3103 1784 3103 
Q 1356 3103 1142 2972 
Q 928 2841 928 2578 
Q 928 2378 1081 2264 
Q 1234 2150 1697 2047 
L 1894 2003 
Q 2506 1872 2764 1633 
Q 3022 1394 3022 966 
Q 3022 478 2636 193 
Q 2250 -91 1575 -91 
Q 1294 -91 989 -36 
Q 684 19 347 128 
L 347 722 
Q 666 556 975 473 
Q 1284 391 1588 391 
Q 1994 391 2212 530 
Q 2431 669 2431 922 
Q 2431 1156 2273 1281 
Q 2116 1406 1581 1522 
L 1381 1569 
Q 847 1681 609 1914 
Q 372 2147 372 2553 
Q 372 3047 722 3315 
Q 1072 3584 1716 3584 
Q 2034 3584 2315 3537 
Q 2597 3491 2834 3397 
z
" transform="scale(0.015625)"/>
     </defs>
     <use xlink:href="#DejaVuSans-50"/>
     <use xlink:href="#DejaVuSans-72" x="58.552734"/>
     <use xlink:href="#DejaVuSans-65" x="97.416016"/>
     <use xlink:href="#DejaVuSans-64" x="158.939453"/>
     <use xlink:href="#DejaVuSans-69" x="222.416016"/>
     <use xlink:href="#DejaVuSans-63" x="250.199219"/>
     <use xlink:href="#DejaVuSans-74" x="305.179688"/>
     <use xlink:href="#DejaVuSans-69" x="344.388672"/>
     <use xlink:href="#DejaVuSans-6f" x="372.171875"/>
     <use xlink:href="#DejaVuSans-6e" x="433.353516"/>
     <use xlink:href="#DejaVuSans-20" x="496.732422"/>
     <use xlink:href="#DejaVuSans-43" x="528.519531"/>
     <use xlink:href="#DejaVuSans-75" x="598.34375"/>
     <use xlink:href="#DejaVuSans-72" x="661.722656"/>
     <use xlink:href="#DejaVuSans-76" x="702.835938"/>
     <use xlink:href="#DejaVuSans-65" x="762.015625"/>
     <use xlink:href="#DejaVuSans-73" x="823.539062"/>
    </g>
   </g>
   <g id="legend_1">
    <g id="patch_7">
     <path d="M 52 219.995313 
L 195.94375 219.995313 
Q 197.94375 219.995313 197.94375 217.995313 
L 197.94375 145.604688 
Q 197.94375 143.604688 195.94375 143.604688 
L 52 143.604688 
Q 50 143.604688 50 145.604688 
L 50 217.995313 
Q 50 219.995313 52 219.995313 
z
" style="fill: #ffffff; opacity: 0.8; stroke: #cccccc; stroke-linejoin: miter"/>
    </g>
    <g id="line2d_19">
     <path d="M 54 151.703125 
L 64 151.703125 
L 74 151.703125 
" style="fill: none; stroke: #1f77b4; stroke-width: 1.5; stroke-linecap: square"/>
    </g>
    <g id="text_15">
     <!-- Function with noise -->
     <g transform="translate(82 155.203125)scale(0.1 -0.1)">
      <defs>
       <path id="DejaVuSans-46" d="M 628 4666 
L 3309 4666 
L 3309 4134 
L 1259 4134 
L 1259 2759 
L 3109 2759 
L 3109 2228 
L 1259 2228 
L 1259 0 
L 628 0 
L 628 4666 
z
" transform="scale(0.015625)"/>
       <path id="DejaVuSans-77" d="M 269 3500 
L 844 3500 
L 1563 769 
L 2278 3500 
L 2956 3500 
L 3675 769 
L 4391 3500 
L 4966 3500 
L 4050 0 
L 3372 0 
L 2619 2869 
L 1863 0 
L 1184 0 
L 269 3500 
z
" transform="scale(0.015625)"/>
       <path id="DejaVuSans-68" d="M 3513 2113 
L 3513 0 
L 2938 0 
L 2938 2094 
Q 2938 2591 2744 2837 
Q 2550 3084 2163 3084 
Q 1697 3084 1428 2787 
Q 1159 2491 1159 1978 
L 1159 0 
L 581 0 
L 581 4863 
L 1159 4863 
L 1159 2956 
Q 1366 3272 1645 3428 
Q 1925 3584 2291 3584 
Q 2894 3584 3203 3211 
Q 3513 2838 3513 2113 
z
" transform="scale(0.015625)"/>
      </defs>
      <use xlink:href="#DejaVuSans-46"/>
      <use xlink:href="#DejaVuSans-75" x="52.019531"/>
      <use xlink:href="#DejaVuSans-6e" x="115.398438"/>
      <use xlink:href="#DejaVuSans-63" x="178.777344"/>
      <use xlink:href="#DejaVuSans-74" x="233.757812"/>
      <use xlink:href="#DejaVuSans-69" x="272.966797"/>
      <use xlink:href="#DejaVuSans-6f" x="300.75"/>
      <use xlink:href="#DejaVuSans-6e" x="361.931641"/>
      <use xlink:href="#DejaVuSans-20" x="425.310547"/>
      <use xlink:href="#DejaVuSans-77" x="457.097656"/>
      <use xlink:href="#DejaVuSans-69" x="538.884766"/>
      <use xlink:href="#DejaVuSans-74" x="566.667969"/>
      <use xlink:href="#DejaVuSans-68" x="605.876953"/>
      <use xlink:href="#DejaVuSans-20" x="669.255859"/>
      <use xlink:href="#DejaVuSans-6e" x="701.042969"/>
      <use xlink:href="#DejaVuSans-6f" x="764.421875"/>
      <use xlink:href="#DejaVuSans-69" x="825.603516"/>
      <use xlink:href="#DejaVuSans-73" x="853.386719"/>
      <use xlink:href="#DejaVuSans-65" x="905.486328"/>
     </g>
    </g>
    <g id="line2d_20">
     <path d="M 54 166.38125 
L 64 166.38125 
L 74 166.38125 
" style="fill: none; stroke: #ff7f0e; stroke-width: 1.5; stroke-linecap: square"/>
    </g>
    <g id="text_16">
     <!-- Average of Predictions -->
     <g transform="translate(82 169.88125)scale(0.1 -0.1)">
      <defs>
       <path id="DejaVuSans-41" d="M 2188 4044 
L 1331 1722 
L 3047 1722 
L 2188 4044 
z
M 1831 4666 
L 2547 4666 
L 4325 0 
L 3669 0 
L 3244 1197 
L 1141 1197 
L 716 0 
L 50 0 
L 1831 4666 
z
" transform="scale(0.015625)"/>
       <path id="DejaVuSans-61" d="M 2194 1759 
Q 1497 1759 1228 1600 
Q 959 1441 959 1056 
Q 959 750 1161 570 
Q 1363 391 1709 391 
Q 2188 391 2477 730 
Q 2766 1069 2766 1631 
L 2766 1759 
L 2194 1759 
z
M 3341 1997 
L 3341 0 
L 2766 0 
L 2766 531 
Q 2569 213 2275 61 
Q 1981 -91 1556 -91 
Q 1019 -91 701 211 
Q 384 513 384 1019 
Q 384 1609 779 1909 
Q 1175 2209 1959 2209 
L 2766 2209 
L 2766 2266 
Q 2766 2663 2505 2880 
Q 2244 3097 1772 3097 
Q 1472 3097 1187 3025 
Q 903 2953 641 2809 
L 641 3341 
Q 956 3463 1253 3523 
Q 1550 3584 1831 3584 
Q 2591 3584 2966 3190 
Q 3341 2797 3341 1997 
z
" transform="scale(0.015625)"/>
       <path id="DejaVuSans-67" d="M 2906 1791 
Q 2906 2416 2648 2759 
Q 2391 3103 1925 3103 
Q 1463 3103 1205 2759 
Q 947 2416 947 1791 
Q 947 1169 1205 825 
Q 1463 481 1925 481 
Q 2391 481 2648 825 
Q 2906 1169 2906 1791 
z
M 3481 434 
Q 3481 -459 3084 -895 
Q 2688 -1331 1869 -1331 
Q 1566 -1331 1297 -1286 
Q 1028 -1241 775 -1147 
L 775 -588 
Q 1028 -725 1275 -790 
Q 1522 -856 1778 -856 
Q 2344 -856 2625 -561 
Q 2906 -266 2906 331 
L 2906 616 
Q 2728 306 2450 153 
Q 2172 0 1784 0 
Q 1141 0 747 490 
Q 353 981 353 1791 
Q 353 2603 747 3093 
Q 1141 3584 1784 3584 
Q 2172 3584 2450 3431 
Q 2728 3278 2906 2969 
L 2906 3500 
L 3481 3500 
L 3481 434 
z
" transform="scale(0.015625)"/>
       <path id="DejaVuSans-66" d="M 2375 4863 
L 2375 4384 
L 1825 4384 
Q 1516 4384 1395 4259 
Q 1275 4134 1275 3809 
L 1275 3500 
L 2222 3500 
L 2222 3053 
L 1275 3053 
L 1275 0 
L 697 0 
L 697 3053 
L 147 3053 
L 147 3500 
L 697 3500 
L 697 3744 
Q 697 4328 969 4595 
Q 1241 4863 1831 4863 
L 2375 4863 
z
" transform="scale(0.015625)"/>
      </defs>
      <use xlink:href="#DejaVuSans-41"/>
      <use xlink:href="#DejaVuSans-76" x="62.533203"/>
      <use xlink:href="#DejaVuSans-65" x="121.712891"/>
      <use xlink:href="#DejaVuSans-72" x="183.236328"/>
      <use xlink:href="#DejaVuSans-61" x="224.349609"/>
      <use xlink:href="#DejaVuSans-67" x="285.628906"/>
      <use xlink:href="#DejaVuSans-65" x="349.105469"/>
      <use xlink:href="#DejaVuSans-20" x="410.628906"/>
      <use xlink:href="#DejaVuSans-6f" x="442.416016"/>
      <use xlink:href="#DejaVuSans-66" x="503.597656"/>
      <use xlink:href="#DejaVuSans-20" x="538.802734"/>
      <use xlink:href="#DejaVuSans-50" x="570.589844"/>
      <use xlink:href="#DejaVuSans-72" x="629.142578"/>
      <use xlink:href="#DejaVuSans-65" x="668.005859"/>
      <use xlink:href="#DejaVuSans-64" x="729.529297"/>
      <use xlink:href="#DejaVuSans-69" x="793.005859"/>
      <use xlink:href="#DejaVuSans-63" x="820.789062"/>
      <use xlink:href="#DejaVuSans-74" x="875.769531"/>
      <use xlink:href="#DejaVuSans-69" x="914.978516"/>
      <use xlink:href="#DejaVuSans-6f" x="942.761719"/>
      <use xlink:href="#DejaVuSans-6e" x="1003.943359"/>
      <use xlink:href="#DejaVuSans-73" x="1067.322266"/>
     </g>
    </g>
    <g id="line2d_21">
     <path d="M 54 181.059375 
L 64 181.059375 
L 74 181.059375 
" style="fill: none; stroke: #2ca02c; stroke-width: 1.5; stroke-linecap: square"/>
    </g>
    <g id="text_17">
     <!-- Prediction 1 -->
     <g transform="translate(82 184.559375)scale(0.1 -0.1)">
      <use xlink:href="#DejaVuSans-50"/>
      <use xlink:href="#DejaVuSans-72" x="58.552734"/>
      <use xlink:href="#DejaVuSans-65" x="97.416016"/>
      <use xlink:href="#DejaVuSans-64" x="158.939453"/>
      <use xlink:href="#DejaVuSans-69" x="222.416016"/>
      <use xlink:href="#DejaVuSans-63" x="250.199219"/>
      <use xlink:href="#DejaVuSans-74" x="305.179688"/>
      <use xlink:href="#DejaVuSans-69" x="344.388672"/>
      <use xlink:href="#DejaVuSans-6f" x="372.171875"/>
      <use xlink:href="#DejaVuSans-6e" x="433.353516"/>
      <use xlink:href="#DejaVuSans-20" x="496.732422"/>
      <use xlink:href="#DejaVuSans-31" x="528.519531"/>
     </g>
    </g>
    <g id="line2d_22">
     <path d="M 54 195.7375 
L 64 195.7375 
L 74 195.7375 
" style="fill: none; stroke: #d62728; stroke-width: 1.5; stroke-linecap: square"/>
    </g>
    <g id="text_18">
     <!-- Prediction 2 -->
     <g transform="translate(82 199.2375)scale(0.1 -0.1)">
      <use xlink:href="#DejaVuSans-50"/>
      <use xlink:href="#DejaVuSans-72" x="58.552734"/>
      <use xlink:href="#DejaVuSans-65" x="97.416016"/>
      <use xlink:href="#DejaVuSans-64" x="158.939453"/>
      <use xlink:href="#DejaVuSans-69" x="222.416016"/>
      <use xlink:href="#DejaVuSans-63" x="250.199219"/>
      <use xlink:href="#DejaVuSans-74" x="305.179688"/>
      <use xlink:href="#DejaVuSans-69" x="344.388672"/>
      <use xlink:href="#DejaVuSans-6f" x="372.171875"/>
      <use xlink:href="#DejaVuSans-6e" x="433.353516"/>
      <use xlink:href="#DejaVuSans-20" x="496.732422"/>
      <use xlink:href="#DejaVuSans-32" x="528.519531"/>
     </g>
    </g>
    <g id="line2d_23">
     <path d="M 54 210.415625 
L 64 210.415625 
L 74 210.415625 
" style="fill: none; stroke: #9467bd; stroke-width: 1.5; stroke-linecap: square"/>
    </g>
    <g id="text_19">
     <!-- Prediction 3 -->
     <g transform="translate(82 213.915625)scale(0.1 -0.1)">
      <use xlink:href="#DejaVuSans-50"/>
      <use xlink:href="#DejaVuSans-72" x="58.552734"/>
      <use xlink:href="#DejaVuSans-65" x="97.416016"/>
      <use xlink:href="#DejaVuSans-64" x="158.939453"/>
      <use xlink:href="#DejaVuSans-69" x="222.416016"/>
      <use xlink:href="#DejaVuSans-63" x="250.199219"/>
      <use xlink:href="#DejaVuSans-74" x="305.179688"/>
      <use xlink:href="#DejaVuSans-69" x="344.388672"/>
      <use xlink:href="#DejaVuSans-6f" x="372.171875"/>
      <use xlink:href="#DejaVuSans-6e" x="433.353516"/>
      <use xlink:href="#DejaVuSans-20" x="496.732422"/>
      <use xlink:href="#DejaVuSans-33" x="528.519531"/>
     </g>
    </g>
   </g>
  </g>
 </g>
 <defs>
  <clipPath id="p25f4b6ac23">
   <rect x="45" y="43.2" width="279" height="277.2"/>
  </clipPath>
 </defs>
</svg>
