<?xml version="1.0" encoding="utf-8" standalone="no"?>
<!DOCTYPE svg PUBLIC "-//W3C//DTD SVG 1.1//EN"
  "http://www.w3.org/Graphics/SVG/1.1/DTD/svg11.dtd">
<svg xmlns:xlink="http://www.w3.org/1999/xlink" width="360pt" height="360pt" viewBox="0 0 360 360" xmlns="http://www.w3.org/2000/svg" version="1.1">
 <metadata>
  <rdf:RDF xmlns:dc="http://purl.org/dc/elements/1.1/" xmlns:cc="http://creativecommons.org/ns#" xmlns:rdf="http://www.w3.org/1999/02/22-rdf-syntax-ns#">
   <cc:Work>
    <dc:type rdf:resource="http://purl.org/dc/dcmitype/StillImage"/>
    <dc:date>2022-11-10T20:07:23.681986</dc:date>
    <dc:format>image/svg+xml</dc:format>
    <dc:creator>
     <cc:Agent>
      <dc:title>Matplotlib v3.5.3, https://matplotlib.org/</dc:title>
     </cc:Agent>
    </dc:creator>
   </cc:Work>
  </rdf:RDF>
 </metadata>
 <defs>
  <style type="text/css">*{stroke-linejoin: round; stroke-linecap: butt}</style>
 </defs>
 <g id="figure_1">
  <g id="patch_1">
   <path d="M 0 360 
L 360 360 
L 360 0 
L 0 0 
z
" style="fill: #ffffff"/>
  </g>
  <g id="axes_1">
   <g id="patch_2">
    <path d="M 45 320.4 
L 324 320.4 
L 324 43.2 
L 45 43.2 
z
" style="fill: #ffffff"/>
   </g>
   <g id="matplotlib.axis_1">
    <g id="xtick_1">
     <g id="line2d_1">
      <defs>
       <path id="mce9d66950d" d="M 0 0 
L 0 3.5 
" style="stroke: #000000; stroke-width: 0.8"/>
      </defs>
      <g>
       <use xlink:href="#mce9d66950d" x="83.045455" y="320.4" style="stroke: #000000; stroke-width: 0.8"/>
      </g>
     </g>
     <g id="text_1">
      <!-- −2 -->
      <g transform="translate(75.674361 334.998438)scale(0.1 -0.1)">
       <defs>
        <path id="DejaVuSans-2212" d="M 678 2272 
L 4684 2272 
L 4684 1741 
L 678 1741 
L 678 2272 
z
" transform="scale(0.015625)"/>
        <path id="DejaVuSans-32" d="M 1228 531 
L 3431 531 
L 3431 0 
L 469 0 
L 469 531 
Q 828 903 1448 1529 
Q 2069 2156 2228 2338 
Q 2531 2678 2651 2914 
Q 2772 3150 2772 3378 
Q 2772 3750 2511 3984 
Q 2250 4219 1831 4219 
Q 1534 4219 1204 4116 
Q 875 4013 500 3803 
L 500 4441 
Q 881 4594 1212 4672 
Q 1544 4750 1819 4750 
Q 2544 4750 2975 4387 
Q 3406 4025 3406 3419 
Q 3406 3131 3298 2873 
Q 3191 2616 2906 2266 
Q 2828 2175 2409 1742 
Q 1991 1309 1228 531 
z
" transform="scale(0.015625)"/>
       </defs>
       <use xlink:href="#DejaVuSans-2212"/>
       <use xlink:href="#DejaVuSans-32" x="83.789062"/>
      </g>
     </g>
    </g>
    <g id="xtick_2">
     <g id="line2d_2">
      <g>
       <use xlink:href="#mce9d66950d" x="133.772727" y="320.4" style="stroke: #000000; stroke-width: 0.8"/>
      </g>
     </g>
     <g id="text_2">
      <!-- −1 -->
      <g transform="translate(126.401634 334.998438)scale(0.1 -0.1)">
       <defs>
        <path id="DejaVuSans-31" d="M 794 531 
L 1825 531 
L 1825 4091 
L 703 3866 
L 703 4441 
L 1819 4666 
L 2450 4666 
L 2450 531 
L 3481 531 
L 3481 0 
L 794 0 
L 794 531 
z
" transform="scale(0.015625)"/>
       </defs>
       <use xlink:href="#DejaVuSans-2212"/>
       <use xlink:href="#DejaVuSans-31" x="83.789062"/>
      </g>
     </g>
    </g>
    <g id="xtick_3">
     <g id="line2d_3">
      <g>
       <use xlink:href="#mce9d66950d" x="184.5" y="320.4" style="stroke: #000000; stroke-width: 0.8"/>
      </g>
     </g>
     <g id="text_3">
      <!-- 0 -->
      <g transform="translate(181.31875 334.998438)scale(0.1 -0.1)">
       <defs>
        <path id="DejaVuSans-30" d="M 2034 4250 
Q 1547 4250 1301 3770 
Q 1056 3291 1056 2328 
Q 1056 1369 1301 889 
Q 1547 409 2034 409 
Q 2525 409 2770 889 
Q 3016 1369 3016 2328 
Q 3016 3291 2770 3770 
Q 2525 4250 2034 4250 
z
M 2034 4750 
Q 2819 4750 3233 4129 
Q 3647 3509 3647 2328 
Q 3647 1150 3233 529 
Q 2819 -91 2034 -91 
Q 1250 -91 836 529 
Q 422 1150 422 2328 
Q 422 3509 836 4129 
Q 1250 4750 2034 4750 
z
" transform="scale(0.015625)"/>
       </defs>
       <use xlink:href="#DejaVuSans-30"/>
      </g>
     </g>
    </g>
    <g id="xtick_4">
     <g id="line2d_4">
      <g>
       <use xlink:href="#mce9d66950d" x="235.227273" y="320.4" style="stroke: #000000; stroke-width: 0.8"/>
      </g>
     </g>
     <g id="text_4">
      <!-- 1 -->
      <g transform="translate(232.046023 334.998438)scale(0.1 -0.1)">
       <use xlink:href="#DejaVuSans-31"/>
      </g>
     </g>
    </g>
    <g id="xtick_5">
     <g id="line2d_5">
      <g>
       <use xlink:href="#mce9d66950d" x="285.954545" y="320.4" style="stroke: #000000; stroke-width: 0.8"/>
      </g>
     </g>
     <g id="text_5">
      <!-- 2 -->
      <g transform="translate(282.773295 334.998438)scale(0.1 -0.1)">
       <use xlink:href="#DejaVuSans-32"/>
      </g>
     </g>
    </g>
   </g>
   <g id="matplotlib.axis_2">
    <g id="ytick_1">
     <g id="line2d_6">
      <defs>
       <path id="mc5532167cd" d="M 0 0 
L -3.5 0 
" style="stroke: #000000; stroke-width: 0.8"/>
      </defs>
      <g>
       <use xlink:href="#mc5532167cd" x="45" y="292.075791" style="stroke: #000000; stroke-width: 0.8"/>
      </g>
     </g>
     <g id="text_6">
      <!-- −0.3 -->
      <g transform="translate(13.717187 295.87501)scale(0.1 -0.1)">
       <defs>
        <path id="DejaVuSans-2e" d="M 684 794 
L 1344 794 
L 1344 0 
L 684 0 
L 684 794 
z
" transform="scale(0.015625)"/>
        <path id="DejaVuSans-33" d="M 2597 2516 
Q 3050 2419 3304 2112 
Q 3559 1806 3559 1356 
Q 3559 666 3084 287 
Q 2609 -91 1734 -91 
Q 1441 -91 1130 -33 
Q 819 25 488 141 
L 488 750 
Q 750 597 1062 519 
Q 1375 441 1716 441 
Q 2309 441 2620 675 
Q 2931 909 2931 1356 
Q 2931 1769 2642 2001 
Q 2353 2234 1838 2234 
L 1294 2234 
L 1294 2753 
L 1863 2753 
Q 2328 2753 2575 2939 
Q 2822 3125 2822 3475 
Q 2822 3834 2567 4026 
Q 2313 4219 1838 4219 
Q 1578 4219 1281 4162 
Q 984 4106 628 3988 
L 628 4550 
Q 988 4650 1302 4700 
Q 1616 4750 1894 4750 
Q 2613 4750 3031 4423 
Q 3450 4097 3450 3541 
Q 3450 3153 3228 2886 
Q 3006 2619 2597 2516 
z
" transform="scale(0.015625)"/>
       </defs>
       <use xlink:href="#DejaVuSans-2212"/>
       <use xlink:href="#DejaVuSans-30" x="83.789062"/>
       <use xlink:href="#DejaVuSans-2e" x="147.412109"/>
       <use xlink:href="#DejaVuSans-33" x="179.199219"/>
      </g>
     </g>
    </g>
    <g id="ytick_2">
     <g id="line2d_7">
      <g>
       <use xlink:href="#mc5532167cd" x="45" y="250.285068" style="stroke: #000000; stroke-width: 0.8"/>
      </g>
     </g>
     <g id="text_7">
      <!-- −0.2 -->
      <g transform="translate(13.717187 254.084287)scale(0.1 -0.1)">
       <use xlink:href="#DejaVuSans-2212"/>
       <use xlink:href="#DejaVuSans-30" x="83.789062"/>
       <use xlink:href="#DejaVuSans-2e" x="147.412109"/>
       <use xlink:href="#DejaVuSans-32" x="179.199219"/>
      </g>
     </g>
    </g>
    <g id="ytick_3">
     <g id="line2d_8">
      <g>
       <use xlink:href="#mc5532167cd" x="45" y="208.494345" style="stroke: #000000; stroke-width: 0.8"/>
      </g>
     </g>
     <g id="text_8">
      <!-- −0.1 -->
      <g transform="translate(13.717187 212.293564)scale(0.1 -0.1)">
       <use xlink:href="#DejaVuSans-2212"/>
       <use xlink:href="#DejaVuSans-30" x="83.789062"/>
       <use xlink:href="#DejaVuSans-2e" x="147.412109"/>
       <use xlink:href="#DejaVuSans-31" x="179.199219"/>
      </g>
     </g>
    </g>
    <g id="ytick_4">
     <g id="line2d_9">
      <g>
       <use xlink:href="#mc5532167cd" x="45" y="166.703623" style="stroke: #000000; stroke-width: 0.8"/>
      </g>
     </g>
     <g id="text_9">
      <!-- 0.0 -->
      <g transform="translate(22.096875 170.502841)scale(0.1 -0.1)">
       <use xlink:href="#DejaVuSans-30"/>
       <use xlink:href="#DejaVuSans-2e" x="63.623047"/>
       <use xlink:href="#DejaVuSans-30" x="95.410156"/>
      </g>
     </g>
    </g>
    <g id="ytick_5">
     <g id="line2d_10">
      <g>
       <use xlink:href="#mc5532167cd" x="45" y="124.9129" style="stroke: #000000; stroke-width: 0.8"/>
      </g>
     </g>
     <g id="text_10">
      <!-- 0.1 -->
      <g transform="translate(22.096875 128.712119)scale(0.1 -0.1)">
       <use xlink:href="#DejaVuSans-30"/>
       <use xlink:href="#DejaVuSans-2e" x="63.623047"/>
       <use xlink:href="#DejaVuSans-31" x="95.410156"/>
      </g>
     </g>
    </g>
    <g id="ytick_6">
     <g id="line2d_11">
      <g>
       <use xlink:href="#mc5532167cd" x="45" y="83.122177" style="stroke: #000000; stroke-width: 0.8"/>
      </g>
     </g>
     <g id="text_11">
      <!-- 0.2 -->
      <g transform="translate(22.096875 86.921396)scale(0.1 -0.1)">
       <use xlink:href="#DejaVuSans-30"/>
       <use xlink:href="#DejaVuSans-2e" x="63.623047"/>
       <use xlink:href="#DejaVuSans-32" x="95.410156"/>
      </g>
     </g>
    </g>
   </g>
   <g id="line2d_12">
    <path d="M 57.681818 205.853999 
L 60.852273 205.354181 
L 64.022727 204.565057 
L 67.193182 203.357857 
L 70.363636 201.559432 
L 73.534091 198.958566 
L 76.704545 195.326599 
L 79.875 190.482474 
L 83.045455 184.395321 
L 86.215909 177.308877 
L 89.386364 169.802885 
L 92.556818 162.688836 
L 95.727273 156.73378 
L 98.897727 152.371281 
L 102.068182 149.604794 
L 105.238636 148.12974 
L 108.409091 147.548837 
L 111.579545 147.519006 
L 114.75 147.805422 
L 117.920455 148.27507 
L 121.090909 148.863705 
L 124.261364 149.547871 
L 127.431818 150.322986 
L 130.602273 151.184984 
L 133.772727 152.122727 
L 136.943182 153.10397 
L 140.113636 154.074074 
L 143.284091 154.953768 
L 146.454545 155.647151 
L 149.625 156.062417 
L 152.795455 156.132362 
L 155.965909 155.84495 
L 159.136364 155.258507 
L 162.306818 154.50608 
L 165.477273 153.784056 
L 168.647727 153.327132 
L 171.818182 153.380657 
L 174.988636 154.169733 
L 178.159091 155.873157 
L 181.329545 158.596407 
L 184.5 162.348249 
L 187.670455 167.024683 
L 190.840909 172.40567 
L 194.011364 178.170374 
L 197.181818 183.934752 
L 200.352273 189.305584 
L 203.522727 193.938717 
L 206.693182 197.589112 
L 209.863636 200.139078 
L 213.034091 201.601877 
L 216.204545 202.101247 
L 219.375 201.836811 
L 222.545455 201.046342 
L 225.715909 199.970054 
L 228.886364 198.823832 
L 232.056818 197.784919 
L 235.227273 196.983719 
L 238.397727 196.505044 
L 241.568182 196.391258 
L 244.738636 196.649457 
L 247.909091 197.255468 
L 251.079545 198.158398 
L 254.25 199.283278 
L 257.420455 200.52559 
L 260.590909 201.754391 
L 263.761364 202.801335 
L 266.931818 203.460891 
L 270.102273 203.503257 
L 273.272727 202.693448 
L 276.443182 200.831395 
L 279.613636 197.805703 
L 282.784091 193.635383 
L 285.954545 188.494759 
L 289.125 182.690315 
L 292.295455 176.616054 
L 295.465909 170.668611 
L 298.636364 165.193447 
L 301.806818 160.435349 
L 304.977273 156.527034 
L 308.147727 153.494168 
L 311.318182 151.294107 
" clip-path="url(#pd7ebd0eaf1)" style="fill: none; stroke: #1f77b4; stroke-width: 1.5; stroke-linecap: square"/>
   </g>
   <g id="line2d_13">
    <path d="M 57.681818 136.136602 
L 60.852273 136.50223 
L 64.022727 136.968131 
L 67.193182 137.564757 
L 70.363636 138.331981 
L 73.534091 139.317842 
L 76.704545 140.580635 
L 79.875 142.19258 
L 83.045455 144.24476 
L 86.215909 146.843416 
L 89.386364 150.08565 
L 92.556818 153.999805 
L 95.727273 158.472842 
L 98.897727 163.226217 
L 102.068182 167.889251 
L 105.238636 172.117909 
L 108.409091 175.689073 
L 111.579545 178.523004 
L 114.75 180.646923 
L 117.920455 182.14283 
L 121.090909 183.106697 
L 124.261364 183.62447 
L 127.431818 183.763703 
L 130.602273 183.572938 
L 133.772727 183.084877 
L 136.943182 182.327856 
L 140.113636 181.333321 
L 143.284091 180.14296 
L 146.454545 178.815906 
L 149.625 177.42665 
L 152.795455 176.059632 
L 155.965909 174.795181 
L 159.136364 173.697701 
L 162.306818 172.805483 
L 165.477273 172.129093 
L 168.647727 171.653536 
L 171.818182 171.345928 
L 174.988636 171.162 
L 178.159091 171.052183 
L 181.329545 170.968339 
L 184.5 170.870513 
L 187.670455 170.733216 
L 190.840909 170.550631 
L 194.011364 170.339665 
L 197.181818 170.137739 
L 200.352273 169.996361 
L 203.522727 169.971074 
L 206.693182 170.111512 
L 209.863636 170.453774 
L 213.034091 171.017749 
L 216.204545 171.808457 
L 219.375 172.820867 
L 222.545455 174.045155 
L 225.715909 175.472243 
L 228.886364 177.096623 
L 232.056818 178.919479 
L 235.227273 180.946172 
L 238.397727 183.185988 
L 241.568182 185.648214 
L 244.738636 188.336556 
L 247.909091 191.242385 
L 251.079545 194.337922 
L 254.25 197.563147 
L 257.420455 200.817725 
L 260.590909 203.946402 
L 263.761364 206.729418 
L 266.931818 208.883527 
L 270.102273 210.070919 
L 273.272727 209.928279 
L 276.443182 208.115247 
L 279.613636 204.374561 
L 282.784091 198.593312 
L 285.954545 190.836624 
L 289.125 181.355181 
L 292.295455 170.542192 
L 295.465909 158.877985 
L 298.636364 146.854687 
L 301.806818 134.924331 
L 304.977273 123.45318 
L 308.147727 112.714002 
L 311.318182 102.877773 
" clip-path="url(#pd7ebd0eaf1)" style="fill: none; stroke: #ff7f0e; stroke-width: 1.5; stroke-linecap: square"/>
   </g>
   <g id="line2d_14">
    <path d="M 57.681818 111.73504 
L 60.852273 113.176148 
L 64.022727 115.07961 
L 67.193182 117.62015 
L 70.363636 121.005033 
L 73.534091 125.445304 
L 76.704545 131.084147 
L 79.875 137.873422 
L 83.045455 145.412404 
L 86.215909 152.840259 
L 89.386364 158.943067 
L 92.556818 162.562496 
L 95.727273 163.136046 
L 98.897727 160.977712 
L 102.068182 157.043282 
L 105.238636 152.416715 
L 108.409091 147.90195 
L 111.579545 143.902986 
L 114.75 140.508617 
L 117.920455 137.634054 
L 121.090909 135.133947 
L 124.261364 132.874442 
L 127.431818 130.764472 
L 130.602273 128.773868 
L 133.772727 126.942104 
L 136.943182 125.377228 
L 140.113636 124.249777 
L 143.284091 123.767435 
L 146.454545 124.13929 
L 149.625 125.517646 
L 152.795455 127.95018 
L 155.965909 131.346142 
L 159.136364 135.48418 
L 162.306818 140.056246 
L 165.477273 144.733942 
L 168.647727 149.228371 
L 171.818182 153.326056 
L 174.988636 156.894801 
L 178.159091 159.868645 
L 181.329545 162.225504 
L 184.5 163.967249 
L 187.670455 165.111082 
L 190.840909 165.689349 
L 194.011364 165.754328 
L 197.181818 165.381076 
L 200.352273 164.6631 
L 203.522727 163.698635 
L 206.693182 162.571543 
L 209.863636 161.334014 
L 213.034091 159.995223 
L 216.204545 158.521784 
L 219.375 156.845792 
L 222.545455 154.87931 
L 225.715909 152.52787 
L 228.886364 149.703464 
L 232.056818 146.334244 
L 235.227273 142.369774 
L 238.397727 137.784865 
L 241.568182 132.583423 
L 244.738636 126.801437 
L 247.909091 120.506799 
L 251.079545 113.801259 
L 254.25 106.819088 
L 257.420455 99.7206 
L 260.590909 92.683927 
L 263.761364 85.892639 
L 266.931818 79.521023 
L 270.102273 73.717894 
L 273.272727 68.606563 
L 276.443182 64.2779 
L 279.613636 60.795473 
L 282.784091 58.206589 
L 285.954545 56.540501 
L 289.125 55.8 
L 292.295455 55.961412 
L 295.465909 56.959853 
L 298.636364 58.694411 
L 301.806818 61.032848 
L 304.977273 63.829694 
L 308.147727 66.932863 
L 311.318182 70.206452 
" clip-path="url(#pd7ebd0eaf1)" style="fill: none; stroke: #2ca02c; stroke-width: 1.5; stroke-linecap: square"/>
   </g>
   <g id="line2d_15">
    <path d="M 57.681818 217.967249 
L 60.852273 218.033368 
L 64.022727 218.102516 
L 67.193182 218.177044 
L 70.363636 218.255379 
L 73.534091 218.324183 
L 76.704545 218.338526 
L 79.875 218.194471 
L 83.045455 217.690567 
L 86.215909 216.517197 
L 89.386364 214.310267 
L 92.556818 210.802871 
L 95.727273 206.013169 
L 98.897727 200.302582 
L 102.068182 194.247283 
L 105.238636 188.389802 
L 108.409091 183.065388 
L 111.579545 178.366973 
L 114.75 174.208987 
L 117.920455 170.414976 
L 121.090909 166.78678 
L 124.261364 163.146109 
L 127.431818 159.365229 
L 130.602273 155.381688 
L 133.772727 151.215633 
L 136.943182 146.984674 
L 140.113636 142.906378 
L 143.284091 139.284877 
L 146.454545 136.469748 
L 149.625 134.785168 
L 152.795455 134.4471 
L 155.965909 135.496316 
L 159.136364 137.776226 
L 162.306818 140.970813 
L 165.477273 144.685518 
L 168.647727 148.541026 
L 171.818182 152.244049 
L 174.988636 155.621044 
L 178.159091 158.61337 
L 181.329545 161.248515 
L 184.5 163.600859 
L 187.670455 165.753117 
L 190.840909 167.767151 
L 194.011364 169.669209 
L 197.181818 171.44876 
L 200.352273 173.069809 
L 203.522727 174.489654 
L 206.693182 175.675383 
L 209.863636 176.616413 
L 213.034091 177.326953 
L 216.204545 177.842962 
L 219.375 178.21411 
L 222.545455 178.494039 
L 225.715909 178.73545 
L 228.886364 178.984143 
L 232.056818 179.278371 
L 235.227273 179.649897 
L 238.397727 180.126938 
L 241.568182 180.736715 
L 244.738636 181.507446 
L 247.909091 182.472748 
L 251.079545 183.669008 
L 254.25 185.137635 
L 257.420455 186.916791 
L 260.590909 189.031164 
L 263.761364 191.484981 
L 266.931818 194.238903 
L 270.102273 197.205809 
L 273.272727 200.240389 
L 276.443182 203.154926 
L 279.613636 205.74397 
L 282.784091 207.822076 
L 285.954545 209.263861 
L 289.125 210.024289 
L 292.295455 210.141861 
L 295.465909 209.718285 
L 298.636364 208.89098 
L 301.806818 207.805895 
L 304.977273 206.585383 
L 308.147727 205.330039 
L 311.318182 204.104824 
" clip-path="url(#pd7ebd0eaf1)" style="fill: none; stroke: #d62728; stroke-width: 1.5; stroke-linecap: square"/>
   </g>
   <g id="line2d_16">
    <path d="M 57.681818 178.685123 
L 60.852273 178.292315 
L 64.022727 177.719004 
L 67.193182 176.904573 
L 70.363636 175.774711 
L 73.534091 174.249325 
L 76.704545 172.247965 
L 79.875 169.708042 
L 83.045455 166.603219 
L 86.215909 162.954869 
L 89.386364 158.836505 
L 92.556818 154.360241 
L 95.727273 149.673314 
L 98.897727 144.95262 
L 102.068182 140.38171 
L 105.238636 136.10437 
L 108.409091 132.188422 
L 111.579545 128.614907 
L 114.75 125.298056 
L 117.920455 122.11701 
L 121.090909 118.948937 
L 124.261364 115.691271 
L 127.431818 112.280243 
L 130.602273 108.707604 
L 133.772727 105.029968 
L 136.943182 101.382881 
L 140.113636 97.972153 
L 143.284091 95.058472 
L 146.454545 92.911607 
L 149.625 91.750021 
L 152.795455 91.678083 
L 155.965909 92.645497 
L 159.136364 94.450438 
L 162.306818 96.789842 
L 165.477273 99.336156 
L 168.647727 101.810896 
L 171.818182 104.033914 
L 174.988636 105.934788 
L 178.159091 107.539372 
L 181.329545 108.939768 
L 184.5 110.260896 
L 187.670455 111.631727 
L 190.840909 113.163905 
L 194.011364 114.941379 
L 197.181818 117.018197 
L 200.352273 119.42289 
L 203.522727 122.16656 
L 206.693182 125.248377 
L 209.863636 128.6607 
L 213.034091 132.391532 
L 216.204545 136.427313 
L 219.375 140.75763 
L 222.545455 145.379833 
L 225.715909 150.307264 
L 228.886364 155.573071 
L 232.056818 161.235333 
L 235.227273 167.377028 
L 238.397727 174.105285 
L 241.568182 181.543575 
L 244.738636 189.823536 
L 247.909091 199.068062 
L 251.079545 209.367941 
L 254.25 220.752627 
L 257.420455 233.151875 
L 260.590909 246.352242 
L 263.761364 259.958212 
L 266.931818 273.367698 
L 270.102273 285.786952 
L 273.272727 296.280346 
L 276.443182 303.894156 
L 279.613636 307.8 
L 282.784091 307.449358 
L 285.954545 302.694528 
L 289.125 293.810907 
L 292.295455 281.445974 
L 295.465909 266.488172 
L 298.636364 249.920636 
L 301.806818 232.680831 
L 304.977273 215.569438 
L 308.147727 199.197191 
L 311.318182 183.985355 
" clip-path="url(#pd7ebd0eaf1)" style="fill: none; stroke: #9467bd; stroke-width: 1.5; stroke-linecap: square"/>
   </g>
   <g id="line2d_17">
    <path d="M 57.681818 169.849028 
L 60.852273 169.062256 
L 64.022727 167.931378 
L 67.193182 166.345159 
L 70.363636 164.181266 
L 73.534091 161.32533 
L 76.704545 157.722606 
L 79.875 153.443224 
L 83.045455 148.763939 
L 86.215909 144.19056 
L 89.386364 140.358964 
L 92.556818 137.789139 
L 95.727273 136.622083 
L 98.897727 136.563197 
L 102.068182 137.069283 
L 105.238636 137.632799 
L 108.409091 137.936074 
L 111.579545 137.861804 
L 114.75 137.417882 
L 117.920455 136.671363 
L 121.090909 135.70925 
L 124.261364 134.628051 
L 127.431818 133.538362 
L 130.602273 132.578401 
L 133.772727 131.921555 
L 136.943182 131.777301 
L 140.113636 132.376557 
L 143.284091 133.938763 
L 146.454545 136.618805 
L 149.625 140.45032 
L 152.795455 145.299047 
L 155.965909 150.855436 
L 159.136364 156.670063 
L 162.306818 162.231921 
L 165.477273 167.052745 
L 168.647727 170.735383 
L 171.818182 173.006226 
L 174.988636 173.720326 
L 178.159091 172.849732 
L 181.329545 170.474564 
L 184.5 166.778129 
L 187.670455 162.046975 
L 190.840909 156.662662 
L 194.011364 151.077073 
L 197.181818 145.768708 
L 200.352273 141.185719 
L 203.522727 137.689034 
L 206.693182 135.51177 
L 209.863636 134.74074 
L 213.034091 135.326435 
L 216.204545 137.111519 
L 219.375 139.870762 
L 222.545455 143.351725 
L 225.715909 147.308294 
L 228.886364 151.523232 
L 232.056818 155.820868 
L 235.227273 160.067868 
L 238.397727 164.170097 
L 241.568182 168.062709 
L 244.738636 171.699594 
L 247.909091 175.042031 
L 251.079545 178.048892 
L 254.25 180.664339 
L 257.420455 182.80976 
L 260.590909 184.379319 
L 263.761364 185.23496 
L 266.931818 185.210211 
L 270.102273 184.11831 
L 273.272727 181.773696 
L 276.443182 178.012166 
L 279.613636 172.725913 
L 282.784091 165.883731 
L 285.954545 157.541975 
L 289.125 147.847708 
L 292.295455 137.0124 
L 295.465909 125.295585 
L 298.636364 112.973377 
L 301.806818 100.316867 
L 304.977273 87.56877 
L 308.147727 74.947651 
L 311.318182 62.627675 
" clip-path="url(#pd7ebd0eaf1)" style="fill: none; stroke: #8c564b; stroke-width: 1.5; stroke-linecap: square"/>
   </g>
   <g id="line2d_18">
    <path d="M 57.681818 243.18404 
L 60.852273 242.990107 
L 64.022727 242.65433 
L 67.193182 242.112306 
L 70.363636 241.285739 
L 73.534091 240.080237 
L 76.704545 238.402348 
L 79.875 236.191227 
L 83.045455 233.465422 
L 86.215909 230.37921 
L 89.386364 227.233913 
L 92.556818 224.416603 
L 95.727273 222.276891 
L 98.897727 221.006322 
L 102.068182 220.619662 
L 105.238636 221.019474 
L 108.409091 222.085768 
L 111.579545 223.728441 
L 114.75 225.905167 
L 117.920455 228.606282 
L 121.090909 231.835891 
L 124.261364 235.585485 
L 127.431818 239.808632 
L 130.602273 244.390672 
L 133.772727 249.122585 
L 136.943182 253.679795 
L 140.113636 257.619476 
L 143.284091 260.416781 
L 146.454545 261.54458 
L 149.625 260.590338 
L 152.795455 257.387113 
L 155.965909 252.097931 
L 159.136364 245.220218 
L 162.306818 237.485838 
L 165.477273 229.704345 
L 168.647727 222.60229 
L 171.818182 216.712776 
L 174.988636 212.335583 
L 178.159091 209.547975 
L 181.329545 208.244264 
L 184.5 208.18176 
L 187.670455 209.021452 
L 190.840909 210.368517 
L 194.011364 211.814948 
L 197.181818 212.984996 
L 200.352273 213.57976 
L 203.522727 213.408156 
L 206.693182 212.398785 
L 209.863636 210.5865 
L 213.034091 208.082756 
L 216.204545 205.034356 
L 219.375 201.587619 
L 222.545455 197.86145 
L 225.715909 193.92977 
L 228.886364 189.818654 
L 232.056818 185.507866 
L 235.227273 180.938002 
L 238.397727 176.017715 
L 241.568182 170.634137 
L 244.738636 164.661446 
L 247.909091 157.977627 
L 251.079545 150.478181 
L 254.25 142.105676 
L 257.420455 132.88333 
L 260.590909 122.956391 
L 263.761364 112.633575 
L 266.931818 102.421157 
L 270.102273 93.017949 
L 273.272727 85.272619 
L 276.443182 80.077913 
L 279.613636 78.214385 
L 282.784091 80.200825 
L 285.954545 86.167717 
L 289.125 95.834882 
L 292.295455 108.564885 
L 295.465909 123.500528 
L 298.636364 139.715109 
L 301.806818 156.34705 
L 304.977273 172.686536 
L 308.147727 188.214022 
L 311.318182 202.592735 
" clip-path="url(#pd7ebd0eaf1)" style="fill: none; stroke: #e377c2; stroke-width: 1.5; stroke-linecap: square"/>
   </g>
   <g id="line2d_19">
    <path d="M 57.681818 128.466159 
L 60.852273 129.003361 
L 64.022727 129.737485 
L 67.193182 130.751988 
L 70.363636 132.156688 
L 73.534091 134.093882 
L 76.704545 136.734652 
L 79.875 140.260621 
L 83.045455 144.82502 
L 86.215909 150.492304 
L 89.386364 157.163229 
L 92.556818 164.536202 
L 95.727273 172.150789 
L 98.897727 179.503789 
L 102.068182 186.204895 
L 105.238636 192.059825 
L 108.409091 197.075524 
L 111.579545 201.394044 
L 114.75 205.222152 
L 117.920455 208.772173 
L 121.090909 212.226562 
L 124.261364 215.718296 
L 127.431818 219.315126 
L 130.602273 223.009202 
L 133.772727 226.704494 
L 136.943182 230.206749 
L 140.113636 233.228974 
L 143.284091 235.418693 
L 146.454545 236.410787 
L 149.625 235.9079 
L 152.795455 233.762021 
L 155.965909 230.030661 
L 159.136364 224.975007 
L 162.306818 218.999218 
L 165.477273 212.553755 
L 168.647727 206.044191 
L 171.818182 199.774413 
L 174.988636 193.936294 
L 178.159091 188.632482 
L 181.329545 183.912074 
L 184.5 179.803467 
L 187.670455 176.331374 
L 190.840909 173.519349 
L 194.011364 171.379326 
L 197.181818 169.89876 
L 200.352273 169.03108 
L 203.522727 168.695523 
L 206.693182 168.786093 
L 209.863636 169.18739 
L 213.034091 169.788429 
L 216.204545 170.49624 
L 219.375 171.241224 
L 222.545455 171.976893 
L 225.715909 172.675038 
L 228.886364 173.321183 
L 232.056818 173.903561 
L 235.227273 174.410792 
L 238.397727 174.824066 
L 241.568182 175.116201 
L 244.738636 175.250651 
L 247.909091 175.184711 
L 251.079545 174.876255 
L 254.25 174.296349 
L 257.420455 173.443896 
L 260.590909 172.365905 
L 263.761364 171.177795 
L 266.931818 170.074576 
L 270.102273 169.333398 
L 273.272727 169.286808 
L 276.443182 170.281143 
L 279.613636 172.619899 
L 282.784091 176.497048 
L 285.954545 181.957785 
L 289.125 188.882147 
L 292.295455 197.014507 
L 295.465909 206.007808 
L 298.636364 215.478171 
L 301.806818 225.063794 
L 304.977273 234.460585 
L 308.147727 243.431966 
L 311.318182 251.822106 
" clip-path="url(#pd7ebd0eaf1)" style="fill: none; stroke: #7f7f7f; stroke-width: 1.5; stroke-linecap: square"/>
   </g>
   <g id="line2d_20">
    <path d="M 57.681818 137.483692 
L 60.852273 135.991093 
L 64.022727 134.313607 
L 67.193182 132.388025 
L 70.363636 130.144422 
L 73.534091 127.527615 
L 76.704545 124.544632 
L 79.875 121.340132 
L 83.045455 118.288116 
L 86.215909 116.035665 
L 89.386364 115.39743 
L 92.556818 117.036677 
L 95.727273 121.078934 
L 98.897727 126.955914 
L 102.068182 133.64586 
L 105.238636 140.130097 
L 108.409091 145.721298 
L 111.579545 150.137263 
L 114.75 153.396444 
L 117.920455 155.671512 
L 121.090909 157.18119 
L 124.261364 158.127202 
L 127.431818 158.672953 
L 130.602273 158.940717 
L 133.772727 159.018394 
L 136.943182 158.9672 
L 140.113636 158.837911 
L 143.284091 158.676001 
L 146.454545 158.529446 
L 149.625 158.450414 
L 152.795455 158.48997 
L 155.965909 158.686991 
L 159.136364 159.059055 
L 162.306818 159.597124 
L 165.477273 160.268373 
L 168.647727 161.026021 
L 171.818182 161.821093 
L 174.988636 162.61281 
L 178.159091 163.375363 
L 181.329545 164.100334 
L 184.5 164.795642 
L 187.670455 165.479477 
L 190.840909 166.169537 
L 194.011364 166.869264 
L 197.181818 167.554354 
L 200.352273 168.165086 
L 203.522727 168.609536 
L 206.693182 168.777623 
L 209.863636 168.563464 
L 213.034091 167.888056 
L 216.204545 166.714423 
L 219.375 165.052381 
L 222.545455 162.950691 
L 225.715909 160.485865 
L 228.886364 157.745752 
L 232.056818 154.816728 
L 235.227273 151.774496 
L 238.397727 148.680951 
L 241.568182 145.583241 
L 244.738636 142.518153 
L 247.909091 139.515915 
L 251.079545 136.609927 
L 254.25 133.840202 
L 257.420455 131.264032 
L 260.590909 128.960109 
L 263.761364 127.035882 
L 266.931818 125.630963 
L 270.102273 124.906125 
L 273.272727 125.038482 
L 276.443182 126.189846 
L 279.613636 128.479979 
L 282.784091 131.950609 
L 285.954545 136.552078 
L 289.125 142.138915 
L 292.295455 148.492159 
L 295.465909 155.361203 
L 298.636364 162.489701 
L 301.806818 169.649765 
L 304.977273 176.656866 
L 308.147727 183.377251 
L 311.318182 189.714872 
" clip-path="url(#pd7ebd0eaf1)" style="fill: none; stroke: #bcbd22; stroke-width: 1.5; stroke-linecap: square"/>
   </g>
   <g id="line2d_21">
    <path d="M 57.681818 137.675294 
L 60.852273 138.63117 
L 64.022727 139.965108 
L 67.193182 141.814368 
L 70.363636 144.341577 
L 73.534091 147.713941 
L 76.704545 152.054117 
L 79.875 157.350034 
L 83.045455 163.34746 
L 86.215909 169.473871 
L 89.386364 174.904317 
L 92.556818 178.843356 
L 95.727273 180.878379 
L 98.897727 181.176592 
L 102.068182 180.330207 
L 105.238636 179.035496 
L 108.409091 177.823892 
L 111.579545 176.987799 
L 114.75 176.626576 
L 117.920455 176.730955 
L 121.090909 177.243268 
L 124.261364 178.093031 
L 127.431818 179.20452 
L 130.602273 180.496152 
L 133.772727 181.873891 
L 136.943182 183.228573 
L 140.113636 184.437607 
L 143.284091 185.378477 
L 146.454545 185.948908 
L 149.625 186.095354 
L 152.795455 185.830719 
L 155.965909 185.237123 
L 159.136364 184.44483 
L 162.306818 183.593663 
L 165.477273 182.788243 
L 168.647727 182.06738 
L 171.818182 181.391115 
L 174.988636 180.648848 
L 178.159091 179.683948 
L 181.329545 178.326458 
L 184.5 176.429464 
L 187.670455 173.903125 
L 190.840909 170.739456 
L 194.011364 167.020662 
L 197.181818 162.908886 
L 200.352273 158.616837 
L 203.522727 154.369338 
L 206.693182 150.366029 
L 209.863636 146.754154 
L 213.034091 143.617217 
L 216.204545 140.977927 
L 219.375 138.809032 
L 222.545455 137.05079 
L 225.715909 135.624379 
L 228.886364 134.446273 
L 232.056818 133.434859 
L 235.227273 132.518479 
L 238.397727 131.635278 
L 241.568182 130.736753 
L 244.738636 129.787952 
L 247.909091 128.77048 
L 251.079545 127.688444 
L 254.25 126.573886 
L 257.420455 125.502631 
L 260.590909 124.606377 
L 263.761364 124.087429 
L 266.931818 124.227279 
L 270.102273 125.375613 
L 273.272727 127.915596 
L 276.443182 132.201535 
L 279.613636 138.476344 
L 282.784091 146.797297 
L 285.954545 156.9864 
L 289.125 168.651882 
L 292.295455 181.244784 
L 295.465909 194.158197 
L 298.636364 206.825707 
L 301.806818 218.779499 
L 304.977273 229.69874 
L 308.147727 239.397072 
L 311.318182 247.810328 
" clip-path="url(#pd7ebd0eaf1)" style="fill: none; stroke: #17becf; stroke-width: 1.5; stroke-linecap: square"/>
   </g>
   <g id="patch_3">
    <path d="M 45 320.4 
L 45 43.2 
" style="fill: none; stroke: #000000; stroke-width: 0.8; stroke-linejoin: miter; stroke-linecap: square"/>
   </g>
   <g id="patch_4">
    <path d="M 324 320.4 
L 324 43.2 
" style="fill: none; stroke: #000000; stroke-width: 0.8; stroke-linejoin: miter; stroke-linecap: square"/>
   </g>
   <g id="patch_5">
    <path d="M 45 320.4 
L 324 320.4 
" style="fill: none; stroke: #000000; stroke-width: 0.8; stroke-linejoin: miter; stroke-linecap: square"/>
   </g>
   <g id="patch_6">
    <path d="M 45 43.2 
L 324 43.2 
" style="fill: none; stroke: #000000; stroke-width: 0.8; stroke-linejoin: miter; stroke-linecap: square"/>
   </g>
   <g id="text_12">
    <!-- Single Draw Deviation -->
    <g transform="translate(117.87 37.2)scale(0.12 -0.12)">
     <defs>
      <path id="DejaVuSans-53" d="M 3425 4513 
L 3425 3897 
Q 3066 4069 2747 4153 
Q 2428 4238 2131 4238 
Q 1616 4238 1336 4038 
Q 1056 3838 1056 3469 
Q 1056 3159 1242 3001 
Q 1428 2844 1947 2747 
L 2328 2669 
Q 3034 2534 3370 2195 
Q 3706 1856 3706 1288 
Q 3706 609 3251 259 
Q 2797 -91 1919 -91 
Q 1588 -91 1214 -16 
Q 841 59 441 206 
L 441 856 
Q 825 641 1194 531 
Q 1563 422 1919 422 
Q 2459 422 2753 634 
Q 3047 847 3047 1241 
Q 3047 1584 2836 1778 
Q 2625 1972 2144 2069 
L 1759 2144 
Q 1053 2284 737 2584 
Q 422 2884 422 3419 
Q 422 4038 858 4394 
Q 1294 4750 2059 4750 
Q 2388 4750 2728 4690 
Q 3069 4631 3425 4513 
z
" transform="scale(0.015625)"/>
      <path id="DejaVuSans-69" d="M 603 3500 
L 1178 3500 
L 1178 0 
L 603 0 
L 603 3500 
z
M 603 4863 
L 1178 4863 
L 1178 4134 
L 603 4134 
L 603 4863 
z
" transform="scale(0.015625)"/>
      <path id="DejaVuSans-6e" d="M 3513 2113 
L 3513 0 
L 2938 0 
L 2938 2094 
Q 2938 2591 2744 2837 
Q 2550 3084 2163 3084 
Q 1697 3084 1428 2787 
Q 1159 2491 1159 1978 
L 1159 0 
L 581 0 
L 581 3500 
L 1159 3500 
L 1159 2956 
Q 1366 3272 1645 3428 
Q 1925 3584 2291 3584 
Q 2894 3584 3203 3211 
Q 3513 2838 3513 2113 
z
" transform="scale(0.015625)"/>
      <path id="DejaVuSans-67" d="M 2906 1791 
Q 2906 2416 2648 2759 
Q 2391 3103 1925 3103 
Q 1463 3103 1205 2759 
Q 947 2416 947 1791 
Q 947 1169 1205 825 
Q 1463 481 1925 481 
Q 2391 481 2648 825 
Q 2906 1169 2906 1791 
z
M 3481 434 
Q 3481 -459 3084 -895 
Q 2688 -1331 1869 -1331 
Q 1566 -1331 1297 -1286 
Q 1028 -1241 775 -1147 
L 775 -588 
Q 1028 -725 1275 -790 
Q 1522 -856 1778 -856 
Q 2344 -856 2625 -561 
Q 2906 -266 2906 331 
L 2906 616 
Q 2728 306 2450 153 
Q 2172 0 1784 0 
Q 1141 0 747 490 
Q 353 981 353 1791 
Q 353 2603 747 3093 
Q 1141 3584 1784 3584 
Q 2172 3584 2450 3431 
Q 2728 3278 2906 2969 
L 2906 3500 
L 3481 3500 
L 3481 434 
z
" transform="scale(0.015625)"/>
      <path id="DejaVuSans-6c" d="M 603 4863 
L 1178 4863 
L 1178 0 
L 603 0 
L 603 4863 
z
" transform="scale(0.015625)"/>
      <path id="DejaVuSans-65" d="M 3597 1894 
L 3597 1613 
L 953 1613 
Q 991 1019 1311 708 
Q 1631 397 2203 397 
Q 2534 397 2845 478 
Q 3156 559 3463 722 
L 3463 178 
Q 3153 47 2828 -22 
Q 2503 -91 2169 -91 
Q 1331 -91 842 396 
Q 353 884 353 1716 
Q 353 2575 817 3079 
Q 1281 3584 2069 3584 
Q 2775 3584 3186 3129 
Q 3597 2675 3597 1894 
z
M 3022 2063 
Q 3016 2534 2758 2815 
Q 2500 3097 2075 3097 
Q 1594 3097 1305 2825 
Q 1016 2553 972 2059 
L 3022 2063 
z
" transform="scale(0.015625)"/>
      <path id="DejaVuSans-20" transform="scale(0.015625)"/>
      <path id="DejaVuSans-44" d="M 1259 4147 
L 1259 519 
L 2022 519 
Q 2988 519 3436 956 
Q 3884 1394 3884 2338 
Q 3884 3275 3436 3711 
Q 2988 4147 2022 4147 
L 1259 4147 
z
M 628 4666 
L 1925 4666 
Q 3281 4666 3915 4102 
Q 4550 3538 4550 2338 
Q 4550 1131 3912 565 
Q 3275 0 1925 0 
L 628 0 
L 628 4666 
z
" transform="scale(0.015625)"/>
      <path id="DejaVuSans-72" d="M 2631 2963 
Q 2534 3019 2420 3045 
Q 2306 3072 2169 3072 
Q 1681 3072 1420 2755 
Q 1159 2438 1159 1844 
L 1159 0 
L 581 0 
L 581 3500 
L 1159 3500 
L 1159 2956 
Q 1341 3275 1631 3429 
Q 1922 3584 2338 3584 
Q 2397 3584 2469 3576 
Q 2541 3569 2628 3553 
L 2631 2963 
z
" transform="scale(0.015625)"/>
      <path id="DejaVuSans-61" d="M 2194 1759 
Q 1497 1759 1228 1600 
Q 959 1441 959 1056 
Q 959 750 1161 570 
Q 1363 391 1709 391 
Q 2188 391 2477 730 
Q 2766 1069 2766 1631 
L 2766 1759 
L 2194 1759 
z
M 3341 1997 
L 3341 0 
L 2766 0 
L 2766 531 
Q 2569 213 2275 61 
Q 1981 -91 1556 -91 
Q 1019 -91 701 211 
Q 384 513 384 1019 
Q 384 1609 779 1909 
Q 1175 2209 1959 2209 
L 2766 2209 
L 2766 2266 
Q 2766 2663 2505 2880 
Q 2244 3097 1772 3097 
Q 1472 3097 1187 3025 
Q 903 2953 641 2809 
L 641 3341 
Q 956 3463 1253 3523 
Q 1550 3584 1831 3584 
Q 2591 3584 2966 3190 
Q 3341 2797 3341 1997 
z
" transform="scale(0.015625)"/>
      <path id="DejaVuSans-77" d="M 269 3500 
L 844 3500 
L 1563 769 
L 2278 3500 
L 2956 3500 
L 3675 769 
L 4391 3500 
L 4966 3500 
L 4050 0 
L 3372 0 
L 2619 2869 
L 1863 0 
L 1184 0 
L 269 3500 
z
" transform="scale(0.015625)"/>
      <path id="DejaVuSans-76" d="M 191 3500 
L 800 3500 
L 1894 563 
L 2988 3500 
L 3597 3500 
L 2284 0 
L 1503 0 
L 191 3500 
z
" transform="scale(0.015625)"/>
      <path id="DejaVuSans-74" d="M 1172 4494 
L 1172 3500 
L 2356 3500 
L 2356 3053 
L 1172 3053 
L 1172 1153 
Q 1172 725 1289 603 
Q 1406 481 1766 481 
L 2356 481 
L 2356 0 
L 1766 0 
Q 1100 0 847 248 
Q 594 497 594 1153 
L 594 3053 
L 172 3053 
L 172 3500 
L 594 3500 
L 594 4494 
L 1172 4494 
z
" transform="scale(0.015625)"/>
      <path id="DejaVuSans-6f" d="M 1959 3097 
Q 1497 3097 1228 2736 
Q 959 2375 959 1747 
Q 959 1119 1226 758 
Q 1494 397 1959 397 
Q 2419 397 2687 759 
Q 2956 1122 2956 1747 
Q 2956 2369 2687 2733 
Q 2419 3097 1959 3097 
z
M 1959 3584 
Q 2709 3584 3137 3096 
Q 3566 2609 3566 1747 
Q 3566 888 3137 398 
Q 2709 -91 1959 -91 
Q 1206 -91 779 398 
Q 353 888 353 1747 
Q 353 2609 779 3096 
Q 1206 3584 1959 3584 
z
" transform="scale(0.015625)"/>
     </defs>
     <use xlink:href="#DejaVuSans-53"/>
     <use xlink:href="#DejaVuSans-69" x="63.476562"/>
     <use xlink:href="#DejaVuSans-6e" x="91.259766"/>
     <use xlink:href="#DejaVuSans-67" x="154.638672"/>
     <use xlink:href="#DejaVuSans-6c" x="218.115234"/>
     <use xlink:href="#DejaVuSans-65" x="245.898438"/>
     <use xlink:href="#DejaVuSans-20" x="307.421875"/>
     <use xlink:href="#DejaVuSans-44" x="339.208984"/>
     <use xlink:href="#DejaVuSans-72" x="416.210938"/>
     <use xlink:href="#DejaVuSans-61" x="457.324219"/>
     <use xlink:href="#DejaVuSans-77" x="518.603516"/>
     <use xlink:href="#DejaVuSans-20" x="600.390625"/>
     <use xlink:href="#DejaVuSans-44" x="632.177734"/>
     <use xlink:href="#DejaVuSans-65" x="709.179688"/>
     <use xlink:href="#DejaVuSans-76" x="770.703125"/>
     <use xlink:href="#DejaVuSans-69" x="829.882812"/>
     <use xlink:href="#DejaVuSans-61" x="857.666016"/>
     <use xlink:href="#DejaVuSans-74" x="918.945312"/>
     <use xlink:href="#DejaVuSans-69" x="958.154297"/>
     <use xlink:href="#DejaVuSans-6f" x="985.9375"/>
     <use xlink:href="#DejaVuSans-6e" x="1047.119141"/>
    </g>
   </g>
   <g id="legend_1">
    <g id="patch_7">
     <path d="M 52 315.4 
L 211.935938 315.4 
Q 213.935938 315.4 213.935938 313.4 
L 213.935938 167.61875 
Q 213.935938 165.61875 211.935938 165.61875 
L 52 165.61875 
Q 50 165.61875 50 167.61875 
L 50 313.4 
Q 50 315.4 52 315.4 
z
" style="fill: #ffffff; opacity: 0.8; stroke: #cccccc; stroke-linejoin: miter"/>
    </g>
    <g id="line2d_22">
     <path d="M 54 173.717188 
L 64 173.717188 
L 74 173.717188 
" style="fill: none; stroke: #1f77b4; stroke-width: 1.5; stroke-linecap: square"/>
    </g>
    <g id="text_13">
     <!-- Deviation from average 0 -->
     <g transform="translate(82 177.217188)scale(0.1 -0.1)">
      <defs>
       <path id="DejaVuSans-66" d="M 2375 4863 
L 2375 4384 
L 1825 4384 
Q 1516 4384 1395 4259 
Q 1275 4134 1275 3809 
L 1275 3500 
L 2222 3500 
L 2222 3053 
L 1275 3053 
L 1275 0 
L 697 0 
L 697 3053 
L 147 3053 
L 147 3500 
L 697 3500 
L 697 3744 
Q 697 4328 969 4595 
Q 1241 4863 1831 4863 
L 2375 4863 
z
" transform="scale(0.015625)"/>
       <path id="DejaVuSans-6d" d="M 3328 2828 
Q 3544 3216 3844 3400 
Q 4144 3584 4550 3584 
Q 5097 3584 5394 3201 
Q 5691 2819 5691 2113 
L 5691 0 
L 5113 0 
L 5113 2094 
Q 5113 2597 4934 2840 
Q 4756 3084 4391 3084 
Q 3944 3084 3684 2787 
Q 3425 2491 3425 1978 
L 3425 0 
L 2847 0 
L 2847 2094 
Q 2847 2600 2669 2842 
Q 2491 3084 2119 3084 
Q 1678 3084 1418 2786 
Q 1159 2488 1159 1978 
L 1159 0 
L 581 0 
L 581 3500 
L 1159 3500 
L 1159 2956 
Q 1356 3278 1631 3431 
Q 1906 3584 2284 3584 
Q 2666 3584 2933 3390 
Q 3200 3197 3328 2828 
z
" transform="scale(0.015625)"/>
      </defs>
      <use xlink:href="#DejaVuSans-44"/>
      <use xlink:href="#DejaVuSans-65" x="77.001953"/>
      <use xlink:href="#DejaVuSans-76" x="138.525391"/>
      <use xlink:href="#DejaVuSans-69" x="197.705078"/>
      <use xlink:href="#DejaVuSans-61" x="225.488281"/>
      <use xlink:href="#DejaVuSans-74" x="286.767578"/>
      <use xlink:href="#DejaVuSans-69" x="325.976562"/>
      <use xlink:href="#DejaVuSans-6f" x="353.759766"/>
      <use xlink:href="#DejaVuSans-6e" x="414.941406"/>
      <use xlink:href="#DejaVuSans-20" x="478.320312"/>
      <use xlink:href="#DejaVuSans-66" x="510.107422"/>
      <use xlink:href="#DejaVuSans-72" x="545.3125"/>
      <use xlink:href="#DejaVuSans-6f" x="584.175781"/>
      <use xlink:href="#DejaVuSans-6d" x="645.357422"/>
      <use xlink:href="#DejaVuSans-20" x="742.769531"/>
      <use xlink:href="#DejaVuSans-61" x="774.556641"/>
      <use xlink:href="#DejaVuSans-76" x="835.835938"/>
      <use xlink:href="#DejaVuSans-65" x="895.015625"/>
      <use xlink:href="#DejaVuSans-72" x="956.539062"/>
      <use xlink:href="#DejaVuSans-61" x="997.652344"/>
      <use xlink:href="#DejaVuSans-67" x="1058.931641"/>
      <use xlink:href="#DejaVuSans-65" x="1122.408203"/>
      <use xlink:href="#DejaVuSans-20" x="1183.931641"/>
      <use xlink:href="#DejaVuSans-30" x="1215.71875"/>
     </g>
    </g>
    <g id="line2d_23">
     <path d="M 54 188.395313 
L 64 188.395313 
L 74 188.395313 
" style="fill: none; stroke: #ff7f0e; stroke-width: 1.5; stroke-linecap: square"/>
    </g>
    <g id="text_14">
     <!-- Deviation from average 1 -->
     <g transform="translate(82 191.895313)scale(0.1 -0.1)">
      <use xlink:href="#DejaVuSans-44"/>
      <use xlink:href="#DejaVuSans-65" x="77.001953"/>
      <use xlink:href="#DejaVuSans-76" x="138.525391"/>
      <use xlink:href="#DejaVuSans-69" x="197.705078"/>
      <use xlink:href="#DejaVuSans-61" x="225.488281"/>
      <use xlink:href="#DejaVuSans-74" x="286.767578"/>
      <use xlink:href="#DejaVuSans-69" x="325.976562"/>
      <use xlink:href="#DejaVuSans-6f" x="353.759766"/>
      <use xlink:href="#DejaVuSans-6e" x="414.941406"/>
      <use xlink:href="#DejaVuSans-20" x="478.320312"/>
      <use xlink:href="#DejaVuSans-66" x="510.107422"/>
      <use xlink:href="#DejaVuSans-72" x="545.3125"/>
      <use xlink:href="#DejaVuSans-6f" x="584.175781"/>
      <use xlink:href="#DejaVuSans-6d" x="645.357422"/>
      <use xlink:href="#DejaVuSans-20" x="742.769531"/>
      <use xlink:href="#DejaVuSans-61" x="774.556641"/>
      <use xlink:href="#DejaVuSans-76" x="835.835938"/>
      <use xlink:href="#DejaVuSans-65" x="895.015625"/>
      <use xlink:href="#DejaVuSans-72" x="956.539062"/>
      <use xlink:href="#DejaVuSans-61" x="997.652344"/>
      <use xlink:href="#DejaVuSans-67" x="1058.931641"/>
      <use xlink:href="#DejaVuSans-65" x="1122.408203"/>
      <use xlink:href="#DejaVuSans-20" x="1183.931641"/>
      <use xlink:href="#DejaVuSans-31" x="1215.71875"/>
     </g>
    </g>
    <g id="line2d_24">
     <path d="M 54 203.073438 
L 64 203.073438 
L 74 203.073438 
" style="fill: none; stroke: #2ca02c; stroke-width: 1.5; stroke-linecap: square"/>
    </g>
    <g id="text_15">
     <!-- Deviation from average 2 -->
     <g transform="translate(82 206.573438)scale(0.1 -0.1)">
      <use xlink:href="#DejaVuSans-44"/>
      <use xlink:href="#DejaVuSans-65" x="77.001953"/>
      <use xlink:href="#DejaVuSans-76" x="138.525391"/>
      <use xlink:href="#DejaVuSans-69" x="197.705078"/>
      <use xlink:href="#DejaVuSans-61" x="225.488281"/>
      <use xlink:href="#DejaVuSans-74" x="286.767578"/>
      <use xlink:href="#DejaVuSans-69" x="325.976562"/>
      <use xlink:href="#DejaVuSans-6f" x="353.759766"/>
      <use xlink:href="#DejaVuSans-6e" x="414.941406"/>
      <use xlink:href="#DejaVuSans-20" x="478.320312"/>
      <use xlink:href="#DejaVuSans-66" x="510.107422"/>
      <use xlink:href="#DejaVuSans-72" x="545.3125"/>
      <use xlink:href="#DejaVuSans-6f" x="584.175781"/>
      <use xlink:href="#DejaVuSans-6d" x="645.357422"/>
      <use xlink:href="#DejaVuSans-20" x="742.769531"/>
      <use xlink:href="#DejaVuSans-61" x="774.556641"/>
      <use xlink:href="#DejaVuSans-76" x="835.835938"/>
      <use xlink:href="#DejaVuSans-65" x="895.015625"/>
      <use xlink:href="#DejaVuSans-72" x="956.539062"/>
      <use xlink:href="#DejaVuSans-61" x="997.652344"/>
      <use xlink:href="#DejaVuSans-67" x="1058.931641"/>
      <use xlink:href="#DejaVuSans-65" x="1122.408203"/>
      <use xlink:href="#DejaVuSans-20" x="1183.931641"/>
      <use xlink:href="#DejaVuSans-32" x="1215.71875"/>
     </g>
    </g>
    <g id="line2d_25">
     <path d="M 54 217.751563 
L 64 217.751563 
L 74 217.751563 
" style="fill: none; stroke: #d62728; stroke-width: 1.5; stroke-linecap: square"/>
    </g>
    <g id="text_16">
     <!-- Deviation from average 3 -->
     <g transform="translate(82 221.251563)scale(0.1 -0.1)">
      <use xlink:href="#DejaVuSans-44"/>
      <use xlink:href="#DejaVuSans-65" x="77.001953"/>
      <use xlink:href="#DejaVuSans-76" x="138.525391"/>
      <use xlink:href="#DejaVuSans-69" x="197.705078"/>
      <use xlink:href="#DejaVuSans-61" x="225.488281"/>
      <use xlink:href="#DejaVuSans-74" x="286.767578"/>
      <use xlink:href="#DejaVuSans-69" x="325.976562"/>
      <use xlink:href="#DejaVuSans-6f" x="353.759766"/>
      <use xlink:href="#DejaVuSans-6e" x="414.941406"/>
      <use xlink:href="#DejaVuSans-20" x="478.320312"/>
      <use xlink:href="#DejaVuSans-66" x="510.107422"/>
      <use xlink:href="#DejaVuSans-72" x="545.3125"/>
      <use xlink:href="#DejaVuSans-6f" x="584.175781"/>
      <use xlink:href="#DejaVuSans-6d" x="645.357422"/>
      <use xlink:href="#DejaVuSans-20" x="742.769531"/>
      <use xlink:href="#DejaVuSans-61" x="774.556641"/>
      <use xlink:href="#DejaVuSans-76" x="835.835938"/>
      <use xlink:href="#DejaVuSans-65" x="895.015625"/>
      <use xlink:href="#DejaVuSans-72" x="956.539062"/>
      <use xlink:href="#DejaVuSans-61" x="997.652344"/>
      <use xlink:href="#DejaVuSans-67" x="1058.931641"/>
      <use xlink:href="#DejaVuSans-65" x="1122.408203"/>
      <use xlink:href="#DejaVuSans-20" x="1183.931641"/>
      <use xlink:href="#DejaVuSans-33" x="1215.71875"/>
     </g>
    </g>
    <g id="line2d_26">
     <path d="M 54 232.429688 
L 64 232.429688 
L 74 232.429688 
" style="fill: none; stroke: #9467bd; stroke-width: 1.5; stroke-linecap: square"/>
    </g>
    <g id="text_17">
     <!-- Deviation from average 4 -->
     <g transform="translate(82 235.929688)scale(0.1 -0.1)">
      <defs>
       <path id="DejaVuSans-34" d="M 2419 4116 
L 825 1625 
L 2419 1625 
L 2419 4116 
z
M 2253 4666 
L 3047 4666 
L 3047 1625 
L 3713 1625 
L 3713 1100 
L 3047 1100 
L 3047 0 
L 2419 0 
L 2419 1100 
L 313 1100 
L 313 1709 
L 2253 4666 
z
" transform="scale(0.015625)"/>
      </defs>
      <use xlink:href="#DejaVuSans-44"/>
      <use xlink:href="#DejaVuSans-65" x="77.001953"/>
      <use xlink:href="#DejaVuSans-76" x="138.525391"/>
      <use xlink:href="#DejaVuSans-69" x="197.705078"/>
      <use xlink:href="#DejaVuSans-61" x="225.488281"/>
      <use xlink:href="#DejaVuSans-74" x="286.767578"/>
      <use xlink:href="#DejaVuSans-69" x="325.976562"/>
      <use xlink:href="#DejaVuSans-6f" x="353.759766"/>
      <use xlink:href="#DejaVuSans-6e" x="414.941406"/>
      <use xlink:href="#DejaVuSans-20" x="478.320312"/>
      <use xlink:href="#DejaVuSans-66" x="510.107422"/>
      <use xlink:href="#DejaVuSans-72" x="545.3125"/>
      <use xlink:href="#DejaVuSans-6f" x="584.175781"/>
      <use xlink:href="#DejaVuSans-6d" x="645.357422"/>
      <use xlink:href="#DejaVuSans-20" x="742.769531"/>
      <use xlink:href="#DejaVuSans-61" x="774.556641"/>
      <use xlink:href="#DejaVuSans-76" x="835.835938"/>
      <use xlink:href="#DejaVuSans-65" x="895.015625"/>
      <use xlink:href="#DejaVuSans-72" x="956.539062"/>
      <use xlink:href="#DejaVuSans-61" x="997.652344"/>
      <use xlink:href="#DejaVuSans-67" x="1058.931641"/>
      <use xlink:href="#DejaVuSans-65" x="1122.408203"/>
      <use xlink:href="#DejaVuSans-20" x="1183.931641"/>
      <use xlink:href="#DejaVuSans-34" x="1215.71875"/>
     </g>
    </g>
    <g id="line2d_27">
     <path d="M 54 247.107813 
L 64 247.107813 
L 74 247.107813 
" style="fill: none; stroke: #8c564b; stroke-width: 1.5; stroke-linecap: square"/>
    </g>
    <g id="text_18">
     <!-- Deviation from average 5 -->
     <g transform="translate(82 250.607813)scale(0.1 -0.1)">
      <defs>
       <path id="DejaVuSans-35" d="M 691 4666 
L 3169 4666 
L 3169 4134 
L 1269 4134 
L 1269 2991 
Q 1406 3038 1543 3061 
Q 1681 3084 1819 3084 
Q 2600 3084 3056 2656 
Q 3513 2228 3513 1497 
Q 3513 744 3044 326 
Q 2575 -91 1722 -91 
Q 1428 -91 1123 -41 
Q 819 9 494 109 
L 494 744 
Q 775 591 1075 516 
Q 1375 441 1709 441 
Q 2250 441 2565 725 
Q 2881 1009 2881 1497 
Q 2881 1984 2565 2268 
Q 2250 2553 1709 2553 
Q 1456 2553 1204 2497 
Q 953 2441 691 2322 
L 691 4666 
z
" transform="scale(0.015625)"/>
      </defs>
      <use xlink:href="#DejaVuSans-44"/>
      <use xlink:href="#DejaVuSans-65" x="77.001953"/>
      <use xlink:href="#DejaVuSans-76" x="138.525391"/>
      <use xlink:href="#DejaVuSans-69" x="197.705078"/>
      <use xlink:href="#DejaVuSans-61" x="225.488281"/>
      <use xlink:href="#DejaVuSans-74" x="286.767578"/>
      <use xlink:href="#DejaVuSans-69" x="325.976562"/>
      <use xlink:href="#DejaVuSans-6f" x="353.759766"/>
      <use xlink:href="#DejaVuSans-6e" x="414.941406"/>
      <use xlink:href="#DejaVuSans-20" x="478.320312"/>
      <use xlink:href="#DejaVuSans-66" x="510.107422"/>
      <use xlink:href="#DejaVuSans-72" x="545.3125"/>
      <use xlink:href="#DejaVuSans-6f" x="584.175781"/>
      <use xlink:href="#DejaVuSans-6d" x="645.357422"/>
      <use xlink:href="#DejaVuSans-20" x="742.769531"/>
      <use xlink:href="#DejaVuSans-61" x="774.556641"/>
      <use xlink:href="#DejaVuSans-76" x="835.835938"/>
      <use xlink:href="#DejaVuSans-65" x="895.015625"/>
      <use xlink:href="#DejaVuSans-72" x="956.539062"/>
      <use xlink:href="#DejaVuSans-61" x="997.652344"/>
      <use xlink:href="#DejaVuSans-67" x="1058.931641"/>
      <use xlink:href="#DejaVuSans-65" x="1122.408203"/>
      <use xlink:href="#DejaVuSans-20" x="1183.931641"/>
      <use xlink:href="#DejaVuSans-35" x="1215.71875"/>
     </g>
    </g>
    <g id="line2d_28">
     <path d="M 54 261.785938 
L 64 261.785938 
L 74 261.785938 
" style="fill: none; stroke: #e377c2; stroke-width: 1.5; stroke-linecap: square"/>
    </g>
    <g id="text_19">
     <!-- Deviation from average 6 -->
     <g transform="translate(82 265.285938)scale(0.1 -0.1)">
      <defs>
       <path id="DejaVuSans-36" d="M 2113 2584 
Q 1688 2584 1439 2293 
Q 1191 2003 1191 1497 
Q 1191 994 1439 701 
Q 1688 409 2113 409 
Q 2538 409 2786 701 
Q 3034 994 3034 1497 
Q 3034 2003 2786 2293 
Q 2538 2584 2113 2584 
z
M 3366 4563 
L 3366 3988 
Q 3128 4100 2886 4159 
Q 2644 4219 2406 4219 
Q 1781 4219 1451 3797 
Q 1122 3375 1075 2522 
Q 1259 2794 1537 2939 
Q 1816 3084 2150 3084 
Q 2853 3084 3261 2657 
Q 3669 2231 3669 1497 
Q 3669 778 3244 343 
Q 2819 -91 2113 -91 
Q 1303 -91 875 529 
Q 447 1150 447 2328 
Q 447 3434 972 4092 
Q 1497 4750 2381 4750 
Q 2619 4750 2861 4703 
Q 3103 4656 3366 4563 
z
" transform="scale(0.015625)"/>
      </defs>
      <use xlink:href="#DejaVuSans-44"/>
      <use xlink:href="#DejaVuSans-65" x="77.001953"/>
      <use xlink:href="#DejaVuSans-76" x="138.525391"/>
      <use xlink:href="#DejaVuSans-69" x="197.705078"/>
      <use xlink:href="#DejaVuSans-61" x="225.488281"/>
      <use xlink:href="#DejaVuSans-74" x="286.767578"/>
      <use xlink:href="#DejaVuSans-69" x="325.976562"/>
      <use xlink:href="#DejaVuSans-6f" x="353.759766"/>
      <use xlink:href="#DejaVuSans-6e" x="414.941406"/>
      <use xlink:href="#DejaVuSans-20" x="478.320312"/>
      <use xlink:href="#DejaVuSans-66" x="510.107422"/>
      <use xlink:href="#DejaVuSans-72" x="545.3125"/>
      <use xlink:href="#DejaVuSans-6f" x="584.175781"/>
      <use xlink:href="#DejaVuSans-6d" x="645.357422"/>
      <use xlink:href="#DejaVuSans-20" x="742.769531"/>
      <use xlink:href="#DejaVuSans-61" x="774.556641"/>
      <use xlink:href="#DejaVuSans-76" x="835.835938"/>
      <use xlink:href="#DejaVuSans-65" x="895.015625"/>
      <use xlink:href="#DejaVuSans-72" x="956.539062"/>
      <use xlink:href="#DejaVuSans-61" x="997.652344"/>
      <use xlink:href="#DejaVuSans-67" x="1058.931641"/>
      <use xlink:href="#DejaVuSans-65" x="1122.408203"/>
      <use xlink:href="#DejaVuSans-20" x="1183.931641"/>
      <use xlink:href="#DejaVuSans-36" x="1215.71875"/>
     </g>
    </g>
    <g id="line2d_29">
     <path d="M 54 276.464063 
L 64 276.464063 
L 74 276.464063 
" style="fill: none; stroke: #7f7f7f; stroke-width: 1.5; stroke-linecap: square"/>
    </g>
    <g id="text_20">
     <!-- Deviation from average 7 -->
     <g transform="translate(82 279.964063)scale(0.1 -0.1)">
      <defs>
       <path id="DejaVuSans-37" d="M 525 4666 
L 3525 4666 
L 3525 4397 
L 1831 0 
L 1172 0 
L 2766 4134 
L 525 4134 
L 525 4666 
z
" transform="scale(0.015625)"/>
      </defs>
      <use xlink:href="#DejaVuSans-44"/>
      <use xlink:href="#DejaVuSans-65" x="77.001953"/>
      <use xlink:href="#DejaVuSans-76" x="138.525391"/>
      <use xlink:href="#DejaVuSans-69" x="197.705078"/>
      <use xlink:href="#DejaVuSans-61" x="225.488281"/>
      <use xlink:href="#DejaVuSans-74" x="286.767578"/>
      <use xlink:href="#DejaVuSans-69" x="325.976562"/>
      <use xlink:href="#DejaVuSans-6f" x="353.759766"/>
      <use xlink:href="#DejaVuSans-6e" x="414.941406"/>
      <use xlink:href="#DejaVuSans-20" x="478.320312"/>
      <use xlink:href="#DejaVuSans-66" x="510.107422"/>
      <use xlink:href="#DejaVuSans-72" x="545.3125"/>
      <use xlink:href="#DejaVuSans-6f" x="584.175781"/>
      <use xlink:href="#DejaVuSans-6d" x="645.357422"/>
      <use xlink:href="#DejaVuSans-20" x="742.769531"/>
      <use xlink:href="#DejaVuSans-61" x="774.556641"/>
      <use xlink:href="#DejaVuSans-76" x="835.835938"/>
      <use xlink:href="#DejaVuSans-65" x="895.015625"/>
      <use xlink:href="#DejaVuSans-72" x="956.539062"/>
      <use xlink:href="#DejaVuSans-61" x="997.652344"/>
      <use xlink:href="#DejaVuSans-67" x="1058.931641"/>
      <use xlink:href="#DejaVuSans-65" x="1122.408203"/>
      <use xlink:href="#DejaVuSans-20" x="1183.931641"/>
      <use xlink:href="#DejaVuSans-37" x="1215.71875"/>
     </g>
    </g>
    <g id="line2d_30">
     <path d="M 54 291.142188 
L 64 291.142188 
L 74 291.142188 
" style="fill: none; stroke: #bcbd22; stroke-width: 1.5; stroke-linecap: square"/>
    </g>
    <g id="text_21">
     <!-- Deviation from average 8 -->
     <g transform="translate(82 294.642188)scale(0.1 -0.1)">
      <defs>
       <path id="DejaVuSans-38" d="M 2034 2216 
Q 1584 2216 1326 1975 
Q 1069 1734 1069 1313 
Q 1069 891 1326 650 
Q 1584 409 2034 409 
Q 2484 409 2743 651 
Q 3003 894 3003 1313 
Q 3003 1734 2745 1975 
Q 2488 2216 2034 2216 
z
M 1403 2484 
Q 997 2584 770 2862 
Q 544 3141 544 3541 
Q 544 4100 942 4425 
Q 1341 4750 2034 4750 
Q 2731 4750 3128 4425 
Q 3525 4100 3525 3541 
Q 3525 3141 3298 2862 
Q 3072 2584 2669 2484 
Q 3125 2378 3379 2068 
Q 3634 1759 3634 1313 
Q 3634 634 3220 271 
Q 2806 -91 2034 -91 
Q 1263 -91 848 271 
Q 434 634 434 1313 
Q 434 1759 690 2068 
Q 947 2378 1403 2484 
z
M 1172 3481 
Q 1172 3119 1398 2916 
Q 1625 2713 2034 2713 
Q 2441 2713 2670 2916 
Q 2900 3119 2900 3481 
Q 2900 3844 2670 4047 
Q 2441 4250 2034 4250 
Q 1625 4250 1398 4047 
Q 1172 3844 1172 3481 
z
" transform="scale(0.015625)"/>
      </defs>
      <use xlink:href="#DejaVuSans-44"/>
      <use xlink:href="#DejaVuSans-65" x="77.001953"/>
      <use xlink:href="#DejaVuSans-76" x="138.525391"/>
      <use xlink:href="#DejaVuSans-69" x="197.705078"/>
      <use xlink:href="#DejaVuSans-61" x="225.488281"/>
      <use xlink:href="#DejaVuSans-74" x="286.767578"/>
      <use xlink:href="#DejaVuSans-69" x="325.976562"/>
      <use xlink:href="#DejaVuSans-6f" x="353.759766"/>
      <use xlink:href="#DejaVuSans-6e" x="414.941406"/>
      <use xlink:href="#DejaVuSans-20" x="478.320312"/>
      <use xlink:href="#DejaVuSans-66" x="510.107422"/>
      <use xlink:href="#DejaVuSans-72" x="545.3125"/>
      <use xlink:href="#DejaVuSans-6f" x="584.175781"/>
      <use xlink:href="#DejaVuSans-6d" x="645.357422"/>
      <use xlink:href="#DejaVuSans-20" x="742.769531"/>
      <use xlink:href="#DejaVuSans-61" x="774.556641"/>
      <use xlink:href="#DejaVuSans-76" x="835.835938"/>
      <use xlink:href="#DejaVuSans-65" x="895.015625"/>
      <use xlink:href="#DejaVuSans-72" x="956.539062"/>
      <use xlink:href="#DejaVuSans-61" x="997.652344"/>
      <use xlink:href="#DejaVuSans-67" x="1058.931641"/>
      <use xlink:href="#DejaVuSans-65" x="1122.408203"/>
      <use xlink:href="#DejaVuSans-20" x="1183.931641"/>
      <use xlink:href="#DejaVuSans-38" x="1215.71875"/>
     </g>
    </g>
    <g id="line2d_31">
     <path d="M 54 305.820312 
L 64 305.820312 
L 74 305.820312 
" style="fill: none; stroke: #17becf; stroke-width: 1.5; stroke-linecap: square"/>
    </g>
    <g id="text_22">
     <!-- Deviation from average 9 -->
     <g transform="translate(82 309.320312)scale(0.1 -0.1)">
      <defs>
       <path id="DejaVuSans-39" d="M 703 97 
L 703 672 
Q 941 559 1184 500 
Q 1428 441 1663 441 
Q 2288 441 2617 861 
Q 2947 1281 2994 2138 
Q 2813 1869 2534 1725 
Q 2256 1581 1919 1581 
Q 1219 1581 811 2004 
Q 403 2428 403 3163 
Q 403 3881 828 4315 
Q 1253 4750 1959 4750 
Q 2769 4750 3195 4129 
Q 3622 3509 3622 2328 
Q 3622 1225 3098 567 
Q 2575 -91 1691 -91 
Q 1453 -91 1209 -44 
Q 966 3 703 97 
z
M 1959 2075 
Q 2384 2075 2632 2365 
Q 2881 2656 2881 3163 
Q 2881 3666 2632 3958 
Q 2384 4250 1959 4250 
Q 1534 4250 1286 3958 
Q 1038 3666 1038 3163 
Q 1038 2656 1286 2365 
Q 1534 2075 1959 2075 
z
" transform="scale(0.015625)"/>
      </defs>
      <use xlink:href="#DejaVuSans-44"/>
      <use xlink:href="#DejaVuSans-65" x="77.001953"/>
      <use xlink:href="#DejaVuSans-76" x="138.525391"/>
      <use xlink:href="#DejaVuSans-69" x="197.705078"/>
      <use xlink:href="#DejaVuSans-61" x="225.488281"/>
      <use xlink:href="#DejaVuSans-74" x="286.767578"/>
      <use xlink:href="#DejaVuSans-69" x="325.976562"/>
      <use xlink:href="#DejaVuSans-6f" x="353.759766"/>
      <use xlink:href="#DejaVuSans-6e" x="414.941406"/>
      <use xlink:href="#DejaVuSans-20" x="478.320312"/>
      <use xlink:href="#DejaVuSans-66" x="510.107422"/>
      <use xlink:href="#DejaVuSans-72" x="545.3125"/>
      <use xlink:href="#DejaVuSans-6f" x="584.175781"/>
      <use xlink:href="#DejaVuSans-6d" x="645.357422"/>
      <use xlink:href="#DejaVuSans-20" x="742.769531"/>
      <use xlink:href="#DejaVuSans-61" x="774.556641"/>
      <use xlink:href="#DejaVuSans-76" x="835.835938"/>
      <use xlink:href="#DejaVuSans-65" x="895.015625"/>
      <use xlink:href="#DejaVuSans-72" x="956.539062"/>
      <use xlink:href="#DejaVuSans-61" x="997.652344"/>
      <use xlink:href="#DejaVuSans-67" x="1058.931641"/>
      <use xlink:href="#DejaVuSans-65" x="1122.408203"/>
      <use xlink:href="#DejaVuSans-20" x="1183.931641"/>
      <use xlink:href="#DejaVuSans-39" x="1215.71875"/>
     </g>
    </g>
   </g>
  </g>
 </g>
 <defs>
  <clipPath id="pd7ebd0eaf1">
   <rect x="45" y="43.2" width="279" height="277.2"/>
  </clipPath>
 </defs>
</svg>
