<?xml version="1.0" encoding="utf-8" standalone="no"?>
<!DOCTYPE svg PUBLIC "-//W3C//DTD SVG 1.1//EN"
  "http://www.w3.org/Graphics/SVG/1.1/DTD/svg11.dtd">
<svg xmlns:xlink="http://www.w3.org/1999/xlink" width="360pt" height="360pt" viewBox="0 0 360 360" xmlns="http://www.w3.org/2000/svg" version="1.1">
 <metadata>
  <rdf:RDF xmlns:dc="http://purl.org/dc/elements/1.1/" xmlns:cc="http://creativecommons.org/ns#" xmlns:rdf="http://www.w3.org/1999/02/22-rdf-syntax-ns#">
   <cc:Work>
    <dc:type rdf:resource="http://purl.org/dc/dcmitype/StillImage"/>
    <dc:date>2022-11-10T20:07:22.752986</dc:date>
    <dc:format>image/svg+xml</dc:format>
    <dc:creator>
     <cc:Agent>
      <dc:title>Matplotlib v3.5.3, https://matplotlib.org/</dc:title>
     </cc:Agent>
    </dc:creator>
   </cc:Work>
  </rdf:RDF>
 </metadata>
 <defs>
  <style type="text/css">*{stroke-linejoin: round; stroke-linecap: butt}</style>
 </defs>
 <g id="figure_1">
  <g id="patch_1">
   <path d="M 0 360 
L 360 360 
L 360 0 
L 0 0 
z
" style="fill: #ffffff"/>
  </g>
  <g id="axes_1">
   <g id="patch_2">
    <path d="M 45 320.4 
L 324 320.4 
L 324 43.2 
L 45 43.2 
z
" style="fill: #ffffff"/>
   </g>
   <g id="matplotlib.axis_1">
    <g id="xtick_1">
     <g id="line2d_1">
      <defs>
       <path id="mc9acef5619" d="M 0 0 
L 0 3.5 
" style="stroke: #000000; stroke-width: 0.8"/>
      </defs>
      <g>
       <use xlink:href="#mc9acef5619" x="83.045455" y="320.4" style="stroke: #000000; stroke-width: 0.8"/>
      </g>
     </g>
     <g id="text_1">
      <!-- −2 -->
      <g transform="translate(75.674361 334.998438)scale(0.1 -0.1)">
       <defs>
        <path id="DejaVuSans-2212" d="M 678 2272 
L 4684 2272 
L 4684 1741 
L 678 1741 
L 678 2272 
z
" transform="scale(0.015625)"/>
        <path id="DejaVuSans-32" d="M 1228 531 
L 3431 531 
L 3431 0 
L 469 0 
L 469 531 
Q 828 903 1448 1529 
Q 2069 2156 2228 2338 
Q 2531 2678 2651 2914 
Q 2772 3150 2772 3378 
Q 2772 3750 2511 3984 
Q 2250 4219 1831 4219 
Q 1534 4219 1204 4116 
Q 875 4013 500 3803 
L 500 4441 
Q 881 4594 1212 4672 
Q 1544 4750 1819 4750 
Q 2544 4750 2975 4387 
Q 3406 4025 3406 3419 
Q 3406 3131 3298 2873 
Q 3191 2616 2906 2266 
Q 2828 2175 2409 1742 
Q 1991 1309 1228 531 
z
" transform="scale(0.015625)"/>
       </defs>
       <use xlink:href="#DejaVuSans-2212"/>
       <use xlink:href="#DejaVuSans-32" x="83.789062"/>
      </g>
     </g>
    </g>
    <g id="xtick_2">
     <g id="line2d_2">
      <g>
       <use xlink:href="#mc9acef5619" x="133.772727" y="320.4" style="stroke: #000000; stroke-width: 0.8"/>
      </g>
     </g>
     <g id="text_2">
      <!-- −1 -->
      <g transform="translate(126.401634 334.998438)scale(0.1 -0.1)">
       <defs>
        <path id="DejaVuSans-31" d="M 794 531 
L 1825 531 
L 1825 4091 
L 703 3866 
L 703 4441 
L 1819 4666 
L 2450 4666 
L 2450 531 
L 3481 531 
L 3481 0 
L 794 0 
L 794 531 
z
" transform="scale(0.015625)"/>
       </defs>
       <use xlink:href="#DejaVuSans-2212"/>
       <use xlink:href="#DejaVuSans-31" x="83.789062"/>
      </g>
     </g>
    </g>
    <g id="xtick_3">
     <g id="line2d_3">
      <g>
       <use xlink:href="#mc9acef5619" x="184.5" y="320.4" style="stroke: #000000; stroke-width: 0.8"/>
      </g>
     </g>
     <g id="text_3">
      <!-- 0 -->
      <g transform="translate(181.31875 334.998438)scale(0.1 -0.1)">
       <defs>
        <path id="DejaVuSans-30" d="M 2034 4250 
Q 1547 4250 1301 3770 
Q 1056 3291 1056 2328 
Q 1056 1369 1301 889 
Q 1547 409 2034 409 
Q 2525 409 2770 889 
Q 3016 1369 3016 2328 
Q 3016 3291 2770 3770 
Q 2525 4250 2034 4250 
z
M 2034 4750 
Q 2819 4750 3233 4129 
Q 3647 3509 3647 2328 
Q 3647 1150 3233 529 
Q 2819 -91 2034 -91 
Q 1250 -91 836 529 
Q 422 1150 422 2328 
Q 422 3509 836 4129 
Q 1250 4750 2034 4750 
z
" transform="scale(0.015625)"/>
       </defs>
       <use xlink:href="#DejaVuSans-30"/>
      </g>
     </g>
    </g>
    <g id="xtick_4">
     <g id="line2d_4">
      <g>
       <use xlink:href="#mc9acef5619" x="235.227273" y="320.4" style="stroke: #000000; stroke-width: 0.8"/>
      </g>
     </g>
     <g id="text_4">
      <!-- 1 -->
      <g transform="translate(232.046023 334.998438)scale(0.1 -0.1)">
       <use xlink:href="#DejaVuSans-31"/>
      </g>
     </g>
    </g>
    <g id="xtick_5">
     <g id="line2d_5">
      <g>
       <use xlink:href="#mc9acef5619" x="285.954545" y="320.4" style="stroke: #000000; stroke-width: 0.8"/>
      </g>
     </g>
     <g id="text_5">
      <!-- 2 -->
      <g transform="translate(282.773295 334.998438)scale(0.1 -0.1)">
       <use xlink:href="#DejaVuSans-32"/>
      </g>
     </g>
    </g>
   </g>
   <g id="matplotlib.axis_2">
    <g id="ytick_1">
     <g id="line2d_6">
      <defs>
       <path id="m697df7d2e6" d="M 0 0 
L -3.5 0 
" style="stroke: #000000; stroke-width: 0.8"/>
      </defs>
      <g>
       <use xlink:href="#m697df7d2e6" x="45" y="310.996934" style="stroke: #000000; stroke-width: 0.8"/>
      </g>
     </g>
     <g id="text_6">
      <!-- $\mathdefault{10^{-3}}$ -->
      <g transform="translate(14.5 314.796153)scale(0.1 -0.1)">
       <defs>
        <path id="DejaVuSans-33" d="M 2597 2516 
Q 3050 2419 3304 2112 
Q 3559 1806 3559 1356 
Q 3559 666 3084 287 
Q 2609 -91 1734 -91 
Q 1441 -91 1130 -33 
Q 819 25 488 141 
L 488 750 
Q 750 597 1062 519 
Q 1375 441 1716 441 
Q 2309 441 2620 675 
Q 2931 909 2931 1356 
Q 2931 1769 2642 2001 
Q 2353 2234 1838 2234 
L 1294 2234 
L 1294 2753 
L 1863 2753 
Q 2328 2753 2575 2939 
Q 2822 3125 2822 3475 
Q 2822 3834 2567 4026 
Q 2313 4219 1838 4219 
Q 1578 4219 1281 4162 
Q 984 4106 628 3988 
L 628 4550 
Q 988 4650 1302 4700 
Q 1616 4750 1894 4750 
Q 2613 4750 3031 4423 
Q 3450 4097 3450 3541 
Q 3450 3153 3228 2886 
Q 3006 2619 2597 2516 
z
" transform="scale(0.015625)"/>
       </defs>
       <use xlink:href="#DejaVuSans-31" transform="translate(0 0.765625)"/>
       <use xlink:href="#DejaVuSans-30" transform="translate(63.623047 0.765625)"/>
       <use xlink:href="#DejaVuSans-2212" transform="translate(128.203125 39.046875)scale(0.7)"/>
       <use xlink:href="#DejaVuSans-33" transform="translate(186.855469 39.046875)scale(0.7)"/>
      </g>
     </g>
    </g>
    <g id="ytick_2">
     <g id="line2d_7">
      <g>
       <use xlink:href="#m697df7d2e6" x="45" y="250.861184" style="stroke: #000000; stroke-width: 0.8"/>
      </g>
     </g>
     <g id="text_7">
      <!-- $\mathdefault{10^{-2}}$ -->
      <g transform="translate(14.5 254.660403)scale(0.1 -0.1)">
       <use xlink:href="#DejaVuSans-31" transform="translate(0 0.765625)"/>
       <use xlink:href="#DejaVuSans-30" transform="translate(63.623047 0.765625)"/>
       <use xlink:href="#DejaVuSans-2212" transform="translate(128.203125 39.046875)scale(0.7)"/>
       <use xlink:href="#DejaVuSans-32" transform="translate(186.855469 39.046875)scale(0.7)"/>
      </g>
     </g>
    </g>
    <g id="ytick_3">
     <g id="line2d_8">
      <g>
       <use xlink:href="#m697df7d2e6" x="45" y="190.725433" style="stroke: #000000; stroke-width: 0.8"/>
      </g>
     </g>
     <g id="text_8">
      <!-- $\mathdefault{10^{-1}}$ -->
      <g transform="translate(14.5 194.524652)scale(0.1 -0.1)">
       <use xlink:href="#DejaVuSans-31" transform="translate(0 0.684375)"/>
       <use xlink:href="#DejaVuSans-30" transform="translate(63.623047 0.684375)"/>
       <use xlink:href="#DejaVuSans-2212" transform="translate(128.203125 38.965625)scale(0.7)"/>
       <use xlink:href="#DejaVuSans-31" transform="translate(186.855469 38.965625)scale(0.7)"/>
      </g>
     </g>
    </g>
    <g id="ytick_4">
     <g id="line2d_9">
      <g>
       <use xlink:href="#m697df7d2e6" x="45" y="130.589683" style="stroke: #000000; stroke-width: 0.8"/>
      </g>
     </g>
     <g id="text_9">
      <!-- $\mathdefault{10^{0}}$ -->
      <g transform="translate(20.4 134.388902)scale(0.1 -0.1)">
       <use xlink:href="#DejaVuSans-31" transform="translate(0 0.765625)"/>
       <use xlink:href="#DejaVuSans-30" transform="translate(63.623047 0.765625)"/>
       <use xlink:href="#DejaVuSans-30" transform="translate(128.203125 39.046875)scale(0.7)"/>
      </g>
     </g>
    </g>
    <g id="ytick_5">
     <g id="line2d_10">
      <g>
       <use xlink:href="#m697df7d2e6" x="45" y="70.453933" style="stroke: #000000; stroke-width: 0.8"/>
      </g>
     </g>
     <g id="text_10">
      <!-- $\mathdefault{10^{1}}$ -->
      <g transform="translate(20.4 74.253152)scale(0.1 -0.1)">
       <use xlink:href="#DejaVuSans-31" transform="translate(0 0.684375)"/>
       <use xlink:href="#DejaVuSans-30" transform="translate(63.623047 0.684375)"/>
       <use xlink:href="#DejaVuSans-31" transform="translate(128.203125 38.965625)scale(0.7)"/>
      </g>
     </g>
    </g>
    <g id="ytick_6">
     <g id="line2d_11">
      <defs>
       <path id="m01c5a067b9" d="M 0 0 
L -2 0 
" style="stroke: #000000; stroke-width: 0.6"/>
      </defs>
      <g>
       <use xlink:href="#m01c5a067b9" x="45" y="320.31208" style="stroke: #000000; stroke-width: 0.6"/>
      </g>
     </g>
    </g>
    <g id="ytick_7">
     <g id="line2d_12">
      <g>
       <use xlink:href="#m01c5a067b9" x="45" y="316.82469" style="stroke: #000000; stroke-width: 0.6"/>
      </g>
     </g>
    </g>
    <g id="ytick_8">
     <g id="line2d_13">
      <g>
       <use xlink:href="#m01c5a067b9" x="45" y="313.748595" style="stroke: #000000; stroke-width: 0.6"/>
      </g>
     </g>
    </g>
    <g id="ytick_9">
     <g id="line2d_14">
      <g>
       <use xlink:href="#m01c5a067b9" x="45" y="292.894269" style="stroke: #000000; stroke-width: 0.6"/>
      </g>
     </g>
    </g>
    <g id="ytick_10">
     <g id="line2d_15">
      <g>
       <use xlink:href="#m01c5a067b9" x="45" y="282.304889" style="stroke: #000000; stroke-width: 0.6"/>
      </g>
     </g>
    </g>
    <g id="ytick_11">
     <g id="line2d_16">
      <g>
       <use xlink:href="#m01c5a067b9" x="45" y="274.791605" style="stroke: #000000; stroke-width: 0.6"/>
      </g>
     </g>
    </g>
    <g id="ytick_12">
     <g id="line2d_17">
      <g>
       <use xlink:href="#m01c5a067b9" x="45" y="268.963848" style="stroke: #000000; stroke-width: 0.6"/>
      </g>
     </g>
    </g>
    <g id="ytick_13">
     <g id="line2d_18">
      <g>
       <use xlink:href="#m01c5a067b9" x="45" y="264.202225" style="stroke: #000000; stroke-width: 0.6"/>
      </g>
     </g>
    </g>
    <g id="ytick_14">
     <g id="line2d_19">
      <g>
       <use xlink:href="#m01c5a067b9" x="45" y="260.176329" style="stroke: #000000; stroke-width: 0.6"/>
      </g>
     </g>
    </g>
    <g id="ytick_15">
     <g id="line2d_20">
      <g>
       <use xlink:href="#m01c5a067b9" x="45" y="256.68894" style="stroke: #000000; stroke-width: 0.6"/>
      </g>
     </g>
    </g>
    <g id="ytick_16">
     <g id="line2d_21">
      <g>
       <use xlink:href="#m01c5a067b9" x="45" y="253.612845" style="stroke: #000000; stroke-width: 0.6"/>
      </g>
     </g>
    </g>
    <g id="ytick_17">
     <g id="line2d_22">
      <g>
       <use xlink:href="#m01c5a067b9" x="45" y="232.758519" style="stroke: #000000; stroke-width: 0.6"/>
      </g>
     </g>
    </g>
    <g id="ytick_18">
     <g id="line2d_23">
      <g>
       <use xlink:href="#m01c5a067b9" x="45" y="222.169139" style="stroke: #000000; stroke-width: 0.6"/>
      </g>
     </g>
    </g>
    <g id="ytick_19">
     <g id="line2d_24">
      <g>
       <use xlink:href="#m01c5a067b9" x="45" y="214.655854" style="stroke: #000000; stroke-width: 0.6"/>
      </g>
     </g>
    </g>
    <g id="ytick_20">
     <g id="line2d_25">
      <g>
       <use xlink:href="#m01c5a067b9" x="45" y="208.828098" style="stroke: #000000; stroke-width: 0.6"/>
      </g>
     </g>
    </g>
    <g id="ytick_21">
     <g id="line2d_26">
      <g>
       <use xlink:href="#m01c5a067b9" x="45" y="204.066474" style="stroke: #000000; stroke-width: 0.6"/>
      </g>
     </g>
    </g>
    <g id="ytick_22">
     <g id="line2d_27">
      <g>
       <use xlink:href="#m01c5a067b9" x="45" y="200.040579" style="stroke: #000000; stroke-width: 0.6"/>
      </g>
     </g>
    </g>
    <g id="ytick_23">
     <g id="line2d_28">
      <g>
       <use xlink:href="#m01c5a067b9" x="45" y="196.55319" style="stroke: #000000; stroke-width: 0.6"/>
      </g>
     </g>
    </g>
    <g id="ytick_24">
     <g id="line2d_29">
      <g>
       <use xlink:href="#m01c5a067b9" x="45" y="193.477094" style="stroke: #000000; stroke-width: 0.6"/>
      </g>
     </g>
    </g>
    <g id="ytick_25">
     <g id="line2d_30">
      <g>
       <use xlink:href="#m01c5a067b9" x="45" y="172.622769" style="stroke: #000000; stroke-width: 0.6"/>
      </g>
     </g>
    </g>
    <g id="ytick_26">
     <g id="line2d_31">
      <g>
       <use xlink:href="#m01c5a067b9" x="45" y="162.033389" style="stroke: #000000; stroke-width: 0.6"/>
      </g>
     </g>
    </g>
    <g id="ytick_27">
     <g id="line2d_32">
      <g>
       <use xlink:href="#m01c5a067b9" x="45" y="154.520104" style="stroke: #000000; stroke-width: 0.6"/>
      </g>
     </g>
    </g>
    <g id="ytick_28">
     <g id="line2d_33">
      <g>
       <use xlink:href="#m01c5a067b9" x="45" y="148.692348" style="stroke: #000000; stroke-width: 0.6"/>
      </g>
     </g>
    </g>
    <g id="ytick_29">
     <g id="line2d_34">
      <g>
       <use xlink:href="#m01c5a067b9" x="45" y="143.930724" style="stroke: #000000; stroke-width: 0.6"/>
      </g>
     </g>
    </g>
    <g id="ytick_30">
     <g id="line2d_35">
      <g>
       <use xlink:href="#m01c5a067b9" x="45" y="139.904829" style="stroke: #000000; stroke-width: 0.6"/>
      </g>
     </g>
    </g>
    <g id="ytick_31">
     <g id="line2d_36">
      <g>
       <use xlink:href="#m01c5a067b9" x="45" y="136.417439" style="stroke: #000000; stroke-width: 0.6"/>
      </g>
     </g>
    </g>
    <g id="ytick_32">
     <g id="line2d_37">
      <g>
       <use xlink:href="#m01c5a067b9" x="45" y="133.341344" style="stroke: #000000; stroke-width: 0.6"/>
      </g>
     </g>
    </g>
    <g id="ytick_33">
     <g id="line2d_38">
      <g>
       <use xlink:href="#m01c5a067b9" x="45" y="112.487018" style="stroke: #000000; stroke-width: 0.6"/>
      </g>
     </g>
    </g>
    <g id="ytick_34">
     <g id="line2d_39">
      <g>
       <use xlink:href="#m01c5a067b9" x="45" y="101.897638" style="stroke: #000000; stroke-width: 0.6"/>
      </g>
     </g>
    </g>
    <g id="ytick_35">
     <g id="line2d_40">
      <g>
       <use xlink:href="#m01c5a067b9" x="45" y="94.384354" style="stroke: #000000; stroke-width: 0.6"/>
      </g>
     </g>
    </g>
    <g id="ytick_36">
     <g id="line2d_41">
      <g>
       <use xlink:href="#m01c5a067b9" x="45" y="88.556597" style="stroke: #000000; stroke-width: 0.6"/>
      </g>
     </g>
    </g>
    <g id="ytick_37">
     <g id="line2d_42">
      <g>
       <use xlink:href="#m01c5a067b9" x="45" y="83.794974" style="stroke: #000000; stroke-width: 0.6"/>
      </g>
     </g>
    </g>
    <g id="ytick_38">
     <g id="line2d_43">
      <g>
       <use xlink:href="#m01c5a067b9" x="45" y="79.769078" style="stroke: #000000; stroke-width: 0.6"/>
      </g>
     </g>
    </g>
    <g id="ytick_39">
     <g id="line2d_44">
      <g>
       <use xlink:href="#m01c5a067b9" x="45" y="76.281689" style="stroke: #000000; stroke-width: 0.6"/>
      </g>
     </g>
    </g>
    <g id="ytick_40">
     <g id="line2d_45">
      <g>
       <use xlink:href="#m01c5a067b9" x="45" y="73.205594" style="stroke: #000000; stroke-width: 0.6"/>
      </g>
     </g>
    </g>
    <g id="ytick_41">
     <g id="line2d_46">
      <g>
       <use xlink:href="#m01c5a067b9" x="45" y="52.351268" style="stroke: #000000; stroke-width: 0.6"/>
      </g>
     </g>
    </g>
   </g>
   <g id="line2d_47">
    <path d="M 83.045455 130.30432 
L 84.062545 137.841522 
L 84.571087 141.801052 
L 85.588177 151.680396 
L 86.605262 164.169474 
L 87.11381 172.230805 
L 88.1309 198.646817 
L 88.639442 239.031107 
L 89.147985 222.196511 
L 89.656533 198.074478 
L 90.165075 188.107845 
L 90.673617 181.00769 
L 91.690701 173.748987 
L 92.199249 171.126994 
L 92.707792 169.986832 
L 93.216334 168.50962 
L 94.233424 167.592391 
L 94.741966 168.174043 
L 95.250514 167.648074 
L 96.267605 169.147825 
L 96.776147 169.88322 
L 97.284689 171.417999 
L 97.793237 172.022317 
L 98.301779 174.766631 
L 98.810322 175.156389 
L 99.318864 178.192992 
L 100.335954 181.347732 
L 100.844496 184.53358 
L 101.353038 186.480089 
L 101.861587 189.850124 
L 102.878671 193.84958 
L 103.387219 197.677369 
L 103.895761 199.717418 
L 104.912852 208.611686 
L 105.421394 211.095534 
L 105.929942 211.262183 
L 106.438484 217.494756 
L 106.947026 218.882457 
L 107.455574 222.828395 
L 107.964117 220.158302 
L 108.472665 220.066488 
L 108.981207 223.677799 
L 109.489749 222.521428 
L 109.998297 230.810021 
L 110.506839 227.395195 
L 111.015382 227.264797 
L 111.523924 225.627387 
L 112.032466 222.737066 
L 112.541014 224.910933 
L 113.049556 217.170723 
L 113.558098 218.550179 
L 114.066646 214.472247 
L 114.575189 216.358591 
L 115.083731 212.832512 
L 115.592273 213.532827 
L 116.100815 210.79274 
L 116.609363 212.692855 
L 117.117905 207.792413 
L 118.134996 206.307183 
L 118.643538 209.478245 
L 119.15208 207.536454 
L 119.660628 208.800292 
L 120.16917 204.342362 
L 120.677719 203.944141 
L 121.694803 204.99399 
L 122.203351 207.981877 
L 122.711893 208.473208 
L 123.220435 210.557446 
L 123.728984 207.962401 
L 124.237526 208.648838 
L 124.746074 213.505553 
L 125.254616 212.351663 
L 125.763158 217.733247 
L 126.271706 217.110596 
L 126.780249 223.294873 
L 127.288791 220.815556 
L 127.797333 225.791153 
L 128.305875 235.903847 
L 128.814423 242.707183 
L 129.322965 247.699836 
L 129.831507 290.790776 
L 130.340056 280.237614 
L 130.848598 303.630726 
L 131.35714 258.484856 
L 131.865688 232.809965 
L 132.37423 234.135571 
L 132.882779 227.810321 
L 133.391321 225.535379 
L 134.408408 212.870749 
L 134.916953 211.020772 
L 135.425495 209.929798 
L 135.934037 205.652609 
L 136.442583 205.158728 
L 136.951125 203.579064 
L 137.45967 201.257125 
L 137.968215 200.361517 
L 138.476757 198.579514 
L 138.985302 194.780924 
L 139.493845 195.072097 
L 140.002393 194.049165 
L 140.510938 195.187135 
L 142.03657 192.082264 
L 142.545113 193.265291 
L 143.053658 192.462806 
L 143.5622 192.644747 
L 144.070742 191.870673 
L 144.579287 192.558641 
L 145.087829 192.419265 
L 145.596375 193.691364 
L 146.613462 194.745763 
L 147.122007 195.165848 
L 147.630549 196.819372 
L 148.139097 195.268805 
L 148.647643 198.164295 
L 149.156185 197.703766 
L 149.66473 200.209671 
L 150.173275 204.411296 
L 150.681817 203.1667 
L 151.190362 207.69067 
L 151.698904 210.76279 
L 152.715998 220.213958 
L 153.22454 219.68004 
L 153.733085 227.309311 
L 154.24163 230.5453 
L 154.750172 251.485872 
L 155.258718 246.963828 
L 155.76726 296.718396 
L 156.275802 269.866601 
L 156.784347 254.325214 
L 157.292889 244.103573 
L 158.30998 230.242207 
L 158.818522 217.55294 
L 159.327067 217.681109 
L 159.835611 212.257412 
L 160.344157 210.553907 
L 160.852701 206.684204 
L 161.361246 208.846299 
L 161.86979 203.269632 
L 162.378333 204.568685 
L 162.886877 202.888352 
L 163.395422 201.759337 
L 163.903966 199.252339 
L 164.412507 201.263481 
L 164.92105 199.390161 
L 165.429595 198.816918 
L 165.938139 196.829348 
L 166.446683 198.938112 
L 166.955226 197.945241 
L 167.463772 197.555657 
L 167.972315 200.180541 
L 168.989406 198.575772 
L 169.497951 199.323325 
L 170.006494 201.003373 
L 170.515038 203.243323 
L 171.023582 202.723368 
L 171.532127 203.369011 
L 172.040671 205.365485 
L 172.549211 206.12207 
L 173.057756 210.979224 
L 173.566299 214.756658 
L 174.074844 212.101736 
L 174.583387 219.09472 
L 175.091932 224.276135 
L 176.10902 229.859422 
L 177.126111 257.086495 
L 177.634655 278.108034 
L 178.143199 307.8 
L 179.160287 249.44023 
L 180.177375 234.566193 
L 180.685922 223.686467 
L 181.194466 218.694274 
L 181.70301 218.728784 
L 182.211554 215.849116 
L 182.720098 212.243867 
L 183.228642 210.004882 
L 183.737186 207.102584 
L 184.24573 205.161531 
L 184.754271 206.193327 
L 185.262815 203.423106 
L 185.771359 199.738961 
L 186.788447 199.25402 
L 187.296991 199.347326 
L 187.805536 198.560694 
L 188.31408 198.367098 
L 189.33117 195.307202 
L 189.839714 194.500434 
L 190.348259 194.509591 
L 190.856803 196.439549 
L 191.873891 195.196791 
L 192.382435 193.58912 
L 192.890976 194.984836 
L 193.39952 195.87197 
L 193.908064 195.156421 
L 194.416608 196.854351 
L 194.925152 197.837067 
L 195.433696 196.158387 
L 195.942241 198.86097 
L 196.450784 199.224519 
L 196.959331 201.674476 
L 197.467875 199.530973 
L 197.97642 200.440504 
L 198.484963 202.418314 
L 198.993507 206.162122 
L 199.502051 208.543402 
L 200.010596 209.9453 
L 200.51914 207.775835 
L 201.027686 210.456563 
L 201.53623 211.615972 
L 202.553319 218.84641 
L 203.061862 223.320965 
L 203.570406 231.655227 
L 204.078951 238.153091 
L 204.587495 246.648568 
L 205.096036 241.423901 
L 205.604579 265.326301 
L 206.113124 281.256297 
L 206.621668 284.324929 
L 207.130212 270.128704 
L 207.638755 247.690184 
L 208.147301 240.52117 
L 208.655844 242.721814 
L 209.164391 232.215563 
L 209.672935 233.622368 
L 210.181478 224.52226 
L 210.690023 219.90536 
L 211.198569 219.663045 
L 211.707111 216.342827 
L 212.215656 215.067341 
L 212.724198 211.461661 
L 213.23274 214.612515 
L 213.741285 209.581314 
L 214.249828 211.797391 
L 214.758373 210.602859 
L 215.266918 210.413673 
L 215.77546 205.915782 
L 216.284005 208.988754 
L 216.792547 205.559603 
L 217.301096 207.186039 
L 217.809641 208.318834 
L 218.318183 205.522192 
L 218.826728 205.764581 
L 219.335273 205.287969 
L 219.843815 204.072395 
L 220.35236 207.356597 
L 220.860903 204.271391 
L 221.369445 208.558275 
L 221.87799 209.501964 
L 222.386532 210.794042 
L 222.895077 208.458163 
L 223.403622 207.86806 
L 223.912165 211.7695 
L 224.42071 214.087951 
L 224.929252 210.849757 
L 225.4378 214.713477 
L 225.946345 215.26427 
L 226.454887 219.164386 
L 226.963433 219.949876 
L 227.98052 226.61935 
L 228.489065 226.916669 
L 228.997607 244.86154 
L 229.506149 254.201794 
L 230.014695 250.928918 
L 231.031782 279.477895 
L 231.540327 296.336268 
L 232.048869 292.538077 
L 232.557414 244.132383 
L 233.065957 244.896204 
L 233.574505 238.005246 
L 234.08305 228.582519 
L 234.591592 225.423937 
L 235.608679 216.784104 
L 237.134312 210.502258 
L 237.64286 209.200936 
L 238.151402 203.404431 
L 238.65995 204.401224 
L 239.168493 201.443656 
L 239.677035 201.212392 
L 240.185583 199.096012 
L 240.694125 196.492699 
L 241.202667 196.225944 
L 241.711209 197.427049 
L 242.219751 194.518985 
L 242.7283 192.954091 
L 243.236842 193.264001 
L 244.253932 191.174962 
L 244.762474 192.296403 
L 245.271016 191.456599 
L 245.779559 192.426854 
L 246.288101 191.579141 
L 246.796649 190.252222 
L 247.305191 190.556033 
L 247.813733 192.196702 
L 248.322281 192.649331 
L 248.830824 192.811651 
L 249.339366 193.700085 
L 249.84792 193.967558 
L 250.356462 193.905355 
L 250.86501 193.390394 
L 251.373552 195.134359 
L 251.882095 197.866945 
L 252.390643 199.431393 
L 252.899185 198.779423 
L 253.407727 203.171703 
L 253.916269 204.264426 
L 254.424811 205.669244 
L 254.93336 211.524259 
L 255.441902 214.817463 
L 255.950444 220.266297 
L 256.458992 228.614272 
L 256.967534 242.97034 
L 257.476076 286.327282 
L 258.493161 240.120709 
L 259.001709 235.565404 
L 259.510251 217.402836 
L 260.018793 209.813537 
L 260.527341 206.265018 
L 261.035883 201.217733 
L 263.070064 185.147095 
L 263.578606 183.55921 
L 264.087148 181.51848 
L 265.104239 176.119695 
L 265.612781 175.299248 
L 266.121329 172.579554 
L 267.138419 169.124901 
L 267.646962 168.267398 
L 269.172594 164.821312 
L 269.681136 163.423309 
L 270.189678 162.513274 
L 271.206769 161.966467 
L 271.715311 161.307663 
L 272.223853 160.434447 
L 272.732401 160.354494 
L 273.240943 159.97436 
L 273.749486 160.083581 
L 274.766576 160.99519 
L 275.275124 161.63906 
L 275.783666 161.6219 
L 276.292208 163.301552 
L 276.800757 163.936467 
L 278.326383 170.578929 
L 279.343473 177.709599 
L 279.852015 184.134632 
L 280.360558 194.544255 
L 280.869106 209.466068 
L 281.377648 284.06065 
L 281.88619 210.69138 
L 282.394738 188.909542 
L 282.90328 177.45929 
L 283.411829 168.92969 
L 284.428913 156.505928 
L 285.446003 146.457683 
L 285.954545 142.494038 
L 285.954545 142.494038 
" clip-path="url(#pebafe9e442)" style="fill: none; stroke: #1f77b4; stroke-width: 1.5; stroke-linecap: square"/>
   </g>
   <g id="line2d_48">
    <path d="M 57.681818 55.8 
L 60.852273 60.783164 
L 64.022727 66.457187 
L 67.193182 72.791307 
L 70.363636 80.101044 
L 73.534091 88.789022 
L 76.704545 99.13818 
L 79.875 111.83222 
L 83.045455 129.04551 
L 86.215909 152.994346 
L 89.386364 278.18173 
L 92.556818 175.119722 
L 95.727273 182.218072 
L 98.897727 186.038808 
L 102.068182 215.741741 
L 105.238636 206.749986 
L 108.409091 218.62274 
L 111.579545 295.622236 
L 114.75 199.934238 
L 117.920455 194.753869 
L 121.090909 202.861176 
L 124.261364 198.676204 
L 127.431818 197.963723 
L 130.602273 236.156511 
L 133.772727 204.827121 
L 136.943182 206.65837 
L 140.113636 204.979993 
L 143.284091 223.354707 
L 146.454545 208.326529 
L 149.625 202.88018 
L 152.795455 211.647202 
L 155.965909 236.198564 
L 159.136364 203.844149 
L 162.306818 219.427032 
L 165.477273 188.671482 
L 168.647727 222.85524 
L 171.818182 204.391129 
L 174.988636 255.926442 
L 178.159091 237.032565 
L 181.329545 200.608934 
L 184.5 197.297197 
L 187.670455 179.999296 
L 190.840909 185.183518 
L 194.011364 177.981269 
L 197.181818 178.390622 
L 200.352273 200.722344 
L 203.522727 221.000512 
L 206.693182 195.966421 
L 209.863636 205.543817 
L 213.034091 214.660783 
L 216.204545 235.438006 
L 219.375 200.924241 
L 222.545455 206.354979 
L 225.715909 256.897769 
L 228.886364 221.634976 
L 232.056818 207.913174 
L 235.227273 206.898632 
L 238.397727 182.061448 
L 241.568182 185.448729 
L 244.738636 190.586587 
L 247.909091 183.632857 
L 251.079545 182.71382 
L 254.25 187.188241 
L 257.420455 237.353848 
L 260.590909 252.93939 
L 263.761364 188.577008 
L 266.931818 172.618921 
L 270.102273 167.138342 
L 273.272727 173.45375 
L 276.443182 179.826396 
L 279.613636 264.739286 
L 282.784091 162.285127 
L 285.954545 136.171131 
L 289.125 119.947726 
L 292.295455 106.682639 
L 295.465909 95.22933 
L 298.636364 86.186511 
L 301.806818 78.077359 
L 304.977273 70.855588 
L 308.147727 64.41233 
L 311.318182 58.639783 
" clip-path="url(#pebafe9e442)" style="fill: none; stroke: #ff7f0e; stroke-width: 1.5; stroke-linecap: square"/>
   </g>
   <g id="patch_3">
    <path d="M 45 320.4 
L 45 43.2 
" style="fill: none; stroke: #000000; stroke-width: 0.8; stroke-linejoin: miter; stroke-linecap: square"/>
   </g>
   <g id="patch_4">
    <path d="M 324 320.4 
L 324 43.2 
" style="fill: none; stroke: #000000; stroke-width: 0.8; stroke-linejoin: miter; stroke-linecap: square"/>
   </g>
   <g id="patch_5">
    <path d="M 45 320.4 
L 324 320.4 
" style="fill: none; stroke: #000000; stroke-width: 0.8; stroke-linejoin: miter; stroke-linecap: square"/>
   </g>
   <g id="patch_6">
    <path d="M 45 43.2 
L 324 43.2 
" style="fill: none; stroke: #000000; stroke-width: 0.8; stroke-linejoin: miter; stroke-linecap: square"/>
   </g>
   <g id="text_11">
    <!-- Prediction Error -->
    <g transform="translate(138.166875 37.2)scale(0.12 -0.12)">
     <defs>
      <path id="DejaVuSans-50" d="M 1259 4147 
L 1259 2394 
L 2053 2394 
Q 2494 2394 2734 2622 
Q 2975 2850 2975 3272 
Q 2975 3691 2734 3919 
Q 2494 4147 2053 4147 
L 1259 4147 
z
M 628 4666 
L 2053 4666 
Q 2838 4666 3239 4311 
Q 3641 3956 3641 3272 
Q 3641 2581 3239 2228 
Q 2838 1875 2053 1875 
L 1259 1875 
L 1259 0 
L 628 0 
L 628 4666 
z
" transform="scale(0.015625)"/>
      <path id="DejaVuSans-72" d="M 2631 2963 
Q 2534 3019 2420 3045 
Q 2306 3072 2169 3072 
Q 1681 3072 1420 2755 
Q 1159 2438 1159 1844 
L 1159 0 
L 581 0 
L 581 3500 
L 1159 3500 
L 1159 2956 
Q 1341 3275 1631 3429 
Q 1922 3584 2338 3584 
Q 2397 3584 2469 3576 
Q 2541 3569 2628 3553 
L 2631 2963 
z
" transform="scale(0.015625)"/>
      <path id="DejaVuSans-65" d="M 3597 1894 
L 3597 1613 
L 953 1613 
Q 991 1019 1311 708 
Q 1631 397 2203 397 
Q 2534 397 2845 478 
Q 3156 559 3463 722 
L 3463 178 
Q 3153 47 2828 -22 
Q 2503 -91 2169 -91 
Q 1331 -91 842 396 
Q 353 884 353 1716 
Q 353 2575 817 3079 
Q 1281 3584 2069 3584 
Q 2775 3584 3186 3129 
Q 3597 2675 3597 1894 
z
M 3022 2063 
Q 3016 2534 2758 2815 
Q 2500 3097 2075 3097 
Q 1594 3097 1305 2825 
Q 1016 2553 972 2059 
L 3022 2063 
z
" transform="scale(0.015625)"/>
      <path id="DejaVuSans-64" d="M 2906 2969 
L 2906 4863 
L 3481 4863 
L 3481 0 
L 2906 0 
L 2906 525 
Q 2725 213 2448 61 
Q 2172 -91 1784 -91 
Q 1150 -91 751 415 
Q 353 922 353 1747 
Q 353 2572 751 3078 
Q 1150 3584 1784 3584 
Q 2172 3584 2448 3432 
Q 2725 3281 2906 2969 
z
M 947 1747 
Q 947 1113 1208 752 
Q 1469 391 1925 391 
Q 2381 391 2643 752 
Q 2906 1113 2906 1747 
Q 2906 2381 2643 2742 
Q 2381 3103 1925 3103 
Q 1469 3103 1208 2742 
Q 947 2381 947 1747 
z
" transform="scale(0.015625)"/>
      <path id="DejaVuSans-69" d="M 603 3500 
L 1178 3500 
L 1178 0 
L 603 0 
L 603 3500 
z
M 603 4863 
L 1178 4863 
L 1178 4134 
L 603 4134 
L 603 4863 
z
" transform="scale(0.015625)"/>
      <path id="DejaVuSans-63" d="M 3122 3366 
L 3122 2828 
Q 2878 2963 2633 3030 
Q 2388 3097 2138 3097 
Q 1578 3097 1268 2742 
Q 959 2388 959 1747 
Q 959 1106 1268 751 
Q 1578 397 2138 397 
Q 2388 397 2633 464 
Q 2878 531 3122 666 
L 3122 134 
Q 2881 22 2623 -34 
Q 2366 -91 2075 -91 
Q 1284 -91 818 406 
Q 353 903 353 1747 
Q 353 2603 823 3093 
Q 1294 3584 2113 3584 
Q 2378 3584 2631 3529 
Q 2884 3475 3122 3366 
z
" transform="scale(0.015625)"/>
      <path id="DejaVuSans-74" d="M 1172 4494 
L 1172 3500 
L 2356 3500 
L 2356 3053 
L 1172 3053 
L 1172 1153 
Q 1172 725 1289 603 
Q 1406 481 1766 481 
L 2356 481 
L 2356 0 
L 1766 0 
Q 1100 0 847 248 
Q 594 497 594 1153 
L 594 3053 
L 172 3053 
L 172 3500 
L 594 3500 
L 594 4494 
L 1172 4494 
z
" transform="scale(0.015625)"/>
      <path id="DejaVuSans-6f" d="M 1959 3097 
Q 1497 3097 1228 2736 
Q 959 2375 959 1747 
Q 959 1119 1226 758 
Q 1494 397 1959 397 
Q 2419 397 2687 759 
Q 2956 1122 2956 1747 
Q 2956 2369 2687 2733 
Q 2419 3097 1959 3097 
z
M 1959 3584 
Q 2709 3584 3137 3096 
Q 3566 2609 3566 1747 
Q 3566 888 3137 398 
Q 2709 -91 1959 -91 
Q 1206 -91 779 398 
Q 353 888 353 1747 
Q 353 2609 779 3096 
Q 1206 3584 1959 3584 
z
" transform="scale(0.015625)"/>
      <path id="DejaVuSans-6e" d="M 3513 2113 
L 3513 0 
L 2938 0 
L 2938 2094 
Q 2938 2591 2744 2837 
Q 2550 3084 2163 3084 
Q 1697 3084 1428 2787 
Q 1159 2491 1159 1978 
L 1159 0 
L 581 0 
L 581 3500 
L 1159 3500 
L 1159 2956 
Q 1366 3272 1645 3428 
Q 1925 3584 2291 3584 
Q 2894 3584 3203 3211 
Q 3513 2838 3513 2113 
z
" transform="scale(0.015625)"/>
      <path id="DejaVuSans-20" transform="scale(0.015625)"/>
      <path id="DejaVuSans-45" d="M 628 4666 
L 3578 4666 
L 3578 4134 
L 1259 4134 
L 1259 2753 
L 3481 2753 
L 3481 2222 
L 1259 2222 
L 1259 531 
L 3634 531 
L 3634 0 
L 628 0 
L 628 4666 
z
" transform="scale(0.015625)"/>
     </defs>
     <use xlink:href="#DejaVuSans-50"/>
     <use xlink:href="#DejaVuSans-72" x="58.552734"/>
     <use xlink:href="#DejaVuSans-65" x="97.416016"/>
     <use xlink:href="#DejaVuSans-64" x="158.939453"/>
     <use xlink:href="#DejaVuSans-69" x="222.416016"/>
     <use xlink:href="#DejaVuSans-63" x="250.199219"/>
     <use xlink:href="#DejaVuSans-74" x="305.179688"/>
     <use xlink:href="#DejaVuSans-69" x="344.388672"/>
     <use xlink:href="#DejaVuSans-6f" x="372.171875"/>
     <use xlink:href="#DejaVuSans-6e" x="433.353516"/>
     <use xlink:href="#DejaVuSans-20" x="496.732422"/>
     <use xlink:href="#DejaVuSans-45" x="528.519531"/>
     <use xlink:href="#DejaVuSans-72" x="591.703125"/>
     <use xlink:href="#DejaVuSans-72" x="631.066406"/>
     <use xlink:href="#DejaVuSans-6f" x="669.929688"/>
     <use xlink:href="#DejaVuSans-72" x="731.111328"/>
    </g>
   </g>
   <g id="legend_1">
    <g id="patch_7">
     <path d="M 143.171094 80.55625 
L 225.828906 80.55625 
Q 227.828906 80.55625 227.828906 78.55625 
L 227.828906 50.2 
Q 227.828906 48.2 225.828906 48.2 
L 143.171094 48.2 
Q 141.171094 48.2 141.171094 50.2 
L 141.171094 78.55625 
Q 141.171094 80.55625 143.171094 80.55625 
z
" style="fill: #ffffff; opacity: 0.8; stroke: #cccccc; stroke-linejoin: miter"/>
    </g>
    <g id="line2d_49">
     <path d="M 145.171094 56.298437 
L 155.171094 56.298437 
L 165.171094 56.298437 
" style="fill: none; stroke: #1f77b4; stroke-width: 1.5; stroke-linecap: square"/>
    </g>
    <g id="text_12">
     <!-- train error -->
     <g transform="translate(173.171094 59.798437)scale(0.1 -0.1)">
      <defs>
       <path id="DejaVuSans-61" d="M 2194 1759 
Q 1497 1759 1228 1600 
Q 959 1441 959 1056 
Q 959 750 1161 570 
Q 1363 391 1709 391 
Q 2188 391 2477 730 
Q 2766 1069 2766 1631 
L 2766 1759 
L 2194 1759 
z
M 3341 1997 
L 3341 0 
L 2766 0 
L 2766 531 
Q 2569 213 2275 61 
Q 1981 -91 1556 -91 
Q 1019 -91 701 211 
Q 384 513 384 1019 
Q 384 1609 779 1909 
Q 1175 2209 1959 2209 
L 2766 2209 
L 2766 2266 
Q 2766 2663 2505 2880 
Q 2244 3097 1772 3097 
Q 1472 3097 1187 3025 
Q 903 2953 641 2809 
L 641 3341 
Q 956 3463 1253 3523 
Q 1550 3584 1831 3584 
Q 2591 3584 2966 3190 
Q 3341 2797 3341 1997 
z
" transform="scale(0.015625)"/>
      </defs>
      <use xlink:href="#DejaVuSans-74"/>
      <use xlink:href="#DejaVuSans-72" x="39.208984"/>
      <use xlink:href="#DejaVuSans-61" x="80.322266"/>
      <use xlink:href="#DejaVuSans-69" x="141.601562"/>
      <use xlink:href="#DejaVuSans-6e" x="169.384766"/>
      <use xlink:href="#DejaVuSans-20" x="232.763672"/>
      <use xlink:href="#DejaVuSans-65" x="264.550781"/>
      <use xlink:href="#DejaVuSans-72" x="326.074219"/>
      <use xlink:href="#DejaVuSans-72" x="365.4375"/>
      <use xlink:href="#DejaVuSans-6f" x="404.300781"/>
      <use xlink:href="#DejaVuSans-72" x="465.482422"/>
     </g>
    </g>
    <g id="line2d_50">
     <path d="M 145.171094 70.976562 
L 155.171094 70.976562 
L 165.171094 70.976562 
" style="fill: none; stroke: #ff7f0e; stroke-width: 1.5; stroke-linecap: square"/>
    </g>
    <g id="text_13">
     <!-- test error -->
     <g transform="translate(173.171094 74.476562)scale(0.1 -0.1)">
      <defs>
       <path id="DejaVuSans-73" d="M 2834 3397 
L 2834 2853 
Q 2591 2978 2328 3040 
Q 2066 3103 1784 3103 
Q 1356 3103 1142 2972 
Q 928 2841 928 2578 
Q 928 2378 1081 2264 
Q 1234 2150 1697 2047 
L 1894 2003 
Q 2506 1872 2764 1633 
Q 3022 1394 3022 966 
Q 3022 478 2636 193 
Q 2250 -91 1575 -91 
Q 1294 -91 989 -36 
Q 684 19 347 128 
L 347 722 
Q 666 556 975 473 
Q 1284 391 1588 391 
Q 1994 391 2212 530 
Q 2431 669 2431 922 
Q 2431 1156 2273 1281 
Q 2116 1406 1581 1522 
L 1381 1569 
Q 847 1681 609 1914 
Q 372 2147 372 2553 
Q 372 3047 722 3315 
Q 1072 3584 1716 3584 
Q 2034 3584 2315 3537 
Q 2597 3491 2834 3397 
z
" transform="scale(0.015625)"/>
      </defs>
      <use xlink:href="#DejaVuSans-74"/>
      <use xlink:href="#DejaVuSans-65" x="39.208984"/>
      <use xlink:href="#DejaVuSans-73" x="100.732422"/>
      <use xlink:href="#DejaVuSans-74" x="152.832031"/>
      <use xlink:href="#DejaVuSans-20" x="192.041016"/>
      <use xlink:href="#DejaVuSans-65" x="223.828125"/>
      <use xlink:href="#DejaVuSans-72" x="285.351562"/>
      <use xlink:href="#DejaVuSans-72" x="324.714844"/>
      <use xlink:href="#DejaVuSans-6f" x="363.578125"/>
      <use xlink:href="#DejaVuSans-72" x="424.759766"/>
     </g>
    </g>
   </g>
  </g>
 </g>
 <defs>
  <clipPath id="pebafe9e442">
   <rect x="45" y="43.2" width="279" height="277.2"/>
  </clipPath>
 </defs>
</svg>
