<?xml version="1.0" encoding="utf-8" standalone="no"?>
<!DOCTYPE svg PUBLIC "-//W3C//DTD SVG 1.1//EN"
  "http://www.w3.org/Graphics/SVG/1.1/DTD/svg11.dtd">
<svg xmlns:xlink="http://www.w3.org/1999/xlink" width="360pt" height="360pt" viewBox="0 0 360 360" xmlns="http://www.w3.org/2000/svg" version="1.1">
 <metadata>
  <rdf:RDF xmlns:dc="http://purl.org/dc/elements/1.1/" xmlns:cc="http://creativecommons.org/ns#" xmlns:rdf="http://www.w3.org/1999/02/22-rdf-syntax-ns#">
   <cc:Work>
    <dc:type rdf:resource="http://purl.org/dc/dcmitype/StillImage"/>
    <dc:date>2022-11-10T20:07:23.452986</dc:date>
    <dc:format>image/svg+xml</dc:format>
    <dc:creator>
     <cc:Agent>
      <dc:title>Matplotlib v3.5.3, https://matplotlib.org/</dc:title>
     </cc:Agent>
    </dc:creator>
   </cc:Work>
  </rdf:RDF>
 </metadata>
 <defs>
  <style type="text/css">*{stroke-linejoin: round; stroke-linecap: butt}</style>
 </defs>
 <g id="figure_1">
  <g id="patch_1">
   <path d="M 0 360 
L 360 360 
L 360 0 
L 0 0 
z
" style="fill: #ffffff"/>
  </g>
  <g id="axes_1">
   <g id="patch_2">
    <path d="M 45 320.4 
L 324 320.4 
L 324 43.2 
L 45 43.2 
z
" style="fill: #ffffff"/>
   </g>
   <g id="matplotlib.axis_1">
    <g id="xtick_1">
     <g id="line2d_1">
      <defs>
       <path id="m600855d43a" d="M 0 0 
L 0 3.5 
" style="stroke: #000000; stroke-width: 0.8"/>
      </defs>
      <g>
       <use xlink:href="#m600855d43a" x="83.045455" y="320.4" style="stroke: #000000; stroke-width: 0.8"/>
      </g>
     </g>
     <g id="text_1">
      <!-- −2 -->
      <g transform="translate(75.674361 334.998438)scale(0.1 -0.1)">
       <defs>
        <path id="DejaVuSans-2212" d="M 678 2272 
L 4684 2272 
L 4684 1741 
L 678 1741 
L 678 2272 
z
" transform="scale(0.015625)"/>
        <path id="DejaVuSans-32" d="M 1228 531 
L 3431 531 
L 3431 0 
L 469 0 
L 469 531 
Q 828 903 1448 1529 
Q 2069 2156 2228 2338 
Q 2531 2678 2651 2914 
Q 2772 3150 2772 3378 
Q 2772 3750 2511 3984 
Q 2250 4219 1831 4219 
Q 1534 4219 1204 4116 
Q 875 4013 500 3803 
L 500 4441 
Q 881 4594 1212 4672 
Q 1544 4750 1819 4750 
Q 2544 4750 2975 4387 
Q 3406 4025 3406 3419 
Q 3406 3131 3298 2873 
Q 3191 2616 2906 2266 
Q 2828 2175 2409 1742 
Q 1991 1309 1228 531 
z
" transform="scale(0.015625)"/>
       </defs>
       <use xlink:href="#DejaVuSans-2212"/>
       <use xlink:href="#DejaVuSans-32" x="83.789062"/>
      </g>
     </g>
    </g>
    <g id="xtick_2">
     <g id="line2d_2">
      <g>
       <use xlink:href="#m600855d43a" x="133.772727" y="320.4" style="stroke: #000000; stroke-width: 0.8"/>
      </g>
     </g>
     <g id="text_2">
      <!-- −1 -->
      <g transform="translate(126.401634 334.998438)scale(0.1 -0.1)">
       <defs>
        <path id="DejaVuSans-31" d="M 794 531 
L 1825 531 
L 1825 4091 
L 703 3866 
L 703 4441 
L 1819 4666 
L 2450 4666 
L 2450 531 
L 3481 531 
L 3481 0 
L 794 0 
L 794 531 
z
" transform="scale(0.015625)"/>
       </defs>
       <use xlink:href="#DejaVuSans-2212"/>
       <use xlink:href="#DejaVuSans-31" x="83.789062"/>
      </g>
     </g>
    </g>
    <g id="xtick_3">
     <g id="line2d_3">
      <g>
       <use xlink:href="#m600855d43a" x="184.5" y="320.4" style="stroke: #000000; stroke-width: 0.8"/>
      </g>
     </g>
     <g id="text_3">
      <!-- 0 -->
      <g transform="translate(181.31875 334.998438)scale(0.1 -0.1)">
       <defs>
        <path id="DejaVuSans-30" d="M 2034 4250 
Q 1547 4250 1301 3770 
Q 1056 3291 1056 2328 
Q 1056 1369 1301 889 
Q 1547 409 2034 409 
Q 2525 409 2770 889 
Q 3016 1369 3016 2328 
Q 3016 3291 2770 3770 
Q 2525 4250 2034 4250 
z
M 2034 4750 
Q 2819 4750 3233 4129 
Q 3647 3509 3647 2328 
Q 3647 1150 3233 529 
Q 2819 -91 2034 -91 
Q 1250 -91 836 529 
Q 422 1150 422 2328 
Q 422 3509 836 4129 
Q 1250 4750 2034 4750 
z
" transform="scale(0.015625)"/>
       </defs>
       <use xlink:href="#DejaVuSans-30"/>
      </g>
     </g>
    </g>
    <g id="xtick_4">
     <g id="line2d_4">
      <g>
       <use xlink:href="#m600855d43a" x="235.227273" y="320.4" style="stroke: #000000; stroke-width: 0.8"/>
      </g>
     </g>
     <g id="text_4">
      <!-- 1 -->
      <g transform="translate(232.046023 334.998438)scale(0.1 -0.1)">
       <use xlink:href="#DejaVuSans-31"/>
      </g>
     </g>
    </g>
    <g id="xtick_5">
     <g id="line2d_5">
      <g>
       <use xlink:href="#m600855d43a" x="285.954545" y="320.4" style="stroke: #000000; stroke-width: 0.8"/>
      </g>
     </g>
     <g id="text_5">
      <!-- 2 -->
      <g transform="translate(282.773295 334.998438)scale(0.1 -0.1)">
       <use xlink:href="#DejaVuSans-32"/>
      </g>
     </g>
    </g>
   </g>
   <g id="matplotlib.axis_2">
    <g id="ytick_1">
     <g id="line2d_6">
      <defs>
       <path id="m5a2ca4820a" d="M 0 0 
L -3.5 0 
" style="stroke: #000000; stroke-width: 0.8"/>
      </defs>
      <g>
       <use xlink:href="#m5a2ca4820a" x="45" y="281.080321" style="stroke: #000000; stroke-width: 0.8"/>
      </g>
     </g>
     <g id="text_6">
      <!-- 0 -->
      <g transform="translate(31.6375 284.87954)scale(0.1 -0.1)">
       <use xlink:href="#DejaVuSans-30"/>
      </g>
     </g>
    </g>
    <g id="ytick_2">
     <g id="line2d_7">
      <g>
       <use xlink:href="#m5a2ca4820a" x="45" y="231.391513" style="stroke: #000000; stroke-width: 0.8"/>
      </g>
     </g>
     <g id="text_7">
      <!-- 10 -->
      <g transform="translate(25.275 235.190731)scale(0.1 -0.1)">
       <use xlink:href="#DejaVuSans-31"/>
       <use xlink:href="#DejaVuSans-30" x="63.623047"/>
      </g>
     </g>
    </g>
    <g id="ytick_3">
     <g id="line2d_8">
      <g>
       <use xlink:href="#m5a2ca4820a" x="45" y="181.702704" style="stroke: #000000; stroke-width: 0.8"/>
      </g>
     </g>
     <g id="text_8">
      <!-- 20 -->
      <g transform="translate(25.275 185.501923)scale(0.1 -0.1)">
       <use xlink:href="#DejaVuSans-32"/>
       <use xlink:href="#DejaVuSans-30" x="63.623047"/>
      </g>
     </g>
    </g>
    <g id="ytick_4">
     <g id="line2d_9">
      <g>
       <use xlink:href="#m5a2ca4820a" x="45" y="132.013895" style="stroke: #000000; stroke-width: 0.8"/>
      </g>
     </g>
     <g id="text_9">
      <!-- 30 -->
      <g transform="translate(25.275 135.813114)scale(0.1 -0.1)">
       <defs>
        <path id="DejaVuSans-33" d="M 2597 2516 
Q 3050 2419 3304 2112 
Q 3559 1806 3559 1356 
Q 3559 666 3084 287 
Q 2609 -91 1734 -91 
Q 1441 -91 1130 -33 
Q 819 25 488 141 
L 488 750 
Q 750 597 1062 519 
Q 1375 441 1716 441 
Q 2309 441 2620 675 
Q 2931 909 2931 1356 
Q 2931 1769 2642 2001 
Q 2353 2234 1838 2234 
L 1294 2234 
L 1294 2753 
L 1863 2753 
Q 2328 2753 2575 2939 
Q 2822 3125 2822 3475 
Q 2822 3834 2567 4026 
Q 2313 4219 1838 4219 
Q 1578 4219 1281 4162 
Q 984 4106 628 3988 
L 628 4550 
Q 988 4650 1302 4700 
Q 1616 4750 1894 4750 
Q 2613 4750 3031 4423 
Q 3450 4097 3450 3541 
Q 3450 3153 3228 2886 
Q 3006 2619 2597 2516 
z
" transform="scale(0.015625)"/>
       </defs>
       <use xlink:href="#DejaVuSans-33"/>
       <use xlink:href="#DejaVuSans-30" x="63.623047"/>
      </g>
     </g>
    </g>
    <g id="ytick_5">
     <g id="line2d_10">
      <g>
       <use xlink:href="#m5a2ca4820a" x="45" y="82.325086" style="stroke: #000000; stroke-width: 0.8"/>
      </g>
     </g>
     <g id="text_10">
      <!-- 40 -->
      <g transform="translate(25.275 86.124305)scale(0.1 -0.1)">
       <defs>
        <path id="DejaVuSans-34" d="M 2419 4116 
L 825 1625 
L 2419 1625 
L 2419 4116 
z
M 2253 4666 
L 3047 4666 
L 3047 1625 
L 3713 1625 
L 3713 1100 
L 3047 1100 
L 3047 0 
L 2419 0 
L 2419 1100 
L 313 1100 
L 313 1709 
L 2253 4666 
z
" transform="scale(0.015625)"/>
       </defs>
       <use xlink:href="#DejaVuSans-34"/>
       <use xlink:href="#DejaVuSans-30" x="63.623047"/>
      </g>
     </g>
    </g>
   </g>
   <g id="line2d_11">
    <path d="M 57.681818 180.219445 
L 60.852273 195.589883 
L 64.022727 210.000441 
L 67.193182 222.996452 
L 70.363636 234.849352 
L 73.534091 245.653271 
L 76.704545 255.226085 
L 79.875 263.66235 
L 83.045455 271.268849 
L 86.215909 277.771128 
L 89.386364 283.791151 
L 92.556818 288.906138 
L 95.727273 292.935685 
L 98.897727 296.774998 
L 102.068182 299.748802 
L 105.238636 302.534197 
L 108.409091 304.473432 
L 111.579545 305.753273 
L 114.75 307.04012 
L 117.920455 307.66531 
L 121.090909 307.780647 
L 124.261364 307.8 
L 127.431818 307.546077 
L 130.602273 306.607048 
L 133.772727 305.724935 
L 136.943182 304.860486 
L 140.113636 303.754065 
L 143.284091 302.611296 
L 146.454545 301.026928 
L 149.625 299.336105 
L 152.795455 297.673703 
L 155.965909 296.161443 
L 159.136364 294.532412 
L 162.306818 292.580342 
L 165.477273 291.195321 
L 168.647727 289.125032 
L 171.818182 287.678953 
L 174.988636 285.903391 
L 178.159091 284.311394 
L 181.329545 282.62231 
L 184.5 281.155401 
L 187.670455 279.36623 
L 190.840909 278.057655 
L 194.011364 276.396606 
L 197.181818 274.921492 
L 200.352273 273.87534 
L 203.522727 272.545399 
L 206.693182 270.7806 
L 209.863636 269.3951 
L 213.034091 268.369778 
L 216.204545 266.754553 
L 219.375 265.483296 
L 222.545455 263.873205 
L 225.715909 261.961026 
L 228.886364 260.167005 
L 232.056818 258.264865 
L 235.227273 256.303536 
L 238.397727 253.730847 
L 241.568182 251.424399 
L 244.738636 248.850271 
L 247.909091 245.6717 
L 251.079545 242.226676 
L 254.25 238.465473 
L 257.420455 234.592591 
L 260.590909 229.745622 
L 263.761364 224.902084 
L 266.931818 219.388045 
L 270.102273 213.147375 
L 273.272727 205.977541 
L 276.443182 198.535588 
L 279.613636 190.329828 
L 282.784091 181.430627 
L 285.954545 171.577252 
L 289.125 161.093678 
L 292.295455 149.540467 
L 295.465909 136.609879 
L 298.636364 123.11713 
L 301.806818 108.269967 
L 304.977273 92.088654 
L 308.147727 74.589055 
L 311.318182 55.8 
" clip-path="url(#pd03fbcc20f)" style="fill: none; stroke: #1f77b4; stroke-width: 1.5; stroke-linecap: square"/>
   </g>
   <g id="line2d_12">
    <path d="M 57.681818 267.76916 
L 60.852273 268.006628 
L 64.022727 268.356221 
L 67.193182 268.867241 
L 70.363636 269.606636 
L 73.534091 270.661062 
L 76.704545 272.134291 
L 79.875 274.13515 
L 83.045455 276.750732 
L 86.215909 280.00435 
L 89.386364 283.810545 
L 92.556818 287.955239 
L 95.727273 292.128923 
L 98.897727 296.010032 
L 102.068182 299.354838 
L 105.238636 302.044335 
L 108.409091 304.074936 
L 111.579545 305.516217 
L 114.75 306.466181 
L 117.920455 307.020333 
L 121.090909 307.256318 
L 124.261364 307.229544 
L 127.431818 306.974702 
L 130.602273 306.509786 
L 133.772727 305.841145 
L 136.943182 304.968753 
L 140.113636 303.891786 
L 143.284091 302.614042 
L 146.454545 301.148729 
L 149.625 299.521569 
L 152.795455 297.771035 
L 155.965909 295.945221 
L 159.136364 294.095649 
L 162.306818 292.269745 
L 165.477273 290.504165 
L 168.647727 288.820785 
L 171.818182 287.226094 
L 174.988636 285.713435 
L 178.159091 284.266996 
L 181.329545 282.866249 
L 184.5 281.489962 
L 187.670455 280.119292 
L 190.840909 278.739801 
L 194.011364 277.34238 
L 197.181818 275.923215 
L 200.352273 274.482935 
L 203.522727 273.02511 
L 206.693182 271.554369 
L 209.863636 270.074381 
L 213.034091 268.585998 
L 216.204545 267.08574 
L 219.375 265.564777 
L 222.545455 264.008417 
L 225.715909 262.395995 
L 228.886364 260.701058 
L 232.056818 258.891721 
L 235.227273 256.931057 
L 238.397727 254.777544 
L 241.568182 252.385524 
L 244.738636 249.705862 
L 247.909091 246.686889 
L 251.079545 243.275951 
L 254.25 239.421798 
L 257.420455 235.078075 
L 260.590909 230.208261 
L 263.761364 224.791791 
L 266.931818 218.831163 
L 270.102273 212.358922 
L 273.272727 205.442803 
L 276.443182 198.187142 
L 279.613636 190.728836 
L 282.784091 183.227208 
L 285.954545 175.849118 
L 289.125 168.752099 
L 292.295455 162.069413 
L 295.465909 155.899785 
L 298.636364 150.303681 
L 301.806818 145.305212 
L 304.977273 140.898132 
L 308.147727 137.053667 
L 311.318182 133.728573 
" clip-path="url(#pd03fbcc20f)" style="fill: none; stroke: #ff7f0e; stroke-width: 1.5; stroke-linecap: square"/>
   </g>
   <g id="line2d_13">
    <path d="M 57.681818 266.940227 
L 60.852273 267.187984 
L 64.022727 267.552499 
L 67.193182 268.084967 
L 70.363636 268.854867 
L 73.534091 269.951939 
L 76.704545 271.483367 
L 79.875 273.560988 
L 83.045455 276.273345 
L 86.215909 279.642118 
L 89.386364 283.576109 
L 92.556818 287.851927 
L 95.727273 292.1496 
L 98.897727 296.139096 
L 102.068182 299.572239 
L 105.238636 302.329552 
L 108.409091 304.409521 
L 111.579545 305.884852 
L 114.75 306.856663 
L 117.920455 307.423018 
L 121.090909 307.663464 
L 124.261364 307.634712 
L 127.431818 307.372309 
L 130.602273 306.894876 
L 133.772727 306.209282 
L 136.943182 305.316223 
L 140.113636 304.215896 
L 143.284091 302.913539 
L 146.454545 301.424203 
L 149.625 299.775588 
L 152.795455 298.007968 
L 155.965909 296.170538 
L 159.136364 294.31489 
L 162.306818 292.487324 
L 165.477273 290.722286 
L 168.647727 289.038684 
L 171.818182 287.4397 
L 174.988636 285.915472 
L 178.159091 284.447473 
L 181.329545 283.013351 
L 184.5 281.591291 
L 187.670455 280.163386 
L 190.840909 278.717745 
L 194.011364 277.249273 
L 197.181818 275.75917 
L 200.352273 274.25335 
L 203.522727 272.740137 
L 206.693182 271.227662 
L 209.863636 269.721425 
L 213.034091 268.222355 
L 216.204545 266.725561 
L 219.375 265.21978 
L 222.545455 263.687375 
L 225.715909 262.104719 
L 228.886364 260.442724 
L 232.056818 258.667412 
L 235.227273 256.740372 
L 238.397727 254.619181 
L 241.568182 252.25779 
L 244.738636 249.607022 
L 247.909091 246.615394 
L 251.079545 243.230526 
L 254.25 239.401346 
L 257.420455 235.081548 
L 260.590909 230.234324 
L 263.761364 224.838496 
L 266.931818 218.895638 
L 270.102273 212.437011 
L 273.272727 205.528825 
L 276.443182 198.273747 
L 279.613636 190.806939 
L 282.784091 183.286158 
L 285.954545 175.876963 
L 289.125 168.736225 
L 292.295455 161.997195 
L 295.465909 155.759595 
L 298.636364 150.085635 
L 301.806818 145.001888 
L 304.977273 140.504886 
L 308.147727 136.568794 
L 311.318182 133.152907 
" clip-path="url(#pd03fbcc20f)" style="fill: none; stroke: #2ca02c; stroke-width: 1.5; stroke-linecap: square"/>
   </g>
   <g id="line2d_14">
    <path d="M 57.681818 266.650094 
L 60.852273 266.910639 
L 64.022727 267.292246 
L 67.193182 267.847827 
L 70.363636 268.648852 
L 73.534091 269.786996 
L 76.704545 271.370454 
L 79.875 273.509633 
L 83.045455 276.287228 
L 86.215909 279.71342 
L 89.386364 283.681423 
L 92.556818 287.953737 
L 95.727273 292.205045 
L 98.897727 296.112362 
L 102.068182 299.443281 
L 105.238636 302.095307 
L 108.409091 304.079135 
L 111.579545 305.473223 
L 114.75 306.379422 
L 117.920455 306.893812 
L 121.090909 307.093072 
L 124.261364 307.031299 
L 127.431818 306.742153 
L 130.602273 306.24332 
L 133.772727 305.541749 
L 136.943182 304.639085 
L 140.113636 303.537177 
L 143.284091 302.243239 
L 146.454545 300.774103 
L 149.625 299.158394 
L 152.795455 297.435951 
L 155.965909 295.653932 
L 159.136364 293.860534 
L 162.306818 292.097938 
L 165.477273 290.39656 
L 168.647727 288.772051 
L 171.818182 287.225445 
L 174.988636 285.745836 
L 178.159091 284.314502 
L 181.329545 282.909399 
L 184.5 281.509212 
L 187.670455 280.09654 
L 190.840909 278.659945 
L 194.011364 277.194754 
L 197.181818 275.702613 
L 200.352273 274.189938 
L 203.522727 272.665558 
L 206.693182 271.138013 
L 209.863636 269.612992 
L 213.034091 268.091298 
L 216.204545 266.567584 
L 219.375 265.029837 
L 222.545455 263.459495 
L 225.715909 261.831912 
L 228.886364 260.117021 
L 232.056818 258.279976 
L 235.227273 256.281702 
L 238.397727 254.079366 
L 241.568182 251.626855 
L 244.738636 248.875375 
L 247.909091 245.774354 
L 251.079545 242.272952 
L 254.25 238.322407 
L 257.420455 233.879512 
L 260.590909 228.911422 
L 263.761364 223.401757 
L 266.931818 217.357529 
L 270.102273 210.815786 
L 273.272727 203.848522 
L 276.443182 196.563533 
L 279.613636 189.099796 
L 282.784091 181.616971 
L 285.954545 174.280194 
L 289.125 167.243385 
L 292.295455 160.63484 
L 295.465909 154.547798 
L 298.636364 149.037417 
L 301.806818 144.123325 
L 304.977273 139.795968 
L 308.147727 136.024461 
L 311.318182 132.764447 
" clip-path="url(#pd03fbcc20f)" style="fill: none; stroke: #d62728; stroke-width: 1.5; stroke-linecap: square"/>
   </g>
   <g id="line2d_15">
    <path d="M 57.681818 267.913186 
L 60.852273 268.157383 
L 64.022727 268.51718 
L 67.193182 269.04344 
L 70.363636 269.80515 
L 73.534091 270.891318 
L 76.704545 272.407901 
L 79.875 274.464644 
L 83.045455 277.146609 
L 86.215909 280.470533 
L 89.386364 284.339734 
L 92.556818 288.527311 
L 95.727273 292.714851 
L 98.897727 296.579931 
L 102.068182 299.885633 
L 105.238636 302.523023 
L 108.409091 304.497225 
L 111.579545 305.882997 
L 114.75 306.780117 
L 117.920455 307.283575 
L 121.090909 307.469422 
L 124.261364 307.391226 
L 127.431818 307.082213 
L 130.602273 306.559685 
L 133.772727 305.830359 
L 136.943182 304.895996 
L 140.113636 303.759003 
L 143.284091 302.42774 
L 146.454545 300.920711 
L 149.625 299.268584 
L 152.795455 297.513199 
L 155.965909 295.703277 
L 159.136364 293.887787 
L 162.306818 292.108812 
L 165.477273 290.395984 
L 168.647727 288.763879 
L 171.818182 287.21258 
L 174.988636 285.730691 
L 178.159091 284.299577 
L 181.329545 282.897783 
L 184.5 281.504855 
L 187.670455 280.104173 
L 190.840909 278.68465 
L 194.011364 277.241302 
L 197.181818 275.774758 
L 200.352273 274.289893 
L 203.522727 272.793862 
L 206.693182 271.293816 
L 209.863636 269.794699 
L 213.034091 268.297371 
L 216.204545 266.797311 
L 219.375 265.283905 
L 222.545455 263.740272 
L 225.715909 262.143518 
L 228.886364 260.465166 
L 232.056818 258.671679 
L 235.227273 256.72496 
L 238.397727 254.582809 
L 241.568182 252.199393 
L 244.738636 249.525824 
L 247.909091 246.511124 
L 251.079545 243.103674 
L 254.25 239.253608 
L 257.420455 234.916267 
L 260.590909 230.056983 
L 263.761364 224.657241 
L 266.931818 218.721515 
L 270.102273 212.284046 
L 273.272727 205.413636 
L 276.443182 198.214769 
L 279.613636 190.823221 
L 282.784091 183.395887 
L 285.954545 176.096061 
L 289.125 169.077098 
L 292.295455 162.468032 
L 295.465909 156.364082 
L 298.636364 150.823241 
L 301.806818 145.868443 
L 304.977273 141.493321 
L 308.147727 137.669991 
L 311.318182 134.356488 
" clip-path="url(#pd03fbcc20f)" style="fill: none; stroke: #9467bd; stroke-width: 1.5; stroke-linecap: square"/>
   </g>
   <g id="line2d_16">
    <path d="M 57.681818 267.446125 
L 60.852273 267.684865 
L 64.022727 268.037023 
L 67.193182 268.552714 
L 70.363636 269.300058 
L 73.534091 270.367271 
L 76.704545 271.859888 
L 79.875 273.888144 
L 83.045455 276.539185 
L 86.215909 279.833682 
L 89.386364 283.680156 
L 92.556818 287.856213 
L 95.727273 292.044975 
L 98.897727 295.921825 
L 102.068182 299.245176 
L 105.238636 301.901354 
L 108.409091 303.892302 
L 111.579545 305.291449 
L 114.75 306.19857 
L 117.920455 306.709316 
L 121.090909 306.900634 
L 124.261364 306.826992 
L 127.431818 306.522377 
L 130.602273 306.004734 
L 133.772727 305.281216 
L 136.943182 304.353794 
L 140.113636 303.224739 
L 143.284091 301.901892 
L 146.454545 300.402809 
L 149.625 298.7569 
L 152.795455 297.004679 
L 155.965909 295.193785 
L 159.136364 293.372647 
L 162.306818 291.583504 
L 165.477273 289.856784 
L 168.647727 288.208261 
L 171.818182 286.639366 
L 174.988636 285.139926 
L 178.159091 283.692312 
L 181.329545 282.275836 
L 184.5 280.870648 
L 187.670455 279.460675 
L 190.840909 278.035422 
L 194.011364 276.590592 
L 197.181818 275.127583 
L 200.352273 273.652036 
L 203.522727 272.171745 
L 206.693182 270.694244 
L 209.863636 269.224509 
L 213.034091 267.763092 
L 216.204545 266.304883 
L 219.375 264.838551 
L 222.545455 263.346547 
L 225.715909 261.805509 
L 228.886364 260.18681 
L 232.056818 258.457149 
L 235.227273 256.579036 
L 238.397727 254.511212 
L 241.568182 252.208987 
L 244.738636 249.624702 
L 247.909091 246.708441 
L 251.079545 243.409232 
L 254.25 239.677067 
L 257.420455 235.465998 
L 260.590909 230.738525 
L 263.761364 225.471382 
L 266.931818 219.662349 
L 270.102273 213.337268 
L 273.272727 206.555543 
L 276.443182 199.412549 
L 279.613636 192.036658 
L 282.784091 184.580447 
L 285.954545 177.206944 
L 289.125 170.073314 
L 292.295455 163.315832 
L 295.465909 157.039071 
L 298.636364 151.31108 
L 301.806818 146.164204 
L 304.977273 141.600141 
L 308.147727 137.597072 
L 311.318182 134.117269 
" clip-path="url(#pd03fbcc20f)" style="fill: none; stroke: #8c564b; stroke-width: 1.5; stroke-linecap: square"/>
   </g>
   <g id="line2d_17">
    <path d="M 57.681818 267.303666 
L 60.852273 267.547076 
L 64.022727 267.906051 
L 67.193182 268.431426 
L 70.363636 269.192204 
L 73.534091 270.277554 
L 76.704545 271.793967 
L 79.875 273.852422 
L 83.045455 276.540379 
L 86.215909 279.878254 
L 89.386364 283.773695 
L 92.556818 288.002974 
L 95.727273 292.247464 
L 98.897727 296.180442 
L 102.068182 299.558142 
L 105.238636 302.265177 
L 108.409091 304.302685 
L 111.579545 305.744321 
L 114.75 306.690879 
L 117.920455 307.239447 
L 121.090909 307.468433 
L 124.261364 307.433525 
L 127.431818 307.169466 
L 130.602273 306.694302 
L 133.772727 306.01451 
L 136.943182 305.130452 
L 140.113636 304.04195 
L 143.284091 302.753747 
L 146.454545 301.280189 
L 149.625 299.648092 
L 152.795455 297.896726 
L 155.965909 296.07433 
L 159.136364 294.231731 
L 162.306818 292.414773 
L 165.477273 290.657777 
L 168.647727 288.97983 
L 171.818182 287.384503 
L 174.988636 285.862462 
L 178.159091 284.395769 
L 181.329545 282.962644 
L 184.5 281.541747 
L 187.670455 280.115475 
L 190.840909 278.672005 
L 194.011364 277.206041 
L 197.181818 275.718338 
L 200.352273 274.2142 
L 203.522727 272.701287 
L 206.693182 271.187143 
L 209.863636 269.676836 
L 213.034091 268.17106 
L 216.204545 266.664865 
L 219.375 265.147046 
L 222.545455 263.600085 
L 225.715909 262.00046 
L 228.886364 260.319152 
L 232.056818 258.522167 
L 235.227273 256.57103 
L 238.397727 254.423207 
L 241.568182 252.032541 
L 244.738636 249.349808 
L 247.909091 246.323631 
L 251.079545 242.901957 
L 254.25 239.034429 
L 257.420455 234.675934 
L 260.590909 229.79151 
L 263.761364 224.362593 
L 266.931818 218.394123 
L 270.102273 211.921378 
L 273.272727 205.014887 
L 276.443182 197.781366 
L 279.613636 190.359035 
L 282.784091 182.906992 
L 285.954545 175.590024 
L 289.125 168.562019 
L 292.295455 161.951555 
L 295.465909 155.852642 
L 298.636364 150.321637 
L 301.806818 145.379741 
L 304.977273 141.01913 
L 308.147727 137.210726 
L 311.318182 133.911791 
" clip-path="url(#pd03fbcc20f)" style="fill: none; stroke: #e377c2; stroke-width: 1.5; stroke-linecap: square"/>
   </g>
   <g id="patch_3">
    <path d="M 45 320.4 
L 45 43.2 
" style="fill: none; stroke: #000000; stroke-width: 0.8; stroke-linejoin: miter; stroke-linecap: square"/>
   </g>
   <g id="patch_4">
    <path d="M 324 320.4 
L 324 43.2 
" style="fill: none; stroke: #000000; stroke-width: 0.8; stroke-linejoin: miter; stroke-linecap: square"/>
   </g>
   <g id="patch_5">
    <path d="M 45 320.4 
L 324 320.4 
" style="fill: none; stroke: #000000; stroke-width: 0.8; stroke-linejoin: miter; stroke-linecap: square"/>
   </g>
   <g id="patch_6">
    <path d="M 45 43.2 
L 324 43.2 
" style="fill: none; stroke: #000000; stroke-width: 0.8; stroke-linejoin: miter; stroke-linecap: square"/>
   </g>
   <g id="text_11">
    <!-- Prediction Curves -->
    <g transform="translate(131.961563 37.2)scale(0.12 -0.12)">
     <defs>
      <path id="DejaVuSans-50" d="M 1259 4147 
L 1259 2394 
L 2053 2394 
Q 2494 2394 2734 2622 
Q 2975 2850 2975 3272 
Q 2975 3691 2734 3919 
Q 2494 4147 2053 4147 
L 1259 4147 
z
M 628 4666 
L 2053 4666 
Q 2838 4666 3239 4311 
Q 3641 3956 3641 3272 
Q 3641 2581 3239 2228 
Q 2838 1875 2053 1875 
L 1259 1875 
L 1259 0 
L 628 0 
L 628 4666 
z
" transform="scale(0.015625)"/>
      <path id="DejaVuSans-72" d="M 2631 2963 
Q 2534 3019 2420 3045 
Q 2306 3072 2169 3072 
Q 1681 3072 1420 2755 
Q 1159 2438 1159 1844 
L 1159 0 
L 581 0 
L 581 3500 
L 1159 3500 
L 1159 2956 
Q 1341 3275 1631 3429 
Q 1922 3584 2338 3584 
Q 2397 3584 2469 3576 
Q 2541 3569 2628 3553 
L 2631 2963 
z
" transform="scale(0.015625)"/>
      <path id="DejaVuSans-65" d="M 3597 1894 
L 3597 1613 
L 953 1613 
Q 991 1019 1311 708 
Q 1631 397 2203 397 
Q 2534 397 2845 478 
Q 3156 559 3463 722 
L 3463 178 
Q 3153 47 2828 -22 
Q 2503 -91 2169 -91 
Q 1331 -91 842 396 
Q 353 884 353 1716 
Q 353 2575 817 3079 
Q 1281 3584 2069 3584 
Q 2775 3584 3186 3129 
Q 3597 2675 3597 1894 
z
M 3022 2063 
Q 3016 2534 2758 2815 
Q 2500 3097 2075 3097 
Q 1594 3097 1305 2825 
Q 1016 2553 972 2059 
L 3022 2063 
z
" transform="scale(0.015625)"/>
      <path id="DejaVuSans-64" d="M 2906 2969 
L 2906 4863 
L 3481 4863 
L 3481 0 
L 2906 0 
L 2906 525 
Q 2725 213 2448 61 
Q 2172 -91 1784 -91 
Q 1150 -91 751 415 
Q 353 922 353 1747 
Q 353 2572 751 3078 
Q 1150 3584 1784 3584 
Q 2172 3584 2448 3432 
Q 2725 3281 2906 2969 
z
M 947 1747 
Q 947 1113 1208 752 
Q 1469 391 1925 391 
Q 2381 391 2643 752 
Q 2906 1113 2906 1747 
Q 2906 2381 2643 2742 
Q 2381 3103 1925 3103 
Q 1469 3103 1208 2742 
Q 947 2381 947 1747 
z
" transform="scale(0.015625)"/>
      <path id="DejaVuSans-69" d="M 603 3500 
L 1178 3500 
L 1178 0 
L 603 0 
L 603 3500 
z
M 603 4863 
L 1178 4863 
L 1178 4134 
L 603 4134 
L 603 4863 
z
" transform="scale(0.015625)"/>
      <path id="DejaVuSans-63" d="M 3122 3366 
L 3122 2828 
Q 2878 2963 2633 3030 
Q 2388 3097 2138 3097 
Q 1578 3097 1268 2742 
Q 959 2388 959 1747 
Q 959 1106 1268 751 
Q 1578 397 2138 397 
Q 2388 397 2633 464 
Q 2878 531 3122 666 
L 3122 134 
Q 2881 22 2623 -34 
Q 2366 -91 2075 -91 
Q 1284 -91 818 406 
Q 353 903 353 1747 
Q 353 2603 823 3093 
Q 1294 3584 2113 3584 
Q 2378 3584 2631 3529 
Q 2884 3475 3122 3366 
z
" transform="scale(0.015625)"/>
      <path id="DejaVuSans-74" d="M 1172 4494 
L 1172 3500 
L 2356 3500 
L 2356 3053 
L 1172 3053 
L 1172 1153 
Q 1172 725 1289 603 
Q 1406 481 1766 481 
L 2356 481 
L 2356 0 
L 1766 0 
Q 1100 0 847 248 
Q 594 497 594 1153 
L 594 3053 
L 172 3053 
L 172 3500 
L 594 3500 
L 594 4494 
L 1172 4494 
z
" transform="scale(0.015625)"/>
      <path id="DejaVuSans-6f" d="M 1959 3097 
Q 1497 3097 1228 2736 
Q 959 2375 959 1747 
Q 959 1119 1226 758 
Q 1494 397 1959 397 
Q 2419 397 2687 759 
Q 2956 1122 2956 1747 
Q 2956 2369 2687 2733 
Q 2419 3097 1959 3097 
z
M 1959 3584 
Q 2709 3584 3137 3096 
Q 3566 2609 3566 1747 
Q 3566 888 3137 398 
Q 2709 -91 1959 -91 
Q 1206 -91 779 398 
Q 353 888 353 1747 
Q 353 2609 779 3096 
Q 1206 3584 1959 3584 
z
" transform="scale(0.015625)"/>
      <path id="DejaVuSans-6e" d="M 3513 2113 
L 3513 0 
L 2938 0 
L 2938 2094 
Q 2938 2591 2744 2837 
Q 2550 3084 2163 3084 
Q 1697 3084 1428 2787 
Q 1159 2491 1159 1978 
L 1159 0 
L 581 0 
L 581 3500 
L 1159 3500 
L 1159 2956 
Q 1366 3272 1645 3428 
Q 1925 3584 2291 3584 
Q 2894 3584 3203 3211 
Q 3513 2838 3513 2113 
z
" transform="scale(0.015625)"/>
      <path id="DejaVuSans-20" transform="scale(0.015625)"/>
      <path id="DejaVuSans-43" d="M 4122 4306 
L 4122 3641 
Q 3803 3938 3442 4084 
Q 3081 4231 2675 4231 
Q 1875 4231 1450 3742 
Q 1025 3253 1025 2328 
Q 1025 1406 1450 917 
Q 1875 428 2675 428 
Q 3081 428 3442 575 
Q 3803 722 4122 1019 
L 4122 359 
Q 3791 134 3420 21 
Q 3050 -91 2638 -91 
Q 1578 -91 968 557 
Q 359 1206 359 2328 
Q 359 3453 968 4101 
Q 1578 4750 2638 4750 
Q 3056 4750 3426 4639 
Q 3797 4528 4122 4306 
z
" transform="scale(0.015625)"/>
      <path id="DejaVuSans-75" d="M 544 1381 
L 544 3500 
L 1119 3500 
L 1119 1403 
Q 1119 906 1312 657 
Q 1506 409 1894 409 
Q 2359 409 2629 706 
Q 2900 1003 2900 1516 
L 2900 3500 
L 3475 3500 
L 3475 0 
L 2900 0 
L 2900 538 
Q 2691 219 2414 64 
Q 2138 -91 1772 -91 
Q 1169 -91 856 284 
Q 544 659 544 1381 
z
M 1991 3584 
L 1991 3584 
z
" transform="scale(0.015625)"/>
      <path id="DejaVuSans-76" d="M 191 3500 
L 800 3500 
L 1894 563 
L 2988 3500 
L 3597 3500 
L 2284 0 
L 1503 0 
L 191 3500 
z
" transform="scale(0.015625)"/>
      <path id="DejaVuSans-73" d="M 2834 3397 
L 2834 2853 
Q 2591 2978 2328 3040 
Q 2066 3103 1784 3103 
Q 1356 3103 1142 2972 
Q 928 2841 928 2578 
Q 928 2378 1081 2264 
Q 1234 2150 1697 2047 
L 1894 2003 
Q 2506 1872 2764 1633 
Q 3022 1394 3022 966 
Q 3022 478 2636 193 
Q 2250 -91 1575 -91 
Q 1294 -91 989 -36 
Q 684 19 347 128 
L 347 722 
Q 666 556 975 473 
Q 1284 391 1588 391 
Q 1994 391 2212 530 
Q 2431 669 2431 922 
Q 2431 1156 2273 1281 
Q 2116 1406 1581 1522 
L 1381 1569 
Q 847 1681 609 1914 
Q 372 2147 372 2553 
Q 372 3047 722 3315 
Q 1072 3584 1716 3584 
Q 2034 3584 2315 3537 
Q 2597 3491 2834 3397 
z
" transform="scale(0.015625)"/>
     </defs>
     <use xlink:href="#DejaVuSans-50"/>
     <use xlink:href="#DejaVuSans-72" x="58.552734"/>
     <use xlink:href="#DejaVuSans-65" x="97.416016"/>
     <use xlink:href="#DejaVuSans-64" x="158.939453"/>
     <use xlink:href="#DejaVuSans-69" x="222.416016"/>
     <use xlink:href="#DejaVuSans-63" x="250.199219"/>
     <use xlink:href="#DejaVuSans-74" x="305.179688"/>
     <use xlink:href="#DejaVuSans-69" x="344.388672"/>
     <use xlink:href="#DejaVuSans-6f" x="372.171875"/>
     <use xlink:href="#DejaVuSans-6e" x="433.353516"/>
     <use xlink:href="#DejaVuSans-20" x="496.732422"/>
     <use xlink:href="#DejaVuSans-43" x="528.519531"/>
     <use xlink:href="#DejaVuSans-75" x="598.34375"/>
     <use xlink:href="#DejaVuSans-72" x="661.722656"/>
     <use xlink:href="#DejaVuSans-76" x="702.835938"/>
     <use xlink:href="#DejaVuSans-65" x="762.015625"/>
     <use xlink:href="#DejaVuSans-73" x="823.539062"/>
    </g>
   </g>
   <g id="legend_1">
    <g id="patch_7">
     <path d="M 52 153.946875 
L 195.94375 153.946875 
Q 197.94375 153.946875 197.94375 151.946875 
L 197.94375 50.2 
Q 197.94375 48.2 195.94375 48.2 
L 52 48.2 
Q 50 48.2 50 50.2 
L 50 151.946875 
Q 50 153.946875 52 153.946875 
z
" style="fill: #ffffff; opacity: 0.8; stroke: #cccccc; stroke-linejoin: miter"/>
    </g>
    <g id="line2d_18">
     <path d="M 54 56.298437 
L 64 56.298437 
L 74 56.298437 
" style="fill: none; stroke: #1f77b4; stroke-width: 1.5; stroke-linecap: square"/>
    </g>
    <g id="text_12">
     <!-- Function with noise -->
     <g transform="translate(82 59.798437)scale(0.1 -0.1)">
      <defs>
       <path id="DejaVuSans-46" d="M 628 4666 
L 3309 4666 
L 3309 4134 
L 1259 4134 
L 1259 2759 
L 3109 2759 
L 3109 2228 
L 1259 2228 
L 1259 0 
L 628 0 
L 628 4666 
z
" transform="scale(0.015625)"/>
       <path id="DejaVuSans-77" d="M 269 3500 
L 844 3500 
L 1563 769 
L 2278 3500 
L 2956 3500 
L 3675 769 
L 4391 3500 
L 4966 3500 
L 4050 0 
L 3372 0 
L 2619 2869 
L 1863 0 
L 1184 0 
L 269 3500 
z
" transform="scale(0.015625)"/>
       <path id="DejaVuSans-68" d="M 3513 2113 
L 3513 0 
L 2938 0 
L 2938 2094 
Q 2938 2591 2744 2837 
Q 2550 3084 2163 3084 
Q 1697 3084 1428 2787 
Q 1159 2491 1159 1978 
L 1159 0 
L 581 0 
L 581 4863 
L 1159 4863 
L 1159 2956 
Q 1366 3272 1645 3428 
Q 1925 3584 2291 3584 
Q 2894 3584 3203 3211 
Q 3513 2838 3513 2113 
z
" transform="scale(0.015625)"/>
      </defs>
      <use xlink:href="#DejaVuSans-46"/>
      <use xlink:href="#DejaVuSans-75" x="52.019531"/>
      <use xlink:href="#DejaVuSans-6e" x="115.398438"/>
      <use xlink:href="#DejaVuSans-63" x="178.777344"/>
      <use xlink:href="#DejaVuSans-74" x="233.757812"/>
      <use xlink:href="#DejaVuSans-69" x="272.966797"/>
      <use xlink:href="#DejaVuSans-6f" x="300.75"/>
      <use xlink:href="#DejaVuSans-6e" x="361.931641"/>
      <use xlink:href="#DejaVuSans-20" x="425.310547"/>
      <use xlink:href="#DejaVuSans-77" x="457.097656"/>
      <use xlink:href="#DejaVuSans-69" x="538.884766"/>
      <use xlink:href="#DejaVuSans-74" x="566.667969"/>
      <use xlink:href="#DejaVuSans-68" x="605.876953"/>
      <use xlink:href="#DejaVuSans-20" x="669.255859"/>
      <use xlink:href="#DejaVuSans-6e" x="701.042969"/>
      <use xlink:href="#DejaVuSans-6f" x="764.421875"/>
      <use xlink:href="#DejaVuSans-69" x="825.603516"/>
      <use xlink:href="#DejaVuSans-73" x="853.386719"/>
      <use xlink:href="#DejaVuSans-65" x="905.486328"/>
     </g>
    </g>
    <g id="line2d_19">
     <path d="M 54 70.976562 
L 64 70.976562 
L 74 70.976562 
" style="fill: none; stroke: #ff7f0e; stroke-width: 1.5; stroke-linecap: square"/>
    </g>
    <g id="text_13">
     <!-- Prediction 1 -->
     <g transform="translate(82 74.476562)scale(0.1 -0.1)">
      <use xlink:href="#DejaVuSans-50"/>
      <use xlink:href="#DejaVuSans-72" x="58.552734"/>
      <use xlink:href="#DejaVuSans-65" x="97.416016"/>
      <use xlink:href="#DejaVuSans-64" x="158.939453"/>
      <use xlink:href="#DejaVuSans-69" x="222.416016"/>
      <use xlink:href="#DejaVuSans-63" x="250.199219"/>
      <use xlink:href="#DejaVuSans-74" x="305.179688"/>
      <use xlink:href="#DejaVuSans-69" x="344.388672"/>
      <use xlink:href="#DejaVuSans-6f" x="372.171875"/>
      <use xlink:href="#DejaVuSans-6e" x="433.353516"/>
      <use xlink:href="#DejaVuSans-20" x="496.732422"/>
      <use xlink:href="#DejaVuSans-31" x="528.519531"/>
     </g>
    </g>
    <g id="line2d_20">
     <path d="M 54 85.654687 
L 64 85.654687 
L 74 85.654687 
" style="fill: none; stroke: #2ca02c; stroke-width: 1.5; stroke-linecap: square"/>
    </g>
    <g id="text_14">
     <!-- Prediction 2 -->
     <g transform="translate(82 89.154687)scale(0.1 -0.1)">
      <use xlink:href="#DejaVuSans-50"/>
      <use xlink:href="#DejaVuSans-72" x="58.552734"/>
      <use xlink:href="#DejaVuSans-65" x="97.416016"/>
      <use xlink:href="#DejaVuSans-64" x="158.939453"/>
      <use xlink:href="#DejaVuSans-69" x="222.416016"/>
      <use xlink:href="#DejaVuSans-63" x="250.199219"/>
      <use xlink:href="#DejaVuSans-74" x="305.179688"/>
      <use xlink:href="#DejaVuSans-69" x="344.388672"/>
      <use xlink:href="#DejaVuSans-6f" x="372.171875"/>
      <use xlink:href="#DejaVuSans-6e" x="433.353516"/>
      <use xlink:href="#DejaVuSans-20" x="496.732422"/>
      <use xlink:href="#DejaVuSans-32" x="528.519531"/>
     </g>
    </g>
    <g id="line2d_21">
     <path d="M 54 100.332812 
L 64 100.332812 
L 74 100.332812 
" style="fill: none; stroke: #d62728; stroke-width: 1.5; stroke-linecap: square"/>
    </g>
    <g id="text_15">
     <!-- Prediction 3 -->
     <g transform="translate(82 103.832812)scale(0.1 -0.1)">
      <use xlink:href="#DejaVuSans-50"/>
      <use xlink:href="#DejaVuSans-72" x="58.552734"/>
      <use xlink:href="#DejaVuSans-65" x="97.416016"/>
      <use xlink:href="#DejaVuSans-64" x="158.939453"/>
      <use xlink:href="#DejaVuSans-69" x="222.416016"/>
      <use xlink:href="#DejaVuSans-63" x="250.199219"/>
      <use xlink:href="#DejaVuSans-74" x="305.179688"/>
      <use xlink:href="#DejaVuSans-69" x="344.388672"/>
      <use xlink:href="#DejaVuSans-6f" x="372.171875"/>
      <use xlink:href="#DejaVuSans-6e" x="433.353516"/>
      <use xlink:href="#DejaVuSans-20" x="496.732422"/>
      <use xlink:href="#DejaVuSans-33" x="528.519531"/>
     </g>
    </g>
    <g id="line2d_22">
     <path d="M 54 115.010937 
L 64 115.010937 
L 74 115.010937 
" style="fill: none; stroke: #9467bd; stroke-width: 1.5; stroke-linecap: square"/>
    </g>
    <g id="text_16">
     <!-- Prediction 4 -->
     <g transform="translate(82 118.510937)scale(0.1 -0.1)">
      <use xlink:href="#DejaVuSans-50"/>
      <use xlink:href="#DejaVuSans-72" x="58.552734"/>
      <use xlink:href="#DejaVuSans-65" x="97.416016"/>
      <use xlink:href="#DejaVuSans-64" x="158.939453"/>
      <use xlink:href="#DejaVuSans-69" x="222.416016"/>
      <use xlink:href="#DejaVuSans-63" x="250.199219"/>
      <use xlink:href="#DejaVuSans-74" x="305.179688"/>
      <use xlink:href="#DejaVuSans-69" x="344.388672"/>
      <use xlink:href="#DejaVuSans-6f" x="372.171875"/>
      <use xlink:href="#DejaVuSans-6e" x="433.353516"/>
      <use xlink:href="#DejaVuSans-20" x="496.732422"/>
      <use xlink:href="#DejaVuSans-34" x="528.519531"/>
     </g>
    </g>
    <g id="line2d_23">
     <path d="M 54 129.689062 
L 64 129.689062 
L 74 129.689062 
" style="fill: none; stroke: #8c564b; stroke-width: 1.5; stroke-linecap: square"/>
    </g>
    <g id="text_17">
     <!-- Prediction 5 -->
     <g transform="translate(82 133.189062)scale(0.1 -0.1)">
      <defs>
       <path id="DejaVuSans-35" d="M 691 4666 
L 3169 4666 
L 3169 4134 
L 1269 4134 
L 1269 2991 
Q 1406 3038 1543 3061 
Q 1681 3084 1819 3084 
Q 2600 3084 3056 2656 
Q 3513 2228 3513 1497 
Q 3513 744 3044 326 
Q 2575 -91 1722 -91 
Q 1428 -91 1123 -41 
Q 819 9 494 109 
L 494 744 
Q 775 591 1075 516 
Q 1375 441 1709 441 
Q 2250 441 2565 725 
Q 2881 1009 2881 1497 
Q 2881 1984 2565 2268 
Q 2250 2553 1709 2553 
Q 1456 2553 1204 2497 
Q 953 2441 691 2322 
L 691 4666 
z
" transform="scale(0.015625)"/>
      </defs>
      <use xlink:href="#DejaVuSans-50"/>
      <use xlink:href="#DejaVuSans-72" x="58.552734"/>
      <use xlink:href="#DejaVuSans-65" x="97.416016"/>
      <use xlink:href="#DejaVuSans-64" x="158.939453"/>
      <use xlink:href="#DejaVuSans-69" x="222.416016"/>
      <use xlink:href="#DejaVuSans-63" x="250.199219"/>
      <use xlink:href="#DejaVuSans-74" x="305.179688"/>
      <use xlink:href="#DejaVuSans-69" x="344.388672"/>
      <use xlink:href="#DejaVuSans-6f" x="372.171875"/>
      <use xlink:href="#DejaVuSans-6e" x="433.353516"/>
      <use xlink:href="#DejaVuSans-20" x="496.732422"/>
      <use xlink:href="#DejaVuSans-35" x="528.519531"/>
     </g>
    </g>
    <g id="line2d_24">
     <path d="M 54 144.367187 
L 64 144.367187 
L 74 144.367187 
" style="fill: none; stroke: #e377c2; stroke-width: 1.5; stroke-linecap: square"/>
    </g>
    <g id="text_18">
     <!-- Average of Predictions -->
     <g transform="translate(82 147.867187)scale(0.1 -0.1)">
      <defs>
       <path id="DejaVuSans-41" d="M 2188 4044 
L 1331 1722 
L 3047 1722 
L 2188 4044 
z
M 1831 4666 
L 2547 4666 
L 4325 0 
L 3669 0 
L 3244 1197 
L 1141 1197 
L 716 0 
L 50 0 
L 1831 4666 
z
" transform="scale(0.015625)"/>
       <path id="DejaVuSans-61" d="M 2194 1759 
Q 1497 1759 1228 1600 
Q 959 1441 959 1056 
Q 959 750 1161 570 
Q 1363 391 1709 391 
Q 2188 391 2477 730 
Q 2766 1069 2766 1631 
L 2766 1759 
L 2194 1759 
z
M 3341 1997 
L 3341 0 
L 2766 0 
L 2766 531 
Q 2569 213 2275 61 
Q 1981 -91 1556 -91 
Q 1019 -91 701 211 
Q 384 513 384 1019 
Q 384 1609 779 1909 
Q 1175 2209 1959 2209 
L 2766 2209 
L 2766 2266 
Q 2766 2663 2505 2880 
Q 2244 3097 1772 3097 
Q 1472 3097 1187 3025 
Q 903 2953 641 2809 
L 641 3341 
Q 956 3463 1253 3523 
Q 1550 3584 1831 3584 
Q 2591 3584 2966 3190 
Q 3341 2797 3341 1997 
z
" transform="scale(0.015625)"/>
       <path id="DejaVuSans-67" d="M 2906 1791 
Q 2906 2416 2648 2759 
Q 2391 3103 1925 3103 
Q 1463 3103 1205 2759 
Q 947 2416 947 1791 
Q 947 1169 1205 825 
Q 1463 481 1925 481 
Q 2391 481 2648 825 
Q 2906 1169 2906 1791 
z
M 3481 434 
Q 3481 -459 3084 -895 
Q 2688 -1331 1869 -1331 
Q 1566 -1331 1297 -1286 
Q 1028 -1241 775 -1147 
L 775 -588 
Q 1028 -725 1275 -790 
Q 1522 -856 1778 -856 
Q 2344 -856 2625 -561 
Q 2906 -266 2906 331 
L 2906 616 
Q 2728 306 2450 153 
Q 2172 0 1784 0 
Q 1141 0 747 490 
Q 353 981 353 1791 
Q 353 2603 747 3093 
Q 1141 3584 1784 3584 
Q 2172 3584 2450 3431 
Q 2728 3278 2906 2969 
L 2906 3500 
L 3481 3500 
L 3481 434 
z
" transform="scale(0.015625)"/>
       <path id="DejaVuSans-66" d="M 2375 4863 
L 2375 4384 
L 1825 4384 
Q 1516 4384 1395 4259 
Q 1275 4134 1275 3809 
L 1275 3500 
L 2222 3500 
L 2222 3053 
L 1275 3053 
L 1275 0 
L 697 0 
L 697 3053 
L 147 3053 
L 147 3500 
L 697 3500 
L 697 3744 
Q 697 4328 969 4595 
Q 1241 4863 1831 4863 
L 2375 4863 
z
" transform="scale(0.015625)"/>
      </defs>
      <use xlink:href="#DejaVuSans-41"/>
      <use xlink:href="#DejaVuSans-76" x="62.533203"/>
      <use xlink:href="#DejaVuSans-65" x="121.712891"/>
      <use xlink:href="#DejaVuSans-72" x="183.236328"/>
      <use xlink:href="#DejaVuSans-61" x="224.349609"/>
      <use xlink:href="#DejaVuSans-67" x="285.628906"/>
      <use xlink:href="#DejaVuSans-65" x="349.105469"/>
      <use xlink:href="#DejaVuSans-20" x="410.628906"/>
      <use xlink:href="#DejaVuSans-6f" x="442.416016"/>
      <use xlink:href="#DejaVuSans-66" x="503.597656"/>
      <use xlink:href="#DejaVuSans-20" x="538.802734"/>
      <use xlink:href="#DejaVuSans-50" x="570.589844"/>
      <use xlink:href="#DejaVuSans-72" x="629.142578"/>
      <use xlink:href="#DejaVuSans-65" x="668.005859"/>
      <use xlink:href="#DejaVuSans-64" x="729.529297"/>
      <use xlink:href="#DejaVuSans-69" x="793.005859"/>
      <use xlink:href="#DejaVuSans-63" x="820.789062"/>
      <use xlink:href="#DejaVuSans-74" x="875.769531"/>
      <use xlink:href="#DejaVuSans-69" x="914.978516"/>
      <use xlink:href="#DejaVuSans-6f" x="942.761719"/>
      <use xlink:href="#DejaVuSans-6e" x="1003.943359"/>
      <use xlink:href="#DejaVuSans-73" x="1067.322266"/>
     </g>
    </g>
   </g>
  </g>
 </g>
 <defs>
  <clipPath id="pd03fbcc20f">
   <rect x="45" y="43.2" width="279" height="277.2"/>
  </clipPath>
 </defs>
</svg>
