<?xml version="1.0" encoding="utf-8" standalone="no"?>
<!DOCTYPE svg PUBLIC "-//W3C//DTD SVG 1.1//EN"
  "http://www.w3.org/Graphics/SVG/1.1/DTD/svg11.dtd">
<svg xmlns:xlink="http://www.w3.org/1999/xlink" width="360pt" height="360pt" viewBox="0 0 360 360" xmlns="http://www.w3.org/2000/svg" version="1.1">
 <metadata>
  <rdf:RDF xmlns:dc="http://purl.org/dc/elements/1.1/" xmlns:cc="http://creativecommons.org/ns#" xmlns:rdf="http://www.w3.org/1999/02/22-rdf-syntax-ns#">
   <cc:Work>
    <dc:type rdf:resource="http://purl.org/dc/dcmitype/StillImage"/>
    <dc:date>2022-11-16T09:24:26.572573</dc:date>
    <dc:format>image/svg+xml</dc:format>
    <dc:creator>
     <cc:Agent>
      <dc:title>Matplotlib v3.5.3, https://matplotlib.org/</dc:title>
     </cc:Agent>
    </dc:creator>
   </cc:Work>
  </rdf:RDF>
 </metadata>
 <defs>
  <style type="text/css">*{stroke-linejoin: round; stroke-linecap: butt}</style>
 </defs>
 <g id="figure_1">
  <g id="patch_1">
   <path d="M 0 360 
L 360 360 
L 360 0 
L 0 0 
z
" style="fill: #ffffff"/>
  </g>
  <g id="axes_1">
   <g id="patch_2">
    <path d="M 45 320.4 
L 324 320.4 
L 324 43.2 
L 45 43.2 
z
" style="fill: #ffffff"/>
   </g>
   <g id="matplotlib.axis_1">
    <g id="xtick_1">
     <g id="line2d_1">
      <defs>
       <path id="mf97a1e2c78" d="M 0 0 
L 0 3.5 
" style="stroke: #000000; stroke-width: 0.8"/>
      </defs>
      <g>
       <use xlink:href="#mf97a1e2c78" x="83.045455" y="320.4" style="stroke: #000000; stroke-width: 0.8"/>
      </g>
     </g>
     <g id="text_1">
      <!-- −2 -->
      <g transform="translate(75.674361 334.998438)scale(0.1 -0.1)">
       <defs>
        <path id="DejaVuSans-2212" d="M 678 2272 
L 4684 2272 
L 4684 1741 
L 678 1741 
L 678 2272 
z
" transform="scale(0.015625)"/>
        <path id="DejaVuSans-32" d="M 1228 531 
L 3431 531 
L 3431 0 
L 469 0 
L 469 531 
Q 828 903 1448 1529 
Q 2069 2156 2228 2338 
Q 2531 2678 2651 2914 
Q 2772 3150 2772 3378 
Q 2772 3750 2511 3984 
Q 2250 4219 1831 4219 
Q 1534 4219 1204 4116 
Q 875 4013 500 3803 
L 500 4441 
Q 881 4594 1212 4672 
Q 1544 4750 1819 4750 
Q 2544 4750 2975 4387 
Q 3406 4025 3406 3419 
Q 3406 3131 3298 2873 
Q 3191 2616 2906 2266 
Q 2828 2175 2409 1742 
Q 1991 1309 1228 531 
z
" transform="scale(0.015625)"/>
       </defs>
       <use xlink:href="#DejaVuSans-2212"/>
       <use xlink:href="#DejaVuSans-32" x="83.789062"/>
      </g>
     </g>
    </g>
    <g id="xtick_2">
     <g id="line2d_2">
      <g>
       <use xlink:href="#mf97a1e2c78" x="133.772727" y="320.4" style="stroke: #000000; stroke-width: 0.8"/>
      </g>
     </g>
     <g id="text_2">
      <!-- −1 -->
      <g transform="translate(126.401634 334.998438)scale(0.1 -0.1)">
       <defs>
        <path id="DejaVuSans-31" d="M 794 531 
L 1825 531 
L 1825 4091 
L 703 3866 
L 703 4441 
L 1819 4666 
L 2450 4666 
L 2450 531 
L 3481 531 
L 3481 0 
L 794 0 
L 794 531 
z
" transform="scale(0.015625)"/>
       </defs>
       <use xlink:href="#DejaVuSans-2212"/>
       <use xlink:href="#DejaVuSans-31" x="83.789062"/>
      </g>
     </g>
    </g>
    <g id="xtick_3">
     <g id="line2d_3">
      <g>
       <use xlink:href="#mf97a1e2c78" x="184.5" y="320.4" style="stroke: #000000; stroke-width: 0.8"/>
      </g>
     </g>
     <g id="text_3">
      <!-- 0 -->
      <g transform="translate(181.31875 334.998438)scale(0.1 -0.1)">
       <defs>
        <path id="DejaVuSans-30" d="M 2034 4250 
Q 1547 4250 1301 3770 
Q 1056 3291 1056 2328 
Q 1056 1369 1301 889 
Q 1547 409 2034 409 
Q 2525 409 2770 889 
Q 3016 1369 3016 2328 
Q 3016 3291 2770 3770 
Q 2525 4250 2034 4250 
z
M 2034 4750 
Q 2819 4750 3233 4129 
Q 3647 3509 3647 2328 
Q 3647 1150 3233 529 
Q 2819 -91 2034 -91 
Q 1250 -91 836 529 
Q 422 1150 422 2328 
Q 422 3509 836 4129 
Q 1250 4750 2034 4750 
z
" transform="scale(0.015625)"/>
       </defs>
       <use xlink:href="#DejaVuSans-30"/>
      </g>
     </g>
    </g>
    <g id="xtick_4">
     <g id="line2d_4">
      <g>
       <use xlink:href="#mf97a1e2c78" x="235.227273" y="320.4" style="stroke: #000000; stroke-width: 0.8"/>
      </g>
     </g>
     <g id="text_4">
      <!-- 1 -->
      <g transform="translate(232.046023 334.998438)scale(0.1 -0.1)">
       <use xlink:href="#DejaVuSans-31"/>
      </g>
     </g>
    </g>
    <g id="xtick_5">
     <g id="line2d_5">
      <g>
       <use xlink:href="#mf97a1e2c78" x="285.954545" y="320.4" style="stroke: #000000; stroke-width: 0.8"/>
      </g>
     </g>
     <g id="text_5">
      <!-- 2 -->
      <g transform="translate(282.773295 334.998438)scale(0.1 -0.1)">
       <use xlink:href="#DejaVuSans-32"/>
      </g>
     </g>
    </g>
   </g>
   <g id="matplotlib.axis_2">
    <g id="ytick_1">
     <g id="line2d_6">
      <defs>
       <path id="mc46a928bb7" d="M 0 0 
L -3.5 0 
" style="stroke: #000000; stroke-width: 0.8"/>
      </defs>
      <g>
       <use xlink:href="#mc46a928bb7" x="45" y="317.842483" style="stroke: #000000; stroke-width: 0.8"/>
      </g>
     </g>
     <g id="text_6">
      <!-- −0.08 -->
      <g transform="translate(7.354687 321.641702)scale(0.1 -0.1)">
       <defs>
        <path id="DejaVuSans-2e" d="M 684 794 
L 1344 794 
L 1344 0 
L 684 0 
L 684 794 
z
" transform="scale(0.015625)"/>
        <path id="DejaVuSans-38" d="M 2034 2216 
Q 1584 2216 1326 1975 
Q 1069 1734 1069 1313 
Q 1069 891 1326 650 
Q 1584 409 2034 409 
Q 2484 409 2743 651 
Q 3003 894 3003 1313 
Q 3003 1734 2745 1975 
Q 2488 2216 2034 2216 
z
M 1403 2484 
Q 997 2584 770 2862 
Q 544 3141 544 3541 
Q 544 4100 942 4425 
Q 1341 4750 2034 4750 
Q 2731 4750 3128 4425 
Q 3525 4100 3525 3541 
Q 3525 3141 3298 2862 
Q 3072 2584 2669 2484 
Q 3125 2378 3379 2068 
Q 3634 1759 3634 1313 
Q 3634 634 3220 271 
Q 2806 -91 2034 -91 
Q 1263 -91 848 271 
Q 434 634 434 1313 
Q 434 1759 690 2068 
Q 947 2378 1403 2484 
z
M 1172 3481 
Q 1172 3119 1398 2916 
Q 1625 2713 2034 2713 
Q 2441 2713 2670 2916 
Q 2900 3119 2900 3481 
Q 2900 3844 2670 4047 
Q 2441 4250 2034 4250 
Q 1625 4250 1398 4047 
Q 1172 3844 1172 3481 
z
" transform="scale(0.015625)"/>
       </defs>
       <use xlink:href="#DejaVuSans-2212"/>
       <use xlink:href="#DejaVuSans-30" x="83.789062"/>
       <use xlink:href="#DejaVuSans-2e" x="147.412109"/>
       <use xlink:href="#DejaVuSans-30" x="179.199219"/>
       <use xlink:href="#DejaVuSans-38" x="242.822266"/>
      </g>
     </g>
    </g>
    <g id="ytick_2">
     <g id="line2d_7">
      <g>
       <use xlink:href="#mc46a928bb7" x="45" y="279.229478" style="stroke: #000000; stroke-width: 0.8"/>
      </g>
     </g>
     <g id="text_7">
      <!-- −0.06 -->
      <g transform="translate(7.354687 283.028697)scale(0.1 -0.1)">
       <defs>
        <path id="DejaVuSans-36" d="M 2113 2584 
Q 1688 2584 1439 2293 
Q 1191 2003 1191 1497 
Q 1191 994 1439 701 
Q 1688 409 2113 409 
Q 2538 409 2786 701 
Q 3034 994 3034 1497 
Q 3034 2003 2786 2293 
Q 2538 2584 2113 2584 
z
M 3366 4563 
L 3366 3988 
Q 3128 4100 2886 4159 
Q 2644 4219 2406 4219 
Q 1781 4219 1451 3797 
Q 1122 3375 1075 2522 
Q 1259 2794 1537 2939 
Q 1816 3084 2150 3084 
Q 2853 3084 3261 2657 
Q 3669 2231 3669 1497 
Q 3669 778 3244 343 
Q 2819 -91 2113 -91 
Q 1303 -91 875 529 
Q 447 1150 447 2328 
Q 447 3434 972 4092 
Q 1497 4750 2381 4750 
Q 2619 4750 2861 4703 
Q 3103 4656 3366 4563 
z
" transform="scale(0.015625)"/>
       </defs>
       <use xlink:href="#DejaVuSans-2212"/>
       <use xlink:href="#DejaVuSans-30" x="83.789062"/>
       <use xlink:href="#DejaVuSans-2e" x="147.412109"/>
       <use xlink:href="#DejaVuSans-30" x="179.199219"/>
       <use xlink:href="#DejaVuSans-36" x="242.822266"/>
      </g>
     </g>
    </g>
    <g id="ytick_3">
     <g id="line2d_8">
      <g>
       <use xlink:href="#mc46a928bb7" x="45" y="240.616473" style="stroke: #000000; stroke-width: 0.8"/>
      </g>
     </g>
     <g id="text_8">
      <!-- −0.04 -->
      <g transform="translate(7.354687 244.415691)scale(0.1 -0.1)">
       <defs>
        <path id="DejaVuSans-34" d="M 2419 4116 
L 825 1625 
L 2419 1625 
L 2419 4116 
z
M 2253 4666 
L 3047 4666 
L 3047 1625 
L 3713 1625 
L 3713 1100 
L 3047 1100 
L 3047 0 
L 2419 0 
L 2419 1100 
L 313 1100 
L 313 1709 
L 2253 4666 
z
" transform="scale(0.015625)"/>
       </defs>
       <use xlink:href="#DejaVuSans-2212"/>
       <use xlink:href="#DejaVuSans-30" x="83.789062"/>
       <use xlink:href="#DejaVuSans-2e" x="147.412109"/>
       <use xlink:href="#DejaVuSans-30" x="179.199219"/>
       <use xlink:href="#DejaVuSans-34" x="242.822266"/>
      </g>
     </g>
    </g>
    <g id="ytick_4">
     <g id="line2d_9">
      <g>
       <use xlink:href="#mc46a928bb7" x="45" y="202.003467" style="stroke: #000000; stroke-width: 0.8"/>
      </g>
     </g>
     <g id="text_9">
      <!-- −0.02 -->
      <g transform="translate(7.354687 205.802686)scale(0.1 -0.1)">
       <use xlink:href="#DejaVuSans-2212"/>
       <use xlink:href="#DejaVuSans-30" x="83.789062"/>
       <use xlink:href="#DejaVuSans-2e" x="147.412109"/>
       <use xlink:href="#DejaVuSans-30" x="179.199219"/>
       <use xlink:href="#DejaVuSans-32" x="242.822266"/>
      </g>
     </g>
    </g>
    <g id="ytick_5">
     <g id="line2d_10">
      <g>
       <use xlink:href="#mc46a928bb7" x="45" y="163.390462" style="stroke: #000000; stroke-width: 0.8"/>
      </g>
     </g>
     <g id="text_10">
      <!-- 0.00 -->
      <g transform="translate(15.734375 167.189681)scale(0.1 -0.1)">
       <use xlink:href="#DejaVuSans-30"/>
       <use xlink:href="#DejaVuSans-2e" x="63.623047"/>
       <use xlink:href="#DejaVuSans-30" x="95.410156"/>
       <use xlink:href="#DejaVuSans-30" x="159.033203"/>
      </g>
     </g>
    </g>
    <g id="ytick_6">
     <g id="line2d_11">
      <g>
       <use xlink:href="#mc46a928bb7" x="45" y="124.777457" style="stroke: #000000; stroke-width: 0.8"/>
      </g>
     </g>
     <g id="text_11">
      <!-- 0.02 -->
      <g transform="translate(15.734375 128.576675)scale(0.1 -0.1)">
       <use xlink:href="#DejaVuSans-30"/>
       <use xlink:href="#DejaVuSans-2e" x="63.623047"/>
       <use xlink:href="#DejaVuSans-30" x="95.410156"/>
       <use xlink:href="#DejaVuSans-32" x="159.033203"/>
      </g>
     </g>
    </g>
    <g id="ytick_7">
     <g id="line2d_12">
      <g>
       <use xlink:href="#mc46a928bb7" x="45" y="86.164451" style="stroke: #000000; stroke-width: 0.8"/>
      </g>
     </g>
     <g id="text_12">
      <!-- 0.04 -->
      <g transform="translate(15.734375 89.96367)scale(0.1 -0.1)">
       <use xlink:href="#DejaVuSans-30"/>
       <use xlink:href="#DejaVuSans-2e" x="63.623047"/>
       <use xlink:href="#DejaVuSans-30" x="95.410156"/>
       <use xlink:href="#DejaVuSans-34" x="159.033203"/>
      </g>
     </g>
    </g>
    <g id="ytick_8">
     <g id="line2d_13">
      <g>
       <use xlink:href="#mc46a928bb7" x="45" y="47.551446" style="stroke: #000000; stroke-width: 0.8"/>
      </g>
     </g>
     <g id="text_13">
      <!-- 0.06 -->
      <g transform="translate(15.734375 51.350665)scale(0.1 -0.1)">
       <use xlink:href="#DejaVuSans-30"/>
       <use xlink:href="#DejaVuSans-2e" x="63.623047"/>
       <use xlink:href="#DejaVuSans-30" x="95.410156"/>
       <use xlink:href="#DejaVuSans-36" x="159.033203"/>
      </g>
     </g>
    </g>
   </g>
   <g id="line2d_14">
    <path d="M 57.681818 149.859582 
L 60.860219 149.276655 
L 64.038619 148.424174 
L 67.21702 147.282438 
L 71.031098 145.5946 
L 76.116544 143.323649 
L 78.023577 142.705601 
L 79.930622 142.346242 
L 81.201977 142.291098 
L 82.473333 142.39393 
L 83.7447 142.682447 
L 85.016061 143.145604 
L 86.923101 144.167753 
L 88.83014 145.533564 
L 90.737185 147.152817 
L 99.636709 155.330374 
L 101.543748 156.72233 
L 103.450781 157.883214 
L 105.35782 158.805661 
L 107.264859 159.477887 
L 109.171904 159.914623 
L 111.078949 160.127467 
L 112.985988 160.13299 
L 114.893027 159.949238 
L 117.435744 159.44493 
L 119.978467 158.689112 
L 123.156868 157.474097 
L 126.970946 155.775579 
L 133.963431 152.598384 
L 137.141831 151.415222 
L 139.684551 150.680578 
L 142.227271 150.17222 
L 144.769991 149.906717 
L 147.31271 149.882229 
L 149.85543 150.068744 
L 152.39815 150.434961 
L 156.212234 151.266452 
L 160.026315 152.390143 
L 163.204716 153.588956 
L 165.747428 154.779115 
L 168.29015 156.240301 
L 170.197195 157.548298 
L 172.739914 159.613032 
L 175.28264 162.071418 
L 177.82536 164.91296 
L 180.368073 168.09172 
L 183.546474 172.423538 
L 195.62441 189.239323 
L 202.616884 198.143146 
L 214.05913 212.467036 
L 217.237528 216.079217 
L 220.415928 219.336688 
L 222.958648 221.657582 
L 226.137049 224.228097 
L 230.586807 227.455143 
L 235.036569 230.738115 
L 237.579292 232.873736 
L 240.122015 235.307358 
L 242.664732 238.100383 
L 245.207455 241.269661 
L 247.750171 244.799079 
L 250.928572 249.63585 
L 255.378334 256.942238 
L 264.277852 272.153776 
L 268.72762 280.092343 
L 272.541698 287.332724 
L 278.898499 299.533697 
L 280.805538 302.656391 
L 282.076899 304.427637 
L 283.348261 305.881458 
L 284.619622 306.960776 
L 285.890984 307.614406 
L 286.526655 307.769804 
L 287.162333 307.8 
L 288.433701 307.503565 
L 289.705056 306.713685 
L 290.976411 305.4473 
L 292.247779 303.733868 
L 293.519146 301.613529 
L 295.426179 297.8129 
L 297.333212 293.455121 
L 305.597058 273.748265 
L 307.504104 269.986301 
L 309.411149 266.729566 
L 311.318182 264.018566 
L 311.318182 264.018566 
" clip-path="url(#pcd815d17d0)" style="fill: none; stroke: #1f77b4; stroke-width: 1.5; stroke-linecap: square"/>
   </g>
   <g id="line2d_15">
    <path d="M 57.681818 156.83225 
L 62.131574 156.215445 
L 66.581342 155.359097 
L 70.39542 154.404245 
L 74.845188 153.031437 
L 79.930622 151.209835 
L 90.737185 147.077327 
L 97.729663 144.55229 
L 102.179425 143.163464 
L 105.993504 142.20585 
L 109.807588 141.517605 
L 112.985988 141.172194 
L 116.164389 141.039442 
L 119.342783 141.114195 
L 122.521184 141.383749 
L 126.335268 141.949553 
L 130.78503 142.895015 
L 137.777512 144.713396 
L 142.227271 145.768042 
L 145.405671 146.313225 
L 148.584072 146.628256 
L 151.762469 146.716818 
L 156.847915 146.5373 
L 161.933355 146.414675 
L 165.111749 146.587381 
L 167.654469 146.932424 
L 170.197195 147.47687 
L 173.375594 148.408339 
L 177.18968 149.777464 
L 183.546474 152.109451 
L 186.089199 152.837834 
L 188.631919 153.333396 
L 190.538964 153.513375 
L 192.446005 153.518438 
L 194.98873 153.240599 
L 197.53145 152.656475 
L 200.074164 151.79893 
L 202.616884 150.700648 
L 205.159609 149.392743 
L 208.33801 147.499057 
L 212.152088 144.937103 
L 217.873208 140.780936 
L 224.230009 136.217631 
L 230.586807 131.974513 
L 236.307931 128.087163 
L 239.486331 125.633473 
L 242.029054 123.403397 
L 244.571771 120.868325 
L 247.114494 117.991248 
L 249.657211 114.744732 
L 252.199933 111.142401 
L 255.378334 106.180152 
L 258.556734 100.790741 
L 263.00649 92.719238 
L 268.091936 82.985857 
L 276.355776 66.990884 
L 278.898499 62.669192 
L 280.805538 59.922104 
L 282.076899 58.419676 
L 283.348261 57.218469 
L 284.619622 56.360833 
L 285.890984 55.891324 
L 287.162333 55.811784 
L 288.433701 56.152408 
L 289.705056 56.887051 
L 290.976411 58.014241 
L 292.247779 59.49347 
L 293.519146 61.298594 
L 295.426179 64.490887 
L 297.96889 69.428648 
L 307.504104 88.969427 
L 310.046826 93.519429 
L 311.318182 95.64345 
L 311.318182 95.64345 
" clip-path="url(#pcd815d17d0)" style="fill: none; stroke: #ff7f0e; stroke-width: 1.5; stroke-linecap: square"/>
   </g>
   <g id="line2d_16">
    <path d="M 57.681818 162.260142 
L 61.495896 163.155707 
L 65.309987 164.30269 
L 70.39542 166.125398 
L 74.209498 167.468838 
L 76.752221 168.161686 
L 78.659254 168.491539 
L 80.566299 168.616097 
L 82.473333 168.513357 
L 84.380384 168.168038 
L 86.287423 167.62129 
L 88.83014 166.629245 
L 98.365347 162.543873 
L 100.90807 161.774246 
L 104.086458 161.066853 
L 107.900543 160.517435 
L 121.249829 159.054409 
L 124.428223 158.403725 
L 127.606623 157.547929 
L 130.78503 156.496045 
L 135.234792 154.749288 
L 147.31271 149.70179 
L 151.126789 148.414599 
L 154.940876 147.369344 
L 158.754957 146.583699 
L 161.933355 146.134811 
L 165.111749 145.904291 
L 168.29015 145.911104 
L 170.832874 146.105168 
L 174.011274 146.583146 
L 177.18968 147.332335 
L 180.368073 148.341043 
L 183.546474 149.610006 
L 186.724879 151.140881 
L 190.538964 153.265732 
L 195.62441 156.125133 
L 197.53145 157.002655 
L 199.438491 157.675617 
L 201.345524 158.105816 
L 203.252564 158.276589 
L 205.159609 158.204782 
L 207.06665 157.924917 
L 209.60937 157.322473 
L 217.873208 155.135022 
L 220.415928 154.790255 
L 222.322967 154.711589 
L 224.230009 154.794075 
L 226.137049 155.057 
L 228.044088 155.496912 
L 229.95113 156.110495 
L 231.858169 156.894575 
L 234.400889 158.186369 
L 236.943615 159.735381 
L 240.122015 161.991233 
L 243.936093 165.051879 
L 254.106973 173.558553 
L 256.649689 175.291685 
L 258.556734 176.368794 
L 260.463774 177.214094 
L 262.370813 177.795917 
L 264.277852 178.089959 
L 266.184897 178.081305 
L 268.091936 177.764064 
L 269.998975 177.13216 
L 271.906014 176.184857 
L 273.813059 174.918288 
L 275.720098 173.340369 
L 277.627138 171.461965 
L 279.534177 169.272765 
L 281.441222 166.808487 
L 283.983945 163.108388 
L 287.162333 157.984297 
L 296.061857 143.277803 
L 298.60458 139.70438 
L 300.511613 137.332531 
L 302.418658 135.233182 
L 304.325703 133.394179 
L 306.868426 131.348225 
L 309.411149 129.677142 
L 311.318182 128.623232 
L 311.318182 128.623232 
" clip-path="url(#pcd815d17d0)" style="fill: none; stroke: #2ca02c; stroke-width: 1.5; stroke-linecap: square"/>
   </g>
   <g id="line2d_17">
    <path d="M 57.681818 168.877457 
L 59.588863 167.177834 
L 61.495896 165.2105 
L 63.402942 162.956672 
L 65.309987 160.404845 
L 67.852697 156.553859 
L 71.031098 151.163344 
L 76.116544 142.332157 
L 78.023577 139.496369 
L 79.294932 137.901742 
L 80.566299 136.605713 
L 81.837655 135.651597 
L 83.109022 135.066644 
L 84.380384 134.866044 
L 85.651745 135.046851 
L 86.923101 135.584945 
L 88.194462 136.444423 
L 89.465823 137.58266 
L 91.372862 139.68118 
L 93.915579 142.911402 
L 98.365347 148.639964 
L 100.90807 151.497524 
L 102.815109 153.350703 
L 104.722142 154.94151 
L 106.629181 156.278414 
L 108.536226 157.394188 
L 111.078949 158.557834 
L 113.621666 159.42394 
L 116.164389 160.060078 
L 119.342783 160.591452 
L 123.156868 160.977002 
L 130.78503 161.418524 
L 135.234792 161.807572 
L 138.413193 162.284446 
L 141.59159 162.98871 
L 144.769991 163.961606 
L 147.948391 165.21142 
L 151.126789 166.713481 
L 155.576557 169.140934 
L 163.204716 173.421567 
L 165.747428 174.58779 
L 167.654469 175.271432 
L 169.561514 175.740757 
L 171.468555 175.950471 
L 172.739914 175.921564 
L 174.64696 175.597511 
L 175.91832 175.180292 
L 177.18968 174.585028 
L 178.46104 173.814481 
L 180.368073 172.3173 
L 182.275114 170.418274 
L 184.182154 168.14355 
L 186.089199 165.548638 
L 189.2676 160.740682 
L 193.717365 153.941548 
L 195.62441 151.361919 
L 197.53145 149.148967 
L 199.438491 147.356547 
L 200.709844 146.408876 
L 201.981204 145.650757 
L 203.252564 145.070499 
L 205.159609 144.49512 
L 207.06665 144.206971 
L 209.60937 144.140319 
L 212.787769 144.370286 
L 217.237528 144.956896 
L 224.86569 146.240819 
L 233.129527 147.878623 
L 252.199933 151.847907 
L 255.378334 152.256471 
L 258.556734 152.47355 
L 261.735129 152.471525 
L 264.913529 152.25684 
L 269.998975 151.666363 
L 273.177376 151.402333 
L 275.084415 151.442288 
L 276.991454 151.737802 
L 278.262815 152.137345 
L 279.534177 152.73132 
L 280.805538 153.555078 
L 282.076899 154.645075 
L 283.348261 156.02893 
L 284.619622 157.730578 
L 285.890984 159.768799 
L 287.162333 162.1528 
L 288.433701 164.861222 
L 290.340734 169.539004 
L 292.247779 174.860105 
L 294.790502 182.736072 
L 298.60458 195.489408 
L 303.690025 212.524666 
L 306.868426 222.510293 
L 310.046826 231.853337 
L 311.318182 235.413503 
L 311.318182 235.413503 
" clip-path="url(#pcd815d17d0)" style="fill: none; stroke: #d62728; stroke-width: 1.5; stroke-linecap: square"/>
   </g>
   <g id="line2d_18">
    <path d="M 57.681818 147.747713 
L 59.588863 149.817971 
L 61.495896 152.249291 
L 63.402942 155.073525 
L 65.309987 158.311388 
L 67.21702 161.963339 
L 69.759743 167.400345 
L 77.387899 184.61687 
L 78.659254 186.918384 
L 79.930622 188.839596 
L 81.201977 190.319102 
L 82.473333 191.291906 
L 83.109022 191.578951 
L 83.7447 191.729562 
L 84.380384 191.74199 
L 85.016061 191.622864 
L 85.651745 191.363069 
L 86.287423 190.9789 
L 87.558784 189.835784 
L 88.83014 188.262561 
L 90.101501 186.323949 
L 92.00854 182.928847 
L 99.001025 169.648372 
L 100.90807 166.726185 
L 102.815109 164.322483 
L 104.086458 163.028664 
L 105.35782 161.984513 
L 106.629181 161.192608 
L 107.900543 160.638035 
L 109.171904 160.32061 
L 110.443266 160.223762 
L 111.714627 160.339206 
L 112.985988 160.647609 
L 114.257344 161.139213 
L 116.164389 162.194043 
L 118.071428 163.572742 
L 119.978467 165.222652 
L 122.521184 167.747137 
L 126.970946 172.610697 
L 130.149352 175.974959 
L 132.692069 178.306485 
L 134.599111 179.711514 
L 135.87047 180.447446 
L 137.141831 180.991524 
L 138.413193 181.335462 
L 139.684551 181.461033 
L 140.955909 181.363265 
L 142.227271 181.039211 
L 143.498632 180.483534 
L 144.769991 179.718694 
L 146.041349 178.738618 
L 147.948391 176.914161 
L 149.85543 174.725329 
L 152.39815 171.375981 
L 156.212234 165.827674 
L 161.297675 158.424898 
L 164.476068 154.267995 
L 167.018788 151.371217 
L 168.925829 149.493549 
L 170.832874 147.893905 
L 172.739914 146.592905 
L 174.64696 145.593127 
L 176.554 144.896965 
L 178.46104 144.48214 
L 180.368073 144.333646 
L 182.275114 144.397352 
L 184.817839 144.722602 
L 190.538964 145.63391 
L 192.446005 145.72551 
L 194.353045 145.621113 
L 196.26009 145.277175 
L 198.167131 144.686698 
L 200.074164 143.855023 
L 201.981204 142.801482 
L 204.523924 141.130858 
L 207.702329 138.746305 
L 216.60185 131.913017 
L 219.780251 129.807315 
L 222.958648 127.944515 
L 228.044088 125.28355 
L 231.858169 123.245513 
L 235.036569 121.293737 
L 237.579292 119.472595 
L 240.122015 117.387883 
L 242.664732 115.04669 
L 246.47881 111.166613 
L 252.835611 104.545524 
L 255.378334 102.19577 
L 257.921051 100.168964 
L 259.82809 98.883062 
L 261.735129 97.807794 
L 264.277852 96.638441 
L 268.091936 95.248326 
L 272.541698 93.605966 
L 275.084415 92.435139 
L 278.262815 90.696115 
L 283.348261 87.800994 
L 285.2553 86.963979 
L 287.162333 86.401673 
L 288.433701 86.212028 
L 289.705056 86.202822 
L 290.976411 86.357852 
L 292.883456 86.921263 
L 294.790502 87.832663 
L 296.697535 89.016562 
L 299.875935 91.363002 
L 304.325703 94.684547 
L 306.868426 96.254732 
L 308.775471 97.174602 
L 310.682504 97.833756 
L 311.318182 97.992836 
L 311.318182 97.992836 
" clip-path="url(#pcd815d17d0)" style="fill: none; stroke: #9467bd; stroke-width: 1.5; stroke-linecap: square"/>
   </g>
   <g id="line2d_19">
    <path d="M 57.681818 161.33033 
L 60.860219 162.010474 
L 64.038619 162.90162 
L 67.852697 164.239076 
L 74.845188 166.825794 
L 76.752221 167.30184 
L 78.659254 167.550679 
L 80.566299 167.504925 
L 81.837655 167.293738 
L 83.109022 166.924207 
L 85.016061 166.075133 
L 86.923101 164.917287 
L 88.83014 163.498265 
L 92.00854 160.814055 
L 96.458302 157.052275 
L 99.001025 155.198543 
L 101.543748 153.676046 
L 103.450781 152.772931 
L 105.35782 152.067747 
L 107.264859 151.556075 
L 109.807588 151.159109 
L 112.350305 151.046427 
L 114.893027 151.18415 
L 117.435744 151.545211 
L 119.978467 152.098495 
L 123.156868 153.013762 
L 126.970946 154.391909 
L 131.420714 156.304559 
L 135.87047 158.430238 
L 153.669511 167.18299 
L 156.847915 168.397084 
L 159.390635 169.148115 
L 161.297675 169.532928 
L 163.204716 169.71889 
L 165.111749 169.66973 
L 167.018788 169.341442 
L 168.925829 168.701068 
L 170.832874 167.705341 
L 172.739914 166.345422 
L 174.64696 164.596271 
L 176.554 162.467647 
L 178.46104 159.973173 
L 180.368073 157.147558 
L 182.910794 152.957605 
L 186.724879 146.112533 
L 191.174644 138.197532 
L 193.717365 134.224013 
L 195.62441 131.695938 
L 197.53145 129.645933 
L 198.802811 128.570021 
L 200.074164 127.728771 
L 201.345524 127.122829 
L 202.616884 126.734517 
L 203.888245 126.552698 
L 205.159609 126.548831 
L 207.06665 126.828695 
L 208.973691 127.387319 
L 211.51641 128.436533 
L 214.694811 130.092243 
L 217.873208 132.042546 
L 221.051609 134.300286 
L 223.594329 136.361522 
L 226.137049 138.682645 
L 228.679768 141.265819 
L 231.222488 144.111504 
L 234.400889 148.008152 
L 238.214976 153.084372 
L 244.571771 162.070958 
L 249.021533 168.220973 
L 252.199933 172.209865 
L 254.74265 175.01311 
L 256.649689 176.843827 
L 258.556734 178.423586 
L 260.463774 179.751284 
L 262.370813 180.841281 
L 264.913529 181.992407 
L 268.091936 183.099895 
L 275.084415 185.397912 
L 278.262815 186.730028 
L 287.162333 190.673167 
L 289.705056 191.398604 
L 291.612101 191.707559 
L 293.519146 191.803671 
L 295.426179 191.633911 
L 297.333212 191.216324 
L 299.240257 190.501566 
L 301.14729 189.478589 
L 303.054336 188.126035 
L 304.961381 186.411867 
L 306.868426 184.327247 
L 308.775471 181.83351 
L 310.682504 178.920713 
L 311.318182 177.85723 
L 311.318182 177.85723 
" clip-path="url(#pcd815d17d0)" style="fill: none; stroke: #8c564b; stroke-width: 1.5; stroke-linecap: square"/>
   </g>
   <g id="line2d_20">
    <path d="M 57.681818 182.42325 
L 59.588863 181.009936 
L 61.495896 179.364814 
L 63.402942 177.469102 
L 65.309987 175.311294 
L 67.852697 172.053178 
L 71.031098 167.519747 
L 74.845188 162.055215 
L 76.752221 159.697636 
L 78.023577 158.405612 
L 79.294932 157.403394 
L 80.566299 156.75225 
L 81.837655 156.495033 
L 83.109022 156.660373 
L 84.380384 157.257939 
L 85.651745 158.279259 
L 86.923101 159.71034 
L 88.194462 161.493185 
L 90.101501 164.712728 
L 92.644224 169.65813 
L 97.729663 179.751652 
L 99.636709 183.067306 
L 101.543748 185.954326 
L 103.450781 188.36171 
L 104.722142 189.69622 
L 105.993504 190.814756 
L 107.264859 191.722105 
L 108.536226 192.426921 
L 109.807588 192.945406 
L 111.078949 193.283084 
L 112.350305 193.464259 
L 114.257344 193.454317 
L 116.164389 193.16138 
L 118.071428 192.636267 
L 120.614145 191.65932 
L 123.792545 190.15284 
L 132.056391 186.048964 
L 134.599111 185.049186 
L 137.141831 184.279928 
L 139.684551 183.760706 
L 142.227271 183.504594 
L 144.769991 183.487655 
L 147.31271 183.680429 
L 150.491111 184.129501 
L 155.576557 185.083985 
L 161.297675 186.116721 
L 165.747428 186.69928 
L 169.561514 187.001607 
L 174.011274 187.116498 
L 178.46104 186.993874 
L 187.996239 186.584296 
L 191.174644 186.710695 
L 194.353045 187.059421 
L 198.802811 187.814686 
L 205.159609 188.890414 
L 208.33801 189.208023 
L 211.51641 189.272005 
L 214.05913 189.10022 
L 216.60185 188.683093 
L 218.508889 188.183757 
L 220.415928 187.50214 
L 222.322967 186.622547 
L 224.230009 185.532642 
L 226.137049 184.215347 
L 228.044088 182.658465 
L 229.95113 180.863744 
L 232.493847 178.087105 
L 235.036569 174.884041 
L 237.579292 171.284288 
L 240.757693 166.291199 
L 244.571771 159.77957 
L 251.56425 147.687229 
L 254.106973 143.719878 
L 256.649689 140.188987 
L 258.556734 137.86906 
L 260.463774 135.845753 
L 263.00649 133.564676 
L 265.549213 131.647974 
L 273.177376 126.269795 
L 275.720098 123.981169 
L 278.262815 121.286004 
L 281.441222 117.464017 
L 285.890984 112.029865 
L 287.798011 110.053509 
L 289.705056 108.46307 
L 290.976411 107.686447 
L 292.247779 107.144026 
L 293.519146 106.868581 
L 294.790502 106.841331 
L 296.061857 107.068536 
L 297.333212 107.533258 
L 298.60458 108.212297 
L 300.511613 109.570743 
L 302.418658 111.264289 
L 304.961381 113.864448 
L 309.411149 118.777169 
L 311.318182 120.860684 
L 311.318182 120.860684 
" clip-path="url(#pcd815d17d0)" style="fill: none; stroke: #e377c2; stroke-width: 1.5; stroke-linecap: square"/>
   </g>
   <g id="line2d_21">
    <path d="M 57.681818 178.495946 
L 60.860219 179.81499 
L 63.402942 181.087083 
L 65.945664 182.563735 
L 69.124053 184.692267 
L 72.938143 187.557008 
L 78.023577 191.41071 
L 80.566299 193.05818 
L 82.473333 194.073977 
L 84.380384 194.861923 
L 86.287423 195.396887 
L 88.194462 195.701976 
L 90.101501 195.791459 
L 92.644224 195.62934 
L 95.186941 195.23035 
L 98.365347 194.466799 
L 101.543748 193.465548 
L 104.722142 192.239854 
L 108.536226 190.47984 
L 112.350305 188.44972 
L 118.071428 185.137932 
L 125.699584 180.765607 
L 131.420714 177.788736 
L 137.777512 174.760128 
L 147.31271 170.516687 
L 155.576557 167.182805 
L 158.754957 166.130001 
L 161.297675 165.468453 
L 163.840395 165.032823 
L 165.747428 164.898414 
L 167.654469 164.957885 
L 169.561514 165.241248 
L 171.468555 165.771333 
L 173.375594 166.566368 
L 175.28264 167.626353 
L 177.18968 168.948159 
L 179.09672 170.513373 
L 181.639433 172.923519 
L 184.817839 176.293857 
L 190.538964 182.450776 
L 193.081685 184.778068 
L 194.98873 186.206572 
L 196.895771 187.303105 
L 198.802811 188.042075 
L 200.074164 188.335933 
L 201.981204 188.492988 
L 203.888245 188.349282 
L 205.79529 187.964653 
L 208.33801 187.191896 
L 211.51641 185.988204 
L 231.222488 178.120523 
L 234.400889 177.148087 
L 236.943615 176.54196 
L 239.486331 176.131462 
L 242.029054 175.953417 
L 244.571771 176.037468 
L 246.47881 176.276457 
L 249.021533 176.845208 
L 251.56425 177.698057 
L 254.106973 178.833624 
L 256.649689 180.248227 
L 259.192412 181.966814 
L 261.099451 183.476791 
L 263.00649 185.216184 
L 264.913529 187.221447 
L 266.820575 189.547634 
L 268.72762 192.237092 
L 270.634659 195.329959 
L 272.541698 198.844096 
L 274.448737 202.759064 
L 276.991454 208.472896 
L 282.712583 221.626511 
L 284.619622 225.321454 
L 285.890984 227.38177 
L 287.162333 229.055063 
L 288.433701 230.301564 
L 289.705056 231.080396 
L 290.340734 231.300605 
L 291.612101 231.385669 
L 292.883456 231.007116 
L 294.154824 230.211712 
L 295.426179 229.036283 
L 296.697535 227.530908 
L 298.60458 224.805179 
L 301.14729 220.624524 
L 306.232736 212.066572 
L 308.139781 209.233316 
L 310.046826 206.75394 
L 311.318182 205.328106 
L 311.318182 205.328106 
" clip-path="url(#pcd815d17d0)" style="fill: none; stroke: #7f7f7f; stroke-width: 1.5; stroke-linecap: square"/>
   </g>
   <g id="line2d_22">
    <path d="M 57.681818 155.252491 
L 60.224541 156.569694 
L 62.767264 158.201928 
L 65.309987 160.172853 
L 67.852697 162.457704 
L 71.666776 166.26045 
L 74.845188 169.316954 
L 76.752221 170.819474 
L 78.023577 171.585004 
L 79.294932 172.104088 
L 80.566299 172.339947 
L 81.837655 172.258565 
L 83.109022 171.839322 
L 84.380384 171.080834 
L 85.651745 169.992126 
L 86.923101 168.598789 
L 88.83014 166.023487 
L 91.372862 161.960761 
L 97.09398 152.443907 
L 99.001025 149.716336 
L 100.90807 147.385178 
L 102.815109 145.484127 
L 104.086458 144.460966 
L 105.35782 143.635919 
L 107.264859 142.739433 
L 109.171904 142.222421 
L 111.078949 142.037563 
L 112.985988 142.122259 
L 114.893027 142.426427 
L 117.435744 143.0784 
L 121.249829 144.354175 
L 134.599111 148.977089 
L 138.413193 150.354316 
L 142.227271 151.96556 
L 145.405671 153.551027 
L 149.219749 155.724762 
L 154.940876 159.29303 
L 159.390635 161.966469 
L 162.569035 163.625953 
L 165.111749 164.728839 
L 167.654469 165.594945 
L 170.197195 166.205674 
L 172.739914 166.552559 
L 175.28264 166.654194 
L 177.82536 166.53875 
L 181.003753 166.131474 
L 184.182154 165.511538 
L 188.631919 164.361333 
L 192.446005 163.182037 
L 201.345524 160.321715 
L 203.888245 159.812343 
L 206.430969 159.57989 
L 208.973691 159.642584 
L 211.51641 159.990297 
L 214.05913 160.582614 
L 216.60185 161.382529 
L 219.780251 162.625991 
L 222.958648 164.113276 
L 226.137049 165.828088 
L 229.95113 168.194367 
L 233.765208 170.893859 
L 237.579292 173.884079 
L 248.385855 182.601295 
L 250.928572 184.234174 
L 252.835611 185.23478 
L 254.74265 186.012508 
L 256.649689 186.541488 
L 258.556734 186.815829 
L 260.463774 186.838107 
L 262.370813 186.63005 
L 264.277852 186.224431 
L 266.820575 185.43805 
L 270.634659 183.936542 
L 281.441222 179.336091 
L 283.983945 178.029567 
L 285.890984 176.858925 
L 287.798011 175.479121 
L 290.340734 173.287711 
L 292.883456 170.696389 
L 296.061857 167.088351 
L 301.78298 160.529219 
L 304.325703 158.007496 
L 306.232736 156.395699 
L 308.139781 155.050142 
L 310.046826 153.977452 
L 311.318182 153.435399 
L 311.318182 153.435399 
" clip-path="url(#pcd815d17d0)" style="fill: none; stroke: #bcbd22; stroke-width: 1.5; stroke-linecap: square"/>
   </g>
   <g id="line2d_23">
    <path d="M 57.681818 170.825458 
L 60.224541 169.57325 
L 62.767264 168.057013 
L 65.309987 166.272787 
L 68.488375 163.723445 
L 74.845188 158.486947 
L 76.752221 157.280125 
L 78.023577 156.681317 
L 79.294932 156.283938 
L 80.566299 156.116111 
L 81.837655 156.193994 
L 83.109022 156.530568 
L 84.380384 157.128133 
L 85.651745 157.960729 
L 86.923101 159.011601 
L 88.83014 160.918727 
L 91.372862 163.85905 
L 96.458302 169.829363 
L 98.365347 171.773866 
L 100.272386 173.456182 
L 102.179425 174.848874 
L 104.086458 175.956731 
L 105.993504 176.793009 
L 107.900543 177.375569 
L 109.807588 177.732395 
L 111.714627 177.886873 
L 114.257344 177.838081 
L 116.800067 177.558769 
L 119.978467 176.955772 
L 124.428223 175.828951 
L 133.963431 173.28992 
L 137.141831 172.673851 
L 140.320232 172.274676 
L 143.498632 172.127195 
L 146.67703 172.207656 
L 151.126789 172.622849 
L 158.754957 173.437769 
L 161.297675 173.496136 
L 163.840395 173.342211 
L 166.383109 172.949296 
L 168.925829 172.30524 
L 172.104235 171.189098 
L 181.003753 167.692821 
L 182.910794 167.260136 
L 184.817839 167.065704 
L 186.724879 167.146534 
L 188.631919 167.519011 
L 190.538964 168.174942 
L 192.446005 169.082199 
L 194.98873 170.571003 
L 202.616884 175.313964 
L 205.159609 176.557979 
L 207.702329 177.571013 
L 210.245049 178.360985 
L 212.787769 178.950081 
L 215.330489 179.336919 
L 217.873208 179.50898 
L 220.415928 179.434872 
L 222.958648 179.086468 
L 224.86569 178.633254 
L 227.408407 177.768759 
L 229.95113 176.607783 
L 232.493847 175.170626 
L 235.036569 173.494847 
L 238.214976 171.124563 
L 242.664732 167.486237 
L 247.750171 163.324547 
L 250.292894 161.453968 
L 252.835611 159.853679 
L 254.74265 158.880414 
L 256.649689 158.127911 
L 258.556734 157.608689 
L 260.463774 157.321644 
L 262.370813 157.242472 
L 264.913529 157.388296 
L 273.813059 158.286623 
L 276.355776 158.200823 
L 280.169854 157.768507 
L 283.983945 157.360126 
L 286.526655 157.346501 
L 289.069378 157.603534 
L 292.247779 158.230282 
L 296.697535 159.133581 
L 298.60458 159.331695 
L 300.511613 159.327644 
L 302.418658 159.087919 
L 304.325703 158.600366 
L 306.232736 157.864986 
L 308.139781 156.883988 
L 310.046826 155.664002 
L 311.318182 154.731612 
L 311.318182 154.731612 
" clip-path="url(#pcd815d17d0)" style="fill: none; stroke: #17becf; stroke-width: 1.5; stroke-linecap: square"/>
   </g>
   <g id="patch_3">
    <path d="M 45 320.4 
L 45 43.2 
" style="fill: none; stroke: #000000; stroke-width: 0.8; stroke-linejoin: miter; stroke-linecap: square"/>
   </g>
   <g id="patch_4">
    <path d="M 324 320.4 
L 324 43.2 
" style="fill: none; stroke: #000000; stroke-width: 0.8; stroke-linejoin: miter; stroke-linecap: square"/>
   </g>
   <g id="patch_5">
    <path d="M 45 320.4 
L 324 320.4 
" style="fill: none; stroke: #000000; stroke-width: 0.8; stroke-linejoin: miter; stroke-linecap: square"/>
   </g>
   <g id="patch_6">
    <path d="M 45 43.2 
L 324 43.2 
" style="fill: none; stroke: #000000; stroke-width: 0.8; stroke-linejoin: miter; stroke-linecap: square"/>
   </g>
   <g id="text_14">
    <!-- Deviation from average for single draw -->
    <g transform="translate(66.87 37.2)scale(0.12 -0.12)">
     <defs>
      <path id="DejaVuSans-44" d="M 1259 4147 
L 1259 519 
L 2022 519 
Q 2988 519 3436 956 
Q 3884 1394 3884 2338 
Q 3884 3275 3436 3711 
Q 2988 4147 2022 4147 
L 1259 4147 
z
M 628 4666 
L 1925 4666 
Q 3281 4666 3915 4102 
Q 4550 3538 4550 2338 
Q 4550 1131 3912 565 
Q 3275 0 1925 0 
L 628 0 
L 628 4666 
z
" transform="scale(0.015625)"/>
      <path id="DejaVuSans-65" d="M 3597 1894 
L 3597 1613 
L 953 1613 
Q 991 1019 1311 708 
Q 1631 397 2203 397 
Q 2534 397 2845 478 
Q 3156 559 3463 722 
L 3463 178 
Q 3153 47 2828 -22 
Q 2503 -91 2169 -91 
Q 1331 -91 842 396 
Q 353 884 353 1716 
Q 353 2575 817 3079 
Q 1281 3584 2069 3584 
Q 2775 3584 3186 3129 
Q 3597 2675 3597 1894 
z
M 3022 2063 
Q 3016 2534 2758 2815 
Q 2500 3097 2075 3097 
Q 1594 3097 1305 2825 
Q 1016 2553 972 2059 
L 3022 2063 
z
" transform="scale(0.015625)"/>
      <path id="DejaVuSans-76" d="M 191 3500 
L 800 3500 
L 1894 563 
L 2988 3500 
L 3597 3500 
L 2284 0 
L 1503 0 
L 191 3500 
z
" transform="scale(0.015625)"/>
      <path id="DejaVuSans-69" d="M 603 3500 
L 1178 3500 
L 1178 0 
L 603 0 
L 603 3500 
z
M 603 4863 
L 1178 4863 
L 1178 4134 
L 603 4134 
L 603 4863 
z
" transform="scale(0.015625)"/>
      <path id="DejaVuSans-61" d="M 2194 1759 
Q 1497 1759 1228 1600 
Q 959 1441 959 1056 
Q 959 750 1161 570 
Q 1363 391 1709 391 
Q 2188 391 2477 730 
Q 2766 1069 2766 1631 
L 2766 1759 
L 2194 1759 
z
M 3341 1997 
L 3341 0 
L 2766 0 
L 2766 531 
Q 2569 213 2275 61 
Q 1981 -91 1556 -91 
Q 1019 -91 701 211 
Q 384 513 384 1019 
Q 384 1609 779 1909 
Q 1175 2209 1959 2209 
L 2766 2209 
L 2766 2266 
Q 2766 2663 2505 2880 
Q 2244 3097 1772 3097 
Q 1472 3097 1187 3025 
Q 903 2953 641 2809 
L 641 3341 
Q 956 3463 1253 3523 
Q 1550 3584 1831 3584 
Q 2591 3584 2966 3190 
Q 3341 2797 3341 1997 
z
" transform="scale(0.015625)"/>
      <path id="DejaVuSans-74" d="M 1172 4494 
L 1172 3500 
L 2356 3500 
L 2356 3053 
L 1172 3053 
L 1172 1153 
Q 1172 725 1289 603 
Q 1406 481 1766 481 
L 2356 481 
L 2356 0 
L 1766 0 
Q 1100 0 847 248 
Q 594 497 594 1153 
L 594 3053 
L 172 3053 
L 172 3500 
L 594 3500 
L 594 4494 
L 1172 4494 
z
" transform="scale(0.015625)"/>
      <path id="DejaVuSans-6f" d="M 1959 3097 
Q 1497 3097 1228 2736 
Q 959 2375 959 1747 
Q 959 1119 1226 758 
Q 1494 397 1959 397 
Q 2419 397 2687 759 
Q 2956 1122 2956 1747 
Q 2956 2369 2687 2733 
Q 2419 3097 1959 3097 
z
M 1959 3584 
Q 2709 3584 3137 3096 
Q 3566 2609 3566 1747 
Q 3566 888 3137 398 
Q 2709 -91 1959 -91 
Q 1206 -91 779 398 
Q 353 888 353 1747 
Q 353 2609 779 3096 
Q 1206 3584 1959 3584 
z
" transform="scale(0.015625)"/>
      <path id="DejaVuSans-6e" d="M 3513 2113 
L 3513 0 
L 2938 0 
L 2938 2094 
Q 2938 2591 2744 2837 
Q 2550 3084 2163 3084 
Q 1697 3084 1428 2787 
Q 1159 2491 1159 1978 
L 1159 0 
L 581 0 
L 581 3500 
L 1159 3500 
L 1159 2956 
Q 1366 3272 1645 3428 
Q 1925 3584 2291 3584 
Q 2894 3584 3203 3211 
Q 3513 2838 3513 2113 
z
" transform="scale(0.015625)"/>
      <path id="DejaVuSans-20" transform="scale(0.015625)"/>
      <path id="DejaVuSans-66" d="M 2375 4863 
L 2375 4384 
L 1825 4384 
Q 1516 4384 1395 4259 
Q 1275 4134 1275 3809 
L 1275 3500 
L 2222 3500 
L 2222 3053 
L 1275 3053 
L 1275 0 
L 697 0 
L 697 3053 
L 147 3053 
L 147 3500 
L 697 3500 
L 697 3744 
Q 697 4328 969 4595 
Q 1241 4863 1831 4863 
L 2375 4863 
z
" transform="scale(0.015625)"/>
      <path id="DejaVuSans-72" d="M 2631 2963 
Q 2534 3019 2420 3045 
Q 2306 3072 2169 3072 
Q 1681 3072 1420 2755 
Q 1159 2438 1159 1844 
L 1159 0 
L 581 0 
L 581 3500 
L 1159 3500 
L 1159 2956 
Q 1341 3275 1631 3429 
Q 1922 3584 2338 3584 
Q 2397 3584 2469 3576 
Q 2541 3569 2628 3553 
L 2631 2963 
z
" transform="scale(0.015625)"/>
      <path id="DejaVuSans-6d" d="M 3328 2828 
Q 3544 3216 3844 3400 
Q 4144 3584 4550 3584 
Q 5097 3584 5394 3201 
Q 5691 2819 5691 2113 
L 5691 0 
L 5113 0 
L 5113 2094 
Q 5113 2597 4934 2840 
Q 4756 3084 4391 3084 
Q 3944 3084 3684 2787 
Q 3425 2491 3425 1978 
L 3425 0 
L 2847 0 
L 2847 2094 
Q 2847 2600 2669 2842 
Q 2491 3084 2119 3084 
Q 1678 3084 1418 2786 
Q 1159 2488 1159 1978 
L 1159 0 
L 581 0 
L 581 3500 
L 1159 3500 
L 1159 2956 
Q 1356 3278 1631 3431 
Q 1906 3584 2284 3584 
Q 2666 3584 2933 3390 
Q 3200 3197 3328 2828 
z
" transform="scale(0.015625)"/>
      <path id="DejaVuSans-67" d="M 2906 1791 
Q 2906 2416 2648 2759 
Q 2391 3103 1925 3103 
Q 1463 3103 1205 2759 
Q 947 2416 947 1791 
Q 947 1169 1205 825 
Q 1463 481 1925 481 
Q 2391 481 2648 825 
Q 2906 1169 2906 1791 
z
M 3481 434 
Q 3481 -459 3084 -895 
Q 2688 -1331 1869 -1331 
Q 1566 -1331 1297 -1286 
Q 1028 -1241 775 -1147 
L 775 -588 
Q 1028 -725 1275 -790 
Q 1522 -856 1778 -856 
Q 2344 -856 2625 -561 
Q 2906 -266 2906 331 
L 2906 616 
Q 2728 306 2450 153 
Q 2172 0 1784 0 
Q 1141 0 747 490 
Q 353 981 353 1791 
Q 353 2603 747 3093 
Q 1141 3584 1784 3584 
Q 2172 3584 2450 3431 
Q 2728 3278 2906 2969 
L 2906 3500 
L 3481 3500 
L 3481 434 
z
" transform="scale(0.015625)"/>
      <path id="DejaVuSans-73" d="M 2834 3397 
L 2834 2853 
Q 2591 2978 2328 3040 
Q 2066 3103 1784 3103 
Q 1356 3103 1142 2972 
Q 928 2841 928 2578 
Q 928 2378 1081 2264 
Q 1234 2150 1697 2047 
L 1894 2003 
Q 2506 1872 2764 1633 
Q 3022 1394 3022 966 
Q 3022 478 2636 193 
Q 2250 -91 1575 -91 
Q 1294 -91 989 -36 
Q 684 19 347 128 
L 347 722 
Q 666 556 975 473 
Q 1284 391 1588 391 
Q 1994 391 2212 530 
Q 2431 669 2431 922 
Q 2431 1156 2273 1281 
Q 2116 1406 1581 1522 
L 1381 1569 
Q 847 1681 609 1914 
Q 372 2147 372 2553 
Q 372 3047 722 3315 
Q 1072 3584 1716 3584 
Q 2034 3584 2315 3537 
Q 2597 3491 2834 3397 
z
" transform="scale(0.015625)"/>
      <path id="DejaVuSans-6c" d="M 603 4863 
L 1178 4863 
L 1178 0 
L 603 0 
L 603 4863 
z
" transform="scale(0.015625)"/>
      <path id="DejaVuSans-64" d="M 2906 2969 
L 2906 4863 
L 3481 4863 
L 3481 0 
L 2906 0 
L 2906 525 
Q 2725 213 2448 61 
Q 2172 -91 1784 -91 
Q 1150 -91 751 415 
Q 353 922 353 1747 
Q 353 2572 751 3078 
Q 1150 3584 1784 3584 
Q 2172 3584 2448 3432 
Q 2725 3281 2906 2969 
z
M 947 1747 
Q 947 1113 1208 752 
Q 1469 391 1925 391 
Q 2381 391 2643 752 
Q 2906 1113 2906 1747 
Q 2906 2381 2643 2742 
Q 2381 3103 1925 3103 
Q 1469 3103 1208 2742 
Q 947 2381 947 1747 
z
" transform="scale(0.015625)"/>
      <path id="DejaVuSans-77" d="M 269 3500 
L 844 3500 
L 1563 769 
L 2278 3500 
L 2956 3500 
L 3675 769 
L 4391 3500 
L 4966 3500 
L 4050 0 
L 3372 0 
L 2619 2869 
L 1863 0 
L 1184 0 
L 269 3500 
z
" transform="scale(0.015625)"/>
     </defs>
     <use xlink:href="#DejaVuSans-44"/>
     <use xlink:href="#DejaVuSans-65" x="77.001953"/>
     <use xlink:href="#DejaVuSans-76" x="138.525391"/>
     <use xlink:href="#DejaVuSans-69" x="197.705078"/>
     <use xlink:href="#DejaVuSans-61" x="225.488281"/>
     <use xlink:href="#DejaVuSans-74" x="286.767578"/>
     <use xlink:href="#DejaVuSans-69" x="325.976562"/>
     <use xlink:href="#DejaVuSans-6f" x="353.759766"/>
     <use xlink:href="#DejaVuSans-6e" x="414.941406"/>
     <use xlink:href="#DejaVuSans-20" x="478.320312"/>
     <use xlink:href="#DejaVuSans-66" x="510.107422"/>
     <use xlink:href="#DejaVuSans-72" x="545.3125"/>
     <use xlink:href="#DejaVuSans-6f" x="584.175781"/>
     <use xlink:href="#DejaVuSans-6d" x="645.357422"/>
     <use xlink:href="#DejaVuSans-20" x="742.769531"/>
     <use xlink:href="#DejaVuSans-61" x="774.556641"/>
     <use xlink:href="#DejaVuSans-76" x="835.835938"/>
     <use xlink:href="#DejaVuSans-65" x="895.015625"/>
     <use xlink:href="#DejaVuSans-72" x="956.539062"/>
     <use xlink:href="#DejaVuSans-61" x="997.652344"/>
     <use xlink:href="#DejaVuSans-67" x="1058.931641"/>
     <use xlink:href="#DejaVuSans-65" x="1122.408203"/>
     <use xlink:href="#DejaVuSans-20" x="1183.931641"/>
     <use xlink:href="#DejaVuSans-66" x="1215.71875"/>
     <use xlink:href="#DejaVuSans-6f" x="1250.923828"/>
     <use xlink:href="#DejaVuSans-72" x="1312.105469"/>
     <use xlink:href="#DejaVuSans-20" x="1353.21875"/>
     <use xlink:href="#DejaVuSans-73" x="1385.005859"/>
     <use xlink:href="#DejaVuSans-69" x="1437.105469"/>
     <use xlink:href="#DejaVuSans-6e" x="1464.888672"/>
     <use xlink:href="#DejaVuSans-67" x="1528.267578"/>
     <use xlink:href="#DejaVuSans-6c" x="1591.744141"/>
     <use xlink:href="#DejaVuSans-65" x="1619.527344"/>
     <use xlink:href="#DejaVuSans-20" x="1681.050781"/>
     <use xlink:href="#DejaVuSans-64" x="1712.837891"/>
     <use xlink:href="#DejaVuSans-72" x="1776.314453"/>
     <use xlink:href="#DejaVuSans-61" x="1817.427734"/>
     <use xlink:href="#DejaVuSans-77" x="1878.707031"/>
    </g>
   </g>
  </g>
 </g>
 <defs>
  <clipPath id="pcd815d17d0">
   <rect x="45" y="43.2" width="279" height="277.2"/>
  </clipPath>
 </defs>
</svg>
