<?xml version="1.0" encoding="utf-8" standalone="no"?>
<!DOCTYPE svg PUBLIC "-//W3C//DTD SVG 1.1//EN"
  "http://www.w3.org/Graphics/SVG/1.1/DTD/svg11.dtd">
<svg xmlns:xlink="http://www.w3.org/1999/xlink" width="360pt" height="360pt" viewBox="0 0 360 360" xmlns="http://www.w3.org/2000/svg" version="1.1">
 <metadata>
  <rdf:RDF xmlns:dc="http://purl.org/dc/elements/1.1/" xmlns:cc="http://creativecommons.org/ns#" xmlns:rdf="http://www.w3.org/1999/02/22-rdf-syntax-ns#">
   <cc:Work>
    <dc:type rdf:resource="http://purl.org/dc/dcmitype/StillImage"/>
    <dc:date>2022-11-16T09:24:25.601574</dc:date>
    <dc:format>image/svg+xml</dc:format>
    <dc:creator>
     <cc:Agent>
      <dc:title>Matplotlib v3.5.3, https://matplotlib.org/</dc:title>
     </cc:Agent>
    </dc:creator>
   </cc:Work>
  </rdf:RDF>
 </metadata>
 <defs>
  <style type="text/css">*{stroke-linejoin: round; stroke-linecap: butt}</style>
 </defs>
 <g id="figure_1">
  <g id="patch_1">
   <path d="M 0 360 
L 360 360 
L 360 0 
L 0 0 
z
" style="fill: #ffffff"/>
  </g>
  <g id="axes_1">
   <g id="patch_2">
    <path d="M 45 320.4 
L 324 320.4 
L 324 43.2 
L 45 43.2 
z
" style="fill: #ffffff"/>
   </g>
   <g id="matplotlib.axis_1">
    <g id="xtick_1">
     <g id="line2d_1">
      <defs>
       <path id="mee99411bf4" d="M 0 0 
L 0 3.5 
" style="stroke: #000000; stroke-width: 0.8"/>
      </defs>
      <g>
       <use xlink:href="#mee99411bf4" x="83.045455" y="320.4" style="stroke: #000000; stroke-width: 0.8"/>
      </g>
     </g>
     <g id="text_1">
      <!-- −2 -->
      <g transform="translate(75.674361 334.998438)scale(0.1 -0.1)">
       <defs>
        <path id="DejaVuSans-2212" d="M 678 2272 
L 4684 2272 
L 4684 1741 
L 678 1741 
L 678 2272 
z
" transform="scale(0.015625)"/>
        <path id="DejaVuSans-32" d="M 1228 531 
L 3431 531 
L 3431 0 
L 469 0 
L 469 531 
Q 828 903 1448 1529 
Q 2069 2156 2228 2338 
Q 2531 2678 2651 2914 
Q 2772 3150 2772 3378 
Q 2772 3750 2511 3984 
Q 2250 4219 1831 4219 
Q 1534 4219 1204 4116 
Q 875 4013 500 3803 
L 500 4441 
Q 881 4594 1212 4672 
Q 1544 4750 1819 4750 
Q 2544 4750 2975 4387 
Q 3406 4025 3406 3419 
Q 3406 3131 3298 2873 
Q 3191 2616 2906 2266 
Q 2828 2175 2409 1742 
Q 1991 1309 1228 531 
z
" transform="scale(0.015625)"/>
       </defs>
       <use xlink:href="#DejaVuSans-2212"/>
       <use xlink:href="#DejaVuSans-32" x="83.789062"/>
      </g>
     </g>
    </g>
    <g id="xtick_2">
     <g id="line2d_2">
      <g>
       <use xlink:href="#mee99411bf4" x="133.772727" y="320.4" style="stroke: #000000; stroke-width: 0.8"/>
      </g>
     </g>
     <g id="text_2">
      <!-- −1 -->
      <g transform="translate(126.401634 334.998438)scale(0.1 -0.1)">
       <defs>
        <path id="DejaVuSans-31" d="M 794 531 
L 1825 531 
L 1825 4091 
L 703 3866 
L 703 4441 
L 1819 4666 
L 2450 4666 
L 2450 531 
L 3481 531 
L 3481 0 
L 794 0 
L 794 531 
z
" transform="scale(0.015625)"/>
       </defs>
       <use xlink:href="#DejaVuSans-2212"/>
       <use xlink:href="#DejaVuSans-31" x="83.789062"/>
      </g>
     </g>
    </g>
    <g id="xtick_3">
     <g id="line2d_3">
      <g>
       <use xlink:href="#mee99411bf4" x="184.5" y="320.4" style="stroke: #000000; stroke-width: 0.8"/>
      </g>
     </g>
     <g id="text_3">
      <!-- 0 -->
      <g transform="translate(181.31875 334.998438)scale(0.1 -0.1)">
       <defs>
        <path id="DejaVuSans-30" d="M 2034 4250 
Q 1547 4250 1301 3770 
Q 1056 3291 1056 2328 
Q 1056 1369 1301 889 
Q 1547 409 2034 409 
Q 2525 409 2770 889 
Q 3016 1369 3016 2328 
Q 3016 3291 2770 3770 
Q 2525 4250 2034 4250 
z
M 2034 4750 
Q 2819 4750 3233 4129 
Q 3647 3509 3647 2328 
Q 3647 1150 3233 529 
Q 2819 -91 2034 -91 
Q 1250 -91 836 529 
Q 422 1150 422 2328 
Q 422 3509 836 4129 
Q 1250 4750 2034 4750 
z
" transform="scale(0.015625)"/>
       </defs>
       <use xlink:href="#DejaVuSans-30"/>
      </g>
     </g>
    </g>
    <g id="xtick_4">
     <g id="line2d_4">
      <g>
       <use xlink:href="#mee99411bf4" x="235.227273" y="320.4" style="stroke: #000000; stroke-width: 0.8"/>
      </g>
     </g>
     <g id="text_4">
      <!-- 1 -->
      <g transform="translate(232.046023 334.998438)scale(0.1 -0.1)">
       <use xlink:href="#DejaVuSans-31"/>
      </g>
     </g>
    </g>
    <g id="xtick_5">
     <g id="line2d_5">
      <g>
       <use xlink:href="#mee99411bf4" x="285.954545" y="320.4" style="stroke: #000000; stroke-width: 0.8"/>
      </g>
     </g>
     <g id="text_5">
      <!-- 2 -->
      <g transform="translate(282.773295 334.998438)scale(0.1 -0.1)">
       <use xlink:href="#DejaVuSans-32"/>
      </g>
     </g>
    </g>
   </g>
   <g id="matplotlib.axis_2">
    <g id="ytick_1">
     <g id="line2d_6">
      <defs>
       <path id="mc5f6bd359f" d="M 0 0 
L -3.5 0 
" style="stroke: #000000; stroke-width: 0.8"/>
      </defs>
      <g>
       <use xlink:href="#mc5f6bd359f" x="45" y="299.034436" style="stroke: #000000; stroke-width: 0.8"/>
      </g>
     </g>
     <g id="text_6">
      <!-- $\mathdefault{10^{-3}}$ -->
      <g transform="translate(14.5 302.833655)scale(0.1 -0.1)">
       <defs>
        <path id="DejaVuSans-33" d="M 2597 2516 
Q 3050 2419 3304 2112 
Q 3559 1806 3559 1356 
Q 3559 666 3084 287 
Q 2609 -91 1734 -91 
Q 1441 -91 1130 -33 
Q 819 25 488 141 
L 488 750 
Q 750 597 1062 519 
Q 1375 441 1716 441 
Q 2309 441 2620 675 
Q 2931 909 2931 1356 
Q 2931 1769 2642 2001 
Q 2353 2234 1838 2234 
L 1294 2234 
L 1294 2753 
L 1863 2753 
Q 2328 2753 2575 2939 
Q 2822 3125 2822 3475 
Q 2822 3834 2567 4026 
Q 2313 4219 1838 4219 
Q 1578 4219 1281 4162 
Q 984 4106 628 3988 
L 628 4550 
Q 988 4650 1302 4700 
Q 1616 4750 1894 4750 
Q 2613 4750 3031 4423 
Q 3450 4097 3450 3541 
Q 3450 3153 3228 2886 
Q 3006 2619 2597 2516 
z
" transform="scale(0.015625)"/>
       </defs>
       <use xlink:href="#DejaVuSans-31" transform="translate(0 0.765625)"/>
       <use xlink:href="#DejaVuSans-30" transform="translate(63.623047 0.765625)"/>
       <use xlink:href="#DejaVuSans-2212" transform="translate(128.203125 39.046875)scale(0.7)"/>
       <use xlink:href="#DejaVuSans-33" transform="translate(186.855469 39.046875)scale(0.7)"/>
      </g>
     </g>
    </g>
    <g id="ytick_2">
     <g id="line2d_7">
      <g>
       <use xlink:href="#mc5f6bd359f" x="45" y="239.775343" style="stroke: #000000; stroke-width: 0.8"/>
      </g>
     </g>
     <g id="text_7">
      <!-- $\mathdefault{10^{-2}}$ -->
      <g transform="translate(14.5 243.574561)scale(0.1 -0.1)">
       <use xlink:href="#DejaVuSans-31" transform="translate(0 0.765625)"/>
       <use xlink:href="#DejaVuSans-30" transform="translate(63.623047 0.765625)"/>
       <use xlink:href="#DejaVuSans-2212" transform="translate(128.203125 39.046875)scale(0.7)"/>
       <use xlink:href="#DejaVuSans-32" transform="translate(186.855469 39.046875)scale(0.7)"/>
      </g>
     </g>
    </g>
    <g id="ytick_3">
     <g id="line2d_8">
      <g>
       <use xlink:href="#mc5f6bd359f" x="45" y="180.516249" style="stroke: #000000; stroke-width: 0.8"/>
      </g>
     </g>
     <g id="text_8">
      <!-- $\mathdefault{10^{-1}}$ -->
      <g transform="translate(14.5 184.315468)scale(0.1 -0.1)">
       <use xlink:href="#DejaVuSans-31" transform="translate(0 0.684375)"/>
       <use xlink:href="#DejaVuSans-30" transform="translate(63.623047 0.684375)"/>
       <use xlink:href="#DejaVuSans-2212" transform="translate(128.203125 38.965625)scale(0.7)"/>
       <use xlink:href="#DejaVuSans-31" transform="translate(186.855469 38.965625)scale(0.7)"/>
      </g>
     </g>
    </g>
    <g id="ytick_4">
     <g id="line2d_9">
      <g>
       <use xlink:href="#mc5f6bd359f" x="45" y="121.257156" style="stroke: #000000; stroke-width: 0.8"/>
      </g>
     </g>
     <g id="text_9">
      <!-- $\mathdefault{10^{0}}$ -->
      <g transform="translate(20.4 125.056375)scale(0.1 -0.1)">
       <use xlink:href="#DejaVuSans-31" transform="translate(0 0.765625)"/>
       <use xlink:href="#DejaVuSans-30" transform="translate(63.623047 0.765625)"/>
       <use xlink:href="#DejaVuSans-30" transform="translate(128.203125 39.046875)scale(0.7)"/>
      </g>
     </g>
    </g>
    <g id="ytick_5">
     <g id="line2d_10">
      <g>
       <use xlink:href="#mc5f6bd359f" x="45" y="61.998063" style="stroke: #000000; stroke-width: 0.8"/>
      </g>
     </g>
     <g id="text_10">
      <!-- $\mathdefault{10^{1}}$ -->
      <g transform="translate(20.4 65.797281)scale(0.1 -0.1)">
       <use xlink:href="#DejaVuSans-31" transform="translate(0 0.684375)"/>
       <use xlink:href="#DejaVuSans-30" transform="translate(63.623047 0.684375)"/>
       <use xlink:href="#DejaVuSans-31" transform="translate(128.203125 38.965625)scale(0.7)"/>
      </g>
     </g>
    </g>
    <g id="ytick_6">
     <g id="line2d_11">
      <defs>
       <path id="m498ec87686" d="M 0 0 
L -2 0 
" style="stroke: #000000; stroke-width: 0.6"/>
      </defs>
      <g>
       <use xlink:href="#m498ec87686" x="45" y="316.873201" style="stroke: #000000; stroke-width: 0.6"/>
      </g>
     </g>
    </g>
    <g id="ytick_7">
     <g id="line2d_12">
      <g>
       <use xlink:href="#m498ec87686" x="45" y="312.180992" style="stroke: #000000; stroke-width: 0.6"/>
      </g>
     </g>
    </g>
    <g id="ytick_8">
     <g id="line2d_13">
      <g>
       <use xlink:href="#m498ec87686" x="45" y="308.213786" style="stroke: #000000; stroke-width: 0.6"/>
      </g>
     </g>
    </g>
    <g id="ytick_9">
     <g id="line2d_14">
      <g>
       <use xlink:href="#m498ec87686" x="45" y="304.777236" style="stroke: #000000; stroke-width: 0.6"/>
      </g>
     </g>
    </g>
    <g id="ytick_10">
     <g id="line2d_15">
      <g>
       <use xlink:href="#m498ec87686" x="45" y="301.745983" style="stroke: #000000; stroke-width: 0.6"/>
      </g>
     </g>
    </g>
    <g id="ytick_11">
     <g id="line2d_16">
      <g>
       <use xlink:href="#m498ec87686" x="45" y="281.195671" style="stroke: #000000; stroke-width: 0.6"/>
      </g>
     </g>
    </g>
    <g id="ytick_12">
     <g id="line2d_17">
      <g>
       <use xlink:href="#m498ec87686" x="45" y="270.760663" style="stroke: #000000; stroke-width: 0.6"/>
      </g>
     </g>
    </g>
    <g id="ytick_13">
     <g id="line2d_18">
      <g>
       <use xlink:href="#m498ec87686" x="45" y="263.356907" style="stroke: #000000; stroke-width: 0.6"/>
      </g>
     </g>
    </g>
    <g id="ytick_14">
     <g id="line2d_19">
      <g>
       <use xlink:href="#m498ec87686" x="45" y="257.614107" style="stroke: #000000; stroke-width: 0.6"/>
      </g>
     </g>
    </g>
    <g id="ytick_15">
     <g id="line2d_20">
      <g>
       <use xlink:href="#m498ec87686" x="45" y="252.921898" style="stroke: #000000; stroke-width: 0.6"/>
      </g>
     </g>
    </g>
    <g id="ytick_16">
     <g id="line2d_21">
      <g>
       <use xlink:href="#m498ec87686" x="45" y="248.954692" style="stroke: #000000; stroke-width: 0.6"/>
      </g>
     </g>
    </g>
    <g id="ytick_17">
     <g id="line2d_22">
      <g>
       <use xlink:href="#m498ec87686" x="45" y="245.518142" style="stroke: #000000; stroke-width: 0.6"/>
      </g>
     </g>
    </g>
    <g id="ytick_18">
     <g id="line2d_23">
      <g>
       <use xlink:href="#m498ec87686" x="45" y="242.48689" style="stroke: #000000; stroke-width: 0.6"/>
      </g>
     </g>
    </g>
    <g id="ytick_19">
     <g id="line2d_24">
      <g>
       <use xlink:href="#m498ec87686" x="45" y="221.936578" style="stroke: #000000; stroke-width: 0.6"/>
      </g>
     </g>
    </g>
    <g id="ytick_20">
     <g id="line2d_25">
      <g>
       <use xlink:href="#m498ec87686" x="45" y="211.50157" style="stroke: #000000; stroke-width: 0.6"/>
      </g>
     </g>
    </g>
    <g id="ytick_21">
     <g id="line2d_26">
      <g>
       <use xlink:href="#m498ec87686" x="45" y="204.097813" style="stroke: #000000; stroke-width: 0.6"/>
      </g>
     </g>
    </g>
    <g id="ytick_22">
     <g id="line2d_27">
      <g>
       <use xlink:href="#m498ec87686" x="45" y="198.355014" style="stroke: #000000; stroke-width: 0.6"/>
      </g>
     </g>
    </g>
    <g id="ytick_23">
     <g id="line2d_28">
      <g>
       <use xlink:href="#m498ec87686" x="45" y="193.662805" style="stroke: #000000; stroke-width: 0.6"/>
      </g>
     </g>
    </g>
    <g id="ytick_24">
     <g id="line2d_29">
      <g>
       <use xlink:href="#m498ec87686" x="45" y="189.695599" style="stroke: #000000; stroke-width: 0.6"/>
      </g>
     </g>
    </g>
    <g id="ytick_25">
     <g id="line2d_30">
      <g>
       <use xlink:href="#m498ec87686" x="45" y="186.259049" style="stroke: #000000; stroke-width: 0.6"/>
      </g>
     </g>
    </g>
    <g id="ytick_26">
     <g id="line2d_31">
      <g>
       <use xlink:href="#m498ec87686" x="45" y="183.227797" style="stroke: #000000; stroke-width: 0.6"/>
      </g>
     </g>
    </g>
    <g id="ytick_27">
     <g id="line2d_32">
      <g>
       <use xlink:href="#m498ec87686" x="45" y="162.677485" style="stroke: #000000; stroke-width: 0.6"/>
      </g>
     </g>
    </g>
    <g id="ytick_28">
     <g id="line2d_33">
      <g>
       <use xlink:href="#m498ec87686" x="45" y="152.242476" style="stroke: #000000; stroke-width: 0.6"/>
      </g>
     </g>
    </g>
    <g id="ytick_29">
     <g id="line2d_34">
      <g>
       <use xlink:href="#m498ec87686" x="45" y="144.83872" style="stroke: #000000; stroke-width: 0.6"/>
      </g>
     </g>
    </g>
    <g id="ytick_30">
     <g id="line2d_35">
      <g>
       <use xlink:href="#m498ec87686" x="45" y="139.095921" style="stroke: #000000; stroke-width: 0.6"/>
      </g>
     </g>
    </g>
    <g id="ytick_31">
     <g id="line2d_36">
      <g>
       <use xlink:href="#m498ec87686" x="45" y="134.403712" style="stroke: #000000; stroke-width: 0.6"/>
      </g>
     </g>
    </g>
    <g id="ytick_32">
     <g id="line2d_37">
      <g>
       <use xlink:href="#m498ec87686" x="45" y="130.436506" style="stroke: #000000; stroke-width: 0.6"/>
      </g>
     </g>
    </g>
    <g id="ytick_33">
     <g id="line2d_38">
      <g>
       <use xlink:href="#m498ec87686" x="45" y="126.999955" style="stroke: #000000; stroke-width: 0.6"/>
      </g>
     </g>
    </g>
    <g id="ytick_34">
     <g id="line2d_39">
      <g>
       <use xlink:href="#m498ec87686" x="45" y="123.968703" style="stroke: #000000; stroke-width: 0.6"/>
      </g>
     </g>
    </g>
    <g id="ytick_35">
     <g id="line2d_40">
      <g>
       <use xlink:href="#m498ec87686" x="45" y="103.418391" style="stroke: #000000; stroke-width: 0.6"/>
      </g>
     </g>
    </g>
    <g id="ytick_36">
     <g id="line2d_41">
      <g>
       <use xlink:href="#m498ec87686" x="45" y="92.983383" style="stroke: #000000; stroke-width: 0.6"/>
      </g>
     </g>
    </g>
    <g id="ytick_37">
     <g id="line2d_42">
      <g>
       <use xlink:href="#m498ec87686" x="45" y="85.579627" style="stroke: #000000; stroke-width: 0.6"/>
      </g>
     </g>
    </g>
    <g id="ytick_38">
     <g id="line2d_43">
      <g>
       <use xlink:href="#m498ec87686" x="45" y="79.836827" style="stroke: #000000; stroke-width: 0.6"/>
      </g>
     </g>
    </g>
    <g id="ytick_39">
     <g id="line2d_44">
      <g>
       <use xlink:href="#m498ec87686" x="45" y="75.144618" style="stroke: #000000; stroke-width: 0.6"/>
      </g>
     </g>
    </g>
    <g id="ytick_40">
     <g id="line2d_45">
      <g>
       <use xlink:href="#m498ec87686" x="45" y="71.177412" style="stroke: #000000; stroke-width: 0.6"/>
      </g>
     </g>
    </g>
    <g id="ytick_41">
     <g id="line2d_46">
      <g>
       <use xlink:href="#m498ec87686" x="45" y="67.740862" style="stroke: #000000; stroke-width: 0.6"/>
      </g>
     </g>
    </g>
    <g id="ytick_42">
     <g id="line2d_47">
      <g>
       <use xlink:href="#m498ec87686" x="45" y="64.70961" style="stroke: #000000; stroke-width: 0.6"/>
      </g>
     </g>
    </g>
    <g id="ytick_43">
     <g id="line2d_48">
      <g>
       <use xlink:href="#m498ec87686" x="45" y="44.159298" style="stroke: #000000; stroke-width: 0.6"/>
      </g>
     </g>
    </g>
   </g>
   <g id="line2d_49">
    <path d="M 83.045455 180.840828 
L 85.095043 162.683575 
L 87.144626 157.867184 
L 89.194215 159.245017 
L 91.243804 162.098892 
L 93.293387 167.622843 
L 95.342976 173.085279 
L 97.392564 180.248489 
L 99.442147 185.51211 
L 101.491736 185.48825 
L 103.541319 188.410567 
L 105.590908 186.033754 
L 107.640497 185.1174 
L 109.690079 182.623108 
L 111.739668 182.070209 
L 113.789251 180.959736 
L 115.83884 182.744594 
L 117.888429 183.265264 
L 119.938012 184.522684 
L 121.9876 188.620151 
L 124.037189 190.868305 
L 126.086772 195.550538 
L 128.136361 198.885757 
L 130.18595 205.859202 
L 132.235539 203.58207 
L 134.285124 205.36907 
L 136.334713 204.934265 
L 138.384299 201.581962 
L 140.433885 200.489043 
L 142.483471 194.721803 
L 144.53306 196.321934 
L 146.582646 190.513462 
L 148.632231 192.458267 
L 150.681817 190.878087 
L 152.731406 190.471059 
L 154.780992 193.79285 
L 156.830578 195.023103 
L 158.880164 199.546218 
L 160.929752 200.849299 
L 162.979338 202.493317 
L 165.028924 206.577777 
L 167.078511 205.615914 
L 169.128097 207.54056 
L 171.177685 207.4462 
L 173.227271 203.903025 
L 175.276858 198.718365 
L 177.326445 199.609527 
L 179.376031 197.446342 
L 181.425623 197.974037 
L 183.47521 195.741875 
L 185.524796 195.865113 
L 187.574383 198.657739 
L 189.62397 198.870096 
L 191.673556 204.226561 
L 193.723144 202.46391 
L 195.77273 201.920425 
L 197.822315 200.237527 
L 199.871903 197.961377 
L 201.921489 198.971287 
L 203.971076 194.890787 
L 206.020662 196.870676 
L 208.070249 195.768895 
L 210.119836 199.172805 
L 212.169422 198.344094 
L 214.219008 200.522317 
L 216.268594 198.853431 
L 218.318183 200.610176 
L 220.367769 195.385402 
L 222.417354 193.618689 
L 224.46694 191.925919 
L 226.516529 193.564679 
L 228.566115 191.431783 
L 230.615701 192.341853 
L 232.665287 189.182464 
L 234.714876 189.602631 
L 236.764461 191.033567 
L 238.81405 192.356021 
L 240.863633 195.558132 
L 242.913222 195.663917 
L 244.962805 196.011474 
L 247.012394 191.43032 
L 249.061982 188.849823 
L 251.111565 188.30211 
L 253.161154 184.176344 
L 255.210743 183.467265 
L 257.260326 180.813415 
L 259.309915 181.268023 
L 261.359503 179.912543 
L 263.409092 181.626683 
L 265.458681 185.08439 
L 267.508264 187.794811 
L 269.557853 189.450186 
L 271.607442 191.955052 
L 273.657024 190.239521 
L 275.706613 183.690361 
L 277.756202 178.924347 
L 279.805785 176.182598 
L 281.855374 173.104088 
L 283.904957 176.732779 
L 285.954545 196.360586 
" clip-path="url(#p0e3a215e24)" style="fill: none; stroke: #1f77b4; stroke-width: 1.5; stroke-linecap: square"/>
   </g>
   <g id="line2d_50">
    <path d="M 57.681818 56.027832 
L 58.953174 58.564141 
L 62.131574 65.748326 
L 65.309987 73.920142 
L 66.581342 77.893135 
L 67.852697 81.743943 
L 69.759743 88.740406 
L 70.39542 90.973926 
L 72.302453 99.459679 
L 74.209498 108.926243 
L 74.845188 112.994075 
L 75.480866 115.27742 
L 76.116544 120.588651 
L 76.752221 123.667286 
L 77.387899 129.395196 
L 78.023577 137.560796 
L 78.659254 140.093834 
L 79.930622 161.113456 
L 80.566299 180.237779 
L 81.201977 229.125884 
L 81.837655 234.909587 
L 82.473333 189.627045 
L 83.109022 183.944638 
L 83.7447 164.385159 
L 84.380384 171.80595 
L 85.016061 158.174253 
L 85.651745 159.314589 
L 86.287423 160.119179 
L 86.923101 161.103413 
L 87.558784 162.569842 
L 88.194462 163.35869 
L 88.83014 154.384461 
L 89.465823 160.529008 
L 90.101501 157.648893 
L 90.737185 160.539368 
L 91.372862 158.152638 
L 92.00854 171.127911 
L 92.644224 160.873974 
L 93.279902 171.974169 
L 93.915579 172.40706 
L 94.551263 174.292363 
L 95.186941 168.377179 
L 95.822624 186.851153 
L 96.458302 179.533327 
L 97.09398 180.356086 
L 97.729663 171.08723 
L 98.365347 188.511043 
L 99.001025 181.342199 
L 99.636709 178.481968 
L 100.272386 204.595705 
L 100.90807 190.170712 
L 101.543748 179.022472 
L 102.179425 179.817742 
L 102.815109 186.396748 
L 103.450781 198.594518 
L 104.086458 182.957965 
L 104.722142 178.586887 
L 105.35782 181.101771 
L 105.993504 175.917049 
L 106.629181 191.168005 
L 107.264859 199.927113 
L 107.900543 172.865004 
L 108.536226 187.009344 
L 109.171904 191.54258 
L 109.807588 185.175179 
L 110.443266 177.678406 
L 111.078949 190.108962 
L 111.714627 189.84576 
L 112.350305 186.978439 
L 112.985988 179.109491 
L 113.621666 178.034625 
L 114.257344 182.862799 
L 114.893027 179.280111 
L 115.528705 178.029901 
L 116.164389 192.757253 
L 116.800067 198.496627 
L 117.435744 181.57584 
L 118.071428 180.443482 
L 118.707106 184.337219 
L 119.342783 183.936564 
L 119.978467 189.694624 
L 120.614145 191.481174 
L 121.249829 175.41973 
L 121.885506 182.661187 
L 122.521184 212.878736 
L 123.156868 199.398676 
L 124.428223 182.7976 
L 125.063907 183.52883 
L 125.699584 180.461281 
L 126.335268 190.109248 
L 127.606623 228.628427 
L 128.242307 219.695937 
L 128.877991 184.131592 
L 129.513669 189.415237 
L 130.149352 200.048769 
L 130.78503 237.373453 
L 131.420714 212.490015 
L 132.056391 199.394791 
L 132.692069 231.830266 
L 133.327753 196.933109 
L 133.963431 191.242813 
L 134.599111 271.386113 
L 135.234792 195.178915 
L 135.87047 201.433458 
L 136.50615 184.754481 
L 137.141831 274.826735 
L 137.777512 307.8 
L 138.413193 221.593085 
L 139.04887 187.978355 
L 139.684551 182.966737 
L 140.320232 185.03736 
L 140.955909 246.227974 
L 141.59159 218.451915 
L 142.227271 250.109698 
L 142.862951 216.78696 
L 143.498632 204.230963 
L 144.13431 196.04154 
L 144.769991 182.131118 
L 145.405671 180.439444 
L 146.041349 179.098664 
L 146.67703 204.285945 
L 147.31271 184.448057 
L 147.948391 188.876335 
L 148.584072 182.74877 
L 149.219749 188.782477 
L 149.85543 180.804069 
L 150.491111 181.45402 
L 151.126789 199.95097 
L 151.762469 186.896305 
L 152.39815 210.08129 
L 153.033831 186.980868 
L 153.669511 181.193165 
L 154.305195 190.311495 
L 154.940876 185.500877 
L 155.576557 188.992856 
L 156.212234 179.854877 
L 156.847915 215.894085 
L 157.483596 184.317951 
L 158.119276 216.746956 
L 158.754957 216.161646 
L 159.390635 239.45317 
L 160.026315 185.51059 
L 160.661995 251.791713 
L 161.297675 191.932248 
L 161.933355 221.430369 
L 162.569035 241.210315 
L 163.204716 202.088269 
L 163.840395 207.204904 
L 164.476068 200.710034 
L 165.111749 187.881599 
L 165.747428 243.013269 
L 166.383109 185.589802 
L 167.018788 292.280818 
L 167.654469 257.636476 
L 168.925829 201.091182 
L 169.561514 187.95611 
L 170.832874 245.634937 
L 171.468555 184.267841 
L 172.104235 198.767855 
L 172.739914 190.032036 
L 173.375594 201.178557 
L 174.011274 191.061976 
L 174.64696 192.185366 
L 175.28264 193.539675 
L 175.91832 182.332877 
L 176.554 253.703579 
L 177.18968 252.887483 
L 177.82536 195.106461 
L 178.46104 195.715206 
L 179.09672 189.407808 
L 179.732393 181.553433 
L 180.368073 180.541142 
L 181.003753 209.169093 
L 181.639433 186.616194 
L 182.275114 185.174125 
L 182.910794 195.946084 
L 183.546474 190.73779 
L 184.182154 191.135387 
L 184.817839 199.540429 
L 185.453519 193.999654 
L 186.724879 189.358973 
L 187.360559 184.150562 
L 187.996239 267.632919 
L 188.631919 191.786426 
L 189.2676 211.028011 
L 189.903285 193.441794 
L 190.538964 205.033783 
L 191.174644 260.916899 
L 192.446005 184.667123 
L 193.717365 254.794922 
L 194.353045 212.389171 
L 194.98873 242.511538 
L 195.62441 251.678724 
L 196.26009 197.727536 
L 196.895771 208.400229 
L 197.53145 186.366014 
L 198.167131 195.46379 
L 198.802811 241.537553 
L 199.438491 220.143479 
L 200.074164 186.459414 
L 200.709844 183.679424 
L 201.345524 185.303036 
L 201.981204 180.872787 
L 202.616884 183.755177 
L 203.252564 192.75751 
L 203.888245 227.505006 
L 204.523924 203.195021 
L 205.159609 183.908302 
L 205.79529 183.38792 
L 206.430969 217.17918 
L 207.06665 184.505268 
L 207.702329 196.351911 
L 208.33801 218.017512 
L 208.973691 189.782127 
L 209.60937 197.638563 
L 210.245049 198.533944 
L 210.88073 195.210239 
L 212.152088 183.76229 
L 212.787769 185.13481 
L 213.42345 189.840699 
L 214.05913 254.417538 
L 214.694811 190.93599 
L 215.330489 187.514355 
L 215.966169 210.910309 
L 216.60185 212.037943 
L 217.237528 227.27547 
L 217.873208 251.80679 
L 218.508889 225.846706 
L 219.14457 181.708803 
L 220.415928 225.14314 
L 221.051609 196.512704 
L 221.68729 186.339064 
L 222.322967 264.314711 
L 222.958648 189.160536 
L 223.594329 185.474103 
L 224.230009 180.438924 
L 224.86569 196.301814 
L 225.501368 207.296297 
L 226.137049 199.716947 
L 226.772729 198.609559 
L 227.408407 181.009663 
L 228.044088 178.647837 
L 228.679768 193.462496 
L 229.315449 227.486081 
L 229.95113 208.989177 
L 230.586807 182.918366 
L 231.222488 190.303021 
L 231.858169 180.908772 
L 232.493847 184.59074 
L 234.400889 224.783907 
L 235.036569 179.408882 
L 235.672253 217.070315 
L 236.307931 182.685755 
L 236.943615 206.12975 
L 237.579292 234.211646 
L 238.214976 196.812601 
L 238.850654 247.4643 
L 239.486331 181.916755 
L 240.122015 189.514882 
L 240.757693 219.895528 
L 241.39337 193.123808 
L 242.029054 193.517533 
L 242.664732 189.382587 
L 243.300416 228.229104 
L 243.936093 215.261568 
L 244.571771 207.56019 
L 245.207455 186.306732 
L 245.843132 182.291578 
L 246.47881 199.10795 
L 247.114494 203.719742 
L 247.750171 186.213799 
L 248.385855 188.654053 
L 249.021533 214.064017 
L 249.657211 194.041737 
L 250.292894 192.340823 
L 250.928572 186.21458 
L 251.56425 176.785985 
L 252.199933 175.855992 
L 252.835611 180.707787 
L 253.471295 179.692441 
L 254.106973 191.737967 
L 254.74265 181.281015 
L 255.378334 179.457829 
L 256.014012 204.823167 
L 256.649689 189.391837 
L 257.285373 196.36472 
L 257.921051 176.921728 
L 258.556734 177.59979 
L 259.192412 188.389279 
L 259.82809 174.687259 
L 260.463774 174.875577 
L 261.099451 182.225081 
L 262.370813 174.516751 
L 263.00649 194.795329 
L 263.642174 201.134019 
L 264.277852 188.00707 
L 264.913529 183.476818 
L 265.549213 174.94425 
L 266.184897 182.263771 
L 266.820575 193.723032 
L 267.456258 200.24195 
L 268.091936 188.270111 
L 268.72762 184.603352 
L 269.363297 206.868836 
L 269.998975 179.939649 
L 270.634659 211.47318 
L 271.270337 185.996785 
L 271.906014 193.190069 
L 272.541698 188.636617 
L 273.177376 194.119484 
L 273.813059 185.35713 
L 274.448737 207.599142 
L 275.084415 187.292048 
L 275.720098 203.144403 
L 276.355776 205.373035 
L 276.991454 176.567282 
L 277.627138 172.773517 
L 278.262815 191.595751 
L 278.898499 188.860818 
L 279.534177 169.142924 
L 280.169854 174.496017 
L 280.805538 166.013057 
L 281.441222 166.929379 
L 282.076899 176.033701 
L 282.712583 177.42912 
L 283.348261 178.1782 
L 283.983945 175.012374 
L 284.619622 198.551523 
L 285.2553 190.144475 
L 285.890984 186.397195 
L 286.526655 221.682727 
L 287.162333 207.572231 
L 287.798011 183.4682 
L 288.433701 182.048931 
L 289.069378 160.669047 
L 289.705056 156.866818 
L 290.340734 150.187082 
L 291.612101 133.025645 
L 292.883456 123.88714 
L 294.790502 113.050738 
L 295.426179 109.777583 
L 296.061857 105.576783 
L 296.697535 103.032841 
L 299.240257 91.075978 
L 300.511613 86.484972 
L 301.14729 83.902644 
L 302.418658 79.683773 
L 303.054336 77.305409 
L 306.868426 66.280274 
L 310.046826 58.452966 
L 311.318182 55.8 
L 311.318182 55.8 
" clip-path="url(#p0e3a215e24)" style="fill: none; stroke: #ff7f0e; stroke-width: 1.5; stroke-linecap: square"/>
   </g>
   <g id="patch_3">
    <path d="M 45 320.4 
L 45 43.2 
" style="fill: none; stroke: #000000; stroke-width: 0.8; stroke-linejoin: miter; stroke-linecap: square"/>
   </g>
   <g id="patch_4">
    <path d="M 324 320.4 
L 324 43.2 
" style="fill: none; stroke: #000000; stroke-width: 0.8; stroke-linejoin: miter; stroke-linecap: square"/>
   </g>
   <g id="patch_5">
    <path d="M 45 320.4 
L 324 320.4 
" style="fill: none; stroke: #000000; stroke-width: 0.8; stroke-linejoin: miter; stroke-linecap: square"/>
   </g>
   <g id="patch_6">
    <path d="M 45 43.2 
L 324 43.2 
" style="fill: none; stroke: #000000; stroke-width: 0.8; stroke-linejoin: miter; stroke-linecap: square"/>
   </g>
   <g id="text_11">
    <!-- Prediction Error -->
    <g transform="translate(138.166875 37.2)scale(0.12 -0.12)">
     <defs>
      <path id="DejaVuSans-50" d="M 1259 4147 
L 1259 2394 
L 2053 2394 
Q 2494 2394 2734 2622 
Q 2975 2850 2975 3272 
Q 2975 3691 2734 3919 
Q 2494 4147 2053 4147 
L 1259 4147 
z
M 628 4666 
L 2053 4666 
Q 2838 4666 3239 4311 
Q 3641 3956 3641 3272 
Q 3641 2581 3239 2228 
Q 2838 1875 2053 1875 
L 1259 1875 
L 1259 0 
L 628 0 
L 628 4666 
z
" transform="scale(0.015625)"/>
      <path id="DejaVuSans-72" d="M 2631 2963 
Q 2534 3019 2420 3045 
Q 2306 3072 2169 3072 
Q 1681 3072 1420 2755 
Q 1159 2438 1159 1844 
L 1159 0 
L 581 0 
L 581 3500 
L 1159 3500 
L 1159 2956 
Q 1341 3275 1631 3429 
Q 1922 3584 2338 3584 
Q 2397 3584 2469 3576 
Q 2541 3569 2628 3553 
L 2631 2963 
z
" transform="scale(0.015625)"/>
      <path id="DejaVuSans-65" d="M 3597 1894 
L 3597 1613 
L 953 1613 
Q 991 1019 1311 708 
Q 1631 397 2203 397 
Q 2534 397 2845 478 
Q 3156 559 3463 722 
L 3463 178 
Q 3153 47 2828 -22 
Q 2503 -91 2169 -91 
Q 1331 -91 842 396 
Q 353 884 353 1716 
Q 353 2575 817 3079 
Q 1281 3584 2069 3584 
Q 2775 3584 3186 3129 
Q 3597 2675 3597 1894 
z
M 3022 2063 
Q 3016 2534 2758 2815 
Q 2500 3097 2075 3097 
Q 1594 3097 1305 2825 
Q 1016 2553 972 2059 
L 3022 2063 
z
" transform="scale(0.015625)"/>
      <path id="DejaVuSans-64" d="M 2906 2969 
L 2906 4863 
L 3481 4863 
L 3481 0 
L 2906 0 
L 2906 525 
Q 2725 213 2448 61 
Q 2172 -91 1784 -91 
Q 1150 -91 751 415 
Q 353 922 353 1747 
Q 353 2572 751 3078 
Q 1150 3584 1784 3584 
Q 2172 3584 2448 3432 
Q 2725 3281 2906 2969 
z
M 947 1747 
Q 947 1113 1208 752 
Q 1469 391 1925 391 
Q 2381 391 2643 752 
Q 2906 1113 2906 1747 
Q 2906 2381 2643 2742 
Q 2381 3103 1925 3103 
Q 1469 3103 1208 2742 
Q 947 2381 947 1747 
z
" transform="scale(0.015625)"/>
      <path id="DejaVuSans-69" d="M 603 3500 
L 1178 3500 
L 1178 0 
L 603 0 
L 603 3500 
z
M 603 4863 
L 1178 4863 
L 1178 4134 
L 603 4134 
L 603 4863 
z
" transform="scale(0.015625)"/>
      <path id="DejaVuSans-63" d="M 3122 3366 
L 3122 2828 
Q 2878 2963 2633 3030 
Q 2388 3097 2138 3097 
Q 1578 3097 1268 2742 
Q 959 2388 959 1747 
Q 959 1106 1268 751 
Q 1578 397 2138 397 
Q 2388 397 2633 464 
Q 2878 531 3122 666 
L 3122 134 
Q 2881 22 2623 -34 
Q 2366 -91 2075 -91 
Q 1284 -91 818 406 
Q 353 903 353 1747 
Q 353 2603 823 3093 
Q 1294 3584 2113 3584 
Q 2378 3584 2631 3529 
Q 2884 3475 3122 3366 
z
" transform="scale(0.015625)"/>
      <path id="DejaVuSans-74" d="M 1172 4494 
L 1172 3500 
L 2356 3500 
L 2356 3053 
L 1172 3053 
L 1172 1153 
Q 1172 725 1289 603 
Q 1406 481 1766 481 
L 2356 481 
L 2356 0 
L 1766 0 
Q 1100 0 847 248 
Q 594 497 594 1153 
L 594 3053 
L 172 3053 
L 172 3500 
L 594 3500 
L 594 4494 
L 1172 4494 
z
" transform="scale(0.015625)"/>
      <path id="DejaVuSans-6f" d="M 1959 3097 
Q 1497 3097 1228 2736 
Q 959 2375 959 1747 
Q 959 1119 1226 758 
Q 1494 397 1959 397 
Q 2419 397 2687 759 
Q 2956 1122 2956 1747 
Q 2956 2369 2687 2733 
Q 2419 3097 1959 3097 
z
M 1959 3584 
Q 2709 3584 3137 3096 
Q 3566 2609 3566 1747 
Q 3566 888 3137 398 
Q 2709 -91 1959 -91 
Q 1206 -91 779 398 
Q 353 888 353 1747 
Q 353 2609 779 3096 
Q 1206 3584 1959 3584 
z
" transform="scale(0.015625)"/>
      <path id="DejaVuSans-6e" d="M 3513 2113 
L 3513 0 
L 2938 0 
L 2938 2094 
Q 2938 2591 2744 2837 
Q 2550 3084 2163 3084 
Q 1697 3084 1428 2787 
Q 1159 2491 1159 1978 
L 1159 0 
L 581 0 
L 581 3500 
L 1159 3500 
L 1159 2956 
Q 1366 3272 1645 3428 
Q 1925 3584 2291 3584 
Q 2894 3584 3203 3211 
Q 3513 2838 3513 2113 
z
" transform="scale(0.015625)"/>
      <path id="DejaVuSans-20" transform="scale(0.015625)"/>
      <path id="DejaVuSans-45" d="M 628 4666 
L 3578 4666 
L 3578 4134 
L 1259 4134 
L 1259 2753 
L 3481 2753 
L 3481 2222 
L 1259 2222 
L 1259 531 
L 3634 531 
L 3634 0 
L 628 0 
L 628 4666 
z
" transform="scale(0.015625)"/>
     </defs>
     <use xlink:href="#DejaVuSans-50"/>
     <use xlink:href="#DejaVuSans-72" x="58.552734"/>
     <use xlink:href="#DejaVuSans-65" x="97.416016"/>
     <use xlink:href="#DejaVuSans-64" x="158.939453"/>
     <use xlink:href="#DejaVuSans-69" x="222.416016"/>
     <use xlink:href="#DejaVuSans-63" x="250.199219"/>
     <use xlink:href="#DejaVuSans-74" x="305.179688"/>
     <use xlink:href="#DejaVuSans-69" x="344.388672"/>
     <use xlink:href="#DejaVuSans-6f" x="372.171875"/>
     <use xlink:href="#DejaVuSans-6e" x="433.353516"/>
     <use xlink:href="#DejaVuSans-20" x="496.732422"/>
     <use xlink:href="#DejaVuSans-45" x="528.519531"/>
     <use xlink:href="#DejaVuSans-72" x="591.703125"/>
     <use xlink:href="#DejaVuSans-72" x="631.066406"/>
     <use xlink:href="#DejaVuSans-6f" x="669.929688"/>
     <use xlink:href="#DejaVuSans-72" x="731.111328"/>
    </g>
   </g>
   <g id="legend_1">
    <g id="patch_7">
     <path d="M 52 315.4 
L 134.657813 315.4 
Q 136.657813 315.4 136.657813 313.4 
L 136.657813 285.04375 
Q 136.657813 283.04375 134.657813 283.04375 
L 52 283.04375 
Q 50 283.04375 50 285.04375 
L 50 313.4 
Q 50 315.4 52 315.4 
z
" style="fill: #ffffff; opacity: 0.8; stroke: #cccccc; stroke-linejoin: miter"/>
    </g>
    <g id="line2d_51">
     <path d="M 54 291.142187 
L 64 291.142187 
L 74 291.142187 
" style="fill: none; stroke: #1f77b4; stroke-width: 1.5; stroke-linecap: square"/>
    </g>
    <g id="text_12">
     <!-- train error -->
     <g transform="translate(82 294.642187)scale(0.1 -0.1)">
      <defs>
       <path id="DejaVuSans-61" d="M 2194 1759 
Q 1497 1759 1228 1600 
Q 959 1441 959 1056 
Q 959 750 1161 570 
Q 1363 391 1709 391 
Q 2188 391 2477 730 
Q 2766 1069 2766 1631 
L 2766 1759 
L 2194 1759 
z
M 3341 1997 
L 3341 0 
L 2766 0 
L 2766 531 
Q 2569 213 2275 61 
Q 1981 -91 1556 -91 
Q 1019 -91 701 211 
Q 384 513 384 1019 
Q 384 1609 779 1909 
Q 1175 2209 1959 2209 
L 2766 2209 
L 2766 2266 
Q 2766 2663 2505 2880 
Q 2244 3097 1772 3097 
Q 1472 3097 1187 3025 
Q 903 2953 641 2809 
L 641 3341 
Q 956 3463 1253 3523 
Q 1550 3584 1831 3584 
Q 2591 3584 2966 3190 
Q 3341 2797 3341 1997 
z
" transform="scale(0.015625)"/>
      </defs>
      <use xlink:href="#DejaVuSans-74"/>
      <use xlink:href="#DejaVuSans-72" x="39.208984"/>
      <use xlink:href="#DejaVuSans-61" x="80.322266"/>
      <use xlink:href="#DejaVuSans-69" x="141.601562"/>
      <use xlink:href="#DejaVuSans-6e" x="169.384766"/>
      <use xlink:href="#DejaVuSans-20" x="232.763672"/>
      <use xlink:href="#DejaVuSans-65" x="264.550781"/>
      <use xlink:href="#DejaVuSans-72" x="326.074219"/>
      <use xlink:href="#DejaVuSans-72" x="365.4375"/>
      <use xlink:href="#DejaVuSans-6f" x="404.300781"/>
      <use xlink:href="#DejaVuSans-72" x="465.482422"/>
     </g>
    </g>
    <g id="line2d_52">
     <path d="M 54 305.820312 
L 64 305.820312 
L 74 305.820312 
" style="fill: none; stroke: #ff7f0e; stroke-width: 1.5; stroke-linecap: square"/>
    </g>
    <g id="text_13">
     <!-- test error -->
     <g transform="translate(82 309.320312)scale(0.1 -0.1)">
      <defs>
       <path id="DejaVuSans-73" d="M 2834 3397 
L 2834 2853 
Q 2591 2978 2328 3040 
Q 2066 3103 1784 3103 
Q 1356 3103 1142 2972 
Q 928 2841 928 2578 
Q 928 2378 1081 2264 
Q 1234 2150 1697 2047 
L 1894 2003 
Q 2506 1872 2764 1633 
Q 3022 1394 3022 966 
Q 3022 478 2636 193 
Q 2250 -91 1575 -91 
Q 1294 -91 989 -36 
Q 684 19 347 128 
L 347 722 
Q 666 556 975 473 
Q 1284 391 1588 391 
Q 1994 391 2212 530 
Q 2431 669 2431 922 
Q 2431 1156 2273 1281 
Q 2116 1406 1581 1522 
L 1381 1569 
Q 847 1681 609 1914 
Q 372 2147 372 2553 
Q 372 3047 722 3315 
Q 1072 3584 1716 3584 
Q 2034 3584 2315 3537 
Q 2597 3491 2834 3397 
z
" transform="scale(0.015625)"/>
      </defs>
      <use xlink:href="#DejaVuSans-74"/>
      <use xlink:href="#DejaVuSans-65" x="39.208984"/>
      <use xlink:href="#DejaVuSans-73" x="100.732422"/>
      <use xlink:href="#DejaVuSans-74" x="152.832031"/>
      <use xlink:href="#DejaVuSans-20" x="192.041016"/>
      <use xlink:href="#DejaVuSans-65" x="223.828125"/>
      <use xlink:href="#DejaVuSans-72" x="285.351562"/>
      <use xlink:href="#DejaVuSans-72" x="324.714844"/>
      <use xlink:href="#DejaVuSans-6f" x="363.578125"/>
      <use xlink:href="#DejaVuSans-72" x="424.759766"/>
     </g>
    </g>
   </g>
  </g>
 </g>
 <defs>
  <clipPath id="p0e3a215e24">
   <rect x="45" y="43.2" width="279" height="277.2"/>
  </clipPath>
 </defs>
</svg>
