<?xml version="1.0" encoding="utf-8" standalone="no"?>
<!DOCTYPE svg PUBLIC "-//W3C//DTD SVG 1.1//EN"
  "http://www.w3.org/Graphics/SVG/1.1/DTD/svg11.dtd">
<svg xmlns:xlink="http://www.w3.org/1999/xlink" width="360pt" height="360pt" viewBox="0 0 360 360" xmlns="http://www.w3.org/2000/svg" version="1.1">
 <metadata>
  <rdf:RDF xmlns:dc="http://purl.org/dc/elements/1.1/" xmlns:cc="http://creativecommons.org/ns#" xmlns:rdf="http://www.w3.org/1999/02/22-rdf-syntax-ns#">
   <cc:Work>
    <dc:type rdf:resource="http://purl.org/dc/dcmitype/StillImage"/>
    <dc:date>2022-11-16T09:24:27.121300</dc:date>
    <dc:format>image/svg+xml</dc:format>
    <dc:creator>
     <cc:Agent>
      <dc:title>Matplotlib v3.5.3, https://matplotlib.org/</dc:title>
     </cc:Agent>
    </dc:creator>
   </cc:Work>
  </rdf:RDF>
 </metadata>
 <defs>
  <style type="text/css">*{stroke-linejoin: round; stroke-linecap: butt}</style>
 </defs>
 <g id="figure_1">
  <g id="patch_1">
   <path d="M 0 360 
L 360 360 
L 360 0 
L 0 0 
z
" style="fill: #ffffff"/>
  </g>
  <g id="axes_1">
   <g id="patch_2">
    <path d="M 45 320.4 
L 324 320.4 
L 324 43.2 
L 45 43.2 
z
" style="fill: #ffffff"/>
   </g>
   <g id="patch_3">
    <path d="M 57.681818 320.4 
L 60.351675 320.4 
L 60.351675 56.4 
L 57.681818 56.4 
z
" clip-path="url(#p14b7884352)" style="fill: #1f77b4"/>
   </g>
   <g id="patch_4">
    <path d="M 124.428232 320.4 
L 127.098088 320.4 
L 127.098088 320.4 
L 124.428232 320.4 
z
" clip-path="url(#p14b7884352)" style="fill: #1f77b4"/>
   </g>
   <g id="patch_5">
    <path d="M 191.174659 320.4 
L 193.844521 320.4 
L 193.844521 320.4 
L 191.174659 320.4 
z
" clip-path="url(#p14b7884352)" style="fill: #1f77b4"/>
   </g>
   <g id="patch_6">
    <path d="M 257.921069 320.4 
L 260.590918 320.4 
L 260.590918 320.4 
L 257.921069 320.4 
z
" clip-path="url(#p14b7884352)" style="fill: #1f77b4"/>
   </g>
   <g id="patch_7">
    <path d="M 60.351674 320.4 
L 63.021531 320.4 
L 63.021531 320.4 
L 60.351674 320.4 
z
" clip-path="url(#p14b7884352)" style="fill: #ff7f0e"/>
   </g>
   <g id="patch_8">
    <path d="M 127.098088 320.4 
L 129.767943 320.4 
L 129.767943 56.4 
L 127.098088 56.4 
z
" clip-path="url(#p14b7884352)" style="fill: #ff7f0e"/>
   </g>
   <g id="patch_9">
    <path d="M 193.844509 320.4 
L 196.51437 320.4 
L 196.51437 320.4 
L 193.844509 320.4 
z
" clip-path="url(#p14b7884352)" style="fill: #ff7f0e"/>
   </g>
   <g id="patch_10">
    <path d="M 260.590918 320.4 
L 263.260768 320.4 
L 263.260768 320.4 
L 260.590918 320.4 
z
" clip-path="url(#p14b7884352)" style="fill: #ff7f0e"/>
   </g>
   <g id="patch_11">
    <path d="M 63.021531 320.4 
L 65.691388 320.4 
L 65.691388 320.4 
L 63.021531 320.4 
z
" clip-path="url(#p14b7884352)" style="fill: #2ca02c"/>
   </g>
   <g id="patch_12">
    <path d="M 129.767943 320.4 
L 132.437799 320.4 
L 132.437799 320.4 
L 129.767943 320.4 
z
" clip-path="url(#p14b7884352)" style="fill: #2ca02c"/>
   </g>
   <g id="patch_13">
    <path d="M 196.51437 320.4 
L 199.184232 320.4 
L 199.184232 56.4 
L 196.51437 56.4 
z
" clip-path="url(#p14b7884352)" style="fill: #2ca02c"/>
   </g>
   <g id="patch_14">
    <path d="M 263.260768 320.4 
L 265.930618 320.4 
L 265.930618 320.4 
L 263.260768 320.4 
z
" clip-path="url(#p14b7884352)" style="fill: #2ca02c"/>
   </g>
   <g id="patch_15">
    <path d="M 65.691387 320.4 
L 68.361244 320.4 
L 68.361244 56.4 
L 65.691387 56.4 
z
" clip-path="url(#p14b7884352)" style="fill: #d62728"/>
   </g>
   <g id="patch_16">
    <path d="M 132.437799 320.4 
L 135.107655 320.4 
L 135.107655 320.4 
L 132.437799 320.4 
z
" clip-path="url(#p14b7884352)" style="fill: #d62728"/>
   </g>
   <g id="patch_17">
    <path d="M 199.184232 320.4 
L 201.854094 320.4 
L 201.854094 320.4 
L 199.184232 320.4 
z
" clip-path="url(#p14b7884352)" style="fill: #d62728"/>
   </g>
   <g id="patch_18">
    <path d="M 265.930641 320.4 
L 268.600491 320.4 
L 268.600491 320.4 
L 265.930641 320.4 
z
" clip-path="url(#p14b7884352)" style="fill: #d62728"/>
   </g>
   <g id="patch_19">
    <path d="M 68.361245 320.4 
L 71.031102 320.4 
L 71.031102 320.4 
L 68.361245 320.4 
z
" clip-path="url(#p14b7884352)" style="fill: #9467bd"/>
   </g>
   <g id="patch_20">
    <path d="M 135.107655 320.4 
L 137.77751 320.4 
L 137.77751 320.4 
L 135.107655 320.4 
z
" clip-path="url(#p14b7884352)" style="fill: #9467bd"/>
   </g>
   <g id="patch_21">
    <path d="M 201.854082 320.4 
L 204.523943 320.4 
L 204.523943 320.4 
L 201.854082 320.4 
z
" clip-path="url(#p14b7884352)" style="fill: #9467bd"/>
   </g>
   <g id="patch_22">
    <path d="M 268.600491 320.4 
L 271.270341 320.4 
L 271.270341 56.4 
L 268.600491 56.4 
z
" clip-path="url(#p14b7884352)" style="fill: #9467bd"/>
   </g>
   <g id="patch_23">
    <path d="M 71.031101 320.4 
L 73.700958 320.4 
L 73.700958 56.4 
L 71.031101 56.4 
z
" clip-path="url(#p14b7884352)" style="fill: #8c564b"/>
   </g>
   <g id="patch_24">
    <path d="M 137.777516 320.4 
L 140.447372 320.4 
L 140.447372 320.4 
L 137.777516 320.4 
z
" clip-path="url(#p14b7884352)" style="fill: #8c564b"/>
   </g>
   <g id="patch_25">
    <path d="M 204.523943 320.4 
L 207.193805 320.4 
L 207.193805 320.4 
L 204.523943 320.4 
z
" clip-path="url(#p14b7884352)" style="fill: #8c564b"/>
   </g>
   <g id="patch_26">
    <path d="M 271.270341 320.4 
L 273.940191 320.4 
L 273.940191 320.4 
L 271.270341 320.4 
z
" clip-path="url(#p14b7884352)" style="fill: #8c564b"/>
   </g>
   <g id="patch_27">
    <path d="M 73.70096 320.4 
L 76.370815 320.4 
L 76.370815 56.4 
L 73.70096 56.4 
z
" clip-path="url(#p14b7884352)" style="fill: #e377c2"/>
   </g>
   <g id="patch_28">
    <path d="M 140.447372 320.4 
L 143.117228 320.4 
L 143.117228 320.4 
L 140.447372 320.4 
z
" clip-path="url(#p14b7884352)" style="fill: #e377c2"/>
   </g>
   <g id="patch_29">
    <path d="M 207.193793 320.4 
L 209.863655 320.4 
L 209.863655 320.4 
L 207.193793 320.4 
z
" clip-path="url(#p14b7884352)" style="fill: #e377c2"/>
   </g>
   <g id="patch_30">
    <path d="M 273.940214 320.4 
L 276.610064 320.4 
L 276.610064 320.4 
L 273.940214 320.4 
z
" clip-path="url(#p14b7884352)" style="fill: #e377c2"/>
   </g>
   <g id="patch_31">
    <path d="M 76.370815 320.4 
L 79.040671 320.4 
L 79.040671 56.4 
L 76.370815 56.4 
z
" clip-path="url(#p14b7884352)" style="fill: #7f7f7f"/>
   </g>
   <g id="patch_32">
    <path d="M 143.117233 320.4 
L 145.787089 320.4 
L 145.787089 320.4 
L 143.117233 320.4 
z
" clip-path="url(#p14b7884352)" style="fill: #7f7f7f"/>
   </g>
   <g id="patch_33">
    <path d="M 209.863655 320.4 
L 212.533504 320.4 
L 212.533504 320.4 
L 209.863655 320.4 
z
" clip-path="url(#p14b7884352)" style="fill: #7f7f7f"/>
   </g>
   <g id="patch_34">
    <path d="M 276.610064 320.4 
L 279.279914 320.4 
L 279.279914 320.4 
L 276.610064 320.4 
z
" clip-path="url(#p14b7884352)" style="fill: #7f7f7f"/>
   </g>
   <g id="patch_35">
    <path d="M 79.040671 320.4 
L 81.710527 320.4 
L 81.710527 56.4 
L 79.040671 56.4 
z
" clip-path="url(#p14b7884352)" style="fill: #bcbd22"/>
   </g>
   <g id="patch_36">
    <path d="M 145.787083 320.4 
L 148.456939 320.4 
L 148.456939 320.4 
L 145.787083 320.4 
z
" clip-path="url(#p14b7884352)" style="fill: #bcbd22"/>
   </g>
   <g id="patch_37">
    <path d="M 212.533516 320.4 
L 215.203378 320.4 
L 215.203378 320.4 
L 212.533516 320.4 
z
" clip-path="url(#p14b7884352)" style="fill: #bcbd22"/>
   </g>
   <g id="patch_38">
    <path d="M 279.279914 320.4 
L 281.949764 320.4 
L 281.949764 320.4 
L 279.279914 320.4 
z
" clip-path="url(#p14b7884352)" style="fill: #bcbd22"/>
   </g>
   <g id="patch_39">
    <path d="M 81.710527 320.4 
L 84.380382 320.4 
L 84.380382 56.4 
L 81.710527 56.4 
z
" clip-path="url(#p14b7884352)" style="fill: #17becf"/>
   </g>
   <g id="patch_40">
    <path d="M 148.456945 320.4 
L 151.126795 320.4 
L 151.126795 320.4 
L 148.456945 320.4 
z
" clip-path="url(#p14b7884352)" style="fill: #17becf"/>
   </g>
   <g id="patch_41">
    <path d="M 215.203366 320.4 
L 217.873228 320.4 
L 217.873228 320.4 
L 215.203366 320.4 
z
" clip-path="url(#p14b7884352)" style="fill: #17becf"/>
   </g>
   <g id="patch_42">
    <path d="M 281.949764 320.4 
L 284.619613 320.4 
L 284.619613 320.4 
L 281.949764 320.4 
z
" clip-path="url(#p14b7884352)" style="fill: #17becf"/>
   </g>
   <g id="patch_43">
    <path d="M 84.380382 320.4 
L 87.050238 320.4 
L 87.050238 56.4 
L 84.380382 56.4 
z
" clip-path="url(#p14b7884352)" style="fill: #1f77b4"/>
   </g>
   <g id="patch_44">
    <path d="M 151.126806 320.4 
L 153.796668 320.4 
L 153.796668 320.4 
L 151.126806 320.4 
z
" clip-path="url(#p14b7884352)" style="fill: #1f77b4"/>
   </g>
   <g id="patch_45">
    <path d="M 217.873216 320.4 
L 220.543077 320.4 
L 220.543077 320.4 
L 217.873216 320.4 
z
" clip-path="url(#p14b7884352)" style="fill: #1f77b4"/>
   </g>
   <g id="patch_46">
    <path d="M 284.619637 320.4 
L 287.289487 320.4 
L 287.289487 320.4 
L 284.619637 320.4 
z
" clip-path="url(#p14b7884352)" style="fill: #1f77b4"/>
   </g>
   <g id="patch_47">
    <path d="M 87.050238 320.4 
L 89.720094 320.4 
L 89.720094 56.4 
L 87.050238 56.4 
z
" clip-path="url(#p14b7884352)" style="fill: #ff7f0e"/>
   </g>
   <g id="patch_48">
    <path d="M 153.796656 320.4 
L 156.466518 320.4 
L 156.466518 320.4 
L 153.796656 320.4 
z
" clip-path="url(#p14b7884352)" style="fill: #ff7f0e"/>
   </g>
   <g id="patch_49">
    <path d="M 220.543077 320.4 
L 223.212927 320.4 
L 223.212927 320.4 
L 220.543077 320.4 
z
" clip-path="url(#p14b7884352)" style="fill: #ff7f0e"/>
   </g>
   <g id="patch_50">
    <path d="M 287.289487 320.4 
L 289.959336 320.4 
L 289.959336 320.4 
L 287.289487 320.4 
z
" clip-path="url(#p14b7884352)" style="fill: #ff7f0e"/>
   </g>
   <g id="patch_51">
    <path d="M 89.720094 320.4 
L 92.389949 320.4 
L 92.389949 320.4 
L 89.720094 320.4 
z
" clip-path="url(#p14b7884352)" style="fill: #2ca02c"/>
   </g>
   <g id="patch_52">
    <path d="M 156.466506 320.4 
L 159.136367 320.4 
L 159.136367 320.4 
L 156.466506 320.4 
z
" clip-path="url(#p14b7884352)" style="fill: #2ca02c"/>
   </g>
   <g id="patch_53">
    <path d="M 223.212939 320.4 
L 225.882801 320.4 
L 225.882801 56.4 
L 223.212939 56.4 
z
" clip-path="url(#p14b7884352)" style="fill: #2ca02c"/>
   </g>
   <g id="patch_54">
    <path d="M 289.959336 320.4 
L 292.629186 320.4 
L 292.629186 320.4 
L 289.959336 320.4 
z
" clip-path="url(#p14b7884352)" style="fill: #2ca02c"/>
   </g>
   <g id="patch_55">
    <path d="M 92.389949 320.4 
L 95.059805 320.4 
L 95.059805 56.4 
L 92.389949 56.4 
z
" clip-path="url(#p14b7884352)" style="fill: #d62728"/>
   </g>
   <g id="patch_56">
    <path d="M 159.136367 320.4 
L 161.806217 320.4 
L 161.806217 320.4 
L 159.136367 320.4 
z
" clip-path="url(#p14b7884352)" style="fill: #d62728"/>
   </g>
   <g id="patch_57">
    <path d="M 225.882789 320.4 
L 228.55265 320.4 
L 228.55265 320.4 
L 225.882789 320.4 
z
" clip-path="url(#p14b7884352)" style="fill: #d62728"/>
   </g>
   <g id="patch_58">
    <path d="M 292.629186 320.4 
L 295.299036 320.4 
L 295.299036 320.4 
L 292.629186 320.4 
z
" clip-path="url(#p14b7884352)" style="fill: #d62728"/>
   </g>
   <g id="patch_59">
    <path d="M 95.059805 320.4 
L 97.729661 320.4 
L 97.729661 56.4 
L 95.059805 56.4 
z
" clip-path="url(#p14b7884352)" style="fill: #9467bd"/>
   </g>
   <g id="patch_60">
    <path d="M 161.806229 320.4 
L 164.476091 320.4 
L 164.476091 320.4 
L 161.806229 320.4 
z
" clip-path="url(#p14b7884352)" style="fill: #9467bd"/>
   </g>
   <g id="patch_61">
    <path d="M 228.552638 320.4 
L 231.2225 320.4 
L 231.2225 320.4 
L 228.552638 320.4 
z
" clip-path="url(#p14b7884352)" style="fill: #9467bd"/>
   </g>
   <g id="patch_62">
    <path d="M 295.29906 320.4 
L 297.968909 320.4 
L 297.968909 320.4 
L 295.29906 320.4 
z
" clip-path="url(#p14b7884352)" style="fill: #9467bd"/>
   </g>
   <g id="patch_63">
    <path d="M 97.729661 320.4 
L 100.399519 320.4 
L 100.399519 56.4 
L 97.729661 56.4 
z
" clip-path="url(#p14b7884352)" style="fill: #8c564b"/>
   </g>
   <g id="patch_64">
    <path d="M 164.476079 320.4 
L 167.14594 320.4 
L 167.14594 320.4 
L 164.476079 320.4 
z
" clip-path="url(#p14b7884352)" style="fill: #8c564b"/>
   </g>
   <g id="patch_65">
    <path d="M 231.2225 320.4 
L 233.89235 320.4 
L 233.89235 320.4 
L 231.2225 320.4 
z
" clip-path="url(#p14b7884352)" style="fill: #8c564b"/>
   </g>
   <g id="patch_66">
    <path d="M 297.968909 320.4 
L 300.638759 320.4 
L 300.638759 320.4 
L 297.968909 320.4 
z
" clip-path="url(#p14b7884352)" style="fill: #8c564b"/>
   </g>
   <g id="patch_67">
    <path d="M 100.399519 320.4 
L 103.069375 320.4 
L 103.069375 56.4 
L 100.399519 56.4 
z
" clip-path="url(#p14b7884352)" style="fill: #e377c2"/>
   </g>
   <g id="patch_68">
    <path d="M 167.145929 320.4 
L 169.81579 320.4 
L 169.81579 320.4 
L 167.145929 320.4 
z
" clip-path="url(#p14b7884352)" style="fill: #e377c2"/>
   </g>
   <g id="patch_69">
    <path d="M 233.892362 320.4 
L 236.562223 320.4 
L 236.562223 320.4 
L 233.892362 320.4 
z
" clip-path="url(#p14b7884352)" style="fill: #e377c2"/>
   </g>
   <g id="patch_70">
    <path d="M 300.638759 320.4 
L 303.308609 320.4 
L 303.308609 320.4 
L 300.638759 320.4 
z
" clip-path="url(#p14b7884352)" style="fill: #e377c2"/>
   </g>
   <g id="patch_71">
    <path d="M 103.069369 320.4 
L 105.739225 320.4 
L 105.739225 56.4 
L 103.069369 56.4 
z
" clip-path="url(#p14b7884352)" style="fill: #7f7f7f"/>
   </g>
   <g id="patch_72">
    <path d="M 169.81579 320.4 
L 172.48564 320.4 
L 172.48564 320.4 
L 169.81579 320.4 
z
" clip-path="url(#p14b7884352)" style="fill: #7f7f7f"/>
   </g>
   <g id="patch_73">
    <path d="M 236.562211 320.4 
L 239.232073 320.4 
L 239.232073 320.4 
L 236.562211 320.4 
z
" clip-path="url(#p14b7884352)" style="fill: #7f7f7f"/>
   </g>
   <g id="patch_74">
    <path d="M 303.308609 320.4 
L 305.978459 320.4 
L 305.978459 320.4 
L 303.308609 320.4 
z
" clip-path="url(#p14b7884352)" style="fill: #7f7f7f"/>
   </g>
   <g id="patch_75">
    <path d="M 105.739231 320.4 
L 108.409086 320.4 
L 108.409086 56.4 
L 105.739231 56.4 
z
" clip-path="url(#p14b7884352)" style="fill: #bcbd22"/>
   </g>
   <g id="patch_76">
    <path d="M 172.485652 320.4 
L 175.155513 320.4 
L 175.155513 320.4 
L 172.485652 320.4 
z
" clip-path="url(#p14b7884352)" style="fill: #bcbd22"/>
   </g>
   <g id="patch_77">
    <path d="M 239.232061 320.4 
L 241.901923 320.4 
L 241.901923 320.4 
L 239.232061 320.4 
z
" clip-path="url(#p14b7884352)" style="fill: #bcbd22"/>
   </g>
   <g id="patch_78">
    <path d="M 305.978482 320.4 
L 308.648332 320.4 
L 308.648332 320.4 
L 305.978482 320.4 
z
" clip-path="url(#p14b7884352)" style="fill: #bcbd22"/>
   </g>
   <g id="patch_79">
    <path d="M 108.40908 320.4 
L 111.078936 320.4 
L 111.078936 56.4 
L 108.40908 56.4 
z
" clip-path="url(#p14b7884352)" style="fill: #17becf"/>
   </g>
   <g id="patch_80">
    <path d="M 175.155501 320.4 
L 177.825363 320.4 
L 177.825363 320.4 
L 175.155501 320.4 
z
" clip-path="url(#p14b7884352)" style="fill: #17becf"/>
   </g>
   <g id="patch_81">
    <path d="M 241.901923 320.4 
L 244.571772 320.4 
L 244.571772 320.4 
L 241.901923 320.4 
z
" clip-path="url(#p14b7884352)" style="fill: #17becf"/>
   </g>
   <g id="patch_82">
    <path d="M 308.648332 320.4 
L 311.318182 320.4 
L 311.318182 320.4 
L 308.648332 320.4 
z
" clip-path="url(#p14b7884352)" style="fill: #17becf"/>
   </g>
   <g id="matplotlib.axis_1">
    <g id="xtick_1">
     <g id="line2d_1">
      <defs>
       <path id="m7c28bb7fbd" d="M 0 0 
L 0 3.5 
" style="stroke: #000000; stroke-width: 0.8"/>
      </defs>
      <g>
       <use xlink:href="#m7c28bb7fbd" x="49.470815" y="320.4" style="stroke: #000000; stroke-width: 0.8"/>
      </g>
     </g>
     <g id="text_1">
      <!-- 0.00 -->
      <g transform="translate(38.338002 334.998438)scale(0.1 -0.1)">
       <defs>
        <path id="DejaVuSans-30" d="M 2034 4250 
Q 1547 4250 1301 3770 
Q 1056 3291 1056 2328 
Q 1056 1369 1301 889 
Q 1547 409 2034 409 
Q 2525 409 2770 889 
Q 3016 1369 3016 2328 
Q 3016 3291 2770 3770 
Q 2525 4250 2034 4250 
z
M 2034 4750 
Q 2819 4750 3233 4129 
Q 3647 3509 3647 2328 
Q 3647 1150 3233 529 
Q 2819 -91 2034 -91 
Q 1250 -91 836 529 
Q 422 1150 422 2328 
Q 422 3509 836 4129 
Q 1250 4750 2034 4750 
z
" transform="scale(0.015625)"/>
        <path id="DejaVuSans-2e" d="M 684 794 
L 1344 794 
L 1344 0 
L 684 0 
L 684 794 
z
" transform="scale(0.015625)"/>
       </defs>
       <use xlink:href="#DejaVuSans-30"/>
       <use xlink:href="#DejaVuSans-2e" x="63.623047"/>
       <use xlink:href="#DejaVuSans-30" x="95.410156"/>
       <use xlink:href="#DejaVuSans-30" x="159.033203"/>
      </g>
     </g>
    </g>
    <g id="xtick_2">
     <g id="line2d_2">
      <g>
       <use xlink:href="#m7c28bb7fbd" x="89.149301" y="320.4" style="stroke: #000000; stroke-width: 0.8"/>
      </g>
     </g>
     <g id="text_2">
      <!-- 0.05 -->
      <g transform="translate(78.016488 334.998438)scale(0.1 -0.1)">
       <defs>
        <path id="DejaVuSans-35" d="M 691 4666 
L 3169 4666 
L 3169 4134 
L 1269 4134 
L 1269 2991 
Q 1406 3038 1543 3061 
Q 1681 3084 1819 3084 
Q 2600 3084 3056 2656 
Q 3513 2228 3513 1497 
Q 3513 744 3044 326 
Q 2575 -91 1722 -91 
Q 1428 -91 1123 -41 
Q 819 9 494 109 
L 494 744 
Q 775 591 1075 516 
Q 1375 441 1709 441 
Q 2250 441 2565 725 
Q 2881 1009 2881 1497 
Q 2881 1984 2565 2268 
Q 2250 2553 1709 2553 
Q 1456 2553 1204 2497 
Q 953 2441 691 2322 
L 691 4666 
z
" transform="scale(0.015625)"/>
       </defs>
       <use xlink:href="#DejaVuSans-30"/>
       <use xlink:href="#DejaVuSans-2e" x="63.623047"/>
       <use xlink:href="#DejaVuSans-30" x="95.410156"/>
       <use xlink:href="#DejaVuSans-35" x="159.033203"/>
      </g>
     </g>
    </g>
    <g id="xtick_3">
     <g id="line2d_3">
      <g>
       <use xlink:href="#m7c28bb7fbd" x="128.827787" y="320.4" style="stroke: #000000; stroke-width: 0.8"/>
      </g>
     </g>
     <g id="text_3">
      <!-- 0.10 -->
      <g transform="translate(117.694974 334.998438)scale(0.1 -0.1)">
       <defs>
        <path id="DejaVuSans-31" d="M 794 531 
L 1825 531 
L 1825 4091 
L 703 3866 
L 703 4441 
L 1819 4666 
L 2450 4666 
L 2450 531 
L 3481 531 
L 3481 0 
L 794 0 
L 794 531 
z
" transform="scale(0.015625)"/>
       </defs>
       <use xlink:href="#DejaVuSans-30"/>
       <use xlink:href="#DejaVuSans-2e" x="63.623047"/>
       <use xlink:href="#DejaVuSans-31" x="95.410156"/>
       <use xlink:href="#DejaVuSans-30" x="159.033203"/>
      </g>
     </g>
    </g>
    <g id="xtick_4">
     <g id="line2d_4">
      <g>
       <use xlink:href="#m7c28bb7fbd" x="168.506273" y="320.4" style="stroke: #000000; stroke-width: 0.8"/>
      </g>
     </g>
     <g id="text_4">
      <!-- 0.15 -->
      <g transform="translate(157.37346 334.998438)scale(0.1 -0.1)">
       <use xlink:href="#DejaVuSans-30"/>
       <use xlink:href="#DejaVuSans-2e" x="63.623047"/>
       <use xlink:href="#DejaVuSans-31" x="95.410156"/>
       <use xlink:href="#DejaVuSans-35" x="159.033203"/>
      </g>
     </g>
    </g>
    <g id="xtick_5">
     <g id="line2d_5">
      <g>
       <use xlink:href="#m7c28bb7fbd" x="208.184759" y="320.4" style="stroke: #000000; stroke-width: 0.8"/>
      </g>
     </g>
     <g id="text_5">
      <!-- 0.20 -->
      <g transform="translate(197.051946 334.998438)scale(0.1 -0.1)">
       <defs>
        <path id="DejaVuSans-32" d="M 1228 531 
L 3431 531 
L 3431 0 
L 469 0 
L 469 531 
Q 828 903 1448 1529 
Q 2069 2156 2228 2338 
Q 2531 2678 2651 2914 
Q 2772 3150 2772 3378 
Q 2772 3750 2511 3984 
Q 2250 4219 1831 4219 
Q 1534 4219 1204 4116 
Q 875 4013 500 3803 
L 500 4441 
Q 881 4594 1212 4672 
Q 1544 4750 1819 4750 
Q 2544 4750 2975 4387 
Q 3406 4025 3406 3419 
Q 3406 3131 3298 2873 
Q 3191 2616 2906 2266 
Q 2828 2175 2409 1742 
Q 1991 1309 1228 531 
z
" transform="scale(0.015625)"/>
       </defs>
       <use xlink:href="#DejaVuSans-30"/>
       <use xlink:href="#DejaVuSans-2e" x="63.623047"/>
       <use xlink:href="#DejaVuSans-32" x="95.410156"/>
       <use xlink:href="#DejaVuSans-30" x="159.033203"/>
      </g>
     </g>
    </g>
    <g id="xtick_6">
     <g id="line2d_6">
      <g>
       <use xlink:href="#m7c28bb7fbd" x="247.863245" y="320.4" style="stroke: #000000; stroke-width: 0.8"/>
      </g>
     </g>
     <g id="text_6">
      <!-- 0.25 -->
      <g transform="translate(236.730432 334.998438)scale(0.1 -0.1)">
       <use xlink:href="#DejaVuSans-30"/>
       <use xlink:href="#DejaVuSans-2e" x="63.623047"/>
       <use xlink:href="#DejaVuSans-32" x="95.410156"/>
       <use xlink:href="#DejaVuSans-35" x="159.033203"/>
      </g>
     </g>
    </g>
    <g id="xtick_7">
     <g id="line2d_7">
      <g>
       <use xlink:href="#m7c28bb7fbd" x="287.541731" y="320.4" style="stroke: #000000; stroke-width: 0.8"/>
      </g>
     </g>
     <g id="text_7">
      <!-- 0.30 -->
      <g transform="translate(276.408918 334.998438)scale(0.1 -0.1)">
       <defs>
        <path id="DejaVuSans-33" d="M 2597 2516 
Q 3050 2419 3304 2112 
Q 3559 1806 3559 1356 
Q 3559 666 3084 287 
Q 2609 -91 1734 -91 
Q 1441 -91 1130 -33 
Q 819 25 488 141 
L 488 750 
Q 750 597 1062 519 
Q 1375 441 1716 441 
Q 2309 441 2620 675 
Q 2931 909 2931 1356 
Q 2931 1769 2642 2001 
Q 2353 2234 1838 2234 
L 1294 2234 
L 1294 2753 
L 1863 2753 
Q 2328 2753 2575 2939 
Q 2822 3125 2822 3475 
Q 2822 3834 2567 4026 
Q 2313 4219 1838 4219 
Q 1578 4219 1281 4162 
Q 984 4106 628 3988 
L 628 4550 
Q 988 4650 1302 4700 
Q 1616 4750 1894 4750 
Q 2613 4750 3031 4423 
Q 3450 4097 3450 3541 
Q 3450 3153 3228 2886 
Q 3006 2619 2597 2516 
z
" transform="scale(0.015625)"/>
       </defs>
       <use xlink:href="#DejaVuSans-30"/>
       <use xlink:href="#DejaVuSans-2e" x="63.623047"/>
       <use xlink:href="#DejaVuSans-33" x="95.410156"/>
       <use xlink:href="#DejaVuSans-30" x="159.033203"/>
      </g>
     </g>
    </g>
   </g>
   <g id="matplotlib.axis_2">
    <g id="ytick_1">
     <g id="line2d_8">
      <defs>
       <path id="md4f100bbfd" d="M 0 0 
L -3.5 0 
" style="stroke: #000000; stroke-width: 0.8"/>
      </defs>
      <g>
       <use xlink:href="#md4f100bbfd" x="45" y="320.4" style="stroke: #000000; stroke-width: 0.8"/>
      </g>
     </g>
     <g id="text_8">
      <!-- 0.0 -->
      <g transform="translate(22.096875 324.199219)scale(0.1 -0.1)">
       <use xlink:href="#DejaVuSans-30"/>
       <use xlink:href="#DejaVuSans-2e" x="63.623047"/>
       <use xlink:href="#DejaVuSans-30" x="95.410156"/>
      </g>
     </g>
    </g>
    <g id="ytick_2">
     <g id="line2d_9">
      <g>
       <use xlink:href="#md4f100bbfd" x="45" y="267.6" style="stroke: #000000; stroke-width: 0.8"/>
      </g>
     </g>
     <g id="text_9">
      <!-- 0.2 -->
      <g transform="translate(22.096875 271.399219)scale(0.1 -0.1)">
       <use xlink:href="#DejaVuSans-30"/>
       <use xlink:href="#DejaVuSans-2e" x="63.623047"/>
       <use xlink:href="#DejaVuSans-32" x="95.410156"/>
      </g>
     </g>
    </g>
    <g id="ytick_3">
     <g id="line2d_10">
      <g>
       <use xlink:href="#md4f100bbfd" x="45" y="214.8" style="stroke: #000000; stroke-width: 0.8"/>
      </g>
     </g>
     <g id="text_10">
      <!-- 0.4 -->
      <g transform="translate(22.096875 218.599219)scale(0.1 -0.1)">
       <defs>
        <path id="DejaVuSans-34" d="M 2419 4116 
L 825 1625 
L 2419 1625 
L 2419 4116 
z
M 2253 4666 
L 3047 4666 
L 3047 1625 
L 3713 1625 
L 3713 1100 
L 3047 1100 
L 3047 0 
L 2419 0 
L 2419 1100 
L 313 1100 
L 313 1709 
L 2253 4666 
z
" transform="scale(0.015625)"/>
       </defs>
       <use xlink:href="#DejaVuSans-30"/>
       <use xlink:href="#DejaVuSans-2e" x="63.623047"/>
       <use xlink:href="#DejaVuSans-34" x="95.410156"/>
      </g>
     </g>
    </g>
    <g id="ytick_4">
     <g id="line2d_11">
      <g>
       <use xlink:href="#md4f100bbfd" x="45" y="162" style="stroke: #000000; stroke-width: 0.8"/>
      </g>
     </g>
     <g id="text_11">
      <!-- 0.6 -->
      <g transform="translate(22.096875 165.799219)scale(0.1 -0.1)">
       <defs>
        <path id="DejaVuSans-36" d="M 2113 2584 
Q 1688 2584 1439 2293 
Q 1191 2003 1191 1497 
Q 1191 994 1439 701 
Q 1688 409 2113 409 
Q 2538 409 2786 701 
Q 3034 994 3034 1497 
Q 3034 2003 2786 2293 
Q 2538 2584 2113 2584 
z
M 3366 4563 
L 3366 3988 
Q 3128 4100 2886 4159 
Q 2644 4219 2406 4219 
Q 1781 4219 1451 3797 
Q 1122 3375 1075 2522 
Q 1259 2794 1537 2939 
Q 1816 3084 2150 3084 
Q 2853 3084 3261 2657 
Q 3669 2231 3669 1497 
Q 3669 778 3244 343 
Q 2819 -91 2113 -91 
Q 1303 -91 875 529 
Q 447 1150 447 2328 
Q 447 3434 972 4092 
Q 1497 4750 2381 4750 
Q 2619 4750 2861 4703 
Q 3103 4656 3366 4563 
z
" transform="scale(0.015625)"/>
       </defs>
       <use xlink:href="#DejaVuSans-30"/>
       <use xlink:href="#DejaVuSans-2e" x="63.623047"/>
       <use xlink:href="#DejaVuSans-36" x="95.410156"/>
      </g>
     </g>
    </g>
    <g id="ytick_5">
     <g id="line2d_12">
      <g>
       <use xlink:href="#md4f100bbfd" x="45" y="109.2" style="stroke: #000000; stroke-width: 0.8"/>
      </g>
     </g>
     <g id="text_12">
      <!-- 0.8 -->
      <g transform="translate(22.096875 112.999219)scale(0.1 -0.1)">
       <defs>
        <path id="DejaVuSans-38" d="M 2034 2216 
Q 1584 2216 1326 1975 
Q 1069 1734 1069 1313 
Q 1069 891 1326 650 
Q 1584 409 2034 409 
Q 2484 409 2743 651 
Q 3003 894 3003 1313 
Q 3003 1734 2745 1975 
Q 2488 2216 2034 2216 
z
M 1403 2484 
Q 997 2584 770 2862 
Q 544 3141 544 3541 
Q 544 4100 942 4425 
Q 1341 4750 2034 4750 
Q 2731 4750 3128 4425 
Q 3525 4100 3525 3541 
Q 3525 3141 3298 2862 
Q 3072 2584 2669 2484 
Q 3125 2378 3379 2068 
Q 3634 1759 3634 1313 
Q 3634 634 3220 271 
Q 2806 -91 2034 -91 
Q 1263 -91 848 271 
Q 434 634 434 1313 
Q 434 1759 690 2068 
Q 947 2378 1403 2484 
z
M 1172 3481 
Q 1172 3119 1398 2916 
Q 1625 2713 2034 2713 
Q 2441 2713 2670 2916 
Q 2900 3119 2900 3481 
Q 2900 3844 2670 4047 
Q 2441 4250 2034 4250 
Q 1625 4250 1398 4047 
Q 1172 3844 1172 3481 
z
" transform="scale(0.015625)"/>
       </defs>
       <use xlink:href="#DejaVuSans-30"/>
       <use xlink:href="#DejaVuSans-2e" x="63.623047"/>
       <use xlink:href="#DejaVuSans-38" x="95.410156"/>
      </g>
     </g>
    </g>
    <g id="ytick_6">
     <g id="line2d_13">
      <g>
       <use xlink:href="#md4f100bbfd" x="45" y="56.4" style="stroke: #000000; stroke-width: 0.8"/>
      </g>
     </g>
     <g id="text_13">
      <!-- 1.0 -->
      <g transform="translate(22.096875 60.199219)scale(0.1 -0.1)">
       <use xlink:href="#DejaVuSans-31"/>
       <use xlink:href="#DejaVuSans-2e" x="63.623047"/>
       <use xlink:href="#DejaVuSans-30" x="95.410156"/>
      </g>
     </g>
    </g>
   </g>
   <g id="patch_83">
    <path d="M 45 320.4 
L 45 43.2 
" style="fill: none; stroke: #000000; stroke-width: 0.8; stroke-linejoin: miter; stroke-linecap: square"/>
   </g>
   <g id="patch_84">
    <path d="M 324 320.4 
L 324 43.2 
" style="fill: none; stroke: #000000; stroke-width: 0.8; stroke-linejoin: miter; stroke-linecap: square"/>
   </g>
   <g id="patch_85">
    <path d="M 45 320.4 
L 324 320.4 
" style="fill: none; stroke: #000000; stroke-width: 0.8; stroke-linejoin: miter; stroke-linecap: square"/>
   </g>
   <g id="patch_86">
    <path d="M 45 43.2 
L 324 43.2 
" style="fill: none; stroke: #000000; stroke-width: 0.8; stroke-linejoin: miter; stroke-linecap: square"/>
   </g>
   <g id="text_14">
    <!-- Histogram of sigma of last layer -->
    <g transform="translate(88.275937 37.2)scale(0.12 -0.12)">
     <defs>
      <path id="DejaVuSans-48" d="M 628 4666 
L 1259 4666 
L 1259 2753 
L 3553 2753 
L 3553 4666 
L 4184 4666 
L 4184 0 
L 3553 0 
L 3553 2222 
L 1259 2222 
L 1259 0 
L 628 0 
L 628 4666 
z
" transform="scale(0.015625)"/>
      <path id="DejaVuSans-69" d="M 603 3500 
L 1178 3500 
L 1178 0 
L 603 0 
L 603 3500 
z
M 603 4863 
L 1178 4863 
L 1178 4134 
L 603 4134 
L 603 4863 
z
" transform="scale(0.015625)"/>
      <path id="DejaVuSans-73" d="M 2834 3397 
L 2834 2853 
Q 2591 2978 2328 3040 
Q 2066 3103 1784 3103 
Q 1356 3103 1142 2972 
Q 928 2841 928 2578 
Q 928 2378 1081 2264 
Q 1234 2150 1697 2047 
L 1894 2003 
Q 2506 1872 2764 1633 
Q 3022 1394 3022 966 
Q 3022 478 2636 193 
Q 2250 -91 1575 -91 
Q 1294 -91 989 -36 
Q 684 19 347 128 
L 347 722 
Q 666 556 975 473 
Q 1284 391 1588 391 
Q 1994 391 2212 530 
Q 2431 669 2431 922 
Q 2431 1156 2273 1281 
Q 2116 1406 1581 1522 
L 1381 1569 
Q 847 1681 609 1914 
Q 372 2147 372 2553 
Q 372 3047 722 3315 
Q 1072 3584 1716 3584 
Q 2034 3584 2315 3537 
Q 2597 3491 2834 3397 
z
" transform="scale(0.015625)"/>
      <path id="DejaVuSans-74" d="M 1172 4494 
L 1172 3500 
L 2356 3500 
L 2356 3053 
L 1172 3053 
L 1172 1153 
Q 1172 725 1289 603 
Q 1406 481 1766 481 
L 2356 481 
L 2356 0 
L 1766 0 
Q 1100 0 847 248 
Q 594 497 594 1153 
L 594 3053 
L 172 3053 
L 172 3500 
L 594 3500 
L 594 4494 
L 1172 4494 
z
" transform="scale(0.015625)"/>
      <path id="DejaVuSans-6f" d="M 1959 3097 
Q 1497 3097 1228 2736 
Q 959 2375 959 1747 
Q 959 1119 1226 758 
Q 1494 397 1959 397 
Q 2419 397 2687 759 
Q 2956 1122 2956 1747 
Q 2956 2369 2687 2733 
Q 2419 3097 1959 3097 
z
M 1959 3584 
Q 2709 3584 3137 3096 
Q 3566 2609 3566 1747 
Q 3566 888 3137 398 
Q 2709 -91 1959 -91 
Q 1206 -91 779 398 
Q 353 888 353 1747 
Q 353 2609 779 3096 
Q 1206 3584 1959 3584 
z
" transform="scale(0.015625)"/>
      <path id="DejaVuSans-67" d="M 2906 1791 
Q 2906 2416 2648 2759 
Q 2391 3103 1925 3103 
Q 1463 3103 1205 2759 
Q 947 2416 947 1791 
Q 947 1169 1205 825 
Q 1463 481 1925 481 
Q 2391 481 2648 825 
Q 2906 1169 2906 1791 
z
M 3481 434 
Q 3481 -459 3084 -895 
Q 2688 -1331 1869 -1331 
Q 1566 -1331 1297 -1286 
Q 1028 -1241 775 -1147 
L 775 -588 
Q 1028 -725 1275 -790 
Q 1522 -856 1778 -856 
Q 2344 -856 2625 -561 
Q 2906 -266 2906 331 
L 2906 616 
Q 2728 306 2450 153 
Q 2172 0 1784 0 
Q 1141 0 747 490 
Q 353 981 353 1791 
Q 353 2603 747 3093 
Q 1141 3584 1784 3584 
Q 2172 3584 2450 3431 
Q 2728 3278 2906 2969 
L 2906 3500 
L 3481 3500 
L 3481 434 
z
" transform="scale(0.015625)"/>
      <path id="DejaVuSans-72" d="M 2631 2963 
Q 2534 3019 2420 3045 
Q 2306 3072 2169 3072 
Q 1681 3072 1420 2755 
Q 1159 2438 1159 1844 
L 1159 0 
L 581 0 
L 581 3500 
L 1159 3500 
L 1159 2956 
Q 1341 3275 1631 3429 
Q 1922 3584 2338 3584 
Q 2397 3584 2469 3576 
Q 2541 3569 2628 3553 
L 2631 2963 
z
" transform="scale(0.015625)"/>
      <path id="DejaVuSans-61" d="M 2194 1759 
Q 1497 1759 1228 1600 
Q 959 1441 959 1056 
Q 959 750 1161 570 
Q 1363 391 1709 391 
Q 2188 391 2477 730 
Q 2766 1069 2766 1631 
L 2766 1759 
L 2194 1759 
z
M 3341 1997 
L 3341 0 
L 2766 0 
L 2766 531 
Q 2569 213 2275 61 
Q 1981 -91 1556 -91 
Q 1019 -91 701 211 
Q 384 513 384 1019 
Q 384 1609 779 1909 
Q 1175 2209 1959 2209 
L 2766 2209 
L 2766 2266 
Q 2766 2663 2505 2880 
Q 2244 3097 1772 3097 
Q 1472 3097 1187 3025 
Q 903 2953 641 2809 
L 641 3341 
Q 956 3463 1253 3523 
Q 1550 3584 1831 3584 
Q 2591 3584 2966 3190 
Q 3341 2797 3341 1997 
z
" transform="scale(0.015625)"/>
      <path id="DejaVuSans-6d" d="M 3328 2828 
Q 3544 3216 3844 3400 
Q 4144 3584 4550 3584 
Q 5097 3584 5394 3201 
Q 5691 2819 5691 2113 
L 5691 0 
L 5113 0 
L 5113 2094 
Q 5113 2597 4934 2840 
Q 4756 3084 4391 3084 
Q 3944 3084 3684 2787 
Q 3425 2491 3425 1978 
L 3425 0 
L 2847 0 
L 2847 2094 
Q 2847 2600 2669 2842 
Q 2491 3084 2119 3084 
Q 1678 3084 1418 2786 
Q 1159 2488 1159 1978 
L 1159 0 
L 581 0 
L 581 3500 
L 1159 3500 
L 1159 2956 
Q 1356 3278 1631 3431 
Q 1906 3584 2284 3584 
Q 2666 3584 2933 3390 
Q 3200 3197 3328 2828 
z
" transform="scale(0.015625)"/>
      <path id="DejaVuSans-20" transform="scale(0.015625)"/>
      <path id="DejaVuSans-66" d="M 2375 4863 
L 2375 4384 
L 1825 4384 
Q 1516 4384 1395 4259 
Q 1275 4134 1275 3809 
L 1275 3500 
L 2222 3500 
L 2222 3053 
L 1275 3053 
L 1275 0 
L 697 0 
L 697 3053 
L 147 3053 
L 147 3500 
L 697 3500 
L 697 3744 
Q 697 4328 969 4595 
Q 1241 4863 1831 4863 
L 2375 4863 
z
" transform="scale(0.015625)"/>
      <path id="DejaVuSans-6c" d="M 603 4863 
L 1178 4863 
L 1178 0 
L 603 0 
L 603 4863 
z
" transform="scale(0.015625)"/>
      <path id="DejaVuSans-79" d="M 2059 -325 
Q 1816 -950 1584 -1140 
Q 1353 -1331 966 -1331 
L 506 -1331 
L 506 -850 
L 844 -850 
Q 1081 -850 1212 -737 
Q 1344 -625 1503 -206 
L 1606 56 
L 191 3500 
L 800 3500 
L 1894 763 
L 2988 3500 
L 3597 3500 
L 2059 -325 
z
" transform="scale(0.015625)"/>
      <path id="DejaVuSans-65" d="M 3597 1894 
L 3597 1613 
L 953 1613 
Q 991 1019 1311 708 
Q 1631 397 2203 397 
Q 2534 397 2845 478 
Q 3156 559 3463 722 
L 3463 178 
Q 3153 47 2828 -22 
Q 2503 -91 2169 -91 
Q 1331 -91 842 396 
Q 353 884 353 1716 
Q 353 2575 817 3079 
Q 1281 3584 2069 3584 
Q 2775 3584 3186 3129 
Q 3597 2675 3597 1894 
z
M 3022 2063 
Q 3016 2534 2758 2815 
Q 2500 3097 2075 3097 
Q 1594 3097 1305 2825 
Q 1016 2553 972 2059 
L 3022 2063 
z
" transform="scale(0.015625)"/>
     </defs>
     <use xlink:href="#DejaVuSans-48"/>
     <use xlink:href="#DejaVuSans-69" x="75.195312"/>
     <use xlink:href="#DejaVuSans-73" x="102.978516"/>
     <use xlink:href="#DejaVuSans-74" x="155.078125"/>
     <use xlink:href="#DejaVuSans-6f" x="194.287109"/>
     <use xlink:href="#DejaVuSans-67" x="255.46875"/>
     <use xlink:href="#DejaVuSans-72" x="318.945312"/>
     <use xlink:href="#DejaVuSans-61" x="360.058594"/>
     <use xlink:href="#DejaVuSans-6d" x="421.337891"/>
     <use xlink:href="#DejaVuSans-20" x="518.75"/>
     <use xlink:href="#DejaVuSans-6f" x="550.537109"/>
     <use xlink:href="#DejaVuSans-66" x="611.71875"/>
     <use xlink:href="#DejaVuSans-20" x="646.923828"/>
     <use xlink:href="#DejaVuSans-73" x="678.710938"/>
     <use xlink:href="#DejaVuSans-69" x="730.810547"/>
     <use xlink:href="#DejaVuSans-67" x="758.59375"/>
     <use xlink:href="#DejaVuSans-6d" x="822.070312"/>
     <use xlink:href="#DejaVuSans-61" x="919.482422"/>
     <use xlink:href="#DejaVuSans-20" x="980.761719"/>
     <use xlink:href="#DejaVuSans-6f" x="1012.548828"/>
     <use xlink:href="#DejaVuSans-66" x="1073.730469"/>
     <use xlink:href="#DejaVuSans-20" x="1108.935547"/>
     <use xlink:href="#DejaVuSans-6c" x="1140.722656"/>
     <use xlink:href="#DejaVuSans-61" x="1168.505859"/>
     <use xlink:href="#DejaVuSans-73" x="1229.785156"/>
     <use xlink:href="#DejaVuSans-74" x="1281.884766"/>
     <use xlink:href="#DejaVuSans-20" x="1321.09375"/>
     <use xlink:href="#DejaVuSans-6c" x="1352.880859"/>
     <use xlink:href="#DejaVuSans-61" x="1380.664062"/>
     <use xlink:href="#DejaVuSans-79" x="1441.943359"/>
     <use xlink:href="#DejaVuSans-65" x="1501.123047"/>
     <use xlink:href="#DejaVuSans-72" x="1562.646484"/>
    </g>
   </g>
  </g>
 </g>
 <defs>
  <clipPath id="p14b7884352">
   <rect x="45" y="43.2" width="279" height="277.2"/>
  </clipPath>
 </defs>
</svg>
