<?xml version="1.0" encoding="utf-8" standalone="no"?>
<!DOCTYPE svg PUBLIC "-//W3C//DTD SVG 1.1//EN"
  "http://www.w3.org/Graphics/SVG/1.1/DTD/svg11.dtd">
<svg xmlns:xlink="http://www.w3.org/1999/xlink" width="360pt" height="360pt" viewBox="0 0 360 360" xmlns="http://www.w3.org/2000/svg" version="1.1">
 <metadata>
  <rdf:RDF xmlns:dc="http://purl.org/dc/elements/1.1/" xmlns:cc="http://creativecommons.org/ns#" xmlns:rdf="http://www.w3.org/1999/02/22-rdf-syntax-ns#">
   <cc:Work>
    <dc:type rdf:resource="http://purl.org/dc/dcmitype/StillImage"/>
    <dc:date>2022-11-10T20:21:39.022087</dc:date>
    <dc:format>image/svg+xml</dc:format>
    <dc:creator>
     <cc:Agent>
      <dc:title>Matplotlib v3.5.3, https://matplotlib.org/</dc:title>
     </cc:Agent>
    </dc:creator>
   </cc:Work>
  </rdf:RDF>
 </metadata>
 <defs>
  <style type="text/css">*{stroke-linejoin: round; stroke-linecap: butt}</style>
 </defs>
 <g id="figure_1">
  <g id="patch_1">
   <path d="M 0 360 
L 360 360 
L 360 0 
L 0 0 
z
" style="fill: #ffffff"/>
  </g>
  <g id="axes_1">
   <g id="patch_2">
    <path d="M 45 320.4 
L 324 320.4 
L 324 43.2 
L 45 43.2 
z
" style="fill: #ffffff"/>
   </g>
   <g id="matplotlib.axis_1">
    <g id="xtick_1">
     <g id="line2d_1">
      <defs>
       <path id="m155760184e" d="M 0 0 
L 0 3.5 
" style="stroke: #000000; stroke-width: 0.8"/>
      </defs>
      <g>
       <use xlink:href="#m155760184e" x="83.045455" y="320.4" style="stroke: #000000; stroke-width: 0.8"/>
      </g>
     </g>
     <g id="text_1">
      <!-- −2 -->
      <g transform="translate(75.674361 334.998438)scale(0.1 -0.1)">
       <defs>
        <path id="DejaVuSans-2212" d="M 678 2272 
L 4684 2272 
L 4684 1741 
L 678 1741 
L 678 2272 
z
" transform="scale(0.015625)"/>
        <path id="DejaVuSans-32" d="M 1228 531 
L 3431 531 
L 3431 0 
L 469 0 
L 469 531 
Q 828 903 1448 1529 
Q 2069 2156 2228 2338 
Q 2531 2678 2651 2914 
Q 2772 3150 2772 3378 
Q 2772 3750 2511 3984 
Q 2250 4219 1831 4219 
Q 1534 4219 1204 4116 
Q 875 4013 500 3803 
L 500 4441 
Q 881 4594 1212 4672 
Q 1544 4750 1819 4750 
Q 2544 4750 2975 4387 
Q 3406 4025 3406 3419 
Q 3406 3131 3298 2873 
Q 3191 2616 2906 2266 
Q 2828 2175 2409 1742 
Q 1991 1309 1228 531 
z
" transform="scale(0.015625)"/>
       </defs>
       <use xlink:href="#DejaVuSans-2212"/>
       <use xlink:href="#DejaVuSans-32" x="83.789062"/>
      </g>
     </g>
    </g>
    <g id="xtick_2">
     <g id="line2d_2">
      <g>
       <use xlink:href="#m155760184e" x="133.772727" y="320.4" style="stroke: #000000; stroke-width: 0.8"/>
      </g>
     </g>
     <g id="text_2">
      <!-- −1 -->
      <g transform="translate(126.401634 334.998438)scale(0.1 -0.1)">
       <defs>
        <path id="DejaVuSans-31" d="M 794 531 
L 1825 531 
L 1825 4091 
L 703 3866 
L 703 4441 
L 1819 4666 
L 2450 4666 
L 2450 531 
L 3481 531 
L 3481 0 
L 794 0 
L 794 531 
z
" transform="scale(0.015625)"/>
       </defs>
       <use xlink:href="#DejaVuSans-2212"/>
       <use xlink:href="#DejaVuSans-31" x="83.789062"/>
      </g>
     </g>
    </g>
    <g id="xtick_3">
     <g id="line2d_3">
      <g>
       <use xlink:href="#m155760184e" x="184.5" y="320.4" style="stroke: #000000; stroke-width: 0.8"/>
      </g>
     </g>
     <g id="text_3">
      <!-- 0 -->
      <g transform="translate(181.31875 334.998438)scale(0.1 -0.1)">
       <defs>
        <path id="DejaVuSans-30" d="M 2034 4250 
Q 1547 4250 1301 3770 
Q 1056 3291 1056 2328 
Q 1056 1369 1301 889 
Q 1547 409 2034 409 
Q 2525 409 2770 889 
Q 3016 1369 3016 2328 
Q 3016 3291 2770 3770 
Q 2525 4250 2034 4250 
z
M 2034 4750 
Q 2819 4750 3233 4129 
Q 3647 3509 3647 2328 
Q 3647 1150 3233 529 
Q 2819 -91 2034 -91 
Q 1250 -91 836 529 
Q 422 1150 422 2328 
Q 422 3509 836 4129 
Q 1250 4750 2034 4750 
z
" transform="scale(0.015625)"/>
       </defs>
       <use xlink:href="#DejaVuSans-30"/>
      </g>
     </g>
    </g>
    <g id="xtick_4">
     <g id="line2d_4">
      <g>
       <use xlink:href="#m155760184e" x="235.227273" y="320.4" style="stroke: #000000; stroke-width: 0.8"/>
      </g>
     </g>
     <g id="text_4">
      <!-- 1 -->
      <g transform="translate(232.046023 334.998438)scale(0.1 -0.1)">
       <use xlink:href="#DejaVuSans-31"/>
      </g>
     </g>
    </g>
    <g id="xtick_5">
     <g id="line2d_5">
      <g>
       <use xlink:href="#m155760184e" x="285.954545" y="320.4" style="stroke: #000000; stroke-width: 0.8"/>
      </g>
     </g>
     <g id="text_5">
      <!-- 2 -->
      <g transform="translate(282.773295 334.998438)scale(0.1 -0.1)">
       <use xlink:href="#DejaVuSans-32"/>
      </g>
     </g>
    </g>
   </g>
   <g id="matplotlib.axis_2">
    <g id="ytick_1">
     <g id="line2d_6">
      <defs>
       <path id="me988afa22b" d="M 0 0 
L -3.5 0 
" style="stroke: #000000; stroke-width: 0.8"/>
      </defs>
      <g>
       <use xlink:href="#me988afa22b" x="45" y="280.930655" style="stroke: #000000; stroke-width: 0.8"/>
      </g>
     </g>
     <g id="text_6">
      <!-- 0 -->
      <g transform="translate(31.6375 284.729874)scale(0.1 -0.1)">
       <use xlink:href="#DejaVuSans-30"/>
      </g>
     </g>
    </g>
    <g id="ytick_2">
     <g id="line2d_7">
      <g>
       <use xlink:href="#me988afa22b" x="45" y="231.210785" style="stroke: #000000; stroke-width: 0.8"/>
      </g>
     </g>
     <g id="text_7">
      <!-- 10 -->
      <g transform="translate(25.275 235.010004)scale(0.1 -0.1)">
       <use xlink:href="#DejaVuSans-31"/>
       <use xlink:href="#DejaVuSans-30" x="63.623047"/>
      </g>
     </g>
    </g>
    <g id="ytick_3">
     <g id="line2d_8">
      <g>
       <use xlink:href="#me988afa22b" x="45" y="181.490915" style="stroke: #000000; stroke-width: 0.8"/>
      </g>
     </g>
     <g id="text_8">
      <!-- 20 -->
      <g transform="translate(25.275 185.290134)scale(0.1 -0.1)">
       <use xlink:href="#DejaVuSans-32"/>
       <use xlink:href="#DejaVuSans-30" x="63.623047"/>
      </g>
     </g>
    </g>
    <g id="ytick_4">
     <g id="line2d_9">
      <g>
       <use xlink:href="#me988afa22b" x="45" y="131.771045" style="stroke: #000000; stroke-width: 0.8"/>
      </g>
     </g>
     <g id="text_9">
      <!-- 30 -->
      <g transform="translate(25.275 135.570264)scale(0.1 -0.1)">
       <defs>
        <path id="DejaVuSans-33" d="M 2597 2516 
Q 3050 2419 3304 2112 
Q 3559 1806 3559 1356 
Q 3559 666 3084 287 
Q 2609 -91 1734 -91 
Q 1441 -91 1130 -33 
Q 819 25 488 141 
L 488 750 
Q 750 597 1062 519 
Q 1375 441 1716 441 
Q 2309 441 2620 675 
Q 2931 909 2931 1356 
Q 2931 1769 2642 2001 
Q 2353 2234 1838 2234 
L 1294 2234 
L 1294 2753 
L 1863 2753 
Q 2328 2753 2575 2939 
Q 2822 3125 2822 3475 
Q 2822 3834 2567 4026 
Q 2313 4219 1838 4219 
Q 1578 4219 1281 4162 
Q 984 4106 628 3988 
L 628 4550 
Q 988 4650 1302 4700 
Q 1616 4750 1894 4750 
Q 2613 4750 3031 4423 
Q 3450 4097 3450 3541 
Q 3450 3153 3228 2886 
Q 3006 2619 2597 2516 
z
" transform="scale(0.015625)"/>
       </defs>
       <use xlink:href="#DejaVuSans-33"/>
       <use xlink:href="#DejaVuSans-30" x="63.623047"/>
      </g>
     </g>
    </g>
    <g id="ytick_5">
     <g id="line2d_10">
      <g>
       <use xlink:href="#me988afa22b" x="45" y="82.051175" style="stroke: #000000; stroke-width: 0.8"/>
      </g>
     </g>
     <g id="text_10">
      <!-- 40 -->
      <g transform="translate(25.275 85.850394)scale(0.1 -0.1)">
       <defs>
        <path id="DejaVuSans-34" d="M 2419 4116 
L 825 1625 
L 2419 1625 
L 2419 4116 
z
M 2253 4666 
L 3047 4666 
L 3047 1625 
L 3713 1625 
L 3713 1100 
L 3047 1100 
L 3047 0 
L 2419 0 
L 2419 1100 
L 313 1100 
L 313 1709 
L 2253 4666 
z
" transform="scale(0.015625)"/>
       </defs>
       <use xlink:href="#DejaVuSans-34"/>
       <use xlink:href="#DejaVuSans-30" x="63.623047"/>
      </g>
     </g>
    </g>
   </g>
   <g id="line2d_11">
    <path d="M 57.681818 180.051709 
L 62.131574 201.620797 
L 67.852697 225.332312 
L 69.124053 230.113092 
L 71.031098 237.011068 
L 72.938143 243.195459 
L 73.573821 245.491471 
L 74.845188 249.296378 
L 76.116544 253.281543 
L 77.387899 256.850379 
L 78.023577 258.696602 
L 78.659254 260.013815 
L 79.930622 263.421417 
L 82.473333 269.858957 
L 83.109022 271.114151 
L 83.7447 272.711059 
L 84.380384 273.840914 
L 85.016061 275.344427 
L 85.651745 276.489421 
L 86.287423 277.89014 
L 86.923101 278.871354 
L 87.558784 280.430983 
L 88.83014 282.746569 
L 89.465823 283.484171 
L 90.101501 284.703065 
L 90.737185 285.593962 
L 91.372862 287.055141 
L 92.644224 288.988481 
L 93.279902 289.889257 
L 93.915579 290.520642 
L 96.458302 294.109076 
L 97.09398 294.569586 
L 97.729663 295.537603 
L 98.365347 295.996022 
L 99.001025 296.890219 
L 99.636709 297.348286 
L 100.272386 298.318259 
L 100.90807 298.860905 
L 101.543748 299.246117 
L 102.815109 300.488111 
L 103.450781 300.793659 
L 104.086458 301.267603 
L 104.722142 302.089664 
L 105.35782 302.493271 
L 105.993504 302.562845 
L 106.629181 303.283406 
L 108.536226 304.447355 
L 109.171904 304.572006 
L 110.443266 305.41585 
L 111.078949 305.502426 
L 111.714627 305.932864 
L 112.350305 306.211026 
L 112.985988 306.35668 
L 113.621666 306.63998 
L 114.257344 306.766577 
L 114.893027 306.529262 
L 115.528705 306.884211 
L 116.164389 306.9922 
L 116.800067 307.422872 
L 118.707106 307.429214 
L 119.342783 307.75039 
L 119.978467 307.688415 
L 120.614145 307.76619 
L 121.249829 307.639433 
L 121.885506 307.742384 
L 122.521184 307.664149 
L 123.156868 307.8 
L 124.428223 307.709674 
L 125.063907 307.598778 
L 125.699584 307.647641 
L 126.335268 307.169696 
L 126.970946 307.343433 
L 127.606623 306.985673 
L 128.242307 307.017349 
L 128.877991 307.190605 
L 129.513669 306.683632 
L 130.149352 306.7902 
L 132.056391 306.513176 
L 132.692069 306.025746 
L 133.327753 305.973808 
L 133.963431 305.63738 
L 134.599111 305.745101 
L 135.234792 305.155936 
L 135.87047 305.31513 
L 137.777512 304.339323 
L 139.04887 303.765576 
L 139.684551 303.942302 
L 140.320232 303.430009 
L 140.955909 303.341347 
L 141.59159 302.998163 
L 142.227271 302.888358 
L 142.862951 302.202259 
L 143.498632 302.332818 
L 144.13431 301.734604 
L 146.041349 301.127695 
L 146.67703 300.468047 
L 147.31271 300.336454 
L 147.948391 300.052703 
L 148.584072 299.994058 
L 149.219749 299.35778 
L 150.491111 298.941597 
L 151.126789 298.292907 
L 152.39815 297.994115 
L 153.669511 297.209809 
L 154.305195 296.726889 
L 154.940876 296.595224 
L 155.576557 296.337927 
L 156.212234 295.944113 
L 156.847915 295.706251 
L 157.483596 295.092193 
L 158.119276 294.647653 
L 158.754957 294.732375 
L 159.390635 294.098 
L 160.026315 293.683981 
L 161.297675 293.212529 
L 161.933355 292.649384 
L 163.204716 291.99569 
L 164.476068 291.463627 
L 165.111749 291.025881 
L 166.383109 290.436583 
L 167.018788 289.859111 
L 167.654469 289.460338 
L 168.29015 289.35509 
L 170.197195 288.318723 
L 171.468555 287.553781 
L 172.104235 287.510406 
L 172.739914 287.038526 
L 173.375594 286.400657 
L 175.91832 285.4266 
L 176.554 285.166444 
L 178.46104 283.801124 
L 179.09672 283.519636 
L 179.732393 283.530397 
L 181.003753 282.706802 
L 181.639433 282.107812 
L 182.910794 281.778733 
L 183.546474 281.296857 
L 184.182154 281.181304 
L 184.817839 280.935994 
L 185.453519 280.283671 
L 186.089199 280.269749 
L 186.724879 279.89969 
L 187.360559 279.791848 
L 187.996239 279.074378 
L 189.2676 278.547125 
L 189.903285 278.511778 
L 191.174644 277.946107 
L 191.810325 277.263814 
L 192.446005 277.036202 
L 193.081685 276.654051 
L 196.895771 275.367543 
L 197.53145 274.749026 
L 198.167131 274.689568 
L 198.802811 274.335145 
L 199.438491 274.146602 
L 200.074164 273.768002 
L 200.709844 273.617519 
L 201.345524 273.325433 
L 201.981204 272.801509 
L 202.616884 272.679281 
L 203.252564 272.173719 
L 203.888245 272.129016 
L 204.523924 271.953893 
L 205.159609 271.537757 
L 205.79529 271.336776 
L 206.430969 271.014609 
L 207.06665 270.897313 
L 207.702329 270.243359 
L 208.33801 270.276928 
L 208.973691 269.699796 
L 210.245049 269.086957 
L 210.88073 269.17394 
L 211.51641 268.522177 
L 212.152088 268.535116 
L 213.42345 267.613568 
L 214.05913 267.594653 
L 215.330489 267.036953 
L 215.966169 266.894576 
L 216.60185 266.272936 
L 217.237528 266.342077 
L 217.873208 265.641665 
L 219.14457 264.95467 
L 219.780251 264.941164 
L 220.415928 264.77657 
L 221.051609 264.203066 
L 221.68729 263.804971 
L 222.322967 263.869609 
L 222.958648 263.354829 
L 223.594329 263.119824 
L 224.230009 262.660939 
L 224.86569 262.42577 
L 226.137049 261.697446 
L 226.772729 261.505299 
L 227.408407 260.710663 
L 228.044088 260.346672 
L 228.679768 260.229177 
L 229.95113 259.544991 
L 231.222488 258.91497 
L 231.858169 258.185933 
L 232.493847 258.0135 
L 233.129527 257.628679 
L 233.765208 257.073057 
L 235.036569 256.281639 
L 236.307931 255.370539 
L 238.214976 254.132817 
L 238.850654 253.242057 
L 239.486331 253.060809 
L 240.122015 252.396811 
L 240.757693 252.040604 
L 242.664732 250.253979 
L 243.300416 250.034175 
L 244.571771 248.449864 
L 245.207455 248.036764 
L 246.47881 246.653869 
L 247.114494 246.316951 
L 247.750171 245.59445 
L 248.385855 245.173014 
L 250.292894 242.854347 
L 250.928572 242.438297 
L 252.835611 240.335624 
L 254.106973 238.614611 
L 254.74265 237.592822 
L 256.649689 235.482695 
L 257.285373 234.299462 
L 257.921051 233.730207 
L 259.192412 231.615794 
L 259.82809 230.91703 
L 261.735129 227.945572 
L 263.642174 224.991036 
L 264.277852 223.84898 
L 264.913529 222.379925 
L 265.549213 221.622284 
L 266.184897 220.528967 
L 267.456258 217.94457 
L 269.363297 214.174071 
L 269.998975 213.276675 
L 271.270337 210.239383 
L 272.541698 207.792835 
L 273.177376 205.997744 
L 273.813059 204.889045 
L 275.084415 202.059988 
L 276.355776 198.65224 
L 278.898499 192.494242 
L 280.805538 186.920662 
L 281.441222 185.412331 
L 285.890984 171.980594 
L 286.526655 169.515653 
L 287.162333 167.750363 
L 288.433701 163.040011 
L 289.069378 161.028184 
L 289.705056 158.548544 
L 290.340734 156.690839 
L 294.790502 139.161011 
L 297.333212 128.50081 
L 301.14729 111.029125 
L 303.690025 98.548289 
L 306.232736 85.113299 
L 308.139781 74.230458 
L 309.411149 67.167457 
L 311.318182 55.8 
L 311.318182 55.8 
" clip-path="url(#p1070d2ee48)" style="fill: none; stroke: #1f77b4; stroke-width: 1.5; stroke-linecap: square"/>
   </g>
   <g id="line2d_12">
    <path d="M 57.681818 297.251496 
L 123.156868 297.141425 
L 135.234792 296.913088 
L 142.862951 296.560357 
L 148.584072 296.074538 
L 153.033831 295.481255 
L 156.847915 294.757956 
L 160.026315 293.959181 
L 163.204716 292.945102 
L 166.383109 291.686235 
L 169.561514 290.166456 
L 172.739914 288.392228 
L 176.554 285.9806 
L 183.546474 281.175704 
L 187.996239 278.233772 
L 191.810325 275.967964 
L 195.62441 273.992078 
L 199.438491 272.292283 
L 203.888245 270.58199 
L 210.88073 268.200285 
L 217.873208 265.764585 
L 222.322967 263.989574 
L 226.137049 262.242784 
L 229.95113 260.233186 
L 233.129527 258.323932 
L 236.307931 256.174446 
L 239.486331 253.760166 
L 242.664732 251.055613 
L 245.843132 248.032522 
L 249.021533 244.65771 
L 252.199933 240.891408 
L 254.74265 237.565278 
L 257.285373 233.93224 
L 259.82809 229.965285 
L 262.370813 225.639481 
L 264.913529 220.935986 
L 268.091936 214.514693 
L 271.270337 207.513106 
L 275.084415 198.454655 
L 280.169854 185.685925 
L 285.890984 171.371111 
L 289.069378 163.905885 
L 292.247779 157.024395 
L 294.790502 152.020516 
L 297.333212 147.497194 
L 299.875935 143.461286 
L 302.418658 139.900416 
L 304.961381 136.788144 
L 307.504104 134.088966 
L 310.046826 131.762681 
L 311.318182 130.726373 
L 311.318182 130.726373 
" clip-path="url(#p1070d2ee48)" style="fill: none; stroke: #ff7f0e; stroke-width: 1.5; stroke-linecap: square"/>
   </g>
   <g id="line2d_13">
    <path d="M 57.681818 297.741583 
L 123.156868 297.629855 
L 135.234792 297.400788 
L 142.862951 297.049666 
L 148.584072 296.568644 
L 153.033831 295.98341 
L 156.847915 295.271696 
L 160.026315 294.486881 
L 163.204716 293.491133 
L 166.383109 292.254675 
L 169.561514 290.759852 
L 172.739914 289.010017 
L 176.554 286.620435 
L 182.275114 282.692732 
L 187.996239 278.821944 
L 191.810325 276.496039 
L 195.62441 274.447943 
L 199.438491 272.670867 
L 203.888245 270.870076 
L 210.88073 268.351134 
L 217.873208 265.78349 
L 222.322967 263.927922 
L 226.137049 262.117279 
L 229.95113 260.053399 
L 233.765208 257.696103 
L 236.943615 255.481973 
L 240.122015 253.019972 
L 243.300416 250.289271 
L 246.47881 247.26527 
L 249.657211 243.917163 
L 252.835611 240.206158 
L 256.014012 236.085146 
L 258.556734 232.457504 
L 261.099451 228.505741 
L 263.642174 224.205002 
L 266.184897 219.537496 
L 269.363297 213.180025 
L 272.541698 206.269232 
L 276.355776 197.365677 
L 282.712583 181.758961 
L 287.162333 171.038749 
L 290.340734 163.864434 
L 293.519146 157.283204 
L 296.061857 152.517195 
L 298.60458 148.223303 
L 301.14729 144.404202 
L 303.690025 141.044663 
L 306.232736 138.116832 
L 308.775471 135.584797 
L 311.318182 133.408756 
L 311.318182 133.408756 
" clip-path="url(#p1070d2ee48)" style="fill: none; stroke: #2ca02c; stroke-width: 1.5; stroke-linecap: square"/>
   </g>
   <g id="line2d_14">
    <path d="M 57.681818 297.511022 
L 124.428223 297.399643 
L 136.50615 297.160934 
L 143.498632 296.827522 
L 149.219749 296.33232 
L 153.669511 295.720321 
L 157.483596 294.96713 
L 160.661995 294.129201 
L 163.840395 293.059152 
L 167.018788 291.724648 
L 170.197195 290.108848 
L 173.375594 288.221057 
L 177.18968 285.660404 
L 189.903285 276.751844 
L 193.081685 274.883438 
L 196.26009 273.233405 
L 200.074164 271.512994 
L 204.523924 269.773659 
L 221.051609 263.646543 
L 224.86569 261.880458 
L 228.679768 259.861357 
L 231.858169 257.954576 
L 235.036569 255.820977 
L 238.214976 253.440841 
L 241.39337 250.794547 
L 244.571771 247.860289 
L 247.750171 244.611612 
L 250.928572 241.015099 
L 254.106973 237.029092 
L 257.285373 232.604439 
L 259.82809 228.713331 
L 262.370813 224.481929 
L 264.913529 219.889905 
L 268.091936 213.628506 
L 271.270337 206.803674 
L 275.084415 197.967754 
L 280.169854 185.485685 
L 286.526655 169.932265 
L 289.705056 162.681267 
L 292.883456 156.019212 
L 295.426179 151.188687 
L 297.96889 146.832793 
L 300.511613 142.955617 
L 303.054336 139.542999 
L 305.597058 136.567543 
L 308.139781 133.993412 
L 310.682504 131.780576 
L 311.318182 131.279003 
L 311.318182 131.279003 
" clip-path="url(#p1070d2ee48)" style="fill: none; stroke: #d62728; stroke-width: 1.5; stroke-linecap: square"/>
   </g>
   <g id="line2d_15">
    <path d="M 57.681818 297.363742 
L 125.699584 297.255697 
L 137.777512 297.017312 
L 144.769991 296.677416 
L 149.85543 296.236717 
L 154.305195 295.632993 
L 158.119276 294.882109 
L 161.297675 294.039806 
L 164.476068 292.957058 
L 167.654469 291.599745 
L 170.832874 289.951123 
L 174.011274 288.023791 
L 177.82536 285.416978 
L 189.2676 277.332888 
L 192.446005 275.439041 
L 195.62441 273.779573 
L 199.438491 272.07371 
L 203.252564 270.613407 
L 208.973691 268.689709 
L 217.873208 265.71611 
L 222.322967 263.990503 
L 226.137049 262.287937 
L 229.95113 260.32648 
L 233.129527 258.46208 
L 236.307931 256.363368 
L 239.486331 254.007298 
L 242.664732 251.36997 
L 245.843132 248.424662 
L 249.021533 245.139778 
L 252.199933 241.477071 
L 254.74265 238.244558 
L 257.285373 234.71522 
L 259.82809 230.862112 
L 262.370813 226.659762 
L 264.913529 222.087895 
L 267.456258 217.13589 
L 270.634659 210.419665 
L 273.813059 203.170489 
L 277.627138 193.928308 
L 288.433701 167.347664 
L 291.612101 160.305565 
L 294.154824 155.139208 
L 296.697535 150.436414 
L 299.240257 146.215145 
L 301.78298 142.472138 
L 304.325703 139.187631 
L 306.868426 136.330517 
L 309.411149 133.862941 
L 311.318182 132.24338 
L 311.318182 132.24338 
" clip-path="url(#p1070d2ee48)" style="fill: none; stroke: #9467bd; stroke-width: 1.5; stroke-linecap: square"/>
   </g>
   <g id="line2d_16">
    <path d="M 57.681818 297.742331 
L 121.249829 297.630762 
L 133.327753 297.406598 
L 140.955909 297.068755 
L 146.67703 296.611766 
L 151.126789 296.060975 
L 154.940876 295.395758 
L 158.754957 294.497435 
L 161.933355 293.531616 
L 165.111749 292.339185 
L 168.29015 290.904085 
L 171.468555 289.228992 
L 175.28264 286.943322 
L 181.003753 283.173973 
L 187.360559 279.029604 
L 191.174644 276.795599 
L 194.98873 274.825298 
L 198.802811 273.113708 
L 203.252564 271.381114 
L 209.60937 269.187052 
L 217.873208 266.313595 
L 222.322967 264.539833 
L 226.137049 262.805328 
L 229.95113 260.823771 
L 233.765208 258.554703 
L 236.943615 256.41798 
L 240.122015 254.036113 
L 243.300416 251.38727 
L 246.47881 248.445743 
L 249.657211 245.179515 
L 252.835611 241.548492 
L 256.014012 237.504338 
L 258.556734 233.935184 
L 261.099451 230.038785 
L 263.642174 225.790019 
L 266.184897 221.171096 
L 269.363297 214.87008 
L 272.541698 208.012175 
L 276.355776 199.170019 
L 282.712583 183.670247 
L 287.162333 173.033953 
L 290.340734 165.924551 
L 293.519146 159.410966 
L 296.061857 154.699703 
L 298.60458 150.459876 
L 301.14729 146.693 
L 303.690025 143.382944 
L 306.232736 140.501136 
L 308.775471 138.011207 
L 311.318182 135.873156 
L 311.318182 135.873156 
" clip-path="url(#p1070d2ee48)" style="fill: none; stroke: #8c564b; stroke-width: 1.5; stroke-linecap: square"/>
   </g>
   <g id="line2d_17">
    <path d="M 57.681818 297.507291 
L 124.428223 297.394348 
L 136.50615 297.155831 
L 144.13431 296.783008 
L 149.219749 296.337205 
L 153.669511 295.736625 
L 157.483596 295.000046 
L 160.661995 294.182805 
L 163.840395 293.141453 
L 167.018788 291.845093 
L 170.197195 290.277552 
L 173.375594 288.447515 
L 177.18968 285.965418 
L 190.538964 276.927684 
L 194.353045 274.818062 
L 198.167131 273.006369 
L 201.981204 271.444736 
L 207.06665 269.61815 
L 218.508889 265.621488 
L 222.958648 263.787489 
L 226.772729 261.980972 
L 230.586807 259.907872 
L 233.765208 257.946592 
L 236.943615 255.749371 
L 240.122015 253.294756 
L 243.300416 250.559926 
L 246.47881 247.518485 
L 249.657211 244.138179 
L 252.835611 240.379275 
L 256.014012 236.194395 
L 258.556734 232.504484 
L 261.099451 228.481282 
L 263.642174 224.101135 
L 266.184897 219.348032 
L 269.363297 212.878663 
L 272.541698 205.856308 
L 276.355776 196.829636 
L 289.705056 164.523994 
L 292.883456 157.827545 
L 295.426179 152.968647 
L 297.96889 148.584585 
L 300.511613 144.680208 
L 303.054336 141.241903 
L 305.597058 138.242583 
L 308.139781 135.646637 
L 310.682504 133.414074 
L 311.318182 132.907885 
L 311.318182 132.907885 
" clip-path="url(#p1070d2ee48)" style="fill: none; stroke: #e377c2; stroke-width: 1.5; stroke-linecap: square"/>
   </g>
   <g id="patch_3">
    <path d="M 45 320.4 
L 45 43.2 
" style="fill: none; stroke: #000000; stroke-width: 0.8; stroke-linejoin: miter; stroke-linecap: square"/>
   </g>
   <g id="patch_4">
    <path d="M 324 320.4 
L 324 43.2 
" style="fill: none; stroke: #000000; stroke-width: 0.8; stroke-linejoin: miter; stroke-linecap: square"/>
   </g>
   <g id="patch_5">
    <path d="M 45 320.4 
L 324 320.4 
" style="fill: none; stroke: #000000; stroke-width: 0.8; stroke-linejoin: miter; stroke-linecap: square"/>
   </g>
   <g id="patch_6">
    <path d="M 45 43.2 
L 324 43.2 
" style="fill: none; stroke: #000000; stroke-width: 0.8; stroke-linejoin: miter; stroke-linecap: square"/>
   </g>
   <g id="text_11">
    <!-- Prediction Curves -->
    <g transform="translate(131.961563 37.2)scale(0.12 -0.12)">
     <defs>
      <path id="DejaVuSans-50" d="M 1259 4147 
L 1259 2394 
L 2053 2394 
Q 2494 2394 2734 2622 
Q 2975 2850 2975 3272 
Q 2975 3691 2734 3919 
Q 2494 4147 2053 4147 
L 1259 4147 
z
M 628 4666 
L 2053 4666 
Q 2838 4666 3239 4311 
Q 3641 3956 3641 3272 
Q 3641 2581 3239 2228 
Q 2838 1875 2053 1875 
L 1259 1875 
L 1259 0 
L 628 0 
L 628 4666 
z
" transform="scale(0.015625)"/>
      <path id="DejaVuSans-72" d="M 2631 2963 
Q 2534 3019 2420 3045 
Q 2306 3072 2169 3072 
Q 1681 3072 1420 2755 
Q 1159 2438 1159 1844 
L 1159 0 
L 581 0 
L 581 3500 
L 1159 3500 
L 1159 2956 
Q 1341 3275 1631 3429 
Q 1922 3584 2338 3584 
Q 2397 3584 2469 3576 
Q 2541 3569 2628 3553 
L 2631 2963 
z
" transform="scale(0.015625)"/>
      <path id="DejaVuSans-65" d="M 3597 1894 
L 3597 1613 
L 953 1613 
Q 991 1019 1311 708 
Q 1631 397 2203 397 
Q 2534 397 2845 478 
Q 3156 559 3463 722 
L 3463 178 
Q 3153 47 2828 -22 
Q 2503 -91 2169 -91 
Q 1331 -91 842 396 
Q 353 884 353 1716 
Q 353 2575 817 3079 
Q 1281 3584 2069 3584 
Q 2775 3584 3186 3129 
Q 3597 2675 3597 1894 
z
M 3022 2063 
Q 3016 2534 2758 2815 
Q 2500 3097 2075 3097 
Q 1594 3097 1305 2825 
Q 1016 2553 972 2059 
L 3022 2063 
z
" transform="scale(0.015625)"/>
      <path id="DejaVuSans-64" d="M 2906 2969 
L 2906 4863 
L 3481 4863 
L 3481 0 
L 2906 0 
L 2906 525 
Q 2725 213 2448 61 
Q 2172 -91 1784 -91 
Q 1150 -91 751 415 
Q 353 922 353 1747 
Q 353 2572 751 3078 
Q 1150 3584 1784 3584 
Q 2172 3584 2448 3432 
Q 2725 3281 2906 2969 
z
M 947 1747 
Q 947 1113 1208 752 
Q 1469 391 1925 391 
Q 2381 391 2643 752 
Q 2906 1113 2906 1747 
Q 2906 2381 2643 2742 
Q 2381 3103 1925 3103 
Q 1469 3103 1208 2742 
Q 947 2381 947 1747 
z
" transform="scale(0.015625)"/>
      <path id="DejaVuSans-69" d="M 603 3500 
L 1178 3500 
L 1178 0 
L 603 0 
L 603 3500 
z
M 603 4863 
L 1178 4863 
L 1178 4134 
L 603 4134 
L 603 4863 
z
" transform="scale(0.015625)"/>
      <path id="DejaVuSans-63" d="M 3122 3366 
L 3122 2828 
Q 2878 2963 2633 3030 
Q 2388 3097 2138 3097 
Q 1578 3097 1268 2742 
Q 959 2388 959 1747 
Q 959 1106 1268 751 
Q 1578 397 2138 397 
Q 2388 397 2633 464 
Q 2878 531 3122 666 
L 3122 134 
Q 2881 22 2623 -34 
Q 2366 -91 2075 -91 
Q 1284 -91 818 406 
Q 353 903 353 1747 
Q 353 2603 823 3093 
Q 1294 3584 2113 3584 
Q 2378 3584 2631 3529 
Q 2884 3475 3122 3366 
z
" transform="scale(0.015625)"/>
      <path id="DejaVuSans-74" d="M 1172 4494 
L 1172 3500 
L 2356 3500 
L 2356 3053 
L 1172 3053 
L 1172 1153 
Q 1172 725 1289 603 
Q 1406 481 1766 481 
L 2356 481 
L 2356 0 
L 1766 0 
Q 1100 0 847 248 
Q 594 497 594 1153 
L 594 3053 
L 172 3053 
L 172 3500 
L 594 3500 
L 594 4494 
L 1172 4494 
z
" transform="scale(0.015625)"/>
      <path id="DejaVuSans-6f" d="M 1959 3097 
Q 1497 3097 1228 2736 
Q 959 2375 959 1747 
Q 959 1119 1226 758 
Q 1494 397 1959 397 
Q 2419 397 2687 759 
Q 2956 1122 2956 1747 
Q 2956 2369 2687 2733 
Q 2419 3097 1959 3097 
z
M 1959 3584 
Q 2709 3584 3137 3096 
Q 3566 2609 3566 1747 
Q 3566 888 3137 398 
Q 2709 -91 1959 -91 
Q 1206 -91 779 398 
Q 353 888 353 1747 
Q 353 2609 779 3096 
Q 1206 3584 1959 3584 
z
" transform="scale(0.015625)"/>
      <path id="DejaVuSans-6e" d="M 3513 2113 
L 3513 0 
L 2938 0 
L 2938 2094 
Q 2938 2591 2744 2837 
Q 2550 3084 2163 3084 
Q 1697 3084 1428 2787 
Q 1159 2491 1159 1978 
L 1159 0 
L 581 0 
L 581 3500 
L 1159 3500 
L 1159 2956 
Q 1366 3272 1645 3428 
Q 1925 3584 2291 3584 
Q 2894 3584 3203 3211 
Q 3513 2838 3513 2113 
z
" transform="scale(0.015625)"/>
      <path id="DejaVuSans-20" transform="scale(0.015625)"/>
      <path id="DejaVuSans-43" d="M 4122 4306 
L 4122 3641 
Q 3803 3938 3442 4084 
Q 3081 4231 2675 4231 
Q 1875 4231 1450 3742 
Q 1025 3253 1025 2328 
Q 1025 1406 1450 917 
Q 1875 428 2675 428 
Q 3081 428 3442 575 
Q 3803 722 4122 1019 
L 4122 359 
Q 3791 134 3420 21 
Q 3050 -91 2638 -91 
Q 1578 -91 968 557 
Q 359 1206 359 2328 
Q 359 3453 968 4101 
Q 1578 4750 2638 4750 
Q 3056 4750 3426 4639 
Q 3797 4528 4122 4306 
z
" transform="scale(0.015625)"/>
      <path id="DejaVuSans-75" d="M 544 1381 
L 544 3500 
L 1119 3500 
L 1119 1403 
Q 1119 906 1312 657 
Q 1506 409 1894 409 
Q 2359 409 2629 706 
Q 2900 1003 2900 1516 
L 2900 3500 
L 3475 3500 
L 3475 0 
L 2900 0 
L 2900 538 
Q 2691 219 2414 64 
Q 2138 -91 1772 -91 
Q 1169 -91 856 284 
Q 544 659 544 1381 
z
M 1991 3584 
L 1991 3584 
z
" transform="scale(0.015625)"/>
      <path id="DejaVuSans-76" d="M 191 3500 
L 800 3500 
L 1894 563 
L 2988 3500 
L 3597 3500 
L 2284 0 
L 1503 0 
L 191 3500 
z
" transform="scale(0.015625)"/>
      <path id="DejaVuSans-73" d="M 2834 3397 
L 2834 2853 
Q 2591 2978 2328 3040 
Q 2066 3103 1784 3103 
Q 1356 3103 1142 2972 
Q 928 2841 928 2578 
Q 928 2378 1081 2264 
Q 1234 2150 1697 2047 
L 1894 2003 
Q 2506 1872 2764 1633 
Q 3022 1394 3022 966 
Q 3022 478 2636 193 
Q 2250 -91 1575 -91 
Q 1294 -91 989 -36 
Q 684 19 347 128 
L 347 722 
Q 666 556 975 473 
Q 1284 391 1588 391 
Q 1994 391 2212 530 
Q 2431 669 2431 922 
Q 2431 1156 2273 1281 
Q 2116 1406 1581 1522 
L 1381 1569 
Q 847 1681 609 1914 
Q 372 2147 372 2553 
Q 372 3047 722 3315 
Q 1072 3584 1716 3584 
Q 2034 3584 2315 3537 
Q 2597 3491 2834 3397 
z
" transform="scale(0.015625)"/>
     </defs>
     <use xlink:href="#DejaVuSans-50"/>
     <use xlink:href="#DejaVuSans-72" x="58.552734"/>
     <use xlink:href="#DejaVuSans-65" x="97.416016"/>
     <use xlink:href="#DejaVuSans-64" x="158.939453"/>
     <use xlink:href="#DejaVuSans-69" x="222.416016"/>
     <use xlink:href="#DejaVuSans-63" x="250.199219"/>
     <use xlink:href="#DejaVuSans-74" x="305.179688"/>
     <use xlink:href="#DejaVuSans-69" x="344.388672"/>
     <use xlink:href="#DejaVuSans-6f" x="372.171875"/>
     <use xlink:href="#DejaVuSans-6e" x="433.353516"/>
     <use xlink:href="#DejaVuSans-20" x="496.732422"/>
     <use xlink:href="#DejaVuSans-43" x="528.519531"/>
     <use xlink:href="#DejaVuSans-75" x="598.34375"/>
     <use xlink:href="#DejaVuSans-72" x="661.722656"/>
     <use xlink:href="#DejaVuSans-76" x="702.835938"/>
     <use xlink:href="#DejaVuSans-65" x="762.015625"/>
     <use xlink:href="#DejaVuSans-73" x="823.539062"/>
    </g>
   </g>
   <g id="legend_1">
    <g id="patch_7">
     <path d="M 52 153.946875 
L 195.94375 153.946875 
Q 197.94375 153.946875 197.94375 151.946875 
L 197.94375 50.2 
Q 197.94375 48.2 195.94375 48.2 
L 52 48.2 
Q 50 48.2 50 50.2 
L 50 151.946875 
Q 50 153.946875 52 153.946875 
z
" style="fill: #ffffff; opacity: 0.8; stroke: #cccccc; stroke-linejoin: miter"/>
    </g>
    <g id="line2d_18">
     <path d="M 54 56.298437 
L 64 56.298437 
L 74 56.298437 
" style="fill: none; stroke: #1f77b4; stroke-width: 1.5; stroke-linecap: square"/>
    </g>
    <g id="text_12">
     <!-- Function with noise -->
     <g transform="translate(82 59.798437)scale(0.1 -0.1)">
      <defs>
       <path id="DejaVuSans-46" d="M 628 4666 
L 3309 4666 
L 3309 4134 
L 1259 4134 
L 1259 2759 
L 3109 2759 
L 3109 2228 
L 1259 2228 
L 1259 0 
L 628 0 
L 628 4666 
z
" transform="scale(0.015625)"/>
       <path id="DejaVuSans-77" d="M 269 3500 
L 844 3500 
L 1563 769 
L 2278 3500 
L 2956 3500 
L 3675 769 
L 4391 3500 
L 4966 3500 
L 4050 0 
L 3372 0 
L 2619 2869 
L 1863 0 
L 1184 0 
L 269 3500 
z
" transform="scale(0.015625)"/>
       <path id="DejaVuSans-68" d="M 3513 2113 
L 3513 0 
L 2938 0 
L 2938 2094 
Q 2938 2591 2744 2837 
Q 2550 3084 2163 3084 
Q 1697 3084 1428 2787 
Q 1159 2491 1159 1978 
L 1159 0 
L 581 0 
L 581 4863 
L 1159 4863 
L 1159 2956 
Q 1366 3272 1645 3428 
Q 1925 3584 2291 3584 
Q 2894 3584 3203 3211 
Q 3513 2838 3513 2113 
z
" transform="scale(0.015625)"/>
      </defs>
      <use xlink:href="#DejaVuSans-46"/>
      <use xlink:href="#DejaVuSans-75" x="52.019531"/>
      <use xlink:href="#DejaVuSans-6e" x="115.398438"/>
      <use xlink:href="#DejaVuSans-63" x="178.777344"/>
      <use xlink:href="#DejaVuSans-74" x="233.757812"/>
      <use xlink:href="#DejaVuSans-69" x="272.966797"/>
      <use xlink:href="#DejaVuSans-6f" x="300.75"/>
      <use xlink:href="#DejaVuSans-6e" x="361.931641"/>
      <use xlink:href="#DejaVuSans-20" x="425.310547"/>
      <use xlink:href="#DejaVuSans-77" x="457.097656"/>
      <use xlink:href="#DejaVuSans-69" x="538.884766"/>
      <use xlink:href="#DejaVuSans-74" x="566.667969"/>
      <use xlink:href="#DejaVuSans-68" x="605.876953"/>
      <use xlink:href="#DejaVuSans-20" x="669.255859"/>
      <use xlink:href="#DejaVuSans-6e" x="701.042969"/>
      <use xlink:href="#DejaVuSans-6f" x="764.421875"/>
      <use xlink:href="#DejaVuSans-69" x="825.603516"/>
      <use xlink:href="#DejaVuSans-73" x="853.386719"/>
      <use xlink:href="#DejaVuSans-65" x="905.486328"/>
     </g>
    </g>
    <g id="line2d_19">
     <path d="M 54 70.976562 
L 64 70.976562 
L 74 70.976562 
" style="fill: none; stroke: #ff7f0e; stroke-width: 1.5; stroke-linecap: square"/>
    </g>
    <g id="text_13">
     <!-- Prediction 1 -->
     <g transform="translate(82 74.476562)scale(0.1 -0.1)">
      <use xlink:href="#DejaVuSans-50"/>
      <use xlink:href="#DejaVuSans-72" x="58.552734"/>
      <use xlink:href="#DejaVuSans-65" x="97.416016"/>
      <use xlink:href="#DejaVuSans-64" x="158.939453"/>
      <use xlink:href="#DejaVuSans-69" x="222.416016"/>
      <use xlink:href="#DejaVuSans-63" x="250.199219"/>
      <use xlink:href="#DejaVuSans-74" x="305.179688"/>
      <use xlink:href="#DejaVuSans-69" x="344.388672"/>
      <use xlink:href="#DejaVuSans-6f" x="372.171875"/>
      <use xlink:href="#DejaVuSans-6e" x="433.353516"/>
      <use xlink:href="#DejaVuSans-20" x="496.732422"/>
      <use xlink:href="#DejaVuSans-31" x="528.519531"/>
     </g>
    </g>
    <g id="line2d_20">
     <path d="M 54 85.654687 
L 64 85.654687 
L 74 85.654687 
" style="fill: none; stroke: #2ca02c; stroke-width: 1.5; stroke-linecap: square"/>
    </g>
    <g id="text_14">
     <!-- Prediction 2 -->
     <g transform="translate(82 89.154687)scale(0.1 -0.1)">
      <use xlink:href="#DejaVuSans-50"/>
      <use xlink:href="#DejaVuSans-72" x="58.552734"/>
      <use xlink:href="#DejaVuSans-65" x="97.416016"/>
      <use xlink:href="#DejaVuSans-64" x="158.939453"/>
      <use xlink:href="#DejaVuSans-69" x="222.416016"/>
      <use xlink:href="#DejaVuSans-63" x="250.199219"/>
      <use xlink:href="#DejaVuSans-74" x="305.179688"/>
      <use xlink:href="#DejaVuSans-69" x="344.388672"/>
      <use xlink:href="#DejaVuSans-6f" x="372.171875"/>
      <use xlink:href="#DejaVuSans-6e" x="433.353516"/>
      <use xlink:href="#DejaVuSans-20" x="496.732422"/>
      <use xlink:href="#DejaVuSans-32" x="528.519531"/>
     </g>
    </g>
    <g id="line2d_21">
     <path d="M 54 100.332812 
L 64 100.332812 
L 74 100.332812 
" style="fill: none; stroke: #d62728; stroke-width: 1.5; stroke-linecap: square"/>
    </g>
    <g id="text_15">
     <!-- Prediction 3 -->
     <g transform="translate(82 103.832812)scale(0.1 -0.1)">
      <use xlink:href="#DejaVuSans-50"/>
      <use xlink:href="#DejaVuSans-72" x="58.552734"/>
      <use xlink:href="#DejaVuSans-65" x="97.416016"/>
      <use xlink:href="#DejaVuSans-64" x="158.939453"/>
      <use xlink:href="#DejaVuSans-69" x="222.416016"/>
      <use xlink:href="#DejaVuSans-63" x="250.199219"/>
      <use xlink:href="#DejaVuSans-74" x="305.179688"/>
      <use xlink:href="#DejaVuSans-69" x="344.388672"/>
      <use xlink:href="#DejaVuSans-6f" x="372.171875"/>
      <use xlink:href="#DejaVuSans-6e" x="433.353516"/>
      <use xlink:href="#DejaVuSans-20" x="496.732422"/>
      <use xlink:href="#DejaVuSans-33" x="528.519531"/>
     </g>
    </g>
    <g id="line2d_22">
     <path d="M 54 115.010937 
L 64 115.010937 
L 74 115.010937 
" style="fill: none; stroke: #9467bd; stroke-width: 1.5; stroke-linecap: square"/>
    </g>
    <g id="text_16">
     <!-- Prediction 4 -->
     <g transform="translate(82 118.510937)scale(0.1 -0.1)">
      <use xlink:href="#DejaVuSans-50"/>
      <use xlink:href="#DejaVuSans-72" x="58.552734"/>
      <use xlink:href="#DejaVuSans-65" x="97.416016"/>
      <use xlink:href="#DejaVuSans-64" x="158.939453"/>
      <use xlink:href="#DejaVuSans-69" x="222.416016"/>
      <use xlink:href="#DejaVuSans-63" x="250.199219"/>
      <use xlink:href="#DejaVuSans-74" x="305.179688"/>
      <use xlink:href="#DejaVuSans-69" x="344.388672"/>
      <use xlink:href="#DejaVuSans-6f" x="372.171875"/>
      <use xlink:href="#DejaVuSans-6e" x="433.353516"/>
      <use xlink:href="#DejaVuSans-20" x="496.732422"/>
      <use xlink:href="#DejaVuSans-34" x="528.519531"/>
     </g>
    </g>
    <g id="line2d_23">
     <path d="M 54 129.689062 
L 64 129.689062 
L 74 129.689062 
" style="fill: none; stroke: #8c564b; stroke-width: 1.5; stroke-linecap: square"/>
    </g>
    <g id="text_17">
     <!-- Prediction 5 -->
     <g transform="translate(82 133.189062)scale(0.1 -0.1)">
      <defs>
       <path id="DejaVuSans-35" d="M 691 4666 
L 3169 4666 
L 3169 4134 
L 1269 4134 
L 1269 2991 
Q 1406 3038 1543 3061 
Q 1681 3084 1819 3084 
Q 2600 3084 3056 2656 
Q 3513 2228 3513 1497 
Q 3513 744 3044 326 
Q 2575 -91 1722 -91 
Q 1428 -91 1123 -41 
Q 819 9 494 109 
L 494 744 
Q 775 591 1075 516 
Q 1375 441 1709 441 
Q 2250 441 2565 725 
Q 2881 1009 2881 1497 
Q 2881 1984 2565 2268 
Q 2250 2553 1709 2553 
Q 1456 2553 1204 2497 
Q 953 2441 691 2322 
L 691 4666 
z
" transform="scale(0.015625)"/>
      </defs>
      <use xlink:href="#DejaVuSans-50"/>
      <use xlink:href="#DejaVuSans-72" x="58.552734"/>
      <use xlink:href="#DejaVuSans-65" x="97.416016"/>
      <use xlink:href="#DejaVuSans-64" x="158.939453"/>
      <use xlink:href="#DejaVuSans-69" x="222.416016"/>
      <use xlink:href="#DejaVuSans-63" x="250.199219"/>
      <use xlink:href="#DejaVuSans-74" x="305.179688"/>
      <use xlink:href="#DejaVuSans-69" x="344.388672"/>
      <use xlink:href="#DejaVuSans-6f" x="372.171875"/>
      <use xlink:href="#DejaVuSans-6e" x="433.353516"/>
      <use xlink:href="#DejaVuSans-20" x="496.732422"/>
      <use xlink:href="#DejaVuSans-35" x="528.519531"/>
     </g>
    </g>
    <g id="line2d_24">
     <path d="M 54 144.367187 
L 64 144.367187 
L 74 144.367187 
" style="fill: none; stroke: #e377c2; stroke-width: 1.5; stroke-linecap: square"/>
    </g>
    <g id="text_18">
     <!-- Average of Predictions -->
     <g transform="translate(82 147.867187)scale(0.1 -0.1)">
      <defs>
       <path id="DejaVuSans-41" d="M 2188 4044 
L 1331 1722 
L 3047 1722 
L 2188 4044 
z
M 1831 4666 
L 2547 4666 
L 4325 0 
L 3669 0 
L 3244 1197 
L 1141 1197 
L 716 0 
L 50 0 
L 1831 4666 
z
" transform="scale(0.015625)"/>
       <path id="DejaVuSans-61" d="M 2194 1759 
Q 1497 1759 1228 1600 
Q 959 1441 959 1056 
Q 959 750 1161 570 
Q 1363 391 1709 391 
Q 2188 391 2477 730 
Q 2766 1069 2766 1631 
L 2766 1759 
L 2194 1759 
z
M 3341 1997 
L 3341 0 
L 2766 0 
L 2766 531 
Q 2569 213 2275 61 
Q 1981 -91 1556 -91 
Q 1019 -91 701 211 
Q 384 513 384 1019 
Q 384 1609 779 1909 
Q 1175 2209 1959 2209 
L 2766 2209 
L 2766 2266 
Q 2766 2663 2505 2880 
Q 2244 3097 1772 3097 
Q 1472 3097 1187 3025 
Q 903 2953 641 2809 
L 641 3341 
Q 956 3463 1253 3523 
Q 1550 3584 1831 3584 
Q 2591 3584 2966 3190 
Q 3341 2797 3341 1997 
z
" transform="scale(0.015625)"/>
       <path id="DejaVuSans-67" d="M 2906 1791 
Q 2906 2416 2648 2759 
Q 2391 3103 1925 3103 
Q 1463 3103 1205 2759 
Q 947 2416 947 1791 
Q 947 1169 1205 825 
Q 1463 481 1925 481 
Q 2391 481 2648 825 
Q 2906 1169 2906 1791 
z
M 3481 434 
Q 3481 -459 3084 -895 
Q 2688 -1331 1869 -1331 
Q 1566 -1331 1297 -1286 
Q 1028 -1241 775 -1147 
L 775 -588 
Q 1028 -725 1275 -790 
Q 1522 -856 1778 -856 
Q 2344 -856 2625 -561 
Q 2906 -266 2906 331 
L 2906 616 
Q 2728 306 2450 153 
Q 2172 0 1784 0 
Q 1141 0 747 490 
Q 353 981 353 1791 
Q 353 2603 747 3093 
Q 1141 3584 1784 3584 
Q 2172 3584 2450 3431 
Q 2728 3278 2906 2969 
L 2906 3500 
L 3481 3500 
L 3481 434 
z
" transform="scale(0.015625)"/>
       <path id="DejaVuSans-66" d="M 2375 4863 
L 2375 4384 
L 1825 4384 
Q 1516 4384 1395 4259 
Q 1275 4134 1275 3809 
L 1275 3500 
L 2222 3500 
L 2222 3053 
L 1275 3053 
L 1275 0 
L 697 0 
L 697 3053 
L 147 3053 
L 147 3500 
L 697 3500 
L 697 3744 
Q 697 4328 969 4595 
Q 1241 4863 1831 4863 
L 2375 4863 
z
" transform="scale(0.015625)"/>
      </defs>
      <use xlink:href="#DejaVuSans-41"/>
      <use xlink:href="#DejaVuSans-76" x="62.533203"/>
      <use xlink:href="#DejaVuSans-65" x="121.712891"/>
      <use xlink:href="#DejaVuSans-72" x="183.236328"/>
      <use xlink:href="#DejaVuSans-61" x="224.349609"/>
      <use xlink:href="#DejaVuSans-67" x="285.628906"/>
      <use xlink:href="#DejaVuSans-65" x="349.105469"/>
      <use xlink:href="#DejaVuSans-20" x="410.628906"/>
      <use xlink:href="#DejaVuSans-6f" x="442.416016"/>
      <use xlink:href="#DejaVuSans-66" x="503.597656"/>
      <use xlink:href="#DejaVuSans-20" x="538.802734"/>
      <use xlink:href="#DejaVuSans-50" x="570.589844"/>
      <use xlink:href="#DejaVuSans-72" x="629.142578"/>
      <use xlink:href="#DejaVuSans-65" x="668.005859"/>
      <use xlink:href="#DejaVuSans-64" x="729.529297"/>
      <use xlink:href="#DejaVuSans-69" x="793.005859"/>
      <use xlink:href="#DejaVuSans-63" x="820.789062"/>
      <use xlink:href="#DejaVuSans-74" x="875.769531"/>
      <use xlink:href="#DejaVuSans-69" x="914.978516"/>
      <use xlink:href="#DejaVuSans-6f" x="942.761719"/>
      <use xlink:href="#DejaVuSans-6e" x="1003.943359"/>
      <use xlink:href="#DejaVuSans-73" x="1067.322266"/>
     </g>
    </g>
   </g>
  </g>
 </g>
 <defs>
  <clipPath id="p1070d2ee48">
   <rect x="45" y="43.2" width="279" height="277.2"/>
  </clipPath>
 </defs>
</svg>
