<?xml version="1.0" encoding="utf-8" standalone="no"?>
<!DOCTYPE svg PUBLIC "-//W3C//DTD SVG 1.1//EN"
  "http://www.w3.org/Graphics/SVG/1.1/DTD/svg11.dtd">
<svg xmlns:xlink="http://www.w3.org/1999/xlink" width="360pt" height="360pt" viewBox="0 0 360 360" xmlns="http://www.w3.org/2000/svg" version="1.1">
 <metadata>
  <rdf:RDF xmlns:dc="http://purl.org/dc/elements/1.1/" xmlns:cc="http://creativecommons.org/ns#" xmlns:rdf="http://www.w3.org/1999/02/22-rdf-syntax-ns#">
   <cc:Work>
    <dc:type rdf:resource="http://purl.org/dc/dcmitype/StillImage"/>
    <dc:date>2022-11-10T20:21:38.361039</dc:date>
    <dc:format>image/svg+xml</dc:format>
    <dc:creator>
     <cc:Agent>
      <dc:title>Matplotlib v3.5.3, https://matplotlib.org/</dc:title>
     </cc:Agent>
    </dc:creator>
   </cc:Work>
  </rdf:RDF>
 </metadata>
 <defs>
  <style type="text/css">*{stroke-linejoin: round; stroke-linecap: butt}</style>
 </defs>
 <g id="figure_1">
  <g id="patch_1">
   <path d="M 0 360 
L 360 360 
L 360 0 
L 0 0 
z
" style="fill: #ffffff"/>
  </g>
  <g id="axes_1">
   <g id="patch_2">
    <path d="M 45 320.4 
L 324 320.4 
L 324 43.2 
L 45 43.2 
z
" style="fill: #ffffff"/>
   </g>
   <g id="matplotlib.axis_1">
    <g id="xtick_1">
     <g id="line2d_1">
      <defs>
       <path id="m167bfeaf8a" d="M 0 0 
L 0 3.5 
" style="stroke: #000000; stroke-width: 0.8"/>
      </defs>
      <g>
       <use xlink:href="#m167bfeaf8a" x="83.045455" y="320.4" style="stroke: #000000; stroke-width: 0.8"/>
      </g>
     </g>
     <g id="text_1">
      <!-- −2 -->
      <g transform="translate(75.674361 334.998438)scale(0.1 -0.1)">
       <defs>
        <path id="DejaVuSans-2212" d="M 678 2272 
L 4684 2272 
L 4684 1741 
L 678 1741 
L 678 2272 
z
" transform="scale(0.015625)"/>
        <path id="DejaVuSans-32" d="M 1228 531 
L 3431 531 
L 3431 0 
L 469 0 
L 469 531 
Q 828 903 1448 1529 
Q 2069 2156 2228 2338 
Q 2531 2678 2651 2914 
Q 2772 3150 2772 3378 
Q 2772 3750 2511 3984 
Q 2250 4219 1831 4219 
Q 1534 4219 1204 4116 
Q 875 4013 500 3803 
L 500 4441 
Q 881 4594 1212 4672 
Q 1544 4750 1819 4750 
Q 2544 4750 2975 4387 
Q 3406 4025 3406 3419 
Q 3406 3131 3298 2873 
Q 3191 2616 2906 2266 
Q 2828 2175 2409 1742 
Q 1991 1309 1228 531 
z
" transform="scale(0.015625)"/>
       </defs>
       <use xlink:href="#DejaVuSans-2212"/>
       <use xlink:href="#DejaVuSans-32" x="83.789062"/>
      </g>
     </g>
    </g>
    <g id="xtick_2">
     <g id="line2d_2">
      <g>
       <use xlink:href="#m167bfeaf8a" x="133.772727" y="320.4" style="stroke: #000000; stroke-width: 0.8"/>
      </g>
     </g>
     <g id="text_2">
      <!-- −1 -->
      <g transform="translate(126.401634 334.998438)scale(0.1 -0.1)">
       <defs>
        <path id="DejaVuSans-31" d="M 794 531 
L 1825 531 
L 1825 4091 
L 703 3866 
L 703 4441 
L 1819 4666 
L 2450 4666 
L 2450 531 
L 3481 531 
L 3481 0 
L 794 0 
L 794 531 
z
" transform="scale(0.015625)"/>
       </defs>
       <use xlink:href="#DejaVuSans-2212"/>
       <use xlink:href="#DejaVuSans-31" x="83.789062"/>
      </g>
     </g>
    </g>
    <g id="xtick_3">
     <g id="line2d_3">
      <g>
       <use xlink:href="#m167bfeaf8a" x="184.5" y="320.4" style="stroke: #000000; stroke-width: 0.8"/>
      </g>
     </g>
     <g id="text_3">
      <!-- 0 -->
      <g transform="translate(181.31875 334.998438)scale(0.1 -0.1)">
       <defs>
        <path id="DejaVuSans-30" d="M 2034 4250 
Q 1547 4250 1301 3770 
Q 1056 3291 1056 2328 
Q 1056 1369 1301 889 
Q 1547 409 2034 409 
Q 2525 409 2770 889 
Q 3016 1369 3016 2328 
Q 3016 3291 2770 3770 
Q 2525 4250 2034 4250 
z
M 2034 4750 
Q 2819 4750 3233 4129 
Q 3647 3509 3647 2328 
Q 3647 1150 3233 529 
Q 2819 -91 2034 -91 
Q 1250 -91 836 529 
Q 422 1150 422 2328 
Q 422 3509 836 4129 
Q 1250 4750 2034 4750 
z
" transform="scale(0.015625)"/>
       </defs>
       <use xlink:href="#DejaVuSans-30"/>
      </g>
     </g>
    </g>
    <g id="xtick_4">
     <g id="line2d_4">
      <g>
       <use xlink:href="#m167bfeaf8a" x="235.227273" y="320.4" style="stroke: #000000; stroke-width: 0.8"/>
      </g>
     </g>
     <g id="text_4">
      <!-- 1 -->
      <g transform="translate(232.046023 334.998438)scale(0.1 -0.1)">
       <use xlink:href="#DejaVuSans-31"/>
      </g>
     </g>
    </g>
    <g id="xtick_5">
     <g id="line2d_5">
      <g>
       <use xlink:href="#m167bfeaf8a" x="285.954545" y="320.4" style="stroke: #000000; stroke-width: 0.8"/>
      </g>
     </g>
     <g id="text_5">
      <!-- 2 -->
      <g transform="translate(282.773295 334.998438)scale(0.1 -0.1)">
       <use xlink:href="#DejaVuSans-32"/>
      </g>
     </g>
    </g>
   </g>
   <g id="matplotlib.axis_2">
    <g id="ytick_1">
     <g id="line2d_6">
      <defs>
       <path id="m202f720449" d="M 0 0 
L -3.5 0 
" style="stroke: #000000; stroke-width: 0.8"/>
      </defs>
      <g>
       <use xlink:href="#m202f720449" x="45" y="296.593936" style="stroke: #000000; stroke-width: 0.8"/>
      </g>
     </g>
     <g id="text_6">
      <!-- $\mathdefault{10^{-2}}$ -->
      <g transform="translate(14.5 300.393155)scale(0.1 -0.1)">
       <use xlink:href="#DejaVuSans-31" transform="translate(0 0.765625)"/>
       <use xlink:href="#DejaVuSans-30" transform="translate(63.623047 0.765625)"/>
       <use xlink:href="#DejaVuSans-2212" transform="translate(128.203125 39.046875)scale(0.7)"/>
       <use xlink:href="#DejaVuSans-32" transform="translate(186.855469 39.046875)scale(0.7)"/>
      </g>
     </g>
    </g>
    <g id="ytick_2">
     <g id="line2d_7">
      <g>
       <use xlink:href="#m202f720449" x="45" y="225.212553" style="stroke: #000000; stroke-width: 0.8"/>
      </g>
     </g>
     <g id="text_7">
      <!-- $\mathdefault{10^{-1}}$ -->
      <g transform="translate(14.5 229.011772)scale(0.1 -0.1)">
       <use xlink:href="#DejaVuSans-31" transform="translate(0 0.684375)"/>
       <use xlink:href="#DejaVuSans-30" transform="translate(63.623047 0.684375)"/>
       <use xlink:href="#DejaVuSans-2212" transform="translate(128.203125 38.965625)scale(0.7)"/>
       <use xlink:href="#DejaVuSans-31" transform="translate(186.855469 38.965625)scale(0.7)"/>
      </g>
     </g>
    </g>
    <g id="ytick_3">
     <g id="line2d_8">
      <g>
       <use xlink:href="#m202f720449" x="45" y="153.831171" style="stroke: #000000; stroke-width: 0.8"/>
      </g>
     </g>
     <g id="text_8">
      <!-- $\mathdefault{10^{0}}$ -->
      <g transform="translate(20.4 157.630389)scale(0.1 -0.1)">
       <use xlink:href="#DejaVuSans-31" transform="translate(0 0.765625)"/>
       <use xlink:href="#DejaVuSans-30" transform="translate(63.623047 0.765625)"/>
       <use xlink:href="#DejaVuSans-30" transform="translate(128.203125 39.046875)scale(0.7)"/>
      </g>
     </g>
    </g>
    <g id="ytick_4">
     <g id="line2d_9">
      <g>
       <use xlink:href="#m202f720449" x="45" y="82.449788" style="stroke: #000000; stroke-width: 0.8"/>
      </g>
     </g>
     <g id="text_9">
      <!-- $\mathdefault{10^{1}}$ -->
      <g transform="translate(20.4 86.249007)scale(0.1 -0.1)">
       <use xlink:href="#DejaVuSans-31" transform="translate(0 0.684375)"/>
       <use xlink:href="#DejaVuSans-30" transform="translate(63.623047 0.684375)"/>
       <use xlink:href="#DejaVuSans-31" transform="translate(128.203125 38.965625)scale(0.7)"/>
      </g>
     </g>
    </g>
    <g id="ytick_5">
     <g id="line2d_10">
      <defs>
       <path id="m1da9e057a6" d="M 0 0 
L -2 0 
" style="stroke: #000000; stroke-width: 0.6"/>
      </defs>
      <g>
       <use xlink:href="#m1da9e057a6" x="45" y="318.081873" style="stroke: #000000; stroke-width: 0.6"/>
      </g>
     </g>
    </g>
    <g id="ytick_6">
     <g id="line2d_11">
      <g>
       <use xlink:href="#m1da9e057a6" x="45" y="312.429806" style="stroke: #000000; stroke-width: 0.6"/>
      </g>
     </g>
    </g>
    <g id="ytick_7">
     <g id="line2d_12">
      <g>
       <use xlink:href="#m1da9e057a6" x="45" y="307.651052" style="stroke: #000000; stroke-width: 0.6"/>
      </g>
     </g>
    </g>
    <g id="ytick_8">
     <g id="line2d_13">
      <g>
       <use xlink:href="#m1da9e057a6" x="45" y="303.511507" style="stroke: #000000; stroke-width: 0.6"/>
      </g>
     </g>
    </g>
    <g id="ytick_9">
     <g id="line2d_14">
      <g>
       <use xlink:href="#m1da9e057a6" x="45" y="299.860169" style="stroke: #000000; stroke-width: 0.6"/>
      </g>
     </g>
    </g>
    <g id="ytick_10">
     <g id="line2d_15">
      <g>
       <use xlink:href="#m1da9e057a6" x="45" y="275.105999" style="stroke: #000000; stroke-width: 0.6"/>
      </g>
     </g>
    </g>
    <g id="ytick_11">
     <g id="line2d_16">
      <g>
       <use xlink:href="#m1da9e057a6" x="45" y="262.536361" style="stroke: #000000; stroke-width: 0.6"/>
      </g>
     </g>
    </g>
    <g id="ytick_12">
     <g id="line2d_17">
      <g>
       <use xlink:href="#m1da9e057a6" x="45" y="253.618061" style="stroke: #000000; stroke-width: 0.6"/>
      </g>
     </g>
    </g>
    <g id="ytick_13">
     <g id="line2d_18">
      <g>
       <use xlink:href="#m1da9e057a6" x="45" y="246.700491" style="stroke: #000000; stroke-width: 0.6"/>
      </g>
     </g>
    </g>
    <g id="ytick_14">
     <g id="line2d_19">
      <g>
       <use xlink:href="#m1da9e057a6" x="45" y="241.048424" style="stroke: #000000; stroke-width: 0.6"/>
      </g>
     </g>
    </g>
    <g id="ytick_15">
     <g id="line2d_20">
      <g>
       <use xlink:href="#m1da9e057a6" x="45" y="236.269669" style="stroke: #000000; stroke-width: 0.6"/>
      </g>
     </g>
    </g>
    <g id="ytick_16">
     <g id="line2d_21">
      <g>
       <use xlink:href="#m1da9e057a6" x="45" y="232.130124" style="stroke: #000000; stroke-width: 0.6"/>
      </g>
     </g>
    </g>
    <g id="ytick_17">
     <g id="line2d_22">
      <g>
       <use xlink:href="#m1da9e057a6" x="45" y="228.478786" style="stroke: #000000; stroke-width: 0.6"/>
      </g>
     </g>
    </g>
    <g id="ytick_18">
     <g id="line2d_23">
      <g>
       <use xlink:href="#m1da9e057a6" x="45" y="203.724616" style="stroke: #000000; stroke-width: 0.6"/>
      </g>
     </g>
    </g>
    <g id="ytick_19">
     <g id="line2d_24">
      <g>
       <use xlink:href="#m1da9e057a6" x="45" y="191.154978" style="stroke: #000000; stroke-width: 0.6"/>
      </g>
     </g>
    </g>
    <g id="ytick_20">
     <g id="line2d_25">
      <g>
       <use xlink:href="#m1da9e057a6" x="45" y="182.236679" style="stroke: #000000; stroke-width: 0.6"/>
      </g>
     </g>
    </g>
    <g id="ytick_21">
     <g id="line2d_26">
      <g>
       <use xlink:href="#m1da9e057a6" x="45" y="175.319108" style="stroke: #000000; stroke-width: 0.6"/>
      </g>
     </g>
    </g>
    <g id="ytick_22">
     <g id="line2d_27">
      <g>
       <use xlink:href="#m1da9e057a6" x="45" y="169.667041" style="stroke: #000000; stroke-width: 0.6"/>
      </g>
     </g>
    </g>
    <g id="ytick_23">
     <g id="line2d_28">
      <g>
       <use xlink:href="#m1da9e057a6" x="45" y="164.888287" style="stroke: #000000; stroke-width: 0.6"/>
      </g>
     </g>
    </g>
    <g id="ytick_24">
     <g id="line2d_29">
      <g>
       <use xlink:href="#m1da9e057a6" x="45" y="160.748741" style="stroke: #000000; stroke-width: 0.6"/>
      </g>
     </g>
    </g>
    <g id="ytick_25">
     <g id="line2d_30">
      <g>
       <use xlink:href="#m1da9e057a6" x="45" y="157.097403" style="stroke: #000000; stroke-width: 0.6"/>
      </g>
     </g>
    </g>
    <g id="ytick_26">
     <g id="line2d_31">
      <g>
       <use xlink:href="#m1da9e057a6" x="45" y="132.343233" style="stroke: #000000; stroke-width: 0.6"/>
      </g>
     </g>
    </g>
    <g id="ytick_27">
     <g id="line2d_32">
      <g>
       <use xlink:href="#m1da9e057a6" x="45" y="119.773596" style="stroke: #000000; stroke-width: 0.6"/>
      </g>
     </g>
    </g>
    <g id="ytick_28">
     <g id="line2d_33">
      <g>
       <use xlink:href="#m1da9e057a6" x="45" y="110.855296" style="stroke: #000000; stroke-width: 0.6"/>
      </g>
     </g>
    </g>
    <g id="ytick_29">
     <g id="line2d_34">
      <g>
       <use xlink:href="#m1da9e057a6" x="45" y="103.937725" style="stroke: #000000; stroke-width: 0.6"/>
      </g>
     </g>
    </g>
    <g id="ytick_30">
     <g id="line2d_35">
      <g>
       <use xlink:href="#m1da9e057a6" x="45" y="98.285658" style="stroke: #000000; stroke-width: 0.6"/>
      </g>
     </g>
    </g>
    <g id="ytick_31">
     <g id="line2d_36">
      <g>
       <use xlink:href="#m1da9e057a6" x="45" y="93.506904" style="stroke: #000000; stroke-width: 0.6"/>
      </g>
     </g>
    </g>
    <g id="ytick_32">
     <g id="line2d_37">
      <g>
       <use xlink:href="#m1da9e057a6" x="45" y="89.367359" style="stroke: #000000; stroke-width: 0.6"/>
      </g>
     </g>
    </g>
    <g id="ytick_33">
     <g id="line2d_38">
      <g>
       <use xlink:href="#m1da9e057a6" x="45" y="85.716021" style="stroke: #000000; stroke-width: 0.6"/>
      </g>
     </g>
    </g>
    <g id="ytick_34">
     <g id="line2d_39">
      <g>
       <use xlink:href="#m1da9e057a6" x="45" y="60.96185" style="stroke: #000000; stroke-width: 0.6"/>
      </g>
     </g>
    </g>
    <g id="ytick_35">
     <g id="line2d_40">
      <g>
       <use xlink:href="#m1da9e057a6" x="45" y="48.392213" style="stroke: #000000; stroke-width: 0.6"/>
      </g>
     </g>
    </g>
   </g>
   <g id="line2d_41">
    <path d="M 83.045455 101.879988 
L 93.724882 142.373335 
L 104.404309 159.328787 
L 115.083731 134.366638 
L 125.763158 132.028042 
L 136.442586 140.045311 
L 147.122007 161.080292 
L 157.801434 290.224217 
L 168.480862 182.358153 
L 179.160288 201.400891 
L 189.839714 207.890195 
L 200.519138 193.022745 
L 211.198566 221.625851 
L 221.877993 231.845951 
L 232.557414 209.203729 
L 243.236842 216.649296 
L 253.916269 256.172019 
L 264.595691 212.194723 
L 275.275118 185.846488 
L 285.954545 184.666133 
" clip-path="url(#p3fef5e1d1f)" style="fill: none; stroke: #1f77b4; stroke-width: 1.5; stroke-linecap: square"/>
   </g>
   <g id="line2d_42">
    <path d="M 57.681818 55.8 
L 60.224541 59.352211 
L 62.767264 62.971053 
L 63.402942 64.011658 
L 64.038619 64.80802 
L 64.674309 65.936579 
L 65.309987 66.771481 
L 72.302453 78.499665 
L 75.480866 84.608172 
L 76.752221 87.462093 
L 78.659254 91.200812 
L 83.109022 102.085693 
L 83.7447 104.020931 
L 84.380384 105.467089 
L 85.016061 107.502413 
L 85.651745 109.147377 
L 86.287423 111.286139 
L 86.923101 112.877519 
L 87.558784 115.587969 
L 88.83014 120.107658 
L 89.465823 121.697926 
L 90.101501 124.518591 
L 90.737185 126.755989 
L 91.372862 130.815351 
L 93.915579 143.317591 
L 95.186941 151.442128 
L 96.458302 165.711949 
L 97.09398 170.244848 
L 97.729663 182.696153 
L 98.365347 190.969848 
L 99.001025 219.092429 
L 99.636709 262.989409 
L 100.272386 209.564137 
L 100.90807 193.858044 
L 102.815109 169.526751 
L 103.450781 166.508252 
L 104.086458 162.3438 
L 104.722142 156.233775 
L 105.35782 153.620408 
L 105.993504 153.185431 
L 106.629181 149.064305 
L 107.264859 147.025928 
L 107.900543 144.516271 
L 108.536226 143.374786 
L 109.171904 142.818223 
L 110.443266 139.320174 
L 111.078949 138.976835 
L 111.714627 137.35059 
L 112.350305 136.340411 
L 112.985988 135.820394 
L 113.621666 134.839875 
L 114.257344 134.406747 
L 114.893027 135.198751 
L 115.528705 133.99936 
L 116.164389 133.63659 
L 116.800067 132.25764 
L 118.071428 132.080598 
L 118.707106 132.204801 
L 119.342783 131.211641 
L 119.978467 131.385637 
L 120.614145 131.137892 
L 121.249829 131.505787 
L 121.885506 131.179662 
L 122.521184 131.399114 
L 123.156868 130.973863 
L 123.792545 131.031307 
L 124.428223 131.20663 
L 125.063907 131.5208 
L 125.699584 131.350721 
L 126.335268 132.803842 
L 126.970946 132.233267 
L 127.606623 133.336802 
L 128.242307 133.205112 
L 128.877991 132.623498 
L 129.513669 134.225958 
L 130.149352 133.838319 
L 130.78503 134.181377 
L 131.420714 134.275202 
L 132.056391 134.630568 
L 132.692069 136.260761 
L 133.327753 136.39116 
L 133.963431 137.550484 
L 134.599111 137.093523 
L 135.234792 139.241033 
L 135.87047 138.5535 
L 137.777512 142.230465 
L 139.04887 144.55855 
L 139.684551 143.62718 
L 140.320232 145.872426 
L 140.955909 146.150084 
L 141.59159 147.696115 
L 142.227271 148.079295 
L 142.862951 151.634537 
L 143.498632 150.66012 
L 144.13431 153.958574 
L 144.769991 155.216217 
L 145.405671 156.80269 
L 146.041349 157.007134 
L 146.67703 161.504143 
L 147.31271 162.106446 
L 147.948391 163.981196 
L 148.584072 163.935186 
L 149.219749 169.280983 
L 149.85543 170.349284 
L 150.491111 172.164036 
L 151.126789 179.330989 
L 151.762469 180.492876 
L 152.39815 181.130937 
L 153.033831 185.045938 
L 153.669511 191.540012 
L 154.305195 200.680521 
L 154.940876 201.219374 
L 155.576557 205.472871 
L 156.212234 215.885454 
L 156.847915 221.170533 
L 157.483596 277.467215 
L 158.119276 252.657645 
L 158.754957 307.8 
L 159.390635 229.242667 
L 160.026315 215.549032 
L 160.661995 212.081449 
L 161.297675 211.210927 
L 161.933355 199.333377 
L 162.569035 195.807214 
L 163.204716 193.709931 
L 163.840395 194.142707 
L 164.476068 192.251695 
L 165.111749 188.423724 
L 165.747428 188.130457 
L 166.383109 187.297279 
L 167.018788 182.280565 
L 167.654469 180.652272 
L 168.29015 183.7228 
L 168.925829 183.750905 
L 169.561514 182.514577 
L 170.197195 182.707327 
L 170.832874 181.627396 
L 171.468555 181.727566 
L 172.104235 187.123215 
L 172.739914 185.423263 
L 173.375594 181.344563 
L 174.64696 187.139742 
L 175.28264 191.338977 
L 175.91832 193.243226 
L 176.554 197.138954 
L 177.18968 196.1397 
L 177.82536 194.777949 
L 178.46104 195.708542 
L 179.09672 199.8932 
L 179.732393 216.080423 
L 180.368073 218.816645 
L 181.003753 219.7971 
L 181.639433 212.855312 
L 182.275114 231.642066 
L 182.910794 258.222175 
L 183.546474 252.382625 
L 184.182154 269.050554 
L 184.817839 239.330587 
L 185.453519 275.447262 
L 186.089199 224.136872 
L 186.724879 221.010091 
L 187.360559 207.512229 
L 187.996239 220.740205 
L 188.631919 216.67723 
L 189.2676 208.628066 
L 189.903285 197.823916 
L 190.538964 194.057655 
L 191.174644 193.31229 
L 191.810325 201.352223 
L 192.446005 197.852407 
L 193.081685 198.763881 
L 193.717365 195.568194 
L 194.98873 190.97756 
L 195.62441 186.864367 
L 196.26009 186.092167 
L 196.895771 185.531995 
L 197.53145 191.822045 
L 198.167131 187.408588 
L 198.802811 188.891484 
L 199.438491 187.372578 
L 200.074164 189.580026 
L 200.709844 187.547978 
L 201.345524 188.314094 
L 201.981204 194.091913 
L 202.616884 191.488174 
L 203.252564 197.724585 
L 203.888245 193.238348 
L 204.523924 192.064429 
L 205.159609 196.434174 
L 205.79529 195.90001 
L 206.430969 198.468647 
L 207.06665 195.917937 
L 207.702329 208.886424 
L 208.33801 200.855467 
L 208.973691 213.384095 
L 209.60937 215.755289 
L 210.245049 222.474362 
L 210.88073 208.803824 
L 211.51641 231.421877 
L 212.152088 217.60904 
L 212.787769 235.411285 
L 213.42345 262.564884 
L 214.05913 236.057552 
L 214.694811 246.426124 
L 215.330489 247.732668 
L 215.966169 238.28635 
L 216.60185 288.624307 
L 217.237528 247.84905 
L 217.873208 250.15714 
L 219.14457 230.448127 
L 220.415928 278.134076 
L 221.051609 231.78632 
L 221.68729 223.033099 
L 222.322967 254.028414 
L 222.958648 229.522757 
L 223.594329 233.288685 
L 224.230009 222.015057 
L 224.86569 225.72905 
L 226.137049 219.286742 
L 226.772729 226.58457 
L 227.408407 205.320943 
L 228.044088 204.334149 
L 228.679768 212.416013 
L 229.315449 211.128099 
L 229.95113 213.360703 
L 230.586807 218.270324 
L 231.222488 218.445654 
L 231.858169 204.675367 
L 232.493847 212.687975 
L 233.129527 213.376415 
L 233.765208 207.741921 
L 234.400889 209.978536 
L 235.036569 209.870306 
L 235.672253 206.733108 
L 236.307931 209.02291 
L 237.579292 212.092677 
L 238.214976 216.11296 
L 238.850654 201.544727 
L 239.486331 212.612814 
L 240.122015 206.887551 
L 240.757693 213.29035 
L 241.39337 209.703391 
L 242.029054 203.140484 
L 242.664732 207.635838 
L 243.300416 223.481515 
L 243.936093 209.784714 
L 244.571771 205.735761 
L 245.207455 213.010862 
L 245.843132 209.976519 
L 246.47881 208.06009 
L 247.114494 221.873897 
L 247.750171 218.639948 
L 248.385855 235.195487 
L 249.021533 228.250028 
L 249.657211 216.72023 
L 250.292894 221.318348 
L 250.928572 247.248553 
L 251.56425 259.19747 
L 252.199933 260.733217 
L 252.835611 300.629723 
L 253.471295 292.579137 
L 254.74265 237.925035 
L 255.378334 260.773549 
L 256.014012 269.104735 
L 256.649689 256.541229 
L 257.285373 278.202485 
L 257.921051 243.795682 
L 258.556734 257.496817 
L 259.192412 280.023875 
L 259.82809 233.474388 
L 260.463774 235.464789 
L 261.099451 230.551851 
L 263.00649 209.178091 
L 263.642174 207.166495 
L 264.277852 206.790408 
L 264.913529 218.96851 
L 265.549213 202.021563 
L 266.184897 198.39485 
L 266.820575 202.39048 
L 267.456258 200.185827 
L 268.091936 199.718675 
L 268.72762 198.879442 
L 269.363297 195.526714 
L 269.998975 186.021152 
L 270.634659 189.599561 
L 271.270337 190.73067 
L 271.906014 186.154852 
L 272.541698 183.062305 
L 273.177376 188.874599 
L 273.813059 182.397229 
L 274.448737 181.156555 
L 275.084415 179.652879 
L 275.720098 183.134401 
L 276.355776 184.941857 
L 276.991454 184.488052 
L 277.627138 185.203817 
L 278.262815 182.452107 
L 278.898499 183.252202 
L 279.534177 189.605035 
L 280.169854 197.967974 
L 280.805538 200.554385 
L 281.441222 198.481754 
L 282.076899 209.781713 
L 282.712583 215.31938 
L 283.348261 241.277287 
L 283.983945 248.363243 
L 284.619622 213.001928 
L 285.2553 196.246308 
L 285.890984 194.516788 
L 286.526655 177.857008 
L 287.162333 174.410132 
L 287.798011 164.763413 
L 288.433701 158.082166 
L 289.069378 154.219862 
L 289.705056 148.132033 
L 290.340734 145.798747 
L 291.612101 136.121683 
L 292.883456 129.561051 
L 293.519146 126.353046 
L 294.154824 122.528541 
L 295.426179 116.854399 
L 296.697535 111.894582 
L 297.96889 106.442868 
L 299.240257 101.944701 
L 299.875935 99.458862 
L 303.690025 87.751681 
L 306.868426 78.984247 
L 310.682504 70.229 
L 311.318182 68.846723 
L 311.318182 68.846723 
" clip-path="url(#p3fef5e1d1f)" style="fill: none; stroke: #ff7f0e; stroke-width: 1.5; stroke-linecap: square"/>
   </g>
   <g id="patch_3">
    <path d="M 45 320.4 
L 45 43.2 
" style="fill: none; stroke: #000000; stroke-width: 0.8; stroke-linejoin: miter; stroke-linecap: square"/>
   </g>
   <g id="patch_4">
    <path d="M 324 320.4 
L 324 43.2 
" style="fill: none; stroke: #000000; stroke-width: 0.8; stroke-linejoin: miter; stroke-linecap: square"/>
   </g>
   <g id="patch_5">
    <path d="M 45 320.4 
L 324 320.4 
" style="fill: none; stroke: #000000; stroke-width: 0.8; stroke-linejoin: miter; stroke-linecap: square"/>
   </g>
   <g id="patch_6">
    <path d="M 45 43.2 
L 324 43.2 
" style="fill: none; stroke: #000000; stroke-width: 0.8; stroke-linejoin: miter; stroke-linecap: square"/>
   </g>
   <g id="text_10">
    <!-- Prediction Error -->
    <g transform="translate(138.166875 37.2)scale(0.12 -0.12)">
     <defs>
      <path id="DejaVuSans-50" d="M 1259 4147 
L 1259 2394 
L 2053 2394 
Q 2494 2394 2734 2622 
Q 2975 2850 2975 3272 
Q 2975 3691 2734 3919 
Q 2494 4147 2053 4147 
L 1259 4147 
z
M 628 4666 
L 2053 4666 
Q 2838 4666 3239 4311 
Q 3641 3956 3641 3272 
Q 3641 2581 3239 2228 
Q 2838 1875 2053 1875 
L 1259 1875 
L 1259 0 
L 628 0 
L 628 4666 
z
" transform="scale(0.015625)"/>
      <path id="DejaVuSans-72" d="M 2631 2963 
Q 2534 3019 2420 3045 
Q 2306 3072 2169 3072 
Q 1681 3072 1420 2755 
Q 1159 2438 1159 1844 
L 1159 0 
L 581 0 
L 581 3500 
L 1159 3500 
L 1159 2956 
Q 1341 3275 1631 3429 
Q 1922 3584 2338 3584 
Q 2397 3584 2469 3576 
Q 2541 3569 2628 3553 
L 2631 2963 
z
" transform="scale(0.015625)"/>
      <path id="DejaVuSans-65" d="M 3597 1894 
L 3597 1613 
L 953 1613 
Q 991 1019 1311 708 
Q 1631 397 2203 397 
Q 2534 397 2845 478 
Q 3156 559 3463 722 
L 3463 178 
Q 3153 47 2828 -22 
Q 2503 -91 2169 -91 
Q 1331 -91 842 396 
Q 353 884 353 1716 
Q 353 2575 817 3079 
Q 1281 3584 2069 3584 
Q 2775 3584 3186 3129 
Q 3597 2675 3597 1894 
z
M 3022 2063 
Q 3016 2534 2758 2815 
Q 2500 3097 2075 3097 
Q 1594 3097 1305 2825 
Q 1016 2553 972 2059 
L 3022 2063 
z
" transform="scale(0.015625)"/>
      <path id="DejaVuSans-64" d="M 2906 2969 
L 2906 4863 
L 3481 4863 
L 3481 0 
L 2906 0 
L 2906 525 
Q 2725 213 2448 61 
Q 2172 -91 1784 -91 
Q 1150 -91 751 415 
Q 353 922 353 1747 
Q 353 2572 751 3078 
Q 1150 3584 1784 3584 
Q 2172 3584 2448 3432 
Q 2725 3281 2906 2969 
z
M 947 1747 
Q 947 1113 1208 752 
Q 1469 391 1925 391 
Q 2381 391 2643 752 
Q 2906 1113 2906 1747 
Q 2906 2381 2643 2742 
Q 2381 3103 1925 3103 
Q 1469 3103 1208 2742 
Q 947 2381 947 1747 
z
" transform="scale(0.015625)"/>
      <path id="DejaVuSans-69" d="M 603 3500 
L 1178 3500 
L 1178 0 
L 603 0 
L 603 3500 
z
M 603 4863 
L 1178 4863 
L 1178 4134 
L 603 4134 
L 603 4863 
z
" transform="scale(0.015625)"/>
      <path id="DejaVuSans-63" d="M 3122 3366 
L 3122 2828 
Q 2878 2963 2633 3030 
Q 2388 3097 2138 3097 
Q 1578 3097 1268 2742 
Q 959 2388 959 1747 
Q 959 1106 1268 751 
Q 1578 397 2138 397 
Q 2388 397 2633 464 
Q 2878 531 3122 666 
L 3122 134 
Q 2881 22 2623 -34 
Q 2366 -91 2075 -91 
Q 1284 -91 818 406 
Q 353 903 353 1747 
Q 353 2603 823 3093 
Q 1294 3584 2113 3584 
Q 2378 3584 2631 3529 
Q 2884 3475 3122 3366 
z
" transform="scale(0.015625)"/>
      <path id="DejaVuSans-74" d="M 1172 4494 
L 1172 3500 
L 2356 3500 
L 2356 3053 
L 1172 3053 
L 1172 1153 
Q 1172 725 1289 603 
Q 1406 481 1766 481 
L 2356 481 
L 2356 0 
L 1766 0 
Q 1100 0 847 248 
Q 594 497 594 1153 
L 594 3053 
L 172 3053 
L 172 3500 
L 594 3500 
L 594 4494 
L 1172 4494 
z
" transform="scale(0.015625)"/>
      <path id="DejaVuSans-6f" d="M 1959 3097 
Q 1497 3097 1228 2736 
Q 959 2375 959 1747 
Q 959 1119 1226 758 
Q 1494 397 1959 397 
Q 2419 397 2687 759 
Q 2956 1122 2956 1747 
Q 2956 2369 2687 2733 
Q 2419 3097 1959 3097 
z
M 1959 3584 
Q 2709 3584 3137 3096 
Q 3566 2609 3566 1747 
Q 3566 888 3137 398 
Q 2709 -91 1959 -91 
Q 1206 -91 779 398 
Q 353 888 353 1747 
Q 353 2609 779 3096 
Q 1206 3584 1959 3584 
z
" transform="scale(0.015625)"/>
      <path id="DejaVuSans-6e" d="M 3513 2113 
L 3513 0 
L 2938 0 
L 2938 2094 
Q 2938 2591 2744 2837 
Q 2550 3084 2163 3084 
Q 1697 3084 1428 2787 
Q 1159 2491 1159 1978 
L 1159 0 
L 581 0 
L 581 3500 
L 1159 3500 
L 1159 2956 
Q 1366 3272 1645 3428 
Q 1925 3584 2291 3584 
Q 2894 3584 3203 3211 
Q 3513 2838 3513 2113 
z
" transform="scale(0.015625)"/>
      <path id="DejaVuSans-20" transform="scale(0.015625)"/>
      <path id="DejaVuSans-45" d="M 628 4666 
L 3578 4666 
L 3578 4134 
L 1259 4134 
L 1259 2753 
L 3481 2753 
L 3481 2222 
L 1259 2222 
L 1259 531 
L 3634 531 
L 3634 0 
L 628 0 
L 628 4666 
z
" transform="scale(0.015625)"/>
     </defs>
     <use xlink:href="#DejaVuSans-50"/>
     <use xlink:href="#DejaVuSans-72" x="58.552734"/>
     <use xlink:href="#DejaVuSans-65" x="97.416016"/>
     <use xlink:href="#DejaVuSans-64" x="158.939453"/>
     <use xlink:href="#DejaVuSans-69" x="222.416016"/>
     <use xlink:href="#DejaVuSans-63" x="250.199219"/>
     <use xlink:href="#DejaVuSans-74" x="305.179688"/>
     <use xlink:href="#DejaVuSans-69" x="344.388672"/>
     <use xlink:href="#DejaVuSans-6f" x="372.171875"/>
     <use xlink:href="#DejaVuSans-6e" x="433.353516"/>
     <use xlink:href="#DejaVuSans-20" x="496.732422"/>
     <use xlink:href="#DejaVuSans-45" x="528.519531"/>
     <use xlink:href="#DejaVuSans-72" x="591.703125"/>
     <use xlink:href="#DejaVuSans-72" x="631.066406"/>
     <use xlink:href="#DejaVuSans-6f" x="669.929688"/>
     <use xlink:href="#DejaVuSans-72" x="731.111328"/>
    </g>
   </g>
   <g id="legend_1">
    <g id="patch_7">
     <path d="M 52 315.4 
L 134.657813 315.4 
Q 136.657813 315.4 136.657813 313.4 
L 136.657813 285.04375 
Q 136.657813 283.04375 134.657813 283.04375 
L 52 283.04375 
Q 50 283.04375 50 285.04375 
L 50 313.4 
Q 50 315.4 52 315.4 
z
" style="fill: #ffffff; opacity: 0.8; stroke: #cccccc; stroke-linejoin: miter"/>
    </g>
    <g id="line2d_43">
     <path d="M 54 291.142187 
L 64 291.142187 
L 74 291.142187 
" style="fill: none; stroke: #1f77b4; stroke-width: 1.5; stroke-linecap: square"/>
    </g>
    <g id="text_11">
     <!-- train error -->
     <g transform="translate(82 294.642187)scale(0.1 -0.1)">
      <defs>
       <path id="DejaVuSans-61" d="M 2194 1759 
Q 1497 1759 1228 1600 
Q 959 1441 959 1056 
Q 959 750 1161 570 
Q 1363 391 1709 391 
Q 2188 391 2477 730 
Q 2766 1069 2766 1631 
L 2766 1759 
L 2194 1759 
z
M 3341 1997 
L 3341 0 
L 2766 0 
L 2766 531 
Q 2569 213 2275 61 
Q 1981 -91 1556 -91 
Q 1019 -91 701 211 
Q 384 513 384 1019 
Q 384 1609 779 1909 
Q 1175 2209 1959 2209 
L 2766 2209 
L 2766 2266 
Q 2766 2663 2505 2880 
Q 2244 3097 1772 3097 
Q 1472 3097 1187 3025 
Q 903 2953 641 2809 
L 641 3341 
Q 956 3463 1253 3523 
Q 1550 3584 1831 3584 
Q 2591 3584 2966 3190 
Q 3341 2797 3341 1997 
z
" transform="scale(0.015625)"/>
      </defs>
      <use xlink:href="#DejaVuSans-74"/>
      <use xlink:href="#DejaVuSans-72" x="39.208984"/>
      <use xlink:href="#DejaVuSans-61" x="80.322266"/>
      <use xlink:href="#DejaVuSans-69" x="141.601562"/>
      <use xlink:href="#DejaVuSans-6e" x="169.384766"/>
      <use xlink:href="#DejaVuSans-20" x="232.763672"/>
      <use xlink:href="#DejaVuSans-65" x="264.550781"/>
      <use xlink:href="#DejaVuSans-72" x="326.074219"/>
      <use xlink:href="#DejaVuSans-72" x="365.4375"/>
      <use xlink:href="#DejaVuSans-6f" x="404.300781"/>
      <use xlink:href="#DejaVuSans-72" x="465.482422"/>
     </g>
    </g>
    <g id="line2d_44">
     <path d="M 54 305.820312 
L 64 305.820312 
L 74 305.820312 
" style="fill: none; stroke: #ff7f0e; stroke-width: 1.5; stroke-linecap: square"/>
    </g>
    <g id="text_12">
     <!-- test error -->
     <g transform="translate(82 309.320312)scale(0.1 -0.1)">
      <defs>
       <path id="DejaVuSans-73" d="M 2834 3397 
L 2834 2853 
Q 2591 2978 2328 3040 
Q 2066 3103 1784 3103 
Q 1356 3103 1142 2972 
Q 928 2841 928 2578 
Q 928 2378 1081 2264 
Q 1234 2150 1697 2047 
L 1894 2003 
Q 2506 1872 2764 1633 
Q 3022 1394 3022 966 
Q 3022 478 2636 193 
Q 2250 -91 1575 -91 
Q 1294 -91 989 -36 
Q 684 19 347 128 
L 347 722 
Q 666 556 975 473 
Q 1284 391 1588 391 
Q 1994 391 2212 530 
Q 2431 669 2431 922 
Q 2431 1156 2273 1281 
Q 2116 1406 1581 1522 
L 1381 1569 
Q 847 1681 609 1914 
Q 372 2147 372 2553 
Q 372 3047 722 3315 
Q 1072 3584 1716 3584 
Q 2034 3584 2315 3537 
Q 2597 3491 2834 3397 
z
" transform="scale(0.015625)"/>
      </defs>
      <use xlink:href="#DejaVuSans-74"/>
      <use xlink:href="#DejaVuSans-65" x="39.208984"/>
      <use xlink:href="#DejaVuSans-73" x="100.732422"/>
      <use xlink:href="#DejaVuSans-74" x="152.832031"/>
      <use xlink:href="#DejaVuSans-20" x="192.041016"/>
      <use xlink:href="#DejaVuSans-65" x="223.828125"/>
      <use xlink:href="#DejaVuSans-72" x="285.351562"/>
      <use xlink:href="#DejaVuSans-72" x="324.714844"/>
      <use xlink:href="#DejaVuSans-6f" x="363.578125"/>
      <use xlink:href="#DejaVuSans-72" x="424.759766"/>
     </g>
    </g>
   </g>
  </g>
 </g>
 <defs>
  <clipPath id="p3fef5e1d1f">
   <rect x="45" y="43.2" width="279" height="277.2"/>
  </clipPath>
 </defs>
</svg>
