<?xml version="1.0" encoding="utf-8" standalone="no"?>
<!DOCTYPE svg PUBLIC "-//W3C//DTD SVG 1.1//EN"
  "http://www.w3.org/Graphics/SVG/1.1/DTD/svg11.dtd">
<svg xmlns:xlink="http://www.w3.org/1999/xlink" width="360pt" height="360pt" viewBox="0 0 360 360" xmlns="http://www.w3.org/2000/svg" version="1.1">
 <metadata>
  <rdf:RDF xmlns:dc="http://purl.org/dc/elements/1.1/" xmlns:cc="http://creativecommons.org/ns#" xmlns:rdf="http://www.w3.org/1999/02/22-rdf-syntax-ns#">
   <cc:Work>
    <dc:type rdf:resource="http://purl.org/dc/dcmitype/StillImage"/>
    <dc:date>2022-11-13T18:50:42.944538</dc:date>
    <dc:format>image/svg+xml</dc:format>
    <dc:creator>
     <cc:Agent>
      <dc:title>Matplotlib v3.5.3, https://matplotlib.org/</dc:title>
     </cc:Agent>
    </dc:creator>
   </cc:Work>
  </rdf:RDF>
 </metadata>
 <defs>
  <style type="text/css">*{stroke-linejoin: round; stroke-linecap: butt}</style>
 </defs>
 <g id="figure_1">
  <g id="patch_1">
   <path d="M 0 360 
L 360 360 
L 360 0 
L 0 0 
z
" style="fill: #ffffff"/>
  </g>
  <g id="axes_1">
   <g id="patch_2">
    <path d="M 45 320.4 
L 324 320.4 
L 324 43.2 
L 45 43.2 
z
" style="fill: #ffffff"/>
   </g>
   <g id="matplotlib.axis_1">
    <g id="xtick_1">
     <g id="line2d_1">
      <defs>
       <path id="m93b6cea047" d="M 0 0 
L 0 3.5 
" style="stroke: #000000; stroke-width: 0.8"/>
      </defs>
      <g>
       <use xlink:href="#m93b6cea047" x="83.045455" y="320.4" style="stroke: #000000; stroke-width: 0.8"/>
      </g>
     </g>
     <g id="text_1">
      <!-- −2 -->
      <g transform="translate(75.674361 334.998438)scale(0.1 -0.1)">
       <defs>
        <path id="DejaVuSans-2212" d="M 678 2272 
L 4684 2272 
L 4684 1741 
L 678 1741 
L 678 2272 
z
" transform="scale(0.015625)"/>
        <path id="DejaVuSans-32" d="M 1228 531 
L 3431 531 
L 3431 0 
L 469 0 
L 469 531 
Q 828 903 1448 1529 
Q 2069 2156 2228 2338 
Q 2531 2678 2651 2914 
Q 2772 3150 2772 3378 
Q 2772 3750 2511 3984 
Q 2250 4219 1831 4219 
Q 1534 4219 1204 4116 
Q 875 4013 500 3803 
L 500 4441 
Q 881 4594 1212 4672 
Q 1544 4750 1819 4750 
Q 2544 4750 2975 4387 
Q 3406 4025 3406 3419 
Q 3406 3131 3298 2873 
Q 3191 2616 2906 2266 
Q 2828 2175 2409 1742 
Q 1991 1309 1228 531 
z
" transform="scale(0.015625)"/>
       </defs>
       <use xlink:href="#DejaVuSans-2212"/>
       <use xlink:href="#DejaVuSans-32" x="83.789062"/>
      </g>
     </g>
    </g>
    <g id="xtick_2">
     <g id="line2d_2">
      <g>
       <use xlink:href="#m93b6cea047" x="133.772727" y="320.4" style="stroke: #000000; stroke-width: 0.8"/>
      </g>
     </g>
     <g id="text_2">
      <!-- −1 -->
      <g transform="translate(126.401634 334.998438)scale(0.1 -0.1)">
       <defs>
        <path id="DejaVuSans-31" d="M 794 531 
L 1825 531 
L 1825 4091 
L 703 3866 
L 703 4441 
L 1819 4666 
L 2450 4666 
L 2450 531 
L 3481 531 
L 3481 0 
L 794 0 
L 794 531 
z
" transform="scale(0.015625)"/>
       </defs>
       <use xlink:href="#DejaVuSans-2212"/>
       <use xlink:href="#DejaVuSans-31" x="83.789062"/>
      </g>
     </g>
    </g>
    <g id="xtick_3">
     <g id="line2d_3">
      <g>
       <use xlink:href="#m93b6cea047" x="184.5" y="320.4" style="stroke: #000000; stroke-width: 0.8"/>
      </g>
     </g>
     <g id="text_3">
      <!-- 0 -->
      <g transform="translate(181.31875 334.998438)scale(0.1 -0.1)">
       <defs>
        <path id="DejaVuSans-30" d="M 2034 4250 
Q 1547 4250 1301 3770 
Q 1056 3291 1056 2328 
Q 1056 1369 1301 889 
Q 1547 409 2034 409 
Q 2525 409 2770 889 
Q 3016 1369 3016 2328 
Q 3016 3291 2770 3770 
Q 2525 4250 2034 4250 
z
M 2034 4750 
Q 2819 4750 3233 4129 
Q 3647 3509 3647 2328 
Q 3647 1150 3233 529 
Q 2819 -91 2034 -91 
Q 1250 -91 836 529 
Q 422 1150 422 2328 
Q 422 3509 836 4129 
Q 1250 4750 2034 4750 
z
" transform="scale(0.015625)"/>
       </defs>
       <use xlink:href="#DejaVuSans-30"/>
      </g>
     </g>
    </g>
    <g id="xtick_4">
     <g id="line2d_4">
      <g>
       <use xlink:href="#m93b6cea047" x="235.227273" y="320.4" style="stroke: #000000; stroke-width: 0.8"/>
      </g>
     </g>
     <g id="text_4">
      <!-- 1 -->
      <g transform="translate(232.046023 334.998438)scale(0.1 -0.1)">
       <use xlink:href="#DejaVuSans-31"/>
      </g>
     </g>
    </g>
    <g id="xtick_5">
     <g id="line2d_5">
      <g>
       <use xlink:href="#m93b6cea047" x="285.954545" y="320.4" style="stroke: #000000; stroke-width: 0.8"/>
      </g>
     </g>
     <g id="text_5">
      <!-- 2 -->
      <g transform="translate(282.773295 334.998438)scale(0.1 -0.1)">
       <use xlink:href="#DejaVuSans-32"/>
      </g>
     </g>
    </g>
   </g>
   <g id="matplotlib.axis_2">
    <g id="ytick_1">
     <g id="line2d_6">
      <defs>
       <path id="m0a505b609f" d="M 0 0 
L -3.5 0 
" style="stroke: #000000; stroke-width: 0.8"/>
      </defs>
      <g>
       <use xlink:href="#m0a505b609f" x="45" y="261.565123" style="stroke: #000000; stroke-width: 0.8"/>
      </g>
     </g>
     <g id="text_6">
      <!-- $\mathdefault{10^{-2}}$ -->
      <g transform="translate(14.5 265.364341)scale(0.1 -0.1)">
       <use xlink:href="#DejaVuSans-31" transform="translate(0 0.765625)"/>
       <use xlink:href="#DejaVuSans-30" transform="translate(63.623047 0.765625)"/>
       <use xlink:href="#DejaVuSans-2212" transform="translate(128.203125 39.046875)scale(0.7)"/>
       <use xlink:href="#DejaVuSans-32" transform="translate(186.855469 39.046875)scale(0.7)"/>
      </g>
     </g>
    </g>
    <g id="ytick_2">
     <g id="line2d_7">
      <g>
       <use xlink:href="#m0a505b609f" x="45" y="189.63416" style="stroke: #000000; stroke-width: 0.8"/>
      </g>
     </g>
     <g id="text_7">
      <!-- $\mathdefault{10^{-1}}$ -->
      <g transform="translate(14.5 193.433379)scale(0.1 -0.1)">
       <use xlink:href="#DejaVuSans-31" transform="translate(0 0.684375)"/>
       <use xlink:href="#DejaVuSans-30" transform="translate(63.623047 0.684375)"/>
       <use xlink:href="#DejaVuSans-2212" transform="translate(128.203125 38.965625)scale(0.7)"/>
       <use xlink:href="#DejaVuSans-31" transform="translate(186.855469 38.965625)scale(0.7)"/>
      </g>
     </g>
    </g>
    <g id="ytick_3">
     <g id="line2d_8">
      <g>
       <use xlink:href="#m0a505b609f" x="45" y="117.703197" style="stroke: #000000; stroke-width: 0.8"/>
      </g>
     </g>
     <g id="text_8">
      <!-- $\mathdefault{10^{0}}$ -->
      <g transform="translate(20.4 121.502416)scale(0.1 -0.1)">
       <use xlink:href="#DejaVuSans-31" transform="translate(0 0.765625)"/>
       <use xlink:href="#DejaVuSans-30" transform="translate(63.623047 0.765625)"/>
       <use xlink:href="#DejaVuSans-30" transform="translate(128.203125 39.046875)scale(0.7)"/>
      </g>
     </g>
    </g>
    <g id="ytick_4">
     <g id="line2d_9">
      <g>
       <use xlink:href="#m0a505b609f" x="45" y="45.772235" style="stroke: #000000; stroke-width: 0.8"/>
      </g>
     </g>
     <g id="text_9">
      <!-- $\mathdefault{10^{1}}$ -->
      <g transform="translate(20.4 49.571454)scale(0.1 -0.1)">
       <use xlink:href="#DejaVuSans-31" transform="translate(0 0.684375)"/>
       <use xlink:href="#DejaVuSans-30" transform="translate(63.623047 0.684375)"/>
       <use xlink:href="#DejaVuSans-31" transform="translate(128.203125 38.965625)scale(0.7)"/>
      </g>
     </g>
    </g>
    <g id="ytick_5">
     <g id="line2d_10">
      <defs>
       <path id="m2c28896d91" d="M 0 0 
L -2 0 
" style="stroke: #000000; stroke-width: 0.6"/>
      </defs>
      <g>
       <use xlink:href="#m2c28896d91" x="45" y="311.842708" style="stroke: #000000; stroke-width: 0.6"/>
      </g>
     </g>
    </g>
    <g id="ytick_6">
     <g id="line2d_11">
      <g>
       <use xlink:href="#m2c28896d91" x="45" y="299.176294" style="stroke: #000000; stroke-width: 0.6"/>
      </g>
     </g>
    </g>
    <g id="ytick_7">
     <g id="line2d_12">
      <g>
       <use xlink:href="#m2c28896d91" x="45" y="290.18933" style="stroke: #000000; stroke-width: 0.6"/>
      </g>
     </g>
    </g>
    <g id="ytick_8">
     <g id="line2d_13">
      <g>
       <use xlink:href="#m2c28896d91" x="45" y="283.2185" style="stroke: #000000; stroke-width: 0.6"/>
      </g>
     </g>
    </g>
    <g id="ytick_9">
     <g id="line2d_14">
      <g>
       <use xlink:href="#m2c28896d91" x="45" y="277.522917" style="stroke: #000000; stroke-width: 0.6"/>
      </g>
     </g>
    </g>
    <g id="ytick_10">
     <g id="line2d_15">
      <g>
       <use xlink:href="#m2c28896d91" x="45" y="272.70737" style="stroke: #000000; stroke-width: 0.6"/>
      </g>
     </g>
    </g>
    <g id="ytick_11">
     <g id="line2d_16">
      <g>
       <use xlink:href="#m2c28896d91" x="45" y="268.535953" style="stroke: #000000; stroke-width: 0.6"/>
      </g>
     </g>
    </g>
    <g id="ytick_12">
     <g id="line2d_17">
      <g>
       <use xlink:href="#m2c28896d91" x="45" y="264.856503" style="stroke: #000000; stroke-width: 0.6"/>
      </g>
     </g>
    </g>
    <g id="ytick_13">
     <g id="line2d_18">
      <g>
       <use xlink:href="#m2c28896d91" x="45" y="239.911745" style="stroke: #000000; stroke-width: 0.6"/>
      </g>
     </g>
    </g>
    <g id="ytick_14">
     <g id="line2d_19">
      <g>
       <use xlink:href="#m2c28896d91" x="45" y="227.245331" style="stroke: #000000; stroke-width: 0.6"/>
      </g>
     </g>
    </g>
    <g id="ytick_15">
     <g id="line2d_20">
      <g>
       <use xlink:href="#m2c28896d91" x="45" y="218.258368" style="stroke: #000000; stroke-width: 0.6"/>
      </g>
     </g>
    </g>
    <g id="ytick_16">
     <g id="line2d_21">
      <g>
       <use xlink:href="#m2c28896d91" x="45" y="211.287537" style="stroke: #000000; stroke-width: 0.6"/>
      </g>
     </g>
    </g>
    <g id="ytick_17">
     <g id="line2d_22">
      <g>
       <use xlink:href="#m2c28896d91" x="45" y="205.591954" style="stroke: #000000; stroke-width: 0.6"/>
      </g>
     </g>
    </g>
    <g id="ytick_18">
     <g id="line2d_23">
      <g>
       <use xlink:href="#m2c28896d91" x="45" y="200.776407" style="stroke: #000000; stroke-width: 0.6"/>
      </g>
     </g>
    </g>
    <g id="ytick_19">
     <g id="line2d_24">
      <g>
       <use xlink:href="#m2c28896d91" x="45" y="196.604991" style="stroke: #000000; stroke-width: 0.6"/>
      </g>
     </g>
    </g>
    <g id="ytick_20">
     <g id="line2d_25">
      <g>
       <use xlink:href="#m2c28896d91" x="45" y="192.92554" style="stroke: #000000; stroke-width: 0.6"/>
      </g>
     </g>
    </g>
    <g id="ytick_21">
     <g id="line2d_26">
      <g>
       <use xlink:href="#m2c28896d91" x="45" y="167.980783" style="stroke: #000000; stroke-width: 0.6"/>
      </g>
     </g>
    </g>
    <g id="ytick_22">
     <g id="line2d_27">
      <g>
       <use xlink:href="#m2c28896d91" x="45" y="155.314369" style="stroke: #000000; stroke-width: 0.6"/>
      </g>
     </g>
    </g>
    <g id="ytick_23">
     <g id="line2d_28">
      <g>
       <use xlink:href="#m2c28896d91" x="45" y="146.327405" style="stroke: #000000; stroke-width: 0.6"/>
      </g>
     </g>
    </g>
    <g id="ytick_24">
     <g id="line2d_29">
      <g>
       <use xlink:href="#m2c28896d91" x="45" y="139.356575" style="stroke: #000000; stroke-width: 0.6"/>
      </g>
     </g>
    </g>
    <g id="ytick_25">
     <g id="line2d_30">
      <g>
       <use xlink:href="#m2c28896d91" x="45" y="133.660992" style="stroke: #000000; stroke-width: 0.6"/>
      </g>
     </g>
    </g>
    <g id="ytick_26">
     <g id="line2d_31">
      <g>
       <use xlink:href="#m2c28896d91" x="45" y="128.845444" style="stroke: #000000; stroke-width: 0.6"/>
      </g>
     </g>
    </g>
    <g id="ytick_27">
     <g id="line2d_32">
      <g>
       <use xlink:href="#m2c28896d91" x="45" y="124.674028" style="stroke: #000000; stroke-width: 0.6"/>
      </g>
     </g>
    </g>
    <g id="ytick_28">
     <g id="line2d_33">
      <g>
       <use xlink:href="#m2c28896d91" x="45" y="120.994578" style="stroke: #000000; stroke-width: 0.6"/>
      </g>
     </g>
    </g>
    <g id="ytick_29">
     <g id="line2d_34">
      <g>
       <use xlink:href="#m2c28896d91" x="45" y="96.04982" style="stroke: #000000; stroke-width: 0.6"/>
      </g>
     </g>
    </g>
    <g id="ytick_30">
     <g id="line2d_35">
      <g>
       <use xlink:href="#m2c28896d91" x="45" y="83.383406" style="stroke: #000000; stroke-width: 0.6"/>
      </g>
     </g>
    </g>
    <g id="ytick_31">
     <g id="line2d_36">
      <g>
       <use xlink:href="#m2c28896d91" x="45" y="74.396443" style="stroke: #000000; stroke-width: 0.6"/>
      </g>
     </g>
    </g>
    <g id="ytick_32">
     <g id="line2d_37">
      <g>
       <use xlink:href="#m2c28896d91" x="45" y="67.425612" style="stroke: #000000; stroke-width: 0.6"/>
      </g>
     </g>
    </g>
    <g id="ytick_33">
     <g id="line2d_38">
      <g>
       <use xlink:href="#m2c28896d91" x="45" y="61.730029" style="stroke: #000000; stroke-width: 0.6"/>
      </g>
     </g>
    </g>
    <g id="ytick_34">
     <g id="line2d_39">
      <g>
       <use xlink:href="#m2c28896d91" x="45" y="56.914482" style="stroke: #000000; stroke-width: 0.6"/>
      </g>
     </g>
    </g>
    <g id="ytick_35">
     <g id="line2d_40">
      <g>
       <use xlink:href="#m2c28896d91" x="45" y="52.743065" style="stroke: #000000; stroke-width: 0.6"/>
      </g>
     </g>
    </g>
    <g id="ytick_36">
     <g id="line2d_41">
      <g>
       <use xlink:href="#m2c28896d91" x="45" y="49.063615" style="stroke: #000000; stroke-width: 0.6"/>
      </g>
     </g>
    </g>
   </g>
   <g id="line2d_42">
    <path d="M 83.045455 151.178877 
L 83.553997 154.166723 
L 85.079629 166.365402 
L 85.588177 171.078399 
L 87.11381 192.21761 
L 88.1309 223.73384 
L 88.639442 307.8 
L 89.147985 237.220117 
L 89.656533 210.985741 
L 90.673617 189.866999 
L 92.199249 174.850869 
L 92.707792 172.449383 
L 93.216334 169.339211 
L 94.233424 165.802069 
L 94.741966 165.342523 
L 95.250514 163.441961 
L 95.759057 163.098432 
L 96.776147 162.78251 
L 97.284689 163.594541 
L 97.793237 163.523731 
L 98.301779 165.864908 
L 98.810322 165.97479 
L 99.318864 169.038883 
L 99.827406 170.881433 
L 100.335954 173.360069 
L 101.353038 182.259011 
L 102.370129 196.974911 
L 102.878671 208.728549 
L 103.387219 236.191466 
L 103.895761 280.788917 
L 104.404309 217.322358 
L 104.912852 197.580181 
L 105.421394 186.252083 
L 106.438484 170.183244 
L 107.455574 159.13313 
L 109.489749 144.297487 
L 109.998297 140.78342 
L 111.523924 133.481422 
L 113.049556 127.854391 
L 113.558098 126.024807 
L 115.592273 120.537847 
L 117.117905 117.701052 
L 118.643538 115.331916 
L 119.660628 114.333662 
L 120.16917 114.215279 
L 121.186261 113.725131 
L 122.203351 113.422618 
L 123.220435 113.57549 
L 124.237526 114.364099 
L 124.746074 114.628082 
L 126.780249 117.42561 
L 128.814423 122.357351 
L 130.340056 127.770888 
L 131.865688 135.595165 
L 132.882779 143.381943 
L 133.899866 153.901993 
L 134.408408 160.543453 
L 134.916953 170.143001 
L 135.425495 184.555569 
L 135.934037 208.392831 
L 136.442583 247.820069 
L 136.951125 195.357044 
L 137.45967 177.284457 
L 137.968215 165.52185 
L 138.476757 157.386071 
L 139.493845 145.97103 
L 140.510938 137.407393 
L 141.528025 131.493991 
L 143.053658 124.881256 
L 144.070742 121.79718 
L 145.087829 119.404255 
L 145.596375 118.381374 
L 146.613462 117.040852 
L 147.630549 116.286146 
L 148.139097 116.402872 
L 148.647643 116.281907 
L 150.173275 117.308734 
L 151.698904 120.292491 
L 152.207453 121.675936 
L 152.715998 123.405786 
L 153.733085 128.217221 
L 154.750172 134.855519 
L 155.76726 145.336463 
L 156.275802 153.395843 
L 156.784347 164.984941 
L 157.292889 185.035468 
L 157.801434 277.372981 
L 158.30998 187.125587 
L 158.818522 165.138826 
L 159.327067 150.620889 
L 160.344157 133.132494 
L 161.361246 121.104127 
L 162.886877 108.423287 
L 163.903966 101.88703 
L 164.92105 96.191638 
L 166.446683 89.109815 
L 167.972315 83.245973 
L 169.497951 78.407816 
L 171.023582 74.249646 
L 172.549211 70.758539 
L 173.566299 68.681235 
L 175.600476 65.314411 
L 177.126111 63.294582 
L 178.651743 61.721608 
L 179.668831 60.87574 
L 181.194466 59.900972 
L 182.720098 59.340906 
L 184.24573 59.114756 
L 185.771359 59.239933 
L 186.788447 59.553932 
L 188.31408 60.318488 
L 189.839714 61.398586 
L 190.856803 62.400684 
L 192.382435 64.133989 
L 193.908064 66.368047 
L 195.433696 69.050907 
L 197.467875 73.477759 
L 198.993507 77.585047 
L 200.51914 82.326455 
L 202.044775 88.080429 
L 203.061862 92.602455 
L 204.587495 100.739187 
L 205.604579 107.282474 
L 206.621668 115.307515 
L 207.638755 125.57387 
L 208.655844 139.549969 
L 209.164391 149.81841 
L 209.672935 163.479788 
L 210.181478 189.631103 
L 210.690023 235.319664 
L 211.198569 179.997836 
L 211.707111 161.272887 
L 212.215656 150.35872 
L 212.724198 142.40114 
L 213.741285 132.037406 
L 214.758373 125.397671 
L 215.77546 120.358658 
L 217.301096 115.812843 
L 218.318183 113.776546 
L 219.335273 112.54863 
L 219.843815 112.107527 
L 220.35236 112.068677 
L 220.860903 111.812131 
L 222.895077 113.028152 
L 223.403622 113.566752 
L 224.929252 116.237058 
L 226.454887 120.485006 
L 227.471978 124.102658 
L 228.489065 128.598835 
L 230.014695 138.191744 
L 231.031782 146.973111 
L 231.540327 152.446092 
L 232.048869 159.392336 
L 233.065957 181.693532 
L 233.574505 203.774439 
L 234.08305 286.326792 
L 234.591592 201.775758 
L 235.100137 181.100929 
L 235.608679 168.682263 
L 236.117228 160.35418 
L 237.134312 148.688035 
L 238.151402 140.212687 
L 239.677035 132.316305 
L 240.694125 128.112511 
L 241.202667 126.614638 
L 241.711209 125.47677 
L 242.7283 122.837166 
L 244.253932 120.516079 
L 244.762474 120.193939 
L 245.271016 119.734966 
L 245.779559 119.600116 
L 246.796649 119.121724 
L 247.305191 119.196452 
L 249.339366 120.62973 
L 250.86501 122.318774 
L 251.882095 124.462824 
L 252.899185 126.571731 
L 255.441902 135.163729 
L 256.458992 139.922879 
L 257.476076 145.980655 
L 259.001709 156.810792 
L 260.527341 175.912225 
L 261.035883 185.592875 
L 261.544426 198.886678 
L 262.052974 222.011511 
L 262.561516 286.491957 
L 263.070064 211.244722 
L 263.578606 196.130623 
L 264.595697 176.771599 
L 265.104239 170.339253 
L 265.612781 166.749173 
L 266.121329 161.877381 
L 267.138419 155.636968 
L 268.664052 150.288605 
L 270.189678 146.390407 
L 270.698221 146.05318 
L 271.206769 145.875771 
L 272.223853 144.812263 
L 272.732401 144.993057 
L 273.240943 144.947801 
L 273.749486 145.395003 
L 274.766576 147.029328 
L 275.275124 148.045296 
L 275.783666 148.409338 
L 276.292208 150.391238 
L 276.800757 151.300337 
L 278.326383 157.879658 
L 278.834925 161.218012 
L 279.343473 163.313958 
L 279.852015 167.413365 
L 281.377648 184.569469 
L 281.88619 193.456488 
L 282.394738 210.010273 
L 283.411829 263.629705 
L 283.920371 220.591605 
L 284.428913 201.577353 
L 284.937461 188.038631 
L 285.446003 179.453907 
L 285.954545 173.634892 
L 285.954545 173.634892 
" clip-path="url(#p25274da0c7)" style="fill: none; stroke: #1f77b4; stroke-width: 1.5; stroke-linecap: square"/>
   </g>
   <g id="line2d_43">
    <path d="M 57.681818 115.037735 
L 58.317496 112.843583 
L 58.953174 112.794954 
L 59.588863 112.009226 
L 60.224541 111.577486 
L 60.860219 111.633576 
L 61.495896 110.911587 
L 62.131574 109.621931 
L 62.767264 108.984326 
L 63.402942 107.417775 
L 64.038619 107.520442 
L 64.674309 107.095386 
L 65.309987 105.166157 
L 65.945664 105.374698 
L 66.581342 104.615855 
L 67.21702 105.528813 
L 67.852697 105.160227 
L 68.488375 104.129642 
L 69.124053 105.009948 
L 69.759743 104.868771 
L 70.39542 104.177134 
L 71.031098 104.484888 
L 71.666776 104.921845 
L 72.302453 103.654391 
L 72.938143 103.595568 
L 73.573821 104.451846 
L 74.209498 105.069916 
L 74.845188 106.204272 
L 76.116544 105.784214 
L 76.752221 106.054763 
L 77.387899 107.277186 
L 78.023577 108.219377 
L 78.659254 107.817834 
L 79.294932 110.174086 
L 79.930622 109.262796 
L 80.566299 111.391441 
L 81.201977 111.815431 
L 81.837655 113.095024 
L 82.473333 113.715754 
L 83.109022 115.428792 
L 83.7447 115.095416 
L 84.380384 117.415895 
L 85.016061 117.41066 
L 85.651745 118.380855 
L 86.287423 122.172612 
L 86.923101 124.059025 
L 87.558784 122.60378 
L 88.194462 124.000833 
L 88.83014 128.619252 
L 89.465823 128.573577 
L 90.101501 132.170336 
L 90.737185 133.221995 
L 91.372862 132.027001 
L 92.00854 133.06543 
L 92.644224 134.33158 
L 93.279902 136.701355 
L 93.915579 134.268334 
L 95.186941 139.911751 
L 95.822624 138.608957 
L 96.458302 137.851607 
L 97.09398 137.450609 
L 97.729663 140.407707 
L 98.365347 136.605983 
L 99.001025 138.505105 
L 99.636709 138.525864 
L 100.272386 136.555152 
L 100.90807 131.396347 
L 101.543748 130.41559 
L 102.179425 128.977796 
L 102.815109 128.223344 
L 103.450781 126.360802 
L 104.086458 126.617568 
L 104.722142 125.794808 
L 105.35782 122.1403 
L 105.993504 122.336231 
L 106.629181 120.934556 
L 108.536226 114.377787 
L 109.171904 114.175752 
L 109.807588 113.001968 
L 110.443266 110.691676 
L 111.078949 110.277898 
L 111.714627 109.085508 
L 112.350305 106.575609 
L 112.985988 106.227115 
L 113.621666 104.072683 
L 114.257344 103.075976 
L 114.893027 102.853902 
L 115.528705 101.994127 
L 116.164389 101.354803 
L 117.435744 100.349899 
L 118.071428 99.742686 
L 119.342783 98.136792 
L 119.978467 98.843536 
L 120.614145 98.75988 
L 121.249829 98.464542 
L 121.885506 98.608265 
L 122.521184 98.083051 
L 123.156868 97.712834 
L 123.792545 97.875339 
L 124.428223 98.425567 
L 125.063907 99.834484 
L 126.335268 100.433365 
L 127.606623 101.615365 
L 128.242307 103.482686 
L 128.877991 103.290607 
L 129.513669 105.533234 
L 130.149352 106.694694 
L 130.78503 108.369957 
L 131.420714 107.975639 
L 132.056391 111.928454 
L 132.692069 111.652161 
L 133.327753 114.802453 
L 133.963431 117.272629 
L 134.599111 118.660436 
L 135.234792 122.730223 
L 135.87047 124.526136 
L 136.50615 127.769178 
L 137.141831 135.766582 
L 137.777512 136.957152 
L 139.04887 148.968314 
L 140.320232 165.781668 
L 141.59159 210.870893 
L 142.227271 219.48188 
L 142.862951 220.681674 
L 143.498632 181.676728 
L 144.13431 164.278391 
L 144.769991 164.865986 
L 145.405671 155.754772 
L 146.041349 160.659165 
L 146.67703 150.650589 
L 147.31271 151.553503 
L 147.948391 150.083032 
L 148.584072 151.849206 
L 149.219749 156.490176 
L 149.85543 153.867798 
L 151.126789 165.196252 
L 151.762469 172.649827 
L 152.39815 172.073124 
L 153.033831 188.023065 
L 153.669511 292.37028 
L 154.305195 211.662224 
L 154.940876 171.359688 
L 156.212234 151.708756 
L 156.847915 138.606089 
L 158.754957 119.043312 
L 160.026315 110.127011 
L 161.297675 104.377608 
L 162.569035 97.368549 
L 164.476068 89.070836 
L 165.747428 84.07768 
L 167.018788 79.851652 
L 168.29015 75.506919 
L 168.925829 74.260219 
L 170.197195 70.845124 
L 170.832874 69.776531 
L 172.104235 66.830661 
L 172.739914 66.103502 
L 174.011274 63.470588 
L 178.46104 58.306037 
L 179.09672 57.68832 
L 179.732393 57.611652 
L 180.368073 57.040103 
L 181.639433 56.6121 
L 182.275114 56.236361 
L 182.910794 56.248266 
L 183.546474 55.8 
L 184.817839 56.023899 
L 185.453519 55.856837 
L 186.089199 56.294942 
L 186.724879 56.348575 
L 187.360559 56.539028 
L 187.996239 56.974944 
L 190.538964 58.301948 
L 191.174644 58.961917 
L 191.810325 59.908183 
L 192.446005 60.637358 
L 193.081685 61.026736 
L 194.98873 63.947231 
L 195.62441 65.272613 
L 196.895771 67.076676 
L 197.53145 68.744016 
L 198.167131 70.053763 
L 199.438491 73.263226 
L 200.074164 74.714535 
L 201.345524 78.387057 
L 201.981204 80.127277 
L 202.616884 82.930761 
L 203.252564 84.523635 
L 204.523924 89.963423 
L 205.159609 92.132454 
L 205.79529 94.745583 
L 208.33801 110.417729 
L 208.973691 115.5519 
L 209.60937 119.716373 
L 210.245049 124.637674 
L 210.88073 133.990795 
L 211.51641 136.809837 
L 212.152088 146.545847 
L 213.42345 188.623132 
L 214.05913 219.720763 
L 215.330489 173.899935 
L 215.966169 159.89914 
L 216.60185 159.418533 
L 217.237528 147.257012 
L 217.873208 149.070704 
L 218.508889 143.162067 
L 219.14457 141.653154 
L 219.780251 142.288277 
L 220.415928 138.544733 
L 221.051609 137.215898 
L 221.68729 138.810893 
L 222.322967 142.935323 
L 222.958648 139.258425 
L 223.594329 144.515914 
L 224.230009 142.770104 
L 224.86569 152.307707 
L 226.137049 160.799864 
L 226.772729 172.483635 
L 227.408407 181.248388 
L 228.044088 222.12232 
L 228.679768 226.019214 
L 229.95113 170.932477 
L 230.586807 156.529174 
L 231.222488 150.974118 
L 231.858169 149.243099 
L 232.493847 138.06374 
L 233.129527 136.182207 
L 233.765208 131.86878 
L 234.400889 129.696355 
L 235.672253 120.360358 
L 236.307931 118.811323 
L 236.943615 117.655704 
L 237.579292 114.288175 
L 238.214976 113.330192 
L 238.850654 110.12691 
L 239.486331 110.882197 
L 240.122015 108.887377 
L 240.757693 108.477047 
L 242.029054 105.168889 
L 242.664732 103.776293 
L 243.300416 103.95745 
L 243.936093 102.652688 
L 244.571771 103.017058 
L 245.207455 102.352682 
L 245.843132 101.947073 
L 246.47881 101.819717 
L 247.114494 103.158728 
L 247.750171 101.833292 
L 248.385855 102.31451 
L 249.021533 103.641251 
L 249.657211 104.029029 
L 250.292894 104.871794 
L 250.928572 104.311994 
L 251.56425 106.072972 
L 252.199933 105.496884 
L 252.835611 106.425277 
L 253.471295 108.686854 
L 254.106973 108.375455 
L 254.74265 109.890229 
L 255.378334 110.41279 
L 256.014012 111.524098 
L 256.649689 115.042856 
L 257.285373 113.832466 
L 257.921051 115.453788 
L 258.556734 117.739198 
L 259.192412 121.719338 
L 259.82809 122.651642 
L 261.099451 126.565449 
L 261.735129 126.990081 
L 262.370813 129.612481 
L 263.00649 130.856736 
L 263.642174 136.2731 
L 264.277852 136.751776 
L 264.913529 139.174305 
L 265.549213 145.967787 
L 266.184897 149.47006 
L 266.820575 150.388436 
L 267.456258 147.803972 
L 268.091936 158.186713 
L 268.72762 160.512723 
L 269.363297 154.711562 
L 269.998975 156.517022 
L 270.634659 156.34414 
L 271.270337 167.594682 
L 271.906014 168.240305 
L 272.541698 159.917235 
L 273.177376 157.625825 
L 273.813059 158.558216 
L 274.448737 160.133087 
L 275.084415 157.708223 
L 275.720098 152.895523 
L 276.355776 159.450079 
L 276.991454 155.9846 
L 277.627138 148.317085 
L 278.262815 152.082372 
L 278.898499 148.909177 
L 279.534177 141.729586 
L 280.169854 140.911371 
L 280.805538 138.686818 
L 281.441222 138.756093 
L 282.076899 135.39184 
L 282.712583 131.037495 
L 283.348261 132.839039 
L 283.983945 129.471551 
L 284.619622 126.712506 
L 285.2553 127.485564 
L 285.890984 122.634571 
L 286.526655 123.913664 
L 287.162333 122.008281 
L 287.798011 120.73893 
L 289.069378 119.519026 
L 289.705056 116.048468 
L 290.340734 115.549702 
L 290.976411 116.441155 
L 291.612101 115.189733 
L 292.247779 112.240632 
L 292.883456 112.423381 
L 293.519146 111.852042 
L 294.154824 112.682131 
L 295.426179 111.351353 
L 296.061857 111.130892 
L 296.697535 111.58012 
L 297.333212 110.492803 
L 297.96889 110.424193 
L 298.60458 110.72628 
L 299.240257 110.485266 
L 299.875935 111.31457 
L 300.511613 110.710348 
L 301.14729 110.849284 
L 301.78298 112.366018 
L 302.418658 113.420763 
L 303.054336 111.894869 
L 303.690025 112.806617 
L 304.325703 114.442146 
L 304.961381 113.077852 
L 305.597058 115.79063 
L 306.232736 114.940366 
L 306.868426 116.008492 
L 307.504104 119.007357 
L 308.139781 117.607351 
L 308.775471 121.204205 
L 310.046826 122.101446 
L 310.682504 124.223648 
L 311.318182 122.32052 
L 311.318182 122.32052 
" clip-path="url(#p25274da0c7)" style="fill: none; stroke: #ff7f0e; stroke-width: 1.5; stroke-linecap: square"/>
   </g>
   <g id="patch_3">
    <path d="M 45 320.4 
L 45 43.2 
" style="fill: none; stroke: #000000; stroke-width: 0.8; stroke-linejoin: miter; stroke-linecap: square"/>
   </g>
   <g id="patch_4">
    <path d="M 324 320.4 
L 324 43.2 
" style="fill: none; stroke: #000000; stroke-width: 0.8; stroke-linejoin: miter; stroke-linecap: square"/>
   </g>
   <g id="patch_5">
    <path d="M 45 320.4 
L 324 320.4 
" style="fill: none; stroke: #000000; stroke-width: 0.8; stroke-linejoin: miter; stroke-linecap: square"/>
   </g>
   <g id="patch_6">
    <path d="M 45 43.2 
L 324 43.2 
" style="fill: none; stroke: #000000; stroke-width: 0.8; stroke-linejoin: miter; stroke-linecap: square"/>
   </g>
   <g id="text_10">
    <!-- Prediction Error -->
    <g transform="translate(138.166875 37.2)scale(0.12 -0.12)">
     <defs>
      <path id="DejaVuSans-50" d="M 1259 4147 
L 1259 2394 
L 2053 2394 
Q 2494 2394 2734 2622 
Q 2975 2850 2975 3272 
Q 2975 3691 2734 3919 
Q 2494 4147 2053 4147 
L 1259 4147 
z
M 628 4666 
L 2053 4666 
Q 2838 4666 3239 4311 
Q 3641 3956 3641 3272 
Q 3641 2581 3239 2228 
Q 2838 1875 2053 1875 
L 1259 1875 
L 1259 0 
L 628 0 
L 628 4666 
z
" transform="scale(0.015625)"/>
      <path id="DejaVuSans-72" d="M 2631 2963 
Q 2534 3019 2420 3045 
Q 2306 3072 2169 3072 
Q 1681 3072 1420 2755 
Q 1159 2438 1159 1844 
L 1159 0 
L 581 0 
L 581 3500 
L 1159 3500 
L 1159 2956 
Q 1341 3275 1631 3429 
Q 1922 3584 2338 3584 
Q 2397 3584 2469 3576 
Q 2541 3569 2628 3553 
L 2631 2963 
z
" transform="scale(0.015625)"/>
      <path id="DejaVuSans-65" d="M 3597 1894 
L 3597 1613 
L 953 1613 
Q 991 1019 1311 708 
Q 1631 397 2203 397 
Q 2534 397 2845 478 
Q 3156 559 3463 722 
L 3463 178 
Q 3153 47 2828 -22 
Q 2503 -91 2169 -91 
Q 1331 -91 842 396 
Q 353 884 353 1716 
Q 353 2575 817 3079 
Q 1281 3584 2069 3584 
Q 2775 3584 3186 3129 
Q 3597 2675 3597 1894 
z
M 3022 2063 
Q 3016 2534 2758 2815 
Q 2500 3097 2075 3097 
Q 1594 3097 1305 2825 
Q 1016 2553 972 2059 
L 3022 2063 
z
" transform="scale(0.015625)"/>
      <path id="DejaVuSans-64" d="M 2906 2969 
L 2906 4863 
L 3481 4863 
L 3481 0 
L 2906 0 
L 2906 525 
Q 2725 213 2448 61 
Q 2172 -91 1784 -91 
Q 1150 -91 751 415 
Q 353 922 353 1747 
Q 353 2572 751 3078 
Q 1150 3584 1784 3584 
Q 2172 3584 2448 3432 
Q 2725 3281 2906 2969 
z
M 947 1747 
Q 947 1113 1208 752 
Q 1469 391 1925 391 
Q 2381 391 2643 752 
Q 2906 1113 2906 1747 
Q 2906 2381 2643 2742 
Q 2381 3103 1925 3103 
Q 1469 3103 1208 2742 
Q 947 2381 947 1747 
z
" transform="scale(0.015625)"/>
      <path id="DejaVuSans-69" d="M 603 3500 
L 1178 3500 
L 1178 0 
L 603 0 
L 603 3500 
z
M 603 4863 
L 1178 4863 
L 1178 4134 
L 603 4134 
L 603 4863 
z
" transform="scale(0.015625)"/>
      <path id="DejaVuSans-63" d="M 3122 3366 
L 3122 2828 
Q 2878 2963 2633 3030 
Q 2388 3097 2138 3097 
Q 1578 3097 1268 2742 
Q 959 2388 959 1747 
Q 959 1106 1268 751 
Q 1578 397 2138 397 
Q 2388 397 2633 464 
Q 2878 531 3122 666 
L 3122 134 
Q 2881 22 2623 -34 
Q 2366 -91 2075 -91 
Q 1284 -91 818 406 
Q 353 903 353 1747 
Q 353 2603 823 3093 
Q 1294 3584 2113 3584 
Q 2378 3584 2631 3529 
Q 2884 3475 3122 3366 
z
" transform="scale(0.015625)"/>
      <path id="DejaVuSans-74" d="M 1172 4494 
L 1172 3500 
L 2356 3500 
L 2356 3053 
L 1172 3053 
L 1172 1153 
Q 1172 725 1289 603 
Q 1406 481 1766 481 
L 2356 481 
L 2356 0 
L 1766 0 
Q 1100 0 847 248 
Q 594 497 594 1153 
L 594 3053 
L 172 3053 
L 172 3500 
L 594 3500 
L 594 4494 
L 1172 4494 
z
" transform="scale(0.015625)"/>
      <path id="DejaVuSans-6f" d="M 1959 3097 
Q 1497 3097 1228 2736 
Q 959 2375 959 1747 
Q 959 1119 1226 758 
Q 1494 397 1959 397 
Q 2419 397 2687 759 
Q 2956 1122 2956 1747 
Q 2956 2369 2687 2733 
Q 2419 3097 1959 3097 
z
M 1959 3584 
Q 2709 3584 3137 3096 
Q 3566 2609 3566 1747 
Q 3566 888 3137 398 
Q 2709 -91 1959 -91 
Q 1206 -91 779 398 
Q 353 888 353 1747 
Q 353 2609 779 3096 
Q 1206 3584 1959 3584 
z
" transform="scale(0.015625)"/>
      <path id="DejaVuSans-6e" d="M 3513 2113 
L 3513 0 
L 2938 0 
L 2938 2094 
Q 2938 2591 2744 2837 
Q 2550 3084 2163 3084 
Q 1697 3084 1428 2787 
Q 1159 2491 1159 1978 
L 1159 0 
L 581 0 
L 581 3500 
L 1159 3500 
L 1159 2956 
Q 1366 3272 1645 3428 
Q 1925 3584 2291 3584 
Q 2894 3584 3203 3211 
Q 3513 2838 3513 2113 
z
" transform="scale(0.015625)"/>
      <path id="DejaVuSans-20" transform="scale(0.015625)"/>
      <path id="DejaVuSans-45" d="M 628 4666 
L 3578 4666 
L 3578 4134 
L 1259 4134 
L 1259 2753 
L 3481 2753 
L 3481 2222 
L 1259 2222 
L 1259 531 
L 3634 531 
L 3634 0 
L 628 0 
L 628 4666 
z
" transform="scale(0.015625)"/>
     </defs>
     <use xlink:href="#DejaVuSans-50"/>
     <use xlink:href="#DejaVuSans-72" x="58.552734"/>
     <use xlink:href="#DejaVuSans-65" x="97.416016"/>
     <use xlink:href="#DejaVuSans-64" x="158.939453"/>
     <use xlink:href="#DejaVuSans-69" x="222.416016"/>
     <use xlink:href="#DejaVuSans-63" x="250.199219"/>
     <use xlink:href="#DejaVuSans-74" x="305.179688"/>
     <use xlink:href="#DejaVuSans-69" x="344.388672"/>
     <use xlink:href="#DejaVuSans-6f" x="372.171875"/>
     <use xlink:href="#DejaVuSans-6e" x="433.353516"/>
     <use xlink:href="#DejaVuSans-20" x="496.732422"/>
     <use xlink:href="#DejaVuSans-45" x="528.519531"/>
     <use xlink:href="#DejaVuSans-72" x="591.703125"/>
     <use xlink:href="#DejaVuSans-72" x="631.066406"/>
     <use xlink:href="#DejaVuSans-6f" x="669.929688"/>
     <use xlink:href="#DejaVuSans-72" x="731.111328"/>
    </g>
   </g>
   <g id="legend_1">
    <g id="patch_7">
     <path d="M 234.342187 80.55625 
L 317 80.55625 
Q 319 80.55625 319 78.55625 
L 319 50.2 
Q 319 48.2 317 48.2 
L 234.342187 48.2 
Q 232.342187 48.2 232.342187 50.2 
L 232.342187 78.55625 
Q 232.342187 80.55625 234.342187 80.55625 
z
" style="fill: #ffffff; opacity: 0.8; stroke: #cccccc; stroke-linejoin: miter"/>
    </g>
    <g id="line2d_44">
     <path d="M 236.342187 56.298437 
L 246.342187 56.298437 
L 256.342188 56.298437 
" style="fill: none; stroke: #1f77b4; stroke-width: 1.5; stroke-linecap: square"/>
    </g>
    <g id="text_11">
     <!-- train error -->
     <g transform="translate(264.342188 59.798437)scale(0.1 -0.1)">
      <defs>
       <path id="DejaVuSans-61" d="M 2194 1759 
Q 1497 1759 1228 1600 
Q 959 1441 959 1056 
Q 959 750 1161 570 
Q 1363 391 1709 391 
Q 2188 391 2477 730 
Q 2766 1069 2766 1631 
L 2766 1759 
L 2194 1759 
z
M 3341 1997 
L 3341 0 
L 2766 0 
L 2766 531 
Q 2569 213 2275 61 
Q 1981 -91 1556 -91 
Q 1019 -91 701 211 
Q 384 513 384 1019 
Q 384 1609 779 1909 
Q 1175 2209 1959 2209 
L 2766 2209 
L 2766 2266 
Q 2766 2663 2505 2880 
Q 2244 3097 1772 3097 
Q 1472 3097 1187 3025 
Q 903 2953 641 2809 
L 641 3341 
Q 956 3463 1253 3523 
Q 1550 3584 1831 3584 
Q 2591 3584 2966 3190 
Q 3341 2797 3341 1997 
z
" transform="scale(0.015625)"/>
      </defs>
      <use xlink:href="#DejaVuSans-74"/>
      <use xlink:href="#DejaVuSans-72" x="39.208984"/>
      <use xlink:href="#DejaVuSans-61" x="80.322266"/>
      <use xlink:href="#DejaVuSans-69" x="141.601562"/>
      <use xlink:href="#DejaVuSans-6e" x="169.384766"/>
      <use xlink:href="#DejaVuSans-20" x="232.763672"/>
      <use xlink:href="#DejaVuSans-65" x="264.550781"/>
      <use xlink:href="#DejaVuSans-72" x="326.074219"/>
      <use xlink:href="#DejaVuSans-72" x="365.4375"/>
      <use xlink:href="#DejaVuSans-6f" x="404.300781"/>
      <use xlink:href="#DejaVuSans-72" x="465.482422"/>
     </g>
    </g>
    <g id="line2d_45">
     <path d="M 236.342187 70.976562 
L 246.342187 70.976562 
L 256.342188 70.976562 
" style="fill: none; stroke: #ff7f0e; stroke-width: 1.5; stroke-linecap: square"/>
    </g>
    <g id="text_12">
     <!-- test error -->
     <g transform="translate(264.342188 74.476562)scale(0.1 -0.1)">
      <defs>
       <path id="DejaVuSans-73" d="M 2834 3397 
L 2834 2853 
Q 2591 2978 2328 3040 
Q 2066 3103 1784 3103 
Q 1356 3103 1142 2972 
Q 928 2841 928 2578 
Q 928 2378 1081 2264 
Q 1234 2150 1697 2047 
L 1894 2003 
Q 2506 1872 2764 1633 
Q 3022 1394 3022 966 
Q 3022 478 2636 193 
Q 2250 -91 1575 -91 
Q 1294 -91 989 -36 
Q 684 19 347 128 
L 347 722 
Q 666 556 975 473 
Q 1284 391 1588 391 
Q 1994 391 2212 530 
Q 2431 669 2431 922 
Q 2431 1156 2273 1281 
Q 2116 1406 1581 1522 
L 1381 1569 
Q 847 1681 609 1914 
Q 372 2147 372 2553 
Q 372 3047 722 3315 
Q 1072 3584 1716 3584 
Q 2034 3584 2315 3537 
Q 2597 3491 2834 3397 
z
" transform="scale(0.015625)"/>
      </defs>
      <use xlink:href="#DejaVuSans-74"/>
      <use xlink:href="#DejaVuSans-65" x="39.208984"/>
      <use xlink:href="#DejaVuSans-73" x="100.732422"/>
      <use xlink:href="#DejaVuSans-74" x="152.832031"/>
      <use xlink:href="#DejaVuSans-20" x="192.041016"/>
      <use xlink:href="#DejaVuSans-65" x="223.828125"/>
      <use xlink:href="#DejaVuSans-72" x="285.351562"/>
      <use xlink:href="#DejaVuSans-72" x="324.714844"/>
      <use xlink:href="#DejaVuSans-6f" x="363.578125"/>
      <use xlink:href="#DejaVuSans-72" x="424.759766"/>
     </g>
    </g>
   </g>
  </g>
 </g>
 <defs>
  <clipPath id="p25274da0c7">
   <rect x="45" y="43.2" width="279" height="277.2"/>
  </clipPath>
 </defs>
</svg>
