<?xml version="1.0" encoding="utf-8" standalone="no"?>
<!DOCTYPE svg PUBLIC "-//W3C//DTD SVG 1.1//EN"
  "http://www.w3.org/Graphics/SVG/1.1/DTD/svg11.dtd">
<svg xmlns:xlink="http://www.w3.org/1999/xlink" width="360pt" height="360pt" viewBox="0 0 360 360" xmlns="http://www.w3.org/2000/svg" version="1.1">
 <metadata>
  <rdf:RDF xmlns:dc="http://purl.org/dc/elements/1.1/" xmlns:cc="http://creativecommons.org/ns#" xmlns:rdf="http://www.w3.org/1999/02/22-rdf-syntax-ns#">
   <cc:Work>
    <dc:type rdf:resource="http://purl.org/dc/dcmitype/StillImage"/>
    <dc:date>2022-11-13T18:50:43.565536</dc:date>
    <dc:format>image/svg+xml</dc:format>
    <dc:creator>
     <cc:Agent>
      <dc:title>Matplotlib v3.5.3, https://matplotlib.org/</dc:title>
     </cc:Agent>
    </dc:creator>
   </cc:Work>
  </rdf:RDF>
 </metadata>
 <defs>
  <style type="text/css">*{stroke-linejoin: round; stroke-linecap: butt}</style>
 </defs>
 <g id="figure_1">
  <g id="patch_1">
   <path d="M 0 360 
L 360 360 
L 360 0 
L 0 0 
z
" style="fill: #ffffff"/>
  </g>
  <g id="axes_1">
   <g id="patch_2">
    <path d="M 45 320.4 
L 324 320.4 
L 324 43.2 
L 45 43.2 
z
" style="fill: #ffffff"/>
   </g>
   <g id="matplotlib.axis_1">
    <g id="xtick_1">
     <g id="line2d_1">
      <defs>
       <path id="md2e5e8c5e1" d="M 0 0 
L 0 3.5 
" style="stroke: #000000; stroke-width: 0.8"/>
      </defs>
      <g>
       <use xlink:href="#md2e5e8c5e1" x="83.045455" y="320.4" style="stroke: #000000; stroke-width: 0.8"/>
      </g>
     </g>
     <g id="text_1">
      <!-- −2 -->
      <g transform="translate(75.674361 334.998438)scale(0.1 -0.1)">
       <defs>
        <path id="DejaVuSans-2212" d="M 678 2272 
L 4684 2272 
L 4684 1741 
L 678 1741 
L 678 2272 
z
" transform="scale(0.015625)"/>
        <path id="DejaVuSans-32" d="M 1228 531 
L 3431 531 
L 3431 0 
L 469 0 
L 469 531 
Q 828 903 1448 1529 
Q 2069 2156 2228 2338 
Q 2531 2678 2651 2914 
Q 2772 3150 2772 3378 
Q 2772 3750 2511 3984 
Q 2250 4219 1831 4219 
Q 1534 4219 1204 4116 
Q 875 4013 500 3803 
L 500 4441 
Q 881 4594 1212 4672 
Q 1544 4750 1819 4750 
Q 2544 4750 2975 4387 
Q 3406 4025 3406 3419 
Q 3406 3131 3298 2873 
Q 3191 2616 2906 2266 
Q 2828 2175 2409 1742 
Q 1991 1309 1228 531 
z
" transform="scale(0.015625)"/>
       </defs>
       <use xlink:href="#DejaVuSans-2212"/>
       <use xlink:href="#DejaVuSans-32" x="83.789062"/>
      </g>
     </g>
    </g>
    <g id="xtick_2">
     <g id="line2d_2">
      <g>
       <use xlink:href="#md2e5e8c5e1" x="133.772727" y="320.4" style="stroke: #000000; stroke-width: 0.8"/>
      </g>
     </g>
     <g id="text_2">
      <!-- −1 -->
      <g transform="translate(126.401634 334.998438)scale(0.1 -0.1)">
       <defs>
        <path id="DejaVuSans-31" d="M 794 531 
L 1825 531 
L 1825 4091 
L 703 3866 
L 703 4441 
L 1819 4666 
L 2450 4666 
L 2450 531 
L 3481 531 
L 3481 0 
L 794 0 
L 794 531 
z
" transform="scale(0.015625)"/>
       </defs>
       <use xlink:href="#DejaVuSans-2212"/>
       <use xlink:href="#DejaVuSans-31" x="83.789062"/>
      </g>
     </g>
    </g>
    <g id="xtick_3">
     <g id="line2d_3">
      <g>
       <use xlink:href="#md2e5e8c5e1" x="184.5" y="320.4" style="stroke: #000000; stroke-width: 0.8"/>
      </g>
     </g>
     <g id="text_3">
      <!-- 0 -->
      <g transform="translate(181.31875 334.998438)scale(0.1 -0.1)">
       <defs>
        <path id="DejaVuSans-30" d="M 2034 4250 
Q 1547 4250 1301 3770 
Q 1056 3291 1056 2328 
Q 1056 1369 1301 889 
Q 1547 409 2034 409 
Q 2525 409 2770 889 
Q 3016 1369 3016 2328 
Q 3016 3291 2770 3770 
Q 2525 4250 2034 4250 
z
M 2034 4750 
Q 2819 4750 3233 4129 
Q 3647 3509 3647 2328 
Q 3647 1150 3233 529 
Q 2819 -91 2034 -91 
Q 1250 -91 836 529 
Q 422 1150 422 2328 
Q 422 3509 836 4129 
Q 1250 4750 2034 4750 
z
" transform="scale(0.015625)"/>
       </defs>
       <use xlink:href="#DejaVuSans-30"/>
      </g>
     </g>
    </g>
    <g id="xtick_4">
     <g id="line2d_4">
      <g>
       <use xlink:href="#md2e5e8c5e1" x="235.227273" y="320.4" style="stroke: #000000; stroke-width: 0.8"/>
      </g>
     </g>
     <g id="text_4">
      <!-- 1 -->
      <g transform="translate(232.046023 334.998438)scale(0.1 -0.1)">
       <use xlink:href="#DejaVuSans-31"/>
      </g>
     </g>
    </g>
    <g id="xtick_5">
     <g id="line2d_5">
      <g>
       <use xlink:href="#md2e5e8c5e1" x="285.954545" y="320.4" style="stroke: #000000; stroke-width: 0.8"/>
      </g>
     </g>
     <g id="text_5">
      <!-- 2 -->
      <g transform="translate(282.773295 334.998438)scale(0.1 -0.1)">
       <use xlink:href="#DejaVuSans-32"/>
      </g>
     </g>
    </g>
   </g>
   <g id="matplotlib.axis_2">
    <g id="ytick_1">
     <g id="line2d_6">
      <defs>
       <path id="m9d1f6100fd" d="M 0 0 
L -3.5 0 
" style="stroke: #000000; stroke-width: 0.8"/>
      </defs>
      <g>
       <use xlink:href="#m9d1f6100fd" x="45" y="316.166864" style="stroke: #000000; stroke-width: 0.8"/>
      </g>
     </g>
     <g id="text_6">
      <!-- −4 -->
      <g transform="translate(23.257812 319.966082)scale(0.1 -0.1)">
       <defs>
        <path id="DejaVuSans-34" d="M 2419 4116 
L 825 1625 
L 2419 1625 
L 2419 4116 
z
M 2253 4666 
L 3047 4666 
L 3047 1625 
L 3713 1625 
L 3713 1100 
L 3047 1100 
L 3047 0 
L 2419 0 
L 2419 1100 
L 313 1100 
L 313 1709 
L 2253 4666 
z
" transform="scale(0.015625)"/>
       </defs>
       <use xlink:href="#DejaVuSans-2212"/>
       <use xlink:href="#DejaVuSans-34" x="83.789062"/>
      </g>
     </g>
    </g>
    <g id="ytick_2">
     <g id="line2d_7">
      <g>
       <use xlink:href="#m9d1f6100fd" x="45" y="265.627281" style="stroke: #000000; stroke-width: 0.8"/>
      </g>
     </g>
     <g id="text_7">
      <!-- −2 -->
      <g transform="translate(23.257812 269.4265)scale(0.1 -0.1)">
       <use xlink:href="#DejaVuSans-2212"/>
       <use xlink:href="#DejaVuSans-32" x="83.789062"/>
      </g>
     </g>
    </g>
    <g id="ytick_3">
     <g id="line2d_8">
      <g>
       <use xlink:href="#m9d1f6100fd" x="45" y="215.087699" style="stroke: #000000; stroke-width: 0.8"/>
      </g>
     </g>
     <g id="text_8">
      <!-- 0 -->
      <g transform="translate(31.6375 218.886918)scale(0.1 -0.1)">
       <use xlink:href="#DejaVuSans-30"/>
      </g>
     </g>
    </g>
    <g id="ytick_4">
     <g id="line2d_9">
      <g>
       <use xlink:href="#m9d1f6100fd" x="45" y="164.548117" style="stroke: #000000; stroke-width: 0.8"/>
      </g>
     </g>
     <g id="text_9">
      <!-- 2 -->
      <g transform="translate(31.6375 168.347336)scale(0.1 -0.1)">
       <use xlink:href="#DejaVuSans-32"/>
      </g>
     </g>
    </g>
    <g id="ytick_5">
     <g id="line2d_10">
      <g>
       <use xlink:href="#m9d1f6100fd" x="45" y="114.008535" style="stroke: #000000; stroke-width: 0.8"/>
      </g>
     </g>
     <g id="text_10">
      <!-- 4 -->
      <g transform="translate(31.6375 117.807753)scale(0.1 -0.1)">
       <use xlink:href="#DejaVuSans-34"/>
      </g>
     </g>
    </g>
    <g id="ytick_6">
     <g id="line2d_11">
      <g>
       <use xlink:href="#m9d1f6100fd" x="45" y="63.468952" style="stroke: #000000; stroke-width: 0.8"/>
      </g>
     </g>
     <g id="text_11">
      <!-- 6 -->
      <g transform="translate(31.6375 67.268171)scale(0.1 -0.1)">
       <defs>
        <path id="DejaVuSans-36" d="M 2113 2584 
Q 1688 2584 1439 2293 
Q 1191 2003 1191 1497 
Q 1191 994 1439 701 
Q 1688 409 2113 409 
Q 2538 409 2786 701 
Q 3034 994 3034 1497 
Q 3034 2003 2786 2293 
Q 2538 2584 2113 2584 
z
M 3366 4563 
L 3366 3988 
Q 3128 4100 2886 4159 
Q 2644 4219 2406 4219 
Q 1781 4219 1451 3797 
Q 1122 3375 1075 2522 
Q 1259 2794 1537 2939 
Q 1816 3084 2150 3084 
Q 2853 3084 3261 2657 
Q 3669 2231 3669 1497 
Q 3669 778 3244 343 
Q 2819 -91 2113 -91 
Q 1303 -91 875 529 
Q 447 1150 447 2328 
Q 447 3434 972 4092 
Q 1497 4750 2381 4750 
Q 2619 4750 2861 4703 
Q 3103 4656 3366 4563 
z
" transform="scale(0.015625)"/>
       </defs>
       <use xlink:href="#DejaVuSans-36"/>
      </g>
     </g>
    </g>
   </g>
   <g id="line2d_12">
    <path d="M 57.681818 215.441227 
L 58.317496 213.435343 
L 58.953174 213.385855 
L 59.588863 212.629127 
L 60.224541 212.203497 
L 60.860219 212.254912 
L 61.495896 211.53356 
L 62.131574 210.205954 
L 62.767264 209.527063 
L 63.402942 207.805102 
L 64.038619 207.916174 
L 64.674309 207.432324 
L 65.309987 205.167302 
L 65.945664 205.414004 
L 66.581342 204.487456 
L 67.21702 205.589341 
L 67.852697 205.141744 
L 68.488375 203.870569 
L 69.124053 204.949877 
L 69.759743 204.772978 
L 70.39542 203.914666 
L 71.031098 204.291336 
L 71.666776 204.821825 
L 72.302453 203.241016 
L 72.938143 203.160716 
L 73.573821 204.228232 
L 74.209498 204.978974 
L 74.845188 206.323254 
L 76.116544 205.816586 
L 76.752221 206.129343 
L 77.387899 207.5308 
L 78.023577 208.572373 
L 78.659254 208.122723 
L 79.294932 210.635078 
L 79.930622 209.676141 
L 80.566299 211.849816 
L 81.201977 212.259384 
L 81.837655 213.476385 
L 82.473333 214.044909 
L 83.109022 215.569062 
L 83.7447 215.269501 
L 84.380384 217.227907 
L 85.016061 217.215336 
L 85.651745 217.986889 
L 86.287423 220.804643 
L 86.923101 222.079232 
L 87.558784 221.087081 
L 88.194462 222.022671 
L 88.83014 224.852158 
L 89.465823 224.816581 
L 90.101501 226.747464 
L 90.737185 227.264047 
L 91.372862 226.654395 
L 92.644224 227.769865 
L 93.279902 228.843321 
L 93.915579 227.718313 
L 95.186941 230.153655 
L 95.822624 229.613629 
L 96.458302 229.284412 
L 97.09398 229.101266 
L 97.729663 230.302147 
L 98.365347 228.708854 
L 99.001025 229.510182 
L 99.636709 229.506093 
L 100.272386 228.648239 
L 100.90807 226.153554 
L 101.543748 225.620261 
L 102.179425 224.814336 
L 102.815109 224.369937 
L 103.450781 223.247304 
L 104.086458 223.389798 
L 104.722142 222.868316 
L 105.35782 220.433157 
L 105.993504 220.555243 
L 106.629181 219.540214 
L 108.536226 214.171543 
L 109.171904 213.973006 
L 109.807588 212.873387 
L 110.443266 210.602071 
L 111.078949 210.163468 
L 111.714627 208.899356 
L 112.350305 206.096349 
L 112.985988 205.673966 
L 113.621666 203.050936 
L 114.257344 201.765467 
L 114.893027 201.459212 
L 115.528705 200.306389 
L 116.164389 199.423688 
L 117.435744 197.991243 
L 118.071428 197.107326 
L 119.342783 194.69887 
L 119.978467 195.736161 
L 120.614145 195.591805 
L 121.249829 195.130972 
L 121.885506 195.324817 
L 122.521184 194.51421 
L 123.156868 193.928342 
L 123.792545 194.155427 
L 124.428223 194.965966 
L 125.063907 197.009524 
L 126.335268 197.81511 
L 127.606623 199.400581 
L 128.242307 201.831515 
L 128.877991 201.562617 
L 129.513669 204.315941 
L 130.149352 205.653959 
L 130.78503 207.507069 
L 131.420714 207.050371 
L 132.056391 211.126934 
L 132.692069 210.83257 
L 133.327753 213.750229 
L 133.963431 215.833734 
L 134.599111 216.922217 
L 135.234792 219.890785 
L 135.87047 221.067592 
L 136.50615 223.045193 
L 137.141831 227.155057 
L 137.777512 227.659506 
L 139.04887 231.963016 
L 140.320232 235.776892 
L 140.955909 238.566134 
L 141.59159 239.866375 
L 142.227271 240.148364 
L 142.862951 242.029059 
L 144.13431 246.729996 
L 144.769991 246.597004 
L 145.405671 248.460875 
L 146.041349 247.347657 
L 146.67703 249.733126 
L 147.31271 249.454962 
L 147.948391 249.839566 
L 148.584072 249.319263 
L 149.219749 248.122185 
L 149.85543 248.733683 
L 151.762469 245.061641 
L 152.39815 245.114485 
L 153.033831 243.313426 
L 153.669511 240.529977 
L 154.305195 239.347239 
L 154.940876 236.031146 
L 155.576557 234.278174 
L 156.212234 232.000858 
L 156.847915 227.538142 
L 157.483596 224.539563 
L 159.390635 212.6175 
L 160.026315 208.128005 
L 161.297675 201.560627 
L 165.111749 171.666367 
L 168.29015 142.385447 
L 168.925829 138.381879 
L 169.561514 132.975831 
L 170.197195 126.589942 
L 170.832874 122.616649 
L 171.468555 117.410075 
L 172.104235 110.962402 
L 172.739914 107.89664 
L 174.011274 96.239062 
L 174.64696 92.676749 
L 175.28264 88.282064 
L 175.91832 85.303096 
L 176.554 80.750369 
L 178.46104 70.219064 
L 179.09672 66.805215 
L 179.732393 66.345776 
L 180.368073 63.116092 
L 181.639433 60.613709 
L 182.275114 58.416132 
L 182.910794 58.448448 
L 183.546474 55.8 
L 184.182154 56.207601 
L 184.817839 57.034901 
L 185.453519 56.021507 
L 186.089199 58.53206 
L 186.724879 58.80367 
L 187.360559 59.860345 
L 187.996239 62.302843 
L 189.2676 65.587557 
L 189.903285 66.944435 
L 190.538964 69.489896 
L 191.174644 72.987719 
L 191.810325 77.891161 
L 192.446005 81.55957 
L 193.081685 83.464644 
L 196.26009 107.217647 
L 196.895771 110.524653 
L 197.53145 117.12432 
L 198.167131 122.056699 
L 198.802811 128.313754 
L 200.074164 138.031779 
L 200.709844 144.22405 
L 201.981204 153.824657 
L 202.616884 161.004813 
L 203.252564 164.786689 
L 203.888245 171.336031 
L 204.523924 176.384418 
L 205.79529 185.017577 
L 206.430969 191.323388 
L 208.973691 210.432166 
L 210.245049 217.181257 
L 210.88073 222.376719 
L 211.51641 223.63014 
L 212.152088 227.259756 
L 212.787769 232.380789 
L 213.42345 234.60565 
L 214.05913 236.210721 
L 214.694811 239.262089 
L 215.966169 243.601323 
L 216.60185 243.663276 
L 217.237528 246.787954 
L 217.873208 246.195558 
L 218.508889 248.084546 
L 219.14457 248.599749 
L 219.780251 248.325477 
L 220.415928 249.752285 
L 221.051609 250.278505 
L 221.68729 249.568083 
L 222.322967 247.941324 
L 222.958648 249.312614 
L 223.594329 247.313686 
L 224.230009 247.894129 
L 224.86569 244.879196 
L 226.137049 242.82437 
L 226.772729 240.806548 
L 227.408407 239.703313 
L 228.044088 237.259166 
L 228.679768 237.122699 
L 230.586807 228.950627 
L 231.222488 227.502066 
L 231.858169 226.97686 
L 232.493847 222.986982 
L 233.129527 222.141752 
L 233.765208 220.043777 
L 234.400889 218.8609 
L 235.672253 212.814031 
L 236.307931 211.609518 
L 236.943615 210.666388 
L 237.579292 207.762337 
L 238.214976 206.861737 
L 238.850654 203.700915 
L 239.486331 204.448711 
L 240.122015 202.354961 
L 240.757693 201.891661 
L 242.664732 196.321254 
L 243.300416 196.531683 
L 243.936093 194.84101 
L 244.571771 195.298864 
L 245.207455 194.413737 
L 245.843132 193.858579 
L 246.47881 193.672874 
L 247.114494 195.421599 
L 247.750171 193.66336 
L 248.385855 194.29233 
L 249.021533 195.999498 
L 249.657211 196.476565 
L 250.292894 197.5072 
L 250.928572 196.807382 
L 251.56425 198.923466 
L 252.199933 198.23122 
L 252.835611 199.315642 
L 253.471295 201.83895 
L 254.106973 201.492827 
L 254.74265 203.097315 
L 255.378334 203.62831 
L 256.014012 204.736743 
L 256.649689 208.011022 
L 257.285373 206.918002 
L 257.921051 208.35911 
L 258.556734 210.269785 
L 259.192412 213.28452 
L 259.82809 213.933584 
L 261.099451 216.465822 
L 261.735129 216.719534 
L 262.370813 218.228145 
L 263.00649 218.8996 
L 263.642174 221.53766 
L 264.277852 221.747881 
L 264.913529 222.771112 
L 265.549213 225.253765 
L 266.184897 226.337239 
L 266.820575 226.601382 
L 267.456258 225.835456 
L 268.091936 228.561608 
L 268.72762 229.057894 
L 269.363297 227.748408 
L 269.998975 228.182998 
L 270.634659 228.14331 
L 271.270337 230.362614 
L 271.906014 230.468481 
L 272.541698 228.93968 
L 273.177376 228.443329 
L 273.813059 228.652094 
L 274.448737 228.98994 
L 275.084415 228.467572 
L 275.720098 227.300233 
L 276.355776 228.852911 
L 276.991454 228.076256 
L 277.627138 226.014659 
L 278.262815 227.094285 
L 278.898499 226.198208 
L 279.534177 223.796573 
L 280.169854 223.488775 
L 280.805538 222.604563 
L 281.441222 222.636288 
L 282.076899 221.174942 
L 282.712583 219.032683 
L 283.348261 219.96007 
L 284.619622 216.594133 
L 285.2553 217.060476 
L 285.890984 213.960153 
L 286.526655 214.829369 
L 287.162333 213.530132 
L 287.798011 212.620607 
L 289.069378 211.714507 
L 289.705056 208.916424 
L 290.340734 208.491106 
L 290.976411 209.256243 
L 291.612101 208.184289 
L 292.247779 205.476325 
L 292.883456 205.655302 
L 293.519146 205.106387 
L 294.154824 205.908857 
L 295.426179 204.623929 
L 296.061857 204.407834 
L 296.697535 204.856272 
L 297.333212 203.770549 
L 297.96889 203.703625 
L 298.60458 204.013624 
L 299.240257 203.77187 
L 299.875935 204.608826 
L 300.511613 204.006121 
L 301.14729 204.149132 
L 301.78298 205.643199 
L 302.418658 206.641051 
L 303.054336 205.192753 
L 303.690025 206.070576 
L 304.325703 207.580628 
L 304.961381 206.330731 
L 305.597058 208.770157 
L 306.232736 208.031005 
L 306.868426 208.960983 
L 307.504104 211.404875 
L 308.139781 210.295832 
L 308.775471 213.054315 
L 310.046826 213.697147 
L 310.682504 215.140313 
L 311.318182 213.85339 
L 311.318182 213.85339 
" clip-path="url(#pb7974e3fec)" style="fill: none; stroke: #1f77b4; stroke-width: 1.5; stroke-linecap: square"/>
   </g>
   <g id="line2d_13">
    <path d="M 57.681818 207.773265 
L 74.845188 203.803412 
L 86.923101 201.231677 
L 97.09398 199.282459 
L 106.629181 197.682703 
L 115.528705 196.422824 
L 123.792545 195.47842 
L 132.056391 194.767932 
L 139.684551 194.328075 
L 147.31271 194.096557 
L 155.576557 194.072627 
L 164.476068 194.287654 
L 174.011274 194.750204 
L 186.089199 195.581703 
L 211.51641 197.650176 
L 229.95113 199.005003 
L 246.47881 199.98857 
L 263.642174 200.779053 
L 282.076899 201.396304 
L 302.418658 201.847326 
L 311.318182 201.98492 
L 311.318182 201.98492 
" clip-path="url(#pb7974e3fec)" style="fill: none; stroke: #ff7f0e; stroke-width: 1.5; stroke-linecap: square"/>
   </g>
   <g id="line2d_14">
    <path d="M 57.681818 267.272735 
L 78.659254 268.243425 
L 128.877991 270.706906 
L 140.320232 270.944747 
L 150.491111 270.931962 
L 160.661995 270.690688 
L 173.375594 270.137413 
L 189.2676 269.446153 
L 196.895771 269.343738 
L 203.252564 269.479109 
L 208.973691 269.8221 
L 214.05913 270.330237 
L 219.14457 271.046228 
L 224.230009 271.978528 
L 229.315449 273.128178 
L 234.400889 274.489027 
L 240.122015 276.256393 
L 245.843132 278.248193 
L 252.835611 280.937556 
L 261.099451 284.384217 
L 273.813059 289.976148 
L 288.433701 296.353193 
L 297.96889 300.256472 
L 306.232736 303.396916 
L 311.318182 305.20416 
L 311.318182 305.20416 
" clip-path="url(#pb7974e3fec)" style="fill: none; stroke: #2ca02c; stroke-width: 1.5; stroke-linecap: square"/>
   </g>
   <g id="line2d_15">
    <path d="M 57.681818 201.544776 
L 79.294932 203.085939 
L 97.09398 204.142811 
L 113.621666 204.902157 
L 128.242307 205.35548 
L 140.955909 205.535892 
L 151.762469 205.482781 
L 161.933355 205.211006 
L 171.468555 204.723664 
L 180.368073 204.046724 
L 189.2676 203.154968 
L 198.802811 201.981605 
L 210.245049 200.333652 
L 225.501368 197.885159 
L 253.471295 193.364179 
L 266.820575 191.456593 
L 278.898499 189.948565 
L 290.976411 188.660805 
L 303.690025 187.534568 
L 311.318182 186.962613 
L 311.318182 186.962613 
" clip-path="url(#pb7974e3fec)" style="fill: none; stroke: #d62728; stroke-width: 1.5; stroke-linecap: square"/>
   </g>
   <g id="line2d_16">
    <path d="M 57.681818 201.378268 
L 72.302453 205.385953 
L 85.016061 209.097096 
L 95.822624 212.481155 
L 104.722142 215.489956 
L 112.350305 218.284676 
L 119.342783 221.071606 
L 125.699584 223.833835 
L 132.056391 226.850281 
L 137.777512 229.805132 
L 143.498632 232.996381 
L 149.85543 236.808917 
L 156.847915 241.279192 
L 166.383109 247.673625 
L 182.910794 258.783213 
L 191.174644 264.054164 
L 199.438491 269.051469 
L 207.06665 273.411488 
L 214.694811 277.526888 
L 222.322967 281.391789 
L 229.95113 284.994925 
L 236.943615 288.057036 
L 243.936093 290.881758 
L 250.928572 293.467777 
L 257.921051 295.820372 
L 264.913529 297.950942 
L 272.541698 300.041049 
L 280.805538 302.057835 
L 289.069378 303.84992 
L 298.60458 305.680793 
L 308.775471 307.40181 
L 311.318182 307.8 
L 311.318182 307.8 
" clip-path="url(#pb7974e3fec)" style="fill: none; stroke: #9467bd; stroke-width: 1.5; stroke-linecap: square"/>
   </g>
   <g id="line2d_17">
    <path d="M 57.681818 147.0955 
L 81.837655 147.130679 
L 98.365347 147.374725 
L 111.714627 147.794875 
L 123.156868 148.377659 
L 133.327753 149.118286 
L 142.227271 149.97627 
L 150.491111 150.978301 
L 158.754957 152.202971 
L 166.383109 153.547108 
L 174.011274 155.103274 
L 182.275114 157.023326 
L 191.174644 159.339097 
L 200.709844 162.053445 
L 213.42345 165.916485 
L 240.122015 174.08607 
L 250.928572 177.110878 
L 260.463774 179.542843 
L 269.363297 181.580866 
L 278.262815 183.380937 
L 287.162333 184.941068 
L 296.061857 186.268675 
L 304.961381 187.378252 
L 311.318182 188.04784 
L 311.318182 188.04784 
" clip-path="url(#pb7974e3fec)" style="fill: none; stroke: #8c564b; stroke-width: 1.5; stroke-linecap: square"/>
   </g>
   <g id="line2d_18">
    <path d="M 57.681818 242.961802 
L 86.923101 242.696995 
L 107.900543 242.295621 
L 127.606623 241.692581 
L 151.762469 240.709314 
L 177.18968 239.470704 
L 197.53145 238.251867 
L 229.315449 236.303086 
L 241.39337 235.824048 
L 253.471295 235.563708 
L 268.091936 235.476588 
L 295.426179 235.591446 
L 311.318182 235.651088 
L 311.318182 235.651088 
" clip-path="url(#pb7974e3fec)" style="fill: none; stroke: #e377c2; stroke-width: 1.5; stroke-linecap: square"/>
   </g>
   <g id="patch_3">
    <path d="M 45 320.4 
L 45 43.2 
" style="fill: none; stroke: #000000; stroke-width: 0.8; stroke-linejoin: miter; stroke-linecap: square"/>
   </g>
   <g id="patch_4">
    <path d="M 324 320.4 
L 324 43.2 
" style="fill: none; stroke: #000000; stroke-width: 0.8; stroke-linejoin: miter; stroke-linecap: square"/>
   </g>
   <g id="patch_5">
    <path d="M 45 320.4 
L 324 320.4 
" style="fill: none; stroke: #000000; stroke-width: 0.8; stroke-linejoin: miter; stroke-linecap: square"/>
   </g>
   <g id="patch_6">
    <path d="M 45 43.2 
L 324 43.2 
" style="fill: none; stroke: #000000; stroke-width: 0.8; stroke-linejoin: miter; stroke-linecap: square"/>
   </g>
   <g id="text_12">
    <!-- Prediction Curves -->
    <g transform="translate(131.961563 37.2)scale(0.12 -0.12)">
     <defs>
      <path id="DejaVuSans-50" d="M 1259 4147 
L 1259 2394 
L 2053 2394 
Q 2494 2394 2734 2622 
Q 2975 2850 2975 3272 
Q 2975 3691 2734 3919 
Q 2494 4147 2053 4147 
L 1259 4147 
z
M 628 4666 
L 2053 4666 
Q 2838 4666 3239 4311 
Q 3641 3956 3641 3272 
Q 3641 2581 3239 2228 
Q 2838 1875 2053 1875 
L 1259 1875 
L 1259 0 
L 628 0 
L 628 4666 
z
" transform="scale(0.015625)"/>
      <path id="DejaVuSans-72" d="M 2631 2963 
Q 2534 3019 2420 3045 
Q 2306 3072 2169 3072 
Q 1681 3072 1420 2755 
Q 1159 2438 1159 1844 
L 1159 0 
L 581 0 
L 581 3500 
L 1159 3500 
L 1159 2956 
Q 1341 3275 1631 3429 
Q 1922 3584 2338 3584 
Q 2397 3584 2469 3576 
Q 2541 3569 2628 3553 
L 2631 2963 
z
" transform="scale(0.015625)"/>
      <path id="DejaVuSans-65" d="M 3597 1894 
L 3597 1613 
L 953 1613 
Q 991 1019 1311 708 
Q 1631 397 2203 397 
Q 2534 397 2845 478 
Q 3156 559 3463 722 
L 3463 178 
Q 3153 47 2828 -22 
Q 2503 -91 2169 -91 
Q 1331 -91 842 396 
Q 353 884 353 1716 
Q 353 2575 817 3079 
Q 1281 3584 2069 3584 
Q 2775 3584 3186 3129 
Q 3597 2675 3597 1894 
z
M 3022 2063 
Q 3016 2534 2758 2815 
Q 2500 3097 2075 3097 
Q 1594 3097 1305 2825 
Q 1016 2553 972 2059 
L 3022 2063 
z
" transform="scale(0.015625)"/>
      <path id="DejaVuSans-64" d="M 2906 2969 
L 2906 4863 
L 3481 4863 
L 3481 0 
L 2906 0 
L 2906 525 
Q 2725 213 2448 61 
Q 2172 -91 1784 -91 
Q 1150 -91 751 415 
Q 353 922 353 1747 
Q 353 2572 751 3078 
Q 1150 3584 1784 3584 
Q 2172 3584 2448 3432 
Q 2725 3281 2906 2969 
z
M 947 1747 
Q 947 1113 1208 752 
Q 1469 391 1925 391 
Q 2381 391 2643 752 
Q 2906 1113 2906 1747 
Q 2906 2381 2643 2742 
Q 2381 3103 1925 3103 
Q 1469 3103 1208 2742 
Q 947 2381 947 1747 
z
" transform="scale(0.015625)"/>
      <path id="DejaVuSans-69" d="M 603 3500 
L 1178 3500 
L 1178 0 
L 603 0 
L 603 3500 
z
M 603 4863 
L 1178 4863 
L 1178 4134 
L 603 4134 
L 603 4863 
z
" transform="scale(0.015625)"/>
      <path id="DejaVuSans-63" d="M 3122 3366 
L 3122 2828 
Q 2878 2963 2633 3030 
Q 2388 3097 2138 3097 
Q 1578 3097 1268 2742 
Q 959 2388 959 1747 
Q 959 1106 1268 751 
Q 1578 397 2138 397 
Q 2388 397 2633 464 
Q 2878 531 3122 666 
L 3122 134 
Q 2881 22 2623 -34 
Q 2366 -91 2075 -91 
Q 1284 -91 818 406 
Q 353 903 353 1747 
Q 353 2603 823 3093 
Q 1294 3584 2113 3584 
Q 2378 3584 2631 3529 
Q 2884 3475 3122 3366 
z
" transform="scale(0.015625)"/>
      <path id="DejaVuSans-74" d="M 1172 4494 
L 1172 3500 
L 2356 3500 
L 2356 3053 
L 1172 3053 
L 1172 1153 
Q 1172 725 1289 603 
Q 1406 481 1766 481 
L 2356 481 
L 2356 0 
L 1766 0 
Q 1100 0 847 248 
Q 594 497 594 1153 
L 594 3053 
L 172 3053 
L 172 3500 
L 594 3500 
L 594 4494 
L 1172 4494 
z
" transform="scale(0.015625)"/>
      <path id="DejaVuSans-6f" d="M 1959 3097 
Q 1497 3097 1228 2736 
Q 959 2375 959 1747 
Q 959 1119 1226 758 
Q 1494 397 1959 397 
Q 2419 397 2687 759 
Q 2956 1122 2956 1747 
Q 2956 2369 2687 2733 
Q 2419 3097 1959 3097 
z
M 1959 3584 
Q 2709 3584 3137 3096 
Q 3566 2609 3566 1747 
Q 3566 888 3137 398 
Q 2709 -91 1959 -91 
Q 1206 -91 779 398 
Q 353 888 353 1747 
Q 353 2609 779 3096 
Q 1206 3584 1959 3584 
z
" transform="scale(0.015625)"/>
      <path id="DejaVuSans-6e" d="M 3513 2113 
L 3513 0 
L 2938 0 
L 2938 2094 
Q 2938 2591 2744 2837 
Q 2550 3084 2163 3084 
Q 1697 3084 1428 2787 
Q 1159 2491 1159 1978 
L 1159 0 
L 581 0 
L 581 3500 
L 1159 3500 
L 1159 2956 
Q 1366 3272 1645 3428 
Q 1925 3584 2291 3584 
Q 2894 3584 3203 3211 
Q 3513 2838 3513 2113 
z
" transform="scale(0.015625)"/>
      <path id="DejaVuSans-20" transform="scale(0.015625)"/>
      <path id="DejaVuSans-43" d="M 4122 4306 
L 4122 3641 
Q 3803 3938 3442 4084 
Q 3081 4231 2675 4231 
Q 1875 4231 1450 3742 
Q 1025 3253 1025 2328 
Q 1025 1406 1450 917 
Q 1875 428 2675 428 
Q 3081 428 3442 575 
Q 3803 722 4122 1019 
L 4122 359 
Q 3791 134 3420 21 
Q 3050 -91 2638 -91 
Q 1578 -91 968 557 
Q 359 1206 359 2328 
Q 359 3453 968 4101 
Q 1578 4750 2638 4750 
Q 3056 4750 3426 4639 
Q 3797 4528 4122 4306 
z
" transform="scale(0.015625)"/>
      <path id="DejaVuSans-75" d="M 544 1381 
L 544 3500 
L 1119 3500 
L 1119 1403 
Q 1119 906 1312 657 
Q 1506 409 1894 409 
Q 2359 409 2629 706 
Q 2900 1003 2900 1516 
L 2900 3500 
L 3475 3500 
L 3475 0 
L 2900 0 
L 2900 538 
Q 2691 219 2414 64 
Q 2138 -91 1772 -91 
Q 1169 -91 856 284 
Q 544 659 544 1381 
z
M 1991 3584 
L 1991 3584 
z
" transform="scale(0.015625)"/>
      <path id="DejaVuSans-76" d="M 191 3500 
L 800 3500 
L 1894 563 
L 2988 3500 
L 3597 3500 
L 2284 0 
L 1503 0 
L 191 3500 
z
" transform="scale(0.015625)"/>
      <path id="DejaVuSans-73" d="M 2834 3397 
L 2834 2853 
Q 2591 2978 2328 3040 
Q 2066 3103 1784 3103 
Q 1356 3103 1142 2972 
Q 928 2841 928 2578 
Q 928 2378 1081 2264 
Q 1234 2150 1697 2047 
L 1894 2003 
Q 2506 1872 2764 1633 
Q 3022 1394 3022 966 
Q 3022 478 2636 193 
Q 2250 -91 1575 -91 
Q 1294 -91 989 -36 
Q 684 19 347 128 
L 347 722 
Q 666 556 975 473 
Q 1284 391 1588 391 
Q 1994 391 2212 530 
Q 2431 669 2431 922 
Q 2431 1156 2273 1281 
Q 2116 1406 1581 1522 
L 1381 1569 
Q 847 1681 609 1914 
Q 372 2147 372 2553 
Q 372 3047 722 3315 
Q 1072 3584 1716 3584 
Q 2034 3584 2315 3537 
Q 2597 3491 2834 3397 
z
" transform="scale(0.015625)"/>
     </defs>
     <use xlink:href="#DejaVuSans-50"/>
     <use xlink:href="#DejaVuSans-72" x="58.552734"/>
     <use xlink:href="#DejaVuSans-65" x="97.416016"/>
     <use xlink:href="#DejaVuSans-64" x="158.939453"/>
     <use xlink:href="#DejaVuSans-69" x="222.416016"/>
     <use xlink:href="#DejaVuSans-63" x="250.199219"/>
     <use xlink:href="#DejaVuSans-74" x="305.179688"/>
     <use xlink:href="#DejaVuSans-69" x="344.388672"/>
     <use xlink:href="#DejaVuSans-6f" x="372.171875"/>
     <use xlink:href="#DejaVuSans-6e" x="433.353516"/>
     <use xlink:href="#DejaVuSans-20" x="496.732422"/>
     <use xlink:href="#DejaVuSans-43" x="528.519531"/>
     <use xlink:href="#DejaVuSans-75" x="598.34375"/>
     <use xlink:href="#DejaVuSans-72" x="661.722656"/>
     <use xlink:href="#DejaVuSans-76" x="702.835938"/>
     <use xlink:href="#DejaVuSans-65" x="762.015625"/>
     <use xlink:href="#DejaVuSans-73" x="823.539062"/>
    </g>
   </g>
   <g id="legend_1">
    <g id="patch_7">
     <path d="M 173.05625 153.946875 
L 317 153.946875 
Q 319 153.946875 319 151.946875 
L 319 50.2 
Q 319 48.2 317 48.2 
L 173.05625 48.2 
Q 171.05625 48.2 171.05625 50.2 
L 171.05625 151.946875 
Q 171.05625 153.946875 173.05625 153.946875 
z
" style="fill: #ffffff; opacity: 0.8; stroke: #cccccc; stroke-linejoin: miter"/>
    </g>
    <g id="line2d_19">
     <path d="M 175.05625 56.298437 
L 185.05625 56.298437 
L 195.05625 56.298437 
" style="fill: none; stroke: #1f77b4; stroke-width: 1.5; stroke-linecap: square"/>
    </g>
    <g id="text_13">
     <!-- Function with noise -->
     <g transform="translate(203.05625 59.798437)scale(0.1 -0.1)">
      <defs>
       <path id="DejaVuSans-46" d="M 628 4666 
L 3309 4666 
L 3309 4134 
L 1259 4134 
L 1259 2759 
L 3109 2759 
L 3109 2228 
L 1259 2228 
L 1259 0 
L 628 0 
L 628 4666 
z
" transform="scale(0.015625)"/>
       <path id="DejaVuSans-77" d="M 269 3500 
L 844 3500 
L 1563 769 
L 2278 3500 
L 2956 3500 
L 3675 769 
L 4391 3500 
L 4966 3500 
L 4050 0 
L 3372 0 
L 2619 2869 
L 1863 0 
L 1184 0 
L 269 3500 
z
" transform="scale(0.015625)"/>
       <path id="DejaVuSans-68" d="M 3513 2113 
L 3513 0 
L 2938 0 
L 2938 2094 
Q 2938 2591 2744 2837 
Q 2550 3084 2163 3084 
Q 1697 3084 1428 2787 
Q 1159 2491 1159 1978 
L 1159 0 
L 581 0 
L 581 4863 
L 1159 4863 
L 1159 2956 
Q 1366 3272 1645 3428 
Q 1925 3584 2291 3584 
Q 2894 3584 3203 3211 
Q 3513 2838 3513 2113 
z
" transform="scale(0.015625)"/>
      </defs>
      <use xlink:href="#DejaVuSans-46"/>
      <use xlink:href="#DejaVuSans-75" x="52.019531"/>
      <use xlink:href="#DejaVuSans-6e" x="115.398438"/>
      <use xlink:href="#DejaVuSans-63" x="178.777344"/>
      <use xlink:href="#DejaVuSans-74" x="233.757812"/>
      <use xlink:href="#DejaVuSans-69" x="272.966797"/>
      <use xlink:href="#DejaVuSans-6f" x="300.75"/>
      <use xlink:href="#DejaVuSans-6e" x="361.931641"/>
      <use xlink:href="#DejaVuSans-20" x="425.310547"/>
      <use xlink:href="#DejaVuSans-77" x="457.097656"/>
      <use xlink:href="#DejaVuSans-69" x="538.884766"/>
      <use xlink:href="#DejaVuSans-74" x="566.667969"/>
      <use xlink:href="#DejaVuSans-68" x="605.876953"/>
      <use xlink:href="#DejaVuSans-20" x="669.255859"/>
      <use xlink:href="#DejaVuSans-6e" x="701.042969"/>
      <use xlink:href="#DejaVuSans-6f" x="764.421875"/>
      <use xlink:href="#DejaVuSans-69" x="825.603516"/>
      <use xlink:href="#DejaVuSans-73" x="853.386719"/>
      <use xlink:href="#DejaVuSans-65" x="905.486328"/>
     </g>
    </g>
    <g id="line2d_20">
     <path d="M 175.05625 70.976562 
L 185.05625 70.976562 
L 195.05625 70.976562 
" style="fill: none; stroke: #ff7f0e; stroke-width: 1.5; stroke-linecap: square"/>
    </g>
    <g id="text_14">
     <!-- Prediction 1 -->
     <g transform="translate(203.05625 74.476562)scale(0.1 -0.1)">
      <use xlink:href="#DejaVuSans-50"/>
      <use xlink:href="#DejaVuSans-72" x="58.552734"/>
      <use xlink:href="#DejaVuSans-65" x="97.416016"/>
      <use xlink:href="#DejaVuSans-64" x="158.939453"/>
      <use xlink:href="#DejaVuSans-69" x="222.416016"/>
      <use xlink:href="#DejaVuSans-63" x="250.199219"/>
      <use xlink:href="#DejaVuSans-74" x="305.179688"/>
      <use xlink:href="#DejaVuSans-69" x="344.388672"/>
      <use xlink:href="#DejaVuSans-6f" x="372.171875"/>
      <use xlink:href="#DejaVuSans-6e" x="433.353516"/>
      <use xlink:href="#DejaVuSans-20" x="496.732422"/>
      <use xlink:href="#DejaVuSans-31" x="528.519531"/>
     </g>
    </g>
    <g id="line2d_21">
     <path d="M 175.05625 85.654687 
L 185.05625 85.654687 
L 195.05625 85.654687 
" style="fill: none; stroke: #2ca02c; stroke-width: 1.5; stroke-linecap: square"/>
    </g>
    <g id="text_15">
     <!-- Prediction 2 -->
     <g transform="translate(203.05625 89.154687)scale(0.1 -0.1)">
      <use xlink:href="#DejaVuSans-50"/>
      <use xlink:href="#DejaVuSans-72" x="58.552734"/>
      <use xlink:href="#DejaVuSans-65" x="97.416016"/>
      <use xlink:href="#DejaVuSans-64" x="158.939453"/>
      <use xlink:href="#DejaVuSans-69" x="222.416016"/>
      <use xlink:href="#DejaVuSans-63" x="250.199219"/>
      <use xlink:href="#DejaVuSans-74" x="305.179688"/>
      <use xlink:href="#DejaVuSans-69" x="344.388672"/>
      <use xlink:href="#DejaVuSans-6f" x="372.171875"/>
      <use xlink:href="#DejaVuSans-6e" x="433.353516"/>
      <use xlink:href="#DejaVuSans-20" x="496.732422"/>
      <use xlink:href="#DejaVuSans-32" x="528.519531"/>
     </g>
    </g>
    <g id="line2d_22">
     <path d="M 175.05625 100.332812 
L 185.05625 100.332812 
L 195.05625 100.332812 
" style="fill: none; stroke: #d62728; stroke-width: 1.5; stroke-linecap: square"/>
    </g>
    <g id="text_16">
     <!-- Prediction 3 -->
     <g transform="translate(203.05625 103.832812)scale(0.1 -0.1)">
      <defs>
       <path id="DejaVuSans-33" d="M 2597 2516 
Q 3050 2419 3304 2112 
Q 3559 1806 3559 1356 
Q 3559 666 3084 287 
Q 2609 -91 1734 -91 
Q 1441 -91 1130 -33 
Q 819 25 488 141 
L 488 750 
Q 750 597 1062 519 
Q 1375 441 1716 441 
Q 2309 441 2620 675 
Q 2931 909 2931 1356 
Q 2931 1769 2642 2001 
Q 2353 2234 1838 2234 
L 1294 2234 
L 1294 2753 
L 1863 2753 
Q 2328 2753 2575 2939 
Q 2822 3125 2822 3475 
Q 2822 3834 2567 4026 
Q 2313 4219 1838 4219 
Q 1578 4219 1281 4162 
Q 984 4106 628 3988 
L 628 4550 
Q 988 4650 1302 4700 
Q 1616 4750 1894 4750 
Q 2613 4750 3031 4423 
Q 3450 4097 3450 3541 
Q 3450 3153 3228 2886 
Q 3006 2619 2597 2516 
z
" transform="scale(0.015625)"/>
      </defs>
      <use xlink:href="#DejaVuSans-50"/>
      <use xlink:href="#DejaVuSans-72" x="58.552734"/>
      <use xlink:href="#DejaVuSans-65" x="97.416016"/>
      <use xlink:href="#DejaVuSans-64" x="158.939453"/>
      <use xlink:href="#DejaVuSans-69" x="222.416016"/>
      <use xlink:href="#DejaVuSans-63" x="250.199219"/>
      <use xlink:href="#DejaVuSans-74" x="305.179688"/>
      <use xlink:href="#DejaVuSans-69" x="344.388672"/>
      <use xlink:href="#DejaVuSans-6f" x="372.171875"/>
      <use xlink:href="#DejaVuSans-6e" x="433.353516"/>
      <use xlink:href="#DejaVuSans-20" x="496.732422"/>
      <use xlink:href="#DejaVuSans-33" x="528.519531"/>
     </g>
    </g>
    <g id="line2d_23">
     <path d="M 175.05625 115.010937 
L 185.05625 115.010937 
L 195.05625 115.010937 
" style="fill: none; stroke: #9467bd; stroke-width: 1.5; stroke-linecap: square"/>
    </g>
    <g id="text_17">
     <!-- Prediction 4 -->
     <g transform="translate(203.05625 118.510937)scale(0.1 -0.1)">
      <use xlink:href="#DejaVuSans-50"/>
      <use xlink:href="#DejaVuSans-72" x="58.552734"/>
      <use xlink:href="#DejaVuSans-65" x="97.416016"/>
      <use xlink:href="#DejaVuSans-64" x="158.939453"/>
      <use xlink:href="#DejaVuSans-69" x="222.416016"/>
      <use xlink:href="#DejaVuSans-63" x="250.199219"/>
      <use xlink:href="#DejaVuSans-74" x="305.179688"/>
      <use xlink:href="#DejaVuSans-69" x="344.388672"/>
      <use xlink:href="#DejaVuSans-6f" x="372.171875"/>
      <use xlink:href="#DejaVuSans-6e" x="433.353516"/>
      <use xlink:href="#DejaVuSans-20" x="496.732422"/>
      <use xlink:href="#DejaVuSans-34" x="528.519531"/>
     </g>
    </g>
    <g id="line2d_24">
     <path d="M 175.05625 129.689062 
L 185.05625 129.689062 
L 195.05625 129.689062 
" style="fill: none; stroke: #8c564b; stroke-width: 1.5; stroke-linecap: square"/>
    </g>
    <g id="text_18">
     <!-- Prediction 5 -->
     <g transform="translate(203.05625 133.189062)scale(0.1 -0.1)">
      <defs>
       <path id="DejaVuSans-35" d="M 691 4666 
L 3169 4666 
L 3169 4134 
L 1269 4134 
L 1269 2991 
Q 1406 3038 1543 3061 
Q 1681 3084 1819 3084 
Q 2600 3084 3056 2656 
Q 3513 2228 3513 1497 
Q 3513 744 3044 326 
Q 2575 -91 1722 -91 
Q 1428 -91 1123 -41 
Q 819 9 494 109 
L 494 744 
Q 775 591 1075 516 
Q 1375 441 1709 441 
Q 2250 441 2565 725 
Q 2881 1009 2881 1497 
Q 2881 1984 2565 2268 
Q 2250 2553 1709 2553 
Q 1456 2553 1204 2497 
Q 953 2441 691 2322 
L 691 4666 
z
" transform="scale(0.015625)"/>
      </defs>
      <use xlink:href="#DejaVuSans-50"/>
      <use xlink:href="#DejaVuSans-72" x="58.552734"/>
      <use xlink:href="#DejaVuSans-65" x="97.416016"/>
      <use xlink:href="#DejaVuSans-64" x="158.939453"/>
      <use xlink:href="#DejaVuSans-69" x="222.416016"/>
      <use xlink:href="#DejaVuSans-63" x="250.199219"/>
      <use xlink:href="#DejaVuSans-74" x="305.179688"/>
      <use xlink:href="#DejaVuSans-69" x="344.388672"/>
      <use xlink:href="#DejaVuSans-6f" x="372.171875"/>
      <use xlink:href="#DejaVuSans-6e" x="433.353516"/>
      <use xlink:href="#DejaVuSans-20" x="496.732422"/>
      <use xlink:href="#DejaVuSans-35" x="528.519531"/>
     </g>
    </g>
    <g id="line2d_25">
     <path d="M 175.05625 144.367187 
L 185.05625 144.367187 
L 195.05625 144.367187 
" style="fill: none; stroke: #e377c2; stroke-width: 1.5; stroke-linecap: square"/>
    </g>
    <g id="text_19">
     <!-- Average of Predictions -->
     <g transform="translate(203.05625 147.867187)scale(0.1 -0.1)">
      <defs>
       <path id="DejaVuSans-41" d="M 2188 4044 
L 1331 1722 
L 3047 1722 
L 2188 4044 
z
M 1831 4666 
L 2547 4666 
L 4325 0 
L 3669 0 
L 3244 1197 
L 1141 1197 
L 716 0 
L 50 0 
L 1831 4666 
z
" transform="scale(0.015625)"/>
       <path id="DejaVuSans-61" d="M 2194 1759 
Q 1497 1759 1228 1600 
Q 959 1441 959 1056 
Q 959 750 1161 570 
Q 1363 391 1709 391 
Q 2188 391 2477 730 
Q 2766 1069 2766 1631 
L 2766 1759 
L 2194 1759 
z
M 3341 1997 
L 3341 0 
L 2766 0 
L 2766 531 
Q 2569 213 2275 61 
Q 1981 -91 1556 -91 
Q 1019 -91 701 211 
Q 384 513 384 1019 
Q 384 1609 779 1909 
Q 1175 2209 1959 2209 
L 2766 2209 
L 2766 2266 
Q 2766 2663 2505 2880 
Q 2244 3097 1772 3097 
Q 1472 3097 1187 3025 
Q 903 2953 641 2809 
L 641 3341 
Q 956 3463 1253 3523 
Q 1550 3584 1831 3584 
Q 2591 3584 2966 3190 
Q 3341 2797 3341 1997 
z
" transform="scale(0.015625)"/>
       <path id="DejaVuSans-67" d="M 2906 1791 
Q 2906 2416 2648 2759 
Q 2391 3103 1925 3103 
Q 1463 3103 1205 2759 
Q 947 2416 947 1791 
Q 947 1169 1205 825 
Q 1463 481 1925 481 
Q 2391 481 2648 825 
Q 2906 1169 2906 1791 
z
M 3481 434 
Q 3481 -459 3084 -895 
Q 2688 -1331 1869 -1331 
Q 1566 -1331 1297 -1286 
Q 1028 -1241 775 -1147 
L 775 -588 
Q 1028 -725 1275 -790 
Q 1522 -856 1778 -856 
Q 2344 -856 2625 -561 
Q 2906 -266 2906 331 
L 2906 616 
Q 2728 306 2450 153 
Q 2172 0 1784 0 
Q 1141 0 747 490 
Q 353 981 353 1791 
Q 353 2603 747 3093 
Q 1141 3584 1784 3584 
Q 2172 3584 2450 3431 
Q 2728 3278 2906 2969 
L 2906 3500 
L 3481 3500 
L 3481 434 
z
" transform="scale(0.015625)"/>
       <path id="DejaVuSans-66" d="M 2375 4863 
L 2375 4384 
L 1825 4384 
Q 1516 4384 1395 4259 
Q 1275 4134 1275 3809 
L 1275 3500 
L 2222 3500 
L 2222 3053 
L 1275 3053 
L 1275 0 
L 697 0 
L 697 3053 
L 147 3053 
L 147 3500 
L 697 3500 
L 697 3744 
Q 697 4328 969 4595 
Q 1241 4863 1831 4863 
L 2375 4863 
z
" transform="scale(0.015625)"/>
      </defs>
      <use xlink:href="#DejaVuSans-41"/>
      <use xlink:href="#DejaVuSans-76" x="62.533203"/>
      <use xlink:href="#DejaVuSans-65" x="121.712891"/>
      <use xlink:href="#DejaVuSans-72" x="183.236328"/>
      <use xlink:href="#DejaVuSans-61" x="224.349609"/>
      <use xlink:href="#DejaVuSans-67" x="285.628906"/>
      <use xlink:href="#DejaVuSans-65" x="349.105469"/>
      <use xlink:href="#DejaVuSans-20" x="410.628906"/>
      <use xlink:href="#DejaVuSans-6f" x="442.416016"/>
      <use xlink:href="#DejaVuSans-66" x="503.597656"/>
      <use xlink:href="#DejaVuSans-20" x="538.802734"/>
      <use xlink:href="#DejaVuSans-50" x="570.589844"/>
      <use xlink:href="#DejaVuSans-72" x="629.142578"/>
      <use xlink:href="#DejaVuSans-65" x="668.005859"/>
      <use xlink:href="#DejaVuSans-64" x="729.529297"/>
      <use xlink:href="#DejaVuSans-69" x="793.005859"/>
      <use xlink:href="#DejaVuSans-63" x="820.789062"/>
      <use xlink:href="#DejaVuSans-74" x="875.769531"/>
      <use xlink:href="#DejaVuSans-69" x="914.978516"/>
      <use xlink:href="#DejaVuSans-6f" x="942.761719"/>
      <use xlink:href="#DejaVuSans-6e" x="1003.943359"/>
      <use xlink:href="#DejaVuSans-73" x="1067.322266"/>
     </g>
    </g>
   </g>
  </g>
 </g>
 <defs>
  <clipPath id="pb7974e3fec">
   <rect x="45" y="43.2" width="279" height="277.2"/>
  </clipPath>
 </defs>
</svg>
