<?xml version="1.0" encoding="utf-8" standalone="no"?>
<!DOCTYPE svg PUBLIC "-//W3C//DTD SVG 1.1//EN"
  "http://www.w3.org/Graphics/SVG/1.1/DTD/svg11.dtd">
<svg xmlns:xlink="http://www.w3.org/1999/xlink" width="360pt" height="360pt" viewBox="0 0 360 360" xmlns="http://www.w3.org/2000/svg" version="1.1">
 <metadata>
  <rdf:RDF xmlns:dc="http://purl.org/dc/elements/1.1/" xmlns:cc="http://creativecommons.org/ns#" xmlns:rdf="http://www.w3.org/1999/02/22-rdf-syntax-ns#">
   <cc:Work>
    <dc:type rdf:resource="http://purl.org/dc/dcmitype/StillImage"/>
    <dc:date>2022-12-22T09:47:01.974011</dc:date>
    <dc:format>image/svg+xml</dc:format>
    <dc:creator>
     <cc:Agent>
      <dc:title>Matplotlib v3.5.3, https://matplotlib.org/</dc:title>
     </cc:Agent>
    </dc:creator>
   </cc:Work>
  </rdf:RDF>
 </metadata>
 <defs>
  <style type="text/css">*{stroke-linejoin: round; stroke-linecap: butt}</style>
 </defs>
 <g id="figure_1">
  <g id="patch_1">
   <path d="M 0 360 
L 360 360 
L 360 0 
L 0 0 
z
" style="fill: #ffffff"/>
  </g>
  <g id="axes_1">
   <g id="patch_2">
    <path d="M 45 320.4 
L 324 320.4 
L 324 43.2 
L 45 43.2 
z
" style="fill: #ffffff"/>
   </g>
   <g id="matplotlib.axis_1">
    <g id="xtick_1">
     <g id="line2d_1">
      <defs>
       <path id="m19cdf152f5" d="M 0 0 
L 0 3.5 
" style="stroke: #000000; stroke-width: 0.8"/>
      </defs>
      <g>
       <use xlink:href="#m19cdf152f5" x="57.681818" y="320.4" style="stroke: #000000; stroke-width: 0.8"/>
      </g>
     </g>
     <g id="text_1">
      <!-- −0.5 -->
      <g transform="translate(45.540412 334.998438)scale(0.1 -0.1)">
       <defs>
        <path id="DejaVuSans-2212" d="M 678 2272 
L 4684 2272 
L 4684 1741 
L 678 1741 
L 678 2272 
z
" transform="scale(0.015625)"/>
        <path id="DejaVuSans-30" d="M 2034 4250 
Q 1547 4250 1301 3770 
Q 1056 3291 1056 2328 
Q 1056 1369 1301 889 
Q 1547 409 2034 409 
Q 2525 409 2770 889 
Q 3016 1369 3016 2328 
Q 3016 3291 2770 3770 
Q 2525 4250 2034 4250 
z
M 2034 4750 
Q 2819 4750 3233 4129 
Q 3647 3509 3647 2328 
Q 3647 1150 3233 529 
Q 2819 -91 2034 -91 
Q 1250 -91 836 529 
Q 422 1150 422 2328 
Q 422 3509 836 4129 
Q 1250 4750 2034 4750 
z
" transform="scale(0.015625)"/>
        <path id="DejaVuSans-2e" d="M 684 794 
L 1344 794 
L 1344 0 
L 684 0 
L 684 794 
z
" transform="scale(0.015625)"/>
        <path id="DejaVuSans-35" d="M 691 4666 
L 3169 4666 
L 3169 4134 
L 1269 4134 
L 1269 2991 
Q 1406 3038 1543 3061 
Q 1681 3084 1819 3084 
Q 2600 3084 3056 2656 
Q 3513 2228 3513 1497 
Q 3513 744 3044 326 
Q 2575 -91 1722 -91 
Q 1428 -91 1123 -41 
Q 819 9 494 109 
L 494 744 
Q 775 591 1075 516 
Q 1375 441 1709 441 
Q 2250 441 2565 725 
Q 2881 1009 2881 1497 
Q 2881 1984 2565 2268 
Q 2250 2553 1709 2553 
Q 1456 2553 1204 2497 
Q 953 2441 691 2322 
L 691 4666 
z
" transform="scale(0.015625)"/>
       </defs>
       <use xlink:href="#DejaVuSans-2212"/>
       <use xlink:href="#DejaVuSans-30" x="83.789062"/>
       <use xlink:href="#DejaVuSans-2e" x="147.412109"/>
       <use xlink:href="#DejaVuSans-35" x="179.199219"/>
      </g>
     </g>
    </g>
    <g id="xtick_2">
     <g id="line2d_2">
      <g>
       <use xlink:href="#m19cdf152f5" x="99.954545" y="320.4" style="stroke: #000000; stroke-width: 0.8"/>
      </g>
     </g>
     <g id="text_2">
      <!-- 0.0 -->
      <g transform="translate(92.002983 334.998438)scale(0.1 -0.1)">
       <use xlink:href="#DejaVuSans-30"/>
       <use xlink:href="#DejaVuSans-2e" x="63.623047"/>
       <use xlink:href="#DejaVuSans-30" x="95.410156"/>
      </g>
     </g>
    </g>
    <g id="xtick_3">
     <g id="line2d_3">
      <g>
       <use xlink:href="#m19cdf152f5" x="142.227273" y="320.4" style="stroke: #000000; stroke-width: 0.8"/>
      </g>
     </g>
     <g id="text_3">
      <!-- 0.5 -->
      <g transform="translate(134.27571 334.998438)scale(0.1 -0.1)">
       <use xlink:href="#DejaVuSans-30"/>
       <use xlink:href="#DejaVuSans-2e" x="63.623047"/>
       <use xlink:href="#DejaVuSans-35" x="95.410156"/>
      </g>
     </g>
    </g>
    <g id="xtick_4">
     <g id="line2d_4">
      <g>
       <use xlink:href="#m19cdf152f5" x="184.5" y="320.4" style="stroke: #000000; stroke-width: 0.8"/>
      </g>
     </g>
     <g id="text_4">
      <!-- 1.0 -->
      <g transform="translate(176.548438 334.998438)scale(0.1 -0.1)">
       <defs>
        <path id="DejaVuSans-31" d="M 794 531 
L 1825 531 
L 1825 4091 
L 703 3866 
L 703 4441 
L 1819 4666 
L 2450 4666 
L 2450 531 
L 3481 531 
L 3481 0 
L 794 0 
L 794 531 
z
" transform="scale(0.015625)"/>
       </defs>
       <use xlink:href="#DejaVuSans-31"/>
       <use xlink:href="#DejaVuSans-2e" x="63.623047"/>
       <use xlink:href="#DejaVuSans-30" x="95.410156"/>
      </g>
     </g>
    </g>
    <g id="xtick_5">
     <g id="line2d_5">
      <g>
       <use xlink:href="#m19cdf152f5" x="226.772727" y="320.4" style="stroke: #000000; stroke-width: 0.8"/>
      </g>
     </g>
     <g id="text_5">
      <!-- 1.5 -->
      <g transform="translate(218.821165 334.998438)scale(0.1 -0.1)">
       <use xlink:href="#DejaVuSans-31"/>
       <use xlink:href="#DejaVuSans-2e" x="63.623047"/>
       <use xlink:href="#DejaVuSans-35" x="95.410156"/>
      </g>
     </g>
    </g>
    <g id="xtick_6">
     <g id="line2d_6">
      <g>
       <use xlink:href="#m19cdf152f5" x="269.045455" y="320.4" style="stroke: #000000; stroke-width: 0.8"/>
      </g>
     </g>
     <g id="text_6">
      <!-- 2.0 -->
      <g transform="translate(261.093892 334.998438)scale(0.1 -0.1)">
       <defs>
        <path id="DejaVuSans-32" d="M 1228 531 
L 3431 531 
L 3431 0 
L 469 0 
L 469 531 
Q 828 903 1448 1529 
Q 2069 2156 2228 2338 
Q 2531 2678 2651 2914 
Q 2772 3150 2772 3378 
Q 2772 3750 2511 3984 
Q 2250 4219 1831 4219 
Q 1534 4219 1204 4116 
Q 875 4013 500 3803 
L 500 4441 
Q 881 4594 1212 4672 
Q 1544 4750 1819 4750 
Q 2544 4750 2975 4387 
Q 3406 4025 3406 3419 
Q 3406 3131 3298 2873 
Q 3191 2616 2906 2266 
Q 2828 2175 2409 1742 
Q 1991 1309 1228 531 
z
" transform="scale(0.015625)"/>
       </defs>
       <use xlink:href="#DejaVuSans-32"/>
       <use xlink:href="#DejaVuSans-2e" x="63.623047"/>
       <use xlink:href="#DejaVuSans-30" x="95.410156"/>
      </g>
     </g>
    </g>
    <g id="xtick_7">
     <g id="line2d_7">
      <g>
       <use xlink:href="#m19cdf152f5" x="311.318182" y="320.4" style="stroke: #000000; stroke-width: 0.8"/>
      </g>
     </g>
     <g id="text_7">
      <!-- 2.5 -->
      <g transform="translate(303.366619 334.998438)scale(0.1 -0.1)">
       <use xlink:href="#DejaVuSans-32"/>
       <use xlink:href="#DejaVuSans-2e" x="63.623047"/>
       <use xlink:href="#DejaVuSans-35" x="95.410156"/>
      </g>
     </g>
    </g>
   </g>
   <g id="matplotlib.axis_2">
    <g id="ytick_1">
     <g id="line2d_8">
      <defs>
       <path id="m3bbcbe7c0d" d="M 0 0 
L -3.5 0 
" style="stroke: #000000; stroke-width: 0.8"/>
      </defs>
      <g>
       <use xlink:href="#m3bbcbe7c0d" x="45" y="287.308529" style="stroke: #000000; stroke-width: 0.8"/>
      </g>
     </g>
     <g id="text_8">
      <!-- −0.04 -->
      <g transform="translate(7.354687 291.107748)scale(0.1 -0.1)">
       <defs>
        <path id="DejaVuSans-34" d="M 2419 4116 
L 825 1625 
L 2419 1625 
L 2419 4116 
z
M 2253 4666 
L 3047 4666 
L 3047 1625 
L 3713 1625 
L 3713 1100 
L 3047 1100 
L 3047 0 
L 2419 0 
L 2419 1100 
L 313 1100 
L 313 1709 
L 2253 4666 
z
" transform="scale(0.015625)"/>
       </defs>
       <use xlink:href="#DejaVuSans-2212"/>
       <use xlink:href="#DejaVuSans-30" x="83.789062"/>
       <use xlink:href="#DejaVuSans-2e" x="147.412109"/>
       <use xlink:href="#DejaVuSans-30" x="179.199219"/>
       <use xlink:href="#DejaVuSans-34" x="242.822266"/>
      </g>
     </g>
    </g>
    <g id="ytick_2">
     <g id="line2d_9">
      <g>
       <use xlink:href="#m3bbcbe7c0d" x="45" y="229.221088" style="stroke: #000000; stroke-width: 0.8"/>
      </g>
     </g>
     <g id="text_9">
      <!-- −0.02 -->
      <g transform="translate(7.354687 233.020307)scale(0.1 -0.1)">
       <use xlink:href="#DejaVuSans-2212"/>
       <use xlink:href="#DejaVuSans-30" x="83.789062"/>
       <use xlink:href="#DejaVuSans-2e" x="147.412109"/>
       <use xlink:href="#DejaVuSans-30" x="179.199219"/>
       <use xlink:href="#DejaVuSans-32" x="242.822266"/>
      </g>
     </g>
    </g>
    <g id="ytick_3">
     <g id="line2d_10">
      <g>
       <use xlink:href="#m3bbcbe7c0d" x="45" y="171.133646" style="stroke: #000000; stroke-width: 0.8"/>
      </g>
     </g>
     <g id="text_10">
      <!-- 0.00 -->
      <g transform="translate(15.734375 174.932865)scale(0.1 -0.1)">
       <use xlink:href="#DejaVuSans-30"/>
       <use xlink:href="#DejaVuSans-2e" x="63.623047"/>
       <use xlink:href="#DejaVuSans-30" x="95.410156"/>
       <use xlink:href="#DejaVuSans-30" x="159.033203"/>
      </g>
     </g>
    </g>
    <g id="ytick_4">
     <g id="line2d_11">
      <g>
       <use xlink:href="#m3bbcbe7c0d" x="45" y="113.046204" style="stroke: #000000; stroke-width: 0.8"/>
      </g>
     </g>
     <g id="text_11">
      <!-- 0.02 -->
      <g transform="translate(15.734375 116.845423)scale(0.1 -0.1)">
       <use xlink:href="#DejaVuSans-30"/>
       <use xlink:href="#DejaVuSans-2e" x="63.623047"/>
       <use xlink:href="#DejaVuSans-30" x="95.410156"/>
       <use xlink:href="#DejaVuSans-32" x="159.033203"/>
      </g>
     </g>
    </g>
    <g id="ytick_5">
     <g id="line2d_12">
      <g>
       <use xlink:href="#m3bbcbe7c0d" x="45" y="54.958763" style="stroke: #000000; stroke-width: 0.8"/>
      </g>
     </g>
     <g id="text_12">
      <!-- 0.04 -->
      <g transform="translate(15.734375 58.757981)scale(0.1 -0.1)">
       <use xlink:href="#DejaVuSans-30"/>
       <use xlink:href="#DejaVuSans-2e" x="63.623047"/>
       <use xlink:href="#DejaVuSans-30" x="95.410156"/>
       <use xlink:href="#DejaVuSans-34" x="159.033203"/>
      </g>
     </g>
    </g>
   </g>
   <g id="line2d_13">
    <path d="M 57.681818 197.069318 
L 67.075757 197.42538 
L 76.977476 198.060085 
L 83.324735 198.679072 
L 88.910321 199.415845 
L 94.495906 200.388608 
L 98.81204 201.335957 
L 103.635958 202.641583 
L 107.95209 204.060772 
L 112.014332 205.636041 
L 115.822688 207.332836 
L 120.138825 209.516635 
L 124.201065 211.800633 
L 130.294433 215.542113 
L 138.165031 220.473786 
L 142.227273 222.771737 
L 145.273954 224.257991 
L 147.812865 225.287188 
L 150.351766 226.086975 
L 152.636777 226.586375 
L 154.921788 226.858372 
L 156.952909 226.902204 
L 159.23792 226.715518 
L 161.26904 226.342215 
L 163.300161 225.775578 
L 165.585182 224.912016 
L 167.870193 223.817727 
L 170.409094 222.349096 
L 173.201885 220.452182 
L 175.994677 218.296635 
L 179.549148 215.243179 
L 184.37306 210.725733 
L 191.735873 203.746536 
L 195.036444 200.92907 
L 197.829235 198.831204 
L 200.368136 197.206425 
L 202.653147 195.993588 
L 204.938158 195.015424 
L 207.477069 194.191124 
L 209.76208 193.651008 
L 212.554871 193.198142 
L 216.617113 192.793747 
L 225.503277 191.936763 
L 229.311628 191.277407 
L 232.86609 190.430394 
L 236.420551 189.362973 
L 239.975013 188.103049 
L 244.798935 186.14589 
L 252.669538 182.60086 
L 266.125713 176.599619 
L 271.965186 174.316244 
L 277.550768 172.398625 
L 283.390271 170.689712 
L 288.975853 169.33506 
L 294.815315 168.192369 
L 300.147017 167.368484 
L 306.74816 166.599027 
L 311.318182 166.20495 
L 311.318182 166.20495 
" clip-path="url(#pb23bf9954c)" style="fill: none; stroke: #1f77b4; stroke-width: 1.5; stroke-linecap: square"/>
   </g>
   <g id="line2d_14">
    <path d="M 57.681818 307.8 
L 65.298526 307.35295 
L 74.184685 306.586955 
L 81.039723 305.735511 
L 86.117527 304.911072 
L 90.433662 304.045017 
L 95.003687 302.930509 
L 99.827601 301.484522 
L 103.889848 300.021431 
L 107.95209 298.297146 
L 111.50655 296.54814 
L 115.061017 294.558436 
L 118.615483 292.306568 
L 121.916054 289.974652 
L 125.216626 287.405986 
L 128.517197 284.603754 
L 132.325554 281.093693 
L 136.3878 277.054042 
L 140.957822 272.207748 
L 146.797295 265.679409 
L 155.175678 255.941881 
L 163.046271 246.484452 
L 167.870193 240.381973 
L 171.678545 235.260913 
L 175.486896 229.756786 
L 179.041358 224.19927 
L 182.849719 217.74724 
L 186.658061 210.805573 
L 191.481983 201.503601 
L 199.606466 185.817112 
L 202.907037 179.955054 
L 205.953729 174.997344 
L 208.74652 170.885677 
L 211.285421 167.513969 
L 214.078212 164.192672 
L 216.871003 161.235191 
L 219.917684 158.365791 
L 222.964376 155.797055 
L 226.772727 152.913945 
L 230.834969 150.139411 
L 235.404991 147.294523 
L 240.736683 144.283654 
L 245.814495 141.712772 
L 250.384517 139.669126 
L 254.700659 137.992551 
L 258.7629 136.655625 
L 263.079032 135.501439 
L 266.887384 134.708785 
L 270.949625 134.090006 
L 275.519647 133.660683 
L 279.581889 133.492831 
L 284.405831 133.526069 
L 289.229733 133.770991 
L 295.576995 134.349746 
L 301.924238 135.132568 
L 311.318182 136.504808 
L 311.318182 136.504808 
" clip-path="url(#pb23bf9954c)" style="fill: none; stroke: #ff7f0e; stroke-width: 1.5; stroke-linecap: square"/>
   </g>
   <g id="line2d_15">
    <path d="M 57.681818 96.354324 
L 77.485256 95.314671 
L 93.988124 94.501104 
L 99.319821 94.507474 
L 103.128177 94.699354 
L 106.428748 95.044336 
L 109.72932 95.60661 
L 113.029896 96.443028 
L 116.076578 97.506987 
L 118.869373 98.774044 
L 121.408274 100.197941 
L 123.693285 101.722107 
L 126.232186 103.71098 
L 128.517197 105.776231 
L 131.056103 108.386098 
L 133.595004 111.327722 
L 136.13391 114.587529 
L 138.926701 118.509878 
L 142.481163 123.927725 
L 147.305085 131.772355 
L 155.175678 144.579679 
L 158.730139 149.894212 
L 162.030711 154.394762 
L 164.823502 157.84264 
L 167.616303 160.967142 
L 170.662984 164.040886 
L 173.963556 167.042476 
L 177.518017 169.984792 
L 181.580269 173.060544 
L 185.38862 175.650538 
L 188.181401 177.293668 
L 190.720313 178.516615 
L 192.751433 179.253388 
L 194.528664 179.684235 
L 196.305895 179.888855 
L 198.083126 179.846615 
L 199.606466 179.604394 
L 201.383697 179.078197 
L 203.160928 178.294267 
L 204.938158 177.26223 
L 206.969289 175.813196 
L 209.2543 173.8926 
L 212.300981 170.986776 
L 223.726046 159.682843 
L 226.518837 157.407986 
L 229.057738 155.609815 
L 231.850529 153.946258 
L 234.38943 152.710085 
L 236.928331 151.724651 
L 239.467232 150.969735 
L 242.260024 150.376231 
L 245.306715 149.97516 
L 249.115066 149.771716 
L 252.923428 149.825105 
L 256.73178 150.063933 
L 263.079032 150.727168 
L 276.027427 152.441343 
L 287.960292 153.887538 
L 297.100336 154.771181 
L 307.76372 155.556981 
L 311.318182 155.767557 
L 311.318182 155.767557 
" clip-path="url(#pb23bf9954c)" style="fill: none; stroke: #2ca02c; stroke-width: 1.5; stroke-linecap: square"/>
   </g>
   <g id="line2d_16">
    <path d="M 57.681818 159.711303 
L 64.790746 159.118768 
L 71.645781 158.322651 
L 77.993039 157.319144 
L 82.309173 156.45018 
L 86.625308 155.399101 
L 90.941442 154.127405 
L 95.257577 152.598946 
L 99.319821 150.893496 
L 103.382068 148.897352 
L 106.936528 146.886459 
L 110.49099 144.62095 
L 114.299348 141.900497 
L 118.361589 138.670465 
L 122.169945 135.365856 
L 128.009417 129.901476 
L 137.911141 120.437953 
L 141.973383 116.938972 
L 145.020064 114.621251 
L 147.558975 112.945923 
L 149.843986 111.667302 
L 152.128997 110.618993 
L 154.414008 109.813874 
L 156.699019 109.253884 
L 158.98403 108.933762 
L 161.26904 108.846235 
L 163.554051 108.971639 
L 166.092963 109.337395 
L 168.885754 109.97764 
L 171.678545 110.818212 
L 175.233006 112.09621 
L 187.165841 116.608047 
L 189.704752 117.274398 
L 192.243653 117.711545 
L 194.274774 117.861601 
L 196.305895 117.805996 
L 198.337016 117.528737 
L 200.114246 117.099068 
L 202.145367 116.384661 
L 204.176488 115.444167 
L 206.461509 114.13307 
L 209.00041 112.40456 
L 212.300981 109.827654 
L 217.378783 105.480275 
L 222.456596 101.159486 
L 226.011057 98.400186 
L 229.057738 96.306476 
L 231.850529 94.647074 
L 234.64332 93.261746 
L 237.436112 92.164826 
L 239.975013 91.416765 
L 242.513924 90.910649 
L 244.798935 90.656171 
L 247.337836 90.592534 
L 250.130627 90.780882 
L 252.669538 91.177244 
L 255.462329 91.845395 
L 258.25512 92.743096 
L 261.047911 93.850818 
L 264.094593 95.279113 
L 267.649054 97.204245 
L 271.711306 99.694041 
L 276.027427 102.60942 
L 281.10525 106.300282 
L 289.229733 112.524355 
L 301.670358 122.029149 
L 308.525381 126.929177 
L 311.318182 128.820621 
L 311.318182 128.820621 
" clip-path="url(#pb23bf9954c)" style="fill: none; stroke: #d62728; stroke-width: 1.5; stroke-linecap: square"/>
   </g>
   <g id="line2d_17">
    <path d="M 57.681818 148.832469 
L 70.630221 148.861067 
L 79.008599 149.099064 
L 85.863636 149.558648 
L 91.449223 150.219736 
L 95.511467 150.928949 
L 99.319821 151.821041 
L 102.874287 152.899611 
L 105.920969 154.04618 
L 108.967649 155.427976 
L 112.268222 157.225939 
L 115.061017 159.010468 
L 117.853809 161.053976 
L 120.900494 163.585527 
L 123.947175 166.423282 
L 127.501637 170.088799 
L 131.309993 174.342281 
L 140.703932 184.942886 
L 143.242833 187.385733 
L 145.273954 189.05663 
L 147.051195 190.260327 
L 148.828425 191.17243 
L 150.351766 191.693711 
L 151.621217 191.923053 
L 152.890667 191.951928 
L 154.160118 191.769189 
L 155.429568 191.359878 
L 156.699019 190.716171 
L 157.968469 189.831766 
L 159.23792 188.695168 
L 160.76126 186.993387 
L 162.284601 184.917819 
L 163.807942 182.465485 
L 165.585182 179.129923 
L 167.362413 175.292885 
L 169.393534 170.310454 
L 171.424655 164.72531 
L 173.709666 157.775888 
L 176.248567 149.320581 
L 179.295248 138.348058 
L 183.61139 121.81878 
L 190.212532 96.598208 
L 193.005323 86.871067 
L 195.290334 79.670699 
L 197.321455 73.975384 
L 199.098686 69.601207 
L 200.875917 65.834591 
L 202.399257 63.103198 
L 203.922598 60.833603 
L 205.192048 59.286933 
L 206.461509 58.045497 
L 207.73096 57.095447 
L 209.00041 56.416702 
L 210.269861 55.997904 
L 211.539311 55.813157 
L 212.808762 55.840855 
L 214.332102 56.126701 
L 215.855443 56.647705 
L 217.632674 57.504273 
L 219.663794 58.74557 
L 222.202705 60.580995 
L 225.503277 63.252076 
L 238.197782 73.812934 
L 243.021704 77.384277 
L 247.845616 80.628366 
L 252.415648 83.411278 
L 256.73178 85.79499 
L 261.555691 88.188811 
L 266.379603 90.310289 
L 270.695745 91.984925 
L 275.519647 93.616976 
L 280.343569 95.004173 
L 285.421391 96.215695 
L 290.499193 97.191643 
L 295.576995 97.952513 
L 300.654798 98.526698 
L 307.25594 99.028729 
L 311.318182 99.224694 
L 311.318182 99.224694 
" clip-path="url(#pb23bf9954c)" style="fill: none; stroke: #9467bd; stroke-width: 1.5; stroke-linecap: square"/>
   </g>
   <g id="line2d_18">
    <path d="M 57.681818 147.116562 
L 77.231366 147.530928 
L 88.910321 148.121108 
L 94.242016 148.572244 
L 100.335381 149.320166 
L 104.397627 150.002928 
L 108.967649 151.010105 
L 112.776006 152.084728 
L 116.330468 153.324086 
L 119.377153 154.595021 
L 122.677725 156.215784 
L 125.724406 157.960012 
L 128.771092 159.951793 
L 132.071664 162.40662 
L 135.37224 165.160726 
L 138.926701 168.443246 
L 142.735053 172.272806 
L 147.305085 177.176366 
L 161.01515 192.159319 
L 166.092963 197.280379 
L 174.725226 205.551215 
L 179.803038 210.587796 
L 183.103609 214.109767 
L 186.911951 218.510396 
L 190.720313 223.27768 
L 196.305895 230.733149 
L 202.653147 239.130151 
L 205.953729 243.10942 
L 209.00041 246.394156 
L 211.539311 248.80418 
L 214.078212 250.894429 
L 216.363223 252.502866 
L 218.902124 254.000788 
L 221.441025 255.210786 
L 223.979936 256.158204 
L 226.518837 256.870326 
L 229.057738 257.372496 
L 232.104419 257.725094 
L 235.151101 257.838103 
L 238.197782 257.734166 
L 241.752243 257.365848 
L 245.052825 256.80302 
L 248.607286 255.978858 
L 252.161758 254.942805 
L 256.477889 253.420786 
L 260.794021 251.643943 
L 265.110153 249.64503 
L 270.949625 246.662967 
L 278.312448 242.602819 
L 299.385337 230.889852 
L 305.7326 227.732113 
L 311.318182 225.180412 
L 311.318182 225.180412 
" clip-path="url(#pb23bf9954c)" style="fill: none; stroke: #8c564b; stroke-width: 1.5; stroke-linecap: square"/>
   </g>
   <g id="line2d_19">
    <path d="M 57.681818 204.349111 
L 66.060197 204.908062 
L 75.708026 205.794129 
L 84.086404 206.823119 
L 93.226453 208.261835 
L 102.366506 210.014927 
L 117.092137 212.95932 
L 121.662164 213.619646 
L 125.470516 213.940738 
L 129.024982 213.972384 
L 132.071664 213.744981 
L 134.86446 213.290037 
L 137.403361 212.651246 
L 139.942262 211.780344 
L 142.227273 210.793975 
L 144.766174 209.469479 
L 147.558975 207.744571 
L 150.605656 205.57102 
L 153.652337 203.145761 
L 157.968469 199.401165 
L 168.885754 189.746524 
L 172.440215 186.957934 
L 175.740786 184.650946 
L 178.787468 182.79461 
L 181.834159 181.221487 
L 184.62695 180.038357 
L 187.165841 179.18255 
L 189.958642 178.493902 
L 192.497543 178.097679 
L 195.290334 177.922626 
L 197.829235 177.992425 
L 200.622027 178.314141 
L 203.414818 178.866651 
L 206.461509 179.690674 
L 210.777641 181.125721 
L 221.948805 184.942678 
L 225.757167 185.897852 
L 229.311628 186.536851 
L 232.86609 186.92518 
L 236.674441 187.071704 
L 240.482793 186.968043 
L 245.052825 186.567181 
L 250.130627 185.856513 
L 256.223999 184.77268 
L 276.027427 181.109725 
L 282.62859 180.20787 
L 289.229733 179.54512 
L 296.084776 179.111365 
L 302.432018 178.918586 
L 309.794841 178.906952 
L 311.318182 178.928834 
L 311.318182 178.928834 
" clip-path="url(#pb23bf9954c)" style="fill: none; stroke: #e377c2; stroke-width: 1.5; stroke-linecap: square"/>
   </g>
   <g id="line2d_20">
    <path d="M 57.681818 144.8183 
L 87.894759 144.578918 
L 95.765357 144.779592 
L 102.620397 145.252608 
L 107.190419 145.814398 
L 110.74488 146.443495 
L 114.299348 147.282613 
L 117.853809 148.384796 
L 120.900494 149.570212 
L 123.693285 150.882693 
L 126.739966 152.587313 
L 129.532763 154.418652 
L 132.325554 156.523927 
L 135.11835 158.909785 
L 138.165031 161.832089 
L 141.211712 165.076696 
L 144.766174 169.238116 
L 148.574535 174.079147 
L 152.890667 179.942659 
L 157.968469 187.190737 
L 164.823502 197.367005 
L 171.170765 207.156537 
L 177.264127 216.957667 
L 187.419731 233.464751 
L 190.466422 237.966409 
L 193.005323 241.341441 
L 195.036444 243.730484 
L 197.067565 245.799405 
L 198.844796 247.32454 
L 200.622027 248.5756 
L 202.399257 249.553279 
L 204.176488 250.270249 
L 205.953729 250.743058 
L 207.73096 251.001898 
L 209.76208 251.074329 
L 212.047091 250.934868 
L 215.347663 250.471476 
L 223.726046 249.085179 
L 227.534398 248.722609 
L 231.342749 248.589242 
L 237.182221 248.690617 
L 245.052825 248.839773 
L 248.607286 248.692833 
L 251.907868 248.349998 
L 255.208439 247.770966 
L 258.25512 246.997423 
L 261.301801 245.987268 
L 264.348483 244.735515 
L 267.395164 243.247496 
L 270.441845 241.532766 
L 273.996307 239.266426 
L 277.804668 236.557814 
L 281.86693 233.399867 
L 286.690832 229.372819 
L 293.291974 223.554317 
L 310.048721 208.689081 
L 311.318182 207.618336 
L 311.318182 207.618336 
" clip-path="url(#pb23bf9954c)" style="fill: none; stroke: #7f7f7f; stroke-width: 1.5; stroke-linecap: square"/>
   </g>
   <g id="line2d_21">
    <path d="M 57.681818 140.467251 
L 68.091317 141.083537 
L 82.563063 141.963095 
L 90.179771 142.17187 
L 94.749796 142.068417 
L 98.55815 141.765745 
L 101.858722 141.285319 
L 104.905408 140.612251 
L 107.698199 139.755614 
L 110.237101 138.743242 
L 112.522116 137.6153 
L 114.807127 136.251439 
L 117.092137 134.634207 
L 119.377153 132.737292 
L 121.662164 130.545668 
L 123.947175 128.043547 
L 126.232186 125.226981 
L 128.771092 121.729246 
L 131.309993 117.867279 
L 134.102784 113.245895 
L 137.911141 106.470418 
L 146.543404 90.88025 
L 149.082316 86.837898 
L 151.113436 83.976392 
L 152.890667 81.810181 
L 154.414008 80.243221 
L 155.937348 78.970833 
L 157.206799 78.152558 
L 158.476249 77.566601 
L 159.7457 77.223627 
L 161.01515 77.129523 
L 162.284601 77.288995 
L 163.554051 77.704469 
L 164.823502 78.374974 
L 166.092963 79.297949 
L 167.616303 80.735696 
L 169.139644 82.517109 
L 170.916874 85.010921 
L 172.694105 87.921315 
L 174.725226 91.707597 
L 177.010237 96.469549 
L 179.803038 102.867222 
L 183.61139 112.246265 
L 190.974203 130.495119 
L 193.766994 136.781445 
L 196.052005 141.455732 
L 198.337016 145.623072 
L 200.368136 148.866053 
L 202.145367 151.337083 
L 203.922598 153.459323 
L 205.699829 155.247938 
L 207.477069 156.719546 
L 209.2543 157.901015 
L 211.031531 158.81935 
L 213.062652 159.591577 
L 215.093772 160.118675 
L 217.378783 160.475151 
L 220.171575 160.67084 
L 224.741606 160.647573 
L 239.213342 160.353141 
L 245.052825 160.576527 
L 252.161758 161.117058 
L 258.7629 161.808407 
L 267.649054 162.908651 
L 303.955359 167.481909 
L 311.318182 168.21792 
L 311.318182 168.21792 
" clip-path="url(#pb23bf9954c)" style="fill: none; stroke: #bcbd22; stroke-width: 1.5; stroke-linecap: square"/>
   </g>
   <g id="line2d_22">
    <path d="M 57.681818 164.817822 
L 93.988124 165.879149 
L 100.081492 165.735118 
L 104.397627 165.418389 
L 108.20598 164.921067 
L 111.25266 164.338226 
L 114.299348 163.553951 
L 117.346028 162.53327 
L 120.138825 161.364265 
L 122.931615 159.949854 
L 125.470516 158.4421 
L 128.263307 156.530436 
L 131.056103 154.359308 
L 133.848894 151.951361 
L 137.657251 148.353497 
L 145.273954 140.692022 
L 149.082316 137.077331 
L 151.875107 134.719725 
L 154.414008 132.876476 
L 156.445129 131.645704 
L 158.476249 130.660339 
L 160.25348 130.00673 
L 162.030711 129.553932 
L 164.061832 129.284151 
L 165.839072 129.256038 
L 167.870193 129.452211 
L 169.901314 129.872531 
L 172.186325 130.588324 
L 174.471336 131.526602 
L 177.264127 132.935716 
L 180.310818 134.751786 
L 183.3575 136.834348 
L 186.404171 139.184614 
L 189.450852 141.844408 
L 192.243653 144.602392 
L 194.782554 147.410233 
L 197.321455 150.529887 
L 200.114246 154.322054 
L 203.160928 158.853557 
L 206.969289 164.956174 
L 217.632674 182.422691 
L 220.933245 187.310048 
L 223.979936 191.444012 
L 227.026617 195.19477 
L 230.073299 198.570771 
L 232.86609 201.360816 
L 235.912771 204.111668 
L 239.213342 206.801722 
L 243.021704 209.608801 
L 247.083946 212.344973 
L 252.161758 215.520577 
L 261.047911 220.737197 
L 272.472966 227.169146 
L 281.35915 231.946056 
L 287.198612 234.909768 
L 293.545875 237.915652 
L 299.385337 240.449211 
L 304.717039 242.552754 
L 310.302621 244.532348 
L 311.318182 244.868328 
L 311.318182 244.868328 
" clip-path="url(#pb23bf9954c)" style="fill: none; stroke: #17becf; stroke-width: 1.5; stroke-linecap: square"/>
   </g>
   <g id="patch_3">
    <path d="M 45 320.4 
L 45 43.2 
" style="fill: none; stroke: #000000; stroke-width: 0.8; stroke-linejoin: miter; stroke-linecap: square"/>
   </g>
   <g id="patch_4">
    <path d="M 324 320.4 
L 324 43.2 
" style="fill: none; stroke: #000000; stroke-width: 0.8; stroke-linejoin: miter; stroke-linecap: square"/>
   </g>
   <g id="patch_5">
    <path d="M 45 320.4 
L 324 320.4 
" style="fill: none; stroke: #000000; stroke-width: 0.8; stroke-linejoin: miter; stroke-linecap: square"/>
   </g>
   <g id="patch_6">
    <path d="M 45 43.2 
L 324 43.2 
" style="fill: none; stroke: #000000; stroke-width: 0.8; stroke-linejoin: miter; stroke-linecap: square"/>
   </g>
   <g id="text_13">
    <!-- Deviation from average for single draw -->
    <g transform="translate(66.87 37.2)scale(0.12 -0.12)">
     <defs>
      <path id="DejaVuSans-44" d="M 1259 4147 
L 1259 519 
L 2022 519 
Q 2988 519 3436 956 
Q 3884 1394 3884 2338 
Q 3884 3275 3436 3711 
Q 2988 4147 2022 4147 
L 1259 4147 
z
M 628 4666 
L 1925 4666 
Q 3281 4666 3915 4102 
Q 4550 3538 4550 2338 
Q 4550 1131 3912 565 
Q 3275 0 1925 0 
L 628 0 
L 628 4666 
z
" transform="scale(0.015625)"/>
      <path id="DejaVuSans-65" d="M 3597 1894 
L 3597 1613 
L 953 1613 
Q 991 1019 1311 708 
Q 1631 397 2203 397 
Q 2534 397 2845 478 
Q 3156 559 3463 722 
L 3463 178 
Q 3153 47 2828 -22 
Q 2503 -91 2169 -91 
Q 1331 -91 842 396 
Q 353 884 353 1716 
Q 353 2575 817 3079 
Q 1281 3584 2069 3584 
Q 2775 3584 3186 3129 
Q 3597 2675 3597 1894 
z
M 3022 2063 
Q 3016 2534 2758 2815 
Q 2500 3097 2075 3097 
Q 1594 3097 1305 2825 
Q 1016 2553 972 2059 
L 3022 2063 
z
" transform="scale(0.015625)"/>
      <path id="DejaVuSans-76" d="M 191 3500 
L 800 3500 
L 1894 563 
L 2988 3500 
L 3597 3500 
L 2284 0 
L 1503 0 
L 191 3500 
z
" transform="scale(0.015625)"/>
      <path id="DejaVuSans-69" d="M 603 3500 
L 1178 3500 
L 1178 0 
L 603 0 
L 603 3500 
z
M 603 4863 
L 1178 4863 
L 1178 4134 
L 603 4134 
L 603 4863 
z
" transform="scale(0.015625)"/>
      <path id="DejaVuSans-61" d="M 2194 1759 
Q 1497 1759 1228 1600 
Q 959 1441 959 1056 
Q 959 750 1161 570 
Q 1363 391 1709 391 
Q 2188 391 2477 730 
Q 2766 1069 2766 1631 
L 2766 1759 
L 2194 1759 
z
M 3341 1997 
L 3341 0 
L 2766 0 
L 2766 531 
Q 2569 213 2275 61 
Q 1981 -91 1556 -91 
Q 1019 -91 701 211 
Q 384 513 384 1019 
Q 384 1609 779 1909 
Q 1175 2209 1959 2209 
L 2766 2209 
L 2766 2266 
Q 2766 2663 2505 2880 
Q 2244 3097 1772 3097 
Q 1472 3097 1187 3025 
Q 903 2953 641 2809 
L 641 3341 
Q 956 3463 1253 3523 
Q 1550 3584 1831 3584 
Q 2591 3584 2966 3190 
Q 3341 2797 3341 1997 
z
" transform="scale(0.015625)"/>
      <path id="DejaVuSans-74" d="M 1172 4494 
L 1172 3500 
L 2356 3500 
L 2356 3053 
L 1172 3053 
L 1172 1153 
Q 1172 725 1289 603 
Q 1406 481 1766 481 
L 2356 481 
L 2356 0 
L 1766 0 
Q 1100 0 847 248 
Q 594 497 594 1153 
L 594 3053 
L 172 3053 
L 172 3500 
L 594 3500 
L 594 4494 
L 1172 4494 
z
" transform="scale(0.015625)"/>
      <path id="DejaVuSans-6f" d="M 1959 3097 
Q 1497 3097 1228 2736 
Q 959 2375 959 1747 
Q 959 1119 1226 758 
Q 1494 397 1959 397 
Q 2419 397 2687 759 
Q 2956 1122 2956 1747 
Q 2956 2369 2687 2733 
Q 2419 3097 1959 3097 
z
M 1959 3584 
Q 2709 3584 3137 3096 
Q 3566 2609 3566 1747 
Q 3566 888 3137 398 
Q 2709 -91 1959 -91 
Q 1206 -91 779 398 
Q 353 888 353 1747 
Q 353 2609 779 3096 
Q 1206 3584 1959 3584 
z
" transform="scale(0.015625)"/>
      <path id="DejaVuSans-6e" d="M 3513 2113 
L 3513 0 
L 2938 0 
L 2938 2094 
Q 2938 2591 2744 2837 
Q 2550 3084 2163 3084 
Q 1697 3084 1428 2787 
Q 1159 2491 1159 1978 
L 1159 0 
L 581 0 
L 581 3500 
L 1159 3500 
L 1159 2956 
Q 1366 3272 1645 3428 
Q 1925 3584 2291 3584 
Q 2894 3584 3203 3211 
Q 3513 2838 3513 2113 
z
" transform="scale(0.015625)"/>
      <path id="DejaVuSans-20" transform="scale(0.015625)"/>
      <path id="DejaVuSans-66" d="M 2375 4863 
L 2375 4384 
L 1825 4384 
Q 1516 4384 1395 4259 
Q 1275 4134 1275 3809 
L 1275 3500 
L 2222 3500 
L 2222 3053 
L 1275 3053 
L 1275 0 
L 697 0 
L 697 3053 
L 147 3053 
L 147 3500 
L 697 3500 
L 697 3744 
Q 697 4328 969 4595 
Q 1241 4863 1831 4863 
L 2375 4863 
z
" transform="scale(0.015625)"/>
      <path id="DejaVuSans-72" d="M 2631 2963 
Q 2534 3019 2420 3045 
Q 2306 3072 2169 3072 
Q 1681 3072 1420 2755 
Q 1159 2438 1159 1844 
L 1159 0 
L 581 0 
L 581 3500 
L 1159 3500 
L 1159 2956 
Q 1341 3275 1631 3429 
Q 1922 3584 2338 3584 
Q 2397 3584 2469 3576 
Q 2541 3569 2628 3553 
L 2631 2963 
z
" transform="scale(0.015625)"/>
      <path id="DejaVuSans-6d" d="M 3328 2828 
Q 3544 3216 3844 3400 
Q 4144 3584 4550 3584 
Q 5097 3584 5394 3201 
Q 5691 2819 5691 2113 
L 5691 0 
L 5113 0 
L 5113 2094 
Q 5113 2597 4934 2840 
Q 4756 3084 4391 3084 
Q 3944 3084 3684 2787 
Q 3425 2491 3425 1978 
L 3425 0 
L 2847 0 
L 2847 2094 
Q 2847 2600 2669 2842 
Q 2491 3084 2119 3084 
Q 1678 3084 1418 2786 
Q 1159 2488 1159 1978 
L 1159 0 
L 581 0 
L 581 3500 
L 1159 3500 
L 1159 2956 
Q 1356 3278 1631 3431 
Q 1906 3584 2284 3584 
Q 2666 3584 2933 3390 
Q 3200 3197 3328 2828 
z
" transform="scale(0.015625)"/>
      <path id="DejaVuSans-67" d="M 2906 1791 
Q 2906 2416 2648 2759 
Q 2391 3103 1925 3103 
Q 1463 3103 1205 2759 
Q 947 2416 947 1791 
Q 947 1169 1205 825 
Q 1463 481 1925 481 
Q 2391 481 2648 825 
Q 2906 1169 2906 1791 
z
M 3481 434 
Q 3481 -459 3084 -895 
Q 2688 -1331 1869 -1331 
Q 1566 -1331 1297 -1286 
Q 1028 -1241 775 -1147 
L 775 -588 
Q 1028 -725 1275 -790 
Q 1522 -856 1778 -856 
Q 2344 -856 2625 -561 
Q 2906 -266 2906 331 
L 2906 616 
Q 2728 306 2450 153 
Q 2172 0 1784 0 
Q 1141 0 747 490 
Q 353 981 353 1791 
Q 353 2603 747 3093 
Q 1141 3584 1784 3584 
Q 2172 3584 2450 3431 
Q 2728 3278 2906 2969 
L 2906 3500 
L 3481 3500 
L 3481 434 
z
" transform="scale(0.015625)"/>
      <path id="DejaVuSans-73" d="M 2834 3397 
L 2834 2853 
Q 2591 2978 2328 3040 
Q 2066 3103 1784 3103 
Q 1356 3103 1142 2972 
Q 928 2841 928 2578 
Q 928 2378 1081 2264 
Q 1234 2150 1697 2047 
L 1894 2003 
Q 2506 1872 2764 1633 
Q 3022 1394 3022 966 
Q 3022 478 2636 193 
Q 2250 -91 1575 -91 
Q 1294 -91 989 -36 
Q 684 19 347 128 
L 347 722 
Q 666 556 975 473 
Q 1284 391 1588 391 
Q 1994 391 2212 530 
Q 2431 669 2431 922 
Q 2431 1156 2273 1281 
Q 2116 1406 1581 1522 
L 1381 1569 
Q 847 1681 609 1914 
Q 372 2147 372 2553 
Q 372 3047 722 3315 
Q 1072 3584 1716 3584 
Q 2034 3584 2315 3537 
Q 2597 3491 2834 3397 
z
" transform="scale(0.015625)"/>
      <path id="DejaVuSans-6c" d="M 603 4863 
L 1178 4863 
L 1178 0 
L 603 0 
L 603 4863 
z
" transform="scale(0.015625)"/>
      <path id="DejaVuSans-64" d="M 2906 2969 
L 2906 4863 
L 3481 4863 
L 3481 0 
L 2906 0 
L 2906 525 
Q 2725 213 2448 61 
Q 2172 -91 1784 -91 
Q 1150 -91 751 415 
Q 353 922 353 1747 
Q 353 2572 751 3078 
Q 1150 3584 1784 3584 
Q 2172 3584 2448 3432 
Q 2725 3281 2906 2969 
z
M 947 1747 
Q 947 1113 1208 752 
Q 1469 391 1925 391 
Q 2381 391 2643 752 
Q 2906 1113 2906 1747 
Q 2906 2381 2643 2742 
Q 2381 3103 1925 3103 
Q 1469 3103 1208 2742 
Q 947 2381 947 1747 
z
" transform="scale(0.015625)"/>
      <path id="DejaVuSans-77" d="M 269 3500 
L 844 3500 
L 1563 769 
L 2278 3500 
L 2956 3500 
L 3675 769 
L 4391 3500 
L 4966 3500 
L 4050 0 
L 3372 0 
L 2619 2869 
L 1863 0 
L 1184 0 
L 269 3500 
z
" transform="scale(0.015625)"/>
     </defs>
     <use xlink:href="#DejaVuSans-44"/>
     <use xlink:href="#DejaVuSans-65" x="77.001953"/>
     <use xlink:href="#DejaVuSans-76" x="138.525391"/>
     <use xlink:href="#DejaVuSans-69" x="197.705078"/>
     <use xlink:href="#DejaVuSans-61" x="225.488281"/>
     <use xlink:href="#DejaVuSans-74" x="286.767578"/>
     <use xlink:href="#DejaVuSans-69" x="325.976562"/>
     <use xlink:href="#DejaVuSans-6f" x="353.759766"/>
     <use xlink:href="#DejaVuSans-6e" x="414.941406"/>
     <use xlink:href="#DejaVuSans-20" x="478.320312"/>
     <use xlink:href="#DejaVuSans-66" x="510.107422"/>
     <use xlink:href="#DejaVuSans-72" x="545.3125"/>
     <use xlink:href="#DejaVuSans-6f" x="584.175781"/>
     <use xlink:href="#DejaVuSans-6d" x="645.357422"/>
     <use xlink:href="#DejaVuSans-20" x="742.769531"/>
     <use xlink:href="#DejaVuSans-61" x="774.556641"/>
     <use xlink:href="#DejaVuSans-76" x="835.835938"/>
     <use xlink:href="#DejaVuSans-65" x="895.015625"/>
     <use xlink:href="#DejaVuSans-72" x="956.539062"/>
     <use xlink:href="#DejaVuSans-61" x="997.652344"/>
     <use xlink:href="#DejaVuSans-67" x="1058.931641"/>
     <use xlink:href="#DejaVuSans-65" x="1122.408203"/>
     <use xlink:href="#DejaVuSans-20" x="1183.931641"/>
     <use xlink:href="#DejaVuSans-66" x="1215.71875"/>
     <use xlink:href="#DejaVuSans-6f" x="1250.923828"/>
     <use xlink:href="#DejaVuSans-72" x="1312.105469"/>
     <use xlink:href="#DejaVuSans-20" x="1353.21875"/>
     <use xlink:href="#DejaVuSans-73" x="1385.005859"/>
     <use xlink:href="#DejaVuSans-69" x="1437.105469"/>
     <use xlink:href="#DejaVuSans-6e" x="1464.888672"/>
     <use xlink:href="#DejaVuSans-67" x="1528.267578"/>
     <use xlink:href="#DejaVuSans-6c" x="1591.744141"/>
     <use xlink:href="#DejaVuSans-65" x="1619.527344"/>
     <use xlink:href="#DejaVuSans-20" x="1681.050781"/>
     <use xlink:href="#DejaVuSans-64" x="1712.837891"/>
     <use xlink:href="#DejaVuSans-72" x="1776.314453"/>
     <use xlink:href="#DejaVuSans-61" x="1817.427734"/>
     <use xlink:href="#DejaVuSans-77" x="1878.707031"/>
    </g>
   </g>
  </g>
 </g>
 <defs>
  <clipPath id="pb23bf9954c">
   <rect x="45" y="43.2" width="279" height="277.2"/>
  </clipPath>
 </defs>
</svg>
