<?xml version="1.0" encoding="utf-8" standalone="no"?>
<!DOCTYPE svg PUBLIC "-//W3C//DTD SVG 1.1//EN"
  "http://www.w3.org/Graphics/SVG/1.1/DTD/svg11.dtd">
<svg xmlns:xlink="http://www.w3.org/1999/xlink" width="360pt" height="360pt" viewBox="0 0 360 360" xmlns="http://www.w3.org/2000/svg" version="1.1">
 <metadata>
  <rdf:RDF xmlns:dc="http://purl.org/dc/elements/1.1/" xmlns:cc="http://creativecommons.org/ns#" xmlns:rdf="http://www.w3.org/1999/02/22-rdf-syntax-ns#">
   <cc:Work>
    <dc:type rdf:resource="http://purl.org/dc/dcmitype/StillImage"/>
    <dc:date>2022-12-22T09:47:01.679839</dc:date>
    <dc:format>image/svg+xml</dc:format>
    <dc:creator>
     <cc:Agent>
      <dc:title>Matplotlib v3.5.3, https://matplotlib.org/</dc:title>
     </cc:Agent>
    </dc:creator>
   </cc:Work>
  </rdf:RDF>
 </metadata>
 <defs>
  <style type="text/css">*{stroke-linejoin: round; stroke-linecap: butt}</style>
 </defs>
 <g id="figure_1">
  <g id="patch_1">
   <path d="M 0 360 
L 360 360 
L 360 0 
L 0 0 
z
" style="fill: #ffffff"/>
  </g>
  <g id="axes_1">
   <g id="patch_2">
    <path d="M 45 320.4 
L 324 320.4 
L 324 43.2 
L 45 43.2 
z
" style="fill: #ffffff"/>
   </g>
   <g id="matplotlib.axis_1">
    <g id="xtick_1">
     <g id="line2d_1">
      <defs>
       <path id="m702226e2b9" d="M 0 0 
L 0 3.5 
" style="stroke: #000000; stroke-width: 0.8"/>
      </defs>
      <g>
       <use xlink:href="#m702226e2b9" x="57.681818" y="320.4" style="stroke: #000000; stroke-width: 0.8"/>
      </g>
     </g>
     <g id="text_1">
      <!-- −0.5 -->
      <g transform="translate(45.540412 334.998438)scale(0.1 -0.1)">
       <defs>
        <path id="DejaVuSans-2212" d="M 678 2272 
L 4684 2272 
L 4684 1741 
L 678 1741 
L 678 2272 
z
" transform="scale(0.015625)"/>
        <path id="DejaVuSans-30" d="M 2034 4250 
Q 1547 4250 1301 3770 
Q 1056 3291 1056 2328 
Q 1056 1369 1301 889 
Q 1547 409 2034 409 
Q 2525 409 2770 889 
Q 3016 1369 3016 2328 
Q 3016 3291 2770 3770 
Q 2525 4250 2034 4250 
z
M 2034 4750 
Q 2819 4750 3233 4129 
Q 3647 3509 3647 2328 
Q 3647 1150 3233 529 
Q 2819 -91 2034 -91 
Q 1250 -91 836 529 
Q 422 1150 422 2328 
Q 422 3509 836 4129 
Q 1250 4750 2034 4750 
z
" transform="scale(0.015625)"/>
        <path id="DejaVuSans-2e" d="M 684 794 
L 1344 794 
L 1344 0 
L 684 0 
L 684 794 
z
" transform="scale(0.015625)"/>
        <path id="DejaVuSans-35" d="M 691 4666 
L 3169 4666 
L 3169 4134 
L 1269 4134 
L 1269 2991 
Q 1406 3038 1543 3061 
Q 1681 3084 1819 3084 
Q 2600 3084 3056 2656 
Q 3513 2228 3513 1497 
Q 3513 744 3044 326 
Q 2575 -91 1722 -91 
Q 1428 -91 1123 -41 
Q 819 9 494 109 
L 494 744 
Q 775 591 1075 516 
Q 1375 441 1709 441 
Q 2250 441 2565 725 
Q 2881 1009 2881 1497 
Q 2881 1984 2565 2268 
Q 2250 2553 1709 2553 
Q 1456 2553 1204 2497 
Q 953 2441 691 2322 
L 691 4666 
z
" transform="scale(0.015625)"/>
       </defs>
       <use xlink:href="#DejaVuSans-2212"/>
       <use xlink:href="#DejaVuSans-30" x="83.789062"/>
       <use xlink:href="#DejaVuSans-2e" x="147.412109"/>
       <use xlink:href="#DejaVuSans-35" x="179.199219"/>
      </g>
     </g>
    </g>
    <g id="xtick_2">
     <g id="line2d_2">
      <g>
       <use xlink:href="#m702226e2b9" x="99.954545" y="320.4" style="stroke: #000000; stroke-width: 0.8"/>
      </g>
     </g>
     <g id="text_2">
      <!-- 0.0 -->
      <g transform="translate(92.002983 334.998438)scale(0.1 -0.1)">
       <use xlink:href="#DejaVuSans-30"/>
       <use xlink:href="#DejaVuSans-2e" x="63.623047"/>
       <use xlink:href="#DejaVuSans-30" x="95.410156"/>
      </g>
     </g>
    </g>
    <g id="xtick_3">
     <g id="line2d_3">
      <g>
       <use xlink:href="#m702226e2b9" x="142.227273" y="320.4" style="stroke: #000000; stroke-width: 0.8"/>
      </g>
     </g>
     <g id="text_3">
      <!-- 0.5 -->
      <g transform="translate(134.27571 334.998438)scale(0.1 -0.1)">
       <use xlink:href="#DejaVuSans-30"/>
       <use xlink:href="#DejaVuSans-2e" x="63.623047"/>
       <use xlink:href="#DejaVuSans-35" x="95.410156"/>
      </g>
     </g>
    </g>
    <g id="xtick_4">
     <g id="line2d_4">
      <g>
       <use xlink:href="#m702226e2b9" x="184.5" y="320.4" style="stroke: #000000; stroke-width: 0.8"/>
      </g>
     </g>
     <g id="text_4">
      <!-- 1.0 -->
      <g transform="translate(176.548438 334.998438)scale(0.1 -0.1)">
       <defs>
        <path id="DejaVuSans-31" d="M 794 531 
L 1825 531 
L 1825 4091 
L 703 3866 
L 703 4441 
L 1819 4666 
L 2450 4666 
L 2450 531 
L 3481 531 
L 3481 0 
L 794 0 
L 794 531 
z
" transform="scale(0.015625)"/>
       </defs>
       <use xlink:href="#DejaVuSans-31"/>
       <use xlink:href="#DejaVuSans-2e" x="63.623047"/>
       <use xlink:href="#DejaVuSans-30" x="95.410156"/>
      </g>
     </g>
    </g>
    <g id="xtick_5">
     <g id="line2d_5">
      <g>
       <use xlink:href="#m702226e2b9" x="226.772727" y="320.4" style="stroke: #000000; stroke-width: 0.8"/>
      </g>
     </g>
     <g id="text_5">
      <!-- 1.5 -->
      <g transform="translate(218.821165 334.998438)scale(0.1 -0.1)">
       <use xlink:href="#DejaVuSans-31"/>
       <use xlink:href="#DejaVuSans-2e" x="63.623047"/>
       <use xlink:href="#DejaVuSans-35" x="95.410156"/>
      </g>
     </g>
    </g>
    <g id="xtick_6">
     <g id="line2d_6">
      <g>
       <use xlink:href="#m702226e2b9" x="269.045455" y="320.4" style="stroke: #000000; stroke-width: 0.8"/>
      </g>
     </g>
     <g id="text_6">
      <!-- 2.0 -->
      <g transform="translate(261.093892 334.998438)scale(0.1 -0.1)">
       <defs>
        <path id="DejaVuSans-32" d="M 1228 531 
L 3431 531 
L 3431 0 
L 469 0 
L 469 531 
Q 828 903 1448 1529 
Q 2069 2156 2228 2338 
Q 2531 2678 2651 2914 
Q 2772 3150 2772 3378 
Q 2772 3750 2511 3984 
Q 2250 4219 1831 4219 
Q 1534 4219 1204 4116 
Q 875 4013 500 3803 
L 500 4441 
Q 881 4594 1212 4672 
Q 1544 4750 1819 4750 
Q 2544 4750 2975 4387 
Q 3406 4025 3406 3419 
Q 3406 3131 3298 2873 
Q 3191 2616 2906 2266 
Q 2828 2175 2409 1742 
Q 1991 1309 1228 531 
z
" transform="scale(0.015625)"/>
       </defs>
       <use xlink:href="#DejaVuSans-32"/>
       <use xlink:href="#DejaVuSans-2e" x="63.623047"/>
       <use xlink:href="#DejaVuSans-30" x="95.410156"/>
      </g>
     </g>
    </g>
    <g id="xtick_7">
     <g id="line2d_7">
      <g>
       <use xlink:href="#m702226e2b9" x="311.318182" y="320.4" style="stroke: #000000; stroke-width: 0.8"/>
      </g>
     </g>
     <g id="text_7">
      <!-- 2.5 -->
      <g transform="translate(303.366619 334.998438)scale(0.1 -0.1)">
       <use xlink:href="#DejaVuSans-32"/>
       <use xlink:href="#DejaVuSans-2e" x="63.623047"/>
       <use xlink:href="#DejaVuSans-35" x="95.410156"/>
      </g>
     </g>
    </g>
   </g>
   <g id="matplotlib.axis_2">
    <g id="ytick_1">
     <g id="line2d_8">
      <defs>
       <path id="m306df9782f" d="M 0 0 
L -3.5 0 
" style="stroke: #000000; stroke-width: 0.8"/>
      </defs>
      <g>
       <use xlink:href="#m306df9782f" x="45" y="313.642377" style="stroke: #000000; stroke-width: 0.8"/>
      </g>
     </g>
     <g id="text_8">
      <!-- −4 -->
      <g transform="translate(23.257812 317.441596)scale(0.1 -0.1)">
       <defs>
        <path id="DejaVuSans-34" d="M 2419 4116 
L 825 1625 
L 2419 1625 
L 2419 4116 
z
M 2253 4666 
L 3047 4666 
L 3047 1625 
L 3713 1625 
L 3713 1100 
L 3047 1100 
L 3047 0 
L 2419 0 
L 2419 1100 
L 313 1100 
L 313 1709 
L 2253 4666 
z
" transform="scale(0.015625)"/>
       </defs>
       <use xlink:href="#DejaVuSans-2212"/>
       <use xlink:href="#DejaVuSans-34" x="83.789062"/>
      </g>
     </g>
    </g>
    <g id="ytick_2">
     <g id="line2d_9">
      <g>
       <use xlink:href="#m306df9782f" x="45" y="276.691065" style="stroke: #000000; stroke-width: 0.8"/>
      </g>
     </g>
     <g id="text_9">
      <!-- −3 -->
      <g transform="translate(23.257812 280.490284)scale(0.1 -0.1)">
       <defs>
        <path id="DejaVuSans-33" d="M 2597 2516 
Q 3050 2419 3304 2112 
Q 3559 1806 3559 1356 
Q 3559 666 3084 287 
Q 2609 -91 1734 -91 
Q 1441 -91 1130 -33 
Q 819 25 488 141 
L 488 750 
Q 750 597 1062 519 
Q 1375 441 1716 441 
Q 2309 441 2620 675 
Q 2931 909 2931 1356 
Q 2931 1769 2642 2001 
Q 2353 2234 1838 2234 
L 1294 2234 
L 1294 2753 
L 1863 2753 
Q 2328 2753 2575 2939 
Q 2822 3125 2822 3475 
Q 2822 3834 2567 4026 
Q 2313 4219 1838 4219 
Q 1578 4219 1281 4162 
Q 984 4106 628 3988 
L 628 4550 
Q 988 4650 1302 4700 
Q 1616 4750 1894 4750 
Q 2613 4750 3031 4423 
Q 3450 4097 3450 3541 
Q 3450 3153 3228 2886 
Q 3006 2619 2597 2516 
z
" transform="scale(0.015625)"/>
       </defs>
       <use xlink:href="#DejaVuSans-2212"/>
       <use xlink:href="#DejaVuSans-33" x="83.789062"/>
      </g>
     </g>
    </g>
    <g id="ytick_3">
     <g id="line2d_10">
      <g>
       <use xlink:href="#m306df9782f" x="45" y="239.739753" style="stroke: #000000; stroke-width: 0.8"/>
      </g>
     </g>
     <g id="text_10">
      <!-- −2 -->
      <g transform="translate(23.257812 243.538972)scale(0.1 -0.1)">
       <use xlink:href="#DejaVuSans-2212"/>
       <use xlink:href="#DejaVuSans-32" x="83.789062"/>
      </g>
     </g>
    </g>
    <g id="ytick_4">
     <g id="line2d_11">
      <g>
       <use xlink:href="#m306df9782f" x="45" y="202.788441" style="stroke: #000000; stroke-width: 0.8"/>
      </g>
     </g>
     <g id="text_11">
      <!-- −1 -->
      <g transform="translate(23.257812 206.587659)scale(0.1 -0.1)">
       <use xlink:href="#DejaVuSans-2212"/>
       <use xlink:href="#DejaVuSans-31" x="83.789062"/>
      </g>
     </g>
    </g>
    <g id="ytick_5">
     <g id="line2d_12">
      <g>
       <use xlink:href="#m306df9782f" x="45" y="165.837129" style="stroke: #000000; stroke-width: 0.8"/>
      </g>
     </g>
     <g id="text_12">
      <!-- 0 -->
      <g transform="translate(31.6375 169.636347)scale(0.1 -0.1)">
       <use xlink:href="#DejaVuSans-30"/>
      </g>
     </g>
    </g>
    <g id="ytick_6">
     <g id="line2d_13">
      <g>
       <use xlink:href="#m306df9782f" x="45" y="128.885816" style="stroke: #000000; stroke-width: 0.8"/>
      </g>
     </g>
     <g id="text_13">
      <!-- 1 -->
      <g transform="translate(31.6375 132.685035)scale(0.1 -0.1)">
       <use xlink:href="#DejaVuSans-31"/>
      </g>
     </g>
    </g>
    <g id="ytick_7">
     <g id="line2d_14">
      <g>
       <use xlink:href="#m306df9782f" x="45" y="91.934504" style="stroke: #000000; stroke-width: 0.8"/>
      </g>
     </g>
     <g id="text_14">
      <!-- 2 -->
      <g transform="translate(31.6375 95.733723)scale(0.1 -0.1)">
       <use xlink:href="#DejaVuSans-32"/>
      </g>
     </g>
    </g>
    <g id="ytick_8">
     <g id="line2d_15">
      <g>
       <use xlink:href="#m306df9782f" x="45" y="54.983192" style="stroke: #000000; stroke-width: 0.8"/>
      </g>
     </g>
     <g id="text_15">
      <!-- 3 -->
      <g transform="translate(31.6375 58.782411)scale(0.1 -0.1)">
       <use xlink:href="#DejaVuSans-33"/>
      </g>
     </g>
    </g>
   </g>
   <g id="line2d_16">
    <path d="M 57.681818 110.544423 
L 57.935708 109.72143 
L 58.443488 112.902299 
L 58.697379 112.199495 
L 58.951269 114.181577 
L 59.205159 115.158778 
L 59.459049 115.275539 
L 59.712939 116.537092 
L 59.966829 116.753524 
L 60.220719 114.382403 
L 60.474609 116.527542 
L 60.728499 116.949544 
L 60.98239 119.879622 
L 61.49017 120.031963 
L 61.744062 119.751134 
L 61.997952 122.283992 
L 62.251843 122.067789 
L 62.505733 122.986466 
L 62.759623 122.479162 
L 63.013513 123.770897 
L 63.267403 123.805829 
L 63.521293 125.519421 
L 64.029076 126.510488 
L 64.282966 126.640561 
L 64.536856 128.037227 
L 64.790746 125.596009 
L 65.044636 128.073316 
L 65.298526 126.673849 
L 65.552416 128.240039 
L 65.806307 130.927805 
L 66.060197 128.627687 
L 66.314087 130.952984 
L 66.567977 131.686636 
L 67.075757 133.869028 
L 67.329647 132.023726 
L 67.583537 133.471462 
L 67.837427 132.859583 
L 68.091317 135.601603 
L 68.345208 133.215672 
L 68.599098 136.441065 
L 68.852988 135.896884 
L 69.360768 135.596671 
L 69.614658 135.538557 
L 69.868551 135.822264 
L 70.122441 139.441074 
L 70.376331 137.977497 
L 70.630221 139.699128 
L 70.884111 139.564487 
L 71.138001 141.198121 
L 71.391891 138.581212 
L 71.645781 142.064603 
L 71.899674 140.161314 
L 72.407454 141.415729 
L 72.661344 143.442206 
L 72.915234 141.186906 
L 73.169125 142.878902 
L 73.423015 143.461619 
L 73.676905 145.737598 
L 73.930795 143.739724 
L 74.438575 146.160827 
L 74.692465 144.120688 
L 75.200245 147.503765 
L 75.454135 147.797365 
L 75.708026 147.327004 
L 75.961916 146.579552 
L 76.215806 148.451529 
L 76.469696 149.39772 
L 76.723586 149.33625 
L 76.977476 150.439759 
L 77.231366 148.752425 
L 77.485256 148.329001 
L 77.739146 151.842165 
L 77.993039 150.01335 
L 78.246929 149.823626 
L 78.754709 152.09519 
L 79.008599 150.796477 
L 79.262491 151.109465 
L 79.516381 151.705136 
L 79.770271 153.032289 
L 80.024162 153.504556 
L 80.278052 153.12141 
L 80.785833 154.465353 
L 81.039723 153.025792 
L 81.293614 152.907071 
L 81.547504 154.961989 
L 81.801394 155.473095 
L 82.055283 155.308957 
L 82.309173 155.718877 
L 82.563063 155.433197 
L 82.816953 155.624611 
L 83.070844 158.081603 
L 83.324735 157.342743 
L 83.578625 155.358628 
L 84.340294 158.766617 
L 84.594184 159.021632 
L 84.848074 159.781119 
L 85.609746 157.630393 
L 85.863636 158.175491 
L 86.117527 160.878052 
L 86.371417 160.568711 
L 86.625308 159.958336 
L 86.879198 158.084994 
L 87.133088 159.806829 
L 87.386979 160.750813 
L 87.640869 159.70264 
L 87.894759 161.361787 
L 88.148651 162.04144 
L 88.402541 159.68103 
L 88.656431 162.050041 
L 88.910321 161.757197 
L 89.164211 163.398138 
L 89.418102 160.493492 
L 89.671993 160.496579 
L 89.925883 161.385875 
L 90.179771 163.506861 
L 90.433662 164.197961 
L 90.687552 164.027553 
L 90.941442 161.298307 
L 91.195333 161.934621 
L 91.449223 161.409112 
L 92.210892 163.388174 
L 92.464782 164.903831 
L 92.972563 165.474147 
L 93.226453 163.108347 
L 93.480343 164.88709 
L 93.734234 164.463841 
L 93.988124 165.264023 
L 94.242016 164.642854 
L 94.495906 165.70874 
L 94.749796 165.714505 
L 95.003687 163.990092 
L 95.257577 165.244479 
L 95.511467 163.644025 
L 95.765357 165.463332 
L 96.019248 166.308742 
L 96.273139 165.359038 
L 96.527029 166.005111 
L 96.780919 165.748048 
L 97.03481 167.011819 
L 97.2887 164.286254 
L 97.54259 166.670115 
L 97.796481 164.515979 
L 98.050371 164.663869 
L 98.30426 164.236881 
L 98.55815 167.025522 
L 98.81204 164.328015 
L 99.065931 166.5756 
L 99.573711 164.048738 
L 99.827601 166.080674 
L 100.081492 165.867687 
L 100.335381 166.309062 
L 100.589271 167.4537 
L 100.843161 165.048706 
L 101.097051 167.79086 
L 101.350942 164.828224 
L 101.858722 164.256041 
L 102.112612 166.44878 
L 102.366506 167.5378 
L 102.620397 165.608273 
L 102.874287 165.004043 
L 103.128177 167.861753 
L 103.382068 166.437539 
L 103.635958 167.118185 
L 103.889848 166.161902 
L 104.143738 166.896546 
L 104.651517 166.538969 
L 104.905408 167.686667 
L 105.159298 164.390687 
L 105.413188 164.330715 
L 105.667078 166.139629 
L 105.920969 166.027696 
L 106.174859 166.536091 
L 106.428748 167.412597 
L 106.682638 167.50145 
L 106.936528 164.973531 
L 107.190419 166.628617 
L 107.444309 166.753343 
L 107.698199 165.65846 
L 107.95209 166.075657 
L 108.20598 166.001591 
L 108.459869 165.285361 
L 108.713759 165.67488 
L 109.22154 166.036397 
L 109.47543 166.585916 
L 109.72932 163.461116 
L 109.983211 165.675144 
L 110.237101 164.369139 
L 110.49099 165.420171 
L 110.74488 164.546914 
L 110.99877 162.889996 
L 111.25266 163.674222 
L 111.50655 166.037029 
L 111.760442 163.610663 
L 112.014332 162.495776 
L 112.268222 163.66667 
L 112.776006 162.13034 
L 113.029896 164.130888 
L 113.283786 163.357891 
L 113.537676 164.91669 
L 113.791567 163.902157 
L 114.045457 162.039644 
L 114.299348 162.344946 
L 114.553236 164.343064 
L 114.807127 164.535023 
L 115.061017 164.193293 
L 115.314907 164.629017 
L 115.568797 164.104038 
L 115.822688 163.005711 
L 116.076578 161.170113 
L 116.330468 161.973687 
L 116.584357 163.551925 
L 116.838247 163.490324 
L 117.092137 160.948351 
L 117.346028 163.098882 
L 117.853809 160.546015 
L 118.107699 162.138003 
L 118.361589 161.332869 
L 118.615483 161.138584 
L 118.869373 161.259106 
L 119.123263 161.600913 
L 119.377153 162.15117 
L 119.631044 161.835633 
L 119.884935 161.167333 
L 120.138825 158.22742 
L 120.392715 160.736062 
L 120.646604 160.914114 
L 120.900494 159.053322 
L 121.154384 158.817684 
L 121.662164 157.568005 
L 121.916054 157.763294 
L 122.169945 160.441836 
L 122.423835 158.261985 
L 122.677725 157.120606 
L 123.185505 158.950613 
L 123.439395 155.908719 
L 123.693285 158.167424 
L 123.947175 158.332716 
L 124.201065 158.749065 
L 124.454955 156.801572 
L 124.708846 155.864255 
L 124.962736 156.071037 
L 125.216626 155.909893 
L 125.470516 157.469848 
L 125.724406 157.585727 
L 126.232186 153.753575 
L 126.486076 154.158678 
L 126.739966 156.08488 
L 126.993856 155.031846 
L 127.247747 155.935145 
L 127.501637 155.243882 
L 128.009417 152.900274 
L 128.263307 152.150251 
L 128.517197 155.14969 
L 128.771092 151.989179 
L 129.024982 154.296988 
L 129.278872 152.069866 
L 129.532763 150.964416 
L 129.786653 152.266559 
L 130.040543 150.374575 
L 130.294433 153.391155 
L 130.548323 152.282489 
L 130.802213 150.257509 
L 131.056103 151.494405 
L 131.309993 151.225317 
L 131.563883 151.370897 
L 131.817773 149.079532 
L 132.325554 149.261001 
L 132.579444 150.6391 
L 132.833334 150.846923 
L 133.087224 148.892211 
L 133.341114 148.288101 
L 133.595004 149.43057 
L 133.848894 148.835094 
L 134.102784 146.809591 
L 134.356675 147.648042 
L 134.610565 147.448331 
L 134.86446 147.721482 
L 135.11835 148.673698 
L 135.37224 148.470172 
L 135.62613 147.347256 
L 135.88002 147.133039 
L 136.13391 145.346757 
L 136.3878 146.187424 
L 136.64169 146.098314 
L 136.895581 143.338646 
L 137.149471 144.180031 
L 137.403361 143.228619 
L 137.657251 145.161128 
L 137.911141 144.741093 
L 138.165031 143.025897 
L 138.418921 144.653271 
L 138.672811 144.346199 
L 138.926701 142.942659 
L 139.434482 143.664981 
L 139.688372 140.895589 
L 139.942262 140.216185 
L 140.196152 141.111535 
L 140.450042 141.44117 
L 140.703932 142.537982 
L 141.465602 139.070508 
L 141.719493 139.878185 
L 141.973383 140.076971 
L 142.227273 138.017915 
L 142.481163 140.218726 
L 142.735053 137.278541 
L 142.988943 138.860939 
L 143.242833 137.812858 
L 143.496723 137.902265 
L 143.750613 137.008237 
L 144.004503 137.484719 
L 144.258394 135.276206 
L 144.512284 136.359986 
L 144.766174 134.561189 
L 145.020064 133.917559 
L 145.273954 136.283763 
L 145.527844 136.420303 
L 145.781734 133.278169 
L 146.035624 132.999865 
L 146.289514 135.544689 
L 146.543404 133.962342 
L 146.797295 135.326191 
L 147.051195 134.700616 
L 147.305085 132.514546 
L 147.558975 132.062293 
L 147.812865 131.843841 
L 148.066755 132.419276 
L 148.320645 129.892134 
L 148.828425 132.045189 
L 149.336206 129.866849 
L 149.590096 129.340307 
L 149.843986 130.969818 
L 150.097876 128.646487 
L 150.351766 129.957681 
L 150.605656 130.22326 
L 150.859546 129.370844 
L 151.113436 126.252931 
L 151.367326 126.127809 
L 151.621217 125.724655 
L 151.875107 125.965932 
L 152.128997 125.325533 
L 152.382887 126.638852 
L 152.636777 127.077893 
L 152.890667 124.80741 
L 153.144557 126.356694 
L 153.398447 126.314442 
L 154.160118 123.118499 
L 154.414008 124.453685 
L 154.667898 124.489524 
L 154.921788 122.81851 
L 155.175678 123.821968 
L 155.429568 123.600664 
L 155.683458 121.0992 
L 155.937348 122.036712 
L 156.191238 119.701817 
L 156.445129 119.256222 
L 156.699019 120.163965 
L 156.952909 119.743492 
L 157.206799 119.616343 
L 157.460689 119.675039 
L 157.714579 119.500242 
L 157.968469 119.002096 
L 158.476249 116.632182 
L 158.730139 118.489696 
L 158.98403 118.452545 
L 159.23792 117.779439 
L 159.49181 117.884902 
L 159.99959 114.933201 
L 160.25348 114.527312 
L 160.50737 114.783411 
L 160.76126 116.650832 
L 161.776821 113.776001 
L 162.030711 115.282953 
L 162.284601 112.670811 
L 162.538491 114.314188 
L 162.792381 113.732586 
L 163.046271 113.758395 
L 163.300161 110.271325 
L 163.554051 113.289458 
L 163.807942 109.804983 
L 164.061832 110.919644 
L 164.315722 110.731245 
L 164.569612 109.019657 
L 164.823502 110.00499 
L 165.077392 108.334544 
L 165.331292 107.816505 
L 165.585182 110.415596 
L 165.839072 107.759897 
L 166.092963 107.781451 
L 166.854633 106.603927 
L 167.108523 107.658095 
L 167.362413 106.66586 
L 167.616303 104.334445 
L 167.870193 104.509136 
L 168.377973 106.809902 
L 168.631864 104.652477 
L 168.885754 105.653094 
L 169.139644 102.554285 
L 169.393534 104.840374 
L 169.647424 103.514452 
L 169.901314 103.453712 
L 170.155204 102.377806 
L 170.409094 100.631207 
L 170.662984 101.857847 
L 171.170765 99.927474 
L 171.424655 99.534695 
L 171.678545 101.329333 
L 171.932435 100.769915 
L 172.186325 99.132114 
L 172.440215 100.192898 
L 172.694105 98.490288 
L 173.201885 99.94324 
L 173.455775 97.60612 
L 173.709666 97.743399 
L 173.963556 96.871931 
L 174.217446 95.52964 
L 174.471336 95.773788 
L 174.725226 94.954258 
L 175.233006 97.637721 
L 175.740786 96.541036 
L 175.994677 96.694883 
L 176.248567 95.666757 
L 176.502457 96.116034 
L 176.756347 95.794993 
L 177.010237 94.870225 
L 177.264127 95.264057 
L 177.518017 94.253828 
L 177.771907 92.093056 
L 178.025797 90.93505 
L 178.279687 92.704756 
L 178.533578 92.372448 
L 178.787468 90.529099 
L 179.041358 92.108451 
L 179.295248 91.752554 
L 179.549148 89.423424 
L 179.803038 91.855101 
L 180.310818 87.982701 
L 180.564708 88.983926 
L 180.818599 88.485066 
L 181.072489 89.751081 
L 181.326379 88.388977 
L 181.580269 87.95117 
L 182.088049 86.716016 
L 182.341939 85.520366 
L 182.595829 88.228805 
L 182.849719 86.456865 
L 183.103609 87.129966 
L 183.3575 87.36393 
L 183.61139 85.74685 
L 183.86528 86.922634 
L 184.11917 83.705346 
L 184.62695 85.390332 
L 184.88084 83.130457 
L 185.13473 85.546954 
L 185.38862 84.216468 
L 185.6425 83.566264 
L 185.896391 84.48184 
L 186.150281 83.793321 
L 186.404171 82.627721 
L 186.658061 80.633085 
L 186.911951 79.960715 
L 187.165841 80.280276 
L 187.419731 82.271177 
L 187.673621 82.089913 
L 187.927511 78.983242 
L 188.181401 79.657664 
L 188.435292 79.978811 
L 188.689182 79.495809 
L 188.943072 80.949844 
L 189.196962 79.802164 
L 189.450852 77.128348 
L 189.704752 79.085313 
L 189.958642 78.446341 
L 190.212532 79.613051 
L 190.466422 78.839077 
L 190.720313 77.571097 
L 190.974203 78.410141 
L 191.481983 75.972844 
L 191.735873 78.26506 
L 191.989763 75.643504 
L 192.243653 77.149668 
L 192.497543 76.566912 
L 192.751433 74.694434 
L 193.005323 73.674611 
L 193.259214 75.38993 
L 193.513104 75.386282 
L 193.766994 76.042521 
L 194.020884 75.07021 
L 194.274774 75.482328 
L 194.782554 72.986048 
L 195.036444 74.84547 
L 195.290334 71.254378 
L 195.544225 71.462838 
L 195.798115 74.186659 
L 196.052005 73.017984 
L 196.305895 71.292023 
L 196.559785 72.034863 
L 196.813675 71.618808 
L 197.067565 72.015473 
L 197.321455 69.462652 
L 197.575345 71.746437 
L 197.829235 68.950128 
L 198.083126 70.133312 
L 198.337016 69.653007 
L 198.590906 68.356589 
L 198.844796 69.877562 
L 199.098686 70.401926 
L 199.352576 69.427403 
L 199.606466 67.410408 
L 199.860356 70.061732 
L 200.114246 68.055229 
L 200.368136 70.07581 
L 200.622027 67.078584 
L 200.875917 67.153591 
L 201.129807 67.548635 
L 201.383697 66.626522 
L 201.637587 67.211745 
L 201.891477 65.987595 
L 202.145367 68.270472 
L 202.907037 64.373008 
L 203.160928 65.077067 
L 203.414818 67.168964 
L 203.668708 64.213655 
L 203.922598 65.857658 
L 204.176488 65.65311 
L 204.430378 66.752794 
L 204.938158 63.402327 
L 205.445939 65.428775 
L 205.699829 63.608707 
L 205.953729 64.596532 
L 206.207619 62.146056 
L 206.461509 65.267237 
L 206.715399 64.080053 
L 206.969289 65.115267 
L 207.73096 61.069841 
L 207.98485 62.381235 
L 208.23874 60.725533 
L 208.49263 62.022753 
L 209.00041 60.604353 
L 209.2543 60.394925 
L 209.50819 62.829491 
L 209.76208 59.954951 
L 210.01597 60.394801 
L 210.269861 62.240471 
L 210.523751 62.123088 
L 210.777641 62.658112 
L 211.031531 60.513796 
L 211.285421 62.346877 
L 211.539311 59.942722 
L 211.793201 60.015818 
L 212.047091 62.082827 
L 212.300981 59.854897 
L 212.554871 60.39163 
L 212.808762 59.282722 
L 213.062652 58.954298 
L 213.316542 61.741154 
L 213.570432 58.102391 
L 213.824322 58.142133 
L 214.078212 58.853583 
L 214.332102 61.176863 
L 214.585992 60.050221 
L 215.093772 59.676241 
L 215.347663 58.068791 
L 215.601553 58.35068 
L 215.855443 57.472996 
L 216.109333 59.545247 
L 216.363223 58.150643 
L 216.617113 58.036758 
L 216.871003 60.156582 
L 217.124893 60.33722 
L 217.378783 59.433009 
L 217.632674 57.141392 
L 217.886564 60.079919 
L 218.140454 59.885678 
L 218.394344 57.18205 
L 218.648234 57.162395 
L 218.902124 56.584573 
L 219.156014 59.446198 
L 219.409904 59.35365 
L 219.663794 57.006337 
L 219.917684 56.302789 
L 220.171575 56.762039 
L 220.425465 57.538815 
L 220.679355 57.182737 
L 220.933245 56.004204 
L 221.187135 58.918697 
L 221.441025 58.537045 
L 221.694915 56.380236 
L 221.948805 58.913799 
L 222.202705 58.648287 
L 222.456596 56.263444 
L 222.710486 57.014644 
L 222.964376 56.988937 
L 223.218266 58.359984 
L 223.472156 57.59629 
L 223.726046 55.876593 
L 223.979936 58.676073 
L 224.487716 56.696247 
L 224.741606 58.858658 
L 224.995497 55.8 
L 225.249387 58.531433 
L 225.503277 58.068993 
L 225.757167 58.145155 
L 226.264947 59.506907 
L 226.518837 56.681014 
L 226.772727 57.263691 
L 227.026617 59.51976 
L 227.280507 59.016267 
L 227.534398 56.041902 
L 227.788288 57.205625 
L 228.042178 57.217386 
L 228.296068 59.114083 
L 228.549958 58.871688 
L 228.803848 58.396747 
L 229.057738 58.514949 
L 229.311628 59.505426 
L 229.565518 58.152643 
L 229.819409 58.189759 
L 230.073299 58.679051 
L 230.327189 58.263859 
L 230.581079 59.330304 
L 230.834969 58.198428 
L 231.088859 58.066861 
L 231.342749 59.824432 
L 231.596639 60.774084 
L 231.850529 58.069046 
L 232.104419 58.692706 
L 232.35831 60.173656 
L 232.6122 57.557307 
L 232.86609 60.280423 
L 233.11998 58.306763 
L 233.37387 58.731619 
L 233.62776 61.33493 
L 233.88165 58.714625 
L 234.13554 61.728644 
L 234.64332 60.595209 
L 234.897211 61.666226 
L 235.151101 58.753107 
L 235.404991 61.069092 
L 235.658881 60.108542 
L 235.912771 62.639409 
L 236.166661 60.076897 
L 236.420551 61.86887 
L 236.674441 62.857744 
L 236.928331 61.343308 
L 237.436112 60.347254 
L 237.690002 63.246189 
L 237.943892 63.202034 
L 238.197782 62.116269 
L 238.705562 62.129053 
L 238.959452 62.014612 
L 239.213342 63.640493 
L 239.467232 62.391543 
L 239.721123 62.255844 
L 239.975013 64.304335 
L 240.228903 62.714513 
L 240.482793 63.337222 
L 240.736683 62.824857 
L 240.990573 65.722655 
L 241.244463 65.806966 
L 241.498353 65.654414 
L 241.752243 65.255784 
L 242.006133 64.473591 
L 242.260024 66.873895 
L 242.513924 65.134657 
L 242.767814 66.965985 
L 243.021704 65.435656 
L 243.529484 68.677594 
L 243.783374 68.334855 
L 244.037264 68.918509 
L 244.291154 66.931899 
L 244.545045 69.357796 
L 244.798935 68.547428 
L 245.052825 68.273291 
L 245.306715 69.967396 
L 245.560605 68.707398 
L 245.814495 71.334425 
L 246.068385 71.146316 
L 246.322275 71.796327 
L 246.576165 70.982832 
L 246.830055 71.402737 
L 247.083946 70.774786 
L 247.337836 71.694643 
L 247.845616 70.298313 
L 248.607286 74.710935 
L 248.861176 72.649335 
L 249.115066 74.57558 
L 249.368956 73.065769 
L 249.622847 73.120663 
L 249.876737 73.997017 
L 250.130627 73.334021 
L 250.384517 73.674875 
L 250.892307 77.512371 
L 251.146197 74.88996 
L 251.400087 77.795908 
L 251.653977 78.17475 
L 251.907868 76.142998 
L 252.161758 76.648588 
L 252.923428 80.832885 
L 253.177318 79.87859 
L 253.431208 78.32702 
L 253.685098 80.045043 
L 254.446769 82.43519 
L 254.700659 81.123285 
L 254.954549 82.548547 
L 255.208439 81.902827 
L 255.462329 83.878504 
L 255.716219 83.195245 
L 255.970109 83.695276 
L 256.223999 84.623062 
L 256.477889 84.220891 
L 256.73178 84.692651 
L 256.98567 84.610869 
L 257.23956 85.380439 
L 257.74734 89.333167 
L 258.00123 87.921983 
L 258.50901 89.736642 
L 258.7629 90.068369 
L 259.01679 90.180827 
L 259.270681 89.432939 
L 260.032351 93.107839 
L 260.286241 93.337063 
L 260.540131 94.129728 
L 260.794021 92.294965 
L 261.047911 93.523 
L 261.301801 93.383218 
L 261.555691 95.600101 
L 262.063472 96.088358 
L 262.317362 99.046319 
L 262.571252 97.70575 
L 262.825142 98.572127 
L 263.332922 101.052016 
L 263.586812 98.574845 
L 263.840702 99.304986 
L 264.094593 100.552456 
L 264.348483 100.251991 
L 264.602373 103.375789 
L 264.856263 103.561021 
L 265.110153 103.163004 
L 265.364043 104.79325 
L 265.617933 105.480861 
L 265.871823 107.280534 
L 266.125713 105.897013 
L 266.379603 108.154752 
L 266.633494 107.620693 
L 266.887384 106.541117 
L 267.141274 109.570649 
L 267.395164 110.248671 
L 267.649054 109.220932 
L 267.902944 111.689117 
L 268.156834 111.847712 
L 268.410724 110.648071 
L 268.664614 113.81976 
L 268.918504 115.078106 
L 269.172405 115.489426 
L 269.426285 115.671711 
L 269.934065 117.541546 
L 270.187965 116.555659 
L 270.695745 119.346779 
L 270.949625 120.925174 
L 271.203525 120.810998 
L 271.711306 122.324712 
L 271.965186 124.144921 
L 272.219086 122.840239 
L 272.472966 125.360636 
L 272.980746 127.058365 
L 273.234646 125.558347 
L 273.488526 128.227569 
L 273.742426 128.668877 
L 273.996307 127.254249 
L 274.504087 129.251169 
L 274.757987 132.876905 
L 275.265767 133.459846 
L 275.519647 132.063758 
L 276.027427 136.643345 
L 276.281328 136.093784 
L 276.535208 138.389388 
L 276.789108 138.213681 
L 277.042988 139.176711 
L 277.296888 137.934463 
L 277.804668 141.602509 
L 278.058548 141.849602 
L 278.312448 143.581829 
L 278.566328 143.214878 
L 279.074109 145.245417 
L 279.328009 147.370424 
L 279.581889 145.988028 
L 279.835789 148.750719 
L 280.089669 150.128333 
L 280.343569 149.182588 
L 280.851349 150.379011 
L 281.35915 154.747553 
L 281.61303 154.137762 
L 281.86693 154.455105 
L 282.12081 158.821919 
L 282.37471 158.213966 
L 282.62859 160.225861 
L 282.88249 159.608092 
L 283.13637 160.180435 
L 283.390271 162.324111 
L 283.644151 163.10042 
L 283.898051 163.123465 
L 284.405831 167.542103 
L 284.659711 165.538589 
L 284.913611 168.978777 
L 285.167491 169.289667 
L 285.421391 169.95603 
L 285.675271 171.290651 
L 285.929172 173.972762 
L 286.183052 172.448064 
L 286.436952 175.201676 
L 286.690832 176.393212 
L 286.944732 176.071966 
L 287.198612 178.561754 
L 288.468073 183.605164 
L 288.721953 183.746275 
L 288.975853 186.847001 
L 289.229733 187.601636 
L 289.483633 187.593797 
L 289.737513 188.50708 
L 289.991413 188.892948 
L 290.245293 192.36647 
L 290.499193 191.640298 
L 290.753073 192.347124 
L 291.006974 193.544811 
L 291.260854 197.470901 
L 291.514754 197.640562 
L 291.768634 199.715097 
L 292.022534 200.493687 
L 292.276414 199.499127 
L 292.530314 202.013863 
L 292.784194 202.169089 
L 293.038094 205.260361 
L 293.291974 205.123195 
L 293.545875 207.755719 
L 293.799755 206.955003 
L 294.053655 209.933332 
L 294.307535 210.841186 
L 294.561435 213.239887 
L 295.069215 212.419242 
L 295.323095 214.554299 
L 295.576995 217.720688 
L 295.830875 218.000155 
L 296.084776 219.524005 
L 296.338656 222.111466 
L 296.592556 220.484409 
L 296.846436 223.218445 
L 297.100336 224.180788 
L 297.608116 228.096502 
L 297.861996 228.267806 
L 298.115896 229.236403 
L 298.369777 230.858289 
L 298.623677 233.52289 
L 298.877557 232.204645 
L 299.385337 237.881326 
L 299.639237 238.99941 
L 299.893117 237.708204 
L 300.147017 240.925157 
L 301.416458 249.482008 
L 301.670358 248.369734 
L 302.178138 250.582089 
L 302.432018 255.135942 
L 302.685918 254.266284 
L 302.939798 257.879215 
L 303.193699 257.110148 
L 303.955359 261.3517 
L 304.209259 263.029532 
L 304.463139 265.659105 
L 304.717039 266.362812 
L 304.970919 269.395886 
L 305.224819 269.460365 
L 305.478699 272.39528 
L 305.7326 273.375863 
L 305.98648 276.502992 
L 306.24038 276.934834 
L 307.25594 284.408528 
L 307.50982 284.217169 
L 307.76372 284.736018 
L 308.0176 285.856723 
L 308.271501 288.072548 
L 308.779281 294.220963 
L 309.033161 293.324716 
L 309.287061 294.629116 
L 309.540941 298.895987 
L 309.794841 298.299928 
L 310.048721 299.059754 
L 310.556501 305.074602 
L 310.810402 304.127126 
L 311.064282 306.540178 
L 311.318182 307.8 
L 311.318182 307.8 
" clip-path="url(#p4503f8da02)" style="fill: none; stroke: #1f77b4; stroke-width: 1.5; stroke-linecap: square"/>
   </g>
   <g id="line2d_17">
    <path d="M 57.681818 170.02508 
L 69.868551 169.748703 
L 78.754709 169.33441 
L 85.863636 168.78363 
L 91.703113 168.114851 
L 96.780919 167.316671 
L 101.350942 166.375849 
L 105.413188 165.320441 
L 109.22154 164.106304 
L 112.776006 162.744043 
L 116.076578 161.253122 
L 119.377153 159.51878 
L 122.677725 157.516897 
L 125.724406 155.41294 
L 128.771092 153.049228 
L 131.817773 150.417021 
L 135.11835 147.259682 
L 138.418921 143.791074 
L 141.973383 139.728997 
L 146.035624 134.721632 
L 150.605656 128.722757 
L 157.460689 119.308582 
L 167.870193 105.029673 
L 174.217446 96.71865 
L 181.072489 88.116121 
L 188.181401 79.53534 
L 193.513104 73.416631 
L 197.321455 69.35522 
L 200.622027 66.160536 
L 203.414818 63.769589 
L 205.953729 61.895162 
L 208.23874 60.483157 
L 210.269861 59.464227 
L 212.300981 58.678162 
L 214.332102 58.130552 
L 216.363223 57.822695 
L 218.394344 57.751888 
L 220.425465 57.911919 
L 222.456596 58.293628 
L 224.487716 58.885559 
L 226.772727 59.786318 
L 229.057738 60.915981 
L 231.596639 62.413542 
L 234.38943 64.321136 
L 237.436112 66.668665 
L 240.990573 69.696251 
L 245.306715 73.6931 
L 250.638417 78.956308 
L 261.047911 89.634816 
L 269.172405 97.806024 
L 275.011867 103.378465 
L 280.343569 108.165546 
L 285.421391 112.418721 
L 290.245293 116.163245 
L 294.815315 119.437283 
L 299.385337 122.445195 
L 303.955359 125.192161 
L 308.525381 127.687371 
L 311.318182 129.093405 
L 311.318182 129.093405 
" clip-path="url(#p4503f8da02)" style="fill: none; stroke: #ff7f0e; stroke-width: 1.5; stroke-linecap: square"/>
   </g>
   <g id="line2d_18">
    <path d="M 57.681818 170.355051 
L 70.122441 170.076526 
L 79.008599 169.663501 
L 86.117527 169.113959 
L 91.957003 168.446373 
L 97.03481 167.649431 
L 101.604832 166.70984 
L 105.667078 165.655676 
L 109.47543 164.442802 
L 113.029896 163.081861 
L 116.330468 161.592295 
L 119.631044 159.859445 
L 122.931615 157.85925 
L 125.978296 155.756939 
L 129.024982 153.395011 
L 132.071664 150.764786 
L 135.37224 147.609678 
L 138.672811 144.143395 
L 142.227273 140.083763 
L 146.289514 135.078849 
L 150.859546 129.08162 
L 157.714579 119.66504 
L 168.631864 104.678299 
L 175.233006 96.029508 
L 182.341939 87.086974 
L 189.450852 78.487633 
L 194.274774 72.965565 
L 198.083126 68.937389 
L 201.129807 66.028754 
L 203.922598 63.679547 
L 206.207619 62.023114 
L 208.49263 60.633355 
L 210.523751 59.637751 
L 212.554871 58.877317 
L 214.585992 58.356812 
L 216.617113 58.076552 
L 218.648234 58.032978 
L 220.679355 58.219202 
L 222.710486 58.625408 
L 224.995497 59.330445 
L 227.280507 60.279462 
L 229.819409 61.594619 
L 232.35831 63.155518 
L 235.151101 65.120844 
L 238.451672 67.727898 
L 242.260024 71.044448 
L 246.830055 75.347211 
L 252.923428 81.423666 
L 270.695745 99.335635 
L 276.535208 104.798087 
L 281.61303 109.258476 
L 286.436952 113.215961 
L 291.260854 116.884924 
L 295.830875 120.088989 
L 300.400897 123.029586 
L 304.970919 125.712652 
L 309.540941 128.147941 
L 311.318182 129.030699 
L 311.318182 129.030699 
" clip-path="url(#p4503f8da02)" style="fill: none; stroke: #2ca02c; stroke-width: 1.5; stroke-linecap: square"/>
   </g>
   <g id="line2d_19">
    <path d="M 57.681818 171.763838 
L 69.868551 171.477262 
L 78.754709 171.050908 
L 85.609746 170.510897 
L 91.449223 169.837021 
L 96.527029 169.033666 
L 101.097051 168.087432 
L 105.159298 167.026555 
L 108.967649 165.806554 
L 112.522116 164.438062 
L 115.822688 162.940559 
L 119.123263 161.19867 
L 122.169945 159.35278 
L 125.216626 157.260618 
L 128.263307 154.90816 
L 131.309993 152.285803 
L 134.610565 149.136518 
L 137.911141 145.671812 
L 141.465602 141.607652 
L 145.273954 136.911797 
L 149.843986 130.902173 
L 156.191238 122.133964 
L 168.631864 104.881578 
L 175.233006 96.172395 
L 182.595829 86.847081 
L 189.704752 78.180626 
L 194.528664 72.612095 
L 198.337016 68.551957 
L 201.383697 65.623148 
L 203.922598 63.461062 
L 206.461509 61.597227 
L 208.74652 60.203909 
L 210.777641 59.207758 
L 212.808762 58.449069 
L 214.839882 57.932141 
L 216.871003 57.657026 
L 218.902124 57.619813 
L 220.933245 57.813242 
L 222.964376 58.227272 
L 225.249387 58.941471 
L 227.534398 59.899792 
L 230.073299 61.225203 
L 232.86609 62.965454 
L 235.912771 65.155942 
L 239.213342 67.816667 
L 243.021704 71.182974 
L 247.591726 75.529769 
L 253.938988 81.901144 
L 269.680185 97.833357 
L 275.519647 103.370851 
L 280.851349 108.125692 
L 285.929172 112.348928 
L 290.753073 116.066345 
L 295.323095 119.31623 
L 299.893117 122.30174 
L 304.463139 125.028107 
L 309.033161 127.504581 
L 311.318182 128.652835 
L 311.318182 128.652835 
" clip-path="url(#p4503f8da02)" style="fill: none; stroke: #d62728; stroke-width: 1.5; stroke-linecap: square"/>
   </g>
   <g id="line2d_20">
    <path d="M 57.681818 169.073689 
L 69.868551 168.789764 
L 78.754709 168.368819 
L 85.863636 167.812775 
L 91.703113 167.14066 
L 96.780919 166.34134 
L 101.350942 165.401951 
L 105.413188 164.350765 
L 109.22154 163.144111 
L 112.776006 161.792808 
L 116.076578 160.316396 
L 119.377153 158.601509 
L 122.677725 156.62481 
L 125.724406 154.549748 
L 128.771092 152.220857 
L 132.071664 149.401572 
L 135.37224 146.271475 
L 138.672811 142.837595 
L 142.227273 138.821109 
L 146.289514 133.87527 
L 151.113436 127.617454 
L 158.222359 117.971094 
L 168.377973 104.232334 
L 174.979116 95.704124 
L 182.088049 86.898442 
L 189.196962 78.427532 
L 194.274774 72.686768 
L 198.083126 68.698077 
L 201.129807 65.80479 
L 203.922598 63.456358 
L 206.461509 61.62244 
L 208.74652 60.247888 
L 210.777641 59.262714 
L 212.808762 58.510421 
L 214.839882 57.996312 
L 216.871003 57.721408 
L 218.902124 57.68268 
L 220.933245 57.873731 
L 222.964376 58.285241 
L 225.249387 58.997114 
L 227.534398 59.954325 
L 230.073299 61.280265 
L 232.6122 62.853868 
L 235.404991 64.835262 
L 238.705562 67.463725 
L 242.513924 70.807533 
L 247.083946 75.144971 
L 253.177318 81.267908 
L 270.441845 98.795863 
L 276.281328 104.308892 
L 281.35915 108.811832 
L 286.183052 112.807553 
L 291.006974 116.51209 
L 295.576995 119.747148 
L 300.147017 122.715954 
L 304.717039 125.424507 
L 309.287061 127.882587 
L 311.318182 128.897908 
L 311.318182 128.897908 
" clip-path="url(#p4503f8da02)" style="fill: none; stroke: #9467bd; stroke-width: 1.5; stroke-linecap: square"/>
   </g>
   <g id="patch_3">
    <path d="M 45 320.4 
L 45 43.2 
" style="fill: none; stroke: #000000; stroke-width: 0.8; stroke-linejoin: miter; stroke-linecap: square"/>
   </g>
   <g id="patch_4">
    <path d="M 324 320.4 
L 324 43.2 
" style="fill: none; stroke: #000000; stroke-width: 0.8; stroke-linejoin: miter; stroke-linecap: square"/>
   </g>
   <g id="patch_5">
    <path d="M 45 320.4 
L 324 320.4 
" style="fill: none; stroke: #000000; stroke-width: 0.8; stroke-linejoin: miter; stroke-linecap: square"/>
   </g>
   <g id="patch_6">
    <path d="M 45 43.2 
L 324 43.2 
" style="fill: none; stroke: #000000; stroke-width: 0.8; stroke-linejoin: miter; stroke-linecap: square"/>
   </g>
   <g id="text_16">
    <!-- Prediction Curves -->
    <g transform="translate(131.961563 37.2)scale(0.12 -0.12)">
     <defs>
      <path id="DejaVuSans-50" d="M 1259 4147 
L 1259 2394 
L 2053 2394 
Q 2494 2394 2734 2622 
Q 2975 2850 2975 3272 
Q 2975 3691 2734 3919 
Q 2494 4147 2053 4147 
L 1259 4147 
z
M 628 4666 
L 2053 4666 
Q 2838 4666 3239 4311 
Q 3641 3956 3641 3272 
Q 3641 2581 3239 2228 
Q 2838 1875 2053 1875 
L 1259 1875 
L 1259 0 
L 628 0 
L 628 4666 
z
" transform="scale(0.015625)"/>
      <path id="DejaVuSans-72" d="M 2631 2963 
Q 2534 3019 2420 3045 
Q 2306 3072 2169 3072 
Q 1681 3072 1420 2755 
Q 1159 2438 1159 1844 
L 1159 0 
L 581 0 
L 581 3500 
L 1159 3500 
L 1159 2956 
Q 1341 3275 1631 3429 
Q 1922 3584 2338 3584 
Q 2397 3584 2469 3576 
Q 2541 3569 2628 3553 
L 2631 2963 
z
" transform="scale(0.015625)"/>
      <path id="DejaVuSans-65" d="M 3597 1894 
L 3597 1613 
L 953 1613 
Q 991 1019 1311 708 
Q 1631 397 2203 397 
Q 2534 397 2845 478 
Q 3156 559 3463 722 
L 3463 178 
Q 3153 47 2828 -22 
Q 2503 -91 2169 -91 
Q 1331 -91 842 396 
Q 353 884 353 1716 
Q 353 2575 817 3079 
Q 1281 3584 2069 3584 
Q 2775 3584 3186 3129 
Q 3597 2675 3597 1894 
z
M 3022 2063 
Q 3016 2534 2758 2815 
Q 2500 3097 2075 3097 
Q 1594 3097 1305 2825 
Q 1016 2553 972 2059 
L 3022 2063 
z
" transform="scale(0.015625)"/>
      <path id="DejaVuSans-64" d="M 2906 2969 
L 2906 4863 
L 3481 4863 
L 3481 0 
L 2906 0 
L 2906 525 
Q 2725 213 2448 61 
Q 2172 -91 1784 -91 
Q 1150 -91 751 415 
Q 353 922 353 1747 
Q 353 2572 751 3078 
Q 1150 3584 1784 3584 
Q 2172 3584 2448 3432 
Q 2725 3281 2906 2969 
z
M 947 1747 
Q 947 1113 1208 752 
Q 1469 391 1925 391 
Q 2381 391 2643 752 
Q 2906 1113 2906 1747 
Q 2906 2381 2643 2742 
Q 2381 3103 1925 3103 
Q 1469 3103 1208 2742 
Q 947 2381 947 1747 
z
" transform="scale(0.015625)"/>
      <path id="DejaVuSans-69" d="M 603 3500 
L 1178 3500 
L 1178 0 
L 603 0 
L 603 3500 
z
M 603 4863 
L 1178 4863 
L 1178 4134 
L 603 4134 
L 603 4863 
z
" transform="scale(0.015625)"/>
      <path id="DejaVuSans-63" d="M 3122 3366 
L 3122 2828 
Q 2878 2963 2633 3030 
Q 2388 3097 2138 3097 
Q 1578 3097 1268 2742 
Q 959 2388 959 1747 
Q 959 1106 1268 751 
Q 1578 397 2138 397 
Q 2388 397 2633 464 
Q 2878 531 3122 666 
L 3122 134 
Q 2881 22 2623 -34 
Q 2366 -91 2075 -91 
Q 1284 -91 818 406 
Q 353 903 353 1747 
Q 353 2603 823 3093 
Q 1294 3584 2113 3584 
Q 2378 3584 2631 3529 
Q 2884 3475 3122 3366 
z
" transform="scale(0.015625)"/>
      <path id="DejaVuSans-74" d="M 1172 4494 
L 1172 3500 
L 2356 3500 
L 2356 3053 
L 1172 3053 
L 1172 1153 
Q 1172 725 1289 603 
Q 1406 481 1766 481 
L 2356 481 
L 2356 0 
L 1766 0 
Q 1100 0 847 248 
Q 594 497 594 1153 
L 594 3053 
L 172 3053 
L 172 3500 
L 594 3500 
L 594 4494 
L 1172 4494 
z
" transform="scale(0.015625)"/>
      <path id="DejaVuSans-6f" d="M 1959 3097 
Q 1497 3097 1228 2736 
Q 959 2375 959 1747 
Q 959 1119 1226 758 
Q 1494 397 1959 397 
Q 2419 397 2687 759 
Q 2956 1122 2956 1747 
Q 2956 2369 2687 2733 
Q 2419 3097 1959 3097 
z
M 1959 3584 
Q 2709 3584 3137 3096 
Q 3566 2609 3566 1747 
Q 3566 888 3137 398 
Q 2709 -91 1959 -91 
Q 1206 -91 779 398 
Q 353 888 353 1747 
Q 353 2609 779 3096 
Q 1206 3584 1959 3584 
z
" transform="scale(0.015625)"/>
      <path id="DejaVuSans-6e" d="M 3513 2113 
L 3513 0 
L 2938 0 
L 2938 2094 
Q 2938 2591 2744 2837 
Q 2550 3084 2163 3084 
Q 1697 3084 1428 2787 
Q 1159 2491 1159 1978 
L 1159 0 
L 581 0 
L 581 3500 
L 1159 3500 
L 1159 2956 
Q 1366 3272 1645 3428 
Q 1925 3584 2291 3584 
Q 2894 3584 3203 3211 
Q 3513 2838 3513 2113 
z
" transform="scale(0.015625)"/>
      <path id="DejaVuSans-20" transform="scale(0.015625)"/>
      <path id="DejaVuSans-43" d="M 4122 4306 
L 4122 3641 
Q 3803 3938 3442 4084 
Q 3081 4231 2675 4231 
Q 1875 4231 1450 3742 
Q 1025 3253 1025 2328 
Q 1025 1406 1450 917 
Q 1875 428 2675 428 
Q 3081 428 3442 575 
Q 3803 722 4122 1019 
L 4122 359 
Q 3791 134 3420 21 
Q 3050 -91 2638 -91 
Q 1578 -91 968 557 
Q 359 1206 359 2328 
Q 359 3453 968 4101 
Q 1578 4750 2638 4750 
Q 3056 4750 3426 4639 
Q 3797 4528 4122 4306 
z
" transform="scale(0.015625)"/>
      <path id="DejaVuSans-75" d="M 544 1381 
L 544 3500 
L 1119 3500 
L 1119 1403 
Q 1119 906 1312 657 
Q 1506 409 1894 409 
Q 2359 409 2629 706 
Q 2900 1003 2900 1516 
L 2900 3500 
L 3475 3500 
L 3475 0 
L 2900 0 
L 2900 538 
Q 2691 219 2414 64 
Q 2138 -91 1772 -91 
Q 1169 -91 856 284 
Q 544 659 544 1381 
z
M 1991 3584 
L 1991 3584 
z
" transform="scale(0.015625)"/>
      <path id="DejaVuSans-76" d="M 191 3500 
L 800 3500 
L 1894 563 
L 2988 3500 
L 3597 3500 
L 2284 0 
L 1503 0 
L 191 3500 
z
" transform="scale(0.015625)"/>
      <path id="DejaVuSans-73" d="M 2834 3397 
L 2834 2853 
Q 2591 2978 2328 3040 
Q 2066 3103 1784 3103 
Q 1356 3103 1142 2972 
Q 928 2841 928 2578 
Q 928 2378 1081 2264 
Q 1234 2150 1697 2047 
L 1894 2003 
Q 2506 1872 2764 1633 
Q 3022 1394 3022 966 
Q 3022 478 2636 193 
Q 2250 -91 1575 -91 
Q 1294 -91 989 -36 
Q 684 19 347 128 
L 347 722 
Q 666 556 975 473 
Q 1284 391 1588 391 
Q 1994 391 2212 530 
Q 2431 669 2431 922 
Q 2431 1156 2273 1281 
Q 2116 1406 1581 1522 
L 1381 1569 
Q 847 1681 609 1914 
Q 372 2147 372 2553 
Q 372 3047 722 3315 
Q 1072 3584 1716 3584 
Q 2034 3584 2315 3537 
Q 2597 3491 2834 3397 
z
" transform="scale(0.015625)"/>
     </defs>
     <use xlink:href="#DejaVuSans-50"/>
     <use xlink:href="#DejaVuSans-72" x="58.552734"/>
     <use xlink:href="#DejaVuSans-65" x="97.416016"/>
     <use xlink:href="#DejaVuSans-64" x="158.939453"/>
     <use xlink:href="#DejaVuSans-69" x="222.416016"/>
     <use xlink:href="#DejaVuSans-63" x="250.199219"/>
     <use xlink:href="#DejaVuSans-74" x="305.179688"/>
     <use xlink:href="#DejaVuSans-69" x="344.388672"/>
     <use xlink:href="#DejaVuSans-6f" x="372.171875"/>
     <use xlink:href="#DejaVuSans-6e" x="433.353516"/>
     <use xlink:href="#DejaVuSans-20" x="496.732422"/>
     <use xlink:href="#DejaVuSans-43" x="528.519531"/>
     <use xlink:href="#DejaVuSans-75" x="598.34375"/>
     <use xlink:href="#DejaVuSans-72" x="661.722656"/>
     <use xlink:href="#DejaVuSans-76" x="702.835938"/>
     <use xlink:href="#DejaVuSans-65" x="762.015625"/>
     <use xlink:href="#DejaVuSans-73" x="823.539062"/>
    </g>
   </g>
   <g id="legend_1">
    <g id="patch_7">
     <path d="M 52 315.4 
L 195.94375 315.4 
Q 197.94375 315.4 197.94375 313.4 
L 197.94375 241.009375 
Q 197.94375 239.009375 195.94375 239.009375 
L 52 239.009375 
Q 50 239.009375 50 241.009375 
L 50 313.4 
Q 50 315.4 52 315.4 
z
" style="fill: #ffffff; opacity: 0.8; stroke: #cccccc; stroke-linejoin: miter"/>
    </g>
    <g id="line2d_21">
     <path d="M 54 247.107813 
L 64 247.107813 
L 74 247.107813 
" style="fill: none; stroke: #1f77b4; stroke-width: 1.5; stroke-linecap: square"/>
    </g>
    <g id="text_17">
     <!-- Function with noise -->
     <g transform="translate(82 250.607813)scale(0.1 -0.1)">
      <defs>
       <path id="DejaVuSans-46" d="M 628 4666 
L 3309 4666 
L 3309 4134 
L 1259 4134 
L 1259 2759 
L 3109 2759 
L 3109 2228 
L 1259 2228 
L 1259 0 
L 628 0 
L 628 4666 
z
" transform="scale(0.015625)"/>
       <path id="DejaVuSans-77" d="M 269 3500 
L 844 3500 
L 1563 769 
L 2278 3500 
L 2956 3500 
L 3675 769 
L 4391 3500 
L 4966 3500 
L 4050 0 
L 3372 0 
L 2619 2869 
L 1863 0 
L 1184 0 
L 269 3500 
z
" transform="scale(0.015625)"/>
       <path id="DejaVuSans-68" d="M 3513 2113 
L 3513 0 
L 2938 0 
L 2938 2094 
Q 2938 2591 2744 2837 
Q 2550 3084 2163 3084 
Q 1697 3084 1428 2787 
Q 1159 2491 1159 1978 
L 1159 0 
L 581 0 
L 581 4863 
L 1159 4863 
L 1159 2956 
Q 1366 3272 1645 3428 
Q 1925 3584 2291 3584 
Q 2894 3584 3203 3211 
Q 3513 2838 3513 2113 
z
" transform="scale(0.015625)"/>
      </defs>
      <use xlink:href="#DejaVuSans-46"/>
      <use xlink:href="#DejaVuSans-75" x="52.019531"/>
      <use xlink:href="#DejaVuSans-6e" x="115.398438"/>
      <use xlink:href="#DejaVuSans-63" x="178.777344"/>
      <use xlink:href="#DejaVuSans-74" x="233.757812"/>
      <use xlink:href="#DejaVuSans-69" x="272.966797"/>
      <use xlink:href="#DejaVuSans-6f" x="300.75"/>
      <use xlink:href="#DejaVuSans-6e" x="361.931641"/>
      <use xlink:href="#DejaVuSans-20" x="425.310547"/>
      <use xlink:href="#DejaVuSans-77" x="457.097656"/>
      <use xlink:href="#DejaVuSans-69" x="538.884766"/>
      <use xlink:href="#DejaVuSans-74" x="566.667969"/>
      <use xlink:href="#DejaVuSans-68" x="605.876953"/>
      <use xlink:href="#DejaVuSans-20" x="669.255859"/>
      <use xlink:href="#DejaVuSans-6e" x="701.042969"/>
      <use xlink:href="#DejaVuSans-6f" x="764.421875"/>
      <use xlink:href="#DejaVuSans-69" x="825.603516"/>
      <use xlink:href="#DejaVuSans-73" x="853.386719"/>
      <use xlink:href="#DejaVuSans-65" x="905.486328"/>
     </g>
    </g>
    <g id="line2d_22">
     <path d="M 54 261.785938 
L 64 261.785938 
L 74 261.785938 
" style="fill: none; stroke: #ff7f0e; stroke-width: 1.5; stroke-linecap: square"/>
    </g>
    <g id="text_18">
     <!-- Average of Predictions -->
     <g transform="translate(82 265.285938)scale(0.1 -0.1)">
      <defs>
       <path id="DejaVuSans-41" d="M 2188 4044 
L 1331 1722 
L 3047 1722 
L 2188 4044 
z
M 1831 4666 
L 2547 4666 
L 4325 0 
L 3669 0 
L 3244 1197 
L 1141 1197 
L 716 0 
L 50 0 
L 1831 4666 
z
" transform="scale(0.015625)"/>
       <path id="DejaVuSans-61" d="M 2194 1759 
Q 1497 1759 1228 1600 
Q 959 1441 959 1056 
Q 959 750 1161 570 
Q 1363 391 1709 391 
Q 2188 391 2477 730 
Q 2766 1069 2766 1631 
L 2766 1759 
L 2194 1759 
z
M 3341 1997 
L 3341 0 
L 2766 0 
L 2766 531 
Q 2569 213 2275 61 
Q 1981 -91 1556 -91 
Q 1019 -91 701 211 
Q 384 513 384 1019 
Q 384 1609 779 1909 
Q 1175 2209 1959 2209 
L 2766 2209 
L 2766 2266 
Q 2766 2663 2505 2880 
Q 2244 3097 1772 3097 
Q 1472 3097 1187 3025 
Q 903 2953 641 2809 
L 641 3341 
Q 956 3463 1253 3523 
Q 1550 3584 1831 3584 
Q 2591 3584 2966 3190 
Q 3341 2797 3341 1997 
z
" transform="scale(0.015625)"/>
       <path id="DejaVuSans-67" d="M 2906 1791 
Q 2906 2416 2648 2759 
Q 2391 3103 1925 3103 
Q 1463 3103 1205 2759 
Q 947 2416 947 1791 
Q 947 1169 1205 825 
Q 1463 481 1925 481 
Q 2391 481 2648 825 
Q 2906 1169 2906 1791 
z
M 3481 434 
Q 3481 -459 3084 -895 
Q 2688 -1331 1869 -1331 
Q 1566 -1331 1297 -1286 
Q 1028 -1241 775 -1147 
L 775 -588 
Q 1028 -725 1275 -790 
Q 1522 -856 1778 -856 
Q 2344 -856 2625 -561 
Q 2906 -266 2906 331 
L 2906 616 
Q 2728 306 2450 153 
Q 2172 0 1784 0 
Q 1141 0 747 490 
Q 353 981 353 1791 
Q 353 2603 747 3093 
Q 1141 3584 1784 3584 
Q 2172 3584 2450 3431 
Q 2728 3278 2906 2969 
L 2906 3500 
L 3481 3500 
L 3481 434 
z
" transform="scale(0.015625)"/>
       <path id="DejaVuSans-66" d="M 2375 4863 
L 2375 4384 
L 1825 4384 
Q 1516 4384 1395 4259 
Q 1275 4134 1275 3809 
L 1275 3500 
L 2222 3500 
L 2222 3053 
L 1275 3053 
L 1275 0 
L 697 0 
L 697 3053 
L 147 3053 
L 147 3500 
L 697 3500 
L 697 3744 
Q 697 4328 969 4595 
Q 1241 4863 1831 4863 
L 2375 4863 
z
" transform="scale(0.015625)"/>
      </defs>
      <use xlink:href="#DejaVuSans-41"/>
      <use xlink:href="#DejaVuSans-76" x="62.533203"/>
      <use xlink:href="#DejaVuSans-65" x="121.712891"/>
      <use xlink:href="#DejaVuSans-72" x="183.236328"/>
      <use xlink:href="#DejaVuSans-61" x="224.349609"/>
      <use xlink:href="#DejaVuSans-67" x="285.628906"/>
      <use xlink:href="#DejaVuSans-65" x="349.105469"/>
      <use xlink:href="#DejaVuSans-20" x="410.628906"/>
      <use xlink:href="#DejaVuSans-6f" x="442.416016"/>
      <use xlink:href="#DejaVuSans-66" x="503.597656"/>
      <use xlink:href="#DejaVuSans-20" x="538.802734"/>
      <use xlink:href="#DejaVuSans-50" x="570.589844"/>
      <use xlink:href="#DejaVuSans-72" x="629.142578"/>
      <use xlink:href="#DejaVuSans-65" x="668.005859"/>
      <use xlink:href="#DejaVuSans-64" x="729.529297"/>
      <use xlink:href="#DejaVuSans-69" x="793.005859"/>
      <use xlink:href="#DejaVuSans-63" x="820.789062"/>
      <use xlink:href="#DejaVuSans-74" x="875.769531"/>
      <use xlink:href="#DejaVuSans-69" x="914.978516"/>
      <use xlink:href="#DejaVuSans-6f" x="942.761719"/>
      <use xlink:href="#DejaVuSans-6e" x="1003.943359"/>
      <use xlink:href="#DejaVuSans-73" x="1067.322266"/>
     </g>
    </g>
    <g id="line2d_23">
     <path d="M 54 276.464063 
L 64 276.464063 
L 74 276.464063 
" style="fill: none; stroke: #2ca02c; stroke-width: 1.5; stroke-linecap: square"/>
    </g>
    <g id="text_19">
     <!-- Prediction 1 -->
     <g transform="translate(82 279.964063)scale(0.1 -0.1)">
      <use xlink:href="#DejaVuSans-50"/>
      <use xlink:href="#DejaVuSans-72" x="58.552734"/>
      <use xlink:href="#DejaVuSans-65" x="97.416016"/>
      <use xlink:href="#DejaVuSans-64" x="158.939453"/>
      <use xlink:href="#DejaVuSans-69" x="222.416016"/>
      <use xlink:href="#DejaVuSans-63" x="250.199219"/>
      <use xlink:href="#DejaVuSans-74" x="305.179688"/>
      <use xlink:href="#DejaVuSans-69" x="344.388672"/>
      <use xlink:href="#DejaVuSans-6f" x="372.171875"/>
      <use xlink:href="#DejaVuSans-6e" x="433.353516"/>
      <use xlink:href="#DejaVuSans-20" x="496.732422"/>
      <use xlink:href="#DejaVuSans-31" x="528.519531"/>
     </g>
    </g>
    <g id="line2d_24">
     <path d="M 54 291.142187 
L 64 291.142187 
L 74 291.142187 
" style="fill: none; stroke: #d62728; stroke-width: 1.5; stroke-linecap: square"/>
    </g>
    <g id="text_20">
     <!-- Prediction 2 -->
     <g transform="translate(82 294.642187)scale(0.1 -0.1)">
      <use xlink:href="#DejaVuSans-50"/>
      <use xlink:href="#DejaVuSans-72" x="58.552734"/>
      <use xlink:href="#DejaVuSans-65" x="97.416016"/>
      <use xlink:href="#DejaVuSans-64" x="158.939453"/>
      <use xlink:href="#DejaVuSans-69" x="222.416016"/>
      <use xlink:href="#DejaVuSans-63" x="250.199219"/>
      <use xlink:href="#DejaVuSans-74" x="305.179688"/>
      <use xlink:href="#DejaVuSans-69" x="344.388672"/>
      <use xlink:href="#DejaVuSans-6f" x="372.171875"/>
      <use xlink:href="#DejaVuSans-6e" x="433.353516"/>
      <use xlink:href="#DejaVuSans-20" x="496.732422"/>
      <use xlink:href="#DejaVuSans-32" x="528.519531"/>
     </g>
    </g>
    <g id="line2d_25">
     <path d="M 54 305.820312 
L 64 305.820312 
L 74 305.820312 
" style="fill: none; stroke: #9467bd; stroke-width: 1.5; stroke-linecap: square"/>
    </g>
    <g id="text_21">
     <!-- Prediction 3 -->
     <g transform="translate(82 309.320312)scale(0.1 -0.1)">
      <use xlink:href="#DejaVuSans-50"/>
      <use xlink:href="#DejaVuSans-72" x="58.552734"/>
      <use xlink:href="#DejaVuSans-65" x="97.416016"/>
      <use xlink:href="#DejaVuSans-64" x="158.939453"/>
      <use xlink:href="#DejaVuSans-69" x="222.416016"/>
      <use xlink:href="#DejaVuSans-63" x="250.199219"/>
      <use xlink:href="#DejaVuSans-74" x="305.179688"/>
      <use xlink:href="#DejaVuSans-69" x="344.388672"/>
      <use xlink:href="#DejaVuSans-6f" x="372.171875"/>
      <use xlink:href="#DejaVuSans-6e" x="433.353516"/>
      <use xlink:href="#DejaVuSans-20" x="496.732422"/>
      <use xlink:href="#DejaVuSans-33" x="528.519531"/>
     </g>
    </g>
   </g>
  </g>
 </g>
 <defs>
  <clipPath id="p4503f8da02">
   <rect x="45" y="43.2" width="279" height="277.2"/>
  </clipPath>
 </defs>
</svg>
