<?xml version="1.0" encoding="utf-8" standalone="no"?>
<!DOCTYPE svg PUBLIC "-//W3C//DTD SVG 1.1//EN"
  "http://www.w3.org/Graphics/SVG/1.1/DTD/svg11.dtd">
<svg xmlns:xlink="http://www.w3.org/1999/xlink" width="360pt" height="360pt" viewBox="0 0 360 360" xmlns="http://www.w3.org/2000/svg" version="1.1">
 <metadata>
  <rdf:RDF xmlns:dc="http://purl.org/dc/elements/1.1/" xmlns:cc="http://creativecommons.org/ns#" xmlns:rdf="http://www.w3.org/1999/02/22-rdf-syntax-ns#">
   <cc:Work>
    <dc:type rdf:resource="http://purl.org/dc/dcmitype/StillImage"/>
    <dc:date>2022-12-22T09:47:00.882838</dc:date>
    <dc:format>image/svg+xml</dc:format>
    <dc:creator>
     <cc:Agent>
      <dc:title>Matplotlib v3.5.3, https://matplotlib.org/</dc:title>
     </cc:Agent>
    </dc:creator>
   </cc:Work>
  </rdf:RDF>
 </metadata>
 <defs>
  <style type="text/css">*{stroke-linejoin: round; stroke-linecap: butt}</style>
 </defs>
 <g id="figure_1">
  <g id="patch_1">
   <path d="M 0 360 
L 360 360 
L 360 0 
L 0 0 
z
" style="fill: #ffffff"/>
  </g>
  <g id="axes_1">
   <g id="patch_2">
    <path d="M 45 320.4 
L 324 320.4 
L 324 43.2 
L 45 43.2 
z
" style="fill: #ffffff"/>
   </g>
   <g id="matplotlib.axis_1">
    <g id="xtick_1">
     <g id="line2d_1">
      <defs>
       <path id="m452bb5d1e8" d="M 0 0 
L 0 3.5 
" style="stroke: #000000; stroke-width: 0.8"/>
      </defs>
      <g>
       <use xlink:href="#m452bb5d1e8" x="57.681818" y="320.4" style="stroke: #000000; stroke-width: 0.8"/>
      </g>
     </g>
     <g id="text_1">
      <!-- −0.5 -->
      <g transform="translate(45.540412 334.998438)scale(0.1 -0.1)">
       <defs>
        <path id="DejaVuSans-2212" d="M 678 2272 
L 4684 2272 
L 4684 1741 
L 678 1741 
L 678 2272 
z
" transform="scale(0.015625)"/>
        <path id="DejaVuSans-30" d="M 2034 4250 
Q 1547 4250 1301 3770 
Q 1056 3291 1056 2328 
Q 1056 1369 1301 889 
Q 1547 409 2034 409 
Q 2525 409 2770 889 
Q 3016 1369 3016 2328 
Q 3016 3291 2770 3770 
Q 2525 4250 2034 4250 
z
M 2034 4750 
Q 2819 4750 3233 4129 
Q 3647 3509 3647 2328 
Q 3647 1150 3233 529 
Q 2819 -91 2034 -91 
Q 1250 -91 836 529 
Q 422 1150 422 2328 
Q 422 3509 836 4129 
Q 1250 4750 2034 4750 
z
" transform="scale(0.015625)"/>
        <path id="DejaVuSans-2e" d="M 684 794 
L 1344 794 
L 1344 0 
L 684 0 
L 684 794 
z
" transform="scale(0.015625)"/>
        <path id="DejaVuSans-35" d="M 691 4666 
L 3169 4666 
L 3169 4134 
L 1269 4134 
L 1269 2991 
Q 1406 3038 1543 3061 
Q 1681 3084 1819 3084 
Q 2600 3084 3056 2656 
Q 3513 2228 3513 1497 
Q 3513 744 3044 326 
Q 2575 -91 1722 -91 
Q 1428 -91 1123 -41 
Q 819 9 494 109 
L 494 744 
Q 775 591 1075 516 
Q 1375 441 1709 441 
Q 2250 441 2565 725 
Q 2881 1009 2881 1497 
Q 2881 1984 2565 2268 
Q 2250 2553 1709 2553 
Q 1456 2553 1204 2497 
Q 953 2441 691 2322 
L 691 4666 
z
" transform="scale(0.015625)"/>
       </defs>
       <use xlink:href="#DejaVuSans-2212"/>
       <use xlink:href="#DejaVuSans-30" x="83.789062"/>
       <use xlink:href="#DejaVuSans-2e" x="147.412109"/>
       <use xlink:href="#DejaVuSans-35" x="179.199219"/>
      </g>
     </g>
    </g>
    <g id="xtick_2">
     <g id="line2d_2">
      <g>
       <use xlink:href="#m452bb5d1e8" x="99.954545" y="320.4" style="stroke: #000000; stroke-width: 0.8"/>
      </g>
     </g>
     <g id="text_2">
      <!-- 0.0 -->
      <g transform="translate(92.002983 334.998438)scale(0.1 -0.1)">
       <use xlink:href="#DejaVuSans-30"/>
       <use xlink:href="#DejaVuSans-2e" x="63.623047"/>
       <use xlink:href="#DejaVuSans-30" x="95.410156"/>
      </g>
     </g>
    </g>
    <g id="xtick_3">
     <g id="line2d_3">
      <g>
       <use xlink:href="#m452bb5d1e8" x="142.227273" y="320.4" style="stroke: #000000; stroke-width: 0.8"/>
      </g>
     </g>
     <g id="text_3">
      <!-- 0.5 -->
      <g transform="translate(134.27571 334.998438)scale(0.1 -0.1)">
       <use xlink:href="#DejaVuSans-30"/>
       <use xlink:href="#DejaVuSans-2e" x="63.623047"/>
       <use xlink:href="#DejaVuSans-35" x="95.410156"/>
      </g>
     </g>
    </g>
    <g id="xtick_4">
     <g id="line2d_4">
      <g>
       <use xlink:href="#m452bb5d1e8" x="184.5" y="320.4" style="stroke: #000000; stroke-width: 0.8"/>
      </g>
     </g>
     <g id="text_4">
      <!-- 1.0 -->
      <g transform="translate(176.548438 334.998438)scale(0.1 -0.1)">
       <defs>
        <path id="DejaVuSans-31" d="M 794 531 
L 1825 531 
L 1825 4091 
L 703 3866 
L 703 4441 
L 1819 4666 
L 2450 4666 
L 2450 531 
L 3481 531 
L 3481 0 
L 794 0 
L 794 531 
z
" transform="scale(0.015625)"/>
       </defs>
       <use xlink:href="#DejaVuSans-31"/>
       <use xlink:href="#DejaVuSans-2e" x="63.623047"/>
       <use xlink:href="#DejaVuSans-30" x="95.410156"/>
      </g>
     </g>
    </g>
    <g id="xtick_5">
     <g id="line2d_5">
      <g>
       <use xlink:href="#m452bb5d1e8" x="226.772727" y="320.4" style="stroke: #000000; stroke-width: 0.8"/>
      </g>
     </g>
     <g id="text_5">
      <!-- 1.5 -->
      <g transform="translate(218.821165 334.998438)scale(0.1 -0.1)">
       <use xlink:href="#DejaVuSans-31"/>
       <use xlink:href="#DejaVuSans-2e" x="63.623047"/>
       <use xlink:href="#DejaVuSans-35" x="95.410156"/>
      </g>
     </g>
    </g>
    <g id="xtick_6">
     <g id="line2d_6">
      <g>
       <use xlink:href="#m452bb5d1e8" x="269.045455" y="320.4" style="stroke: #000000; stroke-width: 0.8"/>
      </g>
     </g>
     <g id="text_6">
      <!-- 2.0 -->
      <g transform="translate(261.093892 334.998438)scale(0.1 -0.1)">
       <defs>
        <path id="DejaVuSans-32" d="M 1228 531 
L 3431 531 
L 3431 0 
L 469 0 
L 469 531 
Q 828 903 1448 1529 
Q 2069 2156 2228 2338 
Q 2531 2678 2651 2914 
Q 2772 3150 2772 3378 
Q 2772 3750 2511 3984 
Q 2250 4219 1831 4219 
Q 1534 4219 1204 4116 
Q 875 4013 500 3803 
L 500 4441 
Q 881 4594 1212 4672 
Q 1544 4750 1819 4750 
Q 2544 4750 2975 4387 
Q 3406 4025 3406 3419 
Q 3406 3131 3298 2873 
Q 3191 2616 2906 2266 
Q 2828 2175 2409 1742 
Q 1991 1309 1228 531 
z
" transform="scale(0.015625)"/>
       </defs>
       <use xlink:href="#DejaVuSans-32"/>
       <use xlink:href="#DejaVuSans-2e" x="63.623047"/>
       <use xlink:href="#DejaVuSans-30" x="95.410156"/>
      </g>
     </g>
    </g>
    <g id="xtick_7">
     <g id="line2d_7">
      <g>
       <use xlink:href="#m452bb5d1e8" x="311.318182" y="320.4" style="stroke: #000000; stroke-width: 0.8"/>
      </g>
     </g>
     <g id="text_7">
      <!-- 2.5 -->
      <g transform="translate(303.366619 334.998438)scale(0.1 -0.1)">
       <use xlink:href="#DejaVuSans-32"/>
       <use xlink:href="#DejaVuSans-2e" x="63.623047"/>
       <use xlink:href="#DejaVuSans-35" x="95.410156"/>
      </g>
     </g>
    </g>
   </g>
   <g id="matplotlib.axis_2">
    <g id="ytick_1">
     <g id="line2d_8">
      <defs>
       <path id="mc7664c2781" d="M 0 0 
L -3.5 0 
" style="stroke: #000000; stroke-width: 0.8"/>
      </defs>
      <g>
       <use xlink:href="#mc7664c2781" x="45" y="311.603773" style="stroke: #000000; stroke-width: 0.8"/>
      </g>
     </g>
     <g id="text_8">
      <!-- $\mathdefault{10^{-4}}$ -->
      <g transform="translate(14.5 315.402992)scale(0.1 -0.1)">
       <defs>
        <path id="DejaVuSans-34" d="M 2419 4116 
L 825 1625 
L 2419 1625 
L 2419 4116 
z
M 2253 4666 
L 3047 4666 
L 3047 1625 
L 3713 1625 
L 3713 1100 
L 3047 1100 
L 3047 0 
L 2419 0 
L 2419 1100 
L 313 1100 
L 313 1709 
L 2253 4666 
z
" transform="scale(0.015625)"/>
       </defs>
       <use xlink:href="#DejaVuSans-31" transform="translate(0 0.684375)"/>
       <use xlink:href="#DejaVuSans-30" transform="translate(63.623047 0.684375)"/>
       <use xlink:href="#DejaVuSans-2212" transform="translate(128.203125 38.965625)scale(0.7)"/>
       <use xlink:href="#DejaVuSans-34" transform="translate(186.855469 38.965625)scale(0.7)"/>
      </g>
     </g>
    </g>
    <g id="ytick_2">
     <g id="line2d_9">
      <g>
       <use xlink:href="#mc7664c2781" x="45" y="256.997478" style="stroke: #000000; stroke-width: 0.8"/>
      </g>
     </g>
     <g id="text_9">
      <!-- $\mathdefault{10^{-3}}$ -->
      <g transform="translate(14.5 260.796697)scale(0.1 -0.1)">
       <defs>
        <path id="DejaVuSans-33" d="M 2597 2516 
Q 3050 2419 3304 2112 
Q 3559 1806 3559 1356 
Q 3559 666 3084 287 
Q 2609 -91 1734 -91 
Q 1441 -91 1130 -33 
Q 819 25 488 141 
L 488 750 
Q 750 597 1062 519 
Q 1375 441 1716 441 
Q 2309 441 2620 675 
Q 2931 909 2931 1356 
Q 2931 1769 2642 2001 
Q 2353 2234 1838 2234 
L 1294 2234 
L 1294 2753 
L 1863 2753 
Q 2328 2753 2575 2939 
Q 2822 3125 2822 3475 
Q 2822 3834 2567 4026 
Q 2313 4219 1838 4219 
Q 1578 4219 1281 4162 
Q 984 4106 628 3988 
L 628 4550 
Q 988 4650 1302 4700 
Q 1616 4750 1894 4750 
Q 2613 4750 3031 4423 
Q 3450 4097 3450 3541 
Q 3450 3153 3228 2886 
Q 3006 2619 2597 2516 
z
" transform="scale(0.015625)"/>
       </defs>
       <use xlink:href="#DejaVuSans-31" transform="translate(0 0.765625)"/>
       <use xlink:href="#DejaVuSans-30" transform="translate(63.623047 0.765625)"/>
       <use xlink:href="#DejaVuSans-2212" transform="translate(128.203125 39.046875)scale(0.7)"/>
       <use xlink:href="#DejaVuSans-33" transform="translate(186.855469 39.046875)scale(0.7)"/>
      </g>
     </g>
    </g>
    <g id="ytick_3">
     <g id="line2d_10">
      <g>
       <use xlink:href="#mc7664c2781" x="45" y="202.391183" style="stroke: #000000; stroke-width: 0.8"/>
      </g>
     </g>
     <g id="text_10">
      <!-- $\mathdefault{10^{-2}}$ -->
      <g transform="translate(14.5 206.190402)scale(0.1 -0.1)">
       <use xlink:href="#DejaVuSans-31" transform="translate(0 0.765625)"/>
       <use xlink:href="#DejaVuSans-30" transform="translate(63.623047 0.765625)"/>
       <use xlink:href="#DejaVuSans-2212" transform="translate(128.203125 39.046875)scale(0.7)"/>
       <use xlink:href="#DejaVuSans-32" transform="translate(186.855469 39.046875)scale(0.7)"/>
      </g>
     </g>
    </g>
    <g id="ytick_4">
     <g id="line2d_11">
      <g>
       <use xlink:href="#mc7664c2781" x="45" y="147.784889" style="stroke: #000000; stroke-width: 0.8"/>
      </g>
     </g>
     <g id="text_11">
      <!-- $\mathdefault{10^{-1}}$ -->
      <g transform="translate(14.5 151.584107)scale(0.1 -0.1)">
       <use xlink:href="#DejaVuSans-31" transform="translate(0 0.684375)"/>
       <use xlink:href="#DejaVuSans-30" transform="translate(63.623047 0.684375)"/>
       <use xlink:href="#DejaVuSans-2212" transform="translate(128.203125 38.965625)scale(0.7)"/>
       <use xlink:href="#DejaVuSans-31" transform="translate(186.855469 38.965625)scale(0.7)"/>
      </g>
     </g>
    </g>
    <g id="ytick_5">
     <g id="line2d_12">
      <g>
       <use xlink:href="#mc7664c2781" x="45" y="93.178594" style="stroke: #000000; stroke-width: 0.8"/>
      </g>
     </g>
     <g id="text_12">
      <!-- $\mathdefault{10^{0}}$ -->
      <g transform="translate(20.4 96.977813)scale(0.1 -0.1)">
       <use xlink:href="#DejaVuSans-31" transform="translate(0 0.765625)"/>
       <use xlink:href="#DejaVuSans-30" transform="translate(63.623047 0.765625)"/>
       <use xlink:href="#DejaVuSans-30" transform="translate(128.203125 39.046875)scale(0.7)"/>
      </g>
     </g>
    </g>
    <g id="ytick_6">
     <g id="line2d_13">
      <defs>
       <path id="maef0428a7c" d="M 0 0 
L -2 0 
" style="stroke: #000000; stroke-width: 0.6"/>
      </defs>
      <g>
       <use xlink:href="#maef0428a7c" x="45" y="320.062395" style="stroke: #000000; stroke-width: 0.6"/>
      </g>
     </g>
    </g>
    <g id="ytick_7">
     <g id="line2d_14">
      <g>
       <use xlink:href="#maef0428a7c" x="45" y="316.89567" style="stroke: #000000; stroke-width: 0.6"/>
      </g>
     </g>
    </g>
    <g id="ytick_8">
     <g id="line2d_15">
      <g>
       <use xlink:href="#maef0428a7c" x="45" y="314.10242" style="stroke: #000000; stroke-width: 0.6"/>
      </g>
     </g>
    </g>
    <g id="ytick_9">
     <g id="line2d_16">
      <g>
       <use xlink:href="#maef0428a7c" x="45" y="295.16564" style="stroke: #000000; stroke-width: 0.6"/>
      </g>
     </g>
    </g>
    <g id="ytick_10">
     <g id="line2d_17">
      <g>
       <use xlink:href="#maef0428a7c" x="45" y="285.549949" style="stroke: #000000; stroke-width: 0.6"/>
      </g>
     </g>
    </g>
    <g id="ytick_11">
     <g id="line2d_18">
      <g>
       <use xlink:href="#maef0428a7c" x="45" y="278.727508" style="stroke: #000000; stroke-width: 0.6"/>
      </g>
     </g>
    </g>
    <g id="ytick_12">
     <g id="line2d_19">
      <g>
       <use xlink:href="#maef0428a7c" x="45" y="273.435611" style="stroke: #000000; stroke-width: 0.6"/>
      </g>
     </g>
    </g>
    <g id="ytick_13">
     <g id="line2d_20">
      <g>
       <use xlink:href="#maef0428a7c" x="45" y="269.111816" style="stroke: #000000; stroke-width: 0.6"/>
      </g>
     </g>
    </g>
    <g id="ytick_14">
     <g id="line2d_21">
      <g>
       <use xlink:href="#maef0428a7c" x="45" y="265.4561" style="stroke: #000000; stroke-width: 0.6"/>
      </g>
     </g>
    </g>
    <g id="ytick_15">
     <g id="line2d_22">
      <g>
       <use xlink:href="#maef0428a7c" x="45" y="262.289375" style="stroke: #000000; stroke-width: 0.6"/>
      </g>
     </g>
    </g>
    <g id="ytick_16">
     <g id="line2d_23">
      <g>
       <use xlink:href="#maef0428a7c" x="45" y="259.496125" style="stroke: #000000; stroke-width: 0.6"/>
      </g>
     </g>
    </g>
    <g id="ytick_17">
     <g id="line2d_24">
      <g>
       <use xlink:href="#maef0428a7c" x="45" y="240.559345" style="stroke: #000000; stroke-width: 0.6"/>
      </g>
     </g>
    </g>
    <g id="ytick_18">
     <g id="line2d_25">
      <g>
       <use xlink:href="#maef0428a7c" x="45" y="230.943654" style="stroke: #000000; stroke-width: 0.6"/>
      </g>
     </g>
    </g>
    <g id="ytick_19">
     <g id="line2d_26">
      <g>
       <use xlink:href="#maef0428a7c" x="45" y="224.121213" style="stroke: #000000; stroke-width: 0.6"/>
      </g>
     </g>
    </g>
    <g id="ytick_20">
     <g id="line2d_27">
      <g>
       <use xlink:href="#maef0428a7c" x="45" y="218.829316" style="stroke: #000000; stroke-width: 0.6"/>
      </g>
     </g>
    </g>
    <g id="ytick_21">
     <g id="line2d_28">
      <g>
       <use xlink:href="#maef0428a7c" x="45" y="214.505522" style="stroke: #000000; stroke-width: 0.6"/>
      </g>
     </g>
    </g>
    <g id="ytick_22">
     <g id="line2d_29">
      <g>
       <use xlink:href="#maef0428a7c" x="45" y="210.849805" style="stroke: #000000; stroke-width: 0.6"/>
      </g>
     </g>
    </g>
    <g id="ytick_23">
     <g id="line2d_30">
      <g>
       <use xlink:href="#maef0428a7c" x="45" y="207.68308" style="stroke: #000000; stroke-width: 0.6"/>
      </g>
     </g>
    </g>
    <g id="ytick_24">
     <g id="line2d_31">
      <g>
       <use xlink:href="#maef0428a7c" x="45" y="204.88983" style="stroke: #000000; stroke-width: 0.6"/>
      </g>
     </g>
    </g>
    <g id="ytick_25">
     <g id="line2d_32">
      <g>
       <use xlink:href="#maef0428a7c" x="45" y="185.953051" style="stroke: #000000; stroke-width: 0.6"/>
      </g>
     </g>
    </g>
    <g id="ytick_26">
     <g id="line2d_33">
      <g>
       <use xlink:href="#maef0428a7c" x="45" y="176.337359" style="stroke: #000000; stroke-width: 0.6"/>
      </g>
     </g>
    </g>
    <g id="ytick_27">
     <g id="line2d_34">
      <g>
       <use xlink:href="#maef0428a7c" x="45" y="169.514918" style="stroke: #000000; stroke-width: 0.6"/>
      </g>
     </g>
    </g>
    <g id="ytick_28">
     <g id="line2d_35">
      <g>
       <use xlink:href="#maef0428a7c" x="45" y="164.223021" style="stroke: #000000; stroke-width: 0.6"/>
      </g>
     </g>
    </g>
    <g id="ytick_29">
     <g id="line2d_36">
      <g>
       <use xlink:href="#maef0428a7c" x="45" y="159.899227" style="stroke: #000000; stroke-width: 0.6"/>
      </g>
     </g>
    </g>
    <g id="ytick_30">
     <g id="line2d_37">
      <g>
       <use xlink:href="#maef0428a7c" x="45" y="156.243511" style="stroke: #000000; stroke-width: 0.6"/>
      </g>
     </g>
    </g>
    <g id="ytick_31">
     <g id="line2d_38">
      <g>
       <use xlink:href="#maef0428a7c" x="45" y="153.076785" style="stroke: #000000; stroke-width: 0.6"/>
      </g>
     </g>
    </g>
    <g id="ytick_32">
     <g id="line2d_39">
      <g>
       <use xlink:href="#maef0428a7c" x="45" y="150.283536" style="stroke: #000000; stroke-width: 0.6"/>
      </g>
     </g>
    </g>
    <g id="ytick_33">
     <g id="line2d_40">
      <g>
       <use xlink:href="#maef0428a7c" x="45" y="131.346756" style="stroke: #000000; stroke-width: 0.6"/>
      </g>
     </g>
    </g>
    <g id="ytick_34">
     <g id="line2d_41">
      <g>
       <use xlink:href="#maef0428a7c" x="45" y="121.731065" style="stroke: #000000; stroke-width: 0.6"/>
      </g>
     </g>
    </g>
    <g id="ytick_35">
     <g id="line2d_42">
      <g>
       <use xlink:href="#maef0428a7c" x="45" y="114.908623" style="stroke: #000000; stroke-width: 0.6"/>
      </g>
     </g>
    </g>
    <g id="ytick_36">
     <g id="line2d_43">
      <g>
       <use xlink:href="#maef0428a7c" x="45" y="109.616727" style="stroke: #000000; stroke-width: 0.6"/>
      </g>
     </g>
    </g>
    <g id="ytick_37">
     <g id="line2d_44">
      <g>
       <use xlink:href="#maef0428a7c" x="45" y="105.292932" style="stroke: #000000; stroke-width: 0.6"/>
      </g>
     </g>
    </g>
    <g id="ytick_38">
     <g id="line2d_45">
      <g>
       <use xlink:href="#maef0428a7c" x="45" y="101.637216" style="stroke: #000000; stroke-width: 0.6"/>
      </g>
     </g>
    </g>
    <g id="ytick_39">
     <g id="line2d_46">
      <g>
       <use xlink:href="#maef0428a7c" x="45" y="98.470491" style="stroke: #000000; stroke-width: 0.6"/>
      </g>
     </g>
    </g>
    <g id="ytick_40">
     <g id="line2d_47">
      <g>
       <use xlink:href="#maef0428a7c" x="45" y="95.677241" style="stroke: #000000; stroke-width: 0.6"/>
      </g>
     </g>
    </g>
    <g id="ytick_41">
     <g id="line2d_48">
      <g>
       <use xlink:href="#maef0428a7c" x="45" y="76.740461" style="stroke: #000000; stroke-width: 0.6"/>
      </g>
     </g>
    </g>
    <g id="ytick_42">
     <g id="line2d_49">
      <g>
       <use xlink:href="#maef0428a7c" x="45" y="67.12477" style="stroke: #000000; stroke-width: 0.6"/>
      </g>
     </g>
    </g>
    <g id="ytick_43">
     <g id="line2d_50">
      <g>
       <use xlink:href="#maef0428a7c" x="45" y="60.302328" style="stroke: #000000; stroke-width: 0.6"/>
      </g>
     </g>
    </g>
    <g id="ytick_44">
     <g id="line2d_51">
      <g>
       <use xlink:href="#maef0428a7c" x="45" y="55.010432" style="stroke: #000000; stroke-width: 0.6"/>
      </g>
     </g>
    </g>
    <g id="ytick_45">
     <g id="line2d_52">
      <g>
       <use xlink:href="#maef0428a7c" x="45" y="50.686637" style="stroke: #000000; stroke-width: 0.6"/>
      </g>
     </g>
    </g>
    <g id="ytick_46">
     <g id="line2d_53">
      <g>
       <use xlink:href="#maef0428a7c" x="45" y="47.030921" style="stroke: #000000; stroke-width: 0.6"/>
      </g>
     </g>
    </g>
    <g id="ytick_47">
     <g id="line2d_54">
      <g>
       <use xlink:href="#maef0428a7c" x="45" y="43.864196" style="stroke: #000000; stroke-width: 0.6"/>
      </g>
     </g>
    </g>
   </g>
   <g id="line2d_55">
    <path d="M 99.954545 153.962042 
L 101.662534 157.78402 
L 103.370523 295.356211 
L 105.078513 165.172076 
L 106.786501 190.581103 
L 108.49449 256.854037 
L 110.20248 169.985574 
L 111.910468 197.394104 
L 113.618457 179.417905 
L 115.326447 162.447733 
L 117.034435 178.121785 
L 118.742424 225.000917 
L 120.450414 179.003002 
L 122.158402 295.297417 
L 123.86639 184.361053 
L 125.574381 215.289736 
L 127.282369 167.397088 
L 128.990357 190.755166 
L 130.698348 200.201971 
L 132.406336 177.876852 
L 134.114324 217.868036 
L 135.822315 194.724894 
L 137.530303 270.866527 
L 139.238292 162.168866 
L 140.946282 188.028459 
L 142.654273 232.578727 
L 144.362259 220.827386 
L 146.070249 195.339526 
L 147.77824 187.533223 
L 149.486226 170.484776 
L 151.194216 162.906772 
L 152.902207 170.589987 
L 154.610193 169.899966 
L 156.318183 215.869501 
L 158.026169 183.577311 
L 159.73416 183.579792 
L 161.442151 227.011555 
L 163.150136 178.868982 
L 164.858127 203.366571 
L 166.566113 174.823125 
L 168.274103 227.545242 
L 169.982094 175.762785 
L 171.69008 224.64121 
L 173.39807 178.159025 
L 175.106061 197.264715 
L 176.814047 170.720059 
L 178.522038 196.441442 
L 180.230028 210.04094 
L 181.938019 206.054538 
L 183.64601 164.946061 
L 185.354 156.458938 
L 187.061981 168.512477 
L 188.769972 158.373847 
L 190.477962 199.015809 
L 192.185953 186.562466 
L 193.893944 188.499892 
L 195.601925 178.121353 
L 197.309915 164.497095 
L 199.017906 194.355745 
L 200.725887 149.579211 
L 202.433877 161.029824 
L 204.141868 148.621718 
L 205.849859 165.343685 
L 207.557849 153.227118 
L 209.26584 167.017405 
L 210.973831 157.673738 
L 212.681822 207.834409 
L 214.389812 155.830044 
L 216.097793 159.148166 
L 217.805784 163.786048 
L 219.513774 171.888646 
L 221.221765 184.468 
L 222.929756 157.292392 
L 224.637746 208.716394 
L 226.345737 256.006951 
L 228.053718 181.387295 
L 229.761708 167.218224 
L 231.469699 145.209657 
L 233.17769 143.172064 
L 234.885681 137.246691 
L 236.593661 148.368589 
L 238.301652 148.726424 
L 240.009643 136.488125 
L 241.717623 144.314849 
L 243.425614 135.957327 
L 245.133605 143.984044 
L 246.841595 138.315817 
L 248.549586 156.629212 
L 250.257577 157.824046 
L 251.965568 151.789306 
L 253.673558 162.598745 
L 255.381549 256.934259 
L 257.08953 218.308694 
L 258.79752 174.387113 
L 260.505511 138.116939 
L 262.213502 132.054732 
L 263.921492 133.709554 
L 265.629473 121.006411 
L 267.337464 115.988758 
L 269.045455 110.025515 
" clip-path="url(#pbc164c8a7e)" style="fill: none; stroke: #1f77b4; stroke-width: 1.5; stroke-linecap: square"/>
   </g>
   <g id="line2d_56">
    <path d="M 57.681818 81.888967 
L 57.935708 81.564474 
L 58.443488 82.852694 
L 58.697379 82.564182 
L 58.951269 83.393164 
L 59.205159 83.813658 
L 59.459049 83.865931 
L 59.712939 84.42085 
L 59.966829 84.518909 
L 60.220719 83.487309 
L 60.474609 84.422248 
L 60.728499 84.612181 
L 60.98239 85.962294 
L 61.49017 86.038917 
L 61.744062 85.908161 
L 61.997952 87.138176 
L 62.251843 87.033313 
L 62.505733 87.495294 
L 62.759623 87.243033 
L 63.013513 87.900137 
L 63.267403 87.920837 
L 63.521293 88.821618 
L 64.029076 89.363047 
L 64.282966 89.437384 
L 64.536856 90.218895 
L 64.790746 88.877972 
L 65.044636 90.246191 
L 65.298526 89.468883 
L 65.552416 90.348066 
L 65.806307 91.934563 
L 66.060197 90.577377 
L 66.314087 91.957966 
L 66.567977 92.413699 
L 67.075757 93.819429 
L 67.329647 92.637368 
L 67.583537 93.568175 
L 67.837427 93.17707 
L 68.091317 95.010732 
L 68.345208 93.41661 
L 68.599098 95.611102 
L 68.852988 95.23284 
L 69.360768 95.03505 
L 69.614658 95.000595 
L 69.868551 95.204028 
L 70.122441 97.885823 
L 70.376331 96.77371 
L 70.630221 98.102826 
L 70.884111 98.00395 
L 71.138001 99.332907 
L 71.391891 97.257222 
L 71.645781 100.081458 
L 71.899674 98.508997 
L 72.407454 99.556019 
L 72.661344 101.331441 
L 72.915234 99.382071 
L 73.169125 100.845878 
L 73.423015 101.378228 
L 73.676905 103.548748 
L 73.930795 101.652346 
L 74.438575 104.008047 
L 74.692465 102.03714 
L 75.200245 105.448397 
L 75.454135 105.78028 
L 75.708026 105.285779 
L 75.961916 104.513043 
L 76.215806 106.549209 
L 76.469696 107.656908 
L 76.723586 107.600383 
L 76.977476 108.955669 
L 77.231366 106.953804 
L 77.485256 106.488979 
L 77.739146 110.832054 
L 77.993039 108.499635 
L 78.246929 108.28662 
L 78.500819 109.489221 
L 78.754709 111.259407 
L 79.008599 109.557069 
L 79.262491 109.982069 
L 79.516381 110.793447 
L 79.770271 112.6789 
L 80.024162 113.404158 
L 80.278052 112.859193 
L 80.785833 114.980542 
L 81.039723 112.796322 
L 81.293614 112.649219 
L 81.547504 115.884637 
L 81.801394 116.787522 
L 82.055283 116.536892 
L 82.309173 117.286363 
L 82.563063 116.819203 
L 82.816953 117.189751 
L 83.070844 122.027396 
L 83.324735 120.520492 
L 83.578625 116.831979 
L 84.086404 120.979101 
L 84.340294 123.807117 
L 84.594184 124.463692 
L 84.848074 126.419826 
L 85.355856 122.194853 
L 85.609746 121.535158 
L 85.863636 122.774696 
L 86.117527 129.821791 
L 86.371417 128.980846 
L 86.625308 127.339583 
L 86.879198 122.796466 
L 87.386979 129.824723 
L 87.640869 126.934508 
L 87.894759 131.915747 
L 88.148651 134.362638 
L 88.402541 127.098626 
L 88.656431 134.601453 
L 88.910321 133.649414 
L 89.164211 140.442259 
L 89.418102 129.732224 
L 89.671993 129.832467 
L 89.925883 132.777781 
L 90.179771 141.554782 
L 90.433662 145.420456 
L 90.687552 144.630612 
L 90.941442 132.914886 
L 91.195333 135.328703 
L 91.449223 133.53151 
L 92.210892 142.298659 
L 92.464782 151.9068 
L 92.972563 157.410679 
L 93.226453 141.625974 
L 93.480343 152.930864 
L 93.734234 150.045052 
L 93.988124 156.860953 
L 94.242016 151.935944 
L 94.495906 162.392513 
L 94.749796 162.950623 
L 95.003687 148.189952 
L 95.257577 158.656873 
L 95.511467 146.539821 
L 96.019248 175.614968 
L 96.273139 161.778101 
L 96.527029 171.538365 
L 96.780919 168.104507 
L 97.03481 210.856139 
L 97.2887 153.228703 
L 97.54259 194.946816 
L 97.796481 156.014957 
L 98.050371 157.873423 
L 98.30426 154.430177 
L 98.55815 251.361151 
L 98.81204 156.124838 
L 99.065931 207.317728 
L 99.319821 165.315933 
L 99.573711 155.039633 
L 99.827601 189.537529 
L 100.081492 184.263995 
L 100.335381 207.596626 
L 100.589271 181.168234 
L 100.843161 170.072921 
L 101.097051 171.552831 
L 101.858722 162.342481 
L 102.112612 211.297189 
L 102.366506 170.720177 
L 102.620397 197.098838 
L 103.128177 163.313643 
L 103.382068 192.489723 
L 103.635958 172.414671 
L 103.889848 199.418901 
L 104.143738 174.034007 
L 104.651517 178.709889 
L 104.905408 159.850985 
L 105.159298 178.720568 
L 105.413188 179.025942 
L 105.667078 181.466404 
L 105.920969 182.475041 
L 106.428748 158.087164 
L 106.682638 156.491134 
L 106.936528 231.005198 
L 107.190419 164.250127 
L 107.444309 161.74547 
L 107.698199 177.895832 
L 107.95209 168.569067 
L 108.20598 168.415886 
L 108.459869 180.834478 
L 108.713759 170.923969 
L 109.22154 163.186686 
L 109.47543 156.403544 
L 109.72932 196.946176 
L 109.983211 164.307116 
L 110.237101 189.811437 
L 110.49099 165.195766 
L 111.25266 206.011216 
L 111.50655 154.541567 
L 111.760442 197.562528 
L 112.268222 186.794779 
L 112.522116 258.599584 
L 112.776006 190.35986 
L 113.029896 169.269041 
L 113.283786 183.246287 
L 113.537676 157.08506 
L 113.791567 167.74714 
L 114.045457 222.512425 
L 114.299348 210.693753 
L 114.553236 158.286527 
L 114.807127 155.393131 
L 115.061017 157.465785 
L 115.314907 152.639365 
L 115.568797 156.063247 
L 115.822688 167.200519 
L 116.076578 237.803685 
L 116.330468 182.774776 
L 116.584357 156.589242 
L 116.838247 155.985171 
L 117.092137 216.73733 
L 117.346028 157.216137 
L 117.599918 172.150166 
L 117.853809 217.556347 
L 118.107699 163.288993 
L 118.361589 173.431654 
L 118.615483 174.522982 
L 118.869373 169.860512 
L 119.377153 155.827281 
L 119.631044 157.423351 
L 119.884935 163.082999 
L 120.138825 182.524714 
L 120.392715 164.79296 
L 120.646604 160.822946 
L 120.900494 199.136572 
L 121.154384 204.216047 
L 121.408274 219.233846 
L 121.662164 191.10559 
L 121.916054 212.575564 
L 122.169945 156.133287 
L 122.423835 191.654921 
L 122.677725 200.73203 
L 123.185505 165.28229 
L 123.439395 176.394421 
L 123.947175 166.737869 
L 124.201065 159.524101 
L 124.454955 196.133186 
L 124.708846 209.115243 
L 124.962736 231.515217 
L 125.216626 227.428153 
L 125.470516 163.913799 
L 125.724406 160.377793 
L 125.978296 201.015364 
L 126.232186 172.857327 
L 126.486076 187.645539 
L 126.739966 170.291503 
L 126.993856 192.045833 
L 127.247747 166.606366 
L 127.501637 174.905748 
L 127.755527 241.530875 
L 128.009417 185.139752 
L 128.517197 163.642973 
L 128.771092 177.398083 
L 129.024982 169.858733 
L 129.278872 192.554397 
L 129.532763 169.93414 
L 129.786653 243.737404 
L 130.040543 167.474808 
L 130.294433 167.279585 
L 130.548323 186.057857 
L 130.802213 177.242046 
L 131.056103 200.875428 
L 131.309993 203.626854 
L 131.817773 171.884807 
L 132.325554 187.548912 
L 132.833334 171.356596 
L 133.087224 203.816418 
L 133.341114 186.867899 
L 133.595004 188.126553 
L 133.848894 205.537698 
L 134.102784 169.883371 
L 134.356675 202.468312 
L 134.610565 205.977163 
L 134.86446 216.050857 
L 135.11835 170.565295 
L 135.37224 169.70233 
L 135.62613 190.845339 
L 135.88002 189.119443 
L 136.13391 181.861347 
L 136.3878 214.079675 
L 136.64169 200.411436 
L 136.895581 161.286449 
L 137.149471 179.234585 
L 137.403361 166.733159 
L 137.657251 193.273697 
L 137.911141 200.706171 
L 138.165031 177.789349 
L 138.418921 182.297333 
L 138.672811 183.07515 
L 138.926701 208.2875 
L 139.180591 207.741093 
L 139.434482 178.751274 
L 139.942262 163.890301 
L 140.196152 187.619427 
L 140.450042 242.480037 
L 140.703932 172.172221 
L 140.957822 208.683344 
L 141.211712 182.386687 
L 141.465602 173.332795 
L 141.719493 223.538376 
L 141.973383 203.815518 
L 142.227273 170.651678 
L 142.481163 176.614484 
L 142.735053 168.552247 
L 142.988943 203.689108 
L 143.242833 201.108115 
L 143.496723 290.52668 
L 143.750613 191.946955 
L 144.004503 215.235835 
L 144.258394 166.482481 
L 144.512284 208.915445 
L 144.766174 165.336063 
L 145.020064 161.315292 
L 145.273954 191.020086 
L 145.781734 165.28748 
L 146.035624 165.895364 
L 146.289514 175.522731 
L 146.543404 231.202727 
L 146.797295 167.921334 
L 147.051195 172.871963 
L 147.305085 191.935383 
L 147.558975 187.35677 
L 147.812865 191.537443 
L 148.066755 205.541572 
L 148.320645 163.930501 
L 148.574535 199.551424 
L 148.828425 179.953932 
L 149.082316 271.879235 
L 149.336206 192.803765 
L 149.590096 185.848153 
L 149.843986 173.950296 
L 150.097876 185.357183 
L 150.351766 181.44493 
L 150.605656 169.157416 
L 150.859546 179.018479 
L 151.113436 165.037464 
L 151.367326 168.13031 
L 151.621217 167.252828 
L 151.875107 177.851867 
L 152.128997 171.92924 
L 152.382887 205.485169 
L 152.636777 176.307773 
L 152.890667 183.677742 
L 153.398447 170.982476 
L 153.652337 185.638173 
L 153.906228 215.52019 
L 154.160118 185.306785 
L 154.414008 180.614293 
L 154.667898 172.347018 
L 154.921788 291.117502 
L 155.175678 171.741835 
L 155.429568 169.556903 
L 155.683458 188.11664 
L 155.937348 190.3256 
L 156.191238 171.342492 
L 156.445129 169.774482 
L 156.699019 216.713865 
L 156.952909 209.822663 
L 157.206799 252.43676 
L 157.460689 202.588107 
L 157.714579 193.206906 
L 157.968469 200.582996 
L 158.222359 211.496516 
L 158.476249 173.191391 
L 158.730139 180.138895 
L 158.98403 173.304377 
L 159.23792 180.269386 
L 159.49181 170.851694 
L 159.7457 216.63683 
L 159.99959 182.628881 
L 160.25348 181.171245 
L 160.50737 207.633751 
L 160.76126 163.276503 
L 161.01515 168.152281 
L 161.26904 179.014596 
L 161.522931 180.3788 
L 161.776821 197.611711 
L 162.030711 158.932771 
L 162.284601 251.207317 
L 162.538491 161.870554 
L 162.792381 164.73659 
L 163.046271 160.26891 
L 163.300161 179.856555 
L 163.554051 157.913611 
L 163.807942 186.376568 
L 164.061832 186.046068 
L 164.315722 181.419194 
L 164.569612 196.670308 
L 164.823502 182.327424 
L 165.077392 197.006154 
L 165.331292 189.491985 
L 165.585182 158.954504 
L 165.839072 307.8 
L 166.092963 202.951078 
L 166.346853 206.167577 
L 166.600743 197.984863 
L 166.854633 215.650276 
L 167.108523 167.531283 
L 167.362413 179.853319 
L 167.616303 177.961874 
L 167.870193 194.264579 
L 168.124083 184.361965 
L 168.377973 157.44902 
L 168.631864 189.394413 
L 168.885754 162.611589 
L 169.139644 184.544148 
L 169.393534 164.341886 
L 169.647424 182.681747 
L 169.901314 176.031513 
L 170.155204 201.616926 
L 170.409094 178.065094 
L 170.662984 193.856308 
L 170.916874 202.489055 
L 171.170765 186.070518 
L 171.424655 184.182404 
L 171.678545 172.025511 
L 171.932435 176.502852 
L 172.186325 216.147965 
L 172.440215 174.786915 
L 172.694105 218.137509 
L 172.947995 177.086738 
L 173.201885 163.324416 
L 173.455775 235.636835 
L 173.709666 202.167176 
L 173.963556 220.483337 
L 174.217446 174.675443 
L 174.471336 190.124729 
L 174.725226 176.202744 
L 174.979116 193.713332 
L 175.233006 159.910513 
L 175.740786 165.31191 
L 175.994677 159.651231 
L 176.248567 168.639498 
L 176.502457 158.989457 
L 176.756347 158.996323 
L 177.010237 166.221706 
L 177.264127 157.905999 
L 177.518017 165.917404 
L 177.771907 228.641076 
L 178.025797 179.695335 
L 178.279687 175.986809 
L 178.533578 176.31038 
L 178.787468 199.527635 
L 179.041358 169.506404 
L 179.295248 170.15969 
L 179.549148 191.887171 
L 179.803038 160.396228 
L 180.056928 204.775038 
L 180.310818 177.112604 
L 180.818599 247.049982 
L 181.072489 167.122214 
L 181.326379 191.488461 
L 181.580269 197.233602 
L 181.834159 231.334567 
L 182.088049 223.257103 
L 182.341939 177.890632 
L 182.595829 162.575999 
L 182.849719 194.36445 
L 183.103609 169.151311 
L 183.3575 161.828176 
L 183.61139 186.069637 
L 183.86528 159.874695 
L 184.11917 187.575355 
L 184.37306 200.989768 
L 184.62695 167.501048 
L 184.88084 204.062367 
L 185.13473 158.236238 
L 185.38862 171.60806 
L 185.6425 178.590739 
L 185.896391 159.780124 
L 186.150281 164.2707 
L 186.404171 179.214468 
L 186.658061 186.915923 
L 186.911951 176.969266 
L 187.165841 197.312613 
L 187.419731 164.389007 
L 187.673621 162.890084 
L 187.927511 182.582385 
L 188.181401 228.608602 
L 188.435292 185.836714 
L 188.689182 192.607392 
L 188.943072 158.924006 
L 189.450852 180.821139 
L 189.704752 171.924983 
L 189.958642 178.987267 
L 190.212532 157.507213 
L 190.466422 162.678138 
L 190.720313 178.860145 
L 190.974203 160.876304 
L 191.228093 173.861204 
L 191.481983 209.708769 
L 191.735873 153.92029 
L 191.989763 194.312793 
L 192.243653 158.896022 
L 192.497543 162.150016 
L 192.751433 198.850872 
L 193.005323 206.806094 
L 193.259214 166.315774 
L 193.513104 162.705543 
L 193.766994 153.478325 
L 194.020884 159.937332 
L 194.274774 153.500749 
L 194.782554 179.757943 
L 195.036444 152.002312 
L 195.290334 214.117655 
L 195.544225 211.258407 
L 195.798115 150.845843 
L 196.052005 158.54767 
L 196.305895 181.607968 
L 196.559785 163.617744 
L 196.813675 165.612161 
L 197.067565 158.013558 
L 197.321455 231.687431 
L 197.575345 155.677362 
L 197.829235 231.388661 
L 198.083126 168.447687 
L 198.337016 172.233625 
L 198.590906 209.682149 
L 198.844796 161.863602 
L 199.098686 154.268277 
L 199.352576 161.405127 
L 199.606466 206.906839 
L 199.860356 151.223996 
L 200.114246 170.346986 
L 200.368136 147.865132 
L 200.622027 180.808847 
L 201.129807 164.241857 
L 201.383697 175.481156 
L 201.637587 162.85495 
L 201.891477 179.914758 
L 202.145367 149.386822 
L 202.399257 159.264519 
L 202.653147 174.454232 
L 202.907037 217.807032 
L 203.414818 149.763313 
L 203.668708 189.1784 
L 203.922598 157.173472 
L 204.176488 157.263443 
L 204.430378 147.312123 
L 204.684268 158.147347 
L 204.938158 184.244273 
L 205.445939 151.319425 
L 205.699829 168.540136 
L 205.953729 155.213839 
L 206.207619 199.290649 
L 206.461509 147.694363 
L 206.715399 155.351348 
L 206.969289 146.619152 
L 207.223179 154.203886 
L 207.477069 169.142571 
L 207.73096 207.59978 
L 207.98485 165.444779 
L 208.23874 212.391743 
L 208.49263 166.486219 
L 209.00041 193.835132 
L 209.2543 197.727454 
L 209.50819 152.648197 
L 209.76208 210.955878 
L 210.269861 154.565474 
L 210.523751 154.618769 
L 210.777641 149.671766 
L 211.031531 171.280159 
L 211.285421 150.429273 
L 211.539311 178.839673 
L 211.793201 175.192764 
L 212.047091 150.328098 
L 212.300981 174.921558 
L 212.554871 164.907119 
L 212.808762 185.166566 
L 213.062652 194.768354 
L 213.316542 149.991766 
L 213.570432 216.318041 
L 213.824322 232.726388 
L 214.332102 152.363934 
L 214.585992 162.686319 
L 215.093772 166.348652 
L 215.347663 228.660582 
L 215.601553 198.221184 
L 215.855443 200.259344 
L 216.109333 166.237225 
L 216.363223 205.221102 
L 216.617113 213.046154 
L 216.871003 158.281218 
L 217.124893 156.409139 
L 217.378783 166.547905 
L 217.632674 190.518932 
L 217.886564 158.698083 
L 218.140454 160.763682 
L 218.394344 192.118564 
L 218.648234 191.012841 
L 218.902124 174.735719 
L 219.156014 166.74862 
L 219.409904 168.386469 
L 219.663794 183.515102 
L 219.917684 168.419353 
L 220.171575 176.145598 
L 220.425465 202.161799 
L 220.933245 162.548112 
L 221.441025 197.128752 
L 221.694915 165.578145 
L 222.202705 199.688482 
L 222.456596 161.987675 
L 222.710486 171.809645 
L 222.964376 170.241476 
L 223.218266 226.864551 
L 223.472156 179.556739 
L 223.726046 154.677492 
L 223.979936 253.684713 
L 224.233826 173.575502 
L 224.487716 160.198109 
L 224.741606 230.06601 
L 224.995497 150.720715 
L 225.249387 189.827208 
L 225.503277 174.709521 
L 225.757167 174.234617 
L 226.011057 191.394534 
L 226.264947 246.015734 
L 226.518837 152.778478 
L 226.772727 156.837347 
L 227.026617 201.655539 
L 227.280507 178.732596 
L 227.534398 145.338952 
L 227.788288 152.290471 
L 228.042178 151.422924 
L 228.296068 170.780927 
L 228.803848 158.187012 
L 229.057738 158.008937 
L 229.311628 168.398954 
L 229.565518 152.387292 
L 229.819409 151.570507 
L 230.073299 154.305123 
L 230.327189 149.963845 
L 230.581079 157.478035 
L 230.834969 147.494015 
L 231.088859 145.738689 
L 231.596639 167.057068 
L 231.850529 143.073649 
L 232.104419 145.619207 
L 232.35831 154.923505 
L 232.6122 138.265214 
L 232.86609 152.976525 
L 233.11998 140.069652 
L 233.37387 141.25396 
L 233.62776 157.617001 
L 233.88165 139.496137 
L 234.13554 157.932365 
L 234.64332 146.434987 
L 234.897211 152.506178 
L 235.151101 135.778254 
L 235.404991 145.869548 
L 235.658881 139.86769 
L 235.912771 154.163956 
L 236.166661 137.998085 
L 236.674441 151.19272 
L 236.928331 141.010896 
L 237.436112 135.051566 
L 237.690002 148.211923 
L 237.943892 146.617215 
L 238.197782 139.786903 
L 238.705562 137.973492 
L 238.959452 136.617909 
L 239.213342 143.073343 
L 239.467232 136.394567 
L 239.721123 135.028197 
L 239.975013 143.116427 
L 240.228903 135.09379 
L 240.482793 136.64737 
L 240.736683 133.863149 
L 240.990573 146.061852 
L 241.244463 145.228863 
L 241.498353 143.133801 
L 242.006133 135.76024 
L 242.260024 146.106855 
L 242.513924 136.537442 
L 242.767814 143.973112 
L 243.021704 135.881103 
L 243.275594 141.169623 
L 243.529484 150.224007 
L 243.783374 146.41947 
L 244.037264 148.60955 
L 244.291154 137.114356 
L 244.545045 148.343174 
L 244.798935 142.279447 
L 245.052825 139.788408 
L 245.306715 147.58948 
L 245.560605 139.548803 
L 245.814495 153.96858 
L 246.068385 150.607584 
L 246.322275 153.723141 
L 246.576165 146.281172 
L 246.830055 147.342193 
L 247.083946 142.379624 
L 247.337836 146.081914 
L 247.591726 140.085045 
L 247.845616 136.822125 
L 248.099506 141.773874 
L 248.607286 159.987704 
L 248.861176 142.989637 
L 249.115066 153.941458 
L 249.368956 142.518585 
L 249.622847 141.514875 
L 249.876737 144.793409 
L 250.130627 140.095644 
L 250.384517 140.493711 
L 250.638417 148.72423 
L 250.892307 166.188733 
L 251.146197 142.693296 
L 251.400087 163.168645 
L 251.653977 164.703159 
L 251.907868 145.316619 
L 252.161758 146.790604 
L 252.669538 159.437698 
L 252.923428 197.910651 
L 253.177318 166.757452 
L 253.431208 149.263568 
L 253.685098 162.178964 
L 253.938988 168.524689 
L 254.446769 200.196378 
L 254.700659 162.603592 
L 254.954549 183.663774 
L 255.208439 165.908418 
L 255.462329 298.432841 
L 255.716219 179.969874 
L 255.970109 186.817584 
L 256.223999 251.621957 
L 256.477889 186.897999 
L 256.73178 195.215828 
L 256.98567 182.815584 
L 257.23956 204.665941 
L 257.49345 165.143569 
L 257.74734 151.998888 
L 258.00123 170.453601 
L 258.50901 155.119839 
L 258.7629 154.513934 
L 259.01679 155.819172 
L 259.270681 167.281242 
L 259.778461 145.055151 
L 260.032351 143.029889 
L 260.286241 143.196686 
L 260.540131 140.537952 
L 260.794021 153.364061 
L 261.047911 146.57716 
L 261.301801 149.151431 
L 261.555691 138.590307 
L 261.809582 138.885177 
L 262.063472 138.725862 
L 262.317362 129.134651 
L 262.571252 134.342873 
L 262.825142 132.22774 
L 263.079032 128.430855 
L 263.332922 126.453283 
L 263.586812 134.948967 
L 263.840702 133.246548 
L 264.094593 130.032151 
L 264.348483 131.78798 
L 264.602373 123.889099 
L 264.856263 124.056212 
L 265.110153 125.651882 
L 265.364043 122.413818 
L 265.617933 121.480361 
L 265.871823 118.416859 
L 266.125713 121.678269 
L 266.379603 117.746009 
L 266.633494 119.215025 
L 266.887384 121.928747 
L 267.141274 116.587837 
L 267.395164 115.86579 
L 267.649054 118.106028 
L 267.902944 114.349703 
L 268.156834 114.494876 
L 268.410724 116.899188 
L 268.664614 112.281179 
L 268.918504 110.874791 
L 269.172405 110.656106 
L 269.426285 110.745053 
L 269.934065 108.96354 
L 270.187965 110.555241 
L 270.695745 107.668342 
L 270.949625 106.142306 
L 271.203525 106.5436 
L 271.457405 105.768934 
L 271.711306 105.414082 
L 271.965186 103.776244 
L 272.219086 105.381749 
L 272.472966 103.053435 
L 272.980746 101.898636 
L 273.234646 103.569165 
L 273.488526 101.267654 
L 273.742426 101.085538 
L 273.996307 102.614263 
L 274.250207 101.649008 
L 274.504087 101.20246 
L 274.757987 98.332156 
L 275.011867 98.211057 
L 275.265767 98.242608 
L 275.519647 99.574743 
L 276.027427 96.347606 
L 276.281328 96.928132 
L 276.535208 95.425147 
L 276.789108 95.713744 
L 277.042988 95.196003 
L 277.296888 96.247368 
L 277.804668 94.010553 
L 278.058548 93.997412 
L 278.312448 93.017688 
L 278.566328 93.398639 
L 279.074109 92.396029 
L 279.328009 91.24384 
L 279.581889 92.212966 
L 279.835789 90.697066 
L 280.089669 90.03802 
L 280.343569 90.703046 
L 280.851349 90.269235 
L 281.35915 88.135763 
L 281.61303 88.568645 
L 281.86693 88.515257 
L 282.12081 86.421708 
L 282.37471 86.822123 
L 282.62859 85.9555 
L 282.88249 86.352032 
L 283.13637 86.179387 
L 283.390271 85.273775 
L 283.644151 85.015101 
L 283.898051 85.100277 
L 284.405831 83.340624 
L 284.659711 84.296864 
L 284.913611 82.911207 
L 285.167491 82.867574 
L 285.421391 82.676729 
L 285.675271 82.215388 
L 285.929172 81.234081 
L 286.183052 81.913714 
L 286.436952 80.916565 
L 286.690832 80.540553 
L 286.944732 80.737842 
L 287.198612 79.883545 
L 288.468073 78.441564 
L 288.721953 78.460026 
L 288.975853 77.477689 
L 289.229733 77.292496 
L 289.483633 77.35829 
L 289.737513 77.121694 
L 289.991413 77.058088 
L 290.245293 76.013461 
L 290.499193 76.299966 
L 290.753073 76.137122 
L 291.006974 75.823111 
L 291.260854 74.695814 
L 291.514754 74.700509 
L 291.768634 74.150499 
L 292.022534 73.980039 
L 292.276414 74.318837 
L 292.530314 73.652473 
L 292.784194 73.659868 
L 293.038094 72.853501 
L 293.291974 72.940002 
L 293.545875 72.278566 
L 293.799755 72.540254 
L 294.053655 71.799025 
L 294.307535 71.609245 
L 294.561435 71.041534 
L 295.069215 71.338531 
L 295.830875 70.078676 
L 296.084776 69.753061 
L 296.338656 69.18219 
L 296.592556 69.605028 
L 296.846436 69.00332 
L 297.100336 68.819974 
L 297.608116 68.010591 
L 297.861996 68.009202 
L 298.115896 67.831257 
L 298.369777 67.511969 
L 298.623677 66.974053 
L 298.877557 67.290782 
L 299.385337 66.16421 
L 299.639237 65.96807 
L 299.893117 66.265315 
L 300.147017 65.642406 
L 301.416458 64.128253 
L 301.670358 64.368013 
L 302.178138 64.007238 
L 302.432018 63.195337 
L 302.685918 63.380858 
L 302.939798 62.756335 
L 303.193699 62.92013 
L 303.955359 62.248594 
L 304.717039 61.464336 
L 304.970919 60.982239 
L 305.224819 60.99505 
L 305.478699 60.537958 
L 305.7326 60.402212 
L 305.98648 59.925683 
L 306.24038 59.879479 
L 307.25594 58.812321 
L 307.76372 58.803606 
L 308.0176 58.655404 
L 308.271501 58.345663 
L 308.779281 57.491798 
L 309.033161 57.638614 
L 309.287061 57.470798 
L 309.540941 56.888838 
L 309.794841 56.989728 
L 310.048721 56.901704 
L 310.556501 56.114009 
L 310.810402 56.258757 
L 311.318182 55.8 
L 311.318182 55.8 
" clip-path="url(#pbc164c8a7e)" style="fill: none; stroke: #ff7f0e; stroke-width: 1.5; stroke-linecap: square"/>
   </g>
   <g id="patch_3">
    <path d="M 45 320.4 
L 45 43.2 
" style="fill: none; stroke: #000000; stroke-width: 0.8; stroke-linejoin: miter; stroke-linecap: square"/>
   </g>
   <g id="patch_4">
    <path d="M 324 320.4 
L 324 43.2 
" style="fill: none; stroke: #000000; stroke-width: 0.8; stroke-linejoin: miter; stroke-linecap: square"/>
   </g>
   <g id="patch_5">
    <path d="M 45 320.4 
L 324 320.4 
" style="fill: none; stroke: #000000; stroke-width: 0.8; stroke-linejoin: miter; stroke-linecap: square"/>
   </g>
   <g id="patch_6">
    <path d="M 45 43.2 
L 324 43.2 
" style="fill: none; stroke: #000000; stroke-width: 0.8; stroke-linejoin: miter; stroke-linecap: square"/>
   </g>
   <g id="text_13">
    <!-- Prediction Error -->
    <g transform="translate(138.166875 37.2)scale(0.12 -0.12)">
     <defs>
      <path id="DejaVuSans-50" d="M 1259 4147 
L 1259 2394 
L 2053 2394 
Q 2494 2394 2734 2622 
Q 2975 2850 2975 3272 
Q 2975 3691 2734 3919 
Q 2494 4147 2053 4147 
L 1259 4147 
z
M 628 4666 
L 2053 4666 
Q 2838 4666 3239 4311 
Q 3641 3956 3641 3272 
Q 3641 2581 3239 2228 
Q 2838 1875 2053 1875 
L 1259 1875 
L 1259 0 
L 628 0 
L 628 4666 
z
" transform="scale(0.015625)"/>
      <path id="DejaVuSans-72" d="M 2631 2963 
Q 2534 3019 2420 3045 
Q 2306 3072 2169 3072 
Q 1681 3072 1420 2755 
Q 1159 2438 1159 1844 
L 1159 0 
L 581 0 
L 581 3500 
L 1159 3500 
L 1159 2956 
Q 1341 3275 1631 3429 
Q 1922 3584 2338 3584 
Q 2397 3584 2469 3576 
Q 2541 3569 2628 3553 
L 2631 2963 
z
" transform="scale(0.015625)"/>
      <path id="DejaVuSans-65" d="M 3597 1894 
L 3597 1613 
L 953 1613 
Q 991 1019 1311 708 
Q 1631 397 2203 397 
Q 2534 397 2845 478 
Q 3156 559 3463 722 
L 3463 178 
Q 3153 47 2828 -22 
Q 2503 -91 2169 -91 
Q 1331 -91 842 396 
Q 353 884 353 1716 
Q 353 2575 817 3079 
Q 1281 3584 2069 3584 
Q 2775 3584 3186 3129 
Q 3597 2675 3597 1894 
z
M 3022 2063 
Q 3016 2534 2758 2815 
Q 2500 3097 2075 3097 
Q 1594 3097 1305 2825 
Q 1016 2553 972 2059 
L 3022 2063 
z
" transform="scale(0.015625)"/>
      <path id="DejaVuSans-64" d="M 2906 2969 
L 2906 4863 
L 3481 4863 
L 3481 0 
L 2906 0 
L 2906 525 
Q 2725 213 2448 61 
Q 2172 -91 1784 -91 
Q 1150 -91 751 415 
Q 353 922 353 1747 
Q 353 2572 751 3078 
Q 1150 3584 1784 3584 
Q 2172 3584 2448 3432 
Q 2725 3281 2906 2969 
z
M 947 1747 
Q 947 1113 1208 752 
Q 1469 391 1925 391 
Q 2381 391 2643 752 
Q 2906 1113 2906 1747 
Q 2906 2381 2643 2742 
Q 2381 3103 1925 3103 
Q 1469 3103 1208 2742 
Q 947 2381 947 1747 
z
" transform="scale(0.015625)"/>
      <path id="DejaVuSans-69" d="M 603 3500 
L 1178 3500 
L 1178 0 
L 603 0 
L 603 3500 
z
M 603 4863 
L 1178 4863 
L 1178 4134 
L 603 4134 
L 603 4863 
z
" transform="scale(0.015625)"/>
      <path id="DejaVuSans-63" d="M 3122 3366 
L 3122 2828 
Q 2878 2963 2633 3030 
Q 2388 3097 2138 3097 
Q 1578 3097 1268 2742 
Q 959 2388 959 1747 
Q 959 1106 1268 751 
Q 1578 397 2138 397 
Q 2388 397 2633 464 
Q 2878 531 3122 666 
L 3122 134 
Q 2881 22 2623 -34 
Q 2366 -91 2075 -91 
Q 1284 -91 818 406 
Q 353 903 353 1747 
Q 353 2603 823 3093 
Q 1294 3584 2113 3584 
Q 2378 3584 2631 3529 
Q 2884 3475 3122 3366 
z
" transform="scale(0.015625)"/>
      <path id="DejaVuSans-74" d="M 1172 4494 
L 1172 3500 
L 2356 3500 
L 2356 3053 
L 1172 3053 
L 1172 1153 
Q 1172 725 1289 603 
Q 1406 481 1766 481 
L 2356 481 
L 2356 0 
L 1766 0 
Q 1100 0 847 248 
Q 594 497 594 1153 
L 594 3053 
L 172 3053 
L 172 3500 
L 594 3500 
L 594 4494 
L 1172 4494 
z
" transform="scale(0.015625)"/>
      <path id="DejaVuSans-6f" d="M 1959 3097 
Q 1497 3097 1228 2736 
Q 959 2375 959 1747 
Q 959 1119 1226 758 
Q 1494 397 1959 397 
Q 2419 397 2687 759 
Q 2956 1122 2956 1747 
Q 2956 2369 2687 2733 
Q 2419 3097 1959 3097 
z
M 1959 3584 
Q 2709 3584 3137 3096 
Q 3566 2609 3566 1747 
Q 3566 888 3137 398 
Q 2709 -91 1959 -91 
Q 1206 -91 779 398 
Q 353 888 353 1747 
Q 353 2609 779 3096 
Q 1206 3584 1959 3584 
z
" transform="scale(0.015625)"/>
      <path id="DejaVuSans-6e" d="M 3513 2113 
L 3513 0 
L 2938 0 
L 2938 2094 
Q 2938 2591 2744 2837 
Q 2550 3084 2163 3084 
Q 1697 3084 1428 2787 
Q 1159 2491 1159 1978 
L 1159 0 
L 581 0 
L 581 3500 
L 1159 3500 
L 1159 2956 
Q 1366 3272 1645 3428 
Q 1925 3584 2291 3584 
Q 2894 3584 3203 3211 
Q 3513 2838 3513 2113 
z
" transform="scale(0.015625)"/>
      <path id="DejaVuSans-20" transform="scale(0.015625)"/>
      <path id="DejaVuSans-45" d="M 628 4666 
L 3578 4666 
L 3578 4134 
L 1259 4134 
L 1259 2753 
L 3481 2753 
L 3481 2222 
L 1259 2222 
L 1259 531 
L 3634 531 
L 3634 0 
L 628 0 
L 628 4666 
z
" transform="scale(0.015625)"/>
     </defs>
     <use xlink:href="#DejaVuSans-50"/>
     <use xlink:href="#DejaVuSans-72" x="58.552734"/>
     <use xlink:href="#DejaVuSans-65" x="97.416016"/>
     <use xlink:href="#DejaVuSans-64" x="158.939453"/>
     <use xlink:href="#DejaVuSans-69" x="222.416016"/>
     <use xlink:href="#DejaVuSans-63" x="250.199219"/>
     <use xlink:href="#DejaVuSans-74" x="305.179688"/>
     <use xlink:href="#DejaVuSans-69" x="344.388672"/>
     <use xlink:href="#DejaVuSans-6f" x="372.171875"/>
     <use xlink:href="#DejaVuSans-6e" x="433.353516"/>
     <use xlink:href="#DejaVuSans-20" x="496.732422"/>
     <use xlink:href="#DejaVuSans-45" x="528.519531"/>
     <use xlink:href="#DejaVuSans-72" x="591.703125"/>
     <use xlink:href="#DejaVuSans-72" x="631.066406"/>
     <use xlink:href="#DejaVuSans-6f" x="669.929688"/>
     <use xlink:href="#DejaVuSans-72" x="731.111328"/>
    </g>
   </g>
   <g id="legend_1">
    <g id="patch_7">
     <path d="M 52 80.55625 
L 134.657813 80.55625 
Q 136.657813 80.55625 136.657813 78.55625 
L 136.657813 50.2 
Q 136.657813 48.2 134.657813 48.2 
L 52 48.2 
Q 50 48.2 50 50.2 
L 50 78.55625 
Q 50 80.55625 52 80.55625 
z
" style="fill: #ffffff; opacity: 0.8; stroke: #cccccc; stroke-linejoin: miter"/>
    </g>
    <g id="line2d_57">
     <path d="M 54 56.298437 
L 64 56.298437 
L 74 56.298437 
" style="fill: none; stroke: #1f77b4; stroke-width: 1.5; stroke-linecap: square"/>
    </g>
    <g id="text_14">
     <!-- train error -->
     <g transform="translate(82 59.798437)scale(0.1 -0.1)">
      <defs>
       <path id="DejaVuSans-61" d="M 2194 1759 
Q 1497 1759 1228 1600 
Q 959 1441 959 1056 
Q 959 750 1161 570 
Q 1363 391 1709 391 
Q 2188 391 2477 730 
Q 2766 1069 2766 1631 
L 2766 1759 
L 2194 1759 
z
M 3341 1997 
L 3341 0 
L 2766 0 
L 2766 531 
Q 2569 213 2275 61 
Q 1981 -91 1556 -91 
Q 1019 -91 701 211 
Q 384 513 384 1019 
Q 384 1609 779 1909 
Q 1175 2209 1959 2209 
L 2766 2209 
L 2766 2266 
Q 2766 2663 2505 2880 
Q 2244 3097 1772 3097 
Q 1472 3097 1187 3025 
Q 903 2953 641 2809 
L 641 3341 
Q 956 3463 1253 3523 
Q 1550 3584 1831 3584 
Q 2591 3584 2966 3190 
Q 3341 2797 3341 1997 
z
" transform="scale(0.015625)"/>
      </defs>
      <use xlink:href="#DejaVuSans-74"/>
      <use xlink:href="#DejaVuSans-72" x="39.208984"/>
      <use xlink:href="#DejaVuSans-61" x="80.322266"/>
      <use xlink:href="#DejaVuSans-69" x="141.601562"/>
      <use xlink:href="#DejaVuSans-6e" x="169.384766"/>
      <use xlink:href="#DejaVuSans-20" x="232.763672"/>
      <use xlink:href="#DejaVuSans-65" x="264.550781"/>
      <use xlink:href="#DejaVuSans-72" x="326.074219"/>
      <use xlink:href="#DejaVuSans-72" x="365.4375"/>
      <use xlink:href="#DejaVuSans-6f" x="404.300781"/>
      <use xlink:href="#DejaVuSans-72" x="465.482422"/>
     </g>
    </g>
    <g id="line2d_58">
     <path d="M 54 70.976562 
L 64 70.976562 
L 74 70.976562 
" style="fill: none; stroke: #ff7f0e; stroke-width: 1.5; stroke-linecap: square"/>
    </g>
    <g id="text_15">
     <!-- test error -->
     <g transform="translate(82 74.476562)scale(0.1 -0.1)">
      <defs>
       <path id="DejaVuSans-73" d="M 2834 3397 
L 2834 2853 
Q 2591 2978 2328 3040 
Q 2066 3103 1784 3103 
Q 1356 3103 1142 2972 
Q 928 2841 928 2578 
Q 928 2378 1081 2264 
Q 1234 2150 1697 2047 
L 1894 2003 
Q 2506 1872 2764 1633 
Q 3022 1394 3022 966 
Q 3022 478 2636 193 
Q 2250 -91 1575 -91 
Q 1294 -91 989 -36 
Q 684 19 347 128 
L 347 722 
Q 666 556 975 473 
Q 1284 391 1588 391 
Q 1994 391 2212 530 
Q 2431 669 2431 922 
Q 2431 1156 2273 1281 
Q 2116 1406 1581 1522 
L 1381 1569 
Q 847 1681 609 1914 
Q 372 2147 372 2553 
Q 372 3047 722 3315 
Q 1072 3584 1716 3584 
Q 2034 3584 2315 3537 
Q 2597 3491 2834 3397 
z
" transform="scale(0.015625)"/>
      </defs>
      <use xlink:href="#DejaVuSans-74"/>
      <use xlink:href="#DejaVuSans-65" x="39.208984"/>
      <use xlink:href="#DejaVuSans-73" x="100.732422"/>
      <use xlink:href="#DejaVuSans-74" x="152.832031"/>
      <use xlink:href="#DejaVuSans-20" x="192.041016"/>
      <use xlink:href="#DejaVuSans-65" x="223.828125"/>
      <use xlink:href="#DejaVuSans-72" x="285.351562"/>
      <use xlink:href="#DejaVuSans-72" x="324.714844"/>
      <use xlink:href="#DejaVuSans-6f" x="363.578125"/>
      <use xlink:href="#DejaVuSans-72" x="424.759766"/>
     </g>
    </g>
   </g>
  </g>
 </g>
 <defs>
  <clipPath id="pbc164c8a7e">
   <rect x="45" y="43.2" width="279" height="277.2"/>
  </clipPath>
 </defs>
</svg>
