<?xml version="1.0" encoding="utf-8" standalone="no"?>
<!DOCTYPE svg PUBLIC "-//W3C//DTD SVG 1.1//EN"
  "http://www.w3.org/Graphics/SVG/1.1/DTD/svg11.dtd">
<svg xmlns:xlink="http://www.w3.org/1999/xlink" width="460.8pt" height="345.6pt" viewBox="0 0 460.8 345.6" xmlns="http://www.w3.org/2000/svg" version="1.1">
 <metadata>
  <rdf:RDF xmlns:dc="http://purl.org/dc/elements/1.1/" xmlns:cc="http://creativecommons.org/ns#" xmlns:rdf="http://www.w3.org/1999/02/22-rdf-syntax-ns#">
   <cc:Work>
    <dc:type rdf:resource="http://purl.org/dc/dcmitype/StillImage"/>
    <dc:date>2022-12-22T09:49:12.090240</dc:date>
    <dc:format>image/svg+xml</dc:format>
    <dc:creator>
     <cc:Agent>
      <dc:title>Matplotlib v3.5.3, https://matplotlib.org/</dc:title>
     </cc:Agent>
    </dc:creator>
   </cc:Work>
  </rdf:RDF>
 </metadata>
 <defs>
  <style type="text/css">*{stroke-linejoin: round; stroke-linecap: butt}</style>
 </defs>
 <g id="figure_1">
  <g id="patch_1">
   <path d="M 0 345.6 
L 460.8 345.6 
L 460.8 0 
L 0 0 
z
" style="fill: #ffffff"/>
  </g>
  <g id="axes_1">
   <g id="patch_2">
    <path d="M 57.6 307.584 
L 414.72 307.584 
L 414.72 41.472 
L 57.6 41.472 
z
" style="fill: #ffffff"/>
   </g>
   <g id="matplotlib.axis_1">
    <g id="xtick_1">
     <g id="line2d_1">
      <defs>
       <path id="m2b0ba98af1" d="M 0 0 
L 0 3.5 
" style="stroke: #000000; stroke-width: 0.8"/>
      </defs>
      <g>
       <use xlink:href="#m2b0ba98af1" x="103.104" y="307.584" style="stroke: #000000; stroke-width: 0.8"/>
      </g>
     </g>
     <g id="text_1">
      <!-- 0.0 -->
      <g transform="translate(95.152438 322.182437)scale(0.1 -0.1)">
       <defs>
        <path id="DejaVuSans-30" d="M 2034 4250 
Q 1547 4250 1301 3770 
Q 1056 3291 1056 2328 
Q 1056 1369 1301 889 
Q 1547 409 2034 409 
Q 2525 409 2770 889 
Q 3016 1369 3016 2328 
Q 3016 3291 2770 3770 
Q 2525 4250 2034 4250 
z
M 2034 4750 
Q 2819 4750 3233 4129 
Q 3647 3509 3647 2328 
Q 3647 1150 3233 529 
Q 2819 -91 2034 -91 
Q 1250 -91 836 529 
Q 422 1150 422 2328 
Q 422 3509 836 4129 
Q 1250 4750 2034 4750 
z
" transform="scale(0.015625)"/>
        <path id="DejaVuSans-2e" d="M 684 794 
L 1344 794 
L 1344 0 
L 684 0 
L 684 794 
z
" transform="scale(0.015625)"/>
       </defs>
       <use xlink:href="#DejaVuSans-30"/>
       <use xlink:href="#DejaVuSans-2e" x="63.623047"/>
       <use xlink:href="#DejaVuSans-30" x="95.410156"/>
      </g>
     </g>
    </g>
    <g id="xtick_2">
     <g id="line2d_2">
      <g>
       <use xlink:href="#m2b0ba98af1" x="156.3264" y="307.584" style="stroke: #000000; stroke-width: 0.8"/>
      </g>
     </g>
     <g id="text_2">
      <!-- 0.2 -->
      <g transform="translate(148.374838 322.182437)scale(0.1 -0.1)">
       <defs>
        <path id="DejaVuSans-32" d="M 1228 531 
L 3431 531 
L 3431 0 
L 469 0 
L 469 531 
Q 828 903 1448 1529 
Q 2069 2156 2228 2338 
Q 2531 2678 2651 2914 
Q 2772 3150 2772 3378 
Q 2772 3750 2511 3984 
Q 2250 4219 1831 4219 
Q 1534 4219 1204 4116 
Q 875 4013 500 3803 
L 500 4441 
Q 881 4594 1212 4672 
Q 1544 4750 1819 4750 
Q 2544 4750 2975 4387 
Q 3406 4025 3406 3419 
Q 3406 3131 3298 2873 
Q 3191 2616 2906 2266 
Q 2828 2175 2409 1742 
Q 1991 1309 1228 531 
z
" transform="scale(0.015625)"/>
       </defs>
       <use xlink:href="#DejaVuSans-30"/>
       <use xlink:href="#DejaVuSans-2e" x="63.623047"/>
       <use xlink:href="#DejaVuSans-32" x="95.410156"/>
      </g>
     </g>
    </g>
    <g id="xtick_3">
     <g id="line2d_3">
      <g>
       <use xlink:href="#m2b0ba98af1" x="209.5488" y="307.584" style="stroke: #000000; stroke-width: 0.8"/>
      </g>
     </g>
     <g id="text_3">
      <!-- 0.4 -->
      <g transform="translate(201.597238 322.182437)scale(0.1 -0.1)">
       <defs>
        <path id="DejaVuSans-34" d="M 2419 4116 
L 825 1625 
L 2419 1625 
L 2419 4116 
z
M 2253 4666 
L 3047 4666 
L 3047 1625 
L 3713 1625 
L 3713 1100 
L 3047 1100 
L 3047 0 
L 2419 0 
L 2419 1100 
L 313 1100 
L 313 1709 
L 2253 4666 
z
" transform="scale(0.015625)"/>
       </defs>
       <use xlink:href="#DejaVuSans-30"/>
       <use xlink:href="#DejaVuSans-2e" x="63.623047"/>
       <use xlink:href="#DejaVuSans-34" x="95.410156"/>
      </g>
     </g>
    </g>
    <g id="xtick_4">
     <g id="line2d_4">
      <g>
       <use xlink:href="#m2b0ba98af1" x="262.7712" y="307.584" style="stroke: #000000; stroke-width: 0.8"/>
      </g>
     </g>
     <g id="text_4">
      <!-- 0.6 -->
      <g transform="translate(254.819638 322.182437)scale(0.1 -0.1)">
       <defs>
        <path id="DejaVuSans-36" d="M 2113 2584 
Q 1688 2584 1439 2293 
Q 1191 2003 1191 1497 
Q 1191 994 1439 701 
Q 1688 409 2113 409 
Q 2538 409 2786 701 
Q 3034 994 3034 1497 
Q 3034 2003 2786 2293 
Q 2538 2584 2113 2584 
z
M 3366 4563 
L 3366 3988 
Q 3128 4100 2886 4159 
Q 2644 4219 2406 4219 
Q 1781 4219 1451 3797 
Q 1122 3375 1075 2522 
Q 1259 2794 1537 2939 
Q 1816 3084 2150 3084 
Q 2853 3084 3261 2657 
Q 3669 2231 3669 1497 
Q 3669 778 3244 343 
Q 2819 -91 2113 -91 
Q 1303 -91 875 529 
Q 447 1150 447 2328 
Q 447 3434 972 4092 
Q 1497 4750 2381 4750 
Q 2619 4750 2861 4703 
Q 3103 4656 3366 4563 
z
" transform="scale(0.015625)"/>
       </defs>
       <use xlink:href="#DejaVuSans-30"/>
       <use xlink:href="#DejaVuSans-2e" x="63.623047"/>
       <use xlink:href="#DejaVuSans-36" x="95.410156"/>
      </g>
     </g>
    </g>
    <g id="xtick_5">
     <g id="line2d_5">
      <g>
       <use xlink:href="#m2b0ba98af1" x="315.9936" y="307.584" style="stroke: #000000; stroke-width: 0.8"/>
      </g>
     </g>
     <g id="text_5">
      <!-- 0.8 -->
      <g transform="translate(308.042037 322.182437)scale(0.1 -0.1)">
       <defs>
        <path id="DejaVuSans-38" d="M 2034 2216 
Q 1584 2216 1326 1975 
Q 1069 1734 1069 1313 
Q 1069 891 1326 650 
Q 1584 409 2034 409 
Q 2484 409 2743 651 
Q 3003 894 3003 1313 
Q 3003 1734 2745 1975 
Q 2488 2216 2034 2216 
z
M 1403 2484 
Q 997 2584 770 2862 
Q 544 3141 544 3541 
Q 544 4100 942 4425 
Q 1341 4750 2034 4750 
Q 2731 4750 3128 4425 
Q 3525 4100 3525 3541 
Q 3525 3141 3298 2862 
Q 3072 2584 2669 2484 
Q 3125 2378 3379 2068 
Q 3634 1759 3634 1313 
Q 3634 634 3220 271 
Q 2806 -91 2034 -91 
Q 1263 -91 848 271 
Q 434 634 434 1313 
Q 434 1759 690 2068 
Q 947 2378 1403 2484 
z
M 1172 3481 
Q 1172 3119 1398 2916 
Q 1625 2713 2034 2713 
Q 2441 2713 2670 2916 
Q 2900 3119 2900 3481 
Q 2900 3844 2670 4047 
Q 2441 4250 2034 4250 
Q 1625 4250 1398 4047 
Q 1172 3844 1172 3481 
z
" transform="scale(0.015625)"/>
       </defs>
       <use xlink:href="#DejaVuSans-30"/>
       <use xlink:href="#DejaVuSans-2e" x="63.623047"/>
       <use xlink:href="#DejaVuSans-38" x="95.410156"/>
      </g>
     </g>
    </g>
    <g id="xtick_6">
     <g id="line2d_6">
      <g>
       <use xlink:href="#m2b0ba98af1" x="369.216" y="307.584" style="stroke: #000000; stroke-width: 0.8"/>
      </g>
     </g>
     <g id="text_6">
      <!-- 1.0 -->
      <g transform="translate(361.264438 322.182437)scale(0.1 -0.1)">
       <defs>
        <path id="DejaVuSans-31" d="M 794 531 
L 1825 531 
L 1825 4091 
L 703 3866 
L 703 4441 
L 1819 4666 
L 2450 4666 
L 2450 531 
L 3481 531 
L 3481 0 
L 794 0 
L 794 531 
z
" transform="scale(0.015625)"/>
       </defs>
       <use xlink:href="#DejaVuSans-31"/>
       <use xlink:href="#DejaVuSans-2e" x="63.623047"/>
       <use xlink:href="#DejaVuSans-30" x="95.410156"/>
      </g>
     </g>
    </g>
    <g id="text_7">
     <!-- Predicted probability -->
     <g transform="translate(184.424844 335.860562)scale(0.1 -0.1)">
      <defs>
       <path id="DejaVuSans-50" d="M 1259 4147 
L 1259 2394 
L 2053 2394 
Q 2494 2394 2734 2622 
Q 2975 2850 2975 3272 
Q 2975 3691 2734 3919 
Q 2494 4147 2053 4147 
L 1259 4147 
z
M 628 4666 
L 2053 4666 
Q 2838 4666 3239 4311 
Q 3641 3956 3641 3272 
Q 3641 2581 3239 2228 
Q 2838 1875 2053 1875 
L 1259 1875 
L 1259 0 
L 628 0 
L 628 4666 
z
" transform="scale(0.015625)"/>
       <path id="DejaVuSans-72" d="M 2631 2963 
Q 2534 3019 2420 3045 
Q 2306 3072 2169 3072 
Q 1681 3072 1420 2755 
Q 1159 2438 1159 1844 
L 1159 0 
L 581 0 
L 581 3500 
L 1159 3500 
L 1159 2956 
Q 1341 3275 1631 3429 
Q 1922 3584 2338 3584 
Q 2397 3584 2469 3576 
Q 2541 3569 2628 3553 
L 2631 2963 
z
" transform="scale(0.015625)"/>
       <path id="DejaVuSans-65" d="M 3597 1894 
L 3597 1613 
L 953 1613 
Q 991 1019 1311 708 
Q 1631 397 2203 397 
Q 2534 397 2845 478 
Q 3156 559 3463 722 
L 3463 178 
Q 3153 47 2828 -22 
Q 2503 -91 2169 -91 
Q 1331 -91 842 396 
Q 353 884 353 1716 
Q 353 2575 817 3079 
Q 1281 3584 2069 3584 
Q 2775 3584 3186 3129 
Q 3597 2675 3597 1894 
z
M 3022 2063 
Q 3016 2534 2758 2815 
Q 2500 3097 2075 3097 
Q 1594 3097 1305 2825 
Q 1016 2553 972 2059 
L 3022 2063 
z
" transform="scale(0.015625)"/>
       <path id="DejaVuSans-64" d="M 2906 2969 
L 2906 4863 
L 3481 4863 
L 3481 0 
L 2906 0 
L 2906 525 
Q 2725 213 2448 61 
Q 2172 -91 1784 -91 
Q 1150 -91 751 415 
Q 353 922 353 1747 
Q 353 2572 751 3078 
Q 1150 3584 1784 3584 
Q 2172 3584 2448 3432 
Q 2725 3281 2906 2969 
z
M 947 1747 
Q 947 1113 1208 752 
Q 1469 391 1925 391 
Q 2381 391 2643 752 
Q 2906 1113 2906 1747 
Q 2906 2381 2643 2742 
Q 2381 3103 1925 3103 
Q 1469 3103 1208 2742 
Q 947 2381 947 1747 
z
" transform="scale(0.015625)"/>
       <path id="DejaVuSans-69" d="M 603 3500 
L 1178 3500 
L 1178 0 
L 603 0 
L 603 3500 
z
M 603 4863 
L 1178 4863 
L 1178 4134 
L 603 4134 
L 603 4863 
z
" transform="scale(0.015625)"/>
       <path id="DejaVuSans-63" d="M 3122 3366 
L 3122 2828 
Q 2878 2963 2633 3030 
Q 2388 3097 2138 3097 
Q 1578 3097 1268 2742 
Q 959 2388 959 1747 
Q 959 1106 1268 751 
Q 1578 397 2138 397 
Q 2388 397 2633 464 
Q 2878 531 3122 666 
L 3122 134 
Q 2881 22 2623 -34 
Q 2366 -91 2075 -91 
Q 1284 -91 818 406 
Q 353 903 353 1747 
Q 353 2603 823 3093 
Q 1294 3584 2113 3584 
Q 2378 3584 2631 3529 
Q 2884 3475 3122 3366 
z
" transform="scale(0.015625)"/>
       <path id="DejaVuSans-74" d="M 1172 4494 
L 1172 3500 
L 2356 3500 
L 2356 3053 
L 1172 3053 
L 1172 1153 
Q 1172 725 1289 603 
Q 1406 481 1766 481 
L 2356 481 
L 2356 0 
L 1766 0 
Q 1100 0 847 248 
Q 594 497 594 1153 
L 594 3053 
L 172 3053 
L 172 3500 
L 594 3500 
L 594 4494 
L 1172 4494 
z
" transform="scale(0.015625)"/>
       <path id="DejaVuSans-20" transform="scale(0.015625)"/>
       <path id="DejaVuSans-70" d="M 1159 525 
L 1159 -1331 
L 581 -1331 
L 581 3500 
L 1159 3500 
L 1159 2969 
Q 1341 3281 1617 3432 
Q 1894 3584 2278 3584 
Q 2916 3584 3314 3078 
Q 3713 2572 3713 1747 
Q 3713 922 3314 415 
Q 2916 -91 2278 -91 
Q 1894 -91 1617 61 
Q 1341 213 1159 525 
z
M 3116 1747 
Q 3116 2381 2855 2742 
Q 2594 3103 2138 3103 
Q 1681 3103 1420 2742 
Q 1159 2381 1159 1747 
Q 1159 1113 1420 752 
Q 1681 391 2138 391 
Q 2594 391 2855 752 
Q 3116 1113 3116 1747 
z
" transform="scale(0.015625)"/>
       <path id="DejaVuSans-6f" d="M 1959 3097 
Q 1497 3097 1228 2736 
Q 959 2375 959 1747 
Q 959 1119 1226 758 
Q 1494 397 1959 397 
Q 2419 397 2687 759 
Q 2956 1122 2956 1747 
Q 2956 2369 2687 2733 
Q 2419 3097 1959 3097 
z
M 1959 3584 
Q 2709 3584 3137 3096 
Q 3566 2609 3566 1747 
Q 3566 888 3137 398 
Q 2709 -91 1959 -91 
Q 1206 -91 779 398 
Q 353 888 353 1747 
Q 353 2609 779 3096 
Q 1206 3584 1959 3584 
z
" transform="scale(0.015625)"/>
       <path id="DejaVuSans-62" d="M 3116 1747 
Q 3116 2381 2855 2742 
Q 2594 3103 2138 3103 
Q 1681 3103 1420 2742 
Q 1159 2381 1159 1747 
Q 1159 1113 1420 752 
Q 1681 391 2138 391 
Q 2594 391 2855 752 
Q 3116 1113 3116 1747 
z
M 1159 2969 
Q 1341 3281 1617 3432 
Q 1894 3584 2278 3584 
Q 2916 3584 3314 3078 
Q 3713 2572 3713 1747 
Q 3713 922 3314 415 
Q 2916 -91 2278 -91 
Q 1894 -91 1617 61 
Q 1341 213 1159 525 
L 1159 0 
L 581 0 
L 581 4863 
L 1159 4863 
L 1159 2969 
z
" transform="scale(0.015625)"/>
       <path id="DejaVuSans-61" d="M 2194 1759 
Q 1497 1759 1228 1600 
Q 959 1441 959 1056 
Q 959 750 1161 570 
Q 1363 391 1709 391 
Q 2188 391 2477 730 
Q 2766 1069 2766 1631 
L 2766 1759 
L 2194 1759 
z
M 3341 1997 
L 3341 0 
L 2766 0 
L 2766 531 
Q 2569 213 2275 61 
Q 1981 -91 1556 -91 
Q 1019 -91 701 211 
Q 384 513 384 1019 
Q 384 1609 779 1909 
Q 1175 2209 1959 2209 
L 2766 2209 
L 2766 2266 
Q 2766 2663 2505 2880 
Q 2244 3097 1772 3097 
Q 1472 3097 1187 3025 
Q 903 2953 641 2809 
L 641 3341 
Q 956 3463 1253 3523 
Q 1550 3584 1831 3584 
Q 2591 3584 2966 3190 
Q 3341 2797 3341 1997 
z
" transform="scale(0.015625)"/>
       <path id="DejaVuSans-6c" d="M 603 4863 
L 1178 4863 
L 1178 0 
L 603 0 
L 603 4863 
z
" transform="scale(0.015625)"/>
       <path id="DejaVuSans-79" d="M 2059 -325 
Q 1816 -950 1584 -1140 
Q 1353 -1331 966 -1331 
L 506 -1331 
L 506 -850 
L 844 -850 
Q 1081 -850 1212 -737 
Q 1344 -625 1503 -206 
L 1606 56 
L 191 3500 
L 800 3500 
L 1894 763 
L 2988 3500 
L 3597 3500 
L 2059 -325 
z
" transform="scale(0.015625)"/>
      </defs>
      <use xlink:href="#DejaVuSans-50"/>
      <use xlink:href="#DejaVuSans-72" x="58.552734"/>
      <use xlink:href="#DejaVuSans-65" x="97.416016"/>
      <use xlink:href="#DejaVuSans-64" x="158.939453"/>
      <use xlink:href="#DejaVuSans-69" x="222.416016"/>
      <use xlink:href="#DejaVuSans-63" x="250.199219"/>
      <use xlink:href="#DejaVuSans-74" x="305.179688"/>
      <use xlink:href="#DejaVuSans-65" x="344.388672"/>
      <use xlink:href="#DejaVuSans-64" x="405.912109"/>
      <use xlink:href="#DejaVuSans-20" x="469.388672"/>
      <use xlink:href="#DejaVuSans-70" x="501.175781"/>
      <use xlink:href="#DejaVuSans-72" x="564.652344"/>
      <use xlink:href="#DejaVuSans-6f" x="603.515625"/>
      <use xlink:href="#DejaVuSans-62" x="664.697266"/>
      <use xlink:href="#DejaVuSans-61" x="728.173828"/>
      <use xlink:href="#DejaVuSans-62" x="789.453125"/>
      <use xlink:href="#DejaVuSans-69" x="852.929688"/>
      <use xlink:href="#DejaVuSans-6c" x="880.712891"/>
      <use xlink:href="#DejaVuSans-69" x="908.496094"/>
      <use xlink:href="#DejaVuSans-74" x="936.279297"/>
      <use xlink:href="#DejaVuSans-79" x="975.488281"/>
     </g>
    </g>
   </g>
   <g id="matplotlib.axis_2">
    <g id="ytick_1">
     <g id="line2d_7">
      <defs>
       <path id="m117760d58d" d="M 0 0 
L -3.5 0 
" style="stroke: #000000; stroke-width: 0.8"/>
      </defs>
      <g>
       <use xlink:href="#m117760d58d" x="57.6" y="307.584" style="stroke: #000000; stroke-width: 0.8"/>
      </g>
     </g>
     <g id="text_8">
      <!-- 0.0 -->
      <g transform="translate(34.696875 311.383219)scale(0.1 -0.1)">
       <use xlink:href="#DejaVuSans-30"/>
       <use xlink:href="#DejaVuSans-2e" x="63.623047"/>
       <use xlink:href="#DejaVuSans-30" x="95.410156"/>
      </g>
     </g>
    </g>
    <g id="ytick_2">
     <g id="line2d_8">
      <g>
       <use xlink:href="#m117760d58d" x="57.6" y="254.3616" style="stroke: #000000; stroke-width: 0.8"/>
      </g>
     </g>
     <g id="text_9">
      <!-- 0.2 -->
      <g transform="translate(34.696875 258.160819)scale(0.1 -0.1)">
       <use xlink:href="#DejaVuSans-30"/>
       <use xlink:href="#DejaVuSans-2e" x="63.623047"/>
       <use xlink:href="#DejaVuSans-32" x="95.410156"/>
      </g>
     </g>
    </g>
    <g id="ytick_3">
     <g id="line2d_9">
      <g>
       <use xlink:href="#m117760d58d" x="57.6" y="201.1392" style="stroke: #000000; stroke-width: 0.8"/>
      </g>
     </g>
     <g id="text_10">
      <!-- 0.4 -->
      <g transform="translate(34.696875 204.938419)scale(0.1 -0.1)">
       <use xlink:href="#DejaVuSans-30"/>
       <use xlink:href="#DejaVuSans-2e" x="63.623047"/>
       <use xlink:href="#DejaVuSans-34" x="95.410156"/>
      </g>
     </g>
    </g>
    <g id="ytick_4">
     <g id="line2d_10">
      <g>
       <use xlink:href="#m117760d58d" x="57.6" y="147.9168" style="stroke: #000000; stroke-width: 0.8"/>
      </g>
     </g>
     <g id="text_11">
      <!-- 0.6 -->
      <g transform="translate(34.696875 151.716019)scale(0.1 -0.1)">
       <use xlink:href="#DejaVuSans-30"/>
       <use xlink:href="#DejaVuSans-2e" x="63.623047"/>
       <use xlink:href="#DejaVuSans-36" x="95.410156"/>
      </g>
     </g>
    </g>
    <g id="ytick_5">
     <g id="line2d_11">
      <g>
       <use xlink:href="#m117760d58d" x="57.6" y="94.6944" style="stroke: #000000; stroke-width: 0.8"/>
      </g>
     </g>
     <g id="text_12">
      <!-- 0.8 -->
      <g transform="translate(34.696875 98.493619)scale(0.1 -0.1)">
       <use xlink:href="#DejaVuSans-30"/>
       <use xlink:href="#DejaVuSans-2e" x="63.623047"/>
       <use xlink:href="#DejaVuSans-38" x="95.410156"/>
      </g>
     </g>
    </g>
    <g id="ytick_6">
     <g id="line2d_12">
      <g>
       <use xlink:href="#m117760d58d" x="57.6" y="41.472" style="stroke: #000000; stroke-width: 0.8"/>
      </g>
     </g>
     <g id="text_13">
      <!-- 1.0 -->
      <g transform="translate(34.696875 45.271219)scale(0.1 -0.1)">
       <use xlink:href="#DejaVuSans-31"/>
       <use xlink:href="#DejaVuSans-2e" x="63.623047"/>
       <use xlink:href="#DejaVuSans-30" x="95.410156"/>
      </g>
     </g>
    </g>
    <g id="text_14">
     <!-- Observed probability -->
     <g transform="translate(28.617187 226.849875)rotate(-90)scale(0.1 -0.1)">
      <defs>
       <path id="DejaVuSans-4f" d="M 2522 4238 
Q 1834 4238 1429 3725 
Q 1025 3213 1025 2328 
Q 1025 1447 1429 934 
Q 1834 422 2522 422 
Q 3209 422 3611 934 
Q 4013 1447 4013 2328 
Q 4013 3213 3611 3725 
Q 3209 4238 2522 4238 
z
M 2522 4750 
Q 3503 4750 4090 4092 
Q 4678 3434 4678 2328 
Q 4678 1225 4090 567 
Q 3503 -91 2522 -91 
Q 1538 -91 948 565 
Q 359 1222 359 2328 
Q 359 3434 948 4092 
Q 1538 4750 2522 4750 
z
" transform="scale(0.015625)"/>
       <path id="DejaVuSans-73" d="M 2834 3397 
L 2834 2853 
Q 2591 2978 2328 3040 
Q 2066 3103 1784 3103 
Q 1356 3103 1142 2972 
Q 928 2841 928 2578 
Q 928 2378 1081 2264 
Q 1234 2150 1697 2047 
L 1894 2003 
Q 2506 1872 2764 1633 
Q 3022 1394 3022 966 
Q 3022 478 2636 193 
Q 2250 -91 1575 -91 
Q 1294 -91 989 -36 
Q 684 19 347 128 
L 347 722 
Q 666 556 975 473 
Q 1284 391 1588 391 
Q 1994 391 2212 530 
Q 2431 669 2431 922 
Q 2431 1156 2273 1281 
Q 2116 1406 1581 1522 
L 1381 1569 
Q 847 1681 609 1914 
Q 372 2147 372 2553 
Q 372 3047 722 3315 
Q 1072 3584 1716 3584 
Q 2034 3584 2315 3537 
Q 2597 3491 2834 3397 
z
" transform="scale(0.015625)"/>
       <path id="DejaVuSans-76" d="M 191 3500 
L 800 3500 
L 1894 563 
L 2988 3500 
L 3597 3500 
L 2284 0 
L 1503 0 
L 191 3500 
z
" transform="scale(0.015625)"/>
      </defs>
      <use xlink:href="#DejaVuSans-4f"/>
      <use xlink:href="#DejaVuSans-62" x="78.710938"/>
      <use xlink:href="#DejaVuSans-73" x="142.1875"/>
      <use xlink:href="#DejaVuSans-65" x="194.287109"/>
      <use xlink:href="#DejaVuSans-72" x="255.810547"/>
      <use xlink:href="#DejaVuSans-76" x="296.923828"/>
      <use xlink:href="#DejaVuSans-65" x="356.103516"/>
      <use xlink:href="#DejaVuSans-64" x="417.626953"/>
      <use xlink:href="#DejaVuSans-20" x="481.103516"/>
      <use xlink:href="#DejaVuSans-70" x="512.890625"/>
      <use xlink:href="#DejaVuSans-72" x="576.367188"/>
      <use xlink:href="#DejaVuSans-6f" x="615.230469"/>
      <use xlink:href="#DejaVuSans-62" x="676.412109"/>
      <use xlink:href="#DejaVuSans-61" x="739.888672"/>
      <use xlink:href="#DejaVuSans-62" x="801.167969"/>
      <use xlink:href="#DejaVuSans-69" x="864.644531"/>
      <use xlink:href="#DejaVuSans-6c" x="892.427734"/>
      <use xlink:href="#DejaVuSans-69" x="920.210938"/>
      <use xlink:href="#DejaVuSans-74" x="947.994141"/>
      <use xlink:href="#DejaVuSans-79" x="987.203125"/>
     </g>
    </g>
   </g>
   <g id="line2d_13">
    <path d="M 103.112226 307.317888 
L 103.499708 307.051776 
L 103.710955 305.987328 
L 103.878152 305.188992 
L 104.570992 303.858432 
L 104.587459 303.59232 
L 104.716702 303.326208 
L 104.99654 303.060096 
L 105.04993 302.793984 
L 105.377094 302.527872 
L 105.396377 302.26176 
L 105.988227 301.463424 
L 106.194808 300.9312 
L 106.384634 300.665088 
L 106.401486 300.398976 
L 106.66519 299.866752 
L 106.816606 299.60064 
L 106.820496 299.334528 
L 106.982082 298.802304 
L 107.168885 298.27008 
L 107.665999 297.205632 
L 107.885391 296.407296 
L 108.259103 296.141184 
L 108.391191 295.875072 
L 108.391533 295.60896 
L 108.868581 295.076736 
L 108.895707 294.810624 
L 109.631561 293.480064 
L 109.69964 292.94784 
L 110.236299 292.149504 
L 110.314254 291.351168 
L 111.038401 290.552832 
L 111.387486 289.488384 
L 112.30364 287.891712 
L 112.516187 287.359488 
L 112.540426 287.093376 
L 112.817626 286.827264 
L 113.157657 285.496704 
L 113.333744 285.230592 
L 113.430589 284.698368 
L 113.721217 283.900032 
L 113.945171 283.63392 
L 114.010208 283.367808 
L 114.447028 282.835584 
L 114.771184 281.771136 
L 115.028354 281.505024 
L 115.160836 280.9728 
L 115.25871 280.706688 
L 116.282753 279.64224 
L 117.138746 278.31168 
L 117.68922 278.045568 
L 118.623925 275.118336 
L 119.10262 274.852224 
L 119.174957 274.586112 
L 119.63176 274.053888 
L 119.640632 273.787776 
L 119.828933 273.521664 
L 119.939902 272.98944 
L 120.316427 272.191104 
L 120.490648 271.65888 
L 121.042998 271.126656 
L 121.144188 270.860544 
L 121.395665 270.594432 
L 121.400213 270.32832 
L 121.801549 269.529984 
L 122.208852 269.263872 
L 122.214719 268.99776 
L 122.498442 268.731648 
L 122.71737 267.6672 
L 122.730323 267.401088 
L 123.15589 267.134976 
L 123.248576 266.070528 
L 123.276747 265.804416 
L 124.153043 264.207744 
L 124.318063 263.67552 
L 124.615792 262.877184 
L 124.651242 262.611072 
L 124.935358 262.34496 
L 124.991522 262.078848 
L 125.405184 261.280512 
L 125.441984 261.0144 
L 125.717183 260.748288 
L 125.805658 259.68384 
L 125.999141 259.151616 
L 126.143215 258.087168 
L 126.500045 257.821056 
L 126.516027 257.554944 
L 126.90382 256.756608 
L 127.173164 255.958272 
L 127.695786 255.69216 
L 128.21709 253.563264 
L 129.598871 251.434368 
L 129.706535 250.636032 
L 129.840489 250.36992 
L 129.888261 249.837696 
L 129.958467 249.571584 
L 130.545191 248.773248 
L 130.956615 248.507136 
L 130.997624 248.241024 
L 131.665562 246.910464 
L 131.938026 245.04768 
L 132.183718 244.515456 
L 132.363489 242.918784 
L 132.917126 242.38656 
L 133.333313 241.322112 
L 133.766749 239.991552 
L 134.277884 239.72544 
L 134.31185 239.193216 
L 134.703058 238.927104 
L 134.729361 238.660992 
L 134.995439 238.128768 
L 135.242373 237.330432 
L 135.437838 236.265984 
L 135.599077 235.73376 
L 135.666455 235.467648 
L 136.454906 234.935424 
L 136.6424 234.669312 
L 136.708919 233.870976 
L 137.452729 233.338752 
L 137.480178 233.07264 
L 138.404354 232.274304 
L 138.451959 231.74208 
L 138.722684 231.475968 
L 139.187939 231.209856 
L 139.35019 230.677632 
L 139.415423 229.613184 
L 139.6593 229.08096 
L 139.726378 228.548736 
L 140.099547 228.016512 
L 140.635868 226.153728 
L 140.960873 225.621504 
L 141.119072 225.355392 
L 141.208573 224.557056 
L 141.376446 224.024832 
L 141.538064 222.960384 
L 141.774048 222.42816 
L 141.80788 222.162048 
L 142.050113 221.895936 
L 142.067353 221.629824 
L 142.299908 221.363712 
L 142.381799 220.831488 
L 142.723261 220.299264 
L 143.033342 218.702592 
L 143.135493 218.170368 
L 143.548127 217.372032 
L 143.929691 217.10592 
L 144.129309 216.573696 
L 144.641648 216.307584 
L 144.935659 215.243136 
L 145.264429 214.710912 
L 146.227804 213.912576 
L 146.605916 213.380352 
L 146.734104 212.848128 
L 146.798825 212.582016 
L 147.813077 211.78368 
L 147.824979 211.251456 
L 148.069515 210.985344 
L 148.164212 210.45312 
L 148.483443 210.187008 
L 148.489329 209.920896 
L 148.637347 209.654784 
L 148.993359 209.388672 
L 149.474337 208.058112 
L 149.589159 207.792 
L 149.861635 207.525888 
L 150.274331 206.195328 
L 150.358508 205.663104 
L 150.932565 205.396992 
L 152.467254 203.534208 
L 153.051979 203.268096 
L 153.077231 203.001984 
L 153.484971 202.203648 
L 153.503912 201.937536 
L 153.859046 201.405312 
L 154.338131 201.1392 
L 154.457604 200.606976 
L 155.712472 199.80864 
L 155.730679 199.542528 
L 155.931607 199.276416 
L 156.632659 198.744192 
L 156.678483 198.47808 
L 156.910445 198.211968 
L 157.420854 197.945856 
L 157.539317 197.14752 
L 158.468641 196.615296 
L 158.856493 195.284736 
L 159.37891 195.018624 
L 159.43998 194.752512 
L 160.251608 194.4864 
L 160.61157 193.688064 
L 160.817377 193.421952 
L 161.287581 193.15584 
L 161.462377 192.889728 
L 161.537156 192.357504 
L 161.828175 191.559168 
L 161.89706 191.293056 
L 162.207778 191.026944 
L 162.275947 190.760832 
L 162.758215 190.49472 
L 162.796488 190.228608 
L 163.678382 189.696384 
L 164.052365 189.16416 
L 164.063784 188.898048 
L 164.769383 188.631936 
L 164.950834 188.099712 
L 166.527367 187.301376 
L 166.52966 187.035264 
L 166.690469 186.769152 
L 166.724168 186.236928 
L 166.867056 185.970816 
L 167.054371 184.374144 
L 167.405954 184.108032 
L 167.647745 183.309696 
L 168.723876 183.043584 
L 168.736129 182.777472 
L 169.418658 182.51136 
L 169.535571 181.979136 
L 169.873879 181.713024 
L 170.027747 181.1808 
L 170.048802 180.914688 
L 170.578102 180.116352 
L 170.839815 179.85024 
L 171.449516 179.584128 
L 171.62029 179.318016 
L 172.074372 179.051904 
L 172.263989 178.785792 
L 172.795129 178.51968 
L 172.878038 177.987456 
L 172.925244 177.721344 
L 174.072827 177.18912 
L 174.112089 176.923008 
L 174.534672 176.390784 
L 175.563716 175.85856 
L 175.63715 175.060224 
L 175.830306 174.528 
L 175.959231 173.729664 
L 176.115557 173.463552 
L 177.046148 172.931328 
L 177.094756 172.665216 
L 178.542589 172.399104 
L 179.174673 172.132992 
L 179.503621 171.334656 
L 179.672565 171.068544 
L 179.702182 170.802432 
L 179.867759 170.270208 
L 180.408884 168.939648 
L 181.058604 168.673536 
L 181.737333 167.8752 
L 181.883101 167.342976 
L 181.885669 167.076864 
L 182.497084 166.54464 
L 182.585758 166.012416 
L 183.20869 165.480192 
L 183.311936 164.947968 
L 184.071742 164.149632 
L 184.610072 163.88352 
L 185.121069 163.351296 
L 185.128022 163.085184 
L 185.984704 162.819072 
L 186.944318 162.020736 
L 187.450221 161.754624 
L 187.676605 161.488512 
L 189.185048 160.690176 
L 189.41285 160.424064 
L 189.718009 159.625728 
L 189.995181 159.359616 
L 189.996038 159.093504 
L 190.26899 158.295168 
L 190.807728 158.029056 
L 191.745654 157.762944 
L 191.974105 157.496832 
L 193.091808 157.23072 
L 193.349459 156.964608 
L 194.352803 156.432384 
L 194.353173 156.166272 
L 195.628332 155.634048 
L 195.655484 155.367936 
L 196.402792 155.101824 
L 198.124537 153.771264 
L 199.795572 152.972928 
L 200.190747 152.706816 
L 201.34842 152.440704 
L 201.381745 152.174592 
L 202.92037 151.642368 
L 202.944959 151.376256 
L 203.439367 151.110144 
L 203.48813 150.844032 
L 203.686899 150.57792 
L 203.726693 150.311808 
L 204.811436 149.779584 
L 204.859975 149.513472 
L 205.058819 148.981248 
L 205.237001 148.449024 
L 205.826872 148.182912 
L 206.359055 147.384576 
L 206.538428 147.118464 
L 208.341961 146.58624 
L 208.369306 146.320128 
L 208.756098 145.787904 
L 209.07703 145.521792 
L 209.37242 144.989568 
L 209.63555 144.723456 
L 211.448288 144.191232 
L 211.872679 143.659008 
L 212.117282 143.126784 
L 213.048706 142.860672 
L 215.732302 142.59456 
L 216.345356 142.328448 
L 216.582373 142.062336 
L 217.146774 141.796224 
L 217.2658 141.530112 
L 218.499955 141.264 
L 218.63342 140.997888 
L 219.500432 140.465664 
L 221.075973 139.93344 
L 221.247238 139.667328 
L 221.872497 139.401216 
L 222.155079 139.135104 
L 223.006691 138.868992 
L 223.726844 138.336768 
L 224.555126 137.538432 
L 225.166779 137.27232 
L 226.465368 137.006208 
L 227.052997 135.675648 
L 227.304664 135.409536 
L 229.373753 134.345088 
L 229.452398 134.078976 
L 230.056482 133.812864 
L 231.994085 133.28064 
L 232.119663 133.014528 
L 233.300963 132.748416 
L 233.461274 132.216192 
L 233.878582 131.95008 
L 234.057228 131.683968 
L 234.389582 131.417856 
L 237.119165 131.151744 
L 237.624787 130.885632 
L 240.838815 130.61952 
L 240.957089 130.353408 
L 243.22725 129.821184 
L 243.491438 129.28896 
L 243.516601 129.022848 
L 243.9377 128.756736 
L 246.419265 127.692288 
L 249.348001 127.160064 
L 249.413334 126.893952 
L 252.858272 126.62784 
L 253.442946 125.563392 
L 253.742868 125.29728 
L 255.807901 125.031168 
L 256.767279 124.232832 
L 257.235698 123.96672 
L 258.981953 123.700608 
L 259.502233 123.434496 
L 259.596964 123.168384 
L 261.290991 122.902272 
L 264.588608 122.63616 
L 265.312932 122.103936 
L 265.397069 121.837824 
L 265.83491 121.571712 
L 266.165164 121.039488 
L 267.409209 120.773376 
L 268.055826 120.507264 
L 270.090663 120.241152 
L 270.282284 119.97504 
L 271.373944 119.442816 
L 276.080479 118.378368 
L 276.566672 118.112256 
L 276.57736 117.846144 
L 276.874703 117.580032 
L 278.004527 117.31392 
L 278.066459 117.047808 
L 284.521939 116.781696 
L 284.843759 116.515584 
L 286.155273 116.249472 
L 288.888716 115.98336 
L 289.190098 115.451136 
L 297.103077 114.918912 
L 299.034965 114.6528 
L 299.254425 114.386688 
L 300.322223 114.120576 
L 300.488112 113.854464 
L 303.397834 113.588352 
L 307.798899 113.32224 
L 308.27603 113.056128 
L 309.090246 112.790016 
L 310.921333 112.523904 
L 311.056802 112.257792 
L 311.520921 111.99168 
L 312.82891 111.725568 
L 317.657149 111.459456 
L 317.775519 111.193344 
L 321.030722 110.395008 
L 322.928653 110.128896 
L 323.665352 109.862784 
L 325.72492 109.33056 
L 332.487141 108.798336 
L 333.214189 108.532224 
L 334.424185 108.266112 
L 337.132494 108 
L 337.156914 107.467776 
L 338.566516 106.935552 
L 339.752004 106.403328 
L 340.078387 106.137216 
L 340.658252 105.871104 
L 343.023015 105.33888 
L 343.074692 105.072768 
L 346.842572 104.274432 
L 350.605162 103.742208 
L 350.762551 103.476096 
L 351.946352 102.943872 
L 354.020091 102.67776 
L 354.473691 102.411648 
L 355.541255 102.145536 
L 355.932796 101.613312 
L 356.933401 101.3472 
L 357.120005 101.081088 
L 357.458271 100.814976 
L 358.132325 100.548864 
L 358.465882 100.01664 
L 359.409674 99.750528 
L 359.823638 99.484416 
L 359.913203 99.218304 
L 360.789974 98.68608 
L 361.006568 98.419968 
L 362.259307 98.153856 
L 362.315743 97.887744 
L 364.173489 95.758848 
L 364.180328 95.492736 
L 365.167531 95.226624 
L 365.307675 94.960512 
L 365.590288 94.6944 
L 365.621177 94.428288 
L 365.863884 94.162176 
L 365.892527 93.896064 
L 366.195366 93.629952 
L 366.275472 93.36384 
L 367.075068 92.831616 
L 367.078045 92.565504 
L 367.212731 92.03328 
L 367.580472 90.968832 
L 368.110051 90.170496 
L 368.24472 89.638272 
L 368.439573 88.839936 
L 368.525488 87.243264 
L 368.729757 86.977152 
L 368.98907 84.848256 
L 369.138972 81.654912 
L 369.201414 77.929344 
L 369.216 41.472 
L 369.216 41.472 
" clip-path="url(#p715b0e7142)" style="fill: none; stroke: #ff7f0e; stroke-width: 1.5; stroke-linecap: square"/>
   </g>
   <g id="line2d_14">
    <path d="M 103.104 307.584 
L 369.216 41.472 
" clip-path="url(#p715b0e7142)" style="fill: none; stroke-dasharray: 5.55,2.4; stroke-dashoffset: 0; stroke: #000000; stroke-opacity: 0.5; stroke-width: 1.5"/>
   </g>
   <g id="patch_3">
    <path d="M 57.6 307.584 
L 57.6 41.472 
" style="fill: none; stroke: #000000; stroke-width: 0.8; stroke-linejoin: miter; stroke-linecap: square"/>
   </g>
   <g id="patch_4">
    <path d="M 414.72 307.584 
L 414.72 41.472 
" style="fill: none; stroke: #000000; stroke-width: 0.8; stroke-linejoin: miter; stroke-linecap: square"/>
   </g>
   <g id="patch_5">
    <path d="M 57.6 307.584 
L 414.72 307.584 
" style="fill: none; stroke: #000000; stroke-width: 0.8; stroke-linejoin: miter; stroke-linecap: square"/>
   </g>
   <g id="patch_6">
    <path d="M 57.6 41.472 
L 414.72 41.472 
" style="fill: none; stroke: #000000; stroke-width: 0.8; stroke-linejoin: miter; stroke-linecap: square"/>
   </g>
   <g id="text_15">
    <!-- Calibration curve -->
    <g transform="translate(184.79625 35.472)scale(0.12 -0.12)">
     <defs>
      <path id="DejaVuSans-43" d="M 4122 4306 
L 4122 3641 
Q 3803 3938 3442 4084 
Q 3081 4231 2675 4231 
Q 1875 4231 1450 3742 
Q 1025 3253 1025 2328 
Q 1025 1406 1450 917 
Q 1875 428 2675 428 
Q 3081 428 3442 575 
Q 3803 722 4122 1019 
L 4122 359 
Q 3791 134 3420 21 
Q 3050 -91 2638 -91 
Q 1578 -91 968 557 
Q 359 1206 359 2328 
Q 359 3453 968 4101 
Q 1578 4750 2638 4750 
Q 3056 4750 3426 4639 
Q 3797 4528 4122 4306 
z
" transform="scale(0.015625)"/>
      <path id="DejaVuSans-6e" d="M 3513 2113 
L 3513 0 
L 2938 0 
L 2938 2094 
Q 2938 2591 2744 2837 
Q 2550 3084 2163 3084 
Q 1697 3084 1428 2787 
Q 1159 2491 1159 1978 
L 1159 0 
L 581 0 
L 581 3500 
L 1159 3500 
L 1159 2956 
Q 1366 3272 1645 3428 
Q 1925 3584 2291 3584 
Q 2894 3584 3203 3211 
Q 3513 2838 3513 2113 
z
" transform="scale(0.015625)"/>
      <path id="DejaVuSans-75" d="M 544 1381 
L 544 3500 
L 1119 3500 
L 1119 1403 
Q 1119 906 1312 657 
Q 1506 409 1894 409 
Q 2359 409 2629 706 
Q 2900 1003 2900 1516 
L 2900 3500 
L 3475 3500 
L 3475 0 
L 2900 0 
L 2900 538 
Q 2691 219 2414 64 
Q 2138 -91 1772 -91 
Q 1169 -91 856 284 
Q 544 659 544 1381 
z
M 1991 3584 
L 1991 3584 
z
" transform="scale(0.015625)"/>
     </defs>
     <use xlink:href="#DejaVuSans-43"/>
     <use xlink:href="#DejaVuSans-61" x="69.824219"/>
     <use xlink:href="#DejaVuSans-6c" x="131.103516"/>
     <use xlink:href="#DejaVuSans-69" x="158.886719"/>
     <use xlink:href="#DejaVuSans-62" x="186.669922"/>
     <use xlink:href="#DejaVuSans-72" x="250.146484"/>
     <use xlink:href="#DejaVuSans-61" x="291.259766"/>
     <use xlink:href="#DejaVuSans-74" x="352.539062"/>
     <use xlink:href="#DejaVuSans-69" x="391.748047"/>
     <use xlink:href="#DejaVuSans-6f" x="419.53125"/>
     <use xlink:href="#DejaVuSans-6e" x="480.712891"/>
     <use xlink:href="#DejaVuSans-20" x="544.091797"/>
     <use xlink:href="#DejaVuSans-63" x="575.878906"/>
     <use xlink:href="#DejaVuSans-75" x="630.859375"/>
     <use xlink:href="#DejaVuSans-72" x="694.238281"/>
     <use xlink:href="#DejaVuSans-76" x="735.351562"/>
     <use xlink:href="#DejaVuSans-65" x="794.53125"/>
    </g>
   </g>
   <g id="legend_1">
    <g id="patch_7">
     <path d="M 64.6 78.82825 
L 182.20625 78.82825 
Q 184.20625 78.82825 184.20625 76.82825 
L 184.20625 48.472 
Q 184.20625 46.472 182.20625 46.472 
L 64.6 46.472 
Q 62.6 46.472 62.6 48.472 
L 62.6 76.82825 
Q 62.6 78.82825 64.6 78.82825 
z
" style="fill: #ffffff; opacity: 0.8; stroke: #cccccc; stroke-linejoin: miter"/>
    </g>
    <g id="line2d_15">
     <path d="M 66.6 54.570437 
L 76.6 54.570437 
L 86.6 54.570437 
" style="fill: none; stroke: #ff7f0e; stroke-width: 1.5; stroke-linecap: square"/>
    </g>
    <g id="text_16">
     <!-- Calibration curve -->
     <g transform="translate(94.6 58.070437)scale(0.1 -0.1)">
      <use xlink:href="#DejaVuSans-43"/>
      <use xlink:href="#DejaVuSans-61" x="69.824219"/>
      <use xlink:href="#DejaVuSans-6c" x="131.103516"/>
      <use xlink:href="#DejaVuSans-69" x="158.886719"/>
      <use xlink:href="#DejaVuSans-62" x="186.669922"/>
      <use xlink:href="#DejaVuSans-72" x="250.146484"/>
      <use xlink:href="#DejaVuSans-61" x="291.259766"/>
      <use xlink:href="#DejaVuSans-74" x="352.539062"/>
      <use xlink:href="#DejaVuSans-69" x="391.748047"/>
      <use xlink:href="#DejaVuSans-6f" x="419.53125"/>
      <use xlink:href="#DejaVuSans-6e" x="480.712891"/>
      <use xlink:href="#DejaVuSans-20" x="544.091797"/>
      <use xlink:href="#DejaVuSans-63" x="575.878906"/>
      <use xlink:href="#DejaVuSans-75" x="630.859375"/>
      <use xlink:href="#DejaVuSans-72" x="694.238281"/>
      <use xlink:href="#DejaVuSans-76" x="735.351562"/>
      <use xlink:href="#DejaVuSans-65" x="794.53125"/>
     </g>
    </g>
    <g id="line2d_16">
     <path d="M 66.6 69.248562 
L 76.6 69.248562 
L 86.6 69.248562 
" style="fill: none; stroke-dasharray: 5.55,2.4; stroke-dashoffset: 0; stroke: #000000; stroke-opacity: 0.5; stroke-width: 1.5"/>
    </g>
    <g id="text_17">
     <!-- Ideal curve -->
     <g transform="translate(94.6 72.748562)scale(0.1 -0.1)">
      <defs>
       <path id="DejaVuSans-49" d="M 628 4666 
L 1259 4666 
L 1259 0 
L 628 0 
L 628 4666 
z
" transform="scale(0.015625)"/>
      </defs>
      <use xlink:href="#DejaVuSans-49"/>
      <use xlink:href="#DejaVuSans-64" x="29.492188"/>
      <use xlink:href="#DejaVuSans-65" x="92.96875"/>
      <use xlink:href="#DejaVuSans-61" x="154.492188"/>
      <use xlink:href="#DejaVuSans-6c" x="215.771484"/>
      <use xlink:href="#DejaVuSans-20" x="243.554688"/>
      <use xlink:href="#DejaVuSans-63" x="275.341797"/>
      <use xlink:href="#DejaVuSans-75" x="330.322266"/>
      <use xlink:href="#DejaVuSans-72" x="393.701172"/>
      <use xlink:href="#DejaVuSans-76" x="434.814453"/>
      <use xlink:href="#DejaVuSans-65" x="493.994141"/>
     </g>
    </g>
   </g>
  </g>
 </g>
 <defs>
  <clipPath id="p715b0e7142">
   <rect x="57.6" y="41.472" width="357.12" height="266.112"/>
  </clipPath>
 </defs>
</svg>
