<?xml version="1.0" encoding="utf-8" standalone="no"?>
<!DOCTYPE svg PUBLIC "-//W3C//DTD SVG 1.1//EN"
  "http://www.w3.org/Graphics/SVG/1.1/DTD/svg11.dtd">
<svg xmlns:xlink="http://www.w3.org/1999/xlink" width="460.8pt" height="345.6pt" viewBox="0 0 460.8 345.6" xmlns="http://www.w3.org/2000/svg" version="1.1">
 <metadata>
  <rdf:RDF xmlns:dc="http://purl.org/dc/elements/1.1/" xmlns:cc="http://creativecommons.org/ns#" xmlns:rdf="http://www.w3.org/1999/02/22-rdf-syntax-ns#">
   <cc:Work>
    <dc:type rdf:resource="http://purl.org/dc/dcmitype/StillImage"/>
    <dc:date>2022-12-22T12:02:34.815869</dc:date>
    <dc:format>image/svg+xml</dc:format>
    <dc:creator>
     <cc:Agent>
      <dc:title>Matplotlib v3.5.3, https://matplotlib.org/</dc:title>
     </cc:Agent>
    </dc:creator>
   </cc:Work>
  </rdf:RDF>
 </metadata>
 <defs>
  <style type="text/css">*{stroke-linejoin: round; stroke-linecap: butt}</style>
 </defs>
 <g id="figure_1">
  <g id="patch_1">
   <path d="M 0 345.6 
L 460.8 345.6 
L 460.8 0 
L 0 0 
z
" style="fill: #ffffff"/>
  </g>
  <g id="axes_1">
   <g id="patch_2">
    <path d="M 57.6 307.584 
L 414.72 307.584 
L 414.72 41.472 
L 57.6 41.472 
z
" style="fill: #e5e5e5"/>
   </g>
   <g id="matplotlib.axis_1">
    <g id="xtick_1">
     <g id="line2d_1">
      <path d="M 103.104 307.584 
L 103.104 41.472 
" clip-path="url(#pa08db24928)" style="fill: none; stroke: #ffffff; stroke-width: 0.8; stroke-linecap: square"/>
     </g>
     <g id="line2d_2">
      <defs>
       <path id="mb66db7b86e" d="M 0 0 
L 0 3.5 
" style="stroke: #555555; stroke-width: 0.8"/>
      </defs>
      <g>
       <use xlink:href="#mb66db7b86e" x="103.104" y="307.584" style="fill: #555555; stroke: #555555; stroke-width: 0.8"/>
      </g>
     </g>
     <g id="text_1">
      <!-- 0.0 -->
      <g style="fill: #555555" transform="translate(95.152438 322.182437)scale(0.1 -0.1)">
       <defs>
        <path id="DejaVuSans-30" d="M 2034 4250 
Q 1547 4250 1301 3770 
Q 1056 3291 1056 2328 
Q 1056 1369 1301 889 
Q 1547 409 2034 409 
Q 2525 409 2770 889 
Q 3016 1369 3016 2328 
Q 3016 3291 2770 3770 
Q 2525 4250 2034 4250 
z
M 2034 4750 
Q 2819 4750 3233 4129 
Q 3647 3509 3647 2328 
Q 3647 1150 3233 529 
Q 2819 -91 2034 -91 
Q 1250 -91 836 529 
Q 422 1150 422 2328 
Q 422 3509 836 4129 
Q 1250 4750 2034 4750 
z
" transform="scale(0.015625)"/>
        <path id="DejaVuSans-2e" d="M 684 794 
L 1344 794 
L 1344 0 
L 684 0 
L 684 794 
z
" transform="scale(0.015625)"/>
       </defs>
       <use xlink:href="#DejaVuSans-30"/>
       <use xlink:href="#DejaVuSans-2e" x="63.623047"/>
       <use xlink:href="#DejaVuSans-30" x="95.410156"/>
      </g>
     </g>
    </g>
    <g id="xtick_2">
     <g id="line2d_3">
      <path d="M 156.3264 307.584 
L 156.3264 41.472 
" clip-path="url(#pa08db24928)" style="fill: none; stroke: #ffffff; stroke-width: 0.8; stroke-linecap: square"/>
     </g>
     <g id="line2d_4">
      <g>
       <use xlink:href="#mb66db7b86e" x="156.3264" y="307.584" style="fill: #555555; stroke: #555555; stroke-width: 0.8"/>
      </g>
     </g>
     <g id="text_2">
      <!-- 0.2 -->
      <g style="fill: #555555" transform="translate(148.374838 322.182437)scale(0.1 -0.1)">
       <defs>
        <path id="DejaVuSans-32" d="M 1228 531 
L 3431 531 
L 3431 0 
L 469 0 
L 469 531 
Q 828 903 1448 1529 
Q 2069 2156 2228 2338 
Q 2531 2678 2651 2914 
Q 2772 3150 2772 3378 
Q 2772 3750 2511 3984 
Q 2250 4219 1831 4219 
Q 1534 4219 1204 4116 
Q 875 4013 500 3803 
L 500 4441 
Q 881 4594 1212 4672 
Q 1544 4750 1819 4750 
Q 2544 4750 2975 4387 
Q 3406 4025 3406 3419 
Q 3406 3131 3298 2873 
Q 3191 2616 2906 2266 
Q 2828 2175 2409 1742 
Q 1991 1309 1228 531 
z
" transform="scale(0.015625)"/>
       </defs>
       <use xlink:href="#DejaVuSans-30"/>
       <use xlink:href="#DejaVuSans-2e" x="63.623047"/>
       <use xlink:href="#DejaVuSans-32" x="95.410156"/>
      </g>
     </g>
    </g>
    <g id="xtick_3">
     <g id="line2d_5">
      <path d="M 209.5488 307.584 
L 209.5488 41.472 
" clip-path="url(#pa08db24928)" style="fill: none; stroke: #ffffff; stroke-width: 0.8; stroke-linecap: square"/>
     </g>
     <g id="line2d_6">
      <g>
       <use xlink:href="#mb66db7b86e" x="209.5488" y="307.584" style="fill: #555555; stroke: #555555; stroke-width: 0.8"/>
      </g>
     </g>
     <g id="text_3">
      <!-- 0.4 -->
      <g style="fill: #555555" transform="translate(201.597238 322.182437)scale(0.1 -0.1)">
       <defs>
        <path id="DejaVuSans-34" d="M 2419 4116 
L 825 1625 
L 2419 1625 
L 2419 4116 
z
M 2253 4666 
L 3047 4666 
L 3047 1625 
L 3713 1625 
L 3713 1100 
L 3047 1100 
L 3047 0 
L 2419 0 
L 2419 1100 
L 313 1100 
L 313 1709 
L 2253 4666 
z
" transform="scale(0.015625)"/>
       </defs>
       <use xlink:href="#DejaVuSans-30"/>
       <use xlink:href="#DejaVuSans-2e" x="63.623047"/>
       <use xlink:href="#DejaVuSans-34" x="95.410156"/>
      </g>
     </g>
    </g>
    <g id="xtick_4">
     <g id="line2d_7">
      <path d="M 262.7712 307.584 
L 262.7712 41.472 
" clip-path="url(#pa08db24928)" style="fill: none; stroke: #ffffff; stroke-width: 0.8; stroke-linecap: square"/>
     </g>
     <g id="line2d_8">
      <g>
       <use xlink:href="#mb66db7b86e" x="262.7712" y="307.584" style="fill: #555555; stroke: #555555; stroke-width: 0.8"/>
      </g>
     </g>
     <g id="text_4">
      <!-- 0.6 -->
      <g style="fill: #555555" transform="translate(254.819638 322.182437)scale(0.1 -0.1)">
       <defs>
        <path id="DejaVuSans-36" d="M 2113 2584 
Q 1688 2584 1439 2293 
Q 1191 2003 1191 1497 
Q 1191 994 1439 701 
Q 1688 409 2113 409 
Q 2538 409 2786 701 
Q 3034 994 3034 1497 
Q 3034 2003 2786 2293 
Q 2538 2584 2113 2584 
z
M 3366 4563 
L 3366 3988 
Q 3128 4100 2886 4159 
Q 2644 4219 2406 4219 
Q 1781 4219 1451 3797 
Q 1122 3375 1075 2522 
Q 1259 2794 1537 2939 
Q 1816 3084 2150 3084 
Q 2853 3084 3261 2657 
Q 3669 2231 3669 1497 
Q 3669 778 3244 343 
Q 2819 -91 2113 -91 
Q 1303 -91 875 529 
Q 447 1150 447 2328 
Q 447 3434 972 4092 
Q 1497 4750 2381 4750 
Q 2619 4750 2861 4703 
Q 3103 4656 3366 4563 
z
" transform="scale(0.015625)"/>
       </defs>
       <use xlink:href="#DejaVuSans-30"/>
       <use xlink:href="#DejaVuSans-2e" x="63.623047"/>
       <use xlink:href="#DejaVuSans-36" x="95.410156"/>
      </g>
     </g>
    </g>
    <g id="xtick_5">
     <g id="line2d_9">
      <path d="M 315.9936 307.584 
L 315.9936 41.472 
" clip-path="url(#pa08db24928)" style="fill: none; stroke: #ffffff; stroke-width: 0.8; stroke-linecap: square"/>
     </g>
     <g id="line2d_10">
      <g>
       <use xlink:href="#mb66db7b86e" x="315.9936" y="307.584" style="fill: #555555; stroke: #555555; stroke-width: 0.8"/>
      </g>
     </g>
     <g id="text_5">
      <!-- 0.8 -->
      <g style="fill: #555555" transform="translate(308.042037 322.182437)scale(0.1 -0.1)">
       <defs>
        <path id="DejaVuSans-38" d="M 2034 2216 
Q 1584 2216 1326 1975 
Q 1069 1734 1069 1313 
Q 1069 891 1326 650 
Q 1584 409 2034 409 
Q 2484 409 2743 651 
Q 3003 894 3003 1313 
Q 3003 1734 2745 1975 
Q 2488 2216 2034 2216 
z
M 1403 2484 
Q 997 2584 770 2862 
Q 544 3141 544 3541 
Q 544 4100 942 4425 
Q 1341 4750 2034 4750 
Q 2731 4750 3128 4425 
Q 3525 4100 3525 3541 
Q 3525 3141 3298 2862 
Q 3072 2584 2669 2484 
Q 3125 2378 3379 2068 
Q 3634 1759 3634 1313 
Q 3634 634 3220 271 
Q 2806 -91 2034 -91 
Q 1263 -91 848 271 
Q 434 634 434 1313 
Q 434 1759 690 2068 
Q 947 2378 1403 2484 
z
M 1172 3481 
Q 1172 3119 1398 2916 
Q 1625 2713 2034 2713 
Q 2441 2713 2670 2916 
Q 2900 3119 2900 3481 
Q 2900 3844 2670 4047 
Q 2441 4250 2034 4250 
Q 1625 4250 1398 4047 
Q 1172 3844 1172 3481 
z
" transform="scale(0.015625)"/>
       </defs>
       <use xlink:href="#DejaVuSans-30"/>
       <use xlink:href="#DejaVuSans-2e" x="63.623047"/>
       <use xlink:href="#DejaVuSans-38" x="95.410156"/>
      </g>
     </g>
    </g>
    <g id="xtick_6">
     <g id="line2d_11">
      <path d="M 369.216 307.584 
L 369.216 41.472 
" clip-path="url(#pa08db24928)" style="fill: none; stroke: #ffffff; stroke-width: 0.8; stroke-linecap: square"/>
     </g>
     <g id="line2d_12">
      <g>
       <use xlink:href="#mb66db7b86e" x="369.216" y="307.584" style="fill: #555555; stroke: #555555; stroke-width: 0.8"/>
      </g>
     </g>
     <g id="text_6">
      <!-- 1.0 -->
      <g style="fill: #555555" transform="translate(361.264438 322.182437)scale(0.1 -0.1)">
       <defs>
        <path id="DejaVuSans-31" d="M 794 531 
L 1825 531 
L 1825 4091 
L 703 3866 
L 703 4441 
L 1819 4666 
L 2450 4666 
L 2450 531 
L 3481 531 
L 3481 0 
L 794 0 
L 794 531 
z
" transform="scale(0.015625)"/>
       </defs>
       <use xlink:href="#DejaVuSans-31"/>
       <use xlink:href="#DejaVuSans-2e" x="63.623047"/>
       <use xlink:href="#DejaVuSans-30" x="95.410156"/>
      </g>
     </g>
    </g>
    <g id="text_7">
     <!-- Predicted probability -->
     <g style="fill: #555555" transform="translate(174.077812 337.38025)scale(0.12 -0.12)">
      <defs>
       <path id="DejaVuSans-50" d="M 1259 4147 
L 1259 2394 
L 2053 2394 
Q 2494 2394 2734 2622 
Q 2975 2850 2975 3272 
Q 2975 3691 2734 3919 
Q 2494 4147 2053 4147 
L 1259 4147 
z
M 628 4666 
L 2053 4666 
Q 2838 4666 3239 4311 
Q 3641 3956 3641 3272 
Q 3641 2581 3239 2228 
Q 2838 1875 2053 1875 
L 1259 1875 
L 1259 0 
L 628 0 
L 628 4666 
z
" transform="scale(0.015625)"/>
       <path id="DejaVuSans-72" d="M 2631 2963 
Q 2534 3019 2420 3045 
Q 2306 3072 2169 3072 
Q 1681 3072 1420 2755 
Q 1159 2438 1159 1844 
L 1159 0 
L 581 0 
L 581 3500 
L 1159 3500 
L 1159 2956 
Q 1341 3275 1631 3429 
Q 1922 3584 2338 3584 
Q 2397 3584 2469 3576 
Q 2541 3569 2628 3553 
L 2631 2963 
z
" transform="scale(0.015625)"/>
       <path id="DejaVuSans-65" d="M 3597 1894 
L 3597 1613 
L 953 1613 
Q 991 1019 1311 708 
Q 1631 397 2203 397 
Q 2534 397 2845 478 
Q 3156 559 3463 722 
L 3463 178 
Q 3153 47 2828 -22 
Q 2503 -91 2169 -91 
Q 1331 -91 842 396 
Q 353 884 353 1716 
Q 353 2575 817 3079 
Q 1281 3584 2069 3584 
Q 2775 3584 3186 3129 
Q 3597 2675 3597 1894 
z
M 3022 2063 
Q 3016 2534 2758 2815 
Q 2500 3097 2075 3097 
Q 1594 3097 1305 2825 
Q 1016 2553 972 2059 
L 3022 2063 
z
" transform="scale(0.015625)"/>
       <path id="DejaVuSans-64" d="M 2906 2969 
L 2906 4863 
L 3481 4863 
L 3481 0 
L 2906 0 
L 2906 525 
Q 2725 213 2448 61 
Q 2172 -91 1784 -91 
Q 1150 -91 751 415 
Q 353 922 353 1747 
Q 353 2572 751 3078 
Q 1150 3584 1784 3584 
Q 2172 3584 2448 3432 
Q 2725 3281 2906 2969 
z
M 947 1747 
Q 947 1113 1208 752 
Q 1469 391 1925 391 
Q 2381 391 2643 752 
Q 2906 1113 2906 1747 
Q 2906 2381 2643 2742 
Q 2381 3103 1925 3103 
Q 1469 3103 1208 2742 
Q 947 2381 947 1747 
z
" transform="scale(0.015625)"/>
       <path id="DejaVuSans-69" d="M 603 3500 
L 1178 3500 
L 1178 0 
L 603 0 
L 603 3500 
z
M 603 4863 
L 1178 4863 
L 1178 4134 
L 603 4134 
L 603 4863 
z
" transform="scale(0.015625)"/>
       <path id="DejaVuSans-63" d="M 3122 3366 
L 3122 2828 
Q 2878 2963 2633 3030 
Q 2388 3097 2138 3097 
Q 1578 3097 1268 2742 
Q 959 2388 959 1747 
Q 959 1106 1268 751 
Q 1578 397 2138 397 
Q 2388 397 2633 464 
Q 2878 531 3122 666 
L 3122 134 
Q 2881 22 2623 -34 
Q 2366 -91 2075 -91 
Q 1284 -91 818 406 
Q 353 903 353 1747 
Q 353 2603 823 3093 
Q 1294 3584 2113 3584 
Q 2378 3584 2631 3529 
Q 2884 3475 3122 3366 
z
" transform="scale(0.015625)"/>
       <path id="DejaVuSans-74" d="M 1172 4494 
L 1172 3500 
L 2356 3500 
L 2356 3053 
L 1172 3053 
L 1172 1153 
Q 1172 725 1289 603 
Q 1406 481 1766 481 
L 2356 481 
L 2356 0 
L 1766 0 
Q 1100 0 847 248 
Q 594 497 594 1153 
L 594 3053 
L 172 3053 
L 172 3500 
L 594 3500 
L 594 4494 
L 1172 4494 
z
" transform="scale(0.015625)"/>
       <path id="DejaVuSans-20" transform="scale(0.015625)"/>
       <path id="DejaVuSans-70" d="M 1159 525 
L 1159 -1331 
L 581 -1331 
L 581 3500 
L 1159 3500 
L 1159 2969 
Q 1341 3281 1617 3432 
Q 1894 3584 2278 3584 
Q 2916 3584 3314 3078 
Q 3713 2572 3713 1747 
Q 3713 922 3314 415 
Q 2916 -91 2278 -91 
Q 1894 -91 1617 61 
Q 1341 213 1159 525 
z
M 3116 1747 
Q 3116 2381 2855 2742 
Q 2594 3103 2138 3103 
Q 1681 3103 1420 2742 
Q 1159 2381 1159 1747 
Q 1159 1113 1420 752 
Q 1681 391 2138 391 
Q 2594 391 2855 752 
Q 3116 1113 3116 1747 
z
" transform="scale(0.015625)"/>
       <path id="DejaVuSans-6f" d="M 1959 3097 
Q 1497 3097 1228 2736 
Q 959 2375 959 1747 
Q 959 1119 1226 758 
Q 1494 397 1959 397 
Q 2419 397 2687 759 
Q 2956 1122 2956 1747 
Q 2956 2369 2687 2733 
Q 2419 3097 1959 3097 
z
M 1959 3584 
Q 2709 3584 3137 3096 
Q 3566 2609 3566 1747 
Q 3566 888 3137 398 
Q 2709 -91 1959 -91 
Q 1206 -91 779 398 
Q 353 888 353 1747 
Q 353 2609 779 3096 
Q 1206 3584 1959 3584 
z
" transform="scale(0.015625)"/>
       <path id="DejaVuSans-62" d="M 3116 1747 
Q 3116 2381 2855 2742 
Q 2594 3103 2138 3103 
Q 1681 3103 1420 2742 
Q 1159 2381 1159 1747 
Q 1159 1113 1420 752 
Q 1681 391 2138 391 
Q 2594 391 2855 752 
Q 3116 1113 3116 1747 
z
M 1159 2969 
Q 1341 3281 1617 3432 
Q 1894 3584 2278 3584 
Q 2916 3584 3314 3078 
Q 3713 2572 3713 1747 
Q 3713 922 3314 415 
Q 2916 -91 2278 -91 
Q 1894 -91 1617 61 
Q 1341 213 1159 525 
L 1159 0 
L 581 0 
L 581 4863 
L 1159 4863 
L 1159 2969 
z
" transform="scale(0.015625)"/>
       <path id="DejaVuSans-61" d="M 2194 1759 
Q 1497 1759 1228 1600 
Q 959 1441 959 1056 
Q 959 750 1161 570 
Q 1363 391 1709 391 
Q 2188 391 2477 730 
Q 2766 1069 2766 1631 
L 2766 1759 
L 2194 1759 
z
M 3341 1997 
L 3341 0 
L 2766 0 
L 2766 531 
Q 2569 213 2275 61 
Q 1981 -91 1556 -91 
Q 1019 -91 701 211 
Q 384 513 384 1019 
Q 384 1609 779 1909 
Q 1175 2209 1959 2209 
L 2766 2209 
L 2766 2266 
Q 2766 2663 2505 2880 
Q 2244 3097 1772 3097 
Q 1472 3097 1187 3025 
Q 903 2953 641 2809 
L 641 3341 
Q 956 3463 1253 3523 
Q 1550 3584 1831 3584 
Q 2591 3584 2966 3190 
Q 3341 2797 3341 1997 
z
" transform="scale(0.015625)"/>
       <path id="DejaVuSans-6c" d="M 603 4863 
L 1178 4863 
L 1178 0 
L 603 0 
L 603 4863 
z
" transform="scale(0.015625)"/>
       <path id="DejaVuSans-79" d="M 2059 -325 
Q 1816 -950 1584 -1140 
Q 1353 -1331 966 -1331 
L 506 -1331 
L 506 -850 
L 844 -850 
Q 1081 -850 1212 -737 
Q 1344 -625 1503 -206 
L 1606 56 
L 191 3500 
L 800 3500 
L 1894 763 
L 2988 3500 
L 3597 3500 
L 2059 -325 
z
" transform="scale(0.015625)"/>
      </defs>
      <use xlink:href="#DejaVuSans-50"/>
      <use xlink:href="#DejaVuSans-72" x="58.552734"/>
      <use xlink:href="#DejaVuSans-65" x="97.416016"/>
      <use xlink:href="#DejaVuSans-64" x="158.939453"/>
      <use xlink:href="#DejaVuSans-69" x="222.416016"/>
      <use xlink:href="#DejaVuSans-63" x="250.199219"/>
      <use xlink:href="#DejaVuSans-74" x="305.179688"/>
      <use xlink:href="#DejaVuSans-65" x="344.388672"/>
      <use xlink:href="#DejaVuSans-64" x="405.912109"/>
      <use xlink:href="#DejaVuSans-20" x="469.388672"/>
      <use xlink:href="#DejaVuSans-70" x="501.175781"/>
      <use xlink:href="#DejaVuSans-72" x="564.652344"/>
      <use xlink:href="#DejaVuSans-6f" x="603.515625"/>
      <use xlink:href="#DejaVuSans-62" x="664.697266"/>
      <use xlink:href="#DejaVuSans-61" x="728.173828"/>
      <use xlink:href="#DejaVuSans-62" x="789.453125"/>
      <use xlink:href="#DejaVuSans-69" x="852.929688"/>
      <use xlink:href="#DejaVuSans-6c" x="880.712891"/>
      <use xlink:href="#DejaVuSans-69" x="908.496094"/>
      <use xlink:href="#DejaVuSans-74" x="936.279297"/>
      <use xlink:href="#DejaVuSans-79" x="975.488281"/>
     </g>
    </g>
   </g>
   <g id="matplotlib.axis_2">
    <g id="ytick_1">
     <g id="line2d_13">
      <path d="M 57.6 307.584 
L 414.72 307.584 
" clip-path="url(#pa08db24928)" style="fill: none; stroke: #ffffff; stroke-width: 0.8; stroke-linecap: square"/>
     </g>
     <g id="line2d_14">
      <defs>
       <path id="m20a5183085" d="M 0 0 
L -3.5 0 
" style="stroke: #555555; stroke-width: 0.8"/>
      </defs>
      <g>
       <use xlink:href="#m20a5183085" x="57.6" y="307.584" style="fill: #555555; stroke: #555555; stroke-width: 0.8"/>
      </g>
     </g>
     <g id="text_8">
      <!-- 0.0 -->
      <g style="fill: #555555" transform="translate(34.696875 311.383219)scale(0.1 -0.1)">
       <use xlink:href="#DejaVuSans-30"/>
       <use xlink:href="#DejaVuSans-2e" x="63.623047"/>
       <use xlink:href="#DejaVuSans-30" x="95.410156"/>
      </g>
     </g>
    </g>
    <g id="ytick_2">
     <g id="line2d_15">
      <path d="M 57.6 254.3616 
L 414.72 254.3616 
" clip-path="url(#pa08db24928)" style="fill: none; stroke: #ffffff; stroke-width: 0.8; stroke-linecap: square"/>
     </g>
     <g id="line2d_16">
      <g>
       <use xlink:href="#m20a5183085" x="57.6" y="254.3616" style="fill: #555555; stroke: #555555; stroke-width: 0.8"/>
      </g>
     </g>
     <g id="text_9">
      <!-- 0.2 -->
      <g style="fill: #555555" transform="translate(34.696875 258.160819)scale(0.1 -0.1)">
       <use xlink:href="#DejaVuSans-30"/>
       <use xlink:href="#DejaVuSans-2e" x="63.623047"/>
       <use xlink:href="#DejaVuSans-32" x="95.410156"/>
      </g>
     </g>
    </g>
    <g id="ytick_3">
     <g id="line2d_17">
      <path d="M 57.6 201.1392 
L 414.72 201.1392 
" clip-path="url(#pa08db24928)" style="fill: none; stroke: #ffffff; stroke-width: 0.8; stroke-linecap: square"/>
     </g>
     <g id="line2d_18">
      <g>
       <use xlink:href="#m20a5183085" x="57.6" y="201.1392" style="fill: #555555; stroke: #555555; stroke-width: 0.8"/>
      </g>
     </g>
     <g id="text_10">
      <!-- 0.4 -->
      <g style="fill: #555555" transform="translate(34.696875 204.938419)scale(0.1 -0.1)">
       <use xlink:href="#DejaVuSans-30"/>
       <use xlink:href="#DejaVuSans-2e" x="63.623047"/>
       <use xlink:href="#DejaVuSans-34" x="95.410156"/>
      </g>
     </g>
    </g>
    <g id="ytick_4">
     <g id="line2d_19">
      <path d="M 57.6 147.9168 
L 414.72 147.9168 
" clip-path="url(#pa08db24928)" style="fill: none; stroke: #ffffff; stroke-width: 0.8; stroke-linecap: square"/>
     </g>
     <g id="line2d_20">
      <g>
       <use xlink:href="#m20a5183085" x="57.6" y="147.9168" style="fill: #555555; stroke: #555555; stroke-width: 0.8"/>
      </g>
     </g>
     <g id="text_11">
      <!-- 0.6 -->
      <g style="fill: #555555" transform="translate(34.696875 151.716019)scale(0.1 -0.1)">
       <use xlink:href="#DejaVuSans-30"/>
       <use xlink:href="#DejaVuSans-2e" x="63.623047"/>
       <use xlink:href="#DejaVuSans-36" x="95.410156"/>
      </g>
     </g>
    </g>
    <g id="ytick_5">
     <g id="line2d_21">
      <path d="M 57.6 94.6944 
L 414.72 94.6944 
" clip-path="url(#pa08db24928)" style="fill: none; stroke: #ffffff; stroke-width: 0.8; stroke-linecap: square"/>
     </g>
     <g id="line2d_22">
      <g>
       <use xlink:href="#m20a5183085" x="57.6" y="94.6944" style="fill: #555555; stroke: #555555; stroke-width: 0.8"/>
      </g>
     </g>
     <g id="text_12">
      <!-- 0.8 -->
      <g style="fill: #555555" transform="translate(34.696875 98.493619)scale(0.1 -0.1)">
       <use xlink:href="#DejaVuSans-30"/>
       <use xlink:href="#DejaVuSans-2e" x="63.623047"/>
       <use xlink:href="#DejaVuSans-38" x="95.410156"/>
      </g>
     </g>
    </g>
    <g id="ytick_6">
     <g id="line2d_23">
      <path d="M 57.6 41.472 
L 414.72 41.472 
" clip-path="url(#pa08db24928)" style="fill: none; stroke: #ffffff; stroke-width: 0.8; stroke-linecap: square"/>
     </g>
     <g id="line2d_24">
      <g>
       <use xlink:href="#m20a5183085" x="57.6" y="41.472" style="fill: #555555; stroke: #555555; stroke-width: 0.8"/>
      </g>
     </g>
     <g id="text_13">
      <!-- 1.0 -->
      <g style="fill: #555555" transform="translate(34.696875 45.271219)scale(0.1 -0.1)">
       <use xlink:href="#DejaVuSans-31"/>
       <use xlink:href="#DejaVuSans-2e" x="63.623047"/>
       <use xlink:href="#DejaVuSans-30" x="95.410156"/>
      </g>
     </g>
    </g>
    <g id="text_14">
     <!-- Observed probability -->
     <g style="fill: #555555" transform="translate(28.20125 237.31425)rotate(-90)scale(0.12 -0.12)">
      <defs>
       <path id="DejaVuSans-4f" d="M 2522 4238 
Q 1834 4238 1429 3725 
Q 1025 3213 1025 2328 
Q 1025 1447 1429 934 
Q 1834 422 2522 422 
Q 3209 422 3611 934 
Q 4013 1447 4013 2328 
Q 4013 3213 3611 3725 
Q 3209 4238 2522 4238 
z
M 2522 4750 
Q 3503 4750 4090 4092 
Q 4678 3434 4678 2328 
Q 4678 1225 4090 567 
Q 3503 -91 2522 -91 
Q 1538 -91 948 565 
Q 359 1222 359 2328 
Q 359 3434 948 4092 
Q 1538 4750 2522 4750 
z
" transform="scale(0.015625)"/>
       <path id="DejaVuSans-73" d="M 2834 3397 
L 2834 2853 
Q 2591 2978 2328 3040 
Q 2066 3103 1784 3103 
Q 1356 3103 1142 2972 
Q 928 2841 928 2578 
Q 928 2378 1081 2264 
Q 1234 2150 1697 2047 
L 1894 2003 
Q 2506 1872 2764 1633 
Q 3022 1394 3022 966 
Q 3022 478 2636 193 
Q 2250 -91 1575 -91 
Q 1294 -91 989 -36 
Q 684 19 347 128 
L 347 722 
Q 666 556 975 473 
Q 1284 391 1588 391 
Q 1994 391 2212 530 
Q 2431 669 2431 922 
Q 2431 1156 2273 1281 
Q 2116 1406 1581 1522 
L 1381 1569 
Q 847 1681 609 1914 
Q 372 2147 372 2553 
Q 372 3047 722 3315 
Q 1072 3584 1716 3584 
Q 2034 3584 2315 3537 
Q 2597 3491 2834 3397 
z
" transform="scale(0.015625)"/>
       <path id="DejaVuSans-76" d="M 191 3500 
L 800 3500 
L 1894 563 
L 2988 3500 
L 3597 3500 
L 2284 0 
L 1503 0 
L 191 3500 
z
" transform="scale(0.015625)"/>
      </defs>
      <use xlink:href="#DejaVuSans-4f"/>
      <use xlink:href="#DejaVuSans-62" x="78.710938"/>
      <use xlink:href="#DejaVuSans-73" x="142.1875"/>
      <use xlink:href="#DejaVuSans-65" x="194.287109"/>
      <use xlink:href="#DejaVuSans-72" x="255.810547"/>
      <use xlink:href="#DejaVuSans-76" x="296.923828"/>
      <use xlink:href="#DejaVuSans-65" x="356.103516"/>
      <use xlink:href="#DejaVuSans-64" x="417.626953"/>
      <use xlink:href="#DejaVuSans-20" x="481.103516"/>
      <use xlink:href="#DejaVuSans-70" x="512.890625"/>
      <use xlink:href="#DejaVuSans-72" x="576.367188"/>
      <use xlink:href="#DejaVuSans-6f" x="615.230469"/>
      <use xlink:href="#DejaVuSans-62" x="676.412109"/>
      <use xlink:href="#DejaVuSans-61" x="739.888672"/>
      <use xlink:href="#DejaVuSans-62" x="801.167969"/>
      <use xlink:href="#DejaVuSans-69" x="864.644531"/>
      <use xlink:href="#DejaVuSans-6c" x="892.427734"/>
      <use xlink:href="#DejaVuSans-69" x="920.210938"/>
      <use xlink:href="#DejaVuSans-74" x="947.994141"/>
      <use xlink:href="#DejaVuSans-79" x="987.203125"/>
     </g>
    </g>
   </g>
   <g id="line2d_25">
    <path d="M 103.821641 307.317888 
L 103.83379 307.051776 
L 104.791054 306.785664 
L 106.182707 306.519552 
L 106.972703 306.25344 
L 107.151827 305.987328 
L 107.782573 305.721216 
L 107.865821 305.188992 
L 108.512715 304.92288 
L 108.605299 304.656768 
L 108.884073 304.390656 
L 110.689242 303.858432 
L 111.572841 303.326208 
L 112.914947 303.060096 
L 112.926117 302.793984 
L 113.181805 302.527872 
L 113.39576 301.995648 
L 113.541239 301.729536 
L 114.577104 300.9312 
L 114.87498 300.132864 
L 117.003286 299.068416 
L 117.246432 298.802304 
L 117.427392 298.003968 
L 118.448304 297.205632 
L 119.547375 296.93952 
L 120.068931 296.673408 
L 120.345943 296.407296 
L 120.783628 296.141184 
L 122.630484 295.342848 
L 122.789979 295.076736 
L 124.10415 294.2784 
L 124.222661 293.746176 
L 124.444607 293.480064 
L 125.329838 293.213952 
L 125.340368 292.94784 
L 126.1134 292.681728 
L 126.323043 292.415616 
L 126.727227 292.149504 
L 126.800677 291.883392 
L 127.75392 291.61728 
L 128.214199 290.552832 
L 128.608236 290.28672 
L 128.692049 290.020608 
L 129.900859 289.754496 
L 132.116301 289.488384 
L 132.169391 289.222272 
L 134.175552 288.95616 
L 134.873471 288.690048 
L 134.927226 288.157824 
L 135.402617 287.891712 
L 137.228697 287.359488 
L 138.788817 286.827264 
L 141.026781 286.29504 
L 141.703492 285.230592 
L 142.16661 284.96448 
L 143.060532 283.900032 
L 143.114337 283.63392 
L 144.81553 283.101696 
L 145.081409 282.30336 
L 145.434744 282.037248 
L 145.761291 281.238912 
L 145.963604 280.706688 
L 146.633199 280.440576 
L 146.675257 280.174464 
L 147.14556 279.908352 
L 147.385507 279.376128 
L 147.399366 279.110016 
L 147.937432 278.843904 
L 148.163476 278.577792 
L 148.195251 278.31168 
L 149.373703 277.779456 
L 149.594508 277.513344 
L 150.297165 277.247232 
L 151.279197 276.448896 
L 151.95799 276.182784 
L 151.984765 275.916672 
L 153.03308 275.384448 
L 153.491996 274.852224 
L 153.850985 274.586112 
L 155.639585 274.32 
L 156.401029 274.053888 
L 156.870213 273.521664 
L 159.110049 272.98944 
L 160.165093 272.457216 
L 161.196755 271.392768 
L 161.752827 271.126656 
L 161.755717 270.860544 
L 162.083927 270.594432 
L 163.283809 270.32832 
L 163.626698 270.062208 
L 163.690998 269.796096 
L 164.374401 269.263872 
L 164.775199 268.731648 
L 165.092547 268.199424 
L 166.213676 267.401088 
L 166.250988 267.134976 
L 166.5726 266.868864 
L 168.348998 266.33664 
L 168.535732 266.070528 
L 168.571727 265.804416 
L 168.845618 265.538304 
L 170.102458 265.00608 
L 170.133457 264.739968 
L 170.731464 264.473856 
L 170.941692 264.207744 
L 170.9459 263.941632 
L 171.945419 263.67552 
L 171.963403 263.409408 
L 172.521162 263.143296 
L 172.88345 262.611072 
L 174.324175 262.34496 
L 174.667552 261.280512 
L 175.15276 261.0144 
L 175.443507 260.482176 
L 176.412901 259.949952 
L 176.666309 259.417728 
L 177.307357 259.151616 
L 177.696498 258.35328 
L 178.368196 258.087168 
L 178.587157 257.821056 
L 179.226404 257.554944 
L 179.448467 257.288832 
L 179.448468 257.02272 
L 180.038111 256.756608 
L 181.261847 256.490496 
L 181.563385 256.224384 
L 182.222415 255.958272 
L 183.246524 255.69216 
L 183.315101 255.426048 
L 184.000833 254.893824 
L 184.196369 254.627712 
L 184.235609 254.095488 
L 185.017955 253.829376 
L 185.106414 253.563264 
L 185.364876 253.297152 
L 185.367908 253.03104 
L 186.397427 252.764928 
L 186.822508 251.966592 
L 186.908342 251.70048 
L 187.285244 251.434368 
L 187.342538 251.168256 
L 187.595453 250.902144 
L 188.26762 250.636032 
L 188.383708 250.36992 
L 188.761574 250.103808 
L 189.336772 249.837696 
L 189.541102 249.571584 
L 191.088357 248.773248 
L 191.166529 248.507136 
L 191.439512 248.241024 
L 191.589207 247.442688 
L 191.725559 247.176576 
L 192.549028 246.644352 
L 193.563628 246.112128 
L 193.859583 245.579904 
L 193.982385 245.313792 
L 194.719105 245.04768 
L 195.370771 244.249344 
L 196.890115 243.71712 
L 197.024977 243.451008 
L 197.5108 243.184896 
L 198.83646 242.918784 
L 198.975293 242.652672 
L 199.842559 242.38656 
L 199.982826 242.120448 
L 200.432401 241.854336 
L 200.503477 241.588224 
L 200.737603 241.322112 
L 202.189403 240.523776 
L 203.525128 240.257664 
L 203.562034 239.991552 
L 203.866747 239.72544 
L 203.986399 239.459328 
L 204.834239 239.193216 
L 204.956722 238.927104 
L 205.644349 238.39488 
L 206.522228 238.128768 
L 206.747213 237.862656 
L 206.790444 237.596544 
L 207.293145 237.06432 
L 207.547822 236.798208 
L 208.203488 236.265984 
L 208.502637 235.467648 
L 208.75424 235.201536 
L 209.535689 234.669312 
L 209.633643 234.4032 
L 209.994457 234.137088 
L 210.555445 233.870976 
L 211.060697 232.806528 
L 211.222382 232.274304 
L 211.340724 232.008192 
L 211.938239 231.74208 
L 212.12845 231.475968 
L 212.919105 231.209856 
L 213.604642 230.677632 
L 214.154376 230.145408 
L 215.692593 229.879296 
L 215.84422 229.347072 
L 217.129777 229.08096 
L 217.323138 228.548736 
L 218.679707 228.282624 
L 218.698361 228.016512 
L 218.956363 227.7504 
L 218.982441 227.484288 
L 219.32648 226.952064 
L 219.585879 226.41984 
L 219.724693 226.153728 
L 220.486266 225.621504 
L 220.576038 225.355392 
L 221.082537 225.08928 
L 221.169314 224.823168 
L 221.998966 224.557056 
L 222.360141 223.492608 
L 222.628773 223.226496 
L 224.351783 222.960384 
L 224.688599 222.694272 
L 224.779506 222.42816 
L 225.972967 221.895936 
L 226.043172 221.629824 
L 226.271657 221.363712 
L 226.937415 221.0976 
L 227.024295 220.831488 
L 227.998438 220.565376 
L 228.15996 220.299264 
L 228.180339 220.033152 
L 229.136754 218.968704 
L 229.857 218.43648 
L 229.943214 218.170368 
L 230.240967 217.904256 
L 231.175585 217.638144 
L 231.4657 217.372032 
L 233.006138 216.573696 
L 233.276575 216.307584 
L 235.073935 215.509248 
L 235.219615 215.243136 
L 235.341068 214.710912 
L 235.632995 214.178688 
L 235.720992 213.380352 
L 235.831598 213.11424 
L 236.328145 212.848128 
L 236.647013 212.315904 
L 237.009891 211.78368 
L 237.600504 211.517568 
L 238.112916 210.985344 
L 240.198687 210.45312 
L 240.380722 210.187008 
L 241.231167 209.654784 
L 242.045598 209.388672 
L 242.217051 209.12256 
L 242.77765 208.856448 
L 242.787214 208.590336 
L 243.106348 208.324224 
L 243.232706 207.792 
L 243.637324 207.525888 
L 244.264484 207.259776 
L 244.304276 206.993664 
L 245.028125 206.46144 
L 245.054251 206.195328 
L 245.997686 205.663104 
L 246.797369 205.396992 
L 246.882069 204.864768 
L 247.220106 204.598656 
L 248.680238 204.332544 
L 248.993101 204.066432 
L 249.421432 203.001984 
L 249.735298 202.735872 
L 249.745539 202.46976 
L 249.926227 202.203648 
L 250.269615 201.937536 
L 250.595591 200.873088 
L 251.285284 200.606976 
L 252.039799 199.542528 
L 252.38333 199.276416 
L 253.343462 199.010304 
L 253.730548 198.744192 
L 254.863257 198.47808 
L 255.169242 198.211968 
L 255.288721 197.679744 
L 255.832796 197.14752 
L 256.254723 196.615296 
L 256.971275 196.349184 
L 257.17555 195.81696 
L 257.742166 195.550848 
L 257.763212 195.284736 
L 259.259096 194.220288 
L 260.300306 193.954176 
L 260.856903 193.421952 
L 261.637294 193.15584 
L 262.065748 192.889728 
L 262.067134 192.623616 
L 262.24596 192.357504 
L 262.264637 192.091392 
L 262.532433 191.82528 
L 264.84763 191.293056 
L 265.501529 191.026944 
L 265.687572 190.760832 
L 266.148636 190.49472 
L 266.31755 189.962496 
L 266.349535 189.696384 
L 267.023974 189.430272 
L 267.132745 189.16416 
L 267.691499 188.631936 
L 267.706629 188.365824 
L 268.113817 187.8336 
L 268.707659 187.301376 
L 270.109364 187.035264 
L 271.319139 186.236928 
L 271.320604 185.970816 
L 271.800363 185.438592 
L 272.070137 184.640256 
L 272.308472 184.374144 
L 272.813119 184.108032 
L 273.068132 183.575808 
L 273.980789 183.043584 
L 274.192836 182.51136 
L 274.517353 182.245248 
L 274.617203 181.979136 
L 275.552441 181.446912 
L 275.839208 180.382464 
L 277.631463 179.85024 
L 277.632617 179.584128 
L 278.405988 179.051904 
L 279.34458 178.51968 
L 279.618506 177.721344 
L 280.205532 177.455232 
L 280.382402 177.18912 
L 281.607741 176.923008 
L 281.800872 176.390784 
L 282.390029 175.592448 
L 283.432943 175.060224 
L 283.941819 174.794112 
L 284.128571 174.528 
L 284.501326 174.261888 
L 285.033992 173.19744 
L 285.05839 172.931328 
L 285.962593 172.665216 
L 286.030643 172.399104 
L 286.792548 171.600768 
L 287.377937 171.068544 
L 287.533925 170.802432 
L 288.549431 170.004096 
L 288.557377 169.737984 
L 288.859411 169.471872 
L 288.900908 169.20576 
L 290.418923 168.939648 
L 290.571144 168.673536 
L 291.254357 168.141312 
L 291.449902 167.609088 
L 291.836205 167.342976 
L 291.878667 167.076864 
L 292.942175 166.810752 
L 293.362689 166.54464 
L 293.534916 166.278528 
L 293.849464 166.012416 
L 294.896404 165.746304 
L 295.892469 164.681856 
L 297.225441 164.149632 
L 297.547156 163.88352 
L 297.807483 163.351296 
L 298.966233 162.55296 
L 299.681937 162.286848 
L 303.360939 161.754624 
L 303.945399 161.488512 
L 304.808568 161.2224 
L 304.834566 160.956288 
L 306.024783 160.690176 
L 306.198206 160.424064 
L 307.208373 160.157952 
L 307.365253 159.89184 
L 307.909795 159.625728 
L 307.994927 159.093504 
L 308.281316 158.827392 
L 308.379272 158.56128 
L 308.764716 158.295168 
L 308.829439 157.762944 
L 309.379043 157.496832 
L 309.390191 157.23072 
L 309.913254 156.698496 
L 310.301963 156.166272 
L 310.328912 155.90016 
L 311.631244 155.634048 
L 311.928338 155.367936 
L 311.932442 155.101824 
L 312.248451 154.835712 
L 312.749483 154.5696 
L 312.907791 154.303488 
L 314.414593 152.972928 
L 315.206106 152.706816 
L 315.956581 152.174592 
L 316.040786 151.90848 
L 316.473643 151.642368 
L 316.543359 151.110144 
L 317.953143 150.844032 
L 318.331832 150.311808 
L 319.823975 150.045696 
L 319.95014 149.24736 
L 320.413068 148.981248 
L 322.950938 148.715136 
L 323.014174 148.449024 
L 324.266555 147.650688 
L 324.834014 147.118464 
L 326.350502 146.320128 
L 326.580412 146.054016 
L 327.504511 145.521792 
L 327.737235 144.457344 
L 328.306818 144.191232 
L 328.366152 143.92512 
L 328.873995 143.659008 
L 330.357681 140.731776 
L 330.743312 140.465664 
L 331.50968 140.199552 
L 332.155331 139.667328 
L 332.322788 139.401216 
L 332.802856 139.135104 
L 333.018954 138.60288 
L 333.727748 138.336768 
L 334.054463 137.804544 
L 335.063369 137.27232 
L 335.337316 137.006208 
L 336.954031 136.740096 
L 337.785431 136.207872 
L 338.468164 135.94176 
L 338.953136 135.409536 
L 339.223675 135.143424 
L 339.303747 134.6112 
L 339.50939 134.345088 
L 340.09003 133.812864 
L 340.11074 133.546752 
L 341.466841 133.28064 
L 342.356164 132.748416 
L 342.982464 132.216192 
L 343.47957 131.95008 
L 343.705546 131.683968 
L 344.136525 131.417856 
L 345.681553 130.885632 
L 346.220154 130.61952 
L 346.385819 130.353408 
L 346.415756 130.087296 
L 346.709823 129.821184 
L 346.721763 129.555072 
L 346.982559 129.28896 
L 347.614767 129.022848 
L 347.995993 128.490624 
L 348.009945 128.224512 
L 348.671831 127.426176 
L 348.847815 126.361728 
L 349.189764 126.095616 
L 349.750466 125.829504 
L 350.671967 124.498944 
L 351.104997 124.232832 
L 351.386604 123.700608 
L 351.436584 123.434496 
L 352.176273 123.168384 
L 352.244798 122.902272 
L 352.599272 122.63616 
L 352.687341 122.103936 
L 353.456667 121.837824 
L 353.864489 121.571712 
L 354.201548 120.773376 
L 354.405116 120.241152 
L 354.77368 119.97504 
L 354.912706 119.176704 
L 355.289804 118.112256 
L 355.778562 117.846144 
L 355.823813 117.580032 
L 356.662579 116.249472 
L 356.687651 115.98336 
L 357.061361 115.717248 
L 357.293225 115.185024 
L 357.674462 114.386688 
L 357.740062 114.120576 
L 358.157568 113.854464 
L 358.286354 113.32224 
L 358.675655 113.056128 
L 358.741382 112.790016 
L 359.63265 112.523904 
L 359.906034 110.927232 
L 360.664752 110.395008 
L 360.850013 110.128896 
L 361.219385 109.862784 
L 361.512676 109.064448 
L 361.859936 108.798336 
L 362.325772 107.733888 
L 362.50212 107.201664 
L 362.99004 106.935552 
L 363.151981 106.66944 
L 363.466851 106.403328 
L 363.885771 105.604992 
L 364.160343 105.072768 
L 364.312502 104.274432 
L 364.519524 103.742208 
L 365.390502 102.943872 
L 365.421384 102.67776 
L 365.905311 102.145536 
L 366.014944 101.613312 
L 366.124976 100.548864 
L 366.488294 99.218304 
L 366.710586 98.952192 
L 366.734659 98.68608 
L 367.035988 98.153856 
L 367.432578 97.089408 
L 367.495561 96.291072 
L 368.141644 94.428288 
L 368.433412 91.767168 
L 368.666746 90.70272 
L 369.169274 84.04992 
L 369.216 41.472 
L 369.216 41.472 
" clip-path="url(#pa08db24928)" style="fill: none; stroke: #ff7f0e; stroke-width: 1.5; stroke-linecap: square"/>
   </g>
   <g id="line2d_26">
    <path d="M 103.104 307.584 
L 369.216 41.472 
" clip-path="url(#pa08db24928)" style="fill: none; stroke-dasharray: 5.55,2.4; stroke-dashoffset: 0; stroke: #000000; stroke-opacity: 0.5; stroke-width: 1.5"/>
   </g>
   <g id="patch_3">
    <path d="M 57.6 307.584 
L 57.6 41.472 
" style="fill: none; stroke: #ffffff; stroke-linejoin: miter; stroke-linecap: square"/>
   </g>
   <g id="patch_4">
    <path d="M 414.72 307.584 
L 414.72 41.472 
" style="fill: none; stroke: #ffffff; stroke-linejoin: miter; stroke-linecap: square"/>
   </g>
   <g id="patch_5">
    <path d="M 57.6 307.584 
L 414.72 307.584 
" style="fill: none; stroke: #ffffff; stroke-linejoin: miter; stroke-linecap: square"/>
   </g>
   <g id="patch_6">
    <path d="M 57.6 41.472 
L 414.72 41.472 
" style="fill: none; stroke: #ffffff; stroke-linejoin: miter; stroke-linecap: square"/>
   </g>
   <g id="text_15">
    <!-- Calibration curve -->
    <g transform="translate(174.5235 35.472)scale(0.144 -0.144)">
     <defs>
      <path id="DejaVuSans-43" d="M 4122 4306 
L 4122 3641 
Q 3803 3938 3442 4084 
Q 3081 4231 2675 4231 
Q 1875 4231 1450 3742 
Q 1025 3253 1025 2328 
Q 1025 1406 1450 917 
Q 1875 428 2675 428 
Q 3081 428 3442 575 
Q 3803 722 4122 1019 
L 4122 359 
Q 3791 134 3420 21 
Q 3050 -91 2638 -91 
Q 1578 -91 968 557 
Q 359 1206 359 2328 
Q 359 3453 968 4101 
Q 1578 4750 2638 4750 
Q 3056 4750 3426 4639 
Q 3797 4528 4122 4306 
z
" transform="scale(0.015625)"/>
      <path id="DejaVuSans-6e" d="M 3513 2113 
L 3513 0 
L 2938 0 
L 2938 2094 
Q 2938 2591 2744 2837 
Q 2550 3084 2163 3084 
Q 1697 3084 1428 2787 
Q 1159 2491 1159 1978 
L 1159 0 
L 581 0 
L 581 3500 
L 1159 3500 
L 1159 2956 
Q 1366 3272 1645 3428 
Q 1925 3584 2291 3584 
Q 2894 3584 3203 3211 
Q 3513 2838 3513 2113 
z
" transform="scale(0.015625)"/>
      <path id="DejaVuSans-75" d="M 544 1381 
L 544 3500 
L 1119 3500 
L 1119 1403 
Q 1119 906 1312 657 
Q 1506 409 1894 409 
Q 2359 409 2629 706 
Q 2900 1003 2900 1516 
L 2900 3500 
L 3475 3500 
L 3475 0 
L 2900 0 
L 2900 538 
Q 2691 219 2414 64 
Q 2138 -91 1772 -91 
Q 1169 -91 856 284 
Q 544 659 544 1381 
z
M 1991 3584 
L 1991 3584 
z
" transform="scale(0.015625)"/>
     </defs>
     <use xlink:href="#DejaVuSans-43"/>
     <use xlink:href="#DejaVuSans-61" x="69.824219"/>
     <use xlink:href="#DejaVuSans-6c" x="131.103516"/>
     <use xlink:href="#DejaVuSans-69" x="158.886719"/>
     <use xlink:href="#DejaVuSans-62" x="186.669922"/>
     <use xlink:href="#DejaVuSans-72" x="250.146484"/>
     <use xlink:href="#DejaVuSans-61" x="291.259766"/>
     <use xlink:href="#DejaVuSans-74" x="352.539062"/>
     <use xlink:href="#DejaVuSans-69" x="391.748047"/>
     <use xlink:href="#DejaVuSans-6f" x="419.53125"/>
     <use xlink:href="#DejaVuSans-6e" x="480.712891"/>
     <use xlink:href="#DejaVuSans-20" x="544.091797"/>
     <use xlink:href="#DejaVuSans-63" x="575.878906"/>
     <use xlink:href="#DejaVuSans-75" x="630.859375"/>
     <use xlink:href="#DejaVuSans-72" x="694.238281"/>
     <use xlink:href="#DejaVuSans-76" x="735.351562"/>
     <use xlink:href="#DejaVuSans-65" x="794.53125"/>
    </g>
   </g>
   <g id="legend_1">
    <g id="patch_7">
     <path d="M 64.6 78.82825 
L 182.20625 78.82825 
Q 184.20625 78.82825 184.20625 76.82825 
L 184.20625 48.472 
Q 184.20625 46.472 182.20625 46.472 
L 64.6 46.472 
Q 62.6 46.472 62.6 48.472 
L 62.6 76.82825 
Q 62.6 78.82825 64.6 78.82825 
z
" style="fill: #e5e5e5; opacity: 0.8; stroke: #cccccc; stroke-width: 0.5; stroke-linejoin: miter"/>
    </g>
    <g id="line2d_27">
     <path d="M 66.6 54.570437 
L 76.6 54.570437 
L 86.6 54.570437 
" style="fill: none; stroke: #ff7f0e; stroke-width: 1.5; stroke-linecap: square"/>
    </g>
    <g id="text_16">
     <!-- Calibration curve -->
     <g transform="translate(94.6 58.070437)scale(0.1 -0.1)">
      <use xlink:href="#DejaVuSans-43"/>
      <use xlink:href="#DejaVuSans-61" x="69.824219"/>
      <use xlink:href="#DejaVuSans-6c" x="131.103516"/>
      <use xlink:href="#DejaVuSans-69" x="158.886719"/>
      <use xlink:href="#DejaVuSans-62" x="186.669922"/>
      <use xlink:href="#DejaVuSans-72" x="250.146484"/>
      <use xlink:href="#DejaVuSans-61" x="291.259766"/>
      <use xlink:href="#DejaVuSans-74" x="352.539062"/>
      <use xlink:href="#DejaVuSans-69" x="391.748047"/>
      <use xlink:href="#DejaVuSans-6f" x="419.53125"/>
      <use xlink:href="#DejaVuSans-6e" x="480.712891"/>
      <use xlink:href="#DejaVuSans-20" x="544.091797"/>
      <use xlink:href="#DejaVuSans-63" x="575.878906"/>
      <use xlink:href="#DejaVuSans-75" x="630.859375"/>
      <use xlink:href="#DejaVuSans-72" x="694.238281"/>
      <use xlink:href="#DejaVuSans-76" x="735.351562"/>
      <use xlink:href="#DejaVuSans-65" x="794.53125"/>
     </g>
    </g>
    <g id="line2d_28">
     <path d="M 66.6 69.248562 
L 76.6 69.248562 
L 86.6 69.248562 
" style="fill: none; stroke-dasharray: 5.55,2.4; stroke-dashoffset: 0; stroke: #000000; stroke-opacity: 0.5; stroke-width: 1.5"/>
    </g>
    <g id="text_17">
     <!-- Ideal curve -->
     <g transform="translate(94.6 72.748562)scale(0.1 -0.1)">
      <defs>
       <path id="DejaVuSans-49" d="M 628 4666 
L 1259 4666 
L 1259 0 
L 628 0 
L 628 4666 
z
" transform="scale(0.015625)"/>
      </defs>
      <use xlink:href="#DejaVuSans-49"/>
      <use xlink:href="#DejaVuSans-64" x="29.492188"/>
      <use xlink:href="#DejaVuSans-65" x="92.96875"/>
      <use xlink:href="#DejaVuSans-61" x="154.492188"/>
      <use xlink:href="#DejaVuSans-6c" x="215.771484"/>
      <use xlink:href="#DejaVuSans-20" x="243.554688"/>
      <use xlink:href="#DejaVuSans-63" x="275.341797"/>
      <use xlink:href="#DejaVuSans-75" x="330.322266"/>
      <use xlink:href="#DejaVuSans-72" x="393.701172"/>
      <use xlink:href="#DejaVuSans-76" x="434.814453"/>
      <use xlink:href="#DejaVuSans-65" x="493.994141"/>
     </g>
    </g>
   </g>
  </g>
 </g>
 <defs>
  <clipPath id="pa08db24928">
   <rect x="57.6" y="41.472" width="357.12" height="266.112"/>
  </clipPath>
 </defs>
</svg>
