<?xml version="1.0" encoding="utf-8" standalone="no"?>
<!DOCTYPE svg PUBLIC "-//W3C//DTD SVG 1.1//EN"
  "http://www.w3.org/Graphics/SVG/1.1/DTD/svg11.dtd">
<svg xmlns:xlink="http://www.w3.org/1999/xlink" width="360pt" height="360pt" viewBox="0 0 360 360" xmlns="http://www.w3.org/2000/svg" version="1.1">
 <metadata>
  <rdf:RDF xmlns:dc="http://purl.org/dc/elements/1.1/" xmlns:cc="http://creativecommons.org/ns#" xmlns:rdf="http://www.w3.org/1999/02/22-rdf-syntax-ns#">
   <cc:Work>
    <dc:type rdf:resource="http://purl.org/dc/dcmitype/StillImage"/>
    <dc:date>2022-12-22T09:49:10.195420</dc:date>
    <dc:format>image/svg+xml</dc:format>
    <dc:creator>
     <cc:Agent>
      <dc:title>Matplotlib v3.5.3, https://matplotlib.org/</dc:title>
     </cc:Agent>
    </dc:creator>
   </cc:Work>
  </rdf:RDF>
 </metadata>
 <defs>
  <style type="text/css">*{stroke-linejoin: round; stroke-linecap: butt}</style>
 </defs>
 <g id="figure_1">
  <g id="patch_1">
   <path d="M 0 360 
L 360 360 
L 360 0 
L 0 0 
z
" style="fill: #ffffff"/>
  </g>
  <g id="axes_1">
   <g id="patch_2">
    <path d="M 45 320.4 
L 324 320.4 
L 324 43.2 
L 45 43.2 
z
" style="fill: #ffffff"/>
   </g>
   <g id="matplotlib.axis_1">
    <g id="xtick_1">
     <g id="line2d_1">
      <defs>
       <path id="m18a142f605" d="M 0 0 
L 0 3.5 
" style="stroke: #000000; stroke-width: 0.8"/>
      </defs>
      <g>
       <use xlink:href="#m18a142f605" x="57.681818" y="320.4" style="stroke: #000000; stroke-width: 0.8"/>
      </g>
     </g>
     <g id="text_1">
      <!-- −0.5 -->
      <g transform="translate(45.540412 334.998438)scale(0.1 -0.1)">
       <defs>
        <path id="DejaVuSans-2212" d="M 678 2272 
L 4684 2272 
L 4684 1741 
L 678 1741 
L 678 2272 
z
" transform="scale(0.015625)"/>
        <path id="DejaVuSans-30" d="M 2034 4250 
Q 1547 4250 1301 3770 
Q 1056 3291 1056 2328 
Q 1056 1369 1301 889 
Q 1547 409 2034 409 
Q 2525 409 2770 889 
Q 3016 1369 3016 2328 
Q 3016 3291 2770 3770 
Q 2525 4250 2034 4250 
z
M 2034 4750 
Q 2819 4750 3233 4129 
Q 3647 3509 3647 2328 
Q 3647 1150 3233 529 
Q 2819 -91 2034 -91 
Q 1250 -91 836 529 
Q 422 1150 422 2328 
Q 422 3509 836 4129 
Q 1250 4750 2034 4750 
z
" transform="scale(0.015625)"/>
        <path id="DejaVuSans-2e" d="M 684 794 
L 1344 794 
L 1344 0 
L 684 0 
L 684 794 
z
" transform="scale(0.015625)"/>
        <path id="DejaVuSans-35" d="M 691 4666 
L 3169 4666 
L 3169 4134 
L 1269 4134 
L 1269 2991 
Q 1406 3038 1543 3061 
Q 1681 3084 1819 3084 
Q 2600 3084 3056 2656 
Q 3513 2228 3513 1497 
Q 3513 744 3044 326 
Q 2575 -91 1722 -91 
Q 1428 -91 1123 -41 
Q 819 9 494 109 
L 494 744 
Q 775 591 1075 516 
Q 1375 441 1709 441 
Q 2250 441 2565 725 
Q 2881 1009 2881 1497 
Q 2881 1984 2565 2268 
Q 2250 2553 1709 2553 
Q 1456 2553 1204 2497 
Q 953 2441 691 2322 
L 691 4666 
z
" transform="scale(0.015625)"/>
       </defs>
       <use xlink:href="#DejaVuSans-2212"/>
       <use xlink:href="#DejaVuSans-30" x="83.789062"/>
       <use xlink:href="#DejaVuSans-2e" x="147.412109"/>
       <use xlink:href="#DejaVuSans-35" x="179.199219"/>
      </g>
     </g>
    </g>
    <g id="xtick_2">
     <g id="line2d_2">
      <g>
       <use xlink:href="#m18a142f605" x="99.954545" y="320.4" style="stroke: #000000; stroke-width: 0.8"/>
      </g>
     </g>
     <g id="text_2">
      <!-- 0.0 -->
      <g transform="translate(92.002983 334.998438)scale(0.1 -0.1)">
       <use xlink:href="#DejaVuSans-30"/>
       <use xlink:href="#DejaVuSans-2e" x="63.623047"/>
       <use xlink:href="#DejaVuSans-30" x="95.410156"/>
      </g>
     </g>
    </g>
    <g id="xtick_3">
     <g id="line2d_3">
      <g>
       <use xlink:href="#m18a142f605" x="142.227273" y="320.4" style="stroke: #000000; stroke-width: 0.8"/>
      </g>
     </g>
     <g id="text_3">
      <!-- 0.5 -->
      <g transform="translate(134.27571 334.998438)scale(0.1 -0.1)">
       <use xlink:href="#DejaVuSans-30"/>
       <use xlink:href="#DejaVuSans-2e" x="63.623047"/>
       <use xlink:href="#DejaVuSans-35" x="95.410156"/>
      </g>
     </g>
    </g>
    <g id="xtick_4">
     <g id="line2d_4">
      <g>
       <use xlink:href="#m18a142f605" x="184.5" y="320.4" style="stroke: #000000; stroke-width: 0.8"/>
      </g>
     </g>
     <g id="text_4">
      <!-- 1.0 -->
      <g transform="translate(176.548438 334.998438)scale(0.1 -0.1)">
       <defs>
        <path id="DejaVuSans-31" d="M 794 531 
L 1825 531 
L 1825 4091 
L 703 3866 
L 703 4441 
L 1819 4666 
L 2450 4666 
L 2450 531 
L 3481 531 
L 3481 0 
L 794 0 
L 794 531 
z
" transform="scale(0.015625)"/>
       </defs>
       <use xlink:href="#DejaVuSans-31"/>
       <use xlink:href="#DejaVuSans-2e" x="63.623047"/>
       <use xlink:href="#DejaVuSans-30" x="95.410156"/>
      </g>
     </g>
    </g>
    <g id="xtick_5">
     <g id="line2d_5">
      <g>
       <use xlink:href="#m18a142f605" x="226.772727" y="320.4" style="stroke: #000000; stroke-width: 0.8"/>
      </g>
     </g>
     <g id="text_5">
      <!-- 1.5 -->
      <g transform="translate(218.821165 334.998438)scale(0.1 -0.1)">
       <use xlink:href="#DejaVuSans-31"/>
       <use xlink:href="#DejaVuSans-2e" x="63.623047"/>
       <use xlink:href="#DejaVuSans-35" x="95.410156"/>
      </g>
     </g>
    </g>
    <g id="xtick_6">
     <g id="line2d_6">
      <g>
       <use xlink:href="#m18a142f605" x="269.045455" y="320.4" style="stroke: #000000; stroke-width: 0.8"/>
      </g>
     </g>
     <g id="text_6">
      <!-- 2.0 -->
      <g transform="translate(261.093892 334.998438)scale(0.1 -0.1)">
       <defs>
        <path id="DejaVuSans-32" d="M 1228 531 
L 3431 531 
L 3431 0 
L 469 0 
L 469 531 
Q 828 903 1448 1529 
Q 2069 2156 2228 2338 
Q 2531 2678 2651 2914 
Q 2772 3150 2772 3378 
Q 2772 3750 2511 3984 
Q 2250 4219 1831 4219 
Q 1534 4219 1204 4116 
Q 875 4013 500 3803 
L 500 4441 
Q 881 4594 1212 4672 
Q 1544 4750 1819 4750 
Q 2544 4750 2975 4387 
Q 3406 4025 3406 3419 
Q 3406 3131 3298 2873 
Q 3191 2616 2906 2266 
Q 2828 2175 2409 1742 
Q 1991 1309 1228 531 
z
" transform="scale(0.015625)"/>
       </defs>
       <use xlink:href="#DejaVuSans-32"/>
       <use xlink:href="#DejaVuSans-2e" x="63.623047"/>
       <use xlink:href="#DejaVuSans-30" x="95.410156"/>
      </g>
     </g>
    </g>
    <g id="xtick_7">
     <g id="line2d_7">
      <g>
       <use xlink:href="#m18a142f605" x="311.318182" y="320.4" style="stroke: #000000; stroke-width: 0.8"/>
      </g>
     </g>
     <g id="text_7">
      <!-- 2.5 -->
      <g transform="translate(303.366619 334.998438)scale(0.1 -0.1)">
       <use xlink:href="#DejaVuSans-32"/>
       <use xlink:href="#DejaVuSans-2e" x="63.623047"/>
       <use xlink:href="#DejaVuSans-35" x="95.410156"/>
      </g>
     </g>
    </g>
   </g>
   <g id="matplotlib.axis_2">
    <g id="ytick_1">
     <g id="line2d_8">
      <defs>
       <path id="mae51e44177" d="M 0 0 
L -3.5 0 
" style="stroke: #000000; stroke-width: 0.8"/>
      </defs>
      <g>
       <use xlink:href="#mae51e44177" x="45" y="320.302802" style="stroke: #000000; stroke-width: 0.8"/>
      </g>
     </g>
     <g id="text_8">
      <!-- −0.20 -->
      <g transform="translate(7.354687 324.10202)scale(0.1 -0.1)">
       <use xlink:href="#DejaVuSans-2212"/>
       <use xlink:href="#DejaVuSans-30" x="83.789062"/>
       <use xlink:href="#DejaVuSans-2e" x="147.412109"/>
       <use xlink:href="#DejaVuSans-32" x="179.199219"/>
       <use xlink:href="#DejaVuSans-30" x="242.822266"/>
      </g>
     </g>
    </g>
    <g id="ytick_2">
     <g id="line2d_9">
      <g>
       <use xlink:href="#mae51e44177" x="45" y="281.853324" style="stroke: #000000; stroke-width: 0.8"/>
      </g>
     </g>
     <g id="text_9">
      <!-- −0.15 -->
      <g transform="translate(7.354687 285.652543)scale(0.1 -0.1)">
       <use xlink:href="#DejaVuSans-2212"/>
       <use xlink:href="#DejaVuSans-30" x="83.789062"/>
       <use xlink:href="#DejaVuSans-2e" x="147.412109"/>
       <use xlink:href="#DejaVuSans-31" x="179.199219"/>
       <use xlink:href="#DejaVuSans-35" x="242.822266"/>
      </g>
     </g>
    </g>
    <g id="ytick_3">
     <g id="line2d_10">
      <g>
       <use xlink:href="#mae51e44177" x="45" y="243.403846" style="stroke: #000000; stroke-width: 0.8"/>
      </g>
     </g>
     <g id="text_10">
      <!-- −0.10 -->
      <g transform="translate(7.354687 247.203065)scale(0.1 -0.1)">
       <use xlink:href="#DejaVuSans-2212"/>
       <use xlink:href="#DejaVuSans-30" x="83.789062"/>
       <use xlink:href="#DejaVuSans-2e" x="147.412109"/>
       <use xlink:href="#DejaVuSans-31" x="179.199219"/>
       <use xlink:href="#DejaVuSans-30" x="242.822266"/>
      </g>
     </g>
    </g>
    <g id="ytick_4">
     <g id="line2d_11">
      <g>
       <use xlink:href="#mae51e44177" x="45" y="204.954368" style="stroke: #000000; stroke-width: 0.8"/>
      </g>
     </g>
     <g id="text_11">
      <!-- −0.05 -->
      <g transform="translate(7.354687 208.753587)scale(0.1 -0.1)">
       <use xlink:href="#DejaVuSans-2212"/>
       <use xlink:href="#DejaVuSans-30" x="83.789062"/>
       <use xlink:href="#DejaVuSans-2e" x="147.412109"/>
       <use xlink:href="#DejaVuSans-30" x="179.199219"/>
       <use xlink:href="#DejaVuSans-35" x="242.822266"/>
      </g>
     </g>
    </g>
    <g id="ytick_5">
     <g id="line2d_12">
      <g>
       <use xlink:href="#mae51e44177" x="45" y="166.504891" style="stroke: #000000; stroke-width: 0.8"/>
      </g>
     </g>
     <g id="text_12">
      <!-- 0.00 -->
      <g transform="translate(15.734375 170.304109)scale(0.1 -0.1)">
       <use xlink:href="#DejaVuSans-30"/>
       <use xlink:href="#DejaVuSans-2e" x="63.623047"/>
       <use xlink:href="#DejaVuSans-30" x="95.410156"/>
       <use xlink:href="#DejaVuSans-30" x="159.033203"/>
      </g>
     </g>
    </g>
    <g id="ytick_6">
     <g id="line2d_13">
      <g>
       <use xlink:href="#mae51e44177" x="45" y="128.055413" style="stroke: #000000; stroke-width: 0.8"/>
      </g>
     </g>
     <g id="text_13">
      <!-- 0.05 -->
      <g transform="translate(15.734375 131.854632)scale(0.1 -0.1)">
       <use xlink:href="#DejaVuSans-30"/>
       <use xlink:href="#DejaVuSans-2e" x="63.623047"/>
       <use xlink:href="#DejaVuSans-30" x="95.410156"/>
       <use xlink:href="#DejaVuSans-35" x="159.033203"/>
      </g>
     </g>
    </g>
    <g id="ytick_7">
     <g id="line2d_14">
      <g>
       <use xlink:href="#mae51e44177" x="45" y="89.605935" style="stroke: #000000; stroke-width: 0.8"/>
      </g>
     </g>
     <g id="text_14">
      <!-- 0.10 -->
      <g transform="translate(15.734375 93.405154)scale(0.1 -0.1)">
       <use xlink:href="#DejaVuSans-30"/>
       <use xlink:href="#DejaVuSans-2e" x="63.623047"/>
       <use xlink:href="#DejaVuSans-31" x="95.410156"/>
       <use xlink:href="#DejaVuSans-30" x="159.033203"/>
      </g>
     </g>
    </g>
    <g id="ytick_8">
     <g id="line2d_15">
      <g>
       <use xlink:href="#mae51e44177" x="45" y="51.156457" style="stroke: #000000; stroke-width: 0.8"/>
      </g>
     </g>
     <g id="text_15">
      <!-- 0.15 -->
      <g transform="translate(15.734375 54.955676)scale(0.1 -0.1)">
       <use xlink:href="#DejaVuSans-30"/>
       <use xlink:href="#DejaVuSans-2e" x="63.623047"/>
       <use xlink:href="#DejaVuSans-31" x="95.410156"/>
       <use xlink:href="#DejaVuSans-35" x="159.033203"/>
      </g>
     </g>
    </g>
   </g>
   <g id="line2d_16">
    <path d="M 57.681818 125.582211 
L 63.013513 128.850739 
L 68.091317 131.707977 
L 73.169125 134.309866 
L 77.993039 136.538784 
L 82.816953 138.523024 
L 87.386979 140.168531 
L 91.957003 141.574622 
L 96.273139 142.671252 
L 100.589271 143.530747 
L 104.651517 144.112407 
L 108.713759 144.466421 
L 112.776006 144.592853 
L 116.838247 144.502548 
L 121.408274 144.178144 
L 128.009417 143.449783 
L 135.11835 142.712806 
L 139.180591 142.522351 
L 142.735053 142.580392 
L 146.035624 142.849061 
L 149.590096 143.365281 
L 153.652337 144.192728 
L 160.50737 145.875408 
L 166.346853 147.207824 
L 170.409094 147.906015 
L 174.217446 148.330771 
L 178.025797 148.52372 
L 182.088049 148.497979 
L 186.911951 148.232867 
L 205.953729 146.917191 
L 211.793201 146.887049 
L 220.933245 147.094152 
L 229.819409 147.230393 
L 236.674441 147.104749 
L 243.783374 146.731979 
L 253.431208 145.980335 
L 263.332922 145.253038 
L 270.187965 144.964889 
L 276.535208 144.923344 
L 282.88249 145.104288 
L 290.245293 145.549615 
L 299.639237 146.354718 
L 311.318182 147.46771 
L 311.318182 147.46771 
" clip-path="url(#p22cc5cbef1)" style="fill: none; stroke: #1f77b4; stroke-width: 1.5; stroke-linecap: square"/>
   </g>
   <g id="line2d_17">
    <path d="M 57.681818 117.3874 
L 64.536856 121.775493 
L 70.376331 125.264233 
L 75.961916 128.354003 
L 81.801394 131.328158 
L 88.148651 134.308739 
L 97.2887 138.328499 
L 106.682638 142.523671 
L 112.268222 145.264973 
L 117.092137 147.872262 
L 121.916054 150.726823 
L 127.755527 154.455832 
L 136.895581 160.323187 
L 140.450042 162.33392 
L 143.496723 163.817065 
L 146.289514 164.933939 
L 148.828425 165.7226 
L 151.367326 166.284271 
L 153.906228 166.618956 
L 156.445129 166.736258 
L 159.23792 166.636255 
L 162.284601 166.290693 
L 165.585182 165.69245 
L 169.647424 164.726763 
L 175.486896 163.089149 
L 209.2543 153.052161 
L 214.078212 151.245019 
L 218.648234 149.298429 
L 223.218266 147.098479 
L 227.788288 144.640311 
L 232.6122 141.785373 
L 238.197782 138.211445 
L 256.223999 126.409466 
L 260.286241 124.140882 
L 263.840702 122.397956 
L 267.141274 121.015158 
L 270.187965 119.958314 
L 273.234646 119.122855 
L 276.281328 118.511503 
L 279.328009 118.119675 
L 282.62859 117.932488 
L 285.929172 117.973653 
L 289.229733 118.217634 
L 293.038094 118.715929 
L 297.354216 119.505571 
L 302.685918 120.717357 
L 310.048721 122.620661 
L 311.318182 122.960007 
L 311.318182 122.960007 
" clip-path="url(#p22cc5cbef1)" style="fill: none; stroke: #ff7f0e; stroke-width: 1.5; stroke-linecap: square"/>
   </g>
   <g id="line2d_18">
    <path d="M 57.681818 55.8 
L 61.744062 66.264265 
L 65.552416 75.461238 
L 69.106878 83.494846 
L 72.661344 90.992152 
L 76.215806 97.953854 
L 79.516381 103.944442 
L 82.816953 109.48743 
L 86.117527 114.594167 
L 89.418102 119.277045 
L 92.718672 123.550174 
L 95.765357 127.143317 
L 98.81204 130.410607 
L 101.858722 133.362789 
L 104.905408 136.010779 
L 107.95209 138.36415 
L 110.99877 140.433808 
L 114.045457 142.230233 
L 117.092137 143.764956 
L 120.138825 145.052499 
L 123.185505 146.11003 
L 126.486076 147.021045 
L 130.040543 147.767363 
L 134.102784 148.385499 
L 139.434482 148.954384 
L 156.699019 150.636803 
L 166.600743 151.659939 
L 171.932435 151.975543 
L 177.010237 152.04414 
L 182.341939 151.888493 
L 199.860356 151.162094 
L 203.922598 151.343052 
L 207.73096 151.732121 
L 211.539311 152.348551 
L 215.347663 153.19139 
L 219.409904 154.323468 
L 223.726046 155.758445 
L 228.803848 157.696345 
L 234.897211 160.276948 
L 245.560605 165.091182 
L 253.938988 168.764262 
L 259.778461 171.081504 
L 264.602373 172.769382 
L 269.172405 174.139648 
L 273.488526 175.211709 
L 277.804668 176.061891 
L 282.12081 176.695455 
L 286.944732 177.166014 
L 291.768634 177.416523 
L 297.608116 177.480394 
L 304.717039 177.301636 
L 311.318182 176.980816 
L 311.318182 176.980816 
" clip-path="url(#p22cc5cbef1)" style="fill: none; stroke: #2ca02c; stroke-width: 1.5; stroke-linecap: square"/>
   </g>
   <g id="line2d_19">
    <path d="M 57.681818 226.123516 
L 61.49017 218.341618 
L 65.298526 211.072232 
L 68.852988 204.75481 
L 72.407454 198.887886 
L 75.961916 193.465408 
L 79.262491 188.820179 
L 82.563063 184.540606 
L 85.863636 180.61621 
L 89.164211 177.03636 
L 92.464782 173.790832 
L 95.765357 170.871249 
L 98.81204 168.459906 
L 101.858722 166.317763 
L 104.905408 164.444188 
L 107.95209 162.840868 
L 110.74488 161.612205 
L 113.537676 160.618678 
L 116.330468 159.865622 
L 119.123263 159.358215 
L 121.662164 159.113079 
L 124.201065 159.074559 
L 126.993856 159.267727 
L 129.786653 159.69825 
L 132.579444 160.348919 
L 135.62613 161.278423 
L 139.434482 162.693072 
L 145.020064 165.046336 
L 151.367326 167.670149 
L 155.429568 169.100519 
L 158.98403 170.115864 
L 162.538491 170.891508 
L 166.092963 171.437902 
L 169.901314 171.803769 
L 174.471336 172.017985 
L 181.326379 172.091505 
L 191.735873 172.221549 
L 197.829235 172.531322 
L 203.668708 173.059694 
L 209.00041 173.762001 
L 214.078212 174.642315 
L 219.156014 175.746855 
L 223.979936 177.016165 
L 228.803848 178.50486 
L 234.13554 180.391645 
L 240.228903 182.798239 
L 258.50901 190.206441 
L 262.825142 191.610726 
L 266.887384 192.696419 
L 270.695745 193.476079 
L 274.250207 193.983109 
L 277.804668 194.274934 
L 281.61303 194.357369 
L 285.421391 194.219161 
L 289.483633 193.860756 
L 294.053655 193.242309 
L 299.893117 192.211115 
L 308.525381 190.420181 
L 311.318182 189.818473 
L 311.318182 189.818473 
" clip-path="url(#p22cc5cbef1)" style="fill: none; stroke: #d62728; stroke-width: 1.5; stroke-linecap: square"/>
   </g>
   <g id="line2d_20">
    <path d="M 57.681818 91.892312 
L 61.744062 98.97182 
L 65.806307 105.593332 
L 69.614658 111.390927 
L 73.423015 116.80079 
L 77.231366 121.833622 
L 81.039723 126.503144 
L 84.848074 130.82286 
L 88.656431 134.807666 
L 92.464782 138.471028 
L 96.273139 141.825773 
L 100.081492 144.88211 
L 103.889848 147.647192 
L 107.444309 149.967625 
L 110.99877 152.034918 
L 114.553236 153.843013 
L 117.853809 155.280263 
L 121.154384 156.473659 
L 124.201065 157.347575 
L 127.247747 157.992845 
L 130.294433 158.401833 
L 133.341114 158.571103 
L 136.3878 158.504514 
L 139.434482 158.214546 
L 142.735053 157.673652 
L 146.543404 156.808097 
L 151.367326 155.456678 
L 167.616303 150.690623 
L 173.455775 149.328048 
L 179.549148 148.138061 
L 186.150281 147.080805 
L 192.243653 146.318288 
L 197.829235 145.840115 
L 202.653147 145.64361 
L 207.223179 145.681818 
L 211.539311 145.945903 
L 215.601553 146.412287 
L 219.917684 147.148476 
L 223.979936 148.069675 
L 228.296068 149.28554 
L 232.6122 150.735 
L 237.436112 152.610528 
L 242.260024 154.722859 
L 247.845616 157.40595 
L 255.970109 161.590406 
L 268.156834 167.848811 
L 273.996307 170.567149 
L 279.074109 172.683193 
L 283.898051 174.445599 
L 288.468073 175.881786 
L 293.291974 177.151984 
L 298.115896 178.185791 
L 303.193699 179.042903 
L 308.525381 179.724044 
L 311.318182 180.003841 
L 311.318182 180.003841 
" clip-path="url(#p22cc5cbef1)" style="fill: none; stroke: #9467bd; stroke-width: 1.5; stroke-linecap: square"/>
   </g>
   <g id="line2d_21">
    <path d="M 57.681818 307.8 
L 62.251843 296.126387 
L 66.314087 286.336461 
L 70.122441 277.704216 
L 73.930795 269.626469 
L 77.485256 262.599645 
L 81.039723 256.069317 
L 84.340294 250.445219 
L 87.640869 245.234794 
L 90.941442 240.423833 
L 94.242016 235.994452 
L 97.54259 231.925116 
L 100.843161 228.191387 
L 104.397627 224.514943 
L 107.95209 221.159474 
L 111.760442 217.875014 
L 115.822688 214.669418 
L 120.392715 211.35214 
L 125.978296 207.595135 
L 132.833334 203.272981 
L 139.434482 199.359701 
L 144.512284 196.586676 
L 148.828425 194.474244 
L 152.636777 192.848739 
L 156.191238 191.55775 
L 159.7457 190.490107 
L 163.554051 189.579047 
L 167.616303 188.837092 
L 172.440215 188.194004 
L 178.533578 187.621676 
L 188.435292 186.949033 
L 206.715399 185.963646 
L 218.902124 185.234864 
L 225.503277 184.607268 
L 231.088859 183.858667 
L 236.674441 182.877956 
L 242.260024 181.667444 
L 248.861176 179.991007 
L 260.794021 176.654395 
L 267.902944 174.779262 
L 273.742426 173.452952 
L 278.820229 172.509056 
L 283.898051 171.780824 
L 289.229733 171.247483 
L 294.815315 170.921787 
L 301.162578 170.794144 
L 308.525381 170.887722 
L 311.318182 170.970702 
L 311.318182 170.970702 
" clip-path="url(#p22cc5cbef1)" style="fill: none; stroke: #8c564b; stroke-width: 1.5; stroke-linecap: square"/>
   </g>
   <g id="line2d_22">
    <path d="M 57.681818 277.884551 
L 62.759623 271.134196 
L 67.583537 265.09152 
L 72.153564 259.715739 
L 76.723586 254.686474 
L 81.293614 250.004888 
L 85.609746 245.898994 
L 89.925883 242.093212 
L 94.242016 238.580391 
L 98.55815 235.353142 
L 102.874287 232.40581 
L 107.190419 229.734462 
L 111.25266 227.470204 
L 115.314907 225.44475 
L 119.631044 223.545727 
L 124.201065 221.793909 
L 129.278872 220.094059 
L 143.750613 215.415948 
L 148.066755 213.669548 
L 152.382887 211.682814 
L 158.476249 208.603128 
L 165.331292 205.185974 
L 169.393534 203.419563 
L 172.947995 202.124897 
L 176.248567 201.16098 
L 179.549148 200.428678 
L 183.103609 199.876747 
L 187.165841 199.489456 
L 192.497543 199.23067 
L 204.430378 198.722191 
L 210.01597 198.222347 
L 216.871003 197.368435 
L 231.850529 195.422614 
L 237.690002 194.949355 
L 243.021704 194.742839 
L 248.099506 194.75802 
L 253.685098 195.007346 
L 259.270681 195.478387 
L 266.125713 196.312489 
L 273.742426 197.487634 
L 284.913611 199.463243 
L 301.162578 202.296046 
L 310.556501 203.681292 
L 311.318182 203.782854 
L 311.318182 203.782854 
" clip-path="url(#p22cc5cbef1)" style="fill: none; stroke: #e377c2; stroke-width: 1.5; stroke-linecap: square"/>
   </g>
   <g id="line2d_23">
    <path d="M 57.681818 138.736773 
L 62.759623 137.353187 
L 68.345208 136.058008 
L 74.438575 134.87795 
L 80.785833 133.878528 
L 87.133088 133.108027 
L 92.972563 132.621815 
L 98.050371 132.408066 
L 102.620397 132.422321 
L 106.682638 132.637719 
L 110.49099 133.049669 
L 114.045457 133.649397 
L 117.346028 134.419697 
L 120.646604 135.418559 
L 123.947175 136.664236 
L 127.247747 138.166856 
L 130.548323 139.925861 
L 134.102784 142.090472 
L 137.911141 144.677694 
L 142.735053 148.24147 
L 157.206799 159.13023 
L 162.030711 162.358772 
L 166.600743 165.145616 
L 171.170765 167.671483 
L 175.740786 169.93871 
L 179.803038 171.720193 
L 183.61139 173.155453 
L 186.911951 174.178425 
L 189.958642 174.906675 
L 192.751433 175.366294 
L 195.544225 175.605169 
L 198.337016 175.608084 
L 200.875917 175.39737 
L 203.668708 174.929226 
L 206.461509 174.218448 
L 209.2543 173.27875 
L 212.300981 172.014703 
L 215.601553 170.400859 
L 219.409904 168.279415 
L 223.979936 165.46089 
L 230.073299 161.415792 
L 243.021704 152.458446 
L 256.73178 143.090838 
L 267.141274 136.247345 
L 275.011867 131.340625 
L 281.61303 127.489598 
L 287.452512 124.337946 
L 293.038094 121.582197 
L 298.369777 119.206688 
L 303.447579 117.182461 
L 308.779281 115.305155 
L 311.318182 114.497793 
L 311.318182 114.497793 
" clip-path="url(#p22cc5cbef1)" style="fill: none; stroke: #7f7f7f; stroke-width: 1.5; stroke-linecap: square"/>
   </g>
   <g id="line2d_24">
    <path d="M 57.681818 189.559925 
L 63.775186 188.444366 
L 71.138001 187.326249 
L 81.293614 186.024882 
L 103.889848 183.181688 
L 110.74488 182.040654 
L 116.330468 180.898547 
L 121.662164 179.586354 
L 127.247747 177.971648 
L 134.356675 175.661858 
L 141.973383 173.231787 
L 146.035624 172.157925 
L 149.590096 171.441587 
L 152.890667 171.007095 
L 155.937348 170.82523 
L 158.98403 170.861513 
L 162.030711 171.113782 
L 165.331292 171.618365 
L 168.885754 172.407063 
L 172.694105 173.498283 
L 177.010237 174.988216 
L 182.088049 176.997482 
L 189.196962 180.073786 
L 200.368136 184.899698 
L 206.715399 187.370242 
L 212.808762 189.4924 
L 219.409904 191.560473 
L 244.545045 199.224455 
L 251.400087 201.70114 
L 258.7629 204.597724 
L 269.172405 208.965621 
L 282.88249 214.670339 
L 289.991413 217.365733 
L 296.084776 219.450137 
L 301.924238 221.226101 
L 307.76372 222.778269 
L 311.318182 223.615259 
L 311.318182 223.615259 
" clip-path="url(#p22cc5cbef1)" style="fill: none; stroke: #bcbd22; stroke-width: 1.5; stroke-linecap: square"/>
   </g>
   <g id="line2d_25">
    <path d="M 57.681818 134.282218 
L 62.505733 138.202672 
L 67.075757 141.644182 
L 71.645781 144.819958 
L 76.215806 147.731135 
L 80.785833 150.378612 
L 85.101964 152.636012 
L 89.418102 154.653684 
L 93.734234 156.423681 
L 97.796481 157.851553 
L 101.604832 158.965306 
L 105.159298 159.792331 
L 108.713759 160.395671 
L 112.014332 160.738355 
L 115.314907 160.854584 
L 118.361589 160.748906 
L 121.408274 160.431359 
L 124.454955 159.900209 
L 127.755527 159.092994 
L 131.309993 157.981743 
L 135.37224 156.470946 
L 144.004503 152.929166 
L 148.574535 151.212683 
L 152.382887 150.009702 
L 155.937348 149.111375 
L 159.7457 148.387497 
L 163.807942 147.847933 
L 168.885754 147.411763 
L 177.010237 146.969159 
L 188.943072 146.522347 
L 194.782554 146.525427 
L 199.606466 146.747508 
L 204.176488 147.175684 
L 209.00041 147.850912 
L 215.093772 148.952042 
L 230.073299 151.785968 
L 235.151101 152.447097 
L 239.721123 152.810517 
L 244.037264 152.9234 
L 248.099506 152.811525 
L 252.161758 152.484536 
L 256.477889 151.903325 
L 260.794021 151.093304 
L 265.364043 150.008895 
L 270.441845 148.567859 
L 276.535208 146.587625 
L 285.167491 143.516891 
L 298.115896 138.930106 
L 304.970919 136.745263 
L 311.318182 134.951451 
L 311.318182 134.951451 
" clip-path="url(#p22cc5cbef1)" style="fill: none; stroke: #17becf; stroke-width: 1.5; stroke-linecap: square"/>
   </g>
   <g id="patch_3">
    <path d="M 45 320.4 
L 45 43.2 
" style="fill: none; stroke: #000000; stroke-width: 0.8; stroke-linejoin: miter; stroke-linecap: square"/>
   </g>
   <g id="patch_4">
    <path d="M 324 320.4 
L 324 43.2 
" style="fill: none; stroke: #000000; stroke-width: 0.8; stroke-linejoin: miter; stroke-linecap: square"/>
   </g>
   <g id="patch_5">
    <path d="M 45 320.4 
L 324 320.4 
" style="fill: none; stroke: #000000; stroke-width: 0.8; stroke-linejoin: miter; stroke-linecap: square"/>
   </g>
   <g id="patch_6">
    <path d="M 45 43.2 
L 324 43.2 
" style="fill: none; stroke: #000000; stroke-width: 0.8; stroke-linejoin: miter; stroke-linecap: square"/>
   </g>
   <g id="text_16">
    <!-- Deviation from average for single draw -->
    <g transform="translate(66.87 37.2)scale(0.12 -0.12)">
     <defs>
      <path id="DejaVuSans-44" d="M 1259 4147 
L 1259 519 
L 2022 519 
Q 2988 519 3436 956 
Q 3884 1394 3884 2338 
Q 3884 3275 3436 3711 
Q 2988 4147 2022 4147 
L 1259 4147 
z
M 628 4666 
L 1925 4666 
Q 3281 4666 3915 4102 
Q 4550 3538 4550 2338 
Q 4550 1131 3912 565 
Q 3275 0 1925 0 
L 628 0 
L 628 4666 
z
" transform="scale(0.015625)"/>
      <path id="DejaVuSans-65" d="M 3597 1894 
L 3597 1613 
L 953 1613 
Q 991 1019 1311 708 
Q 1631 397 2203 397 
Q 2534 397 2845 478 
Q 3156 559 3463 722 
L 3463 178 
Q 3153 47 2828 -22 
Q 2503 -91 2169 -91 
Q 1331 -91 842 396 
Q 353 884 353 1716 
Q 353 2575 817 3079 
Q 1281 3584 2069 3584 
Q 2775 3584 3186 3129 
Q 3597 2675 3597 1894 
z
M 3022 2063 
Q 3016 2534 2758 2815 
Q 2500 3097 2075 3097 
Q 1594 3097 1305 2825 
Q 1016 2553 972 2059 
L 3022 2063 
z
" transform="scale(0.015625)"/>
      <path id="DejaVuSans-76" d="M 191 3500 
L 800 3500 
L 1894 563 
L 2988 3500 
L 3597 3500 
L 2284 0 
L 1503 0 
L 191 3500 
z
" transform="scale(0.015625)"/>
      <path id="DejaVuSans-69" d="M 603 3500 
L 1178 3500 
L 1178 0 
L 603 0 
L 603 3500 
z
M 603 4863 
L 1178 4863 
L 1178 4134 
L 603 4134 
L 603 4863 
z
" transform="scale(0.015625)"/>
      <path id="DejaVuSans-61" d="M 2194 1759 
Q 1497 1759 1228 1600 
Q 959 1441 959 1056 
Q 959 750 1161 570 
Q 1363 391 1709 391 
Q 2188 391 2477 730 
Q 2766 1069 2766 1631 
L 2766 1759 
L 2194 1759 
z
M 3341 1997 
L 3341 0 
L 2766 0 
L 2766 531 
Q 2569 213 2275 61 
Q 1981 -91 1556 -91 
Q 1019 -91 701 211 
Q 384 513 384 1019 
Q 384 1609 779 1909 
Q 1175 2209 1959 2209 
L 2766 2209 
L 2766 2266 
Q 2766 2663 2505 2880 
Q 2244 3097 1772 3097 
Q 1472 3097 1187 3025 
Q 903 2953 641 2809 
L 641 3341 
Q 956 3463 1253 3523 
Q 1550 3584 1831 3584 
Q 2591 3584 2966 3190 
Q 3341 2797 3341 1997 
z
" transform="scale(0.015625)"/>
      <path id="DejaVuSans-74" d="M 1172 4494 
L 1172 3500 
L 2356 3500 
L 2356 3053 
L 1172 3053 
L 1172 1153 
Q 1172 725 1289 603 
Q 1406 481 1766 481 
L 2356 481 
L 2356 0 
L 1766 0 
Q 1100 0 847 248 
Q 594 497 594 1153 
L 594 3053 
L 172 3053 
L 172 3500 
L 594 3500 
L 594 4494 
L 1172 4494 
z
" transform="scale(0.015625)"/>
      <path id="DejaVuSans-6f" d="M 1959 3097 
Q 1497 3097 1228 2736 
Q 959 2375 959 1747 
Q 959 1119 1226 758 
Q 1494 397 1959 397 
Q 2419 397 2687 759 
Q 2956 1122 2956 1747 
Q 2956 2369 2687 2733 
Q 2419 3097 1959 3097 
z
M 1959 3584 
Q 2709 3584 3137 3096 
Q 3566 2609 3566 1747 
Q 3566 888 3137 398 
Q 2709 -91 1959 -91 
Q 1206 -91 779 398 
Q 353 888 353 1747 
Q 353 2609 779 3096 
Q 1206 3584 1959 3584 
z
" transform="scale(0.015625)"/>
      <path id="DejaVuSans-6e" d="M 3513 2113 
L 3513 0 
L 2938 0 
L 2938 2094 
Q 2938 2591 2744 2837 
Q 2550 3084 2163 3084 
Q 1697 3084 1428 2787 
Q 1159 2491 1159 1978 
L 1159 0 
L 581 0 
L 581 3500 
L 1159 3500 
L 1159 2956 
Q 1366 3272 1645 3428 
Q 1925 3584 2291 3584 
Q 2894 3584 3203 3211 
Q 3513 2838 3513 2113 
z
" transform="scale(0.015625)"/>
      <path id="DejaVuSans-20" transform="scale(0.015625)"/>
      <path id="DejaVuSans-66" d="M 2375 4863 
L 2375 4384 
L 1825 4384 
Q 1516 4384 1395 4259 
Q 1275 4134 1275 3809 
L 1275 3500 
L 2222 3500 
L 2222 3053 
L 1275 3053 
L 1275 0 
L 697 0 
L 697 3053 
L 147 3053 
L 147 3500 
L 697 3500 
L 697 3744 
Q 697 4328 969 4595 
Q 1241 4863 1831 4863 
L 2375 4863 
z
" transform="scale(0.015625)"/>
      <path id="DejaVuSans-72" d="M 2631 2963 
Q 2534 3019 2420 3045 
Q 2306 3072 2169 3072 
Q 1681 3072 1420 2755 
Q 1159 2438 1159 1844 
L 1159 0 
L 581 0 
L 581 3500 
L 1159 3500 
L 1159 2956 
Q 1341 3275 1631 3429 
Q 1922 3584 2338 3584 
Q 2397 3584 2469 3576 
Q 2541 3569 2628 3553 
L 2631 2963 
z
" transform="scale(0.015625)"/>
      <path id="DejaVuSans-6d" d="M 3328 2828 
Q 3544 3216 3844 3400 
Q 4144 3584 4550 3584 
Q 5097 3584 5394 3201 
Q 5691 2819 5691 2113 
L 5691 0 
L 5113 0 
L 5113 2094 
Q 5113 2597 4934 2840 
Q 4756 3084 4391 3084 
Q 3944 3084 3684 2787 
Q 3425 2491 3425 1978 
L 3425 0 
L 2847 0 
L 2847 2094 
Q 2847 2600 2669 2842 
Q 2491 3084 2119 3084 
Q 1678 3084 1418 2786 
Q 1159 2488 1159 1978 
L 1159 0 
L 581 0 
L 581 3500 
L 1159 3500 
L 1159 2956 
Q 1356 3278 1631 3431 
Q 1906 3584 2284 3584 
Q 2666 3584 2933 3390 
Q 3200 3197 3328 2828 
z
" transform="scale(0.015625)"/>
      <path id="DejaVuSans-67" d="M 2906 1791 
Q 2906 2416 2648 2759 
Q 2391 3103 1925 3103 
Q 1463 3103 1205 2759 
Q 947 2416 947 1791 
Q 947 1169 1205 825 
Q 1463 481 1925 481 
Q 2391 481 2648 825 
Q 2906 1169 2906 1791 
z
M 3481 434 
Q 3481 -459 3084 -895 
Q 2688 -1331 1869 -1331 
Q 1566 -1331 1297 -1286 
Q 1028 -1241 775 -1147 
L 775 -588 
Q 1028 -725 1275 -790 
Q 1522 -856 1778 -856 
Q 2344 -856 2625 -561 
Q 2906 -266 2906 331 
L 2906 616 
Q 2728 306 2450 153 
Q 2172 0 1784 0 
Q 1141 0 747 490 
Q 353 981 353 1791 
Q 353 2603 747 3093 
Q 1141 3584 1784 3584 
Q 2172 3584 2450 3431 
Q 2728 3278 2906 2969 
L 2906 3500 
L 3481 3500 
L 3481 434 
z
" transform="scale(0.015625)"/>
      <path id="DejaVuSans-73" d="M 2834 3397 
L 2834 2853 
Q 2591 2978 2328 3040 
Q 2066 3103 1784 3103 
Q 1356 3103 1142 2972 
Q 928 2841 928 2578 
Q 928 2378 1081 2264 
Q 1234 2150 1697 2047 
L 1894 2003 
Q 2506 1872 2764 1633 
Q 3022 1394 3022 966 
Q 3022 478 2636 193 
Q 2250 -91 1575 -91 
Q 1294 -91 989 -36 
Q 684 19 347 128 
L 347 722 
Q 666 556 975 473 
Q 1284 391 1588 391 
Q 1994 391 2212 530 
Q 2431 669 2431 922 
Q 2431 1156 2273 1281 
Q 2116 1406 1581 1522 
L 1381 1569 
Q 847 1681 609 1914 
Q 372 2147 372 2553 
Q 372 3047 722 3315 
Q 1072 3584 1716 3584 
Q 2034 3584 2315 3537 
Q 2597 3491 2834 3397 
z
" transform="scale(0.015625)"/>
      <path id="DejaVuSans-6c" d="M 603 4863 
L 1178 4863 
L 1178 0 
L 603 0 
L 603 4863 
z
" transform="scale(0.015625)"/>
      <path id="DejaVuSans-64" d="M 2906 2969 
L 2906 4863 
L 3481 4863 
L 3481 0 
L 2906 0 
L 2906 525 
Q 2725 213 2448 61 
Q 2172 -91 1784 -91 
Q 1150 -91 751 415 
Q 353 922 353 1747 
Q 353 2572 751 3078 
Q 1150 3584 1784 3584 
Q 2172 3584 2448 3432 
Q 2725 3281 2906 2969 
z
M 947 1747 
Q 947 1113 1208 752 
Q 1469 391 1925 391 
Q 2381 391 2643 752 
Q 2906 1113 2906 1747 
Q 2906 2381 2643 2742 
Q 2381 3103 1925 3103 
Q 1469 3103 1208 2742 
Q 947 2381 947 1747 
z
" transform="scale(0.015625)"/>
      <path id="DejaVuSans-77" d="M 269 3500 
L 844 3500 
L 1563 769 
L 2278 3500 
L 2956 3500 
L 3675 769 
L 4391 3500 
L 4966 3500 
L 4050 0 
L 3372 0 
L 2619 2869 
L 1863 0 
L 1184 0 
L 269 3500 
z
" transform="scale(0.015625)"/>
     </defs>
     <use xlink:href="#DejaVuSans-44"/>
     <use xlink:href="#DejaVuSans-65" x="77.001953"/>
     <use xlink:href="#DejaVuSans-76" x="138.525391"/>
     <use xlink:href="#DejaVuSans-69" x="197.705078"/>
     <use xlink:href="#DejaVuSans-61" x="225.488281"/>
     <use xlink:href="#DejaVuSans-74" x="286.767578"/>
     <use xlink:href="#DejaVuSans-69" x="325.976562"/>
     <use xlink:href="#DejaVuSans-6f" x="353.759766"/>
     <use xlink:href="#DejaVuSans-6e" x="414.941406"/>
     <use xlink:href="#DejaVuSans-20" x="478.320312"/>
     <use xlink:href="#DejaVuSans-66" x="510.107422"/>
     <use xlink:href="#DejaVuSans-72" x="545.3125"/>
     <use xlink:href="#DejaVuSans-6f" x="584.175781"/>
     <use xlink:href="#DejaVuSans-6d" x="645.357422"/>
     <use xlink:href="#DejaVuSans-20" x="742.769531"/>
     <use xlink:href="#DejaVuSans-61" x="774.556641"/>
     <use xlink:href="#DejaVuSans-76" x="835.835938"/>
     <use xlink:href="#DejaVuSans-65" x="895.015625"/>
     <use xlink:href="#DejaVuSans-72" x="956.539062"/>
     <use xlink:href="#DejaVuSans-61" x="997.652344"/>
     <use xlink:href="#DejaVuSans-67" x="1058.931641"/>
     <use xlink:href="#DejaVuSans-65" x="1122.408203"/>
     <use xlink:href="#DejaVuSans-20" x="1183.931641"/>
     <use xlink:href="#DejaVuSans-66" x="1215.71875"/>
     <use xlink:href="#DejaVuSans-6f" x="1250.923828"/>
     <use xlink:href="#DejaVuSans-72" x="1312.105469"/>
     <use xlink:href="#DejaVuSans-20" x="1353.21875"/>
     <use xlink:href="#DejaVuSans-73" x="1385.005859"/>
     <use xlink:href="#DejaVuSans-69" x="1437.105469"/>
     <use xlink:href="#DejaVuSans-6e" x="1464.888672"/>
     <use xlink:href="#DejaVuSans-67" x="1528.267578"/>
     <use xlink:href="#DejaVuSans-6c" x="1591.744141"/>
     <use xlink:href="#DejaVuSans-65" x="1619.527344"/>
     <use xlink:href="#DejaVuSans-20" x="1681.050781"/>
     <use xlink:href="#DejaVuSans-64" x="1712.837891"/>
     <use xlink:href="#DejaVuSans-72" x="1776.314453"/>
     <use xlink:href="#DejaVuSans-61" x="1817.427734"/>
     <use xlink:href="#DejaVuSans-77" x="1878.707031"/>
    </g>
   </g>
  </g>
 </g>
 <defs>
  <clipPath id="p22cc5cbef1">
   <rect x="45" y="43.2" width="279" height="277.2"/>
  </clipPath>
 </defs>
</svg>
