<?xml version="1.0" encoding="utf-8" standalone="no"?>
<!DOCTYPE svg PUBLIC "-//W3C//DTD SVG 1.1//EN"
  "http://www.w3.org/Graphics/SVG/1.1/DTD/svg11.dtd">
<svg xmlns:xlink="http://www.w3.org/1999/xlink" width="360pt" height="360pt" viewBox="0 0 360 360" xmlns="http://www.w3.org/2000/svg" version="1.1">
 <metadata>
  <rdf:RDF xmlns:dc="http://purl.org/dc/elements/1.1/" xmlns:cc="http://creativecommons.org/ns#" xmlns:rdf="http://www.w3.org/1999/02/22-rdf-syntax-ns#">
   <cc:Work>
    <dc:type rdf:resource="http://purl.org/dc/dcmitype/StillImage"/>
    <dc:date>2022-12-22T12:02:33.456869</dc:date>
    <dc:format>image/svg+xml</dc:format>
    <dc:creator>
     <cc:Agent>
      <dc:title>Matplotlib v3.5.3, https://matplotlib.org/</dc:title>
     </cc:Agent>
    </dc:creator>
   </cc:Work>
  </rdf:RDF>
 </metadata>
 <defs>
  <style type="text/css">*{stroke-linejoin: round; stroke-linecap: butt}</style>
 </defs>
 <g id="figure_1">
  <g id="patch_1">
   <path d="M 0 360 
L 360 360 
L 360 0 
L 0 0 
z
" style="fill: #ffffff"/>
  </g>
  <g id="axes_1">
   <g id="patch_2">
    <path d="M 45 320.4 
L 324 320.4 
L 324 43.2 
L 45 43.2 
z
" style="fill: #e5e5e5"/>
   </g>
   <g id="matplotlib.axis_1">
    <g id="xtick_1">
     <g id="line2d_1">
      <path d="M 57.681818 320.4 
L 57.681818 43.2 
" clip-path="url(#pcbafee6595)" style="fill: none; stroke: #ffffff; stroke-width: 0.8; stroke-linecap: square"/>
     </g>
     <g id="line2d_2">
      <defs>
       <path id="m04bb3670ad" d="M 0 0 
L 0 3.5 
" style="stroke: #555555; stroke-width: 0.8"/>
      </defs>
      <g>
       <use xlink:href="#m04bb3670ad" x="57.681818" y="320.4" style="fill: #555555; stroke: #555555; stroke-width: 0.8"/>
      </g>
     </g>
     <g id="text_1">
      <!-- −0.5 -->
      <g style="fill: #555555" transform="translate(45.540412 334.998438)scale(0.1 -0.1)">
       <defs>
        <path id="DejaVuSans-2212" d="M 678 2272 
L 4684 2272 
L 4684 1741 
L 678 1741 
L 678 2272 
z
" transform="scale(0.015625)"/>
        <path id="DejaVuSans-30" d="M 2034 4250 
Q 1547 4250 1301 3770 
Q 1056 3291 1056 2328 
Q 1056 1369 1301 889 
Q 1547 409 2034 409 
Q 2525 409 2770 889 
Q 3016 1369 3016 2328 
Q 3016 3291 2770 3770 
Q 2525 4250 2034 4250 
z
M 2034 4750 
Q 2819 4750 3233 4129 
Q 3647 3509 3647 2328 
Q 3647 1150 3233 529 
Q 2819 -91 2034 -91 
Q 1250 -91 836 529 
Q 422 1150 422 2328 
Q 422 3509 836 4129 
Q 1250 4750 2034 4750 
z
" transform="scale(0.015625)"/>
        <path id="DejaVuSans-2e" d="M 684 794 
L 1344 794 
L 1344 0 
L 684 0 
L 684 794 
z
" transform="scale(0.015625)"/>
        <path id="DejaVuSans-35" d="M 691 4666 
L 3169 4666 
L 3169 4134 
L 1269 4134 
L 1269 2991 
Q 1406 3038 1543 3061 
Q 1681 3084 1819 3084 
Q 2600 3084 3056 2656 
Q 3513 2228 3513 1497 
Q 3513 744 3044 326 
Q 2575 -91 1722 -91 
Q 1428 -91 1123 -41 
Q 819 9 494 109 
L 494 744 
Q 775 591 1075 516 
Q 1375 441 1709 441 
Q 2250 441 2565 725 
Q 2881 1009 2881 1497 
Q 2881 1984 2565 2268 
Q 2250 2553 1709 2553 
Q 1456 2553 1204 2497 
Q 953 2441 691 2322 
L 691 4666 
z
" transform="scale(0.015625)"/>
       </defs>
       <use xlink:href="#DejaVuSans-2212"/>
       <use xlink:href="#DejaVuSans-30" x="83.789062"/>
       <use xlink:href="#DejaVuSans-2e" x="147.412109"/>
       <use xlink:href="#DejaVuSans-35" x="179.199219"/>
      </g>
     </g>
    </g>
    <g id="xtick_2">
     <g id="line2d_3">
      <path d="M 99.954545 320.4 
L 99.954545 43.2 
" clip-path="url(#pcbafee6595)" style="fill: none; stroke: #ffffff; stroke-width: 0.8; stroke-linecap: square"/>
     </g>
     <g id="line2d_4">
      <g>
       <use xlink:href="#m04bb3670ad" x="99.954545" y="320.4" style="fill: #555555; stroke: #555555; stroke-width: 0.8"/>
      </g>
     </g>
     <g id="text_2">
      <!-- 0.0 -->
      <g style="fill: #555555" transform="translate(92.002983 334.998438)scale(0.1 -0.1)">
       <use xlink:href="#DejaVuSans-30"/>
       <use xlink:href="#DejaVuSans-2e" x="63.623047"/>
       <use xlink:href="#DejaVuSans-30" x="95.410156"/>
      </g>
     </g>
    </g>
    <g id="xtick_3">
     <g id="line2d_5">
      <path d="M 142.227273 320.4 
L 142.227273 43.2 
" clip-path="url(#pcbafee6595)" style="fill: none; stroke: #ffffff; stroke-width: 0.8; stroke-linecap: square"/>
     </g>
     <g id="line2d_6">
      <g>
       <use xlink:href="#m04bb3670ad" x="142.227273" y="320.4" style="fill: #555555; stroke: #555555; stroke-width: 0.8"/>
      </g>
     </g>
     <g id="text_3">
      <!-- 0.5 -->
      <g style="fill: #555555" transform="translate(134.27571 334.998438)scale(0.1 -0.1)">
       <use xlink:href="#DejaVuSans-30"/>
       <use xlink:href="#DejaVuSans-2e" x="63.623047"/>
       <use xlink:href="#DejaVuSans-35" x="95.410156"/>
      </g>
     </g>
    </g>
    <g id="xtick_4">
     <g id="line2d_7">
      <path d="M 184.5 320.4 
L 184.5 43.2 
" clip-path="url(#pcbafee6595)" style="fill: none; stroke: #ffffff; stroke-width: 0.8; stroke-linecap: square"/>
     </g>
     <g id="line2d_8">
      <g>
       <use xlink:href="#m04bb3670ad" x="184.5" y="320.4" style="fill: #555555; stroke: #555555; stroke-width: 0.8"/>
      </g>
     </g>
     <g id="text_4">
      <!-- 1.0 -->
      <g style="fill: #555555" transform="translate(176.548438 334.998438)scale(0.1 -0.1)">
       <defs>
        <path id="DejaVuSans-31" d="M 794 531 
L 1825 531 
L 1825 4091 
L 703 3866 
L 703 4441 
L 1819 4666 
L 2450 4666 
L 2450 531 
L 3481 531 
L 3481 0 
L 794 0 
L 794 531 
z
" transform="scale(0.015625)"/>
       </defs>
       <use xlink:href="#DejaVuSans-31"/>
       <use xlink:href="#DejaVuSans-2e" x="63.623047"/>
       <use xlink:href="#DejaVuSans-30" x="95.410156"/>
      </g>
     </g>
    </g>
    <g id="xtick_5">
     <g id="line2d_9">
      <path d="M 226.772727 320.4 
L 226.772727 43.2 
" clip-path="url(#pcbafee6595)" style="fill: none; stroke: #ffffff; stroke-width: 0.8; stroke-linecap: square"/>
     </g>
     <g id="line2d_10">
      <g>
       <use xlink:href="#m04bb3670ad" x="226.772727" y="320.4" style="fill: #555555; stroke: #555555; stroke-width: 0.8"/>
      </g>
     </g>
     <g id="text_5">
      <!-- 1.5 -->
      <g style="fill: #555555" transform="translate(218.821165 334.998438)scale(0.1 -0.1)">
       <use xlink:href="#DejaVuSans-31"/>
       <use xlink:href="#DejaVuSans-2e" x="63.623047"/>
       <use xlink:href="#DejaVuSans-35" x="95.410156"/>
      </g>
     </g>
    </g>
    <g id="xtick_6">
     <g id="line2d_11">
      <path d="M 269.045455 320.4 
L 269.045455 43.2 
" clip-path="url(#pcbafee6595)" style="fill: none; stroke: #ffffff; stroke-width: 0.8; stroke-linecap: square"/>
     </g>
     <g id="line2d_12">
      <g>
       <use xlink:href="#m04bb3670ad" x="269.045455" y="320.4" style="fill: #555555; stroke: #555555; stroke-width: 0.8"/>
      </g>
     </g>
     <g id="text_6">
      <!-- 2.0 -->
      <g style="fill: #555555" transform="translate(261.093892 334.998438)scale(0.1 -0.1)">
       <defs>
        <path id="DejaVuSans-32" d="M 1228 531 
L 3431 531 
L 3431 0 
L 469 0 
L 469 531 
Q 828 903 1448 1529 
Q 2069 2156 2228 2338 
Q 2531 2678 2651 2914 
Q 2772 3150 2772 3378 
Q 2772 3750 2511 3984 
Q 2250 4219 1831 4219 
Q 1534 4219 1204 4116 
Q 875 4013 500 3803 
L 500 4441 
Q 881 4594 1212 4672 
Q 1544 4750 1819 4750 
Q 2544 4750 2975 4387 
Q 3406 4025 3406 3419 
Q 3406 3131 3298 2873 
Q 3191 2616 2906 2266 
Q 2828 2175 2409 1742 
Q 1991 1309 1228 531 
z
" transform="scale(0.015625)"/>
       </defs>
       <use xlink:href="#DejaVuSans-32"/>
       <use xlink:href="#DejaVuSans-2e" x="63.623047"/>
       <use xlink:href="#DejaVuSans-30" x="95.410156"/>
      </g>
     </g>
    </g>
    <g id="xtick_7">
     <g id="line2d_13">
      <path d="M 311.318182 320.4 
L 311.318182 43.2 
" clip-path="url(#pcbafee6595)" style="fill: none; stroke: #ffffff; stroke-width: 0.8; stroke-linecap: square"/>
     </g>
     <g id="line2d_14">
      <g>
       <use xlink:href="#m04bb3670ad" x="311.318182" y="320.4" style="fill: #555555; stroke: #555555; stroke-width: 0.8"/>
      </g>
     </g>
     <g id="text_7">
      <!-- 2.5 -->
      <g style="fill: #555555" transform="translate(303.366619 334.998438)scale(0.1 -0.1)">
       <use xlink:href="#DejaVuSans-32"/>
       <use xlink:href="#DejaVuSans-2e" x="63.623047"/>
       <use xlink:href="#DejaVuSans-35" x="95.410156"/>
      </g>
     </g>
    </g>
   </g>
   <g id="matplotlib.axis_2">
    <g id="ytick_1">
     <g id="line2d_15">
      <path d="M 45 317.970379 
L 324 317.970379 
" clip-path="url(#pcbafee6595)" style="fill: none; stroke: #ffffff; stroke-width: 0.8; stroke-linecap: square"/>
     </g>
     <g id="line2d_16">
      <defs>
       <path id="md12fce8452" d="M 0 0 
L -3.5 0 
" style="stroke: #555555; stroke-width: 0.8"/>
      </defs>
      <g>
       <use xlink:href="#md12fce8452" x="45" y="317.970379" style="fill: #555555; stroke: #555555; stroke-width: 0.8"/>
      </g>
     </g>
     <g id="text_8">
      <!-- −0.20 -->
      <g style="fill: #555555" transform="translate(7.354687 321.769598)scale(0.1 -0.1)">
       <use xlink:href="#DejaVuSans-2212"/>
       <use xlink:href="#DejaVuSans-30" x="83.789062"/>
       <use xlink:href="#DejaVuSans-2e" x="147.412109"/>
       <use xlink:href="#DejaVuSans-32" x="179.199219"/>
       <use xlink:href="#DejaVuSans-30" x="242.822266"/>
      </g>
     </g>
    </g>
    <g id="ytick_2">
     <g id="line2d_17">
      <path d="M 45 276.241662 
L 324 276.241662 
" clip-path="url(#pcbafee6595)" style="fill: none; stroke: #ffffff; stroke-width: 0.8; stroke-linecap: square"/>
     </g>
     <g id="line2d_18">
      <g>
       <use xlink:href="#md12fce8452" x="45" y="276.241662" style="fill: #555555; stroke: #555555; stroke-width: 0.8"/>
      </g>
     </g>
     <g id="text_9">
      <!-- −0.15 -->
      <g style="fill: #555555" transform="translate(7.354687 280.040881)scale(0.1 -0.1)">
       <use xlink:href="#DejaVuSans-2212"/>
       <use xlink:href="#DejaVuSans-30" x="83.789062"/>
       <use xlink:href="#DejaVuSans-2e" x="147.412109"/>
       <use xlink:href="#DejaVuSans-31" x="179.199219"/>
       <use xlink:href="#DejaVuSans-35" x="242.822266"/>
      </g>
     </g>
    </g>
    <g id="ytick_3">
     <g id="line2d_19">
      <path d="M 45 234.512945 
L 324 234.512945 
" clip-path="url(#pcbafee6595)" style="fill: none; stroke: #ffffff; stroke-width: 0.8; stroke-linecap: square"/>
     </g>
     <g id="line2d_20">
      <g>
       <use xlink:href="#md12fce8452" x="45" y="234.512945" style="fill: #555555; stroke: #555555; stroke-width: 0.8"/>
      </g>
     </g>
     <g id="text_10">
      <!-- −0.10 -->
      <g style="fill: #555555" transform="translate(7.354687 238.312164)scale(0.1 -0.1)">
       <use xlink:href="#DejaVuSans-2212"/>
       <use xlink:href="#DejaVuSans-30" x="83.789062"/>
       <use xlink:href="#DejaVuSans-2e" x="147.412109"/>
       <use xlink:href="#DejaVuSans-31" x="179.199219"/>
       <use xlink:href="#DejaVuSans-30" x="242.822266"/>
      </g>
     </g>
    </g>
    <g id="ytick_4">
     <g id="line2d_21">
      <path d="M 45 192.784229 
L 324 192.784229 
" clip-path="url(#pcbafee6595)" style="fill: none; stroke: #ffffff; stroke-width: 0.8; stroke-linecap: square"/>
     </g>
     <g id="line2d_22">
      <g>
       <use xlink:href="#md12fce8452" x="45" y="192.784229" style="fill: #555555; stroke: #555555; stroke-width: 0.8"/>
      </g>
     </g>
     <g id="text_11">
      <!-- −0.05 -->
      <g style="fill: #555555" transform="translate(7.354687 196.583448)scale(0.1 -0.1)">
       <use xlink:href="#DejaVuSans-2212"/>
       <use xlink:href="#DejaVuSans-30" x="83.789062"/>
       <use xlink:href="#DejaVuSans-2e" x="147.412109"/>
       <use xlink:href="#DejaVuSans-30" x="179.199219"/>
       <use xlink:href="#DejaVuSans-35" x="242.822266"/>
      </g>
     </g>
    </g>
    <g id="ytick_5">
     <g id="line2d_23">
      <path d="M 45 151.055512 
L 324 151.055512 
" clip-path="url(#pcbafee6595)" style="fill: none; stroke: #ffffff; stroke-width: 0.8; stroke-linecap: square"/>
     </g>
     <g id="line2d_24">
      <g>
       <use xlink:href="#md12fce8452" x="45" y="151.055512" style="fill: #555555; stroke: #555555; stroke-width: 0.8"/>
      </g>
     </g>
     <g id="text_12">
      <!-- 0.00 -->
      <g style="fill: #555555" transform="translate(15.734375 154.854731)scale(0.1 -0.1)">
       <use xlink:href="#DejaVuSans-30"/>
       <use xlink:href="#DejaVuSans-2e" x="63.623047"/>
       <use xlink:href="#DejaVuSans-30" x="95.410156"/>
       <use xlink:href="#DejaVuSans-30" x="159.033203"/>
      </g>
     </g>
    </g>
    <g id="ytick_6">
     <g id="line2d_25">
      <path d="M 45 109.326795 
L 324 109.326795 
" clip-path="url(#pcbafee6595)" style="fill: none; stroke: #ffffff; stroke-width: 0.8; stroke-linecap: square"/>
     </g>
     <g id="line2d_26">
      <g>
       <use xlink:href="#md12fce8452" x="45" y="109.326795" style="fill: #555555; stroke: #555555; stroke-width: 0.8"/>
      </g>
     </g>
     <g id="text_13">
      <!-- 0.05 -->
      <g style="fill: #555555" transform="translate(15.734375 113.126014)scale(0.1 -0.1)">
       <use xlink:href="#DejaVuSans-30"/>
       <use xlink:href="#DejaVuSans-2e" x="63.623047"/>
       <use xlink:href="#DejaVuSans-30" x="95.410156"/>
       <use xlink:href="#DejaVuSans-35" x="159.033203"/>
      </g>
     </g>
    </g>
    <g id="ytick_7">
     <g id="line2d_27">
      <path d="M 45 67.598079 
L 324 67.598079 
" clip-path="url(#pcbafee6595)" style="fill: none; stroke: #ffffff; stroke-width: 0.8; stroke-linecap: square"/>
     </g>
     <g id="line2d_28">
      <g>
       <use xlink:href="#md12fce8452" x="45" y="67.598079" style="fill: #555555; stroke: #555555; stroke-width: 0.8"/>
      </g>
     </g>
     <g id="text_14">
      <!-- 0.10 -->
      <g style="fill: #555555" transform="translate(15.734375 71.397298)scale(0.1 -0.1)">
       <use xlink:href="#DejaVuSans-30"/>
       <use xlink:href="#DejaVuSans-2e" x="63.623047"/>
       <use xlink:href="#DejaVuSans-31" x="95.410156"/>
       <use xlink:href="#DejaVuSans-30" x="159.033203"/>
      </g>
     </g>
    </g>
   </g>
   <g id="line2d_29">
    <path d="M 57.681818 221.535365 
L 80.785833 207.597178 
L 89.164211 202.877558 
L 99.319821 197.440583 
L 107.95209 192.743349 
L 112.522116 190.002596 
L 116.330468 187.463104 
L 119.884935 184.819725 
L 123.439395 181.88376 
L 127.247747 178.435257 
L 133.087224 172.785499 
L 137.911141 168.221744 
L 140.957822 165.615282 
L 143.750613 163.522132 
L 146.289514 161.917275 
L 148.574535 160.740186 
L 150.859546 159.826961 
L 152.890667 159.238066 
L 154.921788 158.855232 
L 157.206799 158.662392 
L 159.49181 158.709281 
L 161.776821 158.980727 
L 164.315722 159.525032 
L 166.854633 160.300439 
L 169.647424 161.386053 
L 172.947995 162.925009 
L 177.264127 165.215614 
L 185.13473 169.441042 
L 188.181401 170.802211 
L 190.720313 171.715261 
L 193.259214 172.382753 
L 195.544225 172.750445 
L 197.829235 172.885531 
L 200.114246 172.787096 
L 202.399257 172.463538 
L 204.938158 171.858565 
L 207.477069 171.024071 
L 210.523751 169.767983 
L 214.078212 168.03186 
L 218.394344 165.661972 
L 226.518837 160.877028 
L 234.64332 156.173207 
L 240.482793 153.039801 
L 245.560605 150.554247 
L 250.384517 148.439548 
L 254.954549 146.683666 
L 259.270681 145.262008 
L 263.586812 144.079183 
L 267.902944 143.132287 
L 272.219086 142.411728 
L 277.042988 141.85242 
L 282.12081 141.508109 
L 287.706392 141.364665 
L 294.307535 141.430547 
L 302.685918 141.742127 
L 311.318182 142.183977 
L 311.318182 142.183977 
" clip-path="url(#pcbafee6595)" style="fill: none; stroke: #e24a33; stroke-width: 1.5; stroke-linecap: square"/>
   </g>
   <g id="line2d_30">
    <path d="M 57.681818 159.873567 
L 63.267403 157.201545 
L 68.852988 154.778112 
L 74.438575 152.600507 
L 79.770271 150.754697 
L 84.848074 149.223462 
L 89.418102 148.062893 
L 93.480343 147.242675 
L 97.2887 146.700948 
L 100.589271 146.455419 
L 103.635958 146.456433 
L 106.428748 146.688442 
L 108.967649 147.121527 
L 111.50655 147.793765 
L 113.791567 148.621115 
L 116.076578 149.670172 
L 118.615483 151.098193 
L 121.154384 152.789337 
L 123.947175 154.912915 
L 127.755527 158.112969 
L 134.102784 163.476895 
L 136.895581 165.513265 
L 139.180591 166.913066 
L 141.211712 167.918134 
L 143.242833 168.680836 
L 145.273954 169.196826 
L 147.305085 169.473684 
L 149.336206 169.528458 
L 151.621217 169.354705 
L 154.160118 168.917302 
L 156.952909 168.206523 
L 160.50737 167.065782 
L 166.346853 164.912611 
L 177.518017 160.778504 
L 183.3575 158.867489 
L 187.927511 157.595462 
L 191.735873 156.752512 
L 195.290334 156.192707 
L 198.590906 155.900567 
L 201.891477 155.845331 
L 204.938158 156.00718 
L 208.23874 156.402231 
L 211.793201 157.060589 
L 215.601553 157.992125 
L 220.171575 159.347643 
L 226.264947 161.411861 
L 241.498353 166.692777 
L 246.576165 168.161733 
L 250.892307 169.192558 
L 254.954549 169.942407 
L 258.7629 170.431634 
L 262.571252 170.704174 
L 266.379603 170.759888 
L 270.441845 170.59012 
L 274.757987 170.174196 
L 279.328009 169.508197 
L 284.405831 168.556127 
L 291.768634 166.920766 
L 311.318182 162.383431 
L 311.318182 162.383431 
" clip-path="url(#pcbafee6595)" style="fill: none; stroke: #348abd; stroke-width: 1.5; stroke-linecap: square"/>
   </g>
   <g id="line2d_31">
    <path d="M 57.681818 176.324771 
L 66.821867 171.933844 
L 75.454135 168.040291 
L 84.086404 164.402252 
L 93.226453 160.798004 
L 103.635958 156.936407 
L 112.522116 153.857441 
L 118.615483 151.970463 
L 123.439395 150.709275 
L 127.501637 149.867106 
L 131.309993 149.287 
L 135.37224 148.889472 
L 140.196152 148.661229 
L 147.812865 148.574609 
L 155.937348 148.413382 
L 162.284601 148.058943 
L 171.932435 147.238974 
L 178.025797 146.829378 
L 182.088049 146.777634 
L 185.38862 146.947452 
L 188.435292 147.31771 
L 191.481983 147.922703 
L 194.528664 148.776279 
L 197.575345 149.878796 
L 200.622027 151.214416 
L 204.176488 153.030011 
L 208.23874 155.373514 
L 213.570432 158.736283 
L 235.912771 173.167463 
L 241.244463 176.209757 
L 246.068385 178.698594 
L 250.130627 180.555397 
L 253.938988 182.066576 
L 257.49345 183.255091 
L 261.047911 184.217449 
L 264.602373 184.946504 
L 268.156834 185.444447 
L 271.711306 185.72031 
L 275.519647 185.787166 
L 279.581889 185.628084 
L 283.898051 185.240574 
L 288.975853 184.562178 
L 295.576995 183.447145 
L 311.318182 180.506349 
L 311.318182 180.506349 
" clip-path="url(#pcbafee6595)" style="fill: none; stroke: #988ed5; stroke-width: 1.5; stroke-linecap: square"/>
   </g>
   <g id="line2d_32">
    <path d="M 57.681818 149.378819 
L 61.997952 149.757832 
L 66.821867 150.411485 
L 72.153564 151.362182 
L 79.008599 152.828456 
L 95.003687 156.353023 
L 99.573711 157.069732 
L 103.382068 157.442806 
L 106.682638 157.548334 
L 109.72932 157.427057 
L 112.522116 157.103668 
L 115.314907 156.556712 
L 118.107699 155.773321 
L 120.900494 154.751211 
L 123.947175 153.377899 
L 127.247747 151.627544 
L 131.563883 149.054082 
L 139.942262 143.981978 
L 143.242833 142.26526 
L 146.289514 140.928426 
L 149.082316 139.940052 
L 151.875107 139.185359 
L 154.667898 138.657957 
L 157.714579 138.321675 
L 160.76126 138.20565 
L 164.315722 138.303229 
L 168.377973 138.656147 
L 173.201885 139.313978 
L 179.549148 140.424454 
L 188.689182 142.269578 
L 204.938158 145.589287 
L 210.01597 146.367092 
L 214.332102 146.808008 
L 218.394344 146.99067 
L 222.202705 146.93221 
L 226.011057 146.639911 
L 229.819409 146.116778 
L 233.88165 145.318876 
L 238.197782 144.231859 
L 243.021704 142.784095 
L 249.622847 140.549293 
L 262.825142 136.048768 
L 268.410724 134.436887 
L 273.234646 133.274875 
L 277.804668 132.390557 
L 282.37471 131.71634 
L 287.452512 131.197843 
L 292.784194 130.882364 
L 299.131457 130.753645 
L 306.24038 130.836917 
L 311.318182 130.993055 
L 311.318182 130.993055 
" clip-path="url(#pcbafee6595)" style="fill: none; stroke: #777777; stroke-width: 1.5; stroke-linecap: square"/>
   </g>
   <g id="line2d_33">
    <path d="M 57.681818 57.971497 
L 63.267403 59.763001 
L 69.868551 61.624535 
L 78.500819 63.809587 
L 90.687552 66.91062 
L 96.273139 68.571161 
L 100.843161 70.154847 
L 104.905408 71.792993 
L 108.713759 73.568265 
L 112.522116 75.603761 
L 116.330468 77.907692 
L 120.392715 80.635159 
L 125.978296 84.691122 
L 132.833334 89.638347 
L 136.3878 91.920899 
L 139.434482 93.605129 
L 141.973383 94.771612 
L 144.512284 95.69503 
L 146.797295 96.303166 
L 149.082316 96.690586 
L 151.367326 96.851749 
L 153.652337 96.783071 
L 155.937348 96.4835 
L 158.222359 95.953442 
L 160.50737 95.195714 
L 162.792381 94.215976 
L 165.331292 92.879162 
L 168.124083 91.131071 
L 171.170765 88.939945 
L 174.979116 85.900147 
L 183.61139 78.878302 
L 186.404171 76.950922 
L 188.689182 75.620694 
L 190.720313 74.661341 
L 192.751433 73.934017 
L 194.782554 73.449227 
L 196.813675 73.207986 
L 198.844796 73.202096 
L 200.875917 73.413689 
L 203.160928 73.881427 
L 205.699829 74.634598 
L 209.00041 75.876878 
L 215.093772 78.499249 
L 220.171575 80.565079 
L 223.979936 81.866057 
L 227.534398 82.840611 
L 231.088859 83.583794 
L 234.897211 84.155976 
L 239.721123 84.63802 
L 254.192879 85.918503 
L 258.25512 86.597088 
L 262.063472 87.456394 
L 265.871823 88.547759 
L 269.680185 89.87144 
L 273.742426 91.520869 
L 278.312448 93.625041 
L 283.898051 96.45817 
L 294.053655 101.922942 
L 302.178138 106.177471 
L 308.525381 109.242051 
L 311.318182 110.497721 
L 311.318182 110.497721 
" clip-path="url(#pcbafee6595)" style="fill: none; stroke: #fbc15e; stroke-width: 1.5; stroke-linecap: square"/>
   </g>
   <g id="line2d_34">
    <path d="M 57.681818 96.269395 
L 61.997952 100.506194 
L 66.314087 104.443701 
L 70.630221 108.092236 
L 75.200245 111.656152 
L 79.770271 114.931091 
L 84.340294 117.937022 
L 89.164211 120.836232 
L 93.988124 123.465567 
L 98.55815 125.705622 
L 102.874287 127.581617 
L 106.936528 129.111867 
L 110.74488 130.318331 
L 114.553236 131.295034 
L 118.615483 132.106238 
L 130.548323 134.289932 
L 133.087224 135.096872 
L 135.37224 136.043849 
L 137.657251 137.234707 
L 139.942262 138.689212 
L 142.227273 140.412163 
L 144.766174 142.628872 
L 147.558975 145.39799 
L 150.605656 148.747367 
L 154.414008 153.291826 
L 159.49181 159.731929 
L 175.740786 180.614444 
L 179.041358 184.361758 
L 181.834159 187.188728 
L 184.11917 189.19369 
L 186.150281 190.696094 
L 187.927511 191.766357 
L 189.704752 192.587638 
L 191.481983 193.144837 
L 193.005323 193.404941 
L 194.528664 193.46157 
L 196.052005 193.315938 
L 197.575345 192.972064 
L 199.352576 192.330857 
L 201.129807 191.44829 
L 203.160928 190.172941 
L 205.445939 188.445095 
L 207.98485 186.232559 
L 211.285421 183.035917 
L 217.632674 176.480944 
L 222.710486 171.405652 
L 226.264947 168.141298 
L 229.565518 165.387243 
L 232.86609 162.924532 
L 236.166661 160.761302 
L 239.213342 159.026433 
L 242.260024 157.534296 
L 245.306715 156.272437 
L 248.607286 155.150162 
L 251.907868 154.263615 
L 255.208439 153.591527 
L 259.01679 153.056475 
L 262.825142 152.746905 
L 267.141274 152.627339 
L 271.965186 152.726012 
L 277.804668 153.085566 
L 285.675271 153.811218 
L 307.00204 155.87468 
L 311.318182 156.190936 
L 311.318182 156.190936 
" clip-path="url(#pcbafee6595)" style="fill: none; stroke: #8eba42; stroke-width: 1.5; stroke-linecap: square"/>
   </g>
   <g id="line2d_35">
    <path d="M 57.681818 90.381884 
L 62.251843 99.017187 
L 66.567977 106.687536 
L 70.630221 113.4535 
L 74.438575 119.383911 
L 78.246929 124.905422 
L 81.801394 129.683272 
L 85.355856 134.091242 
L 88.656431 137.84546 
L 91.957003 141.263366 
L 95.003687 144.10911 
L 98.050371 146.644965 
L 100.843161 148.685007 
L 103.635958 150.440073 
L 106.174859 151.778111 
L 108.713759 152.862203 
L 111.25266 153.68822 
L 113.791567 154.255377 
L 116.330468 154.570494 
L 118.869373 154.649209 
L 121.662164 154.494832 
L 124.708846 154.097543 
L 129.278872 153.242813 
L 135.11835 152.184195 
L 138.418921 151.820065 
L 141.465602 151.71015 
L 144.512284 151.83081 
L 147.812865 152.198497 
L 151.621217 152.858134 
L 157.968469 154.234465 
L 164.823502 155.656511 
L 169.647424 156.418865 
L 173.963556 156.87936 
L 178.533578 157.134251 
L 183.3575 157.16941 
L 188.943072 156.972522 
L 196.559785 156.456631 
L 211.793201 155.380021 
L 218.394344 155.148371 
L 224.741606 155.15249 
L 230.327189 155.381354 
L 235.404991 155.802332 
L 240.482793 156.454065 
L 245.052825 157.254155 
L 249.876737 158.328179 
L 254.700659 159.635843 
L 259.778461 161.247933 
L 265.617933 163.352812 
L 272.980746 166.267581 
L 290.753073 173.396745 
L 297.100336 175.650549 
L 302.939798 177.502597 
L 309.287061 179.256051 
L 311.318182 179.760182 
L 311.318182 179.760182 
" clip-path="url(#pcbafee6595)" style="fill: none; stroke: #ffb5b8; stroke-width: 1.5; stroke-linecap: square"/>
   </g>
   <g id="line2d_36">
    <path d="M 57.681818 55.8 
L 61.744062 61.009901 
L 65.806307 65.871591 
L 70.122441 70.679254 
L 74.438575 75.147713 
L 78.754709 79.309935 
L 83.578625 83.643707 
L 88.656431 87.901578 
L 94.495906 92.495433 
L 101.604832 97.786826 
L 112.522116 105.589948 
L 124.708846 114.347454 
L 130.040543 118.464488 
L 134.356675 122.072109 
L 138.418921 125.743696 
L 142.988943 130.177623 
L 150.097876 137.442187 
L 157.206799 144.606883 
L 162.284601 149.403835 
L 167.108523 153.653031 
L 172.186325 157.819104 
L 177.518017 161.892482 
L 182.595829 165.498382 
L 187.419731 168.658262 
L 191.989763 171.386967 
L 196.559785 173.849102 
L 201.383697 176.183691 
L 207.223179 178.740976 
L 220.933245 184.373487 
L 237.182221 190.972116 
L 242.006133 192.635115 
L 246.068385 193.798241 
L 249.622847 194.591327 
L 252.923428 195.110521 
L 256.223999 195.403158 
L 259.524571 195.460135 
L 262.571252 195.303231 
L 265.871823 194.913254 
L 269.172405 194.309952 
L 272.726866 193.447442 
L 276.789108 192.234532 
L 281.61303 190.556391 
L 288.468073 187.910839 
L 301.670358 182.771834 
L 308.0176 180.560889 
L 311.318182 179.511658 
L 311.318182 179.511658 
" clip-path="url(#pcbafee6595)" style="fill: none; stroke: #e24a33; stroke-width: 1.5; stroke-linecap: square"/>
   </g>
   <g id="line2d_37">
    <path d="M 57.681818 307.8 
L 61.49017 300.508341 
L 65.298526 293.702969 
L 69.106878 287.363166 
L 72.915234 281.462249 
L 76.723586 275.968266 
L 80.785833 270.517015 
L 84.848074 265.442548 
L 89.164211 260.407876 
L 93.988124 255.141764 
L 99.319821 249.659581 
L 106.428748 242.693052 
L 119.884935 229.56272 
L 125.216626 224.002483 
L 130.040543 218.649427 
L 134.86446 212.963342 
L 141.211712 205.104093 
L 149.590096 194.75152 
L 153.906228 189.773015 
L 157.714579 185.706998 
L 161.26904 182.2254 
L 164.823502 179.05573 
L 168.377973 176.191163 
L 171.932435 173.615899 
L 175.486896 171.308809 
L 179.295248 169.106779 
L 183.3575 167.027976 
L 187.673621 165.073176 
L 192.751433 163.021653 
L 199.860356 160.404853 
L 242.513924 145.213458 
L 249.622847 143.051243 
L 255.716219 141.421195 
L 261.555691 140.089166 
L 267.141274 139.042811 
L 272.980746 138.1882 
L 278.820229 137.561698 
L 285.421391 137.091453 
L 293.038094 136.791096 
L 302.432018 136.655532 
L 311.318182 136.650995 
L 311.318182 136.650995 
" clip-path="url(#pcbafee6595)" style="fill: none; stroke: #348abd; stroke-width: 1.5; stroke-linecap: square"/>
   </g>
   <g id="line2d_38">
    <path d="M 57.681818 195.219824 
L 62.505733 190.03297 
L 67.075757 185.433762 
L 71.645781 181.14389 
L 76.215806 177.163419 
L 80.531943 173.687303 
L 84.848074 170.48884 
L 89.164211 167.576867 
L 92.972563 165.262255 
L 96.527029 163.340614 
L 99.827601 161.790138 
L 102.874287 160.589385 
L 105.667078 159.710788 
L 108.459869 159.073551 
L 110.99877 158.726453 
L 113.537676 158.619478 
L 115.822688 158.737795 
L 118.107699 159.060687 
L 120.646604 159.648488 
L 123.439395 160.539387 
L 126.993856 161.934855 
L 133.595004 164.59443 
L 136.13391 165.359475 
L 138.418921 165.813792 
L 140.450042 165.992812 
L 142.481163 165.938879 
L 144.512284 165.643865 
L 146.543404 165.110385 
L 148.574535 164.350741 
L 150.859546 163.250577 
L 153.398447 161.764301 
L 156.191238 159.868955 
L 159.7457 157.164297 
L 164.315722 153.381486 
L 173.709666 145.222103 
L 179.803038 140.08856 
L 183.86528 136.937544 
L 187.165841 134.635607 
L 190.212532 132.77552 
L 193.005323 131.33096 
L 195.544225 130.252917 
L 198.083126 129.406723 
L 200.622027 128.790985 
L 203.160928 128.395039 
L 205.953729 128.192559 
L 208.74652 128.204318 
L 212.047091 128.448186 
L 215.855443 128.966902 
L 220.679355 129.867874 
L 228.042178 131.497663 
L 240.482793 134.238765 
L 246.830055 135.409452 
L 252.415648 136.227689 
L 257.49345 136.760692 
L 262.825142 137.077982 
L 267.902944 137.140362 
L 272.980746 136.975727 
L 278.312448 136.583701 
L 284.659711 135.880373 
L 292.784194 134.730499 
L 311.318182 131.876816 
L 311.318182 131.876816 
" clip-path="url(#pcbafee6595)" style="fill: none; stroke: #988ed5; stroke-width: 1.5; stroke-linecap: square"/>
   </g>
   <g id="patch_3">
    <path d="M 45 320.4 
L 45 43.2 
" style="fill: none; stroke: #ffffff; stroke-linejoin: miter; stroke-linecap: square"/>
   </g>
   <g id="patch_4">
    <path d="M 324 320.4 
L 324 43.2 
" style="fill: none; stroke: #ffffff; stroke-linejoin: miter; stroke-linecap: square"/>
   </g>
   <g id="patch_5">
    <path d="M 45 320.4 
L 324 320.4 
" style="fill: none; stroke: #ffffff; stroke-linejoin: miter; stroke-linecap: square"/>
   </g>
   <g id="patch_6">
    <path d="M 45 43.2 
L 324 43.2 
" style="fill: none; stroke: #ffffff; stroke-linejoin: miter; stroke-linecap: square"/>
   </g>
   <g id="text_15">
    <!-- Deviation from average for single draw -->
    <g transform="translate(43.344 37.2)scale(0.144 -0.144)">
     <defs>
      <path id="DejaVuSans-44" d="M 1259 4147 
L 1259 519 
L 2022 519 
Q 2988 519 3436 956 
Q 3884 1394 3884 2338 
Q 3884 3275 3436 3711 
Q 2988 4147 2022 4147 
L 1259 4147 
z
M 628 4666 
L 1925 4666 
Q 3281 4666 3915 4102 
Q 4550 3538 4550 2338 
Q 4550 1131 3912 565 
Q 3275 0 1925 0 
L 628 0 
L 628 4666 
z
" transform="scale(0.015625)"/>
      <path id="DejaVuSans-65" d="M 3597 1894 
L 3597 1613 
L 953 1613 
Q 991 1019 1311 708 
Q 1631 397 2203 397 
Q 2534 397 2845 478 
Q 3156 559 3463 722 
L 3463 178 
Q 3153 47 2828 -22 
Q 2503 -91 2169 -91 
Q 1331 -91 842 396 
Q 353 884 353 1716 
Q 353 2575 817 3079 
Q 1281 3584 2069 3584 
Q 2775 3584 3186 3129 
Q 3597 2675 3597 1894 
z
M 3022 2063 
Q 3016 2534 2758 2815 
Q 2500 3097 2075 3097 
Q 1594 3097 1305 2825 
Q 1016 2553 972 2059 
L 3022 2063 
z
" transform="scale(0.015625)"/>
      <path id="DejaVuSans-76" d="M 191 3500 
L 800 3500 
L 1894 563 
L 2988 3500 
L 3597 3500 
L 2284 0 
L 1503 0 
L 191 3500 
z
" transform="scale(0.015625)"/>
      <path id="DejaVuSans-69" d="M 603 3500 
L 1178 3500 
L 1178 0 
L 603 0 
L 603 3500 
z
M 603 4863 
L 1178 4863 
L 1178 4134 
L 603 4134 
L 603 4863 
z
" transform="scale(0.015625)"/>
      <path id="DejaVuSans-61" d="M 2194 1759 
Q 1497 1759 1228 1600 
Q 959 1441 959 1056 
Q 959 750 1161 570 
Q 1363 391 1709 391 
Q 2188 391 2477 730 
Q 2766 1069 2766 1631 
L 2766 1759 
L 2194 1759 
z
M 3341 1997 
L 3341 0 
L 2766 0 
L 2766 531 
Q 2569 213 2275 61 
Q 1981 -91 1556 -91 
Q 1019 -91 701 211 
Q 384 513 384 1019 
Q 384 1609 779 1909 
Q 1175 2209 1959 2209 
L 2766 2209 
L 2766 2266 
Q 2766 2663 2505 2880 
Q 2244 3097 1772 3097 
Q 1472 3097 1187 3025 
Q 903 2953 641 2809 
L 641 3341 
Q 956 3463 1253 3523 
Q 1550 3584 1831 3584 
Q 2591 3584 2966 3190 
Q 3341 2797 3341 1997 
z
" transform="scale(0.015625)"/>
      <path id="DejaVuSans-74" d="M 1172 4494 
L 1172 3500 
L 2356 3500 
L 2356 3053 
L 1172 3053 
L 1172 1153 
Q 1172 725 1289 603 
Q 1406 481 1766 481 
L 2356 481 
L 2356 0 
L 1766 0 
Q 1100 0 847 248 
Q 594 497 594 1153 
L 594 3053 
L 172 3053 
L 172 3500 
L 594 3500 
L 594 4494 
L 1172 4494 
z
" transform="scale(0.015625)"/>
      <path id="DejaVuSans-6f" d="M 1959 3097 
Q 1497 3097 1228 2736 
Q 959 2375 959 1747 
Q 959 1119 1226 758 
Q 1494 397 1959 397 
Q 2419 397 2687 759 
Q 2956 1122 2956 1747 
Q 2956 2369 2687 2733 
Q 2419 3097 1959 3097 
z
M 1959 3584 
Q 2709 3584 3137 3096 
Q 3566 2609 3566 1747 
Q 3566 888 3137 398 
Q 2709 -91 1959 -91 
Q 1206 -91 779 398 
Q 353 888 353 1747 
Q 353 2609 779 3096 
Q 1206 3584 1959 3584 
z
" transform="scale(0.015625)"/>
      <path id="DejaVuSans-6e" d="M 3513 2113 
L 3513 0 
L 2938 0 
L 2938 2094 
Q 2938 2591 2744 2837 
Q 2550 3084 2163 3084 
Q 1697 3084 1428 2787 
Q 1159 2491 1159 1978 
L 1159 0 
L 581 0 
L 581 3500 
L 1159 3500 
L 1159 2956 
Q 1366 3272 1645 3428 
Q 1925 3584 2291 3584 
Q 2894 3584 3203 3211 
Q 3513 2838 3513 2113 
z
" transform="scale(0.015625)"/>
      <path id="DejaVuSans-20" transform="scale(0.015625)"/>
      <path id="DejaVuSans-66" d="M 2375 4863 
L 2375 4384 
L 1825 4384 
Q 1516 4384 1395 4259 
Q 1275 4134 1275 3809 
L 1275 3500 
L 2222 3500 
L 2222 3053 
L 1275 3053 
L 1275 0 
L 697 0 
L 697 3053 
L 147 3053 
L 147 3500 
L 697 3500 
L 697 3744 
Q 697 4328 969 4595 
Q 1241 4863 1831 4863 
L 2375 4863 
z
" transform="scale(0.015625)"/>
      <path id="DejaVuSans-72" d="M 2631 2963 
Q 2534 3019 2420 3045 
Q 2306 3072 2169 3072 
Q 1681 3072 1420 2755 
Q 1159 2438 1159 1844 
L 1159 0 
L 581 0 
L 581 3500 
L 1159 3500 
L 1159 2956 
Q 1341 3275 1631 3429 
Q 1922 3584 2338 3584 
Q 2397 3584 2469 3576 
Q 2541 3569 2628 3553 
L 2631 2963 
z
" transform="scale(0.015625)"/>
      <path id="DejaVuSans-6d" d="M 3328 2828 
Q 3544 3216 3844 3400 
Q 4144 3584 4550 3584 
Q 5097 3584 5394 3201 
Q 5691 2819 5691 2113 
L 5691 0 
L 5113 0 
L 5113 2094 
Q 5113 2597 4934 2840 
Q 4756 3084 4391 3084 
Q 3944 3084 3684 2787 
Q 3425 2491 3425 1978 
L 3425 0 
L 2847 0 
L 2847 2094 
Q 2847 2600 2669 2842 
Q 2491 3084 2119 3084 
Q 1678 3084 1418 2786 
Q 1159 2488 1159 1978 
L 1159 0 
L 581 0 
L 581 3500 
L 1159 3500 
L 1159 2956 
Q 1356 3278 1631 3431 
Q 1906 3584 2284 3584 
Q 2666 3584 2933 3390 
Q 3200 3197 3328 2828 
z
" transform="scale(0.015625)"/>
      <path id="DejaVuSans-67" d="M 2906 1791 
Q 2906 2416 2648 2759 
Q 2391 3103 1925 3103 
Q 1463 3103 1205 2759 
Q 947 2416 947 1791 
Q 947 1169 1205 825 
Q 1463 481 1925 481 
Q 2391 481 2648 825 
Q 2906 1169 2906 1791 
z
M 3481 434 
Q 3481 -459 3084 -895 
Q 2688 -1331 1869 -1331 
Q 1566 -1331 1297 -1286 
Q 1028 -1241 775 -1147 
L 775 -588 
Q 1028 -725 1275 -790 
Q 1522 -856 1778 -856 
Q 2344 -856 2625 -561 
Q 2906 -266 2906 331 
L 2906 616 
Q 2728 306 2450 153 
Q 2172 0 1784 0 
Q 1141 0 747 490 
Q 353 981 353 1791 
Q 353 2603 747 3093 
Q 1141 3584 1784 3584 
Q 2172 3584 2450 3431 
Q 2728 3278 2906 2969 
L 2906 3500 
L 3481 3500 
L 3481 434 
z
" transform="scale(0.015625)"/>
      <path id="DejaVuSans-73" d="M 2834 3397 
L 2834 2853 
Q 2591 2978 2328 3040 
Q 2066 3103 1784 3103 
Q 1356 3103 1142 2972 
Q 928 2841 928 2578 
Q 928 2378 1081 2264 
Q 1234 2150 1697 2047 
L 1894 2003 
Q 2506 1872 2764 1633 
Q 3022 1394 3022 966 
Q 3022 478 2636 193 
Q 2250 -91 1575 -91 
Q 1294 -91 989 -36 
Q 684 19 347 128 
L 347 722 
Q 666 556 975 473 
Q 1284 391 1588 391 
Q 1994 391 2212 530 
Q 2431 669 2431 922 
Q 2431 1156 2273 1281 
Q 2116 1406 1581 1522 
L 1381 1569 
Q 847 1681 609 1914 
Q 372 2147 372 2553 
Q 372 3047 722 3315 
Q 1072 3584 1716 3584 
Q 2034 3584 2315 3537 
Q 2597 3491 2834 3397 
z
" transform="scale(0.015625)"/>
      <path id="DejaVuSans-6c" d="M 603 4863 
L 1178 4863 
L 1178 0 
L 603 0 
L 603 4863 
z
" transform="scale(0.015625)"/>
      <path id="DejaVuSans-64" d="M 2906 2969 
L 2906 4863 
L 3481 4863 
L 3481 0 
L 2906 0 
L 2906 525 
Q 2725 213 2448 61 
Q 2172 -91 1784 -91 
Q 1150 -91 751 415 
Q 353 922 353 1747 
Q 353 2572 751 3078 
Q 1150 3584 1784 3584 
Q 2172 3584 2448 3432 
Q 2725 3281 2906 2969 
z
M 947 1747 
Q 947 1113 1208 752 
Q 1469 391 1925 391 
Q 2381 391 2643 752 
Q 2906 1113 2906 1747 
Q 2906 2381 2643 2742 
Q 2381 3103 1925 3103 
Q 1469 3103 1208 2742 
Q 947 2381 947 1747 
z
" transform="scale(0.015625)"/>
      <path id="DejaVuSans-77" d="M 269 3500 
L 844 3500 
L 1563 769 
L 2278 3500 
L 2956 3500 
L 3675 769 
L 4391 3500 
L 4966 3500 
L 4050 0 
L 3372 0 
L 2619 2869 
L 1863 0 
L 1184 0 
L 269 3500 
z
" transform="scale(0.015625)"/>
     </defs>
     <use xlink:href="#DejaVuSans-44"/>
     <use xlink:href="#DejaVuSans-65" x="77.001953"/>
     <use xlink:href="#DejaVuSans-76" x="138.525391"/>
     <use xlink:href="#DejaVuSans-69" x="197.705078"/>
     <use xlink:href="#DejaVuSans-61" x="225.488281"/>
     <use xlink:href="#DejaVuSans-74" x="286.767578"/>
     <use xlink:href="#DejaVuSans-69" x="325.976562"/>
     <use xlink:href="#DejaVuSans-6f" x="353.759766"/>
     <use xlink:href="#DejaVuSans-6e" x="414.941406"/>
     <use xlink:href="#DejaVuSans-20" x="478.320312"/>
     <use xlink:href="#DejaVuSans-66" x="510.107422"/>
     <use xlink:href="#DejaVuSans-72" x="545.3125"/>
     <use xlink:href="#DejaVuSans-6f" x="584.175781"/>
     <use xlink:href="#DejaVuSans-6d" x="645.357422"/>
     <use xlink:href="#DejaVuSans-20" x="742.769531"/>
     <use xlink:href="#DejaVuSans-61" x="774.556641"/>
     <use xlink:href="#DejaVuSans-76" x="835.835938"/>
     <use xlink:href="#DejaVuSans-65" x="895.015625"/>
     <use xlink:href="#DejaVuSans-72" x="956.539062"/>
     <use xlink:href="#DejaVuSans-61" x="997.652344"/>
     <use xlink:href="#DejaVuSans-67" x="1058.931641"/>
     <use xlink:href="#DejaVuSans-65" x="1122.408203"/>
     <use xlink:href="#DejaVuSans-20" x="1183.931641"/>
     <use xlink:href="#DejaVuSans-66" x="1215.71875"/>
     <use xlink:href="#DejaVuSans-6f" x="1250.923828"/>
     <use xlink:href="#DejaVuSans-72" x="1312.105469"/>
     <use xlink:href="#DejaVuSans-20" x="1353.21875"/>
     <use xlink:href="#DejaVuSans-73" x="1385.005859"/>
     <use xlink:href="#DejaVuSans-69" x="1437.105469"/>
     <use xlink:href="#DejaVuSans-6e" x="1464.888672"/>
     <use xlink:href="#DejaVuSans-67" x="1528.267578"/>
     <use xlink:href="#DejaVuSans-6c" x="1591.744141"/>
     <use xlink:href="#DejaVuSans-65" x="1619.527344"/>
     <use xlink:href="#DejaVuSans-20" x="1681.050781"/>
     <use xlink:href="#DejaVuSans-64" x="1712.837891"/>
     <use xlink:href="#DejaVuSans-72" x="1776.314453"/>
     <use xlink:href="#DejaVuSans-61" x="1817.427734"/>
     <use xlink:href="#DejaVuSans-77" x="1878.707031"/>
    </g>
   </g>
  </g>
 </g>
 <defs>
  <clipPath id="pcbafee6595">
   <rect x="45" y="43.2" width="279" height="277.2"/>
  </clipPath>
 </defs>
</svg>
