<?xml version="1.0" encoding="utf-8" standalone="no"?>
<!DOCTYPE svg PUBLIC "-//W3C//DTD SVG 1.1//EN"
  "http://www.w3.org/Graphics/SVG/1.1/DTD/svg11.dtd">
<svg xmlns:xlink="http://www.w3.org/1999/xlink" width="576pt" height="360pt" viewBox="0 0 576 360" xmlns="http://www.w3.org/2000/svg" version="1.1">
 <metadata>
  <rdf:RDF xmlns:dc="http://purl.org/dc/elements/1.1/" xmlns:cc="http://creativecommons.org/ns#" xmlns:rdf="http://www.w3.org/1999/02/22-rdf-syntax-ns#">
   <cc:Work>
    <dc:type rdf:resource="http://purl.org/dc/dcmitype/StillImage"/>
    <dc:date>2022-12-22T12:02:32.484870</dc:date>
    <dc:format>image/svg+xml</dc:format>
    <dc:creator>
     <cc:Agent>
      <dc:title>Matplotlib v3.5.3, https://matplotlib.org/</dc:title>
     </cc:Agent>
    </dc:creator>
   </cc:Work>
  </rdf:RDF>
 </metadata>
 <defs>
  <style type="text/css">*{stroke-linejoin: round; stroke-linecap: butt}</style>
 </defs>
 <g id="figure_1">
  <g id="patch_1">
   <path d="M 0 360 
L 576 360 
L 576 0 
L 0 0 
z
" style="fill: #ffffff"/>
  </g>
  <g id="axes_1">
   <g id="patch_2">
    <path d="M 72 320.4 
L 518.4 320.4 
L 518.4 43.2 
L 72 43.2 
z
" style="fill: #e5e5e5"/>
   </g>
   <g id="matplotlib.axis_1">
    <g id="xtick_1">
     <g id="line2d_1">
      <path d="M 110.817391 320.4 
L 110.817391 43.2 
" clip-path="url(#p8ae0cd2438)" style="fill: none; stroke: #ffffff; stroke-width: 0.8; stroke-linecap: square"/>
     </g>
     <g id="line2d_2">
      <defs>
       <path id="ma8d75ebd9b" d="M 0 0 
L 0 3.5 
" style="stroke: #555555; stroke-width: 0.8"/>
      </defs>
      <g>
       <use xlink:href="#ma8d75ebd9b" x="110.817391" y="320.4" style="fill: #555555; stroke: #555555; stroke-width: 0.8"/>
      </g>
     </g>
     <g id="text_1">
      <!-- 0.0 -->
      <g style="fill: #555555" transform="translate(102.865829 334.998438)scale(0.1 -0.1)">
       <defs>
        <path id="DejaVuSans-30" d="M 2034 4250 
Q 1547 4250 1301 3770 
Q 1056 3291 1056 2328 
Q 1056 1369 1301 889 
Q 1547 409 2034 409 
Q 2525 409 2770 889 
Q 3016 1369 3016 2328 
Q 3016 3291 2770 3770 
Q 2525 4250 2034 4250 
z
M 2034 4750 
Q 2819 4750 3233 4129 
Q 3647 3509 3647 2328 
Q 3647 1150 3233 529 
Q 2819 -91 2034 -91 
Q 1250 -91 836 529 
Q 422 1150 422 2328 
Q 422 3509 836 4129 
Q 1250 4750 2034 4750 
z
" transform="scale(0.015625)"/>
        <path id="DejaVuSans-2e" d="M 684 794 
L 1344 794 
L 1344 0 
L 684 0 
L 684 794 
z
" transform="scale(0.015625)"/>
       </defs>
       <use xlink:href="#DejaVuSans-30"/>
       <use xlink:href="#DejaVuSans-2e" x="63.623047"/>
       <use xlink:href="#DejaVuSans-30" x="95.410156"/>
      </g>
     </g>
    </g>
    <g id="xtick_2">
     <g id="line2d_3">
      <path d="M 207.86087 320.4 
L 207.86087 43.2 
" clip-path="url(#p8ae0cd2438)" style="fill: none; stroke: #ffffff; stroke-width: 0.8; stroke-linecap: square"/>
     </g>
     <g id="line2d_4">
      <g>
       <use xlink:href="#ma8d75ebd9b" x="207.86087" y="320.4" style="fill: #555555; stroke: #555555; stroke-width: 0.8"/>
      </g>
     </g>
     <g id="text_2">
      <!-- 0.5 -->
      <g style="fill: #555555" transform="translate(199.909307 334.998438)scale(0.1 -0.1)">
       <defs>
        <path id="DejaVuSans-35" d="M 691 4666 
L 3169 4666 
L 3169 4134 
L 1269 4134 
L 1269 2991 
Q 1406 3038 1543 3061 
Q 1681 3084 1819 3084 
Q 2600 3084 3056 2656 
Q 3513 2228 3513 1497 
Q 3513 744 3044 326 
Q 2575 -91 1722 -91 
Q 1428 -91 1123 -41 
Q 819 9 494 109 
L 494 744 
Q 775 591 1075 516 
Q 1375 441 1709 441 
Q 2250 441 2565 725 
Q 2881 1009 2881 1497 
Q 2881 1984 2565 2268 
Q 2250 2553 1709 2553 
Q 1456 2553 1204 2497 
Q 953 2441 691 2322 
L 691 4666 
z
" transform="scale(0.015625)"/>
       </defs>
       <use xlink:href="#DejaVuSans-30"/>
       <use xlink:href="#DejaVuSans-2e" x="63.623047"/>
       <use xlink:href="#DejaVuSans-35" x="95.410156"/>
      </g>
     </g>
    </g>
    <g id="xtick_3">
     <g id="line2d_5">
      <path d="M 304.904348 320.4 
L 304.904348 43.2 
" clip-path="url(#p8ae0cd2438)" style="fill: none; stroke: #ffffff; stroke-width: 0.8; stroke-linecap: square"/>
     </g>
     <g id="line2d_6">
      <g>
       <use xlink:href="#ma8d75ebd9b" x="304.904348" y="320.4" style="fill: #555555; stroke: #555555; stroke-width: 0.8"/>
      </g>
     </g>
     <g id="text_3">
      <!-- 1.0 -->
      <g style="fill: #555555" transform="translate(296.952785 334.998438)scale(0.1 -0.1)">
       <defs>
        <path id="DejaVuSans-31" d="M 794 531 
L 1825 531 
L 1825 4091 
L 703 3866 
L 703 4441 
L 1819 4666 
L 2450 4666 
L 2450 531 
L 3481 531 
L 3481 0 
L 794 0 
L 794 531 
z
" transform="scale(0.015625)"/>
       </defs>
       <use xlink:href="#DejaVuSans-31"/>
       <use xlink:href="#DejaVuSans-2e" x="63.623047"/>
       <use xlink:href="#DejaVuSans-30" x="95.410156"/>
      </g>
     </g>
    </g>
    <g id="xtick_4">
     <g id="line2d_7">
      <path d="M 401.947826 320.4 
L 401.947826 43.2 
" clip-path="url(#p8ae0cd2438)" style="fill: none; stroke: #ffffff; stroke-width: 0.8; stroke-linecap: square"/>
     </g>
     <g id="line2d_8">
      <g>
       <use xlink:href="#ma8d75ebd9b" x="401.947826" y="320.4" style="fill: #555555; stroke: #555555; stroke-width: 0.8"/>
      </g>
     </g>
     <g id="text_4">
      <!-- 1.5 -->
      <g style="fill: #555555" transform="translate(393.996264 334.998438)scale(0.1 -0.1)">
       <use xlink:href="#DejaVuSans-31"/>
       <use xlink:href="#DejaVuSans-2e" x="63.623047"/>
       <use xlink:href="#DejaVuSans-35" x="95.410156"/>
      </g>
     </g>
    </g>
    <g id="xtick_5">
     <g id="line2d_9">
      <path d="M 498.991304 320.4 
L 498.991304 43.2 
" clip-path="url(#p8ae0cd2438)" style="fill: none; stroke: #ffffff; stroke-width: 0.8; stroke-linecap: square"/>
     </g>
     <g id="line2d_10">
      <g>
       <use xlink:href="#ma8d75ebd9b" x="498.991304" y="320.4" style="fill: #555555; stroke: #555555; stroke-width: 0.8"/>
      </g>
     </g>
     <g id="text_5">
      <!-- 2.0 -->
      <g style="fill: #555555" transform="translate(491.039742 334.998438)scale(0.1 -0.1)">
       <defs>
        <path id="DejaVuSans-32" d="M 1228 531 
L 3431 531 
L 3431 0 
L 469 0 
L 469 531 
Q 828 903 1448 1529 
Q 2069 2156 2228 2338 
Q 2531 2678 2651 2914 
Q 2772 3150 2772 3378 
Q 2772 3750 2511 3984 
Q 2250 4219 1831 4219 
Q 1534 4219 1204 4116 
Q 875 4013 500 3803 
L 500 4441 
Q 881 4594 1212 4672 
Q 1544 4750 1819 4750 
Q 2544 4750 2975 4387 
Q 3406 4025 3406 3419 
Q 3406 3131 3298 2873 
Q 3191 2616 2906 2266 
Q 2828 2175 2409 1742 
Q 1991 1309 1228 531 
z
" transform="scale(0.015625)"/>
       </defs>
       <use xlink:href="#DejaVuSans-32"/>
       <use xlink:href="#DejaVuSans-2e" x="63.623047"/>
       <use xlink:href="#DejaVuSans-30" x="95.410156"/>
      </g>
     </g>
    </g>
   </g>
   <g id="matplotlib.axis_2">
    <g id="ytick_1">
     <g id="line2d_11">
      <path d="M 72 320.4 
L 518.4 320.4 
" clip-path="url(#p8ae0cd2438)" style="fill: none; stroke: #ffffff; stroke-width: 0.8; stroke-linecap: square"/>
     </g>
     <g id="line2d_12">
      <defs>
       <path id="mf8763c5a27" d="M 0 0 
L -3.5 0 
" style="stroke: #555555; stroke-width: 0.8"/>
      </defs>
      <g>
       <use xlink:href="#mf8763c5a27" x="72" y="320.4" style="fill: #555555; stroke: #555555; stroke-width: 0.8"/>
      </g>
     </g>
     <g id="text_6">
      <!-- −0.5 -->
      <g style="fill: #555555" transform="translate(40.717187 324.199219)scale(0.1 -0.1)">
       <defs>
        <path id="DejaVuSans-2212" d="M 678 2272 
L 4684 2272 
L 4684 1741 
L 678 1741 
L 678 2272 
z
" transform="scale(0.015625)"/>
       </defs>
       <use xlink:href="#DejaVuSans-2212"/>
       <use xlink:href="#DejaVuSans-30" x="83.789062"/>
       <use xlink:href="#DejaVuSans-2e" x="147.412109"/>
       <use xlink:href="#DejaVuSans-35" x="179.199219"/>
      </g>
     </g>
    </g>
    <g id="ytick_2">
     <g id="line2d_13">
      <path d="M 72 285.75 
L 518.4 285.75 
" clip-path="url(#p8ae0cd2438)" style="fill: none; stroke: #ffffff; stroke-width: 0.8; stroke-linecap: square"/>
     </g>
     <g id="line2d_14">
      <g>
       <use xlink:href="#mf8763c5a27" x="72" y="285.75" style="fill: #555555; stroke: #555555; stroke-width: 0.8"/>
      </g>
     </g>
     <g id="text_7">
      <!-- 0.0 -->
      <g style="fill: #555555" transform="translate(49.096875 289.549219)scale(0.1 -0.1)">
       <use xlink:href="#DejaVuSans-30"/>
       <use xlink:href="#DejaVuSans-2e" x="63.623047"/>
       <use xlink:href="#DejaVuSans-30" x="95.410156"/>
      </g>
     </g>
    </g>
    <g id="ytick_3">
     <g id="line2d_15">
      <path d="M 72 251.1 
L 518.4 251.1 
" clip-path="url(#p8ae0cd2438)" style="fill: none; stroke: #ffffff; stroke-width: 0.8; stroke-linecap: square"/>
     </g>
     <g id="line2d_16">
      <g>
       <use xlink:href="#mf8763c5a27" x="72" y="251.1" style="fill: #555555; stroke: #555555; stroke-width: 0.8"/>
      </g>
     </g>
     <g id="text_8">
      <!-- 0.5 -->
      <g style="fill: #555555" transform="translate(49.096875 254.899219)scale(0.1 -0.1)">
       <use xlink:href="#DejaVuSans-30"/>
       <use xlink:href="#DejaVuSans-2e" x="63.623047"/>
       <use xlink:href="#DejaVuSans-35" x="95.410156"/>
      </g>
     </g>
    </g>
    <g id="ytick_4">
     <g id="line2d_17">
      <path d="M 72 216.45 
L 518.4 216.45 
" clip-path="url(#p8ae0cd2438)" style="fill: none; stroke: #ffffff; stroke-width: 0.8; stroke-linecap: square"/>
     </g>
     <g id="line2d_18">
      <g>
       <use xlink:href="#mf8763c5a27" x="72" y="216.45" style="fill: #555555; stroke: #555555; stroke-width: 0.8"/>
      </g>
     </g>
     <g id="text_9">
      <!-- 1.0 -->
      <g style="fill: #555555" transform="translate(49.096875 220.249219)scale(0.1 -0.1)">
       <use xlink:href="#DejaVuSans-31"/>
       <use xlink:href="#DejaVuSans-2e" x="63.623047"/>
       <use xlink:href="#DejaVuSans-30" x="95.410156"/>
      </g>
     </g>
    </g>
    <g id="ytick_5">
     <g id="line2d_19">
      <path d="M 72 181.8 
L 518.4 181.8 
" clip-path="url(#p8ae0cd2438)" style="fill: none; stroke: #ffffff; stroke-width: 0.8; stroke-linecap: square"/>
     </g>
     <g id="line2d_20">
      <g>
       <use xlink:href="#mf8763c5a27" x="72" y="181.8" style="fill: #555555; stroke: #555555; stroke-width: 0.8"/>
      </g>
     </g>
     <g id="text_10">
      <!-- 1.5 -->
      <g style="fill: #555555" transform="translate(49.096875 185.599219)scale(0.1 -0.1)">
       <use xlink:href="#DejaVuSans-31"/>
       <use xlink:href="#DejaVuSans-2e" x="63.623047"/>
       <use xlink:href="#DejaVuSans-35" x="95.410156"/>
      </g>
     </g>
    </g>
    <g id="ytick_6">
     <g id="line2d_21">
      <path d="M 72 147.15 
L 518.4 147.15 
" clip-path="url(#p8ae0cd2438)" style="fill: none; stroke: #ffffff; stroke-width: 0.8; stroke-linecap: square"/>
     </g>
     <g id="line2d_22">
      <g>
       <use xlink:href="#mf8763c5a27" x="72" y="147.15" style="fill: #555555; stroke: #555555; stroke-width: 0.8"/>
      </g>
     </g>
     <g id="text_11">
      <!-- 2.0 -->
      <g style="fill: #555555" transform="translate(49.096875 150.949219)scale(0.1 -0.1)">
       <use xlink:href="#DejaVuSans-32"/>
       <use xlink:href="#DejaVuSans-2e" x="63.623047"/>
       <use xlink:href="#DejaVuSans-30" x="95.410156"/>
      </g>
     </g>
    </g>
    <g id="ytick_7">
     <g id="line2d_23">
      <path d="M 72 112.5 
L 518.4 112.5 
" clip-path="url(#p8ae0cd2438)" style="fill: none; stroke: #ffffff; stroke-width: 0.8; stroke-linecap: square"/>
     </g>
     <g id="line2d_24">
      <g>
       <use xlink:href="#mf8763c5a27" x="72" y="112.5" style="fill: #555555; stroke: #555555; stroke-width: 0.8"/>
      </g>
     </g>
     <g id="text_12">
      <!-- 2.5 -->
      <g style="fill: #555555" transform="translate(49.096875 116.299219)scale(0.1 -0.1)">
       <use xlink:href="#DejaVuSans-32"/>
       <use xlink:href="#DejaVuSans-2e" x="63.623047"/>
       <use xlink:href="#DejaVuSans-35" x="95.410156"/>
      </g>
     </g>
    </g>
    <g id="ytick_8">
     <g id="line2d_25">
      <path d="M 72 77.85 
L 518.4 77.85 
" clip-path="url(#p8ae0cd2438)" style="fill: none; stroke: #ffffff; stroke-width: 0.8; stroke-linecap: square"/>
     </g>
     <g id="line2d_26">
      <g>
       <use xlink:href="#mf8763c5a27" x="72" y="77.85" style="fill: #555555; stroke: #555555; stroke-width: 0.8"/>
      </g>
     </g>
     <g id="text_13">
      <!-- 3.0 -->
      <g style="fill: #555555" transform="translate(49.096875 81.649219)scale(0.1 -0.1)">
       <defs>
        <path id="DejaVuSans-33" d="M 2597 2516 
Q 3050 2419 3304 2112 
Q 3559 1806 3559 1356 
Q 3559 666 3084 287 
Q 2609 -91 1734 -91 
Q 1441 -91 1130 -33 
Q 819 25 488 141 
L 488 750 
Q 750 597 1062 519 
Q 1375 441 1716 441 
Q 2309 441 2620 675 
Q 2931 909 2931 1356 
Q 2931 1769 2642 2001 
Q 2353 2234 1838 2234 
L 1294 2234 
L 1294 2753 
L 1863 2753 
Q 2328 2753 2575 2939 
Q 2822 3125 2822 3475 
Q 2822 3834 2567 4026 
Q 2313 4219 1838 4219 
Q 1578 4219 1281 4162 
Q 984 4106 628 3988 
L 628 4550 
Q 988 4650 1302 4700 
Q 1616 4750 1894 4750 
Q 2613 4750 3031 4423 
Q 3450 4097 3450 3541 
Q 3450 3153 3228 2886 
Q 3006 2619 2597 2516 
z
" transform="scale(0.015625)"/>
       </defs>
       <use xlink:href="#DejaVuSans-33"/>
       <use xlink:href="#DejaVuSans-2e" x="63.623047"/>
       <use xlink:href="#DejaVuSans-30" x="95.410156"/>
      </g>
     </g>
    </g>
    <g id="ytick_9">
     <g id="line2d_27">
      <path d="M 72 43.2 
L 518.4 43.2 
" clip-path="url(#p8ae0cd2438)" style="fill: none; stroke: #ffffff; stroke-width: 0.8; stroke-linecap: square"/>
     </g>
     <g id="line2d_28">
      <g>
       <use xlink:href="#mf8763c5a27" x="72" y="43.2" style="fill: #555555; stroke: #555555; stroke-width: 0.8"/>
      </g>
     </g>
     <g id="text_14">
      <!-- 3.5 -->
      <g style="fill: #555555" transform="translate(49.096875 46.999219)scale(0.1 -0.1)">
       <use xlink:href="#DejaVuSans-33"/>
       <use xlink:href="#DejaVuSans-2e" x="63.623047"/>
       <use xlink:href="#DejaVuSans-35" x="95.410156"/>
      </g>
     </g>
    </g>
   </g>
   <g id="PolyCollection_1">
    <path d="M 13.773913 207.7875 
L 13.773913 152.347503 
L 14.356756 153.653897 
L 14.9396 154.950939 
L 15.522443 156.238662 
L 16.105287 157.517067 
L 16.68813 158.786195 
L 17.270973 160.046061 
L 17.853817 161.296684 
L 18.43666 162.538086 
L 19.019503 163.770311 
L 19.602347 164.993349 
L 20.18519 166.207242 
L 20.768033 167.412007 
L 21.350877 168.607667 
L 21.93372 169.794249 
L 22.516564 170.971776 
L 23.099413 172.140274 
L 23.682256 173.299742 
L 24.265099 174.450222 
L 24.847943 175.59173 
L 25.430786 176.7243 
L 26.01363 177.847939 
L 26.596473 178.962673 
L 27.179316 180.068543 
L 27.762165 181.165564 
L 28.345009 182.25373 
L 28.927852 183.333098 
L 29.510695 184.403667 
L 30.093539 185.465463 
L 30.676382 186.518527 
L 31.259226 187.562867 
L 31.842069 188.598516 
L 32.424912 189.625475 
L 33.007756 190.643792 
L 33.590599 191.653476 
L 34.173442 192.654544 
L 34.756286 193.647029 
L 35.339129 194.630955 
L 35.921973 195.606339 
L 36.504816 196.573197 
L 37.087659 197.531571 
L 37.670503 198.48146 
L 38.253346 199.422907 
L 38.836189 200.355928 
L 39.419033 201.28053 
L 40.001876 202.196763 
L 40.584719 203.10462 
L 41.167563 204.00415 
L 41.750412 204.895368 
L 42.333255 205.778284 
L 42.916099 206.652939 
L 43.498942 207.519341 
L 44.081785 208.377507 
L 44.664629 209.227477 
L 45.247472 210.069269 
L 45.830316 210.902899 
L 46.413165 211.7284 
L 46.996008 212.545788 
L 47.578851 213.35508 
L 48.161695 214.15631 
L 48.744538 214.949485 
L 49.327381 215.734638 
L 49.910225 216.511794 
L 50.493068 217.28097 
L 51.075912 218.04219 
L 51.658755 218.79548 
L 52.241598 219.540863 
L 52.824442 220.278349 
L 53.407285 221.007979 
L 53.990128 221.72976 
L 54.572972 222.443718 
L 55.155815 223.149886 
L 55.738659 223.848271 
L 56.321502 224.538908 
L 56.904345 225.221821 
L 57.487189 225.897013 
L 58.070032 226.56453 
L 58.652875 227.224378 
L 59.235719 227.876591 
L 59.818562 228.52118 
L 60.401411 229.158185 
L 60.984255 229.787614 
L 61.567098 230.409489 
L 62.149941 231.023837 
L 62.732785 231.630681 
L 63.315631 232.230039 
L 63.898474 232.821942 
L 64.481318 233.406406 
L 65.064164 233.983455 
L 65.647007 234.55311 
L 66.229851 235.115397 
L 66.812694 235.670335 
L 67.395537 236.217945 
L 67.978384 236.758261 
L 68.561227 237.291291 
L 69.14407 237.817067 
L 69.726911 238.335598 
L 70.309754 238.846929 
L 70.892598 239.351065 
L 71.475441 239.848034 
L 72.058284 240.337861 
L 72.641131 240.820568 
L 73.223974 241.296169 
L 73.806817 241.764695 
L 74.389658 242.226166 
L 74.972501 242.680602 
L 75.555345 243.128033 
L 76.138188 243.568479 
L 76.721031 244.001957 
L 77.303878 244.428496 
L 77.886721 244.848111 
L 78.469564 245.260832 
L 79.052411 245.666681 
L 79.635254 246.065672 
L 80.218097 246.45784 
L 80.800941 246.843196 
L 81.383784 247.22177 
L 81.96663 247.593582 
L 82.549474 247.958652 
L 83.132317 248.317007 
L 83.715163 248.66867 
L 84.298007 249.013658 
L 84.88085 249.352 
L 85.463693 249.683712 
L 86.046537 250.008819 
L 86.629381 250.32735 
L 87.212226 250.639318 
L 87.79507 250.944747 
L 88.37791 251.243666 
L 88.960754 251.536092 
L 89.543597 251.822048 
L 90.126442 252.101559 
L 90.709285 252.374644 
L 91.292128 252.64133 
L 91.874973 252.901636 
L 92.457817 253.155586 
L 93.040657 253.403199 
L 93.6235 253.644502 
L 94.206344 253.879517 
L 94.789189 254.108268 
L 95.372032 254.330771 
L 95.954875 254.547055 
L 96.53772 254.75714 
L 97.120564 254.961047 
L 97.70341 255.158804 
L 98.286253 255.350427 
L 98.869097 255.535942 
L 99.451941 255.715369 
L 100.034785 255.888735 
L 100.617628 256.056057 
L 101.200472 256.217363 
L 101.783316 256.372672 
L 102.366162 256.522008 
L 102.949006 256.665391 
L 103.53185 256.802847 
L 104.114694 256.934397 
L 104.697537 257.060062 
L 105.280381 257.179866 
L 105.863225 257.293833 
L 106.446069 257.401983 
L 107.028909 257.504339 
L 107.611753 257.600925 
L 108.194597 257.691763 
L 108.777441 257.776874 
L 109.360284 257.856283 
L 109.943128 257.93001 
L 110.525972 257.99808 
L 111.108816 258.060514 
L 111.691656 258.117333 
L 112.2745 258.168563 
L 112.857344 258.214224 
L 113.440188 258.254339 
L 114.023031 258.28893 
L 114.605875 258.318022 
L 115.188719 258.341637 
L 115.771562 258.359793 
L 116.354415 258.372519 
L 116.937258 258.379833 
L 117.520102 258.381758 
L 118.102946 258.378319 
L 118.68579 258.369535 
L 119.268633 258.355433 
L 119.851477 258.336032 
L 120.434321 258.311353 
L 121.017162 258.281425 
L 121.600005 258.246266 
L 122.182849 258.205897 
L 122.765693 258.160343 
L 123.348537 258.109627 
L 123.93138 258.053771 
L 124.514225 257.992795 
L 125.097068 257.926726 
L 125.679909 257.855583 
L 126.262752 257.779392 
L 126.845595 257.69817 
L 127.42844 257.611946 
L 128.011284 257.520736 
L 128.594127 257.424567 
L 129.176972 257.323462 
L 129.759815 257.21744 
L 130.342656 257.106527 
L 130.925499 256.990742 
L 131.508342 256.87011 
L 132.091187 256.744653 
L 132.674031 256.614395 
L 133.256874 256.479355 
L 133.839719 256.339557 
L 134.422562 256.195027 
L 135.005403 256.045784 
L 135.588246 255.891849 
L 136.171089 255.733247 
L 136.753933 255.570001 
L 137.336776 255.402133 
L 137.919622 255.229662 
L 138.502466 255.052616 
L 139.085309 254.871016 
L 139.668161 254.684881 
L 140.251004 254.494237 
L 140.833848 254.299108 
L 141.416691 254.099513 
L 141.999535 253.895476 
L 142.582381 253.687017 
L 143.165224 253.474165 
L 143.748068 253.256934 
L 144.330908 253.035356 
L 144.913751 252.809445 
L 145.496595 252.579228 
L 146.079438 252.344728 
L 146.662281 252.105963 
L 147.245128 251.862959 
L 147.827971 251.615739 
L 148.410814 251.364323 
L 148.993655 251.108736 
L 149.576498 250.849 
L 150.159342 250.585137 
L 150.742185 250.317168 
L 151.325028 250.045119 
L 151.907875 249.769013 
L 152.490718 249.488863 
L 153.073561 249.204706 
L 153.656413 248.916547 
L 154.239257 248.624427 
L 154.8221 248.328362 
L 155.404943 248.028369 
L 155.987787 247.724472 
L 156.570633 247.416701 
L 157.153476 247.105068 
L 157.73632 246.789605 
L 158.31916 246.470331 
L 158.902004 246.147268 
L 159.484847 245.820438 
L 160.06769 245.489862 
L 160.650534 245.155564 
L 161.233377 244.817569 
L 161.816221 244.475894 
L 162.399064 244.130572 
L 162.981907 243.781614 
L 163.564751 243.429047 
L 164.147594 243.072894 
L 164.730437 242.713176 
L 165.313281 242.349915 
L 165.896124 241.983142 
L 166.478967 241.612867 
L 167.061811 241.239122 
L 167.644654 240.861923 
L 168.227498 240.481297 
L 168.810341 240.097258 
L 169.393184 239.709849 
L 169.976028 239.319065 
L 170.558871 238.924952 
L 171.141714 238.527514 
L 171.724558 238.126787 
L 172.307401 237.72279 
L 172.890244 237.315545 
L 173.473088 236.905071 
L 174.055931 236.491395 
L 174.638775 236.074539 
L 175.221618 235.654523 
L 175.804461 235.231368 
L 176.387305 234.805106 
L 176.97016 234.375738 
L 177.553003 233.943314 
L 178.135846 233.507841 
L 178.71869 233.069344 
L 179.301533 232.627858 
L 179.884376 232.18338 
L 180.46722 231.735953 
L 181.050063 231.285585 
L 181.632907 230.832318 
L 182.21575 230.376159 
L 182.798593 229.917125 
L 183.381437 229.455258 
L 183.96428 228.990565 
L 184.547123 228.52308 
L 185.129967 228.052811 
L 185.71281 227.579791 
L 186.295653 227.104045 
L 186.878497 226.625585 
L 187.46134 226.14444 
L 188.044184 225.660639 
L 188.627027 225.174191 
L 189.20987 224.685123 
L 189.792714 224.193466 
L 190.375557 223.699231 
L 190.958412 223.202435 
L 191.541255 222.703136 
L 192.124099 222.20131 
L 192.706942 221.697013 
L 193.289785 221.190254 
L 193.872629 220.68105 
L 194.455472 220.169442 
L 195.038316 219.655438 
L 195.621159 219.139063 
L 196.204002 218.620334 
L 196.786846 218.099283 
L 197.369689 217.575936 
L 197.952532 217.050292 
L 198.535376 216.522409 
L 199.118219 215.992288 
L 199.701062 215.459944 
L 200.283906 214.92542 
L 200.866749 214.388722 
L 201.449593 213.849885 
L 202.032436 213.308917 
L 202.615279 212.765858 
L 203.198123 212.220718 
L 203.780966 211.673521 
L 204.363809 211.124291 
L 204.946653 210.573054 
L 205.529496 210.019826 
L 206.112339 209.46464 
L 206.695183 208.907496 
L 207.278026 208.348452 
L 207.86087 207.7875 
L 208.443713 207.224672 
L 209.026556 206.660003 
L 209.6094 206.093491 
L 210.192243 205.525169 
L 210.775086 204.95508 
L 211.35793 204.383215 
L 211.940773 203.809615 
L 212.523616 203.234288 
L 213.10646 202.657284 
L 213.689303 202.078603 
L 214.272147 201.498262 
L 214.85499 200.916293 
L 215.437833 200.33273 
L 216.020677 199.747573 
L 216.60352 199.160878 
L 217.186363 198.572631 
L 217.769207 197.982864 
L 218.35205 197.391609 
L 218.934917 196.798868 
L 219.51776 196.204706 
L 220.100603 195.609106 
L 220.683447 195.012118 
L 221.26629 194.413743 
L 221.849133 193.814021 
L 222.431977 193.212952 
L 223.01482 192.61057 
L 223.597664 192.006899 
L 224.180507 191.401972 
L 224.76335 190.79579 
L 225.346194 190.188385 
L 225.929037 189.579799 
L 226.51188 188.970014 
L 227.094724 188.35909 
L 227.677567 187.747034 
L 228.260411 187.133863 
L 228.843254 186.519601 
L 229.426097 185.904282 
L 230.008941 185.287922 
L 230.591784 184.670537 
L 231.174627 184.052161 
L 231.757471 183.43281 
L 232.340314 182.812501 
L 232.923157 182.191275 
L 233.506001 181.569132 
L 234.088844 180.946114 
L 234.671688 180.322219 
L 235.254531 179.697507 
L 235.837374 179.071961 
L 236.420218 178.445629 
L 237.003061 177.818529 
L 237.585904 177.19067 
L 238.168748 176.562083 
L 238.751591 175.932802 
L 239.334434 175.302844 
L 239.917278 174.672217 
L 240.500121 174.040962 
L 241.082965 173.409087 
L 241.665808 172.776618 
L 242.248651 172.143586 
L 242.831495 171.510002 
L 243.414338 170.875896 
L 243.997181 170.241295 
L 244.580025 169.606224 
L 245.162868 168.970689 
L 245.745711 168.334709 
L 246.328555 167.698307 
L 246.911398 167.06155 
L 247.494242 166.424413 
L 248.077085 165.786929 
L 248.659928 165.149139 
L 249.242772 164.511027 
L 249.825615 163.872643 
L 250.408458 163.23401 
L 250.991302 162.595163 
L 251.574145 161.956093 
L 252.156989 161.316833 
L 252.739832 160.677424 
L 253.322675 160.037866 
L 253.905519 159.398185 
L 254.488362 158.75842 
L 255.071205 158.118557 
L 255.654049 157.478677 
L 256.236892 156.838748 
L 256.819735 156.19881 
L 257.402579 155.558906 
L 257.985422 154.919026 
L 258.568266 154.279204 
L 259.151109 153.639481 
L 259.733952 152.999866 
L 260.316796 152.360391 
L 260.899662 151.720998 
L 261.482505 151.081846 
L 262.065349 150.442866 
L 262.648192 149.804135 
L 263.231036 149.165618 
L 263.813879 148.527391 
L 264.396722 147.889419 
L 264.979566 147.25177 
L 265.562409 146.614476 
L 266.145252 145.97752 
L 266.728096 145.340929 
L 267.310939 144.70475 
L 267.893783 144.068984 
L 268.476626 143.433664 
L 269.059469 142.798824 
L 269.642313 142.164479 
L 270.225156 141.53063 
L 270.807999 140.897326 
L 271.390843 140.264568 
L 271.973686 139.632404 
L 272.556529 139.000818 
L 273.139373 138.369877 
L 273.722216 137.73958 
L 274.30506 137.109944 
L 274.887903 136.481035 
L 275.470746 135.852804 
L 276.05359 135.225316 
L 276.636433 134.598604 
L 277.219276 133.972636 
L 277.80212 133.347511 
L 278.384963 132.723229 
L 278.967806 132.099756 
L 279.55065 131.477175 
L 280.133493 130.855486 
L 280.716337 130.234706 
L 281.29918 129.614885 
L 281.882023 128.996021 
L 282.464867 128.378116 
L 283.04771 127.761252 
L 283.630553 127.145412 
L 284.213397 126.530614 
L 284.79624 125.916905 
L 285.379084 125.304288 
L 285.961927 124.692793 
L 286.54477 124.082439 
L 287.127614 123.473258 
L 287.710457 122.865233 
L 288.2933 122.258464 
L 288.876144 121.652885 
L 289.458987 121.048578 
L 290.04183 120.445576 
L 290.624674 119.843847 
L 291.207517 119.243439 
L 291.790361 118.644386 
L 292.373204 118.046688 
L 292.956047 117.450394 
L 293.538914 116.855505 
L 294.121757 116.26202 
L 294.7046 115.670039 
L 295.287444 115.079544 
L 295.870287 114.490554 
L 296.453131 113.903066 
L 297.035974 113.317132 
L 297.618817 112.732768 
L 298.201661 112.150006 
L 298.784504 111.568863 
L 299.367347 110.98934 
L 299.950191 110.411485 
L 300.533034 109.835332 
L 301.115878 109.260865 
L 301.698721 108.688132 
L 302.281564 108.117117 
L 302.864408 107.547937 
L 303.447251 106.980508 
L 304.030094 106.414913 
L 304.612938 105.851152 
L 305.195781 105.289291 
L 305.778624 104.729264 
L 306.361468 104.171153 
L 306.944311 103.615009 
L 307.527131 103.060815 
L 308.109975 102.50857 
L 308.692818 101.958341 
L 309.275662 101.410127 
L 309.858505 100.863962 
L 310.441348 100.319846 
L 311.024192 99.777829 
L 311.607035 99.237959 
L 312.189878 98.700171 
L 312.772722 98.164548 
L 313.355565 97.631138 
L 313.938408 97.09986 
L 314.521252 96.570879 
L 315.104095 96.044112 
L 315.686939 95.519591 
L 316.269782 94.997401 
L 316.852648 94.477507 
L 317.435492 93.959926 
L 318.018335 93.44474 
L 318.601178 92.931951 
L 319.184022 92.421524 
L 319.766865 91.913526 
L 320.349709 91.408023 
L 320.932552 90.904966 
L 321.515395 90.40437 
L 322.098239 89.906335 
L 322.681082 89.410828 
L 323.263925 88.917882 
L 323.846769 88.427513 
L 324.429612 87.939739 
L 325.012456 87.454608 
L 325.595299 86.972153 
L 326.178142 86.492343 
L 326.760986 86.015258 
L 327.343829 85.540834 
L 327.926672 85.069202 
L 328.509516 84.600345 
L 329.092359 84.134248 
L 329.675202 83.670976 
L 330.258046 83.210497 
L 330.840889 82.752909 
L 331.423733 82.298179 
L 332.006576 81.846374 
L 332.589419 81.397477 
L 333.172263 80.951504 
L 333.755106 80.508521 
L 334.337949 80.068513 
L 334.920793 79.631545 
L 335.503636 79.197601 
L 336.086479 78.766713 
L 336.669323 78.338898 
L 337.252166 77.914173 
L 337.83501 77.492587 
L 338.417853 77.074141 
L 339.000696 76.65885 
L 339.58354 76.246798 
L 340.166383 75.837918 
L 340.749226 75.432309 
L 341.33207 75.029939 
L 341.914913 74.63089 
L 342.497756 74.235062 
L 343.0806 73.842622 
L 343.663443 73.45352 
L 344.246287 73.06782 
L 344.82913 72.685475 
L 345.411973 72.306534 
L 345.994817 71.931046 
L 346.57766 71.55906 
L 347.160503 71.190545 
L 347.743347 70.825498 
L 348.32619 70.464021 
L 348.909034 70.106096 
L 349.491877 69.751724 
L 350.07472 69.40097 
L 350.657564 69.053817 
L 351.240407 68.710316 
L 351.82325 68.370467 
L 352.406094 68.034335 
L 352.988937 67.701871 
L 353.57178 67.373207 
L 354.154647 67.048212 
L 354.73749 66.727049 
L 355.320334 66.409654 
L 355.903177 66.096108 
L 356.48602 65.786395 
L 357.068864 65.480582 
L 357.651707 65.178652 
L 358.234551 64.880604 
L 358.817394 64.586522 
L 359.400237 64.296355 
L 359.983081 64.010204 
L 360.565924 63.728083 
L 361.148767 63.449912 
L 361.731611 63.175855 
L 362.314454 62.905813 
L 362.897297 62.639918 
L 363.480141 62.37812 
L 364.062984 62.120437 
L 364.645828 61.866933 
L 365.228671 61.617594 
L 365.811514 61.3725 
L 366.394358 61.131587 
L 366.977201 60.895003 
L 367.560044 60.662632 
L 368.142888 60.43454 
L 368.725731 60.21081 
L 369.308574 59.991392 
L 369.891418 59.776386 
L 370.474261 59.565742 
L 371.057105 59.359443 
L 371.639948 59.157622 
L 372.222791 58.960295 
L 372.805635 58.767346 
L 373.388478 58.578974 
L 373.971321 58.395129 
L 374.554165 58.215795 
L 375.137008 58.041038 
L 375.719851 57.87084 
L 376.302695 57.705286 
L 376.885538 57.544374 
L 377.468382 57.388138 
L 378.051225 57.236479 
L 378.634068 57.089611 
L 379.216912 56.947453 
L 379.799755 56.810036 
L 380.382598 56.67741 
L 380.965442 56.549527 
L 381.548285 56.426452 
L 382.131129 56.308267 
L 382.713972 56.194923 
L 383.296815 56.08642 
L 383.879659 55.982875 
L 384.462502 55.884236 
L 385.045345 55.790504 
L 385.628189 55.701779 
L 386.211032 55.618093 
L 386.793875 55.539364 
L 387.376719 55.465707 
L 387.959562 55.397089 
L 388.542406 55.33356 
L 389.125249 55.27517 
L 389.708092 55.221885 
L 390.290936 55.173723 
L 390.873779 55.130731 
L 391.456646 55.093011 
L 392.039489 55.060445 
L 392.622332 55.03315 
L 393.205176 55.011093 
L 393.788019 54.994355 
L 394.370862 54.982889 
L 394.953706 54.976792 
L 395.536549 54.976016 
L 396.119392 54.980609 
L 396.702236 54.990671 
L 397.285079 55.006119 
L 397.867923 55.027004 
L 398.450766 55.053357 
L 399.033609 55.085163 
L 399.616453 55.122536 
L 400.199296 55.165379 
L 400.782139 55.213872 
L 401.364983 55.2679 
L 401.947826 55.327497 
L 402.530669 55.392744 
L 403.113513 55.463625 
L 403.696356 55.540239 
L 404.2792 55.622471 
L 404.862043 55.710403 
L 405.444886 55.804135 
L 406.02773 55.9036 
L 406.610573 56.008864 
L 407.193416 56.119911 
L 407.77626 56.236791 
L 408.359103 56.359569 
L 408.941946 56.488097 
L 409.52479 56.622622 
L 410.107633 56.763046 
L 410.690477 56.909385 
L 411.27332 57.061755 
L 411.856163 57.220023 
L 412.439007 57.384305 
L 413.02185 57.554651 
L 413.604693 57.731028 
L 414.187537 57.913501 
L 414.77038 58.102138 
L 415.353224 58.296821 
L 415.936067 58.497601 
L 416.51891 58.704611 
L 417.101754 58.917832 
L 417.684597 59.137217 
L 418.26744 59.362797 
L 418.850284 59.594722 
L 419.433127 59.83281 
L 420.01597 60.077325 
L 420.598814 60.328053 
L 421.181657 60.585241 
L 421.764501 60.848724 
L 422.347344 61.118551 
L 422.930187 61.394839 
L 423.513031 61.67762 
L 424.095874 61.966811 
L 424.678717 62.262529 
L 425.261561 62.564675 
L 425.844404 62.873297 
L 426.427247 63.188577 
L 427.010091 63.510351 
L 427.592934 63.8388 
L 428.175778 64.173842 
L 428.758621 64.515508 
L 429.341464 64.863834 
L 429.924308 65.218851 
L 430.507151 65.580543 
L 431.089994 65.948959 
L 431.672838 66.324134 
L 432.255681 66.706115 
L 432.838524 67.094821 
L 433.421368 67.490417 
L 434.004211 67.892887 
L 434.587055 68.302147 
L 435.169898 68.718297 
L 435.752741 69.141369 
L 436.335585 69.571398 
L 436.918428 70.008366 
L 437.501271 70.452257 
L 438.084138 70.903236 
L 438.666981 71.361221 
L 439.249825 71.826211 
L 439.832668 72.29819 
L 440.415511 72.77739 
L 440.998355 73.263644 
L 441.581198 73.757053 
L 442.164041 74.257599 
L 442.746885 74.765267 
L 443.329728 75.28022 
L 443.912572 75.802378 
L 444.495415 76.331789 
L 445.078258 76.868486 
L 445.661102 77.412454 
L 446.243945 77.96374 
L 446.826788 78.522313 
L 447.409632 79.088288 
L 447.992475 79.661583 
L 448.575318 80.242362 
L 449.158162 80.830609 
L 449.741005 81.426176 
L 450.323849 82.029293 
L 450.906692 82.639879 
L 451.489535 83.257982 
L 452.072379 83.883636 
L 452.655222 84.516824 
L 453.238065 85.157596 
L 453.820909 85.806051 
L 454.403752 86.462041 
L 454.986596 87.125812 
L 455.569439 87.797134 
L 456.152282 88.476188 
L 456.735149 89.162959 
L 457.317992 89.857412 
L 457.900835 90.55973 
L 458.483679 91.269764 
L 459.066522 91.987679 
L 459.649366 92.713393 
L 460.232209 93.446888 
L 460.815052 94.188331 
L 461.397896 94.937705 
L 461.980739 95.694927 
L 462.563582 96.460162 
L 463.146426 97.233328 
L 463.729269 98.014409 
L 464.312113 98.803635 
L 464.894956 99.600857 
L 465.477799 100.40606 
L 466.060643 101.219409 
L 466.643486 102.04087 
L 467.226329 102.87041 
L 467.809173 103.708146 
L 468.392016 104.553928 
L 468.974859 105.408054 
L 469.557703 106.270358 
L 470.140546 107.140875 
L 470.72339 108.019652 
L 471.306233 108.90674 
L 471.889076 109.80204 
L 472.47192 110.705799 
L 473.054763 111.617803 
L 473.637606 112.538216 
L 474.22045 113.467023 
L 474.803293 114.404274 
L 475.386136 115.349934 
L 475.96898 116.304053 
L 476.551823 117.266615 
L 477.134667 118.23772 
L 477.71751 119.217416 
L 478.300353 120.205621 
L 478.883197 121.202369 
L 479.46604 122.207774 
L 480.048883 123.22182 
L 480.631727 124.244342 
L 481.21457 125.275786 
L 481.797413 126.315674 
L 482.380257 127.364367 
L 482.9631 128.421851 
L 483.545944 129.487976 
L 484.128787 130.563039 
L 484.71163 131.646695 
L 485.294474 132.739387 
L 485.877317 133.840689 
L 486.46016 134.951044 
L 487.043004 136.070173 
L 487.625847 137.198372 
L 488.208691 138.335428 
L 488.791534 139.481323 
L 489.374377 140.636355 
L 489.957221 141.800292 
L 490.540064 142.973301 
L 491.122907 144.155429 
L 491.705751 145.34653 
L 492.288594 146.546767 
L 492.871437 147.756125 
L 493.454281 148.974528 
L 494.037124 150.202127 
L 494.619968 151.438969 
L 495.202811 152.684998 
L 495.785654 153.940156 
L 496.368498 155.20469 
L 496.951341 156.478477 
L 497.534184 157.761591 
L 498.117028 159.053949 
L 498.699871 160.355559 
L 499.282738 161.666695 
L 499.865558 162.987075 
L 500.448424 164.317104 
L 501.031245 165.656393 
L 501.614111 167.005192 
L 502.196931 168.363375 
L 502.779798 169.731084 
L 503.362618 171.108292 
L 503.945485 172.495167 
L 504.528305 173.891417 
L 505.111171 175.297458 
L 505.693991 176.712875 
L 506.276858 178.138345 
L 506.859678 179.57292 
L 507.442545 181.017557 
L 508.025365 182.471702 
L 508.608231 183.935761 
L 509.191052 185.409477 
L 509.773918 186.892966 
L 510.356738 188.386104 
L 510.939605 189.889164 
L 511.522425 191.401997 
L 512.105292 192.925008 
L 512.688112 194.457536 
L 513.270978 196.000249 
L 513.853799 197.552472 
L 514.436665 199.115136 
L 515.019485 200.687318 
L 515.602352 202.269817 
L 516.185172 203.862222 
L 516.768039 205.464681 
L 517.350859 207.077177 
L 517.933725 208.699719 
L 518.516546 210.332438 
L 519.099412 211.975212 
L 519.682232 213.628155 
L 520.265099 215.291275 
L 520.847919 216.964706 
L 521.430786 218.648323 
L 522.013606 220.341977 
L 522.596472 222.046214 
L 523.179292 223.760356 
L 523.762159 225.485204 
L 524.344979 227.220098 
L 524.927846 228.965575 
L 525.510666 230.721221 
L 526.093532 232.487442 
L 526.676399 234.263981 
L 527.259265 236.050962 
L 527.842086 237.848377 
L 528.424952 239.656498 
L 529.007772 241.474797 
L 529.590639 243.303943 
L 530.173459 245.143391 
L 530.756326 246.993546 
L 531.339146 248.854274 
L 531.922012 250.725718 
L 532.504833 252.607593 
L 533.087699 254.500318 
L 533.670519 256.403476 
L 534.253386 258.317741 
L 534.836206 260.242577 
L 535.419073 262.177991 
L 536.001893 264.124372 
L 536.584759 266.081596 
L 537.16758 268.049522 
L 537.750446 270.028423 
L 538.333266 272.018159 
L 538.916133 274.018742 
L 539.498953 276.030155 
L 540.081819 278.052675 
L 540.66464 280.08603 
L 541.247506 282.130492 
L 541.830326 284.185789 
L 542.413193 286.252457 
L 542.996013 288.329695 
L 543.57888 290.418437 
L 544.1617 292.518014 
L 544.744566 294.628834 
L 545.327387 296.750749 
L 545.910253 298.883903 
L 546.493073 301.028024 
L 547.07594 303.183517 
L 547.65876 305.350241 
L 548.241627 307.528336 
L 548.824447 309.717398 
L 549.407313 311.918096 
L 549.990134 314.129893 
L 550.573 316.353198 
L 551.15582 318.587729 
L 551.738687 320.833631 
L 552.321507 323.091029 
L 552.904374 325.359936 
L 553.487194 327.640069 
L 554.07006 329.931967 
L 554.65288 332.23524 
L 555.235747 334.550005 
L 555.818567 336.876269 
L 556.401434 339.214305 
L 556.984254 341.563568 
L 557.56712 343.924728 
L 558.149941 346.297527 
L 558.732807 348.68195 
L 559.315627 351.078005 
L 559.898494 353.485832 
L 560.481314 355.905274 
L 561.064181 358.336629 
L 561.647001 360.779607 
L 562.229867 363.234622 
L 562.812688 365.701129 
L 563.395554 368.179804 
L 563.978374 370.669962 
L 564.561241 373.172429 
L 565.144061 375.686388 
L 565.726928 378.212639 
L 566.309748 380.750531 
L 566.892614 383.300706 
L 567.475435 385.862514 
L 568.058301 388.436755 
L 568.641121 391.022619 
L 569.223988 393.620908 
L 569.806808 396.230969 
L 570.389675 398.853323 
L 570.972495 401.487821 
L 571.555361 404.134628 
L 572.138181 406.793182 
L 572.721048 409.46431 
L 573.303868 412.14745 
L 573.886735 414.843048 
L 574.469555 417.550641 
L 575.052421 420.270808 
L 575.635242 423.003118 
L 576.218108 425.74773 
L 576.800928 428.504758 
L 577.383795 431.274227 
L 577.966615 434.055989 
L 578.549482 436.850292 
L 579.132302 439.656904 
L 579.715168 442.476205 
L 580.297989 445.30765 
L 580.880855 448.152065 
L 581.463675 451.00864 
L 582.046542 453.878021 
L 582.629362 456.759842 
L 583.212229 459.654353 
L 583.795049 462.561405 
L 584.377915 465.481162 
L 584.960736 468.413476 
L 585.543602 471.358728 
L 586.126422 474.31642 
L 586.709289 477.287067 
L 587.292109 480.270386 
L 587.874975 483.266543 
L 588.457796 486.275389 
L 589.040662 489.297304 
L 589.623482 492.331793 
L 590.206349 495.379367 
L 590.789169 498.439747 
L 591.372036 501.513229 
L 591.954856 504.599267 
L 592.537722 507.69864 
L 593.120543 510.810718 
L 593.703409 513.936014 
L 594.286229 517.074115 
L 594.869096 520.225582 
L 595.451916 523.389854 
L 596.034783 526.567493 
L 596.034783 582.007507 
L 596.034783 582.007507 
L 595.451916 578.829851 
L 594.869096 575.665579 
L 594.286229 572.514128 
L 593.703409 569.376027 
L 593.120543 566.250714 
L 592.537722 563.138653 
L 591.954856 560.039281 
L 591.372036 556.953242 
L 590.789169 553.87976 
L 590.206349 550.819381 
L 589.623482 547.771806 
L 589.040662 544.737317 
L 588.457796 541.715402 
L 587.874975 538.706556 
L 587.292109 535.710399 
L 586.709289 532.72708 
L 586.126422 529.756434 
L 585.543602 526.798741 
L 584.960736 523.85349 
L 584.377915 520.921175 
L 583.795049 518.001418 
L 583.212229 515.094367 
L 582.629362 512.199856 
L 582.046542 509.318034 
L 581.463675 506.448653 
L 580.880855 503.592078 
L 580.297989 500.747663 
L 579.715168 497.916218 
L 579.132302 495.096917 
L 578.549482 492.290305 
L 577.966615 489.496002 
L 577.383795 486.71424 
L 576.800928 483.944771 
L 576.218108 481.187743 
L 575.635242 478.443123 
L 575.052421 475.710813 
L 574.469555 472.990646 
L 573.886735 470.283053 
L 573.303868 467.587455 
L 572.721048 464.904315 
L 572.138181 462.233187 
L 571.555361 459.574633 
L 570.972495 456.927826 
L 570.389675 454.293328 
L 569.806808 451.670974 
L 569.223988 449.060913 
L 568.641121 446.462615 
L 568.058301 443.87676 
L 567.475435 441.302519 
L 566.892614 438.740703 
L 566.309748 436.190536 
L 565.726928 433.652644 
L 565.144061 431.126385 
L 564.561241 428.612434 
L 563.978374 426.109967 
L 563.395554 423.6198 
L 562.812688 421.141125 
L 562.229867 418.674619 
L 561.647001 416.219604 
L 561.064181 413.776626 
L 560.481314 411.345271 
L 559.898494 408.925829 
L 559.315627 406.518002 
L 558.732807 404.121947 
L 558.149941 401.737524 
L 557.56712 399.364724 
L 556.984254 397.003565 
L 556.401434 394.654302 
L 555.818567 392.316265 
L 555.235747 389.990001 
L 554.65288 387.675237 
L 554.07006 385.371964 
L 553.487194 383.080066 
L 552.904374 380.799933 
L 552.321507 378.531034 
L 551.738687 376.273636 
L 551.15582 374.027728 
L 550.573 371.793196 
L 549.990134 369.569892 
L 549.407313 367.358095 
L 548.824447 365.157401 
L 548.241627 362.968339 
L 547.65876 360.79024 
L 547.07594 358.623516 
L 546.493073 356.468027 
L 545.910253 354.323906 
L 545.327387 352.190748 
L 544.744566 350.068833 
L 544.1617 347.958013 
L 543.57888 345.858436 
L 542.996013 343.769698 
L 542.413193 341.69246 
L 541.830326 339.625787 
L 541.247506 337.570491 
L 540.66464 335.526033 
L 540.081819 333.492678 
L 539.498953 331.470153 
L 538.916133 329.45874 
L 538.333266 327.458158 
L 537.750446 325.468422 
L 537.16758 323.489525 
L 536.584759 321.521599 
L 536.001893 319.564373 
L 535.419073 317.617992 
L 534.836206 315.682578 
L 534.253386 313.757742 
L 533.670519 311.843477 
L 533.087699 309.940318 
L 532.504833 308.047594 
L 531.922012 306.165717 
L 531.339146 304.294277 
L 530.756326 302.433549 
L 530.173459 300.58339 
L 529.590639 298.743942 
L 529.007772 296.9148 
L 528.424952 295.096501 
L 527.842086 293.288375 
L 527.259265 291.49096 
L 526.676399 289.703979 
L 526.093532 287.927445 
L 525.510666 286.16122 
L 524.927846 284.405574 
L 524.344979 282.660101 
L 523.762159 280.925207 
L 523.179292 279.200354 
L 522.596472 277.486213 
L 522.013606 275.781976 
L 521.430786 274.088322 
L 520.847919 272.404709 
L 520.265099 270.731278 
L 519.682232 269.068153 
L 519.099412 267.41521 
L 518.516546 265.772441 
L 517.933725 264.139722 
L 517.350859 262.517176 
L 516.768039 260.90468 
L 516.185172 259.302221 
L 515.602352 257.709816 
L 515.019485 256.12732 
L 514.436665 254.555139 
L 513.853799 252.99247 
L 513.270978 251.440248 
L 512.688112 249.89754 
L 512.105292 248.365013 
L 511.522425 246.841994 
L 510.939605 245.329161 
L 510.356738 243.826101 
L 509.773918 242.332963 
L 509.191052 240.849474 
L 508.608231 239.375757 
L 508.025365 237.911699 
L 507.442545 236.457553 
L 506.859678 235.012917 
L 506.276858 233.578342 
L 505.693991 232.152871 
L 505.111171 230.737455 
L 504.528305 229.331414 
L 503.945485 227.935163 
L 503.362618 226.548289 
L 502.779798 225.17108 
L 502.196931 223.803372 
L 501.614111 222.445189 
L 501.031245 221.09639 
L 500.448424 219.7571 
L 499.865558 218.427071 
L 499.282738 217.106691 
L 498.699871 215.795556 
L 498.117028 214.493945 
L 497.534184 213.201587 
L 496.951341 211.918474 
L 496.368498 210.644687 
L 495.785654 209.380153 
L 495.202811 208.124995 
L 494.619968 206.878966 
L 494.037124 205.642123 
L 493.454281 204.414525 
L 492.871437 203.196121 
L 492.288594 201.986772 
L 491.705751 200.786535 
L 491.122907 199.595434 
L 490.540064 198.413306 
L 489.957221 197.240297 
L 489.374377 196.07636 
L 488.791534 194.921328 
L 488.208691 193.775424 
L 487.625847 192.638377 
L 487.043004 191.510178 
L 486.46016 190.391041 
L 485.877317 189.280693 
L 485.294474 188.179392 
L 484.71163 187.086691 
L 484.128787 186.003044 
L 483.545944 184.927981 
L 482.9631 183.861848 
L 482.380257 182.804372 
L 481.797413 181.755679 
L 481.21457 180.715783 
L 480.631727 179.684347 
L 480.048883 178.661825 
L 479.46604 177.647779 
L 478.883197 176.642374 
L 478.300353 175.645626 
L 477.71751 174.657421 
L 477.134667 173.677725 
L 476.551823 172.70662 
L 475.96898 171.744058 
L 475.386136 170.789939 
L 474.803293 169.844279 
L 474.22045 168.907028 
L 473.637606 167.978221 
L 473.054763 167.057808 
L 472.47192 166.145804 
L 471.889076 165.242045 
L 471.306233 164.346745 
L 470.72339 163.459657 
L 470.140546 162.580879 
L 469.557703 161.710363 
L 468.974859 160.848059 
L 468.392016 159.993933 
L 467.809173 159.148151 
L 467.226329 158.310415 
L 466.643486 157.480875 
L 466.060643 156.659414 
L 465.477799 155.846065 
L 464.894956 155.040862 
L 464.312113 154.24364 
L 463.729269 153.454414 
L 463.146426 152.673333 
L 462.563582 151.900167 
L 461.980739 151.134932 
L 461.397896 150.37771 
L 460.815052 149.628336 
L 460.232209 148.886893 
L 459.649366 148.153398 
L 459.066522 147.427684 
L 458.483679 146.709777 
L 457.900835 145.999743 
L 457.317992 145.297425 
L 456.735149 144.602972 
L 456.152282 143.916201 
L 455.569439 143.237147 
L 454.986596 142.565825 
L 454.403752 141.902054 
L 453.820909 141.246065 
L 453.238065 140.59761 
L 452.655222 139.956838 
L 452.072379 139.323649 
L 451.489535 138.697995 
L 450.906692 138.079892 
L 450.323849 137.469307 
L 449.741005 136.866189 
L 449.158162 136.270622 
L 448.575318 135.682375 
L 447.992475 135.101596 
L 447.409632 134.528302 
L 446.826788 133.962327 
L 446.243945 133.403753 
L 445.661102 132.852467 
L 445.078258 132.3085 
L 444.495415 131.771802 
L 443.912572 131.242391 
L 443.329728 130.720234 
L 442.746885 130.20528 
L 442.164041 129.697612 
L 441.581198 129.197066 
L 440.998355 128.703657 
L 440.415511 128.217403 
L 439.832668 127.738203 
L 439.249825 127.266224 
L 438.666981 126.801234 
L 438.084138 126.34325 
L 437.501271 125.89227 
L 436.918428 125.448379 
L 436.335585 125.011411 
L 435.752741 124.581383 
L 435.169898 124.15831 
L 434.587055 123.74216 
L 434.004211 123.3329 
L 433.421368 122.930431 
L 432.838524 122.534835 
L 432.255681 122.146128 
L 431.672838 121.764147 
L 431.089994 121.388973 
L 430.507151 121.020556 
L 429.924308 120.658864 
L 429.341464 120.303847 
L 428.758621 119.955522 
L 428.175778 119.613855 
L 427.592934 119.278813 
L 427.010091 118.950364 
L 426.427247 118.628591 
L 425.844404 118.31331 
L 425.261561 118.004688 
L 424.678717 117.702543 
L 424.095874 117.406825 
L 423.513031 117.117633 
L 422.930187 116.834852 
L 422.347344 116.558564 
L 421.764501 116.288737 
L 421.181657 116.025254 
L 420.598814 115.768066 
L 420.01597 115.517339 
L 419.433127 115.272823 
L 418.850284 115.034736 
L 418.26744 114.802811 
L 417.684597 114.57723 
L 417.101754 114.357846 
L 416.51891 114.144624 
L 415.936067 113.937615 
L 415.353224 113.736834 
L 414.77038 113.542151 
L 414.187537 113.353515 
L 413.604693 113.171041 
L 413.02185 112.994664 
L 412.439007 112.824318 
L 411.856163 112.660036 
L 411.27332 112.501768 
L 410.690477 112.349398 
L 410.107633 112.203059 
L 409.52479 112.062635 
L 408.941946 111.92811 
L 408.359103 111.799582 
L 407.77626 111.676804 
L 407.193416 111.559925 
L 406.610573 111.448877 
L 406.02773 111.343613 
L 405.444886 111.244148 
L 404.862043 111.150417 
L 404.2792 111.062484 
L 403.696356 110.980252 
L 403.113513 110.903638 
L 402.530669 110.832757 
L 401.947826 110.76751 
L 401.364983 110.707914 
L 400.782139 110.653885 
L 400.199296 110.605392 
L 399.616453 110.562549 
L 399.033609 110.525176 
L 398.450766 110.49337 
L 397.867923 110.467017 
L 397.285079 110.446133 
L 396.702236 110.430684 
L 396.119392 110.420622 
L 395.536549 110.416029 
L 394.953706 110.416805 
L 394.370862 110.422902 
L 393.788019 110.434369 
L 393.205176 110.451106 
L 392.622332 110.473163 
L 392.039489 110.500458 
L 391.456646 110.533024 
L 390.873779 110.570745 
L 390.290936 110.613736 
L 389.708092 110.661899 
L 389.125249 110.715183 
L 388.542406 110.773574 
L 387.959562 110.837102 
L 387.376719 110.90572 
L 386.793875 110.979377 
L 386.211032 111.058106 
L 385.628189 111.141792 
L 385.045345 111.230517 
L 384.462502 111.324249 
L 383.879659 111.422888 
L 383.296815 111.526434 
L 382.713972 111.634936 
L 382.131129 111.74828 
L 381.548285 111.866465 
L 380.965442 111.98954 
L 380.382598 112.117424 
L 379.799755 112.250049 
L 379.216912 112.387466 
L 378.634068 112.529625 
L 378.051225 112.676492 
L 377.468382 112.828152 
L 376.885538 112.984387 
L 376.302695 113.145299 
L 375.719851 113.310854 
L 375.137008 113.481051 
L 374.554165 113.655808 
L 373.971321 113.835143 
L 373.388478 114.018988 
L 372.805635 114.20736 
L 372.222791 114.400308 
L 371.639948 114.597635 
L 371.057105 114.799457 
L 370.474261 115.005755 
L 369.891418 115.216399 
L 369.308574 115.431406 
L 368.725731 115.650823 
L 368.142888 115.874553 
L 367.560044 116.102645 
L 366.977201 116.335016 
L 366.394358 116.5716 
L 365.811514 116.812514 
L 365.228671 117.057607 
L 364.645828 117.306947 
L 364.062984 117.56045 
L 363.480141 117.818133 
L 362.897297 118.079931 
L 362.314454 118.345826 
L 361.731611 118.615868 
L 361.148767 118.889925 
L 360.565924 119.168097 
L 359.983081 119.450217 
L 359.400237 119.736368 
L 358.817394 120.026535 
L 358.234551 120.320617 
L 357.651707 120.618665 
L 357.068864 120.920595 
L 356.48602 121.226409 
L 355.903177 121.536121 
L 355.320334 121.849667 
L 354.73749 122.167062 
L 354.154647 122.488225 
L 353.57178 122.813221 
L 352.988937 123.141884 
L 352.406094 123.474348 
L 351.82325 123.81048 
L 351.240407 124.15033 
L 350.657564 124.49383 
L 350.07472 124.840983 
L 349.491877 125.191737 
L 348.909034 125.54611 
L 348.32619 125.904034 
L 347.743347 126.265512 
L 347.160503 126.630558 
L 346.57766 126.999074 
L 345.994817 127.371059 
L 345.411973 127.746547 
L 344.82913 128.125489 
L 344.246287 128.507834 
L 343.663443 128.893533 
L 343.0806 129.282635 
L 342.497756 129.675076 
L 341.914913 130.070903 
L 341.33207 130.469952 
L 340.749226 130.872322 
L 340.166383 131.277931 
L 339.58354 131.686811 
L 339.000696 132.098863 
L 338.417853 132.514154 
L 337.83501 132.9326 
L 337.252166 133.354186 
L 336.669323 133.778911 
L 336.086479 134.206726 
L 335.503636 134.637614 
L 334.920793 135.071558 
L 334.337949 135.508526 
L 333.755106 135.948535 
L 333.172263 136.391517 
L 332.589419 136.83749 
L 332.006576 137.286387 
L 331.423733 137.738192 
L 330.840889 138.192922 
L 330.258046 138.65051 
L 329.675202 139.11099 
L 329.092359 139.574261 
L 328.509516 140.040358 
L 327.926672 140.509215 
L 327.343829 140.980847 
L 326.760986 141.455271 
L 326.178142 141.932356 
L 325.595299 142.412167 
L 325.012456 142.894621 
L 324.429612 143.379752 
L 323.846769 143.867526 
L 323.263925 144.357895 
L 322.681082 144.850841 
L 322.098239 145.346348 
L 321.515395 145.844383 
L 320.932552 146.344979 
L 320.349709 146.848036 
L 319.766865 147.353531 
L 319.184022 147.861529 
L 318.601178 148.371956 
L 318.018335 148.884745 
L 317.435492 149.399931 
L 316.852648 149.917512 
L 316.269782 150.437406 
L 315.686939 150.959596 
L 315.104095 151.484117 
L 314.521252 152.010884 
L 313.938408 152.539865 
L 313.355565 153.071143 
L 312.772722 153.604553 
L 312.189878 154.140176 
L 311.607035 154.677964 
L 311.024192 155.217834 
L 310.441348 155.759851 
L 309.858505 156.303967 
L 309.275662 156.850132 
L 308.692818 157.398345 
L 308.109975 157.948575 
L 307.527131 158.50082 
L 306.944311 159.055014 
L 306.361468 159.611158 
L 305.778624 160.169269 
L 305.195781 160.729296 
L 304.612938 161.291157 
L 304.030094 161.854918 
L 303.447251 162.420513 
L 302.864408 162.987942 
L 302.281564 163.557122 
L 301.698721 164.128137 
L 301.115878 164.70087 
L 300.533034 165.275337 
L 299.950191 165.85149 
L 299.367347 166.429345 
L 298.784504 167.008868 
L 298.201661 167.590011 
L 297.618817 168.172773 
L 297.035974 168.757137 
L 296.453131 169.343071 
L 295.870287 169.930559 
L 295.287444 170.519549 
L 294.7046 171.110044 
L 294.121757 171.702025 
L 293.538914 172.29551 
L 292.956047 172.890399 
L 292.373204 173.486693 
L 291.790361 174.084391 
L 291.207517 174.683444 
L 290.624674 175.283852 
L 290.04183 175.885573 
L 289.458987 176.488583 
L 288.876144 177.09289 
L 288.2933 177.698461 
L 287.710457 178.305238 
L 287.127614 178.913255 
L 286.54477 179.522444 
L 285.961927 180.132798 
L 285.379084 180.744284 
L 284.79624 181.35691 
L 284.213397 181.970619 
L 283.630553 182.585409 
L 283.04771 183.201257 
L 282.464867 183.818121 
L 281.882023 184.436018 
L 281.29918 185.05489 
L 280.716337 185.674711 
L 280.133493 186.295483 
L 279.55065 186.91718 
L 278.967806 187.53976 
L 278.384963 188.163225 
L 277.80212 188.787516 
L 277.219276 189.412641 
L 276.636433 190.038601 
L 276.05359 190.665321 
L 275.470746 191.292801 
L 274.887903 191.92104 
L 274.30506 192.549949 
L 273.722216 193.179577 
L 273.139373 193.809882 
L 272.556529 194.440815 
L 271.973686 195.0724 
L 271.390843 195.704564 
L 270.807999 196.337323 
L 270.225156 196.970635 
L 269.642313 197.604476 
L 269.059469 198.238829 
L 268.476626 198.873669 
L 267.893783 199.508989 
L 267.310939 200.144755 
L 266.728096 200.780934 
L 266.145252 201.417517 
L 265.562409 202.054472 
L 264.979566 202.691766 
L 264.396722 203.329416 
L 263.813879 203.967387 
L 263.231036 204.605615 
L 262.648192 205.244131 
L 262.065349 205.882863 
L 261.482505 206.521842 
L 260.899662 207.160995 
L 260.316796 207.800387 
L 259.733952 208.439862 
L 259.151109 209.079478 
L 258.568266 209.719201 
L 257.985422 210.359023 
L 257.402579 210.998903 
L 256.819735 211.638807 
L 256.236892 212.278745 
L 255.654049 212.918674 
L 255.071205 213.558554 
L 254.488362 214.198417 
L 253.905519 214.838181 
L 253.322675 215.477863 
L 252.739832 216.11742 
L 252.156989 216.756829 
L 251.574145 217.39609 
L 250.991302 218.03516 
L 250.408458 218.674007 
L 249.825615 219.312639 
L 249.242772 219.951024 
L 248.659928 220.589136 
L 248.077085 221.226925 
L 247.494242 221.864409 
L 246.911398 222.501547 
L 246.328555 223.138304 
L 245.745711 223.774705 
L 245.162868 224.410686 
L 244.580025 225.04622 
L 243.997181 225.681292 
L 243.414338 226.315893 
L 242.831495 226.949998 
L 242.248651 227.583583 
L 241.665808 228.216614 
L 241.082965 228.849084 
L 240.500121 229.480958 
L 239.917278 230.112214 
L 239.334434 230.742841 
L 238.751591 231.372799 
L 238.168748 232.00208 
L 237.585904 232.630666 
L 237.003061 233.258526 
L 236.420218 233.885626 
L 235.837374 234.511957 
L 235.254531 235.137504 
L 234.671688 235.762216 
L 234.088844 236.38611 
L 233.506001 237.009129 
L 232.923157 237.631272 
L 232.340314 238.252498 
L 231.757471 238.872807 
L 231.174627 239.492158 
L 230.591784 240.110534 
L 230.008941 240.727918 
L 229.426097 241.344278 
L 228.843254 241.959598 
L 228.260411 242.573859 
L 227.677567 243.187031 
L 227.094724 243.799087 
L 226.51188 244.410011 
L 225.929037 245.019795 
L 225.346194 245.62839 
L 224.76335 246.235787 
L 224.180507 246.841969 
L 223.597664 247.446904 
L 223.01482 248.050575 
L 222.431977 248.652949 
L 221.849133 249.254017 
L 221.26629 249.853748 
L 220.683447 250.452115 
L 220.100603 251.049103 
L 219.51776 251.644709 
L 218.934917 252.238867 
L 218.35205 252.831612 
L 217.769207 253.422867 
L 217.186363 254.01263 
L 216.60352 254.600877 
L 216.020677 255.187575 
L 215.437833 255.772733 
L 214.85499 256.356296 
L 214.272147 256.938265 
L 213.689303 257.518602 
L 213.10646 258.097283 
L 212.523616 258.674291 
L 211.940773 259.249618 
L 211.35793 259.823214 
L 210.775086 260.395079 
L 210.192243 260.965172 
L 209.6094 261.533489 
L 209.026556 262.100001 
L 208.443713 262.664675 
L 207.86087 263.227499 
L 207.278026 263.788451 
L 206.695183 264.347499 
L 206.112339 264.904643 
L 205.529496 265.459825 
L 204.946653 266.013053 
L 204.363809 266.564294 
L 203.780966 267.113519 
L 203.198123 267.660717 
L 202.615279 268.205861 
L 202.032436 268.748916 
L 201.449593 269.289884 
L 200.866749 269.828725 
L 200.283906 270.365418 
L 199.701062 270.899947 
L 199.118219 271.432287 
L 198.535376 271.962412 
L 197.952532 272.490295 
L 197.369689 273.015935 
L 196.786846 273.539286 
L 196.204002 274.060333 
L 195.621159 274.579062 
L 195.038316 275.095437 
L 194.455472 275.609445 
L 193.872629 276.121053 
L 193.289785 276.630253 
L 192.706942 277.137016 
L 192.124099 277.641308 
L 191.541255 278.143135 
L 190.958412 278.642438 
L 190.375557 279.139234 
L 189.792714 279.633467 
L 189.20987 280.125126 
L 188.627027 280.614191 
L 188.044184 281.100638 
L 187.46134 281.584443 
L 186.878497 282.065586 
L 186.295653 282.544044 
L 185.71281 283.019792 
L 185.129967 283.492814 
L 184.547123 283.963079 
L 183.96428 284.430566 
L 183.381437 284.895257 
L 182.798593 285.357126 
L 182.21575 285.816158 
L 181.632907 286.272317 
L 181.050063 286.725588 
L 180.46722 287.175956 
L 179.884376 287.623383 
L 179.301533 288.067856 
L 178.71869 288.509347 
L 178.135846 288.947844 
L 177.553003 289.383313 
L 176.97016 289.815741 
L 176.387305 290.245105 
L 175.804461 290.671371 
L 175.221618 291.094522 
L 174.638775 291.51454 
L 174.055931 291.931396 
L 173.473088 292.345074 
L 172.890244 292.755544 
L 172.307401 293.162793 
L 171.724558 293.566788 
L 171.141714 293.967516 
L 170.558871 294.364951 
L 169.976028 294.759066 
L 169.393184 295.149848 
L 168.810341 295.537261 
L 168.227498 295.921295 
L 167.644654 296.301922 
L 167.061811 296.679124 
L 166.478967 297.052868 
L 165.896124 297.423141 
L 165.313281 297.789918 
L 164.730437 298.153179 
L 164.147594 298.512895 
L 163.564751 298.869047 
L 162.981907 299.221613 
L 162.399064 299.570573 
L 161.816221 299.915897 
L 161.233377 300.25757 
L 160.650534 300.595566 
L 160.06769 300.929863 
L 159.484847 301.260437 
L 158.902004 301.587269 
L 158.31916 301.910333 
L 157.73632 302.229606 
L 157.153476 302.54507 
L 156.570633 302.8567 
L 155.987787 303.164475 
L 155.404943 303.46837 
L 154.8221 303.768363 
L 154.239257 304.064428 
L 153.656413 304.356548 
L 153.073561 304.644705 
L 152.490718 304.928866 
L 151.907875 305.209011 
L 151.325028 305.485122 
L 150.742185 305.757171 
L 150.159342 306.02514 
L 149.576498 306.289001 
L 148.993655 306.548737 
L 148.410814 306.804324 
L 147.827971 307.05574 
L 147.245128 307.30296 
L 146.662281 307.545963 
L 146.079438 307.784729 
L 145.496595 308.019229 
L 144.913751 308.249446 
L 144.330908 308.475357 
L 143.748068 308.696935 
L 143.165224 308.914165 
L 142.582381 309.127017 
L 141.999535 309.335477 
L 141.416691 309.539514 
L 140.833848 309.739109 
L 140.251004 309.934238 
L 139.668161 310.124882 
L 139.085309 310.311017 
L 138.502466 310.492617 
L 137.919622 310.669663 
L 137.336776 310.842134 
L 136.753933 311.010002 
L 136.171089 311.173247 
L 135.588246 311.33185 
L 135.005403 311.485785 
L 134.422562 311.635028 
L 133.839719 311.779558 
L 133.256874 311.919356 
L 132.674031 312.054396 
L 132.091187 312.184654 
L 131.508342 312.310111 
L 130.925499 312.430743 
L 130.342656 312.546528 
L 129.759815 312.657441 
L 129.176972 312.763463 
L 128.594127 312.864568 
L 128.011284 312.960736 
L 127.42844 313.051946 
L 126.845595 313.138171 
L 126.262752 313.219393 
L 125.679909 313.295584 
L 125.097068 313.366727 
L 124.514225 313.432796 
L 123.93138 313.493772 
L 123.348537 313.549628 
L 122.765693 313.600344 
L 122.182849 313.645898 
L 121.600005 313.686266 
L 121.017162 313.721426 
L 120.434321 313.751354 
L 119.851477 313.776033 
L 119.268633 313.795434 
L 118.68579 313.809536 
L 118.102946 313.81832 
L 117.520102 313.821758 
L 116.937258 313.819833 
L 116.354415 313.81252 
L 115.771562 313.799794 
L 115.188719 313.781638 
L 114.605875 313.758023 
L 114.023031 313.728931 
L 113.440188 313.69434 
L 112.857344 313.654225 
L 112.2745 313.608564 
L 111.691656 313.557334 
L 111.108816 313.500515 
L 110.525972 313.438081 
L 109.943128 313.370011 
L 109.360284 313.296284 
L 108.777441 313.216875 
L 108.194597 313.131764 
L 107.611753 313.040926 
L 107.028909 312.94434 
L 106.446069 312.841984 
L 105.863225 312.733834 
L 105.280381 312.619867 
L 104.697537 312.500063 
L 104.114694 312.374398 
L 103.53185 312.242848 
L 102.949006 312.105392 
L 102.366162 311.962009 
L 101.783316 311.812673 
L 101.200472 311.657364 
L 100.617628 311.496058 
L 100.034785 311.328736 
L 99.451941 311.15537 
L 98.869097 310.975943 
L 98.286253 310.790427 
L 97.70341 310.598805 
L 97.120564 310.401048 
L 96.53772 310.197141 
L 95.954875 309.987056 
L 95.372032 309.770772 
L 94.789189 309.548269 
L 94.206344 309.319518 
L 93.6235 309.084503 
L 93.040657 308.8432 
L 92.457817 308.595587 
L 91.874973 308.341637 
L 91.292128 308.081331 
L 90.709285 307.814645 
L 90.126442 307.54156 
L 89.543597 307.262049 
L 88.960754 306.976093 
L 88.37791 306.683667 
L 87.79507 306.38475 
L 87.212226 306.079319 
L 86.629381 305.767351 
L 86.046537 305.448822 
L 85.463693 305.123712 
L 84.88085 304.792 
L 84.298007 304.453661 
L 83.715163 304.108671 
L 83.132317 303.757008 
L 82.549474 303.398653 
L 81.96663 303.033582 
L 81.383784 302.661768 
L 80.800941 302.283197 
L 80.218097 301.897838 
L 79.635254 301.505674 
L 79.052411 301.10668 
L 78.469564 300.700833 
L 77.886721 300.288113 
L 77.303878 299.868496 
L 76.721031 299.441958 
L 76.138188 299.00848 
L 75.555345 298.568035 
L 74.972501 298.120605 
L 74.389658 297.666167 
L 73.806817 297.204697 
L 73.223974 296.736171 
L 72.641131 296.260566 
L 72.058284 295.777862 
L 71.475441 295.288037 
L 70.892598 294.791068 
L 70.309754 294.28693 
L 69.726911 293.7756 
L 69.14407 293.257065 
L 68.561227 292.731293 
L 67.978384 292.198262 
L 67.395537 291.657948 
L 66.812694 291.110334 
L 66.229851 290.555398 
L 65.647007 289.993111 
L 65.064164 289.423454 
L 64.481318 288.846407 
L 63.898474 288.261943 
L 63.315631 287.670042 
L 62.732785 287.070679 
L 62.149941 286.463836 
L 61.567098 285.84949 
L 60.984255 285.227613 
L 60.401411 284.598188 
L 59.818562 283.961183 
L 59.235719 283.316592 
L 58.652875 282.66438 
L 58.070032 282.004529 
L 57.487189 281.337014 
L 56.904345 280.661819 
L 56.321502 279.978911 
L 55.738659 279.288274 
L 55.155815 278.589885 
L 54.572972 277.883721 
L 53.990128 277.169759 
L 53.407285 276.447977 
L 52.824442 275.718352 
L 52.241598 274.980862 
L 51.658755 274.235483 
L 51.075912 273.482193 
L 50.493068 272.720973 
L 49.910225 271.951793 
L 49.327381 271.17464 
L 48.744538 270.389483 
L 48.161695 269.596309 
L 47.578851 268.795083 
L 46.996008 267.985787 
L 46.413165 267.168403 
L 45.830316 266.342898 
L 45.247472 265.509268 
L 44.664629 264.66748 
L 44.081785 263.817506 
L 43.498942 262.95934 
L 42.916099 262.092938 
L 42.333255 261.218287 
L 41.750412 260.335371 
L 41.167563 259.444152 
L 40.584719 258.544623 
L 40.001876 257.636762 
L 39.419033 256.720529 
L 38.836189 255.795926 
L 38.253346 254.862906 
L 37.670503 253.921463 
L 37.087659 252.97157 
L 36.504816 252.0132 
L 35.921973 251.046335 
L 35.339129 250.070951 
L 34.756286 249.087026 
L 34.173442 248.094549 
L 33.590599 247.093473 
L 33.007756 246.083797 
L 32.424912 245.06548 
L 31.842069 244.038513 
L 31.259226 243.002864 
L 30.676382 241.958524 
L 30.093539 240.90546 
L 29.510695 239.843664 
L 28.927852 238.773094 
L 28.345009 237.693727 
L 27.762165 236.605561 
L 27.179316 235.508539 
L 26.596473 234.40267 
L 26.01363 233.287936 
L 25.430786 232.164297 
L 24.847943 231.031727 
L 24.265099 229.890218 
L 23.682256 228.739738 
L 23.099413 227.58027 
L 22.516564 226.411773 
L 21.93372 225.234245 
L 21.350877 224.047664 
L 20.768033 222.852003 
L 20.18519 221.647239 
L 19.602347 220.433346 
L 19.019503 219.210308 
L 18.43666 217.978083 
L 17.853817 216.73668 
L 17.270973 215.486058 
L 16.68813 214.226191 
L 16.105287 212.957064 
L 15.522443 211.678659 
L 14.9396 210.390936 
L 14.356756 209.093894 
L 13.773913 207.7875 
z
" clip-path="url(#p8ae0cd2438)" style="fill: #b0c4de; fill-opacity: 0.9"/>
   </g>
   <g id="line2d_29">
    <path d="M 13.773913 180.067502 
L 18.43666 190.258085 
L 23.099413 199.860272 
L 27.179316 207.788541 
L 31.259226 215.282865 
L 35.339129 222.350953 
L 39.419033 229.000528 
L 43.498942 235.23934 
L 47.578851 241.075083 
L 51.658755 246.515482 
L 55.738659 251.568274 
L 59.818562 256.241183 
L 63.898474 260.541943 
L 67.978384 264.478262 
L 71.475441 267.568036 
L 74.972501 270.400605 
L 78.469564 272.980833 
L 81.96663 275.313582 
L 85.463693 277.403712 
L 88.960754 279.256092 
L 92.457817 280.875585 
L 95.954875 282.267056 
L 99.451941 283.435371 
L 102.949006 284.385392 
L 106.446069 285.121984 
L 109.943128 285.650011 
L 113.440188 285.974339 
L 116.937258 286.099833 
L 120.434321 286.031355 
L 124.514225 285.712796 
L 128.594127 285.144568 
L 132.674031 284.334395 
L 136.753933 283.290001 
L 140.833848 282.019108 
L 144.913751 280.529446 
L 149.576498 278.569 
L 154.239257 276.344427 
L 158.902004 273.867268 
L 163.564751 271.149046 
L 168.810341 267.81726 
L 174.055931 264.211396 
L 179.301533 260.347856 
L 185.129967 255.772814 
L 190.958412 250.922438 
L 197.369689 245.295934 
L 204.363809 238.844294 
L 211.940773 231.529617 
L 220.100603 223.329104 
L 229.426097 213.62428 
L 240.500121 201.76096 
L 257.402579 183.278904 
L 276.636433 162.318603 
L 287.710457 150.58524 
L 297.035974 141.037139 
L 305.195781 133.009298 
L 312.189878 126.420178 
L 319.184022 120.141531 
L 325.595299 114.69216 
L 331.423733 110.018186 
L 337.252166 105.63418 
L 342.497756 101.955069 
L 347.743347 98.545505 
L 352.988937 95.421878 
L 357.651707 92.898658 
L 362.314454 90.625819 
L 366.977201 88.615009 
L 371.057105 87.07945 
L 375.137008 85.761044 
L 379.216912 84.667459 
L 383.296815 83.806427 
L 387.376719 83.185713 
L 391.456646 82.813017 
L 395.536549 82.696022 
L 399.033609 82.805169 
L 402.530669 83.11275 
L 406.02773 83.623607 
L 409.52479 84.342629 
L 413.02185 85.274658 
L 416.51891 86.424617 
L 420.01597 87.797332 
L 423.513031 89.397626 
L 427.010091 91.230358 
L 430.507151 93.300549 
L 434.004211 95.612893 
L 437.501271 98.172264 
L 440.998355 100.983651 
L 444.495415 104.051796 
L 447.992475 107.381589 
L 452.072379 111.603643 
L 456.152282 116.196195 
L 460.232209 121.166895 
L 464.312113 126.523641 
L 468.392016 132.273935 
L 472.47192 138.425805 
L 476.551823 144.986622 
L 480.631727 151.964349 
L 484.71163 159.366693 
L 488.791534 167.201329 
L 492.871437 175.476123 
L 496.951341 184.198475 
L 501.614111 194.72519 
L 506.276858 205.858344 
L 510.939605 217.609163 
L 515.602352 229.989816 
L 520.265099 243.011278 
L 524.927846 256.685573 
L 529.590639 271.023942 
L 534.253386 286.037742 
L 538.916133 301.738742 
L 544.1617 320.238014 
L 549.407313 339.638097 
L 554.65288 359.955238 
L 554.915955 361 
L 554.915955 361 
" clip-path="url(#p8ae0cd2438)" style="fill: none; stroke: #1f77b4; stroke-width: 1.5; stroke-linecap: square"/>
   </g>
   <g id="line2d_30">
    <path d="M 13.773913 283.996931 
L 28.927852 286.953938 
L 42.333255 289.341261 
L 53.990128 291.194786 
L 64.481318 292.636639 
L 73.806817 293.689537 
L 81.96663 294.389311 
L 89.543597 294.810781 
L 95.954875 294.960143 
L 102.366162 294.883661 
L 108.194597 294.585151 
L 113.440188 294.101606 
L 118.68579 293.386962 
L 123.348537 292.534753 
L 128.011284 291.456732 
L 132.674031 290.132015 
L 136.753933 288.754509 
L 140.833848 287.159841 
L 144.913751 285.336733 
L 148.993655 283.276059 
L 153.073561 280.971431 
L 157.153476 278.419904 
L 161.233377 275.622789 
L 165.896124 272.133223 
L 170.558871 268.347948 
L 175.804461 263.768837 
L 181.632907 258.342217 
L 188.044184 252.06027 
L 197.952532 242.000871 
L 210.775086 229.025502 
L 218.35205 221.666843 
L 225.346194 215.163863 
L 232.923157 208.430883 
L 241.665808 200.98097 
L 266.145252 180.354405 
L 273.139373 174.0538 
L 279.55065 167.979774 
L 285.961927 161.586958 
L 292.373204 154.872978 
L 299.367347 147.218733 
L 308.109975 137.298415 
L 325.595299 117.370674 
L 331.423733 111.093861 
L 336.669323 105.759552 
L 341.33207 101.33343 
L 345.411973 97.744565 
L 349.491877 94.451054 
L 352.988937 91.88182 
L 356.48602 89.560521 
L 359.983081 87.497467 
L 363.480141 85.700622 
L 366.977201 84.175637 
L 370.474261 82.925816 
L 373.971321 81.95258 
L 376.885538 81.352387 
L 379.799755 80.94273 
L 382.713972 80.721727 
L 386.211032 80.701768 
L 389.708092 80.944283 
L 393.205176 81.442831 
L 396.702236 82.190106 
L 400.199296 83.178245 
L 403.696356 84.398755 
L 407.193416 85.842797 
L 410.690477 87.501003 
L 414.77038 89.693625 
L 418.850284 92.149285 
L 422.930187 94.852136 
L 427.592934 98.223037 
L 432.255681 101.871267 
L 437.501271 106.276273 
L 442.746885 110.965415 
L 448.575318 116.46518 
L 454.986596 122.809933 
L 462.563582 130.619678 
L 472.47192 141.171697 
L 501.031245 171.80334 
L 509.773918 180.731653 
L 517.350859 188.151734 
L 524.344979 194.693814 
L 530.756326 200.405264 
L 537.16758 205.826348 
L 543.57888 210.946064 
L 549.990134 215.758612 
L 555.818567 219.865851 
L 561.647001 223.720082 
L 567.475435 227.32552 
L 573.303868 230.688457 
L 577 232.698722 
L 577 232.698722 
" clip-path="url(#p8ae0cd2438)" style="fill: none; stroke: #e24a33; stroke-width: 1.5; stroke-linecap: square"/>
   </g>
   <g id="line2d_31">
    <path d="M 13.773913 278.876761 
L 29.510695 282.021099 
L 42.916099 284.48863 
L 54.572972 286.423685 
L 65.064164 287.945869 
L 74.389658 289.074515 
L 82.549474 289.844071 
L 90.126442 290.333919 
L 97.120564 290.553824 
L 103.53185 290.522456 
L 109.360284 290.268176 
L 114.605875 289.82873 
L 119.851477 289.164066 
L 124.514225 288.363068 
L 129.176972 287.344569 
L 133.839719 286.0898 
L 138.502466 284.580734 
L 142.582381 283.038698 
L 146.662281 281.279954 
L 150.742185 279.297075 
L 154.8221 277.085402 
L 158.902004 274.643497 
L 163.564751 271.573923 
L 168.227498 268.216958 
L 172.890244 264.59036 
L 178.135846 260.220084 
L 183.96428 255.059211 
L 190.958412 248.548412 
L 202.032436 237.874333 
L 214.85499 225.57908 
L 223.597664 217.511548 
L 232.340314 209.762655 
L 242.831495 200.785898 
L 260.316796 185.866735 
L 267.893783 179.079586 
L 274.30506 173.056425 
L 280.716337 166.725798 
L 287.127614 160.066557 
L 293.538914 153.088285 
L 301.115878 144.491379 
L 312.189878 131.526577 
L 323.263925 118.665105 
L 329.675202 111.570482 
L 334.920793 106.094593 
L 339.58354 101.545743 
L 343.663443 97.853381 
L 347.743347 94.461282 
L 351.240407 91.81226 
L 354.73749 89.416082 
L 358.234551 87.283667 
L 361.731611 85.423277 
L 365.228671 83.840827 
L 368.725731 82.539819 
L 371.639948 81.671798 
L 374.554165 81.000063 
L 377.468382 80.523524 
L 380.382598 80.240363 
L 383.296815 80.148201 
L 386.211032 80.243766 
L 389.708092 80.601229 
L 393.205176 81.216804 
L 396.702236 82.082611 
L 400.199296 83.190174 
L 403.696356 84.530571 
L 407.193416 86.094318 
L 411.27332 88.18807 
L 415.353224 90.556921 
L 419.433127 93.184579 
L 424.095874 96.483476 
L 428.758621 100.07396 
L 433.421368 103.930852 
L 438.666981 108.556498 
L 444.495415 114.00914 
L 450.906692 120.329308 
L 458.483679 128.144638 
L 467.809173 138.123429 
L 502.779798 175.935743 
L 510.939605 184.226373 
L 517.933725 191.033771 
L 524.927846 197.527358 
L 531.339146 203.181028 
L 537.750446 208.533858 
L 544.1617 213.577042 
L 549.990134 217.889721 
L 555.818567 221.943577 
L 561.647001 225.741582 
L 567.475435 229.289009 
L 573.303868 232.592896 
L 577 234.565557 
L 577 234.565557 
" clip-path="url(#p8ae0cd2438)" style="fill: none; stroke: #348abd; stroke-width: 1.5; stroke-linecap: square"/>
   </g>
   <g id="line2d_32">
    <path d="M 13.773913 280.242809 
L 28.927852 283.269507 
L 42.333255 285.727538 
L 53.990128 287.646863 
L 64.481318 289.149444 
L 73.806817 290.256363 
L 81.96663 291.002812 
L 89.543597 291.466943 
L 95.954875 291.651994 
L 102.366162 291.6112 
L 108.194597 291.345693 
L 113.440188 290.893029 
L 118.68579 290.211141 
L 123.348537 289.390456 
L 128.011284 288.347215 
L 132.674031 287.061524 
L 136.753933 285.722581 
L 140.833848 284.171499 
L 144.913751 282.397934 
L 148.993655 280.393543 
L 153.073561 278.152832 
L 157.153476 275.673529 
L 161.233377 272.95746 
L 165.896124 269.571651 
L 170.558871 265.901797 
L 175.804461 261.465527 
L 181.632907 256.211021 
L 188.627027 249.564713 
L 199.118219 239.22656 
L 211.940773 226.649299 
L 220.100603 218.963289 
L 227.677567 212.122476 
L 236.420218 204.551074 
L 249.825615 193.307138 
L 260.899662 183.903815 
L 268.476626 177.172569 
L 274.887903 171.190119 
L 281.29918 164.896916 
L 287.710457 158.275875 
L 294.121757 151.341256 
L 301.698721 142.809663 
L 314.521252 127.950962 
L 323.846769 117.314646 
L 329.675202 110.975643 
L 334.920793 105.589156 
L 339.58354 101.121117 
L 343.663443 97.499934 
L 347.743347 94.178748 
L 351.240407 91.589968 
L 354.73749 89.253237 
L 358.234551 87.17908 
L 361.731611 85.375659 
L 365.228671 83.848691 
L 368.725731 82.601514 
L 371.639948 81.777013 
L 374.554165 81.147575 
L 377.468382 80.712061 
L 380.382598 80.468802 
L 383.296815 80.415104 
L 386.793875 80.596685 
L 390.290936 81.040642 
L 393.788019 81.739837 
L 397.285079 82.686406 
L 400.782139 83.871856 
L 404.2792 85.287231 
L 407.77626 86.923181 
L 411.856163 89.097761 
L 415.936067 91.543738 
L 420.01597 94.244954 
L 424.678717 97.623637 
L 429.341464 101.289546 
L 434.587055 105.725681 
L 439.832668 110.457236 
L 445.661102 116.016563 
L 452.072379 122.44069 
L 459.649366 130.36097 
L 469.557703 141.080576 
L 499.282738 173.51944 
L 507.442545 181.991305 
L 515.019485 189.543003 
L 522.013606 196.199353 
L 528.424952 202.008879 
L 534.836206 207.521151 
L 541.247506 212.725131 
L 547.07594 217.183388 
L 552.904374 221.38079 
L 558.732807 225.319286 
L 564.561241 229.003023 
L 570.389675 232.438445 
L 576.218108 235.633581 
L 577 236.044149 
L 577 236.044149 
" clip-path="url(#p8ae0cd2438)" style="fill: none; stroke: #988ed5; stroke-width: 1.5; stroke-linecap: square"/>
   </g>
   <g id="line2d_33">
    <path d="M 13.773913 278.144542 
L 28.927852 281.436741 
L 42.333255 284.120026 
L 53.990128 286.227293 
L 63.898474 287.806923 
L 73.223974 289.069049 
L 81.383784 289.951034 
L 88.960754 290.541667 
L 95.954875 290.851064 
L 102.366162 290.898077 
L 108.194597 290.71117 
L 113.440188 290.328269 
L 118.68579 289.715229 
L 123.348537 288.954912 
L 128.011284 287.971102 
L 132.674031 286.743794 
L 136.753933 285.454891 
L 140.833848 283.952653 
L 144.913751 282.226487 
L 148.993655 280.267823 
L 153.073561 278.070792 
L 157.153476 275.632854 
L 161.233377 272.955456 
L 165.896124 269.610135 
L 170.558871 265.976437 
L 175.804461 261.575218 
L 181.632907 256.352441 
L 188.044184 250.29694 
L 197.369689 241.15277 
L 212.523616 226.294141 
L 220.683447 218.632837 
L 228.260411 211.816705 
L 237.003061 204.272409 
L 250.991302 192.572814 
L 261.482505 183.667398 
L 269.059469 176.935151 
L 275.470746 170.946415 
L 281.882023 164.642278 
L 288.2933 158.005996 
L 294.7046 151.052298 
L 302.281564 142.493647 
L 314.521252 128.257904 
L 323.846769 117.547794 
L 330.258046 110.521577 
L 335.503636 105.10218 
L 340.166383 100.602763 
L 344.246287 96.952385 
L 348.32619 93.6004 
L 351.82325 90.983868 
L 355.320334 88.618089 
L 358.817394 86.513696 
L 362.314454 84.678762 
L 365.811514 83.118979 
L 369.308574 81.837809 
L 372.222791 80.984023 
L 375.137008 80.324472 
L 378.051225 79.858069 
L 380.965442 79.583034 
L 383.879659 79.496886 
L 387.376719 79.638508 
L 390.873779 80.041492 
L 394.370862 80.698741 
L 397.867923 81.602435 
L 401.364983 82.744172 
L 404.862043 84.115024 
L 408.359103 85.705798 
L 412.439007 87.826848 
L 416.51891 90.21859 
L 420.598814 92.86508 
L 425.261561 96.1808 
L 429.924308 99.783559 
L 435.169898 104.148795 
L 440.415511 108.81012 
L 446.243945 114.292726 
L 452.655222 120.634989 
L 460.232209 128.463071 
L 469.557703 138.439963 
L 502.779798 174.315149 
L 510.939605 182.633765 
L 518.516546 190.031477 
L 525.510666 196.539339 
L 531.922012 202.210026 
L 538.333266 207.58304 
L 544.744566 212.649098 
L 550.573 216.984432 
L 556.401434 221.062364 
L 562.229867 224.885514 
L 568.058301 228.45877 
L 573.886735 231.788947 
L 577 233.470744 
L 577 233.470744 
" clip-path="url(#p8ae0cd2438)" style="fill: none; stroke: #777777; stroke-width: 1.5; stroke-linecap: square"/>
   </g>
   <g id="patch_3">
    <path d="M 72 320.4 
L 72 43.2 
" style="fill: none; stroke: #ffffff; stroke-linejoin: miter; stroke-linecap: square"/>
   </g>
   <g id="patch_4">
    <path d="M 518.4 320.4 
L 518.4 43.2 
" style="fill: none; stroke: #ffffff; stroke-linejoin: miter; stroke-linecap: square"/>
   </g>
   <g id="patch_5">
    <path d="M 72 320.4 
L 518.4 320.4 
" style="fill: none; stroke: #ffffff; stroke-linejoin: miter; stroke-linecap: square"/>
   </g>
   <g id="patch_6">
    <path d="M 72 43.2 
L 518.4 43.2 
" style="fill: none; stroke: #ffffff; stroke-linejoin: miter; stroke-linecap: square"/>
   </g>
   <g id="text_15">
    <!-- Prediction Curves -->
    <g transform="translate(232.153875 37.2)scale(0.144 -0.144)">
     <defs>
      <path id="DejaVuSans-50" d="M 1259 4147 
L 1259 2394 
L 2053 2394 
Q 2494 2394 2734 2622 
Q 2975 2850 2975 3272 
Q 2975 3691 2734 3919 
Q 2494 4147 2053 4147 
L 1259 4147 
z
M 628 4666 
L 2053 4666 
Q 2838 4666 3239 4311 
Q 3641 3956 3641 3272 
Q 3641 2581 3239 2228 
Q 2838 1875 2053 1875 
L 1259 1875 
L 1259 0 
L 628 0 
L 628 4666 
z
" transform="scale(0.015625)"/>
      <path id="DejaVuSans-72" d="M 2631 2963 
Q 2534 3019 2420 3045 
Q 2306 3072 2169 3072 
Q 1681 3072 1420 2755 
Q 1159 2438 1159 1844 
L 1159 0 
L 581 0 
L 581 3500 
L 1159 3500 
L 1159 2956 
Q 1341 3275 1631 3429 
Q 1922 3584 2338 3584 
Q 2397 3584 2469 3576 
Q 2541 3569 2628 3553 
L 2631 2963 
z
" transform="scale(0.015625)"/>
      <path id="DejaVuSans-65" d="M 3597 1894 
L 3597 1613 
L 953 1613 
Q 991 1019 1311 708 
Q 1631 397 2203 397 
Q 2534 397 2845 478 
Q 3156 559 3463 722 
L 3463 178 
Q 3153 47 2828 -22 
Q 2503 -91 2169 -91 
Q 1331 -91 842 396 
Q 353 884 353 1716 
Q 353 2575 817 3079 
Q 1281 3584 2069 3584 
Q 2775 3584 3186 3129 
Q 3597 2675 3597 1894 
z
M 3022 2063 
Q 3016 2534 2758 2815 
Q 2500 3097 2075 3097 
Q 1594 3097 1305 2825 
Q 1016 2553 972 2059 
L 3022 2063 
z
" transform="scale(0.015625)"/>
      <path id="DejaVuSans-64" d="M 2906 2969 
L 2906 4863 
L 3481 4863 
L 3481 0 
L 2906 0 
L 2906 525 
Q 2725 213 2448 61 
Q 2172 -91 1784 -91 
Q 1150 -91 751 415 
Q 353 922 353 1747 
Q 353 2572 751 3078 
Q 1150 3584 1784 3584 
Q 2172 3584 2448 3432 
Q 2725 3281 2906 2969 
z
M 947 1747 
Q 947 1113 1208 752 
Q 1469 391 1925 391 
Q 2381 391 2643 752 
Q 2906 1113 2906 1747 
Q 2906 2381 2643 2742 
Q 2381 3103 1925 3103 
Q 1469 3103 1208 2742 
Q 947 2381 947 1747 
z
" transform="scale(0.015625)"/>
      <path id="DejaVuSans-69" d="M 603 3500 
L 1178 3500 
L 1178 0 
L 603 0 
L 603 3500 
z
M 603 4863 
L 1178 4863 
L 1178 4134 
L 603 4134 
L 603 4863 
z
" transform="scale(0.015625)"/>
      <path id="DejaVuSans-63" d="M 3122 3366 
L 3122 2828 
Q 2878 2963 2633 3030 
Q 2388 3097 2138 3097 
Q 1578 3097 1268 2742 
Q 959 2388 959 1747 
Q 959 1106 1268 751 
Q 1578 397 2138 397 
Q 2388 397 2633 464 
Q 2878 531 3122 666 
L 3122 134 
Q 2881 22 2623 -34 
Q 2366 -91 2075 -91 
Q 1284 -91 818 406 
Q 353 903 353 1747 
Q 353 2603 823 3093 
Q 1294 3584 2113 3584 
Q 2378 3584 2631 3529 
Q 2884 3475 3122 3366 
z
" transform="scale(0.015625)"/>
      <path id="DejaVuSans-74" d="M 1172 4494 
L 1172 3500 
L 2356 3500 
L 2356 3053 
L 1172 3053 
L 1172 1153 
Q 1172 725 1289 603 
Q 1406 481 1766 481 
L 2356 481 
L 2356 0 
L 1766 0 
Q 1100 0 847 248 
Q 594 497 594 1153 
L 594 3053 
L 172 3053 
L 172 3500 
L 594 3500 
L 594 4494 
L 1172 4494 
z
" transform="scale(0.015625)"/>
      <path id="DejaVuSans-6f" d="M 1959 3097 
Q 1497 3097 1228 2736 
Q 959 2375 959 1747 
Q 959 1119 1226 758 
Q 1494 397 1959 397 
Q 2419 397 2687 759 
Q 2956 1122 2956 1747 
Q 2956 2369 2687 2733 
Q 2419 3097 1959 3097 
z
M 1959 3584 
Q 2709 3584 3137 3096 
Q 3566 2609 3566 1747 
Q 3566 888 3137 398 
Q 2709 -91 1959 -91 
Q 1206 -91 779 398 
Q 353 888 353 1747 
Q 353 2609 779 3096 
Q 1206 3584 1959 3584 
z
" transform="scale(0.015625)"/>
      <path id="DejaVuSans-6e" d="M 3513 2113 
L 3513 0 
L 2938 0 
L 2938 2094 
Q 2938 2591 2744 2837 
Q 2550 3084 2163 3084 
Q 1697 3084 1428 2787 
Q 1159 2491 1159 1978 
L 1159 0 
L 581 0 
L 581 3500 
L 1159 3500 
L 1159 2956 
Q 1366 3272 1645 3428 
Q 1925 3584 2291 3584 
Q 2894 3584 3203 3211 
Q 3513 2838 3513 2113 
z
" transform="scale(0.015625)"/>
      <path id="DejaVuSans-20" transform="scale(0.015625)"/>
      <path id="DejaVuSans-43" d="M 4122 4306 
L 4122 3641 
Q 3803 3938 3442 4084 
Q 3081 4231 2675 4231 
Q 1875 4231 1450 3742 
Q 1025 3253 1025 2328 
Q 1025 1406 1450 917 
Q 1875 428 2675 428 
Q 3081 428 3442 575 
Q 3803 722 4122 1019 
L 4122 359 
Q 3791 134 3420 21 
Q 3050 -91 2638 -91 
Q 1578 -91 968 557 
Q 359 1206 359 2328 
Q 359 3453 968 4101 
Q 1578 4750 2638 4750 
Q 3056 4750 3426 4639 
Q 3797 4528 4122 4306 
z
" transform="scale(0.015625)"/>
      <path id="DejaVuSans-75" d="M 544 1381 
L 544 3500 
L 1119 3500 
L 1119 1403 
Q 1119 906 1312 657 
Q 1506 409 1894 409 
Q 2359 409 2629 706 
Q 2900 1003 2900 1516 
L 2900 3500 
L 3475 3500 
L 3475 0 
L 2900 0 
L 2900 538 
Q 2691 219 2414 64 
Q 2138 -91 1772 -91 
Q 1169 -91 856 284 
Q 544 659 544 1381 
z
M 1991 3584 
L 1991 3584 
z
" transform="scale(0.015625)"/>
      <path id="DejaVuSans-76" d="M 191 3500 
L 800 3500 
L 1894 563 
L 2988 3500 
L 3597 3500 
L 2284 0 
L 1503 0 
L 191 3500 
z
" transform="scale(0.015625)"/>
      <path id="DejaVuSans-73" d="M 2834 3397 
L 2834 2853 
Q 2591 2978 2328 3040 
Q 2066 3103 1784 3103 
Q 1356 3103 1142 2972 
Q 928 2841 928 2578 
Q 928 2378 1081 2264 
Q 1234 2150 1697 2047 
L 1894 2003 
Q 2506 1872 2764 1633 
Q 3022 1394 3022 966 
Q 3022 478 2636 193 
Q 2250 -91 1575 -91 
Q 1294 -91 989 -36 
Q 684 19 347 128 
L 347 722 
Q 666 556 975 473 
Q 1284 391 1588 391 
Q 1994 391 2212 530 
Q 2431 669 2431 922 
Q 2431 1156 2273 1281 
Q 2116 1406 1581 1522 
L 1381 1569 
Q 847 1681 609 1914 
Q 372 2147 372 2553 
Q 372 3047 722 3315 
Q 1072 3584 1716 3584 
Q 2034 3584 2315 3537 
Q 2597 3491 2834 3397 
z
" transform="scale(0.015625)"/>
     </defs>
     <use xlink:href="#DejaVuSans-50"/>
     <use xlink:href="#DejaVuSans-72" x="58.552734"/>
     <use xlink:href="#DejaVuSans-65" x="97.416016"/>
     <use xlink:href="#DejaVuSans-64" x="158.939453"/>
     <use xlink:href="#DejaVuSans-69" x="222.416016"/>
     <use xlink:href="#DejaVuSans-63" x="250.199219"/>
     <use xlink:href="#DejaVuSans-74" x="305.179688"/>
     <use xlink:href="#DejaVuSans-69" x="344.388672"/>
     <use xlink:href="#DejaVuSans-6f" x="372.171875"/>
     <use xlink:href="#DejaVuSans-6e" x="433.353516"/>
     <use xlink:href="#DejaVuSans-20" x="496.732422"/>
     <use xlink:href="#DejaVuSans-43" x="528.519531"/>
     <use xlink:href="#DejaVuSans-75" x="598.34375"/>
     <use xlink:href="#DejaVuSans-72" x="661.722656"/>
     <use xlink:href="#DejaVuSans-76" x="702.835938"/>
     <use xlink:href="#DejaVuSans-65" x="762.015625"/>
     <use xlink:href="#DejaVuSans-73" x="823.539062"/>
    </g>
   </g>
   <g id="legend_1">
    <g id="patch_7">
     <path d="M 79 109.9125 
L 222.94375 109.9125 
Q 224.94375 109.9125 224.94375 107.9125 
L 224.94375 50.2 
Q 224.94375 48.2 222.94375 48.2 
L 79 48.2 
Q 77 48.2 77 50.2 
L 77 107.9125 
Q 77 109.9125 79 109.9125 
z
" style="fill: #e5e5e5; opacity: 0.8; stroke: #cccccc; stroke-width: 0.5; stroke-linejoin: miter"/>
    </g>
    <g id="line2d_34">
     <path d="M 81 56.298437 
L 91 56.298437 
L 101 56.298437 
" style="fill: none; stroke: #e24a33; stroke-width: 1.5; stroke-linecap: square"/>
    </g>
    <g id="text_16">
     <!-- Prediction 1 -->
     <g transform="translate(109 59.798437)scale(0.1 -0.1)">
      <use xlink:href="#DejaVuSans-50"/>
      <use xlink:href="#DejaVuSans-72" x="58.552734"/>
      <use xlink:href="#DejaVuSans-65" x="97.416016"/>
      <use xlink:href="#DejaVuSans-64" x="158.939453"/>
      <use xlink:href="#DejaVuSans-69" x="222.416016"/>
      <use xlink:href="#DejaVuSans-63" x="250.199219"/>
      <use xlink:href="#DejaVuSans-74" x="305.179688"/>
      <use xlink:href="#DejaVuSans-69" x="344.388672"/>
      <use xlink:href="#DejaVuSans-6f" x="372.171875"/>
      <use xlink:href="#DejaVuSans-6e" x="433.353516"/>
      <use xlink:href="#DejaVuSans-20" x="496.732422"/>
      <use xlink:href="#DejaVuSans-31" x="528.519531"/>
     </g>
    </g>
    <g id="line2d_35">
     <path d="M 81 70.976562 
L 91 70.976562 
L 101 70.976562 
" style="fill: none; stroke: #348abd; stroke-width: 1.5; stroke-linecap: square"/>
    </g>
    <g id="text_17">
     <!-- Prediction 2 -->
     <g transform="translate(109 74.476562)scale(0.1 -0.1)">
      <use xlink:href="#DejaVuSans-50"/>
      <use xlink:href="#DejaVuSans-72" x="58.552734"/>
      <use xlink:href="#DejaVuSans-65" x="97.416016"/>
      <use xlink:href="#DejaVuSans-64" x="158.939453"/>
      <use xlink:href="#DejaVuSans-69" x="222.416016"/>
      <use xlink:href="#DejaVuSans-63" x="250.199219"/>
      <use xlink:href="#DejaVuSans-74" x="305.179688"/>
      <use xlink:href="#DejaVuSans-69" x="344.388672"/>
      <use xlink:href="#DejaVuSans-6f" x="372.171875"/>
      <use xlink:href="#DejaVuSans-6e" x="433.353516"/>
      <use xlink:href="#DejaVuSans-20" x="496.732422"/>
      <use xlink:href="#DejaVuSans-32" x="528.519531"/>
     </g>
    </g>
    <g id="line2d_36">
     <path d="M 81 85.654687 
L 91 85.654687 
L 101 85.654687 
" style="fill: none; stroke: #988ed5; stroke-width: 1.5; stroke-linecap: square"/>
    </g>
    <g id="text_18">
     <!-- Prediction 3 -->
     <g transform="translate(109 89.154687)scale(0.1 -0.1)">
      <use xlink:href="#DejaVuSans-50"/>
      <use xlink:href="#DejaVuSans-72" x="58.552734"/>
      <use xlink:href="#DejaVuSans-65" x="97.416016"/>
      <use xlink:href="#DejaVuSans-64" x="158.939453"/>
      <use xlink:href="#DejaVuSans-69" x="222.416016"/>
      <use xlink:href="#DejaVuSans-63" x="250.199219"/>
      <use xlink:href="#DejaVuSans-74" x="305.179688"/>
      <use xlink:href="#DejaVuSans-69" x="344.388672"/>
      <use xlink:href="#DejaVuSans-6f" x="372.171875"/>
      <use xlink:href="#DejaVuSans-6e" x="433.353516"/>
      <use xlink:href="#DejaVuSans-20" x="496.732422"/>
      <use xlink:href="#DejaVuSans-33" x="528.519531"/>
     </g>
    </g>
    <g id="line2d_37">
     <path d="M 81 100.332812 
L 91 100.332812 
L 101 100.332812 
" style="fill: none; stroke: #777777; stroke-width: 1.5; stroke-linecap: square"/>
    </g>
    <g id="text_19">
     <!-- Average of Predictions -->
     <g transform="translate(109 103.832812)scale(0.1 -0.1)">
      <defs>
       <path id="DejaVuSans-41" d="M 2188 4044 
L 1331 1722 
L 3047 1722 
L 2188 4044 
z
M 1831 4666 
L 2547 4666 
L 4325 0 
L 3669 0 
L 3244 1197 
L 1141 1197 
L 716 0 
L 50 0 
L 1831 4666 
z
" transform="scale(0.015625)"/>
       <path id="DejaVuSans-61" d="M 2194 1759 
Q 1497 1759 1228 1600 
Q 959 1441 959 1056 
Q 959 750 1161 570 
Q 1363 391 1709 391 
Q 2188 391 2477 730 
Q 2766 1069 2766 1631 
L 2766 1759 
L 2194 1759 
z
M 3341 1997 
L 3341 0 
L 2766 0 
L 2766 531 
Q 2569 213 2275 61 
Q 1981 -91 1556 -91 
Q 1019 -91 701 211 
Q 384 513 384 1019 
Q 384 1609 779 1909 
Q 1175 2209 1959 2209 
L 2766 2209 
L 2766 2266 
Q 2766 2663 2505 2880 
Q 2244 3097 1772 3097 
Q 1472 3097 1187 3025 
Q 903 2953 641 2809 
L 641 3341 
Q 956 3463 1253 3523 
Q 1550 3584 1831 3584 
Q 2591 3584 2966 3190 
Q 3341 2797 3341 1997 
z
" transform="scale(0.015625)"/>
       <path id="DejaVuSans-67" d="M 2906 1791 
Q 2906 2416 2648 2759 
Q 2391 3103 1925 3103 
Q 1463 3103 1205 2759 
Q 947 2416 947 1791 
Q 947 1169 1205 825 
Q 1463 481 1925 481 
Q 2391 481 2648 825 
Q 2906 1169 2906 1791 
z
M 3481 434 
Q 3481 -459 3084 -895 
Q 2688 -1331 1869 -1331 
Q 1566 -1331 1297 -1286 
Q 1028 -1241 775 -1147 
L 775 -588 
Q 1028 -725 1275 -790 
Q 1522 -856 1778 -856 
Q 2344 -856 2625 -561 
Q 2906 -266 2906 331 
L 2906 616 
Q 2728 306 2450 153 
Q 2172 0 1784 0 
Q 1141 0 747 490 
Q 353 981 353 1791 
Q 353 2603 747 3093 
Q 1141 3584 1784 3584 
Q 2172 3584 2450 3431 
Q 2728 3278 2906 2969 
L 2906 3500 
L 3481 3500 
L 3481 434 
z
" transform="scale(0.015625)"/>
       <path id="DejaVuSans-66" d="M 2375 4863 
L 2375 4384 
L 1825 4384 
Q 1516 4384 1395 4259 
Q 1275 4134 1275 3809 
L 1275 3500 
L 2222 3500 
L 2222 3053 
L 1275 3053 
L 1275 0 
L 697 0 
L 697 3053 
L 147 3053 
L 147 3500 
L 697 3500 
L 697 3744 
Q 697 4328 969 4595 
Q 1241 4863 1831 4863 
L 2375 4863 
z
" transform="scale(0.015625)"/>
      </defs>
      <use xlink:href="#DejaVuSans-41"/>
      <use xlink:href="#DejaVuSans-76" x="62.533203"/>
      <use xlink:href="#DejaVuSans-65" x="121.712891"/>
      <use xlink:href="#DejaVuSans-72" x="183.236328"/>
      <use xlink:href="#DejaVuSans-61" x="224.349609"/>
      <use xlink:href="#DejaVuSans-67" x="285.628906"/>
      <use xlink:href="#DejaVuSans-65" x="349.105469"/>
      <use xlink:href="#DejaVuSans-20" x="410.628906"/>
      <use xlink:href="#DejaVuSans-6f" x="442.416016"/>
      <use xlink:href="#DejaVuSans-66" x="503.597656"/>
      <use xlink:href="#DejaVuSans-20" x="538.802734"/>
      <use xlink:href="#DejaVuSans-50" x="570.589844"/>
      <use xlink:href="#DejaVuSans-72" x="629.142578"/>
      <use xlink:href="#DejaVuSans-65" x="668.005859"/>
      <use xlink:href="#DejaVuSans-64" x="729.529297"/>
      <use xlink:href="#DejaVuSans-69" x="793.005859"/>
      <use xlink:href="#DejaVuSans-63" x="820.789062"/>
      <use xlink:href="#DejaVuSans-74" x="875.769531"/>
      <use xlink:href="#DejaVuSans-69" x="914.978516"/>
      <use xlink:href="#DejaVuSans-6f" x="942.761719"/>
      <use xlink:href="#DejaVuSans-6e" x="1003.943359"/>
      <use xlink:href="#DejaVuSans-73" x="1067.322266"/>
     </g>
    </g>
   </g>
  </g>
 </g>
 <defs>
  <clipPath id="p8ae0cd2438">
   <rect x="72" y="43.2" width="446.4" height="277.2"/>
  </clipPath>
 </defs>
</svg>
