<?xml version="1.0" encoding="utf-8" standalone="no"?>
<!DOCTYPE svg PUBLIC "-//W3C//DTD SVG 1.1//EN"
  "http://www.w3.org/Graphics/SVG/1.1/DTD/svg11.dtd">
<svg xmlns:xlink="http://www.w3.org/1999/xlink" width="360pt" height="360pt" viewBox="0 0 360 360" xmlns="http://www.w3.org/2000/svg" version="1.1">
 <metadata>
  <rdf:RDF xmlns:dc="http://purl.org/dc/elements/1.1/" xmlns:cc="http://creativecommons.org/ns#" xmlns:rdf="http://www.w3.org/1999/02/22-rdf-syntax-ns#">
   <cc:Work>
    <dc:type rdf:resource="http://purl.org/dc/dcmitype/StillImage"/>
    <dc:date>2022-12-22T12:02:32.728869</dc:date>
    <dc:format>image/svg+xml</dc:format>
    <dc:creator>
     <cc:Agent>
      <dc:title>Matplotlib v3.5.3, https://matplotlib.org/</dc:title>
     </cc:Agent>
    </dc:creator>
   </cc:Work>
  </rdf:RDF>
 </metadata>
 <defs>
  <style type="text/css">*{stroke-linejoin: round; stroke-linecap: butt}</style>
 </defs>
 <g id="figure_1">
  <g id="patch_1">
   <path d="M 0 360 
L 360 360 
L 360 0 
L 0 0 
z
" style="fill: #ffffff"/>
  </g>
  <g id="axes_1">
   <g id="patch_2">
    <path d="M 45 320.4 
L 324 320.4 
L 324 43.2 
L 45 43.2 
z
" style="fill: #e5e5e5"/>
   </g>
   <g id="matplotlib.axis_1">
    <g id="xtick_1">
     <g id="line2d_1">
      <path d="M 57.681818 320.4 
L 57.681818 43.2 
" clip-path="url(#pa0c156f887)" style="fill: none; stroke: #ffffff; stroke-width: 0.8; stroke-linecap: square"/>
     </g>
     <g id="line2d_2">
      <defs>
       <path id="mc55a3db937" d="M 0 0 
L 0 3.5 
" style="stroke: #555555; stroke-width: 0.8"/>
      </defs>
      <g>
       <use xlink:href="#mc55a3db937" x="57.681818" y="320.4" style="fill: #555555; stroke: #555555; stroke-width: 0.8"/>
      </g>
     </g>
     <g id="text_1">
      <!-- −0.5 -->
      <g style="fill: #555555" transform="translate(45.540412 334.998438)scale(0.1 -0.1)">
       <defs>
        <path id="DejaVuSans-2212" d="M 678 2272 
L 4684 2272 
L 4684 1741 
L 678 1741 
L 678 2272 
z
" transform="scale(0.015625)"/>
        <path id="DejaVuSans-30" d="M 2034 4250 
Q 1547 4250 1301 3770 
Q 1056 3291 1056 2328 
Q 1056 1369 1301 889 
Q 1547 409 2034 409 
Q 2525 409 2770 889 
Q 3016 1369 3016 2328 
Q 3016 3291 2770 3770 
Q 2525 4250 2034 4250 
z
M 2034 4750 
Q 2819 4750 3233 4129 
Q 3647 3509 3647 2328 
Q 3647 1150 3233 529 
Q 2819 -91 2034 -91 
Q 1250 -91 836 529 
Q 422 1150 422 2328 
Q 422 3509 836 4129 
Q 1250 4750 2034 4750 
z
" transform="scale(0.015625)"/>
        <path id="DejaVuSans-2e" d="M 684 794 
L 1344 794 
L 1344 0 
L 684 0 
L 684 794 
z
" transform="scale(0.015625)"/>
        <path id="DejaVuSans-35" d="M 691 4666 
L 3169 4666 
L 3169 4134 
L 1269 4134 
L 1269 2991 
Q 1406 3038 1543 3061 
Q 1681 3084 1819 3084 
Q 2600 3084 3056 2656 
Q 3513 2228 3513 1497 
Q 3513 744 3044 326 
Q 2575 -91 1722 -91 
Q 1428 -91 1123 -41 
Q 819 9 494 109 
L 494 744 
Q 775 591 1075 516 
Q 1375 441 1709 441 
Q 2250 441 2565 725 
Q 2881 1009 2881 1497 
Q 2881 1984 2565 2268 
Q 2250 2553 1709 2553 
Q 1456 2553 1204 2497 
Q 953 2441 691 2322 
L 691 4666 
z
" transform="scale(0.015625)"/>
       </defs>
       <use xlink:href="#DejaVuSans-2212"/>
       <use xlink:href="#DejaVuSans-30" x="83.789062"/>
       <use xlink:href="#DejaVuSans-2e" x="147.412109"/>
       <use xlink:href="#DejaVuSans-35" x="179.199219"/>
      </g>
     </g>
    </g>
    <g id="xtick_2">
     <g id="line2d_3">
      <path d="M 99.954545 320.4 
L 99.954545 43.2 
" clip-path="url(#pa0c156f887)" style="fill: none; stroke: #ffffff; stroke-width: 0.8; stroke-linecap: square"/>
     </g>
     <g id="line2d_4">
      <g>
       <use xlink:href="#mc55a3db937" x="99.954545" y="320.4" style="fill: #555555; stroke: #555555; stroke-width: 0.8"/>
      </g>
     </g>
     <g id="text_2">
      <!-- 0.0 -->
      <g style="fill: #555555" transform="translate(92.002983 334.998438)scale(0.1 -0.1)">
       <use xlink:href="#DejaVuSans-30"/>
       <use xlink:href="#DejaVuSans-2e" x="63.623047"/>
       <use xlink:href="#DejaVuSans-30" x="95.410156"/>
      </g>
     </g>
    </g>
    <g id="xtick_3">
     <g id="line2d_5">
      <path d="M 142.227273 320.4 
L 142.227273 43.2 
" clip-path="url(#pa0c156f887)" style="fill: none; stroke: #ffffff; stroke-width: 0.8; stroke-linecap: square"/>
     </g>
     <g id="line2d_6">
      <g>
       <use xlink:href="#mc55a3db937" x="142.227273" y="320.4" style="fill: #555555; stroke: #555555; stroke-width: 0.8"/>
      </g>
     </g>
     <g id="text_3">
      <!-- 0.5 -->
      <g style="fill: #555555" transform="translate(134.27571 334.998438)scale(0.1 -0.1)">
       <use xlink:href="#DejaVuSans-30"/>
       <use xlink:href="#DejaVuSans-2e" x="63.623047"/>
       <use xlink:href="#DejaVuSans-35" x="95.410156"/>
      </g>
     </g>
    </g>
    <g id="xtick_4">
     <g id="line2d_7">
      <path d="M 184.5 320.4 
L 184.5 43.2 
" clip-path="url(#pa0c156f887)" style="fill: none; stroke: #ffffff; stroke-width: 0.8; stroke-linecap: square"/>
     </g>
     <g id="line2d_8">
      <g>
       <use xlink:href="#mc55a3db937" x="184.5" y="320.4" style="fill: #555555; stroke: #555555; stroke-width: 0.8"/>
      </g>
     </g>
     <g id="text_4">
      <!-- 1.0 -->
      <g style="fill: #555555" transform="translate(176.548438 334.998438)scale(0.1 -0.1)">
       <defs>
        <path id="DejaVuSans-31" d="M 794 531 
L 1825 531 
L 1825 4091 
L 703 3866 
L 703 4441 
L 1819 4666 
L 2450 4666 
L 2450 531 
L 3481 531 
L 3481 0 
L 794 0 
L 794 531 
z
" transform="scale(0.015625)"/>
       </defs>
       <use xlink:href="#DejaVuSans-31"/>
       <use xlink:href="#DejaVuSans-2e" x="63.623047"/>
       <use xlink:href="#DejaVuSans-30" x="95.410156"/>
      </g>
     </g>
    </g>
    <g id="xtick_5">
     <g id="line2d_9">
      <path d="M 226.772727 320.4 
L 226.772727 43.2 
" clip-path="url(#pa0c156f887)" style="fill: none; stroke: #ffffff; stroke-width: 0.8; stroke-linecap: square"/>
     </g>
     <g id="line2d_10">
      <g>
       <use xlink:href="#mc55a3db937" x="226.772727" y="320.4" style="fill: #555555; stroke: #555555; stroke-width: 0.8"/>
      </g>
     </g>
     <g id="text_5">
      <!-- 1.5 -->
      <g style="fill: #555555" transform="translate(218.821165 334.998438)scale(0.1 -0.1)">
       <use xlink:href="#DejaVuSans-31"/>
       <use xlink:href="#DejaVuSans-2e" x="63.623047"/>
       <use xlink:href="#DejaVuSans-35" x="95.410156"/>
      </g>
     </g>
    </g>
    <g id="xtick_6">
     <g id="line2d_11">
      <path d="M 269.045455 320.4 
L 269.045455 43.2 
" clip-path="url(#pa0c156f887)" style="fill: none; stroke: #ffffff; stroke-width: 0.8; stroke-linecap: square"/>
     </g>
     <g id="line2d_12">
      <g>
       <use xlink:href="#mc55a3db937" x="269.045455" y="320.4" style="fill: #555555; stroke: #555555; stroke-width: 0.8"/>
      </g>
     </g>
     <g id="text_6">
      <!-- 2.0 -->
      <g style="fill: #555555" transform="translate(261.093892 334.998438)scale(0.1 -0.1)">
       <defs>
        <path id="DejaVuSans-32" d="M 1228 531 
L 3431 531 
L 3431 0 
L 469 0 
L 469 531 
Q 828 903 1448 1529 
Q 2069 2156 2228 2338 
Q 2531 2678 2651 2914 
Q 2772 3150 2772 3378 
Q 2772 3750 2511 3984 
Q 2250 4219 1831 4219 
Q 1534 4219 1204 4116 
Q 875 4013 500 3803 
L 500 4441 
Q 881 4594 1212 4672 
Q 1544 4750 1819 4750 
Q 2544 4750 2975 4387 
Q 3406 4025 3406 3419 
Q 3406 3131 3298 2873 
Q 3191 2616 2906 2266 
Q 2828 2175 2409 1742 
Q 1991 1309 1228 531 
z
" transform="scale(0.015625)"/>
       </defs>
       <use xlink:href="#DejaVuSans-32"/>
       <use xlink:href="#DejaVuSans-2e" x="63.623047"/>
       <use xlink:href="#DejaVuSans-30" x="95.410156"/>
      </g>
     </g>
    </g>
    <g id="xtick_7">
     <g id="line2d_13">
      <path d="M 311.318182 320.4 
L 311.318182 43.2 
" clip-path="url(#pa0c156f887)" style="fill: none; stroke: #ffffff; stroke-width: 0.8; stroke-linecap: square"/>
     </g>
     <g id="line2d_14">
      <g>
       <use xlink:href="#mc55a3db937" x="311.318182" y="320.4" style="fill: #555555; stroke: #555555; stroke-width: 0.8"/>
      </g>
     </g>
     <g id="text_7">
      <!-- 2.5 -->
      <g style="fill: #555555" transform="translate(303.366619 334.998438)scale(0.1 -0.1)">
       <use xlink:href="#DejaVuSans-32"/>
       <use xlink:href="#DejaVuSans-2e" x="63.623047"/>
       <use xlink:href="#DejaVuSans-35" x="95.410156"/>
      </g>
     </g>
    </g>
   </g>
   <g id="matplotlib.axis_2">
    <g id="ytick_1">
     <g id="line2d_15">
      <path d="M 45 293.977311 
L 324 293.977311 
" clip-path="url(#pa0c156f887)" style="fill: none; stroke: #ffffff; stroke-width: 0.8; stroke-linecap: square"/>
     </g>
     <g id="line2d_16">
      <defs>
       <path id="mb8cce6965c" d="M 0 0 
L -3.5 0 
" style="stroke: #555555; stroke-width: 0.8"/>
      </defs>
      <g>
       <use xlink:href="#mb8cce6965c" x="45" y="293.977311" style="fill: #555555; stroke: #555555; stroke-width: 0.8"/>
      </g>
     </g>
     <g id="text_8">
      <!-- $\mathdefault{10^{-3}}$ -->
      <g style="fill: #555555" transform="translate(14.5 297.77653)scale(0.1 -0.1)">
       <defs>
        <path id="DejaVuSans-33" d="M 2597 2516 
Q 3050 2419 3304 2112 
Q 3559 1806 3559 1356 
Q 3559 666 3084 287 
Q 2609 -91 1734 -91 
Q 1441 -91 1130 -33 
Q 819 25 488 141 
L 488 750 
Q 750 597 1062 519 
Q 1375 441 1716 441 
Q 2309 441 2620 675 
Q 2931 909 2931 1356 
Q 2931 1769 2642 2001 
Q 2353 2234 1838 2234 
L 1294 2234 
L 1294 2753 
L 1863 2753 
Q 2328 2753 2575 2939 
Q 2822 3125 2822 3475 
Q 2822 3834 2567 4026 
Q 2313 4219 1838 4219 
Q 1578 4219 1281 4162 
Q 984 4106 628 3988 
L 628 4550 
Q 988 4650 1302 4700 
Q 1616 4750 1894 4750 
Q 2613 4750 3031 4423 
Q 3450 4097 3450 3541 
Q 3450 3153 3228 2886 
Q 3006 2619 2597 2516 
z
" transform="scale(0.015625)"/>
       </defs>
       <use xlink:href="#DejaVuSans-31" transform="translate(0 0.765625)"/>
       <use xlink:href="#DejaVuSans-30" transform="translate(63.623047 0.765625)"/>
       <use xlink:href="#DejaVuSans-2212" transform="translate(128.203125 39.046875)scale(0.7)"/>
       <use xlink:href="#DejaVuSans-33" transform="translate(186.855469 39.046875)scale(0.7)"/>
      </g>
     </g>
    </g>
    <g id="ytick_2">
     <g id="line2d_17">
      <path d="M 45 229.024511 
L 324 229.024511 
" clip-path="url(#pa0c156f887)" style="fill: none; stroke: #ffffff; stroke-width: 0.8; stroke-linecap: square"/>
     </g>
     <g id="line2d_18">
      <g>
       <use xlink:href="#mb8cce6965c" x="45" y="229.024511" style="fill: #555555; stroke: #555555; stroke-width: 0.8"/>
      </g>
     </g>
     <g id="text_9">
      <!-- $\mathdefault{10^{-2}}$ -->
      <g style="fill: #555555" transform="translate(14.5 232.82373)scale(0.1 -0.1)">
       <use xlink:href="#DejaVuSans-31" transform="translate(0 0.765625)"/>
       <use xlink:href="#DejaVuSans-30" transform="translate(63.623047 0.765625)"/>
       <use xlink:href="#DejaVuSans-2212" transform="translate(128.203125 39.046875)scale(0.7)"/>
       <use xlink:href="#DejaVuSans-32" transform="translate(186.855469 39.046875)scale(0.7)"/>
      </g>
     </g>
    </g>
    <g id="ytick_3">
     <g id="line2d_19">
      <path d="M 45 164.071711 
L 324 164.071711 
" clip-path="url(#pa0c156f887)" style="fill: none; stroke: #ffffff; stroke-width: 0.8; stroke-linecap: square"/>
     </g>
     <g id="line2d_20">
      <g>
       <use xlink:href="#mb8cce6965c" x="45" y="164.071711" style="fill: #555555; stroke: #555555; stroke-width: 0.8"/>
      </g>
     </g>
     <g id="text_10">
      <!-- $\mathdefault{10^{-1}}$ -->
      <g style="fill: #555555" transform="translate(14.5 167.87093)scale(0.1 -0.1)">
       <use xlink:href="#DejaVuSans-31" transform="translate(0 0.684375)"/>
       <use xlink:href="#DejaVuSans-30" transform="translate(63.623047 0.684375)"/>
       <use xlink:href="#DejaVuSans-2212" transform="translate(128.203125 38.965625)scale(0.7)"/>
       <use xlink:href="#DejaVuSans-31" transform="translate(186.855469 38.965625)scale(0.7)"/>
      </g>
     </g>
    </g>
    <g id="ytick_4">
     <g id="line2d_21">
      <path d="M 45 99.118911 
L 324 99.118911 
" clip-path="url(#pa0c156f887)" style="fill: none; stroke: #ffffff; stroke-width: 0.8; stroke-linecap: square"/>
     </g>
     <g id="line2d_22">
      <g>
       <use xlink:href="#mb8cce6965c" x="45" y="99.118911" style="fill: #555555; stroke: #555555; stroke-width: 0.8"/>
      </g>
     </g>
     <g id="text_11">
      <!-- $\mathdefault{10^{0}}$ -->
      <g style="fill: #555555" transform="translate(20.4 102.91813)scale(0.1 -0.1)">
       <use xlink:href="#DejaVuSans-31" transform="translate(0 0.765625)"/>
       <use xlink:href="#DejaVuSans-30" transform="translate(63.623047 0.765625)"/>
       <use xlink:href="#DejaVuSans-30" transform="translate(128.203125 39.046875)scale(0.7)"/>
      </g>
     </g>
    </g>
    <g id="ytick_5">
     <g id="line2d_23">
      <defs>
       <path id="md2ad03ea62" d="M 0 0 
L -2 0 
" style="stroke: #555555; stroke-width: 0.6"/>
      </defs>
      <g>
       <use xlink:href="#md2ad03ea62" x="45" y="319.824629" style="fill: #555555; stroke: #555555; stroke-width: 0.6"/>
      </g>
     </g>
    </g>
    <g id="ytick_6">
     <g id="line2d_24">
      <g>
       <use xlink:href="#md2ad03ea62" x="45" y="313.530052" style="fill: #555555; stroke: #555555; stroke-width: 0.6"/>
      </g>
     </g>
    </g>
    <g id="ytick_7">
     <g id="line2d_25">
      <g>
       <use xlink:href="#md2ad03ea62" x="45" y="308.387009" style="fill: #555555; stroke: #555555; stroke-width: 0.6"/>
      </g>
     </g>
    </g>
    <g id="ytick_8">
     <g id="line2d_26">
      <g>
       <use xlink:href="#md2ad03ea62" x="45" y="304.038627" style="fill: #555555; stroke: #555555; stroke-width: 0.6"/>
      </g>
     </g>
    </g>
    <g id="ytick_9">
     <g id="line2d_27">
      <g>
       <use xlink:href="#md2ad03ea62" x="45" y="300.271888" style="fill: #555555; stroke: #555555; stroke-width: 0.6"/>
      </g>
     </g>
    </g>
    <g id="ytick_10">
     <g id="line2d_28">
      <g>
       <use xlink:href="#md2ad03ea62" x="45" y="296.949388" style="fill: #555555; stroke: #555555; stroke-width: 0.6"/>
      </g>
     </g>
    </g>
    <g id="ytick_11">
     <g id="line2d_29">
      <g>
       <use xlink:href="#md2ad03ea62" x="45" y="274.42457" style="fill: #555555; stroke: #555555; stroke-width: 0.6"/>
      </g>
     </g>
    </g>
    <g id="ytick_12">
     <g id="line2d_30">
      <g>
       <use xlink:href="#md2ad03ea62" x="45" y="262.98695" style="fill: #555555; stroke: #555555; stroke-width: 0.6"/>
      </g>
     </g>
    </g>
    <g id="ytick_13">
     <g id="line2d_31">
      <g>
       <use xlink:href="#md2ad03ea62" x="45" y="254.871829" style="fill: #555555; stroke: #555555; stroke-width: 0.6"/>
      </g>
     </g>
    </g>
    <g id="ytick_14">
     <g id="line2d_32">
      <g>
       <use xlink:href="#md2ad03ea62" x="45" y="248.577252" style="fill: #555555; stroke: #555555; stroke-width: 0.6"/>
      </g>
     </g>
    </g>
    <g id="ytick_15">
     <g id="line2d_33">
      <g>
       <use xlink:href="#md2ad03ea62" x="45" y="243.434209" style="fill: #555555; stroke: #555555; stroke-width: 0.6"/>
      </g>
     </g>
    </g>
    <g id="ytick_16">
     <g id="line2d_34">
      <g>
       <use xlink:href="#md2ad03ea62" x="45" y="239.085827" style="fill: #555555; stroke: #555555; stroke-width: 0.6"/>
      </g>
     </g>
    </g>
    <g id="ytick_17">
     <g id="line2d_35">
      <g>
       <use xlink:href="#md2ad03ea62" x="45" y="235.319088" style="fill: #555555; stroke: #555555; stroke-width: 0.6"/>
      </g>
     </g>
    </g>
    <g id="ytick_18">
     <g id="line2d_36">
      <g>
       <use xlink:href="#md2ad03ea62" x="45" y="231.996588" style="fill: #555555; stroke: #555555; stroke-width: 0.6"/>
      </g>
     </g>
    </g>
    <g id="ytick_19">
     <g id="line2d_37">
      <g>
       <use xlink:href="#md2ad03ea62" x="45" y="209.47177" style="fill: #555555; stroke: #555555; stroke-width: 0.6"/>
      </g>
     </g>
    </g>
    <g id="ytick_20">
     <g id="line2d_38">
      <g>
       <use xlink:href="#md2ad03ea62" x="45" y="198.03415" style="fill: #555555; stroke: #555555; stroke-width: 0.6"/>
      </g>
     </g>
    </g>
    <g id="ytick_21">
     <g id="line2d_39">
      <g>
       <use xlink:href="#md2ad03ea62" x="45" y="189.919029" style="fill: #555555; stroke: #555555; stroke-width: 0.6"/>
      </g>
     </g>
    </g>
    <g id="ytick_22">
     <g id="line2d_40">
      <g>
       <use xlink:href="#md2ad03ea62" x="45" y="183.624452" style="fill: #555555; stroke: #555555; stroke-width: 0.6"/>
      </g>
     </g>
    </g>
    <g id="ytick_23">
     <g id="line2d_41">
      <g>
       <use xlink:href="#md2ad03ea62" x="45" y="178.481409" style="fill: #555555; stroke: #555555; stroke-width: 0.6"/>
      </g>
     </g>
    </g>
    <g id="ytick_24">
     <g id="line2d_42">
      <g>
       <use xlink:href="#md2ad03ea62" x="45" y="174.133027" style="fill: #555555; stroke: #555555; stroke-width: 0.6"/>
      </g>
     </g>
    </g>
    <g id="ytick_25">
     <g id="line2d_43">
      <g>
       <use xlink:href="#md2ad03ea62" x="45" y="170.366288" style="fill: #555555; stroke: #555555; stroke-width: 0.6"/>
      </g>
     </g>
    </g>
    <g id="ytick_26">
     <g id="line2d_44">
      <g>
       <use xlink:href="#md2ad03ea62" x="45" y="167.043788" style="fill: #555555; stroke: #555555; stroke-width: 0.6"/>
      </g>
     </g>
    </g>
    <g id="ytick_27">
     <g id="line2d_45">
      <g>
       <use xlink:href="#md2ad03ea62" x="45" y="144.51897" style="fill: #555555; stroke: #555555; stroke-width: 0.6"/>
      </g>
     </g>
    </g>
    <g id="ytick_28">
     <g id="line2d_46">
      <g>
       <use xlink:href="#md2ad03ea62" x="45" y="133.08135" style="fill: #555555; stroke: #555555; stroke-width: 0.6"/>
      </g>
     </g>
    </g>
    <g id="ytick_29">
     <g id="line2d_47">
      <g>
       <use xlink:href="#md2ad03ea62" x="45" y="124.966229" style="fill: #555555; stroke: #555555; stroke-width: 0.6"/>
      </g>
     </g>
    </g>
    <g id="ytick_30">
     <g id="line2d_48">
      <g>
       <use xlink:href="#md2ad03ea62" x="45" y="118.671652" style="fill: #555555; stroke: #555555; stroke-width: 0.6"/>
      </g>
     </g>
    </g>
    <g id="ytick_31">
     <g id="line2d_49">
      <g>
       <use xlink:href="#md2ad03ea62" x="45" y="113.528609" style="fill: #555555; stroke: #555555; stroke-width: 0.6"/>
      </g>
     </g>
    </g>
    <g id="ytick_32">
     <g id="line2d_50">
      <g>
       <use xlink:href="#md2ad03ea62" x="45" y="109.180227" style="fill: #555555; stroke: #555555; stroke-width: 0.6"/>
      </g>
     </g>
    </g>
    <g id="ytick_33">
     <g id="line2d_51">
      <g>
       <use xlink:href="#md2ad03ea62" x="45" y="105.413488" style="fill: #555555; stroke: #555555; stroke-width: 0.6"/>
      </g>
     </g>
    </g>
    <g id="ytick_34">
     <g id="line2d_52">
      <g>
       <use xlink:href="#md2ad03ea62" x="45" y="102.090988" style="fill: #555555; stroke: #555555; stroke-width: 0.6"/>
      </g>
     </g>
    </g>
    <g id="ytick_35">
     <g id="line2d_53">
      <g>
       <use xlink:href="#md2ad03ea62" x="45" y="79.56617" style="fill: #555555; stroke: #555555; stroke-width: 0.6"/>
      </g>
     </g>
    </g>
    <g id="ytick_36">
     <g id="line2d_54">
      <g>
       <use xlink:href="#md2ad03ea62" x="45" y="68.12855" style="fill: #555555; stroke: #555555; stroke-width: 0.6"/>
      </g>
     </g>
    </g>
    <g id="ytick_37">
     <g id="line2d_55">
      <g>
       <use xlink:href="#md2ad03ea62" x="45" y="60.013429" style="fill: #555555; stroke: #555555; stroke-width: 0.6"/>
      </g>
     </g>
    </g>
    <g id="ytick_38">
     <g id="line2d_56">
      <g>
       <use xlink:href="#md2ad03ea62" x="45" y="53.718852" style="fill: #555555; stroke: #555555; stroke-width: 0.6"/>
      </g>
     </g>
    </g>
    <g id="ytick_39">
     <g id="line2d_57">
      <g>
       <use xlink:href="#md2ad03ea62" x="45" y="48.575809" style="fill: #555555; stroke: #555555; stroke-width: 0.6"/>
      </g>
     </g>
    </g>
    <g id="ytick_40">
     <g id="line2d_58">
      <g>
       <use xlink:href="#md2ad03ea62" x="45" y="44.227427" style="fill: #555555; stroke: #555555; stroke-width: 0.6"/>
      </g>
     </g>
    </g>
   </g>
   <g id="line2d_59">
    <path d="M 99.954545 120.793045 
L 101.662534 127.447077 
L 103.370523 139.242981 
L 105.078513 127.425155 
L 106.786501 146.74969 
L 108.49449 144.18947 
L 110.20248 196.249474 
L 111.910468 134.622909 
L 113.618457 159.601566 
L 115.326447 128.001621 
L 117.034435 181.858985 
L 118.742424 137.099155 
L 120.450414 156.583322 
L 122.158402 163.28974 
L 123.86639 152.349202 
L 125.574381 153.161197 
L 127.282369 131.694428 
L 128.990357 181.591216 
L 130.698348 156.684747 
L 132.406336 184.234319 
L 134.114324 144.698427 
L 135.822315 150.607029 
L 137.530303 164.256084 
L 139.238292 136.016502 
L 140.946282 146.455236 
L 142.654273 146.154964 
L 144.362259 182.462498 
L 146.070249 144.56987 
L 147.77824 161.690381 
L 149.486226 185.239973 
L 151.194216 164.930441 
L 152.902207 155.409151 
L 154.610193 133.00928 
L 156.318183 146.77134 
L 158.026169 189.395673 
L 159.73416 127.761706 
L 161.442151 164.761766 
L 163.150136 192.64666 
L 164.858127 158.027317 
L 166.566113 170.720771 
L 168.274103 141.350061 
L 169.982094 133.363512 
L 171.69008 174.186476 
L 173.39807 234.908294 
L 175.106061 154.770752 
L 176.814047 116.421817 
L 178.522038 156.384883 
L 180.230028 219.217539 
L 181.938019 171.326206 
L 183.64601 193.874546 
L 185.354 163.562959 
L 187.061981 147.657327 
L 188.769972 191.576803 
L 190.477962 134.710957 
L 192.185953 155.897764 
L 193.893944 155.81713 
L 195.601925 134.696634 
L 197.309915 226.90009 
L 199.017906 186.537002 
L 200.725887 167.17945 
L 202.433877 171.552411 
L 204.141868 132.893266 
L 205.849859 132.014592 
L 207.557849 145.019468 
L 209.26584 143.755706 
L 210.973831 168.090979 
L 212.681822 127.914305 
L 214.389812 203.420762 
L 216.097793 248.801318 
L 217.805784 162.362301 
L 219.513774 136.219104 
L 221.221765 143.285589 
L 222.929756 174.569514 
L 224.637746 169.150066 
L 226.345737 253.745595 
L 228.053718 166.20668 
L 229.761708 155.125321 
L 231.469699 166.672284 
L 233.17769 125.70715 
L 234.885681 168.7716 
L 236.593661 170.156431 
L 238.301652 206.353126 
L 240.009643 149.445485 
L 241.717623 233.06246 
L 243.425614 139.073433 
L 245.133605 140.017031 
L 246.841595 130.219109 
L 248.549586 201.883324 
L 250.257577 202.66572 
L 251.965568 142.417713 
L 253.673558 157.919535 
L 255.381549 263.984767 
L 257.08953 164.439854 
L 258.79752 135.801337 
L 260.505511 216.251647 
L 262.213502 160.115603 
L 263.921492 133.422168 
L 265.629473 157.685749 
L 267.337464 155.08906 
L 269.045455 152.98776 
" clip-path="url(#pa0c156f887)" style="fill: none; stroke: #e24a33; stroke-width: 1.5; stroke-linecap: square"/>
   </g>
   <g id="line2d_60">
    <path d="M 57.681818 86.566095 
L 58.189598 91.638966 
L 58.443488 88.244648 
L 58.697379 86.676311 
L 58.951269 94.193229 
L 59.205159 87.343731 
L 59.459049 93.208799 
L 59.712939 87.640192 
L 59.966829 90.963619 
L 60.220719 89.71938 
L 60.474609 91.328796 
L 60.728499 96.287973 
L 60.98239 91.584186 
L 61.23628 96.572536 
L 61.49017 97.054323 
L 61.744062 95.619257 
L 61.997952 88.223267 
L 62.251843 92.58781 
L 62.505733 93.276907 
L 62.759623 98.33516 
L 63.013513 97.110036 
L 63.267403 96.784435 
L 63.521293 93.482383 
L 63.775186 100.027029 
L 64.029076 93.140462 
L 64.282966 102.779244 
L 64.536856 95.688657 
L 65.044636 100.106812 
L 65.298526 110.211203 
L 65.806307 99.426108 
L 66.314087 106.753828 
L 66.821867 96.62711 
L 67.075757 105.710496 
L 67.329647 124.930247 
L 67.583537 100.67243 
L 67.837427 129.656866 
L 68.091317 107.643362 
L 68.345208 114.892194 
L 68.599098 100.228407 
L 68.852988 108.151067 
L 69.106878 108.794022 
L 69.360768 115.072222 
L 69.614658 105.70417 
L 69.868551 105.449742 
L 70.122441 114.276373 
L 70.376331 107.068479 
L 70.630221 119.255701 
L 70.884111 102.393238 
L 71.138001 112.370526 
L 71.391891 105.742882 
L 71.645781 102.419336 
L 71.899674 129.035024 
L 72.153564 105.528956 
L 72.407454 105.755768 
L 72.661344 98.27087 
L 72.915234 105.009952 
L 73.169125 119.974021 
L 73.423015 118.808388 
L 73.676905 112.253449 
L 74.184685 138.331789 
L 74.692465 122.00686 
L 74.946355 109.874259 
L 75.200245 104.124841 
L 75.454135 140.37756 
L 75.708026 128.267593 
L 75.961916 108.821463 
L 76.215806 126.070238 
L 76.469696 112.233384 
L 76.723586 112.560727 
L 76.977476 150.086512 
L 77.485256 116.098997 
L 77.739146 114.492761 
L 77.993039 144.021869 
L 78.246929 118.533192 
L 78.500819 117.623585 
L 78.754709 109.736388 
L 79.008599 126.693263 
L 79.262491 131.639191 
L 79.516381 114.374241 
L 79.770271 128.793377 
L 80.024162 123.848391 
L 80.278052 114.200961 
L 80.531943 112.308421 
L 80.785833 121.621022 
L 81.039723 124.683937 
L 81.547504 173.836072 
L 81.801394 201.916401 
L 82.055283 128.211235 
L 82.309173 124.438693 
L 82.563063 134.671612 
L 82.816953 151.424941 
L 83.070844 115.386568 
L 83.324735 125.4809 
L 83.578625 117.774273 
L 83.832515 142.80792 
L 84.086404 129.563403 
L 84.340294 148.71997 
L 84.594184 120.183868 
L 84.848074 113.55553 
L 85.355856 168.626378 
L 85.609746 198.393982 
L 85.863636 169.006643 
L 86.117527 158.647736 
L 86.371417 138.503477 
L 86.625308 132.524639 
L 86.879198 112.644956 
L 87.133088 157.922182 
L 87.386979 144.629454 
L 87.640869 175.851833 
L 87.894759 136.156562 
L 88.148651 144.20756 
L 88.402541 143.134488 
L 88.656431 140.718693 
L 88.910321 136.261316 
L 89.164211 156.015806 
L 89.418102 112.232326 
L 89.671993 126.832963 
L 89.925883 122.076239 
L 90.179771 235.906403 
L 90.433662 151.270804 
L 90.687552 167.492132 
L 90.941442 121.741041 
L 91.195333 146.448426 
L 91.449223 128.012327 
L 91.703113 153.216055 
L 91.957003 157.398797 
L 92.210892 138.576859 
L 92.464782 138.348206 
L 92.718672 140.104317 
L 92.972563 148.415141 
L 93.226453 180.372922 
L 93.480343 123.545553 
L 93.988124 222.828966 
L 94.242016 147.453928 
L 94.495906 144.606047 
L 94.749796 168.543701 
L 95.003687 136.661424 
L 95.257577 142.081086 
L 95.511467 120.143214 
L 95.765357 132.210806 
L 96.019248 172.385722 
L 96.273139 128.157049 
L 96.527029 153.947308 
L 96.780919 132.726755 
L 97.03481 166.052223 
L 97.2887 145.23815 
L 97.54259 134.020079 
L 97.796481 184.932565 
L 98.050371 139.387892 
L 98.30426 180.654493 
L 98.55815 173.656562 
L 98.81204 123.702158 
L 99.065931 168.206705 
L 99.319821 138.692669 
L 99.573711 185.815201 
L 99.827601 155.228368 
L 100.081492 203.297056 
L 100.335381 152.650172 
L 100.589271 133.376352 
L 101.097051 180.679897 
L 101.350942 193.981119 
L 101.604832 158.1169 
L 101.858722 155.331385 
L 102.112612 143.884963 
L 102.366506 243.054792 
L 102.874287 167.49328 
L 103.128177 187.334077 
L 103.382068 151.363607 
L 103.635958 138.718002 
L 103.889848 247.335963 
L 104.143738 172.98177 
L 104.397627 188.451273 
L 104.651517 174.979376 
L 104.905408 131.668944 
L 105.667078 176.784122 
L 105.920969 142.489332 
L 106.174859 166.545753 
L 106.428748 156.066753 
L 106.682638 133.978857 
L 106.936528 123.549951 
L 107.190419 142.17426 
L 107.444309 169.62306 
L 107.95209 124.269778 
L 108.20598 184.317426 
L 108.459869 159.893177 
L 108.713759 202.783277 
L 108.967649 135.349718 
L 109.47543 165.352405 
L 109.983211 127.876271 
L 110.237101 138.316738 
L 110.49099 157.610168 
L 110.74488 162.296824 
L 110.99877 197.297305 
L 111.50655 178.269926 
L 111.760442 212.608039 
L 112.014332 218.279481 
L 112.268222 141.821957 
L 112.522116 159.914158 
L 112.776006 169.823537 
L 113.029896 167.195069 
L 113.283786 187.254968 
L 113.537676 176.617976 
L 114.045457 124.643215 
L 114.299348 160.271073 
L 114.553236 154.920267 
L 114.807127 159.531165 
L 115.061017 172.748862 
L 115.314907 194.933973 
L 115.568797 167.548293 
L 115.822688 184.625517 
L 116.076578 113.89447 
L 116.330468 157.243049 
L 116.584357 143.099829 
L 116.838247 160.097634 
L 117.092137 165.522706 
L 117.346028 185.347262 
L 117.599918 187.87705 
L 117.853809 157.711345 
L 118.107699 195.852228 
L 118.361589 202.066771 
L 118.615483 184.67784 
L 118.869373 151.953969 
L 119.123263 165.300698 
L 119.377153 124.157899 
L 119.631044 147.071464 
L 119.884935 157.402797 
L 120.138825 173.034528 
L 120.392715 174.505899 
L 120.646604 129.173875 
L 121.154384 173.97442 
L 121.408274 126.038637 
L 121.662164 188.131531 
L 121.916054 279.491225 
L 122.169945 223.38415 
L 122.423835 140.359552 
L 122.677725 173.118926 
L 122.931615 156.462585 
L 123.185505 190.451143 
L 123.439395 155.054381 
L 123.693285 136.328461 
L 124.201065 125.401934 
L 124.454955 203.984158 
L 124.708846 158.346499 
L 124.962736 149.87286 
L 125.470516 170.584651 
L 125.724406 208.982244 
L 125.978296 162.473185 
L 126.232186 146.275392 
L 126.486076 188.506529 
L 126.739966 134.917415 
L 127.247747 155.503322 
L 127.501637 192.654768 
L 127.755527 136.71518 
L 128.009417 151.808592 
L 128.263307 132.654845 
L 128.517197 150.769524 
L 128.771092 148.240962 
L 129.024982 167.109442 
L 129.278872 146.549777 
L 129.532763 154.762603 
L 129.786653 136.025716 
L 130.040543 132.158507 
L 130.548323 183.389774 
L 130.802213 150.685366 
L 131.056103 177.801745 
L 131.309993 258.006851 
L 131.563883 187.835962 
L 132.071664 151.577347 
L 132.325554 181.173641 
L 132.579444 190.526706 
L 133.087224 164.777981 
L 133.341114 169.660345 
L 133.595004 161.163871 
L 133.848894 164.505749 
L 134.102784 131.808519 
L 134.356675 160.275017 
L 134.610565 163.481844 
L 134.86446 153.807826 
L 135.11835 148.677088 
L 135.37224 177.970755 
L 135.62613 126.266336 
L 135.88002 145.524743 
L 136.13391 236.973225 
L 136.3878 161.386902 
L 136.64169 194.151041 
L 136.895581 152.711502 
L 137.149471 146.948747 
L 137.403361 150.458093 
L 137.657251 170.982238 
L 137.911141 128.933012 
L 138.165031 131.187226 
L 138.418921 177.884647 
L 138.672811 160.686257 
L 138.926701 162.294555 
L 139.180591 172.809074 
L 139.434482 174.385204 
L 139.688372 153.835194 
L 139.942262 170.805755 
L 140.196152 140.791116 
L 140.703932 128.448762 
L 140.957822 167.840284 
L 141.211712 148.978723 
L 141.465602 168.738188 
L 141.719493 142.237296 
L 141.973383 146.837192 
L 142.227273 144.219391 
L 142.481163 223.013148 
L 142.988943 151.927305 
L 143.242833 136.658361 
L 143.496723 145.05655 
L 143.750613 164.742892 
L 144.004503 154.499592 
L 144.258394 183.729761 
L 144.512284 151.250668 
L 144.766174 185.341968 
L 145.020064 183.154529 
L 145.273954 138.177557 
L 145.527844 131.456331 
L 145.781734 152.199241 
L 146.289514 121.895086 
L 146.543404 174.619616 
L 146.797295 173.475692 
L 147.051195 198.766442 
L 147.305085 147.753505 
L 147.558975 131.150057 
L 147.812865 129.555061 
L 148.066755 190.503905 
L 148.320645 156.574163 
L 148.574535 213.977332 
L 148.828425 128.040943 
L 149.082316 117.964867 
L 149.336206 129.73987 
L 149.590096 128.099309 
L 149.843986 136.245458 
L 150.097876 121.092862 
L 150.351766 152.236231 
L 150.605656 166.847926 
L 150.859546 147.154565 
L 151.113436 153.503915 
L 151.367326 149.764989 
L 151.621217 127.145069 
L 151.875107 138.615088 
L 152.128997 140.33727 
L 152.382887 116.712081 
L 152.890667 162.800071 
L 153.144557 158.73045 
L 153.398447 193.331303 
L 153.652337 184.177321 
L 153.906228 193.907974 
L 154.160118 119.453722 
L 154.414008 152.561375 
L 154.667898 145.903799 
L 154.921788 135.883499 
L 155.175678 149.631508 
L 155.429568 153.8227 
L 155.937348 126.214171 
L 156.191238 138.949635 
L 156.445129 140.395472 
L 156.699019 190.713531 
L 156.952909 158.196489 
L 157.206799 157.94614 
L 157.714579 176.851042 
L 157.968469 161.396921 
L 158.222359 129.494205 
L 158.476249 140.583172 
L 158.730139 161.344083 
L 158.98403 167.554593 
L 159.23792 131.327877 
L 159.49181 177.621368 
L 159.7457 158.129382 
L 159.99959 149.645208 
L 160.25348 154.067096 
L 160.50737 133.074999 
L 160.76126 160.565414 
L 161.01515 226.888522 
L 161.26904 130.965603 
L 161.522931 180.622972 
L 161.776821 129.227532 
L 162.030711 167.958337 
L 162.284601 166.552511 
L 162.538491 159.773886 
L 162.792381 159.205164 
L 163.046271 123.872004 
L 163.300161 158.307915 
L 163.554051 120.095346 
L 164.061832 155.399538 
L 164.315722 161.743938 
L 164.569612 149.119736 
L 164.823502 166.011135 
L 165.077392 125.067914 
L 165.585182 145.609155 
L 165.839072 131.590104 
L 166.092963 185.053863 
L 166.346853 175.452906 
L 166.600743 242.431728 
L 167.108523 144.471763 
L 167.362413 188.812415 
L 167.616303 172.878919 
L 167.870193 182.114463 
L 168.124083 123.819104 
L 168.377973 145.556353 
L 168.631864 124.112879 
L 168.885754 163.043327 
L 169.393534 131.363071 
L 169.647424 218.788666 
L 169.901314 164.883182 
L 170.155204 166.17842 
L 170.409094 179.021488 
L 170.662984 184.171095 
L 170.916874 174.192402 
L 171.170765 151.770778 
L 171.424655 153.557499 
L 171.678545 178.868035 
L 171.932435 149.426751 
L 172.186325 211.984346 
L 172.440215 172.406835 
L 172.694105 159.884176 
L 172.947995 161.898542 
L 173.201885 161.512918 
L 173.455775 141.994899 
L 173.709666 235.743687 
L 173.963556 170.884176 
L 174.217446 139.879402 
L 174.471336 150.908339 
L 174.725226 178.994582 
L 174.979116 138.317464 
L 175.233006 154.742268 
L 175.486896 139.107707 
L 175.994677 200.024867 
L 176.248567 115.827096 
L 177.010237 159.927126 
L 177.264127 133.031275 
L 177.518017 181.886546 
L 177.771907 176.422209 
L 178.025797 157.542971 
L 178.279687 171.75911 
L 178.533578 133.649598 
L 178.787468 167.982076 
L 179.041358 138.208809 
L 179.295248 137.672024 
L 179.549148 174.257538 
L 179.803038 148.460412 
L 180.056928 135.889254 
L 180.310818 160.64568 
L 180.818599 121.988013 
L 181.072489 157.470943 
L 181.326379 151.273269 
L 181.580269 140.273549 
L 181.834159 155.446556 
L 182.088049 121.233198 
L 182.341939 140.974095 
L 182.595829 307.23214 
L 182.849719 177.386793 
L 183.103609 180.902716 
L 183.3575 137.194404 
L 183.61139 240.992096 
L 183.86528 127.127452 
L 184.11917 128.695728 
L 184.37306 155.712943 
L 184.62695 149.078147 
L 185.13473 169.811178 
L 185.38862 170.574207 
L 185.6425 149.505712 
L 185.896391 152.034372 
L 186.404171 132.008847 
L 186.658061 166.903832 
L 186.911951 151.477699 
L 187.165841 154.937224 
L 187.419731 120.268562 
L 187.673621 165.796811 
L 187.927511 171.116396 
L 188.181401 148.409954 
L 188.435292 180.270836 
L 188.943072 120.200458 
L 189.704752 179.869687 
L 189.958642 129.974577 
L 190.212532 166.988243 
L 190.466422 154.029025 
L 190.720313 153.705009 
L 190.974203 158.713584 
L 191.228093 190.406947 
L 191.481983 158.50342 
L 191.735873 181.066784 
L 192.243653 142.724997 
L 192.497543 147.851264 
L 192.751433 149.346398 
L 193.005323 182.288101 
L 193.259214 127.870452 
L 193.513104 156.659274 
L 193.766994 253.343295 
L 194.274774 149.388911 
L 194.528664 157.84208 
L 194.782554 161.740378 
L 195.290334 143.687785 
L 195.544225 168.702002 
L 195.798115 231.033855 
L 196.052005 143.382282 
L 196.305895 192.601709 
L 196.559785 172.249718 
L 196.813675 134.380452 
L 197.067565 222.858765 
L 197.321455 146.640956 
L 197.829235 156.705342 
L 198.083126 154.669041 
L 198.337016 211.262093 
L 198.590906 127.454761 
L 198.844796 190.894164 
L 199.098686 135.096698 
L 199.352576 144.418318 
L 199.606466 144.93886 
L 199.860356 152.900272 
L 200.114246 153.024189 
L 200.368136 230.656299 
L 200.622027 150.347395 
L 200.875917 129.575748 
L 201.129807 155.204656 
L 201.383697 156.954995 
L 201.637587 140.09068 
L 201.891477 161.207696 
L 202.145367 160.722812 
L 202.399257 193.199362 
L 202.653147 160.528241 
L 202.907037 208.173456 
L 203.160928 147.381352 
L 203.414818 147.397488 
L 203.668708 163.609094 
L 203.922598 213.140458 
L 204.176488 156.249062 
L 204.430378 166.833548 
L 204.684268 139.869322 
L 204.938158 126.664036 
L 205.192048 133.500679 
L 205.445939 161.418339 
L 205.699829 128.409044 
L 205.953729 130.549678 
L 206.207619 117.224018 
L 206.715399 166.798116 
L 206.969289 125.956216 
L 207.223179 149.274356 
L 207.477069 141.919263 
L 207.73096 118.258893 
L 207.98485 162.209951 
L 208.23874 145.963218 
L 208.49263 147.377694 
L 208.74652 134.726224 
L 209.00041 130.527592 
L 209.2543 169.491771 
L 209.50819 133.503337 
L 209.76208 136.006089 
L 210.01597 151.51613 
L 210.269861 228.224954 
L 210.523751 160.478276 
L 210.777641 149.307379 
L 211.031531 149.456988 
L 211.285421 163.765893 
L 211.539311 116.245312 
L 211.793201 128.070656 
L 212.300981 198.734514 
L 212.554871 185.091343 
L 212.808762 220.770041 
L 213.062652 178.993275 
L 213.316542 216.817051 
L 213.570432 175.315215 
L 213.824322 191.755109 
L 214.078212 221.698298 
L 214.332102 126.964085 
L 214.585992 126.500925 
L 215.093772 181.320662 
L 215.347663 195.223061 
L 215.601553 120.981128 
L 216.109333 214.049194 
L 216.363223 164.004154 
L 216.617113 140.041253 
L 216.871003 128.151551 
L 217.124893 164.142801 
L 217.378783 140.766989 
L 217.632674 132.335169 
L 217.886564 198.027004 
L 218.140454 134.161372 
L 218.394344 137.037921 
L 218.648234 132.195609 
L 218.902124 117.507432 
L 219.156014 177.449584 
L 219.409904 183.21091 
L 219.663794 151.067223 
L 219.917684 179.932043 
L 220.171575 146.939396 
L 220.425465 219.494612 
L 220.933245 117.396489 
L 221.187135 209.207684 
L 221.441025 152.409185 
L 221.948805 170.967854 
L 222.202705 203.479571 
L 222.456596 128.13876 
L 222.710486 158.740434 
L 222.964376 169.552115 
L 223.218266 162.516547 
L 223.472156 192.841222 
L 223.726046 143.88811 
L 223.979936 154.044 
L 224.233826 153.740733 
L 224.487716 173.075524 
L 224.741606 150.387715 
L 224.995497 165.912629 
L 225.249387 251.140658 
L 225.503277 139.691145 
L 225.757167 233.595094 
L 226.011057 149.983802 
L 226.264947 177.456955 
L 226.518837 152.570871 
L 226.772727 151.766551 
L 227.026617 146.117243 
L 227.280507 158.982061 
L 227.534398 223.915871 
L 227.788288 138.871879 
L 228.042178 155.380773 
L 228.296068 191.739465 
L 228.549958 120.058215 
L 228.803848 164.11216 
L 229.057738 125.00601 
L 229.311628 138.304079 
L 229.565518 267.120775 
L 229.819409 126.65452 
L 230.073299 188.876622 
L 230.327189 147.758076 
L 230.581079 131.636128 
L 230.834969 148.861034 
L 231.088859 230.800827 
L 231.342749 139.782697 
L 231.596639 192.636512 
L 231.850529 149.687406 
L 232.104419 229.738047 
L 232.35831 173.00707 
L 232.6122 218.472613 
L 232.86609 166.275483 
L 233.11998 145.30675 
L 233.37387 155.066136 
L 233.62776 152.954675 
L 233.88165 187.755136 
L 234.13554 140.658711 
L 234.64332 201.066648 
L 234.897211 146.207849 
L 235.404991 126.116111 
L 235.658881 207.90192 
L 235.912771 146.0404 
L 236.420551 169.6617 
L 236.674441 158.560484 
L 236.928331 156.694508 
L 237.182221 176.577902 
L 237.436112 136.889279 
L 237.690002 156.922248 
L 237.943892 130.893317 
L 238.197782 166.384744 
L 238.705562 117.202847 
L 238.959452 195.078811 
L 239.213342 158.225982 
L 239.467232 148.614164 
L 239.721123 129.184758 
L 239.975013 126.521058 
L 240.228903 195.468665 
L 240.482793 191.583402 
L 240.736683 213.720035 
L 240.990573 155.316529 
L 241.244463 234.101722 
L 241.498353 168.509264 
L 241.752243 153.922519 
L 242.006133 175.341266 
L 242.260024 165.411659 
L 242.513924 142.579496 
L 242.767814 131.333871 
L 243.021704 307.8 
L 243.275594 144.841558 
L 243.529484 149.721187 
L 243.783374 160.701254 
L 244.037264 207.797501 
L 244.291154 147.415719 
L 244.545045 169.536715 
L 244.798935 131.098138 
L 245.052825 136.337156 
L 245.306715 164.997084 
L 245.560605 166.737887 
L 245.814495 125.545854 
L 246.068385 117.286125 
L 246.576165 166.140222 
L 246.830055 128.57808 
L 247.083946 172.556026 
L 247.337836 121.145428 
L 247.591726 118.592223 
L 247.845616 200.540728 
L 248.099506 141.835948 
L 248.353396 131.349629 
L 248.607286 145.234554 
L 248.861176 188.98603 
L 249.115066 141.85489 
L 249.368956 128.398239 
L 249.622847 176.909174 
L 249.876737 183.574768 
L 250.130627 178.742014 
L 250.384517 146.67298 
L 250.638417 158.763781 
L 251.146197 169.534478 
L 251.400087 124.635321 
L 251.653977 149.63544 
L 251.907868 155.845367 
L 252.161758 232.630575 
L 252.669538 142.431206 
L 252.923428 124.308435 
L 253.177318 127.031554 
L 253.431208 222.90258 
L 253.685098 179.569811 
L 253.938988 214.418884 
L 254.192879 170.810719 
L 254.446769 212.01618 
L 254.700659 136.407987 
L 254.954549 254.401155 
L 255.208439 139.963955 
L 255.462329 168.227633 
L 255.716219 154.075404 
L 255.970109 130.841666 
L 256.223999 140.768983 
L 256.477889 139.281727 
L 256.73178 123.52644 
L 256.98567 159.402082 
L 257.23956 123.265392 
L 257.49345 136.394289 
L 257.74734 136.311416 
L 258.00123 258.415331 
L 258.25512 170.495364 
L 258.50901 187.272489 
L 259.01679 128.387551 
L 259.270681 130.060227 
L 259.524571 173.119466 
L 260.032351 133.408291 
L 260.286241 225.916919 
L 260.540131 140.556517 
L 260.794021 145.849763 
L 261.047911 145.319558 
L 261.301801 154.479984 
L 261.555691 195.871404 
L 261.809582 173.097271 
L 262.063472 131.463541 
L 262.317362 170.557739 
L 262.571252 157.9467 
L 262.825142 170.546975 
L 263.079032 147.197098 
L 263.332922 164.859274 
L 263.586812 135.471464 
L 263.840702 222.713583 
L 264.094593 206.834968 
L 264.348483 156.178358 
L 264.602373 158.966876 
L 264.856263 193.597906 
L 265.110153 143.82468 
L 265.364043 147.295883 
L 265.617933 141.232261 
L 265.871823 229.002017 
L 266.125713 124.806054 
L 266.379603 228.286342 
L 266.887384 160.411052 
L 267.141274 171.70096 
L 267.395164 210.338679 
L 267.902944 148.017387 
L 268.156834 123.195175 
L 268.410724 187.056558 
L 268.664614 155.898222 
L 268.918504 143.820346 
L 269.172405 125.810521 
L 269.426285 149.663776 
L 269.680185 121.701851 
L 269.934065 248.44657 
L 270.187965 111.158705 
L 270.441845 181.279623 
L 270.695745 127.258362 
L 270.949625 135.332713 
L 271.203525 176.15525 
L 271.457405 122.471388 
L 271.711306 122.790509 
L 271.965186 166.763535 
L 272.219086 124.280718 
L 272.472966 146.214929 
L 272.726866 125.050925 
L 272.980746 115.167672 
L 273.234646 113.046613 
L 273.488526 143.942067 
L 273.742426 110.677134 
L 273.996307 114.400592 
L 274.250207 122.780858 
L 274.504087 137.119185 
L 274.757987 141.52436 
L 275.011867 109.695282 
L 275.265767 158.393788 
L 275.519647 109.039406 
L 276.027427 128.474141 
L 276.281328 105.767705 
L 276.535208 105.364028 
L 276.789108 111.201468 
L 277.296888 104.720493 
L 277.550768 98.660878 
L 277.804668 106.111605 
L 278.058548 107.290424 
L 278.312448 115.855655 
L 278.820229 106.475087 
L 279.074109 97.254651 
L 279.328009 109.239536 
L 279.581889 107.743901 
L 279.835789 91.825256 
L 280.089669 103.901032 
L 280.343569 106.419242 
L 280.597449 100.200296 
L 280.851349 111.580609 
L 281.10525 101.64686 
L 281.35915 99.767261 
L 281.61303 97.044757 
L 281.86693 99.030206 
L 282.12081 96.791508 
L 282.37471 95.722248 
L 282.62859 95.347083 
L 282.88249 104.333119 
L 283.13637 103.249132 
L 283.390271 103.699724 
L 283.644151 101.361367 
L 283.898051 96.565343 
L 284.151931 103.775534 
L 284.659711 91.506701 
L 284.913611 97.324662 
L 285.167491 96.072938 
L 285.421391 90.625589 
L 285.675271 97.702523 
L 286.183052 91.510724 
L 286.436952 85.619605 
L 286.944732 91.655581 
L 287.198612 89.814133 
L 287.452512 93.50396 
L 287.706392 90.568553 
L 287.960292 94.646383 
L 288.214172 85.453433 
L 288.468073 89.578523 
L 288.721953 81.021068 
L 288.975853 92.846011 
L 289.229733 85.524337 
L 289.483633 85.552089 
L 289.737513 79.723878 
L 289.991413 82.011092 
L 290.245293 86.804323 
L 290.499193 84.593857 
L 291.006974 76.748061 
L 291.260854 78.601052 
L 291.514754 84.118601 
L 291.768634 81.399489 
L 292.276414 82.511798 
L 292.530314 79.759791 
L 292.784194 79.866396 
L 293.038094 75.289901 
L 293.291974 80.088729 
L 293.545875 78.663564 
L 293.799755 82.336693 
L 294.053655 74.319046 
L 294.307535 74.614597 
L 294.561435 76.85326 
L 294.815315 72.322285 
L 295.069215 79.096824 
L 295.323095 78.321802 
L 295.576995 77.911304 
L 295.830875 75.382886 
L 296.084776 75.179651 
L 296.338656 76.213028 
L 296.592556 76.28313 
L 296.846436 79.567313 
L 297.100336 74.934909 
L 297.354216 74.094279 
L 297.608116 76.246493 
L 297.861996 76.149238 
L 298.115896 74.78003 
L 298.369777 70.872786 
L 298.623677 71.226737 
L 299.385337 69.951372 
L 300.147017 65.043163 
L 300.400897 69.28948 
L 300.654798 65.904588 
L 300.908678 69.85296 
L 301.162578 65.237894 
L 301.416458 66.435949 
L 301.670358 68.731811 
L 302.432018 66.868881 
L 302.685918 68.116986 
L 302.939798 65.761494 
L 303.193699 65.963875 
L 303.447579 65.234784 
L 303.701479 63.534154 
L 303.955359 64.768886 
L 304.209259 63.134862 
L 304.463139 65.566413 
L 304.970919 62.804127 
L 305.224819 62.936781 
L 305.478699 63.457491 
L 305.7326 63.4484 
L 305.98648 64.516134 
L 306.24038 64.199186 
L 306.49426 61.728689 
L 306.74816 62.736336 
L 307.00204 59.556511 
L 307.25594 59.300389 
L 307.76372 63.601916 
L 308.0176 59.829485 
L 308.271501 62.167296 
L 308.525381 59.690712 
L 308.779281 59.120847 
L 309.033161 60.822775 
L 309.287061 59.784435 
L 309.540941 57.968003 
L 309.794841 58.638553 
L 310.048721 55.8 
L 310.302621 57.742068 
L 310.556501 56.541142 
L 310.810402 56.734503 
L 311.064282 57.135477 
L 311.318182 56.584683 
L 311.318182 56.584683 
" clip-path="url(#pa0c156f887)" style="fill: none; stroke: #348abd; stroke-width: 1.5; stroke-linecap: square"/>
   </g>
   <g id="patch_3">
    <path d="M 45 320.4 
L 45 43.2 
" style="fill: none; stroke: #ffffff; stroke-linejoin: miter; stroke-linecap: square"/>
   </g>
   <g id="patch_4">
    <path d="M 324 320.4 
L 324 43.2 
" style="fill: none; stroke: #ffffff; stroke-linejoin: miter; stroke-linecap: square"/>
   </g>
   <g id="patch_5">
    <path d="M 45 320.4 
L 324 320.4 
" style="fill: none; stroke: #ffffff; stroke-linejoin: miter; stroke-linecap: square"/>
   </g>
   <g id="patch_6">
    <path d="M 45 43.2 
L 324 43.2 
" style="fill: none; stroke: #ffffff; stroke-linejoin: miter; stroke-linecap: square"/>
   </g>
   <g id="text_12">
    <!-- Prediction Error -->
    <g transform="translate(128.90025 37.2)scale(0.144 -0.144)">
     <defs>
      <path id="DejaVuSans-50" d="M 1259 4147 
L 1259 2394 
L 2053 2394 
Q 2494 2394 2734 2622 
Q 2975 2850 2975 3272 
Q 2975 3691 2734 3919 
Q 2494 4147 2053 4147 
L 1259 4147 
z
M 628 4666 
L 2053 4666 
Q 2838 4666 3239 4311 
Q 3641 3956 3641 3272 
Q 3641 2581 3239 2228 
Q 2838 1875 2053 1875 
L 1259 1875 
L 1259 0 
L 628 0 
L 628 4666 
z
" transform="scale(0.015625)"/>
      <path id="DejaVuSans-72" d="M 2631 2963 
Q 2534 3019 2420 3045 
Q 2306 3072 2169 3072 
Q 1681 3072 1420 2755 
Q 1159 2438 1159 1844 
L 1159 0 
L 581 0 
L 581 3500 
L 1159 3500 
L 1159 2956 
Q 1341 3275 1631 3429 
Q 1922 3584 2338 3584 
Q 2397 3584 2469 3576 
Q 2541 3569 2628 3553 
L 2631 2963 
z
" transform="scale(0.015625)"/>
      <path id="DejaVuSans-65" d="M 3597 1894 
L 3597 1613 
L 953 1613 
Q 991 1019 1311 708 
Q 1631 397 2203 397 
Q 2534 397 2845 478 
Q 3156 559 3463 722 
L 3463 178 
Q 3153 47 2828 -22 
Q 2503 -91 2169 -91 
Q 1331 -91 842 396 
Q 353 884 353 1716 
Q 353 2575 817 3079 
Q 1281 3584 2069 3584 
Q 2775 3584 3186 3129 
Q 3597 2675 3597 1894 
z
M 3022 2063 
Q 3016 2534 2758 2815 
Q 2500 3097 2075 3097 
Q 1594 3097 1305 2825 
Q 1016 2553 972 2059 
L 3022 2063 
z
" transform="scale(0.015625)"/>
      <path id="DejaVuSans-64" d="M 2906 2969 
L 2906 4863 
L 3481 4863 
L 3481 0 
L 2906 0 
L 2906 525 
Q 2725 213 2448 61 
Q 2172 -91 1784 -91 
Q 1150 -91 751 415 
Q 353 922 353 1747 
Q 353 2572 751 3078 
Q 1150 3584 1784 3584 
Q 2172 3584 2448 3432 
Q 2725 3281 2906 2969 
z
M 947 1747 
Q 947 1113 1208 752 
Q 1469 391 1925 391 
Q 2381 391 2643 752 
Q 2906 1113 2906 1747 
Q 2906 2381 2643 2742 
Q 2381 3103 1925 3103 
Q 1469 3103 1208 2742 
Q 947 2381 947 1747 
z
" transform="scale(0.015625)"/>
      <path id="DejaVuSans-69" d="M 603 3500 
L 1178 3500 
L 1178 0 
L 603 0 
L 603 3500 
z
M 603 4863 
L 1178 4863 
L 1178 4134 
L 603 4134 
L 603 4863 
z
" transform="scale(0.015625)"/>
      <path id="DejaVuSans-63" d="M 3122 3366 
L 3122 2828 
Q 2878 2963 2633 3030 
Q 2388 3097 2138 3097 
Q 1578 3097 1268 2742 
Q 959 2388 959 1747 
Q 959 1106 1268 751 
Q 1578 397 2138 397 
Q 2388 397 2633 464 
Q 2878 531 3122 666 
L 3122 134 
Q 2881 22 2623 -34 
Q 2366 -91 2075 -91 
Q 1284 -91 818 406 
Q 353 903 353 1747 
Q 353 2603 823 3093 
Q 1294 3584 2113 3584 
Q 2378 3584 2631 3529 
Q 2884 3475 3122 3366 
z
" transform="scale(0.015625)"/>
      <path id="DejaVuSans-74" d="M 1172 4494 
L 1172 3500 
L 2356 3500 
L 2356 3053 
L 1172 3053 
L 1172 1153 
Q 1172 725 1289 603 
Q 1406 481 1766 481 
L 2356 481 
L 2356 0 
L 1766 0 
Q 1100 0 847 248 
Q 594 497 594 1153 
L 594 3053 
L 172 3053 
L 172 3500 
L 594 3500 
L 594 4494 
L 1172 4494 
z
" transform="scale(0.015625)"/>
      <path id="DejaVuSans-6f" d="M 1959 3097 
Q 1497 3097 1228 2736 
Q 959 2375 959 1747 
Q 959 1119 1226 758 
Q 1494 397 1959 397 
Q 2419 397 2687 759 
Q 2956 1122 2956 1747 
Q 2956 2369 2687 2733 
Q 2419 3097 1959 3097 
z
M 1959 3584 
Q 2709 3584 3137 3096 
Q 3566 2609 3566 1747 
Q 3566 888 3137 398 
Q 2709 -91 1959 -91 
Q 1206 -91 779 398 
Q 353 888 353 1747 
Q 353 2609 779 3096 
Q 1206 3584 1959 3584 
z
" transform="scale(0.015625)"/>
      <path id="DejaVuSans-6e" d="M 3513 2113 
L 3513 0 
L 2938 0 
L 2938 2094 
Q 2938 2591 2744 2837 
Q 2550 3084 2163 3084 
Q 1697 3084 1428 2787 
Q 1159 2491 1159 1978 
L 1159 0 
L 581 0 
L 581 3500 
L 1159 3500 
L 1159 2956 
Q 1366 3272 1645 3428 
Q 1925 3584 2291 3584 
Q 2894 3584 3203 3211 
Q 3513 2838 3513 2113 
z
" transform="scale(0.015625)"/>
      <path id="DejaVuSans-20" transform="scale(0.015625)"/>
      <path id="DejaVuSans-45" d="M 628 4666 
L 3578 4666 
L 3578 4134 
L 1259 4134 
L 1259 2753 
L 3481 2753 
L 3481 2222 
L 1259 2222 
L 1259 531 
L 3634 531 
L 3634 0 
L 628 0 
L 628 4666 
z
" transform="scale(0.015625)"/>
     </defs>
     <use xlink:href="#DejaVuSans-50"/>
     <use xlink:href="#DejaVuSans-72" x="58.552734"/>
     <use xlink:href="#DejaVuSans-65" x="97.416016"/>
     <use xlink:href="#DejaVuSans-64" x="158.939453"/>
     <use xlink:href="#DejaVuSans-69" x="222.416016"/>
     <use xlink:href="#DejaVuSans-63" x="250.199219"/>
     <use xlink:href="#DejaVuSans-74" x="305.179688"/>
     <use xlink:href="#DejaVuSans-69" x="344.388672"/>
     <use xlink:href="#DejaVuSans-6f" x="372.171875"/>
     <use xlink:href="#DejaVuSans-6e" x="433.353516"/>
     <use xlink:href="#DejaVuSans-20" x="496.732422"/>
     <use xlink:href="#DejaVuSans-45" x="528.519531"/>
     <use xlink:href="#DejaVuSans-72" x="591.703125"/>
     <use xlink:href="#DejaVuSans-72" x="631.066406"/>
     <use xlink:href="#DejaVuSans-6f" x="669.929688"/>
     <use xlink:href="#DejaVuSans-72" x="731.111328"/>
    </g>
   </g>
   <g id="legend_1">
    <g id="patch_7">
     <path d="M 52 80.55625 
L 134.657813 80.55625 
Q 136.657813 80.55625 136.657813 78.55625 
L 136.657813 50.2 
Q 136.657813 48.2 134.657813 48.2 
L 52 48.2 
Q 50 48.2 50 50.2 
L 50 78.55625 
Q 50 80.55625 52 80.55625 
z
" style="fill: #e5e5e5; opacity: 0.8; stroke: #cccccc; stroke-width: 0.5; stroke-linejoin: miter"/>
    </g>
    <g id="line2d_61">
     <path d="M 54 56.298437 
L 64 56.298437 
L 74 56.298437 
" style="fill: none; stroke: #e24a33; stroke-width: 1.5; stroke-linecap: square"/>
    </g>
    <g id="text_13">
     <!-- train error -->
     <g transform="translate(82 59.798437)scale(0.1 -0.1)">
      <defs>
       <path id="DejaVuSans-61" d="M 2194 1759 
Q 1497 1759 1228 1600 
Q 959 1441 959 1056 
Q 959 750 1161 570 
Q 1363 391 1709 391 
Q 2188 391 2477 730 
Q 2766 1069 2766 1631 
L 2766 1759 
L 2194 1759 
z
M 3341 1997 
L 3341 0 
L 2766 0 
L 2766 531 
Q 2569 213 2275 61 
Q 1981 -91 1556 -91 
Q 1019 -91 701 211 
Q 384 513 384 1019 
Q 384 1609 779 1909 
Q 1175 2209 1959 2209 
L 2766 2209 
L 2766 2266 
Q 2766 2663 2505 2880 
Q 2244 3097 1772 3097 
Q 1472 3097 1187 3025 
Q 903 2953 641 2809 
L 641 3341 
Q 956 3463 1253 3523 
Q 1550 3584 1831 3584 
Q 2591 3584 2966 3190 
Q 3341 2797 3341 1997 
z
" transform="scale(0.015625)"/>
      </defs>
      <use xlink:href="#DejaVuSans-74"/>
      <use xlink:href="#DejaVuSans-72" x="39.208984"/>
      <use xlink:href="#DejaVuSans-61" x="80.322266"/>
      <use xlink:href="#DejaVuSans-69" x="141.601562"/>
      <use xlink:href="#DejaVuSans-6e" x="169.384766"/>
      <use xlink:href="#DejaVuSans-20" x="232.763672"/>
      <use xlink:href="#DejaVuSans-65" x="264.550781"/>
      <use xlink:href="#DejaVuSans-72" x="326.074219"/>
      <use xlink:href="#DejaVuSans-72" x="365.4375"/>
      <use xlink:href="#DejaVuSans-6f" x="404.300781"/>
      <use xlink:href="#DejaVuSans-72" x="465.482422"/>
     </g>
    </g>
    <g id="line2d_62">
     <path d="M 54 70.976562 
L 64 70.976562 
L 74 70.976562 
" style="fill: none; stroke: #348abd; stroke-width: 1.5; stroke-linecap: square"/>
    </g>
    <g id="text_14">
     <!-- test error -->
     <g transform="translate(82 74.476562)scale(0.1 -0.1)">
      <defs>
       <path id="DejaVuSans-73" d="M 2834 3397 
L 2834 2853 
Q 2591 2978 2328 3040 
Q 2066 3103 1784 3103 
Q 1356 3103 1142 2972 
Q 928 2841 928 2578 
Q 928 2378 1081 2264 
Q 1234 2150 1697 2047 
L 1894 2003 
Q 2506 1872 2764 1633 
Q 3022 1394 3022 966 
Q 3022 478 2636 193 
Q 2250 -91 1575 -91 
Q 1294 -91 989 -36 
Q 684 19 347 128 
L 347 722 
Q 666 556 975 473 
Q 1284 391 1588 391 
Q 1994 391 2212 530 
Q 2431 669 2431 922 
Q 2431 1156 2273 1281 
Q 2116 1406 1581 1522 
L 1381 1569 
Q 847 1681 609 1914 
Q 372 2147 372 2553 
Q 372 3047 722 3315 
Q 1072 3584 1716 3584 
Q 2034 3584 2315 3537 
Q 2597 3491 2834 3397 
z
" transform="scale(0.015625)"/>
      </defs>
      <use xlink:href="#DejaVuSans-74"/>
      <use xlink:href="#DejaVuSans-65" x="39.208984"/>
      <use xlink:href="#DejaVuSans-73" x="100.732422"/>
      <use xlink:href="#DejaVuSans-74" x="152.832031"/>
      <use xlink:href="#DejaVuSans-20" x="192.041016"/>
      <use xlink:href="#DejaVuSans-65" x="223.828125"/>
      <use xlink:href="#DejaVuSans-72" x="285.351562"/>
      <use xlink:href="#DejaVuSans-72" x="324.714844"/>
      <use xlink:href="#DejaVuSans-6f" x="363.578125"/>
      <use xlink:href="#DejaVuSans-72" x="424.759766"/>
     </g>
    </g>
   </g>
  </g>
 </g>
 <defs>
  <clipPath id="pa0c156f887">
   <rect x="45" y="43.2" width="279" height="277.2"/>
  </clipPath>
 </defs>
</svg>
