<?xml version="1.0" encoding="utf-8" standalone="no"?>
<!DOCTYPE svg PUBLIC "-//W3C//DTD SVG 1.1//EN"
  "http://www.w3.org/Graphics/SVG/1.1/DTD/svg11.dtd">
<svg xmlns:xlink="http://www.w3.org/1999/xlink" width="360pt" height="360pt" viewBox="0 0 360 360" xmlns="http://www.w3.org/2000/svg" version="1.1">
 <metadata>
  <rdf:RDF xmlns:dc="http://purl.org/dc/elements/1.1/" xmlns:cc="http://creativecommons.org/ns#" xmlns:rdf="http://www.w3.org/1999/02/22-rdf-syntax-ns#">
   <cc:Work>
    <dc:type rdf:resource="http://purl.org/dc/dcmitype/StillImage"/>
    <dc:date>2022-11-15T22:51:41.243199</dc:date>
    <dc:format>image/svg+xml</dc:format>
    <dc:creator>
     <cc:Agent>
      <dc:title>Matplotlib v3.5.3, https://matplotlib.org/</dc:title>
     </cc:Agent>
    </dc:creator>
   </cc:Work>
  </rdf:RDF>
 </metadata>
 <defs>
  <style type="text/css">*{stroke-linejoin: round; stroke-linecap: butt}</style>
 </defs>
 <g id="figure_1">
  <g id="patch_1">
   <path d="M 0 360 
L 360 360 
L 360 0 
L 0 0 
z
" style="fill: #ffffff"/>
  </g>
  <g id="patch_2">
   <path d="M 45.9 320.4 
L 323.1 320.4 
L 323.1 43.2 
L 45.9 43.2 
z
" style="fill: #ffffff"/>
  </g>
  <g id="pane3d_1">
   <g id="patch_3">
    <path d="M 66.830512 252.051364 
L 158.371005 175.320307 
L 157.098504 64.660407 
L 61.177327 134.659314 
" style="fill: #f2f2f2; opacity: 0.5; stroke: #f2f2f2; stroke-linejoin: miter"/>
   </g>
  </g>
  <g id="pane3d_2">
   <g id="patch_4">
    <path d="M 158.371005 175.320307 
L 305.260834 218.015381 
L 310.502814 103.543928 
L 157.098504 64.660407 
" style="fill: #e6e6e6; opacity: 0.5; stroke: #e6e6e6; stroke-linejoin: miter"/>
   </g>
  </g>
  <g id="pane3d_3">
   <g id="patch_5">
    <path d="M 66.830512 252.051364 
L 222.540905 302.906378 
L 305.260834 218.015381 
L 158.371005 175.320307 
" style="fill: #ececec; opacity: 0.5; stroke: #ececec; stroke-linejoin: miter"/>
   </g>
  </g>
  <g id="axis3d_1">
   <g id="line2d_1">
    <path d="M 66.830512 252.051364 
L 222.540905 302.906378 
" style="fill: none; stroke: #000000; stroke-width: 0.8; stroke-linecap: square"/>
   </g>
   <g id="Line3DCollection_1">
    <path d="M 89.295647 259.388477 
L 179.643744 181.503453 
L 179.2746 70.281401 
" style="fill: none; stroke: #b0b0b0; stroke-width: 0.8"/>
    <path d="M 115.721231 268.019072 
L 204.632006 188.766554 
L 205.341311 76.888553 
" style="fill: none; stroke: #b0b0b0; stroke-width: 0.8"/>
    <path d="M 142.63321 276.808525 
L 230.041717 196.152154 
L 231.86686 83.612006 
" style="fill: none; stroke: #b0b0b0; stroke-width: 0.8"/>
    <path d="M 170.045136 285.76126 
L 255.883631 203.663378 
L 258.863468 90.454859 
" style="fill: none; stroke: #b0b0b0; stroke-width: 0.8"/>
    <path d="M 197.971073 294.881871 
L 282.16887 211.303459 
L 286.343796 97.420321 
" style="fill: none; stroke: #b0b0b0; stroke-width: 0.8"/>
   </g>
   <g id="xtick_1">
    <g id="line2d_2">
     <path d="M 90.082682 258.710009 
L 87.718184 260.748336 
" style="fill: none; stroke: #000000; stroke-width: 0.8; stroke-linecap: square"/>
    </g>
    <g id="text_1">
     <!-- −2 -->
     <g transform="translate(74.409205 282.781779)scale(0.1 -0.1)">
      <defs>
       <path id="DejaVuSans-2212" d="M 678 2272 
L 4684 2272 
L 4684 1741 
L 678 1741 
L 678 2272 
z
" transform="scale(0.015625)"/>
       <path id="DejaVuSans-32" d="M 1228 531 
L 3431 531 
L 3431 0 
L 469 0 
L 469 531 
Q 828 903 1448 1529 
Q 2069 2156 2228 2338 
Q 2531 2678 2651 2914 
Q 2772 3150 2772 3378 
Q 2772 3750 2511 3984 
Q 2250 4219 1831 4219 
Q 1534 4219 1204 4116 
Q 875 4013 500 3803 
L 500 4441 
Q 881 4594 1212 4672 
Q 1544 4750 1819 4750 
Q 2544 4750 2975 4387 
Q 3406 4025 3406 3419 
Q 3406 3131 3298 2873 
Q 3191 2616 2906 2266 
Q 2828 2175 2409 1742 
Q 1991 1309 1228 531 
z
" transform="scale(0.015625)"/>
      </defs>
      <use xlink:href="#DejaVuSans-2212"/>
      <use xlink:href="#DejaVuSans-32" x="83.789062"/>
     </g>
    </g>
   </g>
   <g id="xtick_2">
    <g id="line2d_3">
     <path d="M 116.496322 267.328179 
L 114.167679 269.403864 
" style="fill: none; stroke: #000000; stroke-width: 0.8; stroke-linecap: square"/>
    </g>
    <g id="text_2">
     <!-- −1 -->
     <g transform="translate(100.86159 291.588149)scale(0.1 -0.1)">
      <defs>
       <path id="DejaVuSans-31" d="M 794 531 
L 1825 531 
L 1825 4091 
L 703 3866 
L 703 4441 
L 1819 4666 
L 2450 4666 
L 2450 531 
L 3481 531 
L 3481 0 
L 794 0 
L 794 531 
z
" transform="scale(0.015625)"/>
      </defs>
      <use xlink:href="#DejaVuSans-2212"/>
      <use xlink:href="#DejaVuSans-31" x="83.789062"/>
     </g>
    </g>
   </g>
   <g id="xtick_3">
    <g id="line2d_4">
     <path d="M 143.395781 276.104861 
L 141.10472 278.218942 
" style="fill: none; stroke: #000000; stroke-width: 0.8; stroke-linecap: square"/>
    </g>
    <g id="text_3">
     <!-- 0 -->
     <g transform="translate(131.992483 300.557202)scale(0.1 -0.1)">
      <defs>
       <path id="DejaVuSans-30" d="M 2034 4250 
Q 1547 4250 1301 3770 
Q 1056 3291 1056 2328 
Q 1056 1369 1301 889 
Q 1547 409 2034 409 
Q 2525 409 2770 889 
Q 3016 1369 3016 2328 
Q 3016 3291 2770 3770 
Q 2525 4250 2034 4250 
z
M 2034 4750 
Q 2819 4750 3233 4129 
Q 3647 3509 3647 2328 
Q 3647 1150 3233 529 
Q 2819 -91 2034 -91 
Q 1250 -91 836 529 
Q 422 1150 422 2328 
Q 422 3509 836 4129 
Q 1250 4750 2034 4750 
z
" transform="scale(0.015625)"/>
      </defs>
      <use xlink:href="#DejaVuSans-30"/>
     </g>
    </g>
   </g>
   <g id="xtick_4">
    <g id="line2d_5">
     <path d="M 170.794587 285.044468 
L 168.542914 287.198019 
" style="fill: none; stroke: #000000; stroke-width: 0.8; stroke-linecap: square"/>
    </g>
    <g id="text_4">
     <!-- 1 -->
     <g transform="translate(159.435865 309.693489)scale(0.1 -0.1)">
      <use xlink:href="#DejaVuSans-31"/>
     </g>
    </g>
   </g>
   <g id="xtick_5">
    <g id="line2d_6">
     <path d="M 198.706776 294.15158 
L 196.496377 296.345718 
" style="fill: none; stroke: #000000; stroke-width: 0.8; stroke-linecap: square"/>
    </g>
    <g id="text_5">
     <!-- 2 -->
     <g transform="translate(187.39576 319.00173)scale(0.1 -0.1)">
      <use xlink:href="#DejaVuSans-32"/>
     </g>
    </g>
   </g>
  </g>
  <g id="axis3d_2">
   <g id="line2d_7">
    <path d="M 305.260834 218.015381 
L 222.540905 302.906378 
" style="fill: none; stroke: #000000; stroke-width: 0.8; stroke-linecap: square"/>
   </g>
   <g id="Line3DCollection_2">
    <path d="M 76.781389 123.272179 
L 81.674657 239.608707 
L 236.004406 289.089513 
" style="fill: none; stroke: #b0b0b0; stroke-width: 0.8"/>
    <path d="M 94.298573 110.488937 
L 98.360589 225.622227 
L 251.115362 273.581956 
" style="fill: none; stroke: #b0b0b0; stroke-width: 0.8"/>
    <path d="M 111.271645 98.102762 
L 114.550307 212.051685 
L 265.753695 258.559425 
" style="fill: none; stroke: #b0b0b0; stroke-width: 0.8"/>
    <path d="M 127.72557 86.095437 
L 130.265621 198.878797 
L 279.941236 243.999517 
" style="fill: none; stroke: #b0b0b0; stroke-width: 0.8"/>
    <path d="M 143.683806 74.449843 
L 145.527081 186.086339 
L 293.698494 229.881186 
" style="fill: none; stroke: #b0b0b0; stroke-width: 0.8"/>
   </g>
   <g id="xtick_6">
    <g id="line2d_8">
     <path d="M 234.704397 288.672708 
L 238.607761 289.924194 
" style="fill: none; stroke: #000000; stroke-width: 0.8; stroke-linecap: square"/>
    </g>
    <g id="text_6">
     <!-- −2 -->
     <g transform="translate(241.414026 309.997986)scale(0.1 -0.1)">
      <use xlink:href="#DejaVuSans-2212"/>
      <use xlink:href="#DejaVuSans-32" x="83.789062"/>
     </g>
    </g>
   </g>
   <g id="xtick_7">
    <g id="line2d_9">
     <path d="M 249.829647 273.178285 
L 253.690038 274.390315 
" style="fill: none; stroke: #000000; stroke-width: 0.8; stroke-linecap: square"/>
    </g>
    <g id="text_7">
     <!-- −1 -->
     <g transform="translate(256.330301 294.270153)scale(0.1 -0.1)">
      <use xlink:href="#DejaVuSans-2212"/>
      <use xlink:href="#DejaVuSans-31" x="83.789062"/>
     </g>
    </g>
   </g>
   <g id="xtick_8">
    <g id="line2d_10">
     <path d="M 264.482022 258.168279 
L 268.300199 259.342689 
" style="fill: none; stroke: #000000; stroke-width: 0.8; stroke-linecap: square"/>
    </g>
    <g id="text_8">
     <!-- 0 -->
     <g transform="translate(274.969628 279.034509)scale(0.1 -0.1)">
      <use xlink:href="#DejaVuSans-30"/>
     </g>
    </g>
   </g>
   <g id="xtick_9">
    <g id="line2d_11">
     <path d="M 278.683358 243.620322 
L 282.460069 244.758837 
" style="fill: none; stroke: #000000; stroke-width: 0.8; stroke-linecap: square"/>
    </g>
    <g id="text_9">
     <!-- 1 -->
     <g transform="translate(288.973894 264.268306)scale(0.1 -0.1)">
      <use xlink:href="#DejaVuSans-31"/>
     </g>
    </g>
   </g>
   <g id="xtick_10">
    <g id="line2d_12">
     <path d="M 292.454165 229.513401 
L 296.190151 230.617642 
" style="fill: none; stroke: #000000; stroke-width: 0.8; stroke-linecap: square"/>
    </g>
    <g id="text_10">
     <!-- 2 -->
     <g transform="translate(302.553208 249.950176)scale(0.1 -0.1)">
      <use xlink:href="#DejaVuSans-32"/>
     </g>
    </g>
   </g>
  </g>
  <g id="axis3d_3">
   <g id="line2d_13">
    <path d="M 305.260834 218.015381 
L 310.502814 103.543928 
" style="fill: none; stroke: #000000; stroke-width: 0.8; stroke-linecap: square"/>
   </g>
   <g id="Line3DCollection_3">
    <path d="M 305.94741 203.022312 
L 158.204031 160.799851 
L 66.091162 236.69828 
" style="fill: none; stroke: #b0b0b0; stroke-width: 0.8"/>
    <path d="M 306.542188 190.033881 
L 158.059457 148.227338 
L 65.450402 223.392491 
" style="fill: none; stroke: #b0b0b0; stroke-width: 0.8"/>
    <path d="M 307.143008 176.913515 
L 157.913485 135.533231 
L 64.802885 209.946376 
" style="fill: none; stroke: #b0b0b0; stroke-width: 0.8"/>
    <path d="M 307.749962 163.659194 
L 157.766094 122.715759 
L 64.148502 196.357702 
" style="fill: none; stroke: #b0b0b0; stroke-width: 0.8"/>
    <path d="M 308.363144 150.268855 
L 157.617264 109.773114 
L 63.487145 182.624192 
" style="fill: none; stroke: #b0b0b0; stroke-width: 0.8"/>
    <path d="M 308.982652 136.740394 
L 157.466974 96.703453 
L 62.818701 168.743516 
" style="fill: none; stroke: #b0b0b0; stroke-width: 0.8"/>
    <path d="M 309.608582 123.071663 
L 157.315201 83.504898 
L 62.143055 154.713296 
" style="fill: none; stroke: #b0b0b0; stroke-width: 0.8"/>
    <path d="M 310.241037 109.260469 
L 157.161924 70.175532 
L 61.460091 140.531103 
" style="fill: none; stroke: #b0b0b0; stroke-width: 0.8"/>
   </g>
   <g id="xtick_11">
    <g id="line2d_14">
     <path d="M 304.707096 202.667852 
L 308.431006 203.73208 
" style="fill: none; stroke: #000000; stroke-width: 0.8; stroke-linecap: square"/>
    </g>
    <g id="text_11">
     <!-- 0.1 -->
     <g transform="translate(316.351463 208.04361)scale(0.1 -0.1)">
      <defs>
       <path id="DejaVuSans-2e" d="M 684 794 
L 1344 794 
L 1344 0 
L 684 0 
L 684 794 
z
" transform="scale(0.015625)"/>
      </defs>
      <use xlink:href="#DejaVuSans-30"/>
      <use xlink:href="#DejaVuSans-2e" x="63.623047"/>
      <use xlink:href="#DejaVuSans-31" x="95.410156"/>
     </g>
    </g>
   </g>
   <g id="xtick_12">
    <g id="line2d_15">
     <path d="M 305.295371 189.682829 
L 309.038821 190.736829 
" style="fill: none; stroke: #000000; stroke-width: 0.8; stroke-linecap: square"/>
    </g>
    <g id="text_12">
     <!-- 0.2 -->
     <g transform="translate(317.036996 195.079991)scale(0.1 -0.1)">
      <use xlink:href="#DejaVuSans-30"/>
      <use xlink:href="#DejaVuSans-2e" x="63.623047"/>
      <use xlink:href="#DejaVuSans-32" x="95.410156"/>
     </g>
    </g>
   </g>
   <g id="xtick_13">
    <g id="line2d_16">
     <path d="M 305.889619 176.565959 
L 309.652815 177.609467 
" style="fill: none; stroke: #000000; stroke-width: 0.8; stroke-linecap: square"/>
    </g>
    <g id="text_13">
     <!-- 0.3 -->
     <g transform="translate(317.729473 181.985074)scale(0.1 -0.1)">
      <defs>
       <path id="DejaVuSans-33" d="M 2597 2516 
Q 3050 2419 3304 2112 
Q 3559 1806 3559 1356 
Q 3559 666 3084 287 
Q 2609 -91 1734 -91 
Q 1441 -91 1130 -33 
Q 819 25 488 141 
L 488 750 
Q 750 597 1062 519 
Q 1375 441 1716 441 
Q 2309 441 2620 675 
Q 2931 909 2931 1356 
Q 2931 1769 2642 2001 
Q 2353 2234 1838 2234 
L 1294 2234 
L 1294 2753 
L 1863 2753 
Q 2328 2753 2575 2939 
Q 2822 3125 2822 3475 
Q 2822 3834 2567 4026 
Q 2313 4219 1838 4219 
Q 1578 4219 1281 4162 
Q 984 4106 628 3988 
L 628 4550 
Q 988 4650 1302 4700 
Q 1616 4750 1894 4750 
Q 2613 4750 3031 4423 
Q 3450 4097 3450 3541 
Q 3450 3153 3228 2886 
Q 3006 2619 2597 2516 
z
" transform="scale(0.015625)"/>
      </defs>
      <use xlink:href="#DejaVuSans-30"/>
      <use xlink:href="#DejaVuSans-2e" x="63.623047"/>
      <use xlink:href="#DejaVuSans-33" x="95.410156"/>
     </g>
    </g>
   </g>
   <g id="xtick_14">
    <g id="line2d_17">
     <path d="M 306.489931 163.315224 
L 310.273083 164.34797 
" style="fill: none; stroke: #000000; stroke-width: 0.8; stroke-linecap: square"/>
    </g>
    <g id="text_14">
     <!-- 0.4 -->
     <g transform="translate(318.428998 168.756855)scale(0.1 -0.1)">
      <defs>
       <path id="DejaVuSans-34" d="M 2419 4116 
L 825 1625 
L 2419 1625 
L 2419 4116 
z
M 2253 4666 
L 3047 4666 
L 3047 1625 
L 3713 1625 
L 3713 1100 
L 3047 1100 
L 3047 0 
L 2419 0 
L 2419 1100 
L 313 1100 
L 313 1709 
L 2253 4666 
z
" transform="scale(0.015625)"/>
      </defs>
      <use xlink:href="#DejaVuSans-30"/>
      <use xlink:href="#DejaVuSans-2e" x="63.623047"/>
      <use xlink:href="#DejaVuSans-34" x="95.410156"/>
     </g>
    </g>
   </g>
   <g id="xtick_15">
    <g id="line2d_18">
     <path d="M 307.096402 149.928563 
L 310.899721 150.950271 
" style="fill: none; stroke: #000000; stroke-width: 0.8; stroke-linecap: square"/>
    </g>
    <g id="text_15">
     <!-- 0.5 -->
     <g transform="translate(319.135681 155.393287)scale(0.1 -0.1)">
      <defs>
       <path id="DejaVuSans-35" d="M 691 4666 
L 3169 4666 
L 3169 4134 
L 1269 4134 
L 1269 2991 
Q 1406 3038 1543 3061 
Q 1681 3084 1819 3084 
Q 2600 3084 3056 2656 
Q 3513 2228 3513 1497 
Q 3513 744 3044 326 
Q 2575 -91 1722 -91 
Q 1428 -91 1123 -41 
Q 819 9 494 109 
L 494 744 
Q 775 591 1075 516 
Q 1375 441 1709 441 
Q 2250 441 2565 725 
Q 2881 1009 2881 1497 
Q 2881 1984 2565 2268 
Q 2250 2553 1709 2553 
Q 1456 2553 1204 2497 
Q 953 2441 691 2322 
L 691 4666 
z
" transform="scale(0.015625)"/>
      </defs>
      <use xlink:href="#DejaVuSans-30"/>
      <use xlink:href="#DejaVuSans-2e" x="63.623047"/>
      <use xlink:href="#DejaVuSans-35" x="95.410156"/>
     </g>
    </g>
   </g>
   <g id="xtick_16">
    <g id="line2d_19">
     <path d="M 307.709126 136.403874 
L 311.532829 137.414261 
" style="fill: none; stroke: #000000; stroke-width: 0.8; stroke-linecap: square"/>
    </g>
    <g id="text_16">
     <!-- 0.6 -->
     <g transform="translate(319.849632 141.892283)scale(0.1 -0.1)">
      <defs>
       <path id="DejaVuSans-36" d="M 2113 2584 
Q 1688 2584 1439 2293 
Q 1191 2003 1191 1497 
Q 1191 994 1439 701 
Q 1688 409 2113 409 
Q 2538 409 2786 701 
Q 3034 994 3034 1497 
Q 3034 2003 2786 2293 
Q 2538 2584 2113 2584 
z
M 3366 4563 
L 3366 3988 
Q 3128 4100 2886 4159 
Q 2644 4219 2406 4219 
Q 1781 4219 1451 3797 
Q 1122 3375 1075 2522 
Q 1259 2794 1537 2939 
Q 1816 3084 2150 3084 
Q 2853 3084 3261 2657 
Q 3669 2231 3669 1497 
Q 3669 778 3244 343 
Q 2819 -91 2113 -91 
Q 1303 -91 875 529 
Q 447 1150 447 2328 
Q 447 3434 972 4092 
Q 1497 4750 2381 4750 
Q 2619 4750 2861 4703 
Q 3103 4656 3366 4563 
z
" transform="scale(0.015625)"/>
      </defs>
      <use xlink:href="#DejaVuSans-30"/>
      <use xlink:href="#DejaVuSans-2e" x="63.623047"/>
      <use xlink:href="#DejaVuSans-36" x="95.410156"/>
     </g>
    </g>
   </g>
   <g id="xtick_17">
    <g id="line2d_20">
     <path d="M 308.3282 122.739012 
L 312.172506 123.737787 
" style="fill: none; stroke: #000000; stroke-width: 0.8; stroke-linecap: square"/>
    </g>
    <g id="text_17">
     <!-- 0.7 -->
     <g transform="translate(320.570963 128.251711)scale(0.1 -0.1)">
      <defs>
       <path id="DejaVuSans-37" d="M 525 4666 
L 3525 4666 
L 3525 4397 
L 1831 0 
L 1172 0 
L 2766 4134 
L 525 4134 
L 525 4666 
z
" transform="scale(0.015625)"/>
      </defs>
      <use xlink:href="#DejaVuSans-30"/>
      <use xlink:href="#DejaVuSans-2e" x="63.623047"/>
      <use xlink:href="#DejaVuSans-37" x="95.410156"/>
     </g>
    </g>
   </g>
   <g id="xtick_18">
    <g id="line2d_21">
     <path d="M 308.953724 108.931786 
L 312.818856 109.918651 
" style="fill: none; stroke: #000000; stroke-width: 0.8; stroke-linecap: square"/>
    </g>
    <g id="text_18">
     <!-- 0.8 -->
     <g transform="translate(321.29979 114.469396)scale(0.1 -0.1)">
      <defs>
       <path id="DejaVuSans-38" d="M 2034 2216 
Q 1584 2216 1326 1975 
Q 1069 1734 1069 1313 
Q 1069 891 1326 650 
Q 1584 409 2034 409 
Q 2484 409 2743 651 
Q 3003 894 3003 1313 
Q 3003 1734 2745 1975 
Q 2488 2216 2034 2216 
z
M 1403 2484 
Q 997 2584 770 2862 
Q 544 3141 544 3541 
Q 544 4100 942 4425 
Q 1341 4750 2034 4750 
Q 2731 4750 3128 4425 
Q 3525 4100 3525 3541 
Q 3525 3141 3298 2862 
Q 3072 2584 2669 2484 
Q 3125 2378 3379 2068 
Q 3634 1759 3634 1313 
Q 3634 634 3220 271 
Q 2806 -91 2034 -91 
Q 1263 -91 848 271 
Q 434 634 434 1313 
Q 434 1759 690 2068 
Q 947 2378 1403 2484 
z
M 1172 3481 
Q 1172 3119 1398 2916 
Q 1625 2713 2034 2713 
Q 2441 2713 2670 2916 
Q 2900 3119 2900 3481 
Q 2900 3844 2670 4047 
Q 2441 4250 2034 4250 
Q 1625 4250 1398 4047 
Q 1172 3844 1172 3481 
z
" transform="scale(0.015625)"/>
      </defs>
      <use xlink:href="#DejaVuSans-30"/>
      <use xlink:href="#DejaVuSans-2e" x="63.623047"/>
      <use xlink:href="#DejaVuSans-38" x="95.410156"/>
     </g>
    </g>
   </g>
  </g>
  <g id="axes_1">
   <g id="Poly3DCollection_1">
    <path d="M 184.28007 168.988427 
L 188.144492 158.124079 
L 194.827947 167.153646 
L 190.968534 181.232715 
z
" clip-path="url(#p23d516efdf)" style="fill: #fcb99f; fill-opacity: 0.7"/>
    <path d="M 190.968534 181.232715 
L 194.827947 167.153646 
L 201.541622 168.941764 
L 197.668246 183.962337 
z
" clip-path="url(#p23d516efdf)" style="fill: #fdcab5; fill-opacity: 0.7"/>
    <path d="M 167.054582 170.020204 
L 170.917851 157.184626 
L 177.573786 158.055258 
L 173.722742 174.683098 
z
" clip-path="url(#p23d516efdf)" style="fill: #fcab8f; fill-opacity: 0.7"/>
    <path d="M 177.573786 158.055258 
L 181.461137 151.718001 
L 188.144492 158.124079 
L 184.28007 168.988427 
z
" clip-path="url(#p23d516efdf)" style="fill: #fc997a; fill-opacity: 0.7"/>
    <path d="M 169.860716 188.385072 
L 173.722742 174.683098 
L 180.418518 183.293072 
L 176.557192 197.0344 
z
" clip-path="url(#p23d516efdf)" style="fill: #fee4d8; fill-opacity: 0.7"/>
    <path d="M 180.418518 183.293072 
L 184.28007 168.988427 
L 190.968534 181.232715 
L 187.107229 186.192293 
z
" clip-path="url(#p23d516efdf)" style="fill: #fdd5c4; fill-opacity: 0.7"/>
    <path d="M 163.13864 177.578803 
L 167.054582 170.020204 
L 173.722742 174.683098 
L 169.860716 188.385072 
z
" clip-path="url(#p23d516efdf)" style="fill: #fdd0bc; fill-opacity: 0.7"/>
    <path d="M 160.274553 153.422743 
L 164.177003 143.24121 
L 170.917851 157.184626 
L 167.054582 170.020204 
z
" clip-path="url(#p23d516efdf)" style="fill: #fc8e6e; fill-opacity: 0.7"/>
    <path d="M 173.722742 174.683098 
L 177.573786 158.055258 
L 184.28007 168.988427 
L 180.418518 183.293072 
z
" clip-path="url(#p23d516efdf)" style="fill: #fcbda4; fill-opacity: 0.7"/>
    <path d="M 187.107229 186.192293 
L 190.968534 181.232715 
L 197.668246 183.962337 
L 193.812225 193.166684 
z
" clip-path="url(#p23d516efdf)" style="fill: #fee3d7; fill-opacity: 0.7"/>
    <path d="M 176.557192 197.0344 
L 180.418518 183.293072 
L 187.107229 186.192293 
L 183.237942 200.056645 
z
" clip-path="url(#p23d516efdf)" style="fill: #ffece3; fill-opacity: 0.7"/>
    <path d="M 197.668246 183.962337 
L 201.541622 168.941764 
L 208.222016 179.048448 
L 204.389558 187.39123 
z
" clip-path="url(#p23d516efdf)" style="fill: #fdd3c1; fill-opacity: 0.7"/>
    <path d="M 170.917851 157.184626 
L 174.696859 128.213034 
L 181.461137 151.718001 
L 177.573786 158.055258 
z
" clip-path="url(#p23d516efdf)" style="fill: #fb7757; fill-opacity: 0.7"/>
    <path d="M 156.426205 168.844263 
L 160.274553 153.422743 
L 167.054582 170.020204 
L 163.13864 177.578803 
z
" clip-path="url(#p23d516efdf)" style="fill: #fcaf93; fill-opacity: 0.7"/>
    <path d="M 159.237474 188.05765 
L 163.13864 177.578803 
L 169.860716 188.385072 
L 165.972895 198.992721 
z
" clip-path="url(#p23d516efdf)" style="fill: #fee6da; fill-opacity: 0.7"/>
    <path d="M 165.972895 198.992721 
L 169.860716 188.385072 
L 176.557192 197.0344 
L 172.620009 198.09158 
z
" clip-path="url(#p23d516efdf)" style="fill: #fff1ea; fill-opacity: 0.7"/>
    <path d="M 204.389558 187.39123 
L 208.222016 179.048448 
L 215.015067 177.027451 
L 211.099144 194.685569 
z
" clip-path="url(#p23d516efdf)" style="fill: #fedecf; fill-opacity: 0.7"/>
    <path d="M 152.504322 178.473335 
L 156.426205 168.844263 
L 163.13864 177.578803 
L 159.237474 188.05765 
z
" clip-path="url(#p23d516efdf)" style="fill: #fdccb8; fill-opacity: 0.7"/>
    <path d="M 164.177003 143.24121 
L 167.98144 121.511838 
L 174.696859 128.213034 
L 170.917851 157.184626 
z
" clip-path="url(#p23d516efdf)" style="fill: #f44f39; fill-opacity: 0.7"/>
    <path d="M 193.812225 193.166684 
L 197.668246 183.962337 
L 204.389558 187.39123 
L 200.555518 192.95244 
z
" clip-path="url(#p23d516efdf)" style="fill: #fee6da; fill-opacity: 0.7"/>
    <path d="M 183.237942 200.056645 
L 187.107229 186.192293 
L 193.812225 193.166684 
L 189.944894 200.526574 
z
" clip-path="url(#p23d516efdf)" style="fill: #ffeee7; fill-opacity: 0.7"/>
    <path d="M 172.620009 198.09158 
L 176.557192 197.0344 
L 183.237942 200.056645 
L 179.321697 199.977222 
z
" clip-path="url(#p23d516efdf)" style="fill: #fff4ee; fill-opacity: 0.7"/>
    <path d="M 155.306578 196.926444 
L 159.237474 188.05765 
L 165.972895 198.992721 
L 161.982608 200.409052 
z
" clip-path="url(#p23d516efdf)" style="fill: #ffefe8; fill-opacity: 0.7"/>
    <path d="M 200.555518 192.95244 
L 204.389558 187.39123 
L 211.099144 194.685569 
L 207.310244 196.846699 
z
" clip-path="url(#p23d516efdf)" style="fill: #fee9df; fill-opacity: 0.7"/>
    <path d="M 153.388341 132.171741 
L 157.350439 124.631591 
L 164.177003 143.24121 
L 160.274553 153.422743 
z
" clip-path="url(#p23d516efdf)" style="fill: #f34c37; fill-opacity: 0.7"/>
    <path d="M 211.099144 194.685569 
L 215.015067 177.027451 
L 221.803404 179.328976 
L 217.891956 194.947392 
z
" clip-path="url(#p23d516efdf)" style="fill: #fedecf; fill-opacity: 0.7"/>
    <path d="M 161.982608 200.409052 
L 165.972895 198.992721 
L 172.620009 198.09158 
L 168.684606 204.389632 
z
" clip-path="url(#p23d516efdf)" style="fill: #fff4ee; fill-opacity: 0.7"/>
    <path d="M 157.350439 124.631591 
L 161.159261 103.764018 
L 167.98144 121.511838 
L 164.177003 143.24121 
z
" clip-path="url(#p23d516efdf)" style="fill: #d21f20; fill-opacity: 0.7"/>
    <path d="M 189.944894 200.526574 
L 193.812225 193.166684 
L 200.555518 192.95244 
L 196.693391 199.954212 
z
" clip-path="url(#p23d516efdf)" style="fill: #ffeee6; fill-opacity: 0.7"/>
    <path d="M 149.468098 143.792767 
L 153.388341 132.171741 
L 160.274553 153.422743 
L 156.426205 168.844263 
z
" clip-path="url(#p23d516efdf)" style="fill: #fb7050; fill-opacity: 0.7"/>
    <path d="M 148.293128 170.025632 
L 152.504322 178.473335 
L 159.237474 188.05765 
L 155.306578 196.926444 
z
" clip-path="url(#p23d516efdf)" style="fill: #fdd3c1; fill-opacity: 0.7"/>
    <path d="M 179.321697 199.977222 
L 183.237942 200.056645 
L 189.944894 200.526574 
L 186.05523 203.156029 
z
" clip-path="url(#p23d516efdf)" style="fill: #fff4ee; fill-opacity: 0.7"/>
    <path d="M 207.310244 196.846699 
L 211.099144 194.685569 
L 217.891956 194.947392 
L 214.083072 200.978094 
z
" clip-path="url(#p23d516efdf)" style="fill: #ffede5; fill-opacity: 0.7"/>
    <path d="M 145.444204 149.416889 
L 149.468098 143.792767 
L 156.426205 168.844263 
L 152.504322 178.473335 
z
" clip-path="url(#p23d516efdf)" style="fill: #fc8d6d; fill-opacity: 0.7"/>
    <path d="M 168.684606 204.389632 
L 172.620009 198.09158 
L 179.321697 199.977222 
L 175.387712 204.63973 
z
" clip-path="url(#p23d516efdf)" style="fill: #fff2ec; fill-opacity: 0.7"/>
    <path d="M 196.693391 199.954212 
L 200.555518 192.95244 
L 207.310244 196.846699 
L 203.503779 196.35458 
z
" clip-path="url(#p23d516efdf)" style="fill: #fee9df; fill-opacity: 0.7"/>
    <path d="M 186.05523 203.156029 
L 189.944894 200.526574 
L 196.693391 199.954212 
L 192.815888 204.699202 
z
" clip-path="url(#p23d516efdf)" style="fill: #fff2ec; fill-opacity: 0.7"/>
    <path d="M 151.053546 184.372111 
L 155.306578 196.926444 
L 161.982608 200.409052 
L 157.957809 202.093871 
z
" clip-path="url(#p23d516efdf)" style="fill: #fee7dc; fill-opacity: 0.7"/>
    <path d="M 157.957809 202.093871 
L 161.982608 200.409052 
L 168.684606 204.389632 
L 164.683221 205.93254 
z
" clip-path="url(#p23d516efdf)" style="fill: #fff2ec; fill-opacity: 0.7"/>
    <path d="M 214.083072 200.978094 
L 217.891956 194.947392 
L 224.890027 183.506807 
L 220.903683 202.876177 
z
" clip-path="url(#p23d516efdf)" style="fill: #fee7db; fill-opacity: 0.7"/>
    <path d="M 217.891956 194.947392 
L 221.803404 179.328976 
L 228.817691 168.976868 
L 224.890027 183.506807 
z
" clip-path="url(#p23d516efdf)" style="fill: #fdc5ae; fill-opacity: 0.7"/>
    <path d="M 203.503779 196.35458 
L 207.310244 196.846699 
L 214.083072 200.978094 
L 210.296063 201.914838 
z
" clip-path="url(#p23d516efdf)" style="fill: #feeae1; fill-opacity: 0.7"/>
    <path d="M 175.387712 204.63973 
L 179.321697 199.977222 
L 186.05523 203.156029 
L 182.122232 201.472421 
z
" clip-path="url(#p23d516efdf)" style="fill: #fff0e8; fill-opacity: 0.7"/>
    <path d="M 164.683221 205.93254 
L 168.684606 204.389632 
L 175.387712 204.63973 
L 171.432678 210.268873 
z
" clip-path="url(#p23d516efdf)" style="fill: #fff5f0; fill-opacity: 0.7"/>
    <path d="M 210.296063 201.914838 
L 214.083072 200.978094 
L 220.903683 202.876177 
L 217.076997 209.557859 
z
" clip-path="url(#p23d516efdf)" style="fill: #fff0e9; fill-opacity: 0.7"/>
    <path d="M 192.815888 204.699202 
L 196.693391 199.954212 
L 203.503779 196.35458 
L 199.616976 204.585075 
z
" clip-path="url(#p23d516efdf)" style="fill: #ffece4; fill-opacity: 0.7"/>
    <path d="M 141.15999 141.884266 
L 145.444204 149.416889 
L 152.504322 178.473335 
L 148.293128 170.025632 
z
" clip-path="url(#p23d516efdf)" style="fill: #fc7f5f; fill-opacity: 0.7"/>
    <path d="M 144.212833 173.412136 
L 148.293128 170.025632 
L 155.306578 196.926444 
L 151.053546 184.372111 
z
" clip-path="url(#p23d516efdf)" style="fill: #fcbea5; fill-opacity: 0.7"/>
    <path d="M 182.122232 201.472421 
L 186.05523 203.156029 
L 192.815888 204.699202 
L 188.912042 208.577782 
z
" clip-path="url(#p23d516efdf)" style="fill: #fff0e8; fill-opacity: 0.7"/>
    <path d="M 220.903683 202.876177 
L 224.890027 183.506807 
L 231.786055 184.227399 
L 227.861034 197.935397 
z
" clip-path="url(#p23d516efdf)" style="fill: #fed8c7; fill-opacity: 0.7"/>
    <path d="M 171.432678 210.268873 
L 175.387712 204.63973 
L 182.122232 201.472421 
L 178.190054 211.946962 
z
" clip-path="url(#p23d516efdf)" style="fill: #fff2ec; fill-opacity: 0.7"/>
    <path d="M 153.877158 202.399606 
L 157.957809 202.093871 
L 164.683221 205.93254 
L 160.620166 205.248864 
z
" clip-path="url(#p23d516efdf)" style="fill: #ffece4; fill-opacity: 0.7"/>
    <path d="M 217.076997 209.557859 
L 220.903683 202.876177 
L 227.861034 197.935397 
L 224.009953 206.360755 
z
" clip-path="url(#p23d516efdf)" style="fill: #ffede5; fill-opacity: 0.7"/>
    <path d="M 199.616976 204.585075 
L 203.503779 196.35458 
L 210.296063 201.914838 
L 206.487773 200.595884 
z
" clip-path="url(#p23d516efdf)" style="fill: #fee7dc; fill-opacity: 0.7"/>
    <path d="M 188.912042 208.577782 
L 192.815888 204.699202 
L 199.616976 204.585075 
L 195.744839 202.282339 
z
" clip-path="url(#p23d516efdf)" style="fill: #ffece4; fill-opacity: 0.7"/>
    <path d="M 160.620166 205.248864 
L 164.683221 205.93254 
L 171.432678 210.268873 
L 167.405574 210.082649 
z
" clip-path="url(#p23d516efdf)" style="fill: #fff1ea; fill-opacity: 0.7"/>
    <path d="M 146.813308 177.821508 
L 151.053546 184.372111 
L 157.957809 202.093871 
L 153.877158 202.399606 
z
" clip-path="url(#p23d516efdf)" style="fill: #fdd1be; fill-opacity: 0.7"/>
    <path d="M 224.890027 183.506807 
L 228.817691 168.976868 
L 236.043292 152.320498 
L 231.786055 184.227399 
z
" clip-path="url(#p23d516efdf)" style="fill: #fc9879; fill-opacity: 0.7"/>
    <path d="M 178.190054 211.946962 
L 182.122232 201.472421 
L 188.912042 208.577782 
L 184.978762 212.624137 
z
" clip-path="url(#p23d516efdf)" style="fill: #fff1ea; fill-opacity: 0.7"/>
    <path d="M 206.487773 200.595884 
L 210.296063 201.914838 
L 217.076997 209.557859 
L 213.406618 198.176985 
z
" clip-path="url(#p23d516efdf)" style="fill: #fee7db; fill-opacity: 0.7"/>
    <path d="M 167.405574 210.082649 
L 171.432678 210.268873 
L 178.190054 211.946962 
L 174.182714 210.49075 
z
" clip-path="url(#p23d516efdf)" style="fill: #fff2ec; fill-opacity: 0.7"/>
    <path d="M 136.912929 139.711925 
L 141.15999 141.884266 
L 148.293128 170.025632 
L 144.212833 173.412136 
z
" clip-path="url(#p23d516efdf)" style="fill: #f96245; fill-opacity: 0.7"/>
    <path d="M 224.009953 206.360755 
L 227.861034 197.935397 
L 234.903058 192.10937 
L 230.957482 205.87083 
z
" clip-path="url(#p23d516efdf)" style="fill: #fee1d4; fill-opacity: 0.7"/>
    <path d="M 213.406618 198.176985 
L 217.076997 209.557859 
L 224.009953 206.360755 
L 220.20266 210.060353 
z
" clip-path="url(#p23d516efdf)" style="fill: #feeae0; fill-opacity: 0.7"/>
    <path d="M 139.926168 167.427614 
L 144.212833 173.412136 
L 151.053546 184.372111 
L 146.813308 177.821508 
z
" clip-path="url(#p23d516efdf)" style="fill: #fc9b7c; fill-opacity: 0.7"/>
    <path d="M 227.861034 197.935397 
L 231.786055 184.227399 
L 239.008571 170.160772 
L 234.903058 192.10937 
z
" clip-path="url(#p23d516efdf)" style="fill: #fcb99f; fill-opacity: 0.7"/>
    <path d="M 195.744839 202.282339 
L 199.616976 204.585075 
L 206.487773 200.595884 
L 202.604729 204.662488 
z
" clip-path="url(#p23d516efdf)" style="fill: #fee5d8; fill-opacity: 0.7"/>
    <path d="M 184.978762 212.624137 
L 188.912042 208.577782 
L 195.744839 202.282339 
L 191.808369 211.393589 
z
" clip-path="url(#p23d516efdf)" style="fill: #ffede5; fill-opacity: 0.7"/>
    <path d="M 149.586225 191.496606 
L 153.877158 202.399606 
L 160.620166 205.248864 
L 156.596554 211.435505 
z
" clip-path="url(#p23d516efdf)" style="fill: #fee3d6; fill-opacity: 0.7"/>
    <path d="M 156.596554 211.435505 
L 160.620166 205.248864 
L 167.405574 210.082649 
L 163.381022 214.651137 
z
" clip-path="url(#p23d516efdf)" style="fill: #ffeee7; fill-opacity: 0.7"/>
    <path d="M 174.182714 210.49075 
L 178.190054 211.946962 
L 184.978762 212.624137 
L 180.9995 210.877895 
z
" clip-path="url(#p23d516efdf)" style="fill: #fff0e8; fill-opacity: 0.7"/>
    <path d="M 220.20266 210.060353 
L 224.009953 206.360755 
L 230.957482 205.87083 
L 227.125852 212.145584 
z
" clip-path="url(#p23d516efdf)" style="fill: #feeae1; fill-opacity: 0.7"/>
    <path d="M 163.381022 214.651137 
L 167.405574 210.082649 
L 174.182714 210.49075 
L 170.175129 215.723905 
z
" clip-path="url(#p23d516efdf)" style="fill: #ffefe8; fill-opacity: 0.7"/>
    <path d="M 230.957482 205.87083 
L 234.903058 192.10937 
L 241.963363 188.968865 
L 237.84193 210.987201 
z
" clip-path="url(#p23d516efdf)" style="fill: #fdd7c6; fill-opacity: 0.7"/>
    <path d="M 191.808369 211.393589 
L 195.744839 202.282339 
L 202.604729 204.662488 
L 198.67523 213.007705 
z
" clip-path="url(#p23d516efdf)" style="fill: #fee7dc; fill-opacity: 0.7"/>
    <path d="M 202.604729 204.662488 
L 206.487773 200.595884 
L 213.406618 198.176985 
L 209.525681 203.244933 
z
" clip-path="url(#p23d516efdf)" style="fill: #fedbcc; fill-opacity: 0.7"/>
    <path d="M 227.125852 212.145584 
L 230.957482 205.87083 
L 237.84193 210.987201 
L 234.036427 216.705534 
z
" clip-path="url(#p23d516efdf)" style="fill: #ffece4; fill-opacity: 0.7"/>
    <path d="M 231.786055 184.227399 
L 236.043292 152.320498 
L 243.255864 142.549019 
L 239.008571 170.160772 
z
" clip-path="url(#p23d516efdf)" style="fill: #fb694a; fill-opacity: 0.7"/>
    <path d="M 180.9995 210.877895 
L 184.978762 212.624137 
L 191.808369 211.393589 
L 187.857128 215.600426 
z
" clip-path="url(#p23d516efdf)" style="fill: #ffeee6; fill-opacity: 0.7"/>
    <path d="M 142.57649 175.162396 
L 146.813308 177.821508 
L 153.877158 202.399606 
L 149.586225 191.496606 
z
" clip-path="url(#p23d516efdf)" style="fill: #fcb296; fill-opacity: 0.7"/>
    <path d="M 132.765997 144.703568 
L 136.912929 139.711925 
L 144.212833 173.412136 
L 139.926168 167.427614 
z
" clip-path="url(#p23d516efdf)" style="fill: #f5533b; fill-opacity: 0.7"/>
    <path d="M 237.84193 210.987201 
L 241.963363 188.968865 
L 248.738743 200.504478 
L 244.804798 213.240668 
z
" clip-path="url(#p23d516efdf)" style="fill: #fedecf; fill-opacity: 0.7"/>
    <path d="M 209.525681 203.244933 
L 213.406618 198.176985 
L 220.20266 210.060353 
L 216.331126 216.933089 
z
" clip-path="url(#p23d516efdf)" style="fill: #fee5d8; fill-opacity: 0.7"/>
    <path d="M 152.431707 209.228092 
L 156.596554 211.435505 
L 163.381022 214.651137 
L 159.348936 221.124223 
z
" clip-path="url(#p23d516efdf)" style="fill: #ffefe8; fill-opacity: 0.7"/>
    <path d="M 234.903058 192.10937 
L 239.008571 170.160772 
L 245.942246 174.434829 
L 241.963363 188.968865 
z
" clip-path="url(#p23d516efdf)" style="fill: #fca082; fill-opacity: 0.7"/>
    <path d="M 216.331126 216.933089 
L 220.20266 210.060353 
L 227.125852 212.145584 
L 223.307798 215.844581 
z
" clip-path="url(#p23d516efdf)" style="fill: #ffeee6; fill-opacity: 0.7"/>
    <path d="M 170.175129 215.723905 
L 174.182714 210.49075 
L 180.9995 210.877895 
L 176.994958 214.35742 
z
" clip-path="url(#p23d516efdf)" style="fill: #ffebe2; fill-opacity: 0.7"/>
    <path d="M 159.348936 221.124223 
L 163.381022 214.651137 
L 170.175129 215.723905 
L 166.158783 223.055609 
z
" clip-path="url(#p23d516efdf)" style="fill: #fff4ef; fill-opacity: 0.7"/>
    <path d="M 234.036427 216.705534 
L 237.84193 210.987201 
L 244.804798 213.240668 
L 241.142375 212.699071 
z
" clip-path="url(#p23d516efdf)" style="fill: #ffece3; fill-opacity: 0.7"/>
    <path d="M 244.804798 213.240668 
L 248.738743 200.504478 
L 255.764751 201.739199 
L 251.819883 214.6433 
z
" clip-path="url(#p23d516efdf)" style="fill: #fee3d7; fill-opacity: 0.7"/>
    <path d="M 187.857128 215.600426 
L 191.808369 211.393589 
L 198.67523 213.007705 
L 194.733939 219.547826 
z
" clip-path="url(#p23d516efdf)" style="fill: #ffeee7; fill-opacity: 0.7"/>
    <path d="M 198.67523 213.007705 
L 202.604729 204.662488 
L 209.525681 203.244933 
L 205.607627 209.956168 
z
" clip-path="url(#p23d516efdf)" style="fill: #fee3d6; fill-opacity: 0.7"/>
    <path d="M 223.307798 215.844581 
L 227.125852 212.145584 
L 234.036427 216.705534 
L 230.19312 223.308338 
z
" clip-path="url(#p23d516efdf)" style="fill: #fff0e9; fill-opacity: 0.7"/>
    <path d="M 145.341279 188.154656 
L 149.586225 191.496606 
L 156.596554 211.435505 
L 152.431707 209.228092 
z
" clip-path="url(#p23d516efdf)" style="fill: #fdcebb; fill-opacity: 0.7"/>
    <path d="M 241.963363 188.968865 
L 245.942246 174.434829 
L 253.164072 167.937984 
L 248.738743 200.504478 
z
" clip-path="url(#p23d516efdf)" style="fill: #fc9d7f; fill-opacity: 0.7"/>
    <path d="M 135.538002 159.561134 
L 139.926168 167.427614 
L 146.813308 177.821508 
L 142.57649 175.162396 
z
" clip-path="url(#p23d516efdf)" style="fill: #fb7757; fill-opacity: 0.7"/>
    <path d="M 205.607627 209.956168 
L 209.525681 203.244933 
L 216.331126 216.933089 
L 212.464325 221.162651 
z
" clip-path="url(#p23d516efdf)" style="fill: #fee9df; fill-opacity: 0.7"/>
    <path d="M 239.008571 170.160772 
L 243.255864 142.549019 
L 250.174661 149.254435 
L 245.942246 174.434829 
z
" clip-path="url(#p23d516efdf)" style="fill: #f5523a; fill-opacity: 0.7"/>
    <path d="M 212.464325 221.162651 
L 216.331126 216.933089 
L 223.307798 215.844581 
L 219.400327 224.425767 
z
" clip-path="url(#p23d516efdf)" style="fill: #fff2ec; fill-opacity: 0.7"/>
    <path d="M 241.142375 212.699071 
L 244.804798 213.240668 
L 251.819883 214.6433 
L 248.090206 218.25869 
z
" clip-path="url(#p23d516efdf)" style="fill: #feeae1; fill-opacity: 0.7"/>
    <path d="M 176.994958 214.35742 
L 180.9995 210.877895 
L 187.857128 215.600426 
L 183.867979 214.923121 
z
" clip-path="url(#p23d516efdf)" style="fill: #fee9df; fill-opacity: 0.7"/>
    <path d="M 251.819883 214.6433 
L 255.764751 201.739199 
L 262.974681 197.905179 
L 258.762795 219.965455 
z
" clip-path="url(#p23d516efdf)" style="fill: #fee1d3; fill-opacity: 0.7"/>
    <path d="M 194.733939 219.547826 
L 198.67523 213.007705 
L 205.607627 209.956168 
L 201.64583 220.923065 
z
" clip-path="url(#p23d516efdf)" style="fill: #ffece3; fill-opacity: 0.7"/>
    <path d="M 166.158783 223.055609 
L 170.175129 215.723905 
L 176.994958 214.35742 
L 172.994904 224.013905 
z
" clip-path="url(#p23d516efdf)" style="fill: #fff1ea; fill-opacity: 0.7"/>
    <path d="M 248.738743 200.504478 
L 253.164072 167.937984 
L 260.072909 175.611765 
L 255.764751 201.739199 
z
" clip-path="url(#p23d516efdf)" style="fill: #fca486; fill-opacity: 0.7"/>
    <path d="M 148.277558 211.024741 
L 152.431707 209.228092 
L 159.348936 221.124223 
L 155.176872 218.590476 
z
" clip-path="url(#p23d516efdf)" style="fill: #fee9df; fill-opacity: 0.7"/>
    <path d="M 155.176872 218.590476 
L 159.348936 221.124223 
L 166.158783 223.055609 
L 162.08542 226.843138 
z
" clip-path="url(#p23d516efdf)" style="fill: #fff4ef; fill-opacity: 0.7"/>
    <path d="M 230.19312 223.308338 
L 234.036427 216.705534 
L 241.142375 212.699071 
L 237.429737 212.619629 
z
" clip-path="url(#p23d516efdf)" style="fill: #feeae1; fill-opacity: 0.7"/>
    <path d="M 248.090206 218.25869 
L 251.819883 214.6433 
L 258.762795 219.965455 
L 255.137221 220.541885 
z
" clip-path="url(#p23d516efdf)" style="fill: #ffeee6; fill-opacity: 0.7"/>
    <path d="M 201.64583 220.923065 
L 205.607627 209.956168 
L 212.464325 221.162651 
L 208.560112 226.487237 
z
" clip-path="url(#p23d516efdf)" style="fill: #fff0e8; fill-opacity: 0.7"/>
    <path d="M 219.400327 224.425767 
L 223.307798 215.844581 
L 230.19312 223.308338 
L 226.430454 223.12183 
z
" clip-path="url(#p23d516efdf)" style="fill: #fff2ec; fill-opacity: 0.7"/>
    <path d="M 138.389459 177.870992 
L 142.57649 175.162396 
L 149.586225 191.496606 
L 145.341279 188.154656 
z
" clip-path="url(#p23d516efdf)" style="fill: #fc9576; fill-opacity: 0.7"/>
    <path d="M 128.349091 139.07544 
L 132.765997 144.703568 
L 139.926168 167.427614 
L 135.538002 159.561134 
z
" clip-path="url(#p23d516efdf)" style="fill: #ea362a; fill-opacity: 0.7"/>
    <path d="M 245.942246 174.434829 
L 250.174661 149.254435 
L 257.365899 145.860752 
L 253.164072 167.937984 
z
" clip-path="url(#p23d516efdf)" style="fill: #f34a36; fill-opacity: 0.7"/>
    <path d="M 183.867979 214.923121 
L 187.857128 215.600426 
L 194.733939 219.547826 
L 190.785092 211.273641 
z
" clip-path="url(#p23d516efdf)" style="fill: #fee8dd; fill-opacity: 0.7"/>
    <path d="M 255.764751 201.739199 
L 260.072909 175.611765 
L 267.180386 176.804345 
L 262.974681 197.905179 
z
" clip-path="url(#p23d516efdf)" style="fill: #fca183; fill-opacity: 0.7"/>
    <path d="M 208.560112 226.487237 
L 212.464325 221.162651 
L 219.400327 224.425767 
L 215.551269 226.107145 
z
" clip-path="url(#p23d516efdf)" style="fill: #fff5f0; fill-opacity: 0.7"/>
    <path d="M 141.279293 197.914919 
L 145.341279 188.154656 
L 152.431707 209.228092 
L 148.277558 211.024741 
z
" clip-path="url(#p23d516efdf)" style="fill: #fdc7b2; fill-opacity: 0.7"/>
    <path d="M 162.08542 226.843138 
L 166.158783 223.055609 
L 172.994904 224.013905 
L 168.893397 222.034804 
z
" clip-path="url(#p23d516efdf)" style="fill: #fff3ed; fill-opacity: 0.7"/>
    <path d="M 108.808992 224.054796 
L 112.609427 204.134259 
L 119.652158 217.001144 
L 115.493917 224.652542 
z
" clip-path="url(#p23d516efdf)" style="fill: #fee9df; fill-opacity: 0.7"/>
    <path d="M 112.609427 204.134259 
L 116.588723 189.909661 
L 123.518703 198.579203 
L 119.652158 217.001144 
z
" clip-path="url(#p23d516efdf)" style="fill: #fdc6b0; fill-opacity: 0.7"/>
    <path d="M 172.994904 224.013905 
L 176.994958 214.35742 
L 183.867979 214.923121 
L 179.827391 212.416726 
z
" clip-path="url(#p23d516efdf)" style="fill: #fee7dc; fill-opacity: 0.7"/>
    <path d="M 131.289066 161.323436 
L 135.538002 159.561134 
L 142.57649 175.162396 
L 138.389459 177.870992 
z
" clip-path="url(#p23d516efdf)" style="fill: #f96346; fill-opacity: 0.7"/>
    <path d="M 119.652158 217.001144 
L 123.518703 198.579203 
L 130.383637 204.520409 
L 126.39823 218.67304 
z
" clip-path="url(#p23d516efdf)" style="fill: #fedaca; fill-opacity: 0.7"/>
    <path d="M 190.785092 211.273641 
L 194.733939 219.547826 
L 201.64583 220.923065 
L 197.716631 220.773222 
z
" clip-path="url(#p23d516efdf)" style="fill: #fee9df; fill-opacity: 0.7"/>
    <path d="M 258.762795 219.965455 
L 262.974681 197.905179 
L 270.348124 190.984191 
L 266.254986 207.701758 
z
" clip-path="url(#p23d516efdf)" style="fill: #fdcab5; fill-opacity: 0.7"/>
    <path d="M 237.429737 212.619629 
L 241.142375 212.699071 
L 248.090206 218.25869 
L 244.424356 217.643506 
z
" clip-path="url(#p23d516efdf)" style="fill: #fee5d8; fill-opacity: 0.7"/>
    <path d="M 126.39823 218.67304 
L 130.383637 204.520409 
L 137.321494 213.587956 
L 133.284925 225.323857 
z
" clip-path="url(#p23d516efdf)" style="fill: #fee4d8; fill-opacity: 0.7"/>
    <path d="M 115.493917 224.652542 
L 119.652158 217.001144 
L 126.39823 218.67304 
L 122.172393 223.505314 
z
" clip-path="url(#p23d516efdf)" style="fill: #ffece4; fill-opacity: 0.7"/>
    <path d="M 134.270695 185.601247 
L 138.389459 177.870992 
L 145.341279 188.154656 
L 141.279293 197.914919 
z
" clip-path="url(#p23d516efdf)" style="fill: #fc9879; fill-opacity: 0.7"/>
    <path d="M 144.066862 211.827151 
L 148.277558 211.024741 
L 155.176872 218.590476 
L 151.115156 227.278509 
z
" clip-path="url(#p23d516efdf)" style="fill: #fee7db; fill-opacity: 0.7"/>
    <path d="M 151.115156 227.278509 
L 155.176872 218.590476 
L 162.08542 226.843138 
L 157.9428 227.542554 
z
" clip-path="url(#p23d516efdf)" style="fill: #fff2ec; fill-opacity: 0.7"/>
    <path d="M 255.137221 220.541885 
L 258.762795 219.965455 
L 266.254986 207.701758 
L 262.411232 216.095331 
z
" clip-path="url(#p23d516efdf)" style="fill: #fee5d8; fill-opacity: 0.7"/>
    <path d="M 197.716631 220.773222 
L 201.64583 220.923065 
L 208.560112 226.487237 
L 204.672458 225.241051 
z
" clip-path="url(#p23d516efdf)" style="fill: #fff0e8; fill-opacity: 0.7"/>
    <path d="M 137.321494 213.587956 
L 141.279293 197.914919 
L 148.277558 211.024741 
L 144.066862 211.827151 
z
" clip-path="url(#p23d516efdf)" style="fill: #fdd4c2; fill-opacity: 0.7"/>
    <path d="M 226.430454 223.12183 
L 230.19312 223.308338 
L 237.429737 212.619629 
L 233.581104 217.914311 
z
" clip-path="url(#p23d516efdf)" style="fill: #fee9df; fill-opacity: 0.7"/>
    <path d="M 130.383637 204.520409 
L 134.270695 185.601247 
L 141.279293 197.914919 
L 137.321494 213.587956 
z
" clip-path="url(#p23d516efdf)" style="fill: #fcbea5; fill-opacity: 0.7"/>
    <path d="M 116.588723 189.909661 
L 120.383378 168.546048 
L 127.378316 179.201195 
L 123.518703 198.579203 
z
" clip-path="url(#p23d516efdf)" style="fill: #fc8d6d; fill-opacity: 0.7"/>
    <path d="M 253.164072 167.937984 
L 257.365899 145.860752 
L 264.674076 140.568595 
L 260.072909 175.611765 
z
" clip-path="url(#p23d516efdf)" style="fill: #ed392b; fill-opacity: 0.7"/>
    <path d="M 123.518703 198.579203 
L 127.378316 179.201195 
L 134.270695 185.601247 
L 130.383637 204.520409 
z
" clip-path="url(#p23d516efdf)" style="fill: #fca588; fill-opacity: 0.7"/>
    <path d="M 215.551269 226.107145 
L 219.400327 224.425767 
L 226.430454 223.12183 
L 222.64082 221.847804 
z
" clip-path="url(#p23d516efdf)" style="fill: #fff0e8; fill-opacity: 0.7"/>
    <path d="M 104.465375 226.820583 
L 108.808992 224.054796 
L 115.493917 224.652542 
L 110.97011 220.932094 
z
" clip-path="url(#p23d516efdf)" style="fill: #fff0e8; fill-opacity: 0.7"/>
    <path d="M 244.424356 217.643506 
L 248.090206 218.25869 
L 255.137221 220.541885 
L 251.534188 218.687455 
z
" clip-path="url(#p23d516efdf)" style="fill: #fee7dc; fill-opacity: 0.7"/>
    <path d="M 127.378316 179.201195 
L 131.289066 161.323436 
L 138.389459 177.870992 
L 134.270695 185.601247 
z
" clip-path="url(#p23d516efdf)" style="fill: #fb7353; fill-opacity: 0.7"/>
    <path d="M 133.284925 225.323857 
L 137.321494 213.587956 
L 144.066862 211.827151 
L 140.096633 227.635421 
z
" clip-path="url(#p23d516efdf)" style="fill: #fee8de; fill-opacity: 0.7"/>
    <path d="M 122.172393 223.505314 
L 126.39823 218.67304 
L 133.284925 225.323857 
L 129.113179 231.553911 
z
" clip-path="url(#p23d516efdf)" style="fill: #fff0e8; fill-opacity: 0.7"/>
    <path d="M 204.672458 225.241051 
L 208.560112 226.487237 
L 215.551269 226.107145 
L 211.680069 226.197965 
z
" clip-path="url(#p23d516efdf)" style="fill: #fff1ea; fill-opacity: 0.7"/>
    <path d="M 262.974681 197.905179 
L 267.180386 176.804345 
L 274.753701 165.082718 
L 270.348124 190.984191 
z
" clip-path="url(#p23d516efdf)" style="fill: #fc8565; fill-opacity: 0.7"/>
    <path d="M 124.190798 146.675624 
L 128.349091 139.07544 
L 135.538002 159.561134 
L 131.289066 161.323436 
z
" clip-path="url(#p23d516efdf)" style="fill: #da2723; fill-opacity: 0.7"/>
    <path d="M 157.9428 227.542554 
L 162.08542 226.843138 
L 168.893397 222.034804 
L 164.840169 230.852944 
z
" clip-path="url(#p23d516efdf)" style="fill: #fff2eb; fill-opacity: 0.7"/>
    <path d="M 140.096633 227.635421 
L 144.066862 211.827151 
L 151.115156 227.278509 
L 146.963835 231.494932 
z
" clip-path="url(#p23d516efdf)" style="fill: #ffeee7; fill-opacity: 0.7"/>
    <path d="M 260.072909 175.611765 
L 264.674076 140.568595 
L 271.710495 146.121577 
L 267.180386 176.804345 
z
" clip-path="url(#p23d516efdf)" style="fill: #ee3a2c; fill-opacity: 0.7"/>
    <path d="M 120.383378 168.546048 
L 124.190798 146.675624 
L 131.289066 161.323436 
L 127.378316 179.201195 
z
" clip-path="url(#p23d516efdf)" style="fill: #f24734; fill-opacity: 0.7"/>
    <path d="M 168.893397 222.034804 
L 172.994904 224.013905 
L 179.827391 212.416726 
L 175.781587 219.495566 
z
" clip-path="url(#p23d516efdf)" style="fill: #fee6da; fill-opacity: 0.7"/>
    <path d="M 251.534188 218.687455 
L 255.137221 220.541885 
L 262.411232 216.095331 
L 258.430666 228.88581 
z
" clip-path="url(#p23d516efdf)" style="fill: #fee7dc; fill-opacity: 0.7"/>
    <path d="M 129.113179 231.553911 
L 133.284925 225.323857 
L 140.096633 227.635421 
L 135.791126 226.851895 
z
" clip-path="url(#p23d516efdf)" style="fill: #fff2eb; fill-opacity: 0.7"/>
    <path d="M 233.581104 217.914311 
L 237.429737 212.619629 
L 244.424356 217.643506 
L 240.59955 222.728197 
z
" clip-path="url(#p23d516efdf)" style="fill: #fee2d5; fill-opacity: 0.7"/>
    <path d="M 146.963835 231.494932 
L 151.115156 227.278509 
L 157.9428 227.542554 
L 153.758859 228.381268 
z
" clip-path="url(#p23d516efdf)" style="fill: #fff2ec; fill-opacity: 0.7"/>
    <path d="M 110.97011 220.932094 
L 115.493917 224.652542 
L 122.172393 223.505314 
L 117.783865 223.571819 
z
" clip-path="url(#p23d516efdf)" style="fill: #fee9df; fill-opacity: 0.7"/>
    <path d="M 179.827391 212.416726 
L 183.867979 214.923121 
L 190.785092 211.273641 
L 186.765453 199.905299 
z
" clip-path="url(#p23d516efdf)" style="fill: #fdccb8; fill-opacity: 0.7"/>
    <path d="M 222.64082 221.847804 
L 226.430454 223.12183 
L 233.581104 217.914311 
L 229.795874 217.747914 
z
" clip-path="url(#p23d516efdf)" style="fill: #fee4d8; fill-opacity: 0.7"/>
    <path d="M 240.59955 222.728197 
L 244.424356 217.643506 
L 251.534188 218.687455 
L 247.624421 228.038546 
z
" clip-path="url(#p23d516efdf)" style="fill: #fee6da; fill-opacity: 0.7"/>
    <path d="M 211.680069 226.197965 
L 215.551269 226.107145 
L 222.64082 221.847804 
L 218.739143 226.12414 
z
" clip-path="url(#p23d516efdf)" style="fill: #feeae1; fill-opacity: 0.7"/>
    <path d="M 117.783865 223.571819 
L 122.172393 223.505314 
L 129.113179 231.553911 
L 124.736122 230.60743 
z
" clip-path="url(#p23d516efdf)" style="fill: #ffeee6; fill-opacity: 0.7"/>
    <path d="M 164.840169 230.852944 
L 168.893397 222.034804 
L 175.781587 219.495566 
L 171.735138 229.860117 
z
" clip-path="url(#p23d516efdf)" style="fill: #feeae1; fill-opacity: 0.7"/>
    <path d="M 99.890877 224.043562 
L 104.465375 226.820583 
L 110.97011 220.932094 
L 106.685094 226.585601 
z
" clip-path="url(#p23d516efdf)" style="fill: #fee9df; fill-opacity: 0.7"/>
    <path d="M 135.791126 226.851895 
L 140.096633 227.635421 
L 146.963835 231.494932 
L 142.665981 229.332863 
z
" clip-path="url(#p23d516efdf)" style="fill: #ffefe8; fill-opacity: 0.7"/>
    <path d="M 247.624421 228.038546 
L 251.534188 218.687455 
L 258.430666 228.88581 
L 254.667672 233.234853 
z
" clip-path="url(#p23d516efdf)" style="fill: #ffece4; fill-opacity: 0.7"/>
    <path d="M 153.758859 228.381268 
L 157.9428 227.542554 
L 164.840169 230.852944 
L 160.699403 233.128048 
z
" clip-path="url(#p23d516efdf)" style="fill: #fff0e9; fill-opacity: 0.7"/>
    <path d="M 266.254986 207.701758 
L 270.348124 190.984191 
L 278.097256 175.607644 
L 273.915691 193.778005 
z
" clip-path="url(#p23d516efdf)" style="fill: #fc9373; fill-opacity: 0.7"/>
    <path d="M 267.180386 176.804345 
L 271.710495 146.121577 
L 279.416534 132.676265 
L 274.753701 165.082718 
z
" clip-path="url(#p23d516efdf)" style="fill: #d82422; fill-opacity: 0.7"/>
    <path d="M 124.736122 230.60743 
L 129.113179 231.553911 
L 135.791126 226.851895 
L 131.66192 236.211778 
z
" clip-path="url(#p23d516efdf)" style="fill: #fff1ea; fill-opacity: 0.7"/>
    <path d="M 262.411232 216.095331 
L 266.254986 207.701758 
L 273.915691 193.778005 
L 270.121034 200.153226 
z
" clip-path="url(#p23d516efdf)" style="fill: #fcb79c; fill-opacity: 0.7"/>
    <path d="M 200.767164 218.096366 
L 204.672458 225.241051 
L 211.680069 226.197965 
L 207.725567 231.64268 
z
" clip-path="url(#p23d516efdf)" style="fill: #fee8dd; fill-opacity: 0.7"/>
    <path d="M 186.765453 199.905299 
L 190.785092 211.273641 
L 197.716631 220.773222 
L 193.784168 201.991803 
z
" clip-path="url(#p23d516efdf)" style="fill: #fcc1a8; fill-opacity: 0.7"/>
    <path d="M 193.784168 201.991803 
L 197.716631 220.773222 
L 204.672458 225.241051 
L 200.767164 218.096366 
z
" clip-path="url(#p23d516efdf)" style="fill: #fdd5c4; fill-opacity: 0.7"/>
    <path d="M 142.665981 229.332863 
L 146.963835 231.494932 
L 153.758859 228.381268 
L 149.660817 237.720967 
z
" clip-path="url(#p23d516efdf)" style="fill: #fff1ea; fill-opacity: 0.7"/>
    <path d="M 218.739143 226.12414 
L 222.64082 221.847804 
L 229.795874 217.747914 
L 225.699051 235.834715 
z
" clip-path="url(#p23d516efdf)" style="fill: #fee7db; fill-opacity: 0.7"/>
    <path d="M 258.430666 228.88581 
L 262.411232 216.095331 
L 270.121034 200.153226 
L 265.987965 216.951815 
z
" clip-path="url(#p23d516efdf)" style="fill: #fdd2bf; fill-opacity: 0.7"/>
    <path d="M 229.795874 217.747914 
L 233.581104 217.914311 
L 240.59955 222.728197 
L 236.92756 218.435156 
z
" clip-path="url(#p23d516efdf)" style="fill: #fedbcc; fill-opacity: 0.7"/>
    <path d="M 270.348124 190.984191 
L 274.753701 165.082718 
L 282.259028 158.305205 
L 278.097256 175.607644 
z
" clip-path="url(#p23d516efdf)" style="fill: #f5523a; fill-opacity: 0.7"/>
    <path d="M 207.725567 231.64268 
L 211.680069 226.197965 
L 218.739143 226.12414 
L 214.752334 235.734628 
z
" clip-path="url(#p23d516efdf)" style="fill: #ffede5; fill-opacity: 0.7"/>
    <path d="M 160.699403 233.128048 
L 164.840169 230.852944 
L 171.735138 229.860117 
L 167.608301 231.75763 
z
" clip-path="url(#p23d516efdf)" style="fill: #ffefe8; fill-opacity: 0.7"/>
    <path d="M 106.685094 226.585601 
L 110.97011 220.932094 
L 117.783865 223.571819 
L 113.443082 226.900737 
z
" clip-path="url(#p23d516efdf)" style="fill: #fee5d8; fill-opacity: 0.7"/>
    <path d="M 236.92756 218.435156 
L 240.59955 222.728197 
L 247.624421 228.038546 
L 243.812806 232.291845 
z
" clip-path="url(#p23d516efdf)" style="fill: #fee6da; fill-opacity: 0.7"/>
    <path d="M 95.718871 233.935498 
L 99.890877 224.043562 
L 106.685094 226.585601 
L 102.285114 229.703407 
z
" clip-path="url(#p23d516efdf)" style="fill: #feeae0; fill-opacity: 0.7"/>
    <path d="M 175.781587 219.495566 
L 179.827391 212.416726 
L 186.765453 199.905299 
L 182.697928 203.38648 
z
" clip-path="url(#p23d516efdf)" style="fill: #fcbca2; fill-opacity: 0.7"/>
    <path d="M 149.660817 237.720967 
L 153.758859 228.381268 
L 160.699403 233.128048 
L 156.537982 236.833685 
z
" clip-path="url(#p23d516efdf)" style="fill: #fff1ea; fill-opacity: 0.7"/>
    <path d="M 113.443082 226.900737 
L 117.783865 223.571819 
L 124.736122 230.60743 
L 120.513682 237.372358 
z
" clip-path="url(#p23d516efdf)" style="fill: #feeae1; fill-opacity: 0.7"/>
    <path d="M 214.752334 235.734628 
L 218.739143 226.12414 
L 225.699051 235.834715 
L 221.807164 239.387772 
z
" clip-path="url(#p23d516efdf)" style="fill: #fff2eb; fill-opacity: 0.7"/>
    <path d="M 243.812806 232.291845 
L 247.624421 228.038546 
L 254.667672 233.234853 
L 251.131739 227.269421 
z
" clip-path="url(#p23d516efdf)" style="fill: #ffebe2; fill-opacity: 0.7"/>
    <path d="M 131.66192 236.211778 
L 135.791126 226.851895 
L 142.665981 229.332863 
L 138.406992 231.926261 
z
" clip-path="url(#p23d516efdf)" style="fill: #ffece4; fill-opacity: 0.7"/>
    <path d="M 171.735138 229.860117 
L 175.781587 219.495566 
L 182.697928 203.38648 
L 178.675036 227.706771 
z
" clip-path="url(#p23d516efdf)" style="fill: #fed8c7; fill-opacity: 0.7"/>
    <path d="M 120.513682 237.372358 
L 124.736122 230.60743 
L 131.66192 236.211778 
L 127.336078 238.04494 
z
" clip-path="url(#p23d516efdf)" style="fill: #fff2ec; fill-opacity: 0.7"/>
    <path d="M 254.667672 233.234853 
L 258.430666 228.88581 
L 265.987965 216.951815 
L 262.55046 210.027749 
z
" clip-path="url(#p23d516efdf)" style="fill: #fedccd; fill-opacity: 0.7"/>
    <path d="M 225.699051 235.834715 
L 229.795874 217.747914 
L 236.92756 218.435156 
L 232.966464 227.514091 
z
" clip-path="url(#p23d516efdf)" style="fill: #fee1d4; fill-opacity: 0.7"/>
    <path d="M 196.74757 225.499104 
L 200.767164 218.096366 
L 207.725567 231.64268 
L 203.747493 236.634735 
z
" clip-path="url(#p23d516efdf)" style="fill: #fee6da; fill-opacity: 0.7"/>
    <path d="M 203.747493 236.634735 
L 207.725567 231.64268 
L 214.752334 235.734628 
L 210.803403 239.580248 
z
" clip-path="url(#p23d516efdf)" style="fill: #fff2eb; fill-opacity: 0.7"/>
    <path d="M 102.285114 229.703407 
L 106.685094 226.585601 
L 113.443082 226.900737 
L 109.345318 239.236195 
z
" clip-path="url(#p23d516efdf)" style="fill: #fee9df; fill-opacity: 0.7"/>
    <path d="M 167.608301 231.75763 
L 171.735138 229.860117 
L 178.675036 227.706771 
L 174.59376 235.001424 
z
" clip-path="url(#p23d516efdf)" style="fill: #feeae0; fill-opacity: 0.7"/>
    <path d="M 138.406992 231.926261 
L 142.665981 229.332863 
L 149.660817 237.720967 
L 145.414212 239.190549 
z
" clip-path="url(#p23d516efdf)" style="fill: #ffefe8; fill-opacity: 0.7"/>
    <path d="M 221.807164 239.387772 
L 225.699051 235.834715 
L 232.966464 227.514091 
L 228.940591 239.699873 
z
" clip-path="url(#p23d516efdf)" style="fill: #fff0e8; fill-opacity: 0.7"/>
    <path d="M 156.537982 236.833685 
L 160.699403 233.128048 
L 167.608301 231.75763 
L 163.476058 237.168125 
z
" clip-path="url(#p23d516efdf)" style="fill: #ffeee7; fill-opacity: 0.7"/>
    <path d="M 109.345318 239.236195 
L 113.443082 226.900737 
L 120.513682 237.372358 
L 116.132551 239.446782 
z
" clip-path="url(#p23d516efdf)" style="fill: #fff0e8; fill-opacity: 0.7"/>
    <path d="M 232.966464 227.514091 
L 236.92756 218.435156 
L 243.812806 232.291845 
L 239.975963 236.379181 
z
" clip-path="url(#p23d516efdf)" style="fill: #fee5d8; fill-opacity: 0.7"/>
    <path d="M 274.753701 165.082718 
L 279.416534 132.676265 
L 286.881322 128.894311 
L 282.259028 158.305205 
z
" clip-path="url(#p23d516efdf)" style="fill: #b11218; fill-opacity: 0.7"/>
    <path d="M 145.414212 239.190549 
L 149.660817 237.720967 
L 156.537982 236.833685 
L 152.379808 243.194147 
z
" clip-path="url(#p23d516efdf)" style="fill: #fff4ef; fill-opacity: 0.7"/>
    <path d="M 127.336078 238.04494 
L 131.66192 236.211778 
L 138.406992 231.926261 
L 134.243702 240.836839 
z
" clip-path="url(#p23d516efdf)" style="fill: #fff0e9; fill-opacity: 0.7"/>
    <path d="M 210.803403 239.580248 
L 214.752334 235.734628 
L 221.807164 239.387772 
L 217.918326 239.958065 
z
" clip-path="url(#p23d516efdf)" style="fill: #fff3ed; fill-opacity: 0.7"/>
    <path d="M 189.732464 211.635264 
L 193.784168 201.991803 
L 200.767164 218.096366 
L 196.74757 225.499104 
z
" clip-path="url(#p23d516efdf)" style="fill: #fcc1a8; fill-opacity: 0.7"/>
    <path d="M 185.682367 236.723354 
L 189.732464 211.635264 
L 196.74757 225.499104 
L 192.697117 238.596466 
z
" clip-path="url(#p23d516efdf)" style="fill: #fee3d6; fill-opacity: 0.7"/>
    <path d="M 178.675036 227.706771 
L 182.697928 203.38648 
L 189.732464 211.635264 
L 185.682367 236.723354 
z
" clip-path="url(#p23d516efdf)" style="fill: #fdd0bc; fill-opacity: 0.7"/>
    <path d="M 174.59376 235.001424 
L 178.675036 227.706771 
L 185.682367 236.723354 
L 181.593136 233.334622 
z
" clip-path="url(#p23d516efdf)" style="fill: #feeae0; fill-opacity: 0.7"/>
    <path d="M 182.697928 203.38648 
L 186.765453 199.905299 
L 193.784168 201.991803 
L 189.732464 211.635264 
z
" clip-path="url(#p23d516efdf)" style="fill: #fca285; fill-opacity: 0.7"/>
    <path d="M 192.697117 238.596466 
L 196.74757 225.499104 
L 203.747493 236.634735 
L 199.764856 236.421138 
z
" clip-path="url(#p23d516efdf)" style="fill: #ffebe2; fill-opacity: 0.7"/>
    <path d="M 239.975963 236.379181 
L 243.812806 232.291845 
L 251.131739 227.269421 
L 247.250991 233.631527 
z
" clip-path="url(#p23d516efdf)" style="fill: #fee8dd; fill-opacity: 0.7"/>
    <path d="M 163.476058 237.168125 
L 167.608301 231.75763 
L 174.59376 235.001424 
L 170.502768 244.046028 
z
" clip-path="url(#p23d516efdf)" style="fill: #ffeee7; fill-opacity: 0.7"/>
    <path d="M 116.132551 239.446782 
L 120.513682 237.372358 
L 127.336078 238.04494 
L 122.908737 237.580212 
z
" clip-path="url(#p23d516efdf)" style="fill: #fff0e8; fill-opacity: 0.7"/>
    <path d="M 228.940591 239.699873 
L 232.966464 227.514091 
L 239.975963 236.379181 
L 236.036887 244.311052 
z
" clip-path="url(#p23d516efdf)" style="fill: #ffeee7; fill-opacity: 0.7"/>
    <path d="M 181.593136 233.334622 
L 185.682367 236.723354 
L 192.697117 238.596466 
L 188.645371 240.855778 
z
" clip-path="url(#p23d516efdf)" style="fill: #ffeee7; fill-opacity: 0.7"/>
    <path d="M 152.379808 243.194147 
L 156.537982 236.833685 
L 163.476058 237.168125 
L 159.34893 245.534933 
z
" clip-path="url(#p23d516efdf)" style="fill: #fff3ed; fill-opacity: 0.7"/>
    <path d="M 199.764856 236.421138 
L 203.747493 236.634735 
L 210.803403 239.580248 
L 206.824146 243.244655 
z
" clip-path="url(#p23d516efdf)" style="fill: #fff0e9; fill-opacity: 0.7"/>
    <path d="M 134.243702 240.836839 
L 138.406992 231.926261 
L 145.414212 239.190549 
L 141.087334 238.635911 
z
" clip-path="url(#p23d516efdf)" style="fill: #ffeee6; fill-opacity: 0.7"/>
    <path d="M 90.601443 219.481215 
L 95.718871 233.935498 
L 102.285114 229.703407 
L 97.212398 215.006505 
z
" clip-path="url(#p23d516efdf)" style="fill: #fdd5c4; fill-opacity: 0.7"/>
    <path d="M 217.918326 239.958065 
L 221.807164 239.387772 
L 228.940591 239.699873 
L 225.129501 236.724297 
z
" clip-path="url(#p23d516efdf)" style="fill: #ffefe8; fill-opacity: 0.7"/>
    <path d="M 273.915691 193.778005 
L 278.097256 175.607644 
L 286.358684 150.051179 
L 282.203834 165.878162 
z
" clip-path="url(#p23d516efdf)" style="fill: #ea362a; fill-opacity: 0.7"/>
    <path d="M 122.908737 237.580212 
L 127.336078 238.04494 
L 134.243702 240.836839 
L 129.973912 245.899376 
z
" clip-path="url(#p23d516efdf)" style="fill: #fff0e9; fill-opacity: 0.7"/>
    <path d="M 251.131739 227.269421 
L 254.667672 233.234853 
L 262.55046 210.027749 
L 259.018009 204.36332 
z
" clip-path="url(#p23d516efdf)" style="fill: #fcc3ab; fill-opacity: 0.7"/>
    <path d="M 270.121034 200.153226 
L 273.915691 193.778005 
L 282.203834 165.878162 
L 278.203026 177.390667 
z
" clip-path="url(#p23d516efdf)" style="fill: #f85f43; fill-opacity: 0.7"/>
    <path d="M 188.645371 240.855778 
L 192.697117 238.596466 
L 199.764856 236.421138 
L 195.713049 244.324382 
z
" clip-path="url(#p23d516efdf)" style="fill: #ffefe8; fill-opacity: 0.7"/>
    <path d="M 278.097256 175.607644 
L 282.259028 158.305205 
L 290.295745 139.959115 
L 286.358684 150.051179 
z
" clip-path="url(#p23d516efdf)" style="fill: #c2161b; fill-opacity: 0.7"/>
    <path d="M 206.824146 243.244655 
L 210.803403 239.580248 
L 217.918326 239.958065 
L 213.955721 243.687049 
z
" clip-path="url(#p23d516efdf)" style="fill: #fff1ea; fill-opacity: 0.7"/>
    <path d="M 159.34893 245.534933 
L 163.476058 237.168125 
L 170.502768 244.046028 
L 166.328323 245.376313 
z
" clip-path="url(#p23d516efdf)" style="fill: #fff3ed; fill-opacity: 0.7"/>
    <path d="M 170.502768 244.046028 
L 174.59376 235.001424 
L 181.593136 233.334622 
L 177.472104 235.78555 
z
" clip-path="url(#p23d516efdf)" style="fill: #feeae1; fill-opacity: 0.7"/>
    <path d="M 104.485273 228.594408 
L 109.345318 239.236195 
L 116.132551 239.446782 
L 111.610465 238.255452 
z
" clip-path="url(#p23d516efdf)" style="fill: #fee9df; fill-opacity: 0.7"/>
    <path d="M 97.212398 215.006505 
L 102.285114 229.703407 
L 109.345318 239.236195 
L 104.485273 228.594408 
z
" clip-path="url(#p23d516efdf)" style="fill: #fedaca; fill-opacity: 0.7"/>
    <path d="M 141.087334 238.635911 
L 145.414212 239.190549 
L 152.379808 243.194147 
L 148.011425 237.944712 
z
" clip-path="url(#p23d516efdf)" style="fill: #ffeee6; fill-opacity: 0.7"/>
    <path d="M 265.987965 216.951815 
L 270.121034 200.153226 
L 278.203026 177.390667 
L 274.367536 183.708076 
z
" clip-path="url(#p23d516efdf)" style="fill: #fb7a5a; fill-opacity: 0.7"/>
    <path d="M 236.036887 244.311052 
L 239.975963 236.379181 
L 247.250991 233.631527 
L 243.707862 223.421501 
z
" clip-path="url(#p23d516efdf)" style="fill: #fee5d8; fill-opacity: 0.7"/>
    <path d="M 225.129501 236.724297 
L 228.940591 239.699873 
L 236.036887 244.311052 
L 232.320873 238.351376 
z
" clip-path="url(#p23d516efdf)" style="fill: #ffece4; fill-opacity: 0.7"/>
    <path d="M 129.973912 245.899376 
L 134.243702 240.836839 
L 141.087334 238.635911 
L 136.854714 245.19282 
z
" clip-path="url(#p23d516efdf)" style="fill: #fff0e9; fill-opacity: 0.7"/>
    <path d="M 195.713049 244.324382 
L 199.764856 236.421138 
L 206.824146 243.244655 
L 202.808863 247.475806 
z
" clip-path="url(#p23d516efdf)" style="fill: #fff0e9; fill-opacity: 0.7"/>
    <path d="M 148.011425 237.944712 
L 152.379808 243.194147 
L 159.34893 245.534933 
L 155.073241 244.038911 
z
" clip-path="url(#p23d516efdf)" style="fill: #ffefe8; fill-opacity: 0.7"/>
    <path d="M 111.610465 238.255452 
L 116.132551 239.446782 
L 122.908737 237.580212 
L 118.447891 237.754567 
z
" clip-path="url(#p23d516efdf)" style="fill: #fee8de; fill-opacity: 0.7"/>
    <path d="M 177.472104 235.78555 
L 181.593136 233.334622 
L 188.645371 240.855778 
L 184.55814 244.900791 
z
" clip-path="url(#p23d516efdf)" style="fill: #fee9df; fill-opacity: 0.7"/>
    <path d="M 282.259028 158.305205 
L 286.881322 128.894311 
L 295.104611 107.847523 
L 290.295745 139.959115 
z
" clip-path="url(#p23d516efdf)" style="fill: #67000d; fill-opacity: 0.7"/>
    <path d="M 166.328323 245.376313 
L 170.502768 244.046028 
L 177.472104 235.78555 
L 173.381339 249.882516 
z
" clip-path="url(#p23d516efdf)" style="fill: #fff0e9; fill-opacity: 0.7"/>
    <path d="M 184.55814 244.900791 
L 188.645371 240.855778 
L 195.713049 244.324382 
L 191.642831 251.120996 
z
" clip-path="url(#p23d516efdf)" style="fill: #fff2ec; fill-opacity: 0.7"/>
    <path d="M 213.955721 243.687049 
L 217.918326 239.958065 
L 225.129501 236.724297 
L 221.173378 240.872128 
z
" clip-path="url(#p23d516efdf)" style="fill: #feeae0; fill-opacity: 0.7"/>
    <path d="M 202.808863 247.475806 
L 206.824146 243.244655 
L 213.955721 243.687049 
L 209.938429 250.000737 
z
" clip-path="url(#p23d516efdf)" style="fill: #fff2ec; fill-opacity: 0.7"/>
    <path d="M 118.447891 237.754567 
L 122.908737 237.580212 
L 129.973912 245.899376 
L 125.590016 247.634522 
z
" clip-path="url(#p23d516efdf)" style="fill: #ffece4; fill-opacity: 0.7"/>
    <path d="M 155.073241 244.038911 
L 159.34893 245.534933 
L 166.328323 245.376313 
L 162.144307 249.906325 
z
" clip-path="url(#p23d516efdf)" style="fill: #fff2eb; fill-opacity: 0.7"/>
    <path d="M 136.854714 245.19282 
L 141.087334 238.635911 
L 148.011425 237.944712 
L 143.829951 247.089979 
z
" clip-path="url(#p23d516efdf)" style="fill: #ffebe2; fill-opacity: 0.7"/>
    <path d="M 247.250991 233.631527 
L 251.131739 227.269421 
L 259.018009 204.36332 
L 255.245436 205.694079 
z
" clip-path="url(#p23d516efdf)" style="fill: #fcb296; fill-opacity: 0.7"/>
    <path d="M 191.642831 251.120996 
L 195.713049 244.324382 
L 202.808863 247.475806 
L 198.785024 246.203472 
z
" clip-path="url(#p23d516efdf)" style="fill: #fff2eb; fill-opacity: 0.7"/>
    <path d="M 262.55046 210.027749 
L 265.987965 216.951815 
L 274.367536 183.708076 
L 270.927644 176.90418 
z
" clip-path="url(#p23d516efdf)" style="fill: #fb7656; fill-opacity: 0.7"/>
    <path d="M 125.590016 247.634522 
L 129.973912 245.899376 
L 136.854714 245.19282 
L 132.467776 245.95275 
z
" clip-path="url(#p23d516efdf)" style="fill: #fff0e8; fill-opacity: 0.7"/>
    <path d="M 173.381339 249.882516 
L 177.472104 235.78555 
L 184.55814 244.900791 
L 180.420821 243.387195 
z
" clip-path="url(#p23d516efdf)" style="fill: #ffebe2; fill-opacity: 0.7"/>
    <path d="M 221.173378 240.872128 
L 225.129501 236.724297 
L 232.320873 238.351376 
L 228.245627 251.18293 
z
" clip-path="url(#p23d516efdf)" style="fill: #fee8de; fill-opacity: 0.7"/>
    <path d="M 162.144307 249.906325 
L 166.328323 245.376313 
L 173.381339 249.882516 
L 169.183448 249.829784 
z
" clip-path="url(#p23d516efdf)" style="fill: #fff2ec; fill-opacity: 0.7"/>
    <path d="M 232.320873 238.351376 
L 236.036887 244.311052 
L 243.707862 223.421501 
L 239.661147 234.477986 
z
" clip-path="url(#p23d516efdf)" style="fill: #fedecf; fill-opacity: 0.7"/>
    <path d="M 209.938429 250.000737 
L 213.955721 243.687049 
L 221.173378 240.872128 
L 217.088556 253.543273 
z
" clip-path="url(#p23d516efdf)" style="fill: #fff0e8; fill-opacity: 0.7"/>
    <path d="M 143.829951 247.089979 
L 148.011425 237.944712 
L 155.073241 244.038911 
L 150.812211 247.116999 
z
" clip-path="url(#p23d516efdf)" style="fill: #feeae1; fill-opacity: 0.7"/>
    <path d="M 180.420821 243.387195 
L 184.55814 244.900791 
L 191.642831 251.120996 
L 187.547516 253.346078 
z
" clip-path="url(#p23d516efdf)" style="fill: #fff0e9; fill-opacity: 0.7"/>
    <path d="M 198.785024 246.203472 
L 202.808863 247.475806 
L 209.938429 250.000737 
L 205.939449 250.161813 
z
" clip-path="url(#p23d516efdf)" style="fill: #fff0e8; fill-opacity: 0.7"/>
    <path d="M 106.743111 227.987689 
L 111.610465 238.255452 
L 118.447891 237.754567 
L 114.057365 242.023361 
z
" clip-path="url(#p23d516efdf)" style="fill: #fedbcc; fill-opacity: 0.7"/>
    <path d="M 132.467776 245.95275 
L 136.854714 245.19282 
L 143.829951 247.089979 
L 139.480326 248.431911 
z
" clip-path="url(#p23d516efdf)" style="fill: #ffece4; fill-opacity: 0.7"/>
    <path d="M 150.812211 247.116999 
L 155.073241 244.038911 
L 162.144307 249.906325 
L 157.915231 253.397931 
z
" clip-path="url(#p23d516efdf)" style="fill: #ffefe8; fill-opacity: 0.7"/>
    <path d="M 217.088556 253.543273 
L 221.173378 240.872128 
L 228.245627 251.18293 
L 224.366312 250.033638 
z
" clip-path="url(#p23d516efdf)" style="fill: #ffefe8; fill-opacity: 0.7"/>
    <path d="M 99.390835 213.757916 
L 104.485273 228.594408 
L 111.610465 238.255452 
L 106.743111 227.987689 
z
" clip-path="url(#p23d516efdf)" style="fill: #fcc2aa; fill-opacity: 0.7"/>
    <path d="M 114.057365 242.023361 
L 118.447891 237.754567 
L 125.590016 247.634522 
L 121.067138 245.79164 
z
" clip-path="url(#p23d516efdf)" style="fill: #fee7db; fill-opacity: 0.7"/>
    <path d="M 85.148421 199.227194 
L 90.601443 219.481215 
L 97.212398 215.006505 
L 92.184324 204.282676 
z
" clip-path="url(#p23d516efdf)" style="fill: #fc8f6f; fill-opacity: 0.7"/>
    <path d="M 169.183448 249.829784 
L 173.381339 249.882516 
L 180.420821 243.387195 
L 176.280993 252.265327 
z
" clip-path="url(#p23d516efdf)" style="fill: #ffeee7; fill-opacity: 0.7"/>
    <path d="M 187.547516 253.346078 
L 191.642831 251.120996 
L 198.785024 246.203472 
L 194.693741 251.831511 
z
" clip-path="url(#p23d516efdf)" style="fill: #fff0e9; fill-opacity: 0.7"/>
    <path d="M 228.245627 251.18293 
L 232.320873 238.351376 
L 239.661147 234.477986 
L 235.725233 239.104975 
z
" clip-path="url(#p23d516efdf)" style="fill: #fee2d5; fill-opacity: 0.7"/>
    <path d="M 92.184324 204.282676 
L 97.212398 215.006505 
L 104.485273 228.594408 
L 99.390835 213.757916 
z
" clip-path="url(#p23d516efdf)" style="fill: #fc9d7f; fill-opacity: 0.7"/>
    <path d="M 205.939449 250.161813 
L 209.938429 250.000737 
L 217.088556 253.543273 
L 213.152023 250.703965 
z
" clip-path="url(#p23d516efdf)" style="fill: #fff0e9; fill-opacity: 0.7"/>
    <path d="M 157.915231 253.397931 
L 162.144307 249.906325 
L 169.183448 249.829784 
L 165.00203 256.741562 
z
" clip-path="url(#p23d516efdf)" style="fill: #fff2ec; fill-opacity: 0.7"/>
    <path d="M 243.707862 223.421501 
L 247.250991 233.631527 
L 255.245436 205.694079 
L 251.340634 210.852888 
z
" clip-path="url(#p23d516efdf)" style="fill: #fca689; fill-opacity: 0.7"/>
    <path d="M 121.067138 245.79164 
L 125.590016 247.634522 
L 132.467776 245.95275 
L 128.108103 249.8396 
z
" clip-path="url(#p23d516efdf)" style="fill: #feeae1; fill-opacity: 0.7"/>
    <path d="M 139.480326 248.431911 
L 143.829951 247.089979 
L 150.812211 247.116999 
L 146.503517 249.627333 
z
" clip-path="url(#p23d516efdf)" style="fill: #feeae1; fill-opacity: 0.7"/>
    <path d="M 176.280993 252.265327 
L 180.420821 243.387195 
L 187.547516 253.346078 
L 183.403393 250.592788 
z
" clip-path="url(#p23d516efdf)" style="fill: #ffece3; fill-opacity: 0.7"/>
    <path d="M 194.693741 251.831511 
L 198.785024 246.203472 
L 205.939449 250.161813 
L 201.852706 258.232591 
z
" clip-path="url(#p23d516efdf)" style="fill: #ffeee6; fill-opacity: 0.7"/>
    <path d="M 259.018009 204.36332 
L 262.55046 210.027749 
L 270.927644 176.90418 
L 267.154518 179.08066 
z
" clip-path="url(#p23d516efdf)" style="fill: #f6553c; fill-opacity: 0.7"/>
    <path d="M 224.366312 250.033638 
L 228.245627 251.18293 
L 235.725233 239.104975 
L 231.661674 249.435056 
z
" clip-path="url(#p23d516efdf)" style="fill: #fee8dd; fill-opacity: 0.7"/>
    <path d="M 213.152023 250.703965 
L 217.088556 253.543273 
L 224.366312 250.033638 
L 220.33139 257.325741 
z
" clip-path="url(#p23d516efdf)" style="fill: #fff0e8; fill-opacity: 0.7"/>
    <path d="M 165.00203 256.741562 
L 169.183448 249.829784 
L 176.280993 252.265327 
L 172.089283 255.859383 
z
" clip-path="url(#p23d516efdf)" style="fill: #fff0e9; fill-opacity: 0.7"/>
    <path d="M 128.108103 249.8396 
L 132.467776 245.95275 
L 139.480326 248.431911 
L 135.122157 251.507867 
z
" clip-path="url(#p23d516efdf)" style="fill: #fee9df; fill-opacity: 0.7"/>
    <path d="M 183.403393 250.592788 
L 187.547516 253.346078 
L 194.693741 251.831511 
L 190.572091 259.874836 
z
" clip-path="url(#p23d516efdf)" style="fill: #fff0e8; fill-opacity: 0.7"/>
    <path d="M 146.503517 249.627333 
L 150.812211 247.116999 
L 157.915231 253.397931 
L 153.472954 244.049773 
z
" clip-path="url(#p23d516efdf)" style="fill: #fee7dc; fill-opacity: 0.7"/>
    <path d="M 239.661147 234.477986 
L 243.707862 223.421501 
L 251.340634 210.852888 
L 247.287844 221.231824 
z
" clip-path="url(#p23d516efdf)" style="fill: #fca689; fill-opacity: 0.7"/>
    <path d="M 109.129812 230.179692 
L 114.057365 242.023361 
L 121.067138 245.79164 
L 116.752673 253.319877 
z
" clip-path="url(#p23d516efdf)" style="fill: #fedccd; fill-opacity: 0.7"/>
    <path d="M 116.752673 253.319877 
L 121.067138 245.79164 
L 128.108103 249.8396 
L 123.753279 255.357042 
z
" clip-path="url(#p23d516efdf)" style="fill: #feeae0; fill-opacity: 0.7"/>
    <path d="M 201.852706 258.232591 
L 205.939449 250.161813 
L 213.152023 250.703965 
L 209.141047 250.297458 
z
" clip-path="url(#p23d516efdf)" style="fill: #ffebe2; fill-opacity: 0.7"/>
    <path d="M 190.572091 259.874836 
L 194.693741 251.831511 
L 201.852706 258.232591 
L 197.763898 261.543073 
z
" clip-path="url(#p23d516efdf)" style="fill: #fff3ed; fill-opacity: 0.7"/>
    <path d="M 220.33139 257.325741 
L 224.366312 250.033638 
L 231.661674 249.435056 
L 227.639515 256.330365 
z
" clip-path="url(#p23d516efdf)" style="fill: #ffece3; fill-opacity: 0.7"/>
    <path d="M 153.472954 244.049773 
L 157.915231 253.397931 
L 165.00203 256.741562 
L 160.68709 253.729178 
z
" clip-path="url(#p23d516efdf)" style="fill: #fee9df; fill-opacity: 0.7"/>
    <path d="M 172.089283 255.859383 
L 176.280993 252.265327 
L 183.403393 250.592788 
L 179.226291 254.399127 
z
" clip-path="url(#p23d516efdf)" style="fill: #ffebe2; fill-opacity: 0.7"/>
    <path d="M 101.848075 219.515397 
L 106.743111 227.987689 
L 114.057365 242.023361 
L 109.129812 230.179692 
z
" clip-path="url(#p23d516efdf)" style="fill: #fcb69b; fill-opacity: 0.7"/>
    <path d="M 135.122157 251.507867 
L 139.480326 248.431911 
L 146.503517 249.627333 
L 142.023058 244.979693 
z
" clip-path="url(#p23d516efdf)" style="fill: #fee4d8; fill-opacity: 0.7"/>
    <path d="M 235.725233 239.104975 
L 239.661147 234.477986 
L 247.287844 221.231824 
L 243.431289 221.984675 
z
" clip-path="url(#p23d516efdf)" style="fill: #fcb296; fill-opacity: 0.7"/>
    <path d="M 160.68709 253.729178 
L 165.00203 256.741562 
L 172.089283 255.859383 
L 167.885134 262.377707 
z
" clip-path="url(#p23d516efdf)" style="fill: #ffefe8; fill-opacity: 0.7"/>
    <path d="M 123.753279 255.357042 
L 128.108103 249.8396 
L 135.122157 251.507867 
L 130.520073 245.64167 
z
" clip-path="url(#p23d516efdf)" style="fill: #fee5d8; fill-opacity: 0.7"/>
    <path d="M 209.141047 250.297458 
L 213.152023 250.703965 
L 220.33139 257.325741 
L 216.394405 253.873568 
z
" clip-path="url(#p23d516efdf)" style="fill: #fee8dd; fill-opacity: 0.7"/>
    <path d="M 179.226291 254.399127 
L 183.403393 250.592788 
L 190.572091 259.874836 
L 186.423234 258.863747 
z
" clip-path="url(#p23d516efdf)" style="fill: #ffece3; fill-opacity: 0.7"/>
    <path d="M 255.245436 205.694079 
L 259.018009 204.36332 
L 267.154518 179.08066 
L 263.594036 172.70423 
z
" clip-path="url(#p23d516efdf)" style="fill: #ee3a2c; fill-opacity: 0.7"/>
    <path d="M 197.763898 261.543073 
L 201.852706 258.232591 
L 209.141047 250.297458 
L 205.00906 260.924096 
z
" clip-path="url(#p23d516efdf)" style="fill: #ffeee6; fill-opacity: 0.7"/>
    <path d="M 94.255892 200.701369 
L 99.390835 213.757916 
L 106.743111 227.987689 
L 101.848075 219.515397 
z
" clip-path="url(#p23d516efdf)" style="fill: #fc8767; fill-opacity: 0.7"/>
    <path d="M 231.661674 249.435056 
L 235.725233 239.104975 
L 243.431289 221.984675 
L 239.240542 237.294551 
z
" clip-path="url(#p23d516efdf)" style="fill: #fcc1a8; fill-opacity: 0.7"/>
    <path d="M 216.394405 253.873568 
L 220.33139 257.325741 
L 227.639515 256.330365 
L 223.610168 262.078239 
z
" clip-path="url(#p23d516efdf)" style="fill: #ffece4; fill-opacity: 0.7"/>
    <path d="M 167.885134 262.377707 
L 172.089283 255.859383 
L 179.226291 254.399127 
L 175.00929 257.350115 
z
" clip-path="url(#p23d516efdf)" style="fill: #ffebe2; fill-opacity: 0.7"/>
    <path d="M 86.961003 190.904248 
L 92.184324 204.282676 
L 99.390835 213.757916 
L 94.255892 200.701369 
z
" clip-path="url(#p23d516efdf)" style="fill: #f75c41; fill-opacity: 0.7"/>
    <path d="M 79.48442 176.952964 
L 85.148421 199.227194 
L 92.184324 204.282676 
L 86.961003 190.904248 
z
" clip-path="url(#p23d516efdf)" style="fill: #ef3c2c; fill-opacity: 0.7"/>
    <path d="M 142.023058 244.979693 
L 146.503517 249.627333 
L 153.472954 244.049773 
L 149.046521 241.007306 
z
" clip-path="url(#p23d516efdf)" style="fill: #fdd2bf; fill-opacity: 0.7"/>
    <path d="M 186.423234 258.863747 
L 190.572091 259.874836 
L 197.763898 261.543073 
L 193.670074 250.414671 
z
" clip-path="url(#p23d516efdf)" style="fill: #feeae1; fill-opacity: 0.7"/>
    <path d="M 227.639515 256.330365 
L 231.661674 249.435056 
L 239.240542 237.294551 
L 235.177027 245.893616 
z
" clip-path="url(#p23d516efdf)" style="fill: #fed8c7; fill-opacity: 0.7"/>
    <path d="M 205.00906 260.924096 
L 209.141047 250.297458 
L 216.394405 253.873568 
L 212.286872 262.299123 
z
" clip-path="url(#p23d516efdf)" style="fill: #fee8dd; fill-opacity: 0.7"/>
    <path d="M 156.257615 246.374319 
L 160.68709 253.729178 
L 167.885134 262.377707 
L 163.640437 267.492935 
z
" clip-path="url(#p23d516efdf)" style="fill: #fee8dd; fill-opacity: 0.7"/>
    <path d="M 130.520073 245.64167 
L 135.122157 251.507867 
L 142.023058 244.979693 
L 137.516852 242.381565 
z
" clip-path="url(#p23d516efdf)" style="fill: #fdd1be; fill-opacity: 0.7"/>
    <path d="M 251.340634 210.852888 
L 255.245436 205.694079 
L 263.594036 172.70423 
L 259.548884 181.736571 
z
" clip-path="url(#p23d516efdf)" style="fill: #ea362a; fill-opacity: 0.7"/>
    <path d="M 193.670074 250.414671 
L 197.763898 261.543073 
L 205.00906 260.924096 
L 200.892138 266.127493 
z
" clip-path="url(#p23d516efdf)" style="fill: #feeae1; fill-opacity: 0.7"/>
    <path d="M 223.610168 262.078239 
L 227.639515 256.330365 
L 235.177027 245.893616 
L 231.028936 258.392735 
z
" clip-path="url(#p23d516efdf)" style="fill: #fee4d8; fill-opacity: 0.7"/>
    <path d="M 149.046521 241.007306 
L 153.472954 244.049773 
L 160.68709 253.729178 
L 156.257615 246.374319 
z
" clip-path="url(#p23d516efdf)" style="fill: #fdcebb; fill-opacity: 0.7"/>
    <path d="M 212.286872 262.299123 
L 216.394405 253.873568 
L 223.610168 262.078239 
L 219.634016 261.376922 
z
" clip-path="url(#p23d516efdf)" style="fill: #fee9df; fill-opacity: 0.7"/>
    <path d="M 163.640437 267.492935 
L 167.885134 262.377707 
L 175.00929 257.350115 
L 170.742062 258.6764 
z
" clip-path="url(#p23d516efdf)" style="fill: #ffece3; fill-opacity: 0.7"/>
    <path d="M 175.00929 257.350115 
L 179.226291 254.399127 
L 186.423234 258.863747 
L 182.196676 246.799258 
z
" clip-path="url(#p23d516efdf)" style="fill: #fee1d3; fill-opacity: 0.7"/>
    <path d="M 200.892138 266.127493 
L 205.00906 260.924096 
L 212.286872 262.299123 
L 208.163774 270.241422 
z
" clip-path="url(#p23d516efdf)" style="fill: #fff0e8; fill-opacity: 0.7"/>
    <path d="M 247.287844 221.231824 
L 251.340634 210.852888 
L 259.548884 181.736571 
L 255.33797 196.511009 
z
" clip-path="url(#p23d516efdf)" style="fill: #f44f39; fill-opacity: 0.7"/>
    <path d="M 243.431289 221.984675 
L 247.287844 221.231824 
L 255.33797 196.511009 
L 251.076624 213.365289 
z
" clip-path="url(#p23d516efdf)" style="fill: #fb6d4d; fill-opacity: 0.7"/>
    <path d="M 219.634016 261.376922 
L 223.610168 262.078239 
L 231.028936 258.392735 
L 226.993589 263.182627 
z
" clip-path="url(#p23d516efdf)" style="fill: #fee7dc; fill-opacity: 0.7"/>
    <path d="M 137.516852 242.381565 
L 142.023058 244.979693 
L 149.046521 241.007306 
L 144.69519 245.868691 
z
" clip-path="url(#p23d516efdf)" style="fill: #fcbfa7; fill-opacity: 0.7"/>
    <path d="M 208.163774 270.241422 
L 212.286872 262.299123 
L 219.634016 261.376922 
L 215.529402 268.011219 
z
" clip-path="url(#p23d516efdf)" style="fill: #ffece4; fill-opacity: 0.7"/>
    <path d="M 239.240542 237.294551 
L 243.431289 221.984675 
L 251.076624 213.365289 
L 246.999981 222.500615 
z
" clip-path="url(#p23d516efdf)" style="fill: #fc8666; fill-opacity: 0.7"/>
    <path d="M 151.871345 247.27774 
L 156.257615 246.374319 
L 163.640437 267.492935 
L 159.261496 263.763402 
z
" clip-path="url(#p23d516efdf)" style="fill: #fedccd; fill-opacity: 0.7"/>
    <path d="M 235.177027 245.893616 
L 239.240542 237.294551 
L 246.999981 222.500615 
L 242.750587 238.898759 
z
" clip-path="url(#p23d516efdf)" style="fill: #fca689; fill-opacity: 0.7"/>
    <path d="M 159.261496 263.763402 
L 163.640437 267.492935 
L 170.742062 258.6764 
L 166.47689 265.444842 
z
" clip-path="url(#p23d516efdf)" style="fill: #fee8de; fill-opacity: 0.7"/>
    <path d="M 182.196676 246.799258 
L 186.423234 258.863747 
L 193.670074 250.414671 
L 189.489 244.721608 
z
" clip-path="url(#p23d516efdf)" style="fill: #fdcbb6; fill-opacity: 0.7"/>
    <path d="M 144.69519 245.868691 
L 149.046521 241.007306 
L 156.257615 246.374319 
L 151.871345 247.27774 
z
" clip-path="url(#p23d516efdf)" style="fill: #fcbda4; fill-opacity: 0.7"/>
    <path d="M 196.792531 257.292274 
L 200.892138 266.127493 
L 208.163774 270.241422 
L 204.107469 264.24359 
z
" clip-path="url(#p23d516efdf)" style="fill: #fee7dc; fill-opacity: 0.7"/>
    <path d="M 231.028936 258.392735 
L 235.177027 245.893616 
L 242.750587 238.898759 
L 238.857398 237.732045 
z
" clip-path="url(#p23d516efdf)" style="fill: #fcbba1; fill-opacity: 0.7"/>
    <path d="M 189.489 244.721608 
L 193.670074 250.414671 
L 200.892138 266.127493 
L 196.792531 257.292274 
z
" clip-path="url(#p23d516efdf)" style="fill: #fdd2bf; fill-opacity: 0.7"/>
    <path d="M 215.529402 268.011219 
L 219.634016 261.376922 
L 226.993589 263.182627 
L 222.973687 264.621666 
z
" clip-path="url(#p23d516efdf)" style="fill: #fee5d9; fill-opacity: 0.7"/>
    <path d="M 170.742062 258.6764 
L 175.00929 257.350115 
L 182.196676 246.799258 
L 177.886195 236.090449 
z
" clip-path="url(#p23d516efdf)" style="fill: #fcc3ab; fill-opacity: 0.7"/>
    <path d="M 226.993589 263.182627 
L 231.028936 258.392735 
L 238.857398 237.732045 
L 234.580364 254.75455 
z
" clip-path="url(#p23d516efdf)" style="fill: #fdcab5; fill-opacity: 0.7"/>
    <path d="M 204.107469 264.24359 
L 208.163774 270.241422 
L 215.529402 268.011219 
L 211.551838 258.171288 
z
" clip-path="url(#p23d516efdf)" style="fill: #fee4d8; fill-opacity: 0.7"/>
    <path d="M 222.973687 264.621666 
L 226.993589 263.182627 
L 234.580364 254.75455 
L 230.575863 256.013162 
z
" clip-path="url(#p23d516efdf)" style="fill: #fdd1be; fill-opacity: 0.7"/>
    <path d="M 211.551838 258.171288 
L 215.529402 268.011219 
L 222.973687 264.621666 
L 218.849733 271.1103 
z
" clip-path="url(#p23d516efdf)" style="fill: #fee0d2; fill-opacity: 0.7"/>
    <path d="M 166.47689 265.444842 
L 170.742062 258.6764 
L 177.886195 236.090449 
L 173.547243 235.382308 
z
" clip-path="url(#p23d516efdf)" style="fill: #fcb296; fill-opacity: 0.7"/>
    <path d="M 177.886195 236.090449 
L 182.196676 246.799258 
L 189.489 244.721608 
L 185.241284 240.016935 
z
" clip-path="url(#p23d516efdf)" style="fill: #fc9d7f; fill-opacity: 0.7"/>
    <path d="M 218.849733 271.1103 
L 222.973687 264.621666 
L 230.575863 256.013162 
L 226.438193 263.206698 
z
" clip-path="url(#p23d516efdf)" style="fill: #fdd2bf; fill-opacity: 0.7"/>
    <path d="M 185.241284 240.016935 
L 189.489 244.721608 
L 196.792531 257.292274 
L 192.645491 230.973874 
z
" clip-path="url(#p23d516efdf)" style="fill: #fc997a; fill-opacity: 0.7"/>
    <path d="M 192.645491 230.973874 
L 196.792531 257.292274 
L 204.107469 264.24359 
L 200.062305 241.321223 
z
" clip-path="url(#p23d516efdf)" style="fill: #fca588; fill-opacity: 0.7"/>
    <path d="M 200.062305 241.321223 
L 204.107469 264.24359 
L 211.551838 258.171288 
L 207.443668 254.944818 
z
" clip-path="url(#p23d516efdf)" style="fill: #fcb499; fill-opacity: 0.7"/>
    <path d="M 207.443668 254.944818 
L 211.551838 258.171288 
L 218.849733 271.1103 
L 214.969695 252.080737 
z
" clip-path="url(#p23d516efdf)" style="fill: #fcbca2; fill-opacity: 0.7"/>
    <path d="M 173.547243 235.382308 
L 177.886195 236.090449 
L 185.241284 240.016935 
L 180.884896 220.390989 
z
" clip-path="url(#p23d516efdf)" style="fill: #fb6d4d; fill-opacity: 0.7"/>
    <path d="M 214.969695 252.080737 
L 218.849733 271.1103 
L 226.438193 263.206698 
L 222.504006 253.638957 
z
" clip-path="url(#p23d516efdf)" style="fill: #fcb79c; fill-opacity: 0.7"/>
    <path d="M 180.884896 220.390989 
L 185.241284 240.016935 
L 192.645491 230.973874 
L 188.359637 222.755235 
z
" clip-path="url(#p23d516efdf)" style="fill: #f4503a; fill-opacity: 0.7"/>
    <path d="M 188.359637 222.755235 
L 192.645491 230.973874 
L 200.062305 241.321223 
L 195.877238 223.1398 
z
" clip-path="url(#p23d516efdf)" style="fill: #f34c37; fill-opacity: 0.7"/>
    <path d="M 195.877238 223.1398 
L 200.062305 241.321223 
L 207.443668 254.944818 
L 203.423212 226.99934 
z
" clip-path="url(#p23d516efdf)" style="fill: #f96044; fill-opacity: 0.7"/>
    <path d="M 203.423212 226.99934 
L 207.443668 254.944818 
L 214.969695 252.080737 
L 210.89949 241.866902 
z
" clip-path="url(#p23d516efdf)" style="fill: #fb7353; fill-opacity: 0.7"/>
    <path d="M 210.89949 241.866902 
L 214.969695 252.080737 
L 222.504006 253.638957 
L 218.553459 238.768562 
z
" clip-path="url(#p23d516efdf)" style="fill: #fb7555; fill-opacity: 0.7"/>
   </g>
  </g>
 </g>
 <defs>
  <clipPath id="p23d516efdf">
   <rect x="45.9" y="43.2" width="277.2" height="277.2"/>
  </clipPath>
 </defs>
</svg>
